<svg xmlns="http://www.w3.org/2000/svg" width="128" height="128" fill="none" viewBox="0 0 128 128"><g clip-path="url(#clip0_2138_457)"><path fill="#fff" d="M127.258 91.772a11.7 11.7 0 0 0-1.592-3.521q.232-.852.351-1.726c.513-3.697-.769-7.08-3.183-9.699-1.309-1.43-2.711-2.374-4.196-2.954a56 56 0 0 0 1.47-12.721c0-1.957-.11-3.873-.296-5.76a64 64 0 0 0-.351-2.821 56 56 0 0 0-1.887-8.17 56 56 0 0 0-1.889-5.18 57 57 0 0 0-3.736-7.27 50 50 0 0 0-3.035-4.492 43 43 0 0 0-1.673-2.131 56 56 0 0 0-5.587-5.868 43 43 0 0 0-2.05-1.77 51 51 0 0 0-2.118-1.672 59 59 0 0 0-4.492-3.035c-8.523-5.178-18.52-8.146-29.203-8.146-31.107 0-56.317 25.212-56.317 56.316a56 56 0 0 0 1.496 12.88c-1.336.58-2.616 1.485-3.804 2.793-2.414 2.617-3.696 5.989-3.183 9.685q.117.881.35 1.74a11.8 11.8 0 0 0-1.59 3.522c-.743 2.82-.499 5.364.445 7.594-1.026 2.913-.77 6.015.566 8.713.97 1.97 2.36 3.494 4.074 4.856 2.036 1.619 4.586 2.995 7.661 4.315 3.67 1.564 8.148 3.035 10.185 3.574 5.26 1.362 10.306 2.225 15.418 2.267 7.285.068 13.558-1.645 18.049-6.028 2.206.27 4.427.405 6.65.404a58 58 0 0 0 7.025-.442c4.48 4.411 10.778 6.139 18.089 6.07 5.112-.041 10.156-.904 15.404-2.268 2.05-.539 6.527-2.01 10.198-3.574 3.075-1.322 5.625-2.698 7.675-4.315 1.701-1.362 3.089-2.886 4.061-4.856 1.349-2.698 1.591-5.8.58-8.713.934-2.23 1.177-4.779.435-7.597m-5.22 7.405c1.034 1.961 1.1 4.177.188 6.241-1.383 3.128-4.818 5.593-11.49 8.238-4.149 1.645-7.948 2.697-7.981 2.707-5.488 1.423-10.451 2.146-14.747 2.146-7.114 0-12.408-1.963-15.766-5.84-5.677.967-11.474 1-17.162.097-3.361 3.813-8.625 5.743-15.68 5.743-4.296 0-9.258-.723-14.746-2.146-.034-.01-3.832-1.062-7.982-2.707-6.671-2.645-10.108-5.108-11.49-8.238-.912-2.064-.846-4.28.188-6.241q.143-.274.307-.532A7.92 7.92 0 0 1 4.61 92.25c.41-1.56 1.258-2.858 2.41-3.79a7.9 7.9 0 0 1-1.07-2.983c-.332-2.297.431-4.59 2.146-6.46 1.336-1.456 3.224-2.257 5.315-2.257h.056a52.2 52.2 0 0 1-2.37-15.608c0-28.867 23.402-52.272 52.273-52.272 28.87 0 52.273 23.402 52.273 52.272a52.2 52.2 0 0 1-2.387 15.647q.378-.037.743-.037c2.091 0 3.98.8 5.314 2.256 1.715 1.868 2.479 4.164 2.147 6.461a7.9 7.9 0 0 1-1.07 2.983c1.152.932 2 2.23 2.41 3.79a7.9 7.9 0 0 1-1.068 6.396q.165.255.307.53"/><path fill="#FF9D00" d="M121.731 98.647a7.92 7.92 0 0 0 1.068-6.396c-.41-1.56-1.259-2.858-2.41-3.79a7.9 7.9 0 0 0 1.07-2.983c.332-2.297-.431-4.59-2.147-6.461-1.334-1.455-3.223-2.256-5.314-2.256q-.365 0-.743.037a52.2 52.2 0 0 0 2.383-15.646c0-28.868-23.403-52.271-52.27-52.271-28.87 0-52.274 23.4-52.274 52.27a52.2 52.2 0 0 0 2.37 15.61h-.056c-2.09 0-3.979.8-5.314 2.255-1.715 1.868-2.478 4.164-2.146 6.46a7.9 7.9 0 0 0 1.07 2.984c-1.152.931-2 2.23-2.411 3.79a7.92 7.92 0 0 0 1.07 6.397q-.165.258-.308.532c-1.033 1.961-1.1 4.177-.187 6.241 1.383 3.128 4.818 5.592 11.49 8.238a88 88 0 0 0 7.982 2.706c5.487 1.424 10.45 2.147 14.746 2.147 7.055 0 12.319-1.93 15.68-5.743 5.688.903 11.485.87 17.162-.097 3.358 3.877 8.652 5.84 15.766 5.84 4.296 0 9.259-.723 14.746-2.147a88 88 0 0 0 7.982-2.706c6.672-2.646 10.108-5.11 11.49-8.238.912-2.064.846-4.28-.188-6.241a6 6 0 0 0-.307-.532M52.675 106.8q-.435.76-.93 1.48c-.868 1.273-2.011 2.245-3.338 2.967-2.536 1.383-5.746 1.867-9.007 1.867-5.151 0-10.432-1.206-13.392-1.974-.146-.037-18.144-5.121-15.865-9.448.384-.728 1.015-1.019 1.81-1.019 3.208 0 9.05 4.778 11.56 4.778.561 0 .957-.239 1.118-.822 1.07-3.837-16.262-5.45-14.803-11.007.258-.983.957-1.383 1.939-1.383 4.242 0 13.762 7.46 15.753 7.46.152 0 .262-.046.321-.14l.026-.042c.934-1.544.398-2.666-6.004-6.587l-.615-.374c-7.046-4.264-11.99-6.83-9.179-9.892.324-.353.783-.51 1.34-.51.661 0 1.46.221 2.342.592 3.72 1.57 8.878 5.849 11.032 7.715q.509.442 1.01.891s2.728 2.837 4.377 2.837c.38 0 .702-.15.92-.52 1.17-1.972-10.863-11.09-11.541-14.852-.46-2.55.322-3.84 1.77-3.84.688 0 1.527.292 2.455.88 2.876 1.826 8.43 11.368 10.462 15.08.682 1.245 1.846 1.77 2.894 1.77 2.08 0 3.706-2.067.19-4.695-5.284-3.953-3.43-10.416-.907-10.813q.161-.026.324-.026c2.294 0 3.305 3.951 3.305 3.951s2.965 7.446 8.059 12.536c4.621 4.62 5.267 8.41 2.574 13.14m16.47.872-.264.031-.45.052q-.355.037-.712.07l-.232.021-.213.018-.3.024-.332.024-.332.021-.073.005-.261.015-.111.006q-.154.009-.31.015l-.359.016-.326.011-.218.006h-.11l-.204.004h-.107q-.102 0-.204.003l-.277.004h-.386q-.456 0-.91-.009l-.244-.006q-.105-.001-.208-.005l-.26-.008-.322-.012-.291-.013-.075-.003-.276-.014q-.117-.006-.23-.014l-.18-.01q-.336-.022-.673-.047l-.235-.02-.296-.025-.347-.032a38 38 0 0 1-.581-.059h-.01c2.827-6.306 1.398-12.195-4.314-17.902-3.746-3.742-6.238-9.266-6.755-10.48-1.047-3.59-3.817-7.581-8.417-7.581q-.584 0-1.161.091c-2.015.318-3.777 1.478-5.034 3.223-1.358-1.69-2.678-3.032-3.872-3.79-1.8-1.142-3.596-1.72-5.346-1.72-2.184 0-4.136.896-5.496 2.523l-.035.041-.076-.321-.003-.014a46 46 0 0 1-.652-3.348q.001-.011-.004-.022l-.039-.255a34 34 0 0 1-.107-.754l-.045-.344-.042-.343c-.014-.114-.025-.218-.037-.327l-.004-.027q-.075-.668-.13-1.338l-.013-.171-.022-.292-.017-.24-.003-.056q-.024-.337-.04-.673l-.018-.35-.012-.308-.003-.092-.01-.283-.006-.24q-.002-.144-.007-.288l-.005-.303q0-.151-.003-.302-.002-.153 0-.303c0-25.887 20.987-46.874 46.877-46.874 25.888 0 46.875 20.986 46.875 46.874v.605q-.001.152-.005.303-.001.124-.006.25 0 .113-.006.221c0 .095-.006.19-.009.284v.007l-.013.329-.013.288-.003.068-.016.307a52 52 0 0 1-.149 1.97v.007l-.033.323-.028.254-.055.498-.032.251-.039.297q-.02.16-.044.323l-.052.36-.043.284-.051.322q-.025.16-.055.32t-.055.32q-.055.319-.117.637-.094.476-.192.95l-.068.314q-.034.158-.07.314c-1.319-1.282-3.066-1.98-4.993-1.98-1.749 0-3.547.578-5.346 1.72-1.194.758-2.513 2.101-3.872 3.79-1.259-1.746-3.02-2.906-5.034-3.223a7.4 7.4 0 0 0-1.162-.091c-4.6 0-7.369 3.99-8.416 7.581-.52 1.213-3.012 6.738-6.761 10.485-5.709 5.689-7.149 11.552-4.367 17.832m48.394-12.624-.019.055a3 3 0 0 1-.162.364q-.07.129-.151.252a4 4 0 0 1-.34.44q-.04.048-.088.095a4 4 0 0 1-.136.14c-.832.826-2.101 1.55-3.536 2.213l-.495.222-.165.073q-.165.074-.338.145-.168.073-.341.144l-.345.142c-.807.332-1.634.649-2.441.961l-.345.134-.341.134q-.34.132-.671.265l-.328.133-.323.131-.158.067-.313.132c-2.373 1.019-4.081 2.055-3.722 3.34q.015.054.034.105a1.2 1.2 0 0 0 .241.411c.422.438 1.19.369 2.158.021q.204-.075.406-.157l.084-.034q.333-.142.695-.313.09-.042.181-.088c1.184-.578 2.525-1.358 3.857-2.067a34 34 0 0 1 1.619-.82c1.26-.593 2.445-1.014 3.398-1.014.447 0 .842.092 1.171.302l.055.037a1.8 1.8 0 0 1 .509.548q.038.063.074.131c.471.894.077 1.819-.845 2.726-.885.872-2.262 1.726-3.827 2.516q-.174.089-.351.176c-4.657 2.287-10.757 4.009-10.841 4.031-1.626.421-3.95.974-6.569 1.388l-.387.061-.064.009q-.44.066-.881.124-.448.06-.904.111l-.056.006q-1.653.19-3.314.251h-.016q-.601.021-1.202.022h-.462a29 29 0 0 1-1.83-.083q-.022.001-.044-.004a24 24 0 0 1-2.22-.284l-.204-.038-.015-.003a16 16 0 0 1-.64-.136 8 8 0 0 1-.37-.088l-.073-.019q-.09-.021-.18-.047l-.032-.008-.19-.056-.209-.06-.024-.007-.18-.055q-.102-.032-.203-.066l-.166-.055-.122-.043a13 13 0 0 1-.35-.128l-.11-.044-.09-.035q-.264-.106-.523-.222l-.115-.056-.02-.008q-.06-.03-.12-.055-.12-.058-.238-.118l-.025-.012-.113-.06a10 10 0 0 1-.595-.338l-.106-.065-.159-.102-.138-.091-.15-.103-.088-.064a7 7 0 0 1-.277-.207l-.144-.111a8 8 0 0 1-.31-.261l-.005-.003a8 8 0 0 1-.29-.267l-.007-.006a4 4 0 0 1-.145-.143l-.143-.146q-.07-.073-.14-.15c-.045-.051-.087-.097-.13-.148l-.015-.016a10 10 0 0 1-.382-.472 10 10 0 0 1-.244-.341l-.076-.114q-.152-.222-.297-.45-.107-.164-.21-.332l-.127-.209-.018-.029a16 16 0 0 1-.181-.313q-.031-.057-.066-.116l-.035-.061-.022-.04-.121-.224-.056-.099-.055-.107-.056-.106q-.208-.417-.394-.846l-.044-.105-.084-.207-.039-.1a10.4 10.4 0 0 1-.499-1.733 7 7 0 0 1-.09-.597l-.011-.1a7 7 0 0 1-.03-.395l-.005-.099-.005-.197c-.034-2.642 1.303-5.183 4.162-8.041 5.094-5.089 8.059-12.535 8.059-12.535s.08-.313.245-.762l.075-.195q.144-.377.326-.74l.024-.046q.154-.309.336-.601.042-.068.087-.135a6 6 0 0 1 .288-.392q.084-.104.175-.203.036-.04.073-.076c.295-.305.632-.554 1.014-.686l.048-.017.097-.03q.057-.015.114-.026l.018-.003q.12-.025.245-.033h.007l.13-.004q.08-.001.16.006.082.006.166.02c.459.072.896.346 1.272.767q.215.243.384.518.111.177.21.376l.077.16q.096.21.173.428.181.511.271 1.046.078.47.093.944.008.254 0 .513a7.4 7.4 0 0 1-.486 2.346l-.083.207q-.086.21-.187.411a7 7 0 0 1-.16.307q-.056.102-.115.204-.15.255-.323.505l-.07.1a8.4 8.4 0 0 1-.91 1.07 9.5 9.5 0 0 1-1.05.908 8.6 8.6 0 0 0-1.045.914c-.93.975-1.147 1.836-.938 2.489q.052.155.13.296.095.162.222.297l.033.034.033.034a2 2 0 0 0 .106.094l.037.03q.135.104.285.185c.029.016.055.031.088.046q.16.08.332.134l.095.03.04.01.056.015.048.012.052.011.051.01.049.009q.054.01.11.016l.035.006.065.006.04.005.064.004h.038l.068.004h.214l.062-.004.07-.004.086-.008.08-.01q.03-.002.056-.008.373-.055.722-.196l.098-.041q.251-.109.478-.26.212-.14.4-.312.045-.04.087-.082l.042-.041q.041-.04.082-.086.298-.328.51-.715 1.816-3.302 3.805-6.504l.182-.29.183-.292q.138-.221.277-.438l.093-.145q.461-.724.94-1.437l.188-.282c.378-.561.756-1.107 1.13-1.625l.186-.257q.61-.842 1.27-1.646l.175-.209c.029-.034.055-.07.087-.102l.171-.199q.041-.05.086-.097l.165-.187.083-.09q.125-.135.246-.259l.16-.162a6.5 6.5 0 0 1 1.032-.858l.087-.055q.125-.084.257-.155c1.462-.83 2.672-.891 3.369-.194.422.422.656 1.121.643 2.095q0 .064-.003.13v.048q-.001.066-.008.134-.002.083-.011.166l-.014.147q-.001.02-.005.043l-.016.13q.001.02-.005.04l-.025.175a3 3 0 0 1-.026.163l-.016.092a3 3 0 0 1-.062.26q-.072.24-.175.468a7 7 0 0 1-.318.61 10 10 0 0 1-.421.662q-.292.42-.609.821l-.096.122a31 31 0 0 1-1.065 1.259l-.116.13q-.233.261-.476.524l-.122.133-.248.266q-.122.133-.251.267l-.254.268-.258.27-.26.27-.525.541c-2.508 2.573-5.15 5.137-6.045 6.735q-.09.156-.162.32c-.128.292-.18.54-.144.741q.017.1.068.188.076.13.183.239.048.048.104.09c.184.13.406.198.632.191h.07l.073-.005.073-.008.06-.009q.012-.001.024-.005l.055-.01.015-.003.06-.013.022-.006.065-.017a3 3 0 0 0 .56-.212q.041-.018.08-.039l.084-.04q.296-.155.579-.335l.082-.056q.042-.025.082-.055l.082-.055.044-.03.119-.084q.163-.114.318-.234l.01-.008.166-.128c.227-.18.442-.36.638-.53l.13-.114.011-.011.069-.06c.16-.144.301-.277.42-.387l.048-.048.117-.11.07-.069.024-.024.007-.007.072-.072.046-.048.006-.004.021-.02.028-.025.008-.008.023-.02.126-.111.07-.064.112-.1.084-.075.045-.04.089-.076.13-.115.069-.06c.269-.234.596-.516.972-.835l.154-.13.255-.214.26-.217c.34-.282.706-.583 1.094-.894l.254-.204.663-.525q.136-.107.278-.213a62 62 0 0 1 2.326-1.724l.238-.166q.249-.173.498-.341l.15-.102q.445-.3.9-.588l.15-.094.149-.093q.225-.14.446-.273l.148-.088.296-.172.29-.166.059-.032.229-.127q.144-.078.287-.15l.141-.074.138-.069.143-.07q.591-.291 1.209-.522l.253-.09.222-.07.024-.008.115-.033.011-.003q.119-.034.235-.062h.005q.33-.078.667-.113.154-.016.31-.015h.052q.103 0 .202.01c.031 0 .061.007.091.01h.012l.089.016q.044.007.087.017h.01l.085.022q.237.067.444.201.101.066.189.149l.016.016.032.03.03.033c.249.26.454.56.609.885l.023.056a2.05 2.05 0 0 1 .026 1.579 3 3 0 0 1-.209.442 5 5 0 0 1-.68.898l-.055.059a9 9 0 0 1-.38.376l-.127.117-.066.058q-.386.342-.795.654-.543.415-1.107.802-.341.235-.687.46a62 62 0 0 1-1.723 1.09c-1.217.749-2.566 1.55-4.005 2.42l-.372.225q-.61.373-1.155.713l-.182.114-.345.222-.686.442-.183.121-.268.177-.087.056-.267.18-.142.097-.166.115-.154.107a34 34 0 0 0-.719.521l-.082.063q-.195.149-.386.3-.286.232-.522.444l-.077.07q-.066.06-.128.12-.042.042-.085.082l-.04.04q-.133.133-.258.273l-.04.047a4 4 0 0 0-.24.304l-.031.044a3 3 0 0 0-.15.245l-.033.063-.03.063-.02.046-.013.03-.01.029-.015.037a1.6 1.6 0 0 0-.08.324l-.005.038-.004.036v.195q-.001.024.004.05l.003.03.006.048.012.068v.003l.014.065.018.068q.019.066.042.13l.03.077.006.016.023.05.03.069q.05.106.11.207l.04.07.043.072.025.033.014.014.015.014.016.013a.3.3 0 0 0 .12.051c.357.08 1.09-.215 2.065-.73.055-.029.116-.06.174-.092l.297-.162.145-.08c.103-.055.208-.118.316-.18l.196-.11c1.289-.741 2.827-1.694 4.418-2.624q.224-.132.449-.26l.3-.193q.524-.3 1.052-.592.665-.366 1.341-.711l.294-.15q.294-.144.58-.281.556-.264 1.123-.5l.207-.085.025-.01c1.098-.435 2.093-.703 2.898-.703q.261-.002.52.043h.005q.08.014.157.033h.009q.199.05.381.142.257.133.452.346.09.1.159.212.13.2.203.428.029.088.055.178c.131.468.118.965-.037 1.425"/><path fill="#FFD21E" fill-rule="evenodd" d="M110.242 61.455v-.304c0-25.887-20.979-46.873-46.868-46.873S16.498 35.265 16.498 61.15v.101a4 4 0 0 0 0 .203q.005.15.003.302l.004.223.001.08q0 .055.003.11l.003.177.007.24.01.284.003.092.012.293v.014l.017.342v.009a30 30 0 0 0 .04.673l.002.019.018.277.002.025.02.267.003.017q.005.079.012.154.055.67.13 1.337l.002.028.038.327.042.343.031.234.014.109q.05.378.107.755l.003.017.036.237q.266 1.698.656 3.371l.003.014.02.083.056.239.035-.042c1.36-1.627 3.312-2.523 5.496-2.523 1.75 0 3.546.579 5.346 1.72 1.194.758 2.514 2.1 3.872 3.79 1.257-1.746 3.019-2.906 5.034-3.223q.578-.09 1.161-.091c4.6 0 7.37 3.991 8.417 7.582.517 1.213 3.009 6.737 6.767 10.474 5.712 5.707 7.142 11.596 4.315 17.902h.01q.288.033.58.059.173.018.347.033l.041.003.255.022.236.019q.335.026.673.047l.179.011.141.008.088.005.277.015.075.003.29.013.323.012.26.007.043.002q.082.003.165.004l.06.002q.546.013 1.093.012h.388l.276-.003q.101-.004.204-.003h.108l.093-.002q.055-.003.11-.003h.11l.218-.006.327-.011.359-.016q.156-.005.31-.014l.11-.007.164-.008.097-.006.073-.005.332-.022.332-.024.3-.024.212-.018.233-.021q.582-.052 1.163-.122l.264-.031c-2.783-6.279-1.342-12.143 4.346-17.827 3.75-3.747 6.242-9.272 6.762-10.485 1.047-3.59 3.816-7.582 8.416-7.582q.585.001 1.162.092c2.014.317 3.775 1.477 5.034 3.223 1.359-1.689 2.678-3.033 3.872-3.791 1.8-1.14 3.597-1.72 5.345-1.72 1.928 0 3.674.7 4.994 1.981l.07-.314.068-.313a42 42 0 0 0 .191-.952q.061-.317.117-.637l.02-.115q.016-.102.035-.205.031-.159.056-.32l.007-.04.044-.281.043-.284v-.002q.047-.315.089-.63l.007-.051.039-.296.031-.252.056-.498.022-.2.005-.054q.018-.162.033-.323v-.008l.024-.258q.066-.73.111-1.469l.015-.242v-.004l.016-.304.004-.068q.014-.307.025-.616v-.007l.003-.08q.005-.102.006-.204l.001-.027q.004-.097.005-.194l.002-.056.003-.194.002-.055.003-.248zM51.748 108.28c3.712-5.443 3.449-9.53-1.644-14.62-5.094-5.09-8.059-12.535-8.059-12.535s-1.107-4.324-3.63-3.927c-2.524.397-4.375 6.859.91 10.814 5.283 3.956-1.052 6.638-3.086 2.926-2.034-3.713-7.586-13.255-10.465-15.08s-4.903-.802-4.224 2.96c.337 1.867 3.472 5.054 6.4 8.032 2.972 3.02 5.73 5.826 5.14 6.82-1.17 1.97-5.294-2.317-5.294-2.317s-12.912-11.75-15.722-8.689c-2.592 2.823 1.404 5.222 7.562 8.92q.786.471 1.615.972c7.046 4.266 7.594 5.39 6.593 7.005-.369.596-2.727-.82-5.628-2.561-4.945-2.97-11.465-6.884-12.387-3.38-.796 3.032 4.001 4.89 8.352 6.576 3.624 1.404 6.94 2.688 6.451 4.431-.505 1.807-3.244.3-6.239-1.348-3.361-1.85-7.044-3.876-8.25-1.59-2.278 4.324 15.717 9.414 15.865 9.451 5.814 1.508 20.58 4.704 25.74-2.86m23.915 0c-3.713-5.443-3.45-9.53 1.644-14.62s8.058-12.535 8.058-12.535 1.107-4.324 3.63-3.927c2.524.397 4.375 6.859-.908 10.814s1.05 6.638 3.084 2.926c2.035-3.713 7.584-13.255 10.462-15.08s4.904-.802 4.225 2.96c-.336 1.867-3.471 5.054-6.4 8.033-2.971 3.02-5.73 5.825-5.141 6.818 1.17 1.971 5.297-2.319 5.297-2.319s12.912-11.75 15.724-8.687c2.591 2.821-1.406 5.221-7.564 8.92q-.808.485-1.615.972c-7.045 4.265-7.593 5.39-6.594 7.003.37.597 2.729-.82 5.629-2.56 4.946-2.97 11.466-6.885 12.387-3.38.797 3.032-4.001 4.89-8.351 6.576-3.625 1.404-6.94 2.688-6.453 4.431.505 1.807 3.244.299 6.238-1.348 3.361-1.85 7.045-3.878 8.25-1.589 2.279 4.326-15.719 9.41-15.864 9.447-5.814 1.513-20.58 4.709-25.738-2.855" clip-rule="evenodd"/><path fill="#32343D" fill-rule="evenodd" d="M78.597 48.393c.731.258 1.275 1.045 1.792 1.794.699 1.012 1.35 1.954 2.348 1.423a6.747 6.747 0 0 0-2.162-12.625 6.745 6.745 0 0 0-6.96 9.837c.463.87 1.49.46 2.573.025.85-.34 1.734-.693 2.409-.454m-31.776 0c-.731.258-1.275 1.046-1.792 1.794-.7 1.013-1.35 1.954-2.348 1.423a6.743 6.743 0 0 1 5.11-12.412 6.747 6.747 0 0 1 4.012 9.624c-.463.87-1.49.46-2.573.026-.85-.34-1.734-.694-2.41-.455m26.86 28.916c5.037-3.968 6.887-10.446 6.887-14.437 0-3.154-2.123-2.161-5.52-.479l-.192.095c-3.118 1.544-7.27 3.6-11.827 3.6s-8.71-2.056-11.827-3.6c-3.508-1.738-5.708-2.828-5.708.385 0 4.117 1.968 10.877 7.37 14.804a11.73 11.73 0 0 1 7.16-6.053c.539-.161 1.094.767 1.663 1.718.548.917 1.11 1.854 1.68 1.854.608 0 1.205-.924 1.788-1.825.609-.944 1.203-1.862 1.778-1.678a11.73 11.73 0 0 1 6.748 5.616" clip-rule="evenodd"/><path fill="#FF323D" d="M73.68 77.309c-2.623 2.067-6.11 3.453-10.65 3.453-4.266 0-7.603-1.224-10.166-3.086a11.73 11.73 0 0 1 7.16-6.053c1.058-.316 2.181 3.573 3.343 3.573 1.243 0 2.44-3.864 3.566-3.504 2.89.929 5.31 2.942 6.747 5.617"/><path fill="#FFAD03" fill-rule="evenodd" d="M34.777 54.005a4.38 4.38 0 0 1-4.113.405 4.37 4.37 0 0 1-2.374-2.373 4.38 4.38 0 0 1 3.622-6.038 4.383 4.383 0 0 1 2.865 8.006m62.726 0a4.38 4.38 0 0 1-4.114.405 4.37 4.37 0 0 1-2.373-2.373 4.4 4.4 0 0 1-.312-2.108 4.4 4.4 0 0 1 2.11-3.33 4.38 4.38 0 0 1 5.354.661 4.38 4.38 0 0 1-.665 6.745" clip-rule="evenodd"/></g><defs><clipPath id="clip0_2138_457"><path fill="#fff" d="M0 0h128v128H0z"/></clipPath></defs></svg>