<svg width="128" height="128" viewBox="0 0 128 128" fill="none" xmlns="http://www.w3.org/2000/svg">
<g clip-path="url(#clip0_2138_457)">
<path d="M127.258 91.7715C126.926 90.518 126.388 89.3283 125.666 88.2509C125.82 87.6837 125.938 87.1072 126.017 86.5246C126.53 82.8283 125.248 79.4444 122.834 76.8262C121.525 75.3962 120.123 74.4517 118.638 73.8722C119.613 69.7017 120.106 65.4333 120.108 61.1505C120.108 59.1941 119.998 57.2779 119.812 55.3902C119.716 54.4476 119.599 53.5073 119.461 52.5698C119.036 49.8031 118.406 47.072 117.574 44.3991C117.029 42.6429 116.399 40.9143 115.685 39.2197C114.616 36.7098 113.367 34.2802 111.949 31.9496C111.019 30.3989 110.005 28.8995 108.914 27.4579C108.379 26.7299 107.821 26.0191 107.241 25.3265C105.523 23.2384 103.656 21.2775 101.654 19.4592C100.989 18.8479 100.306 18.2575 99.6038 17.689C98.9129 17.1128 98.2067 16.5551 97.486 16.0165C96.0357 14.937 94.5369 13.9243 92.9943 12.9815C84.4705 7.80446 74.4746 4.83557 63.7909 4.83557C32.6844 4.83557 7.47356 30.0476 7.47356 61.1523C7.47233 65.4894 7.97457 69.8116 8.97038 74.0324C7.63438 74.6125 6.35404 75.5168 5.16649 76.825C2.75241 79.4419 1.47022 82.8135 1.98297 86.5097C2.06091 87.0967 2.17781 87.6781 2.33367 88.2496C1.61253 89.3277 1.07478 90.5178 0.742224 91.7715C1.01236e-06 94.5925 0.244316 97.1365 1.18756 99.3657C0.162053 102.279 0.41812 105.381 1.7535 108.079C2.72458 110.049 4.11439 111.573 5.82769 112.935C7.86447 114.554 10.414 115.93 13.4893 117.25C17.1583 118.814 21.637 120.285 23.6738 120.824C28.9349 122.186 33.9796 123.049 39.0922 123.091C46.3765 123.159 52.6496 121.446 57.1406 117.063C59.3471 117.333 61.568 117.468 63.7909 117.467C66.1394 117.462 68.4855 117.315 70.8161 117.025C75.2966 121.436 81.5938 123.164 88.9047 123.095C94.0167 123.054 99.0614 122.191 104.309 120.827C106.359 120.288 110.836 118.817 114.507 117.253C117.582 115.931 120.132 114.555 122.182 112.938C123.883 111.576 125.271 110.052 126.243 108.082C127.592 105.384 127.834 102.282 126.823 99.3688C127.757 97.1396 128 94.5901 127.258 91.7715ZM122.038 99.177C123.072 101.138 123.138 103.354 122.226 105.418C120.843 108.546 117.408 111.011 110.736 113.656C106.587 115.301 102.788 116.353 102.755 116.363C97.267 117.786 92.304 118.509 88.0078 118.509C80.8936 118.509 75.5997 116.546 72.2424 112.669C66.5652 113.636 60.7681 113.669 55.0803 112.766C51.7187 116.579 46.4551 118.509 39.4009 118.509C35.104 118.509 30.1417 117.786 24.6535 116.363C24.6201 116.353 20.8224 115.301 16.6722 113.656C10.0008 111.011 6.56434 108.548 5.18195 105.418C4.27026 103.354 4.33644 101.138 5.36998 99.177C5.46523 98.9945 5.56791 98.817 5.67739 98.6451C5.05795 97.7148 4.64246 96.6638 4.45825 95.5614C4.27404 94.4591 4.32527 93.3302 4.60858 92.249C5.01928 90.6885 5.86727 89.3908 7.01895 88.4587C6.46416 87.5472 6.10014 86.5325 5.94891 85.4762C5.61739 83.179 6.38002 80.8856 8.09518 79.0152C9.43118 77.5598 11.3195 76.7588 13.4101 76.7588H13.4658C11.8895 71.7061 11.0903 66.4433 11.0956 61.1505C11.0956 32.2836 34.4979 8.87945 63.3691 8.87945C92.2397 8.87945 115.642 32.2811 115.642 61.1505C115.646 66.4574 114.842 71.7341 113.255 76.7984C113.507 76.7736 113.755 76.7613 113.998 76.7606C116.089 76.7606 117.978 77.5616 119.312 79.017C121.027 80.8855 121.791 83.1809 121.459 85.478C121.307 86.5343 120.944 87.5489 120.389 88.4606C121.541 89.3927 122.389 90.6903 122.799 92.2508C123.083 93.332 123.134 94.4609 122.95 95.5633C122.766 96.6657 122.35 97.7166 121.731 98.6469C121.84 98.817 121.944 98.9945 122.038 99.177Z" fill="white"/>
<path d="M121.731 98.647C122.35 97.7167 122.766 96.6658 122.95 95.5634C123.134 94.461 123.083 93.332 122.799 92.2509C122.389 90.6903 121.54 89.3927 120.389 88.4606C120.944 87.5491 121.308 86.5344 121.459 85.4781C121.791 83.1809 121.028 80.8874 119.312 79.017C117.978 77.5617 116.089 76.7607 113.998 76.7607C113.755 76.7607 113.507 76.7737 113.255 76.7984C114.84 71.7342 115.643 66.4581 115.638 61.1517C115.638 32.2842 92.2354 8.88071 63.3673 8.88071C34.4985 8.88071 11.0938 32.2817 11.0938 61.1517C11.0886 66.4445 11.8877 71.7074 13.4639 76.7601H13.4083C11.3177 76.7601 9.42932 77.5604 8.09394 79.0158C6.37879 80.8843 5.61553 83.1803 5.94768 85.4768C6.09902 86.5333 6.46303 87.5481 7.01772 88.46C5.86603 89.3914 5.01743 90.6891 4.60673 92.2496C4.32361 93.3311 4.27259 94.4602 4.45701 95.5628C4.64143 96.6654 5.05713 97.7165 5.67677 98.647C5.56667 98.8189 5.46523 98.9964 5.36936 99.1789C4.33644 101.14 4.26964 103.356 5.18195 105.42C6.56496 108.548 10.0002 111.012 16.6722 113.658C20.8206 115.303 24.6201 116.355 24.6535 116.364C30.141 117.788 35.104 118.511 39.4003 118.511C46.4551 118.511 51.7187 116.581 55.0803 112.768C60.7682 113.671 66.5652 113.638 72.2424 112.671C75.5997 116.548 80.8936 118.511 88.0078 118.511C92.304 118.511 97.267 117.788 102.754 116.364C102.788 116.355 106.586 115.303 110.736 113.658C117.408 111.012 120.844 108.548 122.226 105.42C123.138 103.356 123.072 101.14 122.038 99.1789C121.944 98.9952 121.84 98.8171 121.731 98.647ZM52.6749 106.8C52.3855 107.306 52.0756 107.8 51.7459 108.28C50.8769 109.553 49.7339 110.525 48.4071 111.247C45.8712 112.63 42.6611 113.114 39.4003 113.114C34.2486 113.114 28.9677 111.908 26.0081 111.14C25.8621 111.103 7.86447 106.019 10.1431 101.692C10.5266 100.964 11.1575 100.673 11.9523 100.673C15.1605 100.673 21.0024 105.451 23.5124 105.451C24.074 105.451 24.4698 105.212 24.6313 104.629C25.7013 100.792 8.36856 99.1789 9.82827 93.6221C10.0856 92.6387 10.7845 92.2391 11.7667 92.2391C16.0085 92.2385 25.5288 99.6985 27.5198 99.6985C27.6725 99.6985 27.782 99.6533 27.8414 99.5593C27.85 99.5451 27.8587 99.5314 27.8668 99.5166C28.8013 97.9734 28.2651 96.8514 21.8628 92.93L21.248 92.5558C14.2024 88.2917 9.25737 85.7255 12.0692 82.6638C12.3933 82.3106 12.8522 82.1542 13.4095 82.1542C14.0701 82.1542 14.8692 82.375 15.7506 82.7461C19.4716 84.3153 24.6288 88.5948 26.7831 90.4609C27.122 90.7554 27.4587 91.0526 27.7931 91.3522C27.7931 91.3522 30.5208 94.1887 32.1698 94.1887C32.5496 94.1887 32.8718 94.039 33.0901 93.6691C34.2598 91.6973 22.2271 82.5791 21.5486 78.8166C21.0884 76.2677 21.8714 74.9763 23.3188 74.9763C24.0072 74.9763 24.8465 75.2694 25.7743 75.8576C28.6504 77.6829 34.2035 87.2254 36.2365 90.9377C36.9182 92.1816 38.0816 92.7073 39.13 92.7073C41.2101 92.7073 42.8361 90.6396 39.3205 88.0121C34.0365 84.0586 35.8908 77.5963 38.4125 77.1986C38.5201 77.1813 38.629 77.1726 38.7372 77.1726C41.0307 77.1726 42.042 81.1243 42.042 81.1243C42.042 81.1243 45.0071 88.5701 50.1006 93.6599C54.7222 98.2796 55.368 102.07 52.6749 106.8ZM69.1455 107.672L68.8814 107.703L68.4311 107.755C68.1942 107.779 67.9567 107.803 67.7185 107.825L67.4866 107.846L67.2744 107.864L66.9738 107.888L66.6417 107.912L66.3102 107.933L66.2366 107.938C66.15 107.943 66.0634 107.949 65.9756 107.953L65.8648 107.959C65.7622 107.965 65.6595 107.97 65.5556 107.974L65.1962 107.99L64.8703 108.001L64.6525 108.007H64.5418C64.4738 108.007 64.4064 108.011 64.3383 108.011H64.2307C64.1627 108.011 64.0952 108.011 64.0272 108.014L63.7501 108.018H63.3635C63.0599 108.018 62.7568 108.015 62.4549 108.009L62.21 108.003C62.1401 108.003 62.0702 108 62.0016 107.998L61.7418 107.99L61.4195 107.978L61.1288 107.965L61.054 107.962L60.7775 107.948C60.7002 107.943 60.6241 107.94 60.5474 107.934L60.3687 107.924C60.144 107.909 59.9195 107.894 59.6951 107.877L59.4601 107.857C59.3611 107.85 59.2621 107.841 59.1638 107.832C59.0481 107.822 58.9325 107.811 58.8168 107.8C58.6231 107.782 58.4295 107.762 58.236 107.741H58.2267C61.0534 101.435 59.624 95.5457 53.912 89.8386C50.1656 86.0972 47.6736 80.5726 47.1565 79.3597C46.11 75.7692 43.3402 71.7779 38.7403 71.7779C38.3513 71.7779 37.9628 71.8088 37.5787 71.8694C35.5636 72.1867 33.8021 73.3465 32.5452 75.0919C31.187 73.4027 29.867 72.0599 28.6733 71.3016C26.8734 70.1605 25.0772 69.5815 23.3274 69.5815C21.1434 69.5815 19.1914 70.4784 17.8307 72.1051L17.796 72.1465C17.77 72.0395 17.7453 71.9325 17.7199 71.8249L17.7169 71.8107C17.4579 70.7034 17.2404 69.5868 17.0649 68.4632C17.0649 68.4558 17.0649 68.4484 17.0612 68.441C17.0476 68.3562 17.0352 68.2709 17.0223 68.1861C16.9839 67.935 16.948 67.6833 16.9153 67.4316C16.9004 67.3171 16.8843 67.2027 16.8701 67.0883L16.828 66.745C16.8144 66.6306 16.8033 66.5267 16.7909 66.4178L16.7872 66.3906C16.7377 65.9453 16.6944 65.4999 16.6573 65.0534L16.6437 64.882L16.6221 64.5901C16.6159 64.5103 16.6097 64.4299 16.6054 64.3495C16.6054 64.3303 16.6023 64.3117 16.6017 64.2938C16.5859 64.0696 16.5725 63.8453 16.5615 63.6209C16.5553 63.504 16.5491 63.3877 16.5441 63.2702L16.5318 62.9634L16.5287 62.8706L16.5188 62.5879L16.5126 62.3473C16.5126 62.2515 16.5077 62.1556 16.5064 62.0597C16.5046 61.9638 16.5021 61.8587 16.5015 61.7573C16.5002 61.6558 16.5015 61.5556 16.4984 61.4548C16.4959 61.3534 16.4984 61.2525 16.4984 61.1517C16.4984 35.2649 37.4847 14.2779 63.3747 14.2779C89.2634 14.2779 110.25 35.2642 110.25 61.1517V61.7573C110.25 61.8581 110.247 61.9595 110.245 62.0597C110.245 62.1432 110.241 62.2255 110.239 62.3102C110.239 62.3844 110.236 62.4593 110.233 62.531C110.233 62.6257 110.227 62.7203 110.224 62.8149V62.8224L110.211 63.1508C110.207 63.2467 110.203 63.3431 110.198 63.439L110.195 63.507L110.179 63.8138C110.142 64.4712 110.092 65.1278 110.03 65.7832V65.7912C110.019 65.8989 110.009 66.0065 109.997 66.1141L109.969 66.3683L109.914 66.8656L109.882 67.1173L109.843 67.4136C109.829 67.5212 109.815 67.6295 109.799 67.7365C109.783 67.8571 109.765 67.9771 109.747 68.0971L109.704 68.381L109.653 68.7026C109.636 68.8096 109.618 68.916 109.598 69.0224C109.577 69.1294 109.561 69.2358 109.543 69.3422C109.506 69.5549 109.467 69.7677 109.426 69.9799C109.363 70.2972 109.3 70.6138 109.234 70.9305L109.166 71.2441C109.144 71.3486 109.12 71.4538 109.096 71.5583C107.777 70.2761 106.03 69.5778 104.103 69.5778C102.354 69.5778 100.556 70.1561 98.7571 71.2973C97.5633 72.0556 96.244 73.399 94.8851 75.0876C93.6264 73.3421 91.8649 72.1824 89.851 71.8651C89.4668 71.8043 89.0784 71.7737 88.6894 71.7736C84.0883 71.7736 81.3204 75.7649 80.2732 79.3554C79.7537 80.5683 77.261 86.0929 73.5116 89.8399C67.8033 95.529 66.3634 101.392 69.1455 107.672ZM117.539 95.0484L117.52 95.1035C117.473 95.2276 117.419 95.3488 117.358 95.4665C117.311 95.5531 117.261 95.6373 117.207 95.7189C117.104 95.8729 116.99 96.0201 116.867 96.1587C116.839 96.1908 116.812 96.223 116.779 96.2545C116.735 96.3022 116.69 96.3491 116.643 96.3949C115.811 97.22 114.542 97.9437 113.107 98.6074C112.944 98.681 112.779 98.7546 112.612 98.8288L112.447 98.9024C112.336 98.9513 112.225 98.9995 112.109 99.0471C111.998 99.0954 111.883 99.1436 111.768 99.1906L111.423 99.3329C110.616 99.665 109.789 99.9817 108.982 100.294L108.637 100.428L108.296 100.562C108.069 100.65 107.846 100.739 107.625 100.827L107.297 100.96L106.974 101.091L106.816 101.158C106.71 101.202 106.607 101.246 106.503 101.29C104.13 102.309 102.422 103.345 102.781 104.63C102.791 104.666 102.802 104.701 102.815 104.735C102.847 104.83 102.891 104.92 102.946 105.005C102.978 105.055 103.015 105.102 103.056 105.146C103.478 105.584 104.246 105.515 105.214 105.167C105.35 105.117 105.485 105.065 105.62 105.01L105.704 104.976C105.925 104.882 106.159 104.776 106.399 104.663C106.459 104.634 106.519 104.607 106.58 104.575C107.764 103.997 109.105 103.217 110.437 102.508C110.969 102.22 111.509 101.947 112.056 101.688C113.316 101.095 114.501 100.674 115.454 100.674C115.901 100.674 116.296 100.766 116.625 100.976L116.68 101.013C116.886 101.158 117.06 101.345 117.189 101.561C117.214 101.603 117.239 101.647 117.263 101.692C117.734 102.586 117.34 103.511 116.418 104.418C115.533 105.29 114.156 106.144 112.591 106.934C112.475 106.993 112.358 107.052 112.24 107.11C107.583 109.397 101.483 111.119 101.399 111.141C99.7733 111.562 97.4489 112.115 94.8301 112.529L94.4429 112.59L94.3792 112.599C94.086 112.643 93.7922 112.685 93.4978 112.723C93.199 112.763 92.8972 112.8 92.5935 112.834L92.5378 112.84C91.4369 112.967 90.3314 113.051 89.2238 113.091H89.2077C88.8069 113.105 88.4068 113.113 88.006 113.113H87.5439C86.9331 113.105 86.3227 113.077 85.7137 113.03C85.6995 113.03 85.684 113.03 85.6698 113.026C85.2255 112.991 84.7823 112.943 84.3406 112.883C84.1929 112.864 84.0455 112.841 83.8984 112.817C83.7487 112.793 83.5993 112.768 83.4499 112.742L83.2464 112.704L83.231 112.701C83.0165 112.66 82.8029 112.615 82.5902 112.565C82.4665 112.538 82.3434 112.51 82.2216 112.477L82.148 112.458C82.0873 112.444 82.0286 112.428 81.9686 112.411L81.9358 112.403L81.7453 112.347C81.676 112.328 81.6068 112.307 81.5375 112.287L81.5134 112.28L81.3334 112.225C81.2653 112.204 81.1973 112.181 81.1299 112.159L80.9641 112.104L80.8423 112.061C80.7247 112.02 80.6078 111.977 80.4922 111.933L80.3821 111.889L80.2912 111.854C80.1155 111.783 79.9413 111.709 79.7685 111.632L79.6541 111.576L79.6349 111.568C79.5941 111.549 79.5539 111.529 79.5131 111.513C79.4334 111.474 79.3542 111.435 79.2756 111.395L79.2514 111.383L79.1376 111.323C78.9357 111.217 78.7374 111.105 78.5432 110.985L78.4368 110.92C78.3835 110.887 78.3307 110.853 78.2785 110.818L78.14 110.727L77.9909 110.624L77.9018 110.56C77.8078 110.493 77.7157 110.424 77.6253 110.353L77.4812 110.242C77.4238 110.196 77.3669 110.149 77.3105 110.101C77.2629 110.062 77.2165 110.022 77.1701 109.981L77.1664 109.978C77.1163 109.934 77.0674 109.89 77.0186 109.845C76.9702 109.801 76.9223 109.756 76.8751 109.711L76.8695 109.705C76.8202 109.659 76.7717 109.611 76.7242 109.562C76.6765 109.514 76.6277 109.465 76.5813 109.416C76.5349 109.367 76.4873 109.317 76.4415 109.266C76.3957 109.215 76.3537 109.169 76.3104 109.118L76.2962 109.102C76.2539 109.053 76.2125 109.004 76.1718 108.955C76.0832 108.849 75.9974 108.74 75.9145 108.63C75.831 108.519 75.7494 108.405 75.6696 108.289L75.5935 108.175C75.4921 108.027 75.3931 107.877 75.2972 107.725C75.2255 107.616 75.1556 107.505 75.0876 107.393C75.0437 107.324 75.0016 107.253 74.9595 107.184L74.9422 107.155C74.902 107.087 74.8624 107.02 74.8241 106.953C74.8019 106.917 74.7808 106.88 74.761 106.842C74.7406 106.804 74.7171 106.765 74.6954 106.726L74.6602 106.665L74.6385 106.625C74.5971 106.551 74.5563 106.476 74.5167 106.401C74.4981 106.367 74.4802 106.334 74.461 106.302L74.406 106.195L74.3503 106.089C74.2111 105.811 74.0794 105.529 73.9557 105.243L73.9118 105.138C73.8833 105.068 73.8567 104.999 73.8283 104.931C73.8147 104.897 73.8011 104.864 73.7893 104.831C73.5848 104.301 73.4242 103.755 73.3093 103.199C73.3025 103.165 73.2957 103.131 73.2901 103.098C73.2581 102.933 73.2319 102.766 73.2116 102.599C73.2066 102.567 73.2029 102.534 73.1992 102.501L73.1887 102.401C73.1749 102.27 73.1648 102.138 73.1584 102.006C73.1584 101.973 73.1553 101.939 73.1541 101.907C73.1512 101.842 73.1495 101.776 73.1491 101.71C73.1145 99.0676 74.4517 96.5267 77.3111 93.6685C82.4046 88.58 85.3698 81.1336 85.3698 81.1336C85.3698 81.1336 85.4496 80.8213 85.6154 80.3716C85.6383 80.3091 85.6624 80.2448 85.6896 80.1774C85.7861 79.9256 85.895 79.6782 86.0156 79.437L86.0397 79.3906C86.1424 79.1853 86.2549 78.9849 86.3762 78.79C86.4046 78.7449 86.4318 78.7004 86.4634 78.6552C86.5543 78.521 86.6502 78.3899 86.751 78.2631C86.806 78.1944 86.866 78.1264 86.926 78.0602C86.9501 78.0342 86.9736 78.0082 86.999 77.9835C87.294 77.6786 87.6311 77.4299 88.0128 77.2975L88.061 77.2815C88.0932 77.271 88.1253 77.2611 88.1581 77.2518C88.1958 77.2419 88.2336 77.2332 88.2725 77.2252L88.2905 77.2215C88.3709 77.2054 88.4525 77.1949 88.5348 77.1893H88.5416C88.5843 77.1893 88.6276 77.185 88.6715 77.185C88.7265 77.185 88.7779 77.185 88.8317 77.1906C88.8873 77.1955 88.9424 77.2017 88.9981 77.2103C89.457 77.2833 89.8937 77.5567 90.2697 77.9785C90.4126 78.1394 90.5413 78.3125 90.6538 78.4956C90.7281 78.6144 90.798 78.7399 90.8641 78.8723C90.8907 78.9273 90.9161 78.9781 90.9408 79.0325C91.0053 79.1721 91.0631 79.3147 91.114 79.4599C91.2346 79.8001 91.3256 80.1502 91.3855 80.5064C91.4375 80.8188 91.4684 81.1342 91.4783 81.4503C91.4833 81.6191 91.4833 81.7905 91.4783 81.963C91.4448 82.7661 91.2804 83.5584 90.9915 84.3085C90.9656 84.3771 90.9365 84.4464 90.9087 84.5157C90.8518 84.6552 90.7895 84.7924 90.7219 84.927C90.6718 85.029 90.6192 85.1317 90.5623 85.2338C90.5252 85.3018 90.4862 85.3698 90.4472 85.4379C90.3477 85.6074 90.2401 85.7756 90.1244 85.9432L90.0545 86.0434C89.7813 86.4244 89.4767 86.7819 89.144 87.1122C88.8163 87.4404 88.4651 87.7443 88.0932 88.0214C87.7208 88.2973 87.3714 88.6028 87.0485 88.935C86.1189 89.9104 85.9024 90.7714 86.1114 91.4239C86.1448 91.5266 86.1887 91.6262 86.2419 91.7202C86.3044 91.8278 86.3786 91.9268 86.4628 92.0171L86.4955 92.0511L86.5289 92.0845C86.5623 92.1166 86.5976 92.1482 86.6353 92.1791L86.6724 92.2088C86.7621 92.2781 86.8574 92.3399 86.957 92.3944C86.986 92.4098 87.012 92.4253 87.0448 92.4401C87.1524 92.4927 87.2631 92.5379 87.3769 92.5743C87.4085 92.5849 87.44 92.5941 87.4722 92.604L87.5124 92.6146L87.568 92.6294L87.6157 92.6411L87.6676 92.6523L87.719 92.6628L87.7678 92.6708C87.8037 92.677 87.8408 92.6832 87.8779 92.6875L87.9132 92.6931L87.9775 92.6993L88.0171 92.7036L88.082 92.7079H88.1204L88.1884 92.7117H88.4024L88.4637 92.7079L88.5342 92.7036L88.6201 92.6956L88.7006 92.6863C88.7191 92.6863 88.7377 92.6813 88.7562 92.6776C89.0036 92.6418 89.2461 92.5762 89.478 92.4822L89.5764 92.4407C89.7431 92.3687 89.903 92.2815 90.0539 92.1803C90.1955 92.0876 90.3291 91.9837 90.4541 91.8692C90.4837 91.8426 90.5128 91.8142 90.5413 91.787C90.5555 91.7734 90.5691 91.7604 90.5827 91.7455C90.6099 91.7177 90.6378 91.6905 90.665 91.6602C90.8629 91.4425 91.0342 91.2025 91.1752 90.9446C92.3855 88.7435 93.6541 86.575 94.9798 84.4414L95.1616 84.1501L95.3453 83.8588C95.4368 83.711 95.5296 83.5656 95.6218 83.4209L95.7146 83.2762C96.0226 82.7937 96.3355 82.3144 96.6541 81.8387L96.8427 81.5567C97.2213 80.9957 97.5986 80.4501 97.9728 79.9318L98.1589 79.6751C98.5659 79.114 98.9896 78.5651 99.4294 78.0293L99.6038 77.8202C99.6329 77.7856 99.6595 77.7509 99.691 77.7175C99.7485 77.6495 99.8061 77.5833 99.8623 77.519C99.8908 77.4862 99.9174 77.454 99.9477 77.4219L100.113 77.2351L100.196 77.1442C100.28 77.0545 100.361 76.9685 100.442 76.8862C100.498 76.8306 100.549 76.7755 100.602 76.7236C100.916 76.4029 101.262 76.1156 101.634 75.8663L101.721 75.8106C101.804 75.755 101.89 75.703 101.978 75.656C103.44 74.826 104.65 74.7647 105.347 75.4618C105.769 75.8836 106.003 76.5832 105.99 77.5567C105.99 77.5994 105.99 77.6427 105.987 77.6872V77.7348C105.987 77.7794 105.983 77.8239 105.979 77.8691C105.979 77.9247 105.973 77.9798 105.968 78.0354C105.962 78.0905 105.959 78.1326 105.954 78.182C105.954 78.1956 105.951 78.2099 105.949 78.2247C105.945 78.2674 105.939 78.3113 105.933 78.3552C105.933 78.3682 105.933 78.3818 105.928 78.3954C105.921 78.454 105.913 78.5123 105.903 78.5705C105.896 78.6261 105.887 78.6781 105.877 78.7325L105.861 78.8247C105.845 78.9123 105.824 78.999 105.799 79.0845C105.751 79.2444 105.692 79.401 105.624 79.5533C105.528 79.762 105.422 79.9658 105.306 80.1638C105.242 80.2739 105.175 80.3821 105.107 80.4891C105.036 80.5998 104.962 80.7118 104.885 80.825C104.69 81.1045 104.487 81.3785 104.276 81.6464L104.18 81.7682C103.836 82.197 103.481 82.6168 103.115 83.0269L102.999 83.1568C102.843 83.3306 102.685 83.5056 102.523 83.6813L102.401 83.8136C102.32 83.9021 102.235 83.9905 102.153 84.0796C102.072 84.1681 101.988 84.2577 101.902 84.3474L101.648 84.6152L101.39 84.8849L101.13 85.1546C100.956 85.3352 100.781 85.5158 100.605 85.6964C98.0965 88.2688 95.4542 90.8326 94.5598 92.4309C94.5 92.5349 94.4459 92.642 94.3977 92.7519C94.2703 93.0426 94.2171 93.2912 94.2536 93.4922C94.2652 93.5583 94.2884 93.6217 94.3223 93.6796C94.3724 93.7669 94.4336 93.8473 94.5047 93.919C94.5375 93.9512 94.5722 93.9809 94.6086 94.0081C94.793 94.1392 95.015 94.2066 95.2414 94.2004H95.3119L95.3843 94.1949L95.4566 94.1868L95.5166 94.1782C95.5247 94.1769 95.5333 94.1757 95.5414 94.1732L95.5964 94.1627L95.6106 94.1596L95.6719 94.1466L95.6935 94.1411L95.7579 94.1237C95.7795 94.1176 95.8092 94.1095 95.8352 94.1009C95.944 94.0681 96.0504 94.0291 96.1549 93.9846C96.21 93.9623 96.2638 93.9382 96.317 93.9122C96.3448 93.8998 96.3727 93.8868 96.3986 93.8732L96.4815 93.8324C96.6794 93.7297 96.8724 93.6178 97.0605 93.4978L97.1427 93.4421C97.1706 93.4248 97.1984 93.4069 97.225 93.3871L97.3072 93.332L97.3512 93.3017L97.4699 93.2182C97.5806 93.1421 97.6839 93.0636 97.7884 92.9838L97.7977 92.9764L97.9641 92.8477C98.1911 92.6684 98.4064 92.4877 98.6018 92.3177L98.7317 92.2039L98.7434 92.1927L98.8115 92.1327C98.9711 91.9892 99.1133 91.8556 99.2315 91.7455L99.2803 91.6979C99.323 91.6577 99.362 91.62 99.3972 91.5878L99.4665 91.5192L99.4912 91.495L99.498 91.4882L99.5704 91.4159L99.6162 91.3682L99.6217 91.3639L99.6434 91.3441L99.6706 91.3194L99.6793 91.3113L99.7022 91.2903L99.8283 91.1796L99.8988 91.1165C99.9366 91.0837 99.9731 91.0503 100.01 91.0163L100.094 90.9415C100.109 90.9291 100.124 90.9155 100.139 90.9019L100.228 90.8246L100.358 90.7101L100.427 90.6501C100.696 90.4163 101.023 90.1337 101.399 89.8151L101.553 89.6846L101.808 89.4712L102.068 89.2541C102.408 88.9715 102.774 88.6715 103.162 88.3604L103.416 88.1563C103.632 87.9837 103.854 87.808 104.079 87.6311C104.17 87.56 104.262 87.4889 104.357 87.4184C105.119 86.8256 105.894 86.2507 106.683 85.6939L106.921 85.5282C107.087 85.4138 107.253 85.2987 107.419 85.1868L107.569 85.0853C107.865 84.8843 108.166 84.6882 108.469 84.4971L108.619 84.4025L108.768 84.3097C108.918 84.2169 109.067 84.126 109.214 84.0375L109.362 83.9491L109.658 83.7771L109.948 83.6108L110.007 83.5786L110.236 83.4524C110.332 83.4005 110.427 83.3504 110.523 83.3015L110.664 83.2285L110.802 83.1593C110.85 83.1364 110.898 83.1122 110.945 83.0894C111.339 82.8952 111.742 82.7208 112.154 82.5667L112.407 82.4776C112.483 82.4523 112.557 82.4282 112.629 82.4065L112.653 82.3991C112.692 82.3867 112.73 82.3756 112.768 82.3657L112.779 82.3626C112.858 82.3397 112.937 82.3199 113.014 82.3014H113.019C113.239 82.2488 113.461 82.211 113.686 82.1882C113.789 82.1777 113.892 82.1721 113.996 82.1727H114.048C114.117 82.1727 114.184 82.177 114.25 82.1839C114.281 82.1839 114.311 82.19 114.341 82.1937H114.353C114.383 82.1975 114.412 82.2018 114.442 82.2086C114.471 82.2142 114.501 82.2191 114.529 82.2259H114.539C114.568 82.2321 114.594 82.2395 114.624 82.2482C114.781 82.2921 114.931 82.3601 115.068 82.4492C115.135 82.4931 115.199 82.5426 115.257 82.5976L115.273 82.6137C115.284 82.6236 115.295 82.6339 115.305 82.6446L115.335 82.6774C115.584 82.9378 115.789 83.2366 115.944 83.5619L115.967 83.6176C116.076 83.8659 116.134 84.1334 116.139 84.4045C116.143 84.6756 116.094 84.9448 115.993 85.1967C115.936 85.3497 115.866 85.4977 115.784 85.6389C115.591 85.9627 115.363 86.264 115.104 86.537L115.049 86.5957C114.967 86.6823 114.881 86.7689 114.792 86.8555C114.752 86.8945 114.711 86.9328 114.669 86.9718L114.542 87.0887L114.476 87.1475C114.219 87.375 113.954 87.5931 113.681 87.8012C113.319 88.0783 112.95 88.3455 112.574 88.6035C112.346 88.7592 112.118 88.9124 111.887 89.063C111.319 89.436 110.744 89.7995 110.164 90.1535C108.947 90.9019 107.598 91.7022 106.159 92.5725L105.787 92.7983C105.38 93.0469 104.995 93.2844 104.632 93.5108L104.45 93.6252L104.105 93.8466C103.876 93.9932 103.648 94.1411 103.419 94.2889L103.236 94.4101C103.146 94.4683 103.057 94.5276 102.968 94.587L102.881 94.6427L102.614 94.8227L102.472 94.9198L102.306 95.0348L102.152 95.1418C101.894 95.3243 101.654 95.4981 101.433 95.6632L101.351 95.7263C101.221 95.8247 101.092 95.9249 100.965 96.0269C100.774 96.1809 100.6 96.3281 100.443 96.4698L100.366 96.5397C100.323 96.5799 100.279 96.6201 100.238 96.6597C100.209 96.6875 100.183 96.7153 100.153 96.7419L100.113 96.7815C100.025 96.8706 99.9384 96.9615 99.8549 97.0549L99.8141 97.1019C99.7232 97.207 99.644 97.3079 99.5747 97.4062L99.5438 97.4501C99.4894 97.5293 99.4393 97.6109 99.3941 97.6951C99.3824 97.7161 99.3719 97.7371 99.3613 97.7582L99.331 97.8212L99.3106 97.867L99.2976 97.8979L99.2871 97.9258L99.2729 97.9635C99.2347 98.0682 99.2078 98.1766 99.1925 98.287L99.1875 98.3253L99.1838 98.3612V98.556C99.1838 98.5721 99.1838 98.5882 99.1882 98.6055L99.1913 98.6352C99.1913 98.6513 99.195 98.6668 99.1974 98.6841C99.1999 98.7002 99.2042 98.7292 99.2092 98.7521V98.7552C99.2135 98.7769 99.2179 98.7979 99.2234 98.8195C99.229 98.8412 99.2345 98.8659 99.2413 98.8882C99.2531 98.9321 99.268 98.9754 99.2834 99.0187C99.2933 99.0447 99.3026 99.07 99.3131 99.0954C99.3131 99.1003 99.3168 99.1059 99.3193 99.1109L99.3416 99.161L99.3725 99.2296C99.4059 99.3007 99.4424 99.37 99.482 99.4374L99.5228 99.5079L99.5648 99.5785C99.5724 99.5902 99.5809 99.6014 99.5902 99.6119L99.6038 99.6261L99.6193 99.6403L99.6354 99.6527C99.6709 99.6783 99.7117 99.6958 99.7547 99.704C100.112 99.7844 100.845 99.4894 101.82 98.9748C101.875 98.9451 101.936 98.9142 101.994 98.882L102.291 98.72L102.436 98.6395C102.539 98.5845 102.644 98.522 102.752 98.4608L102.948 98.3501C104.237 97.6085 105.775 96.656 107.366 95.7257C107.515 95.6385 107.665 95.5513 107.815 95.4653L108.115 95.2729C108.464 95.0732 108.815 94.8759 109.167 94.681C109.61 94.4371 110.057 94.2 110.508 93.9697L110.802 93.8207C110.998 93.7242 111.191 93.6302 111.382 93.5386C111.752 93.3628 112.127 93.1959 112.505 93.0382L112.712 92.9541L112.737 92.9442C113.835 92.5094 114.83 92.241 115.635 92.241C115.809 92.2391 115.983 92.254 116.155 92.2836H116.16C116.215 92.2935 116.265 92.3047 116.317 92.317H116.326C116.458 92.3504 116.586 92.3981 116.707 92.4593C116.877 92.5471 117.03 92.664 117.159 92.8051C117.219 92.8706 117.271 92.9417 117.318 93.0172C117.404 93.1502 117.472 93.2943 117.521 93.4452C117.541 93.504 117.558 93.5615 117.576 93.6227C117.707 94.091 117.694 94.5876 117.539 95.0484Z" fill="#FF9D00"/>
<path fill-rule="evenodd" clip-rule="evenodd" d="M110.242 61.4548V61.1511C110.242 35.2636 89.2634 14.2779 63.3741 14.2779C37.4853 14.2779 16.4984 35.2649 16.4984 61.1511V61.2525C16.4968 61.32 16.4968 61.3874 16.4984 61.4548C16.5015 61.5556 16.5027 61.6564 16.5015 61.7573L16.5046 61.9799L16.5064 62.0597C16.5064 62.0968 16.5076 62.1333 16.5089 62.1704C16.5107 62.2292 16.512 62.2886 16.512 62.3473L16.5188 62.5879L16.5287 62.8706L16.5318 62.9634L16.5441 63.2559V63.2702C16.5491 63.3846 16.5553 63.4984 16.5608 63.6122L16.5615 63.6209C16.5676 63.7371 16.5738 63.854 16.5813 63.9709C16.5874 64.0786 16.5936 64.1862 16.6017 64.2938L16.6029 64.313C16.6085 64.4051 16.6147 64.4979 16.6215 64.5901L16.6233 64.6148L16.6437 64.882L16.6456 64.8993C16.6493 64.9513 16.653 65.0032 16.6579 65.0533C16.6951 65.4993 16.7384 65.9452 16.7878 66.39L16.7903 66.4178L16.828 66.745L16.8701 67.0883L16.901 67.3215L16.9153 67.4309C16.948 67.6833 16.9839 67.935 17.0223 68.1861L17.0247 68.2028L17.0612 68.4404C17.2381 69.5716 17.4571 70.6961 17.7169 71.8113L17.7199 71.8249L17.7397 71.9084L17.796 72.1465L17.8307 72.1051C19.1914 70.4784 21.1434 69.5815 23.3274 69.5815C25.0778 69.5815 26.8734 70.1605 28.6733 71.3016C29.867 72.0599 31.187 73.4027 32.5452 75.0919C33.8021 73.3464 35.5636 72.1861 37.5787 71.8694C37.9628 71.8088 38.3519 71.7785 38.7403 71.7779C43.3396 71.7779 46.11 75.7692 47.1565 79.3597C47.6736 80.5726 50.1656 86.0972 53.9237 89.8343C59.6363 95.5414 61.0657 101.43 58.2385 107.736H58.2484C58.4408 107.758 58.6343 107.778 58.8292 107.795C58.9448 107.807 59.0599 107.818 59.1762 107.828L59.217 107.831L59.4724 107.853L59.7075 107.872C59.9314 107.889 60.1559 107.905 60.381 107.919L60.5598 107.93L60.7014 107.938L60.7893 107.943L61.0657 107.958L61.1412 107.961L61.4313 107.974L61.7542 107.986L62.0133 107.993L62.0566 107.995C62.1117 107.997 62.1667 107.999 62.2218 107.999L62.2811 108.001C62.6461 108.009 63.0104 108.014 63.3753 108.013H63.7625L64.039 108.01C64.107 108.007 64.1744 108.007 64.2431 108.007H64.3507L64.4441 108.005C64.4806 108.003 64.5171 108.002 64.5542 108.002H64.6649L64.882 107.996L65.2086 107.985L65.5679 107.969C65.6719 107.966 65.7745 107.96 65.8772 107.955L65.9879 107.948L66.1524 107.94L66.2489 107.934L66.3219 107.929L66.6541 107.907L66.9856 107.883L67.2868 107.859L67.4983 107.841L67.7309 107.82C68.1191 107.785 68.5067 107.745 68.8937 107.698L69.1578 107.667C66.3751 101.388 67.8156 95.5241 73.5042 89.8399C77.2542 86.0929 79.7462 80.5683 80.2658 79.3547C81.313 75.7649 84.0815 71.7735 88.682 71.7735C89.071 71.7735 89.4601 71.8045 89.8442 71.8651C91.8575 72.1818 93.619 73.3421 94.8777 75.0876C96.2366 73.399 97.5559 72.055 98.7502 71.2967C100.55 70.1561 102.347 69.5772 104.095 69.5772C106.023 69.5772 107.769 70.2761 109.089 71.5583C109.113 71.4538 109.136 71.3492 109.159 71.2441L109.227 70.9311C109.251 70.8167 109.275 70.7023 109.298 70.5879C109.339 70.3856 109.379 70.1833 109.418 69.9792C109.459 69.7677 109.498 69.5549 109.535 69.3422L109.555 69.2271C109.566 69.1591 109.577 69.091 109.59 69.0224C109.611 68.916 109.629 68.8096 109.646 68.702L109.653 68.6612L109.697 68.381L109.74 68.0971V68.0946C109.772 67.8849 109.801 67.6752 109.829 67.4656L109.836 67.4136L109.875 67.118L109.906 66.8656L109.962 66.3683L109.984 66.1685L109.989 66.1141C110.001 66.0065 110.012 65.8989 110.022 65.7912V65.7826C110.03 65.6972 110.039 65.6113 110.046 65.5253C110.09 65.0379 110.127 64.548 110.157 64.0563C110.163 63.9759 110.167 63.8949 110.172 63.8138V63.8101L110.188 63.5064L110.192 63.4384C110.201 63.233 110.21 63.0277 110.217 62.8223V62.8149L110.22 62.7345C110.223 62.6671 110.226 62.5991 110.226 62.531L110.227 62.5038C110.229 62.4401 110.232 62.3745 110.232 62.3096L110.234 62.2539C110.236 62.189 110.237 62.1247 110.237 62.0597L110.239 62.0047C110.24 61.9224 110.242 61.8395 110.242 61.7573V61.4548ZM51.7478 108.28C55.4601 102.837 55.1966 98.7509 50.1037 93.6605C45.0096 88.5694 42.0451 81.1249 42.0451 81.1249C42.0451 81.1249 40.9385 76.8009 38.415 77.198C35.8914 77.5951 34.0402 84.0567 39.3242 88.0121C44.6076 91.9676 38.2727 94.6495 36.239 90.9377C34.2053 87.2254 28.6529 77.6835 25.7743 75.8582C22.8957 74.033 20.8713 75.056 21.5498 78.8179C21.8869 80.6852 25.0216 83.8724 27.9502 86.8499C30.9216 89.8708 33.6808 92.6764 33.0908 93.6691C31.9199 95.6403 27.7962 91.3528 27.7962 91.3528C27.7962 91.3528 14.884 79.6021 12.0735 82.6644C9.48189 85.4867 13.4781 87.886 19.6361 91.5841C20.1594 91.8983 20.6987 92.2224 21.2511 92.5564C28.2966 96.8217 28.8446 97.9468 27.8445 99.5605C27.4752 100.157 25.1168 98.741 22.216 96.9998C17.2709 94.0303 10.7505 90.1157 9.8295 93.6196C9.03285 96.6522 13.8301 98.5103 18.1807 100.196C21.8053 101.6 25.1205 102.884 24.6325 104.627C24.1272 106.434 21.3878 104.927 18.3935 103.279C15.0319 101.429 11.3486 99.4028 10.1431 101.689C7.86508 106.013 25.8597 111.103 26.0081 111.14C31.8222 112.648 46.5875 115.844 51.7478 108.28ZM75.6628 108.28C71.9504 102.837 72.2139 98.7509 77.3074 93.6605C82.4009 88.5694 85.3655 81.1249 85.3655 81.1249C85.3655 81.1249 86.472 76.8009 88.9956 77.198C91.5191 77.5951 93.3704 84.0567 88.087 88.0121C82.803 91.9676 89.1378 94.6495 91.1715 90.9377C93.2058 87.2254 98.7546 77.6835 101.633 75.8582C104.512 74.033 106.537 75.056 105.858 78.8179C105.522 80.6852 102.387 83.8724 99.4578 86.8506C96.4865 89.8714 93.7273 92.6764 94.3167 93.6691C95.4876 95.6403 99.6143 91.3503 99.6143 91.3503C99.6143 91.3503 112.526 79.6003 115.338 82.6626C117.929 85.4843 113.932 87.8841 107.774 91.5822C107.235 91.9057 106.697 92.2298 106.159 92.5545C99.1139 96.8199 98.5659 97.9449 99.5654 99.558C99.9353 100.155 102.294 98.7385 105.194 96.9974C110.14 94.0285 116.66 90.1133 117.581 93.6178C118.378 96.6504 113.58 98.5084 109.23 100.194C105.605 101.598 102.29 102.882 102.777 104.625C103.282 106.432 106.021 104.924 109.015 103.277C112.376 101.427 116.06 99.3991 117.265 101.688C119.544 106.014 101.546 111.098 101.401 111.135C95.5865 112.648 80.8212 115.844 75.6628 108.28Z" fill="#FFD21E"/>
<path fill-rule="evenodd" clip-rule="evenodd" d="M78.597 48.3929C79.3281 48.6514 79.8718 49.4382 80.3889 50.1872C81.0878 51.1991 81.7385 52.1411 82.7368 51.6104C83.5432 51.1813 84.2541 50.5929 84.8264 49.8808C85.3987 49.1688 85.8204 48.3479 86.066 47.4681C86.3116 46.5882 86.376 45.6676 86.2553 44.7621C86.1346 43.8566 85.8312 42.9851 85.3636 42.2003C84.8526 41.3439 84.1581 40.6114 83.3301 40.0555C82.5021 39.4996 81.5612 39.134 80.5751 38.9852C79.0881 38.7613 77.569 39.0408 76.259 39.7792C74.9491 40.5176 73.9235 41.6726 73.3452 43.0606C72.9616 43.9812 72.7869 44.9752 72.8335 45.9714C72.8802 46.9675 73.147 47.9409 73.6149 48.8215C74.0775 49.6918 75.1043 49.2811 76.1879 48.8475C77.0371 48.5079 77.9222 48.1542 78.597 48.3929ZM46.8206 48.3929C46.0895 48.6514 45.5459 49.4388 45.0288 50.1872C44.3299 51.1997 43.6786 52.1411 42.6809 51.6104C41.2015 50.8251 40.0672 49.5172 39.4991 47.9416C38.9309 46.3659 38.9694 44.6352 39.6071 43.0864C40.2448 41.5376 41.4361 40.2815 42.949 39.5628C44.462 38.844 46.1882 38.714 47.7917 39.198C49.0688 39.5827 50.2032 40.3373 51.0516 41.3664C51.9001 42.3955 52.4245 43.6529 52.5586 44.9799C52.6922 46.307 52.4294 47.6438 51.8034 48.8215C51.3402 49.6918 50.3134 49.2811 49.2298 48.8481C48.3799 48.5079 47.4961 48.1542 46.8206 48.3929ZM73.6811 77.3093C78.7177 73.3415 80.5676 66.8631 80.5676 62.8724C80.5676 59.718 78.4455 60.7107 75.048 62.3931L74.8562 62.4877C71.7377 64.0321 67.5862 66.0887 63.0289 66.0887C58.4711 66.0887 54.3196 64.0321 51.2016 62.4871C47.694 60.7497 45.4939 59.6598 45.4939 62.873C45.4939 66.9899 47.462 73.7497 52.8642 77.6767C53.5773 76.2298 54.5811 74.9455 55.813 73.9041C57.0448 72.8626 58.4782 72.0864 60.0235 71.6239C60.5629 71.463 61.1183 72.3914 61.6867 73.3421C62.2354 74.2587 62.7964 75.1964 63.3666 75.1964C63.9746 75.1964 64.5715 74.2723 65.1548 73.3705C65.764 72.4273 66.3584 71.5088 66.933 71.6925C69.8246 72.6208 72.2435 74.6342 73.6811 77.3093Z" fill="#32343D"/>
<path d="M73.6798 77.3087C71.0567 79.3758 67.5701 80.7619 63.0295 80.7619C58.7636 80.7619 55.4273 79.5384 52.8642 77.6761C53.5773 76.2291 54.5811 74.9448 55.8129 73.9034C57.0448 72.8619 58.4782 72.0857 60.0235 71.6233C61.0824 71.3072 62.2051 75.1958 63.3666 75.1958C64.6099 75.1958 65.8079 71.3325 66.933 71.6919C69.8239 72.6208 72.2422 74.6341 73.6798 77.3087Z" fill="#FF323D"/>
<path fill-rule="evenodd" clip-rule="evenodd" d="M34.7768 54.0047C34.1776 54.4057 33.4886 54.6526 32.7711 54.7232C32.0535 54.7939 31.3296 54.6863 30.6637 54.4098C30.1312 54.1903 29.6473 53.8676 29.24 53.4603C28.8327 53.053 28.51 52.5691 28.2904 52.0366C28.0144 51.3705 27.9071 50.6466 27.978 49.9291C28.0489 49.2116 28.2958 48.5226 28.6968 47.9234C29.0571 47.3849 29.5324 46.933 30.0883 46.6001C30.6442 46.2673 31.267 46.0619 31.9119 45.9986C32.5568 45.9353 33.2076 46.0158 33.8176 46.2342C34.4277 46.4527 34.9817 46.8036 35.4398 47.2618C35.8979 47.7201 36.2488 48.2741 36.4671 48.8842C36.6854 49.4943 36.7657 50.1452 36.7023 50.79C36.6389 51.4349 36.4334 52.0576 36.1004 52.6135C35.7675 53.1694 35.3154 53.6445 34.7768 54.0047ZM97.5027 54.0047C96.9034 54.4057 96.2143 54.6525 95.4966 54.7232C94.779 54.7939 94.055 54.6863 93.3889 54.4098C92.8564 54.1902 92.3726 53.8675 91.9653 53.4602C91.558 53.0529 91.2353 52.5691 91.0157 52.0366C90.7404 51.3704 90.6334 50.6467 90.7039 49.9293C90.7718 49.2481 90.9979 48.5923 91.3642 48.014C91.7305 47.4357 92.2269 46.951 92.8137 46.5986C93.652 46.0958 94.6344 45.8878 95.6046 46.0077C96.5748 46.1276 97.477 46.5686 98.1676 47.2604C98.7813 47.8731 99.1991 48.6543 99.3683 49.5048C99.5374 50.3553 99.4502 51.2369 99.1176 52.0378C98.7856 52.8387 98.2236 53.5232 97.5027 54.0047Z" fill="#FFAD03"/>
</g>
<defs>
<clipPath id="clip0_2138_457">
<rect width="128" height="128" fill="white"/>
</clipPath>
</defs>
</svg>
