<svg width="128" height="128" viewBox="0 0 128 128" fill="none" xmlns="http://www.w3.org/2000/svg">
<g clip-path="url(#clip0_2138_513)">
<g clip-path="url(#clip1_2138_513)">
<path d="M92.3636 6H115.455V29.1728H92.3636V6Z" fill="black"/>
<path d="M103.909 6H127V29.1728H103.909V6Z" fill="#F7D046"/>
<path d="M0 6H23.0909V29.1728H0V6ZM0 29.1728H23.0909V52.3457H0V29.1728ZM0 52.3457H23.0909V75.5185H0V52.3457ZM0 75.5185H23.0909V98.6914H0V75.5185ZM0 98.6914H23.0909V121.864H0V98.6914Z" fill="black"/>
<path d="M11.5455 6H34.6364V29.1728H11.5455V6Z" fill="#F7D046"/>
<path d="M103.909 29.1729H127V52.3457H103.909V29.1729ZM11.5455 29.1729H34.6364V52.3457H11.5455V29.1729Z" fill="#F2A73B"/>
<path d="M69.2727 29.1729H92.3636V52.3457H69.2727V29.1729Z" fill="black"/>
<path d="M80.8182 29.1729H103.909V52.3457H80.8182V29.1729ZM34.6364 29.1729H57.7273V52.3457H34.6364V29.1729Z" fill="#F2A73B"/>
<path d="M57.7273 52.3457H80.8182V75.5185H57.7273V52.3457ZM80.8182 52.3457H103.909V75.5185H80.8182V52.3457ZM34.6364 52.3457H57.7273V75.5185H34.6364V52.3457Z" fill="#EE792F"/>
<path d="M46.1818 75.5185H69.2727V98.6914H46.1818V75.5185Z" fill="black"/>
<path d="M57.7273 75.5185H80.8182V98.6914H57.7273V75.5185Z" fill="#EB5829"/>
<path d="M103.909 52.3457H127V75.5185H103.909V52.3457ZM11.5455 52.3457H34.6364V75.5185H11.5455V52.3457Z" fill="#EE792F"/>
<path d="M92.3636 75.5185H115.455V98.6914H92.3636V75.5185Z" fill="black"/>
<path d="M103.909 75.5185H127V98.6914H103.909V75.5185Z" fill="#EB5829"/>
<path d="M92.3636 98.6914H115.455V121.864H92.3636V98.6914Z" fill="black"/>
<path d="M11.5455 75.5185H34.6364V98.6914H11.5455V75.5185Z" fill="#EB5829"/>
<path d="M103.909 98.6914H127V121.864H103.909V98.6914ZM11.5455 98.6914H34.6364V121.864H11.5455V98.6914Z" fill="#EA3326"/>
</g>
</g>
<defs>
<clipPath id="clip0_2138_513">
<rect width="128" height="128" fill="white"/>
</clipPath>
<clipPath id="clip1_2138_513">
<rect width="127" height="116" fill="white" transform="translate(0 6)"/>
</clipPath>
</defs>
</svg>
