<svg xmlns="http://www.w3.org/2000/svg" width="128" height="128" fill="none" viewBox="0 0 128 128"><g clip-path="url(#clip0_2138_513)"><g clip-path="url(#clip1_2138_513)"><path fill="#000" d="M92.364 6h23.091v23.173H92.364z"/><path fill="#F7D046" d="M103.909 6H127v23.173h-23.091z"/><path fill="#000" d="M0 6h23.09v23.173H0zm0 23.173h23.09v23.173H0zm0 23.173h23.09v23.173H0zm0 23.173h23.09V98.69H0zM0 98.69h23.09v23.173H0z"/><path fill="#F7D046" d="M11.546 6h23.09v23.173h-23.09z"/><path fill="#F2A73B" d="M103.909 29.173H127v23.173h-23.091zm-92.363 0h23.09v23.173h-23.09z"/><path fill="#000" d="M69.273 29.173h23.09v23.173h-23.09z"/><path fill="#F2A73B" d="M80.818 29.173h23.091v23.173h-23.09zm-46.182 0h23.091v23.173h-23.09z"/><path fill="#EE792F" d="M57.727 52.346h23.091v23.173h-23.09zm23.091 0h23.091v23.173h-23.09zm-46.182 0h23.091v23.173h-23.09z"/><path fill="#000" d="M46.182 75.519h23.09V98.69h-23.09z"/><path fill="#EB5829" d="M57.727 75.519h23.091V98.69h-23.09z"/><path fill="#EE792F" d="M103.909 52.346H127v23.173h-23.091zm-92.363 0h23.09v23.173h-23.09z"/><path fill="#000" d="M92.364 75.519h23.091V98.69H92.364z"/><path fill="#EB5829" d="M103.909 75.519H127V98.69h-23.091z"/><path fill="#000" d="M92.364 98.691h23.091v23.173H92.364z"/><path fill="#EB5829" d="M11.546 75.519h23.09V98.69h-23.09z"/><path fill="#EA3326" d="M103.909 98.691H127v23.173h-23.091zm-92.363 0h23.09v23.173h-23.09z"/></g></g><defs><clipPath id="clip0_2138_513"><path fill="#fff" d="M0 0h128v128H0z"/></clipPath><clipPath id="clip1_2138_513"><path fill="#fff" d="M0 6h127v116H0z"/></clipPath></defs></svg>