<svg xmlns="http://www.w3.org/2000/svg" width="128" height="128" fill="none" viewBox="0 0 128 128"><g clip-path="url(#clip0_2138_504)"><g clip-path="url(#clip1_2138_504)"><path fill="#000" d="M118.824 52.388a31.9 31.9 0 0 0-2.74-26.192 32.25 32.25 0 0 0-34.736-15.472A31.9 31.9 0 0 0 57.296 0C43.28-.032 30.844 8.992 26.532 22.328A31.9 31.9 0 0 0 5.208 37.796C-1.828 49.924-.224 65.212 9.176 75.612a31.9 31.9 0 0 0 2.74 26.192 32.25 32.25 0 0 0 34.736 15.472 31.88 31.88 0 0 0 24.052 10.72c14.024.036 26.464-8.996 30.776-22.344a31.9 31.9 0 0 0 21.324-15.468 32.26 32.26 0 0 0-3.976-37.804zm-48.112 67.244a23.9 23.9 0 0 1-15.356-5.552c.196-.104.536-.292.756-.428L81.6 98.932a4.14 4.14 0 0 0 2.096-3.628V59.372l10.772 6.22a.38.38 0 0 1 .208.296v29.756c-.016 13.232-10.732 23.96-23.964 23.988M19.176 97.62a23.88 23.88 0 0 1-2.86-16.072c.188.112.52.316.756.452L42.56 96.72a4.15 4.15 0 0 0 4.188 0l31.116-17.968v12.44a.4.4 0 0 1-.152.332L51.948 106.4c-11.476 6.608-26.132 2.68-32.768-8.78zm-6.708-55.636a23.9 23.9 0 0 1 12.484-10.516c0 .22-.012.608-.012.88v29.444a4.15 4.15 0 0 0 2.092 3.624L58.148 83.38 47.376 89.6a.38.38 0 0 1-.364.032L21.244 74.744c-11.452-6.632-15.38-21.284-8.78-32.756zm88.504 20.596L69.856 44.612l10.772-6.216a.38.38 0 0 1 .364-.032L106.76 53.24c11.472 6.628 15.404 21.304 8.776 32.776a23.98 23.98 0 0 1-12.48 10.512V66.204a4.14 4.14 0 0 0-2.08-3.624zm10.72-16.136c-.188-.116-.52-.316-.756-.452l-25.488-14.72a4.15 4.15 0 0 0-4.188 0L50.144 49.24V36.8a.4.4 0 0 1 .152-.332L76.06 21.604c11.476-6.62 26.148-2.68 32.764 8.8a23.98 23.98 0 0 1 2.86 16.04zM44.288 68.616l-10.776-6.22a.38.38 0 0 1-.208-.296V32.344C33.312 19.096 44.06 8.36 57.308 8.368a23.98 23.98 0 0 1 15.336 5.552c-.196.104-.532.292-.756.428L46.4 29.068a4.14 4.14 0 0 0-2.096 3.624l-.016 35.916zM50.14 56 64 47.996l13.86 8V72L64 80l-13.86-8z"/></g></g><defs><clipPath id="clip0_2138_504"><path fill="#fff" d="M0 0h128v128H0z"/></clipPath><clipPath id="clip1_2138_504"><path fill="#fff" d="M0 0h128v128H0z"/></clipPath></defs></svg>