<svg xmlns="http://www.w3.org/2000/svg" width="128" height="128" fill="none" viewBox="0 0 128 128"><g clip-path="url(#clip0_2138_534)"><g clip-path="url(#clip1_2138_534)"><path fill="url(#paint0_linear_2138_534)" d="M35.926 116.726c24.546 0 40.51-13.041 40.51-32.659 0-15.214-9.71-24.881-27.071-28.885l-11.147-3.354c-9.778-2.202-15.486-4.846-14.14-11.601 1.118-5.62 4.465-8.792 12.247-8.792 24.742 0 33.909 8.792 33.909 8.792V19.08S61.309 11 36.325 11C12.778 11 0 23.155 0 41.972c0 15.214 8.855 24.062 26.815 28.265q1.886.474 1.927.486 4.098 1.272 11.06 3.362c9.18 2.202 11.54 4.54 11.54 11.546 0 6.406-6.635 10.047-15.416 10.047C10.632 95.678 0 82.842 0 82.842v23.428s6.649 10.456 35.926 10.456"/><path fill="#E80000" d="M111.84 115.142c8.689 0 15.16-6.305 15.16-14.836 0-8.717-6.286-14.837-15.16-14.837-8.689 0-14.974 6.12-14.974 14.837s6.285 14.836 14.974 14.836"/></g></g><defs><clipPath id="clip0_2138_534"><path fill="#fff" d="M0 0h128v128H0z"/></clipPath><clipPath id="clip1_2138_534"><path fill="#fff" d="M0 11h127v106H0z"/></clipPath><linearGradient id="paint0_linear_2138_534" x1="3821.82" x2="3821.82" y1="11" y2="10583.6" gradientUnits="userSpaceOnUse"><stop stop-color="#9D39FF"/><stop offset="1" stop-color="#A380FF"/></linearGradient></defs></svg>