<svg width="389" height="238" viewBox="0 0 389 238" fill="none" xmlns="http://www.w3.org/2000/svg">
<path d="M331.53 204.597C407.29 160.857 407.29 89.9393 331.53 46.199C255.769 2.45855 132.937 2.45856 57.1766 46.199C-18.5839 89.9394 -18.5839 160.857 57.1766 204.597C132.937 248.337 255.769 248.337 331.53 204.597Z" fill="url(#paint0_linear_0_1)"/>
<mask id="mask0_0_1" style="mask-type:alpha" maskUnits="userSpaceOnUse" x="51" y="0" width="128" height="187">
<path d="M178.133 0.5495L51.3462 73.75V186.203L178.133 113.003V0.5495Z" fill="#D9D9D9"/>
</mask>
<g mask="url(#mask0_0_1)">
<path d="M220.696 -25.4969L25.3086 87.3101V227.346L220.696 114.539V-25.4969Z" fill="url(#paint1_linear_0_1)"/>
<path d="M156.819 -11.8622L-35.5396 99.1963V235.629L156.819 124.571V-11.8622Z" stroke="#269B7F" stroke-width="1.5" stroke-dasharray="7.5 7.5"/>
<path d="M195.335 172.209L162.624 191.095V260.501L195.335 241.615V172.209Z" fill="url(#paint2_linear_0_1)" stroke="#3E74FF" stroke-width="1.125" stroke-miterlimit="10"/>
<mask id="mask1_0_1" style="mask-type:luminance" maskUnits="userSpaceOnUse" x="56" y="98" width="42" height="71">
<path d="M97.6362 98.3703L56.939 121.867V168.86L97.6362 145.364V98.3703Z" fill="white"/>
</mask>
<g mask="url(#mask1_0_1)">
<path d="M77.288 114.524C74.018 116.412 70.821 119.377 68.103 123.045C65.384 126.712 63.265 130.917 62.013 135.128C60.762 139.339 60.434 143.366 61.072 146.701C61.71 150.036 63.285 152.529 65.597 153.864C67.909 155.199 70.855 155.316 74.062 154.201C77.27 153.086 80.594 150.789 83.615 147.6C86.636 144.411 89.218 140.473 91.035 136.284C92.852 132.096 93.821 127.845 93.821 124.069C93.804 119.022 92.057 115.186 88.96 113.398C85.863 111.61 81.668 112.015 77.288 114.524ZM77.288 149.769C74.521 151.366 71.816 151.98 69.516 151.534C67.215 151.087 65.422 149.599 64.363 147.259C63.304 144.918 63.027 141.83 63.567 138.385C64.107 134.94 65.439 131.292 67.396 127.904C69.352 124.515 71.845 121.537 74.559 119.347C77.272 117.157 80.085 115.853 82.642 115.6C85.198 115.346 87.383 116.156 88.92 117.925C90.457 119.693 91.278 122.343 91.278 125.538C91.261 129.826 89.782 134.778 87.162 139.315C84.542 143.853 80.993 147.61 77.288 149.769Z" fill="#3E74FF"/>
<path d="M75.6348 136.625V136.552L75.5708 136.589L74.6808 136.075L70.3568 143.711V140.774L68.3218 141.949V149.292L74.6808 145.62V143.271L72.1368 144.739L76.5248 137.139L75.6348 136.625Z" fill="#3E74FF"/>
<path d="M79.7678 131.449L84.1558 123.702V126.639L86.1898 125.465V118.122L79.8318 121.793V124.143L82.3748 122.674L77.9238 130.458L79.7678 131.449Z" fill="#3E74FF"/>
<path d="M81.8028 134.239L84.2828 132.807V130.458L77.9238 134.129V141.472L79.9588 140.297V137.36L85.1088 140.187L86.8898 137.103L81.8028 134.239Z" fill="#3E74FF"/>
<path d="M74.49 130.017L69.466 127.043L67.686 130.127L72.709 133.174L70.166 134.643V136.993L76.525 133.321V125.978L74.49 127.153V130.017Z" fill="#3E74FF"/>
</g>
<path d="M143.602 89.7643C144.835 90.1753 147.566 88.7771 149.702 86.6413C151.838 84.5055 152.57 82.4409 151.337 82.0299C150.104 81.6189 147.373 83.017 145.237 85.1528C143.101 87.2886 142.369 89.3532 143.602 89.7643Z" fill="url(#paint3_linear_0_1)"/>
<path d="M101.101 119.867L211.574 56.0848C223.053 49.4574 232.359 54.83 232.359 68.085V134.295C232.359 142.568 238.166 145.921 245.331 141.784C252.495 137.648 258.303 141.001 258.303 149.274V178.295" stroke="#757575" stroke-width="3" stroke-linecap="round" stroke-linejoin="bevel"/>
<path d="M-25.0477 365.937V352.105C-25.0477 346.002 -29.3322 343.528 -34.6174 346.58C-39.9025 349.631 -44.187 347.158 -44.187 341.055V109.392C-44.187 96.1369 -34.8814 80.0189 -23.4024 73.3919L161.992 -33.646" stroke="#269B7F" stroke-width="3" stroke-linecap="round" stroke-linejoin="bevel"/>
<path d="M77.2881 106.118C77.2881 100.722 81.0761 94.161 85.7491 91.463L122.983 69.966C129.911 65.966 135.527 56.2387 135.527 48.2392C135.527 40.2397 141.143 30.5123 148.071 26.5126L338.817 -83.6144" stroke="#757575" stroke-width="3" stroke-linecap="round" stroke-linejoin="bevel"/>
</g>
<path d="M177.159 2.23676L52.3208 74.3123V184.515L177.159 112.44V2.23676Z" stroke="url(#paint4_linear_0_1)" stroke-width="2.25"/>
<mask id="mask2_0_1" style="mask-type:alpha" maskUnits="userSpaceOnUse" x="142" y="0" width="127" height="187">
<path d="M268.989 0.903L142.814 73.75V186.203L268.989 113.356V0.903Z" fill="#D9D9D9"/>
</mask>
<g mask="url(#mask2_0_1)">
<path d="M141.957 67.812L298.757 -22.7163V114.017L141.957 204.546V67.812Z" fill="url(#paint5_linear_0_1)"/>
<path d="M206.524 109.829L14.165 220.887V357.32L206.524 246.262V109.829Z" stroke="#FFB813" stroke-width="1.5" stroke-dasharray="7.5 7.5"/>
<path d="M93.0547 223.382C93.0547 221.058 94.6857 218.232 96.6987 217.07L192.946 161.501C204.425 154.874 213.731 160.247 213.731 173.501V212.507C213.731 225.762 223.036 231.135 234.515 224.507L296.664 188.626C308.143 181.998 317.449 187.371 317.449 200.626V267.291" stroke="#757575" stroke-width="3" stroke-linecap="round" stroke-linejoin="bevel"/>
<path d="M167.078 116.935C168.521 116.102 169.691 114.076 169.691 112.41C169.691 110.744 168.521 110.068 167.078 110.902C165.636 111.735 164.466 113.761 164.466 115.427C164.466 117.093 165.636 117.768 167.078 116.935Z" fill="#D9D9D9"/>
<path d="M207.141 67.377H207.142C211.549 64.833 215.07 66.67 215.07 71.374C215.07 76.079 211.549 81.982 207.142 84.526L175.073 103.041C169.613 106.178 165.244 103.898 165.244 98.0481C165.244 92.1881 169.628 84.8481 175.101 81.6891C175.65 81.3721 176.198 81.105 176.741 80.89L177.15 80.728L177.279 80.198C179.049 72.926 184.421 65.25 190.804 61.5643C198.51 57.1157 204.732 60.1812 204.944 68.29L204.961 68.941L205.524 68.49C206.057 68.063 206.598 67.691 207.141 67.377Z" fill="#E0EDFF" stroke="#3E74FF" stroke-width="1.125"/>
<path d="M159.299 106.455L157.498 107.494V118.195L159.299 117.155V106.455Z" fill="#3E74FF"/>
<path d="M206.272 79.3359L204.471 80.3749V91.0759L206.272 90.0359V79.3359Z" fill="#3E74FF"/>
<path d="M161.766 117.638V119.668L202.005 96.4341V94.4031L161.766 117.638Z" fill="url(#paint6_linear_0_1)" stroke="#3E74FF" stroke-width="1.125" stroke-miterlimit="10"/>
<path d="M204.472 78.479L159.3 104.559V119.06L204.472 92.98V78.479Z" fill="#E0EDFF" stroke="#3E74FF" stroke-width="1.125" stroke-miterlimit="10"/>
<path d="M202.519 92.0619V81.6489L161.25 105.476V115.888L202.519 92.0619Z" fill="url(#paint7_linear_0_1)"/>
<path d="M164.6 106.483L163.6 107.06V108.188L164.6 107.61V106.483Z" fill="#3E74FF"/>
<path d="M164.6 109.877L163.6 110.454V111.582L164.6 111.004V109.877Z" fill="#3E74FF"/>
<path d="M165.969 107.298L164.969 107.875V109.003L165.969 108.426V107.298Z" fill="#3E74FF"/>
<path d="M167.186 104.99L166.187 105.567V106.695L167.186 106.118V104.99Z" fill="#3E74FF"/>
<path d="M167.187 108.384L166.187 108.961V110.089L167.187 109.512V108.384Z" fill="#3E74FF"/>
<path d="M168.479 105.849L167.479 106.427V107.554L168.479 106.977V105.849Z" fill="#3E74FF"/>
<path d="M170.01 103.359L169.01 103.936V105.064L170.01 104.487V103.359Z" fill="#3E74FF"/>
<path d="M170.009 106.754L169.009 107.332V108.46L170.009 107.882V106.754Z" fill="#3E74FF"/>
<path d="M171.303 104.219L170.303 104.796V105.924L171.303 105.347V104.219Z" fill="#3E74FF"/>
<path d="M172.876 101.705L171.876 102.283V103.41L172.876 102.833V101.705Z" fill="#3E74FF"/>
<path d="M172.876 105.099L171.876 105.677V106.804L172.876 106.227V105.099Z" fill="#3E74FF"/>
<path d="M174.093 102.607L173.094 103.184V104.312L174.093 103.735V102.607Z" fill="#3E74FF"/>
<path d="M175.463 100.21L174.463 100.788V101.915L175.463 101.338V100.21Z" fill="#3E74FF"/>
<path d="M175.463 103.606L174.463 104.183V105.311L175.463 104.733V103.606Z" fill="#3E74FF"/>
<path d="M176.604 101.158L175.604 101.735V102.863L176.604 102.286V101.158Z" fill="#3E74FF"/>
<path d="M178.05 98.717L177.05 99.2941V100.422L178.05 99.845V98.717Z" fill="#3E74FF"/>
<path d="M178.05 102.112L177.05 102.689V103.817L178.05 103.24V102.112Z" fill="#3E74FF"/>
<path d="M179.114 99.709L178.114 100.286V101.414L179.114 100.837V99.709Z" fill="#3E74FF"/>
<path d="M199.241 90.148C199.927 89.753 200.483 88.805 200.483 88.032C200.483 87.259 199.927 86.953 199.241 87.349C198.556 87.744 198 88.692 198 89.465C198 90.238 198.556 90.544 199.241 90.148Z" fill="#3E74FF"/>
<path d="M195.672 90.8101L182.526 98.4001" stroke="#3E74FF" stroke-width="1.125" stroke-miterlimit="10"/>
<path d="M294.226 67.6829V46.242C294.226 32.9872 284.92 27.6146 273.441 34.242L219.021 65.6609" stroke="#FC3D2E" stroke-width="3" stroke-linecap="round" stroke-linejoin="bevel"/>
<path d="M-0.127625 469.536V455.436C-0.127625 450.386 -3.67312 448.339 -8.04672 450.864C-12.4203 453.389 -15.9658 451.342 -15.9658 446.292V238.015C-15.9658 224.76 -6.66022 208.642 4.81878 202.015L154.034 115.865" stroke="#269B7F" stroke-width="3" stroke-linecap="round" stroke-linejoin="bevel"/>
<path d="M239.651 309.301V288.814C239.651 288.566 239.825 288.265 240.04 288.141C240.254 288.017 240.428 287.716 240.428 287.468V77.3021C240.428 64.0471 231.123 58.6747 219.644 65.3021L219.021 65.6611" stroke="#F58220" stroke-width="3" stroke-linecap="round" stroke-linejoin="bevel"/>
</g>
<path d="M268.626 2.23676L143.788 74.3123V184.515L268.626 112.44V2.23676Z" stroke="url(#paint8_linear_0_1)" stroke-width="2.25"/>
<mask id="mask3_0_1" style="mask-type:alpha" maskUnits="userSpaceOnUse" x="231" y="1" width="128" height="186">
<path d="M358.727 1.27948L231.94 74.48V186.933L358.727 113.732V1.27948Z" fill="#D9D9D9"/>
</mask>
<g mask="url(#mask3_0_1)">
<path d="M363.626 -2.965L217.239 81.552V204.614L363.626 120.097V-2.965Z" fill="url(#paint9_linear_0_1)"/>
<path d="M305.463 7.35293L314.912 1.89793V-45.2292L309.664 -42.1995V-37.7005L305.463 -35.2752V7.35293Z" fill="#E0EDFF" stroke="#3E74FF" stroke-width="1.125" stroke-miterlimit="10"/>
<path d="M314.732 -36.1277L307.826 -32.1401V5.78289L314.732 1.79529V-36.1277Z" fill="url(#paint10_linear_0_1)"/>
<path d="M309.323 0.0615234L307.826 0.926224V2.65562L309.323 1.79092V0.0615234Z" fill="#3E74FF"/>
<path d="M305.464 -32.3909L303.809 -31.4356V8.30801L305.464 7.35281V-32.3909Z" fill="#3E74FF"/>
<path d="M341.212 -69.0886L314.912 -53.9045V1.89728L341.212 -13.2868V-69.0886Z" fill="url(#paint11_linear_0_1)" stroke="#3E74FF" stroke-width="1.125" stroke-miterlimit="10"/>
<path d="M295.754 12.9585L360.188 -24.2427" stroke="#3E74FF" stroke-width="1.125" stroke-miterlimit="10"/>
<path d="M329.516 -193.173L177.932 -105.656V0.328117L329.516 -87.1889V-193.173Z" stroke="#E0EDFF" stroke-width="1.5" stroke-dasharray="7.5 7.5"/>
<path fill-rule="evenodd" clip-rule="evenodd" d="M355.807 120.18L316.837 142.679C315.805 143.275 314.881 144.813 314.881 146.068V175.627L357.763 150.869V121.31C357.763 120.055 356.839 119.584 355.807 120.18Z" fill="#E0EDFF" stroke="#3E74FF" stroke-width="1.125" stroke-miterlimit="10"/>
<path d="M336.295 133.643C336.475 133.539 336.621 133.286 336.621 133.078C336.621 132.87 336.475 132.785 336.295 132.889C336.114 132.993 335.968 133.246 335.968 133.454C335.968 133.662 336.114 133.747 336.295 133.643Z" fill="#3E74FF"/>
<path d="M359.448 152.155L313.141 178.891C310.75 180.271 309.119 180.773 309.119 180.397V179.142C309.119 179.016 309.228 178.828 309.337 178.765L363.198 147.668C363.307 147.605 363.416 147.668 363.416 147.794V149.049C363.47 149.394 362.22 150.555 359.448 152.155Z" fill="url(#paint12_linear_0_1)"/>
<path fill-rule="evenodd" clip-rule="evenodd" d="M359.448 152.155L313.141 178.891C310.75 180.271 309.119 180.773 309.119 180.397V179.142C309.119 179.016 309.228 178.828 309.337 178.765L363.198 147.668C363.307 147.605 363.416 147.668 363.416 147.794V149.049C363.47 149.394 362.22 150.555 359.448 152.155Z" stroke="#3E74FF" stroke-width="1.125" stroke-miterlimit="10"/>
<path d="M363.47 147.763C363.47 147.637 363.361 147.575 363.252 147.637L309.391 178.734C309.282 178.797 309.173 178.985 309.173 179.111V180.303L363.524 148.924V147.731L363.47 147.763Z" fill="#E0EDFF"/>
<path d="M359.448 152.155L313.141 178.891C310.75 180.271 309.119 180.773 309.119 180.397V179.142C309.119 179.016 309.228 178.828 309.337 178.765L363.198 147.668C363.307 147.605 363.416 147.668 363.416 147.794V149.049C363.47 149.394 362.22 150.555 359.448 152.155Z" stroke="#3E74FF" stroke-width="1.125" stroke-miterlimit="10"/>
<path d="M355.97 123.601L316.62 146.319V172.803L355.97 150.085V123.601Z" fill="url(#paint13_linear_0_1)"/>
<path fill-rule="evenodd" clip-rule="evenodd" d="M342.218 159.906V160.157C342.218 160.346 341.892 160.597 341.62 160.754L331.022 166.873C330.75 167.03 330.424 167.155 330.424 166.967V166.716" fill="#3E74FF"/>
<path fill-rule="evenodd" clip-rule="evenodd" d="M313.177 73.814L271.113 98.1C269.998 98.744 269.001 100.403 269.001 101.758V133.665L315.289 106.94V75.033C315.289 73.679 314.292 73.17 313.177 73.814Z" fill="#E0EDFF" stroke="#3E74FF" stroke-width="1.125" stroke-miterlimit="10"/>
<path d="M292.116 88.3451C292.31 88.2331 292.468 87.9601 292.468 87.7351C292.468 87.5111 292.31 87.4201 292.116 87.5321C291.922 87.6441 291.764 87.9171 291.764 88.1421C291.764 88.3661 291.922 88.4571 292.116 88.3451Z" fill="#3E74FF"/>
<path d="M317.107 108.329L267.123 137.187C264.541 138.678 262.781 139.22 262.781 138.813V137.458C262.781 137.323 262.899 137.12 263.016 137.052L321.155 103.485C321.273 103.417 321.39 103.485 321.39 103.621V104.975C321.449 105.348 320.099 106.601 317.107 108.329Z" fill="url(#paint14_linear_0_1)"/>
<path fill-rule="evenodd" clip-rule="evenodd" d="M317.107 108.329L267.123 137.187C264.541 138.678 262.781 139.22 262.781 138.813V137.458C262.781 137.323 262.899 137.12 263.016 137.052L321.155 103.485C321.273 103.417 321.39 103.485 321.39 103.621V104.975C321.449 105.348 320.099 106.601 317.107 108.329Z" stroke="#3E74FF" stroke-width="1.125" stroke-miterlimit="10"/>
<path d="M321.448 103.588C321.448 103.452 321.331 103.384 321.214 103.452L263.074 137.019C262.957 137.087 262.84 137.29 262.84 137.425V138.712L321.507 104.841V103.554L321.448 103.588Z" fill="#E0EDFF"/>
<path d="M317.107 108.329L267.123 137.187C264.541 138.678 262.781 139.22 262.781 138.813V137.458C262.781 137.323 262.899 137.12 263.016 137.052L321.155 103.485C321.273 103.417 321.39 103.485 321.39 103.621V104.975C321.449 105.348 320.099 106.601 317.107 108.329Z" stroke="#3E74FF" stroke-width="1.125" stroke-miterlimit="10"/>
<path d="M313.354 77.5059L270.879 102.029V130.616L313.354 106.093V77.5059Z" fill="url(#paint15_linear_0_1)"/>
<path fill-rule="evenodd" clip-rule="evenodd" d="M298.511 116.695V116.966C298.511 117.169 298.159 117.44 297.865 117.61L286.425 124.215C286.132 124.384 285.78 124.519 285.78 124.316V124.045" fill="#3E74FF"/>
<path d="M292.136 115.768C298.068 112.343 302.877 104.014 302.877 97.164C302.877 90.315 298.068 87.538 292.136 90.963C286.204 94.388 281.395 102.717 281.395 109.567C281.395 116.416 286.204 119.193 292.136 115.768Z" fill="url(#paint16_linear_0_1)" stroke="#3E74FF" stroke-width="1.125" stroke-miterlimit="10"/>
<path d="M291.606 99.179C291.838 98.636 292.357 98.336 292.589 98.612C292.771 98.829 293.15 98.692 293.421 98.311C293.765 97.828 294.248 97.768 294.337 98.194C294.407 98.53 294.734 98.577 295.057 98.295C295.467 97.937 295.849 98.123 295.783 98.643C295.731 99.054 295.962 99.277 296.294 99.132C296.714 98.948 296.943 99.353 296.731 99.898C296.564 100.329 296.668 100.698 296.963 100.71C297.337 100.725 297.384 101.294 297.054 101.791C296.793 102.184 296.758 102.648 296.976 102.815C297.252 103.026 297.11 103.685 296.707 104.065C296.388 104.365 296.217 104.864 296.329 105.163C296.471 105.541 296.159 106.201 295.738 106.413C295.405 106.58 295.12 107.046 295.111 107.436C295.1 107.931 294.659 108.503 294.276 108.518C293.974 108.529 293.615 108.899 293.486 109.328C293.324 109.873 292.813 110.279 292.521 110.095C292.29 109.95 291.905 110.173 291.674 110.584C291.381 111.106 290.871 111.289 290.709 110.932C290.58 110.651 290.221 110.696 289.918 111.034C289.536 111.461 289.095 111.397 289.084 110.916C289.075 110.536 288.79 110.399 288.457 110.616C288.036 110.892 287.724 110.591 287.866 110.049C287.978 109.621 287.807 109.319 287.488 109.387C287.084 109.474 286.943 108.978 287.219 108.448C287.437 108.029 287.402 107.605 287.141 107.514C286.811 107.399 286.858 106.774 287.232 106.328C287.527 105.976 287.631 105.486 287.464 105.249C287.252 104.949 287.481 104.278 287.901 103.977C288.233 103.74 288.464 103.249 288.412 102.898C288.346 102.455 288.728 101.827 289.138 101.712C289.461 101.622 289.788 101.197 289.858 100.78C289.947 100.251 290.43 99.753 290.774 99.839C291.045 99.907 291.423 99.607 291.606 99.179Z" fill="#F58220"/>
<path d="M288.747 111.783C289.307 111.105 289.825 110.37 290.289 109.597V106.324L294.024 104.219V107.298C294.194 107.582 294.838 107.68 295.697 107.741C295.697 107.741 294.099 111.416 292.092 112.574C290.085 113.733 288.747 111.783 288.747 111.783Z" fill="#E0EDFF" stroke="#F58220" stroke-width="1.125" stroke-miterlimit="10"/>
<path d="M292.137 115.767C294.803 114.232 297.375 111.602 299.348 108.393C298.246 107.938 297.025 107.722 295.717 107.75C295.717 107.75 294.099 111.415 292.092 112.574C290.085 113.733 288.737 111.815 288.737 111.815C287.505 113.328 285.994 114.956 284.861 116.687C286.842 117.657 289.44 117.328 292.137 115.767Z" fill="#FF6633" stroke="#F58220" stroke-width="1.125" stroke-miterlimit="10"/>
<path d="M295.697 99.0641C295.718 98.9601 295.754 98.8521 295.805 98.7481C295.856 98.6441 295.919 98.5451 295.992 98.4581C296.065 98.3721 296.145 98.2991 296.227 98.2441C296.309 98.1891 296.391 98.1541 296.469 98.1411C296.936 98.0341 296.673 100.143 295.369 100.827C295.504 100.232 295.614 99.6431 295.697 99.0641Z" fill="#E0EDFF" stroke="#F58220" stroke-width="1.125" stroke-miterlimit="10"/>
<path d="M288.574 103.177C288.552 103.096 288.513 103.03 288.46 102.985C288.407 102.94 288.341 102.916 288.266 102.914C288.191 102.913 288.109 102.934 288.025 102.976C287.94 103.018 287.856 103.081 287.777 103.16C287.37 103.586 287.572 105.398 288.878 104.575C288.748 104.134 288.646 103.667 288.574 103.177Z" fill="#E0EDFF" stroke="#F58220" stroke-width="1.125" stroke-miterlimit="10"/>
<path d="M295.867 97.1689C295.867 98.2859 295.513 100.768 294.89 102.502C294.428 103.79 293.237 105.613 292.155 106.238C291.072 106.863 290.004 106.344 289.42 105.661C288.678 104.795 288.443 102.573 288.443 101.455C288.443 100.318 288.834 99.0019 289.53 97.7959C290.226 96.5899 291.17 95.5939 292.155 95.0249C293.139 94.4569 294.084 94.3629 294.78 94.7649C295.476 95.1669 295.867 96.0319 295.867 97.1689Z" fill="#E0EDFF" stroke="#F58220" stroke-width="1.125" stroke-miterlimit="10"/>
<path d="M295.675 98.6869C295.501 97.0839 294.071 95.6419 292.473 96.5649L292.209 95.3049L292.704 96.4469C292.704 99.5349 288.739 100.999 288.574 103.134L288.51 103.098C288.429 102.55 288.385 101.975 288.379 101.377C288.379 99.0089 290.104 96.1669 292.154 94.9829C293.146 94.4079 294.098 94.3069 294.805 94.7009C295.512 95.0959 295.916 95.9539 295.93 97.0899C295.911 97.6899 295.841 98.3149 295.721 98.9569L295.675 98.6869Z" fill="#F58220" stroke="#F58220" stroke-width="1.125" stroke-linejoin="round"/>
<path d="M292.136 115.768C298.068 112.343 302.877 104.014 302.877 97.164C302.877 90.315 298.068 87.538 292.136 90.963C286.204 94.388 281.395 102.717 281.395 109.567C281.395 116.416 286.204 119.193 292.136 115.768Z" stroke="#3E74FF" stroke-width="1.125" stroke-miterlimit="10"/>
<path d="M243.134 49.4214V58.5412" stroke="#F58220" stroke-width="2.25"/>
<path d="M232.574 56.731V59.2059L269.472 37.8999V35.425L232.574 56.731Z" fill="url(#paint17_linear_0_1)" stroke="#3E74FF" stroke-width="1.125" stroke-miterlimit="10"/>
<path d="M271.733 21.1841L230.312 45.0989V57.6856L271.733 33.7708V21.1841Z" fill="#E0EDFF" stroke="#3E74FF" stroke-width="1.125" stroke-miterlimit="10"/>
<path d="M269.554 32.5112V24.9592L232.493 46.3566V53.9086L269.554 32.5112Z" fill="url(#paint18_linear_0_1)"/>
<path d="M238.449 44.6729L234.5 46.9529V50.8614L238.449 48.5814V44.6729Z" fill="#E0EDFF"/>
<path d="M243.526 41.7421L240.706 43.3706V47.2791L243.526 45.6506V41.7421Z" fill="#E0EDFF"/>
<path d="M249.169 38.485L245.784 40.4392V44.3477L249.169 42.3935V38.485Z" fill="#E0EDFF"/>
<path d="M254.246 35.5536L251.425 37.1821V41.0906L254.246 39.4621V35.5536Z" fill="#E0EDFF"/>
<path d="M272.623 16.762L258.52 24.9048V41.8416L272.623 33.6989V16.762Z" fill="url(#paint19_linear_0_1)" stroke="#3E74FF" stroke-width="1.125" stroke-miterlimit="10"/>
<path d="M271.626 29.1183L267.213 31.666V34.5777L271.626 32.03V29.1183Z" fill="#E0EDFF"/>
<path d="M264.691 29.8473L260.278 32.395V35.3067L264.691 32.759V29.8473Z" fill="#E0EDFF"/>
<path d="M271.311 22.7496L266.898 25.2974V28.2091L271.311 25.6613V22.7496Z" fill="#E0EDFF"/>
<path d="M269.104 21.1117L264.691 23.6594V26.5712L269.104 24.0234V21.1117Z" fill="#E0EDFF"/>
<path d="M269.592 23.5216V23.7091L269.754 23.6153L271.548 22.5793L271.896 22.7803V25.696L271.548 26.2998L269.753 27.351L269.592 27.4454V27.6316V29.6789V29.8664L269.754 29.7726L271.548 28.7366L271.896 28.9376V31.8532L271.548 32.4562L262.461 37.7029L262.113 37.5019V35.0204V34.8329L261.95 34.9266L260.158 35.9614L259.81 35.7604V32.8447L260.158 32.2417L261.95 31.207L262.113 31.1133V30.9258V28.8785V28.691L261.95 28.7847L260.158 29.8194L259.81 29.6184V26.7028L260.158 26.0998L269.243 20.8545L269.592 21.0555V23.5216ZM271.172 25.8674L271.335 25.7736V25.5861V23.5542V23.3667L271.172 23.4604L269.311 24.5353L267.447 25.6114L267.284 25.7051V25.8926V27.9246V28.1121L267.447 28.0183L271.172 25.8674ZM269.03 21.8139V21.6264L268.867 21.7202L265.144 23.8699L264.982 23.9636V24.1511V26.1984V26.3859L265.144 26.2922L268.867 24.1425L269.03 24.0488V23.8613V21.8139ZM260.534 26.5314L260.372 26.6251V26.8126V28.8599V29.0474L260.534 28.9537L262.394 27.8801L264.258 26.804L264.42 26.7103V26.5228V24.4755V24.288L264.258 24.3817L260.534 26.5314ZM262.837 28.2729L262.675 28.3666V28.5541V30.6014V30.7889L262.837 30.6952L266.56 28.5455L266.723 28.4518V28.2643V26.2169V26.0294L266.56 26.1232L262.837 28.2729ZM260.534 32.658L260.372 32.7517V32.9392V34.9865V35.174L260.534 35.0803L262.394 34.0067L264.258 32.9306L264.42 32.8368V32.6493V30.602V30.4145L264.258 30.5083L260.534 32.658ZM262.675 36.7434V36.9309L262.837 36.8371L266.56 34.6874L266.723 34.5937V34.4062V32.3589V32.1714L266.56 32.2651L262.837 34.4148L262.675 34.5086V34.6961V36.7434ZM271.172 32.0247L271.335 31.9309V31.7434V29.6961V29.5086L271.172 29.6023L269.311 30.6772L267.447 31.7533L267.284 31.8471V32.0346V34.0819V34.2694L267.447 34.1756L271.172 32.0247ZM268.87 30.2832L269.032 30.1893V30.0017L269.03 27.9556V27.7685L268.867 27.8621L265.144 30.0118L264.982 30.1056V30.2931V32.3404V32.5279L265.144 32.4341L268.87 30.2832Z" fill="#3E74FF" stroke="url(#paint20_linear_0_1)" stroke-width="0.375"/>
<path d="M292.144 81.958C292.144 69.558 300.849 54.4809 311.587 48.2813L377.508 10.2216C379.091 9.30756 380.375 10.0486 380.375 11.8765" stroke="#757575" stroke-width="3" stroke-linecap="round" stroke-linejoin="bevel"/>
<path d="M336.321 127.43V62.309C336.321 49.0542 345.627 32.9364 357.106 26.309L382.895 11.4195C383.373 11.1438 383.76 10.4734 383.76 9.92212" stroke="#269B7F" stroke-width="3" stroke-linecap="round" stroke-linejoin="bevel"/>
<path d="M164.025 85.884V75.53C164.025 70.624 160.58 68.635 156.331 71.088C152.082 73.542 148.637 71.553 148.637 66.646V-114.889C148.637 -128.143 157.943 -144.261 169.422 -150.889L313.727 -234.203" stroke="#269B7F" stroke-width="3" stroke-linecap="round" stroke-linejoin="bevel"/>
</g>
<path d="M357.752 2.96698L232.914 75.0425V185.245L357.752 113.17V2.96698Z" stroke="url(#paint21_linear_0_1)" stroke-width="2.25"/>
<defs>
<linearGradient id="paint0_linear_0_1" x1="57.1766" y1="46.199" x2="194.353" y2="283.796" gradientUnits="userSpaceOnUse">
<stop stop-color="#FBAD41" stop-opacity="0.25"/>
<stop offset="0.0001" stop-color="#FBAD41" stop-opacity="0.58"/>
<stop offset="0.354435" stop-color="#F6821F"/>
<stop offset="0.679435" stop-color="#FF6633"/>
<stop offset="1" stop-color="#CE2F55"/>
</linearGradient>
<linearGradient id="paint1_linear_0_1" x1="123.002" y1="30.9066" x2="183.64" y2="135.934" gradientUnits="userSpaceOnUse">
<stop stop-color="#F0F6FF"/>
<stop offset="1" stop-color="white"/>
</linearGradient>
<linearGradient id="paint2_linear_0_1" x1="178.979" y1="181.652" x2="209.033" y2="233.706" gradientUnits="userSpaceOnUse">
<stop stop-color="#F0F6FF"/>
<stop offset="1" stop-color="white"/>
</linearGradient>
<linearGradient id="paint3_linear_0_1" x1="73.4652" y1="86.5481" x2="70.3714" y2="95.8294" gradientUnits="userSpaceOnUse">
<stop stop-color="#F0F6FF"/>
<stop offset="1" stop-color="white"/>
</linearGradient>
<linearGradient id="paint4_linear_0_1" x1="51.2481" y1="70.3245" x2="167.379" y2="60.694" gradientUnits="userSpaceOnUse">
<stop stop-color="#911475"/>
<stop offset="1" stop-color="#CE2F55"/>
</linearGradient>
<linearGradient id="paint5_linear_0_1" x1="133.74" y1="48.4771" x2="250.214" y2="124.219" gradientUnits="userSpaceOnUse">
<stop stop-color="#E0EDFF"/>
<stop offset="1" stop-color="white"/>
</linearGradient>
<linearGradient id="paint6_linear_0_1" x1="161.766" y1="118.653" x2="202.006" y2="118.651" gradientUnits="userSpaceOnUse">
<stop stop-color="#F0F6FF"/>
<stop offset="1" stop-color="white"/>
</linearGradient>
<linearGradient id="paint7_linear_0_1" x1="202.519" y1="86.8559" x2="161.25" y2="86.8559" gradientUnits="userSpaceOnUse">
<stop stop-color="#F0F6FF"/>
<stop offset="1" stop-color="white"/>
</linearGradient>
<linearGradient id="paint8_linear_0_1" x1="147.229" y1="73.7524" x2="270.23" y2="56.7269" gradientUnits="userSpaceOnUse">
<stop stop-color="#911475"/>
<stop offset="1" stop-color="#CE2F55"/>
</linearGradient>
<linearGradient id="paint9_linear_0_1" x1="290.432" y1="39.2936" x2="343.72" y2="131.59" gradientUnits="userSpaceOnUse">
<stop stop-color="#F0F6FF"/>
<stop offset="1" stop-color="white"/>
</linearGradient>
<linearGradient id="paint10_linear_0_1" x1="311.279" y1="-34.1339" x2="327.7" y2="-5.6917" gradientUnits="userSpaceOnUse">
<stop stop-color="#F0F6FF"/>
<stop offset="1" stop-color="white"/>
</linearGradient>
<linearGradient id="paint11_linear_0_1" x1="328.062" y1="-61.4966" x2="352.225" y2="-19.6452" gradientUnits="userSpaceOnUse">
<stop stop-color="#F0F6FF"/>
<stop offset="1" stop-color="white"/>
</linearGradient>
<linearGradient id="paint12_linear_0_1" x1="336.268" y1="163.216" x2="337.274" y2="164.958" gradientUnits="userSpaceOnUse">
<stop stop-color="#F0F6FF"/>
<stop offset="1" stop-color="white"/>
</linearGradient>
<linearGradient id="paint13_linear_0_1" x1="336.295" y1="134.96" x2="347.763" y2="154.823" gradientUnits="userSpaceOnUse">
<stop stop-color="#F0F6FF"/>
<stop offset="1" stop-color="white"/>
</linearGradient>
<linearGradient id="paint14_linear_0_1" x1="292.086" y1="120.268" x2="293.172" y2="122.148" gradientUnits="userSpaceOnUse">
<stop stop-color="#F0F6FF"/>
<stop offset="1" stop-color="white"/>
</linearGradient>
<linearGradient id="paint15_linear_0_1" x1="292.117" y1="89.7669" x2="304.496" y2="111.208" gradientUnits="userSpaceOnUse">
<stop stop-color="#F0F6FF"/>
<stop offset="1" stop-color="white"/>
</linearGradient>
<linearGradient id="paint16_linear_0_1" x1="292.136" y1="90.963" x2="302.877" y2="109.567" gradientUnits="userSpaceOnUse">
<stop stop-color="#F0F6FF"/>
<stop offset="1" stop-color="white"/>
</linearGradient>
<linearGradient id="paint17_linear_0_1" x1="232.574" y1="57.9685" x2="269.473" y2="57.9672" gradientUnits="userSpaceOnUse">
<stop stop-color="#F0F6FF"/>
<stop offset="1" stop-color="white"/>
</linearGradient>
<linearGradient id="paint18_linear_0_1" x1="269.554" y1="28.7352" x2="232.493" y2="28.7352" gradientUnits="userSpaceOnUse">
<stop stop-color="#F0F6FF"/>
<stop offset="1" stop-color="white"/>
</linearGradient>
<linearGradient id="paint19_linear_0_1" x1="265.571" y1="20.8334" x2="272.905" y2="33.536" gradientUnits="userSpaceOnUse">
<stop stop-color="#F0F6FF"/>
<stop offset="1" stop-color="white"/>
</linearGradient>
<linearGradient id="paint20_linear_0_1" x1="265.853" y1="22.6243" x2="271.616" y2="32.6049" gradientUnits="userSpaceOnUse">
<stop stop-color="#F0F6FF"/>
<stop offset="1" stop-color="white"/>
</linearGradient>
<linearGradient id="paint21_linear_0_1" x1="213.216" y1="71.1816" x2="347.834" y2="37.1662" gradientUnits="userSpaceOnUse">
<stop stop-color="#911475"/>
<stop offset="1" stop-color="#CE2F55"/>
</linearGradient>
</defs>
</svg>
