<svg xmlns="http://www.w3.org/2000/svg" width="389" height="238" fill="none" viewBox="0 0 389 238"><path fill="url(#paint0_linear_0_1)" d="M331.53 204.597c75.76-43.74 75.76-114.658 0-158.398s-198.593-43.74-274.353 0-75.76 114.658 0 158.398 198.592 43.74 274.353 0"/><mask id="mask0_0_1" width="128" height="187" x="51" y="0" maskUnits="userSpaceOnUse" style="mask-type:alpha"><path fill="#D9D9D9" d="M178.133.55 51.346 73.75v112.453l126.787-73.2z"/></mask><g mask="url(#mask0_0_1)"><path fill="url(#paint1_linear_0_1)" d="M220.696-25.497 25.309 87.31v140.036l195.387-112.807z"/><path stroke="#269B7F" stroke-dasharray="7.5 7.5" stroke-width="1.5" d="M156.819-11.862-35.54 99.196V235.63l192.36-111.059z"/><path fill="url(#paint2_linear_0_1)" stroke="#3E74FF" stroke-miterlimit="10" stroke-width="1.125" d="m195.335 172.209-32.711 18.886v69.406l32.711-18.886z"/><mask id="mask1_0_1" width="42" height="71" x="56" y="98" maskUnits="userSpaceOnUse" style="mask-type:luminance"><path fill="#fff" d="M97.636 98.37 56.94 121.867v46.993l40.697-23.496z"/></mask><g fill="#3E74FF" mask="url(#mask1_0_1)"><path d="M77.288 114.524c-3.27 1.888-6.467 4.853-9.185 8.521-2.719 3.667-4.838 7.872-6.09 12.083s-1.579 8.238-.941 11.573 2.213 5.828 4.525 7.163 5.258 1.452 8.465.337c3.208-1.115 6.532-3.412 9.553-6.601s5.603-7.127 7.42-11.316c1.817-4.188 2.786-8.439 2.786-12.215-.017-5.047-1.764-8.883-4.861-10.671s-7.292-1.383-11.672 1.126m0 35.245c-2.767 1.597-5.472 2.211-7.772 1.765-2.301-.447-4.094-1.935-5.153-4.275s-1.336-5.429-.796-8.874 1.872-7.093 3.829-10.481c1.956-3.389 4.449-6.367 7.163-8.557 2.713-2.19 5.526-3.494 8.083-3.747 2.556-.254 4.741.556 6.278 2.325 1.537 1.768 2.358 4.418 2.358 7.613-.017 4.288-1.496 9.24-4.116 13.777-2.62 4.538-6.169 8.295-9.874 10.454"/><path d="M75.635 136.625v-.073l-.064.037-.89-.514-4.324 7.636v-2.937l-2.035 1.175v7.343l6.359-3.672v-2.349l-2.544 1.468 4.388-7.6zm4.133-5.176 4.388-7.747v2.937l2.034-1.174v-7.343l-6.358 3.671v2.35l2.543-1.469-4.451 7.784zm2.035 2.79 2.48-1.432v-2.349l-6.36 3.671v7.343l2.036-1.175v-2.937l5.15 2.827 1.78-3.084zm-7.313-4.222-5.024-2.974-1.78 3.084 5.023 3.047-2.543 1.469v2.35l6.359-3.672v-7.343l-2.035 1.175z"/></g><path fill="url(#paint3_linear_0_1)" d="M143.602 89.764c1.233.411 3.964-.987 6.1-3.123s2.868-4.2 1.635-4.611-3.964.987-6.1 3.123-2.868 4.2-1.635 4.611"/><path stroke="#757575" stroke-linecap="round" stroke-linejoin="bevel" stroke-width="3" d="m101.101 119.867 110.473-63.782c11.479-6.628 20.785-1.255 20.785 12v66.21c0 8.273 5.807 11.626 12.972 7.489s12.972-.783 12.972 7.49v29.021"/><path stroke="#269B7F" stroke-linecap="round" stroke-linejoin="bevel" stroke-width="3" d="M-25.048 365.937v-13.832c0-6.103-4.284-8.577-9.57-5.525-5.285 3.051-9.569.578-9.569-5.525V109.392c0-13.255 9.306-29.373 20.785-36L161.992-33.646"/><path stroke="#757575" stroke-linecap="round" stroke-linejoin="bevel" stroke-width="3" d="M77.288 106.118c0-5.396 3.788-11.957 8.461-14.655l37.234-21.497c6.928-4 12.544-13.727 12.544-21.727s5.616-17.727 12.544-21.726L338.817-83.614"/></g><path stroke="url(#paint4_linear_0_1)" stroke-width="2.25" d="M177.159 2.237 52.321 74.312v110.203l124.838-72.075z"/><mask id="mask2_0_1" width="127" height="187" x="142" y="0" maskUnits="userSpaceOnUse" style="mask-type:alpha"><path fill="#D9D9D9" d="M268.989.903 142.814 73.75v112.453l126.175-72.847z"/></mask><g mask="url(#mask2_0_1)"><path fill="url(#paint5_linear_0_1)" d="m141.957 67.812 156.8-90.528v136.733l-156.8 90.529z"/><path stroke="#FFB813" stroke-dasharray="7.5 7.5" stroke-width="1.5" d="M206.524 109.829 14.165 220.887V357.32l192.359-111.058z"/><path stroke="#757575" stroke-linecap="round" stroke-linejoin="bevel" stroke-width="3" d="M93.055 223.382c0-2.324 1.63-5.15 3.644-6.312l96.247-55.569c11.479-6.627 20.785-1.254 20.785 12v39.006c0 13.255 9.305 18.628 20.784 12l62.149-35.881c11.479-6.628 20.785-1.255 20.785 12v66.665"/><path fill="#D9D9D9" d="M167.078 116.935c1.443-.833 2.613-2.859 2.613-4.525s-1.17-2.342-2.613-1.508c-1.442.833-2.612 2.859-2.612 4.525s1.17 2.341 2.612 1.508"/><path fill="#E0EDFF" stroke="#3E74FF" stroke-width="1.125" d="M207.141 67.377h.001c4.407-2.544 7.928-.707 7.928 3.997 0 4.705-3.521 10.608-7.928 13.152l-32.069 18.515c-5.46 3.137-9.829.857-9.829-4.993 0-5.86 4.384-13.2 9.857-16.359a12.5 12.5 0 0 1 1.64-.799l.409-.162.129-.53c1.77-7.272 7.142-14.948 13.525-18.634 7.706-4.448 13.928-1.383 14.14 6.726l.017.651.563-.451a13 13 0 0 1 1.617-1.113Z"/><path fill="#3E74FF" d="m159.299 106.455-1.801 1.039v10.701l1.801-1.04zm46.973-27.119-1.801 1.039v10.7l1.801-1.04z"/><path fill="url(#paint6_linear_0_1)" stroke="#3E74FF" stroke-miterlimit="10" stroke-width="1.125" d="M161.766 117.638v2.03l40.239-23.234v-2.03z"/><path fill="#E0EDFF" stroke="#3E74FF" stroke-miterlimit="10" stroke-width="1.125" d="m204.472 78.479-45.172 26.08v14.501l45.172-26.08z"/><path fill="url(#paint7_linear_0_1)" d="M202.519 92.062V81.649l-41.269 23.827v10.412z"/><path fill="#3E74FF" d="m164.6 106.483-1 .577v1.128l1-.578zm0 3.394-1 .577v1.128l1-.578zm1.369-2.579-1 .577v1.128l1-.577zm1.217-2.308-.999.577v1.128l.999-.577zm.001 3.394-1 .577v1.128l1-.577zm1.292-2.535-1 .578v1.127l1-.577zm1.531-2.49-1 .577v1.128l1-.577zm-.001 3.395-1 .578v1.128l1-.578zm1.294-2.535-1 .577v1.128l1-.577zm1.573-2.514-1 .578v1.127l1-.577zm0 3.394-1 .578v1.127l1-.577zm1.217-2.492-.999.577v1.128l.999-.577zm1.37-2.397-1 .578v1.127l1-.577zm0 3.396-1 .577v1.128l1-.578zm1.141-2.448-1 .577v1.128l1-.577zm1.446-2.441-1 .577v1.128l1-.577zm0 3.395-1 .577v1.128l1-.577zm1.064-2.403-1 .577v1.128l1-.577zm20.127-9.561c.686-.395 1.242-1.343 1.242-2.116s-.556-1.079-1.242-.683S198 88.692 198 89.465s.556 1.079 1.241.683"/><path stroke="#3E74FF" stroke-miterlimit="10" stroke-width="1.125" d="m195.672 90.81-13.146 7.59"/><path stroke="#FC3D2E" stroke-linecap="round" stroke-linejoin="bevel" stroke-width="3" d="M294.226 67.683V46.242c0-13.255-9.306-18.627-20.785-12l-54.42 31.419"/><path stroke="#269B7F" stroke-linecap="round" stroke-linejoin="bevel" stroke-width="3" d="M-.128 469.536v-14.1c0-5.05-3.545-7.097-7.919-4.572s-7.919.478-7.919-4.572V238.015c0-13.255 9.306-29.373 20.785-36l149.215-86.15"/><path stroke="#F58220" stroke-linecap="round" stroke-linejoin="bevel" stroke-width="3" d="M239.651 309.301v-20.487c0-.248.174-.549.389-.673a.86.86 0 0 0 .388-.673V77.302c0-13.255-9.305-18.627-20.784-12l-.623.36"/></g><path stroke="url(#paint8_linear_0_1)" stroke-width="2.25" d="M268.626 2.237 143.788 74.312v110.203l124.838-72.075z"/><mask id="mask3_0_1" width="128" height="186" x="231" y="1" maskUnits="userSpaceOnUse" style="mask-type:alpha"><path fill="#D9D9D9" d="M358.727 1.28 231.94 74.48v112.453l126.787-73.201z"/></mask><g mask="url(#mask3_0_1)"><path fill="url(#paint9_linear_0_1)" d="M363.626-2.965 217.239 81.552v123.062l146.387-84.517z"/><path fill="#E0EDFF" stroke="#3E74FF" stroke-miterlimit="10" stroke-width="1.125" d="m305.463 7.353 9.449-5.455V-45.23l-5.248 3.03v4.499l-4.201 2.425z"/><path fill="url(#paint10_linear_0_1)" d="m314.732-36.128-6.906 3.988V5.783l6.906-3.988z"/><path fill="#3E74FF" d="m309.323.062-1.497.864v1.73l1.497-.865zm-3.859-32.452-1.655.954V8.308l1.655-.955z"/><path fill="url(#paint11_linear_0_1)" stroke="#3E74FF" stroke-miterlimit="10" stroke-width="1.125" d="m341.212-69.089-26.3 15.185V1.897l26.3-15.184z"/><path stroke="#3E74FF" stroke-miterlimit="10" stroke-width="1.125" d="m295.754 12.959 64.434-37.202"/><path stroke="#E0EDFF" stroke-dasharray="7.5 7.5" stroke-width="1.5" d="m329.516-193.173-151.584 87.517V.328l151.584-87.517z"/><path fill="#E0EDFF" fill-rule="evenodd" stroke="#3E74FF" stroke-miterlimit="10" stroke-width="1.125" d="m355.807 120.18-38.97 22.499c-1.032.596-1.956 2.134-1.956 3.389v29.559l42.882-24.758V121.31c0-1.255-.924-1.726-1.956-1.13Z" clip-rule="evenodd"/><path fill="#3E74FF" d="M336.295 133.643a.72.72 0 0 0 .326-.565c0-.208-.146-.293-.326-.189a.72.72 0 0 0-.327.565c0 .208.146.293.327.189"/><path fill="url(#paint12_linear_0_1)" d="m359.448 152.155-46.307 26.736c-2.391 1.38-4.022 1.882-4.022 1.506v-1.255c0-.126.109-.314.218-.377l53.861-31.097c.109-.063.218 0 .218.126v1.255c.054.345-1.196 1.506-3.968 3.106"/><path stroke="#3E74FF" stroke-miterlimit="10" stroke-width="1.125" d="m359.448 152.155-46.307 26.736c-2.391 1.38-4.022 1.882-4.022 1.506v-1.255c0-.126.109-.314.218-.377l53.861-31.097c.109-.063.218 0 .218.126v1.255c.054.345-1.196 1.506-3.968 3.106Z" clip-rule="evenodd"/><path fill="#E0EDFF" d="M363.47 147.763c0-.126-.109-.188-.218-.126l-53.861 31.097a.53.53 0 0 0-.218.377v1.192l54.351-31.379v-1.193z"/><path stroke="#3E74FF" stroke-miterlimit="10" stroke-width="1.125" d="m359.448 152.155-46.307 26.736c-2.391 1.38-4.022 1.882-4.022 1.506v-1.255c0-.126.109-.314.218-.377l53.861-31.097c.109-.063.218 0 .218.126v1.255c.054.345-1.196 1.506-3.968 3.106Z"/><path fill="url(#paint13_linear_0_1)" d="m355.97 123.601-39.35 22.718v26.484l39.35-22.718z"/><path fill="#3E74FF" fill-rule="evenodd" d="M342.218 159.906v.251c0 .189-.326.44-.598.597l-10.598 6.119c-.272.157-.598.282-.598.094v-.251" clip-rule="evenodd"/><path fill="#E0EDFF" fill-rule="evenodd" stroke="#3E74FF" stroke-miterlimit="10" stroke-width="1.125" d="M313.177 73.814 271.113 98.1c-1.115.644-2.112 2.303-2.112 3.658v31.907l46.288-26.725V75.033c0-1.354-.997-1.863-2.112-1.219Z" clip-rule="evenodd"/><path fill="#3E74FF" d="M292.116 88.345a.78.78 0 0 0 .352-.61c0-.224-.158-.315-.352-.203a.78.78 0 0 0-.352.61c0 .224.158.315.352.203"/><path fill="url(#paint14_linear_0_1)" d="m317.107 108.329-49.984 28.858c-2.582 1.491-4.342 2.033-4.342 1.626v-1.355a.57.57 0 0 1 .235-.406l58.139-33.567c.118-.068.235 0 .235.136v1.354c.059.373-1.291 1.626-4.283 3.354"/><path stroke="#3E74FF" stroke-miterlimit="10" stroke-width="1.125" d="m317.107 108.329-49.984 28.858c-2.582 1.491-4.342 2.033-4.342 1.626v-1.355a.57.57 0 0 1 .235-.406l58.139-33.567c.118-.068.235 0 .235.136v1.354c.059.373-1.291 1.626-4.283 3.354Z" clip-rule="evenodd"/><path fill="#E0EDFF" d="M321.448 103.588c0-.136-.117-.204-.234-.136l-58.14 33.567a.57.57 0 0 0-.234.406v1.287l58.667-33.871v-1.287z"/><path stroke="#3E74FF" stroke-miterlimit="10" stroke-width="1.125" d="m317.107 108.329-49.984 28.858c-2.582 1.491-4.342 2.033-4.342 1.626v-1.355a.57.57 0 0 1 .235-.406l58.139-33.567c.118-.068.235 0 .235.136v1.354c.059.373-1.291 1.626-4.283 3.354Z"/><path fill="url(#paint15_linear_0_1)" d="m313.354 77.506-42.475 24.523v28.587l42.475-24.523z"/><path fill="#3E74FF" fill-rule="evenodd" d="M298.511 116.695v.271c0 .203-.352.474-.646.644l-11.44 6.605c-.293.169-.645.304-.645.101v-.271" clip-rule="evenodd"/><path fill="url(#paint16_linear_0_1)" stroke="#3E74FF" stroke-miterlimit="10" stroke-width="1.125" d="M292.136 115.768c5.932-3.425 10.741-11.754 10.741-18.604s-4.809-9.626-10.741-6.201-10.741 11.754-10.741 18.604 4.809 9.626 10.741 6.201Z"/><path fill="#F58220" d="M291.606 99.179c.232-.543.751-.843.983-.567.182.217.561.08.832-.301.344-.483.827-.543.916-.117.07.336.397.383.72.101.41-.358.792-.172.726.348-.052.411.179.634.511.489.42-.184.649.221.437.766-.167.431-.063.8.232.812.374.015.421.584.091 1.081-.261.393-.296.857-.078 1.024.276.211.134.87-.269 1.25-.319.3-.49.799-.378 1.098.142.378-.17 1.038-.591 1.25-.333.167-.618.633-.627 1.023-.011.495-.452 1.067-.835 1.082-.302.011-.661.381-.79.81-.162.545-.673.951-.965.767-.231-.145-.616.078-.847.489-.293.522-.803.705-.965.348-.129-.281-.488-.236-.791.102-.382.427-.823.363-.834-.118-.009-.38-.294-.517-.627-.3-.421.276-.733-.025-.591-.567.112-.428-.059-.73-.378-.662-.404.087-.545-.409-.269-.939.218-.419.183-.843-.078-.934-.33-.115-.283-.74.091-1.186.295-.352.399-.842.232-1.079-.212-.3.017-.971.437-1.272.332-.237.563-.728.511-1.079-.066-.443.316-1.071.726-1.186.323-.09.65-.515.72-.932.089-.529.572-1.027.916-.941.271.068.649-.232.832-.66"/><path fill="#E0EDFF" stroke="#F58220" stroke-miterlimit="10" stroke-width="1.125" d="M288.747 111.783a18 18 0 0 0 1.542-2.186v-3.273l3.735-2.105v3.079c.17.284.814.382 1.673.443 0 0-1.598 3.675-3.605 4.833s-3.345-.791-3.345-.791Z"/><path fill="#F63" stroke="#F58220" stroke-miterlimit="10" stroke-width="1.125" d="M292.137 115.767c2.666-1.535 5.238-4.165 7.211-7.374-1.102-.455-2.323-.671-3.631-.643 0 0-1.618 3.665-3.625 4.824s-3.355-.759-3.355-.759c-1.232 1.513-2.743 3.141-3.876 4.872 1.981.97 4.579.641 7.276-.92Z"/><path fill="#E0EDFF" stroke="#F58220" stroke-miterlimit="10" stroke-width="1.125" d="M295.697 99.064a1.44 1.44 0 0 1 .295-.606q.11-.13.235-.214a.6.6 0 0 1 .242-.103c.467-.107.204 2.002-1.1 2.686q.203-.893.328-1.763Zm-7.123 4.113a.4.4 0 0 0-.114-.192.3.3 0 0 0-.194-.071.5.5 0 0 0-.241.062 1 1 0 0 0-.248.184c-.407.426-.205 2.238 1.101 1.415q-.196-.662-.304-1.398Z"/><path fill="#E0EDFF" stroke="#F58220" stroke-miterlimit="10" stroke-width="1.125" d="M295.867 97.169c0 1.117-.354 3.599-.977 5.333-.462 1.288-1.653 3.111-2.735 3.736-1.083.625-2.151.106-2.735-.577-.742-.866-.977-3.088-.977-4.206 0-1.137.391-2.453 1.087-3.66.696-1.205 1.64-2.201 2.625-2.77.984-.568 1.929-.662 2.625-.26s1.087 1.267 1.087 2.404Z"/><path fill="#F58220" stroke="#F58220" stroke-linejoin="round" stroke-width="1.125" d="M295.675 98.687c-.174-1.603-1.604-3.045-3.202-2.122l-.264-1.26.495 1.142c0 3.088-3.965 4.552-4.13 6.687l-.064-.036a13 13 0 0 1-.131-1.721c0-2.368 1.725-5.21 3.775-6.394.992-.575 1.944-.676 2.651-.282s1.111 1.253 1.125 2.389q-.029.902-.209 1.867z"/><path stroke="#3E74FF" stroke-miterlimit="10" stroke-width="1.125" d="M292.136 115.768c5.932-3.425 10.741-11.754 10.741-18.604s-4.809-9.626-10.741-6.201-10.741 11.754-10.741 18.604 4.809 9.626 10.741 6.201Z"/><path stroke="#F58220" stroke-width="2.25" d="M243.134 49.421v9.12"/><path fill="url(#paint17_linear_0_1)" stroke="#3E74FF" stroke-miterlimit="10" stroke-width="1.125" d="M232.574 56.731v2.475L269.472 37.9v-2.475z"/><path fill="#E0EDFF" stroke="#3E74FF" stroke-miterlimit="10" stroke-width="1.125" d="M271.733 21.184 230.312 45.1v12.587l41.421-23.915z"/><path fill="url(#paint18_linear_0_1)" d="M269.554 32.511V24.96l-37.061 21.398v7.552z"/><path fill="#E0EDFF" d="m238.449 44.673-3.949 2.28v3.908l3.949-2.28zm5.077-2.931-2.82 1.629v3.908l2.82-1.628zm5.643-3.257-3.385 1.954v3.909l3.385-1.954zm5.077-2.931-2.821 1.628v3.909l2.821-1.629z"/><path fill="url(#paint19_linear_0_1)" stroke="#3E74FF" stroke-miterlimit="10" stroke-width="1.125" d="m272.623 16.762-14.103 8.143v16.937l14.103-8.143z"/><path fill="#E0EDFF" d="m271.626 29.118-4.413 2.548v2.912l4.413-2.548zm-6.935.729-4.413 2.548v2.912l4.413-2.548zm6.62-7.097-4.413 2.547v2.912l4.413-2.548zm-2.207-1.638-4.413 2.547v2.912l4.413-2.548z"/><path fill="#3E74FF" stroke="url(#paint20_linear_0_1)" stroke-width=".375" d="M269.592 23.522v.187l.162-.094 1.794-1.036.348.201v2.916l-.348.604-1.795 1.051-.161.094v2.421l.162-.093 1.794-1.036.348.2v2.916l-.348.603-9.087 5.247-.348-.201v-2.669l-.163.094-1.792 1.034-.348-.2v-2.916l.348-.603 1.792-1.035.163-.094v-2.422l-.163.094-1.792 1.034-.348-.2v-2.916l.348-.603 9.085-5.245.349.2zm1.58 2.345.163-.093v-2.407l-.163.093-1.861 1.075-1.864 1.076-.163.094v2.407l.163-.094zm-2.142-4.053v-.188l-.163.094-3.723 2.15-.162.094v2.422l.162-.094 3.723-2.15.163-.093zm-8.496 4.717-.162.094v2.422l.162-.093 1.86-1.074 1.864-1.076.162-.094v-2.422l-.162.094zm2.303 1.742-.162.094v2.422l.162-.094 3.723-2.15.163-.093v-2.423l-.163.094zm-2.303 4.385-.162.094v2.422l.162-.094 1.86-1.073 1.864-1.076.162-.094v-2.422l-.162.093zm2.141 4.085v.188l.162-.094 3.723-2.15.163-.093V32.17l-.163.094-3.723 2.15-.162.094zm8.497-4.718.163-.094v-2.422l-.163.093-1.861 1.075-1.864 1.076-.163.094v2.422l.163-.093zm-2.302-1.742.162-.094v-.187l-.002-2.046v-.187l-.163.093-3.723 2.15-.162.094v2.422l.162-.094z"/><path stroke="#757575" stroke-linecap="round" stroke-linejoin="bevel" stroke-width="3" d="M292.144 81.958c0-12.4 8.705-27.477 19.443-33.677l65.921-38.06c1.583-.913 2.867-.172 2.867 1.656"/><path stroke="#269B7F" stroke-linecap="round" stroke-linejoin="bevel" stroke-width="3" d="M336.321 127.43V62.309c0-13.255 9.306-29.373 20.785-36l25.789-14.89c.478-.275.865-.946.865-1.497M164.025 85.884V75.53c0-4.906-3.445-6.895-7.694-4.442-4.249 2.454-7.694.465-7.694-4.442v-181.535c0-13.254 9.306-29.372 20.785-36l144.305-83.314"/></g><path stroke="url(#paint21_linear_0_1)" stroke-width="2.25" d="M357.752 2.967 232.914 75.042v110.203l124.838-72.075z"/><defs><linearGradient id="paint0_linear_0_1" x1="57.177" x2="194.353" y1="46.199" y2="283.796" gradientUnits="userSpaceOnUse"><stop stop-color="#FBAD41" stop-opacity=".25"/><stop offset="0" stop-color="#FBAD41" stop-opacity=".58"/><stop offset=".354" stop-color="#F6821F"/><stop offset=".679" stop-color="#F63"/><stop offset="1" stop-color="#CE2F55"/></linearGradient><linearGradient id="paint1_linear_0_1" x1="123.002" x2="183.64" y1="30.907" y2="135.934" gradientUnits="userSpaceOnUse"><stop stop-color="#F0F6FF"/><stop offset="1" stop-color="#fff"/></linearGradient><linearGradient id="paint2_linear_0_1" x1="178.979" x2="209.033" y1="181.652" y2="233.706" gradientUnits="userSpaceOnUse"><stop stop-color="#F0F6FF"/><stop offset="1" stop-color="#fff"/></linearGradient><linearGradient id="paint3_linear_0_1" x1="73.465" x2="70.371" y1="86.548" y2="95.829" gradientUnits="userSpaceOnUse"><stop stop-color="#F0F6FF"/><stop offset="1" stop-color="#fff"/></linearGradient><linearGradient id="paint4_linear_0_1" x1="51.248" x2="167.379" y1="70.325" y2="60.694" gradientUnits="userSpaceOnUse"><stop stop-color="#911475"/><stop offset="1" stop-color="#CE2F55"/></linearGradient><linearGradient id="paint5_linear_0_1" x1="133.74" x2="250.214" y1="48.477" y2="124.219" gradientUnits="userSpaceOnUse"><stop stop-color="#E0EDFF"/><stop offset="1" stop-color="#fff"/></linearGradient><linearGradient id="paint6_linear_0_1" x1="161.766" x2="202.006" y1="118.653" y2="118.651" gradientUnits="userSpaceOnUse"><stop stop-color="#F0F6FF"/><stop offset="1" stop-color="#fff"/></linearGradient><linearGradient id="paint7_linear_0_1" x1="202.519" x2="161.25" y1="86.856" y2="86.856" gradientUnits="userSpaceOnUse"><stop stop-color="#F0F6FF"/><stop offset="1" stop-color="#fff"/></linearGradient><linearGradient id="paint8_linear_0_1" x1="147.229" x2="270.23" y1="73.752" y2="56.727" gradientUnits="userSpaceOnUse"><stop stop-color="#911475"/><stop offset="1" stop-color="#CE2F55"/></linearGradient><linearGradient id="paint9_linear_0_1" x1="290.432" x2="343.72" y1="39.294" y2="131.59" gradientUnits="userSpaceOnUse"><stop stop-color="#F0F6FF"/><stop offset="1" stop-color="#fff"/></linearGradient><linearGradient id="paint10_linear_0_1" x1="311.279" x2="327.7" y1="-34.134" y2="-5.692" gradientUnits="userSpaceOnUse"><stop stop-color="#F0F6FF"/><stop offset="1" stop-color="#fff"/></linearGradient><linearGradient id="paint11_linear_0_1" x1="328.062" x2="352.225" y1="-61.497" y2="-19.645" gradientUnits="userSpaceOnUse"><stop stop-color="#F0F6FF"/><stop offset="1" stop-color="#fff"/></linearGradient><linearGradient id="paint12_linear_0_1" x1="336.268" x2="337.274" y1="163.216" y2="164.958" gradientUnits="userSpaceOnUse"><stop stop-color="#F0F6FF"/><stop offset="1" stop-color="#fff"/></linearGradient><linearGradient id="paint13_linear_0_1" x1="336.295" x2="347.763" y1="134.96" y2="154.823" gradientUnits="userSpaceOnUse"><stop stop-color="#F0F6FF"/><stop offset="1" stop-color="#fff"/></linearGradient><linearGradient id="paint14_linear_0_1" x1="292.086" x2="293.172" y1="120.268" y2="122.148" gradientUnits="userSpaceOnUse"><stop stop-color="#F0F6FF"/><stop offset="1" stop-color="#fff"/></linearGradient><linearGradient id="paint15_linear_0_1" x1="292.117" x2="304.496" y1="89.767" y2="111.208" gradientUnits="userSpaceOnUse"><stop stop-color="#F0F6FF"/><stop offset="1" stop-color="#fff"/></linearGradient><linearGradient id="paint16_linear_0_1" x1="292.136" x2="302.877" y1="90.963" y2="109.567" gradientUnits="userSpaceOnUse"><stop stop-color="#F0F6FF"/><stop offset="1" stop-color="#fff"/></linearGradient><linearGradient id="paint17_linear_0_1" x1="232.574" x2="269.473" y1="57.968" y2="57.967" gradientUnits="userSpaceOnUse"><stop stop-color="#F0F6FF"/><stop offset="1" stop-color="#fff"/></linearGradient><linearGradient id="paint18_linear_0_1" x1="269.554" x2="232.493" y1="28.735" y2="28.735" gradientUnits="userSpaceOnUse"><stop stop-color="#F0F6FF"/><stop offset="1" stop-color="#fff"/></linearGradient><linearGradient id="paint19_linear_0_1" x1="265.571" x2="272.905" y1="20.833" y2="33.536" gradientUnits="userSpaceOnUse"><stop stop-color="#F0F6FF"/><stop offset="1" stop-color="#fff"/></linearGradient><linearGradient id="paint20_linear_0_1" x1="265.853" x2="271.616" y1="22.624" y2="32.605" gradientUnits="userSpaceOnUse"><stop stop-color="#F0F6FF"/><stop offset="1" stop-color="#fff"/></linearGradient><linearGradient id="paint21_linear_0_1" x1="213.216" x2="347.834" y1="71.182" y2="37.166" gradientUnits="userSpaceOnUse"><stop stop-color="#911475"/><stop offset="1" stop-color="#CE2F55"/></linearGradient></defs></svg>