<svg xmlns="http://www.w3.org/2000/svg" viewBox="0 0 16 16"><defs><linearGradient id="a" x1="133.689" x2="136.588" y1="120.645" y2="117.747" gradientTransform="scale(1 -1)rotate(23.966 371.202 -244.832)" gradientUnits="userSpaceOnUse"><stop offset="0" stop-color="#919191"/><stop offset="1" stop-color="#fff"/></linearGradient><linearGradient id="b" x1="132.599" x2="134.354" y1="118.434" y2="116.679" gradientTransform="scale(1 -1)rotate(23.966 371.202 -244.832)" gradientUnits="userSpaceOnUse"><stop offset="0" stop-color="#900"/><stop offset="1" stop-color="#e80000"/></linearGradient><style>.f{isolation:isolate;fill:#fff;opacity:.5}</style></defs><path d="M8.492.558a.2.2 0 0 0-.001.09 2.5 2.5 0 0 1-.013.909L3.904 13.45a1.702 1.702 0 0 0 3.177 1.222L11.656 2.78a3.1 3.1 0 0 1 .6-.683.2.2 0 0 0 .06-.068l.001-.004.008-.015c.118-.307-.643-.885-1.7-1.291S8.616.23 8.498.538l-.004.015Z" style="opacity:.3;isolation:isolate"/><path d="M8.36.457a.2.2 0 0 0-.001.09 2.5 2.5 0 0 1-.013.909L3.77 13.35a1.702 1.702 0 0 0 3.178 1.222l4.575-11.894a3.1 3.1 0 0 1 .6-.684.2.2 0 0 0 .059-.067l.002-.005.007-.014c.118-.307-.642-.885-1.699-1.291S8.484.128 8.366.436l-.005.015Z" style="fill:url(#a)"/><path d="m9.795 5.838-3.299 8.578h.002a1.23 1.23 0 0 1-1.58.694 1.26 1.26 0 0 1-.736-1.584L6.29 8.045a2.4 2.4 0 0 1 .78-.727 14 14 0 0 1 1.517-.493 4.5 4.5 0 0 0 1.208-.987" style="fill:url(#b)"/><ellipse cx="10.268" cy="1.203" rx=".335" ry="1.272" style="fill:#333" transform="rotate(-68.96 10.268 1.203)"/><path d="M8.359.546a2.6 2.6 0 0 1-.013.91L3.77 13.35a1.702 1.702 0 0 0 1.444 2.292 1.7 1.7 0 0 1-.57-1.956L9.127 2.027a2.9 2.9 0 0 1-.77-1.48" style="opacity:.3;isolation:isolate;fill:#fff"/><circle cx="6.886" cy="8.22" r=".133" class="f"/><circle cx="7.755" cy="9.181" r=".2" class="f"/><circle cx="6.428" cy="10.323" r=".375" class="f"/><circle cx="5.822" cy="11.017" r=".2" class="f"/><circle cx="6.617" cy="12.499" r=".133" class="f"/></svg>