<svg xmlns="http://www.w3.org/2000/svg" viewBox="0 0 16 16"><path d="M.25.25h15.5v15.5H.25z" style="fill:#389ed8"/><path d="M1.438 11.959V4.565h1.086l2.596 6.217 2.557-6.217h1.097v7.394H7.93V6.213l-2.39 5.746h-.802L2.334 6.213v5.746zM12.175 8.931l2.326-2.311h-1.103l-2.369 2.344V4.565h-.889v7.394h.889V9.97l.501-.473 1.969 2.462h1.063z" style="fill:#3598d4"/><path d="M1.438 11.435V4.041h1.086l2.596 6.217 2.557-6.217h1.097v7.394H7.93V5.688l-2.39 5.747h-.802L2.334 5.688v5.747zM12.175 8.406l2.326-2.311h-1.103L11.029 8.44V4.041h-.889v7.394h.889v-1.99l.501-.473 1.969 2.463h1.063z" style="fill:#fff"/></svg>