<svg xmlns="http://www.w3.org/2000/svg" xmlns:xlink="http://www.w3.org/1999/xlink" viewBox="0 0 16 16"><defs><linearGradient id="a" x1=".836" x2="15.164" y1="10" y2="10" gradientTransform="matrix(1 0 0 -1 0 18)" gradientUnits="userSpaceOnUse"><stop offset="0" stop-color="#00cfce"/><stop offset="1" stop-color="#00c0de"/></linearGradient><linearGradient id="b" x1="1.856" x2="7.221" y1="13.872" y2="13.872" gradientTransform="matrix(1 0 0 -1 0 18)" gradientUnits="userSpaceOnUse"><stop offset="0" stop-color="#00cfce"/><stop offset="1" stop-color="#00c8d4"/></linearGradient><linearGradient xlink:href="#b" id="c" x1="2.795" x2="6.547" y1="12.222" y2="12.222"/><linearGradient id="d" x1=".836" x2="8.307" y1="5.344" y2="5.344" gradientTransform="matrix(1 0 0 -1 0 18)" gradientUnits="userSpaceOnUse"><stop offset="0" stop-color="#00a2ce"/><stop offset="1" stop-color="#00a4ce"/></linearGradient><style>.d{fill:#50dad4}</style></defs><path d="M14.147 1.623C12.888.364 10.587.25 9.546.25H.844v.01a4.8 4.8 0 0 0 1.222 1.357 6.4 6.4 0 0 0 3.108.873c.317.017.57.036.784.066a1.8 1.8 0 0 1 1.07.47 4.5 4.5 0 0 1 .97 1.12c.242.422.2.892.76 1.187s.692.006.77-.157-.204-.295-.451-.482a1.46 1.46 0 0 1-.482-.686c-.07-.173-.157-.428-.157-.428s.574-.104.94-.156a2.45 2.45 0 0 1 1.475.21 3.5 3.5 0 0 0 1.355.85 2.35 2.35 0 0 1 1.199.53.9.9 0 0 1 .265.445s-.548-.055-.88-.072a14 14 0 0 1-1.463-.15c-.567-.108-.74-.145-.74-.145a1.38 1.38 0 0 1-.157 1.253 2.63 2.63 0 0 1-2.048.981c-.795.024-1.542-.391-2.126-.343s-1.222-.241-1.885 1.325a30 30 0 0 0-1.026 3.242c-.151.54-.29 1.025-.414 1.377l-.001.01a.3.3 0 0 1-.022.092q-.047.102-.095.201v.002q-.03.068-.06.12a5.46 5.46 0 0 1-1.351 1.893c-.421.29-.837.446-.343.488a20.3 20.3 0 0 0 3.613-.175 3.25 3.25 0 0 0 1.837-1.56 19 19 0 0 0 1.066-2.987 4.8 4.8 0 0 1 .563-1.219l.171-.232-.004.003.003-.004c.177-.168.278-.27.278-.27.187-.108 1.807-.355 2.578-.578a6.77 6.77 0 0 0 3.204-1.885 4.21 4.21 0 0 0-.223-5.203" style="fill:url(#a)"/><path d="M7.221 5.393a2.13 2.13 0 0 0-1.367-1.41c-1.192-.487-1.674-.18-2.794-.602a5.6 5.6 0 0 1-1.204-.517s.03.059.09.155a3.6 3.6 0 0 0 1.644 1.41 4.1 4.1 0 0 0 1.66.302 3.7 3.7 0 0 1 .888.138c.915.257 1.083.524 1.083.524" style="fill:url(#b)"/><path d="M4.3 5.574a2.44 2.44 0 0 1-1.505-.585 1 1 0 0 0 .046.162 1.8 1.8 0 0 0 1.08 1.097 3.8 3.8 0 0 0 1.826.077 1 1 0 0 1 .12.013c.553.09.68.23.68.23s-.187-.717-.741-.856a6.4 6.4 0 0 0-1.505-.138" style="fill:url(#c)"/><path d="M2.932 12.937a13 13 0 0 0 2.838-1.335 19.4 19.4 0 0 0 2.534-2.037 20.6 20.6 0 0 1-3.076 1.519 18 18 0 0 1-1.88.466c-.152.54-.291 1.025-.415 1.378Z" class="d"/><path d="M8.304 9.565a19.4 19.4 0 0 1-2.534 2.037 13 13 0 0 1-2.838 1.335.3.3 0 0 1-.023.092q-.046.102-.094.202v.002a2 2 0 0 1-.06.12 5.46 5.46 0 0 1-1.351 1.892c-.422.29-.837.446-.343.488a20.3 20.3 0 0 0 3.613-.175 3.25 3.25 0 0 0 1.837-1.56 19 19 0 0 0 1.066-2.987 4.8 4.8 0 0 1 .563-1.218q.087-.132.167-.23Z" style="fill:url(#d)"/><path d="M.844.25v.01a4.8 4.8 0 0 0 1.222 1.357 6.4 6.4 0 0 0 3.108.873c.317.017.57.036.784.066a22 22 0 0 1-2.525-.716A10.3 10.3 0 0 1 .843.25M2.84 5.15a1.8 1.8 0 0 0 1.08 1.098 3.8 3.8 0 0 0 1.827.077 7 7 0 0 0-.658-.203 10.3 10.3 0 0 1-2.248-.971M1.946 3.019a3.6 3.6 0 0 0 1.644 1.41 4.1 4.1 0 0 0 1.66.302 49 49 0 0 0-1.178-.464 11.7 11.7 0 0 1-2.126-1.248" class="d"/></svg>