<svg xmlns="http://www.w3.org/2000/svg" viewBox="0 0 16 16"><path fill="#e05c43" d="M8 .25A7.75 7.75 0 0 1 15.75 8 7.75 7.75 0 0 1 8 15.75 7.75 7.75 0 0 1 .25 8 7.75 7.75 0 0 1 8 .25"/><path fill="#fff" fill-rule="evenodd" d="M6.625 7.817c.059-2.33 1.587-3.349 2.116-2.839s.333 1.605-.666 2.291-1.45.548-1.45.548m1.45 2.371c-1.357.034-1.215-.858-1.215-.858s5.054-1.781 3.6-5.045a2.37 2.37 0 0 0-2.307-1.113c-1 .019-2.229.628-3.032 2.431A8 8 0 0 0 4.53 7.9a1.9 1.9 0 0 1-1.348-.22c-.47-.391-.717 0-.717 0s-.809.947-.006 1.261a8 8 0 0 0 2.054.377 2.98 2.98 0 0 0 1.428 2.306c1.726 1.123 4.289-.063 4.289-.063a8.55 8.55 0 0 0 2.99-2.12.4.4 0 0 0-.01-.544l-.5-.519a.4.4 0 0 0-.541-.032 7.46 7.46 0 0 1-4.094 1.842"/></svg>