<svg xmlns="http://www.w3.org/2000/svg" viewBox="0 0 16 16"><defs><style>.a{fill:#070809}</style></defs><path d="M15.358 9.469a7.79 7.79 0 0 1-4.492 5.42c-.276.123-.395.258-.342.548.042.23-.031.315-.29.313q-2.233-.02-4.467-.002c-.235.002-.353-.045-.302-.298.061-.31-.084-.442-.366-.574A7.86 7.86 0 0 1 .415 7.998c-.01-.121-.03-.242.154-.247.092-.002.086-.079.081-.145a1.25 1.25 0 0 1 .285-.88.174.174 0 0 0 .032-.215 1 1 0 0 1-.054-.19c-.208-.737.483-1.062.454-1.33a1.224 1.224 0 0 1 .771-1.266c.155-.06.15-.142.155-.264a1.14 1.14 0 0 1 1.215-1.246c.175-.008.21-.088.262-.214a1.095 1.095 0 0 1 1.17-.75.32.32 0 0 0 .338-.186A1.11 1.11 0 0 1 6.756.632c.092.039.18.142.274.019a1 1 0 0 1 .507-.338.9.9 0 0 1 .59-.024 1.02 1.02 0 0 1 .596.36c.073.097.149.042.24.006a1.11 1.11 0 0 1 1.514.405l.02.035a.3.3 0 0 0 .315.155 1.11 1.11 0 0 1 1.186.784.23.23 0 0 0 .244.179 1.15 1.15 0 0 1 1.222 1.242c.005.097-.043.205.108.256a1.12 1.12 0 0 1 .823 1.086c.02.51.616.804.477 1.36a1 1 0 0 1-.026.154c-.06.133-.006.214.093.304a1.16 1.16 0 0 1 .395.99c-.019.221.094.238.257.224a8.5 8.5 0 0 1-.233 1.64M8.018 8.23H1.812c-.968 0-.968 0-.778.94a7.266 7.266 0 0 0 6.759 5.853 7.27 7.27 0 0 0 7.259-6.389c.038-.322.002-.416-.353-.413-2.227.018-4.454.009-6.68.009m-.021-.472h6.486c.415 0 .502-.136.342-.524a.67.67 0 0 0-.339-.37c-.23-.105-.26-.25-.151-.475a.67.67 0 0 0-.19-.887.495.495 0 0 1-.217-.53.683.683 0 0 0-.666-.842c-.375-.019-.418-.155-.297-.474a.69.69 0 0 0-.188-.797.64.64 0 0 0-.733-.126c-.323.14-.411.017-.431-.306a.686.686 0 0 0-.962-.661c-.295.103-.383.024-.469-.257a.677.677 0 0 0-1.18-.293c-.206.191-.328.207-.488-.052a.684.684 0 0 0-1.272-.002c-.137.222-.25.267-.458.084-.521-.457-1.01-.325-1.23.338-.07.212-.166.268-.374.213-.663-.178-.974.029-1.04.706-.025.243-.117.356-.35.256a.694.694 0 0 0-.837.126.74.74 0 0 0-.14.843c.092.239.048.368-.238.397-.59.06-.806.329-.74.923a.39.39 0 0 1-.193.423.635.635 0 0 0-.246.835.52.52 0 0 1-.077.73 1 1 0 0 1-.055.038.51.51 0 0 0-.132.585c.081.197.303.093.459.094 2.135.007 4.27.005 6.406.005" class="a"/><path d="M8.018 8.23c2.227 0 4.454.01 6.681-.01.355-.002.391.092.353.414a7.27 7.27 0 0 1-7.26 6.389A7.266 7.266 0 0 1 1.035 9.17c-.19-.94-.19-.94.778-.94Z" style="fill:#008ffd"/><path d="M14.825 7.234a.67.67 0 0 0-.339-.37c-.23-.105-.26-.251-.151-.476a.67.67 0 0 0-.19-.886.495.495 0 0 1-.217-.53.683.683 0 0 0-.666-.842c-.375-.019-.418-.155-.297-.474a.69.69 0 0 0-.188-.797.64.64 0 0 0-.733-.126c-.323.14-.411.016-.431-.307a.686.686 0 0 0-.962-.66c-.295.103-.383.024-.469-.257a.677.677 0 0 0-1.18-.293c-.206.191-.328.207-.488-.052a.684.684 0 0 0-1.272-.002c-.137.222-.25.267-.458.084-.521-.457-1.01-.325-1.23.337-.07.213-.166.27-.374.213-.663-.178-.974.03-1.04.707-.025.243-.117.355-.35.256a.694.694 0 0 0-.837.126.74.74 0 0 0-.14.843c.092.239.048.368-.238.397-.59.06-.806.328-.74.923a.39.39 0 0 1-.193.423.635.635 0 0 0-.246.835.52.52 0 0 1-.077.73 1 1 0 0 1-.055.038c-.17.14-.272.422-.132.585.084.098.303.093.459.094 2.135.006 4.27.004 6.406.004h6.487c.414 0 .5-.136.34-.523" style="fill:#fcfcfc"/><circle cx="4.78" cy="4.368" r=".216" class="a"/><circle cx="3.865" cy="5.584" r=".216" class="a"/><circle cx="4.78" cy="6.555" r=".216" class="a"/><circle cx="5.701" cy="4.61" r=".216" class="a"/><circle cx="11.209" cy="5.583" r=".216" class="a"/></svg>