<svg xmlns="http://www.w3.org/2000/svg" viewBox="0 0 16 16"><defs><style>.a{fill:#dd0031;}.b{fill:#c3002f;}.c{fill:#fff;}</style></defs><polygon class="a" points="8 0.255 8 0.255 8 0.255 0.785 2.828 1.885 12.368 8 15.755 8 15.755 8 15.755 14.115 12.368 15.215 2.828 8 0.255"/><polygon class="b" points="8 0.255 8 1.975 8 1.968 8 9.818 8 9.818 8 15.755 8 15.755 14.115 12.368 15.215 2.828 8 0.255"/><path class="c" d="M8,1.9676,3.49,12.0814H5.1712l.9068-2.263H9.9065l.9068,2.263H12.495L8,1.9676ZM9.3175,8.4234H6.6825L8,5.2536Z"/></svg>