<svg xmlns="http://www.w3.org/2000/svg" viewBox="0 0 16 16"><path d="M5.509 9.069a.73.73 0 0 1-.176-.524 2.3 2.3 0 0 1 .087-.63 2 2 0 0 1 .234-.545 1.3 1.3 0 0 1 .353-.379.76.76 0 0 1 .437-.141.58.58 0 0 1 .455.19.72.72 0 0 1 .172.5 2.3 2.3 0 0 1-.087.616 2.2 2.2 0 0 1-.233.552 1.4 1.4 0 0 1-.352.396.7.7 0 0 1-.43.152.6.6 0 0 1-.46-.187m.016-2.593a2 2 0 0 0-.593.51 2.4 2.4 0 0 0-.383.727 2.7 2.7 0 0 0-.134.845 1.5 1.5 0 0 0 .082.507 1.2 1.2 0 0 0 .238.4 1.1 1.1 0 0 0 .372.262 1.2 1.2 0 0 0 .486.093 1.2 1.2 0 0 0 .627-.166 1.7 1.7 0 0 0 .49-.427q0 .593.731.592a1.5 1.5 0 0 0 .293-.028q.135-.027.273-.061l.138-.51a1 1 0 0 1-.13.038 1 1 0 0 1-.125.01.192.192 0 0 1-.213-.22 1.3 1.3 0 0 1 .054-.307q.056-.196.124-.451l.525-1.985a1.3 1.3 0 0 1-.249.051 3 3 0 0 1-.33.018h-.346l-.18.648a.95.95 0 0 0-.344-.545 1.05 1.05 0 0 0-.648-.193 1.5 1.5 0 0 0-.758.192m7.96 2.713a.7.7 0 0 1-.2-.152.6.6 0 0 1-.125-.217.8.8 0 0 1-.041-.255 2.5 2.5 0 0 1 .08-.618 2.1 2.1 0 0 1 .223-.551A1.4 1.4 0 0 1 13.764 7a.7.7 0 0 1 .43-.152.6.6 0 0 1 .455.186.77.77 0 0 1 .18.523 2.4 2.4 0 0 1-.083.631 2 2 0 0 1-.23.541 1.3 1.3 0 0 1-.346.375.7.7 0 0 1-.417.141.56.56 0 0 1-.268-.056m.5-2.76a1.7 1.7 0 0 0-.459.379l.138-.504a3 3 0 0 1-.345.048q-.22.02-.476.02h-.621l-.138.518h.393a.08.08 0 0 1 .08.045.3.3 0 0 1-.017.162l-.855 3.122a.3.3 0 0 1-.073.149.14.14 0 0 1-.093.03h-.303l-.139.518h1.82l.138-.517h-.352a.1.1 0 0 1-.08-.031q-.023-.03.01-.149l.304-1.13a.96.96 0 0 0 .352.53 1.08 1.08 0 0 0 .675.2 1.5 1.5 0 0 0 .755-.186 1.8 1.8 0 0 0 .569-.497 2.3 2.3 0 0 0 .358-.714 2.9 2.9 0 0 0 .124-.844 1.6 1.6 0 0 0-.08-.513 1.2 1.2 0 0 0-.233-.414 1.1 1.1 0 0 0-.379-.273 1.3 1.3 0 0 0-.507-.096 1.15 1.15 0 0 0-.567.147m-3.455.013a1.5 1.5 0 0 0-.43.49l.172-.628a3 3 0 0 1-.345.049q-.22.02-.476.02H8.81l-.138.517h.413a.08.08 0 0 1 .08.044.3.3 0 0 1-.018.162l-.723 2.635h.923l.296-1.103q.117-.441.234-.779a3 3 0 0 1 .252-.565 1.1 1.1 0 0 1 .296-.344.62.62 0 0 1 .369-.118.4.4 0 0 1 .145.028.23.23 0 0 1 .103.077.46.46 0 0 0-.292.165.43.43 0 0 0-.107.296.41.41 0 0 0 .131.296.48.48 0 0 0 .344.117.57.57 0 0 0 .28-.072.7.7 0 0 0 .22-.193.9.9 0 0 0 .141-.279 1 1 0 0 0 .042-.338.69.69 0 0 0-.2-.473.7.7 0 0 0-.51-.183.95.95 0 0 0-.56.179m-8.436-1.31q-.224.021-.479.021h-.6l-.144.517h.358q.068 0 .083.045a.33.33 0 0 1-.021.162L.25 9.732h.917q.192-.766.382-1.307a6 6 0 0 1 .382-.886 1.7 1.7 0 0 1 .393-.502.66.66 0 0 1 .415-.16.4.4 0 0 1 .268.094.33.33 0 0 1 .11.273 1 1 0 0 1-.04.237q-.043.154-.1.342c-.058.188-.082.255-.129.392s-.089.272-.127.4-.072.248-.1.356a1 1 0 0 0-.041.258.53.53 0 0 0 .186.456.87.87 0 0 0 .523.137 2 2 0 0 0 .303-.021 1.5 1.5 0 0 0 .29-.07l.137-.51a.8.8 0 0 1-.255.05.18.18 0 0 1-.207-.2 1.4 1.4 0 0 1 .087-.36l.189-.575q.103-.314.19-.617a2 2 0 0 0 .087-.476.66.66 0 0 0-.26-.564 1.03 1.03 0 0 0-.63-.193 1.36 1.36 0 0 0-.758.214 2 2 0 0 0-.593.62l.566-2.035a3 3 0 0 1-.34.049"/></svg>