<svg xmlns="http://www.w3.org/2000/svg" viewBox="0 0 16 16"><path d="M7.226 11.727a.453.453 0 1 1-.453.453.454.454 0 0 1 .453-.453m7.12-2.808a.453.453 0 1 1 .453-.454.454.454 0 0 1-.453.454m0-1.858a1.406 1.406 0 0 0-1.404 1.404 1.4 1.4 0 0 0 .075.447l-4.638 2.469a1.4 1.4 0 0 0-2.412.18L1.8 9.364a1.83 1.83 0 0 1-.735-1.616.86.86 0 0 1 .318-.715.4.4 0 0 1 .4.017l.028.015c1.105.582 4.718 2.485 4.87 2.556a.71.71 0 0 0 .765-.037l7.47-3.885a.34.34 0 0 0 .236-.306.36.36 0 0 0-.229-.308c-.424-.203-1.077-.51-1.714-.807-1.361-.638-2.904-1.36-3.582-1.715a1.16 1.16 0 0 0-1.14.004l-.163.081c-3.05 1.508-7.13 3.53-7.363 3.67a1.66 1.66 0 0 0-.707 1.385 2.65 2.65 0 0 0 1.178 2.407l4.406 2.272a1.403 1.403 0 0 0 2.792-.18l4.852-2.63a1.404 1.404 0 1 0 .864-2.51" style="fill:#3884ff;fill-rule:evenodd"/></svg>