<svg xmlns="http://www.w3.org/2000/svg" viewBox="0 0 16 16"><path d="M.25.25h15.5v15.5H.25z" style="fill:#ffc411"/><path d="m1 3.45 7-1.4V3.1L1 4.15Z" style="fill-opacity:.44999998807907104"/><path d="m8 2.05 7 1.4v.7L8 3.1Z" style="fill:#fff"/><path d="M1 4.78v6.44l1.575.175V7.37l1.575 2.905L5.795 7.37v4.515l1.855.245V3.87l-1.995.28L4.15 7.055l-1.505-2.45Z" style="fill-opacity:.44999998807907104"/><path d="M15 4.78v6.44l-1.575.175V7.37l-1.575 2.905-1.645-2.905v4.515l-1.855.245V3.87l1.995.28 1.505 2.905 1.505-2.45Z" style="fill:#fff"/><path d="m1 12.55 7 1.4V12.9l-7-1.05Z" style="fill-opacity:.44999998807907104"/><path d="m8 13.95 7-1.4v-.7L8 12.9Z" style="fill:#fff"/></svg>