<svg xmlns="http://www.w3.org/2000/svg" viewBox="0 0 16 16"><defs><style>.a{fill:#070809;}.b{fill:#008ffd;}.c{fill:#fcfcfc;}</style></defs><path class="a" d="M15.3579,9.4686a7.7906,7.7906,0,0,1-4.4921,5.42c-.2758.1234-.3949.2588-.3421.5485.0419.2293-.0312.3151-.2891.3127q-2.2337-.0207-4.4677-.0014c-.2349.0017-.3528-.0453-.3023-.2989.0615-.3091-.0832-.4413-.3654-.5734A7.8548,7.8548,0,0,1,.4154,7.998c-.0111-.1214-.03-.2423.1539-.2468C.661,7.749.6545,7.6725.65,7.6058a1.2551,1.2551,0,0,1,.285-.88A.1737.1737,0,0,0,.967,6.5112a.8585.8585,0,0,1-.054-.1893c-.2076-.7381.4826-1.0633.4544-1.33a1.224,1.224,0,0,1,.7709-1.2673c.1551-.06.1488-.1412.1551-.2635A1.1389,1.1389,0,0,1,3.5076,2.2145c.1757-.0079.21-.0872.2626-.2132a1.0948,1.0948,0,0,1,1.17-.75.3221.3221,0,0,0,.3376-.1864A1.11,1.11,0,0,1,6.7558.6316c.0923.0392.18.1419.2741.019A1.0154,1.0154,0,0,1,7.5366.3128a.8928.8928,0,0,1,.5895-.024,1.0174,1.0174,0,0,1,.5965.36c.0736.097.1494.0424.24.006a1.1085,1.1085,0,0,1,1.5144.4054l.02.0353a.2958.2958,0,0,0,.3145.1544,1.107,1.107,0,0,1,1.186.7841.228.228,0,0,0,.2446.1786,1.1494,1.1494,0,0,1,1.2216,1.2426c.0052.0971-.0429.2052.1086.2556a1.12,1.12,0,0,1,.823,1.086c.0195.5107.6153.8042.477,1.36a.9639.9639,0,0,1-.0267.1545c-.0591.1327-.0055.214.0936.3041a1.1572,1.1572,0,0,1,.3945.9888c-.0187.222.0945.2387.2577.2245A8.5043,8.5043,0,0,1,15.3579,9.4686ZM8.0182,8.23H1.8116c-.9681,0-.9681,0-.7781.94a7.2664,7.2664,0,0,0,6.759,5.8528,7.271,7.271,0,0,0,7.2591-6.3885c.0388-.3224.0024-.4167-.3525-.4137C12.4723,8.2393,10.2452,8.23,8.0182,8.23Zm-.0215-.4725q3.2431,0,6.4861,0c.4152,0,.5018-.136.3418-.5235a.6659.6659,0,0,0-.3386-.3691c-.2295-.1059-.26-.2517-.1513-.4764a.669.669,0,0,0-.1893-.8863.4949.4949,0,0,1-.2175-.53.6827.6827,0,0,0-.6656-.8424c-.3755-.0186-.4179-.1545-.297-.4739a.6944.6944,0,0,0-.1885-.7964.6433.6433,0,0,0-.7324-.1263c-.3238.14-.4115.0165-.4315-.3066a.6857.6857,0,0,0-.9623-.6609c-.2951.1033-.3829.0244-.4682-.2562a.6774.6774,0,0,0-1.1812-.2932c-.2054.1909-.3273.2068-.4871-.0521a.6842.6842,0,0,0-1.2717-.0021c-.1376.2223-.25.2668-.4586.0839-.5213-.457-1.0106-.3245-1.23.3376-.07.2125-.166.2689-.3739.2131-.6634-.178-.9737.0289-1.0406.7061-.0241.243-.1159.3558-.35.2566a.6944.6944,0,0,0-.8359.126.7389.7389,0,0,0-.14.8428c.0919.2386.0471.3678-.2386.3972-.5893.06-.8057.3282-.739.9226a.3934.3934,0,0,1-.194.4228.6347.6347,0,0,0-.2461.8355.5188.5188,0,0,1-.0771.7295.528.528,0,0,1-.0544.0384.5116.5116,0,0,0-.1324.5852c.0812.1971.3031.093.4587.0935C3.7255,7.76,5.8611,7.7576,7.9967,7.7576Z"/><path class="b" d="M8.0182,8.23c2.227,0,4.4541.0092,6.6809-.0094.3549-.003.3913.0913.3525.4137a7.271,7.271,0,0,1-7.2591,6.3885A7.2664,7.2664,0,0,1,1.0335,9.17c-.19-.94-.19-.94.7781-.94Z"/><path class="c" d="M14.8246,7.2338a.6659.6659,0,0,0-.3386-.3691c-.2295-.1059-.26-.2517-.1513-.4764a.669.669,0,0,0-.1893-.8863.4949.4949,0,0,1-.2175-.53.6827.6827,0,0,0-.6656-.8424c-.3755-.0186-.4179-.1545-.297-.4739a.6944.6944,0,0,0-.1885-.7964.6433.6433,0,0,0-.7324-.1263c-.3238.14-.4115.0165-.4315-.3066a.6857.6857,0,0,0-.9623-.6609c-.2951.1033-.3829.0244-.4682-.2562a.6774.6774,0,0,0-1.1812-.2932c-.2054.1909-.3273.2068-.4871-.0521a.6842.6842,0,0,0-1.2717-.0021c-.1376.2223-.25.2668-.4586.0839-.5213-.457-1.0106-.3245-1.23.3376-.07.2125-.166.2689-.3739.2131-.6634-.178-.9737.0289-1.0406.7061-.0241.243-.1159.3558-.35.2566a.6944.6944,0,0,0-.8359.126.7389.7389,0,0,0-.14.8428c.0919.2386.0471.3678-.2386.3972-.5893.06-.8057.3282-.739.9226a.3934.3934,0,0,1-.194.4228.6347.6347,0,0,0-.2461.8355.5188.5188,0,0,1-.0771.7295.528.528,0,0,1-.0544.0384c-.1707.1409-.2727.4221-.1324.5852.0841.0977.3031.093.4588.0935,2.1356.0066,4.2712.0045,6.4068.0045q3.2431,0,6.4861,0C14.898,7.7572,14.9846,7.6213,14.8246,7.2338Z"/><circle class="a" cx="4.7798" cy="4.3676" r="0.2157"/><circle class="a" cx="3.8654" cy="5.5838" r="0.2157"/><circle class="a" cx="4.7803" cy="6.5548" r="0.2157"/><circle class="a" cx="5.701" cy="4.61" r="0.2157"/><circle class="a" cx="11.2094" cy="5.5827" r="0.2157"/></svg>