<svg xmlns="http://www.w3.org/2000/svg" viewBox="0 0 16 16"><path d="M15.18 3.562a1.4 1.4 0 0 1-.049.545l-2.875 9.484a.68.68 0 0 1-.337.401 1.1 1.1 0 0 1-.537.152H2.515c-.77 0-1.226-.224-1.386-.673a.44.44 0 0 1 .008-.416.43.43 0 0 1 .368-.144h8.347a1.8 1.8 0 0 0 1.234-.329 3.8 3.8 0 0 0 .689-1.474l2.635-8.7a1.36 1.36 0 0 0-.176-1.25 1.27 1.27 0 0 0-1.097-.544H5.823a3 3 0 0 0-.489.088L5.342.67a1.6 1.6 0 0 0-.456-.048.65.65 0 0 0-.345.112 1.2 1.2 0 0 0-.256.225 1.7 1.7 0 0 0-.184.304c-.064.128-.112.24-.153.344s-.088.217-.144.337a2 2 0 0 1-.16.296c-.04.048-.096.12-.16.2s-.128.16-.176.225a.5.5 0 0 0-.089.176.6.6 0 0 0 .016.256 1.2 1.2 0 0 1 .032.249 3.6 3.6 0 0 1-.264.929 4 4 0 0 1-.408.81 4 4 0 0 1-.209.215.75.75 0 0 0-.208.297c-.024.032-.024.12-.008.272a1.2 1.2 0 0 1 .024.305 3.8 3.8 0 0 1-.24.865 6 6 0 0 1-.4.88 1.4 1.4 0 0 1-.161.225.8.8 0 0 0-.16.273.8.8 0 0 0 .008.272.65.65 0 0 1-.008.288 5 5 0 0 1-.289.881 8 8 0 0 1-.432.882 2 2 0 0 1-.16.224q-.099.13-.16.224a.6.6 0 0 0-.08.2.35.35 0 0 0 .031.185.8.8 0 0 1 .032.208c-.008.088-.016.208-.04.353-.016.144-.032.232-.032.256a1.73 1.73 0 0 0 .016 1.217 2.7 2.7 0 0 0 .953 1.266 2.34 2.34 0 0 0 1.426.513h8.868a1.9 1.9 0 0 0 1.178-.417 2 2 0 0 0 .737-1.033l2.643-8.7a1.36 1.36 0 0 0-.176-1.241 1.16 1.16 0 0 0-.569-.433m-10.406 6.89 1.137-3.43h.865c.305 0 2.307-.135 2.035 1.403s-1.506 2.018-2.948 2.034-1.09-.008-1.09-.008m1.522-.481a1.85 1.85 0 0 0 1.77-1.37c.256-1.138-.921-1.074-.921-1.074h-.713l-.817 2.444c.008.008.312.008.68 0M6.03 6.117 7.13 2.713h.785l.064 2.724 1.89-2.724h.793L9.572 6.117h-.569l1.002-2.835-1.963 2.835h-.545l-.064-2.803-.865 2.803Z" style="fill:#333"/></svg>