<svg xmlns="http://www.w3.org/2000/svg" viewBox="0 0 16 16"><path d="M13.627 2.3A4.73 4.73 0 0 0 7.289.94L3.68 3.24a4.14 4.14 0 0 0-1.871 2.774 4.36 4.36 0 0 0 .43 2.8 4.2 4.2 0 0 0-.62 1.548 4.41 4.41 0 0 0 .754 3.337A4.73 4.73 0 0 0 8.71 15.06l3.61-2.3a4.14 4.14 0 0 0 1.871-2.774 4.36 4.36 0 0 0-.43-2.8 4.2 4.2 0 0 0 .62-1.548 4.41 4.41 0 0 0-.755-3.337" style="fill:#ff3e00"/><path d="M6.937 13.893a2.87 2.87 0 0 1-3.078-1.14 2.65 2.65 0 0 1-.453-2.008 3 3 0 0 1 .086-.337l.068-.207.185.136a4.7 4.7 0 0 0 1.412.705l.134.04-.012.135a.8.8 0 0 0 .145.537.86.86 0 0 0 .927.343.8.8 0 0 0 .222-.097l3.61-2.3a.75.75 0 0 0 .339-.502.8.8 0 0 0-.137-.606.86.86 0 0 0-.927-.344.8.8 0 0 0-.221.097l-1.378.878a2.6 2.6 0 0 1-.733.322 2.87 2.87 0 0 1-3.077-1.14 2.65 2.65 0 0 1-.454-2.007A2.5 2.5 0 0 1 4.72 4.73l3.61-2.3a2.6 2.6 0 0 1 .733-.322 2.87 2.87 0 0 1 3.077 1.14 2.65 2.65 0 0 1 .454 2.008 3 3 0 0 1-.086.337l-.068.207-.185-.136a4.7 4.7 0 0 0-1.412-.706l-.135-.04.013-.134a.8.8 0 0 0-.146-.537.86.86 0 0 0-.926-.344.8.8 0 0 0-.222.097l-3.61 2.3a.75.75 0 0 0-.338.502.8.8 0 0 0 .136.605.86.86 0 0 0 .927.344.8.8 0 0 0 .222-.097l1.377-.877a2.6 2.6 0 0 1 .733-.323 2.87 2.87 0 0 1 3.077 1.141 2.65 2.65 0 0 1 .454 2.007 2.5 2.5 0 0 1-1.125 1.668l-3.61 2.3a2.6 2.6 0 0 1-.733.322" style="fill:#fff"/></svg>