<svg xmlns="http://www.w3.org/2000/svg" viewBox="0 0 16 16"><path d="M7.492.253c-.033.003-.139.014-.234.021a7.77 7.77 0 0 0-5.57 3.212A7.7 7.7 0 0 0 .32 6.873 6 6 0 0 0 .25 8 6 6 0 0 0 .32 9.13a7.78 7.78 0 0 0 5.302 6.262 8.2 8.2 0 0 0 1.636.34 14 14 0 0 0 1.485 0 7.8 7.8 0 0 0 2.792-.817c.133-.068.16-.086.141-.102-.012-.009-.58-.77-1.262-1.692l-1.24-1.674-1.553-2.298a222 222 0 0 0-1.563-2.297c-.006-.002-.012 1.02-.016 2.266a18 18 0 0 1-.033 2.323.28.28 0 0 1-.133.138c-.049.024-.091.029-.32.029h-.262l-.07-.044a.3.3 0 0 1-.102-.111l-.031-.068.003-3.038.004-3.04.047-.059a.4.4 0 0 1 .112-.092c.062-.03.087-.033.349-.033.309 0 .36.012.44.1.023.024.864 1.29 1.87 2.816s2.382 3.61 3.058 4.632l1.227 1.859.063-.04a8 8 0 0 0 1.592-1.398A7.7 7.7 0 0 0 15.68 9.13a6 6 0 0 0 .07-1.129 6 6 0 0 0-.07-1.129A7.78 7.78 0 0 0 10.379.611 8 8 0 0 0 8.765.273a20 20 0 0 0-1.273-.02m3.173 4.688a.3.3 0 0 1 .153.179c.012.04.015.881.012 2.78l-.004 2.724-.48-.736-.482-.737v-1.98c0-1.28.006-2 .015-2.035a.3.3 0 0 1 .15-.19c.062-.032.085-.035.323-.035.224 0 .264.003.314.03Z"/></svg>