<svg xmlns="http://www.w3.org/2000/svg" xmlns:xlink="http://www.w3.org/1999/xlink" width="179" height="179"><defs><path id="a" d="M32.99 0v94.238L26 98.274l6.957 4.017v.005l-6.967-4.022-11.488 6.632-.004-.003-.008.005a3 3 0 0 1-3 0L1.5 99.14A3 3 0 0 1 0 96.542V85.006a3 3 0 0 1 1.5-2.598l5.072-2.929-.018-.01v-7.411L1.5 69.14A3 3 0 0 1 0 66.542V55.006a3 3 0 0 1 1.5-2.598l11.49-6.634V0l7 4.042a6 6 0 0 0 1.921.706V53.6a.3.3 0 0 0 .1.223l.051.038.708.406a.3.3 0 0 0 .243.025l.058-.026.692-.405a.3.3 0 0 0 .142-.196l.007-.063V4.775a6 6 0 0 0 2.078-.733z"/><path id="f" d="m36 17.866 16.486 9.518a3 3 0 0 1 1.5 2.598v19.036a3 3 0 0 1-1.5 2.598L36 61.134a3 3 0 0 1-3 0l-16.486-9.518a3 3 0 0 1-1.5-2.598V29.982a3 3 0 0 1 1.5-2.598L33 17.866a3 3 0 0 1 3 0"/><path id="h" d="M37.641.804 66.282 17.34a6 6 0 0 1 3 5.196v33.072a6 6 0 0 1-3 5.196L37.641 77.34a6 6 0 0 1-6 0L3 60.804a6 6 0 0 1-3-5.196V22.536a6 6 0 0 1 3-5.196L31.641.804a6 6 0 0 1 6 0M15.249 29.653l16.567 8.452a6 6 0 0 1 3.273 5.42l-.22 17.615a3 3 0 0 1-1.633-.399L16.75 51.223a3 3 0 0 1-1.5-2.598z"/><path id="m" d="m34.641 78.904.447-35.377a6 6 0 0 0-3.276-5.424L-1.404 21.16q-10.872-5.544.504.265.583-1.885 1.048-2.62.466-.734 2.215-1.415l32.09-19.906 33.053 20.39a6 6 0 0 1 2.844 4.843l1.575 35.795-19.733 11.392-.742.428-13.955 8.056q-.774.471-2.173.516t-.681 0"/><radialGradient id="c" cx="-13.862" cy="2.23" r="207.882" fx="-13.862" fy="2.23" gradientTransform="scale(.30951 3.2309)" gradientUnits="userSpaceOnUse"><stop offset="0%" stop-color="#7AE8FF"/><stop offset="27.405%" stop-color="#F4FBFF"/><stop offset="34.795%" stop-color="#F1F9FD" stop-opacity=".997"/><stop offset="46.505%" stop-color="#004C5B" stop-opacity=".725"/><stop offset="54.494%" stop-color="#003C48" stop-opacity=".693"/><stop offset="69.528%" stop-color="#00B4D8" stop-opacity=".934"/><stop offset="85.589%" stop-color="#0AC" stop-opacity=".914"/><stop offset="100%" stop-opacity=".572"/></radialGradient><radialGradient id="e" cx="27.927" cy="42.533" r="25.7" fx="27.927" fy="42.533" gradientTransform="scale(.94035 1.06343)" gradientUnits="userSpaceOnUse"><stop offset="0%" stop-color="#FFF"/><stop offset="100%" stop-color="#C6ECFF"/></radialGradient><radialGradient id="i" cx="34.763" cy="36.79" r="83.534" fx="34.763" fy="36.79" gradientTransform="scale(.9416 1.06203)" gradientUnits="userSpaceOnUse"><stop offset="0%" stop-color="#151515"/><stop offset="7.1%" stop-color="#0073AC"/><stop offset="27.857%" stop-color="#08C"/><stop offset="44.986%" stop-color="#04334A"/><stop offset="49.068%" stop-color="#06577F"/><stop offset="56.174%" stop-color="#056290"/><stop offset="72.042%" stop-color="#006BA0"/><stop offset="92.803%" stop-color="#00ABFF"/><stop offset="100%" stop-color="#00ABFF"/></radialGradient><filter id="g" width="1.013" height="1.016" x="0" y="0" filterUnits="objectBoundingBox"><feOffset dx=".5" in="SourceAlpha" result="shadowOffsetInner1"/><feComposite in="shadowOffsetInner1" in2="SourceAlpha" k2="-1" k3="1" operator="arithmetic" result="shadowInnerInner1"/><feColorMatrix in="shadowInnerInner1" result="shadowMatrixInner1" values="0 0 0 0 1 0 0 0 0 1 0 0 0 0 1 0 0 0 0.5 0"/><feOffset dy=".7" in="SourceAlpha" result="shadowOffsetInner2"/><feComposite in="shadowOffsetInner2" in2="SourceAlpha" k2="-1" k3="1" operator="arithmetic" result="shadowInnerInner2"/><feColorMatrix in="shadowInnerInner2" result="shadowMatrixInner2" values="0 0 0 0 1 0 0 0 0 1 0 0 0 0 1 0 0 0 0.5 0"/><feMerge><feMergeNode in="shadowMatrixInner1"/><feMergeNode in="shadowMatrixInner2"/></feMerge></filter><filter id="j" width="1.007" height="1.009" x="0" y="0" filterUnits="objectBoundingBox"><feOffset dx=".5" in="SourceAlpha" result="shadowOffsetInner1"/><feComposite in="shadowOffsetInner1" in2="SourceAlpha" k2="-1" k3="1" operator="arithmetic" result="shadowInnerInner1"/><feColorMatrix in="shadowInnerInner1" result="shadowMatrixInner1" values="0 0 0 0 1 0 0 0 0 1 0 0 0 0 1 0 0 0 0.5 0"/><feOffset dy=".7" in="SourceAlpha" result="shadowOffsetInner2"/><feComposite in="shadowOffsetInner2" in2="SourceAlpha" k2="-1" k3="1" operator="arithmetic" result="shadowInnerInner2"/><feColorMatrix in="shadowInnerInner2" result="shadowMatrixInner2" values="0 0 0 0 1 0 0 0 0 1 0 0 0 0 1 0 0 0 0.5 0"/><feMerge><feMergeNode in="shadowMatrixInner1"/><feMergeNode in="shadowMatrixInner2"/></feMerge></filter><filter id="n" width="1.004" height="1.002" x="0" y="-.002" filterUnits="objectBoundingBox"><feOffset dx=".3" dy="-.2" in="SourceAlpha" result="shadowOffsetInner1"/><feComposite in="shadowOffsetInner1" in2="SourceAlpha" k2="-1" k3="1" operator="arithmetic" result="shadowInnerInner1"/><feColorMatrix in="shadowInnerInner1" values="0 0 0 0 0 0 0 0 0 0.835294118 0 0 0 0 1 0 0 0 0.21410706 0"/></filter><linearGradient id="b" x1="29.471" x2="21.041" y1="0" y2="58.942" gradientTransform="scale(.5597 1.78667)" gradientUnits="userSpaceOnUse"><stop offset="0%" stop-color="#151515"/><stop offset="7.958%" stop-color="#0073AC"/><stop offset="78.546%"/><stop offset="100%"/></linearGradient><linearGradient id="l" x1="27.917" x2="62.62" y1="-1.864" y2="63.152" gradientTransform="scale(.98265 1.01766)" gradientUnits="userSpaceOnUse"><stop offset="0%" stop-color="#F4FBFF"/><stop offset="1.56%" stop-color="#E3E9ED"/><stop offset="4.558%" stop-color="#F4FBFF"/><stop offset="35.062%" stop-color="#00D5FF"/><stop offset="48.835%" stop-color="#06D6FF"/><stop offset="56.446%" stop-color="#007BB9"/><stop offset="100%" stop-color="#06557C"/></linearGradient></defs><g fill="none" fill-rule="evenodd" transform="translate(54.5)"><g transform="matrix(-1 0 0 1 57.64 73.298)"><mask id="d" fill="#fff"><use xlink:href="#a"/></mask><use xlink:href="#a" fill="url(#b)"/><path fill="url(#c)" d="M22.919-1.867h20v107h-20z" mask="url(#d)"/></g><use xlink:href="#f" fill="url(#e)"/><use xlink:href="#f" fill="#000" filter="url(#g)"/><mask id="k" fill="#fff"><use xlink:href="#h"/></mask><use xlink:href="#h" fill="url(#i)"/><use xlink:href="#h" fill="#000" filter="url(#j)"/><g mask="url(#k)"><use xlink:href="#m" fill="url(#l)"/><use xlink:href="#m" fill="#000" filter="url(#n)"/></g></g></svg>