<svg xmlns="http://www.w3.org/2000/svg" viewBox="0 0 16 16"><defs><style>.b{fill:#02c7b3}</style></defs><path d="M3.154 12.256a10 10 0 0 1 .29-2.342 8.65 8.65 0 0 0 0-4.104 7.8 7.8 0 0 1-.204-3.03 1.88 1.88 0 0 1 1.394-1.683 2.43 2.43 0 0 1 1.52.222 8.4 8.4 0 0 1 2.4 1.694 8.5 8.5 0 0 0 3.436 1.984 10.4 10.4 0 0 1 2.216.968 4 4 0 0 1 1.113.91 1.74 1.74 0 0 1 0 2.294 4.8 4.8 0 0 1-1.674 1.19 13 13 0 0 1-1.78.668 8.3 8.3 0 0 0-3.175 1.79 9.7 9.7 0 0 1-2.294 1.703 3.04 3.04 0 0 1-1.307.378 1.83 1.83 0 0 1-1.848-1.723 4.4 4.4 0 0 1-.087-.92m.967-.252a3.7 3.7 0 0 0 .165 1.375.794.794 0 0 0 .968.551 3.2 3.2 0 0 0 1.016-.425 10.5 10.5 0 0 0 1.761-1.375 9.2 9.2 0 0 1 3.543-2.042 10.3 10.3 0 0 0 2.07-.842 3 3 0 0 0 .969-.745.774.774 0 0 0 0-1.065 2.4 2.4 0 0 0-.494-.426 5.5 5.5 0 0 0-1.345-.726c-.63-.232-1.278-.416-1.936-.667a10.1 10.1 0 0 1-3.203-2.159 5.75 5.75 0 0 0-2.11-1.364c-.765-.262-1.181 0-1.355.764a6.1 6.1 0 0 0 .154 2.7 9.9 9.9 0 0 1 .194 3.872 19 19 0 0 0-.397 2.574" style="fill:#0287cb"/><path d="M.25 7.978a1.94 1.94 0 0 1 .658-1.384A5.8 5.8 0 0 1 2.554 5.54c.116-.048.174 0 .193.097a.1.1 0 0 0 0 .058c0 .223.165.484.107.687s-.378.232-.572.358a3.6 3.6 0 0 0-.803.62.822.822 0 0 0 0 1.238 3.5 3.5 0 0 0 1.21.833c.194.087.232.193.165.368v.106c-.136.61-.136.61-.697.31a4.4 4.4 0 0 1-1.365-.968A1.88 1.88 0 0 1 .25 7.978M11.864 3.72a2.9 2.9 0 0 0-.155-1.113.794.794 0 0 0-.967-.57l-.059.018a3.6 3.6 0 0 0-1.326.62.254.254 0 0 1-.377 0 3 3 0 0 0-.358-.33c-.145-.106-.184-.174 0-.29a5.04 5.04 0 0 1 2.013-.967 1.694 1.694 0 0 1 1.849.968 4.6 4.6 0 0 1 .29 2.526c0 .087-.059.106-.136.077l-.213-.077c-.561-.224-.561-.224-.561-.862M8.448 13.785l.61-.561c.116-.116.183 0 .27 0a3.9 3.9 0 0 0 1.375.648.784.784 0 0 0 .968-.532 3.45 3.45 0 0 0 .193-1.49c0-.203 0-.3.242-.33h.107c.561-.173.57-.173.61.388a4.4 4.4 0 0 1-.184 1.742 1.75 1.75 0 0 1-2.151 1.229l-.065-.02a5.4 5.4 0 0 1-1.975-1.074M10.78 6.497a9.9 9.9 0 0 0 0 2.972.184.184 0 0 1-.137.22l-.008.002a9.3 9.3 0 0 0-2.536 1.481.174.174 0 0 1-.246.015l-.015-.015a9.5 9.5 0 0 0-2.546-1.48c-.135 0-.154-.127-.135-.262a9.4 9.4 0 0 0 0-2.904c0-.145 0-.213.155-.27a9.5 9.5 0 0 0 2.516-1.462c.107-.087.174-.097.28 0a9.5 9.5 0 0 0 2.517 1.461c.174.068.165.078.155.242M9.415 7.978A1.452 1.452 0 1 0 7.983 9.45h.01a1.47 1.47 0 0 0 1.422-1.47M4.973 10.282h.136a10.3 10.3 0 0 1 2.284 1.374c.135.106.135.155 0 .261-.542.474-.542.474-1.142.097a9 9 0 0 0-1.268-.697c-.145-.068-.203-.145-.174-.3a2.8 2.8 0 0 1 .077-.59c.077-.194 0-.145.087-.145M12.27 7.978a5.4 5.4 0 0 0 .059.968.23.23 0 0 1-.146.27c-.725.369-.774.35-.822-.454a12.7 12.7 0 0 1 0-2.1c0-.184.077-.232.27-.164.65.251.659.242.62.968a1.5 1.5 0 0 1 .02.512M6.783 3.604a4.4 4.4 0 0 1 .706.503c.058 0 0 .096-.058.126A9.9 9.9 0 0 1 5.09 5.655c-.116.049-.155 0-.174-.096s0-.078 0-.117c-.097-.658-.097-.658.494-.967a13 13 0 0 0 1.258-.765Z" class="b"/></svg>