<svg xmlns="http://www.w3.org/2000/svg" width="48" height="48" fill="none"><path fill="url(#a)" d="M5.036 7.878c-.283-2.038 1.12-3.923 3.133-4.21L33.684.037c2.013-.287 3.874 1.134 4.157 3.172l5.123 36.913c.283 2.038-1.12 3.923-3.133 4.21l-25.515 3.631c-2.013.287-3.874-1.134-4.157-3.172z"/><path fill="#fff" d="M6.859 7.619a1.86 1.86 0 0 1 1.566-2.105L33.94 1.882a1.844 1.844 0 0 1 2.079 1.587L41.14 40.38a1.86 1.86 0 0 1-1.566 2.105L14.06 46.118a1.844 1.844 0 0 1-2.079-1.587z"/><path fill="url(#b)" d="M33.186 14.92 25.85 34.158a.538.538 0 0 1-.933.134L12.334 17.834c-.281-.369-.012-.9.447-.882l10.124.409a.5.5 0 0 0 .19-.027l9.414-3.135c.434-.144.841.289.677.72"/><path fill="url(#c)" d="m27.025 12.576-7.09 2.467a.27.27 0 0 0-.18.28l.637 7.74c.015.182.198.3.367.235l1.964-.759a.273.273 0 0 1 .367.274l-.18 3.077c-.012.207.2.354.385.267l1.2-.562a.272.272 0 0 1 .384.267l-.294 4.836c-.018.302.39.409.516.134l.084-.183L29.43 17.8c.07-.215-.133-.42-.345-.347l-2.033.7a.273.273 0 0 1-.357-.298l.687-4.982a.273.273 0 0 0-.357-.298"/><defs><linearGradient id="a" x1="6.482" x2="39.05" y1="1.976" y2="48.206" gradientUnits="userSpaceOnUse"><stop stop-color="#49C7FF"/><stop offset="1" stop-color="#BD36FF"/></linearGradient><linearGradient id="b" x1="11.885" x2="26.725" y1="16.427" y2="31.418" gradientUnits="userSpaceOnUse"><stop stop-color="#41D1FF"/><stop offset="1" stop-color="#BD34FE"/></linearGradient><linearGradient id="c" x1="21.814" x2="26.246" y1="13.705" y2="28.807" gradientUnits="userSpaceOnUse"><stop stop-color="#FFEA83"/><stop offset=".083" stop-color="#FFDD35"/><stop offset="1" stop-color="#FFA800"/></linearGradient></defs></svg>