<svg xmlns="http://www.w3.org/2000/svg" viewBox="0 0 16 16"><path d="M.25.25h15.5v15.5H.25z" style="fill:#d8d8d8"/><path d="M7.903 8.388a5.1 5.1 0 0 1-1.937-.97 1.63 1.63 0 0 1-.582-1.356 2.02 2.02 0 0 1 .775-1.55 3.07 3.07 0 0 1 1.938-.58 3.2 3.2 0 0 1 1.453.29 2.12 2.12 0 0 1 .969.872 2.75 2.75 0 0 1 .387 1.26H9.841a1.6 1.6 0 0 0-.485-1.163 1.79 1.79 0 0 0-1.26-.388 2.2 2.2 0 0 0-1.259.29 1.24 1.24 0 0 0-.387.97.88.88 0 0 0 .387.775 6.3 6.3 0 0 0 1.357.58A9 9 0 0 1 9.744 8a2.3 2.3 0 0 1 .872.775 2.6 2.6 0 0 1 .29 1.163 1.88 1.88 0 0 1-.775 1.55 3.18 3.18 0 0 1-2.034.58 4 4 0 0 1-1.55-.29 1.95 1.95 0 0 1-1.066-.872 2.75 2.75 0 0 1-.387-1.26h1.065a1.6 1.6 0 0 0 .485 1.163 2.34 2.34 0 0 0 1.453.388 2.2 2.2 0 0 0 1.26-.29 1.02 1.02 0 0 0 .484-.873 1.48 1.48 0 0 0-.388-.968 8.7 8.7 0 0 0-1.55-.679" style="fill:#4d4d4d"/></svg>