<svg xmlns="http://www.w3.org/2000/svg" viewBox="0 0 16 16"><path d="m9.099 5.353-.531.935-1.818-3.2-5.58 9.825h3.778a.93.93 0 0 0 .92.935H1.17a.92.92 0 0 1-.797-.468.95.95 0 0 1 0-.935l5.58-9.826a.913.913 0 0 1 1.594 0Z" style="fill:#00c58e"/><path d="M13.127 12.445 9.63 6.288 9.1 5.353l-.531.935-3.496 6.157a.95.95 0 0 0 0 .935.92.92 0 0 0 .796.468h6.461a.92.92 0 0 0 .797-.467.95.95 0 0 0 0-.936Zm-7.259.468L9.1 7.224l3.23 5.689Z" style="fill:#2f495e"/><path d="M15.627 13.38a.92.92 0 0 1-.797.468h-2.501a.93.93 0 0 0 .92-.935h1.579l-4.48-7.89-.718 1.265-.531-.935.453-.797a.913.913 0 0 1 1.594 0l4.48 7.889a.95.95 0 0 1 0 .936" style="fill:#108775"/></svg>