<svg xmlns="http://www.w3.org/2000/svg" viewBox="0 0 16 16"><defs><style>.a{fill:#61dafb;}</style></defs><path class="a" d="M16,8.0016c0-1.06-1.3274-2.0644-3.3624-2.6873.47-2.0742.2609-3.7244-.6588-4.2527a1.4291,1.4291,0,0,0-.73-.1827v.7273a.7547.7547,0,0,1,.3718.0848c.4435.2544.6359,1.223.4859,2.4688-.0359.3066-.0946.6294-.1663.9588a15.8173,15.8173,0,0,0-2.071-.3555A15.894,15.894,0,0,0,8.512,3.1325a4.8109,4.8109,0,0,1,2.7395-1.53V.8757h0a5.4553,5.4553,0,0,0-3.258,1.748A5.46,5.46,0,0,0,4.7354.8887V1.616a4.8309,4.8309,0,0,1,2.7395,1.52A15.4087,15.4087,0,0,0,6.128,4.7631a15.2356,15.2356,0,0,0-2.0742.3588c-.075-.3261-.13-.6425-.17-.9458C3.7309,2.93,3.92,1.9617,4.36,1.704a.7256.7256,0,0,1,.375-.0848V.892h0a1.4542,1.4542,0,0,0-.737.1826c-.9165.5283-1.1219,2.1753-.649,4.243C1.3208,5.9437,0,6.945,0,8.0016c0,1.06,1.3274,2.0644,3.3624,2.6874-.47,2.0741-.2609,3.7244.6588,4.2527a1.4339,1.4339,0,0,0,.7338.1826,5.4551,5.4551,0,0,0,3.258-1.748,5.46,5.46,0,0,0,3.2581,1.735,1.4546,1.4546,0,0,0,.7371-.1826c.9164-.5284,1.1218-2.1753.649-4.243C14.6792,10.0628,16,9.0583,16,8.0016ZM11.7538,5.8263c-.1207.4207-.2707.8545-.44,1.2883-.1337-.261-.274-.5219-.4272-.7828-.15-.2609-.31-.5152-.47-.7631C10.88,5.6372,11.3265,5.722,11.7538,5.8263ZM10.26,9.3c-.2544.44-.5153.8578-.786,1.2459-.4859.0424-.9784.0652-1.4741.0652-.4925,0-.9849-.0228-1.4676-.062q-.406-.5821-.7892-1.2393c-.2479-.4272-.4729-.861-.6784-1.298.2022-.437.4305-.874.6751-1.3012.2544-.44.5153-.8578.786-1.2459.4859-.0424.9784-.0652,1.4741-.0652.4925,0,.9849.0228,1.4676.062q.4061.5821.7892,1.2393c.2479.4272.4729.861.6784,1.298C10.73,8.4354,10.5047,8.8724,10.26,9.3Zm1.0534-.4239c.1761.437.3261.874.45,1.298-.4273.1043-.8773.1924-1.3437.2609.16-.2512.32-.5088.47-.773C11.04,9.4007,11.18,9.1366,11.3135,8.8757Zm-3.307,3.48A13.4526,13.4526,0,0,1,7.1,11.3119c.2935.013.5935.0228.8968.0228.3066,0,.61-.0065.9067-.0228A12.7292,12.7292,0,0,1,8.0065,12.3555ZM5.58,10.4346c-.4631-.0685-.91-.1533-1.3371-.2577.1206-.4207.2707-.8544.44-1.2882.1338.2609.274.5218.4273.7827S5.42,10.1867,5.58,10.4346ZM7.99,3.6478a13.4559,13.4559,0,0,1,.9067,1.0436c-.2936-.013-.5936-.0228-.8969-.0228-.3066,0-.61.0065-.9066.0228A12.7314,12.7314,0,0,1,7.99,3.6478ZM5.5768,5.5687c-.16.2511-.32.5088-.47.7729-.15.2609-.29.5218-.424.7827-.1761-.437-.3261-.874-.45-1.298C4.66,5.7252,5.1105,5.6372,5.5768,5.5687ZM2.6254,9.6519C1.4709,9.1594.724,8.5137.724,8.0016s.7468-1.161,1.9014-1.65c.28-.1207.587-.2283.9033-.3294a15.6712,15.6712,0,0,0,.7338,1.9862,15.4584,15.4584,0,0,0-.724,1.9763C3.2157,9.8834,2.9091,9.7725,2.6254,9.6519Zm1.7545,4.66c-.4435-.2544-.6359-1.223-.4859-2.4688.0359-.3066.0946-.63.1663-.9589a15.8035,15.8035,0,0,0,2.071.3555A15.8849,15.8849,0,0,0,7.488,12.8708a4.8112,4.8112,0,0,1-2.74,1.53A.7785.7785,0,0,1,4.38,14.3123Zm7.7359-2.4851c.1533,1.2458-.0359,2.2144-.4762,2.472a.7256.7256,0,0,1-.375.0848,4.8309,4.8309,0,0,1-2.7395-1.52A15.4087,15.4087,0,0,0,9.872,11.2369a15.2329,15.2329,0,0,0,2.0742-.3588A9.1362,9.1362,0,0,1,12.1158,11.8272Zm1.2556-2.1753c-.28.1206-.5871.2282-.9034.3293a15.6644,15.6644,0,0,0-.7338-1.9861,15.4433,15.4433,0,0,0,.724-1.9763c.3229.1011.6294.2119.9164.3326,1.1545.4925,1.9014,1.1382,1.9014,1.65C15.2727,8.5137,14.5259,9.1627,13.3714,9.6519Z"/><circle class="a" cx="7.9967" cy="8.0016" r="1.4904"/></svg>