<svg width="1776" height="400" viewBox="0 0 1776 400" fill="none" xmlns="http://www.w3.org/2000/svg" role="img" aria-labelledby="title desc">
  <title id="title">Claim deployments flow</title>
  <desc id="desc">AI agent deploys, verifies, and redeploys to a temporary account, then claims it after authentication and moves it to a permanent account.</desc>
  <rect width="1776" height="400" fill="white"/>

  <g stroke="#222" stroke-width="4" stroke-linecap="round" stroke-linejoin="round" fill="none">
    <path d="M278 104H532"/>
    <path d="M532 104L518 90"/>
    <path d="M532 104L518 118"/>
    <path d="M278 160H532"/>
    <path d="M278 160L292 146"/>
    <path d="M278 160L292 174"/>
    <path d="M278 216H532"/>
    <path d="M532 216L518 202"/>
    <path d="M532 216L518 230"/>
    <path d="M760 160H1010"/>
    <path d="M1010 160L996 146"/>
    <path d="M1010 160L996 174"/>
    <path d="M1175 160H1430"/>
    <path d="M1430 160L1416 146"/>
    <path d="M1430 160L1416 174"/>
  </g>

  <g fill="#222" font-family="Inter, Arial, sans-serif" font-weight="700">
    <text x="367" y="111" font-size="24">Deploy</text>
    <text x="370" y="167" font-size="24">Verify</text>
    <text x="371" y="223" font-size="24">Redeploy</text>
    <text x="855" y="168" font-size="24">Claim</text>
    <text x="1270" y="168" font-size="24">Move</text>
    <text x="140" y="300" font-size="24">AI Agent</text>
    <text x="582" y="274" font-size="26">Temporary</text>
    <text x="598" y="300" font-size="26">account</text>
    <text x="1002" y="258" font-size="24">Authentication</text>
    <text x="1480" y="274" font-size="26">Permanent</text>
    <text x="1496" y="300" font-size="26">account</text>
  </g>

  <g stroke="#5E8CFF" stroke-width="4" stroke-linecap="round" stroke-linejoin="round" fill="none">
    <circle cx="179" cy="77" r="5" fill="#5E8CFF" stroke="none"/>
    <path d="M179 82V94"/>
    <rect x="148" y="96" width="68" height="50" rx="8" transform="rotate(-4 148 96)" fill="#E8F0FF"/>
    <circle cx="166" cy="118" r="10"/>
    <circle cx="195" cy="118" r="10"/>
    <path d="M176 118H185"/>
    <path d="M148 116H157M205 116H216"/>
    <path d="M161 147L221 137L261 160L206 195L153 174L161 147Z" fill="#E8F0FF"/>
    <path d="M206 195V151L221 137"/>
    <path d="M235 153V178M248 160V170"/>
    <path d="M157 163C141 164 144 186 158 188"/>
    <circle cx="194" cy="180" r="11" fill="#E8F0FF"/>
    <circle cx="170" cy="176" r="3" fill="#5E8CFF" stroke="none"/>
    <circle cx="179" cy="180" r="3" fill="#5E8CFF" stroke="none"/>
    <path d="M158 188L164 215L196 225"/>
    <path d="M174 230C200 228 226 231 245 237"/>
    <path d="M141 250C178 240 218 242 247 253" opacity="0.45"/>
  </g>

  <g stroke="#2F6BFF" stroke-width="4" stroke-linecap="round" stroke-linejoin="round" fill="none">
    <path d="M340 204C350 195 366 195 376 205C388 217 384 237 368 244"/>
    <path d="M340 204V191H327"/>
  </g>

  <g>
    <rect x="552" y="90" width="184" height="135" fill="#FFF0D5" stroke="#FF8C2B" stroke-width="4"/>
    <rect x="552" y="90" width="184" height="20" fill="#FFB452"/>
    <circle cx="564" cy="100" r="4" fill="white"/>
    <circle cx="578" cy="100" r="4" fill="white"/>
    <circle cx="592" cy="100" r="4" fill="white"/>
    <rect x="568" y="118" width="47" height="43" fill="#BFD5FF"/>
    <rect x="627" y="118" width="94" height="43" fill="#FFE5B8"/>
    <rect x="568" y="172" width="153" height="40" fill="#FFE5B8"/>
    <g stroke="#5E8CFF" stroke-width="2.5" stroke-linecap="round" stroke-linejoin="round" fill="none">
      <circle cx="592" cy="124" r="3" fill="#5E8CFF" stroke="none"/>
      <path d="M592 127V134"/>
      <rect x="576" y="135" width="33" height="24" rx="5"/>
      <circle cx="586" cy="145" r="5"/>
      <circle cx="600" cy="145" r="5"/>
      <path d="M591 145H594"/>
    </g>
    <circle cx="725" cy="211" r="29" fill="white" stroke="#FFAA3D" stroke-width="5"/>
    <path d="M725 191V213L742 229" stroke="#FF8C2B" stroke-width="5" stroke-linecap="round" stroke-linejoin="round"/>
  </g>

  <g stroke="#FF7A1A" stroke-width="8" stroke-linecap="round" stroke-linejoin="round" fill="none">
    <circle cx="1062" cy="184" r="27"/>
    <path d="M1084 163L1132 119"/>
    <path d="M1118 132L1136 150"/>
    <path d="M1103 146L1122 165"/>
  </g>

  <g>
    <rect x="1448" y="90" width="184" height="135" fill="#FFF0D5" stroke="#FF7A1A" stroke-width="4"/>
    <rect x="1448" y="90" width="184" height="20" fill="#FF9D33"/>
    <circle cx="1460" cy="100" r="4" fill="white"/>
    <circle cx="1474" cy="100" r="4" fill="white"/>
    <circle cx="1488" cy="100" r="4" fill="white"/>
    <rect x="1464" y="118" width="47" height="43" fill="#BFD5FF"/>
    <rect x="1524" y="118" width="94" height="43" fill="#FFE5B8"/>
    <rect x="1464" y="174" width="57" height="7" fill="#BFD5FF"/>
    <rect x="1464" y="190" width="57" height="7" fill="#BFD5FF"/>
    <rect x="1464" y="207" width="36" height="5" fill="#BFD5FF"/>
    <rect x="1530" y="173" width="45" height="39" fill="#FFE5B8"/>
    <rect x="1584" y="173" width="34" height="39" fill="#FFE5B8"/>
    <g stroke="#5E8CFF" stroke-width="2.5" stroke-linecap="round" stroke-linejoin="round" fill="none">
      <circle cx="1488" cy="124" r="3" fill="#5E8CFF" stroke="none"/>
      <path d="M1488 127V134"/>
      <rect x="1472" y="135" width="33" height="24" rx="5"/>
      <circle cx="1482" cy="145" r="5"/>
      <circle cx="1496" cy="145" r="5"/>
      <path d="M1487 145H1490"/>
    </g>
    <circle cx="1622" cy="211" r="29" fill="white" stroke="#FFAA3D" stroke-width="5"/>
    <path d="M1608 210L1618 221L1641 198" stroke="#FF8C2B" stroke-width="6" stroke-linecap="round" stroke-linejoin="round"/>
  </g>
</svg>
