<svg width="16" height="16" viewBox="0 0 16 16" fill="none" xmlns="http://www.w3.org/2000/svg">
<path d="M9.2 2.698C8.08142 2.69746 6.99138 3.05098 6.08603 3.7079C5.18067 4.36482 4.50647 5.29143 4.16 6.355L4.125 6.465H5.1L5.122 6.413C5.48424 5.49305 6.14741 4.72293 7.00341 4.22815C7.8594 3.73338 8.85774 3.54314 9.83571 3.68843C10.8137 3.83373 11.7136 4.30599 12.3888 5.02825C13.064 5.75051 13.4746 6.68017 13.5537 7.66569C13.6329 8.65122 13.3759 9.63449 12.8246 10.4553C12.2734 11.276 11.4604 11.8858 10.5181 12.1854C9.57588 12.4849 8.55997 12.4564 7.63598 12.1046C6.712 11.7528 5.93442 11.0983 5.43 10.248L5.38 10.16H4.358L4.418 10.283C4.82628 11.1394 5.45687 11.8707 6.24399 12.4004C7.03111 12.9302 7.94594 13.239 8.89309 13.2948C9.84023 13.3506 10.785 13.1513 11.6289 12.7176C12.4727 12.2839 13.1848 11.6318 13.6908 10.8292C14.1968 10.0266 14.4782 9.10291 14.5057 8.15452C14.5331 7.20614 14.3057 6.26775 13.847 5.43721C13.3883 4.60668 12.7151 3.91441 11.8978 3.43262C11.0804 2.95082 10.1488 2.69713 9.2 2.698Z" fill="black"/>
<path d="M9.447 7.27204L7.59 5.41504L6.973 6.03204L8.053 7.11504H0L0.52 7.98704H9.15L9.447 7.27204ZM9.435 11.213L8.817 10.595L9.897 9.51304H1.425L0.907 8.63804H10.995L11.293 9.35504L9.435 11.212V11.213Z" fill="black"/>
</svg>
