<svg width="25" height="25" viewBox="0 0 25 25" fill="none" xmlns="http://www.w3.org/2000/svg">
<path d="M17.3503 1.34488e-06C15.2406 -0.00109298 13.1848 0.665681 11.4773 1.90477C9.76985 3.14386 8.49847 4.89166 7.84535 6.89769L7.77935 7.10514H9.6181L9.66054 7.00613C10.3402 5.28152 11.5808 3.83602 13.1823 2.90264C14.7839 1.96926 16.6531 1.60238 18.4886 1.86115C20.3242 2.11993 22.0191 2.98927 23.3002 4.32904C24.5812 5.66881 25.3739 7.40095 25.5502 9.24624C25.7266 11.0915 25.2764 12.9424 24.2723 14.5006C23.2681 16.0588 21.7685 17.2334 20.0152 17.8352C18.2619 18.4369 16.3571 18.4307 14.6077 17.8176C12.8584 17.2045 11.3665 16.0201 10.3725 14.4554C10.3253 14.3847 10.2829 14.314 10.2405 14.2386L10.1462 14.0735H8.21782L8.33097 14.3046C8.50531 14.6794 8.70538 15.0418 8.92975 15.389C9.86539 16.8515 11.1657 18.0452 12.7027 18.8527C14.2397 19.6602 15.9605 20.0536 17.6957 19.9941C19.4308 19.9347 21.1207 19.4246 22.5988 18.5139C24.077 17.6032 25.2926 16.3233 26.126 14.8002C26.9595 13.2771 27.382 11.5632 27.352 9.8273C27.322 8.09136 26.8406 6.39313 25.955 4.89972C25.0695 3.40631 23.8104 2.16918 22.3017 1.31006C20.7929 0.450949 19.0865 -0.000547577 17.3503 1.34488e-06Z" fill="#313131"/>
<path d="M17.8171 8.62794L14.314 5.12488L13.1495 6.28943L15.1862 8.33091H0L0.980669 9.97637H17.256L17.8171 8.62794Z" fill="#313131"/>
<path d="M17.7934 16.0585L16.6289 14.8939L18.6657 12.8524H2.68736L1.7114 11.2023H20.7354L21.2965 12.5554L17.7934 16.0585Z" fill="#313131"/>
</svg>
