<svg width="14" height="14" viewBox="0 0 14 14" fill="none" xmlns="http://www.w3.org/2000/svg">
<path fill-rule="evenodd" clip-rule="evenodd" d="M3.3888 1.59545C4.45771 0.881218 5.71442 0.5 7 0.5C8.72332 0.501919 10.3755 1.18735 11.5941 2.40592C12.8126 3.6245 13.4981 5.27668 13.5 7C13.5 8.28558 13.1188 9.54228 12.4046 10.6112C11.6903 11.6801 10.6752 12.5132 9.48744 13.0052C8.29972 13.4972 6.99279 13.6259 5.73191 13.3751C4.47104 13.1243 3.31285 12.5052 2.40381 11.5962C1.49477 10.6872 0.875702 9.52896 0.624899 8.26809C0.374095 7.00721 0.502816 5.70028 0.994786 4.51256C1.48676 3.32484 2.31988 2.30968 3.3888 1.59545ZM7.49722 6.49724L11.436 6.47524L11.4415 7.47524L7.50272 7.49723L7.52472 11.436L6.52472 11.4415L6.50272 7.50274L2.56397 7.52473L2.55847 6.52474L6.49722 6.50274L6.47522 2.56399L7.47522 2.55849L7.49722 6.49724Z" fill="black"/>
</svg>
