<svg width="25" height="25" viewBox="0 0 25 25" fill="none" xmlns="http://www.w3.org/2000/svg">
<path d="M14.2852 8.30479H12.4495V4.92207C12.4495 3.61666 11.9309 2.36471 11.0078 1.44164C10.0848 0.518574 8.83283 0 7.52742 0C6.22201 0 4.97006 0.518574 4.04699 1.44164C3.12392 2.36471 2.60535 3.61666 2.60535 4.92207V8.30479H0.769675L0 9.07447V19.2303L0.769675 20H14.2852L15.0548 19.2303V9.07447L14.2852 8.30479ZM4.1447 4.92207C4.1447 4.02492 4.50109 3.16451 5.13547 2.53013C5.76986 1.89574 6.63027 1.53935 7.52742 1.53935C8.42457 1.53935 9.28498 1.89574 9.91936 2.53013C10.5537 3.16451 10.9101 4.02492 10.9101 4.92207V8.30479H4.1447V4.92207ZM13.5155 18.4606H1.53935V9.84414H13.5155V18.4606Z" fill="#313131"/>
<path d="M7.52742 11.4566C7.19194 11.4558 6.86607 11.5686 6.60288 11.7767C6.33968 11.9847 6.15465 12.2757 6.07791 12.6023C6.00117 12.9289 6.03724 13.2718 6.18025 13.5753C6.32326 13.8788 6.56478 14.1249 6.8655 14.2736V16.6904H8.18934V14.2736C8.49006 14.1249 8.73158 13.8788 8.87459 13.5753C9.01759 13.2718 9.05366 12.9289 8.97692 12.6023C8.90019 12.2757 8.71516 11.9847 8.45196 11.7767C8.18876 11.5686 7.8629 11.4558 7.52742 11.4566Z" fill="#313131"/>
</svg>
