<svg width="25" height="25" viewBox="0 0 25 25" fill="none" xmlns="http://www.w3.org/2000/svg">
<path fill-rule="evenodd" clip-rule="evenodd" d="M0 1.53107L0.769538 0.761536H12.3126V2.30061H1.53908V17.6914H13.8517V19.2305H0.769538L0 18.4609V1.53107Z" fill="#313131"/>
<path fill-rule="evenodd" clip-rule="evenodd" d="M10.004 5.76353H3.07815V4.22446H10.004V5.76353Z" fill="#313131"/>
<path fill-rule="evenodd" clip-rule="evenodd" d="M10.7735 8.84169H3.07815V7.30261H10.7735V8.84169Z" fill="#313131"/>
<path fill-rule="evenodd" clip-rule="evenodd" d="M8.46492 11.9198H3.07815V10.3808H8.46492V11.9198Z" fill="#313131"/>
<path fill-rule="evenodd" clip-rule="evenodd" d="M12.887 1.9251C12.4552 2.19464 12.0733 2.54177 11.7619 2.952C11.2278 3.65552 10.9283 4.50903 10.9057 5.39198C10.883 6.27493 11.1383 7.14269 11.6355 7.87269C12.1327 8.60268 12.8467 9.15801 13.6767 9.46024L14.1829 10.1831L14.1849 18.4609L16.0514 18.4609L16.0534 10.1831L16.5596 9.46024C17.3896 9.15801 18.1036 8.60268 18.6008 7.87269C19.098 7.14269 19.3533 6.27493 19.3306 5.39198C19.3079 4.50903 19.0084 3.65552 18.4744 2.952C18.163 2.54178 17.7811 2.19464 17.3493 1.92511L17.3477 5.20726L16.5781 5.97642H13.6581L12.8886 5.20726L12.887 1.9251ZM10.536 2.02145C11.265 1.06102 12.2774 0.353908 13.4301 0L14.4255 0.735262L14.4273 4.43734L15.809 4.43734L15.8108 0.735264L16.8062 1.07031e-06C17.9589 0.35391 18.9713 1.06102 19.7003 2.02145C20.4294 2.98188 20.8382 4.14708 20.8692 5.35247C20.9001 6.55787 20.5516 7.74252 19.8728 8.7391C19.2974 9.58392 18.5093 10.2574 17.5924 10.6943L17.5903 19.2306L16.8207 20L13.4156 20L12.646 19.2307L12.6439 10.6943C11.727 10.2574 10.9389 9.58393 10.3635 8.7391C9.68468 7.74252 9.33615 6.55787 9.3671 5.35247C9.39805 4.14708 9.80692 2.98188 10.536 2.02145Z" fill="#313131"/>
</svg>
