<svg width="16" height="16" viewBox="0 0 16 16" fill="none" xmlns="http://www.w3.org/2000/svg">
<path fill-rule="evenodd" clip-rule="evenodd" d="M1.5 2.49993L2 1.99993H9.5V2.99993H2.5V12.9999H10.5V13.9999H2L1.5 13.4999V2.49993Z" fill="black"/>
<path fill-rule="evenodd" clip-rule="evenodd" d="M8 5.24993H3.5V4.24993H8V5.24993Z" fill="black"/>
<path fill-rule="evenodd" clip-rule="evenodd" d="M8.5 7.24993H3.5V6.24993H8.5V7.24993Z" fill="black"/>
<path fill-rule="evenodd" clip-rule="evenodd" d="M7 9.24993H3.5V8.24993H7V9.24993Z" fill="black"/>
<path fill-rule="evenodd" clip-rule="evenodd" d="M9.87319 2.75594C9.59266 2.93107 9.34448 3.15662 9.14216 3.42316C8.79518 3.88026 8.60058 4.43483 8.58585 5.00851C8.57112 5.5822 8.737 6.14602 9.06006 6.62033C9.38312 7.09464 9.84704 7.45546 10.3863 7.65183L10.7152 8.12152L10.7165 13.4999L11.9292 13.4999L11.9306 8.12152L12.2595 7.65183C12.7987 7.45546 13.2626 7.09464 13.5857 6.62033C13.9087 6.14602 14.0746 5.5822 14.0599 5.00851C14.0452 4.43483 13.8506 3.88027 13.5036 3.42316C13.3012 3.15662 13.0531 2.93107 12.7725 2.75595L12.7715 4.88849L12.2715 5.38825H10.3742L9.87425 4.8885L9.87319 2.75594ZM8.34564 2.81854C8.81933 2.19451 9.47711 1.73508 10.226 1.50513L10.8728 1.98286L10.874 4.38825L11.7717 4.38825L11.7729 1.98286L12.4197 1.50513C13.1686 1.73508 13.8264 2.19451 14.3001 2.81854C14.7738 3.44257 15.0394 4.19965 15.0596 4.98285C15.0797 5.76604 14.8532 6.53575 14.4122 7.18327C14.0383 7.73219 13.5262 8.16977 12.9305 8.45362L12.9291 14.0001L12.4291 14.4999L10.2166 14.4999L9.71663 14.0001L9.71527 8.45362C9.11951 8.16977 8.60745 7.73219 8.23357 7.18327C7.79253 6.53575 7.56607 5.76604 7.58618 4.98285C7.60629 4.19965 7.87196 3.44257 8.34564 2.81854Z" fill="black"/>
</svg>
