<svg width="20" height="20" viewBox="0 0 20 20" fill="none" xmlns="http://www.w3.org/2000/svg">
<path d="M5.39351 10.787V8.47551H3.85251V10.787H5.39351Z" fill="#313131"/>
<path d="M8.09027 10.787H6.54926V6.16401H8.09027V10.787Z" fill="#313131"/>
<path d="M10.787 10.787V3.85251H9.24602V10.787H10.787Z" fill="#313131"/>
<path fill-rule="evenodd" clip-rule="evenodd" d="M3.42464 1.29833C4.69179 0.45173 6.18154 -9.36734e-05 7.70549 1.45671e-08H7.70634C9.74875 0.00238295 11.7068 0.814784 13.151 2.25899C14.5952 3.70319 15.4076 5.66127 15.41 7.70369V7.70454C15.4101 9.22849 14.9583 10.7182 14.1117 11.9854C13.974 12.1916 13.8268 12.3903 13.6708 12.5811L20 18.9103L18.9103 20L12.5811 13.6708C12.0016 14.1445 11.3529 14.5338 10.6538 14.8234C9.24589 15.4067 7.69663 15.5593 6.20196 15.262C4.70729 14.9647 3.33434 14.2309 2.25675 13.1533C1.17916 12.0757 0.445314 10.7027 0.14803 9.20807C-0.149255 7.7134 0.00337056 6.16414 0.586603 4.75621C1.16984 3.34829 2.15748 2.14493 3.42464 1.29833ZM7.70496 1.541C6.48595 1.54101 5.29431 1.90247 4.28071 2.57967C3.26699 3.25695 2.47687 4.21963 2.01029 5.34597C1.5437 6.47231 1.4216 7.71172 1.65943 8.90746C1.89726 10.1032 2.48433 11.2015 3.3464 12.0636C4.20848 12.9257 5.30683 13.5128 6.50257 13.7506C7.69831 13.9884 8.93771 13.8663 10.0641 13.3997C11.1904 12.9332 12.1531 12.143 12.8304 11.1293C13.5076 10.1156 13.8691 8.92379 13.869 7.70463C13.8669 6.0706 13.2168 4.50409 12.0614 3.34864C10.9058 2.19309 9.33915 1.54302 7.70496 1.541Z" fill="#313131"/>
</svg>
