<svg width="28" height="22" viewBox="0 0 28 22" fill="none" xmlns="http://www.w3.org/2000/svg">
<path d="M22.9803 2.25875C21.2242 1.43712 19.3466 0.840005 17.3835 0.5C17.1424 0.935875 16.8608 1.52214 16.6666 1.9885C14.5798 1.67468 12.5122 1.67468 10.4638 1.9885C10.2697 1.52214 9.98161 0.935875 9.73836 0.5C7.77319 0.840005 5.89336 1.43932 4.13729 2.2631C0.59529 7.61553 -0.364889 12.835 0.115201 17.9804C2.46445 19.7347 4.74115 20.8005 6.97942 21.4978C7.53207 20.7372 8.02495 19.9287 8.44956 19.0766C7.64088 18.7693 6.86634 18.3901 6.13449 17.9499C6.32864 17.8061 6.51856 17.6557 6.70204 17.5009C11.1658 19.5887 16.0158 19.5887 20.4262 17.5009C20.6119 17.6557 20.8018 17.8061 20.9938 17.9499C20.2598 18.3923 19.4831 18.7715 18.6744 19.0788C19.0991 19.9287 19.5898 20.7394 20.1446 21.5C22.385 20.8026 24.6638 19.7369 27.0131 17.9804C27.5764 12.0156 26.0508 6.84404 22.9803 2.25875ZM9.05768 14.816C7.71771 14.816 6.61882 13.5651 6.61882 12.0417C6.61882 10.5184 7.69424 9.26528 9.05768 9.26528C10.4212 9.26528 11.52 10.5162 11.4966 12.0417C11.4987 13.5651 10.4212 14.816 9.05768 14.816ZM18.0706 14.816C16.7306 14.816 15.6317 13.5651 15.6317 12.0417C15.6317 10.5184 16.7071 9.26528 18.0706 9.26528C19.434 9.26528 20.5329 10.5162 20.5095 12.0417C20.5095 13.5651 19.434 14.816 18.0706 14.816Z" fill="#313131"/>
</svg>
