<svg width="25" height="25" viewBox="0 0 25 25" fill="none" xmlns="http://www.w3.org/2000/svg">
<path d="M19.2308 14.2962H17.9231V9.01923H10.7077V5.66538H12L12.7692 4.89615V0.769231L12 0H7.85385L7.08462 0.769231V4.89615L7.85385 5.66538H9.16923V9.01923H2.07692V14.2962H0.769231L0 15.0654V19.2308L0.769231 20H4.91923L5.68846 19.2308V15.0654L4.91923 14.2962H3.61538V10.5577H9.16923V14.2962H7.85385L7.08462 15.0654V19.2308L7.85385 20H12L12.7692 19.2308V15.0654L12 14.2962H10.7077V10.5577H16.3885V14.2962H15.0846L14.3154 15.0654V19.2308L15.0846 20H19.2308L20 19.2308V15.0654L19.2308 14.2962ZM8.62308 1.53846H11.2308V4.14615H8.62308V1.53846ZM4.15 18.4615H1.53846V15.8346H4.14615L4.15 18.4615ZM11.2308 18.4615H8.62308V15.8346H11.2308V18.4615ZM18.4615 18.4615H15.8538V15.8346H18.4615V18.4615Z" fill="#313131"/>
</svg>
