<svg width="16" height="16" viewBox="0 0 16 16" fill="none" xmlns="http://www.w3.org/2000/svg">
<path d="M14 10.793H13.15V7.363H8.46V5.183H9.3L9.8 4.683V2L9.3 1.5H6.605L6.105 2V4.683L6.605 5.183H7.46V7.363H2.85V10.793H2L1.5 11.293V14L2 14.5H4.697L5.197 14V11.293L4.697 10.793H3.85V8.363H7.46V10.793H6.605L6.105 11.293V14L6.605 14.5H9.3L9.8 14V11.293L9.3 10.793H8.46V8.363H12.152V10.793H11.305L10.805 11.293V14L11.305 14.5H14L14.5 14V11.293L14 10.793ZM7.105 2.5H8.8V4.195H7.105V2.5ZM4.197 13.5H2.5V11.793H4.195L4.197 13.5ZM8.8 13.5H7.105V11.793H8.8V13.5ZM13.5 13.5H11.805V11.793H13.5V13.5Z" fill="black"/>
</svg>
