<svg width="20" height="20" viewBox="0 0 20 20" fill="none" xmlns="http://www.w3.org/2000/svg">
<path d="M10.3164 0.00620158C10.2526 0.00158695 10.1884 0.00158691 10.1241 0.00158691H9.99838C7.34665 0.00158691 4.80352 1.05498 2.92846 2.93005C1.0534 4.80511 0 7.34823 0 9.99997C0 12.6517 1.0534 15.1948 2.92846 17.0699C4.80352 18.945 7.34665 19.9984 9.99838 19.9984H10.1241C10.1895 19.9984 10.2545 19.9964 10.3191 19.993C12.9148 19.9105 15.3765 18.8213 17.1834 16.9559C18.9902 15.0905 20.0004 12.5953 20 9.99828C19.9997 7.40128 18.9888 4.90632 17.1815 3.0414C15.3742 1.17649 12.9121 0.0879652 10.3164 0.00620158ZM17.6614 6.41324H15.6871C15.4092 5.08159 14.9017 3.80844 14.1873 2.65077C15.7033 3.51921 16.9157 4.83269 17.6602 6.41324H17.6614ZM10.7629 1.6344C12.1923 2.05741 13.4686 3.87519 14.1085 6.41324H10.7629V1.6344ZM9.22466 1.72785V6.41324H6.14208C6.74122 4.03055 7.90218 2.28353 9.22466 1.72785ZM6.2013 2.44042C5.4097 3.64976 4.85339 4.99762 4.56157 6.41324H2.33654C3.14593 4.69518 4.50621 3.29686 6.2013 2.44042ZM2.26963 13.4406H4.52927C4.81432 14.9063 5.37914 16.3033 6.19284 17.5553C4.45227 16.6737 3.06727 15.2211 2.26963 13.4406ZM9.22466 18.274C7.87065 17.7099 6.69315 15.9044 6.10594 13.4406H9.22466V18.274ZM10.7629 18.3667V13.4406H14.1427C13.5182 16.0617 12.2242 17.9371 10.7629 18.3667ZM14.195 17.3438C14.9309 16.1435 15.447 14.8218 15.7194 13.4406H17.7267C16.9916 15.0825 15.7552 16.4493 14.195 17.3449V17.3438ZM1.75395 11.9024C1.45492 10.6009 1.46691 9.24737 1.78894 7.95145H18.2094C18.5314 9.24737 18.5434 10.6009 18.2444 11.9024H1.75395Z" fill="#313131"/>
<path d="M7.27998 10.2545H7.26382L6.98349 9.05358H6.39512L6.12209 10.2626H6.10632L5.85175 9.05358H5.24838L5.73984 10.9414H6.38397L6.67892 9.84153H6.69969L6.99464 10.9414H7.63761L8.13022 9.05358H7.52686L7.27998 10.2545Z" fill="#313131"/>
<path d="M10.2653 10.2545H10.2491L9.96916 9.05358H9.38041L9.10737 10.2626H9.09161L8.83703 9.05358H8.23367L8.72513 10.9414H9.36925L9.66421 9.84153H9.68497L9.97992 10.9414H10.6229L11.1155 9.05358H10.5121L10.2653 10.2545Z" fill="#313131"/>
<path d="M13.2505 10.2545H13.2344L12.9544 9.05358H12.3657L12.0927 10.2626H12.0769L11.8223 9.05358H11.219L11.7104 10.9414H12.3545L12.6495 9.84153H12.6703L12.9656 10.9414H13.6082L14.1012 9.05358H13.4974L13.2505 10.2545Z" fill="#313131"/>
<path d="M14.4254 10.3415C14.3832 10.3406 14.3414 10.3485 14.3024 10.3645C14.2635 10.3805 14.2282 10.4043 14.1989 10.4345C14.1686 10.4631 14.1446 10.4977 14.1286 10.5361C14.1126 10.5746 14.1048 10.6159 14.1058 10.6576C14.1047 10.6996 14.1124 10.7415 14.1284 10.7804C14.1445 10.8194 14.1685 10.8545 14.1989 10.8837C14.2282 10.9139 14.2634 10.9378 14.3024 10.9539C14.3414 10.97 14.3832 10.9779 14.4254 10.9771C14.4807 10.9776 14.535 10.9625 14.5823 10.9337C14.6295 10.9051 14.6691 10.8655 14.6976 10.8183C14.7276 10.7699 14.7436 10.7141 14.7438 10.6572C14.7439 10.6152 14.7353 10.5738 14.7184 10.5353C14.7016 10.4969 14.677 10.4625 14.6461 10.4341C14.6174 10.4047 14.583 10.3814 14.5451 10.3654C14.5072 10.3495 14.4665 10.3414 14.4254 10.3415Z" fill="#313131"/>
</svg>
