<svg width="32" height="33" viewBox="0 0 32 33" fill="none" xmlns="http://www.w3.org/2000/svg">
<path d="M18.8452 10.6415L21.5902 8.96148L21.5152 12.1765H23.1102L23.0352 8.96148L25.7852 10.6415L26.5702 9.25648L23.7402 7.72148L26.3552 6.30648L26.5702 6.18648L25.7852 4.80648L23.0352 6.48648L23.1102 3.27148H21.5152L21.5902 6.48648L18.8452 4.80648L18.0552 6.19148L20.8902 7.72148L18.0552 9.25648L18.8452 10.6415Z" fill="#313131"/>
<path d="M27.3052 14.1765L25.9202 14.0115L21.7352 17.2265L21.4902 16.9265L15.7852 15.6515L10.3402 15.6265L9.69518 15.8615L6.29518 18.7265L5.50018 17.4765L3.80518 18.5415L9.88518 28.2265L11.5802 27.1665L11.0002 26.2565L11.8652 25.5965H21.2752L22.0402 25.2265L28.7652 17.2715V15.9965L27.3052 14.1765ZM20.8052 23.5965H11.5352L10.9252 23.8015L9.92518 24.5565L7.35518 20.4565L10.6952 17.6265H15.4452L20.2602 18.6915V19.1315H15.8802V21.1315H21.2752L22.2752 20.1315V19.3165L26.3652 16.1915L26.7052 16.6115L20.8052 23.5965Z" fill="#313131"/>
</svg>
