<svg width="16" height="16" viewBox="0 0 16 16" fill="none" xmlns="http://www.w3.org/2000/svg">
<path d="M14 2.97998H2L1.5 3.47998V13.447L2 13.947H14L14.5 13.447V3.47998L14 2.97998ZM13.5 3.97998V8.65198L11.5 7.01498L10.845 7.03498L9.575 8.20498L8.218 7.20498L7.6 7.22498L4.1 10.15L2.5 9.04998V3.97998H13.5ZM2.5 12.947V10.27L3.825 11.195L4.43 11.168L7.938 8.24998L9.313 9.24998L9.947 9.21498L11.197 8.05698L13.5 9.94298V12.943L2.5 12.948V12.947Z" fill="black"/>
<path d="M4.77002 8.04004C5.03524 8.04004 5.28959 7.93468 5.47713 7.74715C5.66466 7.55961 5.77002 7.30526 5.77002 7.04004C5.77002 6.77482 5.66466 6.52047 5.47713 6.33293C5.28959 6.1454 5.03524 6.04004 4.77002 6.04004C4.5048 6.04004 4.25045 6.1454 4.06291 6.33293C3.87538 6.52047 3.77002 6.77482 3.77002 7.04004C3.77002 7.30526 3.87538 7.55961 4.06291 7.74715C4.25045 7.93468 4.5048 8.04004 4.77002 8.04004Z" fill="black"/>
</svg>
