<svg width="25" height="25" viewBox="0 0 25 25" fill="none" xmlns="http://www.w3.org/2000/svg">
<path d="M22.7946 0H0.911785L0 0.911785V19.0882L0.911785 20H22.7946L23.7064 19.0882V0.911785L22.7946 0ZM21.8828 1.82357V10.3442L18.2357 7.3581L17.0413 7.39457L14.7253 9.52815L12.2498 7.70458L11.1238 7.74105L4.74128 13.075L1.82357 11.0691V1.82357H21.8828ZM1.82357 18.1764V13.2938L4.2398 14.9806L5.34306 14.9305L11.7392 9.61021L14.2466 11.4338L15.4046 11.37L17.6841 9.25917L21.8828 12.6966V18.1673L1.82357 18.1764Z" fill="#313131"/>
<path d="M5.96307 9.22726C6.9702 9.22726 7.78664 8.41082 7.78664 7.40369C7.78664 6.39656 6.9702 5.58012 5.96307 5.58012C4.95594 5.58012 4.1395 6.39656 4.1395 7.40369C4.1395 8.41082 4.95594 9.22726 5.96307 9.22726Z" fill="#313131"/>
</svg>
