<svg width="16" height="16" viewBox="0 0 16 16" fill="none" xmlns="http://www.w3.org/2000/svg">
<path d="M12.3899 6.90206H11.1969V4.70506C11.1969 3.85716 10.86 3.04399 10.2605 2.44444C9.66093 1.84488 8.84776 1.50806 7.99986 1.50806C7.15197 1.50806 6.3388 1.84488 5.73924 2.44444C5.13969 3.04399 4.80286 3.85716 4.80286 4.70506V6.90206H3.60986L3.10986 7.40206V14.0001L3.60986 14.5001H12.3899L12.8899 14.0001V7.40206L12.3899 6.90206ZM5.80286 4.70506C5.80286 4.12238 6.03433 3.56356 6.44635 3.15154C6.85837 2.73953 7.41718 2.50806 7.99986 2.50806C8.58254 2.50806 9.14136 2.73953 9.55338 3.15154C9.96539 3.56356 10.1969 4.12238 10.1969 4.70506V6.90206H5.80286V4.70506ZM11.8899 13.5001H4.10986V7.90206H11.8899V13.5001Z" fill="black"/>
<path d="M7.99994 8.94995C7.782 8.94945 7.57031 9.02274 7.39933 9.15788C7.22835 9.29302 7.10815 9.48206 7.0583 9.69421C7.00845 9.90637 7.03188 10.1292 7.12478 10.3263C7.21768 10.5234 7.37458 10.6833 7.56994 10.78V12.35H8.42994V10.78C8.62529 10.6833 8.78219 10.5234 8.87509 10.3263C8.96799 10.1292 8.99142 9.90637 8.94157 9.69421C8.89172 9.48206 8.77152 9.29302 8.60054 9.15788C8.42956 9.02274 8.21787 8.94945 7.99994 8.94995Z" fill="black"/>
</svg>
