<svg width="29" height="30" viewBox="0 0 29 30" fill="none" xmlns="http://www.w3.org/2000/svg">
<path d="M25.375 6.57025H22.6562V4.75775L21.4328 3.9104L14.5 6.50681L7.56719 3.9104L6.34375 4.75775V6.57025H3.625L2.71875 7.4765V25.6015L3.625 26.5078H25.375L26.2812 25.6015V7.4765L25.375 6.57025ZM15.4062 8.10635L20.8438 6.06728V21.4101L15.4062 24.1289V8.10635ZM8.15625 6.06728L13.5938 8.10635V24.1153L8.15625 21.3965V6.06728ZM4.53125 8.38276H6.34375V21.9765L6.84672 22.7876L10.6394 24.6953H4.53125V8.38276ZM24.4688 24.6953H18.3606L22.1533 22.8058L22.6562 21.9765V8.38276H24.4688V24.6953Z" fill="black"/>
</svg>
