<svg width="15" height="12" viewBox="0 0 15 12" fill="none" xmlns="http://www.w3.org/2000/svg">
<path d="M12.0951 8.14753L14.2501 6.00003L12.1026 3.85253L11.3951 4.56003L12.3276 5.50003H8.91755C8.84671 5.12553 8.69576 4.77077 8.47506 4.46003L10.8426 2.00003L10.8651 3.32753L11.8651 3.31003L11.8101 0.280029L8.77505 0.337529L8.79255 1.33753L10.1226 1.31503L7.75006 3.76753C7.38378 3.52814 6.96416 3.38271 6.5283 3.34411C6.09244 3.30551 5.65378 3.37492 5.25114 3.54621C4.84849 3.7175 4.49427 3.98539 4.21981 4.32617C3.94534 4.66695 3.7591 5.07013 3.67755 5.50003H3.09256C2.97379 5.14278 2.73175 4.83947 2.40976 4.6444C2.08777 4.44933 1.70686 4.37524 1.33523 4.43539C0.963598 4.49555 0.62551 4.68601 0.381499 4.9727C0.137487 5.25938 0.00348473 5.62356 0.00348473 6.00003C0.00348473 6.3765 0.137487 6.74068 0.381499 7.02736C0.62551 7.31404 0.963598 7.50451 1.33523 7.56467C1.70686 7.62482 2.08777 7.55073 2.40976 7.35566C2.73175 7.16059 2.97379 6.85728 3.09256 6.50003H3.67755C3.7591 6.92993 3.94534 7.3331 4.21981 7.67389C4.49427 8.01467 4.84849 8.28256 5.25114 8.45385C5.65378 8.62514 6.09244 8.69455 6.5283 8.65595C6.96416 8.61735 7.38378 8.47192 7.75006 8.23253L10.1176 10.6875L8.78756 10.665L8.77006 11.665L11.8051 11.7225L11.8601 8.68753L10.8601 8.67003L10.8426 10L8.47506 7.54003C8.69576 7.22929 8.84671 6.87453 8.91755 6.50003H12.3276L11.3876 7.44003L12.0951 8.14753ZM1.59505 6.58503C1.47914 6.58602 1.36555 6.55255 1.26869 6.48888C1.17184 6.4252 1.09608 6.33419 1.05103 6.22739C1.00599 6.12058 0.993687 6.0028 1.01569 5.889C1.0377 5.77519 1.09301 5.67049 1.17463 5.58817C1.25624 5.50586 1.36046 5.44964 1.47408 5.42666C1.58769 5.40368 1.70557 5.41497 1.81275 5.4591C1.91994 5.50322 2.0116 5.5782 2.07611 5.67451C2.14061 5.77082 2.17505 5.88412 2.17505 6.00003C2.17506 6.15475 2.11377 6.30317 2.0046 6.41281C1.89543 6.52244 1.74727 6.58437 1.59255 6.58503H1.59505ZM4.63005 6.00003C4.63006 5.66963 4.72806 5.34665 4.91167 5.07197C5.09529 4.79728 5.35625 4.58324 5.66155 4.45691C5.96685 4.33059 6.30276 4.29766 6.62678 4.3623C6.95079 4.42694 7.24835 4.58624 7.48181 4.82005C7.71526 5.05385 7.87412 5.35165 7.93827 5.67576C8.00243 5.99988 7.969 6.33574 7.84222 6.64085C7.71543 6.94595 7.501 7.2066 7.22604 7.3898C6.95108 7.573 6.62796 7.67052 6.29756 7.67003C5.85508 7.66937 5.43095 7.49313 5.1183 7.18001C4.80566 6.8669 4.63005 6.44251 4.63005 6.00003Z" fill="black"/>
</svg>
