<svg width="16" height="16" viewBox="0 0 16 16" fill="none" xmlns="http://www.w3.org/2000/svg">
<path fill-rule="evenodd" clip-rule="evenodd" d="M7.99748 1.48769C4.40848 1.48769 1.49748 4.47144 1.49748 8.15269C1.48766 9.53847 1.91082 10.8927 2.70788 12.0264C3.50495 13.16 4.63613 14.0165 5.94348 14.4762C6.26848 14.5372 6.38698 14.3314 6.38698 14.1549C6.38698 13.9967 6.38148 13.5777 6.37823 13.0214C4.57023 13.4242 4.18873 12.1279 4.18873 12.1279C3.89323 11.3582 3.46698 11.1529 3.46698 11.1529C2.87673 10.7394 3.51173 10.7477 3.51173 10.7477C3.71918 10.7784 3.91682 10.8562 4.08942 10.9754C4.26202 11.0945 4.40496 11.2516 4.50723 11.4347C5.08698 12.4529 6.02848 12.1597 6.39898 11.9884C6.42767 11.6522 6.57379 11.3368 6.81173 11.0974C5.36823 10.9294 3.84998 10.3577 3.84998 7.80369C3.83935 7.14454 4.07833 6.50575 4.51898 6.01544C4.32055 5.43999 4.34327 4.81131 4.58273 4.25169C4.58273 4.25169 5.12848 4.07244 6.36998 4.93494C7.43425 4.6356 8.56046 4.6356 9.62473 4.93494C10.8655 4.07244 11.4102 4.25169 11.4102 4.25169C11.6502 4.81115 11.6733 5.43989 11.475 6.01544C11.9157 6.50566 12.1545 7.14458 12.1432 7.80369C12.1432 10.3639 10.6235 10.9287 9.17548 11.0924C9.33133 11.2558 9.45114 11.4501 9.52715 11.6627C9.60316 11.8753 9.63368 12.1015 9.61673 12.3267C9.61673 13.2177 9.60873 13.9364 9.60873 14.1549C9.60873 14.3332 9.72573 14.5404 10.0557 14.4754C11.3622 14.015 12.4923 13.1584 13.2887 12.0249C14.085 10.8915 14.5077 9.53785 14.498 8.15269C14.498 4.47144 11.5875 1.48769 7.99748 1.48769Z" fill="black"/>
<path d="M2.99998 7.27144C2.99998 7.29369 3.00148 7.31569 3.00173 7.33819C3.00173 7.31194 2.99998 7.28569 3.00023 7.25969L2.99998 7.27144Z" fill="black"/>
<path d="M14.5 7.27144C14.5 7.25344 14.4987 7.23619 14.4987 7.21844C14.4987 7.26369 14.4987 7.30869 14.4987 7.35394C14.4982 7.32619 14.5 7.29994 14.5 7.27144Z" fill="black"/>
<path d="M14.5 7.18294C14.5 7.16294 14.498 7.14294 14.4975 7.12294C14.4975 7.15469 14.4997 7.18644 14.5 7.21844C14.4985 7.20644 14.5 7.19494 14.5 7.18294Z" fill="black"/>
</svg>
