<svg width="17" height="20" viewBox="0 0 17 20" fill="none" xmlns="http://www.w3.org/2000/svg">
<path d="M7.04467 2.43986L6.1512 3.81443H1.37457V16.1856H5.36083L5.12028 17.5601H0.687285L0 16.8729V3.12715L0.687285 2.43986H7.04467ZM11.3746 2.43986H15.8076L16.4948 3.12715V16.8729L15.8076 17.5601H9.45017L10.3436 16.1856H15.1203V3.81443H11.134L11.3746 2.43986Z" fill="#313131"/>
<path d="M7.07904 12.0619H3.09278L2.50859 10.9966L9.65636 0L10.8935 0.515464L9.41581 7.93814H13.4021L13.9863 9.00344L6.83849 20L5.60137 19.4845L7.07904 12.0619Z" fill="#313131"/>
<path d="M2.37113 5.2921C2.63684 5.2921 2.85223 5.0767 2.85223 4.811C2.85223 4.54529 2.63684 4.3299 2.37113 4.3299C2.10543 4.3299 1.89003 4.54529 1.89003 4.811C1.89003 5.0767 2.10543 5.2921 2.37113 5.2921Z" fill="#313131"/>
<path d="M3.64261 5.2921C3.90832 5.2921 4.12371 5.0767 4.12371 4.811C4.12371 4.54529 3.90832 4.3299 3.64261 4.3299C3.37691 4.3299 3.16151 4.54529 3.16151 4.811C3.16151 5.0767 3.37691 5.2921 3.64261 5.2921Z" fill="#313131"/>
<path d="M4.91409 5.2921C5.17979 5.2921 5.39519 5.0767 5.39519 4.811C5.39519 4.54529 5.17979 4.3299 4.91409 4.3299C4.64839 4.3299 4.43299 4.54529 4.43299 4.811C4.43299 5.0767 4.64839 5.2921 4.91409 5.2921Z" fill="#313131"/>
</svg>
