<svg width="16" height="16" viewBox="0 0 16 16" fill="none" xmlns="http://www.w3.org/2000/svg">
<path d="M7.125 2.5L6.475 3.5H3V12.5H5.9L5.725 13.5H2.5L2 13V3L2.5 2.5H7.125ZM10.275 2.5H13.5L14 3V13L13.5 13.5H8.875L9.525 12.5H13V3.5H10.1L10.275 2.5Z" fill="black"/>
<path d="M7.15 9.49998H4.25L3.825 8.72498L9.025 0.724976L9.925 1.09998L8.85 6.49998H11.75L12.175 7.27498L6.975 15.275L6.075 14.9L7.15 9.49998ZM3.725 4.57498C3.81783 4.57498 3.90685 4.5381 3.97249 4.47246C4.03813 4.40683 4.075 4.3178 4.075 4.22498C4.075 4.13215 4.03813 4.04313 3.97249 3.97749C3.90685 3.91185 3.81783 3.87498 3.725 3.87498C3.63217 3.87498 3.54315 3.91185 3.47751 3.97749C3.41187 4.04313 3.375 4.13215 3.375 4.22498C3.375 4.3178 3.41187 4.40683 3.47751 4.47246C3.54315 4.5381 3.63217 4.57498 3.725 4.57498ZM4.65 4.57498C4.74283 4.57498 4.83185 4.5381 4.89749 4.47246C4.96312 4.40683 5 4.3178 5 4.22498C5 4.13215 4.96312 4.04313 4.89749 3.97749C4.83185 3.91185 4.74283 3.87498 4.65 3.87498C4.55717 3.87498 4.46815 3.91185 4.40251 3.97749C4.33687 4.04313 4.3 4.13215 4.3 4.22498C4.3 4.3178 4.33687 4.40683 4.40251 4.47246C4.46815 4.5381 4.55717 4.57498 4.65 4.57498ZM5.575 4.57498C5.66783 4.57498 5.75685 4.5381 5.82249 4.47246C5.88813 4.40683 5.925 4.3178 5.925 4.22498C5.925 4.13215 5.88813 4.04313 5.82249 3.97749C5.75685 3.91185 5.66783 3.87498 5.575 3.87498C5.48217 3.87498 5.39315 3.91185 5.32751 3.97749C5.26188 4.04313 5.225 4.13215 5.225 4.22498C5.225 4.3178 5.26188 4.40683 5.32751 4.47246C5.39315 4.5381 5.48217 4.57498 5.575 4.57498Z" fill="black"/>
</svg>
