<svg width="16" height="16" viewBox="0 0 16 16" fill="none" xmlns="http://www.w3.org/2000/svg">
<path fill-rule="evenodd" clip-rule="evenodd" d="M12.25 4.5H3.75V3.5H12.25V4.5ZM9.5 10.5L9.5 5.5L10.5 5.5L10.5 10.5H9.5ZM5.5 10.5L5.5 5.5H6.5L6.5 10.5H5.5ZM7.5 10.5L7.5 5.5H8.5L8.5 10.5H7.5ZM3.29284 7.5L2.39644 6.60354L3.10356 5.89646L5.20711 8.00012L3.10354 10.1036L2.39646 9.39644L3.29294 8.5H1.5V7.5H3.29284ZM12.7928 7.5L11.8964 6.60354L12.6036 5.89646L14.7071 8.00012L12.6035 10.1036L11.8965 9.39644L12.7929 8.5L11 8.5V7.5L12.7928 7.5ZM12.25 12.5H3.75V11.5H12.25V12.5Z" fill="black"/>
</svg>
