<svg width="25" height="25" viewBox="0 0 102 68" fill="none" xmlns="http://www.w3.org/2000/svg">
<path d="M27.8594 33.7189L12.6324 18.8522L8.41802 23.1688L15.362 29.9484L3.77042 29.9484C1.68808 29.9484 4.8156e-06 31.6365 4.84044e-06 33.7188V33.7188C4.86527e-06 35.8012 1.68807 37.4893 3.77042 37.4893L15.3621 37.4893L8.41957 44.2674L12.6339 48.584L27.8594 33.7189Z" fill="#313131"/>
<path d="M102 33.7189L86.773 18.8522L82.5586 23.1688L89.5027 29.9484L77.911 29.9484C75.8287 29.9484 74.1406 31.6365 74.1406 33.7188V33.7188C74.1406 35.8012 75.8287 37.4893 77.911 37.4893L89.5027 37.4893L82.5602 44.2674L86.7745 48.584L102 33.7189Z" fill="#313131"/>
<rect x="19.3804" width="60.3267" height="7.54083" rx="3.77042" fill="#313131"/>
<rect x="19.3804" y="60.3262" width="60.3267" height="7.54083" rx="3.77042" fill="#313131"/>
<path d="M34.4627 18.8522C36.5451 18.8522 38.2332 20.5403 38.2332 22.6226L38.2331 45.2452C38.2331 47.3275 36.5451 49.0156 34.4627 49.0156V49.0156C32.3804 49.0156 30.6923 47.3275 30.6923 45.2452L30.6923 22.6226C30.6923 20.5403 32.3804 18.8522 34.4627 18.8522V18.8522Z" fill="#313131"/>
<path d="M49.5444 18.8522C51.6267 18.8522 53.3148 20.5403 53.3148 22.6227L53.3148 45.2452C53.3148 47.3275 51.6267 49.0156 49.5444 49.0156V49.0156C47.4621 49.0156 45.774 47.3275 45.774 45.2452L45.774 22.6227C45.774 20.5403 47.4621 18.8522 49.5444 18.8522V18.8522Z" fill="#313131"/>
<path d="M64.6261 18.8522C66.7084 18.8522 68.3965 20.5403 68.3965 22.6227L68.3965 45.2452C68.3965 47.3275 66.7084 49.0156 64.6261 49.0156V49.0156C62.5437 49.0156 60.8556 47.3275 60.8556 45.2452L60.8557 22.6227C60.8557 20.5403 62.5437 18.8522 64.6261 18.8522V18.8522Z" fill="#313131"/>
</svg>
