<svg width="16" height="16" viewBox="0 0 16 16" fill="none" xmlns="http://www.w3.org/2000/svg">
<path fill-rule="evenodd" clip-rule="evenodd" d="M12.116 2.57C11.143 2.244 9.732 2.024 8.125 2.024C6.518 2.024 5.107 2.244 4.135 2.569C3.643 2.733 3.321 2.906 3.143 3.047C3.11422 3.0693 3.08683 3.09335 3.061 3.119C3.081 3.188 3.139 3.277 3.286 3.387C3.496 3.545 3.834 3.7 4.311 3.835C5.258 4.101 6.603 4.244 8.125 4.244C9.647 4.244 10.992 4.101 11.939 3.834C12.416 3.7 12.755 3.544 12.964 3.387C13.111 3.277 13.168 3.187 13.189 3.119C13.1632 3.09333 13.1358 3.06929 13.107 3.047C12.929 2.906 12.607 2.734 12.116 2.57ZM4.02 4.818C3.68513 4.72778 3.36017 4.60416 3.05 4.449V6.206C3.05 6.285 3.089 6.412 3.3 6.583C3.514 6.756 3.856 6.93 4.33 7.083C5.274 7.389 6.614 7.573 8.125 7.573C9.635 7.573 10.975 7.389 11.919 7.083C12.393 6.93 12.736 6.756 12.949 6.583C13.161 6.412 13.2 6.285 13.2 6.206V4.45C12.8898 4.60516 12.5649 4.72878 12.23 4.819C11.15 5.123 9.696 5.269 8.125 5.269C6.554 5.269 5.099 5.122 4.02 4.818ZM14.25 6.206V3.05C14.25 1.917 11.508 1 8.125 1C4.742 1 2 1.917 2 3.049V12.95C2 14.083 4.742 15 8.125 15C11.508 15 14.25 14.083 14.25 12.951V6.206ZM13.2 7.654C12.92 7.811 12.598 7.944 12.25 8.057C11.167 8.407 9.707 8.597 8.125 8.597C6.543 8.597 5.083 8.407 4 8.057C3.67089 7.95414 3.35269 7.81916 3.05 7.654V9.366C3.05 9.444 3.089 9.571 3.3 9.742C3.514 9.915 3.856 10.09 4.33 10.243C5.274 10.549 6.614 10.732 8.125 10.732C9.635 10.732 10.975 10.549 11.919 10.243C12.393 10.09 12.736 9.915 12.949 9.743C13.161 9.571 13.2 9.444 13.2 9.366V7.654ZM4 11.215C3.67087 11.1122 3.35267 10.9772 3.05 10.812V12.87C3.068 12.889 3.097 12.916 3.143 12.953C3.321 13.094 3.643 13.267 4.135 13.431C5.107 13.756 6.518 13.976 8.125 13.976C9.732 13.976 11.143 13.756 12.115 13.431C12.607 13.267 12.929 13.094 13.107 12.953C13.1401 12.9278 13.1712 12.9 13.2 12.87V10.812C12.8973 10.9772 12.5791 11.1122 12.25 11.215C11.167 11.566 9.707 11.756 8.125 11.756C6.543 11.756 5.083 11.565 4 11.215ZM13.224 12.839C13.224 12.839 13.224 12.841 13.22 12.845C13.2211 12.8428 13.2224 12.8408 13.224 12.839ZM3.026 12.839L3.03 12.845C3.02837 12.8432 3.02702 12.8412 3.026 12.839ZM4.625 6.549C4.915 6.549 5.15 6.319 5.15 6.037C5.14922 5.96884 5.13502 5.90151 5.10821 5.83884C5.0814 5.77617 5.04251 5.7194 4.99376 5.67176C4.945 5.62412 4.88735 5.58655 4.82407 5.5612C4.7608 5.53585 4.69316 5.52321 4.625 5.524C4.335 5.524 4.1 5.754 4.1 6.037C4.1 6.319 4.335 6.549 4.625 6.549ZM5.15 9.28C5.14922 9.34816 5.13502 9.41549 5.10821 9.47816C5.0814 9.54083 5.04251 9.5976 4.99376 9.64524C4.945 9.69288 4.88735 9.73045 4.82407 9.7558C4.7608 9.78115 4.69316 9.79379 4.625 9.793C4.55684 9.79379 4.4892 9.78115 4.42593 9.7558C4.36265 9.73045 4.305 9.69288 4.25624 9.64524C4.20749 9.5976 4.1686 9.54083 4.14179 9.47816C4.11498 9.41549 4.10078 9.34816 4.1 9.28C4.1 8.998 4.335 8.768 4.625 8.768C4.915 8.768 5.15 8.998 5.15 9.28ZM4.625 12.951C4.915 12.951 5.15 12.721 5.15 12.439C5.14816 12.3015 5.09184 12.1704 4.99341 12.0744C4.89498 11.9784 4.76248 11.9254 4.625 11.927C4.335 11.927 4.1 12.157 4.1 12.439C4.1 12.722 4.335 12.951 4.625 12.951Z" fill="black"/>
</svg>
