<svg width="18" height="20" viewBox="0 0 18 20" fill="none" xmlns="http://www.w3.org/2000/svg">
<path fill-rule="evenodd" clip-rule="evenodd" d="M14.4514 2.24286C13.0614 1.77714 11.0457 1.46286 8.75 1.46286C6.45429 1.46286 4.43857 1.77714 3.05 2.24143C2.34714 2.47571 1.88714 2.72286 1.63286 2.92429C1.59174 2.95614 1.55262 2.99049 1.51571 3.02714C1.54429 3.12571 1.62714 3.25286 1.83714 3.41C2.13714 3.63571 2.62 3.85714 3.30143 4.05C4.65429 4.43 6.57571 4.63429 8.75 4.63429C10.9243 4.63429 12.8457 4.43 14.1986 4.04857C14.88 3.85714 15.3643 3.63429 15.6629 3.41C15.8729 3.25286 15.9543 3.12429 15.9843 3.02714C15.9474 2.99048 15.9083 2.95613 15.8671 2.92429C15.6129 2.72286 15.1529 2.47571 14.4514 2.24143V2.24286ZM2.88571 5.45429C2.40733 5.3254 1.94309 5.1488 1.5 4.92714V7.43714C1.5 7.55 1.55571 7.73143 1.85714 7.97571C2.16286 8.22286 2.65143 8.47143 3.32857 8.69C4.67714 9.12714 6.59143 9.39 8.75 9.39C10.9071 9.39 12.8214 9.12714 14.17 8.69C14.8471 8.47143 15.3371 8.22286 15.6414 7.97571C15.9443 7.73143 16 7.55 16 7.43714V4.92857C15.5569 5.15023 15.0927 5.32683 14.6143 5.45571C13.0714 5.89 10.9943 6.09857 8.75 6.09857C6.50571 6.09857 4.42714 5.89 2.88571 5.45571V5.45429ZM17.5 7.43714V2.92857C17.5 1.31 13.5829 0 8.75 0C3.91714 0 0 1.31 0 2.92714V17.0714C0 18.69 3.91714 20 8.75 20C13.5829 20 17.5 18.69 17.5 17.0729V7.43857V7.43714ZM16 9.50571C15.6 9.73 15.14 9.92 14.6429 10.0814C13.0957 10.5814 11.01 10.8529 8.75 10.8529C6.49 10.8529 4.40429 10.5814 2.85714 10.0814C2.38698 9.93449 1.93241 9.74165 1.5 9.50571V11.9514C1.5 12.0629 1.55571 12.2443 1.85714 12.4886C2.16286 12.7357 2.65143 12.9857 3.32857 13.2043C4.67714 13.6414 6.59143 13.9029 8.75 13.9029C10.9071 13.9029 12.8214 13.6414 14.17 13.2043C14.8471 12.9857 15.3371 12.7357 15.6414 12.49C15.9443 12.2443 16 12.0629 16 11.9514V9.50571ZM2.85714 14.5929C2.38696 14.446 1.93239 14.2531 1.5 14.0171V16.9571C1.52571 16.9843 1.56714 17.0229 1.63286 17.0757C1.88714 17.2771 2.34714 17.5243 3.05 17.7586C4.43857 18.2229 6.45429 18.5371 8.75 18.5371C11.0457 18.5371 13.0614 18.2229 14.45 17.7586C15.1529 17.5243 15.6129 17.2771 15.8671 17.0757C15.9144 17.0397 15.9588 17 16 16.9571V14.0171C15.5676 14.2532 15.113 14.446 14.6429 14.5929C13.0957 15.0943 11.01 15.3657 8.75 15.3657C6.49 15.3657 4.40429 15.0943 2.85714 14.5943V14.5929ZM16.0343 16.9129C16.0343 16.9129 16.0343 16.9157 16.0286 16.9214C16.0301 16.9183 16.032 16.9155 16.0343 16.9129ZM1.46571 16.9129L1.47143 16.9214C1.4691 16.9189 1.46718 16.916 1.46571 16.9129ZM3.75 7.92714C4.16429 7.92714 4.5 7.59857 4.5 7.19571C4.49888 7.09835 4.47859 7.00215 4.4403 6.91263C4.402 6.8231 4.34644 6.74199 4.27679 6.67394C4.20715 6.60589 4.12478 6.55222 4.03439 6.516C3.944 6.47978 3.84737 6.46173 3.75 6.46286C3.33571 6.46286 3 6.79143 3 7.19571C3 7.59857 3.33571 7.92714 3.75 7.92714ZM4.5 11.8286C4.49888 11.9259 4.47859 12.0221 4.4403 12.1117C4.402 12.2012 4.34644 12.2823 4.27679 12.3503C4.20715 12.4184 4.12478 12.4721 4.03439 12.5083C3.944 12.5445 3.84737 12.5626 3.75 12.5614C3.65263 12.5626 3.556 12.5445 3.46561 12.5083C3.37522 12.4721 3.29285 12.4184 3.22321 12.3503C3.15356 12.2823 3.098 12.2012 3.0597 12.1117C3.02141 12.0221 3.00112 11.9259 3 11.8286C3 11.4257 3.33571 11.0971 3.75 11.0971C4.16429 11.0971 4.5 11.4257 4.5 11.8286ZM3.75 17.0729C4.16429 17.0729 4.5 16.7443 4.5 16.3414C4.49736 16.145 4.41691 15.9577 4.27629 15.8206C4.13568 15.6834 3.9464 15.6077 3.75 15.61C3.33571 15.61 3 15.9386 3 16.3414C3 16.7457 3.33571 17.0729 3.75 17.0729Z" fill="#313131"/>
</svg>
