<svg width="16" height="16" viewBox="0 0 16 16" fill="none" xmlns="http://www.w3.org/2000/svg">
<path d="M5 8.5V7H4V8.5H5ZM6.75 8.5H5.75V5.5H6.75V8.5ZM8.5 8.5V4H7.5V8.5H8.5Z" fill="black"/>
<path fill-rule="evenodd" clip-rule="evenodd" d="M3.72215 2.343C4.5444 1.79344 5.51116 1.50007 6.50015 1.5C7.82583 1.50132 9.09683 2.02853 10.0342 2.96593C10.9716 3.90332 11.4988 5.17432 11.5002 6.5C11.5 7.65331 11.1011 8.77111 10.3712 9.664L14.4792 13.771L13.7722 14.479L9.66415 10.371C9.13991 10.797 8.53478 11.1123 7.88529 11.2979C7.23581 11.4835 6.55545 11.5355 5.88528 11.4509C5.21512 11.3663 4.56907 11.1467 3.98613 10.8054C3.40319 10.4641 2.89546 10.0083 2.4936 9.46534C2.09173 8.9224 1.80407 8.30364 1.64799 7.64644C1.4919 6.98924 1.47062 6.30722 1.58545 5.64156C1.70027 4.97591 1.9488 4.34043 2.31604 3.77349C2.68328 3.20656 3.16161 2.71993 3.72215 2.343ZM6.50015 2.5C5.43928 2.5 4.42187 2.92143 3.67172 3.67157C2.92158 4.42172 2.50015 5.43913 2.50015 6.5C2.50015 7.56087 2.92158 8.57828 3.67172 9.32843C4.42187 10.0786 5.43928 10.5 6.50015 10.5C7.56102 10.5 8.57843 10.0786 9.32858 9.32843C10.0787 8.57828 10.5002 7.56087 10.5002 6.5C10.5002 5.43913 10.0787 4.42172 9.32858 3.67157C8.57843 2.92143 7.56102 2.5 6.50015 2.5Z" fill="black"/>
</svg>
