<svg width="25" height="25" viewBox="0 0 25 25" fill="none" xmlns="http://www.w3.org/2000/svg">
<path d="M14.3339 13.6449C14.3883 13.6352 14.4427 13.6267 14.4964 13.6155C14.6893 13.5769 14.8823 13.5299 15.071 13.4739C15.105 13.4643 15.1378 13.4515 15.1713 13.4411C15.3303 13.3914 15.4876 13.336 15.643 13.2748C15.6993 13.2526 15.7553 13.2299 15.8108 13.2065C15.9606 13.1428 16.108 13.0745 16.2531 13.0004C16.2898 12.9818 16.3268 12.9652 16.3631 12.9459C16.5395 12.8522 16.7104 12.7495 16.8803 12.6399C16.9235 12.6117 16.9652 12.5812 17.0076 12.5523C17.1378 12.4633 17.2652 12.3696 17.3897 12.2713C17.436 12.2347 17.4823 12.1988 17.5278 12.1606C17.6857 12.029 17.8404 11.8904 17.9879 11.7449C19.0338 10.7068 19.7168 9.35883 19.9353 7.90145C20.1539 6.44407 19.8963 4.95508 19.2009 3.65581L17.9736 3.47288L14.6407 6.80231L13.2 5.36163L16.5294 2.02872L16.3446 0.801461C15.1115 0.147902 13.7089 -0.115404 12.3228 0.0464604C10.9367 0.208324 9.63246 0.787711 8.58316 1.70779C7.53386 2.62787 6.78903 3.84517 6.44743 5.19827C6.10583 6.55137 6.1836 7.97635 6.67044 9.28423L0 15.9562V17.0476L2.95237 20H4.04379L10.7177 13.3296C10.8952 13.3956 11.0751 13.4515 11.2557 13.5021C11.3136 13.5183 11.3715 13.5314 11.4297 13.5461C11.5548 13.5773 11.6802 13.6063 11.8064 13.6306C11.8728 13.6435 11.9392 13.6552 12.0056 13.6657C12.1294 13.6858 12.2533 13.7016 12.3776 13.7151C12.4401 13.7217 12.5022 13.7294 12.5648 13.7344C12.722 13.7468 12.8789 13.7536 13.0356 13.7549C13.0599 13.7549 13.0838 13.7579 13.1082 13.7579H13.1182C13.3166 13.7579 13.5142 13.7464 13.7114 13.729C13.7693 13.724 13.8271 13.717 13.8847 13.7105C14.0354 13.6935 14.1852 13.6716 14.3339 13.6449ZM3.49847 18.3629L1.63751 16.5019L8.51094 9.6281L8.28247 9.13873C7.84862 8.20808 7.6922 7.17209 7.83193 6.15483C7.97167 5.13757 8.40164 4.18213 9.07036 3.40293C9.73909 2.62373 10.6182 2.05378 11.6025 1.76132C12.5868 1.46887 13.6345 1.46631 14.6202 1.75394L11.5625 4.81476V5.90424L14.0942 8.43596H15.1852L18.2461 5.37822C18.5341 6.3638 18.532 7.41152 18.2399 8.39592C17.9479 9.38032 17.3783 10.2597 16.5994 10.9287C15.8205 11.5978 14.8652 12.0282 13.848 12.1683C12.8308 12.3085 11.7948 12.1525 10.864 11.7191L10.3746 11.4906L3.49847 18.3629Z" fill="#313131"/>
</svg>
