<svg width="16" height="16" xmlns="http://www.w3.org/2000/svg" viewBox="0 0 24 24"><path d="M19.46 14.81a4.49 4.49 0 0 0-3.6 1.81l-6.93-3.4c.2-.78.2-1.6-.02-2.38l6.87-3.56a4.53 4.53 0 0 0 5.95 1.3 4.66 4.66 0 0 0-.44-8.2 4.48 4.48 0 0 0-5.78 1.95c-.55 1-.72 2.16-.47 3.27L8.08 9.2a4.53 4.53 0 0 0-5.06-1.46A4.54 4.54 0 0 0 0 12.11a4.64 4.64 0 0 0 3.1 4.32 4.49 4.49 0 0 0 5.03-1.55l6.93 3.4a4.65 4.65 0 0 0 1.92 4.97 4.49 4.49 0 0 0 6.82-2.53 4.66 4.66 0 0 0-1.7-5.05 4.5 4.5 0 0 0-2.64-.86zm0-12.96a2.7 2.7 0 0 1 2.52 1.7 2.8 2.8 0 0 1-.6 3.01 2.7 2.7 0 0 1-4.18-.42 2.79 2.79 0 0 1 .34-3.48c.5-.52 1.2-.8 1.92-.8zM4.54 14.83a2.7 2.7 0 0 1-2.51-1.7 2.8 2.8 0 0 1 .59-3 2.69 2.69 0 0 1 4.19.41 2.8 2.8 0 0 1-.34 3.49c-.5.51-1.2.8-1.92.8zm14.92 7.34a2.7 2.7 0 0 1-2.52-1.7 2.8 2.8 0 0 1 .6-3.01 2.69 2.69 0 0 1 4.18.42c.72 1.1.58 2.54-.34 3.48-.5.51-1.2.8-1.92.8z"/></svg>