<svg width="25" height="25" viewBox="0 0 30 19" fill="none" xmlns="http://www.w3.org/2000/svg">
<path d="M28.0279 9.08367C26.981 8.20654 25.6459 7.75149 24.2827 7.80717C24.0082 5.83256 23.0914 4.00393 21.6746 2.60484C20.2577 1.20574 18.42 0.314357 16.4463 0.0689132C14.4727 -0.176531 12.4734 0.237677 10.7585 1.24731C9.04355 2.25694 7.70885 3.80558 6.96132 5.65308C5.31607 5.54709 3.69376 6.08359 2.43436 7.15015C1.68215 7.78452 1.07529 8.57409 0.655185 9.46497C0.235075 10.3559 0.0115987 11.3271 1.68799e-06 12.3125C-0.00125273 14.0808 0.696693 15.7776 1.94095 17.031C3.1852 18.2845 4.87433 18.9925 6.6383 19H24.3716C25.5216 19.0022 26.6444 18.6505 27.5886 17.9926C28.5329 17.3346 29.2529 16.4021 29.6516 15.3208C30.0502 14.2396 30.1083 13.0617 29.8179 11.9463C29.5276 10.8309 28.9028 9.83174 28.0279 9.08367ZM24.3716 17.1228H6.64298C5.37727 17.1166 4.16536 16.6088 3.27167 15.7103C2.37798 14.8118 1.87504 13.5954 1.87258 12.3265C1.87916 11.6101 2.0403 10.9037 2.34495 10.2556C2.6496 9.60753 3.09054 9.03323 3.63749 8.57213C4.45288 7.88262 5.48732 7.5081 6.55404 7.5162C6.85229 7.51652 7.14994 7.54321 7.44351 7.59598L8.25809 7.74146L8.49684 6.94835C9.00756 5.3386 10.0684 3.96108 11.4926 3.05831C12.9168 2.15554 14.6131 1.7854 16.2828 2.01306C17.9525 2.24072 19.4885 3.05158 20.6204 4.30288C21.7524 5.55418 22.4077 7.1657 22.471 8.85371L22.5178 9.94249L23.5758 9.77354C24.1374 9.65062 24.7194 9.65509 25.2791 9.78663C25.8388 9.91817 26.3621 10.1735 26.8107 10.5338C27.2146 10.8924 27.5376 11.3332 27.7579 11.8269C27.9783 12.3206 28.0911 12.8557 28.0887 13.3965C28.0814 14.3825 27.6874 15.326 26.9919 16.0233C26.2964 16.7205 25.3552 17.1154 24.3716 17.1228Z" fill="#222222"/>
<path fill-rule="evenodd" clip-rule="evenodd" d="M12.0406 6.60317L13.4541 5.79562L20.5167 9.98962L20.5181 11.6039L13.4555 15.8148L12.0406 15.0081V6.60317ZM13.9132 8.25008V13.3578L18.2052 10.7988L13.9132 8.25008Z" fill="#222222"/>
</svg>
