<svg width="31" height="30" viewBox="0 0 31 30" fill="none" xmlns="http://www.w3.org/2000/svg">
<path d="M26.14 16.4741L26.8454 16.0135C26.9475 15.3567 27.0005 14.6842 27.0005 14C27.0005 6.8203 21.1802 1 14.0005 1C6.82079 1 1.00049 6.8203 1.00049 14C1.00049 21.1797 6.82079 27 14.0005 27C16.6523 27 19.1214 26.205 21.1788 24.84L21.3295 24.3007C21.5035 24.6395 21.6848 24.9657 21.8624 25.2697C22.2452 25.9253 22.6258 26.5034 22.9097 26.9168C23.0521 27.1242 23.1715 27.292 23.2564 27.4094L24.0646 26.8249L23.2564 27.4094C23.2989 27.4681 23.3328 27.5143 23.3567 27.5467L23.3579 27.5484L23.3834 27.5827L23.3856 27.5856L23.3924 27.5948L23.3935 27.5963L23.3962 27.5998L24.1914 27.9994L24.9878 28.003L25.7841 27.6137L25.7866 27.6105L25.7866 27.6105L25.79 27.6061L25.7969 27.5969L25.7991 27.5941L25.825 27.5598L25.8263 27.5581C25.8507 27.5257 25.8853 27.4795 25.9286 27.4208L25.1258 26.8287L25.9286 27.4208C26.0152 27.3034 26.1369 27.1357 26.2823 26.9282C26.5718 26.5149 26.96 25.9366 27.3506 25.2809C27.7387 24.6295 28.1446 23.8759 28.4575 23.1148C28.7598 22.3795 29.0285 21.5124 29.0285 20.6699H29.0285L29.0284 20.6582L29.0283 20.6524C29.0283 20.6524 29.0283 20.6524 29.0283 20.6524C29.0146 19.4828 28.5567 18.3558 27.7381 17.5183C27.2833 17.053 26.737 16.698 26.14 16.4741ZM10.9632 17.7882L12.4744 18.6477L11.4632 19.2492L10.9632 18.9648V17.7882ZM12.4729 9.77028L10.9632 10.6307V9.45709L11.4632 9.17216L12.4729 9.77028ZM18.5038 15.0617L18.5022 13.3419L19.4619 13.9103L19.4624 14.4915L18.5038 15.0617ZM24.6684 20.6484C24.6684 20.6734 24.6482 20.6937 24.6232 20.6937C24.5982 20.6937 24.578 20.6734 24.578 20.6484C24.578 20.6234 24.5982 20.6032 24.6232 20.6032C24.6482 20.6032 24.6684 20.6234 24.6684 20.6484Z" stroke="black" stroke-width="2" stroke-linejoin="bevel"/>
</svg>
