<svg width="16" height="16" viewBox="0 0 16 16" fill="none" xmlns="http://www.w3.org/2000/svg">
<path d="M6.98187 6.31533V9.89412L9.99653 8.10112L6.98187 6.31533Z" fill="black"/>
<path fill-rule="evenodd" clip-rule="evenodd" d="M13.9289 8.92988C13.976 8.62683 14.0005 8.31627 14.0005 8C14.0005 4.68629 11.3142 2 8.00049 2C4.68678 2 2.00049 4.68629 2.00049 8C2.00049 11.3137 4.68678 14 8.00049 14C9.22505 14 10.3639 13.6332 11.3132 13.0034C11.2579 12.8858 11.2052 12.7663 11.1567 12.646C11.0041 12.2676 10.8595 11.8008 10.8595 11.3349L10.8596 11.3232C10.8672 10.6754 11.1208 10.0499 11.5759 9.58435C12.0321 9.11761 12.6551 8.84933 13.3117 8.84933C13.5223 8.84933 13.7295 8.87695 13.9289 8.92988ZM5.98187 5.438L6.7367 5.00781L11.2309 7.67006L11.2317 8.52999L6.73746 11.203L5.98187 10.7733V5.438Z" fill="black"/>
<path fill-rule="evenodd" clip-rule="evenodd" d="M13.3123 9.59939C12.8616 9.59939 12.4308 9.78342 12.1129 10.1087C11.7953 10.4336 11.6156 10.8734 11.6102 11.332V11.335C11.6102 11.6587 11.7137 12.0203 11.853 12.3657C11.9939 12.7153 12.18 13.069 12.3632 13.3827C12.5468 13.6971 12.7301 13.9756 12.8672 14.1753C12.9359 14.2753 12.9932 14.3559 13.0336 14.4117C13.0538 14.4396 13.0697 14.4613 13.0807 14.4762L13.0935 14.4934L13.0969 14.498L13.0982 14.4997L13.4964 14.5015L13.4976 14.4999L13.5011 14.4953L13.5141 14.4781C13.5253 14.4632 13.5416 14.4415 13.5622 14.4136C13.6033 14.3578 13.6618 14.2772 13.7319 14.1772C13.8718 13.9775 14.0587 13.699 14.246 13.3846C14.4329 13.0708 14.6227 12.7171 14.7665 12.3673C14.9086 12.0218 15.0145 11.6596 15.0145 11.335L15.0144 11.332C15.0091 10.8734 14.8294 10.4336 14.5118 10.1087C14.1938 9.78342 13.7631 9.59939 13.3123 9.59939ZM13.298 14.3494C13.104 14.4955 13.0984 14.4996 13.0982 14.4997L13.298 14.3494ZM13.4964 14.5015C13.4962 14.5014 13.4903 14.4971 13.298 14.3494L13.4964 14.5015ZM13.3118 11.8468C13.6005 11.8468 13.8345 11.6128 13.8345 11.3242C13.8345 11.0356 13.6005 10.8016 13.3118 10.8016C13.0232 10.8016 12.7892 11.0356 12.7892 11.3242C12.7892 11.6128 13.0232 11.8468 13.3118 11.8468Z" fill="black"/>
</svg>
