<svg width="16" height="16" viewBox="0 0 16 16" fill="none" xmlns="http://www.w3.org/2000/svg">
<g clip-path="url(#clip0_2115_2126)">
<mask id="mask0_2115_2126" style="mask-type:luminance" maskUnits="userSpaceOnUse" x="0" y="0" width="16" height="16">
<path d="M0 0H16V16H0V0Z" fill="white"/>
</mask>
<g mask="url(#mask0_2115_2126)">
<path d="M9.82995 10.3399C9.86395 10.3329 9.89995 10.3279 9.93395 10.3199C10.0589 10.2949 10.1839 10.2649 10.3069 10.2289L10.3719 10.2069C10.6129 10.1319 10.8471 10.0366 11.0719 9.92189L11.1439 9.88589C11.2584 9.82465 11.3701 9.75859 11.4789 9.68789C11.5069 9.66989 11.5339 9.64989 11.5609 9.63089C11.6459 9.57389 11.7279 9.51289 11.8089 9.44889L11.8989 9.37789C12.6878 8.72571 13.2268 7.82068 13.4244 6.81637C13.622 5.81205 13.466 4.7703 12.9829 3.86789L12.1869 3.74989L10.0269 5.90689L9.09495 4.97289L11.2509 2.81389L11.1309 2.01889C10.3322 1.59592 9.42378 1.42567 8.52608 1.5307C7.62838 1.63573 6.7838 2.01108 6.10426 2.607C5.42472 3.20293 4.94233 3.99128 4.721 4.86759C4.49968 5.74389 4.54988 6.66676 4.86494 7.51389L0.543945 11.8359V12.5429L2.45595 14.4559H3.16295L7.48695 10.1349C7.60195 10.1779 7.71795 10.2139 7.83495 10.2469L7.94795 10.2749C8.14987 10.3255 8.35502 10.3622 8.56195 10.3849C8.60195 10.3889 8.64195 10.3939 8.68295 10.3969C8.78495 10.4049 8.88695 10.4099 8.98795 10.4109L9.03495 10.4129H9.04195C9.16995 10.4129 9.29795 10.4049 9.42595 10.3929L9.53795 10.3819C9.6354 10.3708 9.73245 10.3564 9.82895 10.3389L9.82995 10.3399ZM2.80995 13.3959L1.60495 12.1899L6.05695 7.73689L5.90895 7.41989C5.62765 6.81697 5.52615 6.14574 5.6166 5.48661C5.70705 4.82748 5.98562 4.2084 6.41892 3.70355C6.85223 3.19869 7.4219 2.82947 8.05969 2.64011C8.69748 2.45075 9.37634 2.44928 10.0149 2.63589L8.03395 4.61989V5.32589L9.67395 6.96589H10.3809L12.3629 4.98589C12.5495 5.62431 12.5481 6.30299 12.3589 6.94064C12.1697 7.57829 11.8007 8.1479 11.2962 8.58125C10.7916 9.01461 10.1728 9.29334 9.51389 9.38408C8.85498 9.47483 8.18388 9.37373 7.58095 9.09289L7.26395 8.94489L2.80995 13.3959Z" fill="black"/>
</g>
</g>
<defs>
<clipPath id="clip0_2115_2126">
<rect width="16" height="16" fill="white"/>
</clipPath>
</defs>
</svg>
