<svg width="16" height="16" viewBox="0 0 16 16" fill="none" xmlns="http://www.w3.org/2000/svg">
<path d="M13.3679 5.19733C13.3761 5.31844 13.3761 5.43956 13.3761 5.56179C13.3761 9.28625 10.59 13.5817 5.49552 13.5817V13.5794C3.99059 13.5817 2.51691 13.143 1.25 12.3158C1.46883 12.3426 1.68876 12.356 1.90923 12.3566C3.1564 12.3577 4.36792 11.9318 5.34909 11.1476C4.16389 11.1248 3.12459 10.3383 2.76152 9.19025C3.17669 9.27173 3.60448 9.25499 4.01197 9.14169C2.71984 8.87601 1.79022 7.72067 1.79022 6.37891C1.79022 6.36663 1.79022 6.35491 1.79022 6.34318C2.17523 6.56142 2.60631 6.68253 3.04726 6.69593C1.83026 5.86821 1.45512 4.22059 2.19004 2.9324C3.59625 4.69333 5.67102 5.76384 7.89826 5.87714C7.67505 4.89817 7.97998 3.87231 8.69954 3.18412C9.81508 2.11696 11.5696 2.17166 12.6182 3.30636C13.2385 3.18189 13.833 2.95026 14.3771 2.62208C14.1703 3.27454 13.7376 3.82877 13.1595 4.18096C13.7085 4.1151 14.2449 3.96552 14.75 3.73724C14.3782 4.30431 13.9098 4.79826 13.3679 5.19733Z" fill="black"/>
</svg>
