<svg width="26" height="22" viewBox="0 0 25 25" fill="none" xmlns="http://www.w3.org/2000/svg">
<path d="M22.569 5.80996C22.5842 6.03425 22.5842 6.25854 22.5842 6.48489C22.5842 13.382 17.4248 21.3365 7.99049 21.3365V21.3324C5.20358 21.3365 2.47455 20.5241 0.128418 18.9923C0.533659 19.042 0.940931 19.0668 1.34922 19.0678C3.65879 19.0699 5.90234 18.2812 7.71932 16.8291C5.52452 16.7867 3.59988 15.3303 2.92752 13.2043C3.69636 13.3552 4.48856 13.3242 5.24319 13.1143C2.85034 12.6223 1.12882 10.4828 1.12882 7.99807C1.12882 7.97533 1.12882 7.95362 1.12882 7.93192C1.8418 8.33605 2.6401 8.56034 3.45667 8.58515C1.20297 7.05233 0.508268 4.00118 1.86923 1.61566C4.47333 4.87663 8.3155 6.85905 12.44 7.06887C12.0267 5.25596 12.5913 3.35622 13.9239 2.08181C15.9897 0.105585 19.2387 0.206877 21.1806 2.30816C22.3293 2.07767 23.4303 1.64873 24.4378 1.04098C24.0549 2.24925 23.2535 3.2756 22.1831 3.9278C23.1997 3.80583 24.193 3.52883 25.1284 3.10609C24.4398 4.15622 23.5725 5.07095 22.569 5.80996Z" fill="#313131"/>
</svg>
