<svg width="17" height="18" viewBox="0 0 17 18" fill="none" xmlns="http://www.w3.org/2000/svg">
<path d="M8.5 0.0967407C6.81886 0.0967407 5.17547 0.595257 3.77766 1.52925C2.37984 2.46324 1.29037 3.79076 0.647028 5.34393C0.00368292 6.8971 -0.164645 8.60617 0.163329 10.255C0.491303 11.9038 1.30085 13.4184 2.4896 14.6071C3.67834 15.7959 5.1929 16.6054 6.84173 16.9334C8.49057 17.2614 10.1996 17.0931 11.7528 16.4497C13.306 15.8064 14.6335 14.7169 15.5675 13.3191C16.5015 11.9213 17 10.2779 17 8.59674C16.9914 6.34505 16.0931 4.18804 14.5009 2.59585C12.9087 1.00365 10.7517 0.105351 8.5 0.0967407ZM8.5 1.40443C10.4049 1.41303 12.2293 2.17355 13.5762 3.52051C14.9232 4.86747 15.6837 6.69187 15.6923 8.59674C15.6854 9.84598 15.359 11.0727 14.7442 12.1602C14.8757 11.6698 14.9416 11.1641 14.9404 10.6564C14.9404 8.94826 14.2618 7.31012 13.054 6.10232C11.8462 4.89451 10.2081 4.21597 8.5 4.21597C6.79191 4.21597 5.15377 4.89451 3.94596 6.10232C2.73816 7.31012 2.05962 8.94826 2.05962 10.6564C2.05836 11.1641 2.12432 11.6698 2.25577 12.1602C1.64097 11.0727 1.3146 9.84598 1.3077 8.59674C1.3163 6.69187 2.07682 4.86747 3.42378 3.52051C4.77073 2.17355 6.59513 1.41303 8.5 1.40443ZM6.21154 14.7429C5.82701 14.3033 5.57724 13.7622 5.4921 13.1844C5.40695 12.6066 5.49005 12.0164 5.73143 11.4846C5.97282 10.9528 6.36229 10.5017 6.85327 10.1854C7.34424 9.86902 7.91594 9.70079 8.5 9.70079C9.08406 9.70079 9.65576 9.86902 10.1467 10.1854C10.6377 10.5017 11.0272 10.9528 11.2686 11.4846C11.51 12.0164 11.5931 12.6066 11.5079 13.1844C11.4228 13.7622 11.173 14.3033 10.7885 14.7429C10.7885 14.136 10.5474 13.5539 10.1182 13.1247C9.68902 12.6955 9.10694 12.4544 8.5 12.4544C7.89306 12.4544 7.31099 12.6955 6.88182 13.1247C6.45265 13.5539 6.21154 14.136 6.21154 14.7429ZM8.5 8.36789C7.92624 8.36788 7.35815 8.48142 6.82848 8.70197C6.2988 8.92252 5.81802 9.24573 5.41383 9.65295C5.00965 10.0602 4.69005 10.5434 4.47347 11.0747C4.25689 11.606 4.14761 12.1749 4.15193 12.7487C4.14127 12.9794 4.16328 13.2106 4.21731 13.4352C3.66522 12.6134 3.3694 11.6463 3.36731 10.6564C3.36731 9.29508 3.90808 7.98956 4.87064 7.02699C5.83321 6.06443 7.13873 5.52366 8.5 5.52366C9.86128 5.52366 11.1668 6.06443 12.1294 7.02699C13.0919 7.98956 13.6327 9.29508 13.6327 10.6564C13.6306 11.6463 13.3348 12.6134 12.7827 13.4352C12.8367 13.2106 12.8587 12.9794 12.8481 12.7487C12.8524 12.1749 12.7431 11.606 12.5265 11.0747C12.31 10.5434 11.9904 10.0602 11.5862 9.65295C11.182 9.24573 10.7012 8.92252 10.1715 8.70197C9.64185 8.48142 9.07376 8.36788 8.5 8.36789ZM7.51923 14.8083C7.51923 14.6143 7.57675 14.4247 7.68452 14.2634C7.79229 14.1021 7.94547 13.9764 8.12468 13.9022C8.30389 13.8279 8.50109 13.8085 8.69134 13.8464C8.88159 13.8842 9.05635 13.9776 9.19351 14.1148C9.33067 14.2519 9.42408 14.4267 9.46193 14.6169C9.49977 14.8072 9.48035 15.0044 9.40611 15.1836C9.33188 15.3628 9.20617 15.516 9.04489 15.6238C8.8836 15.7315 8.69398 15.789 8.5 15.789C8.36998 15.7936 8.2404 15.7714 8.11934 15.7237C7.99828 15.676 7.88833 15.6039 7.79633 15.5119C7.70433 15.4199 7.63226 15.31 7.58458 15.1889C7.53691 15.0679 7.51467 14.9383 7.51923 14.8083Z" fill="#313131"/>
</svg>
