<svg xmlns="http://www.w3.org/2000/svg" viewBox="0 0 48 48"><path d="M40.5 6h-33L6 7.5v33L7.5 42h33l1.5-1.5v-33zM39 39H9V9h30z"/><path d="M13.966 27.375h4.162L18.982 30h2.61l-3.974-11.526h-3.14L10.5 30h2.611zm2.038-6.264h.09l1.416 4.362h-2.925zm9.256 5.152h2.047a4.84 4.84 0 0 0 2.266-.49 3.4 3.4 0 0 0 1.432-1.367 4.05 4.05 0 0 0 .495-2.025 4.13 4.13 0 0 0-.487-2.03 3.43 3.43 0 0 0-1.409-1.376 4.64 4.64 0 0 0-2.235-.499h-4.547V30h2.437zm0-5.797h1.642a2.5 2.5 0 0 1 1.171.24c.294.146.535.38.69.67a2.33 2.33 0 0 1 0 2.008c-.154.293-.394.53-.688.681a2.45 2.45 0 0 1-1.162.245h-1.65zM36 18.474h-2.437V30H36z"/></svg>