<svg xmlns="http://www.w3.org/2000/svg" viewBox="0 0 48 48"><path d="M40.488 15.863H25.5v-4.335a3 3 0 1 0-3 0v4.335H7.512l-1.5 1.5v23.081l1.5 1.5h32.976l1.5-1.5v-23.08l-1.5-1.5Zm-1.5 23.081H9.012v-20.08h29.976z"/><path d="M17.008 28.544a2.493 2.493 0 0 0 2.49-2.497 2.493 2.493 0 0 0-2.49-2.495 2.493 2.493 0 0 0-2.491 2.495 2.493 2.493 0 0 0 2.49 2.497Zm13.984 0a2.493 2.493 0 0 0 2.49-2.497 2.493 2.493 0 0 0-2.49-2.495 2.493 2.493 0 0 0-2.49 2.495 2.493 2.493 0 0 0 2.49 2.497m-2.25 3.205h-9.484v3h9.484z"/></svg>