<svg xmlns="http://www.w3.org/2000/svg" width="64" height="65" viewBox="0 0 64 65"><path d="M23.3 18.2a2.1 2.1 0 1 1-4.2 0 2.1 2.1 0 0 1 4.2 0m-6.7 0a2.1 2.1 0 1 1-4.2 0 2.1 2.1 0 0 1 4.2 0m13.3-.61a2.1 2.1 0 1 0 0 1.22zm28.1-1.6V12.7l-2-2h-1.39v5.29zm0 9.67v-4.99h-3.39v4.99zm0 9.67v-4.99h-3.39v4.99zM58 45v-4.99h-3.39V45zm-3.39 9.6H56l2-2v-2.93h-3.39zm-17.9-4H41v4h-4.29zm8.96 0h4.29v4h-4.29zm-8.96-29H41v4h-4.29zm8.96 0h4.29v4h-4.29zm4.29-6.9h-4.29v-4h4.29zm-8.96 0h-4.29v-4H41zm-8.96-4h-24l-2 2v39.9l2 2h24v-4h-22v-25h22v-4h-22v-6.9h22z"/></svg>