<svg xmlns="http://www.w3.org/2000/svg" viewBox="0 0 48 48"><path d="M38.693 16.328a1.575 1.575 0 1 1-3.15 0 1.575 1.575 0 0 1 3.15 0M43.5 21.48v-9.638l-1.5-1.5H6l-1.5 1.5v9.638l1.5 1.5h36zm-36-8.138h33v6.638h-33zm29.625 16.095a1.568 1.568 0 1 0 0 3.137 1.568 1.568 0 0 0 0-3.136Zm-8.55 5.25H7.5V28.02h21l1.5-3H6l-1.5 1.5v9.637l1.5 1.5h24.082zm15.165-3.75a6.615 6.615 0 1 0-13.23 0c0 4.155 4.83 10.5 5.378 11.175h2.355c.562-.742 5.497-7.065 5.497-11.227zm-3 0c0 1.898-1.928 5.25-3.66 7.726-1.688-2.468-3.57-5.82-3.57-7.725a3.615 3.615 0 0 1 7.23 0Z"/></svg>