<svg xmlns="http://www.w3.org/2000/svg" viewBox="0 0 48 48"><path d="M37.125 22.227a1.569 1.569 0 1 0 0-3.138 1.569 1.569 0 0 0 0 3.138"/><path fill-rule="evenodd" d="M11.59 6.55 12.75 6h22.5l1.16.55 6.75 8.25.34.95v.419l.006.005v9.64l-1.5 1.5H6l-1.5-1.5V15.75l.34-.95zM7.5 17.674v6.64h33.006V18.75H40.5v-1.076zm31.682-3H8.818L13.461 9h21.078l4.643 5.675Z" clip-rule="evenodd"/><path d="M37.125 36.907a1.569 1.569 0 1 0 0-3.138 1.569 1.569 0 0 0 0 3.139Z"/><path fill-rule="evenodd" d="m6 29.355-1.5 1.5v9.639l1.5 1.5h36.006l1.5-1.5v-9.639l-1.5-1.5zm1.5 9.639v-6.639h33.006v6.639z" clip-rule="evenodd"/></svg>