<svg xmlns="http://www.w3.org/2000/svg" viewBox="0 0 64 64"><path d="m30.29 40.55 2.83 2.83 10.49-10.49-10.49-10.48-2.83 2.83 5.66 5.65H6.01v4h29.94z"/><path d="m51.43 13.78-1.37-.19A27.92 27.92 0 0 1 34.69 6L33.5 4.66h-3L29.34 6A27.82 27.82 0 0 1 14 13.59l-1.37.19-1.72 2V27h4v-9.5A32.1 32.1 0 0 0 32 9a32.16 32.16 0 0 0 17.15 8.5v12.4C49.15 46.26 34 54.73 32 55.75 30.47 55 20.58 49.43 16.57 39h-4.24c4.41 13.43 17.42 20.09 18.08 20.42l.71.36h1.79l.71-.36c.8-.39 19.53-10 19.53-29.52V15.76z"/></svg>