<svg xmlns="http://www.w3.org/2000/svg" width="256" height="256" version="1.0" viewBox="0 0 192 192"><path d="M36.2 51.3 33 54.6v77l3.3 3.2 3.3 3.2h32.1l1.7 4.4q3.15 8.1 11.1 11.7c3.6 1.7 7.1 1.9 35.1 1.9 34.8 0 37.4-.4 43.8-6.6 5.4-5.3 7-9 7.1-16.4 0-5.4-.5-7.3-2.8-11.3-3.2-5.4-8.5-9.3-15-11-3.5-.9-5.2-2.2-8.1-6L141 100V54.4l-3.3-3.2-3.3-3.2h-95zM129 67.5V75H45V60h84zm0 22.3v3.7h-8.2c-7.1 0-9.1.4-14 2.8-6.6 3.3-13 9.9-15.3 16.2-1.5 3.7-2.2 4.4-5.2 5-2 .3-5.3 2.3-7.8 4.6l-4.2 3.9H45V86h84zm1.1 17.5c3.6 1.9 5 3.5 7.4 8.6l3 6.2 4.1-.4c8.1-.8 14.4 4.3 14.4 11.5 0 3.2-.7 4.7-3.4 7.4l-3.4 3.4h-31.8c-31.2 0-31.8 0-34.1-2.2-3.2-3-3.1-8.1.3-11.5 2.4-2.3 3.1-2.5 8.4-2l5.8.6.4-5.8c.5-7.2 4.1-13.1 9.5-16s13.7-2.8 19.4.2"/><path d="M52.6 64.6c-.9.8-1.6 2.2-1.6 2.9 0 1.8 2.7 4.5 4.5 4.5s4.5-2.7 4.5-4.5-2.7-4.5-4.5-4.5c-.7 0-2.1.7-2.9 1.6m15 0c-.9.8-1.6 2.2-1.6 2.9s.7 2.1 1.6 2.9c.8.9 2.2 1.6 2.9 1.6s2.1-.7 2.9-1.6c.9-.8 1.6-2.2 1.6-2.9s-.7-2.1-1.6-2.9c-.8-.9-2.2-1.6-2.9-1.6s-2.1.7-2.9 1.6m15 0c-.9.8-1.6 2.2-1.6 2.9s.7 2.1 1.6 2.9c.8.9 2.2 1.6 2.9 1.6s2.1-.7 2.9-1.6c.9-.8 1.6-2.2 1.6-2.9s-.7-2.1-1.6-2.9c-.8-.9-2.2-1.6-2.9-1.6s-2.1.7-2.9 1.6"/></svg>