<svg xmlns="http://www.w3.org/2000/svg" width="65" height="64" viewBox="0 0 65 64"><path d="m23.6 22.2 3.03 1.75v3.5L23.6 29.2l-3.03-1.75v-3.5zM20.06 49l3.54-3.54L27.14 49l-3.54 3.54zm3.54-14.7c.593 0 1.17.176 1.67.506.493.33.878.798 1.1 1.35a3 3 0 0 1-.65 3.27c-.42.42-.954.705-1.54.821a3 3 0 0 1-1.73-.171 3.04 3.04 0 0 1-1.35-1.1 3 3 0 0 1-.506-1.67c0-.796.316-1.56.879-2.12a3 3 0 0 1 2.12-.879zM10.3 11.2l6.42-4.89 1.21-.37h29l1.19.39 6.61 4.89.82 1.61v38L55 52.21l-4.83 5.11-1.46.63h-31.7l-1.37-.54-5.48-5.11-.64-1.47v-38zm3.21 25.4 4.47 4.94h.056v4h-1.83l-2.7-3v7.39l4.26 4h30l3.7-3.91V42.3l-3.67 3.24h-18.6v-4h17.2l5.19-4.61v-7.44l-3.67 3.25h-18.7v-4h17.2l5.19-4.6v-6.92l-3.67 3.26h-31.6l-2.74-2.8v6.12l4.47 4.94h.056v4h-1.83l-2.7-3zm32.7-26.7h-27.6l-4.07 3.11 3.4 3.48h28.4l4-3.56z"/></svg>