<svg xmlns="http://www.w3.org/2000/svg" viewBox="0 0 16 16"><path d="M5.873 4.855a.75.75 0 1 0-1.23.859.75.75 0 0 0 1.23-.859m5.491 6.497a.75.75 0 1 1-.858-1.23.75.75 0 0 1 .858 1.23"/><path fill-rule="evenodd" d="M8.053 1.5h-.05a6.5 6.5 0 1 0 .05 0M5.677 3.016A5.5 5.5 0 0 0 2.526 7.5h1.95q.018-.447.064-.878l1 .06q-.045.398-.062.818H7.5V2.63c-.446.202-.869.645-1.225 1.352l-.068.142-.969-.286a5.5 5.5 0 0 1 .44-.822zM7.5 8.5H5.478c.056 1.396.348 2.625.797 3.518.356.707.779 1.15 1.225 1.352zm-1.823 4.484a6 6 0 0 1-.295-.517C4.85 11.41 4.534 10.02 4.477 8.5H2.526a5.5 5.5 0 0 0 3.151 4.484m4.89-.118A5.5 5.5 0 0 0 13.48 8.5h-1.787a13 13 0 0 1-.066.897l-1-.06q.048-.406.065-.837H8.5v4.935c.508-.16.993-.621 1.394-1.417l.063-.13.968.287a6 6 0 0 1-.36.692zm.125-5.366H8.5V2.565c.508.16.993.621 1.394 1.417.45.893.741 2.122.798 3.518m1 0c-.056-1.519-.372-2.91-.905-3.968a6 6 0 0 0-.22-.398A5.5 5.5 0 0 1 13.48 7.5h-1.787z"/></svg>