<svg xmlns="http://www.w3.org/2000/svg" width="64" height="64" viewBox="0 0 64 64"><path d="M32.022 32.912a9.5 9.5 0 1 0-9.5-9.5 9.51 9.51 0 0 0 9.5 9.5m0-14.995a5.5 5.5 0 1 1 0 11 5.5 5.5 0 0 1 0-11m-19.97 19.14a7 7 0 1 0-7-7 7.007 7.007 0 0 0 7 7m0-10a3 3 0 1 1-2.12.88 3 3 0 0 1 2.12-.877z"/><path d="M54.015 38.1h-4.033a9.9 9.9 0 0 0-4.291.974 13.95 13.95 0 0 0-10.668-4.966h-6.046a13.95 13.95 0 0 0-10.654 4.95 9.95 9.95 0 0 0-4.27-.958h-4.032a9.995 9.995 0 0 0-9.984 9.982l2 2H62l2-2a9.994 9.994 0 0 0-9.985-9.982m-43.994 4h4.032c.724.004 1.442.14 2.118.4a14 14 0 0 0-1.011 3.581H4.381a5.99 5.99 0 0 1 5.64-3.98m9.18 3.983a9.994 9.994 0 0 1 9.776-7.975h6.046a9.994 9.994 0 0 1 9.777 7.974zm29.639 0a13.8 13.8 0 0 0-1.006-3.57 6 6 0 0 1 2.148-.413h4.033a5.99 5.99 0 0 1 5.639 3.983z"/><path d="M52.014 37.057a7 7 0 1 0-7-7 7.006 7.006 0 0 0 7 7m0-10a3 3 0 1 1-2.12.88 3 3 0 0 1 2.12-.877z"/></svg>