<svg xmlns="http://www.w3.org/2000/svg" viewBox="0 0 64 64"><path fill="#f26539" d="M52.8 32h4v10h-4zm-5.36 2.67h4V42h-4zM42.08 37h4v5h-4zm9.94-13.3v-9.65l-2-2h-48l-2 2v31.8l2 2h37.7c1.59 1.57 3.53 2.74 5.67 3.42 2.13.68 4.39.85 6.6.49s4.3-1.23 6.11-2.55 3.28-3.04 4.29-5.04c1.02-1.99 1.55-4.2 1.55-6.43 0-2.24-.52-4.44-1.53-6.44s-2.47-3.73-4.27-5.05c-1.8-1.33-3.89-2.21-6.1-2.57zm-26 8.88-18.7-16.5h37.4zm-9-2.62-13 11.5v-23zm3.02 2.67 4.66 4.11h2.64L32 32.63l3.58 3.16c-.41 2.76.03 5.58 1.27 8.08H7.35zm16.8-1.06-1.83-1.61 13-11.5v5.11c-2.38.28-4.66 1.16-6.61 2.56s-3.52 3.26-4.56 5.43zm12.8 16.4c-2.03 0-4.01-.6-5.69-1.73s-3-2.72-3.77-4.6a10.25 10.25 0 0 1 2.22-11.16 10.25 10.25 0 0 1 11.16-2.22c1.87.78 3.47 2.09 4.6 3.77s1.73 3.66 1.73 5.69c0 2.72-1.08 5.32-3 7.24s-4.52 3-7.24 3z"/></svg>