<svg xmlns="http://www.w3.org/2000/svg" viewBox="0 0 48 48"><path d="M35 26.98h-2.125v-8.574H21.148v-5.449h2.102l1.25-1.25V5l-1.25-1.25h-6.738L15.262 5v6.707l1.25 1.25h2.136v5.45H7.125v8.573H5l-1.25 1.25V35L5 36.25h6.742l1.25-1.25v-6.77l-1.25-1.25H9.625v-6.074h9.023v6.074h-2.136l-1.25 1.25V35l1.25 1.25h6.738L24.5 35v-6.77l-1.25-1.25h-2.102v-6.074h9.235v6.074h-2.121l-1.25 1.25V35l1.25 1.25H35L36.25 35v-6.77ZM17.762 6.25H22v4.238h-4.238Zm-7.27 27.5H6.25v-4.27h4.238Zm11.508 0h-4.238v-4.27H22Zm11.75 0h-4.238v-4.27h4.238Zm0 0"/></svg>