<svg xmlns="http://www.w3.org/2000/svg" width="64" height="64" viewBox="0 0 64 64"><path fill="#F6821F" fill-rule="evenodd" d="M32.214 6h-.202a26 26 0 1 0 .327 52q.266 0 .527-.014A26 26 0 0 0 58.012 32 26 26 0 0 0 32.865 6.014a10 10 0 0 0-.65-.013m-9.503 6.063A22 22 0 0 0 10.104 30h7.804q.068-1.79.252-3.51l3.998.24A46 46 0 0 0 21.91 30H30V10.519c-1.784.81-3.475 2.582-4.9 5.41q-.139.278-.274.567l-3.873-1.145q.276-.627.575-1.221c.363-.72.757-1.412 1.182-2.067M30 34h-8.09c.226 5.584 1.392 10.5 3.19 14.071 1.425 2.829 3.116 4.6 4.9 5.41zm-7.29 17.937a22 22 0 0 1-1.182-2.067c-2.131-4.233-3.393-9.795-3.62-15.87h-7.806A22 22 0 0 0 22.71 51.937m19.554-.472A22 22 0 0 0 53.921 34h-7.15a51 51 0 0 1-.26 3.589l-3.998-.24q.185-1.627.255-3.349H34v19.742c2.032-.641 3.973-2.486 5.577-5.671q.129-.255.252-.517l3.874 1.145q-.267.6-.553 1.171a23 23 0 0 1-.885 1.595M42.768 30H34V10.258c2.032.641 3.973 2.486 5.577 5.671 1.799 3.572 2.965 8.487 3.191 14.071m4.003 0c-.227-6.075-1.49-11.637-3.621-15.87a22 22 0 0 0-.885-1.595A22 22 0 0 1 53.921 30z" clip-rule="evenodd"/></svg>