<svg xmlns="http://www.w3.org/2000/svg" width="64" height="64" viewBox="0 0 64 64"><path fill-rule="evenodd" d="m57.49 14.12-1.36-.19a27.92 27.92 0 0 1-15.37-7.59L39.57 5h-3l-1.16 1.34a27.92 27.92 0 0 1-15.33 7.59l-1.36.19-1.72 2V20H7l-2 2v25l2 2h16.639c5.317 6.809 12.012 10.33 12.783 10.735l.048.025.71.36h1.8l.71-.36c.79-.39 19.52-10 19.52-29.52V16.1zM28.858 49c4.02 4.245 8.258 6.593 9.222 7.09 2-1.02 17.13-9.5 17.13-25.85v-12.4a32.1 32.1 0 0 1-17.13-8.5 32.15 32.15 0 0 1-17.13 8.5V20H44l2 2v25l-2 2zM9 42.409V26.397l8.887 7.748zM12.088 45l8.83-8.212 3.268 2.849h2.628l3.501-3.053L39.045 45zM42 42.294l-8.658-8.348L42 26.397zM12.337 24h26.326L25.5 35.476z" clip-rule="evenodd"/></svg>