<svg xmlns="http://www.w3.org/2000/svg" width="64" height="65" viewBox="0 0 64 65"><path d="M42.249 18.516a3.5 3.5 0 1 1 0 7 3.5 3.5 0 0 1 0-7"/><path fill-rule="evenodd" d="M28.046 17.91c5.738-4.997 14.495-10.037 26.416-10.037l2 2c0 11.921-5.04 20.678-10.038 26.416q-.595.682-1.186 1.31l.907 9.625-.57 1.595-7.662 7.733-3.392-1.745 1.274-7.45-1.98-2.976-.934-.935-4.269 3.202-2.614-.186-8.486-8.485-.185-2.614 3.202-4.27-.574-.573-2.977-1.98-7.45 1.275-1.745-3.392 7.733-7.662 1.595-.57 9.626.906q.627-.591 1.31-1.186m-4.66 16.04 6.638 6.64-2.424 1.817-6.033-6.032zm12.27 6.615L23.77 28.679a35 35 0 0 1 1.067-1.494 41.5 41.5 0 0 1 5.837-6.258c3.195-2.783 7.378-5.55 12.596-7.279.279.198.6.444.954.734a42 42 0 0 1 2.99 2.739 42 42 0 0 1 2.74 2.99q.436.534.733.954c-1.729 5.218-4.496 9.401-7.279 12.597a41.5 41.5 0 0 1-6.258 5.837c-.571.43-1.076.785-1.493 1.066m2.508 3.132 1.401 2.107.306 1.445-.34 1.986 2.544-2.567-.525-5.57a44 44 0 0 1-1.993 1.596c-.514.387-.982.72-1.393 1.003M21.641 24.779c-.386.513-.72.982-1.003 1.392l-2.107-1.401-1.444-.306-1.987.34 2.567-2.544 5.57.525a44 44 0 0 0-1.596 1.994m30.765-12.85c-.082 1.5-.254 2.94-.5 4.322a53 53 0 0 0-1.863-1.958 52 52 0 0 0-1.96-1.864 36 36 0 0 1 4.323-.5M20.168 44.168c-1.6-1.6-3.521-2.134-5.419-1.551-1.692.519-3.04 1.829-4.013 3.15-1.004 1.364-1.792 2.987-2.288 4.521-.474 1.47-.77 3.143-.494 4.525l1.568 1.569c1.383.276 3.055-.02 4.525-.495 1.535-.495 3.157-1.284 4.52-2.287 1.323-.974 2.633-2.321 3.152-4.013.582-1.898.05-3.819-1.551-5.42m-7.35 7.913q-.419.135-.784.22.086-.364.221-.784c.378-1.172.982-2.4 1.702-3.378.751-1.02 1.46-1.543 1.965-1.698.3-.093.722-.14 1.417.555s.648 1.117.556 1.418c-.155.506-.679 1.214-1.698 1.964-.979.72-2.206 1.324-3.378 1.703" clip-rule="evenodd"/></svg>