<svg xmlns="http://www.w3.org/2000/svg" viewBox="0 0 48 48"><path d="M39.283 30.443 45.748 24l-6.442-6.442-2.122 2.122 2.797 2.82h-10.23a7.9 7.9 0 0 0-1.328-3.12L35.526 12l.067 3.983 3-.053-.165-9.09-9.104.173.052 3 3.99-.068-7.117 7.358A7.987 7.987 0 0 0 14.03 22.5h-1.755a4.755 4.755 0 1 0 0 3h1.755a7.987 7.987 0 0 0 12.217 5.198l7.103 7.365-3.99-.068-.053 3 9.105.173.166-9.105-3-.053-.053 3.99-7.103-7.38a7.9 7.9 0 0 0 1.328-3.12h10.23l-2.82 2.82 2.122 2.123Zm-31.5-4.688a1.754 1.754 0 1 1 1.23-.517 1.76 1.76 0 0 1-1.237.517h.008ZM16.889 24a5.01 5.01 0 1 1 10.02 0 5.01 5.01 0 0 1-10.02 0"/><path d="M39.283 30.443 45.748 24l-6.442-6.442-2.122 2.122 2.797 2.82h-10.23a7.9 7.9 0 0 0-1.328-3.12L35.526 12l.067 3.983 3-.053-.165-9.09-9.104.173.052 3 3.99-.068-7.117 7.358A7.987 7.987 0 0 0 14.03 22.5h-1.755a4.755 4.755 0 1 0 0 3h1.755a7.987 7.987 0 0 0 12.217 5.198l7.103 7.365-3.99-.068-.053 3 9.105.173.166-9.105-3-.053-.053 3.99-7.103-7.38a7.9 7.9 0 0 0 1.328-3.12h10.23l-2.82 2.82 2.122 2.123Zm-31.5-4.688a1.754 1.754 0 1 1 1.23-.517 1.76 1.76 0 0 1-1.237.517h.008ZM16.889 24a5.01 5.01 0 1 1 10.02 0 5.01 5.01 0 0 1-10.02 0"/><path d="M39.283 30.443 45.748 24l-6.442-6.442-2.122 2.122 2.797 2.82h-10.23a7.9 7.9 0 0 0-1.328-3.12L35.526 12l.067 3.983 3-.053-.165-9.09-9.104.173.052 3 3.99-.068-7.117 7.358A7.987 7.987 0 0 0 14.03 22.5h-1.755a4.755 4.755 0 1 0 0 3h1.755a7.987 7.987 0 0 0 12.217 5.198l7.103 7.365-3.99-.068-.053 3 9.105.173.166-9.105-3-.053-.053 3.99-7.103-7.38a7.9 7.9 0 0 0 1.328-3.12h10.23l-2.82 2.82 2.122 2.123Zm-31.5-4.688a1.754 1.754 0 1 1 1.23-.517 1.76 1.76 0 0 1-1.237.517h.008ZM16.889 24a5.01 5.01 0 1 1 10.02 0 5.01 5.01 0 0 1-10.02 0"/></svg>