<svg xmlns="http://www.w3.org/2000/svg" viewBox="0 0 48 48"><path d="M43.5 22.5H31.567l11.003-4.575-1.148-2.775-11.047 4.56 8.453-8.46-2.123-2.123-8.415 8.423 4.575-10.988-2.775-1.155-4.59 11.04V4.5h-3v11.895L18 5.393 15.225 6.54l4.56 11.047-8.49-8.452-2.123 2.115 8.415 8.422L6.6 15.105l-1.155 2.767L16.5 22.5h-12v3h11.933L5.43 30l1.147 2.775 11.048-4.56-8.453 8.452 2.123 2.123 8.415-8.415-4.575 10.987 2.775 1.155L22.5 31.5v11.932h3V31.5L30 42.502l2.775-1.14-4.522-11.025 8.452 8.453 2.123-2.123-8.416-8.415L41.4 32.828l1.155-2.776L31.5 25.5h12zm-12 0v3l-1.14 2.76-2.107 2.107-2.753 1.088h-3l-2.753-1.14-2.107-2.108-1.14-2.76V22.5l1.14-2.76 2.107-2.107L22.5 16.5h3l2.753 1.14 2.107 2.107z"/></svg>