<svg xmlns="http://www.w3.org/2000/svg" viewBox="0 0 16 16"><path d="m10.75 9.116-1.83-.991 1.69-.914.14-.078-.509-.892-1.775 1.085.049-2.076h-1.03l.05 2.076-1.776-1.085-.509.894 1.83.99-1.83.991.509.893 1.775-1.085L7.485 11h1.03l-.05-2.076 1.776 1.085z"/><path fill-rule="evenodd" d="M8.372 1.164h-.745l-.287.322a6.9 6.9 0 0 1-3.852 1.91l-.343.05-.428.495v3.535c0 2.463 1.19 4.292 2.375 5.498 1.181 1.204 2.386 1.822 2.507 1.882l.177.09h.447l.18-.09c.119-.06 1.324-.677 2.506-1.882 1.184-1.206 2.375-3.035 2.375-5.498V3.942l-.428-.495-.343-.05a6.9 6.9 0 0 1-3.852-1.911zM3.717 4.373A7.9 7.9 0 0 0 8 2.239a7.9 7.9 0 0 0 4.284 2.135v3.102c0 2.115-1.018 3.706-2.089 4.798A9.4 9.4 0 0 1 8 13.938a9.4 9.4 0 0 1-2.194-1.664C4.735 11.182 3.717 9.59 3.717 7.476z"/></svg>