<svg xmlns="http://www.w3.org/2000/svg" viewBox="0 0 100 101"><path fill-rule="evenodd" d="M59.241 55.47 88.54 82.104l-3.885 4.317-29.283-26.636a26.348 26.348 0 1 1 3.87-4.317m-34.334.433A20.64 20.64 0 0 0 38.03 60.52a20.56 20.56 0 0 0 14.505-6.072 20.64 20.64 0 0 0 5.775-11.426h-8.464l-4.499 10.752-5.311-.003-7.457-17.879-2.243 5.362-2.655 1.767H17.52q.076.493.176.985a20.63 20.63 0 0 0 7.21 11.897m-7.46-18.638a20.63 20.63 0 0 1 12.5-16.414 20.636 20.636 0 0 1 28.437 16.415H47.93l-2.655 1.767-2.243 5.362-7.457-17.879-5.311-.003-4.499 10.752z" clip-rule="evenodd"/></svg>