<svg xmlns="http://www.w3.org/2000/svg" viewBox="0 0 48 48"><path d="M10.86 13.14a1.57 1.57 0 1 0-1.57-1.57 1.56 1.56 0 0 0 1.57 1.57m5.02 0a1.57 1.57 0 1 0-1.57-1.57 1.57 1.57 0 0 0 1.57 1.57m5.02 0a1.57 1.57 0 1 0-1.57-1.57 1.57 1.57 0 0 0 1.57 1.57"/><path d="M42 6H6L4.5 7.5v33L6 42h36l1.5-1.5v-33Zm-1.5 3v5.17h-33V9Zm-33 8.17h33v11.31h-6.63l-3.22-4.83-2.65.21-2.9 6.42-4.08-8.93-2.68-.1L14 29.16H7.49ZM7.49 39v-6.84h7.42l1.31-.77 3.35-6.08 4.21 9.22h2.73l3.15-7 2.16 3.24 1.24.67h7.45V39Z"/></svg>