<svg xmlns="http://www.w3.org/2000/svg" viewBox="0 0 48 48"><path d="M44.813 10.305A5.843 5.843 0 0 0 33.45 8.408l-18.795-.06a5.835 5.835 0 1 0-7.11 6.18L10.86 34.14a5.835 5.835 0 1 0 8.783 5.737L31.5 36.435a5.836 5.836 0 1 0 6.968-8.573L40.26 15.99a5.835 5.835 0 0 0 4.553-5.685M32.925 28.688l-7.777-4.41c.15-.522.229-1.062.232-1.605a5.8 5.8 0 0 0-.322-1.883l9.945-6.21a5.86 5.86 0 0 0 2.25 1.313L35.505 27.57a5.75 5.75 0 0 0-2.58 1.117Zm.465-16.643-9.997 6.248a5.81 5.81 0 0 0-6.188-.976l-3.645-5.055a6.3 6.3 0 0 0 .548-.915l19.125.06q.067.325.157.638M16.695 22.672a2.843 2.843 0 1 1 5.685-.03 2.843 2.843 0 0 1-5.685.03M39 7.5a2.842 2.842 0 1 1 0 5.685A2.842 2.842 0 0 1 39 7.5M6 8.835a2.842 2.842 0 1 1 5.685 0 2.842 2.842 0 0 1-5.685 0m4.568 5.58q.342-.104.667-.255l3.623 5.032a5.82 5.82 0 0 0 1.395 8.31l-1.935 5.828h-.555zM13.853 42a2.842 2.842 0 1 1 0-5.685 2.842 2.842 0 0 1 0 5.685m5.385-5.108a5.85 5.85 0 0 0-2.093-2.55l1.943-5.842h.45a5.82 5.82 0 0 0 4.065-1.657l7.5 4.222a5.9 5.9 0 0 0-.45 2.25v.24zm17.25-.705a2.843 2.843 0 1 1 2.842-2.842 2.843 2.843 0 0 1-2.872 2.828z"/></svg>