<svg xmlns="http://www.w3.org/2000/svg" width="18" height="18" fill="none" viewBox="0 0 20 15"><path d="M11.35 1.861a3.7 3.7 0 0 0-1.42-.614l.196-.98a4.682 4.682 0 0 1 3.531 6.057l-.95-.313a3.68 3.68 0 0 0-1.357-4.15"/><path fill="#000" fill-rule="evenodd" d="m6.17.63.88-.028 4.626 8.01-.465.75-5.246-.339-.302.174L7.31 12.05l-.183.683-1.732 1-.683-.183-1.647-2.853-.65.375-.683-.183L.107 8.075l.183-.683 3.55-2.05zM5.163 8.331 4.038 6.383 1.223 8.008l1.125 1.948zM3.93 10.197l1.397 2.42.866-.5-1.397-2.42zm6.412-1.894-4.198-.27L4.788 5.68l1.864-3.77z" clip-rule="evenodd"/><path d="M10.763 2.67a2.7 2.7 0 0 0-1.007-.437l-.202.979a1.68 1.68 0 0 1 1.271 2.116l.96.281a2.68 2.68 0 0 0-1.022-2.938"/></svg>