<svg xmlns="http://www.w3.org/2000/svg" viewBox="0 0 48 48"><path d="M9.9 21.15c.675 0 1.275-.6 1.275-1.275S10.575 18.6 9.9 18.6s-1.275.6-1.275 1.275.6 1.275 1.275 1.275m4.05 0c.675 0 1.275-.6 1.275-1.275s-.6-1.275-1.275-1.275-1.275.6-1.275 1.275.6 1.275 1.275 1.275m5.325-1.275c0 .675-.6 1.275-1.275 1.275-.75 0-1.275-.6-1.275-1.275S17.325 18.6 18 18.6s1.275.6 1.275 1.275"/><path fill-rule="evenodd" d="m26.628 2.754 2.24-.002.86.965a20.48 20.48 0 0 0 11.468 5.73l1.022.151 1.282 1.484v10.603c0 7.385-3.546 12.87-7.075 16.49-3.52 3.614-7.113 5.469-7.47 5.648l-.533.268-1.349-.001-.528-.267c-.366-.184-3.954-2.04-7.47-5.648a29 29 0 0 1-.638-.675H6L4.5 36V16.5L6 15h6v-3.92l1.282-1.485 1.022-.15a20.48 20.48 0 0 0 11.468-5.728zM15 15h15l1.5 1.5V36L30 37.5h-7.287c2.35 2.08 4.466 3.266 5.037 3.569.69-.367 3.637-2.022 6.527-4.987 3.19-3.274 6.223-8.048 6.223-14.397v-9.308a23.5 23.5 0 0 1-12.75-6.398A23.5 23.5 0 0 1 15 12.374zm13.5 19.5v-9.75h-21v9.75zM7.5 18v3.75h21V18z" clip-rule="evenodd"/></svg>