<svg xmlns="http://www.w3.org/2000/svg" viewBox="0 0 16 16"><path fill-rule="evenodd" d="M13.328 5.24a6 6 0 0 1-.032 5.58q.172.32.3.619c.185.432.304.838.327 1.195.023.356-.046.733-.321 1.008-.367.366-.907.37-1.383.266-.427-.092-.92-.293-1.456-.582a6 6 0 0 1-5.526 0c-.536.289-1.03.49-1.456.582-.374.081-.756.092-1.08-.057-.36-.166-.558-.485-.612-.856-.05-.346.02-.737.153-1.134q.162-.482.462-1.04a6 6 0 0 1-.589-3.992 6 6 0 0 1 .557-1.588c-.292-.541-.495-1.039-.588-1.468-.082-.374-.092-.757.057-1.08.166-.36.484-.558.856-.612.346-.05.736.02 1.134.153a7 7 0 0 1 1.052.468 6 6 0 0 1 5.634 0q.328-.176.63-.306c.432-.186.838-.304 1.196-.327.355-.023.732.046 1.007.321.366.367.37.906.266 1.383-.093.43-.296.926-.588 1.468ZM12.19 5.2a5.04 5.04 0 0 1-1.432 7.017 18 18 0 0 1-2.025-1.464A28 28 0 0 0 9.92 9.617v.783h.96V7.76H8.24v.96h1.213A28 28 0 0 1 8 10.121a27 27 0 0 1-1.094-1.035c-1.03-1.03-1.95-2.112-2.645-3.11a14 14 0 0 1-.48-.733 5.04 5.04 0 0 1 6.043-1.941 19 19 0 0 0-1.38 1.014 25 25 0 0 0-.924.779V4.16h-.96V6.8H9.2v-.96H8.127q.458-.407.918-.775a17 17 0 0 1 1.762-1.25A5 5 0 0 1 12.191 5.2Zm-.445-1.887q.544.436.978.987a4 4 0 0 0 .254-.73c.084-.389 0-.494-.007-.501-.004-.004-.058-.056-.267-.042-.206.013-.498.088-.879.251zm-7.492 0a5 5 0 0 0-.428-.169c-.333-.111-.559-.132-.69-.113a.2.2 0 0 0-.099.031.1.1 0 0 0-.024.032c-.024.052-.053.192.009.476q.068.313.254.73a6 6 0 0 1 .978-.987M3.278 6.24a5.04 5.04 0 0 0 1.963 5.978q.353-.213.743-.486c.416-.29.847-.619 1.282-.978a28 28 0 0 1-1.039-.988c-1.062-1.062-2.02-2.188-2.754-3.24zm2.958 6.482a5.04 5.04 0 0 0 3.528 0A20 20 0 0 1 8 11.391a21 21 0 0 1-1.764 1.33Zm-1.94 0a6 6 0 0 1-.98-.971 5 5 0 0 0-.164.416c-.111.333-.132.558-.113.69a.2.2 0 0 0 .031.098.1.1 0 0 0 .032.025c.052.024.192.053.476-.009q.308-.067.719-.25Zm7.407 0q.417.185.72.249c.388.084.493 0 .5-.007.004-.004.055-.058.042-.267-.013-.206-.088-.498-.251-.879l-.03-.067a6 6 0 0 1-.98.97Z"/></svg>