<svg xmlns="http://www.w3.org/2000/svg" viewBox="0 0 275 275"><path d="M97.024 205.745c6.269-3.62 6.28-15.339.023-26.176s-16.41-16.687-22.68-13.067-6.28 15.339-.024 26.176 16.411 16.686 22.68 13.067m128.23-13.052c6.256-10.836 6.246-22.555-.024-26.175-6.269-3.62-16.423 2.23-22.68 13.067s-6.246 22.555.023 26.175 16.424-2.23 22.681-13.067m-85.505 37.753c6.27-3.62 6.28-15.339.024-26.176s-16.411-16.686-22.681-13.067c-6.269 3.62-6.28 15.339-.023 26.176s16.411 16.687 22.68 13.067m42.788-13.092c6.257-10.837 6.247-22.556-.023-26.176s-16.424 2.231-22.68 13.067-6.247 22.556.023 26.176 16.424-2.231 22.68-13.067M149.771 88.217c12.513 0 22.657-5.869 22.657-13.108S162.284 62 149.771 62s-22.658 5.869-22.658 13.109 10.144 13.108 22.658 13.108M97.01 156.365c6.269-3.619 6.279-15.338.022-26.175-6.256-10.836-16.41-16.687-22.68-13.067s-6.28 15.339-.023 26.175c6.256 10.837 16.41 16.687 22.68 13.067m10.046-43.513c12.514 0 22.658-5.869 22.658-13.108s-10.144-13.109-22.658-13.109c-12.513 0-22.657 5.87-22.657 13.109s10.144 13.108 22.657 13.108m118.173 30.474c6.256-10.837 6.246-22.556-.023-26.176s-16.424 2.231-22.681 13.067-6.246 22.556.023 26.176 16.424-2.231 22.681-13.067m-32.685-30.474c12.513 0 22.657-5.869 22.657-13.108s-10.144-13.109-22.657-13.109-22.657 5.87-22.657 13.109 10.144 13.108 22.657 13.108m-52.808 68.215c6.269-3.62 6.28-15.339.023-26.175s-16.411-16.687-22.68-13.067c-6.27 3.619-6.28 15.339-.024 26.175s16.411 16.687 22.681 13.067m42.777-13.081c6.257-10.836 6.246-22.556-.023-26.175-6.27-3.62-16.424 2.23-22.681 13.067s-6.246 22.555.023 26.175 16.424-2.23 22.681-13.067m-32.741-30.443c12.513 0 22.657-5.869 22.657-13.109 0-7.239-10.144-13.108-22.657-13.108s-22.658 5.869-22.658 13.108 10.144 13.109 22.658 13.109"/></svg>