<svg xmlns="http://www.w3.org/2000/svg" viewBox="0 0 275 275"><path d="M97.0239 205.745C103.293 202.125 103.304 190.406 97.0471 179.569 90.7905 168.733 80.6361 162.882 74.3666 166.502 68.0971 170.122 68.0867 181.841 74.3433 192.678 80.5999 203.514 90.7544 209.364 97.0239 205.745z"></path><path d="M225.253 192.693C231.509 181.857 231.499 170.138 225.229 166.518 218.96 162.898 208.806 168.748 202.549 179.585 196.292 190.421 196.303 202.14 202.572 205.76 208.842 209.38 218.996 203.53 225.253 192.693z"></path><path d="M139.748 230.446C146.018 226.826 146.028 215.107 139.772 204.27 133.515 193.434 123.361 187.584 117.091 191.203 110.822 194.823 110.811 206.542 117.068 217.379 123.325 228.215 133.479 234.066 139.748 230.446z"></path><path d="M182.536 217.354C188.793 206.517 188.783 194.798 182.513 191.178 176.244 187.559 166.089 193.409 159.833 204.245 153.576 215.082 153.586 226.801 159.856 230.421 166.125 234.041 176.28 228.19 182.536 217.354z"></path><path d="M149.771 88.2169C162.284 88.2169 172.428 82.3481 172.428 75.1085 172.428 67.8689 162.284 62 149.771 62c-12.514.0-22.658 5.8689-22.658 13.1085.0 7.2396 10.144 13.1084 22.658 13.1084z"></path><path d="M97.0092 156.365C103.279 152.746 103.289 141.027 97.0325 130.19 90.7759 119.354 80.6214 113.503 74.3519 117.123 68.0824 120.743 68.072 132.462 74.3286 143.298 80.5853 154.135 90.7397 159.985 97.0092 156.365z"></path><path d="M107.055 112.852c12.514.0 22.658-5.869 22.658-13.1082.0-7.2396-10.144-13.1085-22.658-13.1085-12.513.0-22.6571 5.8689-22.6571 13.1085C84.3979 106.983 94.542 112.852 107.055 112.852z"></path><path d="M225.228 143.326C231.484 132.489 231.474 120.77 225.205 117.15 218.935 113.531 208.781 119.381 202.524 130.217 196.267 141.054 196.278 152.773 202.547 156.393 208.817 160.013 218.971 154.162 225.228 143.326z"></path><path d="M192.543 112.852c12.513.0 22.657-5.869 22.657-13.1082.0-7.2396-10.144-13.1085-22.657-13.1085s-22.657 5.8689-22.657 13.1085C169.886 106.983 180.03 112.852 192.543 112.852z"></path><path d="M139.735 181.067C146.004 177.447 146.015 165.728 139.758 154.892 133.501 144.055 123.347 138.205 117.078 141.825 110.808 145.444 110.798 157.164 117.054 168 123.311 178.837 133.465 184.687 139.735 181.067z"></path><path d="M182.512 167.986C188.769 157.15 188.758 145.43 182.489 141.811 176.219 138.191 166.065 144.041 159.808 154.878 153.551 165.714 153.562 177.433 159.831 181.053 166.101 184.673 176.255 178.823 182.512 167.986z"></path><path d="M149.771 137.543c12.513.0 22.657-5.869 22.657-13.109.0-7.239-10.144-13.108-22.657-13.108-12.514.0-22.658 5.869-22.658 13.108.0 7.24000000000001 10.144 13.109 22.658 13.109z"></path></svg>