<svg xmlns="http://www.w3.org/2000/svg" width="64" height="65" fill="none" viewBox="0 0 64 65"><path fill="#0156DD" fill-rule="evenodd" d="M52.077 36.797c-1.203-3.27-3.397-7.031-6.477-10.785l3.054-3.055c5.109 6.077 8.127 12.5 8.417 17.58.272 2.833-.32 5.194-1.892 6.765a6 6 0 0 1-.688.59c-2.422 2.24-6.562 4.043-11.537 4.39h.004a17.8 17.8 0 0 1 1.072 6.079l-2 2H10.48l-2-2a17.77 17.77 0 0 1 10.773-16.337l.002.002C8.145 30.13 10.004 14.887 15.031 9.554c1.354-1.433 3.25-2.22 5.51-2.416 3.629-.617 8.591.806 13.815 3.875 2.386 1.33 4.809 2.98 7.178 4.92l-2.968 2.97c-2.084-1.75-4.176-3.227-6.191-4.415-2.093-1.164-4.12-2.038-5.996-2.609-2.19-.666-3.916-.86-5.242-.777-.75.147-1.228.421-1.486.678-.683.683-1.479 2.912.274 7.678 1.624 4.416 5.057 9.727 10.038 14.707s10.292 8.412 14.71 10.036c4.124 1.516 6.349 1.123 7.316.548l.036-.037.03-.032c.624-.667 1.127-1.914 1.03-3.87-.112-1.071-.413-2.397-1.008-4.014M22.514 45.1c5.383 4.5 10.988 6.581 16.068 7.104h-.004a13.8 13.8 0 0 1 1.306 4.156H12.626a13.78 13.78 0 0 1 9.89-11.258zm21.368 3.064c-5.213-1.78-11.246-5.67-16.748-11.17-6.209-6.208-10.364-13.09-11.754-18.71a21.6 21.6 0 0 0-.252 5.49c.414 5.353 2.743 11.509 8.35 16.828 7.232 6.862 14.76 8.305 20.404 7.562" clip-rule="evenodd"/><path fill="#0156DD" d="M53.312 13.498a3.21 3.21 0 0 1-3.462 4.02L37.057 30.311l-2.829-2.828 12.794-12.794a3.21 3.21 0 0 1 6.29-1.191"/></svg>