<svg xmlns="http://www.w3.org/2000/svg" viewBox="0 0 48 48"><path d="M19.17 11.482a3.435 3.435 0 0 1 0-4.837L17.048 4.5a6.435 6.435 0 0 0 0 9.082z"/><path d="M14.933 15.75a9.427 9.427 0 0 1 0-13.312L12.818.285a12.42 12.42 0 0 0 0 17.558zm16.02-2.145a6.436 6.436 0 0 0 0-9.105L28.83 6.645a3.435 3.435 0 0 1 0 4.838z"/><path d="M35.182 17.843a12.42 12.42 0 0 0 0-17.558l-2.115 2.123a9.427 9.427 0 0 1 0 13.312zM27 9.075a3 3 0 1 0-4.448 2.625L10.5 48h3l2.025-6h16.943l2.032 6h3L25.402 11.723A3 3 0 0 0 27 9.075m-3 7.823L26.378 24h-4.793zM28.92 31.5h-9.863l1.5-4.5h6.826zM16.5 39l1.5-4.5h11.933l1.5 4.5z"/></svg>