<svg xmlns="http://www.w3.org/2000/svg" width="64" height="64" viewBox="0 0 64 64"><path fill-rule="evenodd" d="M51.437 57.049H40.051l-2.334-4h11.72V25.205l-13.981-.058-1.992-2V9.108H17.411v28.878h-4V7.108l2-2h20.053l1.42.592 15.973 16.104.58 1.409v31.836zM37.464 11.965v9.19l9.153.038z" clip-rule="evenodd"/><path d="M17.41 60.514a4.848 4.848 0 1 0 0-9.697 4.848 4.848 0 0 0 0 9.697m10.41-.605 5.213-8.935 5.213 8.935zm1.632-35.133v8.605h-8.605v-8.605zM27.15 41.282v-4.901h-4v4.901h-7.74v6.793a8 8 0 0 1 2-.258c.692 0 1.362.09 2 .258v-2.793h11.48v3.18h4v-7.18z"/></svg>