<svg xmlns="http://www.w3.org/2000/svg" aria-hidden="true" class="c_hf c_ck c_dw c_hg" viewBox="0 0 16 16"><path d="M8.21 1.503q-.062-.004-.125-.003h-.082a6.5 6.5 0 1 0 0 13h.082A6.5 6.5 0 0 0 8.21 1.503m4.775 4.165H11.7a7.6 7.6 0 0 0-.975-2.446 5.54 5.54 0 0 1 2.258 2.446zM8.5 2.561c.93.276 1.759 1.457 2.175 3.107H8.5zm-1 .061v3.046H5.496C5.886 4.12 6.64 2.983 7.5 2.622m-1.965.464a7.5 7.5 0 0 0-1.066 2.582H3.022a5.54 5.54 0 0 1 2.513-2.583zm-2.556 7.15h1.469a7.6 7.6 0 0 0 1.081 2.676 5.53 5.53 0 0 1-2.55-2.675zM7.5 13.38c-.88-.367-1.646-1.54-2.027-3.142H7.5zm1 .06v-3.202h2.197C10.291 11.94 9.45 13.16 8.5 13.439zm2.231-.665a7.7 7.7 0 0 0 .991-2.537h1.305a5.53 5.53 0 0 1-2.296 2.538zM2.643 9.237a5.5 5.5 0 0 1 .023-2.569h10.675c.21.843.217 1.723.023 2.569H2.644z"/><path d="M6.236 8.165h-.01l-.183-.78h-.382l-.178.786h-.01l-.166-.786h-.392l.32 1.227h.418l.192-.715h.014l.191.715h.418l.32-1.227h-.392zm1.941 0h-.011l-.182-.78h-.383l-.177.786h-.01l-.166-.786h-.392l.32 1.227h.418l.192-.715h.013l.192.715h.418l.32-1.227h-.392zm1.94 0h-.01l-.182-.78h-.383l-.177.786h-.01l-.166-.786h-.392l.319 1.227h.419l.191-.715h.014l.192.715h.418l.32-1.227h-.392zm.764.057a.2.2 0 0 0-.147.06.2.2 0 0 0-.06.146.2.2 0 0 0 .06.146.2.2 0 0 0 .147.061q.055 0 .102-.028a.2.2 0 0 0 .075-.075.2.2 0 0 0 .014-.184.2.2 0 0 0-.047-.066.2.2 0 0 0-.144-.06"/></svg>