<svg xmlns="http://www.w3.org/2000/svg" viewBox="0 0 48 48"><path d="M29.9 10.1a7.68 7.68 0 0 0-3.61 6.32 7.69 7.69 0 0 0 5.06 7.43l.924 1.32.004 15.1h3.41l.003-15.1.924-1.32a7.76 7.76 0 0 0 3.73-2.9 7.7 7.7 0 0 0-.23-8.98 7.7 7.7 0 0 0-2.05-1.87l-.003 5.99-1.4 1.4h-5.33l-1.4-1.4zm-4.29.176c1.33-1.75 3.18-3.04 5.28-3.69l1.82 1.34.003 6.76h2.52l.004-6.76 1.82-1.34c2.1.646 3.95 1.94 5.28 3.69a10.45 10.45 0 0 1 2.13 6.08c.056 2.2-.58 4.36-1.82 6.18a10.56 10.56 0 0 1-4.16 3.57l-.004 15.6-1.4 1.4h-6.22l-1.4-1.4-.004-15.6a10.53 10.53 0 0 1-4.16-3.57 10.47 10.47 0 0 1-1.82-6.18c.057-2.2.803-4.33 2.13-6.08zm-3.78 18.1H12v-2.81h9.83zm4.21-5.62h-14v-2.81h14zm-1.4-5.62h-12.6v-2.81h12.6zm-18.3-7.73 1.4-1.4h21.1v2.81H9.14v28.1h22.5v2.81H7.74l-1.4-1.4z"/></svg>