<svg xmlns="http://www.w3.org/2000/svg" viewBox="0 0 48 48"><path d="M23.437 11.88H12.03v3h11.407z"/><path d="M43.5 24.383a9.11 9.11 0 0 0-7.5-8.955V7.32l-1.5-1.5H7.35l-1.5 1.5v32.955l1.5 1.5h19.5V43.5l2.602 1.02 4.898-5.295 4.897 5.295 2.625-1.02V29.543a9.05 9.05 0 0 0 1.628-5.16m-3 0a6.113 6.113 0 1 1-6.113-6.113 6.12 6.12 0 0 1 6.113 6.113M8.85 38.775V8.82H33v6.57A9.1 9.1 0 0 0 27.885 18h-15.81v3H25.92a9.1 9.1 0 0 0-.638 3H12.075v3H25.65c.272.91.684 1.774 1.222 2.558v9.217zM35.467 36l-1.095-1.185L33.277 36l-3.405 3.675v-7.38a9.04 9.04 0 0 0 9 0v7.372z"/></svg>