<svg xmlns="http://www.w3.org/2000/svg" width="64" height="64" fill="none" viewBox="0 0 64 64"><path fill="#000" d="M40.022 60.021H23.983v3.926h16.039zM33.877 0h-3.926v8.477h3.926zm17.967 8.105L45.851 14.1l2.775 2.775 5.994-5.993zm10.269 20.694h-8.476v3.926h8.476zm-51.75.172H1.887v3.926h8.476zm1.671-20.744-2.776 2.776 5.994 5.994 2.776-2.775z"/><path fill="#000" d="M32 12.22a18.626 18.626 0 0 0-9.96 34.37v7.39L24 55.95h16l1.96-1.97v-7.39A18.627 18.627 0 0 0 32 12.22m7.06 31.53-1.02.56v7.71H25.96v-7.71l-1.02-.56a14.71 14.71 0 1 1 14.12 0"/></svg>