<svg xmlns="http://www.w3.org/2000/svg" width="48" height="48" fill="none" viewBox="0 0 48 48"><path fill="#F6821F" fill-rule="evenodd" d="M7.388 36.971V5.77h3v5.282h2.957l1.5-1.5h1.5l1.5 1.5h2.795l1.5-1.5h1.5l1.5 1.5h12.323V5.77h3v31.201h1.512v2.873h1.52v3H4.505v-3H5.88V36.97zm5.958-22.914 1.5 1.5h1.499l1.499-1.5h2.796l1.5 1.5h1.5l1.498-1.5h12.325v6.066h-3.85l-1.499-1.5h-1.5l-1.5 1.5h-11.27l-1.5-1.5h-1.499l-1.5 1.5h-2.958v-6.066zm0 9.072h-2.959v5.931h11.377l1.499-1.5h1.5l1.499 1.5h2.853l1.5-1.5h1.5l1.499 1.5h3.85v-5.93h-3.85l-1.5 1.5h-1.5l-1.5-1.5h-11.27l-1.5 1.5h-1.499zm8.417 8.936 1.5 1.5h1.5l1.5-1.5h2.852l1.5 1.5h1.5l1.499-1.5h3.85v4.906H10.387v-4.906z" clip-rule="evenodd"/></svg>