<svg xmlns="http://www.w3.org/2000/svg" viewBox="0 0 16 16"><path d="M5.915 3.508a.419.419 0 1 0 0-.838.419.419 0 0 0 0 .838m1.34 0a.419.419 0 1 0 0-.838.419.419 0 0 0 0 .838m1.341 0a.419.419 0 1 0 0-.838.419.419 0 0 0 0 .838"/><path d="M14.223 1.5H4.615l-.5.5v2.378H3.19l-.5.5v1.408h-.913l-.5.5v7.213l.5.5h8.684l.5-.5v-1.408h.915l.5-.5v-1.609h1.847l.5-.5V2.001zm-.5 1v1.18H5.115V2.5zM4.115 5.379v.968H3.69v-.968zM2.69 7.286v.968h-.413v-.968zm7.27 6.213H2.278V9.254h.415v2.838l.5.5H9.96zm1.415-1.908H3.693V7.348h.425v2.635l.5.5h6.759v1.11zm-6.26-2.109V4.679h8.608v4.803z"/></svg>