<svg xmlns="http://www.w3.org/2000/svg" viewBox="0 0 48 49"><path d="M24 5.04a19.5 19.5 0 1 0 19.5 19.5A19.575 19.575 0 0 0 24 5.04m0 3a16.575 16.575 0 0 1 16.5 16.5 16.8 16.8 0 0 1-2.175 8.175c.302-1.125.453-2.285.45-3.45a14.775 14.775 0 0 0-29.55 0 13.2 13.2 0 0 0 .45 3.45A16.8 16.8 0 0 1 7.5 24.54 16.575 16.575 0 0 1 24 8.04m-5.25 30.6a6.974 6.974 0 1 1 10.5 0 5.25 5.25 0 0 0-10.5 0M24 24.015a9.976 9.976 0 0 0-9.975 10.05c-.024.53.026 1.06.15 1.575a11.5 11.5 0 0 1-1.95-6.375 11.775 11.775 0 0 1 23.55 0 11.47 11.47 0 0 1-1.95 6.375 5.6 5.6 0 0 0 .15-1.575A9.974 9.974 0 0 0 24 24.015M21.75 38.79A2.25 2.25 0 1 1 24 41.04a2.174 2.174 0 0 1-2.25-2.25"/></svg>