<svg xmlns="http://www.w3.org/2000/svg" viewBox="0 0 64 64"><path d="M50.25 42.534a2.847 2.847 0 1 0 4.932 2.847 2.847 2.847 0 0 0-4.931-2.847M31.997 6a2.847 2.847 0 1 0 0 5.694 2.847 2.847 0 0 0 0-5.694m-4.422 7.286-2-3.464-15.236 8.796-1 1.732v17.552h4V23.814l3.474 2.006 2-3.464-3.474-2.006zm-11.81 26.121 2 3.464 12.292-7.096v8.497h4v-8.497l12.18 7.033 2-3.465-12.18-7.032 7.358-4.249-2-3.464-7.358 4.249V14.615h-4v14.232l-7.36-4.249-2 3.464 7.36 4.249zm1.911 6.214-2 3.465 15.38 8.88h2l15.269-8.816-2-3.464-12.269 7.083v-4.011h-4v4.011zM54.774 20.35v17.528h-4V23.814L47.3 25.82l-2-3.464 3.474-2.006-12.325-7.116 2-3.464 15.325 8.848zm-41.03 22.338a2.847 2.847 0 1 0-4.932 2.847 2.847 2.847 0 0 0 4.932-2.847"/></svg>