<svg xmlns="http://www.w3.org/2000/svg" aria-hidden="true" viewBox="0 0 20 20"><path d="M10.72 1.5H9.265v3.198l1.455.004zM7.36 3.347l1.516 1.517-1.032 1.025-1.513-1.513 1.03-1.029ZM4.485 6.28h3.202l-.005 1.455H4.485zm1.848 3.36 1.515-1.516 1.026 1.032-1.512 1.512-1.03-1.029Zm2.932 2.875V9.313l1.455.005v3.197zm3.36-1.845-1.517-1.517 1.032-1.026 1.514 1.514zM15.5 7.735h-3.202l.005-1.455H15.5zm-1.847-3.359-1.516 1.516-1.025-1.032 1.513-1.513 1.028 1.03ZM2 1.829v.82h-.822v1.315H2v.821h1.314v-.82h.821V2.65h-.821v-.821zm0 12.842v-1.5H.5v-1.314H2v-1.499h1.314v1.499h1.5v1.314h-1.5v1.5z"/></svg>