<svg width="16" height="16" viewBox="0 0 16 16" fill="none" xmlns="http://www.w3.org/2000/svg">
<path d="M8.20993 1.503C8.16793 1.5 8.12693 1.5 8.08493 1.5H8.00293C6.27902 1.5 4.62572 2.18482 3.40674 3.40381C2.18775 4.62279 1.50293 6.27609 1.50293 8C1.50293 9.72391 2.18775 11.3772 3.40674 12.5962C4.62572 13.8152 6.27902 14.5 8.00293 14.5H8.08493C9.78713 14.4837 11.415 13.8002 12.6187 12.5965C13.8224 11.3929 14.5059 9.76501 14.5223 8.06281C14.5386 6.36061 13.8866 4.71991 12.7063 3.4933C11.5259 2.26669 9.9115 1.55207 8.20993 1.503ZM12.9849 5.668H11.6999C11.5192 4.8023 11.1893 3.97462 10.7249 3.222C11.7106 3.78657 12.4988 4.64047 12.9829 5.668H12.9849ZM8.49993 2.561C9.42993 2.837 10.2589 4.018 10.6749 5.668H8.49993V2.561ZM7.49993 2.622V5.668H5.49593C5.88593 4.12 6.63993 2.983 7.49993 2.622ZM5.53493 3.086C5.0204 3.87198 4.65875 4.74796 4.46893 5.668H3.02193C3.54819 4.55091 4.43271 3.64275 5.53493 3.086ZM2.97893 10.236H4.44793C4.63296 11.1892 4.99998 12.0978 5.52893 12.912C4.39751 12.3389 3.49729 11.3945 2.97893 10.237V10.236ZM7.49993 13.38C6.61993 13.013 5.85393 11.84 5.47293 10.238H7.49993V13.38ZM8.49993 13.44V10.238H10.6969C10.2909 11.94 9.44993 13.161 8.49993 13.44ZM10.7309 12.775C11.2092 11.9948 11.5448 11.1358 11.7219 10.238H13.0269C12.549 11.3053 11.7452 12.1939 10.7309 12.776V12.775ZM2.64293 9.237C2.44852 8.39077 2.4564 7.51062 2.66593 6.668H13.3409C13.5509 7.511 13.5579 8.391 13.3639 9.237H2.64393H2.64293Z" fill="black"/>
<path d="M6.23604 8.16501H6.22604L6.04304 7.38501H5.66104L5.48304 8.17101H5.47304L5.30704 7.38501H4.91504L5.23504 8.61201H5.65304L5.84504 7.89701H5.85904L6.05004 8.61201H6.46804L6.78804 7.38501H6.39604L6.23604 8.16501ZM8.17704 8.16501H8.16604L7.98404 7.38501H7.60104L7.42404 8.17101H7.41404L7.24804 7.38501H6.85604L7.17604 8.61201H7.59404L7.78604 7.89701H7.79904L7.99104 8.61201H8.40904L8.72904 7.38501H8.33704L8.17704 8.16501ZM10.117 8.16501H10.107L9.92504 7.38501H9.54204L9.36504 8.17101H9.35504L9.18904 7.38501H8.79704L9.11604 8.61201H9.53504L9.72604 7.89701H9.74004L9.93204 8.61201H10.35L10.67 7.38501H10.278L10.118 8.16501H10.117ZM10.881 8.22201C10.8537 8.22145 10.8266 8.22648 10.8013 8.2368C10.776 8.24712 10.7531 8.2625 10.734 8.28201C10.7143 8.30074 10.6988 8.32343 10.6884 8.34859C10.6781 8.37376 10.6732 8.40082 10.674 8.42801C10.6733 8.45518 10.6783 8.48221 10.6886 8.50735C10.6989 8.53249 10.7144 8.5552 10.734 8.57401C10.753 8.59375 10.7759 8.60935 10.8012 8.61985C10.8265 8.63034 10.8537 8.6355 10.881 8.63501C10.917 8.63501 10.952 8.62501 10.983 8.60701C11.0138 8.5885 11.0395 8.56275 11.058 8.53201C11.075 8.50472 11.0851 8.47375 11.0875 8.44172C11.09 8.40969 11.0847 8.37755 11.072 8.34801C11.0612 8.32296 11.0452 8.30048 11.025 8.28201C11.0063 8.26287 10.9839 8.2477 10.9591 8.23739C10.9344 8.22708 10.9078 8.22185 10.881 8.22201Z" fill="black"/>
</svg>
