<svg width="14" height="14" viewBox="0 0 14 14" fill="none" xmlns="http://www.w3.org/2000/svg">
<path d="M6.92648 0.500011C5.6409 0.500011 4.38419 0.88123 3.31527 1.59546C2.24635 2.30969 1.41323 3.32485 0.921258 4.51257C0.429288 5.70029 0.300566 7.00722 0.55137 8.2681C0.802174 9.52898 1.42124 10.6872 2.33028 11.5962C3.23932 12.5052 4.39751 13.1243 5.65839 13.3751C6.91926 13.6259 8.2262 13.4972 9.41392 13.0052C10.6016 12.5133 11.6168 11.6801 12.331 10.6112C13.0453 9.5423 13.4265 8.28559 13.4265 7.00001C13.4246 5.27669 12.7391 3.62451 11.5205 2.40594C10.302 1.18737 8.64979 0.50193 6.92648 0.500011ZM6.92648 12.5C5.83868 12.5 4.77531 12.1774 3.87084 11.5731C2.96637 10.9687 2.26142 10.1098 1.84514 9.10477C1.42886 8.09978 1.31994 6.99391 1.53216 5.92701C1.74437 4.86012 2.2682 3.88011 3.03739 3.11092C3.80658 2.34174 4.78658 1.81791 5.85348 1.60569C6.92037 1.39347 8.02624 1.50239 9.03123 1.91867C10.0362 2.33496 10.8952 3.0399 11.4996 3.94438C12.1039 4.84885 12.4265 5.91221 12.4265 7.00001C12.4248 8.45819 11.8448 9.85618 10.8137 10.8873C9.78264 11.9184 8.38466 12.4984 6.92648 12.5Z" fill="black"/>
<path d="M6.89173 9.17501C6.79988 9.17393 6.70877 9.19144 6.62387 9.2265C6.53897 9.26156 6.46205 9.31344 6.39773 9.37901C6.33116 9.44212 6.27839 9.51832 6.24272 9.60282C6.20705 9.68733 6.18926 9.7783 6.19047 9.87001C6.18887 9.96267 6.20645 10.0547 6.24212 10.1402C6.27779 10.2257 6.33077 10.3029 6.39773 10.367C6.46202 10.4326 6.53895 10.4845 6.62386 10.5195C6.70876 10.5545 6.79989 10.5719 6.89173 10.5708C7.01483 10.5723 7.13597 10.5398 7.24173 10.4768C7.3464 10.4148 7.43403 10.3278 7.49673 10.2235C7.57612 10.0908 7.60831 9.93515 7.58807 9.78184C7.56783 9.62853 7.49634 9.48656 7.38523 9.37901C7.32091 9.31357 7.24406 9.26178 7.15926 9.22672C7.07447 9.19167 6.98347 9.17408 6.89173 9.17501Z" fill="black"/>
<path d="M8.11373 4.09801C7.7761 3.94965 7.41018 3.8767 7.04148 3.88426C6.6915 3.87996 6.34454 3.94947 6.02323 4.08826C5.72372 4.21785 5.46731 4.43004 5.28398 4.70001C5.08896 5.00176 4.9865 5.35399 4.98923 5.71326H6.12498C6.12821 5.53769 6.17939 5.36635 6.27297 5.21776C6.3558 5.09197 6.47101 4.99083 6.60648 4.92501C6.74015 4.86046 6.88679 4.82729 7.03523 4.82801C7.18933 4.82577 7.34171 4.86067 7.47948 4.92976C7.61377 4.99585 7.72621 5.09918 7.80339 5.22742C7.88057 5.35566 7.91922 5.5034 7.91473 5.65301C7.9168 5.79263 7.88623 5.93079 7.82548 6.05651C7.76432 6.17855 7.68176 6.28863 7.58173 6.38151C7.47404 6.48149 7.35682 6.57067 7.23173 6.64776C7.05535 6.75438 6.89358 6.88346 6.75048 7.03176C6.6083 7.18939 6.50421 7.37756 6.44623 7.58176C6.36571 7.8809 6.32867 8.19007 6.33623 8.49976V8.58251H7.39748V8.49976C7.39463 8.30711 7.42196 8.11521 7.47848 7.93101C7.52858 7.78041 7.61129 7.64272 7.72073 7.52776C7.84687 7.39983 7.98876 7.28844 8.14298 7.19626C8.32928 7.08666 8.49984 6.95227 8.64997 6.79676C8.79146 6.64948 8.90339 6.47644 8.97972 6.28701C9.06026 6.07993 9.09982 5.85918 9.09622 5.63701C9.10455 5.30731 9.01409 4.98265 8.83648 4.70476C8.65799 4.43805 8.40732 4.22761 8.11373 4.09801Z" fill="black"/>
</svg>
