<svg width="16" height="16" viewBox="0 0 16 16" fill="none" xmlns="http://www.w3.org/2000/svg">
<path d="M9.42259 5.20746L10.7951 4.36746L10.7576 5.97496H11.5551L11.5176 4.36746L12.8926 5.20746L13.2851 4.51496L11.8701 3.74746L13.1776 3.03996L13.2851 2.97996L12.8926 2.28996L11.5176 3.12996L11.5551 1.52246H10.7576L10.7951 3.12996L9.42259 2.28996L9.02759 2.98246L10.4451 3.74746L9.02759 4.51496L9.42259 5.20746Z" fill="black"/>
<path d="M13.6526 6.97496L12.9601 6.89246L10.8676 8.49996L10.7451 8.34996L7.89259 7.71246L5.17009 7.69996L4.84759 7.81746L3.14759 9.24996L2.75009 8.62496L1.90259 9.15746L4.94259 14L5.79009 13.47L5.50009 13.015L5.93259 12.685H10.6376L11.0201 12.5L14.3826 8.52246V7.88496L13.6526 6.97496ZM10.4026 11.685H5.76759L5.46259 11.7875L4.96259 12.165L3.67759 10.115L5.34759 8.69996H7.72259L10.1301 9.23246V9.45246H7.94009V10.4525H10.6376L11.1376 9.95246V9.54496L13.1826 7.98246L13.3526 8.19246L10.4026 11.685Z" fill="black"/>
</svg>
