<svg width="16" height="16" viewBox="0 0 16 16" fill="none" xmlns="http://www.w3.org/2000/svg">
<path d="M6.08181 8.43933C6.08181 8.02586 6.38683 7.68694 6.77319 7.68694C7.15955 7.68694 7.47135 8.02586 7.46457 8.43933C7.46457 8.8528 7.15955 9.19171 6.77319 9.19171C6.39361 9.19171 6.08181 8.8528 6.08181 8.43933Z" fill="black"/>
<path d="M8.55587 8.43933C8.55587 8.02586 8.86089 7.68694 9.24725 7.68694C9.63361 7.68694 9.93863 8.02586 9.93863 8.43933C9.93863 8.8528 9.63361 9.19171 9.24725 9.19171C8.86767 9.19171 8.55587 8.8528 8.55587 8.43933Z" fill="black"/>
<path fill-rule="evenodd" clip-rule="evenodd" d="M3.45863 2H12.5415C13.3074 2 13.931 2.6236 13.931 3.39632V15.5565L12.4737 14.2686L11.6535 13.5095L10.7859 12.7028L11.1452 13.9568H3.45863C2.69269 13.9568 2.06909 13.3332 2.06909 12.5605V3.39632C2.06909 2.6236 2.69269 2 3.45863 2ZM9.47771 10.3033C9.68106 10.5609 9.92508 10.8524 9.92508 10.8524C11.4231 10.8049 11.9992 9.82209 11.9992 9.82209C11.9992 7.6395 11.0232 5.87038 11.0232 5.87038C10.0471 5.13833 9.11847 5.15866 9.11847 5.15866L9.02357 5.26711C10.1759 5.61958 10.7114 6.12795 10.7114 6.12795C10.0064 5.74159 9.31503 5.5518 8.6711 5.47724C8.18307 5.42301 7.71537 5.43657 7.3019 5.4908C7.26639 5.4908 7.23605 5.49596 7.20186 5.50178C7.19689 5.50263 7.19183 5.50349 7.18667 5.50435C6.94943 5.52469 6.37328 5.6128 5.648 5.93138C5.39721 6.04661 5.24809 6.12795 5.24809 6.12795C5.24809 6.12795 5.81068 5.59247 7.03077 5.24L6.96298 5.15866C6.96298 5.15866 6.03436 5.13833 5.0583 5.87038C5.0583 5.87038 4.08223 7.6395 4.08223 9.82209C4.08223 9.82209 4.6516 10.8049 6.14959 10.8524C6.14959 10.8524 6.40039 10.5474 6.60374 10.2898C5.7429 10.0322 5.41754 9.48996 5.41754 9.48996C5.41754 9.48996 5.48533 9.53741 5.60734 9.60519C5.61411 9.61197 5.62089 9.61875 5.63445 9.62552C5.64462 9.6323 5.65478 9.63739 5.66495 9.64247C5.67512 9.64755 5.68529 9.65264 5.69545 9.65942C5.86491 9.75431 6.03436 9.82887 6.19026 9.88988C6.46817 9.99833 6.80031 10.1068 7.18667 10.1813C7.69503 10.2762 8.29152 10.3101 8.94223 10.1881C9.26081 10.1339 9.58616 10.039 9.92508 9.89665C10.1623 9.80854 10.4267 9.67975 10.7046 9.49674C10.7046 9.49674 10.3657 10.0526 9.47771 10.3033Z" fill="black"/>
</svg>
