<svg width="16" height="16" viewBox="0 0 16 16" fill="none" xmlns="http://www.w3.org/2000/svg">
<path d="M8 1.5C6.71442 1.5 5.45772 1.88122 4.3888 2.59545C3.31988 3.30968 2.48676 4.32484 1.99479 5.51256C1.50282 6.70028 1.37409 8.00721 1.6249 9.26809C1.8757 10.529 2.49477 11.6872 3.40381 12.5962C4.31285 13.5052 5.47104 14.1243 6.73192 14.3751C7.99279 14.6259 9.29973 14.4972 10.4874 14.0052C11.6752 13.5132 12.6903 12.6801 13.4046 11.6112C14.1188 10.5423 14.5 9.28558 14.5 8C14.4934 6.27812 13.8065 4.62864 12.5889 3.41108C11.3714 2.19352 9.72188 1.50658 8 1.5ZM8 2.5C9.45667 2.50658 10.8518 3.08815 11.8818 4.11818C12.9119 5.14821 13.4934 6.54334 13.5 8C13.4947 8.9553 13.2451 9.89338 12.775 10.725C12.8755 10.35 12.926 9.96327 12.925 9.575C12.925 8.26881 12.4061 7.01612 11.4825 6.0925C10.5589 5.16888 9.30619 4.65 8 4.65C6.69381 4.65 5.44112 5.16888 4.5175 6.0925C3.59389 7.01612 3.075 8.26881 3.075 9.575C3.07404 9.96327 3.12448 10.35 3.225 10.725C2.75486 9.89338 2.50528 8.9553 2.5 8C2.50658 6.54334 3.08815 5.14821 4.11818 4.11818C5.14821 3.08815 6.54334 2.50658 8 2.5ZM6.25 12.7C5.95595 12.3638 5.76495 11.9501 5.69984 11.5082C5.63473 11.0663 5.69827 10.6151 5.88286 10.2084C6.06745 9.80166 6.36528 9.45673 6.74073 9.21482C7.11619 8.97292 7.55337 8.84427 8 8.84427C8.44664 8.84427 8.88382 8.97292 9.25927 9.21482C9.63472 9.45673 9.93255 9.80166 10.1171 10.2084C10.3017 10.6151 10.3653 11.0663 10.3002 11.5082C10.2351 11.9501 10.0441 12.3638 9.75 12.7C9.75 12.2359 9.56563 11.7908 9.23744 11.4626C8.90925 11.1344 8.46413 10.95 8 10.95C7.53587 10.95 7.09075 11.1344 6.76257 11.4626C6.43438 11.7908 6.25 12.2359 6.25 12.7ZM8 7.825C7.56125 7.82499 7.12683 7.91181 6.72178 8.08047C6.31673 8.24913 5.94907 8.49628 5.63999 8.80769C5.33091 9.1191 5.08651 9.4886 4.92089 9.8949C4.75527 10.3012 4.6717 10.7363 4.675 11.175C4.66685 11.3515 4.68369 11.5282 4.725 11.7C4.30282 11.0716 4.0766 10.332 4.075 9.575C4.075 8.53403 4.48853 7.53569 5.22461 6.79961C5.96069 6.06353 6.95903 5.65 8 5.65C9.04098 5.65 10.0393 6.06353 10.7754 6.79961C11.5115 7.53569 11.925 8.53403 11.925 9.575C11.9234 10.332 11.6972 11.0716 11.275 11.7C11.3163 11.5282 11.3332 11.3515 11.325 11.175C11.3283 10.7363 11.2447 10.3012 11.0791 9.8949C10.9135 9.4886 10.6691 9.1191 10.36 8.80769C10.0509 8.49628 9.68327 8.24913 9.27823 8.08047C8.87318 7.91181 8.43876 7.82499 8 7.825ZM7.25 12.75C7.25 12.6017 7.29399 12.4567 7.3764 12.3333C7.45881 12.21 7.57595 12.1139 7.71299 12.0571C7.85003 12.0003 8.00083 11.9855 8.14632 12.0144C8.29181 12.0433 8.42544 12.1148 8.53033 12.2197C8.63522 12.3246 8.70665 12.4582 8.73559 12.6037C8.76453 12.7492 8.74968 12.9 8.69291 13.037C8.63615 13.1741 8.54002 13.2912 8.41668 13.3736C8.29334 13.456 8.14834 13.5 8 13.5C7.90057 13.5035 7.80148 13.4865 7.70891 13.45C7.61634 13.4136 7.53226 13.3585 7.4619 13.2881C7.39155 13.2177 7.33643 13.1337 7.29998 13.0411C7.26352 12.9485 7.24651 12.8494 7.25 12.75Z" fill="black"/>
</svg>
