<svg xmlns="http://www.w3.org/2000/svg" width="1165" height="296" fill="none" viewBox="0 0 1165 296"><path fill="#fff" d="M0 0h1154v296H0z"/><path fill="#C5EBF5" fill-rule="evenodd" stroke="#0055DC" stroke-miterlimit="10" stroke-width="1.5" d="M123.487 129H31.265c-2.444 0-4.631 2.058-4.631 4.63v60.582h101.484V133.63c0-2.572-2.187-4.63-4.631-4.63Z" clip-rule="evenodd"/><path fill="#0055DC" d="M77.312 133.502a.772.772 0 1 0-.001-1.544.772.772 0 0 0 0 1.544"/><path fill="#fff" d="M132.105 198.843H22.518c-5.66 0-9.518-.901-9.518-1.673v-2.572c0-.257.257-.515.515-.515H140.98c.257 0 .515.258.515.515v2.572c.128.772-2.83 1.673-9.39 1.673"/><path stroke="#0055DC" stroke-miterlimit="10" stroke-width="1.5" d="M132.105 198.843H22.518c-5.66 0-9.518-.901-9.518-1.673v-2.572c0-.257.257-.515.515-.515H140.98c.257 0 .515.258.515.515v2.572c.128.772-2.83 1.673-9.39 1.673Z" clip-rule="evenodd"/><path fill="#C5EBF5" d="M141.623 194.598c0-.257-.257-.515-.514-.515H13.643c-.257 0-.515.258-.515.515v2.444h128.624v-2.444z"/><path stroke="#0055DC" stroke-miterlimit="10" stroke-width="1.5" d="M132.105 198.843H22.518c-5.66 0-9.518-.901-9.518-1.673v-2.572c0-.257.257-.515.515-.515H140.98c.257 0 .515.258.515.515v2.572c.128.772-2.83 1.673-9.39 1.673Z"/><path fill="#fff" d="M123.873 136.203H30.75v54.279h93.123z"/><path fill="#0055DC" fill-rule="evenodd" d="M91.331 194.341v.514c0 .386-.771.515-1.414.515H64.835c-.643 0-1.415-.129-1.415-.515v-.514" clip-rule="evenodd"/><path fill="#CBE9F3" d="M90.014 178.783c-3.767-2-7.94-2.538-8.717-4.363-.589-1.383 0-6.012 0-6.012l-9.103-.095s.575 4.694 0 6.107c-.698 1.714-4.49 2.267-7.97 4.215"/><path stroke="#193979" stroke-miterlimit="10" stroke-width="1.5" d="M90.014 178.783c-3.767-2-7.94-2.538-8.717-4.363-.589-1.383 0-6.012 0-6.012l-9.103-.095s.575 4.694 0 6.107c-.698 1.714-4.49 2.267-7.97 4.215"/><path fill="#1B59D3" stroke="#0F387D" stroke-linecap="round" stroke-miterlimit="10" stroke-width="1.5" d="M77.204 183.545a19.55 19.55 0 0 0 12.809-4.761c-3.766-2-7.939-2.539-8.717-4.364a4 4 0 0 1-.229-1.193 23.6 23.6 0 0 1-4.328.464 23.5 23.5 0 0 1-4.325-.464c-.016.406-.09.808-.222 1.193-.697 1.715-4.489 2.268-7.97 4.216a19.55 19.55 0 0 0 12.982 4.909Z"/><path fill="#CBE9F3" d="M69.877 160.288c-.072-.588-.943-1.643-1.971-.966-1.006.661-.04 5.606 2.765 5.422"/><path stroke="#193979" stroke-miterlimit="10" stroke-width="1.5" d="M69.877 160.288c-.072-.588-.943-1.643-1.971-.966-1.006.661-.04 5.606 2.765 5.422"/><path fill="#CBE9F3" d="M83.647 160.288c.072-.588.943-1.643 1.97-.966 1.007.661.04 5.606-2.765 5.422"/><path stroke="#193979" stroke-miterlimit="10" stroke-width="1.5" d="M83.647 160.288c.072-.588.943-1.643 1.97-.966 1.007.661.04 5.606-2.765 5.422"/><path fill="#CBE9F3" stroke="#193979" stroke-miterlimit="10" stroke-width="1.5" d="M83.824 156.847a20.4 20.4 0 0 1-.656 5.747c-.268.948-.584 3.856-.948 4.609-.915 1.899-3.273 4.012-5.417 4.012s-4.258-2.112-5.417-4.011c-.443-.726-.795-3.639-1.07-4.608-.638-2.243-.534-4.297-.534-5.749 0-4.405 2.957-7.337 7.017-7.337s7.025 2.932 7.025 7.337Z"/><path fill="#0F387D" stroke="#0F387D" stroke-linejoin="round" stroke-width="1.5" d="M82.588 155.916s-7.256.683-10.567-1.703c0 0-.966 4.066-2.143 6.075 0 0-1.451-6.169.662-6.986 0 0-.175-3.423 3.599-4.3 0 0-.195.853.438.829s5.66-2.923 9.247-.658c3.587 2.264.834 5.575.834 5.575s.097 3.499-.767 4.975l-.314 1.003s-.908-3.167-.99-4.81Z"/><path stroke="#1B59D3" stroke-miterlimit="10" stroke-width="1.5" d="M77.204 183.545c10.842 0 19.631-8.789 19.631-19.631s-8.789-19.632-19.63-19.632c-10.843 0-19.632 8.789-19.632 19.632 0 10.842 8.789 19.631 19.631 19.631Z"/><path stroke="#1B59D3" stroke-miterlimit="10" stroke-width="1.5" d="M77.204 183.545c10.842 0 19.631-8.789 19.631-19.631s-8.789-19.632-19.63-19.632c-10.843 0-19.632 8.789-19.632 19.632 0 10.842 8.789 19.631 19.631 19.631Z"/><path fill="#222" d="M57.034 215v-8.727h3.494q.963 0 1.607.285.643.286.967.793.324.502.324 1.159 0 .512-.205.899a1.76 1.76 0 0 1-.562.631 2.3 2.3 0 0 1-.81.345v.085q.5.021.934.281.439.261.711.729.273.465.273 1.108 0 .694-.345 1.24-.341.541-1.01.857t-1.65.315zm1.845-1.509h1.504q.772 0 1.125-.294a.98.98 0 0 0 .354-.792q0-.363-.175-.639a1.2 1.2 0 0 0-.498-.435 1.7 1.7 0 0 0-.763-.158h-1.547zm0-3.566h1.368q.38 0 .673-.132a1.1 1.1 0 0 0 .469-.384 1 1 0 0 0 .175-.592.96.96 0 0 0-.337-.763q-.332-.29-.946-.29H58.88zm9.012 5.203q-.993 0-1.718-.422a2.9 2.9 0 0 1-1.112-1.185q-.392-.763-.392-1.768 0-1.014.392-1.773a2.86 2.86 0 0 1 1.112-1.185q.725-.426 1.718-.426t1.713.426q.724.423 1.116 1.185.392.759.392 1.773 0 1.005-.392 1.768a2.9 2.9 0 0 1-1.116 1.185q-.72.422-1.713.422m.008-1.406q.453 0 .755-.256.301-.26.456-.707a3 3 0 0 0 .157-1.019q0-.571-.157-1.018a1.6 1.6 0 0 0-.456-.708 1.12 1.12 0 0 0-.755-.26q-.456 0-.767.26-.307.26-.464.708a3.1 3.1 0 0 0-.154 1.018q0 .571.154 1.019.158.447.464.707.311.256.767.256m9.84-3.401-1.662.102a.85.85 0 0 0-.183-.383 1 1 0 0 0-.371-.277 1.3 1.3 0 0 0-.541-.107q-.422 0-.712.179-.29.175-.29.469 0 .234.188.396t.643.26l1.185.239q.954.196 1.423.631.47.434.469 1.142 0 .643-.38 1.129-.375.486-1.03.758-.653.269-1.505.269-1.3 0-2.07-.541a2.1 2.1 0 0 1-.9-1.483l1.785-.094a.92.92 0 0 0 .393.605q.31.204.797.205.476 0 .767-.184.293-.187.298-.481a.5.5 0 0 0-.209-.405q-.205-.162-.63-.247l-1.134-.226q-.96-.191-1.428-.665-.465-.472-.464-1.206 0-.63.34-1.086.345-.456.968-.704.627-.246 1.466-.247 1.24 0 1.952.524.715.525.835 1.428m4.774-1.866v1.363H78.57v-1.363zm-3.047-1.569h1.815v6.103q0 .25.077.392a.42.42 0 0 0 .213.191.9.9 0 0 0 .324.056q.127 0 .255-.021l.196-.039.286 1.351q-.136.042-.384.098-.247.06-.6.072-.657.026-1.151-.174a1.6 1.6 0 0 1-.763-.622q-.273-.423-.268-1.066zm7.116 8.242q-.993 0-1.717-.422a2.9 2.9 0 0 1-1.112-1.185q-.392-.763-.392-1.768 0-1.014.392-1.773a2.86 2.86 0 0 1 1.112-1.185q.724-.426 1.717-.426t1.713.426q.724.423 1.117 1.185.392.759.392 1.773 0 1.005-.392 1.768a2.9 2.9 0 0 1-1.117 1.185q-.72.422-1.713.422m.009-1.406q.45 0 .754-.256.303-.26.456-.707a3 3 0 0 0 .158-1.019q0-.571-.158-1.018a1.6 1.6 0 0 0-.456-.708 1.12 1.12 0 0 0-.754-.26q-.456 0-.767.26-.308.26-.465.708a3.1 3.1 0 0 0-.153 1.018q0 .571.153 1.019.158.447.465.707.31.256.767.256m6.209-2.506V215h-1.816v-6.545h1.73v1.154h.077a1.83 1.83 0 0 1 .729-.903q.51-.337 1.24-.337.68 0 1.189.299.506.298.788.852.281.55.281 1.312V215h-1.815v-3.844q.004-.6-.307-.937-.311-.341-.856-.341-.367 0-.648.158-.278.157-.435.46a1.6 1.6 0 0 0-.157.72"/><path fill="#fff" stroke="#F6821F" stroke-width="2" d="M204 50h661v227H204z"/><path fill="#fff" d="M247 36h346v28H247z"/><path fill="#222" d="M287.878 43.656h-3.733a3.6 3.6 0 0 0-.418-1.287q-.315-.57-.809-.971a3.6 3.6 0 0 0-1.142-.614 4.4 4.4 0 0 0-1.39-.213q-1.355 0-2.36.673-1.007.665-1.56 1.944-.554 1.269-.554 3.085 0 1.866.554 3.136.563 1.27 1.568 1.918t2.327.647a4.6 4.6 0 0 0 1.372-.196q.639-.195 1.134-.57a3.3 3.3 0 0 0 .818-.93q.332-.545.46-1.244l3.733.017a6.8 6.8 0 0 1-.725 2.318q-.57 1.108-1.542 1.986-.963.87-2.301 1.38-1.33.504-3.009.504-2.335 0-4.176-1.057-1.832-1.057-2.898-3.06-1.056-2.003-1.056-4.85 0-2.854 1.073-4.857 1.074-2.002 2.915-3.051 1.84-1.057 4.142-1.057 1.517 0 2.813.426a7.1 7.1 0 0 1 2.309 1.244 6.4 6.4 0 0 1 1.637 1.986q.64 1.176.818 2.693m5.753-6.11V55H290V37.545zm8.367 17.71q-1.986 0-3.435-.844a5.77 5.77 0 0 1-2.224-2.37q-.784-1.524-.784-3.536 0-2.029.784-3.546a5.7 5.7 0 0 1 2.224-2.37q1.449-.85 3.435-.851 1.986 0 3.426.852a5.7 5.7 0 0 1 2.233 2.37q.784 1.515.784 3.545 0 2.01-.784 3.537a5.76 5.76 0 0 1-2.233 2.369q-1.44.843-3.426.844m.017-2.813q.903 0 1.508-.511.606-.52.912-1.415.316-.896.316-2.037t-.316-2.037q-.306-.894-.912-1.415-.605-.52-1.508-.52-.912 0-1.534.52-.614.52-.929 1.415-.307.896-.307 2.037t.307 2.037q.315.895.929 1.415.622.51 1.534.511m16.726-3.017V41.91h3.63V55h-3.485v-2.378h-.137a3.87 3.87 0 0 1-1.474 1.85q-1.023.698-2.497.698-1.312 0-2.31-.596-.998-.597-1.56-1.696-.553-1.1-.562-2.634V41.91h3.631v7.688q.008 1.158.622 1.832.613.673 1.645.673.656 0 1.227-.298a2.34 2.34 0 0 0 .92-.903q.358-.597.35-1.475m10.902 5.787a4.94 4.94 0 0 1-2.701-.767q-1.202-.776-1.909-2.276-.699-1.508-.699-3.698 0-2.25.724-3.742.725-1.5 1.926-2.241 1.21-.75 2.651-.75 1.1 0 1.832.375.742.365 1.193.92.46.546.699 1.074h.111v-6.562h3.622V55h-3.579v-2.097h-.154a4.7 4.7 0 0 1-.724 1.083q-.46.528-1.202.878-.732.35-1.79.35m1.151-2.89q.877 0 1.483-.476.613-.486.937-1.355.333-.87.333-2.037 0-1.168-.324-2.029-.324-.86-.938-1.33-.613-.468-1.491-.468-.895 0-1.509.486-.613.485-.929 1.346-.315.861-.315 1.995 0 1.14.315 2.02.324.868.929 1.363.614.486 1.509.486m15.867-10.414v2.727h-8.079V41.91zM340.431 55V40.963q0-1.424.554-2.36a3.56 3.56 0 0 1 1.534-1.407q.972-.469 2.207-.469.836 0 1.526.128.7.128 1.04.23l-.648 2.727a5 5 0 0 0-.528-.127 3.3 3.3 0 0 0-.631-.06q-.8 0-1.117.375-.315.366-.315 1.031V55zm11.623-17.455V55h-3.631V37.545zm6.185 17.702q-1.252 0-2.233-.434a3.6 3.6 0 0 1-1.551-1.305q-.562-.868-.562-2.164 0-1.09.4-1.833a3.24 3.24 0 0 1 1.091-1.193q.69-.451 1.568-.682.886-.23 1.858-.324 1.142-.119 1.841-.221.699-.111 1.014-.324t.316-.63v-.052q0-.81-.512-1.253-.502-.443-1.432-.443-.98 0-1.559.435a2 2 0 0 0-.767 1.074l-3.358-.273a4.56 4.56 0 0 1 1.005-2.062q.75-.879 1.935-1.347 1.193-.477 2.762-.477a8.4 8.4 0 0 1 2.088.255q1.005.256 1.781.793.784.537 1.236 1.38.451.836.451 2.003V55h-3.443v-1.815h-.102q-.316.614-.844 1.082a3.9 3.9 0 0 1-1.27.724q-.741.256-1.713.256m1.04-2.505q.801 0 1.415-.316.613-.324.963-.87a2.24 2.24 0 0 0 .349-1.235v-1.39q-.17.112-.469.205-.289.086-.656.162a32 32 0 0 1-.733.128l-.665.094a4.5 4.5 0 0 0-1.116.298 1.8 1.8 0 0 0-.741.554q-.265.34-.265.852 0 .742.537 1.134.546.384 1.381.384M367.972 55V41.91h3.52v2.283h.136q.359-1.218 1.202-1.84.844-.631 1.943-.631.273 0 .588.034.316.034.554.093v3.222a5 5 0 0 0-.707-.136 6 6 0 0 0-.827-.06q-.8 0-1.432.35a2.6 2.6 0 0 0-.988.954q-.358.614-.358 1.415V55zm14.721.256q-2.02 0-3.477-.819a5.6 5.6 0 0 1-2.233-2.335q-.784-1.516-.784-3.588 0-2.02.784-3.545a5.8 5.8 0 0 1 2.207-2.378q1.432-.852 3.358-.852 1.296 0 2.412.417 1.125.41 1.96 1.236.844.826 1.313 2.08.468 1.244.468 2.914v.997h-11.054v-2.25h7.637q0-.783-.341-1.389a2.44 2.44 0 0 0-.946-.946q-.597-.35-1.389-.35-.827 0-1.466.384-.631.375-.989 1.015-.358.63-.366 1.406v2.139q0 .972.358 1.679.366.708 1.031 1.09.665.385 1.577.384a3.4 3.4 0 0 0 1.108-.17q.503-.17.86-.511a2.2 2.2 0 0 0 .546-.836l3.358.222a4.6 4.6 0 0 1-1.049 2.114q-.783.894-2.028 1.397-1.236.495-2.855.495m24.662-12.068a3.8 3.8 0 0 0-.502-1.1 3.1 3.1 0 0 0-.793-.818 3.4 3.4 0 0 0-1.057-.52 4.5 4.5 0 0 0-1.304-.179q-1.338 0-2.352.665-1.005.664-1.568 1.935-.563 1.26-.563 3.085t.554 3.102q.555 1.278 1.568 1.952 1.015.664 2.395.664 1.254 0 2.14-.443a3.2 3.2 0 0 0 1.363-1.27q.477-.818.477-1.934l.75.11h-4.5V45.66h7.304v2.199q0 2.3-.971 3.955a6.63 6.63 0 0 1-2.676 2.54q-1.705.886-3.904.886-2.455 0-4.312-1.083-1.858-1.09-2.898-3.093-1.03-2.011-1.031-4.773 0-2.122.613-3.784.623-1.67 1.739-2.83a7.5 7.5 0 0 1 2.6-1.764q1.482-.606 3.213-.605 1.482 0 2.761.434a7.4 7.4 0 0 1 2.267 1.21 6.6 6.6 0 0 1 1.628 1.867q.63 1.074.809 2.37zm9.791-5.643V55h-3.631V37.545zm8.367 17.71q-1.986 0-3.435-.843a5.8 5.8 0 0 1-2.224-2.37q-.784-1.524-.784-3.536 0-2.029.784-3.546a5.7 5.7 0 0 1 2.224-2.37q1.449-.85 3.435-.851 1.986 0 3.426.852a5.7 5.7 0 0 1 2.233 2.37q.784 1.515.784 3.545 0 2.01-.784 3.537a5.76 5.76 0 0 1-2.233 2.369q-1.44.843-3.426.844m.017-2.812q.903 0 1.509-.511.604-.52.912-1.415.315-.896.315-2.037t-.315-2.037q-.308-.894-.912-1.415-.606-.52-1.509-.52-.912 0-1.534.52-.614.52-.929 1.415-.307.896-.307 2.037t.307 2.037q.315.895.929 1.415.622.51 1.534.511M433.929 55V37.545h3.631v6.563h.111a4.8 4.8 0 0 1 .69-1.074q.46-.555 1.193-.92.742-.375 1.841-.375 1.432 0 2.642.75 1.21.741 1.935 2.241.724 1.491.724 3.742 0 2.19-.707 3.698-.699 1.5-1.909 2.276-1.202.767-2.693.767-1.057 0-1.799-.35a3.7 3.7 0 0 1-1.201-.877 4.5 4.5 0 0 1-.716-1.083h-.162V55zm3.554-6.545q0 1.167.324 2.037.324.868.938 1.355.613.477 1.491.477.887 0 1.5-.486.614-.495.929-1.364.324-.877.324-2.02 0-1.133-.315-1.994-.316-.861-.929-1.346t-1.509-.486q-.887 0-1.5.469-.605.468-.929 1.33-.324.86-.324 2.028m14.913 6.792q-1.253 0-2.233-.434a3.6 3.6 0 0 1-1.551-1.305q-.563-.868-.563-2.164 0-1.09.401-1.833a3.24 3.24 0 0 1 1.091-1.193q.69-.451 1.568-.682.886-.23 1.858-.324 1.142-.119 1.841-.221.699-.111 1.014-.324t.315-.63v-.052q0-.81-.511-1.253-.503-.443-1.432-.443-.98 0-1.56.435a2 2 0 0 0-.767 1.074l-3.358-.273a4.6 4.6 0 0 1 1.006-2.062q.75-.879 1.935-1.347 1.193-.477 2.761-.477a8.4 8.4 0 0 1 2.088.255q1.006.256 1.782.793.783.537 1.235 1.38.452.836.452 2.003V55h-3.443v-1.815h-.102q-.316.614-.844 1.082a3.9 3.9 0 0 1-1.27.724q-.741.256-1.713.256m1.04-2.505q.8 0 1.414-.316a2.5 2.5 0 0 0 .963-.87q.35-.545.35-1.235v-1.39a2 2 0 0 1-.469.205 9 9 0 0 1-.656.162q-.366.069-.733.128l-.665.094a4.5 4.5 0 0 0-1.116.298 1.8 1.8 0 0 0-.742.554q-.264.34-.264.852 0 .742.537 1.134.546.384 1.381.384m12.323-15.196V55h-3.63V37.545zm22.219 0V55h-3.187l-7.594-10.986h-.128V55h-3.69V37.545h3.238l7.534 10.978h.154V37.545zm8.491 17.71q-2.02 0-3.477-.819a5.6 5.6 0 0 1-2.233-2.335q-.784-1.516-.784-3.588 0-2.02.784-3.545a5.8 5.8 0 0 1 2.207-2.378q1.432-.852 3.358-.852 1.296 0 2.412.417 1.125.41 1.96 1.236.844.826 1.313 2.08.468 1.244.468 2.914v.997h-11.054v-2.25h7.637q0-.783-.341-1.389a2.44 2.44 0 0 0-.946-.946q-.597-.35-1.389-.35-.827 0-1.466.384-.631.375-.989 1.015-.358.63-.366 1.406v2.139q0 .972.358 1.679.366.708 1.031 1.09.665.385 1.577.384a3.4 3.4 0 0 0 1.107-.17q.504-.17.861-.511a2.2 2.2 0 0 0 .546-.836l3.358.222a4.6 4.6 0 0 1-1.049 2.114q-.783.894-2.028 1.397-1.236.495-2.855.495m14.885-13.347v2.727h-7.884V41.91zm-6.094-3.136h3.631v12.204q0 .504.153.784.153.273.426.384.282.11.648.11.256 0 .511-.042l.392-.077.571 2.702a10 10 0 0 1-.767.196 6 6 0 0 1-1.201.145q-1.312.051-2.301-.35a3.2 3.2 0 0 1-1.526-1.244q-.546-.844-.537-2.13zM515.845 55l-3.562-13.09h3.673l2.028 8.795h.12l2.113-8.796h3.605l2.148 8.744h.111l1.994-8.744h3.665L528.186 55h-3.844l-2.25-8.233h-.162L519.68 55zm22.963.256q-1.986 0-3.435-.844a5.8 5.8 0 0 1-2.225-2.37q-.784-1.524-.784-3.536 0-2.029.784-3.546a5.7 5.7 0 0 1 2.225-2.37q1.449-.85 3.435-.851 1.985 0 3.426.852a5.7 5.7 0 0 1 2.233 2.37q.784 1.515.784 3.545 0 2.01-.784 3.537a5.76 5.76 0 0 1-2.233 2.369q-1.442.843-3.426.844m.017-2.813q.903 0 1.508-.511.605-.52.912-1.415.315-.896.315-2.037t-.315-2.037q-.307-.894-.912-1.415-.605-.52-1.508-.52-.912 0-1.535.52-.613.52-.928 1.415-.307.896-.307 2.037t.307 2.037q.315.895.928 1.415.623.51 1.535.511M547.156 55V41.91h3.519v2.283h.137q.358-1.218 1.201-1.84a3.16 3.16 0 0 1 1.944-.631q.272 0 .588.034t.554.093v3.222a5 5 0 0 0-.708-.136 6 6 0 0 0-.826-.06q-.801 0-1.432.35a2.57 2.57 0 0 0-.989.954q-.358.614-.358 1.415V55zm12.654-3.767.008-4.355h.529l4.193-4.969h4.167l-5.633 6.58h-.861zM556.52 55V37.545h3.631V55zm8.182 0-3.853-5.702 2.421-2.565L568.955 55zm327.696 129.328h-1.866a1.8 1.8 0 0 0-.209-.643 1.6 1.6 0 0 0-.405-.486 1.8 1.8 0 0 0-.571-.307 2.2 2.2 0 0 0-.694-.106q-.678 0-1.181.336-.503.333-.78.972-.276.635-.277 1.542 0 .934.277 1.569.282.634.784.958.503.324 1.164.324.37 0 .686-.098a1.8 1.8 0 0 0 .567-.285 1.7 1.7 0 0 0 .409-.465q.165-.273.23-.622l1.866.009q-.072.6-.362 1.159-.285.553-.771.993a3.7 3.7 0 0 1-1.151.69 4.2 4.2 0 0 1-1.504.251q-1.169 0-2.088-.528-.916-.528-1.449-1.53-.528-1.002-.528-2.425 0-1.427.536-2.429.537-1.001 1.458-1.525.92-.529 2.071-.529.759 0 1.406.213.652.214 1.155.623.503.404.818.993.32.588.409 1.346m3.105-3.055V190h-1.816v-8.727zm4.411 8.855q-.993 0-1.717-.422a2.9 2.9 0 0 1-1.112-1.185q-.393-.763-.392-1.768 0-1.014.392-1.773a2.86 2.86 0 0 1 1.112-1.185q.724-.426 1.717-.426t1.713.426q.724.423 1.117 1.185.392.759.392 1.773 0 1.005-.392 1.768a2.9 2.9 0 0 1-1.117 1.185q-.72.422-1.713.422m.009-1.406q.451 0 .754-.256a1.6 1.6 0 0 0 .456-.707q.158-.448.158-1.019t-.158-1.018a1.6 1.6 0 0 0-.456-.708 1.12 1.12 0 0 0-.754-.26q-.456 0-.767.26-.308.26-.465.708a3.1 3.1 0 0 0-.153 1.018q0 .571.153 1.019.158.447.465.707.31.256.767.256m8.591-1.509v-3.758h1.815V190h-1.743v-1.189h-.068a1.94 1.94 0 0 1-.737.925q-.511.35-1.249.349-.656 0-1.155-.298a2.06 2.06 0 0 1-.78-.848q-.276-.55-.281-1.317v-4.167h1.816v3.843q.003.58.311.916.306.337.822.337.328 0 .614-.149.285-.153.46-.452.179-.298.175-.737m5.679 2.894q-.745 0-1.351-.384-.6-.388-.954-1.138-.35-.754-.35-1.849 0-1.125.362-1.871.363-.75.963-1.121.606-.375 1.326-.375.55 0 .916.188.37.183.597.46.23.273.349.537h.055v-3.281h1.811V190h-1.789v-1.048h-.077a2.3 2.3 0 0 1-.362.541 1.8 1.8 0 0 1-.601.439q-.367.175-.895.175m.575-1.445q.44 0 .742-.239.306-.243.469-.677.166-.435.166-1.019t-.162-1.014a1.46 1.46 0 0 0-.469-.665 1.2 1.2 0 0 0-.746-.234q-.447 0-.754.243a1.5 1.5 0 0 0-.464.673 2.9 2.9 0 0 0-.158.997q0 .572.158 1.01.16.435.464.682.307.243.754.243m8.162-5.207v1.363h-4.04v-1.363zM919.815 190v-7.018q0-.712.277-1.181.28-.469.767-.703a2.5 2.5 0 0 1 1.104-.234q.417 0 .762.064.35.063.52.115l-.324 1.363a3 3 0 0 0-.264-.064 1.6 1.6 0 0 0-.315-.03q-.4 0-.558.188-.159.183-.158.516V190zm6.039-8.727V190h-1.815v-8.727zm3.321 8.851q-.627 0-1.117-.218a1.8 1.8 0 0 1-.775-.652q-.281-.435-.281-1.082 0-.546.2-.916t.545-.597q.346-.225.784-.341.444-.115.929-.162.572-.06.921-.111.35-.054.507-.161a.36.36 0 0 0 .158-.316v-.025q0-.405-.256-.627-.251-.221-.716-.221-.49 0-.78.217a1 1 0 0 0-.383.537l-1.679-.137q.128-.596.503-1.031.375-.439.967-.673.597-.239 1.381-.239.545 0 1.044.128.503.127.89.396.393.269.618.691.226.417.226 1.001V190h-1.722v-.908h-.051a1.8 1.8 0 0 1-.422.542 2 2 0 0 1-.635.362 2.6 2.6 0 0 1-.856.128m.52-1.253q.4 0 .707-.158.307-.162.482-.435a1.1 1.1 0 0 0 .174-.617v-.695a1 1 0 0 1-.234.102 4 4 0 0 1-.328.081q-.183.034-.367.064l-.332.047a2.2 2.2 0 0 0-.558.149.9.9 0 0 0-.371.277.68.68 0 0 0-.132.426q0 .37.268.567.273.192.691.192m4.574 1.129v-6.545h1.76v1.142h.068q.18-.61.601-.921.422-.315.972-.315a2.6 2.6 0 0 1 .571.064v1.611a3 3 0 0 0-.767-.098q-.4 0-.716.174a1.3 1.3 0 0 0-.494.477q-.18.308-.179.708V190zm7.589.128q-1.01 0-1.739-.409a2.8 2.8 0 0 1-1.116-1.168q-.392-.759-.392-1.794 0-1.01.392-1.773a2.9 2.9 0 0 1 1.103-1.189q.716-.426 1.679-.426.648 0 1.206.209.563.204.98.618.422.414.657 1.04.234.622.234 1.457v.499h-5.527v-1.125h3.818q0-.393-.17-.695a1.23 1.23 0 0 0-.473-.473 1.36 1.36 0 0 0-.695-.175q-.413 0-.733.192-.315.188-.494.507a1.43 1.43 0 0 0-.183.703v1.07q0 .486.179.84.183.353.515.545.333.192.789.192.302 0 .554-.085.251-.086.43-.256t.273-.418l1.679.111q-.128.605-.524 1.057-.393.447-1.015.699-.617.246-1.427.247m6.668-7.334v-1.521h7.167v1.521h-2.672V190h-1.823v-7.206zm11.62 4.419v-3.758h1.816V190h-1.743v-1.189h-.068a1.94 1.94 0 0 1-.737.925q-.512.35-1.249.349-.656 0-1.155-.298a2.06 2.06 0 0 1-.78-.848q-.276-.55-.281-1.317v-4.167h1.815v3.843q.005.58.311.916.307.337.823.337.328 0 .614-.149.285-.153.46-.452.179-.298.174-.737m5.083-.997V190h-1.815v-6.545h1.73v1.154h.077q.217-.57.728-.903.512-.337 1.24-.337.682 0 1.189.299.507.298.789.852.28.55.281 1.312V190h-1.815v-3.844q.003-.6-.307-.937-.312-.341-.857-.341-.366 0-.647.158-.278.157-.435.46a1.6 1.6 0 0 0-.158.72m7.465 0V190h-1.815v-6.545h1.73v1.154h.077q.216-.57.728-.903.512-.337 1.24-.337.682 0 1.189.299.507.298.789.852.28.55.281 1.312V190h-1.816v-3.844q.005-.6-.306-.937-.312-.341-.857-.341-.366 0-.648.158a1.1 1.1 0 0 0-.434.46 1.6 1.6 0 0 0-.158.72m8.633 3.912q-1.01 0-1.739-.409a2.8 2.8 0 0 1-1.117-1.168q-.392-.759-.392-1.794 0-1.01.392-1.773.393-.762 1.104-1.189.716-.426 1.679-.426.648 0 1.206.209.563.204.98.618.422.414.656 1.04.235.622.235 1.457v.499h-5.527v-1.125h3.818q0-.393-.17-.695a1.23 1.23 0 0 0-.473-.473 1.36 1.36 0 0 0-.695-.175q-.414 0-.733.192-.315.188-.494.507a1.43 1.43 0 0 0-.184.703v1.07q0 .486.179.84.184.353.516.545t.788.192q.303 0 .554-.085t.431-.256a1.1 1.1 0 0 0 .272-.418l1.679.111q-.128.605-.524 1.057a2.6 2.6 0 0 1-1.014.699q-.618.246-1.427.247m6.004-8.855V190h-1.816v-8.727z"/><path fill="#fff" stroke="#0055DC" stroke-width="2" d="M1002 63h133v202h-133z"/><path fill="#C5EBF5" stroke="#0055DC" stroke-miterlimit="10" stroke-width="1.5" d="M1019.38 54.528h-3.16V33.813h1.75v1.977h1.41z"/><path fill="#fff" d="M1018.6 37.768h-2.32v16.669h2.32z"/><path fill="#0055DC" d="M1018.09 38.528h.5v-.76h-.5zm-1.16 0h.51v-.76h-.51zm1.16 2.422h.5v-.76h-.5zm-1.16 0h.51v-.76h-.51zm1.16 2.423h.5v-.76h-.5zm-1.16 0h.51v-.76h-.51zm1.16 2.422h.5v-.76h-.5zm-1.16 0h.51v-.76h-.51zm1.16 2.423h.5v-.76h-.5zm-1.16 0h.51v-.76h-.51zm1.16 2.422h.5v-.76h-.5zm-1.16 0h.51v-.76h-.51zm1.16 2.423h.5v-.76h-.5zm-1.16 0h.51v-.76h-.51zm3-16.005h-.55v17.47h.55z"/><path fill="#C5EBF5" stroke="#0055DC" stroke-miterlimit="10" stroke-width="1.5" d="M1004.25 54.528h3.16V33.813h-1.75v1.977h-1.41z"/><path fill="#fff" d="M1007.35 37.768h-2.31v16.669h2.31z"/><path fill="#0055DC" d="M1005.54 37.768h-.5v.76h.5zm1.15 0h-.5v.76h.5zm-1.15 2.422h-.5v.76h.5zm1.15 0h-.5v.76h.5zm-1.15 2.423h-.5v.76h.5zm1.15 0h-.5v.76h.5zm-1.15 2.422h-.5v.76h.5zm1.15 0h-.5v.76h.5zm-1.15 2.423h-.5v.76h.5zm1.15 0h-.5v.76h.5zm-1.15 2.422h-.5v.76h.5zm1.15 0h-.5v.76h.5zm-1.15 2.423h-.5v.76h.5zm1.15 0h-.5v.76h.5zm-2.44-15.245h-.55v17.47h.55z"/><path fill="#fff" stroke="#0055DC" stroke-miterlimit="10" stroke-width="1.5" d="M1016.22 30h-8.81v24.528h8.81z"/><path fill="#003682" d="M1013.36 51.153h-3.1v3.374h3.1z"/><path fill="#C5EBF5" d="M1010.43 33.813h-2.14v3.245h2.14zm2.45 0h-2.14v3.245h2.14zm2.46 0h-2.14v3.245h2.14zm-4.91 4.335h-2.14v3.245h2.14zm2.45 0h-2.14v3.245h2.14zm2.46 0h-2.14v3.245h2.14zm-4.91 4.335h-2.14v3.246h2.14zm2.45 0h-2.14v3.246h2.14zm2.46 0h-2.14v3.246h2.14zm-4.91 4.335h-2.14v3.246h2.14zm2.45 0h-2.14v3.246h2.14zm2.46 0h-2.14v3.246h2.14z"/><path stroke="#0055DC" stroke-miterlimit="10" stroke-width="1.5" d="M1001 54.527h21.57"/><path fill="#222" d="M1028.01 30V18.364h4.59c.88 0 1.64.168 2.26.505.62.334 1.09.798 1.42 1.392.33.591.49 1.273.49 2.046s-.16 1.454-.5 2.045a3.4 3.4 0 0 1-1.45 1.381c-.62.33-1.39.494-2.28.494h-2.93v-1.971h2.53q.72 0 1.17-.245c.31-.166.54-.395.7-.687.15-.296.23-.635.23-1.017 0-.386-.08-.724-.23-1.011a1.6 1.6 0 0 0-.7-.677c-.31-.163-.7-.244-1.18-.244h-1.66V30zm10.14 0v-8.727h2.35v1.523h.09c.16-.542.42-.951.8-1.228q.555-.42 1.29-.42c.12 0 .26.007.4.023q.21.022.36.062v2.148a3 3 0 0 0-.47-.091c-.2-.027-.38-.04-.55-.04-.35 0-.67.078-.95.233q-.42.227-.66.636t-.24.944V30zm6.37 0v-8.727h2.42V30zm1.22-9.852q-.54 0-.93-.358a1.174 1.174 0 0 1 0-1.727q.39-.364.93-.364c.36 0 .66.121.92.363a1.174 1.174 0 0 1 0 1.727 1.3 1.3 0 0 1-.92.359m11.1 1.125L1053.79 30h-2.73l-3.05-8.727h2.56l1.81 6.244h.09l1.81-6.244zm3.32 8.892c-.56 0-1.06-.097-1.49-.29a2.4 2.4 0 0 1-1.04-.87c-.25-.386-.37-.867-.37-1.442q0-.727.27-1.222c.17-.33.42-.595.72-.796q.465-.3 1.05-.454c.39-.102.81-.174 1.24-.216.51-.053.91-.102 1.22-.148.32-.049.54-.12.68-.216a.48.48 0 0 0 .21-.42v-.034c0-.36-.11-.638-.34-.835-.22-.197-.54-.296-.95-.296-.44 0-.79.097-1.04.29-.26.19-.43.428-.52.716l-2.23-.182c.11-.53.33-.989.67-1.375q.495-.586 1.29-.898c.53-.212 1.14-.318 1.84-.318.48 0 .95.057 1.39.17.45.114.84.29 1.19.529s.62.545.82.92q.3.558.3 1.336V30h-2.29v-1.21h-.07c-.14.273-.33.513-.56.721-.24.205-.52.366-.85.483q-.495.17-1.14.17m.69-1.67c.36 0 .67-.07.94-.21.28-.145.49-.338.65-.58.15-.243.23-.517.23-.824v-.927c-.08.05-.18.095-.31.137a6 6 0 0 1-.44.108c-.16.03-.33.059-.49.085l-.44.063q-.435.062-.75.198c-.21.091-.37.214-.49.37a.9.9 0 0 0-.18.568q0 .494.36.756c.24.17.55.255.92.255m10.57-7.222v1.818h-5.26v-1.818zm-4.07-2.091h2.42v8.136c0 .224.04.398.11.523a.53.53 0 0 0 .28.256c.12.049.27.073.43.073.12 0 .23-.009.34-.028l.26-.051.38 1.801q-.18.058-.51.13c-.22.054-.48.086-.8.097q-.87.034-1.53-.233a2.1 2.1 0 0 1-1.02-.83q-.36-.561-.36-1.42zm9.35 10.989c-.9 0-1.67-.182-2.32-.546a3.77 3.77 0 0 1-1.49-1.557c-.35-.674-.52-1.471-.52-2.392 0-.898.17-1.685.52-2.363q.525-1.017 1.47-1.586c.64-.378 1.39-.568 2.24-.568.58 0 1.11.093 1.61.279.5.181.94.456 1.31.823q.555.552.87 1.387c.21.553.32 1.2.32 1.943v.665h-7.37v-1.5h5.09c0-.349-.08-.657-.23-.927a1.6 1.6 0 0 0-.63-.63 1.8 1.8 0 0 0-.93-.233c-.36 0-.69.085-.97.256q-.42.25-.66.676c-.16.28-.24.593-.25.937v1.426q0 .648.24 1.12.24.47.69.727.435.255 1.05.256c.27 0 .51-.038.74-.114q.33-.115.57-.34c.16-.152.28-.338.37-.558l2.23.148a3.03 3.03 0 0 1-.69 1.41c-.35.397-.8.707-1.36.93-.55.22-1.18.33-1.9.33m-44.76 24c-.89 0-1.67-.182-2.32-.546a3.7 3.7 0 0 1-1.48-1.557c-.35-.674-.53-1.471-.53-2.392 0-.898.18-1.686.53-2.364.34-.677.84-1.206 1.47-1.585.63-.378 1.38-.568 2.24-.568.57 0 1.11.093 1.6.279.5.181.94.456 1.31.823.38.368.67.83.88 1.387.2.553.31 1.2.31 1.943v.665h-7.37v-1.5h5.09c0-.349-.08-.657-.23-.926a1.6 1.6 0 0 0-.63-.631 1.77 1.77 0 0 0-.92-.233c-.37 0-.7.085-.98.256q-.42.25-.66.676-.24.42-.24.937v1.426c0 .432.08.805.23 1.12q.255.47.69.727.45.255 1.05.256c.27 0 .52-.038.74-.114.23-.076.42-.19.58-.34.15-.152.28-.338.36-.558l2.24.148a3.14 3.14 0 0 1-.7 1.41q-.525.595-1.35.93c-.55.22-1.19.33-1.91.33m7.83-5.216V54h-2.42v-8.727h2.31v1.54h.1c.19-.508.52-.91.97-1.205.46-.3 1.01-.449 1.66-.449.6 0 1.13.133 1.58.398q.675.398 1.05 1.136c.25.489.38 1.072.38 1.75V54h-2.42v-5.125c0-.534-.14-.95-.41-1.25q-.42-.455-1.14-.455-.495 0-.87.21c-.24.14-.44.345-.58.614q-.195.399-.21.96m10.58 5.187c-.67 0-1.27-.17-1.81-.511-.53-.345-.95-.85-1.27-1.517-.31-.67-.46-1.493-.46-2.466q0-1.5.48-2.495c.32-.666.75-1.164 1.28-1.494q.81-.5 1.77-.5c.49 0 .9.083 1.22.25.33.163.6.367.8.614.2.242.36.48.46.716h.08v-4.375h2.41V54h-2.39v-1.398h-.1q-.165.364-.48.722c-.2.235-.47.43-.8.585s-.72.233-1.19.233m.76-1.926q.585 0 .99-.318.405-.324.63-.904c.14-.386.22-.839.22-1.358s-.07-.97-.22-1.352c-.14-.383-.35-.678-.62-.886a1.62 1.62 0 0 0-1-.313c-.4 0-.73.108-1 .324-.28.216-.48.515-.62.898q-.21.573-.21 1.33 0 .76.21 1.346c.14.386.35.69.62.909.27.216.6.324 1 .324m6.02 5.057v-12h2.38v1.466h.11c.11-.235.26-.474.46-.716.2-.247.47-.451.8-.614.32-.167.73-.25 1.22-.25.64 0 1.23.167 1.76.5q.81.495 1.29 1.494c.33.663.49 1.495.49 2.495 0 .973-.16 1.795-.47 2.466-.32.666-.74 1.172-1.28 1.517-.53.34-1.13.511-1.79.511q-.705 0-1.2-.233a2.4 2.4 0 0 1-.8-.585q-.315-.359-.48-.722h-.07v4.67zm2.36-7.637c0 .52.08.972.22 1.358q.21.58.63.904.405.318.99.318c.39 0 .73-.108 1-.324.27-.22.48-.523.62-.909.14-.39.22-.84.22-1.347 0-.503-.07-.947-.22-1.33-.14-.382-.34-.681-.61-.897-.28-.216-.61-.324-1.01-.324-.39 0-.73.104-1 .313-.27.208-.48.503-.62.886s-.22.833-.22 1.352m11.53 4.534c-.88 0-1.65-.187-2.29-.562a3.9 3.9 0 0 1-1.49-1.58c-.34-.678-.52-1.464-.52-2.358 0-.901.18-1.689.52-2.363a3.83 3.83 0 0 1 1.49-1.58c.64-.378 1.41-.568 2.29-.568q1.32 0 2.28.568a3.77 3.77 0 0 1 1.49 1.58c.35.674.52 1.462.52 2.363 0 .894-.17 1.68-.52 2.358a3.8 3.8 0 0 1-1.49 1.58q-.96.563-2.28.563m.01-1.875c.4 0 .74-.113 1-.34.27-.231.48-.546.61-.944q.21-.596.21-1.358 0-.76-.21-1.358a2.06 2.06 0 0 0-.61-.943c-.26-.23-.6-.346-1-.346q-.615 0-1.02.346c-.28.231-.48.546-.62.944q-.21.596-.21 1.357t.21 1.358c.14.398.34.712.62.944q.405.34 1.02.34m5.68 1.705v-8.727h2.42V54zm1.22-9.852q-.54 0-.93-.358a1.174 1.174 0 0 1 0-1.727q.39-.364.93-.364c.36 0 .66.121.92.364a1.174 1.174 0 0 1 0 1.727c-.26.238-.56.358-.92.358m5.38 4.807V54h-2.42v-8.727h2.31v1.54h.1c.2-.508.52-.91.97-1.205.46-.3 1.01-.449 1.66-.449.6 0 1.13.133 1.58.398q.675.398 1.05 1.136c.25.489.38 1.072.38 1.75V54h-2.42v-5.125c0-.534-.13-.95-.41-1.25q-.42-.455-1.14-.455-.495 0-.87.21c-.24.14-.43.345-.58.614q-.195.399-.21.96m12-3.682v1.818h-5.25v-1.818zm-4.06-2.091h2.42v8.136c0 .224.04.398.1.523.07.121.17.206.29.256.12.049.27.073.43.073.11 0 .23-.009.34-.028.11-.023.2-.04.26-.051l.38 1.801q-.18.057-.51.13a4 4 0 0 1-.8.097q-.87.034-1.53-.233a2.1 2.1 0 0 1-1.02-.83q-.36-.561-.36-1.42zm12.62 4.58-2.22.136q-.06-.284-.24-.512a1.3 1.3 0 0 0-.5-.369 1.7 1.7 0 0 0-.72-.142c-.37 0-.69.08-.95.239q-.39.232-.39.625c0 .208.09.384.25.528.17.144.46.26.86.347l1.58.318c.85.174 1.48.454 1.9.84q.63.58.63 1.523 0 .858-.51 1.506-.495.649-1.38 1.011c-.58.24-1.24.358-2 .358q-1.74 0-2.76-.721a2.83 2.83 0 0 1-1.2-1.977l2.38-.125c.07.352.25.62.52.806.28.182.63.273 1.06.273s.77-.081 1.03-.244q.39-.25.39-.642 0-.33-.27-.54-.285-.216-.84-.33l-1.52-.3c-.85-.171-1.48-.467-1.9-.887-.41-.42-.62-.956-.62-1.608 0-.56.15-1.044.46-1.449q.45-.608 1.29-.937.825-.33 1.95-.33c1.1 0 1.97.233 2.6.699.64.466 1.01 1.1 1.12 1.903"/><path fill="#0055DC" d="M1026.51 75.198H1023v18.05h3.51zm91.49 0h-3.51v18.05h3.51z"/><path fill="#fff" stroke="#0055DC" stroke-miterlimit="10" stroke-width="1.5" d="M1031.31 96.465v3.425l78.38-.004V96.46z"/><path fill="#C5EBF5" stroke="#0055DC" stroke-miterlimit="10" stroke-width="1.5" d="M1114.49 72h-87.98v24.462h87.98z"/><path fill="#fff" d="M1110.69 93.012V75.448h-80.38v17.564z"/><path fill="#0055DC" d="M1036.83 80.408h-1.95v1.902h1.95zm0 5.725h-1.95v1.903h1.95zm2.67-3.016h-1.95v1.902h1.95zm2.37-2.709h-1.95v1.902h1.95zm0 5.725h-1.95v1.903h1.95zm2.52-3.016h-1.95v1.902h1.95zm2.98-2.709h-1.95v1.902h1.95zm0 5.725h-1.95v1.903h1.95zm2.52-3.016h-1.95v1.902h1.95zm3.06-2.709h-1.94v1.902h1.94zm0 5.725h-1.94v1.903h1.94zm2.37-3.016h-1.94v1.902h1.94zm2.67-2.709h-1.95v1.902h1.95zm0 5.725h-1.95v1.903h1.95zm2.22-3.016h-1.94v1.902h1.94zm2.82-2.709h-1.95v1.902h1.95zm0 5.725h-1.95v1.903h1.95zm2.07-3.016h-1.94v1.902h1.94zm39.21 3.475c1.33 0 2.41-1.057 2.41-2.361s-1.08-2.362-2.41-2.362c-1.34 0-2.42 1.058-2.42 2.362s1.08 2.361 2.42 2.361"/><path stroke="#0055DC" stroke-miterlimit="10" stroke-width="1.5" d="M1097.35 84.23h-25.6"/><path fill="#0055DC" d="M1026.51 111.198H1023v18.05h3.51zm91.49 0h-3.51v18.05h3.51z"/><path fill="#fff" stroke="#0055DC" stroke-miterlimit="10" stroke-width="1.5" d="M1031.31 132.464v3.426l78.38-.004v-3.426z"/><path fill="#C5EBF5" stroke="#0055DC" stroke-miterlimit="10" stroke-width="1.5" d="M1114.49 108h-87.98v24.462h87.98z"/><path fill="#fff" d="M1110.69 129.012v-17.564h-80.38v17.564z"/><path fill="#0055DC" d="M1036.83 116.408h-1.95v1.902h1.95zm0 5.725h-1.95v1.903h1.95zm2.67-3.016h-1.95v1.902h1.95zm2.37-2.709h-1.95v1.902h1.95zm0 5.725h-1.95v1.903h1.95zm2.52-3.016h-1.95v1.902h1.95zm2.98-2.709h-1.95v1.902h1.95zm0 5.725h-1.95v1.903h1.95zm2.52-3.016h-1.95v1.902h1.95zm3.06-2.709h-1.94v1.902h1.94zm0 5.725h-1.94v1.903h1.94zm2.37-3.016h-1.94v1.902h1.94zm2.67-2.709h-1.95v1.902h1.95zm0 5.725h-1.95v1.903h1.95zm2.22-3.016h-1.94v1.902h1.94zm2.82-2.709h-1.95v1.902h1.95zm0 5.725h-1.95v1.903h1.95zm2.07-3.016h-1.94v1.902h1.94zm39.21 3.475c1.33 0 2.41-1.057 2.41-2.361s-1.08-2.362-2.41-2.362c-1.34 0-2.42 1.058-2.42 2.362s1.08 2.361 2.42 2.361"/><path stroke="#0055DC" stroke-miterlimit="10" stroke-width="1.5" d="M1097.35 120.231h-25.6"/><path fill="#0055DC" d="M1024.51 195.198H1021v18.05h3.51zm91.49 0h-3.51v18.05h3.51z"/><path fill="#fff" stroke="#0055DC" stroke-miterlimit="10" stroke-width="1.5" d="M1029.31 216.464v3.426l78.38-.004v-3.426z"/><path fill="#C5EBF5" stroke="#0055DC" stroke-miterlimit="10" stroke-width="1.5" d="M1112.49 192h-87.98v24.462h87.98z"/><path fill="#fff" d="M1108.69 213.012v-17.564h-80.38v17.564z"/><path fill="#0055DC" d="M1034.83 200.408h-1.95v1.902h1.95zm0 5.725h-1.95v1.903h1.95zm2.67-3.016h-1.95v1.902h1.95zm2.37-2.709h-1.95v1.902h1.95zm0 5.725h-1.95v1.903h1.95zm2.52-3.016h-1.95v1.902h1.95zm2.98-2.709h-1.95v1.902h1.95zm0 5.725h-1.95v1.903h1.95zm2.52-3.016h-1.95v1.902h1.95zm3.06-2.709h-1.94v1.902h1.94zm0 5.725h-1.94v1.903h1.94zm2.37-3.016h-1.94v1.902h1.94zm2.67-2.709h-1.95v1.902h1.95zm0 5.725h-1.95v1.903h1.95zm2.22-3.016h-1.94v1.902h1.94zm2.82-2.709h-1.95v1.902h1.95zm0 5.725h-1.95v1.903h1.95zm2.07-3.016h-1.94v1.902h1.94zm39.21 3.475c1.33 0 2.41-1.057 2.41-2.361s-1.08-2.362-2.41-2.362c-1.34 0-2.42 1.058-2.42 2.362s1.08 2.361 2.42 2.361"/><path stroke="#0055DC" stroke-miterlimit="10" stroke-width="1.5" d="M1095.35 204.231h-25.6"/><path fill="#0055DC" d="M1024.51 231.198H1021v18.05h3.51zm91.49 0h-3.51v18.05h3.51z"/><path fill="#fff" stroke="#0055DC" stroke-miterlimit="10" stroke-width="1.5" d="M1029.31 252.464v3.426l78.38-.004v-3.426z"/><path fill="#C5EBF5" stroke="#0055DC" stroke-miterlimit="10" stroke-width="1.5" d="M1112.49 228h-87.98v24.462h87.98z"/><path fill="#fff" d="M1108.69 249.012v-17.564h-80.38v17.564z"/><path fill="#0055DC" d="M1034.83 236.408h-1.95v1.902h1.95zm0 5.725h-1.95v1.903h1.95zm2.67-3.016h-1.95v1.902h1.95zm2.37-2.709h-1.95v1.902h1.95zm0 5.725h-1.95v1.903h1.95zm2.52-3.016h-1.95v1.902h1.95zm2.98-2.709h-1.95v1.902h1.95zm0 5.725h-1.95v1.903h1.95zm2.52-3.016h-1.95v1.902h1.95zm3.06-2.709h-1.94v1.902h1.94zm0 5.725h-1.94v1.903h1.94zm2.37-3.016h-1.94v1.902h1.94zm2.67-2.709h-1.95v1.902h1.95zm0 5.725h-1.95v1.903h1.95zm2.22-3.016h-1.94v1.902h1.94zm2.82-2.709h-1.95v1.902h1.95zm0 5.725h-1.95v1.903h1.95zm2.07-3.016h-1.94v1.902h1.94zm39.21 3.475c1.33 0 2.41-1.057 2.41-2.361s-1.08-2.362-2.41-2.362c-1.34 0-2.42 1.058-2.42 2.362s1.08 2.361 2.42 2.361"/><path stroke="#0055DC" stroke-miterlimit="10" stroke-width="1.5" d="M1095.35 240.231h-25.6"/><path fill="#E2F5FA" stroke="#F6821F" stroke-width="2" d="M834 178h180v-28H834z"/><path fill="#fff" stroke="#F6821F" stroke-width="2" d="M230 99h261v129H230z"/><path fill="#222" d="M334.879 120v-11.636h4.659q1.284 0 2.142.38t1.289 1.057q.432.67.432 1.546 0 .681-.272 1.198a2.35 2.35 0 0 1-.75.841q-.472.324-1.08.461v.113q.665.029 1.244.375.586.347.949.972.364.62.364 1.477 0 .927-.46 1.654-.454.721-1.347 1.142-.892.42-2.199.42zm2.46-2.011h2.005q1.029 0 1.5-.392.472-.399.472-1.057 0-.483-.233-.852a1.6 1.6 0 0 0-.665-.58q-.426-.21-1.017-.21h-2.062zm0-4.756h1.824q.506 0 .897-.176.399-.182.625-.512.233-.33.233-.789 0-.632-.449-1.017-.442-.387-1.261-.387h-1.869zm12.015 6.937q-1.323 0-2.289-.562a3.84 3.84 0 0 1-1.483-1.58q-.523-1.017-.523-2.358 0-1.352.523-2.363a3.8 3.8 0 0 1 1.483-1.58q.966-.568 2.289-.568t2.284.568a3.8 3.8 0 0 1 1.489 1.58q.523 1.011.523 2.363 0 1.341-.523 2.358a3.83 3.83 0 0 1-1.489 1.58q-.96.562-2.284.562m.012-1.875q.602 0 1.005-.34.404-.348.608-.944.211-.596.211-1.358 0-.76-.211-1.358-.204-.596-.608-.943-.403-.346-1.005-.346-.608 0-1.023.346-.41.347-.619.943a4.2 4.2 0 0 0-.205 1.358q0 .762.205 1.358.21.596.619.944.415.34 1.023.34m13.119-4.534-2.216.137a1.15 1.15 0 0 0-.244-.512 1.3 1.3 0 0 0-.494-.369 1.7 1.7 0 0 0-.722-.142q-.562 0-.949.239-.386.232-.386.625 0 .312.25.528.249.216.858.347l1.579.318q1.273.26 1.898.841.625.58.625 1.522a2.38 2.38 0 0 1-.506 1.506q-.5.648-1.375 1.011-.869.358-2.005.358-1.734 0-2.762-.721a2.8 2.8 0 0 1-1.199-1.977l2.381-.125q.108.528.523.806.414.273 1.062.273.637 0 1.023-.244.392-.25.398-.642a.67.67 0 0 0-.279-.54q-.273-.216-.841-.33l-1.511-.301q-1.279-.256-1.903-.886-.62-.63-.62-1.608 0-.841.455-1.449.46-.608 1.29-.937.834-.33 1.954-.33 1.654 0 2.602.699.955.699 1.114 1.903m6.365-2.488v1.818h-5.256v-1.818zm-4.062-2.091h2.42v8.136q0 .336.102.523a.57.57 0 0 0 .284.256q.187.073.432.073.171 0 .341-.028l.262-.051.38 1.801a7 7 0 0 1-.511.131q-.33.08-.801.096-.876.034-1.534-.233a2.14 2.14 0 0 1-1.017-.829q-.364-.563-.358-1.421zm9.488 10.988q-1.324 0-2.289-.562a3.84 3.84 0 0 1-1.483-1.58q-.523-1.017-.523-2.358 0-1.352.523-2.363a3.8 3.8 0 0 1 1.483-1.58q.965-.568 2.289-.568t2.284.568a3.8 3.8 0 0 1 1.489 1.58q.523 1.011.523 2.363 0 1.341-.523 2.358a3.83 3.83 0 0 1-1.489 1.58q-.96.562-2.284.562m.012-1.875q.601 0 1.005-.34.404-.348.608-.944.21-.596.211-1.358 0-.76-.211-1.358-.204-.596-.608-.943-.404-.346-1.005-.346-.609 0-1.023.346-.41.347-.619.943a4.2 4.2 0 0 0-.205 1.358q0 .762.205 1.358.21.596.619.944.414.34 1.023.34m8.278-3.34V120h-2.42v-8.727h2.306v1.539h.103q.29-.761.971-1.204.682-.449 1.654-.449.909 0 1.585.398t1.051 1.136q.375.733.375 1.75V120h-2.42v-5.125q.005-.801-.409-1.25-.416-.455-1.143-.455-.488 0-.863.211-.37.21-.58.613-.204.398-.21.961"/><path fill="#fff" stroke="#F6821F" stroke-width="2" d="M238 194h117.875v24.927H238z"/><path fill="#222" d="m286.358 209.876-2.497-8.727h2.015l1.445 6.064h.072l1.594-6.064h1.726l1.59 6.076h.076l1.445-6.076h2.015l-2.497 8.727h-1.798l-1.662-5.706h-.068l-1.658 5.706zm10.962 0h-1.977l3.013-8.727h2.378l3.008 8.727h-1.977l-2.186-6.733h-.068zm-.123-3.43h4.67v1.44h-4.67zm7.464 3.43v-8.727h5.778v1.521h-3.933v2.08h3.55v1.521h-3.55v3.605z"/><path fill="#fff" stroke="#F6821F" stroke-width="2" d="M365 194h117.875v24.927H365z"/><path fill="#222" d="M384.204 209.876v-8.727h1.845v7.206h3.741v1.521zm9.6.128q-.993 0-1.718-.422a2.9 2.9 0 0 1-1.112-1.185q-.392-.763-.392-1.768 0-1.014.392-1.773a2.87 2.87 0 0 1 1.112-1.185q.725-.426 1.718-.426t1.713.426a2.85 2.85 0 0 1 1.116 1.185q.392.759.392 1.773 0 1.005-.392 1.768a2.87 2.87 0 0 1-1.116 1.185q-.72.422-1.713.422m.008-1.406q.452 0 .754-.256.303-.26.456-.708.159-.447.158-1.018 0-.571-.158-1.018a1.6 1.6 0 0 0-.456-.708 1.12 1.12 0 0 0-.754-.26q-.456 0-.767.26a1.6 1.6 0 0 0-.464.708 3.1 3.1 0 0 0-.154 1.018q0 .571.154 1.018.158.448.464.708.311.256.767.256M399.94 210q-.626 0-1.116-.218a1.8 1.8 0 0 1-.776-.652q-.28-.435-.281-1.082 0-.546.2-.916.2-.371.546-.597.345-.226.784-.341.443-.115.929-.162.57-.06.92-.111.35-.055.507-.162a.36.36 0 0 0 .158-.315v-.025q0-.405-.256-.627-.25-.222-.716-.221-.489 0-.78.217a1 1 0 0 0-.383.537l-1.679-.137q.128-.596.503-1.031.375-.439.967-.673.597-.239 1.381-.239.545 0 1.044.128.503.127.89.396.393.269.618.691.226.417.226 1.001v4.415h-1.721v-.908h-.051a1.9 1.9 0 0 1-.422.541 1.9 1.9 0 0 1-.635.363 2.6 2.6 0 0 1-.857.128m.52-1.253q.4 0 .707-.158.307-.162.482-.435.174-.272.175-.618v-.694a1 1 0 0 1-.235.102 4 4 0 0 1-.328.081q-.183.034-.366.064l-.333.047a2.2 2.2 0 0 0-.558.149.9.9 0 0 0-.371.277.68.68 0 0 0-.132.426q0 .37.269.567.273.192.69.192m6.855 1.236q-.747 0-1.351-.384-.601-.388-.955-1.138-.35-.754-.349-1.849 0-1.125.362-1.871.362-.75.963-1.121.605-.375 1.325-.375.55 0 .916.188.372.183.597.46.23.273.35.537h.055v-3.281h1.811v8.727h-1.79v-1.048h-.076a2.4 2.4 0 0 1-.363.541 1.8 1.8 0 0 1-.601.439q-.366.175-.894.175m.575-1.445q.439 0 .741-.239.307-.243.469-.677.166-.435.166-1.019t-.162-1.014a1.46 1.46 0 0 0-.468-.665 1.2 1.2 0 0 0-.746-.234q-.447 0-.754.243-.308.243-.465.673a2.9 2.9 0 0 0-.158.997q0 .572.158 1.01.162.435.465.682.306.243.754.243m7.189 1.338v-8.727h3.494q.963 0 1.607.285.643.286.967.793.324.502.324 1.159 0 .512-.205.899a1.76 1.76 0 0 1-.562.631 2.3 2.3 0 0 1-.81.345v.085q.5.021.934.281.438.261.711.729.273.465.273 1.108 0 .694-.345 1.24-.342.541-1.01.857-.67.315-1.649.315zm1.845-1.509h1.504q.772 0 1.125-.294a.98.98 0 0 0 .354-.792q0-.363-.175-.639a1.2 1.2 0 0 0-.498-.435 1.7 1.7 0 0 0-.763-.158h-1.547zm0-3.566h1.368q.38 0 .673-.132.298-.136.469-.384a1 1 0 0 0 .175-.592.96.96 0 0 0-.337-.763q-.332-.29-.946-.29h-1.402zm7.789 5.199q-.627 0-1.117-.218a1.8 1.8 0 0 1-.775-.652q-.281-.435-.281-1.082 0-.546.2-.916.2-.371.545-.597t.784-.341q.444-.115.929-.162.571-.06.921-.111.35-.055.507-.162a.36.36 0 0 0 .158-.315v-.025q0-.405-.256-.627-.251-.222-.716-.221-.49 0-.78.217a1 1 0 0 0-.383.537l-1.679-.137q.128-.596.503-1.031.375-.439.967-.673.597-.239 1.381-.239.545 0 1.044.128.503.127.89.396.393.269.618.691.226.417.226 1.001v4.415h-1.722v-.908h-.051a1.82 1.82 0 0 1-1.057.904 2.6 2.6 0 0 1-.856.128m.52-1.253q.4 0 .707-.158.307-.162.482-.435a1.1 1.1 0 0 0 .174-.618v-.694a1 1 0 0 1-.234.102 4 4 0 0 1-.328.081q-.183.034-.367.064l-.332.047a2.2 2.2 0 0 0-.558.149.9.9 0 0 0-.371.277.68.68 0 0 0-.132.426q0 .37.268.567.273.192.691.192m6.258-7.598v8.727h-1.816v-8.727zm3.188 8.851q-.625 0-1.116-.218a1.8 1.8 0 0 1-.776-.652q-.28-.435-.281-1.082 0-.546.2-.916.201-.371.546-.597t.784-.341q.443-.115.929-.162.571-.06.92-.111.35-.055.507-.162a.35.35 0 0 0 .158-.315v-.025q0-.405-.256-.627-.251-.222-.715-.221-.49 0-.78.217a1 1 0 0 0-.384.537l-1.679-.137q.128-.596.503-1.031.375-.439.967-.673.597-.239 1.381-.239.546 0 1.044.128.503.127.891.396.392.269.618.691.225.417.225 1.001v4.415h-1.721v-.908h-.051a1.8 1.8 0 0 1-.422.541 1.9 1.9 0 0 1-.635.363 2.6 2.6 0 0 1-.857.128m.52-1.253q.4 0 .708-.158.307-.162.481-.435.175-.272.175-.618v-.694a1 1 0 0 1-.234.102 4 4 0 0 1-.329.081q-.183.034-.366.064l-.332.047q-.32.047-.559.149a.9.9 0 0 0-.37.277.68.68 0 0 0-.133.426q0 .37.269.567.273.192.69.192m6.258-2.655v3.784h-1.815v-6.545h1.73v1.154h.077q.217-.57.728-.903.512-.336 1.24-.337.682 0 1.189.299.507.298.789.852.28.55.281 1.312v4.168h-1.815v-3.844q.003-.6-.307-.937-.312-.342-.857-.341a1.3 1.3 0 0 0-.647.157q-.277.158-.435.461a1.6 1.6 0 0 0-.158.72m8.475 3.912q-1.005 0-1.73-.426a2.9 2.9 0 0 1-1.108-1.194q-.383-.762-.383-1.755 0-1.006.387-1.764a2.9 2.9 0 0 1 1.113-1.189q.72-.43 1.713-.431.857 0 1.5.311.643.312 1.018.874t.413 1.321h-1.713q-.072-.49-.383-.788-.307-.303-.806-.303a1.22 1.22 0 0 0-.737.23q-.31.226-.486.661-.174.434-.174 1.052 0 .627.17 1.066.175.438.49.669.315.23.737.23.312 0 .559-.128a1.1 1.1 0 0 0 .413-.371q.166-.247.217-.592h1.713q-.042.75-.409 1.321a2.47 2.47 0 0 1-1.001.886q-.64.32-1.513.32m6.937 0q-1.01 0-1.739-.409a2.8 2.8 0 0 1-1.116-1.168q-.393-.759-.393-1.794 0-1.01.393-1.773a2.9 2.9 0 0 1 1.103-1.189q.716-.426 1.679-.426.648 0 1.206.209.563.204.98.618.422.414.657 1.04.234.622.234 1.457v.499h-5.527v-1.125h3.818q0-.393-.17-.695a1.23 1.23 0 0 0-.473-.473 1.36 1.36 0 0 0-.695-.175q-.414 0-.733.192-.315.188-.494.507-.18.316-.183.703v1.07q0 .486.178.839.184.354.516.546t.788.192q.303 0 .554-.086t.431-.255q.179-.17.273-.418l1.679.111q-.128.605-.525 1.057a2.6 2.6 0 0 1-1.014.699q-.618.246-1.427.247m4.057-.128v-6.545h1.76v1.142h.068q.178-.61.601-.921a1.58 1.58 0 0 1 .971-.315 2.6 2.6 0 0 1 .571.064v1.61a2.5 2.5 0 0 0-.354-.068q-.225-.03-.413-.03-.4 0-.716.175a1.3 1.3 0 0 0-.494.477 1.4 1.4 0 0 0-.179.708v3.703z"/><path fill="#fff" stroke="#F6821F" stroke-width="2" d="M365 132h117.875v24.927H365z"/><path fill="#222" d="M375.838 148.624v-8.727h3.494q.964 0 1.607.285.643.286.967.793.324.502.324 1.159 0 .511-.204.899a1.8 1.8 0 0 1-.563.631 2.3 2.3 0 0 1-.809.345v.085q.498.021.933.281.439.26.711.729.273.465.273 1.108 0 .694-.345 1.24-.34.541-1.01.856-.67.316-1.649.316zm1.845-1.509h1.505q.771 0 1.125-.294a.99.99 0 0 0 .353-.792q0-.363-.174-.64a1.2 1.2 0 0 0-.499-.434 1.7 1.7 0 0 0-.763-.158h-1.547zm0-3.567h1.368q.38 0 .674-.132.298-.136.468-.383a1 1 0 0 0 .175-.592.96.96 0 0 0-.337-.763q-.332-.29-.946-.29h-1.402zm8.88 5.204q-.993 0-1.717-.422a2.9 2.9 0 0 1-1.112-1.185q-.393-.763-.393-1.768 0-1.015.393-1.773a2.85 2.85 0 0 1 1.112-1.185q.724-.426 1.717-.426t1.713.426q.724.421 1.117 1.185.392.758.392 1.773 0 1.005-.392 1.768a2.9 2.9 0 0 1-1.117 1.185q-.72.422-1.713.422m.009-1.407q.451 0 .754-.255.303-.26.456-.708.157-.447.157-1.018t-.157-1.019a1.6 1.6 0 0 0-.456-.707 1.12 1.12 0 0 0-.754-.26q-.456 0-.767.26-.307.26-.465.707a3.2 3.2 0 0 0-.153 1.019q0 .571.153 1.018.158.448.465.708.31.255.767.255m7.743-5.267v1.364h-3.942v-1.364zm-3.047-1.568h1.815v6.102q0 .252.077.392a.42.42 0 0 0 .213.192.9.9 0 0 0 .324.056q.128 0 .255-.022l.196-.038.286 1.351a5 5 0 0 1-.384.098q-.247.06-.6.072-.657.025-1.151-.174a1.6 1.6 0 0 1-.763-.623q-.273-.421-.268-1.065zm6.777-.613h2.275l2.404 5.863h.102l2.403-5.863h2.276v8.727h-1.79v-5.681h-.072l-2.259 5.638h-1.219l-2.258-5.659h-.073v5.702h-1.789zm12.68 8.85q-.625 0-1.116-.217a1.8 1.8 0 0 1-.776-.652q-.28-.435-.281-1.082 0-.546.2-.917.201-.37.546-.596t.784-.341q.443-.115.929-.162.571-.06.92-.111.35-.056.507-.162a.35.35 0 0 0 .158-.315v-.026q0-.404-.256-.626-.251-.222-.715-.222-.49 0-.78.218a1 1 0 0 0-.384.537l-1.679-.137q.128-.596.503-1.031.375-.44.967-.673.597-.239 1.381-.239.546 0 1.044.128.503.128.891.396.392.268.618.691.225.417.225 1.001v4.415h-1.721v-.908h-.051a1.8 1.8 0 0 1-.422.541 2 2 0 0 1-.635.363 2.6 2.6 0 0 1-.857.127m.52-1.252q.4 0 .708-.158.307-.162.481-.435.175-.273.175-.618v-.694a1 1 0 0 1-.234.102 5 5 0 0 1-.329.081q-.183.034-.366.064l-.332.047q-.32.047-.559.149a.9.9 0 0 0-.37.277.68.68 0 0 0-.133.426q0 .37.269.567.273.192.69.192m6.258-2.655v3.784h-1.815v-6.546h1.73v1.155h.077a1.82 1.82 0 0 1 .728-.903q.512-.337 1.24-.337.682 0 1.189.298t.789.853q.28.55.281 1.312v4.168h-1.815v-3.844q.003-.601-.307-.937-.312-.341-.857-.341a1.3 1.3 0 0 0-.647.157q-.278.158-.435.461a1.6 1.6 0 0 0-.158.72m7.384 3.907q-.626 0-1.116-.217a1.8 1.8 0 0 1-.776-.652q-.28-.435-.281-1.082 0-.546.2-.917.201-.37.546-.596t.784-.341q.443-.115.929-.162.57-.06.92-.111.35-.056.507-.162a.36.36 0 0 0 .158-.315v-.026q0-.404-.256-.626-.25-.222-.716-.222-.489 0-.78.218a1 1 0 0 0-.383.537l-1.679-.137q.128-.596.503-1.031.375-.44.967-.673.597-.239 1.381-.239.545 0 1.044.128.502.128.891.396.392.268.617.691.226.417.226 1.001v4.415h-1.721v-.908h-.051a1.9 1.9 0 0 1-.422.541 2 2 0 0 1-.635.363 2.6 2.6 0 0 1-.857.127m.52-1.252q.4 0 .707-.158.308-.162.482-.435.175-.273.175-.618v-.694a1 1 0 0 1-.235.102 5 5 0 0 1-.328.081q-.183.034-.366.064l-.333.047a2.2 2.2 0 0 0-.558.149.9.9 0 0 0-.371.277.67.67 0 0 0-.132.426q0 .37.269.567.273.192.69.192m7.392 3.72q-.883 0-1.513-.243-.627-.239-.997-.652a2 2 0 0 1-.482-.929l1.679-.226q.077.196.243.366.166.171.439.273.276.107.673.107.592 0 .976-.29.387-.285.388-.959v-1.197h-.077a1.7 1.7 0 0 1-.358.515 1.8 1.8 0 0 1-.614.397q-.375.153-.894.153-.738 0-1.343-.341-.6-.345-.959-1.052-.353-.712-.353-1.799 0-1.112.362-1.858.361-.746.963-1.116a2.5 2.5 0 0 1 1.325-.371q.55 0 .921.188.37.183.596.46.231.273.354.537h.068v-1.1h1.803v6.61q0 .835-.409 1.397-.41.563-1.134.844-.72.286-1.657.286m.038-4.049q.439 0 .741-.217.307-.222.469-.631.166-.413.166-.988 0-.576-.162-.997a1.46 1.46 0 0 0-.468-.661 1.2 1.2 0 0 0-.746-.234q-.447 0-.754.243-.308.238-.465.664a2.8 2.8 0 0 0-.158.985q0 .566.158.98.162.409.465.635.307.221.754.221m7.457 1.586q-1.01 0-1.738-.409a2.8 2.8 0 0 1-1.117-1.168q-.392-.759-.392-1.794 0-1.01.392-1.773a2.9 2.9 0 0 1 1.104-1.189q.716-.426 1.679-.426.648 0 1.206.209.563.204.98.618.422.413.656 1.04.235.621.235 1.457v.499h-5.527v-1.125h3.818q0-.392-.171-.695a1.2 1.2 0 0 0-.473-.473 1.34 1.34 0 0 0-.694-.175q-.414 0-.733.192-.315.188-.495.507-.179.316-.183.703v1.07q0 .486.179.839.183.354.516.546.332.192.788.192.303 0 .554-.086t.431-.255a1.1 1.1 0 0 0 .272-.418l1.679.111q-.128.604-.524 1.057a2.6 2.6 0 0 1-1.014.698q-.618.248-1.428.248m4.057-.128v-6.546h1.73v1.155h.077a1.82 1.82 0 0 1 .682-.908q.477-.332 1.142-.332.674 0 1.146.337.474.331.631.903h.068a1.74 1.74 0 0 1 .725-.899q.528-.34 1.248-.341.917 0 1.487.584.576.58.576 1.645v4.402h-1.811v-4.044q0-.546-.29-.818a1.02 1.02 0 0 0-.725-.273q-.494 0-.771.315-.277.312-.277.823v3.997h-1.76v-4.083q0-.481-.277-.767-.273-.285-.72-.285-.303 0-.546.153-.238.15-.379.422-.14.268-.14.631v3.929zm13.797.128q-1.01 0-1.739-.409a2.8 2.8 0 0 1-1.117-1.168q-.392-.759-.392-1.794 0-1.01.392-1.773.393-.762 1.104-1.189.716-.426 1.679-.426.648 0 1.206.209.563.204.98.618.422.413.656 1.04.235.621.235 1.457v.499h-5.527v-1.125h3.818q0-.392-.17-.695a1.23 1.23 0 0 0-.473-.473 1.35 1.35 0 0 0-.695-.175q-.414 0-.733.192-.315.188-.494.507-.18.316-.184.703v1.07q0 .486.179.839.184.354.516.546t.788.192q.303 0 .554-.086t.431-.255a1.1 1.1 0 0 0 .272-.418l1.679.111q-.128.604-.524 1.057a2.6 2.6 0 0 1-1.014.698q-.618.248-1.427.248m5.872-3.912v3.784h-1.816v-6.546h1.731v1.155h.076q.218-.572.729-.903.511-.337 1.24-.337.682 0 1.189.298t.788.853q.282.55.282 1.312v4.168h-1.816v-3.844q.005-.601-.307-.937-.311-.341-.856-.341-.366 0-.648.157a1.1 1.1 0 0 0-.435.461 1.6 1.6 0 0 0-.157.72m8.999-2.762v1.364h-3.942v-1.364zm-3.047-1.568h1.815v6.102q0 .252.077.392a.42.42 0 0 0 .213.192.9.9 0 0 0 .324.056q.127 0 .256-.022l.196-.038.285 1.351a6 6 0 0 1-.383.098q-.247.06-.601.072-.656.025-1.151-.174a1.6 1.6 0 0 1-.763-.623q-.272-.421-.268-1.065z"/><path fill="#fff" stroke="#F6821F" stroke-width="2" d="M238 132h117.875v24.927H238z"/><path fill="#222" d="M284.987 147.876h-3.094v-8.727h3.119q1.317 0 2.267.524a3.53 3.53 0 0 1 1.462 1.496q.516.975.516 2.335 0 1.363-.516 2.344a3.55 3.55 0 0 1-1.47 1.504q-.955.524-2.284.524m-1.249-1.581h1.172q.819 0 1.376-.29.563-.294.844-.907.286-.618.286-1.594 0-.968-.286-1.581a1.85 1.85 0 0 0-.839-.904q-.558-.29-1.377-.289h-1.176zm9.847 1.581h-3.094v-8.727h3.12q1.317 0 2.267.524a3.53 3.53 0 0 1 1.461 1.496q.516.975.516 2.335 0 1.363-.516 2.344a3.54 3.54 0 0 1-1.47 1.504q-.954.524-2.284.524m-1.248-1.581h1.172q.818 0 1.376-.29.562-.294.844-.907.285-.618.285-1.594 0-.968-.285-1.581a1.86 1.86 0 0 0-.84-.904q-.558-.29-1.376-.289h-1.176zm9.676 1.709q-.993 0-1.717-.422a2.9 2.9 0 0 1-1.112-1.185q-.392-.763-.392-1.768 0-1.014.392-1.773a2.86 2.86 0 0 1 1.112-1.185q.724-.426 1.717-.426t1.713.426q.724.423 1.117 1.185.392.759.392 1.773 0 1.005-.392 1.768a2.9 2.9 0 0 1-1.117 1.185q-.72.422-1.713.422m.009-1.406q.451 0 .754-.256.303-.26.456-.708.158-.447.158-1.018t-.158-1.018a1.6 1.6 0 0 0-.456-.708 1.12 1.12 0 0 0-.754-.26q-.456 0-.767.26-.308.26-.465.708a3.1 3.1 0 0 0-.153 1.018q0 .571.153 1.018.158.448.465.708.31.255.767.256m9.03-4.939a1.08 1.08 0 0 0-.439-.801q-.389-.286-1.053-.286-.451 0-.763.128a1.07 1.07 0 0 0-.477.345.83.83 0 0 0-.162.503.73.73 0 0 0 .098.409q.111.174.303.302.191.124.443.218.252.09.537.153l.784.188q.571.128 1.048.341.477.212.827.524.35.31.541.733.197.421.2.967-.003.801-.409 1.389-.4.584-1.159.908-.754.32-1.819.32-1.057 0-1.841-.324a2.7 2.7 0 0 1-1.219-.959q-.435-.639-.456-1.581h1.786q.029.44.251.733.226.29.601.439.38.145.856.145.47 0 .814-.137.35-.136.541-.379a.88.88 0 0 0 .192-.558.73.73 0 0 0-.174-.495 1.3 1.3 0 0 0-.503-.34 5 5 0 0 0-.806-.256l-.95-.239q-1.104-.269-1.743-.839-.64-.572-.635-1.539-.004-.792.422-1.385.43-.592 1.18-.924t1.705-.333q.972 0 1.696.333.729.332 1.134.924t.417 1.373z"/><path fill="#fff" stroke="#F6821F" stroke-width="2" d="M238 163h117.875v24.927H238z"/><path fill="#222" d="M288.554 178.74h-3.094v-8.728h3.119q1.317 0 2.267.525a3.53 3.53 0 0 1 1.462 1.495q.515.976.515 2.336 0 1.363-.515 2.343a3.55 3.55 0 0 1-1.47 1.505q-.955.524-2.284.524m-1.249-1.581h1.172q.818 0 1.376-.29.563-.294.844-.908.286-.618.286-1.593 0-.968-.286-1.581a1.85 1.85 0 0 0-.839-.904q-.559-.29-1.377-.29h-1.176zm14.053-7.147v8.728h-1.594l-3.797-5.493h-.064v5.493h-1.845v-8.728h1.62l3.767 5.489h.076v-5.489zm6.127 2.51a1.08 1.08 0 0 0-.439-.801q-.388-.285-1.053-.285a2 2 0 0 0-.762.128 1.07 1.07 0 0 0-.478.345.83.83 0 0 0-.162.503.73.73 0 0 0 .098.409q.111.174.303.302.192.124.443.218.252.089.537.153l.784.188q.571.127 1.048.34t.827.525q.35.31.541.733.196.421.201.967-.005.801-.409 1.389-.4.584-1.16.908-.753.32-1.819.319-1.057 0-1.841-.324a2.7 2.7 0 0 1-1.219-.958q-.435-.639-.456-1.581h1.786q.03.438.251.733.226.29.601.439a2.4 2.4 0 0 0 .857.144q.468 0 .814-.136.349-.136.541-.379a.87.87 0 0 0 .191-.558.73.73 0 0 0-.174-.495 1.34 1.34 0 0 0-.503-.341 5 5 0 0 0-.805-.255l-.951-.239q-1.104-.269-1.743-.839-.638-.572-.635-1.539-.004-.792.422-1.385.43-.593 1.181-.924.75-.333 1.704-.333.972 0 1.696.333.729.332 1.134.924t.417 1.372z"/><path fill="#fff" stroke="#F6821F" stroke-width="2" d="M365 163h117.875v24.927H365z"/><path fill="#222" d="M390.703 173.068h-1.867a1.8 1.8 0 0 0-.208-.644 1.6 1.6 0 0 0-.405-.485 1.8 1.8 0 0 0-.571-.307 2.2 2.2 0 0 0-.695-.107q-.678 0-1.18.337-.503.332-.78.971-.277.636-.277 1.543 0 .933.277 1.568.281.636.784.959a2.1 2.1 0 0 0 1.163.324q.372 0 .686-.098a1.8 1.8 0 0 0 .567-.286q.247-.19.409-.464.167-.273.23-.622l1.867.008a3.48 3.48 0 0 1-1.134 2.152q-.481.435-1.15.691a4.2 4.2 0 0 1-1.504.251q-1.168 0-2.089-.528-.915-.53-1.448-1.53-.53-1.002-.529-2.425 0-1.427.537-2.429t1.458-1.525q.92-.53 2.071-.529.758 0 1.406.213.651.213 1.155.622.503.405.818.993.32.588.409 1.347m4.285 5.672h-3.094v-8.728h3.119q1.317 0 2.267.525a3.53 3.53 0 0 1 1.462 1.495q.516.976.516 2.336 0 1.363-.516 2.343a3.55 3.55 0 0 1-1.47 1.505q-.955.524-2.284.524m-1.249-1.581h1.172q.818 0 1.377-.29.563-.294.843-.908.286-.618.286-1.593 0-.968-.286-1.581a1.85 1.85 0 0 0-.839-.904q-.558-.29-1.377-.29h-1.176zm14.053-7.147v8.728h-1.593l-3.797-5.493h-.064v5.493h-1.845v-8.728h1.619l3.767 5.489h.077v-5.489zm7.805-.409-2.812 10.449h-1.564l2.812-10.449zm11.123 3.465h-1.867a1.8 1.8 0 0 0-.209-.644 1.6 1.6 0 0 0-.405-.485 1.8 1.8 0 0 0-.571-.307 2.2 2.2 0 0 0-.694-.107q-.677 0-1.181.337-.503.332-.779.971-.277.636-.277 1.543 0 .933.277 1.568.28.636.784.959a2.1 2.1 0 0 0 1.163.324q.37 0 .686-.098.32-.098.567-.286.247-.19.409-.464.166-.273.23-.622l1.867.008q-.073.601-.363 1.159-.285.555-.771.993a3.6 3.6 0 0 1-1.151.691 4.2 4.2 0 0 1-1.504.251q-1.167 0-2.088-.528-.916-.53-1.449-1.53-.528-1.002-.528-2.425 0-1.427.537-2.429t1.457-1.525q.92-.53 2.071-.529.76 0 1.406.213.653.213 1.155.622.503.405.818.993.32.588.41 1.347m3.023 5.795a2.7 2.7 0 0 1-1.116-.217 1.8 1.8 0 0 1-.776-.652q-.28-.435-.281-1.082 0-.546.2-.917a1.6 1.6 0 0 1 .545-.596q.346-.226.785-.341.443-.115.929-.162.57-.06.92-.111.35-.056.507-.162a.36.36 0 0 0 .158-.315v-.026q0-.405-.256-.626-.252-.222-.716-.222-.49 0-.78.218a1 1 0 0 0-.383.537l-1.679-.137q.128-.596.503-1.031.375-.44.967-.673.597-.239 1.381-.239.544 0 1.044.128.503.128.89.396.393.268.618.691.226.417.226 1.001v4.415h-1.721v-.908h-.052a1.8 1.8 0 0 1-.421.541 2 2 0 0 1-.635.362 2.6 2.6 0 0 1-.857.128m.52-1.253q.4 0 .707-.157.307-.162.482-.435t.175-.618v-.694a1 1 0 0 1-.235.102 5 5 0 0 1-.328.081q-.183.034-.366.064l-.333.047a2.2 2.2 0 0 0-.558.149.9.9 0 0 0-.371.277.67.67 0 0 0-.132.426q0 .37.269.567.272.191.69.191m7.4 1.258q-1.006 0-1.73-.427a2.87 2.87 0 0 1-1.108-1.193q-.384-.762-.384-1.755 0-1.006.388-1.765a2.9 2.9 0 0 1 1.112-1.189q.72-.43 1.713-.43.857 0 1.5.311.644.312 1.019.874t.413 1.321h-1.713q-.072-.49-.383-.789-.307-.302-.806-.302a1.22 1.22 0 0 0-.737.23 1.5 1.5 0 0 0-.486.66q-.175.435-.175 1.053 0 .627.171 1.065.174.44.49.669.315.231.737.231.312 0 .558-.128.252-.129.414-.371.166-.247.217-.592h1.713q-.043.75-.409 1.321a2.47 2.47 0 0 1-1.001.886q-.64.32-1.513.32m5.769-3.912v3.784h-1.816v-8.728h1.765v3.337h.076q.222-.58.716-.908.495-.332 1.24-.332.682 0 1.189.298.511.294.793.848.285.55.281 1.317v4.168h-1.815v-3.844q.004-.604-.307-.942-.308-.336-.861-.336-.37 0-.656.157a1.1 1.1 0 0 0-.443.46 1.56 1.56 0 0 0-.162.721m5.541 3.784v-6.546h1.815v6.546zm.912-7.389a1 1 0 0 1-.695-.269.87.87 0 0 1-.285-.652q0-.375.285-.643a.98.98 0 0 1 .695-.273q.405 0 .69.273.29.268.29.643 0 .38-.29.652a.97.97 0 0 1-.69.269m4.041 3.605v3.784h-1.816v-6.546h1.73v1.155h.077q.218-.572.729-.903.511-.337 1.24-.337.681 0 1.189.298.507.298.788.853.281.55.281 1.312v4.168h-1.815v-3.844q.005-.601-.307-.938-.311-.34-.856-.34a1.3 1.3 0 0 0-.648.157 1.1 1.1 0 0 0-.435.46 1.6 1.6 0 0 0-.157.721m8.466 6.375q-.882 0-1.513-.243-.626-.239-.997-.652a2 2 0 0 1-.481-.929l1.678-.226a1.11 1.11 0 0 0 .682.639q.277.107.674.107.592 0 .975-.29.388-.285.388-.959v-1.197h-.076a1.74 1.74 0 0 1-.972.912q-.375.153-.895.153-.737 0-1.342-.341-.601-.345-.959-1.052-.354-.712-.354-1.799 0-1.112.362-1.858.363-.745.964-1.116a2.5 2.5 0 0 1 1.325-.371q.55 0 .92.188.37.183.597.46.23.273.354.537h.068v-1.1h1.802v6.61q0 .834-.409 1.397t-1.133.844q-.72.285-1.658.286m.038-4.049q.44 0 .742-.217.307-.222.469-.631a2.7 2.7 0 0 0 .166-.988q0-.576-.162-.997a1.45 1.45 0 0 0-.469-.661 1.2 1.2 0 0 0-.746-.234q-.447 0-.754.243-.306.238-.464.664a2.8 2.8 0 0 0-.158.985q0 .566.158.98.162.409.464.635.307.22.754.221"/><path fill="#5E5E5E" d="M145.752 162a1.5 1.5 0 0 0 0 3zm80.309 2.561a1.5 1.5 0 0 0 0-2.122l-9.546-9.546a1.5 1.5 0 0 0-2.122 0 1.5 1.5 0 0 0 0 2.122l8.486 8.485-8.486 8.485a1.5 1.5 0 0 0 0 2.122 1.5 1.5 0 0 0 2.122 0zm-80.309.439H225v-3h-79.248z"/><path fill="#fff" stroke="#F6821F" stroke-width="2" d="M573 99h261v129H573z"/><path fill="#222" d="M657.464 120v-11.636h2.461v9.608h4.988V120zm12.976.17q-1.323 0-2.289-.562a3.84 3.84 0 0 1-1.483-1.58q-.523-1.017-.523-2.358 0-1.352.523-2.363a3.8 3.8 0 0 1 1.483-1.58q.966-.568 2.289-.568t2.284.568a3.8 3.8 0 0 1 1.489 1.58q.523 1.011.523 2.363 0 1.341-.523 2.358a3.83 3.83 0 0 1-1.489 1.58q-.96.562-2.284.562m.012-1.875q.601 0 1.005-.34.404-.348.608-.944.21-.596.211-1.358 0-.76-.211-1.358-.204-.596-.608-.943-.404-.346-1.005-.346-.609 0-1.023.346-.41.347-.619.943a4.2 4.2 0 0 0-.205 1.358q0 .762.205 1.358.21.596.619.944.414.34 1.023.34m13.119-4.534-2.216.137a1.15 1.15 0 0 0-.244-.512 1.3 1.3 0 0 0-.495-.369 1.7 1.7 0 0 0-.721-.142q-.562 0-.949.239-.386.232-.386.625 0 .312.25.528.249.216.858.347l1.579.318q1.273.26 1.898.841.625.58.625 1.522a2.38 2.38 0 0 1-.506 1.506q-.5.648-1.375 1.011-.869.358-2.005.358-1.734 0-2.762-.721a2.8 2.8 0 0 1-1.199-1.977l2.381-.125q.108.528.523.806.414.273 1.062.273.636 0 1.023-.244.392-.25.398-.642a.67.67 0 0 0-.279-.54q-.273-.216-.841-.33l-1.511-.301q-1.278-.256-1.903-.886-.62-.63-.62-1.608 0-.841.455-1.449.46-.608 1.29-.937.835-.33 1.954-.33 1.654 0 2.602.699.955.699 1.114 1.903m7.477 6.239h-2.636l4.017-11.636h3.17L699.611 120h-2.637l-2.914-8.977h-.091zm-.164-4.574h6.227v1.921h-6.227zm12.502-.471V120h-2.42v-8.727h2.307v1.539h.102q.29-.761.972-1.204.681-.449 1.653-.449.909 0 1.585.398t1.051 1.136q.375.733.375 1.75V120h-2.42v-5.125q.005-.801-.409-1.25-.415-.455-1.142-.455-.489 0-.864.211-.369.21-.579.613-.205.398-.211.961m11.465 8.5q-1.177 0-2.017-.324-.835-.318-1.33-.87a2.7 2.7 0 0 1-.642-1.238l2.239-.301q.102.261.324.488.221.228.585.364a2.5 2.5 0 0 0 .898.142q.79 0 1.301-.386.517-.38.517-1.279v-1.596h-.102a2.3 2.3 0 0 1-.478.687 2.4 2.4 0 0 1-.818.528q-.5.205-1.193.205a3.6 3.6 0 0 1-1.79-.455q-.801-.46-1.278-1.403-.472-.95-.472-2.398 0-1.482.483-2.477t1.284-1.489a3.3 3.3 0 0 1 1.767-.494q.733 0 1.228.25.494.245.795.614.307.363.472.716h.09v-1.466h2.404v8.812q0 1.114-.546 1.864-.545.75-1.511 1.125-.96.381-2.21.381m.051-5.398q.585 0 .989-.29.409-.295.625-.841.22-.551.221-1.318 0-.767-.216-1.33-.216-.567-.625-.88t-.994-.313q-.597 0-1.006.324-.409.319-.619.886a3.8 3.8 0 0 0-.21 1.313q0 .755.21 1.307.216.545.619.846.41.296 1.006.296m10.119 2.113q-1.346 0-2.318-.545a3.73 3.73 0 0 1-1.489-1.557q-.522-1.01-.522-2.392 0-1.346.522-2.364a3.87 3.87 0 0 1 1.472-1.585q.954-.568 2.239-.568.862 0 1.608.279.75.272 1.306.823.563.552.875 1.387.313.829.313 1.943v.665h-7.369v-1.5h5.091q0-.524-.228-.926a1.6 1.6 0 0 0-.63-.631 1.8 1.8 0 0 0-.927-.233q-.55 0-.977.256-.42.25-.659.676-.238.42-.244.937v1.426q0 .648.238 1.12.244.471.688.727.443.255 1.051.256.403 0 .739-.114.334-.113.574-.341.238-.227.363-.557l2.239.148a3.06 3.06 0 0 1-.699 1.409q-.522.596-1.352.932-.824.33-1.904.329m8.006-11.806V120h-2.42v-11.636zm5.916 11.806q-1.347 0-2.318-.545a3.73 3.73 0 0 1-1.489-1.557q-.522-1.01-.522-2.392 0-1.346.522-2.364a3.87 3.87 0 0 1 1.472-1.585q.955-.568 2.239-.568.862 0 1.608.279.75.272 1.306.823.563.552.875 1.387.313.829.313 1.943v.665h-7.369v-1.5h5.09q0-.524-.227-.926a1.6 1.6 0 0 0-.631-.631 1.8 1.8 0 0 0-.926-.233q-.55 0-.977.256-.42.25-.659.676-.239.42-.244.937v1.426q0 .648.238 1.12.244.471.688.727.443.255 1.051.256.403 0 .739-.114a1.5 1.5 0 0 0 .573-.341q.24-.227.364-.557l2.239.148a3.06 3.06 0 0 1-.699 1.409q-.523.596-1.352.932-.824.33-1.904.329m12.847-6.409-2.216.137a1.15 1.15 0 0 0-.244-.512 1.3 1.3 0 0 0-.495-.369 1.7 1.7 0 0 0-.721-.142q-.563 0-.949.239-.387.232-.387.625 0 .312.25.528t.858.347l1.58.318q1.272.26 1.898.841.625.58.625 1.522a2.38 2.38 0 0 1-.506 1.506q-.5.648-1.375 1.011-.87.358-2.006.358-1.732 0-2.761-.721a2.8 2.8 0 0 1-1.199-1.977l2.381-.125q.108.528.522.806.415.273 1.063.273.636 0 1.023-.244.392-.25.397-.642a.67.67 0 0 0-.278-.54q-.273-.216-.841-.33l-1.511-.301q-1.279-.256-1.904-.886-.62-.63-.619-1.608 0-.841.455-1.449.46-.608 1.289-.937.836-.33 1.955-.33 1.654 0 2.602.699.955.699 1.114 1.903"/><path fill="#fff" stroke="#F6821F" stroke-width="2" d="M581 194h117.875v24.927H581z"/><path fill="#222" d="m629.358 209.876-2.497-8.727h2.015l1.445 6.064h.072l1.594-6.064h1.726l1.59 6.076h.076l1.445-6.076h2.015l-2.497 8.727h-1.798l-1.662-5.706h-.068l-1.658 5.706zm10.962 0h-1.977l3.013-8.727h2.378l3.008 8.727h-1.977l-2.186-6.733h-.068zm-.123-3.43h4.67v1.44h-4.67zm7.464 3.43v-8.727h5.778v1.521h-3.933v2.08h3.55v1.521h-3.55v3.605z"/><path fill="#fff" stroke="#F6821F" stroke-width="2" d="M708 194h117.875v24.927H708z"/><path fill="#222" d="M727.204 209.876v-8.727h1.845v7.206h3.741v1.521zm9.6.128q-.993 0-1.718-.422a2.9 2.9 0 0 1-1.112-1.185q-.392-.763-.392-1.768 0-1.014.392-1.773a2.87 2.87 0 0 1 1.112-1.185q.725-.426 1.718-.426t1.713.426a2.85 2.85 0 0 1 1.116 1.185q.392.759.392 1.773 0 1.005-.392 1.768a2.87 2.87 0 0 1-1.116 1.185q-.72.422-1.713.422m.008-1.406q.452 0 .754-.256.303-.26.456-.708.158-.447.158-1.018t-.158-1.018a1.6 1.6 0 0 0-.456-.708 1.12 1.12 0 0 0-.754-.26q-.455 0-.767.26a1.6 1.6 0 0 0-.464.708 3.1 3.1 0 0 0-.154 1.018q0 .571.154 1.018.158.448.464.708.312.256.767.256M742.94 210q-.626 0-1.116-.218a1.8 1.8 0 0 1-.776-.652q-.28-.435-.281-1.082 0-.546.2-.916.2-.371.546-.597.345-.226.784-.341.443-.115.929-.162.57-.06.92-.111.35-.055.507-.162a.36.36 0 0 0 .158-.315v-.025q0-.405-.256-.627-.25-.222-.716-.221-.489 0-.78.217a1 1 0 0 0-.383.537l-1.679-.137q.128-.596.503-1.031.375-.439.967-.673.597-.239 1.381-.239.544 0 1.044.128.503.127.89.396.393.269.618.691.226.417.226 1.001v4.415h-1.721v-.908h-.051a1.9 1.9 0 0 1-.422.541 1.9 1.9 0 0 1-.635.363 2.6 2.6 0 0 1-.857.128m.52-1.253q.4 0 .707-.158.307-.162.482-.435.174-.272.175-.618v-.694a1 1 0 0 1-.235.102 4 4 0 0 1-.328.081q-.183.034-.366.064l-.333.047a2.2 2.2 0 0 0-.558.149.9.9 0 0 0-.371.277.68.68 0 0 0-.132.426q0 .37.269.567.273.192.69.192m6.855 1.236q-.747 0-1.351-.384-.601-.388-.955-1.138-.35-.754-.349-1.849 0-1.125.362-1.871.362-.75.963-1.121.605-.375 1.325-.375.55 0 .916.188.372.183.597.46.23.273.35.537h.055v-3.281h1.811v8.727h-1.79v-1.048h-.076a2.4 2.4 0 0 1-.363.541 1.8 1.8 0 0 1-.601.439q-.366.175-.894.175m.575-1.445q.439 0 .741-.239.307-.243.469-.677.166-.435.166-1.019t-.162-1.014a1.46 1.46 0 0 0-.468-.665 1.2 1.2 0 0 0-.746-.234q-.447 0-.754.243-.308.243-.465.673a2.9 2.9 0 0 0-.158.997q0 .572.158 1.01.162.435.465.682.306.243.754.243m7.189 1.338v-8.727h3.494q.963 0 1.607.285.643.286.967.793.324.502.324 1.159 0 .512-.205.899a1.76 1.76 0 0 1-.562.631 2.3 2.3 0 0 1-.81.345v.085q.5.021.934.281.438.261.711.729.273.465.273 1.108 0 .694-.345 1.24-.341.541-1.01.857-.67.315-1.649.315zm1.845-1.509h1.504q.772 0 1.125-.294a.98.98 0 0 0 .354-.792q0-.363-.175-.639a1.2 1.2 0 0 0-.498-.435 1.7 1.7 0 0 0-.763-.158h-1.547zm0-3.566h1.368q.38 0 .673-.132.298-.136.469-.384a1 1 0 0 0 .175-.592.96.96 0 0 0-.337-.763q-.332-.29-.946-.29h-1.402zm7.789 5.199q-.627 0-1.117-.218a1.8 1.8 0 0 1-.775-.652q-.281-.435-.281-1.082 0-.546.2-.916.2-.371.545-.597t.784-.341q.444-.115.929-.162.572-.06.921-.111.35-.055.507-.162a.36.36 0 0 0 .158-.315v-.025q0-.405-.256-.627-.251-.222-.716-.221-.49 0-.78.217a1 1 0 0 0-.383.537l-1.679-.137q.128-.596.503-1.031.375-.439.967-.673.597-.239 1.381-.239.545 0 1.044.128.503.127.89.396.393.269.618.691.226.417.226 1.001v4.415h-1.722v-.908h-.051a1.82 1.82 0 0 1-1.057.904 2.6 2.6 0 0 1-.856.128m.52-1.253q.4 0 .707-.158.307-.162.482-.435a1.1 1.1 0 0 0 .174-.618v-.694a1 1 0 0 1-.234.102 4 4 0 0 1-.328.081q-.183.034-.367.064l-.332.047a2.2 2.2 0 0 0-.558.149.9.9 0 0 0-.371.277.68.68 0 0 0-.132.426q0 .37.268.567.273.192.691.192m6.258-7.598v8.727h-1.816v-8.727zm3.188 8.851q-.625 0-1.116-.218a1.8 1.8 0 0 1-.776-.652q-.28-.435-.281-1.082 0-.546.2-.916.201-.371.546-.597t.784-.341q.443-.115.929-.162.571-.06.92-.111.35-.055.507-.162a.35.35 0 0 0 .158-.315v-.025q0-.405-.256-.627-.251-.222-.715-.221-.49 0-.78.217a1 1 0 0 0-.384.537l-1.679-.137q.128-.596.503-1.031.375-.439.967-.673.597-.239 1.381-.239.546 0 1.044.128.503.127.891.396.392.269.618.691.225.417.225 1.001v4.415h-1.721v-.908h-.051a1.8 1.8 0 0 1-.422.541 1.9 1.9 0 0 1-.635.363 2.6 2.6 0 0 1-.857.128m.52-1.253q.4 0 .708-.158.307-.162.481-.435.175-.272.175-.618v-.694a1 1 0 0 1-.234.102 4 4 0 0 1-.329.081q-.183.034-.366.064l-.332.047q-.32.047-.559.149a.9.9 0 0 0-.37.277.68.68 0 0 0-.133.426q0 .37.269.567.273.192.69.192m6.258-2.655v3.784h-1.815v-6.545h1.73v1.154h.077q.217-.57.728-.903.512-.336 1.24-.337.682 0 1.189.299.507.298.789.852.28.55.281 1.312v4.168h-1.815v-3.844q.003-.6-.307-.937-.312-.342-.857-.341a1.3 1.3 0 0 0-.647.157q-.277.158-.435.461a1.6 1.6 0 0 0-.158.72m8.475 3.912q-1.005 0-1.73-.426a2.9 2.9 0 0 1-1.108-1.194q-.384-.762-.383-1.755 0-1.006.387-1.764a2.9 2.9 0 0 1 1.113-1.189q.72-.43 1.713-.431.857 0 1.5.311.643.312 1.018.874t.413 1.321h-1.713q-.072-.49-.383-.788-.307-.303-.806-.303a1.22 1.22 0 0 0-.737.23q-.31.226-.486.661-.174.434-.174 1.052 0 .627.17 1.066.175.438.49.669.315.23.737.23.312 0 .559-.128a1.1 1.1 0 0 0 .413-.371q.166-.247.217-.592h1.713q-.042.75-.409 1.321a2.47 2.47 0 0 1-1.001.886q-.64.32-1.513.32m6.937 0q-1.01 0-1.739-.409a2.8 2.8 0 0 1-1.116-1.168q-.393-.759-.393-1.794 0-1.01.393-1.773a2.9 2.9 0 0 1 1.103-1.189q.716-.426 1.679-.426.648 0 1.206.209.563.204.98.618.422.414.657 1.04.234.622.234 1.457v.499h-5.527v-1.125h3.818q0-.393-.17-.695a1.23 1.23 0 0 0-.473-.473 1.36 1.36 0 0 0-.695-.175q-.414 0-.733.192-.315.188-.494.507-.18.316-.183.703v1.07q0 .486.178.839.184.354.516.546t.788.192q.303 0 .554-.086t.431-.255q.179-.17.273-.418l1.679.111q-.128.605-.525 1.057a2.6 2.6 0 0 1-1.014.699q-.618.246-1.427.247m4.057-.128v-6.545h1.76v1.142h.068q.178-.61.601-.921a1.58 1.58 0 0 1 .971-.315 2.6 2.6 0 0 1 .571.064v1.61a2.5 2.5 0 0 0-.354-.068q-.225-.03-.413-.03-.4 0-.716.175a1.3 1.3 0 0 0-.494.477 1.4 1.4 0 0 0-.179.708v3.703z"/><path fill="#fff" stroke="#F6821F" stroke-width="2" d="M708 132h117.875v24.927H708z"/><path fill="#222" d="M718.838 148.624v-8.727h3.494q.964 0 1.607.285.643.286.967.793.324.502.324 1.159 0 .511-.204.899a1.8 1.8 0 0 1-.563.631 2.3 2.3 0 0 1-.809.345v.085q.498.021.933.281.439.26.711.729.273.465.273 1.108 0 .694-.345 1.24-.34.541-1.01.856-.67.316-1.649.316zm1.845-1.509h1.505q.771 0 1.125-.294a.99.99 0 0 0 .353-.792q0-.363-.174-.64a1.2 1.2 0 0 0-.499-.434 1.7 1.7 0 0 0-.763-.158h-1.547zm0-3.567h1.368q.38 0 .674-.132.298-.136.468-.383a1 1 0 0 0 .175-.592.96.96 0 0 0-.337-.763q-.332-.29-.946-.29h-1.402zm8.88 5.204q-.993 0-1.717-.422a2.9 2.9 0 0 1-1.112-1.185q-.393-.763-.393-1.768 0-1.015.393-1.773a2.85 2.85 0 0 1 1.112-1.185q.724-.426 1.717-.426t1.713.426q.724.421 1.117 1.185.392.758.392 1.773 0 1.005-.392 1.768a2.9 2.9 0 0 1-1.117 1.185q-.72.422-1.713.422m.009-1.407q.451 0 .754-.255.303-.26.456-.708.157-.447.157-1.018t-.157-1.019a1.6 1.6 0 0 0-.456-.707 1.12 1.12 0 0 0-.754-.26q-.456 0-.767.26-.308.26-.465.707a3.2 3.2 0 0 0-.153 1.019q0 .571.153 1.018.157.448.465.708.31.255.767.255m7.743-5.267v1.364h-3.942v-1.364zm-3.047-1.568h1.815v6.102q0 .252.077.392a.42.42 0 0 0 .213.192.9.9 0 0 0 .324.056q.127 0 .255-.022l.196-.038.286 1.351a5 5 0 0 1-.384.098q-.247.06-.6.072-.657.025-1.151-.174a1.6 1.6 0 0 1-.763-.623q-.273-.421-.268-1.065zm6.777-.613h2.275l2.404 5.863h.102l2.403-5.863h2.276v8.727h-1.79v-5.681h-.072l-2.259 5.638h-1.219l-2.258-5.659h-.073v5.702h-1.789zm12.68 8.85q-.625 0-1.116-.217a1.8 1.8 0 0 1-.776-.652q-.28-.435-.281-1.082 0-.546.2-.917.201-.37.546-.596t.784-.341q.443-.115.929-.162.571-.06.92-.111.35-.056.507-.162a.35.35 0 0 0 .158-.315v-.026q0-.404-.256-.626-.251-.222-.715-.222-.49 0-.78.218a1 1 0 0 0-.384.537l-1.679-.137q.128-.596.503-1.031.375-.44.967-.673.597-.239 1.381-.239.546 0 1.044.128.502.128.891.396.391.268.618.691.225.417.225 1.001v4.415h-1.721v-.908h-.051a1.8 1.8 0 0 1-.422.541 2 2 0 0 1-.635.363 2.6 2.6 0 0 1-.857.127m.52-1.252q.4 0 .708-.158.306-.162.481-.435t.175-.618v-.694a1 1 0 0 1-.234.102 5 5 0 0 1-.329.081q-.183.034-.366.064l-.332.047q-.32.047-.559.149a.9.9 0 0 0-.37.277.68.68 0 0 0-.133.426q0 .37.269.567.273.192.69.192m6.258-2.655v3.784h-1.815v-6.546h1.73v1.155h.077a1.82 1.82 0 0 1 .728-.903q.512-.337 1.24-.337.682 0 1.189.298t.789.853q.28.55.281 1.312v4.168h-1.815v-3.844q.003-.601-.307-.937-.311-.341-.857-.341a1.3 1.3 0 0 0-.647.157q-.278.158-.435.461a1.6 1.6 0 0 0-.158.72m7.384 3.907q-.626 0-1.116-.217a1.8 1.8 0 0 1-.776-.652q-.28-.435-.281-1.082 0-.546.2-.917.201-.37.546-.596t.784-.341q.443-.115.929-.162.57-.06.92-.111.35-.056.507-.162a.36.36 0 0 0 .158-.315v-.026q0-.404-.256-.626-.25-.222-.716-.222-.489 0-.78.218a1 1 0 0 0-.383.537l-1.679-.137q.128-.596.503-1.031.375-.44.967-.673.597-.239 1.381-.239.545 0 1.044.128.503.128.891.396.392.268.617.691.226.417.226 1.001v4.415h-1.721v-.908h-.051a1.9 1.9 0 0 1-.422.541 2 2 0 0 1-.635.363 2.6 2.6 0 0 1-.857.127m.52-1.252q.4 0 .707-.158.308-.162.482-.435.175-.273.175-.618v-.694a1 1 0 0 1-.235.102 5 5 0 0 1-.328.081q-.183.034-.366.064l-.333.047a2.2 2.2 0 0 0-.558.149.9.9 0 0 0-.371.277.67.67 0 0 0-.132.426q0 .37.269.567.273.192.69.192m7.392 3.72q-.883 0-1.513-.243-.627-.239-.997-.652a2 2 0 0 1-.482-.929l1.679-.226q.077.196.243.366.166.171.439.273.276.107.673.107.592 0 .976-.29.388-.285.388-.959v-1.197h-.077a1.7 1.7 0 0 1-.358.515 1.8 1.8 0 0 1-.614.397q-.375.153-.894.153-.737 0-1.343-.341-.6-.345-.959-1.052-.353-.712-.353-1.799 0-1.112.362-1.858.361-.746.963-1.116a2.5 2.5 0 0 1 1.325-.371q.55 0 .921.188.37.183.596.46.231.273.354.537h.068v-1.1h1.803v6.61q0 .835-.409 1.397-.41.563-1.134.844-.72.286-1.657.286m.038-4.049q.439 0 .741-.217.307-.222.469-.631.166-.413.166-.988 0-.576-.162-.997a1.46 1.46 0 0 0-.468-.661 1.2 1.2 0 0 0-.746-.234q-.447 0-.754.243-.308.238-.465.664a2.8 2.8 0 0 0-.158.985q0 .566.158.98.162.409.465.635.307.221.754.221m7.457 1.586q-1.01 0-1.738-.409a2.8 2.8 0 0 1-1.117-1.168q-.392-.759-.392-1.794 0-1.01.392-1.773a2.9 2.9 0 0 1 1.104-1.189q.716-.426 1.679-.426.648 0 1.206.209.563.204.98.618.422.413.656 1.04.235.621.235 1.457v.499h-5.527v-1.125h3.818q0-.392-.171-.695a1.2 1.2 0 0 0-.473-.473 1.34 1.34 0 0 0-.694-.175q-.414 0-.733.192-.315.188-.495.507-.178.316-.183.703v1.07q0 .486.179.839.183.354.516.546.332.192.788.192.303 0 .554-.086t.431-.255a1.1 1.1 0 0 0 .272-.418l1.679.111q-.128.604-.524 1.057a2.6 2.6 0 0 1-1.014.698q-.618.248-1.428.248m4.057-.128v-6.546h1.73v1.155h.077a1.82 1.82 0 0 1 .682-.908q.477-.332 1.142-.332.673 0 1.146.337.474.331.631.903h.068a1.74 1.74 0 0 1 .725-.899q.528-.34 1.248-.341.917 0 1.487.584.576.58.576 1.645v4.402h-1.811v-4.044q0-.546-.29-.818a1.02 1.02 0 0 0-.725-.273q-.494 0-.771.315-.277.312-.277.823v3.997h-1.76v-4.083q0-.481-.277-.767-.273-.285-.72-.285-.303 0-.546.153-.238.15-.379.422-.14.268-.14.631v3.929zm13.797.128q-1.01 0-1.739-.409a2.8 2.8 0 0 1-1.117-1.168q-.392-.759-.392-1.794 0-1.01.392-1.773.393-.762 1.104-1.189.716-.426 1.679-.426.648 0 1.206.209.563.204.98.618.422.413.656 1.04.235.621.235 1.457v.499h-5.527v-1.125h3.818q0-.392-.17-.695a1.23 1.23 0 0 0-.473-.473 1.35 1.35 0 0 0-.695-.175q-.414 0-.733.192-.315.188-.494.507-.18.316-.184.703v1.07q0 .486.179.839.184.354.516.546t.788.192q.303 0 .554-.086t.431-.255a1.1 1.1 0 0 0 .272-.418l1.679.111q-.128.604-.524 1.057a2.6 2.6 0 0 1-1.014.698q-.618.248-1.427.248m5.872-3.912v3.784h-1.816v-6.546h1.731v1.155h.076q.217-.572.729-.903.511-.337 1.24-.337.682 0 1.189.298t.788.853q.282.55.282 1.312v4.168h-1.816v-3.844q.005-.601-.307-.937-.311-.341-.856-.341-.366 0-.648.157a1.1 1.1 0 0 0-.435.461 1.6 1.6 0 0 0-.157.72m8.999-2.762v1.364h-3.942v-1.364zm-3.047-1.568h1.815v6.102q0 .252.077.392a.42.42 0 0 0 .213.192.9.9 0 0 0 .324.056q.127 0 .256-.022l.196-.038.285 1.351a6 6 0 0 1-.383.098q-.247.06-.601.072-.657.025-1.151-.174a1.6 1.6 0 0 1-.763-.623q-.272-.421-.268-1.065z"/><path fill="#fff" stroke="#F6821F" stroke-width="2" d="M581 132h117.875v24.927H581z"/><path fill="#222" d="M627.987 147.876h-3.094v-8.727h3.119q1.317 0 2.267.524a3.53 3.53 0 0 1 1.462 1.496q.516.975.516 2.335 0 1.363-.516 2.344a3.55 3.55 0 0 1-1.47 1.504q-.955.524-2.284.524m-1.249-1.581h1.172q.819 0 1.376-.29.563-.294.844-.907.286-.618.286-1.594 0-.968-.286-1.581a1.85 1.85 0 0 0-.839-.904q-.558-.29-1.377-.289h-1.176zm9.847 1.581h-3.094v-8.727h3.12q1.317 0 2.267.524a3.53 3.53 0 0 1 1.461 1.496q.516.975.516 2.335 0 1.363-.516 2.344a3.54 3.54 0 0 1-1.47 1.504q-.954.524-2.284.524m-1.248-1.581h1.172q.818 0 1.376-.29.562-.294.844-.907.285-.618.285-1.594 0-.968-.285-1.581a1.86 1.86 0 0 0-.84-.904q-.558-.29-1.376-.289h-1.176zm9.676 1.709q-.993 0-1.717-.422a2.9 2.9 0 0 1-1.112-1.185q-.392-.763-.392-1.768 0-1.014.392-1.773a2.86 2.86 0 0 1 1.112-1.185q.724-.426 1.717-.426t1.713.426q.724.423 1.117 1.185.392.759.392 1.773 0 1.005-.392 1.768a2.9 2.9 0 0 1-1.117 1.185q-.72.422-1.713.422m.009-1.406q.451 0 .754-.256.303-.26.456-.708.158-.447.158-1.018t-.158-1.018a1.6 1.6 0 0 0-.456-.708 1.12 1.12 0 0 0-.754-.26q-.456 0-.767.26-.308.26-.465.708a3.1 3.1 0 0 0-.153 1.018q0 .571.153 1.018.158.448.465.708.31.255.767.256m9.03-4.939a1.08 1.08 0 0 0-.439-.801q-.389-.286-1.053-.286-.451 0-.763.128a1.07 1.07 0 0 0-.477.345.83.83 0 0 0-.162.503.73.73 0 0 0 .098.409q.111.174.303.302.192.124.443.218.252.09.537.153l.784.188q.571.128 1.048.341.477.212.827.524.35.31.541.733.197.421.2.967-.003.801-.409 1.389-.4.584-1.159.908-.754.32-1.819.32-1.057 0-1.841-.324a2.7 2.7 0 0 1-1.219-.959q-.435-.639-.456-1.581h1.786q.029.44.251.733.226.29.601.439.38.145.856.145.47 0 .814-.137.35-.136.541-.379a.88.88 0 0 0 .192-.558.73.73 0 0 0-.174-.495 1.3 1.3 0 0 0-.503-.34 5 5 0 0 0-.806-.256l-.95-.239q-1.104-.269-1.743-.839-.64-.572-.635-1.539-.004-.792.422-1.385.43-.592 1.18-.924t1.705-.333q.972 0 1.696.333.729.332 1.134.924t.417 1.373z"/><path fill="#fff" stroke="#F6821F" stroke-width="2" d="M581 163h117.875v24.927H581z"/><path fill="#222" d="M631.554 178.74h-3.094v-8.728h3.119q1.317 0 2.267.525a3.53 3.53 0 0 1 1.462 1.495q.516.976.515 2.336 0 1.363-.515 2.343a3.55 3.55 0 0 1-1.47 1.505q-.955.524-2.284.524m-1.249-1.581h1.172q.818 0 1.376-.29.563-.294.844-.908.285-.618.286-1.593 0-.968-.286-1.581a1.85 1.85 0 0 0-.839-.904q-.559-.29-1.377-.29h-1.176zm14.053-7.147v8.728h-1.594l-3.797-5.493h-.064v5.493h-1.845v-8.728h1.62l3.767 5.489h.076v-5.489zm6.127 2.51a1.08 1.08 0 0 0-.439-.801q-.388-.285-1.053-.285a2 2 0 0 0-.762.128 1.07 1.07 0 0 0-.478.345.83.83 0 0 0-.162.503.73.73 0 0 0 .098.409q.111.174.303.302.192.124.443.218.252.089.537.153l.784.188q.571.127 1.048.34t.827.525q.35.31.541.733.197.421.201.967-.005.801-.409 1.389-.4.584-1.16.908-.754.32-1.819.319-1.057 0-1.841-.324a2.7 2.7 0 0 1-1.219-.958q-.435-.639-.456-1.581h1.786q.03.438.251.733.226.29.601.439a2.4 2.4 0 0 0 .857.144q.468 0 .814-.136.348-.136.541-.379a.87.87 0 0 0 .191-.558.73.73 0 0 0-.174-.495 1.34 1.34 0 0 0-.503-.341 5 5 0 0 0-.805-.255l-.951-.239q-1.104-.269-1.743-.839-.639-.572-.635-1.539-.004-.792.422-1.385.43-.593 1.181-.924.75-.333 1.704-.333.972 0 1.696.333.729.332 1.134.924t.417 1.372z"/><path fill="#fff" stroke="#F6821F" stroke-width="2" d="M708 163h117.875v24.927H708z"/><path fill="#222" d="M733.703 173.068h-1.867a1.8 1.8 0 0 0-.208-.644 1.6 1.6 0 0 0-.405-.485 1.8 1.8 0 0 0-.571-.307 2.2 2.2 0 0 0-.695-.107q-.678 0-1.18.337-.503.332-.78.971-.277.636-.277 1.543 0 .933.277 1.568.281.636.784.959a2.1 2.1 0 0 0 1.163.324q.371 0 .686-.098a1.8 1.8 0 0 0 .567-.286q.247-.19.409-.464.167-.273.23-.622l1.867.008a3.48 3.48 0 0 1-1.134 2.152q-.481.435-1.15.691a4.2 4.2 0 0 1-1.504.251q-1.168 0-2.089-.528-.915-.53-1.448-1.53-.53-1.002-.529-2.425 0-1.427.537-2.429t1.458-1.525q.92-.53 2.071-.529.758 0 1.406.213.651.213 1.155.622.503.405.818.993.32.588.409 1.347m4.285 5.672h-3.094v-8.728h3.119q1.317 0 2.267.525a3.53 3.53 0 0 1 1.462 1.495q.516.976.516 2.336 0 1.363-.516 2.343a3.55 3.55 0 0 1-1.47 1.505q-.954.524-2.284.524m-1.249-1.581h1.172q.818 0 1.377-.29.563-.294.843-.908.286-.618.286-1.593 0-.968-.286-1.581a1.85 1.85 0 0 0-.839-.904q-.558-.29-1.377-.29h-1.176zm14.053-7.147v8.728h-1.593l-3.797-5.493h-.064v5.493h-1.845v-8.728h1.619l3.767 5.489h.077v-5.489zm7.805-.409-2.812 10.449h-1.564l2.812-10.449zm11.123 3.465h-1.867a1.8 1.8 0 0 0-.209-.644 1.6 1.6 0 0 0-.405-.485 1.8 1.8 0 0 0-.571-.307 2.2 2.2 0 0 0-.694-.107q-.678 0-1.181.337-.503.332-.779.971-.277.636-.277 1.543 0 .933.277 1.568.28.636.784.959a2.1 2.1 0 0 0 1.163.324q.37 0 .686-.098.32-.098.567-.286.247-.19.409-.464.166-.273.23-.622l1.867.008q-.073.601-.363 1.159-.285.555-.771.993a3.6 3.6 0 0 1-1.151.691 4.2 4.2 0 0 1-1.504.251q-1.167 0-2.088-.528-.916-.53-1.449-1.53-.528-1.002-.528-2.425 0-1.427.537-2.429.536-1.001 1.457-1.525.92-.53 2.071-.529.76 0 1.406.213.652.213 1.155.622.503.405.818.993.32.588.41 1.347m3.023 5.795a2.7 2.7 0 0 1-1.116-.217 1.8 1.8 0 0 1-.776-.652q-.28-.435-.281-1.082 0-.546.2-.917a1.6 1.6 0 0 1 .545-.596q.346-.226.785-.341.443-.115.929-.162.57-.06.92-.111.35-.056.507-.162a.36.36 0 0 0 .158-.315v-.026q0-.405-.256-.626-.252-.222-.716-.222-.49 0-.78.218a1 1 0 0 0-.383.537l-1.679-.137q.128-.596.503-1.031.375-.44.967-.673.597-.239 1.381-.239.545 0 1.044.128.503.128.89.396.393.268.618.691.226.417.226 1.001v4.415h-1.721v-.908h-.052a1.8 1.8 0 0 1-.421.541 2 2 0 0 1-.635.362 2.6 2.6 0 0 1-.857.128m.52-1.253q.4 0 .707-.157.307-.162.482-.435.174-.273.175-.618v-.694a1 1 0 0 1-.235.102 5 5 0 0 1-.328.081q-.183.034-.366.064l-.333.047a2.2 2.2 0 0 0-.558.149.9.9 0 0 0-.371.277.67.67 0 0 0-.132.426q0 .37.269.567.272.191.69.191m7.4 1.258q-1.006 0-1.73-.427a2.87 2.87 0 0 1-1.108-1.193q-.384-.762-.384-1.755 0-1.006.388-1.765a2.9 2.9 0 0 1 1.112-1.189q.72-.43 1.713-.43.857 0 1.5.311.644.312 1.019.874t.413 1.321h-1.713q-.072-.49-.383-.789-.307-.302-.806-.302a1.22 1.22 0 0 0-.737.23 1.5 1.5 0 0 0-.486.66q-.175.435-.175 1.053 0 .627.171 1.065.174.44.49.669.315.231.737.231.312 0 .558-.128.252-.129.414-.371.166-.247.217-.592h1.713q-.043.75-.409 1.321a2.47 2.47 0 0 1-1.001.886q-.64.32-1.513.32m5.769-3.912v3.784h-1.816v-8.728h1.765v3.337h.076q.222-.58.716-.908.495-.332 1.24-.332.682 0 1.189.298.511.294.793.848.285.55.281 1.317v4.168h-1.815v-3.844q.004-.604-.307-.942-.308-.336-.861-.336-.37 0-.656.157a1.1 1.1 0 0 0-.443.46 1.56 1.56 0 0 0-.162.721m5.541 3.784v-6.546h1.815v6.546zm.912-7.389a1 1 0 0 1-.695-.269.87.87 0 0 1-.285-.652q0-.375.285-.643a.98.98 0 0 1 .695-.273q.405 0 .69.273.29.268.29.643 0 .38-.29.652a.97.97 0 0 1-.69.269m4.041 3.605v3.784h-1.816v-6.546h1.73v1.155h.077q.217-.572.729-.903.511-.337 1.24-.337.681 0 1.189.298.507.298.788.853.281.55.281 1.312v4.168h-1.815v-3.844q.005-.601-.307-.938-.311-.34-.856-.34a1.3 1.3 0 0 0-.648.157 1.1 1.1 0 0 0-.435.46 1.6 1.6 0 0 0-.157.721m8.466 6.375q-.882 0-1.513-.243-.626-.239-.997-.652a2 2 0 0 1-.481-.929l1.678-.226a1.11 1.11 0 0 0 .682.639q.277.107.674.107.592 0 .975-.29.388-.285.388-.959v-1.197h-.076a1.74 1.74 0 0 1-.972.912q-.375.153-.895.153-.737 0-1.342-.341-.601-.345-.959-1.052-.354-.712-.354-1.799 0-1.112.362-1.858.363-.745.964-1.116a2.5 2.5 0 0 1 1.325-.371q.55 0 .92.188.37.183.597.46.23.273.354.537h.068v-1.1h1.802v6.61q0 .834-.409 1.397t-1.133.844q-.72.285-1.658.286m.038-4.049q.44 0 .742-.217.306-.222.469-.631a2.7 2.7 0 0 0 .166-.988q0-.576-.162-.997a1.45 1.45 0 0 0-.469-.661 1.2 1.2 0 0 0-.746-.234q-.447 0-.754.243-.306.238-.464.664a2.8 2.8 0 0 0-.158.985q0 .566.158.98.161.409.464.635.307.22.754.221"/><path fill="#E2F5FA" stroke="#F6821F" stroke-width="2" d="M1013 144h111v40h-111z"/><path fill="#222" d="M1047.68 168.128c-.67 0-1.25-.142-1.73-.426a2.9 2.9 0 0 1-1.11-1.193c-.25-.509-.38-1.094-.38-1.756q0-1.006.39-1.764.39-.763 1.11-1.189.72-.43 1.71-.431.855 0 1.5.311.645.312 1.02.874t.42 1.321h-1.72c-.05-.327-.17-.589-.38-.788-.21-.202-.47-.303-.81-.303a1.2 1.2 0 0 0-.73.23c-.21.151-.37.371-.49.661-.12.289-.17.64-.17 1.052 0 .418.05.773.17 1.066.11.292.28.515.49.669.21.153.45.23.73.23.21 0 .4-.043.56-.128a1 1 0 0 0 .41-.371c.12-.165.19-.362.22-.592h1.72c-.03.5-.17.94-.41 1.321-.25.378-.58.673-1.01.886-.42.213-.93.32-1.51.32m5.9-8.855V168h-1.81v-8.727zm4.41 8.855q-.99 0-1.71-.422a2.96 2.96 0 0 1-1.12-1.185q-.39-.763-.39-1.768 0-1.014.39-1.773c.27-.508.64-.903 1.12-1.185q.72-.426 1.71-.426c.67 0 1.24.142 1.72.426q.72.423 1.11 1.185c.27.506.4 1.097.4 1.773 0 .67-.13 1.26-.4 1.768q-.39.759-1.11 1.185c-.48.281-1.05.422-1.72.422m.01-1.406c.3 0 .56-.086.76-.256q.3-.26.45-.707c.11-.299.16-.638.16-1.019s-.05-.72-.16-1.018q-.15-.448-.45-.708c-.2-.173-.46-.26-.76-.26s-.56.087-.76.26c-.21.173-.36.409-.47.708q-.15.447-.15 1.018t.15 1.019c.11.298.26.534.47.707.2.17.46.256.76.256m8.59-1.509v-3.758h1.82V168h-1.74v-1.189h-.07c-.15.384-.4.692-.74.925s-.76.349-1.25.349c-.44 0-.82-.099-1.15-.298a2.1 2.1 0 0 1-.78-.848c-.19-.367-.28-.805-.28-1.317v-4.167h1.81v3.843c0 .387.11.692.31.916.21.225.48.337.83.337.21 0 .42-.05.61-.149.19-.102.34-.253.46-.452s.18-.444.17-.737m5.68 2.894a2.5 2.5 0 0 1-1.35-.384c-.4-.259-.72-.638-.95-1.138-.24-.503-.35-1.119-.35-1.849q0-1.125.36-1.871.36-.75.96-1.121a2.5 2.5 0 0 1 1.33-.375c.37 0 .67.063.92.188.24.122.44.275.59.46.16.182.27.361.35.537h.06v-3.281h1.81V168h-1.79v-1.048h-.08q-.12.273-.36.541-.225.264-.6.439c-.25.116-.54.175-.9.175m.58-1.445c.29 0 .54-.08.74-.239.2-.162.36-.387.47-.677s.16-.63.16-1.019-.05-.727-.16-1.014-.26-.508-.47-.665c-.2-.156-.45-.234-.74-.234-.3 0-.55.081-.76.243-.2.162-.36.386-.46.673-.11.287-.16.619-.16.997 0 .381.05.718.16 1.01.11.29.26.517.46.682.21.162.46.243.76.243m8.16-5.207v1.363h-4.04v-1.363zm-3.12 6.545v-7.018c0-.475.1-.868.28-1.181.19-.312.45-.547.77-.703a2.5 2.5 0 0 1 1.1-.234c.28 0 .54.021.77.064s.4.081.52.115l-.33 1.363a3 3 0 0 0-.26-.064c-.11-.02-.21-.03-.32-.03-.27 0-.45.063-.56.188q-.15.183-.15.516V168zm6.04-8.727V168h-1.81v-8.727zm3.32 8.851q-.615 0-1.11-.218a1.8 1.8 0 0 1-.78-.652c-.18-.29-.28-.65-.28-1.082 0-.364.07-.669.2-.916.14-.247.32-.446.55-.597q.345-.225.78-.341.45-.115.93-.162c.38-.04.69-.076.92-.111q.345-.054.51-.161c.1-.072.16-.177.16-.316v-.025c0-.27-.09-.479-.26-.627q-.255-.221-.72-.221-.48 0-.78.217a1 1 0 0 0-.38.537l-1.68-.137c.09-.397.25-.741.5-1.031.25-.292.58-.517.97-.673q.6-.239 1.38-.239c.37 0 .71.043 1.05.128.33.085.63.217.89.396s.46.41.62.691c.15.278.22.612.22 1.001V168h-1.72v-.908h-.05q-.165.307-.42.542c-.18.153-.39.274-.64.362-.25.085-.53.128-.86.128m.52-1.253c.27 0 .51-.053.71-.158q.315-.162.48-.435.18-.272.18-.617v-.695q-.09.055-.24.102c-.09.029-.2.056-.32.081l-.37.064-.33.047c-.22.031-.4.081-.56.149a.9.9 0 0 0-.37.277.66.66 0 0 0-.13.426c0 .247.09.436.26.567q.285.192.69.192m4.58 1.129v-6.545h1.76v1.142h.07q.18-.61.6-.921c.28-.21.6-.315.97-.315.09 0 .19.005.29.017.11.011.2.027.28.047v1.611a3.2 3.2 0 0 0-.77-.098c-.26 0-.5.058-.71.174-.21.114-.37.273-.5.477q-.18.308-.18.708V168zm7.59.128c-.68 0-1.25-.137-1.74-.409a2.8 2.8 0 0 1-1.12-1.168q-.39-.759-.39-1.794 0-1.01.39-1.773t1.11-1.189q.705-.426 1.68-.426.645 0 1.2.209c.38.136.7.342.98.618q.42.414.66 1.04c.15.415.23.9.23 1.457v.499h-5.52v-1.125h3.81c0-.262-.05-.493-.17-.695a1.2 1.2 0 0 0-.47-.473 1.35 1.35 0 0 0-.69-.175c-.28 0-.52.064-.74.192a1.34 1.34 0 0 0-.49.507c-.12.211-.18.445-.19.703v1.07q0 .486.18.84c.13.235.3.417.52.545s.48.192.79.192c.2 0 .38-.029.55-.085s.31-.143.43-.256q.18-.17.27-.418l1.68.111c-.08.403-.26.756-.52 1.057-.26.298-.6.531-1.01.699-.42.164-.89.247-1.43.247m6.6-.021q-.75 0-1.35-.384-.6-.388-.96-1.138c-.23-.503-.35-1.119-.35-1.849 0-.75.12-1.374.37-1.871q.36-.75.96-1.121.6-.375 1.32-.375c.37 0 .68.063.92.188q.375.183.6.46c.15.182.27.361.35.537h.05v-3.281h1.81V168h-1.79v-1.048h-.07c-.09.182-.21.362-.37.541q-.225.264-.6.439c-.24.116-.54.175-.89.175m.57-1.445c.3 0 .54-.08.75-.239.2-.162.36-.387.46-.677.12-.29.17-.63.17-1.019s-.05-.727-.16-1.014a1.5 1.5 0 0 0-.47-.665q-.3-.234-.75-.234c-.29 0-.55.081-.75.243s-.36.386-.46.673c-.11.287-.16.619-.16.997 0 .381.05.718.16 1.01.1.29.26.517.46.682.2.162.46.243.75.243"/><path fill="#F6821F" d="M1030.95 166.077h-4.32l-.63-1.155 7.75-11.922 1.34.559-1.6 8.047h4.32l.63 1.155-7.75 11.922-1.34-.559z"/><path fill="#5E5E5E" d="M496 162a1.5 1.5 0 0 0 0 3zm73.061 2.561a1.5 1.5 0 0 0 0-2.122l-9.546-9.546a1.5 1.5 0 0 0-2.122 0 1.5 1.5 0 0 0 0 2.122l8.486 8.485-8.486 8.485a1.5 1.5 0 0 0 0 2.122 1.5 1.5 0 0 0 2.122 0zM496 165h72v-3h-72z"/><path fill="#E2F5FA" d="M1021 151H835v26h186z"/><path fill="#5E5E5E" d="M839 162.5a1.5 1.5 0 0 0 0 3zm183.06 2.561c.59-.586.59-1.536 0-2.122l-9.55-9.546a1.5 1.5 0 0 0-2.12 0 1.51 1.51 0 0 0 0 2.122l8.49 8.485-8.49 8.485a1.51 1.51 0 0 0 0 2.122 1.5 1.5 0 0 0 2.12 0zM839 165.5h182v-3H839z"/></svg>