<svg width="454" height="324" viewBox="0 0 454 324" fill="none" xmlns="http://www.w3.org/2000/svg">
<rect width="454" height="324" fill="white"/>
<path d="M125.829 28V16.3636H133.67V18.392H128.29V21.1648H133.267V23.1932H128.29V25.9716H133.693V28H125.829ZM137.825 22.9545V28H135.405V19.2727H137.712V20.8125H137.814C138.007 20.3049 138.331 19.9034 138.785 19.608C139.24 19.3087 139.791 19.1591 140.439 19.1591C141.045 19.1591 141.573 19.2917 142.024 19.5568C142.475 19.822 142.825 20.2008 143.075 20.6932C143.325 21.1818 143.45 21.7652 143.45 22.4432V28H141.03V22.875C141.034 22.3409 140.897 21.9242 140.621 21.625C140.344 21.322 139.963 21.1705 139.479 21.1705C139.153 21.1705 138.865 21.2405 138.615 21.3807C138.369 21.5208 138.176 21.7254 138.035 21.9943C137.899 22.2595 137.829 22.5795 137.825 22.9545ZM148.398 28.142C147.735 28.142 147.134 27.9716 146.597 27.6307C146.063 27.286 145.638 26.7803 145.324 26.1136C145.013 25.4432 144.858 24.6212 144.858 23.6477C144.858 22.6477 145.019 21.8163 145.341 21.1534C145.663 20.4867 146.091 19.9886 146.625 19.6591C147.163 19.3258 147.752 19.1591 148.392 19.1591C148.881 19.1591 149.288 19.2424 149.614 19.4091C149.943 19.572 150.208 19.7765 150.409 20.0227C150.614 20.2652 150.769 20.5038 150.875 20.7386H150.949V16.3636H153.364V28H150.977V26.6023H150.875C150.761 26.8447 150.6 27.0852 150.392 27.3239C150.188 27.5587 149.92 27.7538 149.591 27.9091C149.265 28.0644 148.867 28.142 148.398 28.142ZM149.165 26.2159C149.555 26.2159 149.884 26.1098 150.153 25.8977C150.426 25.6818 150.634 25.3807 150.778 24.9943C150.926 24.608 151 24.1553 151 23.6364C151 23.1174 150.928 22.6667 150.784 22.2841C150.64 21.9015 150.432 21.6061 150.159 21.3977C149.886 21.1894 149.555 21.0852 149.165 21.0852C148.767 21.0852 148.432 21.1932 148.159 21.4091C147.886 21.625 147.68 21.9242 147.54 22.3068C147.4 22.6894 147.33 23.1326 147.33 23.6364C147.33 24.1439 147.4 24.5928 147.54 24.983C147.684 25.3693 147.89 25.6723 148.159 25.892C148.432 26.108 148.767 26.2159 149.165 26.2159ZM155.178 31.2727V19.2727H157.564V20.7386H157.672C157.778 20.5038 157.932 20.2652 158.132 20.0227C158.337 19.7765 158.602 19.572 158.928 19.4091C159.257 19.2424 159.666 19.1591 160.155 19.1591C160.791 19.1591 161.378 19.3258 161.916 19.6591C162.454 19.9886 162.884 20.4867 163.206 21.1534C163.528 21.8163 163.689 22.6477 163.689 23.6477C163.689 24.6212 163.532 25.4432 163.217 26.1136C162.907 26.7803 162.483 27.286 161.945 27.6307C161.411 27.9716 160.812 28.142 160.149 28.142C159.68 28.142 159.28 28.0644 158.95 27.9091C158.625 27.7538 158.358 27.5587 158.149 27.3239C157.941 27.0852 157.782 26.8447 157.672 26.6023H157.598V31.2727H155.178ZM157.547 23.6364C157.547 24.1553 157.619 24.608 157.763 24.9943C157.907 25.3807 158.115 25.6818 158.388 25.8977C158.661 26.1098 158.992 26.2159 159.382 26.2159C159.776 26.2159 160.11 26.108 160.382 25.892C160.655 25.6723 160.861 25.3693 161.002 24.983C161.146 24.5928 161.217 24.1439 161.217 23.6364C161.217 23.1326 161.147 22.6894 161.007 22.3068C160.867 21.9242 160.661 21.625 160.388 21.4091C160.115 21.1932 159.78 21.0852 159.382 21.0852C158.988 21.0852 158.655 21.1894 158.382 21.3977C158.113 21.6061 157.907 21.9015 157.763 22.2841C157.619 22.6667 157.547 23.1174 157.547 23.6364ZM169.07 28.1705C168.187 28.1705 167.424 27.983 166.78 27.608C166.14 27.2292 165.646 26.7027 165.297 26.0284C164.949 25.3504 164.774 24.5644 164.774 23.6705C164.774 22.7689 164.949 21.9811 165.297 21.3068C165.646 20.6288 166.14 20.1023 166.78 19.7273C167.424 19.3485 168.187 19.1591 169.07 19.1591C169.952 19.1591 170.714 19.3485 171.354 19.7273C171.998 20.1023 172.494 20.6288 172.843 21.3068C173.191 21.9811 173.365 22.7689 173.365 23.6705C173.365 24.5644 173.191 25.3504 172.843 26.0284C172.494 26.7027 171.998 27.2292 171.354 27.608C170.714 27.983 169.952 28.1705 169.07 28.1705ZM169.081 26.2955C169.483 26.2955 169.818 26.1818 170.087 25.9545C170.356 25.7235 170.559 25.4091 170.695 25.0114C170.835 24.6136 170.905 24.161 170.905 23.6534C170.905 23.1458 170.835 22.6932 170.695 22.2955C170.559 21.8977 170.356 21.5833 170.087 21.3523C169.818 21.1212 169.483 21.0057 169.081 21.0057C168.676 21.0057 168.335 21.1212 168.059 21.3523C167.786 21.5833 167.579 21.8977 167.439 22.2955C167.303 22.6932 167.235 23.1458 167.235 23.6534C167.235 24.161 167.303 24.6136 167.439 25.0114C167.579 25.4091 167.786 25.7235 168.059 25.9545C168.335 26.1818 168.676 26.2955 169.081 26.2955ZM174.763 28V19.2727H177.184V28H174.763ZM175.979 18.1477C175.619 18.1477 175.311 18.0284 175.053 17.7898C174.799 17.5473 174.672 17.2576 174.672 16.9205C174.672 16.5871 174.799 16.3011 175.053 16.0625C175.311 15.8201 175.619 15.6989 175.979 15.6989C176.339 15.6989 176.646 15.8201 176.9 16.0625C177.157 16.3011 177.286 16.5871 177.286 16.9205C177.286 17.2576 177.157 17.5473 176.9 17.7898C176.646 18.0284 176.339 18.1477 175.979 18.1477ZM181.367 22.9545V28H178.947V19.2727H181.253V20.8125H181.356C181.549 20.3049 181.873 19.9034 182.327 19.608C182.782 19.3087 183.333 19.1591 183.981 19.1591C184.587 19.1591 185.115 19.2917 185.566 19.5568C186.017 19.822 186.367 20.2008 186.617 20.6932C186.867 21.1818 186.992 21.7652 186.992 22.4432V28H184.572V22.875C184.575 22.3409 184.439 21.9242 184.163 21.625C183.886 21.322 183.505 21.1705 183.02 21.1705C182.695 21.1705 182.407 21.2405 182.157 21.3807C181.911 21.5208 181.717 21.7254 181.577 21.9943C181.441 22.2595 181.371 22.5795 181.367 22.9545ZM193.366 19.2727V21.0909H188.11V19.2727H193.366ZM189.303 17.1818H191.724V25.3182C191.724 25.5417 191.758 25.7159 191.826 25.8409C191.894 25.9621 191.989 26.0473 192.11 26.0966C192.235 26.1458 192.379 26.1705 192.542 26.1705C192.656 26.1705 192.769 26.161 192.883 26.142C192.996 26.1193 193.084 26.1023 193.144 26.0909L193.525 27.892C193.404 27.9299 193.233 27.9735 193.013 28.0227C192.794 28.0758 192.527 28.108 192.212 28.1193C191.629 28.142 191.118 28.0644 190.678 27.8864C190.243 27.7083 189.904 27.4318 189.661 27.0568C189.419 26.6818 189.299 26.2083 189.303 25.6364V17.1818ZM198.339 28V16.3636H202.93C203.813 16.3636 204.564 16.5322 205.186 16.8693C205.807 17.2027 206.28 17.6667 206.606 18.2614C206.936 18.8523 207.1 19.5341 207.1 20.3068C207.1 21.0795 206.934 21.7614 206.6 22.3523C206.267 22.9432 205.784 23.4034 205.152 23.733C204.523 24.0625 203.761 24.2273 202.867 24.2273H199.941V22.2557H202.47C202.943 22.2557 203.333 22.1742 203.64 22.0114C203.951 21.8447 204.182 21.6155 204.333 21.3239C204.489 21.0284 204.566 20.6894 204.566 20.3068C204.566 19.9205 204.489 19.5833 204.333 19.2955C204.182 19.0038 203.951 18.7784 203.64 18.6193C203.33 18.4564 202.936 18.375 202.458 18.375H200.799V28H198.339ZM212.28 28.1705C211.397 28.1705 210.634 27.983 209.99 27.608C209.35 27.2292 208.855 26.7027 208.507 26.0284C208.158 25.3504 207.984 24.5644 207.984 23.6705C207.984 22.7689 208.158 21.9811 208.507 21.3068C208.855 20.6288 209.35 20.1023 209.99 19.7273C210.634 19.3485 211.397 19.1591 212.28 19.1591C213.162 19.1591 213.923 19.3485 214.564 19.7273C215.208 20.1023 215.704 20.6288 216.052 21.3068C216.401 21.9811 216.575 22.7689 216.575 23.6705C216.575 24.5644 216.401 25.3504 216.052 26.0284C215.704 26.7027 215.208 27.2292 214.564 27.608C213.923 27.983 213.162 28.1705 212.28 28.1705ZM212.291 26.2955C212.692 26.2955 213.028 26.1818 213.297 25.9545C213.566 25.7235 213.768 25.4091 213.905 25.0114C214.045 24.6136 214.115 24.161 214.115 23.6534C214.115 23.1458 214.045 22.6932 213.905 22.2955C213.768 21.8977 213.566 21.5833 213.297 21.3523C213.028 21.1212 212.692 21.0057 212.291 21.0057C211.886 21.0057 211.545 21.1212 211.268 21.3523C210.995 21.5833 210.789 21.8977 210.649 22.2955C210.512 22.6932 210.444 23.1458 210.444 23.6534C210.444 24.161 210.512 24.6136 210.649 25.0114C210.789 25.4091 210.995 25.7235 211.268 25.9545C211.545 26.1818 211.886 26.2955 212.291 26.2955ZM221.916 28.1705C221.033 28.1705 220.27 27.983 219.626 27.608C218.986 27.2292 218.492 26.7027 218.143 26.0284C217.795 25.3504 217.621 24.5644 217.621 23.6705C217.621 22.7689 217.795 21.9811 218.143 21.3068C218.492 20.6288 218.986 20.1023 219.626 19.7273C220.27 19.3485 221.033 19.1591 221.916 19.1591C222.799 19.1591 223.56 19.3485 224.2 19.7273C224.844 20.1023 225.34 20.6288 225.689 21.3068C226.037 21.9811 226.211 22.7689 226.211 23.6705C226.211 24.5644 226.037 25.3504 225.689 26.0284C225.34 26.7027 224.844 27.2292 224.2 27.608C223.56 27.983 222.799 28.1705 221.916 28.1705ZM221.927 26.2955C222.329 26.2955 222.664 26.1818 222.933 25.9545C223.202 25.7235 223.405 25.4091 223.541 25.0114C223.681 24.6136 223.751 24.161 223.751 23.6534C223.751 23.1458 223.681 22.6932 223.541 22.2955C223.405 21.8977 223.202 21.5833 222.933 21.3523C222.664 21.1212 222.329 21.0057 221.927 21.0057C221.522 21.0057 221.181 21.1212 220.905 21.3523C220.632 21.5833 220.426 21.8977 220.285 22.2955C220.149 22.6932 220.081 23.1458 220.081 23.6534C220.081 24.161 220.149 24.6136 220.285 25.0114C220.426 25.4091 220.632 25.7235 220.905 25.9545C221.181 26.1818 221.522 26.2955 221.927 26.2955ZM230.03 16.3636V28H227.609V16.3636H230.03ZM240.36 16.3636V28H237.899V18.6989H237.831L235.166 20.3693V18.1875L238.047 16.3636H240.36Z" fill="#222222"/>
<rect x="108" y="38" width="151" height="222" fill="white" stroke="#0055DC" stroke-width="2"/>
<path d="M137.507 50.1982H134V68.2483H137.507V50.1982Z" fill="#0055DC"/>
<path d="M229 50.1982H225.493V68.2483H229V50.1982Z" fill="#0055DC"/>
<path d="M142.31 71.4645L142.311 74.8899L220.687 74.8858L220.687 71.4604L142.31 71.4645Z" fill="white" stroke="#0055DC" stroke-width="1.5" stroke-miterlimit="10"/>
<path d="M225.492 47H137.507V71.4616H225.492V47Z" fill="#C5EBF5" stroke="#0055DC" stroke-width="1.5" stroke-miterlimit="10"/>
<path d="M221.692 68.0123V50.4485L141.308 50.4485V68.0123H221.692Z" fill="white"/>
<path d="M147.832 55.4077H145.885V57.31H147.832V55.4077Z" fill="#0055DC"/>
<path d="M147.832 61.1333H145.885V63.0356H147.832V61.1333Z" fill="#0055DC"/>
<path d="M150.499 58.1167H148.551V60.019H150.499V58.1167Z" fill="#0055DC"/>
<path d="M152.869 55.4077H150.922V57.31H152.869V55.4077Z" fill="#0055DC"/>
<path d="M152.869 61.1333H150.922V63.0356H152.869V61.1333Z" fill="#0055DC"/>
<path d="M155.389 58.1167H153.441V60.019H155.389V58.1167Z" fill="#0055DC"/>
<path d="M158.369 55.4077H156.422V57.31H158.369V55.4077Z" fill="#0055DC"/>
<path d="M158.369 61.1333H156.422V63.0356H158.369V61.1333Z" fill="#0055DC"/>
<path d="M160.888 58.1167H158.941V60.019H160.888V58.1167Z" fill="#0055DC"/>
<path d="M163.953 55.4077H162.005V57.31H163.953V55.4077Z" fill="#0055DC"/>
<path d="M163.953 61.1333H162.005V63.0356H163.953V61.1333Z" fill="#0055DC"/>
<path d="M166.324 58.1167H164.376V60.019H166.324V58.1167Z" fill="#0055DC"/>
<path d="M168.99 55.4077H167.042V57.31H168.99V55.4077Z" fill="#0055DC"/>
<path d="M168.99 61.1333H167.042V63.0356H168.99V61.1333Z" fill="#0055DC"/>
<path d="M171.214 58.1167H169.266V60.019H171.214V58.1167Z" fill="#0055DC"/>
<path d="M174.029 55.4077H172.082V57.31H174.029V55.4077Z" fill="#0055DC"/>
<path d="M174.029 61.1333H172.082V63.0356H174.029V61.1333Z" fill="#0055DC"/>
<path d="M176.104 58.1167H174.157V60.019H176.104V58.1167Z" fill="#0055DC"/>
<path d="M215.306 61.5923C216.641 61.5923 217.724 60.5351 217.724 59.2309C217.724 57.9267 216.641 56.8694 215.306 56.8694C213.971 56.8694 212.888 57.9267 212.888 59.2309C212.888 60.5351 213.971 61.5923 215.306 61.5923Z" fill="#0055DC"/>
<path d="M208.354 59.2307H182.748" stroke="#0055DC" stroke-width="1.5" stroke-miterlimit="10"/>
<path d="M137.507 85.1982H134V103.248H137.507V85.1982Z" fill="#0055DC"/>
<path d="M229 85.1982H225.493V103.248H229V85.1982Z" fill="#0055DC"/>
<path d="M142.31 106.464L142.311 109.89L220.687 109.886L220.687 106.46L142.31 106.464Z" fill="white" stroke="#0055DC" stroke-width="1.5" stroke-miterlimit="10"/>
<path d="M225.492 82H137.507V106.462H225.492V82Z" fill="#C5EBF5" stroke="#0055DC" stroke-width="1.5" stroke-miterlimit="10"/>
<path d="M221.692 103.012V85.4485H141.308V103.012H221.692Z" fill="white"/>
<path d="M147.832 90.4078H145.885V92.3101H147.832V90.4078Z" fill="#0055DC"/>
<path d="M147.832 96.1334H145.885V98.0357H147.832V96.1334Z" fill="#0055DC"/>
<path d="M150.499 93.1167H148.551V95.019H150.499V93.1167Z" fill="#0055DC"/>
<path d="M152.869 90.4078H150.922V92.3101H152.869V90.4078Z" fill="#0055DC"/>
<path d="M152.869 96.1334H150.922V98.0357H152.869V96.1334Z" fill="#0055DC"/>
<path d="M155.389 93.1167H153.441V95.019H155.389V93.1167Z" fill="#0055DC"/>
<path d="M158.369 90.4078H156.422V92.3101H158.369V90.4078Z" fill="#0055DC"/>
<path d="M158.369 96.1334H156.422V98.0357H158.369V96.1334Z" fill="#0055DC"/>
<path d="M160.888 93.1167H158.941V95.019H160.888V93.1167Z" fill="#0055DC"/>
<path d="M163.953 90.4078H162.005V92.3101H163.953V90.4078Z" fill="#0055DC"/>
<path d="M163.953 96.1334H162.005V98.0357H163.953V96.1334Z" fill="#0055DC"/>
<path d="M166.324 93.1167H164.376V95.019H166.324V93.1167Z" fill="#0055DC"/>
<path d="M168.99 90.4078H167.042V92.3101H168.99V90.4078Z" fill="#0055DC"/>
<path d="M168.99 96.1334H167.042V98.0357H168.99V96.1334Z" fill="#0055DC"/>
<path d="M171.214 93.1167H169.266V95.019H171.214V93.1167Z" fill="#0055DC"/>
<path d="M174.029 90.4078H172.082V92.3101H174.029V90.4078Z" fill="#0055DC"/>
<path d="M174.029 96.1334H172.082V98.0357H174.029V96.1334Z" fill="#0055DC"/>
<path d="M176.104 93.1167H174.157V95.019H176.104V93.1167Z" fill="#0055DC"/>
<path d="M215.306 96.5923C216.641 96.5923 217.724 95.5351 217.724 94.2309C217.724 92.9267 216.641 91.8694 215.306 91.8694C213.971 91.8694 212.888 92.9267 212.888 94.2309C212.888 95.5351 213.971 96.5923 215.306 96.5923Z" fill="#0055DC"/>
<path d="M208.354 94.2306H182.748" stroke="#0055DC" stroke-width="1.5" stroke-miterlimit="10"/>
<path d="M137.507 120.313H134V139.01H137.507V120.313Z" fill="#0055DC"/>
<path d="M229 120.313H225.493V139.01H229V120.313Z" fill="#0055DC"/>
<path d="M142.31 142.342L142.311 145.89L220.687 145.886L220.687 142.337L142.31 142.342Z" fill="white" stroke="#0055DC" stroke-width="1.5" stroke-miterlimit="10"/>
<path d="M225.492 117H137.507V142.339H225.492V117Z" fill="#C5EBF5" stroke="#0055DC" stroke-width="1.5" stroke-miterlimit="10"/>
<path d="M221.692 138.766V120.572H141.308V138.766H221.692Z" fill="white"/>
<path d="M147.832 125.709H145.885V127.68H147.832V125.709Z" fill="#0055DC"/>
<path d="M147.832 131.64H145.885V133.611H147.832V131.64Z" fill="#0055DC"/>
<path d="M150.499 128.515H148.551V130.486H150.499V128.515Z" fill="#0055DC"/>
<path d="M152.869 125.709H150.922V127.68H152.869V125.709Z" fill="#0055DC"/>
<path d="M152.869 131.64H150.922V133.611H152.869V131.64Z" fill="#0055DC"/>
<path d="M155.389 128.515H153.441V130.486H155.389V128.515Z" fill="#0055DC"/>
<path d="M158.369 125.709H156.422V127.68H158.369V125.709Z" fill="#0055DC"/>
<path d="M158.369 131.64H156.422V133.611H158.369V131.64Z" fill="#0055DC"/>
<path d="M160.888 128.515H158.941V130.486H160.888V128.515Z" fill="#0055DC"/>
<path d="M163.953 125.709H162.005V127.68H163.953V125.709Z" fill="#0055DC"/>
<path d="M163.953 131.64H162.005V133.611H163.953V131.64Z" fill="#0055DC"/>
<path d="M166.324 128.515H164.376V130.486H166.324V128.515Z" fill="#0055DC"/>
<path d="M168.99 125.709H167.042V127.68H168.99V125.709Z" fill="#0055DC"/>
<path d="M168.99 131.64H167.042V133.611H168.99V131.64Z" fill="#0055DC"/>
<path d="M171.214 128.515H169.266V130.486H171.214V128.515Z" fill="#0055DC"/>
<path d="M174.029 125.709H172.082V127.68H174.029V125.709Z" fill="#0055DC"/>
<path d="M174.029 131.64H172.082V133.611H174.029V131.64Z" fill="#0055DC"/>
<path d="M176.104 128.515H174.157V130.486H176.104V128.515Z" fill="#0055DC"/>
<path d="M215.306 132.116C216.641 132.116 217.724 131.02 217.724 129.669C217.724 128.318 216.641 127.223 215.306 127.223C213.971 127.223 212.888 128.318 212.888 129.669C212.888 131.02 213.971 132.116 215.306 132.116Z" fill="#0055DC"/>
<path d="M208.354 129.669H182.748" stroke="#0055DC" stroke-width="1.5" stroke-miterlimit="10"/>
<path d="M137.507 156.198H134V174.248H137.507V156.198Z" fill="#0055DC"/>
<path d="M229 156.198H225.493V174.248H229V156.198Z" fill="#0055DC"/>
<path d="M142.31 177.464L142.311 180.89L220.687 180.886L220.687 177.46L142.31 177.464Z" fill="white" stroke="#0055DC" stroke-width="1.5" stroke-miterlimit="10"/>
<path d="M225.492 153H137.507V177.462H225.492V153Z" fill="#C5EBF5" stroke="#0055DC" stroke-width="1.5" stroke-miterlimit="10"/>
<path d="M221.692 174.012V156.448H141.308V174.012H221.692Z" fill="white"/>
<path d="M147.832 161.408H145.885V163.31H147.832V161.408Z" fill="#0055DC"/>
<path d="M147.832 167.133H145.885V169.036H147.832V167.133Z" fill="#0055DC"/>
<path d="M150.499 164.117H148.551V166.019H150.499V164.117Z" fill="#0055DC"/>
<path d="M152.869 161.408H150.922V163.31H152.869V161.408Z" fill="#0055DC"/>
<path d="M152.869 167.133H150.922V169.036H152.869V167.133Z" fill="#0055DC"/>
<path d="M155.389 164.117H153.441V166.019H155.389V164.117Z" fill="#0055DC"/>
<path d="M158.369 161.408H156.422V163.31H158.369V161.408Z" fill="#0055DC"/>
<path d="M158.369 167.133H156.422V169.036H158.369V167.133Z" fill="#0055DC"/>
<path d="M160.888 164.117H158.941V166.019H160.888V164.117Z" fill="#0055DC"/>
<path d="M163.953 161.408H162.005V163.31H163.953V161.408Z" fill="#0055DC"/>
<path d="M163.953 167.133H162.005V169.036H163.953V167.133Z" fill="#0055DC"/>
<path d="M166.324 164.117H164.376V166.019H166.324V164.117Z" fill="#0055DC"/>
<path d="M168.99 161.408H167.042V163.31H168.99V161.408Z" fill="#0055DC"/>
<path d="M168.99 167.133H167.042V169.036H168.99V167.133Z" fill="#0055DC"/>
<path d="M171.214 164.117H169.266V166.019H171.214V164.117Z" fill="#0055DC"/>
<path d="M174.029 161.408H172.082V163.31H174.029V161.408Z" fill="#0055DC"/>
<path d="M174.029 167.133H172.082V169.036H174.029V167.133Z" fill="#0055DC"/>
<path d="M176.104 164.117H174.157V166.019H176.104V164.117Z" fill="#0055DC"/>
<path d="M215.306 167.592C216.641 167.592 217.724 166.535 217.724 165.231C217.724 163.927 216.641 162.869 215.306 162.869C213.971 162.869 212.888 163.927 212.888 165.231C212.888 166.535 213.971 167.592 215.306 167.592Z" fill="#0055DC"/>
<path d="M208.354 165.231H182.748" stroke="#0055DC" stroke-width="1.5" stroke-miterlimit="10"/>
<path d="M137.507 191.198H134V209.248H137.507V191.198Z" fill="#0055DC"/>
<path d="M229 191.198H225.493V209.248H229V191.198Z" fill="#0055DC"/>
<path d="M142.31 212.464L142.311 215.89L220.687 215.886L220.687 212.46L142.31 212.464Z" fill="white" stroke="#0055DC" stroke-width="1.5" stroke-miterlimit="10"/>
<path d="M225.492 188H137.507V212.462H225.492V188Z" fill="#C5EBF5" stroke="#0055DC" stroke-width="1.5" stroke-miterlimit="10"/>
<path d="M221.692 209.012V191.448H141.308V209.012H221.692Z" fill="white"/>
<path d="M147.832 196.408H145.885V198.31H147.832V196.408Z" fill="#0055DC"/>
<path d="M147.832 202.133H145.885V204.036H147.832V202.133Z" fill="#0055DC"/>
<path d="M150.499 199.117H148.551V201.019H150.499V199.117Z" fill="#0055DC"/>
<path d="M152.869 196.408H150.922V198.31H152.869V196.408Z" fill="#0055DC"/>
<path d="M152.869 202.133H150.922V204.036H152.869V202.133Z" fill="#0055DC"/>
<path d="M155.389 199.117H153.441V201.019H155.389V199.117Z" fill="#0055DC"/>
<path d="M158.369 196.408H156.422V198.31H158.369V196.408Z" fill="#0055DC"/>
<path d="M158.369 202.133H156.422V204.036H158.369V202.133Z" fill="#0055DC"/>
<path d="M160.888 199.117H158.941V201.019H160.888V199.117Z" fill="#0055DC"/>
<path d="M163.953 196.408H162.005V198.31H163.953V196.408Z" fill="#0055DC"/>
<path d="M163.953 202.133H162.005V204.036H163.953V202.133Z" fill="#0055DC"/>
<path d="M166.324 199.117H164.376V201.019H166.324V199.117Z" fill="#0055DC"/>
<path d="M168.99 196.408H167.042V198.31H168.99V196.408Z" fill="#0055DC"/>
<path d="M168.99 202.133H167.042V204.036H168.99V202.133Z" fill="#0055DC"/>
<path d="M171.214 199.117H169.266V201.019H171.214V199.117Z" fill="#0055DC"/>
<path d="M174.029 196.408H172.082V198.31H174.029V196.408Z" fill="#0055DC"/>
<path d="M174.029 202.133H172.082V204.036H174.029V202.133Z" fill="#0055DC"/>
<path d="M176.104 199.117H174.157V201.019H176.104V199.117Z" fill="#0055DC"/>
<path d="M215.306 202.592C216.641 202.592 217.724 201.535 217.724 200.231C217.724 198.927 216.641 197.869 215.306 197.869C213.971 197.869 212.888 198.927 212.888 200.231C212.888 201.535 213.971 202.592 215.306 202.592Z" fill="#0055DC"/>
<path d="M208.354 200.231H182.748" stroke="#0055DC" stroke-width="1.5" stroke-miterlimit="10"/>
<path d="M137.507 226.198H134V244.248H137.507V226.198Z" fill="#0055DC"/>
<path d="M229 226.198H225.493V244.248H229V226.198Z" fill="#0055DC"/>
<path d="M142.31 247.464L142.311 250.89L220.687 250.886L220.687 247.46L142.31 247.464Z" fill="white" stroke="#0055DC" stroke-width="1.5" stroke-miterlimit="10"/>
<path d="M225.492 223H137.507V247.462H225.492V223Z" fill="#C5EBF5" stroke="#0055DC" stroke-width="1.5" stroke-miterlimit="10"/>
<path d="M221.692 244.012V226.448H141.308V244.012H221.692Z" fill="white"/>
<path d="M147.832 231.408H145.885V233.31H147.832V231.408Z" fill="#0055DC"/>
<path d="M147.832 237.133H145.885V239.036H147.832V237.133Z" fill="#0055DC"/>
<path d="M150.499 234.117H148.551V236.019H150.499V234.117Z" fill="#0055DC"/>
<path d="M152.869 231.408H150.922V233.31H152.869V231.408Z" fill="#0055DC"/>
<path d="M152.869 237.133H150.922V239.036H152.869V237.133Z" fill="#0055DC"/>
<path d="M155.389 234.117H153.441V236.019H155.389V234.117Z" fill="#0055DC"/>
<path d="M158.369 231.408H156.422V233.31H158.369V231.408Z" fill="#0055DC"/>
<path d="M158.369 237.133H156.422V239.036H158.369V237.133Z" fill="#0055DC"/>
<path d="M160.888 234.117H158.941V236.019H160.888V234.117Z" fill="#0055DC"/>
<path d="M163.953 231.408H162.005V233.31H163.953V231.408Z" fill="#0055DC"/>
<path d="M163.953 237.133H162.005V239.036H163.953V237.133Z" fill="#0055DC"/>
<path d="M166.324 234.117H164.376V236.019H166.324V234.117Z" fill="#0055DC"/>
<path d="M168.99 231.408H167.042V233.31H168.99V231.408Z" fill="#0055DC"/>
<path d="M168.99 237.133H167.042V239.036H168.99V237.133Z" fill="#0055DC"/>
<path d="M171.214 234.117H169.266V236.019H171.214V234.117Z" fill="#0055DC"/>
<path d="M174.029 231.408H172.082V233.31H174.029V231.408Z" fill="#0055DC"/>
<path d="M174.029 237.133H172.082V239.036H174.029V237.133Z" fill="#0055DC"/>
<path d="M176.104 234.117H174.157V236.019H176.104V234.117Z" fill="#0055DC"/>
<path d="M215.306 237.592C216.641 237.592 217.724 236.535 217.724 235.231C217.724 233.927 216.641 232.869 215.306 232.869C213.971 232.869 212.888 233.927 212.888 235.231C212.888 236.535 213.971 237.592 215.306 237.592Z" fill="#0055DC"/>
<path d="M208.354 235.231H182.748" stroke="#0055DC" stroke-width="1.5" stroke-miterlimit="10"/>
<path d="M300.704 28V16.3636H308.545V18.392H303.165V21.1648H308.142V23.1932H303.165V25.9716H308.568V28H300.704ZM312.7 22.9545V28H310.28V19.2727H312.587V20.8125H312.689C312.882 20.3049 313.206 19.9034 313.66 19.608C314.115 19.3087 314.666 19.1591 315.314 19.1591C315.92 19.1591 316.448 19.2917 316.899 19.5568C317.35 19.822 317.7 20.2008 317.95 20.6932C318.2 21.1818 318.325 21.7652 318.325 22.4432V28H315.905V22.875C315.909 22.3409 315.772 21.9242 315.496 21.625C315.219 21.322 314.838 21.1705 314.354 21.1705C314.028 21.1705 313.74 21.2405 313.49 21.3807C313.244 21.5208 313.051 21.7254 312.91 21.9943C312.774 22.2595 312.704 22.5795 312.7 22.9545ZM323.273 28.142C322.61 28.142 322.009 27.9716 321.472 27.6307C320.938 27.286 320.513 26.7803 320.199 26.1136C319.888 25.4432 319.733 24.6212 319.733 23.6477C319.733 22.6477 319.894 21.8163 320.216 21.1534C320.538 20.4867 320.966 19.9886 321.5 19.6591C322.038 19.3258 322.627 19.1591 323.267 19.1591C323.756 19.1591 324.163 19.2424 324.489 19.4091C324.818 19.572 325.083 19.7765 325.284 20.0227C325.489 20.2652 325.644 20.5038 325.75 20.7386H325.824V16.3636H328.239V28H325.852V26.6023H325.75C325.636 26.8447 325.475 27.0852 325.267 27.3239C325.063 27.5587 324.795 27.7538 324.466 27.9091C324.14 28.0644 323.742 28.142 323.273 28.142ZM324.04 26.2159C324.43 26.2159 324.759 26.1098 325.028 25.8977C325.301 25.6818 325.509 25.3807 325.653 24.9943C325.801 24.608 325.875 24.1553 325.875 23.6364C325.875 23.1174 325.803 22.6667 325.659 22.2841C325.515 21.9015 325.307 21.6061 325.034 21.3977C324.761 21.1894 324.43 21.0852 324.04 21.0852C323.642 21.0852 323.307 21.1932 323.034 21.4091C322.761 21.625 322.555 21.9242 322.415 22.3068C322.275 22.6894 322.205 23.1326 322.205 23.6364C322.205 24.1439 322.275 24.5928 322.415 24.983C322.559 25.3693 322.765 25.6723 323.034 25.892C323.307 26.108 323.642 26.2159 324.04 26.2159ZM330.053 31.2727V19.2727H332.439V20.7386H332.547C332.653 20.5038 332.807 20.2652 333.007 20.0227C333.212 19.7765 333.477 19.572 333.803 19.4091C334.132 19.2424 334.541 19.1591 335.03 19.1591C335.666 19.1591 336.253 19.3258 336.791 19.6591C337.329 19.9886 337.759 20.4867 338.081 21.1534C338.403 21.8163 338.564 22.6477 338.564 23.6477C338.564 24.6212 338.407 25.4432 338.092 26.1136C337.782 26.7803 337.358 27.286 336.82 27.6307C336.286 27.9716 335.687 28.142 335.024 28.142C334.555 28.142 334.155 28.0644 333.825 27.9091C333.5 27.7538 333.233 27.5587 333.024 27.3239C332.816 27.0852 332.657 26.8447 332.547 26.6023H332.473V31.2727H330.053ZM332.422 23.6364C332.422 24.1553 332.494 24.608 332.638 24.9943C332.782 25.3807 332.99 25.6818 333.263 25.8977C333.536 26.1098 333.867 26.2159 334.257 26.2159C334.651 26.2159 334.985 26.108 335.257 25.892C335.53 25.6723 335.736 25.3693 335.877 24.983C336.021 24.5928 336.092 24.1439 336.092 23.6364C336.092 23.1326 336.022 22.6894 335.882 22.3068C335.742 21.9242 335.536 21.625 335.263 21.4091C334.99 21.1932 334.655 21.0852 334.257 21.0852C333.863 21.0852 333.53 21.1894 333.257 21.3977C332.988 21.6061 332.782 21.9015 332.638 22.2841C332.494 22.6667 332.422 23.1174 332.422 23.6364ZM343.945 28.1705C343.062 28.1705 342.299 27.983 341.655 27.608C341.015 27.2292 340.521 26.7027 340.172 26.0284C339.824 25.3504 339.649 24.5644 339.649 23.6705C339.649 22.7689 339.824 21.9811 340.172 21.3068C340.521 20.6288 341.015 20.1023 341.655 19.7273C342.299 19.3485 343.062 19.1591 343.945 19.1591C344.827 19.1591 345.589 19.3485 346.229 19.7273C346.873 20.1023 347.369 20.6288 347.718 21.3068C348.066 21.9811 348.24 22.7689 348.24 23.6705C348.24 24.5644 348.066 25.3504 347.718 26.0284C347.369 26.7027 346.873 27.2292 346.229 27.608C345.589 27.983 344.827 28.1705 343.945 28.1705ZM343.956 26.2955C344.358 26.2955 344.693 26.1818 344.962 25.9545C345.231 25.7235 345.434 25.4091 345.57 25.0114C345.71 24.6136 345.78 24.161 345.78 23.6534C345.78 23.1458 345.71 22.6932 345.57 22.2955C345.434 21.8977 345.231 21.5833 344.962 21.3523C344.693 21.1212 344.358 21.0057 343.956 21.0057C343.551 21.0057 343.21 21.1212 342.934 21.3523C342.661 21.5833 342.454 21.8977 342.314 22.2955C342.178 22.6932 342.11 23.1458 342.11 23.6534C342.11 24.161 342.178 24.6136 342.314 25.0114C342.454 25.4091 342.661 25.7235 342.934 25.9545C343.21 26.1818 343.551 26.2955 343.956 26.2955ZM349.638 28V19.2727H352.059V28H349.638ZM350.854 18.1477C350.494 18.1477 350.186 18.0284 349.928 17.7898C349.674 17.5473 349.547 17.2576 349.547 16.9205C349.547 16.5871 349.674 16.3011 349.928 16.0625C350.186 15.8201 350.494 15.6989 350.854 15.6989C351.214 15.6989 351.521 15.8201 351.775 16.0625C352.032 16.3011 352.161 16.5871 352.161 16.9205C352.161 17.2576 352.032 17.5473 351.775 17.7898C351.521 18.0284 351.214 18.1477 350.854 18.1477ZM356.242 22.9545V28H353.822V19.2727H356.128V20.8125H356.231C356.424 20.3049 356.748 19.9034 357.202 19.608C357.657 19.3087 358.208 19.1591 358.856 19.1591C359.462 19.1591 359.99 19.2917 360.441 19.5568C360.892 19.822 361.242 20.2008 361.492 20.6932C361.742 21.1818 361.867 21.7652 361.867 22.4432V28H359.447V22.875C359.45 22.3409 359.314 21.9242 359.038 21.625C358.761 21.322 358.38 21.1705 357.895 21.1705C357.57 21.1705 357.282 21.2405 357.032 21.3807C356.786 21.5208 356.592 21.7254 356.452 21.9943C356.316 22.2595 356.246 22.5795 356.242 22.9545ZM368.241 19.2727V21.0909H362.985V19.2727H368.241ZM364.178 17.1818H366.599V25.3182C366.599 25.5417 366.633 25.7159 366.701 25.8409C366.769 25.9621 366.864 26.0473 366.985 26.0966C367.11 26.1458 367.254 26.1705 367.417 26.1705C367.531 26.1705 367.644 26.161 367.758 26.142C367.871 26.1193 367.959 26.1023 368.019 26.0909L368.4 27.892C368.279 27.9299 368.108 27.9735 367.888 28.0227C367.669 28.0758 367.402 28.108 367.087 28.1193C366.504 28.142 365.993 28.0644 365.553 27.8864C365.118 27.7083 364.779 27.4318 364.536 27.0568C364.294 26.6818 364.174 26.2083 364.178 25.6364V17.1818ZM373.214 28V16.3636H377.805C378.688 16.3636 379.439 16.5322 380.061 16.8693C380.682 17.2027 381.155 17.6667 381.481 18.2614C381.811 18.8523 381.975 19.5341 381.975 20.3068C381.975 21.0795 381.809 21.7614 381.475 22.3523C381.142 22.9432 380.659 23.4034 380.027 23.733C379.398 24.0625 378.636 24.2273 377.742 24.2273H374.816V22.2557H377.345C377.818 22.2557 378.208 22.1742 378.515 22.0114C378.826 21.8447 379.057 21.6155 379.208 21.3239C379.364 21.0284 379.441 20.6894 379.441 20.3068C379.441 19.9205 379.364 19.5833 379.208 19.2955C379.057 19.0038 378.826 18.7784 378.515 18.6193C378.205 18.4564 377.811 18.375 377.333 18.375H375.674V28H373.214ZM387.155 28.1705C386.272 28.1705 385.509 27.983 384.865 27.608C384.225 27.2292 383.73 26.7027 383.382 26.0284C383.033 25.3504 382.859 24.5644 382.859 23.6705C382.859 22.7689 383.033 21.9811 383.382 21.3068C383.73 20.6288 384.225 20.1023 384.865 19.7273C385.509 19.3485 386.272 19.1591 387.155 19.1591C388.037 19.1591 388.798 19.3485 389.439 19.7273C390.083 20.1023 390.579 20.6288 390.927 21.3068C391.276 21.9811 391.45 22.7689 391.45 23.6705C391.45 24.5644 391.276 25.3504 390.927 26.0284C390.579 26.7027 390.083 27.2292 389.439 27.608C388.798 27.983 388.037 28.1705 387.155 28.1705ZM387.166 26.2955C387.567 26.2955 387.903 26.1818 388.172 25.9545C388.441 25.7235 388.643 25.4091 388.78 25.0114C388.92 24.6136 388.99 24.161 388.99 23.6534C388.99 23.1458 388.92 22.6932 388.78 22.2955C388.643 21.8977 388.441 21.5833 388.172 21.3523C387.903 21.1212 387.567 21.0057 387.166 21.0057C386.761 21.0057 386.42 21.1212 386.143 21.3523C385.87 21.5833 385.664 21.8977 385.524 22.2955C385.387 22.6932 385.319 23.1458 385.319 23.6534C385.319 24.161 385.387 24.6136 385.524 25.0114C385.664 25.4091 385.87 25.7235 386.143 25.9545C386.42 26.1818 386.761 26.2955 387.166 26.2955ZM396.791 28.1705C395.908 28.1705 395.145 27.983 394.501 27.608C393.861 27.2292 393.367 26.7027 393.018 26.0284C392.67 25.3504 392.496 24.5644 392.496 23.6705C392.496 22.7689 392.67 21.9811 393.018 21.3068C393.367 20.6288 393.861 20.1023 394.501 19.7273C395.145 19.3485 395.908 19.1591 396.791 19.1591C397.674 19.1591 398.435 19.3485 399.075 19.7273C399.719 20.1023 400.215 20.6288 400.564 21.3068C400.912 21.9811 401.086 22.7689 401.086 23.6705C401.086 24.5644 400.912 25.3504 400.564 26.0284C400.215 26.7027 399.719 27.2292 399.075 27.608C398.435 27.983 397.674 28.1705 396.791 28.1705ZM396.802 26.2955C397.204 26.2955 397.539 26.1818 397.808 25.9545C398.077 25.7235 398.28 25.4091 398.416 25.0114C398.556 24.6136 398.626 24.161 398.626 23.6534C398.626 23.1458 398.556 22.6932 398.416 22.2955C398.28 21.8977 398.077 21.5833 397.808 21.3523C397.539 21.1212 397.204 21.0057 396.802 21.0057C396.397 21.0057 396.056 21.1212 395.78 21.3523C395.507 21.5833 395.301 21.8977 395.16 22.2955C395.024 22.6932 394.956 23.1458 394.956 23.6534C394.956 24.161 395.024 24.6136 395.16 25.0114C395.301 25.4091 395.507 25.7235 395.78 25.9545C396.056 26.1818 396.397 26.2955 396.802 26.2955ZM404.905 16.3636V28H402.484V16.3636H404.905ZM410.172 28V26.2273L414.314 22.392C414.666 22.0511 414.962 21.7443 415.201 21.4716C415.443 21.1989 415.627 20.9318 415.752 20.6705C415.877 20.4053 415.939 20.1193 415.939 19.8125C415.939 19.4716 415.862 19.178 415.706 18.9318C415.551 18.6818 415.339 18.4905 415.07 18.358C414.801 18.2216 414.496 18.1534 414.155 18.1534C413.799 18.1534 413.488 18.2254 413.223 18.3693C412.958 18.5133 412.754 18.7197 412.61 18.9886C412.466 19.2576 412.394 19.5777 412.394 19.9489H410.058C410.058 19.1875 410.231 18.5265 410.576 17.9659C410.92 17.4053 411.403 16.9716 412.024 16.6648C412.646 16.358 413.362 16.2045 414.172 16.2045C415.005 16.2045 415.731 16.3523 416.348 16.6477C416.969 16.9394 417.452 17.3447 417.797 17.8636C418.142 18.3826 418.314 18.9773 418.314 19.6477C418.314 20.0871 418.227 20.5208 418.053 20.9489C417.882 21.3769 417.577 21.8523 417.138 22.375C416.699 22.8939 416.079 23.517 415.28 24.2443L413.581 25.9091V25.9886H418.468V28H410.172Z" fill="#222222"/>
<rect x="284" y="38" width="151" height="222" fill="white" stroke="#0055DC" stroke-width="2"/>
<path d="M313.507 50.1982H310V68.2483H313.507V50.1982Z" fill="#0055DC"/>
<path d="M405 50.1982H401.493V68.2483H405V50.1982Z" fill="#0055DC"/>
<path d="M318.31 71.4645L318.311 74.8899L396.687 74.8858L396.687 71.4604L318.31 71.4645Z" fill="white" stroke="#0055DC" stroke-width="1.5" stroke-miterlimit="10"/>
<path d="M401.492 47H313.507V71.4616H401.492V47Z" fill="#C5EBF5" stroke="#0055DC" stroke-width="1.5" stroke-miterlimit="10"/>
<path d="M397.692 68.0123V50.4485L317.308 50.4485V68.0123H397.692Z" fill="white"/>
<path d="M323.832 55.4077H321.885V57.31H323.832V55.4077Z" fill="#0055DC"/>
<path d="M323.832 61.1333H321.885V63.0356H323.832V61.1333Z" fill="#0055DC"/>
<path d="M326.499 58.1167H324.551V60.019H326.499V58.1167Z" fill="#0055DC"/>
<path d="M328.869 55.4077H326.922V57.31H328.869V55.4077Z" fill="#0055DC"/>
<path d="M328.869 61.1333H326.922V63.0356H328.869V61.1333Z" fill="#0055DC"/>
<path d="M331.389 58.1167H329.441V60.019H331.389V58.1167Z" fill="#0055DC"/>
<path d="M334.369 55.4077H332.422V57.31H334.369V55.4077Z" fill="#0055DC"/>
<path d="M334.369 61.1333H332.422V63.0356H334.369V61.1333Z" fill="#0055DC"/>
<path d="M336.888 58.1167H334.941V60.019H336.888V58.1167Z" fill="#0055DC"/>
<path d="M339.953 55.4077H338.005V57.31H339.953V55.4077Z" fill="#0055DC"/>
<path d="M339.953 61.1333H338.005V63.0356H339.953V61.1333Z" fill="#0055DC"/>
<path d="M342.324 58.1167H340.376V60.019H342.324V58.1167Z" fill="#0055DC"/>
<path d="M344.99 55.4077H343.042V57.31H344.99V55.4077Z" fill="#0055DC"/>
<path d="M344.99 61.1333H343.042V63.0356H344.99V61.1333Z" fill="#0055DC"/>
<path d="M347.214 58.1167H345.266V60.019H347.214V58.1167Z" fill="#0055DC"/>
<path d="M350.029 55.4077H348.082V57.31H350.029V55.4077Z" fill="#0055DC"/>
<path d="M350.029 61.1333H348.082V63.0356H350.029V61.1333Z" fill="#0055DC"/>
<path d="M352.104 58.1167H350.157V60.019H352.104V58.1167Z" fill="#0055DC"/>
<path d="M391.306 61.5923C392.641 61.5923 393.724 60.5351 393.724 59.2309C393.724 57.9267 392.641 56.8694 391.306 56.8694C389.971 56.8694 388.888 57.9267 388.888 59.2309C388.888 60.5351 389.971 61.5923 391.306 61.5923Z" fill="#0055DC"/>
<path d="M384.354 59.2307H358.748" stroke="#0055DC" stroke-width="1.5" stroke-miterlimit="10"/>
<path d="M313.507 85.1982H310V103.248H313.507V85.1982Z" fill="#0055DC"/>
<path d="M405 85.1982H401.493V103.248H405V85.1982Z" fill="#0055DC"/>
<path d="M318.31 106.464L318.311 109.89L396.687 109.886L396.687 106.46L318.31 106.464Z" fill="white" stroke="#0055DC" stroke-width="1.5" stroke-miterlimit="10"/>
<path d="M401.492 82H313.507V106.462H401.492V82Z" fill="#C5EBF5" stroke="#0055DC" stroke-width="1.5" stroke-miterlimit="10"/>
<path d="M397.692 103.012V85.4485H317.308V103.012H397.692Z" fill="white"/>
<path d="M323.832 90.4078H321.885V92.3101H323.832V90.4078Z" fill="#0055DC"/>
<path d="M323.832 96.1334H321.885V98.0357H323.832V96.1334Z" fill="#0055DC"/>
<path d="M326.499 93.1167H324.551V95.019H326.499V93.1167Z" fill="#0055DC"/>
<path d="M328.869 90.4078H326.922V92.3101H328.869V90.4078Z" fill="#0055DC"/>
<path d="M328.869 96.1334H326.922V98.0357H328.869V96.1334Z" fill="#0055DC"/>
<path d="M331.389 93.1167H329.441V95.019H331.389V93.1167Z" fill="#0055DC"/>
<path d="M334.369 90.4078H332.422V92.3101H334.369V90.4078Z" fill="#0055DC"/>
<path d="M334.369 96.1334H332.422V98.0357H334.369V96.1334Z" fill="#0055DC"/>
<path d="M336.888 93.1167H334.941V95.019H336.888V93.1167Z" fill="#0055DC"/>
<path d="M339.953 90.4078H338.005V92.3101H339.953V90.4078Z" fill="#0055DC"/>
<path d="M339.953 96.1334H338.005V98.0357H339.953V96.1334Z" fill="#0055DC"/>
<path d="M342.324 93.1167H340.376V95.019H342.324V93.1167Z" fill="#0055DC"/>
<path d="M344.99 90.4078H343.042V92.3101H344.99V90.4078Z" fill="#0055DC"/>
<path d="M344.99 96.1334H343.042V98.0357H344.99V96.1334Z" fill="#0055DC"/>
<path d="M347.214 93.1167H345.266V95.019H347.214V93.1167Z" fill="#0055DC"/>
<path d="M350.029 90.4078H348.082V92.3101H350.029V90.4078Z" fill="#0055DC"/>
<path d="M350.029 96.1334H348.082V98.0357H350.029V96.1334Z" fill="#0055DC"/>
<path d="M352.104 93.1167H350.157V95.019H352.104V93.1167Z" fill="#0055DC"/>
<path d="M391.306 96.5923C392.641 96.5923 393.724 95.5351 393.724 94.2309C393.724 92.9267 392.641 91.8694 391.306 91.8694C389.971 91.8694 388.888 92.9267 388.888 94.2309C388.888 95.5351 389.971 96.5923 391.306 96.5923Z" fill="#0055DC"/>
<path d="M384.354 94.2306H358.748" stroke="#0055DC" stroke-width="1.5" stroke-miterlimit="10"/>
<path d="M313.507 120.313H310V139.01H313.507V120.313Z" fill="#0055DC"/>
<path d="M405 120.313H401.493V139.01H405V120.313Z" fill="#0055DC"/>
<path d="M318.31 142.342L318.311 145.89L396.687 145.886L396.687 142.337L318.31 142.342Z" fill="white" stroke="#0055DC" stroke-width="1.5" stroke-miterlimit="10"/>
<path d="M401.492 117H313.507V142.339H401.492V117Z" fill="#C5EBF5" stroke="#0055DC" stroke-width="1.5" stroke-miterlimit="10"/>
<path d="M397.692 138.766V120.572H317.308V138.766H397.692Z" fill="white"/>
<path d="M323.832 125.709H321.885V127.68H323.832V125.709Z" fill="#0055DC"/>
<path d="M323.832 131.64H321.885V133.611H323.832V131.64Z" fill="#0055DC"/>
<path d="M326.499 128.515H324.551V130.486H326.499V128.515Z" fill="#0055DC"/>
<path d="M328.869 125.709H326.922V127.68H328.869V125.709Z" fill="#0055DC"/>
<path d="M328.869 131.64H326.922V133.611H328.869V131.64Z" fill="#0055DC"/>
<path d="M331.389 128.515H329.441V130.486H331.389V128.515Z" fill="#0055DC"/>
<path d="M334.369 125.709H332.422V127.68H334.369V125.709Z" fill="#0055DC"/>
<path d="M334.369 131.64H332.422V133.611H334.369V131.64Z" fill="#0055DC"/>
<path d="M336.888 128.515H334.941V130.486H336.888V128.515Z" fill="#0055DC"/>
<path d="M339.953 125.709H338.005V127.68H339.953V125.709Z" fill="#0055DC"/>
<path d="M339.953 131.64H338.005V133.611H339.953V131.64Z" fill="#0055DC"/>
<path d="M342.324 128.515H340.376V130.486H342.324V128.515Z" fill="#0055DC"/>
<path d="M344.99 125.709H343.042V127.68H344.99V125.709Z" fill="#0055DC"/>
<path d="M344.99 131.64H343.042V133.611H344.99V131.64Z" fill="#0055DC"/>
<path d="M347.214 128.515H345.266V130.486H347.214V128.515Z" fill="#0055DC"/>
<path d="M350.029 125.709H348.082V127.68H350.029V125.709Z" fill="#0055DC"/>
<path d="M350.029 131.64H348.082V133.611H350.029V131.64Z" fill="#0055DC"/>
<path d="M352.104 128.515H350.157V130.486H352.104V128.515Z" fill="#0055DC"/>
<path d="M391.306 132.116C392.641 132.116 393.724 131.02 393.724 129.669C393.724 128.318 392.641 127.223 391.306 127.223C389.971 127.223 388.888 128.318 388.888 129.669C388.888 131.02 389.971 132.116 391.306 132.116Z" fill="#0055DC"/>
<path d="M384.354 129.669H358.748" stroke="#0055DC" stroke-width="1.5" stroke-miterlimit="10"/>
<path d="M313.507 156.198H310V174.248H313.507V156.198Z" fill="#0055DC"/>
<path d="M405 156.198H401.493V174.248H405V156.198Z" fill="#0055DC"/>
<path d="M318.31 177.464L318.311 180.89L396.687 180.886L396.687 177.46L318.31 177.464Z" fill="white" stroke="#0055DC" stroke-width="1.5" stroke-miterlimit="10"/>
<path d="M401.492 153H313.507V177.462H401.492V153Z" fill="#C5EBF5" stroke="#0055DC" stroke-width="1.5" stroke-miterlimit="10"/>
<path d="M397.692 174.012V156.448H317.308V174.012H397.692Z" fill="white"/>
<path d="M323.832 161.408H321.885V163.31H323.832V161.408Z" fill="#0055DC"/>
<path d="M323.832 167.133H321.885V169.036H323.832V167.133Z" fill="#0055DC"/>
<path d="M326.499 164.117H324.551V166.019H326.499V164.117Z" fill="#0055DC"/>
<path d="M328.869 161.408H326.922V163.31H328.869V161.408Z" fill="#0055DC"/>
<path d="M328.869 167.133H326.922V169.036H328.869V167.133Z" fill="#0055DC"/>
<path d="M331.389 164.117H329.441V166.019H331.389V164.117Z" fill="#0055DC"/>
<path d="M334.369 161.408H332.422V163.31H334.369V161.408Z" fill="#0055DC"/>
<path d="M334.369 167.133H332.422V169.036H334.369V167.133Z" fill="#0055DC"/>
<path d="M336.888 164.117H334.941V166.019H336.888V164.117Z" fill="#0055DC"/>
<path d="M339.953 161.408H338.005V163.31H339.953V161.408Z" fill="#0055DC"/>
<path d="M339.953 167.133H338.005V169.036H339.953V167.133Z" fill="#0055DC"/>
<path d="M342.324 164.117H340.376V166.019H342.324V164.117Z" fill="#0055DC"/>
<path d="M344.99 161.408H343.042V163.31H344.99V161.408Z" fill="#0055DC"/>
<path d="M344.99 167.133H343.042V169.036H344.99V167.133Z" fill="#0055DC"/>
<path d="M347.214 164.117H345.266V166.019H347.214V164.117Z" fill="#0055DC"/>
<path d="M350.029 161.408H348.082V163.31H350.029V161.408Z" fill="#0055DC"/>
<path d="M350.029 167.133H348.082V169.036H350.029V167.133Z" fill="#0055DC"/>
<path d="M352.104 164.117H350.157V166.019H352.104V164.117Z" fill="#0055DC"/>
<path d="M391.306 167.592C392.641 167.592 393.724 166.535 393.724 165.231C393.724 163.927 392.641 162.869 391.306 162.869C389.971 162.869 388.888 163.927 388.888 165.231C388.888 166.535 389.971 167.592 391.306 167.592Z" fill="#0055DC"/>
<path d="M384.354 165.231H358.748" stroke="#0055DC" stroke-width="1.5" stroke-miterlimit="10"/>
<path d="M313.507 191.198H310V209.248H313.507V191.198Z" fill="#0055DC"/>
<path d="M405 191.198H401.493V209.248H405V191.198Z" fill="#0055DC"/>
<path d="M318.31 212.464L318.311 215.89L396.687 215.886L396.687 212.46L318.31 212.464Z" fill="white" stroke="#0055DC" stroke-width="1.5" stroke-miterlimit="10"/>
<path d="M401.492 188H313.507V212.462H401.492V188Z" fill="#C5EBF5" stroke="#0055DC" stroke-width="1.5" stroke-miterlimit="10"/>
<path d="M397.692 209.012V191.448H317.308V209.012H397.692Z" fill="white"/>
<path d="M323.832 196.408H321.885V198.31H323.832V196.408Z" fill="#0055DC"/>
<path d="M323.832 202.133H321.885V204.036H323.832V202.133Z" fill="#0055DC"/>
<path d="M326.499 199.117H324.551V201.019H326.499V199.117Z" fill="#0055DC"/>
<path d="M328.869 196.408H326.922V198.31H328.869V196.408Z" fill="#0055DC"/>
<path d="M328.869 202.133H326.922V204.036H328.869V202.133Z" fill="#0055DC"/>
<path d="M331.389 199.117H329.441V201.019H331.389V199.117Z" fill="#0055DC"/>
<path d="M334.369 196.408H332.422V198.31H334.369V196.408Z" fill="#0055DC"/>
<path d="M334.369 202.133H332.422V204.036H334.369V202.133Z" fill="#0055DC"/>
<path d="M336.888 199.117H334.941V201.019H336.888V199.117Z" fill="#0055DC"/>
<path d="M339.953 196.408H338.005V198.31H339.953V196.408Z" fill="#0055DC"/>
<path d="M339.953 202.133H338.005V204.036H339.953V202.133Z" fill="#0055DC"/>
<path d="M342.324 199.117H340.376V201.019H342.324V199.117Z" fill="#0055DC"/>
<path d="M344.99 196.408H343.042V198.31H344.99V196.408Z" fill="#0055DC"/>
<path d="M344.99 202.133H343.042V204.036H344.99V202.133Z" fill="#0055DC"/>
<path d="M347.214 199.117H345.266V201.019H347.214V199.117Z" fill="#0055DC"/>
<path d="M350.029 196.408H348.082V198.31H350.029V196.408Z" fill="#0055DC"/>
<path d="M350.029 202.133H348.082V204.036H350.029V202.133Z" fill="#0055DC"/>
<path d="M352.104 199.117H350.157V201.019H352.104V199.117Z" fill="#0055DC"/>
<path d="M391.306 202.592C392.641 202.592 393.724 201.535 393.724 200.231C393.724 198.927 392.641 197.869 391.306 197.869C389.971 197.869 388.888 198.927 388.888 200.231C388.888 201.535 389.971 202.592 391.306 202.592Z" fill="#0055DC"/>
<path d="M384.354 200.231H358.748" stroke="#0055DC" stroke-width="1.5" stroke-miterlimit="10"/>
<path d="M313.507 226.198H310V244.248H313.507V226.198Z" fill="#0055DC"/>
<path d="M405 226.198H401.493V244.248H405V226.198Z" fill="#0055DC"/>
<path d="M318.31 247.464L318.311 250.89L396.687 250.886L396.687 247.46L318.31 247.464Z" fill="white" stroke="#0055DC" stroke-width="1.5" stroke-miterlimit="10"/>
<path d="M401.492 223H313.507V247.462H401.492V223Z" fill="#C5EBF5" stroke="#0055DC" stroke-width="1.5" stroke-miterlimit="10"/>
<path d="M397.692 244.012V226.448H317.308V244.012H397.692Z" fill="white"/>
<path d="M323.832 231.408H321.885V233.31H323.832V231.408Z" fill="#0055DC"/>
<path d="M323.832 237.133H321.885V239.036H323.832V237.133Z" fill="#0055DC"/>
<path d="M326.499 234.117H324.551V236.019H326.499V234.117Z" fill="#0055DC"/>
<path d="M328.869 231.408H326.922V233.31H328.869V231.408Z" fill="#0055DC"/>
<path d="M328.869 237.133H326.922V239.036H328.869V237.133Z" fill="#0055DC"/>
<path d="M331.389 234.117H329.441V236.019H331.389V234.117Z" fill="#0055DC"/>
<path d="M334.369 231.408H332.422V233.31H334.369V231.408Z" fill="#0055DC"/>
<path d="M334.369 237.133H332.422V239.036H334.369V237.133Z" fill="#0055DC"/>
<path d="M336.888 234.117H334.941V236.019H336.888V234.117Z" fill="#0055DC"/>
<path d="M339.953 231.408H338.005V233.31H339.953V231.408Z" fill="#0055DC"/>
<path d="M339.953 237.133H338.005V239.036H339.953V237.133Z" fill="#0055DC"/>
<path d="M342.324 234.117H340.376V236.019H342.324V234.117Z" fill="#0055DC"/>
<path d="M344.99 231.408H343.042V233.31H344.99V231.408Z" fill="#0055DC"/>
<path d="M344.99 237.133H343.042V239.036H344.99V237.133Z" fill="#0055DC"/>
<path d="M347.214 234.117H345.266V236.019H347.214V234.117Z" fill="#0055DC"/>
<path d="M350.029 231.408H348.082V233.31H350.029V231.408Z" fill="#0055DC"/>
<path d="M350.029 237.133H348.082V239.036H350.029V237.133Z" fill="#0055DC"/>
<path d="M352.104 234.117H350.157V236.019H352.104V234.117Z" fill="#0055DC"/>
<path d="M391.306 237.592C392.641 237.592 393.724 236.535 393.724 235.231C393.724 233.927 392.641 232.869 391.306 232.869C389.971 232.869 388.888 233.927 388.888 235.231C388.888 236.535 389.971 237.592 391.306 237.592Z" fill="#0055DC"/>
<path d="M384.354 235.231H358.748" stroke="#0055DC" stroke-width="1.5" stroke-miterlimit="10"/>
<path d="M47.5033 284L44.1738 272.364H46.8613L48.7874 280.449H48.884L51.009 272.364H53.3101L55.4294 280.466H55.5317L57.4579 272.364H60.1454L56.8158 284H54.4181L52.2022 276.392H52.1113L49.901 284H47.5033ZM64.2804 284.17C63.3827 284.17 62.61 283.989 61.9622 283.625C61.3183 283.258 60.8221 282.739 60.4736 282.068C60.1251 281.394 59.9509 280.597 59.9509 279.676C59.9509 278.778 60.1251 277.991 60.4736 277.312C60.8221 276.634 61.3126 276.106 61.9452 275.727C62.5816 275.348 63.3278 275.159 64.1838 275.159C64.7596 275.159 65.2956 275.252 65.7918 275.438C66.2918 275.619 66.7274 275.894 67.0986 276.261C67.4736 276.629 67.7653 277.091 67.9736 277.648C68.1819 278.201 68.2861 278.848 68.2861 279.591V280.256H60.9168V278.756H66.0077C66.0077 278.407 65.9319 278.098 65.7804 277.83C65.6289 277.561 65.4187 277.35 65.1497 277.199C64.8846 277.044 64.5759 276.966 64.2236 276.966C63.8562 276.966 63.5304 277.051 63.2463 277.222C62.966 277.388 62.7463 277.614 62.5872 277.898C62.4282 278.178 62.3467 278.491 62.3429 278.835V280.261C62.3429 280.693 62.4225 281.066 62.5816 281.381C62.7444 281.695 62.9736 281.938 63.2691 282.108C63.5645 282.278 63.9149 282.364 64.3202 282.364C64.5891 282.364 64.8354 282.326 65.0588 282.25C65.2823 282.174 65.4736 282.061 65.6327 281.909C65.7918 281.758 65.913 281.572 65.9963 281.352L68.235 281.5C68.1213 282.038 67.8884 282.508 67.5361 282.909C67.1876 283.307 66.7369 283.617 66.1838 283.841C65.6346 284.061 65.0001 284.17 64.2804 284.17ZM69.6897 284V275.273H72.1101V284H69.6897ZM70.9056 274.148C70.5457 274.148 70.237 274.028 69.9794 273.79C69.7256 273.547 69.5987 273.258 69.5987 272.92C69.5987 272.587 69.7256 272.301 69.9794 272.062C70.237 271.82 70.5457 271.699 70.9056 271.699C71.2654 271.699 71.5722 271.82 71.826 272.062C72.0836 272.301 72.2124 272.587 72.2124 272.92C72.2124 273.258 72.0836 273.547 71.826 273.79C71.5722 274.028 71.2654 274.148 70.9056 274.148ZM77.8048 287.455C77.0208 287.455 76.3484 287.347 75.7878 287.131C75.231 286.919 74.7878 286.629 74.4583 286.261C74.1287 285.894 73.9147 285.481 73.8162 285.023L76.0548 284.722C76.123 284.896 76.231 285.059 76.3787 285.21C76.5264 285.362 76.7215 285.483 76.9639 285.574C77.2102 285.669 77.5094 285.716 77.8617 285.716C78.3882 285.716 78.8219 285.587 79.1628 285.33C79.5075 285.076 79.6798 284.65 79.6798 284.051V282.455H79.5776C79.4715 282.697 79.3124 282.926 79.1003 283.142C78.8882 283.358 78.6155 283.534 78.2821 283.67C77.9488 283.807 77.5511 283.875 77.0889 283.875C76.4336 283.875 75.837 283.723 75.2992 283.42C74.7651 283.114 74.3389 282.646 74.0208 282.017C73.7064 281.384 73.5492 280.585 73.5492 279.619C73.5492 278.631 73.7102 277.805 74.0321 277.142C74.3541 276.479 74.7821 275.983 75.3162 275.653C75.8541 275.324 76.4431 275.159 77.0833 275.159C77.5719 275.159 77.981 275.242 78.3105 275.409C78.6401 275.572 78.9052 275.777 79.106 276.023C79.3105 276.265 79.4677 276.504 79.5776 276.739H79.6685V275.273H82.0719V284.085C82.0719 284.828 81.8901 285.449 81.5264 285.949C81.1628 286.449 80.659 286.824 80.0151 287.074C79.3749 287.328 78.6382 287.455 77.8048 287.455ZM77.856 282.057C78.2461 282.057 78.5757 281.96 78.8446 281.767C79.1173 281.57 79.3257 281.29 79.4696 280.926C79.6173 280.559 79.6912 280.119 79.6912 279.608C79.6912 279.097 79.6192 278.653 79.4753 278.278C79.3314 277.9 79.123 277.606 78.8503 277.398C78.5776 277.189 78.2461 277.085 77.856 277.085C77.4583 277.085 77.123 277.193 76.8503 277.409C76.5776 277.621 76.3711 277.917 76.231 278.295C76.0908 278.674 76.0208 279.112 76.0208 279.608C76.0208 280.112 76.0908 280.547 76.231 280.915C76.3749 281.278 76.5814 281.561 76.8503 281.761C77.123 281.958 77.4583 282.057 77.856 282.057ZM86.2425 278.955V284H83.822V272.364H86.1743V276.812H86.2766C86.4735 276.297 86.7917 275.894 87.2311 275.602C87.6705 275.307 88.2217 275.159 88.8845 275.159C89.4906 275.159 90.019 275.292 90.4698 275.557C90.9243 275.818 91.2766 276.195 91.5266 276.688C91.7804 277.176 91.9054 277.761 91.9016 278.443V284H89.4811V278.875C89.4849 278.337 89.3485 277.919 89.072 277.619C88.7993 277.32 88.4167 277.17 87.9243 277.17C87.5948 277.17 87.3031 277.241 87.0493 277.381C86.7993 277.521 86.6023 277.725 86.4584 277.994C86.3182 278.259 86.2463 278.58 86.2425 278.955ZM98.2725 275.273V277.091H93.0168V275.273H98.2725ZM94.21 273.182H96.6304V281.318C96.6304 281.542 96.6645 281.716 96.7327 281.841C96.8009 281.962 96.8956 282.047 97.0168 282.097C97.1418 282.146 97.2857 282.17 97.4486 282.17C97.5622 282.17 97.6759 282.161 97.7895 282.142C97.9031 282.119 97.9903 282.102 98.0509 282.091L98.4315 283.892C98.3103 283.93 98.1399 283.973 97.9202 284.023C97.7005 284.076 97.4334 284.108 97.119 284.119C96.5357 284.142 96.0243 284.064 95.585 283.886C95.1493 283.708 94.8103 283.432 94.5679 283.057C94.3255 282.682 94.2062 282.208 94.21 281.636V273.182ZM101.088 284.148C100.713 284.148 100.391 284.015 100.122 283.75C99.8569 283.481 99.7243 283.159 99.7243 282.784C99.7243 282.413 99.8569 282.095 100.122 281.83C100.391 281.564 100.713 281.432 101.088 281.432C101.452 281.432 101.77 281.564 102.042 281.83C102.315 282.095 102.452 282.413 102.452 282.784C102.452 283.034 102.387 283.263 102.258 283.472C102.133 283.676 101.969 283.841 101.764 283.966C101.56 284.087 101.334 284.148 101.088 284.148ZM101.088 278.034C100.713 278.034 100.391 277.902 100.122 277.636C99.8569 277.371 99.7243 277.049 99.7243 276.67C99.7243 276.299 99.8569 275.983 100.122 275.722C100.391 275.456 100.713 275.324 101.088 275.324C101.452 275.324 101.77 275.456 102.042 275.722C102.315 275.983 102.452 276.299 102.452 276.67C102.452 276.924 102.387 277.155 102.258 277.364C102.133 277.568 101.969 277.731 101.764 277.852C101.56 277.973 101.334 278.034 101.088 278.034ZM20.5724 308V296.364H25.1633C26.0458 296.364 26.7977 296.532 27.419 296.869C28.0402 297.203 28.5136 297.667 28.8394 298.261C29.169 298.852 29.3337 299.534 29.3337 300.307C29.3337 301.08 29.1671 301.761 28.8337 302.352C28.5004 302.943 28.0174 303.403 27.3849 303.733C26.7561 304.062 25.9947 304.227 25.1008 304.227H22.1746V302.256H24.703C25.1765 302.256 25.5667 302.174 25.8735 302.011C26.1841 301.845 26.4152 301.616 26.5667 301.324C26.722 301.028 26.7996 300.689 26.7996 300.307C26.7996 299.92 26.722 299.583 26.5667 299.295C26.4152 299.004 26.1841 298.778 25.8735 298.619C25.5629 298.456 25.169 298.375 24.6917 298.375H23.0326V308H20.5724ZM30.7103 308V299.273H33.0569V300.795H33.1478C33.3069 300.254 33.5739 299.845 33.9489 299.568C34.3239 299.288 34.7557 299.148 35.2444 299.148C35.3656 299.148 35.4963 299.155 35.6364 299.17C35.7766 299.186 35.8997 299.206 36.0057 299.233V301.381C35.8921 301.347 35.7349 301.316 35.5341 301.29C35.3334 301.263 35.1497 301.25 34.983 301.25C34.6269 301.25 34.3088 301.328 34.0285 301.483C33.7519 301.634 33.5323 301.847 33.3694 302.119C33.2103 302.392 33.1307 302.706 33.1307 303.062V308H30.7103ZM40.6181 308.17C39.7355 308.17 38.9723 307.983 38.3283 307.608C37.6882 307.229 37.1938 306.703 36.8454 306.028C36.4969 305.35 36.3226 304.564 36.3226 303.67C36.3226 302.769 36.4969 301.981 36.8454 301.307C37.1938 300.629 37.6882 300.102 38.3283 299.727C38.9723 299.348 39.7355 299.159 40.6181 299.159C41.5007 299.159 42.262 299.348 42.9022 299.727C43.5461 300.102 44.0423 300.629 44.3908 301.307C44.7393 301.981 44.9135 302.769 44.9135 303.67C44.9135 304.564 44.7393 305.35 44.3908 306.028C44.0423 306.703 43.5461 307.229 42.9022 307.608C42.262 307.983 41.5007 308.17 40.6181 308.17ZM40.6295 306.295C41.031 306.295 41.3662 306.182 41.6351 305.955C41.9041 305.723 42.1067 305.409 42.2431 305.011C42.3832 304.614 42.4533 304.161 42.4533 303.653C42.4533 303.146 42.3832 302.693 42.2431 302.295C42.1067 301.898 41.9041 301.583 41.6351 301.352C41.3662 301.121 41.031 301.006 40.6295 301.006C40.2242 301.006 39.8832 301.121 39.6067 301.352C39.334 301.583 39.1276 301.898 38.9874 302.295C38.851 302.693 38.7829 303.146 38.7829 303.653C38.7829 304.161 38.851 304.614 38.9874 305.011C39.1276 305.409 39.334 305.723 39.6067 305.955C39.8832 306.182 40.2242 306.295 40.6295 306.295ZM46.3569 308V296.364H48.7773V300.739H48.8512C48.9572 300.504 49.1106 300.265 49.3114 300.023C49.516 299.777 49.7811 299.572 50.1069 299.409C50.4364 299.242 50.8455 299.159 51.3341 299.159C51.9705 299.159 52.5576 299.326 53.0955 299.659C53.6334 299.989 54.0633 300.487 54.3853 301.153C54.7072 301.816 54.8682 302.648 54.8682 303.648C54.8682 304.621 54.711 305.443 54.3966 306.114C54.086 306.78 53.6618 307.286 53.1239 307.631C52.5898 307.972 51.9913 308.142 51.3285 308.142C50.8588 308.142 50.4591 308.064 50.1296 307.909C49.8038 307.754 49.5368 307.559 49.3285 307.324C49.1201 307.085 48.961 306.845 48.8512 306.602H48.7432V308H46.3569ZM48.7262 303.636C48.7262 304.155 48.7981 304.608 48.9421 304.994C49.086 305.381 49.2944 305.682 49.5671 305.898C49.8398 306.11 50.1713 306.216 50.5614 306.216C50.9553 306.216 51.2887 306.108 51.5614 305.892C51.8341 305.672 52.0406 305.369 52.1807 304.983C52.3247 304.593 52.3966 304.144 52.3966 303.636C52.3966 303.133 52.3266 302.689 52.1864 302.307C52.0463 301.924 51.8398 301.625 51.5671 301.409C51.2944 301.193 50.9591 301.085 50.5614 301.085C50.1675 301.085 49.8341 301.189 49.5614 301.398C49.2925 301.606 49.086 301.902 48.9421 302.284C48.7981 302.667 48.7262 303.117 48.7262 303.636ZM58.7959 308.165C58.2391 308.165 57.7429 308.068 57.3073 307.875C56.8717 307.678 56.527 307.388 56.2732 307.006C56.0232 306.619 55.8982 306.138 55.8982 305.562C55.8982 305.078 55.9872 304.67 56.1652 304.341C56.3433 304.011 56.5857 303.746 56.8925 303.545C57.1993 303.345 57.5478 303.193 57.938 303.091C58.3319 302.989 58.7448 302.917 59.1766 302.875C59.6842 302.822 60.0933 302.773 60.4039 302.727C60.7145 302.678 60.9399 302.606 61.08 302.511C61.2202 302.417 61.2902 302.277 61.2902 302.091V302.057C61.2902 301.697 61.1766 301.419 60.9493 301.222C60.7258 301.025 60.4077 300.926 59.9948 300.926C59.5592 300.926 59.2126 301.023 58.955 301.216C58.6974 301.405 58.527 301.644 58.4436 301.932L56.205 301.75C56.3186 301.22 56.5421 300.761 56.8755 300.375C57.2088 299.985 57.6387 299.686 58.1652 299.477C58.6955 299.265 59.3092 299.159 60.0061 299.159C60.491 299.159 60.955 299.216 61.3982 299.33C61.8452 299.443 62.241 299.619 62.5857 299.858C62.9342 300.097 63.2088 300.403 63.4096 300.778C63.6103 301.15 63.7107 301.595 63.7107 302.114V308H61.4152V306.79H61.3471C61.2069 307.062 61.0194 307.303 60.7846 307.511C60.5497 307.716 60.2675 307.877 59.938 307.994C59.6084 308.108 59.2277 308.165 58.7959 308.165ZM59.4891 306.494C59.8452 306.494 60.1596 306.424 60.4323 306.284C60.705 306.14 60.919 305.947 61.0743 305.705C61.2296 305.462 61.3073 305.187 61.3073 304.881V303.955C61.2315 304.004 61.1274 304.049 60.9948 304.091C60.866 304.129 60.7202 304.165 60.5573 304.199C60.3944 304.229 60.2315 304.258 60.0686 304.284C59.9058 304.307 59.758 304.328 59.6255 304.347C59.3414 304.388 59.0933 304.455 58.8811 304.545C58.669 304.636 58.5043 304.759 58.3868 304.915C58.2694 305.066 58.2107 305.256 58.2107 305.483C58.2107 305.812 58.33 306.064 58.5686 306.239C58.8111 306.409 59.1179 306.494 59.4891 306.494ZM65.458 308V296.364H67.8784V300.739H67.9523C68.0584 300.504 68.2118 300.265 68.4125 300.023C68.6171 299.777 68.8822 299.572 69.208 299.409C69.5375 299.242 69.9466 299.159 70.4353 299.159C71.0716 299.159 71.6587 299.326 72.1966 299.659C72.7345 299.989 73.1644 300.487 73.4864 301.153C73.8084 301.816 73.9694 302.648 73.9694 303.648C73.9694 304.621 73.8122 305.443 73.4978 306.114C73.1872 306.78 72.7629 307.286 72.225 307.631C71.6909 307.972 71.0925 308.142 70.4296 308.142C69.9599 308.142 69.5603 308.064 69.2307 307.909C68.905 307.754 68.6379 307.559 68.4296 307.324C68.2212 307.085 68.0622 306.845 67.9523 306.602H67.8444V308H65.458ZM67.8273 303.636C67.8273 304.155 67.8993 304.608 68.0432 304.994C68.1872 305.381 68.3955 305.682 68.6682 305.898C68.9409 306.11 69.2724 306.216 69.6625 306.216C70.0565 306.216 70.3898 306.108 70.6625 305.892C70.9353 305.672 71.1417 305.369 71.2819 304.983C71.4258 304.593 71.4978 304.144 71.4978 303.636C71.4978 303.133 71.4277 302.689 71.2875 302.307C71.1474 301.924 70.9409 301.625 70.6682 301.409C70.3955 301.193 70.0603 301.085 69.6625 301.085C69.2686 301.085 68.9353 301.189 68.6625 301.398C68.3936 301.606 68.1872 301.902 68.0432 302.284C67.8993 302.667 67.8273 303.117 67.8273 303.636ZM75.4084 308V299.273H77.8289V308H75.4084ZM76.6243 298.148C76.2645 298.148 75.9558 298.028 75.6982 297.79C75.4444 297.547 75.3175 297.258 75.3175 296.92C75.3175 296.587 75.4444 296.301 75.6982 296.062C75.9558 295.82 76.2645 295.699 76.6243 295.699C76.9842 295.699 77.291 295.82 77.5448 296.062C77.8023 296.301 77.9311 296.587 77.9311 296.92C77.9311 297.258 77.8023 297.547 77.5448 297.79C77.291 298.028 76.9842 298.148 76.6243 298.148ZM82.0122 296.364V308H79.5918V296.364H82.0122ZM83.7752 308V299.273H86.1956V308H83.7752ZM84.9911 298.148C84.6312 298.148 84.3225 298.028 84.0649 297.79C83.8111 297.547 83.6842 297.258 83.6842 296.92C83.6842 296.587 83.8111 296.301 84.0649 296.062C84.3225 295.82 84.6312 295.699 84.9911 295.699C85.3509 295.699 85.6577 295.82 85.9115 296.062C86.1691 296.301 86.2979 296.587 86.2979 296.92C86.2979 297.258 86.1691 297.547 85.9115 297.79C85.6577 298.028 85.3509 298.148 84.9911 298.148ZM92.6006 299.273V301.091H87.3449V299.273H92.6006ZM88.5381 297.182H90.9585V305.318C90.9585 305.542 90.9926 305.716 91.0608 305.841C91.129 305.962 91.2237 306.047 91.3449 306.097C91.4699 306.146 91.6138 306.17 91.7767 306.17C91.8903 306.17 92.004 306.161 92.1176 306.142C92.2313 306.119 92.3184 306.102 92.379 306.091L92.7597 307.892C92.6385 307.93 92.468 307.973 92.2483 308.023C92.0286 308.076 91.7616 308.108 91.4472 308.119C90.8638 308.142 90.3525 308.064 89.9131 307.886C89.4775 307.708 89.1385 307.432 88.896 307.057C88.6536 306.682 88.5343 306.208 88.5381 305.636V297.182ZM95.4956 311.273C95.1888 311.273 94.9009 311.248 94.632 311.199C94.3668 311.153 94.1471 311.095 93.9729 311.023L94.5183 309.216C94.8024 309.303 95.0581 309.35 95.2854 309.358C95.5164 309.366 95.7153 309.313 95.882 309.199C96.0524 309.085 96.1907 308.892 96.2967 308.619L96.4388 308.25L93.3081 299.273H95.8536L97.6604 305.682H97.7513L99.5751 299.273H102.138L98.7456 308.943C98.5827 309.413 98.3611 309.822 98.0808 310.17C97.8043 310.523 97.4539 310.794 97.0297 310.983C96.6054 311.176 96.0941 311.273 95.4956 311.273ZM104.615 308.148C104.24 308.148 103.918 308.015 103.649 307.75C103.384 307.481 103.251 307.159 103.251 306.784C103.251 306.413 103.384 306.095 103.649 305.83C103.918 305.564 104.24 305.432 104.615 305.432C104.979 305.432 105.297 305.564 105.57 305.83C105.842 306.095 105.979 306.413 105.979 306.784C105.979 307.034 105.914 307.263 105.786 307.472C105.661 307.676 105.496 307.841 105.291 307.966C105.087 308.087 104.861 308.148 104.615 308.148ZM104.615 302.034C104.24 302.034 103.918 301.902 103.649 301.636C103.384 301.371 103.251 301.049 103.251 300.67C103.251 300.299 103.384 299.983 103.649 299.722C103.918 299.456 104.24 299.324 104.615 299.324C104.979 299.324 105.297 299.456 105.57 299.722C105.842 299.983 105.979 300.299 105.979 300.67C105.979 300.924 105.914 301.155 105.786 301.364C105.661 301.568 105.496 301.731 105.291 301.852C105.087 301.973 104.861 302.034 104.615 302.034Z" fill="black"/>
<path d="M178.476 284.148C178.101 284.148 177.78 284.015 177.511 283.75C177.245 283.481 177.113 283.159 177.113 282.784C177.113 282.413 177.245 282.095 177.511 281.83C177.78 281.564 178.101 281.432 178.476 281.432C178.84 281.432 179.158 281.564 179.431 281.83C179.704 282.095 179.84 282.413 179.84 282.784C179.84 283.034 179.776 283.263 179.647 283.472C179.522 283.676 179.357 283.841 179.153 283.966C178.948 284.087 178.723 284.148 178.476 284.148ZM185.785 284.159C184.982 284.159 184.266 284.011 183.637 283.716C183.012 283.42 182.516 283.013 182.149 282.494C181.781 281.975 181.59 281.381 181.575 280.71H183.961C183.988 281.161 184.177 281.527 184.529 281.807C184.881 282.087 185.3 282.227 185.785 282.227C186.171 282.227 186.512 282.142 186.808 281.972C187.107 281.797 187.34 281.557 187.506 281.25C187.677 280.939 187.762 280.583 187.762 280.182C187.762 279.773 187.675 279.413 187.501 279.102C187.33 278.792 187.094 278.549 186.791 278.375C186.488 278.201 186.141 278.112 185.751 278.108C185.41 278.108 185.078 278.178 184.756 278.318C184.438 278.458 184.19 278.65 184.012 278.892L181.825 278.5L182.376 272.364H189.489V274.375H184.404L184.103 277.29H184.171C184.376 277.002 184.684 276.763 185.097 276.574C185.51 276.384 185.972 276.29 186.484 276.29C187.184 276.29 187.809 276.455 188.359 276.784C188.908 277.114 189.342 277.566 189.66 278.142C189.978 278.714 190.135 279.373 190.131 280.119C190.135 280.903 189.953 281.6 189.586 282.21C189.222 282.816 188.713 283.294 188.058 283.642C187.406 283.987 186.649 284.159 185.785 284.159ZM171.33 308.159C170.527 308.159 169.811 308.011 169.182 307.716C168.557 307.42 168.061 307.013 167.694 306.494C167.326 305.975 167.135 305.381 167.12 304.71H169.506C169.533 305.161 169.722 305.527 170.074 305.807C170.427 306.087 170.845 306.227 171.33 306.227C171.716 306.227 172.057 306.142 172.353 305.972C172.652 305.797 172.885 305.557 173.052 305.25C173.222 304.939 173.307 304.583 173.307 304.182C173.307 303.773 173.22 303.413 173.046 303.102C172.876 302.792 172.639 302.549 172.336 302.375C172.033 302.201 171.686 302.112 171.296 302.108C170.955 302.108 170.624 302.178 170.302 302.318C169.984 302.458 169.735 302.65 169.557 302.892L167.37 302.5L167.921 296.364H175.035V298.375H169.949L169.648 301.29H169.716C169.921 301.002 170.23 300.763 170.643 300.574C171.056 300.384 171.518 300.29 172.029 300.29C172.73 300.29 173.355 300.455 173.904 300.784C174.453 301.114 174.887 301.566 175.205 302.142C175.523 302.714 175.681 303.373 175.677 304.119C175.681 304.903 175.499 305.6 175.131 306.21C174.768 306.816 174.258 307.294 173.603 307.642C172.951 307.987 172.194 308.159 171.33 308.159ZM181.779 308.256C180.802 308.252 179.961 308.011 179.256 307.534C178.556 307.057 178.016 306.366 177.637 305.46C177.262 304.555 177.076 303.466 177.08 302.193C177.08 300.924 177.268 299.843 177.643 298.949C178.022 298.055 178.561 297.375 179.262 296.909C179.967 296.439 180.806 296.205 181.779 296.205C182.753 296.205 183.59 296.439 184.29 296.909C184.995 297.379 185.537 298.061 185.915 298.955C186.294 299.845 186.482 300.924 186.478 302.193C186.478 303.47 186.289 304.561 185.91 305.466C185.535 306.371 184.997 307.062 184.296 307.54C183.595 308.017 182.756 308.256 181.779 308.256ZM181.779 306.216C182.446 306.216 182.978 305.881 183.376 305.21C183.773 304.54 183.97 303.534 183.967 302.193C183.967 301.311 183.876 300.576 183.694 299.989C183.516 299.402 183.262 298.96 182.933 298.665C182.607 298.369 182.222 298.222 181.779 298.222C181.116 298.222 180.586 298.553 180.188 299.216C179.79 299.879 179.59 300.871 179.586 302.193C179.586 303.087 179.675 303.833 179.853 304.432C180.035 305.027 180.29 305.473 180.62 305.773C180.95 306.068 181.336 306.216 181.779 306.216ZM194.426 305.818V305.205C194.426 304.739 194.524 304.311 194.721 303.92C194.922 303.527 195.212 303.212 195.59 302.977C195.973 302.739 196.439 302.619 196.988 302.619C197.545 302.619 198.013 302.737 198.391 302.972C198.774 303.206 199.062 303.521 199.255 303.915C199.452 304.305 199.551 304.735 199.551 305.205V305.818C199.551 306.284 199.452 306.714 199.255 307.108C199.058 307.498 198.768 307.811 198.386 308.045C198.003 308.284 197.537 308.403 196.988 308.403C196.431 308.403 195.963 308.284 195.585 308.045C195.206 307.811 194.918 307.498 194.721 307.108C194.524 306.714 194.426 306.284 194.426 305.818ZM196.079 305.205V305.818C196.079 306.087 196.143 306.341 196.272 306.58C196.405 306.818 196.643 306.938 196.988 306.938C197.333 306.938 197.568 306.82 197.693 306.585C197.821 306.35 197.886 306.095 197.886 305.818V305.205C197.886 304.928 197.825 304.67 197.704 304.432C197.583 304.193 197.344 304.074 196.988 304.074C196.647 304.074 196.41 304.193 196.278 304.432C196.145 304.67 196.079 304.928 196.079 305.205ZM188.454 299.159V298.545C188.454 298.076 188.554 297.646 188.755 297.256C188.956 296.862 189.246 296.547 189.624 296.312C190.007 296.078 190.469 295.96 191.011 295.96C191.571 295.96 192.041 296.078 192.42 296.312C192.799 296.547 193.087 296.862 193.284 297.256C193.48 297.646 193.579 298.076 193.579 298.545V299.159C193.579 299.629 193.479 300.059 193.278 300.449C193.081 300.839 192.791 301.152 192.409 301.386C192.03 301.617 191.564 301.733 191.011 301.733C190.458 301.733 189.99 301.616 189.607 301.381C189.229 301.142 188.941 300.83 188.744 300.443C188.551 300.053 188.454 299.625 188.454 299.159ZM190.119 298.545V299.159C190.119 299.436 190.183 299.691 190.312 299.926C190.445 300.161 190.677 300.278 191.011 300.278C191.359 300.278 191.596 300.161 191.721 299.926C191.85 299.691 191.914 299.436 191.914 299.159V298.545C191.914 298.269 191.854 298.011 191.732 297.773C191.611 297.534 191.371 297.415 191.011 297.415C190.674 297.415 190.441 297.536 190.312 297.778C190.183 298.021 190.119 298.277 190.119 298.545ZM189.204 308L197.204 296.364H198.693L190.693 308H189.204Z" fill="black"/>
<path d="M354.476 284.148C354.101 284.148 353.78 284.015 353.511 283.75C353.245 283.481 353.113 283.159 353.113 282.784C353.113 282.413 353.245 282.095 353.511 281.83C353.78 281.564 354.101 281.432 354.476 281.432C354.84 281.432 355.158 281.564 355.431 281.83C355.704 282.095 355.84 282.413 355.84 282.784C355.84 283.034 355.776 283.263 355.647 283.472C355.522 283.676 355.357 283.841 355.153 283.966C354.948 284.087 354.723 284.148 354.476 284.148ZM361.785 284.159C360.982 284.159 360.266 284.011 359.637 283.716C359.012 283.42 358.516 283.013 358.149 282.494C357.781 281.975 357.59 281.381 357.575 280.71H359.961C359.988 281.161 360.177 281.527 360.529 281.807C360.881 282.087 361.3 282.227 361.785 282.227C362.171 282.227 362.512 282.142 362.808 281.972C363.107 281.797 363.34 281.557 363.506 281.25C363.677 280.939 363.762 280.583 363.762 280.182C363.762 279.773 363.675 279.413 363.501 279.102C363.33 278.792 363.094 278.549 362.791 278.375C362.488 278.201 362.141 278.112 361.751 278.108C361.41 278.108 361.078 278.178 360.756 278.318C360.438 278.458 360.19 278.65 360.012 278.892L357.825 278.5L358.376 272.364H365.489V274.375H360.404L360.103 277.29H360.171C360.376 277.002 360.684 276.763 361.097 276.574C361.51 276.384 361.972 276.29 362.484 276.29C363.184 276.29 363.809 276.455 364.359 276.784C364.908 277.114 365.342 277.566 365.66 278.142C365.978 278.714 366.135 279.373 366.131 280.119C366.135 280.903 365.953 281.6 365.586 282.21C365.222 282.816 364.713 283.294 364.058 283.642C363.406 283.987 362.649 284.159 361.785 284.159ZM347.33 308.159C346.527 308.159 345.811 308.011 345.182 307.716C344.557 307.42 344.061 307.013 343.694 306.494C343.326 305.975 343.135 305.381 343.12 304.71H345.506C345.533 305.161 345.722 305.527 346.074 305.807C346.427 306.087 346.845 306.227 347.33 306.227C347.716 306.227 348.057 306.142 348.353 305.972C348.652 305.797 348.885 305.557 349.052 305.25C349.222 304.939 349.307 304.583 349.307 304.182C349.307 303.773 349.22 303.413 349.046 303.102C348.876 302.792 348.639 302.549 348.336 302.375C348.033 302.201 347.686 302.112 347.296 302.108C346.955 302.108 346.624 302.178 346.302 302.318C345.984 302.458 345.735 302.65 345.557 302.892L343.37 302.5L343.921 296.364H351.035V298.375H345.949L345.648 301.29H345.716C345.921 301.002 346.23 300.763 346.643 300.574C347.056 300.384 347.518 300.29 348.029 300.29C348.73 300.29 349.355 300.455 349.904 300.784C350.453 301.114 350.887 301.566 351.205 302.142C351.523 302.714 351.681 303.373 351.677 304.119C351.681 304.903 351.499 305.6 351.131 306.21C350.768 306.816 350.258 307.294 349.603 307.642C348.951 307.987 348.194 308.159 347.33 308.159ZM357.779 308.256C356.802 308.252 355.961 308.011 355.256 307.534C354.556 307.057 354.016 306.366 353.637 305.46C353.262 304.555 353.076 303.466 353.08 302.193C353.08 300.924 353.268 299.843 353.643 298.949C354.022 298.055 354.561 297.375 355.262 296.909C355.967 296.439 356.806 296.205 357.779 296.205C358.753 296.205 359.59 296.439 360.29 296.909C360.995 297.379 361.537 298.061 361.915 298.955C362.294 299.845 362.482 300.924 362.478 302.193C362.478 303.47 362.289 304.561 361.91 305.466C361.535 306.371 360.997 307.062 360.296 307.54C359.595 308.017 358.756 308.256 357.779 308.256ZM357.779 306.216C358.446 306.216 358.978 305.881 359.376 305.21C359.773 304.54 359.97 303.534 359.967 302.193C359.967 301.311 359.876 300.576 359.694 299.989C359.516 299.402 359.262 298.96 358.933 298.665C358.607 298.369 358.222 298.222 357.779 298.222C357.116 298.222 356.586 298.553 356.188 299.216C355.79 299.879 355.59 300.871 355.586 302.193C355.586 303.087 355.675 303.833 355.853 304.432C356.035 305.027 356.29 305.473 356.62 305.773C356.95 306.068 357.336 306.216 357.779 306.216ZM370.426 305.818V305.205C370.426 304.739 370.524 304.311 370.721 303.92C370.922 303.527 371.212 303.212 371.59 302.977C371.973 302.739 372.439 302.619 372.988 302.619C373.545 302.619 374.013 302.737 374.391 302.972C374.774 303.206 375.062 303.521 375.255 303.915C375.452 304.305 375.551 304.735 375.551 305.205V305.818C375.551 306.284 375.452 306.714 375.255 307.108C375.058 307.498 374.768 307.811 374.386 308.045C374.003 308.284 373.537 308.403 372.988 308.403C372.431 308.403 371.963 308.284 371.585 308.045C371.206 307.811 370.918 307.498 370.721 307.108C370.524 306.714 370.426 306.284 370.426 305.818ZM372.079 305.205V305.818C372.079 306.087 372.143 306.341 372.272 306.58C372.405 306.818 372.643 306.938 372.988 306.938C373.333 306.938 373.568 306.82 373.693 306.585C373.821 306.35 373.886 306.095 373.886 305.818V305.205C373.886 304.928 373.825 304.67 373.704 304.432C373.583 304.193 373.344 304.074 372.988 304.074C372.647 304.074 372.41 304.193 372.278 304.432C372.145 304.67 372.079 304.928 372.079 305.205ZM364.454 299.159V298.545C364.454 298.076 364.554 297.646 364.755 297.256C364.956 296.862 365.246 296.547 365.624 296.312C366.007 296.078 366.469 295.96 367.011 295.96C367.571 295.96 368.041 296.078 368.42 296.312C368.799 296.547 369.087 296.862 369.284 297.256C369.48 297.646 369.579 298.076 369.579 298.545V299.159C369.579 299.629 369.479 300.059 369.278 300.449C369.081 300.839 368.791 301.152 368.409 301.386C368.03 301.617 367.564 301.733 367.011 301.733C366.458 301.733 365.99 301.616 365.607 301.381C365.229 301.142 364.941 300.83 364.744 300.443C364.551 300.053 364.454 299.625 364.454 299.159ZM366.119 298.545V299.159C366.119 299.436 366.183 299.691 366.312 299.926C366.445 300.161 366.677 300.278 367.011 300.278C367.359 300.278 367.596 300.161 367.721 299.926C367.85 299.691 367.914 299.436 367.914 299.159V298.545C367.914 298.269 367.854 298.011 367.732 297.773C367.611 297.534 367.371 297.415 367.011 297.415C366.674 297.415 366.441 297.536 366.312 297.778C366.183 298.021 366.119 298.277 366.119 298.545ZM365.204 308L373.204 296.364H374.693L366.693 308H365.204Z" fill="black"/>
</svg>
