<svg xmlns="http://www.w3.org/2000/svg" width="791" height="615" fill="none" viewBox="0 0 791 615"><path fill="#fff" d="M0 0h791v615H0z"/><path fill="#222" d="M740.011 582v-11.636h2.461v9.608h4.988V582zm12.8.17q-1.323 0-2.29-.562a3.85 3.85 0 0 1-1.483-1.58q-.522-1.017-.522-2.358 0-1.352.522-2.363a3.8 3.8 0 0 1 1.483-1.58q.966-.568 2.29-.568t2.284.568q.966.563 1.489 1.58.523 1.011.523 2.363 0 1.341-.523 2.358a3.84 3.84 0 0 1-1.489 1.58q-.96.562-2.284.562m.012-1.875q.601 0 1.005-.34.404-.347.608-.944.21-.596.21-1.358 0-.76-.21-1.358-.204-.596-.608-.943-.404-.346-1.005-.346-.609 0-1.023.346-.41.347-.619.943a4.2 4.2 0 0 0-.205 1.358q0 .762.205 1.358.21.596.619.944.414.34 1.023.34m7.184 1.705-2.375-8.727h2.449l1.353 5.863h.079l1.409-5.863h2.404l1.431 5.829h.074l1.33-5.829h2.443L768.235 582h-2.563l-1.5-5.489h-.108l-1.5 5.489zM740.011 50V38.364h2.461v4.8h4.994v-4.8h2.454V50h-2.454v-4.807h-4.994V50zm11.716 0v-8.727h2.421V50zm1.216-9.852q-.54 0-.926-.358a1.16 1.16 0 0 1-.38-.87q0-.5.38-.858.387-.363.926-.363.54 0 .921.364.386.357.386.857 0 .506-.386.87a1.3 1.3 0 0 1-.921.358m6.9 13.307q-1.177 0-2.017-.324-.835-.318-1.33-.87a2.66 2.66 0 0 1-.642-1.238l2.239-.301q.102.261.323.488.222.228.586.364.369.142.897.142.79 0 1.302-.386.517-.38.517-1.279v-1.596h-.103a2.3 2.3 0 0 1-.477.687 2.4 2.4 0 0 1-.818.528q-.5.205-1.193.205a3.6 3.6 0 0 1-1.79-.455q-.801-.46-1.278-1.403-.472-.95-.472-2.398 0-1.482.483-2.477t1.284-1.489a3.3 3.3 0 0 1 1.767-.494q.733 0 1.227.25.495.244.796.614a3.3 3.3 0 0 1 .471.716h.091v-1.466h2.404v8.812q0 1.114-.546 1.864-.545.75-1.511 1.125-.96.38-2.21.38m.051-5.398q.585 0 .988-.29.41-.295.625-.84.222-.552.222-1.319t-.216-1.33q-.216-.568-.625-.88t-.994-.313q-.597 0-1.006.324-.41.319-.619.886-.21.57-.21 1.313 0 .756.21 1.307.216.545.619.846.41.296 1.006.296m8.386-3.102V50h-2.42V38.364h2.352v4.449h.102q.295-.775.955-1.21.659-.444 1.653-.444.91 0 1.586.398.681.392 1.056 1.13.381.734.375 1.756V50h-2.42v-5.125q.005-.806-.409-1.256-.41-.449-1.148-.449-.494 0-.875.21a1.5 1.5 0 0 0-.591.614q-.21.399-.216.96M680.103 33V21.364h2.461v9.608h4.988V33zm12.8.17q-1.323 0-2.289-.562a3.84 3.84 0 0 1-1.483-1.58q-.523-1.017-.523-2.357 0-1.353.523-2.364a3.8 3.8 0 0 1 1.483-1.58q.966-.568 2.289-.568t2.284.568a3.8 3.8 0 0 1 1.489 1.58q.523 1.011.523 2.364 0 1.34-.523 2.357a3.84 3.84 0 0 1-1.489 1.58q-.96.563-2.284.563m.012-1.875q.601 0 1.005-.34.404-.347.608-.944.21-.596.211-1.358 0-.761-.211-1.357-.204-.597-.608-.944-.404-.345-1.005-.346-.609 0-1.023.346-.41.347-.619.944-.205.596-.205 1.357 0 .762.205 1.358.21.597.619.944.414.34 1.023.34m8.17 1.87q-.836 0-1.488-.29a2.4 2.4 0 0 1-1.034-.87q-.375-.579-.375-1.443 0-.727.267-1.221t.727-.796 1.045-.454a8 8 0 0 1 1.239-.216q.762-.08 1.227-.148.466-.073.676-.216a.47.47 0 0 0 .211-.42v-.034q0-.54-.341-.835-.336-.296-.955-.296-.653 0-1.04.29-.386.285-.511.716l-2.239-.182a3.05 3.05 0 0 1 .671-1.375q.5-.586 1.29-.898.795-.318 1.841-.318.726 0 1.392.17.67.17 1.187.529.523.358.824.92.301.558.301 1.336V33h-2.295v-1.21h-.069q-.21.41-.562.721a2.6 2.6 0 0 1-.847.483q-.494.17-1.142.17m.693-1.67q.535 0 .944-.21a1.7 1.7 0 0 0 .642-.58q.233-.364.233-.824v-.927q-.114.075-.313.137a6 6 0 0 1-.437.108q-.245.046-.489.085l-.443.063a3 3 0 0 0-.744.198 1.2 1.2 0 0 0-.495.37.9.9 0 0 0-.176.568q0 .494.358.756.363.255.92.255m9.14 1.647q-.994 0-1.801-.511-.802-.517-1.273-1.517-.466-1.006-.466-2.466 0-1.5.483-2.495.483-.999 1.284-1.494a3.3 3.3 0 0 1 1.767-.5q.733 0 1.222.25.494.244.795.614.307.362.466.716h.074v-4.375h2.415V33h-2.387v-1.398h-.102a3.1 3.1 0 0 1-.483.722 2.4 2.4 0 0 1-.801.585q-.488.233-1.193.233m.767-1.926q.585 0 .989-.318.409-.324.625-.904.22-.58.221-1.358 0-.779-.216-1.352t-.625-.886-.994-.313q-.597 0-1.006.324t-.619.898-.21 1.33q0 .76.21 1.346.216.58.619.909.41.324 1.006.324"/><path fill="url(#paint0_linear_269_394)" stroke="#000" d="M664.5 37.5h67v544h-67z"/><path fill="#0055DC" d="M520.507 40.198H517v18.05h3.507zm91.493 0h-3.507v18.05H612z"/><path fill="#fff" stroke="#0055DC" stroke-miterlimit="10" stroke-width="1.5" d="M525.31 61.465v3.425l78.377-.004V61.46z"/><path fill="#C5EBF5" stroke="#0055DC" stroke-miterlimit="10" stroke-width="1.5" d="M608.492 37h-87.985v24.462h87.985z"/><path fill="#00A800" d="M604.692 58.012V40.45h-80.384v17.563z"/><path fill="#0055DC" d="M530.832 45.408h-1.947v1.902h1.947zm0 5.725h-1.947v1.903h1.947zm2.667-3.016h-1.948v1.902h1.948zm2.37-2.709h-1.947v1.902h1.947zm0 5.725h-1.947v1.903h1.947zm2.52-3.016h-1.948v1.902h1.948zm2.98-2.709h-1.947v1.902h1.947zm0 5.725h-1.947v1.903h1.947zm2.519-3.016h-1.947v1.902h1.947zm3.065-2.709h-1.948v1.902h1.948zm0 5.725h-1.948v1.903h1.948zm2.371-3.016h-1.948v1.902h1.948zm2.666-2.709h-1.948v1.902h1.948zm0 5.725h-1.948v1.903h1.948zm2.224-3.016h-1.948v1.902h1.948zm2.815-2.709h-1.948v1.902h1.948zm0 5.725h-1.948v1.903h1.948zm2.075-3.016h-1.947v1.902h1.947zm39.202 3.475c1.335 0 2.418-1.057 2.418-2.361s-1.083-2.362-2.418-2.362-2.418 1.058-2.418 2.362 1.083 2.361 2.418 2.361"/><path stroke="#0055DC" stroke-miterlimit="10" stroke-width="1.5" d="M591.354 49.23h-25.606"/><path fill="#0055DC" d="M520.507 126.198H517v18.05h3.507zm91.493 0h-3.507v18.05H612z"/><path fill="#fff" stroke="#0055DC" stroke-miterlimit="10" stroke-width="1.5" d="M525.31 147.464v3.426l78.377-.004v-3.426z"/><path fill="#C5EBF5" stroke="#0055DC" stroke-miterlimit="10" stroke-width="1.5" d="M608.492 123h-87.985v24.462h87.985z"/><path fill="#DC8C00" d="M604.692 144.012v-17.564h-80.384v17.564z"/><path fill="#0055DC" d="M530.832 131.408h-1.947v1.902h1.947zm0 5.725h-1.947v1.903h1.947zm2.667-3.016h-1.948v1.902h1.948zm2.37-2.709h-1.947v1.902h1.947zm0 5.725h-1.947v1.903h1.947zm2.52-3.016h-1.948v1.902h1.948zm2.98-2.709h-1.947v1.902h1.947zm0 5.725h-1.947v1.903h1.947zm2.519-3.016h-1.947v1.902h1.947zm3.065-2.709h-1.948v1.902h1.948zm0 5.725h-1.948v1.903h1.948zm2.371-3.016h-1.948v1.902h1.948zm2.666-2.709h-1.948v1.902h1.948zm0 5.725h-1.948v1.903h1.948zm2.224-3.016h-1.948v1.902h1.948zm2.815-2.709h-1.948v1.902h1.948zm0 5.725h-1.948v1.903h1.948zm2.075-3.016h-1.947v1.902h1.947zm39.202 3.475c1.335 0 2.418-1.057 2.418-2.361s-1.083-2.362-2.418-2.362-2.418 1.058-2.418 2.362 1.083 2.361 2.418 2.361"/><path stroke="#0055DC" stroke-miterlimit="10" stroke-width="1.5" d="M591.354 135.231h-25.606"/><path fill="#0055DC" d="M520.507 556.198H517v18.05h3.507zm91.493 0h-3.507v18.05H612z"/><path fill="#fff" stroke="#0055DC" stroke-miterlimit="10" stroke-width="1.5" d="M525.31 577.464v3.426l78.377-.004v-3.426z"/><path fill="#C5EBF5" stroke="#0055DC" stroke-miterlimit="10" stroke-width="1.5" d="M608.492 553h-87.985v24.462h87.985z"/><path fill="#00A800" d="M604.692 574.012v-17.564h-80.384v17.564z"/><path fill="#0055DC" d="M530.832 561.408h-1.947v1.902h1.947zm0 5.725h-1.947v1.903h1.947zm2.667-3.016h-1.948v1.902h1.948zm2.37-2.709h-1.947v1.902h1.947zm0 5.725h-1.947v1.903h1.947zm2.52-3.016h-1.948v1.902h1.948zm2.98-2.709h-1.947v1.902h1.947zm0 5.725h-1.947v1.903h1.947zm2.519-3.016h-1.947v1.902h1.947zm3.065-2.709h-1.948v1.902h1.948zm0 5.725h-1.948v1.903h1.948zm2.371-3.016h-1.948v1.902h1.948zm2.666-2.709h-1.948v1.902h1.948zm0 5.725h-1.948v1.903h1.948zm2.224-3.016h-1.948v1.902h1.948zm2.815-2.709h-1.948v1.902h1.948zm0 5.725h-1.948v1.903h1.948zm2.075-3.016h-1.947v1.902h1.947zm39.202 3.475c1.335 0 2.418-1.057 2.418-2.361s-1.083-2.362-2.418-2.362-2.418 1.058-2.418 2.362 1.083 2.361 2.418 2.361"/><path stroke="#0055DC" stroke-miterlimit="10" stroke-width="1.5" d="M591.354 565.231h-25.606"/><path fill="#0055DC" d="M522.507 214.198H519v18.05h3.507zm91.493 0h-3.507v18.05H614z"/><path fill="#fff" stroke="#0055DC" stroke-miterlimit="10" stroke-width="1.5" d="M527.31 235.464v3.426l78.377-.004v-3.426z"/><path fill="#C5EBF5" stroke="#0055DC" stroke-miterlimit="10" stroke-width="1.5" d="M610.492 211h-87.985v24.462h87.985z"/><path fill="#00A800" d="M606.692 232.012v-17.564h-80.384v17.564z"/><path fill="#0055DC" d="M532.832 219.408h-1.947v1.902h1.947zm0 5.725h-1.947v1.903h1.947zm2.667-3.016h-1.948v1.902h1.948zm2.37-2.709h-1.947v1.902h1.947zm0 5.725h-1.947v1.903h1.947zm2.52-3.016h-1.948v1.902h1.948zm2.98-2.709h-1.947v1.902h1.947zm0 5.725h-1.947v1.903h1.947zm2.519-3.016h-1.947v1.902h1.947zm3.065-2.709h-1.948v1.902h1.948zm0 5.725h-1.948v1.903h1.948zm2.371-3.016h-1.948v1.902h1.948zm2.666-2.709h-1.948v1.902h1.948zm0 5.725h-1.948v1.903h1.948zm2.224-3.016h-1.948v1.902h1.948zm2.815-2.709h-1.948v1.902h1.948zm0 5.725h-1.948v1.903h1.948zm2.075-3.016h-1.947v1.902h1.947zm39.202 3.475c1.335 0 2.418-1.057 2.418-2.361s-1.083-2.362-2.418-2.362-2.418 1.058-2.418 2.362 1.083 2.361 2.418 2.361"/><path stroke="#0055DC" stroke-miterlimit="10" stroke-width="1.5" d="M593.354 223.231h-25.606"/><path fill="#0055DC" d="M520.507 300.198H517v18.05h3.507zm91.493 0h-3.507v18.05H612z"/><path fill="#fff" stroke="#0055DC" stroke-miterlimit="10" stroke-width="1.5" d="M525.31 321.464v3.426l78.377-.004v-3.426z"/><path fill="#C5EBF5" stroke="#0055DC" stroke-miterlimit="10" stroke-width="1.5" d="M608.492 297h-87.985v24.462h87.985z"/><path fill="#00A800" d="M604.692 318.012v-17.564h-80.384v17.564z"/><path fill="#0055DC" d="M530.832 305.408h-1.947v1.902h1.947zm0 5.725h-1.947v1.903h1.947zm2.667-3.016h-1.948v1.902h1.948zm2.37-2.709h-1.947v1.902h1.947zm0 5.725h-1.947v1.903h1.947zm2.52-3.016h-1.948v1.902h1.948zm2.98-2.709h-1.947v1.902h1.947zm0 5.725h-1.947v1.903h1.947zm2.519-3.016h-1.947v1.902h1.947zm3.065-2.709h-1.948v1.902h1.948zm0 5.725h-1.948v1.903h1.948zm2.371-3.016h-1.948v1.902h1.948zm2.666-2.709h-1.948v1.902h1.948zm0 5.725h-1.948v1.903h1.948zm2.224-3.016h-1.948v1.902h1.948zm2.815-2.709h-1.948v1.902h1.948zm0 5.725h-1.948v1.903h1.948zm2.075-3.016h-1.947v1.902h1.947zm39.202 3.475c1.335 0 2.418-1.057 2.418-2.361s-1.083-2.362-2.418-2.362-2.418 1.058-2.418 2.362 1.083 2.361 2.418 2.361"/><path stroke="#0055DC" stroke-miterlimit="10" stroke-width="1.5" d="M591.354 309.231h-25.606"/><path fill="#0055DC" d="M520.507 386.198H517v18.05h3.507zm91.493 0h-3.507v18.05H612z"/><path fill="#fff" stroke="#0055DC" stroke-miterlimit="10" stroke-width="1.5" d="M525.31 407.464v3.426l78.377-.004v-3.426z"/><path fill="#C5EBF5" stroke="#0055DC" stroke-miterlimit="10" stroke-width="1.5" d="M608.492 383h-87.985v24.462h87.985z"/><path fill="#DC0000" d="M604.692 404.012v-17.564h-80.384v17.564z"/><path fill="#0055DC" d="M530.832 391.408h-1.947v1.902h1.947zm0 5.725h-1.947v1.903h1.947zm2.667-3.016h-1.948v1.902h1.948zm2.37-2.709h-1.947v1.902h1.947zm0 5.725h-1.947v1.903h1.947zm2.52-3.016h-1.948v1.902h1.948zm2.98-2.709h-1.947v1.902h1.947zm0 5.725h-1.947v1.903h1.947zm2.519-3.016h-1.947v1.902h1.947zm3.065-2.709h-1.948v1.902h1.948zm0 5.725h-1.948v1.903h1.948zm2.371-3.016h-1.948v1.902h1.948zm2.666-2.709h-1.948v1.902h1.948zm0 5.725h-1.948v1.903h1.948zm2.224-3.016h-1.948v1.902h1.948zm2.815-2.709h-1.948v1.902h1.948zm0 5.725h-1.948v1.903h1.948zm2.075-3.016h-1.947v1.902h1.947zm39.202 3.475c1.335 0 2.418-1.057 2.418-2.361s-1.083-2.362-2.418-2.362-2.418 1.058-2.418 2.362 1.083 2.361 2.418 2.361"/><path stroke="#0055DC" stroke-miterlimit="10" stroke-width="1.5" d="M591.354 395.231h-25.606"/><path fill="#0055DC" d="M520.507 470.198H517v18.05h3.507zm91.493 0h-3.507v18.05H612z"/><path fill="#fff" stroke="#0055DC" stroke-miterlimit="10" stroke-width="1.5" d="M525.31 491.464v3.426l78.377-.004v-3.426z"/><path fill="#C5EBF5" stroke="#0055DC" stroke-miterlimit="10" stroke-width="1.5" d="M608.492 467h-87.985v24.462h87.985z"/><path fill="#00A800" d="M604.692 488.012v-17.564h-80.384v17.564z"/><path fill="#0055DC" d="M530.832 475.408h-1.947v1.902h1.947zm0 5.725h-1.947v1.903h1.947zm2.667-3.016h-1.948v1.902h1.948zm2.37-2.709h-1.947v1.902h1.947zm0 5.725h-1.947v1.903h1.947zm2.52-3.016h-1.948v1.902h1.948zm2.98-2.709h-1.947v1.902h1.947zm0 5.725h-1.947v1.903h1.947zm2.519-3.016h-1.947v1.902h1.947zm3.065-2.709h-1.948v1.902h1.948zm0 5.725h-1.948v1.903h1.948zm2.371-3.016h-1.948v1.902h1.948zm2.666-2.709h-1.948v1.902h1.948zm0 5.725h-1.948v1.903h1.948zm2.224-3.016h-1.948v1.902h1.948zm2.815-2.709h-1.948v1.902h1.948zm0 5.725h-1.948v1.903h1.948zm2.075-3.016h-1.947v1.902h1.947zm39.202 3.475c1.335 0 2.418-1.057 2.418-2.361s-1.083-2.362-2.418-2.362-2.418 1.058-2.418 2.362 1.083 2.361 2.418 2.361"/><path stroke="#0055DC" stroke-miterlimit="10" stroke-width="1.5" d="M591.354 479.231h-25.606"/><path fill="#C5EBF5" fill-rule="evenodd" stroke="#0055DC" stroke-miterlimit="10" stroke-width="1.5" d="M119.487 103H27.264c-2.443 0-4.63 2.058-4.63 4.63v60.582h101.484V107.63c0-2.572-2.187-4.63-4.631-4.63Z" clip-rule="evenodd"/><path fill="#0055DC" d="M73.312 107.502a.772.772 0 1 0-.001-1.544.772.772 0 0 0 0 1.544"/><path fill="#fff" d="M128.105 172.843H18.518c-5.66 0-9.518-.901-9.518-1.673v-2.572c0-.257.257-.515.514-.515H136.98c.257 0 .515.258.515.515v2.572c.128.772-2.83 1.673-9.39 1.673"/><path stroke="#0055DC" stroke-miterlimit="10" stroke-width="1.5" d="M128.105 172.843H18.518c-5.66 0-9.518-.901-9.518-1.673v-2.572c0-.257.257-.515.514-.515H136.98c.257 0 .515.258.515.515v2.572c.128.772-2.83 1.673-9.39 1.673Z" clip-rule="evenodd"/><path fill="#C5EBF5" d="M137.623 168.598c0-.257-.257-.515-.514-.515H9.643c-.257 0-.515.258-.515.515v2.444h128.624v-2.444z"/><path stroke="#0055DC" stroke-miterlimit="10" stroke-width="1.5" d="M128.105 172.843H18.518c-5.66 0-9.518-.901-9.518-1.673v-2.572c0-.257.257-.515.514-.515H136.98c.257 0 .515.258.515.515v2.572c.128.772-2.83 1.673-9.39 1.673Z"/><path fill="#fff" d="M119.873 110.203H26.75v54.279h93.123z"/><path fill="#0055DC" fill-rule="evenodd" d="M87.331 168.341v.514c0 .386-.771.515-1.414.515H60.835c-.643 0-1.415-.129-1.415-.515v-.514" clip-rule="evenodd"/><path fill="#CBE9F3" d="M86.014 152.783c-3.767-2-7.94-2.538-8.717-4.363-.589-1.383 0-6.012 0-6.012l-9.103-.095s.575 4.694 0 6.107c-.698 1.714-4.49 2.267-7.97 4.215"/><path stroke="#193979" stroke-miterlimit="10" stroke-width="1.5" d="M86.014 152.783c-3.767-2-7.94-2.538-8.717-4.363-.589-1.383 0-6.012 0-6.012l-9.103-.095s.575 4.694 0 6.107c-.698 1.714-4.49 2.267-7.97 4.215"/><path fill="#1B59D3" stroke="#0F387D" stroke-linecap="round" stroke-miterlimit="10" stroke-width="1.5" d="M73.204 157.545a19.55 19.55 0 0 0 12.81-4.761c-3.767-2-7.94-2.539-8.718-4.364a4 4 0 0 1-.229-1.193 23.6 23.6 0 0 1-4.328.464 23.5 23.5 0 0 1-4.325-.464c-.016.406-.09.808-.222 1.193-.697 1.715-4.489 2.268-7.97 4.216a19.55 19.55 0 0 0 12.982 4.909Z"/><path fill="#CBE9F3" d="M65.877 134.288c-.072-.588-.943-1.643-1.971-.966-1.006.661-.04 5.606 2.765 5.422"/><path stroke="#193979" stroke-miterlimit="10" stroke-width="1.5" d="M65.877 134.288c-.072-.588-.943-1.643-1.971-.966-1.006.661-.04 5.606 2.765 5.422"/><path fill="#CBE9F3" d="M79.647 134.288c.072-.588.943-1.643 1.97-.966 1.007.661.04 5.606-2.765 5.422"/><path stroke="#193979" stroke-miterlimit="10" stroke-width="1.5" d="M79.647 134.288c.072-.588.943-1.643 1.97-.966 1.007.661.04 5.606-2.765 5.422"/><path fill="#CBE9F3" stroke="#193979" stroke-miterlimit="10" stroke-width="1.5" d="M79.824 130.847a20.4 20.4 0 0 1-.656 5.747c-.268.948-.584 3.856-.948 4.609-.915 1.899-3.273 4.012-5.417 4.012s-4.258-2.112-5.417-4.011c-.443-.726-.795-3.639-1.07-4.608-.638-2.243-.534-4.297-.534-5.749 0-4.405 2.957-7.337 7.017-7.337s7.025 2.932 7.025 7.337Z"/><path fill="#0F387D" stroke="#0F387D" stroke-linejoin="round" stroke-width="1.5" d="M78.587 129.916s-7.255.683-10.566-1.703c0 0-.966 4.066-2.143 6.075 0 0-1.451-6.169.662-6.986 0 0-.175-3.423 3.599-4.3 0 0-.195.853.438.829s5.66-2.923 9.247-.658c3.587 2.264.834 5.575.834 5.575s.097 3.499-.767 4.975l-.314 1.003s-.908-3.167-.99-4.81Z"/><path stroke="#1B59D3" stroke-miterlimit="10" stroke-width="1.5" d="M73.204 157.545c10.842 0 19.631-8.789 19.631-19.631s-8.789-19.632-19.63-19.632c-10.843 0-19.632 8.789-19.632 19.632 0 10.842 8.79 19.631 19.631 19.631Z"/><path stroke="#1B59D3" stroke-miterlimit="10" stroke-width="1.5" d="M73.204 157.545c10.842 0 19.631-8.789 19.631-19.631s-8.789-19.632-19.63-19.632c-10.843 0-19.632 8.789-19.632 19.632 0 10.842 8.79 19.631 19.631 19.631Z"/><path stroke="#5E5E5E" stroke-linejoin="bevel" stroke-width="3" d="M121.5 136.921h397"/><path fill="#C5EBF5" fill-rule="evenodd" stroke="#0055DC" stroke-miterlimit="10" stroke-width="1.5" d="M117.241 18H29.397c-2.328 0-4.41 1.96-4.41 4.41v57.706h96.665V22.41c0-2.45-2.083-4.411-4.411-4.411Z" clip-rule="evenodd"/><path fill="#0055DC" d="M73.258 22.288a.735.735 0 1 0 0-1.47.735.735 0 0 0 0 1.47"/><path fill="#fff" d="M125.45 84.526H21.066c-5.39 0-9.066-.857-9.066-1.592v-2.45c0-.246.245-.49.49-.49h121.414c.245 0 .49.244.49.49v2.45c.122.735-2.696 1.592-8.944 1.592"/><path stroke="#0055DC" stroke-miterlimit="10" stroke-width="1.5" d="M125.45 84.526H21.066c-5.39 0-9.066-.857-9.066-1.592v-2.45c0-.246.245-.49.49-.49h121.414c.245 0 .49.244.49.49v2.45c.122.735-2.696 1.592-8.944 1.592Z" clip-rule="evenodd"/><path fill="#C5EBF5" d="M134.516 80.483c0-.245-.245-.49-.49-.49H12.612c-.245 0-.49.245-.49.49v2.328h122.516v-2.328z"/><path stroke="#0055DC" stroke-miterlimit="10" stroke-width="1.5" d="M125.45 84.526H21.066c-5.39 0-9.066-.857-9.066-1.592v-2.45c0-.246.245-.49.49-.49h121.414c.245 0 .49.244.49.49v2.45c.122.735-2.696 1.592-8.944 1.592Z"/><path fill="#fff" d="M117.609 24.86H28.907v51.703h88.702z"/><path fill="#0055DC" fill-rule="evenodd" d="M86.612 80.238v.49c0 .368-.735.49-1.347.49H61.374c-.613 0-1.348-.122-1.348-.49v-.49" clip-rule="evenodd"/><path fill="#fff" stroke="#0055DC" stroke-miterlimit="10" stroke-width="1.5" d="M73.302 71.906c12.388 0 22.43-10.043 22.43-22.43 0-12.389-10.042-22.431-22.43-22.431s-22.43 10.042-22.43 22.43 10.042 22.43 22.43 22.43Z"/><path fill="#003682" d="M72.385 41.06a1 1 0 0 1 1.673 0l.318.486a1 1 0 0 0 1.42.266l.469-.337a1 1 0 0 1 1.56.604l.123.575a1 1 0 0 0 1.227.759l.561-.144a1 1 0 0 1 1.237 1.125l-.094.588a1 1 0 0 0 .869 1.15l.582.07a1 1 0 0 1 .746 1.494l-.3.519a1 1 0 0 0 .393 1.383l.525.28a1 1 0 0 1 .154 1.663l-.466.374a1 1 0 0 0-.133 1.432l.39.454a1 1 0 0 1-.457 1.606l-.564.178a1 1 0 0 0-.642 1.288l.2.564a1 1 0 0 1-1.007 1.333l-.582-.039a1 1 0 0 0-1.066.971l-.015.592a1 1 0 0 1-1.423.88l-.524-.245a1 1 0 0 0-1.346.521l-.224.539a1 1 0 0 1-1.645.307l-.4-.418a1 1 0 0 0-1.445 0l-.4.418a1 1 0 0 1-1.645-.307l-.224-.539a1 1 0 0 0-1.346-.521l-.524.244a1 1 0 0 1-1.422-.88l-.016-.59a1 1 0 0 0-1.066-.972l-.582.038a1 1 0 0 1-1.008-1.332l.2-.564a1 1 0 0 0-.641-1.288l-.564-.178a1 1 0 0 1-.458-1.605l.391-.455a1 1 0 0 0-.133-1.432l-.466-.374a1 1 0 0 1 .154-1.662l.525-.28a1 1 0 0 0 .394-1.384l-.3-.519a1 1 0 0 1 .745-1.494l.582-.07a1 1 0 0 0 .869-1.15l-.094-.588a1 1 0 0 1 1.237-1.125l.561.144a1 1 0 0 0 1.227-.76l.123-.574a1 1 0 0 1 1.56-.604l.47.337a1 1 0 0 0 1.419-.265z"/><path fill="#C5EBF5" stroke="#003682" stroke-miterlimit="10" stroke-width="1.5" d="M66.224 61.16a15.8 15.8 0 0 0 3.22-2.343v-5.92l7.799.092v5.568c.356.692 1.7 1.542 3.494 2.55 0 0-3.337 4.976-7.529 4.976-4.191 0-6.984-4.923-6.984-4.923Z"/><path fill="#0055DC" stroke="#003682" stroke-miterlimit="10" stroke-width="1.5" d="M73.303 71.906a22.35 22.35 0 0 0 15.06-5.808 35 35 0 0 0-7.583-4.953s-3.38 4.938-7.57 4.938c-4.192 0-7.007-4.875-7.007-4.875-2.573 1.45-5.729 2.816-8.094 4.763a22.35 22.35 0 0 0 15.194 5.935Z"/><path fill="#C5EBF5" stroke="#003682" stroke-miterlimit="10" stroke-width="1.5" d="M80.74 45.414a1.24 1.24 0 0 1 1.611-.863c.975.294.426 3.834-2.298 3.708q.423-1.402.686-2.845Zm-14.877.001a1.276 1.276 0 0 0-1.666-.864c-.85.345-.426 3.834 2.3 3.709a23 23 0 0 1-.634-2.846Z"/><path fill="#C5EBF5" stroke="#003682" stroke-miterlimit="10" stroke-width="1.5" d="M81.092 42.164c0 2.021-.74 6.14-2.04 8.626-.965 1.846-3.452 3.9-5.712 3.9s-4.491-2.054-5.712-3.9c-1.548-2.34-2.04-6.605-2.04-8.626a7.752 7.752 0 1 1 15.504 0Z"/><path fill="#003682" stroke="#003682" stroke-linejoin="round" stroke-width="1.5" d="M80.692 44.71c-.362-3.081-3.35-7.182-6.688-7.182l-.55-2.554 1.033 2.583c0 5.583-8.28 4.091-8.625 7.781l-.132-.133a22.4 22.4 0 0 1-.275-3.25c0-4.28 3.604-7.62 7.885-7.62a7.867 7.867 0 0 1 7.885 7.754 16 16 0 0 1-.436 3.157z"/><path stroke="#0055DC" stroke-miterlimit="10" stroke-width="1.5" d="M73.302 71.906c12.388 0 22.43-10.043 22.43-22.43 0-12.389-10.042-22.431-22.43-22.431s-22.43 10.042-22.43 22.43 10.042 22.43 22.43 22.43Z"/><path stroke="#5E5E5E" stroke-linejoin="bevel" stroke-width="3" d="m121.18 51.035 397.009 76.216"/><path fill="#C5EBF5" fill-rule="evenodd" stroke="#0055DC" stroke-miterlimit="10" stroke-width="1.5" d="M117.241 537H29.397c-2.328 0-4.41 1.96-4.41 4.411v57.705h96.665v-57.705c0-2.451-2.083-4.411-4.411-4.411Z" clip-rule="evenodd"/><path fill="#0055DC" d="M73.258 541.288a.735.735 0 1 0 0-1.47.735.735 0 0 0 0 1.47"/><path fill="#fff" d="M125.45 603.526H21.066c-5.39 0-9.066-.857-9.066-1.592v-2.451c0-.245.245-.49.49-.49h121.414c.245 0 .49.245.49.49v2.451c.122.735-2.696 1.592-8.944 1.592"/><path stroke="#0055DC" stroke-miterlimit="10" stroke-width="1.5" d="M125.45 603.526H21.066c-5.39 0-9.066-.857-9.066-1.592v-2.451c0-.245.245-.49.49-.49h121.414c.245 0 .49.245.49.49v2.451c.122.735-2.696 1.592-8.944 1.592Z" clip-rule="evenodd"/><path fill="#C5EBF5" d="M134.516 599.483c0-.245-.245-.49-.49-.49H12.612c-.245 0-.49.245-.49.49v2.328h122.516v-2.328z"/><path stroke="#0055DC" stroke-miterlimit="10" stroke-width="1.5" d="M125.45 603.526H21.066c-5.39 0-9.066-.857-9.066-1.592v-2.451c0-.245.245-.49.49-.49h121.414c.245 0 .49.245.49.49v2.451c.122.735-2.696 1.592-8.944 1.592Z"/><path fill="#fff" d="M117.609 543.861H28.907v51.702h88.702z"/><path fill="#0055DC" fill-rule="evenodd" d="M86.612 599.238v.49c0 .368-.735.49-1.347.49H61.374c-.613 0-1.348-.122-1.348-.49v-.49" clip-rule="evenodd"/><path fill="#fff" stroke="#0055DC" stroke-miterlimit="10" stroke-width="1.5" d="M73.302 590.906c12.388 0 22.43-10.043 22.43-22.431s-10.042-22.43-22.43-22.43-22.43 10.042-22.43 22.43 10.042 22.431 22.43 22.431Z"/><path fill="#003682" d="M72.385 560.061a1 1 0 0 1 1.673 0l.318.486a1 1 0 0 0 1.42.265l.469-.336a1 1 0 0 1 1.56.603l.123.575a1 1 0 0 0 1.227.759l.561-.144a1 1 0 0 1 1.237 1.125l-.094.588a1 1 0 0 0 .869 1.15l.582.07a1 1 0 0 1 .746 1.494l-.3.519a1 1 0 0 0 .393 1.384l.525.28a1 1 0 0 1 .154 1.662l-.466.374a1 1 0 0 0-.133 1.432l.39.455a1 1 0 0 1-.457 1.605l-.564.178a1 1 0 0 0-.642 1.288l.2.564a1 1 0 0 1-1.007 1.333l-.582-.039a1 1 0 0 0-1.066.971l-.015.592a1 1 0 0 1-1.423.879l-.524-.244a1 1 0 0 0-1.346.521l-.224.539a1 1 0 0 1-1.645.307l-.4-.417a1 1 0 0 0-1.445 0l-.4.417a1 1 0 0 1-1.645-.307l-.224-.539a1 1 0 0 0-1.346-.521l-.524.244a1 1 0 0 1-1.422-.879l-.016-.592a1 1 0 0 0-1.066-.971l-.582.039a1 1 0 0 1-1.008-1.333l.2-.564a1 1 0 0 0-.641-1.288l-.564-.178a1 1 0 0 1-.458-1.605l.391-.455a1 1 0 0 0-.133-1.432l-.466-.374a1 1 0 0 1 .154-1.662l.525-.28a1 1 0 0 0 .394-1.384l-.3-.519a1 1 0 0 1 .745-1.494l.582-.07a1 1 0 0 0 .869-1.15l-.094-.588a1 1 0 0 1 1.237-1.125l.561.144a1 1 0 0 0 1.227-.759l.123-.575a1 1 0 0 1 1.56-.603l.47.336a1 1 0 0 0 1.419-.265z"/><path fill="#C5EBF5" stroke="#003682" stroke-miterlimit="10" stroke-width="1.5" d="M66.224 580.16a15.8 15.8 0 0 0 3.22-2.343v-5.92l7.799.092v5.568c.356.692 1.7 1.542 3.494 2.549 0 0-3.337 4.977-7.529 4.977-4.191 0-6.984-4.923-6.984-4.923Z"/><path fill="#0055DC" stroke="#003682" stroke-miterlimit="10" stroke-width="1.5" d="M73.303 590.906a22.35 22.35 0 0 0 15.06-5.808 35 35 0 0 0-7.583-4.953s-3.38 4.938-7.57 4.938c-4.192 0-7.007-4.875-7.007-4.875-2.573 1.451-5.729 2.816-8.094 4.763a22.35 22.35 0 0 0 15.194 5.935Z"/><path fill="#C5EBF5" stroke="#003682" stroke-miterlimit="10" stroke-width="1.5" d="M80.74 564.414a1.23 1.23 0 0 1 .615-.787 1.24 1.24 0 0 1 .996-.076c.975.294.426 3.834-2.298 3.708q.423-1.402.686-2.845Zm-14.877 0a1.27 1.27 0 0 0-1.148-.937 1.3 1.3 0 0 0-.518.074c-.85.345-.426 3.834 2.3 3.709a23 23 0 0 1-.634-2.846Z"/><path fill="#C5EBF5" stroke="#003682" stroke-miterlimit="10" stroke-width="1.5" d="M81.092 561.164c0 2.022-.74 6.14-2.04 8.626-.965 1.846-3.452 3.901-5.712 3.901s-4.491-2.055-5.712-3.9c-1.548-2.34-2.04-6.605-2.04-8.627a7.753 7.753 0 0 1 15.504 0Z"/><path fill="#003682" stroke="#003682" stroke-linejoin="round" stroke-width="1.5" d="M80.692 563.71c-.362-3.081-3.35-7.182-6.688-7.182l-.55-2.554 1.033 2.583c0 5.583-8.28 4.092-8.625 7.781l-.132-.132a22.4 22.4 0 0 1-.275-3.25c0-4.282 3.604-7.62 7.885-7.62a7.87 7.87 0 0 1 7.885 7.753 16 16 0 0 1-.436 3.157z"/><path stroke="#0055DC" stroke-miterlimit="10" stroke-width="1.5" d="M73.302 590.906c12.388 0 22.43-10.043 22.43-22.431s-10.042-22.43-22.43-22.43-22.43 10.042-22.43 22.43 10.042 22.431 22.43 22.431Z"/><path stroke="#5E5E5E" stroke-linejoin="bevel" stroke-width="3" d="m121.18 569.194 406.11-162.103"/><path fill="#C5EBF5" fill-rule="evenodd" stroke="#0055DC" stroke-miterlimit="10" stroke-width="1.5" d="M119.487 276H27.264c-2.443 0-4.63 2.058-4.63 4.63v60.582h101.484V280.63c0-2.572-2.187-4.63-4.631-4.63Z" clip-rule="evenodd"/><path fill="#0055DC" d="M73.312 280.502a.772.772 0 1 0-.001-1.544.772.772 0 0 0 0 1.544"/><path fill="#fff" d="M128.105 345.842H18.518c-5.66 0-9.518-.9-9.518-1.672v-2.572c0-.257.257-.515.514-.515H136.98c.257 0 .515.258.515.515v2.572c.128.772-2.83 1.672-9.39 1.672"/><path stroke="#0055DC" stroke-miterlimit="10" stroke-width="1.5" d="M128.105 345.842H18.518c-5.66 0-9.518-.9-9.518-1.672v-2.572c0-.257.257-.515.514-.515H136.98c.257 0 .515.258.515.515v2.572c.128.772-2.83 1.672-9.39 1.672Z" clip-rule="evenodd"/><path fill="#C5EBF5" d="M137.623 341.598c0-.257-.257-.515-.514-.515H9.643c-.257 0-.515.258-.515.515v2.444h128.624v-2.444z"/><path stroke="#0055DC" stroke-miterlimit="10" stroke-width="1.5" d="M128.105 345.842H18.518c-5.66 0-9.518-.9-9.518-1.672v-2.572c0-.257.257-.515.514-.515H136.98c.257 0 .515.258.515.515v2.572c.128.772-2.83 1.672-9.39 1.672Z"/><path fill="#fff" d="M119.873 283.203H26.75v54.279h93.123z"/><path fill="#0055DC" fill-rule="evenodd" d="M87.331 341.341v.514c0 .386-.771.515-1.414.515H60.835c-.643 0-1.415-.129-1.415-.515v-.514" clip-rule="evenodd"/><path fill="#CBE9F3" d="M86.014 325.783c-3.767-2-7.94-2.538-8.717-4.363-.589-1.383 0-6.012 0-6.012l-9.103-.095s.575 4.693 0 6.107c-.698 1.714-4.49 2.267-7.97 4.214"/><path stroke="#193979" stroke-miterlimit="10" stroke-width="1.5" d="M86.014 325.783c-3.767-2-7.94-2.538-8.717-4.363-.589-1.383 0-6.012 0-6.012l-9.103-.095s.575 4.693 0 6.107c-.698 1.714-4.49 2.267-7.97 4.214"/><path fill="#1B59D3" stroke="#0F387D" stroke-linecap="round" stroke-miterlimit="10" stroke-width="1.5" d="M73.204 330.545a19.55 19.55 0 0 0 12.81-4.761c-3.767-2-7.94-2.539-8.718-4.364a4 4 0 0 1-.229-1.193 23.7 23.7 0 0 1-4.328.464 23.5 23.5 0 0 1-4.325-.464c-.016.406-.09.808-.222 1.193-.697 1.715-4.489 2.268-7.97 4.216a19.55 19.55 0 0 0 12.982 4.909Z"/><path fill="#CBE9F3" d="M65.877 307.287c-.072-.587-.943-1.642-1.971-.965-1.006.661-.04 5.606 2.765 5.422"/><path stroke="#193979" stroke-miterlimit="10" stroke-width="1.5" d="M65.877 307.287c-.072-.587-.943-1.642-1.971-.965-1.006.661-.04 5.606 2.765 5.422"/><path fill="#CBE9F3" d="M79.647 307.287c.072-.587.943-1.642 1.97-.965 1.007.661.04 5.606-2.765 5.422"/><path stroke="#193979" stroke-miterlimit="10" stroke-width="1.5" d="M79.647 307.287c.072-.587.943-1.642 1.97-.965 1.007.661.04 5.606-2.765 5.422"/><path fill="#CBE9F3" stroke="#193979" stroke-miterlimit="10" stroke-width="1.5" d="M79.824 303.847a20.4 20.4 0 0 1-.656 5.747c-.268.948-.584 3.856-.948 4.609-.915 1.899-3.273 4.012-5.417 4.012s-4.258-2.112-5.417-4.011c-.443-.727-.795-3.639-1.07-4.608-.638-2.243-.534-4.297-.534-5.749 0-4.405 2.957-7.337 7.017-7.337s7.025 2.932 7.025 7.337Z"/><path fill="#0F387D" stroke="#0F387D" stroke-linejoin="round" stroke-width="1.5" d="M78.587 302.916s-7.255.683-10.566-1.703c0 0-.966 4.066-2.143 6.074 0 0-1.451-6.168.662-6.986 0 0-.175-3.422 3.599-4.299 0 0-.195.853.438.828s5.66-2.922 9.247-.657c3.587 2.264.834 5.575.834 5.575s.097 3.498-.767 4.975l-.314 1.002s-.908-3.167-.99-4.809Z"/><path stroke="#1B59D3" stroke-miterlimit="10" stroke-width="1.5" d="M73.204 330.545c10.842 0 19.631-8.79 19.631-19.632s-8.789-19.631-19.63-19.631c-10.843 0-19.632 8.789-19.632 19.631s8.79 19.632 19.631 19.632Z"/><path stroke="#1B59D3" stroke-miterlimit="10" stroke-width="1.5" d="M73.204 330.545c10.842 0 19.631-8.79 19.631-19.632s-8.789-19.631-19.63-19.631c-10.843 0-19.632 8.789-19.632 19.631s8.79 19.632 19.631 19.632Z"/><path stroke="#5E5E5E" stroke-linejoin="bevel" stroke-width="3" d="m123.456 309.261 394.733 77.923"/><path fill="#C5EBF5" fill-rule="evenodd" stroke="#0055DC" stroke-miterlimit="10" stroke-width="1.5" d="M117.241 191H29.397c-2.328 0-4.41 1.96-4.41 4.411v57.705h96.665v-57.705c0-2.451-2.083-4.411-4.411-4.411Z" clip-rule="evenodd"/><path fill="#0055DC" d="M73.258 195.288a.735.735 0 1 0 0-1.47.735.735 0 0 0 0 1.47"/><path fill="#fff" d="M125.45 257.526H21.066c-5.39 0-9.066-.857-9.066-1.592v-2.451c0-.245.245-.49.49-.49h121.414c.245 0 .49.245.49.49v2.451c.122.735-2.696 1.592-8.944 1.592"/><path stroke="#0055DC" stroke-miterlimit="10" stroke-width="1.5" d="M125.45 257.526H21.066c-5.39 0-9.066-.857-9.066-1.592v-2.451c0-.245.245-.49.49-.49h121.414c.245 0 .49.245.49.49v2.451c.122.735-2.696 1.592-8.944 1.592Z" clip-rule="evenodd"/><path fill="#C5EBF5" d="M134.516 253.483c0-.245-.245-.49-.49-.49H12.612c-.245 0-.49.245-.49.49v2.328h122.516v-2.328z"/><path stroke="#0055DC" stroke-miterlimit="10" stroke-width="1.5" d="M125.45 257.526H21.066c-5.39 0-9.066-.857-9.066-1.592v-2.451c0-.245.245-.49.49-.49h121.414c.245 0 .49.245.49.49v2.451c.122.735-2.696 1.592-8.944 1.592Z"/><path fill="#fff" d="M117.609 197.861H28.907v51.702h88.702z"/><path fill="#0055DC" fill-rule="evenodd" d="M86.612 253.238v.49c0 .368-.735.49-1.347.49H61.374c-.613 0-1.348-.122-1.348-.49v-.49" clip-rule="evenodd"/><path fill="#fff" stroke="#0055DC" stroke-miterlimit="10" stroke-width="1.5" d="M73.302 244.906c12.388 0 22.43-10.043 22.43-22.431s-10.042-22.43-22.43-22.43-22.43 10.042-22.43 22.43 10.042 22.431 22.43 22.431Z"/><path fill="#003682" d="M72.385 214.061a1 1 0 0 1 1.673 0l.318.485a1 1 0 0 0 1.42.266l.469-.337a1 1 0 0 1 1.56.604l.123.575a1 1 0 0 0 1.227.759l.561-.144a1 1 0 0 1 1.237 1.125l-.094.588a1 1 0 0 0 .869 1.149l.582.071a1 1 0 0 1 .746 1.494l-.3.519a1 1 0 0 0 .393 1.383l.525.281a1 1 0 0 1 .154 1.662l-.466.374a1 1 0 0 0-.133 1.432l.39.454a1 1 0 0 1-.457 1.606l-.564.178a1 1 0 0 0-.642 1.288l.2.564a1 1 0 0 1-1.007 1.333l-.582-.039a1 1 0 0 0-1.066.971l-.015.592a1 1 0 0 1-1.423.879l-.524-.244a1 1 0 0 0-1.346.521l-.224.539a1 1 0 0 1-1.645.307l-.4-.418a1 1 0 0 0-1.445 0l-.4.418a1 1 0 0 1-1.645-.307l-.224-.539a1 1 0 0 0-1.346-.521l-.524.244a1 1 0 0 1-1.422-.879l-.016-.592a1 1 0 0 0-1.066-.971l-.582.039a1 1 0 0 1-1.008-1.333l.2-.564a1 1 0 0 0-.641-1.288l-.564-.178a1 1 0 0 1-.458-1.606l.391-.454a1 1 0 0 0-.133-1.432l-.466-.374a1 1 0 0 1 .154-1.662l.525-.281a1 1 0 0 0 .394-1.383l-.3-.519a1 1 0 0 1 .745-1.494l.582-.071a1 1 0 0 0 .869-1.149l-.094-.588a1 1 0 0 1 1.237-1.125l.561.144a1 1 0 0 0 1.227-.759l.123-.575a1 1 0 0 1 1.56-.604l.47.337a1 1 0 0 0 1.419-.266z"/><path fill="#C5EBF5" stroke="#003682" stroke-miterlimit="10" stroke-width="1.5" d="M66.224 234.16a15.8 15.8 0 0 0 3.22-2.343v-5.92l7.799.092v5.568c.356.692 1.7 1.542 3.494 2.549 0 0-3.337 4.977-7.529 4.977-4.191 0-6.984-4.923-6.984-4.923Z"/><path fill="#0055DC" stroke="#003682" stroke-miterlimit="10" stroke-width="1.5" d="M73.303 244.906a22.35 22.35 0 0 0 15.06-5.808 35 35 0 0 0-7.583-4.953s-3.38 4.938-7.57 4.938c-4.192 0-7.007-4.875-7.007-4.875-2.573 1.451-5.729 2.816-8.094 4.763a22.35 22.35 0 0 0 15.194 5.935Z"/><path fill="#C5EBF5" stroke="#003682" stroke-miterlimit="10" stroke-width="1.5" d="M80.74 218.414a1.23 1.23 0 0 1 .615-.787 1.24 1.24 0 0 1 .996-.076c.975.294.426 3.834-2.298 3.708q.423-1.402.686-2.845Zm-14.877 0a1.27 1.27 0 0 0-1.148-.936 1.3 1.3 0 0 0-.518.073c-.85.345-.426 3.835 2.3 3.709a23 23 0 0 1-.634-2.846Z"/><path fill="#C5EBF5" stroke="#003682" stroke-miterlimit="10" stroke-width="1.5" d="M81.092 215.164c0 2.022-.74 6.14-2.04 8.626-.965 1.846-3.452 3.901-5.712 3.901s-4.491-2.055-5.712-3.9c-1.548-2.34-2.04-6.605-2.04-8.627a7.753 7.753 0 0 1 15.504 0Z"/><path fill="#003682" stroke="#003682" stroke-linejoin="round" stroke-width="1.5" d="M80.692 217.709c-.362-3.08-3.35-7.181-6.688-7.181l-.55-2.554 1.033 2.582c0 5.584-8.28 4.092-8.625 7.782l-.132-.132a22.4 22.4 0 0 1-.275-3.25c0-4.282 3.604-7.62 7.885-7.62a7.87 7.87 0 0 1 7.885 7.753 16 16 0 0 1-.436 3.157z"/><path stroke="#0055DC" stroke-miterlimit="10" stroke-width="1.5" d="M73.302 244.906c12.388 0 22.43-10.043 22.43-22.431s-10.042-22.43-22.43-22.43-22.43 10.042-22.43 22.43 10.042 22.431 22.43 22.431Z"/><path stroke="#5E5E5E" stroke-linejoin="bevel" stroke-width="3" d="m121.18 225.082 400.422-80.198"/><path fill="#C5EBF5" fill-rule="evenodd" stroke="#0055DC" stroke-miterlimit="10" stroke-width="1.5" d="M119.487 449H27.264c-2.443 0-4.63 2.058-4.63 4.63v60.582h101.484V453.63c0-2.572-2.187-4.63-4.631-4.63Z" clip-rule="evenodd"/><path fill="#0055DC" d="M73.312 453.502a.772.772 0 1 0-.001-1.544.772.772 0 0 0 0 1.544"/><path fill="#fff" d="M128.105 518.842H18.518c-5.66 0-9.518-.9-9.518-1.672v-2.572c0-.257.257-.515.514-.515H136.98c.257 0 .515.258.515.515v2.572c.128.772-2.83 1.672-9.39 1.672"/><path stroke="#0055DC" stroke-miterlimit="10" stroke-width="1.5" d="M128.105 518.842H18.518c-5.66 0-9.518-.9-9.518-1.672v-2.572c0-.257.257-.515.514-.515H136.98c.257 0 .515.258.515.515v2.572c.128.772-2.83 1.672-9.39 1.672Z" clip-rule="evenodd"/><path fill="#C5EBF5" d="M137.623 514.598c0-.257-.257-.515-.514-.515H9.643c-.257 0-.515.258-.515.515v2.444h128.624v-2.444z"/><path stroke="#0055DC" stroke-miterlimit="10" stroke-width="1.5" d="M128.105 518.842H18.518c-5.66 0-9.518-.9-9.518-1.672v-2.572c0-.257.257-.515.514-.515H136.98c.257 0 .515.258.515.515v2.572c.128.772-2.83 1.672-9.39 1.672Z"/><path fill="#fff" d="M119.873 456.203H26.75v54.279h93.123z"/><path fill="#0055DC" fill-rule="evenodd" d="M87.331 514.341v.514c0 .386-.771.515-1.414.515H60.835c-.643 0-1.415-.129-1.415-.515v-.514" clip-rule="evenodd"/><path fill="#CBE9F3" d="M86.014 498.783c-3.767-2-7.94-2.538-8.717-4.363-.589-1.383 0-6.012 0-6.012l-9.103-.095s.575 4.693 0 6.107c-.698 1.714-4.49 2.267-7.97 4.214"/><path stroke="#193979" stroke-miterlimit="10" stroke-width="1.5" d="M86.014 498.783c-3.767-2-7.94-2.538-8.717-4.363-.589-1.383 0-6.012 0-6.012l-9.103-.095s.575 4.693 0 6.107c-.698 1.714-4.49 2.267-7.97 4.214"/><path fill="#1B59D3" stroke="#0F387D" stroke-linecap="round" stroke-miterlimit="10" stroke-width="1.5" d="M73.204 503.545a19.55 19.55 0 0 0 12.81-4.761c-3.767-2-7.94-2.539-8.718-4.364a4 4 0 0 1-.229-1.193 23.7 23.7 0 0 1-4.328.464 23.5 23.5 0 0 1-4.325-.464c-.016.406-.09.808-.222 1.193-.697 1.715-4.489 2.268-7.97 4.216a19.55 19.55 0 0 0 12.982 4.909Z"/><path fill="#CBE9F3" d="M65.877 480.287c-.072-.587-.943-1.642-1.971-.965-1.006.661-.04 5.606 2.765 5.422"/><path stroke="#193979" stroke-miterlimit="10" stroke-width="1.5" d="M65.877 480.287c-.072-.587-.943-1.642-1.971-.965-1.006.661-.04 5.606 2.765 5.422"/><path fill="#CBE9F3" d="M79.647 480.287c.072-.587.943-1.642 1.97-.965 1.007.661.04 5.606-2.765 5.422"/><path stroke="#193979" stroke-miterlimit="10" stroke-width="1.5" d="M79.647 480.287c.072-.587.943-1.642 1.97-.965 1.007.661.04 5.606-2.765 5.422"/><path fill="#CBE9F3" stroke="#193979" stroke-miterlimit="10" stroke-width="1.5" d="M79.824 476.847a20.4 20.4 0 0 1-.656 5.747c-.268.948-.584 3.856-.948 4.609-.915 1.899-3.273 4.012-5.417 4.012s-4.258-2.112-5.417-4.011c-.443-.727-.795-3.639-1.07-4.608-.638-2.243-.534-4.297-.534-5.749 0-4.405 2.957-7.337 7.017-7.337s7.025 2.932 7.025 7.337Z"/><path fill="#0F387D" stroke="#0F387D" stroke-linejoin="round" stroke-width="1.5" d="M78.587 475.916s-7.255.683-10.566-1.703c0 0-.966 4.066-2.143 6.074 0 0-1.451-6.168.662-6.986 0 0-.175-3.422 3.599-4.299 0 0-.195.853.438.828s5.66-2.922 9.247-.657c3.587 2.264.834 5.575.834 5.575s.097 3.498-.767 4.975l-.314 1.002s-.908-3.167-.99-4.809Z"/><path stroke="#1B59D3" stroke-miterlimit="10" stroke-width="1.5" d="M73.204 503.545c10.842 0 19.631-8.79 19.631-19.632s-8.789-19.631-19.63-19.631c-10.843 0-19.632 8.789-19.632 19.631s8.79 19.632 19.631 19.632Z"/><path stroke="#1B59D3" stroke-miterlimit="10" stroke-width="1.5" d="M73.204 503.545c10.842 0 19.631-8.79 19.631-19.632s-8.789-19.631-19.63-19.631c-10.843 0-19.632 8.789-19.632 19.631s8.79 19.632 19.631 19.632Z"/><path stroke="#5E5E5E" stroke-linejoin="bevel" stroke-width="3" d="m123.456 484.445 397.577-79.629"/><path fill="#C5EBF5" fill-rule="evenodd" stroke="#0055DC" stroke-miterlimit="10" stroke-width="1.5" d="M117.241 364H29.397c-2.328 0-4.41 1.96-4.41 4.411v57.705h96.665v-57.705c0-2.451-2.083-4.411-4.411-4.411Z" clip-rule="evenodd"/><path fill="#0055DC" d="M73.258 368.288a.735.735 0 1 0 0-1.47.735.735 0 0 0 0 1.47"/><path fill="#fff" d="M125.45 430.526H21.066c-5.39 0-9.066-.857-9.066-1.592v-2.451c0-.245.245-.49.49-.49h121.414c.245 0 .49.245.49.49v2.451c.122.735-2.696 1.592-8.944 1.592"/><path stroke="#0055DC" stroke-miterlimit="10" stroke-width="1.5" d="M125.45 430.526H21.066c-5.39 0-9.066-.857-9.066-1.592v-2.451c0-.245.245-.49.49-.49h121.414c.245 0 .49.245.49.49v2.451c.122.735-2.696 1.592-8.944 1.592Z" clip-rule="evenodd"/><path fill="#C5EBF5" d="M134.516 426.483c0-.245-.245-.49-.49-.49H12.612c-.245 0-.49.245-.49.49v2.328h122.516v-2.328z"/><path stroke="#0055DC" stroke-miterlimit="10" stroke-width="1.5" d="M125.45 430.526H21.066c-5.39 0-9.066-.857-9.066-1.592v-2.451c0-.245.245-.49.49-.49h121.414c.245 0 .49.245.49.49v2.451c.122.735-2.696 1.592-8.944 1.592Z"/><path fill="#fff" d="M117.609 370.861H28.907v51.702h88.702z"/><path fill="#0055DC" fill-rule="evenodd" d="M86.612 426.238v.49c0 .368-.735.49-1.347.49H61.374c-.613 0-1.348-.122-1.348-.49v-.49" clip-rule="evenodd"/><path fill="#fff" stroke="#0055DC" stroke-miterlimit="10" stroke-width="1.5" d="M73.302 417.906c12.388 0 22.43-10.043 22.43-22.431s-10.042-22.43-22.43-22.43-22.43 10.042-22.43 22.43 10.042 22.431 22.43 22.431Z"/><path fill="#003682" d="M72.385 387.061a1 1 0 0 1 1.673 0l.318.486a1 1 0 0 0 1.42.265l.469-.336a1 1 0 0 1 1.56.603l.123.575a1 1 0 0 0 1.227.759l.561-.144a1 1 0 0 1 1.237 1.125l-.094.588a1 1 0 0 0 .869 1.15l.582.07a1 1 0 0 1 .746 1.494l-.3.519a1 1 0 0 0 .393 1.384l.525.28a1 1 0 0 1 .154 1.662l-.466.374a1 1 0 0 0-.133 1.432l.39.455a1 1 0 0 1-.457 1.605l-.564.178a1 1 0 0 0-.642 1.288l.2.564a1 1 0 0 1-1.007 1.333l-.582-.039a1 1 0 0 0-1.066.971l-.015.592a1 1 0 0 1-1.423.879l-.524-.244a1 1 0 0 0-1.346.521l-.224.539a1 1 0 0 1-1.645.307l-.4-.417a1 1 0 0 0-1.445 0l-.4.417a1 1 0 0 1-1.645-.307l-.224-.539a1 1 0 0 0-1.346-.521l-.524.244a1 1 0 0 1-1.422-.879l-.016-.592a1 1 0 0 0-1.066-.971l-.582.039a1 1 0 0 1-1.008-1.333l.2-.564a1 1 0 0 0-.641-1.288l-.564-.178a1 1 0 0 1-.458-1.605l.391-.455a1 1 0 0 0-.133-1.432l-.466-.374a1 1 0 0 1 .154-1.662l.525-.28a1 1 0 0 0 .394-1.384l-.3-.519a1 1 0 0 1 .745-1.494l.582-.07a1 1 0 0 0 .869-1.15l-.094-.588a1 1 0 0 1 1.237-1.125l.561.144a1 1 0 0 0 1.227-.759l.123-.575a1 1 0 0 1 1.56-.603l.47.336a1 1 0 0 0 1.419-.265z"/><path fill="#C5EBF5" stroke="#003682" stroke-miterlimit="10" stroke-width="1.5" d="M66.224 407.16a15.8 15.8 0 0 0 3.22-2.343v-5.92l7.799.092v5.568c.356.692 1.7 1.542 3.494 2.549 0 0-3.337 4.977-7.529 4.977-4.191 0-6.984-4.923-6.984-4.923Z"/><path fill="#0055DC" stroke="#003682" stroke-miterlimit="10" stroke-width="1.5" d="M73.303 417.906a22.35 22.35 0 0 0 15.06-5.808 35 35 0 0 0-7.583-4.953s-3.38 4.938-7.57 4.938c-4.192 0-7.007-4.875-7.007-4.875-2.573 1.451-5.729 2.816-8.094 4.763a22.35 22.35 0 0 0 15.194 5.935Z"/><path fill="#C5EBF5" stroke="#003682" stroke-miterlimit="10" stroke-width="1.5" d="M80.74 391.414a1.23 1.23 0 0 1 .615-.787 1.24 1.24 0 0 1 .996-.076c.975.294.426 3.834-2.298 3.708q.423-1.402.686-2.845Zm-14.877 0a1.27 1.27 0 0 0-1.148-.937 1.3 1.3 0 0 0-.518.074c-.85.345-.426 3.834 2.3 3.709a23 23 0 0 1-.634-2.846Z"/><path fill="#C5EBF5" stroke="#003682" stroke-miterlimit="10" stroke-width="1.5" d="M81.092 388.164c0 2.022-.74 6.14-2.04 8.626-.965 1.846-3.452 3.901-5.712 3.901s-4.491-2.055-5.712-3.9c-1.548-2.34-2.04-6.605-2.04-8.627a7.753 7.753 0 0 1 15.504 0Z"/><path fill="#003682" stroke="#003682" stroke-linejoin="round" stroke-width="1.5" d="M80.692 390.71c-.362-3.081-3.35-7.182-6.688-7.182l-.55-2.554 1.033 2.583c0 5.583-8.28 4.092-8.625 7.781l-.132-.132a22.4 22.4 0 0 1-.275-3.25c0-4.282 3.604-7.62 7.885-7.62a7.87 7.87 0 0 1 7.885 7.753 16 16 0 0 1-.436 3.157z"/><path stroke="#0055DC" stroke-miterlimit="10" stroke-width="1.5" d="M73.302 417.906c12.388 0 22.43-10.043 22.43-22.431s-10.042-22.43-22.43-22.43-22.43 10.042-22.43 22.43 10.042 22.431 22.43 22.431Z"/><path stroke="#5E5E5E" stroke-linejoin="bevel" stroke-width="3" d="M120.5 396.945h399"/><defs><linearGradient id="paint0_linear_269_394" x1="698" x2="698" y1="37" y2="582" gradientUnits="userSpaceOnUse"><stop stop-color="#DC0000"/><stop offset=".498" stop-color="#DCDC00"/><stop offset="1" stop-color="#00A800"/></linearGradient></defs></svg>