<svg xmlns="http://www.w3.org/2000/svg" width="1162" height="567" fill="none" viewBox="0 0 1162 567"><path fill="#fff" d="M0 0h1162v567H0z"/><path fill="#fff" stroke="#F6821F" stroke-width="2" d="M307 62h542v483H307z"/><path fill="#fff" d="M350 48h346v28H350z"/><path fill="#222" d="M390.878 55.656h-3.733a3.6 3.6 0 0 0-.418-1.287q-.315-.57-.809-.971a3.6 3.6 0 0 0-1.142-.614 4.4 4.4 0 0 0-1.39-.213q-1.355 0-2.36.673-1.007.665-1.56 1.944-.554 1.269-.554 3.085 0 1.866.554 3.136.563 1.27 1.568 1.918t2.327.647a4.6 4.6 0 0 0 1.372-.196q.639-.195 1.134-.57a3.3 3.3 0 0 0 .818-.93q.332-.545.46-1.244l3.733.017a6.8 6.8 0 0 1-.725 2.318q-.57 1.108-1.542 1.986-.963.87-2.301 1.38-1.33.504-3.009.504-2.335 0-4.176-1.057-1.832-1.057-2.898-3.06-1.056-2.003-1.056-4.85 0-2.854 1.073-4.857 1.074-2.002 2.915-3.051 1.84-1.057 4.142-1.057 1.517 0 2.813.426a7.1 7.1 0 0 1 2.309 1.244 6.4 6.4 0 0 1 1.637 1.986q.64 1.176.818 2.693m5.753-6.11V67H393V49.545zm8.367 17.71q-1.986 0-3.435-.844a5.77 5.77 0 0 1-2.224-2.37q-.784-1.524-.784-3.536 0-2.029.784-3.546a5.7 5.7 0 0 1 2.224-2.37q1.449-.85 3.435-.851 1.986 0 3.426.852a5.7 5.7 0 0 1 2.233 2.37q.784 1.515.784 3.545 0 2.01-.784 3.537a5.76 5.76 0 0 1-2.233 2.369q-1.44.843-3.426.844m.017-2.813q.903 0 1.508-.511.606-.52.912-1.415.316-.896.316-2.037t-.316-2.037q-.306-.894-.912-1.415-.605-.52-1.508-.52-.912 0-1.534.52-.614.52-.929 1.415-.307.896-.307 2.037t.307 2.037q.315.895.929 1.415.622.51 1.534.511m16.726-3.017V53.91h3.63V67h-3.485v-2.378h-.137a3.87 3.87 0 0 1-1.474 1.85q-1.023.699-2.497.699-1.312 0-2.31-.597t-1.56-1.696q-.553-1.1-.562-2.634V53.91h3.631v7.688q.008 1.158.622 1.832.613.673 1.645.673.655 0 1.227-.298a2.34 2.34 0 0 0 .92-.903q.358-.597.35-1.475m10.902 5.787a4.94 4.94 0 0 1-2.701-.767q-1.202-.775-1.909-2.275-.699-1.51-.699-3.7 0-2.25.724-3.74.725-1.5 1.926-2.242 1.21-.75 2.651-.75 1.1 0 1.832.375.742.365 1.193.92.46.546.699 1.074h.111v-6.562h3.622V67h-3.579v-2.097h-.154a4.7 4.7 0 0 1-.724 1.083q-.46.528-1.202.878-.732.35-1.79.35m1.151-2.89q.877 0 1.483-.476.613-.486.937-1.355.333-.87.333-2.037 0-1.168-.324-2.029-.324-.86-.938-1.33-.613-.468-1.491-.468-.895 0-1.509.486-.613.485-.929 1.346-.315.861-.315 1.995 0 1.14.315 2.02.324.868.929 1.363.614.486 1.509.486m15.867-10.414v2.727h-8.079V53.91zM443.431 67V52.963q0-1.424.554-2.36a3.56 3.56 0 0 1 1.534-1.407q.972-.469 2.207-.469.836 0 1.526.128.7.128 1.04.23l-.648 2.727a5 5 0 0 0-.528-.127 3.3 3.3 0 0 0-.631-.06q-.8 0-1.117.375-.315.366-.315 1.031V67zm11.623-17.455V67h-3.631V49.545zm6.185 17.702q-1.252 0-2.233-.434a3.6 3.6 0 0 1-1.551-1.305q-.562-.868-.562-2.164 0-1.09.4-1.833a3.24 3.24 0 0 1 1.091-1.193q.69-.451 1.568-.682.886-.23 1.858-.324 1.142-.119 1.841-.221.699-.111 1.014-.324t.316-.63v-.052q0-.81-.512-1.253-.502-.443-1.432-.443-.98 0-1.559.435a2 2 0 0 0-.767 1.074l-3.358-.273a4.56 4.56 0 0 1 1.005-2.062q.75-.879 1.935-1.347 1.193-.477 2.762-.477a8.4 8.4 0 0 1 2.088.255q1.005.256 1.781.793.784.537 1.236 1.38.451.836.451 2.003V67h-3.443v-1.815h-.102q-.316.614-.844 1.082a3.9 3.9 0 0 1-1.27.725q-.741.255-1.713.255m1.04-2.505q.801 0 1.415-.316.613-.324.963-.87a2.24 2.24 0 0 0 .349-1.235v-1.39q-.17.112-.469.205-.289.086-.656.162a32 32 0 0 1-.733.128l-.665.094a4.5 4.5 0 0 0-1.116.298 1.8 1.8 0 0 0-.741.554q-.265.34-.265.852 0 .743.537 1.134.546.383 1.381.383M470.972 67V53.91h3.52v2.283h.136q.359-1.218 1.202-1.84.844-.631 1.943-.631.273 0 .588.034.316.034.554.093v3.222a5 5 0 0 0-.707-.136 6 6 0 0 0-.827-.06q-.8 0-1.432.35a2.6 2.6 0 0 0-.988.954q-.358.614-.358 1.415V67zm14.721.256q-2.02 0-3.477-.819a5.6 5.6 0 0 1-2.233-2.335q-.784-1.516-.784-3.588 0-2.02.784-3.545a5.8 5.8 0 0 1 2.207-2.378q1.432-.852 3.358-.852 1.296 0 2.412.417 1.125.41 1.96 1.236.844.826 1.313 2.08.468 1.244.468 2.914v.997h-11.054v-2.25h7.637q0-.783-.341-1.389a2.44 2.44 0 0 0-.946-.946q-.597-.35-1.389-.35-.827 0-1.466.384-.631.375-.989 1.015-.358.63-.366 1.406v2.139q0 .972.358 1.679.366.708 1.031 1.09.665.385 1.577.385a3.4 3.4 0 0 0 1.108-.171q.503-.17.86-.511a2.2 2.2 0 0 0 .546-.836l3.358.222a4.6 4.6 0 0 1-1.049 2.114q-.783.894-2.028 1.397-1.236.495-2.855.495m24.662-12.068a3.8 3.8 0 0 0-.502-1.1 3.1 3.1 0 0 0-.793-.818 3.4 3.4 0 0 0-1.057-.52 4.5 4.5 0 0 0-1.304-.179q-1.338 0-2.352.665-1.005.664-1.568 1.935-.563 1.26-.563 3.085t.554 3.102q.555 1.278 1.568 1.952 1.015.664 2.395.664 1.254 0 2.14-.443a3.2 3.2 0 0 0 1.363-1.27q.477-.818.477-1.934l.75.11h-4.5V57.66h7.304v2.199q0 2.3-.971 3.955a6.63 6.63 0 0 1-2.676 2.54q-1.705.886-3.904.886-2.455 0-4.312-1.083-1.858-1.09-2.898-3.094-1.03-2.01-1.031-4.772 0-2.122.613-3.784.623-1.67 1.739-2.83a7.5 7.5 0 0 1 2.6-1.764q1.482-.606 3.213-.605 1.482 0 2.761.434a7.4 7.4 0 0 1 2.267 1.21 6.6 6.6 0 0 1 1.628 1.867q.63 1.074.809 2.37zm9.791-5.643V67h-3.631V49.545zm8.367 17.71q-1.986 0-3.435-.843a5.8 5.8 0 0 1-2.224-2.37q-.784-1.524-.784-3.536 0-2.029.784-3.546a5.7 5.7 0 0 1 2.224-2.37q1.449-.85 3.435-.851 1.986 0 3.426.852a5.7 5.7 0 0 1 2.233 2.37q.784 1.515.784 3.545 0 2.01-.784 3.537a5.76 5.76 0 0 1-2.233 2.369q-1.44.843-3.426.844m.017-2.812q.903 0 1.509-.511.604-.52.912-1.415.315-.896.315-2.037t-.315-2.037q-.308-.894-.912-1.415-.606-.52-1.509-.52-.912 0-1.534.52-.614.52-.929 1.415-.306.896-.307 2.037 0 1.142.307 2.037.315.895.929 1.415.622.51 1.534.511M536.929 67V49.545h3.631v6.563h.111a4.8 4.8 0 0 1 .69-1.074q.46-.555 1.193-.92.742-.375 1.841-.375 1.432 0 2.642.75 1.21.741 1.935 2.241.724 1.491.724 3.742 0 2.19-.707 3.699-.699 1.5-1.909 2.275-1.202.767-2.693.767-1.057 0-1.799-.35a3.7 3.7 0 0 1-1.201-.877 4.5 4.5 0 0 1-.716-1.083h-.162V67zm3.554-6.545q0 1.167.324 2.037.324.868.938 1.355.614.477 1.491.477.886 0 1.5-.486.614-.495.929-1.364.324-.877.324-2.02 0-1.133-.315-1.994-.316-.861-.929-1.346-.614-.486-1.509-.486-.886 0-1.5.469-.605.468-.929 1.33-.324.86-.324 2.028m14.913 6.792q-1.253 0-2.233-.434a3.6 3.6 0 0 1-1.551-1.305q-.563-.868-.563-2.164 0-1.09.401-1.833a3.24 3.24 0 0 1 1.091-1.193q.69-.451 1.568-.682.886-.23 1.858-.324 1.142-.119 1.841-.221.699-.111 1.014-.324t.315-.63v-.052q0-.81-.511-1.253-.503-.443-1.432-.443-.98 0-1.56.435a2 2 0 0 0-.767 1.074l-3.358-.273a4.6 4.6 0 0 1 1.006-2.062q.75-.879 1.935-1.347 1.193-.477 2.761-.477a8.4 8.4 0 0 1 2.088.255q1.006.256 1.782.793.783.537 1.235 1.38.452.836.452 2.003V67h-3.443v-1.815h-.102q-.316.614-.844 1.082a3.9 3.9 0 0 1-1.27.725q-.741.255-1.713.255m1.04-2.505q.8 0 1.414-.316a2.5 2.5 0 0 0 .963-.87q.35-.545.35-1.235v-1.39a2 2 0 0 1-.469.205 9 9 0 0 1-.656.162q-.367.069-.733.128l-.665.094a4.5 4.5 0 0 0-1.116.298 1.8 1.8 0 0 0-.742.554q-.264.34-.264.852 0 .743.537 1.134.546.383 1.381.383m12.323-15.197V67h-3.63V49.545zm22.219 0V67h-3.187l-7.594-10.986h-.128V67h-3.69V49.545h3.238l7.534 10.978h.154V49.545zm8.491 17.71q-2.02 0-3.477-.817a5.6 5.6 0 0 1-2.233-2.336q-.784-1.516-.784-3.588 0-2.02.784-3.545a5.8 5.8 0 0 1 2.207-2.378q1.432-.852 3.358-.852 1.296 0 2.412.417 1.125.41 1.96 1.236.844.826 1.313 2.08.468 1.244.468 2.914v.997h-11.054v-2.25h7.637q0-.783-.341-1.389a2.44 2.44 0 0 0-.946-.946q-.597-.35-1.389-.35-.827 0-1.466.384-.631.375-.989 1.015-.359.63-.366 1.406v2.139q0 .972.358 1.679.366.708 1.031 1.09.665.385 1.577.385a3.4 3.4 0 0 0 1.107-.171q.504-.17.861-.511a2.2 2.2 0 0 0 .546-.836l3.358.222a4.6 4.6 0 0 1-1.049 2.114q-.783.894-2.028 1.397-1.236.495-2.855.495m14.885-13.346v2.727h-7.884V53.91zm-6.094-3.136h3.631v12.204q0 .504.153.784.153.273.426.384.282.11.648.11.255 0 .511-.042l.392-.077.571 2.702a10 10 0 0 1-.767.196 6 6 0 0 1-1.201.145q-1.312.052-2.301-.35a3.2 3.2 0 0 1-1.526-1.244q-.546-.843-.537-2.13zM618.845 67l-3.562-13.09h3.673l2.028 8.795h.12l2.113-8.796h3.605l2.148 8.744h.111l1.994-8.744h3.665L631.186 67h-3.844l-2.25-8.233h-.162L622.68 67zm22.963.256q-1.986 0-3.435-.844a5.8 5.8 0 0 1-2.225-2.37q-.784-1.524-.784-3.536 0-2.029.784-3.546a5.7 5.7 0 0 1 2.225-2.37q1.449-.85 3.435-.851 1.985 0 3.426.852a5.7 5.7 0 0 1 2.233 2.37q.784 1.515.784 3.545 0 2.01-.784 3.537a5.76 5.76 0 0 1-2.233 2.369q-1.442.843-3.426.844m.017-2.813q.903 0 1.508-.511.605-.52.912-1.415.315-.896.315-2.037t-.315-2.037q-.307-.894-.912-1.415-.605-.52-1.508-.52-.912 0-1.535.52-.613.52-.928 1.415-.307.896-.307 2.037t.307 2.037q.315.895.928 1.415.623.51 1.535.511M650.156 67V53.91h3.519v2.283h.137q.358-1.218 1.201-1.84a3.16 3.16 0 0 1 1.944-.631q.272 0 .588.034t.554.093v3.222a5 5 0 0 0-.708-.136 6 6 0 0 0-.826-.06q-.801 0-1.432.35a2.57 2.57 0 0 0-.989.954q-.358.614-.358 1.415V67zm12.654-3.767.008-4.355h.529l4.193-4.969h4.167l-5.633 6.58h-.861zM659.52 67V49.545h3.631V67zm8.182 0-3.853-5.702 2.421-2.565L671.955 67zm208.696 414.328h-1.866a1.8 1.8 0 0 0-.209-.643 1.6 1.6 0 0 0-.405-.486 1.8 1.8 0 0 0-.571-.307 2.2 2.2 0 0 0-.694-.106q-.678 0-1.181.336-.503.333-.78.972-.276.635-.277 1.542 0 .934.277 1.569.282.634.784.958.503.324 1.164.324.37 0 .686-.098a1.8 1.8 0 0 0 .567-.285 1.7 1.7 0 0 0 .409-.465q.165-.273.23-.622l1.866.009q-.072.6-.362 1.159-.285.554-.771.993a3.7 3.7 0 0 1-1.151.69 4.2 4.2 0 0 1-1.504.251q-1.169 0-2.088-.528-.916-.528-1.449-1.53-.528-1.002-.528-2.425 0-1.427.536-2.429.537-1.001 1.458-1.525.92-.528 2.071-.529.759 0 1.406.213.652.214 1.155.623.503.404.818.993.32.587.409 1.346m3.105-3.055V487h-1.816v-8.727zm4.411 8.855q-.993 0-1.717-.422a2.9 2.9 0 0 1-1.112-1.185q-.393-.762-.392-1.768 0-1.014.392-1.773a2.86 2.86 0 0 1 1.112-1.185q.724-.426 1.717-.426t1.713.426q.724.423 1.117 1.185.392.759.392 1.773 0 1.006-.392 1.768a2.9 2.9 0 0 1-1.117 1.185q-.72.422-1.713.422m.009-1.406q.451 0 .754-.256a1.6 1.6 0 0 0 .456-.707q.158-.448.158-1.019t-.158-1.018a1.6 1.6 0 0 0-.456-.708 1.12 1.12 0 0 0-.754-.26q-.456 0-.767.26-.308.26-.465.708a3.1 3.1 0 0 0-.153 1.018q0 .571.153 1.019.158.447.465.707.31.255.767.256m8.591-1.509v-3.758h1.815V487h-1.743v-1.189h-.068a1.94 1.94 0 0 1-.737.925q-.511.35-1.249.349-.656 0-1.155-.298a2.06 2.06 0 0 1-.78-.848q-.276-.55-.281-1.317v-4.167h1.816v3.843q.003.58.311.916.306.337.822.337.328 0 .614-.149.285-.153.46-.452.179-.298.175-.737m5.679 2.894q-.745 0-1.351-.384-.6-.388-.954-1.138-.35-.754-.35-1.849 0-1.125.362-1.871.363-.75.963-1.121.606-.375 1.326-.375.55 0 .916.188.37.183.597.46.23.273.349.537h.055v-3.281h1.811V487h-1.789v-1.048h-.077a2.3 2.3 0 0 1-.362.541 1.8 1.8 0 0 1-.601.439q-.367.175-.895.175m.575-1.445q.44 0 .742-.239.306-.242.469-.677.166-.435.166-1.019t-.162-1.014a1.46 1.46 0 0 0-.469-.665 1.2 1.2 0 0 0-.746-.234q-.447 0-.754.243a1.5 1.5 0 0 0-.464.673 2.9 2.9 0 0 0-.158.997q0 .572.158 1.01.16.435.464.682.307.243.754.243m8.162-5.207v1.363h-4.04v-1.363zM903.815 487v-7.018q0-.712.277-1.181.28-.469.767-.703a2.5 2.5 0 0 1 1.104-.234q.417 0 .762.064.35.063.52.115l-.324 1.363a3 3 0 0 0-.264-.064 1.6 1.6 0 0 0-.315-.03q-.4 0-.558.188-.159.183-.158.516V487zm6.039-8.727V487h-1.815v-8.727zm3.321 8.851q-.627 0-1.117-.218a1.8 1.8 0 0 1-.775-.652q-.281-.434-.281-1.082 0-.546.2-.916t.545-.597q.346-.225.784-.341.444-.115.929-.162.572-.06.921-.111.35-.054.507-.161a.36.36 0 0 0 .158-.316v-.025q0-.405-.256-.627-.251-.221-.716-.221-.49 0-.78.217a1 1 0 0 0-.383.537l-1.679-.137q.128-.596.503-1.031.375-.438.967-.673.597-.239 1.381-.239.545 0 1.044.128.503.127.89.396.393.269.618.691.226.417.226 1.001V487h-1.722v-.908h-.051a1.8 1.8 0 0 1-.422.542 2 2 0 0 1-.635.362 2.6 2.6 0 0 1-.856.128m.52-1.253q.4 0 .707-.158.307-.162.482-.435a1.1 1.1 0 0 0 .174-.617v-.695a1 1 0 0 1-.234.102 4 4 0 0 1-.328.081q-.183.034-.367.064l-.332.047a2.2 2.2 0 0 0-.558.149.9.9 0 0 0-.371.277.68.68 0 0 0-.132.426q0 .37.268.567.273.192.691.192m4.574 1.129v-6.545h1.76v1.142h.068q.18-.61.601-.921.422-.315.972-.315a2.6 2.6 0 0 1 .571.064v1.611a3 3 0 0 0-.767-.098q-.4 0-.716.174a1.3 1.3 0 0 0-.494.477q-.18.308-.179.708V487zm7.589.128q-1.01 0-1.739-.409a2.8 2.8 0 0 1-1.116-1.168q-.392-.759-.392-1.794 0-1.01.392-1.773a2.9 2.9 0 0 1 1.103-1.189q.716-.426 1.679-.426.648 0 1.206.209.563.204.98.618.422.413.657 1.04.234.622.234 1.457v.499h-5.527v-1.125h3.818q0-.393-.17-.695a1.23 1.23 0 0 0-.473-.473 1.36 1.36 0 0 0-.695-.175q-.413 0-.733.192-.315.188-.494.507a1.43 1.43 0 0 0-.183.703v1.07q0 .486.179.84.183.353.515.545.333.192.789.192.302 0 .554-.085.251-.086.43-.256t.273-.418l1.679.111q-.128.605-.524 1.057-.393.447-1.015.699-.617.246-1.427.247m6.668-7.334v-1.521h7.167v1.521h-2.672V487h-1.823v-7.206zm11.62 4.419v-3.758h1.816V487h-1.743v-1.189h-.068a1.94 1.94 0 0 1-.737.925q-.512.35-1.249.349-.656 0-1.155-.298a2.06 2.06 0 0 1-.78-.848q-.276-.55-.281-1.317v-4.167h1.815v3.843q.005.58.311.916.307.337.823.337.328 0 .614-.149.285-.153.46-.452.179-.298.174-.737m5.083-.997V487h-1.815v-6.545h1.73v1.154h.077q.217-.57.728-.903.512-.337 1.24-.337.682 0 1.189.299.507.298.789.852.28.55.281 1.312V487h-1.815v-3.844q.003-.6-.307-.937-.312-.341-.857-.341-.366 0-.647.158-.278.157-.435.46a1.6 1.6 0 0 0-.158.72m7.465 0V487h-1.815v-6.545h1.73v1.154h.077q.216-.57.728-.903.512-.337 1.24-.337.682 0 1.189.299.507.298.789.852.28.55.281 1.312V487h-1.816v-3.844q.005-.6-.306-.937-.312-.341-.857-.341-.366 0-.648.158a1.1 1.1 0 0 0-.434.46 1.6 1.6 0 0 0-.158.72m8.633 3.912q-1.01 0-1.739-.409a2.8 2.8 0 0 1-1.117-1.168q-.392-.759-.392-1.794 0-1.01.392-1.773.393-.762 1.104-1.189.716-.426 1.679-.426.648 0 1.206.209.563.204.98.618.422.413.656 1.04.235.622.235 1.457v.499h-5.527v-1.125h3.818q0-.393-.17-.695a1.23 1.23 0 0 0-.473-.473 1.36 1.36 0 0 0-.695-.175q-.414 0-.733.192-.315.188-.494.507a1.43 1.43 0 0 0-.184.703v1.07q0 .486.179.84.184.353.516.545t.788.192q.303 0 .554-.085t.431-.256a1.1 1.1 0 0 0 .272-.418l1.679.111q-.128.605-.524 1.057a2.6 2.6 0 0 1-1.014.699q-.618.246-1.427.247m6.004-8.855V487h-1.816v-8.727z"/><path fill="#C5EBF5" fill-rule="evenodd" stroke="#0055DC" stroke-miterlimit="10" stroke-width="1.5" d="M120.241 270H32.397c-2.328 0-4.41 1.96-4.41 4.411v57.705h96.665v-57.705c0-2.451-2.083-4.411-4.411-4.411Z" clip-rule="evenodd"/><path fill="#0055DC" d="M76.258 274.288a.735.735 0 1 0 0-1.47.735.735 0 0 0 0 1.47"/><path fill="#fff" d="M128.45 336.526H24.066c-5.39 0-9.066-.857-9.066-1.592v-2.451c0-.245.245-.49.49-.49h121.414c.245 0 .49.245.49.49v2.451c.122.735-2.696 1.592-8.944 1.592"/><path stroke="#0055DC" stroke-miterlimit="10" stroke-width="1.5" d="M128.45 336.526H24.066c-5.39 0-9.066-.857-9.066-1.592v-2.451c0-.245.245-.49.49-.49h121.414c.245 0 .49.245.49.49v2.451c.122.735-2.696 1.592-8.944 1.592Z" clip-rule="evenodd"/><path fill="#C5EBF5" d="M137.516 332.483c0-.245-.245-.49-.49-.49H15.612c-.245 0-.49.245-.49.49v2.328h122.516v-2.328z"/><path stroke="#0055DC" stroke-miterlimit="10" stroke-width="1.5" d="M128.45 336.526H24.066c-5.39 0-9.066-.857-9.066-1.592v-2.451c0-.245.245-.49.49-.49h121.414c.245 0 .49.245.49.49v2.451c.122.735-2.696 1.592-8.944 1.592Z"/><path fill="#fff" d="M120.609 276.861H31.907v51.702h88.702z"/><path fill="#0055DC" fill-rule="evenodd" d="M89.612 332.238v.49c0 .368-.735.49-1.347.49H64.374c-.612 0-1.348-.122-1.348-.49v-.49" clip-rule="evenodd"/><path fill="#fff" stroke="#0055DC" stroke-miterlimit="10" stroke-width="1.5" d="M76.302 323.906c12.388 0 22.43-10.043 22.43-22.431s-10.042-22.43-22.43-22.43-22.43 10.042-22.43 22.43 10.042 22.431 22.43 22.431Z"/><path fill="#003682" d="M75.385 293.061a1 1 0 0 1 1.673 0l.318.485a1 1 0 0 0 1.42.266l.469-.337a1 1 0 0 1 1.56.604l.123.575a1 1 0 0 0 1.227.759l.561-.144a1 1 0 0 1 1.237 1.125l-.094.588a1 1 0 0 0 .868 1.149l.583.071a1 1 0 0 1 .746 1.494l-.301.519a1 1 0 0 0 .394 1.383l.524.281a1 1 0 0 1 .155 1.662l-.467.374a1 1 0 0 0-.132 1.432l.39.454a1 1 0 0 1-.457 1.606l-.564.178a1 1 0 0 0-.642 1.288l.2.564a1 1 0 0 1-1.008 1.333l-.581-.039a1 1 0 0 0-1.066.971l-.016.592a1 1 0 0 1-1.422.879l-.524-.244a1 1 0 0 0-1.346.521l-.224.539a1 1 0 0 1-1.646.307l-.4-.418a1 1 0 0 0-1.444 0l-.4.418a1 1 0 0 1-1.645-.307l-.224-.539a1 1 0 0 0-1.346-.521l-.524.244a1 1 0 0 1-1.423-.879l-.016-.592a1 1 0 0 0-1.065-.971l-.582.039a1 1 0 0 1-1.008-1.333l.2-.564a1 1 0 0 0-.641-1.288l-.564-.178a1 1 0 0 1-.458-1.606l.391-.454a1 1 0 0 0-.133-1.432l-.466-.374a1 1 0 0 1 .154-1.662l.525-.281a1 1 0 0 0 .394-1.383l-.301-.519a1 1 0 0 1 .745-1.494l.583-.071a1 1 0 0 0 .868-1.149l-.093-.588a1 1 0 0 1 1.237-1.125l.561.144a1 1 0 0 0 1.227-.759l.123-.575a1 1 0 0 1 1.56-.604l.47.337a1 1 0 0 0 1.419-.266z"/><path fill="#C5EBF5" stroke="#003682" stroke-miterlimit="10" stroke-width="1.5" d="M69.224 313.16a15.8 15.8 0 0 0 3.22-2.343v-5.92l7.799.092v5.569c.356.691 1.7 1.541 3.494 2.548 0 0-3.337 4.978-7.529 4.978-4.191 0-6.984-4.924-6.984-4.924Z"/><path fill="#0055DC" stroke="#003682" stroke-miterlimit="10" stroke-width="1.5" d="M76.303 323.906a22.35 22.35 0 0 0 15.059-5.808 35 35 0 0 0-7.582-4.953s-3.38 4.938-7.571 4.938c-4.192 0-7.006-4.875-7.006-4.875-2.573 1.451-5.729 2.816-8.094 4.763a22.35 22.35 0 0 0 15.194 5.935Z"/><path fill="#C5EBF5" stroke="#003682" stroke-miterlimit="10" stroke-width="1.5" d="M83.739 297.414a1.23 1.23 0 0 1 .616-.787 1.24 1.24 0 0 1 .996-.076c.975.294.426 3.834-2.299 3.708q.425-1.402.687-2.845Zm-14.876 0a1.3 1.3 0 0 0-.644-.796 1.27 1.27 0 0 0-1.022-.067c-.85.345-.426 3.834 2.3 3.709a23 23 0 0 1-.634-2.846Z"/><path fill="#C5EBF5" stroke="#003682" stroke-miterlimit="10" stroke-width="1.5" d="M84.092 294.164c0 2.022-.74 6.14-2.04 8.626-.966 1.846-3.452 3.901-5.712 3.901s-4.491-2.055-5.712-3.9c-1.548-2.34-2.04-6.605-2.04-8.627a7.753 7.753 0 0 1 15.504 0Z"/><path fill="#003682" stroke="#003682" stroke-linejoin="round" stroke-width="1.5" d="M83.692 296.71c-.362-3.081-3.35-7.182-6.688-7.182l-.55-2.553 1.033 2.582c0 5.584-8.28 4.092-8.625 7.781l-.132-.132a22.4 22.4 0 0 1-.275-3.25c0-4.282 3.604-7.62 7.885-7.62a7.87 7.87 0 0 1 7.885 7.753 16 16 0 0 1-.436 3.157z"/><path stroke="#0055DC" stroke-miterlimit="10" stroke-width="1.5" d="M76.302 323.906c12.388 0 22.43-10.043 22.43-22.431s-10.042-22.43-22.43-22.43-22.43 10.042-22.43 22.43 10.042 22.431 22.43 22.431Z"/><path fill="#222" d="M38.526 344.273V353H36.68v-8.727zm3.299 4.943V353H40.01v-6.545h1.73v1.154h.076a1.83 1.83 0 0 1 .73-.903q.51-.337 1.24-.337.681 0 1.188.299.507.298.788.852.282.55.282 1.312V353h-1.816v-3.844q.004-.6-.306-.937-.312-.341-.857-.341-.366 0-.648.158-.277.157-.434.46a1.6 1.6 0 0 0-.158.72m9.131-2.761v1.363h-3.942v-1.363zm-3.047-1.569h1.815v6.103a.8.8 0 0 0 .077.392.42.42 0 0 0 .213.191.9.9 0 0 0 .324.056q.127 0 .256-.021l.196-.039.285 1.351q-.136.042-.383.098-.247.06-.601.072-.657.026-1.15-.174a1.6 1.6 0 0 1-.763-.622q-.273-.423-.269-1.066zm7.142 8.242q-1.01 0-1.739-.409a2.8 2.8 0 0 1-1.116-1.168q-.392-.759-.392-1.794 0-1.01.392-1.773t1.104-1.189q.716-.426 1.679-.426.647 0 1.206.209.562.204.98.618.422.413.656 1.04.234.622.234 1.457v.499h-5.527v-1.125h3.819a1.4 1.4 0 0 0-.17-.695 1.2 1.2 0 0 0-.474-.473 1.35 1.35 0 0 0-.695-.175q-.413 0-.732.192-.315.188-.495.507-.18.316-.183.703v1.07q0 .486.179.84.183.353.516.545.332.192.788.192.302 0 .554-.085a1.11 1.11 0 0 0 .703-.674l1.679.111q-.128.605-.524 1.057a2.64 2.64 0 0 1-1.014.699q-.618.246-1.428.247m4.19-.128v-6.545H61v1.142h.068q.18-.61.601-.921a1.58 1.58 0 0 1 .972-.315 2.6 2.6 0 0 1 .57.064v1.611a3.2 3.2 0 0 0-.767-.098q-.4 0-.715.174a1.3 1.3 0 0 0-.495.477q-.179.308-.179.708V353zm6.725-3.784V353H64.15v-6.545h1.73v1.154h.077a1.83 1.83 0 0 1 .729-.903q.51-.337 1.24-.337.68 0 1.189.299.506.298.788.852.282.55.281 1.312V353H68.37v-3.844q.004-.6-.307-.937-.311-.341-.856-.341-.367 0-.648.158-.278.157-.435.46a1.6 1.6 0 0 0-.157.72m8.632 3.912q-1.01 0-1.739-.409a2.8 2.8 0 0 1-1.116-1.168q-.392-.759-.392-1.794 0-1.01.392-1.773t1.104-1.189q.716-.426 1.679-.426.647 0 1.206.209.561.204.98.618.421.413.656 1.04.234.622.234 1.457v.499h-5.527v-1.125h3.819q0-.393-.171-.695a1.2 1.2 0 0 0-.473-.473 1.35 1.35 0 0 0-.695-.175q-.413 0-.733.192-.315.188-.494.507-.18.316-.183.703v1.07q0 .486.179.84.183.353.516.545.332.192.788.192.302 0 .554-.085.25-.086.43-.256t.273-.418l1.679.111q-.128.605-.524 1.057a2.64 2.64 0 0 1-1.014.699q-.618.246-1.428.247m7.67-6.673v1.363h-3.941v-1.363zm-3.046-1.569h1.815v6.103a.8.8 0 0 0 .077.392.42.42 0 0 0 .213.191.9.9 0 0 0 .324.056q.127 0 .255-.021l.196-.039.286 1.351q-.136.042-.384.098-.248.06-.6.072-.657.026-1.151-.174a1.6 1.6 0 0 1-.763-.622q-.273-.423-.268-1.066zm12.431-.613h1.845v5.667q0 .955-.456 1.671a3.05 3.05 0 0 1-1.265 1.116q-.814.396-1.897.397-1.087 0-1.9-.397a3.05 3.05 0 0 1-1.266-1.116q-.452-.716-.452-1.671v-5.667h1.846v5.51q0 .498.217.886.222.389.622.609.4.222.933.222.538 0 .934-.222.4-.22.618-.609.22-.387.221-.886zm8.775 4.048-1.662.102a.86.86 0 0 0-.183-.383 1 1 0 0 0-.37-.277 1.3 1.3 0 0 0-.542-.107q-.421 0-.712.179-.29.175-.29.469 0 .234.188.396t.644.26l1.184.239q.955.196 1.424.631.468.434.468 1.142 0 .643-.379 1.129-.375.486-1.031.758-.652.269-1.504.269-1.3 0-2.071-.541a2.1 2.1 0 0 1-.9-1.483l1.786-.094a.92.92 0 0 0 .392.605q.31.205.797.205.477 0 .767-.184.294-.187.298-.481a.5.5 0 0 0-.209-.405q-.204-.162-.63-.247l-1.134-.226q-.959-.191-1.427-.665-.465-.472-.465-1.206 0-.63.341-1.086.346-.456.967-.704.627-.246 1.466-.247 1.24 0 1.952.524.716.525.835 1.428m4.275 4.807q-1.01 0-1.738-.409a2.8 2.8 0 0 1-1.117-1.168q-.392-.759-.392-1.794 0-1.01.392-1.773.393-.762 1.104-1.189.716-.426 1.679-.426.648 0 1.206.209.563.204.98.618.422.413.656 1.04.235.622.235 1.457v.499h-5.527v-1.125H106q0-.393-.171-.695a1.2 1.2 0 0 0-.473-.473 1.35 1.35 0 0 0-.694-.175q-.414 0-.733.192-.315.188-.494.507a1.43 1.43 0 0 0-.184.703v1.07q0 .486.179.84.183.353.516.545.332.192.788.192.303 0 .554-.085t.431-.256a1.1 1.1 0 0 0 .272-.418l1.679.111q-.128.605-.524 1.057a2.6 2.6 0 0 1-1.014.699q-.618.246-1.428.247m4.189-.128v-6.545h1.76v1.142h.069q.178-.61.6-.921.422-.315.972-.315a2.6 2.6 0 0 1 .571.064v1.611a3 3 0 0 0-.767-.098q-.4 0-.716.174a1.3 1.3 0 0 0-.494.477q-.18.308-.179.708V353z"/><path fill="#0055DC" d="M1018.03 51.468h-18.921a7.124 7.124 0 0 1-7.109-7.11 7.3 7.3 0 0 1 2.6-5.514 6.8 6.8 0 0 1 4.846-1.595 9.64 9.64 0 0 1 10.124-5.94 9.63 9.63 0 0 1 8.36 8.234 5.8 5.8 0 0 1 4 1.361 6 6 0 0 1 1.88 3.05 6 6 0 0 1-.18 3.577 6.07 6.07 0 0 1-2.19 2.84 6.03 6.03 0 0 1-3.41 1.096zm-19.033-12.234a4.77 4.77 0 0 0-3.111 1.14A5.28 5.28 0 0 0 994 44.36a5.115 5.115 0 0 0 5.095 5.11h18.935a4 4 0 0 0 2.81-1.165 4 4 0 0 0 1.16-2.807c.01-.58-.11-1.153-.35-1.683a4 4 0 0 0-1.01-1.387 4.14 4.14 0 0 0-3.46-.809l-1.13.182-.03-1.141a7.6 7.6 0 0 0-1.96-4.89 7.63 7.63 0 0 0-9.79-1.331 7.6 7.6 0 0 0-3.19 4.19l-.26.844-.87-.154a5.5 5.5 0 0 0-.953-.084"/><path fill="#222" d="M1033.01 27V15.364h4.59c.88 0 1.64.168 2.26.505.62.334 1.09.798 1.42 1.392.33.591.49 1.273.49 2.046s-.16 1.454-.5 2.045a3.4 3.4 0 0 1-1.45 1.381c-.62.33-1.39.494-2.28.494h-2.93v-1.971h2.53q.72 0 1.17-.245c.31-.166.54-.395.7-.687.15-.296.23-.635.23-1.017 0-.386-.08-.724-.23-1.011a1.6 1.6 0 0 0-.7-.677c-.31-.163-.7-.244-1.18-.244h-1.66V27zm15.74-3.716v-5.011h2.42V27h-2.33v-1.585h-.09c-.2.511-.52.922-.98 1.233-.46.31-1.01.466-1.67.466-.58 0-1.09-.133-1.54-.398a2.76 2.76 0 0 1-1.04-1.13c-.24-.49-.37-1.075-.37-1.756v-5.557h2.42v5.125c0 .515.14.922.41 1.221.28.3.64.45 1.1.45.29 0 .57-.067.82-.2.25-.136.46-.337.61-.602q.24-.398.24-.983m4.22 3.716V15.364h2.42v4.375h.08c.1-.235.26-.474.46-.716.2-.247.47-.451.79-.614q.495-.25 1.23-.25c.64 0 1.22.167 1.76.5q.81.495 1.29 1.494.48.995.48 2.495c0 .973-.15 1.795-.47 2.466-.31.666-.73 1.172-1.27 1.517-.54.34-1.13.511-1.8.511q-.705 0-1.2-.233a2.6 2.6 0 0 1-.8-.585 3.2 3.2 0 0 1-.47-.722h-.11V27zm2.37-4.364c0 .52.07.972.22 1.358a2 2 0 0 0 .62.904c.27.212.61.318 1 .318s.72-.108 1-.324c.27-.22.48-.523.62-.909q.21-.586.21-1.347 0-.755-.21-1.33a2 2 0 0 0-.62-.897c-.27-.216-.61-.324-1-.324-.4 0-.73.104-1 .313-.27.208-.48.503-.62.886-.15.383-.22.833-.22 1.352m10-7.272V27h-2.42V15.364zM1067.11 27v-8.727h2.42V27zm1.21-9.852c-.36 0-.67-.12-.92-.358a1.15 1.15 0 0 1-.39-.87q0-.5.39-.857c.25-.243.56-.364.92-.364s.67.121.92.364q.39.357.39.857 0 .506-.39.87a1.3 1.3 0 0 1-.92.358m6.91 10.023c-.89 0-1.66-.19-2.3-.569a3.8 3.8 0 0 1-1.48-1.59q-.51-1.018-.51-2.341 0-1.342.51-2.353c.35-.678.85-1.206 1.49-1.585q.96-.574 2.28-.574c.76 0 1.43.138 2 .415a3.34 3.34 0 0 1 1.36 1.165c.33.5.52 1.087.55 1.761h-2.28c-.07-.436-.24-.786-.52-1.051-.27-.27-.63-.404-1.07-.404-.37 0-.7.103-.98.307-.28.201-.49.495-.65.881s-.23.854-.23 1.403c0 .557.07 1.03.22 1.42q.24.586.66.893c.28.204.61.307.98.307a1.54 1.54 0 0 0 1.3-.665c.14-.22.24-.483.29-.79h2.28c-.04.667-.22 1.254-.55 1.762-.32.503-.76.897-1.33 1.181s-1.24.427-2.02.427m-38.29 24c-.89 0-1.67-.182-2.32-.546a3.7 3.7 0 0 1-1.48-1.557c-.35-.674-.53-1.471-.53-2.392 0-.898.18-1.686.53-2.364.34-.677.84-1.206 1.47-1.585.63-.378 1.38-.568 2.24-.568.57 0 1.11.093 1.6.279.5.181.94.456 1.31.823.38.368.67.83.88 1.387.2.553.31 1.2.31 1.943v.665h-7.37v-1.5h5.09c0-.349-.08-.657-.23-.926a1.6 1.6 0 0 0-.63-.631 1.77 1.77 0 0 0-.92-.233c-.37 0-.7.085-.98.256q-.42.25-.66.676-.24.42-.24.937v1.426c0 .432.08.805.23 1.12q.255.47.69.727.45.255 1.05.256c.27 0 .52-.038.74-.114.23-.076.42-.19.58-.34.15-.152.28-.338.36-.558l2.24.148a3.14 3.14 0 0 1-.7 1.41q-.525.595-1.35.93c-.55.22-1.19.33-1.91.33m7.83-5.216V51h-2.42v-8.727h2.31v1.54h.1c.19-.508.52-.91.97-1.205.46-.3 1.01-.449 1.66-.449.6 0 1.13.133 1.58.398q.675.398 1.05 1.136c.25.489.38 1.072.38 1.75V51h-2.42v-5.125c0-.534-.14-.95-.41-1.25q-.42-.455-1.14-.455-.495 0-.87.21c-.24.14-.44.345-.58.614q-.195.399-.21.96m10.58 5.187c-.67 0-1.27-.17-1.81-.511-.53-.345-.95-.85-1.27-1.517-.31-.67-.46-1.493-.46-2.466q0-1.5.48-2.495c.32-.666.75-1.164 1.28-1.494q.81-.5 1.77-.5c.49 0 .9.083 1.22.25.33.163.6.367.8.614.2.242.36.48.46.716h.08v-4.375h2.41V51h-2.39v-1.398h-.1q-.165.364-.48.722c-.2.235-.47.43-.8.585s-.72.233-1.19.233m.76-1.926q.585 0 .99-.318.405-.324.63-.904c.14-.386.22-.839.22-1.358s-.07-.97-.22-1.352c-.14-.383-.35-.678-.62-.886a1.62 1.62 0 0 0-1-.313c-.4 0-.73.108-1 .324-.28.216-.48.515-.62.898q-.21.573-.21 1.33 0 .76.21 1.346c.14.386.35.69.62.909.27.216.6.324 1 .324m6.02 5.057v-12h2.38v1.466h.11c.11-.235.26-.474.46-.716.2-.247.47-.451.8-.614.32-.167.73-.25 1.22-.25.64 0 1.23.167 1.76.5q.81.495 1.29 1.494c.33.663.49 1.495.49 2.495 0 .973-.16 1.795-.47 2.466-.32.666-.74 1.172-1.28 1.517-.53.34-1.13.511-1.79.511q-.705 0-1.2-.233a2.4 2.4 0 0 1-.8-.585q-.315-.359-.48-.722h-.07v4.67zm2.36-7.637c0 .52.08.972.22 1.358q.21.58.63.904.405.318.99.318c.39 0 .73-.108 1-.324.27-.22.48-.523.62-.909.14-.39.22-.84.22-1.347 0-.503-.07-.947-.22-1.33-.14-.382-.34-.681-.61-.897-.28-.216-.61-.324-1.01-.324-.39 0-.73.104-1 .313-.27.208-.48.503-.62.886s-.22.833-.22 1.352m11.53 4.534c-.88 0-1.65-.187-2.29-.562a3.9 3.9 0 0 1-1.49-1.58c-.34-.678-.52-1.464-.52-2.358 0-.901.18-1.689.52-2.363a3.83 3.83 0 0 1 1.49-1.58c.64-.378 1.41-.568 2.29-.568q1.32 0 2.28.568a3.77 3.77 0 0 1 1.49 1.58c.35.674.52 1.462.52 2.363 0 .894-.17 1.68-.52 2.358a3.8 3.8 0 0 1-1.49 1.58q-.96.563-2.28.563m.01-1.875c.4 0 .74-.113 1-.34.27-.231.48-.546.61-.944q.21-.596.21-1.358 0-.76-.21-1.358a2.06 2.06 0 0 0-.61-.943c-.26-.23-.6-.346-1-.346q-.615 0-1.02.346c-.28.231-.48.546-.62.944q-.21.596-.21 1.357t.21 1.358c.14.398.34.712.62.944q.405.34 1.02.34m5.68 1.705v-8.727h2.42V51zm1.22-9.852q-.54 0-.93-.358a1.174 1.174 0 0 1 0-1.727q.39-.364.93-.364c.36 0 .66.121.92.364a1.174 1.174 0 0 1 0 1.727c-.26.238-.56.358-.92.358m5.38 4.807V51h-2.42v-8.727h2.31v1.54h.1c.2-.508.52-.91.97-1.205.46-.3 1.01-.449 1.66-.449.6 0 1.13.133 1.58.398q.675.398 1.05 1.136c.25.489.38 1.072.38 1.75V51h-2.42v-5.125c0-.534-.13-.95-.41-1.25q-.42-.455-1.14-.455-.495 0-.87.21c-.24.14-.43.345-.58.614q-.195.399-.21.96m12-3.682v1.818h-5.25v-1.818zm-4.06-2.091h2.42v8.136c0 .224.04.398.1.523.07.121.17.206.29.256.12.049.27.073.43.073.11 0 .23-.009.34-.028.11-.023.2-.04.26-.051l.38 1.801q-.18.057-.51.13a4 4 0 0 1-.8.097q-.87.034-1.53-.233a2.1 2.1 0 0 1-1.02-.83q-.36-.561-.36-1.42zm12.62 4.58-2.22.136q-.06-.284-.24-.512a1.3 1.3 0 0 0-.5-.369 1.7 1.7 0 0 0-.72-.142c-.37 0-.69.08-.95.239q-.39.232-.39.625c0 .208.09.384.25.528.17.144.46.26.86.347l1.58.318c.85.174 1.48.454 1.9.84q.63.58.63 1.523 0 .858-.51 1.506-.495.649-1.38 1.011c-.58.24-1.24.358-2 .358q-1.74 0-2.76-.721a2.83 2.83 0 0 1-1.2-1.977l2.38-.125c.07.352.25.62.52.806.28.182.63.273 1.06.273s.77-.081 1.03-.244q.39-.25.39-.642 0-.33-.27-.54-.285-.216-.84-.33l-1.52-.3c-.85-.171-1.48-.467-1.9-.887-.41-.42-.62-.956-.62-1.608 0-.56.15-1.044.46-1.449q.45-.608 1.29-.937.825-.33 1.95-.33c1.1 0 1.97.233 2.6.699.64.466 1.01 1.1 1.12 1.903M534.032 540v-11.636h4.591q1.323 0 2.256.505a3.43 3.43 0 0 1 1.42 1.392q.495.887.494 2.046 0 1.159-.5 2.045a3.45 3.45 0 0 1-1.449 1.381q-.942.494-2.284.494h-2.926v-1.971h2.529q.71 0 1.17-.245.467-.249.693-.687.233-.444.233-1.017 0-.58-.233-1.012a1.55 1.55 0 0 0-.693-.676q-.465-.244-1.182-.244h-1.659V540zm15.735-3.716v-5.011h2.42V540h-2.324v-1.585h-.091a2.6 2.6 0 0 1-.983 1.233q-.681.465-1.665.466-.875 0-1.539-.398a2.73 2.73 0 0 1-1.04-1.131q-.369-.733-.375-1.755v-5.557h2.42v5.125q.006.772.415 1.221t1.097.449q.437 0 .818-.199.38-.204.614-.602.238-.398.233-.983m4.225 3.716v-11.636h2.421v4.375h.074q.159-.353.46-.716.308-.37.795-.614.495-.25 1.228-.25.954 0 1.761.5.807.495 1.29 1.494.483.995.483 2.495 0 1.46-.472 2.466-.466 1-1.272 1.517a3.27 3.27 0 0 1-1.796.511q-.705 0-1.199-.233a2.5 2.5 0 0 1-.801-.585 3 3 0 0 1-.477-.722h-.108V540zm2.37-4.364q0 .779.216 1.358t.625.904q.409.318.994.318.59 0 1-.324.41-.33.619-.909.216-.585.216-1.347 0-.755-.21-1.329t-.619-.898-1.006-.324q-.59 0-1 .313-.403.313-.619.886-.216.574-.216 1.352m10.001-7.272V540h-2.42v-11.636zM568.126 540v-8.727h2.421V540zm1.216-9.852q-.54 0-.926-.358a1.16 1.16 0 0 1-.381-.87q0-.5.381-.858.387-.363.926-.363.54 0 .921.363.386.359.386.858 0 .506-.386.87a1.3 1.3 0 0 1-.921.358m6.911 10.022q-1.341 0-2.307-.568a3.83 3.83 0 0 1-1.477-1.591q-.512-1.017-.512-2.341 0-1.34.517-2.352a3.85 3.85 0 0 1 1.483-1.585q.961-.574 2.284-.574 1.143 0 2 .415a3.34 3.34 0 0 1 1.358 1.165q.5.75.552 1.761h-2.285q-.096-.654-.511-1.051-.41-.404-1.074-.404-.562 0-.983.307-.414.302-.647.881-.233.58-.233 1.403 0 .836.227 1.421.233.585.653.892t.983.307q.415 0 .745-.171.335-.17.551-.494.221-.33.289-.79h2.285q-.057 1-.546 1.761a3.3 3.3 0 0 1-1.335 1.182q-.852.426-2.017.426m12.776 0q-1.347 0-2.318-.545a3.73 3.73 0 0 1-1.489-1.557q-.523-1.01-.523-2.392 0-1.346.523-2.364a3.86 3.86 0 0 1 1.471-1.585q.955-.568 2.239-.568.864 0 1.608.279.75.272 1.307.823.563.552.875 1.387.312.829.312 1.943v.665h-7.369v-1.5h5.091q0-.524-.227-.926a1.63 1.63 0 0 0-.631-.631 1.8 1.8 0 0 0-.926-.233q-.552 0-.977.256-.421.25-.659.676-.24.42-.245.937v1.426q0 .648.239 1.12.245.471.687.727.444.255 1.051.256.404 0 .739-.114.336-.114.574-.341t.364-.557l2.238.148a3.04 3.04 0 0 1-.699 1.409q-.522.596-1.352.932-.824.33-1.903.329m8.625-.028q-.994 0-1.801-.511-.801-.518-1.273-1.517-.466-1.007-.466-2.466 0-1.5.483-2.495.483-.999 1.284-1.494a3.3 3.3 0 0 1 1.767-.5q.733 0 1.222.25.494.245.795.614.307.363.466.716h.074v-4.375h2.415V540h-2.387v-1.398h-.102a3.1 3.1 0 0 1-.483.722q-.306.352-.801.585-.488.233-1.193.233m.767-1.926q.585 0 .989-.318.409-.324.625-.904.22-.58.221-1.358 0-.778-.216-1.352-.216-.573-.625-.886t-.994-.313q-.597 0-1.006.324t-.619.898-.21 1.329q0 .762.21 1.347.216.579.619.909.41.324 1.006.324m9.945 5.239q-1.177 0-2.017-.324-.835-.318-1.33-.87a2.66 2.66 0 0 1-.642-1.238l2.239-.301q.102.261.323.488.222.228.586.364.369.142.897.142.79 0 1.302-.386.517-.38.517-1.279v-1.596h-.103a2.3 2.3 0 0 1-.477.687 2.4 2.4 0 0 1-.818.528q-.5.205-1.193.205a3.6 3.6 0 0 1-1.79-.455q-.801-.46-1.278-1.403-.472-.95-.472-2.398 0-1.482.483-2.477t1.284-1.489a3.3 3.3 0 0 1 1.767-.494q.734 0 1.227.25.495.245.796.614.307.363.471.716h.091v-1.466h2.404v8.812q0 1.114-.546 1.864-.545.75-1.511 1.125-.96.381-2.21.381m.051-5.398q.585 0 .988-.29.41-.295.625-.841.222-.551.222-1.318t-.216-1.33q-.216-.568-.625-.88t-.994-.313q-.597 0-1.006.324-.41.318-.619.886a3.8 3.8 0 0 0-.21 1.313q0 .755.21 1.307.216.545.619.846.41.296 1.006.296m9.943 2.113q-1.346 0-2.318-.545a3.73 3.73 0 0 1-1.489-1.557q-.522-1.01-.522-2.392 0-1.346.522-2.364a3.87 3.87 0 0 1 1.472-1.585q.954-.568 2.238-.568.864 0 1.608.279.75.272 1.307.823.563.552.875 1.387.313.829.313 1.943v.665h-7.37v-1.5h5.091q0-.524-.227-.926a1.6 1.6 0 0 0-.631-.631 1.8 1.8 0 0 0-.926-.233q-.55 0-.977.256-.42.25-.659.676-.239.42-.244.937v1.426q0 .648.238 1.12.244.471.688.727.443.255 1.051.256.404 0 .738-.114.336-.114.574-.341.239-.227.364-.557l2.239.148a3.06 3.06 0 0 1-.699 1.409q-.524.596-1.353.932-.823.33-1.903.329"/><path fill="#E2F5FA" stroke="#0055DC" stroke-width="2" d="M991 391h151v154H991z"/><path fill="#C5EBF5" stroke="#0055DC" stroke-miterlimit="10" stroke-width="1.5" d="M1008.38 381.528h-3.16v-20.715h1.75v1.978h1.41z"/><path fill="#fff" d="M1007.6 364.768h-2.32v16.669h2.32z"/><path fill="#0055DC" d="M1007.09 365.528h.5v-.76h-.5zm-1.16 0h.51v-.76h-.51zm1.16 2.423h.5v-.76h-.5zm-1.16 0h.51v-.76h-.51zm1.16 2.422h.5v-.76h-.5zm-1.16 0h.51v-.76h-.51zm1.16 2.422h.5v-.76h-.5zm-1.16 0h.51v-.76h-.51zm1.16 2.423h.5v-.76h-.5zm-1.16 0h.51v-.76h-.51zm1.16 2.422h.5v-.76h-.5zm-1.16 0h.51v-.76h-.51zm1.16 2.422h.5v-.76h-.5zm-1.16 0h.51v-.76h-.51zm3-16.003h-.55v17.469h.55z"/><path fill="#C5EBF5" stroke="#0055DC" stroke-miterlimit="10" stroke-width="1.5" d="M993.25 381.528h3.163v-20.715h-1.757v1.978h-1.406z"/><path fill="#fff" d="M996.352 364.768h-2.311v16.669h2.311z"/><path fill="#0055DC" d="M994.542 364.768h-.501v.76h.501zm1.151 0h-.501v.76h.501zm-1.151 2.422h-.501v.761h.501zm1.151 0h-.501v.761h.501zm-1.151 2.423h-.501v.76h.501zm1.151 0h-.501v.76h.501zm-1.151 2.422h-.501v.76h.501zm1.151 0h-.501v.76h.501zm-1.151 2.423h-.501v.76h.501zm1.151 0h-.501v.76h.501zm-1.151 2.422h-.501v.76h.501zm1.151 0h-.501v.76h.501zm-1.151 2.422h-.501v.76h.501zm1.151 0h-.501v.76h.501zm-2.443-15.243h-.554v17.469h.554z"/><path fill="#fff" stroke="#0055DC" stroke-miterlimit="10" stroke-width="1.5" d="M1005.22 357h-8.807v24.527h8.807z"/><path fill="#003682" d="M1002.36 378.153h-3.095v3.374h3.095z"/><path fill="#C5EBF5" d="M999.433 360.813h-2.14v3.245h2.14zm2.447 0h-2.136v3.245h2.136zm2.46 0h-2.14v3.245h2.14zm-4.907 4.335h-2.14v3.245h2.14zm2.447 0h-2.136v3.245h2.136zm2.46 0h-2.14v3.245h2.14zm-4.907 4.335h-2.14v3.245h2.14zm2.447 0h-2.136v3.245h2.136zm2.46 0h-2.14v3.245h2.14zm-4.907 4.335h-2.14v3.246h2.14zm2.447 0h-2.136v3.246h2.136zm2.46 0h-2.14v3.246h2.14z"/><path stroke="#0055DC" stroke-miterlimit="10" stroke-width="1.5" d="M990 381.527h21.57"/><path fill="#222" d="M1017.01 358v-11.636h4.59c.88 0 1.64.168 2.26.505.62.334 1.09.798 1.42 1.392.33.591.49 1.273.49 2.046s-.16 1.454-.5 2.045a3.4 3.4 0 0 1-1.45 1.381c-.62.329-1.39.494-2.28.494h-2.93v-1.971h2.53q.72 0 1.17-.245c.31-.166.54-.395.7-.687.15-.296.23-.635.23-1.017 0-.387-.08-.724-.23-1.012a1.6 1.6 0 0 0-.7-.676c-.31-.163-.7-.244-1.18-.244h-1.66V358zm10.14 0v-8.727h2.35v1.522h.09c.16-.541.42-.95.8-1.227q.555-.42 1.29-.42c.12 0 .26.007.4.022q.21.023.36.063v2.148a3 3 0 0 0-.47-.091c-.2-.027-.38-.04-.55-.04-.35 0-.67.078-.95.233q-.42.227-.66.636a1.83 1.83 0 0 0-.24.943V358zm6.37 0v-8.727h2.42V358zm1.22-9.852q-.54 0-.93-.358a1.175 1.175 0 0 1 0-1.728q.39-.363.93-.363c.36 0 .66.121.92.363a1.175 1.175 0 0 1 0 1.728c-.26.238-.56.358-.92.358m11.1 1.125-3.05 8.727h-2.73l-3.05-8.727h2.56l1.81 6.244h.09l1.81-6.244zm3.32 8.892c-.56 0-1.06-.097-1.49-.29a2.43 2.43 0 0 1-1.04-.869c-.25-.387-.37-.868-.37-1.444q0-.727.27-1.221c.17-.33.42-.595.72-.796q.465-.3 1.05-.454c.39-.102.81-.174 1.24-.216.51-.053.91-.102 1.22-.148.32-.049.54-.121.68-.216a.47.47 0 0 0 .21-.42v-.034c0-.36-.11-.638-.34-.835-.22-.197-.54-.296-.95-.296-.44 0-.79.097-1.04.29a1.37 1.37 0 0 0-.52.716l-2.23-.182c.11-.53.33-.989.67-1.375q.495-.585 1.29-.898c.53-.212 1.14-.318 1.84-.318.48 0 .95.057 1.39.171.45.113.84.289 1.19.528s.62.545.82.92q.3.558.3 1.336V358h-2.29v-1.21h-.07c-.14.272-.33.513-.56.721-.24.205-.52.366-.85.483q-.495.171-1.14.171m.69-1.671c.36 0 .67-.07.94-.21.28-.144.49-.337.65-.579.15-.243.23-.518.23-.824v-.926c-.08.049-.18.094-.31.136-.13.038-.28.074-.44.108-.16.03-.33.059-.49.085l-.44.063a3 3 0 0 0-.75.198c-.21.091-.37.214-.49.37a.9.9 0 0 0-.18.568q0 .494.36.756c.24.17.55.255.92.255m10.57-7.221v1.818h-5.26v-1.818zm-4.07-2.091h2.42v8.136c0 .224.04.398.11.523.06.121.16.206.28.256.12.049.27.073.43.073.12 0 .23-.009.34-.028l.26-.051.38 1.801q-.18.057-.51.131c-.22.053-.48.085-.8.096q-.87.034-1.53-.233a2.1 2.1 0 0 1-1.02-.829q-.36-.563-.36-1.421zm9.35 10.988c-.9 0-1.67-.181-2.32-.545a3.77 3.77 0 0 1-1.49-1.557c-.35-.674-.52-1.471-.52-2.392 0-.898.17-1.685.52-2.364q.525-1.017 1.47-1.585c.64-.379 1.39-.568 2.24-.568.58 0 1.11.093 1.61.279.5.181.94.456 1.31.823q.555.552.87 1.387c.21.553.32 1.2.32 1.943v.665h-7.37v-1.5h5.09c0-.349-.08-.658-.23-.926q-.225-.404-.63-.631a1.8 1.8 0 0 0-.93-.233c-.36 0-.69.085-.97.256a1.8 1.8 0 0 0-.66.676c-.16.28-.24.593-.25.937v1.426q0 .648.24 1.12.24.471.69.727.435.255 1.05.256c.27 0 .51-.038.74-.114q.33-.114.57-.341c.16-.151.28-.337.37-.557l2.23.148a3 3 0 0 1-.69 1.409c-.35.398-.8.708-1.36.932-.55.22-1.18.329-1.9.329m-44.76 24c-.89 0-1.67-.181-2.32-.545a3.7 3.7 0 0 1-1.48-1.557c-.35-.674-.53-1.471-.53-2.392 0-.898.18-1.685.53-2.364.34-.678.84-1.206 1.47-1.585s1.38-.568 2.24-.568c.57 0 1.11.093 1.6.279.5.181.94.456 1.31.823.38.368.67.83.88 1.387.2.553.31 1.2.31 1.943v.665h-7.37v-1.5h5.09c0-.349-.08-.658-.23-.926q-.225-.404-.63-.631a1.77 1.77 0 0 0-.92-.233c-.37 0-.7.085-.98.256a1.86 1.86 0 0 0-.9 1.613v1.426c0 .432.08.805.23 1.12q.255.471.69.727.45.255 1.05.256c.27 0 .52-.038.74-.114.23-.076.42-.189.58-.341.15-.151.28-.337.36-.557l2.24.148a3.14 3.14 0 0 1-.7 1.409q-.525.597-1.35.932c-.55.22-1.19.329-1.91.329m7.83-5.215V382h-2.42v-8.727h2.31v1.539h.1c.19-.507.52-.909.97-1.204.46-.299 1.01-.449 1.66-.449.6 0 1.13.133 1.58.398q.675.398 1.05 1.136c.25.489.38 1.072.38 1.75V382h-2.42v-5.125c0-.534-.14-.951-.41-1.25q-.42-.455-1.14-.455-.495 0-.87.211c-.24.14-.44.344-.58.613q-.195.398-.21.961m10.58 5.187c-.67 0-1.27-.17-1.81-.511-.53-.345-.95-.851-1.27-1.517-.31-.671-.46-1.493-.46-2.466q0-1.5.48-2.495c.32-.666.75-1.164 1.28-1.494q.81-.5 1.77-.5c.49 0 .9.083 1.22.25.33.163.6.368.8.614.2.242.36.481.46.716h.08v-4.375h2.41V382h-2.39v-1.398h-.1q-.165.364-.48.722c-.2.235-.47.43-.8.585s-.72.233-1.19.233m.76-1.926q.585 0 .99-.318.405-.324.63-.904c.14-.386.22-.839.22-1.358s-.07-.969-.22-1.352c-.14-.382-.35-.678-.62-.886a1.62 1.62 0 0 0-1-.313c-.4 0-.73.108-1 .324-.28.216-.48.515-.62.898q-.21.574-.21 1.329 0 .762.21 1.347c.14.386.35.689.62.909.27.216.6.324 1 .324m6.02 5.057v-12h2.38v1.466h.11c.11-.235.26-.474.46-.716.2-.246.47-.451.8-.614.32-.167.73-.25 1.22-.25.64 0 1.23.167 1.76.5q.81.495 1.29 1.494c.33.663.49 1.495.49 2.495 0 .973-.16 1.795-.47 2.466-.32.666-.74 1.172-1.28 1.517-.53.341-1.13.511-1.79.511q-.705 0-1.2-.233a2.4 2.4 0 0 1-.8-.585 3 3 0 0 1-.48-.722h-.07v4.671zm2.36-7.637c0 .519.08.972.22 1.358q.21.58.63.904.405.318.99.318c.39 0 .73-.108 1-.324.27-.22.48-.523.62-.909.14-.39.22-.839.22-1.347 0-.503-.07-.947-.22-1.329-.14-.383-.34-.682-.61-.898-.28-.216-.61-.324-1.01-.324-.39 0-.73.104-1 .313-.27.208-.48.504-.62.886-.14.383-.22.833-.22 1.352m11.53 4.534c-.88 0-1.65-.187-2.29-.562a3.87 3.87 0 0 1-1.49-1.58c-.34-.678-.52-1.464-.52-2.358 0-.901.18-1.689.52-2.363.35-.678.85-1.205 1.49-1.58.64-.379 1.41-.568 2.29-.568q1.32 0 2.28.568a3.77 3.77 0 0 1 1.49 1.58c.35.674.52 1.462.52 2.363 0 .894-.17 1.68-.52 2.358a3.8 3.8 0 0 1-1.49 1.58q-.96.562-2.28.562m.01-1.875c.4 0 .74-.113 1-.34.27-.232.48-.546.61-.944q.21-.596.21-1.358 0-.76-.21-1.358a2.06 2.06 0 0 0-.61-.943c-.26-.231-.6-.346-1-.346q-.615 0-1.02.346c-.28.231-.48.546-.62.943a4.1 4.1 0 0 0-.21 1.358q0 .762.21 1.358c.14.398.34.712.62.944q.405.34 1.02.34m5.68 1.705v-8.727h2.42V382zm1.22-9.852q-.54 0-.93-.358a1.175 1.175 0 0 1 0-1.728q.39-.363.93-.363c.36 0 .66.121.92.363a1.175 1.175 0 0 1 0 1.728c-.26.238-.56.358-.92.358m5.38 4.807V382h-2.42v-8.727h2.31v1.539h.1c.2-.507.52-.909.97-1.204.46-.299 1.01-.449 1.66-.449.6 0 1.13.133 1.58.398q.675.398 1.05 1.136c.25.489.38 1.072.38 1.75V382h-2.42v-5.125c0-.534-.13-.951-.41-1.25q-.42-.455-1.14-.455-.495 0-.87.211c-.24.14-.43.344-.58.613q-.195.398-.21.961m12-3.682v1.818h-5.25v-1.818zm-4.06-2.091h2.42v8.136c0 .224.04.398.1.523.07.121.17.206.29.256.12.049.27.073.43.073.11 0 .23-.009.34-.028.11-.023.2-.04.26-.051l.38 1.801q-.18.057-.51.131c-.22.053-.49.085-.8.096q-.87.034-1.53-.233a2.1 2.1 0 0 1-1.02-.829q-.36-.563-.36-1.421zm12.62 4.579-2.22.137a1.2 1.2 0 0 0-.24-.512 1.3 1.3 0 0 0-.5-.369q-.3-.142-.72-.142c-.37 0-.69.08-.95.239q-.39.232-.39.625c0 .208.09.384.25.528.17.144.46.26.86.347l1.58.318c.85.174 1.48.454 1.9.841q.63.58.63 1.522 0 .858-.51 1.506-.495.648-1.38 1.011c-.58.239-1.24.358-2 .358q-1.74 0-2.76-.721a2.83 2.83 0 0 1-1.2-1.977l2.38-.125c.07.352.25.621.52.806.28.182.63.273 1.06.273s.77-.081 1.03-.244q.39-.25.39-.642 0-.33-.27-.54-.285-.216-.84-.33l-1.52-.301c-.85-.17-1.48-.466-1.9-.886-.41-.421-.62-.956-.62-1.608 0-.561.15-1.044.46-1.449q.45-.608 1.29-.937.825-.33 1.95-.33c1.1 0 1.97.233 2.6.699.64.466 1.01 1.1 1.12 1.903"/><path fill="#0055DC" d="M1022.51 403.198H1019v18.05h3.51zm91.49 0h-3.51v18.05h3.51z"/><path fill="#fff" stroke="#0055DC" stroke-miterlimit="10" stroke-width="1.5" d="M1027.31 424.464v3.426l78.38-.004v-3.426z"/><path fill="#C5EBF5" stroke="#0055DC" stroke-miterlimit="10" stroke-width="1.5" d="M1110.49 400h-87.98v24.462h87.98z"/><path fill="#fff" d="M1106.69 421.012v-17.564h-80.38v17.564z"/><path fill="#0055DC" d="M1032.83 408.408h-1.95v1.902h1.95zm0 5.725h-1.95v1.903h1.95zm2.67-3.016h-1.95v1.902h1.95zm2.37-2.709h-1.95v1.902h1.95zm0 5.725h-1.95v1.903h1.95zm2.52-3.016h-1.95v1.902h1.95zm2.98-2.709h-1.95v1.902h1.95zm0 5.725h-1.95v1.903h1.95zm2.52-3.016h-1.95v1.902h1.95zm3.06-2.709h-1.94v1.902h1.94zm0 5.725h-1.94v1.903h1.94zm2.37-3.016h-1.94v1.902h1.94zm2.67-2.709h-1.95v1.902h1.95zm0 5.725h-1.95v1.903h1.95zm2.22-3.016h-1.94v1.902h1.94zm2.82-2.709h-1.95v1.902h1.95zm0 5.725h-1.95v1.903h1.95zm2.07-3.016h-1.94v1.902h1.94zm39.21 3.475c1.33 0 2.41-1.057 2.41-2.361s-1.08-2.362-2.41-2.362c-1.34 0-2.42 1.057-2.42 2.362 0 1.304 1.08 2.361 2.42 2.361"/><path stroke="#0055DC" stroke-miterlimit="10" stroke-width="1.5" d="M1093.35 412.23h-25.6"/><path fill="#0055DC" d="M1022.51 439.198H1019v18.05h3.51zm91.49 0h-3.51v18.05h3.51z"/><path fill="#fff" stroke="#0055DC" stroke-miterlimit="10" stroke-width="1.5" d="M1027.31 460.464v3.426l78.38-.004v-3.426z"/><path fill="#C5EBF5" stroke="#0055DC" stroke-miterlimit="10" stroke-width="1.5" d="M1110.49 436h-87.98v24.462h87.98z"/><path fill="#fff" d="M1106.69 457.012v-17.564h-80.38v17.564z"/><path fill="#0055DC" d="M1032.83 444.408h-1.95v1.902h1.95zm0 5.725h-1.95v1.903h1.95zm2.67-3.016h-1.95v1.902h1.95zm2.37-2.709h-1.95v1.902h1.95zm0 5.725h-1.95v1.903h1.95zm2.52-3.016h-1.95v1.902h1.95zm2.98-2.709h-1.95v1.902h1.95zm0 5.725h-1.95v1.903h1.95zm2.52-3.016h-1.95v1.902h1.95zm3.06-2.709h-1.94v1.902h1.94zm0 5.725h-1.94v1.903h1.94zm2.37-3.016h-1.94v1.902h1.94zm2.67-2.709h-1.95v1.902h1.95zm0 5.725h-1.95v1.903h1.95zm2.22-3.016h-1.94v1.902h1.94zm2.82-2.709h-1.95v1.902h1.95zm0 5.725h-1.95v1.903h1.95zm2.07-3.016h-1.94v1.902h1.94zm39.21 3.475c1.33 0 2.41-1.057 2.41-2.361s-1.08-2.362-2.41-2.362c-1.34 0-2.42 1.057-2.42 2.362 0 1.304 1.08 2.361 2.42 2.361"/><path stroke="#0055DC" stroke-miterlimit="10" stroke-width="1.5" d="M1093.35 448.23h-25.6"/><path fill="#0055DC" d="M1022.51 475.198H1019v18.05h3.51zm91.49 0h-3.51v18.05h3.51z"/><path fill="#fff" stroke="#0055DC" stroke-miterlimit="10" stroke-width="1.5" d="M1027.31 496.464v3.426l78.38-.004v-3.426z"/><path fill="#C5EBF5" stroke="#0055DC" stroke-miterlimit="10" stroke-width="1.5" d="M1110.49 472h-87.98v24.462h87.98z"/><path fill="#fff" d="M1106.69 493.012v-17.564h-80.38v17.564z"/><path fill="#0055DC" d="M1032.83 480.408h-1.95v1.902h1.95zm0 5.725h-1.95v1.903h1.95zm2.67-3.016h-1.95v1.902h1.95zm2.37-2.709h-1.95v1.902h1.95zm0 5.725h-1.95v1.903h1.95zm2.52-3.016h-1.95v1.902h1.95zm2.98-2.709h-1.95v1.902h1.95zm0 5.725h-1.95v1.903h1.95zm2.52-3.016h-1.95v1.902h1.95zm3.06-2.709h-1.94v1.902h1.94zm0 5.725h-1.94v1.903h1.94zm2.37-3.016h-1.94v1.902h1.94zm2.67-2.709h-1.95v1.902h1.95zm0 5.725h-1.95v1.903h1.95zm2.22-3.016h-1.94v1.902h1.94zm2.82-2.709h-1.95v1.902h1.95zm0 5.725h-1.95v1.903h1.95zm2.07-3.016h-1.94v1.902h1.94zm39.21 3.475c1.33 0 2.41-1.057 2.41-2.361s-1.08-2.362-2.41-2.362c-1.34 0-2.42 1.057-2.42 2.362 0 1.304 1.08 2.361 2.42 2.361"/><path stroke="#0055DC" stroke-miterlimit="10" stroke-width="1.5" d="M1093.35 484.23h-25.6"/><path fill="#0055DC" d="M1022.51 511.198H1019v18.05h3.51zm91.49 0h-3.51v18.05h3.51z"/><path fill="#fff" stroke="#0055DC" stroke-miterlimit="10" stroke-width="1.5" d="M1027.31 532.464v3.426l78.38-.004v-3.426z"/><path fill="#C5EBF5" stroke="#0055DC" stroke-miterlimit="10" stroke-width="1.5" d="M1110.49 508h-87.98v24.462h87.98z"/><path fill="#fff" d="M1106.69 529.012v-17.564h-80.38v17.564z"/><path fill="#0055DC" d="M1032.83 516.408h-1.95v1.902h1.95zm0 5.725h-1.95v1.903h1.95zm2.67-3.016h-1.95v1.902h1.95zm2.37-2.709h-1.95v1.902h1.95zm0 5.725h-1.95v1.903h1.95zm2.52-3.016h-1.95v1.902h1.95zm2.98-2.709h-1.95v1.902h1.95zm0 5.725h-1.95v1.903h1.95zm2.52-3.016h-1.95v1.902h1.95zm3.06-2.709h-1.94v1.902h1.94zm0 5.725h-1.94v1.903h1.94zm2.37-3.016h-1.94v1.902h1.94zm2.67-2.709h-1.95v1.902h1.95zm0 5.725h-1.95v1.903h1.95zm2.22-3.016h-1.94v1.902h1.94zm2.82-2.709h-1.95v1.902h1.95zm0 5.725h-1.95v1.903h1.95zm2.07-3.016h-1.94v1.902h1.94zm39.21 3.475c1.33 0 2.41-1.057 2.41-2.361s-1.08-2.362-2.41-2.362c-1.34 0-2.42 1.057-2.42 2.362 0 1.304 1.08 2.361 2.42 2.361"/><path stroke="#0055DC" stroke-miterlimit="10" stroke-width="1.5" d="M1093.35 520.23h-25.6"/><path fill="#E2F5FA" stroke="#F6821F" stroke-width="2" d="M849 475h142v-28H849z"/><path fill="#E2F5FA" d="M992 448H848v26h144z"/><path fill="#fff" stroke="#F6821F" stroke-width="2" d="M339 103h261v129H339z"/><path fill="#222" d="M407.8 124v-11.636h2.461v4.801h4.994v-4.801h2.455V124h-2.455v-4.807h-4.994V124zm11.495-9.608v-2.028h9.557v2.028h-3.563V124h-2.432v-9.608zm10.687 0v-2.028h9.557v2.028h-3.562V124h-2.432v-9.608zM441.113 124v-11.636h4.591q1.323 0 2.256.505a3.43 3.43 0 0 1 1.42 1.392q.495.886.494 2.046 0 1.159-.5 2.045a3.45 3.45 0 0 1-1.449 1.381q-.942.494-2.284.494h-2.926v-1.971h2.529q.71 0 1.17-.245.466-.249.693-.687.233-.444.233-1.017 0-.58-.233-1.012a1.55 1.55 0 0 0-.693-.676q-.466-.244-1.182-.244h-1.659V124zm16.672-8.29q-.069-.687-.585-1.068-.518-.381-1.404-.381-.602 0-1.017.171a1.43 1.43 0 0 0-.636.46q-.216.295-.216.67a.95.95 0 0 0 .131.546q.147.233.403.403.255.165.591.29.335.12.716.205l1.045.25q.762.17 1.398.454t1.102.699.722.977q.261.563.267 1.29-.006 1.069-.546 1.852-.534.779-1.545 1.211-1.006.426-2.426.426-1.41 0-2.455-.432-1.04-.432-1.625-1.278-.58-.853-.608-2.108h2.381q.04.585.335.977.302.386.801.585.506.193 1.142.193.625 0 1.086-.182.465-.181.721-.505t.256-.745a.97.97 0 0 0-.233-.659q-.227-.267-.671-.454a7 7 0 0 0-1.073-.341l-1.267-.318q-1.472-.358-2.324-1.12-.853-.76-.847-2.051-.006-1.056.563-1.846.573-.79 1.573-1.233t2.273-.443q1.296 0 2.262.443.97.443 1.511 1.233t.557 1.829zm8.363 2.472q0-2.114.563-3.892a10.8 10.8 0 0 1 1.733-3.296h2.312q-.443.563-.823 1.375a12 12 0 0 0-.665 1.773q-.285.966-.443 2-.16 1.029-.16 2.04 0 1.347.273 2.721.279 1.37.75 2.546.477 1.176 1.068 1.926h-2.312a10.8 10.8 0 0 1-1.733-3.295q-.563-1.779-.563-3.898m6.059 5.818v-11.636h2.46v9.608h4.989V124zm11.521.165q-.835 0-1.489-.29a2.4 2.4 0 0 1-1.034-.869q-.375-.58-.375-1.444 0-.727.267-1.221t.728-.796q.46-.3 1.045-.454a8 8 0 0 1 1.239-.216q.76-.08 1.227-.148.466-.073.676-.216a.47.47 0 0 0 .21-.42v-.034q0-.54-.341-.835-.334-.296-.954-.296-.653 0-1.04.29a1.33 1.33 0 0 0-.511.716l-2.239-.182a3.04 3.04 0 0 1 .671-1.375q.5-.585 1.289-.898.796-.318 1.841-.318.728 0 1.392.171.67.17 1.188.528.522.358.824.92.3.558.301 1.336V124h-2.296v-1.21h-.068q-.21.409-.562.721a2.6 2.6 0 0 1-.847.483 3.5 3.5 0 0 1-1.142.171m.693-1.671q.534 0 .943-.21a1.67 1.67 0 0 0 .642-.579q.233-.365.233-.824v-.926q-.113.073-.312.136a6 6 0 0 1-.438.108q-.244.046-.488.085l-.443.063a3 3 0 0 0-.745.198 1.2 1.2 0 0 0-.494.37.9.9 0 0 0-.176.568q0 .493.358.756.363.255.92.255m7.281 4.779q-.46 0-.863-.074a3.2 3.2 0 0 1-.659-.176l.545-1.807q.426.13.767.142a.97.97 0 0 0 .597-.159q.255-.17.415-.58l.142-.369-3.131-8.977h2.545l1.807 6.409h.091l1.824-6.409h2.562l-3.392 9.67q-.243.705-.664 1.227a2.7 2.7 0 0 1-1.051.813q-.637.29-1.535.29m11.577-3.103q-1.346 0-2.318-.545a3.73 3.73 0 0 1-1.489-1.557q-.522-1.01-.522-2.392 0-1.346.522-2.364a3.87 3.87 0 0 1 1.472-1.585q.954-.568 2.239-.568.863 0 1.607.279.75.272 1.307.823.563.552.875 1.387.313.829.313 1.943v.665h-7.37v-1.5h5.091q0-.524-.227-.926a1.6 1.6 0 0 0-.631-.631 1.8 1.8 0 0 0-.926-.233q-.55 0-.977.256-.42.25-.659.676-.239.42-.244.937v1.426q0 .648.238 1.12.244.471.688.727.443.255 1.051.256.403 0 .739-.114a1.47 1.47 0 0 0 .937-.898l2.239.148a3.06 3.06 0 0 1-.699 1.409q-.523.596-1.352.932-.825.33-1.904.329m5.585-.17v-8.727h2.347v1.522h.091q.238-.812.801-1.227.563-.42 1.295-.42.182 0 .392.022a3 3 0 0 1 .37.063v2.148a3 3 0 0 0-.472-.091 4 4 0 0 0-.551-.04q-.534 0-.954.233a1.7 1.7 0 0 0-.66.636 1.84 1.84 0 0 0-.238.943V124zm10.688 0 4.824-9.545v-.08h-5.62v-2.011h8.165v2.039L522.092 124zm13.158-5.818q0 2.12-.569 3.898a10.6 10.6 0 0 1-1.727 3.295h-2.312q.443-.562.823-1.375.381-.813.665-1.773.284-.966.443-2t.159-2.045q0-1.347-.278-2.716a14 14 0 0 0-.75-2.546q-.471-1.176-1.062-1.926h2.312a10.7 10.7 0 0 1 1.727 3.296q.569 1.778.569 3.892"/><path fill="#fff" stroke="#F6821F" stroke-width="2" d="M347 198h117.875v24.927H347z"/><path fill="#222" d="m395.358 213.876-2.497-8.727h2.015l1.445 6.064h.072l1.594-6.064h1.726l1.59 6.076h.076l1.445-6.076h2.015l-2.497 8.727h-1.798l-1.662-5.706h-.068l-1.658 5.706zm10.962 0h-1.977l3.013-8.727h2.378l3.008 8.727h-1.977l-2.186-6.733h-.068zm-.123-3.43h4.67v1.44h-4.67zm7.464 3.43v-8.727h5.778v1.521h-3.933v2.08h3.55v1.521h-3.55v3.605z"/><path fill="#fff" stroke="#F6821F" stroke-width="2" d="M474 198h117.875v24.927H474z"/><path fill="#222" d="M498.871 213.876h-1.977l3.012-8.727h2.378l3.009 8.727h-1.977l-2.186-6.733h-.069zm-.124-3.43h4.671v1.44h-4.671zm7.464 3.43v-8.727h3.443q.993 0 1.692.379.699.375 1.066 1.044.37.665.37 1.534 0 .87-.375 1.534-.375.665-1.086 1.036-.708.37-1.713.37h-2.195v-1.478h1.896q.533 0 .878-.184.35-.187.52-.515a1.6 1.6 0 0 0 .175-.763q0-.435-.175-.758a1.17 1.17 0 0 0-.52-.508q-.35-.183-.886-.183h-1.245v7.219zm9.483-8.727v8.727h-1.845v-8.727zm9.818 2.821a1.9 1.9 0 0 0-.251-.55 1.7 1.7 0 0 0-.925-.669 2.2 2.2 0 0 0-.652-.09q-.669 0-1.176.333-.502.332-.784.967-.28.631-.281 1.543 0 .912.277 1.551.276.639.784.976.507.332 1.197.332.626 0 1.07-.221.447-.227.682-.635a1.9 1.9 0 0 0 .238-.968l.375.056h-2.25v-1.389h3.652v1.099q0 1.15-.485 1.977-.486.823-1.339 1.27-.852.444-1.951.443-1.227 0-2.156-.541a3.75 3.75 0 0 1-1.449-1.547q-.516-1.006-.516-2.386 0-1.061.307-1.892a4 4 0 0 1 .869-1.415q.559-.579 1.3-.882a4.2 4.2 0 0 1 1.606-.303q.742 0 1.381.218.639.212 1.134.605.498.392.814.933.315.537.404 1.185zm5.043 6.03q-.627 0-1.117-.218a1.8 1.8 0 0 1-.775-.652q-.282-.435-.282-1.082 0-.546.201-.916.2-.371.545-.597t.784-.341q.443-.115.929-.162.571-.06.921-.111.35-.055.507-.162a.36.36 0 0 0 .157-.315v-.025q0-.405-.255-.627-.251-.222-.716-.221-.49 0-.78.217a1 1 0 0 0-.383.537l-1.679-.137q.127-.596.502-1.031.375-.439.968-.673.596-.239 1.38-.239.546 0 1.044.128.504.127.891.396.392.269.618.691.226.417.226 1.001v4.415h-1.722v-.908h-.051a1.8 1.8 0 0 1-.422.541 1.9 1.9 0 0 1-.635.363 2.6 2.6 0 0 1-.856.128m.52-1.253q.4 0 .707-.158.307-.162.482-.435a1.1 1.1 0 0 0 .174-.618v-.694a1 1 0 0 1-.234.102 4 4 0 0 1-.328.081q-.183.034-.367.064l-.332.047a2.2 2.2 0 0 0-.558.149.9.9 0 0 0-.371.277.68.68 0 0 0-.132.426q0 .37.268.567.273.192.691.192m7.924-5.416v1.363h-3.942v-1.363zm-3.047-1.569h1.815v6.103a.8.8 0 0 0 .077.392.42.42 0 0 0 .213.191.9.9 0 0 0 .324.056q.127 0 .256-.021l.196-.039.285 1.351a6 6 0 0 1-.383.098q-.248.06-.601.072-.657.026-1.151-.174a1.6 1.6 0 0 1-.763-.622q-.272-.423-.268-1.066zm7.01 8.242q-1.01 0-1.739-.409a2.8 2.8 0 0 1-1.116-1.168q-.392-.759-.392-1.794 0-1.01.392-1.773a2.9 2.9 0 0 1 1.103-1.189q.716-.426 1.679-.426.648 0 1.206.209.563.204.981.618.422.414.656 1.04.234.622.234 1.457v.499h-5.527v-1.125h3.818q0-.393-.17-.695a1.2 1.2 0 0 0-.473-.473 1.36 1.36 0 0 0-.695-.175q-.413 0-.733.192-.315.188-.494.507-.178.316-.183.703v1.07q0 .486.179.839.183.354.515.546.333.192.789.192.302 0 .554-.086.251-.085.43-.255t.273-.418l1.679.111q-.128.605-.524 1.057-.393.447-1.015.699-.617.246-1.427.247m5.301-.128-1.781-6.545h1.837l1.014 4.397h.059l1.057-4.397h1.803l1.074 4.372h.055l.997-4.372h1.833l-1.777 6.545h-1.922l-1.125-4.117h-.081l-1.125 4.117zm10.65.124q-.626 0-1.116-.218a1.8 1.8 0 0 1-.776-.652q-.28-.435-.281-1.082 0-.546.2-.916.201-.371.546-.597t.784-.341q.443-.115.929-.162.571-.06.92-.111.35-.055.508-.162a.36.36 0 0 0 .157-.315v-.025q0-.405-.255-.627-.252-.222-.716-.221-.49 0-.78.217a1 1 0 0 0-.384.537l-1.679-.137q.129-.596.503-1.031.375-.439.967-.673.597-.239 1.381-.239.546 0 1.044.128.503.127.891.396.392.269.618.691.226.417.226 1.001v4.415h-1.722v-.908h-.051a1.8 1.8 0 0 1-.422.541 1.9 1.9 0 0 1-.635.363 2.6 2.6 0 0 1-.857.128m.52-1.253q.4 0 .708-.158.307-.162.481-.435.175-.272.175-.618v-.694a1 1 0 0 1-.234.102 4 4 0 0 1-.329.081q-.183.034-.366.064l-.332.047q-.32.047-.559.149a.9.9 0 0 0-.37.277.68.68 0 0 0-.132.426q0 .37.268.567.273.192.69.192m5.329 3.584q-.345 0-.647-.056a2.4 2.4 0 0 1-.495-.132l.409-1.355q.32.098.576.106a.73.73 0 0 0 .447-.119q.192-.128.311-.435l.107-.277-2.348-6.732h1.909l1.355 4.806h.068l1.368-4.806h1.922l-2.544 7.252a3 3 0 0 1-.499.921q-.31.396-.788.609-.477.218-1.151.218"/><path fill="#fff" stroke="#F6821F" stroke-width="2" d="M474 136h117.875v24.927H474z"/><path fill="#222" d="M484.838 152.624v-8.727h3.494q.964 0 1.607.285.643.286.967.793.324.502.324 1.159 0 .512-.204.899a1.8 1.8 0 0 1-.563.631 2.3 2.3 0 0 1-.809.345v.085q.498.021.933.281.439.261.711.729.273.465.273 1.108 0 .695-.345 1.24-.34.541-1.01.857t-1.649.315zm1.845-1.508h1.505q.771 0 1.125-.295a.99.99 0 0 0 .353-.792q0-.363-.174-.639a1.2 1.2 0 0 0-.499-.435 1.7 1.7 0 0 0-.763-.158h-1.547zm0-3.567h1.368q.38 0 .674-.132a1.1 1.1 0 0 0 .468-.384 1 1 0 0 0 .175-.592.96.96 0 0 0-.337-.763q-.332-.29-.946-.29h-1.402zm8.88 5.203q-.993 0-1.717-.422a2.9 2.9 0 0 1-1.112-1.185q-.393-.763-.393-1.768 0-1.014.393-1.773a2.86 2.86 0 0 1 1.112-1.185q.724-.426 1.717-.426t1.713.426q.724.423 1.117 1.185.392.759.392 1.773 0 1.005-.392 1.768a2.9 2.9 0 0 1-1.117 1.185q-.72.422-1.713.422m.009-1.406q.451 0 .754-.256a1.6 1.6 0 0 0 .456-.707q.157-.448.157-1.019t-.157-1.018a1.6 1.6 0 0 0-.456-.708 1.12 1.12 0 0 0-.754-.26q-.456 0-.767.26-.307.26-.465.708a3.1 3.1 0 0 0-.153 1.018q0 .571.153 1.019.158.447.465.707.31.255.767.256m7.743-5.267v1.363h-3.942v-1.363zm-3.047-1.569h1.815v6.103a.8.8 0 0 0 .077.392.42.42 0 0 0 .213.191.9.9 0 0 0 .324.056q.128 0 .255-.021l.196-.039.286 1.351a5 5 0 0 1-.384.098q-.247.06-.6.073-.657.025-1.151-.175a1.6 1.6 0 0 1-.763-.622q-.273-.423-.268-1.066zm6.777-.613h2.275l2.404 5.863h.102l2.403-5.863h2.276v8.727h-1.79v-5.68h-.072l-2.259 5.637h-1.219l-2.258-5.659h-.073v5.702h-1.789zm12.68 8.851q-.625 0-1.116-.218a1.8 1.8 0 0 1-.776-.652q-.28-.434-.281-1.082 0-.546.2-.916.201-.37.546-.597.345-.225.784-.341.443-.114.929-.162.571-.058.92-.111.35-.054.507-.161a.36.36 0 0 0 .158-.316v-.025q0-.405-.256-.627-.251-.221-.715-.221-.49 0-.78.217a1 1 0 0 0-.384.537l-1.679-.136q.128-.597.503-1.032.375-.439.967-.673.597-.239 1.381-.239.546 0 1.044.128.502.128.891.396.391.269.618.691.225.417.225 1.001v4.415h-1.721v-.908h-.051a1.9 1.9 0 0 1-.422.542 2 2 0 0 1-.635.362 2.6 2.6 0 0 1-.857.128m.52-1.253q.4 0 .708-.158.306-.162.481-.435.175-.272.175-.617v-.695a1 1 0 0 1-.234.102 4 4 0 0 1-.329.081q-.183.034-.366.064l-.332.047q-.32.047-.559.149a.9.9 0 0 0-.37.277.68.68 0 0 0-.133.426q0 .37.269.567.273.192.69.192m6.258-2.655v3.784h-1.815v-6.545h1.73v1.154h.077q.217-.57.728-.903.512-.337 1.24-.337.682 0 1.189.299t.789.852q.28.55.281 1.312v4.168h-1.815v-3.844q.003-.6-.307-.937-.312-.34-.857-.341-.366 0-.647.158-.278.157-.435.46a1.6 1.6 0 0 0-.158.72m7.384 3.908q-.626 0-1.116-.218a1.8 1.8 0 0 1-.776-.652q-.28-.434-.281-1.082 0-.546.2-.916.201-.37.546-.597.345-.225.784-.341.443-.114.929-.162.57-.058.92-.111.35-.054.507-.161a.36.36 0 0 0 .158-.316v-.025q0-.405-.256-.627-.25-.221-.716-.221-.489 0-.78.217a1 1 0 0 0-.383.537l-1.679-.136q.128-.597.503-1.032.375-.439.967-.673.597-.239 1.381-.239.545 0 1.044.128.503.128.891.396.392.269.617.691.226.417.226 1.001v4.415h-1.721v-.908h-.051a1.9 1.9 0 0 1-.422.542 2 2 0 0 1-.635.362 2.6 2.6 0 0 1-.857.128m.52-1.253q.4 0 .707-.158.308-.162.482-.435a1.1 1.1 0 0 0 .175-.617v-.695a1 1 0 0 1-.235.102 4 4 0 0 1-.328.081q-.183.034-.366.064l-.333.047a2.2 2.2 0 0 0-.558.149.9.9 0 0 0-.371.277.68.68 0 0 0-.132.426q0 .37.269.567.273.192.69.192m7.392 3.72q-.883 0-1.513-.243-.627-.238-.997-.652a2 2 0 0 1-.482-.929l1.679-.226q.077.196.243.367t.439.272q.276.107.673.107.592 0 .976-.29.388-.285.388-.959v-1.197h-.077a1.7 1.7 0 0 1-.358.516 1.8 1.8 0 0 1-.614.396q-.375.153-.894.153-.737 0-1.343-.341-.6-.345-.959-1.052-.353-.712-.353-1.798 0-1.113.362-1.858.361-.747.963-1.117a2.5 2.5 0 0 1 1.325-.371q.55 0 .921.188.37.183.596.46.231.273.354.537h.068v-1.099h1.803v6.609q0 .835-.409 1.398-.41.563-1.134.843-.72.286-1.657.286m.038-4.048q.439 0 .741-.218.307-.221.469-.63.166-.413.166-.989t-.162-.997a1.47 1.47 0 0 0-.468-.661 1.2 1.2 0 0 0-.746-.234q-.447 0-.754.243-.308.239-.465.665a2.8 2.8 0 0 0-.158.984q0 .567.158.98.162.409.465.635.307.222.754.222m7.457 1.585q-1.01 0-1.738-.409a2.8 2.8 0 0 1-1.117-1.168q-.392-.759-.392-1.794 0-1.01.392-1.773a2.9 2.9 0 0 1 1.104-1.189q.716-.426 1.679-.426.648 0 1.206.209.563.205.98.618.422.413.656 1.04.235.622.235 1.457v.499h-5.527v-1.125h3.818q0-.392-.171-.695a1.2 1.2 0 0 0-.473-.473 1.35 1.35 0 0 0-.694-.175q-.414 0-.733.192-.315.188-.495.507a1.44 1.44 0 0 0-.183.703v1.07q0 .486.179.84.183.353.516.545.332.192.788.192.303 0 .554-.085t.431-.256a1.1 1.1 0 0 0 .272-.418l1.679.111q-.128.605-.524 1.057a2.6 2.6 0 0 1-1.014.699q-.618.246-1.428.247m4.057-.128v-6.545h1.73v1.154h.077q.205-.575.682-.907t1.142-.333q.673 0 1.146.337.474.333.631.903h.068q.2-.562.725-.899.528-.34 1.248-.341.917 0 1.487.584.576.58.576 1.645v4.402h-1.811v-4.044q0-.546-.29-.818a1.02 1.02 0 0 0-.725-.273q-.494 0-.771.315-.277.312-.277.823v3.997h-1.76v-4.082q0-.482-.277-.767-.273-.286-.72-.286-.303 0-.546.153-.238.15-.379.422a1.34 1.34 0 0 0-.14.631v3.929zm13.797.128q-1.01 0-1.739-.409a2.8 2.8 0 0 1-1.117-1.168q-.392-.759-.392-1.794 0-1.01.392-1.773.393-.762 1.104-1.189.716-.426 1.679-.426.648 0 1.206.209.563.205.98.618.422.413.656 1.04.235.622.235 1.457v.499h-5.527v-1.125h3.818q0-.392-.17-.695a1.23 1.23 0 0 0-.473-.473 1.36 1.36 0 0 0-.695-.175q-.414 0-.733.192-.315.188-.494.507a1.43 1.43 0 0 0-.184.703v1.07q0 .486.179.84.184.353.516.545t.788.192q.303 0 .554-.085t.431-.256a1.1 1.1 0 0 0 .272-.418l1.679.111q-.128.605-.524 1.057a2.6 2.6 0 0 1-1.014.699q-.618.246-1.427.247m5.872-3.912v3.784h-1.816v-6.545h1.731v1.154h.076a1.83 1.83 0 0 1 .729-.903q.511-.337 1.24-.337.682 0 1.189.299t.788.852q.282.55.282 1.312v4.168h-1.816v-3.844q.005-.6-.307-.937-.311-.34-.856-.341-.366 0-.648.158a1.1 1.1 0 0 0-.435.46 1.6 1.6 0 0 0-.157.72m8.999-2.761v1.363h-3.942v-1.363zm-3.047-1.569h1.815v6.103a.8.8 0 0 0 .077.392.42.42 0 0 0 .213.191.9.9 0 0 0 .324.056q.127 0 .256-.021l.196-.039.285 1.351a6 6 0 0 1-.383.098q-.247.06-.601.073-.657.025-1.151-.175a1.6 1.6 0 0 1-.763-.622q-.272-.423-.268-1.066z"/><path fill="#fff" stroke="#F6821F" stroke-width="2" d="M347 136h117.875v24.927H347z"/><path fill="#222" d="M393.987 151.876h-3.094v-8.727h3.119q1.317 0 2.267.524a3.53 3.53 0 0 1 1.462 1.496q.516.975.516 2.335 0 1.363-.516 2.344a3.55 3.55 0 0 1-1.47 1.504q-.955.524-2.284.524m-1.249-1.581h1.172q.818 0 1.376-.29.563-.294.844-.907.286-.618.286-1.594 0-.968-.286-1.581a1.85 1.85 0 0 0-.839-.904q-.558-.29-1.377-.289h-1.176zm9.847 1.581h-3.094v-8.727h3.12q1.317 0 2.267.524a3.53 3.53 0 0 1 1.461 1.496q.516.975.516 2.335 0 1.363-.516 2.344a3.54 3.54 0 0 1-1.47 1.504q-.954.524-2.284.524m-1.248-1.581h1.172q.818 0 1.376-.29.562-.294.844-.907.285-.618.285-1.594 0-.968-.285-1.581a1.86 1.86 0 0 0-.84-.904q-.558-.29-1.376-.289h-1.176zm9.676 1.709q-.993 0-1.717-.422a2.9 2.9 0 0 1-1.112-1.185q-.392-.763-.392-1.768 0-1.014.392-1.773a2.86 2.86 0 0 1 1.112-1.185q.724-.426 1.717-.426t1.713.426q.724.423 1.117 1.185.392.759.392 1.773 0 1.005-.392 1.768a2.9 2.9 0 0 1-1.117 1.185q-.72.422-1.713.422m.009-1.406q.451 0 .754-.256.303-.26.456-.708.158-.447.158-1.018t-.158-1.018a1.6 1.6 0 0 0-.456-.708 1.12 1.12 0 0 0-.754-.26q-.456 0-.767.26-.308.26-.465.708a3.1 3.1 0 0 0-.153 1.018q0 .571.153 1.018.158.448.465.708.31.255.767.256m9.03-4.939a1.08 1.08 0 0 0-.439-.801q-.389-.286-1.053-.286-.451 0-.763.128a1.07 1.07 0 0 0-.477.345.83.83 0 0 0-.162.503.73.73 0 0 0 .098.409q.111.174.303.302.192.124.443.218.252.09.537.153l.784.188q.571.128 1.048.341.477.212.827.524.35.31.541.733.197.421.2.967-.003.801-.409 1.389-.4.584-1.159.908-.754.32-1.819.32-1.057 0-1.841-.324a2.7 2.7 0 0 1-1.219-.959q-.435-.639-.456-1.581h1.786q.029.44.251.733.226.29.601.439.38.145.856.145.47 0 .814-.137.35-.136.541-.379a.88.88 0 0 0 .192-.558.73.73 0 0 0-.174-.495 1.3 1.3 0 0 0-.503-.34 5 5 0 0 0-.806-.256l-.95-.239q-1.104-.269-1.743-.839-.64-.572-.635-1.539-.004-.792.422-1.385.43-.592 1.18-.924t1.705-.333q.972 0 1.696.333.729.332 1.134.924t.417 1.373z"/><path fill="#fff" stroke="#F6821F" stroke-width="2" d="M347 167h117.875v24.927H347z"/><path fill="#222" d="M397.554 182.74h-3.094v-8.728h3.119q1.317 0 2.267.525a3.53 3.53 0 0 1 1.462 1.495q.515.976.515 2.336 0 1.363-.515 2.343a3.55 3.55 0 0 1-1.47 1.505q-.955.524-2.284.524m-1.249-1.581h1.172q.818 0 1.376-.29.563-.294.844-.908.286-.618.286-1.593 0-.968-.286-1.581a1.85 1.85 0 0 0-.839-.904q-.559-.29-1.377-.29h-1.176zm14.053-7.147v8.728h-1.594l-3.797-5.493h-.064v5.493h-1.845v-8.728h1.62l3.767 5.489h.076v-5.489zm6.127 2.51a1.08 1.08 0 0 0-.439-.801q-.388-.285-1.053-.285a2 2 0 0 0-.762.128 1.07 1.07 0 0 0-.478.345.83.83 0 0 0-.162.503.73.73 0 0 0 .098.409q.111.174.303.302.192.124.443.218.252.089.537.153l.784.188q.571.127 1.048.34t.827.525q.35.31.541.733.197.421.201.967-.005.801-.409 1.389-.4.584-1.16.908-.753.32-1.819.319-1.057 0-1.841-.324a2.7 2.7 0 0 1-1.219-.958q-.435-.639-.456-1.581h1.786q.03.438.251.733.226.29.601.439a2.4 2.4 0 0 0 .857.144q.468 0 .814-.136.349-.136.541-.379a.87.87 0 0 0 .191-.558.73.73 0 0 0-.174-.495 1.34 1.34 0 0 0-.503-.341 5 5 0 0 0-.805-.255l-.951-.239q-1.104-.269-1.743-.839-.639-.572-.635-1.539-.004-.792.422-1.385.43-.593 1.181-.924.75-.333 1.704-.333.972 0 1.696.333.729.332 1.134.924t.417 1.372z"/><path fill="#fff" stroke="#F6821F" stroke-width="2" d="M474 167h117.875v24.927H474z"/><path fill="#222" d="M499.703 177.068h-1.867a1.8 1.8 0 0 0-.208-.644 1.6 1.6 0 0 0-.405-.485 1.8 1.8 0 0 0-.571-.307 2.2 2.2 0 0 0-.695-.107q-.678 0-1.18.337-.503.332-.78.971-.277.636-.277 1.543 0 .933.277 1.568.281.636.784.959a2.1 2.1 0 0 0 1.163.324q.372 0 .686-.098a1.8 1.8 0 0 0 .567-.286q.247-.19.409-.464.167-.273.23-.622l1.867.008a3.48 3.48 0 0 1-1.134 2.152q-.481.435-1.15.691a4.2 4.2 0 0 1-1.504.251q-1.168 0-2.089-.528-.915-.53-1.448-1.53-.53-1.002-.529-2.425 0-1.427.537-2.429t1.458-1.525q.92-.53 2.071-.529.758 0 1.406.213.651.213 1.155.622.503.405.818.993.32.588.409 1.347m4.285 5.672h-3.094v-8.728h3.119q1.317 0 2.267.525a3.53 3.53 0 0 1 1.462 1.495q.516.976.516 2.336 0 1.363-.516 2.343a3.55 3.55 0 0 1-1.47 1.505q-.955.524-2.284.524m-1.249-1.581h1.172q.818 0 1.377-.29.563-.294.843-.908.286-.618.286-1.593 0-.968-.286-1.581a1.85 1.85 0 0 0-.839-.904q-.558-.29-1.377-.29h-1.176zm14.053-7.147v8.728h-1.593l-3.797-5.493h-.064v5.493h-1.845v-8.728h1.619l3.767 5.489h.077v-5.489zm7.805-.409-2.812 10.449h-1.564l2.812-10.449zm11.123 3.465h-1.867a1.8 1.8 0 0 0-.209-.644 1.6 1.6 0 0 0-.405-.485 1.8 1.8 0 0 0-.571-.307 2.2 2.2 0 0 0-.694-.107q-.678 0-1.181.337-.503.332-.779.971-.277.636-.277 1.543 0 .933.277 1.568.28.636.784.959a2.1 2.1 0 0 0 1.163.324q.37 0 .686-.098.32-.098.567-.286.247-.19.409-.464.166-.273.23-.622l1.867.008q-.073.601-.363 1.159-.285.555-.771.993a3.6 3.6 0 0 1-1.151.691 4.2 4.2 0 0 1-1.504.251q-1.167 0-2.088-.528-.916-.53-1.449-1.53-.528-1.002-.528-2.425 0-1.427.537-2.429.536-1.001 1.457-1.525.92-.53 2.071-.529.76 0 1.406.213.652.213 1.155.622.503.405.818.993.32.588.41 1.347m3.023 5.795a2.7 2.7 0 0 1-1.116-.217 1.8 1.8 0 0 1-.776-.652q-.28-.435-.281-1.082 0-.546.2-.917a1.6 1.6 0 0 1 .545-.596q.346-.226.785-.341.443-.115.929-.162.57-.06.92-.111.35-.056.507-.162a.36.36 0 0 0 .158-.315v-.026q0-.405-.256-.626-.252-.222-.716-.222-.49 0-.78.218a1 1 0 0 0-.383.537l-1.679-.137q.128-.596.503-1.031.375-.44.967-.673.597-.239 1.381-.239.545 0 1.044.128.503.128.89.396.393.268.618.691.226.417.226 1.001v4.415h-1.721v-.908h-.052a1.8 1.8 0 0 1-.421.541 2 2 0 0 1-.635.362 2.6 2.6 0 0 1-.857.128m.52-1.253q.4 0 .707-.157.307-.162.482-.435.174-.273.175-.618v-.694a1 1 0 0 1-.235.102 5 5 0 0 1-.328.081q-.183.034-.366.064l-.333.047a2.2 2.2 0 0 0-.558.149.9.9 0 0 0-.371.277.67.67 0 0 0-.132.426q0 .37.269.567.272.191.69.191m7.4 1.258q-1.006 0-1.73-.427a2.87 2.87 0 0 1-1.108-1.193q-.384-.762-.384-1.755 0-1.006.388-1.765a2.9 2.9 0 0 1 1.112-1.189q.72-.43 1.713-.43.857 0 1.5.311.644.312 1.019.874t.413 1.321h-1.713q-.072-.49-.383-.789-.307-.302-.806-.302a1.22 1.22 0 0 0-.737.23 1.5 1.5 0 0 0-.486.66q-.174.435-.175 1.053 0 .627.171 1.065.174.44.49.669.315.231.737.231.312 0 .558-.128.252-.129.414-.371.166-.247.217-.592h1.713q-.043.75-.409 1.321a2.47 2.47 0 0 1-1.001.886q-.64.32-1.513.32m5.769-3.912v3.784h-1.816v-8.728h1.765v3.337h.076q.222-.58.716-.908.495-.332 1.24-.332.682 0 1.189.298.511.294.793.848.285.55.281 1.317v4.168h-1.815v-3.844q.004-.604-.307-.942-.308-.336-.861-.336-.37 0-.656.157a1.1 1.1 0 0 0-.443.46 1.56 1.56 0 0 0-.162.721m5.541 3.784v-6.546h1.815v6.546zm.912-7.389a1 1 0 0 1-.695-.269.87.87 0 0 1-.285-.652q0-.375.285-.643a.98.98 0 0 1 .695-.273q.405 0 .69.273.29.268.29.643 0 .38-.29.652a.97.97 0 0 1-.69.269m4.041 3.605v3.784h-1.816v-6.546h1.73v1.155h.077q.218-.572.729-.903.511-.337 1.24-.337.681 0 1.189.298.507.298.788.853.282.55.281 1.312v4.168h-1.815v-3.844q.005-.601-.307-.938-.311-.34-.856-.34a1.3 1.3 0 0 0-.648.157 1.1 1.1 0 0 0-.435.46 1.6 1.6 0 0 0-.157.721m8.466 6.375q-.882 0-1.513-.243-.626-.239-.997-.652a2 2 0 0 1-.481-.929l1.678-.226a1.11 1.11 0 0 0 .682.639q.277.107.674.107.592 0 .975-.29.388-.285.388-.959v-1.197h-.076a1.74 1.74 0 0 1-.972.912q-.375.153-.895.153-.737 0-1.342-.341-.601-.345-.959-1.052-.354-.712-.354-1.799 0-1.112.362-1.858.363-.745.964-1.116a2.5 2.5 0 0 1 1.325-.371q.55 0 .92.188.37.183.597.46.23.273.354.537h.068v-1.1h1.802v6.61q0 .834-.409 1.397t-1.133.844q-.72.285-1.658.286m.038-4.049q.44 0 .742-.217.306-.222.469-.631a2.7 2.7 0 0 0 .166-.988q0-.576-.162-.997a1.45 1.45 0 0 0-.469-.661 1.2 1.2 0 0 0-.746-.234q-.447 0-.754.243-.306.238-.464.664a2.8 2.8 0 0 0-.158.985q0 .566.158.98.161.409.464.635.307.22.754.221"/><path fill="#fff" stroke="#F6821F" stroke-width="2" d="M339 441h261v64H339z"/><path fill="#222" d="M402.089 453.71q-.067-.687-.585-1.068-.516-.381-1.403-.381-.603 0-1.017.171-.415.165-.637.46-.215.295-.215.67a.96.96 0 0 0 .13.546q.148.233.404.403.255.165.591.29.335.12.715.205l1.046.25a7.4 7.4 0 0 1 1.398.454q.636.285 1.102.699.466.415.721.977.262.563.268 1.29-.006 1.069-.546 1.852-.534.779-1.545 1.211-1.007.426-2.427.426-1.409 0-2.454-.432-1.04-.432-1.625-1.278-.58-.853-.608-2.108h2.381q.04.584.335.977.302.386.801.585.506.193 1.142.193.625 0 1.085-.182.466-.181.722-.505t.256-.745a.97.97 0 0 0-.233-.659q-.228-.267-.671-.454a7 7 0 0 0-1.074-.341l-1.267-.318q-1.471-.358-2.324-1.12-.852-.76-.846-2.051-.005-1.056.562-1.846.575-.79 1.574-1.233t2.273-.443q1.296 0 2.261.443.972.442 1.512 1.233.539.79.556 1.829zm4.127 11.563v-12h2.386v1.466h.108q.16-.353.46-.716.307-.37.796-.614.494-.25 1.227-.25.955 0 1.762.5.806.495 1.289 1.494.483.995.483 2.495 0 1.46-.471 2.466-.466 1-1.273 1.517a3.27 3.27 0 0 1-1.795.511q-.705 0-1.199-.233a2.5 2.5 0 0 1-.801-.585 3 3 0 0 1-.478-.722h-.074v4.671zm2.369-7.637q0 .779.216 1.358t.625.904q.41.318.994.318.591 0 1-.324.41-.33.62-.909.216-.585.216-1.347 0-.755-.211-1.329-.21-.574-.619-.898t-1.006-.324q-.59 0-1 .313-.402.313-.619.886-.216.574-.216 1.352m11.733 4.534q-1.347 0-2.318-.545a3.73 3.73 0 0 1-1.489-1.557q-.522-1.01-.522-2.392 0-1.346.522-2.364a3.87 3.87 0 0 1 1.472-1.585q.954-.568 2.239-.568.862 0 1.608.279.75.272 1.306.823.563.552.875 1.387.313.829.313 1.943v.665h-7.369v-1.5h5.09q0-.524-.227-.926a1.63 1.63 0 0 0-.63-.631 1.8 1.8 0 0 0-.927-.233q-.55 0-.977.256-.42.25-.659.676-.239.42-.244.937v1.426q0 .648.238 1.12.244.471.688.727.443.255 1.051.256.403 0 .739-.114a1.5 1.5 0 0 0 .573-.341q.24-.227.364-.557l2.239.148a3.06 3.06 0 0 1-.699 1.409q-.523.597-1.352.932-.825.33-1.904.329m9.529 0q-1.341 0-2.307-.568a3.84 3.84 0 0 1-1.478-1.591q-.51-1.017-.511-2.341 0-1.34.517-2.352a3.85 3.85 0 0 1 1.483-1.585q.96-.574 2.284-.574 1.142 0 2 .415a3.34 3.34 0 0 1 1.358 1.165q.5.75.551 1.761h-2.284q-.097-.654-.511-1.051-.41-.404-1.074-.404-.563 0-.983.307-.414.302-.648.881-.233.58-.233 1.403 0 .836.228 1.421.233.585.653.892.42.306.983.307.415 0 .744-.171a1.4 1.4 0 0 0 .551-.494q.222-.33.29-.79h2.284q-.057 1-.545 1.761a3.3 3.3 0 0 1-1.335 1.182q-.853.426-2.017.426m10.089-8.897v1.818h-5.256v-1.818zm-4.062-2.091h2.42v8.136q0 .336.102.523a.57.57 0 0 0 .284.256q.187.073.432.073.17 0 .341-.028l.261-.051.381 1.801a7 7 0 0 1-.511.131q-.33.08-.801.096-.876.034-1.534-.233a2.14 2.14 0 0 1-1.017-.829q-.364-.563-.358-1.421zM441.513 462v-8.727h2.346v1.522h.091q.238-.811.801-1.227.563-.42 1.296-.42.182 0 .392.022.21.023.369.063v2.148a3 3 0 0 0-.471-.091 4 4 0 0 0-.551-.04q-.535 0-.955.233a1.7 1.7 0 0 0-.659.636 1.84 1.84 0 0 0-.239.943V462zm12.143-3.716v-5.011h2.421V462h-2.324v-1.585h-.091a2.6 2.6 0 0 1-.983 1.233q-.682.466-1.665.466-.874 0-1.54-.398a2.73 2.73 0 0 1-1.039-1.131q-.37-.733-.375-1.755v-5.557h2.42v5.125q.006.772.415 1.221.41.45 1.096.449.438 0 .819-.199a1.56 1.56 0 0 0 .613-.602q.239-.398.233-.983m4.357 3.716v-8.727h2.307v1.539h.102q.273-.766.909-1.21t1.523-.443q.897 0 1.528.449.631.443.841 1.204h.091q.267-.75.966-1.198.704-.455 1.665-.455 1.221 0 1.983.779.767.772.767 2.193V462h-2.415v-5.392q0-.728-.387-1.091-.386-.364-.965-.364-.66 0-1.029.421-.369.415-.369 1.096V462h-2.347v-5.443q0-.642-.369-1.023-.364-.381-.96-.381a1.34 1.34 0 0 0-.728.205q-.318.2-.505.562a1.8 1.8 0 0 0-.188.841V462zm18.831-5.818q0-2.114.562-3.892a10.8 10.8 0 0 1 1.733-3.296h2.313q-.443.563-.824 1.375a12 12 0 0 0-.665 1.773 15 15 0 0 0-.443 2 13 13 0 0 0-.159 2.04q0 1.347.273 2.721.278 1.37.75 2.546.477 1.176 1.068 1.926h-2.313a10.8 10.8 0 0 1-1.733-3.295q-.562-1.779-.562-3.898m6.058 5.818v-11.636h2.46v9.608h4.989V462zm11.521.165q-.835 0-1.488-.29a2.4 2.4 0 0 1-1.034-.869q-.375-.58-.375-1.444 0-.727.267-1.221t.727-.796a3.5 3.5 0 0 1 1.045-.454 8 8 0 0 1 1.239-.216q.762-.08 1.227-.148.466-.073.676-.216a.47.47 0 0 0 .211-.42v-.034q0-.54-.341-.835-.336-.296-.955-.296-.653 0-1.04.29a1.33 1.33 0 0 0-.511.716l-2.239-.182a3.05 3.05 0 0 1 .671-1.375q.5-.585 1.29-.898.795-.318 1.841-.318.726 0 1.392.171a3.6 3.6 0 0 1 1.187.528q.523.358.824.92.301.558.301 1.336V462h-2.295v-1.21h-.069q-.21.409-.562.721a2.6 2.6 0 0 1-.847.483q-.494.171-1.142.171m.693-1.671q.535 0 .944-.21.408-.216.642-.579a1.5 1.5 0 0 0 .233-.824v-.926q-.114.073-.313.136a6 6 0 0 1-.437.108q-.244.046-.489.085l-.443.063a3 3 0 0 0-.744.198 1.2 1.2 0 0 0-.495.37.9.9 0 0 0-.176.568q0 .494.358.756.363.255.92.255m7.282 4.779a5 5 0 0 1-.864-.074 3.2 3.2 0 0 1-.659-.176l.545-1.807q.427.13.768.142a.97.97 0 0 0 .596-.159q.256-.17.415-.58l.142-.369-3.131-8.977h2.546l1.806 6.409h.091l1.824-6.409h2.563l-3.392 9.67a4 4 0 0 1-.665 1.227 2.7 2.7 0 0 1-1.051.813q-.636.29-1.534.29m11.576-3.103q-1.346 0-2.318-.545a3.73 3.73 0 0 1-1.488-1.557q-.523-1.01-.523-2.392 0-1.346.523-2.364a3.86 3.86 0 0 1 1.471-1.585q.955-.568 2.239-.568.864 0 1.608.279.75.272 1.307.823.562.552.875 1.387.312.829.312 1.943v.665h-7.369v-1.5h5.091q0-.524-.228-.926a1.6 1.6 0 0 0-.63-.631 1.8 1.8 0 0 0-.926-.233q-.552 0-.978.256-.42.25-.659.676-.238.42-.244.937v1.426q0 .648.239 1.12.244.471.687.727.444.255 1.051.256.403 0 .739-.114t.574-.341.363-.557l2.239.148a3.06 3.06 0 0 1-.699 1.409q-.522.597-1.352.932-.824.33-1.904.329m5.586-.17v-8.727h2.346v1.522h.091q.239-.811.801-1.227.563-.42 1.296-.42.182 0 .392.022.21.023.369.063v2.148a3 3 0 0 0-.471-.091 4 4 0 0 0-.552-.04q-.534 0-.954.233a1.7 1.7 0 0 0-.659.636 1.84 1.84 0 0 0-.239.943V462zm10.051-2.045v-1.938l4.858-7.653h1.67v2.681h-.988l-3.063 4.847v.091h6.903v1.972zm5.585 2.045v-2.636l.045-.858v-8.142h2.307V462zm9.537-5.818q0 2.12-.568 3.898a10.7 10.7 0 0 1-1.727 3.295h-2.313q.443-.562.824-1.375t.665-1.773q.284-.966.443-2t.159-2.045q0-1.347-.278-2.716a14 14 0 0 0-.75-2.546q-.472-1.176-1.063-1.926h2.313a10.7 10.7 0 0 1 1.727 3.296q.568 1.778.568 3.892"/><path fill="#fff" stroke="#F6821F" stroke-width="2" d="M348 472h246v24.927H348z"/><path fill="#222" d="M445.357 480.534v-1.522h7.167v1.522h-2.671v7.206h-1.824v-7.206zm15.518 1.534h-1.867a1.8 1.8 0 0 0-.209-.644 1.6 1.6 0 0 0-.404-.485 1.8 1.8 0 0 0-.571-.307 2.2 2.2 0 0 0-.695-.107q-.678 0-1.18.337-.504.332-.78.971-.277.636-.277 1.543 0 .933.277 1.568.281.636.784.959a2.1 2.1 0 0 0 1.163.324q.37 0 .686-.098.32-.098.567-.286.247-.19.409-.464.167-.273.23-.622l1.867.008a3.4 3.4 0 0 1-.363 1.159q-.285.555-.771.993-.481.435-1.15.691a4.3 4.3 0 0 1-1.505.251q-1.167 0-2.088-.528-.916-.53-1.449-1.53-.528-1.002-.528-2.425 0-1.428.537-2.429t1.457-1.525q.92-.53 2.071-.529.759 0 1.407.213.651.213 1.154.622.503.405.819.993.32.588.409 1.347m1.191 5.672v-8.728h3.443q.993 0 1.692.38.699.375 1.065 1.044.37.664.371 1.534 0 .869-.375 1.534-.375.664-1.087 1.035-.706.371-1.713.371h-2.194v-1.478h1.896q.533 0 .878-.184a1.2 1.2 0 0 0 .52-.515q.174-.333.174-.763 0-.435-.174-.759a1.18 1.18 0 0 0-.52-.507q-.35-.183-.887-.183h-1.244v7.219zm11.404-9.137-2.812 10.449h-1.564l2.813-10.449zm6.168.409h1.845v5.668q0 .954-.456 1.671a3.05 3.05 0 0 1-1.266 1.116q-.813.396-1.896.396-1.086 0-1.901-.396a3.05 3.05 0 0 1-1.265-1.116q-.452-.717-.452-1.671v-5.668h1.845v5.51q0 .499.218.887.221.387.622.609.4.222.933.222.537 0 .933-.222a1.56 1.56 0 0 0 .618-.609q.222-.388.222-.887zm6.325 8.728h-3.094v-8.728h3.119q1.317 0 2.267.525a3.53 3.53 0 0 1 1.462 1.495q.516.976.516 2.336 0 1.363-.516 2.343a3.55 3.55 0 0 1-1.47 1.505q-.954.524-2.284.524m-1.249-1.581h1.172q.818 0 1.377-.29.563-.294.843-.908.286-.618.286-1.593 0-.967-.286-1.581a1.85 1.85 0 0 0-.839-.904q-.558-.29-1.377-.29h-1.176zm6.754 1.581v-8.728h3.443q.993 0 1.691.38.7.375 1.066 1.044.37.664.371 1.534 0 .869-.375 1.534-.375.664-1.087 1.035-.708.371-1.713.371h-2.195v-1.478h1.897q.532 0 .877-.184.35-.188.52-.515a1.6 1.6 0 0 0 .175-.763q0-.435-.175-.759a1.17 1.17 0 0 0-.52-.507q-.35-.183-.886-.183h-1.244v7.219z"/><path fill="#fff" stroke="#F6821F" stroke-width="2" d="M660 287h138v34H660z"/><path fill="#222" d="M675.965 309v-11.636h2.46v9.608h4.989V309zm12.8.17q-1.324 0-2.29-.562a3.85 3.85 0 0 1-1.483-1.58q-.523-1.017-.523-2.358 0-1.352.523-2.363a3.8 3.8 0 0 1 1.483-1.58q.966-.568 2.29-.568 1.323 0 2.284.568.966.563 1.489 1.58.522 1.011.522 2.363 0 1.341-.522 2.358a3.84 3.84 0 0 1-1.489 1.58q-.96.562-2.284.562m.011-1.875q.603 0 1.006-.34.404-.348.608-.944.21-.596.21-1.358 0-.76-.21-1.358-.204-.596-.608-.943-.403-.346-1.006-.346-.608 0-1.022.346-.41.347-.62.943a4.2 4.2 0 0 0-.204 1.358q0 .762.204 1.358.21.597.62.944.414.34 1.022.34m8.171 1.87q-.835 0-1.489-.29a2.4 2.4 0 0 1-1.034-.869q-.375-.58-.375-1.444 0-.727.267-1.221t.727-.796q.46-.3 1.046-.454a8 8 0 0 1 1.239-.216q.76-.08 1.227-.148.465-.073.676-.216a.47.47 0 0 0 .21-.42v-.034q0-.54-.341-.835-.335-.296-.954-.296-.654 0-1.04.29a1.33 1.33 0 0 0-.511.716l-2.239-.182q.17-.795.67-1.375.501-.585 1.29-.898.795-.318 1.841-.318.728 0 1.392.171.67.17 1.188.528.522.358.823.92.302.558.302 1.336V309h-2.296v-1.21h-.068q-.21.408-.563.721a2.6 2.6 0 0 1-.846.483 3.5 3.5 0 0 1-1.142.171m.693-1.671q.534 0 .943-.21a1.67 1.67 0 0 0 .642-.579q.233-.365.233-.824v-.926q-.114.073-.312.136a6 6 0 0 1-.438.108 22 22 0 0 1-.488.085l-.444.063a3 3 0 0 0-.744.198 1.2 1.2 0 0 0-.494.37.9.9 0 0 0-.176.568q0 .493.358.756.363.255.92.255m9.139 1.648q-.994 0-1.801-.511-.8-.518-1.273-1.517-.465-1.007-.465-2.466 0-1.5.483-2.495.483-.999 1.284-1.494a3.3 3.3 0 0 1 1.767-.5q.733 0 1.221.25.495.245.796.614.307.363.466.716h.073v-4.375h2.415V309h-2.386v-1.398h-.102a3.1 3.1 0 0 1-.483.722q-.308.353-.801.585-.489.233-1.194.233m.767-1.926q.586 0 .989-.318.41-.324.625-.904.222-.58.222-1.358t-.216-1.352-.625-.886-.995-.313q-.596 0-1.005.324t-.62.898-.21 1.329q0 .762.21 1.347.216.579.62.909.409.324 1.005.324m9.586 1.784v-11.636h4.659q1.284 0 2.142.38t1.29 1.057q.432.67.432 1.546 0 .682-.273 1.198a2.35 2.35 0 0 1-.75.841 3.1 3.1 0 0 1-1.08.461v.113a2.66 2.66 0 0 1 2.194 1.347q.363.62.363 1.477 0 .927-.46 1.654-.454.721-1.347 1.142-.891.42-2.199.42zm2.46-2.011h2.006q1.027 0 1.5-.392.471-.399.471-1.057 0-.483-.233-.852a1.57 1.57 0 0 0-.664-.58q-.426-.21-1.017-.21h-2.063zm0-4.756h1.824q.505 0 .898-.176.397-.182.625-.512.233-.33.233-.789 0-.631-.449-1.017-.444-.387-1.262-.387h-1.869zm10.385 6.932q-.836 0-1.488-.29a2.4 2.4 0 0 1-1.035-.869q-.375-.58-.375-1.444 0-.727.268-1.221.267-.495.727-.796a3.5 3.5 0 0 1 1.045-.454 8 8 0 0 1 1.239-.216q.761-.08 1.227-.148.466-.073.676-.216a.47.47 0 0 0 .211-.42v-.034q0-.54-.341-.835-.336-.296-.955-.296-.654 0-1.04.29a1.33 1.33 0 0 0-.511.716l-2.239-.182a3.04 3.04 0 0 1 .671-1.375q.5-.585 1.29-.898.795-.318 1.84-.318.727 0 1.392.171.67.17 1.188.528.522.358.824.92.301.558.301 1.336V309h-2.295v-1.21h-.069q-.21.408-.562.721a2.6 2.6 0 0 1-.847.483q-.494.171-1.142.171m.693-1.671q.534 0 .944-.21.408-.216.642-.579a1.5 1.5 0 0 0 .233-.824v-.926q-.114.073-.313.136a6 6 0 0 1-.437.108q-.245.046-.489.085l-.443.063a3 3 0 0 0-.745.198 1.2 1.2 0 0 0-.494.37.9.9 0 0 0-.176.568q0 .493.358.756.363.255.92.255m8.344-10.13V309h-2.42v-11.636zm4.252 11.801q-.835 0-1.489-.29a2.4 2.4 0 0 1-1.034-.869q-.375-.58-.375-1.444 0-.727.267-1.221t.727-.796q.46-.3 1.046-.454a8 8 0 0 1 1.239-.216q.76-.08 1.227-.148.465-.073.676-.216a.47.47 0 0 0 .21-.42v-.034q0-.54-.341-.835-.334-.296-.954-.296-.654 0-1.04.29a1.33 1.33 0 0 0-.511.716l-2.239-.182q.17-.795.67-1.375.501-.585 1.29-.898.795-.318 1.841-.318.727 0 1.392.171.67.17 1.188.528.523.358.823.92.302.558.302 1.336V309h-2.296v-1.21h-.068q-.21.408-.563.721a2.6 2.6 0 0 1-.846.483 3.5 3.5 0 0 1-1.142.171m.693-1.671q.534 0 .943-.21a1.67 1.67 0 0 0 .642-.579q.233-.365.233-.824v-.926q-.114.073-.312.136a6 6 0 0 1-.438.108 22 22 0 0 1-.488.085l-.444.063a3 3 0 0 0-.744.198 1.2 1.2 0 0 0-.494.37.9.9 0 0 0-.176.568q0 .493.358.756.363.255.92.255m8.344-3.539V309h-2.421v-8.727h2.307v1.539h.103q.29-.761.971-1.204.682-.449 1.654-.449.909 0 1.585.398t1.051 1.136q.375.733.375 1.75V309h-2.421v-5.125q.006-.801-.409-1.25-.414-.455-1.142-.455-.488 0-.863.211-.37.21-.58.613-.204.398-.21.961m11.3 5.215q-1.341 0-2.307-.568a3.83 3.83 0 0 1-1.477-1.591q-.512-1.017-.512-2.341 0-1.34.517-2.352a3.85 3.85 0 0 1 1.483-1.585q.96-.574 2.284-.574 1.142 0 2 .415a3.34 3.34 0 0 1 1.358 1.165q.5.75.551 1.761h-2.284q-.096-.654-.511-1.051-.41-.404-1.074-.404-.562 0-.983.307-.414.302-.648.881-.232.58-.232 1.403 0 .836.227 1.421.233.585.653.892.421.306.983.307.416 0 .744-.171a1.43 1.43 0 0 0 .552-.494q.221-.33.289-.79h2.284q-.056 1-.545 1.761a3.3 3.3 0 0 1-1.335 1.182q-.852.426-2.017.426m9.248 0q-1.346 0-2.318-.545a3.73 3.73 0 0 1-1.488-1.557q-.523-1.01-.523-2.392 0-1.346.523-2.364a3.86 3.86 0 0 1 1.471-1.585q.955-.568 2.239-.568.864 0 1.608.279.75.272 1.307.823.562.552.875 1.387.312.829.312 1.943v.665h-7.369v-1.5h5.091q0-.524-.228-.926a1.6 1.6 0 0 0-.63-.631 1.8 1.8 0 0 0-.926-.233q-.552 0-.978.256-.42.25-.659.676-.238.42-.244.937v1.426q0 .648.239 1.12.244.472.687.727t1.051.256q.403 0 .739-.114t.574-.341.363-.557l2.239.148a3.06 3.06 0 0 1-.699 1.409q-.522.597-1.352.932-.824.33-1.904.329m5.41-.17v-8.727h2.346v1.522h.091q.239-.811.801-1.227.563-.42 1.296-.42.182 0 .392.022.21.023.369.063v2.148a3 3 0 0 0-.471-.091 4 4 0 0 0-.552-.04q-.534 0-.954.233a1.7 1.7 0 0 0-.659.636 1.84 1.84 0 0 0-.239.943V309z"/><path fill="#5E5E5E" d="M656.856 304.561a1.5 1.5 0 0 0 0-2.122l-9.546-9.546a1.501 1.501 0 0 0-2.121 2.122l8.485 8.485-8.485 8.485a1.5 1.5 0 0 0 2.121 2.122zM605 471.5a1.5 1.5 0 0 0 0 3zM655.795 302H642v3h13.795zM616.5 327.5V460h3V327.5zm0 132.5c0 6.351-5.149 11.5-11.5 11.5v3c8.008 0 14.5-6.492 14.5-14.5zM642 302c-14.083 0-25.5 11.417-25.5 25.5h3c0-12.426 10.074-22.5 22.5-22.5z"/><path fill="#5E5E5E" d="M656.856 304.561a1.5 1.5 0 0 0 0-2.122l-9.546-9.546a1.501 1.501 0 0 0-2.121 2.122l8.485 8.485-8.485 8.485a1.5 1.5 0 0 0 2.121 2.122zM605 166a1.5 1.5 0 0 0 0 3zm50.795 136H642v3h13.795zM619.5 279.5v-99h-3v99zm0-99c0-8.008-6.492-14.5-14.5-14.5v3c6.351 0 11.5 5.149 11.5 11.5zM642 302c-12.426 0-22.5-10.074-22.5-22.5h-3c0 14.083 11.417 25.5 25.5 25.5zm-500.362-.237a1.5 1.5 0 0 0 0 3zm193.423 172.298a1.5 1.5 0 0 0 0-2.122l-9.546-9.546a1.5 1.5 0 0 0-2.122 0 1.5 1.5 0 0 0 0 2.122l8.486 8.485-8.486 8.485a1.5 1.5 0 0 0 0 2.122 1.5 1.5 0 0 0 2.122 0zM141.638 304.763h72.181v-3h-72.181zm94.681 22.5V449h3V327.263zm25.5 147.237H334v-3h-72.181zm-25.5-25.5c0 14.083 11.417 25.5 25.5 25.5v-3c-12.426 0-22.5-10.074-22.5-22.5zm-22.5-144.237c12.426 0 22.5 10.074 22.5 22.5h3c0-14.083-11.417-25.5-25.5-25.5z"/><path fill="#5E5E5E" d="M141.638 301.763a1.5 1.5 0 0 0 0 3zm193.423-133.202a1.5 1.5 0 0 0 0-2.122l-9.546-9.546a1.5 1.5 0 0 0-2.122 0 1.5 1.5 0 0 0 0 2.122l8.486 8.485-8.486 8.485a1.5 1.5 0 0 0 0 2.122 1.5 1.5 0 0 0 2.122 0zM141.638 304.763h72.181v-3h-72.181zm97.681-25.5V191.5h-3v87.763zM261.819 169H334v-3h-72.181zm-22.5 22.5c0-12.426 10.074-22.5 22.5-22.5v-3c-14.083 0-25.5 11.417-25.5 25.5zm-25.5 113.263c14.083 0 25.5-11.417 25.5-25.5h-3c0 12.427-10.074 22.5-22.5 22.5z"/><path fill="#fff" stroke="#0055DC" stroke-width="2" d="M993 61h151v256H993z"/><path fill="#0055DC" d="M1022.51 73.198H1019v18.05h3.51zm91.49 0h-3.51v18.05h3.51z"/><path fill="#fff" stroke="#0055DC" stroke-miterlimit="10" stroke-width="1.5" d="M1027.31 94.464v3.426l78.38-.005V94.46z"/><path fill="#C5EBF5" stroke="#0055DC" stroke-miterlimit="10" stroke-width="1.5" d="M1110.49 70h-87.98v24.462h87.98z"/><path fill="#fff" d="M1106.69 91.012V73.448h-80.38v17.564z"/><path fill="#0055DC" d="M1032.83 78.408h-1.95v1.902h1.95zm0 5.725h-1.95v1.903h1.95zm2.67-3.016h-1.95v1.902h1.95zm2.37-2.709h-1.95v1.902h1.95zm0 5.725h-1.95v1.903h1.95zm2.52-3.016h-1.95v1.902h1.95zm2.98-2.709h-1.95v1.902h1.95zm0 5.725h-1.95v1.903h1.95zm2.52-3.016h-1.95v1.902h1.95zm3.06-2.709h-1.94v1.902h1.94zm0 5.725h-1.94v1.903h1.94zm2.37-3.016h-1.94v1.902h1.94zm2.67-2.709h-1.95v1.902h1.95zm0 5.725h-1.95v1.903h1.95zm2.22-3.016h-1.94v1.902h1.94zm2.82-2.709h-1.95v1.902h1.95zm0 5.725h-1.95v1.903h1.95zm2.07-3.016h-1.94v1.902h1.94zm39.21 3.475c1.33 0 2.41-1.057 2.41-2.361s-1.08-2.362-2.41-2.362c-1.34 0-2.42 1.057-2.42 2.362 0 1.304 1.08 2.361 2.42 2.361"/><path stroke="#0055DC" stroke-miterlimit="10" stroke-width="1.5" d="M1093.35 82.23h-25.6"/><path fill="#0055DC" d="M1022.51 108.198H1019v18.05h3.51zm91.49 0h-3.51v18.05h3.51z"/><path fill="#fff" stroke="#0055DC" stroke-miterlimit="10" stroke-width="1.5" d="M1027.31 129.464v3.426l78.38-.004v-3.426z"/><path fill="#C5EBF5" stroke="#0055DC" stroke-miterlimit="10" stroke-width="1.5" d="M1110.49 105h-87.98v24.462h87.98z"/><path fill="#fff" d="M1106.69 126.012v-17.564h-80.38v17.564z"/><path fill="#0055DC" d="M1032.83 113.408h-1.95v1.902h1.95zm0 5.725h-1.95v1.903h1.95zm2.67-3.016h-1.95v1.902h1.95zm2.37-2.709h-1.95v1.902h1.95zm0 5.725h-1.95v1.903h1.95zm2.52-3.016h-1.95v1.902h1.95zm2.98-2.709h-1.95v1.902h1.95zm0 5.725h-1.95v1.903h1.95zm2.52-3.016h-1.95v1.902h1.95zm3.06-2.709h-1.94v1.902h1.94zm0 5.725h-1.94v1.903h1.94zm2.37-3.016h-1.94v1.902h1.94zm2.67-2.709h-1.95v1.902h1.95zm0 5.725h-1.95v1.903h1.95zm2.22-3.016h-1.94v1.902h1.94zm2.82-2.709h-1.95v1.902h1.95zm0 5.725h-1.95v1.903h1.95zm2.07-3.016h-1.94v1.902h1.94zm39.21 3.475c1.33 0 2.41-1.057 2.41-2.361s-1.08-2.362-2.41-2.362c-1.34 0-2.42 1.057-2.42 2.362 0 1.304 1.08 2.361 2.42 2.361"/><path stroke="#0055DC" stroke-miterlimit="10" stroke-width="1.5" d="M1093.35 117.23h-25.6"/><path fill="#0055DC" d="M1022.51 143.313H1019v18.697h3.51zm91.49 0h-3.51v18.697h3.51z"/><path fill="#fff" stroke="#0055DC" stroke-miterlimit="10" stroke-width="1.5" d="M1027.31 165.341v3.549l78.38-.005v-3.548z"/><path fill="#C5EBF5" stroke="#0055DC" stroke-miterlimit="10" stroke-width="1.5" d="M1110.49 140h-87.98v25.339h87.98z"/><path fill="#fff" d="M1106.69 161.766v-18.194h-80.38v18.194z"/><path fill="#0055DC" d="M1032.83 148.709h-1.95v1.971h1.95zm0 5.931h-1.95v1.971h1.95zm2.67-3.125h-1.95v1.971h1.95zm2.37-2.806h-1.95v1.971h1.95zm0 5.931h-1.95v1.971h1.95zm2.52-3.125h-1.95v1.971h1.95zm2.98-2.806h-1.95v1.971h1.95zm0 5.931h-1.95v1.971h1.95zm2.52-3.125h-1.95v1.971h1.95zm3.06-2.806h-1.94v1.971h1.94zm0 5.931h-1.94v1.971h1.94zm2.37-3.125h-1.94v1.971h1.94zm2.67-2.806h-1.95v1.971h1.95zm0 5.931h-1.95v1.971h1.95zm2.22-3.125h-1.94v1.971h1.94zm2.82-2.806h-1.95v1.971h1.95zm0 5.931h-1.95v1.971h1.95zm2.07-3.125h-1.94v1.971h1.94zm39.21 3.6c1.33 0 2.41-1.095 2.41-2.446s-1.08-2.446-2.41-2.446c-1.34 0-2.42 1.095-2.42 2.446s1.08 2.446 2.42 2.446"/><path stroke="#0055DC" stroke-miterlimit="10" stroke-width="1.5" d="M1093.35 152.669h-25.6"/><path fill="#0055DC" d="M1022.51 179.198H1019v18.05h3.51zm91.49 0h-3.51v18.05h3.51z"/><path fill="#fff" stroke="#0055DC" stroke-miterlimit="10" stroke-width="1.5" d="M1027.31 200.464v3.426l78.38-.004v-3.426z"/><path fill="#C5EBF5" stroke="#0055DC" stroke-miterlimit="10" stroke-width="1.5" d="M1110.49 176h-87.98v24.462h87.98z"/><path fill="#fff" d="M1106.69 197.012v-17.564h-80.38v17.564z"/><path fill="#0055DC" d="M1032.83 184.408h-1.95v1.902h1.95zm0 5.725h-1.95v1.903h1.95zm2.67-3.016h-1.95v1.902h1.95zm2.37-2.709h-1.95v1.902h1.95zm0 5.725h-1.95v1.903h1.95zm2.52-3.016h-1.95v1.902h1.95zm2.98-2.709h-1.95v1.902h1.95zm0 5.725h-1.95v1.903h1.95zm2.52-3.016h-1.95v1.902h1.95zm3.06-2.709h-1.94v1.902h1.94zm0 5.725h-1.94v1.903h1.94zm2.37-3.016h-1.94v1.902h1.94zm2.67-2.709h-1.95v1.902h1.95zm0 5.725h-1.95v1.903h1.95zm2.22-3.016h-1.94v1.902h1.94zm2.82-2.709h-1.95v1.902h1.95zm0 5.725h-1.95v1.903h1.95zm2.07-3.016h-1.94v1.902h1.94zm39.21 3.475c1.33 0 2.41-1.057 2.41-2.361s-1.08-2.362-2.41-2.362c-1.34 0-2.42 1.057-2.42 2.362 0 1.304 1.08 2.361 2.42 2.361"/><path stroke="#0055DC" stroke-miterlimit="10" stroke-width="1.5" d="M1093.35 188.23h-25.6"/><path fill="#0055DC" d="M1022.51 214.198H1019v18.05h3.51zm91.49 0h-3.51v18.05h3.51z"/><path fill="#fff" stroke="#0055DC" stroke-miterlimit="10" stroke-width="1.5" d="M1027.31 235.464v3.426l78.38-.004v-3.426z"/><path fill="#C5EBF5" stroke="#0055DC" stroke-miterlimit="10" stroke-width="1.5" d="M1110.49 211h-87.98v24.462h87.98z"/><path fill="#fff" d="M1106.69 232.012v-17.564h-80.38v17.564z"/><path fill="#0055DC" d="M1032.83 219.408h-1.95v1.902h1.95zm0 5.725h-1.95v1.903h1.95zm2.67-3.016h-1.95v1.902h1.95zm2.37-2.709h-1.95v1.902h1.95zm0 5.725h-1.95v1.903h1.95zm2.52-3.016h-1.95v1.902h1.95zm2.98-2.709h-1.95v1.902h1.95zm0 5.725h-1.95v1.903h1.95zm2.52-3.016h-1.95v1.902h1.95zm3.06-2.709h-1.94v1.902h1.94zm0 5.725h-1.94v1.903h1.94zm2.37-3.016h-1.94v1.902h1.94zm2.67-2.709h-1.95v1.902h1.95zm0 5.725h-1.95v1.903h1.95zm2.22-3.016h-1.94v1.902h1.94zm2.82-2.709h-1.95v1.902h1.95zm0 5.725h-1.95v1.903h1.95zm2.07-3.016h-1.94v1.902h1.94zm39.21 3.475c1.33 0 2.41-1.057 2.41-2.361s-1.08-2.362-2.41-2.362c-1.34 0-2.42 1.057-2.42 2.362 0 1.304 1.08 2.361 2.42 2.361"/><path stroke="#0055DC" stroke-miterlimit="10" stroke-width="1.5" d="M1093.35 223.23h-25.6"/><path fill="#0055DC" d="M1022.51 249.198H1019v18.05h3.51zm91.49 0h-3.51v18.05h3.51z"/><path fill="#fff" stroke="#0055DC" stroke-miterlimit="10" stroke-width="1.5" d="M1027.31 270.464v3.426l78.38-.004v-3.426z"/><path fill="#C5EBF5" stroke="#0055DC" stroke-miterlimit="10" stroke-width="1.5" d="M1110.49 246h-87.98v24.462h87.98z"/><path fill="#fff" d="M1106.69 267.012v-17.564h-80.38v17.564z"/><path fill="#0055DC" d="M1032.83 254.408h-1.95v1.902h1.95zm0 5.725h-1.95v1.903h1.95zm2.67-3.016h-1.95v1.902h1.95zm2.37-2.709h-1.95v1.902h1.95zm0 5.725h-1.95v1.903h1.95zm2.52-3.016h-1.95v1.902h1.95zm2.98-2.709h-1.95v1.902h1.95zm0 5.725h-1.95v1.903h1.95zm2.52-3.016h-1.95v1.902h1.95zm3.06-2.709h-1.94v1.902h1.94zm0 5.725h-1.94v1.903h1.94zm2.37-3.016h-1.94v1.902h1.94zm2.67-2.709h-1.95v1.902h1.95zm0 5.725h-1.95v1.903h1.95zm2.22-3.016h-1.94v1.902h1.94zm2.82-2.709h-1.95v1.902h1.95zm0 5.725h-1.95v1.903h1.95zm2.07-3.016h-1.94v1.902h1.94zm39.21 3.475c1.33 0 2.41-1.057 2.41-2.361s-1.08-2.362-2.41-2.362c-1.34 0-2.42 1.057-2.42 2.362 0 1.304 1.08 2.361 2.42 2.361"/><path stroke="#0055DC" stroke-miterlimit="10" stroke-width="1.5" d="M1093.35 258.23h-25.6"/><path fill="#0055DC" d="M1022.51 284.198H1019v18.05h3.51zm91.49 0h-3.51v18.05h3.51z"/><path fill="#fff" stroke="#0055DC" stroke-miterlimit="10" stroke-width="1.5" d="M1027.31 305.464v3.426l78.38-.004v-3.426z"/><path fill="#C5EBF5" stroke="#0055DC" stroke-miterlimit="10" stroke-width="1.5" d="M1110.49 281h-87.98v24.462h87.98z"/><path fill="#fff" d="M1106.69 302.012v-17.564h-80.38v17.564z"/><path fill="#0055DC" d="M1032.83 289.408h-1.95v1.902h1.95zm0 5.725h-1.95v1.903h1.95zm2.67-3.016h-1.95v1.902h1.95zm2.37-2.709h-1.95v1.902h1.95zm0 5.725h-1.95v1.903h1.95zm2.52-3.016h-1.95v1.902h1.95zm2.98-2.709h-1.95v1.902h1.95zm0 5.725h-1.95v1.903h1.95zm2.52-3.016h-1.95v1.902h1.95zm3.06-2.709h-1.94v1.902h1.94zm0 5.725h-1.94v1.903h1.94zm2.37-3.016h-1.94v1.902h1.94zm2.67-2.709h-1.95v1.902h1.95zm0 5.725h-1.95v1.903h1.95zm2.22-3.016h-1.94v1.902h1.94zm2.82-2.709h-1.95v1.902h1.95zm0 5.725h-1.95v1.903h1.95zm2.07-3.016h-1.94v1.902h1.94zm39.21 3.475c1.33 0 2.41-1.057 2.41-2.361s-1.08-2.362-2.41-2.362c-1.34 0-2.42 1.057-2.42 2.362 0 1.304 1.08 2.361 2.42 2.361"/><path stroke="#0055DC" stroke-miterlimit="10" stroke-width="1.5" d="M1093.35 293.23h-25.6"/><path fill="#5E5E5E" d="M989.061 190.061a1.5 1.5 0 0 0 0-2.122l-9.546-9.546a1.5 1.5 0 0 0-2.122 0 1.5 1.5 0 0 0 0 2.122l8.486 8.485-8.486 8.485a1.5 1.5 0 0 0 0 2.122 1.5 1.5 0 0 0 2.122 0zM988 187.5H857v3h131zM831.5 213v66.5h3V213zM809 302h-6v3h6zm22.5-22.5c0 12.426-10.074 22.5-22.5 22.5v3c14.083 0 25.5-11.417 25.5-25.5zm25.5-92c-14.083 0-25.5 11.417-25.5 25.5h3c0-12.426 10.074-22.5 22.5-22.5z"/><path fill="#5E5E5E" d="M989.239 462.061a1.5 1.5 0 0 0 0-2.122l-9.546-9.546a1.501 1.501 0 0 0-2.121 2.122l8.485 8.485-8.485 8.485a1.5 1.5 0 0 0 2.121 2.122zm-1.06-2.561H857v3h131.179zM834.5 437V327.5h-3V437zM809 302h-6v3h6zm25.5 25.5c0-14.083-11.417-25.5-25.5-25.5v3c12.426 0 22.5 10.074 22.5 22.5zm22.5 132c-12.426 0-22.5-10.074-22.5-22.5h-3c0 14.083 11.417 25.5 25.5 25.5z"/></svg>