<svg xmlns="http://www.w3.org/2000/svg" width="553" height="393" fill="none" viewBox="0 0 553 393"><path fill="#fff" d="M0 0h553v393H0z"/><path fill="#C5EBF5" stroke="#0055DC" stroke-miterlimit="10" stroke-width="1.5" d="M396.378 92.527h-3.162V71.813h1.756v1.977h1.406z"/><path fill="#fff" d="M395.596 75.768h-2.312v16.669h2.312z"/><path fill="#0055DC" d="M395.086 76.528h.501v-.76h-.501zm-1.151 0h.501v-.76h-.501zm1.151 2.422h.501v-.76h-.501zm-1.151 0h.501v-.76h-.501zm1.151 2.423h.501v-.76h-.501zm-1.151 0h.501v-.76h-.501zm1.151 2.422h.501v-.76h-.501zm-1.151 0h.501v-.76h-.501zm1.151 2.423h.501v-.76h-.501zm-1.151 0h.501v-.76h-.501zm1.151 2.422h.501v-.76h-.501zm-1.151 0h.501v-.76h-.501zm1.151 2.423h.501v-.76h-.501zm-1.151 0h.501v-.76h-.501zm2.997-16.005h-.554v17.47h.554z"/><path fill="#C5EBF5" stroke="#0055DC" stroke-miterlimit="10" stroke-width="1.5" d="M381.25 92.527h3.163V71.813h-1.757v1.977h-1.406z"/><path fill="#fff" d="M384.353 75.768h-2.312v16.669h2.312z"/><path fill="#0055DC" d="M382.542 75.768h-.501v.76h.501zm1.151 0h-.501v.76h.501zm-1.151 2.422h-.501v.76h.501zm1.151 0h-.501v.76h.501zm-1.151 2.423h-.501v.76h.501zm1.151 0h-.501v.76h.501zm-1.151 2.422h-.501v.76h.501zm1.151 0h-.501v.76h.501zm-1.151 2.423h-.501v.76h.501zm1.151 0h-.501v.76h.501zm-1.151 2.422h-.501v.76h.501zm1.151 0h-.501v.76h.501zm-1.151 2.422h-.501v.76h.501zm1.151 0h-.501v.76h.501zm-2.443-15.244h-.554v17.47h.554z"/><path fill="#fff" stroke="#0055DC" stroke-miterlimit="10" stroke-width="1.5" d="M393.216 68h-8.803v24.528h8.803z"/><path fill="#003682" d="M390.363 89.153h-3.098v3.374h3.098z"/><path fill="#C5EBF5" d="M387.433 71.813h-2.14v3.245h2.14zm2.451 0h-2.14v3.245h2.14zm2.452 0h-2.141v3.245h2.141zm-4.903 4.335h-2.14v3.245h2.14zm2.451 0h-2.14v3.245h2.14zm2.452 0h-2.141v3.245h2.141zm-4.903 4.335h-2.14v3.245h2.14zm2.451 0h-2.14v3.245h2.14zm2.452 0h-2.141v3.245h2.141zm-4.903 4.335h-2.14v3.246h2.14zm2.451 0h-2.14v3.246h2.14zm2.452 0h-2.141v3.246h2.141z"/><path stroke="#0055DC" stroke-miterlimit="10" stroke-width="1.5" d="M378 92.528h21.567"/><path fill="#222" d="M407.017 86h-2.636l4.017-11.636h3.17L415.58 86h-2.637l-2.915-8.977h-.09zm-.165-4.574h6.228v1.92h-6.228zM416.804 86V74.364h4.591q1.324 0 2.256.505a3.43 3.43 0 0 1 1.42 1.392q.495.886.494 2.046 0 1.158-.5 2.045a3.45 3.45 0 0 1-1.448 1.381q-.944.495-2.284.494h-2.927v-1.971h2.529q.71 0 1.17-.245.466-.249.693-.687.234-.444.233-1.017a2.1 2.1 0 0 0-.233-1.011 1.55 1.55 0 0 0-.693-.677q-.465-.244-1.182-.244h-1.659V86zm10.845 0h-2.636l4.017-11.636h3.171L436.212 86h-2.636l-2.915-8.977h-.091zm-.164-4.574h6.227v1.92h-6.227zm19.672-2.989h-2.489a2.4 2.4 0 0 0-.278-.858 2.2 2.2 0 0 0-.54-.647 2.4 2.4 0 0 0-.762-.41 2.9 2.9 0 0 0-.926-.141q-.903 0-1.574.448-.67.444-1.039 1.296-.37.846-.37 2.057 0 1.244.37 2.09.375.847 1.045 1.28.67.43 1.551.431.495 0 .915-.13.426-.132.756-.381.329-.255.545-.62.222-.363.307-.83l2.489.012a4.64 4.64 0 0 1-1.512 2.87 4.8 4.8 0 0 1-1.534.92q-.886.335-2.005.335-1.557 0-2.785-.705-1.221-.705-1.931-2.04-.705-1.335-.705-3.232 0-1.904.716-3.239t1.943-2.034q1.227-.705 2.762-.705a6 6 0 0 1 1.875.285q.869.283 1.539.83.67.538 1.091 1.323.426.784.546 1.796m9.24 7.563h-4.125V74.364h4.159q1.756 0 3.023.698a4.7 4.7 0 0 1 1.949 1.995q.687 1.3.687 3.114 0 1.818-.687 3.124a4.7 4.7 0 0 1-1.961 2.006q-1.272.699-3.045.699m-1.665-2.108h1.563q1.09 0 1.835-.386.75-.393 1.125-1.21.381-.825.381-2.126 0-1.29-.381-2.108-.375-.818-1.119-1.204-.745-.386-1.836-.386h-1.568zm19.272-5.454h-2.489a2.4 2.4 0 0 0-.278-.859 2.2 2.2 0 0 0-.54-.647 2.4 2.4 0 0 0-.762-.41 2.9 2.9 0 0 0-.926-.141q-.903 0-1.574.448-.67.444-1.039 1.296-.37.846-.37 2.057 0 1.244.37 2.09.375.847 1.045 1.28.67.43 1.551.431.495 0 .915-.13.426-.132.756-.381.329-.255.545-.62.222-.363.307-.83l2.489.012a4.64 4.64 0 0 1-1.512 2.87 4.8 4.8 0 0 1-1.534.92q-.886.335-2.005.335-1.557 0-2.785-.705-1.221-.705-1.931-2.04-.705-1.335-.705-3.232 0-1.904.716-3.239t1.943-2.034q1.227-.705 2.762-.705a6 6 0 0 1 1.875.285q.868.283 1.539.83.67.538 1.091 1.323.426.784.546 1.796"/><path fill="#C5EBF5" stroke="#0055DC" stroke-miterlimit="10" stroke-width="1.5" d="M38.378 93.527h-3.162V72.813h1.756v1.977h1.406z"/><path fill="#fff" d="M37.596 76.768h-2.312v16.669h2.312z"/><path fill="#0055DC" d="M37.086 77.528h.501v-.76h-.5zm-1.151 0h.501v-.76h-.501zm1.151 2.422h.501v-.76h-.5zm-1.151 0h.501v-.76h-.501zm1.151 2.423h.501v-.76h-.5zm-1.151 0h.501v-.76h-.501zm1.151 2.422h.501v-.76h-.5zm-1.151 0h.501v-.76h-.501zm1.151 2.423h.501v-.76h-.5zm-1.151 0h.501v-.76h-.501zm1.151 2.422h.501v-.76h-.5zm-1.151 0h.501v-.76h-.501zm1.151 2.423h.501v-.76h-.5zm-1.151 0h.501v-.76h-.501zm2.997-16.005h-.554v17.47h.554z"/><path fill="#C5EBF5" stroke="#0055DC" stroke-miterlimit="10" stroke-width="1.5" d="M23.25 93.527h3.163V72.813h-1.757v1.977H23.25z"/><path fill="#fff" d="M26.353 76.768H24.04v16.669h2.312z"/><path fill="#0055DC" d="M24.542 76.768h-.501v.76h.501zm1.151 0h-.501v.76h.501zm-1.151 2.422h-.501v.76h.501zm1.151 0h-.501v.76h.501zm-1.151 2.423h-.501v.76h.501zm1.151 0h-.501v.76h.501zm-1.151 2.422h-.501v.76h.501zm1.151 0h-.501v.76h.501zm-1.151 2.423h-.501v.76h.501zm1.151 0h-.501v.76h.501zm-1.151 2.422h-.501v.76h.501zm1.151 0h-.501v.76h.501zm-1.151 2.422h-.501v.76h.501zm1.151 0h-.501v.76h.501zM23.25 76.058h-.554v17.47h.554z"/><path fill="#fff" stroke="#0055DC" stroke-miterlimit="10" stroke-width="1.5" d="M35.216 69h-8.803v24.528h8.803z"/><path fill="#003682" d="M32.363 90.153h-3.098v3.374h3.098z"/><path fill="#C5EBF5" d="M29.433 72.813h-2.14v3.245h2.14zm2.451 0h-2.14v3.245h2.14zm2.452 0h-2.14v3.245h2.14zm-4.903 4.335h-2.14v3.245h2.14zm2.451 0h-2.14v3.245h2.14zm2.452 0h-2.14v3.245h2.14zm-4.903 4.335h-2.14v3.245h2.14zm2.451 0h-2.14v3.245h2.14zm2.452 0h-2.14v3.245h2.14zm-4.903 4.335h-2.14v3.246h2.14zm2.451 0h-2.14v3.246h2.14zm2.452 0h-2.14v3.246h2.14z"/><path stroke="#0055DC" stroke-miterlimit="10" stroke-width="1.5" d="M20 93.528h21.567"/><path fill="#222" d="M49.017 87h-2.636l4.017-11.636h3.17L57.58 87h-2.637l-2.915-8.977h-.09zm-.165-4.574h6.228v1.92h-6.228zM58.76 87v-8.727h2.307v1.54h.102a2.42 2.42 0 0 1 .909-1.21q.636-.444 1.523-.444.897 0 1.528.449.63.443.84 1.204h.092q.267-.75.966-1.198.704-.455 1.665-.455 1.221 0 1.982.778.767.774.767 2.194V87h-2.414v-5.392q0-.728-.387-1.091-.386-.364-.966-.364-.659 0-1.028.42-.37.415-.37 1.098V87H63.93v-5.443q0-.643-.37-1.023-.363-.38-.96-.38-.402 0-.727.204-.318.198-.505.563a1.8 1.8 0 0 0-.188.84V87zm18.395.17q-1.347 0-2.318-.545a3.74 3.74 0 0 1-1.49-1.557q-.522-1.01-.522-2.392 0-1.347.523-2.364a3.86 3.86 0 0 1 1.472-1.585q.954-.568 2.238-.568.864 0 1.608.278.75.273 1.307.824.562.552.875 1.387.312.829.312 1.943v.665h-7.37v-1.5h5.091q0-.523-.227-.927a1.63 1.63 0 0 0-.631-.63 1.8 1.8 0 0 0-.926-.233q-.552 0-.977.256-.42.25-.66.676-.238.42-.244.937v1.426q0 .648.239 1.12.244.47.687.727.444.255 1.052.256.403 0 .738-.114.336-.114.574-.34.238-.228.364-.558l2.238.148a3.06 3.06 0 0 1-.699 1.41q-.522.596-1.352.93-.825.33-1.903.33m5.409-.17v-8.727h2.346v1.523H85q.24-.813.802-1.228.561-.42 1.295-.42a3.7 3.7 0 0 1 .761.085v2.148a3 3 0 0 0-.471-.091 4 4 0 0 0-.551-.04q-.534 0-.955.233a1.7 1.7 0 0 0-.659.636q-.24.409-.239.944V87zm6.37 0v-8.727h2.421V87zm1.217-9.852q-.54 0-.926-.358a1.16 1.16 0 0 1-.381-.87q0-.5.38-.858.387-.363.927-.363t.92.364q.387.357.387.858 0 .505-.387.869-.38.357-.92.358m6.91 10.023q-1.341 0-2.306-.569a3.84 3.84 0 0 1-1.478-1.59q-.51-1.018-.511-2.341 0-1.342.517-2.353a3.84 3.84 0 0 1 1.483-1.585q.96-.574 2.284-.574 1.142 0 2 .415a3.34 3.34 0 0 1 1.358 1.165q.5.75.551 1.761h-2.284q-.096-.654-.511-1.051-.41-.404-1.074-.403-.563 0-.983.306-.415.302-.648.881-.233.58-.233 1.403 0 .835.227 1.42.234.586.654.893.42.306.983.307.414 0 .744-.17.336-.172.551-.495.222-.33.29-.79h2.284q-.057 1-.545 1.761a3.3 3.3 0 0 1-1.336 1.182q-.852.427-2.017.427m7.76-.006q-.835 0-1.488-.29a2.4 2.4 0 0 1-1.034-.87q-.375-.58-.375-1.442 0-.727.267-1.222t.727-.795q.46-.302 1.045-.455a8 8 0 0 1 1.239-.216q.762-.08 1.227-.148.466-.073.677-.216a.48.48 0 0 0 .21-.42v-.034q0-.54-.341-.835-.336-.296-.955-.296-.653 0-1.039.29a1.33 1.33 0 0 0-.512.716l-2.238-.182q.17-.796.67-1.375.5-.585 1.29-.898.795-.318 1.841-.318.727 0 1.392.17.67.17 1.187.529.523.358.824.92.301.558.301 1.336V87h-2.295v-1.21h-.068a2.5 2.5 0 0 1-.563.721 2.6 2.6 0 0 1-.847.483q-.494.17-1.142.17m.694-1.67q.534 0 .943-.21.41-.217.642-.58.233-.364.233-.824v-.927q-.114.075-.313.137a6 6 0 0 1-.437.108q-.244.045-.489.085l-.443.063a3 3 0 0 0-.744.199q-.318.135-.495.369a.9.9 0 0 0-.176.568q0 .494.358.756.364.255.921.255m13.184-4.734-2.216.137a1.14 1.14 0 0 0-.244-.512 1.3 1.3 0 0 0-.494-.369 1.7 1.7 0 0 0-.722-.142q-.562 0-.949.239-.386.232-.386.625 0 .312.25.528t.858.347l1.58.318q1.272.261 1.897.84.625.58.625 1.523 0 .858-.505 1.506-.5.649-1.375 1.011-.87.36-2.006.359-1.733 0-2.761-.722a2.8 2.8 0 0 1-1.199-1.977l2.38-.125q.109.528.523.806.415.273 1.063.273.636 0 1.022-.244.393-.25.398-.642a.67.67 0 0 0-.278-.54q-.273-.216-.841-.33l-1.512-.3q-1.278-.257-1.903-.887-.62-.63-.619-1.608 0-.84.454-1.449.46-.608 1.29-.937.835-.33 1.954-.33 1.654 0 2.603.699.954.699 1.113 1.903M127.943 87h-4.125V75.364h4.159q1.756 0 3.023.698a4.7 4.7 0 0 1 1.949 1.995q.687 1.3.687 3.114 0 1.818-.687 3.124a4.7 4.7 0 0 1-1.961 2.006q-1.272.699-3.045.699m-1.665-2.108h1.563q1.09 0 1.835-.386.75-.393 1.125-1.21.381-.825.381-2.126 0-1.29-.381-2.108-.375-.818-1.119-1.204-.745-.386-1.836-.386h-1.568zm19.272-5.454h-2.489a2.4 2.4 0 0 0-.278-.859 2.2 2.2 0 0 0-.54-.647 2.4 2.4 0 0 0-.762-.41 2.9 2.9 0 0 0-.926-.141q-.903 0-1.574.448-.67.444-1.039 1.296-.37.846-.37 2.057 0 1.244.37 2.09.375.847 1.045 1.28.67.43 1.551.431.495 0 .915-.13.426-.132.756-.381.329-.255.545-.62.222-.363.307-.83l2.489.012a4.64 4.64 0 0 1-1.512 2.87 4.8 4.8 0 0 1-1.534.92q-.886.335-2.005.335-1.557 0-2.785-.705-1.221-.705-1.931-2.04-.705-1.335-.705-3.232 0-1.904.716-3.239t1.943-2.034q1.227-.705 2.762-.705a6 6 0 0 1 1.875.285q.869.283 1.539.83.67.538 1.091 1.323.426.784.546 1.796"/><path fill="#C5EBF5" stroke="#0055DC" stroke-miterlimit="10" stroke-width="1.5" d="M217.378 93.527h-3.162V72.813h1.756v1.977h1.406z"/><path fill="#fff" d="M216.596 76.768h-2.312v16.669h2.312z"/><path fill="#0055DC" d="M216.086 77.528h.501v-.76h-.501zm-1.151 0h.501v-.76h-.501zm1.151 2.422h.501v-.76h-.501zm-1.151 0h.501v-.76h-.501zm1.151 2.423h.501v-.76h-.501zm-1.151 0h.501v-.76h-.501zm1.151 2.422h.501v-.76h-.501zm-1.151 0h.501v-.76h-.501zm1.151 2.423h.501v-.76h-.501zm-1.151 0h.501v-.76h-.501zm1.151 2.422h.501v-.76h-.501zm-1.151 0h.501v-.76h-.501zm1.151 2.423h.501v-.76h-.501zm-1.151 0h.501v-.76h-.501zm2.997-16.005h-.554v17.47h.554z"/><path fill="#C5EBF5" stroke="#0055DC" stroke-miterlimit="10" stroke-width="1.5" d="M202.25 93.527h3.163V72.813h-1.757v1.977h-1.406z"/><path fill="#fff" d="M205.353 76.768h-2.312v16.669h2.312z"/><path fill="#0055DC" d="M203.542 76.768h-.501v.76h.501zm1.151 0h-.501v.76h.501zm-1.151 2.422h-.501v.76h.501zm1.151 0h-.501v.76h.501zm-1.151 2.423h-.501v.76h.501zm1.151 0h-.501v.76h.501zm-1.151 2.422h-.501v.76h.501zm1.151 0h-.501v.76h.501zm-1.151 2.423h-.501v.76h.501zm1.151 0h-.501v.76h.501zm-1.151 2.422h-.501v.76h.501zm1.151 0h-.501v.76h.501zm-1.151 2.422h-.501v.76h.501zm1.151 0h-.501v.76h.501zm-2.443-15.244h-.554v17.47h.554z"/><path fill="#fff" stroke="#0055DC" stroke-miterlimit="10" stroke-width="1.5" d="M214.216 69h-8.803v24.528h8.803z"/><path fill="#003682" d="M211.363 90.153h-3.098v3.374h3.098z"/><path fill="#C5EBF5" d="M208.433 72.813h-2.14v3.245h2.14zm2.451 0h-2.14v3.245h2.14zm2.452 0h-2.141v3.245h2.141zm-4.903 4.335h-2.14v3.245h2.14zm2.451 0h-2.14v3.245h2.14zm2.452 0h-2.141v3.245h2.141zm-4.903 4.335h-2.14v3.245h2.14zm2.451 0h-2.14v3.245h2.14zm2.452 0h-2.141v3.245h2.141zm-4.903 4.335h-2.14v3.246h2.14zm2.451 0h-2.14v3.246h2.14zm2.452 0h-2.141v3.246h2.141z"/><path stroke="#0055DC" stroke-miterlimit="10" stroke-width="1.5" d="M199 93.528h21.567"/><path fill="#222" d="M226.011 87V75.364h7.841v2.028h-5.38v2.773h4.977v2.028h-4.977v2.779h5.403V87zm15.172-3.716v-5.011h2.421V87h-2.324v-1.585h-.091a2.6 2.6 0 0 1-.983 1.233q-.681.466-1.665.466-.874 0-1.539-.398a2.73 2.73 0 0 1-1.04-1.13q-.369-.734-.375-1.757v-5.556h2.42v5.125q.006.772.415 1.221t1.097.45q.437 0 .818-.2.38-.204.613-.602.24-.398.233-.983M245.364 87v-8.727h2.347v1.523h.09q.24-.813.802-1.228.562-.42 1.295-.42a3.7 3.7 0 0 1 .761.085v2.148a3 3 0 0 0-.471-.091 4 4 0 0 0-.551-.04q-.534 0-.955.233a1.7 1.7 0 0 0-.659.636 1.84 1.84 0 0 0-.239.944V87zm9.908.17q-1.324 0-2.29-.562a3.85 3.85 0 0 1-1.483-1.58q-.523-1.017-.523-2.358 0-1.352.523-2.363a3.8 3.8 0 0 1 1.483-1.58q.966-.568 2.29-.568t2.284.568q.966.563 1.488 1.58.523 1.011.523 2.364 0 1.34-.523 2.357a3.83 3.83 0 0 1-1.488 1.58q-.96.563-2.284.563m.011-1.874q.603 0 1.006-.342.403-.346.608-.943.21-.596.21-1.358 0-.76-.21-1.358-.205-.596-.608-.943-.403-.346-1.006-.346-.608 0-1.023.346-.409.347-.619.944-.204.596-.205 1.357 0 .761.205 1.358.21.597.619.944.415.34 1.023.34m5.682 4.977v-12h2.386v1.466h.108q.16-.353.461-.716.306-.37.795-.614.495-.25 1.227-.25.955 0 1.762.5.807.495 1.289 1.494.483.995.483 2.495 0 1.46-.471 2.466-.466 1-1.273 1.517a3.27 3.27 0 0 1-1.795.511q-.705 0-1.199-.233a2.5 2.5 0 0 1-.801-.585 3 3 0 0 1-.478-.722h-.074v4.67zm2.369-7.637q0 .78.216 1.358.217.58.625.904.409.318.995.318.59 0 1-.324.408-.33.619-.909.216-.586.216-1.347 0-.755-.21-1.33-.211-.573-.62-.897t-1.005-.324q-.592 0-1 .313-.404.313-.62.886-.216.574-.216 1.352m11.557 4.535q-1.346 0-2.318-.546a3.74 3.74 0 0 1-1.489-1.557q-.522-1.01-.522-2.392 0-1.347.522-2.364a3.87 3.87 0 0 1 1.472-1.585q.954-.568 2.239-.568a4.6 4.6 0 0 1 1.608.278q.75.273 1.306.824.563.552.875 1.387.313.829.313 1.943v.665h-7.369v-1.5h5.091a1.85 1.85 0 0 0-.228-.927 1.6 1.6 0 0 0-.63-.63 1.8 1.8 0 0 0-.927-.233q-.55 0-.977.256-.42.25-.659.676-.238.42-.244.937v1.426q0 .648.238 1.12.244.47.688.727.443.255 1.051.256.403 0 .739-.114.334-.114.574-.34.238-.228.363-.558l2.239.148a3.06 3.06 0 0 1-.699 1.41q-.522.596-1.352.93-.825.33-1.904.33m13.107-.17h-4.125V75.364h4.159q1.756 0 3.023.698a4.7 4.7 0 0 1 1.949 1.995q.687 1.3.687 3.114 0 1.818-.687 3.124a4.73 4.73 0 0 1-1.96 2.006q-1.273.699-3.046.699m-1.665-2.108h1.563q1.09 0 1.835-.386.75-.393 1.125-1.21.381-.825.381-2.126 0-1.29-.381-2.108-.375-.818-1.119-1.204t-1.835-.386h-1.569zm19.272-5.454h-2.489a2.4 2.4 0 0 0-.278-.859q-.21-.38-.54-.647a2.4 2.4 0 0 0-.761-.41 2.9 2.9 0 0 0-.927-.141q-.903 0-1.573.448-.67.444-1.04 1.296-.369.846-.369 2.057 0 1.244.369 2.09.375.847 1.045 1.28.67.43 1.551.431.495 0 .915-.13.426-.132.756-.381.33-.255.545-.62.222-.363.307-.83l2.489.012a4.64 4.64 0 0 1-1.512 2.87 4.8 4.8 0 0 1-1.534.92q-.886.335-2.005.335-1.557 0-2.784-.705-1.222-.705-1.932-2.04-.705-1.335-.705-3.232 0-1.904.716-3.239t1.943-2.034q1.227-.705 2.762-.705a6 6 0 0 1 1.875.285q.868.283 1.539.83.67.538 1.091 1.323.426.784.546 1.796"/><path fill="#fff" stroke="#0055DC" stroke-width="2" d="M21 102h151v222H21z"/><path fill="#0055DC" d="M50.507 114.198H47v18.05h3.507zm91.493 0h-3.507v18.05H142z"/><path fill="#fff" stroke="#0055DC" stroke-miterlimit="10" stroke-width="1.5" d="M55.31 135.464v3.426l78.377-.004v-3.426z"/><path fill="#C5EBF5" stroke="#0055DC" stroke-miterlimit="10" stroke-width="1.5" d="M138.492 111H50.507v24.462h87.985z"/><path fill="#fff" d="M134.692 132.012v-17.564H54.308v17.564z"/><path fill="#0055DC" d="M60.832 119.408h-1.947v1.902h1.947zm0 5.725h-1.947v1.903h1.947zm2.667-3.016H61.55v1.902h1.948zm2.371-2.709h-1.948v1.902h1.948zm0 5.725h-1.948v1.903h1.948zm2.519-3.016h-1.948v1.902h1.948zm2.981-2.709h-1.948v1.902h1.948zm0 5.725h-1.948v1.903h1.948zm2.518-3.016h-1.947v1.902h1.947zm3.065-2.709h-1.948v1.902h1.948zm0 5.725h-1.948v1.903h1.948zm2.371-3.016h-1.948v1.902h1.948zm2.666-2.709h-1.948v1.902h1.948zm0 5.725h-1.948v1.903h1.948zm2.224-3.016h-1.948v1.902h1.948zm2.816-2.709h-1.948v1.902h1.947zm0 5.725h-1.948v1.903h1.947zm2.074-3.016h-1.947v1.902h1.947zm39.202 3.475c1.335 0 2.418-1.057 2.418-2.361s-1.083-2.362-2.418-2.362-2.418 1.058-2.418 2.362 1.083 2.361 2.418 2.361"/><path stroke="#0055DC" stroke-miterlimit="10" stroke-width="1.5" d="M121.354 123.231H95.748"/><path fill="#0055DC" d="M50.507 149.198H47v18.05h3.507zm91.493 0h-3.507v18.05H142z"/><path fill="#fff" stroke="#0055DC" stroke-miterlimit="10" stroke-width="1.5" d="M55.31 170.464v3.426l78.377-.004v-3.426z"/><path fill="#C5EBF5" stroke="#0055DC" stroke-miterlimit="10" stroke-width="1.5" d="M138.492 146H50.507v24.462h87.985z"/><path fill="#fff" d="M134.692 167.012v-17.564H54.308v17.564z"/><path fill="#0055DC" d="M60.832 154.408h-1.947v1.902h1.947zm0 5.725h-1.947v1.903h1.947zm2.667-3.016H61.55v1.902h1.948zm2.371-2.709h-1.948v1.902h1.948zm0 5.725h-1.948v1.903h1.948zm2.519-3.016h-1.948v1.902h1.948zm2.981-2.709h-1.948v1.902h1.948zm0 5.725h-1.948v1.903h1.948zm2.518-3.016h-1.947v1.902h1.947zm3.065-2.709h-1.948v1.902h1.948zm0 5.725h-1.948v1.903h1.948zm2.371-3.016h-1.948v1.902h1.948zm2.666-2.709h-1.948v1.902h1.948zm0 5.725h-1.948v1.903h1.948zm2.224-3.016h-1.948v1.902h1.948zm2.816-2.709h-1.948v1.902h1.947zm0 5.725h-1.948v1.903h1.947zm2.074-3.016h-1.947v1.902h1.947zm39.202 3.475c1.335 0 2.418-1.057 2.418-2.361s-1.083-2.362-2.418-2.362-2.418 1.058-2.418 2.362 1.083 2.361 2.418 2.361"/><path stroke="#0055DC" stroke-miterlimit="10" stroke-width="1.5" d="M121.354 158.231H95.748"/><path fill="#0055DC" d="M50.507 184.313H47v18.697h3.507zm91.493 0h-3.507v18.697H142z"/><path fill="#fff" stroke="#0055DC" stroke-miterlimit="10" stroke-width="1.5" d="M55.31 206.342v3.548l78.377-.004v-3.549z"/><path fill="#C5EBF5" stroke="#0055DC" stroke-miterlimit="10" stroke-width="1.5" d="M138.492 181H50.507v25.339h87.985z"/><path fill="#fff" d="M134.692 202.766v-18.194H54.308v18.194z"/><path fill="#0055DC" d="M60.832 189.709h-1.947v1.971h1.947zm0 5.931h-1.947v1.971h1.947zm2.667-3.125H61.55v1.971h1.948zm2.371-2.806h-1.948v1.971h1.948zm0 5.931h-1.948v1.971h1.948zm2.519-3.125h-1.948v1.971h1.948zm2.981-2.806h-1.948v1.971h1.948zm0 5.931h-1.948v1.971h1.948zm2.518-3.125h-1.947v1.971h1.947zm3.065-2.806h-1.948v1.971h1.948zm0 5.931h-1.948v1.971h1.948zm2.371-3.125h-1.948v1.971h1.948zm2.666-2.806h-1.948v1.971h1.948zm0 5.931h-1.948v1.971h1.948zm2.224-3.125h-1.948v1.971h1.948zm2.816-2.806h-1.948v1.971h1.947zm0 5.931h-1.948v1.971h1.947zm2.074-3.125h-1.947v1.971h1.947zm39.202 3.601c1.335 0 2.418-1.096 2.418-2.447s-1.083-2.446-2.418-2.446-2.418 1.095-2.418 2.446 1.083 2.447 2.418 2.447"/><path stroke="#0055DC" stroke-miterlimit="10" stroke-width="1.5" d="M121.354 193.669H95.748"/><path fill="#0055DC" d="M50.507 220.198H47v18.05h3.507zm91.493 0h-3.507v18.05H142z"/><path fill="#fff" stroke="#0055DC" stroke-miterlimit="10" stroke-width="1.5" d="M55.31 241.464v3.426l78.377-.004v-3.426z"/><path fill="#C5EBF5" stroke="#0055DC" stroke-miterlimit="10" stroke-width="1.5" d="M138.492 217H50.507v24.462h87.985z"/><path fill="#fff" d="M134.692 238.012v-17.564H54.308v17.564z"/><path fill="#0055DC" d="M60.832 225.408h-1.947v1.902h1.947zm0 5.725h-1.947v1.903h1.947zm2.667-3.016H61.55v1.902h1.948zm2.371-2.709h-1.948v1.902h1.948zm0 5.725h-1.948v1.903h1.948zm2.519-3.016h-1.948v1.902h1.948zm2.981-2.709h-1.948v1.902h1.948zm0 5.725h-1.948v1.903h1.948zm2.518-3.016h-1.947v1.902h1.947zm3.065-2.709h-1.948v1.902h1.948zm0 5.725h-1.948v1.903h1.948zm2.371-3.016h-1.948v1.902h1.948zm2.666-2.709h-1.948v1.902h1.948zm0 5.725h-1.948v1.903h1.948zm2.224-3.016h-1.948v1.902h1.948zm2.816-2.709h-1.948v1.902h1.947zm0 5.725h-1.948v1.903h1.947zm2.074-3.016h-1.947v1.902h1.947zm39.202 3.475c1.335 0 2.418-1.057 2.418-2.361s-1.083-2.362-2.418-2.362-2.418 1.058-2.418 2.362 1.083 2.361 2.418 2.361"/><path stroke="#0055DC" stroke-miterlimit="10" stroke-width="1.5" d="M121.354 229.231H95.748"/><path fill="#0055DC" d="M50.507 255.198H47v18.05h3.507zm91.493 0h-3.507v18.05H142z"/><path fill="#fff" stroke="#0055DC" stroke-miterlimit="10" stroke-width="1.5" d="M55.31 276.464v3.426l78.377-.004v-3.426z"/><path fill="#C5EBF5" stroke="#0055DC" stroke-miterlimit="10" stroke-width="1.5" d="M138.492 252H50.507v24.462h87.985z"/><path fill="#fff" d="M134.692 273.012v-17.564H54.308v17.564z"/><path fill="#0055DC" d="M60.832 260.408h-1.947v1.902h1.947zm0 5.725h-1.947v1.903h1.947zm2.667-3.016H61.55v1.902h1.948zm2.371-2.709h-1.948v1.902h1.948zm0 5.725h-1.948v1.903h1.948zm2.519-3.016h-1.948v1.902h1.948zm2.981-2.709h-1.948v1.902h1.948zm0 5.725h-1.948v1.903h1.948zm2.518-3.016h-1.947v1.902h1.947zm3.065-2.709h-1.948v1.902h1.948zm0 5.725h-1.948v1.903h1.948zm2.371-3.016h-1.948v1.902h1.948zm2.666-2.709h-1.948v1.902h1.948zm0 5.725h-1.948v1.903h1.948zm2.224-3.016h-1.948v1.902h1.948zm2.816-2.709h-1.948v1.902h1.947zm0 5.725h-1.948v1.903h1.947zm2.074-3.016h-1.947v1.902h1.947zm39.202 3.475c1.335 0 2.418-1.057 2.418-2.361s-1.083-2.362-2.418-2.362-2.418 1.058-2.418 2.362 1.083 2.361 2.418 2.361"/><path stroke="#0055DC" stroke-miterlimit="10" stroke-width="1.5" d="M121.354 264.231H95.748"/><path fill="#0055DC" d="M50.507 290.198H47v18.05h3.507zm91.493 0h-3.507v18.05H142z"/><path fill="#fff" stroke="#0055DC" stroke-miterlimit="10" stroke-width="1.5" d="M55.31 311.464v3.426l78.377-.004v-3.426z"/><path fill="#C5EBF5" stroke="#0055DC" stroke-miterlimit="10" stroke-width="1.5" d="M138.492 287H50.507v24.462h87.985z"/><path fill="#fff" d="M134.692 308.012v-17.564H54.308v17.564z"/><path fill="#0055DC" d="M60.832 295.408h-1.947v1.902h1.947zm0 5.725h-1.947v1.903h1.947zm2.667-3.016H61.55v1.902h1.948zm2.371-2.709h-1.948v1.902h1.948zm0 5.725h-1.948v1.903h1.948zm2.519-3.016h-1.948v1.902h1.948zm2.981-2.709h-1.948v1.902h1.948zm0 5.725h-1.948v1.903h1.948zm2.518-3.016h-1.947v1.902h1.947zm3.065-2.709h-1.948v1.902h1.948zm0 5.725h-1.948v1.903h1.948zm2.371-3.016h-1.948v1.902h1.948zm2.666-2.709h-1.948v1.902h1.948zm0 5.725h-1.948v1.903h1.948zm2.224-3.016h-1.948v1.902h1.948zm2.816-2.709h-1.948v1.902h1.947zm0 5.725h-1.948v1.903h1.947zm2.074-3.016h-1.947v1.902h1.947zm39.202 3.475c1.335 0 2.418-1.057 2.418-2.361s-1.083-2.362-2.418-2.362-2.418 1.058-2.418 2.362 1.083 2.361 2.418 2.361"/><path stroke="#0055DC" stroke-miterlimit="10" stroke-width="1.5" d="M121.354 299.231H95.748"/><path fill="#fff" stroke="#0055DC" stroke-width="2" d="M200 102h151v222H200z"/><path fill="#0055DC" d="M229.507 114.198H226v18.05h3.507zm91.493 0h-3.507v18.05H321z"/><path fill="#fff" stroke="#0055DC" stroke-miterlimit="10" stroke-width="1.5" d="m234.31 135.464.001 3.426 78.376-.004v-3.426z"/><path fill="#C5EBF5" stroke="#0055DC" stroke-miterlimit="10" stroke-width="1.5" d="M317.492 111h-87.985v24.462h87.985z"/><path fill="#fff" d="M313.692 132.012v-17.564h-80.384v17.564z"/><path fill="#0055DC" d="M239.832 119.408h-1.947v1.902h1.947zm0 5.725h-1.947v1.903h1.947zm2.667-3.016h-1.948v1.902h1.948zm2.37-2.709h-1.947v1.902h1.947zm0 5.725h-1.947v1.903h1.947zm2.52-3.016h-1.948v1.902h1.948zm2.98-2.709h-1.947v1.902h1.947zm0 5.725h-1.947v1.903h1.947zm2.519-3.016h-1.947v1.902h1.947zm3.065-2.709h-1.948v1.902h1.948zm0 5.725h-1.948v1.903h1.948zm2.371-3.016h-1.948v1.902h1.948zm2.666-2.709h-1.948v1.902h1.948zm0 5.725h-1.948v1.903h1.948zm2.224-3.016h-1.948v1.902h1.948zm2.815-2.709h-1.947v1.902h1.947zm0 5.725h-1.947v1.903h1.947zm2.075-3.016h-1.947v1.902h1.947zm39.202 3.475c1.335 0 2.418-1.057 2.418-2.361s-1.083-2.362-2.418-2.362-2.418 1.058-2.418 2.362 1.083 2.361 2.418 2.361"/><path stroke="#0055DC" stroke-miterlimit="10" stroke-width="1.5" d="M300.354 123.231h-25.606"/><path fill="#0055DC" d="M229.507 149.198H226v18.05h3.507zm91.493 0h-3.507v18.05H321z"/><path fill="#fff" stroke="#0055DC" stroke-miterlimit="10" stroke-width="1.5" d="m234.31 170.464.001 3.426 78.376-.004v-3.426z"/><path fill="#C5EBF5" stroke="#0055DC" stroke-miterlimit="10" stroke-width="1.5" d="M317.492 146h-87.985v24.462h87.985z"/><path fill="#fff" d="M313.692 167.012v-17.564h-80.384v17.564z"/><path fill="#0055DC" d="M239.832 154.408h-1.947v1.902h1.947zm0 5.725h-1.947v1.903h1.947zm2.667-3.016h-1.948v1.902h1.948zm2.37-2.709h-1.947v1.902h1.947zm0 5.725h-1.947v1.903h1.947zm2.52-3.016h-1.948v1.902h1.948zm2.98-2.709h-1.947v1.902h1.947zm0 5.725h-1.947v1.903h1.947zm2.519-3.016h-1.947v1.902h1.947zm3.065-2.709h-1.948v1.902h1.948zm0 5.725h-1.948v1.903h1.948zm2.371-3.016h-1.948v1.902h1.948zm2.666-2.709h-1.948v1.902h1.948zm0 5.725h-1.948v1.903h1.948zm2.224-3.016h-1.948v1.902h1.948zm2.815-2.709h-1.947v1.902h1.947zm0 5.725h-1.947v1.903h1.947zm2.075-3.016h-1.947v1.902h1.947zm39.202 3.475c1.335 0 2.418-1.057 2.418-2.361s-1.083-2.362-2.418-2.362-2.418 1.058-2.418 2.362 1.083 2.361 2.418 2.361"/><path stroke="#0055DC" stroke-miterlimit="10" stroke-width="1.5" d="M300.354 158.231h-25.606"/><path fill="#0055DC" d="M229.507 184.313H226v18.697h3.507zm91.493 0h-3.507v18.697H321z"/><path fill="#fff" stroke="#0055DC" stroke-miterlimit="10" stroke-width="1.5" d="m234.31 206.342.001 3.548 78.376-.004v-3.549z"/><path fill="#C5EBF5" stroke="#0055DC" stroke-miterlimit="10" stroke-width="1.5" d="M317.492 181h-87.985v25.339h87.985z"/><path fill="#fff" d="M313.692 202.766v-18.194h-80.384v18.194z"/><path fill="#0055DC" d="M239.832 189.709h-1.947v1.971h1.947zm0 5.931h-1.947v1.971h1.947zm2.667-3.125h-1.948v1.971h1.948zm2.37-2.806h-1.947v1.971h1.947zm0 5.931h-1.947v1.971h1.947zm2.52-3.125h-1.948v1.971h1.948zm2.98-2.806h-1.947v1.971h1.947zm0 5.931h-1.947v1.971h1.947zm2.519-3.125h-1.947v1.971h1.947zm3.065-2.806h-1.948v1.971h1.948zm0 5.931h-1.948v1.971h1.948zm2.371-3.125h-1.948v1.971h1.948zm2.666-2.806h-1.948v1.971h1.948zm0 5.931h-1.948v1.971h1.948zm2.224-3.125h-1.948v1.971h1.948zm2.815-2.806h-1.947v1.971h1.947zm0 5.931h-1.947v1.971h1.947zm2.075-3.125h-1.947v1.971h1.947zm39.202 3.601c1.335 0 2.418-1.096 2.418-2.447s-1.083-2.446-2.418-2.446-2.418 1.095-2.418 2.446 1.083 2.447 2.418 2.447"/><path stroke="#0055DC" stroke-miterlimit="10" stroke-width="1.5" d="M300.354 193.669h-25.606"/><path fill="#0055DC" d="M229.507 220.198H226v18.05h3.507zm91.493 0h-3.507v18.05H321z"/><path fill="#fff" stroke="#0055DC" stroke-miterlimit="10" stroke-width="1.5" d="m234.31 241.464.001 3.426 78.376-.004v-3.426z"/><path fill="#C5EBF5" stroke="#0055DC" stroke-miterlimit="10" stroke-width="1.5" d="M317.492 217h-87.985v24.462h87.985z"/><path fill="#fff" d="M313.692 238.012v-17.564h-80.384v17.564z"/><path fill="#0055DC" d="M239.832 225.408h-1.947v1.902h1.947zm0 5.725h-1.947v1.903h1.947zm2.667-3.016h-1.948v1.902h1.948zm2.37-2.709h-1.947v1.902h1.947zm0 5.725h-1.947v1.903h1.947zm2.52-3.016h-1.948v1.902h1.948zm2.98-2.709h-1.947v1.902h1.947zm0 5.725h-1.947v1.903h1.947zm2.519-3.016h-1.947v1.902h1.947zm3.065-2.709h-1.948v1.902h1.948zm0 5.725h-1.948v1.903h1.948zm2.371-3.016h-1.948v1.902h1.948zm2.666-2.709h-1.948v1.902h1.948zm0 5.725h-1.948v1.903h1.948zm2.224-3.016h-1.948v1.902h1.948zm2.815-2.709h-1.947v1.902h1.947zm0 5.725h-1.947v1.903h1.947zm2.075-3.016h-1.947v1.902h1.947zm39.202 3.475c1.335 0 2.418-1.057 2.418-2.361s-1.083-2.362-2.418-2.362-2.418 1.058-2.418 2.362 1.083 2.361 2.418 2.361"/><path stroke="#0055DC" stroke-miterlimit="10" stroke-width="1.5" d="M300.354 229.231h-25.606"/><path fill="#0055DC" d="M229.507 255.198H226v18.05h3.507zm91.493 0h-3.507v18.05H321z"/><path fill="#fff" stroke="#0055DC" stroke-miterlimit="10" stroke-width="1.5" d="m234.31 276.464.001 3.426 78.376-.004v-3.426z"/><path fill="#C5EBF5" stroke="#0055DC" stroke-miterlimit="10" stroke-width="1.5" d="M317.492 252h-87.985v24.462h87.985z"/><path fill="#fff" d="M313.692 273.012v-17.564h-80.384v17.564z"/><path fill="#0055DC" d="M239.832 260.408h-1.947v1.902h1.947zm0 5.725h-1.947v1.903h1.947zm2.667-3.016h-1.948v1.902h1.948zm2.37-2.709h-1.947v1.902h1.947zm0 5.725h-1.947v1.903h1.947zm2.52-3.016h-1.948v1.902h1.948zm2.98-2.709h-1.947v1.902h1.947zm0 5.725h-1.947v1.903h1.947zm2.519-3.016h-1.947v1.902h1.947zm3.065-2.709h-1.948v1.902h1.948zm0 5.725h-1.948v1.903h1.948zm2.371-3.016h-1.948v1.902h1.948zm2.666-2.709h-1.948v1.902h1.948zm0 5.725h-1.948v1.903h1.948zm2.224-3.016h-1.948v1.902h1.948zm2.815-2.709h-1.947v1.902h1.947zm0 5.725h-1.947v1.903h1.947zm2.075-3.016h-1.947v1.902h1.947zm39.202 3.475c1.335 0 2.418-1.057 2.418-2.361s-1.083-2.362-2.418-2.362-2.418 1.058-2.418 2.362 1.083 2.361 2.418 2.361"/><path stroke="#0055DC" stroke-miterlimit="10" stroke-width="1.5" d="M300.354 264.231h-25.606"/><path fill="#0055DC" d="M229.507 290.198H226v18.05h3.507zm91.493 0h-3.507v18.05H321z"/><path fill="#fff" stroke="#0055DC" stroke-miterlimit="10" stroke-width="1.5" d="m234.31 311.464.001 3.426 78.376-.004v-3.426z"/><path fill="#C5EBF5" stroke="#0055DC" stroke-miterlimit="10" stroke-width="1.5" d="M317.492 287h-87.985v24.462h87.985z"/><path fill="#fff" d="M313.692 308.012v-17.564h-80.384v17.564z"/><path fill="#0055DC" d="M239.832 295.408h-1.947v1.902h1.947zm0 5.725h-1.947v1.903h1.947zm2.667-3.016h-1.948v1.902h1.948zm2.37-2.709h-1.947v1.902h1.947zm0 5.725h-1.947v1.903h1.947zm2.52-3.016h-1.948v1.902h1.948zm2.98-2.709h-1.947v1.902h1.947zm0 5.725h-1.947v1.903h1.947zm2.519-3.016h-1.947v1.902h1.947zm3.065-2.709h-1.948v1.902h1.948zm0 5.725h-1.948v1.903h1.948zm2.371-3.016h-1.948v1.902h1.948zm2.666-2.709h-1.948v1.902h1.948zm0 5.725h-1.948v1.903h1.948zm2.224-3.016h-1.948v1.902h1.948zm2.815-2.709h-1.947v1.902h1.947zm0 5.725h-1.947v1.903h1.947zm2.075-3.016h-1.947v1.902h1.947zm39.202 3.475c1.335 0 2.418-1.057 2.418-2.361s-1.083-2.362-2.418-2.362-2.418 1.058-2.418 2.362 1.083 2.361 2.418 2.361"/><path stroke="#0055DC" stroke-miterlimit="10" stroke-width="1.5" d="M300.354 299.231h-25.606"/><path fill="#fff" stroke="#0055DC" stroke-width="2" d="M379 102h151v222H379z"/><path fill="#0055DC" d="M408.507 114.198H405v18.05h3.507zm91.493 0h-3.507v18.05H500z"/><path fill="#fff" stroke="#0055DC" stroke-miterlimit="10" stroke-width="1.5" d="m413.31 135.464.001 3.426 78.376-.004v-3.426z"/><path fill="#C5EBF5" stroke="#0055DC" stroke-miterlimit="10" stroke-width="1.5" d="M496.492 111h-87.985v24.462h87.985z"/><path fill="#fff" d="M492.692 132.012v-17.564h-80.384v17.564z"/><path fill="#0055DC" d="M418.832 119.408h-1.947v1.902h1.947zm0 5.725h-1.947v1.903h1.947zm2.667-3.016h-1.948v1.902h1.948zm2.37-2.709h-1.947v1.902h1.947zm0 5.725h-1.947v1.903h1.947zm2.52-3.016h-1.948v1.902h1.948zm2.98-2.709h-1.947v1.902h1.947zm0 5.725h-1.947v1.903h1.947zm2.519-3.016h-1.947v1.902h1.947zm3.065-2.709h-1.948v1.902h1.948zm0 5.725h-1.948v1.903h1.948zm2.371-3.016h-1.948v1.902h1.948zm2.666-2.709h-1.948v1.902h1.948zm0 5.725h-1.948v1.903h1.948zm2.224-3.016h-1.948v1.902h1.948zm2.815-2.709h-1.947v1.902h1.947zm0 5.725h-1.947v1.903h1.947zm2.075-3.016h-1.947v1.902h1.947zm39.202 3.475c1.335 0 2.418-1.057 2.418-2.361s-1.083-2.362-2.418-2.362-2.418 1.058-2.418 2.362 1.083 2.361 2.418 2.361"/><path stroke="#0055DC" stroke-miterlimit="10" stroke-width="1.5" d="M479.354 123.231h-25.606"/><path fill="#0055DC" d="M408.507 149.198H405v18.05h3.507zm91.493 0h-3.507v18.05H500z"/><path fill="#fff" stroke="#0055DC" stroke-miterlimit="10" stroke-width="1.5" d="m413.31 170.464.001 3.426 78.376-.004v-3.426z"/><path fill="#C5EBF5" stroke="#0055DC" stroke-miterlimit="10" stroke-width="1.5" d="M496.492 146h-87.985v24.462h87.985z"/><path fill="#fff" d="M492.692 167.012v-17.564h-80.384v17.564z"/><path fill="#0055DC" d="M418.832 154.408h-1.947v1.902h1.947zm0 5.725h-1.947v1.903h1.947zm2.667-3.016h-1.948v1.902h1.948zm2.37-2.709h-1.947v1.902h1.947zm0 5.725h-1.947v1.903h1.947zm2.52-3.016h-1.948v1.902h1.948zm2.98-2.709h-1.947v1.902h1.947zm0 5.725h-1.947v1.903h1.947zm2.519-3.016h-1.947v1.902h1.947zm3.065-2.709h-1.948v1.902h1.948zm0 5.725h-1.948v1.903h1.948zm2.371-3.016h-1.948v1.902h1.948zm2.666-2.709h-1.948v1.902h1.948zm0 5.725h-1.948v1.903h1.948zm2.224-3.016h-1.948v1.902h1.948zm2.815-2.709h-1.947v1.902h1.947zm0 5.725h-1.947v1.903h1.947zm2.075-3.016h-1.947v1.902h1.947zm39.202 3.475c1.335 0 2.418-1.057 2.418-2.361s-1.083-2.362-2.418-2.362-2.418 1.058-2.418 2.362 1.083 2.361 2.418 2.361"/><path stroke="#0055DC" stroke-miterlimit="10" stroke-width="1.5" d="M479.354 158.231h-25.606"/><path fill="#0055DC" d="M408.507 184.313H405v18.697h3.507zm91.493 0h-3.507v18.697H500z"/><path fill="#fff" stroke="#0055DC" stroke-miterlimit="10" stroke-width="1.5" d="m413.31 206.342.001 3.548 78.376-.004v-3.549z"/><path fill="#C5EBF5" stroke="#0055DC" stroke-miterlimit="10" stroke-width="1.5" d="M496.492 181h-87.985v25.339h87.985z"/><path fill="#fff" d="M492.692 202.766v-18.194h-80.384v18.194z"/><path fill="#0055DC" d="M418.832 189.709h-1.947v1.971h1.947zm0 5.931h-1.947v1.971h1.947zm2.667-3.125h-1.948v1.971h1.948zm2.37-2.806h-1.947v1.971h1.947zm0 5.931h-1.947v1.971h1.947zm2.52-3.125h-1.948v1.971h1.948zm2.98-2.806h-1.947v1.971h1.947zm0 5.931h-1.947v1.971h1.947zm2.519-3.125h-1.947v1.971h1.947zm3.065-2.806h-1.948v1.971h1.948zm0 5.931h-1.948v1.971h1.948zm2.371-3.125h-1.948v1.971h1.948zm2.666-2.806h-1.948v1.971h1.948zm0 5.931h-1.948v1.971h1.948zm2.224-3.125h-1.948v1.971h1.948zm2.815-2.806h-1.947v1.971h1.947zm0 5.931h-1.947v1.971h1.947zm2.075-3.125h-1.947v1.971h1.947zm39.202 3.601c1.335 0 2.418-1.096 2.418-2.447s-1.083-2.446-2.418-2.446-2.418 1.095-2.418 2.446 1.083 2.447 2.418 2.447"/><path stroke="#0055DC" stroke-miterlimit="10" stroke-width="1.5" d="M479.354 193.669h-25.606"/><path fill="#0055DC" d="M408.507 220.198H405v18.05h3.507zm91.493 0h-3.507v18.05H500z"/><path fill="#fff" stroke="#0055DC" stroke-miterlimit="10" stroke-width="1.5" d="m413.31 241.464.001 3.426 78.376-.004v-3.426z"/><path fill="#C5EBF5" stroke="#0055DC" stroke-miterlimit="10" stroke-width="1.5" d="M496.492 217h-87.985v24.462h87.985z"/><path fill="#fff" d="M492.692 238.012v-17.564h-80.384v17.564z"/><path fill="#0055DC" d="M418.832 225.408h-1.947v1.902h1.947zm0 5.725h-1.947v1.903h1.947zm2.667-3.016h-1.948v1.902h1.948zm2.37-2.709h-1.947v1.902h1.947zm0 5.725h-1.947v1.903h1.947zm2.52-3.016h-1.948v1.902h1.948zm2.98-2.709h-1.947v1.902h1.947zm0 5.725h-1.947v1.903h1.947zm2.519-3.016h-1.947v1.902h1.947zm3.065-2.709h-1.948v1.902h1.948zm0 5.725h-1.948v1.903h1.948zm2.371-3.016h-1.948v1.902h1.948zm2.666-2.709h-1.948v1.902h1.948zm0 5.725h-1.948v1.903h1.948zm2.224-3.016h-1.948v1.902h1.948zm2.815-2.709h-1.947v1.902h1.947zm0 5.725h-1.947v1.903h1.947zm2.075-3.016h-1.947v1.902h1.947zm39.202 3.475c1.335 0 2.418-1.057 2.418-2.361s-1.083-2.362-2.418-2.362-2.418 1.058-2.418 2.362 1.083 2.361 2.418 2.361"/><path stroke="#0055DC" stroke-miterlimit="10" stroke-width="1.5" d="M479.354 229.231h-25.606"/><path fill="#0055DC" d="M408.507 255.198H405v18.05h3.507zm91.493 0h-3.507v18.05H500z"/><path fill="#fff" stroke="#0055DC" stroke-miterlimit="10" stroke-width="1.5" d="m413.31 276.464.001 3.426 78.376-.004v-3.426z"/><path fill="#C5EBF5" stroke="#0055DC" stroke-miterlimit="10" stroke-width="1.5" d="M496.492 252h-87.985v24.462h87.985z"/><path fill="#fff" d="M492.692 273.012v-17.564h-80.384v17.564z"/><path fill="#0055DC" d="M418.832 260.408h-1.947v1.902h1.947zm0 5.725h-1.947v1.903h1.947zm2.667-3.016h-1.948v1.902h1.948zm2.37-2.709h-1.947v1.902h1.947zm0 5.725h-1.947v1.903h1.947zm2.52-3.016h-1.948v1.902h1.948zm2.98-2.709h-1.947v1.902h1.947zm0 5.725h-1.947v1.903h1.947zm2.519-3.016h-1.947v1.902h1.947zm3.065-2.709h-1.948v1.902h1.948zm0 5.725h-1.948v1.903h1.948zm2.371-3.016h-1.948v1.902h1.948zm2.666-2.709h-1.948v1.902h1.948zm0 5.725h-1.948v1.903h1.948zm2.224-3.016h-1.948v1.902h1.948zm2.815-2.709h-1.947v1.902h1.947zm0 5.725h-1.947v1.903h1.947zm2.075-3.016h-1.947v1.902h1.947zm39.202 3.475c1.335 0 2.418-1.057 2.418-2.361s-1.083-2.362-2.418-2.362-2.418 1.058-2.418 2.362 1.083 2.361 2.418 2.361"/><path stroke="#0055DC" stroke-miterlimit="10" stroke-width="1.5" d="M479.354 264.231h-25.606"/><path fill="#0055DC" d="M408.507 290.198H405v18.05h3.507zm91.493 0h-3.507v18.05H500z"/><path fill="#fff" stroke="#0055DC" stroke-miterlimit="10" stroke-width="1.5" d="m413.31 311.464.001 3.426 78.376-.004v-3.426z"/><path fill="#C5EBF5" stroke="#0055DC" stroke-miterlimit="10" stroke-width="1.5" d="M496.492 287h-87.985v24.462h87.985z"/><path fill="#fff" d="M492.692 308.012v-17.564h-80.384v17.564z"/><path fill="#0055DC" d="M418.832 295.408h-1.947v1.902h1.947zm0 5.725h-1.947v1.903h1.947zm2.667-3.016h-1.948v1.902h1.948zm2.37-2.709h-1.947v1.902h1.947zm0 5.725h-1.947v1.903h1.947zm2.52-3.016h-1.948v1.902h1.948zm2.98-2.709h-1.947v1.902h1.947zm0 5.725h-1.947v1.903h1.947zm2.519-3.016h-1.947v1.902h1.947zm3.065-2.709h-1.948v1.902h1.948zm0 5.725h-1.948v1.903h1.948zm2.371-3.016h-1.948v1.902h1.948zm2.666-2.709h-1.948v1.902h1.948zm0 5.725h-1.948v1.903h1.948zm2.224-3.016h-1.948v1.902h1.948zm2.815-2.709h-1.947v1.902h1.947zm0 5.725h-1.947v1.903h1.947zm2.075-3.016h-1.947v1.902h1.947zm39.202 3.475c1.335 0 2.418-1.057 2.418-2.361s-1.083-2.362-2.418-2.362-2.418 1.058-2.418 2.362 1.083 2.361 2.418 2.361"/><path stroke="#0055DC" stroke-miterlimit="10" stroke-width="1.5" d="M479.354 299.231h-25.606"/><path fill="#000" d="M201.127 36V24.364h2.46v4.8h4.994v-4.8h2.455V36h-2.455v-4.807h-4.994V36zm15.693.17q-1.347 0-2.318-.545a3.74 3.74 0 0 1-1.489-1.557q-.523-1.01-.523-2.392 0-1.346.523-2.363a3.87 3.87 0 0 1 1.472-1.586q.954-.568 2.238-.568.864 0 1.608.279.75.272 1.307.823.563.552.875 1.387.312.829.313 1.943v.665h-7.37v-1.5h5.091a1.86 1.86 0 0 0-.227-.927 1.63 1.63 0 0 0-.631-.63 1.8 1.8 0 0 0-.926-.233q-.55 0-.977.256-.42.25-.659.676-.239.42-.245.937v1.426q0 .648.239 1.12.244.47.688.727.442.255 1.051.256.404 0 .738-.114a1.48 1.48 0 0 0 .938-.898l2.238.148a3.05 3.05 0 0 1-.698 1.41q-.523.595-1.353.93-.823.33-1.903.33m7.898-.005q-.835 0-1.489-.29a2.4 2.4 0 0 1-1.034-.87q-.375-.579-.375-1.443 0-.727.267-1.221t.727-.796 1.046-.454a8 8 0 0 1 1.238-.216q.762-.08 1.228-.148.466-.073.676-.216a.48.48 0 0 0 .21-.42v-.034q0-.54-.341-.835-.335-.296-.954-.296-.654 0-1.04.29-.387.285-.511.716l-2.239-.182q.17-.796.67-1.375.501-.586 1.29-.898.795-.318 1.841-.318.728 0 1.392.17.67.17 1.188.529.523.358.823.92.302.558.302 1.336V36h-2.296v-1.21h-.068q-.21.41-.563.721a2.6 2.6 0 0 1-.846.483q-.495.17-1.142.17m.693-1.67q.534 0 .943-.21.41-.217.642-.58.233-.364.233-.824v-.927q-.114.075-.312.137a6 6 0 0 1-.438.108q-.245.045-.488.085l-.444.063a3 3 0 0 0-.744.198q-.318.137-.494.37a.9.9 0 0 0-.176.568q0 .494.358.756.363.255.92.255m8.344-10.131V36h-2.421V24.364zm6.405 2.909v1.818h-5.256v-1.818zm-4.063-2.091h2.421v8.136q0 .336.102.523a.56.56 0 0 0 .284.256q.188.073.432.073.17 0 .341-.028l.261-.051.381 1.801a7 7 0 0 1-.511.13q-.33.08-.802.097-.874.034-1.534-.233a2.15 2.15 0 0 1-1.017-.83q-.363-.561-.358-1.42zm8.071 5.773V36h-2.42V24.364h2.352v4.448h.103q.296-.772.954-1.21.66-.443 1.654-.443.909 0 1.585.398a2.66 2.66 0 0 1 1.057 1.13q.38.734.375 1.756V36h-2.421v-5.125q.006-.806-.409-1.256-.409-.448-1.148-.448-.494 0-.875.21a1.5 1.5 0 0 0-.591.613q-.21.398-.216.96m10.518-4.563v-2.028h9.557v2.028h-3.563V36h-2.432v-9.608zm13.329 4.563V36h-2.42V24.364h2.352v4.448h.103q.296-.772.954-1.21.66-.443 1.654-.443.909 0 1.585.398a2.66 2.66 0 0 1 1.057 1.13q.38.734.375 1.756V36h-2.421v-5.125q.006-.806-.409-1.256-.409-.448-1.148-.448-.494 0-.875.21a1.5 1.5 0 0 0-.591.613q-.21.398-.216.96M275.403 36v-8.727h2.347v1.523h.091q.238-.813.801-1.228.562-.42 1.296-.42a3.7 3.7 0 0 1 .761.085v2.148a3 3 0 0 0-.472-.091q-.3-.04-.551-.04-.534 0-.954.233a1.7 1.7 0 0 0-.66.636 1.84 1.84 0 0 0-.238.944V36zm9.942.17q-1.346 0-2.318-.545a3.74 3.74 0 0 1-1.489-1.557q-.522-1.01-.522-2.392 0-1.346.522-2.363a3.87 3.87 0 0 1 1.472-1.586q.954-.568 2.239-.568a4.6 4.6 0 0 1 1.608.279q.75.272 1.306.823.563.552.875 1.387.313.829.313 1.943v.665h-7.369v-1.5h5.091a1.85 1.85 0 0 0-.228-.927 1.6 1.6 0 0 0-.63-.63 1.8 1.8 0 0 0-.927-.233q-.55 0-.977.256-.42.25-.659.676-.238.42-.244.937v1.426q0 .648.238 1.12.244.47.688.727.443.255 1.051.256.403 0 .739-.114.334-.114.574-.34.238-.228.363-.558l2.239.148a3.06 3.06 0 0 1-.699 1.41q-.522.595-1.352.93-.825.33-1.904.33m12.671-6.409-2.216.137a1.15 1.15 0 0 0-.244-.512 1.3 1.3 0 0 0-.495-.369 1.7 1.7 0 0 0-.721-.142q-.563 0-.949.239-.387.232-.386.625 0 .312.25.528t.857.347l1.58.318q1.273.261 1.898.84.625.58.625 1.523 0 .858-.506 1.506-.5.649-1.375 1.011-.869.359-2.006.358-1.732 0-2.761-.721a2.8 2.8 0 0 1-1.199-1.977l2.381-.125q.108.527.523.806.414.273 1.062.273.636 0 1.023-.244.392-.25.398-.642a.67.67 0 0 0-.279-.54q-.273-.216-.841-.33l-1.511-.3q-1.278-.257-1.904-.887-.618-.63-.619-1.608 0-.84.455-1.449.46-.608 1.289-.937.836-.33 1.955-.33 1.654 0 2.602.699.955.699 1.114 1.903m3.967 1.194V36h-2.42V24.364h2.352v4.448h.102q.296-.772.955-1.21.66-.443 1.653-.443.91 0 1.586.398.681.392 1.056 1.13.381.734.375 1.756V36h-2.42v-5.125q.006-.806-.409-1.256-.409-.448-1.148-.448-.494 0-.875.21a1.5 1.5 0 0 0-.591.613q-.21.398-.216.96m11.331 5.215q-1.323 0-2.289-.562a3.85 3.85 0 0 1-1.483-1.58q-.523-1.017-.523-2.357 0-1.353.523-2.364a3.8 3.8 0 0 1 1.483-1.58q.966-.568 2.289-.568t2.285.568q.965.563 1.488 1.58.523 1.011.523 2.364 0 1.34-.523 2.357a3.84 3.84 0 0 1-1.488 1.58q-.961.563-2.285.563m.012-1.875q.602 0 1.006-.34.403-.347.607-.944.211-.596.211-1.358 0-.761-.211-1.357-.204-.597-.607-.944-.404-.345-1.006-.346-.607 0-1.023.346-.41.347-.619.944-.205.596-.205 1.357 0 .762.205 1.358.21.597.619.944.415.34 1.023.34m8.102-9.931V36h-2.42V24.364zm4.979 11.778q-.994 0-1.801-.511-.8-.517-1.273-1.517-.465-1.006-.466-2.466 0-1.5.483-2.495.483-.999 1.284-1.494a3.3 3.3 0 0 1 1.767-.5q.733 0 1.222.25.495.244.795.614.307.362.466.716h.074v-4.375h2.415V36h-2.386v-1.398h-.103a3 3 0 0 1-.483.722 2.4 2.4 0 0 1-.801.585q-.489.233-1.193.233m.767-1.926q.585 0 .989-.318.409-.324.625-.904.22-.58.221-1.358 0-.779-.216-1.352t-.625-.886-.994-.313q-.597 0-1.006.324t-.619.898-.21 1.33q0 .76.21 1.346.216.58.619.909.41.324 1.006.324m7.428 1.932q-.562 0-.966-.398a1.33 1.33 0 0 1-.398-.966q0-.557.398-.954.404-.398.966-.398.545 0 .954.398.41.398.409.954 0 .376-.193.688-.188.306-.494.494-.307.182-.676.182m0-6.114q-.562 0-.966-.398a1.32 1.32 0 0 1-.398-.965q0-.558.398-.95.404-.397.966-.397.545 0 .954.398.41.392.409.948 0 .38-.193.694-.188.306-.494.488-.307.182-.676.182m10.98 6.125q-1.272 0-2.267-.437-.989-.444-1.562-1.216a3.06 3.06 0 0 1-.586-1.796h2.478q.023.426.278.75.261.318.693.495.432.176.972.176.562 0 .994-.2.432-.199.676-.55a1.4 1.4 0 0 0 .245-.813q0-.465-.262-.824a1.67 1.67 0 0 0-.738-.568q-.478-.204-1.137-.204h-1.085v-1.807h1.085q.558 0 .983-.193.432-.194.671-.535.238-.346.238-.806a1.4 1.4 0 0 0-.789-1.29 1.9 1.9 0 0 0-.864-.188q-.5 0-.915.182a1.6 1.6 0 0 0-.665.506 1.34 1.34 0 0 0-.267.773H341.4q.018-1.006.574-1.773.556-.768 1.5-1.199.95-.437 2.142-.437 1.205 0 2.108.437.904.438 1.404 1.182.505.738.5 1.659.005.977-.608 1.63-.609.654-1.586.83v.091q1.285.165 1.955.892.676.722.67 1.807a2.84 2.84 0 0 1-.573 1.767q-.574.772-1.586 1.216-1.011.443-2.318.443"/><path fill="red" d="m89.499 112.182 4.4 7.436h.17l4.421-7.436h5.21l-6.659 10.909L103.85 134h-5.305l-4.475-7.447h-.17L89.424 134H84.14l6.83-10.909-6.702-10.909z"/><path fill="red" d="m89.499 112.182 4.4 7.436h.17l4.421-7.436h5.21l-6.659 10.909L103.85 134h-5.305l-4.475-7.447h-.17L89.424 134H84.14l6.83-10.909-6.702-10.909zm0 35 4.4 7.436h.17l4.421-7.436h5.21l-6.659 10.909L103.85 169h-5.305l-4.475-7.447h-.17L89.424 169H84.14l6.83-10.909-6.702-10.909zm0 35 4.4 7.436h.17l4.421-7.436h5.21l-6.659 10.909L103.85 204h-5.305l-4.475-7.447h-.17L89.424 204H84.14l6.83-10.909-6.702-10.909zm182-70 4.4 7.436h.17l4.421-7.436h5.21l-6.658 10.909L285.849 134h-5.305l-4.475-7.447h-.17L271.424 134h-5.284l6.829-10.909-6.701-10.909zm0 35 4.4 7.436h.17l4.421-7.436h5.21l-6.658 10.909L285.849 169h-5.305l-4.475-7.447h-.17L271.424 169h-5.284l6.829-10.909-6.701-10.909zm0 35 4.4 7.436h.17l4.421-7.436h5.21l-6.658 10.909L285.849 204h-5.305l-4.475-7.447h-.17L271.424 204h-5.284l6.829-10.909-6.701-10.909zm-182 36 4.4 7.436h.17l4.421-7.436h5.21l-6.659 10.909L103.85 240h-5.305l-4.475-7.447h-.17L89.424 240H84.14l6.83-10.909-6.702-10.909z"/><path fill="#C00" d="M81.121 342.438h-2.489a2.4 2.4 0 0 0-.278-.858q-.21-.381-.54-.648a2.4 2.4 0 0 0-.761-.409 2.9 2.9 0 0 0-.926-.142q-.904 0-1.574.449-.67.443-1.04 1.295-.37.846-.37 2.057 0 1.244.37 2.091.376.846 1.045 1.278.67.432 1.552.432.495 0 .914-.131.426-.13.756-.38.33-.256.546-.62.221-.364.306-.829l2.489.011a4.64 4.64 0 0 1-1.511 2.869q-.642.58-1.534.921-.887.335-2.006.335-1.557 0-2.784-.704-1.223-.705-1.932-2.04-.705-1.335-.705-3.233 0-1.904.716-3.239t1.944-2.034q1.227-.704 2.76-.704 1.012 0 1.876.284.87.284 1.54.829.67.54 1.09 1.324.427.784.546 1.796M82.664 350v-8.727h2.346v1.522h.091q.24-.811.801-1.227.563-.42 1.296-.42.182 0 .392.022.21.023.37.063v2.148a3 3 0 0 0-.472-.091q-.301-.04-.552-.04a1.94 1.94 0 0 0-.954.233 1.7 1.7 0 0 0-.66.636q-.238.41-.238.943V350zm6.37 0v-8.727h2.421V350zm1.216-9.852q-.54 0-.926-.358a1.16 1.16 0 0 1-.38-.87q0-.5.38-.858.387-.363.927-.363t.92.363q.386.358.386.858 0 .506-.386.87-.38.358-.92.358m7.61 1.125v1.818h-5.256v-1.818zm-4.062-2.091h2.42v8.136q0 .336.102.523a.57.57 0 0 0 .284.256q.188.073.432.073.17 0 .341-.028l.261-.051.381 1.801a7 7 0 0 1-.511.131q-.33.08-.801.096-.876.034-1.534-.233a2.14 2.14 0 0 1-1.017-.829q-.364-.563-.359-1.421zM99.26 350v-8.727h2.42V350zm1.216-9.852q-.54 0-.927-.358a1.16 1.16 0 0 1-.38-.87q0-.5.38-.858.387-.363.927-.363.539 0 .92.363.386.358.386.858 0 .506-.386.87a1.3 1.3 0 0 1-.92.358m6.91 10.022q-1.341 0-2.307-.568a3.84 3.84 0 0 1-1.477-1.591q-.511-1.017-.511-2.341 0-1.34.517-2.352a3.84 3.84 0 0 1 1.483-1.585q.96-.574 2.284-.574 1.142 0 2 .415a3.34 3.34 0 0 1 1.358 1.165q.5.75.551 1.761H109q-.096-.654-.511-1.051-.41-.404-1.074-.404-.563 0-.983.307-.415.302-.648.881-.233.58-.233 1.403 0 .836.227 1.421.233.585.654.892.42.306.983.307.414 0 .744-.171.335-.17.551-.494.222-.33.29-.79h2.284q-.057 1-.545 1.761a3.3 3.3 0 0 1-1.336 1.182q-.852.426-2.017.426m7.76-.005q-.835 0-1.488-.29a2.4 2.4 0 0 1-1.034-.869q-.375-.58-.375-1.444 0-.727.267-1.221t.727-.796a3.5 3.5 0 0 1 1.045-.454 8 8 0 0 1 1.239-.216q.762-.08 1.227-.148.466-.073.676-.216a.47.47 0 0 0 .211-.42v-.034q0-.54-.341-.835-.336-.296-.955-.296-.653 0-1.04.29a1.33 1.33 0 0 0-.511.716l-2.239-.182a3.05 3.05 0 0 1 .671-1.375q.5-.585 1.29-.898.795-.318 1.841-.318.726 0 1.392.171a3.6 3.6 0 0 1 1.187.528q.523.358.824.92.301.558.301 1.336V350h-2.295v-1.21h-.069q-.21.409-.562.721a2.6 2.6 0 0 1-.847.483q-.494.171-1.142.171m.694-1.671q.534 0 .943-.21.408-.216.642-.579a1.5 1.5 0 0 0 .233-.824v-.926q-.114.073-.313.136a6 6 0 0 1-.437.108q-.244.046-.489.085l-.443.063a3 3 0 0 0-.744.198 1.2 1.2 0 0 0-.495.37.9.9 0 0 0-.176.568q0 .494.358.756.364.255.921.255m8.343-10.13V350h-2.42v-11.636z"/><path fill="#000" d="M66.61 368.182q0-2.114.563-3.892a10.8 10.8 0 0 1 1.733-3.296h2.312q-.443.563-.824 1.375a12 12 0 0 0-.664 1.773 15 15 0 0 0-.444 2 13 13 0 0 0-.159 2.04q0 1.347.273 2.721.279 1.37.75 2.546.477 1.176 1.068 1.926h-2.312a10.8 10.8 0 0 1-1.733-3.295q-.563-1.779-.563-3.898m16.576 0q0 1.903-.722 3.238-.716 1.337-1.954 2.04-1.233.699-2.773.699-1.551 0-2.784-.704-1.233-.705-1.95-2.04-.715-1.335-.715-3.233 0-1.904.716-3.239t1.949-2.034q1.233-.704 2.784-.704 1.539 0 2.773.704 1.238.699 1.954 2.034.722 1.335.722 3.239m-2.495 0q0-1.233-.369-2.08-.363-.846-1.028-1.284-.665-.437-1.557-.437t-1.557.437-1.034 1.284q-.364.847-.364 2.08t.364 2.079q.368.848 1.034 1.284.665.438 1.557.438t1.557-.438q.665-.436 1.028-1.284.37-.846.37-2.079m8.789-2.909v1.818h-5.386v-1.818zM85.326 374v-9.358q0-.949.37-1.574.374-.625 1.023-.937.647-.313 1.471-.313.556 0 1.017.085.466.085.693.154l-.431 1.818a3 3 0 0 0-.353-.085 2 2 0 0 0-.42-.04q-.534 0-.745.25-.21.244-.21.688V374zm10.15-8.727v1.818h-5.387v-1.818zM91.322 374v-9.358q0-.949.37-1.574.374-.625 1.022-.937t1.472-.313q.556 0 1.017.085.466.085.693.154l-.432 1.818a3 3 0 0 0-.352-.085 2 2 0 0 0-.42-.04q-.534 0-.745.25-.21.244-.21.688V374zm7.877-11.636V374h-2.42v-11.636zM100.962 374v-8.727h2.42V374zm1.216-9.852q-.54 0-.926-.358a1.16 1.16 0 0 1-.381-.87q0-.5.381-.858.386-.363.926-.363t.92.363q.387.358.387.858 0 .506-.387.87-.38.358-.92.358m5.388 4.807V374h-2.421v-8.727h2.307v1.539h.102q.29-.761.972-1.204.682-.449 1.653-.449.91 0 1.585.398.677.398 1.052 1.136.375.733.375 1.75V374h-2.421v-5.125q.006-.801-.409-1.25-.414-.455-1.142-.455-.489 0-.864.211-.369.21-.579.613-.206.398-.21.961m11.334 5.215q-1.347 0-2.319-.545a3.73 3.73 0 0 1-1.488-1.557q-.523-1.01-.523-2.392 0-1.346.523-2.364a3.86 3.86 0 0 1 1.471-1.585q.955-.568 2.239-.568.864 0 1.608.279.75.272 1.307.823.562.552.875 1.387.312.829.312 1.943v.665h-7.369v-1.5h5.091q0-.524-.227-.926a1.63 1.63 0 0 0-.631-.631 1.8 1.8 0 0 0-.926-.233 1.86 1.86 0 0 0-.978.256q-.42.25-.659.676-.238.42-.244.937v1.426q0 .648.239 1.12.245.471.687.727.444.255 1.051.256.403 0 .739-.114t.574-.341q.239-.227.363-.557l2.239.148a3.05 3.05 0 0 1-.699 1.409q-.522.597-1.352.932-.824.33-1.903.329m9.488-4.835q0 2.12-.568 3.898a10.7 10.7 0 0 1-1.727 3.295h-2.313q.444-.562.824-1.375.381-.812.665-1.772.284-.966.443-2t.159-2.046q0-1.347-.278-2.716a14 14 0 0 0-.75-2.545q-.472-1.176-1.063-1.926h2.313a10.7 10.7 0 0 1 1.727 3.295q.568 1.779.568 3.892"/><path fill="#E69138" d="M243.846 350h-4.125v-11.636h4.159q1.756 0 3.023.698a4.7 4.7 0 0 1 1.949 1.995q.687 1.3.687 3.113 0 1.819-.687 3.125a4.7 4.7 0 0 1-1.96 2.006q-1.273.699-3.046.699m-1.665-2.108h1.563q1.09 0 1.835-.386a2.5 2.5 0 0 0 1.125-1.211q.381-.823.381-2.125 0-1.289-.381-2.108-.375-.817-1.119-1.204t-1.835-.386h-1.569zm12.937 2.278q-1.347 0-2.319-.545a3.73 3.73 0 0 1-1.488-1.557q-.523-1.01-.523-2.392 0-1.346.523-2.364a3.86 3.86 0 0 1 1.471-1.585q.955-.568 2.239-.568.864 0 1.608.279.75.272 1.307.823.562.552.875 1.387.312.829.312 1.943v.665h-7.369v-1.5h5.091q0-.524-.227-.926a1.63 1.63 0 0 0-.631-.631 1.8 1.8 0 0 0-.926-.233 1.86 1.86 0 0 0-.978.256q-.42.25-.659.676-.238.42-.244.937v1.426q0 .648.239 1.12.245.471.687.727.444.255 1.051.256.403 0 .739-.114t.574-.341.363-.557l2.239.148a3.05 3.05 0 0 1-.699 1.409q-.522.597-1.352.932-.824.33-1.903.329m9.341 3.285q-1.176 0-2.017-.324-.835-.318-1.33-.87a2.66 2.66 0 0 1-.642-1.238l2.239-.301q.102.261.323.488.222.228.586.364.369.142.897.142.79 0 1.302-.386.516-.38.517-1.279v-1.596h-.103a2.3 2.3 0 0 1-.477.687 2.4 2.4 0 0 1-.818.528q-.5.205-1.193.205a3.6 3.6 0 0 1-1.79-.455q-.801-.46-1.278-1.403-.472-.95-.472-2.398 0-1.482.483-2.477t1.284-1.489a3.3 3.3 0 0 1 1.767-.494q.734 0 1.227.25.495.245.796.614.306.363.471.716h.091v-1.466h2.404v8.812q0 1.114-.546 1.864-.545.75-1.511 1.125-.96.381-2.21.381m.051-5.398q.585 0 .988-.29.41-.295.625-.841.222-.551.222-1.318t-.216-1.33q-.216-.567-.625-.88t-.994-.313q-.597 0-1.006.324-.41.318-.619.886a3.8 3.8 0 0 0-.21 1.313q0 .756.21 1.307.216.545.619.846.41.296 1.006.296m5.966 1.943v-8.727h2.346v1.522h.091q.239-.811.801-1.227.563-.42 1.296-.42.182 0 .392.022.21.023.369.063v2.148a3 3 0 0 0-.471-.091 4 4 0 0 0-.551-.04q-.535 0-.955.233a1.7 1.7 0 0 0-.659.636 1.84 1.84 0 0 0-.239.943V350zm8.609.165q-.836 0-1.488-.29a2.4 2.4 0 0 1-1.034-.869q-.375-.58-.375-1.444 0-.727.267-1.221t.727-.796a3.5 3.5 0 0 1 1.045-.454 8 8 0 0 1 1.239-.216q.762-.08 1.227-.148.466-.073.676-.216a.47.47 0 0 0 .211-.42v-.034q0-.54-.341-.835-.336-.296-.955-.296-.653 0-1.04.29a1.33 1.33 0 0 0-.511.716l-2.239-.182a3.05 3.05 0 0 1 .671-1.375q.5-.585 1.29-.898.795-.318 1.841-.318.726 0 1.392.171a3.6 3.6 0 0 1 1.187.528q.523.358.824.92.301.558.301 1.336V350h-2.295v-1.21h-.069q-.21.409-.562.721a2.6 2.6 0 0 1-.847.483q-.494.171-1.142.171m.693-1.671q.535 0 .944-.21.408-.216.642-.579a1.5 1.5 0 0 0 .233-.824v-.926q-.114.073-.313.136a6 6 0 0 1-.437.108q-.245.046-.489.085l-.443.063a3 3 0 0 0-.744.198 1.2 1.2 0 0 0-.495.37.9.9 0 0 0-.176.568q0 .494.358.756.363.255.92.255m9.14 1.648q-.994 0-1.801-.511-.801-.518-1.273-1.517-.466-1.007-.466-2.466 0-1.5.483-2.495.483-.999 1.284-1.494a3.3 3.3 0 0 1 1.767-.5q.733 0 1.222.25.493.245.795.614.307.363.466.716h.074v-4.375h2.415V350h-2.387v-1.398h-.102a3.1 3.1 0 0 1-.483.722q-.306.353-.801.585-.489.233-1.193.233m.767-1.926q.585 0 .989-.318.409-.324.625-.904.22-.58.221-1.358 0-.778-.216-1.352-.216-.573-.625-.886t-.994-.313q-.597 0-1.006.324t-.619.898-.21 1.329q0 .762.21 1.347.216.579.619.909.41.324 1.006.324m9.99 1.954q-1.347 0-2.318-.545a3.73 3.73 0 0 1-1.489-1.557q-.522-1.01-.522-2.392 0-1.346.522-2.364a3.87 3.87 0 0 1 1.472-1.585q.954-.568 2.238-.568.864 0 1.608.279.75.272 1.307.823.563.552.875 1.387.313.829.313 1.943v.665h-7.37v-1.5h5.091q0-.524-.227-.926a1.6 1.6 0 0 0-.631-.631 1.8 1.8 0 0 0-.926-.233q-.55 0-.977.256-.42.25-.659.676-.239.42-.244.937v1.426q0 .648.238 1.12.244.471.688.727.443.255 1.051.256.404 0 .738-.114.336-.114.574-.341.239-.227.364-.557l2.239.148a3.06 3.06 0 0 1-.699 1.409q-.523.597-1.353.932-.823.33-1.903.329m8.625-.028q-.994 0-1.801-.511-.8-.518-1.273-1.517-.466-1.007-.466-2.466 0-1.5.483-2.495.483-.999 1.284-1.494a3.3 3.3 0 0 1 1.768-.5q.732 0 1.221.25.495.245.796.614.306.363.465.716h.074v-4.375h2.415V350h-2.386v-1.398h-.103a3.1 3.1 0 0 1-.482.722q-.307.353-.802.585-.488.233-1.193.233m.767-1.926q.585 0 .989-.318.41-.324.625-.904.221-.58.221-1.358t-.215-1.352q-.216-.573-.625-.886t-.995-.313q-.596 0-1.005.324-.41.324-.62.898t-.21 1.329q0 .762.21 1.347.216.579.62.909.409.324 1.005.324"/><path fill="#000" d="M245.61 368.182q0-2.114.563-3.892a10.8 10.8 0 0 1 1.733-3.296h2.312q-.443.563-.824 1.375a12 12 0 0 0-.664 1.773q-.285.966-.444 2a13 13 0 0 0-.159 2.04q0 1.347.273 2.721.279 1.37.75 2.546.477 1.176 1.068 1.926h-2.312a10.8 10.8 0 0 1-1.733-3.295q-.563-1.779-.563-3.898m16.576 0q0 1.903-.722 3.238-.716 1.337-1.954 2.04-1.233.699-2.773.699-1.551 0-2.784-.704-1.233-.705-1.949-2.04t-.716-3.233q0-1.904.716-3.239t1.949-2.034q1.233-.704 2.784-.704 1.54 0 2.773.704 1.238.699 1.954 2.034.722 1.335.722 3.239m-2.495 0q0-1.233-.369-2.08-.363-.846-1.028-1.284-.665-.437-1.557-.437-.893 0-1.557.437-.665.438-1.034 1.284-.364.847-.364 2.08t.364 2.079q.37.848 1.034 1.284.664.438 1.557.438t1.557-.438q.665-.436 1.028-1.284.369-.846.369-2.079m8.789-2.909v1.818h-5.387v-1.818zM264.326 374v-9.358q0-.949.37-1.574.375-.625 1.022-.937.648-.313 1.472-.313.556 0 1.017.085.466.085.693.154l-.432 1.818a3 3 0 0 0-.352-.085 2 2 0 0 0-.42-.04q-.534 0-.745.25-.21.244-.21.688V374zm10.15-8.727v1.818h-5.387v-1.818zM270.322 374v-9.358q0-.949.37-1.574.375-.625 1.022-.937.648-.313 1.472-.313.556 0 1.017.085.466.085.693.154l-.432 1.818a3 3 0 0 0-.352-.085 2 2 0 0 0-.42-.04q-.534 0-.745.25-.21.244-.21.688V374zm7.877-11.636V374h-2.421v-11.636zM279.962 374v-8.727h2.42V374zm1.216-9.852q-.54 0-.926-.358a1.16 1.16 0 0 1-.381-.87q0-.5.381-.858.386-.363.926-.363t.92.363q.387.358.387.858 0 .506-.387.87-.38.358-.92.358m5.388 4.807V374h-2.421v-8.727h2.307v1.539h.102q.29-.761.972-1.204.682-.449 1.653-.449.91 0 1.585.398.677.398 1.052 1.136.375.733.375 1.75V374h-2.421v-5.125q.006-.801-.409-1.25-.414-.455-1.142-.455-.489 0-.864.211-.369.21-.579.613-.205.398-.21.961m11.334 5.215q-1.347 0-2.319-.545a3.73 3.73 0 0 1-1.488-1.557q-.523-1.01-.523-2.392 0-1.346.523-2.364a3.86 3.86 0 0 1 1.471-1.585q.955-.568 2.239-.568.864 0 1.608.279.75.272 1.307.823.562.552.875 1.387.312.829.312 1.943v.665h-7.369v-1.5h5.091q0-.524-.227-.926a1.63 1.63 0 0 0-.631-.631 1.8 1.8 0 0 0-.926-.233 1.86 1.86 0 0 0-.978.256q-.42.25-.659.676-.238.42-.244.937v1.426q0 .648.239 1.12.245.471.687.727.444.255 1.051.256.403 0 .739-.114t.574-.341.363-.557l2.239.148a3.05 3.05 0 0 1-.699 1.409q-.522.597-1.352.932-.824.33-1.903.329m9.488-4.835q0 2.12-.568 3.898a10.7 10.7 0 0 1-1.727 3.295h-2.313q.443-.562.824-1.375t.665-1.772q.284-.966.443-2t.159-2.046q0-1.347-.278-2.716a14 14 0 0 0-.75-2.545q-.472-1.176-1.063-1.926h2.313a10.7 10.7 0 0 1 1.727 3.295q.568 1.779.568 3.892"/><path fill="#6AA84F" d="M426.742 350v-11.636h2.461v4.801h4.994v-4.801h2.455V350h-2.455v-4.807h-4.994V350zm15.694.17q-1.347 0-2.318-.545a3.73 3.73 0 0 1-1.489-1.557q-.523-1.01-.523-2.392 0-1.346.523-2.364a3.86 3.86 0 0 1 1.472-1.585q.954-.568 2.238-.568.864 0 1.608.279.75.272 1.307.823.563.552.875 1.387.312.829.312 1.943v.665h-7.369v-1.5h5.091q0-.524-.227-.926a1.63 1.63 0 0 0-.631-.631 1.8 1.8 0 0 0-.926-.233q-.55 0-.977.256-.421.25-.659.676-.239.42-.245.937v1.426q0 .648.239 1.12.245.471.687.727.443.255 1.052.256.404 0 .738-.114.336-.114.574-.341t.364-.557l2.238.148a3.04 3.04 0 0 1-.699 1.409q-.522.597-1.352.932-.823.33-1.903.329m7.898-.005q-.835 0-1.489-.29a2.4 2.4 0 0 1-1.034-.869q-.375-.58-.375-1.444 0-.727.267-1.221t.727-.796q.46-.3 1.046-.454a8 8 0 0 1 1.238-.216q.762-.08 1.228-.148.466-.073.676-.216a.47.47 0 0 0 .21-.42v-.034q0-.54-.341-.835-.335-.296-.954-.296-.654 0-1.04.29a1.33 1.33 0 0 0-.512.716l-2.238-.182q.17-.795.67-1.375.5-.585 1.29-.898.795-.318 1.841-.318.728 0 1.392.171a3.6 3.6 0 0 1 1.187.528q.524.358.824.92.301.558.301 1.336V350h-2.295v-1.21h-.068q-.21.409-.563.721a2.6 2.6 0 0 1-.846.483q-.495.171-1.142.171m.693-1.671q.534 0 .943-.21a1.67 1.67 0 0 0 .642-.579 1.5 1.5 0 0 0 .233-.824v-.926q-.114.073-.312.136a6 6 0 0 1-.438.108q-.245.046-.489.085l-.443.063a3 3 0 0 0-.744.198 1.2 1.2 0 0 0-.494.37.9.9 0 0 0-.177.568q0 .494.358.756.365.255.921.255m8.344-10.13V350h-2.421v-11.636zm6.405 2.909v1.818h-5.256v-1.818zm-4.063-2.091h2.421v8.136q0 .336.102.523a.57.57 0 0 0 .284.256q.188.073.432.073.17 0 .341-.028l.261-.051.381 1.801a7 7 0 0 1-.512.131 4 4 0 0 1-.801.096q-.874.034-1.534-.233a2.15 2.15 0 0 1-1.017-.829q-.364-.563-.358-1.421zm8.071 5.773V350h-2.42v-11.636h2.352v4.448h.102q.296-.772.955-1.21.66-.443 1.653-.443.91 0 1.586.398.681.392 1.056 1.131.381.732.375 1.755V350h-2.42v-5.125q.005-.807-.409-1.256-.409-.449-1.148-.449-.494 0-.875.211-.375.21-.591.613-.21.398-.216.961m8.57 8.318a5 5 0 0 1-.864-.074 3.2 3.2 0 0 1-.659-.176l.546-1.807q.426.13.767.142a.97.97 0 0 0 .596-.159q.256-.17.415-.58l.142-.369-3.13-8.977h2.545l1.807 6.409h.091l1.824-6.409h2.562l-3.392 9.67q-.244.705-.665 1.227a2.7 2.7 0 0 1-1.051.813q-.636.29-1.534.29"/><path fill="#000" d="M424.61 368.182q0-2.114.563-3.892a10.8 10.8 0 0 1 1.733-3.296h2.312q-.443.563-.824 1.375a12 12 0 0 0-.664 1.773q-.285.966-.444 2a13 13 0 0 0-.159 2.04q0 1.347.273 2.721.279 1.37.75 2.546.477 1.176 1.068 1.926h-2.312a10.8 10.8 0 0 1-1.733-3.295q-.563-1.779-.563-3.898m16.576 0q0 1.903-.722 3.238-.716 1.337-1.954 2.04-1.234.699-2.773.699-1.551 0-2.784-.704-1.233-.705-1.949-2.04t-.716-3.233q0-1.904.716-3.239t1.949-2.034q1.233-.704 2.784-.704 1.54 0 2.773.704 1.238.699 1.954 2.034.722 1.335.722 3.239m-2.495 0q0-1.233-.369-2.08-.363-.846-1.028-1.284-.665-.437-1.557-.437-.893 0-1.557.437-.665.438-1.034 1.284-.364.847-.364 2.08t.364 2.079q.37.848 1.034 1.284.664.438 1.557.438t1.557-.438q.665-.436 1.028-1.284.369-.846.369-2.079m8.789-2.909v1.818h-5.387v-1.818zM443.326 374v-9.358q0-.949.37-1.574.375-.625 1.022-.937.648-.313 1.472-.313.556 0 1.017.085.466.085.693.154l-.432 1.818a3 3 0 0 0-.352-.085 2 2 0 0 0-.42-.04q-.534 0-.745.25-.21.244-.21.688V374zm10.15-8.727v1.818h-5.387v-1.818zM449.322 374v-9.358q0-.949.37-1.574.375-.625 1.022-.937.648-.313 1.472-.313.556 0 1.017.085.466.085.693.154l-.432 1.818a3 3 0 0 0-.352-.085 2 2 0 0 0-.42-.04q-.534 0-.745.25-.21.244-.21.688V374zm7.877-11.636V374h-2.421v-11.636zM458.962 374v-8.727h2.42V374zm1.216-9.852q-.54 0-.926-.358a1.16 1.16 0 0 1-.381-.87q0-.5.381-.858.386-.363.926-.363t.92.363q.387.358.387.858 0 .506-.387.87-.38.358-.92.358m5.388 4.807V374h-2.421v-8.727h2.307v1.539h.102q.29-.761.972-1.204.682-.449 1.653-.449.91 0 1.585.398.677.398 1.052 1.136.375.733.375 1.75V374h-2.421v-5.125q.006-.801-.409-1.25-.414-.455-1.142-.455-.489 0-.864.211-.369.21-.579.613-.206.398-.21.961m11.334 5.215q-1.347 0-2.319-.545a3.73 3.73 0 0 1-1.488-1.557q-.523-1.01-.523-2.392 0-1.346.523-2.364a3.86 3.86 0 0 1 1.471-1.585q.955-.568 2.239-.568.864 0 1.608.279.75.272 1.307.823.562.552.875 1.387.312.829.312 1.943v.665h-7.369v-1.5h5.091q0-.524-.227-.926a1.63 1.63 0 0 0-.631-.631 1.8 1.8 0 0 0-.926-.233 1.86 1.86 0 0 0-.978.256q-.42.25-.659.676-.238.42-.244.937v1.426q0 .648.239 1.12.245.471.687.727.444.255 1.051.256.403 0 .739-.114t.574-.341.363-.557l2.239.148a3.05 3.05 0 0 1-.699 1.409q-.522.597-1.352.932-.824.33-1.903.329m9.488-4.835q0 2.12-.568 3.898a10.7 10.7 0 0 1-1.727 3.295h-2.313q.443-.562.824-1.375t.665-1.772q.284-.966.443-2t.159-2.046q0-1.347-.278-2.716a14 14 0 0 0-.75-2.545q-.472-1.176-1.063-1.926h2.313a10.7 10.7 0 0 1 1.727 3.295q.568 1.779.568 3.892"/></svg>