<svg xmlns="http://www.w3.org/2000/svg" width="917" height="615" fill="none" viewBox="0 0 917 615"><path fill="#fff" d="M0 0h917v615H0z"/><path fill="#222" d="M867.011 583v-11.636h2.461v9.608h4.988V583zm12.8.17q-1.323 0-2.29-.562a3.85 3.85 0 0 1-1.483-1.58q-.522-1.017-.522-2.358 0-1.352.522-2.363a3.8 3.8 0 0 1 1.483-1.58q.966-.568 2.29-.568t2.284.568q.966.563 1.489 1.58.523 1.011.523 2.363 0 1.341-.523 2.358a3.84 3.84 0 0 1-1.489 1.58q-.96.562-2.284.562m.012-1.875q.601 0 1.005-.34.404-.347.608-.944.21-.596.21-1.358 0-.76-.21-1.358-.204-.596-.608-.943-.404-.346-1.005-.346-.609 0-1.023.346-.41.347-.619.943a4.2 4.2 0 0 0-.205 1.358q0 .762.205 1.358.21.596.619.944.414.34 1.023.34m7.184 1.705-2.375-8.727h2.449l1.353 5.863h.079l1.409-5.863h2.404l1.431 5.829h.074l1.33-5.829h2.443L895.235 583h-2.563l-1.5-5.489h-.108l-1.5 5.489zM867.011 51V39.364h2.461v4.8h4.994v-4.8h2.454V51h-2.454v-4.807h-4.994V51zm11.716 0v-8.727h2.421V51zm1.216-9.852q-.54 0-.926-.358a1.16 1.16 0 0 1-.38-.87q0-.5.38-.858.387-.363.926-.363.54 0 .921.364.386.357.386.857 0 .506-.386.87a1.3 1.3 0 0 1-.921.358m6.9 13.307q-1.177 0-2.017-.324-.835-.318-1.33-.87a2.66 2.66 0 0 1-.642-1.238l2.239-.301q.102.261.323.488.222.228.586.364.369.142.897.142.79 0 1.302-.386.517-.38.517-1.279v-1.596h-.103a2.3 2.3 0 0 1-.477.687 2.4 2.4 0 0 1-.818.528q-.5.205-1.193.205a3.6 3.6 0 0 1-1.79-.455q-.801-.46-1.278-1.403-.472-.95-.472-2.398 0-1.482.483-2.477t1.284-1.489a3.3 3.3 0 0 1 1.767-.494q.733 0 1.227.25.495.244.796.614a3.3 3.3 0 0 1 .471.716h.091v-1.466h2.404v8.812q0 1.114-.546 1.864-.545.75-1.511 1.125-.96.38-2.21.38m.051-5.398q.585 0 .988-.29.41-.295.625-.84.222-.552.222-1.319t-.216-1.33q-.216-.568-.625-.88t-.994-.313q-.597 0-1.006.324-.41.319-.619.886-.21.57-.21 1.313 0 .756.21 1.307.216.545.619.846.41.296 1.006.296m8.386-3.102V51h-2.42V39.364h2.352v4.449h.102q.295-.774.955-1.21.659-.444 1.653-.444.91 0 1.586.398.681.392 1.056 1.13.381.734.375 1.756V51h-2.42v-5.125q.005-.806-.409-1.256-.41-.449-1.148-.449-.494 0-.875.21a1.5 1.5 0 0 0-.591.614q-.21.399-.216.96M807.103 34V22.364h2.461v9.608h4.988V34zm12.8.17q-1.323 0-2.289-.562a3.84 3.84 0 0 1-1.483-1.58q-.523-1.017-.523-2.357 0-1.353.523-2.364a3.8 3.8 0 0 1 1.483-1.58q.966-.568 2.289-.568t2.284.568a3.8 3.8 0 0 1 1.489 1.58q.523 1.011.523 2.364 0 1.34-.523 2.357a3.84 3.84 0 0 1-1.489 1.58q-.96.563-2.284.563m.012-1.875q.601 0 1.005-.34.404-.347.608-.944.21-.596.211-1.358 0-.761-.211-1.357-.204-.597-.608-.944-.404-.345-1.005-.346-.609 0-1.023.346-.41.347-.619.944-.205.596-.205 1.357 0 .762.205 1.358.21.597.619.944.414.34 1.023.34m8.17 1.87q-.836 0-1.488-.29a2.4 2.4 0 0 1-1.034-.87q-.375-.579-.375-1.443 0-.727.267-1.221t.727-.796 1.045-.454a8 8 0 0 1 1.239-.216q.762-.08 1.227-.148.466-.073.676-.216a.47.47 0 0 0 .211-.42v-.034q0-.54-.341-.835-.336-.296-.955-.296-.653 0-1.04.29-.386.285-.511.716l-2.239-.182a3.05 3.05 0 0 1 .671-1.375q.5-.586 1.29-.898.795-.318 1.841-.318.726 0 1.392.17.67.17 1.187.529.523.358.824.92.301.558.301 1.336V34h-2.295v-1.21h-.069q-.21.41-.562.721a2.6 2.6 0 0 1-.847.483q-.494.17-1.142.17m.693-1.67q.535 0 .944-.21a1.7 1.7 0 0 0 .642-.58q.233-.364.233-.824v-.927q-.114.075-.313.137a6 6 0 0 1-.437.108q-.245.046-.489.085l-.443.063a3 3 0 0 0-.744.198 1.2 1.2 0 0 0-.495.37.9.9 0 0 0-.176.568q0 .494.358.756.363.255.92.255m9.14 1.647q-.994 0-1.801-.511-.802-.517-1.273-1.517-.466-1.006-.466-2.466 0-1.5.483-2.495.483-.999 1.284-1.494a3.3 3.3 0 0 1 1.767-.5q.733 0 1.222.25.494.244.795.614.307.362.466.716h.074v-4.375h2.415V34h-2.387v-1.398h-.102a3.1 3.1 0 0 1-.483.722 2.4 2.4 0 0 1-.801.585q-.488.233-1.193.233m.767-1.926q.585 0 .989-.318.409-.324.625-.904.22-.58.221-1.358 0-.779-.216-1.352t-.625-.886-.994-.313q-.597 0-1.006.324t-.619.898-.21 1.33q0 .76.21 1.346.216.58.619.909.41.324 1.006.324"/><path fill="url(#paint0_linear_269_395)" stroke="#000" d="M791.5 38.5h67v544h-67z"/><path fill="#C5EBF5" fill-rule="evenodd" stroke="#0055DC" stroke-miterlimit="10" stroke-width="1.5" d="M122.487 104H30.264c-2.443 0-4.63 2.058-4.63 4.63v60.582h101.484V108.63c0-2.572-2.187-4.63-4.631-4.63Z" clip-rule="evenodd"/><path fill="#0055DC" d="M76.312 108.502a.772.772 0 1 0-.001-1.544.772.772 0 0 0 0 1.544"/><path fill="#fff" d="M131.105 173.842H21.518c-5.66 0-9.518-.9-9.518-1.672v-2.572c0-.257.257-.515.514-.515H139.98c.257 0 .515.258.515.515v2.572c.128.772-2.83 1.672-9.39 1.672"/><path stroke="#0055DC" stroke-miterlimit="10" stroke-width="1.5" d="M131.105 173.842H21.518c-5.66 0-9.518-.9-9.518-1.672v-2.572c0-.257.257-.515.514-.515H139.98c.257 0 .515.258.515.515v2.572c.128.772-2.83 1.672-9.39 1.672Z" clip-rule="evenodd"/><path fill="#C5EBF5" d="M140.623 169.598c0-.257-.257-.515-.514-.515H12.643c-.257 0-.515.258-.515.515v2.444h128.624v-2.444z"/><path stroke="#0055DC" stroke-miterlimit="10" stroke-width="1.5" d="M131.105 173.842H21.518c-5.66 0-9.518-.9-9.518-1.672v-2.572c0-.257.257-.515.514-.515H139.98c.257 0 .515.258.515.515v2.572c.128.772-2.83 1.672-9.39 1.672Z"/><path fill="#fff" d="M122.873 111.203H29.75v54.279h93.123z"/><path fill="#0055DC" fill-rule="evenodd" d="M90.331 169.341v.514c0 .386-.771.515-1.414.515H63.835c-.643 0-1.415-.129-1.415-.515v-.514" clip-rule="evenodd"/><path fill="#CBE9F3" d="M89.014 153.783c-3.767-2-7.94-2.538-8.717-4.363-.589-1.383 0-6.012 0-6.012l-9.103-.095s.575 4.693 0 6.107c-.698 1.714-4.49 2.267-7.97 4.214"/><path stroke="#193979" stroke-miterlimit="10" stroke-width="1.5" d="M89.014 153.783c-3.767-2-7.94-2.538-8.717-4.363-.589-1.383 0-6.012 0-6.012l-9.103-.095s.575 4.693 0 6.107c-.698 1.714-4.49 2.267-7.97 4.214"/><path fill="#1B59D3" stroke="#0F387D" stroke-linecap="round" stroke-miterlimit="10" stroke-width="1.5" d="M76.204 158.545a19.55 19.55 0 0 0 12.81-4.761c-3.767-2-7.94-2.539-8.718-4.364a4 4 0 0 1-.229-1.193 23.7 23.7 0 0 1-4.328.464 23.5 23.5 0 0 1-4.325-.464c-.016.406-.09.808-.222 1.193-.697 1.715-4.489 2.268-7.97 4.216a19.55 19.55 0 0 0 12.982 4.909Z"/><path fill="#CBE9F3" d="M68.877 135.287c-.072-.587-.943-1.642-1.971-.965-1.006.661-.04 5.606 2.765 5.422"/><path stroke="#193979" stroke-miterlimit="10" stroke-width="1.5" d="M68.877 135.287c-.072-.587-.943-1.642-1.971-.965-1.006.661-.04 5.606 2.765 5.422"/><path fill="#CBE9F3" d="M82.647 135.287c.072-.587.943-1.642 1.97-.965 1.007.661.04 5.606-2.765 5.422"/><path stroke="#193979" stroke-miterlimit="10" stroke-width="1.5" d="M82.647 135.287c.072-.587.943-1.642 1.97-.965 1.007.661.04 5.606-2.765 5.422"/><path fill="#CBE9F3" stroke="#193979" stroke-miterlimit="10" stroke-width="1.5" d="M82.824 131.847a20.4 20.4 0 0 1-.656 5.747c-.268.948-.584 3.856-.948 4.609-.915 1.899-3.273 4.012-5.417 4.012s-4.258-2.112-5.417-4.011c-.443-.727-.795-3.639-1.07-4.608-.638-2.243-.534-4.297-.534-5.749 0-4.405 2.957-7.337 7.017-7.337s7.025 2.932 7.025 7.337Z"/><path fill="#0F387D" stroke="#0F387D" stroke-linejoin="round" stroke-width="1.5" d="M81.587 130.916s-7.255.683-10.566-1.703c0 0-.966 4.066-2.143 6.074 0 0-1.451-6.168.662-6.986 0 0-.175-3.422 3.599-4.299 0 0-.195.853.438.828s5.66-2.922 9.247-.657c3.587 2.264.834 5.575.834 5.575s.097 3.498-.767 4.975l-.314 1.002s-.908-3.167-.99-4.809Z"/><path stroke="#1B59D3" stroke-miterlimit="10" stroke-width="1.5" d="M76.204 158.545c10.842 0 19.631-8.79 19.631-19.632s-8.789-19.631-19.63-19.631c-10.843 0-19.632 8.789-19.632 19.631s8.79 19.632 19.631 19.632Z"/><path stroke="#1B59D3" stroke-miterlimit="10" stroke-width="1.5" d="M76.204 158.545c10.842 0 19.631-8.79 19.631-19.632s-8.789-19.631-19.63-19.631c-10.843 0-19.632 8.789-19.632 19.631s8.79 19.632 19.631 19.632Z"/><path fill="#C5EBF5" fill-rule="evenodd" stroke="#0055DC" stroke-miterlimit="10" stroke-width="1.5" d="M120.241 19H32.397c-2.328 0-4.41 1.96-4.41 4.41v57.706h96.665V23.41c0-2.45-2.083-4.411-4.411-4.411Z" clip-rule="evenodd"/><path fill="#0055DC" d="M76.258 23.288a.735.735 0 1 0 0-1.47.735.735 0 0 0 0 1.47"/><path fill="#fff" d="M128.45 85.526H24.066c-5.39 0-9.066-.857-9.066-1.592v-2.45c0-.246.245-.49.49-.49h121.414c.245 0 .49.244.49.49v2.45c.122.735-2.696 1.592-8.944 1.592"/><path stroke="#0055DC" stroke-miterlimit="10" stroke-width="1.5" d="M128.45 85.526H24.066c-5.39 0-9.066-.857-9.066-1.592v-2.45c0-.246.245-.49.49-.49h121.414c.245 0 .49.244.49.49v2.45c.122.735-2.696 1.592-8.944 1.592Z" clip-rule="evenodd"/><path fill="#C5EBF5" d="M137.516 81.483c0-.245-.245-.49-.49-.49H15.612c-.245 0-.49.245-.49.49v2.328h122.516v-2.328z"/><path stroke="#0055DC" stroke-miterlimit="10" stroke-width="1.5" d="M128.45 85.526H24.066c-5.39 0-9.066-.857-9.066-1.592v-2.45c0-.246.245-.49.49-.49h121.414c.245 0 .49.244.49.49v2.45c.122.735-2.696 1.592-8.944 1.592Z"/><path fill="#fff" d="M120.609 25.86H31.907v51.703h88.702z"/><path fill="#0055DC" fill-rule="evenodd" d="M89.612 81.238v.49c0 .368-.735.49-1.347.49H64.374c-.612 0-1.348-.122-1.348-.49v-.49" clip-rule="evenodd"/><path fill="#fff" stroke="#0055DC" stroke-miterlimit="10" stroke-width="1.5" d="M76.302 72.906c12.388 0 22.43-10.043 22.43-22.43 0-12.389-10.042-22.431-22.43-22.431s-22.43 10.042-22.43 22.43 10.042 22.43 22.43 22.43Z"/><path fill="#003682" d="M75.385 42.06a1 1 0 0 1 1.673 0l.318.487a1 1 0 0 0 1.42.265l.469-.336a1 1 0 0 1 1.56.603l.123.575a1 1 0 0 0 1.227.76l.561-.145a1 1 0 0 1 1.237 1.125l-.094.588a1 1 0 0 0 .869 1.15l.582.07a1 1 0 0 1 .746 1.494l-.3.519a1 1 0 0 0 .393 1.384l.525.28a1 1 0 0 1 .154 1.662l-.466.374a1 1 0 0 0-.133 1.432l.39.455a1 1 0 0 1-.457 1.605l-.564.178a1 1 0 0 0-.642 1.288l.2.564a1 1 0 0 1-1.007 1.333l-.582-.039a1 1 0 0 0-1.066.971l-.015.592a1 1 0 0 1-1.423.88l-.524-.245a1 1 0 0 0-1.346.521l-.224.54a1 1 0 0 1-1.645.306l-.4-.417a1 1 0 0 0-1.445 0l-.4.417a1 1 0 0 1-1.645-.307l-.224-.539a1 1 0 0 0-1.346-.521l-.524.244a1 1 0 0 1-1.422-.879l-.016-.592a1 1 0 0 0-1.066-.97l-.582.038a1 1 0 0 1-1.008-1.333l.2-.563a1 1 0 0 0-.641-1.289l-.564-.178a1 1 0 0 1-.457-1.605l.39-.455a1 1 0 0 0-.133-1.432l-.466-.374a1 1 0 0 1 .154-1.662l.525-.28a1 1 0 0 0 .394-1.384l-.3-.519a1 1 0 0 1 .745-1.494l.582-.07a1 1 0 0 0 .869-1.15l-.094-.588a1 1 0 0 1 1.237-1.125l.561.144a1 1 0 0 0 1.227-.76l.123-.574a1 1 0 0 1 1.56-.603l.47.336a1 1 0 0 0 1.419-.265z"/><path fill="#C5EBF5" stroke="#003682" stroke-miterlimit="10" stroke-width="1.5" d="M69.224 62.16a15.8 15.8 0 0 0 3.22-2.343v-5.92l7.799.092v5.568c.356.692 1.7 1.542 3.494 2.55 0 0-3.337 4.977-7.529 4.977-4.191 0-6.984-4.924-6.984-4.924Z"/><path fill="#0055DC" stroke="#003682" stroke-miterlimit="10" stroke-width="1.5" d="M76.303 72.906a22.35 22.35 0 0 0 15.06-5.808 35 35 0 0 0-7.583-4.953s-3.38 4.938-7.57 4.938c-4.192 0-7.007-4.875-7.007-4.875-2.573 1.45-5.729 2.816-8.094 4.763a22.35 22.35 0 0 0 15.194 5.935Z"/><path fill="#C5EBF5" stroke="#003682" stroke-miterlimit="10" stroke-width="1.5" d="M83.74 46.414a1.24 1.24 0 0 1 1.611-.863c.975.294.426 3.834-2.298 3.708q.423-1.402.686-2.845Zm-14.877 0a1.276 1.276 0 0 0-1.666-.863c-.85.345-.426 3.834 2.3 3.709a23 23 0 0 1-.634-2.846Z"/><path fill="#C5EBF5" stroke="#003682" stroke-miterlimit="10" stroke-width="1.5" d="M84.092 43.164c0 2.021-.74 6.14-2.04 8.626-.965 1.846-3.452 3.9-5.712 3.9s-4.491-2.054-5.712-3.9c-1.548-2.34-2.04-6.605-2.04-8.626a7.752 7.752 0 1 1 15.504 0Z"/><path fill="#003682" stroke="#003682" stroke-linejoin="round" stroke-width="1.5" d="M83.692 45.71c-.362-3.081-3.35-7.182-6.688-7.182l-.55-2.554 1.033 2.583c0 5.584-8.28 4.091-8.625 7.781l-.132-.132a22.4 22.4 0 0 1-.275-3.25c0-4.282 3.604-7.62 7.885-7.62a7.867 7.867 0 0 1 7.885 7.753 16 16 0 0 1-.436 3.157z"/><path stroke="#0055DC" stroke-miterlimit="10" stroke-width="1.5" d="M76.302 72.906c12.388 0 22.43-10.043 22.43-22.43 0-12.389-10.042-22.431-22.43-22.431s-22.43 10.042-22.43 22.43 10.042 22.43 22.43 22.43Z"/><path fill="#C5EBF5" fill-rule="evenodd" stroke="#0055DC" stroke-miterlimit="10" stroke-width="1.5" d="M120.241 538H32.397c-2.328 0-4.41 1.96-4.41 4.411v57.705h96.665v-57.705c0-2.451-2.083-4.411-4.411-4.411Z" clip-rule="evenodd"/><path fill="#0055DC" d="M76.258 542.288a.735.735 0 1 0 0-1.47.735.735 0 0 0 0 1.47"/><path fill="#fff" d="M128.45 604.526H24.066c-5.39 0-9.066-.857-9.066-1.592v-2.451c0-.245.245-.49.49-.49h121.414c.245 0 .49.245.49.49v2.451c.122.735-2.696 1.592-8.944 1.592"/><path stroke="#0055DC" stroke-miterlimit="10" stroke-width="1.5" d="M128.45 604.526H24.066c-5.39 0-9.066-.857-9.066-1.592v-2.451c0-.245.245-.49.49-.49h121.414c.245 0 .49.245.49.49v2.451c.122.735-2.696 1.592-8.944 1.592Z" clip-rule="evenodd"/><path fill="#C5EBF5" d="M137.516 600.483c0-.245-.245-.49-.49-.49H15.612c-.245 0-.49.245-.49.49v2.328h122.516v-2.328z"/><path stroke="#0055DC" stroke-miterlimit="10" stroke-width="1.5" d="M128.45 604.526H24.066c-5.39 0-9.066-.857-9.066-1.592v-2.451c0-.245.245-.49.49-.49h121.414c.245 0 .49.245.49.49v2.451c.122.735-2.696 1.592-8.944 1.592Z"/><path fill="#fff" d="M120.609 544.861H31.907v51.702h88.702z"/><path fill="#0055DC" fill-rule="evenodd" d="M89.612 600.238v.49c0 .368-.735.49-1.347.49H64.374c-.612 0-1.348-.122-1.348-.49v-.49" clip-rule="evenodd"/><path fill="#fff" stroke="#0055DC" stroke-miterlimit="10" stroke-width="1.5" d="M76.302 591.906c12.388 0 22.43-10.043 22.43-22.431s-10.042-22.43-22.43-22.43-22.43 10.042-22.43 22.43 10.042 22.431 22.43 22.431Z"/><path fill="#003682" d="M75.385 561.061a1 1 0 0 1 1.673 0l.318.486a1 1 0 0 0 1.42.265l.469-.336a1 1 0 0 1 1.56.603l.123.575a1 1 0 0 0 1.227.759l.561-.144a1 1 0 0 1 1.237 1.125l-.094.588a1 1 0 0 0 .869 1.15l.582.07a1 1 0 0 1 .746 1.494l-.3.519a1 1 0 0 0 .393 1.384l.525.28a1 1 0 0 1 .154 1.662l-.466.374a1 1 0 0 0-.133 1.432l.39.455a1 1 0 0 1-.457 1.605l-.564.178a1 1 0 0 0-.642 1.288l.2.564a1 1 0 0 1-1.007 1.333l-.582-.039a1 1 0 0 0-1.066.971l-.015.592a1 1 0 0 1-1.423.879l-.524-.244a1 1 0 0 0-1.346.521l-.224.539a1 1 0 0 1-1.645.307l-.4-.417a1 1 0 0 0-1.445 0l-.4.417a1 1 0 0 1-1.645-.307l-.224-.539a1 1 0 0 0-1.346-.521l-.524.244a1 1 0 0 1-1.422-.879l-.016-.592a1 1 0 0 0-1.066-.971l-.582.039a1 1 0 0 1-1.008-1.333l.2-.564a1 1 0 0 0-.641-1.288l-.564-.178a1 1 0 0 1-.457-1.605l.39-.455a1 1 0 0 0-.133-1.432l-.466-.374a1 1 0 0 1 .154-1.662l.525-.28a1 1 0 0 0 .394-1.384l-.3-.519a1 1 0 0 1 .745-1.494l.582-.07a1 1 0 0 0 .869-1.15l-.094-.588a1 1 0 0 1 1.237-1.125l.561.144a1 1 0 0 0 1.227-.759l.123-.575a1 1 0 0 1 1.56-.603l.47.336a1 1 0 0 0 1.419-.265z"/><path fill="#C5EBF5" stroke="#003682" stroke-miterlimit="10" stroke-width="1.5" d="M69.224 581.16a15.8 15.8 0 0 0 3.22-2.343v-5.92l7.799.092v5.568c.356.692 1.7 1.542 3.494 2.549 0 0-3.337 4.977-7.529 4.977-4.191 0-6.984-4.923-6.984-4.923Z"/><path fill="#0055DC" stroke="#003682" stroke-miterlimit="10" stroke-width="1.5" d="M76.303 591.906a22.35 22.35 0 0 0 15.06-5.808 35 35 0 0 0-7.583-4.953s-3.38 4.938-7.57 4.938c-4.192 0-7.007-4.875-7.007-4.875-2.573 1.451-5.729 2.816-8.094 4.763a22.35 22.35 0 0 0 15.194 5.935Z"/><path fill="#C5EBF5" stroke="#003682" stroke-miterlimit="10" stroke-width="1.5" d="M83.74 565.414a1.23 1.23 0 0 1 .615-.787 1.24 1.24 0 0 1 .996-.076c.975.294.426 3.834-2.298 3.708q.423-1.402.686-2.845Zm-14.877 0a1.27 1.27 0 0 0-1.148-.937 1.3 1.3 0 0 0-.518.074c-.85.345-.426 3.834 2.3 3.709a23 23 0 0 1-.634-2.846Z"/><path fill="#C5EBF5" stroke="#003682" stroke-miterlimit="10" stroke-width="1.5" d="M84.092 562.164c0 2.022-.74 6.14-2.04 8.626-.965 1.846-3.452 3.901-5.712 3.901s-4.491-2.055-5.712-3.9c-1.548-2.34-2.04-6.605-2.04-8.627a7.753 7.753 0 0 1 15.504 0Z"/><path fill="#003682" stroke="#003682" stroke-linejoin="round" stroke-width="1.5" d="M83.692 564.71c-.362-3.081-3.35-7.182-6.688-7.182l-.55-2.554 1.033 2.583c0 5.583-8.28 4.092-8.625 7.781l-.132-.132a22.4 22.4 0 0 1-.275-3.25c0-4.282 3.604-7.62 7.885-7.62a7.87 7.87 0 0 1 7.885 7.753 16 16 0 0 1-.436 3.157z"/><path stroke="#0055DC" stroke-miterlimit="10" stroke-width="1.5" d="M76.302 591.906c12.388 0 22.43-10.043 22.43-22.431s-10.042-22.43-22.43-22.43-22.43 10.042-22.43 22.43 10.042 22.431 22.43 22.431Z"/><path fill="#C5EBF5" fill-rule="evenodd" stroke="#0055DC" stroke-miterlimit="10" stroke-width="1.5" d="M122.487 277H30.264c-2.443 0-4.63 2.058-4.63 4.63v60.582h101.484V281.63c0-2.572-2.187-4.63-4.631-4.63Z" clip-rule="evenodd"/><path fill="#0055DC" d="M76.312 281.502a.772.772 0 1 0-.001-1.544.772.772 0 0 0 0 1.544"/><path fill="#fff" d="M131.105 346.842H21.518c-5.66 0-9.518-.9-9.518-1.672v-2.572c0-.257.257-.515.514-.515H139.98c.257 0 .515.258.515.515v2.572c.128.772-2.83 1.672-9.39 1.672"/><path stroke="#0055DC" stroke-miterlimit="10" stroke-width="1.5" d="M131.105 346.842H21.518c-5.66 0-9.518-.9-9.518-1.672v-2.572c0-.257.257-.515.514-.515H139.98c.257 0 .515.258.515.515v2.572c.128.772-2.83 1.672-9.39 1.672Z" clip-rule="evenodd"/><path fill="#C5EBF5" d="M140.623 342.598c0-.257-.257-.515-.514-.515H12.643c-.257 0-.515.258-.515.515v2.444h128.624v-2.444z"/><path stroke="#0055DC" stroke-miterlimit="10" stroke-width="1.5" d="M131.105 346.842H21.518c-5.66 0-9.518-.9-9.518-1.672v-2.572c0-.257.257-.515.514-.515H139.98c.257 0 .515.258.515.515v2.572c.128.772-2.83 1.672-9.39 1.672Z"/><path fill="#fff" d="M122.873 284.203H29.75v54.279h93.123z"/><path fill="#0055DC" fill-rule="evenodd" d="M90.331 342.341v.514c0 .386-.771.515-1.414.515H63.835c-.643 0-1.415-.129-1.415-.515v-.514" clip-rule="evenodd"/><path fill="#CBE9F3" d="M89.014 326.783c-3.767-2-7.94-2.538-8.717-4.363-.589-1.383 0-6.012 0-6.012l-9.103-.095s.575 4.693 0 6.107c-.698 1.714-4.49 2.267-7.97 4.214"/><path stroke="#193979" stroke-miterlimit="10" stroke-width="1.5" d="M89.014 326.783c-3.767-2-7.94-2.538-8.717-4.363-.589-1.383 0-6.012 0-6.012l-9.103-.095s.575 4.693 0 6.107c-.698 1.714-4.49 2.267-7.97 4.214"/><path fill="#1B59D3" stroke="#0F387D" stroke-linecap="round" stroke-miterlimit="10" stroke-width="1.5" d="M76.204 331.545a19.55 19.55 0 0 0 12.81-4.761c-3.767-2-7.94-2.539-8.718-4.364a4 4 0 0 1-.229-1.193 23.7 23.7 0 0 1-4.328.464 23.5 23.5 0 0 1-4.325-.464c-.016.406-.09.808-.222 1.193-.697 1.715-4.489 2.268-7.97 4.216a19.55 19.55 0 0 0 12.982 4.909Z"/><path fill="#CBE9F3" d="M68.877 308.287c-.072-.587-.943-1.642-1.971-.965-1.006.661-.04 5.606 2.765 5.422"/><path stroke="#193979" stroke-miterlimit="10" stroke-width="1.5" d="M68.877 308.287c-.072-.587-.943-1.642-1.971-.965-1.006.661-.04 5.606 2.765 5.422"/><path fill="#CBE9F3" d="M82.647 308.287c.072-.587.943-1.642 1.97-.965 1.007.661.04 5.606-2.765 5.422"/><path stroke="#193979" stroke-miterlimit="10" stroke-width="1.5" d="M82.647 308.287c.072-.587.943-1.642 1.97-.965 1.007.661.04 5.606-2.765 5.422"/><path fill="#CBE9F3" stroke="#193979" stroke-miterlimit="10" stroke-width="1.5" d="M82.824 304.847a20.4 20.4 0 0 1-.656 5.747c-.268.948-.584 3.856-.948 4.609-.915 1.899-3.273 4.012-5.417 4.012s-4.258-2.112-5.417-4.011c-.443-.727-.795-3.639-1.07-4.608-.638-2.243-.534-4.297-.534-5.749 0-4.405 2.957-7.337 7.017-7.337s7.025 2.932 7.025 7.337Z"/><path fill="#0F387D" stroke="#0F387D" stroke-linejoin="round" stroke-width="1.5" d="M81.587 303.916s-7.255.683-10.566-1.703c0 0-.966 4.066-2.143 6.074 0 0-1.451-6.168.662-6.986 0 0-.175-3.422 3.599-4.299 0 0-.195.853.438.828s5.66-2.922 9.247-.657c3.587 2.264.834 5.575.834 5.575s.097 3.498-.767 4.975l-.314 1.002s-.908-3.167-.99-4.809Z"/><path stroke="#1B59D3" stroke-miterlimit="10" stroke-width="1.5" d="M76.204 331.545c10.842 0 19.631-8.79 19.631-19.632s-8.789-19.631-19.63-19.631c-10.843 0-19.632 8.789-19.632 19.631s8.79 19.632 19.631 19.632Z"/><path stroke="#1B59D3" stroke-miterlimit="10" stroke-width="1.5" d="M76.204 331.545c10.842 0 19.631-8.79 19.631-19.632s-8.789-19.631-19.63-19.631c-10.843 0-19.632 8.789-19.632 19.631s8.79 19.632 19.631 19.632Z"/><path fill="#C5EBF5" fill-rule="evenodd" stroke="#0055DC" stroke-miterlimit="10" stroke-width="1.5" d="M120.241 192H32.397c-2.328 0-4.41 1.96-4.41 4.411v57.705h96.665v-57.705c0-2.451-2.083-4.411-4.411-4.411Z" clip-rule="evenodd"/><path fill="#0055DC" d="M76.258 196.288a.735.735 0 1 0 0-1.47.735.735 0 0 0 0 1.47"/><path fill="#fff" d="M128.45 258.526H24.066c-5.39 0-9.066-.857-9.066-1.592v-2.451c0-.245.245-.49.49-.49h121.414c.245 0 .49.245.49.49v2.451c.122.735-2.696 1.592-8.944 1.592"/><path stroke="#0055DC" stroke-miterlimit="10" stroke-width="1.5" d="M128.45 258.526H24.066c-5.39 0-9.066-.857-9.066-1.592v-2.451c0-.245.245-.49.49-.49h121.414c.245 0 .49.245.49.49v2.451c.122.735-2.696 1.592-8.944 1.592Z" clip-rule="evenodd"/><path fill="#C5EBF5" d="M137.516 254.483c0-.245-.245-.49-.49-.49H15.612c-.245 0-.49.245-.49.49v2.328h122.516v-2.328z"/><path stroke="#0055DC" stroke-miterlimit="10" stroke-width="1.5" d="M128.45 258.526H24.066c-5.39 0-9.066-.857-9.066-1.592v-2.451c0-.245.245-.49.49-.49h121.414c.245 0 .49.245.49.49v2.451c.122.735-2.696 1.592-8.944 1.592Z"/><path fill="#fff" d="M120.609 198.861H31.907v51.702h88.702z"/><path fill="#0055DC" fill-rule="evenodd" d="M89.612 254.238v.49c0 .368-.735.49-1.347.49H64.374c-.612 0-1.348-.122-1.348-.49v-.49" clip-rule="evenodd"/><path fill="#fff" stroke="#0055DC" stroke-miterlimit="10" stroke-width="1.5" d="M76.302 245.906c12.388 0 22.43-10.043 22.43-22.431s-10.042-22.43-22.43-22.43-22.43 10.042-22.43 22.43 10.042 22.431 22.43 22.431Z"/><path fill="#003682" d="M75.385 215.061a1 1 0 0 1 1.673 0l.318.486a1 1 0 0 0 1.42.265l.469-.336a1 1 0 0 1 1.56.603l.123.575a1 1 0 0 0 1.227.759l.561-.144a1 1 0 0 1 1.237 1.125l-.094.588a1 1 0 0 0 .869 1.15l.582.07a1 1 0 0 1 .746 1.494l-.3.519a1 1 0 0 0 .393 1.384l.525.28a1 1 0 0 1 .154 1.662l-.466.374a1 1 0 0 0-.133 1.432l.39.455a1 1 0 0 1-.457 1.605l-.564.178a1 1 0 0 0-.642 1.288l.2.564a1 1 0 0 1-1.007 1.333l-.582-.039a1 1 0 0 0-1.066.971l-.015.592a1 1 0 0 1-1.423.879l-.524-.244a1 1 0 0 0-1.346.521l-.224.539a1 1 0 0 1-1.645.307l-.4-.417a1 1 0 0 0-1.445 0l-.4.417a1 1 0 0 1-1.645-.307l-.224-.539a1 1 0 0 0-1.346-.521l-.524.244a1 1 0 0 1-1.422-.879l-.016-.592a1 1 0 0 0-1.066-.971l-.582.039a1 1 0 0 1-1.008-1.333l.2-.564a1 1 0 0 0-.641-1.288l-.564-.178a1 1 0 0 1-.457-1.605l.39-.455a1 1 0 0 0-.133-1.432l-.466-.374a1 1 0 0 1 .154-1.662l.525-.28a1 1 0 0 0 .394-1.384l-.3-.519a1 1 0 0 1 .745-1.494l.582-.07a1 1 0 0 0 .869-1.15l-.094-.588a1 1 0 0 1 1.237-1.125l.561.144a1 1 0 0 0 1.227-.759l.123-.575a1 1 0 0 1 1.56-.603l.47.336a1 1 0 0 0 1.419-.265z"/><path fill="#C5EBF5" stroke="#003682" stroke-miterlimit="10" stroke-width="1.5" d="M69.224 235.16a15.8 15.8 0 0 0 3.22-2.343v-5.92l7.799.092v5.568c.356.692 1.7 1.542 3.494 2.549 0 0-3.337 4.977-7.529 4.977-4.191 0-6.984-4.923-6.984-4.923Z"/><path fill="#0055DC" stroke="#003682" stroke-miterlimit="10" stroke-width="1.5" d="M76.303 245.906a22.35 22.35 0 0 0 15.06-5.808 35 35 0 0 0-7.583-4.953s-3.38 4.938-7.57 4.938c-4.192 0-7.007-4.875-7.007-4.875-2.573 1.451-5.729 2.816-8.094 4.763a22.35 22.35 0 0 0 15.194 5.935Z"/><path fill="#C5EBF5" stroke="#003682" stroke-miterlimit="10" stroke-width="1.5" d="M83.74 219.414a1.23 1.23 0 0 1 .615-.787 1.24 1.24 0 0 1 .996-.076c.975.294.426 3.834-2.298 3.708q.423-1.402.686-2.845Zm-14.877 0a1.27 1.27 0 0 0-1.148-.937 1.3 1.3 0 0 0-.518.074c-.85.345-.426 3.834 2.3 3.709a23 23 0 0 1-.634-2.846Z"/><path fill="#C5EBF5" stroke="#003682" stroke-miterlimit="10" stroke-width="1.5" d="M84.092 216.164c0 2.022-.74 6.14-2.04 8.626-.965 1.846-3.452 3.901-5.712 3.901s-4.491-2.055-5.712-3.9c-1.548-2.34-2.04-6.605-2.04-8.627a7.753 7.753 0 0 1 15.504 0Z"/><path fill="#003682" stroke="#003682" stroke-linejoin="round" stroke-width="1.5" d="M83.692 218.71c-.362-3.081-3.35-7.182-6.688-7.182l-.55-2.554 1.033 2.583c0 5.583-8.28 4.092-8.625 7.781l-.132-.132a22.4 22.4 0 0 1-.275-3.25c0-4.282 3.604-7.62 7.885-7.62a7.87 7.87 0 0 1 7.885 7.753 16 16 0 0 1-.436 3.157z"/><path stroke="#0055DC" stroke-miterlimit="10" stroke-width="1.5" d="M76.302 245.906c12.388 0 22.43-10.043 22.43-22.431s-10.042-22.43-22.43-22.43-22.43 10.042-22.43 22.43 10.042 22.431 22.43 22.431Z"/><path fill="#C5EBF5" fill-rule="evenodd" stroke="#0055DC" stroke-miterlimit="10" stroke-width="1.5" d="M122.487 450H30.264c-2.443 0-4.63 2.058-4.63 4.63v60.582h101.484V454.63c0-2.572-2.187-4.63-4.631-4.63Z" clip-rule="evenodd"/><path fill="#0055DC" d="M76.312 454.502a.772.772 0 1 0-.001-1.544.772.772 0 0 0 0 1.544"/><path fill="#fff" d="M131.105 519.842H21.518c-5.66 0-9.518-.9-9.518-1.672v-2.572c0-.257.257-.515.514-.515H139.98c.257 0 .515.258.515.515v2.572c.128.772-2.83 1.672-9.39 1.672"/><path stroke="#0055DC" stroke-miterlimit="10" stroke-width="1.5" d="M131.105 519.842H21.518c-5.66 0-9.518-.9-9.518-1.672v-2.572c0-.257.257-.515.514-.515H139.98c.257 0 .515.258.515.515v2.572c.128.772-2.83 1.672-9.39 1.672Z" clip-rule="evenodd"/><path fill="#C5EBF5" d="M140.623 515.598c0-.257-.257-.515-.514-.515H12.643c-.257 0-.515.258-.515.515v2.444h128.624v-2.444z"/><path stroke="#0055DC" stroke-miterlimit="10" stroke-width="1.5" d="M131.105 519.842H21.518c-5.66 0-9.518-.9-9.518-1.672v-2.572c0-.257.257-.515.514-.515H139.98c.257 0 .515.258.515.515v2.572c.128.772-2.83 1.672-9.39 1.672Z"/><path fill="#fff" d="M122.873 457.203H29.75v54.279h93.123z"/><path fill="#0055DC" fill-rule="evenodd" d="M90.331 515.341v.514c0 .386-.771.515-1.414.515H63.835c-.643 0-1.415-.129-1.415-.515v-.514" clip-rule="evenodd"/><path fill="#CBE9F3" d="M89.014 499.783c-3.767-2-7.94-2.538-8.717-4.363-.589-1.383 0-6.012 0-6.012l-9.103-.095s.575 4.693 0 6.107c-.698 1.714-4.49 2.267-7.97 4.214"/><path stroke="#193979" stroke-miterlimit="10" stroke-width="1.5" d="M89.014 499.783c-3.767-2-7.94-2.538-8.717-4.363-.589-1.383 0-6.012 0-6.012l-9.103-.095s.575 4.693 0 6.107c-.698 1.714-4.49 2.267-7.97 4.214"/><path fill="#1B59D3" stroke="#0F387D" stroke-linecap="round" stroke-miterlimit="10" stroke-width="1.5" d="M76.204 504.545a19.55 19.55 0 0 0 12.81-4.761c-3.767-2-7.94-2.539-8.718-4.364a4 4 0 0 1-.229-1.193 23.7 23.7 0 0 1-4.328.464 23.5 23.5 0 0 1-4.325-.464c-.016.406-.09.808-.222 1.193-.697 1.715-4.489 2.268-7.97 4.216a19.55 19.55 0 0 0 12.982 4.909Z"/><path fill="#CBE9F3" d="M68.877 481.287c-.072-.587-.943-1.642-1.971-.965-1.006.661-.04 5.606 2.765 5.422"/><path stroke="#193979" stroke-miterlimit="10" stroke-width="1.5" d="M68.877 481.287c-.072-.587-.943-1.642-1.971-.965-1.006.661-.04 5.606 2.765 5.422"/><path fill="#CBE9F3" d="M82.647 481.287c.072-.587.943-1.642 1.97-.965 1.007.661.04 5.606-2.765 5.422"/><path stroke="#193979" stroke-miterlimit="10" stroke-width="1.5" d="M82.647 481.287c.072-.587.943-1.642 1.97-.965 1.007.661.04 5.606-2.765 5.422"/><path fill="#CBE9F3" stroke="#193979" stroke-miterlimit="10" stroke-width="1.5" d="M82.824 477.847a20.4 20.4 0 0 1-.656 5.747c-.268.948-.584 3.856-.948 4.609-.915 1.899-3.273 4.012-5.417 4.012s-4.258-2.112-5.417-4.011c-.443-.727-.795-3.639-1.07-4.608-.638-2.243-.534-4.297-.534-5.749 0-4.405 2.957-7.337 7.017-7.337s7.025 2.932 7.025 7.337Z"/><path fill="#0F387D" stroke="#0F387D" stroke-linejoin="round" stroke-width="1.5" d="M81.587 476.916s-7.255.683-10.566-1.703c0 0-.966 4.066-2.143 6.074 0 0-1.451-6.168.662-6.986 0 0-.175-3.422 3.599-4.299 0 0-.195.853.438.828s5.66-2.922 9.247-.657c3.587 2.264.834 5.575.834 5.575s.097 3.498-.767 4.975l-.314 1.002s-.908-3.167-.99-4.809Z"/><path stroke="#1B59D3" stroke-miterlimit="10" stroke-width="1.5" d="M76.204 504.545c10.842 0 19.631-8.79 19.631-19.632s-8.789-19.631-19.63-19.631c-10.843 0-19.632 8.789-19.632 19.631s8.79 19.632 19.631 19.632Z"/><path stroke="#1B59D3" stroke-miterlimit="10" stroke-width="1.5" d="M76.204 504.545c10.842 0 19.631-8.79 19.631-19.632s-8.789-19.631-19.63-19.631c-10.843 0-19.632 8.789-19.632 19.631s8.79 19.632 19.631 19.632Z"/><path fill="#C5EBF5" fill-rule="evenodd" stroke="#0055DC" stroke-miterlimit="10" stroke-width="1.5" d="M120.241 365H32.397c-2.328 0-4.41 1.96-4.41 4.411v57.705h96.665v-57.705c0-2.451-2.083-4.411-4.411-4.411Z" clip-rule="evenodd"/><path fill="#0055DC" d="M76.258 369.288a.735.735 0 1 0 0-1.47.735.735 0 0 0 0 1.47"/><path fill="#fff" d="M128.45 431.526H24.066c-5.39 0-9.066-.857-9.066-1.592v-2.451c0-.245.245-.49.49-.49h121.414c.245 0 .49.245.49.49v2.451c.122.735-2.696 1.592-8.944 1.592"/><path stroke="#0055DC" stroke-miterlimit="10" stroke-width="1.5" d="M128.45 431.526H24.066c-5.39 0-9.066-.857-9.066-1.592v-2.451c0-.245.245-.49.49-.49h121.414c.245 0 .49.245.49.49v2.451c.122.735-2.696 1.592-8.944 1.592Z" clip-rule="evenodd"/><path fill="#C5EBF5" d="M137.516 427.483c0-.245-.245-.49-.49-.49H15.612c-.245 0-.49.245-.49.49v2.328h122.516v-2.328z"/><path stroke="#0055DC" stroke-miterlimit="10" stroke-width="1.5" d="M128.45 431.526H24.066c-5.39 0-9.066-.857-9.066-1.592v-2.451c0-.245.245-.49.49-.49h121.414c.245 0 .49.245.49.49v2.451c.122.735-2.696 1.592-8.944 1.592Z"/><path fill="#fff" d="M120.609 371.861H31.907v51.702h88.702z"/><path fill="#0055DC" fill-rule="evenodd" d="M89.612 427.238v.49c0 .368-.735.49-1.347.49H64.374c-.612 0-1.348-.122-1.348-.49v-.49" clip-rule="evenodd"/><path fill="#fff" stroke="#0055DC" stroke-miterlimit="10" stroke-width="1.5" d="M76.302 418.906c12.388 0 22.43-10.043 22.43-22.431s-10.042-22.43-22.43-22.43-22.43 10.042-22.43 22.43 10.042 22.431 22.43 22.431Z"/><path fill="#003682" d="M75.385 388.061a1 1 0 0 1 1.673 0l.318.486a1 1 0 0 0 1.42.265l.469-.336a1 1 0 0 1 1.56.603l.123.575a1 1 0 0 0 1.227.759l.561-.144a1 1 0 0 1 1.237 1.125l-.094.588a1 1 0 0 0 .869 1.15l.582.07a1 1 0 0 1 .746 1.494l-.3.519a1 1 0 0 0 .393 1.384l.525.28a1 1 0 0 1 .154 1.662l-.466.374a1 1 0 0 0-.133 1.432l.39.455a1 1 0 0 1-.457 1.605l-.564.178a1 1 0 0 0-.642 1.288l.2.564a1 1 0 0 1-1.007 1.333l-.582-.039a1 1 0 0 0-1.066.971l-.015.592a1 1 0 0 1-1.423.879l-.524-.244a1 1 0 0 0-1.346.521l-.224.539a1 1 0 0 1-1.645.307l-.4-.417a1 1 0 0 0-1.445 0l-.4.417a1 1 0 0 1-1.645-.307l-.224-.539a1 1 0 0 0-1.346-.521l-.524.244a1 1 0 0 1-1.422-.879l-.016-.592a1 1 0 0 0-1.066-.971l-.582.039a1 1 0 0 1-1.008-1.333l.2-.564a1 1 0 0 0-.641-1.288l-.564-.178a1 1 0 0 1-.457-1.605l.39-.455a1 1 0 0 0-.133-1.432l-.466-.374a1 1 0 0 1 .154-1.662l.525-.28a1 1 0 0 0 .394-1.384l-.3-.519a1 1 0 0 1 .745-1.494l.582-.07a1 1 0 0 0 .869-1.15l-.094-.588a1 1 0 0 1 1.237-1.125l.561.144a1 1 0 0 0 1.227-.759l.123-.575a1 1 0 0 1 1.56-.603l.47.336a1 1 0 0 0 1.419-.265z"/><path fill="#C5EBF5" stroke="#003682" stroke-miterlimit="10" stroke-width="1.5" d="M69.224 408.16a15.8 15.8 0 0 0 3.22-2.343v-5.92l7.799.092v5.568c.356.692 1.7 1.542 3.494 2.549 0 0-3.337 4.977-7.529 4.977-4.191 0-6.984-4.923-6.984-4.923Z"/><path fill="#0055DC" stroke="#003682" stroke-miterlimit="10" stroke-width="1.5" d="M76.303 418.906a22.35 22.35 0 0 0 15.06-5.808 35 35 0 0 0-7.583-4.953s-3.38 4.938-7.57 4.938c-4.192 0-7.007-4.875-7.007-4.875-2.573 1.451-5.729 2.816-8.094 4.763a22.35 22.35 0 0 0 15.194 5.935Z"/><path fill="#C5EBF5" stroke="#003682" stroke-miterlimit="10" stroke-width="1.5" d="M83.74 392.414a1.23 1.23 0 0 1 .615-.787 1.24 1.24 0 0 1 .996-.076c.975.294.426 3.834-2.298 3.708q.423-1.402.686-2.845Zm-14.877 0a1.27 1.27 0 0 0-1.148-.937 1.3 1.3 0 0 0-.518.074c-.85.345-.426 3.834 2.3 3.709a23 23 0 0 1-.634-2.846Z"/><path fill="#C5EBF5" stroke="#003682" stroke-miterlimit="10" stroke-width="1.5" d="M84.092 389.164c0 2.022-.74 6.14-2.04 8.626-.965 1.846-3.452 3.901-5.712 3.901s-4.491-2.055-5.712-3.9c-1.548-2.34-2.04-6.605-2.04-8.627a7.753 7.753 0 0 1 15.504 0Z"/><path fill="#003682" stroke="#003682" stroke-linejoin="round" stroke-width="1.5" d="M83.692 391.71c-.362-3.081-3.35-7.182-6.688-7.182l-.55-2.554 1.033 2.583c0 5.583-8.28 4.092-8.625 7.781l-.132-.132a22.4 22.4 0 0 1-.275-3.25c0-4.282 3.604-7.62 7.885-7.62a7.87 7.87 0 0 1 7.885 7.753 16 16 0 0 1-.436 3.157z"/><path stroke="#0055DC" stroke-miterlimit="10" stroke-width="1.5" d="M76.302 418.906c12.388 0 22.43-10.043 22.43-22.431s-10.042-22.43-22.43-22.43-22.43 10.042-22.43 22.43 10.042 22.431 22.43 22.431Z"/><path fill="#0055DC" d="M647.507 41.198H644v18.05h3.507zm91.493 0h-3.507v18.05H739z"/><path fill="#fff" stroke="#0055DC" stroke-miterlimit="10" stroke-width="1.5" d="M652.31 62.465v3.425l78.377-.004V62.46z"/><path fill="#C5EBF5" stroke="#0055DC" stroke-miterlimit="10" stroke-width="1.5" d="M735.492 38h-87.985v24.462h87.985z"/><path fill="#53BC00" d="M731.692 59.012V41.45h-80.384v17.563z"/><path fill="#0055DC" d="M657.832 46.408h-1.947v1.902h1.947zm0 5.725h-1.947v1.903h1.947zm2.667-3.016h-1.948v1.902h1.948zm2.37-2.709h-1.947v1.902h1.947zm0 5.725h-1.947v1.903h1.947zm2.52-3.016h-1.948v1.902h1.948zm2.98-2.709h-1.947v1.902h1.947zm0 5.725h-1.947v1.903h1.947zm2.519-3.016h-1.947v1.902h1.947zm3.065-2.709h-1.948v1.902h1.948zm0 5.725h-1.948v1.903h1.948zm2.371-3.016h-1.948v1.902h1.948zm2.666-2.709h-1.948v1.902h1.948zm0 5.725h-1.948v1.903h1.948zm2.224-3.016h-1.948v1.902h1.948zm2.815-2.709h-1.948v1.902h1.948zm0 5.725h-1.948v1.903h1.948zm2.075-3.016h-1.947v1.902h1.947zm39.202 3.475c1.335 0 2.418-1.057 2.418-2.361s-1.083-2.362-2.418-2.362-2.418 1.058-2.418 2.362 1.083 2.361 2.418 2.361"/><path stroke="#0055DC" stroke-miterlimit="10" stroke-width="1.5" d="M718.354 50.23h-25.606"/><path fill="#0055DC" d="M647.507 127.198H644v18.05h3.507zm91.493 0h-3.507v18.05H739z"/><path fill="#fff" stroke="#0055DC" stroke-miterlimit="10" stroke-width="1.5" d="M652.31 148.464v3.426l78.377-.004v-3.426z"/><path fill="#C5EBF5" stroke="#0055DC" stroke-miterlimit="10" stroke-width="1.5" d="M735.492 124h-87.985v24.462h87.985z"/><path fill="#53BC00" d="M731.692 145.012v-17.564h-80.384v17.564z"/><path fill="#0055DC" d="M657.832 132.408h-1.947v1.902h1.947zm0 5.725h-1.947v1.903h1.947zm2.667-3.016h-1.948v1.902h1.948zm2.37-2.709h-1.947v1.902h1.947zm0 5.725h-1.947v1.903h1.947zm2.52-3.016h-1.948v1.902h1.948zm2.98-2.709h-1.947v1.902h1.947zm0 5.725h-1.947v1.903h1.947zm2.519-3.016h-1.947v1.902h1.947zm3.065-2.709h-1.948v1.902h1.948zm0 5.725h-1.948v1.903h1.948zm2.371-3.016h-1.948v1.902h1.948zm2.666-2.709h-1.948v1.902h1.948zm0 5.725h-1.948v1.903h1.948zm2.224-3.016h-1.948v1.902h1.948zm2.815-2.709h-1.948v1.902h1.948zm0 5.725h-1.948v1.903h1.948zm2.075-3.016h-1.947v1.902h1.947zm39.202 3.475c1.335 0 2.418-1.057 2.418-2.361s-1.083-2.362-2.418-2.362-2.418 1.058-2.418 2.362 1.083 2.361 2.418 2.361"/><path stroke="#0055DC" stroke-miterlimit="10" stroke-width="1.5" d="M718.354 136.231h-25.606"/><path fill="#0055DC" d="M647.507 557.198H644v18.05h3.507zm91.493 0h-3.507v18.05H739z"/><path fill="#fff" stroke="#0055DC" stroke-miterlimit="10" stroke-width="1.5" d="M652.31 578.464v3.426l78.377-.004v-3.426z"/><path fill="#C5EBF5" stroke="#0055DC" stroke-miterlimit="10" stroke-width="1.5" d="M735.492 554h-87.985v24.462h87.985z"/><path fill="#53BC00" d="M731.692 575.012v-17.564h-80.384v17.564z"/><path fill="#0055DC" d="M657.832 562.408h-1.947v1.902h1.947zm0 5.725h-1.947v1.903h1.947zm2.667-3.016h-1.948v1.902h1.948zm2.37-2.709h-1.947v1.902h1.947zm0 5.725h-1.947v1.903h1.947zm2.52-3.016h-1.948v1.902h1.948zm2.98-2.709h-1.947v1.902h1.947zm0 5.725h-1.947v1.903h1.947zm2.519-3.016h-1.947v1.902h1.947zm3.065-2.709h-1.948v1.902h1.948zm0 5.725h-1.948v1.903h1.948zm2.371-3.016h-1.948v1.902h1.948zm2.666-2.709h-1.948v1.902h1.948zm0 5.725h-1.948v1.903h1.948zm2.224-3.016h-1.948v1.902h1.948zm2.815-2.709h-1.948v1.902h1.948zm0 5.725h-1.948v1.903h1.948zm2.075-3.016h-1.947v1.902h1.947zm39.202 3.475c1.335 0 2.418-1.057 2.418-2.361s-1.083-2.362-2.418-2.362-2.418 1.058-2.418 2.362 1.083 2.361 2.418 2.361"/><path stroke="#0055DC" stroke-miterlimit="10" stroke-width="1.5" d="M718.354 566.231h-25.606"/><path fill="#0055DC" d="M649.507 215.198H646v18.05h3.507zm91.493 0h-3.507v18.05H741z"/><path fill="#fff" stroke="#0055DC" stroke-miterlimit="10" stroke-width="1.5" d="M654.31 236.464v3.426l78.377-.004v-3.426z"/><path fill="#C5EBF5" stroke="#0055DC" stroke-miterlimit="10" stroke-width="1.5" d="M737.492 212h-87.985v24.462h87.985z"/><path fill="#53BC00" d="M733.692 233.012v-17.564h-80.384v17.564z"/><path fill="#0055DC" d="M659.832 220.408h-1.947v1.902h1.947zm0 5.725h-1.947v1.903h1.947zm2.667-3.016h-1.948v1.902h1.948zm2.37-2.709h-1.947v1.902h1.947zm0 5.725h-1.947v1.903h1.947zm2.52-3.016h-1.948v1.902h1.948zm2.98-2.709h-1.947v1.902h1.947zm0 5.725h-1.947v1.903h1.947zm2.519-3.016h-1.947v1.902h1.947zm3.065-2.709h-1.948v1.902h1.948zm0 5.725h-1.948v1.903h1.948zm2.371-3.016h-1.948v1.902h1.948zm2.666-2.709h-1.948v1.902h1.948zm0 5.725h-1.948v1.903h1.948zm2.224-3.016h-1.948v1.902h1.948zm2.815-2.709h-1.948v1.902h1.948zm0 5.725h-1.948v1.903h1.948zm2.075-3.016h-1.947v1.902h1.947zm39.202 3.475c1.335 0 2.418-1.057 2.418-2.361s-1.083-2.362-2.418-2.362-2.418 1.058-2.418 2.362 1.083 2.361 2.418 2.361"/><path stroke="#0055DC" stroke-miterlimit="10" stroke-width="1.5" d="M720.354 224.231h-25.606"/><path fill="#0055DC" d="M647.507 301.198H644v18.05h3.507zm91.493 0h-3.507v18.05H739z"/><path fill="#fff" stroke="#0055DC" stroke-miterlimit="10" stroke-width="1.5" d="M652.31 322.464v3.426l78.377-.004v-3.426z"/><path fill="#C5EBF5" stroke="#0055DC" stroke-miterlimit="10" stroke-width="1.5" d="M735.492 298h-87.985v24.462h87.985z"/><path fill="#53BC00" d="M731.692 319.012v-17.564h-80.384v17.564z"/><path fill="#0055DC" d="M657.832 306.408h-1.947v1.902h1.947zm0 5.725h-1.947v1.903h1.947zm2.667-3.016h-1.948v1.902h1.948zm2.37-2.709h-1.947v1.902h1.947zm0 5.725h-1.947v1.903h1.947zm2.52-3.016h-1.948v1.902h1.948zm2.98-2.709h-1.947v1.902h1.947zm0 5.725h-1.947v1.903h1.947zm2.519-3.016h-1.947v1.902h1.947zm3.065-2.709h-1.948v1.902h1.948zm0 5.725h-1.948v1.903h1.948zm2.371-3.016h-1.948v1.902h1.948zm2.666-2.709h-1.948v1.902h1.948zm0 5.725h-1.948v1.903h1.948zm2.224-3.016h-1.948v1.902h1.948zm2.815-2.709h-1.948v1.902h1.948zm0 5.725h-1.948v1.903h1.948zm2.075-3.016h-1.947v1.902h1.947zm39.202 3.475c1.335 0 2.418-1.057 2.418-2.361s-1.083-2.362-2.418-2.362-2.418 1.058-2.418 2.362 1.083 2.361 2.418 2.361"/><path stroke="#0055DC" stroke-miterlimit="10" stroke-width="1.5" d="M718.354 310.231h-25.606"/><path fill="#0055DC" d="M647.507 387.198H644v18.05h3.507zm91.493 0h-3.507v18.05H739z"/><path fill="#fff" stroke="#0055DC" stroke-miterlimit="10" stroke-width="1.5" d="M652.31 408.464v3.426l78.377-.004v-3.426z"/><path fill="#C5EBF5" stroke="#0055DC" stroke-miterlimit="10" stroke-width="1.5" d="M735.492 384h-87.985v24.462h87.985z"/><path fill="#53BC00" d="M731.692 405.012v-17.564h-80.384v17.564z"/><path fill="#0055DC" d="M657.832 392.408h-1.947v1.902h1.947zm0 5.725h-1.947v1.903h1.947zm2.667-3.016h-1.948v1.902h1.948zm2.37-2.709h-1.947v1.902h1.947zm0 5.725h-1.947v1.903h1.947zm2.52-3.016h-1.948v1.902h1.948zm2.98-2.709h-1.947v1.902h1.947zm0 5.725h-1.947v1.903h1.947zm2.519-3.016h-1.947v1.902h1.947zm3.065-2.709h-1.948v1.902h1.948zm0 5.725h-1.948v1.903h1.948zm2.371-3.016h-1.948v1.902h1.948zm2.666-2.709h-1.948v1.902h1.948zm0 5.725h-1.948v1.903h1.948zm2.224-3.016h-1.948v1.902h1.948zm2.815-2.709h-1.948v1.902h1.948zm0 5.725h-1.948v1.903h1.948zm2.075-3.016h-1.947v1.902h1.947zm39.202 3.475c1.335 0 2.418-1.057 2.418-2.361s-1.083-2.362-2.418-2.362-2.418 1.058-2.418 2.362 1.083 2.361 2.418 2.361"/><path stroke="#0055DC" stroke-miterlimit="10" stroke-width="1.5" d="M718.354 396.231h-25.606"/><path fill="#0055DC" d="M647.507 471.198H644v18.05h3.507zm91.493 0h-3.507v18.05H739z"/><path fill="#fff" stroke="#0055DC" stroke-miterlimit="10" stroke-width="1.5" d="M652.31 492.464v3.426l78.377-.004v-3.426z"/><path fill="#C5EBF5" stroke="#0055DC" stroke-miterlimit="10" stroke-width="1.5" d="M735.492 468h-87.985v24.462h87.985z"/><path fill="#53BC00" d="M731.692 489.012v-17.564h-80.384v17.564z"/><path fill="#0055DC" d="M657.832 476.408h-1.947v1.902h1.947zm0 5.725h-1.947v1.903h1.947zm2.667-3.016h-1.948v1.902h1.948zm2.37-2.709h-1.947v1.902h1.947zm0 5.725h-1.947v1.903h1.947zm2.52-3.016h-1.948v1.902h1.948zm2.98-2.709h-1.947v1.902h1.947zm0 5.725h-1.947v1.903h1.947zm2.519-3.016h-1.947v1.902h1.947zm3.065-2.709h-1.948v1.902h1.948zm0 5.725h-1.948v1.903h1.948zm2.371-3.016h-1.948v1.902h1.948zm2.666-2.709h-1.948v1.902h1.948zm0 5.725h-1.948v1.903h1.948zm2.224-3.016h-1.948v1.902h1.948zm2.815-2.709h-1.948v1.902h1.948zm0 5.725h-1.948v1.903h1.948zm2.075-3.016h-1.947v1.902h1.947zm39.202 3.475c1.335 0 2.418-1.057 2.418-2.361s-1.083-2.362-2.418-2.362-2.418 1.058-2.418 2.362 1.083 2.361 2.418 2.361"/><path stroke="#0055DC" stroke-miterlimit="10" stroke-width="1.5" d="M718.354 480.231h-25.606"/><path fill="#fff" stroke="#F6821F" stroke-width="2" d="M323 296h138v34H323z"/><path fill="#222" d="M338.965 318v-11.636h2.46v9.608h4.989V318zm12.8.17q-1.324 0-2.29-.562a3.85 3.85 0 0 1-1.483-1.58q-.523-1.017-.523-2.358 0-1.352.523-2.363a3.8 3.8 0 0 1 1.483-1.58q.966-.568 2.29-.568t2.284.568q.966.563 1.489 1.58.522 1.011.522 2.363 0 1.341-.522 2.358a3.84 3.84 0 0 1-1.489 1.58q-.96.562-2.284.562m.011-1.875q.603 0 1.006-.34.404-.348.608-.944.21-.596.21-1.358 0-.76-.21-1.358-.204-.596-.608-.943-.403-.346-1.006-.346-.608 0-1.022.346-.41.347-.62.943a4.2 4.2 0 0 0-.204 1.358q0 .762.204 1.358.21.597.62.944.414.34 1.022.34m8.171 1.87q-.835 0-1.489-.29a2.4 2.4 0 0 1-1.034-.869q-.375-.58-.375-1.444 0-.727.267-1.221t.727-.796q.46-.3 1.046-.454a8 8 0 0 1 1.239-.216q.76-.08 1.227-.148.466-.073.676-.216a.47.47 0 0 0 .21-.42v-.034q0-.54-.341-.835-.334-.296-.954-.296-.653 0-1.04.29a1.33 1.33 0 0 0-.511.716l-2.239-.182q.17-.795.67-1.375.501-.585 1.29-.898.796-.318 1.841-.318.728 0 1.392.171.67.17 1.188.528.522.358.824.92.3.558.301 1.336V318h-2.296v-1.21h-.068q-.21.408-.562.721a2.6 2.6 0 0 1-.847.483 3.5 3.5 0 0 1-1.142.171m.693-1.671q.534 0 .943-.21a1.67 1.67 0 0 0 .642-.579q.233-.365.233-.824v-.926q-.113.073-.312.136a6 6 0 0 1-.438.108q-.244.046-.488.085l-.444.063a3 3 0 0 0-.744.198 1.2 1.2 0 0 0-.494.37.9.9 0 0 0-.176.568q0 .493.358.756.363.255.92.255m9.139 1.648q-.993 0-1.801-.511-.801-.518-1.272-1.517-.466-1.007-.466-2.466 0-1.5.483-2.495.483-.999 1.284-1.494a3.3 3.3 0 0 1 1.767-.5q.733 0 1.221.25.495.245.796.614.307.363.466.716h.074v-4.375h2.414V318h-2.386v-1.398h-.102a3.1 3.1 0 0 1-.483.722q-.308.353-.801.585-.489.233-1.194.233m.767-1.926q.586 0 .989-.318.41-.324.625-.904.222-.58.222-1.358t-.216-1.352-.625-.886-.995-.313q-.595 0-1.005.324t-.62.898-.21 1.329q0 .762.21 1.347.216.579.62.909.41.324 1.005.324m9.586 1.784v-11.636h4.659q1.284 0 2.142.38t1.29 1.057q.432.67.432 1.546 0 .682-.273 1.198a2.35 2.35 0 0 1-.75.841 3.1 3.1 0 0 1-1.08.461v.113a2.66 2.66 0 0 1 2.194 1.347q.363.62.363 1.477 0 .927-.46 1.654-.454.721-1.347 1.142-.891.42-2.198.42zm2.46-2.011h2.006q1.028 0 1.5-.392.471-.399.471-1.057 0-.483-.232-.852a1.6 1.6 0 0 0-.665-.58q-.426-.21-1.017-.21h-2.063zm0-4.756h1.824q.505 0 .898-.176.397-.182.625-.512.233-.33.233-.789 0-.631-.449-1.017-.444-.387-1.261-.387h-1.87zm10.385 6.932q-.836 0-1.488-.29a2.4 2.4 0 0 1-1.034-.869q-.375-.58-.375-1.444 0-.727.267-1.221t.727-.796a3.5 3.5 0 0 1 1.045-.454 8 8 0 0 1 1.239-.216q.762-.08 1.227-.148.466-.073.676-.216a.47.47 0 0 0 .211-.42v-.034q0-.54-.341-.835-.336-.296-.955-.296-.653 0-1.04.29a1.33 1.33 0 0 0-.511.716l-2.239-.182a3.04 3.04 0 0 1 .671-1.375q.5-.585 1.29-.898.795-.318 1.841-.318.726 0 1.392.171a3.6 3.6 0 0 1 1.187.528q.523.358.824.92.301.558.301 1.336V318h-2.295v-1.21h-.069q-.21.408-.562.721a2.6 2.6 0 0 1-.847.483q-.494.171-1.142.171m.693-1.671q.535 0 .944-.21.408-.216.642-.579a1.5 1.5 0 0 0 .233-.824v-.926q-.114.073-.313.136a6 6 0 0 1-.437.108q-.245.046-.489.085l-.443.063a3 3 0 0 0-.744.198 1.2 1.2 0 0 0-.495.37.9.9 0 0 0-.176.568q0 .493.358.756.363.255.92.255m8.344-10.13V318h-2.42v-11.636zm4.252 11.801q-.835 0-1.489-.29a2.4 2.4 0 0 1-1.034-.869q-.375-.58-.375-1.444 0-.727.267-1.221t.727-.796q.46-.3 1.046-.454a8 8 0 0 1 1.239-.216q.76-.08 1.227-.148.466-.073.676-.216a.47.47 0 0 0 .21-.42v-.034q0-.54-.341-.835-.334-.296-.954-.296-.653 0-1.04.29a1.33 1.33 0 0 0-.511.716l-2.239-.182q.17-.795.67-1.375.501-.585 1.29-.898.796-.318 1.841-.318.728 0 1.392.171.67.17 1.188.528.522.358.824.92.3.558.301 1.336V318h-2.296v-1.21h-.068q-.21.408-.562.721a2.6 2.6 0 0 1-.847.483 3.5 3.5 0 0 1-1.142.171m.693-1.671q.534 0 .943-.21a1.67 1.67 0 0 0 .642-.579q.233-.365.233-.824v-.926q-.113.073-.312.136a6 6 0 0 1-.438.108q-.244.046-.488.085l-.444.063a3 3 0 0 0-.744.198 1.2 1.2 0 0 0-.494.37.9.9 0 0 0-.176.568q0 .493.358.756.363.255.92.255m8.344-3.539V318h-2.42v-8.727h2.306v1.539h.103q.29-.761.971-1.204.682-.449 1.654-.449.909 0 1.585.398t1.051 1.136q.375.733.375 1.75V318h-2.42v-5.125q.005-.801-.41-1.25-.414-.455-1.142-.455-.488 0-.863.211-.37.21-.58.613-.204.398-.21.961m11.3 5.215q-1.341 0-2.307-.568a3.83 3.83 0 0 1-1.477-1.591q-.512-1.017-.512-2.341 0-1.34.517-2.352a3.85 3.85 0 0 1 1.483-1.585q.961-.574 2.284-.574 1.142 0 2 .415a3.34 3.34 0 0 1 1.358 1.165q.5.75.552 1.761h-2.285q-.096-.654-.511-1.051-.41-.404-1.074-.404-.562 0-.983.307-.414.302-.647.881-.234.58-.233 1.403 0 .836.227 1.421.233.585.653.892.421.306.983.307.415 0 .745-.171.335-.17.551-.494.221-.33.289-.79h2.285q-.057 1-.546 1.761a3.3 3.3 0 0 1-1.335 1.182q-.852.426-2.017.426m9.249 0q-1.347 0-2.319-.545a3.73 3.73 0 0 1-1.488-1.557q-.523-1.01-.523-2.392 0-1.346.523-2.364a3.86 3.86 0 0 1 1.471-1.585q.955-.568 2.239-.568.864 0 1.608.279.75.272 1.307.823.562.552.875 1.387.312.829.312 1.943v.665h-7.369v-1.5h5.091q0-.524-.227-.926a1.63 1.63 0 0 0-.631-.631 1.8 1.8 0 0 0-.926-.233 1.86 1.86 0 0 0-.978.256q-.42.25-.659.676-.238.42-.244.937v1.426q0 .648.239 1.12.245.472.687.727.444.255 1.051.256.403 0 .739-.114t.574-.341.363-.557l2.239.148a3.06 3.06 0 0 1-.699 1.409q-.522.597-1.352.932-.824.33-1.903.329m5.409-.17v-8.727h2.346v1.522h.091q.238-.811.801-1.227.563-.42 1.296-.42.182 0 .392.022.21.023.369.063v2.148a3 3 0 0 0-.471-.091 4 4 0 0 0-.552-.04q-.534 0-.954.233a1.7 1.7 0 0 0-.659.636 1.84 1.84 0 0 0-.239.943V318z"/><path fill="#5E5E5E" d="M458.414 311.603a1.5 1.5 0 1 0-2.405 1.794zm-2.405 1.794L644.526 566.24l2.405-1.793-188.517-252.844zM125.606 50.384a1.5 1.5 0 0 0-2.374 1.834zm-2.374 1.834L325.01 313.417l2.374-1.834L125.606 50.384z"/><path fill="#5E5E5E" d="M120.336 571.195a1.5 1.5 0 1 0 2.352 1.862zm2.352 1.862 205.536-259.626-2.352-1.862-205.536 259.626z"/><path fill="#5E5E5E" d="M124.407 484.268a1.5 1.5 0 1 0 1.962 2.269zm1.962 2.269 199.959-172.902-1.963-2.27-199.958 172.903zM458.484 311a1.5 1.5 0 0 0 .032 3zm.032 3 187.228-1.998-.032-2.999L458.484 311z"/><path fill="#5E5E5E" d="M125.41 308.034a1.5 1.5 0 1 0-.044 2.999zm-.044 2.999L325.75 314l.044-3-200.384-2.966z"/><path fill="#5E5E5E" d="M124.053 222.89a1.5 1.5 0 0 0-1.206 2.747zm-1.206 2.747 201.046 88.237 1.205-2.748-201.045-88.236z"/><path fill="#5E5E5E" d="M127.832 136.898a1.5 1.5 0 0 0-1.981 2.253zm-1.981 2.253 198.505 174.476 1.981-2.254-198.505-174.475zm333.638 172.233a1.5 1.5 0 1 0-2.003 2.232zm-2.003 2.232L644.242 481.19l2.003-2.233-186.756-167.573z"/><path fill="#5E5E5E" d="M123.839 395.358a1.5 1.5 0 0 0 1.16 2.767zm1.16 2.767 200.927-84.242-1.16-2.766-200.927 84.241zm332.85-86.982a1.499 1.499 0 1 0 1.277 2.714zm1.277 2.714 188.694-88.721-1.277-2.714-188.694 88.721z"/><path fill="#5E5E5E" d="M456.417 311.627a1.5 1.5 0 0 0 2.439 1.746zm2.439 1.746L646.463 51.205l-2.439-1.746-187.607 262.168z"/><path fill="#5E5E5E" d="M457.457 311.41a1.5 1.5 0 1 0 2.06 2.18zm2.06 2.18 186.757-176.413-2.06-2.181L457.457 311.41z"/><path fill="#5E5E5E" d="M459.957 311.134a1.5 1.5 0 1 0-1.238 2.732zm-1.238 2.732 186.874 84.726 1.239-2.732-186.875-84.726z"/><defs><linearGradient id="paint0_linear_269_395" x1="825" x2="825" y1="38" y2="583" gradientUnits="userSpaceOnUse"><stop stop-color="#DC0000"/><stop offset=".498" stop-color="#DCDC00"/><stop offset="1" stop-color="#00A800"/></linearGradient></defs></svg>