<svg xmlns="http://www.w3.org/2000/svg" width="1182" height="212" fill="none" viewBox="0 0 1182 212"><path fill="#fff" d="M0 0h1182v212H0z"/><path fill="#fff" stroke="#269B7F" stroke-width="2" d="M1044 19h117.875v71H1044z"/><path fill="#222" d="M1073.91 41.508v-8.727h5.88v1.521h-4.03v2.08h3.73v1.521h-3.73v2.084h4.05v1.521zm9-3.784v3.784h-1.82v-6.545h1.73v1.155h.08c.14-.381.39-.682.73-.904.34-.224.75-.336 1.24-.336.45 0 .85.1 1.19.298.33.199.6.483.78.852.19.367.29.804.29 1.313v4.167h-1.82v-3.843c0-.401-.1-.713-.31-.938-.2-.227-.49-.34-.85-.34-.25 0-.46.052-.65.157s-.33.258-.44.46q-.15.298-.15.72m7.93 3.89q-.75 0-1.35-.383-.6-.388-.96-1.138c-.23-.502-.35-1.119-.35-1.849q0-1.125.36-1.87c.25-.5.57-.874.97-1.121q.6-.375 1.32-.375c.37 0 .67.062.92.187.25.122.44.276.59.46.16.182.27.361.35.537h.06v-3.281h1.81v8.727h-1.79V40.46h-.08q-.12.273-.36.541-.225.264-.6.44c-.24.116-.54.174-.89.174m.57-1.444c.29 0 .54-.08.74-.238.21-.162.36-.388.47-.678s.17-.63.17-1.018c0-.39-.06-.728-.16-1.015a1.5 1.5 0 0 0-.47-.664 1.22 1.22 0 0 0-.75-.235q-.45 0-.75.243c-.21.162-.36.387-.47.673q-.15.43-.15.998 0 .57.15 1.01c.11.29.27.517.47.681q.3.243.75.243m4.51 3.793v-9h1.79v1.1h.08c.08-.177.2-.356.35-.538.15-.184.35-.338.59-.46.25-.125.56-.187.92-.187.48 0 .92.125 1.33.375q.6.37.96 1.12.36.746.36 1.871c0 .73-.11 1.347-.35 1.85-.23.5-.55.879-.95 1.137q-.6.384-1.35.384-.525 0-.9-.175a2 2 0 0 1-.6-.439q-.24-.269-.36-.541h-.05v3.503zm1.78-5.727c0 .389.05.728.16 1.018s.26.516.47.678c.2.159.45.238.74.238q.45 0 .75-.243c.21-.164.36-.392.47-.681.11-.293.16-.63.16-1.01 0-.378-.05-.71-.16-.998-.1-.286-.26-.51-.46-.673a1.2 1.2 0 0 0-.76-.243q-.435 0-.75.235c-.2.156-.35.377-.46.664s-.16.625-.16 1.015m8.64 3.4c-.66 0-1.23-.14-1.72-.422a2.87 2.87 0 0 1-1.11-1.184q-.39-.763-.39-1.769 0-1.014.39-1.773a2.84 2.84 0 0 1 1.11-1.184c.49-.284 1.06-.426 1.72-.426q.99 0 1.71.426a2.8 2.8 0 0 1 1.12 1.184q.39.759.39 1.773 0 1.005-.39 1.769c-.26.505-.63.9-1.12 1.184q-.72.422-1.71.422m.01-1.406q.45 0 .75-.256c.21-.173.36-.409.46-.707.1-.299.16-.638.16-1.019s-.06-.72-.16-1.018-.25-.534-.46-.707q-.3-.26-.75-.26c-.3 0-.56.086-.77.26-.2.173-.36.409-.46.707s-.16.638-.16 1.018c0 .381.06.72.16 1.019s.26.534.46.707c.21.17.47.256.77.256m4.26 1.278v-6.545h1.82v6.545zm.91-7.389a.97.97 0 0 1-.69-.268.88.88 0 0 1-.29-.652c0-.25.1-.465.29-.644a.96.96 0 0 1 .69-.273q.405 0 .69.273c.2.18.29.394.29.644 0 .253-.09.47-.29.652a.97.97 0 0 1-.69.268m4.04 3.605v3.784h-1.81v-6.545h1.73v1.155h.07c.15-.381.39-.682.73-.904.34-.224.76-.336 1.24-.336.46 0 .85.1 1.19.298.34.199.6.483.79.852.19.367.28.804.28 1.313v4.167h-1.81v-3.843c0-.401-.1-.713-.31-.938-.21-.227-.49-.34-.86-.34-.24 0-.46.052-.64.157-.19.105-.33.258-.44.46-.1.199-.15.439-.16.72m9-2.761v1.364h-3.94v-1.364zm-3.04-1.568h1.81v6.102c0 .168.03.298.08.392q.075.136.21.192c.09.037.2.055.32.055.09 0 .18-.007.26-.021.09-.017.15-.03.2-.038l.28 1.35c-.09.029-.22.061-.38.098q-.255.06-.6.073c-.44.017-.82-.041-1.15-.175s-.58-.34-.77-.622c-.18-.281-.27-.636-.26-1.065zm10.52-.614v8.727h-1.85v-6.976h-.05l-2 1.253V34.15l2.16-1.368z"/><path fill="#0055DC" d="M1058.51 55.198H1055v18.05h3.51zm91.49 0h-3.51v18.05h3.51z"/><path fill="#fff" stroke="#0055DC" stroke-miterlimit="10" stroke-width="1.5" d="M1063.31 76.464v3.426l78.38-.005V76.46z"/><path fill="#C5EBF5" stroke="#0055DC" stroke-miterlimit="10" stroke-width="1.5" d="M1146.49 52h-87.98v24.462h87.98z"/><path fill="#fff" d="M1142.69 73.012V55.448h-80.38v17.564z"/><path fill="#0055DC" d="M1068.83 60.408h-1.95v1.902h1.95zm0 5.725h-1.95v1.903h1.95zm2.67-3.016h-1.95v1.902h1.95zm2.37-2.709h-1.95v1.902h1.95zm0 5.725h-1.95v1.903h1.95zm2.52-3.016h-1.95v1.902h1.95zm2.98-2.709h-1.95v1.902h1.95zm0 5.725h-1.95v1.903h1.95zm2.52-3.016h-1.95v1.902h1.95zm3.06-2.709h-1.94v1.902h1.94zm0 5.725h-1.94v1.903h1.94zm2.37-3.016h-1.94v1.902h1.94zm2.67-2.709h-1.95v1.902h1.95zm0 5.725h-1.95v1.903h1.95zm2.22-3.016h-1.94v1.902h1.94zm2.82-2.709h-1.95v1.902h1.95zm0 5.725h-1.95v1.903h1.95zm2.07-3.016h-1.94v1.902h1.94zm39.21 3.475c1.33 0 2.41-1.057 2.41-2.361s-1.08-2.362-2.41-2.362c-1.34 0-2.42 1.057-2.42 2.362 0 1.304 1.08 2.361 2.42 2.361"/><path stroke="#0055DC" stroke-miterlimit="10" stroke-width="1.5" d="M1129.35 64.23h-25.6"/><path fill="#fff" stroke="#F6821F" stroke-width="2" d="M296 106h384v37H296z"/><path fill="#222" d="M51.971 102v-8.727h3.444q.988 0 1.687.353a2.45 2.45 0 0 1 1.07.993q.37.64.37 1.505 0 .87-.375 1.495-.375.622-1.086.955-.708.333-1.713.332h-2.306v-1.483h2.007q.529 0 .878-.145.35-.144.52-.434.175-.29.175-.72 0-.435-.175-.733a1.07 1.07 0 0 0-.524-.452q-.35-.158-.882-.158h-1.244V102zm4.714-3.972L58.853 102h-2.036l-2.123-3.972zm6.005 4.1q-1.01 0-1.739-.409a2.8 2.8 0 0 1-1.116-1.168q-.393-.759-.392-1.794 0-1.01.392-1.773t1.103-1.188q.716-.427 1.68-.427.647 0 1.205.21.563.204.98.617.422.413.657 1.04.234.622.234 1.457v.499h-5.527v-1.125h3.818a1.4 1.4 0 0 0-.17-.695 1.2 1.2 0 0 0-.473-.473 1.35 1.35 0 0 0-.695-.175q-.413 0-.733.192-.315.188-.494.507-.18.316-.183.703v1.07q0 .486.179.84.183.353.515.545.333.192.789.192.302 0 .554-.085.25-.086.43-.256t.273-.418l1.679.111q-.129.605-.524 1.057a2.64 2.64 0 0 1-1.015.699q-.617.246-1.427.247m8.514 2.327v-3.503h-.055a2.3 2.3 0 0 1-.363.541 1.8 1.8 0 0 1-.6.439q-.367.175-.895.175-.747 0-1.351-.384-.6-.388-.955-1.138-.35-.755-.35-1.85 0-1.125.363-1.87.363-.75.963-1.12.605-.376 1.325-.376.55 0 .917.188.37.183.596.46.23.272.35.537h.076v-1.1h1.79v9.001zm-1.338-3.793q.44 0 .741-.239a1.5 1.5 0 0 0 .47-.677q.165-.435.165-1.019t-.162-1.014a1.46 1.46 0 0 0-.468-.665 1.2 1.2 0 0 0-.746-.234q-.448 0-.754.243-.307.243-.465.673-.157.431-.157.997 0 .572.157 1.01.162.435.465.682.306.243.754.243m8.804-1.449v-3.758h1.815V102h-1.743v-1.189h-.068a1.93 1.93 0 0 1-.737.925q-.51.35-1.249.349-.656 0-1.154-.298a2.06 2.06 0 0 1-.78-.848q-.277-.55-.282-1.317v-4.168h1.816v3.844q.004.58.31.916.308.337.823.337.33 0 .614-.149a1.17 1.17 0 0 0 .46-.452q.18-.298.175-.737m6.25 2.915q-1.01 0-1.738-.409a2.8 2.8 0 0 1-1.117-1.168q-.392-.759-.392-1.794 0-1.01.392-1.773t1.104-1.188q.716-.427 1.679-.427.648 0 1.206.21.562.204.98.617.422.413.656 1.04.234.622.234 1.457v.499h-5.527v-1.125h3.819a1.4 1.4 0 0 0-.17-.695 1.2 1.2 0 0 0-.474-.473 1.35 1.35 0 0 0-.694-.175q-.414 0-.733.192-.315.188-.495.507-.178.316-.183.703v1.07q0 .486.18.84.182.353.515.545.332.192.788.192.302 0 .554-.085t.43-.256q.18-.17.273-.418l1.68.111q-.128.605-.525 1.057-.392.447-1.014.699-.618.246-1.428.247m9.635-4.807-1.662.102a.86.86 0 0 0-.183-.383 1 1 0 0 0-.37-.277 1.3 1.3 0 0 0-.542-.107q-.421 0-.712.18-.29.174-.29.468 0 .234.188.396t.644.26l1.184.239q.955.195 1.424.63t.468 1.143q0 .643-.379 1.129-.375.486-1.031.758-.652.269-1.504.269-1.3 0-2.071-.541a2.1 2.1 0 0 1-.9-1.483l1.786-.094a.92.92 0 0 0 .392.605q.31.204.797.205.477 0 .767-.184.294-.187.298-.481a.5.5 0 0 0-.209-.405q-.204-.162-.63-.247l-1.134-.226q-.959-.192-1.427-.665-.465-.472-.465-1.206 0-.63.341-1.086.346-.457.967-.703.627-.248 1.466-.248 1.24 0 1.952.525.716.524.835 1.427m4.774-1.867v1.364h-3.942v-1.364zm-3.047-1.568h1.816v6.103a.8.8 0 0 0 .076.392.42.42 0 0 0 .213.191.9.9 0 0 0 .324.056q.127 0 .256-.021l.196-.039.285 1.351q-.135.042-.383.098-.247.06-.601.072-.656.026-1.15-.174a1.6 1.6 0 0 1-.763-.622q-.273-.423-.269-1.066z"/><path fill="#C5EBF5" fill-rule="evenodd" stroke="#0055DC" stroke-miterlimit="10" stroke-width="1.5" d="M120.241 21H32.397c-2.328 0-4.41 1.96-4.41 4.41v57.706h96.665V25.41c0-2.45-2.083-4.411-4.411-4.411Z" clip-rule="evenodd"/><path fill="#0055DC" d="M76.258 25.288a.735.735 0 1 0 0-1.47.735.735 0 0 0 0 1.47"/><path fill="#fff" d="M128.45 87.526H24.066c-5.39 0-9.066-.857-9.066-1.592v-2.45c0-.246.245-.49.49-.49h121.414c.245 0 .49.244.49.49v2.45c.122.735-2.696 1.592-8.944 1.592"/><path stroke="#0055DC" stroke-miterlimit="10" stroke-width="1.5" d="M128.45 87.526H24.066c-5.39 0-9.066-.857-9.066-1.592v-2.45c0-.246.245-.49.49-.49h121.414c.245 0 .49.244.49.49v2.45c.122.735-2.696 1.592-8.944 1.592Z" clip-rule="evenodd"/><path fill="#C5EBF5" d="M137.516 83.483c0-.245-.245-.49-.49-.49H15.612c-.245 0-.49.245-.49.49v2.328h122.516v-2.328z"/><path stroke="#0055DC" stroke-miterlimit="10" stroke-width="1.5" d="M128.45 87.526H24.066c-5.39 0-9.066-.857-9.066-1.592v-2.45c0-.246.245-.49.49-.49h121.414c.245 0 .49.244.49.49v2.45c.122.735-2.696 1.592-8.944 1.592Z"/><path fill="#fff" d="M120.609 27.86H31.907v51.703h88.702z"/><path fill="#0055DC" fill-rule="evenodd" d="M89.612 83.238v.49c0 .368-.735.49-1.347.49H64.374c-.612 0-1.348-.122-1.348-.49v-.49" clip-rule="evenodd"/><path fill="#fff" stroke="#0055DC" stroke-miterlimit="10" stroke-width="1.5" d="M76.302 74.906c12.388 0 22.43-10.043 22.43-22.43 0-12.389-10.042-22.431-22.43-22.431s-22.43 10.042-22.43 22.43 10.042 22.43 22.43 22.43Z"/><path fill="#003682" d="M75.385 44.06a1 1 0 0 1 1.673 0l.318.486a1 1 0 0 0 1.42.266l.469-.337a1 1 0 0 1 1.56.604l.123.575a1 1 0 0 0 1.227.759l.561-.144a1 1 0 0 1 1.237 1.125l-.094.588a1 1 0 0 0 .869 1.15l.582.07a1 1 0 0 1 .746 1.494l-.3.519a1 1 0 0 0 .393 1.383l.525.28a1 1 0 0 1 .154 1.663l-.466.374a1 1 0 0 0-.133 1.432l.39.454a1 1 0 0 1-.457 1.606l-.564.178a1 1 0 0 0-.642 1.288l.2.564a1 1 0 0 1-1.007 1.333l-.582-.039a1 1 0 0 0-1.066.971l-.015.592a1 1 0 0 1-1.423.88l-.524-.245a1 1 0 0 0-1.346.521l-.224.539a1 1 0 0 1-1.645.307l-.4-.418a1 1 0 0 0-1.445 0l-.4.418a1 1 0 0 1-1.645-.307l-.224-.539a1 1 0 0 0-1.346-.521l-.524.244a1 1 0 0 1-1.422-.88l-.016-.59a1 1 0 0 0-1.066-.972l-.582.038a1 1 0 0 1-1.008-1.332l.2-.564a1 1 0 0 0-.641-1.288l-.564-.178a1 1 0 0 1-.457-1.605l.39-.455a1 1 0 0 0-.133-1.432l-.466-.374a1 1 0 0 1 .154-1.662l.525-.28a1 1 0 0 0 .394-1.384l-.3-.519a1 1 0 0 1 .745-1.494l.582-.07a1 1 0 0 0 .869-1.15l-.094-.588a1 1 0 0 1 1.237-1.125l.561.144a1 1 0 0 0 1.227-.76l.123-.574a1 1 0 0 1 1.56-.604l.47.337a1 1 0 0 0 1.419-.265z"/><path fill="#C5EBF5" stroke="#003682" stroke-miterlimit="10" stroke-width="1.5" d="M69.224 64.16a15.8 15.8 0 0 0 3.22-2.343v-5.92l7.799.092v5.569c.356.691 1.7 1.541 3.494 2.548 0 0-3.337 4.978-7.529 4.978-4.191 0-6.984-4.924-6.984-4.924Z"/><path fill="#0055DC" stroke="#003682" stroke-miterlimit="10" stroke-width="1.5" d="M76.303 74.906a22.35 22.35 0 0 0 15.06-5.808 35 35 0 0 0-7.583-4.953s-3.38 4.938-7.57 4.938c-4.192 0-7.007-4.875-7.007-4.875-2.573 1.45-5.729 2.816-8.094 4.763a22.35 22.35 0 0 0 15.194 5.935Z"/><path fill="#C5EBF5" stroke="#003682" stroke-miterlimit="10" stroke-width="1.5" d="M83.74 48.414a1.24 1.24 0 0 1 1.611-.863c.975.294.426 3.834-2.298 3.708q.423-1.402.686-2.845Zm-14.877 0a1.277 1.277 0 0 0-1.666-.863c-.85.345-.426 3.834 2.3 3.709a23 23 0 0 1-.634-2.846Z"/><path fill="#C5EBF5" stroke="#003682" stroke-miterlimit="10" stroke-width="1.5" d="M84.092 45.164c0 2.021-.74 6.14-2.04 8.626-.965 1.846-3.452 3.9-5.712 3.9s-4.491-2.054-5.712-3.9c-1.548-2.34-2.04-6.605-2.04-8.626a7.752 7.752 0 1 1 15.504 0Z"/><path fill="#003682" stroke="#003682" stroke-linejoin="round" stroke-width="1.5" d="M83.692 47.71c-.362-3.08-3.35-7.182-6.688-7.182l-.55-2.553 1.033 2.582c0 5.584-8.28 4.092-8.625 7.781l-.132-.132a22.4 22.4 0 0 1-.275-3.25c0-4.282 3.604-7.62 7.885-7.62a7.866 7.866 0 0 1 7.885 7.753 16 16 0 0 1-.436 3.157z"/><path stroke="#0055DC" stroke-miterlimit="10" stroke-width="1.5" d="M76.302 74.906c12.388 0 22.43-10.043 22.43-22.43 0-12.389-10.042-22.431-22.43-22.431s-22.43 10.042-22.43 22.43 10.042 22.43 22.43 22.43Z"/><path fill="#fff" stroke="#3E74FF" stroke-width="2" d="M634 42h117.875v24.927H634z"/><path fill="#222" d="M649.217 57.876v-8.727h5.88v1.521h-4.035v2.08h3.733v1.52h-3.733v2.085h4.052v1.521zm8.997-3.784v3.784h-1.816v-6.545h1.73v1.154h.077q.218-.57.729-.903.511-.337 1.24-.337.681 0 1.189.299.507.298.788.852.282.55.281 1.312v4.168h-1.815v-3.844q.005-.6-.307-.937-.311-.34-.856-.341a1.3 1.3 0 0 0-.648.157q-.278.159-.435.46a1.6 1.6 0 0 0-.157.72m7.929 3.89q-.745 0-1.351-.383-.6-.388-.954-1.138-.35-.755-.35-1.85 0-1.125.362-1.87.363-.75.963-1.12.606-.376 1.326-.376.55 0 .916.188.37.183.597.46.23.272.349.537h.055v-3.281h1.811v8.727h-1.789v-1.048h-.077a2.3 2.3 0 0 1-.362.54 1.8 1.8 0 0 1-.601.44q-.366.174-.895.175m.575-1.444q.44 0 .742-.239.306-.243.469-.677.166-.435.166-1.019t-.162-1.014a1.45 1.45 0 0 0-.469-.665 1.2 1.2 0 0 0-.746-.234q-.447 0-.754.243a1.5 1.5 0 0 0-.464.673 2.9 2.9 0 0 0-.158.997q0 .571.158 1.01.16.435.464.682.307.243.754.243m4.51 3.793v-9h1.79v1.099h.081q.118-.264.345-.537.23-.277.596-.46.371-.188.921-.188.716 0 1.321.375.605.371.967 1.121.363.745.363 1.87 0 1.095-.354 1.85-.35.75-.955 1.138-.6.384-1.346.384-.529 0-.899-.175a1.9 1.9 0 0 1-.601-.44 2.2 2.2 0 0 1-.358-.54h-.056v3.502zm1.777-5.728q0 .585.162 1.019t.469.677q.306.24.745.239.444 0 .75-.243a1.5 1.5 0 0 0 .465-.682q.162-.439.162-1.01 0-.567-.158-.997a1.5 1.5 0 0 0-.464-.673 1.18 1.18 0 0 0-.755-.243 1.2 1.2 0 0 0-.75.234 1.5 1.5 0 0 0-.464.665 2.9 2.9 0 0 0-.162 1.014m8.642 3.4q-.993 0-1.717-.421a2.9 2.9 0 0 1-1.112-1.185q-.392-.763-.392-1.768 0-1.014.392-1.773a2.85 2.85 0 0 1 1.112-1.185q.724-.426 1.717-.426t1.713.426a2.85 2.85 0 0 1 1.117 1.185q.392.759.392 1.773 0 1.005-.392 1.768-.393.758-1.117 1.185-.72.422-1.713.422m.009-1.405q.451 0 .754-.256.303-.26.456-.707.158-.448.158-1.019 0-.57-.158-1.018a1.6 1.6 0 0 0-.456-.708 1.12 1.12 0 0 0-.754-.26q-.456 0-.767.26-.308.26-.465.708a3.1 3.1 0 0 0-.153 1.018q0 .57.153 1.019.158.447.465.707.31.255.767.256m4.261 1.278v-6.545h1.815v6.545zm.912-7.39a1 1 0 0 1-.695-.268.87.87 0 0 1-.285-.652q0-.375.285-.643a.98.98 0 0 1 .695-.273q.405 0 .69.273.29.268.29.643 0 .38-.29.652a.97.97 0 0 1-.69.269m4.041 3.606v3.784h-1.815v-6.545h1.73v1.154h.076q.218-.57.729-.903.511-.337 1.24-.337.682 0 1.189.299.507.298.788.852.282.55.282 1.312v4.168h-1.816v-3.844q.005-.6-.306-.937-.312-.34-.857-.341-.366 0-.648.157a1.1 1.1 0 0 0-.434.46 1.6 1.6 0 0 0-.158.72m8.999-2.761v1.363h-3.942V51.33zm-3.047-1.569h1.815v6.103a.8.8 0 0 0 .077.392q.076.135.213.191a.9.9 0 0 0 .324.056q.128 0 .256-.021l.196-.039.285 1.351a5 5 0 0 1-.383.098 3 3 0 0 1-.601.072q-.656.026-1.151-.174a1.6 1.6 0 0 1-.762-.622q-.273-.423-.269-1.066zm6.743 10.569v-9h1.79v1.099h.081q.118-.264.345-.537.23-.277.596-.46.371-.188.921-.188.715 0 1.321.375.605.371.967 1.121.362.745.362 1.87 0 1.095-.353 1.85-.35.75-.955 1.138-.6.384-1.346.384-.529 0-.9-.175a1.9 1.9 0 0 1-.6-.44 2.2 2.2 0 0 1-.358-.54h-.056v3.502zm1.777-5.728q0 .585.162 1.019t.469.677q.307.24.745.239.444 0 .75-.243a1.5 1.5 0 0 0 .465-.682q.162-.439.162-1.01 0-.567-.158-.997a1.5 1.5 0 0 0-.464-.673 1.18 1.18 0 0 0-.755-.243 1.2 1.2 0 0 0-.75.234 1.5 1.5 0 0 0-.464.665 2.9 2.9 0 0 0-.162 1.014m8.642 3.4q-.993 0-1.717-.421a2.9 2.9 0 0 1-1.113-1.185q-.392-.763-.392-1.768 0-1.014.392-1.773a2.86 2.86 0 0 1 1.113-1.185q.724-.426 1.717-.426t1.713.426a2.85 2.85 0 0 1 1.117 1.185q.392.759.392 1.773 0 1.005-.392 1.768-.393.758-1.117 1.185-.72.422-1.713.422m.009-1.405q.451 0 .754-.256a1.6 1.6 0 0 0 .456-.707q.157-.448.157-1.019 0-.57-.157-1.018a1.6 1.6 0 0 0-.456-.708 1.12 1.12 0 0 0-.754-.26q-.456 0-.768.26-.306.26-.464.708a3.1 3.1 0 0 0-.153 1.018q0 .57.153 1.019.158.447.464.707.312.255.768.256m7.218 1.406q-.993 0-1.717-.422a2.9 2.9 0 0 1-1.112-1.185q-.392-.763-.392-1.768 0-1.014.392-1.773a2.85 2.85 0 0 1 1.112-1.185q.724-.426 1.717-.426t1.713.426q.725.423 1.117 1.185.392.759.392 1.773 0 1.005-.392 1.768-.392.758-1.117 1.185-.72.422-1.713.422m.009-1.406q.451 0 .754-.256.303-.26.456-.707.158-.448.158-1.019 0-.57-.158-1.018a1.6 1.6 0 0 0-.456-.708 1.12 1.12 0 0 0-.754-.26q-.456 0-.767.26-.308.26-.465.708a3.1 3.1 0 0 0-.153 1.018q0 .57.153 1.019.158.447.465.707.31.255.767.256m6.077-7.45v8.728h-1.816v-8.727zm3.95 8.728v-1.33l3.107-2.876q.396-.384.665-.69.272-.307.413-.601.14-.298.14-.644 0-.383-.174-.66a1.15 1.15 0 0 0-.477-.43 1.5 1.5 0 0 0-.687-.154q-.4 0-.698.162a1.1 1.1 0 0 0-.461.465 1.5 1.5 0 0 0-.162.72h-1.751q0-.857.388-1.488a2.6 2.6 0 0 1 1.086-.975q.699-.346 1.611-.346.938 0 1.632.333.699.328 1.087.912.387.584.388 1.338 0 .495-.196.976-.192.48-.686 1.07-.495.583-1.394 1.401l-1.274 1.249v.06h3.665v1.508z"/><path fill="#fff" stroke="#3E74FF" stroke-width="2" d="M429 112h117.875v24.927H429z"/><path fill="#222" d="M444.217 127.876v-8.727h5.88v1.521h-4.035v2.08h3.733v1.521h-3.733v2.084h4.052v1.521zm8.997-3.784v3.784h-1.816v-6.545h1.73v1.154h.077a1.83 1.83 0 0 1 .729-.903q.511-.337 1.24-.337.681 0 1.189.299.507.298.788.852.281.55.281 1.312v4.168h-1.815v-3.844q.005-.6-.307-.937-.311-.341-.856-.341a1.3 1.3 0 0 0-.648.157q-.278.158-.435.461a1.6 1.6 0 0 0-.157.72m7.929 3.891q-.745 0-1.351-.384-.6-.388-.954-1.138-.35-.754-.35-1.849 0-1.125.362-1.871.363-.75.963-1.121.606-.375 1.326-.375.55 0 .916.188.37.183.597.46.23.273.349.537h.055v-3.281h1.811v8.727h-1.789v-1.048h-.077a2.4 2.4 0 0 1-.362.541 1.8 1.8 0 0 1-.601.439q-.366.175-.895.175m.575-1.445q.44 0 .742-.239a1.5 1.5 0 0 0 .469-.677q.165-.435.166-1.019 0-.584-.162-1.014a1.46 1.46 0 0 0-.469-.665 1.2 1.2 0 0 0-.746-.234q-.447 0-.754.243a1.5 1.5 0 0 0-.464.673 2.9 2.9 0 0 0-.158.997q0 .572.158 1.01.16.435.464.682.307.243.754.243m4.51 3.793v-9h1.79v1.099h.081q.119-.264.345-.537a1.8 1.8 0 0 1 .596-.46q.371-.188.921-.188.716 0 1.321.375.605.37.967 1.121.363.746.363 1.871 0 1.095-.354 1.849-.35.75-.955 1.138-.6.384-1.346.384-.529 0-.899-.175a1.9 1.9 0 0 1-.601-.439 2.2 2.2 0 0 1-.358-.541h-.056v3.503zm1.777-5.728q0 .584.162 1.019t.469.677q.306.239.745.239.444 0 .75-.243a1.5 1.5 0 0 0 .465-.682q.162-.438.162-1.01 0-.567-.158-.997a1.5 1.5 0 0 0-.464-.673 1.18 1.18 0 0 0-.755-.243q-.443 0-.75.234a1.5 1.5 0 0 0-.464.665 2.9 2.9 0 0 0-.162 1.014m8.642 3.401q-.993 0-1.717-.422a2.9 2.9 0 0 1-1.112-1.185q-.392-.762-.392-1.768 0-1.014.392-1.773a2.86 2.86 0 0 1 1.112-1.185q.724-.426 1.717-.426t1.713.426q.724.423 1.117 1.185.392.759.392 1.773 0 1.006-.392 1.768a2.9 2.9 0 0 1-1.117 1.185q-.72.422-1.713.422m.009-1.406q.451 0 .754-.256.303-.26.456-.708.158-.447.158-1.018t-.158-1.018a1.6 1.6 0 0 0-.456-.708 1.12 1.12 0 0 0-.754-.26q-.456 0-.767.26-.308.26-.465.708a3.1 3.1 0 0 0-.153 1.018q0 .571.153 1.018.158.449.465.708.31.255.767.256m4.261 1.278v-6.545h1.815v6.545zm.912-7.389a1 1 0 0 1-.695-.269.87.87 0 0 1-.285-.652q0-.375.285-.643a.98.98 0 0 1 .695-.273q.405 0 .69.273.29.268.29.643 0 .38-.29.652a.97.97 0 0 1-.69.269m4.041 3.605v3.784h-1.815v-6.545h1.73v1.154h.076a1.83 1.83 0 0 1 .729-.903q.511-.337 1.24-.337.682 0 1.189.299.507.298.788.852.282.55.282 1.312v4.168h-1.816v-3.844q.005-.6-.306-.937-.312-.341-.857-.341-.366 0-.648.157a1.1 1.1 0 0 0-.434.461 1.6 1.6 0 0 0-.158.72m8.999-2.761v1.363h-3.942v-1.363zm-3.047-1.569h1.815v6.103a.8.8 0 0 0 .077.392.42.42 0 0 0 .213.191.9.9 0 0 0 .324.056q.128 0 .256-.021l.196-.039.285 1.351a5 5 0 0 1-.383.098q-.247.06-.601.072-.657.026-1.151-.174a1.6 1.6 0 0 1-.762-.622q-.273-.423-.269-1.066zm6.743 10.569v-9h1.79v1.099h.081q.119-.264.345-.537a1.8 1.8 0 0 1 .596-.46q.371-.188.921-.188.715 0 1.321.375.605.37.967 1.121.363.746.362 1.871 0 1.095-.353 1.849-.35.75-.955 1.138-.6.384-1.346.384-.529 0-.9-.175a1.9 1.9 0 0 1-.6-.439 2.2 2.2 0 0 1-.358-.541h-.056v3.503zm1.777-5.728q0 .584.162 1.019t.469.677q.306.239.745.239.444 0 .75-.243a1.5 1.5 0 0 0 .465-.682q.162-.438.162-1.01 0-.567-.158-.997a1.5 1.5 0 0 0-.464-.673 1.18 1.18 0 0 0-.755-.243q-.443 0-.75.234a1.5 1.5 0 0 0-.464.665 2.9 2.9 0 0 0-.162 1.014m8.642 3.401q-.993 0-1.717-.422a2.9 2.9 0 0 1-1.113-1.185q-.392-.762-.392-1.768 0-1.014.392-1.773a2.87 2.87 0 0 1 1.113-1.185q.724-.426 1.717-.426t1.713.426q.724.423 1.117 1.185.392.759.392 1.773 0 1.006-.392 1.768a2.9 2.9 0 0 1-1.117 1.185q-.72.422-1.713.422m.009-1.406q.451 0 .754-.256.302-.26.456-.708.157-.447.157-1.018t-.157-1.018a1.6 1.6 0 0 0-.456-.708 1.12 1.12 0 0 0-.754-.26q-.456 0-.768.26a1.6 1.6 0 0 0-.464.708 3.1 3.1 0 0 0-.153 1.018q0 .571.153 1.018.158.449.464.708.312.255.768.256m7.218 1.406q-.993 0-1.717-.422a2.9 2.9 0 0 1-1.112-1.185q-.392-.762-.392-1.768 0-1.014.392-1.773a2.86 2.86 0 0 1 1.112-1.185q.724-.426 1.717-.426t1.713.426q.725.423 1.117 1.185.392.759.392 1.773 0 1.006-.392 1.768a2.9 2.9 0 0 1-1.117 1.185q-.72.422-1.713.422m.009-1.406q.451 0 .754-.256.303-.26.456-.708.158-.447.158-1.018t-.158-1.018a1.6 1.6 0 0 0-.456-.708 1.12 1.12 0 0 0-.754-.26q-.456 0-.767.26-.308.26-.465.708a3.1 3.1 0 0 0-.153 1.018q0 .571.153 1.018.158.449.465.708.31.255.767.256m6.077-7.449v8.727h-1.816v-8.727zm3.95 8.727v-1.33l3.107-2.876q.396-.384.665-.69.272-.307.413-.601.14-.299.14-.644 0-.383-.174-.66a1.16 1.16 0 0 0-.477-.431 1.5 1.5 0 0 0-.687-.153q-.4 0-.698.162a1.1 1.1 0 0 0-.461.464 1.5 1.5 0 0 0-.162.721h-1.751q0-.856.388-1.488a2.6 2.6 0 0 1 1.086-.975q.699-.346 1.611-.346.938 0 1.632.333a2.6 2.6 0 0 1 1.087.912q.388.583.388 1.338 0 .494-.196.976-.192.481-.686 1.069-.495.584-1.394 1.402l-1.274 1.249v.059h3.665v1.509z"/><path fill="#fff" stroke="#F6821F" stroke-width="2" d="M304 112h117.875v24.927H304z"/><path fill="#222" d="M320.06 127.876v-8.727h5.881v1.521h-4.035v2.08h3.733v1.521h-3.733v2.084h4.052v1.521zm8.997-3.784v3.784h-1.815v-6.545h1.73v1.154h.077q.218-.57.728-.903.512-.337 1.241-.337.681 0 1.188.299.508.298.789.852.28.55.281 1.312v4.168h-1.815v-3.844q.004-.6-.307-.937-.31-.341-.857-.341a1.3 1.3 0 0 0-.647.157q-.277.158-.435.461a1.6 1.6 0 0 0-.158.72m7.93 3.891q-.746 0-1.351-.384-.601-.388-.955-1.138-.35-.754-.349-1.849 0-1.125.362-1.871.363-.75.963-1.121.606-.375 1.325-.375.55 0 .917.188.37.183.596.46.23.273.35.537h.055v-3.281h1.811v8.727h-1.79v-1.048h-.076a2.4 2.4 0 0 1-.363.541 1.8 1.8 0 0 1-.6.439q-.367.175-.895.175m.575-1.445q.44 0 .742-.239.306-.243.468-.677.166-.435.166-1.019a2.9 2.9 0 0 0-.161-1.014 1.47 1.47 0 0 0-.469-.665 1.2 1.2 0 0 0-.746-.234q-.447 0-.754.243-.308.243-.465.673a2.9 2.9 0 0 0-.157.997q0 .572.157 1.01.162.435.465.682.307.243.754.243m4.51 3.793v-9h1.79v1.099h.08q.12-.264.346-.537a1.8 1.8 0 0 1 .596-.46q.37-.188.921-.188.715 0 1.321.375.605.37.967 1.121.363.746.362 1.871 0 1.095-.353 1.849-.35.75-.955 1.138a2.45 2.45 0 0 1-1.347.384q-.528 0-.899-.175a1.9 1.9 0 0 1-.601-.439 2.3 2.3 0 0 1-.358-.541h-.055v3.503zm1.777-5.728q0 .584.162 1.019t.468.677q.308.239.746.239.444 0 .75-.243a1.5 1.5 0 0 0 .465-.682q.162-.438.162-1.01 0-.567-.158-.997a1.5 1.5 0 0 0-.465-.673 1.18 1.18 0 0 0-.754-.243q-.443 0-.75.234a1.47 1.47 0 0 0-.464.665 2.9 2.9 0 0 0-.162 1.014m8.642 3.401q-.993 0-1.717-.422a2.9 2.9 0 0 1-1.113-1.185q-.392-.762-.392-1.768 0-1.014.392-1.773a2.86 2.86 0 0 1 1.113-1.185q.724-.426 1.717-.426t1.713.426a2.85 2.85 0 0 1 1.116 1.185q.393.759.392 1.773 0 1.006-.392 1.768a2.87 2.87 0 0 1-1.116 1.185q-.72.422-1.713.422m.008-1.406q.452 0 .755-.256.302-.26.456-.708.157-.447.157-1.018t-.157-1.018a1.6 1.6 0 0 0-.456-.708 1.12 1.12 0 0 0-.755-.26q-.456 0-.767.26a1.6 1.6 0 0 0-.464.708 3.1 3.1 0 0 0-.154 1.018q0 .571.154 1.018.158.449.464.708.312.255.767.256m4.262 1.278v-6.545h1.815v6.545zm.912-7.389a1 1 0 0 1-.695-.269.87.87 0 0 1-.285-.652q0-.375.285-.643a.98.98 0 0 1 .695-.273q.405 0 .69.273.29.268.29.643 0 .38-.29.652a.97.97 0 0 1-.69.269m4.041 3.605v3.784h-1.816v-6.545h1.73v1.154h.077a1.83 1.83 0 0 1 .729-.903q.511-.337 1.24-.337.681 0 1.189.299.507.298.788.852.281.55.281 1.312v4.168h-1.815v-3.844q.005-.6-.307-.937-.311-.341-.856-.341-.367 0-.648.157a1.1 1.1 0 0 0-.435.461 1.6 1.6 0 0 0-.157.72m8.999-2.761v1.363h-3.942v-1.363zm-3.047-1.569h1.815v6.103a.8.8 0 0 0 .077.392.42.42 0 0 0 .213.191.9.9 0 0 0 .324.056q.127 0 .256-.021l.196-.039.285 1.351a6 6 0 0 1-.383.098q-.247.06-.601.072-.656.026-1.151-.174a1.6 1.6 0 0 1-.763-.622q-.272-.423-.268-1.066zm6.743 10.569v-9h1.789v1.099h.081q.12-.264.346-.537a1.8 1.8 0 0 1 .596-.46q.37-.188.921-.188.715 0 1.321.375.604.37.967 1.121.362.746.362 1.871 0 1.095-.354 1.849-.349.75-.954 1.138a2.45 2.45 0 0 1-1.347.384q-.528 0-.899-.175a1.9 1.9 0 0 1-.601-.439 2.3 2.3 0 0 1-.358-.541h-.055v3.503zm1.777-5.728q0 .584.162 1.019t.468.677q.307.239.746.239.443 0 .75-.243.307-.247.465-.682.16-.438.161-1.01 0-.567-.157-.997a1.5 1.5 0 0 0-.465-.673 1.18 1.18 0 0 0-.754-.243q-.443 0-.75.234a1.47 1.47 0 0 0-.464.665 2.9 2.9 0 0 0-.162 1.014m8.642 3.401q-.993 0-1.718-.422a2.9 2.9 0 0 1-1.112-1.185q-.392-.762-.392-1.768 0-1.014.392-1.773a2.87 2.87 0 0 1 1.112-1.185q.725-.426 1.718-.426t1.713.426a2.85 2.85 0 0 1 1.116 1.185q.393.759.392 1.773 0 1.006-.392 1.768a2.87 2.87 0 0 1-1.116 1.185q-.72.422-1.713.422m.008-1.406q.452 0 .755-.256.302-.26.456-.708.157-.447.157-1.018t-.157-1.018a1.6 1.6 0 0 0-.456-.708 1.12 1.12 0 0 0-.755-.26q-.456 0-.767.26a1.6 1.6 0 0 0-.464.708 3.1 3.1 0 0 0-.154 1.018q0 .571.154 1.018.158.449.464.708.312.255.767.256m7.219 1.406q-.993 0-1.717-.422a2.9 2.9 0 0 1-1.112-1.185q-.393-.762-.392-1.768 0-1.014.392-1.773a2.86 2.86 0 0 1 1.112-1.185q.724-.426 1.717-.426t1.713.426q.724.423 1.117 1.185.392.759.392 1.773 0 1.006-.392 1.768a2.9 2.9 0 0 1-1.117 1.185q-.72.422-1.713.422m.009-1.406q.451 0 .754-.256.303-.26.456-.708.158-.447.158-1.018t-.158-1.018a1.6 1.6 0 0 0-.456-.708 1.12 1.12 0 0 0-.754-.26q-.456 0-.767.26-.308.26-.465.708a3.1 3.1 0 0 0-.153 1.018q0 .571.153 1.018.158.449.465.708.31.255.767.256m6.076-7.449v8.727h-1.815v-8.727zm7.748 0v8.727h-1.845V120.9h-.051l-1.999 1.253v-1.636l2.16-1.368z"/><path fill="#fff" stroke="#F6821F" stroke-width="2" d="M554 112h117.875v24.927H554z"/><path fill="#222" d="M569.041 127.876v-8.727h5.881v1.521h-4.036v2.08h3.733v1.521h-3.733v2.084h4.053v1.521zm8.997-3.784v3.784h-1.816v-6.545h1.731v1.154h.076a1.83 1.83 0 0 1 .729-.903q.511-.337 1.24-.337.682 0 1.189.299.507.298.788.852.282.55.282 1.312v4.168h-1.816v-3.844q.005-.6-.307-.937-.311-.341-.856-.341-.366 0-.648.157a1.1 1.1 0 0 0-.435.461 1.6 1.6 0 0 0-.157.72m7.929 3.891q-.745 0-1.351-.384-.6-.388-.954-1.138-.35-.754-.35-1.849 0-1.125.363-1.871.361-.75.963-1.121.605-.375 1.325-.375.55 0 .916.188.37.183.597.46.23.273.349.537h.056v-3.281h1.811v8.727h-1.79v-1.048h-.077a2.4 2.4 0 0 1-.362.541 1.8 1.8 0 0 1-.601.439q-.367.175-.895.175m.576-1.445q.438 0 .741-.239.307-.243.469-.677.166-.435.166-1.019t-.162-1.014a1.46 1.46 0 0 0-.469-.665 1.2 1.2 0 0 0-.745-.234q-.448 0-.755.243a1.5 1.5 0 0 0-.464.673 2.9 2.9 0 0 0-.158.997q0 .572.158 1.01.162.435.464.682.307.243.755.243m4.509 3.793v-9h1.79v1.099h.081q.12-.264.345-.537.23-.277.597-.46.37-.188.92-.188.716 0 1.321.375.606.37.968 1.121.362.746.362 1.871 0 1.095-.354 1.849-.35.75-.955 1.138-.6.384-1.346.384-.528 0-.899-.175a1.9 1.9 0 0 1-.601-.439 2.2 2.2 0 0 1-.358-.541h-.055v3.503zm1.777-5.728q0 .584.162 1.019t.469.677q.306.239.746.239.442 0 .75-.243.306-.247.464-.682.162-.438.162-1.01 0-.567-.158-.997a1.5 1.5 0 0 0-.464-.673 1.18 1.18 0 0 0-.754-.243q-.444 0-.75.234a1.47 1.47 0 0 0-.465.665 2.9 2.9 0 0 0-.162 1.014m8.642 3.401q-.993 0-1.717-.422a2.9 2.9 0 0 1-1.112-1.185q-.392-.762-.392-1.768 0-1.014.392-1.773a2.86 2.86 0 0 1 1.112-1.185q.724-.426 1.717-.426t1.713.426q.725.423 1.117 1.185.392.759.392 1.773 0 1.006-.392 1.768a2.9 2.9 0 0 1-1.117 1.185q-.72.422-1.713.422m.009-1.406q.451 0 .754-.256.303-.26.456-.708.158-.447.158-1.018t-.158-1.018a1.6 1.6 0 0 0-.456-.708 1.12 1.12 0 0 0-.754-.26q-.456 0-.767.26-.308.26-.465.708a3.1 3.1 0 0 0-.153 1.018q0 .571.153 1.018.158.449.465.708.31.255.767.256m4.261 1.278v-6.545h1.816v6.545zm.912-7.389a1 1 0 0 1-.694-.269.87.87 0 0 1-.286-.652.85.85 0 0 1 .286-.643.98.98 0 0 1 .694-.273q.405 0 .691.273a.85.85 0 0 1 .289.643q0 .38-.289.652a.97.97 0 0 1-.691.269m4.041 3.605v3.784h-1.815v-6.545h1.73v1.154h.077q.217-.57.728-.903.512-.337 1.24-.337.682 0 1.189.299.507.298.789.852.28.55.281 1.312v4.168h-1.815v-3.844q.003-.6-.307-.937-.312-.341-.857-.341a1.3 1.3 0 0 0-.647.157q-.277.158-.435.461a1.6 1.6 0 0 0-.158.72m8.999-2.761v1.363h-3.942v-1.363zm-3.047-1.569h1.816v6.103q0 .25.076.392a.43.43 0 0 0 .213.191.9.9 0 0 0 .324.056q.129 0 .256-.021l.196-.039.286 1.351a5 5 0 0 1-.384.098q-.247.06-.601.072-.656.026-1.15-.174a1.6 1.6 0 0 1-.763-.622q-.273-.423-.269-1.066zm6.743 10.569v-9h1.79v1.099h.081q.118-.264.345-.537.23-.277.597-.46.37-.188.92-.188.716 0 1.321.375.605.37.967 1.121.363.746.363 1.871 0 1.095-.354 1.849-.35.75-.955 1.138-.6.384-1.346.384-.528 0-.899-.175a1.9 1.9 0 0 1-.601-.439 2.2 2.2 0 0 1-.358-.541h-.056v3.503zm1.777-5.728q0 .584.162 1.019t.469.677q.306.239.746.239.442 0 .75-.243.306-.247.464-.682.162-.438.162-1.01 0-.567-.158-.997a1.5 1.5 0 0 0-.464-.673 1.18 1.18 0 0 0-.754-.243q-.444 0-.75.234a1.47 1.47 0 0 0-.465.665 2.9 2.9 0 0 0-.162 1.014m8.642 3.401q-.993 0-1.717-.422a2.9 2.9 0 0 1-1.112-1.185q-.392-.762-.392-1.768 0-1.014.392-1.773a2.86 2.86 0 0 1 1.112-1.185q.724-.426 1.717-.426t1.713.426q.724.423 1.117 1.185.392.759.392 1.773 0 1.006-.392 1.768a2.9 2.9 0 0 1-1.117 1.185q-.72.422-1.713.422m.009-1.406q.451 0 .754-.256.303-.26.456-.708.158-.447.158-1.018t-.158-1.018a1.6 1.6 0 0 0-.456-.708 1.12 1.12 0 0 0-.754-.26q-.456 0-.767.26-.308.26-.465.708a3.1 3.1 0 0 0-.153 1.018q0 .571.153 1.018.158.449.465.708.31.255.767.256m7.219 1.406q-.993 0-1.718-.422a2.9 2.9 0 0 1-1.112-1.185q-.392-.762-.392-1.768 0-1.014.392-1.773a2.86 2.86 0 0 1 1.112-1.185q.725-.426 1.718-.426t1.713.426a2.85 2.85 0 0 1 1.116 1.185q.392.759.392 1.773 0 1.006-.392 1.768a2.87 2.87 0 0 1-1.116 1.185q-.72.422-1.713.422m.008-1.406q.452 0 .754-.256.303-.26.456-.708.158-.447.158-1.018t-.158-1.018a1.6 1.6 0 0 0-.456-.708 1.12 1.12 0 0 0-.754-.26q-.456 0-.767.26a1.6 1.6 0 0 0-.464.708 3.1 3.1 0 0 0-.154 1.018q0 .571.154 1.018.158.449.464.708.31.255.767.256m6.077-7.449v8.727h-1.815v-8.727zm7.176 8.846q-.954 0-1.7-.328-.741-.332-1.172-.912a2.3 2.3 0 0 1-.439-1.346h1.858q.017.32.209.562.196.239.52.371t.729.132q.421 0 .745-.149.324-.15.507-.414.184-.264.184-.609 0-.35-.196-.618a1.25 1.25 0 0 0-.554-.426 2.2 2.2 0 0 0-.853-.153h-.814v-1.355h.814q.418 0 .738-.145a1.2 1.2 0 0 0 .502-.401q.18-.26.179-.605a1.04 1.04 0 0 0-.592-.967 1.4 1.4 0 0 0-.648-.141q-.374 0-.686.136a1.2 1.2 0 0 0-.498.38 1 1 0 0 0-.201.579h-1.768q.013-.754.43-1.329a2.8 2.8 0 0 1 1.125-.899 3.8 3.8 0 0 1 1.607-.329q.903 0 1.581.329.678.327 1.052.886.38.554.375 1.244.005.733-.456 1.223-.456.49-1.189.622v.069q.964.123 1.466.669.507.54.503 1.355.005.746-.43 1.325-.43.579-1.189.912-.759.332-1.739.332"/><path fill="#fff" stroke="#F6821F" stroke-width="2" d="M429 42h117.875v24.927H429z"/><path fill="#222" d="M444.554 51.418v-1.521h7.167v1.521h-2.671v7.206h-1.824v-7.206zm7.502 7.206v-6.545h1.76v1.142h.068q.179-.61.601-.92.421-.316.972-.316a2.7 2.7 0 0 1 .571.064v1.61a2.4 2.4 0 0 0-.354-.068 3 3 0 0 0-.413-.03q-.4 0-.716.175a1.3 1.3 0 0 0-.495.478q-.179.306-.179.707v3.703zm6.457.124q-.626 0-1.116-.218a1.8 1.8 0 0 1-.776-.652q-.28-.434-.281-1.082 0-.547.2-.916a1.6 1.6 0 0 1 .546-.597q.345-.225.784-.34a6 6 0 0 1 .929-.163q.57-.06.92-.11.35-.056.507-.163a.36.36 0 0 0 .158-.315v-.025q0-.406-.256-.627-.25-.221-.716-.221-.489 0-.78.217a1 1 0 0 0-.383.537l-1.679-.136q.128-.597.503-1.032a2.4 2.4 0 0 1 .967-.673q.597-.24 1.381-.239.544 0 1.044.128.503.128.89.396.393.27.618.69.226.42.226 1.002v4.415h-1.721v-.908h-.051a1.9 1.9 0 0 1-.422.541 2 2 0 0 1-.635.363 2.6 2.6 0 0 1-.857.128m.52-1.253q.4 0 .707-.158.307-.162.482-.435.175-.272.175-.617v-.695a1 1 0 0 1-.235.102 4 4 0 0 1-.328.081q-.183.034-.366.064l-.333.047a2.2 2.2 0 0 0-.558.15.9.9 0 0 0-.371.276.68.68 0 0 0-.132.426q0 .37.269.567.273.192.69.192m7.963-5.416v1.363h-4.04V52.08zm-3.116 6.545v-7.018q0-.712.277-1.18.282-.47.767-.704a2.5 2.5 0 0 1 1.104-.234 4 4 0 0 1 .763.064q.35.063.52.115l-.324 1.363a2 2 0 0 0-.264-.064 1.7 1.7 0 0 0-.316-.03q-.4 0-.558.188-.157.183-.157.516v6.984zm7.612-6.545v1.363h-4.039V52.08zm-3.115 6.545v-7.018q0-.712.277-1.18.282-.47.767-.704a2.5 2.5 0 0 1 1.104-.234q.418 0 .763.064.35.063.52.115l-.324 1.363a2 2 0 0 0-.264-.064 1.7 1.7 0 0 0-.316-.03q-.4 0-.558.188-.158.183-.158.516v6.984zm4.092 0v-6.545h1.816v6.545zm.912-7.39a1 1 0 0 1-.694-.268.87.87 0 0 1-.286-.652.85.85 0 0 1 .286-.643.98.98 0 0 1 .694-.273q.405 0 .691.273a.85.85 0 0 1 .289.643q0 .38-.289.652a.97.97 0 0 1-.691.269m5.183 7.518q-1.005 0-1.73-.426a2.9 2.9 0 0 1-1.108-1.194q-.383-.762-.383-1.755 0-1.006.388-1.764a2.9 2.9 0 0 1 1.112-1.19q.72-.43 1.713-.43.857 0 1.5.311.643.312 1.018.874t.414 1.321h-1.713q-.074-.49-.384-.788-.307-.303-.805-.303a1.22 1.22 0 0 0-.738.23q-.31.226-.485.66t-.175 1.053q0 .627.17 1.066.175.438.49.669.316.23.738.23.31 0 .558-.128.252-.128.413-.37a1.4 1.4 0 0 0 .218-.593h1.713q-.043.75-.409 1.32a2.5 2.5 0 0 1-1.002.887q-.639.32-1.513.32m12.045-4.807-1.662.102a.85.85 0 0 0-.183-.383 1 1 0 0 0-.371-.277 1.3 1.3 0 0 0-.541-.107q-.421 0-.711.18-.29.174-.29.468 0 .234.187.396.188.162.644.26l1.184.239q.955.195 1.424.63t.468 1.143q0 .643-.379 1.129-.375.486-1.031.758-.652.27-1.504.269-1.3 0-2.071-.541a2.1 2.1 0 0 1-.899-1.483l1.785-.094a.92.92 0 0 0 .392.605q.31.205.797.205.477 0 .767-.184.294-.187.298-.481a.5.5 0 0 0-.209-.405q-.204-.162-.63-.247l-1.134-.226q-.959-.192-1.427-.665-.465-.472-.465-1.206 0-.63.341-1.086.346-.456.967-.704.627-.246 1.466-.247 1.24 0 1.952.524.716.525.835 1.428m4.642-1.866v1.363h-3.942V52.08zm-3.047-1.569h1.816v6.103a.8.8 0 0 0 .076.392q.077.135.213.191a.9.9 0 0 0 .324.056q.128 0 .256-.021l.196-.039.285 1.351q-.135.043-.383.098-.247.06-.601.073-.656.025-1.151-.175a1.6 1.6 0 0 1-.762-.622q-.273-.423-.269-1.066zm7.01 8.242q-1.01 0-1.738-.41a2.8 2.8 0 0 1-1.117-1.167q-.392-.758-.392-1.794 0-1.01.392-1.773a2.9 2.9 0 0 1 1.104-1.188q.716-.427 1.679-.427.648 0 1.206.21.562.204.98.617.422.414.656 1.04.235.622.235 1.457v.499h-5.527V54.69h3.818q0-.392-.171-.695a1.2 1.2 0 0 0-.473-.473 1.35 1.35 0 0 0-.694-.175q-.414 0-.733.192a1.35 1.35 0 0 0-.495.507q-.179.316-.183.703v1.07q0 .486.179.84.183.353.516.545.332.192.788.192.303 0 .554-.085t.43-.256.273-.418l1.679.111q-.128.605-.524 1.057a2.6 2.6 0 0 1-1.014.699q-.618.246-1.428.247m7.04 0q-1.01 0-1.738-.41a2.8 2.8 0 0 1-1.117-1.167q-.392-.758-.392-1.794 0-1.01.392-1.773a2.9 2.9 0 0 1 1.104-1.188q.716-.427 1.679-.427.648 0 1.206.21.562.204.98.617.422.414.656 1.04.234.622.234 1.457v.499h-5.527V54.69h3.819q0-.392-.171-.695a1.2 1.2 0 0 0-.473-.473 1.35 1.35 0 0 0-.694-.175q-.414 0-.733.192a1.35 1.35 0 0 0-.495.507q-.179.316-.183.703v1.07q0 .486.179.84.183.353.516.545.332.192.788.192.303 0 .554-.085t.43-.256.273-.418l1.679.111q-.128.605-.524 1.057-.392.447-1.014.699-.618.246-1.428.247m4.057-.128v-6.545h1.76v1.142h.068q.179-.61.601-.92.421-.316.972-.316a2.7 2.7 0 0 1 .571.064v1.61a2.4 2.4 0 0 0-.354-.068 3 3 0 0 0-.413-.03q-.4 0-.716.175a1.3 1.3 0 0 0-.495.478q-.179.306-.179.707v3.703zm4.778 0v-6.545h1.816v6.545zm.912-7.39a1 1 0 0 1-.694-.268.87.87 0 0 1-.286-.652.85.85 0 0 1 .286-.643.98.98 0 0 1 .694-.273q.405 0 .69.273.29.268.29.643 0 .38-.29.652a.97.97 0 0 1-.69.269m4.041 3.606v3.784h-1.815v-6.545h1.73v1.154h.077a1.82 1.82 0 0 1 .728-.903q.512-.337 1.24-.337.682 0 1.189.299.507.298.789.852.28.55.281 1.312v4.168h-1.815V54.78q.003-.6-.307-.937-.312-.342-.857-.341-.366 0-.648.157a1.1 1.1 0 0 0-.434.46 1.6 1.6 0 0 0-.158.72m8.466 6.375q-.882 0-1.512-.243-.627-.239-.997-.652a2 2 0 0 1-.482-.929l1.679-.226q.077.196.243.367t.439.272q.276.107.673.107.592 0 .976-.29.388-.285.388-.959v-1.197h-.077a1.74 1.74 0 0 1-.972.912q-.375.153-.894.153a2.7 2.7 0 0 1-1.343-.34q-.6-.346-.959-1.053-.353-.712-.353-1.798 0-1.113.362-1.858.361-.747.963-1.117.605-.37 1.325-.37.55 0 .921.187.37.183.596.46.231.272.354.537h.068v-1.1h1.803v6.61q0 .835-.409 1.398-.41.563-1.134.843-.72.286-1.658.286m.039-4.048q.439 0 .741-.218.307-.221.469-.63.166-.413.166-.989 0-.575-.162-.997a1.46 1.46 0 0 0-.468-.66 1.2 1.2 0 0 0-.746-.235q-.447 0-.754.243-.308.238-.465.665a2.8 2.8 0 0 0-.158.984q0 .567.158.98.162.409.465.635.307.222.754.222"/><path fill="#5E5E5E" d="M551.875 52.726a1.5 1.5 0 0 0 0 3zm78.867 2.56a1.5 1.5 0 0 0 0-2.121l-9.546-9.546a1.5 1.5 0 1 0-2.121 2.121l8.485 8.486-8.485 8.485a1.5 1.5 0 1 0 2.121 2.121zm-78.867.44h77.806v-3h-77.806z"/><path fill="#fff" stroke="#F6821F" stroke-width="2" d="M224 42h117.875v24.927H224z"/><path fill="#222" d="M243.356 57.876v-8.727h1.845v7.206h3.742v1.521zm9.6.128q-.993 0-1.717-.422a2.9 2.9 0 0 1-1.113-1.185q-.392-.763-.392-1.768 0-1.014.392-1.773a2.86 2.86 0 0 1 1.113-1.185q.724-.426 1.717-.426t1.713.426a2.85 2.85 0 0 1 1.117 1.185q.392.759.392 1.773 0 1.005-.392 1.768-.393.758-1.117 1.185-.72.422-1.713.422m.009-1.406q.451 0 .754-.256.303-.26.456-.707.157-.448.157-1.019 0-.57-.157-1.018a1.6 1.6 0 0 0-.456-.708 1.12 1.12 0 0 0-.754-.26q-.456 0-.767.26-.307.26-.465.708a3.1 3.1 0 0 0-.153 1.018q0 .57.153 1.019.158.447.465.707.31.255.767.256M259.093 58a2.7 2.7 0 0 1-1.117-.218 1.8 1.8 0 0 1-.776-.652q-.28-.434-.281-1.082 0-.547.2-.916.201-.37.546-.597.345-.225.784-.34.443-.117.929-.163.572-.06.92-.11.35-.056.508-.162a.36.36 0 0 0 .157-.316v-.025q0-.406-.255-.627-.252-.222-.716-.221-.49 0-.78.217a1 1 0 0 0-.384.537l-1.679-.137a2.3 2.3 0 0 1 .503-1.03q.375-.44.967-.674.597-.24 1.381-.239.546 0 1.044.128.503.128.891.396.392.27.618.69t.226 1.002v4.415h-1.722v-.908h-.051a1.9 1.9 0 0 1-.422.541 2 2 0 0 1-.635.363 2.6 2.6 0 0 1-.856.128m.519-1.253q.4 0 .708-.158.307-.162.481-.435.175-.271.175-.618v-.694a1 1 0 0 1-.234.102 4 4 0 0 1-.328.081q-.184.034-.367.064l-.332.047a2.3 2.3 0 0 0-.559.15.9.9 0 0 0-.37.276.68.68 0 0 0-.132.426q0 .37.268.567.273.192.69.192m6.855 1.236a2.47 2.47 0 0 1-1.351-.384q-.601-.388-.955-1.138-.349-.755-.349-1.85 0-1.125.362-1.87.363-.75.963-1.12.606-.376 1.326-.376.55 0 .916.188.37.183.596.46.23.272.35.537h.055v-3.281h1.811v8.727h-1.789v-1.048h-.077a2.3 2.3 0 0 1-.362.54 1.8 1.8 0 0 1-.601.44q-.367.174-.895.175m.575-1.445q.44 0 .742-.239.306-.243.468-.677.167-.435.167-1.019t-.162-1.014a1.46 1.46 0 0 0-.469-.665 1.2 1.2 0 0 0-.746-.234q-.447 0-.754.243a1.5 1.5 0 0 0-.465.673q-.157.431-.157.997 0 .571.157 1.01.162.435.465.682.307.243.754.243m7.189 1.338v-8.727h1.816v3.281h.055q.12-.264.345-.537.23-.277.597-.46.37-.188.92-.188.717 0 1.321.375.605.371.968 1.121.362.745.362 1.87 0 1.095-.354 1.85-.35.75-.954 1.138-.601.384-1.347.384-.528 0-.899-.175a1.9 1.9 0 0 1-.601-.44 2.2 2.2 0 0 1-.358-.54h-.081v1.048zm1.777-3.273q0 .585.162 1.019t.469.677q.307.24.746.239.442 0 .75-.243.306-.247.464-.682.162-.439.162-1.01 0-.567-.158-.997a1.5 1.5 0 0 0-.464-.673 1.18 1.18 0 0 0-.754-.243q-.444 0-.75.234a1.47 1.47 0 0 0-.465.665 2.9 2.9 0 0 0-.162 1.014M283.561 58a2.7 2.7 0 0 1-1.117-.218 1.8 1.8 0 0 1-.775-.652q-.282-.434-.282-1.082 0-.547.201-.916.2-.37.545-.597.346-.225.784-.34.444-.117.929-.163.572-.06.921-.11.35-.056.507-.162a.36.36 0 0 0 .157-.316v-.025q0-.406-.255-.627-.252-.222-.716-.221-.49 0-.78.217a1 1 0 0 0-.384.537l-1.679-.137a2.3 2.3 0 0 1 .503-1.03q.375-.44.968-.674.596-.24 1.38-.239.546 0 1.044.128.503.128.891.396.392.27.618.69t.226 1.002v4.415h-1.722v-.908h-.051a1.9 1.9 0 0 1-.422.541 2 2 0 0 1-.635.363 2.6 2.6 0 0 1-.856.128m.519-1.253q.401 0 .708-.158.307-.162.481-.435.175-.271.175-.618v-.694a1 1 0 0 1-.234.102 4 4 0 0 1-.328.081q-.184.034-.367.064l-.332.047a2.3 2.3 0 0 0-.558.15.9.9 0 0 0-.371.276.68.68 0 0 0-.132.426q0 .37.268.567.273.192.69.192m6.258-7.598v8.727h-1.815v-8.727zm3.189 8.85q-.627 0-1.116-.217a1.8 1.8 0 0 1-.776-.652q-.28-.434-.281-1.082 0-.547.2-.916.2-.37.546-.597.345-.225.784-.34.443-.117.929-.163.57-.06.92-.11.35-.056.507-.162a.36.36 0 0 0 .158-.316v-.025q0-.406-.256-.627-.25-.222-.716-.221-.489 0-.78.217a1 1 0 0 0-.383.537l-1.679-.137a2.3 2.3 0 0 1 .503-1.03q.375-.44.967-.674.597-.24 1.381-.239.545 0 1.044.128.503.128.89.396.393.27.618.69.226.42.226 1.002v4.415h-1.721v-.908h-.052a1.9 1.9 0 0 1-.421.541 2 2 0 0 1-.635.363 2.6 2.6 0 0 1-.857.128m.52-1.252q.4 0 .707-.158.307-.162.482-.435.174-.271.175-.618v-.694a1 1 0 0 1-.235.102 4 4 0 0 1-.328.081 16 16 0 0 1-.366.064l-.333.047a2.3 2.3 0 0 0-.558.15.9.9 0 0 0-.371.276.68.68 0 0 0-.132.426q0 .37.269.567.272.192.69.192m6.258-2.655v3.784h-1.815v-6.545h1.73v1.154h.076q.217-.57.729-.903.511-.337 1.24-.337.682 0 1.189.299.507.298.788.852.282.55.282 1.312v4.168h-1.816v-3.844q.005-.6-.307-.937-.31-.34-.856-.341-.366 0-.648.157a1.1 1.1 0 0 0-.434.46 1.6 1.6 0 0 0-.158.72m8.475 3.912q-1.006 0-1.73-.426a2.9 2.9 0 0 1-1.108-1.194q-.384-.762-.384-1.755 0-1.006.388-1.764a2.9 2.9 0 0 1 1.112-1.19q.72-.43 1.713-.43.857 0 1.5.311.644.312 1.019.874t.413 1.321h-1.713q-.072-.49-.384-.788-.307-.303-.805-.303-.422 0-.737.23-.311.225-.486.66t-.175 1.053q0 .627.171 1.066.174.438.49.669.315.23.737.23.311 0 .558-.128.252-.128.414-.37a1.4 1.4 0 0 0 .217-.593h1.713q-.043.75-.409 1.32a2.5 2.5 0 0 1-1.001.887q-.64.32-1.513.32m6.936 0q-1.01 0-1.738-.41a2.8 2.8 0 0 1-1.117-1.167q-.392-.759-.392-1.794 0-1.01.392-1.773a2.9 2.9 0 0 1 1.104-1.189q.716-.426 1.679-.426.648 0 1.206.21.563.204.98.617.422.413.656 1.04.235.621.235 1.457v.499h-5.527v-1.125h3.818q0-.393-.171-.695a1.2 1.2 0 0 0-.473-.473 1.35 1.35 0 0 0-.694-.175q-.414 0-.733.192a1.35 1.35 0 0 0-.495.507q-.179.316-.183.703v1.07q0 .486.179.84.183.353.516.545.332.192.788.192.303 0 .554-.086t.43-.255.273-.418l1.679.111q-.128.605-.524 1.057a2.6 2.6 0 0 1-1.014.699q-.618.246-1.428.247m4.057-.128v-6.545h1.76v1.142h.068q.18-.61.601-.92a1.58 1.58 0 0 1 .972-.316 3 3 0 0 1 .571.064v1.61a2.4 2.4 0 0 0-.354-.068q-.225-.03-.413-.03-.4 0-.716.175a1.3 1.3 0 0 0-.494.477q-.18.307-.179.708v3.703z"/><path fill="#5E5E5E" d="M346.875 53.474a1.5 1.5 0 0 0 0 3zm78.867 2.56a1.5 1.5 0 0 0 0-2.121l-9.546-9.546a1.5 1.5 0 1 0-2.121 2.121l8.485 8.486-8.485 8.485a1.5 1.5 0 1 0 2.121 2.121zm-78.867.44h77.806v-3h-77.806zM486.438 101a1.5 1.5 0 1 0 3 0zm3 0V71.927h-3V101z"/><path fill="#fff" stroke="#F6821F" stroke-width="2" d="M706 157.677h384v37H706z"/><path fill="#fff" stroke="#F6821F" stroke-width="2" d="M839 163.677h117.875v24.927H839z"/><path fill="#222" d="M868.066 179.553v-8.728h5.881v1.522h-4.035v2.079h3.732v1.522h-3.732v2.083h4.052v1.522zm8.997-3.784v3.784h-1.815v-6.546h1.73v1.155h.077q.218-.571.728-.903.512-.337 1.24-.337.682 0 1.189.298t.789.853q.28.55.281 1.312v4.168h-1.815v-3.844q.004-.601-.307-.938-.312-.34-.857-.34a1.3 1.3 0 0 0-.647.157 1.1 1.1 0 0 0-.435.46 1.6 1.6 0 0 0-.158.721m7.93 3.89q-.746 0-1.351-.383-.601-.388-.955-1.138-.35-.754-.349-1.849 0-1.125.362-1.871.363-.75.963-1.121.606-.375 1.325-.375.55 0 .917.188.37.183.596.46.23.273.35.537h.055v-3.282h1.811v8.728h-1.79v-1.049h-.076a2.4 2.4 0 0 1-.363.542 1.8 1.8 0 0 1-.6.439q-.367.174-.895.174m.575-1.444q.44 0 .741-.239a1.5 1.5 0 0 0 .469-.678q.166-.434.166-1.018 0-.583-.162-1.014a1.45 1.45 0 0 0-.468-.665 1.2 1.2 0 0 0-.746-.234q-.447 0-.754.243-.308.242-.465.673a2.9 2.9 0 0 0-.157.997q0 .571.157 1.01.162.435.465.682.307.243.754.243m4.51 3.792v-9h1.789v1.1h.081q.12-.264.346-.537a1.8 1.8 0 0 1 .596-.46q.37-.188.921-.188.715 0 1.321.375.604.37.967 1.121.362.746.362 1.871 0 1.095-.354 1.849-.349.75-.954 1.138a2.46 2.46 0 0 1-1.347.383q-.528 0-.899-.174a1.9 1.9 0 0 1-.601-.439 2.3 2.3 0 0 1-.358-.542h-.055v3.503zm1.777-5.727q0 .584.162 1.018t.468.678q.307.239.746.239.444 0 .75-.243.307-.247.465-.682.161-.439.161-1.01 0-.567-.157-.997a1.5 1.5 0 0 0-.465-.673 1.18 1.18 0 0 0-.754-.243q-.442 0-.75.234a1.47 1.47 0 0 0-.464.665 2.9 2.9 0 0 0-.162 1.014m8.642 3.401q-.993 0-1.718-.422a2.9 2.9 0 0 1-1.112-1.185q-.392-.763-.392-1.768 0-1.015.392-1.773a2.85 2.85 0 0 1 1.112-1.185q.725-.426 1.718-.426t1.713.426q.724.421 1.116 1.185.393.758.392 1.773 0 1.005-.392 1.768a2.87 2.87 0 0 1-1.116 1.185q-.72.422-1.713.422m.008-1.407q.452 0 .755-.255a1.6 1.6 0 0 0 .456-.708q.157-.448.157-1.018t-.157-1.019a1.6 1.6 0 0 0-.456-.707 1.12 1.12 0 0 0-.755-.26q-.455 0-.767.26a1.6 1.6 0 0 0-.464.707 3.1 3.1 0 0 0-.154 1.019q0 .57.154 1.018.158.448.464.708.312.255.767.255m4.262 1.279v-6.546h1.815v6.546zm.912-7.389a1 1 0 0 1-.695-.269.87.87 0 0 1-.285-.652q0-.375.285-.643a.98.98 0 0 1 .695-.273q.405 0 .69.273.29.268.29.643 0 .38-.29.652a.97.97 0 0 1-.69.269m4.041 3.605v3.784h-1.816v-6.546h1.73v1.155h.077q.217-.571.729-.903.511-.337 1.24-.337.682 0 1.189.298t.788.853q.281.55.281 1.312v4.168h-1.815v-3.844q.005-.601-.307-.938-.311-.34-.856-.34a1.3 1.3 0 0 0-.648.157 1.1 1.1 0 0 0-.435.46 1.6 1.6 0 0 0-.157.721m8.999-2.762v1.364h-3.942v-1.364zm-3.047-1.568h1.815v6.102q0 .252.077.392a.42.42 0 0 0 .213.192.9.9 0 0 0 .324.056q.127 0 .255-.022l.197-.038.285 1.351a5 5 0 0 1-.384.098q-.247.06-.6.072-.657.026-1.151-.174a1.6 1.6 0 0 1-.763-.623q-.273-.422-.268-1.065zm6.726 8.114v-1.33l3.106-2.876q.396-.384.665-.691.273-.306.413-.6a1.5 1.5 0 0 0 .141-.644q0-.384-.175-.66a1.14 1.14 0 0 0-.477-.431 1.5 1.5 0 0 0-.686-.153q-.4 0-.699.162a1.1 1.1 0 0 0-.46.464 1.5 1.5 0 0 0-.162.72h-1.752q0-.856.388-1.487.388-.63 1.087-.976.699-.345 1.611-.345.937 0 1.632.333.699.327 1.086.911t.388 1.339q0 .494-.196.975-.192.482-.686 1.07-.495.584-1.394 1.402l-1.274 1.249v.059h3.665v1.509z"/><path fill="#fff" stroke="#269B7F" stroke-width="2" d="M714 163.677h117.875v24.927H714z"/><path fill="#222" d="M743.91 179.553v-8.728h5.881v1.522h-4.036v2.079h3.733v1.522h-3.733v2.083h4.053v1.522zm8.997-3.784v3.784h-1.815v-6.546h1.73v1.155h.076q.217-.571.729-.903.511-.337 1.24-.337.682 0 1.189.298t.789.853q.28.55.281 1.312v4.168h-1.816v-3.844q.005-.601-.306-.938-.312-.34-.857-.34-.366 0-.648.157a1.1 1.1 0 0 0-.434.46 1.6 1.6 0 0 0-.158.721m7.929 3.89q-.745 0-1.35-.383-.601-.388-.955-1.138-.35-.754-.349-1.849 0-1.125.362-1.871.362-.75.963-1.121.605-.375 1.325-.375.55 0 .916.188.371.183.597.46.23.273.349.537h.056v-3.282h1.811v8.728h-1.79v-1.049h-.077a2.3 2.3 0 0 1-.362.542 1.8 1.8 0 0 1-.601.439q-.366.174-.895.174m.576-1.444q.439 0 .741-.239a1.5 1.5 0 0 0 .469-.678q.166-.434.166-1.018 0-.583-.162-1.014a1.45 1.45 0 0 0-.469-.665 1.2 1.2 0 0 0-.745-.234q-.448 0-.755.243a1.5 1.5 0 0 0-.464.673 2.9 2.9 0 0 0-.158.997q0 .571.158 1.01.162.435.464.682.307.243.755.243m4.509 3.792v-9h1.79v1.1h.081q.12-.264.345-.537.231-.277.597-.46.37-.188.92-.188.717 0 1.321.375.606.37.968 1.121.362.746.362 1.871 0 1.095-.354 1.849-.35.75-.954 1.138-.601.383-1.347.383-.528 0-.899-.174a1.9 1.9 0 0 1-.601-.439 2.3 2.3 0 0 1-.358-.542h-.055v3.503zm1.777-5.727q0 .584.162 1.018t.469.678q.307.239.746.239.442 0 .75-.243.306-.247.464-.682.162-.439.162-1.01 0-.567-.157-.997a1.5 1.5 0 0 0-.465-.673 1.18 1.18 0 0 0-.754-.243q-.444 0-.75.234a1.47 1.47 0 0 0-.465.665 2.9 2.9 0 0 0-.162 1.014m8.643 3.401q-.993 0-1.718-.422a2.9 2.9 0 0 1-1.112-1.185q-.392-.763-.392-1.768 0-1.015.392-1.773a2.85 2.85 0 0 1 1.112-1.185q.725-.426 1.718-.426.992 0 1.713.426.724.421 1.116 1.185.392.758.392 1.773 0 1.005-.392 1.768a2.87 2.87 0 0 1-1.116 1.185q-.72.422-1.713.422m.008-1.407q.452 0 .754-.255.303-.26.456-.708.158-.448.158-1.018t-.158-1.019a1.6 1.6 0 0 0-.456-.707 1.12 1.12 0 0 0-.754-.26q-.456 0-.767.26a1.6 1.6 0 0 0-.464.707 3.1 3.1 0 0 0-.154 1.019q0 .57.154 1.018.157.448.464.708.31.255.767.255m4.262 1.279v-6.546h1.815v6.546zm.911-7.389a1 1 0 0 1-.694-.269.87.87 0 0 1-.286-.652q0-.375.286-.643a.98.98 0 0 1 .694-.273q.405 0 .691.273.29.268.29.643 0 .38-.29.652a.97.97 0 0 1-.691.269m4.041 3.605v3.784h-1.815v-6.546h1.73v1.155h.077q.217-.571.729-.903.51-.337 1.24-.337.68 0 1.189.298.506.298.788.853.28.55.281 1.312v4.168h-1.815v-3.844q.004-.601-.307-.938-.31-.34-.857-.34a1.3 1.3 0 0 0-.647.157 1.1 1.1 0 0 0-.435.46 1.6 1.6 0 0 0-.158.721m8.999-2.762v1.364h-3.941v-1.364zm-3.046-1.568h1.815v6.102q0 .252.077.392a.42.42 0 0 0 .213.192.9.9 0 0 0 .324.056q.127 0 .255-.022l.196-.038.286 1.351a5 5 0 0 1-.384.098q-.247.06-.601.072-.656.026-1.15-.174a1.6 1.6 0 0 1-.763-.623q-.273-.422-.268-1.065zm10.522-.614v8.728h-1.845v-6.976h-.051l-1.999 1.253v-1.637l2.161-1.368z"/><path fill="#fff" stroke="#F6821F" stroke-width="2" d="M964 163.677h117.875v24.927H964z"/><path fill="#222" d="M992.891 179.553v-8.728h5.88v1.522h-4.035v2.079h3.733v1.522h-3.733v2.083h4.052v1.522zm8.999-3.784v3.784h-1.82v-6.546h1.73v1.155h.08c.14-.381.39-.682.73-.903.34-.225.75-.337 1.24-.337.45 0 .85.099 1.19.298.33.199.6.483.78.853.19.366.29.804.29 1.312v4.168h-1.82v-3.844c0-.401-.1-.713-.31-.938-.2-.227-.49-.34-.85-.34-.25 0-.46.052-.65.157-.18.105-.33.259-.43.46-.11.199-.16.439-.16.721m7.93 3.89q-.75 0-1.35-.383-.6-.388-.96-1.138c-.23-.503-.35-1.119-.35-1.849q0-1.125.36-1.871c.25-.5.57-.874.97-1.121q.6-.375 1.32-.375c.37 0 .67.063.92.188.25.122.44.275.6.46.15.182.27.361.34.537h.06v-3.282h1.81v8.728h-1.79v-1.049h-.08q-.12.273-.36.542-.225.264-.6.439c-.24.116-.54.174-.89.174m.57-1.444c.29 0 .54-.08.74-.239.21-.162.36-.388.47-.678.11-.289.17-.629.17-1.018s-.06-.727-.16-1.014a1.5 1.5 0 0 0-.47-.665 1.22 1.22 0 0 0-.75-.234q-.45 0-.75.243c-.21.161-.36.386-.47.673q-.15.43-.15.997 0 .571.15 1.01c.11.29.27.517.47.682q.3.243.75.243m4.51 3.792v-9h1.79v1.1h.08c.08-.176.2-.355.35-.537.15-.185.35-.338.59-.46.25-.125.56-.188.92-.188.48 0 .92.125 1.33.375q.6.37.96 1.121c.24.497.37 1.121.37 1.871q0 1.095-.36 1.849c-.23.5-.55.879-.95 1.138q-.6.383-1.35.383-.525 0-.9-.174a2 2 0 0 1-.6-.439 2.4 2.4 0 0 1-.36-.542h-.05v3.503zm1.78-5.727c0 .389.05.729.16 1.018s.27.516.47.678q.3.239.75.239.435 0 .75-.243c.2-.165.35-.392.46-.682.11-.293.16-.629.16-1.01 0-.378-.05-.71-.16-.997-.1-.287-.26-.512-.46-.673s-.46-.243-.75-.243q-.45 0-.75.234c-.21.156-.36.378-.47.665s-.16.625-.16 1.014m8.64 3.401c-.66 0-1.23-.141-1.72-.422a2.87 2.87 0 0 1-1.11-1.185q-.39-.763-.39-1.768 0-1.015.39-1.773.39-.763 1.11-1.185c.49-.284 1.06-.426 1.72-.426q.99 0 1.71.426c.49.281.86.676 1.12 1.185q.39.758.39 1.773 0 1.005-.39 1.768c-.26.506-.63.901-1.12 1.185q-.72.422-1.71.422m.01-1.407q.45 0 .75-.255c.21-.174.36-.409.46-.708.1-.298.16-.638.16-1.018 0-.381-.06-.72-.16-1.019s-.25-.534-.46-.707q-.3-.26-.75-.26c-.3 0-.56.087-.77.26-.2.173-.36.409-.46.707-.1.299-.16.638-.16 1.019s.06.72.16 1.018.26.534.46.708c.21.17.47.255.77.255m4.26 1.279v-6.546h1.82v6.546zm.91-7.389a.97.97 0 0 1-.69-.269.88.88 0 0 1-.29-.652c0-.25.1-.464.29-.643a.96.96 0 0 1 .69-.273q.405 0 .69.273c.2.179.29.393.29.643 0 .253-.09.47-.29.652a.97.97 0 0 1-.69.269m4.04 3.605v3.784h-1.81v-6.546h1.73v1.155h.08q.21-.571.72-.903c.34-.225.76-.337 1.24-.337.46 0 .85.099 1.19.298s.6.483.79.853c.19.366.28.804.28 1.312v4.168h-1.81v-3.844c0-.401-.1-.713-.31-.938-.21-.227-.49-.34-.86-.34-.24 0-.46.052-.64.157a1.1 1.1 0 0 0-.44.46c-.1.199-.15.439-.16.721m9-2.762v1.364h-3.94v-1.364zm-3.04-1.568h1.81v6.102c0 .168.03.299.08.392q.075.137.21.192.135.056.33.056c.08 0 .17-.008.25-.022.09-.017.15-.03.2-.038l.28 1.351c-.09.028-.22.061-.38.098q-.255.06-.6.072c-.44.017-.82-.041-1.15-.174a1.65 1.65 0 0 1-.77-.623c-.18-.281-.27-.636-.26-1.065zm9.95 8.233c-.64 0-1.21-.109-1.7-.328q-.75-.333-1.17-.912c-.29-.389-.43-.838-.44-1.347h1.85q.03.32.21.563c.13.159.31.283.52.371.22.088.46.132.73.132q.42 0 .75-.149c.21-.1.38-.238.5-.414a1 1 0 0 0 .19-.609c0-.233-.07-.439-.2-.618a1.26 1.26 0 0 0-.55-.426 2.15 2.15 0 0 0-.85-.154h-.82v-1.355h.82c.27 0 .52-.048.73-.145q.33-.144.51-.4c.12-.173.17-.375.17-.605q0-.329-.15-.576a1.1 1.1 0 0 0-.44-.392 1.4 1.4 0 0 0-.65-.14c-.25 0-.47.045-.68.136-.21.088-.38.215-.5.379a.98.98 0 0 0-.2.58h-1.77c.01-.503.15-.946.43-1.33.28-.383.66-.683 1.13-.899a3.8 3.8 0 0 1 1.6-.328c.61 0 1.13.11 1.58.328.46.219.81.514 1.06.887.25.369.37.784.37 1.244q0 .733-.45 1.223c-.31.327-.7.534-1.19.622v.068c.64.083 1.13.306 1.46.669q.51.542.51 1.355c0 .498-.15.939-.43 1.326-.29.386-.69.69-1.19.912q-.765.332-1.74.332"/><path fill="#5E5E5E" d="M141.638 52.726a1.5 1.5 0 0 0 0 3zm79.104 2.56a1.5 1.5 0 0 0 0-2.121l-9.546-9.546a1.5 1.5 0 1 0-2.121 2.121l8.485 8.486-8.485 8.485a1.5 1.5 0 1 0 2.121 2.121zm-79.104.44h78.043v-3h-78.043z"/><path fill="#fff" stroke="#F6821F" stroke-width="2" d="M839 42h117.875v24.927H839z"/><path fill="#222" d="M847.851 57.74v-8.727h5.88v1.52h-4.035v2.08h3.733v1.522h-3.733v2.083h4.052v1.522zm8.997-3.784v3.784h-1.816v-6.546h1.73v1.155h.077q.218-.57.729-.903.511-.337 1.24-.337.682 0 1.189.298.507.299.788.853.282.55.281 1.312v4.168h-1.815v-3.844q.005-.6-.307-.937-.311-.342-.856-.341-.368 0-.648.157-.278.158-.435.46a1.6 1.6 0 0 0-.157.72m7.929 3.89q-.745 0-1.351-.383-.6-.388-.954-1.138-.35-.755-.35-1.85 0-1.125.362-1.87.363-.75.963-1.12.606-.376 1.326-.376.55 0 .916.188.37.183.596.46.23.272.35.537h.055v-3.281h1.811v8.727h-1.789V56.69h-.077a2.3 2.3 0 0 1-.362.542 1.8 1.8 0 0 1-.601.439q-.366.174-.895.174m.575-1.444q.44 0 .742-.239.307-.243.468-.677.167-.435.167-1.019t-.162-1.014a1.45 1.45 0 0 0-.469-.665 1.2 1.2 0 0 0-.746-.234q-.447 0-.754.243a1.5 1.5 0 0 0-.465.673q-.157.431-.157.997 0 .57.157 1.01.162.435.465.682.307.243.754.243m4.51 3.792v-9h1.79v1.1h.081q.119-.264.345-.537.23-.277.596-.46.371-.188.921-.188.716 0 1.321.375.605.37.967 1.12.362.746.362 1.871 0 1.095-.353 1.85-.35.75-.955 1.138-.6.383-1.346.383-.529 0-.9-.174a1.9 1.9 0 0 1-.6-.44 2.2 2.2 0 0 1-.358-.54h-.056v3.502zm1.777-5.727q0 .585.162 1.019.162.435.469.677.306.24.745.239.444 0 .75-.243a1.5 1.5 0 0 0 .465-.682q.162-.44.162-1.01 0-.567-.158-.997a1.5 1.5 0 0 0-.464-.673 1.18 1.18 0 0 0-.755-.243q-.442 0-.75.234a1.5 1.5 0 0 0-.464.665 2.9 2.9 0 0 0-.162 1.014m8.642 3.4q-.993 0-1.717-.421a2.9 2.9 0 0 1-1.112-1.185q-.393-.763-.393-1.768 0-1.016.393-1.773a2.85 2.85 0 0 1 1.112-1.185q.724-.426 1.717-.426t1.713.426a2.85 2.85 0 0 1 1.117 1.185q.392.758.392 1.773 0 1.005-.392 1.768-.393.758-1.117 1.185-.72.422-1.713.422m.009-1.406q.451 0 .754-.255.303-.261.456-.708.157-.447.157-1.018 0-.57-.157-1.019a1.6 1.6 0 0 0-.456-.707 1.12 1.12 0 0 0-.754-.26q-.456 0-.767.26-.308.26-.465.707a3.1 3.1 0 0 0-.153 1.019q0 .57.153 1.018.157.448.465.708.31.255.767.255m4.261 1.279v-6.546h1.815v6.546zm.912-7.39a1 1 0 0 1-.695-.268.87.87 0 0 1-.285-.652q0-.375.285-.643a.98.98 0 0 1 .695-.273q.405 0 .69.273.29.268.29.643 0 .38-.29.652a.97.97 0 0 1-.69.268m4.041 3.606v3.784h-1.815v-6.546h1.73v1.155h.076q.218-.57.729-.903.511-.337 1.24-.337.682 0 1.189.298.507.299.788.853.282.55.282 1.312v4.168h-1.816v-3.844q.005-.6-.306-.937-.312-.342-.857-.341-.366 0-.648.157a1.1 1.1 0 0 0-.434.46 1.6 1.6 0 0 0-.158.72m8.999-2.762v1.364h-3.942v-1.364zm-3.047-1.568h1.815v6.102q0 .252.077.392.077.137.213.192a.9.9 0 0 0 .324.056q.128 0 .256-.022l.196-.038.285 1.35a5 5 0 0 1-.383.099q-.247.06-.601.072-.656.026-1.151-.175a1.6 1.6 0 0 1-.762-.622q-.273-.42-.269-1.065zm12.189 3.435-1.662.102a.86.86 0 0 0-.183-.383 1 1 0 0 0-.371-.278 1.3 1.3 0 0 0-.541-.106q-.422 0-.712.179-.29.174-.29.469 0 .234.188.396.187.162.643.26l1.185.239q.955.195 1.423.63.47.434.469 1.142 0 .645-.379 1.13-.375.485-1.032.758-.651.27-1.504.269-1.3 0-2.071-.542a2.1 2.1 0 0 1-.899-1.483l1.786-.093a.92.92 0 0 0 .392.605q.311.204.796.204.478 0 .768-.183.294-.187.298-.481a.5.5 0 0 0-.209-.405q-.205-.162-.631-.247l-1.133-.226q-.959-.192-1.428-.665-.464-.472-.464-1.206 0-.63.341-1.087.345-.456.967-.703.627-.247 1.466-.247 1.24 0 1.952.524.715.524.835 1.428m4.642-1.867v1.364h-3.942v-1.364zm-3.047-1.568h1.815v6.102q0 .252.077.392.077.137.213.192a.9.9 0 0 0 .324.056q.128 0 .255-.022l.196-.038.286 1.35a5 5 0 0 1-.384.099q-.247.06-.6.072-.657.026-1.151-.175a1.6 1.6 0 0 1-.763-.622q-.273-.42-.268-1.065zm7.01 8.242q-1.01 0-1.739-.41a2.8 2.8 0 0 1-1.116-1.167q-.392-.759-.392-1.794 0-1.01.392-1.773a2.9 2.9 0 0 1 1.103-1.189q.716-.426 1.679-.426.648 0 1.206.209.563.204.98.618.422.413.657 1.04.234.621.234 1.457v.498h-5.527v-1.124h3.818q0-.393-.17-.695a1.2 1.2 0 0 0-.473-.473 1.35 1.35 0 0 0-.695-.175q-.413 0-.733.192-.315.187-.494.507-.178.316-.183.703v1.07q0 .485.179.84.183.353.515.545.333.192.789.192.302 0 .554-.086a1.15 1.15 0 0 0 .43-.255q.179-.17.273-.418l1.679.11q-.128.606-.524 1.058-.393.447-1.015.698-.617.248-1.427.248m7.04 0q-1.01 0-1.739-.41a2.8 2.8 0 0 1-1.116-1.167q-.392-.759-.392-1.794 0-1.01.392-1.773a2.9 2.9 0 0 1 1.103-1.189q.716-.426 1.679-.426.648 0 1.206.209.563.204.98.618.422.413.657 1.04.234.621.234 1.457v.498h-5.527v-1.124h3.818q0-.393-.17-.695a1.23 1.23 0 0 0-.473-.473 1.35 1.35 0 0 0-.695-.175q-.413 0-.733.192-.315.187-.494.507-.18.316-.183.703v1.07q0 .485.179.84.183.353.515.545.333.192.789.192.302 0 .554-.086a1.15 1.15 0 0 0 .43-.255q.179-.17.273-.418l1.679.11q-.128.606-.525 1.058a2.6 2.6 0 0 1-1.014.698q-.618.248-1.427.248m4.057-.128v-6.546h1.76v1.142h.068q.178-.61.601-.92.422-.315.971-.316a2.7 2.7 0 0 1 .571.064v1.611a2.4 2.4 0 0 0-.353-.068 3 3 0 0 0-.414-.03q-.4 0-.716.175a1.3 1.3 0 0 0-.494.477q-.179.307-.179.708v3.703zm4.778 0v-6.546h1.815v6.546zm.912-7.39a1 1 0 0 1-.695-.268.87.87 0 0 1-.285-.652q0-.375.285-.643a.98.98 0 0 1 .695-.273q.405 0 .69.273.29.268.29.643 0 .38-.29.652a.97.97 0 0 1-.69.268m4.041 3.606v3.784h-1.816v-6.546h1.73v1.155h.077q.217-.57.729-.903.511-.337 1.24-.337.681 0 1.189.298.507.299.788.853.282.55.281 1.312v4.168h-1.815v-3.844q.005-.6-.307-.937-.311-.342-.856-.341-.368 0-.648.157-.278.158-.435.46a1.6 1.6 0 0 0-.157.72m8.466 6.375q-.882 0-1.513-.243-.626-.24-.997-.652a2 2 0 0 1-.481-.93l1.679-.225a1.1 1.1 0 0 0 .681.64q.277.106.674.106.593 0 .975-.29.388-.285.388-.959v-1.197h-.076a1.74 1.74 0 0 1-.972.912q-.375.153-.895.153-.737 0-1.342-.34-.601-.346-.959-1.053-.354-.712-.354-1.799 0-1.111.362-1.858.363-.746.964-1.116.605-.37 1.325-.37.55 0 .92.187.37.183.597.46.23.272.354.537h.068v-1.1h1.802v6.61q0 .834-.409 1.397t-1.133.844q-.72.286-1.658.286m.038-4.049q.44 0 .742-.217.306-.222.469-.63.165-.414.166-.99 0-.575-.162-.996a1.46 1.46 0 0 0-.469-.661 1.2 1.2 0 0 0-.746-.234q-.447 0-.754.243a1.46 1.46 0 0 0-.464.664 2.8 2.8 0 0 0-.158.985q0 .567.158.98.161.409.464.635.307.221.754.221"/><path fill="#5E5E5E" d="M896.438 152.677a1.5 1.5 0 1 0 3 0zm3 0v-80.75h-3v80.75zm62.437-100.321a1.5 1.5 0 0 0 0 3zm78.865 2.56c.59-.586.59-1.535 0-2.121l-9.54-9.546a1.51 1.51 0 0 0-2.13 0 1.51 1.51 0 0 0 0 2.121l8.49 8.486-8.49 8.485a1.51 1.51 0 0 0 0 2.121 1.51 1.51 0 0 0 2.13 0zm-78.865.44h77.805v-3h-77.805zm-205-2.766a1.5 1.5 0 0 0 0 3zm78.867 2.56a1.5 1.5 0 0 0 0-2.121l-9.546-9.546a1.5 1.5 0 1 0-2.121 2.121l8.485 8.485-8.485 8.486a1.5 1.5 0 1 0 2.121 2.121zm-78.867.44h77.806v-3h-77.806z"/></svg>