<svg width="791" height="615" viewBox="0 0 791 615" fill="none" xmlns="http://www.w3.org/2000/svg">
<rect width="791" height="615" fill="white"/>
<path d="M740.011 582V570.364H742.472V579.972H747.46V582H740.011ZM752.811 582.17C751.929 582.17 751.165 581.983 750.521 581.608C749.881 581.229 749.387 580.703 749.038 580.028C748.69 579.35 748.516 578.564 748.516 577.67C748.516 576.769 748.69 575.981 749.038 575.307C749.387 574.629 749.881 574.102 750.521 573.727C751.165 573.348 751.929 573.159 752.811 573.159C753.694 573.159 754.455 573.348 755.095 573.727C755.739 574.102 756.235 574.629 756.584 575.307C756.932 575.981 757.107 576.769 757.107 577.67C757.107 578.564 756.932 579.35 756.584 580.028C756.235 580.703 755.739 581.229 755.095 581.608C754.455 581.983 753.694 582.17 752.811 582.17ZM752.823 580.295C753.224 580.295 753.559 580.182 753.828 579.955C754.097 579.723 754.3 579.409 754.436 579.011C754.576 578.614 754.646 578.161 754.646 577.653C754.646 577.146 754.576 576.693 754.436 576.295C754.3 575.898 754.097 575.583 753.828 575.352C753.559 575.121 753.224 575.006 752.823 575.006C752.417 575.006 752.076 575.121 751.8 575.352C751.527 575.583 751.321 575.898 751.181 576.295C751.044 576.693 750.976 577.146 750.976 577.653C750.976 578.161 751.044 578.614 751.181 579.011C751.321 579.409 751.527 579.723 751.8 579.955C752.076 580.182 752.417 580.295 752.823 580.295ZM760.007 582L757.632 573.273H760.081L761.434 579.136H761.513L762.922 573.273H765.326L766.757 579.102H766.831L768.161 573.273H770.604L768.235 582H765.672L764.172 576.511H764.064L762.564 582H760.007Z" fill="#222222"/>
<path d="M740.011 50V38.3636H742.472V43.1648H747.466V38.3636H749.92V50H747.466V45.1932H742.472V50H740.011ZM751.727 50V41.2727H754.148V50H751.727ZM752.943 40.1477C752.583 40.1477 752.275 40.0284 752.017 39.7898C751.763 39.5473 751.637 39.2576 751.637 38.9205C751.637 38.5871 751.763 38.3011 752.017 38.0625C752.275 37.8201 752.583 37.6989 752.943 37.6989C753.303 37.6989 753.61 37.8201 753.864 38.0625C754.121 38.3011 754.25 38.5871 754.25 38.9205C754.25 39.2576 754.121 39.5473 753.864 39.7898C753.61 40.0284 753.303 40.1477 752.943 40.1477ZM759.843 53.4545C759.059 53.4545 758.386 53.3466 757.826 53.1307C757.269 52.9186 756.826 52.6288 756.496 52.2614C756.166 51.8939 755.952 51.4811 755.854 51.0227L758.093 50.7216C758.161 50.8958 758.269 51.0587 758.416 51.2102C758.564 51.3617 758.759 51.483 759.002 51.5739C759.248 51.6686 759.547 51.7159 759.899 51.7159C760.426 51.7159 760.86 51.5871 761.201 51.3295C761.545 51.0758 761.718 50.6496 761.718 50.0511V48.4545H761.615C761.509 48.697 761.35 48.9261 761.138 49.142C760.926 49.358 760.653 49.5341 760.32 49.6705C759.987 49.8068 759.589 49.875 759.127 49.875C758.471 49.875 757.875 49.7235 757.337 49.4205C756.803 49.1136 756.377 48.6458 756.059 48.017C755.744 47.3845 755.587 46.5852 755.587 45.6193C755.587 44.6307 755.748 43.8049 756.07 43.142C756.392 42.4792 756.82 41.983 757.354 41.6534C757.892 41.3239 758.481 41.1591 759.121 41.1591C759.61 41.1591 760.019 41.2424 760.348 41.4091C760.678 41.572 760.943 41.7765 761.144 42.0227C761.348 42.2652 761.505 42.5038 761.615 42.7386H761.706V41.2727H764.11V50.0852C764.11 50.8277 763.928 51.4489 763.564 51.9489C763.201 52.4489 762.697 52.8239 762.053 53.0739C761.413 53.3277 760.676 53.4545 759.843 53.4545ZM759.894 48.0568C760.284 48.0568 760.613 47.9602 760.882 47.767C761.155 47.5701 761.363 47.2898 761.507 46.9261C761.655 46.5587 761.729 46.1193 761.729 45.608C761.729 45.0966 761.657 44.6534 761.513 44.2784C761.369 43.8996 761.161 43.6061 760.888 43.3977C760.615 43.1894 760.284 43.0852 759.894 43.0852C759.496 43.0852 759.161 43.1932 758.888 43.4091C758.615 43.6212 758.409 43.9167 758.269 44.2955C758.129 44.6742 758.059 45.1117 758.059 45.608C758.059 46.1117 758.129 46.5473 758.269 46.9148C758.413 47.2784 758.619 47.5606 758.888 47.7614C759.161 47.9583 759.496 48.0568 759.894 48.0568ZM768.28 44.9545V50H765.86V38.3636H768.212V42.8125H768.314C768.511 42.2973 768.829 41.8939 769.269 41.6023C769.708 41.3068 770.259 41.1591 770.922 41.1591C771.528 41.1591 772.057 41.2917 772.508 41.5568C772.962 41.8182 773.314 42.1951 773.564 42.6875C773.818 43.1761 773.943 43.7614 773.939 44.4432V50H771.519V44.875C771.523 44.3371 771.386 43.9186 771.11 43.6193C770.837 43.3201 770.454 43.1705 769.962 43.1705C769.633 43.1705 769.341 43.2405 769.087 43.3807C768.837 43.5208 768.64 43.7254 768.496 43.9943C768.356 44.2595 768.284 44.5795 768.28 44.9545Z" fill="#222222"/>
<path d="M680.103 33V21.3636H682.564V30.9716H687.552V33H680.103ZM692.903 33.1705C692.021 33.1705 691.258 32.983 690.614 32.608C689.973 32.2292 689.479 31.7027 689.131 31.0284C688.782 30.3504 688.608 29.5644 688.608 28.6705C688.608 27.7689 688.782 26.9811 689.131 26.3068C689.479 25.6288 689.973 25.1023 690.614 24.7273C691.258 24.3485 692.021 24.1591 692.903 24.1591C693.786 24.1591 694.547 24.3485 695.187 24.7273C695.831 25.1023 696.328 25.6288 696.676 26.3068C697.025 26.9811 697.199 27.7689 697.199 28.6705C697.199 29.5644 697.025 30.3504 696.676 31.0284C696.328 31.7027 695.831 32.2292 695.187 32.608C694.547 32.983 693.786 33.1705 692.903 33.1705ZM692.915 31.2955C693.316 31.2955 693.651 31.1818 693.92 30.9545C694.189 30.7235 694.392 30.4091 694.528 30.0114C694.668 29.6136 694.739 29.161 694.739 28.6534C694.739 28.1458 694.668 27.6932 694.528 27.2955C694.392 26.8977 694.189 26.5833 693.92 26.3523C693.651 26.1212 693.316 26.0057 692.915 26.0057C692.509 26.0057 692.168 26.1212 691.892 26.3523C691.619 26.5833 691.413 26.8977 691.273 27.2955C691.136 27.6932 691.068 28.1458 691.068 28.6534C691.068 29.161 691.136 29.6136 691.273 30.0114C691.413 30.4091 691.619 30.7235 691.892 30.9545C692.168 31.1818 692.509 31.2955 692.915 31.2955ZM701.085 33.1648C700.528 33.1648 700.032 33.0682 699.597 32.875C699.161 32.678 698.816 32.3883 698.563 32.0057C698.313 31.6193 698.188 31.1383 698.188 30.5625C698.188 30.0777 698.277 29.6705 698.455 29.3409C698.633 29.0114 698.875 28.7462 699.182 28.5455C699.489 28.3447 699.837 28.1932 700.227 28.0909C700.621 27.9886 701.034 27.9167 701.466 27.875C701.974 27.822 702.383 27.7727 702.693 27.7273C703.004 27.678 703.229 27.6061 703.369 27.5114C703.51 27.4167 703.58 27.2765 703.58 27.0909V27.0568C703.58 26.697 703.466 26.4186 703.239 26.2216C703.015 26.0246 702.697 25.9261 702.284 25.9261C701.849 25.9261 701.502 26.0227 701.244 26.2159C700.987 26.4053 700.816 26.6439 700.733 26.9318L698.494 26.75C698.608 26.2197 698.832 25.7614 699.165 25.375C699.498 24.9848 699.928 24.6856 700.455 24.4773C700.985 24.2652 701.599 24.1591 702.296 24.1591C702.78 24.1591 703.244 24.2159 703.688 24.3295C704.135 24.4432 704.53 24.6193 704.875 24.858C705.224 25.0966 705.498 25.4034 705.699 25.7784C705.9 26.1496 706 26.5947 706 27.1136V33H703.705V31.7898H703.636C703.496 32.0625 703.309 32.303 703.074 32.5114C702.839 32.7159 702.557 32.8769 702.227 32.9943C701.898 33.108 701.517 33.1648 701.085 33.1648ZM701.778 31.4943C702.135 31.4943 702.449 31.4242 702.722 31.2841C702.994 31.1402 703.208 30.947 703.364 30.7045C703.519 30.4621 703.597 30.1875 703.597 29.8807V28.9545C703.521 29.0038 703.417 29.0492 703.284 29.0909C703.155 29.1288 703.01 29.1648 702.847 29.1989C702.684 29.2292 702.521 29.2576 702.358 29.2841C702.195 29.3068 702.047 29.3277 701.915 29.3466C701.631 29.3883 701.383 29.4545 701.171 29.5455C700.958 29.6364 700.794 29.7595 700.676 29.9148C700.559 30.0663 700.5 30.2557 700.5 30.483C700.5 30.8125 700.619 31.0644 700.858 31.2386C701.1 31.4091 701.407 31.4943 701.778 31.4943ZM710.918 33.142C710.255 33.142 709.655 32.9716 709.117 32.6307C708.583 32.286 708.158 31.7803 707.844 31.1136C707.533 30.4432 707.378 29.6212 707.378 28.6477C707.378 27.6477 707.539 26.8163 707.861 26.1534C708.183 25.4867 708.611 24.9886 709.145 24.6591C709.683 24.3258 710.272 24.1591 710.912 24.1591C711.401 24.1591 711.808 24.2424 712.134 24.4091C712.463 24.572 712.728 24.7765 712.929 25.0227C713.134 25.2652 713.289 25.5038 713.395 25.7386H713.469V21.3636H715.884V33H713.497V31.6023H713.395C713.281 31.8447 713.12 32.0852 712.912 32.3239C712.708 32.5587 712.441 32.7538 712.111 32.9091C711.785 33.0644 711.388 33.142 710.918 33.142ZM711.685 31.2159C712.075 31.2159 712.405 31.1098 712.674 30.8977C712.946 30.6818 713.155 30.3807 713.299 29.9943C713.446 29.608 713.52 29.1553 713.52 28.6364C713.52 28.1174 713.448 27.6667 713.304 27.2841C713.16 26.9015 712.952 26.6061 712.679 26.3977C712.406 26.1894 712.075 26.0852 711.685 26.0852C711.287 26.0852 710.952 26.1932 710.679 26.4091C710.406 26.625 710.2 26.9242 710.06 27.3068C709.92 27.6894 709.85 28.1326 709.85 28.6364C709.85 29.1439 709.92 29.5928 710.06 29.983C710.204 30.3693 710.41 30.6723 710.679 30.892C710.952 31.108 711.287 31.2159 711.685 31.2159Z" fill="#222222"/>
<rect x="664.5" y="37.5" width="67" height="544" fill="url(#paint0_linear_269_394)" stroke="black"/>
<path d="M520.507 40.1982H517V58.2483H520.507V40.1982Z" fill="#0055DC"/>
<path d="M612 40.1982H608.493V58.2483H612V40.1982Z" fill="#0055DC"/>
<path d="M525.31 61.4645L525.31 64.8899L603.687 64.8858L603.687 61.4604L525.31 61.4645Z" fill="white" stroke="#0055DC" stroke-width="1.5" stroke-miterlimit="10"/>
<path d="M608.492 37H520.507V61.4616H608.492V37Z" fill="#C5EBF5" stroke="#0055DC" stroke-width="1.5" stroke-miterlimit="10"/>
<path d="M604.692 58.0123V40.4485L524.308 40.4485V58.0123H604.692Z" fill="#00A800"/>
<path d="M530.832 45.4077H528.885V47.31H530.832V45.4077Z" fill="#0055DC"/>
<path d="M530.832 51.1333H528.885V53.0356H530.832V51.1333Z" fill="#0055DC"/>
<path d="M533.499 48.1167H531.551V50.019H533.499V48.1167Z" fill="#0055DC"/>
<path d="M535.869 45.4077H533.922V47.31H535.869V45.4077Z" fill="#0055DC"/>
<path d="M535.869 51.1333H533.922V53.0356H535.869V51.1333Z" fill="#0055DC"/>
<path d="M538.389 48.1167H536.441V50.019H538.389V48.1167Z" fill="#0055DC"/>
<path d="M541.369 45.4077H539.422V47.31H541.369V45.4077Z" fill="#0055DC"/>
<path d="M541.369 51.1333H539.422V53.0356H541.369V51.1333Z" fill="#0055DC"/>
<path d="M543.888 48.1167H541.941V50.019H543.888V48.1167Z" fill="#0055DC"/>
<path d="M546.953 45.4077H545.005V47.31H546.953V45.4077Z" fill="#0055DC"/>
<path d="M546.953 51.1333H545.005V53.0356H546.953V51.1333Z" fill="#0055DC"/>
<path d="M549.324 48.1167H547.376V50.019H549.324V48.1167Z" fill="#0055DC"/>
<path d="M551.99 45.4077H550.042V47.31H551.99V45.4077Z" fill="#0055DC"/>
<path d="M551.99 51.1333H550.042V53.0356H551.99V51.1333Z" fill="#0055DC"/>
<path d="M554.214 48.1167H552.266V50.019H554.214V48.1167Z" fill="#0055DC"/>
<path d="M557.029 45.4077H555.081V47.31H557.029V45.4077Z" fill="#0055DC"/>
<path d="M557.029 51.1333H555.081V53.0356H557.029V51.1333Z" fill="#0055DC"/>
<path d="M559.104 48.1167H557.157V50.019H559.104V48.1167Z" fill="#0055DC"/>
<path d="M598.306 51.5923C599.641 51.5923 600.724 50.5351 600.724 49.2309C600.724 47.9267 599.641 46.8694 598.306 46.8694C596.971 46.8694 595.888 47.9267 595.888 49.2309C595.888 50.5351 596.971 51.5923 598.306 51.5923Z" fill="#0055DC"/>
<path d="M591.354 49.2307H565.748" stroke="#0055DC" stroke-width="1.5" stroke-miterlimit="10"/>
<path d="M520.507 126.198H517V144.248H520.507V126.198Z" fill="#0055DC"/>
<path d="M612 126.198H608.493V144.248H612V126.198Z" fill="#0055DC"/>
<path d="M525.31 147.464L525.31 150.89L603.687 150.886L603.687 147.46L525.31 147.464Z" fill="white" stroke="#0055DC" stroke-width="1.5" stroke-miterlimit="10"/>
<path d="M608.492 123H520.507V147.462H608.492V123Z" fill="#C5EBF5" stroke="#0055DC" stroke-width="1.5" stroke-miterlimit="10"/>
<path d="M604.692 144.012V126.448H524.308V144.012H604.692Z" fill="#DC8C00"/>
<path d="M530.832 131.408H528.885V133.31H530.832V131.408Z" fill="#0055DC"/>
<path d="M530.832 137.133H528.885V139.036H530.832V137.133Z" fill="#0055DC"/>
<path d="M533.499 134.117H531.551V136.019H533.499V134.117Z" fill="#0055DC"/>
<path d="M535.869 131.408H533.922V133.31H535.869V131.408Z" fill="#0055DC"/>
<path d="M535.869 137.133H533.922V139.036H535.869V137.133Z" fill="#0055DC"/>
<path d="M538.389 134.117H536.441V136.019H538.389V134.117Z" fill="#0055DC"/>
<path d="M541.369 131.408H539.422V133.31H541.369V131.408Z" fill="#0055DC"/>
<path d="M541.369 137.133H539.422V139.036H541.369V137.133Z" fill="#0055DC"/>
<path d="M543.888 134.117H541.941V136.019H543.888V134.117Z" fill="#0055DC"/>
<path d="M546.953 131.408H545.005V133.31H546.953V131.408Z" fill="#0055DC"/>
<path d="M546.953 137.133H545.005V139.036H546.953V137.133Z" fill="#0055DC"/>
<path d="M549.324 134.117H547.376V136.019H549.324V134.117Z" fill="#0055DC"/>
<path d="M551.99 131.408H550.042V133.31H551.99V131.408Z" fill="#0055DC"/>
<path d="M551.99 137.133H550.042V139.036H551.99V137.133Z" fill="#0055DC"/>
<path d="M554.214 134.117H552.266V136.019H554.214V134.117Z" fill="#0055DC"/>
<path d="M557.029 131.408H555.081V133.31H557.029V131.408Z" fill="#0055DC"/>
<path d="M557.029 137.133H555.081V139.036H557.029V137.133Z" fill="#0055DC"/>
<path d="M559.104 134.117H557.157V136.019H559.104V134.117Z" fill="#0055DC"/>
<path d="M598.306 137.592C599.641 137.592 600.724 136.535 600.724 135.231C600.724 133.927 599.641 132.869 598.306 132.869C596.971 132.869 595.888 133.927 595.888 135.231C595.888 136.535 596.971 137.592 598.306 137.592Z" fill="#0055DC"/>
<path d="M591.354 135.231H565.748" stroke="#0055DC" stroke-width="1.5" stroke-miterlimit="10"/>
<path d="M520.507 556.198H517V574.248H520.507V556.198Z" fill="#0055DC"/>
<path d="M612 556.198H608.493V574.248H612V556.198Z" fill="#0055DC"/>
<path d="M525.31 577.464L525.31 580.89L603.687 580.886L603.687 577.46L525.31 577.464Z" fill="white" stroke="#0055DC" stroke-width="1.5" stroke-miterlimit="10"/>
<path d="M608.492 553H520.507V577.462H608.492V553Z" fill="#C5EBF5" stroke="#0055DC" stroke-width="1.5" stroke-miterlimit="10"/>
<path d="M604.692 574.012V556.448H524.308V574.012H604.692Z" fill="#00A800"/>
<path d="M530.832 561.408H528.885V563.31H530.832V561.408Z" fill="#0055DC"/>
<path d="M530.832 567.133H528.885V569.036H530.832V567.133Z" fill="#0055DC"/>
<path d="M533.499 564.117H531.551V566.019H533.499V564.117Z" fill="#0055DC"/>
<path d="M535.869 561.408H533.922V563.31H535.869V561.408Z" fill="#0055DC"/>
<path d="M535.869 567.133H533.922V569.036H535.869V567.133Z" fill="#0055DC"/>
<path d="M538.389 564.117H536.441V566.019H538.389V564.117Z" fill="#0055DC"/>
<path d="M541.369 561.408H539.422V563.31H541.369V561.408Z" fill="#0055DC"/>
<path d="M541.369 567.133H539.422V569.036H541.369V567.133Z" fill="#0055DC"/>
<path d="M543.888 564.117H541.941V566.019H543.888V564.117Z" fill="#0055DC"/>
<path d="M546.953 561.408H545.005V563.31H546.953V561.408Z" fill="#0055DC"/>
<path d="M546.953 567.133H545.005V569.036H546.953V567.133Z" fill="#0055DC"/>
<path d="M549.324 564.117H547.376V566.019H549.324V564.117Z" fill="#0055DC"/>
<path d="M551.99 561.408H550.042V563.31H551.99V561.408Z" fill="#0055DC"/>
<path d="M551.99 567.133H550.042V569.036H551.99V567.133Z" fill="#0055DC"/>
<path d="M554.214 564.117H552.266V566.019H554.214V564.117Z" fill="#0055DC"/>
<path d="M557.029 561.408H555.081V563.31H557.029V561.408Z" fill="#0055DC"/>
<path d="M557.029 567.133H555.081V569.036H557.029V567.133Z" fill="#0055DC"/>
<path d="M559.104 564.117H557.157V566.019H559.104V564.117Z" fill="#0055DC"/>
<path d="M598.306 567.592C599.641 567.592 600.724 566.535 600.724 565.231C600.724 563.927 599.641 562.869 598.306 562.869C596.971 562.869 595.888 563.927 595.888 565.231C595.888 566.535 596.971 567.592 598.306 567.592Z" fill="#0055DC"/>
<path d="M591.354 565.231H565.748" stroke="#0055DC" stroke-width="1.5" stroke-miterlimit="10"/>
<path d="M522.507 214.198H519V232.248H522.507V214.198Z" fill="#0055DC"/>
<path d="M614 214.198H610.493V232.248H614V214.198Z" fill="#0055DC"/>
<path d="M527.31 235.464L527.31 238.89L605.687 238.886L605.687 235.46L527.31 235.464Z" fill="white" stroke="#0055DC" stroke-width="1.5" stroke-miterlimit="10"/>
<path d="M610.492 211H522.507V235.462H610.492V211Z" fill="#C5EBF5" stroke="#0055DC" stroke-width="1.5" stroke-miterlimit="10"/>
<path d="M606.692 232.012V214.448H526.308V232.012H606.692Z" fill="#00A800"/>
<path d="M532.832 219.408H530.885V221.31H532.832V219.408Z" fill="#0055DC"/>
<path d="M532.832 225.133H530.885V227.036H532.832V225.133Z" fill="#0055DC"/>
<path d="M535.499 222.117H533.551V224.019H535.499V222.117Z" fill="#0055DC"/>
<path d="M537.869 219.408H535.922V221.31H537.869V219.408Z" fill="#0055DC"/>
<path d="M537.869 225.133H535.922V227.036H537.869V225.133Z" fill="#0055DC"/>
<path d="M540.389 222.117H538.441V224.019H540.389V222.117Z" fill="#0055DC"/>
<path d="M543.369 219.408H541.422V221.31H543.369V219.408Z" fill="#0055DC"/>
<path d="M543.369 225.133H541.422V227.036H543.369V225.133Z" fill="#0055DC"/>
<path d="M545.888 222.117H543.941V224.019H545.888V222.117Z" fill="#0055DC"/>
<path d="M548.953 219.408H547.005V221.31H548.953V219.408Z" fill="#0055DC"/>
<path d="M548.953 225.133H547.005V227.036H548.953V225.133Z" fill="#0055DC"/>
<path d="M551.324 222.117H549.376V224.019H551.324V222.117Z" fill="#0055DC"/>
<path d="M553.99 219.408H552.042V221.31H553.99V219.408Z" fill="#0055DC"/>
<path d="M553.99 225.133H552.042V227.036H553.99V225.133Z" fill="#0055DC"/>
<path d="M556.214 222.117H554.266V224.019H556.214V222.117Z" fill="#0055DC"/>
<path d="M559.029 219.408H557.081V221.31H559.029V219.408Z" fill="#0055DC"/>
<path d="M559.029 225.133H557.081V227.036H559.029V225.133Z" fill="#0055DC"/>
<path d="M561.104 222.117H559.157V224.019H561.104V222.117Z" fill="#0055DC"/>
<path d="M600.306 225.592C601.641 225.592 602.724 224.535 602.724 223.231C602.724 221.927 601.641 220.869 600.306 220.869C598.971 220.869 597.888 221.927 597.888 223.231C597.888 224.535 598.971 225.592 600.306 225.592Z" fill="#0055DC"/>
<path d="M593.354 223.231H567.748" stroke="#0055DC" stroke-width="1.5" stroke-miterlimit="10"/>
<path d="M520.507 300.198H517V318.248H520.507V300.198Z" fill="#0055DC"/>
<path d="M612 300.198H608.493V318.248H612V300.198Z" fill="#0055DC"/>
<path d="M525.31 321.464L525.31 324.89L603.687 324.886L603.687 321.46L525.31 321.464Z" fill="white" stroke="#0055DC" stroke-width="1.5" stroke-miterlimit="10"/>
<path d="M608.492 297H520.507V321.462H608.492V297Z" fill="#C5EBF5" stroke="#0055DC" stroke-width="1.5" stroke-miterlimit="10"/>
<path d="M604.692 318.012V300.448H524.308V318.012H604.692Z" fill="#00A800"/>
<path d="M530.832 305.408H528.885V307.31H530.832V305.408Z" fill="#0055DC"/>
<path d="M530.832 311.133H528.885V313.036H530.832V311.133Z" fill="#0055DC"/>
<path d="M533.499 308.117H531.551V310.019H533.499V308.117Z" fill="#0055DC"/>
<path d="M535.869 305.408H533.922V307.31H535.869V305.408Z" fill="#0055DC"/>
<path d="M535.869 311.133H533.922V313.036H535.869V311.133Z" fill="#0055DC"/>
<path d="M538.389 308.117H536.441V310.019H538.389V308.117Z" fill="#0055DC"/>
<path d="M541.369 305.408H539.422V307.31H541.369V305.408Z" fill="#0055DC"/>
<path d="M541.369 311.133H539.422V313.036H541.369V311.133Z" fill="#0055DC"/>
<path d="M543.888 308.117H541.941V310.019H543.888V308.117Z" fill="#0055DC"/>
<path d="M546.953 305.408H545.005V307.31H546.953V305.408Z" fill="#0055DC"/>
<path d="M546.953 311.133H545.005V313.036H546.953V311.133Z" fill="#0055DC"/>
<path d="M549.324 308.117H547.376V310.019H549.324V308.117Z" fill="#0055DC"/>
<path d="M551.99 305.408H550.042V307.31H551.99V305.408Z" fill="#0055DC"/>
<path d="M551.99 311.133H550.042V313.036H551.99V311.133Z" fill="#0055DC"/>
<path d="M554.214 308.117H552.266V310.019H554.214V308.117Z" fill="#0055DC"/>
<path d="M557.029 305.408H555.081V307.31H557.029V305.408Z" fill="#0055DC"/>
<path d="M557.029 311.133H555.081V313.036H557.029V311.133Z" fill="#0055DC"/>
<path d="M559.104 308.117H557.157V310.019H559.104V308.117Z" fill="#0055DC"/>
<path d="M598.306 311.592C599.641 311.592 600.724 310.535 600.724 309.231C600.724 307.927 599.641 306.869 598.306 306.869C596.971 306.869 595.888 307.927 595.888 309.231C595.888 310.535 596.971 311.592 598.306 311.592Z" fill="#0055DC"/>
<path d="M591.354 309.231H565.748" stroke="#0055DC" stroke-width="1.5" stroke-miterlimit="10"/>
<path d="M520.507 386.198H517V404.248H520.507V386.198Z" fill="#0055DC"/>
<path d="M612 386.198H608.493V404.248H612V386.198Z" fill="#0055DC"/>
<path d="M525.31 407.464L525.31 410.89L603.687 410.886L603.687 407.46L525.31 407.464Z" fill="white" stroke="#0055DC" stroke-width="1.5" stroke-miterlimit="10"/>
<path d="M608.492 383H520.507V407.462H608.492V383Z" fill="#C5EBF5" stroke="#0055DC" stroke-width="1.5" stroke-miterlimit="10"/>
<path d="M604.692 404.012V386.448H524.308V404.012H604.692Z" fill="#DC0000"/>
<path d="M530.832 391.408H528.885V393.31H530.832V391.408Z" fill="#0055DC"/>
<path d="M530.832 397.133H528.885V399.036H530.832V397.133Z" fill="#0055DC"/>
<path d="M533.499 394.117H531.551V396.019H533.499V394.117Z" fill="#0055DC"/>
<path d="M535.869 391.408H533.922V393.31H535.869V391.408Z" fill="#0055DC"/>
<path d="M535.869 397.133H533.922V399.036H535.869V397.133Z" fill="#0055DC"/>
<path d="M538.389 394.117H536.441V396.019H538.389V394.117Z" fill="#0055DC"/>
<path d="M541.369 391.408H539.422V393.31H541.369V391.408Z" fill="#0055DC"/>
<path d="M541.369 397.133H539.422V399.036H541.369V397.133Z" fill="#0055DC"/>
<path d="M543.888 394.117H541.941V396.019H543.888V394.117Z" fill="#0055DC"/>
<path d="M546.953 391.408H545.005V393.31H546.953V391.408Z" fill="#0055DC"/>
<path d="M546.953 397.133H545.005V399.036H546.953V397.133Z" fill="#0055DC"/>
<path d="M549.324 394.117H547.376V396.019H549.324V394.117Z" fill="#0055DC"/>
<path d="M551.99 391.408H550.042V393.31H551.99V391.408Z" fill="#0055DC"/>
<path d="M551.99 397.133H550.042V399.036H551.99V397.133Z" fill="#0055DC"/>
<path d="M554.214 394.117H552.266V396.019H554.214V394.117Z" fill="#0055DC"/>
<path d="M557.029 391.408H555.081V393.31H557.029V391.408Z" fill="#0055DC"/>
<path d="M557.029 397.133H555.081V399.036H557.029V397.133Z" fill="#0055DC"/>
<path d="M559.104 394.117H557.157V396.019H559.104V394.117Z" fill="#0055DC"/>
<path d="M598.306 397.592C599.641 397.592 600.724 396.535 600.724 395.231C600.724 393.927 599.641 392.869 598.306 392.869C596.971 392.869 595.888 393.927 595.888 395.231C595.888 396.535 596.971 397.592 598.306 397.592Z" fill="#0055DC"/>
<path d="M591.354 395.231H565.748" stroke="#0055DC" stroke-width="1.5" stroke-miterlimit="10"/>
<path d="M520.507 470.198H517V488.248H520.507V470.198Z" fill="#0055DC"/>
<path d="M612 470.198H608.493V488.248H612V470.198Z" fill="#0055DC"/>
<path d="M525.31 491.464L525.31 494.89L603.687 494.886L603.687 491.46L525.31 491.464Z" fill="white" stroke="#0055DC" stroke-width="1.5" stroke-miterlimit="10"/>
<path d="M608.492 467H520.507V491.462H608.492V467Z" fill="#C5EBF5" stroke="#0055DC" stroke-width="1.5" stroke-miterlimit="10"/>
<path d="M604.692 488.012V470.448H524.308V488.012H604.692Z" fill="#00A800"/>
<path d="M530.832 475.408H528.885V477.31H530.832V475.408Z" fill="#0055DC"/>
<path d="M530.832 481.133H528.885V483.036H530.832V481.133Z" fill="#0055DC"/>
<path d="M533.499 478.117H531.551V480.019H533.499V478.117Z" fill="#0055DC"/>
<path d="M535.869 475.408H533.922V477.31H535.869V475.408Z" fill="#0055DC"/>
<path d="M535.869 481.133H533.922V483.036H535.869V481.133Z" fill="#0055DC"/>
<path d="M538.389 478.117H536.441V480.019H538.389V478.117Z" fill="#0055DC"/>
<path d="M541.369 475.408H539.422V477.31H541.369V475.408Z" fill="#0055DC"/>
<path d="M541.369 481.133H539.422V483.036H541.369V481.133Z" fill="#0055DC"/>
<path d="M543.888 478.117H541.941V480.019H543.888V478.117Z" fill="#0055DC"/>
<path d="M546.953 475.408H545.005V477.31H546.953V475.408Z" fill="#0055DC"/>
<path d="M546.953 481.133H545.005V483.036H546.953V481.133Z" fill="#0055DC"/>
<path d="M549.324 478.117H547.376V480.019H549.324V478.117Z" fill="#0055DC"/>
<path d="M551.99 475.408H550.042V477.31H551.99V475.408Z" fill="#0055DC"/>
<path d="M551.99 481.133H550.042V483.036H551.99V481.133Z" fill="#0055DC"/>
<path d="M554.214 478.117H552.266V480.019H554.214V478.117Z" fill="#0055DC"/>
<path d="M557.029 475.408H555.081V477.31H557.029V475.408Z" fill="#0055DC"/>
<path d="M557.029 481.133H555.081V483.036H557.029V481.133Z" fill="#0055DC"/>
<path d="M559.104 478.117H557.157V480.019H559.104V478.117Z" fill="#0055DC"/>
<path d="M598.306 481.592C599.641 481.592 600.724 480.535 600.724 479.231C600.724 477.927 599.641 476.869 598.306 476.869C596.971 476.869 595.888 477.927 595.888 479.231C595.888 480.535 596.971 481.592 598.306 481.592Z" fill="#0055DC"/>
<path d="M591.354 479.231H565.748" stroke="#0055DC" stroke-width="1.5" stroke-miterlimit="10"/>
<path fill-rule="evenodd" clip-rule="evenodd" d="M119.487 103H27.2644C24.8206 103 22.634 105.058 22.634 107.63V168.212H124.118V107.63C124.118 105.058 121.931 103 119.487 103Z" fill="#C5EBF5" stroke="#0055DC" stroke-width="1.5" stroke-miterlimit="10"/>
<path d="M73.3116 107.502C73.7378 107.502 74.0834 107.156 74.0834 106.73C74.0834 106.304 73.7378 105.958 73.3116 105.958C72.8854 105.958 72.5399 106.304 72.5399 106.73C72.5399 107.156 72.8854 107.502 73.3116 107.502Z" fill="#0055DC"/>
<path d="M128.105 172.843H18.518C12.8586 172.843 8.99988 171.942 8.99988 171.17V168.598C8.99988 168.341 9.25712 168.083 9.51437 168.083H136.98C137.237 168.083 137.495 168.341 137.495 168.598V171.17C137.623 171.942 134.665 172.843 128.105 172.843Z" fill="white"/>
<path fill-rule="evenodd" clip-rule="evenodd" d="M128.105 172.843H18.518C12.8586 172.843 8.99988 171.942 8.99988 171.17V168.598C8.99988 168.341 9.25712 168.083 9.51437 168.083H136.98C137.237 168.083 137.495 168.341 137.495 168.598V171.17C137.623 171.942 134.665 172.843 128.105 172.843Z" stroke="#0055DC" stroke-width="1.5" stroke-miterlimit="10"/>
<path d="M137.623 168.598C137.623 168.341 137.366 168.083 137.109 168.083H9.64288C9.38564 168.083 9.12839 168.341 9.12839 168.598V171.042H137.752V168.598H137.623Z" fill="#C5EBF5"/>
<path d="M128.105 172.843H18.518C12.8586 172.843 8.99988 171.942 8.99988 171.17V168.598C8.99988 168.341 9.25712 168.083 9.51437 168.083H136.98C137.237 168.083 137.495 168.341 137.495 168.598V171.17C137.623 171.942 134.665 172.843 128.105 172.843Z" stroke="#0055DC" stroke-width="1.5" stroke-miterlimit="10"/>
<path d="M119.873 110.203H26.7499V164.482H119.873V110.203Z" fill="white"/>
<path fill-rule="evenodd" clip-rule="evenodd" d="M87.3314 168.341V168.855C87.3314 169.241 86.5597 169.37 85.9166 169.37H60.835C60.1919 169.37 59.4202 169.241 59.4202 168.855V168.341" fill="#0055DC"/>
<path d="M86.0136 152.783C82.2469 150.783 78.0742 150.245 77.2968 148.42C76.708 147.037 77.2968 142.408 77.2968 142.408L68.1937 142.313C68.1937 142.313 68.769 147.007 68.1937 148.42C67.4964 150.134 63.7042 150.687 60.2232 152.635" fill="#CBE9F3"/>
<path d="M86.0136 152.783C82.2469 150.783 78.0742 150.245 77.2968 148.42C76.708 147.037 77.2968 142.408 77.2968 142.408L68.1937 142.313C68.1937 142.313 68.769 147.007 68.1937 148.42C67.4964 150.134 63.7042 150.687 60.2232 152.635" stroke="#193979" stroke-width="1.5" stroke-miterlimit="10"/>
<path d="M73.2041 157.545C77.9075 157.55 82.4552 155.86 86.0132 152.784C82.2468 150.784 78.0741 150.245 77.2963 148.42C77.1602 148.036 77.083 147.634 77.0673 147.227C75.6419 147.515 74.1931 147.67 72.7391 147.691C71.2863 147.67 69.8385 147.515 68.4142 147.227C68.3981 147.633 68.3233 148.035 68.1923 148.42C67.4949 150.135 63.7031 150.688 60.2221 152.636C63.8035 155.805 68.422 157.551 73.2041 157.545Z" fill="#1B59D3" stroke="#0F387D" stroke-width="1.5" stroke-miterlimit="10" stroke-linecap="round"/>
<path d="M65.877 134.288C65.8046 133.7 64.9339 132.645 63.906 133.322C62.9002 133.983 63.8665 138.928 66.6713 138.744" fill="#CBE9F3"/>
<path d="M65.877 134.288C65.8046 133.7 64.9339 132.645 63.906 133.322C62.9002 133.983 63.8665 138.928 66.6713 138.744" stroke="#193979" stroke-width="1.5" stroke-miterlimit="10"/>
<path d="M79.6469 134.288C79.7193 133.7 80.5897 132.645 81.6179 133.322C82.6237 133.983 81.6571 138.928 78.8523 138.744" fill="#CBE9F3"/>
<path d="M79.6469 134.288C79.7193 133.7 80.5897 132.645 81.6179 133.322C82.6237 133.983 81.6571 138.928 78.8523 138.744" stroke="#193979" stroke-width="1.5" stroke-miterlimit="10"/>
<path d="M79.8239 130.847C79.8797 132.784 79.6589 134.719 79.1681 136.594C78.8999 137.542 78.5837 140.45 78.22 141.203C77.3047 143.102 74.9465 145.215 72.8028 145.215C70.6591 145.215 68.545 143.103 67.3856 141.204C66.9428 140.478 66.5911 137.565 66.3155 136.596C65.6785 134.353 65.7824 132.299 65.7824 130.847C65.7824 126.442 68.7388 123.51 72.7995 123.51C76.8602 123.51 79.8239 126.442 79.8239 130.847Z" fill="#CBE9F3" stroke="#193979" stroke-width="1.5" stroke-miterlimit="10"/>
<path d="M78.5874 129.916C78.5874 129.916 71.3317 130.599 68.0206 128.213C68.0206 128.213 67.0547 132.279 65.8783 134.288C65.8783 134.288 64.4269 128.119 66.5404 127.302C66.5404 127.302 66.3651 123.879 70.1388 123.002C70.1388 123.002 69.9444 123.855 70.5773 123.831C71.2103 123.806 76.2366 120.908 79.8239 123.173C83.4112 125.437 80.6577 128.748 80.6577 128.748C80.6577 128.748 80.7549 132.247 79.8906 133.723L79.5768 134.726C79.5768 134.726 78.6692 131.559 78.5874 129.916Z" fill="#0F387D" stroke="#0F387D" stroke-width="1.5" stroke-linejoin="round"/>
<path d="M73.2041 157.545C84.0462 157.545 92.8354 148.756 92.8354 137.914C92.8354 127.071 84.0462 118.282 73.2041 118.282C62.3621 118.282 53.5728 127.071 53.5728 137.914C53.5728 148.756 62.3621 157.545 73.2041 157.545Z" stroke="#1B59D3" stroke-width="1.5" stroke-miterlimit="10"/>
<path d="M73.2041 157.545C84.0462 157.545 92.8354 148.756 92.8354 137.914C92.8354 127.071 84.0462 118.282 73.2041 118.282C62.3621 118.282 53.5728 127.071 53.5728 137.914C53.5728 148.756 62.3621 157.545 73.2041 157.545Z" stroke="#1B59D3" stroke-width="1.5" stroke-miterlimit="10"/>
<path d="M121.5 136.921H518.5" stroke="#5E5E5E" stroke-width="3" stroke-linejoin="bevel"/>
<path fill-rule="evenodd" clip-rule="evenodd" d="M117.241 18H29.3972C27.0694 18 24.9866 19.9602 24.9866 22.4106V80.1158H121.652V22.4106C121.652 19.9602 119.569 18 117.241 18Z" fill="#C5EBF5" stroke="#0055DC" stroke-width="1.5" stroke-miterlimit="10"/>
<path d="M73.2581 22.2881C73.6641 22.2881 73.9932 21.959 73.9932 21.553C73.9932 21.147 73.6641 20.8179 73.2581 20.8179C72.8521 20.8179 72.523 21.147 72.523 21.553C72.523 21.959 72.8521 22.2881 73.2581 22.2881Z" fill="#0055DC"/>
<path d="M125.45 84.5263H21.0661C15.6754 84.5263 11.9999 83.6687 11.9999 82.9336V80.4832C11.9999 80.2382 12.245 79.9932 12.49 79.9932H133.904C134.149 79.9932 134.394 80.2382 134.394 80.4832V82.9336C134.516 83.6687 131.698 84.5263 125.45 84.5263Z" fill="white"/>
<path fill-rule="evenodd" clip-rule="evenodd" d="M125.45 84.5263H21.0661C15.6754 84.5263 11.9999 83.6687 11.9999 82.9336V80.4832C11.9999 80.2382 12.245 79.9932 12.49 79.9932H133.904C134.149 79.9932 134.394 80.2382 134.394 80.4832V82.9336C134.516 83.6687 131.698 84.5263 125.45 84.5263Z" stroke="#0055DC" stroke-width="1.5" stroke-miterlimit="10"/>
<path d="M134.516 80.4832C134.516 80.2382 134.271 79.9932 134.026 79.9932H12.612C12.3669 79.9932 12.1219 80.2382 12.1219 80.4832V82.811H134.638V80.4832H134.516Z" fill="#C5EBF5"/>
<path d="M125.45 84.5263H21.0661C15.6754 84.5263 11.9999 83.6687 11.9999 82.9336V80.4832C11.9999 80.2382 12.245 79.9932 12.49 79.9932H133.904C134.149 79.9932 134.394 80.2382 134.394 80.4832V82.9336C134.516 83.6687 131.698 84.5263 125.45 84.5263Z" stroke="#0055DC" stroke-width="1.5" stroke-miterlimit="10"/>
<path d="M117.609 24.8608H28.9072V76.5627H117.609V24.8608Z" fill="white"/>
<path fill-rule="evenodd" clip-rule="evenodd" d="M86.6124 80.2383V80.7284C86.6124 81.0959 85.8773 81.2184 85.2647 81.2184H61.374C60.7615 81.2184 60.0264 81.0959 60.0264 80.7284V80.2383" fill="#0055DC"/>
<path d="M73.3022 71.9056C85.6901 71.9056 95.7325 61.8632 95.7325 49.4752C95.7325 37.0873 85.6901 27.0449 73.3022 27.0449C60.9143 27.0449 50.8719 37.0873 50.8719 49.4752C50.8719 61.8632 60.9143 71.9056 73.3022 71.9056Z" fill="white" stroke="#0055DC" stroke-width="1.5" stroke-miterlimit="10"/>
<path d="M72.3847 41.0608C72.7795 40.4574 73.6636 40.4574 74.0583 41.0608L74.3761 41.5465C74.6876 42.0226 75.3331 42.1432 75.7955 41.8118L76.2647 41.4755C76.8504 41.0557 77.6743 41.3743 77.8252 42.0789L77.9482 42.6537C78.0671 43.2093 78.6244 43.5543 79.1747 43.413L79.7364 43.2688C80.4333 43.0899 81.0854 43.6833 80.9727 44.3939L80.8795 44.982C80.7908 45.542 81.1848 46.0637 81.7476 46.1314L82.3305 46.2016C83.0436 46.2875 83.4363 47.0749 83.0759 47.6962L82.7752 48.2147C82.4912 48.7043 82.6697 49.3318 83.1689 49.5985L83.6936 49.8788C84.3266 50.217 84.4078 51.0921 83.8479 51.541L83.3815 51.9149C82.9401 52.2688 82.88 52.918 83.2488 53.347L83.6395 53.8015C84.1076 54.3458 83.8666 55.1913 83.1819 55.4072L82.6181 55.5849C82.0779 55.7551 81.7869 56.3396 81.9764 56.8733L82.1767 57.4369C82.4173 58.1143 81.8859 58.8167 81.1686 58.7695L80.5868 58.7312C80.0204 58.6939 79.5366 59.1349 79.5214 59.7022L79.5056 60.2939C79.4862 61.0137 78.7354 61.4778 78.083 61.1732L77.5593 60.9288C77.044 60.6882 76.4321 60.9252 76.2133 61.4501L75.9887 61.9889C75.7113 62.6543 74.8423 62.8165 74.3436 62.2959L73.9436 61.8784C73.5499 61.4675 72.8931 61.4675 72.4994 61.8784L72.0995 62.2959C71.6007 62.8165 70.7318 62.6543 70.4544 61.9889L70.2297 61.4501C70.0109 60.9252 69.399 60.6882 68.8838 60.9288L68.3601 61.1732C67.7076 61.4778 66.9568 61.0137 66.9375 60.2939L66.9216 59.7022C66.9064 59.1349 66.4226 58.6939 65.8563 58.7312L65.2744 58.7695C64.5571 58.8167 64.0258 58.1143 64.2664 57.4369L64.4666 56.8733C64.6562 56.3396 64.3651 55.7551 63.8249 55.5849L63.2611 55.4072C62.5765 55.1913 62.3355 54.3458 62.8035 53.8015L63.1942 53.347C63.5631 52.918 63.5029 52.2688 63.0615 51.9149L62.5952 51.541C62.0353 51.0921 62.1165 50.217 62.7495 49.8788L63.2741 49.5985C63.7733 49.3318 63.9519 48.7043 63.6679 48.2147L63.3671 47.6962C63.0067 47.0749 63.3994 46.2875 64.1126 46.2016L64.6954 46.1314C65.2583 46.0637 65.6523 45.542 65.5635 44.982L65.4703 44.3939C65.3577 43.6833 66.0098 43.0899 66.7066 43.2688L67.2684 43.413C67.8187 43.5543 68.376 43.2093 68.4949 42.6537L68.6179 42.0789C68.7687 41.3743 69.5927 41.0557 70.1783 41.4755L70.6475 41.8118C71.11 42.1432 71.7554 42.0226 72.0669 41.5465L72.3847 41.0608Z" fill="#003682"/>
<path d="M66.2244 61.1602C67.3923 60.5179 68.4743 59.7306 69.4448 58.817V52.8967L77.2429 52.989V58.5573C77.5987 59.2491 78.9433 60.0991 80.7368 61.1062C80.7368 61.1062 77.3999 66.0833 73.2084 66.0833C69.0169 66.0833 66.2244 61.1602 66.2244 61.1602Z" fill="#C5EBF5" stroke="#003682" stroke-width="1.5" stroke-miterlimit="10"/>
<path d="M73.303 71.9057C78.8709 71.9134 84.2411 69.8423 88.3621 66.098C86.0607 64.1245 83.5119 62.4595 80.7801 61.145C80.7801 61.145 77.4007 66.0831 73.2092 66.0831C69.0177 66.0831 66.2029 61.2082 66.2029 61.2082C63.6303 62.6585 60.4742 64.0241 58.1088 65.9712C62.2448 69.7933 67.6714 71.9128 73.303 71.9057Z" fill="#0055DC" stroke="#003682" stroke-width="1.5" stroke-miterlimit="10"/>
<path d="M80.7391 45.4139C80.7815 45.2472 80.8581 45.0911 80.9641 44.9557C81.0701 44.8202 81.2032 44.7083 81.3549 44.6271C81.5065 44.5459 81.6734 44.4972 81.8449 44.4841C82.0164 44.471 82.1888 44.4937 82.3511 44.5509C83.326 44.8451 82.7774 48.385 80.0527 48.2593C80.3352 47.3246 80.5644 46.3746 80.7391 45.4139Z" fill="#C5EBF5" stroke="#003682" stroke-width="1.5" stroke-miterlimit="10"/>
<path d="M65.8629 45.4145C65.8165 45.2444 65.7353 45.0858 65.6246 44.9487C65.5138 44.8116 65.3758 44.6989 65.2193 44.6178C65.0628 44.5367 64.8912 44.489 64.7153 44.4775C64.5394 44.4661 64.363 44.4913 64.1973 44.5514C63.3473 44.8962 63.771 48.3855 66.4976 48.2599C66.2249 47.3261 66.0129 46.3757 65.8629 45.4145Z" fill="#C5EBF5" stroke="#003682" stroke-width="1.5" stroke-miterlimit="10"/>
<path d="M81.0922 42.1641C81.0922 44.1855 80.3518 48.3042 79.0517 50.7903C78.0867 52.6359 75.6003 54.6907 73.3398 54.6907C71.0793 54.6907 68.8487 52.6359 67.6279 50.7907C66.08 48.4505 65.5873 44.1855 65.5873 42.1641C65.5873 40.108 66.4041 38.1361 67.858 36.6823C69.3118 35.2284 71.2837 34.4116 73.3398 34.4116C75.3959 34.4116 77.3677 35.2284 78.8216 36.6823C80.2755 38.1361 81.0922 40.108 81.0922 42.1641Z" fill="#C5EBF5" stroke="#003682" stroke-width="1.5" stroke-miterlimit="10"/>
<path d="M80.6923 44.7095C80.3296 41.6289 77.3417 37.5282 74.0044 37.5282L73.4536 34.9743L74.4868 37.5565C74.4868 43.1404 66.2079 41.6484 65.8624 45.3381L65.7298 45.2055C65.5595 44.1303 65.4677 43.0442 65.4552 41.9556C65.4552 37.6741 69.0587 34.3357 73.3402 34.3357C75.4102 34.3307 77.3988 35.1417 78.8748 36.5931C80.3509 38.0445 81.1953 40.0191 81.2252 42.0889C81.1843 43.153 81.0383 44.2104 80.7892 45.2458L80.6923 44.7095Z" fill="#003682" stroke="#003682" stroke-width="1.5" stroke-linejoin="round"/>
<path d="M73.3022 71.9056C85.6901 71.9056 95.7325 61.8632 95.7325 49.4752C95.7325 37.0873 85.6901 27.0449 73.3022 27.0449C60.9143 27.0449 50.8719 37.0873 50.8719 49.4752C50.8719 61.8632 60.9143 71.9056 73.3022 71.9056Z" stroke="#0055DC" stroke-width="1.5" stroke-miterlimit="10"/>
<path d="M121.18 51.0347L518.189 127.251" stroke="#5E5E5E" stroke-width="3" stroke-linejoin="bevel"/>
<path fill-rule="evenodd" clip-rule="evenodd" d="M117.241 537H29.3972C27.0694 537 24.9866 538.96 24.9866 541.411V599.116H121.652V541.411C121.652 538.96 119.569 537 117.241 537Z" fill="#C5EBF5" stroke="#0055DC" stroke-width="1.5" stroke-miterlimit="10"/>
<path d="M73.2581 541.288C73.6641 541.288 73.9932 540.959 73.9932 540.553C73.9932 540.147 73.6641 539.818 73.2581 539.818C72.8521 539.818 72.523 540.147 72.523 540.553C72.523 540.959 72.8521 541.288 73.2581 541.288Z" fill="#0055DC"/>
<path d="M125.45 603.526H21.0661C15.6754 603.526 11.9999 602.669 11.9999 601.934V599.483C11.9999 599.238 12.245 598.993 12.49 598.993H133.904C134.149 598.993 134.394 599.238 134.394 599.483V601.934C134.516 602.669 131.698 603.526 125.45 603.526Z" fill="white"/>
<path fill-rule="evenodd" clip-rule="evenodd" d="M125.45 603.526H21.0661C15.6754 603.526 11.9999 602.669 11.9999 601.934V599.483C11.9999 599.238 12.245 598.993 12.49 598.993H133.904C134.149 598.993 134.394 599.238 134.394 599.483V601.934C134.516 602.669 131.698 603.526 125.45 603.526Z" stroke="#0055DC" stroke-width="1.5" stroke-miterlimit="10"/>
<path d="M134.516 599.483C134.516 599.238 134.271 598.993 134.026 598.993H12.612C12.3669 598.993 12.1219 599.238 12.1219 599.483V601.811H134.638V599.483H134.516Z" fill="#C5EBF5"/>
<path d="M125.45 603.526H21.0661C15.6754 603.526 11.9999 602.669 11.9999 601.934V599.483C11.9999 599.238 12.245 598.993 12.49 598.993H133.904C134.149 598.993 134.394 599.238 134.394 599.483V601.934C134.516 602.669 131.698 603.526 125.45 603.526Z" stroke="#0055DC" stroke-width="1.5" stroke-miterlimit="10"/>
<path d="M117.609 543.861H28.9072V595.563H117.609V543.861Z" fill="white"/>
<path fill-rule="evenodd" clip-rule="evenodd" d="M86.6124 599.238V599.728C86.6124 600.096 85.8773 600.218 85.2647 600.218H61.374C60.7615 600.218 60.0264 600.096 60.0264 599.728V599.238" fill="#0055DC"/>
<path d="M73.3022 590.906C85.6901 590.906 95.7325 580.863 95.7325 568.475C95.7325 556.087 85.6901 546.045 73.3022 546.045C60.9143 546.045 50.8719 556.087 50.8719 568.475C50.8719 580.863 60.9143 590.906 73.3022 590.906Z" fill="white" stroke="#0055DC" stroke-width="1.5" stroke-miterlimit="10"/>
<path d="M72.3847 560.061C72.7795 559.458 73.6636 559.458 74.0583 560.061L74.3761 560.547C74.6876 561.023 75.3331 561.143 75.7955 560.812L76.2647 560.476C76.8504 560.056 77.6743 560.374 77.8252 561.079L77.9482 561.654C78.0671 562.209 78.6244 562.554 79.1747 562.413L79.7364 562.269C80.4333 562.09 81.0854 562.683 80.9727 563.394L80.8795 563.982C80.7908 564.542 81.1848 565.064 81.7476 565.132L82.3305 565.202C83.0436 565.288 83.4363 566.075 83.0759 566.696L82.7752 567.215C82.4912 567.704 82.6697 568.332 83.1689 568.599L83.6936 568.879C84.3266 569.217 84.4078 570.092 83.8479 570.541L83.3815 570.915C82.9401 571.269 82.88 571.918 83.2488 572.347L83.6395 572.802C84.1076 573.346 83.8666 574.191 83.1819 574.407L82.6181 574.585C82.0779 574.755 81.7869 575.34 81.9764 575.873L82.1767 576.437C82.4173 577.114 81.8859 577.817 81.1686 577.77L80.5868 577.731C80.0204 577.694 79.5366 578.135 79.5214 578.702L79.5056 579.294C79.4862 580.014 78.7354 580.478 78.083 580.173L77.5593 579.929C77.044 579.688 76.4321 579.925 76.2133 580.45L75.9887 580.989C75.7113 581.654 74.8423 581.817 74.3436 581.296L73.9436 580.879C73.5499 580.468 72.8931 580.468 72.4994 580.879L72.0995 581.296C71.6007 581.817 70.7318 581.654 70.4544 580.989L70.2297 580.45C70.0109 579.925 69.399 579.688 68.8838 579.929L68.3601 580.173C67.7076 580.478 66.9568 580.014 66.9375 579.294L66.9216 578.702C66.9064 578.135 66.4226 577.694 65.8563 577.731L65.2744 577.77C64.5571 577.817 64.0258 577.114 64.2664 576.437L64.4666 575.873C64.6562 575.34 64.3651 574.755 63.8249 574.585L63.2611 574.407C62.5765 574.191 62.3355 573.346 62.8035 572.802L63.1942 572.347C63.5631 571.918 63.5029 571.269 63.0615 570.915L62.5952 570.541C62.0353 570.092 62.1165 569.217 62.7495 568.879L63.2741 568.599C63.7733 568.332 63.9519 567.704 63.6679 567.215L63.3671 566.696C63.0067 566.075 63.3994 565.288 64.1126 565.202L64.6954 565.132C65.2583 565.064 65.6523 564.542 65.5635 563.982L65.4703 563.394C65.3577 562.683 66.0098 562.09 66.7066 562.269L67.2684 562.413C67.8187 562.554 68.376 562.209 68.4949 561.654L68.6179 561.079C68.7687 560.374 69.5927 560.056 70.1783 560.476L70.6475 560.812C71.11 561.143 71.7554 561.023 72.0669 560.547L72.3847 560.061Z" fill="#003682"/>
<path d="M66.2244 580.16C67.3923 579.518 68.4743 578.731 69.4448 577.817V571.897L77.2429 571.989V577.557C77.5987 578.249 78.9433 579.099 80.7368 580.106C80.7368 580.106 77.3999 585.083 73.2084 585.083C69.0169 585.083 66.2244 580.16 66.2244 580.16Z" fill="#C5EBF5" stroke="#003682" stroke-width="1.5" stroke-miterlimit="10"/>
<path d="M73.303 590.906C78.8709 590.913 84.2411 588.842 88.3621 585.098C86.0607 583.125 83.5119 581.46 80.7801 580.145C80.7801 580.145 77.4007 585.083 73.2092 585.083C69.0177 585.083 66.2029 580.208 66.2029 580.208C63.6303 581.659 60.4742 583.024 58.1088 584.971C62.2448 588.793 67.6714 590.913 73.303 590.906Z" fill="#0055DC" stroke="#003682" stroke-width="1.5" stroke-miterlimit="10"/>
<path d="M80.7391 564.414C80.7815 564.247 80.8581 564.091 80.9641 563.956C81.0701 563.82 81.2032 563.708 81.3549 563.627C81.5065 563.546 81.6734 563.497 81.8449 563.484C82.0164 563.471 82.1888 563.494 82.3511 563.551C83.326 563.845 82.7774 567.385 80.0527 567.259C80.3352 566.325 80.5644 565.375 80.7391 564.414Z" fill="#C5EBF5" stroke="#003682" stroke-width="1.5" stroke-miterlimit="10"/>
<path d="M65.8629 564.414C65.8165 564.244 65.7353 564.086 65.6246 563.949C65.5138 563.811 65.3758 563.699 65.2193 563.618C65.0628 563.537 64.8912 563.489 64.7153 563.477C64.5394 563.466 64.363 563.491 64.1973 563.551C63.3473 563.896 63.771 567.385 66.4976 567.26C66.2249 566.326 66.0129 565.376 65.8629 564.414Z" fill="#C5EBF5" stroke="#003682" stroke-width="1.5" stroke-miterlimit="10"/>
<path d="M81.0922 561.164C81.0922 563.186 80.3518 567.304 79.0517 569.79C78.0867 571.636 75.6003 573.691 73.3398 573.691C71.0793 573.691 68.8487 571.636 67.6279 569.791C66.08 567.451 65.5873 563.186 65.5873 561.164C65.5873 559.108 66.4041 557.136 67.858 555.682C69.3118 554.228 71.2837 553.412 73.3398 553.412C75.3959 553.412 77.3677 554.228 78.8216 555.682C80.2755 557.136 81.0922 559.108 81.0922 561.164Z" fill="#C5EBF5" stroke="#003682" stroke-width="1.5" stroke-miterlimit="10"/>
<path d="M80.6923 563.71C80.3296 560.629 77.3417 556.528 74.0044 556.528L73.4536 553.974L74.4868 556.557C74.4868 562.14 66.2079 560.649 65.8624 564.338L65.7298 564.206C65.5595 563.13 65.4677 562.044 65.4552 560.956C65.4552 556.674 69.0587 553.336 73.3402 553.336C75.4102 553.331 77.3988 554.142 78.8748 555.593C80.3509 557.045 81.1953 559.019 81.2252 561.089C81.1843 562.153 81.0383 563.211 80.7892 564.246L80.6923 563.71Z" fill="#003682" stroke="#003682" stroke-width="1.5" stroke-linejoin="round"/>
<path d="M73.3022 590.906C85.6901 590.906 95.7325 580.863 95.7325 568.475C95.7325 556.087 85.6901 546.045 73.3022 546.045C60.9143 546.045 50.8719 556.087 50.8719 568.475C50.8719 580.863 60.9143 590.906 73.3022 590.906Z" stroke="#0055DC" stroke-width="1.5" stroke-miterlimit="10"/>
<path d="M121.18 569.194L527.29 407.091" stroke="#5E5E5E" stroke-width="3" stroke-linejoin="bevel"/>
<path fill-rule="evenodd" clip-rule="evenodd" d="M119.487 276H27.2644C24.8206 276 22.634 278.058 22.634 280.63V341.212H124.118V280.63C124.118 278.058 121.931 276 119.487 276Z" fill="#C5EBF5" stroke="#0055DC" stroke-width="1.5" stroke-miterlimit="10"/>
<path d="M73.3116 280.502C73.7378 280.502 74.0834 280.156 74.0834 279.73C74.0834 279.304 73.7378 278.958 73.3116 278.958C72.8854 278.958 72.5399 279.304 72.5399 279.73C72.5399 280.156 72.8854 280.502 73.3116 280.502Z" fill="#0055DC"/>
<path d="M128.105 345.842H18.518C12.8586 345.842 8.99988 344.942 8.99988 344.17V341.598C8.99988 341.341 9.25712 341.083 9.51437 341.083H136.98C137.237 341.083 137.495 341.341 137.495 341.598V344.17C137.623 344.942 134.665 345.842 128.105 345.842Z" fill="white"/>
<path fill-rule="evenodd" clip-rule="evenodd" d="M128.105 345.842H18.518C12.8586 345.842 8.99988 344.942 8.99988 344.17V341.598C8.99988 341.341 9.25712 341.083 9.51437 341.083H136.98C137.237 341.083 137.495 341.341 137.495 341.598V344.17C137.623 344.942 134.665 345.842 128.105 345.842Z" stroke="#0055DC" stroke-width="1.5" stroke-miterlimit="10"/>
<path d="M137.623 341.598C137.623 341.341 137.366 341.083 137.109 341.083H9.64288C9.38564 341.083 9.12839 341.341 9.12839 341.598V344.042H137.752V341.598H137.623Z" fill="#C5EBF5"/>
<path d="M128.105 345.842H18.518C12.8586 345.842 8.99988 344.942 8.99988 344.17V341.598C8.99988 341.341 9.25712 341.083 9.51437 341.083H136.98C137.237 341.083 137.495 341.341 137.495 341.598V344.17C137.623 344.942 134.665 345.842 128.105 345.842Z" stroke="#0055DC" stroke-width="1.5" stroke-miterlimit="10"/>
<path d="M119.873 283.203H26.7499V337.482H119.873V283.203Z" fill="white"/>
<path fill-rule="evenodd" clip-rule="evenodd" d="M87.3314 341.341V341.855C87.3314 342.241 86.5597 342.37 85.9166 342.37H60.835C60.1919 342.37 59.4202 342.241 59.4202 341.855V341.341" fill="#0055DC"/>
<path d="M86.0136 325.783C82.2469 323.783 78.0742 323.245 77.2968 321.42C76.708 320.037 77.2968 315.408 77.2968 315.408L68.1937 315.313C68.1937 315.313 68.769 320.006 68.1937 321.42C67.4964 323.134 63.7042 323.687 60.2232 325.634" fill="#CBE9F3"/>
<path d="M86.0136 325.783C82.2469 323.783 78.0742 323.245 77.2968 321.42C76.708 320.037 77.2968 315.408 77.2968 315.408L68.1937 315.313C68.1937 315.313 68.769 320.006 68.1937 321.42C67.4964 323.134 63.7042 323.687 60.2232 325.634" stroke="#193979" stroke-width="1.5" stroke-miterlimit="10"/>
<path d="M73.2041 330.545C77.9075 330.55 82.4552 328.86 86.0132 325.784C82.2468 323.784 78.0741 323.245 77.2963 321.42C77.1602 321.036 77.083 320.634 77.0673 320.227C75.6419 320.514 74.1931 320.67 72.7391 320.691C71.2863 320.67 69.8385 320.515 68.4142 320.227C68.3981 320.633 68.3233 321.035 68.1923 321.42C67.4949 323.135 63.7031 323.688 60.2221 325.636C63.8035 328.805 68.422 330.551 73.2041 330.545Z" fill="#1B59D3" stroke="#0F387D" stroke-width="1.5" stroke-miterlimit="10" stroke-linecap="round"/>
<path d="M65.877 307.287C65.8046 306.7 64.9339 305.645 63.906 306.322C62.9002 306.983 63.8665 311.928 66.6713 311.744" fill="#CBE9F3"/>
<path d="M65.877 307.287C65.8046 306.7 64.9339 305.645 63.906 306.322C62.9002 306.983 63.8665 311.928 66.6713 311.744" stroke="#193979" stroke-width="1.5" stroke-miterlimit="10"/>
<path d="M79.6469 307.287C79.7193 306.7 80.5897 305.645 81.6179 306.322C82.6237 306.983 81.6571 311.928 78.8523 311.744" fill="#CBE9F3"/>
<path d="M79.6469 307.287C79.7193 306.7 80.5897 305.645 81.6179 306.322C82.6237 306.983 81.6571 311.928 78.8523 311.744" stroke="#193979" stroke-width="1.5" stroke-miterlimit="10"/>
<path d="M79.8239 303.847C79.8797 305.784 79.6589 307.719 79.1681 309.594C78.8999 310.542 78.5837 313.45 78.22 314.203C77.3047 316.102 74.9465 318.215 72.8028 318.215C70.6591 318.215 68.545 316.103 67.3856 314.204C66.9428 313.477 66.5911 310.565 66.3155 309.596C65.6785 307.353 65.7824 305.299 65.7824 303.847C65.7824 299.442 68.7388 296.51 72.7995 296.51C76.8602 296.51 79.8239 299.442 79.8239 303.847Z" fill="#CBE9F3" stroke="#193979" stroke-width="1.5" stroke-miterlimit="10"/>
<path d="M78.5874 302.916C78.5874 302.916 71.3317 303.599 68.0206 301.213C68.0206 301.213 67.0547 305.279 65.8783 307.287C65.8783 307.287 64.4269 301.119 66.5404 300.301C66.5404 300.301 66.3651 296.879 70.1388 296.002C70.1388 296.002 69.9444 296.855 70.5773 296.83C71.2103 296.805 76.2366 293.908 79.8239 296.173C83.4112 298.437 80.6577 301.748 80.6577 301.748C80.6577 301.748 80.7549 305.246 79.8906 306.723L79.5768 307.725C79.5768 307.725 78.6692 304.558 78.5874 302.916Z" fill="#0F387D" stroke="#0F387D" stroke-width="1.5" stroke-linejoin="round"/>
<path d="M73.2041 330.545C84.0462 330.545 92.8354 321.755 92.8354 310.913C92.8354 300.071 84.0462 291.282 73.2041 291.282C62.3621 291.282 53.5728 300.071 53.5728 310.913C53.5728 321.755 62.3621 330.545 73.2041 330.545Z" stroke="#1B59D3" stroke-width="1.5" stroke-miterlimit="10"/>
<path d="M73.2041 330.545C84.0462 330.545 92.8354 321.755 92.8354 310.913C92.8354 300.071 84.0462 291.282 73.2041 291.282C62.3621 291.282 53.5728 300.071 53.5728 310.913C53.5728 321.755 62.3621 330.545 73.2041 330.545Z" stroke="#1B59D3" stroke-width="1.5" stroke-miterlimit="10"/>
<path d="M123.456 309.261L518.189 387.184" stroke="#5E5E5E" stroke-width="3" stroke-linejoin="bevel"/>
<path fill-rule="evenodd" clip-rule="evenodd" d="M117.241 191H29.3972C27.0694 191 24.9866 192.96 24.9866 195.411V253.116H121.652V195.411C121.652 192.96 119.569 191 117.241 191Z" fill="#C5EBF5" stroke="#0055DC" stroke-width="1.5" stroke-miterlimit="10"/>
<path d="M73.2581 195.288C73.6641 195.288 73.9932 194.959 73.9932 194.553C73.9932 194.147 73.6641 193.818 73.2581 193.818C72.8521 193.818 72.523 194.147 72.523 194.553C72.523 194.959 72.8521 195.288 73.2581 195.288Z" fill="#0055DC"/>
<path d="M125.45 257.526H21.0661C15.6754 257.526 11.9999 256.669 11.9999 255.934V253.483C11.9999 253.238 12.245 252.993 12.49 252.993H133.904C134.149 252.993 134.394 253.238 134.394 253.483V255.934C134.516 256.669 131.698 257.526 125.45 257.526Z" fill="white"/>
<path fill-rule="evenodd" clip-rule="evenodd" d="M125.45 257.526H21.0661C15.6754 257.526 11.9999 256.669 11.9999 255.934V253.483C11.9999 253.238 12.245 252.993 12.49 252.993H133.904C134.149 252.993 134.394 253.238 134.394 253.483V255.934C134.516 256.669 131.698 257.526 125.45 257.526Z" stroke="#0055DC" stroke-width="1.5" stroke-miterlimit="10"/>
<path d="M134.516 253.483C134.516 253.238 134.271 252.993 134.026 252.993H12.612C12.3669 252.993 12.1219 253.238 12.1219 253.483V255.811H134.638V253.483H134.516Z" fill="#C5EBF5"/>
<path d="M125.45 257.526H21.0661C15.6754 257.526 11.9999 256.669 11.9999 255.934V253.483C11.9999 253.238 12.245 252.993 12.49 252.993H133.904C134.149 252.993 134.394 253.238 134.394 253.483V255.934C134.516 256.669 131.698 257.526 125.45 257.526Z" stroke="#0055DC" stroke-width="1.5" stroke-miterlimit="10"/>
<path d="M117.609 197.861H28.9072V249.563H117.609V197.861Z" fill="white"/>
<path fill-rule="evenodd" clip-rule="evenodd" d="M86.6124 253.238V253.728C86.6124 254.096 85.8773 254.218 85.2647 254.218H61.374C60.7615 254.218 60.0264 254.096 60.0264 253.728V253.238" fill="#0055DC"/>
<path d="M73.3022 244.906C85.6901 244.906 95.7325 234.863 95.7325 222.475C95.7325 210.087 85.6901 200.045 73.3022 200.045C60.9143 200.045 50.8719 210.087 50.8719 222.475C50.8719 234.863 60.9143 244.906 73.3022 244.906Z" fill="white" stroke="#0055DC" stroke-width="1.5" stroke-miterlimit="10"/>
<path d="M72.3847 214.061C72.7795 213.457 73.6636 213.457 74.0583 214.061L74.3761 214.546C74.6876 215.023 75.3331 215.143 75.7955 214.812L76.2647 214.475C76.8504 214.056 77.6743 214.374 77.8252 215.079L77.9482 215.654C78.0671 216.209 78.6244 216.554 79.1747 216.413L79.7364 216.269C80.4333 216.09 81.0854 216.683 80.9727 217.394L80.8795 217.982C80.7908 218.542 81.1848 219.064 81.7476 219.131L82.3305 219.202C83.0436 219.287 83.4363 220.075 83.0759 220.696L82.7752 221.215C82.4912 221.704 82.6697 222.332 83.1689 222.598L83.6936 222.879C84.3266 223.217 84.4078 224.092 83.8479 224.541L83.3815 224.915C82.9401 225.269 82.88 225.918 83.2488 226.347L83.6395 226.801C84.1076 227.346 83.8666 228.191 83.1819 228.407L82.6181 228.585C82.0779 228.755 81.7869 229.34 81.9764 229.873L82.1767 230.437C82.4173 231.114 81.8859 231.817 81.1686 231.77L80.5868 231.731C80.0204 231.694 79.5366 232.135 79.5214 232.702L79.5056 233.294C79.4862 234.014 78.7354 234.478 78.083 234.173L77.5593 233.929C77.044 233.688 76.4321 233.925 76.2133 234.45L75.9887 234.989C75.7113 235.654 74.8423 235.816 74.3436 235.296L73.9436 234.878C73.5499 234.468 72.8931 234.468 72.4994 234.878L72.0995 235.296C71.6007 235.816 70.7318 235.654 70.4544 234.989L70.2297 234.45C70.0109 233.925 69.399 233.688 68.8838 233.929L68.3601 234.173C67.7076 234.478 66.9568 234.014 66.9375 233.294L66.9216 232.702C66.9064 232.135 66.4226 231.694 65.8563 231.731L65.2744 231.77C64.5571 231.817 64.0258 231.114 64.2664 230.437L64.4666 229.873C64.6562 229.34 64.3651 228.755 63.8249 228.585L63.2611 228.407C62.5765 228.191 62.3355 227.346 62.8035 226.801L63.1942 226.347C63.5631 225.918 63.5029 225.269 63.0615 224.915L62.5952 224.541C62.0353 224.092 62.1165 223.217 62.7495 222.879L63.2741 222.598C63.7733 222.332 63.9519 221.704 63.6679 221.215L63.3671 220.696C63.0067 220.075 63.3994 219.287 64.1126 219.202L64.6954 219.131C65.2583 219.064 65.6523 218.542 65.5635 217.982L65.4703 217.394C65.3577 216.683 66.0098 216.09 66.7066 216.269L67.2684 216.413C67.8187 216.554 68.376 216.209 68.4949 215.654L68.6179 215.079C68.7687 214.374 69.5927 214.056 70.1783 214.475L70.6475 214.812C71.11 215.143 71.7554 215.023 72.0669 214.546L72.3847 214.061Z" fill="#003682"/>
<path d="M66.2244 234.16C67.3923 233.518 68.4743 232.731 69.4448 231.817V225.897L77.2429 225.989V231.557C77.5987 232.249 78.9433 233.099 80.7368 234.106C80.7368 234.106 77.3999 239.083 73.2084 239.083C69.0169 239.083 66.2244 234.16 66.2244 234.16Z" fill="#C5EBF5" stroke="#003682" stroke-width="1.5" stroke-miterlimit="10"/>
<path d="M73.303 244.906C78.8709 244.913 84.2411 242.842 88.3621 239.098C86.0607 237.125 83.5119 235.459 80.7801 234.145C80.7801 234.145 77.4007 239.083 73.2092 239.083C69.0177 239.083 66.2029 234.208 66.2029 234.208C63.6303 235.659 60.4742 237.024 58.1088 238.971C62.2448 242.793 67.6714 244.913 73.303 244.906Z" fill="#0055DC" stroke="#003682" stroke-width="1.5" stroke-miterlimit="10"/>
<path d="M80.7391 218.414C80.7815 218.247 80.8581 218.091 80.9641 217.956C81.0701 217.82 81.2032 217.708 81.3549 217.627C81.5065 217.546 81.6734 217.497 81.8449 217.484C82.0164 217.471 82.1888 217.494 82.3511 217.551C83.326 217.845 82.7774 221.385 80.0527 221.259C80.3352 220.325 80.5644 219.375 80.7391 218.414Z" fill="#C5EBF5" stroke="#003682" stroke-width="1.5" stroke-miterlimit="10"/>
<path d="M65.8629 218.414C65.8165 218.244 65.7353 218.086 65.6246 217.949C65.5138 217.812 65.3758 217.699 65.2193 217.618C65.0628 217.537 64.8912 217.489 64.7153 217.478C64.5394 217.466 64.363 217.491 64.1973 217.551C63.3473 217.896 63.771 221.386 66.4976 221.26C66.2249 220.326 66.0129 219.376 65.8629 218.414Z" fill="#C5EBF5" stroke="#003682" stroke-width="1.5" stroke-miterlimit="10"/>
<path d="M81.0922 215.164C81.0922 217.186 80.3518 221.304 79.0517 223.79C78.0867 225.636 75.6003 227.691 73.3398 227.691C71.0793 227.691 68.8487 225.636 67.6279 223.791C66.08 221.451 65.5873 217.186 65.5873 215.164C65.5873 213.108 66.4041 211.136 67.858 209.682C69.3118 208.228 71.2837 207.412 73.3398 207.412C75.3959 207.412 77.3677 208.228 78.8216 209.682C80.2755 211.136 81.0922 213.108 81.0922 215.164Z" fill="#C5EBF5" stroke="#003682" stroke-width="1.5" stroke-miterlimit="10"/>
<path d="M80.6923 217.709C80.3296 214.629 77.3417 210.528 74.0044 210.528L73.4536 207.974L74.4868 210.556C74.4868 216.14 66.2079 214.648 65.8624 218.338L65.7298 218.206C65.5595 217.13 65.4677 216.044 65.4552 214.956C65.4552 210.674 69.0587 207.336 73.3402 207.336C75.4102 207.331 77.3988 208.142 78.8748 209.593C80.3509 211.044 81.1953 213.019 81.2252 215.089C81.1843 216.153 81.0383 217.21 80.7892 218.246L80.6923 217.709Z" fill="#003682" stroke="#003682" stroke-width="1.5" stroke-linejoin="round"/>
<path d="M73.3022 244.906C85.6901 244.906 95.7325 234.863 95.7325 222.475C95.7325 210.087 85.6901 200.045 73.3022 200.045C60.9143 200.045 50.8719 210.087 50.8719 222.475C50.8719 234.863 60.9143 244.906 73.3022 244.906Z" stroke="#0055DC" stroke-width="1.5" stroke-miterlimit="10"/>
<path d="M121.18 225.082L521.602 144.884" stroke="#5E5E5E" stroke-width="3" stroke-linejoin="bevel"/>
<path fill-rule="evenodd" clip-rule="evenodd" d="M119.487 449H27.2644C24.8206 449 22.634 451.058 22.634 453.63V514.212H124.118V453.63C124.118 451.058 121.931 449 119.487 449Z" fill="#C5EBF5" stroke="#0055DC" stroke-width="1.5" stroke-miterlimit="10"/>
<path d="M73.3116 453.502C73.7378 453.502 74.0834 453.156 74.0834 452.73C74.0834 452.304 73.7378 451.958 73.3116 451.958C72.8854 451.958 72.5399 452.304 72.5399 452.73C72.5399 453.156 72.8854 453.502 73.3116 453.502Z" fill="#0055DC"/>
<path d="M128.105 518.842H18.518C12.8586 518.842 8.99988 517.942 8.99988 517.17V514.598C8.99988 514.341 9.25712 514.083 9.51437 514.083H136.98C137.237 514.083 137.495 514.341 137.495 514.598V517.17C137.623 517.942 134.665 518.842 128.105 518.842Z" fill="white"/>
<path fill-rule="evenodd" clip-rule="evenodd" d="M128.105 518.842H18.518C12.8586 518.842 8.99988 517.942 8.99988 517.17V514.598C8.99988 514.341 9.25712 514.083 9.51437 514.083H136.98C137.237 514.083 137.495 514.341 137.495 514.598V517.17C137.623 517.942 134.665 518.842 128.105 518.842Z" stroke="#0055DC" stroke-width="1.5" stroke-miterlimit="10"/>
<path d="M137.623 514.598C137.623 514.341 137.366 514.083 137.109 514.083H9.64288C9.38564 514.083 9.12839 514.341 9.12839 514.598V517.042H137.752V514.598H137.623Z" fill="#C5EBF5"/>
<path d="M128.105 518.842H18.518C12.8586 518.842 8.99988 517.942 8.99988 517.17V514.598C8.99988 514.341 9.25712 514.083 9.51437 514.083H136.98C137.237 514.083 137.495 514.341 137.495 514.598V517.17C137.623 517.942 134.665 518.842 128.105 518.842Z" stroke="#0055DC" stroke-width="1.5" stroke-miterlimit="10"/>
<path d="M119.873 456.203H26.7499V510.482H119.873V456.203Z" fill="white"/>
<path fill-rule="evenodd" clip-rule="evenodd" d="M87.3314 514.341V514.855C87.3314 515.241 86.5597 515.37 85.9166 515.37H60.835C60.1919 515.37 59.4202 515.241 59.4202 514.855V514.341" fill="#0055DC"/>
<path d="M86.0136 498.783C82.2469 496.783 78.0742 496.245 77.2968 494.42C76.708 493.037 77.2968 488.408 77.2968 488.408L68.1937 488.313C68.1937 488.313 68.769 493.006 68.1937 494.42C67.4964 496.134 63.7042 496.687 60.2232 498.634" fill="#CBE9F3"/>
<path d="M86.0136 498.783C82.2469 496.783 78.0742 496.245 77.2968 494.42C76.708 493.037 77.2968 488.408 77.2968 488.408L68.1937 488.313C68.1937 488.313 68.769 493.006 68.1937 494.42C67.4964 496.134 63.7042 496.687 60.2232 498.634" stroke="#193979" stroke-width="1.5" stroke-miterlimit="10"/>
<path d="M73.2041 503.545C77.9075 503.55 82.4552 501.86 86.0132 498.784C82.2468 496.784 78.0741 496.245 77.2963 494.42C77.1602 494.036 77.083 493.634 77.0673 493.227C75.6419 493.514 74.1931 493.67 72.7391 493.691C71.2863 493.67 69.8385 493.515 68.4142 493.227C68.3981 493.633 68.3233 494.035 68.1923 494.42C67.4949 496.135 63.7031 496.688 60.2221 498.636C63.8035 501.805 68.422 503.551 73.2041 503.545Z" fill="#1B59D3" stroke="#0F387D" stroke-width="1.5" stroke-miterlimit="10" stroke-linecap="round"/>
<path d="M65.877 480.287C65.8046 479.7 64.9339 478.645 63.906 479.322C62.9002 479.983 63.8665 484.928 66.6713 484.744" fill="#CBE9F3"/>
<path d="M65.877 480.287C65.8046 479.7 64.9339 478.645 63.906 479.322C62.9002 479.983 63.8665 484.928 66.6713 484.744" stroke="#193979" stroke-width="1.5" stroke-miterlimit="10"/>
<path d="M79.6469 480.287C79.7193 479.7 80.5897 478.645 81.6179 479.322C82.6237 479.983 81.6571 484.928 78.8523 484.744" fill="#CBE9F3"/>
<path d="M79.6469 480.287C79.7193 479.7 80.5897 478.645 81.6179 479.322C82.6237 479.983 81.6571 484.928 78.8523 484.744" stroke="#193979" stroke-width="1.5" stroke-miterlimit="10"/>
<path d="M79.8239 476.847C79.8797 478.784 79.6589 480.719 79.1681 482.594C78.8999 483.542 78.5837 486.45 78.22 487.203C77.3047 489.102 74.9465 491.215 72.8028 491.215C70.6591 491.215 68.545 489.103 67.3856 487.204C66.9428 486.477 66.5911 483.565 66.3155 482.596C65.6785 480.353 65.7824 478.299 65.7824 476.847C65.7824 472.442 68.7388 469.51 72.7995 469.51C76.8602 469.51 79.8239 472.442 79.8239 476.847Z" fill="#CBE9F3" stroke="#193979" stroke-width="1.5" stroke-miterlimit="10"/>
<path d="M78.5874 475.916C78.5874 475.916 71.3317 476.599 68.0206 474.213C68.0206 474.213 67.0547 478.279 65.8783 480.287C65.8783 480.287 64.4269 474.119 66.5404 473.301C66.5404 473.301 66.3651 469.879 70.1388 469.002C70.1388 469.002 69.9444 469.855 70.5773 469.83C71.2103 469.805 76.2366 466.908 79.8239 469.173C83.4112 471.437 80.6577 474.748 80.6577 474.748C80.6577 474.748 80.7549 478.246 79.8906 479.723L79.5768 480.725C79.5768 480.725 78.6692 477.558 78.5874 475.916Z" fill="#0F387D" stroke="#0F387D" stroke-width="1.5" stroke-linejoin="round"/>
<path d="M73.2041 503.545C84.0462 503.545 92.8354 494.755 92.8354 483.913C92.8354 473.071 84.0462 464.282 73.2041 464.282C62.3621 464.282 53.5728 473.071 53.5728 483.913C53.5728 494.755 62.3621 503.545 73.2041 503.545Z" stroke="#1B59D3" stroke-width="1.5" stroke-miterlimit="10"/>
<path d="M73.2041 503.545C84.0462 503.545 92.8354 494.755 92.8354 483.913C92.8354 473.071 84.0462 464.282 73.2041 464.282C62.3621 464.282 53.5728 473.071 53.5728 483.913C53.5728 494.755 62.3621 503.545 73.2041 503.545Z" stroke="#1B59D3" stroke-width="1.5" stroke-miterlimit="10"/>
<path d="M123.456 484.445L521.033 404.816" stroke="#5E5E5E" stroke-width="3" stroke-linejoin="bevel"/>
<path fill-rule="evenodd" clip-rule="evenodd" d="M117.241 364H29.3972C27.0694 364 24.9866 365.96 24.9866 368.411V426.116H121.652V368.411C121.652 365.96 119.569 364 117.241 364Z" fill="#C5EBF5" stroke="#0055DC" stroke-width="1.5" stroke-miterlimit="10"/>
<path d="M73.2581 368.288C73.6641 368.288 73.9932 367.959 73.9932 367.553C73.9932 367.147 73.6641 366.818 73.2581 366.818C72.8521 366.818 72.523 367.147 72.523 367.553C72.523 367.959 72.8521 368.288 73.2581 368.288Z" fill="#0055DC"/>
<path d="M125.45 430.526H21.0661C15.6754 430.526 11.9999 429.669 11.9999 428.934V426.483C11.9999 426.238 12.245 425.993 12.49 425.993H133.904C134.149 425.993 134.394 426.238 134.394 426.483V428.934C134.516 429.669 131.698 430.526 125.45 430.526Z" fill="white"/>
<path fill-rule="evenodd" clip-rule="evenodd" d="M125.45 430.526H21.0661C15.6754 430.526 11.9999 429.669 11.9999 428.934V426.483C11.9999 426.238 12.245 425.993 12.49 425.993H133.904C134.149 425.993 134.394 426.238 134.394 426.483V428.934C134.516 429.669 131.698 430.526 125.45 430.526Z" stroke="#0055DC" stroke-width="1.5" stroke-miterlimit="10"/>
<path d="M134.516 426.483C134.516 426.238 134.271 425.993 134.026 425.993H12.612C12.3669 425.993 12.1219 426.238 12.1219 426.483V428.811H134.638V426.483H134.516Z" fill="#C5EBF5"/>
<path d="M125.45 430.526H21.0661C15.6754 430.526 11.9999 429.669 11.9999 428.934V426.483C11.9999 426.238 12.245 425.993 12.49 425.993H133.904C134.149 425.993 134.394 426.238 134.394 426.483V428.934C134.516 429.669 131.698 430.526 125.45 430.526Z" stroke="#0055DC" stroke-width="1.5" stroke-miterlimit="10"/>
<path d="M117.609 370.861H28.9072V422.563H117.609V370.861Z" fill="white"/>
<path fill-rule="evenodd" clip-rule="evenodd" d="M86.6124 426.238V426.728C86.6124 427.096 85.8773 427.218 85.2647 427.218H61.374C60.7615 427.218 60.0264 427.096 60.0264 426.728V426.238" fill="#0055DC"/>
<path d="M73.3022 417.906C85.6901 417.906 95.7325 407.863 95.7325 395.475C95.7325 383.087 85.6901 373.045 73.3022 373.045C60.9143 373.045 50.8719 383.087 50.8719 395.475C50.8719 407.863 60.9143 417.906 73.3022 417.906Z" fill="white" stroke="#0055DC" stroke-width="1.5" stroke-miterlimit="10"/>
<path d="M72.3847 387.061C72.7795 386.458 73.6636 386.458 74.0583 387.061L74.3761 387.547C74.6876 388.023 75.3331 388.143 75.7955 387.812L76.2647 387.476C76.8504 387.056 77.6743 387.374 77.8252 388.079L77.9482 388.654C78.0671 389.209 78.6244 389.554 79.1747 389.413L79.7364 389.269C80.4333 389.09 81.0854 389.683 80.9727 390.394L80.8795 390.982C80.7908 391.542 81.1848 392.064 81.7476 392.132L82.3305 392.202C83.0436 392.288 83.4363 393.075 83.0759 393.696L82.7752 394.215C82.4912 394.704 82.6697 395.332 83.1689 395.599L83.6936 395.879C84.3266 396.217 84.4078 397.092 83.8479 397.541L83.3815 397.915C82.9401 398.269 82.88 398.918 83.2488 399.347L83.6395 399.802C84.1076 400.346 83.8666 401.191 83.1819 401.407L82.6181 401.585C82.0779 401.755 81.7869 402.34 81.9764 402.873L82.1767 403.437C82.4173 404.114 81.8859 404.817 81.1686 404.77L80.5868 404.731C80.0204 404.694 79.5366 405.135 79.5214 405.702L79.5056 406.294C79.4862 407.014 78.7354 407.478 78.083 407.173L77.5593 406.929C77.044 406.688 76.4321 406.925 76.2133 407.45L75.9887 407.989C75.7113 408.654 74.8423 408.817 74.3436 408.296L73.9436 407.879C73.5499 407.468 72.8931 407.468 72.4994 407.879L72.0995 408.296C71.6007 408.817 70.7318 408.654 70.4544 407.989L70.2297 407.45C70.0109 406.925 69.399 406.688 68.8838 406.929L68.3601 407.173C67.7076 407.478 66.9568 407.014 66.9375 406.294L66.9216 405.702C66.9064 405.135 66.4226 404.694 65.8563 404.731L65.2744 404.77C64.5571 404.817 64.0258 404.114 64.2664 403.437L64.4666 402.873C64.6562 402.34 64.3651 401.755 63.8249 401.585L63.2611 401.407C62.5765 401.191 62.3355 400.346 62.8035 399.802L63.1942 399.347C63.5631 398.918 63.5029 398.269 63.0615 397.915L62.5952 397.541C62.0353 397.092 62.1165 396.217 62.7495 395.879L63.2741 395.599C63.7733 395.332 63.9519 394.704 63.6679 394.215L63.3671 393.696C63.0067 393.075 63.3994 392.288 64.1126 392.202L64.6954 392.132C65.2583 392.064 65.6523 391.542 65.5635 390.982L65.4703 390.394C65.3577 389.683 66.0098 389.09 66.7066 389.269L67.2684 389.413C67.8187 389.554 68.376 389.209 68.4949 388.654L68.6179 388.079C68.7687 387.374 69.5927 387.056 70.1783 387.476L70.6475 387.812C71.11 388.143 71.7554 388.023 72.0669 387.547L72.3847 387.061Z" fill="#003682"/>
<path d="M66.2244 407.16C67.3923 406.518 68.4743 405.731 69.4448 404.817V398.897L77.2429 398.989V404.557C77.5987 405.249 78.9433 406.099 80.7368 407.106C80.7368 407.106 77.3999 412.083 73.2084 412.083C69.0169 412.083 66.2244 407.16 66.2244 407.16Z" fill="#C5EBF5" stroke="#003682" stroke-width="1.5" stroke-miterlimit="10"/>
<path d="M73.303 417.906C78.8709 417.913 84.2411 415.842 88.3621 412.098C86.0607 410.125 83.5119 408.46 80.7801 407.145C80.7801 407.145 77.4007 412.083 73.2092 412.083C69.0177 412.083 66.2029 407.208 66.2029 407.208C63.6303 408.659 60.4742 410.024 58.1088 411.971C62.2448 415.793 67.6714 417.913 73.303 417.906Z" fill="#0055DC" stroke="#003682" stroke-width="1.5" stroke-miterlimit="10"/>
<path d="M80.7391 391.414C80.7815 391.247 80.8581 391.091 80.9641 390.956C81.0701 390.82 81.2032 390.708 81.3549 390.627C81.5065 390.546 81.6734 390.497 81.8449 390.484C82.0164 390.471 82.1888 390.494 82.3511 390.551C83.326 390.845 82.7774 394.385 80.0527 394.259C80.3352 393.325 80.5644 392.375 80.7391 391.414Z" fill="#C5EBF5" stroke="#003682" stroke-width="1.5" stroke-miterlimit="10"/>
<path d="M65.8629 391.414C65.8165 391.244 65.7353 391.086 65.6246 390.949C65.5138 390.811 65.3758 390.699 65.2193 390.618C65.0628 390.537 64.8912 390.489 64.7153 390.477C64.5394 390.466 64.363 390.491 64.1973 390.551C63.3473 390.896 63.771 394.385 66.4976 394.26C66.2249 393.326 66.0129 392.376 65.8629 391.414Z" fill="#C5EBF5" stroke="#003682" stroke-width="1.5" stroke-miterlimit="10"/>
<path d="M81.0922 388.164C81.0922 390.186 80.3518 394.304 79.0517 396.79C78.0867 398.636 75.6003 400.691 73.3398 400.691C71.0793 400.691 68.8487 398.636 67.6279 396.791C66.08 394.451 65.5873 390.186 65.5873 388.164C65.5873 386.108 66.4041 384.136 67.858 382.682C69.3118 381.228 71.2837 380.412 73.3398 380.412C75.3959 380.412 77.3677 381.228 78.8216 382.682C80.2755 384.136 81.0922 386.108 81.0922 388.164Z" fill="#C5EBF5" stroke="#003682" stroke-width="1.5" stroke-miterlimit="10"/>
<path d="M80.6923 390.71C80.3296 387.629 77.3417 383.528 74.0044 383.528L73.4536 380.974L74.4868 383.557C74.4868 389.14 66.2079 387.649 65.8624 391.338L65.7298 391.206C65.5595 390.13 65.4677 389.044 65.4552 387.956C65.4552 383.674 69.0587 380.336 73.3402 380.336C75.4102 380.331 77.3988 381.142 78.8748 382.593C80.3509 384.045 81.1953 386.019 81.2252 388.089C81.1843 389.153 81.0383 390.211 80.7892 391.246L80.6923 390.71Z" fill="#003682" stroke="#003682" stroke-width="1.5" stroke-linejoin="round"/>
<path d="M73.3022 417.906C85.6901 417.906 95.7325 407.863 95.7325 395.475C95.7325 383.087 85.6901 373.045 73.3022 373.045C60.9143 373.045 50.8719 383.087 50.8719 395.475C50.8719 407.863 60.9143 417.906 73.3022 417.906Z" stroke="#0055DC" stroke-width="1.5" stroke-miterlimit="10"/>
<path d="M120.5 396.945H519.5" stroke="#5E5E5E" stroke-width="3" stroke-linejoin="bevel"/>
<defs>
<linearGradient id="paint0_linear_269_394" x1="698" y1="37" x2="698" y2="582" gradientUnits="userSpaceOnUse">
<stop stop-color="#DC0000"/>
<stop offset="0.497966" stop-color="#DCDC00"/>
<stop offset="1" stop-color="#00A800"/>
</linearGradient>
</defs>
</svg>
