<svg xmlns="http://www.w3.org/2000/svg" width="1184" height="540" fill="none" viewBox="0 0 1184 540"><path fill="#fff" d="M0 0h1184v540H0z"/><path fill="#fff" stroke="#F6821F" stroke-width="2" d="M197 39h559v483H197z"/><path fill="#fff" d="M240 24h346v28H240z"/><path fill="#222" d="M280.878 31.656h-3.733a3.6 3.6 0 0 0-.418-1.287q-.315-.57-.809-.971a3.6 3.6 0 0 0-1.142-.614 4.4 4.4 0 0 0-1.39-.213q-1.355 0-2.36.673-1.007.665-1.56 1.944-.554 1.27-.554 3.085 0 1.866.554 3.136.563 1.27 1.568 1.918t2.327.647a4.6 4.6 0 0 0 1.372-.196q.639-.195 1.134-.57a3.3 3.3 0 0 0 .818-.93q.332-.545.46-1.244l3.733.017a6.8 6.8 0 0 1-.725 2.318q-.57 1.108-1.542 1.986-.963.87-2.301 1.38-1.33.504-3.009.504-2.335 0-4.176-1.057-1.832-1.057-2.898-3.06-1.056-2.003-1.056-4.85 0-2.854 1.073-4.857 1.074-2.003 2.915-3.051 1.84-1.057 4.142-1.057 1.517 0 2.813.426a7.1 7.1 0 0 1 2.309 1.244 6.4 6.4 0 0 1 1.637 1.986q.64 1.176.818 2.693m5.753-6.11V43H283V25.546zm8.367 17.71q-1.986 0-3.435-.844a5.77 5.77 0 0 1-2.224-2.37q-.784-1.524-.784-3.536 0-2.029.784-3.546a5.7 5.7 0 0 1 2.224-2.37q1.449-.85 3.435-.851 1.986 0 3.426.852a5.7 5.7 0 0 1 2.233 2.37q.784 1.515.784 3.545 0 2.01-.784 3.537a5.76 5.76 0 0 1-2.233 2.369q-1.44.843-3.426.844m.017-2.813q.903 0 1.508-.511.606-.52.912-1.415.316-.896.316-2.037t-.316-2.037q-.306-.894-.912-1.415-.605-.52-1.508-.52-.912 0-1.534.52-.614.52-.929 1.415-.307.896-.307 2.037t.307 2.037q.315.895.929 1.415.622.51 1.534.511m16.726-3.017V29.91h3.63V43h-3.485v-2.378h-.137a3.87 3.87 0 0 1-1.474 1.85q-1.023.698-2.497.698-1.312 0-2.31-.596-.998-.597-1.56-1.696-.553-1.1-.562-2.634V29.91h3.631v7.688q.008 1.158.622 1.832.613.673 1.645.673.656 0 1.227-.298a2.34 2.34 0 0 0 .92-.903q.358-.597.35-1.475m10.902 5.787a4.94 4.94 0 0 1-2.701-.767q-1.202-.776-1.909-2.276-.699-1.508-.699-3.698 0-2.25.724-3.742.725-1.5 1.926-2.241 1.21-.75 2.651-.75 1.1 0 1.832.375.742.365 1.193.92.46.546.699 1.074h.111v-6.562h3.622V43h-3.579v-2.097h-.154a4.7 4.7 0 0 1-.724 1.083q-.46.528-1.202.878-.732.35-1.79.35m1.151-2.89q.877 0 1.483-.476.613-.486.937-1.355.333-.87.333-2.037 0-1.168-.324-2.029-.324-.86-.938-1.33-.613-.468-1.491-.468-.895 0-1.509.486-.613.485-.929 1.346-.315.861-.315 1.995 0 1.14.315 2.02.324.868.929 1.363.614.486 1.509.486m15.867-10.414v2.727h-8.079V29.91zM333.431 43V28.963q0-1.424.554-2.36a3.56 3.56 0 0 1 1.534-1.407q.972-.469 2.207-.469.836 0 1.526.128.7.128 1.04.23l-.648 2.727a5 5 0 0 0-.528-.127 3.3 3.3 0 0 0-.631-.06q-.8 0-1.117.375-.315.366-.315 1.031V43zm11.623-17.454V43h-3.631V25.546zm6.185 17.701q-1.252 0-2.233-.434a3.6 3.6 0 0 1-1.551-1.305q-.562-.868-.562-2.164 0-1.09.4-1.833a3.24 3.24 0 0 1 1.091-1.193q.69-.451 1.568-.682.886-.23 1.858-.324 1.142-.119 1.841-.221.699-.111 1.014-.324t.316-.63v-.052q0-.81-.512-1.253-.502-.443-1.432-.443-.98 0-1.559.435a2 2 0 0 0-.767 1.074l-3.358-.273a4.56 4.56 0 0 1 1.005-2.062q.75-.879 1.935-1.347 1.193-.477 2.762-.477a8.4 8.4 0 0 1 2.088.255q1.005.256 1.781.793.784.537 1.236 1.38.451.836.451 2.003V43h-3.443v-1.815h-.102q-.316.614-.844 1.082a3.9 3.9 0 0 1-1.27.724q-.741.256-1.713.256m1.04-2.505q.801 0 1.415-.316.613-.324.963-.87a2.24 2.24 0 0 0 .349-1.235v-1.39q-.17.112-.469.205-.289.086-.656.162a32 32 0 0 1-.733.128l-.665.094a4.5 4.5 0 0 0-1.116.298 1.8 1.8 0 0 0-.741.554q-.265.34-.265.852 0 .742.537 1.134.546.384 1.381.384M360.972 43V29.91h3.52v2.283h.136q.359-1.218 1.202-1.84.844-.631 1.943-.631.273 0 .588.034.316.034.554.093v3.222a5 5 0 0 0-.707-.136 6 6 0 0 0-.827-.06q-.8 0-1.432.35a2.6 2.6 0 0 0-.988.954q-.358.614-.358 1.415V43zm14.721.256q-2.02 0-3.477-.819a5.6 5.6 0 0 1-2.233-2.335q-.784-1.516-.784-3.588 0-2.02.784-3.545a5.8 5.8 0 0 1 2.207-2.378q1.432-.852 3.358-.852 1.296 0 2.412.417 1.125.41 1.96 1.236.844.826 1.313 2.08.468 1.244.468 2.914v.997h-11.054v-2.25h7.637q0-.783-.341-1.389a2.44 2.44 0 0 0-.946-.946q-.597-.35-1.389-.35-.827 0-1.466.384-.631.375-.989 1.015-.358.63-.366 1.406v2.139q0 .971.358 1.679.366.708 1.031 1.09.665.385 1.577.384a3.4 3.4 0 0 0 1.108-.17q.503-.17.86-.511a2.2 2.2 0 0 0 .546-.836l3.358.222a4.6 4.6 0 0 1-1.049 2.114q-.783.894-2.028 1.397-1.236.495-2.855.495m24.662-12.068a3.8 3.8 0 0 0-.502-1.1 3.1 3.1 0 0 0-.793-.818 3.4 3.4 0 0 0-1.057-.52 4.5 4.5 0 0 0-1.304-.179q-1.338 0-2.352.665-1.005.665-1.568 1.935-.563 1.26-.563 3.085t.554 3.102q.555 1.278 1.568 1.952 1.015.664 2.395.664 1.254 0 2.14-.443a3.2 3.2 0 0 0 1.363-1.27q.477-.818.477-1.934l.75.11h-4.5V33.66h7.304v2.199q0 2.3-.971 3.955a6.63 6.63 0 0 1-2.676 2.54q-1.705.886-3.904.886-2.455 0-4.312-1.083-1.858-1.09-2.898-3.093-1.03-2.011-1.031-4.773 0-2.122.613-3.784.623-1.67 1.739-2.83a7.5 7.5 0 0 1 2.6-1.764q1.482-.605 3.213-.605 1.482 0 2.761.434a7.4 7.4 0 0 1 2.267 1.21 6.6 6.6 0 0 1 1.628 1.867q.63 1.074.809 2.37zm9.791-5.642V43h-3.631V25.546zm8.367 17.71q-1.986 0-3.435-.844a5.8 5.8 0 0 1-2.224-2.37q-.784-1.524-.784-3.536 0-2.029.784-3.546a5.7 5.7 0 0 1 2.224-2.37q1.449-.85 3.435-.851 1.986 0 3.426.852a5.7 5.7 0 0 1 2.233 2.37q.784 1.515.784 3.545 0 2.01-.784 3.537a5.76 5.76 0 0 1-2.233 2.369q-1.44.843-3.426.844m.017-2.813q.903 0 1.509-.511.604-.52.912-1.415.315-.896.315-2.037t-.315-2.037q-.308-.894-.912-1.415-.606-.52-1.509-.52-.912 0-1.534.52-.614.52-.929 1.415-.307.896-.307 2.037t.307 2.037q.315.895.929 1.415.622.51 1.534.511M426.929 43V25.546h3.631v6.562h.111a4.8 4.8 0 0 1 .69-1.074q.46-.554 1.193-.92.742-.375 1.841-.375 1.432 0 2.642.75 1.21.741 1.935 2.241.724 1.492.724 3.742 0 2.19-.707 3.698-.699 1.5-1.909 2.276-1.202.767-2.693.767-1.057 0-1.799-.35a3.7 3.7 0 0 1-1.201-.877 4.5 4.5 0 0 1-.716-1.083h-.162V43zm3.554-6.545q0 1.167.324 2.037.324.868.938 1.355.613.477 1.491.477.887 0 1.5-.486.614-.495.929-1.364.324-.877.324-2.02 0-1.133-.315-1.994-.316-.861-.929-1.346t-1.509-.486q-.887 0-1.5.469-.605.468-.929 1.33-.324.86-.324 2.028m14.913 6.792q-1.253 0-2.233-.434a3.6 3.6 0 0 1-1.551-1.305q-.563-.868-.563-2.164 0-1.09.401-1.833a3.24 3.24 0 0 1 1.091-1.193q.69-.451 1.568-.682.886-.23 1.858-.324 1.142-.119 1.841-.221.699-.111 1.014-.324t.315-.63v-.052q0-.81-.511-1.253-.503-.443-1.432-.443-.98 0-1.56.435a2 2 0 0 0-.767 1.074l-3.358-.273a4.6 4.6 0 0 1 1.006-2.062q.75-.879 1.935-1.347 1.193-.477 2.761-.477a8.4 8.4 0 0 1 2.088.255q1.006.256 1.782.793.783.537 1.235 1.38.452.836.452 2.003V43h-3.443v-1.815h-.102q-.316.614-.844 1.082a3.9 3.9 0 0 1-1.27.724q-.741.256-1.713.256m1.04-2.505q.8 0 1.414-.316a2.5 2.5 0 0 0 .963-.87q.35-.545.35-1.235v-1.39a2 2 0 0 1-.469.205 9 9 0 0 1-.656.162q-.366.069-.733.128l-.665.094a4.5 4.5 0 0 0-1.116.298 1.8 1.8 0 0 0-.742.554q-.264.34-.264.852 0 .742.537 1.134.546.384 1.381.384m12.323-15.196V43h-3.63V25.546zm22.219 0V43h-3.187l-7.594-10.986h-.128V43h-3.69V25.546h3.238l7.534 10.977h.154V25.545zm8.491 17.71q-2.02 0-3.477-.819a5.6 5.6 0 0 1-2.233-2.335q-.784-1.516-.784-3.588 0-2.02.784-3.545a5.8 5.8 0 0 1 2.207-2.378q1.432-.852 3.358-.852 1.296 0 2.412.417 1.125.41 1.96 1.236.844.826 1.313 2.08.468 1.244.468 2.914v.997h-11.054v-2.25h7.637q0-.783-.341-1.389a2.44 2.44 0 0 0-.946-.946q-.597-.35-1.389-.35-.827 0-1.466.384-.631.375-.989 1.015-.358.63-.366 1.406v2.139q0 .971.358 1.679.366.708 1.031 1.09.665.385 1.577.384a3.4 3.4 0 0 0 1.107-.17q.504-.17.861-.511a2.2 2.2 0 0 0 .546-.836l3.358.222a4.6 4.6 0 0 1-1.049 2.114q-.783.894-2.028 1.397-1.236.495-2.855.495m14.885-13.347v2.727h-7.884V29.91zm-6.094-3.136h3.631v12.204q0 .504.153.784.153.273.426.384.282.11.648.11.256 0 .511-.042l.392-.077.571 2.702a10 10 0 0 1-.767.196 6 6 0 0 1-1.201.145q-1.312.051-2.301-.35a3.2 3.2 0 0 1-1.526-1.244q-.546-.844-.537-2.13zM508.845 43l-3.562-13.09h3.673l2.028 8.795h.12l2.113-8.796h3.605l2.148 8.744h.111l1.994-8.744h3.665L521.186 43h-3.844l-2.25-8.233h-.162L512.68 43zm22.963.256q-1.986 0-3.435-.844a5.8 5.8 0 0 1-2.225-2.37q-.784-1.524-.784-3.536 0-2.029.784-3.546a5.7 5.7 0 0 1 2.225-2.37q1.449-.85 3.435-.851 1.985 0 3.426.852a5.7 5.7 0 0 1 2.233 2.37q.784 1.515.784 3.545 0 2.01-.784 3.537a5.76 5.76 0 0 1-2.233 2.369q-1.442.843-3.426.844m.017-2.813q.903 0 1.508-.511.605-.52.912-1.415.315-.896.315-2.037t-.315-2.037q-.307-.894-.912-1.415-.605-.52-1.508-.52-.912 0-1.535.52-.613.52-.928 1.415-.307.896-.307 2.037t.307 2.037q.315.895.928 1.415.623.51 1.535.511M540.156 43V29.91h3.519v2.283h.137q.358-1.218 1.201-1.84a3.16 3.16 0 0 1 1.944-.631q.272 0 .588.034t.554.093v3.222a5 5 0 0 0-.708-.136 6 6 0 0 0-.826-.06q-.801 0-1.432.35a2.57 2.57 0 0 0-.989.954q-.358.614-.358 1.415V43zm12.654-3.767.008-4.355h.529l4.193-4.969h4.167l-5.633 6.58h-.861zM549.52 43V25.546h3.631V43zm8.182 0-3.853-5.702 2.421-2.565L561.955 43zM69.76 135.273V144h-1.845v-8.727zm3.3 4.943V144h-1.816v-6.545h1.73v1.154h.077a1.83 1.83 0 0 1 .728-.903q.512-.337 1.24-.337.682 0 1.19.299.506.298.788.852.28.55.281 1.312V144h-1.815v-3.844q.004-.6-.307-.937-.311-.341-.857-.341-.366 0-.647.158-.278.157-.435.46a1.6 1.6 0 0 0-.158.72m8.06 3.891q-.745 0-1.35-.384-.6-.388-.955-1.138-.35-.754-.35-1.849 0-1.125.363-1.871.363-.75.963-1.121.605-.375 1.326-.375.549 0 .916.188.37.183.596.46.23.273.35.537h.055v-3.281h1.811V144h-1.79v-1.048h-.076a2.3 2.3 0 0 1-.362.541 1.8 1.8 0 0 1-.601.439q-.367.175-.895.175m.576-1.445q.44 0 .742-.239a1.5 1.5 0 0 0 .468-.677q.166-.435.166-1.019t-.162-1.014a1.46 1.46 0 0 0-.468-.665 1.2 1.2 0 0 0-.746-.234q-.448 0-.754.243-.308.243-.465.673a2.9 2.9 0 0 0-.157.997q0 .572.157 1.01.162.435.465.682.306.243.754.243M86.338 144v-6.545h1.815V144zm.912-7.389a1 1 0 0 1-.695-.269.87.87 0 0 1-.286-.652q0-.375.286-.643a.98.98 0 0 1 .695-.273q.405 0 .69.273.29.268.29.643a.86.86 0 0 1-.29.652.97.97 0 0 1-.69.269m4.224 7.513q-.627 0-1.117-.218a1.8 1.8 0 0 1-.775-.652q-.282-.434-.282-1.082 0-.546.2-.916.201-.37.546-.597.346-.225.784-.341a6 6 0 0 1 .93-.162q.57-.06.92-.111.35-.054.507-.161a.36.36 0 0 0 .157-.316v-.025q0-.405-.255-.627-.252-.221-.716-.221-.49 0-.78.217a1 1 0 0 0-.383.537l-1.68-.137q.129-.596.503-1.031.375-.439.968-.673.596-.239 1.38-.239.546 0 1.044.128.504.127.891.396.392.269.618.691.226.417.226 1.001V144h-1.722v-.908h-.05a1.9 1.9 0 0 1-.423.542 2 2 0 0 1-.635.362 2.6 2.6 0 0 1-.856.128m.52-1.253q.4 0 .707-.158.307-.162.482-.435.174-.272.174-.617v-.695a1 1 0 0 1-.234.102 4 4 0 0 1-.328.081q-.184.034-.367.064l-.332.047q-.32.047-.558.149a.9.9 0 0 0-.371.277.68.68 0 0 0-.132.426q0 .37.268.567.273.192.69.192M61.356 262.094a1.9 1.9 0 0 0-.251-.55 1.7 1.7 0 0 0-.925-.669 2.2 2.2 0 0 0-.652-.089q-.669 0-1.176.332-.503.332-.784.967-.282.631-.282 1.543t.277 1.551.784.976q.508.332 1.198.332.626 0 1.07-.221.447-.227.681-.635.24-.409.239-.968l.375.056h-2.25v-1.389h3.652v1.099q0 1.15-.486 1.977-.486.823-1.338 1.27-.852.444-1.952.443-1.227 0-2.156-.541a3.76 3.76 0 0 1-1.449-1.547q-.515-1.006-.515-2.386 0-1.062.306-1.892a4 4 0 0 1 .87-1.415q.558-.579 1.3-.882a4.2 4.2 0 0 1 1.606-.303q.742 0 1.38.218.64.213 1.134.605.5.392.814.933.315.537.405 1.185zm6.29 6.034q-1.008 0-1.738-.409a2.8 2.8 0 0 1-1.116-1.168q-.392-.759-.392-1.794 0-1.01.392-1.773t1.103-1.189q.716-.426 1.68-.426.647 0 1.205.209.563.204.98.618.422.413.657 1.04.234.622.234 1.457v.499h-5.527v-1.125h3.818a1.4 1.4 0 0 0-.17-.695 1.2 1.2 0 0 0-.473-.473 1.35 1.35 0 0 0-.695-.175q-.413 0-.733.192-.315.188-.494.507-.18.316-.183.703v1.07q0 .486.179.84.183.353.515.545.333.192.789.192.302 0 .554-.085a1.11 1.11 0 0 0 .703-.674l1.679.111q-.128.605-.524 1.057a2.64 2.64 0 0 1-1.015.699q-.618.247-1.427.247m4.19-.128v-6.545h1.76v1.142h.068q.18-.61.6-.921a1.58 1.58 0 0 1 .972-.315 2.6 2.6 0 0 1 .571.064v1.611a3.2 3.2 0 0 0-.767-.098q-.4 0-.716.174a1.3 1.3 0 0 0-.494.477q-.18.307-.179.708V268zm4.91 0v-6.545h1.73v1.154h.077q.204-.575.682-.907.477-.333 1.142-.333.673 0 1.146.337.473.333.63.903h.069q.2-.562.724-.899.53-.34 1.249-.341.915 0 1.487.584.575.58.575 1.645V268h-1.81v-4.044q0-.546-.29-.818a1 1 0 0 0-.725-.273q-.495 0-.771.315-.277.312-.277.823V268h-1.76v-4.082q0-.482-.277-.767-.273-.286-.72-.286-.303 0-.546.153-.238.15-.38.422-.14.269-.14.631V268zm12.812.124q-.627 0-1.117-.218a1.8 1.8 0 0 1-.775-.652q-.282-.434-.282-1.082 0-.546.2-.916.201-.37.546-.597.346-.225.784-.341.443-.115.93-.162.57-.06.92-.111.35-.054.507-.161a.36.36 0 0 0 .157-.316v-.025q0-.405-.255-.627-.252-.221-.716-.221-.49 0-.78.217a1 1 0 0 0-.384.537l-1.678-.137q.127-.596.502-1.031.375-.438.968-.673.596-.239 1.38-.239.546 0 1.044.128.503.127.891.396.391.269.618.691.225.417.226 1.001V268h-1.722v-.908h-.05a1.9 1.9 0 0 1-.423.542 2 2 0 0 1-.635.362 2.6 2.6 0 0 1-.856.128m.52-1.253q.4 0 .707-.158.307-.162.481-.435.175-.272.175-.617v-.695a1 1 0 0 1-.234.102 4 4 0 0 1-.328.081q-.183.034-.367.064l-.332.047q-.32.047-.558.149a.9.9 0 0 0-.371.277.68.68 0 0 0-.132.426q0 .37.268.567.273.192.69.192m6.39-2.655V268h-1.816v-6.545h1.73v1.154h.077a1.83 1.83 0 0 1 .729-.903q.51-.337 1.24-.337.68 0 1.189.299.507.298.788.852.281.55.281 1.312V268h-1.815v-3.844q.004-.6-.307-.937-.311-.341-.856-.341-.367 0-.648.158-.278.157-.435.46a1.6 1.6 0 0 0-.157.72m6.535 6.239q-.345 0-.647-.056a2.4 2.4 0 0 1-.495-.132l.409-1.355q.32.098.576.106a.73.73 0 0 0 .447-.119q.192-.128.311-.435l.107-.276-2.348-6.733h1.909l1.355 4.806h.068l1.368-4.806h1.922l-2.544 7.252a3 3 0 0 1-.499.921q-.31.396-.788.609-.477.218-1.151.218m-55.18 115.818h1.845v5.667q0 .955-.456 1.671a3.05 3.05 0 0 1-1.265 1.116q-.814.396-1.897.397-1.086 0-1.9-.397a3.05 3.05 0 0 1-1.266-1.116q-.452-.716-.452-1.671v-5.667h1.846v5.51q0 .498.217.886.222.389.622.609.4.222.933.222.538 0 .934-.222.4-.22.617-.609.222-.387.222-.886zm5.145 4.943V395h-1.816v-6.545h1.73v1.154h.077a1.83 1.83 0 0 1 .729-.903q.51-.337 1.24-.337.68 0 1.189.299.507.298.788.852.281.55.281 1.312V395h-1.815v-3.844q.004-.6-.307-.937-.311-.341-.856-.341-.367 0-.648.158-.277.157-.435.46a1.6 1.6 0 0 0-.157.72M58.617 395v-6.545h1.815V395zm.912-7.389a1 1 0 0 1-.695-.269.87.87 0 0 1-.285-.652q0-.375.285-.643a.98.98 0 0 1 .695-.273q.405 0 .69.273.29.268.29.643a.86.86 0 0 1-.29.652.97.97 0 0 1-.69.269m5.84.844v1.363h-3.943v-1.363zm-3.048-1.569h1.816v6.103a.8.8 0 0 0 .076.392.42.42 0 0 0 .213.191.9.9 0 0 0 .324.056q.127 0 .256-.021l.196-.039.285 1.351q-.135.042-.383.098-.247.06-.601.072-.656.026-1.15-.174a1.6 1.6 0 0 1-.763-.622q-.273-.423-.269-1.066zm7.142 8.242q-1.01 0-1.738-.409a2.8 2.8 0 0 1-1.117-1.168q-.392-.759-.392-1.794 0-1.01.392-1.773t1.104-1.189q.716-.426 1.679-.426.648 0 1.206.209.563.204.98.618.422.413.656 1.04.234.622.234 1.457v.499h-5.526v-1.125h3.818a1.4 1.4 0 0 0-.17-.695 1.2 1.2 0 0 0-.474-.473 1.35 1.35 0 0 0-.694-.175q-.414 0-.733.192-.315.188-.495.507-.179.316-.183.703v1.07q0 .486.18.84.182.353.515.545.332.192.788.192.302 0 .554-.085t.43-.256q.18-.17.273-.418l1.68.111q-.128.605-.525 1.057a2.64 2.64 0 0 1-1.014.699q-.618.246-1.428.247m6.601-.021a2.47 2.47 0 0 1-1.35-.384q-.602-.388-.955-1.138-.35-.754-.35-1.849 0-1.125.362-1.871.363-.75.964-1.121.605-.375 1.325-.375.55 0 .916.188.37.183.597.46.23.273.35.537h.055v-3.281h1.81V395h-1.79v-1.048h-.076a2.3 2.3 0 0 1-.362.541 1.8 1.8 0 0 1-.601.439q-.367.175-.895.175m.575-1.445q.44 0 .742-.239a1.5 1.5 0 0 0 .469-.677q.165-.435.166-1.019 0-.583-.162-1.014a1.46 1.46 0 0 0-.469-.665 1.2 1.2 0 0 0-.746-.234q-.448 0-.754.243-.307.243-.464.673a2.9 2.9 0 0 0-.158.997q0 .572.158 1.01.162.435.464.682.307.243.754.243m12.188-4.879q-.05-.516-.439-.801t-1.053-.286q-.45 0-.762.128a1.07 1.07 0 0 0-.478.345.83.83 0 0 0-.162.503.7.7 0 0 0 .098.409q.111.174.303.303.192.123.443.217.252.09.537.153l.784.188q.57.128 1.049.341.477.212.826.524.35.311.541.733.197.421.2.967-.003.801-.408 1.389-.4.584-1.16.908-.753.32-1.82.32-1.056 0-1.84-.324a2.7 2.7 0 0 1-1.219-.959q-.434-.639-.456-1.581h1.786q.03.44.251.733.225.29.601.439a2.4 2.4 0 0 0 .857.145q.468 0 .814-.137.35-.136.54-.379a.88.88 0 0 0 .193-.558.72.72 0 0 0-.175-.494 1.3 1.3 0 0 0-.503-.341 5 5 0 0 0-.805-.256l-.95-.239q-1.104-.269-1.744-.839-.64-.572-.635-1.539-.003-.793.422-1.384.43-.593 1.18-.925t1.705-.333q.972 0 1.696.333.729.332 1.134.925.405.591.417 1.372zm6.576-.328v1.363h-3.942v-1.363zm-3.047-1.569h1.816v6.103a.8.8 0 0 0 .076.392.42.42 0 0 0 .213.191.9.9 0 0 0 .324.056q.128 0 .256-.021l.196-.039.285 1.351q-.135.042-.383.098a3 3 0 0 1-.6.072q-.657.026-1.151-.174a1.6 1.6 0 0 1-.763-.622q-.273-.423-.269-1.066zm6.096 8.238q-.626 0-1.116-.218a1.8 1.8 0 0 1-.776-.652q-.28-.434-.281-1.082 0-.546.2-.916.201-.37.546-.597.345-.225.784-.341a6 6 0 0 1 .929-.162q.57-.06.92-.111.35-.054.507-.161a.36.36 0 0 0 .158-.316v-.025q0-.405-.256-.627-.25-.221-.716-.221-.489 0-.78.217a1 1 0 0 0-.383.537l-1.679-.137q.128-.596.503-1.031.375-.438.967-.673.597-.239 1.38-.239.547 0 1.045.128.502.127.891.396.392.269.617.691.226.417.226 1.001V395h-1.721v-.908h-.051a1.9 1.9 0 0 1-.422.542 2 2 0 0 1-.635.362 2.6 2.6 0 0 1-.857.128m.52-1.253q.4 0 .708-.158.306-.162.481-.435.175-.272.175-.617v-.695a1 1 0 0 1-.235.102 4 4 0 0 1-.328.081q-.183.034-.366.064l-.333.047q-.32.047-.558.149a.9.9 0 0 0-.37.277.68.68 0 0 0-.133.426q0 .37.269.567.273.192.69.192m8.056-5.416v1.363h-3.942v-1.363zm-3.047-1.569h1.816v6.103q0 .25.076.392a.42.42 0 0 0 .213.191.9.9 0 0 0 .324.056q.129 0 .256-.021l.196-.039.286 1.351a5 5 0 0 1-.384.098q-.247.06-.601.072-.656.026-1.15-.174a1.6 1.6 0 0 1-.763-.622q-.272-.423-.269-1.066zm7.142 8.242q-1.01 0-1.738-.409a2.8 2.8 0 0 1-1.117-1.168q-.392-.759-.392-1.794 0-1.01.392-1.773.393-.762 1.104-1.189.716-.426 1.679-.426.648 0 1.206.209.563.204.98.618.422.413.656 1.04.235.622.235 1.457v.499h-5.527v-1.125h3.818q0-.393-.171-.695a1.2 1.2 0 0 0-.473-.473 1.35 1.35 0 0 0-.694-.175q-.414 0-.733.192-.315.188-.494.507a1.43 1.43 0 0 0-.184.703v1.07q0 .486.179.84.183.353.516.545.332.192.788.192.303 0 .554-.085t.431-.256a1.1 1.1 0 0 0 .272-.418l1.679.111q-.128.605-.524 1.057a2.6 2.6 0 0 1-1.014.699q-.618.246-1.428.247m9.635-4.807-1.662.102a.85.85 0 0 0-.183-.383.96.96 0 0 0-.371-.277 1.3 1.3 0 0 0-.541-.107q-.422 0-.711.179-.29.175-.29.469 0 .234.187.396.188.162.644.26l1.184.239q.955.196 1.424.631.468.434.468 1.142 0 .643-.379 1.129-.375.486-1.031.758-.652.269-1.504.269-1.3 0-2.071-.541a2.1 2.1 0 0 1-.899-1.483l1.785-.094a.92.92 0 0 0 .392.605q.31.205.797.205.477 0 .767-.184.294-.187.298-.481a.5.5 0 0 0-.208-.405q-.205-.162-.631-.247l-1.134-.226q-.959-.191-1.427-.665-.465-.472-.465-1.206 0-.63.341-1.086.345-.456.968-.704.626-.246 1.465-.247 1.24 0 1.952.524.716.525.835 1.428M67.84 510.273h1.825v6.085q0 .843-.38 1.466-.375.622-1.044.959t-1.555.336a3.6 3.6 0 0 1-1.432-.277 2.3 2.3 0 0 1-1.014-.852q-.376-.575-.37-1.445h1.836q.008.346.14.593a.96.96 0 0 0 .371.375q.24.128.563.128.34 0 .575-.145.239-.15.362-.435t.124-.703zm5.182 8.851q-.626 0-1.116-.218a1.8 1.8 0 0 1-.776-.652q-.28-.434-.28-1.082 0-.546.2-.916t.545-.597q.346-.225.784-.341a6 6 0 0 1 .93-.162q.57-.06.92-.111.349-.054.507-.161a.36.36 0 0 0 .157-.316v-.025q0-.405-.255-.627-.252-.222-.716-.221-.49 0-.78.217a1 1 0 0 0-.384.537l-1.679-.137q.129-.596.503-1.031.375-.439.968-.673.596-.239 1.38-.239.546 0 1.044.128.503.128.89.396.393.269.619.691.226.417.226 1.001V519h-1.722v-.908h-.051a1.9 1.9 0 0 1-.422.542 2 2 0 0 1-.635.362 2.6 2.6 0 0 1-.857.128m.52-1.253q.4 0 .708-.158.306-.162.481-.435.175-.272.175-.617v-.695a1 1 0 0 1-.234.102 4 4 0 0 1-.328.081q-.184.034-.367.064l-.332.047q-.32.047-.558.149a.9.9 0 0 0-.371.277.68.68 0 0 0-.132.426q0 .37.268.567.273.192.69.192m4.575 3.584v-9h1.79v1.099h.08q.12-.264.346-.537.23-.277.597-.46.37-.188.92-.188.716 0 1.321.375.605.37.967 1.121.363.746.362 1.871 0 1.095-.353 1.849-.35.75-.955 1.138-.601.384-1.346.384-.529 0-.9-.175a1.9 1.9 0 0 1-.6-.439 2.2 2.2 0 0 1-.358-.541h-.056v3.503zm1.777-5.728q0 .584.162 1.019t.469.677q.306.239.745.239.444 0 .75-.243.308-.247.465-.682.162-.438.162-1.01 0-.567-.158-.997a1.5 1.5 0 0 0-.464-.673 1.18 1.18 0 0 0-.755-.243 1.2 1.2 0 0 0-.75.234 1.5 1.5 0 0 0-.464.665 2.9 2.9 0 0 0-.162 1.014m7.683 3.397q-.626 0-1.116-.218a1.8 1.8 0 0 1-.776-.652q-.28-.434-.281-1.082 0-.546.2-.916.201-.37.546-.597.345-.225.784-.341a6 6 0 0 1 .929-.162q.57-.06.92-.111.35-.054.507-.161a.36.36 0 0 0 .158-.316v-.025q0-.405-.256-.627-.25-.222-.716-.221-.489 0-.78.217a1 1 0 0 0-.383.537l-1.679-.137q.128-.596.503-1.031.375-.439.967-.673.597-.239 1.38-.239.547 0 1.045.128.503.128.89.396.393.269.618.691.226.417.226 1.001V519h-1.721v-.908h-.051a1.9 1.9 0 0 1-.422.542 2 2 0 0 1-.635.362 2.6 2.6 0 0 1-.857.128m.52-1.253q.4 0 .708-.158.306-.162.481-.435.175-.272.175-.617v-.695a1 1 0 0 1-.235.102 4 4 0 0 1-.328.081q-.183.034-.366.064l-.333.047q-.32.047-.558.149a.9.9 0 0 0-.37.277.68.68 0 0 0-.133.426q0 .37.269.567.273.192.69.192m6.39-2.655V519h-1.815v-6.545h1.73v1.154h.076a1.83 1.83 0 0 1 .73-.903q.51-.337 1.24-.337.681 0 1.188.299.507.298.788.852.282.55.282 1.312V519H96.89v-3.844q.004-.6-.306-.937-.311-.341-.857-.341-.366 0-.648.158-.277.157-.434.46a1.6 1.6 0 0 0-.158.72"/><path fill="#fff" stroke="#0055DC" stroke-width="2" d="M831 318h151v154H831z"/><path fill="#C5EBF5" stroke="#0055DC" stroke-miterlimit="10" stroke-width="1.5" d="M848.378 308.528h-3.162v-20.715h1.756v1.978h1.406z"/><path fill="#fff" d="M847.596 291.768h-2.312v16.669h2.312z"/><path fill="#0055DC" d="M847.086 292.528h.502v-.76h-.502zm-1.151 0h.501v-.76h-.501zm1.151 2.423h.502v-.76h-.502zm-1.151 0h.501v-.76h-.501zm1.151 2.422h.502v-.76h-.502zm-1.151 0h.501v-.76h-.501zm1.151 2.422h.502v-.76h-.502zm-1.151 0h.501v-.76h-.501zm1.151 2.423h.502v-.76h-.502zm-1.151 0h.501v-.76h-.501zm1.151 2.422h.502v-.76h-.502zm-1.151 0h.501v-.76h-.501zm1.151 2.422h.502v-.76h-.502zm-1.151 0h.501v-.76h-.501zm2.997-16.004h-.554v17.47h.554z"/><path fill="#C5EBF5" stroke="#0055DC" stroke-miterlimit="10" stroke-width="1.5" d="M833.25 308.528h3.163v-20.715h-1.757v1.978h-1.406z"/><path fill="#fff" d="M836.353 291.768h-2.312v16.669h2.312z"/><path fill="#0055DC" d="M834.542 291.768h-.501v.76h.501zm1.151 0h-.501v.76h.501zm-1.151 2.422h-.501v.761h.501zm1.151 0h-.501v.761h.501zm-1.151 2.423h-.501v.76h.501zm1.151 0h-.501v.76h.501zm-1.151 2.422h-.501v.76h.501zm1.151 0h-.501v.76h.501zm-1.151 2.423h-.501v.76h.501zm1.151 0h-.501v.76h.501zm-1.151 2.422h-.501v.76h.501zm1.151 0h-.501v.76h.501zm-1.151 2.422h-.501v.761h.501zm1.151 0h-.501v.761h.501zm-2.443-15.244h-.554v17.47h.554z"/><path fill="#fff" stroke="#0055DC" stroke-miterlimit="10" stroke-width="1.5" d="M845.216 284h-8.803v24.527h8.803z"/><path fill="#003682" d="M842.364 305.153h-3.099v3.374h3.099z"/><path fill="#C5EBF5" d="M839.433 287.813h-2.14v3.245h2.14zm2.451 0h-2.14v3.245h2.14zm2.451 0h-2.14v3.245h2.14zm-4.902 4.335h-2.14v3.245h2.14zm2.451 0h-2.14v3.245h2.14zm2.451 0h-2.14v3.245h2.14zm-4.902 4.335h-2.14v3.246h2.14zm2.451 0h-2.14v3.246h2.14zm2.451 0h-2.14v3.246h2.14zm-4.902 4.335h-2.14v3.245h2.14zm2.451 0h-2.14v3.245h2.14zm2.451 0h-2.14v3.245h2.14z"/><path stroke="#0055DC" stroke-miterlimit="10" stroke-width="1.5" d="M830 308.527h21.567"/><path fill="#222" d="M859.017 302h-2.636l4.017-11.636h3.17L867.58 302h-2.637l-2.915-8.977h-.09zm-.165-4.574h6.228v1.921h-6.228zm9.952 4.574v-11.636h4.591q1.324 0 2.256.505a3.43 3.43 0 0 1 1.42 1.392q.495.887.494 2.046 0 1.159-.5 2.045a3.45 3.45 0 0 1-1.448 1.381q-.944.494-2.284.494h-2.927v-1.971h2.529q.71 0 1.17-.245.466-.249.693-.687.234-.444.233-1.017 0-.58-.233-1.012a1.55 1.55 0 0 0-.693-.676q-.465-.244-1.182-.244h-1.659V302zm10.845 0h-2.636l4.017-11.636h3.171L888.212 302h-2.636l-2.915-8.977h-.091zm-.164-4.574h6.227v1.921h-6.227zm19.672-2.988h-2.489a2.4 2.4 0 0 0-.278-.858 2.2 2.2 0 0 0-.54-.648 2.4 2.4 0 0 0-.762-.409 2.9 2.9 0 0 0-.926-.142q-.903 0-1.574.449-.67.443-1.039 1.295-.37.846-.37 2.057 0 1.244.37 2.091.375.846 1.045 1.278t1.551.432q.495 0 .915-.131a2.4 2.4 0 0 0 .756-.38q.329-.256.545-.62a2.4 2.4 0 0 0 .307-.829l2.489.011a4.5 4.5 0 0 1-.483 1.546 4.7 4.7 0 0 1-1.029 1.323 4.8 4.8 0 0 1-1.534.921q-.886.335-2.005.335-1.557 0-2.785-.704-1.221-.705-1.931-2.04-.705-1.335-.705-3.233 0-1.904.716-3.239t1.943-2.034q1.227-.704 2.762-.704 1.011 0 1.875.284a4.8 4.8 0 0 1 1.539.829q.67.54 1.091 1.324.426.784.546 1.796m9.24 7.562h-4.125v-11.636h4.159q1.756 0 3.023.698a4.7 4.7 0 0 1 1.949 1.995q.687 1.3.687 3.113 0 1.819-.687 3.125a4.7 4.7 0 0 1-1.961 2.006q-1.272.699-3.045.699m-1.665-2.108h1.563q1.09 0 1.835-.386a2.5 2.5 0 0 0 1.125-1.211q.381-.823.381-2.125 0-1.289-.381-2.108-.375-.817-1.119-1.204-.745-.387-1.836-.386h-1.568zm19.272-5.454h-2.489a2.4 2.4 0 0 0-.278-.858 2.2 2.2 0 0 0-.54-.648 2.4 2.4 0 0 0-.762-.409 2.9 2.9 0 0 0-.926-.142q-.903 0-1.574.449-.67.443-1.039 1.295-.37.846-.37 2.057 0 1.244.37 2.091.375.846 1.045 1.278t1.551.432q.495 0 .915-.131a2.4 2.4 0 0 0 .756-.38q.329-.256.545-.62a2.4 2.4 0 0 0 .307-.829l2.489.011a4.5 4.5 0 0 1-.483 1.546 4.7 4.7 0 0 1-1.029 1.323 4.8 4.8 0 0 1-1.534.921q-.886.335-2.005.335-1.557 0-2.785-.704-1.221-.705-1.931-2.04-.705-1.335-.705-3.233 0-1.904.716-3.239t1.943-2.034q1.227-.704 2.762-.704 1.011 0 1.875.284a4.8 4.8 0 0 1 1.539.829q.67.54 1.091 1.324.426.784.546 1.796"/><path fill="#0055DC" d="M862.507 330.198H859v18.05h3.507zm91.493 0h-3.507v18.05H954z"/><path fill="#fff" stroke="#0055DC" stroke-miterlimit="10" stroke-width="1.5" d="M867.31 351.464v3.426l78.377-.004v-3.426z"/><path fill="#C5EBF5" stroke="#0055DC" stroke-miterlimit="10" stroke-width="1.5" d="M950.492 327h-87.985v24.462h87.985z"/><path fill="#fff" d="M946.692 348.012v-17.564h-80.384v17.564z"/><path fill="#0055DC" d="M872.832 335.408h-1.947v1.902h1.947zm0 5.725h-1.947v1.903h1.947zm2.667-3.016h-1.948v1.902h1.948zm2.37-2.709h-1.947v1.902h1.947zm0 5.725h-1.947v1.903h1.947zm2.52-3.016h-1.948v1.902h1.948zm2.98-2.709h-1.947v1.902h1.947zm0 5.725h-1.947v1.903h1.947zm2.519-3.016h-1.947v1.902h1.947zm3.065-2.709h-1.948v1.902h1.948zm0 5.725h-1.948v1.903h1.948zm2.371-3.016h-1.948v1.902h1.948zm2.666-2.709h-1.948v1.902h1.948zm0 5.725h-1.948v1.903h1.948zm2.224-3.016h-1.948v1.902h1.948zm2.815-2.709h-1.948v1.902h1.948zm0 5.725h-1.948v1.903h1.948zm2.075-3.016h-1.947v1.902h1.947zm39.202 3.475c1.335 0 2.418-1.057 2.418-2.361s-1.083-2.362-2.418-2.362-2.418 1.058-2.418 2.362 1.083 2.361 2.418 2.361"/><path stroke="#0055DC" stroke-miterlimit="10" stroke-width="1.5" d="M933.354 339.231h-25.606"/><path fill="#0055DC" d="M862.507 366.198H859v18.05h3.507zm91.493 0h-3.507v18.05H954z"/><path fill="#fff" stroke="#0055DC" stroke-miterlimit="10" stroke-width="1.5" d="M867.31 387.464v3.426l78.377-.004v-3.426z"/><path fill="#C5EBF5" stroke="#0055DC" stroke-miterlimit="10" stroke-width="1.5" d="M950.492 363h-87.985v24.462h87.985z"/><path fill="#fff" d="M946.692 384.012v-17.564h-80.384v17.564z"/><path fill="#0055DC" d="M872.832 371.408h-1.947v1.902h1.947zm0 5.725h-1.947v1.903h1.947zm2.667-3.016h-1.948v1.902h1.948zm2.37-2.709h-1.947v1.902h1.947zm0 5.725h-1.947v1.903h1.947zm2.52-3.016h-1.948v1.902h1.948zm2.98-2.709h-1.947v1.902h1.947zm0 5.725h-1.947v1.903h1.947zm2.519-3.016h-1.947v1.902h1.947zm3.065-2.709h-1.948v1.902h1.948zm0 5.725h-1.948v1.903h1.948zm2.371-3.016h-1.948v1.902h1.948zm2.666-2.709h-1.948v1.902h1.948zm0 5.725h-1.948v1.903h1.948zm2.224-3.016h-1.948v1.902h1.948zm2.815-2.709h-1.948v1.902h1.948zm0 5.725h-1.948v1.903h1.948zm2.075-3.016h-1.947v1.902h1.947zm39.202 3.475c1.335 0 2.418-1.057 2.418-2.361s-1.083-2.362-2.418-2.362-2.418 1.058-2.418 2.362 1.083 2.361 2.418 2.361"/><path stroke="#0055DC" stroke-miterlimit="10" stroke-width="1.5" d="M933.354 375.231h-25.606"/><path fill="#0055DC" d="M862.507 402.198H859v18.05h3.507zm91.493 0h-3.507v18.05H954z"/><path fill="#fff" stroke="#0055DC" stroke-miterlimit="10" stroke-width="1.5" d="M867.31 423.464v3.426l78.377-.004v-3.426z"/><path fill="#C5EBF5" stroke="#0055DC" stroke-miterlimit="10" stroke-width="1.5" d="M950.492 399h-87.985v24.462h87.985z"/><path fill="#fff" d="M946.692 420.012v-17.564h-80.384v17.564z"/><path fill="#0055DC" d="M872.832 407.408h-1.947v1.902h1.947zm0 5.725h-1.947v1.903h1.947zm2.667-3.016h-1.948v1.902h1.948zm2.37-2.709h-1.947v1.902h1.947zm0 5.725h-1.947v1.903h1.947zm2.52-3.016h-1.948v1.902h1.948zm2.98-2.709h-1.947v1.902h1.947zm0 5.725h-1.947v1.903h1.947zm2.519-3.016h-1.947v1.902h1.947zm3.065-2.709h-1.948v1.902h1.948zm0 5.725h-1.948v1.903h1.948zm2.371-3.016h-1.948v1.902h1.948zm2.666-2.709h-1.948v1.902h1.948zm0 5.725h-1.948v1.903h1.948zm2.224-3.016h-1.948v1.902h1.948zm2.815-2.709h-1.948v1.902h1.948zm0 5.725h-1.948v1.903h1.948zm2.075-3.016h-1.947v1.902h1.947zm39.202 3.475c1.335 0 2.418-1.057 2.418-2.361s-1.083-2.362-2.418-2.362-2.418 1.058-2.418 2.362 1.083 2.361 2.418 2.361"/><path stroke="#0055DC" stroke-miterlimit="10" stroke-width="1.5" d="M933.354 411.231h-25.606"/><path fill="#0055DC" d="M862.507 438.198H859v18.05h3.507zm91.493 0h-3.507v18.05H954z"/><path fill="#fff" stroke="#0055DC" stroke-miterlimit="10" stroke-width="1.5" d="M867.31 459.464v3.426l78.377-.004v-3.426z"/><path fill="#C5EBF5" stroke="#0055DC" stroke-miterlimit="10" stroke-width="1.5" d="M950.492 435h-87.985v24.462h87.985z"/><path fill="#fff" d="M946.692 456.012v-17.564h-80.384v17.564z"/><path fill="#0055DC" d="M872.832 443.408h-1.947v1.902h1.947zm0 5.725h-1.947v1.903h1.947zm2.667-3.016h-1.948v1.902h1.948zm2.37-2.709h-1.947v1.902h1.947zm0 5.725h-1.947v1.903h1.947zm2.52-3.016h-1.948v1.902h1.948zm2.98-2.709h-1.947v1.902h1.947zm0 5.725h-1.947v1.903h1.947zm2.519-3.016h-1.947v1.902h1.947zm3.065-2.709h-1.948v1.902h1.948zm0 5.725h-1.948v1.903h1.948zm2.371-3.016h-1.948v1.902h1.948zm2.666-2.709h-1.948v1.902h1.948zm0 5.725h-1.948v1.903h1.948zm2.224-3.016h-1.948v1.902h1.948zm2.815-2.709h-1.948v1.902h1.948zm0 5.725h-1.948v1.903h1.948zm2.075-3.016h-1.947v1.902h1.947zm39.202 3.475c1.335 0 2.418-1.057 2.418-2.361s-1.083-2.362-2.418-2.362-2.418 1.058-2.418 2.362 1.083 2.361 2.418 2.361"/><path stroke="#0055DC" stroke-miterlimit="10" stroke-width="1.5" d="M933.354 447.231h-25.606"/><path fill="#fff" stroke="#0055DC" stroke-width="2" d="M831 89h151v154H831z"/><path fill="#C5EBF5" stroke="#0055DC" stroke-miterlimit="10" stroke-width="1.5" d="M848.378 79.528h-3.162V58.813h1.756v1.977h1.406z"/><path fill="#fff" d="M847.596 62.768h-2.312v16.669h2.312z"/><path fill="#0055DC" d="M847.086 63.528h.502v-.76h-.502zm-1.151 0h.501v-.76h-.501zm1.151 2.422h.502v-.76h-.502zm-1.151 0h.501v-.76h-.501zm1.151 2.423h.502v-.76h-.502zm-1.151 0h.501v-.76h-.501zm1.151 2.422h.502v-.76h-.502zm-1.151 0h.501v-.76h-.501zm1.151 2.423h.502v-.76h-.502zm-1.151 0h.501v-.76h-.501zm1.151 2.422h.502v-.76h-.502zm-1.151 0h.501v-.76h-.501zm1.151 2.423h.502v-.76h-.502zm-1.151 0h.501v-.76h-.501zm2.997-16.005h-.554v17.47h.554z"/><path fill="#C5EBF5" stroke="#0055DC" stroke-miterlimit="10" stroke-width="1.5" d="M833.25 79.528h3.163V58.813h-1.757v1.977h-1.406z"/><path fill="#fff" d="M836.353 62.768h-2.312v16.669h2.312z"/><path fill="#0055DC" d="M834.542 62.768h-.501v.76h.501zm1.151 0h-.501v.76h.501zm-1.151 2.422h-.501v.76h.501zm1.151 0h-.501v.76h.501zm-1.151 2.423h-.501v.76h.501zm1.151 0h-.501v.76h.501zm-1.151 2.422h-.501v.76h.501zm1.151 0h-.501v.76h.501zm-1.151 2.423h-.501v.76h.501zm1.151 0h-.501v.76h.501zm-1.151 2.422h-.501v.76h.501zm1.151 0h-.501v.76h.501zm-1.151 2.423h-.501v.76h.501zm1.151 0h-.501v.76h.501zm-2.443-15.245h-.554v17.47h.554z"/><path fill="#fff" stroke="#0055DC" stroke-miterlimit="10" stroke-width="1.5" d="M845.216 55h-8.803v24.528h8.803z"/><path fill="#003682" d="M842.364 76.153h-3.099v3.374h3.099z"/><path fill="#C5EBF5" d="M839.433 58.813h-2.14v3.245h2.14zm2.451 0h-2.14v3.245h2.14zm2.451 0h-2.14v3.245h2.14zm-4.902 4.335h-2.14v3.245h2.14zm2.451 0h-2.14v3.245h2.14zm2.451 0h-2.14v3.245h2.14zm-4.902 4.335h-2.14v3.245h2.14zm2.451 0h-2.14v3.245h2.14zm2.451 0h-2.14v3.245h2.14zm-4.902 4.335h-2.14v3.246h2.14zm2.451 0h-2.14v3.246h2.14zm2.451 0h-2.14v3.246h2.14z"/><path stroke="#0055DC" stroke-miterlimit="10" stroke-width="1.5" d="M830 79.527h21.567"/><path fill="#222" d="M859.017 73h-2.636l4.017-11.636h3.17L867.58 73h-2.637l-2.915-8.977h-.09zm-.165-4.574h6.228v1.92h-6.228zM868.759 73v-8.727h2.306v1.54h.103q.273-.768.909-1.21.636-.444 1.523-.444.897 0 1.528.449.63.443.841 1.204h.091q.267-.75.966-1.198.704-.455 1.664-.455 1.223 0 1.983.778.767.774.767 2.194V73h-2.414v-5.392q0-.728-.387-1.091-.385-.364-.966-.364-.659 0-1.028.42-.369.415-.369 1.098V73h-2.347v-5.443q0-.643-.369-1.023-.365-.38-.96-.38-.404 0-.728.204-.318.198-.505.563a1.8 1.8 0 0 0-.188.84V73zm18.395.17q-1.347 0-2.318-.545a3.73 3.73 0 0 1-1.489-1.557q-.523-1.01-.523-2.392 0-1.347.523-2.364a3.86 3.86 0 0 1 1.471-1.585q.955-.568 2.239-.568.864 0 1.608.278.75.273 1.307.824.563.552.875 1.387.312.829.312 1.943v.665h-7.369v-1.5h5.091a1.86 1.86 0 0 0-.227-.927 1.63 1.63 0 0 0-.631-.63 1.8 1.8 0 0 0-.926-.233 1.86 1.86 0 0 0-.977.256q-.421.25-.659.676-.24.42-.245.937v1.426q0 .648.239 1.12.245.47.687.727.444.255 1.051.256.404 0 .739-.114a1.5 1.5 0 0 0 .574-.34q.238-.228.364-.558l2.238.148a3.04 3.04 0 0 1-.699 1.41q-.522.595-1.352.93-.824.33-1.903.33m5.409-.17v-8.727h2.347v1.523h.09q.24-.813.802-1.228.562-.42 1.295-.42a3.7 3.7 0 0 1 .761.085v2.148a3 3 0 0 0-.471-.091 4 4 0 0 0-.551-.04q-.534 0-.955.233a1.7 1.7 0 0 0-.659.636 1.84 1.84 0 0 0-.239.944V73zm6.371 0v-8.727h2.42V73zm1.216-9.852q-.54 0-.926-.358a1.16 1.16 0 0 1-.381-.87q0-.5.381-.858.386-.363.926-.363t.92.364q.387.357.387.857 0 .506-.387.87-.38.358-.92.358m6.91 10.023q-1.341 0-2.306-.569a3.84 3.84 0 0 1-1.478-1.59q-.511-1.018-.511-2.341 0-1.342.517-2.353a3.84 3.84 0 0 1 1.483-1.585q.96-.574 2.284-.574 1.142 0 2 .415a3.34 3.34 0 0 1 1.358 1.165q.5.75.551 1.761h-2.284q-.096-.654-.511-1.051-.41-.404-1.074-.403-.563 0-.983.306-.416.302-.648.881-.233.58-.233 1.403 0 .835.227 1.42.233.586.654.893.42.306.983.307.414 0 .744-.17.336-.172.551-.495.222-.33.29-.79h2.284q-.057 1-.545 1.761a3.3 3.3 0 0 1-1.336 1.182q-.852.427-2.017.427m7.76-.006q-.835 0-1.488-.29a2.4 2.4 0 0 1-1.034-.87q-.375-.58-.375-1.442 0-.727.267-1.222t.727-.795q.46-.302 1.045-.455a8 8 0 0 1 1.239-.216q.762-.08 1.227-.148.466-.073.677-.216a.48.48 0 0 0 .21-.42v-.034q0-.54-.341-.835-.336-.296-.955-.296-.653 0-1.039.29a1.33 1.33 0 0 0-.512.716l-2.238-.182q.17-.796.67-1.375.5-.585 1.29-.898.795-.318 1.841-.318.727 0 1.392.17.67.17 1.187.529.523.358.824.92.301.558.301 1.336V73h-2.295v-1.21h-.068a2.5 2.5 0 0 1-.563.721 2.6 2.6 0 0 1-.847.483q-.494.17-1.142.17m.694-1.67q.534 0 .943-.21.41-.217.642-.58.233-.364.233-.824v-.927q-.114.075-.313.137a6 6 0 0 1-.437.108q-.244.045-.489.085l-.443.063a3 3 0 0 0-.744.199q-.318.135-.495.369a.9.9 0 0 0-.176.568q0 .494.358.756.364.255.921.255m13.184-4.734-2.216.137a1.14 1.14 0 0 0-.244-.512 1.3 1.3 0 0 0-.494-.369 1.7 1.7 0 0 0-.722-.142q-.562 0-.949.239-.386.232-.386.625 0 .312.25.528t.858.347l1.58.318q1.273.261 1.897.84.625.58.625 1.523 0 .858-.505 1.506-.5.649-1.375 1.011-.87.36-2.006.359-1.733 0-2.761-.722a2.8 2.8 0 0 1-1.199-1.977l2.38-.125q.108.528.523.806.415.273 1.063.273.636 0 1.022-.244.392-.25.398-.642a.67.67 0 0 0-.278-.54q-.273-.216-.841-.33l-1.512-.3q-1.278-.257-1.903-.887-.62-.63-.619-1.608 0-.84.454-1.449.46-.608 1.29-.937.835-.33 1.954-.33 1.654 0 2.603.699.954.699 1.113 1.903M937.943 73h-4.125V61.364h4.159q1.756 0 3.023.699a4.7 4.7 0 0 1 1.949 1.994q.687 1.3.687 3.114 0 1.818-.687 3.124a4.7 4.7 0 0 1-1.961 2.006q-1.272.699-3.045.699m-1.665-2.108h1.563q1.09 0 1.835-.386.75-.393 1.125-1.21.381-.825.381-2.126 0-1.29-.381-2.108-.375-.818-1.119-1.204-.745-.387-1.836-.386h-1.568zm19.272-5.454h-2.489a2.4 2.4 0 0 0-.278-.859 2.2 2.2 0 0 0-.54-.647 2.4 2.4 0 0 0-.762-.41 2.9 2.9 0 0 0-.926-.141q-.903 0-1.574.449-.67.443-1.039 1.295-.37.846-.37 2.057 0 1.244.37 2.09.375.847 1.045 1.28.67.43 1.551.431.495 0 .915-.13.426-.132.756-.381.329-.255.545-.62.222-.363.307-.83l2.489.012a4.64 4.64 0 0 1-1.512 2.87 4.8 4.8 0 0 1-1.534.92q-.886.335-2.005.335-1.557 0-2.785-.705-1.221-.705-1.931-2.04-.705-1.335-.705-3.232 0-1.904.716-3.239t1.943-2.034q1.227-.705 2.762-.704a6 6 0 0 1 1.875.284q.869.284 1.539.83.67.538 1.091 1.323.426.784.546 1.795"/><path fill="#0055DC" d="M862.507 101.198H859v18.05h3.507zm91.493 0h-3.507v18.05H954z"/><path fill="#fff" stroke="#0055DC" stroke-miterlimit="10" stroke-width="1.5" d="M867.31 122.464v3.426l78.377-.004v-3.426z"/><path fill="#C5EBF5" stroke="#0055DC" stroke-miterlimit="10" stroke-width="1.5" d="M950.492 98h-87.985v24.462h87.985z"/><path fill="#fff" d="M946.692 119.012v-17.564h-80.384v17.564z"/><path fill="#0055DC" d="M872.832 106.408h-1.947v1.902h1.947zm0 5.725h-1.947v1.903h1.947zm2.667-3.016h-1.948v1.902h1.948zm2.37-2.709h-1.947v1.902h1.947zm0 5.725h-1.947v1.903h1.947zm2.52-3.016h-1.948v1.902h1.948zm2.98-2.709h-1.947v1.902h1.947zm0 5.725h-1.947v1.903h1.947zm2.519-3.016h-1.947v1.902h1.947zm3.065-2.709h-1.948v1.902h1.948zm0 5.725h-1.948v1.903h1.948zm2.371-3.016h-1.948v1.902h1.948zm2.666-2.709h-1.948v1.902h1.948zm0 5.725h-1.948v1.903h1.948zm2.224-3.016h-1.948v1.902h1.948zm2.815-2.709h-1.948v1.902h1.948zm0 5.725h-1.948v1.903h1.948zm2.075-3.016h-1.947v1.902h1.947zm39.202 3.475c1.335 0 2.418-1.057 2.418-2.361s-1.083-2.362-2.418-2.362-2.418 1.058-2.418 2.362 1.083 2.361 2.418 2.361"/><path stroke="#0055DC" stroke-miterlimit="10" stroke-width="1.5" d="M933.354 110.231h-25.606"/><path fill="#0055DC" d="M862.507 137.198H859v18.05h3.507zm91.493 0h-3.507v18.05H954z"/><path fill="#fff" stroke="#0055DC" stroke-miterlimit="10" stroke-width="1.5" d="M867.31 158.464v3.426l78.377-.004v-3.426z"/><path fill="#C5EBF5" stroke="#0055DC" stroke-miterlimit="10" stroke-width="1.5" d="M950.492 134h-87.985v24.462h87.985z"/><path fill="#fff" d="M946.692 155.012v-17.564h-80.384v17.564z"/><path fill="#0055DC" d="M872.832 142.408h-1.947v1.902h1.947zm0 5.725h-1.947v1.903h1.947zm2.667-3.016h-1.948v1.902h1.948zm2.37-2.709h-1.947v1.902h1.947zm0 5.725h-1.947v1.903h1.947zm2.52-3.016h-1.948v1.902h1.948zm2.98-2.709h-1.947v1.902h1.947zm0 5.725h-1.947v1.903h1.947zm2.519-3.016h-1.947v1.902h1.947zm3.065-2.709h-1.948v1.902h1.948zm0 5.725h-1.948v1.903h1.948zm2.371-3.016h-1.948v1.902h1.948zm2.666-2.709h-1.948v1.902h1.948zm0 5.725h-1.948v1.903h1.948zm2.224-3.016h-1.948v1.902h1.948zm2.815-2.709h-1.948v1.902h1.948zm0 5.725h-1.948v1.903h1.948zm2.075-3.016h-1.947v1.902h1.947zm39.202 3.475c1.335 0 2.418-1.057 2.418-2.361s-1.083-2.362-2.418-2.362-2.418 1.058-2.418 2.362 1.083 2.361 2.418 2.361"/><path stroke="#0055DC" stroke-miterlimit="10" stroke-width="1.5" d="M933.354 146.231h-25.606"/><path fill="#0055DC" d="M862.507 173.198H859v18.05h3.507zm91.493 0h-3.507v18.05H954z"/><path fill="#fff" stroke="#0055DC" stroke-miterlimit="10" stroke-width="1.5" d="M867.31 194.464v3.426l78.377-.004v-3.426z"/><path fill="#C5EBF5" stroke="#0055DC" stroke-miterlimit="10" stroke-width="1.5" d="M950.492 170h-87.985v24.462h87.985z"/><path fill="#fff" d="M946.692 191.012v-17.564h-80.384v17.564z"/><path fill="#0055DC" d="M872.832 178.408h-1.947v1.902h1.947zm0 5.725h-1.947v1.903h1.947zm2.667-3.016h-1.948v1.902h1.948zm2.37-2.709h-1.947v1.902h1.947zm0 5.725h-1.947v1.903h1.947zm2.52-3.016h-1.948v1.902h1.948zm2.98-2.709h-1.947v1.902h1.947zm0 5.725h-1.947v1.903h1.947zm2.519-3.016h-1.947v1.902h1.947zm3.065-2.709h-1.948v1.902h1.948zm0 5.725h-1.948v1.903h1.948zm2.371-3.016h-1.948v1.902h1.948zm2.666-2.709h-1.948v1.902h1.948zm0 5.725h-1.948v1.903h1.948zm2.224-3.016h-1.948v1.902h1.948zm2.815-2.709h-1.948v1.902h1.948zm0 5.725h-1.948v1.903h1.948zm2.075-3.016h-1.947v1.902h1.947zm39.202 3.475c1.335 0 2.418-1.057 2.418-2.361s-1.083-2.362-2.418-2.362-2.418 1.058-2.418 2.362 1.083 2.361 2.418 2.361"/><path stroke="#0055DC" stroke-miterlimit="10" stroke-width="1.5" d="M933.354 182.231h-25.606"/><path fill="#0055DC" d="M862.507 209.198H859v18.05h3.507zm91.493 0h-3.507v18.05H954z"/><path fill="#fff" stroke="#0055DC" stroke-miterlimit="10" stroke-width="1.5" d="M867.31 230.464v3.426l78.377-.004v-3.426z"/><path fill="#C5EBF5" stroke="#0055DC" stroke-miterlimit="10" stroke-width="1.5" d="M950.492 206h-87.985v24.462h87.985z"/><path fill="#fff" d="M946.692 227.012v-17.564h-80.384v17.564z"/><path fill="#0055DC" d="M872.832 214.408h-1.947v1.902h1.947zm0 5.725h-1.947v1.903h1.947zm2.667-3.016h-1.948v1.902h1.948zm2.37-2.709h-1.947v1.902h1.947zm0 5.725h-1.947v1.903h1.947zm2.52-3.016h-1.948v1.902h1.948zm2.98-2.709h-1.947v1.902h1.947zm0 5.725h-1.947v1.903h1.947zm2.519-3.016h-1.947v1.902h1.947zm3.065-2.709h-1.948v1.902h1.948zm0 5.725h-1.948v1.903h1.948zm2.371-3.016h-1.948v1.902h1.948zm2.666-2.709h-1.948v1.902h1.948zm0 5.725h-1.948v1.903h1.948zm2.224-3.016h-1.948v1.902h1.948zm2.815-2.709h-1.948v1.902h1.948zm0 5.725h-1.948v1.903h1.948zm2.075-3.016h-1.947v1.902h1.947zm39.202 3.475c1.335 0 2.418-1.057 2.418-2.361s-1.083-2.362-2.418-2.362-2.418 1.058-2.418 2.362 1.083 2.361 2.418 2.361"/><path stroke="#0055DC" stroke-miterlimit="10" stroke-width="1.5" d="M933.354 218.231h-25.606"/><path fill="#fff" stroke="#0055DC" stroke-width="2" d="M1014 198h151v154h-151z"/><path fill="#C5EBF5" stroke="#0055DC" stroke-miterlimit="10" stroke-width="1.5" d="M1031.38 188.528h-3.16v-20.715h1.75v1.978h1.41z"/><path fill="#fff" d="M1030.6 171.768h-2.32v16.669h2.32z"/><path fill="#0055DC" d="M1030.09 172.528h.5v-.76h-.5zm-1.16 0h.51v-.76h-.51zm1.16 2.423h.5v-.76h-.5zm-1.16 0h.51v-.76h-.51zm1.16 2.422h.5v-.76h-.5zm-1.16 0h.51v-.76h-.51zm1.16 2.422h.5v-.76h-.5zm-1.16 0h.51v-.76h-.51zm1.16 2.423h.5v-.76h-.5zm-1.16 0h.51v-.76h-.51zm1.16 2.422h.5v-.76h-.5zm-1.16 0h.51v-.76h-.51zm1.16 2.422h.5v-.76h-.5zm-1.16 0h.51v-.76h-.51zm3-16.004h-.55v17.47h.55z"/><path fill="#C5EBF5" stroke="#0055DC" stroke-miterlimit="10" stroke-width="1.5" d="M1016.25 188.528h3.16v-20.715h-1.75v1.978h-1.41z"/><path fill="#fff" d="M1019.35 171.768h-2.31v16.669h2.31z"/><path fill="#0055DC" d="M1017.54 171.768h-.5v.76h.5zm1.15 0h-.5v.76h.5zm-1.15 2.422h-.5v.761h.5zm1.15 0h-.5v.761h.5zm-1.15 2.423h-.5v.76h.5zm1.15 0h-.5v.76h.5zm-1.15 2.422h-.5v.76h.5zm1.15 0h-.5v.76h.5zm-1.15 2.423h-.5v.76h.5zm1.15 0h-.5v.76h.5zm-1.15 2.422h-.5v.76h.5zm1.15 0h-.5v.76h.5zm-1.15 2.422h-.5v.761h.5zm1.15 0h-.5v.761h.5zm-2.44-15.244h-.55v17.47h.55z"/><path fill="#fff" stroke="#0055DC" stroke-miterlimit="10" stroke-width="1.5" d="M1028.22 164h-8.81v24.527h8.81z"/><path fill="#003682" d="M1025.36 185.153h-3.1v3.374h3.1z"/><path fill="#C5EBF5" d="M1022.43 167.813h-2.14v3.245h2.14zm2.45 0h-2.14v3.245h2.14zm2.46 0h-2.14v3.245h2.14zm-4.91 4.335h-2.14v3.245h2.14zm2.45 0h-2.14v3.245h2.14zm2.46 0h-2.14v3.245h2.14zm-4.91 4.335h-2.14v3.246h2.14zm2.45 0h-2.14v3.246h2.14zm2.46 0h-2.14v3.246h2.14zm-4.91 4.335h-2.14v3.245h2.14zm2.45 0h-2.14v3.245h2.14zm2.46 0h-2.14v3.245h2.14z"/><path stroke="#0055DC" stroke-miterlimit="10" stroke-width="1.5" d="M1013 188.527h21.57"/><path fill="#222" d="M1040.01 182v-11.636h7.84v2.028h-5.38v2.773h4.98v2.028h-4.98v2.779h5.41V182zm15.17-3.716v-5.011h2.42V182h-2.32v-1.585h-.09c-.2.511-.53.922-.98 1.233-.46.31-1.01.466-1.67.466-.58 0-1.1-.133-1.54-.398a2.75 2.75 0 0 1-1.04-1.131c-.24-.488-.37-1.074-.37-1.755v-5.557h2.42v5.125c0 .515.14.922.41 1.221s.64.449 1.1.449c.29 0 .56-.066.82-.199.25-.136.46-.337.61-.602.16-.265.24-.593.23-.983m4.18 3.716v-8.727h2.35v1.522h.09c.16-.541.43-.95.8-1.227.38-.28.81-.42 1.3-.42q.18 0 .39.022c.14.016.26.036.37.063v2.148a3 3 0 0 0-.47-.091 4 4 0 0 0-.55-.04q-.54 0-.96.233-.405.227-.66.636a1.83 1.83 0 0 0-.24.943V182zm9.91.17c-.88 0-1.64-.187-2.29-.562a3.85 3.85 0 0 1-1.48-1.58c-.35-.678-.52-1.464-.52-2.358 0-.901.17-1.689.52-2.363.35-.678.84-1.205 1.48-1.58.65-.379 1.41-.568 2.29-.568s1.65.189 2.29.568c.64.375 1.14.902 1.48 1.58.35.674.53 1.462.53 2.363 0 .894-.18 1.68-.53 2.358a3.8 3.8 0 0 1-1.48 1.58c-.64.375-1.41.562-2.29.562m.01-1.875c.4 0 .74-.113 1.01-.34.27-.232.47-.546.61-.944q.21-.596.21-1.358 0-.76-.21-1.358c-.14-.397-.34-.712-.61-.943s-.61-.346-1.01-.346q-.6 0-1.02.346c-.27.231-.48.546-.62.943-.14.398-.2.851-.2 1.358s.06.961.2 1.358.35.712.62.944q.42.34 1.02.34m5.69 4.978v-12h2.38v1.466h.11c.11-.235.26-.474.46-.716.2-.246.47-.451.8-.614.32-.167.73-.25 1.22-.25.64 0 1.23.167 1.76.5q.81.495 1.29 1.494c.33.663.49 1.495.49 2.495q0 1.46-.48 2.466c-.31.666-.73 1.172-1.27 1.517-.53.341-1.13.511-1.79.511q-.705 0-1.2-.233a2.3 2.3 0 0 1-.8-.585 3 3 0 0 1-.48-.722h-.07v4.671zm2.36-7.637c0 .519.08.972.22 1.358q.21.58.63.904.405.318.99.318c.39 0 .73-.108 1-.324.27-.22.48-.523.62-.909q.21-.585.21-1.347 0-.755-.21-1.329c-.14-.383-.34-.682-.61-.898-.28-.216-.61-.324-1.01-.324-.39 0-.73.104-1 .313-.27.208-.48.504-.62.886-.14.383-.22.833-.22 1.352m11.56 4.534c-.9 0-1.67-.181-2.32-.545a3.77 3.77 0 0 1-1.49-1.557c-.34-.674-.52-1.471-.52-2.392 0-.898.18-1.685.52-2.364.35-.678.84-1.206 1.48-1.585.63-.379 1.38-.568 2.23-.568.58 0 1.12.093 1.61.279.5.181.94.456 1.31.823.37.368.67.83.87 1.387.21.553.32 1.2.32 1.943v.665h-7.37v-1.5h5.09c0-.349-.08-.658-.23-.926q-.225-.404-.63-.631a1.8 1.8 0 0 0-.93-.233c-.36 0-.69.085-.97.256a1.8 1.8 0 0 0-.66.676c-.16.28-.24.593-.25.937v1.426q0 .648.24 1.12c.17.314.39.557.69.727q.45.255 1.05.256c.27 0 .52-.038.74-.114q.33-.113.57-.341c.16-.151.28-.337.37-.557l2.24.148a3.14 3.14 0 0 1-.7 1.409c-.35.398-.8.708-1.36.932-.54.22-1.18.329-1.9.329M1102 182h-4.13v-11.636h4.16c1.17 0 2.18.233 3.02.698q1.275.694 1.95 1.995.69 1.3.69 3.113 0 1.819-.69 3.125c-.45.872-1.1 1.54-1.96 2.006-.84.466-1.86.699-3.04.699m-1.67-2.108h1.57q1.08 0 1.83-.386c.5-.262.88-.665 1.13-1.211.25-.549.38-1.257.38-2.125 0-.859-.13-1.562-.38-2.108a2.5 2.5 0 0 0-1.12-1.204c-.5-.258-1.11-.386-1.84-.386h-1.57zm19.27-5.454h-2.48a2.5 2.5 0 0 0-.28-.858q-.21-.381-.54-.648a2.4 2.4 0 0 0-.76-.409 3 3 0 0 0-.93-.142c-.6 0-1.13.149-1.57.449-.45.295-.8.727-1.04 1.295-.25.564-.37 1.25-.37 2.057 0 .829.12 1.526.37 2.091.25.564.6.99 1.04 1.278.45.288.97.432 1.55.432.33 0 .64-.044.92-.131q.42-.13.75-.38c.22-.171.41-.377.55-.62.15-.242.25-.519.31-.829l2.48.011a4.4 4.4 0 0 1-.48 1.546c-.25.492-.59.933-1.03 1.323-.42.387-.94.694-1.53.921q-.885.335-2.01.335c-1.03 0-1.96-.235-2.78-.704-.81-.47-1.46-1.15-1.93-2.04s-.71-1.968-.71-3.233q0-1.904.72-3.239c.48-.89 1.12-1.568 1.94-2.034q1.23-.704 2.76-.704c.68 0 1.3.094 1.88.284s1.09.466 1.54.829c.45.36.81.801 1.09 1.324s.47 1.121.54 1.796"/><path fill="#0055DC" d="M1045.51 210.198H1042v18.05h3.51zm91.49 0h-3.51v18.05h3.51z"/><path fill="#fff" stroke="#0055DC" stroke-miterlimit="10" stroke-width="1.5" d="M1050.31 231.464v3.426l78.38-.004v-3.426z"/><path fill="#C5EBF5" stroke="#0055DC" stroke-miterlimit="10" stroke-width="1.5" d="M1133.49 207h-87.98v24.462h87.98z"/><path fill="#fff" d="M1129.69 228.012v-17.564h-80.38v17.564z"/><path fill="#0055DC" d="M1055.83 215.408h-1.95v1.902h1.95zm0 5.725h-1.95v1.903h1.95zm2.67-3.016h-1.95v1.902h1.95zm2.37-2.709h-1.95v1.902h1.95zm0 5.725h-1.95v1.903h1.95zm2.52-3.016h-1.95v1.902h1.95zm2.98-2.709h-1.95v1.902h1.95zm0 5.725h-1.95v1.903h1.95zm2.52-3.016h-1.95v1.902h1.95zm3.06-2.709h-1.94v1.902h1.94zm0 5.725h-1.94v1.903h1.94zm2.37-3.016h-1.94v1.902h1.94zm2.67-2.709h-1.95v1.902h1.95zm0 5.725h-1.95v1.903h1.95zm2.22-3.016h-1.94v1.902h1.94zm2.82-2.709h-1.95v1.902h1.95zm0 5.725h-1.95v1.903h1.95zm2.07-3.016h-1.94v1.902h1.94zm39.21 3.475c1.33 0 2.41-1.057 2.41-2.361s-1.08-2.362-2.41-2.362c-1.34 0-2.42 1.058-2.42 2.362s1.08 2.361 2.42 2.361"/><path stroke="#0055DC" stroke-miterlimit="10" stroke-width="1.5" d="M1116.35 219.231h-25.6"/><path fill="#0055DC" d="M1045.51 246.198H1042v18.05h3.51zm91.49 0h-3.51v18.05h3.51z"/><path fill="#fff" stroke="#0055DC" stroke-miterlimit="10" stroke-width="1.5" d="M1050.31 267.464v3.426l78.38-.004v-3.426z"/><path fill="#C5EBF5" stroke="#0055DC" stroke-miterlimit="10" stroke-width="1.5" d="M1133.49 243h-87.98v24.462h87.98z"/><path fill="#fff" d="M1129.69 264.012v-17.564h-80.38v17.564z"/><path fill="#0055DC" d="M1055.83 251.408h-1.95v1.902h1.95zm0 5.725h-1.95v1.903h1.95zm2.67-3.016h-1.95v1.902h1.95zm2.37-2.709h-1.95v1.902h1.95zm0 5.725h-1.95v1.903h1.95zm2.52-3.016h-1.95v1.902h1.95zm2.98-2.709h-1.95v1.902h1.95zm0 5.725h-1.95v1.903h1.95zm2.52-3.016h-1.95v1.902h1.95zm3.06-2.709h-1.94v1.902h1.94zm0 5.725h-1.94v1.903h1.94zm2.37-3.016h-1.94v1.902h1.94zm2.67-2.709h-1.95v1.902h1.95zm0 5.725h-1.95v1.903h1.95zm2.22-3.016h-1.94v1.902h1.94zm2.82-2.709h-1.95v1.902h1.95zm0 5.725h-1.95v1.903h1.95zm2.07-3.016h-1.94v1.902h1.94zm39.21 3.475c1.33 0 2.41-1.057 2.41-2.361s-1.08-2.362-2.41-2.362c-1.34 0-2.42 1.058-2.42 2.362s1.08 2.361 2.42 2.361"/><path stroke="#0055DC" stroke-miterlimit="10" stroke-width="1.5" d="M1116.35 255.231h-25.6"/><path fill="#0055DC" d="M1045.51 282.198H1042v18.05h3.51zm91.49 0h-3.51v18.05h3.51z"/><path fill="#fff" stroke="#0055DC" stroke-miterlimit="10" stroke-width="1.5" d="M1050.31 303.464v3.426l78.38-.004v-3.426z"/><path fill="#C5EBF5" stroke="#0055DC" stroke-miterlimit="10" stroke-width="1.5" d="M1133.49 279h-87.98v24.462h87.98z"/><path fill="#fff" d="M1129.69 300.012v-17.564h-80.38v17.564z"/><path fill="#0055DC" d="M1055.83 287.408h-1.95v1.902h1.95zm0 5.725h-1.95v1.903h1.95zm2.67-3.016h-1.95v1.902h1.95zm2.37-2.709h-1.95v1.902h1.95zm0 5.725h-1.95v1.903h1.95zm2.52-3.016h-1.95v1.902h1.95zm2.98-2.709h-1.95v1.902h1.95zm0 5.725h-1.95v1.903h1.95zm2.52-3.016h-1.95v1.902h1.95zm3.06-2.709h-1.94v1.902h1.94zm0 5.725h-1.94v1.903h1.94zm2.37-3.016h-1.94v1.902h1.94zm2.67-2.709h-1.95v1.902h1.95zm0 5.725h-1.95v1.903h1.95zm2.22-3.016h-1.94v1.902h1.94zm2.82-2.709h-1.95v1.902h1.95zm0 5.725h-1.95v1.903h1.95zm2.07-3.016h-1.94v1.902h1.94zm39.21 3.475c1.33 0 2.41-1.057 2.41-2.361s-1.08-2.362-2.41-2.362c-1.34 0-2.42 1.058-2.42 2.362s1.08 2.361 2.42 2.361"/><path stroke="#0055DC" stroke-miterlimit="10" stroke-width="1.5" d="M1116.35 291.231h-25.6"/><path fill="#0055DC" d="M1045.51 318.198H1042v18.05h3.51zm91.49 0h-3.51v18.05h3.51z"/><path fill="#fff" stroke="#0055DC" stroke-miterlimit="10" stroke-width="1.5" d="M1050.31 339.464v3.426l78.38-.004v-3.426z"/><path fill="#C5EBF5" stroke="#0055DC" stroke-miterlimit="10" stroke-width="1.5" d="M1133.49 315h-87.98v24.462h87.98z"/><path fill="#fff" d="M1129.69 336.012v-17.564h-80.38v17.564z"/><path fill="#0055DC" d="M1055.83 323.408h-1.95v1.902h1.95zm0 5.725h-1.95v1.903h1.95zm2.67-3.016h-1.95v1.902h1.95zm2.37-2.709h-1.95v1.902h1.95zm0 5.725h-1.95v1.903h1.95zm2.52-3.016h-1.95v1.902h1.95zm2.98-2.709h-1.95v1.902h1.95zm0 5.725h-1.95v1.903h1.95zm2.52-3.016h-1.95v1.902h1.95zm3.06-2.709h-1.94v1.902h1.94zm0 5.725h-1.94v1.903h1.94zm2.37-3.016h-1.94v1.902h1.94zm2.67-2.709h-1.95v1.902h1.95zm0 5.725h-1.95v1.903h1.95zm2.22-3.016h-1.94v1.902h1.94zm2.82-2.709h-1.95v1.902h1.95zm0 5.725h-1.95v1.903h1.95zm2.07-3.016h-1.94v1.902h1.94zm39.21 3.475c1.33 0 2.41-1.057 2.41-2.361s-1.08-2.362-2.41-2.362c-1.34 0-2.42 1.058-2.42 2.362s1.08 2.361 2.42 2.361"/><path stroke="#0055DC" stroke-miterlimit="10" stroke-width="1.5" d="M1116.35 327.231h-25.6"/><path fill="#fff" stroke="#F6821F" stroke-width="2" d="M577 259h138v34H577z"/><path fill="#222" d="M592.965 281v-11.636h2.46v9.608h4.989V281zm12.8.17q-1.324 0-2.29-.562a3.85 3.85 0 0 1-1.483-1.58q-.523-1.017-.523-2.358 0-1.352.523-2.363a3.8 3.8 0 0 1 1.483-1.58q.966-.568 2.29-.568t2.284.568q.966.563 1.489 1.58.522 1.011.522 2.363 0 1.341-.522 2.358a3.84 3.84 0 0 1-1.489 1.58q-.96.562-2.284.562m.011-1.875q.603 0 1.006-.34.404-.348.608-.944.21-.596.21-1.358 0-.76-.21-1.358-.204-.596-.608-.943-.403-.346-1.006-.346-.608 0-1.022.346-.41.347-.62.943a4.2 4.2 0 0 0-.204 1.358q0 .762.204 1.358.21.597.62.944.414.34 1.022.34m8.171 1.87q-.835 0-1.489-.29a2.4 2.4 0 0 1-1.034-.869q-.375-.58-.375-1.444 0-.727.267-1.221t.727-.796q.46-.3 1.046-.454a8 8 0 0 1 1.239-.216q.76-.08 1.227-.148.465-.073.676-.216a.47.47 0 0 0 .21-.42v-.034q0-.54-.341-.835-.334-.296-.954-.296-.654 0-1.04.29a1.33 1.33 0 0 0-.511.716l-2.239-.182q.17-.795.67-1.375.501-.585 1.29-.898.796-.318 1.841-.318.727 0 1.392.171.67.17 1.188.528.522.358.824.92.3.558.301 1.336V281h-2.296v-1.21h-.068q-.21.408-.562.721a2.6 2.6 0 0 1-.847.483 3.5 3.5 0 0 1-1.142.171m.693-1.671q.534 0 .943-.21a1.67 1.67 0 0 0 .642-.579q.233-.365.233-.824v-.926q-.113.073-.312.136a6 6 0 0 1-.438.108q-.244.046-.488.085l-.444.063a3 3 0 0 0-.744.198 1.2 1.2 0 0 0-.494.37.9.9 0 0 0-.176.568q0 .493.358.756.363.255.92.255m9.139 1.648q-.994 0-1.801-.511-.801-.518-1.272-1.517-.466-1.007-.466-2.466 0-1.5.483-2.495.483-.999 1.284-1.494a3.3 3.3 0 0 1 1.767-.5q.733 0 1.221.25.495.245.796.614.307.363.466.716h.074v-4.375h2.414V281h-2.386v-1.398h-.102a3.1 3.1 0 0 1-.483.722q-.308.353-.801.585-.489.233-1.194.233m.767-1.926q.586 0 .989-.318.41-.324.625-.904.222-.58.222-1.358t-.216-1.352-.625-.886-.995-.313q-.595 0-1.005.324t-.62.898-.21 1.329q0 .762.21 1.347.216.579.62.909.41.324 1.005.324m9.586 1.784v-11.636h4.659q1.284 0 2.142.38t1.29 1.057q.432.67.432 1.546 0 .682-.273 1.198a2.35 2.35 0 0 1-.75.841 3.1 3.1 0 0 1-1.08.461v.113a2.66 2.66 0 0 1 2.194 1.347q.363.62.363 1.477 0 .927-.46 1.654-.454.721-1.347 1.142-.891.42-2.198.42zm2.46-2.011h2.006q1.027 0 1.5-.392.471-.399.471-1.057 0-.483-.232-.852a1.6 1.6 0 0 0-.665-.58q-.426-.21-1.017-.21h-2.063zm0-4.756h1.824q.505 0 .898-.176.397-.182.625-.512.233-.33.233-.789 0-.631-.449-1.017-.444-.387-1.261-.387h-1.87zm10.385 6.932q-.836 0-1.488-.29a2.4 2.4 0 0 1-1.034-.869q-.375-.58-.375-1.444 0-.727.267-1.221t.727-.796a3.5 3.5 0 0 1 1.045-.454 8 8 0 0 1 1.239-.216q.762-.08 1.227-.148.466-.073.676-.216a.47.47 0 0 0 .211-.42v-.034q0-.54-.341-.835-.336-.296-.955-.296-.653 0-1.04.29a1.33 1.33 0 0 0-.511.716l-2.239-.182a3.04 3.04 0 0 1 .671-1.375q.5-.585 1.29-.898.795-.318 1.841-.318.726 0 1.392.171a3.6 3.6 0 0 1 1.187.528q.523.358.824.92.301.558.301 1.336V281h-2.295v-1.21h-.069q-.21.408-.562.721a2.6 2.6 0 0 1-.847.483q-.494.171-1.142.171m.693-1.671q.535 0 .944-.21.408-.216.642-.579a1.5 1.5 0 0 0 .233-.824v-.926q-.114.073-.313.136a6 6 0 0 1-.437.108q-.245.046-.489.085l-.443.063a3 3 0 0 0-.744.198 1.2 1.2 0 0 0-.495.37.9.9 0 0 0-.176.568q0 .493.358.756.363.255.92.255m8.344-10.13V281h-2.42v-11.636zm4.252 11.801q-.835 0-1.489-.29a2.4 2.4 0 0 1-1.034-.869q-.375-.58-.375-1.444 0-.727.267-1.221t.727-.796q.46-.3 1.046-.454a8 8 0 0 1 1.239-.216q.76-.08 1.227-.148.465-.073.676-.216a.47.47 0 0 0 .21-.42v-.034q0-.54-.341-.835-.334-.296-.954-.296-.654 0-1.04.29a1.33 1.33 0 0 0-.511.716l-2.239-.182q.17-.795.67-1.375.501-.585 1.29-.898.796-.318 1.841-.318.727 0 1.392.171.67.17 1.188.528.522.358.824.92.3.558.301 1.336V281h-2.296v-1.21h-.068q-.21.408-.562.721a2.6 2.6 0 0 1-.847.483 3.5 3.5 0 0 1-1.142.171m.693-1.671q.534 0 .943-.21a1.67 1.67 0 0 0 .642-.579q.233-.365.233-.824v-.926q-.113.073-.312.136a6 6 0 0 1-.438.108q-.244.046-.488.085l-.444.063a3 3 0 0 0-.744.198 1.2 1.2 0 0 0-.494.37.9.9 0 0 0-.176.568q0 .493.358.756.363.255.92.255m8.344-3.539V281h-2.42v-8.727h2.306v1.539h.103q.29-.761.971-1.204.682-.449 1.654-.449.909 0 1.585.398t1.051 1.136q.375.733.375 1.75V281h-2.42v-5.125q.005-.801-.41-1.25-.414-.455-1.142-.455-.488 0-.863.211-.37.21-.58.613-.204.398-.21.961m11.3 5.215q-1.341 0-2.307-.568a3.83 3.83 0 0 1-1.477-1.591q-.512-1.017-.512-2.341 0-1.34.517-2.352a3.85 3.85 0 0 1 1.483-1.585q.961-.574 2.284-.574 1.142 0 2 .415a3.34 3.34 0 0 1 1.358 1.165q.5.75.552 1.761h-2.285q-.096-.654-.511-1.051-.41-.404-1.074-.404-.562 0-.983.307-.414.302-.647.881-.233.58-.233 1.403 0 .836.227 1.421.233.585.653.892.421.306.983.307.415 0 .745-.171.335-.17.551-.494.221-.33.289-.79h2.285q-.057 1-.546 1.761a3.3 3.3 0 0 1-1.335 1.182q-.852.426-2.017.426m9.249 0q-1.347 0-2.319-.545a3.73 3.73 0 0 1-1.488-1.557q-.523-1.01-.523-2.392 0-1.346.523-2.364a3.86 3.86 0 0 1 1.471-1.585q.955-.568 2.239-.568.864 0 1.608.279.75.272 1.307.823.562.552.875 1.387.312.829.312 1.943v.665h-7.369v-1.5h5.091q0-.524-.227-.926a1.63 1.63 0 0 0-.631-.631 1.8 1.8 0 0 0-.926-.233 1.86 1.86 0 0 0-.978.256q-.42.25-.659.676-.238.42-.244.937v1.426q0 .648.239 1.12.245.472.687.727.444.255 1.051.256.403 0 .739-.114t.574-.341.363-.557l2.239.148a3.06 3.06 0 0 1-.699 1.409q-.522.597-1.352.932-.824.33-1.903.329m5.409-.17v-8.727h2.346v1.522h.091q.239-.811.801-1.227.563-.42 1.296-.42.182 0 .392.022.21.023.369.063v2.148a3 3 0 0 0-.471-.091 4 4 0 0 0-.552-.04q-.534 0-.954.233a1.7 1.7 0 0 0-.659.636 1.84 1.84 0 0 0-.239.943V281z"/><path fill="#C5EBF5" fill-rule="evenodd" stroke="#0055DC" stroke-miterlimit="10" stroke-width="1.5" d="M126.241 438H38.397c-2.328 0-4.41 1.96-4.41 4.411v57.705h96.665v-57.705c0-2.451-2.083-4.411-4.411-4.411Z" clip-rule="evenodd"/><path fill="#0055DC" d="M82.258 442.288a.735.735 0 1 0 0-1.47.735.735 0 0 0 0 1.47"/><path fill="#fff" d="M134.45 504.526H30.066c-5.39 0-9.066-.857-9.066-1.592v-2.451c0-.245.245-.49.49-.49h121.414c.245 0 .49.245.49.49v2.451c.122.735-2.696 1.592-8.944 1.592"/><path stroke="#0055DC" stroke-miterlimit="10" stroke-width="1.5" d="M134.45 504.526H30.066c-5.39 0-9.066-.857-9.066-1.592v-2.451c0-.245.245-.49.49-.49h121.414c.245 0 .49.245.49.49v2.451c.122.735-2.696 1.592-8.944 1.592Z" clip-rule="evenodd"/><path fill="#C5EBF5" d="M143.516 500.483c0-.245-.245-.49-.49-.49H21.612c-.245 0-.49.245-.49.49v2.328h122.516v-2.328z"/><path stroke="#0055DC" stroke-miterlimit="10" stroke-width="1.5" d="M134.45 504.526H30.066c-5.39 0-9.066-.857-9.066-1.592v-2.451c0-.245.245-.49.49-.49h121.414c.245 0 .49.245.49.49v2.451c.122.735-2.696 1.592-8.944 1.592Z"/><path fill="#fff" d="M126.609 444.861H37.907v51.702h88.702z"/><path fill="#0055DC" fill-rule="evenodd" d="M95.612 500.238v.49c0 .368-.735.49-1.347.49H70.374c-.612 0-1.348-.122-1.348-.49v-.49" clip-rule="evenodd"/><path fill="#fff" stroke="#0055DC" stroke-miterlimit="10" stroke-width="1.5" d="M82.302 491.906c12.388 0 22.431-10.043 22.431-22.431s-10.043-22.43-22.43-22.43c-12.389 0-22.431 10.042-22.431 22.43s10.042 22.431 22.43 22.431Z"/><path fill="#003682" d="M81.385 461.061a1 1 0 0 1 1.673 0l.318.485a1 1 0 0 0 1.42.266l.469-.337a1 1 0 0 1 1.56.604l.123.575a1 1 0 0 0 1.227.759l.561-.144a1 1 0 0 1 1.237 1.125l-.094.588a1 1 0 0 0 .869 1.149l.582.071a1 1 0 0 1 .746 1.494l-.3.519a1 1 0 0 0 .393 1.383l.525.281a1 1 0 0 1 .154 1.662l-.466.374a1 1 0 0 0-.133 1.432l.39.454a1 1 0 0 1-.457 1.606l-.564.178a1 1 0 0 0-.642 1.288l.2.564a1 1 0 0 1-1.007 1.333l-.582-.039a1 1 0 0 0-1.066.971l-.015.592a1 1 0 0 1-1.423.879l-.524-.244a1 1 0 0 0-1.346.521l-.224.539a1 1 0 0 1-1.645.307l-.4-.418a1 1 0 0 0-1.445 0l-.4.418a1 1 0 0 1-1.645-.307l-.224-.539a1 1 0 0 0-1.346-.521l-.524.244a1 1 0 0 1-1.422-.879l-.016-.592a1 1 0 0 0-1.066-.971l-.582.039a1 1 0 0 1-1.008-1.333l.2-.564a1 1 0 0 0-.641-1.288l-.564-.178a1 1 0 0 1-.457-1.606l.39-.454a1 1 0 0 0-.133-1.432l-.466-.374a1 1 0 0 1 .154-1.662l.525-.281a1 1 0 0 0 .394-1.383l-.3-.519a1 1 0 0 1 .745-1.494l.582-.071a1 1 0 0 0 .869-1.149l-.094-.588a1 1 0 0 1 1.237-1.125l.561.144a1 1 0 0 0 1.227-.759l.123-.575a1 1 0 0 1 1.56-.604l.47.337a1 1 0 0 0 1.419-.266z"/><path fill="#C5EBF5" stroke="#003682" stroke-miterlimit="10" stroke-width="1.5" d="M75.224 481.16a15.8 15.8 0 0 0 3.22-2.343v-5.92l7.799.092v5.568c.356.692 1.7 1.542 3.494 2.549 0 0-3.337 4.977-7.529 4.977-4.191 0-6.984-4.923-6.984-4.923Z"/><path fill="#0055DC" stroke="#003682" stroke-miterlimit="10" stroke-width="1.5" d="M82.303 491.906a22.35 22.35 0 0 0 15.06-5.808 35 35 0 0 0-7.583-4.953s-3.38 4.938-7.57 4.938c-4.192 0-7.007-4.875-7.007-4.875-2.573 1.451-5.729 2.816-8.094 4.763a22.35 22.35 0 0 0 15.194 5.935Z"/><path fill="#C5EBF5" stroke="#003682" stroke-miterlimit="10" stroke-width="1.5" d="M89.74 465.414a1.23 1.23 0 0 1 .615-.787 1.24 1.24 0 0 1 .996-.076c.975.294.426 3.834-2.298 3.708q.423-1.402.686-2.845Zm-14.877 0a1.27 1.27 0 0 0-1.148-.936 1.3 1.3 0 0 0-.518.073c-.85.345-.426 3.835 2.3 3.709a23 23 0 0 1-.634-2.846Z"/><path fill="#C5EBF5" stroke="#003682" stroke-miterlimit="10" stroke-width="1.5" d="M90.092 462.164c0 2.022-.74 6.14-2.04 8.626-.965 1.846-3.452 3.901-5.712 3.901s-4.491-2.055-5.712-3.9c-1.548-2.34-2.04-6.605-2.04-8.627a7.753 7.753 0 0 1 15.504 0Z"/><path fill="#003682" stroke="#003682" stroke-linejoin="round" stroke-width="1.5" d="M89.692 464.709c-.362-3.08-3.35-7.181-6.688-7.181l-.55-2.554 1.033 2.582c0 5.584-8.28 4.092-8.625 7.782l-.132-.132a22.4 22.4 0 0 1-.275-3.25c0-4.282 3.604-7.62 7.885-7.62a7.87 7.87 0 0 1 7.885 7.753 16 16 0 0 1-.436 3.157z"/><path stroke="#0055DC" stroke-miterlimit="10" stroke-width="1.5" d="M82.302 491.906c12.388 0 22.431-10.043 22.431-22.431s-10.043-22.43-22.43-22.43c-12.389 0-22.431 10.042-22.431 22.43s10.042 22.431 22.43 22.431Z"/><path fill="#C5EBF5" fill-rule="evenodd" stroke="#0055DC" stroke-miterlimit="10" stroke-width="1.5" d="M128.487 58H36.264c-2.443 0-4.63 2.058-4.63 4.63v60.582h101.484V62.63c0-2.572-2.187-4.63-4.631-4.63Z" clip-rule="evenodd"/><path fill="#0055DC" d="M82.312 62.502a.772.772 0 1 0 0-1.544.772.772 0 0 0 0 1.544"/><path fill="#fff" d="M137.105 127.843H27.518c-5.66 0-9.518-.901-9.518-1.673v-2.572c0-.257.257-.515.514-.515H145.98c.257 0 .515.258.515.515v2.572c.128.772-2.83 1.673-9.39 1.673"/><path stroke="#0055DC" stroke-miterlimit="10" stroke-width="1.5" d="M137.105 127.843H27.518c-5.66 0-9.518-.901-9.518-1.673v-2.572c0-.257.257-.515.514-.515H145.98c.257 0 .515.258.515.515v2.572c.128.772-2.83 1.673-9.39 1.673Z" clip-rule="evenodd"/><path fill="#C5EBF5" d="M146.623 123.598c0-.257-.257-.515-.514-.515H18.643c-.257 0-.515.258-.515.515v2.444h128.624v-2.444z"/><path stroke="#0055DC" stroke-miterlimit="10" stroke-width="1.5" d="M137.105 127.843H27.518c-5.66 0-9.518-.901-9.518-1.673v-2.572c0-.257.257-.515.514-.515H145.98c.257 0 .515.258.515.515v2.572c.128.772-2.83 1.673-9.39 1.673Z"/><path fill="#fff" d="M128.873 65.203H35.75v54.279h93.123z"/><path fill="#0055DC" fill-rule="evenodd" d="M96.331 123.341v.514c0 .386-.771.515-1.414.515H69.835c-.643 0-1.415-.129-1.415-.515v-.514" clip-rule="evenodd"/><path fill="#CBE9F3" d="M95.014 107.783c-3.767-2-7.94-2.538-8.717-4.363-.589-1.383 0-6.012 0-6.012l-9.103-.095s.575 4.694 0 6.107c-.698 1.714-4.49 2.267-7.97 4.215"/><path stroke="#193979" stroke-miterlimit="10" stroke-width="1.5" d="M95.014 107.783c-3.767-2-7.94-2.538-8.717-4.363-.589-1.383 0-6.012 0-6.012l-9.103-.095s.575 4.694 0 6.107c-.698 1.714-4.49 2.267-7.97 4.215"/><path fill="#1B59D3" stroke="#0F387D" stroke-linecap="round" stroke-miterlimit="10" stroke-width="1.5" d="M82.204 112.545a19.55 19.55 0 0 0 12.81-4.761c-3.767-2-7.94-2.539-8.718-4.364a4 4 0 0 1-.229-1.193 23.6 23.6 0 0 1-4.328.464 23.5 23.5 0 0 1-4.325-.464c-.016.406-.09.808-.222 1.193-.697 1.715-4.489 2.268-7.97 4.216a19.55 19.55 0 0 0 12.982 4.909Z"/><path fill="#CBE9F3" d="M74.877 89.288c-.072-.588-.943-1.643-1.971-.966-1.006.66-.04 5.606 2.765 5.422"/><path stroke="#193979" stroke-miterlimit="10" stroke-width="1.5" d="M74.877 89.288c-.072-.588-.943-1.643-1.971-.966-1.006.66-.04 5.606 2.765 5.422"/><path fill="#CBE9F3" d="M88.647 89.288c.072-.588.943-1.643 1.97-.966 1.007.66.04 5.606-2.765 5.422"/><path stroke="#193979" stroke-miterlimit="10" stroke-width="1.5" d="M88.647 89.288c.072-.588.943-1.643 1.97-.966 1.007.66.04 5.606-2.765 5.422"/><path fill="#CBE9F3" stroke="#193979" stroke-miterlimit="10" stroke-width="1.5" d="M88.824 85.847a20.4 20.4 0 0 1-.656 5.747c-.268.948-.584 3.856-.948 4.61-.915 1.898-3.273 4.011-5.417 4.011s-4.258-2.112-5.417-4.011c-.443-.726-.795-3.639-1.07-4.608-.638-2.243-.534-4.297-.534-5.749 0-4.404 2.957-7.337 7.017-7.337s7.025 2.932 7.025 7.337Z"/><path fill="#0F387D" stroke="#0F387D" stroke-linejoin="round" stroke-width="1.5" d="M87.587 84.916s-7.255.683-10.566-1.703c0 0-.966 4.066-2.143 6.075 0 0-1.451-6.17.662-6.986 0 0-.175-3.423 3.599-4.3 0 0-.195.853.438.829s5.66-2.923 9.247-.658c3.587 2.264.834 5.575.834 5.575s.097 3.499-.767 4.975l-.314 1.003s-.908-3.167-.99-4.81Z"/><path stroke="#1B59D3" stroke-miterlimit="10" stroke-width="1.5" d="M82.204 112.545c10.842 0 19.631-8.789 19.631-19.632 0-10.841-8.789-19.63-19.63-19.63-10.843 0-19.632 8.789-19.632 19.63 0 10.843 8.79 19.632 19.631 19.632Z"/><path stroke="#1B59D3" stroke-miterlimit="10" stroke-width="1.5" d="M82.204 112.545c10.842 0 19.631-8.789 19.631-19.632 0-10.841-8.789-19.63-19.63-19.63-10.843 0-19.632 8.789-19.632 19.63 0 10.843 8.79 19.632 19.631 19.632Z"/><path fill="#C5EBF5" fill-rule="evenodd" stroke="#0055DC" stroke-miterlimit="10" stroke-width="1.5" d="M128.487 310H36.264c-2.443 0-4.63 2.058-4.63 4.63v60.582h101.484V314.63c0-2.572-2.187-4.63-4.631-4.63Z" clip-rule="evenodd"/><path fill="#0055DC" d="M82.312 314.502a.772.772 0 1 0-.001-1.544.772.772 0 0 0 0 1.544"/><path fill="#fff" d="M137.105 379.843H27.518c-5.66 0-9.518-.901-9.518-1.673v-2.572c0-.257.257-.515.514-.515H145.98c.257 0 .515.258.515.515v2.572c.128.772-2.83 1.673-9.39 1.673"/><path stroke="#0055DC" stroke-miterlimit="10" stroke-width="1.5" d="M137.105 379.843H27.518c-5.66 0-9.518-.901-9.518-1.673v-2.572c0-.257.257-.515.514-.515H145.98c.257 0 .515.258.515.515v2.572c.128.772-2.83 1.673-9.39 1.673Z" clip-rule="evenodd"/><path fill="#C5EBF5" d="M146.623 375.598c0-.257-.257-.515-.514-.515H18.643c-.257 0-.515.258-.515.515v2.444h128.624v-2.444z"/><path stroke="#0055DC" stroke-miterlimit="10" stroke-width="1.5" d="M137.105 379.843H27.518c-5.66 0-9.518-.901-9.518-1.673v-2.572c0-.257.257-.515.514-.515H145.98c.257 0 .515.258.515.515v2.572c.128.772-2.83 1.673-9.39 1.673Z"/><path fill="#fff" d="M128.873 317.203H35.75v54.279h93.123z"/><path fill="#0055DC" fill-rule="evenodd" d="M96.331 375.341v.514c0 .386-.771.515-1.414.515H69.835c-.643 0-1.415-.129-1.415-.515v-.514" clip-rule="evenodd"/><path fill="#CBE9F3" d="M95.014 359.783c-3.767-2-7.94-2.538-8.717-4.363-.589-1.383 0-6.012 0-6.012l-9.103-.095s.575 4.694 0 6.107c-.698 1.714-4.49 2.267-7.97 4.215"/><path stroke="#193979" stroke-miterlimit="10" stroke-width="1.5" d="M95.014 359.783c-3.767-2-7.94-2.538-8.717-4.363-.589-1.383 0-6.012 0-6.012l-9.103-.095s.575 4.694 0 6.107c-.698 1.714-4.49 2.267-7.97 4.215"/><path fill="#1B59D3" stroke="#0F387D" stroke-linecap="round" stroke-miterlimit="10" stroke-width="1.5" d="M82.204 364.545a19.55 19.55 0 0 0 12.81-4.761c-3.767-2-7.94-2.539-8.718-4.364a4 4 0 0 1-.229-1.193 23.6 23.6 0 0 1-4.328.464 23.5 23.5 0 0 1-4.325-.464c-.016.406-.09.808-.222 1.193-.697 1.715-4.489 2.268-7.97 4.216a19.55 19.55 0 0 0 12.982 4.909Z"/><path fill="#CBE9F3" d="M74.877 341.288c-.072-.588-.943-1.643-1.971-.966-1.006.661-.04 5.606 2.765 5.422"/><path stroke="#193979" stroke-miterlimit="10" stroke-width="1.5" d="M74.877 341.288c-.072-.588-.943-1.643-1.971-.966-1.006.661-.04 5.606 2.765 5.422"/><path fill="#CBE9F3" d="M88.647 341.288c.072-.588.943-1.643 1.97-.966 1.007.661.04 5.606-2.765 5.422"/><path stroke="#193979" stroke-miterlimit="10" stroke-width="1.5" d="M88.647 341.288c.072-.588.943-1.643 1.97-.966 1.007.661.04 5.606-2.765 5.422"/><path fill="#CBE9F3" stroke="#193979" stroke-miterlimit="10" stroke-width="1.5" d="M88.824 337.847a20.4 20.4 0 0 1-.656 5.747c-.268.948-.584 3.856-.948 4.609-.915 1.899-3.273 4.012-5.417 4.012s-4.258-2.112-5.417-4.011c-.443-.726-.795-3.639-1.07-4.608-.638-2.243-.534-4.297-.534-5.749 0-4.405 2.957-7.337 7.017-7.337s7.025 2.932 7.025 7.337Z"/><path fill="#0F387D" stroke="#0F387D" stroke-linejoin="round" stroke-width="1.5" d="M87.587 336.916s-7.255.683-10.566-1.703c0 0-.966 4.066-2.143 6.075 0 0-1.451-6.169.662-6.986 0 0-.175-3.423 3.599-4.3 0 0-.195.853.438.829s5.66-2.923 9.247-.658c3.587 2.264.834 5.575.834 5.575s.097 3.499-.767 4.975l-.314 1.003s-.908-3.167-.99-4.81Z"/><path stroke="#1B59D3" stroke-miterlimit="10" stroke-width="1.5" d="M82.204 364.545c10.842 0 19.631-8.789 19.631-19.631s-8.789-19.632-19.63-19.632c-10.843 0-19.632 8.789-19.632 19.632 0 10.842 8.79 19.631 19.631 19.631Z"/><path stroke="#1B59D3" stroke-miterlimit="10" stroke-width="1.5" d="M82.204 364.545c10.842 0 19.631-8.789 19.631-19.631s-8.789-19.632-19.63-19.632c-10.843 0-19.632 8.789-19.632 19.632 0 10.842 8.79 19.631 19.631 19.631Z"/><path fill="#C5EBF5" fill-rule="evenodd" stroke="#0055DC" stroke-miterlimit="10" stroke-width="1.5" d="M126.241 186H38.397c-2.328 0-4.41 1.96-4.41 4.411v57.705h96.665v-57.705c0-2.451-2.083-4.411-4.411-4.411Z" clip-rule="evenodd"/><path fill="#0055DC" d="M82.258 190.288a.735.735 0 1 0 0-1.47.735.735 0 0 0 0 1.47"/><path fill="#fff" d="M134.45 252.526H30.066c-5.39 0-9.066-.857-9.066-1.592v-2.451c0-.245.245-.49.49-.49h121.414c.245 0 .49.245.49.49v2.451c.122.735-2.696 1.592-8.944 1.592"/><path stroke="#0055DC" stroke-miterlimit="10" stroke-width="1.5" d="M134.45 252.526H30.066c-5.39 0-9.066-.857-9.066-1.592v-2.451c0-.245.245-.49.49-.49h121.414c.245 0 .49.245.49.49v2.451c.122.735-2.696 1.592-8.944 1.592Z" clip-rule="evenodd"/><path fill="#C5EBF5" d="M143.516 248.483c0-.245-.245-.49-.49-.49H21.612c-.245 0-.49.245-.49.49v2.328h122.516v-2.328z"/><path stroke="#0055DC" stroke-miterlimit="10" stroke-width="1.5" d="M134.45 252.526H30.066c-5.39 0-9.066-.857-9.066-1.592v-2.451c0-.245.245-.49.49-.49h121.414c.245 0 .49.245.49.49v2.451c.122.735-2.696 1.592-8.944 1.592Z"/><path fill="#fff" d="M126.609 192.861H37.907v51.702h88.702z"/><path fill="#0055DC" fill-rule="evenodd" d="M95.612 248.238v.49c0 .368-.735.49-1.347.49H70.374c-.612 0-1.348-.122-1.348-.49v-.49" clip-rule="evenodd"/><path fill="#fff" stroke="#0055DC" stroke-miterlimit="10" stroke-width="1.5" d="M82.302 239.906c12.388 0 22.431-10.043 22.431-22.431s-10.043-22.43-22.43-22.43c-12.389 0-22.431 10.042-22.431 22.43s10.042 22.431 22.43 22.431Z"/><path fill="#003682" d="M81.385 209.061a1 1 0 0 1 1.673 0l.318.485a1 1 0 0 0 1.42.266l.469-.337a1 1 0 0 1 1.56.604l.123.575a1 1 0 0 0 1.227.759l.561-.144a1 1 0 0 1 1.237 1.125l-.094.588a1 1 0 0 0 .869 1.149l.582.071a1 1 0 0 1 .746 1.494l-.3.519a1 1 0 0 0 .393 1.383l.525.281a1 1 0 0 1 .154 1.662l-.466.374a1 1 0 0 0-.133 1.432l.39.454a1 1 0 0 1-.457 1.606l-.564.178a1 1 0 0 0-.642 1.288l.2.564a1 1 0 0 1-1.007 1.333l-.582-.039a1 1 0 0 0-1.066.971l-.015.592a1 1 0 0 1-1.423.879l-.524-.244a1 1 0 0 0-1.346.521l-.224.539a1 1 0 0 1-1.645.307l-.4-.418a1 1 0 0 0-1.445 0l-.4.418a1 1 0 0 1-1.645-.307l-.224-.539a1 1 0 0 0-1.346-.521l-.524.244a1 1 0 0 1-1.422-.879l-.016-.592a1 1 0 0 0-1.066-.971l-.582.039a1 1 0 0 1-1.008-1.333l.2-.564a1 1 0 0 0-.641-1.288l-.564-.178a1 1 0 0 1-.457-1.606l.39-.454a1 1 0 0 0-.133-1.432l-.466-.374a1 1 0 0 1 .154-1.662l.525-.281a1 1 0 0 0 .394-1.383l-.3-.519a1 1 0 0 1 .745-1.494l.582-.071a1 1 0 0 0 .869-1.149l-.094-.588a1 1 0 0 1 1.237-1.125l.561.144a1 1 0 0 0 1.227-.759l.123-.575a1 1 0 0 1 1.56-.604l.47.337a1 1 0 0 0 1.419-.266z"/><path fill="#C5EBF5" stroke="#003682" stroke-miterlimit="10" stroke-width="1.5" d="M75.224 229.16a15.8 15.8 0 0 0 3.22-2.343v-5.92l7.799.092v5.568c.356.692 1.7 1.542 3.494 2.549 0 0-3.337 4.977-7.529 4.977-4.191 0-6.984-4.923-6.984-4.923Z"/><path fill="#0055DC" stroke="#003682" stroke-miterlimit="10" stroke-width="1.5" d="M82.303 239.906a22.35 22.35 0 0 0 15.06-5.808 35 35 0 0 0-7.583-4.953s-3.38 4.938-7.57 4.938c-4.192 0-7.007-4.875-7.007-4.875-2.573 1.451-5.729 2.816-8.094 4.763a22.35 22.35 0 0 0 15.194 5.935Z"/><path fill="#C5EBF5" stroke="#003682" stroke-miterlimit="10" stroke-width="1.5" d="M89.74 213.414a1.23 1.23 0 0 1 .615-.787 1.24 1.24 0 0 1 .996-.076c.975.294.426 3.834-2.298 3.708q.423-1.402.686-2.845Zm-14.877 0a1.27 1.27 0 0 0-1.148-.936 1.3 1.3 0 0 0-.518.073c-.85.345-.426 3.835 2.3 3.709a23 23 0 0 1-.634-2.846Z"/><path fill="#C5EBF5" stroke="#003682" stroke-miterlimit="10" stroke-width="1.5" d="M90.092 210.164c0 2.022-.74 6.14-2.04 8.626-.965 1.846-3.452 3.901-5.712 3.901s-4.491-2.055-5.712-3.9c-1.548-2.34-2.04-6.605-2.04-8.627a7.753 7.753 0 0 1 15.504 0Z"/><path fill="#003682" stroke="#003682" stroke-linejoin="round" stroke-width="1.5" d="M89.692 212.709c-.362-3.08-3.35-7.181-6.688-7.181l-.55-2.554 1.033 2.582c0 5.584-8.28 4.092-8.625 7.782l-.132-.132a22.4 22.4 0 0 1-.275-3.25c0-4.282 3.604-7.62 7.885-7.62a7.87 7.87 0 0 1 7.885 7.753 16 16 0 0 1-.436 3.157z"/><path stroke="#0055DC" stroke-miterlimit="10" stroke-width="1.5" d="M82.302 239.906c12.388 0 22.431-10.043 22.431-22.431s-10.043-22.43-22.43-22.43c-12.389 0-22.431 10.042-22.431 22.43s10.042 22.431 22.43 22.431Z"/><path fill="#F6821F" d="M827.061 167.061a1.5 1.5 0 0 0 0-2.122l-9.546-9.546a1.5 1.5 0 0 0-2.122 0 1.5 1.5 0 0 0 0 2.122l8.486 8.485-8.486 8.485a1.5 1.5 0 0 0 0 2.122 1.5 1.5 0 0 0 2.122 0zM756 256.646v1.5zm70-92.146h-22v3h22zM778.5 190v42.646h3V190zM756 255.146h-35.206v3H756zm22.5-22.5c0 12.426-10.074 22.5-22.5 22.5v3c14.083 0 25.5-11.417 25.5-25.5zM804 164.5c-14.083 0-25.5 11.417-25.5 25.5h3c0-12.426 10.074-22.5 22.5-22.5z"/><path fill="#950C3E" d="M1010.06 276.561c.59-.586.59-1.536 0-2.122l-9.55-9.546a1.496 1.496 0 0 0-2.117 0 1.5 1.5 0 0 0 0 2.122l8.487 8.485-8.487 8.485a1.5 1.5 0 0 0 0 2.122 1.496 1.496 0 0 0 2.117 0zM1009 274H720v3h289z"/><path fill="#269B7F" d="M825.381 360.403a1.5 1.5 0 0 0 0-2.121l-9.546-9.546a1.5 1.5 0 1 0-2.121 2.121l8.485 8.486-8.485 8.485a1.5 1.5 0 1 0 2.121 2.121zm-29.065-1.06v1.5zm28.004-1.5h-28.004v3h28.004zm-50.504-22.5v-17.714h-3v17.714zm-25.5-43.214h-28.005v3h28.005zm25.5 25.5c0-14.083-11.417-25.5-25.5-25.5v3c12.426 0 22.5 10.074 22.5 22.5zm22.5 40.214c-12.427 0-22.5-10.074-22.5-22.5h-3c0 14.083 11.416 25.5 25.5 25.5z"/><path fill="#3E74FF" d="M827.061 396.061a1.5 1.5 0 0 0 0-2.122l-9.546-9.546a1.5 1.5 0 0 0-2.122 0 1.5 1.5 0 0 0 0 2.122l8.486 8.485-8.486 8.485a1.5 1.5 0 0 0 0 2.122 1.5 1.5 0 0 0 2.122 0zM826 393.5H670v3h156zM647.5 371v-73h-3v73zm22.5 22.5c-12.426 0-22.5-10.074-22.5-22.5h-3c0 14.083 11.417 25.5 25.5 25.5z"/><path fill="#fff" stroke="#F6821F" stroke-width="2" d="M223 211h261v129H223z"/><path fill="#222" d="M322.114 224.438h-2.488a2.5 2.5 0 0 0-.279-.858q-.21-.381-.539-.648a2.4 2.4 0 0 0-.762-.409 2.9 2.9 0 0 0-.926-.142q-.903 0-1.574.449-.67.443-1.04 1.295-.369.846-.369 2.057 0 1.244.369 2.091.375.846 1.046 1.278.67.432 1.551.432.494 0 .915-.131.426-.13.755-.38.33-.256.546-.62a2.4 2.4 0 0 0 .307-.829l2.488.011a4.63 4.63 0 0 1-1.511 2.869 4.8 4.8 0 0 1-1.534.921q-.887.335-2.006.335-1.557 0-2.784-.704-1.221-.705-1.932-2.04-.704-1.335-.704-3.233 0-1.904.716-3.239t1.943-2.034q1.227-.704 2.761-.704 1.011 0 1.875.284.87.284 1.54.829.67.54 1.091 1.324.426.784.545 1.796m4.14-4.074V232h-2.421v-11.636zm5.882 11.806q-1.324 0-2.29-.562a3.85 3.85 0 0 1-1.483-1.58q-.523-1.017-.523-2.358 0-1.352.523-2.363a3.8 3.8 0 0 1 1.483-1.58q.966-.568 2.29-.568t2.284.568a3.8 3.8 0 0 1 1.488 1.58q.523 1.011.523 2.363 0 1.341-.523 2.358a3.83 3.83 0 0 1-1.488 1.58q-.96.562-2.284.562m.011-1.875q.603 0 1.006-.34.403-.347.608-.944.21-.596.21-1.358 0-.76-.21-1.358-.205-.596-.608-.943-.403-.346-1.006-.346-.607 0-1.023.346-.409.347-.619.943a4.2 4.2 0 0 0-.205 1.358q0 .762.205 1.358.21.597.619.944.415.34 1.023.34m13.119-4.534-2.216.137a1.14 1.14 0 0 0-.244-.512 1.3 1.3 0 0 0-.494-.369 1.7 1.7 0 0 0-.722-.142q-.562 0-.949.239-.386.232-.386.625 0 .312.25.528t.858.347l1.579.318q1.274.26 1.898.841.625.58.625 1.522 0 .858-.505 1.506-.5.648-1.375 1.011-.87.358-2.006.358-1.733 0-2.762-.721a2.8 2.8 0 0 1-1.198-1.977l2.38-.125q.108.528.523.806.415.273 1.063.273.636 0 1.022-.244.392-.25.398-.642a.67.67 0 0 0-.278-.54q-.274-.216-.841-.33l-1.512-.301q-1.278-.256-1.903-.886-.62-.63-.619-1.608 0-.841.454-1.449.46-.608 1.29-.937.835-.33 1.954-.33 1.654 0 2.603.699.954.699 1.113 1.903m5.701 6.409q-1.347 0-2.319-.545a3.73 3.73 0 0 1-1.488-1.557q-.523-1.01-.523-2.392 0-1.346.523-2.364a3.86 3.86 0 0 1 1.471-1.585q.955-.568 2.239-.568.864 0 1.608.279.75.272 1.307.823.562.552.875 1.387.312.829.312 1.943v.665h-7.369v-1.5h5.091q0-.524-.227-.926a1.63 1.63 0 0 0-.631-.631 1.8 1.8 0 0 0-.926-.233q-.551 0-.977.256-.42.25-.66.676-.238.42-.244.937v1.426q0 .648.239 1.12.245.472.687.727.444.255 1.051.256.404 0 .739-.114.336-.113.574-.341.238-.227.364-.557l2.238.148a3.04 3.04 0 0 1-.699 1.409q-.522.596-1.352.932-.824.33-1.903.329m12.846-6.409-2.216.137a1.15 1.15 0 0 0-.244-.512 1.3 1.3 0 0 0-.494-.369 1.7 1.7 0 0 0-.722-.142q-.562 0-.949.239-.386.232-.386.625 0 .312.25.528t.858.347l1.579.318q1.273.26 1.898.841.625.58.625 1.522 0 .858-.506 1.506-.5.648-1.375 1.011-.869.358-2.005.358-1.734 0-2.762-.721a2.82 2.82 0 0 1-1.199-1.977l2.381-.125q.108.528.523.806.415.273 1.062.273.638 0 1.023-.244.392-.25.398-.642a.67.67 0 0 0-.279-.54q-.272-.216-.84-.33l-1.512-.301q-1.279-.256-1.903-.886-.62-.63-.62-1.608 0-.841.455-1.449.46-.608 1.29-.937.835-.33 1.954-.33 1.654 0 2.603.699.954.699 1.113 1.903m6.365-2.488v1.818h-5.255v-1.818zm-4.062-2.091h2.42v8.136q0 .336.102.523a.57.57 0 0 0 .285.256q.188.073.431.073.171 0 .341-.028l.262-.051.38 1.801a7 7 0 0 1-.511.131q-.33.08-.801.096-.875.034-1.534-.233a2.14 2.14 0 0 1-1.017-.829q-.364-.563-.358-1.421zM379.629 232h-4.125v-11.636h4.159q1.756 0 3.022.698a4.7 4.7 0 0 1 1.949 1.995q.688 1.3.688 3.113 0 1.819-.688 3.125a4.7 4.7 0 0 1-1.96 2.006q-1.273.699-3.045.699m-1.665-2.108h1.562q1.091 0 1.836-.386a2.5 2.5 0 0 0 1.125-1.211q.38-.823.38-2.125 0-1.289-.38-2.108-.376-.817-1.12-1.204t-1.835-.386h-1.568zm19.447-5.454h-2.488a2.5 2.5 0 0 0-.279-.858q-.21-.381-.54-.648a2.4 2.4 0 0 0-.761-.409 2.9 2.9 0 0 0-.926-.142q-.903 0-1.574.449-.67.443-1.04 1.295-.369.846-.369 2.057 0 1.244.369 2.091.375.846 1.046 1.278.67.432 1.551.432.493 0 .915-.131.426-.13.755-.38.33-.256.546-.62a2.4 2.4 0 0 0 .307-.829l2.488.011a4.64 4.64 0 0 1-1.511 2.869q-.643.58-1.534.921-.887.335-2.006.335-1.557 0-2.784-.704-1.221-.705-1.932-2.04-.705-1.335-.704-3.233 0-1.904.716-3.239t1.943-2.034q1.227-.704 2.761-.704 1.011 0 1.875.284.87.284 1.54.829.67.54 1.091 1.324.426.784.545 1.796"/><path fill="#fff" stroke="#F6821F" stroke-width="2" d="M231 306h117.875v24.927H231z"/><path fill="#222" d="m279.358 321.876-2.497-8.727h2.015l1.445 6.064h.072l1.594-6.064h1.726l1.59 6.076h.076l1.445-6.076h2.015l-2.497 8.727h-1.798l-1.662-5.706h-.068l-1.658 5.706zm10.962 0h-1.977l3.013-8.727h2.378l3.008 8.727h-1.977l-2.186-6.733h-.068zm-.123-3.43h4.67v1.44h-4.67zm7.464 3.43v-8.727h5.778v1.521h-3.933v2.08h3.55v1.521h-3.55v3.605z"/><path fill="#fff" stroke="#F6821F" stroke-width="2" d="M358 306h117.875v24.927H358z"/><path fill="#222" d="M377.204 321.876v-8.727h1.845v7.206h3.741v1.521zm9.6.128q-.993 0-1.718-.422a2.9 2.9 0 0 1-1.112-1.185q-.392-.762-.392-1.768 0-1.014.392-1.773a2.87 2.87 0 0 1 1.112-1.185q.725-.426 1.718-.426t1.713.426a2.85 2.85 0 0 1 1.116 1.185q.392.759.392 1.773 0 1.005-.392 1.768a2.87 2.87 0 0 1-1.116 1.185q-.72.422-1.713.422m.008-1.406q.452 0 .754-.256.303-.26.456-.708.159-.447.158-1.018 0-.571-.158-1.018a1.6 1.6 0 0 0-.456-.708 1.12 1.12 0 0 0-.754-.26q-.456 0-.767.26a1.6 1.6 0 0 0-.464.708 3.1 3.1 0 0 0-.154 1.018q0 .571.154 1.018.158.448.464.708.311.255.767.256M392.94 322q-.626 0-1.116-.218a1.8 1.8 0 0 1-.776-.652q-.28-.434-.281-1.082 0-.546.2-.916.2-.371.546-.597.345-.226.784-.341.443-.115.929-.162.57-.06.92-.111.35-.055.507-.162a.36.36 0 0 0 .158-.315v-.025q0-.405-.256-.627-.25-.221-.716-.221-.489 0-.78.217a1 1 0 0 0-.383.537l-1.679-.137q.128-.596.503-1.031.375-.438.967-.673.597-.239 1.381-.239.545 0 1.044.128.503.127.89.396.393.269.618.691.226.417.226 1.001v4.415h-1.721v-.908h-.051a1.9 1.9 0 0 1-.422.541 1.9 1.9 0 0 1-.635.363 2.6 2.6 0 0 1-.857.128m.52-1.253q.4 0 .707-.158.307-.162.482-.435.174-.272.175-.618v-.694a1 1 0 0 1-.235.102 4 4 0 0 1-.328.081q-.183.034-.366.064l-.333.047a2.2 2.2 0 0 0-.558.149.9.9 0 0 0-.371.277.68.68 0 0 0-.132.426q0 .37.269.567.273.192.69.192m6.855 1.236q-.747 0-1.351-.384-.601-.388-.955-1.138-.35-.754-.349-1.849 0-1.125.362-1.871.362-.75.963-1.121.605-.375 1.325-.375.55 0 .916.188.372.183.597.46.23.273.35.537h.055v-3.281h1.811v8.727h-1.79v-1.048h-.076a2.4 2.4 0 0 1-.363.541 1.8 1.8 0 0 1-.601.439q-.366.175-.894.175m.575-1.445q.439 0 .741-.239.307-.243.469-.677.166-.435.166-1.019t-.162-1.014a1.46 1.46 0 0 0-.468-.665 1.2 1.2 0 0 0-.746-.234q-.447 0-.754.243-.308.243-.465.673a2.9 2.9 0 0 0-.158.997q0 .572.158 1.01.162.435.465.682.306.243.754.243m7.189 1.338v-8.727h3.494q.963 0 1.607.285.643.286.967.793.324.502.324 1.159 0 .512-.205.899a1.76 1.76 0 0 1-.562.631 2.3 2.3 0 0 1-.81.345v.085q.5.021.934.281.438.261.711.729.273.465.273 1.108 0 .694-.345 1.24-.342.541-1.01.857-.67.315-1.649.315zm1.845-1.509h1.504q.772 0 1.125-.294a.98.98 0 0 0 .354-.792q0-.363-.175-.639a1.2 1.2 0 0 0-.498-.435 1.7 1.7 0 0 0-.763-.158h-1.547zm0-3.566h1.368q.38 0 .673-.132.298-.137.469-.384a1 1 0 0 0 .175-.592.96.96 0 0 0-.337-.763q-.332-.29-.946-.29h-1.402zm7.789 5.199q-.627 0-1.117-.218a1.8 1.8 0 0 1-.775-.652q-.281-.434-.281-1.082 0-.546.2-.916.2-.371.545-.597t.784-.341q.444-.115.929-.162.571-.06.921-.111.35-.055.507-.162a.36.36 0 0 0 .158-.315v-.025q0-.405-.256-.627-.251-.221-.716-.221-.49 0-.78.217a1 1 0 0 0-.383.537l-1.679-.137q.128-.596.503-1.031.375-.438.967-.673.597-.239 1.381-.239.545 0 1.044.128.503.127.89.396.393.269.618.691.226.417.226 1.001v4.415h-1.722v-.908h-.051a1.82 1.82 0 0 1-1.057.904 2.6 2.6 0 0 1-.856.128m.52-1.253q.4 0 .707-.158.307-.162.482-.435a1.1 1.1 0 0 0 .174-.618v-.694a1 1 0 0 1-.234.102 4 4 0 0 1-.328.081q-.183.034-.367.064l-.332.047a2.2 2.2 0 0 0-.558.149.9.9 0 0 0-.371.277.68.68 0 0 0-.132.426q0 .37.268.567.273.192.691.192m6.258-7.598v8.727h-1.816v-8.727zm3.188 8.851q-.625 0-1.116-.218a1.8 1.8 0 0 1-.776-.652q-.28-.434-.281-1.082 0-.546.2-.916.201-.371.546-.597t.784-.341q.443-.115.929-.162.571-.06.92-.111.35-.055.507-.162a.35.35 0 0 0 .158-.315v-.025q0-.405-.256-.627-.251-.221-.715-.221-.49 0-.78.217a1 1 0 0 0-.384.537l-1.679-.137q.128-.596.503-1.031.375-.438.967-.673.597-.239 1.381-.239.546 0 1.044.128.503.127.891.396.392.269.618.691.225.417.225 1.001v4.415h-1.721v-.908h-.051a1.8 1.8 0 0 1-.422.541 1.9 1.9 0 0 1-.635.363 2.6 2.6 0 0 1-.857.128m.52-1.253q.4 0 .708-.158.307-.162.481-.435.175-.272.175-.618v-.694a1 1 0 0 1-.234.102 4 4 0 0 1-.329.081q-.183.034-.366.064l-.332.047q-.32.047-.559.149a.9.9 0 0 0-.37.277.68.68 0 0 0-.133.426q0 .37.269.567.273.192.69.192m6.258-2.655v3.784h-1.815v-6.545h1.73v1.154h.077q.217-.57.728-.903.512-.337 1.24-.337.682 0 1.189.299.507.298.789.852.28.55.281 1.312v4.168h-1.815v-3.844q.003-.6-.307-.937-.312-.341-.857-.341a1.3 1.3 0 0 0-.647.157q-.277.158-.435.461a1.6 1.6 0 0 0-.158.72m8.475 3.912q-1.005 0-1.73-.426a2.9 2.9 0 0 1-1.108-1.194q-.383-.762-.383-1.755 0-1.007.387-1.764a2.9 2.9 0 0 1 1.113-1.189q.72-.43 1.713-.431.857 0 1.5.311.643.312 1.018.874t.413 1.321h-1.713q-.072-.49-.383-.788-.307-.303-.806-.303a1.22 1.22 0 0 0-.737.23q-.31.226-.486.661-.174.434-.174 1.052 0 .627.17 1.066.175.438.49.669.315.23.737.23.312 0 .559-.128a1.1 1.1 0 0 0 .413-.371q.166-.247.217-.592h1.713q-.042.75-.409 1.321a2.47 2.47 0 0 1-1.001.886q-.64.32-1.513.32m6.937 0q-1.01 0-1.739-.409a2.8 2.8 0 0 1-1.116-1.168q-.393-.759-.393-1.794 0-1.01.393-1.773a2.9 2.9 0 0 1 1.103-1.189q.716-.426 1.679-.426.648 0 1.206.209.563.204.98.618.422.413.657 1.04.234.622.234 1.457v.499h-5.527v-1.125h3.818q0-.393-.17-.695a1.23 1.23 0 0 0-.473-.473 1.36 1.36 0 0 0-.695-.175q-.414 0-.733.192-.315.188-.494.507-.18.315-.183.703v1.07q0 .486.178.839.184.354.516.546t.788.192q.303 0 .554-.086t.431-.255q.179-.17.273-.418l1.679.111q-.128.605-.525 1.057a2.6 2.6 0 0 1-1.014.699q-.618.246-1.427.247m4.057-.128v-6.545h1.76v1.142h.068q.178-.61.601-.921a1.58 1.58 0 0 1 .971-.315 2.6 2.6 0 0 1 .571.064v1.61a2.5 2.5 0 0 0-.354-.068q-.225-.03-.413-.03-.4 0-.716.175a1.3 1.3 0 0 0-.494.477 1.4 1.4 0 0 0-.179.708v3.703z"/><path fill="#fff" stroke="#F6821F" stroke-width="2" d="M358 244h117.875v24.927H358z"/><path fill="#222" d="M368.838 260.624v-8.727h3.494q.964 0 1.607.285.643.286.967.793.324.502.324 1.159 0 .511-.204.899a1.8 1.8 0 0 1-.563.631 2.3 2.3 0 0 1-.809.345v.085q.498.021.933.281.439.26.711.729.273.465.273 1.108 0 .694-.345 1.24-.34.541-1.01.856-.67.316-1.649.316zm1.845-1.509h1.505q.771 0 1.125-.294a.99.99 0 0 0 .353-.792q0-.363-.174-.64a1.2 1.2 0 0 0-.499-.434 1.7 1.7 0 0 0-.763-.158h-1.547zm0-3.567h1.368q.38 0 .674-.132.298-.136.468-.383a1 1 0 0 0 .175-.592.96.96 0 0 0-.337-.763q-.332-.29-.946-.29h-1.402zm8.88 5.204q-.993 0-1.717-.422a2.9 2.9 0 0 1-1.112-1.185q-.393-.762-.393-1.768 0-1.015.393-1.773a2.85 2.85 0 0 1 1.112-1.185q.724-.426 1.717-.426t1.713.426q.724.421 1.117 1.185.392.758.392 1.773 0 1.006-.392 1.768a2.9 2.9 0 0 1-1.117 1.185q-.72.422-1.713.422m.009-1.407q.451 0 .754-.255.303-.26.456-.708.157-.447.157-1.018t-.157-1.019a1.6 1.6 0 0 0-.456-.707 1.12 1.12 0 0 0-.754-.26q-.456 0-.767.26-.307.26-.465.707a3.2 3.2 0 0 0-.153 1.019q0 .571.153 1.018.158.448.465.708.31.255.767.255m7.743-5.267v1.364h-3.942v-1.364zm-3.047-1.568h1.815v6.102q0 .252.077.392a.42.42 0 0 0 .213.192.9.9 0 0 0 .324.056q.128 0 .255-.022l.196-.038.286 1.351a5 5 0 0 1-.384.098q-.247.06-.6.072-.657.026-1.151-.174a1.6 1.6 0 0 1-.763-.623q-.273-.421-.268-1.065zm6.777-.613h2.275l2.404 5.863h.102l2.403-5.863h2.276v8.727h-1.79v-5.681h-.072l-2.259 5.638h-1.219l-2.258-5.659h-.073v5.702h-1.789zm12.68 8.85q-.625 0-1.116-.217a1.8 1.8 0 0 1-.776-.652q-.28-.435-.281-1.082 0-.546.2-.917.201-.37.546-.596t.784-.341q.443-.115.929-.162.571-.06.92-.111.35-.056.507-.162a.35.35 0 0 0 .158-.315v-.026q0-.404-.256-.626-.251-.222-.715-.222-.49 0-.78.218a1 1 0 0 0-.384.537l-1.679-.137q.128-.596.503-1.031.375-.44.967-.673.597-.239 1.381-.239.546 0 1.044.128.503.128.891.396.392.268.618.691.225.417.225 1.001v4.415h-1.721v-.908h-.051a1.8 1.8 0 0 1-.422.541 2 2 0 0 1-.635.363 2.6 2.6 0 0 1-.857.127m.52-1.252q.4 0 .708-.158.307-.162.481-.435.175-.273.175-.618v-.694a1 1 0 0 1-.234.102 5 5 0 0 1-.329.081q-.183.034-.366.064l-.332.047q-.32.047-.559.149a.9.9 0 0 0-.37.277.68.68 0 0 0-.133.426q0 .37.269.567.273.192.69.192m6.258-2.655v3.784h-1.815v-6.546h1.73v1.155h.077a1.82 1.82 0 0 1 .728-.903q.512-.337 1.24-.337.682 0 1.189.298t.789.853q.28.55.281 1.312v4.168h-1.815v-3.844q.003-.601-.307-.937-.312-.341-.857-.341a1.3 1.3 0 0 0-.647.157q-.278.158-.435.461a1.6 1.6 0 0 0-.158.72m7.384 3.907q-.626 0-1.116-.217a1.8 1.8 0 0 1-.776-.652q-.28-.435-.281-1.082 0-.546.2-.917.201-.37.546-.596t.784-.341q.443-.115.929-.162.57-.06.92-.111.35-.056.507-.162a.36.36 0 0 0 .158-.315v-.026q0-.404-.256-.626-.25-.222-.716-.222-.489 0-.78.218a1 1 0 0 0-.383.537l-1.679-.137q.128-.596.503-1.031.375-.44.967-.673.597-.239 1.381-.239.545 0 1.044.128.502.128.891.396.392.268.617.691.226.417.226 1.001v4.415h-1.721v-.908h-.051a1.9 1.9 0 0 1-.422.541 2 2 0 0 1-.635.363 2.6 2.6 0 0 1-.857.127m.52-1.252q.4 0 .707-.158.308-.162.482-.435.175-.273.175-.618v-.694a1 1 0 0 1-.235.102 5 5 0 0 1-.328.081q-.183.034-.366.064l-.333.047a2.2 2.2 0 0 0-.558.149.9.9 0 0 0-.371.277.67.67 0 0 0-.132.426q0 .37.269.567.273.192.69.192m7.392 3.72q-.883 0-1.513-.243-.627-.239-.997-.652a2 2 0 0 1-.482-.929l1.679-.226q.077.196.243.366.166.171.439.273.276.107.673.107.592 0 .976-.29.387-.285.388-.959v-1.197h-.077a1.7 1.7 0 0 1-.358.515 1.8 1.8 0 0 1-.614.397q-.375.153-.894.153-.738 0-1.343-.341-.6-.345-.959-1.052-.353-.712-.353-1.799 0-1.112.362-1.858.361-.746.963-1.116a2.5 2.5 0 0 1 1.325-.371q.55 0 .921.188.37.183.596.46.231.273.354.537h.068v-1.1h1.803v6.61q0 .835-.409 1.397-.41.563-1.134.844-.72.286-1.657.286m.038-4.049q.439 0 .741-.217.307-.222.469-.631.166-.413.166-.988 0-.576-.162-.997a1.46 1.46 0 0 0-.468-.661 1.2 1.2 0 0 0-.746-.234q-.447 0-.754.243-.308.238-.465.664a2.8 2.8 0 0 0-.158.985q0 .566.158.98.162.409.465.635.307.222.754.221m7.457 1.586q-1.01 0-1.738-.409a2.8 2.8 0 0 1-1.117-1.168q-.392-.759-.392-1.794 0-1.01.392-1.773a2.9 2.9 0 0 1 1.104-1.189q.716-.426 1.679-.426.648 0 1.206.209.563.204.98.618.422.413.656 1.04.235.621.235 1.457v.499h-5.527v-1.125h3.818q0-.392-.171-.695a1.2 1.2 0 0 0-.473-.473 1.34 1.34 0 0 0-.694-.175q-.414 0-.733.192-.315.188-.495.507-.179.315-.183.703v1.07q0 .486.179.839.183.354.516.546.332.192.788.192.303 0 .554-.086t.431-.255a1.1 1.1 0 0 0 .272-.418l1.679.111q-.128.604-.524 1.057a2.6 2.6 0 0 1-1.014.698q-.618.248-1.428.248m4.057-.128v-6.546h1.73v1.155h.077a1.82 1.82 0 0 1 .682-.908q.477-.332 1.142-.332.674 0 1.146.337.474.331.631.903h.068a1.74 1.74 0 0 1 .725-.899q.528-.34 1.248-.341.917 0 1.487.584.576.58.576 1.645v4.402h-1.811v-4.044q0-.546-.29-.818a1.02 1.02 0 0 0-.725-.273q-.494 0-.771.315-.277.312-.277.823v3.997h-1.76v-4.083q0-.481-.277-.767-.273-.285-.72-.285-.303 0-.546.153-.238.15-.379.422-.14.268-.14.631v3.929zm13.797.128q-1.01 0-1.739-.409a2.8 2.8 0 0 1-1.117-1.168q-.392-.759-.392-1.794 0-1.01.392-1.773.393-.762 1.104-1.189.716-.426 1.679-.426.648 0 1.206.209.563.204.98.618.422.413.656 1.04.235.621.235 1.457v.499h-5.527v-1.125h3.818q0-.392-.17-.695a1.23 1.23 0 0 0-.473-.473 1.35 1.35 0 0 0-.695-.175q-.414 0-.733.192-.315.188-.494.507-.18.315-.184.703v1.07q0 .486.179.839.184.354.516.546t.788.192q.303 0 .554-.086t.431-.255a1.1 1.1 0 0 0 .272-.418l1.679.111q-.128.604-.524 1.057a2.6 2.6 0 0 1-1.014.698q-.618.248-1.427.248m5.872-3.912v3.784h-1.816v-6.546h1.731v1.155h.076q.218-.572.729-.903.511-.337 1.24-.337.682 0 1.189.298t.788.853q.282.55.282 1.312v4.168h-1.816v-3.844q.005-.601-.307-.937-.311-.341-.856-.341-.366 0-.648.157a1.1 1.1 0 0 0-.435.461 1.6 1.6 0 0 0-.157.72m8.999-2.762v1.364h-3.942v-1.364zm-3.047-1.568h1.815v6.102q0 .252.077.392a.42.42 0 0 0 .213.192.9.9 0 0 0 .324.056q.127 0 .256-.022l.196-.038.285 1.351a6 6 0 0 1-.383.098q-.247.06-.601.072-.656.026-1.151-.174a1.6 1.6 0 0 1-.763-.623q-.272-.421-.268-1.065z"/><path fill="#fff" stroke="#F6821F" stroke-width="2" d="M231 244h117.875v24.927H231z"/><path fill="#222" d="M277.987 259.876h-3.094v-8.727h3.119q1.317 0 2.267.524a3.53 3.53 0 0 1 1.462 1.496q.516.976.516 2.335 0 1.363-.516 2.344a3.55 3.55 0 0 1-1.47 1.504q-.955.524-2.284.524m-1.249-1.581h1.172q.819 0 1.376-.29.563-.294.844-.907.286-.618.286-1.594 0-.968-.286-1.581a1.85 1.85 0 0 0-.839-.904q-.558-.29-1.377-.289h-1.176zm9.847 1.581h-3.094v-8.727h3.12q1.317 0 2.267.524a3.53 3.53 0 0 1 1.461 1.496q.516.976.516 2.335 0 1.363-.516 2.344a3.54 3.54 0 0 1-1.47 1.504q-.954.524-2.284.524m-1.248-1.581h1.172q.818 0 1.376-.29.562-.294.844-.907.285-.618.285-1.594 0-.968-.285-1.581a1.86 1.86 0 0 0-.84-.904q-.558-.29-1.376-.289h-1.176zm9.676 1.709q-.993 0-1.717-.422a2.9 2.9 0 0 1-1.112-1.185q-.392-.762-.392-1.768 0-1.014.392-1.773a2.86 2.86 0 0 1 1.112-1.185q.724-.426 1.717-.426t1.713.426q.724.423 1.117 1.185.392.759.392 1.773 0 1.005-.392 1.768a2.9 2.9 0 0 1-1.117 1.185q-.72.422-1.713.422m.009-1.406q.451 0 .754-.256.303-.26.456-.708.158-.447.158-1.018t-.158-1.018a1.6 1.6 0 0 0-.456-.708 1.12 1.12 0 0 0-.754-.26q-.456 0-.767.26-.308.26-.465.708a3.1 3.1 0 0 0-.153 1.018q0 .571.153 1.018.158.448.465.708.31.255.767.256m9.03-4.939a1.08 1.08 0 0 0-.439-.801q-.389-.286-1.053-.286-.451 0-.763.128a1.07 1.07 0 0 0-.477.345.83.83 0 0 0-.162.503.73.73 0 0 0 .098.409q.111.174.303.302.191.124.443.218.252.09.537.153l.784.188q.571.128 1.048.341t.827.524.541.733q.197.421.2.967-.003.801-.409 1.389-.4.584-1.159.908-.754.32-1.819.32-1.057 0-1.841-.324a2.7 2.7 0 0 1-1.219-.959q-.435-.639-.456-1.581h1.786q.029.44.251.733.226.29.601.439.38.144.856.145.47 0 .814-.137.35-.136.541-.379a.88.88 0 0 0 .192-.558.73.73 0 0 0-.174-.495 1.3 1.3 0 0 0-.503-.34 5 5 0 0 0-.806-.256l-.95-.239q-1.104-.269-1.743-.839-.64-.572-.635-1.539-.004-.792.422-1.385.43-.592 1.18-.924t1.705-.333q.972 0 1.696.333.729.332 1.134.924t.417 1.373z"/><path fill="#fff" stroke="#F6821F" stroke-width="2" d="M231 275h117.875v24.927H231z"/><path fill="#222" d="M281.554 290.74h-3.094v-8.728h3.119q1.317 0 2.267.525a3.53 3.53 0 0 1 1.462 1.495q.515.976.515 2.336 0 1.363-.515 2.343a3.55 3.55 0 0 1-1.47 1.505q-.955.524-2.284.524m-1.249-1.581h1.172q.818 0 1.376-.29.563-.294.844-.908.286-.618.286-1.593 0-.967-.286-1.581a1.85 1.85 0 0 0-.839-.904q-.559-.29-1.377-.29h-1.176zm14.053-7.147v8.728h-1.594l-3.797-5.493h-.064v5.493h-1.845v-8.728h1.62l3.767 5.489h.076v-5.489zm6.127 2.51a1.08 1.08 0 0 0-.439-.801q-.388-.285-1.053-.285a2 2 0 0 0-.762.128 1.07 1.07 0 0 0-.478.345.83.83 0 0 0-.162.503.73.73 0 0 0 .098.409q.111.174.303.302.192.124.443.218.252.089.537.153l.784.188q.571.127 1.048.34t.827.525q.35.31.541.733.196.421.201.967-.005.801-.409 1.389-.4.584-1.16.908-.753.32-1.819.319-1.057 0-1.841-.324a2.7 2.7 0 0 1-1.219-.958q-.435-.639-.456-1.581h1.786q.03.438.251.733.226.29.601.439a2.4 2.4 0 0 0 .857.144q.468 0 .814-.136.349-.136.541-.379a.87.87 0 0 0 .191-.558.73.73 0 0 0-.174-.495 1.34 1.34 0 0 0-.503-.341 5 5 0 0 0-.805-.255l-.951-.239q-1.104-.269-1.743-.839-.638-.572-.635-1.539-.004-.792.422-1.385.43-.592 1.181-.924.75-.333 1.704-.333.972 0 1.696.333.729.332 1.134.924t.417 1.372z"/><path fill="#fff" stroke="#F6821F" stroke-width="2" d="M358 275h117.875v24.927H358z"/><path fill="#222" d="M383.703 285.068h-1.867a1.8 1.8 0 0 0-.208-.644 1.6 1.6 0 0 0-.405-.485 1.8 1.8 0 0 0-.571-.307 2.2 2.2 0 0 0-.695-.107q-.678 0-1.18.337-.503.332-.78.971-.277.636-.277 1.543 0 .933.277 1.568.281.636.784.959a2.1 2.1 0 0 0 1.163.324q.372 0 .686-.098a1.8 1.8 0 0 0 .567-.286q.247-.19.409-.464.167-.273.23-.622l1.867.008a3.48 3.48 0 0 1-1.134 2.152q-.481.435-1.15.691a4.2 4.2 0 0 1-1.504.251q-1.168 0-2.089-.528-.915-.53-1.448-1.53-.53-1.002-.529-2.425 0-1.428.537-2.429t1.458-1.525q.92-.53 2.071-.529.758 0 1.406.213.651.214 1.155.622.503.405.818.993.32.588.409 1.347m4.285 5.672h-3.094v-8.728h3.119q1.317 0 2.267.525a3.53 3.53 0 0 1 1.462 1.495q.516.976.516 2.336 0 1.363-.516 2.343a3.55 3.55 0 0 1-1.47 1.505q-.955.524-2.284.524m-1.249-1.581h1.172q.818 0 1.377-.29.563-.294.843-.908.286-.618.286-1.593 0-.967-.286-1.581a1.85 1.85 0 0 0-.839-.904q-.558-.29-1.377-.29h-1.176zm14.053-7.147v8.728h-1.593l-3.797-5.493h-.064v5.493h-1.845v-8.728h1.619l3.767 5.489h.077v-5.489zm7.805-.409-2.812 10.449h-1.564l2.812-10.449zm11.123 3.465h-1.867a1.8 1.8 0 0 0-.209-.644 1.6 1.6 0 0 0-.405-.485 1.8 1.8 0 0 0-.571-.307 2.2 2.2 0 0 0-.694-.107q-.677 0-1.181.337-.503.332-.779.971-.277.636-.277 1.543 0 .933.277 1.568.28.636.784.959a2.1 2.1 0 0 0 1.163.324q.37 0 .686-.098.32-.098.567-.286.247-.19.409-.464.166-.273.23-.622l1.867.008q-.073.601-.363 1.159-.285.555-.771.993a3.6 3.6 0 0 1-1.151.691 4.2 4.2 0 0 1-1.504.251q-1.167 0-2.088-.528-.916-.53-1.449-1.53-.528-1.002-.528-2.425 0-1.428.537-2.429t1.457-1.525q.92-.53 2.071-.529.76 0 1.406.213.653.214 1.155.622.503.405.818.993.32.588.41 1.347m3.023 5.795a2.7 2.7 0 0 1-1.116-.217 1.8 1.8 0 0 1-.776-.652q-.28-.435-.281-1.082 0-.546.2-.917a1.6 1.6 0 0 1 .545-.596q.346-.226.785-.341.443-.115.929-.162.57-.06.92-.111.35-.055.507-.162a.36.36 0 0 0 .158-.315v-.026q0-.404-.256-.626-.252-.222-.716-.222-.49 0-.78.218a1 1 0 0 0-.383.537l-1.679-.137q.128-.596.503-1.031.375-.44.967-.673.597-.239 1.381-.239.544 0 1.044.128.503.127.89.396.393.268.618.691.226.417.226 1.001v4.415h-1.721v-.908h-.052a1.8 1.8 0 0 1-.421.541 2 2 0 0 1-.635.362 2.6 2.6 0 0 1-.857.128m.52-1.253q.4 0 .707-.157.307-.162.482-.435t.175-.618v-.694a1 1 0 0 1-.235.102 5 5 0 0 1-.328.081q-.183.034-.366.064l-.333.047a2.2 2.2 0 0 0-.558.149.9.9 0 0 0-.371.277.67.67 0 0 0-.132.426q0 .37.269.567.272.192.69.191m7.4 1.258q-1.006 0-1.73-.427a2.87 2.87 0 0 1-1.108-1.193q-.384-.762-.384-1.755 0-1.006.388-1.765a2.9 2.9 0 0 1 1.112-1.189q.72-.43 1.713-.43.857 0 1.5.311.644.312 1.019.874t.413 1.321h-1.713q-.072-.49-.383-.789-.307-.302-.806-.302a1.22 1.22 0 0 0-.737.23 1.5 1.5 0 0 0-.486.66q-.175.435-.175 1.053 0 .627.171 1.065.174.44.49.669.315.231.737.231.312 0 .558-.128.252-.129.414-.371.166-.247.217-.592h1.713q-.043.75-.409 1.321a2.47 2.47 0 0 1-1.001.886q-.64.32-1.513.32m5.769-3.912v3.784h-1.816v-8.728h1.765v3.337h.076q.222-.58.716-.908.495-.332 1.24-.332.682 0 1.189.298.511.294.793.848.285.55.281 1.317v4.168h-1.815v-3.844q.004-.604-.307-.942-.308-.336-.861-.336-.37 0-.656.157a1.1 1.1 0 0 0-.443.46 1.56 1.56 0 0 0-.162.721m5.541 3.784v-6.546h1.815v6.546zm.912-7.389a1 1 0 0 1-.695-.269.87.87 0 0 1-.285-.652q0-.375.285-.643a.98.98 0 0 1 .695-.273q.405 0 .69.273.29.268.29.643 0 .38-.29.652a.97.97 0 0 1-.69.269m4.041 3.605v3.784h-1.816v-6.546h1.73v1.155h.077q.218-.571.729-.903.511-.337 1.24-.337.681 0 1.189.298.507.298.788.853.281.55.281 1.312v4.168h-1.815v-3.844q.005-.601-.307-.938-.311-.34-.856-.34a1.3 1.3 0 0 0-.648.157 1.1 1.1 0 0 0-.435.46 1.6 1.6 0 0 0-.157.721m8.466 6.375q-.882 0-1.513-.243-.626-.239-.997-.652a2 2 0 0 1-.481-.929l1.678-.226a1.11 1.11 0 0 0 .682.639q.277.107.674.107.592 0 .975-.29.388-.285.388-.959v-1.197h-.076a1.74 1.74 0 0 1-.972.912q-.375.153-.895.153-.737 0-1.342-.341-.601-.345-.959-1.052-.354-.712-.354-1.799 0-1.112.362-1.858.363-.745.964-1.116a2.5 2.5 0 0 1 1.325-.371q.55 0 .92.188.37.183.597.46.23.273.354.537h.068v-1.1h1.802v6.61q0 .834-.409 1.397t-1.133.844q-.72.286-1.658.286m.038-4.049q.44 0 .742-.217.307-.222.469-.631a2.7 2.7 0 0 0 .166-.988q0-.576-.162-.997a1.45 1.45 0 0 0-.469-.661 1.2 1.2 0 0 0-.746-.234q-.447 0-.754.243-.306.238-.464.664a2.8 2.8 0 0 0-.158.985q0 .566.158.98.162.409.464.635.307.22.754.221"/><path fill="#3E74FF" d="M150.752 91.421a1.5 1.5 0 1 0 0 3zm201.687 115.64a1.5 1.5 0 0 0 2.122 0l9.546-9.546a1.5 1.5 0 0 0 0-2.122 1.5 1.5 0 0 0-2.122 0l-8.485 8.486-8.485-8.486a1.5 1.5 0 0 0-2.122 0 1.5 1.5 0 0 0 0 2.122zM150.752 94.421H329.5v-3H150.752zM352 116.921V206h3v-89.079zm-22.5-22.5c12.426 0 22.5 10.074 22.5 22.5h3c0-14.083-11.417-25.5-25.5-25.5z"/><path fill="#950C3E" d="M147.638 217.763a1.5 1.5 0 0 0 0 3zm71.138 46.825a1.5 1.5 0 0 0 0-2.122l-9.546-9.546a1.5 1.5 0 0 0-2.122 0 1.5 1.5 0 0 0 0 2.122l8.486 8.485-8.486 8.485a1.5 1.5 0 0 0 0 2.122 1.5 1.5 0 0 0 2.122 0zM174 241.395h1.5zm0 0h1.5zm-26.362-20.632h4.23v-3h-4.23zm48.494 44.264h21.583v-3h-21.583zM172.5 241.395c0 13.052 10.58 23.632 23.632 23.632v-3c-11.395 0-20.632-9.237-20.632-20.632zm-20.632-20.632c11.395 0 20.632 9.237 20.632 20.632h3c0-13.051-10.58-23.632-23.632-23.632z"/><path fill="#F6821F" d="M150.752 343.421a1.5 1.5 0 1 0 0 3zm68.024-41.356a1.5 1.5 0 0 0 0-2.121l-9.546-9.546a1.5 1.5 0 0 0-2.122 2.121l8.486 8.485-8.486 8.486a1.501 1.501 0 0 0 2.122 2.121zM177 322.963h1.5zm0 0h1.5zm-26.248 23.458h4.29v-3h-4.29zm48.206-43.917h18.757v-3h-18.757zM178.5 322.963c0-11.299 9.16-20.459 20.458-20.459v-3c-12.955 0-23.458 10.503-23.458 23.459zm-23.458 23.458c12.955 0 23.458-10.502 23.458-23.458h-3c0 11.299-9.16 20.458-20.458 20.458z"/><path fill="#269B7F" d="M147.638 469.763a1.5 1.5 0 0 0 0 3zm206.923-125.824a1.5 1.5 0 0 0-2.122 0l-9.546 9.546a1.5 1.5 0 0 0 0 2.122 1.5 1.5 0 0 0 2.122 0l8.485-8.486 8.485 8.486a1.5 1.5 0 0 0 2.122 0 1.5 1.5 0 0 0 0-2.122zM147.638 472.763H329.5v-3H147.638zM355 447.263V345h-3v102.263zm-25.5 25.5c14.083 0 25.5-11.417 25.5-25.5h-3c0 12.427-10.074 22.5-22.5 22.5z"/><path fill="#3E74FF" d="M500 238.5a1.5 1.5 0 0 0 0 3zm61.908 2.561a1.5 1.5 0 0 0 0-2.122l-9.545-9.546a1.5 1.5 0 1 0-2.122 2.122l8.486 8.485-8.486 8.485a1.5 1.5 0 1 0 2.122 2.122zM500 241.5h60.848v-3H500z"/><path fill="#269B7F" d="M500 313.5a1.5 1.5 0 0 0 0 3zm61.908 2.561a1.5 1.5 0 0 0 0-2.122l-9.546-9.546a1.501 1.501 0 0 0-2.121 2.122l8.485 8.485-8.485 8.485a1.5 1.5 0 0 0 2.121 2.122zM500 316.5h60.848v-3H500z"/><path fill="#F6821F" d="M500 288.5a1.5 1.5 0 0 0 0 3zm61.908 2.561a1.5 1.5 0 0 0 0-2.122l-9.546-9.546a1.501 1.501 0 0 0-2.121 2.122l8.485 8.485-8.485 8.485a1.5 1.5 0 0 0 2.121 2.122zM500 291.5h60.848v-3H500z"/><path fill="#950C3E" d="M500 263.5a1.5 1.5 0 0 0 0 3zm61.908 2.561a1.5 1.5 0 0 0 0-2.122l-9.546-9.546a1.501 1.501 0 0 0-2.121 2.122l8.485 8.485-8.485 8.485a1.5 1.5 0 0 0 2.121 2.122zM500 266.5h60.848v-3H500z"/></svg>