<svg xmlns="http://www.w3.org/2000/svg" width="1156" height="123" fill="none" viewBox="0 0 1156 123"><path fill="#fff" d="M0 0h1156v123H0z"/><path fill="#0055DC" d="M1049.51 47.198H1046v18.05h3.51zm91.49 0h-3.51v18.05h3.51z"/><path fill="#fff" stroke="#0055DC" stroke-miterlimit="10" stroke-width="1.5" d="M1054.31 68.465v3.425l78.38-.004V68.46z"/><path fill="#C5EBF5" stroke="#0055DC" stroke-miterlimit="10" stroke-width="1.5" d="M1137.49 44h-87.98v24.462h87.98z"/><path fill="#fff" d="M1133.69 65.012V47.45h-80.38v17.563z"/><path fill="#0055DC" d="M1059.83 52.408h-1.95v1.902h1.95zm0 5.725h-1.95v1.903h1.95zm2.67-3.016h-1.95v1.902h1.95zm2.37-2.709h-1.95v1.902h1.95zm0 5.725h-1.95v1.903h1.95zm2.52-3.016h-1.95v1.902h1.95zm2.98-2.709h-1.95v1.902h1.95zm0 5.725h-1.95v1.903h1.95zm2.52-3.016h-1.95v1.902h1.95zm3.06-2.709h-1.94v1.902h1.94zm0 5.725h-1.94v1.903h1.94zm2.37-3.016h-1.94v1.902h1.94zm2.67-2.709h-1.95v1.902h1.95zm0 5.725h-1.95v1.903h1.95zm2.22-3.016h-1.94v1.902h1.94zm2.82-2.709h-1.95v1.902h1.95zm0 5.725h-1.95v1.903h1.95zm2.07-3.016h-1.94v1.902h1.94zm39.21 3.475c1.33 0 2.41-1.057 2.41-2.361s-1.08-2.362-2.41-2.362c-1.34 0-2.42 1.058-2.42 2.362s1.08 2.361 2.42 2.361"/><path stroke="#0055DC" stroke-miterlimit="10" stroke-width="1.5" d="M1120.35 56.23h-25.6"/><path fill="#222" d="M53.971 106v-8.727h3.444q.988 0 1.687.353a2.45 2.45 0 0 1 1.07.993q.37.64.37 1.505 0 .869-.375 1.495-.375.622-1.086.955-.708.332-1.713.332h-2.306v-1.483h2.007q.529 0 .878-.145a1.04 1.04 0 0 0 .52-.434q.175-.29.175-.72 0-.435-.175-.733a1.07 1.07 0 0 0-.524-.452q-.35-.158-.882-.158h-1.244V106zm4.714-3.972L60.853 106h-2.036l-2.123-3.972zm6.005 4.1q-1.01 0-1.739-.409a2.8 2.8 0 0 1-1.116-1.168q-.393-.759-.392-1.794 0-1.01.392-1.773t1.103-1.188q.716-.427 1.68-.427.647 0 1.205.21.563.204.98.617.422.413.657 1.04.234.622.234 1.457v.499h-5.527v-1.125h3.818q0-.393-.17-.695a1.2 1.2 0 0 0-.473-.473 1.35 1.35 0 0 0-.695-.175q-.413 0-.733.192-.315.188-.494.507-.18.316-.183.703v1.07q0 .486.179.84.183.353.515.545.333.192.789.192.302 0 .554-.085.25-.086.43-.256t.273-.418l1.679.111q-.129.605-.524 1.057a2.64 2.64 0 0 1-1.015.699q-.618.246-1.427.247m8.514 2.327v-3.503h-.055a2.3 2.3 0 0 1-.363.541 1.8 1.8 0 0 1-.6.439q-.367.175-.895.175-.747 0-1.351-.384-.6-.388-.955-1.138-.35-.754-.35-1.849 0-1.125.363-1.871.363-.75.963-1.12.605-.376 1.325-.376.55 0 .917.188.37.183.596.46.23.273.35.537h.076v-1.1h1.79v9.001zm-1.338-3.793q.44 0 .741-.239a1.5 1.5 0 0 0 .47-.677q.165-.435.165-1.019t-.162-1.014a1.46 1.46 0 0 0-.468-.665 1.2 1.2 0 0 0-.746-.234q-.448 0-.754.243-.307.243-.465.673a2.9 2.9 0 0 0-.157.997q0 .572.157 1.01.162.435.465.682.306.243.754.243m8.804-1.449v-3.758h1.815V106h-1.743v-1.189h-.068a1.93 1.93 0 0 1-.737.925q-.51.35-1.249.349-.656 0-1.154-.298a2.06 2.06 0 0 1-.78-.848q-.277-.55-.282-1.317v-4.168h1.816v3.844q.004.58.31.916.308.337.823.337.33 0 .614-.149a1.17 1.17 0 0 0 .46-.452q.18-.298.175-.737m6.25 2.915q-1.01 0-1.738-.409a2.8 2.8 0 0 1-1.117-1.168q-.392-.759-.392-1.794 0-1.01.392-1.773t1.104-1.188q.716-.427 1.679-.427.648 0 1.206.21.562.204.98.617.422.413.656 1.04.234.622.234 1.457v.499h-5.527v-1.125h3.819q0-.393-.17-.695a1.2 1.2 0 0 0-.474-.473 1.35 1.35 0 0 0-.694-.175q-.414 0-.733.192-.315.188-.495.507-.178.316-.183.703v1.07q0 .486.18.84.182.353.515.545.332.192.788.192.302 0 .554-.085t.43-.256q.18-.17.273-.418l1.68.111q-.128.605-.525 1.057-.392.447-1.014.699-.618.246-1.428.247m9.635-4.807-1.662.102a.85.85 0 0 0-.183-.383 1 1 0 0 0-.37-.277 1.3 1.3 0 0 0-.542-.107q-.421 0-.712.179-.29.175-.29.469 0 .234.188.396t.644.26l1.184.239q.955.196 1.424.631.468.434.468 1.142 0 .643-.379 1.129-.375.486-1.031.758-.652.269-1.504.269-1.3 0-2.071-.541a2.1 2.1 0 0 1-.9-1.483l1.786-.094a.92.92 0 0 0 .392.605q.31.204.797.205.477 0 .767-.184.294-.187.298-.481a.5.5 0 0 0-.209-.405q-.204-.162-.63-.247l-1.134-.226q-.959-.192-1.427-.665-.465-.472-.465-1.206 0-.63.341-1.086.346-.457.967-.703.627-.248 1.466-.248 1.24 0 1.952.525.716.524.835 1.427m4.774-1.867v1.364h-3.942v-1.364zm-3.047-1.568h1.815v6.103a.8.8 0 0 0 .077.392.42.42 0 0 0 .213.191.9.9 0 0 0 .324.056q.128 0 .256-.021l.196-.039.285 1.351a5 5 0 0 1-.383.098q-.247.06-.601.072-.657.026-1.15-.174a1.6 1.6 0 0 1-.763-.622q-.273-.423-.269-1.066zM1067.86 85v-8.727h5.88v1.521h-4.03v2.08h3.73v1.52h-3.73v2.085h4.05V85zm9.13-3.784V85h-1.81v-6.546h1.73v1.155h.07c.15-.38.39-.681.73-.903.34-.225.76-.337 1.24-.337.46 0 .85.1 1.19.299s.6.483.79.852c.19.366.28.804.28 1.312V85h-1.82v-3.844c.01-.4-.1-.713-.3-.937-.21-.227-.5-.341-.86-.341-.24 0-.46.052-.65.157-.18.106-.33.259-.43.46-.1.2-.16.44-.16.72m8.06 3.89c-.49 0-.95-.127-1.35-.383-.4-.258-.72-.638-.95-1.138-.24-.503-.35-1.12-.35-1.85q0-1.125.36-1.87.36-.75.96-1.12a2.5 2.5 0 0 1 1.33-.376c.36 0 .67.063.91.188q.375.183.6.46c.15.182.27.36.35.537h.06v-3.281h1.81V85h-1.79v-1.048h-.08a2.4 2.4 0 0 1-.36.54q-.24.265-.6.44-.375.174-.9.174m.58-1.444c.29 0 .54-.08.74-.239.2-.162.36-.388.47-.677s.16-.63.16-1.019-.05-.727-.16-1.014-.26-.508-.47-.665c-.2-.156-.45-.234-.74-.234-.3 0-.55.08-.76.243-.2.162-.36.386-.46.673-.11.287-.16.62-.16.997 0 .381.05.718.16 1.01.11.29.26.517.46.682.21.162.46.243.76.243m4.64 3.792v-9h1.79v1.1h.08c.08-.176.19-.355.35-.537.15-.185.35-.338.59-.46.25-.125.56-.188.92-.188q.72 0 1.32.375c.41.248.73.621.97 1.121q.36.745.36 1.87c0 .73-.12 1.347-.35 1.85q-.345.75-.96 1.138c-.4.256-.84.383-1.34.383q-.525 0-.9-.174a1.7 1.7 0 0 1-.6-.44q-.24-.268-.36-.54h-.06v3.502zm1.78-5.727c0 .39.05.729.16 1.019s.26.515.47.677c.2.16.45.239.74.239q.45 0 .75-.243c.21-.165.36-.392.47-.682.11-.292.16-.629.16-1.01 0-.378-.05-.71-.16-.997-.1-.287-.26-.511-.46-.673a1.2 1.2 0 0 0-.76-.243q-.435 0-.75.234c-.2.156-.35.378-.46.665s-.16.625-.16 1.014m8.77 3.4c-.66 0-1.23-.14-1.72-.421a2.87 2.87 0 0 1-1.11-1.185q-.39-.762-.39-1.768 0-1.014.39-1.773a2.84 2.84 0 0 1 1.11-1.184c.49-.285 1.06-.427 1.72-.427q.99 0 1.71.427a2.8 2.8 0 0 1 1.12 1.184q.39.759.39 1.773 0 1.006-.39 1.768c-.26.506-.63.9-1.12 1.185q-.72.422-1.71.422m.01-1.405q.45 0 .75-.256c.2-.173.36-.41.46-.707.1-.299.16-.638.16-1.019s-.06-.72-.16-1.018-.26-.534-.46-.708q-.3-.26-.75-.26c-.3 0-.56.087-.77.26-.2.174-.36.41-.46.708s-.16.637-.16 1.018c0 .38.06.72.16 1.019s.26.534.46.707c.21.17.47.256.77.256m4.39 1.278v-6.546h1.82V85zm.91-7.39a.97.97 0 0 1-.69-.268.88.88 0 0 1-.29-.652c0-.25.1-.464.29-.643a.96.96 0 0 1 .69-.273q.405 0 .69.273c.2.179.29.393.29.643 0 .253-.09.47-.29.652a.97.97 0 0 1-.69.269m4.18 3.606V85h-1.82v-6.546h1.73v1.155h.08c.14-.38.39-.681.73-.903.34-.225.75-.337 1.24-.337.45 0 .85.1 1.19.299.33.198.6.483.78.852.19.366.29.804.29 1.312V85h-1.82v-3.844c0-.4-.1-.713-.31-.937-.2-.227-.49-.341-.85-.341-.25 0-.46.052-.65.157-.18.106-.33.259-.43.46-.11.2-.16.44-.16.72m9.13-2.761v1.363h-3.94v-1.364zm-3.05-1.569h1.82v6.103c0 .167.02.298.07.392.05.09.13.154.22.191s.2.056.32.056c.09 0 .17-.007.26-.022l.19-.038.29 1.351q-.135.042-.39.098-.24.06-.6.073c-.43.016-.82-.042-1.15-.175a1.63 1.63 0 0 1-.76-.622q-.27-.423-.27-1.066z"/><path fill="#C5EBF5" fill-rule="evenodd" stroke="#0055DC" stroke-miterlimit="10" stroke-width="1.5" d="M122.241 25H34.397c-2.328 0-4.41 1.96-4.41 4.41v57.706h96.665V29.41c0-2.45-2.083-4.411-4.411-4.411Z" clip-rule="evenodd"/><path fill="#0055DC" d="M78.258 29.288a.735.735 0 1 0 0-1.47.735.735 0 0 0 0 1.47"/><path fill="#fff" d="M130.45 91.526H26.066c-5.39 0-9.066-.857-9.066-1.592v-2.45c0-.246.245-.49.49-.49h121.414c.245 0 .49.244.49.49v2.45c.122.735-2.696 1.592-8.944 1.592"/><path stroke="#0055DC" stroke-miterlimit="10" stroke-width="1.5" d="M130.45 91.526H26.066c-5.39 0-9.066-.857-9.066-1.592v-2.45c0-.246.245-.49.49-.49h121.414c.245 0 .49.244.49.49v2.45c.122.735-2.696 1.592-8.944 1.592Z" clip-rule="evenodd"/><path fill="#C5EBF5" d="M139.516 87.483c0-.245-.245-.49-.49-.49H17.612c-.245 0-.49.245-.49.49v2.328h122.516v-2.328z"/><path stroke="#0055DC" stroke-miterlimit="10" stroke-width="1.5" d="M130.45 91.526H26.066c-5.39 0-9.066-.857-9.066-1.592v-2.45c0-.246.245-.49.49-.49h121.414c.245 0 .49.244.49.49v2.45c.122.735-2.696 1.592-8.944 1.592Z"/><path fill="#fff" d="M122.609 31.86H33.907v51.703h88.702z"/><path fill="#0055DC" fill-rule="evenodd" d="M91.612 87.238v.49c0 .368-.735.49-1.347.49H66.374c-.612 0-1.348-.122-1.348-.49v-.49" clip-rule="evenodd"/><path fill="#fff" stroke="#0055DC" stroke-miterlimit="10" stroke-width="1.5" d="M78.302 78.906c12.388 0 22.431-10.043 22.431-22.43 0-12.389-10.043-22.431-22.43-22.431-12.389 0-22.431 10.042-22.431 22.43s10.042 22.43 22.43 22.43Z"/><path fill="#003682" d="M77.385 48.06a1 1 0 0 1 1.673 0l.318.487a1 1 0 0 0 1.42.265l.469-.336a1 1 0 0 1 1.56.603l.123.575a1 1 0 0 0 1.227.76l.561-.145a1 1 0 0 1 1.237 1.125l-.094.588a1 1 0 0 0 .869 1.15l.582.07a1 1 0 0 1 .746 1.494l-.3.519a1 1 0 0 0 .393 1.384l.525.28a1 1 0 0 1 .154 1.662l-.466.374a1 1 0 0 0-.133 1.432l.39.455a1 1 0 0 1-.457 1.605l-.564.178a1 1 0 0 0-.642 1.288l.2.564a1 1 0 0 1-1.007 1.333l-.582-.039a1 1 0 0 0-1.066.971l-.015.592a1 1 0 0 1-1.423.88l-.524-.245a1 1 0 0 0-1.346.521l-.224.54a1 1 0 0 1-1.645.306l-.4-.417a1 1 0 0 0-1.445 0l-.4.417a1 1 0 0 1-1.645-.307l-.224-.539a1 1 0 0 0-1.346-.521l-.524.244a1 1 0 0 1-1.422-.879l-.016-.592a1 1 0 0 0-1.066-.97l-.582.038a1 1 0 0 1-1.008-1.333l.2-.563a1 1 0 0 0-.641-1.289l-.564-.178a1 1 0 0 1-.457-1.605l.39-.455a1 1 0 0 0-.133-1.432l-.466-.374a1 1 0 0 1 .154-1.662l.525-.28a1 1 0 0 0 .394-1.384l-.3-.519a1 1 0 0 1 .745-1.494l.582-.07a1 1 0 0 0 .869-1.15l-.094-.588a1 1 0 0 1 1.237-1.125l.561.144a1 1 0 0 0 1.227-.76l.123-.574a1 1 0 0 1 1.56-.603l.47.336a1 1 0 0 0 1.419-.265z"/><path fill="#C5EBF5" stroke="#003682" stroke-miterlimit="10" stroke-width="1.5" d="M71.224 68.16a15.8 15.8 0 0 0 3.22-2.343v-5.92l7.799.092v5.568c.356.692 1.7 1.542 3.494 2.55 0 0-3.337 4.977-7.529 4.977-4.191 0-6.984-4.924-6.984-4.924Z"/><path fill="#0055DC" stroke="#003682" stroke-miterlimit="10" stroke-width="1.5" d="M78.303 78.906a22.35 22.35 0 0 0 15.06-5.808 35 35 0 0 0-7.583-4.953s-3.38 4.938-7.57 4.938c-4.192 0-7.007-4.875-7.007-4.875-2.573 1.45-5.729 2.816-8.094 4.763a22.35 22.35 0 0 0 15.194 5.935Z"/><path fill="#C5EBF5" stroke="#003682" stroke-miterlimit="10" stroke-width="1.5" d="M85.74 52.414a1.24 1.24 0 0 1 1.611-.863c.975.294.426 3.834-2.298 3.708q.423-1.402.686-2.845Zm-14.877 0a1.276 1.276 0 0 0-1.666-.863c-.85.345-.426 3.834 2.3 3.709a23 23 0 0 1-.634-2.846Z"/><path fill="#C5EBF5" stroke="#003682" stroke-miterlimit="10" stroke-width="1.5" d="M86.092 49.164c0 2.021-.74 6.14-2.04 8.626-.965 1.846-3.452 3.9-5.712 3.9s-4.491-2.054-5.712-3.9c-1.548-2.34-2.04-6.605-2.04-8.626a7.752 7.752 0 1 1 15.504 0Z"/><path fill="#003682" stroke="#003682" stroke-linejoin="round" stroke-width="1.5" d="M85.692 51.71c-.362-3.081-3.35-7.182-6.688-7.182l-.55-2.554 1.033 2.583c0 5.584-8.28 4.091-8.625 7.781l-.132-.132a22.4 22.4 0 0 1-.275-3.25c0-4.282 3.604-7.62 7.885-7.62a7.867 7.867 0 0 1 7.885 7.753 16 16 0 0 1-.436 3.157z"/><path stroke="#0055DC" stroke-miterlimit="10" stroke-width="1.5" d="M78.302 78.906c12.388 0 22.431-10.043 22.431-22.43 0-12.389-10.043-22.431-22.43-22.431-12.389 0-22.431 10.042-22.431 22.43s10.042 22.43 22.43 22.43Z"/><path fill="#fff" stroke="#F6821F" stroke-width="2" d="M534 46h117.875v24.927H534z"/><path fill="#222" d="m582.358 61.876-2.497-8.727h2.015l1.445 6.063h.072l1.594-6.063h1.726l1.59 6.076h.076l1.445-6.076h2.015l-2.497 8.727h-1.798l-1.662-5.706h-.068l-1.658 5.706zm10.962 0h-1.977l3.013-8.727h2.378l3.008 8.727h-1.977l-2.186-6.733h-.068zm-.123-3.43h4.67v1.44h-4.67zm7.464 3.43v-8.727h5.778v1.52h-3.933v2.08h3.55v1.522h-3.55v3.605z"/><path fill="#fff" stroke="#F6821F" stroke-width="2" d="M363 46h117.875v24.927H363z"/><path fill="#222" d="M373.838 62.624v-8.727h3.494q.964 0 1.607.285t.967.793q.324.502.324 1.159 0 .51-.204.899a1.8 1.8 0 0 1-.563.63 2.3 2.3 0 0 1-.809.346v.085q.498.021.933.281.439.26.711.729.273.465.273 1.108 0 .694-.345 1.24-.34.54-1.01.857-.67.315-1.649.315zm1.845-1.509h1.505q.771 0 1.125-.294a.99.99 0 0 0 .353-.792q0-.363-.174-.64a1.2 1.2 0 0 0-.499-.434 1.7 1.7 0 0 0-.763-.158h-1.547zm0-3.566h1.368q.38 0 .674-.133a1.1 1.1 0 0 0 .468-.383 1 1 0 0 0 .175-.592.96.96 0 0 0-.337-.763q-.332-.29-.946-.29h-1.402zm8.88 5.203q-.993 0-1.717-.422a2.9 2.9 0 0 1-1.112-1.185q-.393-.763-.393-1.768 0-1.014.393-1.773a2.85 2.85 0 0 1 1.112-1.185q.724-.426 1.717-.426t1.713.426a2.85 2.85 0 0 1 1.117 1.185q.392.759.392 1.773 0 1.006-.392 1.768-.393.758-1.117 1.185-.72.422-1.713.422m.009-1.407q.451 0 .754-.255.303-.261.456-.708.157-.447.157-1.018 0-.57-.157-1.018a1.6 1.6 0 0 0-.456-.708 1.12 1.12 0 0 0-.754-.26q-.456 0-.767.26-.307.26-.465.708a3.1 3.1 0 0 0-.153 1.018q0 .57.153 1.018.158.449.465.708.31.255.767.255m7.743-5.267v1.364h-3.942v-1.364zm-3.047-1.568h1.815v6.102q0 .252.077.393.076.135.213.191a.9.9 0 0 0 .324.056q.128 0 .255-.022l.196-.038.286 1.35a5 5 0 0 1-.384.099q-.247.06-.6.072-.657.026-1.151-.174a1.6 1.6 0 0 1-.763-.623q-.273-.42-.268-1.065zm6.777-.613h2.275l2.404 5.863h.102l2.403-5.863h2.276v8.727h-1.79v-5.68h-.072l-2.259 5.637h-1.219l-2.258-5.659h-.073v5.702h-1.789zm12.68 8.85a2.7 2.7 0 0 1-1.116-.217 1.8 1.8 0 0 1-.776-.652q-.28-.434-.281-1.082 0-.547.2-.916.201-.371.546-.597t.784-.34a6 6 0 0 1 .929-.163q.571-.06.92-.11.35-.057.507-.163a.35.35 0 0 0 .158-.315v-.026q0-.405-.256-.626-.251-.221-.715-.221-.49 0-.78.217a1 1 0 0 0-.384.537l-1.679-.137q.128-.596.503-1.03a2.4 2.4 0 0 1 .967-.674q.597-.24 1.381-.239.546 0 1.044.128.503.127.891.396.392.27.618.69t.225 1.002v4.415h-1.721v-.908h-.051a1.9 1.9 0 0 1-.422.541 2 2 0 0 1-.635.363 2.6 2.6 0 0 1-.857.128m.52-1.252q.4 0 .708-.158.307-.162.481-.435.175-.272.175-.618v-.694a1 1 0 0 1-.234.102 4 4 0 0 1-.329.081 16 16 0 0 1-.366.064l-.332.047q-.32.046-.559.149a.9.9 0 0 0-.37.277.68.68 0 0 0-.133.426q0 .37.269.567.273.192.69.192m6.258-2.655v3.784h-1.815v-6.546h1.73v1.155h.077q.217-.57.728-.903.512-.337 1.24-.337.682 0 1.189.298.507.3.789.853.28.55.281 1.312v4.168h-1.815V58.78q.003-.6-.307-.937-.312-.342-.857-.341-.366 0-.647.157-.278.158-.435.46a1.6 1.6 0 0 0-.158.72m7.384 3.907q-.626 0-1.116-.217a1.8 1.8 0 0 1-.776-.652q-.28-.434-.281-1.082 0-.547.2-.916.201-.371.546-.597t.784-.34a6 6 0 0 1 .929-.163q.57-.06.92-.11.35-.057.507-.163a.36.36 0 0 0 .158-.315v-.026q0-.405-.256-.626-.25-.221-.716-.221-.489 0-.78.217a1 1 0 0 0-.383.537l-1.679-.137q.128-.596.503-1.03a2.4 2.4 0 0 1 .967-.674q.597-.24 1.381-.239.545 0 1.044.128.502.127.891.396.392.27.617.69.226.42.226 1.002v4.415h-1.721v-.908h-.051a1.9 1.9 0 0 1-.422.541 2 2 0 0 1-.635.363 2.6 2.6 0 0 1-.857.128m.52-1.252q.4 0 .707-.158.308-.162.482-.435.175-.272.175-.618v-.694a1 1 0 0 1-.235.102 4 4 0 0 1-.328.081 16 16 0 0 1-.366.064l-.333.047a2.3 2.3 0 0 0-.558.149.9.9 0 0 0-.371.277.68.68 0 0 0-.132.426q0 .37.269.567.273.192.69.192m7.392 3.72q-.883 0-1.513-.243-.627-.239-.997-.652a2 2 0 0 1-.482-.93l1.679-.225q.077.196.243.367t.439.272q.276.107.673.107.592 0 .976-.29.387-.285.388-.959v-1.197h-.077a1.7 1.7 0 0 1-.358.515 1.8 1.8 0 0 1-.614.397q-.375.153-.894.153a2.7 2.7 0 0 1-1.343-.34q-.6-.346-.959-1.053-.353-.712-.353-1.799 0-1.111.362-1.858.361-.746.963-1.116.605-.37 1.325-.37.55 0 .921.187.37.183.596.46.231.272.354.537h.068v-1.1h1.803v6.61q0 .836-.409 1.397-.41.564-1.134.844-.72.285-1.657.286m.038-4.049q.439 0 .741-.217.307-.222.469-.63.166-.414.166-.99 0-.575-.162-.996a1.46 1.46 0 0 0-.468-.66 1.2 1.2 0 0 0-.746-.235q-.447 0-.754.243-.308.238-.465.665a2.8 2.8 0 0 0-.158.984q0 .566.158.98.162.409.465.635.307.222.754.221m7.457 1.586q-1.01 0-1.738-.41a2.8 2.8 0 0 1-1.117-1.167q-.392-.759-.392-1.794 0-1.01.392-1.773a2.9 2.9 0 0 1 1.104-1.189q.716-.426 1.679-.426.648 0 1.206.209.563.204.98.618.422.414.656 1.04.235.622.235 1.457v.499h-5.527V58.69h3.818q0-.392-.171-.695a1.2 1.2 0 0 0-.473-.473 1.35 1.35 0 0 0-.694-.175q-.414 0-.733.192-.315.188-.495.507-.179.315-.183.703v1.07q0 .486.179.84.183.353.516.545.332.192.788.192.303 0 .554-.086t.431-.255q.179-.17.272-.418l1.679.11q-.128.606-.524 1.058a2.6 2.6 0 0 1-1.014.699q-.618.247-1.428.247m4.057-.128v-6.546h1.73v1.155h.077q.204-.575.682-.907.477-.333 1.142-.333.674 0 1.146.337.474.332.631.903h.068q.2-.562.725-.899.528-.34 1.248-.34.917 0 1.487.583.576.58.576 1.645v4.402h-1.811V58.58q0-.545-.29-.818a1.02 1.02 0 0 0-.725-.273q-.494 0-.771.315-.277.312-.277.823v3.997h-1.76V58.54q0-.48-.277-.766-.273-.285-.72-.286-.303 0-.546.153-.238.15-.379.422-.14.27-.14.63v3.93zm13.797.128q-1.01 0-1.739-.41a2.8 2.8 0 0 1-1.117-1.167q-.392-.759-.392-1.794 0-1.01.392-1.773.393-.763 1.104-1.189.716-.426 1.679-.426.648 0 1.206.209.563.204.98.618.422.414.656 1.04.235.622.235 1.457v.499h-5.527V58.69h3.818q0-.392-.17-.695a1.23 1.23 0 0 0-.473-.473 1.35 1.35 0 0 0-.695-.175q-.414 0-.733.192-.315.188-.494.507-.18.315-.184.703v1.07q0 .486.179.84.184.353.516.545t.788.192q.303 0 .554-.086t.431-.255q.179-.17.272-.418l1.679.11q-.128.606-.524 1.058a2.6 2.6 0 0 1-1.014.699q-.618.247-1.427.247m5.872-3.912v3.784h-1.816v-6.546h1.731v1.155h.076q.218-.57.729-.903.511-.337 1.24-.337.682 0 1.189.298.507.3.788.853.282.55.282 1.312v4.168h-1.816V58.78q.005-.6-.307-.937-.311-.342-.856-.341-.366 0-.648.157a1.1 1.1 0 0 0-.435.46 1.6 1.6 0 0 0-.157.72m8.999-2.762v1.364h-3.942v-1.364zm-3.047-1.568h1.815v6.102q0 .252.077.393.077.135.213.191a.9.9 0 0 0 .324.056q.127 0 .256-.022l.196-.038.285 1.35a5 5 0 0 1-.383.099q-.247.06-.601.072-.656.026-1.151-.174a1.6 1.6 0 0 1-.763-.623q-.272-.42-.268-1.065z"/><path fill="#5E5E5E" d="M485.875 56.726a1.5 1.5 0 0 0 0 3zm44.867 2.56a1.5 1.5 0 0 0 0-2.121l-9.546-9.546a1.5 1.5 0 1 0-2.121 2.121l8.485 8.485-8.485 8.486a1.5 1.5 0 1 0 2.121 2.121zm-44.867.44h43.806v-3h-43.806z"/><path fill="#fff" stroke="#F6821F" stroke-width="2" d="M192 46h117.875v24.927H192z"/><path fill="#222" d="M238.987 61.876h-3.094v-8.727h3.119q1.317 0 2.267.524a3.54 3.54 0 0 1 1.462 1.495q.516.977.516 2.336 0 1.363-.516 2.343a3.54 3.54 0 0 1-1.47 1.505q-.955.525-2.284.524m-1.249-1.581h1.172q.818 0 1.376-.29.563-.293.844-.908.286-.618.286-1.593 0-.968-.286-1.581a1.85 1.85 0 0 0-.839-.904q-.558-.29-1.377-.29h-1.176zm9.847 1.58h-3.094V53.15h3.12q1.316 0 2.267.524a3.53 3.53 0 0 1 1.461 1.495q.516.977.516 2.336 0 1.363-.516 2.343a3.54 3.54 0 0 1-1.47 1.505q-.954.525-2.284.524m-1.248-1.58h1.171q.819 0 1.377-.29.562-.293.844-.908.285-.618.285-1.593 0-.968-.285-1.581a1.85 1.85 0 0 0-.84-.904q-.558-.29-1.376-.29h-1.176zm9.676 1.709q-.993 0-1.717-.422a2.9 2.9 0 0 1-1.112-1.185q-.393-.762-.392-1.768 0-1.014.392-1.773a2.85 2.85 0 0 1 1.112-1.185q.724-.426 1.717-.426t1.713.426a2.85 2.85 0 0 1 1.117 1.185q.392.759.392 1.773 0 1.005-.392 1.768-.393.758-1.117 1.185-.72.422-1.713.422m.009-1.407q.451 0 .754-.255.303-.26.456-.708.158-.447.158-1.018 0-.57-.158-1.019a1.6 1.6 0 0 0-.456-.707 1.12 1.12 0 0 0-.754-.26q-.456 0-.767.26-.308.26-.465.707a3.1 3.1 0 0 0-.153 1.019q0 .57.153 1.018.157.448.465.708.31.255.767.255m9.03-4.939a1.08 1.08 0 0 0-.439-.8q-.389-.286-1.053-.286-.451 0-.763.128a1.1 1.1 0 0 0-.477.345.83.83 0 0 0-.162.503.7.7 0 0 0 .098.409q.111.174.303.302.191.124.443.218.252.09.537.153l.784.188q.571.128 1.048.34.477.214.827.525.35.31.541.733.197.42.2.967-.003.8-.409 1.39-.4.582-1.159.907-.754.32-1.819.32-1.058 0-1.841-.324a2.7 2.7 0 0 1-1.219-.96q-.435-.638-.456-1.58h1.786q.029.439.251.733.226.29.601.439.38.145.856.145.47 0 .814-.137.35-.135.541-.38a.88.88 0 0 0 .192-.557.73.73 0 0 0-.174-.495 1.3 1.3 0 0 0-.503-.34 5 5 0 0 0-.806-.256l-.95-.239q-1.104-.269-1.743-.84-.64-.57-.635-1.538-.004-.792.422-1.385.43-.593 1.18-.924.75-.333 1.705-.333.972 0 1.696.333.729.332 1.134.924t.417 1.372z"/><path fill="#5E5E5E" d="M314.875 57.474a1.5 1.5 0 0 0 0 3zm44.867 2.56a1.5 1.5 0 0 0 0-2.121l-9.546-9.546a1.5 1.5 0 1 0-2.121 2.121l8.485 8.486-8.485 8.485a1.5 1.5 0 1 0 2.121 2.121zm-44.867.44h43.806v-3h-43.806zm-171.237-3.748a1.5 1.5 0 0 0 0 3zm45.104 2.56a1.5 1.5 0 0 0 0-2.121l-9.546-9.546a1.5 1.5 0 1 0-2.121 2.121l8.485 8.485-8.485 8.486a1.5 1.5 0 1 0 2.121 2.121zm-45.104.44h44.043v-3h-44.043z"/><path fill="#fff" stroke="#F6821F" stroke-width="2" d="M705 46h117.875v24.927H705z"/><path fill="#222" d="M730.703 56.068h-1.867a1.8 1.8 0 0 0-.208-.643 1.6 1.6 0 0 0-.405-.486 1.8 1.8 0 0 0-.571-.307 2.2 2.2 0 0 0-.695-.107q-.678 0-1.18.337-.503.332-.78.972-.277.635-.277 1.542 0 .933.277 1.568.281.635.784.96a2.1 2.1 0 0 0 1.163.323q.371 0 .686-.098.32-.097.567-.285.247-.192.409-.465.167-.274.23-.622l1.867.008q-.072.601-.362 1.16-.286.554-.772.992-.481.435-1.15.69a4.2 4.2 0 0 1-1.504.252q-1.168 0-2.089-.528-.915-.529-1.448-1.53-.53-1.002-.529-2.425 0-1.427.537-2.429t1.458-1.525q.92-.53 2.071-.529.758 0 1.406.213.651.214 1.155.622.503.405.818.993.32.588.409 1.347m4.285 5.672h-3.094v-8.727h3.119q1.317 0 2.267.524a3.54 3.54 0 0 1 1.462 1.495q.516.977.516 2.336 0 1.363-.516 2.343a3.54 3.54 0 0 1-1.47 1.505q-.954.525-2.284.524m-1.249-1.581h1.172q.818 0 1.377-.29.563-.294.843-.907.286-.62.286-1.594 0-.968-.286-1.581a1.85 1.85 0 0 0-.839-.904q-.558-.29-1.377-.29h-1.176zm14.053-7.146v8.727h-1.593l-3.797-5.493h-.064v5.493h-1.845v-8.727h1.619l3.767 5.488h.077v-5.488zm7.805-.41-2.812 10.45h-1.564l2.812-10.45zm11.123 3.465h-1.867a1.8 1.8 0 0 0-.209-.643 1.6 1.6 0 0 0-.405-.486 1.8 1.8 0 0 0-.571-.307 2.2 2.2 0 0 0-.694-.107q-.678 0-1.181.337-.503.332-.779.972-.277.635-.277 1.542 0 .933.277 1.568.28.635.784.96a2.1 2.1 0 0 0 1.163.323q.37 0 .686-.098.32-.097.567-.285.247-.192.409-.465.166-.274.23-.622l1.867.008q-.073.601-.363 1.16-.285.554-.771.992-.482.435-1.151.69a4.2 4.2 0 0 1-1.504.252q-1.167 0-2.088-.528-.916-.529-1.449-1.53-.528-1.002-.528-2.425 0-1.427.537-2.429.536-1.001 1.457-1.525.92-.53 2.071-.529.76 0 1.406.213.652.214 1.155.622.503.405.818.993.32.588.41 1.347m3.023 5.795q-.627 0-1.116-.217a1.8 1.8 0 0 1-.776-.652q-.28-.434-.281-1.082 0-.547.2-.916.2-.372.545-.597t.785-.341q.443-.115.929-.162.57-.06.92-.11.35-.057.507-.163a.36.36 0 0 0 .158-.315v-.026q0-.404-.256-.626-.252-.222-.716-.221-.49 0-.78.217a1 1 0 0 0-.383.537l-1.679-.137a2.3 2.3 0 0 1 .503-1.03q.375-.44.967-.674.597-.24 1.381-.239.545 0 1.044.128.503.127.89.396.393.27.618.69.226.42.226 1.002v4.415h-1.721v-.908h-.052a1.9 1.9 0 0 1-.421.541 2 2 0 0 1-.635.363 2.6 2.6 0 0 1-.857.127m.52-1.252q.4 0 .707-.158.307-.162.482-.435.174-.272.175-.618v-.694a1 1 0 0 1-.235.102 4 4 0 0 1-.328.081q-.183.034-.366.064l-.333.047a2.3 2.3 0 0 0-.558.149.9.9 0 0 0-.371.277.68.68 0 0 0-.132.426q0 .37.269.567.272.192.69.192m7.4 1.257q-1.006 0-1.73-.426a2.9 2.9 0 0 1-1.108-1.194q-.384-.762-.384-1.755 0-1.005.388-1.765a2.9 2.9 0 0 1 1.112-1.188q.72-.43 1.713-.43.857 0 1.5.31.644.312 1.019.874t.413 1.32h-1.713a1.32 1.32 0 0 0-.383-.787q-.307-.303-.806-.303-.422 0-.737.23-.31.225-.486.66-.175.435-.175 1.053 0 .627.171 1.066.174.438.49.669.315.23.737.23.312 0 .558-.128.252-.128.414-.371.166-.247.217-.592h1.713q-.043.75-.409 1.32a2.47 2.47 0 0 1-1.001.887q-.64.32-1.513.32m5.769-3.912v3.784h-1.816v-8.727h1.765v3.336h.076q.222-.58.716-.907.495-.333 1.24-.333.682 0 1.189.298.511.296.793.849.285.55.281 1.316v4.168h-1.815v-3.844q.004-.604-.307-.942-.308-.336-.861-.336-.37 0-.656.157a1.1 1.1 0 0 0-.443.46 1.56 1.56 0 0 0-.162.72m5.541 3.784v-6.546h1.815v6.546zm.912-7.39a1 1 0 0 1-.695-.268.87.87 0 0 1-.285-.652q0-.375.285-.643a.98.98 0 0 1 .695-.273q.405 0 .69.273.29.268.29.643 0 .38-.29.652a.97.97 0 0 1-.69.269m4.041 3.606v3.784h-1.816v-6.546h1.73v1.155h.077q.217-.57.729-.903.511-.337 1.24-.337.681 0 1.189.298.507.299.788.853.281.55.281 1.312v4.168h-1.815v-3.844q.005-.6-.307-.937-.311-.341-.856-.341a1.3 1.3 0 0 0-.648.157q-.278.158-.435.46a1.6 1.6 0 0 0-.157.72m8.466 6.375q-.882 0-1.513-.243-.626-.239-.997-.652a2 2 0 0 1-.481-.93l1.678-.225q.078.196.243.367.166.17.439.272.277.107.674.107.592 0 .975-.29.388-.285.388-.959V60.58h-.076a1.74 1.74 0 0 1-.972.912q-.375.153-.895.153-.737 0-1.342-.34-.601-.346-.959-1.053-.354-.712-.354-1.799 0-1.111.362-1.858.363-.745.964-1.116.605-.37 1.325-.37.55 0 .92.187.37.183.597.46.23.272.354.537h.068v-1.1h1.802v6.61q0 .836-.409 1.398t-1.133.843q-.72.285-1.658.286m.038-4.049q.44 0 .742-.217.306-.222.469-.63.165-.414.166-.99 0-.574-.162-.996a1.45 1.45 0 0 0-.469-.66 1.2 1.2 0 0 0-.746-.235q-.447 0-.754.243a1.46 1.46 0 0 0-.464.665 2.8 2.8 0 0 0-.158.984q0 .566.158.98.161.409.464.635.307.221.754.221"/><path fill="#5E5E5E" d="M656.875 56.59a1.5 1.5 0 0 0 0 3zm44.867 2.56a1.5 1.5 0 0 0 0-2.121l-9.546-9.546a1.5 1.5 0 1 0-2.121 2.121l8.485 8.486-8.485 8.485a1.5 1.5 0 1 0 2.121 2.121zm-44.867.44h43.806v-3h-43.806z"/><path fill="#fff" stroke="#F6821F" stroke-width="2" d="M876 46h117.875v24.927H876z"/><path fill="#222" d="M895.204 61.74v-8.727h1.845v7.206h3.741v1.52zm9.6.128q-.993 0-1.718-.422a2.9 2.9 0 0 1-1.112-1.185q-.392-.763-.392-1.768 0-1.014.392-1.773a2.86 2.86 0 0 1 1.112-1.185q.725-.426 1.718-.426t1.713.426q.724.423 1.116 1.185.392.759.392 1.773 0 1.005-.392 1.768-.392.758-1.116 1.185-.72.422-1.713.422m.008-1.407q.452 0 .754-.255.303-.261.456-.708.158-.447.158-1.018 0-.57-.158-1.018a1.6 1.6 0 0 0-.456-.708 1.12 1.12 0 0 0-.754-.26q-.455 0-.767.26-.306.26-.464.708a3.1 3.1 0 0 0-.154 1.018q0 .57.154 1.018.158.448.464.708.312.255.767.255m6.128 1.402q-.626 0-1.116-.217a1.8 1.8 0 0 1-.776-.652q-.28-.434-.281-1.082 0-.547.2-.916a1.6 1.6 0 0 1 .546-.597q.345-.225.784-.341.443-.115.929-.162.57-.06.92-.11.35-.057.507-.163a.36.36 0 0 0 .158-.315v-.026q0-.404-.256-.626-.25-.222-.716-.221-.489 0-.78.217a1 1 0 0 0-.383.537l-1.679-.137a2.3 2.3 0 0 1 .503-1.03q.375-.44.967-.674.597-.24 1.381-.239.544 0 1.044.128.503.127.89.396.393.27.618.69.226.42.226 1.002v4.415h-1.721v-.908h-.051a1.9 1.9 0 0 1-.422.541 2 2 0 0 1-.635.363 2.6 2.6 0 0 1-.857.127m.52-1.252q.4 0 .707-.158.307-.162.482-.435.174-.272.175-.618v-.694a1 1 0 0 1-.235.102 4 4 0 0 1-.328.081q-.183.034-.366.064l-.333.047a2.3 2.3 0 0 0-.558.149.9.9 0 0 0-.371.277.68.68 0 0 0-.132.426q0 .37.269.567.273.192.69.192m6.855 1.235q-.747 0-1.351-.383-.601-.388-.955-1.138-.35-.755-.349-1.85 0-1.125.362-1.87.362-.75.963-1.12.605-.376 1.325-.376.55 0 .916.188.372.183.597.46.23.272.35.537h.055v-3.281h1.811v8.727h-1.79v-1.048h-.076a2.4 2.4 0 0 1-.363.54 1.8 1.8 0 0 1-.601.44q-.366.174-.894.174m.575-1.444q.439 0 .741-.239a1.5 1.5 0 0 0 .469-.677q.166-.435.166-1.019t-.162-1.014a1.46 1.46 0 0 0-.468-.665 1.2 1.2 0 0 0-.746-.234q-.447 0-.754.243-.308.243-.465.673t-.158.997q0 .571.158 1.01.162.435.465.682.306.243.754.243m7.189 1.338v-8.727h3.494q.963 0 1.607.285.643.285.967.793.324.502.324 1.159 0 .51-.205.899a1.76 1.76 0 0 1-.562.63 2.3 2.3 0 0 1-.81.346v.085q.5.021.934.281.438.26.711.729.273.465.273 1.108 0 .694-.345 1.24-.341.54-1.01.857-.67.315-1.649.315zm1.845-1.509h1.504q.772 0 1.125-.294a.99.99 0 0 0 .354-.792q0-.363-.175-.64a1.2 1.2 0 0 0-.498-.434 1.7 1.7 0 0 0-.763-.158h-1.547zm0-3.566h1.368q.38 0 .673-.133.298-.135.469-.383a1 1 0 0 0 .175-.592.96.96 0 0 0-.337-.763q-.332-.29-.946-.29h-1.402zm7.789 5.198a2.7 2.7 0 0 1-1.117-.217 1.8 1.8 0 0 1-.775-.652q-.281-.434-.281-1.082 0-.547.2-.916.2-.372.545-.597t.784-.341q.444-.115.929-.162.572-.06.921-.11.35-.057.507-.163a.36.36 0 0 0 .158-.315v-.026q0-.404-.256-.626-.251-.222-.716-.221-.49 0-.78.217a1 1 0 0 0-.383.537l-1.679-.137a2.3 2.3 0 0 1 .503-1.03q.375-.44.967-.674.597-.24 1.381-.239.545 0 1.044.128.503.127.89.396.393.27.618.69.226.42.226 1.002v4.415h-1.722v-.908h-.051a1.8 1.8 0 0 1-.422.541 2 2 0 0 1-.635.363 2.6 2.6 0 0 1-.856.127m.52-1.252q.4 0 .707-.158.307-.162.482-.435.174-.272.174-.618v-.694a1 1 0 0 1-.234.102 4 4 0 0 1-.328.081q-.183.034-.367.064l-.332.047a2.3 2.3 0 0 0-.558.149.9.9 0 0 0-.371.277.68.68 0 0 0-.132.426q0 .37.268.567.273.192.691.192m6.258-7.598v8.727h-1.816v-8.727zm3.188 8.85q-.625 0-1.116-.217a1.8 1.8 0 0 1-.776-.652q-.28-.434-.281-1.082 0-.547.2-.916.201-.372.546-.597t.784-.341q.443-.115.929-.162.571-.06.92-.11.35-.057.507-.163a.35.35 0 0 0 .158-.315v-.026q0-.404-.256-.626-.251-.222-.715-.221-.49 0-.78.217a1 1 0 0 0-.384.537l-1.679-.137a2.3 2.3 0 0 1 .503-1.03q.375-.44.967-.674.597-.24 1.381-.239.546 0 1.044.128.503.127.891.396.392.27.618.69t.225 1.002v4.415h-1.721v-.908h-.051a1.9 1.9 0 0 1-.422.541 2 2 0 0 1-.635.363 2.6 2.6 0 0 1-.857.127m.52-1.252q.4 0 .708-.158.307-.162.481-.435.175-.272.175-.618v-.694a1 1 0 0 1-.234.102 4 4 0 0 1-.329.081q-.183.034-.366.064l-.332.047q-.32.046-.559.149a.9.9 0 0 0-.37.277.68.68 0 0 0-.133.426q0 .37.269.567.273.192.69.192m6.258-2.655v3.784h-1.815v-6.546h1.73v1.155h.077q.217-.57.728-.903.512-.337 1.24-.337.682 0 1.189.298.507.299.789.853.28.55.281 1.312v4.168h-1.815v-3.844q.003-.6-.307-.937-.312-.341-.857-.341-.366 0-.647.157-.277.158-.435.46a1.6 1.6 0 0 0-.158.72m8.475 3.912q-1.005 0-1.73-.426a2.9 2.9 0 0 1-1.108-1.194q-.384-.762-.383-1.755 0-1.005.387-1.765a2.9 2.9 0 0 1 1.113-1.188q.72-.43 1.713-.43.857 0 1.5.31.643.312 1.018.874t.413 1.32h-1.713a1.32 1.32 0 0 0-.383-.787q-.307-.303-.806-.303-.422 0-.737.23-.31.225-.486.66-.174.435-.174 1.053 0 .627.17 1.066.175.438.49.669.315.23.737.23a1.2 1.2 0 0 0 .559-.128q.25-.128.413-.371.166-.247.217-.592h1.713q-.042.75-.409 1.32a2.47 2.47 0 0 1-1.001.887q-.64.32-1.513.32m6.937 0q-1.01 0-1.739-.41a2.8 2.8 0 0 1-1.116-1.167q-.393-.759-.393-1.794 0-1.01.393-1.773a2.9 2.9 0 0 1 1.103-1.189q.716-.426 1.679-.426.648 0 1.206.209.563.204.98.618.422.413.657 1.04.234.621.234 1.457v.499h-5.527v-1.125h3.818q0-.393-.17-.695a1.23 1.23 0 0 0-.473-.473 1.35 1.35 0 0 0-.695-.175q-.414 0-.733.192-.315.187-.494.507-.18.316-.183.703v1.07q0 .486.178.84.184.353.516.545t.788.192q.303 0 .554-.086t.431-.255q.179-.17.273-.418l1.679.11q-.128.606-.525 1.058a2.6 2.6 0 0 1-1.014.699q-.618.246-1.427.247m4.057-.128v-6.546h1.76v1.142h.068q.178-.61.601-.92.422-.315.971-.315a2.7 2.7 0 0 1 .571.064v1.61a2.4 2.4 0 0 0-.354-.068q-.225-.03-.413-.03-.4 0-.716.175a1.3 1.3 0 0 0-.494.477 1.4 1.4 0 0 0-.179.708v3.703z"/><path fill="#5E5E5E" d="M998.875 56.445a1.5 1.5 0 0 0 0 3zm44.185 2.56a1.49 1.49 0 0 0 0-2.12l-9.55-9.547a1.5 1.5 0 0 0-2.12 0 1.51 1.51 0 0 0 0 2.122l8.49 8.485-8.49 8.485a1.51 1.51 0 0 0 0 2.121c.59.586 1.54.586 2.12 0zm-44.185.44H1042v-3h-43.125zm-171-2.855a1.5 1.5 0 0 0 0 3zm44.867 2.56a1.5 1.5 0 0 0 0-2.121l-9.546-9.546a1.5 1.5 0 1 0-2.121 2.121l8.485 8.486-8.485 8.485a1.5 1.5 0 1 0 2.121 2.121zm-44.867.44h43.806v-3h-43.806z"/></svg>