<svg xmlns="http://www.w3.org/2000/svg" width="923" height="494" fill="none" viewBox="0 0 923 494"><path fill="#fff" d="M0 0h923v494H0z"/><path fill="#222" d="M64.76 97.273V106h-1.845v-8.727zm3.3 4.943V106h-1.816v-6.546h1.73v1.155h.077q.218-.57.728-.903.512-.337 1.24-.337.682 0 1.19.299.506.298.788.852.28.55.281 1.312V106h-1.815v-3.844q.004-.6-.307-.937-.311-.341-.857-.341-.366 0-.647.158-.278.157-.435.46a1.6 1.6 0 0 0-.158.72m8.06 3.891q-.745 0-1.35-.384-.6-.388-.955-1.138-.35-.754-.35-1.849 0-1.125.363-1.871.363-.75.963-1.12.605-.376 1.326-.376.549 0 .916.188.37.183.596.46.23.273.35.537h.055v-3.281h1.811V106h-1.79v-1.048h-.076a2.3 2.3 0 0 1-.362.541 1.8 1.8 0 0 1-.601.439q-.367.175-.895.175m.576-1.445q.44 0 .742-.239a1.5 1.5 0 0 0 .468-.677q.166-.435.166-1.019t-.162-1.014a1.46 1.46 0 0 0-.468-.665 1.2 1.2 0 0 0-.746-.234q-.448 0-.754.243-.308.243-.465.673a2.9 2.9 0 0 0-.157.997q0 .572.157 1.01.162.435.465.682.306.243.754.243M81.338 106v-6.546h1.815V106zm.912-7.39a1 1 0 0 1-.695-.268.87.87 0 0 1-.286-.652q0-.375.286-.643a.98.98 0 0 1 .695-.273q.405 0 .69.273.29.268.29.643 0 .38-.29.652a.97.97 0 0 1-.69.269m4.224 7.514q-.627 0-1.117-.218a1.8 1.8 0 0 1-.775-.652q-.282-.435-.282-1.082 0-.546.2-.916.201-.37.546-.597.346-.225.784-.341a6 6 0 0 1 .93-.162q.57-.06.92-.111.35-.054.507-.161a.36.36 0 0 0 .157-.316v-.025q0-.405-.255-.627-.252-.222-.716-.221-.49 0-.78.217a1 1 0 0 0-.383.537l-1.68-.137q.129-.596.503-1.031.375-.439.968-.673.596-.24 1.38-.239.546 0 1.044.128.504.128.891.397.392.268.618.69.226.417.226 1.001V106h-1.722v-.908h-.05a1.9 1.9 0 0 1-.423.542 2 2 0 0 1-.635.362 2.6 2.6 0 0 1-.856.128m.52-1.253q.4 0 .707-.158.307-.162.482-.435.174-.272.174-.617v-.695a1 1 0 0 1-.234.102 4 4 0 0 1-.328.081q-.184.034-.367.064l-.332.047q-.32.047-.558.149a.9.9 0 0 0-.371.277.68.68 0 0 0-.132.426q0 .37.268.567.273.192.69.192M56.356 224.094a1.9 1.9 0 0 0-.251-.55 1.7 1.7 0 0 0-.925-.669 2.2 2.2 0 0 0-.652-.089q-.669 0-1.176.332-.503.332-.784.967-.282.631-.282 1.543t.277 1.551.784.976q.508.332 1.198.332.626 0 1.07-.221.447-.227.681-.635.24-.409.239-.968l.375.056h-2.25v-1.389h3.652v1.099q0 1.15-.486 1.977-.486.823-1.338 1.27-.852.443-1.952.443-1.227 0-2.156-.541a3.76 3.76 0 0 1-1.449-1.547q-.515-1.005-.515-2.386 0-1.061.306-1.892a4 4 0 0 1 .87-1.415q.558-.579 1.3-.882a4.2 4.2 0 0 1 1.606-.303q.742 0 1.38.218.64.213 1.134.605.5.392.814.933.315.537.405 1.185zm6.29 6.034q-1.009 0-1.738-.409a2.8 2.8 0 0 1-1.116-1.168q-.392-.759-.392-1.794 0-1.01.392-1.773t1.103-1.189q.716-.426 1.68-.426.647 0 1.205.209.563.204.98.618.422.414.657 1.04.234.622.234 1.457v.499h-5.527v-1.125h3.818a1.4 1.4 0 0 0-.17-.695 1.2 1.2 0 0 0-.473-.473 1.35 1.35 0 0 0-.695-.175q-.413 0-.733.192-.315.188-.494.507-.18.316-.183.703v1.07q0 .486.179.84.183.353.515.545.333.192.789.192.302 0 .554-.085a1.11 1.11 0 0 0 .703-.674l1.679.111q-.128.605-.524 1.057a2.64 2.64 0 0 1-1.015.699q-.617.246-1.427.247m4.19-.128v-6.545h1.76v1.142h.068q.18-.61.6-.921a1.58 1.58 0 0 1 .972-.315 2.6 2.6 0 0 1 .571.064v1.611a3.2 3.2 0 0 0-.767-.098q-.4 0-.716.174a1.3 1.3 0 0 0-.494.477q-.18.308-.179.708V230zm4.91 0v-6.545h1.73v1.154h.077q.204-.575.682-.907.477-.333 1.142-.333.673 0 1.146.337.473.333.63.903h.069q.2-.562.724-.899.53-.34 1.249-.341.915 0 1.487.584.575.58.575 1.645V230h-1.81v-4.044q0-.545-.29-.818a1 1 0 0 0-.725-.273q-.495 0-.771.315-.277.312-.277.823V230h-1.76v-4.082q0-.482-.277-.767-.273-.286-.72-.286-.303 0-.546.153-.238.15-.38.422-.14.269-.14.631V230zm12.812.124q-.627 0-1.117-.218a1.8 1.8 0 0 1-.775-.652q-.282-.435-.282-1.082 0-.546.2-.916.201-.37.546-.597.346-.225.784-.341.443-.115.93-.162.57-.06.92-.111.35-.054.507-.161a.36.36 0 0 0 .157-.316v-.025q0-.405-.255-.627-.252-.221-.716-.221-.49 0-.78.217a1 1 0 0 0-.384.537l-1.678-.137q.127-.596.502-1.031.375-.439.968-.673.596-.239 1.38-.239.546 0 1.044.128.503.127.891.396.391.269.618.691.225.417.226 1.001V230h-1.722v-.908h-.05a1.9 1.9 0 0 1-.423.542 2 2 0 0 1-.635.362 2.6 2.6 0 0 1-.856.128m.52-1.253q.4 0 .707-.158.307-.162.481-.435.175-.272.175-.617v-.695a1 1 0 0 1-.234.102 4 4 0 0 1-.328.081q-.183.034-.367.064l-.332.047q-.32.047-.558.149a.9.9 0 0 0-.371.277.68.68 0 0 0-.132.426q0 .37.268.567.273.192.69.192m6.39-2.655V230h-1.816v-6.545h1.73v1.154h.077a1.83 1.83 0 0 1 .729-.903q.51-.337 1.24-.337.68 0 1.189.299.506.298.788.852.281.55.281 1.312V230h-1.815v-3.844q.004-.6-.307-.937-.311-.341-.856-.341-.367 0-.648.158-.278.157-.435.46a1.6 1.6 0 0 0-.157.72m6.535 6.239a3.6 3.6 0 0 1-.647-.056 2.4 2.4 0 0 1-.495-.132l.41-1.355q.319.098.575.106a.73.73 0 0 0 .447-.119q.192-.127.311-.435l.107-.276-2.348-6.733h1.909l1.355 4.806h.068l1.368-4.806h1.922l-2.544 7.252a3 3 0 0 1-.499.921q-.31.396-.788.609-.477.218-1.15.218M42.823 348.273h1.845v5.667q0 .955-.456 1.671a3.05 3.05 0 0 1-1.265 1.116q-.814.396-1.897.397-1.086 0-1.9-.397a3.05 3.05 0 0 1-1.266-1.116q-.452-.716-.452-1.671v-5.667h1.846v5.51q0 .498.217.886.222.389.622.609.4.222.933.222.538 0 .934-.222.4-.22.617-.609.222-.387.222-.886zm5.145 4.943V357h-1.816v-6.545h1.73v1.154h.077a1.83 1.83 0 0 1 .729-.903q.51-.337 1.24-.337.68 0 1.189.299.507.298.788.852.281.55.281 1.312V357h-1.815v-3.844q.004-.6-.307-.937-.311-.341-.856-.341-.367 0-.648.158-.277.157-.435.46a1.6 1.6 0 0 0-.157.72M53.617 357v-6.545h1.815V357zm.912-7.389a1 1 0 0 1-.695-.269.87.87 0 0 1-.285-.652q0-.375.285-.643a.98.98 0 0 1 .695-.273q.405 0 .69.273.29.268.29.643a.86.86 0 0 1-.29.652.97.97 0 0 1-.69.269m5.84.844v1.363h-3.943v-1.363zm-3.048-1.569h1.816v6.103a.8.8 0 0 0 .076.392.42.42 0 0 0 .213.191.9.9 0 0 0 .324.056q.127 0 .256-.021l.196-.039.285 1.351q-.135.042-.383.098-.247.06-.601.072-.656.026-1.15-.174a1.6 1.6 0 0 1-.763-.622q-.273-.423-.269-1.066zm7.142 8.242q-1.01 0-1.738-.409a2.8 2.8 0 0 1-1.117-1.168q-.392-.759-.392-1.794 0-1.01.392-1.773.393-.762 1.104-1.189.716-.426 1.679-.426.648 0 1.206.209.563.204.98.618.422.413.656 1.04.234.622.234 1.457v.499h-5.526v-1.125h3.818a1.4 1.4 0 0 0-.17-.695 1.2 1.2 0 0 0-.474-.473 1.35 1.35 0 0 0-.694-.175q-.414 0-.733.192-.315.188-.495.507-.178.316-.183.703v1.07q0 .486.18.84.182.353.515.545.332.192.788.192.302 0 .554-.085t.43-.256q.18-.17.273-.418l1.68.111q-.128.605-.525 1.057a2.64 2.64 0 0 1-1.014.699q-.618.246-1.428.247m6.601-.021a2.47 2.47 0 0 1-1.35-.384q-.602-.388-.955-1.138-.35-.754-.35-1.849 0-1.125.362-1.871.363-.75.964-1.121.605-.375 1.325-.375.55 0 .916.188.37.183.597.46.23.273.35.537h.055v-3.281h1.81V357h-1.79v-1.048h-.076a2.3 2.3 0 0 1-.362.541 1.8 1.8 0 0 1-.601.439q-.367.175-.895.175m.575-1.445q.44 0 .742-.239a1.5 1.5 0 0 0 .469-.677q.165-.435.166-1.019 0-.583-.162-1.014a1.46 1.46 0 0 0-.469-.665 1.2 1.2 0 0 0-.746-.234q-.448 0-.754.243-.307.243-.464.673a2.9 2.9 0 0 0-.158.997q0 .572.158 1.01.162.435.464.682.307.243.754.243m12.188-4.879q-.05-.516-.439-.801t-1.053-.286q-.45 0-.762.128a1.07 1.07 0 0 0-.478.345.83.83 0 0 0-.162.503.7.7 0 0 0 .098.409q.111.174.303.303.192.123.443.217.252.09.537.153l.784.188q.57.128 1.049.341.477.212.826.524.35.311.541.733.197.421.2.967-.003.801-.408 1.389-.4.584-1.16.908-.753.32-1.82.32-1.056 0-1.84-.324a2.7 2.7 0 0 1-1.219-.959q-.434-.639-.456-1.581h1.786q.03.44.251.733.225.29.601.439a2.4 2.4 0 0 0 .857.145q.468 0 .814-.137.35-.136.54-.379a.88.88 0 0 0 .193-.558.72.72 0 0 0-.175-.494 1.3 1.3 0 0 0-.503-.341 5 5 0 0 0-.805-.256l-.95-.239q-1.104-.269-1.744-.839-.64-.572-.635-1.539-.003-.793.422-1.384.43-.593 1.18-.925t1.705-.333q.972 0 1.696.333.729.332 1.134.925.405.591.417 1.372zm6.576-.328v1.363h-3.942v-1.363zm-3.047-1.569h1.816v6.103a.8.8 0 0 0 .076.392.42.42 0 0 0 .213.191.9.9 0 0 0 .324.056q.128 0 .256-.021l.196-.039.285 1.351q-.135.042-.383.098a3 3 0 0 1-.6.072q-.657.026-1.151-.174a1.6 1.6 0 0 1-.763-.622q-.273-.423-.269-1.066zm6.096 8.238q-.626 0-1.116-.218a1.8 1.8 0 0 1-.776-.652q-.28-.434-.281-1.082 0-.546.2-.916.201-.37.546-.597.345-.225.784-.341a6 6 0 0 1 .929-.162q.57-.06.92-.111.35-.054.507-.161a.36.36 0 0 0 .158-.316v-.025q0-.405-.256-.627-.25-.221-.716-.221-.489 0-.78.217a1 1 0 0 0-.383.537l-1.679-.137q.128-.596.503-1.031.375-.438.967-.673.597-.239 1.38-.239.547 0 1.045.128.503.127.89.396.393.269.618.691.226.417.226 1.001V357h-1.721v-.908h-.051a1.9 1.9 0 0 1-.422.542 2 2 0 0 1-.635.362 2.6 2.6 0 0 1-.857.128m.52-1.253q.4 0 .708-.158.306-.162.481-.435.175-.272.175-.617v-.695a1 1 0 0 1-.235.102 4 4 0 0 1-.328.081q-.183.034-.366.064l-.333.047q-.32.047-.558.149a.9.9 0 0 0-.37.277.68.68 0 0 0-.133.426q0 .37.269.567.273.192.69.192m8.056-5.416v1.363h-3.942v-1.363zm-3.047-1.569h1.816v6.103q0 .25.076.392a.42.42 0 0 0 .213.191.9.9 0 0 0 .324.056q.129 0 .256-.021l.196-.039.286 1.351a5 5 0 0 1-.384.098q-.247.06-.601.072-.656.026-1.15-.174a1.6 1.6 0 0 1-.763-.622q-.273-.423-.269-1.066zm7.142 8.242q-1.01 0-1.738-.409a2.8 2.8 0 0 1-1.117-1.168q-.392-.759-.392-1.794 0-1.01.392-1.773.393-.762 1.104-1.189.716-.426 1.679-.426.648 0 1.206.209.563.204.98.618.422.413.656 1.04.235.622.235 1.457v.499h-5.527v-1.125h3.818q0-.393-.171-.695a1.2 1.2 0 0 0-.473-.473 1.35 1.35 0 0 0-.694-.175q-.414 0-.733.192-.315.188-.494.507a1.43 1.43 0 0 0-.184.703v1.07q0 .486.179.84.183.353.516.545.332.192.788.192.303 0 .554-.085t.431-.256a1.1 1.1 0 0 0 .272-.418l1.679.111q-.128.605-.524 1.057a2.6 2.6 0 0 1-1.014.699q-.618.246-1.428.247m9.635-4.807-1.662.102a.85.85 0 0 0-.183-.383.96.96 0 0 0-.371-.277 1.3 1.3 0 0 0-.541-.107q-.422 0-.711.179-.29.175-.29.469 0 .234.187.396.188.162.644.26l1.184.239q.955.196 1.424.631.468.434.468 1.142 0 .643-.379 1.129-.375.486-1.031.758-.652.269-1.504.269-1.3 0-2.071-.541a2.1 2.1 0 0 1-.899-1.483l1.785-.094a.92.92 0 0 0 .392.605q.31.205.797.205.477 0 .767-.184.294-.187.298-.481a.5.5 0 0 0-.208-.405q-.205-.162-.631-.247l-1.134-.226q-.959-.191-1.427-.665-.465-.472-.465-1.206 0-.63.341-1.086.345-.456.968-.704.626-.246 1.465-.247 1.24 0 1.952.524.716.525.835 1.428M62.84 472.273h1.825v6.085q0 .843-.38 1.466-.375.622-1.044.959t-1.555.336a3.6 3.6 0 0 1-1.432-.277 2.3 2.3 0 0 1-1.014-.852q-.376-.575-.37-1.445h1.836q.008.346.14.593a.96.96 0 0 0 .371.375q.24.128.563.128.34 0 .575-.145.239-.15.362-.435.124-.286.124-.703zm5.182 8.851q-.626 0-1.116-.218a1.8 1.8 0 0 1-.776-.652q-.28-.434-.28-1.082 0-.546.2-.916t.545-.597q.346-.225.784-.341a6 6 0 0 1 .93-.162q.57-.06.92-.111.349-.054.507-.161a.36.36 0 0 0 .157-.316v-.025q0-.405-.255-.627-.252-.221-.716-.221-.49 0-.78.217a1 1 0 0 0-.384.537l-1.679-.137q.129-.596.503-1.031.375-.438.968-.673.596-.239 1.38-.239.546 0 1.044.128.503.127.89.396.393.269.619.691.226.417.226 1.001V481h-1.722v-.908h-.051a1.9 1.9 0 0 1-.422.542 2 2 0 0 1-.635.362 2.6 2.6 0 0 1-.857.128m.52-1.253q.4 0 .708-.158.306-.162.481-.435.175-.272.175-.617v-.695a1 1 0 0 1-.234.102 4 4 0 0 1-.328.081q-.184.034-.367.064l-.332.047q-.32.047-.558.149a.9.9 0 0 0-.371.277.68.68 0 0 0-.132.426q0 .37.268.567.273.192.69.192m4.575 3.584v-9h1.79v1.099h.08q.12-.264.346-.537.23-.277.597-.46.37-.188.92-.188.716 0 1.321.375.605.37.967 1.121.363.746.362 1.871 0 1.095-.353 1.849-.35.75-.955 1.138-.601.384-1.346.384-.529 0-.9-.175a1.9 1.9 0 0 1-.6-.439 2.2 2.2 0 0 1-.358-.541h-.056v3.503zm1.777-5.728q0 .584.162 1.019t.469.677q.306.239.745.239.444 0 .75-.243.308-.247.465-.682.162-.438.162-1.01 0-.567-.158-.997a1.5 1.5 0 0 0-.464-.673 1.18 1.18 0 0 0-.755-.243 1.2 1.2 0 0 0-.75.234 1.5 1.5 0 0 0-.464.665 2.9 2.9 0 0 0-.162 1.014m7.683 3.397q-.626 0-1.116-.218a1.8 1.8 0 0 1-.776-.652q-.28-.434-.281-1.082 0-.546.2-.916.201-.37.546-.597.345-.225.784-.341a6 6 0 0 1 .929-.162q.57-.06.92-.111.35-.054.507-.161a.36.36 0 0 0 .158-.316v-.025q0-.405-.256-.627-.25-.221-.716-.221-.489 0-.78.217a1 1 0 0 0-.383.537l-1.679-.137q.128-.596.503-1.031.375-.438.967-.673.597-.239 1.38-.239.547 0 1.045.128.503.127.89.396.393.269.618.691.226.417.226 1.001V481h-1.721v-.908h-.051a1.9 1.9 0 0 1-.422.542 2 2 0 0 1-.635.362 2.6 2.6 0 0 1-.857.128m.52-1.253q.4 0 .708-.158.306-.162.481-.435.175-.272.175-.617v-.695a1 1 0 0 1-.235.102 4 4 0 0 1-.328.081q-.183.034-.366.064l-.333.047q-.32.047-.558.149a.9.9 0 0 0-.37.277.68.68 0 0 0-.133.426q0 .37.269.567.273.192.69.192m6.39-2.655V481h-1.815v-6.545h1.73v1.154h.076a1.83 1.83 0 0 1 .73-.903q.51-.337 1.24-.337.681 0 1.188.299.507.298.788.852.282.55.282 1.312V481H91.89v-3.844q.004-.6-.306-.937-.311-.341-.857-.341-.366 0-.648.158-.277.157-.434.46a1.6 1.6 0 0 0-.158.72"/><path fill="#fff" stroke="#0055DC" stroke-width="2" d="M574 280h151v154H574z"/><path fill="#C5EBF5" stroke="#0055DC" stroke-miterlimit="10" stroke-width="1.5" d="M591.378 270.527h-3.162v-20.714h1.756v1.977h1.406z"/><path fill="#fff" d="M590.596 253.768h-2.312v16.669h2.312z"/><path fill="#0055DC" d="M590.086 254.528h.501v-.76h-.501zm-1.151 0h.501v-.76h-.501zm1.151 2.423h.501v-.761h-.501zm-1.151 0h.501v-.761h-.501zm1.151 2.422h.501v-.76h-.501zm-1.151 0h.501v-.76h-.501zm1.151 2.422h.501v-.76h-.501zm-1.151 0h.501v-.76h-.501zm1.151 2.423h.501v-.76h-.501zm-1.151 0h.501v-.76h-.501zm1.151 2.422h.501v-.76h-.501zm-1.151 0h.501v-.76h-.501zm1.151 2.422h.501v-.76h-.501zm-1.151 0h.501v-.76h-.501zm2.997-16.004h-.554v17.469h.554z"/><path fill="#C5EBF5" stroke="#0055DC" stroke-miterlimit="10" stroke-width="1.5" d="M576.25 270.527h3.163v-20.714h-1.757v1.977h-1.406z"/><path fill="#fff" d="M579.353 253.768h-2.312v16.669h2.312z"/><path fill="#0055DC" d="M577.542 253.768h-.501v.76h.501zm1.151 0h-.501v.76h.501zm-1.151 2.422h-.501v.76h.501zm1.151 0h-.501v.76h.501zm-1.151 2.423h-.501v.76h.501zm1.151 0h-.501v.76h.501zm-1.151 2.422h-.501v.76h.501zm1.151 0h-.501v.76h.501zm-1.151 2.423h-.501v.76h.501zm1.151 0h-.501v.76h.501zm-1.151 2.422h-.501v.76h.501zm1.151 0h-.501v.76h.501zm-1.151 2.422h-.501v.76h.501zm1.151 0h-.501v.76h.501zm-2.443-15.244h-.554v17.469h.554z"/><path fill="#fff" stroke="#0055DC" stroke-miterlimit="10" stroke-width="1.5" d="M588.216 246h-8.803v24.527h8.803z"/><path fill="#003682" d="M585.364 267.153h-3.099v3.374h3.099z"/><path fill="#C5EBF5" d="M582.433 249.813h-2.14v3.245h2.14zm2.451 0h-2.14v3.245h2.14zm2.452 0h-2.141v3.245h2.141zm-4.903 4.335h-2.14v3.245h2.14zm2.451 0h-2.14v3.245h2.14zm2.452 0h-2.141v3.245h2.141zm-4.903 4.335h-2.14v3.246h2.14zm2.451 0h-2.14v3.246h2.14zm2.452 0h-2.141v3.246h2.141zm-4.903 4.335h-2.14v3.246h2.14zm2.451 0h-2.14v3.246h2.14zm2.452 0h-2.141v3.246h2.141z"/><path stroke="#0055DC" stroke-miterlimit="10" stroke-width="1.5" d="M573 270.527h21.567"/><path fill="#222" d="M602.017 264h-2.636l4.017-11.636h3.17L610.58 264h-2.637l-2.915-8.977h-.09zm-.165-4.574h6.228v1.921h-6.228zm9.952 4.574v-11.636h4.591q1.324 0 2.256.505a3.43 3.43 0 0 1 1.42 1.392q.495.887.494 2.046 0 1.159-.5 2.045a3.45 3.45 0 0 1-1.448 1.381q-.944.494-2.284.494h-2.927v-1.971h2.529q.71 0 1.17-.245.466-.249.693-.687.233-.444.233-1.017 0-.58-.233-1.012a1.55 1.55 0 0 0-.693-.676q-.465-.244-1.182-.244h-1.659V264zm10.845 0h-2.636l4.017-11.636h3.171L631.212 264h-2.636l-2.915-8.977h-.091zm-.164-4.574h6.227v1.921h-6.227zm19.672-2.988h-2.489a2.4 2.4 0 0 0-.278-.858 2.2 2.2 0 0 0-.54-.648 2.4 2.4 0 0 0-.762-.409 2.9 2.9 0 0 0-.926-.142q-.903 0-1.574.449-.67.443-1.039 1.295-.37.846-.37 2.057 0 1.244.37 2.091.375.846 1.045 1.278t1.551.432q.495 0 .915-.131a2.4 2.4 0 0 0 .756-.38q.329-.256.545-.62a2.4 2.4 0 0 0 .307-.829l2.489.011a4.5 4.5 0 0 1-.483 1.546 4.7 4.7 0 0 1-1.029 1.323 4.8 4.8 0 0 1-1.534.921q-.886.335-2.005.335-1.557 0-2.785-.704-1.221-.705-1.931-2.04-.705-1.335-.705-3.233 0-1.904.716-3.239t1.943-2.034q1.227-.704 2.762-.704 1.011 0 1.875.284a4.8 4.8 0 0 1 1.539.829q.67.54 1.091 1.324.426.784.546 1.796m9.24 7.562h-4.125v-11.636h4.159q1.756 0 3.023.698a4.7 4.7 0 0 1 1.949 1.995q.687 1.3.687 3.113 0 1.819-.687 3.125a4.7 4.7 0 0 1-1.961 2.006q-1.272.699-3.045.699m-1.665-2.108h1.563q1.09 0 1.835-.386a2.5 2.5 0 0 0 1.125-1.211q.381-.823.381-2.125 0-1.289-.381-2.108-.375-.817-1.119-1.204-.745-.387-1.836-.386h-1.568zm19.272-5.454h-2.489a2.4 2.4 0 0 0-.278-.858 2.2 2.2 0 0 0-.54-.648 2.4 2.4 0 0 0-.762-.409 2.9 2.9 0 0 0-.926-.142q-.903 0-1.574.449-.67.443-1.039 1.295-.37.846-.37 2.057 0 1.244.37 2.091.375.846 1.045 1.278t1.551.432q.495 0 .915-.131a2.4 2.4 0 0 0 .756-.38q.329-.256.545-.62a2.4 2.4 0 0 0 .307-.829l2.489.011a4.5 4.5 0 0 1-.483 1.546 4.7 4.7 0 0 1-1.029 1.323 4.8 4.8 0 0 1-1.534.921q-.886.335-2.005.335-1.557 0-2.785-.704-1.221-.705-1.931-2.04-.705-1.335-.705-3.233 0-1.904.716-3.239t1.943-2.034q1.227-.704 2.762-.704 1.011 0 1.875.284a4.8 4.8 0 0 1 1.539.829q.67.54 1.091 1.324.426.784.546 1.796"/><path fill="#0055DC" d="M605.507 292.198H602v18.05h3.507zm91.493 0h-3.507v18.05H697z"/><path fill="#fff" stroke="#0055DC" stroke-miterlimit="10" stroke-width="1.5" d="M610.31 313.464v3.426l78.377-.004v-3.426z"/><path fill="#C5EBF5" stroke="#0055DC" stroke-miterlimit="10" stroke-width="1.5" d="M693.492 289h-87.985v24.462h87.985z"/><path fill="#fff" d="M689.692 310.012v-17.564h-80.384v17.564z"/><path fill="#0055DC" d="M615.832 297.408h-1.947v1.902h1.947zm0 5.725h-1.947v1.903h1.947zm2.667-3.016h-1.948v1.902h1.948zm2.37-2.709h-1.947v1.902h1.947zm0 5.725h-1.947v1.903h1.947zm2.52-3.016h-1.948v1.902h1.948zm2.98-2.709h-1.947v1.902h1.947zm0 5.725h-1.947v1.903h1.947zm2.519-3.016h-1.947v1.902h1.947zm3.065-2.709h-1.948v1.902h1.948zm0 5.725h-1.948v1.903h1.948zm2.371-3.016h-1.948v1.902h1.948zm2.666-2.709h-1.948v1.902h1.948zm0 5.725h-1.948v1.903h1.948zm2.224-3.016h-1.948v1.902h1.948zm2.815-2.709h-1.948v1.902h1.948zm0 5.725h-1.948v1.903h1.948zm2.075-3.016h-1.947v1.902h1.947zm39.202 3.475c1.335 0 2.418-1.057 2.418-2.361s-1.083-2.362-2.418-2.362-2.418 1.058-2.418 2.362 1.083 2.361 2.418 2.361"/><path stroke="#0055DC" stroke-miterlimit="10" stroke-width="1.5" d="M676.354 301.231h-25.606"/><path fill="#0055DC" d="M605.507 328.198H602v18.05h3.507zm91.493 0h-3.507v18.05H697z"/><path fill="#fff" stroke="#0055DC" stroke-miterlimit="10" stroke-width="1.5" d="M610.31 349.464v3.426l78.377-.004v-3.426z"/><path fill="#C5EBF5" stroke="#0055DC" stroke-miterlimit="10" stroke-width="1.5" d="M693.492 325h-87.985v24.462h87.985z"/><path fill="#fff" d="M689.692 346.012v-17.564h-80.384v17.564z"/><path fill="#0055DC" d="M615.832 333.408h-1.947v1.902h1.947zm0 5.725h-1.947v1.903h1.947zm2.667-3.016h-1.948v1.902h1.948zm2.37-2.709h-1.947v1.902h1.947zm0 5.725h-1.947v1.903h1.947zm2.52-3.016h-1.948v1.902h1.948zm2.98-2.709h-1.947v1.902h1.947zm0 5.725h-1.947v1.903h1.947zm2.519-3.016h-1.947v1.902h1.947zm3.065-2.709h-1.948v1.902h1.948zm0 5.725h-1.948v1.903h1.948zm2.371-3.016h-1.948v1.902h1.948zm2.666-2.709h-1.948v1.902h1.948zm0 5.725h-1.948v1.903h1.948zm2.224-3.016h-1.948v1.902h1.948zm2.815-2.709h-1.948v1.902h1.948zm0 5.725h-1.948v1.903h1.948zm2.075-3.016h-1.947v1.902h1.947zm39.202 3.475c1.335 0 2.418-1.057 2.418-2.361s-1.083-2.362-2.418-2.362-2.418 1.058-2.418 2.362 1.083 2.361 2.418 2.361"/><path stroke="#0055DC" stroke-miterlimit="10" stroke-width="1.5" d="M676.354 337.231h-25.606"/><path fill="#0055DC" d="M605.507 364.198H602v18.05h3.507zm91.493 0h-3.507v18.05H697z"/><path fill="#fff" stroke="#0055DC" stroke-miterlimit="10" stroke-width="1.5" d="M610.31 385.464v3.426l78.377-.004v-3.426z"/><path fill="#C5EBF5" stroke="#0055DC" stroke-miterlimit="10" stroke-width="1.5" d="M693.492 361h-87.985v24.462h87.985z"/><path fill="#fff" d="M689.692 382.012v-17.564h-80.384v17.564z"/><path fill="#0055DC" d="M615.832 369.408h-1.947v1.902h1.947zm0 5.725h-1.947v1.903h1.947zm2.667-3.016h-1.948v1.902h1.948zm2.37-2.709h-1.947v1.902h1.947zm0 5.725h-1.947v1.903h1.947zm2.52-3.016h-1.948v1.902h1.948zm2.98-2.709h-1.947v1.902h1.947zm0 5.725h-1.947v1.903h1.947zm2.519-3.016h-1.947v1.902h1.947zm3.065-2.709h-1.948v1.902h1.948zm0 5.725h-1.948v1.903h1.948zm2.371-3.016h-1.948v1.902h1.948zm2.666-2.709h-1.948v1.902h1.948zm0 5.725h-1.948v1.903h1.948zm2.224-3.016h-1.948v1.902h1.948zm2.815-2.709h-1.948v1.902h1.948zm0 5.725h-1.948v1.903h1.948zm2.075-3.016h-1.947v1.902h1.947zm39.202 3.475c1.335 0 2.418-1.057 2.418-2.361s-1.083-2.362-2.418-2.362-2.418 1.058-2.418 2.362 1.083 2.361 2.418 2.361"/><path stroke="#0055DC" stroke-miterlimit="10" stroke-width="1.5" d="M676.354 373.231h-25.606"/><path fill="#0055DC" d="M605.507 400.198H602v18.05h3.507zm91.493 0h-3.507v18.05H697z"/><path fill="#fff" stroke="#0055DC" stroke-miterlimit="10" stroke-width="1.5" d="M610.31 421.464v3.426l78.377-.004v-3.426z"/><path fill="#C5EBF5" stroke="#0055DC" stroke-miterlimit="10" stroke-width="1.5" d="M693.492 397h-87.985v24.462h87.985z"/><path fill="#fff" d="M689.692 418.012v-17.564h-80.384v17.564z"/><path fill="#0055DC" d="M615.832 405.408h-1.947v1.902h1.947zm0 5.725h-1.947v1.903h1.947zm2.667-3.016h-1.948v1.902h1.948zm2.37-2.709h-1.947v1.902h1.947zm0 5.725h-1.947v1.903h1.947zm2.52-3.016h-1.948v1.902h1.948zm2.98-2.709h-1.947v1.902h1.947zm0 5.725h-1.947v1.903h1.947zm2.519-3.016h-1.947v1.902h1.947zm3.065-2.709h-1.948v1.902h1.948zm0 5.725h-1.948v1.903h1.948zm2.371-3.016h-1.948v1.902h1.948zm2.666-2.709h-1.948v1.902h1.948zm0 5.725h-1.948v1.903h1.948zm2.224-3.016h-1.948v1.902h1.948zm2.815-2.709h-1.948v1.902h1.948zm0 5.725h-1.948v1.903h1.948zm2.075-3.016h-1.947v1.902h1.947zm39.202 3.475c1.335 0 2.418-1.057 2.418-2.361s-1.083-2.362-2.418-2.362-2.418 1.058-2.418 2.362 1.083 2.361 2.418 2.361"/><path stroke="#0055DC" stroke-miterlimit="10" stroke-width="1.5" d="M676.354 409.231h-25.606"/><path fill="#fff" stroke="#0055DC" stroke-width="2" d="M574 51h151v154H574z"/><path fill="#C5EBF5" stroke="#0055DC" stroke-miterlimit="10" stroke-width="1.5" d="M591.378 41.527h-3.162V20.813h1.756v1.977h1.406z"/><path fill="#fff" d="M590.596 24.768h-2.312v16.669h2.312z"/><path fill="#0055DC" d="M590.086 25.528h.501v-.76h-.501zm-1.151 0h.501v-.76h-.501zm1.151 2.422h.501v-.76h-.501zm-1.151 0h.501v-.76h-.501zm1.151 2.423h.501v-.76h-.501zm-1.151 0h.501v-.76h-.501zm1.151 2.422h.501v-.76h-.501zm-1.151 0h.501v-.76h-.501zm1.151 2.423h.501v-.76h-.501zm-1.151 0h.501v-.76h-.501zm1.151 2.422h.501v-.76h-.501zm-1.151 0h.501v-.76h-.501zm1.151 2.423h.501v-.76h-.501zm-1.151 0h.501v-.76h-.501zm2.997-16.005h-.554v17.47h.554z"/><path fill="#C5EBF5" stroke="#0055DC" stroke-miterlimit="10" stroke-width="1.5" d="M576.25 41.527h3.163V20.813h-1.757v1.977h-1.406z"/><path fill="#fff" d="M579.353 24.768h-2.312v16.669h2.312z"/><path fill="#0055DC" d="M577.542 24.768h-.501v.76h.501zm1.151 0h-.501v.76h.501zm-1.151 2.422h-.501v.76h.501zm1.151 0h-.501v.76h.501zm-1.151 2.423h-.501v.76h.501zm1.151 0h-.501v.76h.501zm-1.151 2.422h-.501v.76h.501zm1.151 0h-.501v.76h.501zm-1.151 2.423h-.501v.76h.501zm1.151 0h-.501v.76h.501zm-1.151 2.422h-.501v.76h.501zm1.151 0h-.501v.76h.501zm-1.151 2.422h-.501v.76h.501zm1.151 0h-.501v.76h.501zm-2.443-15.244h-.554v17.47h.554z"/><path fill="#fff" stroke="#0055DC" stroke-miterlimit="10" stroke-width="1.5" d="M588.216 17h-8.803v24.528h8.803z"/><path fill="#003682" d="M585.364 38.153h-3.099v3.375h3.099z"/><path fill="#C5EBF5" d="M582.433 20.813h-2.14v3.245h2.14zm2.451 0h-2.14v3.245h2.14zm2.452 0h-2.141v3.245h2.141zm-4.903 4.335h-2.14v3.245h2.14zm2.451 0h-2.14v3.245h2.14zm2.452 0h-2.141v3.245h2.141zm-4.903 4.335h-2.14v3.245h2.14zm2.451 0h-2.14v3.245h2.14zm2.452 0h-2.141v3.245h2.141zm-4.903 4.335h-2.14v3.246h2.14zm2.451 0h-2.14v3.246h2.14zm2.452 0h-2.141v3.246h2.141z"/><path stroke="#0055DC" stroke-miterlimit="10" stroke-width="1.5" d="M573 41.528h21.567"/><path fill="#222" d="M602.017 35h-2.636l4.017-11.636h3.17L610.58 35h-2.637l-2.915-8.977h-.09zm-.165-4.574h6.228v1.92h-6.228zM611.759 35v-8.727h2.306v1.54h.103q.273-.768.909-1.21.636-.444 1.523-.444.897 0 1.528.449.63.443.841 1.204h.091q.267-.75.966-1.198.704-.455 1.664-.455 1.223 0 1.983.779.767.773.767 2.193V35h-2.414v-5.392q0-.728-.387-1.091-.385-.363-.966-.364-.659 0-1.028.42-.369.416-.369 1.098V35h-2.347v-5.443q0-.643-.369-1.023-.365-.38-.96-.38-.404 0-.728.204-.318.199-.505.563a1.8 1.8 0 0 0-.188.84V35zm18.395.17q-1.347 0-2.318-.545a3.73 3.73 0 0 1-1.489-1.557q-.523-1.01-.523-2.392 0-1.346.523-2.363a3.86 3.86 0 0 1 1.471-1.586q.955-.568 2.239-.568.864 0 1.608.279.75.272 1.307.823.563.552.875 1.387.312.829.312 1.943v.665h-7.369v-1.5h5.091a1.86 1.86 0 0 0-.227-.927 1.63 1.63 0 0 0-.631-.63 1.8 1.8 0 0 0-.926-.233 1.86 1.86 0 0 0-.977.256q-.421.25-.659.676-.24.42-.245.937v1.426q0 .648.239 1.12.245.47.687.727.444.255 1.051.256.404 0 .739-.114a1.5 1.5 0 0 0 .574-.34q.238-.228.364-.558l2.238.148a3.04 3.04 0 0 1-.699 1.41q-.522.595-1.352.93-.824.33-1.903.33m5.409-.17v-8.727h2.347v1.523h.09q.24-.813.802-1.228.562-.42 1.295-.42a3.7 3.7 0 0 1 .761.085v2.148a3 3 0 0 0-.471-.091 4 4 0 0 0-.551-.04q-.534 0-.955.233a1.7 1.7 0 0 0-.659.636 1.84 1.84 0 0 0-.239.944V35zm6.371 0v-8.727h2.42V35zm1.216-9.852q-.54 0-.926-.358a1.16 1.16 0 0 1-.381-.87q0-.5.381-.858.386-.363.926-.363t.92.363q.387.36.387.858 0 .506-.387.87-.38.357-.92.358m6.91 10.022q-1.341 0-2.306-.568a3.84 3.84 0 0 1-1.478-1.59q-.511-1.018-.511-2.341 0-1.342.517-2.353a3.84 3.84 0 0 1 1.483-1.585q.96-.574 2.284-.574 1.142 0 2 .415a3.34 3.34 0 0 1 1.358 1.165q.5.75.551 1.761h-2.284q-.096-.654-.511-1.051-.41-.404-1.074-.404-.563 0-.983.307-.416.302-.648.881-.233.58-.233 1.403 0 .835.227 1.42.233.586.654.893.42.307.983.307.414 0 .744-.17.336-.172.551-.495.222-.33.29-.79h2.284q-.057 1-.545 1.762a3.3 3.3 0 0 1-1.336 1.181q-.852.426-2.017.426m7.76-.005q-.835 0-1.488-.29a2.4 2.4 0 0 1-1.034-.87q-.375-.579-.375-1.443 0-.726.267-1.221t.727-.796 1.045-.454a8 8 0 0 1 1.239-.216q.762-.08 1.227-.148.466-.073.677-.216a.48.48 0 0 0 .21-.42v-.034q0-.54-.341-.835-.336-.296-.955-.296-.653 0-1.039.29a1.33 1.33 0 0 0-.512.716l-2.238-.182q.17-.796.67-1.375.5-.586 1.29-.898.795-.318 1.841-.318.727 0 1.392.17.67.17 1.187.529.523.358.824.92.301.558.301 1.336V35h-2.295v-1.21h-.068a2.5 2.5 0 0 1-.563.721 2.6 2.6 0 0 1-.847.483q-.494.17-1.142.17m.694-1.67q.534 0 .943-.21.41-.217.642-.58.233-.364.233-.824v-.927q-.114.075-.313.137a6 6 0 0 1-.437.108q-.244.046-.489.085l-.443.063a3 3 0 0 0-.744.198q-.318.136-.495.37a.9.9 0 0 0-.176.568q0 .494.358.756.364.255.921.255m13.184-4.734-2.216.137a1.14 1.14 0 0 0-.244-.512 1.3 1.3 0 0 0-.494-.369 1.7 1.7 0 0 0-.722-.142q-.562 0-.949.239-.386.232-.386.625 0 .312.25.528t.858.347l1.58.318q1.272.261 1.897.84.625.58.625 1.523 0 .858-.505 1.506-.5.649-1.375 1.011-.87.359-2.006.358-1.733 0-2.761-.721a2.8 2.8 0 0 1-1.199-1.977l2.38-.125q.108.527.523.806.415.273 1.063.273.636 0 1.022-.244.392-.25.398-.642a.67.67 0 0 0-.278-.54q-.273-.216-.841-.33l-1.512-.3q-1.278-.257-1.903-.887-.62-.63-.619-1.608 0-.84.454-1.449.46-.608 1.29-.937.835-.33 1.954-.33 1.654 0 2.603.699.954.699 1.113 1.903M680.943 35h-4.125V23.364h4.159q1.756 0 3.023.698a4.7 4.7 0 0 1 1.949 1.995q.687 1.3.687 3.114 0 1.818-.687 3.124a4.7 4.7 0 0 1-1.961 2.006q-1.272.699-3.045.699m-1.665-2.108h1.563q1.09 0 1.835-.386.75-.393 1.125-1.21.381-.825.381-2.125 0-1.29-.381-2.108-.375-.819-1.119-1.205-.745-.387-1.836-.386h-1.568zm19.272-5.455h-2.489a2.4 2.4 0 0 0-.278-.858 2.2 2.2 0 0 0-.54-.647 2.4 2.4 0 0 0-.762-.41 2.9 2.9 0 0 0-.926-.141q-.903 0-1.574.448-.67.444-1.039 1.296-.37.846-.37 2.057 0 1.245.37 2.09.375.847 1.045 1.28.67.43 1.551.431.495 0 .915-.13.426-.132.756-.381.329-.255.545-.62.222-.363.307-.83l2.489.012a4.64 4.64 0 0 1-1.512 2.87 4.8 4.8 0 0 1-1.534.92q-.886.335-2.005.335-1.557 0-2.785-.704-1.221-.705-1.931-2.04-.705-1.335-.705-3.233 0-1.904.716-3.239t1.943-2.034q1.227-.704 2.762-.704a6 6 0 0 1 1.875.284q.869.283 1.539.83.67.538 1.091 1.323.426.784.546 1.796"/><path fill="#0055DC" d="M605.507 63.198H602v18.05h3.507zm91.493 0h-3.507v18.05H697z"/><path fill="#fff" stroke="#0055DC" stroke-miterlimit="10" stroke-width="1.5" d="M610.31 84.465v3.425l78.377-.004V84.46z"/><path fill="#C5EBF5" stroke="#0055DC" stroke-miterlimit="10" stroke-width="1.5" d="M693.492 60h-87.985v24.462h87.985z"/><path fill="#fff" d="M689.692 81.012V63.448h-80.384v17.564z"/><path fill="#0055DC" d="M615.832 68.408h-1.947v1.902h1.947zm0 5.725h-1.947v1.903h1.947zm2.667-3.016h-1.948v1.902h1.948zm2.37-2.709h-1.947v1.902h1.947zm0 5.725h-1.947v1.903h1.947zm2.52-3.016h-1.948v1.902h1.948zm2.98-2.709h-1.947v1.902h1.947zm0 5.725h-1.947v1.903h1.947zm2.519-3.016h-1.947v1.902h1.947zm3.065-2.709h-1.948v1.902h1.948zm0 5.725h-1.948v1.903h1.948zm2.371-3.016h-1.948v1.902h1.948zm2.666-2.709h-1.948v1.902h1.948zm0 5.725h-1.948v1.903h1.948zm2.224-3.016h-1.948v1.902h1.948zm2.815-2.709h-1.948v1.902h1.948zm0 5.725h-1.948v1.903h1.948zm2.075-3.016h-1.947v1.902h1.947zm39.202 3.475c1.335 0 2.418-1.057 2.418-2.361s-1.083-2.362-2.418-2.362-2.418 1.058-2.418 2.362 1.083 2.361 2.418 2.361"/><path stroke="#0055DC" stroke-miterlimit="10" stroke-width="1.5" d="M676.354 72.23h-25.606"/><path fill="#0055DC" d="M605.507 99.198H602v18.05h3.507zm91.493 0h-3.507v18.05H697z"/><path fill="#fff" stroke="#0055DC" stroke-miterlimit="10" stroke-width="1.5" d="M610.31 120.464v3.426l78.377-.004v-3.426z"/><path fill="#C5EBF5" stroke="#0055DC" stroke-miterlimit="10" stroke-width="1.5" d="M693.492 96h-87.985v24.462h87.985z"/><path fill="#fff" d="M689.692 117.012V99.448h-80.384v17.564z"/><path fill="#0055DC" d="M615.832 104.408h-1.947v1.902h1.947zm0 5.725h-1.947v1.903h1.947zm2.667-3.016h-1.948v1.902h1.948zm2.37-2.709h-1.947v1.902h1.947zm0 5.725h-1.947v1.903h1.947zm2.52-3.016h-1.948v1.902h1.948zm2.98-2.709h-1.947v1.902h1.947zm0 5.725h-1.947v1.903h1.947zm2.519-3.016h-1.947v1.902h1.947zm3.065-2.709h-1.948v1.902h1.948zm0 5.725h-1.948v1.903h1.948zm2.371-3.016h-1.948v1.902h1.948zm2.666-2.709h-1.948v1.902h1.948zm0 5.725h-1.948v1.903h1.948zm2.224-3.016h-1.948v1.902h1.948zm2.815-2.709h-1.948v1.902h1.948zm0 5.725h-1.948v1.903h1.948zm2.075-3.016h-1.947v1.902h1.947zm39.202 3.475c1.335 0 2.418-1.057 2.418-2.361s-1.083-2.362-2.418-2.362-2.418 1.058-2.418 2.362 1.083 2.361 2.418 2.361"/><path stroke="#0055DC" stroke-miterlimit="10" stroke-width="1.5" d="M676.354 108.231h-25.606"/><path fill="#0055DC" d="M605.507 135.198H602v18.05h3.507zm91.493 0h-3.507v18.05H697z"/><path fill="#fff" stroke="#0055DC" stroke-miterlimit="10" stroke-width="1.5" d="M610.31 156.464v3.426l78.377-.004v-3.426z"/><path fill="#C5EBF5" stroke="#0055DC" stroke-miterlimit="10" stroke-width="1.5" d="M693.492 132h-87.985v24.462h87.985z"/><path fill="#fff" d="M689.692 153.012v-17.564h-80.384v17.564z"/><path fill="#0055DC" d="M615.832 140.408h-1.947v1.902h1.947zm0 5.725h-1.947v1.903h1.947zm2.667-3.016h-1.948v1.902h1.948zm2.37-2.709h-1.947v1.902h1.947zm0 5.725h-1.947v1.903h1.947zm2.52-3.016h-1.948v1.902h1.948zm2.98-2.709h-1.947v1.902h1.947zm0 5.725h-1.947v1.903h1.947zm2.519-3.016h-1.947v1.902h1.947zm3.065-2.709h-1.948v1.902h1.948zm0 5.725h-1.948v1.903h1.948zm2.371-3.016h-1.948v1.902h1.948zm2.666-2.709h-1.948v1.902h1.948zm0 5.725h-1.948v1.903h1.948zm2.224-3.016h-1.948v1.902h1.948zm2.815-2.709h-1.948v1.902h1.948zm0 5.725h-1.948v1.903h1.948zm2.075-3.016h-1.947v1.902h1.947zm39.202 3.475c1.335 0 2.418-1.057 2.418-2.361s-1.083-2.362-2.418-2.362-2.418 1.058-2.418 2.362 1.083 2.361 2.418 2.361"/><path stroke="#0055DC" stroke-miterlimit="10" stroke-width="1.5" d="M676.354 144.231h-25.606"/><path fill="#0055DC" d="M605.507 171.198H602v18.05h3.507zm91.493 0h-3.507v18.05H697z"/><path fill="#fff" stroke="#0055DC" stroke-miterlimit="10" stroke-width="1.5" d="M610.31 192.464v3.426l78.377-.004v-3.426z"/><path fill="#C5EBF5" stroke="#0055DC" stroke-miterlimit="10" stroke-width="1.5" d="M693.492 168h-87.985v24.462h87.985z"/><path fill="#fff" d="M689.692 189.012v-17.564h-80.384v17.564z"/><path fill="#0055DC" d="M615.832 176.408h-1.947v1.902h1.947zm0 5.725h-1.947v1.903h1.947zm2.667-3.016h-1.948v1.902h1.948zm2.37-2.709h-1.947v1.902h1.947zm0 5.725h-1.947v1.903h1.947zm2.52-3.016h-1.948v1.902h1.948zm2.98-2.709h-1.947v1.902h1.947zm0 5.725h-1.947v1.903h1.947zm2.519-3.016h-1.947v1.902h1.947zm3.065-2.709h-1.948v1.902h1.948zm0 5.725h-1.948v1.903h1.948zm2.371-3.016h-1.948v1.902h1.948zm2.666-2.709h-1.948v1.902h1.948zm0 5.725h-1.948v1.903h1.948zm2.224-3.016h-1.948v1.902h1.948zm2.815-2.709h-1.948v1.902h1.948zm0 5.725h-1.948v1.903h1.948zm2.075-3.016h-1.947v1.902h1.947zm39.202 3.475c1.335 0 2.418-1.057 2.418-2.361s-1.083-2.362-2.418-2.362-2.418 1.058-2.418 2.362 1.083 2.361 2.418 2.361"/><path stroke="#0055DC" stroke-miterlimit="10" stroke-width="1.5" d="M676.354 180.231h-25.606"/><path fill="#fff" stroke="#0055DC" stroke-width="2" d="M757 160h151v154H757z"/><path fill="#C5EBF5" stroke="#0055DC" stroke-miterlimit="10" stroke-width="1.5" d="M774.378 150.527h-3.162v-20.714h1.756v1.977h1.406z"/><path fill="#fff" d="M773.596 133.768h-2.312v16.669h2.312z"/><path fill="#0055DC" d="M773.086 134.528h.502v-.76h-.502zm-1.151 0h.501v-.76h-.501zm1.151 2.423h.502v-.761h-.502zm-1.151 0h.501v-.761h-.501zm1.151 2.422h.502v-.76h-.502zm-1.151 0h.501v-.76h-.501zm1.151 2.422h.502v-.76h-.502zm-1.151 0h.501v-.76h-.501zm1.151 2.423h.502v-.76h-.502zm-1.151 0h.501v-.76h-.501zm1.151 2.422h.502v-.76h-.502zm-1.151 0h.501v-.76h-.501zm1.151 2.422h.502v-.76h-.502zm-1.151 0h.501v-.76h-.501zm2.997-16.004h-.554v17.469h.554z"/><path fill="#C5EBF5" stroke="#0055DC" stroke-miterlimit="10" stroke-width="1.5" d="M759.25 150.527h3.163v-20.714h-1.757v1.977h-1.406z"/><path fill="#fff" d="M762.353 133.768h-2.312v16.669h2.312z"/><path fill="#0055DC" d="M760.542 133.768h-.501v.76h.501zm1.151 0h-.501v.76h.501zm-1.151 2.422h-.501v.76h.501zm1.151 0h-.501v.76h.501zm-1.151 2.423h-.501v.76h.501zm1.151 0h-.501v.76h.501zm-1.151 2.422h-.501v.76h.501zm1.151 0h-.501v.76h.501zm-1.151 2.423h-.501v.76h.501zm1.151 0h-.501v.76h.501zm-1.151 2.422h-.501v.76h.501zm1.151 0h-.501v.76h.501zm-1.151 2.422h-.501v.76h.501zm1.151 0h-.501v.76h.501zm-2.443-15.244h-.554v17.469h.554z"/><path fill="#fff" stroke="#0055DC" stroke-miterlimit="10" stroke-width="1.5" d="M771.216 126h-8.803v24.527h8.803z"/><path fill="#003682" d="M768.364 147.153h-3.099v3.374h3.099z"/><path fill="#C5EBF5" d="M765.433 129.813h-2.14v3.245h2.14zm2.451 0h-2.14v3.245h2.14zm2.451 0h-2.14v3.245h2.14zm-4.902 4.335h-2.14v3.245h2.14zm2.451 0h-2.14v3.245h2.14zm2.451 0h-2.14v3.245h2.14zm-4.902 4.335h-2.14v3.246h2.14zm2.451 0h-2.14v3.246h2.14zm2.451 0h-2.14v3.246h2.14zm-4.902 4.335h-2.14v3.246h2.14zm2.451 0h-2.14v3.246h2.14zm2.451 0h-2.14v3.246h2.14z"/><path stroke="#0055DC" stroke-miterlimit="10" stroke-width="1.5" d="M756 150.527h21.567"/><path fill="#222" d="M783.011 144v-11.636h7.841v2.028h-5.38v2.773h4.977v2.028h-4.977v2.779h5.403V144zm15.172-3.716v-5.011h2.421V144h-2.324v-1.585h-.091a2.6 2.6 0 0 1-.983 1.233q-.681.465-1.665.466-.875 0-1.539-.398a2.73 2.73 0 0 1-1.04-1.131q-.369-.733-.375-1.755v-5.557h2.42v5.125q.006.772.415 1.221t1.097.449q.437 0 .818-.199.38-.204.613-.602.24-.398.233-.983m4.181 3.716v-8.727h2.347v1.522h.09q.24-.811.802-1.227.562-.42 1.295-.42.182 0 .392.022.21.023.369.063v2.148a3 3 0 0 0-.471-.091 4 4 0 0 0-.551-.04 1.94 1.94 0 0 0-.955.233 1.7 1.7 0 0 0-.659.636 1.84 1.84 0 0 0-.239.943V144zm9.908.17q-1.324 0-2.29-.562a3.85 3.85 0 0 1-1.483-1.58q-.523-1.017-.523-2.358 0-1.352.523-2.363a3.8 3.8 0 0 1 1.483-1.58q.966-.568 2.29-.568 1.323 0 2.284.568a3.8 3.8 0 0 1 1.488 1.58q.523 1.011.523 2.363 0 1.341-.523 2.358a3.83 3.83 0 0 1-1.488 1.58q-.96.562-2.284.562m.011-1.875q.603 0 1.006-.34.403-.347.608-.944.21-.596.21-1.358 0-.76-.21-1.358-.205-.596-.608-.943-.403-.346-1.006-.346-.607 0-1.023.346-.409.347-.619.943a4.2 4.2 0 0 0-.205 1.358q0 .762.205 1.358.21.597.619.944.416.34 1.023.34m5.682 4.978v-12h2.386v1.466h.108q.16-.353.461-.716.306-.37.795-.614.495-.25 1.227-.25.955 0 1.762.5.806.495 1.289 1.494.483.995.483 2.495 0 1.46-.471 2.466-.466 1-1.273 1.517a3.26 3.26 0 0 1-1.795.511q-.705 0-1.199-.233a2.5 2.5 0 0 1-.801-.585 3 3 0 0 1-.478-.722h-.074v4.671zm2.369-7.637q0 .779.216 1.358t.625.904q.409.318.995.318.59 0 1-.324.409-.33.619-.909.216-.585.216-1.347 0-.755-.21-1.329-.211-.574-.62-.898t-1.005-.324q-.591 0-1 .313-.404.312-.62.886t-.216 1.352m11.557 4.534q-1.346 0-2.318-.545a3.73 3.73 0 0 1-1.489-1.557q-.522-1.01-.522-2.392 0-1.346.522-2.364a3.87 3.87 0 0 1 1.472-1.585q.954-.568 2.239-.568.863 0 1.608.279.75.272 1.306.823.563.552.875 1.387.313.829.313 1.943v.665h-7.369v-1.5h5.091q0-.524-.228-.926a1.6 1.6 0 0 0-.63-.631 1.8 1.8 0 0 0-.927-.233q-.55 0-.977.256-.42.25-.659.676-.238.42-.244.937v1.426q0 .648.238 1.12.244.471.688.727.443.255 1.051.256.403 0 .739-.114.334-.113.574-.341.238-.227.363-.557l2.239.148a3.06 3.06 0 0 1-.699 1.409q-.522.596-1.352.932-.824.33-1.904.329m13.107-.17h-4.125v-11.636h4.159q1.756 0 3.023.698a4.7 4.7 0 0 1 1.949 1.995q.687 1.3.687 3.113 0 1.819-.687 3.125a4.7 4.7 0 0 1-1.96 2.006q-1.273.699-3.046.699m-1.665-2.108h1.563q1.09 0 1.835-.386a2.5 2.5 0 0 0 1.125-1.211q.381-.823.381-2.125 0-1.289-.381-2.108-.375-.817-1.119-1.204t-1.835-.386h-1.569zm19.272-5.454h-2.489a2.4 2.4 0 0 0-.278-.858q-.21-.381-.54-.648a2.4 2.4 0 0 0-.761-.409 2.9 2.9 0 0 0-.927-.142q-.903 0-1.573.449-.67.443-1.04 1.295-.369.846-.369 2.057 0 1.244.369 2.091.375.846 1.045 1.278t1.551.432q.495 0 .915-.131a2.4 2.4 0 0 0 .756-.38 2.2 2.2 0 0 0 .545-.62 2.4 2.4 0 0 0 .307-.829l2.489.011a4.5 4.5 0 0 1-.483 1.546 4.7 4.7 0 0 1-1.029 1.323 4.8 4.8 0 0 1-1.534.921q-.886.335-2.005.335-1.557 0-2.784-.704-1.223-.705-1.932-2.04-.705-1.335-.705-3.233 0-1.904.716-3.239t1.943-2.034q1.227-.704 2.762-.704 1.011 0 1.875.284a4.8 4.8 0 0 1 1.539.829q.67.54 1.091 1.324.426.784.546 1.796"/><path fill="#0055DC" d="M788.507 172.198H785v18.05h3.507zm91.493 0h-3.507v18.05H880z"/><path fill="#fff" stroke="#0055DC" stroke-miterlimit="10" stroke-width="1.5" d="M793.31 193.464v3.426l78.377-.004v-3.426z"/><path fill="#C5EBF5" stroke="#0055DC" stroke-miterlimit="10" stroke-width="1.5" d="M876.492 169h-87.985v24.462h87.985z"/><path fill="#fff" d="M872.692 190.012v-17.564h-80.384v17.564z"/><path fill="#0055DC" d="M798.832 177.408h-1.947v1.902h1.947zm0 5.725h-1.947v1.903h1.947zm2.667-3.016h-1.948v1.902h1.948zm2.37-2.709h-1.947v1.902h1.947zm0 5.725h-1.947v1.903h1.947zm2.52-3.016h-1.948v1.902h1.948zm2.98-2.709h-1.947v1.902h1.947zm0 5.725h-1.947v1.903h1.947zm2.519-3.016h-1.947v1.902h1.947zm3.065-2.709h-1.948v1.902h1.948zm0 5.725h-1.948v1.903h1.948zm2.371-3.016h-1.948v1.902h1.948zm2.666-2.709h-1.948v1.902h1.948zm0 5.725h-1.948v1.903h1.948zm2.224-3.016h-1.948v1.902h1.948zm2.815-2.709h-1.948v1.902h1.948zm0 5.725h-1.948v1.903h1.948zm2.075-3.016h-1.947v1.902h1.947zm39.202 3.475c1.335 0 2.418-1.057 2.418-2.361s-1.083-2.362-2.418-2.362-2.418 1.058-2.418 2.362 1.083 2.361 2.418 2.361"/><path stroke="#0055DC" stroke-miterlimit="10" stroke-width="1.5" d="M859.354 181.231h-25.606"/><path fill="#0055DC" d="M788.507 208.198H785v18.05h3.507zm91.493 0h-3.507v18.05H880z"/><path fill="#fff" stroke="#0055DC" stroke-miterlimit="10" stroke-width="1.5" d="M793.31 229.464v3.426l78.377-.004v-3.426z"/><path fill="#C5EBF5" stroke="#0055DC" stroke-miterlimit="10" stroke-width="1.5" d="M876.492 205h-87.985v24.462h87.985z"/><path fill="#fff" d="M872.692 226.012v-17.564h-80.384v17.564z"/><path fill="#0055DC" d="M798.832 213.408h-1.947v1.902h1.947zm0 5.725h-1.947v1.903h1.947zm2.667-3.016h-1.948v1.902h1.948zm2.37-2.709h-1.947v1.902h1.947zm0 5.725h-1.947v1.903h1.947zm2.52-3.016h-1.948v1.902h1.948zm2.98-2.709h-1.947v1.902h1.947zm0 5.725h-1.947v1.903h1.947zm2.519-3.016h-1.947v1.902h1.947zm3.065-2.709h-1.948v1.902h1.948zm0 5.725h-1.948v1.903h1.948zm2.371-3.016h-1.948v1.902h1.948zm2.666-2.709h-1.948v1.902h1.948zm0 5.725h-1.948v1.903h1.948zm2.224-3.016h-1.948v1.902h1.948zm2.815-2.709h-1.948v1.902h1.948zm0 5.725h-1.948v1.903h1.948zm2.075-3.016h-1.947v1.902h1.947zm39.202 3.475c1.335 0 2.418-1.057 2.418-2.361s-1.083-2.362-2.418-2.362-2.418 1.058-2.418 2.362 1.083 2.361 2.418 2.361"/><path stroke="#0055DC" stroke-miterlimit="10" stroke-width="1.5" d="M859.354 217.231h-25.606"/><path fill="#0055DC" d="M788.507 244.198H785v18.05h3.507zm91.493 0h-3.507v18.05H880z"/><path fill="#fff" stroke="#0055DC" stroke-miterlimit="10" stroke-width="1.5" d="M793.31 265.464v3.426l78.377-.004v-3.426z"/><path fill="#C5EBF5" stroke="#0055DC" stroke-miterlimit="10" stroke-width="1.5" d="M876.492 241h-87.985v24.462h87.985z"/><path fill="#fff" d="M872.692 262.012v-17.564h-80.384v17.564z"/><path fill="#0055DC" d="M798.832 249.408h-1.947v1.902h1.947zm0 5.725h-1.947v1.903h1.947zm2.667-3.016h-1.948v1.902h1.948zm2.37-2.709h-1.947v1.902h1.947zm0 5.725h-1.947v1.903h1.947zm2.52-3.016h-1.948v1.902h1.948zm2.98-2.709h-1.947v1.902h1.947zm0 5.725h-1.947v1.903h1.947zm2.519-3.016h-1.947v1.902h1.947zm3.065-2.709h-1.948v1.902h1.948zm0 5.725h-1.948v1.903h1.948zm2.371-3.016h-1.948v1.902h1.948zm2.666-2.709h-1.948v1.902h1.948zm0 5.725h-1.948v1.903h1.948zm2.224-3.016h-1.948v1.902h1.948zm2.815-2.709h-1.948v1.902h1.948zm0 5.725h-1.948v1.903h1.948zm2.075-3.016h-1.947v1.902h1.947zm39.202 3.475c1.335 0 2.418-1.057 2.418-2.361s-1.083-2.362-2.418-2.362-2.418 1.058-2.418 2.362 1.083 2.361 2.418 2.361"/><path stroke="#0055DC" stroke-miterlimit="10" stroke-width="1.5" d="M859.354 253.231h-25.606"/><path fill="#0055DC" d="M788.507 280.198H785v18.05h3.507zm91.493 0h-3.507v18.05H880z"/><path fill="#fff" stroke="#0055DC" stroke-miterlimit="10" stroke-width="1.5" d="M793.31 301.464v3.426l78.377-.004v-3.426z"/><path fill="#C5EBF5" stroke="#0055DC" stroke-miterlimit="10" stroke-width="1.5" d="M876.492 277h-87.985v24.462h87.985z"/><path fill="#fff" d="M872.692 298.012v-17.564h-80.384v17.564z"/><path fill="#0055DC" d="M798.832 285.408h-1.947v1.902h1.947zm0 5.725h-1.947v1.903h1.947zm2.667-3.016h-1.948v1.902h1.948zm2.37-2.709h-1.947v1.902h1.947zm0 5.725h-1.947v1.903h1.947zm2.52-3.016h-1.948v1.902h1.948zm2.98-2.709h-1.947v1.902h1.947zm0 5.725h-1.947v1.903h1.947zm2.519-3.016h-1.947v1.902h1.947zm3.065-2.709h-1.948v1.902h1.948zm0 5.725h-1.948v1.903h1.948zm2.371-3.016h-1.948v1.902h1.948zm2.666-2.709h-1.948v1.902h1.948zm0 5.725h-1.948v1.903h1.948zm2.224-3.016h-1.948v1.902h1.948zm2.815-2.709h-1.948v1.902h1.948zm0 5.725h-1.948v1.903h1.948zm2.075-3.016h-1.947v1.902h1.947zm39.202 3.475c1.335 0 2.418-1.057 2.418-2.361s-1.083-2.362-2.418-2.362-2.418 1.058-2.418 2.362 1.083 2.361 2.418 2.361"/><path stroke="#0055DC" stroke-miterlimit="10" stroke-width="1.5" d="M859.354 289.231h-25.606"/><path fill="#fff" stroke="#0055DC" stroke-width="2" d="M287 221h138v34H287z"/><path fill="#222" d="M302.965 243v-11.636h2.46v9.608h4.989V243zm12.8.17q-1.324 0-2.29-.562a3.85 3.85 0 0 1-1.483-1.58q-.523-1.017-.523-2.358 0-1.352.523-2.363a3.8 3.8 0 0 1 1.483-1.58q.966-.568 2.29-.568t2.284.568q.966.563 1.489 1.58.522 1.011.522 2.363 0 1.341-.522 2.358a3.84 3.84 0 0 1-1.489 1.58q-.96.562-2.284.562m.011-1.875q.603 0 1.006-.34.404-.347.608-.944.21-.596.21-1.358 0-.76-.21-1.358-.204-.596-.608-.943-.403-.346-1.006-.346-.608 0-1.022.346-.41.347-.62.943a4.2 4.2 0 0 0-.204 1.358q0 .762.204 1.358.21.597.62.944.414.34 1.022.34m8.171 1.87q-.835 0-1.489-.29a2.4 2.4 0 0 1-1.034-.869q-.375-.58-.375-1.444 0-.727.267-1.221t.727-.796q.46-.3 1.046-.454a8 8 0 0 1 1.239-.216q.76-.08 1.227-.148.465-.073.676-.216a.47.47 0 0 0 .21-.42v-.034q0-.54-.341-.835-.334-.296-.954-.296-.653 0-1.04.29a1.33 1.33 0 0 0-.511.716l-2.239-.182q.17-.796.67-1.375.501-.585 1.29-.898.796-.318 1.841-.318.728 0 1.392.171.67.17 1.188.528.522.358.824.92.3.558.301 1.336V243h-2.296v-1.21h-.068q-.21.409-.562.721a2.6 2.6 0 0 1-.847.483 3.5 3.5 0 0 1-1.142.171m.693-1.671q.534 0 .943-.21a1.67 1.67 0 0 0 .642-.579q.233-.365.233-.824v-.926q-.113.073-.312.136a6 6 0 0 1-.438.108q-.244.046-.488.085l-.444.063a3 3 0 0 0-.744.198 1.2 1.2 0 0 0-.494.37.9.9 0 0 0-.176.568q0 .493.358.756.363.255.92.255m9.139 1.648q-.993 0-1.801-.511-.801-.518-1.272-1.517-.466-1.006-.466-2.466 0-1.5.483-2.495.483-.999 1.284-1.494a3.3 3.3 0 0 1 1.767-.5q.733 0 1.221.25.495.245.796.614.306.363.466.716h.074v-4.375h2.414V243h-2.386v-1.398h-.102a3.1 3.1 0 0 1-.483.722q-.308.353-.801.585-.489.233-1.194.233m.767-1.926q.586 0 .989-.318.41-.324.625-.904.222-.58.222-1.358t-.216-1.352-.625-.886q-.409-.313-.995-.313-.596 0-1.005.324t-.62.898q-.21.574-.21 1.329 0 .762.21 1.347.216.579.62.909.41.324 1.005.324m9.586 1.784v-11.636h4.659q1.284 0 2.142.38t1.29 1.057q.432.67.432 1.546 0 .681-.273 1.198a2.35 2.35 0 0 1-.75.841 3.1 3.1 0 0 1-1.08.461v.113a2.66 2.66 0 0 1 2.194 1.347q.363.62.363 1.477 0 .927-.46 1.654-.454.721-1.347 1.142-.891.42-2.198.42zm2.46-2.011h2.006q1.028 0 1.5-.392.471-.399.471-1.057 0-.483-.232-.852a1.6 1.6 0 0 0-.665-.58q-.426-.21-1.017-.21h-2.063zm0-4.756h1.824q.505 0 .898-.176.397-.182.625-.512.233-.33.233-.789 0-.631-.449-1.017-.444-.387-1.261-.387h-1.87zm10.385 6.932q-.836 0-1.488-.29a2.4 2.4 0 0 1-1.034-.869q-.375-.58-.375-1.444 0-.727.267-1.221t.727-.796a3.5 3.5 0 0 1 1.045-.454 8 8 0 0 1 1.239-.216q.762-.08 1.227-.148.466-.073.676-.216a.47.47 0 0 0 .211-.42v-.034q0-.54-.341-.835-.336-.296-.955-.296-.653 0-1.04.29a1.33 1.33 0 0 0-.511.716l-2.239-.182a3.04 3.04 0 0 1 .671-1.375q.5-.585 1.29-.898.795-.318 1.841-.318.726 0 1.392.171a3.6 3.6 0 0 1 1.187.528q.523.358.824.92.301.558.301 1.336V243h-2.295v-1.21h-.069q-.21.409-.562.721a2.6 2.6 0 0 1-.847.483q-.494.171-1.142.171m.693-1.671q.535 0 .944-.21.408-.216.642-.579a1.5 1.5 0 0 0 .233-.824v-.926q-.114.073-.313.136a6 6 0 0 1-.437.108q-.245.046-.489.085l-.443.063a3 3 0 0 0-.744.198 1.2 1.2 0 0 0-.495.37.9.9 0 0 0-.176.568q0 .493.358.756.363.255.92.255m8.344-10.13V243h-2.42v-11.636zm4.252 11.801q-.835 0-1.489-.29a2.4 2.4 0 0 1-1.034-.869q-.375-.58-.375-1.444 0-.727.267-1.221t.727-.796q.46-.3 1.046-.454a8 8 0 0 1 1.239-.216q.76-.08 1.227-.148.466-.073.676-.216a.47.47 0 0 0 .21-.42v-.034q0-.54-.341-.835-.334-.296-.954-.296-.653 0-1.04.29a1.33 1.33 0 0 0-.511.716l-2.239-.182q.17-.796.67-1.375.501-.585 1.29-.898.796-.318 1.841-.318.728 0 1.392.171.67.17 1.188.528.522.358.824.92.3.558.301 1.336V243h-2.296v-1.21h-.068q-.21.409-.562.721a2.6 2.6 0 0 1-.847.483 3.5 3.5 0 0 1-1.142.171m.693-1.671q.534 0 .943-.21a1.67 1.67 0 0 0 .642-.579q.233-.365.233-.824v-.926q-.113.073-.312.136a6 6 0 0 1-.438.108q-.244.046-.488.085l-.444.063a3 3 0 0 0-.744.198 1.2 1.2 0 0 0-.494.37.9.9 0 0 0-.176.568q0 .493.358.756.363.255.92.255m8.344-3.539V243h-2.42v-8.727h2.306v1.539h.103q.29-.761.971-1.204.682-.449 1.654-.449.909 0 1.585.398t1.051 1.136q.375.733.375 1.75V243h-2.42v-5.125q.005-.801-.41-1.25-.414-.455-1.142-.455-.488 0-.863.211-.37.21-.58.613-.204.398-.21.961m11.3 5.215q-1.341 0-2.307-.568a3.83 3.83 0 0 1-1.477-1.591q-.512-1.017-.512-2.341 0-1.34.517-2.352a3.85 3.85 0 0 1 1.483-1.585q.961-.574 2.284-.574 1.142 0 2 .415a3.34 3.34 0 0 1 1.358 1.165q.5.75.552 1.761h-2.285q-.096-.654-.511-1.051-.41-.404-1.074-.404-.562 0-.983.307-.414.302-.647.881-.234.58-.233 1.403 0 .836.227 1.421.233.585.653.892t.983.307q.415 0 .745-.171.335-.17.551-.494.221-.33.289-.79h2.285q-.057 1-.546 1.761a3.3 3.3 0 0 1-1.335 1.182q-.852.426-2.017.426m9.249 0q-1.347 0-2.319-.545a3.73 3.73 0 0 1-1.488-1.557q-.523-1.01-.523-2.392 0-1.346.523-2.364a3.86 3.86 0 0 1 1.471-1.585q.955-.568 2.239-.568.864 0 1.608.279.75.272 1.307.823.562.552.875 1.387.312.829.312 1.943v.665h-7.369v-1.5h5.091q0-.524-.227-.926a1.63 1.63 0 0 0-.631-.631 1.8 1.8 0 0 0-.926-.233 1.86 1.86 0 0 0-.978.256q-.42.25-.659.676-.238.42-.244.937v1.426q0 .648.239 1.12.245.472.687.727.444.255 1.051.256.403 0 .739-.114.335-.113.574-.341.238-.227.363-.557l2.239.148a3.06 3.06 0 0 1-.699 1.409q-.522.596-1.352.932-.824.33-1.903.329m5.409-.17v-8.727h2.346v1.522h.091q.238-.811.801-1.227.563-.42 1.296-.42.182 0 .392.022.21.023.369.063v2.148a3 3 0 0 0-.471-.091 4 4 0 0 0-.552-.04q-.534 0-.954.233a1.7 1.7 0 0 0-.659.636 1.84 1.84 0 0 0-.239.943V243z"/><path fill="#C5EBF5" fill-rule="evenodd" stroke="#0055DC" stroke-miterlimit="10" stroke-width="1.5" d="M121.241 400H33.397c-2.328 0-4.41 1.96-4.41 4.411v57.705h96.665v-57.705c0-2.451-2.083-4.411-4.411-4.411Z" clip-rule="evenodd"/><path fill="#0055DC" d="M77.258 404.288a.735.735 0 1 0 0-1.47.735.735 0 0 0 0 1.47"/><path fill="#fff" d="M129.45 466.526H25.066c-5.39 0-9.066-.857-9.066-1.592v-2.451c0-.245.245-.49.49-.49h121.414c.245 0 .49.245.49.49v2.451c.122.735-2.696 1.592-8.944 1.592"/><path stroke="#0055DC" stroke-miterlimit="10" stroke-width="1.5" d="M129.45 466.526H25.066c-5.39 0-9.066-.857-9.066-1.592v-2.451c0-.245.245-.49.49-.49h121.414c.245 0 .49.245.49.49v2.451c.122.735-2.696 1.592-8.944 1.592Z" clip-rule="evenodd"/><path fill="#C5EBF5" d="M138.516 462.483c0-.245-.245-.49-.49-.49H16.612c-.245 0-.49.245-.49.49v2.328h122.516v-2.328z"/><path stroke="#0055DC" stroke-miterlimit="10" stroke-width="1.5" d="M129.45 466.526H25.066c-5.39 0-9.066-.857-9.066-1.592v-2.451c0-.245.245-.49.49-.49h121.414c.245 0 .49.245.49.49v2.451c.122.735-2.696 1.592-8.944 1.592Z"/><path fill="#fff" d="M121.609 406.861H32.907v51.702h88.702z"/><path fill="#0055DC" fill-rule="evenodd" d="M90.612 462.238v.49c0 .368-.735.49-1.347.49H65.374c-.612 0-1.348-.122-1.348-.49v-.49" clip-rule="evenodd"/><path fill="#fff" stroke="#0055DC" stroke-miterlimit="10" stroke-width="1.5" d="M77.302 453.906c12.388 0 22.43-10.043 22.43-22.431s-10.042-22.43-22.43-22.43-22.43 10.042-22.43 22.43 10.042 22.431 22.43 22.431Z"/><path fill="#003682" d="M76.385 423.061a1 1 0 0 1 1.673 0l.318.486a1 1 0 0 0 1.42.265l.469-.336a1 1 0 0 1 1.56.603l.123.575a1 1 0 0 0 1.227.759l.561-.144a1 1 0 0 1 1.237 1.125l-.094.588a1 1 0 0 0 .869 1.15l.582.07a1 1 0 0 1 .746 1.494l-.3.519a1 1 0 0 0 .393 1.384l.525.28a1 1 0 0 1 .154 1.662l-.466.374a1 1 0 0 0-.133 1.432l.39.455a1 1 0 0 1-.457 1.605l-.564.178a1 1 0 0 0-.642 1.288l.2.564a1 1 0 0 1-1.007 1.333l-.582-.039a1 1 0 0 0-1.066.971l-.015.592a1 1 0 0 1-1.423.879l-.524-.244a1 1 0 0 0-1.346.521l-.224.539a1 1 0 0 1-1.645.307l-.4-.417a1 1 0 0 0-1.445 0l-.4.417a1 1 0 0 1-1.645-.307l-.224-.539a1 1 0 0 0-1.346-.521l-.524.244a1 1 0 0 1-1.422-.879l-.016-.592a1 1 0 0 0-1.066-.971l-.582.039a1 1 0 0 1-1.008-1.333l.2-.564a1 1 0 0 0-.641-1.288l-.564-.178a1 1 0 0 1-.457-1.605l.39-.455a1 1 0 0 0-.133-1.432l-.466-.374a1 1 0 0 1 .154-1.662l.525-.28a1 1 0 0 0 .394-1.384l-.3-.519a1 1 0 0 1 .745-1.494l.582-.07a1 1 0 0 0 .869-1.15l-.094-.588a1 1 0 0 1 1.237-1.125l.561.144a1 1 0 0 0 1.227-.759l.123-.575a1 1 0 0 1 1.56-.603l.47.336a1 1 0 0 0 1.419-.265z"/><path fill="#C5EBF5" stroke="#003682" stroke-miterlimit="10" stroke-width="1.5" d="M70.224 443.16a15.8 15.8 0 0 0 3.22-2.343v-5.92l7.799.092v5.568c.356.692 1.7 1.542 3.494 2.549 0 0-3.337 4.977-7.529 4.977-4.191 0-6.984-4.923-6.984-4.923Z"/><path fill="#0055DC" stroke="#003682" stroke-miterlimit="10" stroke-width="1.5" d="M77.303 453.906a22.35 22.35 0 0 0 15.06-5.808 35 35 0 0 0-7.583-4.953s-3.38 4.938-7.57 4.938c-4.192 0-7.007-4.875-7.007-4.875-2.573 1.451-5.729 2.816-8.094 4.763a22.35 22.35 0 0 0 15.194 5.935Z"/><path fill="#C5EBF5" stroke="#003682" stroke-miterlimit="10" stroke-width="1.5" d="M84.74 427.414a1.23 1.23 0 0 1 .615-.787 1.24 1.24 0 0 1 .996-.076c.975.294.426 3.834-2.298 3.708q.423-1.402.686-2.845Zm-14.877 0a1.27 1.27 0 0 0-1.148-.937 1.3 1.3 0 0 0-.518.074c-.85.345-.426 3.834 2.3 3.709a23 23 0 0 1-.634-2.846Z"/><path fill="#C5EBF5" stroke="#003682" stroke-miterlimit="10" stroke-width="1.5" d="M85.092 424.164c0 2.021-.74 6.14-2.04 8.626-.965 1.846-3.452 3.901-5.712 3.901s-4.491-2.055-5.712-3.9c-1.548-2.341-2.04-6.606-2.04-8.627a7.753 7.753 0 0 1 15.504 0Z"/><path fill="#003682" stroke="#003682" stroke-linejoin="round" stroke-width="1.5" d="M84.692 426.71c-.362-3.081-3.35-7.182-6.688-7.182l-.55-2.554 1.033 2.583c0 5.583-8.28 4.091-8.625 7.781l-.132-.132a22.4 22.4 0 0 1-.275-3.25c0-4.282 3.604-7.62 7.885-7.62a7.87 7.87 0 0 1 7.885 7.753 16 16 0 0 1-.436 3.157z"/><path stroke="#0055DC" stroke-miterlimit="10" stroke-width="1.5" d="M77.302 453.906c12.388 0 22.43-10.043 22.43-22.431s-10.042-22.43-22.43-22.43-22.43 10.042-22.43 22.43 10.042 22.431 22.43 22.431Z"/><path fill="#C5EBF5" fill-rule="evenodd" stroke="#0055DC" stroke-miterlimit="10" stroke-width="1.5" d="M123.487 20H31.264c-2.443 0-4.63 2.058-4.63 4.63v60.582h101.484V24.63c0-2.572-2.187-4.63-4.631-4.63Z" clip-rule="evenodd"/><path fill="#0055DC" d="M77.312 24.502a.772.772 0 1 0 0-1.544.772.772 0 0 0 0 1.544"/><path fill="#fff" d="M132.105 89.842H22.518c-5.66 0-9.518-.9-9.518-1.672v-2.572c0-.257.257-.515.514-.515H140.98c.257 0 .515.258.515.515v2.572c.128.772-2.83 1.672-9.39 1.672"/><path stroke="#0055DC" stroke-miterlimit="10" stroke-width="1.5" d="M132.105 89.842H22.518c-5.66 0-9.518-.9-9.518-1.672v-2.572c0-.257.257-.515.514-.515H140.98c.257 0 .515.258.515.515v2.572c.128.772-2.83 1.672-9.39 1.672Z" clip-rule="evenodd"/><path fill="#C5EBF5" d="M141.623 85.598c0-.257-.257-.515-.514-.515H13.643c-.257 0-.515.258-.515.515v2.444h128.624v-2.444z"/><path stroke="#0055DC" stroke-miterlimit="10" stroke-width="1.5" d="M132.105 89.842H22.518c-5.66 0-9.518-.9-9.518-1.672v-2.572c0-.257.257-.515.514-.515H140.98c.257 0 .515.258.515.515v2.572c.128.772-2.83 1.672-9.39 1.672Z"/><path fill="#fff" d="M123.873 27.203H30.75v54.279h93.123z"/><path fill="#0055DC" fill-rule="evenodd" d="M91.331 85.34v.515c0 .386-.771.515-1.414.515H64.835c-.643 0-1.415-.129-1.415-.515v-.514" clip-rule="evenodd"/><path fill="#CBE9F3" d="M90.014 69.783c-3.767-2-7.94-2.538-8.717-4.363-.589-1.383 0-6.012 0-6.012l-9.103-.095s.575 4.694 0 6.107c-.698 1.714-4.49 2.267-7.97 4.215"/><path stroke="#193979" stroke-miterlimit="10" stroke-width="1.5" d="M90.014 69.783c-3.767-2-7.94-2.538-8.717-4.363-.589-1.383 0-6.012 0-6.012l-9.103-.095s.575 4.694 0 6.107c-.698 1.714-4.49 2.267-7.97 4.215"/><path fill="#1B59D3" stroke="#0F387D" stroke-linecap="round" stroke-miterlimit="10" stroke-width="1.5" d="M77.204 74.545a19.55 19.55 0 0 0 12.81-4.761c-3.767-2-7.94-2.539-8.718-4.364a4 4 0 0 1-.229-1.193 23.6 23.6 0 0 1-4.328.464 23.6 23.6 0 0 1-4.325-.464c-.016.406-.09.808-.222 1.193-.697 1.715-4.489 2.268-7.97 4.216a19.55 19.55 0 0 0 12.982 4.909Z"/><path fill="#CBE9F3" d="M69.877 51.288c-.072-.588-.943-1.643-1.971-.966-1.006.66-.04 5.606 2.765 5.422"/><path stroke="#193979" stroke-miterlimit="10" stroke-width="1.5" d="M69.877 51.288c-.072-.588-.943-1.643-1.971-.966-1.006.66-.04 5.606 2.765 5.422"/><path fill="#CBE9F3" d="M83.647 51.288c.072-.588.943-1.643 1.97-.966 1.007.66.04 5.606-2.765 5.422"/><path stroke="#193979" stroke-miterlimit="10" stroke-width="1.5" d="M83.647 51.288c.072-.588.943-1.643 1.97-.966 1.007.66.04 5.606-2.765 5.422"/><path fill="#CBE9F3" stroke="#193979" stroke-miterlimit="10" stroke-width="1.5" d="M83.824 47.847a20.4 20.4 0 0 1-.656 5.747c-.268.948-.584 3.856-.948 4.61-.915 1.898-3.273 4.011-5.417 4.011s-4.258-2.112-5.417-4.011c-.443-.727-.795-3.639-1.07-4.608-.638-2.243-.534-4.297-.534-5.749 0-4.405 2.957-7.337 7.017-7.337s7.025 2.932 7.025 7.337Z"/><path fill="#0F387D" stroke="#0F387D" stroke-linejoin="round" stroke-width="1.5" d="M82.587 46.916s-7.255.683-10.566-1.703c0 0-.966 4.066-2.143 6.075 0 0-1.451-6.17.662-6.987 0 0-.175-3.422 3.599-4.299 0 0-.195.853.438.828.633-.024 5.66-2.922 9.247-.657 3.587 2.264.834 5.575.834 5.575s.097 3.499-.767 4.975l-.314 1.002s-.908-3.166-.99-4.81Z"/><path stroke="#1B59D3" stroke-miterlimit="10" stroke-width="1.5" d="M77.204 74.545c10.842 0 19.631-8.79 19.631-19.632s-8.789-19.63-19.63-19.63c-10.843 0-19.632 8.788-19.632 19.63 0 10.843 8.79 19.632 19.631 19.632Z"/><path stroke="#1B59D3" stroke-miterlimit="10" stroke-width="1.5" d="M77.204 74.545c10.842 0 19.631-8.79 19.631-19.632s-8.789-19.63-19.63-19.63c-10.843 0-19.632 8.788-19.632 19.63 0 10.843 8.79 19.632 19.631 19.632Z"/><path fill="#C5EBF5" fill-rule="evenodd" stroke="#0055DC" stroke-miterlimit="10" stroke-width="1.5" d="M123.487 272H31.264c-2.443 0-4.63 2.058-4.63 4.63v60.582h101.484V276.63c0-2.572-2.187-4.63-4.631-4.63Z" clip-rule="evenodd"/><path fill="#0055DC" d="M77.312 276.502a.772.772 0 1 0-.001-1.544.772.772 0 0 0 0 1.544"/><path fill="#fff" d="M132.105 341.842H22.518c-5.66 0-9.518-.9-9.518-1.672v-2.572c0-.257.257-.515.514-.515H140.98c.257 0 .515.258.515.515v2.572c.128.772-2.83 1.672-9.39 1.672"/><path stroke="#0055DC" stroke-miterlimit="10" stroke-width="1.5" d="M132.105 341.842H22.518c-5.66 0-9.518-.9-9.518-1.672v-2.572c0-.257.257-.515.514-.515H140.98c.257 0 .515.258.515.515v2.572c.128.772-2.83 1.672-9.39 1.672Z" clip-rule="evenodd"/><path fill="#C5EBF5" d="M141.623 337.598c0-.257-.257-.515-.514-.515H13.643c-.257 0-.515.258-.515.515v2.444h128.624v-2.444z"/><path stroke="#0055DC" stroke-miterlimit="10" stroke-width="1.5" d="M132.105 341.842H22.518c-5.66 0-9.518-.9-9.518-1.672v-2.572c0-.257.257-.515.514-.515H140.98c.257 0 .515.258.515.515v2.572c.128.772-2.83 1.672-9.39 1.672Z"/><path fill="#fff" d="M123.873 279.203H30.75v54.279h93.123z"/><path fill="#0055DC" fill-rule="evenodd" d="M91.331 337.341v.514c0 .386-.771.515-1.414.515H64.835c-.643 0-1.415-.129-1.415-.515v-.514" clip-rule="evenodd"/><path fill="#CBE9F3" d="M90.014 321.783c-3.767-2-7.94-2.538-8.717-4.363-.589-1.383 0-6.012 0-6.012l-9.103-.095s.575 4.693 0 6.107c-.698 1.714-4.49 2.267-7.97 4.215"/><path stroke="#193979" stroke-miterlimit="10" stroke-width="1.5" d="M90.014 321.783c-3.767-2-7.94-2.538-8.717-4.363-.589-1.383 0-6.012 0-6.012l-9.103-.095s.575 4.693 0 6.107c-.698 1.714-4.49 2.267-7.97 4.215"/><path fill="#1B59D3" stroke="#0F387D" stroke-linecap="round" stroke-miterlimit="10" stroke-width="1.5" d="M77.204 326.545a19.55 19.55 0 0 0 12.81-4.761c-3.767-2-7.94-2.539-8.718-4.364a4 4 0 0 1-.229-1.193 23.7 23.7 0 0 1-4.328.464 23.5 23.5 0 0 1-4.325-.464c-.016.406-.09.808-.222 1.193-.697 1.715-4.489 2.268-7.97 4.216a19.55 19.55 0 0 0 12.982 4.909Z"/><path fill="#CBE9F3" d="M69.877 303.288c-.072-.588-.943-1.643-1.971-.966-1.006.661-.04 5.606 2.765 5.422"/><path stroke="#193979" stroke-miterlimit="10" stroke-width="1.5" d="M69.877 303.288c-.072-.588-.943-1.643-1.971-.966-1.006.661-.04 5.606 2.765 5.422"/><path fill="#CBE9F3" d="M83.647 303.288c.072-.588.943-1.643 1.97-.966 1.007.661.04 5.606-2.765 5.422"/><path stroke="#193979" stroke-miterlimit="10" stroke-width="1.5" d="M83.647 303.288c.072-.588.943-1.643 1.97-.966 1.007.661.04 5.606-2.765 5.422"/><path fill="#CBE9F3" stroke="#193979" stroke-miterlimit="10" stroke-width="1.5" d="M83.824 299.847a20.4 20.4 0 0 1-.656 5.747c-.268.948-.584 3.856-.948 4.609-.915 1.899-3.273 4.012-5.417 4.012s-4.258-2.112-5.417-4.011c-.443-.727-.795-3.639-1.07-4.608-.638-2.243-.534-4.297-.534-5.749 0-4.405 2.957-7.337 7.017-7.337s7.025 2.932 7.025 7.337Z"/><path fill="#0F387D" stroke="#0F387D" stroke-linejoin="round" stroke-width="1.5" d="M82.587 298.916s-7.255.683-10.566-1.703c0 0-.966 4.066-2.143 6.075 0 0-1.451-6.169.662-6.987 0 0-.175-3.422 3.599-4.299 0 0-.195.853.438.828.633-.024 5.66-2.922 9.247-.657 3.587 2.264.834 5.575.834 5.575s.097 3.498-.767 4.975l-.314 1.002s-.908-3.166-.99-4.809Z"/><path stroke="#1B59D3" stroke-miterlimit="10" stroke-width="1.5" d="M77.204 326.545c10.842 0 19.631-8.789 19.631-19.632 0-10.842-8.789-19.631-19.63-19.631-10.843 0-19.632 8.789-19.632 19.631s8.79 19.632 19.631 19.632Z"/><path stroke="#1B59D3" stroke-miterlimit="10" stroke-width="1.5" d="M77.204 326.545c10.842 0 19.631-8.789 19.631-19.632 0-10.842-8.789-19.631-19.63-19.631-10.843 0-19.632 8.789-19.632 19.631s8.79 19.632 19.631 19.632Z"/><path fill="#C5EBF5" fill-rule="evenodd" stroke="#0055DC" stroke-miterlimit="10" stroke-width="1.5" d="M121.241 148H33.397c-2.328 0-4.41 1.96-4.41 4.411v57.705h96.665v-57.705c0-2.451-2.083-4.411-4.411-4.411Z" clip-rule="evenodd"/><path fill="#0055DC" d="M77.258 152.288a.735.735 0 1 0 0-1.47.735.735 0 0 0 0 1.47"/><path fill="#fff" d="M129.45 214.526H25.066c-5.39 0-9.066-.857-9.066-1.592v-2.451c0-.245.245-.49.49-.49h121.414c.245 0 .49.245.49.49v2.451c.122.735-2.696 1.592-8.944 1.592"/><path stroke="#0055DC" stroke-miterlimit="10" stroke-width="1.5" d="M129.45 214.526H25.066c-5.39 0-9.066-.857-9.066-1.592v-2.451c0-.245.245-.49.49-.49h121.414c.245 0 .49.245.49.49v2.451c.122.735-2.696 1.592-8.944 1.592Z" clip-rule="evenodd"/><path fill="#C5EBF5" d="M138.516 210.483c0-.245-.245-.49-.49-.49H16.612c-.245 0-.49.245-.49.49v2.328h122.516v-2.328z"/><path stroke="#0055DC" stroke-miterlimit="10" stroke-width="1.5" d="M129.45 214.526H25.066c-5.39 0-9.066-.857-9.066-1.592v-2.451c0-.245.245-.49.49-.49h121.414c.245 0 .49.245.49.49v2.451c.122.735-2.696 1.592-8.944 1.592Z"/><path fill="#fff" d="M121.609 154.861H32.907v51.702h88.702z"/><path fill="#0055DC" fill-rule="evenodd" d="M90.612 210.238v.49c0 .368-.735.49-1.347.49H65.374c-.612 0-1.348-.122-1.348-.49v-.49" clip-rule="evenodd"/><path fill="#fff" stroke="#0055DC" stroke-miterlimit="10" stroke-width="1.5" d="M77.302 201.906c12.388 0 22.43-10.043 22.43-22.431s-10.042-22.43-22.43-22.43-22.43 10.042-22.43 22.43 10.042 22.431 22.43 22.431Z"/><path fill="#003682" d="M76.385 171.061a1 1 0 0 1 1.673 0l.318.486a1 1 0 0 0 1.42.265l.469-.337a1 1 0 0 1 1.56.604l.123.575a1 1 0 0 0 1.227.759l.561-.144a1 1 0 0 1 1.237 1.125l-.094.588a1 1 0 0 0 .869 1.149l.582.071a1 1 0 0 1 .746 1.494l-.3.519a1 1 0 0 0 .393 1.384l.525.28a1 1 0 0 1 .154 1.662l-.466.374a1 1 0 0 0-.133 1.432l.39.454a1 1 0 0 1-.457 1.606l-.564.178a1 1 0 0 0-.642 1.288l.2.564a1 1 0 0 1-1.007 1.333l-.582-.039a1 1 0 0 0-1.066.971l-.015.592a1 1 0 0 1-1.423.879l-.524-.244a1 1 0 0 0-1.346.521l-.224.539a1 1 0 0 1-1.645.307l-.4-.418a1 1 0 0 0-1.445 0l-.4.418a1 1 0 0 1-1.645-.307l-.224-.539a1 1 0 0 0-1.346-.521l-.524.244a1 1 0 0 1-1.422-.879l-.016-.592a1 1 0 0 0-1.066-.971l-.582.039a1 1 0 0 1-1.008-1.333l.2-.564a1 1 0 0 0-.641-1.288l-.564-.178a1 1 0 0 1-.457-1.605l.39-.455a1 1 0 0 0-.133-1.432l-.466-.374a1 1 0 0 1 .154-1.662l.525-.28a1 1 0 0 0 .394-1.384l-.3-.519a1 1 0 0 1 .745-1.494l.582-.071a1 1 0 0 0 .869-1.149l-.094-.588a1 1 0 0 1 1.237-1.125l.561.144a1 1 0 0 0 1.227-.759l.123-.575a1 1 0 0 1 1.56-.604l.47.337a1 1 0 0 0 1.419-.265z"/><path fill="#C5EBF5" stroke="#003682" stroke-miterlimit="10" stroke-width="1.5" d="M70.224 191.16a15.8 15.8 0 0 0 3.22-2.343v-5.92l7.799.092v5.568c.356.692 1.7 1.542 3.494 2.549 0 0-3.337 4.977-7.529 4.977-4.191 0-6.984-4.923-6.984-4.923Z"/><path fill="#0055DC" stroke="#003682" stroke-miterlimit="10" stroke-width="1.5" d="M77.303 201.906a22.35 22.35 0 0 0 15.06-5.808 35 35 0 0 0-7.583-4.953s-3.38 4.938-7.57 4.938c-4.192 0-7.007-4.875-7.007-4.875-2.573 1.451-5.729 2.816-8.094 4.763a22.35 22.35 0 0 0 15.194 5.935Z"/><path fill="#C5EBF5" stroke="#003682" stroke-miterlimit="10" stroke-width="1.5" d="M84.74 175.414a1.23 1.23 0 0 1 .615-.787 1.24 1.24 0 0 1 .996-.076c.975.294.426 3.834-2.298 3.708q.423-1.402.686-2.845Zm-14.877 0a1.27 1.27 0 0 0-1.148-.937 1.3 1.3 0 0 0-.518.074c-.85.345-.426 3.834 2.3 3.709a23 23 0 0 1-.634-2.846Z"/><path fill="#C5EBF5" stroke="#003682" stroke-miterlimit="10" stroke-width="1.5" d="M85.092 172.164c0 2.021-.74 6.14-2.04 8.626-.965 1.846-3.452 3.901-5.712 3.901s-4.491-2.055-5.712-3.9c-1.548-2.341-2.04-6.606-2.04-8.627a7.753 7.753 0 0 1 15.504 0Z"/><path fill="#003682" stroke="#003682" stroke-linejoin="round" stroke-width="1.5" d="M84.692 174.709c-.362-3.08-3.35-7.181-6.688-7.181l-.55-2.554 1.033 2.582c0 5.584-8.28 4.092-8.625 7.782l-.132-.132a22.4 22.4 0 0 1-.275-3.25c0-4.282 3.604-7.62 7.885-7.62a7.87 7.87 0 0 1 7.885 7.753 16 16 0 0 1-.436 3.157z"/><path stroke="#0055DC" stroke-miterlimit="10" stroke-width="1.5" d="M77.302 201.906c12.388 0 22.43-10.043 22.43-22.431s-10.042-22.43-22.43-22.43-22.43 10.042-22.43 22.43 10.042 22.431 22.43 22.431Z"/><path fill="#5E5E5E" d="M145.752 53.421a1.5 1.5 0 1 0 0 3zm138.104 185.14a1.5 1.5 0 0 0 0-2.122l-9.546-9.546a1.501 1.501 0 0 0-2.121 2.122l8.485 8.485-8.485 8.485a1.5 1.5 0 0 0 2.121 2.122zM145.752 56.421h44.522v-3h-44.522zm67.022 22.5V213.5h3V78.921zM238.274 239h44.521v-3h-44.521zm-25.5-25.5c0 14.083 11.416 25.5 25.5 25.5v-3c-12.427 0-22.5-10.074-22.5-22.5zm-22.5-157.079c12.426 0 22.5 10.074 22.5 22.5h3c0-14.083-11.417-25.5-25.5-25.5z"/><path fill="#5E5E5E" d="M142.638 179.763a1.5 1.5 0 0 0 0 3zm141.218 58.798a1.5 1.5 0 0 0 0-2.122l-9.546-9.546a1.501 1.501 0 0 0-2.121 2.122l8.485 8.485-8.485 8.485a1.5 1.5 0 0 0 2.121 2.122zm-141.218-55.798h47.636v-3h-47.636zm70.136 22.5v8.237h3v-8.237zm25.5 33.737h44.521v-3h-44.521zm-25.5-25.5c0 14.083 11.416 25.5 25.5 25.5v-3c-12.427 0-22.5-10.074-22.5-22.5zm-22.5-30.737c12.426 0 22.5 10.074 22.5 22.5h3c0-14.083-11.417-25.5-25.5-25.5zm379.787-53.702a1.5 1.5 0 0 0 0-2.122l-9.546-9.546a1.5 1.5 0 0 0-2.122 0 1.5 1.5 0 0 0 0 2.122l8.486 8.485-8.486 8.485a1.5 1.5 0 0 0 0 2.122 1.5 1.5 0 0 0 2.122 0zM569 126.5h-22v3h22zM521.5 152v61.5h3V152zM499 236h-69v3h69zm22.5-22.5c0 12.426-10.074 22.5-22.5 22.5v3c14.083 0 25.5-11.417 25.5-25.5zm25.5-87c-14.083 0-25.5 11.417-25.5 25.5h3c0-12.426 10.074-22.5 22.5-22.5z"/><path fill="#5E5E5E" d="M753.061 238.561a1.5 1.5 0 0 0 0-2.122l-9.546-9.546a1.5 1.5 0 0 0-2.122 0 1.5 1.5 0 0 0 0 2.122l8.486 8.485-8.486 8.485a1.5 1.5 0 0 0 0 2.122 1.5 1.5 0 0 0 2.122 0zM752 236H430v3h322z"/><path fill="#5E5E5E" d="M570.061 358.061a1.5 1.5 0 0 0 0-2.122l-9.546-9.546a1.5 1.5 0 0 0-2.122 0 1.5 1.5 0 0 0 0 2.122l8.486 8.485-8.486 8.485a1.5 1.5 0 0 0 0 2.122 1.5 1.5 0 0 0 2.122 0zM569 355.5h-21v3h21zM525.5 333v-71.5h-3V333zM500 236h-70v3h70zm25.5 25.5c0-14.083-11.417-25.5-25.5-25.5v3c12.426 0 22.5 10.074 22.5 22.5zm22.5 94c-12.426 0-22.5-10.074-22.5-22.5h-3c0 14.083 11.417 25.5 25.5 25.5zm-402.248-50.079a1.5 1.5 0 1 0 0 3zm138.104-66.86a1.5 1.5 0 0 0 0-2.122l-9.546-9.546a1.501 1.501 0 0 0-2.121 2.122l8.485 8.485-8.485 8.485a1.5 1.5 0 0 0 2.121 2.122zm-138.104 69.86h44.522v-3h-44.522zm70.022-25.5V261.5h-3v21.421zm22.5-43.921h44.521v-3h-44.521zm-22.5 22.5c0-12.426 10.073-22.5 22.5-22.5v-3c-14.084 0-25.5 11.417-25.5 25.5zm-25.5 46.921c14.083 0 25.5-11.416 25.5-25.5h-3c0 12.427-10.074 22.5-22.5 22.5z"/><path fill="#5E5E5E" d="M142.638 431.763a1.5 1.5 0 0 0 0 3zm141.218-193.202a1.5 1.5 0 0 0 0-2.122l-9.546-9.546a1.501 1.501 0 0 0-2.121 2.122l8.485 8.485-8.485 8.485a1.5 1.5 0 0 0 2.121 2.122zM142.638 434.763h47.636v-3h-47.636zm73.136-25.5V261.5h-3v147.763zM238.274 239h44.521v-3h-44.521zm-22.5 22.5c0-12.426 10.073-22.5 22.5-22.5v-3c-14.084 0-25.5 11.417-25.5 25.5zm-25.5 173.263c14.083 0 25.5-11.417 25.5-25.5h-3c0 12.427-10.074 22.5-22.5 22.5z"/></svg>