<svg xmlns="http://www.w3.org/2000/svg" width="1177" height="427" fill="none" viewBox="0 0 1177 427"><path fill="#fff" d="M0 0h1177v427H0z"/><path fill="#fff" stroke="#F6821F" stroke-width="2" d="M202 36h745v372H202z"/><path fill="#fff" d="M245 22h346v28H245z"/><path fill="#222" d="M285.878 29.656h-3.733a3.6 3.6 0 0 0-.418-1.287q-.315-.57-.809-.971a3.6 3.6 0 0 0-1.142-.614 4.4 4.4 0 0 0-1.39-.213q-1.355 0-2.36.673-1.007.665-1.56 1.944-.554 1.27-.554 3.085 0 1.866.554 3.136.563 1.27 1.568 1.918t2.327.647a4.6 4.6 0 0 0 1.372-.196q.639-.195 1.134-.57a3.3 3.3 0 0 0 .818-.93q.332-.545.46-1.244l3.733.017a6.8 6.8 0 0 1-.725 2.318q-.57 1.108-1.542 1.986-.963.87-2.301 1.38-1.33.504-3.009.504-2.335 0-4.176-1.057-1.832-1.057-2.898-3.06-1.056-2.003-1.056-4.85 0-2.854 1.073-4.857 1.074-2.003 2.915-3.051 1.84-1.057 4.142-1.057 1.517 0 2.813.426a7.1 7.1 0 0 1 2.309 1.244 6.4 6.4 0 0 1 1.637 1.986q.64 1.176.818 2.693m5.753-6.11V41H288V23.546zm8.367 17.71q-1.986 0-3.435-.844a5.77 5.77 0 0 1-2.224-2.37q-.784-1.524-.784-3.536 0-2.029.784-3.546a5.7 5.7 0 0 1 2.224-2.37q1.449-.85 3.435-.851 1.986 0 3.426.852a5.7 5.7 0 0 1 2.233 2.37q.784 1.515.784 3.545 0 2.01-.784 3.537a5.76 5.76 0 0 1-2.233 2.369q-1.44.844-3.426.844m.017-2.813q.903 0 1.508-.511.606-.52.912-1.415.316-.896.316-2.037t-.316-2.037q-.306-.894-.912-1.415-.605-.52-1.508-.52-.912 0-1.534.52-.614.52-.929 1.415-.307.896-.307 2.037t.307 2.037q.315.895.929 1.415.622.51 1.534.511m16.726-3.017V27.91h3.63V41h-3.485v-2.378h-.137a3.87 3.87 0 0 1-1.474 1.85q-1.023.698-2.497.698-1.312 0-2.31-.596-.998-.597-1.56-1.696-.553-1.1-.562-2.634V27.91h3.631v7.688q.008 1.158.622 1.832.613.673 1.645.673.656 0 1.227-.298a2.34 2.34 0 0 0 .92-.903q.358-.597.35-1.475m10.902 5.787a4.94 4.94 0 0 1-2.701-.767q-1.202-.776-1.909-2.276-.699-1.508-.699-3.698 0-2.25.724-3.742.725-1.5 1.926-2.241 1.21-.75 2.651-.75 1.1 0 1.832.375.742.365 1.193.92.46.546.699 1.074h.111v-6.562h3.622V41h-3.579v-2.097h-.154a4.7 4.7 0 0 1-.724 1.083q-.46.528-1.202.878-.732.35-1.79.35m1.151-2.89q.877 0 1.483-.476.613-.486.937-1.355.333-.87.333-2.037 0-1.168-.324-2.029-.324-.86-.938-1.33-.613-.468-1.491-.468-.895 0-1.509.486-.613.485-.929 1.346-.315.861-.315 1.995 0 1.14.315 2.02.324.868.929 1.363.614.486 1.509.486m15.867-10.414v2.727h-8.079V27.91zM338.431 41V26.963q0-1.424.554-2.36a3.56 3.56 0 0 1 1.534-1.407q.972-.469 2.207-.469.836 0 1.526.128.7.128 1.04.23l-.648 2.727a5 5 0 0 0-.528-.127 3.3 3.3 0 0 0-.631-.06q-.8 0-1.117.375-.315.366-.315 1.031V41zm11.623-17.454V41h-3.631V23.546zm6.185 17.701q-1.252 0-2.233-.434a3.6 3.6 0 0 1-1.551-1.305q-.562-.868-.562-2.164 0-1.09.4-1.833a3.24 3.24 0 0 1 1.091-1.193q.69-.451 1.568-.682.886-.23 1.858-.324 1.142-.119 1.841-.221.699-.111 1.014-.324t.316-.63v-.052q0-.81-.512-1.253-.502-.443-1.432-.443-.98 0-1.559.435a2 2 0 0 0-.767 1.074l-3.358-.273a4.56 4.56 0 0 1 1.005-2.062q.75-.879 1.935-1.347 1.193-.477 2.762-.477a8.4 8.4 0 0 1 2.088.255q1.005.256 1.781.793.784.537 1.236 1.38.451.836.451 2.003V41h-3.443v-1.815h-.102q-.316.614-.844 1.082a3.9 3.9 0 0 1-1.27.724q-.741.255-1.713.256m1.04-2.505q.801 0 1.415-.316.613-.324.963-.87a2.24 2.24 0 0 0 .349-1.235v-1.39q-.17.112-.469.205-.289.086-.656.162a32 32 0 0 1-.733.128l-.665.094a4.5 4.5 0 0 0-1.116.298 1.8 1.8 0 0 0-.741.554q-.265.34-.265.852 0 .742.537 1.134.546.384 1.381.384M365.972 41V27.91h3.52v2.283h.136q.359-1.219 1.202-1.84.844-.631 1.943-.631.273 0 .588.034.316.034.554.093v3.222a5 5 0 0 0-.707-.136 6 6 0 0 0-.827-.06q-.8 0-1.432.35a2.6 2.6 0 0 0-.988.954q-.358.614-.358 1.415V41zm14.721.256q-2.02 0-3.477-.819a5.6 5.6 0 0 1-2.233-2.335q-.784-1.516-.784-3.588 0-2.02.784-3.545a5.8 5.8 0 0 1 2.207-2.378q1.432-.852 3.358-.852 1.296 0 2.412.417 1.125.41 1.96 1.236.844.826 1.313 2.08.468 1.244.468 2.914v.997h-11.054v-2.25h7.637q0-.783-.341-1.389a2.44 2.44 0 0 0-.946-.946q-.597-.35-1.389-.35-.827 0-1.466.384-.631.375-.989 1.015-.358.63-.366 1.406v2.139q0 .971.358 1.679.366.708 1.031 1.09.665.385 1.577.384a3.4 3.4 0 0 0 1.108-.17q.503-.17.86-.511a2.2 2.2 0 0 0 .546-.836l3.358.222a4.6 4.6 0 0 1-1.049 2.114q-.783.894-2.028 1.397-1.236.495-2.855.495m24.662-12.068a3.8 3.8 0 0 0-.502-1.1 3.1 3.1 0 0 0-.793-.818 3.4 3.4 0 0 0-1.057-.52 4.5 4.5 0 0 0-1.304-.179q-1.338 0-2.352.665-1.005.665-1.568 1.935-.563 1.26-.563 3.085t.554 3.102q.555 1.278 1.568 1.952 1.015.664 2.395.664 1.254 0 2.14-.443a3.2 3.2 0 0 0 1.363-1.27q.477-.818.477-1.934l.75.11h-4.5V31.66h7.304v2.199q0 2.3-.971 3.955a6.63 6.63 0 0 1-2.676 2.54q-1.705.886-3.904.886-2.455 0-4.312-1.083-1.858-1.09-2.898-3.093-1.03-2.011-1.031-4.773 0-2.122.613-3.784.623-1.67 1.739-2.83a7.5 7.5 0 0 1 2.6-1.764q1.482-.605 3.213-.605 1.482 0 2.761.434a7.4 7.4 0 0 1 2.267 1.21 6.6 6.6 0 0 1 1.628 1.867q.63 1.074.809 2.37zm9.791-5.642V41h-3.631V23.546zm8.367 17.71q-1.986 0-3.435-.844a5.8 5.8 0 0 1-2.224-2.37q-.784-1.524-.784-3.536 0-2.029.784-3.546a5.7 5.7 0 0 1 2.224-2.37q1.449-.85 3.435-.851 1.986 0 3.426.852a5.7 5.7 0 0 1 2.233 2.37q.784 1.515.784 3.545 0 2.01-.784 3.537a5.76 5.76 0 0 1-2.233 2.369q-1.44.844-3.426.844m.017-2.813q.903 0 1.509-.511.604-.52.912-1.415.315-.896.315-2.037t-.315-2.037q-.308-.894-.912-1.415-.606-.52-1.509-.52-.912 0-1.534.52-.614.52-.929 1.415-.307.896-.307 2.037t.307 2.037q.315.895.929 1.415.622.51 1.534.511M431.929 41V23.546h3.631v6.562h.111a4.8 4.8 0 0 1 .69-1.074q.46-.554 1.193-.92.742-.375 1.841-.375 1.432 0 2.642.75 1.21.741 1.935 2.241.724 1.492.724 3.742 0 2.19-.707 3.698-.699 1.5-1.909 2.276-1.202.767-2.693.767-1.057 0-1.799-.35a3.7 3.7 0 0 1-1.201-.877 4.5 4.5 0 0 1-.716-1.083h-.162V41zm3.554-6.545q0 1.167.324 2.037.324.868.938 1.355.613.477 1.491.477.887 0 1.5-.486.614-.495.929-1.364.324-.877.324-2.02 0-1.133-.315-1.994-.316-.861-.929-1.346t-1.509-.486q-.887 0-1.5.469-.605.468-.929 1.33-.324.86-.324 2.028m14.913 6.792q-1.253 0-2.233-.434a3.6 3.6 0 0 1-1.551-1.305q-.563-.868-.563-2.164 0-1.09.401-1.833a3.24 3.24 0 0 1 1.091-1.193q.69-.451 1.568-.682.886-.23 1.858-.324 1.142-.119 1.841-.221.699-.111 1.014-.324t.315-.63v-.052q0-.81-.511-1.253-.503-.443-1.432-.443-.98 0-1.56.435a2 2 0 0 0-.767 1.074l-3.358-.273a4.6 4.6 0 0 1 1.006-2.062q.75-.879 1.935-1.347 1.193-.477 2.761-.477a8.4 8.4 0 0 1 2.088.255q1.006.256 1.782.793.783.537 1.235 1.38.452.836.452 2.003V41h-3.443v-1.815h-.102q-.316.614-.844 1.082a3.9 3.9 0 0 1-1.27.724q-.741.255-1.713.256m1.04-2.505q.8 0 1.414-.316a2.5 2.5 0 0 0 .963-.87q.35-.545.35-1.235v-1.39a2 2 0 0 1-.469.205 9 9 0 0 1-.656.162q-.366.069-.733.128l-.665.094a4.5 4.5 0 0 0-1.116.298 1.8 1.8 0 0 0-.742.554q-.264.34-.264.852 0 .742.537 1.134.546.384 1.381.384m12.323-15.196V41h-3.63V23.546zm22.219 0V41h-3.187l-7.594-10.986h-.128V41h-3.69V23.546h3.238l7.534 10.977h.154V23.545zm8.491 17.71q-2.02 0-3.477-.819a5.6 5.6 0 0 1-2.233-2.335q-.784-1.516-.784-3.588 0-2.02.784-3.545a5.8 5.8 0 0 1 2.207-2.378q1.432-.852 3.358-.852 1.296 0 2.412.417 1.125.41 1.96 1.236.844.826 1.313 2.08.468 1.244.468 2.914v.997h-11.054v-2.25h7.637q0-.783-.341-1.389a2.44 2.44 0 0 0-.946-.946q-.597-.35-1.389-.35-.827 0-1.466.384-.631.375-.989 1.015-.358.63-.366 1.406v2.139q0 .971.358 1.679.366.708 1.031 1.09.665.385 1.577.384a3.4 3.4 0 0 0 1.107-.17q.504-.17.861-.511a2.2 2.2 0 0 0 .546-.836l3.358.222a4.6 4.6 0 0 1-1.049 2.114q-.783.894-2.028 1.397-1.236.495-2.855.495m14.885-13.347v2.727h-7.884V27.91zm-6.094-3.136h3.631v12.204q0 .504.153.784.153.273.426.384.282.11.648.11.256 0 .511-.042l.392-.077.571 2.702a10 10 0 0 1-.767.196 6 6 0 0 1-1.201.145q-1.312.051-2.301-.35a3.2 3.2 0 0 1-1.526-1.244q-.546-.844-.537-2.13zM513.845 41l-3.562-13.09h3.673l2.028 8.795h.12l2.113-8.796h3.605l2.148 8.744h.111l1.994-8.744h3.665L526.186 41h-3.844l-2.25-8.233h-.162L517.68 41zm22.963.256q-1.986 0-3.435-.844a5.8 5.8 0 0 1-2.225-2.37q-.784-1.524-.784-3.536 0-2.029.784-3.546a5.7 5.7 0 0 1 2.225-2.37q1.449-.85 3.435-.851 1.985 0 3.426.852a5.7 5.7 0 0 1 2.233 2.37q.784 1.515.784 3.545 0 2.01-.784 3.537a5.76 5.76 0 0 1-2.233 2.369q-1.442.844-3.426.844m.017-2.813q.903 0 1.508-.511.605-.52.912-1.415.315-.896.315-2.037t-.315-2.037q-.307-.894-.912-1.415-.605-.52-1.508-.52-.912 0-1.535.52-.613.52-.928 1.415-.307.896-.307 2.037t.307 2.037q.315.895.928 1.415.623.51 1.535.511M545.156 41V27.91h3.519v2.283h.137q.358-1.219 1.201-1.84a3.16 3.16 0 0 1 1.944-.631q.272 0 .588.034t.554.093v3.222a5 5 0 0 0-.708-.136 6 6 0 0 0-.826-.06q-.801 0-1.432.35a2.57 2.57 0 0 0-.989.954q-.358.614-.358 1.415V41zm12.654-3.767.008-4.355h.529l4.193-4.969h4.167l-5.633 6.58h-.861zM554.52 41V23.546h3.631V41zm8.182 0-3.853-5.702 2.421-2.565L566.955 41z"/><path fill="#0055DC" d="M1032.03 88.233h-18.92a7.1 7.1 0 0 1-5.02-2.087 7.08 7.08 0 0 1-2.09-5.023 7.3 7.3 0 0 1 .7-3.041 7.25 7.25 0 0 1 1.9-2.474 6.82 6.82 0 0 1 4.85-1.594 9.64 9.64 0 0 1 10.12-5.94 9.63 9.63 0 0 1 8.36 8.234 5.8 5.8 0 0 1 4 1.36 6 6 0 0 1 1.88 3.05 6 6 0 0 1-.18 3.578 6.07 6.07 0 0 1-2.19 2.84 6.03 6.03 0 0 1-3.41 1.096M1013 75.999a4.76 4.76 0 0 0-3.11 1.14 5.1 5.1 0 0 0-1.38 1.786c-.33.688-.5 1.438-.51 2.198 0 1.352.54 2.648 1.49 3.606a5.13 5.13 0 0 0 3.6 1.504h18.94a4 4 0 0 0 2.81-1.165 4 4 0 0 0 1.16-2.806c.01-.58-.11-1.153-.35-1.683a4 4 0 0 0-1.01-1.388 4.14 4.14 0 0 0-3.46-.808l-1.13.181-.03-1.14a7.6 7.6 0 0 0-1.96-4.89 7.63 7.63 0 0 0-9.79-1.331 7.6 7.6 0 0 0-3.19 4.19l-.26.843-.87-.153a5.5 5.5 0 0 0-.95-.084"/><path fill="#222" d="M1047.01 66V54.364h2.46v9.608h4.99V66zm12.8.17c-.88 0-1.64-.187-2.29-.562a3.85 3.85 0 0 1-1.48-1.58c-.35-.678-.52-1.464-.52-2.358 0-.901.17-1.689.52-2.363.35-.678.84-1.205 1.48-1.58.65-.378 1.41-.568 2.29-.568s1.65.19 2.29.568c.64.375 1.14.902 1.48 1.58.35.674.53 1.462.53 2.363 0 .894-.18 1.68-.53 2.358a3.8 3.8 0 0 1-1.48 1.58c-.64.375-1.41.563-2.29.563m.01-1.874c.4 0 .74-.114 1.01-.342.27-.23.47-.545.61-.943q.21-.596.21-1.358 0-.76-.21-1.358c-.14-.397-.34-.712-.61-.943s-.61-.346-1.01-.346q-.6 0-1.02.346c-.27.231-.48.546-.62.944s-.2.85-.2 1.357c0 .508.06.96.2 1.358s.35.712.62.944q.42.34 1.02.34m12.95-4.535-2.22.137q-.06-.284-.24-.512a1.3 1.3 0 0 0-.5-.369 1.7 1.7 0 0 0-.72-.142c-.38 0-.69.08-.95.239q-.39.232-.39.625c0 .208.09.384.25.528.17.144.46.26.86.347l1.58.318c.85.174 1.48.454 1.9.84.42.387.62.895.62 1.523 0 .572-.16 1.074-.5 1.506q-.495.649-1.38 1.011c-.58.24-1.24.359-2 .359q-1.74 0-2.76-.722a2.83 2.83 0 0 1-1.2-1.977l2.38-.125c.07.352.25.62.52.806.28.182.63.273 1.06.273s.77-.081 1.03-.244q.39-.25.39-.642 0-.33-.27-.54-.285-.216-.84-.33l-1.52-.3c-.85-.171-1.48-.467-1.9-.887-.41-.42-.62-.956-.62-1.608 0-.56.15-1.044.46-1.449q.45-.608 1.29-.937.825-.33 1.95-.33c1.1 0 1.97.233 2.6.699.64.466 1.01 1.1 1.12 1.903m7.12 6.239h-2.64l4.02-11.636h3.17L1088.45 66h-2.63l-2.92-8.977h-.09zm-.16-4.574h6.22v1.92h-6.22zm12.32-.471V66h-2.42v-8.727h2.31v1.54h.1c.2-.508.52-.91.97-1.205.46-.3 1.01-.449 1.66-.449.6 0 1.13.133 1.58.398q.675.398 1.05 1.136c.25.489.38 1.072.38 1.75V66h-2.42v-5.125c0-.534-.13-.95-.41-1.25q-.42-.455-1.14-.455-.495 0-.87.21c-.24.14-.44.345-.58.614q-.195.399-.21.96m11.29 8.5c-.78 0-1.45-.108-2.02-.324-.55-.212-1-.502-1.32-.87-.33-.367-.55-.78-.65-1.238l2.24-.301q.105.261.33.488c.14.152.34.273.58.364q.375.142.9.142c.53 0 .96-.129 1.3-.386.34-.254.52-.68.52-1.279v-1.597h-.11c-.1.243-.26.472-.47.688s-.49.392-.82.529c-.33.136-.73.204-1.19.204a3.55 3.55 0 0 1-1.79-.454c-.54-.307-.96-.775-1.28-1.404-.32-.632-.47-1.432-.47-2.398q0-1.482.48-2.477c.32-.663.75-1.159 1.28-1.489q.81-.495 1.77-.494.735 0 1.23.25c.33.163.59.367.79.614.21.242.36.48.47.716h.1v-1.466h2.4v8.812c0 .743-.18 1.364-.55 1.864-.36.5-.86.875-1.51 1.125-.64.254-1.37.38-2.21.38m.05-5.398q.585 0 .99-.29.405-.295.63-.84c.14-.368.22-.808.22-1.319s-.07-.955-.22-1.33a1.93 1.93 0 0 0-.62-.88 1.62 1.62 0 0 0-1-.313c-.39 0-.73.108-1 .324-.28.212-.48.508-.62.886q-.21.57-.21 1.313 0 .756.21 1.307c.14.363.35.646.62.846.27.197.61.296 1 .296m9.95 2.114c-.9 0-1.67-.182-2.32-.546a3.7 3.7 0 0 1-1.49-1.557c-.35-.674-.52-1.471-.52-2.392 0-.898.17-1.686.52-2.364q.525-1.016 1.47-1.585c.64-.378 1.38-.568 2.24-.568.58 0 1.11.093 1.61.279.5.181.93.456 1.3.823.38.368.67.83.88 1.387.21.553.31 1.2.31 1.943v.665h-7.37v-1.5h5.09c0-.349-.07-.657-.22-.926q-.24-.405-.63-.631a1.83 1.83 0 0 0-.93-.233c-.37 0-.69.085-.98.256q-.42.25-.66.676-.24.42-.24.937v1.426q0 .648.24 1.12c.16.314.39.556.68.727.3.17.65.256 1.06.256.26 0 .51-.038.73-.114.23-.076.42-.19.58-.34q.24-.228.36-.558l2.24.148a3.05 3.05 0 0 1-.7 1.41q-.525.595-1.35.93c-.55.22-1.18.33-1.9.33m7.83-11.807V66h-2.42V54.364zm5.74 11.807c-.9 0-1.67-.182-2.32-.546a3.7 3.7 0 0 1-1.49-1.557c-.35-.674-.52-1.471-.52-2.392 0-.898.17-1.686.52-2.364q.525-1.016 1.47-1.585c.64-.378 1.38-.568 2.24-.568.58 0 1.11.093 1.61.279.5.181.93.456 1.3.823.38.368.67.83.88 1.387.21.553.31 1.2.31 1.943v.665h-7.37v-1.5h5.09c0-.349-.07-.657-.22-.926q-.24-.405-.63-.631a1.83 1.83 0 0 0-.93-.233c-.37 0-.69.085-.98.256q-.42.25-.66.676-.24.42-.24.937v1.426q0 .648.24 1.12c.16.314.39.556.68.727.3.17.65.256 1.06.256.26 0 .51-.038.73-.114.23-.076.42-.19.58-.34q.24-.228.36-.558l2.24.148a3.05 3.05 0 0 1-.7 1.41q-.525.595-1.35.93c-.55.22-1.18.33-1.9.33m12.67-6.41-2.22.137q-.06-.284-.24-.512a1.3 1.3 0 0 0-.5-.369 1.7 1.7 0 0 0-.72-.142c-.37 0-.69.08-.95.239-.26.155-.38.363-.38.625 0 .208.08.384.25.528.16.144.45.26.85.347l1.58.318c.85.174 1.48.454 1.9.84q.63.58.63 1.523 0 .858-.51 1.506-.495.649-1.38 1.011c-.57.24-1.24.359-2 .359q-1.74 0-2.76-.722a2.83 2.83 0 0 1-1.2-1.977l2.38-.125c.07.352.25.62.52.806.28.182.63.273 1.06.273s.77-.081 1.03-.244c.26-.167.39-.38.4-.642-.01-.22-.1-.4-.28-.54-.18-.144-.47-.254-.84-.33l-1.52-.3c-.85-.171-1.48-.467-1.9-.887-.41-.42-.62-.956-.62-1.608 0-.56.15-1.044.46-1.449q.45-.608 1.29-.937.825-.33 1.95-.33c1.1 0 1.97.233 2.6.699.64.466 1.01 1.1 1.12 1.903m-88.64 30.41c-.89 0-1.67-.182-2.32-.546a3.7 3.7 0 0 1-1.48-1.557c-.35-.674-.53-1.471-.53-2.392 0-.898.18-1.686.53-2.364.34-.677.84-1.206 1.47-1.585s1.38-.568 2.24-.568c.57 0 1.11.093 1.6.278.5.182.94.457 1.31.824.38.368.67.83.88 1.387.2.553.31 1.2.31 1.943v.665h-7.37v-1.5h5.09c0-.349-.08-.657-.23-.927a1.6 1.6 0 0 0-.63-.63 1.77 1.77 0 0 0-.92-.233c-.37 0-.7.085-.98.256q-.42.25-.66.676-.24.42-.24.937v1.426c0 .432.08.805.23 1.12q.255.47.69.727.45.255 1.05.256c.27 0 .52-.038.74-.114.23-.076.42-.19.58-.34.15-.152.28-.338.36-.558l2.24.148a3.14 3.14 0 0 1-.7 1.41q-.525.596-1.35.93c-.55.22-1.19.33-1.91.33m7.83-5.217V90h-2.42v-8.727h2.31v1.54h.1c.19-.508.52-.91.97-1.205.46-.3 1.01-.449 1.66-.449.6 0 1.13.133 1.58.398q.675.398 1.05 1.136c.25.489.38 1.072.38 1.75V90h-2.42v-5.125c0-.534-.14-.95-.41-1.25q-.42-.454-1.14-.454-.495 0-.87.21c-.24.14-.44.344-.58.613q-.195.398-.21.96m10.58 5.188c-.67 0-1.27-.17-1.81-.511-.53-.345-.95-.85-1.27-1.517-.31-.67-.46-1.493-.46-2.466q0-1.5.48-2.495c.32-.666.75-1.164 1.28-1.494q.81-.5 1.77-.5c.49 0 .9.083 1.22.25.33.163.6.367.8.614.2.242.36.48.46.716h.08v-4.375h2.41V90h-2.39v-1.398h-.1q-.165.364-.48.722c-.2.235-.47.43-.8.585s-.72.233-1.19.233m.76-1.926q.585 0 .99-.318.405-.324.63-.904c.14-.386.22-.839.22-1.358s-.07-.97-.22-1.352c-.14-.383-.35-.678-.62-.886a1.62 1.62 0 0 0-1-.313c-.4 0-.73.108-1 .324-.28.216-.48.515-.62.898q-.21.573-.21 1.33 0 .76.21 1.346c.14.386.35.69.62.909.27.216.6.324 1 .324m6.02 5.057v-12h2.38v1.466h.11c.11-.235.26-.474.46-.716.2-.246.47-.451.8-.614.32-.167.73-.25 1.22-.25.64 0 1.23.167 1.76.5q.81.495 1.29 1.494c.33.663.49 1.495.49 2.495 0 .973-.16 1.795-.47 2.466-.32.666-.74 1.172-1.28 1.517-.53.34-1.13.511-1.79.511q-.705 0-1.2-.233a2.4 2.4 0 0 1-.8-.585q-.315-.359-.48-.722h-.07v4.67zm2.36-7.637c0 .52.08.972.22 1.358q.21.58.63.904.405.318.99.318c.39 0 .73-.108 1-.324.27-.22.48-.523.62-.909.14-.39.22-.84.22-1.347 0-.503-.07-.947-.22-1.33-.14-.382-.34-.681-.61-.897-.28-.216-.61-.324-1.01-.324-.39 0-.73.104-1 .313-.27.208-.48.504-.62.886-.14.383-.22.833-.22 1.352m11.53 4.535c-.88 0-1.65-.188-2.29-.563a3.9 3.9 0 0 1-1.49-1.58c-.34-.678-.52-1.464-.52-2.358 0-.901.18-1.689.52-2.363a3.83 3.83 0 0 1 1.49-1.58c.64-.379 1.41-.568 2.29-.568q1.32 0 2.28.568a3.77 3.77 0 0 1 1.49 1.58c.35.674.52 1.462.52 2.364 0 .893-.17 1.68-.52 2.357a3.8 3.8 0 0 1-1.49 1.58q-.96.563-2.28.563m.01-1.876c.4 0 .74-.113 1-.34.27-.231.48-.546.61-.944q.21-.596.21-1.358 0-.76-.21-1.358a2.06 2.06 0 0 0-.61-.943c-.26-.23-.6-.346-1-.346q-.615 0-1.02.346c-.28.231-.48.546-.62.944q-.21.596-.21 1.357t.21 1.358c.14.398.34.713.62.944q.405.34 1.02.34m5.68 1.705v-8.727h2.42V90zm1.22-9.852q-.54 0-.93-.358a1.174 1.174 0 0 1 0-1.728q.39-.363.93-.363c.36 0 .66.121.92.364a1.174 1.174 0 0 1 0 1.727c-.26.238-.56.358-.92.358m5.38 4.807V90h-2.42v-8.727h2.31v1.54h.1c.2-.508.52-.91.97-1.205.46-.3 1.01-.449 1.66-.449.6 0 1.13.133 1.58.398q.675.398 1.05 1.136c.25.489.38 1.072.38 1.75V90h-2.42v-5.125c0-.534-.13-.95-.41-1.25q-.42-.454-1.14-.454-.495 0-.87.21c-.24.14-.43.344-.58.613q-.195.398-.21.96m12-3.682v1.818h-5.25v-1.818zm-4.06-2.091h2.42v8.136c0 .224.04.398.1.523.07.121.17.206.29.256.12.049.27.074.43.074.11 0 .23-.01.34-.029.11-.023.2-.04.26-.051l.38 1.801q-.18.057-.51.13a4 4 0 0 1-.8.097q-.87.034-1.53-.233a2.1 2.1 0 0 1-1.02-.83q-.36-.561-.36-1.42zm12.62 4.58-2.22.136q-.06-.284-.24-.512a1.3 1.3 0 0 0-.5-.369 1.7 1.7 0 0 0-.72-.142c-.37 0-.69.08-.95.239q-.39.232-.39.625c0 .208.09.384.25.528.17.144.46.26.86.347l1.58.318c.85.174 1.48.454 1.9.84q.63.58.63 1.523 0 .858-.51 1.506-.495.649-1.38 1.011c-.58.24-1.24.359-2 .359q-1.74 0-2.76-.722a2.83 2.83 0 0 1-1.2-1.977l2.38-.125c.07.352.25.62.52.806.28.182.63.273 1.06.273s.77-.081 1.03-.244q.39-.25.39-.642 0-.33-.27-.54-.285-.216-.84-.33l-1.52-.3c-.85-.171-1.48-.467-1.9-.887-.41-.42-.62-.957-.62-1.608 0-.56.15-1.044.46-1.449q.45-.608 1.29-.937.825-.33 1.95-.33c1.1 0 1.97.233 2.6.699.64.466 1.01 1.1 1.12 1.903"/><path fill="#fff" stroke="#0055DC" stroke-width="2" d="M1007 97.765h151v256h-151z"/><path fill="#0055DC" d="M1036.51 109.963H1033v18.05h3.51zm91.49 0h-3.51v18.05h3.51z"/><path fill="#fff" stroke="#0055DC" stroke-miterlimit="10" stroke-width="1.5" d="M1041.31 131.229v3.426l78.38-.004v-3.426z"/><path fill="#C5EBF5" stroke="#0055DC" stroke-miterlimit="10" stroke-width="1.5" d="M1124.49 106.765h-87.98v24.461h87.98z"/><path fill="#fff" d="M1120.69 127.777v-17.564h-80.38v17.564z"/><path fill="#0055DC" d="M1046.83 115.173h-1.95v1.902h1.95zm0 5.725h-1.95v1.902h1.95zm2.67-3.016h-1.95v1.902h1.95zm2.37-2.709h-1.95v1.902h1.95zm0 5.725h-1.95v1.902h1.95zm2.52-3.016h-1.95v1.902h1.95zm2.98-2.709h-1.95v1.902h1.95zm0 5.725h-1.95v1.902h1.95zm2.52-3.016h-1.95v1.902h1.95zm3.06-2.709h-1.94v1.902h1.94zm0 5.725h-1.94v1.902h1.94zm2.37-3.016h-1.94v1.902h1.94zm2.67-2.709h-1.95v1.902h1.95zm0 5.725h-1.95v1.902h1.95zm2.22-3.016h-1.94v1.902h1.94zm2.82-2.709h-1.95v1.902h1.95zm0 5.725h-1.95v1.902h1.95zm2.07-3.016h-1.94v1.902h1.94zm39.21 3.475c1.33 0 2.41-1.057 2.41-2.361s-1.08-2.362-2.41-2.362c-1.34 0-2.42 1.058-2.42 2.362s1.08 2.361 2.42 2.361"/><path stroke="#0055DC" stroke-miterlimit="10" stroke-width="1.5" d="M1107.35 118.996h-25.6"/><path fill="#0055DC" d="M1036.51 144.963H1033v18.05h3.51zm91.49 0h-3.51v18.05h3.51z"/><path fill="#fff" stroke="#0055DC" stroke-miterlimit="10" stroke-width="1.5" d="M1041.31 166.229v3.426l78.38-.004v-3.426z"/><path fill="#C5EBF5" stroke="#0055DC" stroke-miterlimit="10" stroke-width="1.5" d="M1124.49 141.765h-87.98v24.461h87.98z"/><path fill="#fff" d="M1120.69 162.777v-17.564h-80.38v17.564z"/><path fill="#0055DC" d="M1046.83 150.173h-1.95v1.902h1.95zm0 5.725h-1.95v1.902h1.95zm2.67-3.016h-1.95v1.902h1.95zm2.37-2.709h-1.95v1.902h1.95zm0 5.725h-1.95v1.902h1.95zm2.52-3.016h-1.95v1.902h1.95zm2.98-2.709h-1.95v1.902h1.95zm0 5.725h-1.95v1.902h1.95zm2.52-3.016h-1.95v1.902h1.95zm3.06-2.709h-1.94v1.902h1.94zm0 5.725h-1.94v1.902h1.94zm2.37-3.016h-1.94v1.902h1.94zm2.67-2.709h-1.95v1.902h1.95zm0 5.725h-1.95v1.902h1.95zm2.22-3.016h-1.94v1.902h1.94zm2.82-2.709h-1.95v1.902h1.95zm0 5.725h-1.95v1.902h1.95zm2.07-3.016h-1.94v1.902h1.94zm39.21 3.475c1.33 0 2.41-1.057 2.41-2.361s-1.08-2.362-2.41-2.362c-1.34 0-2.42 1.058-2.42 2.362s1.08 2.361 2.42 2.361"/><path stroke="#0055DC" stroke-miterlimit="10" stroke-width="1.5" d="M1107.35 153.996h-25.6"/><path fill="#0055DC" d="M1036.51 180.078H1033v18.697h3.51zm91.49 0h-3.51v18.697h3.51z"/><path fill="#fff" stroke="#0055DC" stroke-miterlimit="10" stroke-width="1.5" d="M1041.31 202.107v3.548l78.38-.004v-3.549z"/><path fill="#C5EBF5" stroke="#0055DC" stroke-miterlimit="10" stroke-width="1.5" d="M1124.49 176.765h-87.98v25.339h87.98z"/><path fill="#fff" d="M1120.69 198.53v-18.193h-80.38v18.193z"/><path fill="#0055DC" d="M1046.83 185.474h-1.95v1.971h1.95zm0 5.931h-1.95v1.971h1.95zm2.67-3.125h-1.95v1.971h1.95zm2.37-2.806h-1.95v1.971h1.95zm0 5.931h-1.95v1.971h1.95zm2.52-3.125h-1.95v1.971h1.95zm2.98-2.806h-1.95v1.971h1.95zm0 5.931h-1.95v1.971h1.95zm2.52-3.125h-1.95v1.971h1.95zm3.06-2.806h-1.94v1.971h1.94zm0 5.931h-1.94v1.971h1.94zm2.37-3.125h-1.94v1.971h1.94zm2.67-2.806h-1.95v1.971h1.95zm0 5.931h-1.95v1.971h1.95zm2.22-3.125h-1.94v1.971h1.94zm2.82-2.806h-1.95v1.971h1.95zm0 5.931h-1.95v1.971h1.95zm2.07-3.125h-1.94v1.971h1.94zm39.21 3.6c1.33 0 2.41-1.095 2.41-2.446s-1.08-2.446-2.41-2.446c-1.34 0-2.42 1.095-2.42 2.446s1.08 2.446 2.42 2.446"/><path stroke="#0055DC" stroke-miterlimit="10" stroke-width="1.5" d="M1107.35 189.434h-25.6"/><path fill="#0055DC" d="M1036.51 215.963H1033v18.05h3.51zm91.49 0h-3.51v18.05h3.51z"/><path fill="#fff" stroke="#0055DC" stroke-miterlimit="10" stroke-width="1.5" d="M1041.31 237.229v3.426l78.38-.004v-3.426z"/><path fill="#C5EBF5" stroke="#0055DC" stroke-miterlimit="10" stroke-width="1.5" d="M1124.49 212.765h-87.98v24.461h87.98z"/><path fill="#fff" d="M1120.69 233.777v-17.564h-80.38v17.564z"/><path fill="#0055DC" d="M1046.83 221.173h-1.95v1.902h1.95zm0 5.725h-1.95v1.902h1.95zm2.67-3.016h-1.95v1.902h1.95zm2.37-2.709h-1.95v1.902h1.95zm0 5.725h-1.95v1.902h1.95zm2.52-3.016h-1.95v1.902h1.95zm2.98-2.709h-1.95v1.902h1.95zm0 5.725h-1.95v1.902h1.95zm2.52-3.016h-1.95v1.902h1.95zm3.06-2.709h-1.94v1.902h1.94zm0 5.725h-1.94v1.902h1.94zm2.37-3.016h-1.94v1.902h1.94zm2.67-2.709h-1.95v1.902h1.95zm0 5.725h-1.95v1.902h1.95zm2.22-3.016h-1.94v1.902h1.94zm2.82-2.709h-1.95v1.902h1.95zm0 5.725h-1.95v1.902h1.95zm2.07-3.016h-1.94v1.902h1.94zm39.21 3.475c1.33 0 2.41-1.057 2.41-2.361s-1.08-2.362-2.41-2.362c-1.34 0-2.42 1.058-2.42 2.362s1.08 2.361 2.42 2.361"/><path stroke="#0055DC" stroke-miterlimit="10" stroke-width="1.5" d="M1107.35 224.996h-25.6"/><path fill="#0055DC" d="M1036.51 250.963H1033v18.05h3.51zm91.49 0h-3.51v18.05h3.51z"/><path fill="#fff" stroke="#0055DC" stroke-miterlimit="10" stroke-width="1.5" d="M1041.31 272.229v3.426l78.38-.004v-3.426z"/><path fill="#C5EBF5" stroke="#0055DC" stroke-miterlimit="10" stroke-width="1.5" d="M1124.49 247.765h-87.98v24.461h87.98z"/><path fill="#fff" d="M1120.69 268.777v-17.564h-80.38v17.564z"/><path fill="#0055DC" d="M1046.83 256.173h-1.95v1.902h1.95zm0 5.725h-1.95v1.902h1.95zm2.67-3.016h-1.95v1.902h1.95zm2.37-2.709h-1.95v1.902h1.95zm0 5.725h-1.95v1.902h1.95zm2.52-3.016h-1.95v1.902h1.95zm2.98-2.709h-1.95v1.902h1.95zm0 5.725h-1.95v1.902h1.95zm2.52-3.016h-1.95v1.902h1.95zm3.06-2.709h-1.94v1.902h1.94zm0 5.725h-1.94v1.902h1.94zm2.37-3.016h-1.94v1.902h1.94zm2.67-2.709h-1.95v1.902h1.95zm0 5.725h-1.95v1.902h1.95zm2.22-3.016h-1.94v1.902h1.94zm2.82-2.709h-1.95v1.902h1.95zm0 5.725h-1.95v1.902h1.95zm2.07-3.016h-1.94v1.902h1.94zm39.21 3.475c1.33 0 2.41-1.057 2.41-2.361s-1.08-2.362-2.41-2.362c-1.34 0-2.42 1.058-2.42 2.362s1.08 2.361 2.42 2.361"/><path stroke="#0055DC" stroke-miterlimit="10" stroke-width="1.5" d="M1107.35 259.996h-25.6"/><path fill="#0055DC" d="M1036.51 285.963H1033v18.05h3.51zm91.49 0h-3.51v18.05h3.51z"/><path fill="#fff" stroke="#0055DC" stroke-miterlimit="10" stroke-width="1.5" d="M1041.31 307.229v3.426l78.38-.004v-3.426z"/><path fill="#C5EBF5" stroke="#0055DC" stroke-miterlimit="10" stroke-width="1.5" d="M1124.49 282.765h-87.98v24.461h87.98z"/><path fill="#fff" d="M1120.69 303.777v-17.564h-80.38v17.564z"/><path fill="#0055DC" d="M1046.83 291.173h-1.95v1.902h1.95zm0 5.725h-1.95v1.902h1.95zm2.67-3.016h-1.95v1.902h1.95zm2.37-2.709h-1.95v1.902h1.95zm0 5.725h-1.95v1.902h1.95zm2.52-3.016h-1.95v1.902h1.95zm2.98-2.709h-1.95v1.902h1.95zm0 5.725h-1.95v1.902h1.95zm2.52-3.016h-1.95v1.902h1.95zm3.06-2.709h-1.94v1.902h1.94zm0 5.725h-1.94v1.902h1.94zm2.37-3.016h-1.94v1.902h1.94zm2.67-2.709h-1.95v1.902h1.95zm0 5.725h-1.95v1.902h1.95zm2.22-3.016h-1.94v1.902h1.94zm2.82-2.709h-1.95v1.902h1.95zm0 5.725h-1.95v1.902h1.95zm2.07-3.016h-1.94v1.902h1.94zm39.21 3.475c1.33 0 2.41-1.057 2.41-2.361s-1.08-2.362-2.41-2.362c-1.34 0-2.42 1.058-2.42 2.362s1.08 2.361 2.42 2.361"/><path stroke="#0055DC" stroke-miterlimit="10" stroke-width="1.5" d="M1107.35 294.996h-25.6"/><path fill="#0055DC" d="M1036.51 320.963H1033v18.05h3.51zm91.49 0h-3.51v18.05h3.51z"/><path fill="#fff" stroke="#0055DC" stroke-miterlimit="10" stroke-width="1.5" d="M1041.31 342.229v3.426l78.38-.004v-3.426z"/><path fill="#C5EBF5" stroke="#0055DC" stroke-miterlimit="10" stroke-width="1.5" d="M1124.49 317.765h-87.98v24.461h87.98z"/><path fill="#fff" d="M1120.69 338.777v-17.564h-80.38v17.564z"/><path fill="#0055DC" d="M1046.83 326.173h-1.95v1.902h1.95zm0 5.725h-1.95v1.902h1.95zm2.67-3.016h-1.95v1.902h1.95zm2.37-2.709h-1.95v1.902h1.95zm0 5.725h-1.95v1.902h1.95zm2.52-3.016h-1.95v1.902h1.95zm2.98-2.709h-1.95v1.902h1.95zm0 5.725h-1.95v1.902h1.95zm2.52-3.016h-1.95v1.902h1.95zm3.06-2.709h-1.94v1.902h1.94zm0 5.725h-1.94v1.902h1.94zm2.37-3.016h-1.94v1.902h1.94zm2.67-2.709h-1.95v1.902h1.95zm0 5.725h-1.95v1.902h1.95zm2.22-3.016h-1.94v1.902h1.94zm2.82-2.709h-1.95v1.902h1.95zm0 5.725h-1.95v1.902h1.95zm2.07-3.016h-1.94v1.902h1.94zm39.21 3.475c1.33 0 2.41-1.057 2.41-2.361s-1.08-2.362-2.41-2.362c-1.34 0-2.42 1.058-2.42 2.362s1.08 2.361 2.42 2.361"/><path stroke="#0055DC" stroke-miterlimit="10" stroke-width="1.5" d="M1107.35 329.996h-25.6"/><path fill="red" d="m728.278 331 4.824-9.545v-.08h-5.619v-2.011h8.165v2.039l-4.83 9.597zm13.15.159q-1.204 0-2.148-.443a3.75 3.75 0 0 1-1.489-1.222 3.14 3.14 0 0 1-.574-1.784h2.387q.04.677.568 1.097t1.256.42a2 2 0 0 0 1.022-.255q.45-.262.699-.722a2.2 2.2 0 0 0 .256-1.068q0-.614-.262-1.08a1.85 1.85 0 0 0-.71-.727 2.1 2.1 0 0 0-1.04-.267q-.51 0-.994.21-.477.21-.744.574l-2.188-.392.551-6.136h7.114v2.011h-5.085l-.301 2.915h.068q.306-.432.926-.716t1.386-.284q1.051 0 1.875.494t1.302 1.358q.477.858.471 1.977.006 1.176-.545 2.091a3.84 3.84 0 0 1-1.529 1.432q-.977.517-2.272.517m6.085-.159v-8.727h2.307v1.539h.102q.273-.766.909-1.21t1.523-.443q.897 0 1.528.449.631.443.841 1.204h.091q.267-.75.966-1.198.704-.455 1.665-.455 1.221 0 1.983.779.767.772.767 2.193V331h-2.415v-5.392q0-.728-.387-1.091-.386-.363-.965-.364-.66 0-1.029.421-.369.415-.369 1.096V331h-2.347v-5.443q0-.642-.369-1.023-.365-.381-.96-.381a1.34 1.34 0 0 0-.728.205q-.318.2-.505.562a1.8 1.8 0 0 0-.188.841V331zm21.855-6.239-2.216.137a1.15 1.15 0 0 0-.244-.512 1.3 1.3 0 0 0-.495-.369 1.7 1.7 0 0 0-.721-.142q-.563 0-.949.239-.386.232-.386.625 0 .312.25.528t.857.347l1.58.318q1.273.26 1.898.841.625.58.625 1.522a2.38 2.38 0 0 1-.506 1.506q-.5.648-1.375 1.011-.869.358-2.006.358-1.732 0-2.761-.721a2.8 2.8 0 0 1-1.199-1.977l2.381-.125q.108.528.523.806.414.273 1.062.273.636 0 1.023-.244.392-.25.398-.642a.67.67 0 0 0-.279-.54q-.273-.216-.841-.33l-1.511-.301q-1.278-.255-1.904-.886-.619-.63-.619-1.608 0-.841.455-1.449.46-.608 1.289-.937.836-.33 1.955-.33 1.654 0 2.602.699.955.699 1.114 1.903"/><path fill="#222" d="M54.534 362v-8.727h3.494q.963 0 1.607.285.643.286.967.793.324.502.324 1.159 0 .512-.205.899a1.76 1.76 0 0 1-.562.631 2.3 2.3 0 0 1-.81.345v.085q.5.021.934.281.439.261.711.729.273.465.273 1.108 0 .694-.345 1.24-.341.541-1.01.857t-1.65.315zm1.845-1.509h1.504q.772 0 1.125-.294a.98.98 0 0 0 .354-.792q0-.363-.175-.639a1.2 1.2 0 0 0-.498-.435 1.7 1.7 0 0 0-.763-.158h-1.547zm0-3.566h1.368q.38 0 .673-.132a1.1 1.1 0 0 0 .469-.384 1 1 0 0 0 .175-.592.96.96 0 0 0-.337-.763q-.332-.29-.946-.29H56.38zm9.012 5.203q-.993 0-1.718-.422a2.9 2.9 0 0 1-1.112-1.185q-.392-.762-.392-1.768 0-1.014.392-1.773a2.86 2.86 0 0 1 1.112-1.185q.725-.426 1.718-.426t1.713.426q.724.423 1.116 1.185.392.759.392 1.773 0 1.006-.392 1.768a2.9 2.9 0 0 1-1.116 1.185q-.72.422-1.713.422m.008-1.406q.453 0 .755-.256.301-.26.456-.707a3 3 0 0 0 .157-1.019q0-.571-.157-1.018a1.6 1.6 0 0 0-.456-.708 1.12 1.12 0 0 0-.755-.26q-.456 0-.767.26-.307.26-.464.708a3.1 3.1 0 0 0-.154 1.018q0 .571.154 1.019.158.447.464.707.311.255.767.256m9.84-3.401-1.662.102a.85.85 0 0 0-.183-.383 1 1 0 0 0-.371-.277 1.3 1.3 0 0 0-.541-.107q-.422 0-.712.179-.29.175-.29.469 0 .234.188.396t.643.26l1.185.239q.954.196 1.423.631.47.434.469 1.142 0 .643-.38 1.129-.375.486-1.03.758-.653.269-1.505.269-1.3 0-2.07-.541a2.1 2.1 0 0 1-.9-1.483l1.785-.094a.92.92 0 0 0 .393.605q.31.205.797.205.476 0 .767-.184.293-.187.298-.481a.5.5 0 0 0-.209-.405q-.205-.162-.63-.247l-1.134-.226q-.96-.191-1.428-.665-.465-.472-.464-1.206 0-.63.34-1.086.345-.456.968-.704.627-.246 1.466-.247 1.24 0 1.952.524.715.525.835 1.428m4.774-1.866v1.363H76.07v-1.363zm-3.047-1.569h1.815v6.103q0 .25.077.392a.42.42 0 0 0 .213.191.9.9 0 0 0 .324.056q.127 0 .255-.021l.196-.039.286 1.351q-.136.042-.384.098-.247.06-.6.072-.657.026-1.151-.174a1.6 1.6 0 0 1-.763-.622q-.273-.423-.268-1.066zm7.116 8.242q-.993 0-1.717-.422a2.9 2.9 0 0 1-1.112-1.185q-.392-.762-.392-1.768 0-1.014.392-1.773a2.86 2.86 0 0 1 1.112-1.185q.724-.426 1.717-.426t1.713.426q.724.423 1.117 1.185.392.759.392 1.773 0 1.006-.392 1.768a2.9 2.9 0 0 1-1.117 1.185q-.72.422-1.713.422m.009-1.406q.45 0 .754-.256.303-.26.456-.707a3 3 0 0 0 .158-1.019q0-.571-.158-1.018a1.6 1.6 0 0 0-.456-.708 1.12 1.12 0 0 0-.754-.26q-.456 0-.767.26-.308.26-.465.708a3.1 3.1 0 0 0-.153 1.018q0 .571.153 1.019.158.447.465.707.31.255.767.256m6.209-2.506V362h-1.816v-6.545h1.73v1.154h.077a1.83 1.83 0 0 1 .729-.903q.51-.337 1.24-.337.68 0 1.189.299.506.298.788.852.281.55.281 1.312V362h-1.815v-3.844q.004-.6-.307-.937-.311-.341-.856-.341-.367 0-.648.158-.278.157-.435.46a1.6 1.6 0 0 0-.157.72"/><path fill="#C5EBF5" fill-rule="evenodd" stroke="#0055DC" stroke-miterlimit="10" stroke-width="1.5" d="M119.241 281H31.397c-2.328 0-4.41 1.96-4.41 4.411v57.705h96.665v-57.705c0-2.451-2.083-4.411-4.411-4.411Z" clip-rule="evenodd"/><path fill="#0055DC" d="M75.258 285.288a.735.735 0 1 0 0-1.47.735.735 0 0 0 0 1.47"/><path fill="#fff" d="M127.45 347.526H23.066c-5.39 0-9.066-.857-9.066-1.592v-2.451c0-.245.245-.49.49-.49h121.414c.245 0 .49.245.49.49v2.451c.122.735-2.696 1.592-8.944 1.592"/><path stroke="#0055DC" stroke-miterlimit="10" stroke-width="1.5" d="M127.45 347.526H23.066c-5.39 0-9.066-.857-9.066-1.592v-2.451c0-.245.245-.49.49-.49h121.414c.245 0 .49.245.49.49v2.451c.122.735-2.696 1.592-8.944 1.592Z" clip-rule="evenodd"/><path fill="#C5EBF5" d="M136.516 343.483c0-.245-.245-.49-.49-.49H14.612c-.245 0-.49.245-.49.49v2.328h122.516v-2.328z"/><path stroke="#0055DC" stroke-miterlimit="10" stroke-width="1.5" d="M127.45 347.526H23.066c-5.39 0-9.066-.857-9.066-1.592v-2.451c0-.245.245-.49.49-.49h121.414c.245 0 .49.245.49.49v2.451c.122.735-2.696 1.592-8.944 1.592Z"/><path fill="#fff" d="M119.609 287.861H30.907v51.702h88.702z"/><path fill="#0055DC" fill-rule="evenodd" d="M88.612 343.238v.49c0 .368-.735.49-1.347.49H63.374c-.613 0-1.348-.122-1.348-.49v-.49" clip-rule="evenodd"/><path fill="#fff" stroke="#0055DC" stroke-miterlimit="10" stroke-width="1.5" d="M75.302 334.906c12.388 0 22.43-10.043 22.43-22.431s-10.042-22.43-22.43-22.43-22.43 10.042-22.43 22.43 10.042 22.431 22.43 22.431Z"/><path fill="#003682" d="M74.385 304.061a1 1 0 0 1 1.673 0l.318.485a1 1 0 0 0 1.42.266l.469-.337a1 1 0 0 1 1.56.604l.123.575a1 1 0 0 0 1.227.759l.561-.144a1 1 0 0 1 1.237 1.125l-.094.588a1 1 0 0 0 .869 1.149l.582.071a1 1 0 0 1 .746 1.494l-.3.519a1 1 0 0 0 .393 1.383l.525.281a1 1 0 0 1 .154 1.662l-.466.374a1 1 0 0 0-.133 1.432l.39.454a1 1 0 0 1-.457 1.606l-.564.178a1 1 0 0 0-.642 1.288l.2.564a1 1 0 0 1-1.007 1.333l-.582-.039a1 1 0 0 0-1.066.971l-.015.592a1 1 0 0 1-1.423.879l-.524-.244a1 1 0 0 0-1.346.521l-.224.539a1 1 0 0 1-1.645.307l-.4-.418a1 1 0 0 0-1.445 0l-.4.418a1 1 0 0 1-1.645-.307l-.224-.539a1 1 0 0 0-1.346-.521l-.524.244a1 1 0 0 1-1.422-.879l-.016-.592a1 1 0 0 0-1.066-.971l-.582.039a1 1 0 0 1-1.008-1.333l.2-.564a1 1 0 0 0-.641-1.288l-.564-.178a1 1 0 0 1-.457-1.606l.39-.454a1 1 0 0 0-.133-1.432l-.466-.374a1 1 0 0 1 .154-1.662l.525-.281a1 1 0 0 0 .394-1.383l-.3-.519a1 1 0 0 1 .745-1.494l.582-.071a1 1 0 0 0 .869-1.149l-.094-.588a1 1 0 0 1 1.237-1.125l.561.144a1 1 0 0 0 1.227-.759l.123-.575a1 1 0 0 1 1.56-.604l.47.337a1 1 0 0 0 1.419-.266z"/><path fill="#C5EBF5" stroke="#003682" stroke-miterlimit="10" stroke-width="1.5" d="M68.224 324.16a15.8 15.8 0 0 0 3.22-2.343v-5.92l7.799.092v5.568c.356.692 1.7 1.542 3.494 2.549 0 0-3.337 4.977-7.529 4.977-4.191 0-6.984-4.923-6.984-4.923Z"/><path fill="#0055DC" stroke="#003682" stroke-miterlimit="10" stroke-width="1.5" d="M75.303 334.906a22.35 22.35 0 0 0 15.06-5.808 35 35 0 0 0-7.583-4.953s-3.38 4.938-7.57 4.938c-4.192 0-7.007-4.875-7.007-4.875-2.573 1.451-5.729 2.816-8.094 4.763a22.35 22.35 0 0 0 15.194 5.935Z"/><path fill="#C5EBF5" stroke="#003682" stroke-miterlimit="10" stroke-width="1.5" d="M82.74 308.414a1.23 1.23 0 0 1 .615-.787 1.24 1.24 0 0 1 .996-.076c.975.294.426 3.834-2.298 3.708q.423-1.402.686-2.845Zm-14.877 0a1.27 1.27 0 0 0-1.148-.936 1.3 1.3 0 0 0-.518.073c-.85.345-.426 3.835 2.3 3.709a23 23 0 0 1-.634-2.846Z"/><path fill="#C5EBF5" stroke="#003682" stroke-miterlimit="10" stroke-width="1.5" d="M83.092 305.164c0 2.022-.74 6.14-2.04 8.626-.965 1.846-3.452 3.901-5.712 3.901s-4.491-2.055-5.712-3.9c-1.548-2.34-2.04-6.605-2.04-8.627a7.753 7.753 0 0 1 15.504 0Z"/><path fill="#003682" stroke="#003682" stroke-linejoin="round" stroke-width="1.5" d="M82.692 307.709c-.362-3.08-3.35-7.181-6.688-7.181l-.55-2.554 1.033 2.582c0 5.584-8.28 4.092-8.625 7.782l-.132-.132a22.4 22.4 0 0 1-.275-3.25c0-4.282 3.604-7.62 7.885-7.62a7.87 7.87 0 0 1 7.885 7.753 16 16 0 0 1-.436 3.157z"/><path stroke="#0055DC" stroke-miterlimit="10" stroke-width="1.5" d="M75.302 334.906c12.388 0 22.43-10.043 22.43-22.431s-10.042-22.43-22.43-22.43-22.43 10.042-22.43 22.43 10.042 22.431 22.43 22.431Z"/><path fill="#fff" stroke="#F6821F" stroke-width="2" d="M287 249h261v129H287z"/><path fill="#222" d="M391.879 270v-11.636h4.659q1.284 0 2.142.38t1.289 1.057q.432.67.432 1.546 0 .682-.272 1.198a2.35 2.35 0 0 1-.75.841q-.472.324-1.08.461v.113q.665.028 1.244.375.586.346.949.972.364.62.364 1.477 0 .927-.46 1.654-.454.721-1.347 1.142-.892.42-2.199.42zm2.46-2.011h2.005q1.029 0 1.5-.392.472-.399.472-1.057 0-.483-.233-.852a1.6 1.6 0 0 0-.665-.58q-.426-.21-1.017-.21h-2.062zm0-4.756h1.824q.506 0 .897-.176.399-.182.625-.512.233-.33.233-.789 0-.631-.449-1.017-.442-.387-1.261-.387h-1.869zm12.015 6.937q-1.323 0-2.289-.562a3.84 3.84 0 0 1-1.483-1.58q-.523-1.017-.523-2.358 0-1.352.523-2.363a3.8 3.8 0 0 1 1.483-1.58q.966-.568 2.289-.568t2.284.568a3.8 3.8 0 0 1 1.489 1.58q.523 1.011.523 2.363 0 1.341-.523 2.358a3.83 3.83 0 0 1-1.489 1.58q-.96.562-2.284.562m.012-1.875q.602 0 1.005-.34.404-.348.608-.944.211-.596.211-1.358 0-.76-.211-1.358-.204-.596-.608-.943-.403-.346-1.005-.346-.608 0-1.023.346-.41.347-.619.943a4.2 4.2 0 0 0-.205 1.358q0 .762.205 1.358.21.597.619.944.415.34 1.023.34m13.119-4.534-2.216.137a1.15 1.15 0 0 0-.244-.512 1.3 1.3 0 0 0-.494-.369 1.7 1.7 0 0 0-.722-.142q-.562 0-.949.239-.386.232-.386.625 0 .312.25.528.249.216.858.347l1.579.318q1.273.26 1.898.841.625.58.625 1.522a2.38 2.38 0 0 1-.506 1.506q-.5.648-1.375 1.011-.869.358-2.005.358-1.734 0-2.762-.721a2.8 2.8 0 0 1-1.199-1.977l2.381-.125q.108.528.523.806.414.273 1.062.273.637 0 1.023-.244.392-.25.398-.642a.67.67 0 0 0-.279-.54q-.273-.216-.841-.33l-1.511-.301q-1.279-.255-1.903-.886-.62-.63-.62-1.608 0-.841.455-1.449.46-.608 1.29-.937.834-.33 1.954-.33 1.654 0 2.602.699.955.699 1.114 1.903m6.365-2.488v1.818h-5.256v-1.818zm-4.062-2.091h2.42v8.136q0 .336.102.523a.57.57 0 0 0 .284.256q.187.073.432.073.171 0 .341-.028l.262-.051.38 1.801a7 7 0 0 1-.511.131q-.33.08-.801.096-.876.034-1.534-.233a2.14 2.14 0 0 1-1.017-.829q-.364-.563-.358-1.421zm9.488 10.988q-1.324 0-2.289-.562a3.84 3.84 0 0 1-1.483-1.58q-.523-1.017-.523-2.358 0-1.352.523-2.363a3.8 3.8 0 0 1 1.483-1.58q.965-.568 2.289-.568t2.284.568a3.8 3.8 0 0 1 1.489 1.58q.523 1.011.523 2.363 0 1.341-.523 2.358a3.83 3.83 0 0 1-1.489 1.58q-.96.562-2.284.562m.012-1.875q.601 0 1.005-.34.404-.348.608-.944.21-.596.211-1.358 0-.76-.211-1.358-.204-.596-.608-.943-.404-.346-1.005-.346-.609 0-1.023.346-.41.347-.619.943a4.2 4.2 0 0 0-.205 1.358q0 .762.205 1.358.21.597.619.944.414.34 1.023.34m8.278-3.34V270h-2.42v-8.727h2.306v1.539h.103q.29-.761.971-1.204.682-.449 1.654-.449.909 0 1.585.398t1.051 1.136q.375.733.375 1.75V270h-2.42v-5.125q.005-.801-.409-1.25-.416-.455-1.143-.455-.488 0-.863.211-.37.21-.58.613-.204.398-.21.961"/><path fill="#fff" stroke="#F6821F" stroke-width="2" d="M295 344h117.875v24.927H295z"/><path fill="#222" d="m343.358 359.876-2.497-8.727h2.015l1.445 6.064h.072l1.594-6.064h1.726l1.59 6.076h.076l1.445-6.076h2.015l-2.497 8.727h-1.798l-1.662-5.706h-.068l-1.658 5.706zm10.962 0h-1.977l3.013-8.727h2.378l3.008 8.727h-1.977l-2.186-6.733h-.068zm-.123-3.43h4.67v1.44h-4.67zm7.464 3.43v-8.727h5.778v1.521h-3.933v2.08h3.55v1.521h-3.55v3.605z"/><path fill="#fff" stroke="#F6821F" stroke-width="2" d="M422 344h117.875v24.927H422z"/><path fill="#222" d="M446.871 359.876h-1.977l3.012-8.727h2.378l3.009 8.727h-1.977l-2.186-6.733h-.069zm-.124-3.43h4.671v1.44h-4.671zm7.464 3.43v-8.727h3.443q.993 0 1.692.379.699.375 1.066 1.044.37.665.37 1.534 0 .87-.375 1.534-.375.665-1.086 1.036-.708.37-1.713.37h-2.195v-1.478h1.896q.533 0 .878-.184.35-.187.52-.515a1.6 1.6 0 0 0 .175-.763q0-.435-.175-.758a1.17 1.17 0 0 0-.52-.508q-.35-.183-.886-.183h-1.245v7.219zm9.483-8.727v8.727h-1.845v-8.727zm9.818 2.821a1.9 1.9 0 0 0-.251-.55 1.7 1.7 0 0 0-.925-.669 2.2 2.2 0 0 0-.652-.09q-.669 0-1.176.333-.502.332-.784.967-.28.631-.281 1.543 0 .912.277 1.551t.784.976q.507.332 1.197.332.627 0 1.07-.221.447-.227.682-.635a1.9 1.9 0 0 0 .238-.968l.375.056h-2.25v-1.389h3.652v1.099q0 1.15-.485 1.977-.486.823-1.339 1.27-.852.444-1.951.443-1.227 0-2.156-.541a3.75 3.75 0 0 1-1.449-1.547q-.516-1.006-.516-2.386 0-1.062.307-1.892a4 4 0 0 1 .869-1.415q.558-.579 1.3-.882a4.2 4.2 0 0 1 1.606-.303q.742 0 1.381.218.639.212 1.134.605.498.392.814.933.315.537.404 1.185zm5.043 6.03q-.627 0-1.117-.218a1.8 1.8 0 0 1-.775-.652q-.282-.434-.282-1.082 0-.546.201-.916.2-.371.545-.597t.784-.341q.444-.115.929-.162.571-.06.921-.111.35-.055.507-.162a.36.36 0 0 0 .157-.315v-.025q0-.405-.255-.627-.252-.221-.716-.221-.49 0-.78.217a1 1 0 0 0-.383.537l-1.679-.137q.127-.596.502-1.031.375-.438.968-.673.596-.239 1.38-.239.546 0 1.044.128.504.127.891.396.392.269.618.691.226.417.226 1.001v4.415h-1.722v-.908h-.051a1.8 1.8 0 0 1-.422.541 1.9 1.9 0 0 1-.635.363 2.6 2.6 0 0 1-.856.128m.52-1.253q.4 0 .707-.158.307-.162.482-.435a1.1 1.1 0 0 0 .174-.618v-.694a1 1 0 0 1-.234.102 4 4 0 0 1-.328.081q-.183.034-.367.064l-.332.047a2.2 2.2 0 0 0-.558.149.9.9 0 0 0-.371.277.68.68 0 0 0-.132.426q0 .37.268.567.273.192.691.192m7.924-5.416v1.363h-3.942v-1.363zm-3.047-1.569h1.815v6.103a.8.8 0 0 0 .077.392.42.42 0 0 0 .213.191.9.9 0 0 0 .324.056q.127 0 .256-.021l.196-.039.285 1.351a6 6 0 0 1-.383.098q-.248.06-.601.072-.656.026-1.151-.174a1.6 1.6 0 0 1-.763-.622q-.272-.423-.268-1.066zm7.01 8.242q-1.01 0-1.739-.409a2.8 2.8 0 0 1-1.116-1.168q-.392-.759-.392-1.794 0-1.01.392-1.773a2.9 2.9 0 0 1 1.103-1.189q.716-.426 1.679-.426.648 0 1.206.209.563.204.981.618.422.413.656 1.04.234.622.234 1.457v.499h-5.527v-1.125h3.818q0-.393-.17-.695a1.2 1.2 0 0 0-.473-.473 1.36 1.36 0 0 0-.695-.175q-.413 0-.733.192-.315.188-.494.507-.178.315-.183.703v1.07q0 .486.179.839.183.354.515.546.333.192.789.192.302 0 .554-.086.251-.085.43-.255.178-.17.273-.418l1.679.111q-.128.605-.524 1.057-.393.447-1.015.699-.617.247-1.427.247m5.301-.128-1.781-6.545h1.837l1.014 4.397h.059l1.057-4.397h1.803l1.074 4.372h.055l.997-4.372h1.833l-1.777 6.545h-1.922l-1.125-4.117h-.081l-1.125 4.117zm10.65.124q-.625 0-1.116-.218a1.8 1.8 0 0 1-.776-.652q-.28-.434-.281-1.082 0-.546.2-.916.201-.371.546-.597t.784-.341q.443-.115.929-.162.571-.06.92-.111.35-.055.508-.162a.36.36 0 0 0 .157-.315v-.025q0-.405-.255-.627-.252-.221-.716-.221-.49 0-.78.217a1 1 0 0 0-.384.537l-1.679-.137q.129-.596.503-1.031.375-.438.967-.673.597-.239 1.381-.239.546 0 1.044.128.502.127.891.396.391.269.618.691.226.417.226 1.001v4.415h-1.722v-.908h-.051a1.8 1.8 0 0 1-.422.541 1.9 1.9 0 0 1-.635.363 2.6 2.6 0 0 1-.857.128m.52-1.253q.4 0 .708-.158.306-.162.481-.435.175-.272.175-.618v-.694a1 1 0 0 1-.234.102 4 4 0 0 1-.329.081q-.183.034-.366.064l-.332.047q-.32.047-.559.149a.9.9 0 0 0-.37.277.68.68 0 0 0-.132.426q0 .37.268.567.273.192.69.192m5.329 3.584q-.345 0-.647-.056a2.4 2.4 0 0 1-.495-.132l.409-1.355q.32.098.576.106a.73.73 0 0 0 .447-.119q.192-.128.311-.435l.107-.277-2.348-6.732h1.909l1.355 4.806h.068l1.368-4.806h1.922l-2.544 7.252a3 3 0 0 1-.499.921q-.31.396-.788.609-.477.218-1.151.218"/><path fill="#fff" stroke="#F6821F" stroke-width="2" d="M422 282h117.875v24.927H422z"/><path fill="#222" d="M432.838 298.624v-8.727h3.494q.964 0 1.607.285t.967.793q.324.502.324 1.159 0 .511-.204.899a1.8 1.8 0 0 1-.563.631 2.3 2.3 0 0 1-.809.345v.085q.498.021.933.281.439.26.711.729.273.465.273 1.108 0 .694-.345 1.24-.34.541-1.01.856-.67.316-1.649.316zm1.845-1.509h1.505q.771 0 1.125-.294a.99.99 0 0 0 .353-.792q0-.363-.174-.64a1.2 1.2 0 0 0-.499-.434 1.7 1.7 0 0 0-.763-.158h-1.547zm0-3.567h1.368q.38 0 .674-.132.298-.136.468-.383a1 1 0 0 0 .175-.592.96.96 0 0 0-.337-.763q-.332-.29-.946-.29h-1.402zm8.88 5.204q-.993 0-1.717-.422a2.9 2.9 0 0 1-1.112-1.185q-.393-.762-.393-1.768 0-1.015.393-1.773a2.85 2.85 0 0 1 1.112-1.185q.724-.426 1.717-.426t1.713.426q.724.421 1.117 1.185.392.758.392 1.773 0 1.006-.392 1.768a2.9 2.9 0 0 1-1.117 1.185q-.72.422-1.713.422m.009-1.407q.451 0 .754-.255.303-.26.456-.708.157-.447.157-1.018t-.157-1.019a1.6 1.6 0 0 0-.456-.707 1.12 1.12 0 0 0-.754-.26q-.456 0-.767.26-.307.26-.465.707a3.2 3.2 0 0 0-.153 1.019q0 .571.153 1.018.158.448.465.708.31.255.767.255m7.743-5.267v1.364h-3.942v-1.364zm-3.047-1.568h1.815v6.102q0 .252.077.392a.42.42 0 0 0 .213.192.9.9 0 0 0 .324.056q.128 0 .255-.022l.196-.038.286 1.351a5 5 0 0 1-.384.098q-.247.06-.6.072-.657.026-1.151-.174a1.6 1.6 0 0 1-.763-.623q-.273-.421-.268-1.065zm6.777-.613h2.275l2.404 5.863h.102l2.403-5.863h2.276v8.727h-1.79v-5.681h-.072l-2.259 5.638h-1.219l-2.258-5.659h-.073v5.702h-1.789zm12.68 8.85q-.625 0-1.116-.217a1.8 1.8 0 0 1-.776-.652q-.28-.435-.281-1.082 0-.546.2-.917.201-.37.546-.596t.784-.341q.443-.115.929-.162.571-.06.92-.111.35-.056.507-.162a.35.35 0 0 0 .158-.315v-.026q0-.404-.256-.626-.251-.222-.715-.222-.49 0-.78.218a1 1 0 0 0-.384.537l-1.679-.137q.128-.596.503-1.031.375-.44.967-.673.597-.239 1.381-.239.546 0 1.044.128.503.127.891.396.392.268.618.691.225.417.225 1.001v4.415h-1.721v-.908h-.051a1.8 1.8 0 0 1-.422.541 2 2 0 0 1-.635.363 2.6 2.6 0 0 1-.857.127m.52-1.252q.4 0 .708-.158.307-.162.481-.435.175-.273.175-.618v-.694a1 1 0 0 1-.234.102 5 5 0 0 1-.329.081q-.183.034-.366.064l-.332.047q-.32.047-.559.149a.9.9 0 0 0-.37.277.68.68 0 0 0-.133.426q0 .37.269.567.273.192.69.192m6.258-2.655v3.784h-1.815v-6.546h1.73v1.155h.077a1.82 1.82 0 0 1 .728-.903q.512-.337 1.24-.337.682 0 1.189.298t.789.853q.28.55.281 1.312v4.168h-1.815v-3.844q.003-.601-.307-.937-.312-.341-.857-.341a1.3 1.3 0 0 0-.647.157q-.278.158-.435.461a1.6 1.6 0 0 0-.158.72m7.384 3.907q-.626 0-1.116-.217a1.8 1.8 0 0 1-.776-.652q-.28-.435-.281-1.082 0-.546.2-.917.201-.37.546-.596t.784-.341q.443-.115.929-.162.57-.06.92-.111.35-.056.507-.162a.36.36 0 0 0 .158-.315v-.026q0-.404-.256-.626-.25-.222-.716-.222-.489 0-.78.218a1 1 0 0 0-.383.537l-1.679-.137q.128-.596.503-1.031.375-.44.967-.673.597-.239 1.381-.239.545 0 1.044.128.502.127.891.396.392.268.617.691.226.417.226 1.001v4.415h-1.721v-.908h-.051a1.9 1.9 0 0 1-.422.541 2 2 0 0 1-.635.363 2.6 2.6 0 0 1-.857.127m.52-1.252q.4 0 .707-.158.308-.162.482-.435.175-.273.175-.618v-.694a1 1 0 0 1-.235.102 5 5 0 0 1-.328.081q-.183.034-.366.064l-.333.047a2.2 2.2 0 0 0-.558.149.9.9 0 0 0-.371.277.67.67 0 0 0-.132.426q0 .37.269.567.273.192.69.192m7.392 3.72q-.883 0-1.513-.243-.627-.239-.997-.652a2 2 0 0 1-.482-.929l1.679-.226q.077.196.243.366.166.171.439.273.276.107.673.107.592 0 .976-.29.387-.285.388-.959v-1.197h-.077a1.7 1.7 0 0 1-.358.515 1.8 1.8 0 0 1-.614.397q-.375.153-.894.153-.738 0-1.343-.341-.6-.345-.959-1.052-.353-.712-.353-1.799 0-1.112.362-1.858.361-.745.963-1.116a2.5 2.5 0 0 1 1.325-.371q.55 0 .921.188.37.183.596.46.231.273.354.537h.068v-1.1h1.803v6.61q0 .835-.409 1.397-.41.563-1.134.844-.72.286-1.657.286m.038-4.049q.439 0 .741-.217.307-.222.469-.631.166-.413.166-.988 0-.576-.162-.997a1.46 1.46 0 0 0-.468-.661 1.2 1.2 0 0 0-.746-.234q-.447 0-.754.243-.308.238-.465.664a2.8 2.8 0 0 0-.158.985q0 .566.158.98.162.409.465.635.307.222.754.221m7.457 1.586q-1.01 0-1.738-.409a2.8 2.8 0 0 1-1.117-1.168q-.392-.759-.392-1.794 0-1.01.392-1.773a2.9 2.9 0 0 1 1.104-1.189q.716-.426 1.679-.426.648 0 1.206.209.563.204.98.618.422.413.656 1.04.235.621.235 1.457v.499h-5.527v-1.125h3.818q0-.392-.171-.695a1.2 1.2 0 0 0-.473-.473 1.34 1.34 0 0 0-.694-.175q-.414 0-.733.192-.315.188-.495.507-.179.315-.183.703v1.07q0 .486.179.839.183.354.516.546.332.192.788.192.303 0 .554-.086t.431-.255a1.1 1.1 0 0 0 .272-.418l1.679.111q-.128.604-.524 1.057a2.6 2.6 0 0 1-1.014.698q-.618.248-1.428.248m4.057-.128v-6.546h1.73v1.155h.077a1.82 1.82 0 0 1 .682-.908q.477-.332 1.142-.332.674 0 1.146.337.474.332.631.903h.068a1.74 1.74 0 0 1 .725-.899q.528-.34 1.248-.341.917 0 1.487.584.576.58.576 1.645v4.402h-1.811v-4.044q0-.546-.29-.818a1.02 1.02 0 0 0-.725-.273q-.494 0-.771.315-.277.312-.277.823v3.997h-1.76v-4.083q0-.481-.277-.767-.273-.285-.72-.285-.303 0-.546.153-.238.15-.379.422-.14.268-.14.631v3.929zm13.797.128q-1.01 0-1.739-.409a2.8 2.8 0 0 1-1.117-1.168q-.392-.759-.392-1.794 0-1.01.392-1.773.393-.762 1.104-1.189.716-.426 1.679-.426.648 0 1.206.209.563.204.98.618.422.413.656 1.04.235.621.235 1.457v.499h-5.527v-1.125h3.818q0-.392-.17-.695a1.23 1.23 0 0 0-.473-.473 1.35 1.35 0 0 0-.695-.175q-.414 0-.733.192-.315.188-.494.507-.18.315-.184.703v1.07q0 .486.179.839.184.354.516.546t.788.192q.303 0 .554-.086t.431-.255a1.1 1.1 0 0 0 .272-.418l1.679.111q-.128.604-.524 1.057a2.6 2.6 0 0 1-1.014.698q-.618.248-1.427.248m5.872-3.912v3.784h-1.816v-6.546h1.731v1.155h.076q.217-.571.729-.903.511-.337 1.24-.337.682 0 1.189.298t.788.853q.282.55.282 1.312v4.168h-1.816v-3.844q.005-.601-.307-.937-.311-.341-.856-.341-.366 0-.648.157a1.1 1.1 0 0 0-.435.461 1.6 1.6 0 0 0-.157.72m8.999-2.762v1.364h-3.942v-1.364zm-3.047-1.568h1.815v6.102q0 .252.077.392a.42.42 0 0 0 .213.192.9.9 0 0 0 .324.056q.127 0 .256-.022l.196-.038.285 1.351a6 6 0 0 1-.383.098q-.247.06-.601.072-.657.026-1.151-.174a1.6 1.6 0 0 1-.763-.623q-.272-.421-.268-1.065z"/><path fill="#fff" stroke="#F6821F" stroke-width="2" d="M296 106h193.883v46H296z"/><path fill="#222" d="M321.115 123.95h-2.637l4.017-11.636h3.171l4.011 11.636h-2.636l-2.915-8.977h-.091zm-.165-4.573h6.227v1.92h-6.227zm9.906 4.573v-8.727h2.347v1.523h.091q.238-.813.801-1.227a2.1 2.1 0 0 1 1.295-.421 3.7 3.7 0 0 1 .762.085v2.148a3 3 0 0 0-.472-.091 4 4 0 0 0-.551-.04q-.534 0-.955.233a1.7 1.7 0 0 0-.659.637 1.84 1.84 0 0 0-.238.943v4.937zm9.897 3.455q-1.176 0-2.017-.324-.835-.318-1.33-.869a2.7 2.7 0 0 1-.642-1.239l2.239-.301q.102.261.324.489.22.227.585.363.369.142.897.142.79 0 1.302-.386.517-.381.517-1.278v-1.597h-.103a2.3 2.3 0 0 1-.477.687 2.4 2.4 0 0 1-.818.529q-.5.204-1.193.204a3.6 3.6 0 0 1-1.79-.454q-.801-.46-1.278-1.404-.472-.948-.472-2.397 0-1.484.483-2.478t1.284-1.488a3.3 3.3 0 0 1 1.767-.494q.733 0 1.227.25.495.244.796.613.307.364.471.716h.091v-1.466h2.404v8.813q0 1.113-.546 1.863-.545.75-1.511 1.125-.96.381-2.21.381m.051-5.398q.586 0 .988-.29.41-.295.625-.84.222-.552.222-1.319t-.216-1.329q-.216-.569-.625-.881t-.994-.312q-.597 0-1.006.324-.41.318-.619.886t-.21 1.312q0 .756.21 1.307.216.546.619.847.41.295 1.006.295m9.909 2.114q-1.324 0-2.29-.563a3.85 3.85 0 0 1-1.483-1.579q-.522-1.017-.522-2.358 0-1.353.522-2.364a3.8 3.8 0 0 1 1.483-1.579q.966-.568 2.29-.568t2.284.568q.966.562 1.489 1.579.522 1.011.522 2.364 0 1.341-.522 2.358a3.84 3.84 0 0 1-1.489 1.579q-.96.563-2.284.563m.011-1.875q.603 0 1.006-.341.404-.346.608-.943.21-.597.21-1.358t-.21-1.358q-.204-.597-.608-.943-.403-.347-1.006-.347-.608 0-1.022.347-.409.346-.62.943-.204.596-.204 1.358 0 .76.204 1.358.211.597.62.943.414.34 1.022.341m15.567-6.585q-.068-.688-.585-1.069-.516-.38-1.403-.38-.603 0-1.017.17a1.44 1.44 0 0 0-.637.46 1.1 1.1 0 0 0-.216.671.96.96 0 0 0 .131.545q.148.234.404.404.255.165.59.29.336.118.716.204l1.046.25q.76.17 1.398.455.636.283 1.102.699.465.414.721.977.263.563.267 1.29-.005 1.068-.545 1.852-.534.778-1.545 1.21-1.007.426-2.427.426-1.409 0-2.454-.432-1.04-.431-1.625-1.278-.58-.852-.608-2.108h2.381q.04.585.335.977.302.387.801.586.506.192 1.142.193.625 0 1.085-.182.466-.182.722-.506a1.17 1.17 0 0 0 .256-.744.97.97 0 0 0-.233-.659q-.228-.267-.671-.455a7 7 0 0 0-1.074-.341l-1.267-.318q-1.471-.358-2.324-1.119t-.846-2.051q-.006-1.057.562-1.847.574-.789 1.574-1.233 1-.443 2.273-.443 1.295 0 2.261.443.972.444 1.512 1.233.539.79.556 1.83zm3.951 8.289v-8.727h2.307v1.54h.102q.273-.767.909-1.21.636-.444 1.523-.443.897 0 1.528.448.631.444.841 1.205h.091q.267-.75.966-1.199.705-.454 1.665-.454 1.221 0 1.983.778.767.772.767 2.193v5.869h-2.415v-5.392q0-.726-.386-1.091-.387-.363-.966-.363-.66 0-1.029.42-.369.415-.369 1.097v5.329h-2.347v-5.443q0-.642-.369-1.022-.364-.381-.96-.381-.404 0-.728.204-.318.199-.505.563a1.8 1.8 0 0 0-.188.841v5.238zm16.906.165q-.836 0-1.488-.29a2.4 2.4 0 0 1-1.034-.869q-.375-.579-.375-1.443 0-.727.267-1.222.267-.493.727-.795a3.5 3.5 0 0 1 1.045-.455 8 8 0 0 1 1.239-.216q.761-.08 1.227-.147.466-.075.676-.216a.48.48 0 0 0 .211-.421v-.034q0-.54-.341-.835-.336-.295-.955-.295-.654 0-1.04.289-.386.284-.511.716l-2.239-.182q.17-.795.671-1.375a3.2 3.2 0 0 1 1.29-.897q.795-.318 1.84-.318.727 0 1.393.17.67.171 1.187.528.522.359.824.921.301.556.301 1.335v5.886h-2.295v-1.21h-.069q-.21.409-.562.722a2.6 2.6 0 0 1-.847.483q-.494.17-1.142.17m.693-1.67q.534 0 .944-.21.408-.217.642-.58.233-.363.233-.824v-.926q-.114.074-.313.136a6 6 0 0 1-.437.108 21 21 0 0 1-.489.086l-.443.062a3 3 0 0 0-.745.199 1.2 1.2 0 0 0-.494.369.9.9 0 0 0-.176.568q0 .495.358.756.363.256.92.256m5.924 1.505v-8.727h2.346v1.523h.091q.239-.813.801-1.227a2.1 2.1 0 0 1 1.296-.421 3.7 3.7 0 0 1 .761.085v2.148a3 3 0 0 0-.471-.091 4 4 0 0 0-.551-.04 1.94 1.94 0 0 0-.955.233 1.7 1.7 0 0 0-.659.637 1.84 1.84 0 0 0-.239.943v4.937zm11.45-8.727v1.818h-5.255v-1.818zm-4.062-2.091h2.42v8.137q0 .335.102.522a.56.56 0 0 0 .285.256q.188.074.431.074.171 0 .341-.029l.262-.051.38 1.801a7 7 0 0 1-.511.131q-.33.08-.801.097-.875.034-1.534-.233a2.14 2.14 0 0 1-1.017-.83q-.364-.562-.358-1.42zm9.036 10.818v-11.636h4.59q1.319 0 2.25.472.938.465 1.427 1.324.494.852.494 2.005 0 1.16-.5 1.995-.5.83-1.449 1.272-.943.444-2.284.443h-3.074v-1.977h2.676q.705 0 1.171-.193.465-.193.693-.58.233-.385.233-.96 0-.58-.233-.977a1.43 1.43 0 0 0-.699-.602q-.466-.21-1.176-.211h-1.659v9.625zm6.284-5.295 2.892 5.295h-2.716l-2.83-5.295zm7.797 5.466q-1.324 0-2.29-.563a3.84 3.84 0 0 1-1.483-1.579q-.523-1.017-.523-2.358 0-1.353.523-2.364a3.8 3.8 0 0 1 1.483-1.579q.966-.568 2.29-.568 1.323 0 2.284.568.966.562 1.488 1.579.523 1.011.523 2.364 0 1.341-.523 2.358a3.83 3.83 0 0 1-1.488 1.579q-.96.563-2.284.563m.011-1.875q.603 0 1.006-.341.403-.346.608-.943.21-.597.21-1.358t-.21-1.358q-.205-.597-.608-.943-.403-.347-1.006-.347-.607 0-1.023.347-.408.346-.619.943-.204.596-.205 1.358 0 .76.205 1.358.21.597.619.943.416.34 1.023.341m11.279-2.011v-5.012h2.42v8.727h-2.324v-1.585h-.091a2.57 2.57 0 0 1-.983 1.233q-.681.466-1.664.466-.876 0-1.54-.398a2.74 2.74 0 0 1-1.04-1.13q-.369-.733-.375-1.756v-5.557h2.42v5.125q.006.773.415 1.222t1.097.449q.437 0 .818-.199.38-.205.614-.603.238-.397.233-.982m8.822-5.012v1.818h-5.256v-1.818zm-4.062-2.091h2.42v8.137q0 .335.102.522a.56.56 0 0 0 .284.256q.188.074.432.074.171 0 .341-.029l.262-.051.38 1.801a7 7 0 0 1-.511.131q-.33.08-.801.097-.876.034-1.534-.233a2.14 2.14 0 0 1-1.017-.83q-.364-.562-.358-1.42zm5.463 10.818v-8.727h2.42v8.727zm1.216-9.852q-.54 0-.926-.358a1.16 1.16 0 0 1-.381-.869q0-.5.381-.858.386-.364.926-.364t.92.364q.387.359.387.858 0 .506-.387.869-.38.358-.92.358m5.388 4.807v5.045h-2.421v-8.727h2.307v1.54h.102a2.44 2.44 0 0 1 .972-1.205q.682-.448 1.653-.448.91 0 1.586.397.675.398 1.051 1.137.375.733.375 1.75v5.556h-2.421v-5.125q.006-.8-.409-1.25-.414-.454-1.142-.454-.489 0-.864.21-.369.21-.579.614-.205.398-.21.96m11.288 8.5q-1.176 0-2.017-.324-.836-.318-1.329-.869a2.67 2.67 0 0 1-.642-1.239l2.238-.301q.102.261.324.489t.585.363q.37.142.898.142.79 0 1.301-.386.517-.381.517-1.278v-1.597h-.102a2.3 2.3 0 0 1-.477.687 2.4 2.4 0 0 1-.819.529q-.5.204-1.193.204a3.6 3.6 0 0 1-1.79-.454q-.801-.46-1.278-1.404-.472-.948-.472-2.397 0-1.484.483-2.478t1.285-1.488a3.3 3.3 0 0 1 1.767-.494q.732 0 1.227.25.494.244.795.613.307.364.472.716h.091v-1.466h2.403v8.813q0 1.113-.545 1.863-.546.75-1.512 1.125-.96.381-2.21.381m.051-5.398q.585 0 .989-.29.41-.295.625-.84.222-.552.222-1.319t-.216-1.329q-.216-.569-.625-.881t-.995-.312q-.596 0-1.005.324-.41.318-.62.886t-.21 1.312q0 .756.21 1.307.216.546.62.847.409.295 1.005.295"/><path fill="#fff" stroke="#F6821F" stroke-width="2" d="M295 282h117.875v24.927H295z"/><path fill="#222" d="M341.987 297.876h-3.094v-8.727h3.119q1.317 0 2.267.524a3.53 3.53 0 0 1 1.462 1.496q.516.976.516 2.335 0 1.363-.516 2.344a3.55 3.55 0 0 1-1.47 1.504q-.955.524-2.284.524m-1.249-1.581h1.172q.818 0 1.376-.29.563-.294.844-.907.286-.618.286-1.594 0-.967-.286-1.581a1.85 1.85 0 0 0-.839-.904q-.558-.29-1.377-.289h-1.176zm9.847 1.581h-3.094v-8.727h3.12q1.317 0 2.267.524a3.53 3.53 0 0 1 1.461 1.496q.516.976.516 2.335 0 1.363-.516 2.344a3.54 3.54 0 0 1-1.47 1.504q-.954.524-2.284.524m-1.248-1.581h1.172q.818 0 1.376-.29.562-.294.844-.907.285-.618.285-1.594 0-.967-.285-1.581a1.86 1.86 0 0 0-.84-.904q-.558-.29-1.376-.289h-1.176zm9.676 1.709q-.993 0-1.717-.422a2.9 2.9 0 0 1-1.112-1.185q-.392-.762-.392-1.768 0-1.014.392-1.773a2.86 2.86 0 0 1 1.112-1.185q.724-.426 1.717-.426t1.713.426q.724.423 1.117 1.185.392.759.392 1.773 0 1.005-.392 1.768a2.9 2.9 0 0 1-1.117 1.185q-.72.422-1.713.422m.009-1.406q.451 0 .754-.256.303-.26.456-.708.158-.447.158-1.018t-.158-1.018a1.6 1.6 0 0 0-.456-.708 1.12 1.12 0 0 0-.754-.26q-.456 0-.767.26-.308.26-.465.708a3.1 3.1 0 0 0-.153 1.018q0 .571.153 1.018.158.448.465.708.31.255.767.256m9.03-4.939a1.08 1.08 0 0 0-.439-.801q-.389-.286-1.053-.286-.451 0-.763.128a1.07 1.07 0 0 0-.477.345.83.83 0 0 0-.162.503.73.73 0 0 0 .098.409q.111.174.303.302.192.124.443.218.252.09.537.153l.784.188q.571.128 1.048.341.477.212.827.524.35.31.541.733.197.421.2.967-.003.801-.409 1.389-.4.584-1.159.908-.754.32-1.819.32-1.057 0-1.841-.324a2.7 2.7 0 0 1-1.219-.959q-.435-.639-.456-1.581h1.786q.029.44.251.733.226.29.601.439.38.144.856.145.47 0 .814-.137.35-.136.541-.379a.88.88 0 0 0 .192-.558.73.73 0 0 0-.174-.495 1.3 1.3 0 0 0-.503-.34 5 5 0 0 0-.806-.256l-.95-.239q-1.104-.269-1.743-.839-.64-.572-.635-1.539-.004-.792.422-1.385.43-.592 1.18-.924t1.705-.333q.972 0 1.696.333.729.332 1.134.924t.417 1.373z"/><path fill="#fff" stroke="#F6821F" stroke-width="2" d="M295 313h117.875v24.927H295z"/><path fill="#222" d="M345.554 328.74h-3.094v-8.728h3.119q1.317 0 2.267.525a3.53 3.53 0 0 1 1.462 1.495q.515.976.515 2.336 0 1.363-.515 2.343a3.55 3.55 0 0 1-1.47 1.505q-.955.524-2.284.524m-1.249-1.581h1.172q.818 0 1.376-.29.563-.294.844-.908.286-.618.286-1.593 0-.967-.286-1.581a1.85 1.85 0 0 0-.839-.904q-.559-.29-1.377-.29h-1.176zm14.053-7.147v8.728h-1.594l-3.797-5.493h-.064v5.493h-1.845v-8.728h1.62l3.767 5.489h.076v-5.489zm6.127 2.51a1.08 1.08 0 0 0-.439-.801q-.388-.285-1.053-.285a2 2 0 0 0-.762.128 1.07 1.07 0 0 0-.478.345.83.83 0 0 0-.162.503.73.73 0 0 0 .098.409q.111.174.303.302.192.124.443.218.252.089.537.153l.784.188q.571.127 1.048.34t.827.525q.35.31.541.733.197.421.201.967-.005.801-.409 1.389-.4.584-1.16.908-.753.32-1.819.319-1.057 0-1.841-.324a2.7 2.7 0 0 1-1.219-.958q-.435-.639-.456-1.581h1.786q.03.438.251.733.226.29.601.439a2.4 2.4 0 0 0 .857.144q.468 0 .814-.136.349-.136.541-.379a.87.87 0 0 0 .191-.558.73.73 0 0 0-.174-.495 1.34 1.34 0 0 0-.503-.341 5 5 0 0 0-.805-.255l-.951-.239q-1.104-.269-1.743-.839-.639-.572-.635-1.539-.004-.792.422-1.385.43-.592 1.181-.924.75-.333 1.704-.333.972 0 1.696.333.729.332 1.134.924t.417 1.372z"/><path fill="#fff" stroke="#F6821F" stroke-width="2" d="M422 313h117.875v24.927H422z"/><path fill="#222" d="M447.703 323.068h-1.867a1.8 1.8 0 0 0-.208-.644 1.6 1.6 0 0 0-.405-.485 1.8 1.8 0 0 0-.571-.307 2.2 2.2 0 0 0-.695-.107q-.678 0-1.18.337-.503.332-.78.971-.277.636-.277 1.543 0 .933.277 1.568.281.636.784.959a2.1 2.1 0 0 0 1.163.324q.372 0 .686-.098a1.8 1.8 0 0 0 .567-.286q.247-.19.409-.464.167-.273.23-.622l1.867.008a3.48 3.48 0 0 1-1.134 2.152q-.481.435-1.15.691a4.2 4.2 0 0 1-1.504.251q-1.168 0-2.089-.528-.915-.53-1.448-1.53-.53-1.002-.529-2.425 0-1.428.537-2.429t1.458-1.525q.92-.53 2.071-.529.758 0 1.406.213.651.214 1.155.622.503.405.818.993.32.588.409 1.347m4.285 5.672h-3.094v-8.728h3.119q1.317 0 2.267.525a3.53 3.53 0 0 1 1.462 1.495q.516.976.516 2.336 0 1.363-.516 2.343a3.55 3.55 0 0 1-1.47 1.505q-.955.524-2.284.524m-1.249-1.581h1.172q.818 0 1.377-.29.563-.294.843-.908.286-.618.286-1.593 0-.967-.286-1.581a1.85 1.85 0 0 0-.839-.904q-.558-.29-1.377-.29h-1.176zm14.053-7.147v8.728h-1.593l-3.797-5.493h-.064v5.493h-1.845v-8.728h1.619l3.767 5.489h.077v-5.489zm7.805-.409-2.812 10.449h-1.564l2.812-10.449zm11.123 3.465h-1.867a1.8 1.8 0 0 0-.209-.644 1.6 1.6 0 0 0-.405-.485 1.8 1.8 0 0 0-.571-.307 2.2 2.2 0 0 0-.694-.107q-.677 0-1.181.337-.503.332-.779.971-.277.636-.277 1.543 0 .933.277 1.568.28.636.784.959a2.1 2.1 0 0 0 1.163.324q.37 0 .686-.098.32-.098.567-.286.247-.19.409-.464.166-.273.23-.622l1.867.008q-.073.601-.363 1.159-.285.555-.771.993a3.6 3.6 0 0 1-1.151.691 4.2 4.2 0 0 1-1.504.251q-1.167 0-2.088-.528-.916-.53-1.449-1.53-.528-1.002-.528-2.425 0-1.428.537-2.429t1.457-1.525q.92-.53 2.071-.529.76 0 1.406.213.653.214 1.155.622.503.405.818.993.32.588.41 1.347m3.023 5.795a2.7 2.7 0 0 1-1.116-.217 1.8 1.8 0 0 1-.776-.652q-.28-.435-.281-1.082 0-.546.2-.917a1.6 1.6 0 0 1 .545-.596q.346-.226.785-.341.443-.115.929-.162.57-.06.92-.111.35-.055.507-.162a.36.36 0 0 0 .158-.315v-.026q0-.404-.256-.626-.252-.222-.716-.222-.49 0-.78.218a1 1 0 0 0-.383.537l-1.679-.137q.128-.596.503-1.031.375-.44.967-.673.597-.239 1.381-.239.544 0 1.044.128.503.127.89.396.393.268.618.691.226.417.226 1.001v4.415h-1.721v-.908h-.052a1.8 1.8 0 0 1-.421.541 2 2 0 0 1-.635.362 2.6 2.6 0 0 1-.857.128m.52-1.253q.4 0 .707-.157.307-.162.482-.435t.175-.618v-.694a1 1 0 0 1-.235.102 5 5 0 0 1-.328.081q-.183.034-.366.064l-.333.047a2.2 2.2 0 0 0-.558.149.9.9 0 0 0-.371.277.67.67 0 0 0-.132.426q0 .37.269.567.272.192.69.191m7.4 1.258q-1.006 0-1.73-.427a2.87 2.87 0 0 1-1.108-1.193q-.384-.762-.384-1.755 0-1.006.388-1.765a2.9 2.9 0 0 1 1.112-1.189q.72-.43 1.713-.43.857 0 1.5.311.644.312 1.019.874t.413 1.321h-1.713q-.072-.49-.383-.789-.307-.302-.806-.302a1.22 1.22 0 0 0-.737.23 1.5 1.5 0 0 0-.486.66q-.175.435-.175 1.053 0 .627.171 1.065.174.44.49.669.315.231.737.231.312 0 .558-.128.252-.129.414-.371.166-.247.217-.592h1.713q-.043.75-.409 1.321a2.47 2.47 0 0 1-1.001.886q-.64.32-1.513.32m5.769-3.912v3.784h-1.816v-8.728h1.765v3.337h.076q.222-.58.716-.908.495-.332 1.24-.332.682 0 1.189.298.511.294.793.848.285.55.281 1.317v4.168h-1.815v-3.844q.004-.604-.307-.942-.308-.336-.861-.336-.37 0-.656.157a1.1 1.1 0 0 0-.443.46 1.56 1.56 0 0 0-.162.721m5.541 3.784v-6.546h1.815v6.546zm.912-7.389a1 1 0 0 1-.695-.269.87.87 0 0 1-.285-.652q0-.375.285-.643a.98.98 0 0 1 .695-.273q.405 0 .69.273.29.268.29.643 0 .38-.29.652a.97.97 0 0 1-.69.269m4.041 3.605v3.784h-1.816v-6.546h1.73v1.155h.077q.218-.571.729-.903.511-.337 1.24-.337.681 0 1.189.298.507.298.788.853.282.55.281 1.312v4.168h-1.815v-3.844q.005-.601-.307-.938-.311-.34-.856-.34a1.3 1.3 0 0 0-.648.157 1.1 1.1 0 0 0-.435.46 1.6 1.6 0 0 0-.157.721m8.466 6.375q-.882 0-1.513-.243-.626-.239-.997-.652a2 2 0 0 1-.481-.929l1.678-.226a1.11 1.11 0 0 0 .682.639q.277.107.674.107.592 0 .975-.29.388-.285.388-.959v-1.197h-.076a1.74 1.74 0 0 1-.972.912q-.375.153-.895.153-.737 0-1.342-.341-.601-.345-.959-1.052-.354-.712-.354-1.799 0-1.112.362-1.858.363-.745.964-1.116a2.5 2.5 0 0 1 1.325-.371q.55 0 .92.188.37.183.597.46.23.273.354.537h.068v-1.1h1.802v6.61q0 .834-.409 1.397t-1.133.844q-.72.286-1.658.286m.038-4.049q.44 0 .742-.217.306-.222.469-.631a2.7 2.7 0 0 0 .166-.988q0-.576-.162-.997a1.45 1.45 0 0 0-.469-.661 1.2 1.2 0 0 0-.746-.234q-.447 0-.754.243-.306.238-.464.664a2.8 2.8 0 0 0-.158.985q0 .566.158.98.161.409.464.635.307.22.754.221"/><path fill="#5E5E5E" d="M140.638 312a1.5 1.5 0 0 0 0 3zm142.423 2.561a1.5 1.5 0 0 0 0-2.122l-9.546-9.546a1.5 1.5 0 0 0-2.122 0 1.5 1.5 0 0 0 0 2.122l8.486 8.485-8.486 8.485a1.5 1.5 0 0 0 0 2.122 1.5 1.5 0 0 0 2.122 0zM140.638 315H282v-3H140.638z"/><path fill="#fff" stroke="#F6821F" stroke-width="2" d="M578 69h261v129H578z"/><path fill="#222" d="M662.464 90V78.364h2.461v9.608h4.988V90zm12.976.17q-1.323 0-2.289-.562a3.84 3.84 0 0 1-1.483-1.58q-.523-1.017-.523-2.358 0-1.352.523-2.363a3.8 3.8 0 0 1 1.483-1.58q.966-.568 2.289-.568t2.284.568a3.8 3.8 0 0 1 1.489 1.58q.523 1.011.523 2.364 0 1.34-.523 2.357a3.84 3.84 0 0 1-1.489 1.58q-.96.563-2.284.563m.012-1.874q.601 0 1.005-.342.404-.346.608-.943.21-.596.211-1.358 0-.76-.211-1.358-.204-.596-.608-.943-.404-.346-1.005-.346-.609 0-1.023.346-.41.347-.619.944-.205.596-.205 1.357t.205 1.358q.21.597.619.944.414.34 1.023.34m13.119-4.535-2.216.137a1.15 1.15 0 0 0-.244-.512 1.3 1.3 0 0 0-.495-.369 1.7 1.7 0 0 0-.721-.142q-.562 0-.949.239-.386.232-.386.625 0 .312.25.528.249.216.858.347l1.579.318q1.273.261 1.898.84.625.58.625 1.523 0 .858-.506 1.506-.5.649-1.375 1.011-.869.36-2.005.359-1.734 0-2.762-.722a2.8 2.8 0 0 1-1.199-1.977l2.381-.125q.108.528.523.806.414.273 1.062.273.636 0 1.023-.244.392-.25.398-.642a.67.67 0 0 0-.279-.54q-.273-.216-.841-.33l-1.511-.3q-1.279-.257-1.903-.887-.62-.63-.62-1.608 0-.84.455-1.449.46-.608 1.29-.937.835-.33 1.954-.33 1.654 0 2.602.699.955.699 1.114 1.903M696.048 90h-2.636l4.017-11.636h3.17L704.611 90h-2.637l-2.914-8.977h-.091zm-.164-4.574h6.227v1.92h-6.227zm12.502-.472V90h-2.42v-8.727h2.307v1.54h.102q.29-.762.972-1.205.681-.45 1.653-.449.909 0 1.585.398t1.051 1.136q.375.733.375 1.75V90h-2.42v-5.125q.005-.8-.409-1.25-.415-.454-1.142-.454-.489 0-.864.21-.369.21-.579.613-.205.398-.211.96m11.465 8.5q-1.177 0-2.017-.323-.835-.318-1.33-.87a2.7 2.7 0 0 1-.642-1.238l2.239-.301q.102.261.324.488.221.228.585.364.369.142.898.142.79 0 1.301-.386.517-.38.517-1.279v-1.597h-.102a2.3 2.3 0 0 1-.478.688 2.4 2.4 0 0 1-.818.529q-.5.204-1.193.204a3.6 3.6 0 0 1-1.79-.454q-.801-.46-1.278-1.404-.472-.948-.472-2.398 0-1.482.483-2.477t1.284-1.489a3.3 3.3 0 0 1 1.767-.494q.733 0 1.228.25.494.244.795.614.307.363.472.716h.09v-1.466h2.404v8.812q0 1.114-.546 1.864-.545.75-1.511 1.125-.96.38-2.21.38m.051-5.397q.585 0 .989-.29.409-.296.625-.84.22-.552.221-1.319 0-.767-.216-1.33-.216-.567-.625-.88t-.994-.313q-.597 0-1.006.324-.409.319-.619.886-.21.57-.21 1.313 0 .756.21 1.307.216.545.619.846.41.296 1.006.296m10.119 2.114q-1.346 0-2.318-.546a3.74 3.74 0 0 1-1.489-1.557q-.522-1.01-.522-2.392 0-1.347.522-2.364a3.87 3.87 0 0 1 1.472-1.585q.954-.568 2.239-.568a4.6 4.6 0 0 1 1.608.278q.75.273 1.306.824.563.552.875 1.387.313.829.313 1.943v.665h-7.369v-1.5h5.091a1.85 1.85 0 0 0-.228-.927 1.6 1.6 0 0 0-.63-.63 1.8 1.8 0 0 0-.927-.233q-.55 0-.977.256-.42.25-.659.676-.238.42-.244.937v1.426q0 .648.238 1.12.244.47.688.727.443.255 1.051.256.403 0 .739-.114.334-.114.574-.34.238-.228.363-.558l2.239.148a3.06 3.06 0 0 1-.699 1.41q-.522.596-1.352.93-.824.33-1.904.33m8.006-11.807V90h-2.42V78.364zm5.916 11.807q-1.347 0-2.318-.546a3.74 3.74 0 0 1-1.489-1.557q-.522-1.01-.522-2.392 0-1.347.522-2.364a3.87 3.87 0 0 1 1.472-1.585q.955-.568 2.239-.568a4.6 4.6 0 0 1 1.608.278q.75.273 1.306.824.563.552.875 1.387.313.829.313 1.943v.665h-7.369v-1.5h5.09a1.85 1.85 0 0 0-.227-.927 1.63 1.63 0 0 0-.631-.63 1.8 1.8 0 0 0-.926-.233q-.55 0-.977.256-.42.25-.659.676-.239.42-.244.937v1.426q0 .648.238 1.12.244.47.688.727.443.255 1.051.256.403 0 .739-.114.334-.114.573-.34.24-.228.364-.558l2.239.148a3.06 3.06 0 0 1-.699 1.41 3.5 3.5 0 0 1-1.352.93q-.824.33-1.904.33m12.847-6.41-2.216.137a1.15 1.15 0 0 0-.244-.512 1.3 1.3 0 0 0-.495-.369 1.7 1.7 0 0 0-.721-.142q-.563 0-.949.239-.387.232-.387.625 0 .312.25.528t.858.347l1.58.318q1.272.261 1.898.84.625.58.625 1.523 0 .858-.506 1.506-.5.649-1.375 1.011-.87.36-2.006.359-1.732 0-2.761-.722a2.8 2.8 0 0 1-1.199-1.977l2.381-.125q.108.528.522.806.415.273 1.063.273.636 0 1.023-.244.392-.25.397-.642a.67.67 0 0 0-.278-.54q-.273-.216-.841-.33l-1.511-.3q-1.279-.257-1.904-.887-.62-.63-.619-1.608 0-.84.455-1.449.46-.608 1.289-.937.836-.33 1.955-.33 1.654 0 2.602.699.955.699 1.114 1.903"/><path fill="#fff" stroke="#F6821F" stroke-width="2" d="M586 164h117.875v24.927H586z"/><path fill="#222" d="m634.358 179.876-2.497-8.727h2.015l1.445 6.064h.072l1.594-6.064h1.726l1.59 6.076h.076l1.445-6.076h2.015l-2.497 8.727h-1.798l-1.662-5.706h-.068l-1.658 5.706zm10.962 0h-1.977l3.013-8.727h2.378l3.008 8.727h-1.977l-2.186-6.733h-.068zm-.123-3.43h4.67v1.44h-4.67zm7.464 3.43v-8.727h5.778v1.521h-3.933v2.08h3.55v1.521h-3.55v3.605z"/><path fill="#fff" stroke="#F6821F" stroke-width="2" d="M713 164h117.875v24.927H713z"/><path fill="#222" d="M737.871 179.876h-1.977l3.012-8.727h2.378l3.009 8.727h-1.977l-2.186-6.733h-.069zm-.124-3.43h4.671v1.44h-4.671zm7.464 3.43v-8.727h3.443q.993 0 1.692.379.699.375 1.066 1.044.37.665.37 1.534 0 .87-.375 1.534-.375.665-1.086 1.036-.708.37-1.713.37h-2.195v-1.478h1.896q.533 0 .878-.184.35-.187.52-.515a1.6 1.6 0 0 0 .175-.763q0-.435-.175-.758a1.17 1.17 0 0 0-.52-.508q-.35-.183-.886-.183h-1.245v7.219zm9.483-8.727v8.727h-1.845v-8.727zm9.818 2.821a1.9 1.9 0 0 0-.251-.55 1.7 1.7 0 0 0-.925-.669 2.2 2.2 0 0 0-.652-.09q-.669 0-1.176.333-.502.332-.784.967-.28.631-.281 1.543 0 .912.277 1.551.276.639.784.976.507.332 1.197.332.626 0 1.07-.221.447-.227.682-.635a1.9 1.9 0 0 0 .238-.968l.375.056h-2.25v-1.389h3.652v1.099q0 1.15-.485 1.977-.486.823-1.339 1.27-.852.444-1.951.443-1.227 0-2.156-.541a3.75 3.75 0 0 1-1.449-1.547q-.516-1.006-.516-2.386 0-1.061.307-1.892a4 4 0 0 1 .869-1.415q.559-.579 1.3-.882a4.2 4.2 0 0 1 1.606-.303q.742 0 1.381.218.639.212 1.134.605.498.392.814.933.315.537.404 1.185zm5.043 6.03q-.627 0-1.117-.218a1.8 1.8 0 0 1-.775-.652q-.282-.435-.282-1.082 0-.546.201-.916.2-.371.545-.597t.784-.341q.443-.115.929-.162.571-.06.921-.111.35-.055.507-.162a.36.36 0 0 0 .157-.315v-.025q0-.405-.255-.627-.251-.222-.716-.221-.49 0-.78.217a1 1 0 0 0-.383.537l-1.679-.137q.127-.596.502-1.031.375-.439.968-.673.596-.239 1.38-.239.546 0 1.044.128.504.127.891.396.392.269.618.691.226.417.226 1.001v4.415h-1.722v-.908h-.051a1.8 1.8 0 0 1-.422.541 1.9 1.9 0 0 1-.635.363 2.6 2.6 0 0 1-.856.128m.52-1.253q.4 0 .707-.158.307-.162.482-.435a1.1 1.1 0 0 0 .174-.618v-.694a1 1 0 0 1-.234.102 4 4 0 0 1-.328.081q-.183.034-.367.064l-.332.047a2.2 2.2 0 0 0-.558.149.9.9 0 0 0-.371.277.68.68 0 0 0-.132.426q0 .37.268.567.273.192.691.192m7.924-5.416v1.363h-3.942v-1.363zm-3.047-1.569h1.815v6.103a.8.8 0 0 0 .077.392.42.42 0 0 0 .213.191.9.9 0 0 0 .324.056q.127 0 .256-.021l.196-.039.285 1.351a6 6 0 0 1-.383.098q-.248.06-.601.072-.657.026-1.151-.174a1.6 1.6 0 0 1-.763-.622q-.272-.423-.268-1.066zm7.01 8.242q-1.01 0-1.739-.409a2.8 2.8 0 0 1-1.116-1.168q-.393-.759-.392-1.794 0-1.01.392-1.773a2.9 2.9 0 0 1 1.103-1.189q.716-.426 1.679-.426.648 0 1.206.209.563.204.981.618.422.414.656 1.04.234.622.234 1.457v.499h-5.527v-1.125h3.818q0-.393-.17-.695a1.2 1.2 0 0 0-.473-.473 1.36 1.36 0 0 0-.695-.175q-.413 0-.733.192-.315.188-.494.507-.178.316-.183.703v1.07q0 .486.179.839.183.354.515.546.333.192.789.192.302 0 .554-.086.251-.085.43-.255.178-.17.273-.418l1.679.111q-.128.605-.524 1.057-.393.447-1.015.699-.617.246-1.427.247m5.301-.128-1.781-6.545h1.837l1.014 4.397h.059l1.057-4.397h1.803l1.074 4.372h.055l.997-4.372h1.833l-1.777 6.545h-1.922l-1.125-4.117h-.081l-1.125 4.117zm10.65.124q-.625 0-1.116-.218a1.8 1.8 0 0 1-.776-.652q-.28-.435-.281-1.082 0-.546.2-.916.201-.371.546-.597t.784-.341q.443-.115.929-.162.571-.06.92-.111.35-.055.508-.162a.36.36 0 0 0 .157-.315v-.025q0-.405-.255-.627-.252-.222-.716-.221-.49 0-.78.217a1 1 0 0 0-.384.537l-1.679-.137q.129-.596.503-1.031.375-.439.967-.673.597-.239 1.381-.239.546 0 1.044.128.503.127.891.396.392.269.618.691.226.417.226 1.001v4.415h-1.722v-.908h-.051a1.8 1.8 0 0 1-.422.541 1.9 1.9 0 0 1-.635.363 2.6 2.6 0 0 1-.857.128m.52-1.253q.4 0 .708-.158.307-.162.481-.435.175-.272.175-.618v-.694a1 1 0 0 1-.234.102 4 4 0 0 1-.329.081q-.183.034-.366.064l-.332.047q-.32.047-.559.149a.9.9 0 0 0-.37.277.68.68 0 0 0-.132.426q0 .37.268.567.273.192.69.192m5.329 3.584q-.345 0-.647-.056a2.4 2.4 0 0 1-.495-.132l.409-1.355q.32.098.576.106a.73.73 0 0 0 .447-.119q.192-.128.311-.435l.107-.277-2.348-6.732h1.909l1.355 4.806h.068l1.368-4.806h1.922l-2.544 7.252a3 3 0 0 1-.499.921q-.31.396-.788.609-.477.218-1.151.218"/><path fill="#fff" stroke="#F6821F" stroke-width="2" d="M713 102h117.875v24.927H713z"/><path fill="#222" d="M723.838 118.624v-8.727h3.494q.964 0 1.607.285t.967.793q.324.502.324 1.159 0 .511-.204.899a1.8 1.8 0 0 1-.563.631 2.3 2.3 0 0 1-.809.345v.085q.498.021.933.281.439.26.711.729.273.465.273 1.108 0 .694-.345 1.24-.34.541-1.01.856-.67.316-1.649.316zm1.845-1.509h1.505q.771 0 1.125-.294a.99.99 0 0 0 .353-.792q0-.363-.174-.64a1.2 1.2 0 0 0-.499-.434 1.7 1.7 0 0 0-.763-.158h-1.547zm0-3.567h1.368q.38 0 .674-.132.298-.136.468-.383a1 1 0 0 0 .175-.592.96.96 0 0 0-.337-.763q-.332-.29-.946-.29h-1.402zm8.88 5.204q-.993 0-1.717-.422a2.9 2.9 0 0 1-1.112-1.185q-.393-.763-.393-1.768 0-1.015.393-1.773a2.85 2.85 0 0 1 1.112-1.185q.724-.426 1.717-.426t1.713.426q.724.422 1.117 1.185.392.758.392 1.773 0 1.005-.392 1.768a2.9 2.9 0 0 1-1.117 1.185q-.72.422-1.713.422m.009-1.407q.451 0 .754-.255.303-.26.456-.708.157-.447.157-1.018t-.157-1.019a1.6 1.6 0 0 0-.456-.707 1.12 1.12 0 0 0-.754-.26q-.456 0-.767.26-.308.26-.465.707a3.2 3.2 0 0 0-.153 1.019q0 .571.153 1.018.157.448.465.708.31.255.767.255m7.743-5.267v1.364h-3.942v-1.364zm-3.047-1.568h1.815v6.102q0 .252.077.392a.42.42 0 0 0 .213.192.9.9 0 0 0 .324.056q.127 0 .255-.022l.196-.038.286 1.351a5 5 0 0 1-.384.098q-.247.06-.6.072-.657.025-1.151-.174a1.6 1.6 0 0 1-.763-.623q-.273-.421-.268-1.065zm6.777-.613h2.275l2.404 5.863h.102l2.403-5.863h2.276v8.727h-1.79v-5.681h-.072l-2.259 5.638h-1.219l-2.258-5.659h-.073v5.702h-1.789zm12.68 8.85q-.625 0-1.116-.217a1.8 1.8 0 0 1-.776-.652q-.28-.435-.281-1.082 0-.546.2-.917.201-.37.546-.596t.784-.341q.443-.115.929-.162.571-.06.92-.111.35-.055.507-.162a.35.35 0 0 0 .158-.315v-.026q0-.404-.256-.626-.251-.222-.715-.222-.49 0-.78.218a1 1 0 0 0-.384.537l-1.679-.137q.128-.596.503-1.031.375-.44.967-.673.597-.239 1.381-.239.546 0 1.044.128.502.127.891.396.391.268.618.691.225.417.225 1.001v4.415h-1.721v-.908h-.051a1.8 1.8 0 0 1-.422.541 2 2 0 0 1-.635.363 2.6 2.6 0 0 1-.857.127m.52-1.252q.4 0 .708-.158.306-.162.481-.435t.175-.618v-.694a1 1 0 0 1-.234.102 5 5 0 0 1-.329.081q-.183.034-.366.064l-.332.047q-.32.047-.559.149a.9.9 0 0 0-.37.277.68.68 0 0 0-.133.426q0 .37.269.567.273.192.69.192m6.258-2.655v3.784h-1.815v-6.546h1.73v1.155h.077a1.82 1.82 0 0 1 .728-.903q.512-.337 1.24-.337.682 0 1.189.298t.789.853q.28.55.281 1.312v4.168h-1.815v-3.844q.003-.601-.307-.937-.311-.341-.857-.341a1.3 1.3 0 0 0-.647.157q-.278.158-.435.461a1.6 1.6 0 0 0-.158.72m7.384 3.907q-.626 0-1.116-.217a1.8 1.8 0 0 1-.776-.652q-.28-.435-.281-1.082 0-.546.2-.917.201-.37.546-.596t.784-.341q.443-.115.929-.162.57-.06.92-.111.35-.055.507-.162a.36.36 0 0 0 .158-.315v-.026q0-.404-.256-.626-.25-.222-.716-.222-.489 0-.78.218a1 1 0 0 0-.383.537l-1.679-.137q.128-.596.503-1.031.375-.44.967-.673.597-.239 1.381-.239.545 0 1.044.128.503.127.891.396.392.268.617.691.226.417.226 1.001v4.415h-1.721v-.908h-.051a1.9 1.9 0 0 1-.422.541 2 2 0 0 1-.635.363 2.6 2.6 0 0 1-.857.127m.52-1.252q.4 0 .707-.158.308-.162.482-.435.175-.273.175-.618v-.694a1 1 0 0 1-.235.102 5 5 0 0 1-.328.081q-.183.034-.366.064l-.333.047a2.2 2.2 0 0 0-.558.149.9.9 0 0 0-.371.277.67.67 0 0 0-.132.426q0 .37.269.567.273.192.69.192m7.392 3.72q-.883 0-1.513-.243-.627-.239-.997-.652a2 2 0 0 1-.482-.929l1.679-.226q.077.197.243.366.166.171.439.273.276.107.673.107.592 0 .976-.29.388-.285.388-.959v-1.197h-.077a1.7 1.7 0 0 1-.358.515 1.8 1.8 0 0 1-.614.397q-.375.153-.894.153-.737 0-1.343-.341-.6-.345-.959-1.052-.353-.712-.353-1.799 0-1.112.362-1.858.361-.746.963-1.116a2.5 2.5 0 0 1 1.325-.371q.55 0 .921.188.37.183.596.46.231.273.354.537h.068v-1.1h1.803v6.61q0 .835-.409 1.397-.41.563-1.134.844-.72.286-1.657.286m.038-4.049q.439 0 .741-.217.307-.222.469-.631.166-.413.166-.988 0-.576-.162-.997a1.46 1.46 0 0 0-.468-.661 1.2 1.2 0 0 0-.746-.234q-.447 0-.754.243-.308.238-.465.664a2.8 2.8 0 0 0-.158.985q0 .567.158.98.162.409.465.635.307.222.754.221m7.457 1.586q-1.01 0-1.738-.409a2.8 2.8 0 0 1-1.117-1.168q-.392-.759-.392-1.794 0-1.01.392-1.773a2.9 2.9 0 0 1 1.104-1.189q.716-.426 1.679-.426.648 0 1.206.209.563.204.98.618.422.413.656 1.04.235.621.235 1.457v.499h-5.527v-1.125h3.818q0-.392-.171-.695a1.2 1.2 0 0 0-.473-.473 1.34 1.34 0 0 0-.694-.175q-.414 0-.733.192-.315.187-.495.507-.178.315-.183.703v1.07q0 .485.179.839.183.354.516.546.332.192.788.192.303 0 .554-.086t.431-.255a1.1 1.1 0 0 0 .272-.418l1.679.111q-.128.604-.524 1.057a2.6 2.6 0 0 1-1.014.698q-.618.248-1.428.248m4.057-.128v-6.546h1.73v1.155h.077a1.82 1.82 0 0 1 .682-.908q.477-.332 1.142-.332.673 0 1.146.337.474.332.631.903h.068a1.74 1.74 0 0 1 .725-.899q.528-.34 1.248-.341.917 0 1.487.584.576.58.576 1.645v4.402h-1.811v-4.044q0-.546-.29-.818a1.02 1.02 0 0 0-.725-.273q-.494 0-.771.315-.277.312-.277.823v3.997h-1.76v-4.083q0-.481-.277-.767-.273-.285-.72-.285-.303 0-.546.153-.238.15-.379.422-.14.268-.14.631v3.929zm13.797.128q-1.01 0-1.739-.409a2.8 2.8 0 0 1-1.117-1.168q-.392-.759-.392-1.794 0-1.01.392-1.773.393-.762 1.104-1.189.716-.426 1.679-.426.648 0 1.206.209.563.204.98.618.422.413.656 1.04.235.621.235 1.457v.499h-5.527v-1.125h3.818q0-.392-.17-.695a1.23 1.23 0 0 0-.473-.473 1.35 1.35 0 0 0-.695-.175q-.414 0-.733.192-.315.187-.494.507-.18.315-.184.703v1.07q0 .485.179.839.184.354.516.546t.788.192q.303 0 .554-.086t.431-.255a1.1 1.1 0 0 0 .272-.418l1.679.111q-.128.604-.524 1.057a2.6 2.6 0 0 1-1.014.698q-.618.248-1.427.248m5.872-3.912v3.784h-1.816v-6.546h1.731v1.155h.076q.217-.571.729-.903.511-.337 1.24-.337.682 0 1.189.298t.788.853q.282.55.282 1.312v4.168h-1.816v-3.844q.005-.601-.307-.937-.311-.341-.856-.341-.366 0-.648.157a1.1 1.1 0 0 0-.435.461 1.6 1.6 0 0 0-.157.72m8.999-2.762v1.364h-3.942v-1.364zm-3.047-1.568h1.815v6.102q0 .252.077.392a.42.42 0 0 0 .213.192.9.9 0 0 0 .324.056q.127 0 .256-.022l.196-.038.285 1.351a6 6 0 0 1-.383.098q-.247.06-.601.072-.657.025-1.151-.174a1.6 1.6 0 0 1-.763-.623q-.272-.421-.268-1.065z"/><path fill="#fff" stroke="#F6821F" stroke-width="2" d="M586 102h117.875v24.927H586z"/><path fill="#222" d="M632.987 117.876h-3.094v-8.727h3.119q1.317 0 2.267.524a3.53 3.53 0 0 1 1.462 1.496q.516.975.516 2.335 0 1.363-.516 2.344a3.55 3.55 0 0 1-1.47 1.504q-.955.524-2.284.524m-1.249-1.581h1.172q.819 0 1.376-.29.563-.294.844-.907.286-.619.286-1.594 0-.968-.286-1.581a1.85 1.85 0 0 0-.839-.904q-.558-.29-1.377-.289h-1.176zm9.847 1.581h-3.094v-8.727h3.12q1.317 0 2.267.524a3.53 3.53 0 0 1 1.461 1.496q.516.975.516 2.335 0 1.363-.516 2.344a3.54 3.54 0 0 1-1.47 1.504q-.954.524-2.284.524m-1.248-1.581h1.172q.818 0 1.376-.29.562-.294.844-.907.285-.619.285-1.594 0-.968-.285-1.581a1.86 1.86 0 0 0-.84-.904q-.558-.29-1.376-.289h-1.176zm9.676 1.709q-.993 0-1.717-.422a2.9 2.9 0 0 1-1.112-1.185q-.392-.762-.392-1.768 0-1.014.392-1.773a2.86 2.86 0 0 1 1.112-1.185q.724-.426 1.717-.426t1.713.426q.724.423 1.117 1.185.392.759.392 1.773 0 1.006-.392 1.768a2.9 2.9 0 0 1-1.117 1.185q-.72.422-1.713.422m.009-1.406q.451 0 .754-.256.303-.26.456-.708.158-.447.158-1.018t-.158-1.018a1.6 1.6 0 0 0-.456-.708 1.12 1.12 0 0 0-.754-.26q-.456 0-.767.26-.308.26-.465.708a3.1 3.1 0 0 0-.153 1.018q0 .571.153 1.018.158.449.465.708.31.255.767.256m9.03-4.939a1.08 1.08 0 0 0-.439-.801q-.389-.286-1.053-.286-.451 0-.763.128a1.07 1.07 0 0 0-.477.345.83.83 0 0 0-.162.503.73.73 0 0 0 .098.409q.111.174.303.302.192.124.443.218.252.09.537.153l.784.188q.571.128 1.048.341t.827.524.541.733q.197.421.2.967-.003.801-.409 1.389-.4.584-1.159.908-.754.32-1.819.32-1.057 0-1.841-.324a2.7 2.7 0 0 1-1.219-.959q-.435-.639-.456-1.581h1.786q.029.44.251.733.226.29.601.439.38.145.856.145.47 0 .814-.137.35-.136.541-.379a.88.88 0 0 0 .192-.558.73.73 0 0 0-.174-.495 1.3 1.3 0 0 0-.503-.34 5 5 0 0 0-.806-.256l-.95-.239q-1.104-.269-1.743-.839-.64-.572-.635-1.539-.004-.792.422-1.385.43-.592 1.18-.924t1.705-.333q.972 0 1.696.333.729.332 1.134.924t.417 1.373z"/><path fill="#fff" stroke="#F6821F" stroke-width="2" d="M586 133h117.875v24.927H586z"/><path fill="#222" d="M636.554 148.74h-3.094v-8.728h3.119q1.317 0 2.267.525a3.53 3.53 0 0 1 1.462 1.495q.516.976.515 2.336 0 1.363-.515 2.343a3.55 3.55 0 0 1-1.47 1.505q-.955.524-2.284.524m-1.249-1.581h1.172q.818 0 1.376-.29.563-.294.844-.908.285-.618.286-1.593 0-.968-.286-1.581a1.85 1.85 0 0 0-.839-.904q-.559-.29-1.377-.29h-1.176zm14.053-7.147v8.728h-1.594l-3.797-5.493h-.064v5.493h-1.845v-8.728h1.62l3.767 5.489h.076v-5.489zm6.127 2.51a1.08 1.08 0 0 0-.439-.801q-.388-.285-1.053-.285a2 2 0 0 0-.762.128 1.07 1.07 0 0 0-.478.345.83.83 0 0 0-.162.503.73.73 0 0 0 .098.409q.111.174.303.302.192.124.443.218.252.089.537.153l.784.188q.571.127 1.048.34t.827.525q.35.31.541.733.197.421.201.967-.005.801-.409 1.389-.4.584-1.16.908-.754.32-1.819.319-1.057 0-1.841-.324a2.7 2.7 0 0 1-1.219-.958q-.435-.639-.456-1.581h1.786q.03.438.251.733.226.29.601.439a2.4 2.4 0 0 0 .857.144q.468 0 .814-.136.348-.136.541-.379a.87.87 0 0 0 .191-.558.73.73 0 0 0-.174-.495 1.34 1.34 0 0 0-.503-.341 5 5 0 0 0-.805-.255l-.951-.239q-1.104-.269-1.743-.839-.639-.572-.635-1.539-.004-.792.422-1.385.43-.593 1.181-.924.75-.333 1.704-.333.972 0 1.696.333.729.332 1.134.924t.417 1.372z"/><path fill="#fff" stroke="#F6821F" stroke-width="2" d="M713 133h117.875v24.927H713z"/><path fill="#222" d="M738.703 143.068h-1.867a1.8 1.8 0 0 0-.208-.644 1.6 1.6 0 0 0-.405-.485 1.8 1.8 0 0 0-.571-.307 2.2 2.2 0 0 0-.695-.107q-.678 0-1.18.337-.503.332-.78.971-.277.636-.277 1.543 0 .933.277 1.568.281.635.784.959a2.1 2.1 0 0 0 1.163.324q.371 0 .686-.098a1.8 1.8 0 0 0 .567-.286q.247-.19.409-.464.167-.273.23-.622l1.867.008a3.48 3.48 0 0 1-1.134 2.152q-.481.435-1.15.691a4.2 4.2 0 0 1-1.504.251q-1.168 0-2.089-.528-.915-.53-1.448-1.53-.53-1.002-.529-2.425 0-1.427.537-2.429t1.458-1.525q.92-.53 2.071-.529.758 0 1.406.213.651.213 1.155.622.503.405.818.993.32.588.409 1.347m4.285 5.672h-3.094v-8.728h3.119q1.317 0 2.267.525a3.53 3.53 0 0 1 1.462 1.495q.516.976.516 2.336 0 1.363-.516 2.343a3.55 3.55 0 0 1-1.47 1.505q-.954.524-2.284.524m-1.249-1.581h1.172q.818 0 1.377-.29.563-.294.843-.908.286-.618.286-1.593 0-.968-.286-1.581a1.85 1.85 0 0 0-.839-.904q-.558-.29-1.377-.29h-1.176zm14.053-7.147v8.728h-1.593l-3.797-5.493h-.064v5.493h-1.845v-8.728h1.619l3.767 5.489h.077v-5.489zm7.805-.409-2.812 10.449h-1.564l2.812-10.449zm11.123 3.465h-1.867a1.8 1.8 0 0 0-.209-.644 1.6 1.6 0 0 0-.405-.485 1.8 1.8 0 0 0-.571-.307 2.2 2.2 0 0 0-.694-.107q-.678 0-1.181.337-.503.332-.779.971-.277.636-.277 1.543 0 .933.277 1.568.28.635.784.959a2.1 2.1 0 0 0 1.163.324q.37 0 .686-.098.32-.098.567-.286.247-.19.409-.464.166-.273.23-.622l1.867.008q-.073.601-.363 1.159-.285.555-.771.993a3.6 3.6 0 0 1-1.151.691 4.2 4.2 0 0 1-1.504.251q-1.167 0-2.088-.528-.916-.53-1.449-1.53-.528-1.002-.528-2.425 0-1.427.537-2.429.536-1.001 1.457-1.525.92-.53 2.071-.529.76 0 1.406.213.652.213 1.155.622.503.405.818.993.32.588.41 1.347m3.023 5.795a2.7 2.7 0 0 1-1.116-.217 1.8 1.8 0 0 1-.776-.652q-.28-.435-.281-1.082 0-.546.2-.917a1.6 1.6 0 0 1 .545-.596q.346-.226.785-.341.443-.115.929-.162.57-.06.92-.111.35-.056.507-.162a.36.36 0 0 0 .158-.315v-.026q0-.405-.256-.626-.252-.222-.716-.222-.49 0-.78.218a1 1 0 0 0-.383.537l-1.679-.137q.128-.596.503-1.031.375-.44.967-.673.597-.239 1.381-.239.545 0 1.044.128.503.128.89.396.393.268.618.691.226.417.226 1.001v4.415h-1.721v-.908h-.052a1.8 1.8 0 0 1-.421.541 2 2 0 0 1-.635.362 2.6 2.6 0 0 1-.857.128m.52-1.253q.4 0 .707-.157.307-.162.482-.435.174-.273.175-.618v-.694a1 1 0 0 1-.235.102 5 5 0 0 1-.328.081q-.183.034-.366.064l-.333.047a2.2 2.2 0 0 0-.558.149.9.9 0 0 0-.371.277.67.67 0 0 0-.132.426q0 .37.269.567.272.191.69.191m7.4 1.258q-1.006 0-1.73-.427a2.87 2.87 0 0 1-1.108-1.193q-.384-.762-.384-1.755 0-1.006.388-1.765a2.9 2.9 0 0 1 1.112-1.189q.72-.43 1.713-.43.857 0 1.5.311.644.312 1.019.874t.413 1.321h-1.713q-.072-.49-.383-.789-.307-.302-.806-.302a1.22 1.22 0 0 0-.737.23 1.5 1.5 0 0 0-.486.66q-.175.435-.175 1.053 0 .627.171 1.065.174.44.49.669.315.231.737.231.312 0 .558-.128.252-.129.414-.371.166-.247.217-.592h1.713q-.043.75-.409 1.321a2.47 2.47 0 0 1-1.001.886q-.64.32-1.513.32m5.769-3.912v3.784h-1.816v-8.728h1.765v3.337h.076q.222-.58.716-.908.495-.332 1.24-.332.682 0 1.189.298.511.294.793.848.285.55.281 1.317v4.168h-1.815v-3.844q.004-.605-.307-.942-.308-.336-.861-.336-.37 0-.656.157a1.1 1.1 0 0 0-.443.46 1.56 1.56 0 0 0-.162.721m5.541 3.784v-6.546h1.815v6.546zm.912-7.389a1 1 0 0 1-.695-.269.87.87 0 0 1-.285-.652q0-.375.285-.643a.98.98 0 0 1 .695-.273q.405 0 .69.273.29.268.29.643 0 .38-.29.652a.97.97 0 0 1-.69.269m4.041 3.605v3.784h-1.816v-6.546h1.73v1.155h.077q.217-.572.729-.903.511-.337 1.24-.337.681 0 1.189.298.507.298.788.853.281.55.281 1.312v4.168h-1.815v-3.844q.005-.601-.307-.938-.311-.34-.856-.34a1.3 1.3 0 0 0-.648.157 1.1 1.1 0 0 0-.435.46 1.6 1.6 0 0 0-.157.721m8.466 6.375q-.882 0-1.513-.243-.626-.239-.997-.652a2 2 0 0 1-.481-.929l1.678-.226a1.11 1.11 0 0 0 .682.639q.277.107.674.107.592 0 .975-.29.388-.285.388-.959v-1.197h-.076a1.74 1.74 0 0 1-.972.912q-.375.153-.895.153-.737 0-1.342-.341-.601-.345-.959-1.052-.354-.712-.354-1.799 0-1.112.362-1.858.363-.745.964-1.116a2.5 2.5 0 0 1 1.325-.371q.55 0 .92.188.37.183.597.46.23.273.354.537h.068v-1.1h1.802v6.61q0 .834-.409 1.397t-1.133.844q-.72.285-1.658.286m.038-4.049q.44 0 .742-.217.306-.222.469-.631a2.7 2.7 0 0 0 .166-.988q0-.576-.162-.997a1.45 1.45 0 0 0-.469-.661 1.2 1.2 0 0 0-.746-.234q-.447 0-.754.243-.306.238-.464.664a2.8 2.8 0 0 0-.158.985q0 .566.158.98.161.409.464.635.307.22.754.221"/><path fill="#5E5E5E" d="M553 311.768a1.5 1.5 0 0 0 0 3zm448.61 2.561c.59-.586.59-1.536 0-2.122l-9.546-9.546a1.501 1.501 0 0 0-2.121 2.122l8.485 8.485-8.485 8.485a1.5 1.5 0 0 0 2.121 2.122zm-448.61.439h447.55v-3H553zm291-182.264a1.5 1.5 0 1 0 0 3zm157.61 2.56c.59-.585.59-1.535 0-2.121l-9.546-9.546a1.5 1.5 0 1 0-2.121 2.121l8.485 8.486-8.485 8.485a1.5 1.5 0 1 0 2.121 2.121zm-157.61.44h156.55v-3H844z"/><path fill="#269B7F" d="M375.408 143.159q-1.272 0-2.267-.437-.989-.444-1.562-1.216a3.05 3.05 0 0 1-.585-1.796h2.477q.023.426.278.75.263.318.693.495.432.176.972.176.563 0 .994-.199t.677-.551q.244-.352.244-.813 0-.465-.262-.824a1.67 1.67 0 0 0-.738-.568q-.477-.204-1.137-.204h-1.085v-1.807h1.085q.558 0 .983-.193.432-.194.671-.534.239-.347.239-.807 0-.438-.211-.767a1.4 1.4 0 0 0-.579-.523 1.9 1.9 0 0 0-.864-.188q-.5 0-.915.182a1.6 1.6 0 0 0-.664.506q-.25.33-.267.773h-2.358a3.03 3.03 0 0 1 .573-1.773q.558-.767 1.5-1.199.95-.437 2.142-.437 1.205 0 2.108.437.905.438 1.404 1.182.506.738.5 1.659.006.977-.608 1.631-.608.653-1.585.829v.091q1.284.165 1.954.892.676.721.671 1.807a2.85 2.85 0 0 1-.574 1.767q-.574.772-1.585 1.216t-2.319.443m10.547 0q-1.272 0-2.267-.437-.989-.444-1.562-1.216a3.06 3.06 0 0 1-.586-1.796h2.478q.023.426.278.75.261.318.693.495.432.176.972.176.562 0 .994-.199.433-.199.676-.551.245-.352.245-.813 0-.465-.262-.824a1.67 1.67 0 0 0-.738-.568q-.477-.204-1.137-.204h-1.085v-1.807h1.085q.558 0 .983-.193.432-.194.671-.534.238-.347.238-.807 0-.438-.21-.767a1.4 1.4 0 0 0-.579-.523 1.9 1.9 0 0 0-.864-.188q-.5 0-.915.182a1.6 1.6 0 0 0-.665.506 1.34 1.34 0 0 0-.267.773h-2.358q.018-1.006.574-1.773.558-.767 1.5-1.199.95-.437 2.142-.437 1.205 0 2.108.437.904.438 1.404 1.182.505.738.5 1.659.005.977-.608 1.631-.609.653-1.585.829v.091q1.284.165 1.954.892.676.721.671 1.807a2.85 2.85 0 0 1-.574 1.767q-.574.772-1.586 1.216-1.011.443-2.318.443m6.269-.159v-8.727h2.307v1.539h.102q.273-.766.909-1.21t1.523-.443q.897 0 1.528.449.63.443.841 1.204h.091q.267-.75.966-1.198.704-.455 1.665-.455 1.221 0 1.982.779.768.773.768 2.193V143h-2.415v-5.392q0-.728-.387-1.091-.386-.363-.966-.364-.659 0-1.028.421-.369.415-.369 1.096V143h-2.347v-5.443q0-.642-.369-1.023-.365-.381-.96-.381a1.34 1.34 0 0 0-.728.205q-.318.2-.505.562a1.8 1.8 0 0 0-.188.841V143zm21.855-6.239-2.216.137a1.15 1.15 0 0 0-.244-.512 1.3 1.3 0 0 0-.495-.369 1.7 1.7 0 0 0-.721-.142q-.563 0-.949.239-.387.232-.387.625 0 .312.25.528t.858.347l1.58.318q1.272.26 1.898.841.625.58.625 1.522a2.38 2.38 0 0 1-.506 1.506q-.5.648-1.375 1.011-.87.358-2.006.358-1.732 0-2.761-.721a2.8 2.8 0 0 1-1.199-1.977l2.381-.125q.108.528.523.806.414.273 1.062.273.636 0 1.023-.244.392-.25.397-.642a.67.67 0 0 0-.278-.54q-.273-.216-.841-.33l-1.511-.301q-1.278-.256-1.904-.886-.619-.63-.619-1.608 0-.841.455-1.449.46-.608 1.289-.937.836-.33 1.955-.33 1.654 0 2.602.699.955.699 1.114 1.903"/><path fill="#5E5E5E" d="M416 244a1.5 1.5 0 1 0 3 0zm162.112-109.389a1.5 1.5 0 0 0 0-2.121l-9.546-9.546a1.5 1.5 0 1 0-2.121 2.121l8.485 8.486-8.485 8.485a1.5 1.5 0 1 0 2.121 2.121zM419 244v-86.449h-3V244zm22.5-108.949h135.552v-3H441.5zm-22.5 22.5c0-12.427 10.074-22.5 22.5-22.5v-3c-14.083 0-25.5 11.417-25.5 25.5z"/><path fill="#269B7F" d="M875.107 150v-1.773l4.142-3.835q.529-.512.887-.92.363-.41.551-.802.187-.397.187-.858 0-.51-.233-.88a1.53 1.53 0 0 0-.636-.574 2 2 0 0 0-.915-.205q-.534 0-.932.216a1.5 1.5 0 0 0-.613.62q-.216.403-.216.96h-2.335q0-1.142.517-1.983a3.44 3.44 0 0 1 1.449-1.301q.932-.46 2.147-.46 1.25 0 2.176.443.933.437 1.449 1.216.517.778.517 1.784 0 .659-.261 1.301-.256.642-.915 1.426-.659.779-1.858 1.869l-1.699 1.665v.08h4.887V150zm14.641.256q-1.466-.006-2.523-.722-1.051-.715-1.619-2.074-.563-1.357-.557-3.267 0-1.903.563-3.244.567-1.341 1.619-2.04 1.056-.704 2.517-.704t2.511.704q1.057.705 1.625 2.046.569 1.335.563 3.238 0 1.915-.568 3.273-.562 1.357-1.614 2.074-1.051.716-2.517.716m0-2.04q1 0 1.596-1.006.597-1.005.591-3.017 0-1.323-.272-2.204-.267-.881-.762-1.324a1.66 1.66 0 0 0-1.153-.443q-.994 0-1.591.994t-.602 2.977q0 1.34.267 2.239.273.892.767 1.341.494.443 1.159.443m6.476 1.784v-8.727h2.307v1.539h.102q.273-.766.909-1.21t1.523-.443q.898 0 1.528.449.63.443.841 1.204h.091q.267-.75.966-1.198.704-.455 1.665-.455 1.221 0 1.982.779.768.773.768 2.193V150h-2.415v-5.392q0-.728-.387-1.091-.385-.363-.966-.364-.659 0-1.028.421-.369.415-.369 1.096V150h-2.347v-5.443q0-.642-.369-1.023-.365-.381-.96-.381a1.34 1.34 0 0 0-.728.205q-.318.2-.505.562a1.8 1.8 0 0 0-.188.841V150zm21.855-6.239-2.216.137a1.15 1.15 0 0 0-.244-.512 1.3 1.3 0 0 0-.495-.369 1.7 1.7 0 0 0-.721-.142q-.563 0-.949.239-.387.232-.387.625 0 .312.25.528t.858.347l1.58.318q1.272.26 1.898.841.625.58.625 1.522a2.38 2.38 0 0 1-.506 1.506q-.5.648-1.375 1.011-.87.358-2.006.358-1.732 0-2.761-.721a2.8 2.8 0 0 1-1.199-1.977l2.381-.125q.108.528.523.806.414.273 1.062.273.636 0 1.023-.244.392-.25.397-.642a.67.67 0 0 0-.278-.54q-.273-.216-.841-.33l-1.511-.301q-1.278-.256-1.904-.886-.618-.63-.619-1.608 0-.841.455-1.449.46-.608 1.289-.937.836-.33 1.955-.33 1.653 0 2.602.699.955.699 1.114 1.903"/></svg>