<svg xmlns="http://www.w3.org/2000/svg" width="707" height="332" fill="none" viewBox="0 0 707 332"><path fill="#fff" d="M0 0h707v332H0z"/><path fill="#222" d="M156.329 32V20.364h7.841v2.028h-5.38v2.773h4.977v2.028h-4.977v2.779h5.403V32zm11.996-5.046V32h-2.42v-8.727h2.307v1.54h.102q.29-.762.971-1.205.682-.45 1.654-.449.909 0 1.585.398t1.051 1.136q.375.733.375 1.75V32h-2.42v-5.125q.006-.8-.409-1.25-.416-.454-1.142-.454-.489 0-.864.21-.369.21-.58.613-.204.398-.21.96m10.573 5.188q-.995 0-1.801-.511-.802-.517-1.273-1.517-.466-1.006-.466-2.466 0-1.5.483-2.495.483-.999 1.284-1.494a3.3 3.3 0 0 1 1.767-.5q.733 0 1.222.25.494.244.795.614.307.362.466.716h.074v-4.375h2.415V32h-2.387v-1.398h-.102a3.1 3.1 0 0 1-.483.722 2.4 2.4 0 0 1-.801.585q-.49.233-1.193.233m.767-1.926q.585 0 .988-.318.41-.324.625-.904.222-.58.222-1.358t-.216-1.352-.625-.886q-.41-.313-.994-.313-.597 0-1.006.324t-.619.898-.21 1.33q0 .76.21 1.346.216.58.619.909.41.324 1.006.324m6.013 5.057v-12h2.386v1.466h.108q.16-.353.46-.716.307-.37.796-.614.494-.25 1.227-.25a3.3 3.3 0 0 1 1.761.5q.807.495 1.29 1.494.483.995.483 2.495 0 1.46-.472 2.466-.465 1-1.272 1.517a3.27 3.27 0 0 1-1.796.511q-.704 0-1.199-.233a2.5 2.5 0 0 1-.801-.585 3 3 0 0 1-.477-.722h-.074v4.67zm2.369-7.637q0 .78.216 1.358.216.58.625.904.41.318.994.318.591 0 1-.324.409-.33.62-.909.216-.586.215-1.347 0-.755-.21-1.33-.21-.573-.619-.897t-1.006-.324q-.59 0-1 .313-.403.312-.619.886t-.216 1.352m11.523 4.534q-1.324 0-2.29-.562a3.85 3.85 0 0 1-1.483-1.58q-.523-1.017-.523-2.357 0-1.353.523-2.364a3.8 3.8 0 0 1 1.483-1.58q.966-.568 2.29-.568t2.284.568q.966.563 1.489 1.58.522 1.011.522 2.364 0 1.34-.522 2.357a3.84 3.84 0 0 1-1.489 1.58q-.96.562-2.284.562m.011-1.875q.603 0 1.006-.34.404-.347.608-.944.21-.596.21-1.358 0-.761-.21-1.357-.204-.597-.608-.944-.403-.345-1.006-.346-.608 0-1.022.346-.41.347-.62.944-.204.596-.204 1.357 0 .762.204 1.358.21.597.62.944.414.34 1.022.34M205.263 32v-8.727h2.421V32zm1.216-9.852q-.54 0-.926-.358a1.16 1.16 0 0 1-.381-.87q0-.5.381-.858.387-.363.926-.363.54 0 .921.363.386.36.386.858 0 .506-.386.87a1.3 1.3 0 0 1-.921.358m5.388 4.807V32h-2.42v-8.727h2.306v1.54h.103q.29-.762.971-1.205.682-.45 1.654-.449.909 0 1.585.398t1.051 1.136q.375.733.375 1.75V32h-2.42v-5.125q.005-.8-.409-1.25-.415-.454-1.143-.454-.488 0-.863.21-.37.21-.58.613-.204.398-.21.96m11.999-3.682v1.818h-5.256v-1.818zm-4.063-2.091h2.421v8.136q0 .336.102.523a.56.56 0 0 0 .284.256q.188.073.432.073.17 0 .341-.028l.261-.051.381 1.801a7 7 0 0 1-.512.13 4 4 0 0 1-.801.097q-.874.034-1.534-.233a2.15 2.15 0 0 1-1.017-.83q-.363-.561-.358-1.42zM228.839 32V20.364h4.591q1.324 0 2.256.505a3.43 3.43 0 0 1 1.42 1.392q.494.886.494 2.046t-.5 2.045a3.45 3.45 0 0 1-1.448 1.381q-.944.494-2.285.494h-2.926v-1.971h2.529q.71 0 1.17-.245.466-.249.693-.687.233-.444.233-1.017a2.1 2.1 0 0 0-.233-1.011 1.55 1.55 0 0 0-.693-.677q-.465-.244-1.182-.244h-1.659V32zm13.941.17q-1.324 0-2.29-.562a3.85 3.85 0 0 1-1.483-1.58q-.523-1.017-.523-2.357 0-1.353.523-2.364a3.8 3.8 0 0 1 1.483-1.58q.966-.568 2.29-.568 1.323 0 2.284.568.966.563 1.488 1.58.523 1.011.523 2.364 0 1.34-.523 2.357a3.83 3.83 0 0 1-1.488 1.58q-.961.562-2.284.562m.011-1.875q.602 0 1.006-.34.403-.347.608-.944.21-.596.21-1.358 0-.761-.21-1.357-.205-.597-.608-.944-.404-.345-1.006-.346-.608 0-1.023.346-.41.347-.619.944-.205.596-.205 1.357 0 .762.205 1.358.21.597.619.944.415.34 1.023.34m9.625 1.875q-1.324 0-2.29-.562a3.85 3.85 0 0 1-1.483-1.58q-.522-1.017-.522-2.357 0-1.353.522-2.364a3.8 3.8 0 0 1 1.483-1.58q.966-.568 2.29-.568t2.284.568q.966.563 1.489 1.58.522 1.011.522 2.364 0 1.34-.522 2.357a3.84 3.84 0 0 1-1.489 1.58q-.96.562-2.284.562m.011-1.875q.603 0 1.006-.34.404-.347.608-.944.21-.596.21-1.358 0-.761-.21-1.357-.204-.597-.608-.944-.403-.345-1.006-.346-.608 0-1.022.346-.409.347-.62.944-.204.596-.204 1.357 0 .762.204 1.358.211.597.62.944.414.34 1.022.34m8.103-9.931V32h-2.421V20.364zm10.33 0V32h-2.461v-9.301h-.068l-2.665 1.67v-2.181l2.881-1.824z"/><path fill="#fff" stroke="#0055DC" stroke-width="2" d="M108 42h212v222H108z"/><path fill="#0055DC" d="M144.538 56.072H139v28.626h5.538zm144.462 0h-5.538v28.626H289z"/><path fill="#fff" stroke="#0055DC" stroke-miterlimit="10" stroke-width="1.5" d="M152.122 89.798v5.433l123.753-.007v-5.432z"/><path fill="#C5EBF5" stroke="#0055DC" stroke-miterlimit="10" stroke-width="1.5" d="M283.462 51H144.537v38.794h138.925z"/><path fill="#fff" d="M277.462 84.323V56.47H150.539v27.854z"/><path fill="#0055DC" d="M160.841 64.334h-3.076v3.017h3.076zm0 9.08h-3.076v3.017h3.076zm4.209-4.784h-3.075v3.017h3.075zm3.744-4.296h-3.075v3.017h3.075zm0 9.08h-3.075v3.017h3.075zm3.978-4.784h-3.075v3.017h3.075zm4.706-4.296h-3.075v3.017h3.075zm0 9.08h-3.075v3.017h3.075zm3.977-4.784h-3.075v3.017h3.075zm4.839-4.296h-3.075v3.017h3.075zm0 9.08h-3.075v3.017h3.075zm3.743-4.784h-3.075v3.017h3.075zm4.21-4.296h-3.075v3.017h3.075zm0 9.08h-3.075v3.017h3.075zm3.512-4.784h-3.075v3.017h3.075zm4.445-4.296h-3.075v3.017h3.075zm0 9.08h-3.075v3.017h3.075zm3.276-4.784h-3.075v3.017h3.075zm61.898 5.512c2.108 0 3.818-1.677 3.818-3.745s-1.71-3.745-3.818-3.745-3.817 1.677-3.817 3.745 1.709 3.745 3.817 3.745"/><path stroke="#0055DC" stroke-miterlimit="10" stroke-width="1.5" d="M256.401 70.397H215.97"/><path fill="#0055DC" d="M144.538 109.072H139v28.626h5.538zm144.462 0h-5.538v28.626H289z"/><path fill="#fff" stroke="#0055DC" stroke-miterlimit="10" stroke-width="1.5" d="M152.122 142.798v5.433l123.753-.007v-5.432z"/><path fill="#C5EBF5" stroke="#0055DC" stroke-miterlimit="10" stroke-width="1.5" d="M283.462 104H144.537v38.794h138.925z"/><path fill="#fff" d="M277.462 137.323v-27.854H150.539v27.854z"/><path fill="#0055DC" d="M160.841 117.334h-3.076v3.017h3.076zm0 9.08h-3.076v3.017h3.076zm4.209-4.784h-3.075v3.017h3.075zm3.744-4.296h-3.075v3.017h3.075zm0 9.08h-3.075v3.017h3.075zm3.978-4.784h-3.075v3.017h3.075zm4.706-4.296h-3.075v3.017h3.075zm0 9.08h-3.075v3.017h3.075zm3.977-4.784h-3.075v3.017h3.075zm4.839-4.296h-3.075v3.017h3.075zm0 9.08h-3.075v3.017h3.075zm3.743-4.784h-3.075v3.017h3.075zm4.21-4.296h-3.075v3.017h3.075zm0 9.08h-3.075v3.017h3.075zm3.512-4.784h-3.075v3.017h3.075zm4.445-4.296h-3.075v3.017h3.075zm0 9.08h-3.075v3.017h3.075zm3.276-4.784h-3.075v3.017h3.075zm61.898 5.512c2.108 0 3.818-1.677 3.818-3.745s-1.71-3.745-3.818-3.745-3.817 1.677-3.817 3.745 1.709 3.745 3.817 3.745"/><path stroke="#0055DC" stroke-miterlimit="10" stroke-width="1.5" d="M256.401 123.397H215.97"/><path fill="#0055DC" d="M144.538 109.072H139v28.626h5.538zm144.462 0h-5.538v28.626H289z"/><path fill="#fff" stroke="#0055DC" stroke-miterlimit="10" stroke-width="1.5" d="M152.122 142.798v5.433l123.753-.007v-5.432z"/><path fill="#C5EBF5" stroke="#0055DC" stroke-miterlimit="10" stroke-width="1.5" d="M283.462 104H144.537v38.794h138.925z"/><path fill="#fff" d="M277.462 137.323v-27.854H150.539v27.854z"/><path fill="#0055DC" d="M160.841 117.334h-3.076v3.017h3.076zm0 9.08h-3.076v3.017h3.076zm4.209-4.784h-3.075v3.017h3.075zm3.744-4.296h-3.075v3.017h3.075zm0 9.08h-3.075v3.017h3.075zm3.978-4.784h-3.075v3.017h3.075zm4.706-4.296h-3.075v3.017h3.075zm0 9.08h-3.075v3.017h3.075zm3.977-4.784h-3.075v3.017h3.075zm4.839-4.296h-3.075v3.017h3.075zm0 9.08h-3.075v3.017h3.075zm3.743-4.784h-3.075v3.017h3.075zm4.21-4.296h-3.075v3.017h3.075zm0 9.08h-3.075v3.017h3.075zm3.512-4.784h-3.075v3.017h3.075zm4.445-4.296h-3.075v3.017h3.075zm0 9.08h-3.075v3.017h3.075zm3.276-4.784h-3.075v3.017h3.075zm61.898 5.512c2.108 0 3.818-1.677 3.818-3.745s-1.71-3.745-3.818-3.745-3.817 1.677-3.817 3.745 1.709 3.745 3.817 3.745"/><path stroke="#0055DC" stroke-miterlimit="10" stroke-width="1.5" d="M256.401 123.397H215.97"/><path fill="#0055DC" d="M144.538 162.072H139v28.626h5.538zm144.462 0h-5.538v28.626H289z"/><path fill="#fff" stroke="#0055DC" stroke-miterlimit="10" stroke-width="1.5" d="M152.122 195.798v5.433l123.753-.007v-5.432z"/><path fill="#C5EBF5" stroke="#0055DC" stroke-miterlimit="10" stroke-width="1.5" d="M283.462 157H144.537v38.794h138.925z"/><path fill="#fff" d="M277.462 190.323v-27.854H150.539v27.854z"/><path fill="#0055DC" d="M160.841 170.334h-3.076v3.017h3.076zm0 9.08h-3.076v3.017h3.076zm4.209-4.784h-3.075v3.017h3.075zm3.744-4.296h-3.075v3.017h3.075zm0 9.08h-3.075v3.017h3.075zm3.978-4.784h-3.075v3.017h3.075zm4.706-4.296h-3.075v3.017h3.075zm0 9.08h-3.075v3.017h3.075zm3.977-4.784h-3.075v3.017h3.075zm4.839-4.296h-3.075v3.017h3.075zm0 9.08h-3.075v3.017h3.075zm3.743-4.784h-3.075v3.017h3.075zm4.21-4.296h-3.075v3.017h3.075zm0 9.08h-3.075v3.017h3.075zm3.512-4.784h-3.075v3.017h3.075zm4.445-4.296h-3.075v3.017h3.075zm0 9.08h-3.075v3.017h3.075zm3.276-4.784h-3.075v3.017h3.075zm61.898 5.512c2.108 0 3.818-1.677 3.818-3.745s-1.71-3.745-3.818-3.745-3.817 1.677-3.817 3.745 1.709 3.745 3.817 3.745"/><path stroke="#0055DC" stroke-miterlimit="10" stroke-width="1.5" d="M256.401 176.397H215.97"/><path fill="#0055DC" d="M144.538 162.072H139v28.626h5.538zm144.462 0h-5.538v28.626H289z"/><path fill="#fff" stroke="#0055DC" stroke-miterlimit="10" stroke-width="1.5" d="M152.122 195.798v5.433l123.753-.007v-5.432z"/><path fill="#C5EBF5" stroke="#0055DC" stroke-miterlimit="10" stroke-width="1.5" d="M283.462 157H144.537v38.794h138.925z"/><path fill="#fff" d="M277.462 190.323v-27.854H150.539v27.854z"/><path fill="#0055DC" d="M160.841 170.334h-3.076v3.017h3.076zm0 9.08h-3.076v3.017h3.076zm4.209-4.784h-3.075v3.017h3.075zm3.744-4.296h-3.075v3.017h3.075zm0 9.08h-3.075v3.017h3.075zm3.978-4.784h-3.075v3.017h3.075zm4.706-4.296h-3.075v3.017h3.075zm0 9.08h-3.075v3.017h3.075zm3.977-4.784h-3.075v3.017h3.075zm4.839-4.296h-3.075v3.017h3.075zm0 9.08h-3.075v3.017h3.075zm3.743-4.784h-3.075v3.017h3.075zm4.21-4.296h-3.075v3.017h3.075zm0 9.08h-3.075v3.017h3.075zm3.512-4.784h-3.075v3.017h3.075zm4.445-4.296h-3.075v3.017h3.075zm0 9.08h-3.075v3.017h3.075zm3.276-4.784h-3.075v3.017h3.075zm61.898 5.512c2.108 0 3.818-1.677 3.818-3.745s-1.71-3.745-3.818-3.745-3.817 1.677-3.817 3.745 1.709 3.745 3.817 3.745"/><path stroke="#0055DC" stroke-miterlimit="10" stroke-width="1.5" d="M256.401 176.397H215.97"/><path fill="#0055DC" d="M144.538 215.072H139v28.626h5.538zm144.462 0h-5.538v28.626H289z"/><path fill="#fff" stroke="#0055DC" stroke-miterlimit="10" stroke-width="1.5" d="M152.122 248.798v5.433l123.753-.007v-5.432z"/><path fill="#C5EBF5" stroke="#0055DC" stroke-miterlimit="10" stroke-width="1.5" d="M283.462 210H144.537v38.794h138.925z"/><path fill="#fff" d="M277.462 243.323v-27.854H150.539v27.854z"/><path fill="#0055DC" d="M160.841 223.334h-3.076v3.017h3.076zm0 9.08h-3.076v3.017h3.076zm4.209-4.784h-3.075v3.017h3.075zm3.744-4.296h-3.075v3.017h3.075zm0 9.08h-3.075v3.017h3.075zm3.978-4.784h-3.075v3.017h3.075zm4.706-4.296h-3.075v3.017h3.075zm0 9.08h-3.075v3.017h3.075zm3.977-4.784h-3.075v3.017h3.075zm4.839-4.296h-3.075v3.017h3.075zm0 9.08h-3.075v3.017h3.075zm3.743-4.784h-3.075v3.017h3.075zm4.21-4.296h-3.075v3.017h3.075zm0 9.08h-3.075v3.017h3.075zm3.512-4.784h-3.075v3.017h3.075zm4.445-4.296h-3.075v3.017h3.075zm0 9.08h-3.075v3.017h3.075zm3.276-4.784h-3.075v3.017h3.075zm61.898 5.512c2.108 0 3.818-1.677 3.818-3.745s-1.71-3.745-3.818-3.745-3.817 1.677-3.817 3.745 1.709 3.745 3.817 3.745"/><path stroke="#0055DC" stroke-miterlimit="10" stroke-width="1.5" d="M256.401 229.397H215.97"/><path fill="#0055DC" d="M144.538 215.072H139v28.626h5.538zm144.462 0h-5.538v28.626H289z"/><path fill="#fff" stroke="#0055DC" stroke-miterlimit="10" stroke-width="1.5" d="M152.122 248.798v5.433l123.753-.007v-5.432z"/><path fill="#C5EBF5" stroke="#0055DC" stroke-miterlimit="10" stroke-width="1.5" d="M283.462 210H144.537v38.794h138.925z"/><path fill="#fff" d="M277.462 243.323v-27.854H150.539v27.854z"/><path fill="#0055DC" d="M160.841 223.334h-3.076v3.017h3.076zm0 9.08h-3.076v3.017h3.076zm4.209-4.784h-3.075v3.017h3.075zm3.744-4.296h-3.075v3.017h3.075zm0 9.08h-3.075v3.017h3.075zm3.978-4.784h-3.075v3.017h3.075zm4.706-4.296h-3.075v3.017h3.075zm0 9.08h-3.075v3.017h3.075zm3.977-4.784h-3.075v3.017h3.075zm4.839-4.296h-3.075v3.017h3.075zm0 9.08h-3.075v3.017h3.075zm3.743-4.784h-3.075v3.017h3.075zm4.21-4.296h-3.075v3.017h3.075zm0 9.08h-3.075v3.017h3.075zm3.512-4.784h-3.075v3.017h3.075zm4.445-4.296h-3.075v3.017h3.075zm0 9.08h-3.075v3.017h3.075zm3.276-4.784h-3.075v3.017h3.075zm61.898 5.512c2.108 0 3.818-1.677 3.818-3.745s-1.71-3.745-3.818-3.745-3.817 1.677-3.817 3.745 1.709 3.745 3.817 3.745"/><path stroke="#0055DC" stroke-miterlimit="10" stroke-width="1.5" d="M256.401 229.397H215.97"/><path fill="#222" d="M365.704 32V20.364h7.841v2.028h-5.38v2.773h4.977v2.028h-4.977v2.779h5.403V32zm11.996-5.046V32h-2.42v-8.727h2.307v1.54h.102q.29-.762.971-1.205.682-.45 1.654-.449.909 0 1.585.398t1.051 1.136q.375.733.375 1.75V32h-2.42v-5.125q.005-.8-.409-1.25-.416-.454-1.142-.454-.489 0-.864.21-.369.21-.58.613-.204.398-.21.96m10.573 5.188q-.995 0-1.801-.511-.802-.517-1.273-1.517-.466-1.006-.466-2.466 0-1.5.483-2.495.483-.999 1.284-1.494a3.3 3.3 0 0 1 1.767-.5q.733 0 1.222.25.493.244.795.614.307.362.466.716h.074v-4.375h2.415V32h-2.387v-1.398h-.102a3.1 3.1 0 0 1-.483.722 2.4 2.4 0 0 1-.801.585q-.49.233-1.193.233m.767-1.926q.585 0 .988-.318.41-.324.625-.904.222-.58.222-1.358t-.216-1.352-.625-.886q-.41-.313-.994-.313-.597 0-1.006.324t-.619.898-.21 1.33q0 .76.21 1.346.216.58.619.909.41.324 1.006.324m6.013 5.057v-12h2.386v1.466h.108q.16-.353.46-.716.307-.37.796-.614.494-.25 1.227-.25a3.3 3.3 0 0 1 1.761.5q.807.495 1.29 1.494.483.995.483 2.495 0 1.46-.472 2.466-.465 1-1.272 1.517a3.27 3.27 0 0 1-1.796.511q-.704 0-1.199-.233a2.5 2.5 0 0 1-.801-.585 3 3 0 0 1-.477-.722h-.074v4.67zm2.369-7.637q0 .78.216 1.358.216.58.625.904.41.318.994.318.591 0 1-.324.409-.33.62-.909.215-.586.215-1.347 0-.755-.21-1.33-.21-.573-.619-.897t-1.006-.324q-.59 0-1 .313-.403.312-.619.886t-.216 1.352m11.523 4.534q-1.324 0-2.29-.562a3.85 3.85 0 0 1-1.483-1.58q-.523-1.017-.523-2.357 0-1.353.523-2.364a3.8 3.8 0 0 1 1.483-1.58q.966-.568 2.29-.568t2.284.568q.966.563 1.489 1.58.522 1.011.522 2.364 0 1.34-.522 2.357a3.84 3.84 0 0 1-1.489 1.58q-.96.562-2.284.562m.011-1.875q.603 0 1.006-.34.404-.347.608-.944.21-.596.21-1.358 0-.761-.21-1.357-.204-.597-.608-.944-.403-.345-1.006-.346-.608 0-1.022.346-.41.347-.62.944-.204.596-.204 1.357 0 .762.204 1.358.21.597.62.944.414.34 1.022.34M414.638 32v-8.727h2.421V32zm1.216-9.852q-.54 0-.926-.358a1.16 1.16 0 0 1-.381-.87q0-.5.381-.858.386-.363.926-.363t.921.363q.386.36.386.858 0 .506-.386.87a1.3 1.3 0 0 1-.921.358m5.388 4.807V32h-2.42v-8.727h2.306v1.54h.103q.29-.762.971-1.205.682-.45 1.654-.449.909 0 1.585.398t1.051 1.136q.375.733.375 1.75V32h-2.42v-5.125q.005-.8-.409-1.25-.416-.454-1.143-.454-.488 0-.863.21-.37.21-.58.613-.204.398-.21.96m11.999-3.682v1.818h-5.256v-1.818zm-4.063-2.091h2.421v8.136q0 .336.102.523a.56.56 0 0 0 .284.256q.188.073.432.073.17 0 .341-.028l.261-.051.381 1.801a7 7 0 0 1-.512.13 4 4 0 0 1-.801.097q-.874.034-1.534-.233a2.15 2.15 0 0 1-1.017-.83q-.363-.561-.358-1.42zM438.214 32V20.364h4.591q1.324 0 2.256.505a3.43 3.43 0 0 1 1.42 1.392q.495.886.494 2.046 0 1.159-.5 2.045a3.45 3.45 0 0 1-1.448 1.381q-.944.494-2.285.494h-2.926v-1.971h2.529q.71 0 1.17-.245.466-.249.693-.687.233-.444.233-1.017a2.1 2.1 0 0 0-.233-1.011 1.55 1.55 0 0 0-.693-.677q-.465-.244-1.182-.244h-1.659V32zm13.941.17q-1.324 0-2.29-.562a3.85 3.85 0 0 1-1.483-1.58q-.523-1.017-.523-2.357 0-1.353.523-2.364a3.8 3.8 0 0 1 1.483-1.58q.966-.568 2.29-.568 1.323 0 2.284.568.966.563 1.488 1.58.523 1.011.523 2.364 0 1.34-.523 2.357a3.83 3.83 0 0 1-1.488 1.58q-.961.562-2.284.562m.011-1.875q.602 0 1.006-.34.403-.347.608-.944.21-.596.21-1.358 0-.761-.21-1.357-.205-.597-.608-.944-.404-.345-1.006-.346-.607 0-1.023.346-.41.347-.619.944-.205.596-.205 1.357 0 .762.205 1.358.21.597.619.944.415.34 1.023.34m9.625 1.875q-1.324 0-2.29-.562a3.85 3.85 0 0 1-1.483-1.58q-.522-1.017-.522-2.357 0-1.353.522-2.364a3.8 3.8 0 0 1 1.483-1.58q.966-.568 2.29-.568t2.284.568q.966.563 1.489 1.58.522 1.011.522 2.364 0 1.34-.522 2.357a3.84 3.84 0 0 1-1.489 1.58q-.96.562-2.284.562m.011-1.875q.603 0 1.006-.34.404-.347.608-.944.21-.596.21-1.358 0-.761-.21-1.357-.204-.597-.608-.944-.403-.345-1.006-.346-.608 0-1.022.346-.409.347-.62.944-.204.596-.204 1.357 0 .762.204 1.358.211.597.62.944.414.34 1.022.34m8.103-9.931V32h-2.421V20.364zM475.172 32v-1.773l4.142-3.835q.528-.511.887-.92.363-.41.551-.802.187-.397.187-.858 0-.51-.233-.88a1.53 1.53 0 0 0-.636-.574 2 2 0 0 0-.915-.205q-.534 0-.932.216-.397.215-.613.62-.216.403-.216.96h-2.336q0-1.143.518-1.983.516-.84 1.448-1.301.933-.46 2.148-.46 1.25 0 2.176.443.931.437 1.449 1.216.517.778.517 1.784 0 .66-.261 1.3-.256.643-.915 1.427-.659.778-1.858 1.87l-1.699 1.664v.08h4.887V32z"/><path fill="#fff" stroke="#0055DC" stroke-width="2" d="M349 42h151v222H349z"/><path fill="#0055DC" d="M378.507 54.198H375v18.05h3.507zm91.493 0h-3.507v18.05H470z"/><path fill="#fff" stroke="#0055DC" stroke-miterlimit="10" stroke-width="1.5" d="m383.31 75.465.001 3.425 78.376-.004V75.46z"/><path fill="#C5EBF5" stroke="#0055DC" stroke-miterlimit="10" stroke-width="1.5" d="M466.492 51h-87.985v24.462h87.985z"/><path fill="#fff" d="M462.692 72.012V54.448h-80.384v17.564z"/><path fill="#0055DC" d="M388.832 59.408h-1.947v1.902h1.947zm0 5.725h-1.947v1.903h1.947zm2.667-3.016h-1.948v1.902h1.948zm2.37-2.709h-1.947v1.902h1.947zm0 5.725h-1.947v1.903h1.947zm2.52-3.016h-1.948v1.902h1.948zm2.98-2.709h-1.947v1.902h1.947zm0 5.725h-1.947v1.903h1.947zm2.519-3.016h-1.947v1.902h1.947zm3.065-2.709h-1.948v1.902h1.948zm0 5.725h-1.948v1.903h1.948zm2.371-3.016h-1.948v1.902h1.948zm2.666-2.709h-1.948v1.902h1.948zm0 5.725h-1.948v1.903h1.948zm2.224-3.016h-1.948v1.902h1.948zm2.815-2.709h-1.947v1.902h1.947zm0 5.725h-1.947v1.903h1.947zm2.075-3.016h-1.947v1.902h1.947zm39.202 3.475c1.335 0 2.418-1.057 2.418-2.361s-1.083-2.362-2.418-2.362-2.418 1.058-2.418 2.362 1.083 2.361 2.418 2.361"/><path stroke="#0055DC" stroke-miterlimit="10" stroke-width="1.5" d="M449.354 63.23h-25.606"/><path fill="#0055DC" d="M378.507 89.198H375v18.05h3.507zm91.493 0h-3.507v18.05H470z"/><path fill="#fff" stroke="#0055DC" stroke-miterlimit="10" stroke-width="1.5" d="m383.31 110.464.001 3.426 78.376-.004v-3.426z"/><path fill="#C5EBF5" stroke="#0055DC" stroke-miterlimit="10" stroke-width="1.5" d="M466.492 86h-87.985v24.462h87.985z"/><path fill="#fff" d="M462.692 107.012V89.448h-80.384v17.564z"/><path fill="#0055DC" d="M388.832 94.408h-1.947v1.902h1.947zm0 5.725h-1.947v1.903h1.947zm2.667-3.016h-1.948v1.902h1.948zm2.37-2.709h-1.947v1.902h1.947zm0 5.725h-1.947v1.903h1.947zm2.52-3.016h-1.948v1.902h1.948zm2.98-2.709h-1.947v1.902h1.947zm0 5.725h-1.947v1.903h1.947zm2.519-3.016h-1.947v1.902h1.947zm3.065-2.709h-1.948v1.902h1.948zm0 5.725h-1.948v1.903h1.948zm2.371-3.016h-1.948v1.902h1.948zm2.666-2.709h-1.948v1.902h1.948zm0 5.725h-1.948v1.903h1.948zm2.224-3.016h-1.948v1.902h1.948zm2.815-2.709h-1.947v1.902h1.947zm0 5.725h-1.947v1.903h1.947zm2.075-3.016h-1.947v1.902h1.947zm39.202 3.475c1.335 0 2.418-1.057 2.418-2.361s-1.083-2.362-2.418-2.362-2.418 1.058-2.418 2.362 1.083 2.361 2.418 2.361"/><path stroke="#0055DC" stroke-miterlimit="10" stroke-width="1.5" d="M449.354 98.23h-25.606"/><path fill="#0055DC" d="M378.507 124.313H375v18.697h3.507zm91.493 0h-3.507v18.697H470z"/><path fill="#fff" stroke="#0055DC" stroke-miterlimit="10" stroke-width="1.5" d="m383.31 146.342.001 3.548 78.376-.004v-3.549z"/><path fill="#C5EBF5" stroke="#0055DC" stroke-miterlimit="10" stroke-width="1.5" d="M466.492 121h-87.985v25.339h87.985z"/><path fill="#fff" d="M462.692 142.766v-18.194h-80.384v18.194z"/><path fill="#0055DC" d="M388.832 129.709h-1.947v1.971h1.947zm0 5.931h-1.947v1.971h1.947zm2.667-3.125h-1.948v1.971h1.948zm2.37-2.806h-1.947v1.971h1.947zm0 5.931h-1.947v1.971h1.947zm2.52-3.125h-1.948v1.971h1.948zm2.98-2.806h-1.947v1.971h1.947zm0 5.931h-1.947v1.971h1.947zm2.519-3.125h-1.947v1.971h1.947zm3.065-2.806h-1.948v1.971h1.948zm0 5.931h-1.948v1.971h1.948zm2.371-3.125h-1.948v1.971h1.948zm2.666-2.806h-1.948v1.971h1.948zm0 5.931h-1.948v1.971h1.948zm2.224-3.125h-1.948v1.971h1.948zm2.815-2.806h-1.947v1.971h1.947zm0 5.931h-1.947v1.971h1.947zm2.075-3.125h-1.947v1.971h1.947zm39.202 3.601c1.335 0 2.418-1.096 2.418-2.447s-1.083-2.446-2.418-2.446-2.418 1.095-2.418 2.446 1.083 2.447 2.418 2.447"/><path stroke="#0055DC" stroke-miterlimit="10" stroke-width="1.5" d="M449.354 133.669h-25.606"/><path fill="#0055DC" d="M378.507 160.198H375v18.05h3.507zm91.493 0h-3.507v18.05H470z"/><path fill="#fff" stroke="#0055DC" stroke-miterlimit="10" stroke-width="1.5" d="m383.31 181.464.001 3.426 78.376-.004v-3.426z"/><path fill="#C5EBF5" stroke="#0055DC" stroke-miterlimit="10" stroke-width="1.5" d="M466.492 157h-87.985v24.462h87.985z"/><path fill="#fff" d="M462.692 178.012v-17.564h-80.384v17.564z"/><path fill="#0055DC" d="M388.832 165.408h-1.947v1.902h1.947zm0 5.725h-1.947v1.903h1.947zm2.667-3.016h-1.948v1.902h1.948zm2.37-2.709h-1.947v1.902h1.947zm0 5.725h-1.947v1.903h1.947zm2.52-3.016h-1.948v1.902h1.948zm2.98-2.709h-1.947v1.902h1.947zm0 5.725h-1.947v1.903h1.947zm2.519-3.016h-1.947v1.902h1.947zm3.065-2.709h-1.948v1.902h1.948zm0 5.725h-1.948v1.903h1.948zm2.371-3.016h-1.948v1.902h1.948zm2.666-2.709h-1.948v1.902h1.948zm0 5.725h-1.948v1.903h1.948zm2.224-3.016h-1.948v1.902h1.948zm2.815-2.709h-1.947v1.902h1.947zm0 5.725h-1.947v1.903h1.947zm2.075-3.016h-1.947v1.902h1.947zm39.202 3.475c1.335 0 2.418-1.057 2.418-2.361s-1.083-2.362-2.418-2.362-2.418 1.058-2.418 2.362 1.083 2.361 2.418 2.361"/><path stroke="#0055DC" stroke-miterlimit="10" stroke-width="1.5" d="M449.354 169.231h-25.606"/><path fill="#0055DC" d="M378.507 195.198H375v18.05h3.507zm91.493 0h-3.507v18.05H470z"/><path fill="#fff" stroke="#0055DC" stroke-miterlimit="10" stroke-width="1.5" d="m383.31 216.464.001 3.426 78.376-.004v-3.426z"/><path fill="#C5EBF5" stroke="#0055DC" stroke-miterlimit="10" stroke-width="1.5" d="M466.492 192h-87.985v24.462h87.985z"/><path fill="#fff" d="M462.692 213.012v-17.564h-80.384v17.564z"/><path fill="#0055DC" d="M388.832 200.408h-1.947v1.902h1.947zm0 5.725h-1.947v1.903h1.947zm2.667-3.016h-1.948v1.902h1.948zm2.37-2.709h-1.947v1.902h1.947zm0 5.725h-1.947v1.903h1.947zm2.52-3.016h-1.948v1.902h1.948zm2.98-2.709h-1.947v1.902h1.947zm0 5.725h-1.947v1.903h1.947zm2.519-3.016h-1.947v1.902h1.947zm3.065-2.709h-1.948v1.902h1.948zm0 5.725h-1.948v1.903h1.948zm2.371-3.016h-1.948v1.902h1.948zm2.666-2.709h-1.948v1.902h1.948zm0 5.725h-1.948v1.903h1.948zm2.224-3.016h-1.948v1.902h1.948zm2.815-2.709h-1.947v1.902h1.947zm0 5.725h-1.947v1.903h1.947zm2.075-3.016h-1.947v1.902h1.947zm39.202 3.475c1.335 0 2.418-1.057 2.418-2.361s-1.083-2.362-2.418-2.362-2.418 1.058-2.418 2.362 1.083 2.361 2.418 2.361"/><path stroke="#0055DC" stroke-miterlimit="10" stroke-width="1.5" d="M449.354 204.231h-25.606"/><path fill="#222" d="M545.47 32V20.364h7.841v2.028h-5.381v2.773h4.977v2.028h-4.977v2.779h5.404V32zm11.996-5.046V32h-2.421v-8.727h2.307v1.54h.102q.29-.762.972-1.205.683-.45 1.653-.449.91 0 1.586.398t1.051 1.136q.375.733.375 1.75V32h-2.421v-5.125q.006-.8-.409-1.25-.414-.454-1.142-.454-.489 0-.863.21a1.46 1.46 0 0 0-.58.613q-.204.398-.21.96m10.572 5.188q-.994 0-1.801-.511-.801-.517-1.272-1.517-.466-1.006-.466-2.466 0-1.5.483-2.495.483-.999 1.284-1.494a3.3 3.3 0 0 1 1.767-.5q.733 0 1.221.25.495.244.796.614.306.362.466.716h.074v-4.375h2.414V32h-2.386v-1.398h-.102a3.1 3.1 0 0 1-.483.722 2.4 2.4 0 0 1-.801.585q-.489.233-1.194.233m.767-1.926q.586 0 .989-.318.41-.324.625-.904.222-.58.222-1.358t-.216-1.352-.625-.886-.995-.313q-.596 0-1.005.324t-.62.898-.21 1.33q0 .76.21 1.346.216.58.62.909.409.324 1.005.324m6.013 5.057v-12h2.387v1.466h.108q.159-.353.46-.716.307-.37.795-.614.495-.25 1.228-.25a3.3 3.3 0 0 1 1.761.5q.807.495 1.29 1.494.483.995.483 2.495 0 1.46-.472 2.466-.466 1-1.273 1.517a3.27 3.27 0 0 1-1.795.511q-.705 0-1.199-.233a2.5 2.5 0 0 1-.801-.585 3 3 0 0 1-.477-.722h-.074v4.67zm2.37-7.637q0 .78.216 1.358.216.58.625.904.409.318.994.318.59 0 1-.324.41-.33.619-.909.216-.586.216-1.347 0-.755-.21-1.33-.21-.573-.619-.897t-1.006-.324q-.59 0-1 .313-.403.312-.619.886t-.216 1.352m11.523 4.534q-1.324 0-2.29-.562a3.85 3.85 0 0 1-1.483-1.58q-.523-1.017-.523-2.357 0-1.353.523-2.364a3.8 3.8 0 0 1 1.483-1.58q.966-.568 2.29-.568 1.323 0 2.284.568.966.563 1.488 1.58.523 1.011.523 2.364 0 1.34-.523 2.357a3.83 3.83 0 0 1-1.488 1.58q-.961.562-2.284.562m.011-1.875q.602 0 1.006-.34.403-.347.608-.944.21-.596.21-1.358 0-.761-.21-1.357-.205-.597-.608-.944-.404-.345-1.006-.346-.608 0-1.023.346-.41.347-.619.944-.205.596-.205 1.357 0 .762.205 1.358.21.597.619.944.415.34 1.023.34M594.404 32v-8.727h2.42V32zm1.216-9.852q-.54 0-.926-.358a1.16 1.16 0 0 1-.381-.87q0-.5.381-.858.386-.363.926-.363t.92.363q.387.36.387.858 0 .506-.387.87-.38.357-.92.358m5.388 4.807V32h-2.421v-8.727h2.307v1.54h.102q.29-.762.972-1.205.682-.45 1.653-.449.91 0 1.586.398t1.051 1.136q.375.733.375 1.75V32h-2.421v-5.125q.006-.8-.409-1.25-.414-.454-1.142-.454-.489 0-.864.21-.369.21-.579.613-.205.398-.21.96m11.998-3.682v1.818h-5.255v-1.818zm-4.062-2.091h2.42v8.136q0 .336.103.523a.56.56 0 0 0 .284.256q.188.073.432.073.17 0 .34-.028l.262-.051.38 1.801a7 7 0 0 1-.511.13q-.33.08-.801.097-.875.034-1.534-.233a2.14 2.14 0 0 1-1.017-.83q-.364-.561-.358-1.42zM617.98 32V20.364h4.591q1.323 0 2.255.505a3.43 3.43 0 0 1 1.421 1.392q.494.886.494 2.046t-.5 2.045a3.45 3.45 0 0 1-1.449 1.381q-.943.494-2.284.494h-2.926v-1.971h2.528q.71 0 1.171-.245.465-.249.693-.687.233-.444.233-1.017 0-.58-.233-1.011a1.56 1.56 0 0 0-.693-.677q-.466-.244-1.182-.244h-1.659V32zm13.94.17q-1.323 0-2.29-.562a3.85 3.85 0 0 1-1.483-1.58q-.522-1.017-.522-2.357 0-1.353.522-2.364a3.8 3.8 0 0 1 1.483-1.58q.966-.568 2.29-.568t2.284.568q.966.563 1.489 1.58.523 1.011.523 2.364 0 1.34-.523 2.357a3.84 3.84 0 0 1-1.489 1.58q-.96.562-2.284.562m.012-1.875q.601 0 1.005-.34.404-.347.608-.944.21-.596.21-1.358 0-.761-.21-1.357-.204-.597-.608-.944-.404-.345-1.005-.346-.609 0-1.023.346-.409.347-.62.944-.204.596-.204 1.357 0 .762.204 1.358.211.597.62.944.414.34 1.023.34m9.625 1.875q-1.324 0-2.29-.562a3.85 3.85 0 0 1-1.483-1.58q-.523-1.017-.523-2.357 0-1.353.523-2.364a3.8 3.8 0 0 1 1.483-1.58q.966-.568 2.29-.568 1.323 0 2.284.568.966.563 1.488 1.58.523 1.011.523 2.364 0 1.34-.523 2.357a3.83 3.83 0 0 1-1.488 1.58q-.96.562-2.284.562m.011-1.875q.603 0 1.006-.34.403-.347.608-.944.21-.596.21-1.358 0-.761-.21-1.357-.205-.597-.608-.944-.403-.345-1.006-.346-.608 0-1.023.346-.409.347-.619.944-.204.596-.205 1.357 0 .762.205 1.358.21.597.619.944.415.34 1.023.34m8.102-9.931V32h-2.42V20.364zm9.569 11.795q-1.273 0-2.267-.437-.988-.444-1.563-1.216a3.06 3.06 0 0 1-.585-1.796h2.477q.023.426.279.75.261.318.693.494.432.177.972.177.562 0 .994-.2.432-.199.676-.55a1.4 1.4 0 0 0 .244-.813q0-.465-.261-.824-.255-.363-.739-.568-.477-.204-1.136-.204h-1.085v-1.807h1.085q.557 0 .983-.193.432-.194.67-.535.239-.346.239-.806a1.4 1.4 0 0 0-.79-1.29 1.9 1.9 0 0 0-.863-.188q-.501 0-.915.182a1.6 1.6 0 0 0-.665.506q-.25.33-.267.773h-2.358q.017-1.006.574-1.773.557-.768 1.5-1.199.95-.437 2.142-.437 1.205 0 2.108.437.903.438 1.403 1.182.506.738.5 1.659.006.977-.608 1.63-.607.654-1.585.83v.091q1.284.165 1.955.892.676.722.67 1.807a2.83 2.83 0 0 1-.574 1.767q-.573.772-1.585 1.216-1.011.443-2.318.443"/><path fill="#fff" stroke="#0055DC" stroke-width="2" d="M528 42h151v222H528z"/><path fill="#0055DC" d="M557.507 54.198H554v18.05h3.507zm91.493 0h-3.507v18.05H649z"/><path fill="#fff" stroke="#0055DC" stroke-miterlimit="10" stroke-width="1.5" d="m562.31 75.465.001 3.425 78.376-.004V75.46z"/><path fill="#C5EBF5" stroke="#0055DC" stroke-miterlimit="10" stroke-width="1.5" d="M645.492 51h-87.985v24.462h87.985z"/><path fill="#fff" d="M641.692 72.012V54.448h-80.384v17.564z"/><path fill="#0055DC" d="M567.832 59.408h-1.947v1.902h1.947zm0 5.725h-1.947v1.903h1.947zm2.667-3.016h-1.948v1.902h1.948zm2.37-2.709h-1.947v1.902h1.947zm0 5.725h-1.947v1.903h1.947zm2.52-3.016h-1.948v1.902h1.948zm2.98-2.709h-1.947v1.902h1.947zm0 5.725h-1.947v1.903h1.947zm2.519-3.016h-1.947v1.902h1.947zm3.065-2.709h-1.948v1.902h1.948zm0 5.725h-1.948v1.903h1.948zm2.371-3.016h-1.948v1.902h1.948zm2.666-2.709h-1.948v1.902h1.948zm0 5.725h-1.948v1.903h1.948zm2.224-3.016h-1.948v1.902h1.948zm2.815-2.709h-1.947v1.902h1.947zm0 5.725h-1.947v1.903h1.947zm2.075-3.016h-1.947v1.902h1.947zm39.202 3.475c1.335 0 2.418-1.057 2.418-2.361s-1.083-2.362-2.418-2.362-2.418 1.058-2.418 2.362 1.083 2.361 2.418 2.361"/><path stroke="#0055DC" stroke-miterlimit="10" stroke-width="1.5" d="M628.354 63.23h-25.606"/><path fill="#0055DC" d="M557.507 89.198H554v18.05h3.507zm91.493 0h-3.507v18.05H649z"/><path fill="#fff" stroke="#0055DC" stroke-miterlimit="10" stroke-width="1.5" d="m562.31 110.464.001 3.426 78.376-.004v-3.426z"/><path fill="#C5EBF5" stroke="#0055DC" stroke-miterlimit="10" stroke-width="1.5" d="M645.492 86h-87.985v24.462h87.985z"/><path fill="#fff" d="M641.692 107.012V89.448h-80.384v17.564z"/><path fill="#0055DC" d="M567.832 94.408h-1.947v1.902h1.947zm0 5.725h-1.947v1.903h1.947zm2.667-3.016h-1.948v1.902h1.948zm2.37-2.709h-1.947v1.902h1.947zm0 5.725h-1.947v1.903h1.947zm2.52-3.016h-1.948v1.902h1.948zm2.98-2.709h-1.947v1.902h1.947zm0 5.725h-1.947v1.903h1.947zm2.519-3.016h-1.947v1.902h1.947zm3.065-2.709h-1.948v1.902h1.948zm0 5.725h-1.948v1.903h1.948zm2.371-3.016h-1.948v1.902h1.948zm2.666-2.709h-1.948v1.902h1.948zm0 5.725h-1.948v1.903h1.948zm2.224-3.016h-1.948v1.902h1.948zm2.815-2.709h-1.947v1.902h1.947zm0 5.725h-1.947v1.903h1.947zm2.075-3.016h-1.947v1.902h1.947zm39.202 3.475c1.335 0 2.418-1.057 2.418-2.361s-1.083-2.362-2.418-2.362-2.418 1.058-2.418 2.362 1.083 2.361 2.418 2.361"/><path stroke="#0055DC" stroke-miterlimit="10" stroke-width="1.5" d="M628.354 98.23h-25.606"/><path fill="#0055DC" d="M557.507 124.313H554v18.697h3.507zm91.493 0h-3.507v18.697H649z"/><path fill="#fff" stroke="#0055DC" stroke-miterlimit="10" stroke-width="1.5" d="m562.31 146.342.001 3.548 78.376-.004v-3.549z"/><path fill="#C5EBF5" stroke="#0055DC" stroke-miterlimit="10" stroke-width="1.5" d="M645.492 121h-87.985v25.339h87.985z"/><path fill="#fff" d="M641.692 142.766v-18.194h-80.384v18.194z"/><path fill="#0055DC" d="M567.832 129.709h-1.947v1.971h1.947zm0 5.931h-1.947v1.971h1.947zm2.667-3.125h-1.948v1.971h1.948zm2.37-2.806h-1.947v1.971h1.947zm0 5.931h-1.947v1.971h1.947zm2.52-3.125h-1.948v1.971h1.948zm2.98-2.806h-1.947v1.971h1.947zm0 5.931h-1.947v1.971h1.947zm2.519-3.125h-1.947v1.971h1.947zm3.065-2.806h-1.948v1.971h1.948zm0 5.931h-1.948v1.971h1.948zm2.371-3.125h-1.948v1.971h1.948zm2.666-2.806h-1.948v1.971h1.948zm0 5.931h-1.948v1.971h1.948zm2.224-3.125h-1.948v1.971h1.948zm2.815-2.806h-1.947v1.971h1.947zm0 5.931h-1.947v1.971h1.947zm2.075-3.125h-1.947v1.971h1.947zm39.202 3.601c1.335 0 2.418-1.096 2.418-2.447s-1.083-2.446-2.418-2.446-2.418 1.095-2.418 2.446 1.083 2.447 2.418 2.447"/><path stroke="#0055DC" stroke-miterlimit="10" stroke-width="1.5" d="M628.354 133.669h-25.606"/><path fill="#0055DC" d="M557.507 160.198H554v18.05h3.507zm91.493 0h-3.507v18.05H649z"/><path fill="#fff" stroke="#0055DC" stroke-miterlimit="10" stroke-width="1.5" d="m562.31 181.464.001 3.426 78.376-.004v-3.426z"/><path fill="#C5EBF5" stroke="#0055DC" stroke-miterlimit="10" stroke-width="1.5" d="M645.492 157h-87.985v24.462h87.985z"/><path fill="#fff" d="M641.692 178.012v-17.564h-80.384v17.564z"/><path fill="#0055DC" d="M567.832 165.408h-1.947v1.902h1.947zm0 5.725h-1.947v1.903h1.947zm2.667-3.016h-1.948v1.902h1.948zm2.37-2.709h-1.947v1.902h1.947zm0 5.725h-1.947v1.903h1.947zm2.52-3.016h-1.948v1.902h1.948zm2.98-2.709h-1.947v1.902h1.947zm0 5.725h-1.947v1.903h1.947zm2.519-3.016h-1.947v1.902h1.947zm3.065-2.709h-1.948v1.902h1.948zm0 5.725h-1.948v1.903h1.948zm2.371-3.016h-1.948v1.902h1.948zm2.666-2.709h-1.948v1.902h1.948zm0 5.725h-1.948v1.903h1.948zm2.224-3.016h-1.948v1.902h1.948zm2.815-2.709h-1.947v1.902h1.947zm0 5.725h-1.947v1.903h1.947zm2.075-3.016h-1.947v1.902h1.947zm39.202 3.475c1.335 0 2.418-1.057 2.418-2.361s-1.083-2.362-2.418-2.362-2.418 1.058-2.418 2.362 1.083 2.361 2.418 2.361"/><path stroke="#0055DC" stroke-miterlimit="10" stroke-width="1.5" d="M628.354 169.231h-25.606"/><path fill="#0055DC" d="M557.507 195.198H554v18.05h3.507zm91.493 0h-3.507v18.05H649z"/><path fill="#fff" stroke="#0055DC" stroke-miterlimit="10" stroke-width="1.5" d="m562.31 216.464.001 3.426 78.376-.004v-3.426z"/><path fill="#C5EBF5" stroke="#0055DC" stroke-miterlimit="10" stroke-width="1.5" d="M645.492 192h-87.985v24.462h87.985z"/><path fill="#fff" d="M641.692 213.012v-17.564h-80.384v17.564z"/><path fill="#0055DC" d="M567.832 200.408h-1.947v1.902h1.947zm0 5.725h-1.947v1.903h1.947zm2.667-3.016h-1.948v1.902h1.948zm2.37-2.709h-1.947v1.902h1.947zm0 5.725h-1.947v1.903h1.947zm2.52-3.016h-1.948v1.902h1.948zm2.98-2.709h-1.947v1.902h1.947zm0 5.725h-1.947v1.903h1.947zm2.519-3.016h-1.947v1.902h1.947zm3.065-2.709h-1.948v1.902h1.948zm0 5.725h-1.948v1.903h1.948zm2.371-3.016h-1.948v1.902h1.948zm2.666-2.709h-1.948v1.902h1.948zm0 5.725h-1.948v1.903h1.948zm2.224-3.016h-1.948v1.902h1.948zm2.815-2.709h-1.947v1.902h1.947zm0 5.725h-1.947v1.903h1.947zm2.075-3.016h-1.947v1.902h1.947zm39.202 3.475c1.335 0 2.418-1.057 2.418-2.361s-1.083-2.362-2.418-2.362-2.418 1.058-2.418 2.362 1.083 2.361 2.418 2.361"/><path stroke="#0055DC" stroke-miterlimit="10" stroke-width="1.5" d="M628.354 204.231h-25.606"/><path fill="#0055DC" d="M557.507 230.198H554v18.05h3.507zm91.493 0h-3.507v18.05H649z"/><path fill="#fff" stroke="#0055DC" stroke-miterlimit="10" stroke-width="1.5" d="m562.31 251.464.001 3.426 78.376-.004v-3.426z"/><path fill="#C5EBF5" stroke="#0055DC" stroke-miterlimit="10" stroke-width="1.5" d="M645.492 227h-87.985v24.462h87.985z"/><path fill="#fff" d="M641.692 248.012v-17.564h-80.384v17.564z"/><path fill="#0055DC" d="M567.832 235.408h-1.947v1.902h1.947zm0 5.725h-1.947v1.903h1.947zm2.667-3.016h-1.948v1.902h1.948zm2.37-2.709h-1.947v1.902h1.947zm0 5.725h-1.947v1.903h1.947zm2.52-3.016h-1.948v1.902h1.948zm2.98-2.709h-1.947v1.902h1.947zm0 5.725h-1.947v1.903h1.947zm2.519-3.016h-1.947v1.902h1.947zm3.065-2.709h-1.948v1.902h1.948zm0 5.725h-1.948v1.903h1.948zm2.371-3.016h-1.948v1.902h1.948zm2.666-2.709h-1.948v1.902h1.948zm0 5.725h-1.948v1.903h1.948zm2.224-3.016h-1.948v1.902h1.948zm2.815-2.709h-1.947v1.902h1.947zm0 5.725h-1.947v1.903h1.947zm2.075-3.016h-1.947v1.902h1.947zm39.202 3.475c1.335 0 2.418-1.057 2.418-2.361s-1.083-2.362-2.418-2.362-2.418 1.058-2.418 2.362 1.083 2.361 2.418 2.361"/><path stroke="#0055DC" stroke-miterlimit="10" stroke-width="1.5" d="M628.354 239.231h-25.606"/><path fill="#000" d="M209.031 287.148q-.562 0-.966-.398a1.33 1.33 0 0 1-.397-.966 1.3 1.3 0 0 1 .397-.954q.404-.399.966-.398.546 0 .955.398.408.397.409.954 0 .375-.193.688-.187.306-.495.494-.307.182-.676.182m7.024.011q-1.312 0-2.335-.426-1.017-.432-1.596-1.176a2.67 2.67 0 0 1-.58-1.688q0-.728.33-1.335.335-.614.909-1.017.573-.41 1.284-.523v-.079a2.52 2.52 0 0 1-1.512-.904 2.6 2.6 0 0 1-.579-1.676q0-.903.528-1.608.53-.71 1.449-1.113.927-.41 2.102-.409 1.177 0 2.097.409.925.408 1.455 1.119.528.705.534 1.602a2.6 2.6 0 0 1-.591 1.676q-.585.717-1.5.904v.079q.699.114 1.267.523.573.403.909 1.017a2.73 2.73 0 0 1-.239 3.023q-.579.744-1.602 1.176-1.017.426-2.33.426m0-1.807q.587 0 1.023-.21a1.7 1.7 0 0 0 .682-.591q.25-.38.25-.875 0-.505-.256-.892a1.76 1.76 0 0 0-.693-.614 2.16 2.16 0 0 0-1.006-.227q-.563 0-1.005.227a1.75 1.75 0 0 0-.699.614q-.25.387-.25.892 0 .494.244.875.244.375.688.591.443.21 1.022.21m0-5.199q.489 0 .87-.198.38-.2.596-.552.216-.351.216-.812a1.46 1.46 0 0 0-.807-1.335 1.8 1.8 0 0 0-.875-.199 1.86 1.86 0 0 0-.875.199 1.47 1.47 0 0 0-.596.539 1.5 1.5 0 0 0-.21.796q0 .46.216.812.215.352.596.552.381.198.869.198m-27.668 28.802v-1.938l4.858-7.653h1.67v2.681h-.988l-3.063 4.847v.091h6.903v1.972zm5.585 2.045v-2.636l.045-.858v-8.142h2.307V311zm5.259 0v-1.773l4.142-3.835q.528-.512.886-.92.363-.41.551-.802.188-.397.188-.858 0-.51-.233-.88a1.54 1.54 0 0 0-.637-.574 2 2 0 0 0-.914-.205q-.534 0-.932.216t-.614.62-.216.96h-2.335q0-1.142.517-1.983a3.46 3.46 0 0 1 1.449-1.301q.932-.46 2.148-.46 1.25 0 2.176.443.932.437 1.449 1.216.516.778.517 1.784 0 .659-.262 1.301-.255.642-.914 1.426-.66.779-1.858 1.869l-1.699 1.665v.08h4.886V311zm11.339.148q-.562 0-.966-.398a1.33 1.33 0 0 1-.397-.966 1.3 1.3 0 0 1 .397-.954q.403-.399.966-.398.546 0 .955.398.41.397.409.954 0 .375-.193.688-.187.306-.495.494-.307.182-.676.182m6.762-11.784V311h-2.46v-9.301h-.069l-2.664 1.67v-2.181l2.88-1.824zm7.652 0V311h-2.46v-9.301h-.069l-2.664 1.67v-2.181l2.88-1.824zm8.959 9.454v-.613q0-.699.295-1.285a2.35 2.35 0 0 1 .87-.943q.573-.357 1.397-.358.835 0 1.404.353.573.351.863.943.296.585.296 1.29v.613q0 .699-.296 1.29a2.3 2.3 0 0 1-.869.937q-.574.358-1.398.358-.835 0-1.403-.358a2.3 2.3 0 0 1-.864-.937 2.84 2.84 0 0 1-.295-1.29m1.653-.613v.613q0 .404.193.762.2.358.716.358.517 0 .705-.353.193-.352.193-.767v-.613q0-.416-.182-.773t-.716-.358q-.511 0-.71.358a1.6 1.6 0 0 0-.199.773m-7.625-6.046v-.614q0-.704.301-1.289.302-.591.87-.944.573-.351 1.386-.352.841 0 1.409.352.568.353.864.944.295.585.295 1.289v.614q0 .705-.301 1.29-.296.585-.869.937-.569.347-1.398.347-.83 0-1.403-.352a2.36 2.36 0 0 1-.864-.938 2.86 2.86 0 0 1-.29-1.284m1.665-.614v.614q0 .415.193.767.2.352.699.352.523 0 .71-.352.193-.352.193-.767v-.614q0-.415-.181-.772-.183-.358-.722-.358-.505 0-.699.363a1.6 1.6 0 0 0-.193.767m-.915 9.455 8-11.636h1.489l-8 11.636zm185.755-23.852q-.562 0-.965-.398a1.32 1.32 0 0 1-.398-.966q0-.557.398-.954.403-.399.965-.398.546 0 .955.398.41.397.409.954 0 .375-.193.688-.188.306-.494.494-.307.182-.677.182m7.309.011q-1.204 0-2.148-.443-.937-.444-1.488-1.222a3.13 3.13 0 0 1-.574-1.784h2.386q.04.677.568 1.097t1.256.42q.579 0 1.023-.255a1.83 1.83 0 0 0 .698-.722 2.2 2.2 0 0 0 .256-1.068q0-.614-.261-1.08a1.85 1.85 0 0 0-.71-.727 2.1 2.1 0 0 0-1.04-.267q-.512 0-.995.21-.477.21-.744.574l-2.187-.392.551-6.136h7.113v2.011h-5.085l-.301 2.915h.068q.307-.432.926-.716.62-.284 1.387-.284 1.05 0 1.875.494.824.494 1.301 1.358.477.858.471 1.977.006 1.176-.545 2.091a3.85 3.85 0 0 1-1.528 1.432q-.977.517-2.273.517M391.422 311v-1.773l4.142-3.835q.529-.512.887-.92.363-.41.551-.802.187-.397.187-.858 0-.51-.233-.88a1.53 1.53 0 0 0-.636-.574 2 2 0 0 0-.915-.205q-.534 0-.932.216a1.5 1.5 0 0 0-.613.62q-.216.403-.216.96h-2.335q0-1.142.517-1.983a3.44 3.44 0 0 1 1.449-1.301q.932-.46 2.147-.46 1.25 0 2.176.443.933.437 1.449 1.216.517.778.517 1.784 0 .659-.261 1.301-.256.642-.915 1.426-.659.779-1.858 1.869l-1.699 1.665v.08h4.887V311zm14.368.159a5.3 5.3 0 0 1-1.733-.301 3.94 3.94 0 0 1-1.488-.96q-.66-.665-1.046-1.762-.38-1.096-.38-2.693.005-1.466.335-2.619.334-1.16.954-1.966a4.2 4.2 0 0 1 1.495-1.227q.869-.426 1.949-.426 1.164 0 2.056.454a3.8 3.8 0 0 1 1.432 1.222q.545.772.659 1.733h-2.426q-.142-.609-.596-.955-.456-.347-1.125-.347-1.137 0-1.728.989-.585.988-.596 2.688h.079q.261-.518.705-.881a3.2 3.2 0 0 1 1.017-.563 3.7 3.7 0 0 1 1.21-.198q1.034 0 1.841.488.807.483 1.273 1.33.466.846.466 1.937 0 1.182-.552 2.103a3.83 3.83 0 0 1-1.528 1.443q-.977.516-2.273.511m-.011-1.932q.569 0 1.017-.272.448-.273.705-.739.255-.466.255-1.046t-.255-1.039a1.9 1.9 0 0 0-.694-.733 1.9 1.9 0 0 0-1.011-.273q-.426 0-.79.159a2 2 0 0 0-.63.443 2.12 2.12 0 0 0-.574 1.449q0 .563.255 1.029.262.465.705.744.448.278 1.017.278m6.885 1.921q-.562 0-.966-.398a1.33 1.33 0 0 1-.398-.966q0-.557.398-.954.404-.399.966-.398.546 0 .955.398.409.397.409.954 0 .375-.194.688a1.5 1.5 0 0 1-.494.494q-.306.182-.676.182m7.078.011q-1.272 0-2.267-.437-.989-.444-1.562-1.216a3.06 3.06 0 0 1-.586-1.796h2.478q.023.426.278.75.261.318.693.495.432.176.972.176.562 0 .994-.199.433-.199.676-.551.245-.352.245-.813 0-.465-.262-.824a1.67 1.67 0 0 0-.738-.568q-.477-.204-1.137-.204h-1.085v-1.807h1.085q.558 0 .983-.193.432-.194.671-.534.238-.347.238-.807 0-.438-.21-.767a1.4 1.4 0 0 0-.579-.523 1.9 1.9 0 0 0-.864-.188q-.5 0-.915.182a1.6 1.6 0 0 0-.665.506 1.34 1.34 0 0 0-.267.773h-2.358q.018-1.007.574-1.773.558-.767 1.5-1.199.95-.437 2.142-.437 1.205 0 2.108.437.904.438 1.404 1.182.506.738.5 1.659.006.977-.608 1.631-.609.653-1.585.829v.091q1.284.165 1.954.892.676.721.671 1.807a2.85 2.85 0 0 1-.574 1.767q-.574.772-1.586 1.216-1.011.443-2.318.443m6.07-.159v-1.773l4.142-3.835q.528-.512.886-.92.364-.41.552-.802.187-.397.187-.858 0-.51-.233-.88a1.53 1.53 0 0 0-.636-.574 2 2 0 0 0-.915-.205q-.534 0-.932.216t-.613.62q-.216.403-.216.96h-2.336q0-1.142.517-1.983a3.46 3.46 0 0 1 1.449-1.301q.932-.46 2.148-.46 1.25 0 2.176.443.931.437 1.449 1.216.517.778.517 1.784 0 .659-.261 1.301-.257.642-.915 1.426-.659.779-1.858 1.869l-1.699 1.665v.08h4.886V311zm16.271-2.182v-.613q0-.699.296-1.285.301-.59.869-.943.575-.357 1.398-.358.836 0 1.403.353.574.351.864.943.295.585.295 1.29v.613q0 .699-.295 1.29-.296.585-.869.937-.574.358-1.398.358-.836 0-1.403-.358a2.3 2.3 0 0 1-.864-.937 2.84 2.84 0 0 1-.296-1.29m1.654-.613v.613q0 .404.193.762.199.358.716.358t.704-.353q.194-.352.194-.767v-.613q0-.416-.182-.773t-.716-.358q-.512 0-.71.358a1.56 1.56 0 0 0-.199.773m-7.625-6.046v-.614q0-.704.301-1.289.302-.591.869-.944.574-.351 1.387-.352.84 0 1.409.352.568.353.863.944.296.585.296 1.289v.614q0 .705-.301 1.29-.296.585-.87.937-.567.347-1.397.347t-1.404-.352a2.36 2.36 0 0 1-.863-.938 2.84 2.84 0 0 1-.29-1.284m1.665-.614v.614q0 .415.193.767.198.352.699.352.522 0 .71-.352.193-.352.193-.767v-.614q0-.415-.182-.772-.181-.358-.721-.358-.505 0-.699.363a1.6 1.6 0 0 0-.193.767m-.915 9.455 8-11.636h1.488l-8 11.636zm164.677-23.852q-.562 0-.966-.398a1.33 1.33 0 0 1-.398-.966q0-.557.398-.954.404-.399.966-.398.546 0 .955.398.409.397.409.954 0 .375-.194.688a1.5 1.5 0 0 1-.494.494q-.306.182-.676.182m7.149.011a5.3 5.3 0 0 1-1.733-.301 3.94 3.94 0 0 1-1.488-.96q-.66-.665-1.046-1.762-.38-1.096-.38-2.693.005-1.466.335-2.619.335-1.16.954-1.966a4.2 4.2 0 0 1 1.495-1.227q.869-.426 1.949-.426 1.164 0 2.056.454a3.8 3.8 0 0 1 1.432 1.222q.546.772.659 1.733h-2.426q-.142-.609-.596-.955-.456-.347-1.125-.347-1.137 0-1.728.989-.585.988-.596 2.688h.079q.261-.518.705-.881a3.2 3.2 0 0 1 1.017-.563 3.7 3.7 0 0 1 1.21-.198q1.034 0 1.841.488.807.483 1.273 1.33.465.846.466 1.937 0 1.182-.552 2.103a3.83 3.83 0 0 1-1.528 1.443q-.978.516-2.273.511m-.011-1.932q.568 0 1.017-.272.448-.273.705-.739.255-.466.255-1.046t-.255-1.039a1.9 1.9 0 0 0-.694-.733 1.9 1.9 0 0 0-1.011-.273q-.426 0-.79.159a2 2 0 0 0-.63.443 2.12 2.12 0 0 0-.574 1.449q0 .563.255 1.029.262.465.705.744.449.278 1.017.278m-24.493 25.932q-1.272 0-2.267-.437-.989-.444-1.562-1.216a3.05 3.05 0 0 1-.585-1.796h2.477q.023.426.278.75.262.318.693.495.432.176.972.176.562 0 .994-.199.433-.199.676-.551.245-.352.245-.813 0-.465-.262-.824a1.67 1.67 0 0 0-.738-.568q-.477-.204-1.137-.204h-1.085v-1.807h1.085q.557 0 .983-.193.432-.194.671-.534.238-.347.238-.807 0-.438-.21-.767a1.4 1.4 0 0 0-.579-.523 1.9 1.9 0 0 0-.864-.188q-.5 0-.915.182a1.6 1.6 0 0 0-.664.506q-.25.33-.268.773h-2.357a3.03 3.03 0 0 1 .573-1.773q.558-.767 1.5-1.199.95-.437 2.142-.437 1.205 0 2.108.437.904.438 1.404 1.182.506.738.5 1.659.006.977-.608 1.631-.608.653-1.585.829v.091q1.284.165 1.954.892.676.721.671 1.807a2.85 2.85 0 0 1-.574 1.767q-.574.772-1.585 1.216t-2.319.443m11.133-11.795V311h-2.461v-9.301h-.068l-2.665 1.67v-2.181l2.881-1.824zm3.402 11.784q-.562 0-.966-.398a1.33 1.33 0 0 1-.398-.966q0-.557.398-.954.404-.399.966-.398.545 0 .954.398.41.397.409.954 0 .375-.193.688-.188.306-.494.494-.307.182-.676.182m7.308.011q-1.205 0-2.148-.443-.937-.444-1.488-1.222a3.13 3.13 0 0 1-.574-1.784h2.386q.04.677.568 1.097.529.42 1.256.42.579 0 1.023-.255.449-.262.699-.722a2.2 2.2 0 0 0 .255-1.068q0-.614-.261-1.08a1.85 1.85 0 0 0-.71-.727 2.1 2.1 0 0 0-1.04-.267q-.511 0-.994.21-.478.21-.745.574l-2.187-.392.551-6.136h7.114v2.011h-5.086l-.301 2.915h.068q.308-.432.927-.716t1.386-.284q1.051 0 1.875.494t1.301 1.358q.477.858.472 1.977.005 1.176-.546 2.091a3.84 3.84 0 0 1-1.528 1.432q-.978.517-2.273.517m6.347-.159 4.824-9.545v-.08h-5.62v-2.011h8.165v2.039L614.914 311zm15.248-2.182v-.613q0-.699.296-1.285.301-.59.869-.943.575-.357 1.398-.358.836 0 1.403.353.575.351.864.943.295.585.295 1.29v.613q0 .699-.295 1.29-.296.585-.869.937-.575.358-1.398.358-.836 0-1.403-.358a2.3 2.3 0 0 1-.864-.937 2.84 2.84 0 0 1-.296-1.29m1.654-.613v.613q0 .404.193.762.199.358.716.358.518 0 .705-.353.192-.352.193-.767v-.613q0-.416-.182-.773t-.716-.358q-.512 0-.71.358a1.56 1.56 0 0 0-.199.773m-7.625-6.046v-.614q0-.704.301-1.289.302-.591.869-.944.574-.351 1.387-.352.84 0 1.409.352.568.353.863.944.296.585.296 1.289v.614q0 .705-.301 1.29-.296.585-.87.937-.567.347-1.397.347t-1.404-.352a2.36 2.36 0 0 1-.863-.938 2.84 2.84 0 0 1-.29-1.284m1.665-.614v.614q0 .415.193.767.198.352.699.352.522 0 .71-.352.193-.352.193-.767v-.614q0-.415-.182-.772-.181-.358-.721-.358-.506 0-.699.363a1.6 1.6 0 0 0-.193.767m-.915 9.455 8-11.636h1.489l-8 11.636zM47.503 287l-3.33-11.636h2.688l1.926 8.085h.097l2.125-8.085h2.301l2.12 8.102h.102l1.926-8.102h2.687L56.815 287h-2.397l-2.216-7.608h-.09L49.9 287zm16.777.17q-1.346 0-2.318-.545a3.73 3.73 0 0 1-1.488-1.557q-.523-1.01-.523-2.392 0-1.346.523-2.364a3.87 3.87 0 0 1 1.471-1.585q.955-.568 2.239-.568.864 0 1.608.279.75.272 1.307.823.562.552.875 1.387.312.829.312 1.943v.665h-7.37v-1.5h5.092a1.85 1.85 0 0 0-.228-.926 1.6 1.6 0 0 0-.63-.631 1.8 1.8 0 0 0-.926-.233q-.552 0-.978.256-.42.25-.659.676a1.9 1.9 0 0 0-.244.937v1.426q0 .648.239 1.12.244.472.687.727t1.051.256q.404 0 .739-.114a1.48 1.48 0 0 0 .938-.898l2.238.148a3.05 3.05 0 0 1-.699 1.409q-.523.597-1.352.932-.825.33-1.904.329m5.41-.17v-8.727h2.42V287zm1.216-9.852q-.54 0-.927-.358a1.16 1.16 0 0 1-.38-.87q0-.5.38-.858.387-.363.927-.363t.92.363q.386.358.386.858 0 .506-.386.87-.38.358-.92.358m6.899 13.307q-1.177 0-2.017-.324-.835-.318-1.33-.87a2.67 2.67 0 0 1-.642-1.238l2.239-.301q.102.261.324.488.221.228.585.364.369.142.898.142.79 0 1.3-.386.518-.38.518-1.279v-1.596h-.102a2.3 2.3 0 0 1-.478.687 2.4 2.4 0 0 1-.818.528q-.499.205-1.193.205a3.6 3.6 0 0 1-1.79-.455q-.801-.46-1.278-1.403-.472-.95-.472-2.398 0-1.482.483-2.477t1.284-1.489a3.3 3.3 0 0 1 1.767-.494q.733 0 1.228.25.494.245.795.614.307.363.472.716h.09v-1.466h2.404v8.812q0 1.114-.546 1.864-.545.75-1.51 1.125-.962.381-2.211.381m.051-5.398q.585 0 .989-.29.408-.295.625-.841.22-.551.221-1.318 0-.767-.216-1.33-.216-.567-.625-.88t-.994-.313q-.597 0-1.006.324-.409.318-.619.886t-.21 1.313q0 .756.21 1.307.215.545.62.846.408.296 1.005.296m8.387-3.102V287h-2.421v-11.636h2.352v4.448h.103q.296-.772.954-1.21.659-.443 1.654-.443.909 0 1.585.398.681.392 1.057 1.131.38.732.375 1.755V287h-2.42v-5.125q.005-.807-.41-1.256-.409-.449-1.148-.449-.494 0-.875.211-.375.21-.59.613-.21.398-.216.961m12.03-3.682v1.818h-5.256v-1.818zm-4.063-2.091h2.42v8.136q0 .336.103.523a.57.57 0 0 0 .284.256q.188.073.432.073.17 0 .34-.028l.262-.051.38 1.801a7 7 0 0 1-.51.131 4 4 0 0 1-.802.096q-.875.034-1.534-.233a2.14 2.14 0 0 1-1.017-.829q-.364-.563-.358-1.421zm6.878 10.966q-.562 0-.966-.398a1.33 1.33 0 0 1-.398-.966 1.3 1.3 0 0 1 .398-.954q.403-.399.966-.398.546 0 .954.398.41.397.41.954 0 .375-.194.688a1.5 1.5 0 0 1-.494.494q-.307.182-.676.182m0-6.114q-.562 0-.966-.398a1.32 1.32 0 0 1-.398-.966q0-.556.398-.948.403-.399.966-.398.546 0 .954.398.41.392.41.948 0 .38-.194.694a1.4 1.4 0 0 1-.494.488q-.307.182-.676.182M20.572 311v-11.636h4.591q1.325 0 2.256.505a3.43 3.43 0 0 1 1.42 1.392q.495.887.495 2.046t-.5 2.045a3.45 3.45 0 0 1-1.45 1.381q-.943.494-2.283.494h-2.926v-1.971h2.528q.711 0 1.17-.245.466-.249.694-.687.233-.444.233-1.017a2.1 2.1 0 0 0-.233-1.012 1.56 1.56 0 0 0-.694-.676q-.465-.244-1.181-.244h-1.66V311zm10.138 0v-8.727h2.347v1.522h.09q.24-.811.802-1.227.563-.42 1.295-.42.183 0 .392.022.21.023.37.063v2.148a3 3 0 0 0-.472-.091q-.3-.04-.551-.04a1.94 1.94 0 0 0-.954.233 1.7 1.7 0 0 0-.66.636q-.238.41-.238.943V311zm9.908.17q-1.324 0-2.29-.562a3.85 3.85 0 0 1-1.483-1.58q-.522-1.017-.522-2.358 0-1.352.522-2.363a3.8 3.8 0 0 1 1.483-1.58q.966-.568 2.29-.568t2.284.568q.966.563 1.489 1.58.522 1.011.523 2.363 0 1.341-.523 2.358a3.84 3.84 0 0 1-1.489 1.58q-.96.562-2.284.562m.011-1.875q.603 0 1.006-.34.405-.348.608-.944.21-.596.21-1.358 0-.76-.21-1.358-.204-.596-.608-.943-.404-.346-1.005-.346-.609 0-1.023.346-.41.347-.62.943a4.2 4.2 0 0 0-.204 1.358q0 .762.204 1.358.21.597.62.944.414.34 1.023.34M46.358 311v-11.636h2.42v4.375h.074q.16-.353.46-.716.307-.37.796-.614.495-.25 1.227-.25.955 0 1.761.5.807.495 1.29 1.494.483.995.483 2.495 0 1.46-.471 2.466-.466 1-1.273 1.517a3.27 3.27 0 0 1-1.796.511q-.705 0-1.198-.233a2.5 2.5 0 0 1-.802-.585 3 3 0 0 1-.477-.722h-.108V311zm2.37-4.364q0 .779.215 1.358.216.58.625.904.41.318.994.318.592 0 1-.324.41-.33.62-.909.216-.585.216-1.347 0-.755-.21-1.329t-.62-.898-1.006-.324q-.59 0-1 .313-.403.313-.619.886-.216.574-.216 1.352m10.069 4.529q-.835 0-1.489-.29a2.4 2.4 0 0 1-1.034-.869q-.375-.58-.375-1.444 0-.727.267-1.221t.727-.796q.46-.3 1.046-.454a8 8 0 0 1 1.239-.216q.76-.08 1.227-.148.466-.073.676-.216a.47.47 0 0 0 .21-.42v-.034q0-.54-.34-.835-.336-.296-.955-.296-.654 0-1.04.29a1.33 1.33 0 0 0-.511.716l-2.239-.182a3.04 3.04 0 0 1 .67-1.375q.501-.585 1.29-.898.795-.318 1.841-.318.727 0 1.392.171a3.6 3.6 0 0 1 1.188.528q.522.358.824.92.3.558.3 1.336V311h-2.295v-1.21h-.068q-.21.408-.562.721a2.6 2.6 0 0 1-.847.483 3.5 3.5 0 0 1-1.142.171m.693-1.671q.534 0 .943-.21.41-.216.642-.579.233-.365.233-.824v-.926q-.114.073-.312.136a6 6 0 0 1-.438.108q-.245.046-.488.085l-.444.063a3 3 0 0 0-.744.198 1.2 1.2 0 0 0-.494.37.9.9 0 0 0-.176.568q0 .493.358.756.363.255.92.255M65.458 311v-11.636h2.42v4.375h.074q.16-.353.46-.716.307-.37.796-.614.495-.25 1.227-.25.955 0 1.762.5.806.495 1.29 1.494.482.995.482 2.495 0 1.46-.471 2.466-.465 1-1.273 1.517a3.27 3.27 0 0 1-1.795.511q-.705 0-1.2-.233a2.5 2.5 0 0 1-.8-.585 3 3 0 0 1-.478-.722h-.108V311zm2.37-4.364q0 .779.215 1.358.216.58.625.904.41.318.994.318.591 0 1-.324.41-.33.62-.909.216-.585.216-1.347 0-.755-.21-1.329t-.62-.898-1.006-.324q-.59 0-1 .313-.403.313-.619.886-.216.574-.216 1.352m7.58 4.364v-8.727h2.42V311zm1.216-9.852q-.54 0-.926-.358a1.16 1.16 0 0 1-.38-.87q0-.5.38-.858.387-.363.926-.363.54 0 .92.363.387.358.387.858 0 .506-.386.87-.38.358-.92.358m5.388-1.784V311h-2.42v-11.636zM83.775 311v-8.727h2.42V311zm1.216-9.852q-.54 0-.926-.358a1.16 1.16 0 0 1-.38-.87q0-.5.38-.858.386-.363.926-.363t.92.363q.387.358.387.858 0 .506-.386.87-.381.358-.92.358m7.61 1.125v1.818h-5.256v-1.818zm-4.063-2.091h2.42v8.136q0 .336.103.523a.57.57 0 0 0 .284.256q.188.073.432.073.17 0 .34-.028l.262-.051.38 1.801a7 7 0 0 1-.51.131q-.33.08-.802.096-.874.034-1.534-.233a2.14 2.14 0 0 1-1.017-.829q-.364-.563-.358-1.421zm6.958 14.091q-.46 0-.864-.074a3.2 3.2 0 0 1-.66-.176l.546-1.807q.426.13.767.142a.97.97 0 0 0 .597-.159q.255-.17.415-.58l.142-.369-3.13-8.977h2.545l1.806 6.409h.091l1.824-6.409h2.563l-3.392 9.67a4 4 0 0 1-.665 1.227 2.7 2.7 0 0 1-1.051.813q-.637.29-1.534.29m9.119-3.125q-.563 0-.966-.398a1.33 1.33 0 0 1-.398-.966q0-.557.398-.954.403-.399.966-.398.546 0 .955.398.409.397.409.954 0 .375-.193.688-.187.306-.495.494-.306.182-.676.182m0-6.114q-.563 0-.966-.398a1.32 1.32 0 0 1-.398-.966q0-.556.398-.948.403-.399.966-.398.546 0 .955.398.409.392.409.948 0 .38-.193.694-.187.306-.495.488-.306.182-.676.182"/></svg>