<svg xmlns="http://www.w3.org/2000/svg" width="1202" height="535" fill="none" viewBox="0 0 1202 535"><path fill="#fff" d="M0 0h1202v535H0z"/><path fill="#C5EBF5" fill-rule="evenodd" stroke="#0055DC" stroke-miterlimit="10" stroke-width="1.5" d="M128.487 152H36.264c-2.443 0-4.63 2.058-4.63 4.63v60.582h101.484V156.63c0-2.572-2.187-4.63-4.631-4.63Z" clip-rule="evenodd"/><path fill="#0055DC" d="M82.312 156.502a.772.772 0 1 0-.001-1.544.772.772 0 0 0 0 1.544"/><path fill="#fff" d="M137.105 221.843H27.518c-5.66 0-9.518-.901-9.518-1.673v-2.572c0-.257.257-.515.514-.515H145.98c.257 0 .515.258.515.515v2.572c.128.772-2.83 1.673-9.39 1.673"/><path stroke="#0055DC" stroke-miterlimit="10" stroke-width="1.5" d="M137.105 221.843H27.518c-5.66 0-9.518-.901-9.518-1.673v-2.572c0-.257.257-.515.514-.515H145.98c.257 0 .515.258.515.515v2.572c.128.772-2.83 1.673-9.39 1.673Z" clip-rule="evenodd"/><path fill="#C5EBF5" d="M146.623 217.598c0-.257-.257-.515-.514-.515H18.643c-.257 0-.515.258-.515.515v2.444h128.624v-2.444z"/><path stroke="#0055DC" stroke-miterlimit="10" stroke-width="1.5" d="M137.105 221.843H27.518c-5.66 0-9.518-.901-9.518-1.673v-2.572c0-.257.257-.515.514-.515H145.98c.257 0 .515.258.515.515v2.572c.128.772-2.83 1.673-9.39 1.673Z"/><path fill="#fff" d="M128.873 159.203H35.75v54.279h93.123z"/><path fill="#0055DC" fill-rule="evenodd" d="M96.331 217.341v.514c0 .386-.771.515-1.414.515H69.835c-.643 0-1.415-.129-1.415-.515v-.514" clip-rule="evenodd"/><path fill="#CBE9F3" d="M95.014 201.783c-3.767-2-7.94-2.538-8.717-4.363-.589-1.383 0-6.012 0-6.012l-9.103-.095s.575 4.694 0 6.107c-.698 1.714-4.49 2.267-7.97 4.215"/><path stroke="#193979" stroke-miterlimit="10" stroke-width="1.5" d="M95.014 201.783c-3.767-2-7.94-2.538-8.717-4.363-.589-1.383 0-6.012 0-6.012l-9.103-.095s.575 4.694 0 6.107c-.698 1.714-4.49 2.267-7.97 4.215"/><path fill="#1B59D3" stroke="#0F387D" stroke-linecap="round" stroke-miterlimit="10" stroke-width="1.5" d="M82.204 206.545a19.55 19.55 0 0 0 12.81-4.761c-3.767-2-7.94-2.539-8.718-4.364a4 4 0 0 1-.229-1.193 23.6 23.6 0 0 1-4.328.464 23.5 23.5 0 0 1-4.325-.464c-.016.406-.09.808-.222 1.193-.697 1.715-4.489 2.268-7.97 4.216a19.55 19.55 0 0 0 12.982 4.909Z"/><path fill="#CBE9F3" d="M74.877 183.288c-.072-.588-.943-1.643-1.971-.966-1.006.661-.04 5.606 2.765 5.422"/><path stroke="#193979" stroke-miterlimit="10" stroke-width="1.5" d="M74.877 183.288c-.072-.588-.943-1.643-1.971-.966-1.006.661-.04 5.606 2.765 5.422"/><path fill="#CBE9F3" d="M88.647 183.288c.072-.588.943-1.643 1.97-.966 1.007.661.04 5.606-2.765 5.422"/><path stroke="#193979" stroke-miterlimit="10" stroke-width="1.5" d="M88.647 183.288c.072-.588.943-1.643 1.97-.966 1.007.661.04 5.606-2.765 5.422"/><path fill="#CBE9F3" stroke="#193979" stroke-miterlimit="10" stroke-width="1.5" d="M88.824 179.847a20.4 20.4 0 0 1-.656 5.747c-.268.948-.584 3.856-.948 4.609-.915 1.899-3.273 4.012-5.417 4.012s-4.258-2.112-5.417-4.011c-.443-.726-.795-3.639-1.07-4.608-.638-2.243-.534-4.297-.534-5.749 0-4.405 2.957-7.337 7.017-7.337s7.025 2.932 7.025 7.337Z"/><path fill="#0F387D" stroke="#0F387D" stroke-linejoin="round" stroke-width="1.5" d="M87.587 178.916s-7.255.683-10.566-1.703c0 0-.966 4.066-2.143 6.075 0 0-1.451-6.169.662-6.986 0 0-.175-3.423 3.599-4.3 0 0-.195.853.438.829s5.66-2.923 9.247-.658c3.587 2.264.834 5.575.834 5.575s.097 3.499-.767 4.975l-.314 1.003s-.908-3.167-.99-4.81Z"/><path stroke="#1B59D3" stroke-miterlimit="10" stroke-width="1.5" d="M82.204 206.545c10.842 0 19.631-8.789 19.631-19.631s-8.789-19.632-19.63-19.632c-10.843 0-19.632 8.789-19.632 19.632 0 10.842 8.79 19.631 19.631 19.631Z"/><path stroke="#1B59D3" stroke-miterlimit="10" stroke-width="1.5" d="M82.204 206.545c10.842 0 19.631-8.789 19.631-19.631s-8.789-19.632-19.63-19.632c-10.843 0-19.632 8.789-19.632 19.632 0 10.842 8.79 19.631 19.631 19.631Z"/><path fill="#222" d="M63.034 234v-8.727h3.494q.963 0 1.607.285.643.286.967.793.324.502.324 1.159 0 .512-.205.899a1.76 1.76 0 0 1-.562.631 2.3 2.3 0 0 1-.81.345v.085q.5.021.933.281.44.261.712.729.273.465.273 1.108 0 .694-.345 1.24-.341.541-1.01.857t-1.65.315zm1.845-1.509h1.504q.772 0 1.125-.294a.98.98 0 0 0 .354-.792q0-.363-.175-.639a1.2 1.2 0 0 0-.498-.435 1.7 1.7 0 0 0-.763-.158h-1.547zm0-3.566h1.368q.38 0 .673-.132a1.1 1.1 0 0 0 .469-.384 1 1 0 0 0 .175-.592.96.96 0 0 0-.337-.763q-.333-.29-.946-.29H64.88zm9.012 5.203q-.993 0-1.718-.422a2.9 2.9 0 0 1-1.112-1.185q-.392-.763-.392-1.768 0-1.014.392-1.773a2.86 2.86 0 0 1 1.112-1.185q.725-.426 1.718-.426t1.713.426q.724.423 1.116 1.185.392.759.392 1.773 0 1.005-.392 1.768a2.9 2.9 0 0 1-1.116 1.185q-.72.422-1.713.422m.008-1.406q.453 0 .755-.256.301-.26.456-.707a3 3 0 0 0 .157-1.019q0-.571-.157-1.018a1.6 1.6 0 0 0-.456-.708 1.12 1.12 0 0 0-.755-.26q-.456 0-.767.26-.307.26-.464.708a3.1 3.1 0 0 0-.154 1.018q0 .571.154 1.019.158.447.464.707.311.256.767.256m9.84-3.401-1.662.102a.85.85 0 0 0-.183-.383 1 1 0 0 0-.371-.277 1.3 1.3 0 0 0-.541-.107q-.422 0-.712.179-.29.175-.29.469 0 .234.188.396t.643.26l1.185.239q.954.196 1.423.631.47.434.469 1.142 0 .643-.38 1.129-.375.486-1.03.758-.653.269-1.505.269-1.3 0-2.07-.541a2.1 2.1 0 0 1-.9-1.483l1.785-.094a.92.92 0 0 0 .393.605q.31.204.797.205.476 0 .767-.184.293-.187.298-.481a.5.5 0 0 0-.209-.405q-.205-.162-.63-.247l-1.134-.226q-.96-.191-1.428-.665-.465-.472-.464-1.206 0-.63.34-1.086.345-.456.968-.704.627-.246 1.466-.247 1.24 0 1.952.524.715.525.835 1.428m4.774-1.866v1.363H84.57v-1.363zm-3.047-1.569h1.815v6.103q0 .25.077.392a.42.42 0 0 0 .213.191.9.9 0 0 0 .324.056q.127 0 .255-.021l.196-.039.286 1.351q-.137.042-.384.098-.247.06-.6.072-.657.026-1.151-.174a1.6 1.6 0 0 1-.763-.622q-.273-.423-.268-1.066zm7.116 8.242q-.993 0-1.717-.422a2.9 2.9 0 0 1-1.112-1.185q-.392-.763-.392-1.768 0-1.014.392-1.773a2.86 2.86 0 0 1 1.112-1.185q.724-.426 1.717-.426t1.713.426q.724.423 1.117 1.185.392.759.392 1.773 0 1.005-.392 1.768a2.9 2.9 0 0 1-1.117 1.185q-.72.422-1.713.422m.009-1.406q.45 0 .754-.256.303-.26.456-.707a3 3 0 0 0 .158-1.019q0-.571-.158-1.018a1.6 1.6 0 0 0-.456-.708 1.12 1.12 0 0 0-.754-.26q-.456 0-.767.26-.308.26-.465.708a3.1 3.1 0 0 0-.153 1.018q0 .571.153 1.019.158.447.465.707.31.256.767.256m6.209-2.506V234h-1.816v-6.545h1.73v1.154h.077a1.83 1.83 0 0 1 .729-.903q.51-.337 1.24-.337.681 0 1.189.299.507.298.788.852.281.55.281 1.312V234h-1.815v-3.844q.005-.6-.307-.937-.311-.341-.856-.341-.367 0-.648.158-.278.157-.435.46a1.6 1.6 0 0 0-.157.72"/><path fill="#fff" stroke="#F6821F" stroke-width="2" d="M209 31h661v483H209z"/><path fill="#fff" d="M252 17h346v28H252z"/><path fill="#222" d="M292.878 24.656h-3.733a3.6 3.6 0 0 0-.418-1.287q-.315-.57-.809-.971a3.6 3.6 0 0 0-1.142-.614 4.4 4.4 0 0 0-1.39-.213q-1.355 0-2.36.673-1.007.665-1.56 1.944-.554 1.27-.554 3.085 0 1.866.554 3.136.563 1.27 1.568 1.918t2.327.647a4.6 4.6 0 0 0 1.372-.196q.639-.195 1.134-.57a3.3 3.3 0 0 0 .818-.93q.332-.545.46-1.244l3.733.017a6.8 6.8 0 0 1-.725 2.318q-.57 1.108-1.542 1.986-.963.87-2.301 1.38-1.33.504-3.009.504-2.335 0-4.176-1.057-1.832-1.057-2.898-3.06-1.056-2.002-1.056-4.85 0-2.854 1.073-4.857 1.074-2.002 2.915-3.051 1.84-1.057 4.142-1.057 1.517 0 2.813.426a7.1 7.1 0 0 1 2.309 1.244 6.4 6.4 0 0 1 1.637 1.986q.64 1.176.818 2.693m5.753-6.11V36H295V18.546zm8.367 17.71q-1.986 0-3.435-.844a5.77 5.77 0 0 1-2.224-2.37q-.784-1.524-.784-3.536 0-2.029.784-3.546a5.7 5.7 0 0 1 2.224-2.37q1.449-.85 3.435-.851 1.986 0 3.426.852a5.7 5.7 0 0 1 2.233 2.37q.784 1.515.784 3.545 0 2.01-.784 3.537a5.76 5.76 0 0 1-2.233 2.369q-1.44.844-3.426.844m.017-2.813q.903 0 1.508-.511.606-.52.912-1.415.316-.895.316-2.037t-.316-2.037q-.306-.894-.912-1.415-.605-.52-1.508-.52-.912 0-1.534.52-.614.52-.929 1.415-.307.896-.307 2.037t.307 2.037q.315.895.929 1.415.622.51 1.534.511m16.726-3.017V22.91h3.63V36h-3.485v-2.378h-.137a3.87 3.87 0 0 1-1.474 1.85q-1.023.698-2.497.698-1.312 0-2.31-.596-.998-.597-1.56-1.696-.553-1.1-.562-2.634V22.91h3.631v7.688q.008 1.158.622 1.832.613.673 1.645.673.656 0 1.227-.298a2.34 2.34 0 0 0 .92-.903q.358-.597.35-1.475m10.902 5.787a4.94 4.94 0 0 1-2.701-.767q-1.202-.776-1.909-2.276-.699-1.508-.699-3.698 0-2.25.724-3.742.725-1.5 1.926-2.241 1.21-.75 2.651-.75 1.1 0 1.832.375.742.365 1.193.92.46.546.699 1.074h.111v-6.562h3.622V36h-3.579v-2.097h-.154a4.7 4.7 0 0 1-.724 1.083q-.46.528-1.202.878-.732.35-1.79.35m1.151-2.89q.877 0 1.483-.476.613-.486.937-1.356.333-.87.333-2.037t-.324-2.028q-.324-.86-.938-1.33-.613-.468-1.491-.468-.895 0-1.509.486-.613.485-.929 1.346-.315.861-.315 1.994 0 1.143.315 2.02.324.87.929 1.364.614.486 1.509.486m15.867-10.414v2.727h-8.079V22.91zM345.431 36V21.963q0-1.424.554-2.36a3.56 3.56 0 0 1 1.534-1.407q.972-.469 2.207-.469.836 0 1.526.128.7.128 1.04.23l-.648 2.727a5 5 0 0 0-.528-.127 3.3 3.3 0 0 0-.631-.06q-.8 0-1.117.375-.315.366-.315 1.031V36zm11.623-17.454V36h-3.631V18.546zm6.185 17.701q-1.252 0-2.233-.434a3.6 3.6 0 0 1-1.551-1.305q-.562-.868-.562-2.164 0-1.091.4-1.833a3.24 3.24 0 0 1 1.091-1.193q.69-.451 1.568-.682.886-.23 1.858-.323 1.142-.12 1.841-.222.699-.111 1.014-.324t.316-.63v-.052q0-.81-.512-1.253-.502-.443-1.432-.443-.98 0-1.559.435a2 2 0 0 0-.767 1.074l-3.358-.273a4.56 4.56 0 0 1 1.005-2.062q.75-.879 1.935-1.347 1.193-.477 2.762-.477a8.4 8.4 0 0 1 2.088.255q1.005.256 1.781.793.784.537 1.236 1.38.451.836.451 2.003V36h-3.443v-1.815h-.102q-.316.614-.844 1.082a3.9 3.9 0 0 1-1.27.724q-.741.255-1.713.256m1.04-2.505q.801 0 1.415-.316.613-.324.963-.87a2.24 2.24 0 0 0 .349-1.235v-1.39q-.17.112-.469.205-.289.085-.656.162a32 32 0 0 1-.733.128l-.665.094a4.5 4.5 0 0 0-1.116.298 1.8 1.8 0 0 0-.741.554q-.265.341-.265.852 0 .742.537 1.134.546.384 1.381.384M372.972 36V22.91h3.52v2.283h.136q.359-1.219 1.202-1.84.844-.631 1.943-.631.273 0 .588.034.316.034.554.093v3.222a5 5 0 0 0-.707-.136 6 6 0 0 0-.827-.06q-.8 0-1.432.35a2.6 2.6 0 0 0-.988.954q-.358.614-.358 1.415V36zm14.721.256q-2.02 0-3.477-.819a5.6 5.6 0 0 1-2.233-2.335q-.784-1.517-.784-3.588 0-2.02.784-3.545a5.8 5.8 0 0 1 2.207-2.378q1.432-.852 3.358-.852 1.296 0 2.412.417 1.125.41 1.96 1.236.844.826 1.313 2.08.468 1.244.468 2.914v.998h-11.054v-2.25h7.637q0-.784-.341-1.39a2.44 2.44 0 0 0-.946-.946q-.597-.35-1.389-.35-.827 0-1.466.384-.631.375-.989 1.015-.358.63-.366 1.406v2.139q0 .972.358 1.679.366.708 1.031 1.09.665.385 1.577.384a3.4 3.4 0 0 0 1.108-.17q.503-.17.86-.511a2.2 2.2 0 0 0 .546-.836l3.358.222a4.6 4.6 0 0 1-1.049 2.114q-.783.894-2.028 1.397-1.236.495-2.855.495m24.662-12.068a3.8 3.8 0 0 0-.502-1.1 3.1 3.1 0 0 0-.793-.818 3.4 3.4 0 0 0-1.057-.52 4.5 4.5 0 0 0-1.304-.179q-1.338 0-2.352.665-1.005.665-1.568 1.935-.563 1.26-.563 3.085t.554 3.102q.555 1.278 1.568 1.952 1.015.664 2.395.664 1.254 0 2.14-.443a3.2 3.2 0 0 0 1.363-1.27q.477-.818.477-1.934l.75.11h-4.5V26.66h7.304v2.199q0 2.301-.971 3.954a6.63 6.63 0 0 1-2.676 2.54q-1.705.887-3.904.887-2.455 0-4.312-1.083-1.858-1.09-2.898-3.093-1.03-2.011-1.031-4.773 0-2.122.613-3.784.623-1.67 1.739-2.83a7.5 7.5 0 0 1 2.6-1.764q1.482-.605 3.213-.605 1.482 0 2.761.434a7.4 7.4 0 0 1 2.267 1.21 6.6 6.6 0 0 1 1.628 1.867q.63 1.074.809 2.37zm9.791-5.642V36h-3.631V18.546zm8.367 17.71q-1.986 0-3.435-.844a5.8 5.8 0 0 1-2.224-2.37q-.784-1.524-.784-3.536 0-2.029.784-3.546a5.7 5.7 0 0 1 2.224-2.37q1.449-.85 3.435-.851 1.986 0 3.426.852a5.7 5.7 0 0 1 2.233 2.37q.784 1.515.784 3.545 0 2.01-.784 3.537a5.76 5.76 0 0 1-2.233 2.369q-1.44.844-3.426.844m.017-2.813q.903 0 1.509-.511.604-.52.912-1.415.315-.895.315-2.037t-.315-2.037q-.308-.894-.912-1.415-.606-.52-1.509-.52-.912 0-1.534.52-.614.52-.929 1.415-.307.896-.307 2.037t.307 2.037q.315.895.929 1.415.622.51 1.534.511M438.929 36V18.546h3.631v6.562h.111a4.8 4.8 0 0 1 .69-1.074q.46-.554 1.193-.92.742-.375 1.841-.375 1.432 0 2.642.75 1.21.741 1.935 2.241.724 1.492.724 3.742 0 2.19-.707 3.698-.699 1.5-1.909 2.276-1.202.767-2.693.767-1.057 0-1.799-.35a3.7 3.7 0 0 1-1.201-.877 4.5 4.5 0 0 1-.716-1.083h-.162V36zm3.554-6.546q0 1.169.324 2.037.324.87.938 1.356.613.477 1.491.477.887 0 1.5-.486.614-.495.929-1.364.324-.877.324-2.02 0-1.133-.315-1.994-.316-.861-.929-1.346t-1.509-.486q-.887 0-1.5.469-.605.468-.929 1.33-.324.86-.324 2.027m14.913 6.793q-1.253 0-2.233-.434a3.6 3.6 0 0 1-1.551-1.305q-.563-.868-.563-2.164 0-1.091.401-1.833a3.24 3.24 0 0 1 1.091-1.193q.69-.451 1.568-.682.886-.23 1.858-.323 1.142-.12 1.841-.222.699-.111 1.014-.324t.315-.63v-.052q0-.81-.511-1.253-.503-.443-1.432-.443-.98 0-1.56.435a2 2 0 0 0-.767 1.074l-3.358-.273a4.6 4.6 0 0 1 1.006-2.062q.75-.879 1.935-1.347 1.193-.477 2.761-.477a8.4 8.4 0 0 1 2.088.255q1.006.256 1.782.793.783.537 1.235 1.38.452.836.452 2.003V36h-3.443v-1.815h-.102q-.316.614-.844 1.082a3.9 3.9 0 0 1-1.27.724q-.741.255-1.713.256m1.04-2.505q.8 0 1.414-.316a2.5 2.5 0 0 0 .963-.87q.35-.545.35-1.235v-1.39a2 2 0 0 1-.469.205 9 9 0 0 1-.656.162q-.366.069-.733.128l-.665.094a4.5 4.5 0 0 0-1.116.298 1.8 1.8 0 0 0-.742.554q-.264.341-.264.852 0 .742.537 1.134.546.384 1.381.384m12.323-15.196V36h-3.63V18.546zm22.219 0V36h-3.187l-7.594-10.986h-.128V36h-3.69V18.546h3.238l7.534 10.977h.154V18.546zm8.491 17.71q-2.02 0-3.477-.819a5.6 5.6 0 0 1-2.233-2.335q-.784-1.517-.784-3.588 0-2.02.784-3.545a5.8 5.8 0 0 1 2.207-2.378q1.432-.852 3.358-.852 1.296 0 2.412.417 1.125.41 1.96 1.236.844.826 1.313 2.08.468 1.244.468 2.914v.998h-11.054v-2.25h7.637q0-.784-.341-1.39a2.44 2.44 0 0 0-.946-.946q-.597-.35-1.389-.35-.827 0-1.466.384-.631.375-.989 1.015-.358.63-.366 1.406v2.139q0 .972.358 1.679.366.708 1.031 1.09.665.385 1.577.384a3.4 3.4 0 0 0 1.107-.17q.504-.17.861-.511a2.2 2.2 0 0 0 .546-.836l3.358.222a4.6 4.6 0 0 1-1.049 2.114q-.783.894-2.028 1.397-1.236.495-2.855.495m14.885-13.347v2.727h-7.884V22.91zm-6.094-3.136h3.631v12.204q0 .503.153.784.153.273.426.384.282.11.648.11.255 0 .511-.042l.392-.077.571 2.702a10 10 0 0 1-.767.196 6 6 0 0 1-1.201.145q-1.312.051-2.301-.35a3.2 3.2 0 0 1-1.526-1.244q-.546-.844-.537-2.13zM520.845 36l-3.562-13.09h3.673l2.028 8.795h.12l2.113-8.796h3.605l2.148 8.744h.111l1.994-8.744h3.665L533.186 36h-3.844l-2.25-8.233h-.162L524.68 36zm22.963.256q-1.986 0-3.435-.844a5.8 5.8 0 0 1-2.225-2.37q-.784-1.524-.784-3.536 0-2.029.784-3.546a5.7 5.7 0 0 1 2.225-2.37q1.449-.85 3.435-.851 1.985 0 3.426.852a5.7 5.7 0 0 1 2.233 2.37q.784 1.515.784 3.545 0 2.01-.784 3.537a5.76 5.76 0 0 1-2.233 2.369q-1.442.844-3.426.844m.017-2.813q.903 0 1.508-.511.605-.52.912-1.415.315-.895.315-2.037t-.315-2.037q-.307-.894-.912-1.415-.605-.52-1.508-.52-.912 0-1.535.52-.613.52-.928 1.415-.307.896-.307 2.037t.307 2.037q.315.895.928 1.415.623.51 1.535.511M552.156 36V22.91h3.519v2.283h.137q.358-1.219 1.201-1.84a3.16 3.16 0 0 1 1.944-.631q.272 0 .588.034t.554.093v3.222a5 5 0 0 0-.708-.136 6 6 0 0 0-.826-.06q-.801 0-1.432.35a2.57 2.57 0 0 0-.989.954q-.358.614-.358 1.415V36zm12.654-3.767.008-4.355h.529l4.193-4.969h4.167l-5.633 6.58h-.861zM561.52 36V18.546h3.631V36zm8.182 0-3.853-5.702 2.421-2.565L573.955 36zm327.696 413.328h-1.866a1.8 1.8 0 0 0-.209-.643 1.6 1.6 0 0 0-.405-.486 1.8 1.8 0 0 0-.571-.307 2.2 2.2 0 0 0-.694-.106q-.678 0-1.181.336-.503.333-.78.972-.276.635-.277 1.542 0 .934.277 1.569.282.634.784.958.503.324 1.164.324.37 0 .686-.098a1.8 1.8 0 0 0 .567-.285 1.7 1.7 0 0 0 .409-.465q.165-.273.23-.622l1.866.009q-.072.6-.362 1.159-.285.554-.771.993a3.7 3.7 0 0 1-1.151.69 4.2 4.2 0 0 1-1.504.251q-1.169 0-2.088-.528-.916-.528-1.449-1.53-.528-1.002-.528-2.425 0-1.427.536-2.429.537-1.001 1.458-1.525.92-.528 2.071-.529.759 0 1.406.213.652.214 1.155.623.503.404.818.993.32.587.409 1.346m3.105-3.055V455h-1.816v-8.727zm4.411 8.855q-.993 0-1.717-.422a2.9 2.9 0 0 1-1.112-1.185q-.393-.762-.392-1.768 0-1.014.392-1.773a2.86 2.86 0 0 1 1.112-1.185q.724-.426 1.717-.426t1.713.426q.724.423 1.117 1.185.392.759.392 1.773 0 1.006-.392 1.768a2.9 2.9 0 0 1-1.117 1.185q-.72.422-1.713.422m.009-1.406q.451 0 .754-.256a1.6 1.6 0 0 0 .456-.707q.158-.448.158-1.019t-.158-1.018a1.6 1.6 0 0 0-.456-.708 1.12 1.12 0 0 0-.754-.26q-.456 0-.767.26-.308.26-.465.708a3.1 3.1 0 0 0-.153 1.018q0 .571.153 1.019.158.447.465.707.31.255.767.256m8.591-1.509v-3.758h1.815V455h-1.743v-1.189h-.068a1.94 1.94 0 0 1-.737.925q-.511.35-1.249.349-.656 0-1.155-.298a2.06 2.06 0 0 1-.78-.848q-.276-.55-.281-1.317v-4.167h1.816v3.843q.003.58.311.916.306.337.822.337.328 0 .614-.149.285-.153.46-.452.179-.298.175-.737m5.679 2.894q-.745 0-1.351-.384-.6-.388-.954-1.138-.35-.754-.35-1.849 0-1.125.362-1.871.363-.75.963-1.121.606-.375 1.326-.375.55 0 .916.188.37.183.597.46.23.273.349.537h.055v-3.281h1.811V455h-1.789v-1.048h-.077a2.3 2.3 0 0 1-.362.541 1.8 1.8 0 0 1-.601.439q-.367.175-.895.175m.575-1.445q.44 0 .742-.239.306-.242.469-.677.166-.435.166-1.019t-.162-1.014a1.46 1.46 0 0 0-.469-.665 1.2 1.2 0 0 0-.746-.234q-.447 0-.754.243a1.5 1.5 0 0 0-.464.673 2.9 2.9 0 0 0-.158.997q0 .572.158 1.01.16.435.464.682.307.243.754.243m8.162-5.207v1.363h-4.04v-1.363zM924.815 455v-7.018q0-.712.277-1.181.28-.469.767-.703a2.5 2.5 0 0 1 1.104-.234q.417 0 .762.064.35.063.52.115l-.324 1.363a3 3 0 0 0-.264-.064 1.6 1.6 0 0 0-.315-.03q-.4 0-.558.188-.159.183-.158.516V455zm6.039-8.727V455h-1.815v-8.727zm3.321 8.851q-.627 0-1.117-.218a1.8 1.8 0 0 1-.775-.652q-.281-.434-.281-1.082 0-.546.2-.916t.545-.597q.346-.225.784-.341.444-.115.929-.162.572-.06.921-.111.35-.054.507-.161a.36.36 0 0 0 .158-.316v-.025q0-.405-.256-.627-.251-.221-.716-.221-.49 0-.78.217a1 1 0 0 0-.383.537l-1.679-.137q.128-.596.503-1.031.375-.438.967-.673.597-.239 1.381-.239.545 0 1.044.128.503.127.89.396.393.269.618.691.226.417.226 1.001V455h-1.722v-.908h-.051a1.8 1.8 0 0 1-.422.542 2 2 0 0 1-.635.362 2.6 2.6 0 0 1-.856.128m.52-1.253q.4 0 .707-.158.307-.162.482-.435a1.1 1.1 0 0 0 .174-.617v-.695a1 1 0 0 1-.234.102 4 4 0 0 1-.328.081q-.183.034-.367.064l-.332.047a2.2 2.2 0 0 0-.558.149.9.9 0 0 0-.371.277.68.68 0 0 0-.132.426q0 .37.268.567.273.192.691.192m4.574 1.129v-6.545h1.76v1.142h.068q.18-.61.601-.921.422-.315.972-.315a2.6 2.6 0 0 1 .571.064v1.611a3 3 0 0 0-.767-.098q-.4 0-.716.174a1.3 1.3 0 0 0-.494.477q-.18.308-.179.708V455zm7.589.128q-1.01 0-1.739-.409a2.8 2.8 0 0 1-1.116-1.168q-.392-.759-.392-1.794 0-1.01.392-1.773a2.9 2.9 0 0 1 1.103-1.189q.716-.426 1.679-.426.648 0 1.206.209.563.204.98.618.422.413.657 1.04.234.622.234 1.457v.499h-5.527v-1.125h3.818q0-.393-.17-.695a1.23 1.23 0 0 0-.473-.473 1.36 1.36 0 0 0-.695-.175q-.413 0-.733.192-.315.188-.494.507a1.43 1.43 0 0 0-.183.703v1.07q0 .486.179.84.183.353.515.545.333.192.789.192.302 0 .554-.085.251-.086.43-.256t.273-.418l1.679.111q-.128.605-.524 1.057-.393.447-1.015.699-.617.246-1.427.247m6.668-7.334v-1.521h7.167v1.521h-2.672V455h-1.823v-7.206zm11.62 4.419v-3.758h1.816V455h-1.743v-1.189h-.068a1.94 1.94 0 0 1-.737.925q-.512.35-1.249.349-.656 0-1.155-.298a2.06 2.06 0 0 1-.78-.848q-.276-.55-.281-1.317v-4.167h1.815v3.843q.005.58.311.916.307.337.823.337.328 0 .614-.149.285-.153.46-.452.179-.298.174-.737m5.083-.997V455h-1.815v-6.545h1.73v1.154h.077q.217-.57.728-.903.512-.337 1.24-.337.682 0 1.189.299.507.298.789.852.28.55.281 1.312V455h-1.815v-3.844q.003-.6-.307-.937-.312-.341-.857-.341-.366 0-.647.158-.278.157-.435.46a1.6 1.6 0 0 0-.158.72m7.465 0V455h-1.815v-6.545h1.73v1.154h.077q.216-.57.728-.903.512-.337 1.24-.337.682 0 1.189.299.507.298.789.852.28.55.281 1.312V455h-1.816v-3.844q.005-.6-.306-.937-.312-.341-.857-.341-.366 0-.648.158a1.1 1.1 0 0 0-.434.46 1.6 1.6 0 0 0-.158.72m8.633 3.912q-1.01 0-1.739-.409a2.8 2.8 0 0 1-1.117-1.168q-.392-.759-.392-1.794 0-1.01.392-1.773.393-.762 1.104-1.189.716-.426 1.679-.426.648 0 1.206.209.563.204.98.618.422.413.656 1.04.235.622.235 1.457v.499h-5.527v-1.125h3.818q0-.393-.17-.695a1.23 1.23 0 0 0-.473-.473 1.36 1.36 0 0 0-.695-.175q-.414 0-.733.192-.315.188-.494.507a1.43 1.43 0 0 0-.184.703v1.07q0 .486.179.84.184.353.516.545t.788.192q.303 0 .554-.085t.431-.256a1.1 1.1 0 0 0 .272-.418l1.679.111q-.128.605-.524 1.057a2.6 2.6 0 0 1-1.014.699q-.618.246-1.427.247m6.004-8.855V455h-1.816v-8.727z"/><path fill="#0055DC" d="M1039.03 48.468h-18.92a7.1 7.1 0 0 1-5.02-2.087 7.08 7.08 0 0 1-2.09-5.022 7.3 7.3 0 0 1 .7-3.042 7.25 7.25 0 0 1 1.9-2.473 6.82 6.82 0 0 1 4.85-1.595 9.64 9.64 0 0 1 10.12-5.94 9.63 9.63 0 0 1 8.36 8.234 5.8 5.8 0 0 1 4 1.361 6 6 0 0 1 1.88 3.05 6 6 0 0 1-.18 3.577 6.07 6.07 0 0 1-2.19 2.84 6.03 6.03 0 0 1-3.41 1.096zM1020 36.234a4.76 4.76 0 0 0-3.11 1.14 5.1 5.1 0 0 0-1.38 1.786c-.33.688-.5 1.438-.51 2.199 0 1.351.54 2.648 1.49 3.605a5.13 5.13 0 0 0 3.6 1.504h18.94a4 4 0 0 0 2.81-1.165 4 4 0 0 0 1.16-2.806c.01-.58-.11-1.153-.35-1.683a4 4 0 0 0-1.01-1.387 4.14 4.14 0 0 0-3.46-.809l-1.13.182-.03-1.141a7.6 7.6 0 0 0-1.96-4.89 7.63 7.63 0 0 0-9.79-1.331 7.6 7.6 0 0 0-3.19 4.19l-.26.844-.87-.154a5.4 5.4 0 0 0-.95-.084"/><path fill="#222" d="M1054.01 48V36.364h4.59c.88 0 1.64.168 2.26.505.62.334 1.09.798 1.42 1.392.33.591.49 1.273.49 2.046s-.16 1.454-.5 2.045a3.4 3.4 0 0 1-1.45 1.381c-.62.33-1.39.494-2.28.494h-2.93v-1.971h2.53q.72 0 1.17-.245c.31-.166.54-.396.7-.687.15-.296.23-.635.23-1.017 0-.387-.08-.724-.23-1.012a1.6 1.6 0 0 0-.7-.676c-.31-.163-.7-.244-1.18-.244h-1.66V48zm15.74-3.716v-5.011h2.42V48h-2.33v-1.585h-.09c-.2.511-.52.922-.98 1.233-.46.31-1.01.466-1.67.466-.58 0-1.09-.133-1.54-.398a2.76 2.76 0 0 1-1.04-1.13c-.24-.49-.37-1.075-.37-1.756v-5.557h2.42v5.125c0 .515.14.922.41 1.221.28.3.64.45 1.1.45.29 0 .57-.067.82-.2.25-.136.46-.337.61-.602q.24-.398.24-.983m4.22 3.716V36.364h2.42v4.375h.08c.1-.235.26-.474.46-.716.2-.247.47-.451.79-.614q.495-.25 1.23-.25c.64 0 1.22.167 1.76.5q.81.495 1.29 1.494.48.995.48 2.495c0 .973-.15 1.795-.47 2.466-.31.666-.73 1.172-1.27 1.517-.54.34-1.13.511-1.8.511q-.705 0-1.2-.233a2.6 2.6 0 0 1-.8-.585 3.2 3.2 0 0 1-.47-.722h-.11V48zm2.37-4.364c0 .52.07.972.22 1.358a2 2 0 0 0 .62.904c.27.212.61.318 1 .318s.72-.108 1-.324c.27-.22.48-.523.62-.909q.21-.586.21-1.347 0-.755-.21-1.33a2 2 0 0 0-.62-.897c-.27-.216-.61-.324-1-.324-.4 0-.73.104-1 .313-.27.208-.48.503-.62.886-.15.383-.22.833-.22 1.352m10-7.272V48h-2.42V36.364zM1088.11 48v-8.727h2.42V48zm1.21-9.852c-.36 0-.67-.12-.92-.358a1.15 1.15 0 0 1-.39-.87q0-.5.39-.858c.25-.242.56-.363.92-.363s.67.121.92.364q.39.357.39.857 0 .506-.39.87a1.3 1.3 0 0 1-.92.358m6.91 10.022c-.89 0-1.66-.189-2.3-.568a3.8 3.8 0 0 1-1.48-1.59q-.51-1.018-.51-2.342 0-1.341.51-2.352c.35-.678.85-1.206 1.49-1.585q.96-.574 2.28-.574c.76 0 1.43.138 2 .415a3.34 3.34 0 0 1 1.36 1.165c.33.5.52 1.087.55 1.761h-2.28c-.07-.436-.24-.786-.52-1.051-.27-.27-.63-.404-1.07-.404-.37 0-.7.103-.98.307-.28.201-.49.495-.65.881s-.23.854-.23 1.403c0 .557.07 1.03.22 1.42q.24.586.66.893c.28.204.61.307.98.307a1.54 1.54 0 0 0 1.3-.665c.14-.22.24-.483.29-.79h2.28c-.04.667-.22 1.254-.55 1.761-.32.504-.76.898-1.33 1.182s-1.24.426-2.02.426m12.78 0c-.9 0-1.67-.181-2.32-.545a3.77 3.77 0 0 1-1.49-1.557c-.35-.674-.52-1.471-.52-2.392 0-.898.17-1.686.52-2.364q.525-1.016 1.47-1.585c.64-.378 1.39-.568 2.24-.568.58 0 1.11.093 1.61.279.5.181.94.456 1.31.823q.555.552.87 1.387c.21.553.31 1.2.31 1.943v.665h-7.37v-1.5h5.1c0-.349-.08-.657-.23-.926a1.6 1.6 0 0 0-.63-.631 1.83 1.83 0 0 0-.93-.233c-.37 0-.69.085-.98.256q-.42.25-.66.676c-.15.28-.24.592-.24.937v1.426q0 .648.24 1.12.24.47.69.727.435.255 1.05.256c.27 0 .51-.038.74-.114q.33-.114.57-.34.24-.228.36-.558l2.24.148a2.95 2.95 0 0 1-.7 1.41c-.34.397-.8.707-1.35.93-.55.22-1.18.33-1.9.33m7.83-5.215V48h-2.42v-8.727h2.3v1.54h.11c.19-.508.51-.91.97-1.205q.675-.45 1.65-.449.915 0 1.59.398t1.05 1.136c.25.489.37 1.072.37 1.75V48h-2.42v-5.125c.01-.534-.13-.95-.41-1.25q-.405-.455-1.14-.455c-.32 0-.61.07-.86.21s-.44.345-.58.614q-.21.399-.21.96m10.57 5.187q-.99 0-1.8-.511c-.53-.345-.96-.85-1.27-1.517-.31-.67-.47-1.493-.47-2.466q0-1.5.48-2.495c.33-.666.75-1.164 1.29-1.494.54-.333 1.12-.5 1.76-.5q.735 0 1.23.25c.33.163.59.367.79.614.21.242.36.48.47.716h.07v-4.375h2.42V48h-2.39v-1.398h-.1c-.12.243-.28.483-.49.722-.2.235-.47.43-.8.585-.32.155-.72.233-1.19.233m.77-1.926q.585 0 .99-.318a2 2 0 0 0 .62-.904c.15-.386.22-.839.22-1.358q0-.779-.21-1.352-.225-.574-.63-.886t-.99-.313c-.4 0-.74.108-1.01.324s-.48.515-.62.898q-.21.573-.21 1.33 0 .76.21 1.346c.15.386.35.69.62.909.27.216.61.324 1.01.324m6.01 5.057v-12h2.39v1.466h.1c.11-.235.26-.474.46-.716.21-.247.47-.451.8-.614q.495-.25 1.23-.25a3.3 3.3 0 0 1 1.76.5q.81.495 1.29 1.494.48.995.48 2.495c0 .973-.16 1.795-.47 2.466-.31.666-.73 1.172-1.27 1.517q-.81.51-1.8.511-.705 0-1.2-.233a2.6 2.6 0 0 1-.8-.585q-.315-.359-.48-.722h-.07v4.67zm2.37-7.637c0 .52.07.972.22 1.358a2 2 0 0 0 .62.904q.405.318.99.318c.4 0 .73-.108 1-.324.28-.22.48-.523.62-.909.15-.39.22-.84.22-1.347q0-.755-.21-1.33a2 2 0 0 0-.62-.897c-.27-.216-.61-.324-1.01-.324-.39 0-.72.104-1 .313a2 2 0 0 0-.61.886c-.15.383-.22.833-.22 1.352m11.52 4.534c-.88 0-1.64-.187-2.29-.562a3.85 3.85 0 0 1-1.48-1.58c-.35-.678-.52-1.464-.52-2.358 0-.901.17-1.689.52-2.363.35-.678.84-1.205 1.48-1.58.65-.378 1.41-.568 2.29-.568.89 0 1.65.19 2.29.568a3.83 3.83 0 0 1 1.49 1.58c.34.674.52 1.462.52 2.363 0 .894-.18 1.68-.52 2.358a3.87 3.87 0 0 1-1.49 1.58c-.64.375-1.4.563-2.29.563m.01-1.875c.41 0 .74-.113 1.01-.34.27-.231.47-.546.61-.944q.21-.596.21-1.358 0-.76-.21-1.358c-.14-.397-.34-.712-.61-.943s-.6-.346-1.01-.346q-.6 0-1.02.346c-.27.231-.48.546-.62.944-.13.397-.2.85-.2 1.357 0 .508.07.96.2 1.358.14.398.35.712.62.944q.42.34 1.02.34m5.69 1.705v-8.727h2.42V48zm1.21-9.852c-.36 0-.67-.12-.92-.358a1.15 1.15 0 0 1-.39-.87q0-.5.39-.858c.25-.242.56-.363.92-.363s.67.121.92.364q.39.357.39.857 0 .506-.39.87a1.3 1.3 0 0 1-.92.358m5.39 4.807V48h-2.42v-8.727h2.31v1.54h.1c.19-.508.52-.91.97-1.205.45-.3 1.01-.449 1.65-.449q.915 0 1.59.398t1.05 1.136c.25.489.37 1.072.37 1.75V48h-2.42v-5.125c.01-.534-.13-.95-.4-1.25-.28-.303-.66-.455-1.15-.455-.32 0-.61.07-.86.21s-.44.345-.58.614q-.21.399-.21.96m12-3.682v1.818h-5.26v-1.818zm-4.06-2.091h2.42v8.136c0 .224.03.398.1.523.07.121.16.206.28.256.13.049.27.073.43.073.12 0 .23-.009.35-.028.11-.023.2-.04.26-.051l.38 1.801q-.18.057-.51.13-.33.08-.81.097-.87.034-1.53-.233a2.2 2.2 0 0 1-1.02-.83c-.24-.374-.36-.848-.35-1.42zm12.61 4.58-2.21.136c-.04-.19-.12-.36-.25-.512a1.3 1.3 0 0 0-.49-.369c-.2-.095-.44-.142-.73-.142-.37 0-.69.08-.94.239q-.39.232-.39.625c0 .208.08.384.25.528s.45.26.86.347l1.58.318q1.275.261 1.89.84.63.58.63 1.523 0 .858-.51 1.506c-.33.432-.79.77-1.37 1.011q-.87.359-2.01.358-1.725 0-2.76-.721a2.83 2.83 0 0 1-1.2-1.977l2.38-.125c.08.352.25.62.53.806.27.182.63.273 1.06.273q.63 0 1.02-.244c.26-.167.4-.38.4-.642 0-.22-.1-.4-.28-.54q-.27-.216-.84-.33l-1.51-.3c-.85-.171-1.49-.467-1.9-.887-.42-.42-.62-.956-.62-1.608q0-.84.45-1.449.465-.608 1.29-.937c.56-.22 1.21-.33 1.96-.33 1.1 0 1.96.233 2.6.699q.945.699 1.11 1.903"/><path fill="#E2F5FA" stroke="#0055DC" stroke-width="2" d="M1012 360h151v154h-151z"/><path fill="#C5EBF5" stroke="#0055DC" stroke-miterlimit="10" stroke-width="1.5" d="M1029.38 350.528h-3.16v-20.715h1.75v1.978h1.41z"/><path fill="#fff" d="M1028.6 333.768h-2.32v16.669h2.32z"/><path fill="#0055DC" d="M1028.09 334.528h.5v-.76h-.5zm-1.16 0h.51v-.76h-.51zm1.16 2.423h.5v-.76h-.5zm-1.16 0h.51v-.76h-.51zm1.16 2.422h.5v-.76h-.5zm-1.16 0h.51v-.76h-.51zm1.16 2.422h.5v-.76h-.5zm-1.16 0h.51v-.76h-.51zm1.16 2.423h.5v-.76h-.5zm-1.16 0h.51v-.76h-.51zm1.16 2.422h.5v-.76h-.5zm-1.16 0h.51v-.76h-.51zm1.16 2.422h.5v-.76h-.5zm-1.16 0h.51v-.76h-.51zm3-16.004h-.55v17.47h.55z"/><path fill="#C5EBF5" stroke="#0055DC" stroke-miterlimit="10" stroke-width="1.5" d="M1014.25 350.528h3.16v-20.715h-1.75v1.978h-1.41z"/><path fill="#fff" d="M1017.35 333.768h-2.31v16.669h2.31z"/><path fill="#0055DC" d="M1015.54 333.768h-.5v.76h.5zm1.15 0h-.5v.76h.5zm-1.15 2.422h-.5v.761h.5zm1.15 0h-.5v.761h.5zm-1.15 2.423h-.5v.76h.5zm1.15 0h-.5v.76h.5zm-1.15 2.422h-.5v.76h.5zm1.15 0h-.5v.76h.5zm-1.15 2.423h-.5v.76h.5zm1.15 0h-.5v.76h.5zm-1.15 2.422h-.5v.76h.5zm1.15 0h-.5v.76h.5zm-1.15 2.422h-.5v.761h.5zm1.15 0h-.5v.761h.5zm-2.44-15.244h-.55v17.47h.55z"/><path fill="#fff" stroke="#0055DC" stroke-miterlimit="10" stroke-width="1.5" d="M1026.22 326h-8.81v24.527h8.81z"/><path fill="#003682" d="M1023.36 347.153h-3.1v3.374h3.1z"/><path fill="#C5EBF5" d="M1020.43 329.813h-2.14v3.245h2.14zm2.45 0h-2.14v3.245h2.14zm2.46 0h-2.14v3.245h2.14zm-4.91 4.335h-2.14v3.245h2.14zm2.45 0h-2.14v3.245h2.14zm2.46 0h-2.14v3.245h2.14zm-4.91 4.335h-2.14v3.246h2.14zm2.45 0h-2.14v3.246h2.14zm2.46 0h-2.14v3.246h2.14zm-4.91 4.335h-2.14v3.245h2.14zm2.45 0h-2.14v3.245h2.14zm2.46 0h-2.14v3.245h2.14z"/><path stroke="#0055DC" stroke-miterlimit="10" stroke-width="1.5" d="M1011 350.527h21.57"/><path fill="#222" d="M1038.01 344v-11.636h4.59c.88 0 1.64.168 2.26.505.62.334 1.09.798 1.42 1.392.33.591.49 1.273.49 2.046s-.16 1.454-.5 2.045a3.4 3.4 0 0 1-1.45 1.381c-.62.329-1.39.494-2.28.494h-2.93v-1.971h2.53q.72 0 1.17-.245c.31-.166.54-.395.7-.687.15-.296.23-.635.23-1.017 0-.387-.08-.724-.23-1.012a1.6 1.6 0 0 0-.7-.676c-.31-.163-.7-.244-1.18-.244h-1.66V344zm10.14 0v-8.727h2.35v1.522h.09c.16-.541.42-.95.8-1.227q.555-.42 1.29-.42c.12 0 .26.007.4.022q.21.023.36.063v2.148a3 3 0 0 0-.47-.091c-.2-.027-.38-.04-.55-.04-.35 0-.67.078-.95.233q-.42.227-.66.636a1.83 1.83 0 0 0-.24.943V344zm6.37 0v-8.727h2.42V344zm1.22-9.852q-.54 0-.93-.358a1.175 1.175 0 0 1 0-1.728q.39-.363.93-.363c.36 0 .66.121.92.363a1.175 1.175 0 0 1 0 1.728c-.26.238-.56.358-.92.358m11.1 1.125-3.05 8.727h-2.73l-3.05-8.727h2.56l1.81 6.244h.09l1.81-6.244zm3.32 8.892c-.56 0-1.06-.097-1.49-.29a2.43 2.43 0 0 1-1.04-.869c-.25-.387-.37-.868-.37-1.444q0-.727.27-1.221c.17-.33.42-.595.72-.796q.465-.3 1.05-.454c.39-.102.81-.174 1.24-.216.51-.053.91-.102 1.22-.148.32-.049.54-.121.68-.216a.47.47 0 0 0 .21-.42v-.034c0-.36-.11-.638-.34-.835-.22-.197-.54-.296-.95-.296-.44 0-.79.097-1.04.29a1.37 1.37 0 0 0-.52.716l-2.23-.182c.11-.53.33-.989.67-1.375q.495-.585 1.29-.898c.53-.212 1.14-.318 1.84-.318.48 0 .95.057 1.39.171.45.113.84.289 1.19.528s.62.545.82.92q.3.558.3 1.336V344h-2.29v-1.21h-.07c-.14.272-.33.513-.56.721-.24.205-.52.366-.85.483q-.495.171-1.14.171m.69-1.671c.36 0 .67-.07.94-.21.28-.144.49-.337.65-.579.15-.243.23-.518.23-.824v-.926c-.08.049-.18.094-.31.136-.13.038-.28.074-.44.108-.16.03-.33.059-.49.085l-.44.063a3 3 0 0 0-.75.198c-.21.091-.37.214-.49.37a.9.9 0 0 0-.18.568q0 .494.36.756c.24.17.55.255.92.255m10.57-7.221v1.818h-5.26v-1.818zm-4.07-2.091h2.42v8.136c0 .224.04.398.11.523.06.121.16.206.28.256.12.049.27.073.43.073.12 0 .23-.009.34-.028l.26-.051.38 1.801q-.18.057-.51.131c-.22.053-.48.085-.8.096q-.87.034-1.53-.233a2.1 2.1 0 0 1-1.02-.829q-.36-.563-.36-1.421zm9.35 10.988c-.9 0-1.67-.181-2.32-.545a3.77 3.77 0 0 1-1.49-1.557c-.35-.674-.52-1.471-.52-2.392 0-.898.17-1.685.52-2.364q.525-1.017 1.47-1.585c.64-.379 1.39-.568 2.24-.568.58 0 1.11.093 1.61.279.5.181.94.456 1.31.823q.555.552.87 1.387c.21.553.32 1.2.32 1.943v.665h-7.37v-1.5h5.09c0-.349-.08-.658-.23-.926q-.225-.404-.63-.631a1.8 1.8 0 0 0-.93-.233c-.36 0-.69.085-.97.256a1.8 1.8 0 0 0-.66.676c-.16.28-.24.593-.25.937v1.426q0 .648.24 1.12.24.471.69.727.435.255 1.05.256c.27 0 .51-.038.74-.114q.33-.114.57-.341c.16-.151.28-.337.37-.557l2.23.148a3 3 0 0 1-.69 1.409c-.35.398-.8.708-1.36.932-.55.22-1.18.329-1.9.329m12.91 0c-.89 0-1.67-.181-2.31-.545a3.65 3.65 0 0 1-1.49-1.557c-.35-.674-.53-1.471-.53-2.392 0-.898.18-1.685.53-2.364.34-.678.84-1.206 1.47-1.585s1.38-.568 2.24-.568c.57 0 1.11.093 1.6.279.5.181.94.456 1.31.823.38.368.67.83.88 1.387.2.553.31 1.2.31 1.943v.665h-7.37v-1.5h5.09c0-.349-.08-.658-.23-.926q-.225-.404-.63-.631a1.77 1.77 0 0 0-.92-.233c-.37 0-.7.085-.98.256a1.86 1.86 0 0 0-.9 1.613v1.426c0 .432.08.805.23 1.12q.255.471.69.727.45.255 1.05.256c.27 0 .52-.038.74-.114.23-.076.42-.189.58-.341.15-.151.28-.337.36-.557l2.24.148a3.14 3.14 0 0 1-.7 1.409q-.525.597-1.35.932c-.55.22-1.19.329-1.91.329m7.83-5.215V344h-2.42v-8.727h2.31v1.539h.1c.19-.507.52-.909.97-1.204.46-.299 1.01-.449 1.66-.449.6 0 1.13.133 1.58.398q.675.398 1.05 1.136c.25.489.38 1.072.38 1.75V344h-2.42v-5.125c0-.534-.14-.951-.41-1.25q-.42-.455-1.14-.455-.495 0-.87.211c-.24.14-.44.344-.58.613q-.195.398-.21.961m10.58 5.187c-.67 0-1.27-.17-1.81-.511-.53-.345-.95-.851-1.27-1.517-.31-.671-.46-1.493-.46-2.466q0-1.5.48-2.495c.32-.666.75-1.164 1.28-1.494q.81-.5 1.77-.5c.49 0 .9.083 1.22.25.33.163.6.368.8.614.2.242.36.481.46.716h.08v-4.375h2.41V344h-2.38v-1.398h-.11q-.165.364-.48.722c-.2.235-.47.43-.8.585s-.72.233-1.19.233m.76-1.926q.585 0 .99-.318.405-.324.63-.904c.14-.386.22-.839.22-1.358s-.07-.969-.22-1.352c-.14-.382-.35-.678-.62-.886a1.62 1.62 0 0 0-1-.313c-.4 0-.73.108-1 .324-.28.216-.48.515-.62.898q-.21.574-.21 1.329 0 .762.21 1.347c.14.386.35.689.62.909.27.216.6.324 1 .324m6.02 5.057v-12h2.38v1.466h.11c.11-.235.26-.474.46-.716.2-.246.47-.451.8-.614.33-.167.73-.25 1.22-.25.64 0 1.23.167 1.76.5q.81.495 1.29 1.494c.33.663.49 1.495.49 2.495 0 .973-.16 1.795-.47 2.466-.32.666-.74 1.172-1.28 1.517-.53.341-1.13.511-1.79.511q-.705 0-1.2-.233a2.4 2.4 0 0 1-.8-.585 3 3 0 0 1-.48-.722h-.07v4.671zm2.36-7.637c0 .519.08.972.22 1.358q.21.58.63.904.405.318.99.318c.39 0 .73-.108 1-.324.27-.22.48-.523.62-.909.14-.39.22-.839.22-1.347q0-.755-.21-1.329c-.15-.383-.35-.682-.62-.898-.28-.216-.61-.324-1.01-.324-.39 0-.73.104-1 .313-.27.208-.48.504-.62.886-.14.383-.22.833-.22 1.352m11.53 4.534c-.88 0-1.65-.187-2.29-.562a3.87 3.87 0 0 1-1.49-1.58c-.34-.678-.52-1.464-.52-2.358 0-.901.18-1.689.52-2.363.35-.678.85-1.205 1.49-1.58.64-.379 1.41-.568 2.29-.568q1.32 0 2.28.568a3.77 3.77 0 0 1 1.49 1.58c.35.674.52 1.462.52 2.363 0 .894-.17 1.68-.52 2.358a3.8 3.8 0 0 1-1.49 1.58q-.96.562-2.28.562m.01-1.875c.4 0 .74-.113 1-.34.27-.232.48-.546.61-.944q.21-.596.21-1.358 0-.76-.21-1.358a2.06 2.06 0 0 0-.61-.943c-.26-.231-.6-.346-1-.346q-.615 0-1.02.346c-.28.231-.48.546-.62.943a4.1 4.1 0 0 0-.21 1.358q0 .762.21 1.358c.14.398.34.712.62.944q.405.34 1.02.34m5.68 1.705v-8.727h2.42V344zm1.22-9.852q-.54 0-.93-.358a1.175 1.175 0 0 1 0-1.728q.39-.363.93-.363c.36 0 .66.121.92.363a1.175 1.175 0 0 1 0 1.728c-.26.238-.56.358-.92.358m5.38 4.807V344h-2.42v-8.727h2.31v1.539h.1c.2-.507.52-.909.98-1.204q.675-.449 1.65-.449c.6 0 1.13.133 1.58.398q.675.398 1.05 1.136c.25.489.38 1.072.38 1.75V344h-2.42v-5.125c0-.534-.13-.951-.41-1.25q-.42-.455-1.14-.455-.495 0-.87.211-.36.21-.57.613c-.14.265-.21.586-.22.961m12-3.682v1.818h-5.25v-1.818zm-4.06-2.091h2.42v8.136c0 .224.04.398.1.523.07.121.17.206.29.256.12.049.27.073.43.073.11 0 .23-.009.34-.028.11-.023.2-.04.26-.051l.38 1.801q-.18.057-.51.131c-.22.053-.49.085-.8.096q-.87.034-1.53-.233a2.1 2.1 0 0 1-1.02-.829q-.36-.563-.36-1.421zm12.62 4.579-2.22.137a1.2 1.2 0 0 0-.24-.512 1.3 1.3 0 0 0-.5-.369q-.3-.142-.72-.142c-.37 0-.69.08-.95.239q-.39.232-.39.625c0 .208.09.384.25.528.17.144.46.26.86.347l1.58.318c.85.174 1.48.454 1.9.841q.63.58.63 1.522 0 .858-.51 1.506-.495.648-1.38 1.011c-.58.239-1.24.358-2 .358q-1.74 0-2.76-.721a2.83 2.83 0 0 1-1.2-1.977l2.38-.125c.07.352.25.621.52.806.28.182.63.273 1.06.273s.77-.081 1.03-.244q.39-.25.39-.642 0-.33-.27-.54-.285-.216-.84-.33l-1.52-.301c-.85-.17-1.48-.466-1.9-.886-.41-.421-.62-.956-.62-1.608 0-.561.15-1.044.46-1.449q.45-.608 1.29-.937.825-.33 1.95-.33c1.1 0 1.97.233 2.6.699.64.466 1.01 1.1 1.12 1.903"/><path fill="#0055DC" d="M1043.51 372.198H1040v18.05h3.51zm91.49 0h-3.51v18.05h3.51z"/><path fill="#fff" stroke="#0055DC" stroke-miterlimit="10" stroke-width="1.5" d="M1048.31 393.464v3.426l78.38-.004v-3.426z"/><path fill="#C5EBF5" stroke="#0055DC" stroke-miterlimit="10" stroke-width="1.5" d="M1131.49 369h-87.98v24.462h87.98z"/><path fill="#fff" d="M1127.69 390.012v-17.564h-80.38v17.564z"/><path fill="#0055DC" d="M1053.83 377.408h-1.95v1.902h1.95zm0 5.725h-1.95v1.903h1.95zm2.67-3.016h-1.95v1.902h1.95zm2.37-2.709h-1.95v1.902h1.95zm0 5.725h-1.95v1.903h1.95zm2.52-3.016h-1.95v1.902h1.95zm2.98-2.709h-1.95v1.902h1.95zm0 5.725h-1.95v1.903h1.95zm2.52-3.016h-1.95v1.902h1.95zm3.06-2.709h-1.94v1.902h1.94zm0 5.725h-1.94v1.903h1.94zm2.37-3.016h-1.94v1.902h1.94zm2.67-2.709h-1.95v1.902h1.95zm0 5.725h-1.95v1.903h1.95zm2.22-3.016h-1.94v1.902h1.94zm2.82-2.709h-1.95v1.902h1.95zm0 5.725h-1.95v1.903h1.95zm2.07-3.016h-1.94v1.902h1.94zm39.21 3.475c1.33 0 2.41-1.057 2.41-2.361s-1.08-2.362-2.41-2.362c-1.34 0-2.42 1.058-2.42 2.362s1.08 2.361 2.42 2.361"/><path stroke="#0055DC" stroke-miterlimit="10" stroke-width="1.5" d="M1114.35 381.231h-25.6"/><path fill="#0055DC" d="M1043.51 408.198H1040v18.05h3.51zm91.49 0h-3.51v18.05h3.51z"/><path fill="#fff" stroke="#0055DC" stroke-miterlimit="10" stroke-width="1.5" d="M1048.31 429.464v3.426l78.38-.004v-3.426z"/><path fill="#C5EBF5" stroke="#0055DC" stroke-miterlimit="10" stroke-width="1.5" d="M1131.49 405h-87.98v24.462h87.98z"/><path fill="#fff" d="M1127.69 426.012v-17.564h-80.38v17.564z"/><path fill="#0055DC" d="M1053.83 413.408h-1.95v1.902h1.95zm0 5.725h-1.95v1.903h1.95zm2.67-3.016h-1.95v1.902h1.95zm2.37-2.709h-1.95v1.902h1.95zm0 5.725h-1.95v1.903h1.95zm2.52-3.016h-1.95v1.902h1.95zm2.98-2.709h-1.95v1.902h1.95zm0 5.725h-1.95v1.903h1.95zm2.52-3.016h-1.95v1.902h1.95zm3.06-2.709h-1.94v1.902h1.94zm0 5.725h-1.94v1.903h1.94zm2.37-3.016h-1.94v1.902h1.94zm2.67-2.709h-1.95v1.902h1.95zm0 5.725h-1.95v1.903h1.95zm2.22-3.016h-1.94v1.902h1.94zm2.82-2.709h-1.95v1.902h1.95zm0 5.725h-1.95v1.903h1.95zm2.07-3.016h-1.94v1.902h1.94zm39.21 3.475c1.33 0 2.41-1.057 2.41-2.361s-1.08-2.362-2.41-2.362c-1.34 0-2.42 1.058-2.42 2.362s1.08 2.361 2.42 2.361"/><path stroke="#0055DC" stroke-miterlimit="10" stroke-width="1.5" d="M1114.35 417.231h-25.6"/><path fill="#0055DC" d="M1043.51 444.198H1040v18.05h3.51zm91.49 0h-3.51v18.05h3.51z"/><path fill="#fff" stroke="#0055DC" stroke-miterlimit="10" stroke-width="1.5" d="M1048.31 465.464v3.426l78.38-.004v-3.426z"/><path fill="#C5EBF5" stroke="#0055DC" stroke-miterlimit="10" stroke-width="1.5" d="M1131.49 441h-87.98v24.462h87.98z"/><path fill="#fff" d="M1127.69 462.012v-17.564h-80.38v17.564z"/><path fill="#0055DC" d="M1053.83 449.408h-1.95v1.902h1.95zm0 5.725h-1.95v1.903h1.95zm2.67-3.016h-1.95v1.902h1.95zm2.37-2.709h-1.95v1.902h1.95zm0 5.725h-1.95v1.903h1.95zm2.52-3.016h-1.95v1.902h1.95zm2.98-2.709h-1.95v1.902h1.95zm0 5.725h-1.95v1.903h1.95zm2.52-3.016h-1.95v1.902h1.95zm3.06-2.709h-1.94v1.902h1.94zm0 5.725h-1.94v1.903h1.94zm2.37-3.016h-1.94v1.902h1.94zm2.67-2.709h-1.95v1.902h1.95zm0 5.725h-1.95v1.903h1.95zm2.22-3.016h-1.94v1.902h1.94zm2.82-2.709h-1.95v1.902h1.95zm0 5.725h-1.95v1.903h1.95zm2.07-3.016h-1.94v1.902h1.94zm39.21 3.475c1.33 0 2.41-1.057 2.41-2.361s-1.08-2.362-2.41-2.362c-1.34 0-2.42 1.058-2.42 2.362s1.08 2.361 2.42 2.361"/><path stroke="#0055DC" stroke-miterlimit="10" stroke-width="1.5" d="M1114.35 453.231h-25.6"/><path fill="#0055DC" d="M1043.51 480.198H1040v18.05h3.51zm91.49 0h-3.51v18.05h3.51z"/><path fill="#fff" stroke="#0055DC" stroke-miterlimit="10" stroke-width="1.5" d="M1048.31 501.464v3.426l78.38-.004v-3.426z"/><path fill="#C5EBF5" stroke="#0055DC" stroke-miterlimit="10" stroke-width="1.5" d="M1131.49 477h-87.98v24.462h87.98z"/><path fill="#fff" d="M1127.69 498.012v-17.564h-80.38v17.564z"/><path fill="#0055DC" d="M1053.83 485.408h-1.95v1.902h1.95zm0 5.725h-1.95v1.903h1.95zm2.67-3.016h-1.95v1.902h1.95zm2.37-2.709h-1.95v1.902h1.95zm0 5.725h-1.95v1.903h1.95zm2.52-3.016h-1.95v1.902h1.95zm2.98-2.709h-1.95v1.902h1.95zm0 5.725h-1.95v1.903h1.95zm2.52-3.016h-1.95v1.902h1.95zm3.06-2.709h-1.94v1.902h1.94zm0 5.725h-1.94v1.903h1.94zm2.37-3.016h-1.94v1.902h1.94zm2.67-2.709h-1.95v1.902h1.95zm0 5.725h-1.95v1.903h1.95zm2.22-3.016h-1.94v1.902h1.94zm2.82-2.709h-1.95v1.902h1.95zm0 5.725h-1.95v1.903h1.95zm2.07-3.016h-1.94v1.902h1.94zm39.21 3.475c1.33 0 2.41-1.057 2.41-2.361s-1.08-2.362-2.41-2.362c-1.34 0-2.42 1.058-2.42 2.362s1.08 2.361 2.42 2.361"/><path stroke="#0055DC" stroke-miterlimit="10" stroke-width="1.5" d="M1114.35 489.231h-25.6"/><path fill="#E2F5FA" stroke="#F6821F" stroke-width="2" d="M870 443h142v-28H870z"/><path fill="#E2F5FA" d="M1013 416H869v26h144z"/><path fill="#fff" stroke="#F6821F" stroke-width="2" d="M235 122h261v129H235z"/><path fill="#222" d="M339.879 143v-11.636h4.659q1.284 0 2.142.38t1.289 1.057q.432.67.432 1.546 0 .681-.272 1.198a2.35 2.35 0 0 1-.75.841q-.472.324-1.08.461v.113q.665.028 1.244.375.586.346.949.972.364.62.364 1.477 0 .927-.46 1.654-.454.721-1.347 1.142-.892.42-2.199.42zm2.46-2.011h2.005q1.029 0 1.5-.392.472-.399.472-1.057 0-.483-.233-.852a1.6 1.6 0 0 0-.665-.58q-.426-.21-1.017-.21h-2.062zm0-4.756h1.824q.506 0 .897-.176.399-.182.625-.512.233-.33.233-.789 0-.631-.449-1.017-.442-.387-1.261-.387h-1.869zm12.015 6.937q-1.323 0-2.289-.562a3.84 3.84 0 0 1-1.483-1.58q-.523-1.017-.523-2.358 0-1.352.523-2.363a3.8 3.8 0 0 1 1.483-1.58q.966-.568 2.289-.568t2.284.568a3.8 3.8 0 0 1 1.489 1.58q.523 1.011.523 2.363 0 1.341-.523 2.358a3.83 3.83 0 0 1-1.489 1.58q-.96.562-2.284.562m.012-1.875q.602 0 1.005-.34.404-.347.608-.944.211-.596.211-1.358 0-.76-.211-1.358-.204-.596-.608-.943-.403-.346-1.005-.346-.608 0-1.023.346-.41.347-.619.943a4.2 4.2 0 0 0-.205 1.358q0 .762.205 1.358.21.597.619.944.415.34 1.023.34m13.119-4.534-2.216.137a1.15 1.15 0 0 0-.244-.512 1.3 1.3 0 0 0-.494-.369 1.7 1.7 0 0 0-.722-.142q-.562 0-.949.239-.386.232-.386.625 0 .312.25.528.249.216.858.347l1.579.318q1.273.26 1.898.841.625.58.625 1.522a2.38 2.38 0 0 1-.506 1.506q-.5.648-1.375 1.011-.869.358-2.005.358-1.734 0-2.762-.721a2.8 2.8 0 0 1-1.199-1.977l2.381-.125q.108.528.523.806.414.273 1.062.273.637 0 1.023-.244.392-.25.398-.642a.67.67 0 0 0-.279-.54q-.273-.216-.841-.33l-1.511-.301q-1.279-.256-1.903-.886-.62-.63-.62-1.608 0-.841.455-1.449.46-.608 1.29-.937.834-.33 1.954-.33 1.654 0 2.602.699.955.699 1.114 1.903m6.365-2.488v1.818h-5.256v-1.818zm-4.062-2.091h2.42v8.136q0 .336.102.523a.57.57 0 0 0 .284.256q.187.073.432.073.171 0 .341-.028l.262-.051.38 1.801a7 7 0 0 1-.511.131q-.33.08-.801.096-.876.034-1.534-.233a2.14 2.14 0 0 1-1.017-.829q-.364-.563-.358-1.421zm9.488 10.988q-1.324 0-2.289-.562a3.84 3.84 0 0 1-1.483-1.58q-.523-1.017-.523-2.358 0-1.352.523-2.363a3.8 3.8 0 0 1 1.483-1.58q.965-.568 2.289-.568t2.284.568a3.8 3.8 0 0 1 1.489 1.58q.523 1.011.523 2.363 0 1.341-.523 2.358a3.83 3.83 0 0 1-1.489 1.58q-.96.562-2.284.562m.012-1.875q.601 0 1.005-.34.404-.347.608-.944.21-.596.211-1.358 0-.76-.211-1.358-.204-.596-.608-.943-.404-.346-1.005-.346-.609 0-1.023.346-.41.347-.619.943a4.2 4.2 0 0 0-.205 1.358q0 .762.205 1.358.21.597.619.944.414.34 1.023.34m8.278-3.34V143h-2.42v-8.727h2.306v1.539h.103q.29-.761.971-1.204.682-.449 1.654-.449.909 0 1.585.398t1.051 1.136q.375.733.375 1.75V143h-2.42v-5.125q.005-.801-.409-1.25-.416-.455-1.143-.455-.488 0-.863.211-.37.21-.58.613-.204.398-.21.961"/><path fill="#fff" stroke="#F6821F" stroke-width="2" d="M243 217h117.875v24.927H243z"/><path fill="#222" d="m291.358 232.876-2.497-8.727h2.015l1.445 6.064h.072l1.594-6.064h1.726l1.59 6.076h.076l1.445-6.076h2.015l-2.497 8.727h-1.798l-1.662-5.706h-.068l-1.658 5.706zm10.962 0h-1.977l3.013-8.727h2.378l3.008 8.727h-1.977l-2.186-6.733h-.068zm-.123-3.43h4.67v1.44h-4.67zm7.464 3.43v-8.727h5.778v1.521h-3.933v2.08h3.55v1.521h-3.55v3.605z"/><path fill="#fff" stroke="#F6821F" stroke-width="2" d="M370 217h117.875v24.927H370z"/><path fill="#222" d="M389.204 232.876v-8.727h1.845v7.206h3.741v1.521zm9.6.128q-.993 0-1.718-.422a2.9 2.9 0 0 1-1.112-1.185q-.392-.763-.392-1.768 0-1.014.392-1.773a2.87 2.87 0 0 1 1.112-1.185q.725-.426 1.718-.426t1.713.426a2.85 2.85 0 0 1 1.116 1.185q.392.759.392 1.773 0 1.005-.392 1.768a2.87 2.87 0 0 1-1.116 1.185q-.72.422-1.713.422m.008-1.406q.452 0 .754-.256.303-.26.456-.708.159-.447.158-1.018 0-.571-.158-1.018a1.6 1.6 0 0 0-.456-.708 1.12 1.12 0 0 0-.754-.26q-.456 0-.767.26a1.6 1.6 0 0 0-.464.708 3.1 3.1 0 0 0-.154 1.018q0 .571.154 1.018.158.448.464.708.311.256.767.256M404.94 233q-.626 0-1.116-.218a1.8 1.8 0 0 1-.776-.652q-.28-.435-.281-1.082 0-.546.2-.916.2-.371.546-.597.345-.226.784-.341.443-.115.929-.162.57-.06.92-.111.35-.055.507-.162a.36.36 0 0 0 .158-.315v-.025q0-.405-.256-.627-.25-.222-.716-.221-.489 0-.78.217a1 1 0 0 0-.383.537l-1.679-.137q.128-.596.503-1.031.375-.439.967-.673.597-.239 1.381-.239.545 0 1.044.128.503.127.89.396.393.269.618.691.226.417.226 1.001v4.415h-1.721v-.908h-.051a1.9 1.9 0 0 1-.422.541 1.9 1.9 0 0 1-.635.363 2.6 2.6 0 0 1-.857.128m.52-1.253q.4 0 .707-.158.307-.162.482-.435.174-.272.175-.618v-.694a1 1 0 0 1-.235.102 4 4 0 0 1-.328.081q-.183.034-.366.064l-.333.047a2.2 2.2 0 0 0-.558.149.9.9 0 0 0-.371.277.68.68 0 0 0-.132.426q0 .37.269.567.273.192.69.192m6.855 1.236q-.747 0-1.351-.384-.601-.388-.955-1.138-.35-.754-.349-1.849 0-1.125.362-1.871.362-.75.963-1.121.605-.375 1.325-.375.55 0 .916.188.372.183.597.46.23.273.35.537h.055v-3.281h1.811v8.727h-1.79v-1.048h-.076a2.4 2.4 0 0 1-.363.541 1.8 1.8 0 0 1-.601.439q-.366.175-.894.175m.575-1.445q.439 0 .741-.239.307-.243.469-.677.166-.435.166-1.019t-.162-1.014a1.46 1.46 0 0 0-.468-.665 1.2 1.2 0 0 0-.746-.234q-.447 0-.754.243-.308.243-.465.673a2.9 2.9 0 0 0-.158.997q0 .572.158 1.01.162.435.465.682.306.243.754.243m7.189 1.338v-8.727h3.494q.963 0 1.607.285.643.286.967.793.324.502.324 1.159 0 .512-.205.899a1.76 1.76 0 0 1-.562.631 2.3 2.3 0 0 1-.81.345v.085q.5.021.934.281.438.261.711.729.273.465.273 1.108 0 .694-.345 1.24-.342.541-1.01.857-.67.315-1.649.315zm1.845-1.509h1.504q.772 0 1.125-.294a.98.98 0 0 0 .354-.792q0-.363-.175-.639a1.2 1.2 0 0 0-.498-.435 1.7 1.7 0 0 0-.763-.158h-1.547zm0-3.566h1.368q.38 0 .673-.132.298-.136.469-.384a1 1 0 0 0 .175-.592.96.96 0 0 0-.337-.763q-.332-.29-.946-.29h-1.402zm7.789 5.199q-.627 0-1.117-.218a1.8 1.8 0 0 1-.775-.652q-.281-.435-.281-1.082 0-.546.2-.916.2-.371.545-.597t.784-.341q.444-.115.929-.162.571-.06.921-.111.35-.055.507-.162a.36.36 0 0 0 .158-.315v-.025q0-.405-.256-.627-.251-.222-.716-.221-.49 0-.78.217a1 1 0 0 0-.383.537l-1.679-.137q.128-.596.503-1.031.375-.439.967-.673.597-.239 1.381-.239.545 0 1.044.128.503.127.89.396.393.269.618.691.226.417.226 1.001v4.415h-1.722v-.908h-.051a1.82 1.82 0 0 1-1.057.904 2.6 2.6 0 0 1-.856.128m.52-1.253q.4 0 .707-.158.307-.162.482-.435a1.1 1.1 0 0 0 .174-.618v-.694a1 1 0 0 1-.234.102 4 4 0 0 1-.328.081q-.183.034-.367.064l-.332.047a2.2 2.2 0 0 0-.558.149.9.9 0 0 0-.371.277.68.68 0 0 0-.132.426q0 .37.268.567.273.192.691.192m6.258-7.598v8.727h-1.816v-8.727zm3.188 8.851q-.625 0-1.116-.218a1.8 1.8 0 0 1-.776-.652q-.28-.435-.281-1.082 0-.546.2-.916.201-.371.546-.597t.784-.341q.443-.115.929-.162.571-.06.92-.111.35-.055.507-.162a.35.35 0 0 0 .158-.315v-.025q0-.405-.256-.627-.251-.222-.715-.221-.49 0-.78.217a1 1 0 0 0-.384.537l-1.679-.137q.128-.596.503-1.031.375-.439.967-.673.597-.239 1.381-.239.546 0 1.044.128.503.127.891.396.392.269.618.691.225.417.225 1.001v4.415h-1.721v-.908h-.051a1.8 1.8 0 0 1-.422.541 1.9 1.9 0 0 1-.635.363 2.6 2.6 0 0 1-.857.128m.52-1.253q.4 0 .708-.158.307-.162.481-.435.175-.272.175-.618v-.694a1 1 0 0 1-.234.102 4 4 0 0 1-.329.081q-.183.034-.366.064l-.332.047q-.32.047-.559.149a.9.9 0 0 0-.37.277.68.68 0 0 0-.133.426q0 .37.269.567.273.192.69.192m6.258-2.655v3.784h-1.815v-6.545h1.73v1.154h.077q.217-.57.728-.903.512-.336 1.24-.337.682 0 1.189.299.507.298.789.852.28.55.281 1.312v4.168h-1.815v-3.844q.003-.6-.307-.937-.312-.342-.857-.341a1.3 1.3 0 0 0-.647.157q-.277.158-.435.461a1.6 1.6 0 0 0-.158.72m8.475 3.912q-1.005 0-1.73-.426a2.9 2.9 0 0 1-1.108-1.194q-.383-.762-.383-1.755 0-1.006.387-1.764a2.9 2.9 0 0 1 1.113-1.189q.72-.43 1.713-.431.857 0 1.5.311.643.312 1.018.874t.413 1.321h-1.713q-.072-.49-.383-.788-.307-.303-.806-.303a1.22 1.22 0 0 0-.737.23q-.31.226-.486.661-.174.434-.174 1.052 0 .627.17 1.066.175.438.49.669.315.23.737.23.312 0 .559-.128a1.1 1.1 0 0 0 .413-.371q.166-.247.217-.592h1.713q-.042.75-.409 1.321a2.47 2.47 0 0 1-1.001.886q-.64.32-1.513.32m6.937 0q-1.01 0-1.739-.409a2.8 2.8 0 0 1-1.116-1.168q-.393-.759-.393-1.794 0-1.01.393-1.773a2.9 2.9 0 0 1 1.103-1.189q.716-.426 1.679-.426.648 0 1.206.209.563.204.98.618.422.414.657 1.04.234.622.234 1.457v.499h-5.527v-1.125h3.818q0-.393-.17-.695a1.23 1.23 0 0 0-.473-.473 1.36 1.36 0 0 0-.695-.175q-.414 0-.733.192-.315.188-.494.507-.18.316-.183.703v1.07q0 .486.178.839.184.354.516.546t.788.192q.303 0 .554-.086t.431-.255q.179-.17.273-.418l1.679.111q-.128.605-.525 1.057a2.6 2.6 0 0 1-1.014.699q-.618.246-1.427.247m4.057-.128v-6.545h1.76v1.142h.068q.178-.61.601-.921a1.58 1.58 0 0 1 .971-.315 2.6 2.6 0 0 1 .571.064v1.61a2.5 2.5 0 0 0-.354-.068q-.225-.03-.413-.03-.4 0-.716.175a1.3 1.3 0 0 0-.494.477 1.4 1.4 0 0 0-.179.708v3.703z"/><path fill="#fff" stroke="#F6821F" stroke-width="2" d="M370 155h117.875v24.927H370z"/><path fill="#222" d="M380.838 171.624v-8.727h3.494q.964 0 1.607.285.643.286.967.793.324.502.324 1.159 0 .511-.204.899a1.8 1.8 0 0 1-.563.631 2.3 2.3 0 0 1-.809.345v.085q.498.021.933.281.439.26.711.729.273.465.273 1.108 0 .694-.345 1.24-.34.541-1.01.856-.67.316-1.649.316zm1.845-1.509h1.505q.771 0 1.125-.294a.99.99 0 0 0 .353-.792q0-.363-.174-.64a1.2 1.2 0 0 0-.499-.434 1.7 1.7 0 0 0-.763-.158h-1.547zm0-3.567h1.368q.38 0 .674-.132.298-.136.468-.383a1 1 0 0 0 .175-.592.96.96 0 0 0-.337-.763q-.332-.29-.946-.29h-1.402zm8.88 5.204q-.993 0-1.717-.422a2.9 2.9 0 0 1-1.112-1.185q-.393-.763-.393-1.768 0-1.015.393-1.773a2.85 2.85 0 0 1 1.112-1.185q.724-.426 1.717-.426t1.713.426q.724.421 1.117 1.185.392.758.392 1.773 0 1.005-.392 1.768a2.9 2.9 0 0 1-1.117 1.185q-.72.422-1.713.422m.009-1.407q.451 0 .754-.255.303-.26.456-.708.157-.447.157-1.018t-.157-1.019a1.6 1.6 0 0 0-.456-.707 1.12 1.12 0 0 0-.754-.26q-.456 0-.767.26-.307.26-.465.707a3.2 3.2 0 0 0-.153 1.019q0 .571.153 1.018.158.448.465.708.31.255.767.255m7.743-5.267v1.364h-3.942v-1.364zm-3.047-1.568h1.815v6.102q0 .252.077.392a.42.42 0 0 0 .213.192.9.9 0 0 0 .324.056q.128 0 .255-.022l.196-.038.286 1.351a5 5 0 0 1-.384.098q-.247.06-.6.072-.657.025-1.151-.174a1.6 1.6 0 0 1-.763-.623q-.273-.421-.268-1.065zm6.777-.613h2.275l2.404 5.863h.102l2.403-5.863h2.276v8.727h-1.79v-5.681h-.072l-2.259 5.638h-1.219l-2.258-5.659h-.073v5.702h-1.789zm12.68 8.85q-.625 0-1.116-.217a1.8 1.8 0 0 1-.776-.652q-.28-.435-.281-1.082 0-.546.2-.917.201-.37.546-.596t.784-.341q.443-.115.929-.162.571-.06.92-.111.35-.056.507-.162a.35.35 0 0 0 .158-.315v-.026q0-.404-.256-.626-.251-.222-.715-.222-.49 0-.78.218a1 1 0 0 0-.384.537l-1.679-.137q.128-.596.503-1.031.375-.44.967-.673.597-.239 1.381-.239.546 0 1.044.128.503.128.891.396.392.268.618.691.225.417.225 1.001v4.415h-1.721v-.908h-.051a1.8 1.8 0 0 1-.422.541 2 2 0 0 1-.635.363 2.6 2.6 0 0 1-.857.127m.52-1.252q.4 0 .708-.158.307-.162.481-.435.175-.273.175-.618v-.694a1 1 0 0 1-.234.102 5 5 0 0 1-.329.081q-.183.034-.366.064l-.332.047q-.32.047-.559.149a.9.9 0 0 0-.37.277.68.68 0 0 0-.133.426q0 .37.269.567.273.192.69.192m6.258-2.655v3.784h-1.815v-6.546h1.73v1.155h.077a1.82 1.82 0 0 1 .728-.903q.512-.337 1.24-.337.682 0 1.189.298t.789.853q.28.55.281 1.312v4.168h-1.815v-3.844q.003-.601-.307-.937-.312-.341-.857-.341a1.3 1.3 0 0 0-.647.157q-.278.158-.435.461a1.6 1.6 0 0 0-.158.72m7.384 3.907q-.626 0-1.116-.217a1.8 1.8 0 0 1-.776-.652q-.28-.435-.281-1.082 0-.546.2-.917.201-.37.546-.596t.784-.341q.443-.115.929-.162.57-.06.92-.111.35-.056.507-.162a.36.36 0 0 0 .158-.315v-.026q0-.404-.256-.626-.25-.222-.716-.222-.489 0-.78.218a1 1 0 0 0-.383.537l-1.679-.137q.128-.596.503-1.031.375-.44.967-.673.597-.239 1.381-.239.545 0 1.044.128.502.128.891.396.392.268.617.691.226.417.226 1.001v4.415h-1.721v-.908h-.051a1.9 1.9 0 0 1-.422.541 2 2 0 0 1-.635.363 2.6 2.6 0 0 1-.857.127m.52-1.252q.4 0 .707-.158.308-.162.482-.435.175-.273.175-.618v-.694a1 1 0 0 1-.235.102 5 5 0 0 1-.328.081q-.183.034-.366.064l-.333.047a2.2 2.2 0 0 0-.558.149.9.9 0 0 0-.371.277.67.67 0 0 0-.132.426q0 .37.269.567.273.192.69.192m7.392 3.72q-.883 0-1.513-.243-.627-.239-.997-.652a2 2 0 0 1-.482-.929l1.679-.226q.077.196.243.366.166.171.439.273.276.107.673.107.592 0 .976-.29.387-.285.388-.959v-1.197h-.077a1.7 1.7 0 0 1-.358.515 1.8 1.8 0 0 1-.614.397q-.375.153-.894.153-.738 0-1.343-.341-.6-.345-.959-1.052-.353-.712-.353-1.799 0-1.112.362-1.858.361-.746.963-1.116a2.5 2.5 0 0 1 1.325-.371q.55 0 .921.188.37.183.596.46.231.273.354.537h.068v-1.1h1.803v6.61q0 .835-.409 1.397-.41.563-1.134.844-.72.286-1.657.286m.038-4.049q.439 0 .741-.217.307-.222.469-.631.166-.413.166-.988 0-.576-.162-.997a1.46 1.46 0 0 0-.468-.661 1.2 1.2 0 0 0-.746-.234q-.447 0-.754.243-.308.238-.465.664a2.8 2.8 0 0 0-.158.985q0 .566.158.98.162.409.465.635.307.221.754.221m7.457 1.586q-1.01 0-1.738-.409a2.8 2.8 0 0 1-1.117-1.168q-.392-.759-.392-1.794 0-1.01.392-1.773a2.9 2.9 0 0 1 1.104-1.189q.716-.426 1.679-.426.648 0 1.206.209.563.204.98.618.422.413.656 1.04.235.621.235 1.457v.499h-5.527v-1.125h3.818q0-.392-.171-.695a1.2 1.2 0 0 0-.473-.473 1.34 1.34 0 0 0-.694-.175q-.414 0-.733.192-.315.188-.495.507-.179.316-.183.703v1.07q0 .486.179.839.183.354.516.546.332.192.788.192.303 0 .554-.086t.431-.255a1.1 1.1 0 0 0 .272-.418l1.679.111q-.128.604-.524 1.057a2.6 2.6 0 0 1-1.014.698q-.618.248-1.428.248m4.057-.128v-6.546h1.73v1.155h.077a1.82 1.82 0 0 1 .682-.908q.477-.332 1.142-.332.674 0 1.146.337.474.331.631.903h.068a1.74 1.74 0 0 1 .725-.899q.528-.34 1.248-.341.917 0 1.487.584.576.58.576 1.645v4.402h-1.811v-4.044q0-.546-.29-.818a1.02 1.02 0 0 0-.725-.273q-.494 0-.771.315-.277.312-.277.823v3.997h-1.76v-4.083q0-.481-.277-.767-.273-.285-.72-.285-.303 0-.546.153-.238.15-.379.422-.14.268-.14.631v3.929zm13.797.128q-1.01 0-1.739-.409a2.8 2.8 0 0 1-1.117-1.168q-.392-.759-.392-1.794 0-1.01.392-1.773.393-.762 1.104-1.189.716-.426 1.679-.426.648 0 1.206.209.563.204.98.618.422.413.656 1.04.235.621.235 1.457v.499h-5.527v-1.125h3.818q0-.392-.17-.695a1.23 1.23 0 0 0-.473-.473 1.35 1.35 0 0 0-.695-.175q-.414 0-.733.192-.315.188-.494.507-.18.316-.184.703v1.07q0 .486.179.839.184.354.516.546t.788.192q.303 0 .554-.086t.431-.255a1.1 1.1 0 0 0 .272-.418l1.679.111q-.128.604-.524 1.057a2.6 2.6 0 0 1-1.014.698q-.618.248-1.427.248m5.872-3.912v3.784h-1.816v-6.546h1.731v1.155h.076q.218-.572.729-.903.511-.337 1.24-.337.682 0 1.189.298t.788.853q.282.55.282 1.312v4.168h-1.816v-3.844q.005-.601-.307-.937-.311-.341-.856-.341-.366 0-.648.157a1.1 1.1 0 0 0-.435.461 1.6 1.6 0 0 0-.157.72m8.999-2.762v1.364h-3.942v-1.364zm-3.047-1.568h1.815v6.102q0 .252.077.392a.42.42 0 0 0 .213.192.9.9 0 0 0 .324.056q.127 0 .256-.022l.196-.038.285 1.351a6 6 0 0 1-.383.098q-.247.06-.601.072-.656.025-1.151-.174a1.6 1.6 0 0 1-.763-.623q-.272-.421-.268-1.065z"/><path fill="#fff" stroke="#F6821F" stroke-width="2" d="M243 155h117.875v24.927H243z"/><path fill="#222" d="M289.987 170.876h-3.094v-8.727h3.119q1.317 0 2.267.524a3.53 3.53 0 0 1 1.462 1.496q.516.975.516 2.335 0 1.363-.516 2.344a3.55 3.55 0 0 1-1.47 1.504q-.955.524-2.284.524m-1.249-1.581h1.172q.819 0 1.376-.29.563-.294.844-.907.286-.618.286-1.594 0-.968-.286-1.581a1.85 1.85 0 0 0-.839-.904q-.558-.29-1.377-.289h-1.176zm9.847 1.581h-3.094v-8.727h3.12q1.317 0 2.267.524a3.53 3.53 0 0 1 1.461 1.496q.516.975.516 2.335 0 1.363-.516 2.344a3.54 3.54 0 0 1-1.47 1.504q-.954.524-2.284.524m-1.248-1.581h1.172q.818 0 1.376-.29.562-.294.844-.907.285-.618.285-1.594 0-.968-.285-1.581a1.86 1.86 0 0 0-.84-.904q-.558-.29-1.376-.289h-1.176zm9.676 1.709q-.993 0-1.717-.422a2.9 2.9 0 0 1-1.112-1.185q-.392-.763-.392-1.768 0-1.014.392-1.773a2.86 2.86 0 0 1 1.112-1.185q.724-.426 1.717-.426t1.713.426q.724.423 1.117 1.185.392.759.392 1.773 0 1.005-.392 1.768a2.9 2.9 0 0 1-1.117 1.185q-.72.422-1.713.422m.009-1.406q.451 0 .754-.256.303-.26.456-.708.158-.447.158-1.018t-.158-1.018a1.6 1.6 0 0 0-.456-.708 1.12 1.12 0 0 0-.754-.26q-.456 0-.767.26-.308.26-.465.708a3.1 3.1 0 0 0-.153 1.018q0 .571.153 1.018.158.448.465.708.31.255.767.256m9.03-4.939a1.08 1.08 0 0 0-.439-.801q-.389-.286-1.053-.286-.451 0-.763.128a1.07 1.07 0 0 0-.477.345.83.83 0 0 0-.162.503.73.73 0 0 0 .098.409q.111.174.303.302.191.124.443.218.252.09.537.153l.784.188q.571.128 1.048.341.477.212.827.524.35.31.541.733.197.421.2.967-.003.801-.409 1.389-.4.584-1.159.908-.754.32-1.819.32-1.057 0-1.841-.324a2.7 2.7 0 0 1-1.219-.959q-.435-.639-.456-1.581h1.786q.029.44.251.733.226.29.601.439.38.145.856.145.47 0 .814-.137.35-.136.541-.379a.88.88 0 0 0 .192-.558.73.73 0 0 0-.174-.495 1.3 1.3 0 0 0-.503-.34 5 5 0 0 0-.806-.256l-.95-.239q-1.104-.269-1.743-.839-.64-.572-.635-1.539-.004-.792.422-1.385.43-.592 1.18-.924t1.705-.333q.972 0 1.696.333.729.332 1.134.924t.417 1.373z"/><path fill="#fff" stroke="#F6821F" stroke-width="2" d="M243 186h117.875v24.927H243z"/><path fill="#222" d="M293.554 201.74h-3.094v-8.728h3.119q1.317 0 2.267.525a3.53 3.53 0 0 1 1.462 1.495q.515.976.515 2.336 0 1.363-.515 2.343a3.55 3.55 0 0 1-1.47 1.505q-.955.524-2.284.524m-1.249-1.581h1.172q.818 0 1.376-.29.563-.294.844-.908.286-.618.286-1.593 0-.968-.286-1.581a1.85 1.85 0 0 0-.839-.904q-.559-.29-1.377-.29h-1.176zm14.053-7.147v8.728h-1.594l-3.797-5.493h-.064v5.493h-1.845v-8.728h1.62l3.767 5.489h.076v-5.489zm6.127 2.51a1.08 1.08 0 0 0-.439-.801q-.388-.285-1.053-.285a2 2 0 0 0-.762.128 1.07 1.07 0 0 0-.478.345.83.83 0 0 0-.162.503.73.73 0 0 0 .098.409q.111.174.303.302.192.124.443.218.252.089.537.153l.784.188q.571.127 1.048.34t.827.525q.35.31.541.733.196.421.201.967-.005.801-.409 1.389-.4.584-1.16.908-.753.32-1.819.319-1.057 0-1.841-.324a2.7 2.7 0 0 1-1.219-.958q-.435-.639-.456-1.581h1.786q.03.438.251.733.226.29.601.439a2.4 2.4 0 0 0 .857.144q.468 0 .814-.136.349-.136.541-.379a.87.87 0 0 0 .191-.558.73.73 0 0 0-.174-.495 1.34 1.34 0 0 0-.503-.341 5 5 0 0 0-.805-.255l-.951-.239q-1.104-.269-1.743-.839-.638-.572-.635-1.539-.004-.792.422-1.385.43-.593 1.181-.924.75-.333 1.704-.333.972 0 1.696.333.729.332 1.134.924t.417 1.372z"/><path fill="#fff" stroke="#F6821F" stroke-width="2" d="M370 186h117.875v24.927H370z"/><path fill="#222" d="M395.703 196.068h-1.867a1.8 1.8 0 0 0-.208-.644 1.6 1.6 0 0 0-.405-.485 1.8 1.8 0 0 0-.571-.307 2.2 2.2 0 0 0-.695-.107q-.678 0-1.18.337-.503.332-.78.971-.277.636-.277 1.543 0 .933.277 1.568.281.636.784.959a2.1 2.1 0 0 0 1.163.324q.372 0 .686-.098a1.8 1.8 0 0 0 .567-.286q.247-.19.409-.464.167-.273.23-.622l1.867.008a3.48 3.48 0 0 1-1.134 2.152q-.481.435-1.15.691a4.2 4.2 0 0 1-1.504.251q-1.168 0-2.089-.528-.915-.53-1.448-1.53-.53-1.002-.529-2.425 0-1.427.537-2.429t1.458-1.525q.92-.53 2.071-.529.758 0 1.406.213.651.213 1.155.622.503.405.818.993.32.588.409 1.347m4.285 5.672h-3.094v-8.728h3.119q1.317 0 2.267.525a3.53 3.53 0 0 1 1.462 1.495q.516.976.516 2.336 0 1.363-.516 2.343a3.55 3.55 0 0 1-1.47 1.505q-.955.524-2.284.524m-1.249-1.581h1.172q.818 0 1.377-.29.563-.294.843-.908.286-.618.286-1.593 0-.968-.286-1.581a1.85 1.85 0 0 0-.839-.904q-.558-.29-1.377-.29h-1.176zm14.053-7.147v8.728h-1.593l-3.797-5.493h-.064v5.493h-1.845v-8.728h1.619l3.767 5.489h.077v-5.489zm7.805-.409-2.812 10.449h-1.564l2.812-10.449zm11.123 3.465h-1.867a1.8 1.8 0 0 0-.209-.644 1.6 1.6 0 0 0-.405-.485 1.8 1.8 0 0 0-.571-.307 2.2 2.2 0 0 0-.694-.107q-.677 0-1.181.337-.503.332-.779.971-.277.636-.277 1.543 0 .933.277 1.568.28.636.784.959a2.1 2.1 0 0 0 1.163.324q.37 0 .686-.098.32-.098.567-.286.247-.19.409-.464.166-.273.23-.622l1.867.008q-.073.601-.363 1.159-.285.555-.771.993a3.6 3.6 0 0 1-1.151.691 4.2 4.2 0 0 1-1.504.251q-1.167 0-2.088-.528-.916-.53-1.449-1.53-.528-1.002-.528-2.425 0-1.427.537-2.429t1.457-1.525q.92-.53 2.071-.529.76 0 1.406.213.653.213 1.155.622.503.405.818.993.32.588.41 1.347m3.023 5.795a2.7 2.7 0 0 1-1.116-.217 1.8 1.8 0 0 1-.776-.652q-.28-.435-.281-1.082 0-.546.2-.917a1.6 1.6 0 0 1 .545-.596q.346-.226.785-.341.443-.115.929-.162.57-.06.92-.111.35-.056.507-.162a.36.36 0 0 0 .158-.315v-.026q0-.405-.256-.626-.252-.222-.716-.222-.49 0-.78.218a1 1 0 0 0-.383.537l-1.679-.137q.128-.596.503-1.031.375-.44.967-.673.597-.239 1.381-.239.544 0 1.044.128.503.128.89.396.393.268.618.691.226.417.226 1.001v4.415h-1.721v-.908h-.052a1.8 1.8 0 0 1-.421.541 2 2 0 0 1-.635.362 2.6 2.6 0 0 1-.857.128m.52-1.253q.4 0 .707-.157.307-.162.482-.435t.175-.618v-.694a1 1 0 0 1-.235.102 5 5 0 0 1-.328.081q-.183.034-.366.064l-.333.047a2.2 2.2 0 0 0-.558.149.9.9 0 0 0-.371.277.67.67 0 0 0-.132.426q0 .37.269.567.272.191.69.191m7.4 1.258q-1.006 0-1.73-.427a2.87 2.87 0 0 1-1.108-1.193q-.384-.762-.384-1.755 0-1.006.388-1.765a2.9 2.9 0 0 1 1.112-1.189q.72-.43 1.713-.43.857 0 1.5.311.644.312 1.019.874t.413 1.321h-1.713q-.072-.49-.383-.789-.307-.302-.806-.302a1.22 1.22 0 0 0-.737.23 1.5 1.5 0 0 0-.486.66q-.175.435-.175 1.053 0 .627.171 1.065.174.44.49.669.315.231.737.231.312 0 .558-.128.252-.129.414-.371.166-.247.217-.592h1.713q-.043.75-.409 1.321a2.47 2.47 0 0 1-1.001.886q-.64.32-1.513.32m5.769-3.912v3.784h-1.816v-8.728h1.765v3.337h.076q.222-.58.716-.908.495-.332 1.24-.332.682 0 1.189.298.511.294.793.848.285.55.281 1.317v4.168h-1.815v-3.844q.004-.604-.307-.942-.308-.336-.861-.336-.37 0-.656.157a1.1 1.1 0 0 0-.443.46 1.56 1.56 0 0 0-.162.721m5.541 3.784v-6.546h1.815v6.546zm.912-7.389a1 1 0 0 1-.695-.269.87.87 0 0 1-.285-.652q0-.375.285-.643a.98.98 0 0 1 .695-.273q.405 0 .69.273.29.268.29.643 0 .38-.29.652a.97.97 0 0 1-.69.269m4.041 3.605v3.784h-1.816v-6.546h1.73v1.155h.077q.218-.572.729-.903.511-.337 1.24-.337.681 0 1.189.298.507.298.788.853.281.55.281 1.312v4.168h-1.815v-3.844q.005-.601-.307-.938-.311-.34-.856-.34a1.3 1.3 0 0 0-.648.157 1.1 1.1 0 0 0-.435.46 1.6 1.6 0 0 0-.157.721m8.466 6.375q-.882 0-1.513-.243-.626-.239-.997-.652a2 2 0 0 1-.481-.929l1.678-.226a1.11 1.11 0 0 0 .682.639q.277.107.674.107.592 0 .975-.29.388-.285.388-.959v-1.197h-.076a1.74 1.74 0 0 1-.972.912q-.375.153-.895.153-.737 0-1.342-.341-.601-.345-.959-1.052-.354-.712-.354-1.799 0-1.112.362-1.858.363-.745.964-1.116a2.5 2.5 0 0 1 1.325-.371q.55 0 .92.188.37.183.597.46.23.273.354.537h.068v-1.1h1.802v6.61q0 .834-.409 1.397t-1.133.844q-.72.285-1.658.286m.038-4.049q.44 0 .742-.217.307-.222.469-.631a2.7 2.7 0 0 0 .166-.988q0-.576-.162-.997a1.45 1.45 0 0 0-.469-.661 1.2 1.2 0 0 0-.746-.234q-.447 0-.754.243-.306.238-.464.664a2.8 2.8 0 0 0-.158.985q0 .566.158.98.162.409.464.635.307.22.754.221"/><path fill="#5E5E5E" d="M150.752 185a1.5 1.5 0 1 0 0 3zm80.309 2.561a1.5 1.5 0 0 0 0-2.122l-9.546-9.546a1.5 1.5 0 0 0-2.122 0 1.5 1.5 0 0 0 0 2.122l8.486 8.485-8.486 8.485a1.5 1.5 0 0 0 0 2.122 1.5 1.5 0 0 0 2.122 0zm-80.309.439H230v-3h-79.248z"/><path fill="#fff" stroke="#F6821F" stroke-width="2" d="M577 364h261v129H577z"/><path fill="#222" d="M661.464 385v-11.636h2.461v9.608h4.988V385zm12.976.17q-1.323 0-2.289-.562a3.84 3.84 0 0 1-1.483-1.58q-.523-1.017-.523-2.358 0-1.352.523-2.363a3.8 3.8 0 0 1 1.483-1.58q.966-.568 2.289-.568t2.284.568a3.8 3.8 0 0 1 1.489 1.58q.523 1.011.523 2.363 0 1.341-.523 2.358a3.83 3.83 0 0 1-1.489 1.58q-.96.562-2.284.562m.012-1.875q.601 0 1.005-.34.404-.348.608-.944.21-.596.211-1.358 0-.76-.211-1.358-.204-.596-.608-.943-.404-.346-1.005-.346-.609 0-1.023.346-.41.347-.619.943a4.2 4.2 0 0 0-.205 1.358q0 .762.205 1.358.21.597.619.944.414.34 1.023.34m13.119-4.534-2.216.137a1.15 1.15 0 0 0-.244-.512 1.3 1.3 0 0 0-.495-.369 1.7 1.7 0 0 0-.721-.142q-.562 0-.949.239-.386.232-.386.625 0 .312.25.528.249.216.858.347l1.579.318q1.273.26 1.898.841.625.58.625 1.522a2.38 2.38 0 0 1-.506 1.506q-.5.648-1.375 1.011-.869.358-2.005.358-1.734 0-2.762-.721a2.8 2.8 0 0 1-1.199-1.977l2.381-.125q.108.528.523.806.414.273 1.062.273.636 0 1.023-.244.392-.25.398-.642a.67.67 0 0 0-.279-.54q-.273-.216-.841-.33l-1.511-.301q-1.278-.255-1.903-.886-.62-.63-.62-1.608 0-.841.455-1.449.46-.608 1.29-.937.835-.33 1.954-.33 1.654 0 2.602.699.955.699 1.114 1.903m7.477 6.239h-2.636l4.017-11.636h3.17L703.611 385h-2.637l-2.914-8.977h-.091zm-.164-4.574h6.227v1.921h-6.227zm12.502-.471V385h-2.42v-8.727h2.307v1.539h.102q.29-.761.972-1.204.681-.449 1.653-.449.909 0 1.585.398t1.051 1.136q.375.733.375 1.75V385h-2.42v-5.125q.005-.801-.409-1.25-.415-.455-1.142-.455-.489 0-.864.211-.369.21-.579.613-.205.398-.211.961m11.465 8.5q-1.177 0-2.017-.324-.835-.318-1.33-.87a2.7 2.7 0 0 1-.642-1.238l2.239-.301q.102.261.324.488.221.228.585.364a2.5 2.5 0 0 0 .898.142q.79 0 1.301-.386.517-.38.517-1.279v-1.596h-.102a2.3 2.3 0 0 1-.478.687 2.4 2.4 0 0 1-.818.528q-.5.205-1.193.205a3.6 3.6 0 0 1-1.79-.455q-.801-.46-1.278-1.403-.472-.95-.472-2.398 0-1.482.483-2.477t1.284-1.489a3.3 3.3 0 0 1 1.767-.494q.733 0 1.228.25.494.245.795.614.307.363.472.716h.09v-1.466h2.404v8.812q0 1.114-.546 1.864-.545.75-1.511 1.125-.96.381-2.21.381m.051-5.398q.585 0 .989-.29.409-.295.625-.841.22-.551.221-1.318 0-.767-.216-1.33-.216-.567-.625-.88t-.994-.313q-.597 0-1.006.324-.409.318-.619.886a3.8 3.8 0 0 0-.21 1.313q0 .756.21 1.307.216.545.619.846.41.296 1.006.296m10.119 2.113q-1.346 0-2.318-.545a3.73 3.73 0 0 1-1.489-1.557q-.522-1.01-.522-2.392 0-1.346.522-2.364a3.87 3.87 0 0 1 1.472-1.585q.954-.568 2.239-.568.862 0 1.608.279.75.272 1.306.823.563.552.875 1.387.313.829.313 1.943v.665h-7.369v-1.5h5.091q0-.524-.228-.926a1.6 1.6 0 0 0-.63-.631 1.8 1.8 0 0 0-.927-.233q-.55 0-.977.256-.42.25-.659.676-.238.42-.244.937v1.426q0 .648.238 1.12.244.471.688.727.443.255 1.051.256.403 0 .739-.114.334-.114.574-.341.238-.227.363-.557l2.239.148a3.06 3.06 0 0 1-.699 1.409q-.522.597-1.352.932-.824.33-1.904.329m8.006-11.806V385h-2.42v-11.636zm5.916 11.806q-1.347 0-2.318-.545a3.73 3.73 0 0 1-1.489-1.557q-.522-1.01-.522-2.392 0-1.346.522-2.364a3.87 3.87 0 0 1 1.472-1.585q.955-.568 2.239-.568.862 0 1.608.279.75.272 1.306.823.563.552.875 1.387.313.829.313 1.943v.665h-7.369v-1.5h5.09q0-.524-.227-.926a1.6 1.6 0 0 0-.631-.631 1.8 1.8 0 0 0-.926-.233q-.55 0-.977.256-.42.25-.659.676-.239.42-.244.937v1.426q0 .648.238 1.12.244.471.688.727.443.255 1.051.256.403 0 .739-.114a1.5 1.5 0 0 0 .573-.341q.24-.227.364-.557l2.239.148a3.06 3.06 0 0 1-.699 1.409q-.523.597-1.352.932-.824.33-1.904.329m12.847-6.409-2.216.137a1.15 1.15 0 0 0-.244-.512 1.3 1.3 0 0 0-.495-.369 1.7 1.7 0 0 0-.721-.142q-.563 0-.949.239-.387.232-.387.625 0 .312.25.528t.858.347l1.58.318q1.272.26 1.898.841.625.58.625 1.522a2.38 2.38 0 0 1-.506 1.506q-.5.648-1.375 1.011-.87.358-2.006.358-1.732 0-2.761-.721a2.8 2.8 0 0 1-1.199-1.977l2.381-.125q.108.528.522.806.415.273 1.063.273.636 0 1.023-.244.392-.25.397-.642a.67.67 0 0 0-.278-.54q-.273-.216-.841-.33l-1.511-.301q-1.279-.255-1.904-.886-.62-.63-.619-1.608 0-.841.455-1.449.46-.608 1.289-.937.836-.33 1.955-.33 1.654 0 2.602.699.955.699 1.114 1.903"/><path fill="#fff" stroke="#F6821F" stroke-width="2" d="M585 459h117.875v24.927H585z"/><path fill="#222" d="m633.358 474.876-2.497-8.727h2.015l1.445 6.064h.072l1.594-6.064h1.726l1.59 6.076h.076l1.445-6.076h2.015l-2.497 8.727h-1.798l-1.662-5.706h-.068l-1.658 5.706zm10.962 0h-1.977l3.013-8.727h2.378l3.008 8.727h-1.977l-2.186-6.733h-.068zm-.123-3.43h4.67v1.44h-4.67zm7.464 3.43v-8.727h5.778v1.521h-3.933v2.08h3.55v1.521h-3.55v3.605z"/><path fill="#fff" stroke="#F6821F" stroke-width="2" d="M712 459h117.875v24.927H712z"/><path fill="#222" d="M731.204 474.876v-8.727h1.845v7.206h3.741v1.521zm9.6.128q-.993 0-1.718-.422a2.9 2.9 0 0 1-1.112-1.185q-.392-.762-.392-1.768 0-1.014.392-1.773a2.87 2.87 0 0 1 1.112-1.185q.725-.426 1.718-.426t1.713.426a2.85 2.85 0 0 1 1.116 1.185q.392.759.392 1.773 0 1.005-.392 1.768a2.87 2.87 0 0 1-1.116 1.185q-.72.422-1.713.422m.008-1.406q.452 0 .754-.256.303-.26.456-.708.158-.447.158-1.018t-.158-1.018a1.6 1.6 0 0 0-.456-.708 1.12 1.12 0 0 0-.754-.26q-.455 0-.767.26a1.6 1.6 0 0 0-.464.708 3.1 3.1 0 0 0-.154 1.018q0 .571.154 1.018.158.448.464.708.312.255.767.256M746.94 475q-.626 0-1.116-.218a1.8 1.8 0 0 1-.776-.652q-.28-.434-.281-1.082 0-.546.2-.916.2-.371.546-.597.345-.226.784-.341.443-.115.929-.162.57-.06.92-.111.35-.055.507-.162a.36.36 0 0 0 .158-.315v-.025q0-.405-.256-.627-.25-.221-.716-.221-.489 0-.78.217a1 1 0 0 0-.383.537l-1.679-.137q.128-.596.503-1.031.375-.438.967-.673.597-.239 1.381-.239.544 0 1.044.128.503.127.89.396.393.269.618.691.226.417.226 1.001v4.415h-1.721v-.908h-.051a1.9 1.9 0 0 1-.422.541 1.9 1.9 0 0 1-.635.363 2.6 2.6 0 0 1-.857.128m.52-1.253q.4 0 .707-.158.307-.162.482-.435.174-.272.175-.618v-.694a1 1 0 0 1-.235.102 4 4 0 0 1-.328.081q-.183.034-.366.064l-.333.047a2.2 2.2 0 0 0-.558.149.9.9 0 0 0-.371.277.68.68 0 0 0-.132.426q0 .37.269.567.273.192.69.192m6.855 1.236q-.747 0-1.351-.384-.601-.388-.955-1.138-.35-.754-.349-1.849 0-1.125.362-1.871.362-.75.963-1.121.605-.375 1.325-.375.55 0 .916.188.372.183.597.46.23.273.35.537h.055v-3.281h1.811v8.727h-1.79v-1.048h-.076a2.4 2.4 0 0 1-.363.541 1.8 1.8 0 0 1-.601.439q-.366.175-.894.175m.575-1.445q.439 0 .741-.239.307-.243.469-.677.166-.435.166-1.019t-.162-1.014a1.46 1.46 0 0 0-.468-.665 1.2 1.2 0 0 0-.746-.234q-.447 0-.754.243-.308.243-.465.673a2.9 2.9 0 0 0-.158.997q0 .572.158 1.01.162.435.465.682.306.243.754.243m7.189 1.338v-8.727h3.494q.963 0 1.607.285.643.286.967.793.324.502.324 1.159 0 .512-.205.899a1.76 1.76 0 0 1-.562.631 2.3 2.3 0 0 1-.81.345v.085q.5.021.934.281.438.261.711.729.273.465.273 1.108 0 .694-.345 1.24-.341.541-1.01.857-.67.315-1.649.315zm1.845-1.509h1.504q.772 0 1.125-.294a.98.98 0 0 0 .354-.792q0-.363-.175-.639a1.2 1.2 0 0 0-.498-.435 1.7 1.7 0 0 0-.763-.158h-1.547zm0-3.566h1.368q.38 0 .673-.132.298-.137.469-.384a1 1 0 0 0 .175-.592.96.96 0 0 0-.337-.763q-.332-.29-.946-.29h-1.402zm7.789 5.199q-.627 0-1.117-.218a1.8 1.8 0 0 1-.775-.652q-.281-.434-.281-1.082 0-.546.2-.916.2-.371.545-.597t.784-.341q.444-.115.929-.162.572-.06.921-.111.35-.055.507-.162a.36.36 0 0 0 .158-.315v-.025q0-.405-.256-.627-.251-.221-.716-.221-.49 0-.78.217a1 1 0 0 0-.383.537l-1.679-.137q.128-.596.503-1.031.375-.438.967-.673.597-.239 1.381-.239.545 0 1.044.128.503.127.89.396.393.269.618.691.226.417.226 1.001v4.415h-1.722v-.908h-.051a1.82 1.82 0 0 1-1.057.904 2.6 2.6 0 0 1-.856.128m.52-1.253q.4 0 .707-.158.307-.162.482-.435a1.1 1.1 0 0 0 .174-.618v-.694a1 1 0 0 1-.234.102 4 4 0 0 1-.328.081q-.183.034-.367.064l-.332.047a2.2 2.2 0 0 0-.558.149.9.9 0 0 0-.371.277.68.68 0 0 0-.132.426q0 .37.268.567.273.192.691.192m6.258-7.598v8.727h-1.816v-8.727zm3.188 8.851q-.625 0-1.116-.218a1.8 1.8 0 0 1-.776-.652q-.28-.434-.281-1.082 0-.546.2-.916.201-.371.546-.597t.784-.341q.443-.115.929-.162.571-.06.92-.111.35-.055.507-.162a.35.35 0 0 0 .158-.315v-.025q0-.405-.256-.627-.251-.221-.715-.221-.49 0-.78.217a1 1 0 0 0-.384.537l-1.679-.137q.128-.596.503-1.031.375-.438.967-.673.597-.239 1.381-.239.546 0 1.044.128.503.127.891.396.392.269.618.691.225.417.225 1.001v4.415h-1.721v-.908h-.051a1.8 1.8 0 0 1-.422.541 1.9 1.9 0 0 1-.635.363 2.6 2.6 0 0 1-.857.128m.52-1.253q.4 0 .708-.158.307-.162.481-.435.175-.272.175-.618v-.694a1 1 0 0 1-.234.102 4 4 0 0 1-.329.081q-.183.034-.366.064l-.332.047q-.32.047-.559.149a.9.9 0 0 0-.37.277.68.68 0 0 0-.133.426q0 .37.269.567.273.192.69.192m6.258-2.655v3.784h-1.815v-6.545h1.73v1.154h.077q.217-.57.728-.903.512-.336 1.24-.337.682 0 1.189.299.507.298.789.852.28.55.281 1.312v4.168h-1.815v-3.844q.003-.6-.307-.937-.312-.341-.857-.341a1.3 1.3 0 0 0-.647.157q-.277.158-.435.461a1.6 1.6 0 0 0-.158.72m8.475 3.912q-1.005 0-1.73-.426a2.9 2.9 0 0 1-1.108-1.194q-.384-.762-.383-1.755 0-1.006.387-1.764a2.9 2.9 0 0 1 1.113-1.189q.72-.43 1.713-.431.857 0 1.5.311.643.312 1.018.874t.413 1.321h-1.713q-.072-.49-.383-.788-.307-.303-.806-.303a1.22 1.22 0 0 0-.737.23q-.31.226-.486.661-.174.434-.174 1.052 0 .627.17 1.066.175.438.49.669.315.23.737.23.312 0 .559-.128a1.1 1.1 0 0 0 .413-.371q.166-.247.217-.592h1.713q-.042.75-.409 1.321a2.47 2.47 0 0 1-1.001.886q-.64.32-1.513.32m6.937 0q-1.01 0-1.739-.409a2.8 2.8 0 0 1-1.116-1.168q-.393-.759-.393-1.794 0-1.01.393-1.773a2.9 2.9 0 0 1 1.103-1.189q.716-.426 1.679-.426.648 0 1.206.209.563.204.98.618.422.413.657 1.04.234.622.234 1.457v.499h-5.527v-1.125h3.818q0-.393-.17-.695a1.23 1.23 0 0 0-.473-.473 1.36 1.36 0 0 0-.695-.175q-.414 0-.733.192-.315.188-.494.507-.18.315-.183.703v1.07q0 .486.178.839.184.354.516.546t.788.192q.303 0 .554-.086t.431-.255q.179-.17.273-.418l1.679.111q-.128.605-.525 1.057a2.6 2.6 0 0 1-1.014.699q-.618.247-1.427.247m4.057-.128v-6.545h1.76v1.142h.068q.178-.61.601-.921a1.58 1.58 0 0 1 .971-.315 2.6 2.6 0 0 1 .571.064v1.61a2.5 2.5 0 0 0-.354-.068q-.225-.03-.413-.03-.4 0-.716.175a1.3 1.3 0 0 0-.494.477 1.4 1.4 0 0 0-.179.708v3.703z"/><path fill="#fff" stroke="#F6821F" stroke-width="2" d="M712 397h117.875v24.927H712z"/><path fill="#222" d="M722.838 413.624v-8.727h3.494q.964 0 1.607.285t.967.793q.324.502.324 1.159 0 .511-.204.899a1.8 1.8 0 0 1-.563.631 2.3 2.3 0 0 1-.809.345v.085q.498.021.933.281.439.26.711.729.273.465.273 1.108 0 .694-.345 1.24-.34.541-1.01.856-.67.316-1.649.316zm1.845-1.509h1.505q.771 0 1.125-.294a.99.99 0 0 0 .353-.792q0-.363-.174-.64a1.2 1.2 0 0 0-.499-.434 1.7 1.7 0 0 0-.763-.158h-1.547zm0-3.567h1.368q.38 0 .674-.132.298-.136.468-.383a1 1 0 0 0 .175-.592.96.96 0 0 0-.337-.763q-.332-.29-.946-.29h-1.402zm8.88 5.204q-.993 0-1.717-.422a2.9 2.9 0 0 1-1.112-1.185q-.393-.762-.393-1.768 0-1.015.393-1.773a2.85 2.85 0 0 1 1.112-1.185q.724-.426 1.717-.426t1.713.426q.724.421 1.117 1.185.392.758.392 1.773 0 1.006-.392 1.768a2.9 2.9 0 0 1-1.117 1.185q-.72.422-1.713.422m.009-1.407q.451 0 .754-.255.303-.26.456-.708.157-.447.157-1.018t-.157-1.019a1.6 1.6 0 0 0-.456-.707 1.12 1.12 0 0 0-.754-.26q-.456 0-.767.26-.308.26-.465.707a3.2 3.2 0 0 0-.153 1.019q0 .571.153 1.018.157.448.465.708.31.255.767.255m7.743-5.267v1.364h-3.942v-1.364zm-3.047-1.568h1.815v6.102q0 .252.077.392a.42.42 0 0 0 .213.192.9.9 0 0 0 .324.056q.127 0 .255-.022l.196-.038.286 1.351a5 5 0 0 1-.384.098q-.247.06-.6.072-.657.026-1.151-.174a1.6 1.6 0 0 1-.763-.623q-.273-.421-.268-1.065zm6.777-.613h2.275l2.404 5.863h.102l2.403-5.863h2.276v8.727h-1.79v-5.681h-.072l-2.259 5.638h-1.219l-2.258-5.659h-.073v5.702h-1.789zm12.68 8.85q-.625 0-1.116-.217a1.8 1.8 0 0 1-.776-.652q-.28-.435-.281-1.082 0-.546.2-.917.201-.37.546-.596t.784-.341q.443-.115.929-.162.571-.06.92-.111.35-.056.507-.162a.35.35 0 0 0 .158-.315v-.026q0-.404-.256-.626-.251-.222-.715-.222-.49 0-.78.218a1 1 0 0 0-.384.537l-1.679-.137q.128-.596.503-1.031.375-.44.967-.673.597-.239 1.381-.239.546 0 1.044.128.502.127.891.396.391.268.618.691.225.417.225 1.001v4.415h-1.721v-.908h-.051a1.8 1.8 0 0 1-.422.541 2 2 0 0 1-.635.363 2.6 2.6 0 0 1-.857.127m.52-1.252q.4 0 .708-.158.306-.162.481-.435t.175-.618v-.694a1 1 0 0 1-.234.102 5 5 0 0 1-.329.081q-.183.034-.366.064l-.332.047q-.32.047-.559.149a.9.9 0 0 0-.37.277.68.68 0 0 0-.133.426q0 .37.269.567.273.192.69.192m6.258-2.655v3.784h-1.815v-6.546h1.73v1.155h.077a1.82 1.82 0 0 1 .728-.903q.512-.337 1.24-.337.682 0 1.189.298t.789.853q.28.55.281 1.312v4.168h-1.815v-3.844q.003-.601-.307-.937-.311-.341-.857-.341a1.3 1.3 0 0 0-.647.157q-.278.158-.435.461a1.6 1.6 0 0 0-.158.72m7.384 3.907q-.626 0-1.116-.217a1.8 1.8 0 0 1-.776-.652q-.28-.435-.281-1.082 0-.546.2-.917.201-.37.546-.596t.784-.341q.443-.115.929-.162.57-.06.92-.111.35-.056.507-.162a.36.36 0 0 0 .158-.315v-.026q0-.404-.256-.626-.25-.222-.716-.222-.489 0-.78.218a1 1 0 0 0-.383.537l-1.679-.137q.128-.596.503-1.031.375-.44.967-.673.597-.239 1.381-.239.545 0 1.044.128.503.127.891.396.392.268.617.691.226.417.226 1.001v4.415h-1.721v-.908h-.051a1.9 1.9 0 0 1-.422.541 2 2 0 0 1-.635.363 2.6 2.6 0 0 1-.857.127m.52-1.252q.4 0 .707-.158.308-.162.482-.435.175-.273.175-.618v-.694a1 1 0 0 1-.235.102 5 5 0 0 1-.328.081q-.183.034-.366.064l-.333.047a2.2 2.2 0 0 0-.558.149.9.9 0 0 0-.371.277.67.67 0 0 0-.132.426q0 .37.269.567.273.192.69.192m7.392 3.72q-.883 0-1.513-.243-.627-.239-.997-.652a2 2 0 0 1-.482-.929l1.679-.226q.077.196.243.366.166.171.439.273.276.107.673.107.592 0 .976-.29.388-.285.388-.959v-1.197h-.077a1.7 1.7 0 0 1-.358.515 1.8 1.8 0 0 1-.614.397q-.375.153-.894.153-.737 0-1.343-.341-.6-.345-.959-1.052-.353-.712-.353-1.799 0-1.112.362-1.858.361-.745.963-1.116a2.5 2.5 0 0 1 1.325-.371q.55 0 .921.188.37.183.596.46.231.273.354.537h.068v-1.1h1.803v6.61q0 .835-.409 1.397-.41.563-1.134.844-.72.286-1.657.286m.038-4.049q.439 0 .741-.217.307-.222.469-.631.166-.413.166-.988 0-.576-.162-.997a1.46 1.46 0 0 0-.468-.661 1.2 1.2 0 0 0-.746-.234q-.447 0-.754.243-.308.238-.465.664a2.8 2.8 0 0 0-.158.985q0 .566.158.98.162.409.465.635.307.222.754.221m7.457 1.586q-1.01 0-1.738-.409a2.8 2.8 0 0 1-1.117-1.168q-.392-.759-.392-1.794 0-1.01.392-1.773a2.9 2.9 0 0 1 1.104-1.189q.716-.426 1.679-.426.648 0 1.206.209.563.204.98.618.422.413.656 1.04.235.621.235 1.457v.499h-5.527v-1.125h3.818q0-.392-.171-.695a1.2 1.2 0 0 0-.473-.473 1.34 1.34 0 0 0-.694-.175q-.414 0-.733.192-.315.188-.495.507-.178.315-.183.703v1.07q0 .486.179.839.183.354.516.546.332.192.788.192.303 0 .554-.086t.431-.255a1.1 1.1 0 0 0 .272-.418l1.679.111q-.128.604-.524 1.057a2.6 2.6 0 0 1-1.014.698q-.618.248-1.428.248m4.057-.128v-6.546h1.73v1.155h.077a1.82 1.82 0 0 1 .682-.908q.477-.332 1.142-.332.673 0 1.146.337.474.332.631.903h.068a1.74 1.74 0 0 1 .725-.899q.528-.34 1.248-.341.917 0 1.487.584.576.58.576 1.645v4.402h-1.811v-4.044q0-.546-.29-.818a1.02 1.02 0 0 0-.725-.273q-.494 0-.771.315-.277.312-.277.823v3.997h-1.76v-4.083q0-.481-.277-.767-.273-.285-.72-.285-.303 0-.546.153-.238.15-.379.422-.14.268-.14.631v3.929zm13.797.128q-1.01 0-1.739-.409a2.8 2.8 0 0 1-1.117-1.168q-.392-.759-.392-1.794 0-1.01.392-1.773.393-.762 1.104-1.189.716-.426 1.679-.426.648 0 1.206.209.563.204.98.618.422.413.656 1.04.235.621.235 1.457v.499h-5.527v-1.125h3.818q0-.392-.17-.695a1.23 1.23 0 0 0-.473-.473 1.35 1.35 0 0 0-.695-.175q-.414 0-.733.192-.315.188-.494.507-.18.315-.184.703v1.07q0 .486.179.839.184.354.516.546t.788.192q.303 0 .554-.086t.431-.255a1.1 1.1 0 0 0 .272-.418l1.679.111q-.128.604-.524 1.057a2.6 2.6 0 0 1-1.014.698q-.618.248-1.427.248m5.872-3.912v3.784h-1.816v-6.546h1.731v1.155h.076q.217-.571.729-.903.511-.337 1.24-.337.682 0 1.189.298t.788.853q.282.55.282 1.312v4.168h-1.816v-3.844q.005-.601-.307-.937-.311-.341-.856-.341-.366 0-.648.157a1.1 1.1 0 0 0-.435.461 1.6 1.6 0 0 0-.157.72m8.999-2.762v1.364h-3.942v-1.364zm-3.047-1.568h1.815v6.102q0 .252.077.392a.42.42 0 0 0 .213.192.9.9 0 0 0 .324.056q.127 0 .256-.022l.196-.038.285 1.351a6 6 0 0 1-.383.098q-.247.06-.601.072-.657.026-1.151-.174a1.6 1.6 0 0 1-.763-.623q-.272-.421-.268-1.065z"/><path fill="#fff" stroke="#F6821F" stroke-width="2" d="M585 397h117.875v24.927H585z"/><path fill="#222" d="M631.987 412.876h-3.094v-8.727h3.119q1.317 0 2.267.524a3.53 3.53 0 0 1 1.462 1.496q.516.976.516 2.335 0 1.363-.516 2.344a3.55 3.55 0 0 1-1.47 1.504q-.955.524-2.284.524m-1.249-1.581h1.172q.819 0 1.376-.29.563-.294.844-.907.286-.618.286-1.594 0-.967-.286-1.581a1.85 1.85 0 0 0-.839-.904q-.558-.29-1.377-.289h-1.176zm9.847 1.581h-3.094v-8.727h3.12q1.317 0 2.267.524a3.53 3.53 0 0 1 1.461 1.496q.516.976.516 2.335 0 1.363-.516 2.344a3.54 3.54 0 0 1-1.47 1.504q-.954.524-2.284.524m-1.248-1.581h1.172q.818 0 1.376-.29.562-.294.844-.907.285-.618.285-1.594 0-.967-.285-1.581a1.86 1.86 0 0 0-.84-.904q-.558-.29-1.376-.289h-1.176zm9.676 1.709q-.993 0-1.717-.422a2.9 2.9 0 0 1-1.112-1.185q-.392-.762-.392-1.768 0-1.014.392-1.773a2.86 2.86 0 0 1 1.112-1.185q.724-.426 1.717-.426t1.713.426q.724.423 1.117 1.185.392.759.392 1.773 0 1.005-.392 1.768a2.9 2.9 0 0 1-1.117 1.185q-.72.422-1.713.422m.009-1.406q.451 0 .754-.256.303-.26.456-.708.158-.447.158-1.018t-.158-1.018a1.6 1.6 0 0 0-.456-.708 1.12 1.12 0 0 0-.754-.26q-.456 0-.767.26-.308.26-.465.708a3.1 3.1 0 0 0-.153 1.018q0 .571.153 1.018.158.448.465.708.31.255.767.256m9.03-4.939a1.08 1.08 0 0 0-.439-.801q-.389-.286-1.053-.286-.451 0-.763.128a1.07 1.07 0 0 0-.477.345.83.83 0 0 0-.162.503.73.73 0 0 0 .098.409q.111.174.303.302.192.124.443.218.252.09.537.153l.784.188q.571.128 1.048.341.477.212.827.524.35.31.541.733.197.421.2.967-.003.801-.409 1.389-.4.584-1.159.908-.754.32-1.819.32-1.057 0-1.841-.324a2.7 2.7 0 0 1-1.219-.959q-.435-.639-.456-1.581h1.786q.029.44.251.733.226.29.601.439.38.144.856.145.47 0 .814-.137.35-.136.541-.379a.88.88 0 0 0 .192-.558.73.73 0 0 0-.174-.495 1.3 1.3 0 0 0-.503-.34 5 5 0 0 0-.806-.256l-.95-.239q-1.104-.269-1.743-.839-.64-.572-.635-1.539-.004-.792.422-1.385.43-.592 1.18-.924t1.705-.333q.972 0 1.696.333.729.332 1.134.924t.417 1.373z"/><path fill="#fff" stroke="#F6821F" stroke-width="2" d="M585 428h117.875v24.927H585z"/><path fill="#222" d="M635.554 443.74h-3.094v-8.728h3.119q1.317 0 2.267.525a3.53 3.53 0 0 1 1.462 1.495q.516.976.515 2.336 0 1.363-.515 2.343a3.55 3.55 0 0 1-1.47 1.505q-.955.524-2.284.524m-1.249-1.581h1.172q.818 0 1.376-.29.563-.294.844-.908.285-.618.286-1.593 0-.967-.286-1.581a1.85 1.85 0 0 0-.839-.904q-.559-.29-1.377-.29h-1.176zm14.053-7.147v8.728h-1.594l-3.797-5.493h-.064v5.493h-1.845v-8.728h1.62l3.767 5.489h.076v-5.489zm6.127 2.51a1.08 1.08 0 0 0-.439-.801q-.388-.285-1.053-.285a2 2 0 0 0-.762.128 1.07 1.07 0 0 0-.478.345.83.83 0 0 0-.162.503.73.73 0 0 0 .098.409q.111.174.303.302.192.124.443.218.252.089.537.153l.784.188q.571.127 1.048.34t.827.525q.35.31.541.733.197.421.201.967-.005.801-.409 1.389-.4.584-1.16.908-.754.32-1.819.319-1.057 0-1.841-.324a2.7 2.7 0 0 1-1.219-.958q-.435-.639-.456-1.581h1.786q.03.438.251.733.226.29.601.439a2.4 2.4 0 0 0 .857.144q.468 0 .814-.136.348-.136.541-.379a.87.87 0 0 0 .191-.558.73.73 0 0 0-.174-.495 1.34 1.34 0 0 0-.503-.341 5 5 0 0 0-.805-.255l-.951-.239q-1.104-.269-1.743-.839-.639-.572-.635-1.539-.004-.792.422-1.385.43-.593 1.181-.924.75-.333 1.704-.333.972 0 1.696.333.729.331 1.134.924t.417 1.372z"/><path fill="#fff" stroke="#F6821F" stroke-width="2" d="M712 428h117.875v24.927H712z"/><path fill="#222" d="M737.703 438.068h-1.867a1.8 1.8 0 0 0-.208-.644 1.6 1.6 0 0 0-.405-.485 1.8 1.8 0 0 0-.571-.307 2.2 2.2 0 0 0-.695-.107q-.678 0-1.18.337-.503.332-.78.971-.277.636-.277 1.543 0 .933.277 1.568.281.636.784.959a2.1 2.1 0 0 0 1.163.324q.371 0 .686-.098a1.8 1.8 0 0 0 .567-.286q.247-.19.409-.464.167-.273.23-.622l1.867.008a3.48 3.48 0 0 1-1.134 2.152q-.481.435-1.15.691a4.2 4.2 0 0 1-1.504.251q-1.168 0-2.089-.528-.915-.53-1.448-1.53-.53-1.002-.529-2.425 0-1.428.537-2.429t1.458-1.525q.92-.53 2.071-.529.758 0 1.406.213.651.213 1.155.622.503.405.818.993.32.588.409 1.347m4.285 5.672h-3.094v-8.728h3.119q1.317 0 2.267.525a3.53 3.53 0 0 1 1.462 1.495q.516.976.516 2.336 0 1.363-.516 2.343a3.55 3.55 0 0 1-1.47 1.505q-.954.524-2.284.524m-1.249-1.581h1.172q.818 0 1.377-.29.563-.294.843-.908.286-.618.286-1.593 0-.967-.286-1.581a1.85 1.85 0 0 0-.839-.904q-.558-.29-1.377-.29h-1.176zm14.053-7.147v8.728h-1.593l-3.797-5.493h-.064v5.493h-1.845v-8.728h1.619l3.767 5.489h.077v-5.489zm7.805-.409-2.812 10.449h-1.564l2.812-10.449zm11.123 3.465h-1.867a1.8 1.8 0 0 0-.209-.644 1.6 1.6 0 0 0-.405-.485 1.8 1.8 0 0 0-.571-.307 2.2 2.2 0 0 0-.694-.107q-.678 0-1.181.337-.503.332-.779.971-.277.636-.277 1.543 0 .933.277 1.568.28.636.784.959a2.1 2.1 0 0 0 1.163.324q.37 0 .686-.098.32-.098.567-.286.247-.19.409-.464.166-.273.23-.622l1.867.008q-.073.601-.363 1.159-.285.555-.771.993a3.6 3.6 0 0 1-1.151.691 4.2 4.2 0 0 1-1.504.251q-1.167 0-2.088-.528-.916-.53-1.449-1.53-.528-1.002-.528-2.425 0-1.428.537-2.429.536-1.001 1.457-1.525.92-.53 2.071-.529.76 0 1.406.213.652.213 1.155.622.503.405.818.993.32.588.41 1.347m3.023 5.795a2.7 2.7 0 0 1-1.116-.217 1.8 1.8 0 0 1-.776-.652q-.28-.435-.281-1.082 0-.546.2-.917a1.6 1.6 0 0 1 .545-.596q.346-.226.785-.341.443-.115.929-.162.57-.06.92-.111.35-.055.507-.162a.36.36 0 0 0 .158-.315v-.026q0-.404-.256-.626-.252-.222-.716-.222-.49 0-.78.218a1 1 0 0 0-.383.537l-1.679-.137q.128-.596.503-1.031.375-.44.967-.673.597-.239 1.381-.239.545 0 1.044.128.503.127.89.396.393.268.618.691.226.417.226 1.001v4.415h-1.721v-.908h-.052a1.8 1.8 0 0 1-.421.541 2 2 0 0 1-.635.362 2.6 2.6 0 0 1-.857.128m.52-1.253q.4 0 .707-.157.307-.162.482-.435.174-.273.175-.618v-.694a1 1 0 0 1-.235.102 5 5 0 0 1-.328.081q-.183.034-.366.064l-.333.047a2.2 2.2 0 0 0-.558.149.9.9 0 0 0-.371.277.67.67 0 0 0-.132.426q0 .37.269.567.272.192.69.191m7.4 1.258q-1.006 0-1.73-.427a2.87 2.87 0 0 1-1.108-1.193q-.384-.762-.384-1.755 0-1.006.388-1.765a2.9 2.9 0 0 1 1.112-1.189q.72-.43 1.713-.43.857 0 1.5.311.644.312 1.019.874t.413 1.321h-1.713q-.072-.49-.383-.789-.307-.302-.806-.302a1.22 1.22 0 0 0-.737.23 1.5 1.5 0 0 0-.486.66q-.175.435-.175 1.053 0 .627.171 1.065.174.44.49.669.315.231.737.231.312 0 .558-.128.252-.129.414-.371.166-.247.217-.592h1.713q-.043.75-.409 1.321a2.47 2.47 0 0 1-1.001.886q-.64.32-1.513.32m5.769-3.912v3.784h-1.816v-8.728h1.765v3.337h.076q.222-.58.716-.908.495-.332 1.24-.332.682 0 1.189.298.511.294.793.848.285.55.281 1.317v4.168h-1.815v-3.844q.004-.604-.307-.942-.308-.336-.861-.336-.37 0-.656.157a1.1 1.1 0 0 0-.443.46 1.56 1.56 0 0 0-.162.721m5.541 3.784v-6.546h1.815v6.546zm.912-7.389a1 1 0 0 1-.695-.269.87.87 0 0 1-.285-.652q0-.375.285-.643a.98.98 0 0 1 .695-.273q.405 0 .69.273.29.268.29.643 0 .38-.29.652a.97.97 0 0 1-.69.269m4.041 3.605v3.784h-1.816v-6.546h1.73v1.155h.077q.217-.571.729-.903.511-.337 1.24-.337.681 0 1.189.298.507.298.788.853.281.55.281 1.312v4.168h-1.815v-3.844q.005-.601-.307-.938-.311-.34-.856-.34a1.3 1.3 0 0 0-.648.157 1.1 1.1 0 0 0-.435.46 1.6 1.6 0 0 0-.157.721m8.466 6.375q-.882 0-1.513-.243-.626-.239-.997-.652a2 2 0 0 1-.481-.929l1.678-.226a1.11 1.11 0 0 0 .682.639q.277.107.674.107.592 0 .975-.29.388-.285.388-.959v-1.197h-.076a1.74 1.74 0 0 1-.972.912q-.375.153-.895.153-.737 0-1.342-.341-.601-.345-.959-1.052-.354-.712-.354-1.799 0-1.112.362-1.858.363-.745.964-1.116a2.5 2.5 0 0 1 1.325-.371q.55 0 .92.188.37.183.597.46.23.273.354.537h.068v-1.1h1.802v6.61q0 .834-.409 1.397t-1.133.844q-.72.285-1.658.286m.038-4.049q.44 0 .742-.217.306-.222.469-.631a2.7 2.7 0 0 0 .166-.988q0-.576-.162-.997a1.45 1.45 0 0 0-.469-.661 1.2 1.2 0 0 0-.746-.234q-.447 0-.754.243-.306.238-.464.664a2.8 2.8 0 0 0-.158.985q0 .566.158.98.161.409.464.635.307.22.754.221"/><path fill="#5E5E5E" d="M843 427.5a1.5 1.5 0 0 0 0 3zm171.06 2.561c.59-.586.59-1.536 0-2.122l-9.55-9.546a1.5 1.5 0 0 0-2.12 0 1.51 1.51 0 0 0 0 2.122l8.49 8.485-8.49 8.485a1.51 1.51 0 0 0 0 2.122 1.5 1.5 0 0 0 2.12 0zM843 430.5h170v-3H843z"/><path fill="#fff" stroke="#0055DC" stroke-width="2" d="M1014 58h151v256h-151z"/><path fill="#5E5E5E" d="M501 184.5a1.5 1.5 0 0 0 0 3zm509.06 2.561c.59-.586.59-1.536 0-2.122l-9.55-9.546a1.496 1.496 0 0 0-2.117 0 1.5 1.5 0 0 0 0 2.122l8.487 8.485-8.487 8.485a1.5 1.5 0 0 0 0 2.122 1.496 1.496 0 0 0 2.117 0zM501 187.5h508v-3H501zM367 256a1.5 1.5 0 0 0-3 0zm206.061 173.561a1.5 1.5 0 0 0 0-2.122l-9.546-9.546a1.5 1.5 0 0 0-2.122 0 1.5 1.5 0 0 0 0 2.122l8.486 8.485-8.486 8.485a1.5 1.5 0 0 0 0 2.122 1.5 1.5 0 0 0 2.122 0zM364 256v148.5h3V256zm25.5 174H572v-3H389.5zM364 404.5c0 14.083 11.417 25.5 25.5 25.5v-3c-12.426 0-22.5-10.074-22.5-22.5z"/><path fill="#0055DC" d="M1043.51 70.198H1040v18.05h3.51zm91.49 0h-3.51v18.05h3.51z"/><path fill="#fff" stroke="#0055DC" stroke-miterlimit="10" stroke-width="1.5" d="M1048.31 91.465v3.425l78.38-.004V91.46z"/><path fill="#C5EBF5" stroke="#0055DC" stroke-miterlimit="10" stroke-width="1.5" d="M1131.49 67h-87.98v24.462h87.98z"/><path fill="#fff" d="M1127.69 88.012V70.448h-80.38v17.564z"/><path fill="#0055DC" d="M1053.83 75.408h-1.95v1.902h1.95zm0 5.725h-1.95v1.903h1.95zm2.67-3.016h-1.95v1.902h1.95zm2.37-2.709h-1.95v1.902h1.95zm0 5.725h-1.95v1.903h1.95zm2.52-3.016h-1.95v1.902h1.95zm2.98-2.709h-1.95v1.902h1.95zm0 5.725h-1.95v1.903h1.95zm2.52-3.016h-1.95v1.902h1.95zm3.06-2.709h-1.94v1.902h1.94zm0 5.725h-1.94v1.903h1.94zm2.37-3.016h-1.94v1.902h1.94zm2.67-2.709h-1.95v1.902h1.95zm0 5.725h-1.95v1.903h1.95zm2.22-3.016h-1.94v1.902h1.94zm2.82-2.709h-1.95v1.902h1.95zm0 5.725h-1.95v1.903h1.95zm2.07-3.016h-1.94v1.902h1.94zm39.21 3.475c1.33 0 2.41-1.057 2.41-2.361s-1.08-2.362-2.41-2.362c-1.34 0-2.42 1.058-2.42 2.362s1.08 2.361 2.42 2.361"/><path stroke="#0055DC" stroke-miterlimit="10" stroke-width="1.5" d="M1114.35 79.23h-25.6"/><path fill="#0055DC" d="M1043.51 105.198H1040v18.05h3.51zm91.49 0h-3.51v18.05h3.51z"/><path fill="#fff" stroke="#0055DC" stroke-miterlimit="10" stroke-width="1.5" d="M1048.31 126.464v3.426l78.38-.004v-3.426z"/><path fill="#C5EBF5" stroke="#0055DC" stroke-miterlimit="10" stroke-width="1.5" d="M1131.49 102h-87.98v24.462h87.98z"/><path fill="#fff" d="M1127.69 123.012v-17.564h-80.38v17.564z"/><path fill="#0055DC" d="M1053.83 110.408h-1.95v1.902h1.95zm0 5.725h-1.95v1.903h1.95zm2.67-3.016h-1.95v1.902h1.95zm2.37-2.709h-1.95v1.902h1.95zm0 5.725h-1.95v1.903h1.95zm2.52-3.016h-1.95v1.902h1.95zm2.98-2.709h-1.95v1.902h1.95zm0 5.725h-1.95v1.903h1.95zm2.52-3.016h-1.95v1.902h1.95zm3.06-2.709h-1.94v1.902h1.94zm0 5.725h-1.94v1.903h1.94zm2.37-3.016h-1.94v1.902h1.94zm2.67-2.709h-1.95v1.902h1.95zm0 5.725h-1.95v1.903h1.95zm2.22-3.016h-1.94v1.902h1.94zm2.82-2.709h-1.95v1.902h1.95zm0 5.725h-1.95v1.903h1.95zm2.07-3.016h-1.94v1.902h1.94zm39.21 3.475c1.33 0 2.41-1.057 2.41-2.361s-1.08-2.362-2.41-2.362c-1.34 0-2.42 1.058-2.42 2.362s1.08 2.361 2.42 2.361"/><path stroke="#0055DC" stroke-miterlimit="10" stroke-width="1.5" d="M1114.35 114.231h-25.6"/><path fill="#0055DC" d="M1043.51 140.313H1040v18.697h3.51zm91.49 0h-3.51v18.697h3.51z"/><path fill="#fff" stroke="#0055DC" stroke-miterlimit="10" stroke-width="1.5" d="M1048.31 162.342v3.548l78.38-.004v-3.549z"/><path fill="#C5EBF5" stroke="#0055DC" stroke-miterlimit="10" stroke-width="1.5" d="M1131.49 137h-87.98v25.339h87.98z"/><path fill="#fff" d="M1127.69 158.766v-18.194h-80.38v18.194z"/><path fill="#0055DC" d="M1053.83 145.709h-1.95v1.971h1.95zm0 5.931h-1.95v1.971h1.95zm2.67-3.125h-1.95v1.971h1.95zm2.37-2.806h-1.95v1.971h1.95zm0 5.931h-1.95v1.971h1.95zm2.52-3.125h-1.95v1.971h1.95zm2.98-2.806h-1.95v1.971h1.95zm0 5.931h-1.95v1.971h1.95zm2.52-3.125h-1.95v1.971h1.95zm3.06-2.806h-1.94v1.971h1.94zm0 5.931h-1.94v1.971h1.94zm2.37-3.125h-1.94v1.971h1.94zm2.67-2.806h-1.95v1.971h1.95zm0 5.931h-1.95v1.971h1.95zm2.22-3.125h-1.94v1.971h1.94zm2.82-2.806h-1.95v1.971h1.95zm0 5.931h-1.95v1.971h1.95zm2.07-3.125h-1.94v1.971h1.94zm39.21 3.6c1.33 0 2.41-1.095 2.41-2.446s-1.08-2.446-2.41-2.446c-1.34 0-2.42 1.095-2.42 2.446s1.08 2.446 2.42 2.446"/><path stroke="#0055DC" stroke-miterlimit="10" stroke-width="1.5" d="M1114.35 149.669h-25.6"/><path fill="#0055DC" d="M1043.51 176.198H1040v18.05h3.51zm91.49 0h-3.51v18.05h3.51z"/><path fill="#fff" stroke="#0055DC" stroke-miterlimit="10" stroke-width="1.5" d="M1048.31 197.464v3.426l78.38-.004v-3.426z"/><path fill="#C5EBF5" stroke="#0055DC" stroke-miterlimit="10" stroke-width="1.5" d="M1131.49 173h-87.98v24.462h87.98z"/><path fill="#fff" d="M1127.69 194.012v-17.564h-80.38v17.564z"/><path fill="#0055DC" d="M1053.83 181.408h-1.95v1.902h1.95zm0 5.725h-1.95v1.903h1.95zm2.67-3.016h-1.95v1.902h1.95zm2.37-2.709h-1.95v1.902h1.95zm0 5.725h-1.95v1.903h1.95zm2.52-3.016h-1.95v1.902h1.95zm2.98-2.709h-1.95v1.902h1.95zm0 5.725h-1.95v1.903h1.95zm2.52-3.016h-1.95v1.902h1.95zm3.06-2.709h-1.94v1.902h1.94zm0 5.725h-1.94v1.903h1.94zm2.37-3.016h-1.94v1.902h1.94zm2.67-2.709h-1.95v1.902h1.95zm0 5.725h-1.95v1.903h1.95zm2.22-3.016h-1.94v1.902h1.94zm2.82-2.709h-1.95v1.902h1.95zm0 5.725h-1.95v1.903h1.95zm2.07-3.016h-1.94v1.902h1.94zm39.21 3.475c1.33 0 2.41-1.057 2.41-2.361s-1.08-2.362-2.41-2.362c-1.34 0-2.42 1.058-2.42 2.362s1.08 2.361 2.42 2.361"/><path stroke="#0055DC" stroke-miterlimit="10" stroke-width="1.5" d="M1114.35 185.231h-25.6"/><path fill="#0055DC" d="M1043.51 211.198H1040v18.05h3.51zm91.49 0h-3.51v18.05h3.51z"/><path fill="#fff" stroke="#0055DC" stroke-miterlimit="10" stroke-width="1.5" d="M1048.31 232.464v3.426l78.38-.004v-3.426z"/><path fill="#C5EBF5" stroke="#0055DC" stroke-miterlimit="10" stroke-width="1.5" d="M1131.49 208h-87.98v24.462h87.98z"/><path fill="#fff" d="M1127.69 229.012v-17.564h-80.38v17.564z"/><path fill="#0055DC" d="M1053.83 216.408h-1.95v1.902h1.95zm0 5.725h-1.95v1.903h1.95zm2.67-3.016h-1.95v1.902h1.95zm2.37-2.709h-1.95v1.902h1.95zm0 5.725h-1.95v1.903h1.95zm2.52-3.016h-1.95v1.902h1.95zm2.98-2.709h-1.95v1.902h1.95zm0 5.725h-1.95v1.903h1.95zm2.52-3.016h-1.95v1.902h1.95zm3.06-2.709h-1.94v1.902h1.94zm0 5.725h-1.94v1.903h1.94zm2.37-3.016h-1.94v1.902h1.94zm2.67-2.709h-1.95v1.902h1.95zm0 5.725h-1.95v1.903h1.95zm2.22-3.016h-1.94v1.902h1.94zm2.82-2.709h-1.95v1.902h1.95zm0 5.725h-1.95v1.903h1.95zm2.07-3.016h-1.94v1.902h1.94zm39.21 3.475c1.33 0 2.41-1.057 2.41-2.361s-1.08-2.362-2.41-2.362c-1.34 0-2.42 1.058-2.42 2.362s1.08 2.361 2.42 2.361"/><path stroke="#0055DC" stroke-miterlimit="10" stroke-width="1.5" d="M1114.35 220.231h-25.6"/><path fill="#0055DC" d="M1043.51 246.198H1040v18.05h3.51zm91.49 0h-3.51v18.05h3.51z"/><path fill="#fff" stroke="#0055DC" stroke-miterlimit="10" stroke-width="1.5" d="M1048.31 267.464v3.426l78.38-.004v-3.426z"/><path fill="#C5EBF5" stroke="#0055DC" stroke-miterlimit="10" stroke-width="1.5" d="M1131.49 243h-87.98v24.462h87.98z"/><path fill="#fff" d="M1127.69 264.012v-17.564h-80.38v17.564z"/><path fill="#0055DC" d="M1053.83 251.408h-1.95v1.902h1.95zm0 5.725h-1.95v1.903h1.95zm2.67-3.016h-1.95v1.902h1.95zm2.37-2.709h-1.95v1.902h1.95zm0 5.725h-1.95v1.903h1.95zm2.52-3.016h-1.95v1.902h1.95zm2.98-2.709h-1.95v1.902h1.95zm0 5.725h-1.95v1.903h1.95zm2.52-3.016h-1.95v1.902h1.95zm3.06-2.709h-1.94v1.902h1.94zm0 5.725h-1.94v1.903h1.94zm2.37-3.016h-1.94v1.902h1.94zm2.67-2.709h-1.95v1.902h1.95zm0 5.725h-1.95v1.903h1.95zm2.22-3.016h-1.94v1.902h1.94zm2.82-2.709h-1.95v1.902h1.95zm0 5.725h-1.95v1.903h1.95zm2.07-3.016h-1.94v1.902h1.94zm39.21 3.475c1.33 0 2.41-1.057 2.41-2.361s-1.08-2.362-2.41-2.362c-1.34 0-2.42 1.058-2.42 2.362s1.08 2.361 2.42 2.361"/><path stroke="#0055DC" stroke-miterlimit="10" stroke-width="1.5" d="M1114.35 255.231h-25.6"/><path fill="#0055DC" d="M1043.51 281.198H1040v18.05h3.51zm91.49 0h-3.51v18.05h3.51z"/><path fill="#fff" stroke="#0055DC" stroke-miterlimit="10" stroke-width="1.5" d="M1048.31 302.464v3.426l78.38-.004v-3.426z"/><path fill="#C5EBF5" stroke="#0055DC" stroke-miterlimit="10" stroke-width="1.5" d="M1131.49 278h-87.98v24.462h87.98z"/><path fill="#fff" d="M1127.69 299.012v-17.564h-80.38v17.564z"/><path fill="#0055DC" d="M1053.83 286.408h-1.95v1.902h1.95zm0 5.725h-1.95v1.903h1.95zm2.67-3.016h-1.95v1.902h1.95zm2.37-2.709h-1.95v1.902h1.95zm0 5.725h-1.95v1.903h1.95zm2.52-3.016h-1.95v1.902h1.95zm2.98-2.709h-1.95v1.902h1.95zm0 5.725h-1.95v1.903h1.95zm2.52-3.016h-1.95v1.902h1.95zm3.06-2.709h-1.94v1.902h1.94zm0 5.725h-1.94v1.903h1.94zm2.37-3.016h-1.94v1.902h1.94zm2.67-2.709h-1.95v1.902h1.95zm0 5.725h-1.95v1.903h1.95zm2.22-3.016h-1.94v1.902h1.94zm2.82-2.709h-1.95v1.902h1.95zm0 5.725h-1.95v1.903h1.95zm2.07-3.016h-1.94v1.902h1.94zm39.21 3.475c1.33 0 2.41-1.057 2.41-2.361s-1.08-2.362-2.41-2.362c-1.34 0-2.42 1.058-2.42 2.362s1.08 2.361 2.42 2.361"/><path stroke="#0055DC" stroke-miterlimit="10" stroke-width="1.5" d="M1114.35 290.231h-25.6"/></svg>