<svg xmlns="http://www.w3.org/2000/svg" width="1306" height="361" fill="none" viewBox="0 0 1306 361"><path fill="#fff" d="M0 0h1306v361H0z"/><path fill="#fff" stroke="#F6821F" stroke-width="2" d="M305 90.765h668v204H305z"/><path fill="#fff" stroke="#F6821F" stroke-width="2" d="M371 175.765h138v34H371z"/><path fill="#222" d="M428.765 197.765h-4.125v-11.637h4.159q1.755 0 3.023.699a4.7 4.7 0 0 1 1.948 1.994q.688 1.302.688 3.114 0 1.818-.688 3.125a4.7 4.7 0 0 1-1.96 2.006q-1.272.699-3.045.699m-1.665-2.108h1.562q1.091 0 1.836-.387.75-.391 1.125-1.21.38-.823.38-2.125 0-1.29-.38-2.108-.375-.818-1.12-1.204-.744-.387-1.835-.387H427.1zm18.737-9.529v11.637h-2.125l-5.062-7.324h-.085v7.324h-2.461v-11.637h2.159l5.023 7.318h.102v-7.318zm8.169 3.347q-.068-.688-.585-1.068t-1.403-.381q-.603 0-1.017.17-.415.165-.637.461-.215.295-.215.67a.96.96 0 0 0 .13.546q.148.232.404.403.255.165.591.29.335.12.715.204l1.046.25q.76.17 1.398.455.636.284 1.102.699.465.414.721.977.262.563.268 1.29-.006 1.068-.546 1.852-.534.778-1.545 1.21-1.006.426-2.427.426-1.409 0-2.454-.431-1.04-.432-1.625-1.279-.58-.852-.608-2.108h2.381q.04.585.335.978.301.386.801.585.506.193 1.142.193.625 0 1.085-.182.466-.182.722-.506.256-.323.256-.744a.97.97 0 0 0-.233-.659q-.227-.267-.671-.455a7 7 0 0 0-1.074-.34l-1.267-.319q-1.471-.357-2.324-1.119t-.846-2.051q-.005-1.057.562-1.847.574-.789 1.574-1.233 1-.443 2.273-.443 1.296 0 2.261.443.972.444 1.512 1.233.539.79.556 1.83z"/><path fill="#fff" d="M348 76.765h346v28H348z"/><path fill="#222" d="M388.878 84.42h-3.733a3.6 3.6 0 0 0-.418-1.286q-.315-.57-.809-.972a3.6 3.6 0 0 0-1.142-.613 4.4 4.4 0 0 0-1.39-.213q-1.355 0-2.36.673-1.007.664-1.56 1.943-.554 1.27-.554 3.085 0 1.867.554 3.137.563 1.269 1.568 1.917t2.327.648q.741 0 1.372-.196.639-.195 1.134-.571.494-.383.818-.929.332-.546.46-1.244l3.733.017a6.8 6.8 0 0 1-.725 2.318q-.57 1.108-1.542 1.986-.963.87-2.301 1.38-1.33.503-3.009.503-2.335 0-4.176-1.056-1.832-1.057-2.898-3.06-1.056-2.003-1.056-4.85 0-2.854 1.073-4.858 1.074-2.003 2.915-3.05 1.84-1.058 4.142-1.058 1.517 0 2.813.427a7.1 7.1 0 0 1 2.309 1.244 6.4 6.4 0 0 1 1.637 1.986q.64 1.175.818 2.693m5.753-6.11v17.455H391V78.31zm8.367 17.71q-1.986 0-3.435-.843a5.77 5.77 0 0 1-2.224-2.37q-.784-1.525-.784-3.537 0-2.028.784-3.545a5.7 5.7 0 0 1 2.224-2.37q1.449-.852 3.435-.852t3.426.853a5.7 5.7 0 0 1 2.233 2.369q.784 1.517.784 3.545 0 2.011-.784 3.537a5.76 5.76 0 0 1-2.233 2.37q-1.44.843-3.426.843m.017-2.812q.903 0 1.508-.511.606-.52.912-1.415.316-.895.316-2.037t-.316-2.037q-.306-.895-.912-1.415-.605-.52-1.508-.52-.912 0-1.534.52-.614.52-.929 1.415-.307.894-.307 2.037 0 1.141.307 2.037.315.894.929 1.415.622.51 1.534.51m16.726-3.017v-7.517h3.63v13.09h-3.485v-2.377h-.137a3.86 3.86 0 0 1-1.474 1.85q-1.023.698-2.497.698-1.312 0-2.31-.597-.998-.596-1.56-1.695-.553-1.1-.562-2.634v-8.335h3.631v7.687q.008 1.16.622 1.833.613.672 1.645.673.655 0 1.227-.298.571-.307.92-.904.358-.597.35-1.474m10.902 5.787a4.94 4.94 0 0 1-2.701-.767q-1.202-.776-1.909-2.276-.699-1.509-.699-3.699 0-2.25.724-3.741.725-1.5 1.926-2.242 1.21-.75 2.651-.75 1.1 0 1.832.375.742.367 1.193.92.46.546.699 1.075h.111V78.31h3.622v17.455h-3.579v-2.097h-.154q-.255.546-.724 1.082-.46.529-1.202.878-.732.35-1.79.35m1.151-2.89q.877 0 1.483-.477.613-.485.937-1.355.333-.87.333-2.037t-.324-2.028q-.324-.86-.938-1.33-.613-.468-1.491-.469-.895 0-1.509.486t-.929 1.347-.315 1.994q0 1.143.315 2.02.324.87.929 1.364.614.486 1.509.486m15.867-10.414V85.4h-8.079v-2.727zm-6.23 13.09V81.729q0-1.424.554-2.361a3.56 3.56 0 0 1 1.534-1.406q.972-.47 2.207-.47.836 0 1.526.129.7.128 1.04.23l-.648 2.727a5 5 0 0 0-.528-.128 3.3 3.3 0 0 0-.631-.06q-.8 0-1.117.376-.315.367-.315 1.03v13.97zm11.623-17.454v17.455h-3.631V78.31zm6.185 17.702q-1.252 0-2.233-.435a3.6 3.6 0 0 1-1.551-1.304q-.562-.87-.562-2.165 0-1.09.4-1.832a3.25 3.25 0 0 1 1.091-1.193 5.3 5.3 0 0 1 1.568-.682q.886-.23 1.858-.324a47 47 0 0 0 1.841-.221q.699-.111 1.014-.324t.316-.631v-.051q0-.81-.512-1.253-.502-.443-1.432-.443-.98 0-1.559.434a2 2 0 0 0-.767 1.074l-3.358-.272a4.56 4.56 0 0 1 1.005-2.063q.75-.878 1.935-1.346 1.193-.478 2.762-.478 1.09 0 2.088.256 1.005.255 1.781.793.784.536 1.236 1.38.451.836.451 2.003v8.83h-3.443V93.95h-.102q-.316.614-.844 1.083a3.9 3.9 0 0 1-1.27.724q-.741.255-1.713.256m1.04-2.506q.801 0 1.415-.315.613-.324.963-.87.35-.545.349-1.235v-1.39q-.17.11-.469.205-.289.085-.656.162-.366.068-.733.128l-.665.093a4.5 4.5 0 0 0-1.116.299 1.8 1.8 0 0 0-.741.554q-.265.34-.265.852 0 .741.537 1.134.546.383 1.381.383m8.693 2.259V82.674h3.52v2.284h.136q.359-1.219 1.202-1.841a3.16 3.16 0 0 1 1.943-.63q.273 0 .588.033.316.034.554.094v3.222a5 5 0 0 0-.707-.137 6 6 0 0 0-.827-.06q-.8 0-1.432.35a2.6 2.6 0 0 0-.988.955q-.358.613-.358 1.414v7.407zm14.721.255q-2.02 0-3.477-.818a5.6 5.6 0 0 1-2.233-2.335q-.784-1.517-.784-3.588 0-2.02.784-3.546a5.8 5.8 0 0 1 2.207-2.377q1.432-.853 3.358-.853 1.296 0 2.412.418 1.125.41 1.96 1.236.844.825 1.313 2.08.468 1.243.468 2.914v.997h-11.054v-2.25h7.637q0-.785-.341-1.389a2.44 2.44 0 0 0-.946-.946q-.597-.35-1.389-.35-.827 0-1.466.384-.631.375-.989 1.014-.358.631-.366 1.406v2.14q0 .97.358 1.679.366.707 1.031 1.09t1.577.384q.604 0 1.108-.17.503-.17.86-.512a2.2 2.2 0 0 0 .546-.835l3.358.222a4.6 4.6 0 0 1-1.049 2.113q-.783.895-2.028 1.398-1.236.495-2.855.494m24.662-12.068a3.8 3.8 0 0 0-.502-1.1 3.1 3.1 0 0 0-.793-.818 3.4 3.4 0 0 0-1.057-.52 4.5 4.5 0 0 0-1.304-.178q-1.338 0-2.352.664-1.005.665-1.568 1.935-.563 1.262-.563 3.085 0 1.824.554 3.103.555 1.278 1.568 1.951 1.015.665 2.395.665 1.254 0 2.14-.443a3.2 3.2 0 0 0 1.363-1.27q.477-.818.477-1.935l.75.111h-4.5v-2.778h7.304v2.199q0 2.301-.971 3.954a6.63 6.63 0 0 1-2.676 2.54q-1.705.885-3.904.886-2.455 0-4.312-1.082-1.858-1.091-2.898-3.094-1.03-2.01-1.031-4.773 0-2.121.613-3.784.623-1.67 1.739-2.83a7.5 7.5 0 0 1 2.6-1.763q1.482-.606 3.213-.606 1.482 0 2.761.435a7.4 7.4 0 0 1 2.267 1.21 6.6 6.6 0 0 1 1.628 1.867q.63 1.073.809 2.37zm9.791-5.642v17.455h-3.631V78.31zm8.367 17.71q-1.986 0-3.435-.843a5.8 5.8 0 0 1-2.224-2.37q-.784-1.525-.784-3.537 0-2.028.784-3.545a5.7 5.7 0 0 1 2.224-2.37q1.449-.852 3.435-.852t3.426.853a5.7 5.7 0 0 1 2.233 2.369q.784 1.517.784 3.545 0 2.011-.784 3.537a5.76 5.76 0 0 1-2.233 2.37q-1.44.843-3.426.843m.017-2.812q.903 0 1.509-.511.604-.52.912-1.415.315-.895.315-2.037t-.315-2.037q-.308-.895-.912-1.415-.606-.52-1.509-.52-.912 0-1.534.52-.614.52-.929 1.415-.306.894-.307 2.037 0 1.141.307 2.037.315.894.929 1.415.622.51 1.534.51m8.399 2.557V78.31h3.631v6.563h.111q.239-.529.69-1.074.46-.555 1.193-.92.742-.376 1.841-.376 1.432 0 2.642.75 1.21.742 1.935 2.242.724 1.491.724 3.741 0 2.19-.707 3.7-.699 1.5-1.909 2.275-1.202.767-2.693.767-1.057 0-1.799-.35a3.7 3.7 0 0 1-1.201-.878 4.5 4.5 0 0 1-.716-1.082h-.162v2.097zm3.554-6.546q0 1.168.324 2.037.324.87.938 1.355.614.477 1.491.477.886 0 1.5-.485.614-.494.929-1.364.324-.877.324-2.02 0-1.133-.315-1.994-.316-.861-.929-1.347-.614-.486-1.509-.486-.886 0-1.5.47-.605.468-.929 1.329t-.324 2.028m14.913 6.793q-1.253 0-2.233-.435a3.6 3.6 0 0 1-1.551-1.304q-.563-.87-.563-2.165 0-1.09.401-1.832a3.25 3.25 0 0 1 1.091-1.193 5.3 5.3 0 0 1 1.568-.682q.886-.23 1.858-.324a47 47 0 0 0 1.841-.221q.699-.111 1.014-.324t.315-.631v-.051q0-.81-.511-1.253-.503-.443-1.432-.443-.98 0-1.56.434a2 2 0 0 0-.767 1.074l-3.358-.272a4.6 4.6 0 0 1 1.006-2.063q.75-.878 1.935-1.346 1.193-.478 2.761-.478 1.09 0 2.088.256 1.006.255 1.782.793.783.536 1.235 1.38.452.836.452 2.003v8.83h-3.443v-1.816h-.102q-.316.614-.844 1.083a3.9 3.9 0 0 1-1.27.724q-.741.255-1.713.256m1.04-2.506q.8 0 1.414-.315a2.5 2.5 0 0 0 .963-.87q.35-.545.35-1.235v-1.39q-.17.11-.469.205a9 9 0 0 1-.656.162q-.367.068-.733.128l-.665.093a4.5 4.5 0 0 0-1.116.299 1.8 1.8 0 0 0-.742.554q-.264.34-.264.852 0 .741.537 1.134.546.383 1.381.383m12.323-15.196v17.455h-3.63V78.31zm22.219 0v17.455h-3.187l-7.594-10.986h-.128v10.986h-3.69V78.31h3.238l7.534 10.977h.154V78.31zm8.491 17.71q-2.02 0-3.477-.818a5.6 5.6 0 0 1-2.233-2.335q-.784-1.517-.784-3.588 0-2.02.784-3.546a5.8 5.8 0 0 1 2.207-2.377q1.432-.853 3.358-.853 1.296 0 2.412.418 1.125.41 1.96 1.236.844.825 1.313 2.08.468 1.243.468 2.914v.997h-11.054v-2.25h7.637q0-.785-.341-1.389a2.44 2.44 0 0 0-.946-.946q-.597-.35-1.389-.35-.827 0-1.466.384-.631.375-.989 1.014-.359.631-.366 1.406v2.14q0 .97.358 1.679.366.707 1.031 1.09t1.577.384q.605 0 1.107-.17.504-.17.861-.512a2.2 2.2 0 0 0 .546-.835l3.358.222a4.6 4.6 0 0 1-1.049 2.113q-.783.895-2.028 1.398-1.236.495-2.855.494m14.885-13.346V85.4h-7.884v-2.727zm-6.094-3.137h3.631v12.205q0 .502.153.784.153.273.426.383.282.111.648.111.255 0 .511-.042l.392-.077.571 2.702q-.272.084-.767.196-.494.12-1.201.145-1.312.05-2.301-.35a3.2 3.2 0 0 1-1.526-1.244q-.546-.844-.537-2.13zm10.585 16.228-3.562-13.091h3.673l2.028 8.795h.12l2.113-8.795h3.605l2.148 8.744h.111l1.994-8.744h3.665l-3.554 13.09h-3.844l-2.25-8.232h-.162l-2.25 8.233zm22.963.255q-1.986 0-3.435-.843a5.8 5.8 0 0 1-2.225-2.37q-.784-1.525-.784-3.537 0-2.028.784-3.545a5.7 5.7 0 0 1 2.225-2.37q1.449-.852 3.435-.852t3.426.853a5.7 5.7 0 0 1 2.233 2.369q.784 1.517.784 3.545 0 2.011-.784 3.537a5.76 5.76 0 0 1-2.233 2.37q-1.442.843-3.426.843m.017-2.812q.903 0 1.508-.511.605-.52.912-1.415.315-.895.315-2.037t-.315-2.037q-.307-.895-.912-1.415t-1.508-.52q-.912 0-1.535.52-.613.52-.928 1.415-.307.894-.307 2.037 0 1.141.307 2.037.315.894.928 1.415.623.51 1.535.51m8.331 2.557v-13.09h3.519v2.284h.137q.358-1.219 1.201-1.841a3.16 3.16 0 0 1 1.944-.63q.272 0 .588.033.315.034.554.094v3.222a5 5 0 0 0-.708-.137 6 6 0 0 0-.826-.06q-.801 0-1.432.35a2.57 2.57 0 0 0-.989.955q-.358.613-.358 1.414v7.407zm12.654-3.767.008-4.356h.529l4.193-4.968h4.167l-5.633 6.58h-.861zm-3.29 3.767V78.31h3.631v17.455zm8.182 0-3.853-5.702 2.421-2.565 5.685 8.267z"/><path fill="#C5EBF5" fill-rule="evenodd" stroke="#0055DC" stroke-miterlimit="10" stroke-width="1.5" d="M118.242 159.765H30.397c-2.327 0-4.41 1.96-4.41 4.41v57.705h96.665v-57.705c0-2.45-2.083-4.41-4.41-4.41Z" clip-rule="evenodd"/><path fill="#0055DC" d="M74.258 164.053a.735.735 0 1 0 0-1.47.735.735 0 0 0 0 1.47"/><path fill="#fff" d="M126.45 226.291H22.066c-5.39 0-9.066-.858-9.066-1.593v-2.45c0-.245.245-.49.49-.49h121.414c.245 0 .49.245.49.49v2.45c.122.735-2.696 1.593-8.944 1.593"/><path stroke="#0055DC" stroke-miterlimit="10" stroke-width="1.5" d="M126.45 226.291H22.066c-5.39 0-9.066-.858-9.066-1.593v-2.45c0-.245.245-.49.49-.49h121.414c.245 0 .49.245.49.49v2.45c.122.735-2.696 1.593-8.944 1.593Z" clip-rule="evenodd"/><path fill="#C5EBF5" d="M135.516 222.248c0-.245-.245-.49-.49-.49H13.612c-.245 0-.49.245-.49.49v2.328h122.516v-2.328z"/><path stroke="#0055DC" stroke-miterlimit="10" stroke-width="1.5" d="M126.45 226.291H22.066c-5.39 0-9.066-.858-9.066-1.593v-2.45c0-.245.245-.49.49-.49h121.414c.245 0 .49.245.49.49v2.45c.122.735-2.696 1.593-8.944 1.593Z"/><path fill="#fff" d="M118.609 166.626H29.907v51.701h88.702z"/><path fill="#0055DC" fill-rule="evenodd" d="M87.612 222.003v.49c0 .368-.735.49-1.347.49H62.374c-.613 0-1.348-.122-1.348-.49v-.49" clip-rule="evenodd"/><path fill="#fff" stroke="#0055DC" stroke-miterlimit="10" stroke-width="1.5" d="M74.302 213.67c12.388 0 22.43-10.042 22.43-22.43s-10.042-22.43-22.43-22.43-22.43 10.042-22.43 22.43 10.042 22.43 22.43 22.43Z"/><path fill="#003682" d="M73.385 182.825a1 1 0 0 1 1.674 0l.317.486a1 1 0 0 0 1.42.265l.47-.336a1 1 0 0 1 1.56.604l.123.574a1 1 0 0 0 1.226.76l.562-.145a1 1 0 0 1 1.236 1.126l-.093.588a1 1 0 0 0 .868 1.149l.583.07a1 1 0 0 1 .745 1.495l-.3.518a1 1 0 0 0 .393 1.384l.525.28a1 1 0 0 1 .154 1.663l-.466.374a1 1 0 0 0-.133 1.432l.39.454a1 1 0 0 1-.457 1.606l-.564.178a1 1 0 0 0-.641 1.288l.2.564a1 1 0 0 1-1.008 1.332l-.582-.038a1 1 0 0 0-1.065.971l-.016.592a1 1 0 0 1-1.423.879l-.523-.245a1 1 0 0 0-1.346.522l-.225.539a1 1 0 0 1-1.645.307l-.4-.418a1 1 0 0 0-1.444 0l-.4.418a1 1 0 0 1-1.645-.307l-.225-.539a1 1 0 0 0-1.346-.522l-.524.245a1 1 0 0 1-1.422-.879l-.016-.592a1 1 0 0 0-1.065-.971l-.582.038a1 1 0 0 1-1.008-1.332l.2-.564a1 1 0 0 0-.642-1.288l-.564-.178a1 1 0 0 1-.457-1.606l.39-.454a1 1 0 0 0-.132-1.432l-.466-.374a1 1 0 0 1 .154-1.663l.524-.28a1 1 0 0 0 .394-1.384l-.3-.518a1 1 0 0 1 .745-1.495l.583-.07a1 1 0 0 0 .868-1.149l-.093-.588a1 1 0 0 1 1.236-1.126l.562.145a1 1 0 0 0 1.226-.76l.123-.574a1 1 0 0 1 1.56-.604l.47.336a1 1 0 0 0 1.42-.265z"/><path fill="#C5EBF5" stroke="#003682" stroke-miterlimit="10" stroke-width="1.5" d="M67.225 202.925a15.8 15.8 0 0 0 3.22-2.343v-5.921l7.798.093v5.568c.356.692 1.7 1.542 3.494 2.549 0 0-3.337 4.977-7.528 4.977-4.192 0-6.984-4.923-6.984-4.923Z"/><path fill="#0055DC" stroke="#003682" stroke-miterlimit="10" stroke-width="1.5" d="M74.303 213.67a22.35 22.35 0 0 0 15.06-5.807 34.8 34.8 0 0 0-7.583-4.953s-3.38 4.938-7.57 4.938c-4.192 0-7.007-4.875-7.007-4.875-2.573 1.45-5.729 2.816-8.094 4.763a22.35 22.35 0 0 0 15.194 5.934Z"/><path fill="#C5EBF5" stroke="#003682" stroke-miterlimit="10" stroke-width="1.5" d="M81.74 187.178a1.25 1.25 0 0 1 .615-.786c.152-.082.319-.13.49-.143.171-.014.344.009.506.066.975.295.427 3.834-2.298 3.709q.423-1.403.686-2.846Zm-14.877.001a1.275 1.275 0 0 0-1.665-.863c-.85.345-.427 3.834 2.3 3.708a22.5 22.5 0 0 1-.635-2.845Z"/><path fill="#C5EBF5" stroke="#003682" stroke-miterlimit="10" stroke-width="1.5" d="M82.092 183.929c0 2.021-.74 6.14-2.04 8.626-.965 1.845-3.452 3.9-5.712 3.9s-4.491-2.055-5.712-3.9c-1.548-2.34-2.04-6.605-2.04-8.626a7.753 7.753 0 0 1 15.504 0Z"/><path fill="#003682" stroke="#003682" stroke-linejoin="round" stroke-width="1.5" d="M81.693 186.474c-.363-3.08-3.351-7.181-6.688-7.181l-.551-2.554 1.033 2.582c0 5.584-8.279 4.092-8.624 7.782l-.133-.133a22.4 22.4 0 0 1-.274-3.25c0-4.281 3.603-7.62 7.885-7.62a7.865 7.865 0 0 1 7.885 7.754 16 16 0 0 1-.436 3.156z"/><path stroke="#0055DC" stroke-miterlimit="10" stroke-width="1.5" d="M74.302 213.67c12.388 0 22.43-10.042 22.43-22.43s-10.042-22.43-22.43-22.43-22.43 10.042-22.43 22.43 10.042 22.43 22.43 22.43Z"/><path fill="#222" d="M36.526 233.037v8.728H34.68v-8.728zm3.299 4.944v3.784H38.01v-6.546h1.73v1.155h.076q.217-.571.73-.903.51-.337 1.24-.337.681 0 1.188.298t.788.853q.282.55.282 1.312v4.168h-1.816v-3.844q.004-.601-.306-.938-.312-.34-.857-.341-.366 0-.648.158-.277.158-.434.46a1.6 1.6 0 0 0-.158.721m9.131-2.762v1.364h-3.942v-1.364zm-3.047-1.568h1.815v6.102q0 .252.077.392a.42.42 0 0 0 .213.192.9.9 0 0 0 .324.055q.127 0 .256-.021l.196-.038.285 1.351q-.136.042-.383.098a3 3 0 0 1-.601.072q-.657.026-1.15-.175a1.6 1.6 0 0 1-.763-.622q-.273-.422-.269-1.065zm7.142 8.241q-1.01 0-1.739-.409a2.8 2.8 0 0 1-1.116-1.167q-.392-.759-.392-1.794 0-1.01.392-1.773t1.104-1.189q.716-.426 1.679-.426.647 0 1.206.209.562.204.98.618.422.413.656 1.039.234.623.234 1.458v.498h-5.527v-1.125h3.819a1.4 1.4 0 0 0-.17-.694 1.2 1.2 0 0 0-.474-.473 1.34 1.34 0 0 0-.695-.175q-.413 0-.732.192-.315.188-.495.507-.18.315-.183.703v1.07q0 .486.179.839.183.354.516.546.332.19.788.191.302 0 .554-.085t.43-.256q.18-.17.273-.417l1.679.111a2.3 2.3 0 0 1-.524 1.056q-.393.448-1.014.699-.618.247-1.428.247m4.19-.127v-6.546H59v1.142h.068q.18-.61.601-.92.421-.316.972-.316.136 0 .294.017t.277.047v1.611a2.5 2.5 0 0 0-.354-.068 3 3 0 0 0-.413-.03q-.4 0-.716.175a1.3 1.3 0 0 0-.495.477 1.4 1.4 0 0 0-.179.708v3.703zm6.725-3.784v3.784H62.15v-6.546h1.73v1.155h.077q.217-.571.729-.903.51-.337 1.24-.337.68 0 1.189.298.506.298.788.853.282.55.281 1.312v4.168H66.37v-3.844q.004-.601-.307-.938-.311-.34-.856-.341-.367 0-.648.158-.278.158-.435.46a1.6 1.6 0 0 0-.157.721m8.632 3.911q-1.01 0-1.739-.409a2.8 2.8 0 0 1-1.116-1.167q-.392-.759-.392-1.794 0-1.01.392-1.773t1.104-1.189q.716-.426 1.679-.426.647 0 1.206.209.561.204.98.618.421.413.656 1.039.234.623.234 1.458v.498h-5.527v-1.125h3.819a1.4 1.4 0 0 0-.171-.694 1.2 1.2 0 0 0-.473-.473 1.34 1.34 0 0 0-.695-.175q-.413 0-.733.192-.315.188-.494.507-.18.315-.183.703v1.07q0 .486.179.839.183.354.516.546.332.19.788.191.302 0 .554-.085.25-.085.43-.256t.273-.417l1.679.111a2.3 2.3 0 0 1-.524 1.056q-.393.448-1.014.699-.618.247-1.428.247m7.67-6.673v1.364h-3.941v-1.364zm-3.046-1.568h1.815v6.102q0 .252.077.392a.42.42 0 0 0 .213.192.9.9 0 0 0 .324.055q.127 0 .255-.021l.196-.038.286 1.351q-.136.042-.384.098a3 3 0 0 1-.6.072q-.657.026-1.151-.175a1.6 1.6 0 0 1-.763-.622q-.273-.422-.268-1.065zm12.431-.614h1.845v5.668q0 .954-.456 1.67-.451.717-1.265 1.117-.814.396-1.897.396-1.087 0-1.9-.396a3.05 3.05 0 0 1-1.266-1.117q-.452-.716-.452-1.67v-5.668h1.846v5.51q0 .499.217.887.222.387.622.609t.933.222q.538 0 .934-.222a1.56 1.56 0 0 0 .618-.609q.22-.388.221-.887zm8.775 4.049-1.662.102a.86.86 0 0 0-.183-.384 1 1 0 0 0-.37-.277 1.3 1.3 0 0 0-.542-.106q-.421 0-.712.179-.29.174-.29.469 0 .234.188.396t.644.26l1.184.239q.955.195 1.424.63t.468 1.142q0 .644-.379 1.13-.375.485-1.031.758-.652.268-1.504.268-1.3 0-2.071-.541a2.1 2.1 0 0 1-.9-1.483l1.786-.093a.92.92 0 0 0 .392.605q.31.204.797.204.477 0 .767-.183.294-.187.298-.482a.5.5 0 0 0-.209-.404q-.204-.162-.63-.248l-1.134-.225q-.959-.192-1.427-.665-.465-.473-.465-1.206 0-.631.341-1.087.346-.456.967-.703.627-.247 1.466-.247 1.24 0 1.952.524.716.524.835 1.428m4.275 4.806q-1.01 0-1.738-.409a2.8 2.8 0 0 1-1.117-1.167q-.392-.759-.392-1.794 0-1.01.392-1.773.393-.763 1.104-1.189.716-.426 1.679-.426.648 0 1.206.209.563.204.98.618.422.413.656 1.039.235.623.235 1.458v.498h-5.527v-1.125H104q0-.391-.171-.694a1.2 1.2 0 0 0-.473-.473 1.34 1.34 0 0 0-.694-.175q-.414 0-.733.192-.315.188-.494.507-.18.315-.184.703v1.07q0 .486.179.839.183.354.516.546.332.19.788.191.303 0 .554-.085t.431-.256q.179-.17.272-.417l1.679.111a2.3 2.3 0 0 1-.524 1.056 2.6 2.6 0 0 1-1.014.699q-.618.247-1.428.247m4.189-.127v-6.546h1.76v1.142h.069q.178-.61.6-.92.422-.316.972-.316.136 0 .294.017t.277.047v1.611a2.5 2.5 0 0 0-.354-.068q-.225-.03-.413-.03-.4 0-.716.175a1.3 1.3 0 0 0-.494.477q-.18.307-.179.708v3.703z"/><path fill="#0055DC" d="M1159.03 55.233h-18.92a7.1 7.1 0 0 1-5.02-2.087 7.08 7.08 0 0 1-2.09-5.023 7.3 7.3 0 0 1 .7-3.041 7.25 7.25 0 0 1 1.9-2.474 6.82 6.82 0 0 1 4.85-1.594 9.64 9.64 0 0 1 10.12-5.94 9.63 9.63 0 0 1 8.36 8.234 5.8 5.8 0 0 1 4 1.36 6 6 0 0 1 1.88 3.05 6 6 0 0 1-.18 3.578 6.07 6.07 0 0 1-2.19 2.84 6.03 6.03 0 0 1-3.41 1.096M1140 42.999a4.76 4.76 0 0 0-3.11 1.14 5.1 5.1 0 0 0-1.38 1.786c-.33.688-.5 1.438-.51 2.198 0 1.352.54 2.649 1.49 3.606a5.13 5.13 0 0 0 3.6 1.504h18.94a4 4 0 0 0 2.81-1.165 4 4 0 0 0 1.16-2.806c.01-.58-.11-1.153-.35-1.683a4 4 0 0 0-1.01-1.388 4.14 4.14 0 0 0-3.46-.808l-1.13.181-.03-1.14a7.6 7.6 0 0 0-1.96-4.89 7.63 7.63 0 0 0-9.79-1.331 7.6 7.6 0 0 0-3.19 4.19l-.26.843-.87-.153a5.5 5.5 0 0 0-.95-.084"/><path fill="#222" d="M1175.01 31V19.364h4.59c.88 0 1.64.168 2.26.505.62.334 1.09.798 1.42 1.392.33.591.49 1.273.49 2.046s-.16 1.454-.5 2.045a3.4 3.4 0 0 1-1.45 1.381c-.62.33-1.39.494-2.28.494h-2.93v-1.971h2.53q.72 0 1.17-.245c.31-.166.54-.395.7-.687.15-.296.23-.635.23-1.017 0-.386-.08-.724-.23-1.011a1.6 1.6 0 0 0-.7-.677c-.31-.163-.7-.244-1.18-.244h-1.66V31zm15.74-3.716v-5.011h2.42V31h-2.33v-1.585h-.09c-.2.511-.52.922-.98 1.233-.46.31-1.01.466-1.67.466-.58 0-1.09-.133-1.54-.398a2.76 2.76 0 0 1-1.04-1.13c-.24-.49-.37-1.075-.37-1.756v-5.557h2.42v5.125c0 .515.14.922.41 1.221.28.3.64.45 1.1.45.29 0 .57-.067.82-.2.25-.136.46-.337.61-.602q.24-.398.24-.983m4.22 3.716V19.364h2.42v4.375h.08c.1-.235.26-.474.46-.716.2-.247.47-.451.79-.614q.495-.25 1.23-.25c.64 0 1.22.167 1.76.5q.81.495 1.29 1.494.48.995.48 2.495c0 .973-.15 1.795-.47 2.466-.31.666-.73 1.172-1.27 1.517-.54.34-1.13.511-1.8.511q-.705 0-1.2-.233a2.6 2.6 0 0 1-.8-.585 3.2 3.2 0 0 1-.47-.722h-.11V31zm2.37-4.364c0 .52.07.972.22 1.358a2 2 0 0 0 .62.904c.27.212.61.318 1 .318s.72-.108 1-.324c.27-.22.48-.523.62-.909q.21-.586.21-1.347 0-.755-.21-1.33a2 2 0 0 0-.62-.897c-.27-.216-.61-.324-1-.324-.4 0-.73.104-1 .313-.27.208-.48.503-.62.886-.15.383-.22.833-.22 1.352m10-7.272V31h-2.42V19.364zM1209.11 31v-8.727h2.42V31zm1.21-9.852c-.36 0-.67-.12-.92-.358a1.15 1.15 0 0 1-.39-.87q0-.5.39-.858c.25-.242.56-.363.92-.363s.67.121.92.363q.39.36.39.858 0 .506-.39.87a1.3 1.3 0 0 1-.92.358m6.91 10.023c-.89 0-1.66-.19-2.3-.569a3.8 3.8 0 0 1-1.48-1.59q-.51-1.018-.51-2.341 0-1.342.51-2.353c.35-.678.85-1.206 1.49-1.585q.96-.574 2.28-.574c.76 0 1.43.138 2 .415a3.34 3.34 0 0 1 1.36 1.165c.33.5.52 1.087.55 1.761h-2.28c-.07-.436-.24-.786-.52-1.051-.27-.27-.63-.404-1.07-.404-.37 0-.7.103-.98.307-.28.201-.49.495-.65.881s-.23.854-.23 1.403c0 .557.07 1.03.22 1.42q.24.586.66.893c.28.204.61.307.98.307a1.54 1.54 0 0 0 1.3-.665c.14-.22.24-.483.29-.79h2.28c-.04.667-.22 1.254-.55 1.762-.32.503-.76.897-1.33 1.181s-1.24.427-2.02.427m-38.29 24c-.89 0-1.67-.182-2.32-.546a3.7 3.7 0 0 1-1.48-1.557c-.35-.674-.53-1.471-.53-2.392 0-.898.18-1.686.53-2.364.34-.677.84-1.206 1.47-1.585.63-.378 1.38-.568 2.24-.568.57 0 1.11.093 1.6.279.5.181.94.456 1.31.823.38.368.67.83.88 1.387.2.553.31 1.2.31 1.943v.665h-7.37v-1.5h5.09c0-.349-.08-.657-.23-.926a1.6 1.6 0 0 0-.63-.631 1.77 1.77 0 0 0-.92-.233c-.37 0-.7.085-.98.256q-.42.25-.66.676-.24.42-.24.937v1.426c0 .432.08.805.23 1.12q.255.47.69.727.45.255 1.05.256c.27 0 .52-.038.74-.114.23-.076.42-.19.58-.34.15-.152.28-.338.36-.558l2.24.148a3.14 3.14 0 0 1-.7 1.41q-.525.595-1.35.93c-.55.22-1.19.33-1.91.33m7.83-5.216V55h-2.42v-8.727h2.31v1.54h.1c.19-.508.52-.91.97-1.205.46-.3 1.01-.449 1.66-.449.6 0 1.13.133 1.58.398q.675.398 1.05 1.136c.25.489.38 1.072.38 1.75V55h-2.42v-5.125c0-.534-.14-.95-.41-1.25q-.42-.455-1.14-.455-.495 0-.87.21c-.24.14-.44.345-.58.614q-.195.399-.21.96m10.58 5.187c-.67 0-1.27-.17-1.81-.511-.53-.345-.95-.85-1.27-1.517-.31-.67-.46-1.493-.46-2.466q0-1.5.48-2.495c.32-.666.75-1.164 1.28-1.494q.81-.5 1.77-.5c.49 0 .9.083 1.22.25.33.163.6.367.8.614.2.242.36.48.46.716h.08v-4.375h2.41V55h-2.39v-1.398h-.1q-.165.364-.48.722c-.2.235-.47.43-.8.585s-.72.233-1.19.233m.76-1.926q.585 0 .99-.318.405-.324.63-.904c.14-.386.22-.839.22-1.358s-.07-.97-.22-1.352c-.14-.383-.35-.678-.62-.886a1.62 1.62 0 0 0-1-.313c-.4 0-.73.108-1 .324-.28.216-.48.515-.62.898q-.21.573-.21 1.33 0 .76.21 1.346c.14.386.35.69.62.909.27.216.6.324 1 .324m6.02 5.057v-12h2.38v1.466h.11c.11-.235.26-.474.46-.716.2-.247.47-.451.8-.614.32-.167.73-.25 1.22-.25.64 0 1.23.167 1.76.5q.81.495 1.29 1.494c.33.663.49 1.495.49 2.495 0 .973-.16 1.795-.47 2.466-.32.666-.74 1.172-1.28 1.517-.53.34-1.13.511-1.79.511q-.705 0-1.2-.233a2.4 2.4 0 0 1-.8-.585q-.315-.359-.48-.722h-.07v4.67zm2.36-7.637c0 .52.08.972.22 1.358q.21.58.63.904.405.318.99.318c.39 0 .73-.108 1-.324.27-.22.48-.523.62-.909.14-.39.22-.84.22-1.347 0-.503-.07-.947-.22-1.33-.14-.382-.34-.681-.61-.897-.28-.216-.61-.324-1.01-.324-.39 0-.73.104-1 .313-.27.208-.48.503-.62.886s-.22.833-.22 1.352m11.53 4.534c-.88 0-1.65-.187-2.29-.562a3.9 3.9 0 0 1-1.49-1.58c-.34-.678-.52-1.464-.52-2.358 0-.901.18-1.689.52-2.363a3.83 3.83 0 0 1 1.49-1.58c.64-.378 1.41-.568 2.29-.568q1.32 0 2.28.568a3.77 3.77 0 0 1 1.49 1.58c.35.674.52 1.462.52 2.363 0 .894-.17 1.68-.52 2.358a3.8 3.8 0 0 1-1.49 1.58q-.96.563-2.28.563m.01-1.875c.4 0 .74-.113 1-.34.27-.231.48-.546.61-.944q.21-.596.21-1.358 0-.76-.21-1.358a2.06 2.06 0 0 0-.61-.943c-.26-.23-.6-.346-1-.346q-.615 0-1.02.346c-.28.231-.48.546-.62.944q-.21.596-.21 1.357t.21 1.358c.14.398.34.712.62.944q.405.34 1.02.34m5.68 1.705v-8.727h2.42V55zm1.22-9.852q-.54 0-.93-.358a1.174 1.174 0 0 1 0-1.727q.39-.364.93-.364c.36 0 .66.121.92.364a1.174 1.174 0 0 1 0 1.727c-.26.238-.56.358-.92.358m5.38 4.807V55h-2.42v-8.727h2.31v1.54h.1c.2-.508.52-.91.97-1.205.46-.3 1.01-.449 1.66-.449.6 0 1.13.133 1.58.398q.675.398 1.05 1.136c.25.489.38 1.072.38 1.75V55h-2.42v-5.125c0-.534-.13-.95-.41-1.25q-.42-.455-1.14-.455-.495 0-.87.21c-.24.14-.43.345-.58.614q-.195.399-.21.96m12-3.682v1.818h-5.25v-1.818zm-4.06-2.091h2.42v8.136c0 .224.04.398.1.523.07.121.17.206.29.256.12.049.27.073.43.073.11 0 .23-.009.34-.028.11-.023.2-.04.26-.051l.38 1.801q-.18.057-.51.13a4 4 0 0 1-.8.097q-.87.034-1.53-.233a2.1 2.1 0 0 1-1.02-.83q-.36-.561-.36-1.42zm12.62 4.58-2.22.136q-.06-.284-.24-.512a1.3 1.3 0 0 0-.5-.369 1.7 1.7 0 0 0-.72-.142c-.37 0-.69.08-.95.239q-.39.232-.39.625c0 .208.09.384.25.528.17.144.46.26.86.347l1.58.318c.85.174 1.48.454 1.9.84q.63.58.63 1.523 0 .858-.51 1.506-.495.649-1.38 1.011c-.58.24-1.24.358-2 .358q-1.74 0-2.76-.721a2.83 2.83 0 0 1-1.2-1.977l2.38-.125c.07.352.25.62.52.806.28.182.63.273 1.06.273s.77-.081 1.03-.244q.39-.25.39-.642 0-.33-.27-.54-.285-.216-.84-.33l-1.52-.3c-.85-.171-1.48-.467-1.9-.887-.41-.42-.62-.956-.62-1.608 0-.56.15-1.044.46-1.449q.45-.608 1.29-.937.825-.33 1.95-.33c1.1 0 1.97.233 2.6.699.64.466 1.01 1.1 1.12 1.903M596.032 287.765v-11.637h4.591q1.323 0 2.256.506a3.4 3.4 0 0 1 1.42 1.392q.495.887.494 2.045 0 1.16-.5 2.046a3.45 3.45 0 0 1-1.449 1.381q-.942.494-2.284.494h-2.926v-1.972h2.529q.71 0 1.17-.244.467-.25.693-.687a2.15 2.15 0 0 0 .233-1.018 2.1 2.1 0 0 0-.233-1.011 1.55 1.55 0 0 0-.693-.676q-.465-.244-1.182-.244h-1.659v9.625zm15.735-3.716v-5.012h2.42v8.728h-2.324v-1.586h-.091a2.57 2.57 0 0 1-.983 1.233q-.681.466-1.665.466-.875 0-1.539-.397a2.74 2.74 0 0 1-1.04-1.131q-.369-.733-.375-1.756v-5.557h2.42v5.125q.006.774.415 1.222.409.449 1.097.449.437 0 .818-.199.38-.204.614-.602.238-.398.233-.983m4.226 3.716v-11.637h2.42v4.375h.074a3.2 3.2 0 0 1 .46-.716q.307-.369.796-.613.493-.25 1.227-.25.954 0 1.761.5.807.494 1.29 1.494.483.994.483 2.494 0 1.461-.472 2.466-.466 1-1.272 1.517a3.27 3.27 0 0 1-1.796.512q-.705 0-1.199-.233a2.5 2.5 0 0 1-.801-.585 3 3 0 0 1-.477-.722h-.108v1.398zm2.369-4.364q0 .779.216 1.358t.625.903q.409.318.994.319.59 0 1-.324.41-.33.619-.909a3.9 3.9 0 0 0 .216-1.347q0-.756-.21-1.33-.21-.573-.619-.897t-1.006-.324q-.59 0-1 .312-.403.313-.619.887-.216.573-.216 1.352m10.001-7.273v11.637h-2.42v-11.637zm1.763 11.637v-8.728h2.421v8.728zm1.216-9.853q-.54 0-.926-.358a1.16 1.16 0 0 1-.381-.869q0-.5.381-.858.387-.363.926-.363.54 0 .921.363.386.358.386.858 0 .506-.386.869a1.3 1.3 0 0 1-.921.358m6.911 10.023q-1.341 0-2.307-.568a3.84 3.84 0 0 1-1.477-1.591q-.512-1.017-.512-2.341 0-1.341.517-2.352a3.84 3.84 0 0 1 1.483-1.585q.961-.574 2.284-.574 1.143 0 2 .415a3.34 3.34 0 0 1 1.358 1.164q.5.75.552 1.762h-2.285q-.096-.654-.511-1.051-.41-.404-1.074-.404-.562 0-.983.307-.414.301-.647.881t-.233 1.403q0 .835.227 1.42.233.586.653.893.421.306.983.306.415 0 .745-.17a1.45 1.45 0 0 0 .551-.494q.221-.33.289-.79h2.285q-.057 1-.546 1.761a3.3 3.3 0 0 1-1.335 1.182q-.852.426-2.017.426m12.776 0q-1.347 0-2.318-.545a3.74 3.74 0 0 1-1.489-1.557q-.523-1.012-.523-2.392 0-1.347.523-2.364a3.86 3.86 0 0 1 1.471-1.585q.955-.568 2.239-.568.864 0 1.608.278.75.273 1.307.824.563.551.875 1.386.312.83.312 1.944v.664h-7.369v-1.5h5.091a1.86 1.86 0 0 0-.227-.926 1.63 1.63 0 0 0-.631-.63 1.8 1.8 0 0 0-.926-.233q-.552 0-.977.255a1.8 1.8 0 0 0-.659.676q-.24.421-.245.938v1.426q0 .648.239 1.119.245.472.687.728.444.255 1.051.255.404 0 .739-.113.336-.114.574-.341t.364-.557l2.238.148a3.05 3.05 0 0 1-.699 1.409q-.522.596-1.352.932-.824.329-1.903.329m8.625-.028a3.3 3.3 0 0 1-1.801-.512q-.801-.516-1.273-1.517-.466-1.005-.466-2.466 0-1.5.483-2.494.483-1 1.284-1.494a3.3 3.3 0 0 1 1.767-.5q.733 0 1.222.25.494.244.795.613a3 3 0 0 1 .466.716h.074v-4.375h2.415v11.637h-2.387v-1.398h-.102a3.2 3.2 0 0 1-.483.722 2.4 2.4 0 0 1-.801.585q-.488.233-1.193.233m.767-1.926q.585 0 .989-.319.409-.324.625-.903.22-.58.221-1.358 0-.779-.216-1.352t-.625-.887q-.41-.312-.994-.312-.597 0-1.006.324t-.619.897-.21 1.33q0 .761.21 1.347.216.579.619.909.41.324 1.006.324m9.945 5.238q-1.177 0-2.017-.324-.835-.318-1.33-.869a2.66 2.66 0 0 1-.642-1.239l2.239-.301a1.48 1.48 0 0 0 .909.853q.369.142.897.142.79 0 1.302-.387.517-.381.517-1.278v-1.597h-.103a2.3 2.3 0 0 1-.477.688 2.4 2.4 0 0 1-.818.528q-.5.204-1.193.205a3.6 3.6 0 0 1-1.79-.455q-.801-.46-1.278-1.403-.472-.95-.472-2.398 0-1.483.483-2.477t1.284-1.489a3.3 3.3 0 0 1 1.767-.494q.734 0 1.227.25.495.244.796.613.307.364.471.716h.091v-1.466h2.404v8.813q0 1.114-.546 1.864-.545.75-1.511 1.125-.96.38-2.21.38m.051-5.398q.585 0 .988-.289.41-.296.625-.841.222-.552.222-1.318 0-.768-.216-1.33-.216-.568-.625-.881-.41-.312-.994-.312-.597 0-1.006.324-.41.318-.619.886t-.21 1.313q0 .755.21 1.306.216.546.619.847.41.295 1.006.295m9.943 2.114q-1.346 0-2.318-.545a3.75 3.75 0 0 1-1.489-1.557q-.522-1.012-.522-2.392 0-1.347.522-2.364a3.87 3.87 0 0 1 1.472-1.585q.954-.568 2.238-.568.864 0 1.608.278.75.273 1.307.824.563.551.875 1.386.313.83.313 1.944v.664h-7.37v-1.5h5.091a1.85 1.85 0 0 0-.227-.926 1.6 1.6 0 0 0-.631-.63 1.8 1.8 0 0 0-.926-.233q-.55 0-.977.255-.42.25-.659.676a1.9 1.9 0 0 0-.244.938v1.426q0 .648.238 1.119.244.472.688.728.443.255 1.051.255.404 0 .738-.113.336-.114.574-.341.239-.227.364-.557l2.239.148a3.07 3.07 0 0 1-.699 1.409q-.523.596-1.353.932-.823.329-1.903.329"/><path fill="#fff" stroke="#F6821F" stroke-width="2" d="M770 175.765h138v34H770z"/><path fill="#222" d="M785.966 197.765v-11.637h2.46v9.608h4.988v2.029zm12.799.17q-1.323 0-2.289-.562a3.85 3.85 0 0 1-1.483-1.58q-.523-1.017-.523-2.358 0-1.351.523-2.364a3.8 3.8 0 0 1 1.483-1.579q.966-.568 2.289-.568t2.284.568a3.8 3.8 0 0 1 1.489 1.579q.523 1.013.523 2.364 0 1.341-.523 2.358a3.84 3.84 0 0 1-1.489 1.58q-.96.562-2.284.562m.012-1.875q.601 0 1.005-.341.404-.346.608-.943a4 4 0 0 0 .211-1.358q0-.762-.211-1.358-.204-.597-.608-.943-.404-.347-1.005-.347-.608 0-1.023.347-.41.346-.619.943-.205.596-.205 1.358t.205 1.358q.21.597.619.943.415.34 1.023.341m8.17 1.869q-.835 0-1.488-.289a2.4 2.4 0 0 1-1.034-.87q-.375-.579-.375-1.443 0-.727.267-1.221t.727-.796a3.5 3.5 0 0 1 1.045-.454 8 8 0 0 1 1.239-.216q.762-.08 1.227-.148.466-.073.676-.216a.47.47 0 0 0 .211-.42v-.035q0-.539-.341-.835-.336-.295-.955-.295-.653 0-1.04.29a1.33 1.33 0 0 0-.511.715l-2.239-.181q.171-.796.671-1.375.5-.586 1.29-.898.795-.318 1.841-.318.726 0 1.392.17.67.17 1.187.529.523.357.824.92.301.556.301 1.335v5.887h-2.295v-1.211h-.069a2.5 2.5 0 0 1-.562.722 2.6 2.6 0 0 1-.847.483q-.494.17-1.142.17m.694-1.67q.534 0 .943-.21.408-.216.642-.58.233-.363.233-.824v-.926a1.3 1.3 0 0 1-.313.137 7 7 0 0 1-.437.108q-.244.045-.489.085l-.443.062a3 3 0 0 0-.744.199 1.2 1.2 0 0 0-.495.369.9.9 0 0 0-.176.569q0 .494.358.755.363.256.921.256m9.139 1.648a3.3 3.3 0 0 1-1.801-.512q-.802-.516-1.273-1.517-.466-1.005-.466-2.466 0-1.5.483-2.494.483-1 1.284-1.494a3.3 3.3 0 0 1 1.767-.5q.733 0 1.222.25.493.244.795.613a3 3 0 0 1 .466.716h.074v-4.375h2.415v11.637h-2.387v-1.398h-.102a3.2 3.2 0 0 1-.483.722 2.4 2.4 0 0 1-.801.585q-.488.233-1.193.233m.767-1.926q.585 0 .989-.319.409-.324.625-.903.22-.58.221-1.358 0-.779-.216-1.352t-.625-.887q-.41-.312-.994-.312-.597 0-1.006.324t-.619.897q-.21.574-.21 1.33 0 .761.21 1.347.216.579.619.909.41.324 1.006.324m9.585 1.784v-11.637h4.659q1.285 0 2.143.381.857.38 1.289 1.057.432.67.432 1.545 0 .682-.273 1.199a2.34 2.34 0 0 1-.75.841 3.1 3.1 0 0 1-1.079.46v.114q.665.028 1.244.375.586.347.949.971.363.62.364 1.478 0 .926-.461 1.653-.454.722-1.346 1.142t-2.199.421zm2.461-2.012h2.005q1.029 0 1.5-.392.472-.397.472-1.057 0-.483-.233-.852a1.6 1.6 0 0 0-.665-.579q-.426-.211-1.017-.211h-2.062zm0-4.755h1.823q.507 0 .898-.177.398-.181.625-.511.233-.33.233-.79 0-.63-.449-1.017-.443-.386-1.261-.386h-1.869zm10.385 6.931q-.835 0-1.489-.289a2.4 2.4 0 0 1-1.034-.87q-.375-.579-.375-1.443 0-.727.267-1.221t.727-.796a3.5 3.5 0 0 1 1.046-.454 8 8 0 0 1 1.238-.216q.762-.08 1.228-.148.466-.073.676-.216a.48.48 0 0 0 .21-.42v-.035q0-.539-.341-.835-.335-.295-.954-.295-.654 0-1.04.29a1.34 1.34 0 0 0-.512.715l-2.238-.181q.17-.796.67-1.375.501-.586 1.29-.898.795-.318 1.841-.318.728 0 1.392.17.67.17 1.187.529.524.357.824.92.301.556.301 1.335v5.887h-2.295v-1.211h-.068q-.21.41-.563.722a2.6 2.6 0 0 1-.846.483q-.495.17-1.142.17m.693-1.67q.534 0 .943-.21.41-.216.642-.58.233-.363.233-.824v-.926q-.114.074-.312.137a7 7 0 0 1-.438.108q-.245.045-.489.085l-.443.062a3 3 0 0 0-.744.199 1.2 1.2 0 0 0-.494.369.9.9 0 0 0-.177.569q0 .494.358.755.364.256.921.256m8.344-10.131v11.637h-2.421v-11.637zm4.251 11.801q-.835 0-1.488-.289a2.4 2.4 0 0 1-1.034-.87q-.375-.579-.375-1.443 0-.727.267-1.221t.727-.796a3.5 3.5 0 0 1 1.045-.454 8 8 0 0 1 1.239-.216q.762-.08 1.227-.148.466-.073.676-.216a.47.47 0 0 0 .211-.42v-.035q0-.539-.341-.835-.336-.295-.955-.295-.653 0-1.04.29a1.33 1.33 0 0 0-.511.715l-2.239-.181q.171-.796.671-1.375.5-.586 1.29-.898.795-.318 1.841-.318.726 0 1.392.17.67.17 1.187.529.523.357.824.92.301.556.301 1.335v5.887h-2.295v-1.211h-.069a2.5 2.5 0 0 1-.562.722 2.6 2.6 0 0 1-.847.483q-.494.17-1.142.17m.694-1.67q.534 0 .943-.21.408-.216.642-.58.233-.363.233-.824v-.926a1.3 1.3 0 0 1-.313.137 7 7 0 0 1-.437.108q-.245.045-.489.085l-.443.062a3 3 0 0 0-.744.199 1.2 1.2 0 0 0-.495.369.9.9 0 0 0-.176.569q0 .494.358.755.363.256.921.256m8.343-3.54v5.046h-2.42v-8.728h2.307v1.54h.102q.29-.761.972-1.204.681-.45 1.653-.449.91 0 1.585.397.676.398 1.051 1.137.375.733.375 1.75v5.557h-2.42v-5.125q.005-.801-.409-1.25-.415-.455-1.142-.455-.489 0-.864.21-.369.21-.579.614-.205.397-.211.96m11.3 5.216q-1.341 0-2.307-.568a3.85 3.85 0 0 1-1.477-1.591q-.511-1.017-.511-2.341 0-1.341.517-2.352a3.83 3.83 0 0 1 1.483-1.585q.96-.574 2.284-.574 1.142 0 2 .415a3.34 3.34 0 0 1 1.358 1.164q.5.75.551 1.762h-2.284q-.097-.654-.511-1.051-.41-.404-1.074-.404a1.62 1.62 0 0 0-.983.307q-.415.301-.648.881t-.233 1.403q0 .835.227 1.42.233.586.654.893.42.306.983.306.414 0 .744-.17a1.45 1.45 0 0 0 .551-.494q.221-.33.29-.79h2.284q-.057 1-.545 1.761a3.3 3.3 0 0 1-1.336 1.182q-.852.426-2.017.426m9.249 0q-1.346 0-2.318-.545a3.75 3.75 0 0 1-1.489-1.557q-.523-1.012-.523-2.392 0-1.347.523-2.364a3.87 3.87 0 0 1 1.472-1.585q.954-.568 2.238-.568.864 0 1.608.278.75.273 1.307.824.563.551.875 1.386.312.83.313 1.944v.664h-7.37v-1.5h5.091a1.86 1.86 0 0 0-.227-.926 1.63 1.63 0 0 0-.631-.63 1.8 1.8 0 0 0-.926-.233q-.55 0-.977.255-.42.25-.659.676a1.9 1.9 0 0 0-.245.938v1.426q0 .648.239 1.119.244.472.688.728.442.255 1.051.255.403 0 .738-.113.336-.114.574-.341.239-.227.364-.557l2.239.148a3.07 3.07 0 0 1-.699 1.409q-.524.596-1.353.932-.823.329-1.903.329m5.409-.17v-8.728h2.347v1.523h.091q.238-.813.801-1.227.563-.42 1.295-.421a3.7 3.7 0 0 1 .762.086v2.147a4.3 4.3 0 0 0-1.023-.13q-.534 0-.955.233a1.7 1.7 0 0 0-.659.636 1.84 1.84 0 0 0-.238.943v4.938z"/><path fill="#fff" stroke="#0055DC" stroke-width="2" d="M1135 64.765h151v256h-151z"/><path fill="#0055DC" d="M1164.51 76.963H1161v18.05h3.51zm91.49 0h-3.51v18.05h3.51z"/><path fill="#fff" stroke="#0055DC" stroke-miterlimit="10" stroke-width="1.5" d="M1169.31 98.23v3.425l78.38-.005v-3.425z"/><path fill="#C5EBF5" stroke="#0055DC" stroke-miterlimit="10" stroke-width="1.5" d="M1252.49 73.765h-87.98v24.461h87.98z"/><path fill="#fff" d="M1248.69 94.777V77.213h-80.38v17.564z"/><path fill="#0055DC" d="M1174.83 82.172h-1.95v1.903h1.95zm0 5.726h-1.95V89.8h1.95zm2.67-3.017h-1.95v1.903h1.95zm2.37-2.709h-1.95v1.903h1.95zm0 5.726h-1.95V89.8h1.95zm2.52-3.017h-1.95v1.903h1.95zm2.98-2.709h-1.95v1.903h1.95zm0 5.726h-1.95V89.8h1.95zm2.52-3.017h-1.95v1.903h1.95zm3.06-2.709H1189v1.903h1.95zm0 5.726H1189V89.8h1.95zm2.37-3.017h-1.94v1.903h1.94zm2.67-2.709h-1.95v1.903h1.95zm0 5.726h-1.95V89.8h1.95zm2.22-3.017h-1.94v1.903h1.94zm2.82-2.709h-1.95v1.903h1.95zm0 5.726h-1.95V89.8h1.95zm2.07-3.017h-1.94v1.903h1.94zm39.21 3.476c1.33 0 2.41-1.057 2.41-2.362 0-1.304-1.08-2.361-2.41-2.361-1.34 0-2.42 1.057-2.42 2.361s1.08 2.362 2.42 2.362"/><path stroke="#0055DC" stroke-miterlimit="10" stroke-width="1.5" d="M1235.35 85.995h-25.6"/><path fill="#0055DC" d="M1164.51 111.963H1161v18.05h3.51zm91.49 0h-3.51v18.05h3.51z"/><path fill="#fff" stroke="#0055DC" stroke-miterlimit="10" stroke-width="1.5" d="M1169.31 133.229v3.426l78.38-.005v-3.425z"/><path fill="#C5EBF5" stroke="#0055DC" stroke-miterlimit="10" stroke-width="1.5" d="M1252.49 108.765h-87.98v24.461h87.98z"/><path fill="#fff" d="M1248.69 129.777v-17.564h-80.38v17.564z"/><path fill="#0055DC" d="M1174.83 117.172h-1.95v1.903h1.95zm0 5.726h-1.95v1.902h1.95zm2.67-3.017h-1.95v1.903h1.95zm2.37-2.709h-1.95v1.903h1.95zm0 5.726h-1.95v1.902h1.95zm2.52-3.017h-1.95v1.903h1.95zm2.98-2.709h-1.95v1.903h1.95zm0 5.726h-1.95v1.902h1.95zm2.52-3.017h-1.95v1.903h1.95zm3.06-2.709H1189v1.903h1.95zm0 5.726H1189v1.902h1.95zm2.37-3.017h-1.94v1.903h1.94zm2.67-2.709h-1.95v1.903h1.95zm0 5.726h-1.95v1.902h1.95zm2.22-3.017h-1.94v1.903h1.94zm2.82-2.709h-1.95v1.903h1.95zm0 5.726h-1.95v1.902h1.95zm2.07-3.017h-1.94v1.903h1.94zm39.21 3.476c1.33 0 2.41-1.057 2.41-2.362 0-1.304-1.08-2.361-2.41-2.361-1.34 0-2.42 1.057-2.42 2.361s1.08 2.362 2.42 2.362"/><path stroke="#0055DC" stroke-miterlimit="10" stroke-width="1.5" d="M1235.35 120.995h-25.6"/><path fill="#0055DC" d="M1164.51 147.078H1161v18.697h3.51zm91.49 0h-3.51v18.697h3.51z"/><path fill="#fff" stroke="#0055DC" stroke-miterlimit="10" stroke-width="1.5" d="M1169.31 169.106v3.549l78.38-.005v-3.548z"/><path fill="#C5EBF5" stroke="#0055DC" stroke-miterlimit="10" stroke-width="1.5" d="M1252.49 143.765h-87.98v25.338h87.98z"/><path fill="#fff" d="M1248.69 165.53v-18.193h-80.38v18.193z"/><path fill="#0055DC" d="M1174.83 152.474h-1.95v1.97h1.95zm0 5.931h-1.95v1.97h1.95zm2.67-3.125h-1.95v1.97h1.95zm2.37-2.806h-1.95v1.97h1.95zm0 5.931h-1.95v1.97h1.95zm2.52-3.125h-1.95v1.97h1.95zm2.98-2.806h-1.95v1.97h1.95zm0 5.931h-1.95v1.97h1.95zm2.52-3.125h-1.95v1.97h1.95zm3.06-2.806H1189v1.97h1.95zm0 5.931H1189v1.97h1.95zm2.37-3.125h-1.94v1.97h1.94zm2.67-2.806h-1.95v1.97h1.95zm0 5.931h-1.95v1.97h1.95zm2.22-3.125h-1.94v1.97h1.94zm2.82-2.806h-1.95v1.97h1.95zm0 5.931h-1.95v1.97h1.95zm2.07-3.125h-1.94v1.97h1.94zm39.21 3.6c1.33 0 2.41-1.095 2.41-2.446s-1.08-2.446-2.41-2.446c-1.34 0-2.42 1.095-2.42 2.446s1.08 2.446 2.42 2.446"/><path stroke="#0055DC" stroke-miterlimit="10" stroke-width="1.5" d="M1235.35 156.434h-25.6"/><path fill="#0055DC" d="M1164.51 182.963H1161v18.05h3.51zm91.49 0h-3.51v18.05h3.51z"/><path fill="#fff" stroke="#0055DC" stroke-miterlimit="10" stroke-width="1.5" d="M1169.31 204.229v3.426l78.38-.005v-3.425z"/><path fill="#C5EBF5" stroke="#0055DC" stroke-miterlimit="10" stroke-width="1.5" d="M1252.49 179.765h-87.98v24.461h87.98z"/><path fill="#fff" d="M1248.69 200.777v-17.564h-80.38v17.564z"/><path fill="#0055DC" d="M1174.83 188.172h-1.95v1.903h1.95zm0 5.726h-1.95v1.902h1.95zm2.67-3.017h-1.95v1.903h1.95zm2.37-2.709h-1.95v1.903h1.95zm0 5.726h-1.95v1.902h1.95zm2.52-3.017h-1.95v1.903h1.95zm2.98-2.709h-1.95v1.903h1.95zm0 5.726h-1.95v1.902h1.95zm2.52-3.017h-1.95v1.903h1.95zm3.06-2.709H1189v1.903h1.95zm0 5.726H1189v1.902h1.95zm2.37-3.017h-1.94v1.903h1.94zm2.67-2.709h-1.95v1.903h1.95zm0 5.726h-1.95v1.902h1.95zm2.22-3.017h-1.94v1.903h1.94zm2.82-2.709h-1.95v1.903h1.95zm0 5.726h-1.95v1.902h1.95zm2.07-3.017h-1.94v1.903h1.94zm39.21 3.476c1.33 0 2.41-1.057 2.41-2.362 0-1.304-1.08-2.361-2.41-2.361-1.34 0-2.42 1.057-2.42 2.361s1.08 2.362 2.42 2.362"/><path stroke="#0055DC" stroke-miterlimit="10" stroke-width="1.5" d="M1235.35 191.995h-25.6"/><path fill="#0055DC" d="M1164.51 217.963H1161v18.05h3.51zm91.49 0h-3.51v18.05h3.51z"/><path fill="#fff" stroke="#0055DC" stroke-miterlimit="10" stroke-width="1.5" d="M1169.31 239.229v3.426l78.38-.005v-3.425z"/><path fill="#C5EBF5" stroke="#0055DC" stroke-miterlimit="10" stroke-width="1.5" d="M1252.49 214.765h-87.98v24.461h87.98z"/><path fill="#fff" d="M1248.69 235.777v-17.564h-80.38v17.564z"/><path fill="#0055DC" d="M1174.83 223.172h-1.95v1.903h1.95zm0 5.726h-1.95v1.902h1.95zm2.67-3.017h-1.95v1.903h1.95zm2.37-2.709h-1.95v1.903h1.95zm0 5.726h-1.95v1.902h1.95zm2.52-3.017h-1.95v1.903h1.95zm2.98-2.709h-1.95v1.903h1.95zm0 5.726h-1.95v1.902h1.95zm2.52-3.017h-1.95v1.903h1.95zm3.06-2.709H1189v1.903h1.95zm0 5.726H1189v1.902h1.95zm2.37-3.017h-1.94v1.903h1.94zm2.67-2.709h-1.95v1.903h1.95zm0 5.726h-1.95v1.902h1.95zm2.22-3.017h-1.94v1.903h1.94zm2.82-2.709h-1.95v1.903h1.95zm0 5.726h-1.95v1.902h1.95zm2.07-3.017h-1.94v1.903h1.94zm39.21 3.476c1.33 0 2.41-1.057 2.41-2.362 0-1.304-1.08-2.361-2.41-2.361-1.34 0-2.42 1.057-2.42 2.361s1.08 2.362 2.42 2.362"/><path stroke="#0055DC" stroke-miterlimit="10" stroke-width="1.5" d="M1235.35 226.995h-25.6"/><path fill="#0055DC" d="M1164.51 252.963H1161v18.05h3.51zm91.49 0h-3.51v18.05h3.51z"/><path fill="#fff" stroke="#0055DC" stroke-miterlimit="10" stroke-width="1.5" d="M1169.31 274.229v3.426l78.38-.005v-3.425z"/><path fill="#C5EBF5" stroke="#0055DC" stroke-miterlimit="10" stroke-width="1.5" d="M1252.49 249.765h-87.98v24.461h87.98z"/><path fill="#fff" d="M1248.69 270.777v-17.564h-80.38v17.564z"/><path fill="#0055DC" d="M1174.83 258.172h-1.95v1.903h1.95zm0 5.726h-1.95v1.902h1.95zm2.67-3.017h-1.95v1.903h1.95zm2.37-2.709h-1.95v1.903h1.95zm0 5.726h-1.95v1.902h1.95zm2.52-3.017h-1.95v1.903h1.95zm2.98-2.709h-1.95v1.903h1.95zm0 5.726h-1.95v1.902h1.95zm2.52-3.017h-1.95v1.903h1.95zm3.06-2.709H1189v1.903h1.95zm0 5.726H1189v1.902h1.95zm2.37-3.017h-1.94v1.903h1.94zm2.67-2.709h-1.95v1.903h1.95zm0 5.726h-1.95v1.902h1.95zm2.22-3.017h-1.94v1.903h1.94zm2.82-2.709h-1.95v1.903h1.95zm0 5.726h-1.95v1.902h1.95zm2.07-3.017h-1.94v1.903h1.94zm39.21 3.476c1.33 0 2.41-1.057 2.41-2.362 0-1.304-1.08-2.361-2.41-2.361-1.34 0-2.42 1.057-2.42 2.361s1.08 2.362 2.42 2.362"/><path stroke="#0055DC" stroke-miterlimit="10" stroke-width="1.5" d="M1235.35 261.995h-25.6"/><path fill="#0055DC" d="M1164.51 287.963H1161v18.05h3.51zm91.49 0h-3.51v18.05h3.51z"/><path fill="#fff" stroke="#0055DC" stroke-miterlimit="10" stroke-width="1.5" d="M1169.31 309.229v3.426l78.38-.005v-3.425z"/><path fill="#C5EBF5" stroke="#0055DC" stroke-miterlimit="10" stroke-width="1.5" d="M1252.49 284.765h-87.98v24.461h87.98z"/><path fill="#fff" d="M1248.69 305.777v-17.564h-80.38v17.564z"/><path fill="#0055DC" d="M1174.83 293.172h-1.95v1.903h1.95zm0 5.726h-1.95v1.902h1.95zm2.67-3.017h-1.95v1.903h1.95zm2.37-2.709h-1.95v1.903h1.95zm0 5.726h-1.95v1.902h1.95zm2.52-3.017h-1.95v1.903h1.95zm2.98-2.709h-1.95v1.903h1.95zm0 5.726h-1.95v1.902h1.95zm2.52-3.017h-1.95v1.903h1.95zm3.06-2.709H1189v1.903h1.95zm0 5.726H1189v1.902h1.95zm2.37-3.017h-1.94v1.903h1.94zm2.67-2.709h-1.95v1.903h1.95zm0 5.726h-1.95v1.902h1.95zm2.22-3.017h-1.94v1.903h1.94zm2.82-2.709h-1.95v1.903h1.95zm0 5.726h-1.95v1.902h1.95zm2.07-3.017h-1.94v1.903h1.94zm39.21 3.476c1.33 0 2.41-1.057 2.41-2.362 0-1.304-1.08-2.361-2.41-2.361-1.34 0-2.42 1.057-2.42 2.361s1.08 2.362 2.42 2.362"/><path stroke="#0055DC" stroke-miterlimit="10" stroke-width="1.5" d="M1235.35 296.995h-25.6"/><path fill="#5E5E5E" d="M911.939 191.704a1.5 1.5 0 0 0 0 2.121l9.546 9.546a1.5 1.5 0 0 0 2.122-2.121l-8.486-8.485 8.486-8.486a1.501 1.501 0 0 0-2.122-2.121zm219.121 2.121c.59-.585.59-1.535 0-2.121l-9.55-9.546a1.5 1.5 0 0 0-2.12 0 1.51 1.51 0 0 0 0 2.121l8.49 8.486-8.49 8.485a1.51 1.51 0 0 0 0 2.121c.59.586 1.54.586 2.12 0zm-218.06.44h217v-3H913z"/><path fill="#222" d="M201.73 186.765h-4.125v-11.637h4.159q1.756 0 3.023.699a4.7 4.7 0 0 1 1.949 1.994q.687 1.302.687 3.114 0 1.818-.687 3.125a4.73 4.73 0 0 1-1.96 2.006q-1.273.699-3.046.699m-1.665-2.108h1.563q1.09 0 1.835-.387.75-.391 1.125-1.21.381-.823.381-2.125 0-1.29-.381-2.108-.375-.818-1.119-1.204-.744-.387-1.835-.387h-1.569zm18.914-9.529v11.637h-2.125l-5.063-7.324h-.085v7.324h-2.46v-11.637h2.159l5.023 7.318h.102v-7.318zm8.345 3.347q-.069-.688-.585-1.068-.518-.381-1.404-.381-.602 0-1.017.17-.414.165-.636.461-.216.295-.216.67a.96.96 0 0 0 .131.546q.148.232.403.403.255.165.591.29.335.12.716.204l1.045.25q.762.17 1.398.455.637.284 1.102.699.466.414.722.977.261.563.267 1.29-.006 1.068-.546 1.852-.534.778-1.545 1.21-1.005.426-2.426.426-1.41 0-2.455-.431-1.04-.432-1.625-1.279-.58-.852-.608-2.108h2.381q.04.585.335.978.302.386.801.585a3.2 3.2 0 0 0 1.142.193q.626 0 1.086-.182.465-.182.721-.506.256-.323.256-.744a.97.97 0 0 0-.233-.659q-.228-.267-.67-.455a7 7 0 0 0-1.074-.34l-1.267-.319q-1.472-.357-2.324-1.119t-.847-2.051q-.006-1.057.563-1.847.573-.789 1.574-1.233 1-.443 2.272-.443 1.296 0 2.262.443.97.444 1.511 1.233t.557 1.83zm12.267 4.244h2.091l1.051 1.352 1.034 1.205 1.949 2.443h-2.296l-1.34-1.648-.688-.977zm6.301-1.773q0 1.904-.722 3.239-.715 1.335-1.954 2.04-1.233.699-2.773.699-1.551 0-2.784-.705-1.233-.704-1.949-2.04-.716-1.334-.716-3.233 0-1.903.716-3.238.717-1.335 1.949-2.034 1.233-.705 2.784-.705 1.54 0 2.773.705 1.239.699 1.954 2.034.722 1.335.722 3.238m-2.494 0q0-1.233-.37-2.079-.363-.847-1.028-1.284t-1.557-.438q-.892 0-1.557.438-.665.437-1.034 1.284-.363.846-.363 2.079t.363 2.08q.37.846 1.034 1.284.665.438 1.557.438.893 0 1.557-.438.665-.438 1.028-1.284.37-.846.37-2.08m9.868 2.103v-5.012h2.42v8.728h-2.324v-1.586h-.091a2.57 2.57 0 0 1-.983 1.233q-.681.466-1.664.466-.876 0-1.54-.397a2.74 2.74 0 0 1-1.04-1.131q-.369-.733-.375-1.756v-5.557h2.42v5.125q.007.774.415 1.222.41.449 1.097.449.438 0 .818-.199.38-.204.614-.602.238-.398.233-.983m8.333 3.886q-1.346 0-2.318-.545a3.74 3.74 0 0 1-1.488-1.557q-.523-1.012-.523-2.392 0-1.347.523-2.364a3.86 3.86 0 0 1 1.471-1.585q.955-.568 2.239-.568.864 0 1.608.278.75.273 1.307.824.562.551.875 1.386.312.83.312 1.944v.664h-7.369v-1.5h5.091a1.85 1.85 0 0 0-.228-.926 1.6 1.6 0 0 0-.63-.63 1.8 1.8 0 0 0-.926-.233q-.552 0-.978.255-.42.25-.659.676-.238.421-.244.938v1.426q0 .648.239 1.119.244.472.687.728.444.255 1.051.255.403 0 .739-.113.335-.114.574-.341a1.5 1.5 0 0 0 .363-.557l2.239.148a3.07 3.07 0 0 1-.699 1.409q-.522.596-1.352.932-.824.329-1.904.329m5.586-.17v-8.728h2.346v1.523h.091q.238-.813.801-1.227.563-.42 1.296-.421.182 0 .392.023.21.022.369.063v2.147a4.3 4.3 0 0 0-1.023-.13q-.534 0-.954.233a1.7 1.7 0 0 0-.659.636 1.84 1.84 0 0 0-.239.943v4.938zm8.306 3.272a5 5 0 0 1-.863-.073 3.2 3.2 0 0 1-.659-.177l.545-1.806q.426.13.767.142a1 1 0 0 0 .597-.159q.256-.17.415-.58l.142-.369-3.131-8.978h2.545l1.807 6.409h.091l1.824-6.409h2.563l-3.393 9.671q-.243.705-.664 1.227a2.74 2.74 0 0 1-1.051.813q-.637.29-1.535.289m281.294 142.728v-11.637h4.591q1.317 0 2.25.472.937.466 1.426 1.324.494.852.494 2.005 0 1.16-.5 1.995-.5.83-1.449 1.272-.943.444-2.284.444h-3.074v-1.978h2.676q.705 0 1.171-.193a1.4 1.4 0 0 0 .693-.579q.233-.387.233-.961 0-.58-.233-.977a1.42 1.42 0 0 0-.699-.602q-.465-.21-1.176-.21h-1.659v9.625zm6.284-5.296 2.892 5.296h-2.716l-2.83-5.296zm8.007 5.466q-1.346 0-2.318-.545a3.75 3.75 0 0 1-1.489-1.557q-.523-1.012-.523-2.392 0-1.347.523-2.364a3.87 3.87 0 0 1 1.472-1.585q.954-.568 2.238-.568.864 0 1.608.278.75.273 1.307.824.563.551.875 1.386.313.83.313 1.944v.664h-7.37v-1.5h5.091a1.85 1.85 0 0 0-.227-.926 1.63 1.63 0 0 0-.631-.63 1.8 1.8 0 0 0-.926-.233q-.55 0-.977.255-.42.25-.659.676a1.9 1.9 0 0 0-.245.938v1.426q0 .648.239 1.119.244.472.688.728.442.255 1.051.255.404 0 .738-.113.336-.114.574-.341.239-.227.364-.557l2.239.148a3.07 3.07 0 0 1-.699 1.409q-.524.596-1.353.932-.823.329-1.903.329m11.352 3.102v-4.67h-.074a3 3 0 0 1-.483.722 2.4 2.4 0 0 1-.801.585q-.488.233-1.193.233a3.3 3.3 0 0 1-1.801-.512q-.8-.516-1.273-1.517-.465-1.005-.466-2.466 0-1.5.483-2.494.483-1 1.284-1.494a3.3 3.3 0 0 1 1.767-.5q.733 0 1.222.25.495.244.795.613a3 3 0 0 1 .466.716h.103v-1.466h2.386v12zm-1.784-5.056q.585 0 .989-.319.41-.324.625-.903.222-.58.221-1.358 0-.779-.216-1.352-.215-.574-.625-.887-.409-.312-.994-.312-.597 0-1.006.324t-.619.897-.21 1.33q0 .761.21 1.347.216.579.619.909.41.324 1.006.324m11.739-1.932v-5.012h2.42v8.728h-2.324v-1.586h-.091a2.57 2.57 0 0 1-.982 1.233q-.683.466-1.665.466-.876 0-1.54-.397a2.74 2.74 0 0 1-1.04-1.131q-.369-.733-.375-1.756v-5.557h2.421v5.125q.005.774.414 1.222.41.449 1.097.449.438 0 .818-.199.381-.204.614-.602.239-.398.233-.983m8.334 3.886q-1.347 0-2.319-.545a3.74 3.74 0 0 1-1.488-1.557q-.523-1.012-.523-2.392 0-1.347.523-2.364a3.86 3.86 0 0 1 1.471-1.585q.955-.568 2.239-.568.864 0 1.608.278.75.273 1.307.824.562.551.875 1.386.312.83.312 1.944v.664h-7.369v-1.5h5.091a1.86 1.86 0 0 0-.227-.926 1.63 1.63 0 0 0-.631-.63 1.8 1.8 0 0 0-.926-.233q-.552 0-.977.255a1.8 1.8 0 0 0-.66.676q-.238.421-.244.938v1.426q0 .648.239 1.119.245.472.687.728.444.255 1.051.255.404 0 .739-.113.336-.114.574-.341t.364-.557l2.238.148a3.05 3.05 0 0 1-.699 1.409q-.522.596-1.352.932-.824.329-1.903.329m12.846-6.409-2.216.136a1.15 1.15 0 0 0-.244-.511 1.3 1.3 0 0 0-.494-.369 1.7 1.7 0 0 0-.722-.142q-.562 0-.949.238-.386.234-.386.625 0 .313.25.529t.858.346l1.579.318q1.273.262 1.898.841.625.58.625 1.523 0 .858-.506 1.506-.5.648-1.375 1.011-.869.358-2.005.358-1.734 0-2.762-.721a2.82 2.82 0 0 1-1.199-1.978l2.381-.125q.108.529.523.807.415.273 1.062.273.637 0 1.023-.245.392-.249.398-.642a.67.67 0 0 0-.279-.539q-.272-.216-.84-.33l-1.512-.301q-1.278-.255-1.903-.886-.62-.632-.62-1.608 0-.841.455-1.449.46-.608 1.29-.938.835-.329 1.954-.329 1.654 0 2.603.699.954.699 1.113 1.903m6.365-2.489v1.819h-5.255v-1.819zm-4.062-2.091h2.42v8.137q0 .335.102.523a.56.56 0 0 0 .285.255q.188.074.431.074.171 0 .341-.028l.262-.051.38 1.801a7 7 0 0 1-.511.13q-.33.08-.801.097-.875.034-1.534-.233a2.14 2.14 0 0 1-1.017-.83q-.364-.562-.358-1.42zm14.41-1.363-3.75 13.932h-2.085l3.75-13.932zm15.182 4.619h-2.489a2.4 2.4 0 0 0-.278-.858q-.21-.381-.54-.648a2.4 2.4 0 0 0-.761-.409 3 3 0 0 0-.926-.142q-.903 0-1.574.449-.67.443-1.04 1.296-.369.846-.369 2.056 0 1.245.369 2.091.375.847 1.046 1.279.67.432 1.551.432.493 0 .915-.131.425-.13.755-.381.33-.255.546-.619.221-.364.306-.83l2.489.012a4.5 4.5 0 0 1-.483 1.545 4.6 4.6 0 0 1-1.028 1.324q-.643.579-1.534.921-.887.335-2.006.335-1.557 0-2.784-.705-1.222-.704-1.932-2.04-.705-1.334-.704-3.233 0-1.903.715-3.238.716-1.335 1.944-2.034 1.227-.705 2.761-.705 1.011 0 1.875.284.87.285 1.54.83.67.54 1.091 1.324a4.9 4.9 0 0 1 .545 1.795m5.662 7.733q-1.324 0-2.29-.562a3.86 3.86 0 0 1-1.483-1.58q-.522-1.017-.522-2.358 0-1.352.522-2.364a3.8 3.8 0 0 1 1.483-1.579q.966-.568 2.29-.568t2.284.568q.966.562 1.489 1.579.522 1.013.522 2.364 0 1.341-.522 2.358a3.85 3.85 0 0 1-1.489 1.58q-.96.562-2.284.562m.011-1.875q.603 0 1.006-.341.404-.346.608-.943.21-.597.21-1.358t-.21-1.358q-.204-.597-.608-.943-.403-.347-1.006-.347-.608 0-1.022.347-.41.346-.62.943-.204.597-.204 1.358t.204 1.358q.21.597.62.943.414.34 1.022.341m8.279-3.341v5.046h-2.421v-8.728h2.307v1.54h.102q.29-.761.972-1.204.683-.45 1.653-.449.91 0 1.586.397.676.398 1.051 1.137.375.733.375 1.75v5.557h-2.421v-5.125q.006-.801-.409-1.25-.414-.455-1.142-.455-.489 0-.863.21a1.46 1.46 0 0 0-.58.614q-.204.397-.21.96m9.953 0v5.046h-2.421v-8.728h2.307v1.54h.103q.29-.761.971-1.204.682-.45 1.654-.449.909 0 1.585.397.676.398 1.051 1.137.375.733.375 1.75v5.557h-2.421v-5.125q.006-.801-.409-1.25-.414-.455-1.142-.455-.488 0-.863.21a1.46 1.46 0 0 0-.58.614q-.204.397-.21.96m11.51 5.216q-1.347 0-2.318-.545a3.75 3.75 0 0 1-1.489-1.557q-.523-1.012-.523-2.392 0-1.347.523-2.364a3.87 3.87 0 0 1 1.472-1.585q.954-.568 2.238-.568.864 0 1.608.278.75.273 1.307.824.563.551.875 1.386.313.83.313 1.944v.664h-7.37v-1.5h5.091a1.86 1.86 0 0 0-.227-.926 1.63 1.63 0 0 0-.631-.63 1.8 1.8 0 0 0-.926-.233q-.55 0-.977.255a1.8 1.8 0 0 0-.659.676 1.9 1.9 0 0 0-.245.938v1.426q0 .648.239 1.119.244.472.688.728.442.255 1.051.255.404 0 .738-.113.336-.114.574-.341t.364-.557l2.238.148a3.05 3.05 0 0 1-.698 1.409q-.523.596-1.353.932-.823.329-1.903.329m9.528 0q-1.341 0-2.307-.568a3.85 3.85 0 0 1-1.477-1.591q-.511-1.017-.511-2.341 0-1.341.517-2.352a3.83 3.83 0 0 1 1.483-1.585q.96-.574 2.284-.574 1.142 0 2 .415a3.34 3.34 0 0 1 1.358 1.164q.5.75.551 1.762h-2.284q-.096-.654-.511-1.051-.41-.404-1.074-.404a1.62 1.62 0 0 0-.983.307q-.416.301-.648.881t-.233 1.403q0 .835.227 1.42.233.586.654.893.42.306.983.306.414 0 .744-.17a1.45 1.45 0 0 0 .551-.494q.222-.33.29-.79h2.284q-.057 1-.545 1.761a3.3 3.3 0 0 1-1.336 1.182q-.852.426-2.017.426m10.09-8.898v1.819h-5.256v-1.819zm-4.063-2.091h2.421v8.137q0 .335.102.523a.56.56 0 0 0 .284.255q.188.074.432.074.17 0 .341-.028l.261-.051.381 1.801a7 7 0 0 1-.512.13 4 4 0 0 1-.801.097q-.874.034-1.534-.233a2.15 2.15 0 0 1-1.017-.83q-.363-.562-.358-1.42zm5.639 10.819v-8.728h2.421v8.728zm1.216-9.853q-.539 0-.926-.358a1.16 1.16 0 0 1-.38-.869q0-.5.38-.858.387-.363.926-.363.54 0 .921.363.386.358.386.858 0 .506-.386.869a1.3 1.3 0 0 1-.921.358m7.087 10.023q-1.324 0-2.29-.562a3.86 3.86 0 0 1-1.483-1.58q-.522-1.017-.522-2.358 0-1.352.522-2.364a3.8 3.8 0 0 1 1.483-1.579q.966-.568 2.29-.568t2.284.568q.966.562 1.489 1.579.522 1.013.522 2.364 0 1.341-.522 2.358a3.85 3.85 0 0 1-1.489 1.58q-.96.562-2.284.562m.011-1.875q.603 0 1.006-.341.404-.346.608-.943.21-.597.21-1.358t-.21-1.358q-.204-.597-.608-.943-.403-.347-1.006-.347-.608 0-1.022.347-.41.346-.62.943-.204.597-.204 1.358t.204 1.358q.21.597.62.943.414.34 1.022.341m8.279-3.341v5.046h-2.421v-8.728h2.307v1.54h.102q.29-.761.972-1.204.683-.45 1.653-.449.91 0 1.586.397.676.398 1.051 1.137.375.733.375 1.75v5.557h-2.421v-5.125q.006-.801-.409-1.25-.414-.455-1.142-.455-.489 0-.863.21a1.46 1.46 0 0 0-.58.614q-.204.397-.21.96M187.168 210.765h-4.125v-11.637h4.159q1.755 0 3.022.699a4.7 4.7 0 0 1 1.949 1.994q.688 1.302.688 3.114 0 1.818-.688 3.125a4.7 4.7 0 0 1-1.96 2.006q-1.273.699-3.045.699m-1.665-2.108h1.562q1.091 0 1.836-.387.75-.391 1.125-1.21.38-.823.38-2.125 0-1.29-.38-2.108-.376-.818-1.12-1.204-.744-.387-1.835-.387h-1.568zm18.913-9.529v11.637h-2.125l-5.062-7.324h-.086v7.324h-2.46v-11.637h2.159l5.023 7.318h.102v-7.318zm8.345 3.347q-.067-.688-.585-1.068-.517-.381-1.403-.381-.603 0-1.017.17-.415.165-.637.461-.216.295-.216.67a.96.96 0 0 0 .131.546q.148.232.404.403.255.165.59.29.336.12.716.204l1.046.25q.76.17 1.398.455.636.284 1.102.699.465.414.721.977.263.563.267 1.29-.005 1.068-.545 1.852-.534.778-1.545 1.21-1.006.426-2.427.426-1.409 0-2.454-.431-1.04-.432-1.625-1.279-.58-.852-.608-2.108h2.381q.04.585.335.978.301.386.801.585.506.193 1.142.193.625 0 1.085-.182.466-.182.722-.506.255-.323.255-.744a.96.96 0 0 0-.233-.659q-.226-.267-.67-.455a7 7 0 0 0-1.074-.34l-1.267-.319q-1.472-.357-2.324-1.119t-.846-2.051q-.006-1.057.562-1.847.574-.789 1.574-1.233 1-.443 2.273-.443 1.295 0 2.261.443.972.444 1.511 1.233.54.79.557 1.83zm7.875 8.29v-11.637h4.591q1.319 0 2.25.472a3.26 3.26 0 0 1 1.426 1.324q.495.852.495 2.005 0 1.16-.5 1.995-.501.83-1.449 1.272-.943.444-2.284.444h-3.074v-1.978h2.676q.705 0 1.171-.193.465-.193.693-.579.233-.387.233-.961 0-.58-.233-.977a1.43 1.43 0 0 0-.699-.602q-.467-.21-1.176-.21h-1.659v9.625zm6.284-5.296 2.892 5.296h-2.715l-2.83-5.296zm8.008 5.466q-1.347 0-2.319-.545a3.74 3.74 0 0 1-1.488-1.557q-.523-1.012-.523-2.392 0-1.347.523-2.364a3.86 3.86 0 0 1 1.471-1.585q.955-.568 2.239-.568.864 0 1.608.278.75.273 1.307.824.562.551.875 1.386.312.83.312 1.944v.664h-7.369v-1.5h5.091a1.86 1.86 0 0 0-.227-.926 1.63 1.63 0 0 0-.631-.63 1.8 1.8 0 0 0-.926-.233 1.87 1.87 0 0 0-.978.255q-.42.25-.659.676-.238.421-.244.938v1.426q0 .648.239 1.119.244.472.687.728.444.255 1.051.255.403 0 .739-.113.335-.114.574-.341a1.5 1.5 0 0 0 .363-.557l2.239.148a3.06 3.06 0 0 1-.699 1.409q-.522.596-1.352.932-.824.329-1.903.329m12.846-6.409-2.216.136a1.15 1.15 0 0 0-.244-.511 1.3 1.3 0 0 0-.494-.369 1.7 1.7 0 0 0-.722-.142q-.562 0-.949.238-.386.234-.386.625 0 .313.25.529.249.216.858.346l1.579.318q1.273.262 1.898.841.625.58.625 1.523a2.38 2.38 0 0 1-.506 1.506q-.5.648-1.375 1.011-.869.358-2.005.358-1.733 0-2.762-.721a2.8 2.8 0 0 1-1.199-1.978l2.381-.125q.108.529.523.807.415.273 1.062.273.637 0 1.023-.245.392-.249.398-.642a.67.67 0 0 0-.279-.539q-.272-.216-.841-.33l-1.511-.301q-1.279-.256-1.903-.886-.62-.631-.62-1.608 0-.841.455-1.449.46-.608 1.29-.938.835-.329 1.954-.329 1.654 0 2.603.699.954.699 1.113 1.903m1.723 9.511v-12h2.387v1.466h.107q.16-.352.461-.716a2.4 2.4 0 0 1 .795-.613q.495-.25 1.227-.25.955 0 1.762.5.807.494 1.29 1.494.483.994.483 2.494 0 1.461-.472 2.466-.466 1-1.273 1.517a3.26 3.26 0 0 1-1.795.512q-.705 0-1.199-.233a2.5 2.5 0 0 1-.801-.585 3 3 0 0 1-.478-.722h-.073v4.67zm2.369-7.636q0 .779.216 1.358.217.579.625.903.41.318.995.319.59 0 1-.324.409-.33.619-.909a3.9 3.9 0 0 0 .216-1.347q0-.756-.21-1.33-.21-.573-.62-.897-.409-.324-1.005-.324-.591 0-1 .312-.404.313-.62.887-.216.573-.216 1.352m11.699 4.534q-1.323 0-2.289-.562a3.85 3.85 0 0 1-1.483-1.58q-.523-1.017-.523-2.358 0-1.351.523-2.364a3.8 3.8 0 0 1 1.483-1.579q.966-.568 2.289-.568t2.284.568a3.8 3.8 0 0 1 1.489 1.579q.523 1.013.523 2.364 0 1.341-.523 2.358a3.84 3.84 0 0 1-1.489 1.58q-.96.562-2.284.562m.012-1.875q.601 0 1.005-.341.404-.346.608-.943.21-.596.211-1.358 0-.762-.211-1.358-.204-.597-.608-.943-.404-.347-1.005-.347-.609 0-1.023.347-.41.346-.619.943-.205.596-.205 1.358t.205 1.358q.21.597.619.943.414.34 1.023.341m8.278-3.341v5.046h-2.42v-8.728h2.306v1.54h.103q.29-.761.971-1.204.682-.45 1.654-.449.909 0 1.585.397.676.398 1.051 1.137.375.733.375 1.75v5.557h-2.42v-5.125q.005-.801-.409-1.25-.416-.455-1.142-.455-.489 0-.864.21-.37.21-.58.614-.204.397-.21.96m14.794-1.193-2.216.136a1.15 1.15 0 0 0-.244-.511 1.3 1.3 0 0 0-.494-.369 1.7 1.7 0 0 0-.722-.142q-.562 0-.949.238-.386.234-.386.625 0 .313.25.529.249.216.858.346l1.579.318q1.273.262 1.898.841.625.58.625 1.523a2.38 2.38 0 0 1-.506 1.506q-.5.648-1.375 1.011-.869.358-2.005.358-1.734 0-2.762-.721a2.8 2.8 0 0 1-1.199-1.978l2.381-.125q.108.529.523.807.415.273 1.062.273.637 0 1.023-.245.392-.249.398-.642a.67.67 0 0 0-.279-.539q-.272-.216-.841-.33l-1.511-.301q-1.279-.256-1.903-.886-.62-.631-.62-1.608 0-.841.455-1.449.46-.608 1.29-.938.835-.329 1.954-.329 1.654 0 2.603.699.954.699 1.113 1.903m5.7 6.409q-1.346 0-2.318-.545a3.74 3.74 0 0 1-1.488-1.557q-.523-1.012-.523-2.392 0-1.347.523-2.364a3.86 3.86 0 0 1 1.471-1.585q.955-.568 2.239-.568.864 0 1.608.278.75.273 1.307.824.562.551.875 1.386.312.83.312 1.944v.664h-7.369v-1.5h5.091a1.85 1.85 0 0 0-.228-.926 1.6 1.6 0 0 0-.63-.63 1.8 1.8 0 0 0-.926-.233q-.552 0-.978.255-.42.25-.659.676-.238.421-.244.938v1.426q0 .648.239 1.119.244.472.687.728.444.255 1.051.255.403 0 .739-.113.335-.114.574-.341a1.5 1.5 0 0 0 .363-.557l2.239.148a3.07 3.07 0 0 1-.699 1.409q-.522.596-1.352.932-.824.329-1.904.329M611.449 184v-11.636h2.46v9.608h4.989V184zm9.078 0v-11.636h4.659q1.284 0 2.142.38t1.29 1.057q.432.67.432 1.546 0 .681-.273 1.198a2.35 2.35 0 0 1-.75.841 3.1 3.1 0 0 1-1.08.461v.113a2.66 2.66 0 0 1 2.194 1.347q.363.62.363 1.477 0 .927-.46 1.654-.454.721-1.347 1.142-.891.42-2.198.42zm2.46-2.011h2.006q1.029 0 1.5-.392.471-.399.471-1.057 0-.483-.232-.852a1.6 1.6 0 0 0-.665-.58q-.426-.21-1.017-.21h-2.063zm0-4.756h1.824q.505 0 .898-.176.397-.182.625-.512.233-.33.233-.789 0-.631-.449-1.017-.444-.387-1.261-.387h-1.87zM634.808 184v-11.636h4.591q1.318 0 2.25.471.938.466 1.426 1.324.495.852.495 2.006 0 1.158-.5 1.994-.501.83-1.449 1.273-.943.443-2.284.443h-3.074v-1.977h2.676q.705 0 1.17-.193.466-.193.694-.58.233-.387.233-.96 0-.58-.233-.977a1.43 1.43 0 0 0-.699-.603q-.466-.21-1.176-.21h-1.66V184zm6.284-5.295 2.892 5.295h-2.716l-2.829-5.295zm8.007 5.465q-1.346 0-2.318-.545a3.73 3.73 0 0 1-1.488-1.557q-.523-1.01-.523-2.392 0-1.346.523-2.364a3.86 3.86 0 0 1 1.471-1.585q.955-.568 2.239-.568.864 0 1.608.279.75.272 1.307.823.562.552.875 1.387.312.829.312 1.943v.665h-7.369v-1.5h5.091q0-.524-.228-.926a1.6 1.6 0 0 0-.63-.631 1.8 1.8 0 0 0-.926-.233q-.552 0-.978.256-.42.25-.659.676-.238.42-.244.937v1.426q0 .648.239 1.12.244.472.687.727t1.051.256q.403 0 .739-.114.335-.113.574-.341.238-.227.363-.557l2.239.148a3.06 3.06 0 0 1-.699 1.409q-.522.596-1.352.932-.824.33-1.904.329m11.353 3.103v-4.671h-.074a3.1 3.1 0 0 1-.483.722q-.308.353-.801.585-.49.233-1.193.233-.995 0-1.802-.511-.801-.518-1.272-1.517-.466-1.006-.466-2.466 0-1.5.483-2.495.483-.999 1.284-1.494a3.3 3.3 0 0 1 1.767-.5q.734 0 1.221.25.495.245.796.614.306.363.466.716h.102v-1.466h2.386v12zm-1.784-5.057q.585 0 .988-.318.41-.324.625-.904.222-.58.222-1.358t-.216-1.352-.625-.886q-.41-.313-.994-.313-.597 0-1.006.324t-.619.898-.211 1.329q0 .762.211 1.347.216.579.619.909.41.324 1.006.324m11.738-1.932v-5.011h2.421V184h-2.324v-1.585h-.091a2.6 2.6 0 0 1-.983 1.233q-.682.465-1.665.466-.874 0-1.54-.398a2.73 2.73 0 0 1-1.039-1.131q-.37-.733-.375-1.755v-5.557h2.42v5.125q.006.772.415 1.221.41.45 1.096.449.438 0 .819-.199a1.56 1.56 0 0 0 .613-.602q.239-.398.233-.983m8.334 3.886q-1.347 0-2.318-.545a3.73 3.73 0 0 1-1.489-1.557q-.522-1.01-.522-2.392 0-1.346.522-2.364a3.87 3.87 0 0 1 1.472-1.585q.954-.568 2.238-.568.864 0 1.608.279.75.272 1.307.823.563.552.875 1.387.313.829.313 1.943v.665h-7.37v-1.5h5.091q0-.524-.227-.926a1.6 1.6 0 0 0-.631-.631 1.8 1.8 0 0 0-.926-.233q-.55 0-.977.256-.42.25-.659.676-.239.42-.244.937v1.426q0 .648.238 1.12.244.472.688.727t1.051.256q.403 0 .738-.114.336-.113.574-.341.239-.227.364-.557l2.239.148a3.06 3.06 0 0 1-.699 1.409q-.524.596-1.353.932-.823.33-1.903.329m12.847-6.409-2.216.137a1.15 1.15 0 0 0-.245-.512 1.3 1.3 0 0 0-.494-.369 1.7 1.7 0 0 0-.721-.142q-.563 0-.949.239-.387.232-.387.625 0 .312.25.528t.858.347l1.58.318q1.272.26 1.898.841.624.58.625 1.522a2.38 2.38 0 0 1-.506 1.506q-.5.648-1.375 1.011-.87.358-2.006.358-1.733 0-2.761-.721a2.8 2.8 0 0 1-1.199-1.977l2.381-.125q.108.528.522.806.415.273 1.063.273.636 0 1.023-.244.391-.25.397-.642a.67.67 0 0 0-.278-.54q-.273-.216-.841-.33l-1.511-.301q-1.279-.256-1.904-.886-.62-.63-.619-1.608 0-.841.454-1.449.46-.608 1.29-.937.836-.33 1.955-.33 1.653 0 2.602.699.955.699 1.114 1.903m6.365-2.488v1.818h-5.256v-1.818zm-4.063-2.091h2.421v8.136q0 .336.102.523a.57.57 0 0 0 .284.256q.188.073.432.073.17 0 .341-.028l.261-.051.381 1.801a7 7 0 0 1-.512.131 4 4 0 0 1-.801.096q-.874.034-1.534-.233a2.15 2.15 0 0 1-1.017-.829q-.364-.563-.358-1.421zM604.66 208v-11.636h2.46v9.608h4.989V208zm9.078 0v-11.636h4.659q1.284 0 2.142.38t1.29 1.057q.432.67.432 1.546 0 .681-.273 1.198a2.35 2.35 0 0 1-.75.841 3.1 3.1 0 0 1-1.08.461v.113a2.66 2.66 0 0 1 2.194 1.347q.363.62.363 1.477 0 .927-.46 1.654-.454.721-1.347 1.142-.891.42-2.198.42zm2.46-2.011h2.006q1.027 0 1.5-.392.471-.399.471-1.057 0-.483-.233-.852a1.57 1.57 0 0 0-.664-.58q-.426-.21-1.017-.21h-2.063zm0-4.756h1.824q.505 0 .898-.176.397-.182.625-.512.233-.33.233-.789 0-.631-.449-1.017-.444-.387-1.262-.387h-1.869zM628.019 208v-11.636h4.591q1.318 0 2.25.471a3.27 3.27 0 0 1 1.426 1.324q.495.852.495 2.006 0 1.158-.5 1.994-.501.83-1.449 1.273-.943.443-2.284.443h-3.074v-1.977h2.676q.705 0 1.17-.193.467-.193.693-.58.233-.387.233-.96 0-.58-.233-.977a1.43 1.43 0 0 0-.698-.603q-.466-.21-1.177-.21h-1.659V208zm6.284-5.295 2.892 5.295h-2.716l-2.829-5.295zm8.007 5.465q-1.346 0-2.318-.545a3.73 3.73 0 0 1-1.488-1.557q-.523-1.01-.523-2.392 0-1.346.523-2.364a3.86 3.86 0 0 1 1.471-1.585q.955-.568 2.239-.568.864 0 1.608.279.75.272 1.307.823.562.552.875 1.387.312.829.312 1.943v.665h-7.369v-1.5h5.091q0-.524-.228-.926a1.6 1.6 0 0 0-.63-.631 1.8 1.8 0 0 0-.926-.233q-.552 0-.978.256-.42.25-.659.676-.238.42-.244.937v1.426q0 .648.239 1.12.244.472.687.727t1.051.256q.403 0 .739-.114.335-.113.574-.341.238-.227.363-.557l2.239.148a3.06 3.06 0 0 1-.699 1.409q-.522.596-1.352.932-.824.33-1.904.329m12.847-6.409-2.216.137a1.15 1.15 0 0 0-.244-.512 1.3 1.3 0 0 0-.495-.369 1.7 1.7 0 0 0-.721-.142q-.562 0-.949.239-.387.232-.386.625 0 .312.25.528.249.216.858.347l1.579.318q1.273.26 1.898.841.625.58.625 1.522a2.38 2.38 0 0 1-.506 1.506q-.5.648-1.375 1.011-.869.358-2.006.358-1.732 0-2.761-.721a2.8 2.8 0 0 1-1.199-1.977l2.381-.125q.108.528.523.806.414.273 1.062.273.636 0 1.023-.244.392-.25.398-.642a.67.67 0 0 0-.279-.54q-.273-.216-.841-.33l-1.511-.301q-1.278-.256-1.903-.886-.62-.63-.62-1.608 0-.841.455-1.449.46-.608 1.29-.937.834-.33 1.954-.33 1.653 0 2.602.699.955.699 1.114 1.903m1.723 9.512v-12h2.386v1.466h.108q.16-.353.461-.716.306-.37.795-.614.495-.25 1.227-.25.955 0 1.762.5.806.495 1.289 1.494.483.995.483 2.495 0 1.46-.471 2.466-.466 1-1.273 1.517a3.27 3.27 0 0 1-1.795.511q-.705 0-1.199-.233a2.5 2.5 0 0 1-.801-.585 3 3 0 0 1-.478-.722h-.074v4.671zm2.369-7.637q0 .779.216 1.358t.625.904q.409.318.995.318.59 0 1-.324.409-.33.619-.909.216-.585.216-1.347 0-.755-.21-1.329-.211-.574-.62-.898t-1.005-.324q-.591 0-1 .313-.404.312-.62.886t-.216 1.352m11.699 4.534q-1.323 0-2.29-.562a3.85 3.85 0 0 1-1.483-1.58q-.522-1.017-.522-2.358 0-1.352.522-2.363a3.8 3.8 0 0 1 1.483-1.58q.966-.568 2.29-.568t2.284.568q.966.563 1.489 1.58.522 1.011.523 2.363 0 1.341-.523 2.358a3.84 3.84 0 0 1-1.489 1.58q-.96.562-2.284.562m.012-1.875q.601 0 1.005-.34.404-.347.608-.944.21-.596.21-1.358 0-.76-.21-1.358-.204-.596-.608-.943-.404-.346-1.005-.346-.609 0-1.023.346-.409.347-.62.943a4.2 4.2 0 0 0-.204 1.358q0 .762.204 1.358.211.597.62.944.414.34 1.023.34m8.278-3.34V208h-2.421v-8.727h2.307v1.539h.103q.29-.761.971-1.204.682-.449 1.654-.449.909 0 1.585.398t1.051 1.136q.375.733.375 1.75V208h-2.421v-5.125q.006-.801-.409-1.25-.414-.455-1.142-.455-.488 0-.863.211-.37.21-.58.613-.204.398-.21.961m14.794-1.194-2.216.137a1.15 1.15 0 0 0-.244-.512 1.3 1.3 0 0 0-.495-.369 1.7 1.7 0 0 0-.721-.142q-.562 0-.949.239-.387.232-.386.625 0 .312.25.528.249.216.858.347l1.579.318q1.273.26 1.898.841.625.58.625 1.522a2.38 2.38 0 0 1-.506 1.506q-.5.648-1.375 1.011-.869.358-2.006.358-1.732 0-2.761-.721a2.8 2.8 0 0 1-1.199-1.977l2.381-.125q.108.528.523.806.414.273 1.062.273.636 0 1.023-.244.392-.25.398-.642a.67.67 0 0 0-.279-.54q-.273-.216-.841-.33l-1.511-.301q-1.279-.256-1.903-.886-.62-.63-.62-1.608 0-.841.455-1.449.46-.608 1.29-.937.835-.33 1.954-.33 1.653 0 2.602.699.955.699 1.114 1.903m5.7 6.409q-1.346 0-2.318-.545a3.73 3.73 0 0 1-1.489-1.557q-.522-1.01-.522-2.392 0-1.346.522-2.364a3.87 3.87 0 0 1 1.472-1.585q.955-.568 2.239-.568.862 0 1.608.279.75.272 1.306.823.563.552.875 1.387.313.829.313 1.943v.665h-7.369v-1.5h5.091q0-.524-.228-.926a1.6 1.6 0 0 0-.63-.631 1.8 1.8 0 0 0-.927-.233q-.55 0-.977.256-.42.25-.659.676-.238.42-.244.937v1.426q0 .648.238 1.12.244.472.688.727t1.051.256q.403 0 .739-.114.334-.113.574-.341.238-.227.363-.557l2.239.148a3.06 3.06 0 0 1-.699 1.409q-.523.596-1.352.932-.825.33-1.904.329M980.957 186v-11.636h2.46v4.801h4.994v-4.801h2.455V186h-2.455v-4.807h-4.994V186zm15.869.17q-1.346 0-2.318-.545a3.73 3.73 0 0 1-1.489-1.557q-.523-1.01-.523-2.392 0-1.346.523-2.364a3.87 3.87 0 0 1 1.472-1.585q.954-.568 2.238-.568.864 0 1.608.279.75.272 1.307.823.563.552.876 1.387c.21.553.31 1.2.31 1.943v.665h-7.368v-1.5h5.091q0-.524-.227-.926a1.63 1.63 0 0 0-.631-.631 1.8 1.8 0 0 0-.926-.233q-.55 0-.977.256-.42.25-.659.676-.239.42-.245.937v1.426q0 .648.239 1.12.244.472.688.727.442.255 1.051.256.403 0 .738-.114.336-.113.574-.341.239-.227.364-.557l2.238.148a3.04 3.04 0 0 1-.7 1.409q-.521.596-1.351.932-.823.33-1.903.329m8.074-.005a3.65 3.65 0 0 1-1.49-.29 2.4 2.4 0 0 1-1.03-.869c-.25-.387-.38-.868-.38-1.444q0-.727.27-1.221c.18-.33.42-.595.73-.796.3-.2.65-.352 1.04-.454.4-.102.81-.174 1.24-.216q.765-.08 1.23-.148c.31-.049.53-.121.67-.216a.47.47 0 0 0 .21-.42v-.034c0-.36-.11-.638-.34-.835-.22-.197-.54-.296-.95-.296-.44 0-.78.097-1.04.29a1.3 1.3 0 0 0-.51.716l-2.24-.182c.11-.53.34-.989.67-1.375q.495-.585 1.29-.898c.53-.212 1.14-.318 1.84-.318.48 0 .95.057 1.39.171.45.113.84.289 1.19.528s.62.545.82.92q.3.558.3 1.336V186h-2.29v-1.21h-.07c-.14.272-.33.513-.56.721-.24.205-.52.366-.85.483q-.495.171-1.14.171m.69-1.671c.36 0 .67-.07.95-.21.27-.144.48-.337.64-.579.15-.243.23-.518.23-.824v-.926c-.07.049-.18.094-.31.136-.13.038-.28.074-.44.108-.16.03-.32.059-.49.085l-.44.063c-.28.041-.53.108-.74.198-.22.091-.38.214-.5.37a.9.9 0 0 0-.18.568q0 .493.36.756c.25.17.55.255.92.255m10.74-7.221v1.818h-5.25v-1.818zm-4.06-2.091h2.42v8.136c0 .224.04.398.1.523.07.121.17.206.29.256.12.049.27.073.43.073.11 0 .23-.009.34-.028l.26-.051.38 1.801q-.18.056-.51.131c-.22.053-.48.085-.8.096q-.87.034-1.53-.233a2.1 2.1 0 0 1-1.02-.829q-.36-.563-.36-1.421zm8.25 5.773V186h-2.42v-11.636h2.35v4.448h.1q.3-.772.96-1.21.66-.443 1.65-.443.915 0 1.59.398.675.392 1.05 1.131c.26.488.38 1.073.38 1.755V186h-2.42v-5.125c0-.538-.13-.956-.41-1.256-.27-.299-.66-.449-1.15-.449q-.495 0-.87.211c-.25.14-.45.344-.59.613-.15.265-.22.586-.22.961m11.31-6.591h3.04l3.2 7.818h.14l3.2-7.818h3.04V186h-2.39v-7.574h-.1l-3.01 7.517h-1.62l-3.02-7.545h-.09V186h-2.39zm18.54 11.806c-.88 0-1.65-.187-2.29-.562a3.85 3.85 0 0 1-1.48-1.58c-.35-.678-.53-1.464-.53-2.358 0-.901.18-1.689.53-2.363.35-.678.84-1.205 1.48-1.58.64-.379 1.41-.568 2.29-.568q1.32 0 2.28.568a3.77 3.77 0 0 1 1.49 1.58c.35.674.53 1.462.53 2.363 0 .894-.18 1.68-.53 2.358a3.8 3.8 0 0 1-1.49 1.58q-.96.562-2.28.562m.01-1.875c.4 0 .74-.113 1.01-.34.27-.232.47-.546.61-.944q.21-.596.21-1.358 0-.76-.21-1.358c-.14-.397-.34-.712-.61-.943s-.61-.346-1.01-.346q-.6 0-1.02.346c-.27.231-.48.546-.62.943a4.1 4.1 0 0 0-.21 1.358q0 .762.21 1.358c.14.398.35.712.62.944q.42.34 1.02.34m8.28-3.34V186h-2.42v-8.727h2.31v1.539h.1c.19-.507.52-.909.97-1.204.45-.299 1.01-.449 1.65-.449q.915 0 1.59.398t1.05 1.136c.25.489.37 1.072.37 1.75V186h-2.42v-5.125c.01-.534-.13-.951-.4-1.25-.28-.303-.66-.455-1.15-.455-.32 0-.61.071-.86.211s-.44.344-.58.613q-.21.398-.21.961m7.53 5.045v-8.727h2.42V186zm1.22-9.852q-.54 0-.93-.358a1.175 1.175 0 0 1 0-1.728q.39-.363.93-.363c.36 0 .67.121.92.363q.39.358.39.858 0 .506-.39.87a1.3 1.3 0 0 1-.92.358m7.78 1.125v1.818h-5.25v-1.818zm-4.06-2.091h2.42v8.136c0 .224.04.398.1.523.07.121.17.206.29.256.12.049.27.073.43.073.11 0 .23-.009.34-.028.11-.023.2-.04.26-.051l.38 1.801q-.18.056-.51.131c-.22.053-.49.085-.8.096q-.87.034-1.53-.233a2.1 2.1 0 0 1-1.02-.829q-.36-.563-.36-1.421zm9.49 10.988c-.88 0-1.65-.187-2.29-.562a3.85 3.85 0 0 1-1.48-1.58c-.35-.678-.53-1.464-.53-2.358 0-.901.18-1.689.53-2.363.35-.678.84-1.205 1.48-1.58.64-.379 1.41-.568 2.29-.568q1.32 0 2.28.568a3.77 3.77 0 0 1 1.49 1.58c.35.674.53 1.462.53 2.363 0 .894-.18 1.68-.53 2.358a3.8 3.8 0 0 1-1.49 1.58q-.96.562-2.28.562m.01-1.875c.4 0 .74-.113 1.01-.34.27-.232.47-.546.61-.944q.21-.596.21-1.358 0-.76-.21-1.358c-.14-.397-.34-.712-.61-.943s-.61-.346-1.01-.346q-.6 0-1.02.346c-.27.231-.48.546-.62.943a4.1 4.1 0 0 0-.21 1.358q0 .762.21 1.358c.14.398.35.712.62.944q.42.34 1.02.34m5.86 1.705v-8.727h2.35v1.522h.09c.16-.541.42-.95.8-1.227q.555-.42 1.29-.42c.12 0 .26.007.4.022q.21.023.36.063v2.148a3 3 0 0 0-.47-.091c-.2-.027-.38-.04-.55-.04-.35 0-.67.078-.95.233q-.42.227-.66.636a1.83 1.83 0 0 0-.24.943V186zm13.81-6.239-2.22.137a1.2 1.2 0 0 0-.24-.512 1.3 1.3 0 0 0-.5-.369q-.3-.142-.72-.142c-.37 0-.69.08-.95.239-.25.155-.38.363-.38.625 0 .208.08.384.25.528.16.144.45.26.85.347l1.58.318c.85.174 1.48.454 1.9.841q.63.58.63 1.522 0 .858-.51 1.506c-.33.432-.79.769-1.37 1.011q-.87.358-2.01.358-1.74 0-2.76-.721a2.83 2.83 0 0 1-1.2-1.977l2.38-.125c.07.352.25.621.52.806.28.182.63.273 1.07.273q.63 0 1.02-.244c.26-.167.39-.381.4-.642-.01-.22-.1-.4-.28-.54q-.27-.216-.84-.33l-1.51-.301c-.86-.17-1.49-.466-1.91-.886-.41-.421-.62-.956-.62-1.608 0-.561.15-1.044.46-1.449q.45-.608 1.29-.937c.55-.22 1.21-.33 1.95-.33 1.1 0 1.97.233 2.6.699.64.466 1.01 1.1 1.12 1.903"/><path fill="#5E5E5E" d="M1127.85 238.035c.58-.586.58-1.536 0-2.122l-9.55-9.545a1.5 1.5 0 0 0-2.12 0 1.51 1.51 0 0 0 0 2.121l8.49 8.485-8.49 8.485a1.51 1.51 0 0 0 0 2.122c.59.586 1.54.586 2.12 0zm-988.212-15.511a1.5 1.5 0 0 0 0 3zm987.152 12.95H1040v3h86.79zm-112.29 25.5v56.791h3v-56.791zM992 340.265H291v3h701zm-723.5-22.5v-69.741h-3v69.741zM243 222.524H139.638v3H243zm25.5 25.5c0-14.083-11.417-25.5-25.5-25.5v3c12.426 0 22.5 10.074 22.5 22.5zm22.5 92.241c-12.426 0-22.5-10.074-22.5-22.5h-3c0 14.083 11.417 25.5 25.5 25.5zm723.5-22.5c0 12.426-10.07 22.5-22.5 22.5v3c14.08 0 25.5-11.417 25.5-25.5zm25.5-82.291c-14.08 0-25.5 11.417-25.5 25.5h3c0-12.426 10.07-22.5 22.5-22.5zm-901.422-43.77a1.5 1.5 0 0 0 0 2.121l9.545 9.546a1.5 1.5 0 0 0 2.122-2.121l-8.485-8.485 8.485-8.486a1.5 1.5 0 1 0-2.122-2.121zm228.483 2.121a1.5 1.5 0 0 0 0-2.121l-9.546-9.546a1.5 1.5 0 0 0-2.122 2.121l8.486 8.486-8.486 8.485a1.501 1.501 0 0 0 2.122 2.121zm-227.423.44H366v-3H139.638zm627.219-.94a1.5 1.5 0 0 0 0-2.121l-9.546-9.546a1.5 1.5 0 0 0-2.122 2.121l8.486 8.486-8.486 8.485a1.501 1.501 0 0 0 2.122 2.121zm-253.918-2.121a1.5 1.5 0 0 0 0 2.121l9.546 9.546a1.5 1.5 0 0 0 2.122-2.121l-8.486-8.485 8.486-8.486a1.501 1.501 0 0 0-2.122-2.121zm252.857-.439H514v3h251.796z"/></svg>