<svg xmlns="http://www.w3.org/2000/svg" width="1171" height="488" fill="none" viewBox="0 0 1171 488"><path fill="#fff" d="M0 0h1171v488H0z"/><path fill="#fff" stroke="#F6821F" stroke-width="2" d="M315 73h542v347H315z"/><path fill="#fff" d="M358 59h346v28H358z"/><path fill="#222" d="M398.878 66.656h-3.733a3.6 3.6 0 0 0-.418-1.287q-.315-.57-.809-.971a3.6 3.6 0 0 0-1.142-.614 4.4 4.4 0 0 0-1.39-.213q-1.355 0-2.36.673-1.007.665-1.56 1.944-.554 1.269-.554 3.085 0 1.867.554 3.136.563 1.27 1.568 1.918t2.327.647a4.6 4.6 0 0 0 1.372-.196q.639-.195 1.134-.57a3.3 3.3 0 0 0 .818-.93q.332-.545.46-1.244l3.733.017a6.8 6.8 0 0 1-.725 2.318q-.57 1.108-1.542 1.986-.963.87-2.301 1.38-1.33.504-3.009.504-2.335 0-4.176-1.057-1.832-1.057-2.898-3.06-1.056-2.002-1.056-4.85 0-2.855 1.073-4.857 1.074-2.004 2.915-3.051 1.84-1.057 4.142-1.057 1.517 0 2.813.426a7.1 7.1 0 0 1 2.309 1.244 6.4 6.4 0 0 1 1.637 1.986q.64 1.176.818 2.693m5.753-6.11V78H401V60.545zm8.367 17.71q-1.986 0-3.435-.844a5.77 5.77 0 0 1-2.224-2.37q-.784-1.524-.784-3.536 0-2.029.784-3.546a5.7 5.7 0 0 1 2.224-2.37q1.449-.85 3.435-.851 1.986 0 3.426.852a5.7 5.7 0 0 1 2.233 2.37q.784 1.515.784 3.545 0 2.01-.784 3.537a5.76 5.76 0 0 1-2.233 2.369q-1.44.843-3.426.844m.017-2.813q.903 0 1.508-.511.606-.52.912-1.415.316-.894.316-2.037 0-1.141-.316-2.037-.306-.894-.912-1.415-.605-.52-1.508-.52-.912 0-1.534.52-.614.52-.929 1.415-.307.895-.307 2.037t.307 2.037q.315.895.929 1.415.622.51 1.534.511m16.726-3.017V64.91h3.63V78h-3.485v-2.378h-.137a3.87 3.87 0 0 1-1.474 1.85q-1.023.699-2.497.699-1.312 0-2.31-.597t-1.56-1.696q-.553-1.1-.562-2.634V64.91h3.631v7.688q.008 1.158.622 1.832.613.673 1.645.673.655 0 1.227-.298a2.34 2.34 0 0 0 .92-.903q.358-.597.35-1.475m10.902 5.787a4.94 4.94 0 0 1-2.701-.767q-1.202-.775-1.909-2.275-.699-1.51-.699-3.7 0-2.25.724-3.74.725-1.5 1.926-2.242 1.21-.75 2.651-.75 1.1 0 1.832.375.742.365 1.193.92.46.546.699 1.074h.111v-6.563h3.622V78h-3.579v-2.097h-.154a4.7 4.7 0 0 1-.724 1.083q-.46.528-1.202.878-.732.35-1.79.35m1.151-2.89q.877 0 1.483-.476.613-.486.937-1.355.333-.87.333-2.038t-.324-2.028-.938-1.33q-.613-.468-1.491-.468-.895 0-1.509.486-.613.485-.929 1.346-.315.861-.315 1.995 0 1.14.315 2.02.324.869.929 1.363.614.486 1.509.486m15.867-10.414v2.727h-8.079V64.91zM451.431 78V63.963q0-1.424.554-2.36a3.56 3.56 0 0 1 1.534-1.407q.972-.469 2.207-.469.836 0 1.526.128.7.128 1.04.23l-.648 2.727a5 5 0 0 0-.528-.127 3.3 3.3 0 0 0-.631-.06q-.8 0-1.117.375-.315.366-.315 1.031V78zm11.623-17.455V78h-3.631V60.545zm6.185 17.702q-1.252 0-2.233-.434a3.6 3.6 0 0 1-1.551-1.305q-.562-.868-.562-2.164 0-1.09.4-1.833a3.24 3.24 0 0 1 1.091-1.193q.69-.451 1.568-.682.886-.23 1.858-.323 1.142-.12 1.841-.222.699-.111 1.014-.324t.316-.63v-.052q0-.81-.512-1.253-.502-.443-1.432-.443-.98 0-1.559.435a2 2 0 0 0-.767 1.074l-3.358-.273a4.56 4.56 0 0 1 1.005-2.062q.75-.879 1.935-1.347 1.193-.477 2.762-.477a8.4 8.4 0 0 1 2.088.255q1.005.255 1.781.793.784.537 1.236 1.38.451.835.451 2.004V78h-3.443v-1.815h-.102q-.316.614-.844 1.082a3.9 3.9 0 0 1-1.27.725q-.741.255-1.713.255m1.04-2.505q.801 0 1.415-.316.613-.323.963-.87a2.24 2.24 0 0 0 .349-1.235v-1.39q-.17.112-.469.205-.289.086-.656.162a32 32 0 0 1-.733.128l-.665.094a4.5 4.5 0 0 0-1.116.298 1.8 1.8 0 0 0-.741.554q-.265.34-.265.852 0 .743.537 1.134.546.383 1.381.383M478.972 78V64.91h3.52v2.283h.136q.359-1.219 1.202-1.84.844-.631 1.943-.631.273 0 .588.034.316.034.554.093v3.222a5 5 0 0 0-.707-.136 6 6 0 0 0-.827-.06q-.8 0-1.432.35a2.6 2.6 0 0 0-.988.954q-.358.614-.358 1.415V78zm14.721.256q-2.02 0-3.477-.819a5.6 5.6 0 0 1-2.233-2.335q-.784-1.516-.784-3.588 0-2.02.784-3.545a5.8 5.8 0 0 1 2.207-2.378q1.432-.852 3.358-.852 1.296 0 2.412.417 1.125.41 1.96 1.236.844.826 1.313 2.08.468 1.244.468 2.914v.998h-11.054v-2.25h7.637q0-.784-.341-1.39a2.44 2.44 0 0 0-.946-.946q-.597-.35-1.389-.35-.827 0-1.466.384-.631.376-.989 1.015-.358.63-.366 1.406v2.139q0 .971.358 1.679.366.708 1.031 1.09.665.385 1.577.385a3.4 3.4 0 0 0 1.108-.171q.503-.17.86-.511a2.2 2.2 0 0 0 .546-.836l3.358.222a4.6 4.6 0 0 1-1.049 2.114q-.783.894-2.028 1.397-1.236.495-2.855.495m24.662-12.068a3.8 3.8 0 0 0-.502-1.1 3.1 3.1 0 0 0-.793-.818 3.4 3.4 0 0 0-1.057-.52 4.5 4.5 0 0 0-1.304-.179q-1.338 0-2.352.665-1.005.664-1.568 1.935-.563 1.26-.563 3.085t.554 3.102q.555 1.278 1.568 1.952 1.015.664 2.395.664 1.254 0 2.14-.443a3.2 3.2 0 0 0 1.363-1.27q.477-.818.477-1.934l.75.11h-4.5V68.66h7.304v2.199q0 2.301-.971 3.954a6.63 6.63 0 0 1-2.676 2.54q-1.705.887-3.904.887-2.454 0-4.312-1.083-1.858-1.09-2.898-3.094-1.03-2.01-1.031-4.772 0-2.122.613-3.784.623-1.67 1.739-2.83a7.5 7.5 0 0 1 2.6-1.764q1.482-.606 3.213-.605 1.483 0 2.761.434a7.4 7.4 0 0 1 2.267 1.21 6.6 6.6 0 0 1 1.628 1.867q.63 1.074.809 2.37zm9.791-5.643V78h-3.631V60.545zm8.367 17.71q-1.986 0-3.435-.843a5.8 5.8 0 0 1-2.224-2.37q-.784-1.524-.784-3.536 0-2.029.784-3.546a5.7 5.7 0 0 1 2.224-2.37q1.449-.85 3.435-.851 1.986 0 3.426.852a5.7 5.7 0 0 1 2.233 2.37q.784 1.515.784 3.545 0 2.01-.784 3.537a5.76 5.76 0 0 1-2.233 2.369q-1.44.843-3.426.844m.017-2.812q.903 0 1.509-.511.604-.52.912-1.415.315-.894.315-2.037 0-1.141-.315-2.037-.308-.894-.912-1.415-.606-.52-1.509-.52-.912 0-1.534.52-.614.52-.929 1.415-.306.895-.307 2.037 0 1.141.307 2.037.315.895.929 1.415.622.51 1.534.511M544.929 78V60.545h3.631v6.563h.111a4.8 4.8 0 0 1 .69-1.074q.46-.555 1.193-.92.742-.375 1.841-.375 1.432 0 2.642.75 1.21.741 1.935 2.241.724 1.492.724 3.742 0 2.19-.707 3.699-.699 1.5-1.909 2.275-1.202.767-2.693.767-1.057 0-1.799-.35a3.7 3.7 0 0 1-1.201-.877 4.5 4.5 0 0 1-.716-1.083h-.162V78zm3.554-6.546q0 1.168.324 2.038.324.868.938 1.355.614.477 1.491.477.886 0 1.5-.486.614-.495.929-1.364.324-.877.324-2.02 0-1.133-.315-1.994-.316-.86-.929-1.346-.614-.486-1.509-.486-.886 0-1.5.469-.605.468-.929 1.33-.324.86-.324 2.027m14.913 6.793q-1.253 0-2.233-.434a3.6 3.6 0 0 1-1.551-1.305q-.563-.868-.563-2.164 0-1.09.401-1.833a3.24 3.24 0 0 1 1.091-1.193q.69-.451 1.568-.682.886-.23 1.858-.323 1.142-.12 1.841-.222.699-.111 1.014-.324t.315-.63v-.052q0-.81-.511-1.253-.503-.443-1.432-.443-.98 0-1.56.435a2 2 0 0 0-.767 1.074l-3.358-.273a4.6 4.6 0 0 1 1.006-2.062q.75-.879 1.935-1.347 1.193-.477 2.761-.477a8.4 8.4 0 0 1 2.088.255q1.006.255 1.782.793.783.537 1.235 1.38.452.835.452 2.004V78h-3.443v-1.815h-.102q-.316.614-.844 1.082a3.9 3.9 0 0 1-1.27.725q-.741.255-1.713.255m1.04-2.505q.8 0 1.414-.316a2.5 2.5 0 0 0 .963-.87q.35-.545.35-1.235v-1.39a2 2 0 0 1-.469.205 9 9 0 0 1-.656.162q-.367.068-.733.128l-.665.094a4.5 4.5 0 0 0-1.116.298 1.8 1.8 0 0 0-.742.554q-.264.34-.264.852 0 .743.537 1.134.546.383 1.381.383m12.323-15.197V78h-3.63V60.545zm22.219 0V78h-3.187l-7.594-10.986h-.128V78h-3.69V60.545h3.238l7.534 10.978h.154V60.546zm8.491 17.71q-2.02 0-3.477-.817a5.6 5.6 0 0 1-2.233-2.336q-.784-1.516-.784-3.588 0-2.02.784-3.545a5.8 5.8 0 0 1 2.207-2.378q1.432-.852 3.358-.852 1.296 0 2.412.417 1.125.41 1.96 1.236.844.826 1.313 2.08.468 1.244.468 2.914v.998h-11.054v-2.25h7.637q0-.784-.341-1.39a2.44 2.44 0 0 0-.946-.946q-.597-.35-1.389-.35-.827 0-1.466.384-.631.376-.989 1.015-.359.63-.366 1.406v2.139q0 .971.358 1.679.366.708 1.031 1.09.665.385 1.577.385a3.4 3.4 0 0 0 1.107-.171q.504-.17.861-.511a2.2 2.2 0 0 0 .546-.836l3.358.222a4.6 4.6 0 0 1-1.049 2.114q-.783.894-2.028 1.397-1.236.495-2.855.495m14.885-13.346v2.727h-7.884V64.91zm-6.094-3.136h3.631v12.204q0 .503.153.784.153.273.426.384.282.11.648.11.255 0 .511-.042l.392-.077.571 2.702a10 10 0 0 1-.767.196 6 6 0 0 1-1.201.145q-1.312.052-2.301-.35a3.2 3.2 0 0 1-1.526-1.244q-.546-.843-.537-2.13zM626.845 78l-3.562-13.09h3.673l2.028 8.795h.12l2.113-8.796h3.605l2.148 8.744h.111l1.994-8.744h3.665L639.186 78h-3.844l-2.25-8.233h-.162L630.68 78zm22.963.256q-1.986 0-3.435-.844a5.8 5.8 0 0 1-2.225-2.37q-.784-1.524-.784-3.536 0-2.029.784-3.546a5.7 5.7 0 0 1 2.225-2.37q1.449-.85 3.435-.851 1.985 0 3.426.852a5.7 5.7 0 0 1 2.233 2.37q.784 1.515.784 3.545 0 2.01-.784 3.537a5.76 5.76 0 0 1-2.233 2.369q-1.442.843-3.426.844m.017-2.813q.903 0 1.508-.511.605-.52.912-1.415.315-.894.315-2.037 0-1.141-.315-2.037-.307-.894-.912-1.415-.605-.52-1.508-.52-.912 0-1.535.52-.613.52-.928 1.415-.307.895-.307 2.037t.307 2.037q.315.895.928 1.415.623.51 1.535.511M658.156 78V64.91h3.519v2.283h.137q.358-1.219 1.201-1.84a3.16 3.16 0 0 1 1.944-.631q.272 0 .588.034t.554.093v3.222a5 5 0 0 0-.708-.136 6 6 0 0 0-.826-.06q-.801 0-1.432.35a2.57 2.57 0 0 0-.989.954q-.358.614-.358 1.415V78zm12.654-3.767.008-4.355h.529l4.193-4.969h4.167l-5.633 6.58h-.861zM667.52 78V60.545h3.631V78zm8.182 0-3.853-5.702 2.421-2.565L679.955 78z"/><path fill="#0055DC" d="M1026.03 116.233h-18.92a7.1 7.1 0 0 1-5.02-2.087 7.08 7.08 0 0 1-2.09-5.023c.01-1.052.25-2.09.7-3.041a7.25 7.25 0 0 1 1.9-2.474 6.82 6.82 0 0 1 4.85-1.594 9.64 9.64 0 0 1 10.12-5.94 9.63 9.63 0 0 1 8.36 8.234 5.8 5.8 0 0 1 4 1.361 6 6 0 0 1 1.88 3.05 6 6 0 0 1-.18 3.577 6.07 6.07 0 0 1-2.19 2.839 6.03 6.03 0 0 1-3.41 1.097zM1007 103.999a4.76 4.76 0 0 0-3.11 1.14 5.1 5.1 0 0 0-1.38 1.786c-.33.688-.5 1.438-.51 2.198 0 1.352.54 2.648 1.49 3.606a5.13 5.13 0 0 0 3.6 1.504h18.94a4 4 0 0 0 2.81-1.165 3.98 3.98 0 0 0 1.16-2.806c.01-.58-.11-1.153-.35-1.683a4 4 0 0 0-1.01-1.388 4.15 4.15 0 0 0-3.46-.808l-1.13.181-.03-1.141a7.6 7.6 0 0 0-1.96-4.889 7.63 7.63 0 0 0-9.79-1.331 7.6 7.6 0 0 0-3.19 4.19l-.26.843-.87-.153a5.4 5.4 0 0 0-.95-.084"/><path fill="#222" d="M1041.01 115.765v-11.636h7.84v2.028h-5.38v2.773h4.98v2.028h-4.98v2.778h5.41v2.029zm12-5.046v5.046h-2.42v-8.727h2.3v1.539h.11c.19-.507.51-.909.97-1.204q.675-.449 1.65-.449.915 0 1.59.398t1.05 1.136c.25.489.37 1.072.37 1.75v5.557h-2.42v-5.125c.01-.534-.13-.951-.41-1.25q-.405-.455-1.14-.455c-.33 0-.61.07-.86.211s-.44.344-.58.613q-.21.397-.21.96m10.57 5.188a3.3 3.3 0 0 1-1.8-.511c-.54-.345-.96-.851-1.27-1.517-.31-.671-.47-1.493-.47-2.466q0-1.5.48-2.495.48-.999 1.29-1.494a3.25 3.25 0 0 1 1.76-.5q.735 0 1.23.25c.33.163.59.367.79.614.21.242.36.481.47.716h.07v-4.375h2.42v11.636h-2.39v-1.398h-.1c-.12.243-.28.483-.49.722-.2.235-.47.43-.8.585-.32.155-.72.233-1.19.233m.77-1.926q.585 0 .99-.318c.27-.216.48-.517.62-.904.15-.386.22-.839.22-1.358q0-.778-.21-1.352-.225-.574-.63-.886t-.99-.313c-.4 0-.74.108-1.01.324a2 2 0 0 0-.62.898q-.21.573-.21 1.329 0 .762.21 1.347c.15.386.35.689.62.909.27.216.61.324 1.01.324m6.01 5.057v-12h2.39v1.466h.1c.11-.235.26-.474.46-.716.21-.247.47-.451.8-.614q.495-.25 1.23-.25a3.3 3.3 0 0 1 1.76.5q.81.495 1.29 1.494.48.995.48 2.495c0 .973-.16 1.795-.47 2.466-.31.666-.74 1.172-1.27 1.517a3.3 3.3 0 0 1-1.8.511q-.705 0-1.2-.233a2.6 2.6 0 0 1-.8-.585 3 3 0 0 1-.48-.722h-.07v4.671zm2.37-7.637c0 .519.07.972.22 1.358.14.387.35.688.62.904q.405.318.99.318c.4 0 .73-.108 1-.324.28-.22.48-.523.62-.909.15-.39.22-.839.22-1.347q0-.756-.21-1.329a2 2 0 0 0-.62-.898c-.27-.216-.61-.324-1.01-.324-.39 0-.72.104-1 .313a2 2 0 0 0-.61.886c-.15.383-.22.833-.22 1.352m11.52 4.534c-.88 0-1.64-.187-2.29-.562a3.85 3.85 0 0 1-1.48-1.58c-.35-.678-.52-1.464-.52-2.358 0-.901.17-1.689.52-2.363.35-.678.84-1.205 1.48-1.58.65-.379 1.41-.568 2.29-.568s1.65.189 2.29.568c.64.375 1.14.902 1.48 1.58.35.674.53 1.462.53 2.363 0 .894-.18 1.68-.53 2.358a3.8 3.8 0 0 1-1.48 1.58c-.64.375-1.41.562-2.29.562m.01-1.875c.4 0 .74-.113 1.01-.341.27-.231.47-.545.61-.943q.21-.596.21-1.358 0-.76-.21-1.358c-.14-.397-.34-.712-.61-.943s-.61-.346-1.01-.346q-.6 0-1.02.346c-.27.231-.48.546-.62.943-.14.398-.2.851-.2 1.358s.06.961.2 1.358.35.712.62.943q.42.341 1.02.341m5.69 1.705v-8.727h2.42v8.727zm1.21-9.852c-.36 0-.67-.12-.92-.358a1.15 1.15 0 0 1-.39-.87q0-.5.39-.858c.25-.242.56-.363.92-.363s.67.121.92.363q.39.359.39.858 0 .505-.39.87a1.3 1.3 0 0 1-.92.358m5.39 4.806v5.046h-2.42v-8.727h2.31v1.539h.1c.19-.507.51-.909.97-1.204.45-.299 1.01-.449 1.65-.449q.915 0 1.59.398t1.05 1.136c.25.489.37 1.072.37 1.75v5.557h-2.42v-5.125c.01-.534-.13-.951-.41-1.25q-.405-.455-1.14-.455c-.32 0-.61.07-.86.211s-.44.344-.58.613q-.21.397-.21.96m12-3.681v1.818h-5.26v-1.818zm-4.06-2.091h2.42v8.136c0 .224.03.398.1.523.07.121.16.206.28.255.13.05.27.074.43.074.12 0 .23-.009.34-.028l.27-.051.38 1.801q-.18.056-.51.131-.33.08-.81.096-.87.034-1.53-.233a2.16 2.16 0 0 1-1.02-.829c-.24-.375-.36-.849-.35-1.421zm12.61 4.579-2.22.137q-.045-.285-.24-.512a1.3 1.3 0 0 0-.49-.369c-.2-.095-.45-.142-.73-.142-.37 0-.69.079-.94.239q-.39.232-.39.625c0 .208.08.384.25.528s.45.259.86.347l1.58.318q1.275.26 1.89.841.63.58.63 1.522 0 .858-.51 1.506c-.33.432-.79.769-1.37 1.011q-.87.358-2.01.358-1.725 0-2.76-.721a2.83 2.83 0 0 1-1.2-1.978l2.38-.125c.08.353.25.622.53.807.27.182.63.273 1.06.273q.63 0 1.02-.244c.26-.167.4-.381.4-.642 0-.22-.1-.4-.28-.54q-.27-.216-.84-.33l-1.51-.301c-.85-.17-1.49-.466-1.9-.886-.42-.421-.62-.957-.62-1.608q0-.842.45-1.449.465-.608 1.29-.937.84-.33 1.95-.33c1.11 0 1.97.233 2.61.699q.945.699 1.11 1.903"/><path fill="#fff" stroke="#F6821F" stroke-width="2" d="M269 111h90v34h-90z"/><path fill="#222" d="M305.533 133v-11.636h2.46v9.608h4.988V133zm8.902 0v-11.636h4.659q1.284 0 2.142.38t1.29 1.057q.431.67.431 1.546 0 .681-.272 1.198a2.35 2.35 0 0 1-.75.841q-.472.324-1.08.461v.113q.664.029 1.245.375.585.347.948.972.364.62.364 1.477 0 .927-.46 1.654-.455.721-1.347 1.142t-2.199.42zm2.46-2.011h2.006q1.027 0 1.5-.392.471-.399.471-1.057 0-.483-.233-.852a1.6 1.6 0 0 0-.664-.58q-.427-.21-1.018-.21h-2.062zm0-4.756h1.824q.505 0 .898-.176.397-.182.625-.512.233-.33.233-.789 0-.632-.449-1.017-.444-.387-1.262-.387h-1.869z"/><path fill="#fff" stroke="#F6821F" stroke-width="2" d="M269 188h90v34h-90z"/><path fill="#222" d="M305.01 210v-11.636h2.46v9.608h4.989V210zm8.902 0v-11.636h4.659q1.284 0 2.142.38t1.29 1.057q.432.67.432 1.546 0 .681-.273 1.198a2.35 2.35 0 0 1-.75.841 3.1 3.1 0 0 1-1.08.461v.113a2.66 2.66 0 0 1 2.194 1.347q.363.62.363 1.477 0 .927-.46 1.654-.454.721-1.347 1.142-.891.42-2.198.42zm2.46-2.011h2.006q1.029 0 1.5-.392.471-.399.471-1.057 0-.483-.232-.852a1.6 1.6 0 0 0-.665-.58q-.426-.21-1.017-.21h-2.063zm0-4.756h1.824q.505 0 .898-.176.397-.182.625-.512.233-.33.233-.789 0-.631-.449-1.017-.444-.387-1.261-.387h-1.87z"/><path fill="#fff" stroke="#F6821F" stroke-width="2" d="M269 265h90v34h-90z"/><path fill="#222" d="M305.533 287v-11.636h2.46v9.608h4.988V287zm8.902 0v-11.636h4.659q1.284 0 2.142.38t1.29 1.057q.431.67.431 1.546 0 .682-.272 1.198a2.35 2.35 0 0 1-.75.841q-.472.324-1.08.461v.113q.664.028 1.245.375.585.346.948.972.364.62.364 1.477 0 .927-.46 1.654-.455.721-1.347 1.142t-2.199.42zm2.46-2.011h2.006q1.027 0 1.5-.392.471-.399.471-1.057 0-.483-.233-.852a1.6 1.6 0 0 0-.664-.58q-.427-.21-1.018-.21h-2.062zm0-4.756h1.824q.505 0 .898-.176.397-.182.625-.512.233-.33.233-.789 0-.631-.449-1.017-.444-.387-1.262-.387h-1.869z"/><path fill="#fff" stroke="#F6821F" stroke-width="2" d="M269 342h90v34h-90z"/><path fill="#222" d="M305.533 364v-11.636h2.46v9.608h4.988V364zm8.902 0v-11.636h4.659q1.284 0 2.142.38t1.29 1.057q.431.67.431 1.546 0 .682-.272 1.198a2.35 2.35 0 0 1-.75.841q-.472.324-1.08.461v.113q.664.028 1.245.375.585.346.948.972.364.62.364 1.477 0 .927-.46 1.654-.455.721-1.347 1.142t-2.199.42zm2.46-2.011h2.006q1.027 0 1.5-.392.471-.399.471-1.057 0-.483-.233-.852a1.6 1.6 0 0 0-.664-.58q-.427-.21-1.018-.21h-2.062zm0-4.756h1.824q.505 0 .898-.176.397-.182.625-.512.233-.33.233-.789 0-.632-.449-1.017-.444-.387-1.262-.387h-1.869z"/><path fill="#fff" stroke="#0055DC" stroke-width="2" d="M1001 125.765h151v256h-151z"/><path fill="#0055DC" d="M1030.51 137.963H1027v18.05h3.51zm91.49 0h-3.51v18.05h3.51z"/><path fill="#fff" stroke="#0055DC" stroke-miterlimit="10" stroke-width="1.5" d="M1035.31 159.229v3.426l78.38-.004v-3.426z"/><path fill="#C5EBF5" stroke="#0055DC" stroke-miterlimit="10" stroke-width="1.5" d="M1118.49 134.765h-87.98v24.461h87.98z"/><path fill="#fff" d="M1114.69 155.777v-17.564h-80.38v17.564z"/><path fill="#0055DC" d="M1040.83 143.173h-1.95v1.902h1.95zm0 5.725h-1.95v1.903h1.95zm2.67-3.016h-1.95v1.902h1.95zm2.37-2.709h-1.95v1.902h1.95zm0 5.725h-1.95v1.903h1.95zm2.52-3.016h-1.95v1.902h1.95zm2.98-2.709h-1.95v1.902h1.95zm0 5.725h-1.95v1.903h1.95zm2.52-3.016h-1.95v1.902h1.95zm3.06-2.709h-1.94v1.902h1.94zm0 5.725h-1.94v1.903h1.94zm2.37-3.016h-1.94v1.902h1.94zm2.67-2.709h-1.95v1.902h1.95zm0 5.725h-1.95v1.903h1.95zm2.22-3.016h-1.94v1.902h1.94zm2.82-2.709h-1.95v1.902h1.95zm0 5.725h-1.95v1.903h1.95zm2.07-3.016h-1.94v1.902h1.94zm39.21 3.475c1.33 0 2.41-1.057 2.41-2.361s-1.08-2.362-2.41-2.362c-1.34 0-2.42 1.058-2.42 2.362s1.08 2.361 2.42 2.361"/><path stroke="#0055DC" stroke-miterlimit="10" stroke-width="1.5" d="M1101.35 146.995h-25.6"/><path fill="#0055DC" d="M1030.51 172.963H1027v18.05h3.51zm91.49 0h-3.51v18.05h3.51z"/><path fill="#fff" stroke="#0055DC" stroke-miterlimit="10" stroke-width="1.5" d="M1035.31 194.229v3.426l78.38-.004v-3.426z"/><path fill="#C5EBF5" stroke="#0055DC" stroke-miterlimit="10" stroke-width="1.5" d="M1118.49 169.765h-87.98v24.461h87.98z"/><path fill="#fff" d="M1114.69 190.777v-17.564h-80.38v17.564z"/><path fill="#0055DC" d="M1040.83 178.173h-1.95v1.902h1.95zm0 5.725h-1.95v1.903h1.95zm2.67-3.016h-1.95v1.902h1.95zm2.37-2.709h-1.95v1.902h1.95zm0 5.725h-1.95v1.903h1.95zm2.52-3.016h-1.95v1.902h1.95zm2.98-2.709h-1.95v1.902h1.95zm0 5.725h-1.95v1.903h1.95zm2.52-3.016h-1.95v1.902h1.95zm3.06-2.709h-1.94v1.902h1.94zm0 5.725h-1.94v1.903h1.94zm2.37-3.016h-1.94v1.902h1.94zm2.67-2.709h-1.95v1.902h1.95zm0 5.725h-1.95v1.903h1.95zm2.22-3.016h-1.94v1.902h1.94zm2.82-2.709h-1.95v1.902h1.95zm0 5.725h-1.95v1.903h1.95zm2.07-3.016h-1.94v1.902h1.94zm39.21 3.475c1.33 0 2.41-1.057 2.41-2.361s-1.08-2.362-2.41-2.362c-1.34 0-2.42 1.058-2.42 2.362s1.08 2.361 2.42 2.361"/><path stroke="#0055DC" stroke-miterlimit="10" stroke-width="1.5" d="M1101.35 181.995h-25.6"/><path fill="#0055DC" d="M1030.51 208.078H1027v18.697h3.51zm91.49 0h-3.51v18.697h3.51z"/><path fill="#fff" stroke="#0055DC" stroke-miterlimit="10" stroke-width="1.5" d="M1035.31 230.107v3.548l78.38-.004v-3.549z"/><path fill="#C5EBF5" stroke="#0055DC" stroke-miterlimit="10" stroke-width="1.5" d="M1118.49 204.765h-87.98v25.339h87.98z"/><path fill="#fff" d="M1114.69 226.53v-18.193h-80.38v18.193z"/><path fill="#0055DC" d="M1040.83 213.474h-1.95v1.971h1.95zm0 5.931h-1.95v1.971h1.95zm2.67-3.125h-1.95v1.971h1.95zm2.37-2.806h-1.95v1.971h1.95zm0 5.931h-1.95v1.971h1.95zm2.52-3.125h-1.95v1.971h1.95zm2.98-2.806h-1.95v1.971h1.95zm0 5.931h-1.95v1.971h1.95zm2.52-3.125h-1.95v1.971h1.95zm3.06-2.806h-1.94v1.971h1.94zm0 5.931h-1.94v1.971h1.94zm2.37-3.125h-1.94v1.971h1.94zm2.67-2.806h-1.95v1.971h1.95zm0 5.931h-1.95v1.971h1.95zm2.22-3.125h-1.94v1.971h1.94zm2.82-2.806h-1.95v1.971h1.95zm0 5.931h-1.95v1.971h1.95zm2.07-3.125h-1.94v1.971h1.94zm39.21 3.6c1.33 0 2.41-1.095 2.41-2.446s-1.08-2.446-2.41-2.446c-1.34 0-2.42 1.095-2.42 2.446s1.08 2.446 2.42 2.446"/><path stroke="#0055DC" stroke-miterlimit="10" stroke-width="1.5" d="M1101.35 217.434h-25.6"/><path fill="#0055DC" d="M1030.51 243.963H1027v18.05h3.51zm91.49 0h-3.51v18.05h3.51z"/><path fill="#fff" stroke="#0055DC" stroke-miterlimit="10" stroke-width="1.5" d="M1035.31 265.229v3.426l78.38-.004v-3.426z"/><path fill="#C5EBF5" stroke="#0055DC" stroke-miterlimit="10" stroke-width="1.5" d="M1118.49 240.765h-87.98v24.461h87.98z"/><path fill="#fff" d="M1114.69 261.777v-17.564h-80.38v17.564z"/><path fill="#0055DC" d="M1040.83 249.173h-1.95v1.902h1.95zm0 5.725h-1.95v1.903h1.95zm2.67-3.016h-1.95v1.902h1.95zm2.37-2.709h-1.95v1.902h1.95zm0 5.725h-1.95v1.903h1.95zm2.52-3.016h-1.95v1.902h1.95zm2.98-2.709h-1.95v1.902h1.95zm0 5.725h-1.95v1.903h1.95zm2.52-3.016h-1.95v1.902h1.95zm3.06-2.709h-1.94v1.902h1.94zm0 5.725h-1.94v1.903h1.94zm2.37-3.016h-1.94v1.902h1.94zm2.67-2.709h-1.95v1.902h1.95zm0 5.725h-1.95v1.903h1.95zm2.22-3.016h-1.94v1.902h1.94zm2.82-2.709h-1.95v1.902h1.95zm0 5.725h-1.95v1.903h1.95zm2.07-3.016h-1.94v1.902h1.94zm39.21 3.475c1.33 0 2.41-1.057 2.41-2.361s-1.08-2.362-2.41-2.362c-1.34 0-2.42 1.058-2.42 2.362s1.08 2.361 2.42 2.361"/><path stroke="#0055DC" stroke-miterlimit="10" stroke-width="1.5" d="M1101.35 252.995h-25.6"/><path fill="#0055DC" d="M1030.51 278.963H1027v18.05h3.51zm91.49 0h-3.51v18.05h3.51z"/><path fill="#fff" stroke="#0055DC" stroke-miterlimit="10" stroke-width="1.5" d="M1035.31 300.229v3.426l78.38-.004v-3.426z"/><path fill="#C5EBF5" stroke="#0055DC" stroke-miterlimit="10" stroke-width="1.5" d="M1118.49 275.765h-87.98v24.461h87.98z"/><path fill="#fff" d="M1114.69 296.777v-17.564h-80.38v17.564z"/><path fill="#0055DC" d="M1040.83 284.173h-1.95v1.902h1.95zm0 5.725h-1.95v1.903h1.95zm2.67-3.016h-1.95v1.902h1.95zm2.37-2.709h-1.95v1.902h1.95zm0 5.725h-1.95v1.903h1.95zm2.52-3.016h-1.95v1.902h1.95zm2.98-2.709h-1.95v1.902h1.95zm0 5.725h-1.95v1.903h1.95zm2.52-3.016h-1.95v1.902h1.95zm3.06-2.709h-1.94v1.902h1.94zm0 5.725h-1.94v1.903h1.94zm2.37-3.016h-1.94v1.902h1.94zm2.67-2.709h-1.95v1.902h1.95zm0 5.725h-1.95v1.903h1.95zm2.22-3.016h-1.94v1.902h1.94zm2.82-2.709h-1.95v1.902h1.95zm0 5.725h-1.95v1.903h1.95zm2.07-3.016h-1.94v1.902h1.94zm39.21 3.475c1.33 0 2.41-1.057 2.41-2.361s-1.08-2.362-2.41-2.362c-1.34 0-2.42 1.058-2.42 2.362s1.08 2.361 2.42 2.361"/><path stroke="#0055DC" stroke-miterlimit="10" stroke-width="1.5" d="M1101.35 287.995h-25.6"/><path fill="#0055DC" d="M1030.51 313.963H1027v18.05h3.51zm91.49 0h-3.51v18.05h3.51z"/><path fill="#fff" stroke="#0055DC" stroke-miterlimit="10" stroke-width="1.5" d="M1035.31 335.229v3.426l78.38-.004v-3.426z"/><path fill="#C5EBF5" stroke="#0055DC" stroke-miterlimit="10" stroke-width="1.5" d="M1118.49 310.765h-87.98v24.461h87.98z"/><path fill="#fff" d="M1114.69 331.777v-17.564h-80.38v17.564z"/><path fill="#0055DC" d="M1040.83 319.173h-1.95v1.902h1.95zm0 5.725h-1.95v1.903h1.95zm2.67-3.016h-1.95v1.902h1.95zm2.37-2.709h-1.95v1.902h1.95zm0 5.725h-1.95v1.903h1.95zm2.52-3.016h-1.95v1.902h1.95zm2.98-2.709h-1.95v1.902h1.95zm0 5.725h-1.95v1.903h1.95zm2.52-3.016h-1.95v1.902h1.95zm3.06-2.709h-1.94v1.902h1.94zm0 5.725h-1.94v1.903h1.94zm2.37-3.016h-1.94v1.902h1.94zm2.67-2.709h-1.95v1.902h1.95zm0 5.725h-1.95v1.903h1.95zm2.22-3.016h-1.94v1.902h1.94zm2.82-2.709h-1.95v1.902h1.95zm0 5.725h-1.95v1.903h1.95zm2.07-3.016h-1.94v1.902h1.94zm39.21 3.475c1.33 0 2.41-1.057 2.41-2.361s-1.08-2.362-2.41-2.362c-1.34 0-2.42 1.058-2.42 2.362s1.08 2.361 2.42 2.361"/><path stroke="#0055DC" stroke-miterlimit="10" stroke-width="1.5" d="M1101.35 322.995h-25.6"/><path fill="#0055DC" d="M1030.51 348.963H1027v18.05h3.51zm91.49 0h-3.51v18.05h3.51z"/><path fill="#fff" stroke="#0055DC" stroke-miterlimit="10" stroke-width="1.5" d="M1035.31 370.229v3.426l78.38-.004v-3.426z"/><path fill="#C5EBF5" stroke="#0055DC" stroke-miterlimit="10" stroke-width="1.5" d="M1118.49 345.765h-87.98v24.461h87.98z"/><path fill="#fff" d="M1114.69 366.777v-17.564h-80.38v17.564z"/><path fill="#0055DC" d="M1040.83 354.173h-1.95v1.902h1.95zm0 5.725h-1.95v1.903h1.95zm2.67-3.016h-1.95v1.902h1.95zm2.37-2.709h-1.95v1.902h1.95zm0 5.725h-1.95v1.903h1.95zm2.52-3.016h-1.95v1.902h1.95zm2.98-2.709h-1.95v1.902h1.95zm0 5.725h-1.95v1.903h1.95zm2.52-3.016h-1.95v1.902h1.95zm3.06-2.709h-1.94v1.902h1.94zm0 5.725h-1.94v1.903h1.94zm2.37-3.016h-1.94v1.902h1.94zm2.67-2.709h-1.95v1.902h1.95zm0 5.725h-1.95v1.903h1.95zm2.22-3.016h-1.94v1.902h1.94zm2.82-2.709h-1.95v1.902h1.95zm0 5.725h-1.95v1.903h1.95zm2.07-3.016h-1.94v1.902h1.94zm39.21 3.475c1.33 0 2.41-1.057 2.41-2.361s-1.08-2.362-2.41-2.362c-1.34 0-2.42 1.058-2.42 2.362s1.08 2.361 2.42 2.361"/><path stroke="#0055DC" stroke-miterlimit="10" stroke-width="1.5" d="M1101.35 357.995h-25.6"/><path fill="#222" d="m161.142 70 3.618-7.16v-.059h-4.214v-1.508h6.123v1.53L163.047 70zm6.809 0v-6.545h1.73v1.154h.077a1.8 1.8 0 0 1 .682-.907q.476-.333 1.142-.333.674 0 1.146.337.473.333.631.903h.068a1.74 1.74 0 0 1 .724-.899q.53-.34 1.249-.34.916 0 1.487.583.575.58.575 1.645V70h-1.811v-4.044q0-.545-.289-.818a1.02 1.02 0 0 0-.725-.273q-.494 0-.771.315-.277.312-.277.823V70h-1.76v-4.082q0-.482-.277-.767-.273-.285-.72-.286-.303 0-.546.154-.238.149-.379.421-.141.27-.141.631V70zm16.391-4.679-1.662.102a.85.85 0 0 0-.183-.383 1 1 0 0 0-.371-.277 1.3 1.3 0 0 0-.541-.107q-.422 0-.711.18-.29.174-.29.468 0 .234.187.396.188.162.644.26l1.184.239q.955.195 1.424.63t.468 1.143q0 .643-.379 1.129-.375.486-1.031.758-.652.27-1.504.269-1.3 0-2.071-.541a2.1 2.1 0 0 1-.899-1.483l1.785-.094a.92.92 0 0 0 .392.605q.31.204.797.205.477 0 .767-.184.294-.187.298-.481a.5.5 0 0 0-.208-.405q-.205-.162-.631-.247l-1.134-.226q-.959-.192-1.427-.665-.465-.472-.465-1.206 0-.63.341-1.086.346-.457.967-.703.627-.248 1.466-.248 1.24 0 1.952.525.716.524.835 1.427m-24.175 132.145v-1.453l3.644-5.74h1.252v2.011h-.741l-2.297 3.635v.068h5.178v1.479zm4.189 1.534v-1.977l.034-.644v-6.106h1.73V199zm4.093 0v-6.545h1.73v1.154h.077q.204-.575.682-.907.477-.333 1.142-.333.673 0 1.146.337.473.333.631.903h.068q.2-.562.724-.899.53-.34 1.249-.341.916 0 1.487.584.575.58.575 1.645V199h-1.811v-4.044q0-.545-.289-.818a1.02 1.02 0 0 0-.725-.273q-.494 0-.771.315-.277.312-.277.823V199h-1.76v-4.082q0-.482-.277-.767-.273-.286-.72-.286-.303 0-.546.153-.238.15-.379.422a1.34 1.34 0 0 0-.141.631V199zm16.391-4.679-1.662.102a.85.85 0 0 0-.183-.383.96.96 0 0 0-.371-.277 1.25 1.25 0 0 0-.541-.107q-.422 0-.711.179-.29.175-.29.469 0 .234.187.396.188.162.644.26l1.184.239q.955.196 1.424.631.469.434.469 1.142 0 .643-.38 1.129-.375.486-1.031.758-.652.269-1.504.269-1.3 0-2.071-.541a2.1 2.1 0 0 1-.899-1.483l1.785-.094a.92.92 0 0 0 .392.605q.311.204.797.205.477 0 .767-.184.294-.187.298-.481a.5.5 0 0 0-.208-.405q-.205-.162-.631-.247l-1.134-.226q-.959-.191-1.427-.665-.465-.472-.465-1.206 0-.63.341-1.086.345-.456.968-.704.626-.246 1.465-.247 1.24 0 1.952.524.716.525.835 1.428m-22.154 252.798q-.903 0-1.611-.332a2.8 2.8 0 0 1-1.116-.916 2.35 2.35 0 0 1-.431-1.338h1.79q.03.507.426.822t.942.315q.434 0 .767-.191.336-.196.524-.541a1.64 1.64 0 0 0 .192-.802q0-.46-.196-.809a1.4 1.4 0 0 0-.533-.546 1.6 1.6 0 0 0-.78-.2 1.85 1.85 0 0 0-.745.158 1.35 1.35 0 0 0-.559.43l-1.64-.294.413-4.602h5.335v1.508h-3.814l-.225 2.186h.051q.23-.324.694-.537a2.5 2.5 0 0 1 1.04-.213q.788 0 1.406.371.619.37.976 1.019.359.643.354 1.482a2.96 2.96 0 0 1-.409 1.569 2.9 2.9 0 0 1-1.147 1.074q-.732.387-1.704.387m4.564-.119v-6.545h1.73v1.154h.077q.204-.575.681-.907t1.143-.333q.672 0 1.146.337.472.333.63.903h.069q.2-.562.724-.899.529-.34 1.249-.341.915 0 1.487.584.575.58.575 1.645V447h-1.811v-4.044q0-.546-.29-.818a1 1 0 0 0-.724-.273q-.495 0-.771.315-.277.312-.277.823V447h-1.76v-4.082q0-.482-.277-.767-.273-.286-.72-.286-.303 0-.546.153-.238.15-.379.422a1.34 1.34 0 0 0-.141.631V447zm16.391-4.679-1.662.102a.85.85 0 0 0-.183-.383.96.96 0 0 0-.371-.277 1.3 1.3 0 0 0-.541-.107q-.421 0-.712.179-.29.175-.289.469 0 .234.187.396.188.162.644.26l1.184.239q.955.196 1.424.631.468.434.468 1.142 0 .643-.379 1.129-.375.486-1.031.758-.652.269-1.504.269-1.3 0-2.071-.541a2.1 2.1 0 0 1-.9-1.483l1.786-.094a.92.92 0 0 0 .392.605q.31.205.797.205.477 0 .767-.184.294-.187.298-.481a.5.5 0 0 0-.209-.405q-.204-.162-.63-.247l-1.134-.226q-.959-.191-1.427-.665-.465-.472-.465-1.206 0-.63.341-1.086.346-.456.967-.704.627-.246 1.466-.247 1.24 0 1.952.524.716.525.835 1.428m-20.005-121.202q-.954 0-1.7-.328-.741-.331-1.172-.912a2.3 2.3 0 0 1-.439-1.346h1.858q.017.32.209.562.196.239.52.371t.729.132q.421 0 .745-.149.324-.15.507-.413.184-.265.184-.61 0-.35-.196-.618a1.25 1.25 0 0 0-.554-.426 2.2 2.2 0 0 0-.853-.153h-.813v-1.355h.813q.418 0 .738-.145.324-.145.502-.401.18-.26.179-.605a1.04 1.04 0 0 0-.592-.967 1.4 1.4 0 0 0-.648-.141q-.375 0-.686.136a1.2 1.2 0 0 0-.498.38 1 1 0 0 0-.201.579H160.5q.013-.754.43-1.329a2.8 2.8 0 0 1 1.125-.899 3.8 3.8 0 0 1 1.607-.329q.903 0 1.581.329.678.328 1.052.886.38.554.375 1.244.004.734-.456 1.223-.455.49-1.188.622v.069q.963.123 1.465.669.508.54.503 1.355.005.746-.43 1.325-.43.579-1.189.912-.758.332-1.739.332m4.702-.119v-6.545h1.73v1.154h.077q.204-.575.681-.907t1.142-.333q.673 0 1.147.337.472.333.63.903h.069q.2-.562.724-.899.528-.34 1.249-.341.915 0 1.487.584.575.58.575 1.645V321h-1.811v-4.044q0-.546-.29-.818a1 1 0 0 0-.724-.273q-.495 0-.772.315-.276.312-.277.823V321h-1.759v-4.082q0-.482-.277-.767-.273-.286-.721-.286-.302 0-.545.153-.239.15-.379.422a1.34 1.34 0 0 0-.141.631V321zm16.391-4.679-1.662.102a.85.85 0 0 0-.183-.383.96.96 0 0 0-.371-.277 1.3 1.3 0 0 0-.541-.107q-.422 0-.712.179-.29.175-.289.469 0 .234.187.396.188.162.643.26l1.185.239q.955.196 1.423.631.47.434.469 1.142 0 .643-.379 1.129-.375.486-1.031.758-.652.269-1.505.269-1.299 0-2.071-.541a2.1 2.1 0 0 1-.899-1.483l1.786-.094a.92.92 0 0 0 .392.605q.31.205.797.205.477 0 .767-.184.294-.187.298-.481a.5.5 0 0 0-.209-.405q-.204-.162-.63-.247l-1.134-.226q-.959-.191-1.428-.665-.464-.472-.464-1.206 0-.63.341-1.086.345-.456.967-.704.626-.246 1.466-.247 1.24 0 1.952.524.716.525.835 1.428M62.76 92.273V101h-1.845v-8.727zm3.3 4.943V101h-1.816v-6.546h1.73v1.155h.077q.218-.57.728-.903.512-.337 1.24-.337.682 0 1.19.299.506.298.788.852.28.55.281 1.312V101h-1.815v-3.844q.004-.6-.307-.937-.311-.34-.857-.341-.366 0-.647.157-.278.159-.435.46a1.6 1.6 0 0 0-.158.72m8.06 3.891q-.745 0-1.35-.384-.6-.388-.955-1.138-.35-.755-.35-1.85 0-1.125.363-1.87.363-.75.963-1.12.605-.376 1.326-.376.549 0 .916.188.37.183.596.46.23.272.35.537h.055v-3.281h1.811V101h-1.79v-1.048h-.076a2.3 2.3 0 0 1-.362.541 1.8 1.8 0 0 1-.601.439q-.367.175-.895.175m.576-1.445q.44 0 .742-.239.306-.243.468-.677.166-.435.166-1.019t-.162-1.014a1.46 1.46 0 0 0-.468-.665 1.2 1.2 0 0 0-.746-.234q-.448 0-.754.243-.308.243-.465.673t-.157.997q0 .572.157 1.01.162.435.465.682.306.243.754.243M79.338 101v-6.546h1.815V101zm.912-7.39a1 1 0 0 1-.695-.268.87.87 0 0 1-.286-.652q0-.375.286-.643a.98.98 0 0 1 .695-.273q.405 0 .69.273.29.268.29.643 0 .38-.29.652a.97.97 0 0 1-.69.269m4.224 7.514q-.627 0-1.117-.218a1.8 1.8 0 0 1-.775-.652q-.282-.435-.282-1.082 0-.547.2-.916.201-.371.546-.597t.784-.34q.443-.117.93-.163.57-.06.92-.11.35-.057.507-.163a.36.36 0 0 0 .157-.315v-.025q0-.406-.255-.627-.252-.22-.716-.221-.49 0-.78.217a1 1 0 0 0-.383.537l-1.68-.136q.129-.597.503-1.032.375-.439.968-.673.596-.24 1.38-.239.546 0 1.044.128.504.128.891.397.392.268.618.69.226.417.226 1.001V101h-1.722v-.908h-.05a1.9 1.9 0 0 1-.423.542 2 2 0 0 1-.635.362 2.6 2.6 0 0 1-.856.128m.52-1.253q.4 0 .707-.158.307-.162.482-.435a1.1 1.1 0 0 0 .174-.618v-.694a1 1 0 0 1-.234.102 4 4 0 0 1-.328.081q-.184.034-.367.064l-.332.047q-.32.046-.558.15a.9.9 0 0 0-.371.276.68.68 0 0 0-.132.426q0 .37.268.567.273.192.69.192M54.356 219.094a1.9 1.9 0 0 0-.251-.55 1.7 1.7 0 0 0-.925-.669 2.2 2.2 0 0 0-.652-.089q-.669 0-1.176.332-.503.332-.784.967-.282.631-.282 1.543t.277 1.551.784.976q.508.332 1.198.332.626 0 1.07-.221.447-.227.681-.635.24-.409.239-.968l.375.056h-2.25v-1.389h3.652v1.099q0 1.15-.486 1.977-.486.823-1.338 1.27-.852.443-1.952.443-1.227 0-2.156-.541a3.76 3.76 0 0 1-1.449-1.547q-.515-1.005-.515-2.386 0-1.061.306-1.892a4 4 0 0 1 .87-1.415q.558-.579 1.3-.882a4.2 4.2 0 0 1 1.606-.303q.742 0 1.38.218.64.213 1.134.605.5.392.814.933.315.537.405 1.185zm6.29 6.034q-1.009 0-1.738-.409a2.8 2.8 0 0 1-1.116-1.168q-.392-.759-.392-1.794 0-1.01.392-1.773t1.103-1.189q.716-.426 1.68-.426.647 0 1.205.209.563.204.98.618.422.414.657 1.04.234.622.234 1.457v.499h-5.527v-1.125h3.818a1.4 1.4 0 0 0-.17-.695 1.2 1.2 0 0 0-.473-.473 1.35 1.35 0 0 0-.695-.175q-.413 0-.733.192-.315.188-.494.507-.18.316-.183.703v1.07q0 .486.179.84.183.353.515.545.333.192.789.192.302 0 .554-.085a1.11 1.11 0 0 0 .703-.674l1.679.111q-.128.605-.524 1.057a2.64 2.64 0 0 1-1.015.699q-.617.246-1.427.247m4.19-.128v-6.545h1.76v1.142h.068q.18-.61.6-.921a1.58 1.58 0 0 1 .972-.315 2.6 2.6 0 0 1 .571.064v1.611a3.2 3.2 0 0 0-.767-.098q-.4 0-.716.174a1.3 1.3 0 0 0-.494.477q-.18.308-.179.708V225zm4.91 0v-6.545h1.73v1.154h.077q.204-.575.682-.907.477-.333 1.142-.333.673 0 1.146.337.473.333.63.903h.069q.2-.562.724-.899.53-.34 1.249-.341.915 0 1.487.584.575.58.575 1.645V225h-1.81v-4.044q0-.545-.29-.818a1 1 0 0 0-.725-.273q-.495 0-.771.315-.277.312-.277.823V225h-1.76v-4.082q0-.482-.277-.767-.273-.286-.72-.286-.303 0-.546.153-.238.15-.38.422-.14.269-.14.631V225zm12.812.124q-.627 0-1.117-.218a1.8 1.8 0 0 1-.775-.652q-.282-.435-.282-1.082 0-.546.2-.916.201-.37.546-.597.346-.225.784-.341.443-.115.93-.162.57-.06.92-.111.35-.054.507-.161a.36.36 0 0 0 .157-.316v-.025q0-.405-.255-.627-.252-.221-.716-.221-.49 0-.78.217a1 1 0 0 0-.384.537l-1.678-.137q.127-.596.502-1.031.375-.439.968-.673.596-.239 1.38-.239.546 0 1.044.128.503.127.891.396.391.269.618.691.225.417.226 1.001V225h-1.722v-.908h-.05a1.9 1.9 0 0 1-.423.542 2 2 0 0 1-.635.362 2.6 2.6 0 0 1-.856.128m.52-1.253q.4 0 .707-.158.307-.162.481-.435.175-.272.175-.617v-.695a1 1 0 0 1-.234.102 4 4 0 0 1-.328.081q-.183.034-.367.064l-.332.047q-.32.047-.558.149a.9.9 0 0 0-.371.277.68.68 0 0 0-.132.426q0 .37.268.567.273.192.69.192m6.39-2.655V225h-1.816v-6.545h1.73v1.154h.077a1.83 1.83 0 0 1 .729-.903q.51-.337 1.24-.337.68 0 1.189.299.506.298.788.852.281.55.281 1.312V225h-1.815v-3.844q.004-.6-.307-.937-.311-.341-.856-.341-.367 0-.648.158-.278.157-.435.46a1.6 1.6 0 0 0-.157.72m6.535 6.239a3.6 3.6 0 0 1-.647-.056 2.4 2.4 0 0 1-.495-.132l.41-1.355q.319.098.575.106a.73.73 0 0 0 .447-.119q.192-.127.311-.435l.107-.276-2.348-6.733h1.909l1.355 4.806h.068l1.368-4.806h1.922l-2.544 7.252a3 3 0 0 1-.499.921q-.31.396-.788.609-.477.218-1.15.218M40.823 343.273h1.845v5.667q0 .955-.456 1.671a3.05 3.05 0 0 1-1.265 1.116q-.814.396-1.897.397-1.086 0-1.9-.397a3.05 3.05 0 0 1-1.266-1.116q-.452-.716-.452-1.671v-5.667h1.846v5.51q0 .498.217.886.222.389.622.609.4.222.933.222.538 0 .934-.222.4-.22.617-.609.222-.387.222-.886zm5.145 4.943V352h-1.816v-6.545h1.73v1.154h.077a1.83 1.83 0 0 1 .729-.903q.51-.337 1.24-.337.68 0 1.189.299.507.298.788.852.281.55.281 1.312V352h-1.815v-3.844q.004-.6-.307-.937-.311-.341-.856-.341-.367 0-.648.158-.277.157-.435.46a1.6 1.6 0 0 0-.157.72M51.617 352v-6.545h1.815V352zm.912-7.389a1 1 0 0 1-.695-.269.87.87 0 0 1-.285-.652q0-.375.285-.643a.98.98 0 0 1 .695-.273q.405 0 .69.273.29.268.29.643a.86.86 0 0 1-.29.652.97.97 0 0 1-.69.269m5.84.844v1.363h-3.943v-1.363zm-3.048-1.569h1.816v6.103a.8.8 0 0 0 .076.392.42.42 0 0 0 .213.191.9.9 0 0 0 .324.056q.127 0 .256-.021l.196-.039.285 1.351q-.135.042-.383.098-.247.06-.601.072-.656.026-1.15-.174a1.6 1.6 0 0 1-.763-.622q-.273-.423-.269-1.066zm7.142 8.242q-1.01 0-1.738-.409a2.8 2.8 0 0 1-1.117-1.168q-.392-.759-.392-1.794 0-1.01.392-1.773.393-.762 1.104-1.189.716-.426 1.679-.426.648 0 1.206.209.563.204.98.618.422.413.656 1.04.234.622.234 1.457v.499h-5.526v-1.125h3.818a1.4 1.4 0 0 0-.17-.695 1.2 1.2 0 0 0-.474-.473 1.35 1.35 0 0 0-.694-.175q-.414 0-.733.192-.315.188-.495.507-.178.316-.183.703v1.07q0 .486.18.84.182.353.515.545.332.192.788.192.303 0 .554-.085t.43-.256.273-.418l1.68.111q-.128.605-.525 1.057a2.64 2.64 0 0 1-1.014.699q-.618.246-1.428.247m6.601-.021a2.47 2.47 0 0 1-1.35-.384q-.602-.388-.955-1.138-.35-.754-.35-1.849 0-1.125.362-1.871.363-.75.964-1.121.605-.375 1.325-.375.55 0 .916.188.37.183.597.46.23.273.35.537h.055v-3.281h1.81V352h-1.79v-1.048h-.076a2.3 2.3 0 0 1-.362.541 1.8 1.8 0 0 1-.601.439q-.367.175-.895.175m.575-1.445q.44 0 .742-.239a1.5 1.5 0 0 0 .469-.677q.165-.435.166-1.019 0-.583-.162-1.014a1.46 1.46 0 0 0-.469-.665 1.2 1.2 0 0 0-.746-.234q-.448 0-.754.243-.307.243-.464.673a2.9 2.9 0 0 0-.158.997q0 .572.158 1.01.162.435.464.682.307.243.754.243m12.188-4.879q-.05-.516-.439-.801t-1.053-.286q-.45 0-.762.128a1.07 1.07 0 0 0-.478.345.83.83 0 0 0-.162.503.7.7 0 0 0 .098.409q.111.174.303.303.192.123.443.217.252.09.537.153l.784.188q.57.128 1.049.341.477.212.826.524.35.311.541.733.197.421.2.967-.003.801-.408 1.389-.4.584-1.16.908-.753.32-1.82.32-1.056 0-1.84-.324a2.7 2.7 0 0 1-1.219-.959q-.434-.639-.456-1.581h1.786q.03.44.251.733.225.29.601.439a2.4 2.4 0 0 0 .857.145q.468 0 .814-.137.35-.136.54-.379a.88.88 0 0 0 .193-.558.72.72 0 0 0-.175-.494 1.3 1.3 0 0 0-.503-.341 5 5 0 0 0-.805-.256l-.95-.239q-1.104-.269-1.744-.839-.64-.572-.635-1.539-.003-.793.422-1.384.43-.593 1.18-.925t1.705-.333q.972 0 1.696.333.729.332 1.134.925.405.591.417 1.372zm6.576-.328v1.363h-3.942v-1.363zm-3.047-1.569h1.816v6.103a.8.8 0 0 0 .076.392.42.42 0 0 0 .213.191.9.9 0 0 0 .324.056q.128 0 .256-.021l.196-.039.285 1.351q-.135.042-.383.098a3 3 0 0 1-.6.072q-.657.026-1.151-.174a1.6 1.6 0 0 1-.763-.622q-.273-.423-.269-1.066zm6.096 8.238q-.626 0-1.116-.218a1.8 1.8 0 0 1-.776-.652q-.28-.434-.281-1.082 0-.546.2-.916.201-.37.546-.597.345-.225.784-.341a6 6 0 0 1 .929-.162q.57-.06.92-.111.35-.054.507-.161a.36.36 0 0 0 .158-.316v-.025q0-.405-.256-.627-.25-.221-.716-.221-.489 0-.78.217a1 1 0 0 0-.383.537l-1.679-.137q.128-.596.503-1.031.375-.438.967-.673.597-.239 1.38-.239.547 0 1.045.128.503.127.89.396.393.269.618.691.226.417.226 1.001V352h-1.721v-.908h-.051a1.9 1.9 0 0 1-.422.542 2 2 0 0 1-.635.362 2.6 2.6 0 0 1-.857.128m.52-1.253q.4 0 .708-.158.306-.162.481-.435.175-.272.175-.617v-.695a1 1 0 0 1-.235.102 4 4 0 0 1-.328.081q-.183.034-.366.064l-.333.047q-.32.047-.558.149a.9.9 0 0 0-.37.277.68.68 0 0 0-.133.426q0 .37.269.567.273.192.69.192m8.056-5.416v1.363h-3.942v-1.363zm-3.047-1.569h1.816v6.103a.8.8 0 0 0 .076.392.42.42 0 0 0 .213.191.9.9 0 0 0 .324.056q.128 0 .256-.021l.196-.039.286 1.351q-.137.042-.384.098a3 3 0 0 1-.6.072q-.657.026-1.151-.174a1.6 1.6 0 0 1-.763-.622q-.273-.423-.269-1.066zm7.142 8.242q-1.01 0-1.738-.409a2.8 2.8 0 0 1-1.117-1.168q-.392-.759-.392-1.794 0-1.01.392-1.773.393-.762 1.104-1.189.716-.426 1.679-.426.648 0 1.206.209.563.204.98.618.422.413.656 1.04.235.622.235 1.457v.499h-5.527v-1.125h3.818q0-.393-.171-.695a1.2 1.2 0 0 0-.473-.473 1.35 1.35 0 0 0-.694-.175q-.414 0-.733.192-.315.188-.494.507a1.43 1.43 0 0 0-.184.703v1.07q0 .486.179.84.183.353.516.545.332.192.788.192.303 0 .554-.085t.431-.256a1.1 1.1 0 0 0 .272-.418l1.679.111q-.128.605-.524 1.057a2.6 2.6 0 0 1-1.014.699q-.618.246-1.428.247m9.635-4.807-1.662.102a.85.85 0 0 0-.183-.383.96.96 0 0 0-.371-.277 1.3 1.3 0 0 0-.541-.107q-.422 0-.711.179-.29.175-.29.469 0 .234.187.396.188.162.644.26l1.184.239q.955.196 1.424.631.468.434.468 1.142 0 .643-.379 1.129-.375.486-1.031.758-.652.269-1.504.269-1.3 0-2.071-.541a2.1 2.1 0 0 1-.899-1.483l1.785-.094a.92.92 0 0 0 .392.605q.31.205.797.205.477 0 .767-.184.294-.187.298-.481a.5.5 0 0 0-.208-.405q-.205-.162-.631-.247l-1.134-.226q-.959-.191-1.427-.665-.465-.472-.465-1.206 0-.63.341-1.086.345-.456.968-.704.626-.246 1.465-.247 1.24 0 1.952.524.716.525.835 1.428M60.84 467.273h1.825v6.085q0 .843-.38 1.466-.375.622-1.044.959t-1.555.336a3.6 3.6 0 0 1-1.432-.277 2.3 2.3 0 0 1-1.014-.852q-.376-.575-.37-1.445h1.836q.008.346.14.593a.96.96 0 0 0 .371.375q.24.128.563.128.34 0 .575-.145.239-.15.362-.435.124-.286.124-.703zm5.182 8.851q-.626 0-1.116-.218a1.8 1.8 0 0 1-.776-.652q-.28-.434-.28-1.082 0-.546.2-.916t.545-.597q.346-.225.784-.341a6 6 0 0 1 .93-.162q.57-.06.92-.111.349-.054.507-.161a.36.36 0 0 0 .157-.316v-.025q0-.405-.255-.627-.252-.221-.716-.221-.49 0-.78.217a1 1 0 0 0-.384.537l-1.679-.137q.129-.596.503-1.031.375-.438.968-.673.596-.239 1.38-.239.546 0 1.044.128.503.127.89.396.393.269.619.691.226.417.226 1.001V476h-1.722v-.908h-.051a1.9 1.9 0 0 1-.422.542 2 2 0 0 1-.635.362 2.6 2.6 0 0 1-.857.128m.52-1.253q.4 0 .708-.158.306-.162.481-.435.175-.272.175-.617v-.695a1 1 0 0 1-.234.102 4 4 0 0 1-.328.081q-.184.034-.367.064l-.332.047q-.32.047-.558.149a.9.9 0 0 0-.371.277.68.68 0 0 0-.132.426q0 .37.268.567.273.192.69.192m4.575 3.584v-9h1.79v1.099h.08q.12-.264.346-.537.23-.277.597-.46.37-.188.92-.188.716 0 1.321.375.605.37.967 1.121.363.746.362 1.871 0 1.095-.353 1.849-.35.75-.955 1.138-.601.384-1.346.384-.529 0-.9-.175a1.9 1.9 0 0 1-.6-.439 2.2 2.2 0 0 1-.358-.541h-.056v3.503zm1.777-5.728q0 .584.162 1.019t.469.677q.306.239.745.239.444 0 .75-.243.308-.247.465-.682.162-.438.162-1.01 0-.567-.158-.997a1.5 1.5 0 0 0-.464-.673 1.18 1.18 0 0 0-.755-.243 1.2 1.2 0 0 0-.75.234 1.5 1.5 0 0 0-.464.665 2.9 2.9 0 0 0-.162 1.014m7.683 3.397q-.626 0-1.116-.218a1.8 1.8 0 0 1-.776-.652q-.28-.434-.281-1.082 0-.546.2-.916.201-.37.546-.597.345-.225.784-.341a6 6 0 0 1 .929-.162q.57-.06.92-.111.35-.054.507-.161a.36.36 0 0 0 .158-.316v-.025q0-.405-.256-.627-.25-.221-.716-.221-.489 0-.78.217a1 1 0 0 0-.383.537l-1.679-.137q.128-.596.503-1.031.375-.438.967-.673.597-.239 1.38-.239.547 0 1.045.128.503.127.89.396.393.269.618.691.226.417.226 1.001V476h-1.721v-.908h-.051a1.9 1.9 0 0 1-.422.542 2 2 0 0 1-.635.362 2.6 2.6 0 0 1-.857.128m.52-1.253q.4 0 .708-.158.306-.162.481-.435.175-.272.175-.617v-.695a1 1 0 0 1-.235.102 4 4 0 0 1-.328.081q-.183.034-.366.064l-.333.047q-.32.047-.558.149a.9.9 0 0 0-.37.277.68.68 0 0 0-.133.426q0 .37.269.567.273.192.69.192m6.39-2.655V476h-1.815v-6.545h1.73v1.154h.076a1.83 1.83 0 0 1 .73-.903q.51-.337 1.24-.337.681 0 1.188.299.507.298.788.852.282.55.282 1.312V476H89.89v-3.844q.004-.6-.306-.937-.311-.341-.857-.341-.366 0-.648.158-.277.157-.434.46a1.6 1.6 0 0 0-.158.72"/><path fill="#C5EBF5" fill-rule="evenodd" stroke="#0055DC" stroke-miterlimit="10" stroke-width="1.5" d="M119.241 395H31.397c-2.328 0-4.41 1.96-4.41 4.411v57.705h96.665v-57.705c0-2.451-2.083-4.411-4.411-4.411Z" clip-rule="evenodd"/><path fill="#0055DC" d="M75.258 399.288a.735.735 0 1 0 0-1.47.735.735 0 0 0 0 1.47"/><path fill="#fff" d="M127.45 461.526H23.066c-5.39 0-9.066-.857-9.066-1.592v-2.451c0-.245.245-.49.49-.49h121.414c.245 0 .49.245.49.49v2.451c.122.735-2.696 1.592-8.944 1.592"/><path stroke="#0055DC" stroke-miterlimit="10" stroke-width="1.5" d="M127.45 461.526H23.066c-5.39 0-9.066-.857-9.066-1.592v-2.451c0-.245.245-.49.49-.49h121.414c.245 0 .49.245.49.49v2.451c.122.735-2.696 1.592-8.944 1.592Z" clip-rule="evenodd"/><path fill="#C5EBF5" d="M136.516 457.483c0-.245-.245-.49-.49-.49H14.612c-.245 0-.49.245-.49.49v2.328h122.516v-2.328z"/><path stroke="#0055DC" stroke-miterlimit="10" stroke-width="1.5" d="M127.45 461.526H23.066c-5.39 0-9.066-.857-9.066-1.592v-2.451c0-.245.245-.49.49-.49h121.414c.245 0 .49.245.49.49v2.451c.122.735-2.696 1.592-8.944 1.592Z"/><path fill="#fff" d="M119.609 401.861H30.907v51.702h88.702z"/><path fill="#0055DC" fill-rule="evenodd" d="M88.612 457.238v.49c0 .368-.735.49-1.347.49H63.374c-.613 0-1.348-.122-1.348-.49v-.49" clip-rule="evenodd"/><path fill="#fff" stroke="#0055DC" stroke-miterlimit="10" stroke-width="1.5" d="M75.302 448.906c12.388 0 22.43-10.043 22.43-22.431s-10.042-22.43-22.43-22.43-22.43 10.042-22.43 22.43 10.042 22.431 22.43 22.431Z"/><path fill="#003682" d="M74.385 418.061a1 1 0 0 1 1.673 0l.318.486a1 1 0 0 0 1.42.265l.469-.336a1 1 0 0 1 1.56.603l.123.575a1 1 0 0 0 1.227.759l.561-.144a1 1 0 0 1 1.237 1.125l-.094.588a1 1 0 0 0 .869 1.15l.582.07a1 1 0 0 1 .746 1.494l-.3.519a1 1 0 0 0 .393 1.384l.525.28a1 1 0 0 1 .154 1.662l-.466.374a1 1 0 0 0-.133 1.432l.39.455a1 1 0 0 1-.457 1.605l-.564.178a1 1 0 0 0-.642 1.288l.2.564a1 1 0 0 1-1.007 1.333l-.582-.039a1 1 0 0 0-1.066.971l-.015.592a1 1 0 0 1-1.423.879l-.524-.244a1 1 0 0 0-1.346.521l-.224.539a1 1 0 0 1-1.645.307l-.4-.417a1 1 0 0 0-1.445 0l-.4.417a1 1 0 0 1-1.645-.307l-.224-.539a1 1 0 0 0-1.346-.521l-.524.244a1 1 0 0 1-1.422-.879l-.016-.592a1 1 0 0 0-1.066-.971l-.582.039a1 1 0 0 1-1.008-1.333l.2-.564a1 1 0 0 0-.641-1.288l-.564-.178a1 1 0 0 1-.457-1.605l.39-.455a1 1 0 0 0-.133-1.432l-.466-.374a1 1 0 0 1 .154-1.662l.525-.28a1 1 0 0 0 .394-1.384l-.3-.519a1 1 0 0 1 .745-1.494l.582-.07a1 1 0 0 0 .869-1.15l-.094-.588a1 1 0 0 1 1.237-1.125l.561.144a1 1 0 0 0 1.227-.759l.123-.575a1 1 0 0 1 1.56-.603l.47.336a1 1 0 0 0 1.419-.265z"/><path fill="#C5EBF5" stroke="#003682" stroke-miterlimit="10" stroke-width="1.5" d="M68.224 438.16a15.8 15.8 0 0 0 3.22-2.343v-5.92l7.799.092v5.568c.356.692 1.7 1.542 3.494 2.549 0 0-3.337 4.977-7.529 4.977-4.191 0-6.984-4.923-6.984-4.923Z"/><path fill="#0055DC" stroke="#003682" stroke-miterlimit="10" stroke-width="1.5" d="M75.303 448.906a22.35 22.35 0 0 0 15.06-5.808 35 35 0 0 0-7.583-4.953s-3.38 4.938-7.57 4.938c-4.192 0-7.007-4.875-7.007-4.875-2.573 1.451-5.729 2.816-8.094 4.763a22.35 22.35 0 0 0 15.194 5.935Z"/><path fill="#C5EBF5" stroke="#003682" stroke-miterlimit="10" stroke-width="1.5" d="M82.74 422.414a1.23 1.23 0 0 1 .615-.787 1.24 1.24 0 0 1 .996-.076c.975.294.426 3.834-2.298 3.708q.423-1.402.686-2.845Zm-14.877 0a1.27 1.27 0 0 0-1.148-.937 1.3 1.3 0 0 0-.518.074c-.85.345-.426 3.834 2.3 3.709a23 23 0 0 1-.634-2.846Z"/><path fill="#C5EBF5" stroke="#003682" stroke-miterlimit="10" stroke-width="1.5" d="M83.092 419.164c0 2.022-.74 6.14-2.04 8.626-.965 1.846-3.452 3.901-5.712 3.901s-4.491-2.055-5.712-3.9c-1.548-2.34-2.04-6.605-2.04-8.627a7.753 7.753 0 0 1 15.504 0Z"/><path fill="#003682" stroke="#003682" stroke-linejoin="round" stroke-width="1.5" d="M82.692 421.71c-.362-3.081-3.35-7.182-6.688-7.182l-.55-2.554 1.033 2.583c0 5.583-8.28 4.092-8.625 7.781l-.132-.132a22.4 22.4 0 0 1-.275-3.25c0-4.282 3.604-7.62 7.885-7.62a7.87 7.87 0 0 1 7.885 7.753 16 16 0 0 1-.436 3.157z"/><path stroke="#0055DC" stroke-miterlimit="10" stroke-width="1.5" d="M75.302 448.906c12.388 0 22.43-10.043 22.43-22.431s-10.042-22.43-22.43-22.43-22.43 10.042-22.43 22.43 10.042 22.431 22.43 22.431Z"/><path fill="#C5EBF5" fill-rule="evenodd" stroke="#0055DC" stroke-miterlimit="10" stroke-width="1.5" d="M121.487 15H29.264c-2.443 0-4.63 2.058-4.63 4.63v60.582h101.484V19.63c0-2.572-2.187-4.63-4.631-4.63Z" clip-rule="evenodd"/><path fill="#0055DC" d="M75.312 19.502a.772.772 0 1 0 0-1.544.772.772 0 0 0 0 1.544"/><path fill="#fff" d="M130.105 84.842H20.518c-5.66 0-9.518-.9-9.518-1.672v-2.572c0-.257.257-.515.514-.515H138.98c.257 0 .515.258.515.515v2.572c.128.772-2.83 1.672-9.39 1.672"/><path stroke="#0055DC" stroke-miterlimit="10" stroke-width="1.5" d="M130.105 84.842H20.518c-5.66 0-9.518-.9-9.518-1.672v-2.572c0-.257.257-.515.514-.515H138.98c.257 0 .515.258.515.515v2.572c.128.772-2.83 1.672-9.39 1.672Z" clip-rule="evenodd"/><path fill="#C5EBF5" d="M139.623 80.598c0-.257-.257-.515-.514-.515H11.643c-.257 0-.515.258-.515.515v2.444h128.624v-2.444z"/><path stroke="#0055DC" stroke-miterlimit="10" stroke-width="1.5" d="M130.105 84.842H20.518c-5.66 0-9.518-.9-9.518-1.672v-2.572c0-.257.257-.515.514-.515H138.98c.257 0 .515.258.515.515v2.572c.128.772-2.83 1.672-9.39 1.672Z"/><path fill="#fff" d="M121.873 22.203H28.75v54.279h93.123z"/><path fill="#0055DC" fill-rule="evenodd" d="M89.331 80.34v.515c0 .386-.771.515-1.414.515H62.835c-.643 0-1.415-.129-1.415-.515v-.514" clip-rule="evenodd"/><path fill="#CBE9F3" d="M88.014 64.783c-3.767-2-7.94-2.538-8.717-4.363-.589-1.383 0-6.012 0-6.012l-9.103-.095s.575 4.693 0 6.107c-.698 1.714-4.49 2.267-7.97 4.215"/><path stroke="#193979" stroke-miterlimit="10" stroke-width="1.5" d="M88.014 64.783c-3.767-2-7.94-2.538-8.717-4.363-.589-1.383 0-6.012 0-6.012l-9.103-.095s.575 4.693 0 6.107c-.698 1.714-4.49 2.267-7.97 4.215"/><path fill="#1B59D3" stroke="#0F387D" stroke-linecap="round" stroke-miterlimit="10" stroke-width="1.5" d="M75.204 69.545a19.55 19.55 0 0 0 12.81-4.761c-3.767-2-7.94-2.539-8.718-4.364a4 4 0 0 1-.229-1.193 23.6 23.6 0 0 1-4.328.464 23.5 23.5 0 0 1-4.325-.464c-.016.406-.09.808-.222 1.193-.697 1.715-4.489 2.268-7.97 4.216a19.55 19.55 0 0 0 12.982 4.909Z"/><path fill="#CBE9F3" d="M67.877 46.288c-.072-.588-.943-1.643-1.971-.966-1.006.66-.04 5.605 2.765 5.422"/><path stroke="#193979" stroke-miterlimit="10" stroke-width="1.5" d="M67.877 46.288c-.072-.588-.943-1.643-1.971-.966-1.006.66-.04 5.605 2.765 5.422"/><path fill="#CBE9F3" d="M81.647 46.288c.072-.588.943-1.643 1.97-.966 1.007.66.04 5.605-2.765 5.422"/><path stroke="#193979" stroke-miterlimit="10" stroke-width="1.5" d="M81.647 46.288c.072-.588.943-1.643 1.97-.966 1.007.66.04 5.605-2.765 5.422"/><path fill="#CBE9F3" stroke="#193979" stroke-miterlimit="10" stroke-width="1.5" d="M81.824 42.847a20.4 20.4 0 0 1-.656 5.747c-.268.948-.584 3.856-.948 4.61-.915 1.898-3.273 4.011-5.417 4.011s-4.258-2.112-5.417-4.011c-.443-.727-.795-3.639-1.07-4.608-.638-2.243-.534-4.297-.534-5.749 0-4.405 2.957-7.337 7.017-7.337s7.025 2.932 7.025 7.337Z"/><path fill="#0F387D" stroke="#0F387D" stroke-linejoin="round" stroke-width="1.5" d="M80.587 41.916s-7.255.683-10.566-1.703c0 0-.966 4.066-2.143 6.075 0 0-1.451-6.17.662-6.987 0 0-.175-3.422 3.599-4.299 0 0-.195.853.438.828.633-.024 5.66-2.922 9.247-.657 3.587 2.264.834 5.575.834 5.575s.097 3.498-.767 4.975l-.314 1.002s-.908-3.167-.99-4.81Z"/><path stroke="#1B59D3" stroke-miterlimit="10" stroke-width="1.5" d="M75.204 69.545c10.842 0 19.631-8.79 19.631-19.632s-8.789-19.63-19.63-19.63c-10.843 0-19.632 8.788-19.632 19.63 0 10.843 8.79 19.632 19.631 19.632Z"/><path stroke="#1B59D3" stroke-miterlimit="10" stroke-width="1.5" d="M75.204 69.545c10.842 0 19.631-8.79 19.631-19.632s-8.789-19.63-19.63-19.63c-10.843 0-19.632 8.788-19.632 19.63 0 10.843 8.79 19.632 19.631 19.632Z"/><path fill="#C5EBF5" fill-rule="evenodd" stroke="#0055DC" stroke-miterlimit="10" stroke-width="1.5" d="M121.487 267H29.264c-2.443 0-4.63 2.058-4.63 4.63v60.582h101.484V271.63c0-2.572-2.187-4.63-4.631-4.63Z" clip-rule="evenodd"/><path fill="#0055DC" d="M75.312 271.502a.772.772 0 1 0-.001-1.544.772.772 0 0 0 0 1.544"/><path fill="#fff" d="M130.105 336.842H20.518c-5.66 0-9.518-.9-9.518-1.672v-2.572c0-.257.257-.515.514-.515H138.98c.257 0 .515.258.515.515v2.572c.128.772-2.83 1.672-9.39 1.672"/><path stroke="#0055DC" stroke-miterlimit="10" stroke-width="1.5" d="M130.105 336.842H20.518c-5.66 0-9.518-.9-9.518-1.672v-2.572c0-.257.257-.515.514-.515H138.98c.257 0 .515.258.515.515v2.572c.128.772-2.83 1.672-9.39 1.672Z" clip-rule="evenodd"/><path fill="#C5EBF5" d="M139.623 332.598c0-.257-.257-.515-.514-.515H11.643c-.257 0-.515.258-.515.515v2.444h128.624v-2.444z"/><path stroke="#0055DC" stroke-miterlimit="10" stroke-width="1.5" d="M130.105 336.842H20.518c-5.66 0-9.518-.9-9.518-1.672v-2.572c0-.257.257-.515.514-.515H138.98c.257 0 .515.258.515.515v2.572c.128.772-2.83 1.672-9.39 1.672Z"/><path fill="#fff" d="M121.873 274.203H28.75v54.279h93.123z"/><path fill="#0055DC" fill-rule="evenodd" d="M89.331 332.341v.514c0 .386-.771.515-1.414.515H62.835c-.643 0-1.415-.129-1.415-.515v-.514" clip-rule="evenodd"/><path fill="#CBE9F3" d="M88.014 316.783c-3.767-2-7.94-2.538-8.717-4.363-.589-1.383 0-6.012 0-6.012l-9.103-.095s.575 4.693 0 6.107c-.698 1.714-4.49 2.267-7.97 4.214"/><path stroke="#193979" stroke-miterlimit="10" stroke-width="1.5" d="M88.014 316.783c-3.767-2-7.94-2.538-8.717-4.363-.589-1.383 0-6.012 0-6.012l-9.103-.095s.575 4.693 0 6.107c-.698 1.714-4.49 2.267-7.97 4.214"/><path fill="#1B59D3" stroke="#0F387D" stroke-linecap="round" stroke-miterlimit="10" stroke-width="1.5" d="M75.204 321.545a19.55 19.55 0 0 0 12.81-4.761c-3.767-2-7.94-2.539-8.718-4.364a4 4 0 0 1-.229-1.193 23.7 23.7 0 0 1-4.328.464 23.5 23.5 0 0 1-4.325-.464c-.016.406-.09.808-.222 1.193-.697 1.715-4.489 2.268-7.97 4.216a19.55 19.55 0 0 0 12.982 4.909Z"/><path fill="#CBE9F3" d="M67.877 298.287c-.072-.587-.943-1.642-1.971-.965-1.006.661-.04 5.606 2.765 5.422"/><path stroke="#193979" stroke-miterlimit="10" stroke-width="1.5" d="M67.877 298.287c-.072-.587-.943-1.642-1.971-.965-1.006.661-.04 5.606 2.765 5.422"/><path fill="#CBE9F3" d="M81.647 298.287c.072-.587.943-1.642 1.97-.965 1.007.661.04 5.606-2.765 5.422"/><path stroke="#193979" stroke-miterlimit="10" stroke-width="1.5" d="M81.647 298.287c.072-.587.943-1.642 1.97-.965 1.007.661.04 5.606-2.765 5.422"/><path fill="#CBE9F3" stroke="#193979" stroke-miterlimit="10" stroke-width="1.5" d="M81.824 294.847a20.4 20.4 0 0 1-.656 5.747c-.268.948-.584 3.856-.948 4.609-.915 1.899-3.273 4.012-5.417 4.012s-4.258-2.112-5.417-4.011c-.443-.727-.795-3.639-1.07-4.608-.638-2.243-.534-4.297-.534-5.749 0-4.405 2.957-7.337 7.017-7.337s7.025 2.932 7.025 7.337Z"/><path fill="#0F387D" stroke="#0F387D" stroke-linejoin="round" stroke-width="1.5" d="M80.587 293.916s-7.255.683-10.566-1.703c0 0-.966 4.066-2.143 6.074 0 0-1.451-6.168.662-6.986 0 0-.175-3.422 3.599-4.299 0 0-.195.853.438.828s5.66-2.922 9.247-.657c3.587 2.264.834 5.575.834 5.575s.097 3.498-.767 4.975l-.314 1.002s-.908-3.167-.99-4.809Z"/><path stroke="#1B59D3" stroke-miterlimit="10" stroke-width="1.5" d="M75.204 321.545c10.842 0 19.631-8.79 19.631-19.632s-8.789-19.631-19.63-19.631c-10.843 0-19.632 8.789-19.632 19.631s8.79 19.632 19.631 19.632Z"/><path stroke="#1B59D3" stroke-miterlimit="10" stroke-width="1.5" d="M75.204 321.545c10.842 0 19.631-8.79 19.631-19.632s-8.789-19.631-19.63-19.631c-10.843 0-19.632 8.789-19.632 19.631s8.79 19.632 19.631 19.632Z"/><path fill="#C5EBF5" fill-rule="evenodd" stroke="#0055DC" stroke-miterlimit="10" stroke-width="1.5" d="M119.241 143H31.397c-2.328 0-4.41 1.96-4.41 4.411v57.705h96.665v-57.705c0-2.451-2.083-4.411-4.411-4.411Z" clip-rule="evenodd"/><path fill="#0055DC" d="M75.258 147.288a.735.735 0 1 0 0-1.47.735.735 0 0 0 0 1.47"/><path fill="#fff" d="M127.45 209.526H23.066c-5.39 0-9.066-.857-9.066-1.592v-2.451c0-.245.245-.49.49-.49h121.414c.245 0 .49.245.49.49v2.451c.122.735-2.696 1.592-8.944 1.592"/><path stroke="#0055DC" stroke-miterlimit="10" stroke-width="1.5" d="M127.45 209.526H23.066c-5.39 0-9.066-.857-9.066-1.592v-2.451c0-.245.245-.49.49-.49h121.414c.245 0 .49.245.49.49v2.451c.122.735-2.696 1.592-8.944 1.592Z" clip-rule="evenodd"/><path fill="#C5EBF5" d="M136.516 205.483c0-.245-.245-.49-.49-.49H14.612c-.245 0-.49.245-.49.49v2.328h122.516v-2.328z"/><path stroke="#0055DC" stroke-miterlimit="10" stroke-width="1.5" d="M127.45 209.526H23.066c-5.39 0-9.066-.857-9.066-1.592v-2.451c0-.245.245-.49.49-.49h121.414c.245 0 .49.245.49.49v2.451c.122.735-2.696 1.592-8.944 1.592Z"/><path fill="#fff" d="M119.609 149.861H30.907v51.702h88.702z"/><path fill="#0055DC" fill-rule="evenodd" d="M88.612 205.238v.49c0 .368-.735.49-1.347.49H63.374c-.613 0-1.348-.122-1.348-.49v-.49" clip-rule="evenodd"/><path fill="#fff" stroke="#0055DC" stroke-miterlimit="10" stroke-width="1.5" d="M75.302 196.906c12.388 0 22.43-10.043 22.43-22.431s-10.042-22.43-22.43-22.43-22.43 10.042-22.43 22.43 10.042 22.431 22.43 22.431Z"/><path fill="#003682" d="M74.385 166.061a1 1 0 0 1 1.673 0l.318.486a1 1 0 0 0 1.42.265l.469-.336a1 1 0 0 1 1.56.603l.123.575a1 1 0 0 0 1.227.759l.561-.144a1 1 0 0 1 1.237 1.125l-.094.588a1 1 0 0 0 .869 1.15l.582.07a1 1 0 0 1 .746 1.494l-.3.519a1 1 0 0 0 .393 1.384l.525.28a1 1 0 0 1 .154 1.662l-.466.374a1 1 0 0 0-.133 1.432l.39.455a1 1 0 0 1-.457 1.605l-.564.178a1 1 0 0 0-.642 1.288l.2.564a1 1 0 0 1-1.007 1.333l-.582-.039a1 1 0 0 0-1.066.971l-.015.592a1 1 0 0 1-1.423.879l-.524-.244a1 1 0 0 0-1.346.521l-.224.539a1 1 0 0 1-1.645.307l-.4-.417a1 1 0 0 0-1.445 0l-.4.417a1 1 0 0 1-1.645-.307l-.224-.539a1 1 0 0 0-1.346-.521l-.524.244a1 1 0 0 1-1.422-.879l-.016-.592a1 1 0 0 0-1.066-.971l-.582.039a1 1 0 0 1-1.008-1.333l.2-.564a1 1 0 0 0-.641-1.288l-.564-.178a1 1 0 0 1-.457-1.605l.39-.455a1 1 0 0 0-.133-1.432l-.466-.374a1 1 0 0 1 .154-1.662l.525-.28a1 1 0 0 0 .394-1.384l-.3-.519a1 1 0 0 1 .745-1.494l.582-.07a1 1 0 0 0 .869-1.15l-.094-.588a1 1 0 0 1 1.237-1.125l.561.144a1 1 0 0 0 1.227-.759l.123-.575a1 1 0 0 1 1.56-.603l.47.336a1 1 0 0 0 1.419-.265z"/><path fill="#C5EBF5" stroke="#003682" stroke-miterlimit="10" stroke-width="1.5" d="M68.224 186.16a15.8 15.8 0 0 0 3.22-2.343v-5.92l7.799.092v5.568c.356.692 1.7 1.542 3.494 2.549 0 0-3.337 4.977-7.529 4.977-4.191 0-6.984-4.923-6.984-4.923Z"/><path fill="#0055DC" stroke="#003682" stroke-miterlimit="10" stroke-width="1.5" d="M75.303 196.906a22.35 22.35 0 0 0 15.06-5.808 35 35 0 0 0-7.583-4.953s-3.38 4.938-7.57 4.938c-4.192 0-7.007-4.875-7.007-4.875-2.573 1.451-5.729 2.816-8.094 4.763a22.35 22.35 0 0 0 15.194 5.935Z"/><path fill="#C5EBF5" stroke="#003682" stroke-miterlimit="10" stroke-width="1.5" d="M82.74 170.414a1.23 1.23 0 0 1 .615-.787 1.24 1.24 0 0 1 .996-.076c.975.294.426 3.834-2.298 3.708q.423-1.402.686-2.845Zm-14.877 0a1.27 1.27 0 0 0-1.148-.937 1.3 1.3 0 0 0-.518.074c-.85.345-.426 3.834 2.3 3.709a23 23 0 0 1-.634-2.846Z"/><path fill="#C5EBF5" stroke="#003682" stroke-miterlimit="10" stroke-width="1.5" d="M83.092 167.164c0 2.022-.74 6.14-2.04 8.626-.965 1.846-3.452 3.901-5.712 3.901s-4.491-2.055-5.712-3.9c-1.548-2.34-2.04-6.605-2.04-8.627a7.753 7.753 0 0 1 15.504 0Z"/><path fill="#003682" stroke="#003682" stroke-linejoin="round" stroke-width="1.5" d="M82.692 169.71c-.362-3.081-3.35-7.182-6.688-7.182l-.55-2.554 1.033 2.583c0 5.583-8.28 4.092-8.625 7.781l-.132-.132a22.4 22.4 0 0 1-.275-3.25c0-4.282 3.604-7.62 7.885-7.62a7.87 7.87 0 0 1 7.885 7.753 16 16 0 0 1-.436 3.157z"/><path stroke="#0055DC" stroke-miterlimit="10" stroke-width="1.5" d="M75.302 196.906c12.388 0 22.43-10.043 22.43-22.431s-10.042-22.43-22.43-22.43-22.43 10.042-22.43 22.43 10.042 22.431 22.43 22.431Z"/><path fill="#5E5E5E" d="M143.752 48.421a1.5 1.5 0 1 0 0 3zm121.831 80.14a1.5 1.5 0 0 0 0-2.122l-9.546-9.546a1.501 1.501 0 0 0-2.121 2.122l8.485 8.485-8.485 8.485a1.5 1.5 0 0 0 2.121 2.122zm-121.831-77.14h44.522v-3h-44.522zm67.022 22.5V103.5h3V73.921zm25.5 55.079h28.249v-3h-28.249zm-25.5-25.5c0 14.083 11.416 25.5 25.5 25.5v-3c-12.427 0-22.5-10.074-22.5-22.5zm-22.5-52.079c12.426 0 22.5 10.074 22.5 22.5h3c0-14.083-11.417-25.5-25.5-25.5zm808.787 203.405a1.5 1.5 0 0 0 0-2.122l-9.546-9.546a1.5 1.5 0 0 0-2.122 0 1.5 1.5 0 0 0 0 2.122l8.486 8.485-8.486 8.485a1.501 1.501 0 0 0 2.122 2.121zM996 252.265H782v3h214zm-236.5-22.5V151.5h-3v78.265zM734 126H364v3h370zm25.5 25.5c0-14.083-11.417-25.5-25.5-25.5v3c12.426 0 22.5 10.074 22.5 22.5zM782 252.265c-12.426 0-22.5-10.074-22.5-22.5h-3c0 14.083 11.417 25.5 25.5 25.5z"/><path fill="#5E5E5E" d="M997.061 254.826a1.5 1.5 0 0 0 0-2.122l-9.546-9.546a1.5 1.5 0 0 0-2.122 0 1.5 1.5 0 0 0 0 2.122l8.486 8.485-8.486 8.485a1.501 1.501 0 0 0 2.122 2.121zM996 252.265H683v3h313zm-335.5-22.5V228.5h-3v1.265zM635 203H363.477v3H635zm25.5 25.5c0-14.083-11.417-25.5-25.5-25.5v3c12.426 0 22.5 10.074 22.5 22.5zm22.5 23.765c-12.426 0-22.5-10.074-22.5-22.5h-3c0 14.083 11.417 25.5 25.5 25.5z"/><path fill="#5E5E5E" d="M997.061 254.826a1.5 1.5 0 0 0 0-2.122l-9.546-9.546a1.5 1.5 0 0 0-2.122 0 1.5 1.5 0 0 0 0 2.122l8.486 8.485-8.486 8.485a1.501 1.501 0 0 0 2.122 2.121zM462 267.632h1.5zm0 0h1.5zm534-15.367H475.868v3H996zM448.132 280H364v3h84.132zm12.368-12.368c0 6.831-5.537 12.368-12.368 12.368v3c8.488 0 15.368-6.88 15.368-15.368zm15.368-15.367c-8.488 0-15.368 6.88-15.368 15.367h3c0-6.83 5.537-12.367 12.368-12.367z"/><path fill="#5E5E5E" d="M997.061 254.826a1.5 1.5 0 0 0 0-2.122l-9.546-9.546a1.5 1.5 0 0 0-2.122 0 1.5 1.5 0 0 0 0 2.122l8.486 8.485-8.486 8.485a1.501 1.501 0 0 0 2.122 2.121zM996 252.265H579v3h417zm-442.5 25.5V334.5h3v-56.735zM531 357H364v3h167zm22.5-22.5c0 12.426-10.074 22.5-22.5 22.5v3c14.083 0 25.5-11.417 25.5-25.5zm25.5-82.235c-14.083 0-25.5 11.417-25.5 25.5h3c0-12.427 10.074-22.5 22.5-22.5zm-438.362-77.502a1.5 1.5 0 0 0 0 3zm124.423 30.798a1.5 1.5 0 0 0 0-2.122l-9.546-9.546a1.5 1.5 0 0 0-2.122 0 1.5 1.5 0 0 0 0 2.122l8.486 8.485-8.486 8.485a1.5 1.5 0 0 0 0 2.122 1.5 1.5 0 0 0 2.122 0zm-52.787-15.179h1.5zm0 0h1.5zm-71.636-12.619h57.517v-3h-57.517zM226.392 206H264v-3h-37.608zm-15.618-15.618c0 8.625 6.992 15.618 15.618 15.618v-3c-6.969 0-12.618-5.649-12.618-12.618zm-12.619-12.619c6.969 0 12.619 5.65 12.619 12.619h3c0-8.626-6.993-15.619-15.619-15.619zm-54.403 122.658a1.5 1.5 0 1 0 0 3zm121.831-17.86a1.5 1.5 0 0 0 0-2.122l-9.546-9.546a1.501 1.501 0 0 0-2.121 2.122l8.485 8.485-8.485 8.485a1.5 1.5 0 0 0 2.121 2.122zm-53.309 9.15h1.5zm0 0h1.5zm-68.522 11.71h58.311v-3h-58.311zM222.484 283h42.039v-3h-42.039zm-8.71 8.711a8.71 8.71 0 0 1 8.71-8.711v-3c-6.467 0-11.71 5.243-11.71 11.711zm-11.711 11.71c6.468 0 11.711-5.243 11.711-11.71h-3c0 4.81-3.9 8.71-8.711 8.71zm-61.425 123.342a1.5 1.5 0 0 0 0 3zm124.945-67.202a1.5 1.5 0 0 0 0-2.122l-9.546-9.546a1.501 1.501 0 0 0-2.121 2.122l8.485 8.485-8.485 8.485a1.5 1.5 0 0 0 2.121 2.122zm-124.945 70.202h47.636v-3h-47.636zm73.136-25.5V382.5h-3v21.763zm22.5-44.263h28.249v-3h-28.249zm-22.5 22.5c0-12.426 10.073-22.5 22.5-22.5v-3c-14.084 0-25.5 11.417-25.5 25.5zm-25.5 47.263c14.083 0 25.5-11.417 25.5-25.5h-3c0 12.427-10.074 22.5-22.5 22.5z"/><path fill="#fff" stroke="#F6821F" stroke-width="2" d="M587 281h261v129H587z"/><path fill="#222" d="M655.8 302v-11.636h2.461v4.801h4.994v-4.801h2.455V302h-2.455v-4.807h-4.994V302zm11.495-9.608v-2.028h9.557v2.028h-3.563V302h-2.432v-9.608zm10.687 0v-2.028h9.557v2.028h-3.562V302h-2.432v-9.608zM689.113 302v-11.636h4.591q1.323 0 2.256.505a3.43 3.43 0 0 1 1.42 1.392q.495.887.494 2.046 0 1.159-.5 2.045a3.45 3.45 0 0 1-1.449 1.381q-.943.494-2.284.494h-2.926v-1.971h2.529q.71 0 1.17-.245.466-.249.693-.687.233-.444.233-1.017 0-.58-.233-1.012a1.55 1.55 0 0 0-.693-.676q-.466-.244-1.182-.244h-1.659V302zm16.672-8.29q-.069-.687-.585-1.068-.518-.381-1.404-.381-.601 0-1.017.171a1.43 1.43 0 0 0-.636.46q-.216.295-.216.67a.95.95 0 0 0 .131.546q.147.233.403.403.255.165.591.29.335.12.716.205l1.045.25q.762.17 1.398.454t1.102.699.722.977q.261.563.267 1.29-.006 1.069-.546 1.852-.534.779-1.545 1.211-1.006.426-2.426.426-1.41 0-2.455-.432-1.04-.432-1.625-1.278-.58-.853-.608-2.108h2.381q.04.584.335.977.301.386.801.585.506.193 1.142.193.626 0 1.086-.182.465-.181.721-.505t.256-.745a.97.97 0 0 0-.233-.659q-.228-.267-.671-.454a7 7 0 0 0-1.073-.341l-1.267-.318q-1.472-.358-2.324-1.12-.852-.76-.847-2.051-.006-1.056.563-1.846.573-.79 1.573-1.233t2.273-.443q1.296 0 2.262.443.97.442 1.511 1.233.54.79.557 1.829zm8.363 2.472q0-2.114.563-3.892a10.8 10.8 0 0 1 1.733-3.296h2.312q-.443.563-.823 1.375a12 12 0 0 0-.665 1.773q-.284.966-.443 2-.16 1.029-.16 2.04 0 1.347.273 2.721.279 1.37.75 2.546.477 1.176 1.068 1.926h-2.312a10.8 10.8 0 0 1-1.733-3.295q-.563-1.779-.563-3.898m6.059 5.818v-11.636h2.46v9.608h4.989V302zm11.521.165q-.835 0-1.489-.29a2.4 2.4 0 0 1-1.034-.869q-.375-.58-.375-1.444 0-.727.267-1.221t.728-.796q.46-.3 1.045-.454a8 8 0 0 1 1.239-.216q.76-.08 1.227-.148.466-.073.676-.216a.47.47 0 0 0 .21-.42v-.034q0-.54-.341-.835-.335-.296-.954-.296-.654 0-1.04.29a1.33 1.33 0 0 0-.511.716l-2.239-.182a3.04 3.04 0 0 1 .671-1.375q.5-.585 1.289-.898.796-.318 1.841-.318.728 0 1.392.171.67.17 1.188.528.522.358.824.92.3.558.301 1.336V302h-2.296v-1.21h-.068q-.21.408-.562.721a2.6 2.6 0 0 1-.847.483 3.5 3.5 0 0 1-1.142.171m.693-1.671q.534 0 .943-.21a1.67 1.67 0 0 0 .642-.579q.233-.365.233-.824v-.926q-.113.073-.312.136a6 6 0 0 1-.438.108q-.244.046-.488.085l-.443.063a3 3 0 0 0-.745.198 1.2 1.2 0 0 0-.494.37.9.9 0 0 0-.176.568q0 .493.358.756.363.255.92.255m7.281 4.779q-.46 0-.863-.074a3.2 3.2 0 0 1-.659-.176l.545-1.807q.426.13.767.142a.97.97 0 0 0 .597-.159q.255-.17.415-.58l.142-.369-3.131-8.977h2.545l1.807 6.409h.091l1.824-6.409h2.562l-3.392 9.67q-.244.705-.664 1.227a2.7 2.7 0 0 1-1.051.813q-.637.29-1.535.29m11.577-3.103q-1.346 0-2.318-.545a3.73 3.73 0 0 1-1.489-1.557q-.522-1.01-.522-2.392 0-1.346.522-2.364a3.87 3.87 0 0 1 1.472-1.585q.954-.568 2.239-.568.863 0 1.607.279.75.272 1.307.823.563.552.875 1.387.313.829.313 1.943v.665h-7.37v-1.5h5.091q0-.524-.227-.926a1.6 1.6 0 0 0-.631-.631 1.8 1.8 0 0 0-.926-.233q-.55 0-.977.256-.42.25-.659.676-.239.42-.244.937v1.426q0 .648.238 1.12.244.472.688.727t1.051.256q.403 0 .739-.114a1.47 1.47 0 0 0 .937-.898l2.239.148a3.06 3.06 0 0 1-.699 1.409q-.523.597-1.352.932-.824.33-1.904.329m5.585-.17v-8.727h2.347v1.522h.091q.238-.811.801-1.227.563-.42 1.295-.42.182 0 .392.022a3 3 0 0 1 .37.063v2.148a3 3 0 0 0-.472-.091 4 4 0 0 0-.551-.04q-.534 0-.954.233a1.7 1.7 0 0 0-.66.636 1.84 1.84 0 0 0-.238.943V302zm10.688 0 4.824-9.545v-.08h-5.62v-2.011h8.165v2.039L770.092 302zm13.158-5.818q0 2.12-.569 3.898a10.6 10.6 0 0 1-1.727 3.295h-2.312q.443-.562.823-1.375.381-.813.665-1.773.284-.966.443-2t.159-2.045q0-1.347-.278-2.716a14 14 0 0 0-.75-2.546q-.471-1.176-1.062-1.926h2.312a10.7 10.7 0 0 1 1.727 3.296q.569 1.778.569 3.892"/><path fill="#fff" stroke="#F6821F" stroke-width="2" d="M595 376h117.875v24.927H595z"/><path fill="#222" d="m643.358 391.876-2.497-8.727h2.015l1.445 6.064h.072l1.594-6.064h1.726l1.59 6.076h.076l1.445-6.076h2.015l-2.497 8.727h-1.798l-1.662-5.706h-.068l-1.658 5.706zm10.962 0h-1.977l3.013-8.727h2.378l3.008 8.727h-1.977l-2.186-6.733h-.068zm-.123-3.431h4.67v1.441h-4.67zm7.464 3.431v-8.727h5.778v1.521h-3.933v2.079h3.55v1.522h-3.55v3.605z"/><path fill="#fff" stroke="#F6821F" stroke-width="2" d="M722 376h117.875v24.927H722z"/><path fill="#222" d="M746.871 391.876h-1.977l3.012-8.727h2.378l3.009 8.727h-1.977l-2.186-6.733h-.069zm-.124-3.431h4.671v1.441h-4.671zm7.464 3.431v-8.727h3.443q.993 0 1.692.379.699.375 1.066 1.044.37.664.37 1.534t-.375 1.534-1.086 1.036q-.708.37-1.713.37h-2.195v-1.478h1.896q.533 0 .878-.184.35-.187.52-.515a1.6 1.6 0 0 0 .175-.763q0-.435-.175-.759a1.18 1.18 0 0 0-.52-.507q-.35-.183-.886-.183h-1.245v7.219zm9.483-8.727v8.727h-1.845v-8.727zm9.818 2.821a1.9 1.9 0 0 0-.251-.55 1.7 1.7 0 0 0-.925-.669 2.2 2.2 0 0 0-.652-.09q-.669 0-1.176.333-.502.332-.784.967-.28.631-.281 1.543 0 .912.277 1.551.276.639.784.976.507.332 1.197.332.626 0 1.07-.222.447-.226.682-.634a1.9 1.9 0 0 0 .238-.968l.375.056h-2.25v-1.39h3.652v1.1q0 1.15-.485 1.977a3.3 3.3 0 0 1-1.339 1.27q-.852.443-1.951.443-1.227 0-2.156-.541a3.75 3.75 0 0 1-1.449-1.547q-.516-1.006-.516-2.386 0-1.062.307-1.892a4 4 0 0 1 .869-1.415q.559-.579 1.3-.882a4.2 4.2 0 0 1 1.606-.303q.742 0 1.381.218.639.212 1.134.605.498.392.814.933.315.537.404 1.185zm5.043 6.029q-.627 0-1.117-.217a1.8 1.8 0 0 1-.775-.652q-.282-.434-.282-1.082 0-.546.201-.916.2-.371.545-.597t.784-.341q.443-.115.929-.162.571-.06.921-.111.35-.055.507-.162a.36.36 0 0 0 .157-.315v-.026q0-.404-.255-.626-.251-.222-.716-.222-.49 0-.78.218a1 1 0 0 0-.383.537l-1.679-.137q.127-.596.502-1.031.375-.44.968-.673.596-.239 1.38-.239.546 0 1.044.128.504.127.891.396.392.268.618.691.226.417.226 1.001v4.415h-1.722v-.908h-.051a1.8 1.8 0 0 1-.422.541 1.9 1.9 0 0 1-.635.363 2.6 2.6 0 0 1-.856.127m.52-1.252q.4 0 .707-.158.307-.162.482-.435.174-.273.174-.618v-.694a1 1 0 0 1-.234.102 5 5 0 0 1-.695.145l-.332.047a2.2 2.2 0 0 0-.558.149.9.9 0 0 0-.371.277.68.68 0 0 0-.132.426q0 .37.268.567.273.192.691.192m7.924-5.417v1.364h-3.942v-1.364zm-3.047-1.568h1.815v6.102q0 .252.077.393.077.135.213.191a.9.9 0 0 0 .324.056q.127 0 .256-.022l.196-.038.285 1.351a6 6 0 0 1-.383.098q-.248.06-.601.072-.657.026-1.151-.174a1.6 1.6 0 0 1-.763-.623q-.272-.422-.268-1.065zm7.01 8.242q-1.01 0-1.739-.409a2.8 2.8 0 0 1-1.116-1.168q-.393-.759-.392-1.794 0-1.01.392-1.773a2.9 2.9 0 0 1 1.103-1.189q.716-.426 1.679-.426.648 0 1.206.209.563.204.981.618.422.413.656 1.04.234.621.234 1.457v.499h-5.527v-1.125h3.818q0-.393-.17-.695a1.2 1.2 0 0 0-.473-.473 1.36 1.36 0 0 0-.695-.175q-.413 0-.733.192-.315.188-.494.507-.178.315-.183.703v1.07q0 .486.179.839.183.354.515.546.333.192.789.192.302 0 .554-.086.251-.085.43-.255.178-.17.273-.418l1.679.111q-.128.605-.524 1.057-.393.447-1.015.699-.617.247-1.427.247m5.301-.128-1.781-6.546h1.837l1.014 4.398h.059l1.057-4.398h1.803l1.074 4.373h.055l.997-4.373h1.833l-1.777 6.546h-1.922l-1.125-4.117h-.081l-1.125 4.117zm10.65.123q-.625 0-1.116-.217a1.8 1.8 0 0 1-.776-.652q-.28-.434-.281-1.082 0-.546.2-.916.201-.371.546-.597t.784-.341q.443-.115.929-.162.571-.06.92-.111.35-.055.508-.162a.36.36 0 0 0 .157-.315v-.026q0-.404-.255-.626-.252-.222-.716-.222-.49 0-.78.218a1 1 0 0 0-.384.537l-1.679-.137q.129-.596.503-1.031.375-.44.967-.673.597-.239 1.381-.239.546 0 1.044.128.503.127.891.396.392.268.618.691.226.417.226 1.001v4.415h-1.722v-.908h-.051a1.8 1.8 0 0 1-.422.541 1.9 1.9 0 0 1-.635.363 2.6 2.6 0 0 1-.857.127m.52-1.252q.4 0 .708-.158.307-.162.481-.435.175-.273.175-.618v-.694a1 1 0 0 1-.234.102 5 5 0 0 1-.329.081q-.183.034-.366.064l-.332.047q-.32.047-.559.149a.9.9 0 0 0-.37.277.68.68 0 0 0-.132.426q0 .37.268.567.273.192.69.192m5.329 3.583q-.345 0-.647-.055a2.4 2.4 0 0 1-.495-.132l.409-1.355q.32.098.576.106a.73.73 0 0 0 .447-.119q.192-.128.311-.435l.107-.277-2.348-6.733h1.909l1.355 4.807h.068l1.368-4.807h1.922l-2.544 7.253a3 3 0 0 1-.499.921q-.31.396-.788.609-.477.217-1.151.217"/><path fill="#fff" stroke="#F6821F" stroke-width="2" d="M722 314h117.875v24.927H722z"/><path fill="#222" d="M732.838 330.624v-8.727h3.494q.964 0 1.607.285t.967.793q.324.502.324 1.159 0 .511-.204.899a1.8 1.8 0 0 1-.563.631 2.3 2.3 0 0 1-.809.345v.085q.498.021.933.281.439.261.711.729.273.465.273 1.108 0 .694-.345 1.24-.34.541-1.01.857t-1.649.315zm1.845-1.509h1.505q.771 0 1.125-.294a.99.99 0 0 0 .353-.792q0-.363-.174-.639a1.2 1.2 0 0 0-.499-.435 1.7 1.7 0 0 0-.763-.158h-1.547zm0-3.566h1.368q.38 0 .674-.132a1.1 1.1 0 0 0 .468-.384 1 1 0 0 0 .175-.592.96.96 0 0 0-.337-.763q-.332-.29-.946-.29h-1.402zm8.88 5.203q-.993 0-1.717-.422a2.9 2.9 0 0 1-1.112-1.185q-.393-.762-.393-1.768 0-1.014.393-1.773a2.85 2.85 0 0 1 1.112-1.185q.724-.426 1.717-.426t1.713.426q.724.422 1.117 1.185.392.759.392 1.773 0 1.006-.392 1.768a2.9 2.9 0 0 1-1.117 1.185q-.72.422-1.713.422m.009-1.407q.451 0 .754-.255.303-.26.456-.708.157-.447.157-1.018t-.157-1.019a1.6 1.6 0 0 0-.456-.707 1.12 1.12 0 0 0-.754-.26q-.456 0-.767.26-.308.26-.465.707a3.2 3.2 0 0 0-.153 1.019q0 .571.153 1.018.157.448.465.708.31.255.767.255m7.743-5.267v1.364h-3.942v-1.364zm-3.047-1.568h1.815v6.103a.8.8 0 0 0 .077.392q.076.135.213.191a.9.9 0 0 0 .324.056q.127 0 .255-.022l.196-.038.286 1.351a5 5 0 0 1-.384.098q-.247.06-.6.072-.657.026-1.151-.174a1.6 1.6 0 0 1-.763-.622q-.273-.423-.268-1.066zm6.777-.613h2.275l2.404 5.863h.102l2.403-5.863h2.276v8.727h-1.79v-5.68h-.072l-2.259 5.637h-1.219l-2.258-5.659h-.073v5.702h-1.789zm12.68 8.85q-.625 0-1.116-.217a1.8 1.8 0 0 1-.776-.652q-.28-.435-.281-1.082 0-.546.2-.916.201-.371.546-.597t.784-.341q.443-.115.929-.162.571-.06.92-.111.35-.056.507-.162a.35.35 0 0 0 .158-.315v-.025q0-.405-.256-.627-.251-.221-.715-.221-.49 0-.78.217a1 1 0 0 0-.384.537l-1.679-.137q.128-.596.503-1.031.375-.438.967-.673.597-.239 1.381-.239.546 0 1.044.128.502.127.891.396.391.268.618.691.225.417.225 1.001v4.415h-1.721v-.908h-.051a1.8 1.8 0 0 1-.422.541 1.9 1.9 0 0 1-.635.363 2.6 2.6 0 0 1-.857.127m.52-1.252q.4 0 .708-.158.306-.162.481-.435.175-.272.175-.618v-.694a1 1 0 0 1-.234.102 5 5 0 0 1-.329.081q-.183.034-.366.064l-.332.047q-.32.047-.559.149a.9.9 0 0 0-.37.277.68.68 0 0 0-.133.426q0 .37.269.567.273.192.69.192m6.258-2.655v3.784h-1.815v-6.546h1.73v1.155h.077q.217-.57.728-.903.512-.337 1.24-.337.682 0 1.189.299.507.297.789.852.28.55.281 1.312v4.168h-1.815v-3.844q.003-.6-.307-.937-.311-.341-.857-.341a1.3 1.3 0 0 0-.647.157q-.278.159-.435.461a1.6 1.6 0 0 0-.158.72m7.384 3.907q-.626 0-1.116-.217a1.8 1.8 0 0 1-.776-.652q-.28-.435-.281-1.082 0-.546.2-.916.201-.371.546-.597t.784-.341q.443-.115.929-.162.57-.06.92-.111.35-.056.507-.162a.36.36 0 0 0 .158-.315v-.025q0-.405-.256-.627-.25-.221-.716-.221-.489 0-.78.217a1 1 0 0 0-.383.537l-1.679-.137q.128-.596.503-1.031.375-.438.967-.673.597-.239 1.381-.239.545 0 1.044.128.503.127.891.396.392.268.617.691.226.417.226 1.001v4.415h-1.721v-.908h-.051a1.9 1.9 0 0 1-.422.541 1.9 1.9 0 0 1-.635.363 2.6 2.6 0 0 1-.857.127m.52-1.252q.4 0 .707-.158.308-.162.482-.435.175-.272.175-.618v-.694a1 1 0 0 1-.235.102 5 5 0 0 1-.328.081q-.183.034-.366.064l-.333.047a2.2 2.2 0 0 0-.558.149.9.9 0 0 0-.371.277.68.68 0 0 0-.132.426q0 .37.269.567.273.192.69.192m7.392 3.72q-.883 0-1.513-.243-.627-.239-.997-.652a2 2 0 0 1-.482-.929l1.679-.226q.077.196.243.367t.439.272q.276.107.673.107.592 0 .976-.29.388-.285.388-.959v-1.197h-.077a1.7 1.7 0 0 1-.358.515 1.8 1.8 0 0 1-.614.397q-.375.153-.894.153-.737 0-1.343-.341-.6-.345-.959-1.052-.353-.712-.353-1.799 0-1.111.362-1.858.361-.745.963-1.116a2.5 2.5 0 0 1 1.325-.371q.55 0 .921.188.37.183.596.46.231.273.354.537h.068v-1.1h1.803v6.61q0 .836-.409 1.398-.41.563-1.134.843-.72.286-1.657.286m.038-4.048q.439 0 .741-.218a1.4 1.4 0 0 0 .469-.63q.166-.414.166-.989 0-.576-.162-.997a1.46 1.46 0 0 0-.468-.661 1.2 1.2 0 0 0-.746-.234q-.447 0-.754.243-.308.238-.465.664a2.8 2.8 0 0 0-.158.985q0 .566.158.98.162.409.465.635.307.222.754.222m7.457 1.585q-1.01 0-1.738-.409a2.8 2.8 0 0 1-1.117-1.168q-.392-.759-.392-1.794 0-1.01.392-1.773a2.9 2.9 0 0 1 1.104-1.189q.716-.426 1.679-.426.648 0 1.206.209.563.204.98.618.422.413.656 1.04.235.621.235 1.457v.499h-5.527v-1.125h3.818q0-.392-.171-.695a1.2 1.2 0 0 0-.473-.473 1.35 1.35 0 0 0-.694-.175q-.414 0-.733.192-.315.188-.495.507-.178.315-.183.703v1.07q0 .486.179.839.183.354.516.546.332.192.788.192.303 0 .554-.086a1.15 1.15 0 0 0 .431-.255 1.1 1.1 0 0 0 .272-.418l1.679.111q-.128.605-.524 1.057a2.6 2.6 0 0 1-1.014.699q-.618.247-1.428.247m4.057-.128v-6.546h1.73v1.155h.077q.205-.575.682-.907t1.142-.333q.673 0 1.146.337.474.332.631.903h.068q.2-.562.725-.899.528-.34 1.248-.341.917 0 1.487.584.576.58.576 1.645v4.402h-1.811v-4.044q0-.546-.29-.818a1.02 1.02 0 0 0-.725-.273q-.494 0-.771.315-.277.312-.277.823v3.997h-1.76v-4.082q0-.482-.277-.768-.273-.285-.72-.285-.303 0-.546.153-.238.15-.379.422-.14.268-.14.631v3.929zm13.797.128q-1.01 0-1.739-.409a2.8 2.8 0 0 1-1.117-1.168q-.392-.759-.392-1.794 0-1.01.392-1.773.393-.762 1.104-1.189.716-.426 1.679-.426.648 0 1.206.209.563.204.98.618.422.413.656 1.04.235.621.235 1.457v.499h-5.527v-1.125h3.818q0-.392-.17-.695a1.23 1.23 0 0 0-.473-.473 1.36 1.36 0 0 0-.695-.175q-.414 0-.733.192-.315.188-.494.507-.18.315-.184.703v1.07q0 .486.179.839.184.354.516.546t.788.192q.303 0 .554-.086a1.15 1.15 0 0 0 .431-.255 1.1 1.1 0 0 0 .272-.418l1.679.111q-.128.605-.524 1.057a2.6 2.6 0 0 1-1.014.699q-.618.247-1.427.247m5.872-3.912v3.784h-1.816v-6.546h1.731v1.155h.076q.217-.57.729-.903.511-.337 1.24-.337.682 0 1.189.299.507.297.788.852.282.55.282 1.312v4.168h-1.816v-3.844q.005-.6-.307-.937-.311-.341-.856-.341-.366 0-.648.157a1.1 1.1 0 0 0-.435.461 1.6 1.6 0 0 0-.157.72m8.999-2.762v1.364h-3.942v-1.364zm-3.047-1.568h1.815v6.103a.8.8 0 0 0 .077.392q.077.135.213.191a.9.9 0 0 0 .324.056q.127 0 .256-.022l.196-.038.285 1.351a6 6 0 0 1-.383.098q-.247.06-.601.072-.657.026-1.151-.174a1.6 1.6 0 0 1-.763-.622q-.272-.423-.268-1.066z"/><path fill="#fff" stroke="#F6821F" stroke-width="2" d="M595 314h117.875v24.927H595z"/><path fill="#222" d="M641.987 329.876h-3.094v-8.727h3.119q1.317 0 2.267.524a3.53 3.53 0 0 1 1.462 1.495q.516.976.516 2.336 0 1.364-.516 2.343a3.55 3.55 0 0 1-1.47 1.505q-.955.524-2.284.524m-1.249-1.581h1.172q.819 0 1.376-.29a1.86 1.86 0 0 0 .844-.908q.286-.617.286-1.593 0-.967-.286-1.581a1.85 1.85 0 0 0-.839-.904q-.558-.29-1.377-.289h-1.176zm9.847 1.581h-3.094v-8.727h3.12q1.317 0 2.267.524a3.53 3.53 0 0 1 1.461 1.495q.516.976.516 2.336 0 1.364-.516 2.343a3.54 3.54 0 0 1-1.47 1.505q-.954.524-2.284.524m-1.248-1.581h1.172q.818 0 1.376-.29.562-.293.844-.908.285-.617.285-1.593 0-.967-.285-1.581a1.86 1.86 0 0 0-.84-.904q-.558-.29-1.376-.289h-1.176zm9.676 1.709q-.993 0-1.717-.422a2.9 2.9 0 0 1-1.112-1.185q-.392-.762-.392-1.768 0-1.014.392-1.773a2.85 2.85 0 0 1 1.112-1.185q.724-.426 1.717-.426t1.713.426q.724.422 1.117 1.185.392.759.392 1.773 0 1.005-.392 1.768a2.9 2.9 0 0 1-1.117 1.185q-.72.422-1.713.422m.009-1.407q.451 0 .754-.255.303-.26.456-.708.158-.447.158-1.018t-.158-1.019a1.6 1.6 0 0 0-.456-.707 1.12 1.12 0 0 0-.754-.26q-.456 0-.767.26-.308.26-.465.707a3.2 3.2 0 0 0-.153 1.019q0 .571.153 1.018.158.448.465.708.31.255.767.255m9.03-4.938a1.08 1.08 0 0 0-.439-.802q-.389-.285-1.053-.285-.451 0-.763.128a1.07 1.07 0 0 0-.477.345.83.83 0 0 0-.162.503.73.73 0 0 0 .098.409q.111.174.303.302.192.124.443.218.252.09.537.153l.784.188q.571.127 1.048.341.477.212.827.524.35.31.541.733.197.421.2.967-.003.801-.409 1.389-.4.584-1.159.908-.754.32-1.819.319-1.057 0-1.841-.323a2.7 2.7 0 0 1-1.219-.959q-.435-.639-.456-1.581h1.786q.029.438.251.733.226.29.601.439.38.144.856.145.47 0 .814-.137.35-.136.541-.379a.88.88 0 0 0 .192-.558.73.73 0 0 0-.174-.495 1.34 1.34 0 0 0-.503-.341 5 5 0 0 0-.806-.255l-.95-.239q-1.104-.269-1.743-.839-.64-.572-.635-1.539-.004-.792.422-1.385.43-.593 1.18-.924.75-.333 1.705-.333.972 0 1.696.333.729.331 1.134.924t.417 1.373z"/><path fill="#fff" stroke="#F6821F" stroke-width="2" d="M595 345h117.875v24.927H595z"/><path fill="#222" d="M645.554 360.74h-3.094v-8.727h3.119q1.317 0 2.267.524a3.53 3.53 0 0 1 1.462 1.495q.516.976.515 2.336 0 1.363-.515 2.343a3.55 3.55 0 0 1-1.47 1.505q-.955.524-2.284.524m-1.249-1.581h1.172q.818 0 1.376-.29a1.86 1.86 0 0 0 .844-.908q.285-.617.286-1.593 0-.967-.286-1.581a1.85 1.85 0 0 0-.839-.904q-.559-.29-1.377-.289h-1.176zm14.053-7.146v8.727h-1.594l-3.797-5.493h-.064v5.493h-1.845v-8.727h1.62l3.767 5.488h.076v-5.488zm6.127 2.51a1.08 1.08 0 0 0-.439-.802q-.388-.285-1.053-.285a2 2 0 0 0-.762.128 1.07 1.07 0 0 0-.478.345.83.83 0 0 0-.162.503.73.73 0 0 0 .098.409q.111.174.303.302.192.124.443.218.252.09.537.153l.784.188q.571.127 1.048.341.478.212.827.524.35.31.541.733.197.421.201.967-.005.801-.409 1.389-.4.584-1.16.908-.754.32-1.819.319-1.057 0-1.841-.323a2.7 2.7 0 0 1-1.219-.959q-.435-.639-.456-1.581h1.786q.03.438.251.733.226.29.601.439.379.144.857.145.468 0 .814-.137.348-.136.541-.379a.87.87 0 0 0 .191-.558.73.73 0 0 0-.174-.495 1.34 1.34 0 0 0-.503-.341 5 5 0 0 0-.805-.255l-.951-.239q-1.104-.269-1.743-.839-.639-.572-.635-1.539-.004-.792.422-1.385.43-.593 1.181-.924.75-.333 1.704-.333.972 0 1.696.333.729.331 1.134.924t.417 1.373z"/><path fill="#fff" stroke="#F6821F" stroke-width="2" d="M722 345h117.875v24.927H722z"/><path fill="#222" d="M747.703 355.068h-1.867a1.8 1.8 0 0 0-.208-.643 1.6 1.6 0 0 0-.405-.486 1.8 1.8 0 0 0-.571-.307 2.2 2.2 0 0 0-.695-.107q-.678 0-1.18.337-.503.332-.78.972-.277.635-.277 1.542 0 .933.277 1.568.281.636.784.959a2.1 2.1 0 0 0 1.163.324q.371 0 .686-.098.32-.098.567-.285.247-.192.409-.465.167-.273.23-.622l1.867.008a3.4 3.4 0 0 1-.362 1.16q-.286.554-.772.992-.481.435-1.15.691a4.2 4.2 0 0 1-1.504.251q-1.168 0-2.089-.528-.915-.528-1.448-1.53-.53-1.002-.529-2.425 0-1.427.537-2.429t1.458-1.525q.92-.53 2.071-.529.758 0 1.406.213.651.213 1.155.623.503.404.818.992.32.588.409 1.347m4.285 5.672h-3.094v-8.727h3.119q1.317 0 2.267.524a3.53 3.53 0 0 1 1.462 1.495q.516.976.516 2.336 0 1.363-.516 2.343a3.55 3.55 0 0 1-1.47 1.505q-.954.524-2.284.524m-1.249-1.581h1.172q.818 0 1.377-.29.563-.293.843-.908.286-.617.286-1.593 0-.967-.286-1.581a1.85 1.85 0 0 0-.839-.904q-.558-.29-1.377-.289h-1.176zm14.053-7.146v8.727h-1.593l-3.797-5.493h-.064v5.493h-1.845v-8.727h1.619l3.767 5.488h.077v-5.488zm7.805-.409-2.812 10.448h-1.564l2.812-10.448zm11.123 3.464h-1.867a1.8 1.8 0 0 0-.209-.643 1.6 1.6 0 0 0-.405-.486 1.8 1.8 0 0 0-.571-.307 2.2 2.2 0 0 0-.694-.107q-.678 0-1.181.337-.503.332-.779.972-.277.635-.277 1.542 0 .933.277 1.568.28.636.784.959a2.1 2.1 0 0 0 1.163.324q.37 0 .686-.098a1.8 1.8 0 0 0 .567-.285q.247-.192.409-.465.166-.273.23-.622l1.867.008q-.073.601-.363 1.16-.285.554-.771.992a3.6 3.6 0 0 1-1.151.691 4.2 4.2 0 0 1-1.504.251q-1.167 0-2.088-.528-.916-.528-1.449-1.53-.528-1.002-.528-2.425 0-1.427.537-2.429.536-1.001 1.457-1.525.92-.53 2.071-.529.76 0 1.406.213.652.213 1.155.623.503.404.818.992.32.588.41 1.347m3.023 5.795a2.7 2.7 0 0 1-1.116-.217 1.8 1.8 0 0 1-.776-.652q-.28-.434-.281-1.082 0-.546.2-.916.2-.371.545-.597t.785-.341q.443-.115.929-.162.57-.06.92-.111.35-.055.507-.162a.36.36 0 0 0 .158-.315v-.026q0-.404-.256-.626-.252-.222-.716-.222-.49 0-.78.218a1 1 0 0 0-.383.537l-1.679-.137q.128-.596.503-1.031.375-.438.967-.673.597-.239 1.381-.239.545 0 1.044.128.503.127.89.396.393.268.618.691.226.417.226 1.001v4.415h-1.721v-.908h-.052a1.8 1.8 0 0 1-.421.541 2 2 0 0 1-.635.363 2.6 2.6 0 0 1-.857.127m.52-1.252q.4 0 .707-.158.307-.162.482-.435.174-.273.175-.618v-.694a1 1 0 0 1-.235.102 5 5 0 0 1-.328.081q-.183.034-.366.064l-.333.047a2.2 2.2 0 0 0-.558.149.9.9 0 0 0-.371.277.68.68 0 0 0-.132.426q0 .37.269.567.272.192.69.192m7.4 1.257q-1.006 0-1.73-.426a2.9 2.9 0 0 1-1.108-1.194q-.384-.762-.384-1.755 0-1.007.388-1.764a2.9 2.9 0 0 1 1.112-1.189q.72-.43 1.713-.431.857 0 1.5.311.644.312 1.019.874t.413 1.321h-1.713q-.072-.49-.383-.788-.307-.303-.806-.303a1.22 1.22 0 0 0-.737.23q-.31.226-.486.661-.175.434-.175 1.052 0 .627.171 1.065.174.44.49.67.315.23.737.23.312 0 .558-.128.252-.128.414-.371.166-.247.217-.592h1.713q-.043.75-.409 1.321a2.47 2.47 0 0 1-1.001.886q-.64.32-1.513.32m5.769-3.912v3.784h-1.816v-8.727h1.765v3.336h.076q.222-.58.716-.907.495-.333 1.24-.333.682 0 1.189.298.511.295.793.848.285.55.281 1.317v4.168h-1.815v-3.844q.004-.604-.307-.942-.308-.336-.861-.336-.37 0-.656.157a1.1 1.1 0 0 0-.443.461 1.56 1.56 0 0 0-.162.72m5.541 3.784v-6.546h1.815v6.546zm.912-7.389a1 1 0 0 1-.695-.269.87.87 0 0 1-.285-.652q0-.375.285-.643a.98.98 0 0 1 .695-.273q.405 0 .69.273.29.268.29.643 0 .38-.29.652a.97.97 0 0 1-.69.269m4.041 3.605v3.784h-1.816v-6.546h1.73v1.155h.077q.217-.57.729-.903.511-.337 1.24-.337.681 0 1.189.298.507.298.788.853.281.55.281 1.312v4.168h-1.815v-3.844q.005-.6-.307-.937-.311-.341-.856-.341a1.3 1.3 0 0 0-.648.157q-.278.158-.435.461a1.6 1.6 0 0 0-.157.72m8.466 6.375q-.882 0-1.513-.243-.626-.239-.997-.652a2 2 0 0 1-.481-.929l1.678-.226q.078.196.243.367.166.17.439.272.277.107.674.107.592 0 .975-.29.388-.285.388-.959v-1.197h-.076q-.12.273-.358.515-.24.243-.614.397-.375.153-.895.153-.737 0-1.342-.341-.601-.345-.959-1.052-.354-.712-.354-1.799 0-1.111.362-1.858.363-.745.964-1.116a2.5 2.5 0 0 1 1.325-.371q.55 0 .92.188.37.183.597.46.23.273.354.537h.068v-1.1h1.802v6.61q0 .836-.409 1.398-.409.563-1.133.843-.72.286-1.658.286m.038-4.049q.44 0 .742-.217.306-.222.469-.631a2.7 2.7 0 0 0 .166-.988q0-.576-.162-.997a1.46 1.46 0 0 0-.469-.661 1.2 1.2 0 0 0-.746-.234q-.447 0-.754.243-.306.238-.464.664a2.8 2.8 0 0 0-.158.985q0 .566.158.98.161.409.464.635.307.222.754.221"/></svg>