<svg xmlns="http://www.w3.org/2000/svg" width="1329" height="638" fill="none" viewBox="0 0 1329 638"><path fill="#fff" d="M1329 0H0v638h1329z"/><path fill="#fff" stroke="#F6821F" stroke-width="2" d="M1133 44H280v556h853z"/><path fill="#fff" d="M703 30H357v28h346z"/><path fill="#222" d="M387.289 37.656h-3.732a3.7 3.7 0 0 0-.418-1.287q-.315-.57-.81-.971a3.6 3.6 0 0 0-1.142-.614 4.4 4.4 0 0 0-1.389-.213q-1.355 0-2.361.673-1.005.665-1.559 1.944-.555 1.269-.554 3.085 0 1.866.554 3.136.562 1.27 1.568 1.918t2.326.647q.742 0 1.373-.196a3.6 3.6 0 0 0 1.133-.57q.494-.384.818-.93.332-.545.461-1.244l3.732.017a6.8 6.8 0 0 1-.724 2.318 7 7 0 0 1-1.543 1.986q-.963.87-2.301 1.38-1.33.504-3.008.504-2.336 0-4.176-1.057-1.833-1.057-2.898-3.06-1.057-2.003-1.057-4.85 0-2.854 1.074-4.857 1.074-2.002 2.915-3.051 1.84-1.057 4.142-1.057 1.517 0 2.812.426 1.304.426 2.31 1.244a6.4 6.4 0 0 1 1.636 1.986q.64 1.176.818 2.693m5.753-6.11V49h-3.63V31.546zm8.367 17.71q-1.985 0-3.434-.844a5.8 5.8 0 0 1-2.225-2.37q-.784-1.524-.784-3.536 0-2.029.784-3.546a5.7 5.7 0 0 1 2.225-2.37q1.45-.85 3.434-.851 1.986 0 3.427.852a5.7 5.7 0 0 1 2.233 2.37q.784 1.515.784 3.545 0 2.01-.784 3.537a5.77 5.77 0 0 1-2.233 2.369q-1.441.843-3.427.844m.017-2.813q.905 0 1.509-.511.605-.52.912-1.415.315-.896.315-2.037t-.315-2.037q-.308-.894-.912-1.415-.604-.52-1.509-.52-.911 0-1.534.52-.613.52-.929 1.415-.306.896-.306 2.037t.306 2.037q.316.895.929 1.415.623.51 1.534.511m16.726-3.017V35.91h3.631V49h-3.486v-2.378h-.136a3.87 3.87 0 0 1-1.475 1.85q-1.022.698-2.497.698-1.313 0-2.309-.596-.997-.597-1.56-1.696-.554-1.1-.563-2.634V35.91h3.631v7.688q.009 1.158.622 1.832.614.673 1.645.673.657 0 1.227-.298.571-.307.921-.903.358-.597.349-1.475m10.903 5.787a4.94 4.94 0 0 1-2.702-.767q-1.201-.776-1.909-2.276-.699-1.508-.699-3.698 0-2.25.725-3.742.725-1.5 1.926-2.241 1.21-.75 2.65-.75 1.1 0 1.833.375.741.365 1.193.92.46.546.699 1.074h.111v-6.562h3.622V49h-3.58v-2.097h-.153a4.7 4.7 0 0 1-.725 1.083q-.46.528-1.201.878-.733.35-1.79.35m1.151-2.89q.877 0 1.482-.476.615-.486.938-1.355.332-.87.332-2.037 0-1.168-.323-2.029-.324-.86-.938-1.33-.613-.468-1.491-.468-.895 0-1.509.486-.614.485-.929 1.346t-.315 1.995q0 1.14.315 2.02.324.868.929 1.363.613.486 1.509.486m15.867-10.414v2.727h-8.08V35.91zM439.843 49V34.963q0-1.424.554-2.36a3.56 3.56 0 0 1 1.534-1.407q.97-.469 2.207-.469.835 0 1.526.128.699.128 1.039.23l-.647 2.727a5 5 0 0 0-.529-.127 3.3 3.3 0 0 0-.63-.06q-.802 0-1.117.375-.315.366-.315 1.031V49zm11.622-17.454V49h-3.63V31.546zm6.186 17.701q-1.253 0-2.233-.434a3.6 3.6 0 0 1-1.551-1.305q-.563-.868-.563-2.164 0-1.09.401-1.833.4-.741 1.091-1.193.69-.451 1.568-.682.886-.23 1.858-.324 1.142-.119 1.841-.221.699-.111 1.014-.324t.315-.63v-.052q0-.81-.511-1.253-.503-.443-1.432-.443-.98 0-1.56.435a2 2 0 0 0-.767 1.074l-3.358-.273a4.6 4.6 0 0 1 1.006-2.062q.75-.879 1.935-1.347 1.193-.477 2.761-.477a8.4 8.4 0 0 1 2.088.255q1.006.256 1.781.793a3.85 3.85 0 0 1 1.236 1.38q.452.836.452 2.003V49h-3.443v-1.815h-.103q-.315.614-.843 1.082a3.9 3.9 0 0 1-1.27.724q-.742.256-1.713.256m1.04-2.505q.8 0 1.414-.316.613-.324.963-.87.35-.545.35-1.235v-1.39a2 2 0 0 1-.469.205 9 9 0 0 1-.656.162q-.367.069-.733.128l-.665.094a4.5 4.5 0 0 0-1.116.298 1.8 1.8 0 0 0-.742.554q-.264.34-.264.852 0 .742.537 1.134.545.384 1.381.384M467.384 49V35.91h3.52v2.283h.136q.358-1.218 1.202-1.84.843-.631 1.943-.631.273 0 .588.034t.554.093v3.222a5 5 0 0 0-.708-.136 6 6 0 0 0-.826-.06q-.801 0-1.432.35a2.6 2.6 0 0 0-.989.954q-.358.614-.358 1.415V49zm14.721.256q-2.02 0-3.478-.819a5.6 5.6 0 0 1-2.233-2.335q-.784-1.516-.784-3.588 0-2.02.784-3.545a5.8 5.8 0 0 1 2.208-2.378q1.432-.852 3.358-.852 1.295 0 2.412.417 1.125.41 1.96 1.236.844.826 1.312 2.08.47 1.244.469 2.914v.997h-11.054v-2.25h7.636q0-.783-.34-1.389a2.45 2.45 0 0 0-.946-.946q-.597-.35-1.39-.35-.826 0-1.466.384-.63.375-.988 1.015-.358.63-.367 1.406v2.139q0 .972.358 1.679.367.708 1.031 1.09.666.385 1.577.384.606 0 1.108-.17t.861-.511.545-.836l3.358.222a4.6 4.6 0 0 1-1.048 2.114q-.785.894-2.028 1.397-1.236.495-2.855.495M498.202 49h-3.955l6.026-17.454h4.755L511.045 49h-3.954l-4.372-13.466h-.137zm-.247-6.86h9.34v2.88h-9.34zm18.298-.708V49h-3.631V35.91h3.46v2.309h.154a3.65 3.65 0 0 1 1.457-1.807q1.023-.673 2.48-.673 1.364 0 2.378.596a4.06 4.06 0 0 1 1.577 1.705q.562 1.1.562 2.625V49h-3.63v-7.687q.008-1.203-.614-1.876-.622-.681-1.713-.681-.733 0-1.295.315-.555.315-.87.92-.306.597-.315 1.44m12.616 12.477q-.69 0-1.296-.11a4.7 4.7 0 0 1-.988-.265l.818-2.71q.639.196 1.15.213a1.46 1.46 0 0 0 .895-.239q.384-.255.622-.869l.213-.554-4.696-13.466h3.819l2.71 9.614h.136l2.736-9.614h3.844l-5.088 14.506a6.1 6.1 0 0 1-.998 1.84q-.622.794-1.576 1.22-.955.434-2.301.434m16.858-4.653q-2.012 0-3.461-.853a5.76 5.76 0 0 1-2.216-2.386q-.767-1.525-.767-3.511 0-2.011.776-3.529a5.76 5.76 0 0 1 2.224-2.378q1.442-.86 3.426-.86 1.715 0 3 .622 1.287.622 2.037 1.747t.827 2.642h-3.426q-.145-.98-.767-1.577-.614-.605-1.611-.605-.843 0-1.474.46-.623.453-.972 1.321-.35.87-.349 2.106 0 1.253.341 2.13.349.878.98 1.338.63.46 1.474.46.622 0 1.117-.255.502-.256.826-.742.333-.494.435-1.184h3.426q-.085 1.5-.818 2.642-.725 1.133-2.003 1.773t-3.025.639m11.448-.009q-1.254 0-2.233-.434a3.6 3.6 0 0 1-1.551-1.305q-.563-.868-.563-2.164 0-1.09.401-1.833.4-.741 1.091-1.193.69-.451 1.568-.682.886-.23 1.858-.324 1.142-.119 1.841-.221.698-.111 1.014-.324.315-.213.315-.63v-.052q0-.81-.511-1.253-.503-.443-1.432-.443-.98 0-1.56.435a2 2 0 0 0-.767 1.074l-3.358-.273a4.6 4.6 0 0 1 1.006-2.062q.75-.879 1.935-1.347 1.193-.477 2.761-.477a8.4 8.4 0 0 1 2.088.255q1.005.256 1.781.793a3.85 3.85 0 0 1 1.236 1.38q.452.836.452 2.003V49h-3.443v-1.815h-.103q-.315.614-.843 1.082a3.9 3.9 0 0 1-1.27.724q-.743.256-1.713.256m1.039-2.505q.801 0 1.415-.316.614-.324.963-.87.35-.545.35-1.235v-1.39a2 2 0 0 1-.469.205 9 9 0 0 1-.656.162q-.367.069-.733.128l-.665.094a4.5 4.5 0 0 0-1.117.298 1.8 1.8 0 0 0-.741.554q-.264.34-.264.852 0 .742.537 1.134.545.384 1.38.384m19.586-7.1-3.324.205a1.7 1.7 0 0 0-.367-.767 1.94 1.94 0 0 0-.741-.554q-.452-.214-1.083-.214-.844 0-1.423.358-.579.35-.579.938 0 .47.375.793t1.286.52l2.37.477q1.909.391 2.846 1.261t.938 2.284q0 1.287-.759 2.259-.75.97-2.062 1.517-1.303.537-3.009.537-2.599 0-4.142-1.083-1.534-1.09-1.798-2.966l3.571-.187q.162.792.784 1.21.622.41 1.594.41.954 0 1.534-.367.588-.375.597-.963-.009-.495-.418-.81-.41-.324-1.261-.494l-2.267-.452q-1.918-.384-2.856-1.33-.929-.945-.929-2.411 0-1.262.682-2.174.69-.912 1.935-1.406 1.252-.495 2.932-.494 2.48 0 3.903 1.048 1.432 1.048 1.671 2.855m9.091-3.733v2.727h-7.883V35.91zm-6.094-3.136h3.631v12.204q0 .504.154.784.153.273.426.384.28.11.647.11.256 0 .512-.042l.392-.077.571 2.702q-.273.085-.767.196-.495.12-1.202.145-1.313.051-2.301-.35a3.2 3.2 0 0 1-1.526-1.244q-.545-.844-.537-2.13zm27.77-1.228V49h-3.188l-7.594-10.986h-.128V49h-3.69V31.546h3.239l7.534 10.977h.153V31.545zm8.49 17.71q-2.019 0-3.477-.818a5.6 5.6 0 0 1-2.233-2.335q-.784-1.516-.784-3.588 0-2.02.784-3.545a5.8 5.8 0 0 1 2.207-2.378q1.432-.852 3.358-.852 1.296 0 2.412.417 1.125.41 1.961 1.236.844.826 1.312 2.08.47 1.244.469 2.914v.997h-11.054v-2.25h7.636q0-.783-.341-1.389a2.44 2.44 0 0 0-.946-.946q-.596-.35-1.389-.35-.827 0-1.466.384-.63.375-.988 1.015-.358.63-.367 1.406v2.139q0 .972.358 1.679.366.708 1.031 1.09.665.385 1.577.384.605 0 1.108-.17t.861-.511q.357-.342.545-.836l3.358.222a4.6 4.6 0 0 1-1.048 2.114q-.784.894-2.029 1.397-1.235.495-2.855.495m14.885-13.346v2.727h-7.883V35.91zm-6.094-3.136h3.631v12.204q0 .504.154.784.153.273.426.384.28.11.647.11.256 0 .512-.042l.392-.077.571 2.702q-.273.085-.767.196-.495.12-1.202.145-1.312.051-2.301-.35a3.2 3.2 0 0 1-1.526-1.244q-.544-.844-.537-2.13zM636.434 49l-3.563-13.09h3.673l2.029 8.795h.119l2.114-8.796h3.605l2.148 8.744h.11l1.995-8.744h3.664L648.775 49h-3.844l-2.25-8.233h-.162L640.269 49zm22.962.256q-1.986 0-3.435-.844a5.8 5.8 0 0 1-2.224-2.37q-.784-1.524-.784-3.536 0-2.029.784-3.546a5.7 5.7 0 0 1 2.224-2.37q1.449-.85 3.435-.851 1.986 0 3.426.852a5.7 5.7 0 0 1 2.233 2.37q.784 1.515.784 3.545 0 2.01-.784 3.537a5.76 5.76 0 0 1-2.233 2.369q-1.44.843-3.426.844m.017-2.813q.903 0 1.508-.511.606-.52.912-1.415.316-.896.316-2.037t-.316-2.037q-.306-.894-.912-1.415-.605-.52-1.508-.52-.912 0-1.534.52-.614.52-.929 1.415-.307.896-.307 2.037t.307 2.037q.315.895.929 1.415.622.51 1.534.511M667.744 49V35.91h3.52v2.283h.136q.358-1.218 1.202-1.84.843-.631 1.943-.631.273 0 .588.034t.554.093v3.222a5 5 0 0 0-.707-.136 6 6 0 0 0-.827-.06q-.8 0-1.432.35a2.57 2.57 0 0 0-.988.954q-.358.614-.358 1.415V49zm12.654-3.767.009-4.355h.528l4.193-4.969h4.168l-5.634 6.58h-.861zM677.108 49V31.546h3.631V49zm8.182 0-3.852-5.702 2.42-2.565L689.543 49zm560.42 217.182q0 1.903-.72 3.238a4.97 4.97 0 0 1-1.95 2.04c-.82.466-1.75.699-2.77.699q-1.56 0-2.79-.704-1.23-.705-1.95-2.04c-.47-.89-.71-1.968-.71-3.233 0-1.269.24-2.349.71-3.239q.72-1.335 1.95-2.034 1.23-.704 2.79-.704c1.02 0 1.95.234 2.77.704a4.95 4.95 0 0 1 1.95 2.034q.72 1.335.72 3.239m-2.49 0c0-.822-.12-1.515-.37-2.08-.24-.564-.58-.992-1.03-1.284-.44-.291-.96-.437-1.55-.437q-.9 0-1.56.437c-.44.292-.79.72-1.03 1.284-.25.565-.37 1.258-.37 2.08s.12 1.515.37 2.079c.24.565.59.993 1.03 1.284q.66.438 1.56.438c.59 0 1.11-.146 1.55-.438.45-.291.79-.719 1.03-1.284.25-.564.37-1.257.37-2.079m4.1 5.818v-8.727h2.34v1.522h.09c.16-.541.43-.95.8-1.227.38-.28.81-.42 1.3-.42q.18 0 .39.022c.14.016.27.036.37.063v2.148a3 3 0 0 0-.47-.091c-.2-.027-.38-.04-.55-.04q-.54 0-.96.233-.405.227-.66.636c-.15.273-.23.587-.23.943V272zm6.37 0v-8.727h2.42V272zm1.21-9.852c-.36 0-.67-.12-.92-.358a1.14 1.14 0 0 1-.38-.87c0-.333.12-.619.38-.858.25-.242.56-.363.92-.363s.67.121.92.363q.39.358.39.858 0 .506-.39.87a1.3 1.3 0 0 1-.92.358m6.9 13.307c-.78 0-1.45-.108-2.02-.324-.55-.212-1-.502-1.32-.87-.33-.367-.55-.78-.65-1.238l2.24-.301q.105.261.33.488c.14.152.34.273.58.364q.375.142.9.142c.53 0 .96-.129 1.3-.386.34-.254.52-.68.52-1.279v-1.596h-.11c-.1.242-.26.471-.47.687s-.49.392-.82.528c-.33.137-.73.205-1.19.205a3.55 3.55 0 0 1-1.79-.455c-.54-.306-.96-.774-1.28-1.403-.32-.633-.47-1.432-.47-2.398q0-1.482.48-2.477c.32-.663.75-1.159 1.28-1.489a3.34 3.34 0 0 1 1.77-.494q.735 0 1.23.25c.33.163.59.368.79.614.21.242.36.481.47.716h.1v-1.466h2.4v8.812c0 .743-.18 1.364-.55 1.864-.36.5-.86.875-1.51 1.125-.64.254-1.37.381-2.21.381m.05-5.398q.585 0 .99-.29.405-.295.63-.841c.14-.367.22-.807.22-1.318s-.07-.955-.22-1.33a1.93 1.93 0 0 0-.62-.88 1.62 1.62 0 0 0-1-.313c-.39 0-.73.108-1 .324-.28.212-.48.508-.62.886a3.8 3.8 0 0 0-.21 1.313q0 .756.21 1.307c.14.363.35.646.62.846.27.197.61.296 1 .296m5.97 1.943v-8.727h2.42V272zm1.22-9.852q-.54 0-.93-.358a1.175 1.175 0 0 1 0-1.728q.39-.363.93-.363c.35 0 .66.121.92.363a1.175 1.175 0 0 1 0 1.728c-.26.238-.57.358-.92.358m5.38 4.807V272H1272v-8.727h2.31v1.539h.1c.19-.507.52-.909.97-1.204.46-.299 1.01-.449 1.66-.449.6 0 1.13.133 1.58.398q.675.398 1.05 1.136c.25.489.38 1.072.38 1.75V272h-2.42v-5.125c0-.534-.14-.951-.41-1.25q-.42-.455-1.14-.455-.495 0-.87.211c-.24.14-.44.344-.58.613q-.195.398-.21.961M173.865 137.159q-1.204 0-2.147-.443a3.75 3.75 0 0 1-1.489-1.222 3.14 3.14 0 0 1-.574-1.784h2.387q.04.677.568 1.097.529.42 1.255.42.58 0 1.023-.255.448-.262.699-.722a2.2 2.2 0 0 0 .256-1.068q0-.614-.262-1.08a1.85 1.85 0 0 0-.71-.727 2.1 2.1 0 0 0-1.04-.267q-.511 0-.994.21-.477.21-.744.574l-2.188-.392.551-6.136h7.114v2.011h-5.085l-.301 2.915h.068q.306-.432.926-.716t1.386-.284q1.052 0 1.875.494.825.495 1.301 1.358.478.858.472 1.977.006 1.176-.545 2.091a3.84 3.84 0 0 1-1.529 1.432q-.977.517-2.273.517m6.949-.011q-.562 0-.965-.398a1.32 1.32 0 0 1-.398-.966q0-.557.398-.954.403-.398.965-.398.546 0 .955.398.41.397.409.954 0 .375-.193.688-.188.306-.494.494-.307.182-.677.182m3.175-.148 4.824-9.545v-.08h-5.619v-2.011h8.165v2.039l-4.83 9.597zm8.902 0v-8.727h2.307v1.539h.103q.272-.766.909-1.21.636-.443 1.522-.443.898 0 1.529.449.63.443.841 1.204h.091q.267-.75.966-1.198.704-.455 1.664-.455 1.222 0 1.983.779.768.773.767 2.193V137h-2.414v-5.392q0-.728-.387-1.091-.386-.363-.966-.364-.659 0-1.028.421-.369.415-.369 1.096V137h-2.347v-5.443q0-.642-.369-1.023-.364-.381-.961-.381-.403 0-.727.205a1.4 1.4 0 0 0-.506.562 1.8 1.8 0 0 0-.187.841V137zm21.68-6.239-2.216.137a1.15 1.15 0 0 0-.245-.512 1.3 1.3 0 0 0-.494-.369 1.7 1.7 0 0 0-.722-.142q-.562 0-.948.239-.387.232-.387.625 0 .312.25.528t.858.347l1.58.318q1.272.26 1.897.841.625.58.625 1.522 0 .858-.505 1.506-.5.648-1.375 1.011-.87.358-2.006.358-1.733 0-2.761-.721a2.8 2.8 0 0 1-1.199-1.977l2.381-.125q.108.528.522.806.415.273 1.063.273.636 0 1.022-.244.392-.25.398-.642a.67.67 0 0 0-.278-.54q-.273-.216-.841-.33l-1.511-.301q-1.279-.256-1.904-.886-.62-.63-.619-1.608 0-.841.454-1.449.46-.608 1.29-.937.835-.33 1.955-.33 1.653 0 2.602.699.954.699 1.114 1.903M170.74 257l4.824-9.545v-.08h-5.62v-2.011h8.165v2.039L173.28 257zm8.317.148q-.563 0-.966-.398a1.33 1.33 0 0 1-.398-.966q0-.557.398-.954.404-.399.966-.398.544 0 .954.398.41.397.409.954 0 .375-.193.688-.188.306-.494.494-.307.182-.676.182m7.078.011q-1.273 0-2.267-.437-.989-.444-1.563-1.216a3.07 3.07 0 0 1-.585-1.796h2.477q.023.426.279.75.261.318.693.495.432.176.972.176.562 0 .994-.199t.676-.551a1.4 1.4 0 0 0 .244-.813q0-.465-.261-.824a1.67 1.67 0 0 0-.739-.568q-.477-.204-1.136-.204h-1.085v-1.807h1.085q.557 0 .983-.193.432-.193.67-.534.24-.347.239-.807 0-.438-.21-.767a1.4 1.4 0 0 0-.58-.523 1.9 1.9 0 0 0-.863-.188q-.501 0-.915.182a1.6 1.6 0 0 0-.665.506q-.25.33-.267.773h-2.358a3.03 3.03 0 0 1 .574-1.773q.556-.767 1.5-1.199.95-.437 2.142-.437 1.205 0 2.108.437.903.438 1.403 1.182.506.738.5 1.659.007.977-.608 1.631-.607.653-1.585.829v.091q1.284.165 1.955.892.676.721.67 1.807a2.83 2.83 0 0 1-.574 1.767q-.573.772-1.585 1.216-1.011.443-2.318.443m6.092-.159v-8.727h2.307v1.539h.102q.273-.766.91-1.21.636-.443 1.522-.443.898 0 1.529.449.63.443.841 1.204h.091q.267-.75.965-1.198.705-.455 1.665-.455 1.223 0 1.983.779.767.773.767 2.193V257h-2.415v-5.392q0-.728-.386-1.091t-.966-.364q-.659 0-1.028.421-.37.415-.37 1.096V257h-2.346v-5.443q0-.642-.369-1.023-.364-.381-.961-.381-.403 0-.727.205a1.4 1.4 0 0 0-.506.562 1.8 1.8 0 0 0-.187.841V257zm21.68-6.239-2.216.137a1.15 1.15 0 0 0-.245-.512 1.3 1.3 0 0 0-.494-.369 1.7 1.7 0 0 0-.722-.142q-.563 0-.948.239-.387.232-.387.625 0 .312.25.528t.858.347l1.58.318q1.273.26 1.897.841.625.58.625 1.522 0 .858-.505 1.506-.5.648-1.375 1.011-.87.358-2.006.358-1.733 0-2.761-.721a2.8 2.8 0 0 1-1.199-1.977l2.38-.125q.109.528.523.806.415.273 1.063.273.636 0 1.022-.244.392-.25.398-.642a.67.67 0 0 0-.278-.54q-.273-.216-.841-.33l-1.512-.301q-1.278-.256-1.903-.886-.62-.63-.619-1.608 0-.841.454-1.449.46-.608 1.29-.937.835-.33 1.955-.33 1.653 0 2.602.699.954.699 1.114 1.903m-45.382 119.194v-1.938l4.858-7.653h1.671v2.681h-.989l-3.062 4.847v.091h6.903v1.972zm5.586 2.045v-2.636l.045-.858v-8.142h2.307V372zm6.477.148q-.562 0-.966-.398a1.33 1.33 0 0 1-.398-.966q0-.557.398-.954.404-.399.966-.398.546 0 .954.398.41.397.41.954 0 .375-.194.688a1.5 1.5 0 0 1-.494.494q-.307.182-.676.182m7.308.011q-1.205 0-2.147-.443-.938-.444-1.489-1.222a3.14 3.14 0 0 1-.574-1.784h2.386q.04.677.569 1.097t1.255.42q.58 0 1.023-.255.448-.262.699-.722a2.2 2.2 0 0 0 .256-1.068q0-.614-.262-1.08a1.85 1.85 0 0 0-.71-.727 2.1 2.1 0 0 0-1.04-.267q-.511 0-.994.21-.477.21-.744.574l-2.188-.392.551-6.136h7.114v2.011h-5.085l-.302 2.915h.069q.306-.432.926-.716t1.386-.284q1.051 0 1.875.494t1.301 1.358q.478.858.472 1.977.006 1.176-.546 2.091a3.84 3.84 0 0 1-1.528 1.432q-.977.517-2.273.517m5.91-.159v-8.727h2.306v1.539h.103q.272-.766.909-1.21.636-.443 1.522-.443.898 0 1.529.449.63.443.841 1.204h.091q.267-.75.966-1.198.704-.455 1.664-.455 1.222 0 1.983.779.768.772.767 2.193V372h-2.414v-5.392q0-.728-.387-1.091-.386-.364-.966-.364-.659 0-1.028.421-.369.415-.369 1.096V372h-2.347v-5.443q0-.642-.369-1.023-.364-.381-.961-.381-.402 0-.727.205a1.4 1.4 0 0 0-.506.562 1.8 1.8 0 0 0-.187.841V372zm21.679-6.239-2.216.137a1.15 1.15 0 0 0-.245-.512 1.3 1.3 0 0 0-.494-.369 1.7 1.7 0 0 0-.721-.142q-.563 0-.949.239-.387.232-.387.625 0 .312.25.528t.858.347l1.58.318q1.272.26 1.898.841.625.58.625 1.522a2.38 2.38 0 0 1-.506 1.506q-.5.648-1.375 1.011-.87.358-2.006.358-1.733 0-2.761-.721a2.8 2.8 0 0 1-1.199-1.977l2.381-.125q.108.528.522.806.415.273 1.063.273.636 0 1.023-.244.391-.25.397-.642a.67.67 0 0 0-.278-.54q-.273-.216-.841-.33l-1.511-.301q-1.279-.255-1.904-.886-.62-.63-.619-1.608 0-.841.454-1.449.46-.608 1.29-.937.836-.33 1.955-.33 1.653 0 2.602.699.954.699 1.114 1.903m-42.232 120.398q-1.312 0-2.335-.426-1.017-.432-1.597-1.176a2.68 2.68 0 0 1-.579-1.688q0-.728.329-1.335a3 3 0 0 1 .91-1.017q.573-.41 1.284-.523v-.079a2.52 2.52 0 0 1-1.512-.904 2.6 2.6 0 0 1-.579-1.676q0-.903.528-1.608.528-.71 1.449-1.113.926-.41 2.102-.409 1.176 0 2.097.409.926.408 1.454 1.119.53.705.535 1.602a2.6 2.6 0 0 1-.591 1.676 2.54 2.54 0 0 1-1.5.904v.079q.699.114 1.267.523.573.403.909 1.017.341.608.346 1.335a2.7 2.7 0 0 1-.585 1.688q-.579.744-1.602 1.176-1.017.426-2.33.426m0-1.807q.585 0 1.023-.21a1.7 1.7 0 0 0 .682-.591q.25-.38.25-.875 0-.505-.256-.892a1.76 1.76 0 0 0-.693-.614 2.16 2.16 0 0 0-1.006-.227q-.562 0-1.005.227a1.75 1.75 0 0 0-.699.614q-.25.387-.25.892 0 .495.244.875.244.375.688.591.443.21 1.022.21m0-5.199q.489 0 .87-.198.38-.2.596-.552.216-.351.216-.812a1.46 1.46 0 0 0-.807-1.335 1.8 1.8 0 0 0-.875-.199 1.86 1.86 0 0 0-.875.199 1.46 1.46 0 0 0-.596.539 1.5 1.5 0 0 0-.211.796q0 .46.216.812t.597.552q.381.198.869.198m7.171 6.995q-.562 0-.966-.398a1.33 1.33 0 0 1-.398-.966q0-.557.398-.954.404-.399.966-.398.546 0 .954.398.41.397.41.954 0 .375-.194.688a1.5 1.5 0 0 1-.494.494q-.307.182-.676.182m7.078.011q-1.272 0-2.267-.437-.989-.444-1.562-1.216a3.06 3.06 0 0 1-.586-1.796h2.478q.023.426.278.75.261.318.693.495.432.176.972.176.562 0 .994-.199t.676-.551q.245-.352.245-.813 0-.465-.262-.824a1.67 1.67 0 0 0-.738-.568q-.478-.204-1.137-.204h-1.085v-1.807h1.085q.557 0 .983-.193.432-.193.671-.534.238-.347.238-.807 0-.438-.21-.767a1.4 1.4 0 0 0-.58-.523 1.9 1.9 0 0 0-.863-.188q-.5 0-.915.182a1.6 1.6 0 0 0-.665.506 1.34 1.34 0 0 0-.267.773h-2.358q.018-1.006.574-1.773.557-.767 1.5-1.199.95-.437 2.142-.437 1.205 0 2.108.437.903.438 1.404 1.182.505.738.5 1.659.005.977-.608 1.631-.608.653-1.586.829v.091q1.284.165 1.955.892.676.721.67 1.807a2.84 2.84 0 0 1-.573 1.767q-.574.772-1.586 1.216-1.011.443-2.318.443m6.093-.159v-8.727h2.306v1.539h.103q.273-.766.909-1.21t1.523-.443q.897 0 1.528.449.63.443.841 1.204h.091q.267-.75.966-1.198.704-.455 1.664-.455 1.223 0 1.983.779.768.772.767 2.193V486h-2.414v-5.392q0-.728-.387-1.091-.386-.364-.966-.364-.659 0-1.028.421-.369.415-.369 1.096V486h-2.347v-5.443q0-.642-.369-1.023-.364-.381-.96-.381a1.34 1.34 0 0 0-.728.205q-.318.2-.505.562a1.8 1.8 0 0 0-.188.841V486zm21.679-6.239-2.216.137a1.15 1.15 0 0 0-.245-.512 1.3 1.3 0 0 0-.494-.369 1.7 1.7 0 0 0-.721-.142q-.563 0-.949.239-.387.232-.387.625 0 .312.25.528t.858.347l1.58.318q1.272.26 1.898.841.625.58.625 1.522a2.38 2.38 0 0 1-.506 1.506q-.5.648-1.375 1.011-.87.358-2.006.358-1.733 0-2.761-.721a2.8 2.8 0 0 1-1.199-1.977l2.381-.125q.108.528.522.806.415.273 1.063.273.636 0 1.023-.244.392-.25.397-.642a.67.67 0 0 0-.278-.54q-.273-.216-.841-.33l-1.511-.301q-1.279-.255-1.904-.886-.62-.63-.619-1.608 0-.841.454-1.449.46-.608 1.29-.937.836-.33 1.955-.33 1.654 0 2.602.699.954.699 1.114 1.903"/><path fill="#fff" stroke="#F6821F" stroke-width="2" d="M1100 525H313v47h787z"/><path fill="#fff" stroke="#F6821F" stroke-width="2" d="M568.875 537H451v24.927h117.875z"/><path fill="#222" d="M497.987 552.876h-3.094v-8.727h3.119q1.317 0 2.267.524a3.53 3.53 0 0 1 1.462 1.495q.516.976.516 2.336 0 1.364-.516 2.343a3.55 3.55 0 0 1-1.47 1.505q-.955.524-2.284.524m-1.249-1.581h1.172q.818 0 1.376-.29a1.86 1.86 0 0 0 .844-.908q.286-.617.286-1.593 0-.967-.286-1.581a1.85 1.85 0 0 0-.839-.904q-.558-.29-1.377-.289h-1.176zm9.847 1.581h-3.094v-8.727h3.12q1.317 0 2.267.524a3.53 3.53 0 0 1 1.461 1.495q.516.976.516 2.336 0 1.364-.516 2.343a3.54 3.54 0 0 1-1.47 1.505q-.954.524-2.284.524m-1.248-1.581h1.172q.818 0 1.376-.29.562-.294.844-.908.285-.617.285-1.593 0-.967-.285-1.581a1.86 1.86 0 0 0-.84-.904q-.558-.29-1.376-.289h-1.176zm9.676 1.709q-.993 0-1.717-.422a2.9 2.9 0 0 1-1.112-1.185q-.392-.762-.392-1.768 0-1.014.392-1.773a2.85 2.85 0 0 1 1.112-1.185q.724-.426 1.717-.426t1.713.426q.724.422 1.117 1.185.392.759.392 1.773 0 1.005-.392 1.768a2.9 2.9 0 0 1-1.117 1.185q-.72.422-1.713.422m.009-1.407q.451 0 .754-.255.303-.26.456-.708.158-.447.158-1.018t-.158-1.019a1.6 1.6 0 0 0-.456-.707 1.12 1.12 0 0 0-.754-.26q-.456 0-.767.26-.308.26-.465.707a3.2 3.2 0 0 0-.153 1.019q0 .571.153 1.018.158.448.465.708.31.255.767.255m9.03-4.938a1.08 1.08 0 0 0-.439-.802q-.389-.285-1.053-.285-.451 0-.763.128a1.07 1.07 0 0 0-.477.345.83.83 0 0 0-.162.503.73.73 0 0 0 .098.409q.111.174.303.302.192.124.443.218.252.09.537.153l.784.188q.571.127 1.048.341.477.213.827.524.35.31.541.733.197.421.2.967-.003.801-.409 1.389-.4.584-1.159.908-.754.32-1.819.319-1.057 0-1.841-.323a2.7 2.7 0 0 1-1.219-.959q-.435-.639-.456-1.581h1.786q.029.439.251.733.226.29.601.439.38.144.856.145.47 0 .814-.137.35-.136.541-.379a.88.88 0 0 0 .192-.558.73.73 0 0 0-.174-.495 1.34 1.34 0 0 0-.503-.341 5 5 0 0 0-.806-.255l-.95-.239q-1.104-.269-1.743-.839-.64-.572-.635-1.539-.004-.792.422-1.385.43-.593 1.18-.924.75-.333 1.705-.333.972 0 1.696.333.729.331 1.134.924t.417 1.373z"/><path fill="#fff" stroke="#F6821F" stroke-width="2" d="M828.875 537H711v24.927h117.875z"/><path fill="#222" d="m759.358 552.876-2.497-8.727h2.015l1.445 6.064h.072l1.594-6.064h1.726l1.59 6.076h.076l1.445-6.076h2.015l-2.497 8.727h-1.798l-1.662-5.706h-.068l-1.658 5.706zm10.962 0h-1.977l3.013-8.727h2.378l3.008 8.727h-1.977l-2.186-6.733h-.068zm-.123-3.431h4.67v1.441h-4.67zm7.464 3.431v-8.727h5.778v1.521h-3.933v2.079h3.55v1.522h-3.55v3.605z"/><path fill="#fff" stroke="#F6821F" stroke-width="4" d="M1087.88 538H972v22.927h115.88z"/><path fill="#222" d="M1002.15 547.952h-1.87q-.045-.362-.21-.644a1.6 1.6 0 0 0-.401-.485 1.8 1.8 0 0 0-.571-.307 2.2 2.2 0 0 0-.695-.107q-.677 0-1.18.337-.503.332-.78.972-.277.635-.277 1.542 0 .933.277 1.568.282.636.784.959a2.1 2.1 0 0 0 1.164.324q.37 0 .686-.098.32-.097.566-.285.248-.192.407-.465c.11-.182.19-.389.23-.622l1.87.008q-.075.601-.36 1.159c-.19.37-.45.701-.77.993-.33.29-.71.52-1.155.691a4.2 4.2 0 0 1-1.504.251q-1.168 0-2.088-.528-.917-.529-1.449-1.53-.53-1.002-.529-2.425 0-1.428.537-2.429t1.458-1.525q.92-.53 2.071-.529.758 0 1.406.213c.433.142.823.35 1.153.622.34.27.61.601.82.993s.35.841.41 1.347m3.02 5.795q-.63 0-1.11-.217a1.8 1.8 0 0 1-.78-.652c-.19-.29-.28-.65-.28-1.082 0-.364.07-.669.2-.916.13-.248.31-.447.55-.597q.345-.226.78-.341t.93-.162c.38-.04.69-.077.92-.111q.345-.056.51-.162.15-.106.15-.315v-.026c0-.269-.08-.478-.25-.626q-.255-.222-.72-.222-.48 0-.78.218a1 1 0 0 0-.38.537l-1.68-.137c.08-.397.25-.741.5-1.031.25-.293.57-.517.97-.673q.6-.239 1.38-.239c.36 0 .71.043 1.04.128.34.085.64.217.89.396.27.179.47.409.62.691.15.278.23.612.23 1.001v4.415h-1.72v-.908h-.05a1.88 1.88 0 0 1-1.06.904 2.6 2.6 0 0 1-.86.127m.52-1.252c.27 0 .51-.053.71-.158q.3-.162.48-.435t.18-.618v-.694q-.09.056-.24.102-.135.042-.33.081-.18.034-.36.064l-.34.047c-.21.031-.39.081-.55.149a.83.83 0 0 0-.37.277.67.67 0 0 0-.14.426q0 .37.27.567.27.192.69.192m7.4 1.257c-.67 0-1.24-.142-1.73-.426a2.9 2.9 0 0 1-1.11-1.194c-.25-.508-.38-1.093-.38-1.755q0-1.006.39-1.765.39-.762 1.11-1.188.72-.43 1.71-.431.855 0 1.5.311.645.312 1.02.874t.42 1.321h-1.72c-.05-.327-.17-.59-.38-.789-.21-.201-.47-.302-.81-.302a1.2 1.2 0 0 0-.73.23c-.21.151-.37.371-.49.661-.12.289-.17.64-.17 1.052 0 .418.05.773.17 1.065.11.293.28.516.49.669s.45.231.73.231c.21 0 .4-.043.56-.128q.255-.128.42-.371.165-.247.21-.592h1.72c-.03.5-.17.94-.41 1.321-.24.378-.58.673-1 .886-.43.213-.94.32-1.52.32m5.77-3.912v3.784h-1.81v-8.727h1.76v3.336h.08c.14-.386.38-.689.71-.907.33-.222.75-.333 1.24-.333.46 0 .85.1 1.19.298.34.196.61.479.79.848.19.367.29.806.29 1.317v4.168h-1.82v-3.844c0-.403-.1-.717-.31-.942-.2-.224-.49-.336-.86-.336-.24 0-.46.052-.65.157a1.13 1.13 0 0 0-.45.461c-.1.198-.16.438-.16.72m8.53 3.912q-1.02 0-1.74-.409a2.76 2.76 0 0 1-1.12-1.168q-.39-.759-.39-1.794 0-1.01.39-1.773c.26-.508.63-.905 1.1-1.189q.72-.426 1.68-.426c.43 0 .84.07 1.21.209.37.136.7.342.98.618q.42.413.66 1.04c.15.414.23.9.23 1.457v.499h-5.53v-1.125h3.82c0-.262-.06-.493-.17-.695a1.2 1.2 0 0 0-.47-.473c-.2-.116-.43-.175-.7-.175s-.52.064-.73.192a1.27 1.27 0 0 0-.49.507 1.4 1.4 0 0 0-.19.703v1.07q0 .486.18.839c.12.236.3.418.52.546s.48.192.79.192c.2 0 .38-.029.55-.086s.31-.142.43-.255q.18-.17.27-.418l1.68.111c-.08.403-.26.756-.52 1.057q-.39.447-1.02.699c-.41.164-.88.247-1.42.247m10.5-9.265-2.81 10.449h-1.57l2.81-10.449zm11.12 3.465h-1.87c-.03-.242-.1-.456-.2-.644-.11-.19-.24-.352-.41-.485a1.7 1.7 0 0 0-.57-.307 2.1 2.1 0 0 0-.69-.107c-.46 0-.85.113-1.19.337-.33.222-.59.545-.77.972-.19.423-.28.937-.28 1.542 0 .622.09 1.145.28 1.568q.27.636.78.959c.33.216.72.324 1.16.324q.375 0 .69-.098.315-.097.57-.285c.16-.128.3-.283.4-.465.12-.182.19-.389.23-.622l1.87.008q-.075.601-.36 1.159c-.19.37-.45.701-.77.993-.32.29-.71.52-1.15.691a4.3 4.3 0 0 1-1.51.251c-.78 0-1.47-.176-2.09-.528q-.915-.529-1.44-1.53c-.36-.668-.53-1.476-.53-2.425 0-.952.18-1.761.53-2.429.36-.667.85-1.176 1.46-1.525a4.1 4.1 0 0 1 2.07-.529q.765 0 1.41.213c.43.142.82.35 1.15.622.34.27.61.601.82.993s.35.841.41 1.347m4.29 5.672h-3.1v-8.727h3.12c.88 0 1.64.174 2.27.524.63.346 1.12.845 1.46 1.495s.52 1.429.52 2.336c0 .909-.18 1.69-.52 2.343a3.54 3.54 0 0 1-1.47 1.505q-.96.524-2.28.524m-1.25-1.581h1.17q.81 0 1.38-.29.555-.294.84-.908c.19-.412.28-.943.28-1.593 0-.645-.09-1.172-.28-1.581a1.87 1.87 0 0 0-.84-.904q-.555-.29-1.38-.289h-1.17zm14.05-7.146v8.727h-1.59l-3.8-5.493h-.06v5.493h-1.85v-8.727h1.62l3.77 5.488h.07v-5.488z"/><path fill="#fff" stroke="#F6821F" stroke-width="2" d="M438.875 537H321v24.927h117.875z"/><path fill="#222" d="M371.554 552.876h-3.094v-8.727h3.119q1.317 0 2.267.524a3.53 3.53 0 0 1 1.462 1.495q.515.976.515 2.336 0 1.364-.515 2.343a3.55 3.55 0 0 1-1.47 1.505q-.955.524-2.284.524m-1.249-1.581h1.172q.818 0 1.376-.29a1.86 1.86 0 0 0 .844-.908q.286-.617.286-1.593 0-.967-.286-1.581a1.85 1.85 0 0 0-.839-.904q-.559-.29-1.377-.289h-1.176zm14.053-7.146v8.727h-1.594l-3.797-5.493h-.064v5.493h-1.845v-8.727h1.62l3.767 5.488h.076v-5.488zm6.127 2.51a1.08 1.08 0 0 0-.439-.802q-.388-.285-1.053-.285a2 2 0 0 0-.762.128 1.07 1.07 0 0 0-.478.345.83.83 0 0 0-.162.503.73.73 0 0 0 .098.409q.111.174.303.302.192.124.443.218.252.09.537.153l.784.188q.571.127 1.048.341.478.213.827.524.35.31.541.733.197.421.201.967-.005.801-.409 1.389-.4.584-1.16.908-.753.32-1.819.319-1.057 0-1.841-.323a2.7 2.7 0 0 1-1.219-.959q-.435-.639-.456-1.581h1.786q.03.439.251.733.226.29.601.439.379.144.857.145.468 0 .814-.137.349-.136.541-.379a.87.87 0 0 0 .191-.558.73.73 0 0 0-.174-.495 1.34 1.34 0 0 0-.503-.341 5 5 0 0 0-.805-.255l-.951-.239q-1.104-.269-1.743-.839-.639-.572-.635-1.539-.004-.792.422-1.385.43-.593 1.181-.924.75-.333 1.704-.333.972 0 1.696.333.729.331 1.134.924t.417 1.373z"/><path fill="#fff" stroke="#F6821F" stroke-width="2" d="M698.875 537H581v24.927h117.875z"/><path fill="#222" d="M591.838 552.74v-8.727h3.494q.964 0 1.607.285.643.286.967.793.324.502.324 1.159 0 .511-.204.899a1.8 1.8 0 0 1-.563.631 2.3 2.3 0 0 1-.809.345v.085q.498.021.933.281.439.26.711.729.273.465.273 1.108 0 .694-.345 1.24-.34.541-1.01.856-.67.316-1.649.316zm1.845-1.509h1.505q.771 0 1.125-.294a.99.99 0 0 0 .353-.792q0-.363-.174-.64a1.2 1.2 0 0 0-.499-.434 1.7 1.7 0 0 0-.763-.158h-1.547zm0-3.566h1.368q.38 0 .674-.133a1.1 1.1 0 0 0 .468-.383 1 1 0 0 0 .175-.592.96.96 0 0 0-.337-.763q-.332-.29-.946-.29h-1.402zm8.88 5.203q-.993 0-1.717-.422a2.9 2.9 0 0 1-1.112-1.185q-.393-.763-.393-1.768 0-1.014.393-1.773a2.85 2.85 0 0 1 1.112-1.185q.724-.426 1.717-.426t1.713.426q.724.422 1.117 1.185.392.759.392 1.773 0 1.005-.392 1.768a2.9 2.9 0 0 1-1.117 1.185q-.72.422-1.713.422m.009-1.407q.451 0 .754-.255.303-.26.456-.708.157-.447.157-1.018t-.157-1.019a1.6 1.6 0 0 0-.456-.707 1.12 1.12 0 0 0-.754-.26q-.456 0-.767.26-.308.26-.465.707a3.2 3.2 0 0 0-.153 1.019q0 .571.153 1.018.157.448.465.708.31.255.767.255m7.743-5.267v1.364h-3.942v-1.364zm-3.047-1.568h1.815v6.102q0 .252.077.392a.42.42 0 0 0 .213.192.9.9 0 0 0 .324.056q.127 0 .255-.022l.196-.038.286 1.351a5 5 0 0 1-.384.098q-.247.06-.6.072-.657.025-1.151-.174a1.6 1.6 0 0 1-.763-.623q-.273-.422-.268-1.065zm6.777-.613h2.275l2.404 5.863h.102l2.403-5.863h2.276v8.727h-1.79v-5.681h-.072l-2.259 5.638h-1.219l-2.258-5.659h-.073v5.702h-1.789zm12.68 8.85q-.625 0-1.116-.217a1.8 1.8 0 0 1-.776-.652q-.28-.434-.281-1.082 0-.545.2-.917.201-.37.546-.596t.784-.341q.443-.115.929-.162.571-.06.92-.111.35-.056.507-.162a.35.35 0 0 0 .158-.315v-.026q0-.404-.256-.626-.251-.222-.715-.222-.49 0-.78.218a1 1 0 0 0-.384.537l-1.679-.137q.128-.596.503-1.031.375-.44.967-.673.597-.239 1.381-.239.546 0 1.044.128.502.127.891.396.391.268.618.691.225.417.225 1.001v4.415h-1.721v-.908h-.051a1.8 1.8 0 0 1-.422.541 2 2 0 0 1-.635.363 2.6 2.6 0 0 1-.857.127m.52-1.252q.4 0 .708-.158.306-.162.481-.435t.175-.618v-.694a1 1 0 0 1-.234.102 5 5 0 0 1-.329.081q-.183.034-.366.064l-.332.047q-.32.047-.559.149a.9.9 0 0 0-.37.277.68.68 0 0 0-.133.426q0 .37.269.567.273.192.69.192m6.258-2.655v3.784h-1.815v-6.546h1.73v1.155h.077q.217-.57.728-.903.512-.337 1.24-.337.682 0 1.189.298t.789.853q.28.55.281 1.312v4.168h-1.815v-3.844q.003-.601-.307-.937-.312-.341-.857-.341a1.3 1.3 0 0 0-.647.157q-.278.158-.435.461a1.6 1.6 0 0 0-.158.72m7.384 3.907q-.626 0-1.116-.217a1.8 1.8 0 0 1-.776-.652q-.28-.434-.281-1.082 0-.545.2-.917.201-.37.546-.596t.784-.341q.443-.115.929-.162.57-.06.92-.111.35-.056.507-.162a.36.36 0 0 0 .158-.315v-.026q0-.404-.256-.626-.25-.222-.716-.222-.489 0-.78.218a1 1 0 0 0-.383.537l-1.679-.137q.128-.596.503-1.031.375-.44.967-.673.597-.239 1.381-.239.545 0 1.044.128.503.127.891.396.392.268.617.691.226.417.226 1.001v4.415h-1.721v-.908h-.051a1.9 1.9 0 0 1-.422.541 2 2 0 0 1-.635.363 2.6 2.6 0 0 1-.857.127m.52-1.252q.4 0 .707-.158.308-.162.482-.435t.175-.618v-.694a1 1 0 0 1-.235.102 5 5 0 0 1-.328.081q-.183.034-.366.064l-.333.047a2.2 2.2 0 0 0-.558.149.9.9 0 0 0-.371.277.68.68 0 0 0-.132.426q0 .37.269.567.273.192.69.192m7.392 3.72q-.883 0-1.513-.243-.627-.239-.997-.652a2 2 0 0 1-.482-.929l1.679-.226q.077.197.243.366.166.171.439.273.276.107.673.107.592 0 .976-.29.388-.285.388-.959v-1.197h-.077a1.7 1.7 0 0 1-.358.515 1.8 1.8 0 0 1-.614.397q-.375.153-.894.153-.737 0-1.343-.341-.6-.345-.959-1.052-.353-.712-.353-1.799 0-1.111.362-1.858.361-.745.963-1.116a2.5 2.5 0 0 1 1.325-.371q.55 0 .921.188.37.183.596.46.231.273.354.537h.068v-1.1h1.803v6.61q0 .835-.409 1.397-.41.563-1.134.844-.72.286-1.657.286m.038-4.049q.439 0 .741-.217.307-.222.469-.631.166-.413.166-.988 0-.576-.162-.997a1.46 1.46 0 0 0-.468-.661 1.2 1.2 0 0 0-.746-.234q-.447 0-.754.243-.308.238-.465.664a2.8 2.8 0 0 0-.158.985q0 .567.158.98.162.409.465.635.307.221.754.221m7.457 1.586q-1.01 0-1.738-.409a2.8 2.8 0 0 1-1.117-1.168q-.392-.759-.392-1.794 0-1.01.392-1.773a2.9 2.9 0 0 1 1.104-1.189q.716-.426 1.679-.426.648 0 1.206.209.563.204.98.618.422.413.656 1.04.235.621.235 1.457v.499h-5.527v-1.125h3.818q0-.392-.171-.695a1.2 1.2 0 0 0-.473-.473 1.34 1.34 0 0 0-.694-.175q-.414 0-.733.192-.315.188-.495.507-.178.316-.183.703v1.07q0 .486.179.839.183.354.516.546.332.192.788.192.303 0 .554-.086t.431-.255a1.1 1.1 0 0 0 .272-.418l1.679.111q-.128.604-.524 1.057a2.6 2.6 0 0 1-1.014.698q-.618.248-1.428.248m4.057-.128v-6.546h1.73v1.155h.077q.205-.575.682-.907t1.142-.333q.673 0 1.146.337.474.332.631.903h.068a1.74 1.74 0 0 1 .725-.899q.528-.34 1.248-.341.917 0 1.487.584.576.58.576 1.645v4.402h-1.811v-4.044q0-.546-.29-.818a1.02 1.02 0 0 0-.725-.273q-.494 0-.771.315-.277.312-.277.823v3.997h-1.76v-4.083q0-.481-.277-.767-.273-.285-.72-.285-.303 0-.546.153-.238.15-.379.422-.14.268-.14.631v3.929zm13.797.128q-1.01 0-1.739-.409a2.8 2.8 0 0 1-1.117-1.168q-.392-.759-.392-1.794 0-1.01.392-1.773.393-.762 1.104-1.189.716-.426 1.679-.426.648 0 1.206.209.563.204.98.618.422.413.656 1.04.235.621.235 1.457v.499h-5.527v-1.125h3.818q0-.392-.17-.695a1.23 1.23 0 0 0-.473-.473 1.35 1.35 0 0 0-.695-.175q-.414 0-.733.192-.315.188-.494.507-.18.316-.184.703v1.07q0 .486.179.839.184.354.516.546t.788.192q.303 0 .554-.086t.431-.255a1.1 1.1 0 0 0 .272-.418l1.679.111q-.128.604-.524 1.057a2.6 2.6 0 0 1-1.014.698q-.618.248-1.427.248m5.872-3.912v3.784h-1.816v-6.546h1.731v1.155h.076q.217-.57.729-.903.511-.337 1.24-.337.682 0 1.189.298t.788.853q.282.55.282 1.312v4.168h-1.816v-3.844q.005-.601-.307-.937-.311-.341-.856-.341-.366 0-.648.157a1.1 1.1 0 0 0-.435.461 1.6 1.6 0 0 0-.157.72m8.999-2.762v1.364h-3.942v-1.364zm-3.047-1.568h1.815v6.102q0 .252.077.392a.42.42 0 0 0 .213.192.9.9 0 0 0 .324.056q.127 0 .256-.022l.196-.038.285 1.351a6 6 0 0 1-.383.098q-.247.06-.601.072-.657.025-1.151-.174a1.6 1.6 0 0 1-.763-.623q-.272-.422-.268-1.065z"/><path fill="#fff" stroke="#F6821F" stroke-width="2" d="M958.875 537H841v24.927h117.875z"/><path fill="#222" d="M865.871 552.74h-1.977l3.012-8.727h2.378l3.009 8.727h-1.977l-2.186-6.733h-.069zm-.124-3.431h4.671v1.441h-4.671zm7.464 3.431v-8.727h3.443q.993 0 1.692.379.699.375 1.066 1.044.37.664.37 1.534 0 .869-.375 1.534-.375.664-1.086 1.036-.708.37-1.713.37h-2.195v-1.478h1.896q.533 0 .878-.184a1.2 1.2 0 0 0 .52-.515 1.6 1.6 0 0 0 .175-.763q0-.435-.175-.759a1.18 1.18 0 0 0-.52-.507q-.35-.183-.886-.183h-1.245v7.219zm9.483-8.727v8.727h-1.845v-8.727zm9.818 2.821a1.9 1.9 0 0 0-.251-.55 1.7 1.7 0 0 0-.925-.669 2.2 2.2 0 0 0-.652-.09q-.669 0-1.176.333-.502.332-.784.967-.28.63-.281 1.543 0 .912.277 1.551.276.639.784.976.507.332 1.197.332.626 0 1.07-.222a1.6 1.6 0 0 0 .682-.635q.238-.409.238-.967l.375.056h-2.25v-1.39h3.652v1.1q0 1.15-.485 1.977a3.3 3.3 0 0 1-1.339 1.27q-.852.443-1.951.443-1.227 0-2.156-.541a3.75 3.75 0 0 1-1.449-1.547q-.516-1.005-.516-2.386 0-1.062.307-1.892a4 4 0 0 1 .869-1.415 3.75 3.75 0 0 1 1.3-.882 4.2 4.2 0 0 1 1.606-.303q.742 0 1.381.218.639.212 1.134.605.498.392.814.933.315.537.404 1.185zm5.043 6.029q-.627 0-1.117-.217a1.8 1.8 0 0 1-.775-.652q-.282-.434-.282-1.082 0-.545.201-.917.2-.37.545-.596t.784-.341q.443-.115.929-.162.571-.06.921-.111.35-.056.507-.162a.36.36 0 0 0 .157-.315v-.026q0-.404-.255-.626-.251-.222-.716-.222-.49 0-.78.218a1 1 0 0 0-.383.537l-1.679-.137q.127-.596.502-1.031.375-.44.968-.673.596-.239 1.38-.239.546 0 1.044.128.504.127.891.396.392.268.618.691.226.417.226 1.001v4.415h-1.722v-.908h-.051a1.8 1.8 0 0 1-.422.541 2 2 0 0 1-.635.363 2.6 2.6 0 0 1-.856.127m.52-1.252q.4 0 .707-.158.307-.162.482-.435.174-.273.174-.618v-.694a1 1 0 0 1-.234.102 5 5 0 0 1-.695.145l-.332.047a2.2 2.2 0 0 0-.558.149.9.9 0 0 0-.371.277.68.68 0 0 0-.132.426q0 .37.268.567.273.192.691.192m7.924-5.417v1.364h-3.942v-1.364zm-3.047-1.568h1.815v6.102q0 .252.077.392a.42.42 0 0 0 .213.192.9.9 0 0 0 .324.056q.127 0 .256-.022l.196-.038.285 1.351a6 6 0 0 1-.383.098q-.248.06-.601.072-.657.025-1.151-.174a1.6 1.6 0 0 1-.763-.623q-.272-.422-.268-1.065zm7.01 8.242q-1.01 0-1.739-.409a2.8 2.8 0 0 1-1.116-1.168q-.393-.759-.392-1.794 0-1.01.392-1.773a2.9 2.9 0 0 1 1.103-1.189q.716-.426 1.679-.426.648 0 1.206.209.563.204.981.618.422.413.656 1.04.234.621.234 1.457v.499h-5.527v-1.125h3.818q0-.392-.17-.695a1.2 1.2 0 0 0-.473-.473 1.35 1.35 0 0 0-.695-.175q-.413 0-.733.192-.315.188-.494.507-.178.316-.183.703v1.07q0 .486.179.839.183.354.515.546.333.192.789.192.302 0 .554-.086a1.2 1.2 0 0 0 .43-.255q.178-.17.273-.418l1.679.111q-.128.604-.524 1.057-.393.447-1.015.698-.617.248-1.427.248m5.301-.128-1.781-6.546h1.837l1.014 4.398h.059l1.057-4.398h1.803l1.074 4.373h.055l.997-4.373h1.833l-1.777 6.546h-1.922l-1.125-4.117h-.081l-1.125 4.117zm10.65.123q-.625 0-1.116-.217a1.8 1.8 0 0 1-.776-.652q-.28-.434-.281-1.082 0-.545.2-.917.201-.37.546-.596t.784-.341q.443-.115.929-.162.571-.06.92-.111.35-.056.508-.162a.36.36 0 0 0 .157-.315v-.026q0-.404-.255-.626-.252-.222-.716-.222-.49 0-.78.218a1 1 0 0 0-.384.537l-1.679-.137q.129-.596.503-1.031.375-.44.967-.673.597-.239 1.381-.239.546 0 1.044.128.503.127.891.396.392.268.618.691.226.417.226 1.001v4.415h-1.722v-.908h-.051a1.8 1.8 0 0 1-.422.541 2 2 0 0 1-.635.363 2.6 2.6 0 0 1-.857.127m.52-1.252q.4 0 .708-.158.307-.162.481-.435.175-.273.175-.618v-.694a1 1 0 0 1-.234.102 5 5 0 0 1-.329.081q-.183.034-.366.064l-.332.047q-.32.047-.559.149a.9.9 0 0 0-.37.277.68.68 0 0 0-.132.426q0 .37.268.567.273.192.69.192m5.329 3.583q-.345 0-.647-.055a2.4 2.4 0 0 1-.495-.132l.409-1.355q.32.098.576.106a.73.73 0 0 0 .447-.119q.192-.128.311-.435l.107-.277-2.348-6.733h1.909l1.355 4.807h.068l1.368-4.807h1.922l-2.544 7.253a3 3 0 0 1-.499.921q-.31.396-.788.609-.477.217-1.151.217"/><path fill="#0055DC" d="M1213.51 285.198H1210v18.05h3.51zm91.49 0h-3.51v18.05h3.51z"/><path fill="#fff" stroke="#0055DC" stroke-miterlimit="10" stroke-width="1.5" d="M1218.31 306.464v3.426l78.38-.004v-3.426z"/><path fill="#C5EBF5" stroke="#0055DC" stroke-miterlimit="10" stroke-width="1.5" d="M1301.49 282h-87.98v24.462h87.98z"/><path fill="#fff" d="M1297.69 303.012v-17.564h-80.38v17.564z"/><path fill="#0055DC" d="M1223.83 290.408h-1.95v1.902h1.95zm0 5.725h-1.95v1.903h1.95zm2.67-3.016h-1.95v1.902h1.95zm2.37-2.709h-1.95v1.902h1.95zm0 5.725h-1.95v1.903h1.95zm2.52-3.016h-1.95v1.902h1.95zm2.98-2.709h-1.95v1.902h1.95zm0 5.725h-1.95v1.903h1.95zm2.52-3.016h-1.95v1.902h1.95zm3.06-2.709h-1.94v1.902h1.94zm0 5.725h-1.94v1.903h1.94zm2.37-3.016h-1.94v1.902h1.94zm2.67-2.709h-1.95v1.902h1.95zm0 5.725h-1.95v1.903h1.95zm2.22-3.016h-1.94v1.902h1.94zm2.82-2.709h-1.95v1.902h1.95zm0 5.725h-1.95v1.903h1.95zm2.07-3.016h-1.94v1.902h1.94zm39.21 3.475c1.33 0 2.41-1.057 2.41-2.361s-1.08-2.362-2.41-2.362c-1.34 0-2.42 1.058-2.42 2.362s1.08 2.361 2.42 2.361"/><path stroke="#0055DC" stroke-miterlimit="10" stroke-width="1.5" d="M1284.35 294.231h-25.6"/><path stroke="#5E5E5E" stroke-width="3" d="m316 121 894 173M142 119h96m-96 120h96m-96 115h96m-96 114h96m74-231 898 57m-894 60 894-60M312 474l898-180"/><path fill="#C5EBF5" fill-rule="evenodd" stroke="#0055DC" stroke-miterlimit="10" stroke-width="1.5" d="M139.242 86H51.397c-2.327 0-4.41 1.96-4.41 4.41v57.706h96.665V90.411c0-2.45-2.083-4.411-4.41-4.411Z" clip-rule="evenodd"/><path fill="#0055DC" d="M95.258 90.288a.735.735 0 1 0 0-1.47.735.735 0 0 0 0 1.47"/><path fill="#fff" d="M147.45 152.526H43.066c-5.39 0-9.066-.857-9.066-1.592v-2.451c0-.245.245-.49.49-.49h121.414c.245 0 .49.245.49.49v2.451c.122.735-2.696 1.592-8.944 1.592"/><path stroke="#0055DC" stroke-miterlimit="10" stroke-width="1.5" d="M147.45 152.526H43.066c-5.39 0-9.066-.857-9.066-1.592v-2.451c0-.245.245-.49.49-.49h121.414c.245 0 .49.245.49.49v2.451c.122.735-2.696 1.592-8.944 1.592Z" clip-rule="evenodd"/><path fill="#C5EBF5" d="M156.516 148.483c0-.245-.245-.49-.49-.49H34.612c-.245 0-.49.245-.49.49v2.328h122.516v-2.328z"/><path stroke="#0055DC" stroke-miterlimit="10" stroke-width="1.5" d="M147.45 152.526H43.066c-5.39 0-9.066-.857-9.066-1.592v-2.451c0-.245.245-.49.49-.49h121.414c.245 0 .49.245.49.49v2.451c.122.735-2.696 1.592-8.944 1.592Z"/><path fill="#fff" d="M139.609 92.861H50.907v51.702h88.702z"/><path fill="#0055DC" fill-rule="evenodd" d="M108.612 148.238v.49c0 .368-.735.49-1.347.49H83.374c-.612 0-1.348-.122-1.348-.49v-.49" clip-rule="evenodd"/><path fill="#fff" stroke="#0055DC" stroke-miterlimit="10" stroke-width="1.5" d="M95.302 139.906c12.388 0 22.431-10.043 22.431-22.431s-10.043-22.43-22.43-22.43-22.43 10.042-22.43 22.43 10.042 22.431 22.43 22.431Z"/><path fill="#003682" d="M94.385 109.061a1 1 0 0 1 1.674 0l.317.486a1 1 0 0 0 1.42.265l.47-.336a1 1 0 0 1 1.56.603l.123.575a1 1 0 0 0 1.226.759l.562-.144a1 1 0 0 1 1.236 1.125l-.093.588a1 1 0 0 0 .868 1.15l.583.07a1 1 0 0 1 .745 1.494l-.301.519a1 1 0 0 0 .394 1.384l.525.28a1 1 0 0 1 .154 1.662l-.466.374a1 1 0 0 0-.133 1.432l.391.455a1 1 0 0 1-.458 1.605l-.564.178a1 1 0 0 0-.641 1.288l.2.564a1 1 0 0 1-1.008 1.333l-.582-.039a1 1 0 0 0-1.065.971l-.016.592a1 1 0 0 1-1.423.879l-.523-.244a1 1 0 0 0-1.346.521l-.225.539a1 1 0 0 1-1.645.307l-.4-.417a1 1 0 0 0-1.444 0l-.4.417a1 1 0 0 1-1.645-.307l-.225-.539a1 1 0 0 0-1.346-.521l-.524.244a1 1 0 0 1-1.422-.879l-.016-.592a1 1 0 0 0-1.065-.971l-.582.039a1 1 0 0 1-1.008-1.333l.2-.564a1 1 0 0 0-.642-1.288l-.564-.178a1 1 0 0 1-.457-1.605l.39-.455a1 1 0 0 0-.132-1.432l-.466-.374a1 1 0 0 1 .154-1.662l.524-.28a1 1 0 0 0 .394-1.384l-.3-.519a1 1 0 0 1 .745-1.494l.583-.07a1 1 0 0 0 .868-1.15l-.093-.588a1 1 0 0 1 1.236-1.125l.562.144a1 1 0 0 0 1.226-.759l.123-.575a1 1 0 0 1 1.56-.603l.47.336a1 1 0 0 0 1.42-.265z"/><path fill="#C5EBF5" stroke="#003682" stroke-miterlimit="10" stroke-width="1.5" d="M88.225 129.16a15.8 15.8 0 0 0 3.22-2.343v-5.92l7.798.092v5.568c.356.692 1.7 1.542 3.494 2.549 0 0-3.337 4.977-7.528 4.977-4.192 0-6.984-4.923-6.984-4.923Z"/><path fill="#0055DC" stroke="#003682" stroke-miterlimit="10" stroke-width="1.5" d="M95.303 139.906a22.35 22.35 0 0 0 15.059-5.808 35 35 0 0 0-7.582-4.953s-3.38 4.938-7.57 4.938c-4.192 0-7.007-4.875-7.007-4.875-2.573 1.451-5.729 2.816-8.094 4.763a22.35 22.35 0 0 0 15.194 5.935Z"/><path fill="#C5EBF5" stroke="#003682" stroke-miterlimit="10" stroke-width="1.5" d="M102.739 113.414a1.24 1.24 0 0 1 1.106-.93c.172-.013.344.01.506.067.975.294.426 3.834-2.298 3.708q.423-1.402.686-2.845Zm-14.876 0a1.27 1.27 0 0 0-.644-.796 1.3 1.3 0 0 0-1.022-.067c-.85.345-.426 3.834 2.3 3.709a23 23 0 0 1-.634-2.846Z"/><path fill="#C5EBF5" stroke="#003682" stroke-miterlimit="10" stroke-width="1.5" d="M103.092 110.164c0 2.022-.74 6.14-2.04 8.626-.965 1.846-3.452 3.901-5.712 3.901s-4.491-2.055-5.712-3.9c-1.548-2.34-2.04-6.605-2.04-8.627a7.753 7.753 0 0 1 15.504 0Z"/><path fill="#003682" stroke="#003682" stroke-linejoin="round" stroke-width="1.5" d="M102.693 112.71c-.363-3.081-3.351-7.182-6.688-7.182l-.551-2.554 1.033 2.583c0 5.583-8.279 4.092-8.624 7.781l-.133-.132a22.4 22.4 0 0 1-.274-3.25c0-4.282 3.603-7.62 7.885-7.62a7.867 7.867 0 0 1 7.885 7.753 16 16 0 0 1-.436 3.157z"/><path stroke="#0055DC" stroke-miterlimit="10" stroke-width="1.5" d="M95.302 139.906c12.388 0 22.431-10.043 22.431-22.431s-10.043-22.43-22.43-22.43-22.43 10.042-22.43 22.43 10.042 22.431 22.43 22.431Z"/><path fill="#222" d="M83.76 158.799v8.727h-1.845v-8.727zm3.3 4.943v3.784h-1.816v-6.545h1.73v1.155h.077q.218-.571.728-.904.512-.336 1.24-.336.682 0 1.19.298.506.299.788.852.28.55.281 1.313v4.167h-1.815v-3.843q.004-.601-.307-.938-.311-.34-.857-.341-.366 0-.647.158-.277.157-.435.46a1.6 1.6 0 0 0-.158.72m8.06 3.891q-.745 0-1.35-.384-.6-.387-.955-1.137-.35-.755-.35-1.85 0-1.124.363-1.871.363-.75.963-1.12.605-.375 1.326-.375.549 0 .916.187.37.184.596.46.23.273.35.537h.055v-3.281h1.811v8.727h-1.79v-1.048h-.076a2.3 2.3 0 0 1-.362.541 1.8 1.8 0 0 1-.601.439q-.367.175-.895.175m.576-1.445q.44 0 .742-.238.306-.243.468-.678.166-.435.166-1.018 0-.585-.162-1.015a1.46 1.46 0 0 0-.468-.664 1.2 1.2 0 0 0-.746-.235q-.448 0-.754.243a1.5 1.5 0 0 0-.465.673q-.157.43-.157.998 0 .57.157 1.01.162.434.465.681.306.243.754.243m4.642 1.338v-6.545h1.815v6.545zm.912-7.389a1 1 0 0 1-.695-.268.87.87 0 0 1-.285-.652q0-.375.285-.644a.98.98 0 0 1 .695-.272q.405 0 .69.272.29.269.29.644 0 .38-.29.652a.97.97 0 0 1-.69.268m4.224 7.513q-.627 0-1.117-.217a1.8 1.8 0 0 1-.775-.652q-.282-.435-.282-1.083 0-.545.201-.916.2-.37.545-.597t.784-.34q.444-.116.929-.162.572-.06.921-.111.35-.055.507-.162a.36.36 0 0 0 .157-.315v-.026q0-.405-.255-.626-.252-.222-.716-.222-.49 0-.78.217a1 1 0 0 0-.383.537l-1.679-.136q.127-.597.502-1.031a2.4 2.4 0 0 1 .968-.674q.596-.238 1.38-.238.546 0 1.044.128.504.128.891.396.391.268.618.69.226.418.226 1.002v4.414h-1.722v-.907h-.051a1.9 1.9 0 0 1-.422.541 2 2 0 0 1-.635.362 2.6 2.6 0 0 1-.856.128m.52-1.253q.4 0 .707-.158.307-.162.482-.434.174-.273.174-.618v-.695a1 1 0 0 1-.234.103 5 5 0 0 1-.695.144l-.332.047a2.3 2.3 0 0 0-.558.149.9.9 0 0 0-.371.277.68.68 0 0 0-.132.427q0 .37.268.566.273.192.691.192"/><path fill="#C5EBF5" fill-rule="evenodd" stroke="#0055DC" stroke-miterlimit="10" stroke-width="1.5" d="M139.242 321H51.397c-2.327 0-4.41 1.96-4.41 4.411v57.705h96.665v-57.705c0-2.451-2.083-4.411-4.41-4.411Z" clip-rule="evenodd"/><path fill="#0055DC" d="M95.258 325.288a.735.735 0 1 0 0-1.47.735.735 0 0 0 0 1.47"/><path fill="#fff" d="M147.45 387.526H43.066c-5.39 0-9.066-.857-9.066-1.592v-2.451c0-.245.245-.49.49-.49h121.414c.245 0 .49.245.49.49v2.451c.122.735-2.696 1.592-8.944 1.592"/><path stroke="#0055DC" stroke-miterlimit="10" stroke-width="1.5" d="M147.45 387.526H43.066c-5.39 0-9.066-.857-9.066-1.592v-2.451c0-.245.245-.49.49-.49h121.414c.245 0 .49.245.49.49v2.451c.122.735-2.696 1.592-8.944 1.592Z" clip-rule="evenodd"/><path fill="#C5EBF5" d="M156.516 383.483c0-.245-.245-.49-.49-.49H34.612c-.245 0-.49.245-.49.49v2.328h122.516v-2.328z"/><path stroke="#0055DC" stroke-miterlimit="10" stroke-width="1.5" d="M147.45 387.526H43.066c-5.39 0-9.066-.857-9.066-1.592v-2.451c0-.245.245-.49.49-.49h121.414c.245 0 .49.245.49.49v2.451c.122.735-2.696 1.592-8.944 1.592Z"/><path fill="#fff" d="M139.609 327.861H50.907v51.702h88.702z"/><path fill="#0055DC" fill-rule="evenodd" d="M108.612 383.238v.49c0 .368-.735.49-1.347.49H83.374c-.612 0-1.348-.122-1.348-.49v-.49" clip-rule="evenodd"/><path fill="#fff" stroke="#0055DC" stroke-miterlimit="10" stroke-width="1.5" d="M95.302 374.906c12.388 0 22.431-10.043 22.431-22.431s-10.043-22.43-22.43-22.43-22.43 10.042-22.43 22.43 10.042 22.431 22.43 22.431Z"/><path fill="#003682" d="M94.385 344.061a1 1 0 0 1 1.674 0l.317.486a1 1 0 0 0 1.42.265l.47-.336a1 1 0 0 1 1.56.603l.123.575a1 1 0 0 0 1.226.759l.562-.144a1 1 0 0 1 1.236 1.125l-.093.588a1 1 0 0 0 .868 1.15l.583.07a1 1 0 0 1 .745 1.494l-.301.519a1 1 0 0 0 .394 1.384l.525.28a1 1 0 0 1 .154 1.662l-.466.374a1 1 0 0 0-.133 1.432l.391.455a1 1 0 0 1-.458 1.605l-.564.178a1 1 0 0 0-.641 1.288l.2.564a1 1 0 0 1-1.008 1.333l-.582-.039a1 1 0 0 0-1.065.971l-.016.592a1 1 0 0 1-1.423.879l-.523-.244a1 1 0 0 0-1.346.521l-.225.539a1 1 0 0 1-1.645.307l-.4-.417a1 1 0 0 0-1.444 0l-.4.417a1 1 0 0 1-1.645-.307l-.225-.539a1 1 0 0 0-1.346-.521l-.524.244a1 1 0 0 1-1.422-.879l-.016-.592a1 1 0 0 0-1.065-.971l-.582.039a1 1 0 0 1-1.008-1.333l.2-.564a1 1 0 0 0-.642-1.288l-.564-.178a1 1 0 0 1-.457-1.605l.39-.455a1 1 0 0 0-.132-1.432l-.466-.374a1 1 0 0 1 .154-1.662l.524-.28a1 1 0 0 0 .394-1.384l-.3-.519a1 1 0 0 1 .745-1.494l.583-.07a1 1 0 0 0 .868-1.15l-.093-.588a1 1 0 0 1 1.236-1.125l.562.144a1 1 0 0 0 1.226-.759l.123-.575a1 1 0 0 1 1.56-.603l.47.336a1 1 0 0 0 1.42-.265z"/><path fill="#C5EBF5" stroke="#003682" stroke-miterlimit="10" stroke-width="1.5" d="M88.225 364.16a15.8 15.8 0 0 0 3.22-2.343v-5.92l7.798.092v5.568c.356.692 1.7 1.542 3.494 2.549 0 0-3.337 4.977-7.528 4.977-4.192 0-6.984-4.923-6.984-4.923Z"/><path fill="#0055DC" stroke="#003682" stroke-miterlimit="10" stroke-width="1.5" d="M95.303 374.906a22.35 22.35 0 0 0 15.059-5.808 35 35 0 0 0-7.582-4.953s-3.38 4.938-7.57 4.938c-4.192 0-7.007-4.875-7.007-4.875-2.573 1.451-5.729 2.816-8.094 4.763a22.35 22.35 0 0 0 15.194 5.935Z"/><path fill="#C5EBF5" stroke="#003682" stroke-miterlimit="10" stroke-width="1.5" d="M102.739 348.414a1.24 1.24 0 0 1 1.106-.93c.172-.013.344.01.506.067.975.294.426 3.834-2.298 3.708q.423-1.402.686-2.845Zm-14.876 0a1.27 1.27 0 0 0-.644-.796 1.3 1.3 0 0 0-1.022-.067c-.85.345-.426 3.834 2.3 3.709a23 23 0 0 1-.634-2.846Z"/><path fill="#C5EBF5" stroke="#003682" stroke-miterlimit="10" stroke-width="1.5" d="M103.092 345.164c0 2.022-.74 6.14-2.04 8.626-.965 1.846-3.452 3.901-5.712 3.901s-4.491-2.055-5.712-3.9c-1.548-2.34-2.04-6.605-2.04-8.627a7.753 7.753 0 0 1 15.504 0Z"/><path fill="#003682" stroke="#003682" stroke-linejoin="round" stroke-width="1.5" d="M102.693 347.71c-.363-3.081-3.351-7.182-6.688-7.182l-.551-2.554 1.033 2.583c0 5.583-8.279 4.092-8.624 7.781l-.133-.132a22.4 22.4 0 0 1-.274-3.25c0-4.282 3.603-7.62 7.885-7.62a7.867 7.867 0 0 1 7.885 7.753 16 16 0 0 1-.436 3.157z"/><path stroke="#0055DC" stroke-miterlimit="10" stroke-width="1.5" d="M95.302 374.906c12.388 0 22.431-10.043 22.431-22.431s-10.043-22.43-22.43-22.43-22.43 10.042-22.43 22.43 10.042 22.431 22.43 22.431Z"/><path fill="#222" d="M61.823 391.273h1.845v5.667q0 .955-.456 1.671a3.05 3.05 0 0 1-1.265 1.116q-.814.396-1.897.397-1.086 0-1.9-.397a3.05 3.05 0 0 1-1.266-1.116q-.452-.716-.452-1.671v-5.667h1.846v5.51q0 .498.217.886.222.389.622.609.4.222.933.222.538 0 .934-.222.4-.22.617-.609.222-.387.222-.886zm5.145 4.943V400h-1.816v-6.545h1.73v1.154h.077a1.83 1.83 0 0 1 .729-.903q.51-.337 1.24-.337.68 0 1.189.299.506.298.788.852.281.55.281 1.312V400h-1.815v-3.844q.004-.6-.307-.937-.311-.341-.856-.341-.367 0-.648.158-.278.157-.435.46a1.6 1.6 0 0 0-.157.72M72.617 400v-6.545h1.815V400zm.912-7.389a1 1 0 0 1-.695-.269.87.87 0 0 1-.285-.652q0-.375.285-.643a.98.98 0 0 1 .695-.273q.405 0 .69.273.29.268.29.643a.86.86 0 0 1-.29.652.97.97 0 0 1-.69.269m5.84.844v1.363h-3.943v-1.363zm-3.048-1.569h1.816v6.103a.8.8 0 0 0 .076.392.42.42 0 0 0 .213.191.9.9 0 0 0 .324.056q.127 0 .256-.021l.196-.039.285 1.351q-.135.042-.383.098-.247.06-.601.072-.656.026-1.15-.174a1.6 1.6 0 0 1-.763-.622q-.273-.423-.269-1.066zm7.142 8.242q-1.01 0-1.738-.409a2.8 2.8 0 0 1-1.117-1.168q-.392-.759-.392-1.794 0-1.01.392-1.773t1.104-1.189q.716-.426 1.679-.426.648 0 1.206.209.563.204.98.618.422.413.656 1.04.234.622.234 1.457v.499h-5.526v-1.125h3.818a1.4 1.4 0 0 0-.17-.695 1.2 1.2 0 0 0-.474-.473 1.35 1.35 0 0 0-.694-.175q-.414 0-.733.192-.315.188-.495.507-.179.316-.183.703v1.07q0 .486.18.84.182.353.515.545.332.192.788.192.302 0 .554-.085t.43-.256q.18-.17.273-.418l1.68.111q-.128.605-.525 1.057a2.64 2.64 0 0 1-1.014.699q-.618.246-1.428.247m6.601-.021a2.47 2.47 0 0 1-1.35-.384q-.602-.388-.955-1.138-.35-.754-.35-1.849 0-1.125.362-1.871.363-.75.964-1.121.605-.375 1.325-.375.55 0 .916.188.37.183.597.46.23.273.35.537h.055v-3.281h1.81V400h-1.79v-1.048h-.076a2.3 2.3 0 0 1-.362.541 1.8 1.8 0 0 1-.601.439q-.367.175-.895.175m.575-1.445q.44 0 .742-.239a1.5 1.5 0 0 0 .469-.677q.165-.435.166-1.019 0-.583-.162-1.014a1.46 1.46 0 0 0-.469-.665 1.2 1.2 0 0 0-.746-.234q-.448 0-.754.243-.307.243-.464.673a2.9 2.9 0 0 0-.158.997q0 .572.158 1.01.162.435.464.682.307.243.754.243m12.188-4.879a1.08 1.08 0 0 0-.439-.801q-.388-.286-1.053-.286a2 2 0 0 0-.762.128 1.07 1.07 0 0 0-.478.345.83.83 0 0 0-.162.503.7.7 0 0 0 .098.409q.111.174.303.303.192.123.443.217.252.09.537.153l.784.188q.571.128 1.048.341.478.212.827.524.35.311.541.733.197.421.201.967-.005.801-.409 1.389-.4.584-1.16.908-.754.32-1.819.32-1.057 0-1.841-.324a2.7 2.7 0 0 1-1.219-.959q-.434-.639-.456-1.581h1.786q.03.44.251.733.225.29.601.439.379.144.857.145.468 0 .813-.137a1.25 1.25 0 0 0 .542-.379.87.87 0 0 0 .191-.558.73.73 0 0 0-.174-.494 1.3 1.3 0 0 0-.503-.341 5 5 0 0 0-.806-.256l-.95-.239q-1.103-.269-1.743-.839-.64-.572-.635-1.539-.003-.793.422-1.384.43-.593 1.18-.925.751-.333 1.705-.333.972 0 1.696.333.729.332 1.134.925.405.591.417 1.372zm6.576-.328v1.363h-3.942v-1.363zm-3.047-1.569h1.816v6.103q0 .25.076.392a.42.42 0 0 0 .213.191.9.9 0 0 0 .324.056q.129 0 .256-.021l.196-.039.286 1.351a5 5 0 0 1-.384.098q-.247.06-.601.072-.656.026-1.15-.174a1.6 1.6 0 0 1-.763-.622q-.272-.423-.269-1.066zm6.096 8.238q-.626 0-1.116-.218a1.8 1.8 0 0 1-.776-.652q-.28-.434-.281-1.082 0-.546.2-.916.201-.37.546-.597.345-.225.784-.341.443-.115.929-.162.57-.06.92-.111.35-.054.507-.161a.36.36 0 0 0 .158-.316v-.025q0-.405-.256-.627-.25-.221-.716-.221-.49 0-.779.217a1 1 0 0 0-.384.537l-1.679-.137q.128-.596.503-1.031.375-.438.967-.673.597-.239 1.381-.239.546 0 1.044.128.502.127.891.396.392.269.617.691.226.417.226 1.001V400h-1.721v-.908h-.051a1.9 1.9 0 0 1-.422.542 2 2 0 0 1-.635.362 2.6 2.6 0 0 1-.857.128m.52-1.253q.4 0 .708-.158.306-.162.481-.435.175-.272.175-.617v-.695a1 1 0 0 1-.235.102 4 4 0 0 1-.328.081q-.183.034-.366.064l-.333.047a2.2 2.2 0 0 0-.558.149.9.9 0 0 0-.371.277.68.68 0 0 0-.132.426q0 .37.269.567.273.192.69.192m8.056-5.416v1.363h-3.942v-1.363zm-3.047-1.569h1.816v6.103q0 .25.076.392a.42.42 0 0 0 .213.191.9.9 0 0 0 .324.056q.129 0 .256-.021l.196-.039.286 1.351a5 5 0 0 1-.384.098q-.247.06-.601.072-.656.026-1.15-.174a1.6 1.6 0 0 1-.763-.622q-.272-.423-.269-1.066zm7.142 8.242q-1.01 0-1.738-.409a2.8 2.8 0 0 1-1.117-1.168q-.392-.759-.392-1.794 0-1.01.392-1.773.393-.762 1.104-1.189.716-.426 1.679-.426.648 0 1.206.209.563.204.98.618.422.413.656 1.04.235.622.235 1.457v.499h-5.527v-1.125h3.818q0-.393-.171-.695a1.2 1.2 0 0 0-.473-.473 1.35 1.35 0 0 0-.694-.175q-.414 0-.733.192-.315.188-.494.507a1.43 1.43 0 0 0-.184.703v1.07q0 .486.179.84.183.353.516.545.332.192.788.192.303 0 .554-.085t.431-.256a1.1 1.1 0 0 0 .272-.418l1.679.111q-.128.605-.524 1.057a2.6 2.6 0 0 1-1.014.699q-.618.246-1.428.247m9.635-4.807-1.662.102a.85.85 0 0 0-.183-.383.96.96 0 0 0-.371-.277 1.3 1.3 0 0 0-.541-.107q-.422 0-.711.179-.29.175-.29.469 0 .234.187.396.188.162.644.26l1.184.239q.955.196 1.424.631.468.434.468 1.142 0 .643-.379 1.129-.375.486-1.031.758-.652.269-1.504.269-1.3 0-2.071-.541a2.1 2.1 0 0 1-.899-1.483l1.785-.094a.92.92 0 0 0 .392.605q.31.205.797.205.477 0 .767-.184.294-.187.298-.481a.5.5 0 0 0-.208-.405q-.205-.162-.631-.247l-1.134-.226q-.959-.191-1.427-.665-.465-.472-.465-1.206 0-.63.341-1.086.345-.456.968-.704.626-.246 1.465-.247 1.24 0 1.952.524.716.525.835 1.428"/><path fill="#C5EBF5" fill-rule="evenodd" stroke="#0055DC" stroke-miterlimit="10" stroke-width="1.5" d="M141.488 203H49.265c-2.444 0-4.63 2.058-4.63 4.63v60.582h101.483V207.63c0-2.572-2.187-4.63-4.63-4.63Z" clip-rule="evenodd"/><path fill="#0055DC" d="M95.312 207.502a.772.772 0 1 0-.001-1.544.772.772 0 0 0 0 1.544"/><path fill="#fff" d="M150.105 272.842H40.518c-5.66 0-9.518-.9-9.518-1.672v-2.572c0-.257.257-.515.515-.515H158.98c.257 0 .515.258.515.515v2.572c.128.772-2.83 1.672-9.39 1.672"/><path stroke="#0055DC" stroke-miterlimit="10" stroke-width="1.5" d="M150.105 272.842H40.518c-5.66 0-9.518-.9-9.518-1.672v-2.572c0-.257.257-.515.515-.515H158.98c.257 0 .515.258.515.515v2.572c.128.772-2.83 1.672-9.39 1.672Z" clip-rule="evenodd"/><path fill="#C5EBF5" d="M159.623 268.598c0-.257-.257-.515-.514-.515H31.643c-.257 0-.515.258-.515.515v2.444h128.624v-2.444z"/><path stroke="#0055DC" stroke-miterlimit="10" stroke-width="1.5" d="M150.105 272.842H40.518c-5.66 0-9.518-.9-9.518-1.672v-2.572c0-.257.257-.515.515-.515H158.98c.257 0 .515.258.515.515v2.572c.128.772-2.83 1.672-9.39 1.672Z"/><path fill="#fff" d="M141.873 210.203H48.75v54.279h93.123z"/><path fill="#0055DC" fill-rule="evenodd" d="M109.332 268.341v.514c0 .386-.772.515-1.415.515H82.835c-.643 0-1.415-.129-1.415-.515v-.514" clip-rule="evenodd"/><path fill="#CBE9F3" d="M108.014 252.783c-3.767-2-7.94-2.538-8.717-4.363-.589-1.383 0-6.012 0-6.012l-9.103-.095s.575 4.693 0 6.107c-.698 1.714-4.49 2.267-7.97 4.214"/><path stroke="#193979" stroke-miterlimit="10" stroke-width="1.5" d="M108.014 252.783c-3.767-2-7.94-2.538-8.717-4.363-.589-1.383 0-6.012 0-6.012l-9.103-.095s.575 4.693 0 6.107c-.698 1.714-4.49 2.267-7.97 4.214"/><path fill="#1B59D3" stroke="#0F387D" stroke-linecap="round" stroke-miterlimit="10" stroke-width="1.5" d="M95.204 257.545a19.55 19.55 0 0 0 12.809-4.761c-3.766-2-7.939-2.539-8.717-4.364a4 4 0 0 1-.229-1.193 23.7 23.7 0 0 1-4.328.464 23.5 23.5 0 0 1-4.325-.464c-.016.406-.09.808-.222 1.193-.697 1.715-4.489 2.268-7.97 4.216a19.55 19.55 0 0 0 12.982 4.909Z"/><path fill="#CBE9F3" d="M87.877 234.287c-.072-.587-.943-1.642-1.971-.965-1.006.661-.04 5.606 2.765 5.422"/><path stroke="#193979" stroke-miterlimit="10" stroke-width="1.5" d="M87.877 234.287c-.072-.587-.943-1.642-1.971-.965-1.006.661-.04 5.606 2.765 5.422"/><path fill="#CBE9F3" d="M101.647 234.287c.072-.587.942-1.642 1.971-.965 1.005.661.039 5.606-2.766 5.422"/><path stroke="#193979" stroke-miterlimit="10" stroke-width="1.5" d="M101.647 234.287c.072-.587.942-1.642 1.971-.965 1.005.661.039 5.606-2.766 5.422"/><path fill="#CBE9F3" stroke="#193979" stroke-miterlimit="10" stroke-width="1.5" d="M101.824 230.847a20.4 20.4 0 0 1-.656 5.747c-.268.948-.584 3.856-.948 4.609-.915 1.899-3.274 4.012-5.417 4.012-2.144 0-4.258-2.112-5.418-4.011-.443-.727-.794-3.639-1.07-4.608-.637-2.243-.533-4.297-.533-5.749 0-4.405 2.957-7.337 7.017-7.337s7.025 2.932 7.025 7.337Z"/><path fill="#0F387D" stroke="#0F387D" stroke-linejoin="round" stroke-width="1.5" d="M100.587 229.916s-7.255.683-10.567-1.703c0 0-.965 4.066-2.142 6.074 0 0-1.451-6.168.662-6.986 0 0-.175-3.422 3.599-4.299 0 0-.195.853.438.828s5.66-2.922 9.247-.657c3.587 2.264.833 5.575.833 5.575s.098 3.498-.767 4.975l-.313 1.002s-.908-3.167-.99-4.809Z"/><path stroke="#1B59D3" stroke-miterlimit="10" stroke-width="1.5" d="M95.204 257.545c10.842 0 19.631-8.79 19.631-19.632s-8.789-19.631-19.63-19.631c-10.843 0-19.632 8.789-19.632 19.631s8.789 19.632 19.631 19.632Z"/><path stroke="#1B59D3" stroke-miterlimit="10" stroke-width="1.5" d="M95.204 257.545c10.842 0 19.631-8.79 19.631-19.632s-8.789-19.631-19.63-19.631c-10.843 0-19.632 8.789-19.632 19.631s8.789 19.632 19.631 19.632Z"/><path fill="#222" d="M75.356 282.094a1.9 1.9 0 0 0-.251-.55 1.7 1.7 0 0 0-.925-.669 2.2 2.2 0 0 0-.652-.089q-.669 0-1.176.332-.504.332-.784.967-.282.631-.282 1.543t.277 1.551.784.976q.508.332 1.198.332.627 0 1.07-.221.447-.227.681-.635.24-.409.239-.968l.375.056h-2.25v-1.389h3.652v1.099q0 1.15-.486 1.977-.486.823-1.338 1.27-.852.444-1.952.443-1.227 0-2.156-.541a3.76 3.76 0 0 1-1.449-1.547q-.515-1.006-.515-2.386 0-1.062.306-1.892a4 4 0 0 1 .87-1.415q.558-.579 1.3-.882a4.2 4.2 0 0 1 1.606-.303q.742 0 1.38.218.64.213 1.134.605.5.392.814.933.315.537.405 1.185zm6.29 6.034q-1.008 0-1.738-.409a2.8 2.8 0 0 1-1.116-1.168q-.392-.759-.392-1.794 0-1.01.392-1.773t1.103-1.189q.716-.426 1.68-.426.647 0 1.205.209.563.204.98.618.422.413.657 1.04.234.622.234 1.457v.499h-5.527v-1.125h3.818a1.4 1.4 0 0 0-.17-.695 1.2 1.2 0 0 0-.473-.473 1.35 1.35 0 0 0-.695-.175q-.413 0-.733.192-.315.188-.494.507-.18.316-.183.703v1.07q0 .486.179.84.183.353.515.545.333.192.789.192.302 0 .554-.085a1.11 1.11 0 0 0 .703-.674l1.679.111q-.128.605-.524 1.057a2.64 2.64 0 0 1-1.015.699q-.618.247-1.427.247m4.19-.128v-6.545h1.76v1.142h.068q.18-.61.6-.921a1.58 1.58 0 0 1 .972-.315 2.6 2.6 0 0 1 .571.064v1.611a3.2 3.2 0 0 0-.767-.098q-.4 0-.716.174a1.3 1.3 0 0 0-.494.477q-.18.307-.179.708V288zm4.91 0v-6.545h1.73v1.154h.077q.204-.575.682-.907.477-.333 1.142-.333.673 0 1.146.337.473.333.63.903h.069q.2-.562.724-.899.53-.34 1.249-.341.915 0 1.487.584.575.58.575 1.645V288h-1.81v-4.044q0-.546-.29-.818a1 1 0 0 0-.725-.273q-.495 0-.771.315-.277.312-.277.823V288h-1.76v-4.082q0-.482-.277-.767-.273-.286-.72-.286-.303 0-.546.153-.238.15-.38.422-.14.269-.14.631V288zm12.812.124q-.627 0-1.117-.218a1.8 1.8 0 0 1-.775-.652q-.282-.434-.282-1.082 0-.546.201-.916.2-.37.545-.597.346-.225.784-.341a6 6 0 0 1 .929-.162q.572-.06.921-.111.35-.054.507-.161a.36.36 0 0 0 .157-.316v-.025q0-.405-.255-.627-.252-.221-.716-.221-.49 0-.78.217a1 1 0 0 0-.383.537l-1.679-.137q.127-.596.502-1.031.375-.438.968-.673.596-.239 1.38-.239.546 0 1.044.128.504.127.891.396.391.269.618.691.226.417.226 1.001V288h-1.722v-.908h-.051a1.9 1.9 0 0 1-.422.542 2 2 0 0 1-.635.362 2.6 2.6 0 0 1-.856.128m.52-1.253q.4 0 .707-.158.307-.162.482-.435a1.1 1.1 0 0 0 .174-.617v-.695a1 1 0 0 1-.234.102 4 4 0 0 1-.328.081q-.184.034-.367.064l-.332.047a2.2 2.2 0 0 0-.558.149.9.9 0 0 0-.371.277.68.68 0 0 0-.132.426q0 .37.268.567.273.192.691.192m6.39-2.655V288h-1.816v-6.545h1.73v1.154h.077a1.83 1.83 0 0 1 .729-.903q.511-.337 1.24-.337.681 0 1.189.299.507.298.788.852.281.55.281 1.312V288h-1.815v-3.844q.004-.6-.307-.937-.311-.341-.856-.341a1.3 1.3 0 0 0-.648.158q-.278.157-.435.46a1.6 1.6 0 0 0-.157.72m6.535 6.239q-.345 0-.647-.056a2.4 2.4 0 0 1-.495-.132l.409-1.355q.32.098.576.106a.73.73 0 0 0 .447-.119q.192-.128.311-.435l.107-.276-2.348-6.733h1.909l1.355 4.806h.068l1.368-4.806h1.922l-2.544 7.252a3 3 0 0 1-.499.921q-.31.396-.788.609-.477.218-1.151.218"/><path fill="#C5EBF5" fill-rule="evenodd" stroke="#0055DC" stroke-miterlimit="10" stroke-width="1.5" d="M141.488 435H49.265c-2.444 0-4.63 2.058-4.63 4.63v60.582h101.483V439.63c0-2.572-2.187-4.63-4.63-4.63Z" clip-rule="evenodd"/><path fill="#0055DC" d="M95.312 439.502a.772.772 0 1 0-.001-1.544.772.772 0 0 0 0 1.544"/><path fill="#fff" d="M150.105 504.842H40.518c-5.66 0-9.518-.9-9.518-1.672v-2.572c0-.257.257-.515.515-.515H158.98c.257 0 .515.258.515.515v2.572c.128.772-2.83 1.672-9.39 1.672"/><path stroke="#0055DC" stroke-miterlimit="10" stroke-width="1.5" d="M150.105 504.842H40.518c-5.66 0-9.518-.9-9.518-1.672v-2.572c0-.257.257-.515.515-.515H158.98c.257 0 .515.258.515.515v2.572c.128.772-2.83 1.672-9.39 1.672Z" clip-rule="evenodd"/><path fill="#C5EBF5" d="M159.623 500.598c0-.257-.257-.515-.514-.515H31.643c-.257 0-.515.258-.515.515v2.444h128.624v-2.444z"/><path stroke="#0055DC" stroke-miterlimit="10" stroke-width="1.5" d="M150.105 504.842H40.518c-5.66 0-9.518-.9-9.518-1.672v-2.572c0-.257.257-.515.515-.515H158.98c.257 0 .515.258.515.515v2.572c.128.772-2.83 1.672-9.39 1.672Z"/><path fill="#fff" d="M141.873 442.203H48.75v54.279h93.123z"/><path fill="#0055DC" fill-rule="evenodd" d="M109.332 500.341v.514c0 .386-.772.515-1.415.515H82.835c-.643 0-1.415-.129-1.415-.515v-.514" clip-rule="evenodd"/><path fill="#CBE9F3" d="M108.014 484.783c-3.767-2-7.94-2.538-8.717-4.363-.589-1.383 0-6.012 0-6.012l-9.103-.095s.575 4.693 0 6.107c-.698 1.714-4.49 2.267-7.97 4.214"/><path stroke="#193979" stroke-miterlimit="10" stroke-width="1.5" d="M108.014 484.783c-3.767-2-7.94-2.538-8.717-4.363-.589-1.383 0-6.012 0-6.012l-9.103-.095s.575 4.693 0 6.107c-.698 1.714-4.49 2.267-7.97 4.214"/><path fill="#1B59D3" stroke="#0F387D" stroke-linecap="round" stroke-miterlimit="10" stroke-width="1.5" d="M95.204 489.545a19.55 19.55 0 0 0 12.809-4.761c-3.766-2-7.939-2.539-8.717-4.364a4 4 0 0 1-.229-1.193 23.7 23.7 0 0 1-4.328.464 23.5 23.5 0 0 1-4.325-.464c-.016.406-.09.808-.222 1.193-.697 1.715-4.489 2.268-7.97 4.216a19.55 19.55 0 0 0 12.982 4.909Z"/><path fill="#CBE9F3" d="M87.877 466.287c-.072-.587-.943-1.642-1.971-.965-1.006.661-.04 5.606 2.765 5.422"/><path stroke="#193979" stroke-miterlimit="10" stroke-width="1.5" d="M87.877 466.287c-.072-.587-.943-1.642-1.971-.965-1.006.661-.04 5.606 2.765 5.422"/><path fill="#CBE9F3" d="M101.647 466.287c.072-.587.942-1.642 1.971-.965 1.005.661.039 5.606-2.766 5.422"/><path stroke="#193979" stroke-miterlimit="10" stroke-width="1.5" d="M101.647 466.287c.072-.587.942-1.642 1.971-.965 1.005.661.039 5.606-2.766 5.422"/><path fill="#CBE9F3" stroke="#193979" stroke-miterlimit="10" stroke-width="1.5" d="M101.824 462.847a20.4 20.4 0 0 1-.656 5.747c-.268.948-.584 3.856-.948 4.609-.915 1.899-3.274 4.012-5.417 4.012-2.144 0-4.258-2.112-5.418-4.011-.443-.727-.794-3.639-1.07-4.608-.637-2.243-.533-4.297-.533-5.749 0-4.405 2.957-7.337 7.017-7.337s7.025 2.932 7.025 7.337Z"/><path fill="#0F387D" stroke="#0F387D" stroke-linejoin="round" stroke-width="1.5" d="M100.587 461.916s-7.255.683-10.567-1.703c0 0-.965 4.066-2.142 6.074 0 0-1.451-6.168.662-6.986 0 0-.175-3.422 3.599-4.299 0 0-.195.853.438.828s5.66-2.922 9.247-.657c3.587 2.264.833 5.575.833 5.575s.098 3.498-.767 4.975l-.313 1.002s-.908-3.167-.99-4.809Z"/><path stroke="#1B59D3" stroke-miterlimit="10" stroke-width="1.5" d="M95.204 489.545c10.842 0 19.631-8.79 19.631-19.632s-8.789-19.631-19.63-19.631c-10.843 0-19.632 8.789-19.632 19.631s8.789 19.632 19.631 19.632Z"/><path stroke="#1B59D3" stroke-miterlimit="10" stroke-width="1.5" d="M95.204 489.545c10.842 0 19.631-8.79 19.631-19.632s-8.789-19.631-19.63-19.631c-10.843 0-19.632 8.789-19.632 19.631s8.789 19.632 19.631 19.632Z"/><path fill="#222" d="M79.753 520v-8.727h3.494q.963 0 1.606.285.644.286.968.793.324.502.324 1.159 0 .512-.205.899a1.8 1.8 0 0 1-.562.631 2.3 2.3 0 0 1-.81.345v.085q.499.021.933.281.44.261.712.729.273.465.273 1.108 0 .694-.346 1.24-.34.541-1.01.857-.668.315-1.649.315zm1.845-1.509h1.504q.772 0 1.125-.294a.98.98 0 0 0 .354-.792 1.17 1.17 0 0 0-.175-.639 1.2 1.2 0 0 0-.499-.435 1.7 1.7 0 0 0-.762-.158h-1.547zm0-3.566h1.368q.38 0 .673-.132a1.1 1.1 0 0 0 .469-.384 1 1 0 0 0 .174-.592.96.96 0 0 0-.336-.763q-.333-.29-.946-.29h-1.402zM87.652 520v-6.545h1.76v1.142h.068q.18-.61.601-.921a1.58 1.58 0 0 1 .972-.315 2.6 2.6 0 0 1 .57.064v1.611a3.2 3.2 0 0 0-.767-.098q-.4 0-.715.174a1.3 1.3 0 0 0-.495.477q-.178.308-.178.708V520zm6.59.124q-.627 0-1.117-.218a1.8 1.8 0 0 1-.776-.652q-.28-.434-.281-1.082 0-.546.2-.916.201-.37.546-.597.345-.225.784-.341.443-.115.929-.162.57-.06.92-.111.35-.054.507-.161a.36.36 0 0 0 .158-.316v-.025q0-.405-.256-.627-.25-.222-.716-.221-.489 0-.78.217a1 1 0 0 0-.383.537l-1.679-.137q.128-.596.503-1.031.375-.439.967-.673.597-.239 1.381-.239.546 0 1.044.128.503.128.89.396.393.269.618.691.226.417.226 1.001V520h-1.721v-.908h-.051a1.9 1.9 0 0 1-.422.542 2 2 0 0 1-.635.362 2.6 2.6 0 0 1-.857.128m.52-1.253q.4 0 .707-.158.306-.162.481-.435.175-.272.175-.617v-.695a1 1 0 0 1-.235.102 4 4 0 0 1-.328.081q-.183.034-.366.064l-.332.047q-.32.047-.559.149a.9.9 0 0 0-.37.277.68.68 0 0 0-.133.426q0 .37.269.567.273.192.69.192M99.3 520v-1.082l3.204-3.968v-.047H99.41v-1.448h5.28v1.18l-3.008 3.869v.047h3.119V520zm6.889 0v-6.545h1.816V520zm.912-7.389a1 1 0 0 1-.694-.269.87.87 0 0 1-.286-.652.85.85 0 0 1 .286-.643.98.98 0 0 1 .694-.273q.405 0 .691.273a.85.85 0 0 1 .289.643.86.86 0 0 1-.289.652.97.97 0 0 1-.691.269m4.173-1.338V520h-1.815v-8.727z"/><path fill="#fff" stroke="#F6821F" stroke-width="2" d="M316 93h-77v52h77zm0 118h-77v52h77zm0 117h-77v52h77zm0 115h-77v52h77z"/><path fill="#000" d="M261.139 111.383h-2.177a2.1 2.1 0 0 0-.244-.751 1.9 1.9 0 0 0-.472-.567 2.1 2.1 0 0 0-.667-.358 2.6 2.6 0 0 0-.81-.124q-.79 0-1.377.393-.586.387-.91 1.133-.323.741-.323 1.8 0 1.089.323 1.83.328.74.915 1.118.586.378 1.357.378.433 0 .801-.114.373-.115.661-.333.288-.224.477-.542.194-.318.269-.726l2.177.01a3.9 3.9 0 0 1-.422 1.352 4.1 4.1 0 0 1-.9 1.158 4.2 4.2 0 0 1-1.343.806q-.776.293-1.755.293-1.362 0-2.436-.616-1.069-.617-1.69-1.785-.617-1.168-.617-2.829 0-1.665.627-2.834.627-1.168 1.7-1.78 1.074-.616 2.416-.616.885 0 1.641.249.76.248 1.347.725.587.472.955 1.159.373.686.477 1.571m3.622-3.565V118h-2.118v-10.182zm5.147 10.331q-1.158 0-2.004-.492a3.37 3.37 0 0 1-1.297-1.382q-.458-.89-.458-2.063 0-1.184.458-2.069a3.33 3.33 0 0 1 1.297-1.382q.846-.497 2.004-.497t1.998.497q.846.492 1.303 1.382.457.885.457 2.069 0 1.173-.457 2.063a3.35 3.35 0 0 1-1.303 1.382q-.84.492-1.998.492m.01-1.64q.526 0 .88-.299.352-.303.532-.825a3.6 3.6 0 0 0 .184-1.188q0-.666-.184-1.188-.18-.522-.532-.826-.354-.303-.88-.303-.532 0-.895.303-.358.303-.542.826a3.7 3.7 0 0 0-.179 1.188q0 .666.179 1.188.184.522.542.825.363.299.895.299m11.479-3.968-1.939.12a1 1 0 0 0-.214-.448 1.1 1.1 0 0 0-.432-.323 1.5 1.5 0 0 0-.632-.124q-.492 0-.83.208-.338.204-.338.547 0 .274.219.463t.751.303l1.382.278q1.113.23 1.66.736.547.507.547 1.333 0 .75-.442 1.317-.438.567-1.203.885-.762.313-1.755.313-1.517 0-2.417-.631a2.46 2.46 0 0 1-1.049-1.73l2.083-.11q.095.463.458.706.363.239.93.239.556 0 .894-.214.344-.219.348-.562a.58.58 0 0 0-.243-.472q-.239-.189-.736-.288l-1.322-.264q-1.119-.224-1.666-.775-.542-.552-.542-1.407 0-.736.398-1.268.403-.532 1.128-.82.732-.29 1.711-.289 1.446 0 2.277.612.834.611.974 1.665m4.988 5.608q-1.179 0-2.029-.477a3.3 3.3 0 0 1-1.302-1.362q-.457-.885-.457-2.093 0-1.178.457-2.069a3.4 3.4 0 0 1 1.288-1.387q.834-.497 1.958-.497.756 0 1.407.244.657.238 1.144.721.492.482.765 1.213.274.725.274 1.7v.582h-6.448v-1.313h4.454q0-.458-.199-.81a1.43 1.43 0 0 0-.551-.552 1.6 1.6 0 0 0-.811-.204q-.482 0-.855.224a1.6 1.6 0 0 0-.577.592q-.208.367-.213.82v1.248q0 .567.208.979.214.412.602.636.387.225.92.224.352 0 .646-.099a1.3 1.3 0 0 0 .82-.786l1.959.129a2.67 2.67 0 0 1-.611 1.233q-.458.522-1.184.816-.72.288-1.665.288m11.241-5.608-1.939.12a1 1 0 0 0-.214-.448 1.1 1.1 0 0 0-.433-.323 1.5 1.5 0 0 0-.631-.124q-.492 0-.83.208-.339.204-.338.547a.59.59 0 0 0 .218.463q.219.189.751.303l1.382.278q1.114.23 1.661.736.547.507.547 1.333 0 .75-.443 1.317-.438.567-1.203.885-.76.313-1.755.313-1.516 0-2.416-.631a2.46 2.46 0 0 1-1.049-1.73l2.083-.11q.094.463.457.706.363.239.93.239.557 0 .895-.214.344-.219.348-.562a.59.59 0 0 0-.244-.472q-.238-.189-.735-.288l-1.323-.264q-1.119-.224-1.665-.775-.543-.552-.542-1.407 0-.736.397-1.268.403-.532 1.129-.82.73-.29 1.71-.289 1.447 0 2.277.612.835.611.975 1.665m5.569-2.177v1.591h-4.599v-1.591zm-3.555-1.83h2.118v7.119q0 .294.09.458.089.159.248.224.165.064.378.064.15 0 .298-.025.15-.03.229-.044l.333 1.576a6 6 0 0 1-.447.114 3.6 3.6 0 0 1-.701.084q-.766.03-1.343-.203a1.87 1.87 0 0 1-.889-.726q-.319-.493-.314-1.243zM271.638 135h-3.61v-10.182h3.64q1.535 0 2.645.612a4.13 4.13 0 0 1 1.705 1.745q.601 1.138.601 2.724 0 1.591-.601 2.735a4.14 4.14 0 0 1-1.715 1.754q-1.114.612-2.665.612m-1.457-1.844h1.367q.955 0 1.606-.339.657-.342.985-1.058.333-.722.333-1.86 0-1.128-.333-1.844a2.15 2.15 0 0 0-.98-1.054q-.65-.338-1.606-.338h-1.372zm17.017-4.773h-2.178a2.2 2.2 0 0 0-.243-.751 1.9 1.9 0 0 0-.473-.567 2.1 2.1 0 0 0-.666-.358 2.6 2.6 0 0 0-.81-.124q-.79 0-1.377.393-.588.387-.91 1.133-.324.741-.323 1.8 0 1.089.323 1.83.327.74.915 1.118.586.378 1.357.378.432 0 .8-.114.373-.115.661-.333.29-.225.478-.542a2.1 2.1 0 0 0 .268-.726l2.178.01a4.05 4.05 0 0 1-1.323 2.51 4.2 4.2 0 0 1-1.342.806q-.775.293-1.755.293-1.362 0-2.436-.616-1.07-.617-1.69-1.785-.617-1.168-.617-2.829 0-1.665.626-2.834.627-1.168 1.701-1.78 1.074-.616 2.416-.616.885 0 1.641.249.76.248 1.347.725.587.472.954 1.159.373.686.478 1.571m-26.059 99h-2.177a2.1 2.1 0 0 0-.244-.751 1.9 1.9 0 0 0-.472-.567 2.1 2.1 0 0 0-.667-.358 2.6 2.6 0 0 0-.81-.124q-.79 0-1.377.393-.586.387-.91 1.133-.323.741-.323 1.8 0 1.089.323 1.83.328.74.915 1.118.586.378 1.357.378.433 0 .801-.114.373-.115.661-.333.288-.225.477-.542.194-.318.269-.726l2.177.01a3.9 3.9 0 0 1-.422 1.352 4.1 4.1 0 0 1-.9 1.158 4.2 4.2 0 0 1-1.343.806q-.776.293-1.755.293-1.362 0-2.436-.616-1.069-.617-1.69-1.785-.617-1.168-.617-2.829 0-1.665.627-2.834.627-1.168 1.7-1.78 1.074-.616 2.416-.616.885 0 1.641.249.76.248 1.347.725.587.472.955 1.159.373.686.477 1.571m3.622-3.565V234h-2.118v-10.182zm5.147 10.331q-1.158 0-2.004-.492a3.37 3.37 0 0 1-1.297-1.382q-.458-.89-.458-2.063 0-1.184.458-2.069a3.33 3.33 0 0 1 1.297-1.382q.846-.497 2.004-.497t1.998.497q.846.492 1.303 1.382.457.885.457 2.069 0 1.173-.457 2.063a3.35 3.35 0 0 1-1.303 1.382q-.84.492-1.998.492m.01-1.64q.526 0 .88-.299.352-.303.532-.825a3.6 3.6 0 0 0 .184-1.188q0-.666-.184-1.188-.18-.523-.532-.826-.354-.303-.88-.303-.532 0-.895.303-.358.303-.542.826a3.7 3.7 0 0 0-.179 1.188q0 .666.179 1.188.184.522.542.825.363.299.895.299m11.479-3.968-1.939.12a1 1 0 0 0-.214-.448 1.1 1.1 0 0 0-.432-.323 1.5 1.5 0 0 0-.632-.124q-.492 0-.83.208-.338.204-.338.547 0 .274.219.463t.751.303l1.382.278q1.113.23 1.66.736.547.507.547 1.333 0 .75-.442 1.317-.438.567-1.203.885-.762.313-1.755.313-1.517 0-2.417-.631a2.46 2.46 0 0 1-1.049-1.73l2.083-.11q.095.463.458.706.363.239.93.239.556 0 .894-.214.344-.219.348-.562a.58.58 0 0 0-.243-.472q-.239-.189-.736-.288l-1.322-.264q-1.119-.224-1.666-.775-.542-.552-.542-1.407 0-.736.398-1.268.403-.532 1.128-.82.732-.29 1.711-.289 1.446 0 2.277.612.834.611.974 1.665m4.988 5.608q-1.179 0-2.029-.477a3.3 3.3 0 0 1-1.302-1.362q-.457-.885-.457-2.093 0-1.178.457-2.069a3.4 3.4 0 0 1 1.288-1.387q.834-.497 1.958-.497.756 0 1.407.244.657.238 1.144.721.492.482.765 1.213.274.726.274 1.7v.582h-6.448v-1.313h4.454q0-.457-.199-.81a1.43 1.43 0 0 0-.551-.552 1.6 1.6 0 0 0-.811-.204q-.482 0-.855.224a1.6 1.6 0 0 0-.577.592q-.208.367-.213.82v1.248q0 .567.208.979.214.413.602.636.387.224.92.224.352 0 .646-.099a1.3 1.3 0 0 0 .82-.786l1.959.129a2.67 2.67 0 0 1-.611 1.233q-.458.522-1.184.816-.72.288-1.665.288m11.241-5.608-1.939.12a1 1 0 0 0-.214-.448 1.1 1.1 0 0 0-.433-.323 1.5 1.5 0 0 0-.631-.124q-.492 0-.83.208-.339.204-.338.547a.59.59 0 0 0 .218.463q.219.189.751.303l1.382.278q1.114.23 1.661.736.547.507.547 1.333 0 .75-.443 1.317-.438.567-1.203.885-.76.313-1.755.313-1.516 0-2.416-.631a2.46 2.46 0 0 1-1.049-1.73l2.083-.11q.094.463.457.706.363.239.93.239.557 0 .895-.214.344-.219.348-.562a.59.59 0 0 0-.244-.472q-.238-.189-.735-.288l-1.323-.264q-1.119-.224-1.665-.775-.543-.552-.542-1.407 0-.736.397-1.268.403-.532 1.129-.82.73-.29 1.71-.289 1.447 0 2.277.612.835.611.975 1.665m5.569-2.177v1.591h-4.599v-1.591zm-3.555-1.83h2.118v7.119q0 .294.09.458.089.159.248.224.165.064.378.064.15 0 .298-.025.15-.03.229-.044l.333 1.576a6 6 0 0 1-.447.114 3.6 3.6 0 0 1-.701.084q-.766.03-1.343-.203a1.87 1.87 0 0 1-.889-.726q-.319-.493-.314-1.243zM271.638 251h-3.61v-10.182h3.64q1.535 0 2.645.612a4.13 4.13 0 0 1 1.705 1.745q.601 1.139.601 2.724 0 1.591-.601 2.735a4.14 4.14 0 0 1-1.715 1.754q-1.114.612-2.665.612m-1.457-1.844h1.367q.955 0 1.606-.339.657-.342.985-1.058.333-.722.333-1.86 0-1.128-.333-1.844a2.15 2.15 0 0 0-.98-1.054q-.65-.338-1.606-.338h-1.372zm17.017-4.773h-2.178a2.2 2.2 0 0 0-.243-.751 1.9 1.9 0 0 0-.473-.567 2.1 2.1 0 0 0-.666-.358 2.6 2.6 0 0 0-.81-.124q-.79 0-1.377.393-.588.387-.91 1.133-.324.741-.323 1.8 0 1.089.323 1.83.327.74.915 1.118.586.378 1.357.378.432 0 .8-.114.373-.115.661-.333.29-.225.478-.542a2.1 2.1 0 0 0 .268-.726l2.178.01a4.05 4.05 0 0 1-1.323 2.51 4.2 4.2 0 0 1-1.342.806q-.775.293-1.755.293-1.362 0-2.436-.616-1.07-.617-1.69-1.785-.617-1.168-.617-2.829 0-1.665.626-2.834.627-1.168 1.701-1.78 1.074-.616 2.416-.616.885 0 1.641.249.76.248 1.347.725.587.472.954 1.159.373.686.478 1.571m-26.059 101h-2.177a2.1 2.1 0 0 0-.244-.751 1.9 1.9 0 0 0-.472-.567 2.1 2.1 0 0 0-.667-.358 2.6 2.6 0 0 0-.81-.124q-.79 0-1.377.393-.586.387-.91 1.133-.323.741-.323 1.8 0 1.089.323 1.83.328.74.915 1.118.586.378 1.357.378.433 0 .801-.114.373-.115.661-.333.288-.224.477-.542.194-.318.269-.726l2.177.01a3.9 3.9 0 0 1-.422 1.352 4.1 4.1 0 0 1-.9 1.158 4.2 4.2 0 0 1-1.343.806q-.776.293-1.755.293-1.362 0-2.436-.616-1.069-.616-1.69-1.785-.617-1.169-.617-2.829 0-1.665.627-2.834.627-1.168 1.7-1.78 1.074-.616 2.416-.616.885 0 1.641.249.76.248 1.347.725.587.472.955 1.159.373.686.477 1.571m3.622-3.565V352h-2.118v-10.182zm5.147 10.331q-1.158 0-2.004-.492a3.37 3.37 0 0 1-1.297-1.382q-.458-.89-.458-2.063 0-1.184.458-2.069a3.33 3.33 0 0 1 1.297-1.382q.846-.497 2.004-.497t1.998.497q.846.492 1.303 1.382.457.885.457 2.069 0 1.173-.457 2.063a3.35 3.35 0 0 1-1.303 1.382q-.84.492-1.998.492m.01-1.64q.526 0 .88-.299.352-.303.532-.825a3.6 3.6 0 0 0 .184-1.188q0-.666-.184-1.188-.18-.523-.532-.826-.354-.303-.88-.303-.532 0-.895.303-.358.303-.542.826a3.7 3.7 0 0 0-.179 1.188q0 .666.179 1.188.184.522.542.825.363.299.895.299m11.479-3.968-1.939.12a1 1 0 0 0-.214-.448 1.1 1.1 0 0 0-.432-.323 1.5 1.5 0 0 0-.632-.124q-.492 0-.83.208-.338.204-.338.547 0 .274.219.463t.751.303l1.382.278q1.113.23 1.66.736.547.507.547 1.333 0 .75-.442 1.317-.438.567-1.203.885-.762.313-1.755.313-1.517 0-2.417-.631a2.46 2.46 0 0 1-1.049-1.73l2.083-.11q.095.463.458.706.363.239.93.239.556 0 .894-.214.344-.219.348-.562a.58.58 0 0 0-.243-.472q-.239-.189-.736-.288l-1.322-.264q-1.119-.224-1.666-.775-.542-.552-.542-1.407 0-.736.398-1.268.403-.532 1.128-.82.732-.29 1.711-.289 1.446 0 2.277.612.834.611.974 1.665m4.988 5.608q-1.179 0-2.029-.477a3.3 3.3 0 0 1-1.302-1.362q-.457-.885-.457-2.093 0-1.178.457-2.069a3.4 3.4 0 0 1 1.288-1.387q.834-.497 1.958-.497.756 0 1.407.244.657.238 1.144.721.492.482.765 1.213.274.726.274 1.7v.582h-6.448v-1.313h4.454q0-.458-.199-.81a1.43 1.43 0 0 0-.551-.552 1.6 1.6 0 0 0-.811-.204q-.482 0-.855.224a1.6 1.6 0 0 0-.577.592q-.208.367-.213.82v1.248q0 .567.208.979.214.412.602.636.387.224.92.224.352 0 .646-.099a1.3 1.3 0 0 0 .82-.786l1.959.129a2.67 2.67 0 0 1-.611 1.233q-.458.522-1.184.816-.72.288-1.665.288m11.241-5.608-1.939.12a1 1 0 0 0-.214-.448 1.1 1.1 0 0 0-.433-.323 1.5 1.5 0 0 0-.631-.124q-.492 0-.83.208-.339.204-.338.547a.59.59 0 0 0 .218.463q.219.189.751.303l1.382.278q1.114.23 1.661.736.547.507.547 1.333 0 .75-.443 1.317-.438.567-1.203.885-.76.313-1.755.313-1.516 0-2.416-.631a2.46 2.46 0 0 1-1.049-1.73l2.083-.11q.094.463.457.706.363.239.93.239.557 0 .895-.214.344-.219.348-.562a.59.59 0 0 0-.244-.472q-.238-.189-.735-.288l-1.323-.264q-1.119-.224-1.665-.775-.543-.552-.542-1.407 0-.736.397-1.268.403-.532 1.129-.82.73-.29 1.71-.289 1.447 0 2.277.612.835.611.975 1.665m5.569-2.177v1.591h-4.599v-1.591zm-3.555-1.83h2.118v7.119q0 .293.09.458.089.159.248.224.165.064.378.064.15 0 .298-.025.15-.03.229-.044l.333 1.576a6 6 0 0 1-.447.114 3.6 3.6 0 0 1-.701.084q-.766.03-1.343-.203a1.87 1.87 0 0 1-.889-.726q-.319-.492-.314-1.243zM271.638 369h-3.61v-10.182h3.64q1.535 0 2.645.612a4.13 4.13 0 0 1 1.705 1.745q.601 1.138.601 2.724 0 1.591-.601 2.735a4.14 4.14 0 0 1-1.715 1.754q-1.114.612-2.665.612m-1.457-1.844h1.367q.955 0 1.606-.339.657-.342.985-1.058.333-.721.333-1.86 0-1.128-.333-1.844a2.15 2.15 0 0 0-.98-1.054q-.65-.339-1.606-.338h-1.372zm17.017-4.773h-2.178a2.2 2.2 0 0 0-.243-.751 1.9 1.9 0 0 0-.473-.567 2.1 2.1 0 0 0-.666-.358 2.6 2.6 0 0 0-.81-.124q-.79 0-1.377.393-.588.387-.91 1.133-.324.741-.323 1.8 0 1.089.323 1.83.327.74.915 1.118.586.378 1.357.378.432 0 .8-.114.373-.115.661-.333.29-.224.478-.542a2.1 2.1 0 0 0 .268-.726l2.178.01a4.05 4.05 0 0 1-1.323 2.51 4.2 4.2 0 0 1-1.342.806q-.775.293-1.755.293-1.362 0-2.436-.616-1.07-.616-1.69-1.785-.617-1.169-.617-2.829 0-1.665.626-2.834.627-1.168 1.701-1.78 1.074-.616 2.416-.616.885 0 1.641.249.76.248 1.347.725.587.472.954 1.159.373.686.478 1.571m-26.059 99h-2.177a2.1 2.1 0 0 0-.244-.751 1.9 1.9 0 0 0-.472-.567 2.1 2.1 0 0 0-.667-.358 2.6 2.6 0 0 0-.81-.124q-.79 0-1.377.393-.586.387-.91 1.133-.323.741-.323 1.8 0 1.089.323 1.83.328.74.915 1.118.586.378 1.357.378.433 0 .801-.114.373-.115.661-.333.288-.224.477-.542.194-.318.269-.726l2.177.01a3.9 3.9 0 0 1-.422 1.352 4.1 4.1 0 0 1-.9 1.158 4.2 4.2 0 0 1-1.343.806q-.776.293-1.755.293-1.362 0-2.436-.616-1.069-.616-1.69-1.785-.617-1.169-.617-2.829 0-1.665.627-2.834.627-1.168 1.7-1.78 1.074-.616 2.416-.616.885 0 1.641.249.76.248 1.347.725.587.472.955 1.159.373.686.477 1.571m3.622-3.565V468h-2.118v-10.182zm5.147 10.331q-1.158 0-2.004-.492a3.37 3.37 0 0 1-1.297-1.382q-.458-.89-.458-2.063 0-1.184.458-2.069a3.33 3.33 0 0 1 1.297-1.382q.846-.497 2.004-.497t1.998.497q.846.492 1.303 1.382.457.885.457 2.069 0 1.173-.457 2.063a3.35 3.35 0 0 1-1.303 1.382q-.84.492-1.998.492m.01-1.64q.526 0 .88-.299.352-.303.532-.825a3.6 3.6 0 0 0 .184-1.188q0-.666-.184-1.188-.18-.523-.532-.826-.354-.303-.88-.303-.532 0-.895.303-.358.303-.542.826a3.7 3.7 0 0 0-.179 1.188q0 .666.179 1.188.184.522.542.825.363.299.895.299m11.479-3.968-1.939.12a1 1 0 0 0-.214-.448 1.1 1.1 0 0 0-.432-.323 1.5 1.5 0 0 0-.632-.124q-.492 0-.83.208-.338.204-.338.547 0 .274.219.463t.751.303l1.382.278q1.113.23 1.66.736.547.507.547 1.333 0 .75-.442 1.317-.438.567-1.203.885-.762.313-1.755.313-1.517 0-2.417-.631a2.46 2.46 0 0 1-1.049-1.73l2.083-.11q.095.463.458.706.363.239.93.239.556 0 .894-.214.344-.219.348-.562a.58.58 0 0 0-.243-.472q-.239-.189-.736-.288l-1.322-.264q-1.119-.224-1.666-.775-.542-.552-.542-1.407 0-.736.398-1.268.403-.532 1.128-.82.732-.29 1.711-.289 1.446 0 2.277.612.834.611.974 1.665m4.988 5.608q-1.179 0-2.029-.477a3.3 3.3 0 0 1-1.302-1.362q-.457-.885-.457-2.093 0-1.178.457-2.069a3.4 3.4 0 0 1 1.288-1.387q.834-.497 1.958-.497.756 0 1.407.244.657.238 1.144.721.492.482.765 1.213.274.726.274 1.7v.582h-6.448v-1.313h4.454q0-.458-.199-.81a1.43 1.43 0 0 0-.551-.552 1.6 1.6 0 0 0-.811-.204q-.482 0-.855.224a1.6 1.6 0 0 0-.577.592q-.208.367-.213.82v1.248q0 .567.208.979.214.412.602.636.387.224.92.224.352 0 .646-.099a1.3 1.3 0 0 0 .82-.786l1.959.129a2.67 2.67 0 0 1-.611 1.233q-.458.522-1.184.816-.72.288-1.665.288m11.241-5.608-1.939.12a1 1 0 0 0-.214-.448 1.1 1.1 0 0 0-.433-.323 1.5 1.5 0 0 0-.631-.124q-.492 0-.83.208-.339.204-.338.547a.59.59 0 0 0 .218.463q.219.189.751.303l1.382.278q1.114.23 1.661.736.547.507.547 1.333 0 .75-.443 1.317-.438.567-1.203.885-.76.313-1.755.313-1.516 0-2.416-.631a2.46 2.46 0 0 1-1.049-1.73l2.083-.11q.094.463.457.706.363.239.93.239.557 0 .895-.214.344-.219.348-.562a.59.59 0 0 0-.244-.472q-.238-.189-.735-.288l-1.323-.264q-1.119-.224-1.665-.775-.543-.552-.542-1.407 0-.736.397-1.268.403-.532 1.129-.82.73-.29 1.71-.289 1.447 0 2.277.612.835.611.975 1.665m5.569-2.177v1.591h-4.599v-1.591zm-3.555-1.83h2.118v7.119q0 .293.09.458.089.159.248.224.165.064.378.064.15 0 .298-.025.15-.03.229-.044l.333 1.576a6 6 0 0 1-.447.114 3.6 3.6 0 0 1-.701.084q-.766.03-1.343-.203a1.87 1.87 0 0 1-.889-.726q-.319-.492-.314-1.243zM271.638 485h-3.61v-10.182h3.64q1.535 0 2.645.612a4.13 4.13 0 0 1 1.705 1.745q.601 1.138.601 2.724 0 1.591-.601 2.735a4.14 4.14 0 0 1-1.715 1.754q-1.114.612-2.665.612m-1.457-1.844h1.367q.955 0 1.606-.339.657-.342.985-1.058.333-.721.333-1.86 0-1.128-.333-1.844a2.15 2.15 0 0 0-.98-1.054q-.65-.339-1.606-.338h-1.372zm17.017-4.773h-2.178a2.2 2.2 0 0 0-.243-.751 1.9 1.9 0 0 0-.473-.567 2.1 2.1 0 0 0-.666-.358 2.6 2.6 0 0 0-.81-.124q-.79 0-1.377.393-.588.387-.91 1.133-.324.741-.323 1.8 0 1.089.323 1.83.327.74.915 1.118.586.378 1.357.378.432 0 .8-.114.373-.115.661-.333.29-.224.478-.542a2.1 2.1 0 0 0 .268-.726l2.178.01a4.05 4.05 0 0 1-1.323 2.51 4.2 4.2 0 0 1-1.342.806q-.775.293-1.755.293-1.362 0-2.436-.616-1.07-.616-1.69-1.785-.617-1.169-.617-2.829 0-1.665.626-2.834.627-1.168 1.701-1.78 1.074-.616 2.416-.616.885 0 1.641.249.76.248 1.347.725.587.472.954 1.159.373.686.478 1.571"/></svg>