<svg xmlns="http://www.w3.org/2000/svg" width="1128" height="484" fill="none" viewBox="0 0 1128 484"><path fill="#fff" d="M0 0h1128v484H0z"/><path fill="#E2F5FA" d="M457.859 242.93H401.89c0-21.847-3.114-42.331-8.569-59.971h48.494a119.4 119.4 0 0 1 16.044 59.971"/><path fill="#fff" d="M401.89 242.93h55.97a119.35 119.35 0 0 1-16.045 59.958h-48.481a177 177 0 0 0 4.104-15.939 214.4 214.4 0 0 0 4.452-44.019m39.925-59.969h-48.494c-11.053-35.847-31.717-59.959-55.391-59.959a119.88 119.88 0 0 1 103.885 59.959"/><path fill="#E2F5FA" d="M393.333 302.89h48.482a119.89 119.89 0 0 1-103.885 59.972c23.674 0 44.338-24.125 55.403-59.972"/><path fill="#fff" d="M401.89 242.931h-63.96v-59.97h55.391c5.455 17.64 8.569 38.124 8.569 59.97"/><path fill="#E2F5FA" d="M337.93 242.93h63.96a214.5 214.5 0 0 1-4.452 44.017 177 177 0 0 1-4.105 15.94H337.93z"/><path fill="#fff" d="M337.93 302.89h55.403c-11.065 35.847-31.729 59.972-55.403 59.972z"/><path fill="#E2F5FA" d="M393.321 182.96H337.93v-59.958c23.674 0 44.338 24.112 55.391 59.958M337.93 302.89v59.972c-23.687 0-44.351-24.125-55.416-59.972z"/><path fill="#fff" d="M337.931 242.93v59.958h-55.416c-5.429-17.64-8.543-38.11-8.543-59.958z"/><path fill="#E2F5FA" d="M337.93 182.961v59.969h-63.96c0-21.847 3.114-42.331 8.556-59.971z"/><path fill="#fff" d="M337.93 123.002v59.958h-55.404c11.053-35.846 31.73-59.958 55.404-59.958"/><path fill="#E2F5FA" d="M337.929 123.002c-23.674 0-44.352 24.112-55.404 59.959h-48.481a119.88 119.88 0 0 1 103.885-59.959"/><path fill="#fff" d="M282.513 302.89c11.065 35.847 31.73 59.972 55.417 59.972a119.88 119.88 0 0 1-103.886-59.972zm-48.468-119.929h48.481c-5.442 17.64-8.556 38.124-8.556 59.971H218a119.4 119.4 0 0 1 16.045-59.971"/><path fill="#E2F5FA" d="M282.514 302.89h-48.469A119.35 119.35 0 0 1 218 242.93h55.97c0 21.85 3.114 42.32 8.544 59.96"/><path stroke="#0055DC" stroke-miterlimit="10" stroke-opacity=".25" d="M457.86 242.931a119.868 119.868 0 1 1-16.045-59.972 119.35 119.35 0 0 1 16.045 59.972Z"/><path stroke="#0055DC" stroke-miterlimit="10" stroke-opacity=".25" d="M397.438 286.949a177 177 0 0 1-4.104 15.94c-11.066 35.846-31.729 59.971-55.404 59.971s-44.352-24.125-55.417-59.971c-5.429-17.641-8.543-38.111-8.543-59.958s3.114-42.332 8.556-59.972C293.578 147.113 314.255 123 337.93 123s44.338 24.113 55.391 59.959c5.455 17.64 8.569 38.124 8.569 59.972a214.5 214.5 0 0 1-4.452 44.016M218 242.932h239.859M337.93 123.002v239.86M234.044 182.961h207.77M234.044 302.89h207.77"/><path fill="#E2F5FA" d="M917.86 242.93h-55.97c0-21.847-3.114-42.331-8.569-59.971h48.494a119.4 119.4 0 0 1 16.045 59.971"/><path fill="#fff" d="M861.891 242.93h55.969a119.35 119.35 0 0 1-16.044 59.958h-48.482a177 177 0 0 0 4.104-15.939 214.5 214.5 0 0 0 4.453-44.019m39.924-59.969h-48.494c-11.053-35.847-31.717-59.959-55.391-59.959a119.88 119.88 0 0 1 103.885 59.959"/><path fill="#E2F5FA" d="M853.333 302.89h48.482a119.89 119.89 0 0 1-103.885 59.972c23.674 0 44.338-24.125 55.403-59.972"/><path fill="#fff" d="M861.89 242.931h-63.96v-59.97h55.391c5.455 17.64 8.569 38.124 8.569 59.97"/><path fill="#E2F5FA" d="M797.93 242.93h63.96a214.5 214.5 0 0 1-4.452 44.017 177 177 0 0 1-4.105 15.94H797.93z"/><path fill="#fff" d="M797.93 302.89h55.403c-11.065 35.847-31.729 59.972-55.403 59.972z"/><path fill="#E2F5FA" d="M853.321 182.96H797.93v-59.958c23.674 0 44.338 24.112 55.391 59.958M797.93 302.89v59.972c-23.687 0-44.351-24.125-55.416-59.972z"/><path fill="#fff" d="M797.931 242.93v59.958h-55.416c-5.429-17.64-8.543-38.11-8.543-59.958z"/><path fill="#E2F5FA" d="M797.93 182.961v59.969h-63.96c0-21.847 3.114-42.331 8.556-59.971z"/><path fill="#fff" d="M797.93 123.002v59.958h-55.404c11.053-35.846 31.73-59.958 55.404-59.958"/><path fill="#E2F5FA" d="M797.929 123.002c-23.674 0-44.352 24.112-55.404 59.959h-48.481a119.88 119.88 0 0 1 103.885-59.959"/><path fill="#fff" d="M742.513 302.89c11.065 35.847 31.73 59.972 55.417 59.972a119.88 119.88 0 0 1-103.886-59.972zm-48.468-119.929h48.481c-5.442 17.64-8.556 38.124-8.556 59.971H678a119.4 119.4 0 0 1 16.045-59.971"/><path fill="#E2F5FA" d="M742.514 302.89h-48.469A119.35 119.35 0 0 1 678 242.93h55.97c0 21.85 3.114 42.32 8.544 59.96"/><path stroke="#0055DC" stroke-miterlimit="10" stroke-opacity=".25" d="M917.86 242.931a119.868 119.868 0 1 1-16.045-59.972 119.35 119.35 0 0 1 16.045 59.972Z"/><path stroke="#0055DC" stroke-miterlimit="10" stroke-opacity=".25" d="M857.438 286.949a177 177 0 0 1-4.104 15.94c-11.066 35.846-31.729 59.971-55.404 59.971s-44.352-24.125-55.417-59.971c-5.429-17.641-8.543-38.111-8.543-59.958s3.114-42.332 8.556-59.972C753.578 147.113 774.255 123 797.93 123s44.338 24.113 55.391 59.959c5.455 17.64 8.569 38.124 8.569 59.972a214.5 214.5 0 0 1-4.452 44.016M678 242.932h239.859M797.93 123.002v239.86M694.044 182.961h207.77M694.044 302.89h207.77"/><path stroke="#269B7F" stroke-width="3" d="M124 242 524 59"/><path stroke="#3E74FF" stroke-width="3" d="m615 60 392 184m-390-66 390 66m-392 52 392-52M617 410l390-166"/><path stroke="#269B7F" stroke-width="3" d="m124 242 394-63m-398 63 398 167M124 243l396 53"/><path fill="#C5EBF5" fill-rule="evenodd" stroke="#0055DC" stroke-miterlimit="10" stroke-width="1.5" d="M612.242 29h-87.845c-2.327 0-4.41 1.96-4.41 4.41v57.706h96.665V33.41c0-2.45-2.083-4.411-4.41-4.411Z" clip-rule="evenodd"/><path fill="#0055DC" d="M568.258 33.288a.735.735 0 1 0 0-1.47.735.735 0 0 0 0 1.47"/><path fill="#fff" d="M620.45 95.526H516.066c-5.391 0-9.066-.857-9.066-1.592v-2.45c0-.246.245-.49.49-.49h121.414c.245 0 .49.244.49.49v2.45c.122.735-2.696 1.592-8.944 1.592"/><path stroke="#0055DC" stroke-miterlimit="10" stroke-width="1.5" d="M620.45 95.526H516.066c-5.391 0-9.066-.857-9.066-1.592v-2.45c0-.246.245-.49.49-.49h121.414c.245 0 .49.244.49.49v2.45c.122.735-2.696 1.592-8.944 1.592Z" clip-rule="evenodd"/><path fill="#C5EBF5" d="M629.516 91.483c0-.245-.245-.49-.49-.49H507.612c-.245 0-.49.245-.49.49v2.328h122.516v-2.328z"/><path stroke="#0055DC" stroke-miterlimit="10" stroke-width="1.5" d="M620.45 95.526H516.066c-5.391 0-9.066-.857-9.066-1.592v-2.45c0-.246.245-.49.49-.49h121.414c.245 0 .49.244.49.49v2.45c.122.735-2.696 1.592-8.944 1.592Z"/><path fill="#fff" d="M612.609 35.86h-88.702v51.703h88.702z"/><path fill="#0055DC" fill-rule="evenodd" d="M581.612 91.238v.49c0 .368-.735.49-1.347.49h-23.891c-.613 0-1.348-.122-1.348-.49v-.49" clip-rule="evenodd"/><path fill="#fff" stroke="#0055DC" stroke-miterlimit="10" stroke-width="1.5" d="M568.302 82.906c12.388 0 22.431-10.043 22.431-22.43 0-12.389-10.043-22.431-22.431-22.431s-22.43 10.042-22.43 22.43 10.042 22.43 22.43 22.43Z"/><path fill="#003682" d="M567.385 52.06a1 1 0 0 1 1.674 0l.317.486a1 1 0 0 0 1.42.266l.469-.337a1 1 0 0 1 1.56.604l.124.575a1 1 0 0 0 1.226.759l.562-.144a1 1 0 0 1 1.236 1.125l-.093.588a1 1 0 0 0 .868 1.15l.583.07a1 1 0 0 1 .745 1.494l-.301.519a1 1 0 0 0 .394 1.383l.525.28a1 1 0 0 1 .154 1.663l-.466.374a1 1 0 0 0-.133 1.432l.391.455a1 1 0 0 1-.458 1.605l-.564.178a1 1 0 0 0-.641 1.288l.2.564a1 1 0 0 1-1.008 1.332l-.582-.038a1 1 0 0 0-1.065.971l-.016.592a1 1 0 0 1-1.423.88l-.523-.245a1 1 0 0 0-1.346.521l-.225.539a1 1 0 0 1-1.645.307l-.4-.418a1 1 0 0 0-1.444 0l-.4.418a1 1 0 0 1-1.645-.307l-.225-.539a1 1 0 0 0-1.346-.521l-.524.244a1 1 0 0 1-1.422-.88l-.016-.59a1 1 0 0 0-1.065-.972l-.582.038a1 1 0 0 1-1.008-1.332l.2-.564a1 1 0 0 0-.642-1.288l-.564-.178a1 1 0 0 1-.457-1.605l.391-.455a1 1 0 0 0-.133-1.432l-.466-.374a1 1 0 0 1 .154-1.662l.524-.28a1 1 0 0 0 .394-1.384l-.301-.519a1 1 0 0 1 .746-1.494l.583-.07a1 1 0 0 0 .868-1.15l-.093-.588a1 1 0 0 1 1.236-1.125l.562.144a1 1 0 0 0 1.226-.76l.123-.574a1 1 0 0 1 1.561-.604l.469.337a1 1 0 0 0 1.419-.265z"/><path fill="#C5EBF5" stroke="#003682" stroke-miterlimit="10" stroke-width="1.5" d="M561.225 72.16a15.8 15.8 0 0 0 3.22-2.343v-5.92l7.798.092v5.568c.356.692 1.7 1.542 3.494 2.55 0 0-3.337 4.976-7.528 4.976-4.192 0-6.984-4.923-6.984-4.923Z"/><path fill="#0055DC" stroke="#003682" stroke-miterlimit="10" stroke-width="1.5" d="M568.303 82.906a22.35 22.35 0 0 0 15.059-5.808 35 35 0 0 0-7.582-4.953s-3.379 4.938-7.571 4.938c-4.191 0-7.006-4.875-7.006-4.875-2.573 1.45-5.729 2.816-8.094 4.763a22.35 22.35 0 0 0 15.194 5.935Z"/><path fill="#C5EBF5" stroke="#003682" stroke-miterlimit="10" stroke-width="1.5" d="M575.739 56.414a1.25 1.25 0 0 1 .616-.787 1.24 1.24 0 0 1 .996-.076c.975.294.426 3.834-2.298 3.708q.423-1.402.686-2.845Zm-14.876.001a1.26 1.26 0 0 0-.643-.797 1.28 1.28 0 0 0-1.022-.067c-.85.345-.427 3.834 2.3 3.709a22.5 22.5 0 0 1-.635-2.846Z"/><path fill="#C5EBF5" stroke="#003682" stroke-miterlimit="10" stroke-width="1.5" d="M576.092 53.164c0 2.021-.74 6.14-2.04 8.626-.965 1.846-3.452 3.9-5.712 3.9-2.261 0-4.491-2.054-5.712-3.9-1.548-2.34-2.041-6.605-2.041-8.626a7.752 7.752 0 0 1 15.505 0Z"/><path fill="#003682" stroke="#003682" stroke-linejoin="round" stroke-width="1.5" d="M575.693 55.71c-.363-3.081-3.351-7.182-6.688-7.182l-.551-2.554 1.033 2.583c0 5.583-8.279 4.091-8.624 7.781l-.133-.133a22.4 22.4 0 0 1-.274-3.25c0-4.28 3.603-7.62 7.885-7.62a7.865 7.865 0 0 1 7.885 7.754 16 16 0 0 1-.436 3.157z"/><path stroke="#0055DC" stroke-miterlimit="10" stroke-width="1.5" d="M568.302 82.906c12.388 0 22.431-10.043 22.431-22.43 0-12.389-10.043-22.431-22.431-22.431s-22.43 10.042-22.43 22.43 10.042 22.43 22.43 22.43Z"/><path fill="#222" d="M556.76 101.799v8.727h-1.845v-8.727zm3.299 4.943v3.784h-1.815v-6.545h1.73v1.155h.077q.218-.571.728-.904.512-.336 1.241-.336.681 0 1.188.298.508.298.789.852.28.55.281 1.313v4.167h-1.815v-3.843q.004-.601-.307-.938-.31-.34-.857-.341a1.3 1.3 0 0 0-.647.158q-.278.157-.435.46a1.6 1.6 0 0 0-.158.72m8.062 3.891q-.746 0-1.351-.384-.601-.387-.955-1.137-.35-.755-.349-1.85 0-1.125.362-1.871.363-.75.963-1.12.606-.375 1.325-.375.55 0 .917.187.37.184.596.46.23.273.35.537h.055v-3.281h1.811v8.727h-1.79v-1.048h-.076a2.3 2.3 0 0 1-.363.541 1.8 1.8 0 0 1-.6.439q-.367.175-.895.175m.575-1.445q.44 0 .742-.238.306-.243.468-.678a2.8 2.8 0 0 0 .166-1.018q0-.585-.161-1.015a1.46 1.46 0 0 0-.469-.664 1.2 1.2 0 0 0-.746-.235q-.447 0-.754.243-.308.243-.465.673a2.9 2.9 0 0 0-.157.998q0 .57.157 1.01.162.434.465.681.306.243.754.243m4.642 1.338v-6.545h1.815v6.545zm.912-7.389a1 1 0 0 1-.695-.268.87.87 0 0 1-.285-.652q0-.375.285-.644a.98.98 0 0 1 .695-.272q.405 0 .69.272.29.269.29.644 0 .38-.29.652a.97.97 0 0 1-.69.268m4.224 7.513q-.627 0-1.117-.217a1.8 1.8 0 0 1-.775-.652q-.282-.435-.282-1.083 0-.545.201-.916.2-.37.545-.597.346-.225.784-.34.444-.115.929-.162.572-.06.921-.111.35-.055.507-.162a.36.36 0 0 0 .157-.315v-.026q0-.405-.255-.626-.251-.222-.716-.222-.49 0-.78.217a1 1 0 0 0-.383.537l-1.679-.136q.127-.597.502-1.031a2.4 2.4 0 0 1 .968-.674q.596-.238 1.38-.238.546 0 1.044.128.504.127.891.396.391.269.618.69.226.418.226 1.002v4.414h-1.722v-.907h-.051a1.9 1.9 0 0 1-.422.541 2 2 0 0 1-.635.362 2.6 2.6 0 0 1-.856.128m.52-1.253q.4 0 .707-.158.307-.161.482-.434.174-.273.174-.618v-.695a1 1 0 0 1-.234.103 5 5 0 0 1-.695.144l-.332.047a2.3 2.3 0 0 0-.558.149.9.9 0 0 0-.371.277.68.68 0 0 0-.132.427q0 .37.268.566.273.192.691.192"/><path fill="#C5EBF5" fill-rule="evenodd" stroke="#0055DC" stroke-miterlimit="10" stroke-width="1.5" d="M612.242 263h-87.845c-2.327 0-4.41 1.96-4.41 4.411v57.705h96.665v-57.705c0-2.451-2.083-4.411-4.41-4.411Z" clip-rule="evenodd"/><path fill="#0055DC" d="M568.258 267.288a.735.735 0 1 0 0-1.47.735.735 0 0 0 0 1.47"/><path fill="#fff" d="M620.45 329.526H516.066c-5.391 0-9.066-.857-9.066-1.592v-2.451c0-.245.245-.49.49-.49h121.414c.245 0 .49.245.49.49v2.451c.122.735-2.696 1.592-8.944 1.592"/><path stroke="#0055DC" stroke-miterlimit="10" stroke-width="1.5" d="M620.45 329.526H516.066c-5.391 0-9.066-.857-9.066-1.592v-2.451c0-.245.245-.49.49-.49h121.414c.245 0 .49.245.49.49v2.451c.122.735-2.696 1.592-8.944 1.592Z" clip-rule="evenodd"/><path fill="#C5EBF5" d="M629.516 325.483c0-.245-.245-.49-.49-.49H507.612c-.245 0-.49.245-.49.49v2.328h122.516v-2.328z"/><path stroke="#0055DC" stroke-miterlimit="10" stroke-width="1.5" d="M620.45 329.526H516.066c-5.391 0-9.066-.857-9.066-1.592v-2.451c0-.245.245-.49.49-.49h121.414c.245 0 .49.245.49.49v2.451c.122.735-2.696 1.592-8.944 1.592Z"/><path fill="#fff" d="M612.609 269.861h-88.702v51.702h88.702z"/><path fill="#0055DC" fill-rule="evenodd" d="M581.612 325.238v.49c0 .368-.735.49-1.347.49h-23.891c-.613 0-1.348-.122-1.348-.49v-.49" clip-rule="evenodd"/><path fill="#fff" stroke="#0055DC" stroke-miterlimit="10" stroke-width="1.5" d="M568.302 316.906c12.388 0 22.431-10.043 22.431-22.431s-10.043-22.43-22.431-22.43-22.43 10.042-22.43 22.43 10.042 22.431 22.43 22.431Z"/><path fill="#003682" d="M567.385 286.061a1 1 0 0 1 1.674 0l.317.486c.312.476.957.596 1.42.265l.469-.336a1 1 0 0 1 1.56.603l.124.575a1 1 0 0 0 1.226.759l.562-.144a1 1 0 0 1 1.236 1.125l-.093.588a1 1 0 0 0 .868 1.15l.583.07a1 1 0 0 1 .745 1.494l-.301.519a1 1 0 0 0 .394 1.384l.525.28a1 1 0 0 1 .154 1.662l-.466.374a1 1 0 0 0-.133 1.432l.391.455a1 1 0 0 1-.458 1.605l-.564.178a1 1 0 0 0-.641 1.288l.2.564a1 1 0 0 1-1.008 1.333l-.582-.039a1 1 0 0 0-1.065.971l-.016.592a1 1 0 0 1-1.423.879l-.523-.244a1 1 0 0 0-1.346.521l-.225.539a1 1 0 0 1-1.645.307l-.4-.417a1 1 0 0 0-1.444 0l-.4.417a1 1 0 0 1-1.645-.307l-.225-.539a1 1 0 0 0-1.346-.521l-.524.244a1 1 0 0 1-1.422-.879l-.016-.592a1 1 0 0 0-1.065-.971l-.582.039a1 1 0 0 1-1.008-1.333l.2-.564a1 1 0 0 0-.642-1.288l-.564-.178a1 1 0 0 1-.457-1.605l.391-.455a1 1 0 0 0-.133-1.432l-.466-.374a1 1 0 0 1 .154-1.662l.524-.28a1 1 0 0 0 .394-1.384l-.301-.519a1 1 0 0 1 .746-1.494l.583-.07a1 1 0 0 0 .868-1.15l-.093-.588a1 1 0 0 1 1.236-1.125l.562.144a1 1 0 0 0 1.226-.759l.123-.575a1 1 0 0 1 1.561-.603l.469.336a1 1 0 0 0 1.419-.265z"/><path fill="#C5EBF5" stroke="#003682" stroke-miterlimit="10" stroke-width="1.5" d="M561.225 306.16a15.8 15.8 0 0 0 3.22-2.343v-5.92l7.798.092v5.568c.356.692 1.7 1.542 3.494 2.549 0 0-3.337 4.977-7.528 4.977-4.192 0-6.984-4.923-6.984-4.923Z"/><path fill="#0055DC" stroke="#003682" stroke-miterlimit="10" stroke-width="1.5" d="M568.303 316.906a22.35 22.35 0 0 0 15.059-5.808 35 35 0 0 0-7.582-4.953s-3.379 4.938-7.571 4.938c-4.191 0-7.006-4.875-7.006-4.875-2.573 1.451-5.729 2.816-8.094 4.763a22.35 22.35 0 0 0 15.194 5.935Z"/><path fill="#C5EBF5" stroke="#003682" stroke-miterlimit="10" stroke-width="1.5" d="M575.739 290.414a1.24 1.24 0 0 1 1.106-.93c.172-.013.344.01.506.067.975.294.426 3.834-2.298 3.708q.423-1.402.686-2.845Zm-14.876 0a1.26 1.26 0 0 0-.643-.796 1.28 1.28 0 0 0-1.022-.067c-.85.345-.427 3.834 2.3 3.709a22.5 22.5 0 0 1-.635-2.846Z"/><path fill="#C5EBF5" stroke="#003682" stroke-miterlimit="10" stroke-width="1.5" d="M576.092 287.164c0 2.022-.74 6.14-2.04 8.626-.965 1.846-3.452 3.901-5.712 3.901-2.261 0-4.491-2.055-5.712-3.9-1.548-2.34-2.041-6.605-2.041-8.627a7.753 7.753 0 0 1 15.505 0Z"/><path fill="#003682" stroke="#003682" stroke-linejoin="round" stroke-width="1.5" d="M575.693 289.71c-.363-3.081-3.351-7.182-6.688-7.182l-.551-2.554 1.033 2.583c0 5.583-8.279 4.092-8.624 7.781l-.133-.132a22.4 22.4 0 0 1-.274-3.25c0-4.282 3.603-7.62 7.885-7.62a7.866 7.866 0 0 1 7.885 7.753 16 16 0 0 1-.436 3.157z"/><path stroke="#0055DC" stroke-miterlimit="10" stroke-width="1.5" d="M568.302 316.906c12.388 0 22.431-10.043 22.431-22.431s-10.043-22.43-22.431-22.43-22.43 10.042-22.43 22.43 10.042 22.431 22.43 22.431Z"/><path fill="#222" d="M534.823 333.273h1.845v5.667q0 .955-.456 1.671a3.05 3.05 0 0 1-1.265 1.116q-.814.396-1.897.397-1.087 0-1.9-.397a3.05 3.05 0 0 1-1.266-1.116q-.452-.716-.452-1.671v-5.667h1.846v5.51q0 .498.217.886.222.389.622.609.4.222.933.222.537 0 .933-.222.401-.22.618-.609a1.75 1.75 0 0 0 .222-.886zm5.145 4.943V342h-1.816v-6.545h1.73v1.154h.077a1.83 1.83 0 0 1 .729-.903q.511-.337 1.24-.337.682 0 1.189.299.507.298.788.852.282.55.281 1.312V342h-1.815v-3.844q.004-.6-.307-.937-.311-.341-.856-.341a1.3 1.3 0 0 0-.648.158q-.278.157-.435.46a1.6 1.6 0 0 0-.157.72m5.649 3.784v-6.545h1.815V342zm.912-7.389a1 1 0 0 1-.695-.269.87.87 0 0 1-.285-.652q0-.375.285-.643a.98.98 0 0 1 .695-.273q.405 0 .69.273.29.268.29.643a.86.86 0 0 1-.29.652.97.97 0 0 1-.69.269m5.839.844v1.363h-3.942v-1.363zm-3.047-1.569h1.816v6.103q0 .25.076.392a.42.42 0 0 0 .213.191.9.9 0 0 0 .324.056q.128 0 .256-.021l.196-.039.285 1.351a5 5 0 0 1-.383.098q-.247.06-.601.072a2.8 2.8 0 0 1-1.151-.174 1.6 1.6 0 0 1-.762-.622q-.273-.423-.269-1.066zm7.142 8.242q-1.01 0-1.738-.409a2.8 2.8 0 0 1-1.117-1.168q-.392-.759-.392-1.794 0-1.01.392-1.773a2.9 2.9 0 0 1 1.104-1.189q.716-.426 1.679-.426.648 0 1.206.209.562.204.98.618.422.413.656 1.04.235.622.235 1.457v.499h-5.527v-1.125h3.818q0-.393-.171-.695a1.2 1.2 0 0 0-.473-.473 1.35 1.35 0 0 0-.694-.175q-.414 0-.733.192a1.35 1.35 0 0 0-.495.507 1.44 1.44 0 0 0-.183.703v1.07q0 .486.179.84.183.353.516.545.332.192.788.192.303 0 .554-.085t.43-.256a1.1 1.1 0 0 0 .273-.418l1.679.111q-.128.605-.524 1.057a2.6 2.6 0 0 1-1.014.699q-.618.246-1.428.247m6.601-.021q-.745 0-1.351-.384-.6-.388-.954-1.138-.35-.754-.35-1.849 0-1.125.362-1.871.363-.75.964-1.121.605-.375 1.325-.375.55 0 .916.188.37.183.597.46.23.273.349.537h.055v-3.281h1.812V342h-1.79v-1.048h-.077a2.3 2.3 0 0 1-.362.541 1.8 1.8 0 0 1-.601.439q-.367.175-.895.175m.575-1.445q.44 0 .742-.239.306-.242.469-.677.166-.435.166-1.019t-.162-1.014a1.46 1.46 0 0 0-.469-.665 1.2 1.2 0 0 0-.746-.234q-.447 0-.754.243a1.5 1.5 0 0 0-.464.673 2.9 2.9 0 0 0-.158.997q0 .572.158 1.01.161.435.464.682.307.243.754.243m12.188-4.879a1.08 1.08 0 0 0-.439-.801q-.388-.286-1.053-.286a2 2 0 0 0-.762.128 1.07 1.07 0 0 0-.478.345.83.83 0 0 0-.162.503.73.73 0 0 0 .098.409q.111.174.303.303.192.123.443.217.252.09.537.153l.784.188q.571.128 1.048.341.478.212.827.524.35.311.541.733.196.421.201.967-.005.801-.409 1.389-.4.584-1.16.908-.754.32-1.819.32-1.057 0-1.841-.324a2.7 2.7 0 0 1-1.219-.959q-.435-.639-.456-1.581h1.786q.03.44.251.733.226.29.601.439.379.144.857.145.468 0 .813-.137a1.25 1.25 0 0 0 .542-.379.87.87 0 0 0 .191-.558.73.73 0 0 0-.174-.494 1.3 1.3 0 0 0-.503-.341 5 5 0 0 0-.806-.256l-.95-.239q-1.104-.269-1.743-.839-.639-.572-.635-1.539-.004-.793.422-1.384.43-.593 1.181-.925.75-.333 1.704-.333.972 0 1.696.333.729.332 1.134.925.405.591.417 1.372zm6.576-.328v1.363h-3.942v-1.363zm-3.047-1.569h1.816v6.103q0 .25.076.392a.42.42 0 0 0 .213.191.9.9 0 0 0 .324.056q.129 0 .256-.021l.196-.039.286 1.351a5 5 0 0 1-.384.098q-.247.06-.601.072-.656.026-1.15-.174a1.6 1.6 0 0 1-.763-.622q-.273-.423-.269-1.066zm6.096 8.238q-.626 0-1.116-.218a1.8 1.8 0 0 1-.776-.652q-.28-.434-.281-1.082 0-.546.2-.916.201-.37.546-.597.345-.225.784-.341.443-.115.929-.162.57-.06.92-.111.35-.054.507-.161a.36.36 0 0 0 .158-.316v-.025q0-.405-.256-.627-.25-.221-.716-.221-.49 0-.779.217a1 1 0 0 0-.384.537l-1.679-.137q.128-.596.503-1.031.375-.438.967-.673.597-.239 1.381-.239.546 0 1.044.128.502.127.891.396.392.269.617.691.226.417.226 1.001V342h-1.721v-.908h-.051a1.9 1.9 0 0 1-.422.542 2 2 0 0 1-.635.362 2.6 2.6 0 0 1-.857.128m.52-1.253q.4 0 .708-.158.306-.162.481-.435.175-.272.175-.617v-.695a1 1 0 0 1-.235.102 4 4 0 0 1-.328.081q-.183.034-.366.064l-.333.047a2.2 2.2 0 0 0-.558.149.9.9 0 0 0-.371.277.68.68 0 0 0-.132.426q0 .37.269.567.273.192.69.192m8.056-5.416v1.363h-3.942v-1.363zm-3.047-1.569h1.816v6.103q0 .25.076.392a.42.42 0 0 0 .213.191.9.9 0 0 0 .324.056q.129 0 .256-.021l.196-.039.286 1.351a5 5 0 0 1-.384.098q-.247.06-.601.072-.656.026-1.15-.174a1.6 1.6 0 0 1-.763-.622q-.273-.423-.269-1.066zm7.142 8.242q-1.01 0-1.738-.409a2.8 2.8 0 0 1-1.117-1.168q-.392-.759-.392-1.794 0-1.01.392-1.773.393-.762 1.104-1.189.716-.426 1.679-.426.648 0 1.206.209.563.204.98.618.422.413.656 1.04.235.622.235 1.457v.499h-5.527v-1.125h3.818q0-.393-.171-.695a1.2 1.2 0 0 0-.473-.473 1.35 1.35 0 0 0-.694-.175q-.414 0-.733.192-.315.188-.494.507a1.43 1.43 0 0 0-.184.703v1.07q0 .486.179.84.183.353.516.545.332.192.788.192.303 0 .554-.085t.431-.256a1.1 1.1 0 0 0 .272-.418l1.679.111q-.128.605-.524 1.057a2.6 2.6 0 0 1-1.014.699q-.618.246-1.428.247m9.635-4.807-1.662.102a.85.85 0 0 0-.183-.383.96.96 0 0 0-.371-.277 1.3 1.3 0 0 0-.541-.107q-.421 0-.711.179-.29.175-.29.469 0 .234.187.396.188.162.644.26l1.184.239q.955.196 1.424.631.468.434.468 1.142 0 .643-.379 1.129-.375.486-1.031.758-.652.269-1.504.269-1.3 0-2.071-.541a2.1 2.1 0 0 1-.899-1.483l1.785-.094a.92.92 0 0 0 .392.605q.31.205.797.205.477 0 .767-.184.294-.187.298-.481a.5.5 0 0 0-.208-.405q-.205-.162-.631-.247l-1.134-.226q-.959-.191-1.427-.665-.465-.472-.465-1.206 0-.63.341-1.086.345-.456.968-.704.626-.246 1.465-.247 1.24 0 1.952.524.716.525.835 1.428"/><path fill="#C5EBF5" fill-rule="evenodd" stroke="#0055DC" stroke-miterlimit="10" stroke-width="1.5" d="M614.488 144h-92.223c-2.444 0-4.631 2.058-4.631 4.63v60.582h101.484V148.63c0-2.572-2.187-4.63-4.63-4.63Z" clip-rule="evenodd"/><path fill="#0055DC" d="M568.312 148.502a.772.772 0 1 0 0-1.545.772.772 0 0 0 0 1.545"/><path fill="#fff" d="M623.105 213.842H513.518c-5.659 0-9.518-.9-9.518-1.672v-2.572c0-.257.257-.515.514-.515H631.98c.257 0 .515.258.515.515v2.572c.128.772-2.83 1.672-9.39 1.672"/><path stroke="#0055DC" stroke-miterlimit="10" stroke-width="1.5" d="M623.105 213.842H513.518c-5.659 0-9.518-.9-9.518-1.672v-2.572c0-.257.257-.515.514-.515H631.98c.257 0 .515.258.515.515v2.572c.128.772-2.83 1.672-9.39 1.672Z" clip-rule="evenodd"/><path fill="#C5EBF5" d="M632.623 209.598c0-.257-.257-.515-.514-.515H504.643c-.257 0-.515.258-.515.515v2.444h128.624v-2.444z"/><path stroke="#0055DC" stroke-miterlimit="10" stroke-width="1.5" d="M623.105 213.842H513.518c-5.659 0-9.518-.9-9.518-1.672v-2.572c0-.257.257-.515.514-.515H631.98c.257 0 .515.258.515.515v2.572c.128.772-2.83 1.672-9.39 1.672Z"/><path fill="#fff" d="M614.873 151.203H521.75v54.279h93.123z"/><path fill="#0055DC" fill-rule="evenodd" d="M582.332 209.341v.514c0 .386-.772.515-1.415.515h-25.082c-.643 0-1.415-.129-1.415-.515v-.514" clip-rule="evenodd"/><path fill="#CBE9F3" d="M581.014 193.783c-3.767-2-7.94-2.538-8.717-4.363-.589-1.383 0-6.012 0-6.012l-9.103-.095s.575 4.693 0 6.107c-.698 1.714-4.49 2.267-7.971 4.214"/><path stroke="#193979" stroke-miterlimit="10" stroke-width="1.5" d="M581.014 193.783c-3.767-2-7.94-2.538-8.717-4.363-.589-1.383 0-6.012 0-6.012l-9.103-.095s.575 4.693 0 6.107c-.698 1.714-4.49 2.267-7.971 4.214"/><path fill="#1B59D3" stroke="#0F387D" stroke-linecap="round" stroke-miterlimit="10" stroke-width="1.5" d="M568.204 198.545a19.55 19.55 0 0 0 12.809-4.761c-3.766-2-7.939-2.539-8.717-4.364a4 4 0 0 1-.229-1.193 23.7 23.7 0 0 1-4.328.464 23.5 23.5 0 0 1-4.325-.464 4.2 4.2 0 0 1-.222 1.193c-.697 1.715-4.489 2.268-7.97 4.216a19.55 19.55 0 0 0 12.982 4.909z"/><path fill="#CBE9F3" d="M560.877 175.287c-.072-.587-.943-1.642-1.971-.965-1.006.661-.04 5.606 2.765 5.422"/><path stroke="#193979" stroke-miterlimit="10" stroke-width="1.5" d="M560.877 175.287c-.072-.587-.943-1.642-1.971-.965-1.006.661-.04 5.606 2.765 5.422"/><path fill="#CBE9F3" d="M574.647 175.287c.072-.587.942-1.642 1.971-.965 1.005.661.039 5.606-2.766 5.422"/><path stroke="#193979" stroke-miterlimit="10" stroke-width="1.5" d="M574.647 175.287c.072-.587.942-1.642 1.971-.965 1.005.661.039 5.606-2.766 5.422"/><path fill="#CBE9F3" stroke="#193979" stroke-miterlimit="10" stroke-width="1.5" d="M574.824 171.847a20.4 20.4 0 0 1-.656 5.747c-.268.948-.584 3.856-.948 4.609-.916 1.899-3.274 4.012-5.417 4.012-2.144 0-4.258-2.112-5.418-4.011-.442-.727-.794-3.639-1.07-4.608-.637-2.243-.533-4.297-.533-5.749 0-4.405 2.957-7.337 7.017-7.337s7.025 2.932 7.025 7.337Z"/><path fill="#0F387D" stroke="#0F387D" stroke-linejoin="round" stroke-width="1.5" d="M573.587 170.916s-7.256.683-10.567-1.703c0 0-.965 4.066-2.142 6.074 0 0-1.451-6.168.662-6.986 0 0-.175-3.422 3.599-4.299 0 0-.195.853.438.828s5.659-2.922 9.247-.657c3.587 2.264.833 5.575.833 5.575s.098 3.498-.767 4.975l-.313 1.002s-.908-3.167-.99-4.809Z"/><path stroke="#1B59D3" stroke-miterlimit="10" stroke-width="1.5" d="M568.204 198.545c10.842 0 19.631-8.79 19.631-19.632s-8.789-19.631-19.631-19.631-19.631 8.789-19.631 19.631 8.789 19.632 19.631 19.632Z"/><path stroke="#1B59D3" stroke-miterlimit="10" stroke-width="1.5" d="M568.204 198.545c10.842 0 19.631-8.79 19.631-19.632s-8.789-19.631-19.631-19.631-19.631 8.789-19.631 19.631 8.789 19.632 19.631 19.632Z"/><path fill="#222" d="M548.356 223.094a1.9 1.9 0 0 0-.251-.55 1.6 1.6 0 0 0-.397-.409 1.7 1.7 0 0 0-.528-.26 2.2 2.2 0 0 0-.652-.089q-.669 0-1.176.332-.503.332-.784.967-.282.631-.282 1.543t.277 1.551.784.976q.508.332 1.198.332.626 0 1.07-.221.447-.227.681-.635.239-.409.239-.968l.375.056h-2.25v-1.389h3.652v1.099q0 1.15-.486 1.977-.486.823-1.338 1.27-.852.443-1.952.443-1.227 0-2.156-.541a3.76 3.76 0 0 1-1.449-1.547q-.515-1.005-.515-2.386 0-1.061.306-1.892a4.05 4.05 0 0 1 .87-1.415q.558-.579 1.3-.882a4.2 4.2 0 0 1 1.606-.303q.742 0 1.381.218.64.213 1.133.605.5.392.814.933.315.537.405 1.185zm6.291 6.034q-1.01 0-1.739-.409a2.8 2.8 0 0 1-1.116-1.168q-.393-.759-.392-1.794 0-1.01.392-1.773a2.9 2.9 0 0 1 1.103-1.189q.716-.426 1.679-.426.648 0 1.206.209.563.204.98.618.422.414.657 1.04.234.622.234 1.457v.499h-5.527v-1.125h3.818q0-.393-.17-.695a1.2 1.2 0 0 0-.473-.473 1.36 1.36 0 0 0-.695-.175q-.413 0-.733.192-.315.188-.494.507a1.44 1.44 0 0 0-.183.703v1.07q0 .486.179.84.183.353.515.545.333.192.789.192.302 0 .554-.085.251-.086.43-.256t.273-.418l1.679.111q-.128.605-.524 1.057-.393.447-1.015.699-.617.246-1.427.247m4.189-.128v-6.545h1.76v1.142h.068q.178-.61.601-.921a1.58 1.58 0 0 1 .971-.315 2.6 2.6 0 0 1 .571.064v1.611a3.2 3.2 0 0 0-.767-.098 1.46 1.46 0 0 0-.716.174 1.3 1.3 0 0 0-.494.477 1.4 1.4 0 0 0-.179.708V229zm4.91 0v-6.545h1.73v1.154h.077q.204-.575.682-.907.476-.333 1.142-.333.673 0 1.146.337.472.333.631.903h.068q.2-.562.724-.899.528-.34 1.249-.341.916 0 1.487.584.576.58.575 1.645V229h-1.811v-4.044q0-.545-.29-.818a1 1 0 0 0-.724-.273q-.495 0-.771.315-.277.312-.277.823V229h-1.76v-4.082q0-.482-.277-.767-.273-.286-.72-.286-.303 0-.546.153-.238.15-.379.422a1.34 1.34 0 0 0-.141.631V229zm12.812.124q-.627 0-1.117-.218a1.8 1.8 0 0 1-.775-.652q-.282-.435-.282-1.082 0-.546.201-.916.2-.37.545-.597.346-.225.784-.341a6 6 0 0 1 .929-.162q.571-.06.921-.111.35-.054.507-.161a.36.36 0 0 0 .157-.316v-.025q0-.405-.255-.627-.252-.221-.716-.221-.49 0-.78.217a1 1 0 0 0-.383.537l-1.679-.137q.127-.596.502-1.031.375-.439.968-.673.596-.239 1.38-.239.546 0 1.044.128.504.127.891.396.391.269.618.691.226.417.226 1.001V229h-1.722v-.908h-.051a1.9 1.9 0 0 1-.422.542 2 2 0 0 1-.635.362 2.6 2.6 0 0 1-.856.128m.52-1.253q.4 0 .707-.158.307-.162.482-.435a1.1 1.1 0 0 0 .174-.617v-.695a1 1 0 0 1-.234.102 4 4 0 0 1-.328.081q-.183.034-.367.064l-.332.047a2.2 2.2 0 0 0-.558.149.9.9 0 0 0-.371.277.68.68 0 0 0-.132.426q0 .37.268.567.273.192.691.192m6.39-2.655V229h-1.816v-6.545h1.73v1.154h.077a1.83 1.83 0 0 1 .729-.903q.511-.337 1.24-.337.682 0 1.189.299.507.298.788.852.282.55.281 1.312V229h-1.815v-3.844q.004-.6-.307-.937-.311-.341-.856-.341a1.3 1.3 0 0 0-.648.158q-.278.157-.435.46a1.6 1.6 0 0 0-.157.72m6.535 6.239q-.345 0-.647-.056a2.4 2.4 0 0 1-.495-.132l.409-1.355q.32.098.576.106a.73.73 0 0 0 .447-.119q.192-.127.311-.435l.107-.276-2.348-6.733h1.909l1.355 4.806h.068l1.368-4.806h1.922l-2.544 7.252a3 3 0 0 1-.499.921q-.31.396-.788.609-.477.218-1.151.218"/><path fill="#C5EBF5" fill-rule="evenodd" stroke="#0055DC" stroke-miterlimit="10" stroke-width="1.5" d="M614.488 376h-92.223c-2.444 0-4.631 2.058-4.631 4.63v60.582h101.484V380.63c0-2.572-2.187-4.63-4.63-4.63Z" clip-rule="evenodd"/><path fill="#0055DC" d="M568.312 380.502a.772.772 0 1 0 0-1.545.772.772 0 0 0 0 1.545"/><path fill="#fff" d="M623.105 445.842H513.518c-5.659 0-9.518-.9-9.518-1.672v-2.572c0-.257.257-.515.514-.515H631.98c.257 0 .515.258.515.515v2.572c.128.772-2.83 1.672-9.39 1.672"/><path stroke="#0055DC" stroke-miterlimit="10" stroke-width="1.5" d="M623.105 445.842H513.518c-5.659 0-9.518-.9-9.518-1.672v-2.572c0-.257.257-.515.514-.515H631.98c.257 0 .515.258.515.515v2.572c.128.772-2.83 1.672-9.39 1.672Z" clip-rule="evenodd"/><path fill="#C5EBF5" d="M632.623 441.598c0-.257-.257-.515-.514-.515H504.643c-.257 0-.515.258-.515.515v2.444h128.624v-2.444z"/><path stroke="#0055DC" stroke-miterlimit="10" stroke-width="1.5" d="M623.105 445.842H513.518c-5.659 0-9.518-.9-9.518-1.672v-2.572c0-.257.257-.515.514-.515H631.98c.257 0 .515.258.515.515v2.572c.128.772-2.83 1.672-9.39 1.672Z"/><path fill="#fff" d="M614.873 383.203H521.75v54.279h93.123z"/><path fill="#0055DC" fill-rule="evenodd" d="M582.332 441.341v.514c0 .386-.772.515-1.415.515h-25.082c-.643 0-1.415-.129-1.415-.515v-.514" clip-rule="evenodd"/><path fill="#CBE9F3" d="M581.014 425.783c-3.767-2-7.94-2.538-8.717-4.363-.589-1.383 0-6.012 0-6.012l-9.103-.095s.575 4.693 0 6.107c-.698 1.714-4.49 2.267-7.971 4.214"/><path stroke="#193979" stroke-miterlimit="10" stroke-width="1.5" d="M581.014 425.783c-3.767-2-7.94-2.538-8.717-4.363-.589-1.383 0-6.012 0-6.012l-9.103-.095s.575 4.693 0 6.107c-.698 1.714-4.49 2.267-7.971 4.214"/><path fill="#1B59D3" stroke="#0F387D" stroke-linecap="round" stroke-miterlimit="10" stroke-width="1.5" d="M568.204 430.545a19.55 19.55 0 0 0 12.809-4.761c-3.766-2-7.939-2.539-8.717-4.364a4 4 0 0 1-.229-1.193 23.7 23.7 0 0 1-4.328.464 23.5 23.5 0 0 1-4.325-.464 4.2 4.2 0 0 1-.222 1.193c-.697 1.715-4.489 2.268-7.97 4.216a19.55 19.55 0 0 0 12.982 4.909z"/><path fill="#CBE9F3" d="M560.877 407.287c-.072-.587-.943-1.642-1.971-.965-1.006.661-.04 5.606 2.765 5.422"/><path stroke="#193979" stroke-miterlimit="10" stroke-width="1.5" d="M560.877 407.287c-.072-.587-.943-1.642-1.971-.965-1.006.661-.04 5.606 2.765 5.422"/><path fill="#CBE9F3" d="M574.647 407.287c.072-.587.942-1.642 1.971-.965 1.005.661.039 5.606-2.766 5.422"/><path stroke="#193979" stroke-miterlimit="10" stroke-width="1.5" d="M574.647 407.287c.072-.587.942-1.642 1.971-.965 1.005.661.039 5.606-2.766 5.422"/><path fill="#CBE9F3" stroke="#193979" stroke-miterlimit="10" stroke-width="1.5" d="M574.824 403.847a20.4 20.4 0 0 1-.656 5.747c-.268.948-.584 3.856-.948 4.609-.916 1.899-3.274 4.012-5.417 4.012-2.144 0-4.258-2.112-5.418-4.011-.442-.727-.794-3.639-1.07-4.608-.637-2.243-.533-4.297-.533-5.749 0-4.405 2.957-7.337 7.017-7.337s7.025 2.932 7.025 7.337Z"/><path fill="#0F387D" stroke="#0F387D" stroke-linejoin="round" stroke-width="1.5" d="M573.587 402.916s-7.256.683-10.567-1.703c0 0-.965 4.066-2.142 6.074 0 0-1.451-6.168.662-6.986 0 0-.175-3.422 3.599-4.299 0 0-.195.853.438.828s5.659-2.922 9.247-.657c3.587 2.264.833 5.575.833 5.575s.098 3.498-.767 4.975l-.313 1.002s-.908-3.167-.99-4.809Z"/><path stroke="#1B59D3" stroke-miterlimit="10" stroke-width="1.5" d="M568.204 430.545c10.842 0 19.631-8.79 19.631-19.632s-8.789-19.631-19.631-19.631-19.631 8.789-19.631 19.631 8.789 19.632 19.631 19.632Z"/><path stroke="#1B59D3" stroke-miterlimit="10" stroke-width="1.5" d="M568.204 430.545c10.842 0 19.631-8.79 19.631-19.632s-8.789-19.631-19.631-19.631-19.631 8.789-19.631 19.631 8.789 19.632 19.631 19.632Z"/><path fill="#222" d="M552.753 461v-8.727h3.494q.963 0 1.607.285.642.286.967.793.324.502.324 1.159 0 .512-.205.899a1.8 1.8 0 0 1-.562.631 2.3 2.3 0 0 1-.81.345v.085q.498.021.933.281.44.261.712.729.273.465.273 1.108 0 .694-.346 1.24-.34.541-1.009.857-.67.315-1.65.315zm1.845-1.509h1.504q.771 0 1.125-.294a.98.98 0 0 0 .354-.792q0-.363-.175-.639a1.2 1.2 0 0 0-.499-.435 1.7 1.7 0 0 0-.762-.158h-1.547zm0-3.566h1.368q.38 0 .673-.132.298-.137.469-.384.174-.247.174-.592a.96.96 0 0 0-.336-.763q-.333-.29-.946-.29h-1.402zm6.054 5.075v-6.545h1.76v1.142h.068q.18-.61.601-.921a1.58 1.58 0 0 1 .972-.315 2.6 2.6 0 0 1 .571.064v1.611a3.2 3.2 0 0 0-.767-.098q-.4 0-.716.174a1.3 1.3 0 0 0-.495.477 1.4 1.4 0 0 0-.178.708V461zm6.589.124q-.626 0-1.116-.218a1.8 1.8 0 0 1-.776-.652q-.28-.434-.281-1.082 0-.546.2-.916.201-.37.546-.597.345-.225.784-.341.443-.115.929-.162.57-.06.92-.111.35-.054.507-.161a.36.36 0 0 0 .158-.316v-.025q0-.405-.256-.627-.25-.221-.716-.221-.49 0-.779.217a1 1 0 0 0-.384.537l-1.679-.137q.128-.596.503-1.031.375-.438.967-.673.597-.239 1.381-.239.546 0 1.044.128.503.127.891.396.392.269.618.691.225.417.225 1.001V461h-1.721v-.908h-.051a1.9 1.9 0 0 1-.422.542 2 2 0 0 1-.635.362 2.6 2.6 0 0 1-.857.128m.52-1.253q.4 0 .708-.158.306-.162.481-.435.175-.272.175-.617v-.695a1 1 0 0 1-.235.102 4 4 0 0 1-.328.081q-.183.034-.366.064l-.333.047a2.2 2.2 0 0 0-.558.149.9.9 0 0 0-.371.277.68.68 0 0 0-.132.426q0 .37.269.567.273.192.69.192m4.541 1.129v-1.082l3.204-3.968v-.047h-3.094v-1.448h5.28v1.18l-3.008 3.869v.047h3.119V461zm6.889 0v-6.545h1.816V461zm.912-7.389a1 1 0 0 1-.694-.269.87.87 0 0 1-.286-.652.85.85 0 0 1 .286-.643.98.98 0 0 1 .694-.273q.405 0 .691.273a.85.85 0 0 1 .289.643.86.86 0 0 1-.289.652.97.97 0 0 1-.691.269m4.173-1.338V461h-1.815v-8.727z"/><path fill="#E2F5FA" stroke="#0055DC" stroke-width="1.5" d="M129.8 212.091c9.255 0 16.678 7.041 16.678 15.636s-7.423 15.636-16.678 15.636H63.39c-11.433-.029-20.612-8.742-20.612-19.391 0-10.666 9.21-19.391 20.671-19.391 1.15 0 2.3.09 3.436.268l.63.099.2-.606c3.7-11.321 14.929-19.592 28.254-19.592 16.082 0 29.095 12.038 29.539 26.952l.026.882.866-.168a18 18 0 0 1 3.4-.325Z"/><path fill="#0055DC" d="M30.729 232.894H27v19.19h3.729zm97.271 0h-3.729v19.19H128z"/><path fill="#fff" stroke="#0055DC" stroke-miterlimit="10" stroke-width="1.5" d="M35.836 255.503v3.642l83.327-.005v-3.642z"/><path fill="#C5EBF5" stroke="#0055DC" stroke-miterlimit="10" stroke-width="1.5" d="M124.272 229.493H30.728V255.5h93.544z"/><path fill="#fff" d="M120.23 251.833v-18.674H34.769v18.674z"/><path fill="#0055DC" d="M41.706 238.432h-2.07v2.023h2.07zm0 6.088h-2.07v2.022h2.07zm2.835-3.208h-2.07v2.023h2.07zm2.521-2.88h-2.07v2.023h2.07zm0 6.088h-2.07v2.022h2.07zm2.678-3.208h-2.071v2.023h2.07zm3.168-2.88h-2.07v2.023h2.07zm0 6.088h-2.07v2.022h2.07zm2.679-3.208h-2.07v2.023h2.07zm3.257-2.88h-2.071v2.023h2.07zm0 6.088h-2.071v2.022h2.07zm2.522-3.208h-2.071v2.023h2.07zm2.834-2.88h-2.07v2.023h2.07zm0 6.088h-2.07v2.022h2.07zm2.364-3.208h-2.07v2.023h2.07zm2.993-2.88h-2.07v2.023h2.07zm0 6.088h-2.07v2.022h2.07zm2.206-3.208h-2.071v2.023h2.07zm41.68 3.695c1.419 0 2.57-1.124 2.57-2.511 0-1.386-1.151-2.51-2.57-2.51-1.42 0-2.571 1.124-2.571 2.51 0 1.387 1.151 2.511 2.571 2.511"/><path stroke="#0055DC" stroke-miterlimit="10" stroke-width="1.5" d="M106.051 242.496H78.827"/><path fill="#222" d="M80.867 221h-4.125v-11.636h4.16q1.755 0 3.022.698a4.7 4.7 0 0 1 1.949 1.995q.687 1.3.687 3.113 0 1.819-.687 3.125a4.7 4.7 0 0 1-1.96 2.006q-1.273.699-3.046.699m-1.665-2.108h1.563q1.09 0 1.835-.386a2.5 2.5 0 0 0 1.125-1.211q.38-.823.38-2.125 0-1.289-.38-2.108-.375-.817-1.12-1.204-.743-.387-1.835-.386h-1.568zm18.738-9.528V221h-2.125l-5.063-7.324h-.085V221h-2.46v-11.636h2.159l5.022 7.318h.103v-7.318zm8.169 3.346q-.069-.687-.585-1.068-.517-.381-1.404-.381-.601 0-1.017.171a1.43 1.43 0 0 0-.636.46q-.216.295-.216.67a.95.95 0 0 0 .131.546q.147.233.403.403.255.165.591.29.335.12.716.205l1.045.25q.762.17 1.398.454.637.285 1.102.699.466.415.722.977.261.563.267 1.29-.006 1.069-.546 1.852-.534.779-1.545 1.211-1.006.426-2.426.426-1.41 0-2.455-.432-1.04-.432-1.625-1.278-.58-.853-.608-2.108h2.381q.04.585.335.977.302.386.801.585.506.193 1.142.193.626 0 1.086-.182.466-.181.721-.505.256-.324.256-.745a.97.97 0 0 0-.233-.659q-.227-.267-.671-.454a7 7 0 0 0-1.073-.341l-1.267-.318q-1.472-.358-2.324-1.12-.852-.76-.847-2.051-.006-1.056.563-1.846.574-.79 1.573-1.233 1-.444 2.273-.443 1.296 0 2.262.443.97.442 1.511 1.233.54.79.557 1.829z"/><path fill="#269B7F" d="M37.66 76.364V88H35.2v-9.301h-.069l-2.665 1.67v-2.181l2.881-1.824zm5.679 11.784q-.562 0-.966-.398a1.33 1.33 0 0 1-.398-.966q0-.557.398-.955.403-.397.966-.397.544 0 .954.397.41.399.41.955 0 .376-.194.688a1.5 1.5 0 0 1-.494.494q-.307.182-.676.182M56.136 88h-4.125V76.364h4.16q1.755 0 3.022.698a4.7 4.7 0 0 1 1.949 1.995q.688 1.3.688 3.114 0 1.818-.688 3.124a4.7 4.7 0 0 1-1.96 2.006Q57.909 88 56.136 88m-1.664-2.108h1.562q1.092 0 1.835-.386.75-.393 1.125-1.21.381-.825.381-2.126 0-1.29-.38-2.108-.376-.818-1.12-1.204t-1.835-.386h-1.568zm18.737-9.528V88h-2.125l-5.063-7.324h-.085V88h-2.46V76.364h2.16l5.022 7.318h.102v-7.318zm8.17 3.346q-.069-.687-.586-1.068-.517-.38-1.404-.38-.601 0-1.017.17-.414.165-.636.46-.216.295-.216.67a.96.96 0 0 0 .13.546q.15.233.404.403.256.165.591.29.336.12.716.205l1.045.25a7.4 7.4 0 0 1 1.398.454q.636.285 1.102.7.467.414.722.976.261.563.267 1.29-.005 1.069-.545 1.852-.534.78-1.546 1.21-1.005.427-2.426.427-1.41 0-2.454-.432-1.04-.432-1.625-1.279-.58-.852-.608-2.107h2.38q.04.585.335.977.301.386.802.585a3.2 3.2 0 0 0 1.142.193q.624 0 1.085-.181.465-.183.721-.506.256-.324.256-.745a.97.97 0 0 0-.233-.659q-.227-.267-.67-.454a7 7 0 0 0-1.074-.341l-1.267-.318q-1.472-.358-2.324-1.12-.852-.76-.847-2.05-.005-1.057.563-1.847.573-.79 1.574-1.233 1-.444 2.272-.444 1.296 0 2.262.444.971.443 1.511 1.233.54.789.557 1.83zM88.855 88v-8.727h2.346v1.523h.091q.24-.813.801-1.228.563-.42 1.296-.42a3.7 3.7 0 0 1 .761.085v2.148a3 3 0 0 0-.471-.091q-.301-.04-.552-.04-.534 0-.954.233a1.7 1.7 0 0 0-.66.636q-.237.409-.238.944V88zm9.942.17q-1.346 0-2.319-.545a3.74 3.74 0 0 1-1.488-1.557q-.523-1.01-.523-2.392 0-1.347.523-2.364a3.87 3.87 0 0 1 1.471-1.585q.955-.568 2.239-.568.864 0 1.608.278.75.273 1.307.824.562.552.875 1.387.312.829.312 1.943v.665h-7.37v-1.5h5.092a1.86 1.86 0 0 0-.227-.927 1.63 1.63 0 0 0-.631-.63 1.8 1.8 0 0 0-.926-.233q-.551 0-.978.256-.42.25-.659.676-.238.42-.244.937v1.426q0 .648.239 1.12.244.47.687.727.444.255 1.051.256.405 0 .739-.114.336-.114.574-.34.239-.228.363-.558l2.239.148a3.05 3.05 0 0 1-.699 1.41q-.522.596-1.352.93-.824.33-1.903.33m12.67-6.409-2.216.137a1.15 1.15 0 0 0-.244-.512 1.3 1.3 0 0 0-.494-.369 1.7 1.7 0 0 0-.722-.142q-.562 0-.949.239-.386.232-.386.625 0 .312.25.528.249.216.858.347l1.579.318q1.273.261 1.898.84.625.58.625 1.523 0 .858-.506 1.506-.5.649-1.375 1.011-.869.36-2.005.359-1.734 0-2.762-.722a2.8 2.8 0 0 1-1.199-1.977l2.381-.125q.108.528.523.806.415.273 1.062.273.637 0 1.023-.244.392-.25.398-.642a.67.67 0 0 0-.279-.54q-.272-.216-.841-.33l-1.511-.3q-1.279-.257-1.903-.887-.62-.63-.62-1.608 0-.84.455-1.449.46-.608 1.29-.937.835-.33 1.954-.33 1.654 0 2.603.699.954.699 1.113 1.903m5.49 6.41q-1.323 0-2.289-.563a3.84 3.84 0 0 1-1.483-1.58q-.523-1.017-.523-2.358 0-1.352.523-2.363a3.8 3.8 0 0 1 1.483-1.58q.966-.568 2.289-.568t2.284.568a3.8 3.8 0 0 1 1.489 1.58q.523 1.011.523 2.364 0 1.34-.523 2.357a3.84 3.84 0 0 1-1.489 1.58q-.96.563-2.284.563m.012-1.876q.602 0 1.005-.34.404-.347.608-.944.21-.596.211-1.358 0-.76-.211-1.358-.204-.596-.608-.943-.404-.346-1.005-.346-.609 0-1.023.346-.41.347-.619.944-.205.596-.205 1.357t.205 1.358q.21.597.619.944.414.34 1.023.34m8.102-9.931V88h-2.42V76.364zm7.36 7.92v-5.011h2.42V88h-2.324v-1.585h-.091a2.57 2.57 0 0 1-.983 1.233q-.681.466-1.664.466-.876 0-1.54-.398a2.74 2.74 0 0 1-1.04-1.13q-.369-.734-.375-1.757v-5.556h2.42v5.125q.006.772.415 1.221.41.45 1.097.45.438 0 .818-.2.38-.204.614-.602.238-.398.233-.983m8.822-5.011v1.818h-5.255v-1.818zm-4.062-2.091h2.42v8.136q0 .336.102.523a.57.57 0 0 0 .285.256q.187.074.431.074.171 0 .341-.029l.262-.051.38 1.801a7 7 0 0 1-.511.13q-.33.08-.801.097-.876.034-1.534-.233a2.14 2.14 0 0 1-1.017-.83q-.364-.561-.358-1.42zM142.655 88v-8.727h2.42V88zm1.216-9.852q-.54 0-.926-.358a1.16 1.16 0 0 1-.381-.87q0-.5.381-.858.386-.363.926-.363t.92.364q.387.357.387.858 0 .505-.387.869-.38.357-.92.358m6.91 10.023q-1.323 0-2.289-.563a3.85 3.85 0 0 1-1.483-1.58q-.523-1.017-.523-2.358 0-1.352.523-2.363a3.8 3.8 0 0 1 1.483-1.58q.966-.568 2.289-.568t2.285.568q.965.563 1.488 1.58.523 1.011.523 2.364 0 1.34-.523 2.357a3.84 3.84 0 0 1-1.488 1.58q-.961.563-2.285.563m.012-1.876q.602 0 1.006-.34.403-.347.607-.944.211-.596.211-1.358 0-.76-.211-1.358-.204-.596-.607-.943-.404-.346-1.006-.346-.608 0-1.023.346-.41.347-.619.944-.205.596-.205 1.357t.205 1.358q.21.597.619.944.415.34 1.023.34m8.102-3.34V88h-2.42v-8.727h2.307v1.54h.102q.29-.762.971-1.205.682-.45 1.654-.449.909 0 1.585.398t1.051 1.136q.375.733.375 1.75V88h-2.42v-5.125q.005-.8-.409-1.25-.415-.454-1.142-.454-.489 0-.864.21-.369.21-.58.613-.204.398-.21.96m15.577-3.682v1.818h-5.386v-1.818zM170.319 88v-9.358q0-.948.369-1.574.375-.624 1.023-.937a3.34 3.34 0 0 1 1.471-.313q.558 0 1.017.085.466.085.694.154l-.432 1.818a3 3 0 0 0-.352-.085 2.2 2.2 0 0 0-.421-.04q-.534 0-.744.25-.21.244-.21.688V88zm9.087.17q-1.324 0-2.29-.562a3.85 3.85 0 0 1-1.483-1.58q-.523-1.017-.523-2.358 0-1.352.523-2.363a3.8 3.8 0 0 1 1.483-1.58q.966-.568 2.29-.568t2.284.568q.966.563 1.488 1.58.523 1.011.523 2.364 0 1.34-.523 2.357a3.83 3.83 0 0 1-1.488 1.58q-.96.563-2.284.563m.011-1.874q.602 0 1.006-.342.403-.346.608-.943.21-.596.21-1.358 0-.76-.21-1.358-.205-.596-.608-.943-.404-.346-1.006-.346-.608 0-1.023.346-.409.347-.619.944-.204.596-.205 1.357 0 .761.205 1.358.21.597.619.944.415.34 1.023.34M185.099 88v-8.727h2.346v1.523h.091q.239-.813.802-1.228.562-.42 1.295-.42a3.7 3.7 0 0 1 .761.085v2.148a3 3 0 0 0-.471-.091 4 4 0 0 0-.551-.04q-.535 0-.955.233a1.7 1.7 0 0 0-.659.636 1.84 1.84 0 0 0-.239.944V88zm11.62 0-2.375-8.727h2.448l1.353 5.863h.079l1.409-5.863h2.404l1.432 5.83h.073l1.33-5.83h2.443L204.946 88h-2.563l-1.5-5.489h-.108l-1.5 5.489zm15.47.17q-1.347 0-2.318-.545a3.73 3.73 0 0 1-1.489-1.557q-.523-1.01-.523-2.392 0-1.347.523-2.364a3.86 3.86 0 0 1 1.472-1.585q.954-.568 2.238-.568.864 0 1.608.278.75.273 1.307.824.563.552.875 1.387.312.829.312 1.943v.665h-7.369v-1.5h5.091a1.86 1.86 0 0 0-.227-.927 1.63 1.63 0 0 0-.631-.63 1.8 1.8 0 0 0-.926-.233q-.55 0-.977.256-.421.25-.659.676-.239.42-.245.937v1.426q0 .648.239 1.12.244.47.687.727.444.255 1.052.256.403 0 .738-.114a1.5 1.5 0 0 0 .574-.34q.238-.228.364-.558l2.238.148a3.04 3.04 0 0 1-.699 1.41q-.522.596-1.352.93-.824.33-1.903.33m5.454-.17V76.364h2.421v4.375h.074q.159-.353.46-.716.308-.37.795-.614.495-.25 1.228-.25a3.3 3.3 0 0 1 1.761.5q.807.495 1.29 1.494.483.995.483 2.495 0 1.46-.472 2.466-.466 1-1.272 1.517a3.27 3.27 0 0 1-1.796.511q-.704 0-1.199-.233a2.5 2.5 0 0 1-.801-.585 3 3 0 0 1-.477-.722h-.108V88zm2.37-4.364q0 .78.216 1.358.216.58.625.904.408.318.994.318.59 0 1-.324.41-.33.619-.909.216-.586.216-1.347 0-.755-.21-1.33-.21-.573-.619-.897t-1.006-.324q-.59 0-1 .313-.403.313-.619.886-.216.574-.216 1.352m14.842-1.875-2.216.137a1.15 1.15 0 0 0-.244-.512 1.3 1.3 0 0 0-.494-.369 1.7 1.7 0 0 0-.722-.142q-.562 0-.949.239-.386.232-.386.625 0 .312.25.528t.858.347l1.579.318q1.273.261 1.898.84.625.58.625 1.523 0 .858-.506 1.506-.5.649-1.375 1.011-.869.36-2.005.359-1.733 0-2.762-.722a2.8 2.8 0 0 1-1.198-1.977l2.38-.125q.108.528.523.806.415.273 1.062.273.638 0 1.023-.244.393-.25.398-.642a.67.67 0 0 0-.278-.54q-.274-.216-.841-.33l-1.512-.3q-1.278-.257-1.903-.887-.62-.63-.619-1.608 0-.84.454-1.449.46-.608 1.29-.937.835-.33 1.954-.33 1.654 0 2.603.699.954.699 1.113 1.903M236.402 88v-8.727h2.421V88zm1.216-9.852q-.54 0-.926-.358a1.16 1.16 0 0 1-.381-.87q0-.5.381-.858.387-.363.926-.363.54 0 .921.364.386.357.386.858 0 .505-.386.869a1.3 1.3 0 0 1-.921.358m7.61 1.125v1.818h-5.256v-1.818zm-4.063-2.091h2.421v8.136q0 .336.102.523a.56.56 0 0 0 .284.256q.188.074.432.074.17 0 .341-.029l.261-.051.381 1.801a7 7 0 0 1-.512.13 4 4 0 0 1-.801.097q-.874.034-1.534-.233a2.15 2.15 0 0 1-1.017-.83q-.363-.561-.358-1.42zm9.347 10.989q-1.347 0-2.318-.546a3.74 3.74 0 0 1-1.489-1.557q-.523-1.01-.523-2.392 0-1.347.523-2.364a3.87 3.87 0 0 1 1.472-1.585q.954-.568 2.238-.568.864 0 1.608.278.75.273 1.307.824.563.552.875 1.387.312.829.313 1.943v.665h-7.37v-1.5h5.091a1.86 1.86 0 0 0-.227-.927 1.63 1.63 0 0 0-.631-.63 1.8 1.8 0 0 0-.926-.233q-.55 0-.977.256-.42.25-.659.676-.239.42-.245.937v1.426q0 .648.239 1.12.244.47.688.727.442.255 1.051.256.403 0 .738-.114a1.48 1.48 0 0 0 .938-.898l2.238.148a3.05 3.05 0 0 1-.698 1.41q-.523.596-1.353.93-.823.33-1.903.33"/><path fill="#3E74FF" d="M837.117 78v-1.773l4.142-3.835q.528-.511.887-.92.363-.41.551-.801.187-.399.187-.859 0-.51-.233-.88a1.53 1.53 0 0 0-.636-.574 2 2 0 0 0-.915-.205q-.534 0-.932.216-.397.215-.613.62-.216.403-.216.96h-2.335q0-1.141.517-1.983.516-.84 1.448-1.301.933-.46 2.148-.46 1.25 0 2.176.443.932.437 1.449 1.216t.517 1.784q0 .66-.261 1.3-.257.643-.915 1.427-.659.778-1.858 1.87l-1.699 1.664v.08h4.887V78zm11.986.148q-.563 0-.966-.398a1.33 1.33 0 0 1-.398-.966q0-.557.398-.955.403-.397.966-.397.546 0 .955.397.409.399.409.955 0 .376-.194.688-.187.306-.494.494a1.3 1.3 0 0 1-.676.182m8.673-.148V66.364h2.46v4.8h4.994v-4.8h2.455V78h-2.455v-4.807h-4.994V78zm11.318-9.608v-2.028h9.557v2.028h-3.563V78h-2.431v-9.608zm10.512 0v-2.028h9.556v2.028H885.6V78h-2.432v-9.608zM890.56 78V66.364h4.591q1.325 0 2.256.505a3.4 3.4 0 0 1 1.42 1.392q.495.886.495 2.046 0 1.158-.5 2.045a3.46 3.46 0 0 1-1.449 1.381q-.943.495-2.284.494h-2.926v-1.971h2.528q.71 0 1.17-.245.466-.249.694-.687.233-.444.233-1.017 0-.58-.233-1.011a1.56 1.56 0 0 0-.694-.677q-.465-.244-1.181-.244h-1.66V78zm17.192 0v-8.727h2.347v1.523h.091q.239-.813.801-1.228.563-.42 1.295-.42a3.7 3.7 0 0 1 .762.085v2.148a3 3 0 0 0-.472-.091q-.3-.04-.551-.04-.534 0-.954.233a1.7 1.7 0 0 0-.66.636 1.84 1.84 0 0 0-.238.944V78zm9.942.17q-1.346 0-2.318-.545a3.74 3.74 0 0 1-1.489-1.557q-.522-1.01-.522-2.392 0-1.347.522-2.364a3.87 3.87 0 0 1 1.472-1.585q.955-.568 2.239-.568a4.6 4.6 0 0 1 1.608.278q.75.273 1.306.824.563.552.875 1.387.313.829.313 1.943v.665h-7.369v-1.5h5.091a1.85 1.85 0 0 0-.228-.927 1.6 1.6 0 0 0-.63-.63 1.8 1.8 0 0 0-.927-.233q-.55 0-.977.256-.42.25-.659.676-.238.42-.244.937v1.426q0 .648.238 1.12.244.47.688.727.443.255 1.051.256.403 0 .739-.114.334-.114.574-.34.238-.228.363-.558l2.239.148a3.06 3.06 0 0 1-.699 1.41q-.522.595-1.352.93-.824.33-1.904.33m11.177 3.103v-4.67h-.074a3.1 3.1 0 0 1-.483.72 2.4 2.4 0 0 1-.801.586q-.489.233-1.194.233-.994 0-1.801-.511-.801-.517-1.272-1.517-.466-1.006-.466-2.466 0-1.5.483-2.495.483-.999 1.284-1.494a3.3 3.3 0 0 1 1.767-.5q.733 0 1.221.25.495.244.796.614.307.363.466.716h.102v-1.466h2.386v12zm-1.785-5.057q.586 0 .989-.318.41-.324.625-.904.222-.58.222-1.358t-.216-1.352-.625-.886q-.409-.313-.995-.313-.596 0-1.005.324t-.62.898-.21 1.33q0 .76.21 1.346.216.58.62.909.41.324 1.005.324m11.563-1.932v-5.011h2.421V78h-2.324v-1.585h-.091a2.6 2.6 0 0 1-.983 1.233q-.683.466-1.665.466-.875 0-1.54-.398a2.73 2.73 0 0 1-1.039-1.13q-.37-.734-.375-1.757v-5.556h2.42v5.125q.006.772.415 1.221t1.096.45q.438 0 .819-.2.38-.204.613-.602.239-.398.233-.983m8.158 3.886q-1.347 0-2.318-.545A3.74 3.74 0 0 1 943 76.068q-.522-1.01-.523-2.392 0-1.347.523-2.364a3.87 3.87 0 0 1 1.472-1.585q.954-.568 2.238-.568.864 0 1.608.278.75.273 1.307.824.563.552.875 1.387.312.829.313 1.943v.665h-7.37v-1.5h5.091a1.86 1.86 0 0 0-.227-.927 1.63 1.63 0 0 0-.631-.63 1.8 1.8 0 0 0-.926-.233q-.55 0-.977.256-.42.25-.659.676-.239.42-.245.937v1.426q0 .648.239 1.12.244.47.688.727.442.255 1.051.256.403 0 .738-.114a1.5 1.5 0 0 0 .574-.34q.238-.228.364-.558l2.238.148a3.05 3.05 0 0 1-.698 1.41q-.524.595-1.353.93-.823.33-1.903.33m12.671-6.409-2.216.137q-.057-.284-.245-.512a1.3 1.3 0 0 0-.494-.369 1.7 1.7 0 0 0-.722-.142q-.562 0-.948.239-.387.232-.387.625 0 .312.25.528t.858.347l1.58.318q1.272.261 1.897.84.625.58.625 1.523 0 .858-.505 1.506-.5.649-1.375 1.011-.87.36-2.006.359-1.733 0-2.761-.722a2.8 2.8 0 0 1-1.199-1.977l2.38-.125q.108.528.523.806.415.273 1.063.273.636 0 1.022-.244.392-.25.398-.642a.67.67 0 0 0-.278-.54q-.273-.216-.841-.33l-1.512-.3q-1.278-.257-1.903-.887-.62-.63-.619-1.608 0-.84.454-1.449.46-.608 1.29-.937.835-.33 1.955-.33 1.653 0 2.602.699.954.699 1.114 1.903m6.189-2.488v1.818h-5.256v-1.818zm-4.063-2.091h2.421v8.136q0 .336.102.523a.56.56 0 0 0 .284.256q.188.074.432.074.17 0 .341-.029l.261-.051.381 1.801a7 7 0 0 1-.512.13 4 4 0 0 1-.801.097q-.875.034-1.534-.233a2.14 2.14 0 0 1-1.017-.83q-.363-.561-.358-1.42zm13.632 2.09v1.819h-5.255v-1.818zm-4.062-2.09h2.42v8.136q0 .336.103.523a.56.56 0 0 0 .284.256q.188.074.432.074.17 0 .34-.029l.262-.051.381 1.801a7 7 0 0 1-.512.13q-.33.08-.801.097-.875.034-1.534-.233a2.14 2.14 0 0 1-1.017-.83q-.364-.561-.358-1.42zm9.313 10.989q-1.324 0-2.29-.563a3.85 3.85 0 0 1-1.483-1.58q-.523-1.017-.523-2.358 0-1.352.523-2.363a3.8 3.8 0 0 1 1.483-1.58q.966-.568 2.29-.568t2.284.568q.966.563 1.488 1.58.523 1.011.523 2.364 0 1.34-.523 2.357a3.83 3.83 0 0 1-1.488 1.58q-.96.563-2.284.563m.011-1.876q.602 0 1.006-.34.403-.347.608-.944.21-.596.21-1.358 0-.76-.21-1.358-.205-.596-.608-.943-.404-.346-1.006-.346-.607 0-1.023.346-.41.347-.619.944-.205.596-.205 1.357t.205 1.358q.21.597.619.944.416.34 1.023.34M991.429 78l-2.375-8.727h2.448l1.353 5.863h.079l1.409-5.863h2.404l1.432 5.83h.073l1.33-5.83h2.448L999.656 78h-2.563l-1.5-5.489h-.108l-1.5 5.489zm15.471.17c-.9 0-1.67-.181-2.32-.545a3.77 3.77 0 0 1-1.49-1.557c-.35-.674-.52-1.471-.52-2.392 0-.898.17-1.686.52-2.364q.525-1.016 1.47-1.585c.64-.379 1.39-.568 2.24-.568.58 0 1.11.093 1.61.278.5.182.94.457 1.31.824q.555.552.87 1.387c.21.553.31 1.2.31 1.943v.665h-7.36v-1.5h5.09c0-.349-.08-.657-.23-.927a1.6 1.6 0 0 0-.63-.63 1.83 1.83 0 0 0-.93-.233c-.37 0-.69.085-.98.256-.28.166-.5.392-.65.676-.16.28-.24.593-.25.937v1.426q0 .648.24 1.12.24.47.69.727.435.255 1.05.256c.27 0 .51-.038.74-.114q.33-.114.57-.34.24-.228.36-.558l2.24.148a2.95 2.95 0 0 1-.7 1.41q-.51.595-1.35.93c-.55.22-1.18.33-1.9.33m5.45-.17V66.364h2.42v4.375h.08c.1-.235.26-.474.46-.716.2-.246.47-.451.79-.614q.495-.25 1.23-.25c.64 0 1.22.167 1.76.5q.81.495 1.29 1.494.48.995.48 2.495c0 .973-.15 1.795-.47 2.466-.31.666-.73 1.172-1.27 1.517-.53.34-1.13.511-1.79.511q-.705 0-1.2-.233a2.3 2.3 0 0 1-.8-.585q-.315-.359-.48-.722h-.11V78zm2.37-4.364c0 .52.07.972.22 1.358a2 2 0 0 0 .62.904c.28.212.61.318 1 .318s.73-.108 1-.324c.27-.22.48-.523.62-.909q.21-.586.21-1.347 0-.755-.21-1.33c-.14-.382-.34-.681-.62-.897-.27-.216-.6-.324-1-.324s-.73.104-1 .313c-.27.208-.48.504-.62.886-.15.383-.22.833-.22 1.352m14.85-1.875-2.22.137q-.06-.284-.24-.512a1.3 1.3 0 0 0-.5-.369 1.7 1.7 0 0 0-.72-.142c-.38 0-.69.08-.95.239q-.39.232-.39.625c0 .208.09.384.25.528.17.144.46.26.86.347l1.58.318c.85.174 1.48.454 1.9.84.42.387.62.895.62 1.523 0 .572-.16 1.074-.5 1.506q-.495.649-1.38 1.011c-.58.24-1.24.359-2 .359q-1.74 0-2.76-.722c-.69-.485-1.08-1.144-1.2-1.977l2.38-.125c.07.352.24.62.52.806.28.182.63.273 1.06.273s.77-.081 1.03-.244q.39-.25.39-.642 0-.33-.27-.54c-.19-.144-.47-.254-.85-.33l-1.51-.3c-.85-.171-1.48-.467-1.9-.887-.41-.42-.62-.957-.62-1.608 0-.56.15-1.044.46-1.449.3-.405.73-.718 1.28-.937.56-.22 1.21-.33 1.96-.33 1.1 0 1.97.233 2.6.699.64.466 1.01 1.1 1.12 1.903m1.54 6.239v-8.727h2.42V78zm1.22-9.852q-.54 0-.93-.358a1.174 1.174 0 0 1 0-1.728q.39-.363.93-.363c.36 0 .66.121.92.364q.39.357.39.858 0 .505-.39.869c-.26.238-.56.358-.92.358m7.61 1.125v1.818h-5.26v-1.818zm-4.06-2.091h2.42v8.136c0 .224.03.398.1.523.07.121.16.206.28.256.13.049.27.074.43.074.12 0 .23-.01.34-.029l.27-.051.38 1.801q-.18.057-.51.13-.33.08-.81.097-.87.034-1.53-.233a2.16 2.16 0 0 1-1.02-.83c-.24-.374-.36-.848-.35-1.42zm9.34 10.989c-.9 0-1.67-.182-2.32-.546a3.7 3.7 0 0 1-1.48-1.557c-.35-.674-.53-1.471-.53-2.392 0-.898.18-1.686.53-2.364q.51-1.016 1.47-1.585c.63-.379 1.38-.568 2.24-.568.57 0 1.11.093 1.6.278.5.182.94.457 1.31.824.38.368.67.83.88 1.387.2.553.31 1.2.31 1.943v.665h-7.37v-1.5h5.09c0-.349-.08-.657-.23-.927a1.6 1.6 0 0 0-.63-.63 1.77 1.77 0 0 0-.92-.233c-.37 0-.7.085-.98.256q-.42.25-.66.676c-.16.28-.24.593-.25.937v1.426q0 .648.24 1.12.255.47.69.727.45.255 1.05.256c.27 0 .52-.038.74-.114a1.5 1.5 0 0 0 .94-.898l2.24.148a3.14 3.14 0 0 1-.7 1.41q-.525.595-1.35.93c-.55.22-1.19.33-1.91.33m10.48-12.353-3.75 13.932h-2.09l3.75-13.932zm4.93 12.353c-.88 0-1.64-.188-2.29-.563a3.85 3.85 0 0 1-1.48-1.58c-.35-.678-.52-1.464-.52-2.358 0-.901.17-1.689.52-2.363.35-.678.84-1.205 1.48-1.58.65-.379 1.41-.568 2.29-.568.89 0 1.65.19 2.29.568a3.83 3.83 0 0 1 1.49 1.58c.34.674.52 1.462.52 2.364 0 .893-.18 1.68-.52 2.357a3.87 3.87 0 0 1-1.49 1.58c-.64.375-1.4.563-2.29.563m.01-1.876c.41 0 .74-.113 1.01-.34.27-.231.47-.546.61-.944q.21-.596.21-1.358 0-.76-.21-1.358c-.14-.397-.34-.712-.61-.943s-.6-.346-1.01-.346q-.6 0-1.02.346c-.27.231-.48.546-.62.944-.13.397-.2.85-.2 1.357 0 .508.07.96.2 1.358.14.398.35.713.62.944q.42.34 1.02.34m5.69 1.705v-8.727h2.34v1.523h.09c.16-.542.43-.951.8-1.228.38-.28.81-.42 1.3-.42a3.6 3.6 0 0 1 .76.085v2.148a3 3 0 0 0-.47-.091c-.2-.027-.38-.04-.55-.04q-.54 0-.96.233c-.27.151-.49.364-.65.636q-.24.409-.24.944V78zm6.37 0v-8.727h2.42V78zm1.21-9.852c-.36 0-.67-.12-.92-.358a1.14 1.14 0 0 1-.38-.87c0-.333.12-.619.38-.858.25-.242.56-.363.92-.363s.67.121.92.364q.39.357.39.858 0 .505-.39.869a1.3 1.3 0 0 1-.92.358m6.9 13.307q-1.17 0-2.01-.324c-.56-.212-1-.502-1.33-.87-.33-.367-.55-.78-.65-1.238l2.24-.301q.105.261.33.488c.14.152.34.273.58.364q.375.142.9.142c.53 0 .96-.129 1.3-.386.34-.254.52-.68.52-1.279v-1.597h-.11c-.1.243-.26.472-.47.688s-.49.392-.82.529c-.33.136-.73.204-1.19.204a3.55 3.55 0 0 1-1.79-.454c-.54-.307-.96-.775-1.28-1.404-.32-.632-.47-1.432-.47-2.398q0-1.482.48-2.477c.32-.663.75-1.159 1.28-1.489q.81-.494 1.77-.494.735 0 1.23.25c.33.163.59.367.79.614.21.242.37.48.47.716h.1v-1.466h2.4v8.812c0 .743-.18 1.364-.55 1.864-.36.5-.86.875-1.51 1.125-.64.254-1.37.38-2.21.38m.05-5.398q.585 0 .99-.29.405-.296.63-.84c.14-.368.22-.808.22-1.319s-.07-.955-.22-1.33a1.93 1.93 0 0 0-.62-.88 1.62 1.62 0 0 0-1-.313c-.39 0-.73.108-1 .324-.28.212-.48.508-.62.886q-.21.57-.21 1.313 0 .756.21 1.307c.14.363.35.646.62.846.27.197.61.296 1 .296m5.97 1.943v-8.727h2.42V78zm1.22-9.852q-.54 0-.93-.358a1.174 1.174 0 0 1 0-1.728q.39-.363.93-.363c.36 0 .66.121.92.364a1.174 1.174 0 0 1 0 1.727c-.26.238-.56.358-.92.358m5.38 4.807V78h-2.42v-8.727h2.31v1.54h.1c.2-.508.52-.91.97-1.205.46-.3 1.01-.449 1.66-.449.6 0 1.13.133 1.58.398q.675.398 1.05 1.136c.25.489.38 1.072.38 1.75V78h-2.42v-5.125c0-.534-.13-.95-.41-1.25q-.42-.454-1.14-.454-.495 0-.87.21c-.24.14-.44.344-.58.613q-.195.398-.21.96"/><path fill="#222" d="M1040.71 215.182q0 1.903-.72 3.238a4.97 4.97 0 0 1-1.95 2.04c-.82.466-1.75.699-2.77.699q-1.56 0-2.79-.704-1.23-.705-1.95-2.04c-.47-.89-.71-1.968-.71-3.233 0-1.269.24-2.349.71-3.239q.72-1.335 1.95-2.034 1.23-.704 2.79-.704c1.02 0 1.95.234 2.77.704a4.95 4.95 0 0 1 1.95 2.034q.72 1.335.72 3.239m-2.49 0c0-.822-.12-1.515-.37-2.08-.24-.564-.58-.992-1.03-1.284-.44-.291-.96-.437-1.55-.437q-.9 0-1.56.437c-.44.292-.79.72-1.03 1.284-.25.565-.37 1.258-.37 2.08s.12 1.515.37 2.079c.24.565.59.993 1.03 1.284q.66.438 1.56.438c.59 0 1.11-.146 1.55-.438.45-.291.79-.719 1.03-1.284.25-.564.37-1.257.37-2.079m4.1 5.818v-8.727h2.34v1.522h.09c.16-.541.43-.95.8-1.227.38-.28.81-.42 1.3-.42q.18 0 .39.022c.14.016.27.036.37.063v2.148a3 3 0 0 0-.47-.091c-.2-.027-.38-.04-.55-.04q-.54 0-.96.233-.405.227-.66.636c-.15.273-.23.587-.23.943V221zm6.37 0v-8.727h2.42V221zm1.21-9.852c-.36 0-.67-.12-.92-.358a1.14 1.14 0 0 1-.38-.87c0-.333.12-.619.38-.858.25-.242.56-.363.92-.363s.67.121.92.363q.39.358.39.858 0 .506-.39.87a1.3 1.3 0 0 1-.92.358m6.9 13.307c-.78 0-1.45-.108-2.02-.324-.55-.212-1-.502-1.32-.87-.33-.367-.55-.78-.65-1.238l2.24-.301q.105.261.33.488c.14.152.34.273.58.364q.375.142.9.142c.53 0 .96-.129 1.3-.386.34-.254.52-.68.52-1.279v-1.596h-.11c-.1.242-.26.471-.47.687s-.49.392-.82.528c-.33.137-.73.205-1.19.205a3.55 3.55 0 0 1-1.79-.455c-.54-.306-.96-.774-1.28-1.403-.32-.633-.47-1.432-.47-2.398q0-1.482.48-2.477c.32-.663.75-1.159 1.28-1.489a3.34 3.34 0 0 1 1.77-.494q.735 0 1.23.25c.33.163.59.368.79.614.21.242.36.481.47.716h.1v-1.466h2.4v8.812c0 .743-.18 1.364-.55 1.864-.36.5-.86.875-1.51 1.125-.64.254-1.37.381-2.21.381m.05-5.398q.585 0 .99-.29.405-.295.63-.841c.14-.367.22-.807.22-1.318s-.07-.955-.22-1.33a1.93 1.93 0 0 0-.62-.88 1.62 1.62 0 0 0-1-.313c-.39 0-.73.108-1 .324-.28.212-.48.508-.62.886a3.8 3.8 0 0 0-.21 1.313q0 .755.21 1.307c.14.363.35.646.62.846.27.197.61.296 1 .296m5.97 1.943v-8.727h2.42V221zm1.22-9.852q-.54 0-.93-.358a1.175 1.175 0 0 1 0-1.728q.39-.363.93-.363c.35 0 .66.121.92.363a1.175 1.175 0 0 1 0 1.728c-.26.238-.57.358-.92.358m5.38 4.807V221H1067v-8.727h2.31v1.539h.1c.19-.507.52-.909.97-1.204.46-.299 1.01-.449 1.66-.449.6 0 1.13.133 1.58.398q.675.398 1.05 1.136c.25.489.38 1.072.38 1.75V221h-2.42v-5.125c0-.534-.14-.951-.41-1.25q-.42-.455-1.14-.455-.495 0-.87.211c-.24.14-.44.344-.58.613q-.195.398-.21.961"/><path fill="#0055DC" d="M1008.51 234.198H1005v18.05h3.51zm91.49 0h-3.51v18.05h3.51z"/><path fill="#fff" stroke="#0055DC" stroke-miterlimit="10" stroke-width="1.5" d="M1013.31 255.464v3.426l78.38-.004v-3.426z"/><path fill="#C5EBF5" stroke="#0055DC" stroke-miterlimit="10" stroke-width="1.5" d="M1096.49 231h-87.98v24.462h87.98z"/><path fill="#fff" d="M1092.69 252.012v-17.564h-80.38v17.564z"/><path fill="#0055DC" d="M1018.83 239.408h-1.95v1.902h1.95zm0 5.725h-1.95v1.903h1.95zm2.67-3.016h-1.95v1.902h1.95zm2.37-2.709h-1.95v1.902h1.95zm0 5.725h-1.95v1.903h1.95zm2.52-3.016h-1.95v1.902h1.95zm2.98-2.709h-1.95v1.902h1.95zm0 5.725h-1.95v1.903h1.95zm2.52-3.016h-1.95v1.902h1.95zm3.06-2.709h-1.94v1.902h1.94zm0 5.725h-1.94v1.903h1.94zm2.37-3.016h-1.94v1.902h1.94zm2.67-2.709h-1.95v1.902h1.95zm0 5.725h-1.95v1.903h1.95zm2.22-3.016h-1.94v1.902h1.94zm2.82-2.709h-1.95v1.902h1.95zm0 5.725h-1.95v1.903h1.95zm2.07-3.016h-1.94v1.902h1.94zm39.21 3.475c1.33 0 2.41-1.057 2.41-2.361s-1.08-2.362-2.41-2.362c-1.34 0-2.42 1.058-2.42 2.362s1.08 2.361 2.42 2.361"/><path stroke="#0055DC" stroke-miterlimit="10" stroke-width="1.5" d="M1079.35 243.231h-25.6"/></svg>