<svg xmlns="http://www.w3.org/2000/svg" viewBox="0 0 16 16"><path d="M7.4924.253c-.0333.0031-.1394.0137-.2348.0212a7.7684,7.7684,0,0,0-5.57,3.2122A7.6721,7.6721,0,0,0,.32,6.8727,5.9346,5.9346,0,0,0,.25,8.0015,5.9346,5.9346,0,0,0,.32,9.13a7.7821,7.7821,0,0,0,5.3015,6.2621,8.19,8.19,0,0,0,1.6364.3394,14.2515,14.2515,0,0,0,1.4848,0,7.8239,7.8239,0,0,0,2.7924-.8166c.1334-.0682.1591-.0864.141-.1016-.0122-.0091-.58-.7712-1.2622-1.6924L9.1742,11.447,7.6212,9.1485c-.8545-1.2636-1.5576-2.297-1.5636-2.297-.0061-.0015-.0121,1.02-.0152,2.2667a17.7763,17.7763,0,0,1-.0333,2.3227.2752.2752,0,0,1-.1333.1379c-.0485.0242-.091.0288-.32.0288H5.2939l-.07-.044a.2832.2832,0,0,1-.1015-.1106l-.0318-.0681.003-3.0379.0046-3.0394.047-.0591a.4146.4146,0,0,1,.1121-.0924c.0621-.03.0863-.0334.3485-.0334.3091,0,.3606.0121.4409.1.0227.0243.8636,1.2909,1.87,2.8167s2.3818,3.6091,3.0575,4.6318L12.2015,14.53l.0621-.0409a7.9572,7.9572,0,0,0,1.5925-1.397A7.7153,7.7153,0,0,0,15.68,9.13a5.9346,5.9346,0,0,0,.07-1.1288,5.9346,5.9346,0,0,0-.07-1.1288A7.7822,7.7822,0,0,0,10.3788.6106,8.14,8.14,0,0,0,8.7652.2727C8.62.2576,7.6182.2409,7.4924.253Zm3.1728,4.6879a.3059.3059,0,0,1,.153.1788c.0121.0394.0151.8818.0121,2.78l-.0045,2.7242-.48-.7363-.4819-.7364v-1.98c0-1.28.0061-2,.0152-2.0348a.3089.3089,0,0,1,.15-.1909c.0621-.0319.0848-.0349.3227-.0349.2243,0,.2637.003.3137.03Z"/></svg>