<svg xmlns="http://www.w3.org/2000/svg" xmlns:xlink="http://www.w3.org/1999/xlink" viewBox="0 0 16 16"><defs><style>.a,.b,.c,.d,.e,.f,.g{fill-rule:evenodd;}.a{fill:url(#a);}.b{fill:url(#b);}.c{fill:url(#c);}.d{fill:url(#d);}.e{fill:url(#e);}.f{fill:url(#f);}.g{fill:#bcc0cf;}.h{fill:#a2a6b3;}.i{fill:url(#g);}.j{fill:url(#h);}</style><linearGradient id="a" x1="7.1568" y1="-141.75" x2="7.1568" y2="-128.8779" gradientTransform="matrix(1, 0, 0, -1, 0, -126)" gradientUnits="userSpaceOnUse"><stop offset="0" stop-color="#1d2130"/><stop offset="1" stop-color="#3e445a"/></linearGradient><linearGradient id="b" x1="7.2073" y1="-141.6418" x2="7.2073" y2="-128.7697" gradientTransform="matrix(1, 0, 0, -1, 0, -126)" gradientUnits="userSpaceOnUse"><stop offset="0" stop-color="#262b3f"/><stop offset="1" stop-color="#656e91"/></linearGradient><linearGradient id="c" x1="7.9747" y1="-140.1465" x2="7.9747" y2="-127.5889" gradientTransform="matrix(1, 0, 0, -1, 0, -126)" gradientUnits="userSpaceOnUse"><stop offset="0" stop-color="#267550"/><stop offset="1" stop-color="#79b881"/></linearGradient><linearGradient id="d" x1="8.0251" y1="-140.0384" x2="8.0251" y2="-127.4808" gradientTransform="matrix(1, 0, 0, -1, 0, -126)" gradientUnits="userSpaceOnUse"><stop offset="0" stop-color="#279264"/><stop offset="1" stop-color="#a4f3aa"/></linearGradient><linearGradient id="e" x1="8.8234" y1="-138.6378" x2="8.8234" y2="-126.3581" gradientTransform="matrix(1, 0, 0, -1, 0, -126)" gradientUnits="userSpaceOnUse"><stop offset="0.59" stop-color="#cecfd0"/><stop offset="1" stop-color="#dfdfdf"/></linearGradient><linearGradient id="f" x1="8.8738" y1="-138.5297" x2="8.8738" y2="-126.25" gradientTransform="matrix(1, 0, 0, -1, 0, -126)" gradientUnits="userSpaceOnUse"><stop offset="0" stop-color="#eaeef0"/><stop offset="0.41" stop-color="#fff"/></linearGradient><linearGradient id="g" x1="6.4649" y1="-124.4236" x2="11.6466" y2="-141.3721" gradientTransform="matrix(1, 0, 0, -1, 0, -126)" gradientUnits="userSpaceOnUse"><stop offset="0.22" stop-color="#73cb8d"/><stop offset="0.4" stop-color="#2f9869"/></linearGradient><linearGradient id="h" x1="5.8022" y1="-122.8994" x2="13.9147" y2="-146.4599" gradientTransform="matrix(1, 0, 0, -1, 0, -126)" gradientUnits="userSpaceOnUse"><stop offset="0.25" stop-color="#586080"/><stop offset="0.35" stop-color="#2c3247"/></linearGradient></defs><path class="a" d="M1.3643,4.0809l8.071-1.1981a.471.471,0,0,1,.5066.2925l3.339,10.0617a.4034.4034,0,0,1-.2854.5422l-9.0383,1.96a.4975.4975,0,0,1-.59-.3808L1.0156,4.52A.38.38,0,0,1,1.3643,4.0809Z"/><path class="b" d="M1.4148,3.9726l8.071-1.1981a.4711.4711,0,0,1,.5066.2925l3.339,10.0618a.4032.4032,0,0,1-.2855.5421l-9.0382,1.96a.4975.4975,0,0,1-.59-.3808L1.066,4.4115A.38.38,0,0,1,1.4148,3.9726Z"/><path class="c" d="M2.18,2.7684l8.0122-1.1748a.4778.4778,0,0,1,.509.2945l3.3862,9.8854a.3831.3831,0,0,1-.2757.52L5.0393,14.1361a.4989.4989,0,0,1-.5828-.3647L1.8467,3.2046A.3647.3647,0,0,1,2.18,2.7684Z"/><path class="d" d="M2.2306,2.66l8.0122-1.1748a.4776.4776,0,0,1,.5089.2945l3.3862,9.8854a.3831.3831,0,0,1-.2756.52L5.09,14.028a.4991.4991,0,0,1-.5829-.3647L1.8972,3.0965A.3644.3644,0,0,1,2.2306,2.66Z"/><path class="e" d="M3.041,1.5,10.9845.3625a.4812.4812,0,0,1,.5083.2922l3.4233,9.703a.3694.3694,0,0,1-.2691.5055L6.0113,12.628a.5.5,0,0,1-.5787-.3561L2.7163,1.9286A.3527.3527,0,0,1,3.041,1.5Z"/><path class="f" d="M3.0914,1.3917,11.0349.2544a.4812.4812,0,0,1,.5083.2922L14.9664,10.25a.3694.3694,0,0,1-.2691.5056L6.0616,12.52a.5.5,0,0,1-.5786-.3561L2.7666,1.8206A.353.353,0,0,1,3.0914,1.3917Z"/><path class="g" d="M7.3806,7.78l3.5-.6486a.1.1,0,0,1,.1137.0684l.5874,1.8668a.1.1,0,0,1-.0763.1283l-3.55.6911A.1.1,0,0,1,7.84,9.8148L7.3025,7.9053A.1.1,0,0,1,7.3806,7.78Zm-.3022.1661.5287,1.925a.2963.2963,0,0,0,.3421.2123l3.5924-.6984a.2961.2961,0,0,0,.2255-.3809L11.1741,7.15a.296.296,0,0,0-.3339-.2014L7.312,7.576A.2963.2963,0,0,0,7.0784,7.946Zm.6981.1568.37,1.2984.3975-.09-.2125-.7476.5426.4249.264-.5981.2163.7594L9.74,9.0668,9.366,7.8117l-.4092.0708-.2479.5507L8.1738,8.028Zm2.8794.1746-.1981-.666-.4117.0705.2088.6719-.37.0716.76.5072.3855-.728Z"/><path class="h" d="M11.5725,9.1462l-.0418.0871-.0131.0275a.0972.0972,0,0,1-.0633.0418L7.905,9.9948a.1011.1011,0,0,1-.1157-.0716L7.2522,8.0137a.0983.0983,0,0,1,.0048-.0669L7.2606,7.94l.0035-.0072.0406-.0871a.0931.0931,0,0,0-.0024.06l.0144.0514.5227,1.8582a.1012.1012,0,0,0,.1158.0716l3.5481-.691h.0012A.0985.0985,0,0,0,11.5725,9.1462Zm.1492.1241a.2886.2886,0,0,0-.0048-.1587l-.5932-1.8534a.2976.2976,0,0,0-.3341-.2017l-3.5278.6277a.2825.2825,0,0,0-.185.1158.2905.2905,0,0,1,.2351-.2243l3.529-.6266a.2944.2944,0,0,1,.333.2005l.5931,1.8546A.2881.2881,0,0,1,11.7217,9.27Zm-.691-1.0657-.0585.11-.3664.0716-.1981-.666-.3318.0573-.03-.0954.4117-.07.1981.666Zm-.8545.1647.0787-.0155-.05.1086L10,8.5018,9.885,8.4254ZM8.707,8.4326l-.0489.1086-.5347-.4046-.321.06-.0263-.0931.3975-.0751Zm1.0324.6337-.0776.0167L9.3157,7.9194l-.4082.0716.049-.1086.4093-.07ZM8.3848,8.7524l-.0537-.19-.05.1087.1875.6563.0751-.0167Z"/><path class="i" d="M6.2844,2.8544l-1.0312.1432L8.92,6.4061,10.237,2.2242l-.9738.1719L8.49,4.8594Z"/><path class="j" d="M6.2843,2.8544,7.23,2.7111l.8306.7448.3151-.9166.8879-.1432L8.49,4.8594Z"/></svg>