<svg xmlns="http://www.w3.org/2000/svg" viewBox="0 0 16 16">
  <rect x="0.25" y="0.25" width="15.5" height="15.5" style="fill: #389ed8"/>
  <g>
    <polygon points="1.438 11.959 1.438 4.565 2.524 4.565 5.12 10.782 7.677 4.565 8.774 4.565 8.774 11.959 7.93 11.959 7.93 6.213 5.54 11.959 4.738 11.959 2.334 6.213 2.334 11.959 1.438 11.959" style="fill: #3598d4"/>
    <polygon points="12.175 8.931 14.501 6.62 13.398 6.62 11.029 8.964 11.029 4.565 10.14 4.565 10.14 11.959 11.029 11.959 11.029 9.97 11.53 9.497 13.499 11.959 14.562 11.959 12.175 8.931" style="fill: #3598d4"/>
    <polygon points="1.438 11.435 1.438 4.041 2.524 4.041 5.12 10.258 7.677 4.041 8.774 4.041 8.774 11.435 7.93 11.435 7.93 5.688 5.54 11.435 4.738 11.435 2.334 5.688 2.334 11.435 1.438 11.435" style="fill: #fff"/>
    <polygon points="12.175 8.406 14.501 6.095 13.398 6.095 11.029 8.44 11.029 4.041 10.14 4.041 10.14 11.435 11.029 11.435 11.029 9.445 11.53 8.972 13.499 11.435 14.562 11.435 12.175 8.406" style="fill: #fff"/>
  </g>
</svg>
