<svg xmlns="http://www.w3.org/2000/svg" viewBox="0 0 16 16"><defs><style>.a{fill:#00c58e;}.b{fill:#2f495e;}.c{fill:#108775;}</style></defs><path class="a" d="M9.099,5.3526l-.5315.9358L6.75,3.0873,1.17,12.9127H4.948a.9282.9282,0,0,0,.92.9358H1.17a.9175.9175,0,0,1-.7968-.468.9493.9493,0,0,1,0-.9357l5.58-9.8254a.9127.9127,0,0,1,1.594,0Z"/><path class="b" d="M13.1269,12.4448,9.6305,6.2884,9.099,5.3526l-.5315.9358-3.496,6.1564a.95.95,0,0,0,0,.9357.9177.9177,0,0,0,.7969.468h6.4606a.9179.9179,0,0,0,.7972-.4678.9494.9494,0,0,0,0-.9359Zm-7.2586.4679L9.099,7.2241l3.23,5.6886Z"/><path class="c" d="M15.6267,13.3806a.9175.9175,0,0,1-.7968.4679h-2.501a.9281.9281,0,0,0,.92-.9358h1.5787l-4.48-7.8888L9.6305,6.2884,9.099,5.3526l.4525-.7965a.9127.9127,0,0,1,1.5941,0l4.4811,7.8887A.9494.9494,0,0,1,15.6267,13.3806Z"/></svg>