<svg xmlns="http://www.w3.org/2000/svg" xmlns:xlink="http://www.w3.org/1999/xlink" viewBox="0 0 16 16"><defs><style>.a{fill:url(#a);}.b{fill:url(#b);}.c{fill:url(#c);}.d{fill:#50dad4;}.e{fill:url(#d);}</style><linearGradient id="a" x1="0.8364" y1="10" x2="15.1636" y2="10" gradientTransform="matrix(1, 0, 0, -1, 0, 18)" gradientUnits="userSpaceOnUse"><stop offset="0" stop-color="#00cfce"/><stop offset="1" stop-color="#00c0de"/></linearGradient><linearGradient id="b" x1="1.8556" y1="13.8717" x2="7.2214" y2="13.8717" gradientTransform="matrix(1, 0, 0, -1, 0, 18)" gradientUnits="userSpaceOnUse"><stop offset="0" stop-color="#00cfce"/><stop offset="1" stop-color="#00c8d4"/></linearGradient><linearGradient id="c" x1="2.7951" y1="12.2217" x2="6.5469" y2="12.2217" xlink:href="#b"/><linearGradient id="d" x1="0.8364" y1="5.3436" x2="8.3071" y2="5.3436" gradientTransform="matrix(1, 0, 0, -1, 0, 18)" gradientUnits="userSpaceOnUse"><stop offset="0" stop-color="#00a2ce"/><stop offset="1" stop-color="#00a4ce"/></linearGradient></defs><path class="a" d="M14.1469,1.623C12.8882.3644,10.5878.25,9.5459.25H.8439V.26A4.8044,4.8044,0,0,0,2.0664,1.6171,6.3815,6.3815,0,0,0,5.1739,2.49c.3167.0166.5708.036.784.0663a1.81,1.81,0,0,1,1.0708.47,4.5057,4.5057,0,0,1,.97,1.12c.2409.4215.1987.8913.7588,1.1864s.6926.006.7709-.1566-.2048-.2951-.4517-.4818a1.4584,1.4584,0,0,1-.4818-.6865c-.07-.173-.1565-.4276-.1565-.4276s.5734-.1043.9394-.1565a2.4478,2.4478,0,0,1,1.4754.2107,3.515,3.515,0,0,0,1.355.8492,2.3531,2.3531,0,0,1,1.1984.53.9057.9057,0,0,1,.265.4457s-.5476-.0551-.8792-.0723a14.2775,14.2775,0,0,1-1.4635-.1506c-.5673-.1076-.7407-.1445-.7407-.1445a1.3791,1.3791,0,0,1-.1566,1.2527,2.6341,2.6341,0,0,1-2.0475.9815c-.795.0241-1.5417-.3914-2.1259-.3432s-1.2225-.241-1.8849,1.3248A30.4043,30.4043,0,0,0,3.3474,11.55c-.1515.54-.2906,1.0248-.4145,1.3773l-.0009.0093a.2981.2981,0,0,1-.0224.092q-.0467.1023-.0943.2015l-.0009.002c-.02.0452-.04.0855-.0586.12h0A5.4548,5.4548,0,0,1,1.404,15.2452c-.4215.289-.8371.4456-.3432.4877a20.2776,20.2776,0,0,0,3.6133-.1746,3.2512,3.2512,0,0,0,1.8366-1.56,19.2329,19.2329,0,0,0,1.066-2.987,4.8122,4.8122,0,0,1,.563-1.219L8.3114,9.56l-.0043.0025L8.31,9.5586c.1773-.1676.278-.2694.278-.2694.1867-.1084,1.8067-.3553,2.5775-.5781A6.7684,6.7684,0,0,0,14.37,6.8262,4.2087,4.2087,0,0,0,14.1469,1.623Z"/><path class="b" d="M7.2214,5.3929A2.1264,2.1264,0,0,0,5.8543,3.9837C4.662,3.4959,4.18,3.803,3.06,3.3815a5.5546,5.5546,0,0,1-1.2045-.5179s.03.059.09.1554A3.6025,3.6025,0,0,0,3.59,4.4294a4.0572,4.0572,0,0,0,1.66.3013,3.6994,3.6994,0,0,1,.8876.1383C7.0533,5.126,7.2214,5.3929,7.2214,5.3929Z"/><path class="c" d="M4.3006,5.5735a2.4431,2.4431,0,0,1-1.5055-.5841,1.1771,1.1771,0,0,0,.0458.1614,1.797,1.797,0,0,0,1.08,1.0973,3.798,3.798,0,0,0,1.8264.0773,1.1535,1.1535,0,0,1,.1188.013c.5541.09.6805.2289.6805.2289s-.1867-.7167-.7406-.8552A6.4266,6.4266,0,0,0,4.3006,5.5735Z"/><path class="d" d="M2.9319,12.9371A13.1165,13.1165,0,0,0,5.77,11.6018,19.3893,19.3893,0,0,0,8.3042,9.5645,20.5644,20.5644,0,0,1,5.228,11.0839a18.029,18.029,0,0,1-1.8806.4665c-.1515.54-.2906,1.0249-.4146,1.3773Z"/><path class="e" d="M8.3042,9.5645A19.3893,19.3893,0,0,1,5.77,11.6018a13.1165,13.1165,0,0,1-2.8381,1.3353.2947.2947,0,0,1-.0224.0919q-.0465.1023-.0942.2015l-.001.0021c-.02.0451-.04.0854-.0586.12h0A5.4558,5.4558,0,0,1,1.404,15.2452c-.4216.289-.8371.4456-.3433.4878a20.287,20.287,0,0,0,3.6133-.1747,3.2519,3.2519,0,0,0,1.8368-1.56,19.2391,19.2391,0,0,0,1.0659-2.987A4.809,4.809,0,0,1,8.14,9.7926c.058-.0876.1144-.1642.1673-.23Z"/><path class="d" d="M.8439.25V.26A4.8027,4.8027,0,0,0,2.0664,1.617,6.3814,6.3814,0,0,0,5.1739,2.49c.3167.0165.5708.036.7841.0662A21.93,21.93,0,0,1,3.4334,1.84,10.33,10.33,0,0,1,.8439.25Z"/><path class="d" d="M2.8409,5.1508a1.7968,1.7968,0,0,0,1.08,1.0973,3.8,3.8,0,0,0,1.8264.0774c-.1739-.0647-.39-.1335-.6581-.2039A10.31,10.31,0,0,1,2.8409,5.1508Z"/><path class="d" d="M1.9457,3.019A3.6037,3.6037,0,0,0,3.59,4.4294a4.0572,4.0572,0,0,0,1.66.3013c-.3625-.1476-.784-.3156-1.178-.4639A11.7018,11.7018,0,0,1,1.9457,3.019Z"/></svg>