<svg xmlns="http://www.w3.org/2000/svg" xmlns:xlink="http://www.w3.org/1999/xlink" viewBox="0 0 16 16"><defs><style>.a,.e{opacity:0.3;}.a,.e,.f{isolation:isolate;}.b{fill:url(#a);}.c{fill:url(#b);}.d{fill:#333;}.e,.f{fill:#fff;}.f{opacity:0.5;}</style><linearGradient id="a" x1="133.6891" y1="120.6451" x2="136.5876" y2="117.7466" gradientTransform="matrix(0.9138, -0.4062, -0.4062, -0.9138, -67.4479, 171.8902)" gradientUnits="userSpaceOnUse"><stop offset="0" stop-color="#919191"/><stop offset="1" stop-color="#fff"/></linearGradient><linearGradient id="b" x1="132.5992" y1="118.434" x2="134.354" y2="116.6792" gradientTransform="matrix(0.9138, -0.4062, -0.4062, -0.9138, -67.4479, 171.8902)" gradientUnits="userSpaceOnUse"><stop offset="0" stop-color="#900"/><stop offset="1" stop-color="#e80000"/></linearGradient></defs><path class="a" d="M8.4922.5582A.21.21,0,0,0,8.491.6476a2.5368,2.5368,0,0,1-.0128.9091L3.9036,13.4513l0,0a1.7022,1.7022,0,0,0,3.1773,1.222h0L11.6562,2.779a3.0934,3.0934,0,0,1,.6-.6835.2082.2082,0,0,0,.0589-.0672l.0023-.0046.0073-.015c.1179-.3067-.6429-.8848-1.6994-1.2911S8.6162.2305,8.4982.5373L8.4936.5532Z"/><path class="b" d="M8.36.4571a.2064.2064,0,0,0-.0012.0894,2.5351,2.5351,0,0,1-.0129.9091L3.7713,13.35l0,0A1.7022,1.7022,0,0,0,6.949,14.5723l0,0L11.524,2.6778a3.0923,3.0923,0,0,1,.6-.6834.2075.2075,0,0,0,.0589-.0673l.0022-.0046.0073-.0149c.118-.3067-.6428-.8848-1.6993-1.2911S8.484.1294,8.366.4361l-.0046.016Z"/><path class="c" d="M9.795,5.8381,6.4961,14.4159l.0021.0007a1.2324,1.2324,0,0,1-1.5795.6931,1.26,1.26,0,0,1-.7368-1.5839h0L6.29,8.0448a2.4329,2.4329,0,0,1,.78-.7268,13.6137,13.6137,0,0,1,1.5172-.4935A4.5186,4.5186,0,0,0,9.795,5.8381Z"/><ellipse class="d" cx="10.2677" cy="1.2033" rx="0.3346" ry="1.2721" transform="matrix(0.359, -0.9333, 0.9333, 0.359, 5.4587, 10.3546)"/><path class="e" d="M8.3587.5464a2.5739,2.5739,0,0,1-.0128.9092L3.7713,13.35l0,0A1.7022,1.7022,0,0,0,5.215,15.6417a1.7029,1.7029,0,0,1-.5706-1.9557h0L9.1278,2.0272A2.8941,2.8941,0,0,1,8.3587.5464Z"/><circle class="f" cx="6.8859" cy="8.2195" r="0.1325"/><circle class="f" cx="7.7548" cy="9.1805" r="0.1998"/><circle class="f" cx="6.4284" cy="10.3234" r="0.3748"/><circle class="f" cx="5.8215" cy="11.0166" r="0.1998"/><circle class="f" cx="6.6175" cy="12.4991" r="0.1325"/></svg>