<svg xmlns="http://www.w3.org/2000/svg" xmlns:xlink="http://www.w3.org/1999/xlink" viewBox="0 0 16 16"><defs><style>.a{fill:url(#a);}.b,.c{fill:#00a672;}.c{fill-rule:evenodd;}</style><linearGradient id="a" x1="8.0005" y1="83.4109" x2="8.0005" y2="74.261" gradientTransform="matrix(1, 0, 0, -1, 0, 90)" gradientUnits="userSpaceOnUse"><stop offset="0" stop-color="#00583e"/><stop offset="1" stop-color="#00835c"/></linearGradient></defs><path class="a" d="M14.2639,6.6659a1.4226,1.4226,0,0,1,1.47,1.2886c.2788,3.61-3.0246,7.6531-7.68,7.7824A7.6912,7.6912,0,0,1,.2511,7.9442a1.3581,1.3581,0,0,1,2.7161,0,4.975,4.975,0,0,0,5.02,5.0833,5.08,5.08,0,0,0,4.9914-4.9431A1.3537,1.3537,0,0,1,14.2639,6.6659Z"/><path class="b" d="M10.888,8.0493A1.3917,1.3917,0,0,1,12.284,6.662h2.0343a1.3876,1.3876,0,1,1,0,2.7747H12.284A1.3917,1.3917,0,0,1,10.888,8.0493Z"/><path class="b" d="M6.62,8.0513A1.3862,1.3862,0,1,1,8.0057,9.4407,1.388,1.388,0,0,1,6.62,8.0513Z"/><path class="c" d="M9.3535,1.56A1.3536,1.3536,0,0,1,8.0594,2.97,5.0766,5.0766,0,0,0,2.9709,8.0364a1.3437,1.3437,0,0,1-1.2842,1.408A1.3947,1.3947,0,0,1,.2554,8.123,7.7683,7.7683,0,0,1,7.9473.2621,1.3529,1.3529,0,0,1,9.3535,1.56Z"/></svg>