<svg xmlns="http://www.w3.org/2000/svg" viewBox="0 0 16 16"><defs><style>.a{fill:#40894b;}</style></defs><path class="a" d="M11.6234,12.2808a1.548,1.548,0,0,1,.4462-1.358,2.4353,2.4353,0,0,0,.97-1.7557,4.2007,4.2007,0,0,0-.7372-2.91,1.4107,1.4107,0,0,0-.34-.3395.7956.7956,0,0,0-1.0574,0,2.2034,2.2034,0,0,0-.6887.97,3.9484,3.9484,0,0,0-.2231,2.91,2.1731,2.1731,0,0,0,.6693.97l.1164.1067a1.1444,1.1444,0,0,1,.4365.97v.7178a.2129.2129,0,0,1-.0679.1649l-2.91,2.91h0v-.8245c0-.63.0582-1.261.0776-1.94a1.1642,1.1642,0,0,1,.5141-.97.5044.5044,0,0,0,.2425-.4656V7.877a18.3414,18.3414,0,0,0-.2716-3.0944,3.57,3.57,0,0,0-.5432-1.3.9691.9691,0,0,0-.31-.3007.31.31,0,0,0-.43.088.3155.3155,0,0,0-.0259.0478.97.97,0,0,0-.097.4656v7.0811A14.4149,14.4149,0,0,0,7.53,12.9113a16.8237,16.8237,0,0,1,0,2.522h0a.3793.3793,0,0,0-.0582-.1067l-1.94-1.94a.32.32,0,0,1-.097-.2425V11.7764a1.0574,1.0574,0,0,1,.31-.6984,2.4442,2.4442,0,0,0,.7663-2.0467,16.8749,16.8749,0,0,0-.2037-2.5124,5.02,5.02,0,0,0-.1746-.8439A.3785.3785,0,0,0,6.0555,5.5a2.5433,2.5433,0,0,0-.097.5723V8.2844a4.7164,4.7164,0,0,1,0,.64,1.2524,1.2524,0,0,1-.0776.2716.2134.2134,0,0,1-.194.1358c-.0873,0-.1164-.0776-.1455-.1455a2.7545,2.7545,0,0,1-.1455-.8439c-.0582-.7663,0-1.5423-.1261-2.3087a2.3006,2.3006,0,0,0-.097-.5432,1.8319,1.8319,0,0,0-.0873.485c0,.6887-.0679,1.3775-.097,2.0662A4.5209,4.5209,0,0,1,4.8624,9.07c0,.1261-.0582.2813-.2231.2813s-.2037-.1649-.2328-.291a4.1414,4.1414,0,0,1-.0873-1.0476V5.5489a.66.66,0,0,0-.1067.34,22.7513,22.7513,0,0,0-.4462,3.2884,2.3086,2.3086,0,0,0,.7372,1.94,1.1156,1.1156,0,0,1,.34.7372v.97c-.0582,0-.0776,0-.1067-.0679L.2937,8.2262c-.0583-.0776-.0583-.1164,0-.2134L7.8985.4176c.097-.0679.097-.0776.194,0l7.5952,7.5952c.0679.0679.097.1067,0,.194l-4.0061,4.0255Z"/></svg>