<svg xmlns="http://www.w3.org/2000/svg" viewBox="0 0 16 16">
  <path d="M15.17946,3.56207a1.38851,1.38851,0,0,1-.04807.54473l-2.87584,9.48467a.67921.67921,0,0,1-.33645.40053,1.11294,1.11294,0,0,1-.53671.15221H2.51454c-.769,0-1.22564-.2243-1.38585-.6729a.44064.44064,0,0,1,.008-.41656.42835.42835,0,0,1,.36849-.14419H9.85234a1.79293,1.79293,0,0,0,1.23365-.32844,3.7892,3.7892,0,0,0,.68892-1.474l2.63552-8.69962a1.36386,1.36386,0,0,0-.17623-1.24967A1.27224,1.27224,0,0,0,13.13673.61413H5.823a2.88126,2.88126,0,0,0-.48865.08812l.008-.032A1.63909,1.63909,0,0,0,4.88571.62214a.65268.65268,0,0,0-.34446.11215,1.19614,1.19614,0,0,0-.25634.2243,1.68793,1.68793,0,0,0-.18425.30441c-.06409.12817-.11215.24032-.1522.34446s-.08812.21629-.1442.33645a1.97839,1.97839,0,0,1-.16021.2964c-.04.04806-.09613.12016-.16021.20026s-.12818.16022-.17624.2243a.51743.51743,0,0,0-.08812.17624.59254.59254,0,0,0,.016.25634,1.21866,1.21866,0,0,1,.032.24833,3.57326,3.57326,0,0,1-.26436.92924,3.87124,3.87124,0,0,1-.40854.80908c-.024.032-.09613.10414-.20828.21629a.746.746,0,0,0-.20828.2964c-.024.032-.024.12016-.008.27236a1.1869,1.1869,0,0,1,.024.30441,3.80526,3.80526,0,0,1-.24032.86516,6.3131,6.3131,0,0,1-.40053.88117,1.40107,1.40107,0,0,1-.16022.2243.78132.78132,0,0,0-.16021.27237.79874.79874,0,0,0,.008.27236.654.654,0,0,1-.008.28839,4.81769,4.81769,0,0,1-.28839.88117,7.55743,7.55743,0,0,1-.43257.88118,2.07215,2.07215,0,0,1-.16022.2243c-.06408.08812-.12016.16021-.16021.2243a.61782.61782,0,0,0-.08011.20027.35182.35182,0,0,0,.032.18424.77505.77505,0,0,1,.032.20828c-.008.08812-.016.20828-.04006.35247-.016.1442-.032.23231-.032.25634a1.72515,1.72515,0,0,0,.016,1.21763,2.71035,2.71035,0,0,0,.95328,1.26569,2.34356,2.34356,0,0,0,1.4259.51269h8.86784a1.90618,1.90618,0,0,0,1.17758-.41656,1.99224,1.99224,0,0,0,.737-1.03338l2.64353-8.69962a1.35472,1.35472,0,0,0-.17623-1.24166A1.15627,1.15627,0,0,0,15.17946,3.56207Zm-10.4059,6.8892L5.91108,7.02269h.86515c.30441,0,2.30709-.13618,2.03472,1.40188s-1.506,2.01869-2.94794,2.03471S4.77356,10.45127,4.77356,10.45127Zm1.522-.48064A1.85337,1.85337,0,0,0,8.066,8.6008c.25634-1.13752-.92123-1.07343-.92123-1.07343h-.713L5.61468,9.97063C5.62269,9.97864,5.9271,9.97864,6.29559,9.97063ZM6.03124,6.11748,7.1287,2.71294h.78505l.06409,2.72364L9.86836,2.71294h.79306L9.572,6.11748H9.00321L10.00455,3.2817,8.04192,6.11748H7.4972L7.43311,3.31374,6.568,6.11748Z" style="fill: #333"/>
</svg>
