<svg xmlns="http://www.w3.org/2000/svg" viewBox="0 0 16 16"><defs><style>.a{fill:#3884ff;fill-rule:evenodd;}</style></defs><path class="a" d="M7.226,11.7267a.4533.4533,0,1,1-.4533.4533.4539.4539,0,0,1,.4533-.4533m7.12-2.8081a.4534.4534,0,1,1,.4533-.4533.4539.4539,0,0,1-.4533.4533m0-1.8573a1.4056,1.4056,0,0,0-1.404,1.404,1.39,1.39,0,0,0,.0745.4467l-4.638,2.4688a1.4014,1.4014,0,0,0-2.4114.18L1.8,9.3642a1.8276,1.8276,0,0,1-.7347-1.6164.8563.8563,0,0,1,.3182-.7146.4047.4047,0,0,1,.4.0173l.0279.0147C2.9156,7.6468,6.529,9.55,6.681,9.6206a.7118.7118,0,0,0,.7653-.037l7.4691-3.8845a.3432.3432,0,0,0,.2371-.3056.3577.3577,0,0,0-.2291-.308c-.4246-.2037-1.0778-.51-1.7146-.8076-1.3613-.6374-2.9043-1.36-3.5819-1.7147a1.1551,1.1551,0,0,0-1.14.0041l-.1632.0808C5.2743,4.1562,1.1931,6.1774.9608,6.3188A1.6638,1.6638,0,0,0,.2537,7.7025,2.6513,2.6513,0,0,0,1.4318,10.11l4.4059,2.2722a1.4034,1.4034,0,0,0,2.7922-.18l4.8526-2.63a1.4037,1.4037,0,1,0,.8635-2.51"/></svg>