<svg xmlns="http://www.w3.org/2000/svg" viewBox="0 0 16 16"><defs><style>.a{fill:#639;}.b{fill:#fff;}</style></defs><circle class="a" cx="8" cy="8" r="7.75"/><path class="b" d="M3.6821,12.3179A6.0089,6.0089,0,0,1,1.9107,8.1107l6.0339,5.9786A6.2838,6.2838,0,0,1,3.6821,12.3179Z"/><path class="b" d="M9.3286,13.9232,2.0768,6.6714a6.0854,6.0854,0,0,1,10.85-2.27l-.83.72A5.11,5.11,0,0,0,8,3.0179,5.035,5.035,0,0,0,3.2946,6.3393l6.3661,6.3661a5.0186,5.0186,0,0,0,3.2107-3.5983H10.2143V8h3.875A6.1065,6.1065,0,0,1,9.3286,13.9232Z"/></svg>