<svg xmlns="http://www.w3.org/2000/svg" viewBox="0 0 16 16"><path d="M5.5089,9.0687a.7341.7341,0,0,1-.1755-.5235A2.31,2.31,0,0,1,5.42,7.9143,2.053,2.053,0,0,1,5.6545,7.37a1.27,1.27,0,0,1,.3521-.3789A.7545.7545,0,0,1,6.4444,6.85a.5828.5828,0,0,1,.4544.19.7156.7156,0,0,1,.1724.5,2.245,2.245,0,0,1-.0867.6164,2.1988,2.1988,0,0,1-.2334.5514,1.3851,1.3851,0,0,1-.3521.3965.7111.7111,0,0,1-.4306.1518.6058.6058,0,0,1-.46-.1869m.0165-2.5928a1.9608,1.9608,0,0,0-.5927.51,2.3859,2.3859,0,0,0-.3831.7269,2.6886,2.6886,0,0,0-.1342.8447,1.51,1.51,0,0,0,.0826.507,1.16,1.16,0,0,0,.2375.4,1.0732,1.0732,0,0,0,.3717.2623,1.2277,1.2277,0,0,0,.4864.0929A1.2153,1.2153,0,0,0,6.22,9.6542,1.7426,1.7426,0,0,0,6.71,9.2267q0,.5932.7311.5927a1.4489,1.4489,0,0,0,.2932-.0279q.1347-.0279.2726-.0619l.1384-.51a.8708.8708,0,0,1-.1312.0382.7491.7491,0,0,1-.1239.01.1917.1917,0,0,1-.2137-.22,1.25,1.25,0,0,1,.0547-.3067C7.7682,8.61,7.81,8.46,7.8549,8.29L8.38,6.3045a1.2762,1.2762,0,0,1-.2489.0516,2.6242,2.6242,0,0,1-.33.0176H7.4553l-.18.6485a.949.949,0,0,0-.3448-.5453,1.0446,1.0446,0,0,0-.6475-.193,1.5233,1.5233,0,0,0-.7579.192m7.9591,2.7126a.6515.6515,0,0,1-.2-.1518A.6259.6259,0,0,1,13.16,8.82a.79.79,0,0,1-.0413-.2551,2.47,2.47,0,0,1,.0795-.6175,2.0938,2.0938,0,0,1,.2241-.5514,1.3728,1.3728,0,0,1,.3418-.3965.6891.6891,0,0,1,.4305-.1518.59.59,0,0,1,.4544.1859.7694.7694,0,0,1,.18.5235,2.4282,2.4282,0,0,1-.0826.6309,1.92,1.92,0,0,1-.2313.5411,1.3166,1.3166,0,0,1-.3448.3748.7056.7056,0,0,1-.4172.1415.5643.5643,0,0,1-.2685-.0568m.5-2.76a1.6711,1.6711,0,0,0-.4585.379l.1374-.5039a3.0058,3.0058,0,0,1-.3449.0485c-.1466.0134-.3057.0207-.476.0207h-.6206l-.1384.5173h.3934a.0763.0763,0,0,1,.08.0444.2876.2876,0,0,1-.0175.1621l-.855,3.1225a.3179.3179,0,0,1-.0723.1487.1444.1444,0,0,1-.0929.031h-.3036l-.1383.5173h1.82l.1373-.5173h-.3521a.095.095,0,0,1-.0795-.031c-.0165-.0207-.0124-.07.01-.1487l.3036-1.1307a.9606.9606,0,0,0,.3521.5308,1.0819,1.0819,0,0,0,.6753.1993,1.5284,1.5284,0,0,0,.7548-.1859,1.7931,1.7931,0,0,0,.569-.4967,2.2933,2.2933,0,0,0,.3583-.7135,2.8624,2.8624,0,0,0,.1239-.8446,1.614,1.614,0,0,0-.0795-.5132,1.182,1.182,0,0,0-.2334-.4141,1.06,1.06,0,0,0-.3789-.2726,1.2761,1.2761,0,0,0-.507-.096,1.1507,1.1507,0,0,0-.5669.1466m-3.455.0134a1.54,1.54,0,0,0-.4306.49l.1725-.6278a3.0429,3.0429,0,0,1-.3449.0485c-.1477.0134-.3057.0207-.476.0207H8.809L8.6707,6.89h.413a.0763.0763,0,0,1,.0795.0444.287.287,0,0,1-.0176.1621L8.4228,9.7306H9.346l.2963-1.1028c.0775-.2943.1559-.5535.2334-.7786a3.13,3.13,0,0,1,.2519-.5648A1.1213,1.1213,0,0,1,10.424,6.94a.62.62,0,0,1,.3686-.1177.3883.3883,0,0,1,.1456.0279.231.231,0,0,1,.1033.0764.4572.4572,0,0,0-.2923.1652.4308.4308,0,0,0-.1074.2964.4122.4122,0,0,0,.1312.2963.4785.4785,0,0,0,.3438.1167.5679.5679,0,0,0,.28-.0723.7249.7249,0,0,0,.22-.1931.8537.8537,0,0,0,.1415-.2788,1.0323,1.0323,0,0,0,.0413-.3376A.6849.6849,0,0,0,11.6,6.446a.6964.6964,0,0,0-.51-.1828.9469.9469,0,0,0-.5607.1786M2.0942,5.1325c-.15.0135-.3088.0207-.4791.0207h-.6L.8706,5.67h.3583c.0454,0,.0733.0155.0826.0454a.3319.3319,0,0,1-.0207.1621L.25,9.7306h.9169q.1921-.7652.3821-1.3062a5.7776,5.7776,0,0,1,.382-.886,1.688,1.688,0,0,1,.3934-.5028.6629.6629,0,0,1,.4141-.159A.4023.4023,0,0,1,3.007,6.97a.3341.3341,0,0,1,.1105.2726,1.0466,1.0466,0,0,1-.0413.2375c-.0279.1032-.061.2168-.1.3418s-.0816.255-.128.3923-.0888.2716-.127.4007-.0723.2468-.1.3552a1.0918,1.0918,0,0,0-.0413.2581.532.532,0,0,0,.1859.4554.865.865,0,0,0,.5235.1373A2.1487,2.1487,0,0,0,3.5924,9.8a1.4589,1.4589,0,0,0,.2892-.0692l.1373-.51a.78.78,0,0,1-.255.0485.18.18,0,0,1-.2066-.2A1.4176,1.4176,0,0,1,3.6441,8.71c.0568-.1745.12-.3655.1889-.5751s.1322-.4151.19-.6165a1.9007,1.9007,0,0,0,.0868-.476.6619.6619,0,0,0-.2592-.5648A1.0274,1.0274,0,0,0,3.22,6.2849a1.3634,1.3634,0,0,0-.7579.2137,2.0166,2.0166,0,0,0-.5927.6206L2.4349,5.084a2.7168,2.7168,0,0,1-.3407.0485"/></svg>