<svg xmlns="http://www.w3.org/2000/svg" viewBox="0 0 980 734">
  <title>Cloudflare Workers logo (vertical combination mark)</title>
  <defs>
    <linearGradient id="CloudflareWorkersLogoCombinationMarkVertical--gradient-a" x1="50%" x2="25.7%" y1="100%" y2="8.7%">
      <stop offset="0%" stop-color="#eb6f07"/>
      <stop offset="100%" stop-color="#fab743"/>
    </linearGradient>
    <linearGradient id="CloudflareWorkersLogoCombinationMarkVertical--gradient-b" x1="81%" x2="40.5%" y1="83.7%" y2="29.5%">
      <stop offset="0%" stop-color="#d96504"/>
      <stop offset="100%" stop-color="#d96504" stop-opacity="0"/>
    </linearGradient>
    <linearGradient id="CloudflareWorkersLogoCombinationMarkVertical--gradient-c" x1="42%" x2="84%" y1="8.7%" y2="79.9%">
      <stop offset="0%" stop-color="#eb6f07"/>
      <stop offset="100%" stop-color="#eb720a" stop-opacity="0"/>
    </linearGradient>
    <linearGradient id="CloudflareWorkersLogoCombinationMarkVertical--gradient-d" x1="50%" x2="25.7%" y1="100%" y2="8.7%">
      <stop offset="0%" stop-color="#ee6f05"/>
      <stop offset="100%" stop-color="#fab743"/>
    </linearGradient>
    <linearGradient id="CloudflareWorkersLogoCombinationMarkVertical--gradient-e" x1="-33.2%" x2="91.7%" y1="100%" y2="0%">
      <stop offset="0%" stop-color="#d96504" stop-opacity=".8"/>
      <stop offset="49.8%" stop-color="#d96504" stop-opacity=".2"/>
      <stop offset="100%" stop-color="#d96504" stop-opacity="0"/>
    </linearGradient>
    <linearGradient id="CloudflareWorkersLogoCombinationMarkVertical--gradient-f" x1="50%" x2="25.7%" y1="100%" y2="8.7%">
      <stop offset="0%" stop-color="#ffa95f"/>
      <stop offset="100%" stop-color="#ffebc8"/>
    </linearGradient>
    <linearGradient id="CloudflareWorkersLogoCombinationMarkVertical--gradient-g" x1="8.1%" x2="96.5%" y1="1.1%" y2="48.8%">
      <stop offset="0%" stop-color="#fff" stop-opacity=".5"/>
      <stop offset="100%" stop-color="#fff" stop-opacity=".1"/>
    </linearGradient>
    <linearGradient id="CloudflareWorkersLogoCombinationMarkVertical--gradient-h" x1="-13.7%" y1="104.2%" y2="46.2%">
      <stop offset="0%" stop-color="#fff" stop-opacity=".5"/>
      <stop offset="100%" stop-color="#fff" stop-opacity=".1"/>
    </linearGradient>
  </defs>
  <path class="CloudflareWorkersLogoCombinationMark--workers-wordmark" fill="#232324" d="M76.7 726L24 571.4h36.4l32 104L126.8 571h29l34.7 104.4 32-104H258L205.3 726h-29.5L141 625.6 106.2 726H76.7zm246 2c-36.6 0-63.7-27.1-63.7-61v-.5c0-34 27.4-61.5 64.2-61.5 36.7 0 63.8 27.1 63.8 61v.5c0 34-27.4 61.5-64.2 61.5zm.5-29c19.3 0 30.8-14.7 30.8-32v-.5c0-17.3-12.6-32.5-31.2-32.5-19.3 0-30.8 14.7-30.8 32v.5c0 17.3 12.6 32.5 31.2 32.5zm87.8 26V607.2h33.4V631c6.8-16.3 17.8-26.8 37.6-26v35h-1.8c-22.2 0-35.8 13.4-35.8 41.5V725H411zm92 0V565h33.4v85.3l39-42.8h40l-44.7 46.3L617 725h-38.2L548 677l-11.6 12.3V725H503zm180.7 3c-35.5 0-61.7-25-61.7-61v-.5c0-33.7 24-61.5 58.4-61.5 39.5 0 57.6 30.6 57.6 64.1 0 2.7-.2 5.8-.4 8.9h-82.3c3.3 15.2 13.9 23.1 28.9 23.1 11.2 0 19.4-3.5 28.7-12.1l19.1 17a59.1 59.1 0 0 1-48.3 22zM655 657h50c-2-15-10.7-25-24.7-25-13.7 0-22.7 9.9-25.3 25zm108 68V607.2h33.4V631c6.8-16.3 17.8-26.8 37.6-26v35h-1.8c-22.2 0-35.8 13.4-35.8 41.5V725H763zm132.8 3a83 83 0 0 1-50.8-17.8l14.3-22a67 67 0 0 0 37.3 14c9.8 0 14.2-3.5 14.2-8.8v-.4c0-7.3-11.5-9.7-24.5-13.7-16.6-4.8-35.3-12.5-35.3-35.4v-.5c0-24 19.4-37.4 43.2-37.4 15 0 31.4 5 44.2 13.7l-12.8 23a70.2 70.2 0 0 0-32-11c-8.2 0-12.4 3.6-12.4 8.2v.5c0 6.6 11.2 9.6 24 14 16.6 5.6 35.8 13.5 35.8 35v.5c0 26.2-19.6 38.1-45.2 38.1z"/>
  <path class="CloudflareWorkersLogoCombinationMark--cloudflare-wordmark" fill="#656566" fill-rule="nonzero" d="M969.9 479.4a8 8 0 1 1 0-16c4.4 0 8.1 3.5 8.1 8 0 4.3-3.7 8-8.1 8zm0-14.5a6.5 6.5 0 0 0-6.6 6.5c0 3.6 3 6.4 6.6 6.4 3.6 0 6.5-2.8 6.5-6.4 0-3.6-3-6.5-6.5-6.5zm4.1 10.7h-1.9l-1.6-3h-2.1v3h-1.7v-8.8h4.2c1.9 0 3.1 1.2 3.1 2.9 0 1.3-.8 2.2-1.9 2.6l1.9 3.3zm-3.2-4.6c.7 0 1.3-.4 1.3-1.3 0-1-.5-1.3-1.3-1.3h-2.7v2.6h2.7zm-848-8.4h20.8v56h36v17.8h-56.8v-73.8zm78.3 37.1v-.3a39 39 0 0 1 40.4-38.4c23.1 0 40.2 17 40.2 38.2v.2a39 39 0 0 1-40.4 38.5c-23 0-40.2-17-40.2-38.2zm59.5 0v-.3c0-10.6-7.7-19.8-19.2-19.8-11.3 0-19 9-19 19.7v.3c0 10.6 7.8 19.8 19.1 19.8 11.5 0 19.1-9 19.1-19.7zm46.5 4.3v-41.4h21v41c0 10.7 5.5 15.7 13.8 15.7s13.7-4.9 13.7-15.1v-41.6h21.1v41c0 23.7-13.7 34.1-35 34.1S307 527.2 307 504zm101.3-41.4h28.8c26.7 0 42.3 15.1 42.3 36.4v.3c0 21.3-15.8 37.1-42.7 37.1h-28.4v-73.8zm29.2 55.7c12.4 0 20.7-6.8 20.7-18.7v-.3c0-11.8-8.3-18.7-20.7-18.7h-8.4v37.5h8.4v.2zm72-55.7h59.8v17.9h-39.1V493h35.4v17h-35.4v26.3h-20.7v-73.8zm88.6 0H619v56h36.3v17.8h-57v-73.8zm111-.5h20l32 74.3h-22.3l-5.5-13.1h-28.8l-5.3 13.1h-21.7l31.7-74.3zm18.3 45.2l-8.2-20.9-8.4 21h16.6zm60.3-44.7H823c11.5 0 19.3 2.9 24.4 8 4.4 4.2 6.7 9.9 6.7 17.3v.2c0 11.3-6.2 18.8-15.4 22.7l17.9 25.8h-24l-15-22.4h-9.1v22.4h-20.8v-74zm34.4 35.4c7 0 11-3.4 11-8.7v-.3c0-5.8-4.2-8.7-11.2-8.7h-13.6V498h13.8zm61.8-35.4h60.1V480h-39.5V491h35.8v16.2h-35.8V519h40v17.4H884v-73.8zM77.5 508.4c-3 6.4-9.1 11-17.1 11-11.3 0-19-9.3-19-19.8v-.3c0-10.7 7.5-19.7 18.9-19.7 8.5 0 15 5 17.7 12.2h21.8a38.9 38.9 0 0 0-39.4-30.7A39 39 0 0 0 20 499.6v.2C20 521 37 538 60.1 538a39.2 39.2 0 0 0 39.2-29.5l-21.8-.1z"/>
  <path fill="url(#CloudflareWorkersLogoCombinationMarkVertical--gradient-a)" d="M107 5.4l49 88.4-45 81a26 26 0 0 0 0 25.3l45 81.2-49 88.4A52 52 0 0 1 85 349L7 213.5a52.2 52.2 0 0 1 0-52L85 26a52 52 0 0 1 22-20.6z" transform="translate(274)"/>
  <path fill="url(#CloudflareWorkersLogoCombinationMarkVertical--gradient-b)" d="M111 174.9a26 26 0 0 0 0 25.2l45 81.2-49 88.4A52 52 0 0 1 85 349L7 213.5C.8 202.8 35.5 190 111 175z" opacity=".7" transform="translate(274)"/>
  <path fill="url(#CloudflareWorkersLogoCombinationMarkVertical--gradient-c)" d="M112 14.3l44 79.5-7.3 12.7-38.8-65.7C98.7 22.5 81.6 32 60.2 69l3.2-5.5L85 26a52 52 0 0 1 21.8-20.6l5.1 8.9z" opacity=".5" transform="translate(274)"/>
  <path fill="url(#CloudflareWorkersLogoCombinationMarkVertical--gradient-d)" d="M331 26l78 135.5c9.3 16 9.3 36 0 52L331 349a52 52 0 0 1-45 26h-78l97-174.9a26 26 0 0 0 0-25.2L208 0h78a52 52 0 0 1 45 26z" transform="translate(274)"/>
  <path fill="url(#CloudflareWorkersLogoCombinationMarkVertical--gradient-e)" d="M282 374.4l-77 .7 93.2-175.8a27 27 0 0 0 0-25.4L205 0h17.6l97.8 173.1a27 27 0 0 1-.1 26.8 15624 15624 0 0 0-62.7 110c-19 33.4-10.8 54.9 24.4 64.5z" transform="translate(274)"/>
  <path fill="url(#CloudflareWorkersLogoCombinationMarkVertical--gradient-f)" d="M130 375c-8 0-16-1.9-23-5.3l96.2-173.5c3-5.4 3-12 0-17.4L107 5.4A52 52 0 0 1 130 0h78l97 174.9a26 26 0 0 1 0 25.2L208 375h-78z" transform="translate(274)"/>
  <path fill="url(#CloudflareWorkersLogoCombinationMarkVertical--gradient-g)" d="M298.2 178.8L199 0h9l97 174.9a26 26 0 0 1 0 25.2L208 375h-9l99.2-178.8c3-5.4 3-12 0-17.4z" opacity=".6" transform="translate(274)"/>
  <path fill="url(#CloudflareWorkersLogoCombinationMarkVertical--gradient-h)" d="M203.2 178.8L107 5.4c3-1.6 6.6-2.8 10-3.8 21.2 38.1 52.5 95.9 94 173.3a26 26 0 0 1 0 25.2L115.5 373c-3.4-1-5.2-1.7-8.4-3.2l96-173.5c3-5.4 3-12 0-17.4z" opacity=".6" transform="translate(274)"/>
</svg>