<svg enable-background="new 0 0 540 210" viewBox="0 0 540 210" xmlns="http://www.w3.org/2000/svg"><g fill="#dd4814"><path d="m103.308 59.526-11.337 19.814c-6.217-5.862-14.553-8.794-25.006-8.794-10.031 0-17.96 3.338-23.787 10.013-5.828 6.676-8.742 15.912-8.742 27.708 0 23.806 11.337 35.708 34.012 35.708 9.817 0 18.471-3.249 25.959-9.748l9.748 20.873c-7.7 4.805-14.428 7.841-20.185 9.112-5.758 1.271-12.556 1.907-20.396 1.907-17.52 0-31.347-5.103-41.482-15.311-10.137-10.207-15.205-24.387-15.205-42.542 0-17.87 5.544-32.317 16.635-43.336 11.089-11.02 26.206-16.529 45.35-16.529 13.208 0 24.688 3.708 34.436 11.125z"/><path d="m198.352 164v-6.887c-2.19 2.401-5.899 4.503-11.125 6.304-5.229 1.802-10.632 2.702-16.211 2.702-15.824 0-28.274-5.015-37.35-15.046-9.078-10.029-13.616-24.016-13.616-41.959 0-17.941 5.208-32.545 15.628-43.813 10.419-11.266 23.47-16.9 39.151-16.9 8.617 0 16.458 1.767 23.522 5.298v-45.456l26.489-6.357v162.114zm0-86.355c-5.652-4.52-11.549-6.781-17.695-6.781-10.596 0-18.754 3.232-24.476 9.695-5.722 6.464-8.583 15.735-8.583 27.814 0 23.593 11.372 35.389 34.118 35.389 2.543 0 5.668-.758 9.377-2.277 3.708-1.519 6.127-3.055 7.258-4.609v-59.231z"/><path d="m324.334 164v-65.587c0-9.677-1.854-16.741-5.562-21.191-3.709-4.45-9.767-6.675-18.172-6.675-3.886 0-8.036 1.096-12.45 3.285-4.415 2.19-7.858 4.911-10.331 8.159v82.009h-26.489v-113.48h19.072l4.873 10.596c7.205-8.477 17.836-12.715 31.894-12.715 13.491 0 24.14 4.044 31.946 12.132 7.804 8.089 11.708 19.374 11.708 33.853v69.614z"/><path d="m363.856 208.502v-23.629c14.127 0 23.682-1.679 28.661-5.032 4.98-3.356 7.47-9.378 7.47-18.065v-89.429h-20.449v-21.827h46.939v110.832c0 16.246-5.104 28.166-15.312 35.76-10.207 7.592-25.977 11.39-47.309 11.39zm48.529-201.954c4.238 0 7.857 1.501 10.86 4.503 3.002 3.003 4.504 6.623 4.504 10.861s-1.502 7.859-4.504 10.861c-3.003 3.003-6.622 4.503-10.86 4.503s-7.859-1.5-10.86-4.503c-3.004-3.002-4.504-6.623-4.504-10.861s1.5-7.857 4.504-10.861c3-3.002 6.621-4.503 10.86-4.503z"/><path d="m452.012 156.689 9.431-21.086c7.91 6.288 16.847 9.43 26.808 9.43 10.312 0 15.469-3.672 15.469-11.02 0-4.307-1.554-7.84-4.662-10.596-3.108-2.754-9.148-6.002-18.118-9.748-19.567-8.121-29.351-19.496-29.351-34.118 0-9.817 3.744-17.465 11.232-22.94 7.486-5.473 17.059-8.211 28.714-8.211 11.796 0 22.887 2.649 33.271 7.947l-7.629 20.556c-5.793-4.943-13.846-7.417-24.158-7.417-9.255 0-13.881 3.674-13.881 11.02 0 2.897 1.519 5.51 4.557 7.841 3.036 2.331 9.536 5.457 19.496 9.377 9.96 3.921 17.129 8.673 21.51 14.251 4.379 5.582 6.568 12.328 6.568 20.238 0 10.526-3.903 18.808-11.708 24.847-7.806 6.04-18.42 9.06-31.84 9.06-7.56 0-13.615-.619-18.172-1.854-4.557-1.236-10.403-3.762-17.537-7.577z"/></g></svg>