<svg height="243" preserveAspectRatio="xMidYMid" viewBox="0 0 256 243" width="256" xmlns="http://www.w3.org/2000/svg" xmlns:xlink="http://www.w3.org/1999/xlink"><linearGradient id="a"><stop offset="0" stop-color="#f9a03c"/><stop offset="1" stop-color="#f7974e"/></linearGradient><linearGradient id="b" x1="-82.637%" x2="103.767%" xlink:href="#a" y1="-92.82%" y2="106.042%"/><linearGradient id="c" x1="-258.924%" x2="97.62%" xlink:href="#a" y1="-248.97%" y2="98.768%"/><linearGradient id="d" x1="-223.163%" x2="94.028%" xlink:href="#a" y1="-261.968%" y2="101.691%"/><linearGradient id="e" x1="11.339%" x2="82.496%" y1="-1.822%" y2="92.107%"><stop offset="0" stop-color="#f26d58"/><stop offset="1" stop-color="#f9a03c"/></linearGradient><linearGradient id="f" x1="15.844%" x2="120.126%" y1="3.858%" y2="72.38%"><stop offset="0" stop-color="#b84e51"/><stop offset="1" stop-color="#f68e48"/></linearGradient><linearGradient id="g" x1="46.984%" x2="51.881%" xlink:href="#a" y1="23.466%" y2="147.391%"/><path d="m255.52 175.619c.115-1.115.197-2.24.261-3.371.078-1.339-80.562-77.85-80.562-77.85h-1.928s81.736 86.215 82.229 81.22z" fill="url(#b)"/><path d="m83.472 149.077c-.107.235-.213.47-.323.704-.114.246-.232.491-.349.734-2.57 5.36 35.987 43.053 39.088 38.474.141-.202.283-.416.424-.618.157-.24.312-.47.467-.71 2.48-3.765-38.206-41.032-39.307-38.584z" fill="url(#c)"/><path d="m137.957 202.083c-.109.24-.885 1.552-1.594 2.245-.12.24 37.64 37.688 37.64 37.688h3.4c.002 0-35.446-38.35-39.446-39.933z" fill="url(#d)"/><path d="m255.835 171.568c-1.766 39.147-34.152 70.448-73.72 70.448h-5.35l-39.514-38.928c3.25-4.584 6.272-9.333 8.962-14.285h35.902c11.354 0 20.594-9.235 20.594-20.595 0-11.355-9.24-20.595-20.594-20.595h-21.246c1.619-8.557 2.504-17.381 2.504-26.408 0-9.165-.901-18.114-2.578-26.808h13.197l81.61 80.414c.097-1.078.174-2.155.233-3.243zm-234.368-171.568h-21.467v53.213h21.467c37.493 0 68 30.499 68 67.992 0 10.2-2.275 19.883-6.318 28.576l39.163 38.59c12.859-19.24 20.376-42.339 20.376-67.166 0-66.832-54.381-121.205-121.221-121.205z" fill="url(#e)"/><path d="m182.115 0h-86.928c21.232 12.963 38.813 31.344 50.792 53.213h36.136c11.354 0 20.594 9.235 20.594 20.595 0 11.357-9.24 20.592-20.594 20.592h-8.12l81.61 80.413c.192-2.181.312-4.376.312-6.605 0-17.939-6.437-34.395-17.125-47.203 10.688-12.802 17.125-29.261 17.125-47.197 0-40.696-33.104-73.808-73.802-73.808z" fill="url(#f)"/><path d="m176.765 242.016h-80.957c16.296-10.064 30.384-23.35 41.443-38.928zm-54.453-53.645-39.16-38.59c-10.819 23.251-34.395 39.422-61.685 39.422h-21.467v53.208h21.467c42.01 0 79.09-21.488 100.845-54.04z" fill="url(#g)"/></svg>