<svg height="149" preserveAspectRatio="xMidYMid" viewBox="0 0 512 149" width="512" xmlns="http://www.w3.org/2000/svg"><path d="m3.33224862 115.629027v-56.9814514h71.14350798v-3.3322486h-71.14350798v-51.98307838h75.64204358v-3.33224862h-78.9742922v118.961276h79.640742v-3.332249zm140.45427938-82.3065408-29.4904 38.8206964-28.823951-38.8206964h-4.3319232l31.1565242 41.3198828-34.155548 44.318907h3.9986984l32.1561996-41.8197206 32.322811 41.8197206h4.165311l-34.322161-44.318907 31.323137-41.3198828zm16.994468 114.9625768v-53.3159774h.333225c1.999359 7.7752854 5.94248 14.0231894 11.829482 18.7438984s13.384487 7.081028 22.492678 7.081028c5.887003 0 11.107473-1.194043 15.661569-3.582167 4.554096-2.388123 8.358374-5.637033 11.412952-9.746827 3.054576-4.109794 5.387126-8.8859692 6.997722-14.3286692 1.610594-5.4427 2.41588-11.1630028 2.41588-17.1610804 0-6.4423794-.833054-12.38483-2.499186-17.82753-1.666134-5.4427-4.08199-10.1633384-7.247642-14.1620566-3.165652-3.9987184-6.9977-7.108786-11.496258-9.3302962s-9.580186-3.3322486-15.245037-3.3322486c-4.331944 0-8.358371.6386746-12.079401 1.916043-3.721029 1.2773684-7.025476 3.0823182-9.913439 5.414904-2.887964 2.3325856-5.387125 5.0816632-7.49756 8.2473152s-3.721005 6.6367096-4.83176 10.413277h-.333225v-23.99219h-3.332249v114.9625768zm34.655385-30.656687c-10.441097 0-18.827173-3.582131-25.158477-10.746502-6.331304-7.16437-9.496908-17.466469-9.496908-30.9066056 0-5.5537754.777517-10.829783 2.332574-15.8281808 1.555057-4.998398 3.804302-9.3858148 6.747803-13.1623822 2.943501-3.7765672 6.58117-6.775561 10.913114-8.9970712 4.331945-2.2215102 9.219194-3.3322486 14.661894-3.3322486 5.553775 0 10.413257 1.1107384 14.578589 3.3322486 4.16533 2.2215102 7.60862 5.2482724 10.32997 9.0803776 2.72135 3.832105 4.776216 8.2195218 6.16466 13.162382s2.082656 10.1910992 2.082656 15.7448746c0 4.998398-.638676 9.9689524-1.916044 14.9118126s-3.248928 9.385814-5.914742 13.328994c-2.665812 3.943181-6.081332 7.164323-10.246664 9.663521-4.165332 2.499199-9.191422 3.74878-15.078425 3.74878zm54.815491 1.3329v-48.4842178c0-4.6651714.666442-9.219199 1.999348-13.6622192 1.332906-4.4430204 3.387772-8.3583734 6.16466-11.7461764s6.303482-6.0535754 10.57989-7.9973968c4.276406-1.9438214 9.358036-2.7491068 15.245038-2.4158802v-3.3322486c-5.109474-.1110756-9.580196.4442938-13.412302 1.6661244-3.832104 1.2218306-7.136552 2.8879382-9.91344 4.9983728-2.776888 2.1104348-4.998364 4.5818278-6.664496 7.4142532-1.666134 2.8324254-2.887946 5.8591878-3.665474 9.0803774h-.333224v-21.1597786h-3.33225v85.6387898zm38.154246-42.1529454h71.643346c.22215-5.887002-.360988-11.551768-1.749432-16.994468-1.388444-5.4426998-3.60992-10.274412-6.664496-14.4952814-3.054578-4.2208694-6.997698-7.6086216-11.829484-10.1633582-4.831784-2.5547368-10.579856-3.832086-17.244386-3.832086-4.776246 0-9.441348.9996646-13.995444 2.9990238s-8.552754 4.9150476-11.996096 8.7471526c-3.44334 3.832105-6.220186 8.524975-8.33062 14.0787504-2.110436 5.5537754-3.165636 11.8849846-3.165636 18.993817 0 6.3313042.72198 12.2459862 2.16596 17.744224 1.443982 5.4982376 3.66546 10.2744132 6.664498 14.3286692s6.858854 7.192092 11.579564 9.413602 10.413244 3.276712 17.077774 3.165636c9.774644 0 17.99411-2.749077 24.65864-8.247315s10.607652-13.2456382 11.829482-23.242434h-3.332248c-1.443982 9.4414182-5.137188 16.522376-11.079726 21.243085-5.94254 4.720709-13.412256 7.081028-22.409372 7.081028-6.109154 0-11.274088-1.055201-15.494956-3.165636-4.22087-2.110435-7.66416-4.998355-10.329972-8.663846-2.665812-3.665492-4.637372-7.9696036-5.91474-12.9124638-1.27737-4.9428602-1.97158-10.302173-2.082656-16.0780996zm68.311096-3.3322486h-68.311096c.333226-5.9980774 1.443964-11.3851588 3.332248-16.1614058 1.888284-4.7762468 4.359678-8.8582106 7.414254-12.2460136s6.60894-5.97027 10.663196-7.747478c4.054256-1.7772082 8.413904-2.665799 13.079074-2.665799 5.553776 0 10.441026 1.027433 14.661894 3.08233 4.22087 2.054897 7.747464 4.8595114 10.57989 8.4139278 2.832426 3.5544162 4.970598 7.6919168 6.414578 12.412626 1.443982 4.7207092 2.165962 9.6912636 2.165962 14.9118126zm72.476408-14.8285064h3.332248c0-9.5524938-2.776846-16.494609-8.330622-20.8265538-5.553774-4.3319448-13.106796-6.4978848-22.65929-6.4978848-5.331624 0-9.830114.666443-13.495606 1.9993492-3.665492 1.332906-6.664486 3.0545506-8.997072 5.1649854-2.332586 2.1104346-3.998694 4.4429854-4.998372 6.997722-.99968 2.5547368-1.499512 4.9983612-1.499512 7.330947 0 4.6651714.833054 8.3861452 2.499186 11.1630328 1.666132 2.7768878 4.276368 4.9428278 7.830784 6.4978848 2.443662 1.1107552 5.220508 2.1104198 8.330622 2.9990238s6.720014 1.8327318 10.829808 2.8324114c3.665492.888604 7.275392 1.7771948 10.829808 2.6657988s6.692252 2.082648 9.413602 3.5821672c2.72135 1.4995194 4.942826 3.4155432 6.664498 5.748129 1.72167 2.3325856 2.582492 5.3871164 2.582492 9.1636836 0 3.665492-.860822 6.775559-2.582492 9.330296-1.721672 2.554737-3.91538 4.637371-6.581192 6.247966s-5.637038 2.776871-8.913764 3.498861c-3.276728.721991-6.470102 1.082981-9.580216 1.082981-10.10787 0-17.855272-2.249245-23.242434-6.747803s-8.080702-11.5795158-8.080702-21.2430852h-3.33225c0 10.7743242 2.91569 18.6605672 8.747154 23.6589652s14.467454 7.497559 25.908232 7.497559c3.665492 0 7.358698-.416527 11.079728-1.249593 3.721028-.833066 7.053244-2.193721 9.996744-4.082004 2.943502-1.888284 5.33159-4.331909 7.164336-7.330947 1.832746-2.999039 2.749104-6.664476 2.749104-10.9964208 0-4.1097938-.805284-7.4420092-2.41588-9.9967458-1.610594-2.5547368-3.720998-4.6651398-6.331272-6.3312724s-5.553732-2.9712504-8.830458-3.9153922c-3.276728-.9441418-6.581176-1.860501-9.91344-2.749105-4.665172-1.2218306-8.747136-2.2770322-12.246014-3.1656362-3.498878-.8886042-6.747788-1.9438056-9.746828-3.1656362-2.887962-1.2218306-5.192744-2.9712436-6.914416-5.2482916-1.72167-2.277048-2.582492-5.5259578-2.582492-9.7468272 0-.7775286.222148-2.1659516.66645-4.1653108s1.499504-4.0264568 3.165636-6.0813538c1.666132-2.0548968 4.22083-3.8876152 7.664172-5.4982102 3.44334-1.6105948 8.163978-2.4158802 14.162056-2.4158802 4.109794 0 7.858536.4442954 11.24634 1.3328994 3.387802.8886042 6.30349 2.3047956 8.747152 4.248617s4.331916 4.4152144 5.664822 7.4142532 1.99935 6.6644756 1.99935 10.9964204zm77.141556 0h3.332248c0-9.5524938-2.776846-16.494609-8.330622-20.8265538s-13.106796-6.4978848-22.65929-6.4978848c-5.331624 0-9.830116.666443-13.495608 1.9993492-3.66549 1.332906-6.664484 3.0545506-8.99707 5.1649854-2.332586 2.1104346-3.998694 4.4429854-4.998374 6.997722-.999678 2.5547368-1.499512 4.9983612-1.499512 7.330947 0 4.6651714.833054 8.3861452 2.499188 11.1630328 1.666132 2.7768878 4.276368 4.9428278 7.830784 6.4978848 2.44366 1.1107552 5.220506 2.1104198 8.330622 2.9990238 3.110114.888604 6.720014 1.8327318 10.829808 2.8324114 3.66549.888604 7.27539 1.7771948 10.829808 2.6657988 3.554416.888604 6.692252 2.082648 9.413602 3.5821672 2.72135 1.4995194 4.942826 3.4155432 6.664496 5.748129 1.721672 2.3325856 2.582494 5.3871164 2.582494 9.1636836 0 3.665492-.860822 6.775559-2.582494 9.330296-1.72167 2.554737-3.915378 4.637371-6.58119 6.247966s-5.637038 2.776871-8.913766 3.498861c-3.276726.721991-6.4701 1.082981-9.580214 1.082981-10.107872 0-17.855272-2.249245-23.242434-6.747803s-8.080704-11.5795158-8.080704-21.2430852h-3.332248c0 10.7743242 2.915688 18.6605672 8.747152 23.6589652 5.831466 4.998398 14.467456 7.497559 25.908234 7.497559 3.665492 0 7.358696-.416527 11.079726-1.249593s7.053246-2.193721 9.996746-4.082004c2.943502-1.888284 5.331588-4.331909 7.164334-7.330947 1.832746-2.999039 2.749106-6.664476 2.749106-10.9964208 0-4.1097938-.805286-7.4420092-2.41588-9.9967458-1.610596-2.5547368-3.720998-4.6651398-6.331272-6.3312724-2.610276-1.6661326-5.553732-2.9712504-8.83046-3.9153922-3.276726-.9441418-6.581174-1.860501-9.91344-2.749105-4.66517-1.2218306-8.747134-2.2770322-12.246012-3.1656362-3.49888-.8886042-6.74779-1.9438056-9.746828-3.1656362-2.887964-1.2218306-5.192746-2.9712436-6.914416-5.2482916s-2.582492-5.5259578-2.582492-9.7468272c0-.7775286.222148-2.1659516.66645-4.1653108s1.499502-4.0264568 3.165636-6.0813538c1.666132-2.0548968 4.22083-3.8876152 7.664172-5.4982102 3.44334-1.6105948 8.163978-2.4158802 14.162056-2.4158802 4.109794 0 7.858536.4442954 11.246338 1.3328994 3.387804.8886042 6.303492 2.3047956 8.747154 4.248617 2.44366 1.9438214 4.331916 4.4152144 5.664822 7.4142532s1.99935 6.6644756 1.99935 10.9964204z" fill="#222"/></svg>