<svg height="2500" preserveAspectRatio="xMinYMin meet" viewBox="0 0 256 256" width="2500" xmlns="http://www.w3.org/2000/svg"><path d="m0 0h256v256h-256z" fill="#222"/><path d="m114.406 35.277-22.579 64.543-68.494.189 55.51 41.021-19.948 66.233 56.075-39.7 57.584 42.147-21.079-68.869 54.948-41.021-68.306.189-23.71-64.732" fill="#e08524"/><path d="m117.228 34.336 22.768 10.726 19.005 51.937h-18.817l-22.956-62.659" fill="#466770"/><path d="m156.34 142.239 22.486 11.044 54.42-39.518-22.486-11.975z" fill="#304a51"/><path d="m156.308 142.198 22.518 11.035 21.289 68.839-23.285-11.842-20.522-68.03" fill="#466770"/><path d="m62.095 209.618 52.875-37.822 18.535 13.736-49.96 35z" fill="#304a51"/></svg>