<svg height="188" viewBox="0 0 172 188" width="172" xmlns="http://www.w3.org/2000/svg"><path d="m78.989882 72.0603388-12.1148283-65.48441437c5.7338615-3.96642375 12.2116445-5.94963563 19.433349-5.94963563 7.2217046 0 13.3250304 1.98321188 18.3099773 5.94963563l-10.4300965 65.48441437c-2.7929076 1.6228648-5.4195345 2.4342971-7.8798808 2.4342971-2.4603462 0-4.8998531-.8114323-7.3185207-2.4342971zm.1249463 44.3739582c2.4186676-1.622865 4.8581745-2.434297 7.3185207-2.434297 2.4603463 0 5.0869732.811432 7.8798808 2.434297l10.4300972 65.484414c-4.9849476 3.966424-11.0882734 5.949636-18.309978 5.949636-7.2217045 0-13.6994875-1.983212-19.433349-5.949636zm22.4991957-39.1861627 50.653752-43.2339563c6.301954 2.9824579 11.258358 7.6007766 14.86921 13.8549562 3.610852 6.2541795 4.945003 12.5314207 4.002453 18.8317235l-61.926215 23.7094784c-2.801895-1.6072966-4.81793-3.476306-6.048103-5.6070284s-1.747206-4.6491135-1.551097-7.5551734zm-38.3665023 22.2951858c2.6147758 1.2831949 4.5372503 2.9901539 5.7674234 5.1208759 1.2301732 2.130723 1.8407656 4.811165 1.8317774 8.041326l-51.4961181 41.774936c-5.9274973-2.333879-10.69667212-6.627908-14.30752438-12.882088-3.61085227-6.25418-5.13223191-12.85571-4.56413892-19.804592zm45.1858103-.1082067 62.76858 22.2504586c.568093 6.948881-.953286 13.550412-4.564139 19.804591-3.610852 6.25418-8.380027 10.548209-14.307524 12.882088l-51.496118-41.774936c-.008988-3.230161.601604-5.910603 1.831777-8.041325 1.230173-2.130723 3.152648-3.837681 5.767424-5.1208766zm-38.4914485-22.0787724c.1961083 2.9060599-.3209241 5.424451-1.5510972 7.5551734-1.2301731 2.1307223-3.2462076 3.9997318-6.0481035 5.6070284l-61.92621484-23.7094785c-.94255014-6.3003027.39160093-12.5775439 4.0024532-18.8317235 3.61085226-6.2541796 8.56725564-10.8724983 14.86921014-13.8549561z" fill-rule="evenodd"/></svg>