<svg xmlns="http://www.w3.org/2000/svg" width="512" height="512" viewBox="0 0 512 512"><path fill="#008cdb" d="M122.823 115.342c-.234-.133-.468-.268-.702-.397-9.986 13.777-20.086 27.473-29.93 41.35C75.39 180 66.563 206.396 66.028 235.509c-.396 21.532 3.353 42.427 10.396 62.685 22.055 63.486 67.229 105.114 127.174 131.771 37.021 16.461 76.088 20.126 115.983 12.707 33.72-6.271 62.646-21.517 84.5-48.309 12.429-15.241 23.55-31.557 35.233-47.401.257-.345.24-.891.196-.707-8.349 6.799-16.444 14.506-25.591 20.649-34.028 22.834-72.244 28.197-112.086 24.896-24.064-1.992-47.009-8.673-68.768-19.252-33.674-16.365-62.758-38.617-85.896-68.148-21.973-28.047-35.37-59.902-40.501-95.215-3.816-26.29-1.811-51.939 8.258-76.698 2.373-5.82 5.256-11.435 7.897-17.145zM443.98 246.021c-1.133 1.053-2.198 2.174-3.392 3.148-5.024 4.115-9.763 8.719-15.204 12.189-26.833 17.111-56.393 20.06-87.062 15.483-18.921-2.825-36.456-9.889-52.724-19.937-37.234-22.997-63.246-54.347-72.535-98.033-4.405-20.717-4.013-41.142 3.892-61.06 1.681-4.237 3.621-8.368 5.442-12.546-10.322 13.119-20.189 26.45-29.268 40.301-9.193 14.026-13.535 29.911-14.025 46.565-.754 25.293 5.033 49.509 18.562 70.676 34.038 53.257 81.816 82.227 146.645 77.958 20.898-1.375 40.1-8.227 56.844-21.33 18.439-14.428 29.101-35.093 42.825-53.414zm2.02-75.498c-.19-.138-.386-.282-.577-.424-3.36 2.524-6.564 5.319-10.12 7.539-17.33 10.806-36.48 13.331-55.975 9.487-32.981-6.502-58.001-24.843-73.001-55.163-10.144-20.51-12.729-42.011-2.903-63.754.172-.379.023-.903.023-2.543-6.299 8.911-12.053 16.77-17.467 24.854-2.195 3.29-4.051 6.934-5.373 10.658-8.439 23.777-4.172 46.386 8.639 67.088 17.866 28.874 44.133 45.862 78.216 49 19.227 1.773 37.783-1.974 52.72-15.093 7.457-6.546 13.152-15.115 19.523-22.874 2.281-2.771 4.208-5.837 6.295-8.775z"/></svg>