<svg enable-background="new 0 0 120 100" viewBox="0 0 120 100" xmlns="http://www.w3.org/2000/svg"><path d="m59.7 10-4.8 16.4v.2 16.4l4.8 16.6 4.9-16.6v-16.4-.2z" fill="#bc473a"/><g fill="#1d3a45"><path d="m14.6 84c0 4-1.4 6-4.2 6-.4 0-.9-.1-1.3-.2v-1.1c.5.2.9.2 1.3.2 1.1 0 1.8-.4 2.3-1.2s.7-2.1.7-3.8v-10.8h1.1v10.9z"/><path d="m18.1 89.1v-1.3c1.2.8 2.4 1.1 3.6 1.1 1.3 0 2.3-.3 2.9-.8.7-.5 1-1.3 1-2.2 0-.8-.2-1.5-.7-2s-1.4-1.2-2.9-2.1c-1.7-1-2.7-1.8-3.2-2.5-.4-.7-.7-1.4-.7-2.3 0-1.2.5-2.2 1.4-3s2.1-1.2 3.6-1.2c1 0 2 .2 3 .5v1.2c-1-.4-2-.7-3.1-.7s-2 .3-2.7.9-1 1.3-1 2.2c0 .8.2 1.5.7 2s1.4 1.2 2.9 2c1.5.9 2.6 1.7 3.1 2.3.5.7.8 1.5.8 2.4 0 1.3-.4 2.3-1.3 3.1s-2.1 1.2-3.7 1.2c-.6 0-1.2-.1-2-.3-.8 0-1.4-.2-1.7-.5z"/><path d="m30.1 89.7v-16.6h5.9c5.9 0 8.8 2.7 8.8 8.1 0 2.6-.8 4.6-2.4 6.2-1.6 1.5-3.7 2.3-6.4 2.3zm3.7-13.5v10.5h1.8c1.6 0 2.9-.5 3.8-1.5s1.4-2.3 1.4-4c0-1.6-.5-2.8-1.4-3.7s-2.2-1.4-3.8-1.4h-1.8z"/><path d="m57.8 89.7h-9.9v-16.6h9.6v3h-5.8v3.7h5.3v3h-5.4v3.8h6.2z"/><path d="m70.8 89.7h-9.9v-16.6h3.7v13.5h6.1v3.1z"/><path d="m76.9 73.1v16.6h-3.7v-16.6z"/><path d="m94.7 73.1-5.7 16.6h-4.2l-5.6-16.6h4l3.5 11.5c.2.6.3 1.2.3 1.7.1-.5.2-1.1.4-1.7l3.4-11.5z"/><path d="m110.8 89.7h-4.3l-2.6-4.3c-.2-.3-.4-.6-.6-.9s-.4-.5-.5-.7c-.2-.2-.4-.3-.6-.4s-.4-.1-.6-.1h-1v6.3h-3.7v-16.5h5.9c4 0 6 1.5 6 4.5 0 .6-.1 1.1-.3 1.6s-.4.9-.8 1.3c-.3.4-.7.7-1.2 1s-1 .5-1.5.7c.2.1.5.2.7.4s.5.4.7.6.4.5.6.7c.2.3.4.5.5.8zm-10.2-13.8v4.6h1.6c.8 0 1.4-.2 1.9-.7s.7-1.1.7-1.7c0-1.4-.9-2.2-2.6-2.2z"/></g><path d="m59.7 10-22.9 8.3 3.3 30.5 19.6 10.8" fill="#e84d3d"/><path d="m59.7 59.6 19.8-10.9 3.7-30.6-23.5-8.1" fill="#bc473a"/><path d="m55.6 46.9c-2.3-.7-4.3-2-5.9-3.6-.2-.2-.4-.4-.6-.6-1.2-1.5-2.2-3.2-2.8-5.1.4.3.8.7 1.2 1 .6.4 1.2.8 1.9 1.1.2.1.4.2.6.3.3.1.5.2.8.3h.1.1c.1 1.1 1 2 2.1 2.2.5 1.7 1.3 3.2 2.5 4.4z" fill="#fdc72e"/><path d="m56.4 27.1c0 .5.1.9.4 1.3-1.9 2.6-3.1 5.4-3.7 8.2-.1.3-.1.6-.2.9-.6.2-1.2.6-1.5 1.1 0 0 0 0-.1 0h-.1c-.2-.1-.4-.1-.6-.2-.3-.1-.6-.3-.9-.4-1-.5-1.9-1.1-2.7-1.9-.2-.2-.3-.3-.5-.5l-.1-.1c-.1-.1-.1-.1-.2-.2 0 0 0-.1-.1-.1 0 0 0 0-.1-.1s-.1-.1-.1-.1 0 0-.1-.1-.2-.2-.2-.3c0 0 0 0 0-.1 0-.3 0-.6 0-.9 0-2.8.8-5.4 2.3-7.6.2-.3.3-.5.5-.8.2-.2.4-.5.6-.7 1.7-2 3.9-3.4 6.4-4.2 0 .3.1.5.1.8.3 1.4.8 2.9 1.4 4.3-.2.4-.5 1-.5 1.7z" fill="#fdc72e"/><path d="m54.9 40c0 .3-.1.6-.3.9 0 .1-.1.1-.1.1-.2.2-.5.3-.9.3-.3 0-.5-.1-.7-.2s-.4-.3-.5-.6c-.1-.2-.1-.4-.1-.6 0-.4.2-.7.4-1 0 0 .1-.1.1-.1.2-.2.5-.3.8-.3s.6.1.8.3l.3.3c.2.4.2.6.2.9z" fill="#fdc72e"/><path d="m60.3 27.1c0 .2-.1.4-.1.6-.2.4-.7.7-1.2.7-.1 0-.1 0-.2 0-.6-.1-1-.5-1.1-1.1 0-.1 0-.1 0-.2 0-.2 0-.3.1-.4.2-.5.7-.9 1.3-.9h.1c.6 0 1.1.4 1.2 1-.1 0-.1.1-.1.3z" fill="#fdc72e"/><path d="m73.7 33.5c0 1.3-.2 2.7-.5 3.9-1.2-.3-2.4-.8-3.6-1.4 0-.2 0-.3 0-.5 0-.3-.1-.7-.2-.9 0 0 .1-.1.1-.1 1.4-1.5 2.6-3.1 3.6-4.8.4 1.2.6 2.5.6 3.8z" fill="#e09b00"/><path d="m72.4 27.7c-.1.2-.2.4-.3.6-.9 1.8-2.2 3.5-3.7 5.1-.4-.2-.9-.4-1.3-.4-.6 0-1.1.2-1.5.5-.8-.6-1.5-1.3-2.2-2-.9-.9-1.7-1.9-2.5-2.8.4-.4.6-1 .6-1.6 0-.5-.1-.9-.4-1.3 1.8-1.7 3.8-3.1 5.8-4.2 2.4 1.5 4.3 3.6 5.5 6.1z" fill="#e09b00"/><path d="m68.4 35.6c0 .6-.3 1-.8 1.2-.2.1-.3.1-.5.1-.1 0-.2 0-.3 0-.6-.1-1-.6-1.1-1.2s0 0 0-.1c0-.6.4-1.1.9-1.3.1-.1.3-.1.5-.1.1 0 .3 0 .4.1.5.2.9.6 1 1.2-.1 0-.1 0-.1.1z" fill="#e09b00"/><path d="m68.8 37.4c-.4.4-1 .7-1.7.7-.5 0-1-.2-1.4-.4-.1 0-.1.1-.2.1-1.8 1.2-3.8 2-5.8 2.5v7.2c5.8 0 10.8-3.5 12.9-8.6-1.3-.3-2.6-.8-3.8-1.5z" fill="#e09b00"/><path d="m59.7 40.3c-1.2.3-2.4.5-3.6.5-.1 0-.1 0-.2 0-.2.6-.7 1.1-1.2 1.4.4 1.4 1 2.5 2 3.5.8.8 1.7 1.4 2.8 1.8h.2z" fill="#fdc72e"/><path d="m64.5 35.6c0-.3 0-.5.1-.7-.8-.7-1.6-1.4-2.4-2.1-.9-.9-1.7-1.9-2.5-2.9v8.9c1.7-.5 3.3-1.2 4.9-2.2 0-.5-.1-.7-.1-1z" fill="#e09b00"/><path d="m59.7 29.8c-.1-.1-.1-.2-.2-.3-.2 0-.4.1-.6.1-.3 0-.7-.1-.9-.2-1.7 2.4-2.8 5-3.3 7.5 0 .2-.1.5-.1.7.7.3 1.3.9 1.5 1.6h.1c1.2-.1 2.4-.3 3.6-.6v-8.8z" fill="#fdc72e"/><path d="m59.7 19.6v5.1c.1 0 .1 0 .2.1 1.6-1.6 3.4-2.9 5.3-4-1.6-.8-3.5-1.2-5.5-1.2z" fill="#e09b00"/><path d="m59.7 19.6c-.9 0-1.8.1-2.6.2 0 .3.1.6.2.9.3 1.3.7 2.6 1.2 3.8h.5c.3 0 .5 0 .8.1v-5z" fill="#fdc72e"/></svg>