<svg height="76.949" viewBox="0 0 130.60352 76.948776" width="130.6" xmlns="http://www.w3.org/2000/svg"><g fill="#527d97"><path d="m3.5254 0c-1.7704.0019531-3.5254 2.002-3.5254 3.5215v58.826c0 1.7559 1.755 3.5137 3.5273 3.5117h15.652v-4h-14c-.5855-.003-1.1793-.592-1.1793-1.174v-55.506c0-.5843.5938-1.182 1.1816-1.18h120.24c.59766-.00195 1.1797.5957 1.1816 1.1797v55.506c-.002.58203-.58398 1.1719-1.1816 1.1738h-100.6v4h102.25c1.5312.002 3.5274-1.7559 3.5293-3.5117v-58.828c0-1.518-1.99-3.518-3.52-3.52z" fill-rule="evenodd"/><path d="m19.33 49.9v-32.87h5.09v16.298l13.519-16.298h6.237l-12.228 14.111 12.452 18.759h-5.7969l-10.549-15.402-3.6342 4.0101v11.392z"/><path d="m63.384 21.52-4.6201 14.482 9.563-.000252zm-3.0881-4.49h6.199l12.416 32.87h-6.1674l-3.0872-8.748h-12.883l-3.0872 8.748h-5.8291z"/><path d="m82.704 17.03h4.8062v28.52h14.24v4.03h-19.046z"/><path d="m106.09 17.03h4.8203v32.55h-4.8203z"/><path d="m2.4186 73.779v2.337h1.4894q.74932 0 1.1079-.28626.36317-.29053.36317-.8844 0-.59814-.36317-.88013-.3585-.286-1.1078-.286h-1.4894zm0-2.6233v1.9226h1.3745q.68036 0 1.0114-.23499.33559-.23926.33559-.72632 0-.48279-.33559-.72205-.33099-.23926-1.0114-.23926h-1.3745zm-.9286-.71h2.3721q1.0619 0 1.6366.41016.57463.41016.57463 1.1664 0 .58533-.29421.9314t-.86425.43152q.68496.13672 1.0619.57251.38156.43152.38156 1.0809 0 .85449-.6252 1.3202-.6252.4657-1.7791.4657h-2.464v-6.3788z"/><path d="m7.6299 70.446h.92712l1.7688 2.6233 1.756-2.6233h.92712l-2.256 3.3411v3.0377h-.86714v-3.0377z"/><path d="m21.333 71.031q-.93994 0-1.4954.70068-.55115.70068-.55115 1.9098 0 1.2048.55115 1.9055.55542.70068 1.4954.70068.93994 0 1.4868-.70068.55115-.70068.55115-1.9055 0-1.2091-.55115-1.9098-.54688-.70068-1.4868-.70068zm0-.70068q1.3416 0 2.1448.90149.80322.89722.80322 2.4097 0 1.5082-.80322 2.4097-.80322.89722-2.1448.89722-1.3458 0-2.1533-.89722-.80322-.89722-.80322-2.4097t.80322-2.4097q.8075-.90149 2.1533-.90149z"/><path d="m27.032 70.446h3.6658v.72632h-2.8027v1.8799h2.5293v.72632h-2.5293v3.0463h-.86304v-6.3788z"/><path d="m33.274 70.446h3.6658v.72632h-2.8027v1.8799h2.5293v.72632h-2.5293v3.0463h-.86304v-6.3788z"/><path d="m38.915 70.446h4.0332v.72632h-3.1702v1.8884h3.0377v.72632h-3.0377v2.3114h3.2471v.72632h-4.1101v-6.3788z"/><path d="m45.552 70.446h1.1621l2.8284 5.3363v-5.3363h.8374v6.3788h-1.1621l-2.8284-5.3363v5.3363h-.8374z"/><path d="m57.521 70.655v.84168q-.49133-.23498-.92712-.35034t-.84168-.11536q-.70496 0-1.0895.27344-.38025.27344-.38025.77759 0 .42297.25208.64087.25635.21362.96558.34607l.52124.10681q.96558.18372 1.4227.64941.46142.46143.46142 1.239 0 .92712-.62378 1.4056-.61951.47852-1.8201.47852-.45288 0-.96558-.10254-.50842-.10254-1.0553-.30334v-.88867q.52551.2948 1.0297.44434.50415.14954.99121.14954.73914 0 1.1407-.29053.40161-.29053.40161-.82886 0-.46997-.29053-.73486-.286-.265-.944-.397l-.52551-.10254q-.96558-.19226-1.3971-.60242t-.43152-1.1407q0-.84595.59387-1.333.59814-.48706 1.6449-.48706.44861 0 .91431.08118t.95276.24353z"/><path d="m59.951 70.446h.86304v6.3788h-.86304z"/><path d="m65.476 76.825-2.4353-6.3788h.90149l2.0209 5.3705 2.0251-5.3705h.89722l-2.431 6.3788h-.97839z"/><path d="m70.313 70.446h4.0332v.72632h-3.1702v1.8884h3.0377v.72632h-3.0377v2.3114h3.2471v.72632h-4.1101v-6.3788z"/><path d="m84.061 70.655v.84168q-.49133-.23498-.92712-.35034t-.84168-.11536q-.70496 0-1.0895.27344-.38025.27344-.38025.77759 0 .42297.25208.64087.25635.21362.96558.34607l.52124.10681q.96558.18372 1.4227.64941.46142.46143.46142 1.239 0 .92712-.62378 1.4056-.61951.47852-1.8201.47852-.45288 0-.96558-.10254-.50842-.10254-1.0553-.30334v-.88867q.52551.2948 1.0297.44434.50415.14954.99121.14954.73914 0 1.1407-.29053.40161-.29053.40161-.82886 0-.46997-.29053-.73486-.286-.265-.944-.397l-.52551-.10254q-.96558-.19226-1.3971-.60242t-.43152-1.1407q0-.84595.59387-1.333.59814-.48706 1.6449-.48706.44861 0 .91431.08118t.95276.24353z"/><path d="m86.391 70.446h4.0332v.72632h-3.1702v1.8884h3.0377v.72632h-3.0377v2.3114h3.2471v.72632h-4.1101v-6.3788z"/><path d="m97.504 70.937v.91003q-.43579-.40588-.9314-.60669-.49133-.2008-1.0468-.2008-1.0938 0-1.6748.67078-.58105.6665-.58105 1.9312 0 1.2604.58105 1.9312.58106.6665 1.6748.6665.55542 0 1.0468-.20081.49561-.20081.9314-.60669v.90149q-.45288.30762-.9613.46143-.50415.15381-1.0681.15381-1.4484 0-2.2815-.8844-.83313-.88867-.83313-2.4225 0-1.5381.83313-2.4225.83313-.88867 2.2815-.88867.57251 0 1.0767.15381.50842.14954.95276.45288z"/><path d="m99.848 70.446h.86732v3.8751q0 1.0254.3717 1.4783.3717.44861 1.2048.44861.82886 0 1.2006-.44861.3717-.45288.3717-1.4783v-3.8751h.86731v3.9819q0 1.2476-.61951 1.8842-.61523.6366-1.8201.6366-1.2091 0-1.8286-.6366-.61524-.6366-.61524-1.8842v-3.9819z"/><path d="m110.78 73.834q.27771.09399.53833.40161.26489.30762.52978.84595l.87586 1.7432h-.92713l-.81604-1.6364q-.31616-.64087-.61523-.85022-.2948-.20935-.8075-.20935h-.93994v2.6959h-.86304v-6.3788h1.9482q1.0938 0 1.6321.45715.53833.45715.53833 1.38 0 .60242-.28199.99976-.27771.39734-.81176.55115zm-2.1619-2.6788v2.2644h1.0852q.62378 0 .93994-.28625.32043-.29053.32043-.85022t-.32043-.84168q-.31616-.28626-.93994-.28626h-1.0852z"/><path d="m114.84 70.446h.86304v6.3788h-.86304z"/><path d="m117.53 70.446h5.3961v.72632h-2.2644v5.6525h-.86731v-5.6525h-2.2644v-.72632z"/><path d="m124.09 70.446h.92712l1.7688 2.6233 1.756-2.6233h.92712l-2.2559 3.3411v3.0377h-.86731v-3.0377l-2.2559-3.3411z"/></g></svg>