<svg height="927" viewBox="0 0 62 23" width="2500" xmlns="http://www.w3.org/2000/svg"><path d="m136.75 108.2h-2.024a.2.2 0 0 0 -.2.2v17.155a.2.2 0 0 0 .2.2h2.024a.2.2 0 0 0 .2-.2v-17.155a.2.2 0 0 0 -.2-.2m-10.123-.2c-5.466 0-5.466 1.543-5.466 8.976v8.578a.2.2 0 0 0 .2.2h2.228a.2.2 0 0 0 .2-.2v-6.383h5.669v6.383a.2.2 0 0 0 .2.2h2.227a.2.2 0 0 0 .2-.2v-8.578c0-7.386 0-8.976-5.467-8.976m-2.834 8.976c0-6.782 0-6.782 2.834-6.782s2.835 0 2.835 6.782zm-20.448-4.189c-4.455 0-4.455 1.132-4.455 6.583s0 6.583 4.455 6.583c3.468 0 4.235-.707 4.405-3.578a.2.2 0 0 0 -.2-.212h-2.029a.2.2 0 0 0 -.2.185c-.124 1.61-.544 1.61-1.972 1.61-1.9 0-2.017 0-2.025-3.79h6.285a.2.2 0 0 0 .2-.2v-.6c0-5.417 0-6.583-4.454-6.583m-2.023 5.386c.017-3.39.192-3.391 2.023-3.391s2 0 2.022 3.391zm-20.857-10.171c-5.466 0-5.466 1.543-5.466 8.976s0 8.977 5.466 8.977 5.467-1.59 5.467-8.977 0-8.976-5.467-8.976m0 15.759c-2.834 0-2.834 0-2.834-6.783s0-6.782 2.834-6.782 2.834 0 2.834 6.782 0 6.783-2.834 6.783m33.811-10.972c-1.366 0-2.074.279-2.44 1.17l-.318-.782a.3.3 0 0 0 -.282-.188h-1.211a.2.2 0 0 0 -.2.2v12.368a.2.2 0 0 0 .2.2h2.024a.2.2 0 0 0 .2-.2v-6.185c0-4.588 0-4.588 2.024-4.588s2.025 0 2.025 4.588v6.184a.2.2 0 0 0 .2.2h2.025a.2.2 0 0 0 .2-.2v-6.184c0-5.451 0-6.583-4.455-6.583m-21.865 0c-1.366 0-2.074.279-2.44 1.17l-.318-.782a.3.3 0 0 0 -.282-.188h-1.204a.2.2 0 0 0 -.2.2v16.956a.2.2 0 0 0 .2.2h2.025a.2.2 0 0 0 .2-.2v-4.727a2.822 2.822 0 0 0 2.025.538c4.454 0 4.454-1.131 4.454-6.583s0-6.583-4.454-6.583m0 11.171c-2.025 0-2.025 0-2.025-4.588s0-4.588 2.025-4.588 2.025 0 2.025 4.588 0 4.588-2.025 4.588" fill="#a2a6b8" fill-rule="evenodd" transform="translate(-75 -108)"/></svg>