<svg height="300" preserveAspectRatio="xMidYMid meet" viewBox="0 0 640 640" width="300" xmlns="http://www.w3.org/2000/svg" xmlns:xlink="http://www.w3.org/1999/xlink"><defs><path id="a" d="m249.75 391.53 60.83-4.81 11.59-9.15-3.38-5.78-39.59 5.78z"/><path id="b" d="m411.01 554.72v8.67l-19.8-8.19-2.41 4.33 18.35 9.15 7.72 18.77-18.35-15.4h-3.86l3.86 47.18-23.17-26.96-1.93-27.44 10.62-23.59z"/><path id="c" d="m376.74 569.64v22.15l-29.94 12.51-18.35-32.73v-95.8l7.73-14.92 2.9 2.41 4.34 74.13z"/><path id="d" d="m447.22 473.37v9.14l-19.31-8.66-2.42 4.33 17.38 8.67 8.21 19.73-17.38-15.88h-3.86l3.38 46.69-25.11-28.88-.96-21.66 11.1-26.96z"/><path id="e" d="m411.01 489.73v17.81l-48.28 18.3-16.9-35.63-3.86-23.1 11.1-7.22 32.83-1.93 7.73 20.22z"/><path id="f" d="m346.8 409.34-47.8-12.51-90.77 90.01v58.73l22.69 77.51v-40.92l54.08-131.42z"/><path id="g" d="m440.94 412.71c-3.79 3.15-22.78 18.87-56.97 47.18h-30.9l94.15-61.62h52.15c-31.16 7.7-50.64 12.52-58.43 14.44z"/><path id="h" d="m599.31 395.38-27.52 14.45-102.36-41.88-2.41-28.41 56.97 3.85 52.15 14.93z"/><path id="i" d="m566.48 393.94-.96-1.44 10.14-7.71 14.48 8.19-.97 1.92-13.51-7.7z"/><path id="j" d="m460.26 325.58v63.06l-42.01-15.88-82.08-41.88 14.49-32.74z"/><path id="k" d="m438.05 260.6 1.45-45.25 47.8 93.87z"/><path id="l" d="m439.98 201.39-232.24-198.33 34.28 94.35 135.19 129.97 92.22 100.13z"/><path id="m" d="m288.86 196.09 88.36 31.29-180.58-174.26 7.73 46.69z"/><path id="n" d="m181.19 229.79 76.29 75.09-81.12-24.06-21.24-14.45-68.08-62.09z"/><path id="o" d="m333.75 366.02-90.28-8.18-71.46-38.51 163.68 30.8z"/><path id="p" d="m273.4 379.98-55.52-17.81 119.26 4.33 116.36 9.63 13.52 25.03-28.97-5.29-63.25-5.78-45.87-17.33-19.31 10.59z"/><path id="q" d="m326.04 325.58 92.21 47.18-84.49-6.74-107.67-32.25-98.01-68.36z"/><path id="r" d="m187.95 259.63 69.52 45.25 78.7 26 14.49-32.74-297.42-177.63 55.04 77.99z"/><path id="s" d="m127.11 171.06 223.55 127.08 118.77 29.37-92.22-100.13-336.52-174.26z"/><path id="t" d="m460.26 325.58 9.17 1.93v1.92l54.56 13.96-47.31 6.74 37.66 15.89-37.66.96 59.38 23.59 35.73 19.25 1.93 8.19-56.49-19.74h-50.21l-6.76-10.11z"/><path id="u" d="m584.83 440.15h-14.97l6.76-11.55-4.83-18.77 27.52-14.45v32.26z"/><path id="v" d="m289.82 557.61-2.41 3.37 7.73 77.02-49.25-93.39 42-99.16 86.91-55.36 72.43 7.7v.48l-118.78 77.5-10.14-14.92-39.11 83.28z"/><path id="w" d="m208.22 494.07-36.21 42.84 12.55-46.69 37.66-51.51 106.71-65.95 45.86 17.33z"/><path id="x" d="m328.45 592.75 14.97 37.07-64.22-85.69 39.11-83.28 10.14 14.92z"/><path id="y" d="m164.77 480.59 30.9-41.4-30.9 25.03z"/><path id="z" d="m201.95 602.86-11.59-7.22v-39.96l6.28 14.92z"/></defs><use fill="#acd2b4" xlink:href="#a"/><use fill="none" xlink:href="#a"/><use fill="#3a3a3a" xlink:href="#b"/><use fill="none" xlink:href="#b"/><use fill="#8fc19a" xlink:href="#c"/><use fill="none" xlink:href="#c"/><use fill="#3a3a3a" xlink:href="#d"/><use fill="none" xlink:href="#d"/><use fill="#678a6f" xlink:href="#e"/><use fill="none" xlink:href="#e"/><use fill="#3a3a3a" xlink:href="#f"/><use fill="none" xlink:href="#f"/><use fill="#3a3a3a" xlink:href="#g"/><use fill="none" xlink:href="#g"/><use fill="#79a281" xlink:href="#h"/><use fill="none" xlink:href="#h"/><use fill="#3a3a3a" xlink:href="#i"/><use fill="none" xlink:href="#i"/><use fill="#8fc19a" xlink:href="#j"/><use fill="none" xlink:href="#j"/><use fill="#7aa383" xlink:href="#k"/><use fill="none" xlink:href="#k"/><use fill="#cce2d2" xlink:href="#l"/><use fill="none" xlink:href="#l"/><use fill="#acd2b4" xlink:href="#m"/><use fill="none" xlink:href="#m"/><use fill="#393839" xlink:href="#n"/><use fill="none" xlink:href="#n"/><use fill="#acd2b4" xlink:href="#o"/><use fill="none" xlink:href="#o"/><use fill="#678a6f" xlink:href="#p"/><use fill="none" xlink:href="#p"/><use fill="#cce1d1" xlink:href="#q"/><use fill="none" xlink:href="#q"/><use fill="#78a381" xlink:href="#r"/><use fill="none" xlink:href="#r"/><use fill="#393839" xlink:href="#s"/><use fill="none" xlink:href="#s"/><use fill="#cce1d1" xlink:href="#t"/><use fill="none" xlink:href="#t"/><use fill="#3a3a3a" xlink:href="#u"/><use fill="none" xlink:href="#u"/><use fill="#cde3d2" xlink:href="#v"/><use fill="none" xlink:href="#v"/><use fill="#8fc19a" xlink:href="#w"/><use fill="none" xlink:href="#w"/><use fill="#78a381" xlink:href="#x"/><use fill="none" xlink:href="#x"/><use fill="#3a3a3a" xlink:href="#y"/><use fill="none" xlink:href="#y"/><use fill="#678a6f" xlink:href="#z"/><use fill="none" xlink:href="#z"/></svg>