<svg enable-background="new 0 0 600 600" viewBox="0 0 600 600" xmlns="http://www.w3.org/2000/svg"><g fill="#00d8ff"><circle cx="299.5" cy="299.6" r="50.2"/><path d="m299.5 414.6c-70.5 0-132.1-8.3-178.2-24.1-29.9-10.2-55.3-23.8-73.4-39.3-19.2-16.4-29.4-34.3-29.4-51.6 0-33.2 36.4-65.7 97.5-86.9 50-17.4 115.2-27.1 183.4-27.1 67 0 131.3 9.4 181 26.6 29.1 10 53.6 23 71 37.4 18.9 15.8 28.9 33.1 28.9 50 0 34.5-40.7 69.4-106.3 91.1-46.4 15.4-108.4 23.9-174.5 23.9zm0-205c-64.7 0-128.7 9.4-175.5 25.7-56.2 19.6-81.4 46.4-81.4 64.3 0 18.6 27.1 47.9 86.5 68.2 43.6 14.9 102.6 22.8 170.4 22.8 63.6 0 122.9-8 167-22.7 61.7-20.5 89.9-49.8 89.9-68.3 0-9.5-7.2-20.7-20.3-31.6-15.1-12.6-37.1-24.1-63.4-33.2-47.3-16.2-108.8-25.2-173.2-25.2z"/><path d="m185.6 549.8c-10.2 0-19.2-2.2-26.8-6.6-28.7-16.6-38.7-64.4-26.6-127.9 9.9-52.1 34.1-113.3 68.2-172.4 33.5-58 73.7-109 113.4-143.5 23.2-20.2 46.7-35 67.9-42.8 23.1-8.5 43.1-8.5 57.7-.1 29.9 17.2 39.8 70 25.8 137.6-9.9 48-33.5 105.9-66.5 163.2-35.2 61-73.2 110.2-109.9 142.3-23.8 20.8-48.3 36-70.7 43.9-11.7 4.2-22.7 6.3-32.5 6.3zm25.1-300.9 10.4 6c-32.3 56-56.2 116.1-65.4 164.9-11.1 58.5-.4 93.7 15 102.6 3.8 2.2 8.8 3.4 14.9 3.4 19.9 0 51.2-12.6 87.4-44.2 34.7-30.3 71-77.5 104.9-136.2 31.8-55.1 54.4-110.5 63.8-156 13.1-63.7 1.8-102.7-14.3-112-8.2-4.7-21.5-4.1-37.5 1.8-18.5 6.8-39.4 20.1-60.4 38.4-37.7 32.8-76.2 81.6-108.4 137.4z"/><path d="m413.4 550.1c-27.2 0-61.7-16.4-97.7-47.4-40.2-34.6-81.1-86.1-115.3-145.2-33.6-58-57.6-118.3-67.7-170-5.9-30.2-7-57.9-3.2-80.2 4.2-24.3 14.1-41.6 28.8-50.1 29.8-17.3 80.5.5 132.1 46.4 36.6 32.5 75 81.9 108.1 139.1 35.3 61 59 118.5 68.4 166.3 6.1 31 7.1 59.8 2.8 83.2-4.6 24.9-15 42.6-30 51.3-7.5 4.4-16.4 6.6-26.3 6.6zm-192.2-204.6c32.4 56 72.6 106.7 110.2 139 45.1 38.8 80.9 47.2 96.4 38.2 16.1-9.3 27.9-47.4 15.7-109-9-45.2-31.7-100.2-65.7-158.9-31.9-55.1-68.6-102.4-103.3-133.2-48.6-43.2-88-52.9-104.1-43.6-8.2 4.7-14.3 16.6-17.2 33.4-3.3 19.4-2.3 44.2 3.1 71.5 9.6 49.1 32.6 106.8 64.9 162.6z"/></g></svg>