<svg height="196" viewBox="0 0 196 196" width="196" xmlns="http://www.w3.org/2000/svg"><g fill="none" fill-rule="evenodd"><path d="m0 0h196v196h-196z" fill="#222"/><path d="m110.485 149.66-15.95-43.79h-9.715v43.79h-16.82v-102.66h29.29c4.253355 0 8.168315.5558278 11.745 1.6675s6.645821 2.8758212 9.2075 5.2925 4.567493 5.4616483 6.0175 9.135 2.175 8.071641 2.175 13.195c0 3.9633532-.507495 7.4674848-1.5225 10.5125s-2.295826 5.6308227-3.8425 7.7575-3.262491 3.8424935-5.1475 5.1475c-1.885009 1.305007-3.745824 2.199164-5.5825 2.6825l18.415 47.27zm-1.16-72.5c0-3.0933488-.434996-5.6549898-1.305-7.685s-2.005826-3.6249942-3.4075-4.785-2.972491-1.9816642-4.7125-2.465c-1.7400087-.4833358-3.4799913-.725-5.22-.725h-9.86v31.61h9.86c4.2533546 0 7.757486-1.3291534 10.5125-3.9875s4.1325-6.6458067 4.1325-11.9625z" fill="#fff"/></g></svg>