<svg height="108.4" viewBox="0 0 500 108.4" width="500" xmlns="http://www.w3.org/2000/svg"><path d="m15.2 11.1 10.1-1.7c0 .8-.1 1.5-.3 2.1s-.4 1.1-.5 1.4l-1.6 14h19.4v7.5h-19.3c-.8 7.7-1.2 14.9-1.2 21.7 0 4.2.1 7.7.3 10.5s.6 5.1 1.4 6.8c.7 1.6 1.8 2.9 3.2 3.8s3.2 1.4 5.6 1.4c4 0 8.4-1.8 13.2-5.4l2.9 7.4c-5.9 4.4-12.1 6.6-18.3 6.6s-10.7-1.9-13.6-5.6c-2.8-3.8-4.1-9.9-3.9-18.3 0-3.1.1-7.1.3-11.9s.5-10.4 1-16.8h-13.9v-7.5h14.2zm49.4 74.8v-85.9h10.6c0 .1 0 .1.1.1 0 0 .1 0 .1.1 0 .3-.2.6-.6 1.1s-.7 1.1-.8 1.7v34.2c2.3-3.6 5.3-6.5 8.8-8.7s7.1-3.2 10.7-3.2c2.7 0 5.1.5 7.3 1.4s4.1 2.3 5.8 4.3c1.6 2 2.9 4.5 3.8 7.6s1.3 6.9 1.3 11.4v35.8h-9.3v-35.4c0-6.2-1.1-10.5-3.2-13s-4.7-3.7-7.7-3.7c-2 0-4 .4-5.9 1.3-2 .9-3.9 2.1-5.7 3.6-1.9 1.6-3.3 3.4-4.3 5.7-1 2.2-1.5 4.8-1.5 7.8v34h-9.5zm68.3-59h9.6l-.3 11.4c1.8-4.1 4.7-7.3 8.6-9.5s8.1-3.3 12.6-3.3c6.4 0 11.7 2.2 15.8 6.5l-4.3 8.9c-1-1.3-1.8-2.4-2.6-3.2-.8-.9-1.6-1.6-2.5-2.2s-1.9-1.1-3-1.4-2.4-.5-4-.5c-2.9 0-5.5.7-8 2s-4.7 3.1-6.5 5.3c-1.9 2.2-3.4 4.7-4.5 7.6-1.1 2.8-1.7 5.8-1.7 8.9v28.6h-9.3v-59.1zm85.3-1.4c3.1 0 6.1.6 9 1.7s5.5 2.8 7.7 5.1 4 5.2 5.3 8.7 2 7.7 2 12.5c0 .7 0 1.4-.1 2.1 0 .7-.1 1.4-.2 2.1h-42c.2 4.1.9 7.6 2.1 10.4s2.8 5.1 4.7 6.8 4 3 6.3 3.7 4.7 1.1 7 1.1c6.1 0 11.2-2.2 15.2-6.6l5.2 5c-5 6-11.9 9-20.7 9-4.3 0-8.2-.7-11.8-2s-6.6-3.3-9.1-5.9-4.4-5.8-5.8-9.6-2.1-8.2-2.1-13.1c0-5 .7-9.4 2.1-13.3s3.4-7.1 5.8-9.8c2.5-2.6 5.3-4.6 8.6-6 3.5-1.3 7-1.9 10.8-1.9zm-17.8 24.8h32.4c0-.3 0-.7.1-1 0-.3.1-.7.1-1.1 0-2.1-.4-4.1-1.2-6s-1.9-3.6-3.3-5-3-2.5-4.8-3.4c-1.9-.8-3.9-1.3-6-1.3-4 0-7.7 1.4-11 4.3-3.4 2.9-5.5 7.3-6.3 13.5zm82.4-24.8c3.1 0 6.1.6 9 1.7s5.5 2.8 7.7 5.1 4 5.2 5.3 8.7 2 7.7 2 12.5c0 .7 0 1.4-.1 2.1 0 .7-.1 1.4-.2 2.1h-42c.2 4.1.9 7.6 2.1 10.4s2.8 5.1 4.7 6.8 4 3 6.3 3.7 4.7 1.1 7 1.1c6.1 0 11.2-2.2 15.2-6.6l5.2 5c-5 6-11.9 9-20.7 9-4.3 0-8.2-.7-11.8-2s-6.6-3.3-9.1-5.9-4.4-5.8-5.8-9.6-2.1-8.2-2.1-13.1c0-5 .7-9.4 2.1-13.3s3.4-7.1 5.8-9.8c2.5-2.6 5.3-4.6 8.6-6 3.5-1.3 7-1.9 10.8-1.9zm-17.8 24.8h32.4c0-.3 0-.7.1-1 0-.3.1-.7.1-1.1 0-2.1-.4-4.1-1.2-6s-1.9-3.6-3.3-5-3-2.5-4.8-3.4c-1.9-.8-3.9-1.3-6-1.3-4 0-7.7 1.4-11 4.3-3.4 2.9-5.5 7.3-6.3 13.5zm85.1 24.4c1.6 1.6 2.3 3.3 2.3 5.3s-.8 3.7-2.3 5.2-3.3 2.2-5.5 2.2-4-.7-5.4-2.1c-1.5-1.4-2.2-3.2-2.2-5.2s.8-3.8 2.3-5.3c1.6-1.5 3.3-2.2 5.3-2.2 2.1-.1 3.9.6 5.5 2.1zm44.7-47.8h31.4v56.2c0 4.5-.6 8.3-1.8 11.4s-2.9 5.7-5 7.7-4.6 3.5-7.4 4.5-5.9 1.6-9.2 1.7c-7.6 0-13.6-2.8-18.1-8.3l6.1-8c.4.4.7.9.7 1.3s.2.9.5 1.4.8 1.1 1.6 1.7 2.1 1.4 3.9 2.4c1.9.9 3.9 1.4 6.1 1.4 3.9 0 7.1-1.3 9.6-3.9s3.8-6.9 3.8-12.9v-49.1h-22.1v-7.5zm22-23.8c1.3-1.3 2.9-1.9 4.8-1.9 1.8 0 3.4.6 4.7 1.9s2 2.9 2 4.8c0 1.8-.7 3.4-2 4.7s-2.9 1.9-4.7 1.9-3.4-.6-4.7-1.9-2-2.8-2-4.7.6-3.5 1.9-4.8zm82.2 31.7-5.4 8.1c-.4-.1-.7-.4-.7-1s-.1-1-.3-1.3c-1.6-2-3.8-3.8-6.6-5.5-2.9-1.7-6.1-2.5-9.8-2.5-1.7 0-3.2.2-4.8.6-1.5.4-2.9.9-4 1.6-1.2.7-2.1 1.6-2.8 2.6-.7 1.1-1 2.3-1 3.7 0 1 .3 2 .8 2.8s1.3 1.6 2.5 2.4c1.1.8 2.7 1.6 4.7 2.3 2 .8 4.7 1.6 8 2.6 7.5 2 12.7 4.3 15.8 7s4.6 6.1 4.6 10c0 2.6-.6 5-1.7 7.4-1.1 2.3-2.8 4.4-4.9 6.1-2.2 1.7-4.7 3.1-7.8 4.1-3 1-6.4 1.5-10.2 1.5-9.9 0-18.2-3.1-24.9-9.3l5.3-9.3c.3.3.4.7.5 1.3s.4 1.3.9 2c.5.8 1.5 1.7 2.9 2.7s3.5 2.1 6.4 3.4c1.3.6 2.8 1.1 4.4 1.3 1.6.3 3.3.4 4.9.4 1.7 0 3.5-.2 5.3-.6s3.4-1.1 4.8-1.9 2.6-1.8 3.5-3 1.3-2.5 1.3-4c0-2.3-1-4.2-3.1-5.7-2.1-1.6-5.9-3.2-11.5-4.8-3.8-1.1-6.3-1.9-7.5-2.3-3.1-1.2-5.4-2.3-6.8-3.2s-2.6-2-3.8-3.2c-1.1-1.3-2-2.7-2.7-4.3s-1-3.4-1-5.3c0-2.1.6-4.1 1.7-6s2.7-3.6 4.7-5.1 4.4-2.7 7.2-3.6 5.8-1.4 9.1-1.4c9 .1 16.4 3.2 22 9.4z" fill="#555"/></svg>