<svg clip-rule="evenodd" fill-rule="evenodd" viewBox="0 0 560 400" xmlns="http://www.w3.org/2000/svg" xmlns:xlink="http://www.w3.org/1999/xlink"><linearGradient id="a" gradientTransform="matrix(-129.458 -129.458 129.458 -129.458 341.592 265.195)" gradientUnits="userSpaceOnUse" x2="1"><stop offset="0" stop-color="#130036"/><stop offset=".23" stop-color="#18023b"/><stop offset=".51" stop-color="#26094a"/><stop offset=".82" stop-color="#3d1563"/><stop offset="1" stop-color="#4e1d75"/></linearGradient><linearGradient id="b" gradientTransform="matrix(38.436 0 0 38.436 188.295 178.869)" gradientUnits="userSpaceOnUse" x2="1"><stop offset="0" stop-color="#3156a8"/><stop offset=".25" stop-color="#3351a4"/><stop offset=".54" stop-color="#3b4397"/><stop offset=".85" stop-color="#472c82"/><stop offset="1" stop-color="#4e1d75"/></linearGradient><radialGradient id="c" cx="0" cy="0" gradientTransform="matrix(69.037 0 0 100.103 227.84 193.941)" gradientUnits="userSpaceOnUse" r="1"><stop offset="0" stop-color="#14cdda"/><stop offset=".17" stop-color="#14cdda"/><stop offset=".55" stop-color="#2061bd"/><stop offset=".65" stop-color="#2658ac"/><stop offset=".86" stop-color="#373f81"/><stop offset="1" stop-color="#432d62"/></radialGradient><linearGradient id="d" gradientTransform="matrix(119.029 0 0 119.029 216.07 148.569)" gradientUnits="userSpaceOnUse" x2="1"><stop offset="0" stop-color="#2061bd"/><stop offset=".18" stop-color="#2b51ac"/><stop offset=".68" stop-color="#442c84"/><stop offset=".94" stop-color="#4e1d75"/><stop offset="1" stop-color="#4e1d75"/></linearGradient><linearGradient id="e" gradientTransform="matrix(81.868 71.167 -71.167 81.868 233.591 120.474)" gradientUnits="userSpaceOnUse" x2="1"><stop offset="0" stop-color="#48a8e0"/><stop offset=".02" stop-color="#48a8e0"/><stop offset=".39" stop-color="#2061bd"/><stop offset=".5" stop-color="#2b51ac"/><stop offset=".79" stop-color="#442c84"/><stop offset=".94" stop-color="#4e1d75"/><stop offset="1" stop-color="#4e1d75"/></linearGradient><linearGradient id="f" gradientTransform="matrix(160.479 -237.92 237.92 160.479 195.935 374.935)" gradientUnits="userSpaceOnUse" x2="1"><stop offset="0" stop-color="#3156a8"/><stop offset=".38" stop-color="#3156a8"/><stop offset="1" stop-color="#4e1d75"/></linearGradient><linearGradient id="g" gradientTransform="matrix(88.737 -199.307 199.307 88.737 258.349 327.342)" gradientUnits="userSpaceOnUse" x2="1"><stop offset="0" stop-color="#29abe2"/><stop offset=".77" stop-color="#385aa6"/><stop offset=".86" stop-color="#414293"/><stop offset="1" stop-color="#4e1d75"/></linearGradient><linearGradient id="h" gradientTransform="matrix(4.837 2.782 -2.782 4.837 219.09 176.214)" gradientUnits="userSpaceOnUse" x2="1"><stop offset="0" stop-color="#b0dcd6"/><stop offset="1" stop-color="#53ace0"/></linearGradient><linearGradient id="i" gradientTransform="matrix(-9.697 -2.049 2.049 -9.697 322.707 120.376)" gradientUnits="userSpaceOnUse" x2="1"><stop offset="0" stop-color="#3092b9" stop-opacity=".12"/><stop offset=".22" stop-color="#258db6" stop-opacity=".12"/><stop offset=".66" stop-color="#1685b1" stop-opacity=".12"/><stop offset="1" stop-color="#1082af" stop-opacity=".12"/></linearGradient><linearGradient id="j" gradientTransform="matrix(7.98 32.005 -32.005 7.98 245.423 132.475)" gradientUnits="userSpaceOnUse" x2="1"><stop offset="0" stop-color="#1398d1" stop-opacity="0"/><stop offset=".01" stop-color="#1398d1" stop-opacity="0"/><stop offset=".25" stop-color="#1187c2" stop-opacity=".62"/><stop offset=".64" stop-color="#3f6499" stop-opacity=".71"/><stop offset="1" stop-color="#2f4282" stop-opacity=".498"/></linearGradient><linearGradient id="k" gradientTransform="matrix(-4.396 -2.642 2.642 -4.396 238.955 160.95)" gradientUnits="userSpaceOnUse" x2="1"><stop offset="0" stop-color="#f9c21b"/><stop offset=".15" stop-color="#f3ba1b"/><stop offset=".38" stop-color="#e3a41b"/><stop offset=".66" stop-color="#c9801c"/><stop offset=".99" stop-color="#a44e1c"/><stop offset="1" stop-color="#a34c1c"/></linearGradient><linearGradient id="l" gradientTransform="matrix(-29.788 -66.904 66.904 -29.788 347 207.074)" gradientUnits="userSpaceOnUse" x2="1"><stop offset="0" stop-color="#409ec3"/><stop offset=".62" stop-color="#2061bd"/><stop offset="1" stop-color="#2061bd"/></linearGradient><linearGradient id="m" gradientTransform="matrix(-21.342 -65.685 65.685 -21.342 323.149 185.145)" gradientUnits="userSpaceOnUse" x2="1"><stop offset="0" stop-color="#14b2da"/><stop offset=".4" stop-color="#297ccc"/><stop offset=".51" stop-color="#256fc5"/><stop offset=".65" stop-color="#2164bf"/><stop offset=".82" stop-color="#2061bd"/><stop offset=".98" stop-color="#2061bd"/><stop offset="1" stop-color="#2061bd"/></linearGradient><path d="m332.97 130.424c-11.744-7.671-26.762-10.154-35.051-11.021-8.871-.928-16.576-.764-23.353.231-.574-.008-1.145-.03-1.722-.03l-1.318.023.308-.36s-.356.056-1.056.372c-2.2.036-4.39.112-6.547.259 3.005-3.294 5.467-5.021 5.467-5.021s-2.922.428-8.254 5.261c-2.536.233-5.038.543-7.497.927 5.602-7.581 11.463-10.774 11.463-10.774s-7.104-1.446-18.227 9.731c-.931.936-1.794 1.908-2.629 2.893-32.419 7.845-55.621 28.78-55.621 53.384 0 4.826-1.482 10.132.115 15.431-.638 8.466.721 31.564.721 31.564s8.777 47.497 42.525 55.755c.537.128-7.051-11.84-10.407-26.273 6.535 6.647 14.322 11.904 23.063 12.815 1.073.111-4.993-6.997-10.305-15.577l76.691 25.839c40.111-17.228 35.441-15.676 44.053-25.004 18.973-20.537 21.629-32.191 16.85-66.598-3.234-23.225-20.376-46.228-39.269-53.827z" fill="url(#a)"/><path d="m198.373 152.115-11.452 65.115 6.35 19.675 126.761 42.145 23.508-99.955z" fill="#fbfbfb"/><path d="m198.73 154.329c.636 1.368.449 1.692.053 1.692-.178 0-.399-.066-.605-.131-.207-.065-.4-.13-.525-.13-.351 0-.153.518 1.833 3.013 2.808 3.568 44.055 65.835 46.309 65.835l.032-.005c19.201-6.842 100.861-34.871 100.861-34.871l-8.354-12.171z" fill="#999"/><path d="m199.928 152.799s.615 3.185 3.467 6.709c2.834 3.557 40.905 61.201 42.816 60.693 24.939-6.621 115.424-41.848 115.424-41.848z" fill="#f8f8f8"/><path d="m315.505 277.548-120.468-40.053.426 2.814 121.382 40.358z" fill="#999"/><path d="m226.732 150.106s-43.831 12.836-23.719 57.526c0 0-9.222-8.444-14.713-19.24-.247-.483 9.152-33.875 9.152-33.875z" fill="url(#b)"/><path d="m203.013 207.632c-3.812-.066-9.936-3.211-11.923-7.018-2.483 41.382 14.401 65.549 41.205 78.437-8.758-1.005-52.295-23.979-52.295-79.265 0-47.009 37.302-89.028 95.677-90.953.358 2.635-28.941 9.243-29.878 12.351-1.454 4.836-4.797 10.101-7.617 14.321-3.821 5.718 5.31 10.608-1.4 12.148-10.097 2.317-23.565 1.035-33.496 13.945-14.929 19.408-4.967 41.61-.273 46.034z" fill="url(#c)"/><path d="m290.988 110.345c-37.805-2.901-57.262 12.227-69.752 29.817-4.549 6.402-4.051 12.282-2.485 19.385.673 3.032 1.354 4.485.534 7.576-.452 1.706-.377 3.298-.938 4.304-.776 1.39-1.765 2.91-2.097 5.407-.827 6.235 1.38 8.221 2.759 10.318 1.965-1.951 5.802-6.543 12.723-9.285 6.92-2.743 11.473-6.866 20.145-11.291 11.85-6.043 25.739 3.126 52.074-5.503 8.103-2.656 26.726-30.243 31.147-31.303-12.312-13.615-33.258-18.593-44.11-19.425z" fill="url(#d)"/><path d="m266.012 101.707s-6.75 3.26-9.69 9.152c6.787-3.422 10.727-5.291 12.59-5.514 0 0-1.784.864-3.997 5.564 3.912-1.253 5.258-2.042 6.332-2.055 0 0-.311.494-.597 5.185-6.006-1.947-17.568.322-23.718 4.173-2.086-11.123 19.08-16.505 19.08-16.505z" fill="#3f6499"/><path d="m292.876 108.67c-11.588-1.502-21.275-1.206-29.51.38 2.59-2.482 5.586-3.705 5.586-3.705-3.883.344-8.731 2.879-12.89 5.562-2.096.669-4.093 1.424-5.985 2.267 1.158-1.526 2.506-3.157 3.823-4.409 4.89-4.651 12.152-7.058 12.152-7.058-6.198-.455-26.942 4.855-39.424 30.137-2.046 2.492-3.955 5.049-5.774 7.611-4.695 6.611-4.18 12.68-2.56 20.015.69 3.132.817 8.131.136 11.361-.136.647-1.914 2.319-2.37 6.826-.487 4.782 1.219 7.13 2.901 9.073 5.977-8.74 11.873-10.473 11.873-10.473 8.366-3.427 11.848-7.087 20.804-11.656 12.235-6.243 55.02 14.132 82.209 5.222 8.367-2.74-3.221-38.354 1.347-39.447-12.714-14.059-31.175-20.262-42.318-21.706z" fill="url(#e)"/><path d="m377.746 185.328c-6.703-35.015-38.951-66.87-64.883-68.636-11.509-.784-7.975 5.118-15.176 7.365-31.033 9.685-31.508 15.339-31.508 15.339 65.802 3.093 66.8 68.079 49.178 84.521 4.958-1.156 10.335-7.219 15.273-16.736-.593 3.993-1.102 8.892-1.842 14.357-2.258 16.679.666 51.518-47.26 74.835 0 0 26.217-2.143 39.217-16.778-5.286 12.157-19.793 18.724-19.793 18.724 10.675-1.561 38.719-9.836 56.582-32.176 20.219-25.288 26.299-49.012 20.212-80.815z" fill="url(#f)"/><path d="m313.619 249.252s21.377-5.976 28.267-17.519c-.836 13.459-13.045 27.261-13.045 27.261s17.848-3.612 25.459-16.171c-.991 11.333-14.732 26.65-14.732 26.65 14.047-2.521 49.344-24.818 38.179-84.145-6.594-35.035-38.951-66.87-64.883-68.636-11.509-.784-7.975 5.118-15.176 7.365-31.033 9.685-31.508 15.339-31.508 15.339 65.802 3.093 83.288 37.532 49.177 83.602 4.959-1.157 6.947-3.883 10.673-8.342-.002 0 1.687 17.638-12.411 34.596z" fill="url(#g)"/><path d="m229.084 170.977s-3.822 2.673-6.589 1.992c-3.276-.804-3.83-3.978-3.83-3.978-.072.65-.156 1.278-.277 1.84-.136.647-1.913 2.319-2.369 6.826-.488 4.782 1.308 7.552 2.99 9.494 5.977-8.739 11.785-10.894 11.785-10.894-2.275-.795-1.71-5.28-1.71-5.28z" fill="url(#h)"/><path d="m312.421 116.61c.896-.233 4.552.165 6.952 1.241s6.538 2.979 3.228 3.807c-3.311.828-5.214-.496-6.869-1.904-1.656-1.407-5.546-2.565-3.311-3.144z" fill="url(#i)"/><path d="m229.442 170.454s20.965-34.55 39.919-43.874c1.76-.885-26.243 7.444-37.512 19.882-6.698 7.393-3.151 21.868-2.407 23.992z" fill="url(#j)"/><path d="m229.442 170.454.061-.036c5.421-3.35 14.712-5.279 17.706-11.35 11.53-23.38 22.153-32.488 22.153-32.488-18.955 9.324-39.92 43.874-39.92 43.874z" fill="#f2f2f2" fill-opacity=".1"/><path d="m231.435 164.135s-3.779-5.798 1.663-11.085c2.871-2.786 7.223-1.238 7.726-.737 2.141 2.124.795 6.605-1.132 9.142-1.09 1.429-4.259 3.652-8.257 2.68z" fill="#2f4282"/><path d="m233.601 163.775s-2.61-4.008 1.152-7.66c1.981-1.924 4.99-.855 5.339-.51 1.478 1.467.547 4.565-.784 6.316-.753.991-2.944 2.526-5.707 1.854z" fill="url(#k)"/><path d="m238.814 159.498c-.059 1.602-1.414 2.853-3.028 2.798-1.616-.056-2.881-1.398-2.823-3 .057-1.601 1.412-2.852 3.029-2.797 1.613.056 2.878 1.399 2.822 2.999z"/><circle cx="234.037" cy="158.603" fill="#fff" r=".92"/><path d="m365.055 154.329c-14.352-21.846-25.722-27.398-25.722-27.398s.522 15.914 8.49 23.589c.911.877-9.535-6.828-9.535-6.828s-2.233 7.35 2.885 15.8c-1.487-1.975-2.471-2.724-2.471-2.724s-9.644 4.447-12.49 10.617c-1.47-2.775-2.572-4.409-2.572-4.409s-6.67 13.311-5.832 28.745c1.364 25.096-4.7 34.341-4.7 34.341s16.244-6.232 24.033-26.294c3.219 8.53-.097 17.508-.097 17.508s13.124-9.806 15.946-27.68c3.129 5.045 2.209 15.115 2.209 15.115s8.377-11.664 8.581-24.366c3.882 2.708 4.239 13.281 4.239 13.281s12.42-15.878-2.964-39.297z" fill="url(#l)"/><path d="m351.107 139.062c-3.751-6.989-10.369-11.443-16.186-15.049-14.504-8.993-23.832-10.257-23.832-10.257s-13.385 2.49-11.086 6.214c.119.191.395.433.784.71-11.741-5.408-18.401 7.027-18.401 7.027-6.709-.407-14.878 2.895-17.26 11.742-.247.918 3.006.402 4.679.765 9.782 2.127 18.991 6.738 23.222 9.017 9.843 5.303 15.683 14.133 19.055 20.756 4.079 8.012 5.745 22.112 5.745 22.112s10.733-14.743 8.168-22.313c4.251 2.64 5.09 12.059 5.09 12.059s7.155-11.206 5.039-20.967c5.519 3.363 5.703 10.204 5.703 10.204s5.62-7.799 3.08-20.592c5.554 4.416 6.716 10.137 6.716 10.137s4.54-12.142-.516-21.565z" fill="url(#m)"/></svg>