<svg width="734" height="415" viewBox="0 0 734 415" fill="none" xmlns="http://www.w3.org/2000/svg">
<rect width="734" height="415" fill="white"/>
<rect x="37" y="73" width="404" height="309" stroke="#6ECCE5" stroke-width="2" stroke-dasharray="10 10"/>
<g clip-path="url(#clip0_222_246)">
<path d="M62.0305 50.6499H43.109C41.2248 50.6457 39.419 49.8953 38.0867 48.5629C36.7544 47.2305 36.0041 45.4246 36 43.5404C36.0102 42.4881 36.2479 41.4504 36.6967 40.4985C37.1454 39.5466 37.7947 38.703 38.6 38.0254C39.9476 36.8856 41.6854 36.3139 43.4465 36.4309C44.2453 34.4651 45.6701 32.8175 47.5002 31.7435C49.3303 30.6696 51.4635 30.2291 53.5692 30.4904C55.675 30.7517 57.6359 31.7002 59.148 33.1889C60.66 34.6776 61.6389 36.6235 61.933 38.7249C63.39 38.6601 64.8179 39.146 65.933 40.0859C66.8543 40.8883 67.5098 41.9519 67.8124 43.1355C68.115 44.3192 68.0505 45.5669 67.6273 46.713C67.2042 47.8591 66.4424 48.8493 65.4432 49.5523C64.444 50.2553 63.2547 50.6378 62.033 50.6489L62.0305 50.6499ZM42.9965 38.4159C41.8568 38.4126 40.7534 38.8171 39.886 39.5564C39.3031 40.0454 38.8328 40.6545 38.5073 41.3422C38.1818 42.0298 38.0087 42.7797 38 43.5404C38.0021 44.8923 38.539 46.1885 39.4936 47.1458C40.4481 48.1031 41.7426 48.6439 43.0945 48.6499H62.03C63.0827 48.6486 64.0918 48.2298 64.8361 47.4853C65.5804 46.7409 65.9989 45.7316 66 44.6789C66.005 44.0994 65.8859 43.5256 65.6506 42.9959C65.4153 42.4663 65.0694 41.9932 64.636 41.6084C64.1558 41.2257 63.5965 40.9546 62.9986 40.8148C62.4007 40.675 61.7791 40.6699 61.179 40.7999L60.052 40.9814L60.0205 39.8404C59.9684 38.0304 59.2753 36.2976 58.0646 34.9509C56.854 33.6043 55.2045 32.7312 53.4102 32.4874C51.6159 32.2436 49.7932 32.6448 48.2672 33.6196C46.7411 34.5944 45.6107 36.0794 45.0775 37.8099L44.8185 38.6534L43.95 38.4999C43.6352 38.4444 43.3162 38.4163 42.9965 38.4159Z" fill="#6ECCE5"/>
</g>
<path d="M79.4716 35.5453V47.1816H77.0114V35.5453H79.4716ZM83.6947 42.1362V47.1816H81.2743V38.4544H83.5811V39.9941H83.6834C83.8766 39.4866 84.2004 39.085 84.655 38.7896C85.1095 38.4904 85.6606 38.3407 86.3084 38.3407C86.9144 38.3407 87.4428 38.4733 87.8936 38.7385C88.3444 39.0036 88.6947 39.3824 88.9447 39.8748C89.1947 40.3635 89.3197 40.9468 89.3197 41.6248V47.1816H86.8993V42.0566C86.9031 41.5225 86.7667 41.1059 86.4902 40.8066C86.2137 40.5036 85.833 40.3521 85.3481 40.3521C85.0224 40.3521 84.7345 40.4222 84.4845 40.5623C84.2383 40.7025 84.0451 40.907 83.905 41.176C83.7686 41.4411 83.6985 41.7612 83.6947 42.1362ZM95.6935 38.4544V40.2725H90.4378V38.4544H95.6935ZM91.631 36.3635H94.0514V44.4998C94.0514 44.7233 94.0855 44.8975 94.1537 45.0225C94.2219 45.1438 94.3166 45.229 94.4378 45.2782C94.5628 45.3275 94.7067 45.3521 94.8696 45.3521C94.9832 45.3521 95.0969 45.3426 95.2105 45.3237C95.3241 45.301 95.4113 45.2839 95.4719 45.2725L95.8525 47.0737C95.7313 47.1116 95.5609 47.1551 95.3412 47.2044C95.1215 47.2574 94.8544 47.2896 94.54 47.301C93.9567 47.3237 93.4453 47.246 93.006 47.068C92.5703 46.89 92.2313 46.6135 91.9889 46.2385C91.7465 45.8635 91.6272 45.39 91.631 44.818V36.3635ZM100.978 47.3521C100.08 47.3521 99.3072 47.1703 98.6595 46.8066C98.0156 46.4392 97.5193 45.9203 97.1709 45.2498C96.8224 44.5756 96.6481 43.7782 96.6481 42.8578C96.6481 41.96 96.8224 41.1722 97.1709 40.4941C97.5193 39.8161 98.0099 39.2877 98.6425 38.9089C99.2788 38.5301 100.025 38.3407 100.881 38.3407C101.457 38.3407 101.993 38.4335 102.489 38.6191C102.989 38.801 103.425 39.0756 103.796 39.443C104.171 39.8104 104.463 40.2725 104.671 40.8294C104.879 41.3824 104.983 42.0301 104.983 42.7725V43.4373H97.614V41.9373H102.705C102.705 41.5888 102.629 41.2801 102.478 41.0112C102.326 40.7422 102.116 40.532 101.847 40.3805C101.582 40.2252 101.273 40.1475 100.921 40.1475C100.553 40.1475 100.228 40.2328 99.9436 40.4032C99.6633 40.5699 99.4436 40.7953 99.2845 41.0794C99.1254 41.3597 99.044 41.6722 99.0402 42.0169V43.443C99.0402 43.8748 99.1197 44.2479 99.2788 44.5623C99.4417 44.8767 99.6709 45.1191 99.9663 45.2896C100.262 45.46 100.612 45.5453 101.017 45.5453C101.286 45.5453 101.533 45.5074 101.756 45.4316C101.98 45.3559 102.171 45.2422 102.33 45.0907C102.489 44.9392 102.61 44.7536 102.694 44.5339L104.932 44.6816C104.819 45.2195 104.586 45.6892 104.233 46.0907C103.885 46.4885 103.434 46.7991 102.881 47.0225C102.332 47.2422 101.697 47.3521 100.978 47.3521ZM106.387 47.1816V38.4544H108.733V39.9771H108.824C108.983 39.4354 109.251 39.0263 109.626 38.7498C110.001 38.4695 110.432 38.3294 110.921 38.3294C111.042 38.3294 111.173 38.3369 111.313 38.3521C111.453 38.3672 111.576 38.3881 111.682 38.4146V40.5623C111.569 40.5282 111.412 40.4979 111.211 40.4714C111.01 40.4449 110.826 40.4316 110.66 40.4316C110.304 40.4316 109.985 40.5093 109.705 40.6646C109.429 40.8161 109.209 41.0282 109.046 41.301C108.887 41.5737 108.807 41.8881 108.807 42.2441V47.1816H106.387ZM115.178 42.1362V47.1816H112.758V38.4544H115.065V39.9941H115.167C115.36 39.4866 115.684 39.085 116.138 38.7896C116.593 38.4904 117.144 38.3407 117.792 38.3407C118.398 38.3407 118.926 38.4733 119.377 38.7385C119.828 39.0036 120.178 39.3824 120.428 39.8748C120.678 40.3635 120.803 40.9468 120.803 41.6248V47.1816H118.383V42.0566C118.387 41.5225 118.25 41.1059 117.974 40.8066C117.697 40.5036 117.316 40.3521 116.832 40.3521C116.506 40.3521 116.218 40.4222 115.968 40.5623C115.722 40.7025 115.529 40.907 115.388 41.176C115.252 41.4411 115.182 41.7612 115.178 42.1362ZM126.512 47.3521C125.614 47.3521 124.842 47.1703 124.194 46.8066C123.55 46.4392 123.054 45.9203 122.705 45.2498C122.357 44.5756 122.183 43.7782 122.183 42.8578C122.183 41.96 122.357 41.1722 122.705 40.4941C123.054 39.8161 123.544 39.2877 124.177 38.9089C124.813 38.5301 125.56 38.3407 126.416 38.3407C126.991 38.3407 127.527 38.4335 128.024 38.6191C128.524 38.801 128.959 39.0756 129.33 39.443C129.705 39.8104 129.997 40.2725 130.205 40.8294C130.414 41.3824 130.518 42.0301 130.518 42.7725V43.4373H123.149V41.9373H128.239C128.239 41.5888 128.164 41.2801 128.012 41.0112C127.861 40.7422 127.65 40.532 127.382 40.3805C127.116 40.2252 126.808 40.1475 126.455 40.1475C126.088 40.1475 125.762 40.2328 125.478 40.4032C125.198 40.5699 124.978 40.7953 124.819 41.0794C124.66 41.3597 124.578 41.6722 124.575 42.0169V43.443C124.575 43.8748 124.654 44.2479 124.813 44.5623C124.976 44.8767 125.205 45.1191 125.501 45.2896C125.796 45.46 126.147 45.5453 126.552 45.5453C126.821 45.5453 127.067 45.5074 127.291 45.4316C127.514 45.3559 127.705 45.2422 127.864 45.0907C128.024 44.9392 128.145 44.7536 128.228 44.5339L130.467 44.6816C130.353 45.2195 130.12 45.6892 129.768 46.0907C129.419 46.4885 128.969 46.7991 128.416 47.0225C127.866 47.2422 127.232 47.3521 126.512 47.3521ZM136.563 38.4544V40.2725H131.308V38.4544H136.563ZM132.501 36.3635H134.921V44.4998C134.921 44.7233 134.956 44.8975 135.024 45.0225C135.092 45.1438 135.187 45.229 135.308 45.2782C135.433 45.3275 135.577 45.3521 135.74 45.3521C135.853 45.3521 135.967 45.3426 136.081 45.3237C136.194 45.301 136.281 45.2839 136.342 45.2725L136.723 47.0737C136.601 47.1116 136.431 47.1551 136.211 47.2044C135.991 47.2574 135.724 47.2896 135.41 47.301C134.827 47.3237 134.315 47.246 133.876 47.068C133.44 46.89 133.101 46.6135 132.859 46.2385C132.616 45.8635 132.497 45.39 132.501 44.818V36.3635Z" fill="#222222"/>
<path fill-rule="evenodd" clip-rule="evenodd" d="M186.487 252H94.2644C91.8206 252 89.634 254.058 89.634 256.63V317.212H191.118V256.63C191.118 254.058 188.931 252 186.487 252Z" fill="#C5EBF5" stroke="#0055DC" stroke-width="1.5" stroke-miterlimit="10"/>
<path d="M140.312 256.502C140.738 256.502 141.083 256.156 141.083 255.73C141.083 255.304 140.738 254.958 140.312 254.958C139.885 254.958 139.54 255.304 139.54 255.73C139.54 256.156 139.885 256.502 140.312 256.502Z" fill="#0055DC"/>
<path d="M195.105 321.843H85.518C79.8586 321.843 75.9999 320.942 75.9999 320.17V317.598C75.9999 317.341 76.2571 317.083 76.5144 317.083H203.98C204.237 317.083 204.495 317.341 204.495 317.598V320.17C204.623 320.942 201.665 321.843 195.105 321.843Z" fill="white"/>
<path fill-rule="evenodd" clip-rule="evenodd" d="M195.105 321.843H85.518C79.8586 321.843 75.9999 320.942 75.9999 320.17V317.598C75.9999 317.341 76.2571 317.083 76.5144 317.083H203.98C204.237 317.083 204.495 317.341 204.495 317.598V320.17C204.623 320.942 201.665 321.843 195.105 321.843Z" stroke="#0055DC" stroke-width="1.5" stroke-miterlimit="10"/>
<path d="M204.623 317.598C204.623 317.341 204.366 317.083 204.109 317.083H76.6429C76.3856 317.083 76.1284 317.341 76.1284 317.598V320.042H204.752V317.598H204.623Z" fill="#C5EBF5"/>
<path d="M195.105 321.843H85.518C79.8586 321.843 75.9999 320.942 75.9999 320.17V317.598C75.9999 317.341 76.2571 317.083 76.5144 317.083H203.98C204.237 317.083 204.495 317.341 204.495 317.598V320.17C204.623 320.942 201.665 321.843 195.105 321.843Z" stroke="#0055DC" stroke-width="1.5" stroke-miterlimit="10"/>
<path d="M186.873 259.203H93.7499V313.482H186.873V259.203Z" fill="white"/>
<path fill-rule="evenodd" clip-rule="evenodd" d="M154.331 317.341V317.855C154.331 318.241 153.56 318.37 152.917 318.37H127.835C127.192 318.37 126.42 318.241 126.42 317.855V317.341" fill="#0055DC"/>
<path d="M153.014 301.783C149.247 299.783 145.074 299.245 144.297 297.42C143.708 296.037 144.297 291.408 144.297 291.408L135.194 291.313C135.194 291.313 135.769 296.007 135.194 297.42C134.496 299.134 130.704 299.687 127.223 301.635" fill="#CBE9F3"/>
<path d="M153.014 301.783C149.247 299.783 145.074 299.245 144.297 297.42C143.708 296.037 144.297 291.408 144.297 291.408L135.194 291.313C135.194 291.313 135.769 296.007 135.194 297.42C134.496 299.134 130.704 299.687 127.223 301.635" stroke="#193979" stroke-width="1.5" stroke-miterlimit="10"/>
<path d="M140.204 306.545C144.907 306.55 149.455 304.86 153.013 301.784C149.247 299.784 145.074 299.245 144.296 297.42C144.16 297.036 144.083 296.634 144.067 296.227C142.642 296.515 141.193 296.67 139.739 296.691C138.286 296.67 136.838 296.515 135.414 296.227C135.398 296.633 135.323 297.035 135.192 297.42C134.495 299.135 130.703 299.688 127.222 301.636C130.803 304.805 135.422 306.551 140.204 306.545Z" fill="#1B59D3" stroke="#0F387D" stroke-width="1.5" stroke-miterlimit="10" stroke-linecap="round"/>
<path d="M132.877 283.288C132.805 282.7 131.934 281.645 130.906 282.322C129.9 282.983 130.866 287.928 133.671 287.744" fill="#CBE9F3"/>
<path d="M132.877 283.288C132.805 282.7 131.934 281.645 130.906 282.322C129.9 282.983 130.866 287.928 133.671 287.744" stroke="#193979" stroke-width="1.5" stroke-miterlimit="10"/>
<path d="M146.647 283.288C146.719 282.7 147.59 281.645 148.618 282.322C149.624 282.983 148.657 287.928 145.852 287.744" fill="#CBE9F3"/>
<path d="M146.647 283.288C146.719 282.7 147.59 281.645 148.618 282.322C149.624 282.983 148.657 287.928 145.852 287.744" stroke="#193979" stroke-width="1.5" stroke-miterlimit="10"/>
<path d="M146.824 279.847C146.88 281.784 146.659 283.719 146.168 285.594C145.9 286.542 145.584 289.45 145.22 290.203C144.305 292.102 141.946 294.215 139.803 294.215C137.659 294.215 135.545 292.103 134.386 290.204C133.943 289.478 133.591 286.565 133.315 285.596C132.678 283.353 132.782 281.299 132.782 279.847C132.782 275.442 135.739 272.51 139.799 272.51C143.86 272.51 146.824 275.442 146.824 279.847Z" fill="#CBE9F3" stroke="#193979" stroke-width="1.5" stroke-miterlimit="10"/>
<path d="M145.587 278.916C145.587 278.916 138.332 279.599 135.021 277.213C135.021 277.213 134.055 281.279 132.878 283.288C132.878 283.288 131.427 277.119 133.54 276.302C133.54 276.302 133.365 272.879 137.139 272.002C137.139 272.002 136.944 272.855 137.577 272.831C138.21 272.806 143.237 269.908 146.824 272.173C150.411 274.437 147.658 277.748 147.658 277.748C147.658 277.748 147.755 281.247 146.891 282.723L146.577 283.726C146.577 283.726 145.669 280.559 145.587 278.916Z" fill="#0F387D" stroke="#0F387D" stroke-width="1.5" stroke-linejoin="round"/>
<path d="M140.204 306.545C151.046 306.545 159.835 297.756 159.835 286.914C159.835 276.071 151.046 267.282 140.204 267.282C129.362 267.282 120.573 276.071 120.573 286.914C120.573 297.756 129.362 306.545 140.204 306.545Z" stroke="#1B59D3" stroke-width="1.5" stroke-miterlimit="10"/>
<path d="M140.204 306.545C151.046 306.545 159.835 297.756 159.835 286.914C159.835 276.071 151.046 267.282 140.204 267.282C129.362 267.282 120.573 276.071 120.573 286.914C120.573 297.756 129.362 306.545 140.204 306.545Z" stroke="#1B59D3" stroke-width="1.5" stroke-miterlimit="10"/>
<rect x="505" y="172" width="198" height="203" fill="white" stroke="#0055DC" stroke-width="2"/>
<g clip-path="url(#clip1_222_246)">
<path d="M530.031 158.65H511.109C509.225 158.646 507.419 157.895 506.087 156.563C504.754 155.231 504.004 153.425 504 151.54C504.01 150.488 504.248 149.45 504.697 148.498C505.145 147.547 505.795 146.703 506.6 146.025C507.948 144.886 509.685 144.314 511.446 144.431C512.245 142.465 513.67 140.818 515.5 139.744C517.33 138.67 519.463 138.229 521.569 138.49C523.675 138.752 525.636 139.7 527.148 141.189C528.66 142.678 529.639 144.623 529.933 146.725C531.39 146.66 532.818 147.146 533.933 148.086C534.854 148.888 535.51 149.952 535.812 151.136C536.115 152.319 536.05 153.567 535.627 154.713C535.204 155.859 534.442 156.849 533.443 157.552C532.444 158.255 531.255 158.638 530.033 158.649L530.031 158.65ZM510.997 146.416C509.857 146.413 508.753 146.817 507.886 147.556C507.303 148.045 506.833 148.655 506.507 149.342C506.182 150.03 506.009 150.78 506 151.54C506.002 152.892 506.539 154.188 507.494 155.146C508.448 156.103 509.743 156.644 511.095 156.65H530.03C531.083 156.649 532.092 156.23 532.836 155.485C533.58 154.741 533.999 153.732 534 152.679C534.005 152.099 533.886 151.526 533.651 150.996C533.415 150.466 533.069 149.993 532.636 149.608C532.156 149.226 531.596 148.955 530.999 148.815C530.401 148.675 529.779 148.67 529.179 148.8L528.052 148.981L528.021 147.84C527.968 146.03 527.275 144.298 526.065 142.951C524.854 141.604 523.205 140.731 521.41 140.487C519.616 140.244 517.793 140.645 516.267 141.62C514.741 142.594 513.611 144.079 513.078 145.81L512.818 146.653L511.95 146.5C511.635 146.444 511.316 146.416 510.997 146.416Z" fill="#0055DC"/>
</g>
<path d="M545.011 155V143.364H549.602C550.485 143.364 551.237 143.532 551.858 143.869C552.479 144.203 552.953 144.667 553.278 145.261C553.608 145.852 553.773 146.534 553.773 147.307C553.773 148.08 553.606 148.761 553.273 149.352C552.939 149.943 552.456 150.403 551.824 150.733C551.195 151.062 550.434 151.227 549.54 151.227H546.614V149.256H549.142C549.616 149.256 550.006 149.174 550.312 149.011C550.623 148.845 550.854 148.616 551.006 148.324C551.161 148.028 551.239 147.689 551.239 147.307C551.239 146.92 551.161 146.583 551.006 146.295C550.854 146.004 550.623 145.778 550.312 145.619C550.002 145.456 549.608 145.375 549.131 145.375H547.472V155H545.011ZM555.149 155V146.273H557.496V147.795H557.587C557.746 147.254 558.013 146.845 558.388 146.568C558.763 146.288 559.195 146.148 559.683 146.148C559.805 146.148 559.935 146.155 560.075 146.17C560.216 146.186 560.339 146.206 560.445 146.233V148.381C560.331 148.347 560.174 148.316 559.973 148.29C559.772 148.263 559.589 148.25 559.422 148.25C559.066 148.25 558.748 148.328 558.467 148.483C558.191 148.634 557.971 148.847 557.808 149.119C557.649 149.392 557.57 149.706 557.57 150.062V155H555.149ZM561.52 155V146.273H563.941V155H561.52ZM562.736 145.148C562.376 145.148 562.068 145.028 561.81 144.79C561.556 144.547 561.429 144.258 561.429 143.92C561.429 143.587 561.556 143.301 561.81 143.062C562.068 142.82 562.376 142.699 562.736 142.699C563.096 142.699 563.403 142.82 563.657 143.062C563.914 143.301 564.043 143.587 564.043 143.92C564.043 144.258 563.914 144.547 563.657 144.79C563.403 145.028 563.096 145.148 562.736 145.148ZM573.84 146.273L570.789 155H568.061L565.01 146.273H567.567L569.38 152.517H569.471L571.277 146.273H573.84ZM577.157 155.165C576.6 155.165 576.104 155.068 575.668 154.875C575.233 154.678 574.888 154.388 574.634 154.006C574.384 153.619 574.259 153.138 574.259 152.562C574.259 152.078 574.348 151.67 574.526 151.341C574.704 151.011 574.947 150.746 575.253 150.545C575.56 150.345 575.909 150.193 576.299 150.091C576.693 149.989 577.106 149.917 577.537 149.875C578.045 149.822 578.454 149.773 578.765 149.727C579.075 149.678 579.301 149.606 579.441 149.511C579.581 149.417 579.651 149.277 579.651 149.091V149.057C579.651 148.697 579.537 148.419 579.31 148.222C579.087 148.025 578.769 147.926 578.356 147.926C577.92 147.926 577.573 148.023 577.316 148.216C577.058 148.405 576.888 148.644 576.805 148.932L574.566 148.75C574.68 148.22 574.903 147.761 575.236 147.375C575.57 146.985 576 146.686 576.526 146.477C577.056 146.265 577.67 146.159 578.367 146.159C578.852 146.159 579.316 146.216 579.759 146.33C580.206 146.443 580.602 146.619 580.947 146.858C581.295 147.097 581.57 147.403 581.77 147.778C581.971 148.15 582.072 148.595 582.072 149.114V155H579.776V153.79H579.708C579.568 154.062 579.38 154.303 579.145 154.511C578.911 154.716 578.628 154.877 578.299 154.994C577.969 155.108 577.589 155.165 577.157 155.165ZM577.85 153.494C578.206 153.494 578.52 153.424 578.793 153.284C579.066 153.14 579.28 152.947 579.435 152.705C579.591 152.462 579.668 152.187 579.668 151.881V150.955C579.592 151.004 579.488 151.049 579.356 151.091C579.227 151.129 579.081 151.165 578.918 151.199C578.755 151.229 578.592 151.258 578.43 151.284C578.267 151.307 578.119 151.328 577.986 151.347C577.702 151.388 577.454 151.455 577.242 151.545C577.03 151.636 576.865 151.759 576.748 151.915C576.63 152.066 576.572 152.256 576.572 152.483C576.572 152.812 576.691 153.064 576.93 153.239C577.172 153.409 577.479 153.494 577.85 153.494ZM588.415 146.273V148.091H583.16V146.273H588.415ZM584.353 144.182H586.773V152.318C586.773 152.542 586.807 152.716 586.876 152.841C586.944 152.962 587.039 153.047 587.16 153.097C587.285 153.146 587.429 153.17 587.592 153.17C587.705 153.17 587.819 153.161 587.932 153.142C588.046 153.119 588.133 153.102 588.194 153.091L588.575 154.892C588.453 154.93 588.283 154.973 588.063 155.023C587.843 155.076 587.576 155.108 587.262 155.119C586.679 155.142 586.167 155.064 585.728 154.886C585.292 154.708 584.953 154.432 584.711 154.057C584.468 153.682 584.349 153.208 584.353 152.636V144.182ZM593.7 155.17C592.802 155.17 592.029 154.989 591.382 154.625C590.738 154.258 590.241 153.739 589.893 153.068C589.544 152.394 589.37 151.597 589.37 150.676C589.37 149.778 589.544 148.991 589.893 148.312C590.241 147.634 590.732 147.106 591.364 146.727C592.001 146.348 592.747 146.159 593.603 146.159C594.179 146.159 594.715 146.252 595.211 146.438C595.711 146.619 596.147 146.894 596.518 147.261C596.893 147.629 597.185 148.091 597.393 148.648C597.601 149.201 597.705 149.848 597.705 150.591V151.256H590.336V149.756H595.427C595.427 149.407 595.351 149.098 595.2 148.83C595.048 148.561 594.838 148.35 594.569 148.199C594.304 148.044 593.995 147.966 593.643 147.966C593.275 147.966 592.95 148.051 592.666 148.222C592.385 148.388 592.166 148.614 592.007 148.898C591.847 149.178 591.766 149.491 591.762 149.835V151.261C591.762 151.693 591.842 152.066 592.001 152.381C592.164 152.695 592.393 152.938 592.688 153.108C592.984 153.278 593.334 153.364 593.739 153.364C594.008 153.364 594.255 153.326 594.478 153.25C594.702 153.174 594.893 153.061 595.052 152.909C595.211 152.758 595.332 152.572 595.416 152.352L597.654 152.5C597.541 153.038 597.308 153.508 596.955 153.909C596.607 154.307 596.156 154.617 595.603 154.841C595.054 155.061 594.419 155.17 593.7 155.17ZM605.056 149.955V155H602.636V146.273H604.943V147.812H605.045C605.238 147.305 605.562 146.903 606.017 146.608C606.471 146.309 607.022 146.159 607.67 146.159C608.276 146.159 608.805 146.292 609.255 146.557C609.706 146.822 610.056 147.201 610.306 147.693C610.556 148.182 610.681 148.765 610.681 149.443V155H608.261V149.875C608.265 149.341 608.128 148.924 607.852 148.625C607.575 148.322 607.195 148.17 606.71 148.17C606.384 148.17 606.096 148.241 605.846 148.381C605.6 148.521 605.407 148.725 605.267 148.994C605.13 149.259 605.06 149.58 605.056 149.955ZM616.39 155.17C615.493 155.17 614.72 154.989 614.072 154.625C613.428 154.258 612.932 153.739 612.584 153.068C612.235 152.394 612.061 151.597 612.061 150.676C612.061 149.778 612.235 148.991 612.584 148.312C612.932 147.634 613.423 147.106 614.055 146.727C614.692 146.348 615.438 146.159 616.294 146.159C616.87 146.159 617.406 146.252 617.902 146.438C618.402 146.619 618.837 146.894 619.209 147.261C619.584 147.629 619.875 148.091 620.084 148.648C620.292 149.201 620.396 149.848 620.396 150.591V151.256H613.027V149.756H618.118C618.118 149.407 618.042 149.098 617.89 148.83C617.739 148.561 617.529 148.35 617.26 148.199C616.995 148.044 616.686 147.966 616.334 147.966C615.966 147.966 615.64 148.051 615.356 148.222C615.076 148.388 614.856 148.614 614.697 148.898C614.538 149.178 614.457 149.491 614.453 149.835V151.261C614.453 151.693 614.532 152.066 614.692 152.381C614.854 152.695 615.084 152.938 615.379 153.108C615.675 153.278 616.025 153.364 616.43 153.364C616.699 153.364 616.945 153.326 617.169 153.25C617.392 153.174 617.584 153.061 617.743 152.909C617.902 152.758 618.023 152.572 618.106 152.352L620.345 152.5C620.231 153.038 619.998 153.508 619.646 153.909C619.298 154.307 618.847 154.617 618.294 154.841C617.745 155.061 617.11 155.17 616.39 155.17ZM626.442 146.273V148.091H621.186V146.273H626.442ZM622.379 144.182H624.8V152.318C624.8 152.542 624.834 152.716 624.902 152.841C624.97 152.962 625.065 153.047 625.186 153.097C625.311 153.146 625.455 153.17 625.618 153.17C625.731 153.17 625.845 153.161 625.959 153.142C626.072 153.119 626.16 153.102 626.22 153.091L626.601 154.892C626.48 154.93 626.309 154.973 626.089 155.023C625.87 155.076 625.603 155.108 625.288 155.119C624.705 155.142 624.194 155.064 623.754 154.886C623.319 154.708 622.98 154.432 622.737 154.057C622.495 153.682 622.375 153.208 622.379 152.636V144.182ZM629.564 155L627.189 146.273H629.638L630.99 152.136H631.07L632.479 146.273H634.882L636.314 152.102H636.388L637.717 146.273H640.161L637.791 155H635.229L633.729 149.511H633.621L632.121 155H629.564ZM645 155.17C644.118 155.17 643.354 154.983 642.71 154.608C642.07 154.229 641.576 153.703 641.227 153.028C640.879 152.35 640.705 151.564 640.705 150.67C640.705 149.769 640.879 148.981 641.227 148.307C641.576 147.629 642.07 147.102 642.71 146.727C643.354 146.348 644.118 146.159 645 146.159C645.883 146.159 646.644 146.348 647.284 146.727C647.928 147.102 648.424 147.629 648.773 148.307C649.121 148.981 649.296 149.769 649.296 150.67C649.296 151.564 649.121 152.35 648.773 153.028C648.424 153.703 647.928 154.229 647.284 154.608C646.644 154.983 645.883 155.17 645 155.17ZM645.012 153.295C645.413 153.295 645.748 153.182 646.017 152.955C646.286 152.723 646.489 152.409 646.625 152.011C646.765 151.614 646.835 151.161 646.835 150.653C646.835 150.146 646.765 149.693 646.625 149.295C646.489 148.898 646.286 148.583 646.017 148.352C645.748 148.121 645.413 148.006 645.012 148.006C644.606 148.006 644.265 148.121 643.989 148.352C643.716 148.583 643.51 148.898 643.37 149.295C643.233 149.693 643.165 150.146 643.165 150.653C643.165 151.161 643.233 151.614 643.37 152.011C643.51 152.409 643.716 152.723 643.989 152.955C644.265 153.182 644.606 153.295 645.012 153.295ZM650.694 155V146.273H653.04V147.795H653.131C653.29 147.254 653.557 146.845 653.932 146.568C654.307 146.288 654.739 146.148 655.228 146.148C655.349 146.148 655.48 146.155 655.62 146.17C655.76 146.186 655.883 146.206 655.989 146.233V148.381C655.875 148.347 655.718 148.316 655.517 148.29C655.317 148.263 655.133 148.25 654.966 148.25C654.61 148.25 654.292 148.328 654.012 148.483C653.735 148.634 653.516 148.847 653.353 149.119C653.194 149.392 653.114 149.706 653.114 150.062V155H650.694ZM659.258 152.489L659.263 149.585H659.616L662.411 146.273H665.189L661.434 150.659H660.86L659.258 152.489ZM657.064 155V143.364H659.485V155H657.064ZM662.519 155L659.951 151.199L661.564 149.489L665.354 155H662.519Z" fill="#222222"/>
<path d="M115.759 343V334.273H121.639V335.794H117.604V337.874H121.337V339.395H117.604V341.479H121.656V343H115.759ZM124.887 339.216V343H123.072V336.455H124.802V337.609H124.879C125.024 337.229 125.267 336.928 125.608 336.706C125.949 336.482 126.362 336.369 126.848 336.369C127.302 336.369 127.699 336.469 128.037 336.668C128.375 336.866 128.637 337.151 128.825 337.52C129.012 337.886 129.106 338.324 129.106 338.832V343H127.291V339.156C127.294 338.756 127.191 338.443 126.984 338.219C126.777 337.991 126.491 337.878 126.127 337.878C125.883 337.878 125.667 337.93 125.48 338.036C125.295 338.141 125.15 338.294 125.045 338.496C124.943 338.695 124.89 338.935 124.887 339.216ZM132.949 343.107C132.452 343.107 132.001 342.979 131.598 342.723C131.197 342.464 130.879 342.085 130.643 341.585C130.411 341.082 130.294 340.466 130.294 339.736C130.294 338.986 130.415 338.362 130.656 337.865C130.898 337.365 131.219 336.991 131.619 336.744C132.023 336.494 132.464 336.369 132.945 336.369C133.311 336.369 133.616 336.432 133.861 336.557C134.108 336.679 134.307 336.832 134.457 337.017C134.611 337.199 134.727 337.378 134.807 337.554H134.862V334.273H136.673V343H134.884V341.952H134.807C134.722 342.134 134.601 342.314 134.445 342.493C134.291 342.669 134.091 342.815 133.844 342.932C133.599 343.048 133.301 343.107 132.949 343.107ZM133.524 341.662C133.817 341.662 134.064 341.582 134.266 341.423C134.47 341.261 134.626 341.036 134.734 340.746C134.845 340.456 134.901 340.116 134.901 339.727C134.901 339.338 134.847 339 134.739 338.713C134.631 338.426 134.474 338.205 134.27 338.048C134.065 337.892 133.817 337.814 133.524 337.814C133.226 337.814 132.974 337.895 132.77 338.057C132.565 338.219 132.411 338.443 132.305 338.73C132.2 339.017 132.148 339.349 132.148 339.727C132.148 340.108 132.2 340.445 132.305 340.737C132.413 341.027 132.568 341.254 132.77 341.419C132.974 341.581 133.226 341.662 133.524 341.662ZM145.141 340.213V336.455H146.956V343H145.213V341.811H145.145C144.997 342.195 144.751 342.503 144.408 342.736C144.067 342.969 143.651 343.085 143.159 343.085C142.722 343.085 142.337 342.986 142.004 342.787C141.672 342.588 141.412 342.305 141.224 341.939C141.04 341.572 140.946 341.134 140.943 340.622V336.455H142.759V340.298C142.761 340.685 142.865 340.99 143.07 341.214C143.274 341.439 143.548 341.551 143.892 341.551C144.111 341.551 144.315 341.501 144.506 341.402C144.696 341.3 144.849 341.149 144.966 340.95C145.085 340.751 145.143 340.506 145.141 340.213ZM153.854 338.321L152.192 338.423C152.164 338.281 152.103 338.153 152.009 338.04C151.915 337.923 151.792 337.831 151.638 337.763C151.488 337.692 151.307 337.656 151.097 337.656C150.816 337.656 150.578 337.716 150.385 337.835C150.192 337.952 150.096 338.108 150.096 338.304C150.096 338.46 150.158 338.592 150.283 338.7C150.408 338.808 150.623 338.895 150.926 338.96L152.111 339.199C152.748 339.33 153.222 339.54 153.534 339.83C153.847 340.119 154.003 340.5 154.003 340.972C154.003 341.401 153.877 341.777 153.624 342.101C153.374 342.425 153.03 342.678 152.593 342.859C152.158 343.038 151.657 343.128 151.088 343.128C150.222 343.128 149.532 342.947 149.017 342.587C148.506 342.223 148.206 341.729 148.118 341.104L149.904 341.01C149.958 341.274 150.088 341.476 150.296 341.615C150.503 341.751 150.769 341.82 151.093 341.82C151.411 341.82 151.667 341.759 151.86 341.636C152.056 341.511 152.155 341.351 152.158 341.155C152.155 340.99 152.086 340.855 151.949 340.75C151.813 340.642 151.603 340.56 151.319 340.503L150.185 340.277C149.546 340.149 149.07 339.928 148.757 339.612C148.448 339.297 148.293 338.895 148.293 338.406C148.293 337.986 148.407 337.624 148.634 337.32C148.864 337.016 149.186 336.781 149.601 336.616C150.019 336.452 150.507 336.369 151.067 336.369C151.894 336.369 152.544 336.544 153.019 336.893C153.496 337.243 153.775 337.719 153.854 338.321ZM158.129 343.128C157.456 343.128 156.876 342.991 156.391 342.719C155.908 342.443 155.536 342.054 155.274 341.551C155.013 341.045 154.882 340.447 154.882 339.757C154.882 339.084 155.013 338.493 155.274 337.984C155.536 337.476 155.903 337.08 156.378 336.795C156.855 336.511 157.415 336.369 158.057 336.369C158.489 336.369 158.891 336.439 159.263 336.578C159.638 336.714 159.964 336.92 160.243 337.196C160.524 337.472 160.743 337.818 160.899 338.236C161.055 338.651 161.134 339.136 161.134 339.693V340.192H155.607V339.067H159.425C159.425 338.805 159.368 338.574 159.254 338.372C159.141 338.17 158.983 338.013 158.781 337.899C158.582 337.783 158.351 337.724 158.087 337.724C157.811 337.724 157.567 337.788 157.354 337.916C157.143 338.041 156.979 338.21 156.859 338.423C156.74 338.634 156.679 338.868 156.676 339.126V340.196C156.676 340.52 156.736 340.8 156.855 341.036C156.977 341.271 157.149 341.453 157.371 341.581C157.592 341.709 157.855 341.773 158.159 341.773C158.361 341.773 158.545 341.744 158.713 341.688C158.881 341.631 159.024 341.545 159.143 341.432C159.263 341.318 159.354 341.179 159.416 341.014L161.095 341.125C161.01 341.528 160.835 341.881 160.571 342.182C160.31 342.48 159.972 342.713 159.557 342.881C159.145 343.045 158.669 343.128 158.129 343.128ZM162.318 343V336.455H164.078V337.597H164.146C164.266 337.19 164.466 336.884 164.747 336.676C165.028 336.466 165.352 336.361 165.719 336.361C165.81 336.361 165.908 336.366 166.013 336.378C166.118 336.389 166.21 336.405 166.29 336.425V338.036C166.205 338.01 166.087 337.987 165.936 337.967C165.786 337.947 165.648 337.938 165.523 337.938C165.256 337.938 165.017 337.996 164.807 338.112C164.599 338.226 164.435 338.385 164.312 338.589C164.193 338.794 164.134 339.03 164.134 339.297V343H162.318Z" fill="#222222"/>
<path d="M572.03 198H570.053L573.066 189.273H575.444L578.452 198H576.475L574.289 191.267H574.221L572.03 198ZM571.907 194.57H576.577V196.01H571.907V194.57ZM579.469 200.455V191.455H581.258V192.554H581.339C581.419 192.378 581.534 192.199 581.684 192.017C581.838 191.832 582.037 191.679 582.281 191.557C582.528 191.432 582.835 191.369 583.202 191.369C583.679 191.369 584.119 191.494 584.523 191.744C584.926 191.991 585.248 192.365 585.49 192.865C585.731 193.362 585.852 193.986 585.852 194.736C585.852 195.466 585.734 196.082 585.498 196.585C585.265 197.085 584.947 197.464 584.544 197.723C584.143 197.979 583.694 198.107 583.197 198.107C582.845 198.107 582.545 198.048 582.298 197.932C582.054 197.815 581.854 197.669 581.697 197.493C581.541 197.314 581.422 197.134 581.339 196.952H581.284V200.455H579.469ZM581.246 194.727C581.246 195.116 581.3 195.456 581.407 195.746C581.515 196.036 581.672 196.261 581.876 196.423C582.081 196.582 582.329 196.662 582.622 196.662C582.917 196.662 583.167 196.581 583.372 196.419C583.577 196.254 583.731 196.027 583.836 195.737C583.944 195.445 583.998 195.108 583.998 194.727C583.998 194.349 583.946 194.017 583.841 193.73C583.736 193.443 583.581 193.219 583.376 193.057C583.172 192.895 582.92 192.814 582.622 192.814C582.327 192.814 582.077 192.892 581.872 193.048C581.67 193.205 581.515 193.426 581.407 193.713C581.3 194 581.246 194.338 581.246 194.727ZM587.062 200.455V191.455H588.852V192.554H588.933C589.013 192.378 589.128 192.199 589.278 192.017C589.432 191.832 589.631 191.679 589.875 191.557C590.122 191.432 590.429 191.369 590.795 191.369C591.273 191.369 591.713 191.494 592.116 191.744C592.52 191.991 592.842 192.365 593.084 192.865C593.325 193.362 593.446 193.986 593.446 194.736C593.446 195.466 593.328 196.082 593.092 196.585C592.859 197.085 592.541 197.464 592.138 197.723C591.737 197.979 591.288 198.107 590.791 198.107C590.439 198.107 590.139 198.048 589.892 197.932C589.648 197.815 589.447 197.669 589.291 197.493C589.135 197.314 589.015 197.134 588.933 196.952H588.878V200.455H587.062ZM588.839 194.727C588.839 195.116 588.893 195.456 589.001 195.746C589.109 196.036 589.265 196.261 589.47 196.423C589.675 196.582 589.923 196.662 590.216 196.662C590.511 196.662 590.761 196.581 590.966 196.419C591.17 196.254 591.325 196.027 591.43 195.737C591.538 195.445 591.592 195.108 591.592 194.727C591.592 194.349 591.54 194.017 591.434 193.73C591.329 193.443 591.175 193.219 590.97 193.057C590.765 192.895 590.514 192.814 590.216 192.814C589.92 192.814 589.67 192.892 589.466 193.048C589.264 193.205 589.109 193.426 589.001 193.713C588.893 194 588.839 194.338 588.839 194.727ZM596.471 189.273V198H594.656V189.273H596.471ZM597.926 198V191.455H599.741V198H597.926ZM598.838 190.611C598.568 190.611 598.336 190.521 598.143 190.342C597.953 190.161 597.857 189.943 597.857 189.69C597.857 189.44 597.953 189.226 598.143 189.047C598.336 188.865 598.568 188.774 598.838 188.774C599.107 188.774 599.338 188.865 599.528 189.047C599.721 189.226 599.818 189.44 599.818 189.69C599.818 189.943 599.721 190.161 599.528 190.342C599.338 190.521 599.107 190.611 598.838 190.611ZM604.153 198.128C603.482 198.128 602.905 197.986 602.422 197.702C601.942 197.415 601.573 197.017 601.314 196.509C601.059 196 600.931 195.415 600.931 194.753C600.931 194.082 601.06 193.494 601.319 192.989C601.58 192.48 601.951 192.084 602.431 191.8C602.911 191.513 603.482 191.369 604.144 191.369C604.715 191.369 605.215 191.473 605.644 191.68C606.073 191.888 606.412 192.179 606.662 192.554C606.912 192.929 607.05 193.369 607.076 193.875H605.363C605.314 193.548 605.187 193.286 604.979 193.087C604.775 192.885 604.506 192.784 604.174 192.784C603.893 192.784 603.647 192.861 603.437 193.014C603.229 193.165 603.067 193.385 602.951 193.675C602.834 193.964 602.776 194.315 602.776 194.727C602.776 195.145 602.833 195.5 602.947 195.793C603.063 196.085 603.226 196.308 603.437 196.462C603.647 196.615 603.893 196.692 604.174 196.692C604.381 196.692 604.567 196.649 604.732 196.564C604.9 196.479 605.037 196.355 605.145 196.193C605.256 196.028 605.329 195.831 605.363 195.601H607.076C607.047 196.101 606.911 196.541 606.667 196.922C606.425 197.3 606.091 197.595 605.665 197.808C605.239 198.021 604.735 198.128 604.153 198.128ZM610.105 198.124C609.687 198.124 609.315 198.051 608.988 197.906C608.661 197.759 608.403 197.541 608.213 197.254C608.025 196.964 607.931 196.604 607.931 196.172C607.931 195.808 607.998 195.503 608.132 195.256C608.265 195.009 608.447 194.81 608.677 194.659C608.907 194.509 609.169 194.395 609.461 194.318C609.757 194.241 610.066 194.188 610.39 194.156C610.771 194.116 611.078 194.08 611.311 194.045C611.544 194.009 611.713 193.955 611.818 193.884C611.923 193.812 611.975 193.707 611.975 193.568V193.543C611.975 193.273 611.89 193.064 611.72 192.916C611.552 192.768 611.313 192.695 611.004 192.695C610.677 192.695 610.417 192.767 610.224 192.912C610.031 193.054 609.903 193.233 609.84 193.449L608.161 193.312C608.247 192.915 608.414 192.571 608.664 192.281C608.914 191.989 609.237 191.764 609.632 191.608C610.029 191.449 610.49 191.369 611.012 191.369C611.376 191.369 611.724 191.412 612.056 191.497C612.392 191.582 612.688 191.714 612.947 191.893C613.208 192.072 613.414 192.303 613.565 192.584C613.715 192.862 613.791 193.196 613.791 193.585V198H612.069V197.092H612.018C611.913 197.297 611.772 197.477 611.596 197.634C611.42 197.787 611.208 197.908 610.961 197.996C610.714 198.081 610.428 198.124 610.105 198.124ZM610.624 196.871C610.892 196.871 611.127 196.818 611.332 196.713C611.536 196.605 611.697 196.46 611.813 196.278C611.93 196.097 611.988 195.891 611.988 195.661V194.966C611.931 195.003 611.853 195.037 611.754 195.068C611.657 195.097 611.548 195.124 611.426 195.149C611.303 195.172 611.181 195.193 611.059 195.213C610.937 195.23 610.826 195.246 610.727 195.26C610.514 195.291 610.328 195.341 610.169 195.409C610.009 195.477 609.886 195.57 609.798 195.686C609.71 195.8 609.666 195.942 609.666 196.112C609.666 196.359 609.755 196.548 609.934 196.679C610.116 196.807 610.346 196.871 610.624 196.871ZM618.681 191.455V192.818H614.739V191.455H618.681ZM615.634 189.886H617.449V195.989C617.449 196.156 617.475 196.287 617.526 196.381C617.577 196.472 617.648 196.536 617.739 196.572C617.833 196.609 617.941 196.628 618.063 196.628C618.148 196.628 618.233 196.621 618.318 196.607C618.404 196.589 618.469 196.577 618.514 196.568L618.8 197.919C618.709 197.947 618.581 197.98 618.416 198.017C618.252 198.057 618.051 198.081 617.816 198.089C617.378 198.107 616.994 198.048 616.665 197.915C616.338 197.781 616.084 197.574 615.902 197.293C615.72 197.011 615.631 196.656 615.634 196.227V189.886ZM619.863 198V191.455H621.678V198H619.863ZM620.775 190.611C620.505 190.611 620.274 190.521 620.08 190.342C619.89 190.161 619.795 189.943 619.795 189.69C619.795 189.44 619.89 189.226 620.08 189.047C620.274 188.865 620.505 188.774 620.775 188.774C621.045 188.774 621.275 188.865 621.465 189.047C621.659 189.226 621.755 189.44 621.755 189.69C621.755 189.943 621.659 190.161 621.465 190.342C621.275 190.521 621.045 190.611 620.775 190.611ZM626.09 198.128C625.428 198.128 624.856 197.987 624.373 197.706C623.893 197.422 623.522 197.027 623.26 196.521C622.999 196.013 622.868 195.423 622.868 194.753C622.868 194.077 622.999 193.486 623.26 192.98C623.522 192.472 623.893 192.077 624.373 191.795C624.856 191.511 625.428 191.369 626.09 191.369C626.752 191.369 627.323 191.511 627.803 191.795C628.286 192.077 628.658 192.472 628.92 192.98C629.181 193.486 629.312 194.077 629.312 194.753C629.312 195.423 629.181 196.013 628.92 196.521C628.658 197.027 628.286 197.422 627.803 197.706C627.323 197.987 626.752 198.128 626.09 198.128ZM626.099 196.722C626.4 196.722 626.651 196.636 626.853 196.466C627.055 196.293 627.206 196.057 627.309 195.759C627.414 195.46 627.466 195.121 627.466 194.74C627.466 194.359 627.414 194.02 627.309 193.722C627.206 193.423 627.055 193.187 626.853 193.014C626.651 192.841 626.4 192.754 626.099 192.754C625.795 192.754 625.539 192.841 625.331 193.014C625.127 193.187 624.972 193.423 624.867 193.722C624.765 194.02 624.714 194.359 624.714 194.74C624.714 195.121 624.765 195.46 624.867 195.759C624.972 196.057 625.127 196.293 625.331 196.466C625.539 196.636 625.795 196.722 626.099 196.722ZM632.307 194.216V198H630.492V191.455H632.222V192.609H632.299C632.444 192.229 632.687 191.928 633.028 191.706C633.368 191.482 633.782 191.369 634.268 191.369C634.722 191.369 635.118 191.469 635.456 191.668C635.795 191.866 636.057 192.151 636.245 192.52C636.432 192.886 636.526 193.324 636.526 193.832V198H634.711V194.156C634.714 193.756 634.611 193.443 634.404 193.219C634.197 192.991 633.911 192.878 633.547 192.878C633.303 192.878 633.087 192.93 632.9 193.036C632.715 193.141 632.57 193.294 632.465 193.496C632.363 193.695 632.31 193.935 632.307 194.216Z" fill="black"/>
<path d="M591.672 318.964L591.672 322.374L667.896 322.37L667.895 318.96L591.672 318.964Z" fill="white" stroke="#0055DC" stroke-width="1.5" stroke-miterlimit="10"/>
<path d="M672.568 296.459H587V318.961H672.568V296.459Z" fill="#C5EBF5" stroke="#0055DC" stroke-width="1.5" stroke-miterlimit="10"/>
<path d="M668.872 315.527V299.893H590.696V315.527H668.872Z" fill="white"/>
<path d="M597.041 306.011C597.919 306.011 598.63 305.299 598.63 304.422C598.63 303.544 597.919 302.833 597.041 302.833C596.163 302.833 595.452 303.544 595.452 304.422C595.452 305.299 596.163 306.011 597.041 306.011Z" fill="#0055DC"/>
<path d="M603.444 309.563H595.262" stroke="#0055DC" stroke-width="1.5" stroke-miterlimit="10"/>
<path d="M625.461 312.233H595.262" stroke="#0055DC" stroke-width="1.5" stroke-miterlimit="10"/>
<path d="M636.294 312.233H629.139" stroke="#0055DC" stroke-width="1.5" stroke-miterlimit="10"/>
<path d="M591.672 293.003L591.672 296.413L667.896 296.409L667.895 292.999L591.672 293.003Z" fill="white" stroke="#0055DC" stroke-width="1.5" stroke-miterlimit="10"/>
<path d="M672.568 275H587V293H672.568V275Z" fill="#C5EBF5" stroke="#0055DC" stroke-width="1.5" stroke-miterlimit="10"/>
<path d="M668.872 289.566V278.434H590.696V289.566H668.872Z" fill="white"/>
<path d="M597.041 285.081C597.626 285.081 598.1 284.607 598.1 284.022C598.1 283.437 597.626 282.963 597.041 282.963C596.456 282.963 595.982 283.437 595.982 284.022C595.982 284.607 596.456 285.081 597.041 285.081Z" fill="#0055DC"/>
<path d="M600.881 285.081C601.466 285.081 601.941 284.607 601.941 284.022C601.941 283.437 601.466 282.963 600.881 282.963C600.296 282.963 599.822 283.437 599.822 284.022C599.822 284.607 600.296 285.081 600.881 285.081Z" fill="#0055DC"/>
<path d="M606.341 286.406C607.658 286.406 608.725 285.338 608.725 284.022C608.725 282.706 607.658 281.638 606.341 281.638C605.025 281.638 603.958 282.706 603.958 284.022C603.958 285.338 605.025 286.406 606.341 286.406Z" fill="#0055DC"/>
<path d="M663.778 286.272H638.875" stroke="#0055DC" stroke-width="1.5" stroke-miterlimit="10"/>
<path d="M636.294 286.272H629.139" stroke="#0055DC" stroke-width="1.5" stroke-miterlimit="10"/>
<path d="M663.888 283.47H656.733" stroke="#6ECCE5" stroke-width="1.5" stroke-miterlimit="10"/>
<path d="M663.888 281.109H656.733" stroke="#6ECCE5" stroke-width="1.5" stroke-miterlimit="10"/>
<path d="M645 219.612H551V281.343H645V219.612Z" fill="white"/>
<path d="M645 215.403H551V222.418H645V215.403Z" fill="#0055DC" stroke="#0055DC" stroke-width="1.5" stroke-miterlimit="10"/>
<path d="M555.349 220.167C556.356 220.167 557.172 219.351 557.172 218.344C557.172 217.337 556.356 216.521 555.349 216.521C554.342 216.521 553.526 217.337 553.526 218.344C553.526 219.351 554.342 220.167 555.349 220.167Z" fill="white"/>
<path d="M561.244 220.167C562.251 220.167 563.067 219.351 563.067 218.344C563.067 217.337 562.251 216.521 561.244 216.521C560.237 216.521 559.421 217.337 559.421 218.344C559.421 219.351 560.237 220.167 561.244 220.167Z" fill="white"/>
<path d="M567.141 220.167C568.148 220.167 568.964 219.351 568.964 218.344C568.964 217.337 568.148 216.521 567.141 216.521C566.134 216.521 565.318 217.337 565.318 218.344C565.318 219.351 566.134 220.167 567.141 220.167Z" fill="white"/>
<path d="M605.617 228.936H556.6V248.776H605.617V228.936Z" fill="#E2F5FA"/>
<path d="M584.609 252.278H556.6V276.786H584.609V252.278Z" fill="#E2F5FA"/>
<path d="M639.462 228.936H609.118V248.776H639.462V228.936Z" fill="#E2F5FA"/>
<path d="M639.461 252.278H588.11V276.786H639.461V252.278Z" fill="#E2F5FA"/>
<path d="M645 214H551V222.418H645V214Z" stroke="#0055DC" stroke-width="1.5" stroke-miterlimit="10"/>
<path d="M645 214H551V281.343H645V214Z" stroke="#0055DC" stroke-width="1.5" stroke-miterlimit="10"/>
<rect x="494" y="271" width="108" height="44" fill="#E2F5FA" stroke="#F6821F" stroke-width="2"/>
<path d="M535.446 282.794V281.273H542.613V282.794H539.941V290H538.118V282.794H535.446ZM547.066 287.213V283.455H548.882V290H547.139V288.811H547.071C546.923 289.195 546.677 289.503 546.333 289.736C545.993 289.969 545.576 290.085 545.085 290.085C544.647 290.085 544.262 289.986 543.93 289.787C543.598 289.588 543.338 289.305 543.15 288.939C542.966 288.572 542.872 288.134 542.869 287.622V283.455H544.684V287.298C544.687 287.685 544.791 287.99 544.995 288.214C545.2 288.439 545.474 288.551 545.818 288.551C546.037 288.551 546.241 288.501 546.431 288.402C546.622 288.3 546.775 288.149 546.892 287.95C547.011 287.751 547.069 287.506 547.066 287.213ZM552.149 286.216V290H550.334V283.455H552.064V284.609H552.141C552.286 284.229 552.528 283.928 552.869 283.706C553.21 283.482 553.624 283.369 554.109 283.369C554.564 283.369 554.96 283.469 555.298 283.668C555.636 283.866 555.899 284.151 556.087 284.52C556.274 284.886 556.368 285.324 556.368 285.832V290H554.553V286.156C554.555 285.756 554.453 285.443 554.246 285.219C554.038 284.991 553.753 284.878 553.389 284.878C553.145 284.878 552.929 284.93 552.741 285.036C552.557 285.141 552.412 285.294 552.307 285.496C552.205 285.695 552.152 285.935 552.149 286.216ZM559.614 286.216V290H557.799V283.455H559.529V284.609H559.605C559.75 284.229 559.993 283.928 560.334 283.706C560.675 283.482 561.088 283.369 561.574 283.369C562.029 283.369 562.425 283.469 562.763 283.668C563.101 283.866 563.364 284.151 563.551 284.52C563.739 284.886 563.833 285.324 563.833 285.832V290H562.017V286.156C562.02 285.756 561.918 285.443 561.711 285.219C561.503 284.991 561.218 284.878 560.854 284.878C560.61 284.878 560.394 284.93 560.206 285.036C560.022 285.141 559.877 285.294 559.772 285.496C559.669 285.695 559.617 285.935 559.614 286.216ZM568.246 290.128C567.573 290.128 566.994 289.991 566.508 289.719C566.025 289.443 565.653 289.054 565.391 288.551C565.13 288.045 564.999 287.447 564.999 286.757C564.999 286.084 565.13 285.493 565.391 284.984C565.653 284.476 566.021 284.08 566.495 283.795C566.972 283.511 567.532 283.369 568.174 283.369C568.606 283.369 569.008 283.439 569.38 283.578C569.755 283.714 570.082 283.92 570.36 284.196C570.641 284.472 570.86 284.818 571.016 285.236C571.173 285.651 571.251 286.136 571.251 286.693V287.192H565.724V286.067H569.542C569.542 285.805 569.485 285.574 569.371 285.372C569.258 285.17 569.1 285.013 568.898 284.899C568.7 284.783 568.468 284.724 568.204 284.724C567.928 284.724 567.684 284.788 567.471 284.916C567.261 285.041 567.096 285.21 566.977 285.423C566.857 285.634 566.796 285.868 566.793 286.126V287.196C566.793 287.52 566.853 287.8 566.972 288.036C567.094 288.271 567.266 288.453 567.488 288.581C567.71 288.709 567.972 288.773 568.276 288.773C568.478 288.773 568.663 288.744 568.83 288.688C568.998 288.631 569.141 288.545 569.261 288.432C569.38 288.318 569.471 288.179 569.533 288.014L571.212 288.125C571.127 288.528 570.952 288.881 570.688 289.182C570.427 289.48 570.089 289.713 569.674 289.881C569.262 290.045 568.786 290.128 568.246 290.128ZM574.251 281.273V290H572.435V281.273H574.251ZM532.263 298.328H530.397C530.363 298.087 530.293 297.872 530.188 297.685C530.083 297.494 529.948 297.332 529.783 297.199C529.619 297.065 529.428 296.963 529.212 296.892C528.999 296.821 528.768 296.786 528.518 296.786C528.066 296.786 527.673 296.898 527.337 297.122C527.002 297.344 526.742 297.668 526.558 298.094C526.373 298.517 526.281 299.031 526.281 299.636C526.281 300.259 526.373 300.781 526.558 301.205C526.745 301.628 527.006 301.947 527.342 302.163C527.677 302.379 528.065 302.487 528.505 302.487C528.752 302.487 528.981 302.455 529.191 302.389C529.404 302.324 529.593 302.229 529.758 302.104C529.923 301.976 530.059 301.821 530.167 301.639C530.278 301.457 530.354 301.25 530.397 301.017L532.263 301.026C532.215 301.426 532.094 301.812 531.901 302.185C531.711 302.554 531.454 302.885 531.13 303.178C530.809 303.467 530.425 303.697 529.979 303.868C529.536 304.036 529.035 304.119 528.475 304.119C527.697 304.119 527.001 303.943 526.387 303.591C525.776 303.239 525.293 302.729 524.938 302.061C524.586 301.393 524.41 300.585 524.41 299.636C524.41 298.685 524.589 297.875 524.947 297.207C525.305 296.54 525.79 296.031 526.404 295.682C527.018 295.33 527.708 295.153 528.475 295.153C528.981 295.153 529.45 295.224 529.881 295.366C530.316 295.509 530.701 295.716 531.036 295.989C531.371 296.259 531.644 296.589 531.854 296.982C532.067 297.374 532.204 297.822 532.263 298.328ZM536.51 304.128C535.848 304.128 535.276 303.987 534.793 303.706C534.313 303.422 533.942 303.027 533.68 302.521C533.419 302.013 533.288 301.423 533.288 300.753C533.288 300.077 533.419 299.486 533.68 298.98C533.942 298.472 534.313 298.077 534.793 297.795C535.276 297.511 535.848 297.369 536.51 297.369C537.172 297.369 537.743 297.511 538.223 297.795C538.706 298.077 539.078 298.472 539.339 298.98C539.601 299.486 539.732 300.077 539.732 300.753C539.732 301.423 539.601 302.013 539.339 302.521C539.078 303.027 538.706 303.422 538.223 303.706C537.743 303.987 537.172 304.128 536.51 304.128ZM536.518 302.722C536.82 302.722 537.071 302.636 537.273 302.466C537.474 302.293 537.626 302.057 537.729 301.759C537.834 301.46 537.886 301.121 537.886 300.74C537.886 300.359 537.834 300.02 537.729 299.722C537.626 299.423 537.474 299.187 537.273 299.014C537.071 298.841 536.82 298.754 536.518 298.754C536.214 298.754 535.959 298.841 535.751 299.014C535.547 299.187 535.392 299.423 535.287 299.722C535.185 300.02 535.134 300.359 535.134 300.74C535.134 301.121 535.185 301.46 535.287 301.759C535.392 302.057 535.547 302.293 535.751 302.466C535.959 302.636 536.214 302.722 536.518 302.722ZM542.727 300.216V304H540.912V297.455H542.642V298.609H542.719C542.864 298.229 543.107 297.928 543.447 297.706C543.788 297.482 544.202 297.369 544.688 297.369C545.142 297.369 545.538 297.469 545.876 297.668C546.214 297.866 546.477 298.151 546.665 298.52C546.852 298.886 546.946 299.324 546.946 299.832V304H545.131V300.156C545.134 299.756 545.031 299.443 544.824 299.219C544.616 298.991 544.331 298.878 543.967 298.878C543.723 298.878 543.507 298.93 543.32 299.036C543.135 299.141 542.99 299.294 542.885 299.496C542.783 299.695 542.73 299.935 542.727 300.216ZM550.192 300.216V304H548.377V297.455H550.107V298.609H550.184C550.328 298.229 550.571 297.928 550.912 297.706C551.253 297.482 551.667 297.369 552.152 297.369C552.607 297.369 553.003 297.469 553.341 297.668C553.679 297.866 553.942 298.151 554.13 298.52C554.317 298.886 554.411 299.324 554.411 299.832V304H552.596V300.156C552.598 299.756 552.496 299.443 552.289 299.219C552.081 298.991 551.796 298.878 551.432 298.878C551.188 298.878 550.972 298.93 550.784 299.036C550.6 299.141 550.455 299.294 550.35 299.496C550.248 299.695 550.195 299.935 550.192 300.216ZM558.825 304.128C558.151 304.128 557.572 303.991 557.086 303.719C556.603 303.443 556.231 303.054 555.969 302.551C555.708 302.045 555.577 301.447 555.577 300.757C555.577 300.084 555.708 299.493 555.969 298.984C556.231 298.476 556.599 298.08 557.073 297.795C557.55 297.511 558.11 297.369 558.752 297.369C559.184 297.369 559.586 297.439 559.958 297.578C560.333 297.714 560.66 297.92 560.938 298.196C561.219 298.472 561.438 298.818 561.594 299.236C561.751 299.651 561.829 300.136 561.829 300.693V301.192H556.302V300.067H560.12C560.12 299.805 560.063 299.574 559.95 299.372C559.836 299.17 559.678 299.013 559.477 298.899C559.278 298.783 559.046 298.724 558.782 298.724C558.506 298.724 558.262 298.788 558.049 298.916C557.839 299.041 557.674 299.21 557.555 299.423C557.435 299.634 557.374 299.868 557.371 300.126V301.196C557.371 301.52 557.431 301.8 557.55 302.036C557.673 302.271 557.844 302.453 558.066 302.581C558.288 302.709 558.55 302.773 558.854 302.773C559.056 302.773 559.241 302.744 559.408 302.688C559.576 302.631 559.719 302.545 559.839 302.432C559.958 302.318 560.049 302.179 560.112 302.014L561.79 302.125C561.705 302.528 561.531 302.881 561.266 303.182C561.005 303.48 560.667 303.713 560.252 303.881C559.84 304.045 559.364 304.128 558.825 304.128ZM565.971 304.128C565.3 304.128 564.724 303.986 564.241 303.702C563.761 303.415 563.391 303.017 563.133 302.509C562.877 302 562.749 301.415 562.749 300.753C562.749 300.082 562.879 299.494 563.137 298.989C563.398 298.48 563.769 298.084 564.249 297.8C564.729 297.513 565.3 297.369 565.962 297.369C566.533 297.369 567.033 297.473 567.462 297.68C567.891 297.888 568.231 298.179 568.481 298.554C568.731 298.929 568.869 299.369 568.894 299.875H567.181C567.133 299.548 567.005 299.286 566.798 299.087C566.593 298.885 566.325 298.784 565.992 298.784C565.711 298.784 565.465 298.861 565.255 299.014C565.048 299.165 564.886 299.385 564.769 299.675C564.653 299.964 564.594 300.315 564.594 300.727C564.594 301.145 564.651 301.5 564.765 301.793C564.881 302.085 565.045 302.308 565.255 302.462C565.465 302.615 565.711 302.692 565.992 302.692C566.2 302.692 566.386 302.649 566.55 302.564C566.718 302.479 566.856 302.355 566.964 302.193C567.075 302.028 567.147 301.831 567.181 301.601H568.894C568.866 302.101 568.729 302.541 568.485 302.922C568.244 303.3 567.91 303.595 567.484 303.808C567.058 304.021 566.553 304.128 565.971 304.128ZM573.538 297.455V298.818H569.596V297.455H573.538ZM570.491 295.886H572.306V301.989C572.306 302.156 572.332 302.287 572.383 302.381C572.434 302.472 572.505 302.536 572.596 302.572C572.69 302.609 572.798 302.628 572.92 302.628C573.005 302.628 573.091 302.621 573.176 302.607C573.261 302.589 573.326 302.577 573.372 302.568L573.657 303.919C573.566 303.947 573.439 303.98 573.274 304.017C573.109 304.057 572.909 304.081 572.673 304.089C572.235 304.107 571.852 304.048 571.522 303.915C571.196 303.781 570.941 303.574 570.76 303.293C570.578 303.011 570.488 302.656 570.491 302.227V295.886ZM577.608 304.128C576.946 304.128 576.373 303.987 575.89 303.706C575.41 303.422 575.039 303.027 574.778 302.521C574.517 302.013 574.386 301.423 574.386 300.753C574.386 300.077 574.517 299.486 574.778 298.98C575.039 298.472 575.41 298.077 575.89 297.795C576.373 297.511 576.946 297.369 577.608 297.369C578.27 297.369 578.841 297.511 579.321 297.795C579.804 298.077 580.176 298.472 580.437 298.98C580.699 299.486 580.829 300.077 580.829 300.753C580.829 301.423 580.699 302.013 580.437 302.521C580.176 303.027 579.804 303.422 579.321 303.706C578.841 303.987 578.27 304.128 577.608 304.128ZM577.616 302.722C577.917 302.722 578.169 302.636 578.37 302.466C578.572 302.293 578.724 302.057 578.826 301.759C578.931 301.46 578.984 301.121 578.984 300.74C578.984 300.359 578.931 300.02 578.826 299.722C578.724 299.423 578.572 299.187 578.37 299.014C578.169 298.841 577.917 298.754 577.616 298.754C577.312 298.754 577.056 298.841 576.849 299.014C576.645 299.187 576.49 299.423 576.385 299.722C576.282 300.02 576.231 300.359 576.231 300.74C576.231 301.121 576.282 301.46 576.385 301.759C576.49 302.057 576.645 302.293 576.849 302.466C577.056 302.636 577.312 302.722 577.616 302.722ZM582.01 304V297.455H583.77V298.597H583.838C583.957 298.19 584.157 297.884 584.439 297.676C584.72 297.466 585.044 297.361 585.41 297.361C585.501 297.361 585.599 297.366 585.704 297.378C585.809 297.389 585.902 297.405 585.981 297.425V299.036C585.896 299.01 585.778 298.987 585.627 298.967C585.477 298.947 585.339 298.938 585.214 298.938C584.947 298.938 584.708 298.996 584.498 299.112C584.291 299.226 584.126 299.385 584.004 299.589C583.885 299.794 583.825 300.03 583.825 300.297V304H582.01Z" fill="#222222"/>
<path d="M508.755 295.511H504.433L503.8 294.183L511.55 280.473L512.891 281.116L511.289 290.37H515.61L516.244 291.698L508.494 305.409L507.153 304.766L508.755 295.511Z" fill="#F6821F"/>
<rect x="494" y="305" width="108" height="24" transform="rotate(-180 494 305)" fill="#E2F5FA" stroke="#0055DC" stroke-width="2"/>
<rect x="385" y="282" width="113" height="22" fill="#E2F5FA"/>
<path d="M396.293 292.293C395.902 292.683 395.902 293.317 396.293 293.707L402.657 300.071C403.047 300.462 403.681 300.462 404.071 300.071C404.462 299.681 404.462 299.047 404.071 298.657L398.414 293L404.071 287.343C404.462 286.953 404.462 286.319 404.071 285.929C403.681 285.538 403.047 285.538 402.657 285.929L396.293 292.293ZM490.707 293.707C491.098 293.317 491.098 292.683 490.707 292.293L484.343 285.929C483.953 285.538 483.319 285.538 482.929 285.929C482.538 286.319 482.538 286.953 482.929 287.343L488.586 293L482.929 298.657C482.538 299.047 482.538 299.681 482.929 300.071C483.319 300.462 483.953 300.462 484.343 300.071L490.707 293.707ZM397 294L490 294L490 292L397 292L397 294Z" fill="#757575"/>
<path d="M206.293 290.293C205.902 290.683 205.902 291.317 206.293 291.707L212.657 298.071C213.047 298.462 213.681 298.462 214.071 298.071C214.462 297.681 214.462 297.047 214.071 296.657L208.414 291L214.071 285.343C214.462 284.953 214.462 284.319 214.071 283.929C213.681 283.538 213.047 283.538 212.657 283.929L206.293 290.293ZM287.707 291.707C288.098 291.317 288.098 290.683 287.707 290.293L281.343 283.929C280.953 283.538 280.319 283.538 279.929 283.929C279.538 284.319 279.538 284.953 279.929 285.343L285.586 291L279.929 296.657C279.538 297.047 279.538 297.681 279.929 298.071C280.319 298.462 280.953 298.462 281.343 298.071L287.707 291.707ZM207 292L287 292L287 290L207 290L207 292Z" fill="#757575"/>
<ellipse cx="343.5" cy="292" rx="44.5" ry="45" fill="white"/>
<circle cx="343.489" cy="291.889" r="44.8889" stroke="#F6821F" stroke-width="2"/>
<rect x="306.341" y="328.163" width="74.2963" height="35.837" rx="17.9185" fill="white"/>
<path d="M321.693 341.728H319.827C319.793 341.487 319.723 341.272 319.618 341.085C319.513 340.894 319.378 340.732 319.213 340.599C319.048 340.465 318.858 340.363 318.642 340.292C318.429 340.221 318.198 340.185 317.948 340.185C317.496 340.185 317.102 340.298 316.767 340.522C316.432 340.744 316.172 341.068 315.987 341.494C315.803 341.917 315.71 342.431 315.71 343.036C315.71 343.658 315.803 344.181 315.987 344.604C316.175 345.028 316.436 345.347 316.771 345.563C317.107 345.779 317.494 345.887 317.935 345.887C318.182 345.887 318.411 345.854 318.621 345.789C318.834 345.724 319.023 345.629 319.188 345.504C319.352 345.376 319.489 345.221 319.597 345.039C319.708 344.857 319.784 344.65 319.827 344.417L321.693 344.425C321.645 344.826 321.524 345.212 321.331 345.585C321.141 345.954 320.884 346.285 320.56 346.577C320.239 346.867 319.855 347.097 319.409 347.268C318.966 347.435 318.465 347.519 317.905 347.519C317.127 347.519 316.431 347.343 315.817 346.991C315.206 346.639 314.723 346.129 314.368 345.461C314.016 344.793 313.84 343.985 313.84 343.036C313.84 342.085 314.019 341.275 314.377 340.607C314.735 339.94 315.22 339.431 315.834 339.082C316.448 338.729 317.138 338.553 317.905 338.553C318.411 338.553 318.879 338.624 319.311 338.766C319.746 338.908 320.131 339.116 320.466 339.389C320.801 339.658 321.074 339.989 321.284 340.381C321.497 340.773 321.634 341.222 321.693 341.728ZM324.798 338.673V347.4H322.982V338.673H324.798ZM329.209 347.528C328.547 347.528 327.975 347.387 327.492 347.106C327.012 346.822 326.641 346.427 326.38 345.921C326.118 345.413 325.988 344.823 325.988 344.153C325.988 343.477 326.118 342.886 326.38 342.38C326.641 341.871 327.012 341.477 327.492 341.195C327.975 340.911 328.547 340.769 329.209 340.769C329.871 340.769 330.442 340.911 330.922 341.195C331.405 341.477 331.777 341.871 332.039 342.38C332.3 342.886 332.431 343.477 332.431 344.153C332.431 344.823 332.3 345.413 332.039 345.921C331.777 346.427 331.405 346.822 330.922 347.106C330.442 347.387 329.871 347.528 329.209 347.528ZM329.218 346.121C329.519 346.121 329.77 346.036 329.972 345.866C330.174 345.693 330.326 345.457 330.428 345.158C330.533 344.86 330.586 344.521 330.586 344.14C330.586 343.759 330.533 343.42 330.428 343.121C330.326 342.823 330.174 342.587 329.972 342.414C329.77 342.241 329.519 342.154 329.218 342.154C328.914 342.154 328.658 342.241 328.451 342.414C328.246 342.587 328.091 342.823 327.986 343.121C327.884 343.42 327.833 343.759 327.833 344.14C327.833 344.521 327.884 344.86 327.986 345.158C328.091 345.457 328.246 345.693 328.451 345.866C328.658 346.036 328.914 346.121 329.218 346.121ZM337.809 344.613V340.854H339.624V347.4H337.881V346.211H337.813C337.665 346.595 337.42 346.903 337.076 347.136C336.735 347.369 336.319 347.485 335.827 347.485C335.39 347.485 335.005 347.386 334.672 347.187C334.34 346.988 334.08 346.705 333.893 346.339C333.708 345.972 333.614 345.533 333.611 345.022V340.854H335.427V344.698C335.429 345.085 335.533 345.39 335.738 345.614C335.942 345.839 336.216 345.951 336.56 345.951C336.779 345.951 336.983 345.901 337.174 345.802C337.364 345.7 337.518 345.549 337.634 345.35C337.753 345.151 337.812 344.906 337.809 344.613ZM343.488 347.506C342.991 347.506 342.541 347.379 342.137 347.123C341.737 346.864 341.418 346.485 341.183 345.985C340.95 345.482 340.833 344.866 340.833 344.136C340.833 343.386 340.954 342.762 341.195 342.265C341.437 341.765 341.758 341.391 342.159 341.144C342.562 340.894 343.004 340.769 343.484 340.769C343.85 340.769 344.156 340.832 344.4 340.957C344.647 341.079 344.846 341.232 344.997 341.417C345.15 341.599 345.266 341.778 345.346 341.954H345.401V338.673H347.213V347.4H345.423V346.352H345.346C345.261 346.533 345.14 346.714 344.984 346.893C344.83 347.069 344.63 347.215 344.383 347.332C344.139 347.448 343.84 347.506 343.488 347.506ZM344.063 346.062C344.356 346.062 344.603 345.982 344.805 345.823C345.009 345.661 345.166 345.435 345.274 345.146C345.384 344.856 345.44 344.516 345.44 344.127C345.44 343.738 345.386 343.4 345.278 343.113C345.17 342.826 345.014 342.604 344.809 342.448C344.605 342.292 344.356 342.214 344.063 342.214C343.765 342.214 343.514 342.295 343.309 342.457C343.105 342.619 342.95 342.843 342.845 343.13C342.739 343.417 342.687 343.749 342.687 344.127C342.687 344.508 342.739 344.845 342.845 345.137C342.953 345.427 343.107 345.654 343.309 345.819C343.514 345.981 343.765 346.062 344.063 346.062ZM352.225 340.854V342.218H348.185V340.854H352.225ZM349.11 347.4V340.381C349.11 339.907 349.202 339.514 349.387 339.201C349.574 338.889 349.83 338.654 350.154 338.498C350.478 338.342 350.846 338.264 351.258 338.264C351.536 338.264 351.79 338.285 352.02 338.327C352.253 338.37 352.427 338.408 352.54 338.443L352.216 339.806C352.145 339.783 352.057 339.762 351.952 339.742C351.85 339.722 351.745 339.712 351.637 339.712C351.37 339.712 351.184 339.775 351.079 339.9C350.974 340.022 350.921 340.194 350.921 340.416V347.4H349.11ZM355.149 338.673V347.4H353.334V338.673H355.149ZM358.47 347.523C358.052 347.523 357.68 347.451 357.353 347.306C357.027 347.158 356.768 346.941 356.578 346.654C356.39 346.364 356.297 346.004 356.297 345.572C356.297 345.208 356.363 344.903 356.497 344.656C356.63 344.408 356.812 344.21 357.042 344.059C357.273 343.908 357.534 343.795 357.826 343.718C358.122 343.641 358.432 343.587 358.755 343.556C359.136 343.516 359.443 343.479 359.676 343.445C359.909 343.408 360.078 343.354 360.183 343.283C360.288 343.212 360.341 343.107 360.341 342.968V342.943C360.341 342.673 360.255 342.464 360.085 342.316C359.917 342.168 359.679 342.095 359.369 342.095C359.042 342.095 358.782 342.167 358.589 342.312C358.396 342.454 358.268 342.633 358.206 342.849L356.527 342.712C356.612 342.315 356.78 341.971 357.03 341.681C357.28 341.389 357.602 341.164 357.997 341.008C358.395 340.849 358.855 340.769 359.378 340.769C359.741 340.769 360.089 340.812 360.422 340.897C360.757 340.982 361.054 341.114 361.312 341.293C361.574 341.472 361.78 341.702 361.93 341.984C362.081 342.262 362.156 342.596 362.156 342.985V347.4H360.434V346.492H360.383C360.278 346.697 360.138 346.877 359.961 347.033C359.785 347.187 359.574 347.308 359.326 347.396C359.079 347.481 358.794 347.523 358.47 347.523ZM358.99 346.271C359.257 346.271 359.493 346.218 359.697 346.113C359.902 346.005 360.062 345.86 360.179 345.678C360.295 345.496 360.353 345.291 360.353 345.06V344.366C360.297 344.403 360.219 344.437 360.119 344.468C360.023 344.496 359.913 344.523 359.791 344.549C359.669 344.572 359.547 344.593 359.425 344.613C359.302 344.63 359.192 344.646 359.092 344.66C358.879 344.691 358.693 344.741 358.534 344.809C358.375 344.877 358.251 344.97 358.163 345.086C358.075 345.2 358.031 345.342 358.031 345.512C358.031 345.759 358.121 345.948 358.3 346.079C358.481 346.207 358.711 346.271 358.99 346.271ZM363.564 347.4V340.854H365.324V341.996H365.393C365.512 341.59 365.712 341.283 365.993 341.076C366.275 340.866 366.599 340.761 366.965 340.761C367.056 340.761 367.154 340.766 367.259 340.778C367.364 340.789 367.456 340.805 367.536 340.825V342.435C367.451 342.41 367.333 342.387 367.182 342.367C367.032 342.347 366.894 342.337 366.769 342.337C366.502 342.337 366.263 342.396 366.053 342.512C365.846 342.626 365.681 342.785 365.559 342.989C365.439 343.194 365.38 343.43 365.38 343.697V347.4H363.564ZM371.153 347.528C370.48 347.528 369.9 347.391 369.414 347.119C368.931 346.843 368.559 346.454 368.298 345.951C368.036 345.445 367.906 344.847 367.906 344.157C367.906 343.484 368.036 342.893 368.298 342.384C368.559 341.876 368.927 341.479 369.401 341.195C369.879 340.911 370.438 340.769 371.08 340.769C371.512 340.769 371.914 340.839 372.286 340.978C372.661 341.114 372.988 341.32 373.266 341.596C373.548 341.871 373.766 342.218 373.923 342.636C374.079 343.05 374.157 343.536 374.157 344.093V344.592H368.63V343.467H372.448C372.448 343.205 372.391 342.974 372.278 342.772C372.164 342.57 372.007 342.413 371.805 342.299C371.606 342.183 371.374 342.124 371.11 342.124C370.835 342.124 370.59 342.188 370.377 342.316C370.167 342.441 370.002 342.61 369.883 342.823C369.764 343.033 369.703 343.268 369.7 343.526V344.596C369.7 344.92 369.759 345.2 369.879 345.435C370.001 345.671 370.173 345.853 370.394 345.981C370.616 346.109 370.879 346.173 371.183 346.173C371.384 346.173 371.569 346.144 371.737 346.087C371.904 346.031 372.048 345.945 372.167 345.832C372.286 345.718 372.377 345.579 372.44 345.414L374.119 345.525C374.034 345.928 373.859 346.281 373.595 346.582C373.333 346.88 372.995 347.113 372.58 347.281C372.168 347.445 371.693 347.528 371.153 347.528Z" fill="#222222"/>
<path d="M355.438 301.586C355.822 300.267 355.676 299.058 355.035 298.161C354.449 297.337 353.46 296.86 352.27 296.805L329.728 296.512C329.581 296.512 329.453 296.439 329.38 296.329C329.306 296.219 329.288 296.073 329.325 295.926C329.398 295.707 329.618 295.542 329.856 295.523L352.599 295.23C355.291 295.102 358.221 292.922 359.247 290.248L360.547 286.86C360.602 286.713 360.62 286.567 360.583 286.42C359.118 279.79 353.204 274.844 346.135 274.844C339.616 274.844 334.086 279.057 332.108 284.9C330.826 283.948 329.197 283.435 327.439 283.6C324.307 283.911 321.798 286.42 321.487 289.552C321.414 290.358 321.469 291.146 321.652 291.878C316.543 292.025 312.459 296.201 312.459 301.348C312.459 301.806 312.496 302.264 312.551 302.722C312.587 302.941 312.771 303.106 312.99 303.106H354.595C354.833 303.106 355.053 302.941 355.126 302.703L355.438 301.586Z" fill="#F38020"/>
<path d="M362.616 287.098C362.415 287.098 362.195 287.098 361.993 287.116C361.847 287.116 361.719 287.226 361.664 287.373L360.785 290.431C360.4 291.75 360.547 292.959 361.188 293.857C361.774 294.681 362.763 295.157 363.953 295.212L368.751 295.505C368.897 295.505 369.025 295.578 369.099 295.688C369.172 295.798 369.19 295.963 369.153 296.091C369.08 296.311 368.86 296.476 368.622 296.494L363.623 296.787C360.913 296.915 358.001 299.095 356.976 301.769L356.61 302.703C356.536 302.886 356.665 303.07 356.866 303.07H374.043C374.244 303.07 374.427 302.941 374.482 302.74C374.775 301.678 374.94 300.56 374.94 299.406C374.94 292.629 369.41 287.098 362.616 287.098Z" fill="#FAAE40"/>
<circle cx="343.489" cy="142.889" r="44.8889" stroke="#6ECCE5" stroke-width="2"/>
<rect x="306.341" y="179.163" width="74.2963" height="35.837" rx="17.9185" fill="white"/>
<path d="M297.744 189.673V198.4H295.899V189.673H297.744ZM301.64 198.506C301.143 198.506 300.693 198.379 300.29 198.123C299.889 197.864 299.571 197.485 299.335 196.985C299.102 196.482 298.986 195.866 298.986 195.136C298.986 194.386 299.106 193.762 299.348 193.265C299.589 192.765 299.91 192.391 300.311 192.144C300.714 191.894 301.156 191.769 301.636 191.769C302.003 191.769 302.308 191.832 302.552 191.957C302.8 192.079 302.998 192.232 303.149 192.417C303.302 192.599 303.419 192.778 303.498 192.954H303.554V189.673H305.365V198.4H303.575V197.352H303.498C303.413 197.533 303.292 197.714 303.136 197.893C302.983 198.069 302.782 198.215 302.535 198.332C302.291 198.448 301.993 198.506 301.64 198.506ZM302.216 197.062C302.508 197.062 302.755 196.982 302.957 196.823C303.162 196.661 303.318 196.435 303.426 196.146C303.537 195.856 303.592 195.516 303.592 195.127C303.592 194.738 303.538 194.4 303.43 194.113C303.322 193.826 303.166 193.604 302.961 193.448C302.757 193.292 302.508 193.214 302.216 193.214C301.917 193.214 301.666 193.295 301.461 193.457C301.257 193.619 301.102 193.843 300.997 194.13C300.892 194.417 300.839 194.749 300.839 195.127C300.839 195.508 300.892 195.845 300.997 196.137C301.105 196.427 301.26 196.654 301.461 196.819C301.666 196.981 301.917 197.062 302.216 197.062ZM309.84 198.528C309.167 198.528 308.588 198.391 308.102 198.119C307.619 197.843 307.247 197.454 306.985 196.951C306.724 196.445 306.593 195.847 306.593 195.157C306.593 194.484 306.724 193.893 306.985 193.384C307.247 192.876 307.614 192.479 308.089 192.195C308.566 191.911 309.126 191.769 309.768 191.769C310.2 191.769 310.602 191.839 310.974 191.978C311.349 192.114 311.676 192.32 311.954 192.596C312.235 192.871 312.454 193.218 312.61 193.636C312.766 194.05 312.845 194.536 312.845 195.093V195.592H307.318V194.467H311.136C311.136 194.205 311.079 193.974 310.965 193.772C310.852 193.57 310.694 193.413 310.492 193.299C310.293 193.183 310.062 193.124 309.798 193.124C309.522 193.124 309.278 193.188 309.065 193.316C308.855 193.441 308.69 193.61 308.57 193.823C308.451 194.033 308.39 194.268 308.387 194.526V195.596C308.387 195.92 308.447 196.2 308.566 196.435C308.688 196.671 308.86 196.853 309.082 196.981C309.303 197.109 309.566 197.173 309.87 197.173C310.072 197.173 310.257 197.144 310.424 197.087C310.592 197.031 310.735 196.945 310.855 196.832C310.974 196.718 311.065 196.579 311.127 196.414L312.806 196.525C312.721 196.928 312.546 197.281 312.282 197.582C312.021 197.88 311.683 198.113 311.268 198.281C310.856 198.445 310.38 198.528 309.84 198.528ZM315.845 194.616V198.4H314.029V191.854H315.759V193.009H315.836C315.981 192.629 316.224 192.327 316.565 192.106C316.906 191.881 317.319 191.769 317.805 191.769C318.259 191.769 318.656 191.869 318.994 192.068C319.332 192.266 319.595 192.55 319.782 192.92C319.97 193.286 320.063 193.724 320.063 194.232V198.4H318.248V194.556C318.251 194.156 318.149 193.843 317.941 193.619C317.734 193.391 317.448 193.278 317.085 193.278C316.84 193.278 316.624 193.33 316.437 193.435C316.252 193.541 316.107 193.694 316.002 193.896C315.9 194.095 315.847 194.335 315.845 194.616ZM324.976 191.854V193.218H321.034V191.854H324.976ZM321.929 190.286H323.744V196.389C323.744 196.556 323.77 196.687 323.821 196.781C323.872 196.871 323.943 196.935 324.034 196.972C324.128 197.009 324.236 197.028 324.358 197.028C324.443 197.028 324.528 197.021 324.613 197.006C324.699 196.989 324.764 196.977 324.809 196.968L325.095 198.319C325.004 198.347 324.876 198.38 324.711 198.417C324.547 198.457 324.346 198.481 324.111 198.489C323.673 198.506 323.29 198.448 322.96 198.315C322.633 198.181 322.379 197.974 322.197 197.693C322.015 197.411 321.926 197.056 321.929 196.627V190.286ZM326.158 198.4V191.854H327.974V198.4H326.158ZM327.07 191.011C326.8 191.011 326.569 190.921 326.376 190.742C326.185 190.56 326.09 190.343 326.09 190.09C326.09 189.84 326.185 189.626 326.376 189.447C326.569 189.265 326.8 189.174 327.07 189.174C327.34 189.174 327.57 189.265 327.76 189.447C327.954 189.626 328.05 189.84 328.05 190.09C328.05 190.343 327.954 190.56 327.76 190.742C327.57 190.921 327.34 191.011 327.07 191.011ZM332.909 191.854V193.218H328.967V191.854H332.909ZM329.862 190.286H331.678V196.389C331.678 196.556 331.703 196.687 331.754 196.781C331.806 196.871 331.877 196.935 331.967 196.972C332.061 197.009 332.169 197.028 332.291 197.028C332.377 197.028 332.462 197.021 332.547 197.006C332.632 196.989 332.698 196.977 332.743 196.968L333.029 198.319C332.938 198.347 332.81 198.38 332.645 198.417C332.48 198.457 332.28 198.481 332.044 198.489C331.607 198.506 331.223 198.448 330.894 198.315C330.567 198.181 330.313 197.974 330.131 197.693C329.949 197.411 329.86 197.056 329.862 196.627V190.286ZM335.213 200.854C334.982 200.854 334.766 200.836 334.565 200.799C334.366 200.765 334.201 200.721 334.07 200.667L334.48 199.312C334.693 199.377 334.884 199.413 335.055 199.418C335.228 199.424 335.377 199.384 335.502 199.299C335.63 199.214 335.734 199.069 335.813 198.864L335.92 198.587L333.572 191.854H335.481L336.836 196.661H336.904L338.272 191.854H340.194L337.65 199.107C337.528 199.46 337.362 199.766 337.151 200.028C336.944 200.292 336.681 200.495 336.363 200.637C336.045 200.782 335.661 200.854 335.213 200.854ZM343.934 198.4V189.673H347.378C348.04 189.673 348.603 189.799 349.069 190.052C349.535 190.302 349.89 190.65 350.135 191.096C350.382 191.539 350.505 192.05 350.505 192.63C350.505 193.21 350.38 193.721 350.13 194.164C349.88 194.607 349.518 194.952 349.044 195.2C348.572 195.447 348.001 195.57 347.331 195.57H345.136V194.092H347.032C347.388 194.092 347.68 194.031 347.91 193.908C348.143 193.783 348.317 193.612 348.43 193.393C348.547 193.171 348.605 192.917 348.605 192.63C348.605 192.34 348.547 192.087 348.43 191.871C348.317 191.653 348.143 191.484 347.91 191.364C347.677 191.242 347.382 191.181 347.024 191.181H345.78V198.4H343.934ZM351.67 198.4V191.854H353.43V192.996H353.498C353.617 192.59 353.818 192.283 354.099 192.076C354.38 191.866 354.704 191.761 355.07 191.761C355.161 191.761 355.259 191.766 355.364 191.778C355.47 191.789 355.562 191.805 355.641 191.825V193.435C355.556 193.41 355.438 193.387 355.288 193.367C355.137 193.347 354.999 193.337 354.874 193.337C354.607 193.337 354.369 193.396 354.159 193.512C353.951 193.626 353.786 193.785 353.664 193.989C353.545 194.194 353.485 194.43 353.485 194.697V198.4H351.67ZM359.233 198.528C358.571 198.528 357.998 198.387 357.515 198.106C357.035 197.822 356.665 197.427 356.403 196.921C356.142 196.413 356.011 195.823 356.011 195.153C356.011 194.477 356.142 193.886 356.403 193.38C356.665 192.871 357.035 192.477 357.515 192.195C357.998 191.911 358.571 191.769 359.233 191.769C359.895 191.769 360.466 191.911 360.946 192.195C361.429 192.477 361.801 192.871 362.062 193.38C362.324 193.886 362.454 194.477 362.454 195.153C362.454 195.823 362.324 196.413 362.062 196.921C361.801 197.427 361.429 197.822 360.946 198.106C360.466 198.387 359.895 198.528 359.233 198.528ZM359.241 197.121C359.542 197.121 359.794 197.036 359.996 196.866C360.197 196.693 360.349 196.457 360.451 196.158C360.557 195.86 360.609 195.521 360.609 195.14C360.609 194.759 360.557 194.42 360.451 194.121C360.349 193.823 360.197 193.587 359.996 193.414C359.794 193.241 359.542 193.154 359.241 193.154C358.937 193.154 358.682 193.241 358.474 193.414C358.27 193.587 358.115 193.823 358.01 194.121C357.907 194.42 357.856 194.759 357.856 195.14C357.856 195.521 357.907 195.86 358.01 196.158C358.115 196.457 358.27 196.693 358.474 196.866C358.682 197.036 358.937 197.121 359.241 197.121ZM369.526 191.854L367.238 198.4H365.192L362.904 191.854H364.822L366.181 196.538H366.249L367.604 191.854H369.526ZM370.455 198.4V191.854H372.27V198.4H370.455ZM371.367 191.011C371.097 191.011 370.866 190.921 370.672 190.742C370.482 190.56 370.387 190.343 370.387 190.09C370.387 189.84 370.482 189.626 370.672 189.447C370.866 189.265 371.097 189.174 371.367 189.174C371.637 189.174 371.867 189.265 372.057 189.447C372.251 189.626 372.347 189.84 372.347 190.09C372.347 190.343 372.251 190.56 372.057 190.742C371.867 190.921 371.637 191.011 371.367 191.011ZM376.137 198.506C375.639 198.506 375.189 198.379 374.786 198.123C374.385 197.864 374.067 197.485 373.831 196.985C373.598 196.482 373.482 195.866 373.482 195.136C373.482 194.386 373.602 193.762 373.844 193.265C374.085 192.765 374.406 192.391 374.807 192.144C375.21 191.894 375.652 191.769 376.132 191.769C376.499 191.769 376.804 191.832 377.048 191.957C377.296 192.079 377.494 192.232 377.645 192.417C377.798 192.599 377.915 192.778 377.994 192.954H378.05V189.673H379.861V198.4H378.071V197.352H377.994C377.909 197.533 377.788 197.714 377.632 197.893C377.479 198.069 377.279 198.215 377.031 198.332C376.787 198.448 376.489 198.506 376.137 198.506ZM376.712 197.062C377.004 197.062 377.252 196.982 377.453 196.823C377.658 196.661 377.814 196.435 377.922 196.146C378.033 195.856 378.088 195.516 378.088 195.127C378.088 194.738 378.034 194.4 377.926 194.113C377.818 193.826 377.662 193.604 377.458 193.448C377.253 193.292 377.004 193.214 376.712 193.214C376.413 193.214 376.162 193.295 375.958 193.457C375.753 193.619 375.598 193.843 375.493 194.13C375.388 194.417 375.335 194.749 375.335 195.127C375.335 195.508 375.388 195.845 375.493 196.137C375.601 196.427 375.756 196.654 375.958 196.819C376.162 196.981 376.413 197.062 376.712 197.062ZM384.336 198.528C383.663 198.528 383.084 198.391 382.598 198.119C382.115 197.843 381.743 197.454 381.481 196.951C381.22 196.445 381.089 195.847 381.089 195.157C381.089 194.484 381.22 193.893 381.481 193.384C381.743 192.876 382.111 192.479 382.585 192.195C383.062 191.911 383.622 191.769 384.264 191.769C384.696 191.769 385.098 191.839 385.47 191.978C385.845 192.114 386.172 192.32 386.45 192.596C386.731 192.871 386.95 193.218 387.106 193.636C387.263 194.05 387.341 194.536 387.341 195.093V195.592H381.814V194.467H385.632C385.632 194.205 385.575 193.974 385.461 193.772C385.348 193.57 385.19 193.413 384.988 193.299C384.79 193.183 384.558 193.124 384.294 193.124C384.018 193.124 383.774 193.188 383.561 193.316C383.351 193.441 383.186 193.61 383.067 193.823C382.947 194.033 382.886 194.268 382.883 194.526V195.596C382.883 195.92 382.943 196.2 383.062 196.435C383.184 196.671 383.356 196.853 383.578 196.981C383.8 197.109 384.062 197.173 384.366 197.173C384.568 197.173 384.753 197.144 384.92 197.087C385.088 197.031 385.231 196.945 385.351 196.832C385.47 196.718 385.561 196.579 385.623 196.414L387.302 196.525C387.217 196.928 387.042 197.281 386.778 197.582C386.517 197.88 386.179 198.113 385.764 198.281C385.352 198.445 384.876 198.528 384.336 198.528ZM388.525 198.4V191.854H390.285V192.996H390.353C390.473 192.59 390.673 192.283 390.954 192.076C391.236 191.866 391.559 191.761 391.926 191.761C392.017 191.761 392.115 191.766 392.22 191.778C392.325 191.789 392.417 191.805 392.497 191.825V193.435C392.412 193.41 392.294 193.387 392.143 193.367C391.993 193.347 391.855 193.337 391.73 193.337C391.463 193.337 391.224 193.396 391.014 193.512C390.807 193.626 390.642 193.785 390.52 193.989C390.4 194.194 390.341 194.43 390.341 194.697V198.4H388.525Z" fill="#222222"/>
<g clip-path="url(#clip2_222_246)">
<path d="M344.018 139.741C345.545 139.741 347.037 139.288 348.306 138.44C349.576 137.592 350.565 136.386 351.149 134.976C351.733 133.566 351.886 132.014 351.588 130.516C351.291 129.019 350.555 127.644 349.476 126.564C348.396 125.485 347.021 124.75 345.524 124.452C344.026 124.154 342.474 124.307 341.064 124.891C339.654 125.475 338.448 126.465 337.6 127.734C336.752 129.003 336.299 130.496 336.299 132.022C336.301 134.069 337.115 136.031 338.562 137.478C340.009 138.925 341.971 139.739 344.018 139.741ZM344.018 127.558C344.902 127.558 345.766 127.82 346.501 128.311C347.235 128.802 347.808 129.5 348.146 130.316C348.485 131.133 348.573 132.031 348.401 132.898C348.228 133.765 347.803 134.561 347.178 135.186C346.553 135.811 345.757 136.237 344.89 136.409C344.023 136.582 343.124 136.493 342.308 136.155C341.491 135.817 340.793 135.244 340.302 134.509C339.811 133.774 339.549 132.91 339.549 132.026C339.549 130.841 340.02 129.704 340.858 128.866C341.696 128.028 342.833 127.558 344.018 127.558Z" fill="#0055DC"/>
<path d="M327.792 143.109C328.917 143.109 330.017 142.775 330.952 142.15C331.887 141.525 332.616 140.637 333.047 139.598C333.477 138.559 333.59 137.415 333.37 136.312C333.151 135.208 332.609 134.195 331.814 133.4C331.019 132.604 330.005 132.063 328.902 131.843C327.799 131.624 326.655 131.736 325.616 132.167C324.577 132.597 323.688 133.326 323.063 134.261C322.438 135.197 322.105 136.296 322.105 137.421C322.106 138.929 322.706 140.375 323.772 141.441C324.839 142.508 326.284 143.107 327.792 143.109ZM327.792 134.984C328.274 134.984 328.746 135.127 329.146 135.395C329.547 135.662 329.86 136.043 330.044 136.488C330.229 136.934 330.277 137.424 330.183 137.897C330.089 138.37 329.857 138.804 329.516 139.145C329.175 139.486 328.741 139.718 328.268 139.812C327.795 139.906 327.305 139.858 326.859 139.673C326.414 139.489 326.033 139.176 325.766 138.775C325.498 138.375 325.355 137.903 325.355 137.421C325.355 136.775 325.613 136.156 326.07 135.699C326.527 135.243 327.146 134.986 327.792 134.986V134.984Z" fill="#0055DC"/>
<path d="M361.887 143.956H358.61C357.404 143.955 356.212 144.226 355.124 144.748C354.061 143.484 352.734 142.468 351.237 141.771C349.739 141.074 348.108 140.713 346.456 140.713H341.544C339.895 140.713 338.267 141.073 336.772 141.768C335.276 142.462 333.951 143.475 332.887 144.735C331.803 144.221 330.618 143.955 329.418 143.956H326.142C323.992 143.959 321.93 144.814 320.409 146.334C318.888 147.855 318.033 149.916 318.03 152.067L319.655 153.692H368.375L370 152.067C369.997 149.916 369.142 147.854 367.621 146.334C366.1 144.813 364.038 143.958 361.887 143.956ZM326.142 147.206H329.418C330.007 147.209 330.59 147.319 331.139 147.531C330.736 148.46 330.459 149.438 330.318 150.441H321.56C321.897 149.495 322.518 148.677 323.338 148.098C324.159 147.519 325.138 147.207 326.142 147.206ZM333.601 150.442C333.978 148.614 334.974 146.971 336.421 145.791C337.867 144.611 339.677 143.965 341.544 143.963H346.456C348.323 143.965 350.133 144.61 351.58 145.79C353.027 146.97 354.023 148.613 354.4 150.442L333.601 150.442ZM357.683 150.442C357.542 149.443 357.267 148.467 356.865 147.541C357.421 147.322 358.013 147.209 358.61 147.206H361.887C362.891 147.207 363.871 147.519 364.691 148.098C365.511 148.678 366.132 149.496 366.469 150.442H357.683Z" fill="#0055DC"/>
<path d="M360.261 143.109C361.386 143.109 362.486 142.775 363.421 142.15C364.357 141.525 365.085 140.637 365.516 139.598C365.946 138.559 366.059 137.415 365.84 136.312C365.62 135.208 365.078 134.195 364.283 133.4C363.488 132.604 362.474 132.063 361.371 131.843C360.268 131.624 359.124 131.736 358.085 132.167C357.046 132.597 356.157 133.326 355.532 134.261C354.907 135.197 354.574 136.296 354.574 137.421C354.575 138.929 355.175 140.375 356.241 141.441C357.308 142.508 358.753 143.107 360.261 143.109ZM360.261 134.984C360.743 134.984 361.215 135.127 361.616 135.395C362.016 135.662 362.329 136.043 362.513 136.488C362.698 136.934 362.746 137.424 362.652 137.897C362.558 138.37 362.326 138.804 361.985 139.145C361.644 139.486 361.21 139.718 360.737 139.812C360.264 139.906 359.774 139.858 359.329 139.673C358.883 139.489 358.503 139.176 358.235 138.775C357.967 138.375 357.824 137.903 357.824 137.421C357.825 136.775 358.082 136.156 358.539 135.699C358.996 135.243 359.615 134.986 360.261 134.986V134.984Z" fill="#0055DC"/>
</g>
<path d="M343.293 239.707C343.683 240.098 344.317 240.098 344.707 239.707L351.071 233.343C351.462 232.953 351.462 232.319 351.071 231.929C350.681 231.538 350.047 231.538 349.657 231.929L344 237.586L338.343 231.929C337.953 231.538 337.319 231.538 336.929 231.929C336.538 232.319 336.538 232.953 336.929 233.343L343.293 239.707ZM344.707 208.293C344.317 207.902 343.683 207.902 343.293 208.293L336.929 214.657C336.538 215.047 336.538 215.681 336.929 216.071C337.319 216.462 337.953 216.462 338.343 216.071L344 210.414L349.657 216.071C350.047 216.462 350.681 216.462 351.071 216.071C351.462 215.681 351.462 215.047 351.071 214.657L344.707 208.293ZM345 239L345 209L343 209L343 239L345 239Z" fill="#757575"/>
<defs>
<clipPath id="clip0_222_246">
<rect width="32" height="32" fill="white" transform="translate(36 25)"/>
</clipPath>
<clipPath id="clip1_222_246">
<rect width="32" height="32" fill="white" transform="translate(504 133)"/>
</clipPath>
<clipPath id="clip2_222_246">
<rect width="52" height="52" fill="white" transform="translate(318 113)"/>
</clipPath>
</defs>
</svg>
