<svg width="1156" height="123" viewBox="0 0 1156 123" fill="none" xmlns="http://www.w3.org/2000/svg">
<rect width="1156" height="123" fill="white"/>
<path d="M1049.51 47.1982H1046V65.2483H1049.51V47.1982Z" fill="#0055DC"/>
<path d="M1141 47.1982H1137.49V65.2483H1141V47.1982Z" fill="#0055DC"/>
<path d="M1054.31 68.4645L1054.31 71.8899L1132.69 71.8858L1132.69 68.4604L1054.31 68.4645Z" fill="white" stroke="#0055DC" stroke-width="1.5" stroke-miterlimit="10"/>
<path d="M1137.49 44H1049.51V68.4616H1137.49V44Z" fill="#C5EBF5" stroke="#0055DC" stroke-width="1.5" stroke-miterlimit="10"/>
<path d="M1133.69 65.0123V47.4485L1053.31 47.4485V65.0123H1133.69Z" fill="white"/>
<path d="M1059.83 52.4078H1057.88V54.3101H1059.83V52.4078Z" fill="#0055DC"/>
<path d="M1059.83 58.1334H1057.88V60.0357H1059.83V58.1334Z" fill="#0055DC"/>
<path d="M1062.5 55.1167H1060.55V57.019H1062.5V55.1167Z" fill="#0055DC"/>
<path d="M1064.87 52.4078H1062.92V54.3101H1064.87V52.4078Z" fill="#0055DC"/>
<path d="M1064.87 58.1334H1062.92V60.0357H1064.87V58.1334Z" fill="#0055DC"/>
<path d="M1067.39 55.1167H1065.44V57.019H1067.39V55.1167Z" fill="#0055DC"/>
<path d="M1070.37 52.4078H1068.42V54.3101H1070.37V52.4078Z" fill="#0055DC"/>
<path d="M1070.37 58.1334H1068.42V60.0357H1070.37V58.1334Z" fill="#0055DC"/>
<path d="M1072.89 55.1167H1070.94V57.019H1072.89V55.1167Z" fill="#0055DC"/>
<path d="M1075.95 52.4078H1074.01V54.3101H1075.95V52.4078Z" fill="#0055DC"/>
<path d="M1075.95 58.1334H1074.01V60.0357H1075.95V58.1334Z" fill="#0055DC"/>
<path d="M1078.32 55.1167H1076.38V57.019H1078.32V55.1167Z" fill="#0055DC"/>
<path d="M1080.99 52.4078H1079.04V54.3101H1080.99V52.4078Z" fill="#0055DC"/>
<path d="M1080.99 58.1334H1079.04V60.0357H1080.99V58.1334Z" fill="#0055DC"/>
<path d="M1083.21 55.1167H1081.27V57.019H1083.21V55.1167Z" fill="#0055DC"/>
<path d="M1086.03 52.4078H1084.08V54.3101H1086.03V52.4078Z" fill="#0055DC"/>
<path d="M1086.03 58.1334H1084.08V60.0357H1086.03V58.1334Z" fill="#0055DC"/>
<path d="M1088.1 55.1167H1086.16V57.019H1088.1V55.1167Z" fill="#0055DC"/>
<path d="M1127.31 58.5923C1128.64 58.5923 1129.72 57.5351 1129.72 56.2309C1129.72 54.9267 1128.64 53.8694 1127.31 53.8694C1125.97 53.8694 1124.89 54.9267 1124.89 56.2309C1124.89 57.5351 1125.97 58.5923 1127.31 58.5923Z" fill="#0055DC"/>
<path d="M1120.35 56.2306H1094.75" stroke="#0055DC" stroke-width="1.5" stroke-miterlimit="10"/>
<path d="M53.9714 106V97.2727H57.4146C58.0737 97.2727 58.6362 97.3906 59.1021 97.6264C59.5708 97.8594 59.9274 98.1903 60.1717 98.6193C60.4189 99.0455 60.5424 99.5469 60.5424 100.124C60.5424 100.703 60.4174 101.202 60.1674 101.619C59.9174 102.034 59.5552 102.352 59.0808 102.574C58.6092 102.795 58.0382 102.906 57.3677 102.906H55.0623V101.423H57.0694C57.4217 101.423 57.7143 101.375 57.9473 101.278C58.1802 101.182 58.3535 101.037 58.4672 100.844C58.5836 100.651 58.6419 100.411 58.6419 100.124C58.6419 99.8338 58.5836 99.5895 58.4672 99.3906C58.3535 99.1918 58.1788 99.0412 57.943 98.9389C57.71 98.8338 57.416 98.7812 57.0609 98.7812H55.8166V106H53.9714ZM58.6845 102.028L60.8535 106H58.8166L56.6944 102.028H58.6845ZM64.6898 106.128C64.0165 106.128 63.437 105.991 62.9512 105.719C62.4682 105.443 62.0961 105.054 61.8347 104.551C61.5733 104.045 61.4426 103.447 61.4426 102.757C61.4426 102.084 61.5733 101.493 61.8347 100.984C62.0961 100.476 62.464 100.08 62.9384 99.7955C63.4157 99.5114 63.9753 99.3693 64.6174 99.3693C65.0492 99.3693 65.4512 99.4389 65.8233 99.5781C66.1983 99.7145 66.525 99.9205 66.8034 100.196C67.0847 100.472 67.3034 100.818 67.4597 101.236C67.6159 101.651 67.6941 102.136 67.6941 102.693V103.192H62.1671V102.067H65.9853C65.9853 101.805 65.9284 101.574 65.8148 101.372C65.7012 101.17 65.5435 101.013 65.3418 100.899C65.1429 100.783 64.9114 100.724 64.6472 100.724C64.3716 100.724 64.1273 100.788 63.9142 100.916C63.704 101.041 63.5392 101.21 63.4199 101.423C63.3006 101.634 63.2395 101.868 63.2367 102.126V103.196C63.2367 103.52 63.2963 103.8 63.4157 104.036C63.5378 104.271 63.7097 104.453 63.9313 104.581C64.1529 104.709 64.4157 104.773 64.7196 104.773C64.9213 104.773 65.106 104.744 65.2736 104.688C65.4412 104.631 65.5847 104.545 65.704 104.432C65.8233 104.318 65.9142 104.179 65.9767 104.014L67.6557 104.125C67.5705 104.528 67.3958 104.881 67.1316 105.182C66.8702 105.48 66.5321 105.713 66.1174 105.881C65.7054 106.045 65.2296 106.128 64.6898 106.128ZM73.204 108.455V104.952H73.1486C73.0634 105.134 72.9426 105.314 72.7864 105.493C72.633 105.669 72.4327 105.815 72.1855 105.932C71.9412 106.048 71.6429 106.107 71.2907 106.107C70.7935 106.107 70.3432 105.979 69.9398 105.723C69.5392 105.464 69.2211 105.085 68.9853 104.585C68.7523 104.082 68.6358 103.466 68.6358 102.736C68.6358 101.986 68.7566 101.362 68.998 100.865C69.2395 100.365 69.5605 99.9915 69.9611 99.7443C70.3645 99.4943 70.8063 99.3693 71.2864 99.3693C71.6529 99.3693 71.9583 99.4318 72.2026 99.5568C72.4498 99.679 72.6486 99.8324 72.7992 100.017C72.9526 100.199 73.0691 100.378 73.1486 100.554H73.2253V99.4545H75.0151V108.455H73.204ZM71.8659 104.662C72.1586 104.662 72.4057 104.582 72.6074 104.423C72.812 104.261 72.9682 104.036 73.0762 103.746C73.187 103.456 73.2424 103.116 73.2424 102.727C73.2424 102.338 73.1884 102 73.0804 101.713C72.9725 101.426 72.8162 101.205 72.6117 101.048C72.4071 100.892 72.1586 100.814 71.8659 100.814C71.5676 100.814 71.3162 100.895 71.1117 101.057C70.9071 101.219 70.7523 101.443 70.6472 101.73C70.5421 102.017 70.4895 102.349 70.4895 102.727C70.4895 103.108 70.5421 103.445 70.6472 103.737C70.7551 104.027 70.91 104.254 71.1117 104.419C71.3162 104.581 71.5676 104.662 71.8659 104.662ZM80.6699 103.213V99.4545H82.4853V106H80.7424V104.811H80.6742C80.5265 105.195 80.2807 105.503 79.937 105.736C79.5961 105.969 79.1799 106.085 78.6884 106.085C78.2509 106.085 77.8659 105.986 77.5336 105.787C77.2012 105.588 76.9412 105.305 76.7537 104.939C76.5691 104.572 76.4753 104.134 76.4725 103.622V99.4545H78.2878V103.298C78.2907 103.685 78.3944 103.99 78.5989 104.214C78.8034 104.439 79.0776 104.551 79.4213 104.551C79.6401 104.551 79.8446 104.501 80.035 104.402C80.2253 104.3 80.3787 104.149 80.4952 103.95C80.6145 103.751 80.6728 103.506 80.6699 103.213ZM86.9203 106.128C86.247 106.128 85.6674 105.991 85.1816 105.719C84.6987 105.443 84.3265 105.054 84.0652 104.551C83.8038 104.045 83.6731 103.447 83.6731 102.757C83.6731 102.084 83.8038 101.493 84.0652 100.984C84.3265 100.476 84.6944 100.08 85.1689 99.7955C85.6461 99.5114 86.2058 99.3693 86.8478 99.3693C87.2797 99.3693 87.6816 99.4389 88.0538 99.5781C88.4288 99.7145 88.7555 99.9205 89.0339 100.196C89.3152 100.472 89.5339 100.818 89.6902 101.236C89.8464 101.651 89.9245 102.136 89.9245 102.693V103.192H84.3975V102.067H88.2157C88.2157 101.805 88.1589 101.574 88.0453 101.372C87.9316 101.17 87.774 101.013 87.5723 100.899C87.3734 100.783 87.1419 100.724 86.8777 100.724C86.6021 100.724 86.3578 100.788 86.1447 100.916C85.9345 101.041 85.7697 101.21 85.6504 101.423C85.5311 101.634 85.47 101.868 85.4672 102.126V103.196C85.4672 103.52 85.5268 103.8 85.6461 104.036C85.7683 104.271 85.9402 104.453 86.1618 104.581C86.3833 104.709 86.6461 104.773 86.9501 104.773C87.1518 104.773 87.3365 104.744 87.5041 104.688C87.6717 104.631 87.8152 104.545 87.9345 104.432C88.0538 104.318 88.1447 104.179 88.2072 104.014L89.8862 104.125C89.801 104.528 89.6262 104.881 89.362 105.182C89.1007 105.48 88.7626 105.713 88.3478 105.881C87.9359 106.045 87.46 106.128 86.9203 106.128ZM96.5552 101.321L94.8933 101.423C94.8649 101.281 94.8038 101.153 94.71 101.04C94.6163 100.923 94.4927 100.831 94.3393 100.763C94.1887 100.692 94.0083 100.656 93.7981 100.656C93.5169 100.656 93.2797 100.716 93.0865 100.835C92.8933 100.952 92.7967 101.108 92.7967 101.304C92.7967 101.46 92.8592 101.592 92.9842 101.7C93.1092 101.808 93.3237 101.895 93.6277 101.96L94.8123 102.199C95.4487 102.33 95.9231 102.54 96.2356 102.83C96.5481 103.119 96.7044 103.5 96.7044 103.972C96.7044 104.401 96.5779 104.777 96.3251 105.101C96.0751 105.425 95.7314 105.678 95.2939 105.859C94.8592 106.038 94.3578 106.128 93.7896 106.128C92.9231 106.128 92.2328 105.947 91.7186 105.587C91.2072 105.223 90.9075 104.729 90.8194 104.104L92.6049 104.01C92.6589 104.274 92.7896 104.476 92.997 104.615C93.2044 104.751 93.47 104.82 93.7939 104.82C94.112 104.82 94.3677 104.759 94.5609 104.636C94.7569 104.511 94.8564 104.351 94.8592 104.155C94.8564 103.99 94.7868 103.855 94.6504 103.75C94.514 103.642 94.3038 103.56 94.0197 103.503L92.8862 103.277C92.247 103.149 91.7711 102.928 91.4586 102.612C91.149 102.297 90.9941 101.895 90.9941 101.406C90.9941 100.986 91.1078 100.624 91.335 100.32C91.5652 100.016 91.8876 99.7812 92.3024 99.6165C92.72 99.4517 93.2086 99.3693 93.7683 99.3693C94.595 99.3693 95.2456 99.544 95.72 99.8935C96.1973 100.243 96.4757 100.719 96.5552 101.321ZM101.329 99.4545V100.818H97.3873V99.4545H101.329ZM98.2821 97.8864H100.097V103.989C100.097 104.156 100.123 104.287 100.174 104.381C100.225 104.472 100.296 104.536 100.387 104.572C100.481 104.609 100.589 104.628 100.711 104.628C100.796 104.628 100.882 104.621 100.967 104.607C101.052 104.589 101.117 104.577 101.163 104.568L101.448 105.919C101.357 105.947 101.23 105.98 101.065 106.017C100.9 106.057 100.7 106.081 100.464 106.089C100.026 106.107 99.6429 106.048 99.3134 105.915C98.9867 105.781 98.7324 105.574 98.5506 105.293C98.3688 105.011 98.2793 104.656 98.2821 104.227V97.8864Z" fill="#222222"/>
<path d="M1067.86 85V76.2727H1073.74V77.794H1069.71V79.8736H1073.44V81.3949H1069.71V83.4787H1073.76V85H1067.86ZM1076.99 81.2159V85H1075.18V78.4545H1076.91V79.6094H1076.98C1077.13 79.2287 1077.37 78.9276 1077.71 78.706C1078.05 78.4815 1078.47 78.3693 1078.95 78.3693C1079.41 78.3693 1079.8 78.4688 1080.14 78.6676C1080.48 78.8665 1080.74 79.1506 1080.93 79.5199C1081.12 79.8864 1081.21 80.3239 1081.21 80.8324V85H1079.39V81.1562C1079.4 80.7557 1079.29 80.4432 1079.09 80.2188C1078.88 79.9915 1078.59 79.8778 1078.23 79.8778C1077.99 79.8778 1077.77 79.9304 1077.58 80.0355C1077.4 80.1406 1077.25 80.294 1077.15 80.4957C1077.05 80.6946 1076.99 80.9347 1076.99 81.2159ZM1085.05 85.1065C1084.56 85.1065 1084.1 84.9787 1083.7 84.723C1083.3 84.4645 1082.98 84.0852 1082.75 83.5852C1082.51 83.0824 1082.4 82.4659 1082.4 81.7358C1082.4 80.9858 1082.52 80.3622 1082.76 79.8651C1083 79.3651 1083.32 78.9915 1083.72 78.7443C1084.13 78.4943 1084.57 78.3693 1085.05 78.3693C1085.41 78.3693 1085.72 78.4318 1085.96 78.5568C1086.21 78.679 1086.41 78.8324 1086.56 79.017C1086.71 79.1989 1086.83 79.3778 1086.91 79.554H1086.97V76.2727H1088.78V85H1086.99V83.9517H1086.91C1086.83 84.1335 1086.7 84.3139 1086.55 84.4929C1086.39 84.669 1086.19 84.8153 1085.95 84.9318C1085.7 85.0483 1085.4 85.1065 1085.05 85.1065ZM1085.63 83.6619C1085.92 83.6619 1086.17 83.5824 1086.37 83.4233C1086.57 83.2614 1086.73 83.0355 1086.84 82.7457C1086.95 82.456 1087 82.1165 1087 81.7273C1087 81.3381 1086.95 81 1086.84 80.7131C1086.73 80.4261 1086.58 80.2045 1086.37 80.0483C1086.17 79.892 1085.92 79.8139 1085.63 79.8139C1085.33 79.8139 1085.08 79.8949 1084.87 80.0568C1084.67 80.2187 1084.51 80.4432 1084.41 80.7301C1084.3 81.017 1084.25 81.3494 1084.25 81.7273C1084.25 82.108 1084.3 82.4446 1084.41 82.7372C1084.52 83.027 1084.67 83.2543 1084.87 83.419C1085.08 83.581 1085.33 83.6619 1085.63 83.6619ZM1090.27 87.4545V78.4545H1092.06V79.554H1092.14C1092.22 79.3778 1092.33 79.1989 1092.49 79.017C1092.64 78.8324 1092.84 78.679 1093.08 78.5568C1093.33 78.4318 1093.64 78.3693 1094 78.3693C1094.48 78.3693 1094.92 78.4943 1095.32 78.7443C1095.73 78.9915 1096.05 79.3651 1096.29 79.8651C1096.53 80.3622 1096.65 80.9858 1096.65 81.7358C1096.65 82.4659 1096.53 83.0824 1096.3 83.5852C1096.07 84.0852 1095.75 84.4645 1095.34 84.723C1094.94 84.9787 1094.5 85.1065 1094 85.1065C1093.65 85.1065 1093.35 85.0483 1093.1 84.9318C1092.85 84.8153 1092.65 84.669 1092.5 84.4929C1092.34 84.3139 1092.22 84.1335 1092.14 83.9517H1092.08V87.4545H1090.27ZM1092.05 81.7273C1092.05 82.1165 1092.1 82.456 1092.21 82.7457C1092.32 83.0355 1092.47 83.2614 1092.68 83.4233C1092.88 83.5824 1093.13 83.6619 1093.42 83.6619C1093.72 83.6619 1093.97 83.581 1094.17 83.419C1094.38 83.2543 1094.53 83.027 1094.64 82.7372C1094.75 82.4446 1094.8 82.108 1094.8 81.7273C1094.8 81.3494 1094.75 81.017 1094.64 80.7301C1094.54 80.4432 1094.38 80.2187 1094.18 80.0568C1093.97 79.8949 1093.72 79.8139 1093.42 79.8139C1093.13 79.8139 1092.88 79.892 1092.67 80.0483C1092.47 80.2045 1092.32 80.4261 1092.21 80.7131C1092.1 81 1092.05 81.3381 1092.05 81.7273ZM1100.82 85.1278C1100.16 85.1278 1099.59 84.9872 1099.1 84.706C1098.62 84.4219 1098.25 84.027 1097.99 83.5213C1097.73 83.0128 1097.6 82.4233 1097.6 81.7528C1097.6 81.0767 1097.73 80.4858 1097.99 79.9801C1098.25 79.4716 1098.62 79.0767 1099.1 78.7955C1099.59 78.5114 1100.16 78.3693 1100.82 78.3693C1101.48 78.3693 1102.05 78.5114 1102.53 78.7955C1103.02 79.0767 1103.39 79.4716 1103.65 79.9801C1103.91 80.4858 1104.04 81.0767 1104.04 81.7528C1104.04 82.4233 1103.91 83.0128 1103.65 83.5213C1103.39 84.027 1103.02 84.4219 1102.53 84.706C1102.05 84.9872 1101.48 85.1278 1100.82 85.1278ZM1100.83 83.7216C1101.13 83.7216 1101.38 83.6364 1101.58 83.4659C1101.78 83.2926 1101.94 83.0568 1102.04 82.7585C1102.14 82.4602 1102.2 82.1207 1102.2 81.7401C1102.2 81.3594 1102.14 81.0199 1102.04 80.7216C1101.94 80.4233 1101.78 80.1875 1101.58 80.0142C1101.38 79.8409 1101.13 79.7543 1100.83 79.7543C1100.53 79.7543 1100.27 79.8409 1100.06 80.0142C1099.86 80.1875 1099.7 80.4233 1099.6 80.7216C1099.5 81.0199 1099.44 81.3594 1099.44 81.7401C1099.44 82.1207 1099.5 82.4602 1099.6 82.7585C1099.7 83.0568 1099.86 83.2926 1100.06 83.4659C1100.27 83.6364 1100.53 83.7216 1100.83 83.7216ZM1105.22 85V78.4545H1107.04V85H1105.22ZM1106.13 77.6108C1105.86 77.6108 1105.63 77.5213 1105.44 77.3423C1105.25 77.1605 1105.15 76.9432 1105.15 76.6903C1105.15 76.4403 1105.25 76.2259 1105.44 76.0469C1105.63 75.8651 1105.86 75.7741 1106.13 75.7741C1106.4 75.7741 1106.63 75.8651 1106.82 76.0469C1107.02 76.2259 1107.11 76.4403 1107.11 76.6903C1107.11 76.9432 1107.02 77.1605 1106.82 77.3423C1106.63 77.5213 1106.4 77.6108 1106.13 77.6108ZM1110.31 81.2159V85H1108.49V78.4545H1110.22V79.6094H1110.3C1110.44 79.2287 1110.69 78.9276 1111.03 78.706C1111.37 78.4815 1111.78 78.3693 1112.27 78.3693C1112.72 78.3693 1113.12 78.4688 1113.46 78.6676C1113.79 78.8665 1114.06 79.1506 1114.24 79.5199C1114.43 79.8864 1114.53 80.3239 1114.53 80.8324V85H1112.71V81.1562C1112.71 80.7557 1112.61 80.4432 1112.4 80.2188C1112.2 79.9915 1111.91 79.8778 1111.55 79.8778C1111.3 79.8778 1111.09 79.9304 1110.9 80.0355C1110.72 80.1406 1110.57 80.294 1110.47 80.4957C1110.36 80.6946 1110.31 80.9347 1110.31 81.2159ZM1119.44 78.4545V79.8182H1115.5V78.4545H1119.44ZM1116.39 76.8864H1118.21V82.9886C1118.21 83.1562 1118.23 83.2869 1118.28 83.3807C1118.33 83.4716 1118.41 83.5355 1118.5 83.5724C1118.59 83.6094 1118.7 83.6278 1118.82 83.6278C1118.91 83.6278 1118.99 83.6207 1119.08 83.6065C1119.16 83.5895 1119.23 83.5767 1119.27 83.5682L1119.56 84.919C1119.47 84.9474 1119.34 84.9801 1119.17 85.017C1119.01 85.0568 1118.81 85.081 1118.57 85.0895C1118.14 85.1065 1117.75 85.0483 1117.42 84.9148C1117.1 84.7812 1116.84 84.5739 1116.66 84.2926C1116.48 84.0114 1116.39 83.6562 1116.39 83.2273V76.8864Z" fill="#222222"/>
<path fill-rule="evenodd" clip-rule="evenodd" d="M122.241 25H34.3972C32.0694 25 29.9866 26.9602 29.9866 29.4106V87.1158H126.652V29.4106C126.652 26.9602 124.569 25 122.241 25Z" fill="#C5EBF5" stroke="#0055DC" stroke-width="1.5" stroke-miterlimit="10"/>
<path d="M78.2581 29.2881C78.6641 29.2881 78.9932 28.959 78.9932 28.553C78.9932 28.147 78.6641 27.8179 78.2581 27.8179C77.8521 27.8179 77.523 28.147 77.523 28.553C77.523 28.959 77.8521 29.2881 78.2581 29.2881Z" fill="#0055DC"/>
<path d="M130.45 91.5264H26.0661C20.6754 91.5264 16.9999 90.6688 16.9999 89.9337V87.4834C16.9999 87.2383 17.245 86.9933 17.49 86.9933H138.904C139.149 86.9933 139.394 87.2383 139.394 87.4834V89.9337C139.516 90.6688 136.698 91.5264 130.45 91.5264Z" fill="white"/>
<path fill-rule="evenodd" clip-rule="evenodd" d="M130.45 91.5264H26.0661C20.6754 91.5264 16.9999 90.6688 16.9999 89.9337V87.4834C16.9999 87.2383 17.245 86.9933 17.49 86.9933H138.904C139.149 86.9933 139.394 87.2383 139.394 87.4834V89.9337C139.516 90.6688 136.698 91.5264 130.45 91.5264Z" stroke="#0055DC" stroke-width="1.5" stroke-miterlimit="10"/>
<path d="M139.516 87.4834C139.516 87.2383 139.271 86.9933 139.026 86.9933H17.612C17.3669 86.9933 17.1219 87.2383 17.1219 87.4834V89.8112H139.638V87.4834H139.516Z" fill="#C5EBF5"/>
<path d="M130.45 91.5264H26.0661C20.6754 91.5264 16.9999 90.6688 16.9999 89.9337V87.4834C16.9999 87.2383 17.245 86.9933 17.49 86.9933H138.904C139.149 86.9933 139.394 87.2383 139.394 87.4834V89.9337C139.516 90.6688 136.698 91.5264 130.45 91.5264Z" stroke="#0055DC" stroke-width="1.5" stroke-miterlimit="10"/>
<path d="M122.609 31.8608H33.9072V83.5627H122.609V31.8608Z" fill="white"/>
<path fill-rule="evenodd" clip-rule="evenodd" d="M91.6124 87.2383V87.7284C91.6124 88.0959 90.8773 88.2184 90.2647 88.2184H66.374C65.7615 88.2184 65.0264 88.0959 65.0264 87.7284V87.2383" fill="#0055DC"/>
<path d="M78.3022 78.9056C90.6901 78.9056 100.733 68.8632 100.733 56.4752C100.733 44.0873 90.6901 34.0449 78.3022 34.0449C65.9143 34.0449 55.8719 44.0873 55.8719 56.4752C55.8719 68.8632 65.9143 78.9056 78.3022 78.9056Z" fill="white" stroke="#0055DC" stroke-width="1.5" stroke-miterlimit="10"/>
<path d="M77.3847 48.0609C77.7795 47.4575 78.6636 47.4575 79.0583 48.0609L79.3761 48.5466C79.6876 49.0227 80.3331 49.1434 80.7955 48.8119L81.2647 48.4756C81.8504 48.0558 82.6743 48.3745 82.8252 49.0791L82.9482 49.6538C83.0671 50.2094 83.6244 50.5544 84.1747 50.4131L84.7364 50.2689C85.4333 50.09 86.0854 50.6835 85.9727 51.3941L85.8795 51.9822C85.7908 52.5421 86.1848 53.0638 86.7476 53.1316L87.3305 53.2017C88.0436 53.2876 88.4363 54.075 88.0759 54.6963L87.7752 55.2148C87.4912 55.7044 87.6697 56.3319 88.1689 56.5986L88.6936 56.8789C89.3266 57.2171 89.4078 58.0922 88.8479 58.5411L88.3815 58.915C87.9401 59.2689 87.88 59.9182 88.2488 60.3471L88.6395 60.8016C89.1076 61.3459 88.8666 62.1915 88.1819 62.4073L87.6181 62.585C87.0779 62.7552 86.7869 63.3397 86.9764 63.8735L87.1767 64.4371C87.4173 65.1144 86.8859 65.8169 86.1686 65.7696L85.5868 65.7313C85.0204 65.694 84.5366 66.135 84.5214 66.7023L84.5056 67.294C84.4862 68.0138 83.7354 68.4779 83.083 68.1733L82.5593 67.9289C82.044 67.6884 81.4321 67.9254 81.2133 68.4502L80.9887 68.9891C80.7113 69.6544 79.8423 69.8166 79.3436 69.2961L78.9436 68.8786C78.5499 68.4676 77.8931 68.4676 77.4994 68.8786L77.0995 69.2961C76.6007 69.8166 75.7318 69.6544 75.4544 68.9891L75.2297 68.4502C75.0109 67.9254 74.399 67.6884 73.8838 67.9289L73.3601 68.1733C72.7076 68.4779 71.9568 68.0138 71.9375 67.294L71.9216 66.7023C71.9064 66.135 71.4226 65.694 70.8563 65.7313L70.2744 65.7696C69.5571 65.8169 69.0258 65.1144 69.2664 64.4371L69.4666 63.8735C69.6562 63.3397 69.3651 62.7552 68.8249 62.585L68.2611 62.4073C67.5765 62.1915 67.3355 61.3459 67.8035 60.8016L68.1942 60.3471C68.5631 59.9182 68.5029 59.2689 68.0615 58.915L67.5952 58.5411C67.0353 58.0922 67.1165 57.2171 67.7495 56.8789L68.2741 56.5986C68.7733 56.3319 68.9519 55.7044 68.6679 55.2148L68.3671 54.6963C68.0067 54.075 68.3994 53.2876 69.1126 53.2017L69.6954 53.1316C70.2583 53.0638 70.6523 52.5421 70.5635 51.9822L70.4703 51.3941C70.3577 50.6835 71.0098 50.09 71.7066 50.2689L72.2684 50.4131C72.8187 50.5544 73.376 50.2094 73.4949 49.6538L73.6179 49.0791C73.7687 48.3745 74.5927 48.0558 75.1783 48.4756L75.6475 48.8119C76.11 49.1434 76.7554 49.0227 77.0669 48.5466L77.3847 48.0609Z" fill="#003682"/>
<path d="M71.2244 68.1603C72.3923 67.518 73.4743 66.7307 74.4448 65.8171V59.8969L82.2429 59.9892V65.5574C82.5987 66.2492 83.9433 67.0992 85.7368 68.1063C85.7368 68.1063 82.3999 73.0835 78.2084 73.0835C74.0169 73.0835 71.2244 68.1603 71.2244 68.1603Z" fill="#C5EBF5" stroke="#003682" stroke-width="1.5" stroke-miterlimit="10"/>
<path d="M78.303 78.9058C83.8709 78.9135 89.2411 76.8424 93.3621 73.0982C91.0607 71.1247 88.5119 69.4596 85.7801 68.1451C85.7801 68.1451 82.4007 73.0832 78.2092 73.0832C74.0177 73.0832 71.2029 68.2083 71.2029 68.2083C68.6303 69.6586 65.4742 71.0243 63.1088 72.9714C67.2448 76.7934 72.6714 78.9129 78.303 78.9058Z" fill="#0055DC" stroke="#003682" stroke-width="1.5" stroke-miterlimit="10"/>
<path d="M85.7391 52.4139C85.7815 52.2472 85.8581 52.0911 85.9641 51.9557C86.0701 51.8202 86.2032 51.7083 86.3549 51.6271C86.5065 51.5459 86.6734 51.4972 86.8449 51.4841C87.0164 51.471 87.1888 51.4937 87.3511 51.5509C88.326 51.8451 87.7774 55.385 85.0527 55.2593C85.3352 54.3246 85.5644 53.3746 85.7391 52.4139Z" fill="#C5EBF5" stroke="#003682" stroke-width="1.5" stroke-miterlimit="10"/>
<path d="M70.8629 52.4144C70.8165 52.2443 70.7353 52.0857 70.6246 51.9486C70.5138 51.8115 70.3758 51.6988 70.2193 51.6177C70.0628 51.5366 69.8912 51.4888 69.7153 51.4774C69.5394 51.466 69.363 51.4912 69.1973 51.5513C68.3473 51.8961 68.771 55.3854 71.4976 55.2598C71.2249 54.326 71.0129 53.3755 70.8629 52.4144Z" fill="#C5EBF5" stroke="#003682" stroke-width="1.5" stroke-miterlimit="10"/>
<path d="M86.0922 49.1641C86.0922 51.1855 85.3518 55.3042 84.0517 57.7903C83.0867 59.6359 80.6003 61.6907 78.3398 61.6907C76.0793 61.6907 73.8487 59.6359 72.6279 57.7907C71.08 55.4505 70.5873 51.1855 70.5873 49.1641C70.5873 47.108 71.4041 45.1361 72.858 43.6823C74.3118 42.2284 76.2837 41.4116 78.3398 41.4116C80.3959 41.4116 82.3677 42.2284 83.8216 43.6823C85.2755 45.1361 86.0922 47.108 86.0922 49.1641Z" fill="#C5EBF5" stroke="#003682" stroke-width="1.5" stroke-miterlimit="10"/>
<path d="M85.6923 51.7096C85.3296 48.629 82.3417 44.5283 79.0044 44.5283L78.4536 41.9744L79.4868 44.5566C79.4868 50.1405 71.2079 48.6485 70.8624 52.3382L70.7298 52.2057C70.5595 51.1305 70.4677 50.0443 70.4552 48.9558C70.4552 44.6742 74.0587 41.3358 78.3402 41.3358C80.4102 41.3308 82.3988 42.1419 83.8748 43.5932C85.3509 45.0446 86.1953 47.0192 86.2252 49.0891C86.1843 50.1531 86.0383 51.2106 85.7892 52.2459L85.6923 51.7096Z" fill="#003682" stroke="#003682" stroke-width="1.5" stroke-linejoin="round"/>
<path d="M78.3022 78.9056C90.6901 78.9056 100.733 68.8632 100.733 56.4752C100.733 44.0873 90.6901 34.0449 78.3022 34.0449C65.9143 34.0449 55.8719 44.0873 55.8719 56.4752C55.8719 68.8632 65.9143 78.9056 78.3022 78.9056Z" stroke="#0055DC" stroke-width="1.5" stroke-miterlimit="10"/>
<rect x="534" y="46" width="117.875" height="24.9268" fill="white" stroke="#F6821F" stroke-width="2"/>
<path d="M582.358 61.8759L579.861 53.1486H581.876L583.321 59.2125H583.393L584.987 53.1486H586.713L588.303 59.2253H588.379L589.824 53.1486H591.839L589.342 61.8759H587.544L585.882 56.1699H585.814L584.156 61.8759H582.358ZM593.32 61.8759H591.343L594.356 53.1486H596.734L599.742 61.8759H597.765L595.579 55.1429H595.511L593.32 61.8759ZM593.197 58.4455H597.867V59.8858H593.197V58.4455ZM600.661 61.8759V53.1486H606.439V54.6699H602.506V56.7494H606.056V58.2707H602.506V61.8759H600.661Z" fill="#222222"/>
<rect x="363" y="46" width="117.875" height="24.9268" fill="white" stroke="#F6821F" stroke-width="2"/>
<path d="M373.838 62.6239V53.8966H377.332C377.975 53.8966 378.51 53.9918 378.939 54.1821C379.368 54.3725 379.69 54.6367 379.906 54.9748C380.122 55.31 380.23 55.6963 380.23 56.1338C380.23 56.4748 380.162 56.7745 380.026 57.033C379.889 57.2887 379.702 57.4989 379.463 57.6637C379.227 57.8256 378.957 57.9407 378.654 58.0088V58.0941C378.986 58.1083 379.297 58.202 379.587 58.3753C379.879 58.5486 380.117 58.7915 380.298 59.104C380.48 59.4137 380.571 59.783 380.571 60.212C380.571 60.675 380.456 61.0884 380.226 61.452C379.999 61.8128 379.662 62.0983 379.216 62.3086C378.77 62.5188 378.22 62.6239 377.567 62.6239H373.838ZM375.683 61.1154H377.188C377.702 61.1154 378.077 61.0174 378.313 60.8213C378.548 60.6225 378.666 60.3583 378.666 60.0287C378.666 59.7873 378.608 59.5742 378.492 59.3895C378.375 59.2049 378.209 59.06 377.993 58.9549C377.78 58.8498 377.526 58.7972 377.23 58.7972H375.683V61.1154ZM375.683 57.5486H377.051C377.304 57.5486 377.529 57.5046 377.725 57.4165C377.923 57.3256 378.08 57.1978 378.193 57.033C378.31 56.8682 378.368 56.6708 378.368 56.4407C378.368 56.1253 378.256 55.8711 378.031 55.6779C377.81 55.4847 377.494 55.3881 377.085 55.3881H375.683V57.5486ZM384.563 62.7517C383.901 62.7517 383.329 62.6111 382.846 62.3299C382.366 62.0458 381.995 61.6509 381.734 61.1452C381.472 60.6367 381.341 60.0472 381.341 59.3767C381.341 58.7006 381.472 58.1097 381.734 57.604C381.995 57.0955 382.366 56.7006 382.846 56.4194C383.329 56.1353 383.901 55.9932 384.563 55.9932C385.225 55.9932 385.796 56.1353 386.276 56.4194C386.759 56.7006 387.131 57.0955 387.393 57.604C387.654 58.1097 387.785 58.7006 387.785 59.3767C387.785 60.0472 387.654 60.6367 387.393 61.1452C387.131 61.6509 386.759 62.0458 386.276 62.3299C385.796 62.6111 385.225 62.7517 384.563 62.7517ZM384.572 61.3455C384.873 61.3455 385.124 61.2603 385.326 61.0898C385.528 60.9165 385.68 60.6807 385.782 60.3824C385.887 60.0841 385.939 59.7446 385.939 59.364C385.939 58.9833 385.887 58.6438 385.782 58.3455C385.68 58.0472 385.528 57.8114 385.326 57.6381C385.124 57.4648 384.873 57.3782 384.572 57.3782C384.268 57.3782 384.012 57.4648 383.805 57.6381C383.6 57.8114 383.445 58.0472 383.34 58.3455C383.238 58.6438 383.187 58.9833 383.187 59.364C383.187 59.7446 383.238 60.0841 383.34 60.3824C383.445 60.6807 383.6 60.9165 383.805 61.0898C384.012 61.2603 384.268 61.3455 384.572 61.3455ZM392.315 56.0784V57.4421H388.373V56.0784H392.315ZM389.268 54.5103H391.083V60.6125C391.083 60.7802 391.109 60.9108 391.16 61.0046C391.211 61.0955 391.282 61.1594 391.373 61.1963C391.467 61.2333 391.575 61.2517 391.697 61.2517C391.782 61.2517 391.867 61.2446 391.952 61.2304C392.038 61.2134 392.103 61.2006 392.148 61.1921L392.434 62.5429C392.343 62.5713 392.215 62.604 392.05 62.6409C391.886 62.6807 391.685 62.7049 391.45 62.7134C391.012 62.7304 390.628 62.6722 390.299 62.5387C389.972 62.4052 389.718 62.1978 389.536 61.9165C389.354 61.6353 389.265 61.2802 389.268 60.8512V54.5103ZM396.045 53.8966H398.32L400.724 59.7603H400.826L403.229 53.8966H405.505V62.6239H403.715V56.9435H403.643L401.384 62.5813H400.165L397.907 56.9222H397.834V62.6239H396.045V53.8966ZM408.725 62.7475C408.308 62.7475 407.936 62.675 407.609 62.5302C407.282 62.3824 407.024 62.1651 406.833 61.8782C406.646 61.5884 406.552 61.2276 406.552 60.7958C406.552 60.4321 406.619 60.1267 406.752 59.8796C406.886 59.6324 407.068 59.4336 407.298 59.283C407.528 59.1324 407.789 59.0188 408.082 58.9421C408.377 58.8654 408.687 58.8114 409.011 58.7802C409.392 58.7404 409.698 58.7034 409.931 58.6694C410.164 58.6324 410.333 58.5784 410.438 58.5074C410.544 58.4364 410.596 58.3313 410.596 58.1921V58.1665C410.596 57.8966 410.511 57.6878 410.34 57.5401C410.173 57.3924 409.934 57.3185 409.625 57.3185C409.298 57.3185 409.038 57.3909 408.845 57.5358C408.652 57.6779 408.524 57.8569 408.461 58.0728L406.782 57.9364C406.867 57.5387 407.035 57.1949 407.285 56.9052C407.535 56.6125 407.857 56.3881 408.252 56.2319C408.65 56.0728 409.11 55.9932 409.633 55.9932C409.997 55.9932 410.345 56.0358 410.677 56.1211C411.012 56.2063 411.309 56.3384 411.568 56.5174C411.829 56.6963 412.035 56.9265 412.186 57.2077C412.336 57.4861 412.411 57.8199 412.411 58.2091V62.6239H410.69V61.7162H410.639C410.534 61.9208 410.393 62.1012 410.217 62.2574C410.041 62.4108 409.829 62.5316 409.582 62.6196C409.335 62.7049 409.049 62.7475 408.725 62.7475ZM409.245 61.4946C409.512 61.4946 409.748 61.4421 409.953 61.337C410.157 61.229 410.318 61.0841 410.434 60.9023C410.551 60.7205 410.609 60.5145 410.609 60.2844V59.5898C410.552 59.6267 410.474 59.6608 410.375 59.6921C410.278 59.7205 410.169 59.7475 410.046 59.773C409.924 59.7958 409.802 59.8171 409.68 59.837C409.558 59.854 409.447 59.8696 409.348 59.8838C409.134 59.9151 408.948 59.9648 408.789 60.033C408.63 60.1012 408.507 60.1935 408.419 60.31C408.331 60.4236 408.286 60.5657 408.286 60.7361C408.286 60.9833 408.376 61.1722 408.555 61.3029C408.737 61.4307 408.967 61.4946 409.245 61.4946ZM415.503 58.8398V62.6239H413.688V56.0784H415.418V57.2333H415.495C415.64 56.8526 415.882 56.5515 416.223 56.3299C416.564 56.1054 416.978 55.9932 417.463 55.9932C417.918 55.9932 418.314 56.0927 418.652 56.2915C418.99 56.4904 419.253 56.7745 419.441 57.1438C419.628 57.5103 419.722 57.9478 419.722 58.4563V62.6239H417.907V58.7802C417.909 58.3796 417.807 58.0671 417.6 57.8427C417.392 57.6154 417.107 57.5017 416.743 57.5017C416.499 57.5017 416.283 57.5543 416.096 57.6594C415.911 57.7645 415.766 57.9179 415.661 58.1196C415.559 58.3185 415.506 58.5586 415.503 58.8398ZM422.887 62.7475C422.47 62.7475 422.097 62.675 421.771 62.5302C421.444 62.3824 421.185 62.1651 420.995 61.8782C420.808 61.5884 420.714 61.2276 420.714 60.7958C420.714 60.4321 420.781 60.1267 420.914 59.8796C421.048 59.6324 421.23 59.4336 421.46 59.283C421.69 59.1324 421.951 59.0188 422.244 58.9421C422.539 58.8654 422.849 58.8114 423.173 58.7802C423.553 58.7404 423.86 58.7034 424.093 58.6694C424.326 58.6324 424.495 58.5784 424.6 58.5074C424.705 58.4364 424.758 58.3313 424.758 58.1921V58.1665C424.758 57.8966 424.673 57.6878 424.502 57.5401C424.335 57.3924 424.096 57.3185 423.786 57.3185C423.46 57.3185 423.2 57.3909 423.006 57.5358C422.813 57.6779 422.685 57.8569 422.623 58.0728L420.944 57.9364C421.029 57.5387 421.197 57.1949 421.447 56.9052C421.697 56.6125 422.019 56.3881 422.414 56.2319C422.812 56.0728 423.272 55.9932 423.795 55.9932C424.158 55.9932 424.506 56.0358 424.839 56.1211C425.174 56.2063 425.471 56.3384 425.73 56.5174C425.991 56.6963 426.197 56.9265 426.347 57.2077C426.498 57.4861 426.573 57.8199 426.573 58.2091V62.6239H424.852V61.7162H424.801C424.695 61.9208 424.555 62.1012 424.379 62.2574C424.203 62.4108 423.991 62.5316 423.744 62.6196C423.497 62.7049 423.211 62.7475 422.887 62.7475ZM423.407 61.4946C423.674 61.4946 423.91 61.4421 424.114 61.337C424.319 61.229 424.48 61.0841 424.596 60.9023C424.712 60.7205 424.771 60.5145 424.771 60.2844V59.5898C424.714 59.6267 424.636 59.6608 424.536 59.6921C424.44 59.7205 424.33 59.7475 424.208 59.773C424.086 59.7958 423.964 59.8171 423.842 59.837C423.72 59.854 423.609 59.8696 423.509 59.8838C423.296 59.9151 423.11 59.9648 422.951 60.033C422.792 60.1012 422.668 60.1935 422.58 60.31C422.492 60.4236 422.448 60.5657 422.448 60.7361C422.448 60.9833 422.538 61.1722 422.717 61.3029C422.899 61.4307 423.129 61.4946 423.407 61.4946ZM430.799 65.2148C430.21 65.2148 429.706 65.1338 429.286 64.9719C428.868 64.8128 428.536 64.5955 428.289 64.3199C428.041 64.0444 427.881 63.7347 427.807 63.3909L429.486 63.1651C429.537 63.2958 429.618 63.4179 429.729 63.5316C429.84 63.6452 429.986 63.7361 430.168 63.8043C430.352 63.8753 430.577 63.9108 430.841 63.9108C431.236 63.9108 431.561 63.8142 431.817 63.6211C432.075 63.4307 432.205 63.1111 432.205 62.6623V61.4648H432.128C432.049 61.6466 431.929 61.8185 431.77 61.9804C431.611 62.1424 431.406 62.2745 431.156 62.3767C430.906 62.479 430.608 62.5302 430.262 62.5302C429.77 62.5302 429.323 62.4165 428.919 62.1892C428.519 61.9591 428.199 61.6083 427.96 61.1367C427.725 60.6623 427.607 60.0628 427.607 59.3384C427.607 58.5969 427.727 57.9776 427.969 57.4804C428.21 56.9833 428.531 56.6111 428.932 56.364C429.335 56.1168 429.777 55.9932 430.257 55.9932C430.624 55.9932 430.931 56.0557 431.178 56.1807C431.425 56.3029 431.624 56.4563 431.774 56.6409C431.928 56.8228 432.046 57.0017 432.128 57.1779H432.196V56.0784H433.999V62.6878C433.999 63.2446 433.862 63.7105 433.59 64.0855C433.317 64.4605 432.939 64.7418 432.456 64.9293C431.976 65.1196 431.424 65.2148 430.799 65.2148ZM430.837 61.1665C431.129 61.1665 431.377 61.0941 431.578 60.9492C431.783 60.8015 431.939 60.5912 432.047 60.3185C432.158 60.0429 432.213 59.7134 432.213 59.3299C432.213 58.9463 432.159 58.614 432.051 58.3327C431.943 58.0486 431.787 57.8284 431.583 57.6722C431.378 57.5159 431.129 57.4378 430.837 57.4378C430.539 57.4378 430.287 57.5188 430.083 57.6807C429.878 57.8398 429.723 58.0614 429.618 58.3455C429.513 58.6296 429.46 58.9577 429.46 59.3299C429.46 59.7077 429.513 60.0344 429.618 60.31C429.726 60.5827 429.881 60.7944 430.083 60.9449C430.287 61.0927 430.539 61.1665 430.837 61.1665ZM438.294 62.7517C437.621 62.7517 437.042 62.6154 436.556 62.3427C436.073 62.0671 435.701 61.6779 435.439 61.175C435.178 60.6694 435.047 60.0713 435.047 59.381C435.047 58.7077 435.178 58.1168 435.439 57.6083C435.701 57.0998 436.068 56.7034 436.543 56.4194C437.02 56.1353 437.58 55.9932 438.222 55.9932C438.654 55.9932 439.056 56.0628 439.428 56.202C439.803 56.3384 440.13 56.5444 440.408 56.8199C440.689 57.0955 440.908 57.4421 441.064 57.8597C441.22 58.2745 441.299 58.7603 441.299 59.3171V59.8157H435.772V58.6907H439.59C439.59 58.4293 439.533 58.1978 439.419 57.9961C439.306 57.7944 439.148 57.6367 438.946 57.523C438.747 57.4066 438.516 57.3483 438.252 57.3483C437.976 57.3483 437.732 57.4123 437.519 57.5401C437.309 57.6651 437.144 57.8341 437.024 58.0472C436.905 58.2574 436.844 58.4918 436.841 58.7503V59.8199C436.841 60.1438 436.901 60.4236 437.02 60.6594C437.142 60.8952 437.314 61.077 437.536 61.2049C437.757 61.3327 438.02 61.3966 438.324 61.3966C438.526 61.3966 438.711 61.3682 438.878 61.3114C439.046 61.2546 439.189 61.1694 439.309 61.0557C439.428 60.9421 439.519 60.8029 439.581 60.6381L441.26 60.7489C441.175 61.1523 441 61.5046 440.736 61.8057C440.475 62.104 440.137 62.337 439.722 62.5046C439.31 62.6694 438.834 62.7517 438.294 62.7517ZM442.351 62.6239V56.0784H444.081V57.2333H444.158C444.294 56.8498 444.522 56.5472 444.84 56.3256C445.158 56.104 445.539 55.9932 445.982 55.9932C446.431 55.9932 446.813 56.1054 447.128 56.3299C447.444 56.5515 447.654 56.8526 447.759 57.2333H447.827C447.961 56.8583 448.202 56.5586 448.552 56.3341C448.904 56.1069 449.32 55.9932 449.8 55.9932C450.411 55.9932 450.907 56.1878 451.287 56.577C451.671 56.9634 451.863 57.5117 451.863 58.2219V62.6239H450.052V58.5799C450.052 58.2162 449.955 57.9435 449.762 57.7617C449.569 57.5799 449.327 57.489 449.037 57.489C448.708 57.489 448.451 57.5941 448.266 57.8043C448.081 58.0117 447.989 58.2858 447.989 58.6267V62.6239H446.229V58.5415C446.229 58.2205 446.137 57.9648 445.952 57.7745C445.77 57.5841 445.53 57.489 445.232 57.489C445.03 57.489 444.848 57.5401 444.686 57.6424C444.527 57.7418 444.401 57.8824 444.307 58.0642C444.213 58.2432 444.167 58.4534 444.167 58.6949V62.6239H442.351ZM456.148 62.7517C455.474 62.7517 454.895 62.6154 454.409 62.3427C453.926 62.0671 453.554 61.6779 453.292 61.175C453.031 60.6694 452.9 60.0713 452.9 59.381C452.9 58.7077 453.031 58.1168 453.292 57.6083C453.554 57.0998 453.922 56.7034 454.396 56.4194C454.873 56.1353 455.433 55.9932 456.075 55.9932C456.507 55.9932 456.909 56.0628 457.281 56.202C457.656 56.3384 457.983 56.5444 458.261 56.8199C458.542 57.0955 458.761 57.4421 458.917 57.8597C459.074 58.2745 459.152 58.7603 459.152 59.3171V59.8157H453.625V58.6907H457.443C457.443 58.4293 457.386 58.1978 457.273 57.9961C457.159 57.7944 457.001 57.6367 456.8 57.523C456.601 57.4066 456.369 57.3483 456.105 57.3483C455.829 57.3483 455.585 57.4123 455.372 57.5401C455.162 57.6651 454.997 57.8341 454.878 58.0472C454.758 58.2574 454.697 58.4918 454.694 58.7503V59.8199C454.694 60.1438 454.754 60.4236 454.873 60.6594C454.996 60.8952 455.167 61.077 455.389 61.2049C455.611 61.3327 455.873 61.3966 456.177 61.3966C456.379 61.3966 456.564 61.3682 456.731 61.3114C456.899 61.2546 457.042 61.1694 457.162 61.0557C457.281 60.9421 457.372 60.8029 457.434 60.6381L459.113 60.7489C459.028 61.1523 458.853 61.5046 458.589 61.8057C458.328 62.104 457.99 62.337 457.575 62.5046C457.163 62.6694 456.687 62.7517 456.148 62.7517ZM462.02 58.8398V62.6239H460.204V56.0784H461.935V57.2333H462.011C462.156 56.8526 462.399 56.5515 462.74 56.3299C463.081 56.1054 463.494 55.9932 463.98 55.9932C464.435 55.9932 464.831 56.0927 465.169 56.2915C465.507 56.4904 465.77 56.7745 465.957 57.1438C466.145 57.5103 466.239 57.9478 466.239 58.4563V62.6239H464.423V58.7802C464.426 58.3796 464.324 58.0671 464.116 57.8427C463.909 57.6154 463.623 57.5017 463.26 57.5017C463.016 57.5017 462.8 57.5543 462.612 57.6594C462.427 57.7645 462.283 57.9179 462.177 58.1196C462.075 58.3185 462.023 58.5586 462.02 58.8398ZM471.019 56.0784V57.4421H467.077V56.0784H471.019ZM467.972 54.5103H469.787V60.6125C469.787 60.7802 469.813 60.9108 469.864 61.0046C469.915 61.0955 469.986 61.1594 470.077 61.1963C470.171 61.2333 470.279 61.2517 470.401 61.2517C470.486 61.2517 470.571 61.2446 470.657 61.2304C470.742 61.2134 470.807 61.2006 470.853 61.1921L471.138 62.5429C471.047 62.5713 470.919 62.604 470.755 62.6409C470.59 62.6807 470.39 62.7049 470.154 62.7134C469.716 62.7304 469.333 62.6722 469.003 62.5387C468.676 62.4052 468.422 62.1978 468.24 61.9165C468.059 61.6353 467.969 61.2802 467.972 60.8512V54.5103Z" fill="#222222"/>
<path d="M485.875 56.7255C485.047 56.7255 484.375 57.397 484.375 58.2255C484.375 59.0539 485.047 59.7255 485.875 59.7255V56.7255ZM530.742 59.2861C531.328 58.7003 531.328 57.7506 530.742 57.1648L521.196 47.6189C520.61 47.0331 519.66 47.0331 519.075 47.6189C518.489 48.2046 518.489 49.1544 519.075 49.7402L527.56 58.2255L519.075 66.7107C518.489 67.2965 518.489 68.2463 519.075 68.8321C519.66 69.4179 520.61 69.4179 521.196 68.8321L530.742 59.2861ZM485.875 59.7255H529.681V56.7255H485.875V59.7255Z" fill="#5E5E5E"/>
<rect x="192" y="46" width="117.875" height="24.9268" fill="white" stroke="#F6821F" stroke-width="2"/>
<path d="M238.987 61.8759H235.893V53.1486H239.012C239.89 53.1486 240.646 53.3233 241.279 53.6727C241.913 54.0193 242.4 54.5179 242.741 55.1685C243.085 55.819 243.257 56.5974 243.257 57.5037C243.257 58.4128 243.085 59.194 242.741 59.8474C242.4 60.5009 241.91 61.0023 241.271 61.3517C240.634 61.7011 239.873 61.8759 238.987 61.8759ZM237.738 60.2949H238.91C239.455 60.2949 239.914 60.1983 240.286 60.0051C240.661 59.8091 240.943 59.5065 241.13 59.0974C241.321 58.6855 241.416 58.1543 241.416 57.5037C241.416 56.8588 241.321 56.3318 241.13 55.9227C240.943 55.5136 240.663 55.2125 240.291 55.0193C239.919 54.8261 239.46 54.7295 238.914 54.7295H237.738V60.2949ZM247.585 61.8759H244.491V53.1486H247.611C248.489 53.1486 249.244 53.3233 249.878 53.6727C250.511 54.0193 250.999 54.5179 251.339 55.1685C251.683 55.819 251.855 56.5974 251.855 57.5037C251.855 58.4128 251.683 59.194 251.339 59.8474C250.999 60.5009 250.508 61.0023 249.869 61.3517C249.233 61.7011 248.472 61.8759 247.585 61.8759ZM246.337 60.2949H247.508C248.054 60.2949 248.513 60.1983 248.885 60.0051C249.26 59.8091 249.541 59.5065 249.729 59.0974C249.919 58.6855 250.014 58.1543 250.014 57.5037C250.014 56.8588 249.919 56.3318 249.729 55.9227C249.541 55.5136 249.261 55.2125 248.889 55.0193C248.517 54.8261 248.058 54.7295 247.513 54.7295H246.337V60.2949ZM256.013 62.0037C255.351 62.0037 254.779 61.8631 254.296 61.5818C253.816 61.2977 253.445 60.9028 253.184 60.3972C252.922 59.8886 252.792 59.2991 252.792 58.6287C252.792 57.9526 252.922 57.3616 253.184 56.856C253.445 56.3474 253.816 55.9526 254.296 55.6713C254.779 55.3872 255.351 55.2452 256.013 55.2452C256.675 55.2452 257.246 55.3872 257.726 55.6713C258.209 55.9526 258.581 56.3474 258.843 56.856C259.104 57.3616 259.235 57.9526 259.235 58.6287C259.235 59.2991 259.104 59.8886 258.843 60.3972C258.581 60.9028 258.209 61.2977 257.726 61.5818C257.246 61.8631 256.675 62.0037 256.013 62.0037ZM256.022 60.5974C256.323 60.5974 256.574 60.5122 256.776 60.3418C256.978 60.1685 257.13 59.9327 257.232 59.6344C257.337 59.3361 257.39 58.9966 257.39 58.6159C257.39 58.2352 257.337 57.8957 257.232 57.5974C257.13 57.2991 256.978 57.0634 256.776 56.8901C256.574 56.7168 256.323 56.6301 256.022 56.6301C255.718 56.6301 255.462 56.7168 255.255 56.8901C255.05 57.0634 254.895 57.2991 254.79 57.5974C254.688 57.8957 254.637 58.2352 254.637 58.6159C254.637 58.9966 254.688 59.3361 254.79 59.6344C254.895 59.9327 255.05 60.1685 255.255 60.3418C255.462 60.5122 255.718 60.5974 256.022 60.5974ZM265.052 55.6585C265.018 55.3148 264.871 55.0477 264.613 54.8574C264.354 54.667 264.003 54.5719 263.56 54.5719C263.259 54.5719 263.005 54.6145 262.797 54.6997C262.59 54.7821 262.431 54.8972 262.32 55.0449C262.212 55.1926 262.158 55.3602 262.158 55.5477C262.153 55.704 262.185 55.8403 262.256 55.9568C262.33 56.0733 262.431 56.1741 262.559 56.2594C262.687 56.3418 262.834 56.4142 263.002 56.4767C263.17 56.5364 263.349 56.5875 263.539 56.6301L264.323 56.8176C264.704 56.9028 265.053 57.0165 265.371 57.1585C265.689 57.3006 265.965 57.4753 266.198 57.6827C266.431 57.8901 266.611 58.1344 266.739 58.4156C266.87 58.6969 266.937 59.0193 266.939 59.383C266.937 59.917 266.8 60.3801 266.53 60.7722C266.263 61.1614 265.877 61.4639 265.371 61.6798C264.868 61.8929 264.262 61.9994 263.552 61.9994C262.847 61.9994 262.233 61.8915 261.711 61.6756C261.191 61.4597 260.785 61.1401 260.492 60.7168C260.202 60.2906 260.05 59.7636 260.036 59.1358H261.822C261.841 59.4284 261.925 59.6727 262.073 59.8688C262.224 60.0619 262.424 60.2082 262.674 60.3077C262.927 60.4043 263.212 60.4526 263.53 60.4526C263.843 60.4526 264.114 60.4071 264.344 60.3162C264.577 60.2253 264.758 60.0989 264.885 59.9369C265.013 59.775 265.077 59.5889 265.077 59.3787C265.077 59.1827 265.019 59.0179 264.903 58.8844C264.789 58.7509 264.621 58.6372 264.4 58.5435C264.181 58.4497 263.912 58.3645 263.594 58.2878L262.644 58.0491C261.908 57.8702 261.327 57.5903 260.901 57.2097C260.475 56.829 260.263 56.3162 260.266 55.6713C260.263 55.1429 260.404 54.6813 260.688 54.2864C260.975 53.8915 261.368 53.5832 261.868 53.3616C262.368 53.1401 262.937 53.0293 263.573 53.0293C264.221 53.0293 264.786 53.1401 265.269 53.3616C265.755 53.5832 266.133 53.8915 266.403 54.2864C266.672 54.6813 266.812 55.1386 266.82 55.6585H265.052Z" fill="#222222"/>
<path d="M314.875 57.4735C314.047 57.4735 313.375 58.1451 313.375 58.9735C313.375 59.8019 314.047 60.4735 314.875 60.4735V57.4735ZM359.742 60.0342C360.328 59.4484 360.328 58.4986 359.742 57.9129L350.196 48.3669C349.61 47.7811 348.66 47.7811 348.075 48.3669C347.489 48.9527 347.489 49.9024 348.075 50.4882L356.56 58.9735L348.075 67.4588C347.489 68.0446 347.489 68.9943 348.075 69.5801C348.66 70.1659 349.61 70.1659 350.196 69.5801L359.742 60.0342ZM314.875 60.4735H358.681V57.4735H314.875V60.4735Z" fill="#5E5E5E"/>
<path d="M143.638 56.7255C142.81 56.7255 142.138 57.397 142.138 58.2255C142.138 59.0539 142.81 59.7255 143.638 59.7255V56.7255ZM188.742 59.2861C189.328 58.7003 189.328 57.7506 188.742 57.1648L179.196 47.6189C178.61 47.0331 177.66 47.0331 177.075 47.6189C176.489 48.2046 176.489 49.1544 177.075 49.7402L185.56 58.2255L177.075 66.7107C176.489 67.2965 176.489 68.2463 177.075 68.8321C177.66 69.4179 178.61 69.4179 179.196 68.8321L188.742 59.2861ZM143.638 59.7255H187.681V56.7255H143.638V59.7255Z" fill="#5E5E5E"/>
<rect x="705" y="46" width="117.875" height="24.9268" fill="white" stroke="#F6821F" stroke-width="2"/>
<path d="M730.703 56.068H728.836C728.802 55.8265 728.733 55.612 728.628 55.4245C728.523 55.2342 728.388 55.0723 728.223 54.9387C728.058 54.8052 727.868 54.7029 727.652 54.6319C727.439 54.5609 727.207 54.5254 726.957 54.5254C726.505 54.5254 726.112 54.6376 725.777 54.862C725.442 55.0836 725.182 55.4075 724.997 55.8336C724.812 56.2569 724.72 56.7711 724.72 57.3762C724.72 57.9984 724.812 58.5211 724.997 58.9444C725.184 59.3677 725.446 59.6873 725.781 59.9032C726.116 60.1191 726.504 60.2271 726.944 60.2271C727.192 60.2271 727.42 60.1944 727.63 60.1291C727.844 60.0637 728.032 59.9686 728.197 59.8436C728.362 59.7157 728.498 59.5609 728.606 59.3791C728.717 59.1973 728.794 58.9899 728.836 58.7569L730.703 58.7654C730.655 59.166 730.534 59.5524 730.341 59.9245C730.15 60.2938 729.893 60.6248 729.569 60.9174C729.248 61.2072 728.865 61.4373 728.419 61.6078C727.976 61.7754 727.474 61.8592 726.915 61.8592C726.136 61.8592 725.44 61.683 724.826 61.3308C724.216 60.9785 723.733 60.4686 723.378 59.8009C723.025 59.1333 722.849 58.3251 722.849 57.3762C722.849 56.4245 723.028 55.6149 723.386 54.9473C723.744 54.2796 724.23 53.7711 724.844 53.4217C725.457 53.0694 726.148 52.8933 726.915 52.8933C727.42 52.8933 727.889 52.9643 728.321 53.1063C728.755 53.2484 729.14 53.4558 729.476 53.7285C729.811 53.9984 730.084 54.3294 730.294 54.7214C730.507 55.1134 730.643 55.5623 730.703 56.068ZM734.988 61.7399H731.894V53.0126H735.013C735.891 53.0126 736.647 53.1873 737.28 53.5367C737.914 53.8833 738.401 54.3819 738.742 55.0325C739.086 55.683 739.258 56.4615 739.258 57.3677C739.258 58.2768 739.086 59.058 738.742 59.7115C738.401 60.3649 737.911 60.8663 737.272 61.2157C736.636 61.5652 735.874 61.7399 734.988 61.7399ZM733.739 60.1589H734.911C735.457 60.1589 735.915 60.0623 736.288 59.8691C736.663 59.6731 736.944 59.3705 737.131 58.9615C737.322 58.5495 737.417 58.0183 737.417 57.3677C737.417 56.7228 737.322 56.1958 737.131 55.7867C736.944 55.3777 736.664 55.0765 736.292 54.8833C735.92 54.6902 735.461 54.5936 734.915 54.5936H733.739V60.1589ZM747.792 53.0126V61.7399H746.199L742.402 56.247H742.338V61.7399H740.493V53.0126H742.112L745.879 58.5012H745.956V53.0126H747.792ZM755.597 52.6035L752.785 63.0524H751.221L754.033 52.6035H755.597ZM766.72 56.068H764.853C764.819 55.8265 764.749 55.612 764.644 55.4245C764.539 55.2342 764.404 55.0723 764.239 54.9387C764.075 54.8052 763.884 54.7029 763.668 54.6319C763.455 54.5609 763.224 54.5254 762.974 54.5254C762.522 54.5254 762.129 54.6376 761.793 54.862C761.458 55.0836 761.198 55.4075 761.014 55.8336C760.829 56.2569 760.737 56.7711 760.737 57.3762C760.737 57.9984 760.829 58.5211 761.014 58.9444C761.201 59.3677 761.462 59.6873 761.798 59.9032C762.133 60.1191 762.521 60.2271 762.961 60.2271C763.208 60.2271 763.437 60.1944 763.647 60.1291C763.86 60.0637 764.049 59.9686 764.214 59.8436C764.379 59.7157 764.515 59.5609 764.623 59.3791C764.734 59.1973 764.81 58.9899 764.853 58.7569L766.72 58.7654C766.671 59.166 766.55 59.5524 766.357 59.9245C766.167 60.2938 765.91 60.6248 765.586 60.9174C765.265 61.2072 764.881 61.4373 764.435 61.6078C763.992 61.7754 763.491 61.8592 762.931 61.8592C762.153 61.8592 761.457 61.683 760.843 61.3308C760.232 60.9785 759.749 60.4686 759.394 59.8009C759.042 59.1333 758.866 58.3251 758.866 57.3762C758.866 56.4245 759.045 55.6149 759.403 54.9473C759.761 54.2796 760.246 53.7711 760.86 53.4217C761.474 53.0694 762.164 52.8933 762.931 52.8933C763.437 52.8933 763.906 52.9643 764.337 53.1063C764.772 53.2484 765.157 53.4558 765.492 53.7285C765.827 53.9984 766.1 54.3294 766.31 54.7214C766.523 55.1134 766.66 55.5623 766.72 56.068ZM769.743 61.8634C769.325 61.8634 768.953 61.791 768.627 61.6461C768.3 61.4984 768.041 61.2811 767.851 60.9941C767.664 60.7044 767.57 60.3436 767.57 59.9117C767.57 59.5481 767.637 59.2427 767.77 58.9955C767.904 58.7484 768.085 58.5495 768.315 58.399C768.546 58.2484 768.807 58.1348 769.1 58.058C769.395 57.9813 769.705 57.9274 770.029 57.8961C770.409 57.8563 770.716 57.8194 770.949 57.7853C771.182 57.7484 771.351 57.6944 771.456 57.6234C771.561 57.5524 771.614 57.4473 771.614 57.308V57.2825C771.614 57.0126 771.529 56.8038 771.358 56.6561C771.19 56.5083 770.952 56.4345 770.642 56.4345C770.315 56.4345 770.056 56.5069 769.862 56.6518C769.669 56.7938 769.541 56.9728 769.479 57.1887L767.8 57.0524C767.885 56.6546 768.053 56.3109 768.303 56.0211C768.553 55.7285 768.875 55.5041 769.27 55.3478C769.668 55.1887 770.128 55.1092 770.651 55.1092C771.014 55.1092 771.362 55.1518 771.695 55.237C772.03 55.3223 772.327 55.4544 772.585 55.6333C772.847 55.8123 773.053 56.0424 773.203 56.3237C773.354 56.6021 773.429 56.9359 773.429 57.3251V61.7399H771.708V60.8322H771.656C771.551 61.0367 771.411 61.2171 771.235 61.3734C771.058 61.5268 770.847 61.6475 770.6 61.7356C770.352 61.8208 770.067 61.8634 769.743 61.8634ZM770.263 60.6106C770.53 60.6106 770.766 60.558 770.97 60.4529C771.175 60.345 771.335 60.2001 771.452 60.0183C771.568 59.8365 771.627 59.6305 771.627 59.4004V58.7058C771.57 58.7427 771.492 58.7768 771.392 58.808C771.296 58.8365 771.186 58.8634 771.064 58.889C770.942 58.9117 770.82 58.933 770.698 58.9529C770.575 58.97 770.465 58.9856 770.365 58.9998C770.152 59.0311 769.966 59.0808 769.807 59.149C769.648 59.2171 769.524 59.3095 769.436 59.4259C769.348 59.5396 769.304 59.6816 769.304 59.8521C769.304 60.0992 769.394 60.2882 769.573 60.4188C769.754 60.5467 769.985 60.6106 770.263 60.6106ZM777.663 61.8677C776.992 61.8677 776.416 61.7257 775.933 61.4416C775.453 61.1546 775.083 60.7569 774.825 60.2484C774.569 59.7399 774.441 59.1546 774.441 58.4927C774.441 57.8223 774.571 57.2342 774.829 56.7285C775.09 56.22 775.461 55.8237 775.941 55.5396C776.421 55.2527 776.992 55.1092 777.654 55.1092C778.225 55.1092 778.725 55.2129 779.154 55.4203C779.583 55.6277 779.923 55.9188 780.173 56.2938C780.423 56.6688 780.561 57.1092 780.586 57.6149H778.873C778.825 57.2882 778.697 57.0254 778.49 56.8265C778.285 56.6248 778.017 56.524 777.684 56.524C777.403 56.524 777.157 56.6007 776.947 56.7541C776.74 56.9046 776.578 57.1248 776.461 57.4146C776.345 57.7044 776.286 58.0552 776.286 58.4671C776.286 58.8848 776.343 59.2399 776.457 59.5325C776.573 59.8251 776.737 60.0481 776.947 60.2015C777.157 60.3549 777.403 60.4316 777.684 60.4316C777.892 60.4316 778.078 60.389 778.242 60.3038C778.41 60.2186 778.548 60.095 778.656 59.933C778.767 59.7683 778.839 59.5708 778.873 59.3407H780.586C780.558 59.8407 780.421 60.2811 780.177 60.6617C779.936 61.0396 779.602 61.335 779.176 61.5481C778.75 61.7612 778.245 61.8677 777.663 61.8677ZM783.432 57.9558V61.7399H781.616V53.0126H783.381V56.3492H783.457C783.605 55.9629 783.844 55.6603 784.173 55.4416C784.503 55.22 784.916 55.1092 785.413 55.1092C785.868 55.1092 786.264 55.2086 786.602 55.4075C786.943 55.6035 787.207 55.8862 787.395 56.2555C787.585 56.622 787.679 57.0609 787.676 57.5723V61.7399H785.861V57.8961C785.864 57.4927 785.761 57.1788 785.554 56.9544C785.349 56.7299 785.062 56.6177 784.693 56.6177C784.446 56.6177 784.227 56.6703 784.037 56.7754C783.849 56.8805 783.702 57.0339 783.594 57.2356C783.489 57.4345 783.435 57.6745 783.432 57.9558ZM788.973 61.7399V55.1944H790.788V61.7399H788.973ZM789.885 54.3507C789.615 54.3507 789.383 54.2612 789.19 54.0822C789 53.9004 788.905 53.683 788.905 53.4302C788.905 53.1802 789 52.9657 789.19 52.7867C789.383 52.6049 789.615 52.514 789.885 52.514C790.155 52.514 790.385 52.6049 790.575 52.7867C790.768 52.9657 790.865 53.1802 790.865 53.4302C790.865 53.683 790.768 53.9004 790.575 54.0822C790.385 54.2612 790.155 54.3507 789.885 54.3507ZM793.926 57.9558V61.7399H792.11V55.1944H793.84V56.3492H793.917C794.062 55.9686 794.305 55.6674 794.646 55.4458C794.987 55.2214 795.4 55.1092 795.886 55.1092C796.34 55.1092 796.737 55.2086 797.075 55.4075C797.413 55.6063 797.676 55.8904 797.863 56.2598C798.051 56.6262 798.144 57.0637 798.144 57.5723V61.7399H796.329V57.8961C796.332 57.4955 796.23 57.183 796.022 56.9586C795.815 56.7313 795.529 56.6177 795.166 56.6177C794.921 56.6177 794.705 56.6703 794.518 56.7754C794.333 56.8805 794.188 57.0339 794.083 57.2356C793.981 57.4345 793.928 57.6745 793.926 57.9558ZM802.392 64.3308C801.804 64.3308 801.3 64.2498 800.879 64.0879C800.462 63.9288 800.129 63.7115 799.882 63.4359C799.635 63.1603 799.474 62.8507 799.401 62.5069L801.079 62.2811C801.131 62.4117 801.212 62.5339 801.322 62.6475C801.433 62.7612 801.579 62.8521 801.761 62.9203C801.946 62.9913 802.17 63.0268 802.435 63.0268C802.829 63.0268 803.155 62.9302 803.41 62.737C803.669 62.5467 803.798 62.2271 803.798 61.7782V60.5808H803.722C803.642 60.7626 803.523 60.9345 803.364 61.0964C803.204 61.2583 803 61.3904 802.75 61.4927C802.5 61.595 802.202 61.6461 801.855 61.6461C801.364 61.6461 800.916 61.5325 800.513 61.3052C800.112 61.0751 799.793 60.7242 799.554 60.2527C799.318 59.7782 799.2 59.1788 799.2 58.4544C799.2 57.7129 799.321 57.0936 799.562 56.5964C799.804 56.0992 800.125 55.7271 800.526 55.4799C800.929 55.2328 801.371 55.1092 801.851 55.1092C802.217 55.1092 802.524 55.1717 802.771 55.2967C803.018 55.4188 803.217 55.5723 803.368 55.7569C803.521 55.9387 803.639 56.1177 803.722 56.2938H803.79V55.1944H805.592V61.8038C805.592 62.3606 805.456 62.8265 805.183 63.2015C804.91 63.5765 804.533 63.8578 804.05 64.0453C803.57 64.2356 803.017 64.3308 802.392 64.3308ZM802.43 60.2825C802.723 60.2825 802.97 60.21 803.172 60.0652C803.376 59.9174 803.533 59.7072 803.641 59.4345C803.751 59.1589 803.807 58.8294 803.807 58.4458C803.807 58.0623 803.753 57.7299 803.645 57.4487C803.537 57.1646 803.381 56.9444 803.176 56.7882C802.972 56.6319 802.723 56.5538 802.43 56.5538C802.132 56.5538 801.881 56.6348 801.676 56.7967C801.472 56.9558 801.317 57.1774 801.212 57.4615C801.106 57.7455 801.054 58.0737 801.054 58.4458C801.054 58.8237 801.106 59.1504 801.212 59.4259C801.32 59.6987 801.474 59.9103 801.676 60.0609C801.881 60.2086 802.132 60.2825 802.43 60.2825Z" fill="#222222"/>
<path d="M656.875 56.5895C656.047 56.5895 655.375 57.2611 655.375 58.0895C655.375 58.9179 656.047 59.5895 656.875 59.5895V56.5895ZM701.742 59.1501C702.328 58.5644 702.328 57.6146 701.742 57.0288L692.196 47.4829C691.61 46.8971 690.66 46.8971 690.075 47.4829C689.489 48.0687 689.489 49.0184 690.075 49.6042L698.56 58.0895L690.075 66.5748C689.489 67.1605 689.489 68.1103 690.075 68.6961C690.66 69.2819 691.61 69.2819 692.196 68.6961L701.742 59.1501ZM656.875 59.5895H700.681V56.5895H656.875V59.5895Z" fill="#5E5E5E"/>
<rect x="876" y="46" width="117.875" height="24.9268" fill="white" stroke="#F6821F" stroke-width="2"/>
<path d="M895.204 61.7399V53.0126H897.049V60.2186H900.79V61.7399H895.204ZM904.804 61.8677C904.142 61.8677 903.569 61.7271 903.086 61.4458C902.606 61.1617 902.236 60.7669 901.974 60.2612C901.713 59.7527 901.582 59.1632 901.582 58.4927C901.582 57.8166 901.713 57.2257 901.974 56.72C902.236 56.2115 902.606 55.8166 903.086 55.5353C903.569 55.2512 904.142 55.1092 904.804 55.1092C905.466 55.1092 906.037 55.2512 906.517 55.5353C907 55.8166 907.372 56.2115 907.633 56.72C907.895 57.2257 908.025 57.8166 908.025 58.4927C908.025 59.1632 907.895 59.7527 907.633 60.2612C907.372 60.7669 907 61.1617 906.517 61.4458C906.037 61.7271 905.466 61.8677 904.804 61.8677ZM904.812 60.4615C905.113 60.4615 905.365 60.3762 905.566 60.2058C905.768 60.0325 905.92 59.7967 906.022 59.4984C906.128 59.2001 906.18 58.8606 906.18 58.4799C906.18 58.0992 906.128 57.7598 906.022 57.4615C905.92 57.1632 905.768 56.9274 905.566 56.7541C905.365 56.5808 905.113 56.4941 904.812 56.4941C904.508 56.4941 904.253 56.5808 904.045 56.7541C903.841 56.9274 903.686 57.1632 903.581 57.4615C903.478 57.7598 903.427 58.0992 903.427 58.4799C903.427 58.8606 903.478 59.2001 903.581 59.4984C903.686 59.7967 903.841 60.0325 904.045 60.2058C904.253 60.3762 904.508 60.4615 904.812 60.4615ZM910.94 61.8634C910.523 61.8634 910.15 61.791 909.824 61.6461C909.497 61.4984 909.238 61.2811 909.048 60.9941C908.861 60.7044 908.767 60.3436 908.767 59.9117C908.767 59.5481 908.834 59.2427 908.967 58.9955C909.101 58.7484 909.282 58.5495 909.513 58.399C909.743 58.2484 910.004 58.1348 910.297 58.058C910.592 57.9813 910.902 57.9274 911.226 57.8961C911.606 57.8563 911.913 57.8194 912.146 57.7853C912.379 57.7484 912.548 57.6944 912.653 57.6234C912.758 57.5524 912.811 57.4473 912.811 57.308V57.2825C912.811 57.0126 912.726 56.8038 912.555 56.6561C912.388 56.5083 912.149 56.4345 911.839 56.4345C911.513 56.4345 911.253 56.5069 911.059 56.6518C910.866 56.7938 910.738 56.9728 910.676 57.1887L908.997 57.0524C909.082 56.6546 909.25 56.3109 909.5 56.0211C909.75 55.7285 910.072 55.5041 910.467 55.3478C910.865 55.1887 911.325 55.1092 911.848 55.1092C912.211 55.1092 912.559 55.1518 912.892 55.237C913.227 55.3223 913.524 55.4544 913.782 55.6333C914.044 55.8123 914.25 56.0424 914.4 56.3237C914.551 56.6021 914.626 56.9359 914.626 57.3251V61.7399H912.905V60.8322H912.854C912.748 61.0367 912.608 61.2171 912.432 61.3734C912.256 61.5268 912.044 61.6475 911.797 61.7356C911.55 61.8208 911.264 61.8634 910.94 61.8634ZM911.46 60.6106C911.727 60.6106 911.963 60.558 912.167 60.4529C912.372 60.345 912.532 60.2001 912.649 60.0183C912.765 59.8365 912.824 59.6305 912.824 59.4004V58.7058C912.767 58.7427 912.689 58.7768 912.589 58.808C912.493 58.8365 912.383 58.8634 912.261 58.889C912.139 58.9117 912.017 58.933 911.895 58.9529C911.773 58.97 911.662 58.9856 911.562 58.9998C911.349 59.0311 911.163 59.0808 911.004 59.149C910.845 59.2171 910.721 59.3095 910.633 59.4259C910.545 59.5396 910.501 59.6816 910.501 59.8521C910.501 60.0992 910.591 60.2882 910.77 60.4188C910.952 60.5467 911.182 60.6106 911.46 60.6106ZM918.315 61.8464C917.817 61.8464 917.367 61.7186 916.964 61.4629C916.563 61.2044 916.245 60.8251 916.009 60.3251C915.776 59.8223 915.66 59.2058 915.66 58.4757C915.66 57.7257 915.78 57.1021 916.022 56.6049C916.263 56.1049 916.584 55.7313 916.985 55.4842C917.388 55.2342 917.83 55.1092 918.31 55.1092C918.677 55.1092 918.982 55.1717 919.226 55.2967C919.474 55.4188 919.673 55.5723 919.823 55.7569C919.976 55.9387 920.093 56.1177 920.173 56.2938H920.228V53.0126H922.039V61.7399H920.249V60.6916H920.173C920.087 60.8734 919.967 61.0538 919.81 61.2328C919.657 61.4089 919.457 61.5552 919.209 61.6717C918.965 61.7882 918.667 61.8464 918.315 61.8464ZM918.89 60.4018C919.182 60.4018 919.43 60.3223 919.631 60.1632C919.836 60.0012 919.992 59.7754 920.1 59.4856C920.211 59.1958 920.266 58.8563 920.266 58.4671C920.266 58.0779 920.212 57.7399 920.104 57.4529C919.996 57.166 919.84 56.9444 919.636 56.7882C919.431 56.6319 919.182 56.5538 918.89 56.5538C918.592 56.5538 918.34 56.6348 918.136 56.7967C917.931 56.9586 917.776 57.183 917.671 57.47C917.566 57.7569 917.513 58.0893 917.513 58.4671C917.513 58.8478 917.566 59.1845 917.671 59.4771C917.779 59.7669 917.934 59.9941 918.136 60.1589C918.34 60.3208 918.592 60.4018 918.89 60.4018ZM926.079 61.7399V53.0126H929.573C930.215 53.0126 930.751 53.1078 931.18 53.2981C931.609 53.4884 931.931 53.7527 932.147 54.0907C932.363 54.4259 932.471 54.8123 932.471 55.2498C932.471 55.5907 932.403 55.8904 932.266 56.149C932.13 56.4046 931.943 56.6149 931.704 56.7796C931.468 56.9416 931.198 57.0566 930.894 57.1248V57.21C931.227 57.2242 931.538 57.318 931.828 57.4913C932.12 57.6646 932.357 57.9075 932.539 58.22C932.721 58.5296 932.812 58.899 932.812 59.3279C932.812 59.791 932.697 60.2044 932.467 60.568C932.239 60.9288 931.903 61.2143 931.457 61.4245C931.011 61.6348 930.461 61.7399 929.808 61.7399H926.079ZM927.924 60.2313H929.428C929.943 60.2313 930.318 60.1333 930.553 59.9373C930.789 59.7384 930.907 59.4742 930.907 59.1447C930.907 58.9032 930.849 58.6902 930.732 58.5055C930.616 58.3208 930.45 58.1759 930.234 58.0708C930.021 57.9657 929.766 57.9132 929.471 57.9132H927.924V60.2313ZM927.924 56.6646H929.292C929.545 56.6646 929.769 56.6205 929.965 56.5325C930.164 56.4416 930.32 56.3137 930.434 56.149C930.551 55.9842 930.609 55.7867 930.609 55.5566C930.609 55.2413 930.497 54.987 930.272 54.7938C930.051 54.6007 929.735 54.5041 929.326 54.5041H927.924V56.6646ZM935.713 61.8634C935.295 61.8634 934.923 61.791 934.596 61.6461C934.27 61.4984 934.011 61.2811 933.821 60.9941C933.633 60.7044 933.54 60.3436 933.54 59.9117C933.54 59.5481 933.606 59.2427 933.74 58.9955C933.873 58.7484 934.055 58.5495 934.285 58.399C934.515 58.2484 934.777 58.1348 935.069 58.058C935.365 57.9813 935.675 57.9274 935.998 57.8961C936.379 57.8563 936.686 57.8194 936.919 57.7853C937.152 57.7484 937.321 57.6944 937.426 57.6234C937.531 57.5524 937.584 57.4473 937.584 57.308V57.2825C937.584 57.0126 937.498 56.8038 937.328 56.6561C937.16 56.5083 936.922 56.4345 936.612 56.4345C936.285 56.4345 936.025 56.5069 935.832 56.6518C935.639 56.7938 935.511 56.9728 935.449 57.1887L933.77 57.0524C933.855 56.6546 934.023 56.3109 934.273 56.0211C934.523 55.7285 934.845 55.5041 935.24 55.3478C935.638 55.1887 936.098 55.1092 936.621 55.1092C936.984 55.1092 937.332 55.1518 937.665 55.237C938 55.3223 938.297 55.4544 938.555 55.6333C938.817 55.8123 939.023 56.0424 939.173 56.3237C939.324 56.6021 939.399 56.9359 939.399 57.3251V61.7399H937.677V60.8322H937.626C937.521 61.0367 937.381 61.2171 937.204 61.3734C937.028 61.5268 936.817 61.6475 936.569 61.7356C936.322 61.8208 936.037 61.8634 935.713 61.8634ZM936.233 60.6106C936.5 60.6106 936.736 60.558 936.94 60.4529C937.145 60.345 937.305 60.2001 937.422 60.0183C937.538 59.8365 937.596 59.6305 937.596 59.4004V58.7058C937.54 58.7427 937.462 58.7768 937.362 58.808C937.265 58.8365 937.156 58.8634 937.034 58.889C936.912 58.9117 936.79 58.933 936.667 58.9529C936.545 58.97 936.435 58.9856 936.335 58.9998C936.122 59.0311 935.936 59.0808 935.777 59.149C935.618 59.2171 935.494 59.3095 935.406 59.4259C935.318 59.5396 935.274 59.6816 935.274 59.8521C935.274 60.0992 935.364 60.2882 935.542 60.4188C935.724 60.5467 935.954 60.6106 936.233 60.6106ZM942.491 53.0126V61.7399H940.675V53.0126H942.491ZM945.679 61.8634C945.262 61.8634 944.89 61.791 944.563 61.6461C944.236 61.4984 943.978 61.2811 943.787 60.9941C943.6 60.7044 943.506 60.3436 943.506 59.9117C943.506 59.5481 943.573 59.2427 943.706 58.9955C943.84 58.7484 944.022 58.5495 944.252 58.399C944.482 58.2484 944.743 58.1348 945.036 58.058C945.331 57.9813 945.641 57.9274 945.965 57.8961C946.346 57.8563 946.652 57.8194 946.885 57.7853C947.118 57.7484 947.287 57.6944 947.392 57.6234C947.498 57.5524 947.55 57.4473 947.55 57.308V57.2825C947.55 57.0126 947.465 56.8038 947.294 56.6561C947.127 56.5083 946.888 56.4345 946.579 56.4345C946.252 56.4345 945.992 56.5069 945.799 56.6518C945.606 56.7938 945.478 56.9728 945.415 57.1887L943.736 57.0524C943.821 56.6546 943.989 56.3109 944.239 56.0211C944.489 55.7285 944.812 55.5041 945.206 55.3478C945.604 55.1887 946.064 55.1092 946.587 55.1092C946.951 55.1092 947.299 55.1518 947.631 55.237C947.966 55.3223 948.263 55.4544 948.522 55.6333C948.783 55.8123 948.989 56.0424 949.14 56.3237C949.29 56.6021 949.365 56.9359 949.365 57.3251V61.7399H947.644V60.8322H947.593C947.488 61.0367 947.347 61.2171 947.171 61.3734C946.995 61.5268 946.783 61.6475 946.536 61.7356C946.289 61.8208 946.003 61.8634 945.679 61.8634ZM946.199 60.6106C946.466 60.6106 946.702 60.558 946.907 60.4529C947.111 60.345 947.272 60.2001 947.388 60.0183C947.505 59.8365 947.563 59.6305 947.563 59.4004V58.7058C947.506 58.7427 947.428 58.7768 947.329 58.808C947.232 58.8365 947.123 58.8634 947 58.889C946.878 58.9117 946.756 58.933 946.634 58.9529C946.512 58.97 946.401 58.9856 946.302 58.9998C946.089 59.0311 945.902 59.0808 945.743 59.149C945.584 59.2171 945.461 59.3095 945.373 59.4259C945.285 59.5396 945.24 59.6816 945.24 59.8521C945.24 60.0992 945.33 60.2882 945.509 60.4188C945.691 60.5467 945.921 60.6106 946.199 60.6106ZM952.457 57.9558V61.7399H950.642V55.1944H952.372V56.3492H952.449C952.594 55.9686 952.836 55.6674 953.177 55.4458C953.518 55.2214 953.932 55.1092 954.417 55.1092C954.872 55.1092 955.268 55.2086 955.606 55.4075C955.944 55.6063 956.207 55.8904 956.395 56.2598C956.582 56.6262 956.676 57.0637 956.676 57.5723V61.7399H954.861V57.8961C954.863 57.4955 954.761 57.183 954.554 56.9586C954.346 56.7313 954.061 56.6177 953.697 56.6177C953.453 56.6177 953.237 56.6703 953.05 56.7754C952.865 56.8805 952.72 57.0339 952.615 57.2356C952.513 57.4345 952.46 57.6745 952.457 57.9558ZM960.932 61.8677C960.262 61.8677 959.685 61.7257 959.202 61.4416C958.722 61.1546 958.353 60.7569 958.094 60.2484C957.838 59.7399 957.711 59.1546 957.711 58.4927C957.711 57.8223 957.84 57.2342 958.098 56.7285C958.36 56.22 958.73 55.8237 959.211 55.5396C959.691 55.2527 960.262 55.1092 960.924 55.1092C961.495 55.1092 961.995 55.2129 962.424 55.4203C962.853 55.6277 963.192 55.9188 963.442 56.2938C963.692 56.6688 963.83 57.1092 963.855 57.6149H962.142C962.094 57.2882 961.966 57.0254 961.759 56.8265C961.554 56.6248 961.286 56.524 960.953 56.524C960.672 56.524 960.426 56.6007 960.216 56.7541C960.009 56.9046 959.847 57.1248 959.73 57.4146C959.614 57.7044 959.556 58.0552 959.556 58.4671C959.556 58.8848 959.612 59.2399 959.726 59.5325C959.843 59.8251 960.006 60.0481 960.216 60.2015C960.426 60.3549 960.672 60.4316 960.953 60.4316C961.161 60.4316 961.347 60.389 961.512 60.3038C961.679 60.2186 961.817 60.095 961.925 59.933C962.036 59.7683 962.108 59.5708 962.142 59.3407H963.855C963.827 59.8407 963.691 60.2811 963.446 60.6617C963.205 61.0396 962.871 61.335 962.445 61.5481C962.019 61.7612 961.514 61.8677 960.932 61.8677ZM967.869 61.8677C967.195 61.8677 966.616 61.7313 966.13 61.4586C965.647 61.183 965.275 60.7938 965.014 60.291C964.752 59.7853 964.621 59.1873 964.621 58.497C964.621 57.8237 964.752 57.2328 965.014 56.7242C965.275 56.2157 965.643 55.8194 966.117 55.5353C966.594 55.2512 967.154 55.1092 967.796 55.1092C968.228 55.1092 968.63 55.1788 969.002 55.318C969.377 55.4544 969.704 55.6603 969.982 55.9359C970.264 56.2115 970.482 56.558 970.639 56.9757C970.795 57.3904 970.873 57.8762 970.873 58.433V58.9316H965.346V57.8066H969.164C969.164 57.5453 969.107 57.3137 968.994 57.112C968.88 56.9103 968.722 56.7527 968.521 56.639C968.322 56.5225 968.09 56.4643 967.826 56.4643C967.55 56.4643 967.306 56.5282 967.093 56.6561C966.883 56.7811 966.718 56.9501 966.599 57.1632C966.479 57.3734 966.418 57.6078 966.416 57.8663V58.9359C966.416 59.2598 966.475 59.5396 966.594 59.7754C966.717 60.0112 966.889 60.193 967.11 60.3208C967.332 60.4487 967.594 60.5126 967.898 60.5126C968.1 60.5126 968.285 60.4842 968.452 60.4274C968.62 60.3705 968.764 60.2853 968.883 60.1717C969.002 60.058 969.093 59.9188 969.156 59.7541L970.835 59.8649C970.749 60.2683 970.575 60.6205 970.31 60.9217C970.049 61.22 969.711 61.4529 969.296 61.6205C968.884 61.7853 968.408 61.8677 967.869 61.8677ZM971.926 61.7399V55.1944H973.686V56.3365H973.754C973.873 55.9302 974.073 55.6234 974.355 55.416C974.636 55.2058 974.96 55.1007 975.326 55.1007C975.417 55.1007 975.515 55.1063 975.62 55.1177C975.725 55.1291 975.818 55.1447 975.897 55.1646V56.7754C975.812 56.7498 975.694 56.7271 975.543 56.7072C975.393 56.6873 975.255 56.6774 975.13 56.6774C974.863 56.6774 974.624 56.7356 974.414 56.8521C974.207 56.9657 974.042 57.1248 973.92 57.3294C973.801 57.5339 973.741 57.7697 973.741 58.0367V61.7399H971.926Z" fill="#222222"/>
<path d="M998.875 56.4449C998.047 56.4449 997.375 57.1165 997.375 57.9449C997.375 58.7734 998.047 59.4449 998.875 59.4449V56.4449ZM1043.06 59.0056C1043.65 58.4198 1043.65 57.4701 1043.06 56.8843L1033.51 47.3383C1032.93 46.7526 1031.98 46.7526 1031.39 47.3383C1030.81 47.9241 1030.81 48.8739 1031.39 49.4597L1039.88 57.9449L1031.39 66.4302C1030.81 67.016 1030.81 67.9658 1031.39 68.5515C1031.98 69.1373 1032.93 69.1373 1033.51 68.5515L1043.06 59.0056ZM998.875 59.4449H1042V56.4449H998.875V59.4449Z" fill="#5E5E5E"/>
<path d="M827.875 56.5895C827.047 56.5895 826.375 57.2611 826.375 58.0895C826.375 58.9179 827.047 59.5895 827.875 59.5895V56.5895ZM872.742 59.1501C873.328 58.5644 873.328 57.6146 872.742 57.0288L863.196 47.4829C862.61 46.8971 861.66 46.8971 861.075 47.4829C860.489 48.0687 860.489 49.0184 861.075 49.6042L869.56 58.0895L861.075 66.5748C860.489 67.1605 860.489 68.1103 861.075 68.6961C861.66 69.2819 862.61 69.2819 863.196 68.6961L872.742 59.1501ZM827.875 59.5895H871.681V56.5895H827.875V59.5895Z" fill="#5E5E5E"/>
</svg>
