<svg width="917" height="615" viewBox="0 0 917 615" fill="none" xmlns="http://www.w3.org/2000/svg">
<rect width="917" height="615" fill="white"/>
<path d="M867.011 583V571.364H869.472V580.972H874.46V583H867.011ZM879.811 583.17C878.929 583.17 878.165 582.983 877.521 582.608C876.881 582.229 876.387 581.703 876.038 581.028C875.69 580.35 875.516 579.564 875.516 578.67C875.516 577.769 875.69 576.981 876.038 576.307C876.387 575.629 876.881 575.102 877.521 574.727C878.165 574.348 878.929 574.159 879.811 574.159C880.694 574.159 881.455 574.348 882.095 574.727C882.739 575.102 883.235 575.629 883.584 576.307C883.932 576.981 884.107 577.769 884.107 578.67C884.107 579.564 883.932 580.35 883.584 581.028C883.235 581.703 882.739 582.229 882.095 582.608C881.455 582.983 880.694 583.17 879.811 583.17ZM879.823 581.295C880.224 581.295 880.559 581.182 880.828 580.955C881.097 580.723 881.3 580.409 881.436 580.011C881.576 579.614 881.646 579.161 881.646 578.653C881.646 578.146 881.576 577.693 881.436 577.295C881.3 576.898 881.097 576.583 880.828 576.352C880.559 576.121 880.224 576.006 879.823 576.006C879.417 576.006 879.076 576.121 878.8 576.352C878.527 576.583 878.321 576.898 878.181 577.295C878.044 577.693 877.976 578.146 877.976 578.653C877.976 579.161 878.044 579.614 878.181 580.011C878.321 580.409 878.527 580.723 878.8 580.955C879.076 581.182 879.417 581.295 879.823 581.295ZM887.007 583L884.632 574.273H887.081L888.434 580.136H888.513L889.922 574.273H892.326L893.757 580.102H893.831L895.161 574.273H897.604L895.235 583H892.672L891.172 577.511H891.064L889.564 583H887.007Z" fill="#222222"/>
<path d="M867.011 51V39.3636H869.472V44.1648H874.466V39.3636H876.92V51H874.466V46.1932H869.472V51H867.011ZM878.727 51V42.2727H881.148V51H878.727ZM879.943 41.1477C879.583 41.1477 879.275 41.0284 879.017 40.7898C878.763 40.5473 878.637 40.2576 878.637 39.9205C878.637 39.5871 878.763 39.3011 879.017 39.0625C879.275 38.8201 879.583 38.6989 879.943 38.6989C880.303 38.6989 880.61 38.8201 880.864 39.0625C881.121 39.3011 881.25 39.5871 881.25 39.9205C881.25 40.2576 881.121 40.5473 880.864 40.7898C880.61 41.0284 880.303 41.1477 879.943 41.1477ZM886.843 54.4545C886.059 54.4545 885.386 54.3466 884.826 54.1307C884.269 53.9186 883.826 53.6288 883.496 53.2614C883.166 52.8939 882.952 52.4811 882.854 52.0227L885.093 51.7216C885.161 51.8958 885.269 52.0587 885.416 52.2102C885.564 52.3617 885.759 52.483 886.002 52.5739C886.248 52.6686 886.547 52.7159 886.899 52.7159C887.426 52.7159 887.86 52.5871 888.201 52.3295C888.545 52.0758 888.718 51.6496 888.718 51.0511V49.4545H888.615C888.509 49.697 888.35 49.9261 888.138 50.142C887.926 50.358 887.653 50.5341 887.32 50.6705C886.987 50.8068 886.589 50.875 886.127 50.875C885.471 50.875 884.875 50.7235 884.337 50.4205C883.803 50.1136 883.377 49.6458 883.059 49.017C882.744 48.3845 882.587 47.5852 882.587 46.6193C882.587 45.6307 882.748 44.8049 883.07 44.142C883.392 43.4792 883.82 42.983 884.354 42.6534C884.892 42.3239 885.481 42.1591 886.121 42.1591C886.61 42.1591 887.019 42.2424 887.348 42.4091C887.678 42.572 887.943 42.7765 888.144 43.0227C888.348 43.2652 888.505 43.5038 888.615 43.7386H888.706V42.2727H891.11V51.0852C891.11 51.8277 890.928 52.4489 890.564 52.9489C890.201 53.4489 889.697 53.8239 889.053 54.0739C888.413 54.3277 887.676 54.4545 886.843 54.4545ZM886.894 49.0568C887.284 49.0568 887.613 48.9602 887.882 48.767C888.155 48.5701 888.363 48.2898 888.507 47.9261C888.655 47.5587 888.729 47.1193 888.729 46.608C888.729 46.0966 888.657 45.6534 888.513 45.2784C888.369 44.8996 888.161 44.6061 887.888 44.3977C887.615 44.1894 887.284 44.0852 886.894 44.0852C886.496 44.0852 886.161 44.1932 885.888 44.4091C885.615 44.6212 885.409 44.9167 885.269 45.2955C885.129 45.6742 885.059 46.1117 885.059 46.608C885.059 47.1117 885.129 47.5473 885.269 47.9148C885.413 48.2784 885.619 48.5606 885.888 48.7614C886.161 48.9583 886.496 49.0568 886.894 49.0568ZM895.28 45.9545V51H892.86V39.3636H895.212V43.8125H895.314C895.511 43.2973 895.829 42.8939 896.269 42.6023C896.708 42.3068 897.259 42.1591 897.922 42.1591C898.528 42.1591 899.057 42.2917 899.508 42.5568C899.962 42.8182 900.314 43.1951 900.564 43.6875C900.818 44.1761 900.943 44.7614 900.939 45.4432V51H898.519V45.875C898.523 45.3371 898.386 44.9186 898.11 44.6193C897.837 44.3201 897.454 44.1705 896.962 44.1705C896.633 44.1705 896.341 44.2405 896.087 44.3807C895.837 44.5208 895.64 44.7254 895.496 44.9943C895.356 45.2595 895.284 45.5795 895.28 45.9545Z" fill="#222222"/>
<path d="M807.103 34V22.3636H809.564V31.9716H814.552V34H807.103ZM819.903 34.1705C819.021 34.1705 818.258 33.983 817.614 33.608C816.973 33.2292 816.479 32.7027 816.131 32.0284C815.782 31.3504 815.608 30.5644 815.608 29.6705C815.608 28.7689 815.782 27.9811 816.131 27.3068C816.479 26.6288 816.973 26.1023 817.614 25.7273C818.258 25.3485 819.021 25.1591 819.903 25.1591C820.786 25.1591 821.547 25.3485 822.187 25.7273C822.831 26.1023 823.328 26.6288 823.676 27.3068C824.025 27.9811 824.199 28.7689 824.199 29.6705C824.199 30.5644 824.025 31.3504 823.676 32.0284C823.328 32.7027 822.831 33.2292 822.187 33.608C821.547 33.983 820.786 34.1705 819.903 34.1705ZM819.915 32.2955C820.316 32.2955 820.651 32.1818 820.92 31.9545C821.189 31.7235 821.392 31.4091 821.528 31.0114C821.668 30.6136 821.739 30.161 821.739 29.6534C821.739 29.1458 821.668 28.6932 821.528 28.2955C821.392 27.8977 821.189 27.5833 820.92 27.3523C820.651 27.1212 820.316 27.0057 819.915 27.0057C819.509 27.0057 819.168 27.1212 818.892 27.3523C818.619 27.5833 818.413 27.8977 818.273 28.2955C818.136 28.6932 818.068 29.1458 818.068 29.6534C818.068 30.161 818.136 30.6136 818.273 31.0114C818.413 31.4091 818.619 31.7235 818.892 31.9545C819.168 32.1818 819.509 32.2955 819.915 32.2955ZM828.085 34.1648C827.528 34.1648 827.032 34.0682 826.597 33.875C826.161 33.678 825.816 33.3883 825.563 33.0057C825.313 32.6193 825.188 32.1383 825.188 31.5625C825.188 31.0777 825.277 30.6705 825.455 30.3409C825.633 30.0114 825.875 29.7462 826.182 29.5455C826.489 29.3447 826.837 29.1932 827.227 29.0909C827.621 28.9886 828.034 28.9167 828.466 28.875C828.974 28.822 829.383 28.7727 829.693 28.7273C830.004 28.678 830.229 28.6061 830.369 28.5114C830.51 28.4167 830.58 28.2765 830.58 28.0909V28.0568C830.58 27.697 830.466 27.4186 830.239 27.2216C830.015 27.0246 829.697 26.9261 829.284 26.9261C828.849 26.9261 828.502 27.0227 828.244 27.2159C827.987 27.4053 827.816 27.6439 827.733 27.9318L825.494 27.75C825.608 27.2197 825.832 26.7614 826.165 26.375C826.498 25.9848 826.928 25.6856 827.455 25.4773C827.985 25.2652 828.599 25.1591 829.296 25.1591C829.78 25.1591 830.244 25.2159 830.688 25.3295C831.135 25.4432 831.53 25.6193 831.875 25.858C832.224 26.0966 832.498 26.4034 832.699 26.7784C832.9 27.1496 833 27.5947 833 28.1136V34H830.705V32.7898H830.636C830.496 33.0625 830.309 33.303 830.074 33.5114C829.839 33.7159 829.557 33.8769 829.227 33.9943C828.898 34.108 828.517 34.1648 828.085 34.1648ZM828.778 32.4943C829.135 32.4943 829.449 32.4242 829.722 32.2841C829.994 32.1402 830.208 31.947 830.364 31.7045C830.519 31.4621 830.597 31.1875 830.597 30.8807V29.9545C830.521 30.0038 830.417 30.0492 830.284 30.0909C830.155 30.1288 830.01 30.1648 829.847 30.1989C829.684 30.2292 829.521 30.2576 829.358 30.2841C829.195 30.3068 829.047 30.3277 828.915 30.3466C828.631 30.3883 828.383 30.4545 828.171 30.5455C827.958 30.6364 827.794 30.7595 827.676 30.9148C827.559 31.0663 827.5 31.2557 827.5 31.483C827.5 31.8125 827.619 32.0644 827.858 32.2386C828.1 32.4091 828.407 32.4943 828.778 32.4943ZM837.918 34.142C837.255 34.142 836.655 33.9716 836.117 33.6307C835.583 33.286 835.158 32.7803 834.844 32.1136C834.533 31.4432 834.378 30.6212 834.378 29.6477C834.378 28.6477 834.539 27.8163 834.861 27.1534C835.183 26.4867 835.611 25.9886 836.145 25.6591C836.683 25.3258 837.272 25.1591 837.912 25.1591C838.401 25.1591 838.808 25.2424 839.134 25.4091C839.463 25.572 839.728 25.7765 839.929 26.0227C840.134 26.2652 840.289 26.5038 840.395 26.7386H840.469V22.3636H842.884V34H840.497V32.6023H840.395C840.281 32.8447 840.12 33.0852 839.912 33.3239C839.708 33.5587 839.441 33.7538 839.111 33.9091C838.785 34.0644 838.388 34.142 837.918 34.142ZM838.685 32.2159C839.075 32.2159 839.405 32.1098 839.674 31.8977C839.946 31.6818 840.155 31.3807 840.299 30.9943C840.446 30.608 840.52 30.1553 840.52 29.6364C840.52 29.1174 840.448 28.6667 840.304 28.2841C840.16 27.9015 839.952 27.6061 839.679 27.3977C839.406 27.1894 839.075 27.0852 838.685 27.0852C838.287 27.0852 837.952 27.1932 837.679 27.4091C837.406 27.625 837.2 27.9242 837.06 28.3068C836.92 28.6894 836.85 29.1326 836.85 29.6364C836.85 30.1439 836.92 30.5928 837.06 30.983C837.204 31.3693 837.41 31.6723 837.679 31.892C837.952 32.108 838.287 32.2159 838.685 32.2159Z" fill="#222222"/>
<rect x="791.5" y="38.5" width="67" height="544" fill="url(#paint0_linear_269_395)" stroke="black"/>
<path fill-rule="evenodd" clip-rule="evenodd" d="M122.487 104H30.2644C27.8206 104 25.634 106.058 25.634 108.63V169.212H127.118V108.63C127.118 106.058 124.931 104 122.487 104Z" fill="#C5EBF5" stroke="#0055DC" stroke-width="1.5" stroke-miterlimit="10"/>
<path d="M76.3116 108.502C76.7378 108.502 77.0834 108.156 77.0834 107.73C77.0834 107.304 76.7378 106.958 76.3116 106.958C75.8854 106.958 75.5399 107.304 75.5399 107.73C75.5399 108.156 75.8854 108.502 76.3116 108.502Z" fill="#0055DC"/>
<path d="M131.105 173.842H21.518C15.8586 173.842 11.9999 172.942 11.9999 172.17V169.598C11.9999 169.341 12.2571 169.083 12.5144 169.083H139.98C140.237 169.083 140.495 169.341 140.495 169.598V172.17C140.623 172.942 137.665 173.842 131.105 173.842Z" fill="white"/>
<path fill-rule="evenodd" clip-rule="evenodd" d="M131.105 173.842H21.518C15.8586 173.842 11.9999 172.942 11.9999 172.17V169.598C11.9999 169.341 12.2571 169.083 12.5144 169.083H139.98C140.237 169.083 140.495 169.341 140.495 169.598V172.17C140.623 172.942 137.665 173.842 131.105 173.842Z" stroke="#0055DC" stroke-width="1.5" stroke-miterlimit="10"/>
<path d="M140.623 169.598C140.623 169.341 140.366 169.083 140.109 169.083H12.6429C12.3856 169.083 12.1284 169.341 12.1284 169.598V172.042H140.752V169.598H140.623Z" fill="#C5EBF5"/>
<path d="M131.105 173.842H21.518C15.8586 173.842 11.9999 172.942 11.9999 172.17V169.598C11.9999 169.341 12.2571 169.083 12.5144 169.083H139.98C140.237 169.083 140.495 169.341 140.495 169.598V172.17C140.623 172.942 137.665 173.842 131.105 173.842Z" stroke="#0055DC" stroke-width="1.5" stroke-miterlimit="10"/>
<path d="M122.873 111.203H29.7499V165.482H122.873V111.203Z" fill="white"/>
<path fill-rule="evenodd" clip-rule="evenodd" d="M90.3314 169.341V169.855C90.3314 170.241 89.5597 170.37 88.9166 170.37H63.835C63.1919 170.37 62.4202 170.241 62.4202 169.855V169.341" fill="#0055DC"/>
<path d="M89.0136 153.783C85.2469 151.783 81.0742 151.245 80.2968 149.42C79.708 148.037 80.2968 143.408 80.2968 143.408L71.1937 143.313C71.1937 143.313 71.769 148.006 71.1937 149.42C70.4964 151.134 66.7042 151.687 63.2232 153.634" fill="#CBE9F3"/>
<path d="M89.0136 153.783C85.2469 151.783 81.0742 151.245 80.2968 149.42C79.708 148.037 80.2968 143.408 80.2968 143.408L71.1937 143.313C71.1937 143.313 71.769 148.006 71.1937 149.42C70.4964 151.134 66.7042 151.687 63.2232 153.634" stroke="#193979" stroke-width="1.5" stroke-miterlimit="10"/>
<path d="M76.2041 158.545C80.9075 158.55 85.4552 156.86 89.0132 153.784C85.2468 151.784 81.0741 151.245 80.2963 149.42C80.1602 149.036 80.083 148.634 80.0673 148.227C78.6419 148.514 77.1931 148.67 75.7391 148.691C74.2863 148.67 72.8385 148.515 71.4142 148.227C71.3981 148.633 71.3233 149.035 71.1923 149.42C70.4949 151.135 66.7031 151.688 63.2221 153.636C66.8035 156.805 71.422 158.551 76.2041 158.545Z" fill="#1B59D3" stroke="#0F387D" stroke-width="1.5" stroke-miterlimit="10" stroke-linecap="round"/>
<path d="M68.877 135.287C68.8046 134.7 67.9339 133.645 66.906 134.322C65.9002 134.983 66.8665 139.928 69.6713 139.744" fill="#CBE9F3"/>
<path d="M68.877 135.287C68.8046 134.7 67.9339 133.645 66.906 134.322C65.9002 134.983 66.8665 139.928 69.6713 139.744" stroke="#193979" stroke-width="1.5" stroke-miterlimit="10"/>
<path d="M82.6469 135.287C82.7193 134.7 83.5897 133.645 84.6179 134.322C85.6237 134.983 84.6571 139.928 81.8523 139.744" fill="#CBE9F3"/>
<path d="M82.6469 135.287C82.7193 134.7 83.5897 133.645 84.6179 134.322C85.6237 134.983 84.6571 139.928 81.8523 139.744" stroke="#193979" stroke-width="1.5" stroke-miterlimit="10"/>
<path d="M82.8239 131.847C82.8797 133.784 82.6589 135.719 82.1681 137.594C81.8999 138.542 81.5837 141.45 81.22 142.203C80.3047 144.102 77.9465 146.215 75.8028 146.215C73.6591 146.215 71.545 144.103 70.3856 142.204C69.9428 141.477 69.5911 138.565 69.3155 137.596C68.6785 135.353 68.7824 133.299 68.7824 131.847C68.7824 127.442 71.7388 124.51 75.7995 124.51C79.8602 124.51 82.8239 127.442 82.8239 131.847Z" fill="#CBE9F3" stroke="#193979" stroke-width="1.5" stroke-miterlimit="10"/>
<path d="M81.5874 130.916C81.5874 130.916 74.3317 131.599 71.0206 129.213C71.0206 129.213 70.0547 133.279 68.8783 135.287C68.8783 135.287 67.4269 129.119 69.5404 128.301C69.5404 128.301 69.3651 124.879 73.1388 124.002C73.1388 124.002 72.9444 124.855 73.5773 124.83C74.2103 124.805 79.2366 121.908 82.8239 124.173C86.4112 126.437 83.6577 129.748 83.6577 129.748C83.6577 129.748 83.7549 133.246 82.8906 134.723L82.5768 135.725C82.5768 135.725 81.6692 132.558 81.5874 130.916Z" fill="#0F387D" stroke="#0F387D" stroke-width="1.5" stroke-linejoin="round"/>
<path d="M76.2041 158.545C87.0462 158.545 95.8354 149.755 95.8354 138.913C95.8354 128.071 87.0462 119.282 76.2041 119.282C65.3621 119.282 56.5728 128.071 56.5728 138.913C56.5728 149.755 65.3621 158.545 76.2041 158.545Z" stroke="#1B59D3" stroke-width="1.5" stroke-miterlimit="10"/>
<path d="M76.2041 158.545C87.0462 158.545 95.8354 149.755 95.8354 138.913C95.8354 128.071 87.0462 119.282 76.2041 119.282C65.3621 119.282 56.5728 128.071 56.5728 138.913C56.5728 149.755 65.3621 158.545 76.2041 158.545Z" stroke="#1B59D3" stroke-width="1.5" stroke-miterlimit="10"/>
<path fill-rule="evenodd" clip-rule="evenodd" d="M120.241 19H32.3972C30.0694 19 27.9866 20.9602 27.9866 23.4106V81.1158H124.652V23.4106C124.652 20.9602 122.569 19 120.241 19Z" fill="#C5EBF5" stroke="#0055DC" stroke-width="1.5" stroke-miterlimit="10"/>
<path d="M76.2581 23.2881C76.6641 23.2881 76.9932 22.959 76.9932 22.553C76.9932 22.147 76.6641 21.8179 76.2581 21.8179C75.8521 21.8179 75.523 22.147 75.523 22.553C75.523 22.959 75.8521 23.2881 76.2581 23.2881Z" fill="#0055DC"/>
<path d="M128.45 85.5264H24.0661C18.6754 85.5264 14.9999 84.6688 14.9999 83.9337V81.4834C14.9999 81.2383 15.245 80.9933 15.49 80.9933H136.904C137.149 80.9933 137.394 81.2383 137.394 81.4834V83.9337C137.516 84.6688 134.698 85.5264 128.45 85.5264Z" fill="white"/>
<path fill-rule="evenodd" clip-rule="evenodd" d="M128.45 85.5264H24.0661C18.6754 85.5264 14.9999 84.6688 14.9999 83.9337V81.4834C14.9999 81.2383 15.245 80.9933 15.49 80.9933H136.904C137.149 80.9933 137.394 81.2383 137.394 81.4834V83.9337C137.516 84.6688 134.698 85.5264 128.45 85.5264Z" stroke="#0055DC" stroke-width="1.5" stroke-miterlimit="10"/>
<path d="M137.516 81.4834C137.516 81.2383 137.271 80.9933 137.026 80.9933H15.612C15.3669 80.9933 15.1219 81.2383 15.1219 81.4834V83.8112H137.638V81.4834H137.516Z" fill="#C5EBF5"/>
<path d="M128.45 85.5264H24.0661C18.6754 85.5264 14.9999 84.6688 14.9999 83.9337V81.4834C14.9999 81.2383 15.245 80.9933 15.49 80.9933H136.904C137.149 80.9933 137.394 81.2383 137.394 81.4834V83.9337C137.516 84.6688 134.698 85.5264 128.45 85.5264Z" stroke="#0055DC" stroke-width="1.5" stroke-miterlimit="10"/>
<path d="M120.609 25.8608H31.9072V77.5627H120.609V25.8608Z" fill="white"/>
<path fill-rule="evenodd" clip-rule="evenodd" d="M89.6124 81.2383V81.7284C89.6124 82.0959 88.8773 82.2184 88.2647 82.2184H64.374C63.7615 82.2184 63.0264 82.0959 63.0264 81.7284V81.2383" fill="#0055DC"/>
<path d="M76.3022 72.9056C88.6901 72.9056 98.7325 62.8632 98.7325 50.4752C98.7325 38.0873 88.6901 28.0449 76.3022 28.0449C63.9143 28.0449 53.8719 38.0873 53.8719 50.4752C53.8719 62.8632 63.9143 72.9056 76.3022 72.9056Z" fill="white" stroke="#0055DC" stroke-width="1.5" stroke-miterlimit="10"/>
<path d="M75.3847 42.0609C75.7795 41.4575 76.6636 41.4575 77.0583 42.0609L77.3761 42.5466C77.6876 43.0227 78.3331 43.1434 78.7955 42.8119L79.2647 42.4756C79.8504 42.0558 80.6743 42.3745 80.8252 43.0791L80.9482 43.6538C81.0671 44.2094 81.6244 44.5544 82.1747 44.4131L82.7364 44.2689C83.4333 44.09 84.0854 44.6835 83.9727 45.3941L83.8795 45.9822C83.7908 46.5421 84.1848 47.0638 84.7476 47.1316L85.3305 47.2017C86.0436 47.2876 86.4363 48.075 86.0759 48.6963L85.7752 49.2148C85.4912 49.7044 85.6697 50.3319 86.1689 50.5986L86.6936 50.8789C87.3266 51.2171 87.4078 52.0922 86.8479 52.5411L86.3815 52.915C85.9401 53.2689 85.88 53.9182 86.2488 54.3471L86.6395 54.8016C87.1076 55.3459 86.8666 56.1915 86.1819 56.4073L85.6181 56.585C85.0779 56.7552 84.7869 57.3397 84.9764 57.8735L85.1767 58.4371C85.4173 59.1144 84.8859 59.8169 84.1686 59.7696L83.5868 59.7313C83.0204 59.694 82.5366 60.135 82.5214 60.7023L82.5056 61.294C82.4862 62.0138 81.7354 62.4779 81.083 62.1733L80.5593 61.9289C80.044 61.6884 79.4321 61.9254 79.2133 62.4502L78.9887 62.9891C78.7113 63.6544 77.8423 63.8166 77.3436 63.2961L76.9436 62.8786C76.5499 62.4676 75.8931 62.4676 75.4994 62.8786L75.0995 63.2961C74.6007 63.8166 73.7318 63.6544 73.4544 62.9891L73.2297 62.4502C73.0109 61.9254 72.399 61.6884 71.8838 61.9289L71.3601 62.1733C70.7076 62.4779 69.9568 62.0138 69.9375 61.294L69.9216 60.7023C69.9064 60.135 69.4226 59.694 68.8563 59.7313L68.2744 59.7696C67.5571 59.8169 67.0258 59.1144 67.2664 58.4371L67.4666 57.8735C67.6562 57.3397 67.3651 56.7552 66.8249 56.585L66.2611 56.4073C65.5765 56.1915 65.3355 55.3459 65.8035 54.8016L66.1942 54.3471C66.5631 53.9182 66.5029 53.2689 66.0615 52.915L65.5952 52.5411C65.0353 52.0922 65.1165 51.2171 65.7495 50.8789L66.2741 50.5986C66.7733 50.3319 66.9519 49.7044 66.6679 49.2148L66.3671 48.6963C66.0067 48.075 66.3994 47.2876 67.1126 47.2017L67.6954 47.1316C68.2583 47.0638 68.6523 46.5421 68.5635 45.9822L68.4703 45.3941C68.3577 44.6835 69.0098 44.09 69.7066 44.2689L70.2684 44.4131C70.8187 44.5544 71.376 44.2094 71.4949 43.6538L71.6179 43.0791C71.7687 42.3745 72.5927 42.0558 73.1783 42.4756L73.6475 42.8119C74.11 43.1434 74.7554 43.0227 75.0669 42.5466L75.3847 42.0609Z" fill="#003682"/>
<path d="M69.2244 62.1603C70.3923 61.518 71.4743 60.7307 72.4448 59.8171V53.8969L80.2429 53.9892V59.5574C80.5987 60.2492 81.9433 61.0992 83.7368 62.1063C83.7368 62.1063 80.3999 67.0835 76.2084 67.0835C72.0169 67.0835 69.2244 62.1603 69.2244 62.1603Z" fill="#C5EBF5" stroke="#003682" stroke-width="1.5" stroke-miterlimit="10"/>
<path d="M76.303 72.9058C81.8709 72.9135 87.2411 70.8424 91.3621 67.0982C89.0607 65.1247 86.5119 63.4596 83.7801 62.1451C83.7801 62.1451 80.4007 67.0832 76.2092 67.0832C72.0177 67.0832 69.2029 62.2083 69.2029 62.2083C66.6303 63.6586 63.4742 65.0243 61.1088 66.9714C65.2448 70.7934 70.6714 72.9129 76.303 72.9058Z" fill="#0055DC" stroke="#003682" stroke-width="1.5" stroke-miterlimit="10"/>
<path d="M83.7391 46.4139C83.7815 46.2472 83.8581 46.0911 83.9641 45.9557C84.0701 45.8202 84.2032 45.7083 84.3549 45.6271C84.5065 45.5459 84.6734 45.4972 84.8449 45.4841C85.0164 45.471 85.1888 45.4937 85.3511 45.5509C86.326 45.8451 85.7774 49.385 83.0527 49.2593C83.3352 48.3246 83.5644 47.3746 83.7391 46.4139Z" fill="#C5EBF5" stroke="#003682" stroke-width="1.5" stroke-miterlimit="10"/>
<path d="M68.8629 46.4144C68.8165 46.2443 68.7353 46.0857 68.6246 45.9486C68.5138 45.8115 68.3758 45.6988 68.2193 45.6177C68.0628 45.5366 67.8912 45.4888 67.7153 45.4774C67.5394 45.466 67.363 45.4912 67.1973 45.5513C66.3473 45.8961 66.771 49.3854 69.4976 49.2598C69.2249 48.326 69.0129 47.3755 68.8629 46.4144Z" fill="#C5EBF5" stroke="#003682" stroke-width="1.5" stroke-miterlimit="10"/>
<path d="M84.0922 43.1641C84.0922 45.1855 83.3518 49.3042 82.0517 51.7903C81.0867 53.6359 78.6003 55.6907 76.3398 55.6907C74.0793 55.6907 71.8487 53.6359 70.6279 51.7907C69.08 49.4505 68.5873 45.1855 68.5873 43.1641C68.5873 41.108 69.4041 39.1361 70.858 37.6823C72.3118 36.2284 74.2837 35.4116 76.3398 35.4116C78.3959 35.4116 80.3677 36.2284 81.8216 37.6823C83.2755 39.1361 84.0922 41.108 84.0922 43.1641Z" fill="#C5EBF5" stroke="#003682" stroke-width="1.5" stroke-miterlimit="10"/>
<path d="M83.6923 45.7096C83.3296 42.629 80.3417 38.5283 77.0044 38.5283L76.4536 35.9744L77.4868 38.5566C77.4868 44.1405 69.2079 42.6485 68.8624 46.3382L68.7298 46.2057C68.5595 45.1305 68.4677 44.0443 68.4552 42.9558C68.4552 38.6742 72.0587 35.3358 76.3402 35.3358C78.4102 35.3308 80.3988 36.1419 81.8748 37.5932C83.3509 39.0446 84.1953 41.0192 84.2252 43.0891C84.1843 44.1531 84.0383 45.2106 83.7892 46.2459L83.6923 45.7096Z" fill="#003682" stroke="#003682" stroke-width="1.5" stroke-linejoin="round"/>
<path d="M76.3022 72.9056C88.6901 72.9056 98.7325 62.8632 98.7325 50.4752C98.7325 38.0873 88.6901 28.0449 76.3022 28.0449C63.9143 28.0449 53.8719 38.0873 53.8719 50.4752C53.8719 62.8632 63.9143 72.9056 76.3022 72.9056Z" stroke="#0055DC" stroke-width="1.5" stroke-miterlimit="10"/>
<path fill-rule="evenodd" clip-rule="evenodd" d="M120.241 538H32.3972C30.0694 538 27.9866 539.96 27.9866 542.411V600.116H124.652V542.411C124.652 539.96 122.569 538 120.241 538Z" fill="#C5EBF5" stroke="#0055DC" stroke-width="1.5" stroke-miterlimit="10"/>
<path d="M76.2581 542.288C76.6641 542.288 76.9932 541.959 76.9932 541.553C76.9932 541.147 76.6641 540.818 76.2581 540.818C75.8521 540.818 75.523 541.147 75.523 541.553C75.523 541.959 75.8521 542.288 76.2581 542.288Z" fill="#0055DC"/>
<path d="M128.45 604.526H24.0661C18.6754 604.526 14.9999 603.669 14.9999 602.934V600.483C14.9999 600.238 15.245 599.993 15.49 599.993H136.904C137.149 599.993 137.394 600.238 137.394 600.483V602.934C137.516 603.669 134.698 604.526 128.45 604.526Z" fill="white"/>
<path fill-rule="evenodd" clip-rule="evenodd" d="M128.45 604.526H24.0661C18.6754 604.526 14.9999 603.669 14.9999 602.934V600.483C14.9999 600.238 15.245 599.993 15.49 599.993H136.904C137.149 599.993 137.394 600.238 137.394 600.483V602.934C137.516 603.669 134.698 604.526 128.45 604.526Z" stroke="#0055DC" stroke-width="1.5" stroke-miterlimit="10"/>
<path d="M137.516 600.483C137.516 600.238 137.271 599.993 137.026 599.993H15.612C15.3669 599.993 15.1219 600.238 15.1219 600.483V602.811H137.638V600.483H137.516Z" fill="#C5EBF5"/>
<path d="M128.45 604.526H24.0661C18.6754 604.526 14.9999 603.669 14.9999 602.934V600.483C14.9999 600.238 15.245 599.993 15.49 599.993H136.904C137.149 599.993 137.394 600.238 137.394 600.483V602.934C137.516 603.669 134.698 604.526 128.45 604.526Z" stroke="#0055DC" stroke-width="1.5" stroke-miterlimit="10"/>
<path d="M120.609 544.861H31.9072V596.563H120.609V544.861Z" fill="white"/>
<path fill-rule="evenodd" clip-rule="evenodd" d="M89.6124 600.238V600.728C89.6124 601.096 88.8773 601.218 88.2647 601.218H64.374C63.7615 601.218 63.0264 601.096 63.0264 600.728V600.238" fill="#0055DC"/>
<path d="M76.3022 591.906C88.6901 591.906 98.7325 581.863 98.7325 569.475C98.7325 557.087 88.6901 547.045 76.3022 547.045C63.9143 547.045 53.8719 557.087 53.8719 569.475C53.8719 581.863 63.9143 591.906 76.3022 591.906Z" fill="white" stroke="#0055DC" stroke-width="1.5" stroke-miterlimit="10"/>
<path d="M75.3847 561.061C75.7795 560.458 76.6636 560.458 77.0583 561.061L77.3761 561.547C77.6876 562.023 78.3331 562.143 78.7955 561.812L79.2647 561.476C79.8504 561.056 80.6743 561.374 80.8252 562.079L80.9482 562.654C81.0671 563.209 81.6244 563.554 82.1747 563.413L82.7364 563.269C83.4333 563.09 84.0854 563.683 83.9727 564.394L83.8795 564.982C83.7908 565.542 84.1848 566.064 84.7476 566.132L85.3305 566.202C86.0436 566.288 86.4363 567.075 86.0759 567.696L85.7752 568.215C85.4912 568.704 85.6697 569.332 86.1689 569.599L86.6936 569.879C87.3266 570.217 87.4078 571.092 86.8479 571.541L86.3815 571.915C85.9401 572.269 85.88 572.918 86.2488 573.347L86.6395 573.802C87.1076 574.346 86.8666 575.191 86.1819 575.407L85.6181 575.585C85.0779 575.755 84.7869 576.34 84.9764 576.873L85.1767 577.437C85.4173 578.114 84.8859 578.817 84.1686 578.77L83.5868 578.731C83.0204 578.694 82.5366 579.135 82.5214 579.702L82.5056 580.294C82.4862 581.014 81.7354 581.478 81.083 581.173L80.5593 580.929C80.044 580.688 79.4321 580.925 79.2133 581.45L78.9887 581.989C78.7113 582.654 77.8423 582.817 77.3436 582.296L76.9436 581.879C76.5499 581.468 75.8931 581.468 75.4994 581.879L75.0995 582.296C74.6007 582.817 73.7318 582.654 73.4544 581.989L73.2297 581.45C73.0109 580.925 72.399 580.688 71.8838 580.929L71.3601 581.173C70.7076 581.478 69.9568 581.014 69.9375 580.294L69.9216 579.702C69.9064 579.135 69.4226 578.694 68.8563 578.731L68.2744 578.77C67.5571 578.817 67.0258 578.114 67.2664 577.437L67.4666 576.873C67.6562 576.34 67.3651 575.755 66.8249 575.585L66.2611 575.407C65.5765 575.191 65.3355 574.346 65.8035 573.802L66.1942 573.347C66.5631 572.918 66.5029 572.269 66.0615 571.915L65.5952 571.541C65.0353 571.092 65.1165 570.217 65.7495 569.879L66.2741 569.599C66.7733 569.332 66.9519 568.704 66.6679 568.215L66.3671 567.696C66.0067 567.075 66.3994 566.288 67.1126 566.202L67.6954 566.132C68.2583 566.064 68.6523 565.542 68.5635 564.982L68.4703 564.394C68.3577 563.683 69.0098 563.09 69.7066 563.269L70.2684 563.413C70.8187 563.554 71.376 563.209 71.4949 562.654L71.6179 562.079C71.7687 561.374 72.5927 561.056 73.1783 561.476L73.6475 561.812C74.11 562.143 74.7554 562.023 75.0669 561.547L75.3847 561.061Z" fill="#003682"/>
<path d="M69.2244 581.16C70.3923 580.518 71.4743 579.731 72.4448 578.817V572.897L80.2429 572.989V578.557C80.5987 579.249 81.9433 580.099 83.7368 581.106C83.7368 581.106 80.3999 586.083 76.2084 586.083C72.0169 586.083 69.2244 581.16 69.2244 581.16Z" fill="#C5EBF5" stroke="#003682" stroke-width="1.5" stroke-miterlimit="10"/>
<path d="M76.303 591.906C81.8709 591.913 87.2411 589.842 91.3621 586.098C89.0607 584.125 86.5119 582.46 83.7801 581.145C83.7801 581.145 80.4007 586.083 76.2092 586.083C72.0177 586.083 69.2029 581.208 69.2029 581.208C66.6303 582.659 63.4742 584.024 61.1088 585.971C65.2448 589.793 70.6714 591.913 76.303 591.906Z" fill="#0055DC" stroke="#003682" stroke-width="1.5" stroke-miterlimit="10"/>
<path d="M83.7391 565.414C83.7815 565.247 83.8581 565.091 83.9641 564.956C84.0701 564.82 84.2032 564.708 84.3549 564.627C84.5065 564.546 84.6734 564.497 84.8449 564.484C85.0164 564.471 85.1888 564.494 85.3511 564.551C86.326 564.845 85.7774 568.385 83.0527 568.259C83.3352 567.325 83.5644 566.375 83.7391 565.414Z" fill="#C5EBF5" stroke="#003682" stroke-width="1.5" stroke-miterlimit="10"/>
<path d="M68.8629 565.414C68.8165 565.244 68.7353 565.086 68.6246 564.949C68.5138 564.811 68.3758 564.699 68.2193 564.618C68.0628 564.537 67.8912 564.489 67.7153 564.477C67.5394 564.466 67.363 564.491 67.1973 564.551C66.3473 564.896 66.771 568.385 69.4976 568.26C69.2249 567.326 69.0129 566.376 68.8629 565.414Z" fill="#C5EBF5" stroke="#003682" stroke-width="1.5" stroke-miterlimit="10"/>
<path d="M84.0922 562.164C84.0922 564.186 83.3518 568.304 82.0517 570.79C81.0867 572.636 78.6003 574.691 76.3398 574.691C74.0793 574.691 71.8487 572.636 70.6279 570.791C69.08 568.451 68.5873 564.186 68.5873 562.164C68.5873 560.108 69.4041 558.136 70.858 556.682C72.3118 555.228 74.2837 554.412 76.3398 554.412C78.3959 554.412 80.3677 555.228 81.8216 556.682C83.2755 558.136 84.0922 560.108 84.0922 562.164Z" fill="#C5EBF5" stroke="#003682" stroke-width="1.5" stroke-miterlimit="10"/>
<path d="M83.6923 564.71C83.3296 561.629 80.3417 557.528 77.0044 557.528L76.4536 554.974L77.4868 557.557C77.4868 563.14 69.2079 561.649 68.8624 565.338L68.7298 565.206C68.5595 564.13 68.4677 563.044 68.4552 561.956C68.4552 557.674 72.0587 554.336 76.3402 554.336C78.4102 554.331 80.3988 555.142 81.8748 556.593C83.3509 558.045 84.1953 560.019 84.2252 562.089C84.1843 563.153 84.0383 564.211 83.7892 565.246L83.6923 564.71Z" fill="#003682" stroke="#003682" stroke-width="1.5" stroke-linejoin="round"/>
<path d="M76.3022 591.906C88.6901 591.906 98.7325 581.863 98.7325 569.475C98.7325 557.087 88.6901 547.045 76.3022 547.045C63.9143 547.045 53.8719 557.087 53.8719 569.475C53.8719 581.863 63.9143 591.906 76.3022 591.906Z" stroke="#0055DC" stroke-width="1.5" stroke-miterlimit="10"/>
<path fill-rule="evenodd" clip-rule="evenodd" d="M122.487 277H30.2644C27.8206 277 25.634 279.058 25.634 281.63V342.212H127.118V281.63C127.118 279.058 124.931 277 122.487 277Z" fill="#C5EBF5" stroke="#0055DC" stroke-width="1.5" stroke-miterlimit="10"/>
<path d="M76.3116 281.502C76.7378 281.502 77.0834 281.156 77.0834 280.73C77.0834 280.304 76.7378 279.958 76.3116 279.958C75.8854 279.958 75.5399 280.304 75.5399 280.73C75.5399 281.156 75.8854 281.502 76.3116 281.502Z" fill="#0055DC"/>
<path d="M131.105 346.842H21.518C15.8586 346.842 11.9999 345.942 11.9999 345.17V342.598C11.9999 342.341 12.2571 342.083 12.5144 342.083H139.98C140.237 342.083 140.495 342.341 140.495 342.598V345.17C140.623 345.942 137.665 346.842 131.105 346.842Z" fill="white"/>
<path fill-rule="evenodd" clip-rule="evenodd" d="M131.105 346.842H21.518C15.8586 346.842 11.9999 345.942 11.9999 345.17V342.598C11.9999 342.341 12.2571 342.083 12.5144 342.083H139.98C140.237 342.083 140.495 342.341 140.495 342.598V345.17C140.623 345.942 137.665 346.842 131.105 346.842Z" stroke="#0055DC" stroke-width="1.5" stroke-miterlimit="10"/>
<path d="M140.623 342.598C140.623 342.341 140.366 342.083 140.109 342.083H12.6429C12.3856 342.083 12.1284 342.341 12.1284 342.598V345.042H140.752V342.598H140.623Z" fill="#C5EBF5"/>
<path d="M131.105 346.842H21.518C15.8586 346.842 11.9999 345.942 11.9999 345.17V342.598C11.9999 342.341 12.2571 342.083 12.5144 342.083H139.98C140.237 342.083 140.495 342.341 140.495 342.598V345.17C140.623 345.942 137.665 346.842 131.105 346.842Z" stroke="#0055DC" stroke-width="1.5" stroke-miterlimit="10"/>
<path d="M122.873 284.203H29.7499V338.482H122.873V284.203Z" fill="white"/>
<path fill-rule="evenodd" clip-rule="evenodd" d="M90.3314 342.341V342.855C90.3314 343.241 89.5597 343.37 88.9166 343.37H63.835C63.1919 343.37 62.4202 343.241 62.4202 342.855V342.341" fill="#0055DC"/>
<path d="M89.0136 326.783C85.2469 324.783 81.0742 324.245 80.2968 322.42C79.708 321.037 80.2968 316.408 80.2968 316.408L71.1937 316.313C71.1937 316.313 71.769 321.006 71.1937 322.42C70.4964 324.134 66.7042 324.687 63.2232 326.634" fill="#CBE9F3"/>
<path d="M89.0136 326.783C85.2469 324.783 81.0742 324.245 80.2968 322.42C79.708 321.037 80.2968 316.408 80.2968 316.408L71.1937 316.313C71.1937 316.313 71.769 321.006 71.1937 322.42C70.4964 324.134 66.7042 324.687 63.2232 326.634" stroke="#193979" stroke-width="1.5" stroke-miterlimit="10"/>
<path d="M76.2041 331.545C80.9075 331.55 85.4552 329.86 89.0132 326.784C85.2468 324.784 81.0741 324.245 80.2963 322.42C80.1602 322.036 80.083 321.634 80.0673 321.227C78.6419 321.514 77.1931 321.67 75.7391 321.691C74.2863 321.67 72.8385 321.515 71.4142 321.227C71.3981 321.633 71.3233 322.035 71.1923 322.42C70.4949 324.135 66.7031 324.688 63.2221 326.636C66.8035 329.805 71.422 331.551 76.2041 331.545Z" fill="#1B59D3" stroke="#0F387D" stroke-width="1.5" stroke-miterlimit="10" stroke-linecap="round"/>
<path d="M68.877 308.287C68.8046 307.7 67.9339 306.645 66.906 307.322C65.9002 307.983 66.8665 312.928 69.6713 312.744" fill="#CBE9F3"/>
<path d="M68.877 308.287C68.8046 307.7 67.9339 306.645 66.906 307.322C65.9002 307.983 66.8665 312.928 69.6713 312.744" stroke="#193979" stroke-width="1.5" stroke-miterlimit="10"/>
<path d="M82.6469 308.287C82.7193 307.7 83.5897 306.645 84.6179 307.322C85.6237 307.983 84.6571 312.928 81.8523 312.744" fill="#CBE9F3"/>
<path d="M82.6469 308.287C82.7193 307.7 83.5897 306.645 84.6179 307.322C85.6237 307.983 84.6571 312.928 81.8523 312.744" stroke="#193979" stroke-width="1.5" stroke-miterlimit="10"/>
<path d="M82.8239 304.847C82.8797 306.784 82.6589 308.719 82.1681 310.594C81.8999 311.542 81.5837 314.45 81.22 315.203C80.3047 317.102 77.9465 319.215 75.8028 319.215C73.6591 319.215 71.545 317.103 70.3856 315.204C69.9428 314.477 69.5911 311.565 69.3155 310.596C68.6785 308.353 68.7824 306.299 68.7824 304.847C68.7824 300.442 71.7388 297.51 75.7995 297.51C79.8602 297.51 82.8239 300.442 82.8239 304.847Z" fill="#CBE9F3" stroke="#193979" stroke-width="1.5" stroke-miterlimit="10"/>
<path d="M81.5874 303.916C81.5874 303.916 74.3317 304.599 71.0206 302.213C71.0206 302.213 70.0547 306.279 68.8783 308.287C68.8783 308.287 67.4269 302.119 69.5404 301.301C69.5404 301.301 69.3651 297.879 73.1388 297.002C73.1388 297.002 72.9444 297.855 73.5773 297.83C74.2103 297.805 79.2366 294.908 82.8239 297.173C86.4112 299.437 83.6577 302.748 83.6577 302.748C83.6577 302.748 83.7549 306.246 82.8906 307.723L82.5768 308.725C82.5768 308.725 81.6692 305.558 81.5874 303.916Z" fill="#0F387D" stroke="#0F387D" stroke-width="1.5" stroke-linejoin="round"/>
<path d="M76.2041 331.545C87.0462 331.545 95.8354 322.755 95.8354 311.913C95.8354 301.071 87.0462 292.282 76.2041 292.282C65.3621 292.282 56.5728 301.071 56.5728 311.913C56.5728 322.755 65.3621 331.545 76.2041 331.545Z" stroke="#1B59D3" stroke-width="1.5" stroke-miterlimit="10"/>
<path d="M76.2041 331.545C87.0462 331.545 95.8354 322.755 95.8354 311.913C95.8354 301.071 87.0462 292.282 76.2041 292.282C65.3621 292.282 56.5728 301.071 56.5728 311.913C56.5728 322.755 65.3621 331.545 76.2041 331.545Z" stroke="#1B59D3" stroke-width="1.5" stroke-miterlimit="10"/>
<path fill-rule="evenodd" clip-rule="evenodd" d="M120.241 192H32.3972C30.0694 192 27.9866 193.96 27.9866 196.411V254.116H124.652V196.411C124.652 193.96 122.569 192 120.241 192Z" fill="#C5EBF5" stroke="#0055DC" stroke-width="1.5" stroke-miterlimit="10"/>
<path d="M76.2581 196.288C76.6641 196.288 76.9932 195.959 76.9932 195.553C76.9932 195.147 76.6641 194.818 76.2581 194.818C75.8521 194.818 75.523 195.147 75.523 195.553C75.523 195.959 75.8521 196.288 76.2581 196.288Z" fill="#0055DC"/>
<path d="M128.45 258.526H24.0661C18.6754 258.526 14.9999 257.669 14.9999 256.934V254.483C14.9999 254.238 15.245 253.993 15.49 253.993H136.904C137.149 253.993 137.394 254.238 137.394 254.483V256.934C137.516 257.669 134.698 258.526 128.45 258.526Z" fill="white"/>
<path fill-rule="evenodd" clip-rule="evenodd" d="M128.45 258.526H24.0661C18.6754 258.526 14.9999 257.669 14.9999 256.934V254.483C14.9999 254.238 15.245 253.993 15.49 253.993H136.904C137.149 253.993 137.394 254.238 137.394 254.483V256.934C137.516 257.669 134.698 258.526 128.45 258.526Z" stroke="#0055DC" stroke-width="1.5" stroke-miterlimit="10"/>
<path d="M137.516 254.483C137.516 254.238 137.271 253.993 137.026 253.993H15.612C15.3669 253.993 15.1219 254.238 15.1219 254.483V256.811H137.638V254.483H137.516Z" fill="#C5EBF5"/>
<path d="M128.45 258.526H24.0661C18.6754 258.526 14.9999 257.669 14.9999 256.934V254.483C14.9999 254.238 15.245 253.993 15.49 253.993H136.904C137.149 253.993 137.394 254.238 137.394 254.483V256.934C137.516 257.669 134.698 258.526 128.45 258.526Z" stroke="#0055DC" stroke-width="1.5" stroke-miterlimit="10"/>
<path d="M120.609 198.861H31.9072V250.563H120.609V198.861Z" fill="white"/>
<path fill-rule="evenodd" clip-rule="evenodd" d="M89.6124 254.238V254.728C89.6124 255.096 88.8773 255.218 88.2647 255.218H64.374C63.7615 255.218 63.0264 255.096 63.0264 254.728V254.238" fill="#0055DC"/>
<path d="M76.3022 245.906C88.6901 245.906 98.7325 235.863 98.7325 223.475C98.7325 211.087 88.6901 201.045 76.3022 201.045C63.9143 201.045 53.8719 211.087 53.8719 223.475C53.8719 235.863 63.9143 245.906 76.3022 245.906Z" fill="white" stroke="#0055DC" stroke-width="1.5" stroke-miterlimit="10"/>
<path d="M75.3847 215.061C75.7795 214.458 76.6636 214.458 77.0583 215.061L77.3761 215.547C77.6876 216.023 78.3331 216.143 78.7955 215.812L79.2647 215.476C79.8504 215.056 80.6743 215.374 80.8252 216.079L80.9482 216.654C81.0671 217.209 81.6244 217.554 82.1747 217.413L82.7364 217.269C83.4333 217.09 84.0854 217.683 83.9727 218.394L83.8795 218.982C83.7908 219.542 84.1848 220.064 84.7476 220.132L85.3305 220.202C86.0436 220.288 86.4363 221.075 86.0759 221.696L85.7752 222.215C85.4912 222.704 85.6697 223.332 86.1689 223.599L86.6936 223.879C87.3266 224.217 87.4078 225.092 86.8479 225.541L86.3815 225.915C85.9401 226.269 85.88 226.918 86.2488 227.347L86.6395 227.802C87.1076 228.346 86.8666 229.191 86.1819 229.407L85.6181 229.585C85.0779 229.755 84.7869 230.34 84.9764 230.873L85.1767 231.437C85.4173 232.114 84.8859 232.817 84.1686 232.77L83.5868 232.731C83.0204 232.694 82.5366 233.135 82.5214 233.702L82.5056 234.294C82.4862 235.014 81.7354 235.478 81.083 235.173L80.5593 234.929C80.044 234.688 79.4321 234.925 79.2133 235.45L78.9887 235.989C78.7113 236.654 77.8423 236.817 77.3436 236.296L76.9436 235.879C76.5499 235.468 75.8931 235.468 75.4994 235.879L75.0995 236.296C74.6007 236.817 73.7318 236.654 73.4544 235.989L73.2297 235.45C73.0109 234.925 72.399 234.688 71.8838 234.929L71.3601 235.173C70.7076 235.478 69.9568 235.014 69.9375 234.294L69.9216 233.702C69.9064 233.135 69.4226 232.694 68.8563 232.731L68.2744 232.77C67.5571 232.817 67.0258 232.114 67.2664 231.437L67.4666 230.873C67.6562 230.34 67.3651 229.755 66.8249 229.585L66.2611 229.407C65.5765 229.191 65.3355 228.346 65.8035 227.802L66.1942 227.347C66.5631 226.918 66.5029 226.269 66.0615 225.915L65.5952 225.541C65.0353 225.092 65.1165 224.217 65.7495 223.879L66.2741 223.599C66.7733 223.332 66.9519 222.704 66.6679 222.215L66.3671 221.696C66.0067 221.075 66.3994 220.288 67.1126 220.202L67.6954 220.132C68.2583 220.064 68.6523 219.542 68.5635 218.982L68.4703 218.394C68.3577 217.683 69.0098 217.09 69.7066 217.269L70.2684 217.413C70.8187 217.554 71.376 217.209 71.4949 216.654L71.6179 216.079C71.7687 215.374 72.5927 215.056 73.1783 215.476L73.6475 215.812C74.11 216.143 74.7554 216.023 75.0669 215.547L75.3847 215.061Z" fill="#003682"/>
<path d="M69.2244 235.16C70.3923 234.518 71.4743 233.731 72.4448 232.817V226.897L80.2429 226.989V232.557C80.5987 233.249 81.9433 234.099 83.7368 235.106C83.7368 235.106 80.3999 240.083 76.2084 240.083C72.0169 240.083 69.2244 235.16 69.2244 235.16Z" fill="#C5EBF5" stroke="#003682" stroke-width="1.5" stroke-miterlimit="10"/>
<path d="M76.303 245.906C81.8709 245.913 87.2411 243.842 91.3621 240.098C89.0607 238.125 86.5119 236.46 83.7801 235.145C83.7801 235.145 80.4007 240.083 76.2092 240.083C72.0177 240.083 69.2029 235.208 69.2029 235.208C66.6303 236.659 63.4742 238.024 61.1088 239.971C65.2448 243.793 70.6714 245.913 76.303 245.906Z" fill="#0055DC" stroke="#003682" stroke-width="1.5" stroke-miterlimit="10"/>
<path d="M83.7391 219.414C83.7815 219.247 83.8581 219.091 83.9641 218.956C84.0701 218.82 84.2032 218.708 84.3549 218.627C84.5065 218.546 84.6734 218.497 84.8449 218.484C85.0164 218.471 85.1888 218.494 85.3511 218.551C86.326 218.845 85.7774 222.385 83.0527 222.259C83.3352 221.325 83.5644 220.375 83.7391 219.414Z" fill="#C5EBF5" stroke="#003682" stroke-width="1.5" stroke-miterlimit="10"/>
<path d="M68.8629 219.414C68.8165 219.244 68.7353 219.086 68.6246 218.949C68.5138 218.811 68.3758 218.699 68.2193 218.618C68.0628 218.537 67.8912 218.489 67.7153 218.477C67.5394 218.466 67.363 218.491 67.1973 218.551C66.3473 218.896 66.771 222.385 69.4976 222.26C69.2249 221.326 69.0129 220.376 68.8629 219.414Z" fill="#C5EBF5" stroke="#003682" stroke-width="1.5" stroke-miterlimit="10"/>
<path d="M84.0922 216.164C84.0922 218.186 83.3518 222.304 82.0517 224.79C81.0867 226.636 78.6003 228.691 76.3398 228.691C74.0793 228.691 71.8487 226.636 70.6279 224.791C69.08 222.451 68.5873 218.186 68.5873 216.164C68.5873 214.108 69.4041 212.136 70.858 210.682C72.3118 209.228 74.2837 208.412 76.3398 208.412C78.3959 208.412 80.3677 209.228 81.8216 210.682C83.2755 212.136 84.0922 214.108 84.0922 216.164Z" fill="#C5EBF5" stroke="#003682" stroke-width="1.5" stroke-miterlimit="10"/>
<path d="M83.6923 218.71C83.3296 215.629 80.3417 211.528 77.0044 211.528L76.4536 208.974L77.4868 211.557C77.4868 217.14 69.2079 215.649 68.8624 219.338L68.7298 219.206C68.5595 218.13 68.4677 217.044 68.4552 215.956C68.4552 211.674 72.0587 208.336 76.3402 208.336C78.4102 208.331 80.3988 209.142 81.8748 210.593C83.3509 212.045 84.1953 214.019 84.2252 216.089C84.1843 217.153 84.0383 218.211 83.7892 219.246L83.6923 218.71Z" fill="#003682" stroke="#003682" stroke-width="1.5" stroke-linejoin="round"/>
<path d="M76.3022 245.906C88.6901 245.906 98.7325 235.863 98.7325 223.475C98.7325 211.087 88.6901 201.045 76.3022 201.045C63.9143 201.045 53.8719 211.087 53.8719 223.475C53.8719 235.863 63.9143 245.906 76.3022 245.906Z" stroke="#0055DC" stroke-width="1.5" stroke-miterlimit="10"/>
<path fill-rule="evenodd" clip-rule="evenodd" d="M122.487 450H30.2644C27.8206 450 25.634 452.058 25.634 454.63V515.212H127.118V454.63C127.118 452.058 124.931 450 122.487 450Z" fill="#C5EBF5" stroke="#0055DC" stroke-width="1.5" stroke-miterlimit="10"/>
<path d="M76.3116 454.502C76.7378 454.502 77.0834 454.156 77.0834 453.73C77.0834 453.304 76.7378 452.958 76.3116 452.958C75.8854 452.958 75.5399 453.304 75.5399 453.73C75.5399 454.156 75.8854 454.502 76.3116 454.502Z" fill="#0055DC"/>
<path d="M131.105 519.842H21.518C15.8586 519.842 11.9999 518.942 11.9999 518.17V515.598C11.9999 515.341 12.2571 515.083 12.5144 515.083H139.98C140.237 515.083 140.495 515.341 140.495 515.598V518.17C140.623 518.942 137.665 519.842 131.105 519.842Z" fill="white"/>
<path fill-rule="evenodd" clip-rule="evenodd" d="M131.105 519.842H21.518C15.8586 519.842 11.9999 518.942 11.9999 518.17V515.598C11.9999 515.341 12.2571 515.083 12.5144 515.083H139.98C140.237 515.083 140.495 515.341 140.495 515.598V518.17C140.623 518.942 137.665 519.842 131.105 519.842Z" stroke="#0055DC" stroke-width="1.5" stroke-miterlimit="10"/>
<path d="M140.623 515.598C140.623 515.341 140.366 515.083 140.109 515.083H12.6429C12.3856 515.083 12.1284 515.341 12.1284 515.598V518.042H140.752V515.598H140.623Z" fill="#C5EBF5"/>
<path d="M131.105 519.842H21.518C15.8586 519.842 11.9999 518.942 11.9999 518.17V515.598C11.9999 515.341 12.2571 515.083 12.5144 515.083H139.98C140.237 515.083 140.495 515.341 140.495 515.598V518.17C140.623 518.942 137.665 519.842 131.105 519.842Z" stroke="#0055DC" stroke-width="1.5" stroke-miterlimit="10"/>
<path d="M122.873 457.203H29.7499V511.482H122.873V457.203Z" fill="white"/>
<path fill-rule="evenodd" clip-rule="evenodd" d="M90.3314 515.341V515.855C90.3314 516.241 89.5597 516.37 88.9166 516.37H63.835C63.1919 516.37 62.4202 516.241 62.4202 515.855V515.341" fill="#0055DC"/>
<path d="M89.0136 499.783C85.2469 497.783 81.0742 497.245 80.2968 495.42C79.708 494.037 80.2968 489.408 80.2968 489.408L71.1937 489.313C71.1937 489.313 71.769 494.006 71.1937 495.42C70.4964 497.134 66.7042 497.687 63.2232 499.634" fill="#CBE9F3"/>
<path d="M89.0136 499.783C85.2469 497.783 81.0742 497.245 80.2968 495.42C79.708 494.037 80.2968 489.408 80.2968 489.408L71.1937 489.313C71.1937 489.313 71.769 494.006 71.1937 495.42C70.4964 497.134 66.7042 497.687 63.2232 499.634" stroke="#193979" stroke-width="1.5" stroke-miterlimit="10"/>
<path d="M76.2041 504.545C80.9075 504.55 85.4552 502.86 89.0132 499.784C85.2468 497.784 81.0741 497.245 80.2963 495.42C80.1602 495.036 80.083 494.634 80.0673 494.227C78.6419 494.514 77.1931 494.67 75.7391 494.691C74.2863 494.67 72.8385 494.515 71.4142 494.227C71.3981 494.633 71.3233 495.035 71.1923 495.42C70.4949 497.135 66.7031 497.688 63.2221 499.636C66.8035 502.805 71.422 504.551 76.2041 504.545Z" fill="#1B59D3" stroke="#0F387D" stroke-width="1.5" stroke-miterlimit="10" stroke-linecap="round"/>
<path d="M68.877 481.287C68.8046 480.7 67.9339 479.645 66.906 480.322C65.9002 480.983 66.8665 485.928 69.6713 485.744" fill="#CBE9F3"/>
<path d="M68.877 481.287C68.8046 480.7 67.9339 479.645 66.906 480.322C65.9002 480.983 66.8665 485.928 69.6713 485.744" stroke="#193979" stroke-width="1.5" stroke-miterlimit="10"/>
<path d="M82.6469 481.287C82.7193 480.7 83.5897 479.645 84.6179 480.322C85.6237 480.983 84.6571 485.928 81.8523 485.744" fill="#CBE9F3"/>
<path d="M82.6469 481.287C82.7193 480.7 83.5897 479.645 84.6179 480.322C85.6237 480.983 84.6571 485.928 81.8523 485.744" stroke="#193979" stroke-width="1.5" stroke-miterlimit="10"/>
<path d="M82.8239 477.847C82.8797 479.784 82.6589 481.719 82.1681 483.594C81.8999 484.542 81.5837 487.45 81.22 488.203C80.3047 490.102 77.9465 492.215 75.8028 492.215C73.6591 492.215 71.545 490.103 70.3856 488.204C69.9428 487.477 69.5911 484.565 69.3155 483.596C68.6785 481.353 68.7824 479.299 68.7824 477.847C68.7824 473.442 71.7388 470.51 75.7995 470.51C79.8602 470.51 82.8239 473.442 82.8239 477.847Z" fill="#CBE9F3" stroke="#193979" stroke-width="1.5" stroke-miterlimit="10"/>
<path d="M81.5874 476.916C81.5874 476.916 74.3317 477.599 71.0206 475.213C71.0206 475.213 70.0547 479.279 68.8783 481.287C68.8783 481.287 67.4269 475.119 69.5404 474.301C69.5404 474.301 69.3651 470.879 73.1388 470.002C73.1388 470.002 72.9444 470.855 73.5773 470.83C74.2103 470.805 79.2366 467.908 82.8239 470.173C86.4112 472.437 83.6577 475.748 83.6577 475.748C83.6577 475.748 83.7549 479.246 82.8906 480.723L82.5768 481.725C82.5768 481.725 81.6692 478.558 81.5874 476.916Z" fill="#0F387D" stroke="#0F387D" stroke-width="1.5" stroke-linejoin="round"/>
<path d="M76.2041 504.545C87.0462 504.545 95.8354 495.755 95.8354 484.913C95.8354 474.071 87.0462 465.282 76.2041 465.282C65.3621 465.282 56.5728 474.071 56.5728 484.913C56.5728 495.755 65.3621 504.545 76.2041 504.545Z" stroke="#1B59D3" stroke-width="1.5" stroke-miterlimit="10"/>
<path d="M76.2041 504.545C87.0462 504.545 95.8354 495.755 95.8354 484.913C95.8354 474.071 87.0462 465.282 76.2041 465.282C65.3621 465.282 56.5728 474.071 56.5728 484.913C56.5728 495.755 65.3621 504.545 76.2041 504.545Z" stroke="#1B59D3" stroke-width="1.5" stroke-miterlimit="10"/>
<path fill-rule="evenodd" clip-rule="evenodd" d="M120.241 365H32.3972C30.0694 365 27.9866 366.96 27.9866 369.411V427.116H124.652V369.411C124.652 366.96 122.569 365 120.241 365Z" fill="#C5EBF5" stroke="#0055DC" stroke-width="1.5" stroke-miterlimit="10"/>
<path d="M76.2581 369.288C76.6641 369.288 76.9932 368.959 76.9932 368.553C76.9932 368.147 76.6641 367.818 76.2581 367.818C75.8521 367.818 75.523 368.147 75.523 368.553C75.523 368.959 75.8521 369.288 76.2581 369.288Z" fill="#0055DC"/>
<path d="M128.45 431.526H24.0661C18.6754 431.526 14.9999 430.669 14.9999 429.934V427.483C14.9999 427.238 15.245 426.993 15.49 426.993H136.904C137.149 426.993 137.394 427.238 137.394 427.483V429.934C137.516 430.669 134.698 431.526 128.45 431.526Z" fill="white"/>
<path fill-rule="evenodd" clip-rule="evenodd" d="M128.45 431.526H24.0661C18.6754 431.526 14.9999 430.669 14.9999 429.934V427.483C14.9999 427.238 15.245 426.993 15.49 426.993H136.904C137.149 426.993 137.394 427.238 137.394 427.483V429.934C137.516 430.669 134.698 431.526 128.45 431.526Z" stroke="#0055DC" stroke-width="1.5" stroke-miterlimit="10"/>
<path d="M137.516 427.483C137.516 427.238 137.271 426.993 137.026 426.993H15.612C15.3669 426.993 15.1219 427.238 15.1219 427.483V429.811H137.638V427.483H137.516Z" fill="#C5EBF5"/>
<path d="M128.45 431.526H24.0661C18.6754 431.526 14.9999 430.669 14.9999 429.934V427.483C14.9999 427.238 15.245 426.993 15.49 426.993H136.904C137.149 426.993 137.394 427.238 137.394 427.483V429.934C137.516 430.669 134.698 431.526 128.45 431.526Z" stroke="#0055DC" stroke-width="1.5" stroke-miterlimit="10"/>
<path d="M120.609 371.861H31.9072V423.563H120.609V371.861Z" fill="white"/>
<path fill-rule="evenodd" clip-rule="evenodd" d="M89.6124 427.238V427.728C89.6124 428.096 88.8773 428.218 88.2647 428.218H64.374C63.7615 428.218 63.0264 428.096 63.0264 427.728V427.238" fill="#0055DC"/>
<path d="M76.3022 418.906C88.6901 418.906 98.7325 408.863 98.7325 396.475C98.7325 384.087 88.6901 374.045 76.3022 374.045C63.9143 374.045 53.8719 384.087 53.8719 396.475C53.8719 408.863 63.9143 418.906 76.3022 418.906Z" fill="white" stroke="#0055DC" stroke-width="1.5" stroke-miterlimit="10"/>
<path d="M75.3847 388.061C75.7795 387.458 76.6636 387.458 77.0583 388.061L77.3761 388.547C77.6876 389.023 78.3331 389.143 78.7955 388.812L79.2647 388.476C79.8504 388.056 80.6743 388.374 80.8252 389.079L80.9482 389.654C81.0671 390.209 81.6244 390.554 82.1747 390.413L82.7364 390.269C83.4333 390.09 84.0854 390.683 83.9727 391.394L83.8795 391.982C83.7908 392.542 84.1848 393.064 84.7476 393.132L85.3305 393.202C86.0436 393.288 86.4363 394.075 86.0759 394.696L85.7752 395.215C85.4912 395.704 85.6697 396.332 86.1689 396.599L86.6936 396.879C87.3266 397.217 87.4078 398.092 86.8479 398.541L86.3815 398.915C85.9401 399.269 85.88 399.918 86.2488 400.347L86.6395 400.802C87.1076 401.346 86.8666 402.191 86.1819 402.407L85.6181 402.585C85.0779 402.755 84.7869 403.34 84.9764 403.873L85.1767 404.437C85.4173 405.114 84.8859 405.817 84.1686 405.77L83.5868 405.731C83.0204 405.694 82.5366 406.135 82.5214 406.702L82.5056 407.294C82.4862 408.014 81.7354 408.478 81.083 408.173L80.5593 407.929C80.044 407.688 79.4321 407.925 79.2133 408.45L78.9887 408.989C78.7113 409.654 77.8423 409.817 77.3436 409.296L76.9436 408.879C76.5499 408.468 75.8931 408.468 75.4994 408.879L75.0995 409.296C74.6007 409.817 73.7318 409.654 73.4544 408.989L73.2297 408.45C73.0109 407.925 72.399 407.688 71.8838 407.929L71.3601 408.173C70.7076 408.478 69.9568 408.014 69.9375 407.294L69.9216 406.702C69.9064 406.135 69.4226 405.694 68.8563 405.731L68.2744 405.77C67.5571 405.817 67.0258 405.114 67.2664 404.437L67.4666 403.873C67.6562 403.34 67.3651 402.755 66.8249 402.585L66.2611 402.407C65.5765 402.191 65.3355 401.346 65.8035 400.802L66.1942 400.347C66.5631 399.918 66.5029 399.269 66.0615 398.915L65.5952 398.541C65.0353 398.092 65.1165 397.217 65.7495 396.879L66.2741 396.599C66.7733 396.332 66.9519 395.704 66.6679 395.215L66.3671 394.696C66.0067 394.075 66.3994 393.288 67.1126 393.202L67.6954 393.132C68.2583 393.064 68.6523 392.542 68.5635 391.982L68.4703 391.394C68.3577 390.683 69.0098 390.09 69.7066 390.269L70.2684 390.413C70.8187 390.554 71.376 390.209 71.4949 389.654L71.6179 389.079C71.7687 388.374 72.5927 388.056 73.1783 388.476L73.6475 388.812C74.11 389.143 74.7554 389.023 75.0669 388.547L75.3847 388.061Z" fill="#003682"/>
<path d="M69.2244 408.16C70.3923 407.518 71.4743 406.731 72.4448 405.817V399.897L80.2429 399.989V405.557C80.5987 406.249 81.9433 407.099 83.7368 408.106C83.7368 408.106 80.3999 413.083 76.2084 413.083C72.0169 413.083 69.2244 408.16 69.2244 408.16Z" fill="#C5EBF5" stroke="#003682" stroke-width="1.5" stroke-miterlimit="10"/>
<path d="M76.303 418.906C81.8709 418.913 87.2411 416.842 91.3621 413.098C89.0607 411.125 86.5119 409.46 83.7801 408.145C83.7801 408.145 80.4007 413.083 76.2092 413.083C72.0177 413.083 69.2029 408.208 69.2029 408.208C66.6303 409.659 63.4742 411.024 61.1088 412.971C65.2448 416.793 70.6714 418.913 76.303 418.906Z" fill="#0055DC" stroke="#003682" stroke-width="1.5" stroke-miterlimit="10"/>
<path d="M83.7391 392.414C83.7815 392.247 83.8581 392.091 83.9641 391.956C84.0701 391.82 84.2032 391.708 84.3549 391.627C84.5065 391.546 84.6734 391.497 84.8449 391.484C85.0164 391.471 85.1888 391.494 85.3511 391.551C86.326 391.845 85.7774 395.385 83.0527 395.259C83.3352 394.325 83.5644 393.375 83.7391 392.414Z" fill="#C5EBF5" stroke="#003682" stroke-width="1.5" stroke-miterlimit="10"/>
<path d="M68.8629 392.414C68.8165 392.244 68.7353 392.086 68.6246 391.949C68.5138 391.811 68.3758 391.699 68.2193 391.618C68.0628 391.537 67.8912 391.489 67.7153 391.477C67.5394 391.466 67.363 391.491 67.1973 391.551C66.3473 391.896 66.771 395.385 69.4976 395.26C69.2249 394.326 69.0129 393.376 68.8629 392.414Z" fill="#C5EBF5" stroke="#003682" stroke-width="1.5" stroke-miterlimit="10"/>
<path d="M84.0922 389.164C84.0922 391.186 83.3518 395.304 82.0517 397.79C81.0867 399.636 78.6003 401.691 76.3398 401.691C74.0793 401.691 71.8487 399.636 70.6279 397.791C69.08 395.451 68.5873 391.186 68.5873 389.164C68.5873 387.108 69.4041 385.136 70.858 383.682C72.3118 382.228 74.2837 381.412 76.3398 381.412C78.3959 381.412 80.3677 382.228 81.8216 383.682C83.2755 385.136 84.0922 387.108 84.0922 389.164Z" fill="#C5EBF5" stroke="#003682" stroke-width="1.5" stroke-miterlimit="10"/>
<path d="M83.6923 391.71C83.3296 388.629 80.3417 384.528 77.0044 384.528L76.4536 381.974L77.4868 384.557C77.4868 390.14 69.2079 388.649 68.8624 392.338L68.7298 392.206C68.5595 391.13 68.4677 390.044 68.4552 388.956C68.4552 384.674 72.0587 381.336 76.3402 381.336C78.4102 381.331 80.3988 382.142 81.8748 383.593C83.3509 385.045 84.1953 387.019 84.2252 389.089C84.1843 390.153 84.0383 391.211 83.7892 392.246L83.6923 391.71Z" fill="#003682" stroke="#003682" stroke-width="1.5" stroke-linejoin="round"/>
<path d="M76.3022 418.906C88.6901 418.906 98.7325 408.863 98.7325 396.475C98.7325 384.087 88.6901 374.045 76.3022 374.045C63.9143 374.045 53.8719 384.087 53.8719 396.475C53.8719 408.863 63.9143 418.906 76.3022 418.906Z" stroke="#0055DC" stroke-width="1.5" stroke-miterlimit="10"/>
<path d="M647.507 41.1982H644V59.2483H647.507V41.1982Z" fill="#0055DC"/>
<path d="M739 41.1982H735.493V59.2483H739V41.1982Z" fill="#0055DC"/>
<path d="M652.31 62.4645L652.31 65.8899L730.687 65.8858L730.687 62.4604L652.31 62.4645Z" fill="white" stroke="#0055DC" stroke-width="1.5" stroke-miterlimit="10"/>
<path d="M735.492 38H647.507V62.4616H735.492V38Z" fill="#C5EBF5" stroke="#0055DC" stroke-width="1.5" stroke-miterlimit="10"/>
<path d="M731.692 59.0123V41.4485L651.308 41.4485V59.0123H731.692Z" fill="#53BC00"/>
<path d="M657.832 46.4078H655.885V48.3101H657.832V46.4078Z" fill="#0055DC"/>
<path d="M657.832 52.1334H655.885V54.0357H657.832V52.1334Z" fill="#0055DC"/>
<path d="M660.499 49.1167H658.551V51.019H660.499V49.1167Z" fill="#0055DC"/>
<path d="M662.869 46.4078H660.922V48.3101H662.869V46.4078Z" fill="#0055DC"/>
<path d="M662.869 52.1334H660.922V54.0357H662.869V52.1334Z" fill="#0055DC"/>
<path d="M665.389 49.1167H663.441V51.019H665.389V49.1167Z" fill="#0055DC"/>
<path d="M668.369 46.4078H666.422V48.3101H668.369V46.4078Z" fill="#0055DC"/>
<path d="M668.369 52.1334H666.422V54.0357H668.369V52.1334Z" fill="#0055DC"/>
<path d="M670.888 49.1167H668.941V51.019H670.888V49.1167Z" fill="#0055DC"/>
<path d="M673.953 46.4078H672.005V48.3101H673.953V46.4078Z" fill="#0055DC"/>
<path d="M673.953 52.1334H672.005V54.0357H673.953V52.1334Z" fill="#0055DC"/>
<path d="M676.324 49.1167H674.376V51.019H676.324V49.1167Z" fill="#0055DC"/>
<path d="M678.99 46.4078H677.042V48.3101H678.99V46.4078Z" fill="#0055DC"/>
<path d="M678.99 52.1334H677.042V54.0357H678.99V52.1334Z" fill="#0055DC"/>
<path d="M681.214 49.1167H679.266V51.019H681.214V49.1167Z" fill="#0055DC"/>
<path d="M684.029 46.4078H682.081V48.3101H684.029V46.4078Z" fill="#0055DC"/>
<path d="M684.029 52.1334H682.081V54.0357H684.029V52.1334Z" fill="#0055DC"/>
<path d="M686.104 49.1167H684.157V51.019H686.104V49.1167Z" fill="#0055DC"/>
<path d="M725.306 52.5923C726.641 52.5923 727.724 51.5351 727.724 50.2309C727.724 48.9267 726.641 47.8694 725.306 47.8694C723.971 47.8694 722.888 48.9267 722.888 50.2309C722.888 51.5351 723.971 52.5923 725.306 52.5923Z" fill="#0055DC"/>
<path d="M718.354 50.2306H692.748" stroke="#0055DC" stroke-width="1.5" stroke-miterlimit="10"/>
<path d="M647.507 127.198H644V145.248H647.507V127.198Z" fill="#0055DC"/>
<path d="M739 127.198H735.493V145.248H739V127.198Z" fill="#0055DC"/>
<path d="M652.31 148.464L652.31 151.89L730.687 151.886L730.687 148.46L652.31 148.464Z" fill="white" stroke="#0055DC" stroke-width="1.5" stroke-miterlimit="10"/>
<path d="M735.492 124H647.507V148.462H735.492V124Z" fill="#C5EBF5" stroke="#0055DC" stroke-width="1.5" stroke-miterlimit="10"/>
<path d="M731.692 145.012V127.448H651.308V145.012H731.692Z" fill="#53BC00"/>
<path d="M657.832 132.408H655.885V134.31H657.832V132.408Z" fill="#0055DC"/>
<path d="M657.832 138.133H655.885V140.036H657.832V138.133Z" fill="#0055DC"/>
<path d="M660.499 135.117H658.551V137.019H660.499V135.117Z" fill="#0055DC"/>
<path d="M662.869 132.408H660.922V134.31H662.869V132.408Z" fill="#0055DC"/>
<path d="M662.869 138.133H660.922V140.036H662.869V138.133Z" fill="#0055DC"/>
<path d="M665.389 135.117H663.441V137.019H665.389V135.117Z" fill="#0055DC"/>
<path d="M668.369 132.408H666.422V134.31H668.369V132.408Z" fill="#0055DC"/>
<path d="M668.369 138.133H666.422V140.036H668.369V138.133Z" fill="#0055DC"/>
<path d="M670.888 135.117H668.941V137.019H670.888V135.117Z" fill="#0055DC"/>
<path d="M673.953 132.408H672.005V134.31H673.953V132.408Z" fill="#0055DC"/>
<path d="M673.953 138.133H672.005V140.036H673.953V138.133Z" fill="#0055DC"/>
<path d="M676.324 135.117H674.376V137.019H676.324V135.117Z" fill="#0055DC"/>
<path d="M678.99 132.408H677.042V134.31H678.99V132.408Z" fill="#0055DC"/>
<path d="M678.99 138.133H677.042V140.036H678.99V138.133Z" fill="#0055DC"/>
<path d="M681.214 135.117H679.266V137.019H681.214V135.117Z" fill="#0055DC"/>
<path d="M684.029 132.408H682.081V134.31H684.029V132.408Z" fill="#0055DC"/>
<path d="M684.029 138.133H682.081V140.036H684.029V138.133Z" fill="#0055DC"/>
<path d="M686.104 135.117H684.157V137.019H686.104V135.117Z" fill="#0055DC"/>
<path d="M725.306 138.592C726.641 138.592 727.724 137.535 727.724 136.231C727.724 134.927 726.641 133.869 725.306 133.869C723.971 133.869 722.888 134.927 722.888 136.231C722.888 137.535 723.971 138.592 725.306 138.592Z" fill="#0055DC"/>
<path d="M718.354 136.231H692.748" stroke="#0055DC" stroke-width="1.5" stroke-miterlimit="10"/>
<path d="M647.507 557.198H644V575.248H647.507V557.198Z" fill="#0055DC"/>
<path d="M739 557.198H735.493V575.248H739V557.198Z" fill="#0055DC"/>
<path d="M652.31 578.464L652.31 581.89L730.687 581.886L730.687 578.46L652.31 578.464Z" fill="white" stroke="#0055DC" stroke-width="1.5" stroke-miterlimit="10"/>
<path d="M735.492 554H647.507V578.462H735.492V554Z" fill="#C5EBF5" stroke="#0055DC" stroke-width="1.5" stroke-miterlimit="10"/>
<path d="M731.692 575.012V557.448H651.308V575.012H731.692Z" fill="#53BC00"/>
<path d="M657.832 562.408H655.885V564.31H657.832V562.408Z" fill="#0055DC"/>
<path d="M657.832 568.133H655.885V570.036H657.832V568.133Z" fill="#0055DC"/>
<path d="M660.499 565.117H658.551V567.019H660.499V565.117Z" fill="#0055DC"/>
<path d="M662.869 562.408H660.922V564.31H662.869V562.408Z" fill="#0055DC"/>
<path d="M662.869 568.133H660.922V570.036H662.869V568.133Z" fill="#0055DC"/>
<path d="M665.389 565.117H663.441V567.019H665.389V565.117Z" fill="#0055DC"/>
<path d="M668.369 562.408H666.422V564.31H668.369V562.408Z" fill="#0055DC"/>
<path d="M668.369 568.133H666.422V570.036H668.369V568.133Z" fill="#0055DC"/>
<path d="M670.888 565.117H668.941V567.019H670.888V565.117Z" fill="#0055DC"/>
<path d="M673.953 562.408H672.005V564.31H673.953V562.408Z" fill="#0055DC"/>
<path d="M673.953 568.133H672.005V570.036H673.953V568.133Z" fill="#0055DC"/>
<path d="M676.324 565.117H674.376V567.019H676.324V565.117Z" fill="#0055DC"/>
<path d="M678.99 562.408H677.042V564.31H678.99V562.408Z" fill="#0055DC"/>
<path d="M678.99 568.133H677.042V570.036H678.99V568.133Z" fill="#0055DC"/>
<path d="M681.214 565.117H679.266V567.019H681.214V565.117Z" fill="#0055DC"/>
<path d="M684.029 562.408H682.081V564.31H684.029V562.408Z" fill="#0055DC"/>
<path d="M684.029 568.133H682.081V570.036H684.029V568.133Z" fill="#0055DC"/>
<path d="M686.104 565.117H684.157V567.019H686.104V565.117Z" fill="#0055DC"/>
<path d="M725.306 568.592C726.641 568.592 727.724 567.535 727.724 566.231C727.724 564.927 726.641 563.869 725.306 563.869C723.971 563.869 722.888 564.927 722.888 566.231C722.888 567.535 723.971 568.592 725.306 568.592Z" fill="#0055DC"/>
<path d="M718.354 566.231H692.748" stroke="#0055DC" stroke-width="1.5" stroke-miterlimit="10"/>
<path d="M649.507 215.198H646V233.248H649.507V215.198Z" fill="#0055DC"/>
<path d="M741 215.198H737.493V233.248H741V215.198Z" fill="#0055DC"/>
<path d="M654.31 236.464L654.31 239.89L732.687 239.886L732.687 236.46L654.31 236.464Z" fill="white" stroke="#0055DC" stroke-width="1.5" stroke-miterlimit="10"/>
<path d="M737.492 212H649.507V236.462H737.492V212Z" fill="#C5EBF5" stroke="#0055DC" stroke-width="1.5" stroke-miterlimit="10"/>
<path d="M733.692 233.012V215.448H653.308V233.012H733.692Z" fill="#53BC00"/>
<path d="M659.832 220.408H657.885V222.31H659.832V220.408Z" fill="#0055DC"/>
<path d="M659.832 226.133H657.885V228.036H659.832V226.133Z" fill="#0055DC"/>
<path d="M662.499 223.117H660.551V225.019H662.499V223.117Z" fill="#0055DC"/>
<path d="M664.869 220.408H662.922V222.31H664.869V220.408Z" fill="#0055DC"/>
<path d="M664.869 226.133H662.922V228.036H664.869V226.133Z" fill="#0055DC"/>
<path d="M667.389 223.117H665.441V225.019H667.389V223.117Z" fill="#0055DC"/>
<path d="M670.369 220.408H668.422V222.31H670.369V220.408Z" fill="#0055DC"/>
<path d="M670.369 226.133H668.422V228.036H670.369V226.133Z" fill="#0055DC"/>
<path d="M672.888 223.117H670.941V225.019H672.888V223.117Z" fill="#0055DC"/>
<path d="M675.953 220.408H674.005V222.31H675.953V220.408Z" fill="#0055DC"/>
<path d="M675.953 226.133H674.005V228.036H675.953V226.133Z" fill="#0055DC"/>
<path d="M678.324 223.117H676.376V225.019H678.324V223.117Z" fill="#0055DC"/>
<path d="M680.99 220.408H679.042V222.31H680.99V220.408Z" fill="#0055DC"/>
<path d="M680.99 226.133H679.042V228.036H680.99V226.133Z" fill="#0055DC"/>
<path d="M683.214 223.117H681.266V225.019H683.214V223.117Z" fill="#0055DC"/>
<path d="M686.029 220.408H684.081V222.31H686.029V220.408Z" fill="#0055DC"/>
<path d="M686.029 226.133H684.081V228.036H686.029V226.133Z" fill="#0055DC"/>
<path d="M688.104 223.117H686.157V225.019H688.104V223.117Z" fill="#0055DC"/>
<path d="M727.306 226.592C728.641 226.592 729.724 225.535 729.724 224.231C729.724 222.927 728.641 221.869 727.306 221.869C725.971 221.869 724.888 222.927 724.888 224.231C724.888 225.535 725.971 226.592 727.306 226.592Z" fill="#0055DC"/>
<path d="M720.354 224.231H694.748" stroke="#0055DC" stroke-width="1.5" stroke-miterlimit="10"/>
<path d="M647.507 301.198H644V319.248H647.507V301.198Z" fill="#0055DC"/>
<path d="M739 301.198H735.493V319.248H739V301.198Z" fill="#0055DC"/>
<path d="M652.31 322.464L652.31 325.89L730.687 325.886L730.687 322.46L652.31 322.464Z" fill="white" stroke="#0055DC" stroke-width="1.5" stroke-miterlimit="10"/>
<path d="M735.492 298H647.507V322.462H735.492V298Z" fill="#C5EBF5" stroke="#0055DC" stroke-width="1.5" stroke-miterlimit="10"/>
<path d="M731.692 319.012V301.448H651.308V319.012H731.692Z" fill="#53BC00"/>
<path d="M657.832 306.408H655.885V308.31H657.832V306.408Z" fill="#0055DC"/>
<path d="M657.832 312.133H655.885V314.036H657.832V312.133Z" fill="#0055DC"/>
<path d="M660.499 309.117H658.551V311.019H660.499V309.117Z" fill="#0055DC"/>
<path d="M662.869 306.408H660.922V308.31H662.869V306.408Z" fill="#0055DC"/>
<path d="M662.869 312.133H660.922V314.036H662.869V312.133Z" fill="#0055DC"/>
<path d="M665.389 309.117H663.441V311.019H665.389V309.117Z" fill="#0055DC"/>
<path d="M668.369 306.408H666.422V308.31H668.369V306.408Z" fill="#0055DC"/>
<path d="M668.369 312.133H666.422V314.036H668.369V312.133Z" fill="#0055DC"/>
<path d="M670.888 309.117H668.941V311.019H670.888V309.117Z" fill="#0055DC"/>
<path d="M673.953 306.408H672.005V308.31H673.953V306.408Z" fill="#0055DC"/>
<path d="M673.953 312.133H672.005V314.036H673.953V312.133Z" fill="#0055DC"/>
<path d="M676.324 309.117H674.376V311.019H676.324V309.117Z" fill="#0055DC"/>
<path d="M678.99 306.408H677.042V308.31H678.99V306.408Z" fill="#0055DC"/>
<path d="M678.99 312.133H677.042V314.036H678.99V312.133Z" fill="#0055DC"/>
<path d="M681.214 309.117H679.266V311.019H681.214V309.117Z" fill="#0055DC"/>
<path d="M684.029 306.408H682.081V308.31H684.029V306.408Z" fill="#0055DC"/>
<path d="M684.029 312.133H682.081V314.036H684.029V312.133Z" fill="#0055DC"/>
<path d="M686.104 309.117H684.157V311.019H686.104V309.117Z" fill="#0055DC"/>
<path d="M725.306 312.592C726.641 312.592 727.724 311.535 727.724 310.231C727.724 308.927 726.641 307.869 725.306 307.869C723.971 307.869 722.888 308.927 722.888 310.231C722.888 311.535 723.971 312.592 725.306 312.592Z" fill="#0055DC"/>
<path d="M718.354 310.231H692.748" stroke="#0055DC" stroke-width="1.5" stroke-miterlimit="10"/>
<path d="M647.507 387.198H644V405.248H647.507V387.198Z" fill="#0055DC"/>
<path d="M739 387.198H735.493V405.248H739V387.198Z" fill="#0055DC"/>
<path d="M652.31 408.464L652.31 411.89L730.687 411.886L730.687 408.46L652.31 408.464Z" fill="white" stroke="#0055DC" stroke-width="1.5" stroke-miterlimit="10"/>
<path d="M735.492 384H647.507V408.462H735.492V384Z" fill="#C5EBF5" stroke="#0055DC" stroke-width="1.5" stroke-miterlimit="10"/>
<path d="M731.692 405.012V387.448H651.308V405.012H731.692Z" fill="#53BC00"/>
<path d="M657.832 392.408H655.885V394.31H657.832V392.408Z" fill="#0055DC"/>
<path d="M657.832 398.133H655.885V400.036H657.832V398.133Z" fill="#0055DC"/>
<path d="M660.499 395.117H658.551V397.019H660.499V395.117Z" fill="#0055DC"/>
<path d="M662.869 392.408H660.922V394.31H662.869V392.408Z" fill="#0055DC"/>
<path d="M662.869 398.133H660.922V400.036H662.869V398.133Z" fill="#0055DC"/>
<path d="M665.389 395.117H663.441V397.019H665.389V395.117Z" fill="#0055DC"/>
<path d="M668.369 392.408H666.422V394.31H668.369V392.408Z" fill="#0055DC"/>
<path d="M668.369 398.133H666.422V400.036H668.369V398.133Z" fill="#0055DC"/>
<path d="M670.888 395.117H668.941V397.019H670.888V395.117Z" fill="#0055DC"/>
<path d="M673.953 392.408H672.005V394.31H673.953V392.408Z" fill="#0055DC"/>
<path d="M673.953 398.133H672.005V400.036H673.953V398.133Z" fill="#0055DC"/>
<path d="M676.324 395.117H674.376V397.019H676.324V395.117Z" fill="#0055DC"/>
<path d="M678.99 392.408H677.042V394.31H678.99V392.408Z" fill="#0055DC"/>
<path d="M678.99 398.133H677.042V400.036H678.99V398.133Z" fill="#0055DC"/>
<path d="M681.214 395.117H679.266V397.019H681.214V395.117Z" fill="#0055DC"/>
<path d="M684.029 392.408H682.081V394.31H684.029V392.408Z" fill="#0055DC"/>
<path d="M684.029 398.133H682.081V400.036H684.029V398.133Z" fill="#0055DC"/>
<path d="M686.104 395.117H684.157V397.019H686.104V395.117Z" fill="#0055DC"/>
<path d="M725.306 398.592C726.641 398.592 727.724 397.535 727.724 396.231C727.724 394.927 726.641 393.869 725.306 393.869C723.971 393.869 722.888 394.927 722.888 396.231C722.888 397.535 723.971 398.592 725.306 398.592Z" fill="#0055DC"/>
<path d="M718.354 396.231H692.748" stroke="#0055DC" stroke-width="1.5" stroke-miterlimit="10"/>
<path d="M647.507 471.198H644V489.248H647.507V471.198Z" fill="#0055DC"/>
<path d="M739 471.198H735.493V489.248H739V471.198Z" fill="#0055DC"/>
<path d="M652.31 492.464L652.31 495.89L730.687 495.886L730.687 492.46L652.31 492.464Z" fill="white" stroke="#0055DC" stroke-width="1.5" stroke-miterlimit="10"/>
<path d="M735.492 468H647.507V492.462H735.492V468Z" fill="#C5EBF5" stroke="#0055DC" stroke-width="1.5" stroke-miterlimit="10"/>
<path d="M731.692 489.012V471.448H651.308V489.012H731.692Z" fill="#53BC00"/>
<path d="M657.832 476.408H655.885V478.31H657.832V476.408Z" fill="#0055DC"/>
<path d="M657.832 482.133H655.885V484.036H657.832V482.133Z" fill="#0055DC"/>
<path d="M660.499 479.117H658.551V481.019H660.499V479.117Z" fill="#0055DC"/>
<path d="M662.869 476.408H660.922V478.31H662.869V476.408Z" fill="#0055DC"/>
<path d="M662.869 482.133H660.922V484.036H662.869V482.133Z" fill="#0055DC"/>
<path d="M665.389 479.117H663.441V481.019H665.389V479.117Z" fill="#0055DC"/>
<path d="M668.369 476.408H666.422V478.31H668.369V476.408Z" fill="#0055DC"/>
<path d="M668.369 482.133H666.422V484.036H668.369V482.133Z" fill="#0055DC"/>
<path d="M670.888 479.117H668.941V481.019H670.888V479.117Z" fill="#0055DC"/>
<path d="M673.953 476.408H672.005V478.31H673.953V476.408Z" fill="#0055DC"/>
<path d="M673.953 482.133H672.005V484.036H673.953V482.133Z" fill="#0055DC"/>
<path d="M676.324 479.117H674.376V481.019H676.324V479.117Z" fill="#0055DC"/>
<path d="M678.99 476.408H677.042V478.31H678.99V476.408Z" fill="#0055DC"/>
<path d="M678.99 482.133H677.042V484.036H678.99V482.133Z" fill="#0055DC"/>
<path d="M681.214 479.117H679.266V481.019H681.214V479.117Z" fill="#0055DC"/>
<path d="M684.029 476.408H682.081V478.31H684.029V476.408Z" fill="#0055DC"/>
<path d="M684.029 482.133H682.081V484.036H684.029V482.133Z" fill="#0055DC"/>
<path d="M686.104 479.117H684.157V481.019H686.104V479.117Z" fill="#0055DC"/>
<path d="M725.306 482.592C726.641 482.592 727.724 481.535 727.724 480.231C727.724 478.927 726.641 477.869 725.306 477.869C723.971 477.869 722.888 478.927 722.888 480.231C722.888 481.535 723.971 482.592 725.306 482.592Z" fill="#0055DC"/>
<path d="M718.354 480.231H692.748" stroke="#0055DC" stroke-width="1.5" stroke-miterlimit="10"/>
<rect x="323" y="296" width="138" height="34" fill="white" stroke="#F6821F" stroke-width="2"/>
<path d="M338.965 318V306.364H341.425V315.972H346.414V318H338.965ZM351.765 318.17C350.882 318.17 350.119 317.983 349.475 317.608C348.835 317.229 348.341 316.703 347.992 316.028C347.644 315.35 347.469 314.564 347.469 313.67C347.469 312.769 347.644 311.981 347.992 311.307C348.341 310.629 348.835 310.102 349.475 309.727C350.119 309.348 350.882 309.159 351.765 309.159C352.648 309.159 353.409 309.348 354.049 309.727C354.693 310.102 355.189 310.629 355.538 311.307C355.886 311.981 356.06 312.769 356.06 313.67C356.06 314.564 355.886 315.35 355.538 316.028C355.189 316.703 354.693 317.229 354.049 317.608C353.409 317.983 352.648 318.17 351.765 318.17ZM351.776 316.295C352.178 316.295 352.513 316.182 352.782 315.955C353.051 315.723 353.254 315.409 353.39 315.011C353.53 314.614 353.6 314.161 353.6 313.653C353.6 313.146 353.53 312.693 353.39 312.295C353.254 311.898 353.051 311.583 352.782 311.352C352.513 311.121 352.178 311.006 351.776 311.006C351.371 311.006 351.03 311.121 350.754 311.352C350.481 311.583 350.274 311.898 350.134 312.295C349.998 312.693 349.93 313.146 349.93 313.653C349.93 314.161 349.998 314.614 350.134 315.011C350.274 315.409 350.481 315.723 350.754 315.955C351.03 316.182 351.371 316.295 351.776 316.295ZM359.947 318.165C359.39 318.165 358.894 318.068 358.458 317.875C358.023 317.678 357.678 317.388 357.424 317.006C357.174 316.619 357.049 316.138 357.049 315.562C357.049 315.078 357.138 314.67 357.316 314.341C357.494 314.011 357.737 313.746 358.043 313.545C358.35 313.345 358.699 313.193 359.089 313.091C359.483 312.989 359.896 312.917 360.328 312.875C360.835 312.822 361.244 312.773 361.555 312.727C361.865 312.678 362.091 312.606 362.231 312.511C362.371 312.417 362.441 312.277 362.441 312.091V312.057C362.441 311.697 362.328 311.419 362.1 311.222C361.877 311.025 361.559 310.926 361.146 310.926C360.71 310.926 360.364 311.023 360.106 311.216C359.848 311.405 359.678 311.644 359.595 311.932L357.356 311.75C357.47 311.22 357.693 310.761 358.026 310.375C358.36 309.985 358.79 309.686 359.316 309.477C359.847 309.265 360.46 309.159 361.157 309.159C361.642 309.159 362.106 309.216 362.549 309.33C362.996 309.443 363.392 309.619 363.737 309.858C364.085 310.097 364.36 310.403 364.561 310.778C364.761 311.15 364.862 311.595 364.862 312.114V318H362.566V316.79H362.498C362.358 317.062 362.17 317.303 361.936 317.511C361.701 317.716 361.418 317.877 361.089 317.994C360.759 318.108 360.379 318.165 359.947 318.165ZM360.64 316.494C360.996 316.494 361.311 316.424 361.583 316.284C361.856 316.14 362.07 315.947 362.225 315.705C362.381 315.462 362.458 315.187 362.458 314.881V313.955C362.383 314.004 362.278 314.049 362.146 314.091C362.017 314.129 361.871 314.165 361.708 314.199C361.545 314.229 361.383 314.258 361.22 314.284C361.057 314.307 360.909 314.328 360.776 314.347C360.492 314.388 360.244 314.455 360.032 314.545C359.82 314.636 359.655 314.759 359.538 314.915C359.42 315.066 359.362 315.256 359.362 315.483C359.362 315.812 359.481 316.064 359.72 316.239C359.962 316.409 360.269 316.494 360.64 316.494ZM369.779 318.142C369.117 318.142 368.516 317.972 367.978 317.631C367.444 317.286 367.02 316.78 366.706 316.114C366.395 315.443 366.24 314.621 366.24 313.648C366.24 312.648 366.401 311.816 366.723 311.153C367.045 310.487 367.473 309.989 368.007 309.659C368.545 309.326 369.134 309.159 369.774 309.159C370.262 309.159 370.67 309.242 370.995 309.409C371.325 309.572 371.59 309.777 371.791 310.023C371.995 310.265 372.151 310.504 372.257 310.739H372.331V306.364H374.745V318H372.359V316.602H372.257C372.143 316.845 371.982 317.085 371.774 317.324C371.569 317.559 371.302 317.754 370.973 317.909C370.647 318.064 370.249 318.142 369.779 318.142ZM370.546 316.216C370.937 316.216 371.266 316.11 371.535 315.898C371.808 315.682 372.016 315.381 372.16 314.994C372.308 314.608 372.382 314.155 372.382 313.636C372.382 313.117 372.31 312.667 372.166 312.284C372.022 311.902 371.814 311.606 371.541 311.398C371.268 311.189 370.937 311.085 370.546 311.085C370.149 311.085 369.814 311.193 369.541 311.409C369.268 311.625 369.062 311.924 368.921 312.307C368.781 312.689 368.711 313.133 368.711 313.636C368.711 314.144 368.781 314.593 368.921 314.983C369.065 315.369 369.272 315.672 369.541 315.892C369.814 316.108 370.149 316.216 370.546 316.216ZM380.132 318V306.364H384.791C385.647 306.364 386.361 306.491 386.933 306.744C387.505 306.998 387.935 307.35 388.223 307.801C388.511 308.248 388.655 308.763 388.655 309.347C388.655 309.801 388.564 310.201 388.382 310.545C388.2 310.886 387.95 311.167 387.632 311.386C387.318 311.602 386.958 311.756 386.552 311.847V311.96C386.996 311.979 387.41 312.104 387.797 312.335C388.187 312.566 388.503 312.89 388.746 313.307C388.988 313.72 389.109 314.212 389.109 314.784C389.109 315.402 388.956 315.953 388.649 316.438C388.346 316.919 387.897 317.299 387.302 317.58C386.708 317.86 385.975 318 385.104 318H380.132ZM382.592 315.989H384.598C385.283 315.989 385.783 315.858 386.098 315.597C386.412 315.331 386.569 314.979 386.569 314.54C386.569 314.218 386.492 313.934 386.337 313.688C386.181 313.441 385.96 313.248 385.672 313.108C385.388 312.968 385.049 312.898 384.655 312.898H382.592V315.989ZM382.592 311.233H384.416C384.753 311.233 385.052 311.174 385.314 311.057C385.579 310.936 385.787 310.765 385.939 310.545C386.094 310.326 386.172 310.062 386.172 309.756C386.172 309.335 386.022 308.996 385.723 308.739C385.427 308.481 385.007 308.352 384.462 308.352H382.592V311.233ZM392.977 318.165C392.42 318.165 391.924 318.068 391.489 317.875C391.053 317.678 390.708 317.388 390.455 317.006C390.205 316.619 390.08 316.138 390.08 315.562C390.08 315.078 390.169 314.67 390.347 314.341C390.525 314.011 390.767 313.746 391.074 313.545C391.381 313.345 391.729 313.193 392.119 313.091C392.513 312.989 392.926 312.917 393.358 312.875C393.866 312.822 394.275 312.773 394.585 312.727C394.896 312.678 395.121 312.606 395.261 312.511C395.402 312.417 395.472 312.277 395.472 312.091V312.057C395.472 311.697 395.358 311.419 395.131 311.222C394.907 311.025 394.589 310.926 394.176 310.926C393.741 310.926 393.394 311.023 393.136 311.216C392.879 311.405 392.708 311.644 392.625 311.932L390.386 311.75C390.5 311.22 390.723 310.761 391.057 310.375C391.39 309.985 391.82 309.686 392.347 309.477C392.877 309.265 393.491 309.159 394.188 309.159C394.672 309.159 395.136 309.216 395.58 309.33C396.027 309.443 396.422 309.619 396.767 309.858C397.116 310.097 397.39 310.403 397.591 310.778C397.792 311.15 397.892 311.595 397.892 312.114V318H395.597V316.79H395.528C395.388 317.062 395.201 317.303 394.966 317.511C394.731 317.716 394.449 317.877 394.119 317.994C393.79 318.108 393.409 318.165 392.977 318.165ZM393.67 316.494C394.027 316.494 394.341 316.424 394.614 316.284C394.886 316.14 395.1 315.947 395.256 315.705C395.411 315.462 395.489 315.187 395.489 314.881V313.955C395.413 314.004 395.309 314.049 395.176 314.091C395.047 314.129 394.902 314.165 394.739 314.199C394.576 314.229 394.413 314.258 394.25 314.284C394.087 314.307 393.939 314.328 393.807 314.347C393.523 314.388 393.275 314.455 393.063 314.545C392.85 314.636 392.686 314.759 392.568 314.915C392.451 315.066 392.392 315.256 392.392 315.483C392.392 315.812 392.511 316.064 392.75 316.239C392.992 316.409 393.299 316.494 393.67 316.494ZM402.014 306.364V318H399.594V306.364H402.014ZM406.266 318.165C405.709 318.165 405.213 318.068 404.777 317.875C404.342 317.678 403.997 317.388 403.743 317.006C403.493 316.619 403.368 316.138 403.368 315.562C403.368 315.078 403.457 314.67 403.635 314.341C403.813 314.011 404.056 313.746 404.362 313.545C404.669 313.345 405.018 313.193 405.408 313.091C405.802 312.989 406.215 312.917 406.647 312.875C407.154 312.822 407.563 312.773 407.874 312.727C408.184 312.678 408.41 312.606 408.55 312.511C408.69 312.417 408.76 312.277 408.76 312.091V312.057C408.76 311.697 408.647 311.419 408.419 311.222C408.196 311.025 407.878 310.926 407.465 310.926C407.029 310.926 406.683 311.023 406.425 311.216C406.167 311.405 405.997 311.644 405.914 311.932L403.675 311.75C403.789 311.22 404.012 310.761 404.345 310.375C404.679 309.985 405.109 309.686 405.635 309.477C406.166 309.265 406.779 309.159 407.476 309.159C407.961 309.159 408.425 309.216 408.868 309.33C409.315 309.443 409.711 309.619 410.056 309.858C410.404 310.097 410.679 310.403 410.88 310.778C411.08 311.15 411.181 311.595 411.181 312.114V318H408.885V316.79H408.817C408.677 317.062 408.489 317.303 408.255 317.511C408.02 317.716 407.737 317.877 407.408 317.994C407.078 318.108 406.698 318.165 406.266 318.165ZM406.959 316.494C407.315 316.494 407.63 316.424 407.902 316.284C408.175 316.14 408.389 315.947 408.544 315.705C408.7 315.462 408.777 315.187 408.777 314.881V313.955C408.702 314.004 408.597 314.049 408.465 314.091C408.336 314.129 408.19 314.165 408.027 314.199C407.864 314.229 407.702 314.258 407.539 314.284C407.376 314.307 407.228 314.328 407.095 314.347C406.811 314.388 406.563 314.455 406.351 314.545C406.139 314.636 405.974 314.759 405.857 314.915C405.739 315.066 405.681 315.256 405.681 315.483C405.681 315.812 405.8 316.064 406.039 316.239C406.281 316.409 406.588 316.494 406.959 316.494ZM415.303 312.955V318H412.883V309.273H415.189V310.812H415.292C415.485 310.305 415.809 309.903 416.263 309.608C416.718 309.309 417.269 309.159 417.917 309.159C418.523 309.159 419.051 309.292 419.502 309.557C419.953 309.822 420.303 310.201 420.553 310.693C420.803 311.182 420.928 311.765 420.928 312.443V318H418.508V312.875C418.511 312.341 418.375 311.924 418.098 311.625C417.822 311.322 417.441 311.17 416.956 311.17C416.631 311.17 416.343 311.241 416.093 311.381C415.847 311.521 415.653 311.725 415.513 311.994C415.377 312.259 415.307 312.58 415.303 312.955ZM426.603 318.17C425.709 318.17 424.94 317.981 424.296 317.602C423.656 317.22 423.163 316.689 422.819 316.011C422.478 315.333 422.307 314.553 422.307 313.67C422.307 312.777 422.48 311.992 422.824 311.318C423.173 310.64 423.667 310.112 424.307 309.733C424.948 309.35 425.709 309.159 426.591 309.159C427.353 309.159 428.019 309.297 428.591 309.574C429.163 309.85 429.616 310.239 429.949 310.739C430.283 311.239 430.466 311.826 430.501 312.5H428.216C428.152 312.064 427.982 311.714 427.705 311.449C427.432 311.18 427.074 311.045 426.631 311.045C426.256 311.045 425.929 311.148 425.648 311.352C425.372 311.553 425.156 311.847 425.001 312.233C424.845 312.619 424.768 313.087 424.768 313.636C424.768 314.193 424.843 314.667 424.995 315.057C425.15 315.447 425.368 315.744 425.648 315.949C425.929 316.153 426.256 316.256 426.631 316.256C426.908 316.256 427.156 316.199 427.376 316.085C427.599 315.972 427.783 315.807 427.927 315.591C428.074 315.371 428.171 315.108 428.216 314.801H430.501C430.463 315.468 430.281 316.055 429.955 316.562C429.633 317.066 429.188 317.46 428.62 317.744C428.052 318.028 427.379 318.17 426.603 318.17ZM435.852 318.17C434.954 318.17 434.181 317.989 433.533 317.625C432.889 317.258 432.393 316.739 432.045 316.068C431.696 315.394 431.522 314.597 431.522 313.676C431.522 312.778 431.696 311.991 432.045 311.312C432.393 310.634 432.884 310.106 433.516 309.727C434.153 309.348 434.899 309.159 435.755 309.159C436.331 309.159 436.867 309.252 437.363 309.438C437.863 309.619 438.299 309.894 438.67 310.261C439.045 310.629 439.336 311.091 439.545 311.648C439.753 312.201 439.857 312.848 439.857 313.591V314.256H432.488V312.756H437.579C437.579 312.407 437.503 312.098 437.352 311.83C437.2 311.561 436.99 311.35 436.721 311.199C436.456 311.044 436.147 310.966 435.795 310.966C435.427 310.966 435.102 311.051 434.817 311.222C434.537 311.388 434.317 311.614 434.158 311.898C433.999 312.178 433.918 312.491 433.914 312.835V314.261C433.914 314.693 433.994 315.066 434.153 315.381C434.316 315.695 434.545 315.938 434.84 316.108C435.136 316.278 435.486 316.364 435.891 316.364C436.16 316.364 436.406 316.326 436.63 316.25C436.853 316.174 437.045 316.061 437.204 315.909C437.363 315.758 437.484 315.572 437.567 315.352L439.806 315.5C439.692 316.038 439.459 316.508 439.107 316.909C438.759 317.307 438.308 317.617 437.755 317.841C437.206 318.061 436.571 318.17 435.852 318.17ZM441.261 318V309.273H443.607V310.795H443.698C443.857 310.254 444.124 309.845 444.499 309.568C444.874 309.288 445.306 309.148 445.795 309.148C445.916 309.148 446.047 309.155 446.187 309.17C446.327 309.186 446.45 309.206 446.556 309.233V311.381C446.443 311.347 446.285 311.316 446.085 311.29C445.884 311.263 445.7 311.25 445.533 311.25C445.177 311.25 444.859 311.328 444.579 311.483C444.302 311.634 444.083 311.847 443.92 312.119C443.761 312.392 443.681 312.706 443.681 313.062V318H441.261Z" fill="#222222"/>
<path d="M458.414 311.603C457.919 310.939 456.979 310.802 456.315 311.297C455.65 311.793 455.513 312.732 456.009 313.397L458.414 311.603ZM456.009 313.397L644.526 566.24L646.931 564.447L458.414 311.603L456.009 313.397Z" fill="#5E5E5E"/>
<path d="M125.606 50.3843C125.099 49.7287 124.157 49.6078 123.502 50.1142C122.846 50.6207 122.725 51.5627 123.232 52.2183L125.606 50.3843ZM123.232 52.2183L325.01 313.417L327.384 311.583L125.606 50.3843L123.232 52.2183Z" fill="#5E5E5E"/>
<path d="M120.336 571.195C119.822 571.845 119.931 572.788 120.581 573.302C121.23 573.816 122.174 573.707 122.688 573.057L120.336 571.195ZM122.688 573.057L328.224 313.431L325.872 311.569L120.336 571.195L122.688 573.057Z" fill="#5E5E5E"/>
<path d="M124.407 484.268C123.78 484.81 123.711 485.757 124.253 486.384C124.795 487.01 125.742 487.079 126.369 486.537L124.407 484.268ZM126.369 486.537L326.328 313.635L324.365 311.365L124.407 484.268L126.369 486.537Z" fill="#5E5E5E"/>
<path d="M458.484 311C457.656 311.009 456.991 311.688 457 312.516C457.009 313.344 457.688 314.009 458.516 314L458.484 311ZM458.516 314L645.744 312.002L645.712 309.003L458.484 311L458.516 314Z" fill="#5E5E5E"/>
<path d="M125.41 308.034C124.582 308.021 123.9 308.683 123.888 309.511C123.876 310.34 124.537 311.021 125.366 311.033L125.41 308.034ZM125.366 311.033L325.75 314L325.794 311L125.41 308.034L125.366 311.033Z" fill="#5E5E5E"/>
<path d="M124.053 222.89C123.294 222.557 122.409 222.902 122.076 223.661C121.743 224.419 122.088 225.304 122.847 225.637L124.053 222.89ZM122.847 225.637L323.893 313.874L325.098 311.126L124.053 222.89L122.847 225.637Z" fill="#5E5E5E"/>
<path d="M127.832 136.898C127.209 136.351 126.262 136.412 125.715 137.034C125.168 137.657 125.229 138.604 125.851 139.151L127.832 136.898ZM125.851 139.151L324.356 313.627L326.337 311.373L127.832 136.898L125.851 139.151Z" fill="#5E5E5E"/>
<path d="M459.489 311.384C458.872 310.83 457.924 310.882 457.371 311.498C456.818 312.115 456.869 313.063 457.486 313.616L459.489 311.384ZM457.486 313.616L644.242 481.19L646.245 478.957L459.489 311.384L457.486 313.616Z" fill="#5E5E5E"/>
<path d="M123.839 395.358C123.075 395.678 122.715 396.557 123.036 397.321C123.356 398.085 124.235 398.445 124.999 398.125L123.839 395.358ZM124.999 398.125L325.926 313.883L324.766 311.117L123.839 395.358L124.999 398.125Z" fill="#5E5E5E"/>
<path d="M457.849 311.143C457.099 311.495 456.777 312.389 457.13 313.138C457.482 313.888 458.376 314.21 459.126 313.857L457.849 311.143ZM459.126 313.857L647.82 225.136L646.543 222.422L457.849 311.143L459.126 313.857Z" fill="#5E5E5E"/>
<path d="M456.417 311.627C455.935 312.301 456.09 313.238 456.764 313.72C457.437 314.202 458.374 314.047 458.856 313.373L456.417 311.627ZM458.856 313.373L646.463 51.2052L644.024 49.4594L456.417 311.627L458.856 313.373Z" fill="#5E5E5E"/>
<path d="M457.457 311.41C456.855 311.978 456.828 312.928 457.397 313.53C457.966 314.132 458.915 314.159 459.517 313.59L457.457 311.41ZM459.517 313.59L646.274 137.177L644.214 134.996L457.457 311.41L459.517 313.59Z" fill="#5E5E5E"/>
<path d="M459.957 311.134C459.203 310.792 458.314 311.126 457.972 311.881C457.63 312.635 457.964 313.524 458.719 313.866L459.957 311.134ZM458.719 313.866L645.593 398.592L646.832 395.86L459.957 311.134L458.719 313.866Z" fill="#5E5E5E"/>
<defs>
<linearGradient id="paint0_linear_269_395" x1="825" y1="38" x2="825" y2="583" gradientUnits="userSpaceOnUse">
<stop stop-color="#DC0000"/>
<stop offset="0.497966" stop-color="#DCDC00"/>
<stop offset="1" stop-color="#00A800"/>
</linearGradient>
</defs>
</svg>
