<svg width="18" height="15" viewBox="0 0 16 13" fill="none" xmlns="http://www.w3.org/2000/svg">
<path fill-rule="evenodd" clip-rule="evenodd" d="M6.125 0.75C4.53718 0.75 3.25 2.03718 3.25 3.625C3.25 5.21282 4.53718 6.5 6.125 6.5C7.71282 6.5 9 5.21282 9 3.625C9 2.03718 7.71282 0.75 6.125 0.75ZM4.25 3.625C4.25 2.58947 5.08947 1.75 6.125 1.75C7.16053 1.75 8 2.58947 8 3.625C8 4.66053 7.16053 5.5 6.125 5.5C5.08947 5.5 4.25 4.66053 4.25 3.625Z" fill="black"/>
<path fill-rule="evenodd" clip-rule="evenodd" d="M4.97577 7C4.35449 6.99994 3.73942 7.12351 3.1657 7.36353C2.59198 7.60355 2.071 7.95524 1.6324 8.39828C1.1938 8.84131 0.846155 9.367 0.609059 9.94521C0.477933 10.265 0.390978 10.7053 0.335809 11.1087C0.279395 11.5213 0.25 11.9435 0.25 12.25L0.75 12.75H15L15.5 12.25C15.5 11.7663 15.4064 11.1774 15.2346 10.628C15.0655 10.0873 14.8018 9.52404 14.422 9.1403C13.7309 8.44223 12.7926 8.04913 11.8132 8.04913H10.2039C10.1587 8.04912 10.1135 8.04995 10.0685 8.05162C9.23373 7.37382 8.19243 7 7.10959 7H4.97577ZM4.97571 8C4.48717 7.99995 4.00329 8.09711 3.55164 8.28605C3.09998 8.47501 2.68926 8.75212 2.34305 9.10182C1.99684 9.45154 1.72194 9.867 1.53429 10.3246C1.45305 10.5227 1.37917 10.8597 1.32659 11.2442C1.30302 11.4166 1.28494 11.5891 1.27229 11.75H9.5625V10.744H4.2665L3.75 9.875H9.5625V8.93349C8.88479 8.33236 8.01535 8 7.10959 8H4.97571ZM10.4375 10.744H12.7203L12.2038 9.875H10.4375V9.04913H11.8132C12.5241 9.04913 13.207 9.33438 13.7113 9.84381C13.929 10.0638 14.132 10.4526 14.2802 10.9265C14.3666 11.2027 14.4279 11.4871 14.4634 11.75H10.4375V10.744Z" fill="black"/>
<path fill-rule="evenodd" clip-rule="evenodd" d="M9.75 5.375C9.75 4.2014 10.7014 3.25 11.875 3.25C13.0486 3.25 14 4.2014 14 5.375C14 6.5486 13.0486 7.5 11.875 7.5C10.7014 7.5 9.75 6.5486 9.75 5.375ZM11.875 4.25C11.2537 4.25 10.75 4.75368 10.75 5.375C10.75 5.99632 11.2537 6.5 11.875 6.5C12.4963 6.5 13 5.99632 13 5.375C13 4.75368 12.4963 4.25 11.875 4.25Z" fill="black"/>
</svg>
