<svg width="519" height="307" viewBox="0 0 519 307" fill="none" xmlns="http://www.w3.org/2000/svg">
<g clip-path="url(#clip0_1_7605)">
<path d="M264.599 1.73182L396.052 77.5863V229.294L264.599 305.148L133.145 229.294V77.5864L264.599 1.73182Z" stroke="#E0EDFF" stroke-width="3"/>
<mask id="mask0_1_7605" style="mask-type:alpha" maskUnits="userSpaceOnUse" x="47" y="28" width="434" height="248">
<path d="M263.367 275.399L47.795 150.819L264.668 29.0547L479.845 150.819L263.367 275.399Z" fill="white" stroke="#0055DC" stroke-linejoin="round" stroke-dasharray="6 4"/>
</mask>
<g mask="url(#mask0_1_7605)">
<path d="M266.396 174.668L268.769 326.924L267.636 326.942L265.263 174.687L266.396 174.668ZM249.609 326.101L250.737 326.203L264.304 174.555L263.176 174.453L249.609 326.101ZM261.125 174.002L231.767 323.381L232.877 323.6L262.235 174.221L261.125 174.002ZM259.131 173.34L214.305 318.814L215.387 319.148L260.213 173.674L259.131 173.34ZM257.218 172.474L197.413 312.448L198.455 312.893L258.26 172.919L257.218 172.474ZM255.404 171.414L181.279 304.354L182.268 304.904L256.394 171.963L255.404 171.414ZM253.713 170.168L166.076 294.619L167.002 295.271L254.639 170.82L253.713 170.168ZM252.161 168.753L151.972 283.35L152.824 284.095L253.012 169.498L252.161 168.753ZM250.762 167.185L139.122 270.674L139.892 271.505L251.532 168.015L250.762 167.185ZM249.537 165.479L127.668 256.724L128.348 257.631L250.217 166.386L249.537 165.479ZM248.497 163.653L117.735 241.658L118.315 242.631L249.079 164.628L248.497 163.653ZM247.654 161.731L109.429 225.638L109.905 226.666L248.129 162.76L247.654 161.731ZM247.017 159.73L102.844 208.841L103.209 209.913L247.381 160.803L247.017 159.73ZM246.591 157.678L98.0516 191.45L98.3042 192.554L246.844 158.781L246.591 157.678ZM246.381 155.589L95.1018 173.658L95.2366 174.782L246.516 156.712L246.381 155.589ZM246.394 153.49L94.0313 155.655L94.0472 156.788L246.41 154.623L246.394 153.49ZM246.624 151.405L94.8492 137.644L94.7472 138.772L246.522 152.532L246.624 151.405ZM247.072 149.357L97.5464 119.819L97.3277 120.929L246.854 150.467L247.072 149.357ZM247.732 147.364L102.093 102.374L101.759 103.456L247.396 148.446L247.732 147.364ZM248.595 145.454L108.441 85.5043L107.996 86.5466L248.151 146.496L248.595 145.454ZM249.654 143.643L116.519 69.3903L115.969 70.3793L249.103 144.632L249.654 143.643ZM250.907 141.46L144.496 66.5366L143.843 67.4633L250.256 142.387L250.907 141.46ZM252.318 139.912L146.575 47.5065L145.829 48.3607L251.574 140.766L252.318 139.912ZM253.056 139.289L253.885 138.518L185.187 64.4634L184.358 65.2337L253.056 139.289ZM255.59 137.296L165.605 17.2382L164.698 17.918L254.684 137.977L255.59 137.296ZM257.411 136.258L192.757 28.0255L191.784 28.6078L256.437 136.84L257.411 136.258ZM259.331 135.418L212.305 33.8893L211.276 34.3651L258.303 135.893L259.331 135.418ZM260.256 135.148L261.329 134.783L230.783 44.6081L229.71 44.9729L260.256 135.148ZM263.382 134.358L227.008 -25.0431L225.904 -24.7904L262.278 134.611L263.382 134.358ZM249.415 0.609858L248.291 0.744671L264.344 134.288L265.468 134.153L249.415 0.609858ZM267.565 134.166L265.374 23.0561L264.241 23.0742L266.432 134.184L267.565 134.166ZM283.185 165.705L416.321 239.957L416.871 238.968L283.735 164.716L283.185 165.705ZM281.942 167.394L406.6 255.137L407.253 254.21L282.594 166.468L281.942 167.394ZM280.528 168.945L395.344 269.215L396.089 268.361L281.274 168.091L280.528 168.945ZM278.961 170.336L382.676 282.037L383.505 281.267L279.79 169.566L278.961 170.336ZM277.254 171.56L368.731 293.464L369.638 292.785L278.162 170.88L277.254 171.56ZM275.432 172.598L353.667 303.37L354.638 302.788L276.403 172.015L275.432 172.598ZM273.508 173.438L337.647 311.65L338.673 311.172L274.535 172.96L273.508 173.438ZM271.509 174.073L320.848 318.207L321.918 317.84L272.579 173.705L271.509 174.073ZM269.452 174.495L303.45 322.972L304.555 322.72L270.556 174.242L269.452 174.495ZM267.363 174.7L285.65 325.895L286.773 325.76L268.487 174.565L267.363 174.7ZM281.047 7.79571L279.919 7.69375L268.521 134.296L269.649 134.398L281.047 7.79571ZM271.696 134.846L304.14 -29.8487L303.029 -30.0674L270.585 134.627L271.696 134.846ZM272.604 135.172L273.686 135.506L304.702 34.9621L303.62 34.6279L272.604 135.172ZM275.597 136.37L327.711 14.4468L326.669 14.0016L274.555 135.925L275.597 136.37ZM277.405 137.43L351.502 4.54435L350.513 3.99377L276.416 136.879L277.405 137.43ZM278.552 138.122L279.478 138.774L332.093 64.2792L331.166 63.6266L278.552 138.122ZM342.17 70.2331L341.318 69.4877L280.176 139.44L281.028 140.186L342.17 70.2331ZM342.006 86.5013L341.236 85.672L281.65 140.923L282.42 141.753L342.006 86.5013ZM283.645 143.457L368.818 79.6598L368.138 78.7524L282.965 142.549L283.645 143.457ZM284.682 145.279L415.266 67.3409L414.686 66.3678L284.102 144.306L284.682 145.279ZM285.525 147.2L423.556 83.3394L423.08 82.3108L285.049 146.171L285.525 147.2ZM286.161 149.196L430.126 100.114L429.761 99.0411L285.796 148.123L286.161 149.196ZM286.585 151.248L434.909 117.481L434.656 116.376L286.334 150.144L286.585 151.248ZM286.793 153.335L437.848 135.252L437.713 134.128L286.658 152.211L286.793 153.335ZM286.78 155.429L438.913 153.232L438.897 152.099L286.764 154.296L286.78 155.429ZM286.55 157.512L438.093 171.223L438.195 170.095L286.652 156.384L286.55 157.512ZM286.103 159.559L435.397 189.027L435.615 187.916L286.321 158.449L286.103 159.559ZM285.443 161.549L430.852 206.45L431.186 205.368L285.778 160.467L285.443 161.549ZM284.581 163.457L424.509 223.301L424.955 222.258L285.027 162.415L284.581 163.457Z" fill="#FBAD41"/>
</g>
<path d="M259.739 153.25C259.739 153.25 202.789 263.749 121.983 263.749C64.7744 263.749 11 214.277 11 153.25C11 92.2232 64.7744 42.751 121.983 42.751C214.892 42.751 259.739 153.25 259.739 153.25Z" stroke="white" stroke-width="21"/>
<path d="M259.74 153.248C259.74 153.248 316.69 42.748 397.496 42.748C454.705 42.748 508.479 92.2202 508.479 153.248C508.479 214.275 454.705 263.747 397.496 263.747C304.587 263.747 259.74 153.248 259.74 153.248Z" stroke="white" stroke-width="21"/>
<path d="M259.739 153.25C259.739 153.25 202.789 263.749 121.983 263.749C64.7744 263.749 11 214.277 11 153.25C11 92.2232 64.7744 42.751 121.983 42.751C214.892 42.751 259.739 153.25 259.739 153.25Z" stroke="white" stroke-width="8"/>
<path d="M259.74 153.248C259.74 153.248 316.69 42.748 397.496 42.748C454.705 42.748 508.479 92.2202 508.479 153.248C508.479 214.275 454.705 263.747 397.496 263.747C304.587 263.747 259.74 153.248 259.74 153.248Z" stroke="#F6821F" stroke-width="8"/>
<path d="M259.74 153.248C259.74 153.248 316.69 42.748 397.496 42.748C454.705 42.748 508.479 92.2202 508.479 153.248C508.479 214.275 454.705 263.747 397.496 263.747C304.587 263.747 259.74 153.248 259.74 153.248Z" stroke="white" stroke-width="8"/>
<path d="M259.739 153.351C259.739 153.351 202.789 263.85 121.983 263.85C64.7742 263.85 10.9998 214.378 10.9998 153.351C10.9998 92.3238 64.7742 42.8516 121.983 42.8516C214.892 42.8516 259.739 153.351 259.739 153.351Z" stroke="url(#paint0_linear_1_7605)" stroke-width="5"/>
<path d="M259.738 153.351C259.738 153.351 224.443 221.833 170 250.973" stroke="url(#paint1_linear_1_7605)" stroke-width="5"/>
<path d="M259.74 153.349C259.74 153.349 316.69 42.8496 397.496 42.8496C454.705 42.8496 508.479 92.3218 508.479 153.349C508.479 214.376 454.705 263.848 397.496 263.848C304.587 263.848 259.74 153.349 259.74 153.349Z" stroke="#F6821F" stroke-width="5" stroke-dasharray="10 10"/>
<path d="M259.74 153.349C259.74 153.349 316.69 42.8496 397.496 42.8496C454.705 42.8496 508.479 92.3218 508.479 153.349C508.479 214.376 454.705 263.848 397.496 263.848C304.587 263.848 259.74 153.349 259.74 153.349Z" stroke="url(#paint2_linear_1_7605)" stroke-width="5" stroke-dasharray="10 10"/>
<path d="M259.74 153.349C259.74 153.349 316.69 42.8496 397.496 42.8496" stroke="url(#paint3_linear_1_7605)" stroke-width="5" stroke-dasharray="10 10"/>
<path d="M259.739 153.246C259.739 153.246 214.892 42.7471 121.984 42.7471C64.7744 42.7471 11 92.2194 11 153.246" stroke="white" stroke-width="9"/>
<path d="M259.74 153.248C259.74 153.248 304.586 263.747 397.495 263.747" stroke="white" stroke-width="9"/>
<path d="M259.739 153.246C259.739 153.246 214.892 42.7471 121.984 42.7471C64.7744 42.7471 11 92.2194 11 153.246" stroke="url(#paint4_linear_1_7605)" stroke-width="5"/>
<path d="M259.74 153.248C259.74 153.248 304.586 263.747 397.495 263.747" stroke="#FBAB3F" stroke-width="5"/>
<path d="M262.536 215.53C296.835 215.53 324.639 187.725 324.639 153.426C324.639 119.127 296.835 91.3223 262.536 91.3223C228.236 91.3223 200.432 119.127 200.432 153.426C200.432 187.725 228.236 215.53 262.536 215.53Z" fill="white"/>
<path fill-rule="evenodd" clip-rule="evenodd" d="M362.32 82.5684H163.331C160.688 82.5768 158.155 83.6244 156.278 85.4849C154.402 87.3454 153.332 89.8694 153.301 92.5118V223.397H372.348V92.5143C372.32 89.8709 371.252 87.3449 369.375 85.4834C367.499 83.6218 364.964 82.5746 362.32 82.5684Z" fill="url(#paint5_linear_1_7605)"/>
<path d="M363.081 98.2158H162.057V215.366H363.081V98.2158Z" fill="white"/>
<path fill-rule="evenodd" clip-rule="evenodd" d="M380.998 233.493H144.484C132.189 233.493 123.91 231.608 123.91 229.814V224.36C123.942 224.072 124.086 223.809 124.311 223.627C124.536 223.445 124.823 223.358 125.111 223.386H400.37C400.658 223.358 400.945 223.445 401.17 223.627C401.395 223.809 401.54 224.072 401.573 224.36V230.028C401.573 231.449 395.157 233.493 380.998 233.493Z" fill="url(#paint6_linear_1_7605)"/>
<path fill-rule="evenodd" clip-rule="evenodd" d="M401.572 230.028C401.572 231.446 395.156 233.492 380.997 233.492H144.483C132.188 233.492 123.908 231.607 123.908 229.813L401.572 230.028Z" fill="#A8CBFF"/>
<path fill-rule="evenodd" clip-rule="evenodd" d="M292.901 223.788V225.027C292.901 225.91 291.162 226.176 289.847 226.176H235.858C234.474 226.176 232.723 225.91 232.723 225.027V223.788" fill="#F6821F"/>
<path d="M380.996 234.129H144.485C133.95 234.129 123.285 232.651 123.285 229.825V224.371C123.318 223.917 123.528 223.495 123.87 223.196C124.212 222.896 124.659 222.744 125.113 222.772H400.37C400.824 222.744 401.27 222.896 401.613 223.195C401.955 223.495 402.165 223.917 402.198 224.371V230.039C402.193 232.486 393.672 234.129 380.996 234.129ZM125.111 224.022C124.781 224.022 124.535 224.206 124.535 224.371V229.823C124.702 230.688 130.884 232.876 144.484 232.876H380.996C395.404 232.876 400.665 230.77 400.952 230L400.947 224.367C400.947 224.203 400.697 224.019 400.37 224.019L125.111 224.022Z" fill="#F6821F"/>
<path d="M400.369 222.773H372.753V92.516C372.738 89.7027 371.608 87.0102 369.61 85.0289C367.613 83.0477 364.911 81.9395 362.098 81.9473H163.11C160.297 81.9395 157.595 83.0477 155.598 85.0289C153.601 87.0102 152.47 89.7027 152.455 92.516V222.773H125.111C124.657 222.745 124.21 222.897 123.868 223.197C123.526 223.496 123.316 223.918 123.283 224.372V229.824C123.283 232.649 133.949 234.128 144.483 234.128H380.995C393.671 234.128 402.192 232.485 402.195 230.038V224.37C402.161 223.917 401.951 223.496 401.609 223.197C401.268 222.898 400.822 222.746 400.369 222.773ZM153.706 92.516C153.75 90.0436 154.758 87.6862 156.515 85.9458C158.271 84.2054 160.638 83.2195 163.11 83.198H362.102C364.584 83.1897 366.968 84.166 368.731 85.9128C370.494 87.6596 371.492 90.0342 371.507 92.516V222.773H153.706V92.516ZM380.995 232.879H144.484C130.883 232.879 124.702 230.691 124.535 229.826V224.372C124.535 224.207 124.782 224.024 125.112 224.024H400.369C400.699 224.024 400.947 224.207 400.947 224.372L400.952 230.005C400.664 230.773 395.403 232.879 380.995 232.879Z" fill="#F6821F" stroke="#F6821F"/>
<path d="M353.705 108.27H171.514V207.331H353.705V108.27Z" fill="url(#paint7_linear_1_7605)"/>
<path d="M359.619 134.319H306.125C304.069 134.319 302.402 135.986 302.402 138.042V243.319C302.402 245.375 304.069 247.042 306.125 247.042H359.619C361.675 247.042 363.342 245.375 363.342 243.319V138.042C363.342 135.986 361.675 134.319 359.619 134.319Z" fill="url(#paint8_linear_1_7605)"/>
<path d="M359.62 247.511H306.126C305.016 247.509 303.951 247.067 303.166 246.282C302.38 245.496 301.939 244.432 301.938 243.321V138.042C301.939 136.931 302.38 135.866 303.166 135.081C303.951 134.295 305.016 133.853 306.126 133.852H359.62C360.73 133.854 361.795 134.296 362.58 135.081C363.366 135.866 363.808 136.931 363.81 138.042V243.318C363.808 244.43 363.367 245.495 362.581 246.281C361.796 247.067 360.731 247.509 359.62 247.511ZM306.126 134.787C305.264 134.789 304.438 135.132 303.829 135.741C303.219 136.351 302.876 137.177 302.875 138.039V243.318C302.876 244.18 303.219 245.007 303.829 245.616C304.438 246.226 305.264 246.569 306.126 246.57H359.62C360.482 246.569 361.308 246.226 361.917 245.616C362.527 245.007 362.87 244.18 362.872 243.318V138.042C362.87 137.18 362.527 136.353 361.917 135.744C361.308 135.134 360.482 134.791 359.62 134.79L306.126 134.787Z" fill="#0354DB" stroke="#F6821F"/>
<path d="M359.833 144.871H305.91V239.161H359.833V144.871Z" fill="white"/>
<path d="M337.349 139.546H327.316C326.9 139.546 326.562 139.884 326.562 140.3C326.562 140.717 326.9 141.054 327.316 141.054H337.349C337.766 141.054 338.103 140.717 338.103 140.3C338.103 139.884 337.766 139.546 337.349 139.546Z" fill="#FF6633"/>
<path d="M323.726 141.574C324.43 141.574 325 141.003 325 140.299C325 139.595 324.43 139.025 323.726 139.025C323.022 139.025 322.451 139.595 322.451 140.299C322.451 141.003 323.022 141.574 323.726 141.574Z" fill="#FF6633"/>
<path d="M335.321 209.832C345.967 209.832 354.598 201.202 354.598 190.556C354.598 179.91 345.967 171.28 335.321 171.28C324.676 171.28 316.045 179.91 316.045 190.556C316.045 201.202 324.676 209.832 335.321 209.832Z" fill="white"/>
<path d="M356.475 151.913H309.369V232.963H356.475V151.913Z" fill="url(#paint9_linear_1_7605)"/>
<path d="M293.726 170.332H232.299V181.924H293.726V170.332Z" fill="white" stroke="#F6821F" stroke-width="2"/>
<path d="M351.49 199.781H316.113V205.71H351.49V199.781Z" fill="white" stroke="#F6821F" stroke-width="2"/>
<path d="M293.726 189.02H232.299V200.611H293.726V189.02Z" fill="white" stroke="#F6821F" stroke-width="2"/>
<path d="M351.49 212.239H316.113V218.168H351.49V212.239Z" fill="white" stroke="#F6821F" stroke-width="2"/>
<path d="M333.66 193.058C341.77 193.058 348.344 186.484 348.344 178.374C348.344 170.265 341.77 163.69 333.66 163.69C325.551 163.69 318.977 170.265 318.977 178.374C318.977 186.484 325.551 193.058 333.66 193.058Z" fill="white" stroke="#F6821F" stroke-width="2" stroke-miterlimit="10"/>
<path d="M329.025 186.023C329.789 185.603 330.498 185.087 331.133 184.489V180.614L336.238 180.674V184.319C336.471 184.772 337.351 185.329 338.525 185.988C338.525 185.988 336.341 189.246 333.597 189.246C330.853 189.246 329.025 186.023 329.025 186.023Z" fill="#F6A86F" stroke="#911475" stroke-miterlimit="10"/>
<path d="M333.659 193.058C337.304 193.063 340.82 191.707 343.518 189.256C342.011 187.964 340.343 186.874 338.554 186.014C338.554 186.014 336.342 189.246 333.598 189.246C330.854 189.246 329.011 186.055 329.011 186.055C327.327 187.004 325.261 187.898 323.713 189.173C326.42 191.675 329.973 193.063 333.659 193.058Z" fill="#F6821F" stroke="#911475" stroke-miterlimit="10"/>
<path d="M337.77 167.847C337.77 168.037 337.208 168.183 337.183 168.366C337.157 168.548 337.654 168.852 337.602 169.03C337.55 169.208 336.97 169.192 336.894 169.36C336.818 169.529 337.209 169.961 337.11 170.117C337.01 170.273 336.459 170.091 336.339 170.232C336.218 170.373 336.475 170.897 336.335 171.019C336.196 171.141 335.718 170.81 335.562 170.911C335.407 171.012 335.509 171.588 335.34 171.666C335.171 171.744 334.808 171.289 334.63 171.342C334.451 171.395 334.39 171.976 334.205 172.002C334.02 172.029 333.801 171.489 333.613 171.489C333.426 171.489 333.202 172.029 333.022 172.002C332.842 171.976 332.773 171.394 332.597 171.342C332.422 171.29 332.055 171.743 331.886 171.666C331.717 171.589 331.819 171.012 331.664 170.911C331.509 170.811 331.03 171.141 330.891 171.019C330.752 170.897 331.009 170.372 330.888 170.231C330.767 170.091 330.217 170.274 330.116 170.116C330.016 169.959 330.41 169.531 330.332 169.36C330.255 169.189 329.677 169.211 329.624 169.03C329.572 168.849 330.068 168.553 330.044 168.366C330.02 168.178 329.457 168.036 329.457 167.847C329.457 167.658 330.018 167.511 330.044 167.328C330.07 167.145 329.573 166.841 329.624 166.664C329.676 166.487 330.256 166.502 330.333 166.333C330.41 166.165 330.017 165.733 330.117 165.576C330.217 165.42 330.767 165.602 330.888 165.462C331.009 165.322 330.752 164.797 330.892 164.674C331.031 164.552 331.509 164.884 331.664 164.783C331.819 164.682 331.717 164.106 331.887 164.028C332.056 163.95 332.418 164.404 332.597 164.352C332.776 164.299 332.837 163.718 333.022 163.691C333.207 163.664 333.426 164.205 333.613 164.205C333.801 164.205 334.024 163.665 334.205 163.691C334.385 163.717 334.454 164.299 334.63 164.352C334.805 164.404 335.172 163.951 335.341 164.028C335.51 164.105 335.408 164.682 335.563 164.783C335.718 164.883 336.196 164.553 336.335 164.675C336.474 164.797 336.217 165.322 336.339 165.462C336.46 165.602 337.01 165.42 337.11 165.577C337.211 165.734 336.817 166.163 336.895 166.334C336.972 166.505 337.55 166.483 337.602 166.664C337.654 166.845 337.159 167.141 337.183 167.328C337.207 167.514 337.77 167.657 337.77 167.847Z" fill="#911475" stroke="#911475" stroke-width="2"/>
<path d="M338.527 176.122C338.555 176.013 338.605 175.911 338.674 175.822C338.744 175.733 338.831 175.66 338.93 175.607C339.029 175.554 339.139 175.522 339.251 175.513C339.363 175.505 339.476 175.519 339.582 175.557C340.22 175.749 339.861 178.067 338.078 177.985C338.263 177.373 338.413 176.751 338.527 176.122Z" fill="#F6A86F" stroke="#911475" stroke-miterlimit="10"/>
<path d="M328.789 176.122C328.759 176.011 328.706 175.907 328.633 175.817C328.56 175.727 328.47 175.654 328.368 175.6C328.265 175.547 328.153 175.516 328.038 175.509C327.923 175.501 327.807 175.518 327.699 175.557C327.142 175.783 327.42 178.067 329.205 177.985C329.026 177.373 328.887 176.751 328.789 176.122Z" fill="#F6A86F" stroke="#911475" stroke-miterlimit="10"/>
<path d="M338.759 173.994C338.759 175.318 338.275 178.014 337.424 179.641C336.792 180.85 335.164 182.195 333.684 182.195C332.205 182.195 330.744 180.85 329.945 179.642C328.932 178.11 328.609 175.318 328.609 173.994C328.609 172.648 329.144 171.358 330.096 170.406C331.047 169.454 332.338 168.919 333.684 168.919C335.03 168.919 336.321 169.454 337.273 170.406C338.225 171.358 338.759 172.648 338.759 173.994Z" fill="#F6A86F" stroke="#911475" stroke-miterlimit="10"/>
<path d="M338.498 175.66C338.26 173.644 333.878 173.945 333.034 171.688C333.034 171.688 333.034 173.109 331.91 173.945C331.046 174.587 329.941 174.218 329.941 174.218C329.941 174.218 331.047 174.306 331.628 173.375C332.164 172.516 331.91 171.688 331.91 171.688C329.989 171.976 329.016 173.657 328.79 176.072L328.703 175.985C328.591 175.281 328.531 174.57 328.523 173.858C328.523 171.055 330.882 168.869 333.685 168.869C335.04 168.866 336.342 169.397 337.308 170.347C338.274 171.297 338.827 172.59 338.847 173.945C338.82 174.642 338.724 175.334 338.561 176.012L338.498 175.66Z" fill="#911475" stroke="#911475" stroke-width="0.505" stroke-linejoin="round"/>
<path d="M333.66 193.058C341.77 193.058 348.344 186.484 348.344 178.374C348.344 170.265 341.77 163.69 333.66 163.69C325.551 163.69 318.977 170.265 318.977 178.374C318.977 186.484 325.551 193.058 333.66 193.058Z" stroke="#F6821F" stroke-width="3" stroke-miterlimit="10"/>
<path d="M261.835 155.531C261.835 155.531 216.096 42.8322 121.338 42.8322" stroke="#FDD39A" stroke-width="5"/>
<path d="M143.352 241.497L172.612 249.337L164.772 278.596" stroke="white" stroke-width="8" stroke-linecap="round" stroke-linejoin="round"/>
<path d="M388.31 62.5192L360.236 51.1423L371.613 23.0684" stroke="white" stroke-width="8" stroke-linecap="round" stroke-linejoin="round"/>
<path d="M149.205 248.078L166.746 252.779L162.046 270.321" stroke="#F97727" stroke-width="5"/>
<path d="M386.681 54.8038L369.939 47.7662L376.976 31.0244" stroke="#FF6732" stroke-width="5"/>
<path d="M263.032 161.768C276.849 161.768 288.049 150.567 288.049 136.751C288.049 122.934 276.849 111.734 263.032 111.734C249.216 111.734 238.016 122.934 238.016 136.751C238.016 150.567 249.216 161.768 263.032 161.768Z" fill="white" stroke="#F6821F" stroke-width="2" stroke-miterlimit="10"/>
<path d="M255.139 149.783C256.442 149.067 257.648 148.189 258.731 147.17V140.567L267.428 140.67V146.88C267.825 147.652 269.324 148.6 271.325 149.723C271.325 149.723 267.603 155.274 262.928 155.274C258.253 155.274 255.139 149.783 255.139 149.783Z" fill="#F6A86F" stroke="#911475" stroke-miterlimit="10"/>
<path d="M263.032 161.768C269.242 161.777 275.232 159.467 279.828 155.291C277.261 153.09 274.418 151.233 271.371 149.767C271.371 149.767 267.602 155.274 262.927 155.274C258.253 155.274 255.113 149.837 255.113 149.837C252.244 151.455 248.724 152.978 246.086 155.15C250.699 159.412 256.751 161.776 263.032 161.768Z" fill="#F6821F" stroke="#911475" stroke-miterlimit="10"/>
<path d="M271.546 119.878C271.546 120.249 270.446 120.537 270.396 120.894C270.346 121.251 271.319 121.847 271.218 122.195C271.117 122.544 269.98 122.512 269.83 122.843C269.681 123.173 270.448 124.019 270.253 124.325C270.058 124.631 268.979 124.274 268.742 124.55C268.506 124.826 269.009 125.854 268.736 126.093C268.462 126.332 267.527 125.683 267.222 125.881C266.917 126.079 267.117 127.207 266.786 127.36C266.455 127.513 265.743 126.621 265.394 126.726C265.044 126.83 264.924 127.967 264.562 128.019C264.2 128.07 263.77 127.012 263.403 127.012C263.036 127.012 262.598 128.07 262.244 128.019C261.891 127.967 261.756 126.827 261.412 126.726C261.068 126.624 260.35 127.511 260.019 127.359C259.688 127.208 259.887 126.078 259.583 125.881C259.28 125.684 258.343 126.332 258.069 126.093C257.796 125.854 258.3 124.825 258.064 124.549C257.827 124.273 256.749 124.632 256.552 124.324C256.355 124.016 257.126 123.176 256.975 122.842C256.823 122.507 255.69 122.549 255.588 122.195C255.486 121.841 256.457 121.26 256.41 120.894C256.362 120.527 255.26 120.248 255.26 119.878C255.26 119.507 256.359 119.219 256.41 118.861C256.461 118.503 255.487 117.907 255.588 117.56C255.689 117.213 256.825 117.243 256.975 116.912C257.126 116.582 256.357 115.736 256.553 115.429C256.749 115.123 257.827 115.48 258.064 115.205C258.3 114.93 257.797 113.901 258.07 113.662C258.344 113.422 259.279 114.072 259.583 113.874C259.888 113.676 259.689 112.548 260.02 112.395C260.351 112.242 261.062 113.133 261.412 113.03C261.763 112.926 261.882 111.789 262.244 111.736C262.606 111.683 263.036 112.742 263.403 112.742C263.77 112.742 264.208 111.685 264.562 111.736C264.915 111.787 265.05 112.927 265.394 113.03C265.738 113.132 266.456 112.244 266.787 112.395C267.118 112.546 266.919 113.677 267.223 113.874C267.526 114.071 268.463 113.424 268.736 113.663C269.008 113.901 268.505 114.93 268.742 115.205C268.98 115.48 270.057 115.122 270.254 115.43C270.451 115.739 269.68 116.579 269.831 116.913C269.983 117.248 271.116 117.206 271.218 117.56C271.32 117.914 270.349 118.495 270.396 118.861C270.444 119.226 271.546 119.506 271.546 119.878Z" fill="#911475" stroke="#911475"/>
<path d="M271.326 132.913C271.373 132.727 271.459 132.553 271.577 132.402C271.695 132.251 271.844 132.126 272.013 132.036C272.182 131.945 272.368 131.891 272.559 131.876C272.751 131.862 272.943 131.887 273.124 131.951C274.211 132.279 273.599 136.227 270.561 136.087C270.876 135.044 271.131 133.985 271.326 132.913Z" fill="#F6A86F" stroke="#911475" stroke-miterlimit="10"/>
<path d="M254.733 132.914C254.682 132.724 254.591 132.548 254.468 132.395C254.344 132.242 254.19 132.116 254.016 132.026C253.841 131.935 253.65 131.882 253.453 131.869C253.257 131.856 253.06 131.884 252.876 131.952C251.928 132.336 252.4 136.228 255.441 136.088C255.137 135.046 254.901 133.986 254.733 132.914Z" fill="#F6A86F" stroke="#911475" stroke-miterlimit="10"/>
<path d="M271.719 129.289C271.719 131.544 270.893 136.137 269.443 138.91C268.367 140.969 265.594 143.26 263.073 143.26C260.551 143.26 258.064 140.969 256.702 138.911C254.976 136.301 254.426 131.544 254.426 129.289C254.426 126.996 255.337 124.797 256.959 123.175C258.58 121.554 260.779 120.643 263.073 120.643C265.366 120.643 267.565 121.554 269.186 123.175C270.808 124.797 271.719 126.996 271.719 129.289Z" fill="#F6A86F" stroke="#911475" stroke-miterlimit="10"/>
<path d="M271.273 132.128C270.868 128.692 263.401 129.205 261.964 125.36C261.964 125.36 261.964 127.781 260.048 129.205C258.578 130.299 256.695 129.671 256.695 129.671C256.695 129.671 258.579 129.821 259.569 128.234C260.483 126.771 260.048 125.36 260.048 125.36C256.776 125.851 255.118 128.714 254.733 132.829L254.585 132.681C254.395 131.482 254.293 130.271 254.279 129.057C254.279 124.281 258.298 120.558 263.073 120.558C265.382 120.552 267.6 121.457 269.246 123.076C270.892 124.695 271.834 126.897 271.867 129.205C271.822 130.392 271.659 131.572 271.381 132.726L271.273 132.128Z" fill="#911475" stroke="#911475" stroke-width="0.505" stroke-linejoin="round"/>
<path d="M263.032 161.768C276.849 161.768 288.049 150.567 288.049 136.751C288.049 122.934 276.849 111.734 263.032 111.734C249.216 111.734 238.016 122.934 238.016 136.751C238.016 150.567 249.216 161.768 263.032 161.768Z" stroke="#F6821F" stroke-width="3" stroke-miterlimit="10"/>
</g>
<defs>
<linearGradient id="paint0_linear_1_7605" x1="366.002" y1="394.498" x2="32.5015" y2="58.9984" gradientUnits="userSpaceOnUse">
<stop stop-color="#911475"/>
<stop offset="0.25" stop-color="#CE2F55"/>
<stop offset="0.5" stop-color="#FF6633"/>
<stop offset="0.611677" stop-color="#F6821F"/>
<stop offset="0.838132" stop-color="#FBAD41"/>
<stop offset="1" stop-color="#FFE9CB"/>
</linearGradient>
<linearGradient id="paint1_linear_1_7605" x1="209.5" y1="246" x2="125.5" y2="274.5" gradientUnits="userSpaceOnUse">
<stop stop-color="#FFE9CB"/>
<stop offset="0.75" stop-color="#F6821F"/>
<stop offset="1" stop-color="#FBAD41"/>
</linearGradient>
<linearGradient id="paint2_linear_1_7605" x1="423" y1="277" x2="508" y2="43" gradientUnits="userSpaceOnUse">
<stop offset="0.0212967" stop-color="#FBAD41"/>
<stop offset="0.41193" stop-color="#F6821F"/>
<stop offset="0.71402" stop-color="#FF6633"/>
<stop offset="1" stop-color="#CE2F55"/>
</linearGradient>
<linearGradient id="paint3_linear_1_7605" x1="359" y1="103" x2="411.5" y2="43" gradientUnits="userSpaceOnUse">
<stop offset="0.0212967" stop-color="#FBAD41"/>
<stop offset="0.41193" stop-color="#F6821F"/>
<stop offset="0.71402" stop-color="#FF6633"/>
<stop offset="1" stop-color="#CE2F55"/>
</linearGradient>
<linearGradient id="paint4_linear_1_7605" x1="126" y1="164.5" x2="15.5003" y2="33.9998" gradientUnits="userSpaceOnUse">
<stop stop-color="#FF6633"/>
<stop offset="0.151981" stop-color="#F6821F"/>
<stop offset="0.276984" stop-color="#FBAD41"/>
<stop offset="0.870747" stop-color="#FFF8EE"/>
<stop offset="1" stop-color="white"/>
</linearGradient>
<linearGradient id="paint5_linear_1_7605" x1="315.669" y1="82.5683" x2="300.449" y2="205.537" gradientUnits="userSpaceOnUse">
<stop stop-color="#E0EDFF"/>
<stop offset="1" stop-color="white"/>
</linearGradient>
<linearGradient id="paint6_linear_1_7605" x1="329.728" y1="223.381" x2="329.665" y2="232.345" gradientUnits="userSpaceOnUse">
<stop stop-color="#E0EDFF"/>
<stop offset="1" stop-color="white"/>
</linearGradient>
<linearGradient id="paint7_linear_1_7605" x1="263" y1="165.5" x2="163.5" y2="117.5" gradientUnits="userSpaceOnUse">
<stop stop-color="#FCE8CE"/>
<stop offset="1" stop-color="#FFF5C2" stop-opacity="0.62"/>
</linearGradient>
<linearGradient id="paint8_linear_1_7605" x1="347.574" y1="134.319" x2="315.991" y2="223.007" gradientUnits="userSpaceOnUse">
<stop stop-color="#E0EDFF"/>
<stop offset="1" stop-color="white"/>
</linearGradient>
<linearGradient id="paint9_linear_1_7605" x1="356" y1="192" x2="274" y2="132.5" gradientUnits="userSpaceOnUse">
<stop stop-color="#FFE9CB"/>
<stop offset="1" stop-color="#FFF5C2"/>
</linearGradient>
<clipPath id="clip0_1_7605">
<rect width="519" height="307" fill="white"/>
</clipPath>
</defs>
</svg>
