<svg width="16" height="18" viewBox="0 0 16 18" fill="none" xmlns="http://www.w3.org/2000/svg">
<path d="M7.92888 11.7207L8.85305 12.6448L12.2787 9.21923L8.85305 5.79688L7.92888 6.72104L9.77722 8.56611H0V9.87235H9.77722L7.92888 11.7207Z" fill="#313131"/>
<path d="M14.8323 2.97822L14.3849 2.91617C12.4933 2.63674 10.7375 1.76965 9.3657 0.437591L8.9771 0H7.99742L7.61861 0.437591C6.25074 1.76965 4.49796 2.6369 2.60917 2.91617L2.16178 2.97822L1.6001 3.63134V7.29535H2.90634V4.19303C5.00501 3.85487 6.95131 2.88682 8.48726 1.41727C10.0291 2.88949 11.9825 3.85765 14.0878 4.19303V8.24237C14.0878 13.5849 9.14038 16.3509 8.48726 16.684C7.98762 16.439 4.75794 14.6201 3.44843 11.2141H2.06381C3.50394 15.5998 7.7525 17.7747 7.96803 17.8824L8.19988 18H8.78443L9.01628 17.8824C9.27753 17.7551 15.394 14.6168 15.394 8.24237V3.62481L14.8323 2.97822Z" fill="#313131"/>
</svg>
