<svg width="1512" height="548" viewBox="0 0 1512 548" fill="none" xmlns="http://www.w3.org/2000/svg">
<rect width="1512" height="548" fill="white"/>
<rect width="1512" height="548" fill="#1B1D1D"/>
<rect width="1512" height="548" fill="url(#paint0_linear_206_2332)"/>
<path d="M618.895 337.105L575.309 311.787L619.158 287.041L662.665 311.787L618.895 337.105Z" fill="#E2F5FA" stroke="#6ECCE5" stroke-width="1.53118" stroke-linejoin="round" stroke-dasharray="3.06 3.06"/>
<path d="M618.895 337.3H618.815L574.965 311.742L575.228 311.593L619.158 286.801H619.25L663.008 311.742L662.745 311.902L618.895 337.3ZM575.652 311.742L618.895 336.911L662.356 311.799L619.204 287.247L575.652 311.742Z" fill="#E2F5FA" stroke="#6ECCE5" stroke-width="1.53118" stroke-linejoin="round" stroke-dasharray="3.06 3.06"/>
<path d="M948.528 348.505L872.371 304.558L948.988 261.604L1025 304.558L948.528 348.505Z" fill="#E2F5FA" stroke="#6ECCE5" stroke-width="1.53118" stroke-linejoin="round" stroke-dasharray="4.59 3.06"/>
<path d="M1106.14 439.884L949.043 348.635V320.968L1106.14 412.217V439.884Z" fill="#E2F5FA" stroke="url(#paint1_linear_206_2332)" stroke-width="1.53118" stroke-linejoin="round"/>
<path d="M1106.14 440.379L1263.89 349.13V320.968L1106.14 412.217V440.379Z" fill="#E2F5FA" stroke="url(#paint2_linear_206_2332)" stroke-width="1.53118" stroke-linejoin="round"/>
<path d="M1106.34 412.358H1106.05L949.338 321.3L950.278 320.771L1107.28 232.444H1107.61L1263.99 321.3L1263.05 321.871L1106.34 412.358Z" fill="#E2F5FA" stroke="url(#paint3_linear_206_2332)" stroke-width="1.53118" stroke-linejoin="round"/>
<path d="M1053.43 293.579C1053.69 293.248 1053.64 292.766 1053.31 292.503L1047.91 288.218C1047.58 287.955 1047.1 288.01 1046.84 288.341C1046.57 288.672 1046.63 289.154 1046.96 289.417L1051.76 293.226L1047.95 298.022C1047.68 298.353 1047.74 298.835 1048.07 299.098C1048.4 299.361 1048.88 299.306 1049.15 298.974L1053.43 293.579ZM1019.55 305.515L1019.11 304.883L1019.55 305.515ZM986.815 367.05C987.114 367.349 987.599 367.349 987.898 367.05L992.77 362.179C993.069 361.88 993.069 361.395 992.77 361.096C992.471 360.797 991.987 360.797 991.688 361.096L987.357 365.426L983.026 361.095C982.727 360.796 982.242 360.796 981.943 361.095C981.644 361.394 981.644 361.879 981.943 362.178L986.815 367.05ZM988.122 366.509C988.122 365.769 988.133 365.029 988.156 364.29L986.625 364.244C986.602 364.998 986.591 365.753 986.591 366.509L988.122 366.509ZM988.425 359.861C988.56 358.386 988.74 356.918 988.963 355.456L987.449 355.225C987.221 356.717 987.038 358.216 986.901 359.722L988.425 359.861ZM989.767 351.092C990.079 349.646 990.435 348.21 990.834 346.785L989.36 346.372C988.952 347.826 988.589 349.293 988.27 350.769L989.767 351.092ZM992.16 342.551C992.645 341.154 993.172 339.771 993.741 338.404L992.327 337.816C991.746 339.211 991.208 340.623 990.714 342.049L992.16 342.551ZM995.57 334.361C995.895 333.698 996.23 333.038 996.576 332.383L995.222 331.669C994.869 332.337 994.527 333.011 994.195 333.688L995.57 334.361ZM996.576 332.383C996.922 331.729 997.277 331.08 997.641 330.437L996.309 329.682C995.937 330.338 995.575 331 995.222 331.669L996.576 332.383ZM999.947 326.645C1000.75 325.404 1001.6 324.189 1002.48 323.001L1001.25 322.089C1000.35 323.302 999.487 324.543 998.663 325.811L999.947 326.645ZM1005.23 319.516C1006.18 318.383 1007.16 317.278 1008.18 316.205L1007.07 315.151C1006.03 316.247 1005.02 317.375 1004.05 318.532L1005.23 319.516ZM1011.33 313.078C1012.41 312.069 1013.52 311.092 1014.66 310.149L1013.69 308.969C1012.52 309.932 1011.39 310.929 1010.28 311.959L1011.33 313.078ZM1018.17 307.427C1018.76 306.991 1019.37 306.565 1019.98 306.147L1019.11 304.883C1018.49 305.309 1017.87 305.745 1017.26 306.19L1018.17 307.427ZM1019.98 306.147C1020.59 305.729 1021.21 305.321 1021.83 304.923L1021 303.633C1020.37 304.04 1019.74 304.456 1019.11 304.883L1019.98 306.147ZM1025.64 302.645C1026.93 301.924 1028.24 301.243 1029.58 300.603L1028.91 299.222C1027.55 299.876 1026.21 300.571 1024.89 301.308L1025.64 302.645ZM1033.63 298.803C1035 298.244 1036.39 297.727 1037.79 297.252L1037.3 295.802C1035.87 296.287 1034.45 296.815 1033.05 297.385L1033.63 298.803ZM1042.03 295.957C1043.46 295.569 1044.9 295.223 1046.35 294.922L1046.04 293.423C1044.56 293.731 1043.09 294.083 1041.63 294.48L1042.03 295.957ZM1050.72 294.15C1051.45 294.043 1052.18 293.948 1052.92 293.863L1052.75 292.342C1051.99 292.428 1051.25 292.526 1050.5 292.634L1050.72 294.15Z" fill="#0055DC"/>
<path d="M1132.34 112.656C1132.04 112.357 1132.04 111.872 1132.34 111.573L1137.21 106.701C1137.51 106.402 1138 106.402 1138.29 106.701C1138.59 107 1138.59 107.484 1138.29 107.783L1133.96 112.114L1138.29 116.445C1138.59 116.744 1138.59 117.229 1138.29 117.528C1138 117.827 1137.51 117.827 1137.21 117.528L1132.34 112.656ZM1132.88 111.349L1185.73 111.349L1185.73 112.88L1132.88 112.88L1132.88 111.349Z" fill="#0055DC"/>
<path d="M1028.52 264.687C1028.82 264.388 1028.82 263.903 1028.52 263.604L1023.65 258.732C1023.35 258.433 1022.87 258.433 1022.57 258.732C1022.27 259.031 1022.27 259.516 1022.57 259.814L1026.9 264.145L1022.57 268.476C1022.27 268.775 1022.27 269.26 1022.57 269.559C1022.87 269.858 1023.35 269.858 1023.65 269.559L1028.52 264.687ZM1027.98 263.38L1012.3 263.38L1012.3 264.911L1027.98 264.911L1027.98 263.38Z" fill="#0055DC"/>
<path d="M795.332 411.373L870.875 367.472V305.548L795.332 349.429V411.373Z" fill="#E2F5FA" stroke="#6ECCE5" stroke-width="1.53118" stroke-linejoin="round"/>
<path d="M795.034 411.969L795.49 411.711L871.173 367.751V305.014L870.737 305.271L795.034 349.251V411.969ZM870.578 367.394L795.629 411.017V349.588L870.578 305.965V367.394Z" fill="#E2F5FA" stroke="#6ECCE5" stroke-width="1.53118" stroke-linejoin="round"/>
<path d="M795.333 411.373L719.492 367.472V305.548L795.333 349.429V411.373Z" fill="#E2F5FA" stroke="#6ECCE5" stroke-width="1.53118" stroke-linejoin="round"/>
<path d="M795.629 411.967V349.25H795.491L719.194 305.092V367.73H719.332L795.629 411.967ZM795.035 349.686V410.936L719.709 367.314V306.044L795.035 349.686Z" fill="#E2F5FA" stroke="#6ECCE5" stroke-width="1.53118" stroke-linejoin="round"/>
<path d="M795.332 349.429L870.875 305.548L794.876 262.659L719.491 305.548L795.332 349.429Z" fill="#E2F5FA" stroke="#6ECCE5" stroke-width="1.53118" stroke-linejoin="round"/>
<path d="M795.332 349.766H795.49L871.529 305.528L871.073 305.271L794.915 262.302H794.777L718.896 305.528L719.332 305.786L795.332 349.766ZM870.281 305.548L795.332 349.171L720.006 305.548L794.796 262.996L870.281 305.548Z" fill="#E2F5FA" stroke="#6ECCE5" stroke-width="1.53118" stroke-linejoin="round"/>
<circle cx="988" cy="410.319" r="15.6946" fill="#AFE3F1"/>
<path d="M987.938 412.177L964.091 398.324L988.082 384.785L1011.88 398.324L987.938 412.177Z" stroke="white" stroke-width="1.53118" stroke-linejoin="round"/>
<path d="M987.938 412.283H987.888L963.884 398.318L964.028 398.236L988.07 384.672H988.113L1012.07 398.318L1011.93 398.399L987.938 412.283ZM964.278 398.324L987.938 412.095L1011.72 398.324L988.107 384.891L964.278 398.324Z" stroke="white" stroke-width="1.53118" stroke-linejoin="round"/>
<path d="M987.938 436.297L1011.88 422.438V398.324L987.938 412.176V436.297Z" stroke="white" stroke-width="1.53118" stroke-linejoin="round"/>
<path d="M987.938 436.297L964.091 422.438V398.324L987.938 412.176V436.297Z" stroke="white" stroke-width="1.53118" stroke-linejoin="round"/>
<path d="M719.618 372.336L682.628 350.85L719.841 329.849L756.753 350.85L719.618 372.336Z" fill="#E2F5FA" stroke="#6ECCE5" stroke-width="1.53118" stroke-linejoin="round" stroke-dasharray="3.06 3.06"/>
<path d="M682.307 350.84L719.54 372.501H719.617L756.831 350.966M719.821 329.674H719.889M682.918 350.849L719.879 330.014" stroke="#6ECCE5" stroke-width="1.53118" stroke-linejoin="round" stroke-dasharray="3.06 3.06"/>
<path d="M719.616 409.748L756.751 388.253V350.85L719.616 372.336V409.748Z" fill="#E2F5FA" stroke="#6ECCE5" stroke-width="1.53118" stroke-linejoin="round" stroke-dasharray="3.06 3.06"/>
<path d="M719.618 409.748L682.628 388.253V350.85L719.618 372.336V409.748Z" fill="#E2F5FA" stroke="#6ECCE5" stroke-width="1.53118" stroke-linejoin="round" stroke-dasharray="3.06 3.06"/>
<path d="M1159.52 308.977C1159.14 308.977 1158.84 309.28 1158.84 309.654L1158.84 315.748C1158.84 316.122 1159.14 316.425 1159.52 316.425C1159.89 316.425 1160.2 316.122 1160.2 315.748L1160.2 310.331L1165.61 310.331C1165.99 310.331 1166.29 310.028 1166.29 309.654C1166.29 309.28 1165.99 308.977 1165.61 308.977L1159.52 308.977ZM1167.6 327.864L1168.28 327.894L1167.6 327.864ZM1157.91 345.855L1158.36 346.36L1157.91 345.855ZM1132.85 358.727L1132.67 358.076L1132.85 358.727ZM1099.46 362.608L1099.44 363.285L1099.46 362.608ZM1067.25 356.35L1067.01 356.981L1067.25 356.35ZM1045.4 341.812L1045.92 341.382L1045.4 341.812ZM1040.49 322.953C1040.27 322.645 1039.85 322.566 1039.55 322.778L1034.52 326.226C1034.21 326.438 1034.13 326.859 1034.35 327.168C1034.56 327.476 1034.98 327.554 1035.29 327.343L1039.75 324.278L1042.82 328.744C1043.03 329.052 1043.45 329.131 1043.76 328.919C1044.07 328.707 1044.15 328.286 1043.93 327.978L1040.49 322.953ZM1159.04 310.133C1164.54 315.638 1167.19 321.754 1166.92 327.835L1168.28 327.894C1168.56 321.349 1165.7 314.882 1160 309.175L1159.04 310.133ZM1166.92 327.835C1166.66 333.923 1163.47 339.983 1157.46 345.35L1158.36 346.36C1164.56 340.819 1167.99 334.439 1168.28 327.894L1166.92 327.835ZM1157.46 345.35C1151.45 350.722 1142.9 355.137 1132.67 358.076L1133.04 359.378C1143.41 356.399 1152.16 351.901 1158.36 346.36L1157.46 345.35ZM1132.67 358.076C1122.44 361.013 1110.98 362.348 1099.49 361.931L1099.44 363.285C1111.06 363.706 1122.67 362.357 1133.04 359.378L1132.67 358.076ZM1099.49 361.931C1087.99 361.514 1076.94 359.361 1067.49 355.718L1067.01 356.981C1076.61 360.685 1087.81 362.863 1099.44 363.285L1099.49 361.931ZM1067.49 355.718C1058.04 352.071 1050.61 347.094 1045.92 341.382L1044.87 342.242C1049.76 348.185 1057.4 353.278 1067.01 356.981L1067.49 355.718ZM1045.92 341.382C1041.24 335.692 1039.47 329.513 1040.59 323.46L1039.26 323.212C1038.05 329.724 1039.99 336.298 1044.87 342.242L1045.92 341.382Z" fill="#6ECCE5"/>
<circle cx="1103.99" cy="253.115" r="6.1247" fill="#E2F5FA"/>
<ellipse cx="1040.83" cy="326.995" rx="9.56985" ry="7.27309" fill="#E2F5FA"/>
<rect x="819.954" y="96.1697" width="24.4988" height="24.4988" fill="#AFE3F1"/>
<rect x="819.954" y="142.105" width="24.4988" height="24.4988" fill="#AFE3F1"/>
<rect x="819.954" y="188.04" width="24.4988" height="24.4988" fill="#AFE3F1"/>
<rect x="855.171" y="96.1697" width="143.931" height="10.7182" fill="#AFE3F1"/>
<rect x="855.171" y="113.013" width="60.4815" height="10.7182" fill="#AFE3F1"/>
<rect x="855.171" y="142.105" width="94.1673" height="10.7182" fill="#AFE3F1"/>
<rect x="956.994" y="142.105" width="30.6235" height="10.7182" fill="#AFE3F1"/>
<rect x="855.171" y="158.948" width="27.5612" height="10.7182" fill="#AFE3F1"/>
<rect x="897.278" y="188.04" width="75.0276" height="10.7182" fill="#AFE3F1"/>
<rect x="855.171" y="188.04" width="36.7482" height="10.7182" fill="#AFE3F1"/>
<rect x="855.171" y="204.883" width="77.3244" height="10.7182" fill="#AFE3F1"/>
<ellipse cx="1102" cy="324" rx="33" ry="19" fill="#6ECCE5" fill-opacity="0.3"/>
<path d="M1249.82 96H1207V135.437H1249.82V96Z" fill="white"/>
<path d="M1240.8 124.169H1223.9V128.113H1240.8V124.169Z" fill="#6ECCE5"/>
<path d="M1240.8 114.028H1223.9V117.972H1240.8V114.028Z" fill="#6ECCE5"/>
<path d="M1240.8 104.451H1223.9V107.831H1240.8V104.451Z" fill="#6ECCE5"/>
<circle cx="1216.01" cy="125.859" r="2.25352" fill="#FBAD41"/>
<circle cx="1216.01" cy="115.719" r="2.25352" fill="#F6821F"/>
<circle cx="1216.01" cy="106.141" r="2.25352" fill="#FF6633"/>
<path d="M1287 156H1207V194.873H1287V156Z" fill="white"/>
<path d="M1207 184.726L1226.62 173.956L1249.64 178.668L1270.77 163.522L1287 170.253" stroke="white" stroke-width="1.68137" stroke-linecap="round" stroke-linejoin="bevel"/>
<path d="M1207 177.542L1228.75 188.259L1250.5 173.565L1272.99 178.627L1287 167.056" stroke="white" stroke-width="1.68137" stroke-linecap="round" stroke-linejoin="bevel"/>
<path d="M1207 184.726L1226.62 173.956L1249.64 178.668L1270.77 163.522L1287 170.253" stroke="#AFE3F1" stroke-width="1.68137" stroke-linecap="round" stroke-linejoin="bevel"/>
<path d="M1228.75 188.259L1207 177.542H1205.5V195.5H1289V167.056H1287L1272.99 178.627L1250.5 173.565L1228.75 188.259Z" fill="url(#paint4_linear_206_2332)" stroke="#52AEE3" stroke-width="1.68137" stroke-linecap="round" stroke-linejoin="bevel"/>
<path d="M1289.5 156V153.5H1287H1207H1204.5V156V194V196.5H1207H1287H1289.5V194V156Z" stroke="#E2F5FA" stroke-width="5"/>
<path d="M1265.03 205.014H1207V200.507H1265.03V205.014Z" fill="#6ECCE5"/>
<path d="M1227.85 215.155H1207V210.648H1227.85V215.155Z" fill="#6ECCE5"/>
<path d="M999 232H919V270.873H999V232Z" fill="white"/>
<path d="M950.132 247.312L938.623 255.956H928L919 260.726L919 271L999 271.5V246.254L990.887 237.888L982.774 245.522L972.208 242.095L961.642 254.668L950.132 247.312Z" fill="url(#paint5_linear_206_2332)" fill-opacity="0.92" stroke="#52AEE3" stroke-width="1.68137" stroke-linecap="round" stroke-linejoin="bevel"/>
<path d="M1000 232V230H998H920H918V232V270V272H920H998H1000V270V232Z" stroke="#E2F5FA" stroke-width="4"/>
<path d="M1092.77 312.89C1090.01 311.515 1025.33 278.405 1025.33 210.479V152.456L1041.81 150.139C1069.32 146.276 1086.28 128.717 1087.09 127.906L1101.29 112L1115.65 127.983C1115.74 128.068 1132.78 146.16 1160.85 150.139L1177.33 152.456V210.479C1177.33 278.405 1112.66 311.515 1109.89 312.89L1101.29 317.193L1092.77 312.89Z" fill="#003682" stroke="#0055DC" stroke-width="1.91423" stroke-miterlimit="10"/>
<path d="M1098.51 135.528L1098.38 135.675L1098.27 135.749L1098.11 135.935C1098.04 136.008 1097.96 136.087 1097.88 136.163C1097.86 136.184 1097.84 136.204 1097.82 136.224C1097.69 136.355 1097.55 136.495 1097.39 136.648L1097.38 136.657L1097.37 136.667C1096.7 137.326 1095.7 138.257 1094.41 139.397C1090.86 142.502 1087.09 145.349 1083.14 147.918L1083.14 147.918L1083.13 147.925C1070.45 156.273 1056.1 161.724 1041.09 163.895L1041.09 163.895L1039.37 164.145L1037.59 164.405V166.213V211.146C1037.59 241.671 1052.4 264.492 1067.63 279.904C1077.02 289.441 1087.8 297.496 1099.59 303.793L1099.62 303.807L1099.64 303.821L1100.6 304.295L1101.48 304.736L1102.39 304.328L1103.49 303.829L1103.56 303.799L1103.62 303.765C1115.38 297.452 1126.13 289.397 1135.51 279.87C1150.73 264.458 1165.55 241.636 1165.55 211.111V166.178V164.371L1163.76 164.11L1162.05 163.86L1162.05 163.86C1147.02 161.698 1132.65 156.258 1119.95 147.923L1119.94 147.918C1115.99 145.351 1112.23 142.505 1108.68 139.4C1107.4 138.26 1106.41 137.316 1105.73 136.641L1105.71 136.62L1105.69 136.6C1105.35 136.275 1105.11 136.028 1104.95 135.852L1104.94 135.845L1104.93 135.839L1104.69 135.582L1104.69 135.572L1104.6 135.476L1104.59 135.47L1103.11 133.839L1101.54 132.127L1100 133.855L1098.51 135.527L1098.51 135.528Z" fill="white" stroke="#6ECCE5" stroke-width="4.18"/>
<path d="M1101.56 139.815C1101.56 139.813 1101.56 139.811 1101.56 139.809C1101.72 139.972 1101.91 140.152 1102.12 140.348C1102.85 141.077 1103.9 142.08 1105.25 143.28L1105.26 143.286L1105.26 143.293C1109 146.56 1112.96 149.556 1117.11 152.258C1130.19 160.834 1144.94 166.49 1160.37 168.849V211.111C1160.37 239.823 1146.46 261.411 1131.82 276.23L1131.81 276.235C1122.91 285.282 1112.72 292.948 1101.58 298.982C1090.43 292.967 1080.23 285.312 1071.32 276.269L1071.32 276.265C1056.68 261.445 1042.77 239.857 1042.77 211.146V168.882C1058.18 166.515 1072.92 160.846 1085.97 152.256C1090.13 149.554 1094.09 146.56 1097.82 143.294L1097.83 143.287C1099.18 142.099 1100.24 141.111 1100.98 140.38C1101.18 140.195 1101.34 140.029 1101.48 139.894C1101.51 139.865 1101.53 139.839 1101.56 139.815Z" fill="white" stroke="#C5EBF5" stroke-width="6.18004"/>
<path fill-rule="evenodd" clip-rule="evenodd" d="M1102.53 140.99C1102.53 140.461 1102.1 140.032 1101.57 140.032C1101.04 140.032 1100.61 140.461 1100.61 140.99L1100.61 172.248C1076.77 172.513 1057.52 191.923 1057.52 215.829C1057.52 239.734 1076.77 259.145 1100.61 259.41V296.681C1100.61 297.209 1101.04 297.638 1101.57 297.638C1102.1 297.638 1102.53 297.209 1102.53 296.681L1102.53 259.39C1125.9 258.642 1144.62 239.498 1144.69 215.964H1159.63C1160.16 215.964 1160.59 215.535 1160.59 215.007C1160.59 214.478 1160.16 214.05 1159.63 214.05H1144.66C1143.74 191.274 1125.35 172.998 1102.53 172.267V140.99ZM1059.44 215.829C1059.44 192.815 1078.09 174.159 1101.11 174.159C1124.12 174.159 1142.78 192.815 1142.78 215.829C1142.78 238.842 1124.12 257.498 1101.11 257.498C1078.09 257.498 1059.44 238.842 1059.44 215.829Z" fill="url(#paint6_linear_206_2332)"/>
<path d="M1065.26 206.389H1053.93V224.002H1065.26V206.389Z" fill="white"/>
<path d="M1104.13 219.464H1026V210.904H1104.13H1106.55L1104.83 209.195L1090.59 194.994L1096.65 188.937L1122.96 215.188L1096.65 241.461L1090.59 235.404L1104.83 221.171L1106.54 219.464H1104.13Z" fill="#FBAD41" stroke="url(#paint7_linear_206_2332)" stroke-width="2"/>
<path d="M1092.44 313.68C1089.68 312.3 1025 279.059 1025 210.862V152.617L1041.47 150.29C1068.98 146.412 1085.95 128.783 1086.76 127.969L1100.96 112L1115.32 128.047C1115.4 128.132 1132.45 146.296 1160.52 150.29L1177 152.617V210.862C1177 279.059 1112.32 312.3 1109.56 313.68L1100.96 318L1092.44 313.68Z" stroke="#0055DC" stroke-width="2.91" stroke-miterlimit="10"/>
<path d="M1223.22 236L1207 236L1207 239.956L1223.22 239.956L1223.22 236Z" fill="#0055DC"/>
<path d="M1282.37 236L1265.67 236L1265.67 239.956L1282.37 239.956L1282.37 236Z" fill="#99DBED"/>
<path d="M1307.65 236L1291.43 236L1291.43 239.956L1307.65 239.956L1307.65 236Z" fill="white"/>
<path d="M1256.13 236L1229.9 236L1229.9 239.956L1256.13 239.956L1256.13 236Z" fill="#73CEE6"/>
<path d="M895.078 251.361H892.924V246.514H895.078V251.361Z" fill="#0055DC"/>
<path d="M901.002 245.437H896.155V243.283H901.002V245.437Z" fill="#0055DC"/>
<path d="M895.078 242.206H892.924V237.359H895.078V242.206Z" fill="#0055DC"/>
<path d="M891.847 245.437H887V243.283H891.847V245.437Z" fill="#0055DC"/>
<path d="M903.641 236.191L901.546 234.095L903.641 232L905.737 234.095L903.641 236.191Z" fill="#0055DC"/>
<path d="M903.843 261.092V254.968" stroke="#0055DC" stroke-width="1.53118"/>
<path d="M900.781 258.03L906.905 258.03" stroke="#0055DC" stroke-width="1.53118"/>
<defs>
<linearGradient id="paint0_linear_206_2332" x1="501" y1="306" x2="1190.5" y2="130" gradientUnits="userSpaceOnUse">
<stop stop-color="#F8FBFB"/>
<stop offset="1" stop-color="#E2F5FA"/>
</linearGradient>
<linearGradient id="paint1_linear_206_2332" x1="1027.59" y1="320.968" x2="1027.59" y2="439.884" gradientUnits="userSpaceOnUse">
<stop stop-color="#6ECCE5"/>
<stop offset="0.84853" stop-color="#6ECCE5"/>
</linearGradient>
<linearGradient id="paint2_linear_206_2332" x1="1185.01" y1="320.968" x2="1185.01" y2="440.379" gradientUnits="userSpaceOnUse">
<stop stop-color="#6ECCE5"/>
<stop offset="0.84853" stop-color="#6ECCE5"/>
</linearGradient>
<linearGradient id="paint3_linear_206_2332" x1="1106.67" y1="232.444" x2="1106.67" y2="412.358" gradientUnits="userSpaceOnUse">
<stop stop-color="#6ECCE5" stop-opacity="0"/>
<stop offset="0.395395" stop-color="#6ECCE5"/>
</linearGradient>
<linearGradient id="paint4_linear_206_2332" x1="1247.25" y1="195.5" x2="1247.25" y2="167.056" gradientUnits="userSpaceOnUse">
<stop stop-color="white" stop-opacity="0"/>
<stop offset="0.838549" stop-color="#6ECCE5"/>
</linearGradient>
<linearGradient id="paint5_linear_206_2332" x1="959" y1="244.5" x2="959" y2="271.5" gradientUnits="userSpaceOnUse">
<stop stop-color="#52AEE3"/>
<stop offset="1" stop-color="#6ECCE5" stop-opacity="0"/>
</linearGradient>
<linearGradient id="paint6_linear_206_2332" x1="1117.37" y1="112.051" x2="1117.37" y2="315.185" gradientUnits="userSpaceOnUse">
<stop stop-color="#F9AB41"/>
<stop offset="0.737704" stop-color="#F6821F"/>
<stop offset="1" stop-color="#FF6633"/>
</linearGradient>
<linearGradient id="paint7_linear_206_2332" x1="1074.69" y1="187.524" x2="1074.69" y2="242.874" gradientUnits="userSpaceOnUse">
<stop stop-color="#FF6633"/>
<stop offset="1" stop-color="#FBAD41"/>
</linearGradient>
</defs>
</svg>
