<svg width="64" height="64" viewBox="0 0 64 64" fill="#F6821F" xmlns="http://www.w3.org/2000/svg">
<path d="M24.327 33.7573C24.327 32.1034 25.5471 30.7478 27.0925 30.7478C28.638 30.7478 29.8851 32.1034 29.858 33.7573C29.858 35.4112 28.638 36.7669 27.0925 36.7669C25.5742 36.7669 24.327 35.4112 24.327 33.7573Z" fill="#F6821F"/>
<path d="M34.2232 33.7573C34.2232 32.1034 35.4433 30.7478 36.9887 30.7478C38.5342 30.7478 39.7543 32.1034 39.7543 33.7573C39.7543 35.4112 38.5342 36.7669 36.9887 36.7669C35.4704 36.7669 34.2232 35.4112 34.2232 33.7573Z" fill="#F6821F"/>
<path fill-rule="evenodd" clip-rule="evenodd" d="M13.8343 8H50.1657C53.2294 8 55.7238 10.4944 55.7238 13.5853V62.2259L49.8945 57.0745L46.6139 54.0378L43.1434 50.8114L44.5804 55.8273H13.8343C10.7705 55.8273 8.27612 53.3329 8.27612 50.242V13.5853C8.27612 10.4944 10.7705 8 13.8343 8ZM37.9106 41.2134C38.724 42.2437 39.7001 43.4095 39.7001 43.4095C45.692 43.2198 47.9966 39.2884 47.9966 39.2884C47.9966 30.558 44.0924 23.4815 44.0924 23.4815C40.1881 20.5533 36.4736 20.6346 36.4736 20.6346L36.094 21.0685C40.7032 22.4783 42.8452 24.5118 42.8452 24.5118C40.0254 22.9664 37.2599 22.2072 34.6842 21.909C32.732 21.6921 30.8612 21.7463 29.2073 21.9632C29.0653 21.9632 28.944 21.9838 28.8072 22.0071C28.7873 22.0105 28.7671 22.014 28.7464 22.0174C27.7975 22.0987 25.4929 22.4512 22.5918 23.7255C21.5886 24.1864 20.9921 24.5118 20.9921 24.5118C20.9921 24.5118 23.2425 22.3699 28.1228 20.96L27.8517 20.6346C27.8517 20.6346 24.1372 20.5533 20.2329 23.4815C20.2329 23.4815 16.3287 30.558 16.3287 39.2884C16.3287 39.2884 18.6062 43.2198 24.5981 43.4095C24.5981 43.4095 25.6013 42.1895 26.4147 41.1592C22.9714 40.1289 21.6699 37.9598 21.6699 37.9598C21.6699 37.9598 21.9411 38.1496 22.4291 38.4208C22.4562 38.4479 22.4833 38.475 22.5375 38.5021C22.5782 38.5292 22.6189 38.5496 22.6596 38.5699C22.7002 38.5902 22.7409 38.6105 22.7816 38.6377C23.4594 39.0172 24.1372 39.3155 24.7608 39.5595C25.8724 39.9933 27.201 40.4271 28.7464 40.7254C30.7799 41.1049 33.1658 41.2405 35.7687 40.7525C37.043 40.5356 38.3444 40.156 39.7001 39.5866C40.649 39.2341 41.7064 38.719 42.8181 37.987C42.8181 37.987 41.4624 40.2102 37.9106 41.2134Z" fill="#F6821F"/>
</svg>
