<svg width="64" height="64" viewBox="0 0 64 64" fill="#F6821F" xmlns="http://www.w3.org/2000/svg">
<path d="M32 58C26.8577 58 21.8309 56.4751 17.5552 53.6182C13.2795 50.7613 9.94702 46.7007 7.97914 41.9498C6.01127 37.1989 5.49638 31.9712 6.49959 26.9277C7.50281 21.8842 9.97907 17.2514 13.6152 13.6152C17.2514 9.97907 21.8842 7.50281 26.9277 6.49959C31.9712 5.49638 37.1989 6.01127 41.9498 7.97914C46.7007 9.94702 50.7613 13.2795 53.6182 17.5552C56.4751 21.8309 58 26.8577 58 32C58 38.8956 55.2607 45.5088 50.3848 50.3848C45.5088 55.2607 38.8956 58 32 58ZM32 10C27.6488 10 23.3953 11.2903 19.7775 13.7077C16.1596 16.1251 13.3398 19.561 11.6747 23.581C10.0095 27.601 9.57386 32.0244 10.4227 36.292C11.2716 40.5596 13.3669 44.4796 16.4437 47.5564C19.5204 50.6331 23.4404 52.7284 27.708 53.5773C31.9756 54.4262 36.3991 53.9905 40.419 52.3254C44.439 50.6602 47.875 47.8404 50.2923 44.2226C52.7097 40.6047 54 36.3512 54 32C54 26.1652 51.6822 20.5695 47.5564 16.4437C43.4306 12.3179 37.8348 10 32 10ZM39.49 34.21C39.157 33.5454 38.6866 32.9592 38.11 32.49C37.5054 31.9998 36.8314 31.6022 36.11 31.31C35.3735 30.9962 34.6105 30.7486 33.83 30.57L33.16 30.4V24.59C33.75 24.6807 34.3132 24.8991 34.81 25.23C35.1509 25.466 35.4347 25.7753 35.6406 26.1352C35.8465 26.4951 35.9693 26.8965 36 27.31H39.63C39.6259 26.1919 39.2766 25.1022 38.63 24.19C37.9604 23.2569 37.0519 22.5212 36 22.06C35.1024 21.6569 34.1413 21.4132 33.16 21.34V19H31.11V21.38C30.1411 21.4633 29.1922 21.7031 28.3 22.09C27.2101 22.5476 26.2637 23.2902 25.56 24.24C24.8869 25.1806 24.5361 26.3137 24.56 27.47C24.5357 28.1269 24.6515 28.7815 24.8998 29.3901C25.1481 29.9988 25.5232 30.5476 26 31C27.1736 31.9882 28.5707 32.6747 30.07 33L30.99 33.23V39.39C30.6288 39.3344 30.2738 39.244 29.93 39.12C29.3284 38.9059 28.7962 38.5327 28.39 38.04C27.979 37.5199 27.7443 36.8825 27.72 36.22H24C24.0141 37.4759 24.389 38.7012 25.08 39.75C25.7747 40.7524 26.7432 41.5335 27.87 42C28.8594 42.3971 29.906 42.6334 30.97 42.7L31 45H33.16V42.7C34.2586 42.6496 35.3407 42.4129 36.36 42C37.4514 41.5538 38.3895 40.7998 39.06 39.83C39.7047 38.8675 40.0333 37.728 40 36.57C40.019 35.7541 39.8443 34.9453 39.49 34.21ZM30.65 29.7C30.2469 29.5614 29.861 29.3768 29.5 29.15C29.1704 28.9437 28.8903 28.6671 28.68 28.34C28.4751 27.9993 28.371 27.6075 28.38 27.21C28.3771 26.7073 28.5347 26.2168 28.83 25.81C29.162 25.3624 29.6122 25.0161 30.13 24.81C30.434 24.6801 30.7532 24.5894 31.08 24.54V29.78C30.91 29.78 30.78 29.75 30.65 29.7ZM35.65 38.1C35.2598 38.556 34.7562 38.901 34.19 39.1C33.8416 39.2333 33.4793 39.3273 33.11 39.38V33.81C33.56 33.95 33.99 34.1 34.37 34.26C34.8654 34.4595 35.3121 34.763 35.68 35.15C35.9976 35.5267 36.165 36.0075 36.15 36.5C36.1905 37.0725 36.0237 37.6404 35.68 38.1H35.65Z" fill="#F6821F"/>
</svg>
