<svg width="734" height="215" viewBox="0 0 734 215" fill="none" xmlns="http://www.w3.org/2000/svg">
<rect width="734" height="215" fill="white"/>
<path d="M426 111L578 111" stroke="#222222" stroke-width="3"/>
<circle cx="501.5" cy="110.5" r="14" fill="white" stroke="black" stroke-width="3"/>
<rect x="494" y="106.431" width="15.2612" height="10.1291" fill="#3E74FF"/>
<rect x="499.895" y="105" width="3.75893" height="4.04687" rx="1.87946" stroke="#3E74FF" stroke-width="2"/>
<circle cx="501.631" cy="110.19" r="1.5837" fill="white"/>
<path d="M501.631 110.046L500.047 113.79H503.215L501.631 110.046Z" fill="white"/>
<path d="M150 111L302 111" stroke="#222222" stroke-width="3"/>
<path fill-rule="evenodd" clip-rule="evenodd" d="M145.187 67.6055H49.0415C46.4937 67.6055 44.214 69.751 44.214 72.4329V135.592H150.015V72.4329C150.015 69.751 147.735 67.6055 145.187 67.6055Z" fill="#E0ECFF" stroke="#3E74FF" stroke-miterlimit="10"/>
<path d="M97.0473 72.2989C97.4917 72.2989 97.8519 71.9387 97.8519 71.4943C97.8519 71.05 97.4917 70.6897 97.0473 70.6897C96.603 70.6897 96.2428 71.05 96.2428 71.4943C96.2428 71.9387 96.603 72.2989 97.0473 72.2989Z" fill="#3E74FF"/>
<path d="M154.172 140.419H39.923C34.0228 140.419 30 139.48 30 138.676V135.994C30 135.726 30.2682 135.457 30.5364 135.457H163.424C163.692 135.457 163.961 135.726 163.961 135.994V138.676C164.095 139.48 161.011 140.419 154.172 140.419Z" fill="white"/>
<path fill-rule="evenodd" clip-rule="evenodd" d="M154.172 140.419H39.923C34.0228 140.419 30 139.48 30 138.676V135.994C30 135.726 30.2682 135.457 30.5364 135.457H163.424C163.692 135.457 163.961 135.726 163.961 135.994V138.676C164.095 139.48 161.011 140.419 154.172 140.419Z" stroke="#3E74FF" stroke-miterlimit="10"/>
<path d="M164.094 135.994C164.094 135.726 163.826 135.457 163.558 135.457H30.6699C30.4017 135.457 30.1335 135.726 30.1335 135.994V138.542H164.228V135.994H164.094Z" fill="#E0ECFF"/>
<path d="M154.172 140.419H39.923C34.0228 140.419 30 139.48 30 138.676V135.994C30 135.726 30.2682 135.457 30.5364 135.457H163.424C163.692 135.457 163.961 135.726 163.961 135.994V138.676C164.095 139.48 161.011 140.419 154.172 140.419Z" stroke="#3E74FF" stroke-miterlimit="10"/>
<path d="M145.59 75.1147H48.5051V131.703H145.59V75.1147Z" fill="white"/>
<path fill-rule="evenodd" clip-rule="evenodd" d="M111.664 135.726V136.262C111.664 136.664 110.859 136.798 110.189 136.798H84.0402C83.3697 136.798 82.5651 136.664 82.5651 136.262V135.726" fill="#3E74FF"/>
<circle cx="150.5" cy="71.5" r="20.5" fill="white"/>
<circle cx="361.5" cy="110.5" r="66.5" fill="white" stroke="#F6821F" stroke-width="2"/>
<path d="M376.996 119.379L377.459 117.778C378.03 115.874 377.813 114.108 376.887 112.814C376.417 112.2 375.812 111.701 375.118 111.357C374.424 111.013 373.66 110.833 372.885 110.831L340.109 110.393C340.008 110.392 339.908 110.366 339.818 110.319C339.729 110.271 339.652 110.203 339.595 110.119C339.54 110.036 339.505 109.941 339.492 109.843C339.479 109.744 339.489 109.644 339.52 109.549C339.578 109.39 339.682 109.251 339.818 109.15C339.954 109.049 340.117 108.989 340.286 108.979L373.365 108.586C377.293 108.409 381.541 105.235 383.033 101.366L384.919 96.4543C384.975 96.323 385.001 96.1808 384.994 96.0383C385.002 95.9606 385.002 95.8823 384.994 95.8046C383.972 91.2332 381.48 87.12 377.895 84.0919C374.311 81.0638 369.831 79.2868 365.14 79.0319C360.448 78.7769 355.801 80.0579 351.908 82.6797C348.014 85.3014 345.088 89.1201 343.574 93.5538C342.199 92.5416 340.581 91.9087 338.882 91.7189C337.183 91.5291 335.465 91.7892 333.899 92.4729C332.333 93.1566 330.976 94.2398 329.965 95.6131C328.953 96.9864 328.323 98.6014 328.138 100.295C328.022 101.427 328.105 102.571 328.384 103.674C324.801 103.778 321.399 105.269 318.901 107.83C316.402 110.392 315.003 113.823 315 117.396C314.998 118.059 315.046 118.722 315.143 119.379C315.161 119.534 315.235 119.677 315.35 119.781C315.466 119.886 315.616 119.946 315.772 119.949L376.287 120C376.456 119.986 376.616 119.917 376.744 119.806C376.871 119.694 376.959 119.544 376.996 119.379Z" fill="#F6821F"/>
<path d="M387.581 97.0735C387.28 97.0735 386.99 97.0735 386.694 97.0735C386.647 97.0742 386.599 97.0838 386.555 97.1018C386.48 97.132 386.412 97.1785 386.356 97.238C386.3 97.2976 386.258 97.3688 386.232 97.4467L384.972 101.845C384.415 103.739 384.632 105.486 385.529 106.77C385.988 107.378 386.579 107.872 387.255 108.213C387.931 108.554 388.676 108.734 389.431 108.737L396.243 109.156C396.338 109.16 396.431 109.186 396.515 109.232C396.599 109.278 396.672 109.343 396.727 109.422C396.78 109.505 396.813 109.598 396.826 109.696C396.838 109.794 396.829 109.893 396.8 109.987C396.743 110.144 396.643 110.281 396.512 110.381C396.38 110.481 396.223 110.541 396.059 110.552L388.974 110.965C385.134 111.14 380.992 114.284 379.537 118.123L379.025 119.48C379.003 119.536 378.996 119.597 379.002 119.657C379.009 119.718 379.029 119.775 379.062 119.826C379.094 119.877 379.138 119.919 379.19 119.949C379.241 119.979 379.299 119.997 379.359 120H403.717C403.859 120.001 403.997 119.955 404.11 119.869C404.224 119.784 404.307 119.663 404.347 119.525C405.077 116.892 405.197 114.123 404.696 111.435C404.196 108.747 403.088 106.213 401.461 104.031C399.834 101.849 397.731 100.079 395.317 98.8596C392.904 97.6399 390.244 97.0034 387.547 97L387.581 97.0735Z" fill="#F9AE40"/>
<path d="M339.267 144.328C339.025 142.312 337.499 141.153 335.479 141.153C333.174 141.153 331.414 142.781 331.414 145.636C331.414 148.483 333.144 150.119 335.479 150.119C337.716 150.119 339.067 148.632 339.267 147.026L337.401 147.017C337.226 147.95 336.493 148.487 335.509 148.487C334.184 148.487 333.284 147.503 333.284 145.636C333.284 143.821 334.171 142.786 335.522 142.786C336.532 142.786 337.26 143.369 337.401 144.328H339.267ZM342.372 141.273H340.556V150H342.372V141.273ZM346.783 150.128C348.769 150.128 350.005 148.768 350.005 146.753C350.005 144.724 348.769 143.369 346.783 143.369C344.798 143.369 343.562 144.724 343.562 146.753C343.562 148.768 344.798 150.128 346.783 150.128ZM346.792 148.722C345.876 148.722 345.407 147.882 345.407 146.74C345.407 145.598 345.876 144.754 346.792 144.754C347.691 144.754 348.16 145.598 348.16 146.74C348.16 147.882 347.691 148.722 346.792 148.722ZM355.383 147.213C355.387 148.091 354.786 148.551 354.134 148.551C353.448 148.551 353.005 148.07 353.001 147.298V143.455H351.185V147.622C351.19 149.152 352.085 150.085 353.401 150.085C354.386 150.085 355.093 149.578 355.387 148.811H355.455V150H357.198V143.455H355.383V147.213ZM361.062 150.107C362.119 150.107 362.669 149.497 362.92 148.952H362.997V150H364.787V141.273H362.975V144.554H362.92C362.677 144.021 362.153 143.369 361.058 143.369C359.622 143.369 358.407 144.486 358.407 146.736C358.407 148.926 359.571 150.107 361.062 150.107ZM361.637 148.662C360.747 148.662 360.261 147.869 360.261 146.727C360.261 145.594 360.738 144.814 361.637 144.814C362.52 144.814 363.014 145.56 363.014 146.727C363.014 147.895 362.511 148.662 361.637 148.662ZM369.799 143.455H368.499V143.016C368.499 142.572 368.678 142.312 369.211 142.312C369.428 142.312 369.65 142.359 369.795 142.406L370.114 141.043C369.888 140.974 369.39 140.864 368.832 140.864C367.6 140.864 366.684 141.558 366.684 142.982V143.455H365.759V144.818H366.684V150H368.499V144.818H369.799V143.455ZM372.723 141.273H370.908V150H372.723V141.273ZM376.044 150.124C377.011 150.124 377.638 149.702 377.957 149.092H378.009V150H379.73V145.585C379.73 144.026 378.409 143.369 376.952 143.369C375.384 143.369 374.352 144.119 374.101 145.312L375.78 145.449C375.903 145.014 376.291 144.695 376.943 144.695C377.561 144.695 377.915 145.006 377.915 145.543V145.568C377.915 145.99 377.467 146.045 376.33 146.156C375.034 146.276 373.871 146.71 373.871 148.172C373.871 149.467 374.795 150.124 376.044 150.124ZM376.564 148.871C376.006 148.871 375.605 148.611 375.605 148.112C375.605 147.601 376.027 147.349 376.666 147.26C377.062 147.205 377.71 147.111 377.928 146.966V147.661C377.928 148.347 377.361 148.871 376.564 148.871ZM381.138 150H382.954V146.297C382.954 145.491 383.542 144.938 384.343 144.938C384.594 144.938 384.94 144.98 385.11 145.036V143.425C384.948 143.386 384.722 143.361 384.539 143.361C383.806 143.361 383.205 143.787 382.967 144.597H382.898V143.455H381.138V150ZM388.727 150.128C390.346 150.128 391.437 149.339 391.693 148.125L390.014 148.014C389.831 148.513 389.362 148.773 388.757 148.773C387.849 148.773 387.274 148.172 387.274 147.196V147.192H391.731V146.693C391.731 144.469 390.385 143.369 388.654 143.369C386.728 143.369 385.48 144.737 385.48 146.757C385.48 148.832 386.711 150.128 388.727 150.128ZM387.274 146.067C387.312 145.321 387.879 144.724 388.684 144.724C389.473 144.724 390.018 145.287 390.022 146.067H387.274Z" fill="#222222"/>
<path d="M163.821 86.9685C159.894 84.8833 155.544 84.3223 154.733 82.4198C154.119 80.978 154.733 76.1522 154.733 76.1522L145.243 76.0529C145.243 76.0529 145.843 80.9462 145.243 82.4198C144.516 84.2069 140.562 84.783 136.933 86.8137" fill="#E0ECFF"/>
<path d="M163.821 86.9685C159.894 84.8833 155.544 84.3223 154.733 82.4198C154.119 80.978 154.733 76.1522 154.733 76.1522L145.243 76.0529C145.243 76.0529 145.843 80.9462 145.243 82.4198C144.516 84.2069 140.562 84.783 136.933 86.8137" stroke="#0F006B" stroke-width="1.059" stroke-miterlimit="10"/>
<path d="M150.466 91.9327C155.37 91.9386 160.111 90.1765 163.82 86.9694C159.894 84.8845 155.544 84.3228 154.733 82.42C154.591 82.0198 154.51 81.6004 154.494 81.1761C153.008 81.4758 151.497 81.6377 149.982 81.6598C148.467 81.6379 146.958 81.476 145.473 81.1761C145.456 81.5997 145.378 82.0187 145.241 82.42C144.514 84.2075 140.561 84.7842 136.932 86.8149C140.666 90.1186 145.481 91.9393 150.466 91.9327V91.9327Z" fill="#3E74FF" stroke="#0F006B" stroke-width="1.075" stroke-miterlimit="10" stroke-linecap="round"/>
<path d="M142.828 67.6863C142.752 67.0739 141.844 65.9736 140.773 66.6793C139.724 67.3686 140.731 72.5237 143.656 72.3321" fill="#E0ECFF"/>
<path d="M142.828 67.6863C142.752 67.0739 141.844 65.9736 140.773 66.6793C139.724 67.3686 140.731 72.5237 143.656 72.3321" stroke="#0F006B" stroke-width="1.059" stroke-miterlimit="10"/>
<path d="M157.183 67.6863C157.259 67.0739 158.166 65.9736 159.238 66.6793C160.287 67.3686 159.279 72.5237 156.355 72.3321" fill="#E0ECFF"/>
<path d="M157.183 67.6863C157.259 67.0739 158.166 65.9736 159.238 66.6793C160.287 67.3686 159.279 72.5237 156.355 72.3321" stroke="#0F006B" stroke-width="1.059" stroke-miterlimit="10"/>
<path d="M157.368 64.0994C157.426 66.119 157.196 68.1365 156.684 70.091C156.404 71.0794 156.075 74.1105 155.696 74.8962C154.741 76.8756 152.283 79.079 150.048 79.079C147.813 79.079 145.609 76.877 144.4 74.8966C143.939 74.1395 143.572 71.1032 143.285 70.0931C142.621 67.7547 142.729 65.6132 142.729 64.0994C142.729 59.5074 145.811 56.4504 150.045 56.4504C154.278 56.4504 157.368 59.5074 157.368 64.0994Z" fill="#E0ECFF" stroke="#0F006B" stroke-width="1.059" stroke-miterlimit="10"/>
<path d="M156.079 63.1284C156.079 63.1284 148.514 63.8404 145.062 61.3528C145.062 61.3528 144.055 65.5919 142.829 67.6862C142.829 67.6862 141.316 61.255 143.519 60.4028C143.519 60.4028 143.336 56.8346 147.271 55.9209C147.271 55.9209 147.068 56.8101 147.728 56.7842C148.388 56.7584 153.628 53.7378 157.368 56.0985C161.108 58.4591 158.237 61.911 158.237 61.911C158.237 61.911 158.338 65.5583 157.437 67.098L157.11 68.1427C157.11 68.1427 156.164 64.8411 156.079 63.1284Z" fill="#0F006B" stroke="#0F006B" stroke-width="0.781" stroke-linejoin="round"/>
<path d="M150.466 91.9328C161.77 91.9328 170.933 82.7696 170.933 71.4664C170.933 60.1631 161.77 51 150.466 51C139.163 51 130 60.1631 130 71.4664C130 82.7696 139.163 91.9328 150.466 91.9328Z" stroke="#3E74FF" stroke-miterlimit="10"/>
<path d="M682.523 76.1926C681.21 76.1919 679.9 76.3174 678.611 76.5673C678.106 59.6052 663.325 46 645.163 46C630.108 46 617.378 55.3476 613.174 68.206C611.876 68.0022 610.565 67.8999 609.251 67.8999C596.187 67.8999 585.595 77.8581 585.595 90.1417C585.595 102.405 596.151 112.352 609.186 112.383H682.523C693.152 112.383 701.768 104.285 701.768 94.288C701.768 84.2916 693.152 76.1926 682.523 76.1926Z" fill="#E0ECFF"/>
<path d="M573.118 99.9942H569V121.186H573.118V99.9942Z" fill="#3E74FF"/>
<path d="M680.536 99.9942H676.418V121.186H680.536V99.9942Z" fill="#3E74FF"/>
<path d="M578.758 124.961L578.758 128.983L670.777 128.978L670.777 124.957L578.758 124.961Z" fill="white" stroke="#3E74FF" stroke-width="1.5" stroke-miterlimit="10"/>
<path d="M676.418 96.2389H573.117V124.958H676.418V96.2389Z" fill="#E0ECFF" stroke="#3E74FF" stroke-width="1.5" stroke-miterlimit="10"/>
<path d="M671.956 120.908V100.287H577.58V120.908H671.956Z" fill="white"/>
<path d="M585.24 106.11H582.953V108.344H585.24V106.11Z" fill="#3E74FF"/>
<path d="M585.24 112.832H582.953V115.066H585.24V112.832Z" fill="#3E74FF"/>
<path d="M588.371 109.29H586.084V111.524H588.371V109.29Z" fill="#3E74FF"/>
<path d="M591.155 106.11H588.868V108.344H591.155V106.11Z" fill="#3E74FF"/>
<path d="M591.155 112.832H588.868V115.066H591.155V112.832Z" fill="#3E74FF"/>
<path d="M594.112 109.29H591.826V111.524H594.112V109.29Z" fill="#3E74FF"/>
<path d="M597.611 106.11H595.324V108.344H597.611V106.11Z" fill="#3E74FF"/>
<path d="M597.611 112.832H595.324V115.066H597.611V112.832Z" fill="#3E74FF"/>
<path d="M600.568 109.29H598.282V111.524H600.568V109.29Z" fill="#3E74FF"/>
<path d="M604.166 106.11H601.879V108.344H604.166V106.11Z" fill="#3E74FF"/>
<path d="M604.166 112.832H601.879V115.066H604.166V112.832Z" fill="#3E74FF"/>
<path d="M606.95 109.29H604.663V111.524H606.95V109.29Z" fill="#3E74FF"/>
<path d="M610.081 106.11H607.795V108.344H610.081V106.11Z" fill="#3E74FF"/>
<path d="M610.081 112.832H607.795V115.066H610.081V112.832Z" fill="#3E74FF"/>
<path d="M612.691 109.29H610.404V111.524H612.691V109.29Z" fill="#3E74FF"/>
<path d="M615.997 106.11H613.71V108.344H615.997V106.11Z" fill="#3E74FF"/>
<path d="M615.997 112.832H613.71V115.066H615.997V112.832Z" fill="#3E74FF"/>
<path d="M618.432 109.29H616.146V111.524H618.432V109.29Z" fill="#3E74FF"/>
<path d="M664.459 113.371C666.027 113.371 667.298 112.129 667.298 110.598C667.298 109.067 666.027 107.826 664.459 107.826C662.891 107.826 661.62 109.067 661.62 110.598C661.62 112.129 662.891 113.371 664.459 113.371Z" fill="#3E74FF"/>
<path d="M656.296 110.598H626.233" stroke="#3E74FF" stroke-width="1.5" stroke-miterlimit="10"/>
<path d="M80.4519 165H77.3581V156.273H80.4775C81.3553 156.273 82.111 156.447 82.7445 156.797C83.378 157.143 83.8652 157.642 84.2061 158.293C84.5499 158.943 84.7218 159.722 84.7218 160.628C84.7218 161.537 84.5499 162.318 84.2061 162.972C83.8652 163.625 83.3752 164.126 82.736 164.476C82.0996 164.825 81.3382 165 80.4519 165ZM79.2033 163.419H80.3752C80.9206 163.419 81.3794 163.322 81.7516 163.129C82.1266 162.933 82.4078 162.631 82.5953 162.222C82.7857 161.81 82.8809 161.278 82.8809 160.628C82.8809 159.983 82.7857 159.456 82.5953 159.047C82.4078 158.638 82.128 158.337 81.7559 158.143C81.3837 157.95 80.9249 157.854 80.3794 157.854H79.2033V163.419ZM89.0375 165.128C88.3642 165.128 87.7846 164.991 87.2988 164.719C86.8159 164.443 86.4437 164.054 86.1824 163.551C85.921 163.045 85.7903 162.447 85.7903 161.757C85.7903 161.084 85.921 160.493 86.1824 159.984C86.4437 159.476 86.8116 159.08 87.286 158.795C87.7633 158.511 88.323 158.369 88.965 158.369C89.3968 158.369 89.7988 158.439 90.171 158.578C90.546 158.714 90.8727 158.92 91.1511 159.196C91.4324 159.472 91.6511 159.818 91.8074 160.236C91.9636 160.651 92.0417 161.136 92.0417 161.693V162.192H86.5147V161.067H90.3329C90.3329 160.805 90.2761 160.574 90.1625 160.372C90.0488 160.17 89.8912 160.013 89.6895 159.899C89.4906 159.783 89.2591 159.724 88.9949 159.724C88.7193 159.724 88.475 159.788 88.2619 159.916C88.0517 160.041 87.8869 160.21 87.7676 160.423C87.6483 160.634 87.5872 160.868 87.5843 161.126V162.196C87.5843 162.52 87.644 162.8 87.7633 163.036C87.8855 163.271 88.0574 163.453 88.2789 163.581C88.5005 163.709 88.7633 163.773 89.0673 163.773C89.269 163.773 89.4537 163.744 89.6213 163.688C89.7889 163.631 89.9324 163.545 90.0517 163.432C90.171 163.318 90.2619 163.179 90.3244 163.014L92.0034 163.125C91.9181 163.528 91.7434 163.881 91.4792 164.182C91.2179 164.48 90.8798 164.713 90.465 164.881C90.0531 165.045 89.5772 165.128 89.0375 165.128ZM99.1529 158.455L96.8645 165H94.8191L92.5307 158.455H94.4483L95.8077 163.138H95.8759L97.231 158.455H99.1529ZM100.082 165V158.455H101.897V165H100.082ZM100.994 157.611C100.724 157.611 100.492 157.521 100.299 157.342C100.109 157.161 100.014 156.943 100.014 156.69C100.014 156.44 100.109 156.226 100.299 156.047C100.492 155.865 100.724 155.774 100.994 155.774C101.264 155.774 101.494 155.865 101.684 156.047C101.877 156.226 101.974 156.44 101.974 156.69C101.974 156.943 101.877 157.161 101.684 157.342C101.494 157.521 101.264 157.611 100.994 157.611ZM106.309 165.128C105.638 165.128 105.062 164.986 104.579 164.702C104.099 164.415 103.729 164.017 103.471 163.509C103.215 163 103.087 162.415 103.087 161.753C103.087 161.082 103.216 160.494 103.475 159.989C103.736 159.48 104.107 159.084 104.587 158.8C105.067 158.513 105.638 158.369 106.3 158.369C106.871 158.369 107.371 158.473 107.8 158.68C108.229 158.888 108.569 159.179 108.819 159.554C109.069 159.929 109.206 160.369 109.232 160.875H107.519C107.471 160.548 107.343 160.286 107.135 160.087C106.931 159.885 106.662 159.784 106.33 159.784C106.049 159.784 105.803 159.861 105.593 160.014C105.385 160.165 105.224 160.385 105.107 160.675C104.991 160.964 104.932 161.315 104.932 161.727C104.932 162.145 104.989 162.5 105.103 162.793C105.219 163.085 105.383 163.308 105.593 163.462C105.803 163.615 106.049 163.692 106.33 163.692C106.537 163.692 106.724 163.649 106.888 163.564C107.056 163.479 107.194 163.355 107.302 163.193C107.412 163.028 107.485 162.831 107.519 162.601H109.232C109.204 163.101 109.067 163.541 108.823 163.922C108.581 164.3 108.248 164.595 107.822 164.808C107.395 165.021 106.891 165.128 106.309 165.128ZM113.377 165.128C112.704 165.128 112.124 164.991 111.639 164.719C111.156 164.443 110.784 164.054 110.522 163.551C110.261 163.045 110.13 162.447 110.13 161.757C110.13 161.084 110.261 160.493 110.522 159.984C110.784 159.476 111.151 159.08 111.626 158.795C112.103 158.511 112.663 158.369 113.305 158.369C113.737 158.369 114.139 158.439 114.511 158.578C114.886 158.714 115.213 158.92 115.491 159.196C115.772 159.472 115.991 159.818 116.147 160.236C116.303 160.651 116.382 161.136 116.382 161.693V162.192H110.855V161.067H114.673C114.673 160.805 114.616 160.574 114.502 160.372C114.389 160.17 114.231 160.013 114.029 159.899C113.83 159.783 113.599 159.724 113.335 159.724C113.059 159.724 112.815 159.788 112.602 159.916C112.392 160.041 112.227 160.21 112.107 160.423C111.988 160.634 111.927 160.868 111.924 161.126V162.196C111.924 162.52 111.984 162.8 112.103 163.036C112.225 163.271 112.397 163.453 112.619 163.581C112.84 163.709 113.103 163.773 113.407 163.773C113.609 163.773 113.794 163.744 113.961 163.688C114.129 163.631 114.272 163.545 114.392 163.432C114.511 163.318 114.602 163.179 114.664 163.014L116.343 163.125C116.258 163.528 116.083 163.881 115.819 164.182C115.558 164.48 115.22 164.713 114.805 164.881C114.393 165.045 113.917 165.128 113.377 165.128Z" fill="#222222"/>
<path d="M589.362 158L586.865 149.273H588.88L590.325 155.337H590.397L591.991 149.273H593.717L595.306 155.349H595.383L596.828 149.273H598.843L596.346 158H594.548L592.886 152.294H592.818L591.16 158H589.362ZM602.077 158.128C601.403 158.128 600.824 157.991 600.338 157.719C599.855 157.443 599.483 157.054 599.221 156.551C598.96 156.045 598.829 155.447 598.829 154.757C598.829 154.084 598.96 153.493 599.221 152.984C599.483 152.476 599.851 152.08 600.325 151.795C600.802 151.511 601.362 151.369 602.004 151.369C602.436 151.369 602.838 151.439 603.21 151.578C603.585 151.714 603.912 151.92 604.19 152.196C604.471 152.472 604.69 152.818 604.846 153.236C605.003 153.651 605.081 154.136 605.081 154.693V155.192H599.554V154.067H603.372C603.372 153.805 603.315 153.574 603.202 153.372C603.088 153.17 602.93 153.013 602.729 152.899C602.53 152.783 602.298 152.724 602.034 152.724C601.758 152.724 601.514 152.788 601.301 152.916C601.091 153.041 600.926 153.21 600.807 153.423C600.687 153.634 600.626 153.868 600.623 154.126V155.196C600.623 155.52 600.683 155.8 600.802 156.036C600.925 156.271 601.096 156.453 601.318 156.581C601.54 156.709 601.802 156.773 602.106 156.773C602.308 156.773 602.493 156.744 602.66 156.688C602.828 156.631 602.971 156.545 603.091 156.432C603.21 156.318 603.301 156.179 603.363 156.014L605.042 156.125C604.957 156.528 604.782 156.881 604.518 157.182C604.257 157.48 603.919 157.713 603.504 157.881C603.092 158.045 602.616 158.128 602.077 158.128ZM606.3 158V149.273H608.115V152.554H608.17C608.25 152.378 608.365 152.199 608.515 152.017C608.669 151.832 608.868 151.679 609.112 151.557C609.359 151.432 609.666 151.369 610.032 151.369C610.51 151.369 610.95 151.494 611.354 151.744C611.757 151.991 612.079 152.365 612.321 152.865C612.562 153.362 612.683 153.986 612.683 154.736C612.683 155.466 612.565 156.082 612.329 156.585C612.096 157.085 611.778 157.464 611.375 157.723C610.974 157.979 610.525 158.107 610.028 158.107C609.676 158.107 609.376 158.048 609.129 157.932C608.885 157.815 608.684 157.669 608.528 157.493C608.372 157.314 608.253 157.134 608.17 156.952H608.089V158H606.3ZM608.077 154.727C608.077 155.116 608.131 155.456 608.238 155.746C608.346 156.036 608.503 156.261 608.707 156.423C608.912 156.582 609.16 156.662 609.453 156.662C609.748 156.662 609.998 156.581 610.203 156.419C610.407 156.254 610.562 156.027 610.667 155.737C610.775 155.445 610.829 155.108 610.829 154.727C610.829 154.349 610.777 154.017 610.672 153.73C610.567 153.443 610.412 153.219 610.207 153.057C610.003 152.895 609.751 152.814 609.453 152.814C609.157 152.814 608.907 152.892 608.703 153.048C608.501 153.205 608.346 153.426 608.238 153.713C608.131 154 608.077 154.338 608.077 154.727ZM619.34 153.321L617.678 153.423C617.65 153.281 617.589 153.153 617.495 153.04C617.401 152.923 617.278 152.831 617.124 152.763C616.974 152.692 616.794 152.656 616.583 152.656C616.302 152.656 616.065 152.716 615.872 152.835C615.678 152.952 615.582 153.108 615.582 153.304C615.582 153.46 615.644 153.592 615.769 153.7C615.894 153.808 616.109 153.895 616.413 153.96L617.597 154.199C618.234 154.33 618.708 154.54 619.021 154.83C619.333 155.119 619.49 155.5 619.49 155.972C619.49 156.401 619.363 156.777 619.11 157.101C618.86 157.425 618.517 157.678 618.079 157.859C617.644 158.038 617.143 158.128 616.575 158.128C615.708 158.128 615.018 157.947 614.504 157.587C613.992 157.223 613.693 156.729 613.605 156.104L615.39 156.01C615.444 156.274 615.575 156.476 615.782 156.615C615.99 156.751 616.255 156.82 616.579 156.82C616.897 156.82 617.153 156.759 617.346 156.636C617.542 156.511 617.642 156.351 617.644 156.155C617.642 155.99 617.572 155.855 617.436 155.75C617.299 155.642 617.089 155.56 616.805 155.503L615.671 155.277C615.032 155.149 614.556 154.928 614.244 154.612C613.934 154.297 613.779 153.895 613.779 153.406C613.779 152.986 613.893 152.624 614.12 152.32C614.35 152.016 614.673 151.781 615.088 151.616C615.505 151.452 615.994 151.369 616.553 151.369C617.38 151.369 618.031 151.544 618.505 151.893C618.982 152.243 619.261 152.719 619.34 153.321ZM620.633 158V151.455H622.448V158H620.633ZM621.545 150.611C621.275 150.611 621.043 150.521 620.85 150.342C620.66 150.161 620.564 149.943 620.564 149.69C620.564 149.44 620.66 149.226 620.85 149.047C621.043 148.865 621.275 148.774 621.545 148.774C621.814 148.774 622.045 148.865 622.235 149.047C622.428 149.226 622.525 149.44 622.525 149.69C622.525 149.943 622.428 150.161 622.235 150.342C622.045 150.521 621.814 150.611 621.545 150.611ZM627.384 151.455V152.818H623.442V151.455H627.384ZM624.337 149.886H626.152V155.989C626.152 156.156 626.178 156.287 626.229 156.381C626.28 156.472 626.351 156.536 626.442 156.572C626.536 156.609 626.644 156.628 626.766 156.628C626.851 156.628 626.936 156.621 627.021 156.607C627.107 156.589 627.172 156.577 627.218 156.568L627.503 157.919C627.412 157.947 627.284 157.98 627.119 158.017C626.955 158.057 626.754 158.081 626.519 158.089C626.081 158.107 625.698 158.048 625.368 157.915C625.041 157.781 624.787 157.574 624.605 157.293C624.423 157.011 624.334 156.656 624.337 156.227V149.886ZM631.479 158.128C630.806 158.128 630.226 157.991 629.74 157.719C629.257 157.443 628.885 157.054 628.624 156.551C628.362 156.045 628.232 155.447 628.232 154.757C628.232 154.084 628.362 153.493 628.624 152.984C628.885 152.476 629.253 152.08 629.727 151.795C630.205 151.511 630.764 151.369 631.406 151.369C631.838 151.369 632.24 151.439 632.612 151.578C632.987 151.714 633.314 151.92 633.593 152.196C633.874 152.472 634.093 152.818 634.249 153.236C634.405 153.651 634.483 154.136 634.483 154.693V155.192H628.956V154.067H632.774C632.774 153.805 632.718 153.574 632.604 153.372C632.49 153.17 632.333 153.013 632.131 152.899C631.932 152.783 631.7 152.724 631.436 152.724C631.161 152.724 630.916 152.788 630.703 152.916C630.493 153.041 630.328 153.21 630.209 153.423C630.09 153.634 630.029 153.868 630.026 154.126V155.196C630.026 155.52 630.085 155.8 630.205 156.036C630.327 156.271 630.499 156.453 630.72 156.581C630.942 156.709 631.205 156.773 631.509 156.773C631.71 156.773 631.895 156.744 632.063 156.688C632.23 156.631 632.374 156.545 632.493 156.432C632.612 156.318 632.703 156.179 632.766 156.014L634.445 156.125C634.36 156.528 634.185 156.881 633.921 157.182C633.659 157.48 633.321 157.713 632.906 157.881C632.494 158.045 632.019 158.128 631.479 158.128ZM642.246 148.864L639.434 159.312H637.87L640.682 148.864H642.246ZM647.437 158H645.459L648.472 149.273H650.85L653.858 158H651.881L649.695 151.267H649.627L647.437 158ZM647.313 154.57H651.983V156.01H647.313V154.57ZM654.909 158V149.273H658.352C659.014 149.273 659.578 149.399 660.044 149.652C660.51 149.902 660.865 150.25 661.109 150.696C661.356 151.139 661.48 151.651 661.48 152.23C661.48 152.81 661.355 153.321 661.105 153.764C660.855 154.207 660.493 154.553 660.018 154.8C659.547 155.047 658.976 155.17 658.305 155.17H656.111V153.692H658.007C658.362 153.692 658.655 153.631 658.885 153.509C659.118 153.384 659.291 153.212 659.405 152.993C659.521 152.771 659.579 152.517 659.579 152.23C659.579 151.94 659.521 151.687 659.405 151.472C659.291 151.253 659.118 151.084 658.885 150.964C658.652 150.842 658.356 150.781 657.998 150.781H656.754V158H654.909ZM664.524 149.273V158H662.678V149.273H664.524Z" fill="#222222"/>
<path d="M125.818 81.1811H65.2702V127.952H125.818V81.1811Z" fill="white"/>
<path d="M65.0895 81V128.133H126V81H65.0895ZM65.4931 127.729V85.6562H125.596V127.729H65.4931Z" fill="#3E74FF" stroke="#3E74FF"/>
<path d="M89.3807 90.8549H69.2585V108.258H89.3807V90.8549Z" fill="#A8CBFF"/>
<path d="M121.286 90.8549H92.4625V105.539H121.286V90.8549Z" fill="#E0ECFF"/>
<path d="M92.4625 101.55L99.5325 97.4067L107.826 99.2196L115.44 93.3927L121.286 95.9824" stroke="white" stroke-width="2" stroke-linecap="round" stroke-linejoin="bevel"/>
<path d="M89.3805 110.911H69.2583V112.362H89.3805V110.911Z" fill="#E0ECFF"/>
<path d="M100.258 106.989H92.4625V108.258H100.258V106.989Z" fill="#A8CBFF"/>
<path d="M110.772 106.989H102.796V108.258H110.772V106.989Z" fill="#A8CBFF"/>
<path d="M121.287 106.989H113.31V108.258H121.287V106.989Z" fill="#A8CBFF"/>
<path d="M89.3805 113.993H69.2583V115.443H89.3805V113.993Z" fill="#E0ECFF"/>
<path d="M89.3805 117.075H69.2583V118.525H89.3805V117.075Z" fill="#E0ECFF"/>
<path d="M89.3805 120.157H69.2583V121.607H89.3805V120.157Z" fill="#E0ECFF"/>
<path d="M85.0297 123.238H69.2583V124.688H85.0297V123.238Z" fill="#E0ECFF"/>
<path d="M99.8815 118.683V123.962H95.0659V118.683H99.8815Z" fill="#A8CBFF"/>
<path d="M105.901 117.401V123.962H101.086V117.401H105.901Z" fill="#A8CBFF"/>
<path d="M117.942 110.887V123.961H113.126V110.887H117.942Z" fill="#A8CBFF"/>
<path d="M111.922 116.502V123.961H107.106V116.502H111.922Z" fill="#A8CBFF"/>
<path d="M91.8443 123.819H122.814V124.085H91.8443V123.819Z" fill="#A8CBFF"/>
<g clip-path="url(#clip0_0_1)">
<path d="M80.9698 102.919H78.3113C76.7703 102.921 75.2927 103.533 74.2028 104.623C73.1129 105.712 72.4995 107.189 72.4973 108.731L73.0466 109.28H86.229L86.7783 108.731C86.7761 107.19 86.1635 105.714 85.0748 104.625C83.986 103.535 82.5099 102.922 80.9698 102.919Z" fill="white"/>
<path d="M79.6515 102.161C80.412 102.161 81.1554 101.936 81.7876 101.513C82.4199 101.091 82.9127 100.49 83.2037 99.7877C83.4947 99.0851 83.5709 98.312 83.4225 97.5662C83.2742 96.8204 82.908 96.1353 82.3703 95.5976C81.8326 95.0599 81.1475 94.6937 80.4016 94.5453C79.6558 94.397 78.8827 94.4731 78.1802 94.7641C77.4776 95.0551 76.8771 95.5479 76.4546 96.1802C76.0322 96.8125 75.8067 97.5559 75.8067 98.3163C75.8067 99.336 76.2118 100.314 76.9328 101.035C77.6539 101.756 78.6318 102.161 79.6515 102.161Z" fill="white"/>
</g>
<rect x="65" y="81" width="60.5338" height="7.35457" fill="#3E74FF"/>
<path d="M68.4727 85.6825C69.1408 85.6825 69.6825 85.1408 69.6825 84.4727C69.6825 83.8046 69.1408 83.2629 68.4727 83.2629C67.8046 83.2629 67.2629 83.8046 67.2629 84.4727C67.2629 85.1408 67.8046 85.6825 68.4727 85.6825Z" fill="white"/>
<path d="M72.3848 85.6825C73.053 85.6825 73.5946 85.1408 73.5946 84.4727C73.5946 83.8046 73.053 83.2629 72.3848 83.2629C71.7167 83.2629 71.1751 83.8046 71.1751 84.4727C71.1751 85.1408 71.7167 85.6825 72.3848 85.6825Z" fill="white"/>
<path d="M76.2979 85.6825C76.966 85.6825 77.5077 85.1408 77.5077 84.4727C77.5077 83.8046 76.966 83.2629 76.2979 83.2629C75.6298 83.2629 75.0881 83.8046 75.0881 84.4727C75.0881 85.1408 75.6298 85.6825 76.2979 85.6825Z" fill="white"/>
<path d="M691.549 138.283L691.549 124.739L691.549 117L661.961 117L661.961 138.283L691.549 138.283Z" fill="white" stroke="#3E74FF" stroke-width="2"/>
<rect x="665.595" y="120.634" width="21.8021" height="4.15278" fill="#A8CBFF"/>
<rect x="665.595" y="126.863" width="16.6111" height="1.03819" fill="#A8CBFF"/>
<rect x="665.595" y="128.939" width="11.4201" height="1.03819" fill="#A8CBFF"/>
<rect x="665.595" y="134.13" width="17.6493" height="1.03819" fill="#A8CBFF"/>
<rect x="-1" y="-1" width="3.19097" height="3.19097" transform="matrix(5.3425e-08 -1 -1 -3.57639e-08 692.145 139.398)" fill="#A8CBFF" stroke="#3E74FF" stroke-width="2"/>
<path d="M686.543 144.484V128.363H695.462V144.484L691.711 140.721L691.003 140.011L690.294 140.721L686.543 144.484Z" fill="#A8CBFF" stroke="#3E74FF" stroke-width="2"/>
<path d="M695.825 133.971L695.825 133.97C696.112 133.603 696.518 133.459 696.742 133.392C696.959 133.328 697.2 133.285 697.375 133.254C697.372 133.25 697.37 133.245 697.367 133.241C697.281 133.08 697.163 132.858 697.077 132.642C696.989 132.42 696.855 132.018 696.953 131.574C697.053 131.123 697.355 130.818 697.526 130.661C697.69 130.511 697.887 130.368 698.029 130.263C698.042 130.254 698.054 130.246 698.065 130.237C698.054 130.229 698.042 130.22 698.03 130.211C697.887 130.107 697.69 129.963 697.526 129.813C697.355 129.656 697.053 129.351 696.953 128.9L695.825 133.971ZM695.825 133.971C695.543 134.333 695.496 134.759 695.482 134.992C695.469 135.222 695.482 135.471 695.491 135.653C695.491 135.654 695.491 135.654 695.491 135.655C695.323 135.606 695.098 135.542 694.884 135.506C694.653 135.467 694.222 135.418 693.802 135.626L693.801 135.626M695.825 133.971L693.801 135.626M693.801 135.626C693.384 135.833 693.159 136.205 693.051 136.406M693.801 135.626L693.051 136.406M685.627 131.573L685.627 131.573C685.725 132.018 685.591 132.42 685.503 132.641C685.417 132.858 685.299 133.079 685.212 133.241C685.21 133.245 685.208 133.25 685.205 133.254C685.379 133.285 685.621 133.328 685.838 133.392C686.063 133.459 686.468 133.603 686.755 133.971C687.037 134.333 687.084 134.759 687.097 134.992C687.111 135.222 687.098 135.471 687.089 135.653C687.089 135.654 687.088 135.654 687.088 135.655C687.257 135.606 687.482 135.542 687.696 135.506C687.927 135.467 688.358 135.418 688.778 135.626L685.627 131.573ZM685.627 131.573C685.526 131.122 685.225 130.817 685.054 130.661C684.89 130.511 684.693 130.367 684.55 130.263C684.538 130.254 684.526 130.245 684.515 130.237C684.526 130.228 684.538 130.22 684.55 130.211C684.693 130.106 684.89 129.963 685.054 129.812C685.225 129.656 685.526 129.351 685.626 128.9L685.627 128.9M685.627 131.573L685.627 128.9M685.627 128.9C685.725 128.455 685.591 128.054 685.503 127.832C685.417 127.616 685.299 127.394 685.213 127.233C685.21 127.228 685.208 127.224 685.205 127.219C685.379 127.189 685.621 127.146 685.838 127.082C686.062 127.015 686.468 126.871 686.754 126.504L686.755 126.503M685.627 128.9L686.755 126.503M686.755 126.503C687.037 126.141 687.084 125.715 687.097 125.482C687.111 125.252 687.098 125.003 687.089 124.821C687.089 124.82 687.089 124.82 687.089 124.819C687.257 124.868 687.482 124.932 687.696 124.968C687.927 125.007 688.358 125.055 688.778 124.848L688.779 124.848M686.755 126.503L688.779 124.848M688.779 124.848C689.196 124.641 689.42 124.268 689.529 124.068C689.631 123.878 689.721 123.661 689.788 123.497C689.918 123.616 690.089 123.768 690.264 123.893C690.457 124.031 690.823 124.262 691.29 124.262C691.757 124.262 692.123 124.03 692.316 123.893C692.49 123.768 692.661 123.616 692.792 123.497C692.859 123.661 692.948 123.878 693.051 124.068C693.159 124.269 693.384 124.642 693.801 124.848L693.801 124.848M688.779 124.848L693.801 124.848M693.801 124.848C694.222 125.056 694.653 125.007 694.884 124.968M693.801 124.848L694.884 124.968M693.051 136.406C692.949 136.596 692.859 136.813 692.792 136.977M693.051 136.406L692.792 136.977M692.792 136.977C692.661 136.858 692.49 136.706 692.316 136.581C692.123 136.443 691.757 136.212 691.29 136.212C690.823 136.212 690.457 136.443 690.264 136.581C690.089 136.706 689.919 136.858 689.788 136.977C689.721 136.813 689.631 136.596 689.529 136.406C689.42 136.205 689.196 135.833 688.778 135.626L692.792 136.977ZM694.884 124.968C695.098 124.932 695.323 124.868 695.491 124.82M694.884 124.968L695.491 124.82M695.491 124.82C695.491 124.82 695.491 124.821 695.491 124.821C695.482 125.003 695.469 125.252 695.482 125.482C695.496 125.715 695.543 126.141 695.825 126.503L695.491 124.82ZM696.742 127.082C696.517 127.016 696.111 126.871 695.825 126.503L696.742 127.082ZM696.742 127.082C696.959 127.147 697.2 127.189 697.374 127.22M696.742 127.082L697.374 127.22M697.374 127.22C697.372 127.224 697.37 127.229 697.367 127.233C697.281 127.394 697.163 127.616 697.077 127.833C696.989 128.054 696.855 128.456 696.953 128.9L697.374 127.22ZM698.42 130.529C698.42 130.528 698.417 130.526 698.413 130.52C698.418 130.526 698.42 130.529 698.42 130.529ZM698.413 129.954C698.417 129.949 698.42 129.946 698.42 129.946C698.42 129.946 698.418 129.949 698.413 129.954ZM697.586 133.703C697.586 133.703 697.584 133.699 697.583 133.69C697.585 133.699 697.586 133.704 697.586 133.703ZM697.845 133.15C697.851 133.147 697.854 133.145 697.855 133.145C697.855 133.145 697.852 133.147 697.845 133.15ZM695.492 136.173C695.492 136.172 695.492 136.167 695.495 136.159C695.493 136.169 695.492 136.173 695.492 136.173ZM695.984 135.777C695.992 135.776 695.996 135.777 695.996 135.777C695.996 135.777 695.992 135.777 695.984 135.777ZM686.583 135.777C686.583 135.776 686.588 135.776 686.596 135.776C686.587 135.777 686.583 135.777 686.583 135.777ZM687.085 136.159C687.087 136.167 687.088 136.172 687.088 136.173C687.088 136.173 687.087 136.169 687.085 136.159ZM684.725 133.145C684.725 133.145 684.729 133.146 684.735 133.15C684.728 133.147 684.725 133.145 684.725 133.145ZM684.997 133.69C684.995 133.698 684.994 133.703 684.994 133.703C684.993 133.703 684.994 133.699 684.997 133.69ZM684.16 129.946C684.16 129.946 684.163 129.948 684.167 129.954C684.162 129.948 684.16 129.946 684.16 129.946ZM684.167 130.52C684.163 130.525 684.16 130.528 684.16 130.528C684.16 130.528 684.162 130.525 684.167 130.52ZM684.735 127.324C684.729 127.327 684.725 127.329 684.725 127.329C684.725 127.328 684.728 127.327 684.735 127.324ZM684.994 126.77C684.994 126.771 684.995 126.775 684.997 126.784C684.994 126.774 684.994 126.77 684.994 126.77ZM687.088 124.301C687.088 124.302 687.087 124.307 687.085 124.315C687.087 124.305 687.088 124.301 687.088 124.301ZM686.596 124.697C686.588 124.698 686.584 124.697 686.584 124.697C686.584 124.697 686.588 124.697 686.596 124.697ZM690.015 123.009C690.015 123.009 690.012 123.013 690.006 123.019C690.012 123.011 690.015 123.008 690.015 123.009ZM689.38 123.153C689.372 123.15 689.367 123.147 689.367 123.147C689.367 123.146 689.371 123.148 689.38 123.153ZM693.212 123.147C693.212 123.147 693.208 123.15 693.199 123.154C693.208 123.148 693.213 123.146 693.212 123.147ZM692.573 123.019C692.568 123.013 692.565 123.009 692.565 123.009C692.565 123.008 692.568 123.012 692.573 123.019ZM692.565 137.466C692.565 137.465 692.568 137.461 692.573 137.455C692.568 137.463 692.565 137.466 692.565 137.466ZM693.2 137.321C693.208 137.324 693.213 137.327 693.213 137.327C693.213 137.328 693.209 137.326 693.2 137.321ZM689.38 137.321C689.371 137.326 689.367 137.328 689.367 137.327C689.367 137.327 689.372 137.324 689.38 137.321ZM690.015 137.466C690.015 137.466 690.012 137.463 690.007 137.455C690.012 137.461 690.015 137.465 690.015 137.466ZM695.492 124.302C695.492 124.301 695.493 124.306 695.495 124.315C695.492 124.307 695.492 124.302 695.492 124.302ZM695.984 124.698C695.993 124.697 695.997 124.697 695.997 124.697C695.996 124.698 695.992 124.698 695.984 124.698ZM697.583 126.784C697.584 126.776 697.586 126.771 697.586 126.771C697.586 126.771 697.585 126.775 697.583 126.784ZM697.845 127.325C697.852 127.328 697.855 127.329 697.855 127.329C697.855 127.329 697.851 127.328 697.845 127.325Z" fill="#3E74FF" stroke="#3E74FF" stroke-width="2"/>
<circle cx="691.29" cy="130.237" r="3.59772" fill="white" stroke="#A8CBFF" stroke-width="2"/>
<circle cx="225.5" cy="110.5" r="14" fill="white" stroke="black" stroke-width="3"/>
<rect x="218" y="106.431" width="15.2612" height="10.1291" fill="#3E74FF"/>
<rect x="223.895" y="105" width="3.75893" height="4.04687" rx="1.87946" stroke="#3E74FF" stroke-width="2"/>
<circle cx="225.631" cy="110.19" r="1.5837" fill="white"/>
<path d="M225.631 110.046L224.047 113.79H227.215L225.631 110.046Z" fill="white"/>
<circle cx="246" cy="86" r="11" fill="black"/>
<path d="M247.569 81.2727V90H245.724V83.0241H245.672L243.674 84.277V82.6406L245.834 81.2727H247.569Z" fill="white"/>
<circle cx="522" cy="86" r="11" fill="black"/>
<path d="M518.928 90V88.6705L522.035 85.794C522.299 85.5384 522.52 85.3082 522.699 85.1037C522.881 84.8991 523.019 84.6989 523.113 84.5028C523.206 84.304 523.253 84.0895 523.253 83.8594C523.253 83.6037 523.195 83.3835 523.079 83.1989C522.962 83.0114 522.803 82.8679 522.601 82.7685C522.4 82.6662 522.171 82.6151 521.915 82.6151C521.648 82.6151 521.415 82.669 521.216 82.777C521.018 82.8849 520.864 83.0398 520.756 83.2415C520.648 83.4432 520.594 83.6832 520.594 83.9616H518.843C518.843 83.3906 518.972 82.8949 519.231 82.4744C519.489 82.054 519.851 81.7287 520.317 81.4986C520.783 81.2685 521.32 81.1534 521.928 81.1534C522.553 81.1534 523.097 81.2642 523.56 81.4858C524.026 81.7045 524.388 82.0085 524.647 82.3977C524.905 82.7869 525.035 83.233 525.035 83.7358C525.035 84.0653 524.969 84.3906 524.839 84.7116C524.711 85.0327 524.482 85.3892 524.153 85.7812C523.823 86.1705 523.358 86.6378 522.759 87.1832L521.485 88.4318V88.4915H525.15V90H518.928Z" fill="white"/>
<defs>
<clipPath id="clip0_0_1">
<rect width="17.5766" height="17.5766" fill="white" transform="translate(70.8493 91.11)"/>
</clipPath>
</defs>
</svg>
