<svg xmlns="http://www.w3.org/2000/svg" width="734" height="215" fill="none" viewBox="0 0 734 215"><path fill="#fff" d="M0 0h734v215H0z"/><path stroke="#222" stroke-width="3" d="M426 111h152"/><circle cx="501.5" cy="110.5" r="14" fill="#fff" stroke="#000" stroke-width="3"/><path fill="#3E74FF" d="M494 106.431h15.261v10.129H494z"/><rect width="3.759" height="4.047" x="499.895" y="105" stroke="#3E74FF" stroke-width="2" rx="1.879"/><circle cx="501.631" cy="110.19" r="1.584" fill="#fff"/><path fill="#fff" d="m501.631 110.046-1.584 3.744h3.168z"/><path stroke="#222" stroke-width="3" d="M150 111h152"/><path fill="#E0ECFF" fill-rule="evenodd" stroke="#3E74FF" stroke-miterlimit="10" d="M145.187 67.606H49.041c-2.547 0-4.827 2.145-4.827 4.827v63.159h105.801v-63.16c0-2.681-2.28-4.826-4.828-4.826Z" clip-rule="evenodd"/><path fill="#3E74FF" d="M97.047 72.299a.805.805 0 1 0 0-1.61.805.805 0 0 0 0 1.61"/><path fill="#fff" d="M154.172 140.419H39.923c-5.9 0-9.923-.939-9.923-1.743v-2.682c0-.268.268-.537.536-.537h132.888c.268 0 .537.269.537.537v2.682c.134.804-2.95 1.743-9.789 1.743"/><path stroke="#3E74FF" stroke-miterlimit="10" d="M154.172 140.419H39.923c-5.9 0-9.923-.939-9.923-1.743v-2.682c0-.268.268-.537.536-.537h132.888c.268 0 .537.269.537.537v2.682c.134.804-2.95 1.743-9.789 1.743Z" clip-rule="evenodd"/><path fill="#E0ECFF" d="M164.094 135.994c0-.268-.268-.537-.536-.537H30.67c-.268 0-.537.269-.537.537v2.548h134.095v-2.548z"/><path stroke="#3E74FF" stroke-miterlimit="10" d="M154.172 140.419H39.923c-5.9 0-9.923-.939-9.923-1.743v-2.682c0-.268.268-.537.536-.537h132.888c.268 0 .537.269.537.537v2.682c.134.804-2.95 1.743-9.789 1.743Z"/><path fill="#fff" d="M145.59 75.115H48.505v56.588h97.085z"/><path fill="#3E74FF" fill-rule="evenodd" d="M111.664 135.726v.536c0 .402-.805.536-1.475.536H84.04c-.67 0-1.475-.134-1.475-.536v-.536" clip-rule="evenodd"/><circle cx="150.5" cy="71.5" r="20.5" fill="#fff"/><circle cx="361.5" cy="110.5" r="66.5" fill="#fff" stroke="#F6821F" stroke-width="2"/><path fill="#F6821F" d="m376.996 119.379.463-1.601c.571-1.904.354-3.67-.572-4.964a5.06 5.06 0 0 0-4.002-1.983l-32.776-.438a.63.63 0 0 1-.617-.55.7.7 0 0 1 .028-.294.87.87 0 0 1 .766-.57l33.079-.393c3.928-.177 8.176-3.351 9.668-7.22l1.886-4.912a.94.94 0 0 0 .075-.416 1 1 0 0 0 0-.233 21.46 21.46 0 0 0-7.099-11.713 21.59 21.59 0 0 0-25.987-1.412 21.48 21.48 0 0 0-8.334 10.874 9.74 9.74 0 0 0-9.675-1.081 9.7 9.7 0 0 0-3.934 3.14 9.66 9.66 0 0 0-1.827 4.682 9.7 9.7 0 0 0 .246 3.379 13.8 13.8 0 0 0-9.483 4.156 13.72 13.72 0 0 0-3.758 11.549.64.64 0 0 0 .629.57l60.515.051a.8.8 0 0 0 .457-.194.8.8 0 0 0 .252-.427"/><path fill="#F9AE40" d="M387.581 97.074h-.887a.4.4 0 0 0-.139.028.56.56 0 0 0-.323.345l-1.26 4.398c-.557 1.894-.34 3.641.557 4.925a5 5 0 0 0 1.726 1.443 4.9 4.9 0 0 0 2.176.524l6.812.419a.62.62 0 0 1 .484.266.67.67 0 0 1 .073.565.87.87 0 0 1-.288.394.84.84 0 0 1-.453.171l-7.085.413c-3.84.175-7.982 3.319-9.437 7.158l-.512 1.357a.38.38 0 0 0 .037.346.37.37 0 0 0 .297.174h24.358a.66.66 0 0 0 .63-.475c.73-2.633.85-5.402.349-8.09a17.85 17.85 0 0 0-3.235-7.404 17.5 17.5 0 0 0-6.144-5.171 17.3 17.3 0 0 0-7.77-1.86z"/><path fill="#222" d="M339.267 144.328c-.242-2.016-1.768-3.175-3.788-3.175-2.305 0-4.065 1.628-4.065 4.483 0 2.847 1.73 4.483 4.065 4.483 2.237 0 3.588-1.487 3.788-3.093l-1.866-.009c-.175.933-.908 1.47-1.892 1.47-1.325 0-2.225-.984-2.225-2.851 0-1.815.887-2.85 2.238-2.85 1.01 0 1.738.583 1.879 1.542zm3.105-3.055h-1.816V150h1.816zm4.411 8.855c1.986 0 3.222-1.36 3.222-3.375 0-2.029-1.236-3.384-3.222-3.384s-3.221 1.355-3.221 3.384c0 2.015 1.236 3.375 3.221 3.375m.009-1.406c-.916 0-1.385-.84-1.385-1.982s.469-1.986 1.385-1.986c.899 0 1.368.844 1.368 1.986s-.469 1.982-1.368 1.982m8.591-1.509c.004.878-.597 1.338-1.249 1.338-.686 0-1.129-.481-1.133-1.253v-3.843h-1.816v4.167c.005 1.53.9 2.463 2.216 2.463.985 0 1.692-.507 1.986-1.274h.068V150h1.743v-6.545h-1.815zm5.679 2.894c1.057 0 1.607-.61 1.858-1.155h.077V150h1.79v-8.727h-1.812v3.281h-.055c-.243-.533-.767-1.185-1.862-1.185-1.436 0-2.651 1.117-2.651 3.367 0 2.19 1.164 3.371 2.655 3.371m.575-1.445c-.89 0-1.376-.793-1.376-1.935 0-1.133.477-1.913 1.376-1.913.883 0 1.377.746 1.377 1.913s-.503 1.935-1.377 1.935m8.162-5.207h-1.3v-.439c0-.444.179-.704.712-.704.217 0 .439.047.584.094l.319-1.363a4.7 4.7 0 0 0-1.282-.179c-1.232 0-2.148.694-2.148 2.118v.473h-.925v1.363h.925V150h1.815v-5.182h1.3zm2.924-2.182h-1.815V150h1.815zm3.321 8.851c.967 0 1.594-.422 1.913-1.032h.052V150h1.721v-4.415c0-1.559-1.321-2.216-2.778-2.216-1.568 0-2.6.75-2.851 1.943l1.679.137c.123-.435.511-.754 1.163-.754.618 0 .972.311.972.848v.025c0 .422-.448.477-1.585.588-1.296.12-2.459.554-2.459 2.016 0 1.295.924 1.952 2.173 1.952m.52-1.253c-.558 0-.959-.26-.959-.759 0-.511.422-.763 1.061-.852.396-.055 1.044-.149 1.262-.294v.695c0 .686-.567 1.21-1.364 1.21m4.574 1.129h1.816v-3.703c0-.806.588-1.359 1.389-1.359.251 0 .597.042.767.098v-1.611a2.7 2.7 0 0 0-.571-.064c-.733 0-1.334.426-1.572 1.236h-.069v-1.142h-1.76zm7.589.128c1.619 0 2.71-.789 2.966-2.003l-1.679-.111c-.183.499-.652.759-1.257.759-.908 0-1.483-.601-1.483-1.577v-.004h4.457v-.499c0-2.224-1.346-3.324-3.077-3.324-1.926 0-3.174 1.368-3.174 3.388 0 2.075 1.231 3.371 3.247 3.371m-1.453-4.061c.038-.746.605-1.343 1.41-1.343.789 0 1.334.563 1.338 1.343z"/><path fill="#E0ECFF" d="M163.821 86.969c-3.927-2.086-8.277-2.647-9.088-4.55-.614-1.441 0-6.267 0-6.267l-9.49-.1s.6 4.894 0 6.368c-.727 1.787-4.681 2.363-8.31 4.394"/><path stroke="#0F006B" stroke-miterlimit="10" stroke-width="1.059" d="M163.821 86.969c-3.927-2.086-8.277-2.647-9.088-4.55-.614-1.441 0-6.267 0-6.267l-9.49-.1s.6 4.894 0 6.368c-.727 1.787-4.681 2.363-8.31 4.394"/><path fill="#3E74FF" stroke="#0F006B" stroke-linecap="round" stroke-miterlimit="10" stroke-width="1.075" d="M150.466 91.933a20.38 20.38 0 0 0 13.354-4.964c-3.926-2.084-8.276-2.646-9.087-4.549-.142-.4-.223-.82-.239-1.244a24.6 24.6 0 0 1-4.512.484 24.6 24.6 0 0 1-4.509-.484 4.4 4.4 0 0 1-.232 1.244c-.727 1.787-4.68 2.364-8.309 4.395a20.38 20.38 0 0 0 13.534 5.118z"/><path fill="#E0ECFF" d="M142.828 67.686c-.076-.612-.984-1.712-2.055-1.007-1.049.69-.042 5.845 2.883 5.653"/><path stroke="#0F006B" stroke-miterlimit="10" stroke-width="1.059" d="M142.828 67.686c-.076-.612-.984-1.712-2.055-1.007-1.049.69-.042 5.845 2.883 5.653"/><path fill="#E0ECFF" d="M157.183 67.686c.076-.612.983-1.712 2.055-1.007 1.049.69.041 5.845-2.883 5.653"/><path stroke="#0F006B" stroke-miterlimit="10" stroke-width="1.059" d="M157.183 67.686c.076-.612.983-1.712 2.055-1.007 1.049.69.041 5.845-2.883 5.653"/><path fill="#E0ECFF" stroke="#0F006B" stroke-miterlimit="10" stroke-width="1.059" d="M157.368 64.1a21.2 21.2 0 0 1-.684 5.991c-.28.988-.609 4.02-.988 4.805-.955 1.98-3.413 4.183-5.648 4.183s-4.439-2.202-5.648-4.182c-.461-.758-.828-3.794-1.115-4.804-.664-2.338-.556-4.48-.556-5.994 0-4.592 3.082-7.649 7.316-7.649 4.233 0 7.323 3.057 7.323 7.65Z"/><path fill="#0F006B" stroke="#0F006B" stroke-linejoin="round" stroke-width=".781" d="M156.079 63.128s-7.565.712-11.017-1.775c0 0-1.007 4.239-2.233 6.333 0 0-1.513-6.431.69-7.283 0 0-.183-3.568 3.752-4.482 0 0-.203.89.457.863.66-.026 5.9-3.046 9.64-.685s.869 5.812.869 5.812.101 3.647-.8 5.187l-.327 1.045s-.946-3.302-1.031-5.015Z"/><path stroke="#3E74FF" stroke-miterlimit="10" d="M150.466 91.933c11.304 0 20.467-9.163 20.467-20.467S161.77 51 150.466 51 130 60.163 130 71.466s9.163 20.467 20.466 20.467Z"/><path fill="#E0ECFF" d="M682.523 76.193a20.5 20.5 0 0 0-3.912.374C678.106 59.605 663.325 46 645.163 46c-15.055 0-27.785 9.348-31.989 22.206a25 25 0 0 0-3.923-.306c-13.064 0-23.656 9.958-23.656 22.242 0 12.263 10.556 22.21 23.591 22.241h73.337c10.629 0 19.245-8.098 19.245-18.095s-8.616-18.095-19.245-18.095"/><path fill="#3E74FF" d="M573.118 99.994H569v21.192h4.118zm107.418 0h-4.118v21.192h4.118z"/><path fill="#fff" stroke="#3E74FF" stroke-miterlimit="10" stroke-width="1.5" d="M578.758 124.961v4.022l92.019-.005v-4.021z"/><path fill="#E0ECFF" stroke="#3E74FF" stroke-miterlimit="10" stroke-width="1.5" d="M676.418 96.239H573.117v28.719h103.301z"/><path fill="#fff" d="M671.956 120.908v-20.621H577.58v20.621z"/><path fill="#3E74FF" d="M585.24 106.11h-2.287v2.234h2.287zm0 6.722h-2.287v2.234h2.287zm3.131-3.542h-2.287v2.234h2.287zm2.784-3.18h-2.287v2.234h2.287zm0 6.722h-2.287v2.234h2.287zm2.957-3.542h-2.286v2.234h2.286zm3.499-3.18h-2.287v2.234h2.287zm0 6.722h-2.287v2.234h2.287zm2.957-3.542h-2.286v2.234h2.286zm3.598-3.18h-2.287v2.234h2.287zm0 6.722h-2.287v2.234h2.287zm2.784-3.542h-2.287v2.234h2.287zm3.131-3.18h-2.286v2.234h2.286zm0 6.722h-2.286v2.234h2.286zm2.61-3.542h-2.287v2.234h2.287zm3.306-3.18h-2.287v2.234h2.287zm0 6.722h-2.287v2.234h2.287zm2.435-3.542h-2.286v2.234h2.286zm46.027 4.081c1.568 0 2.839-1.242 2.839-2.773s-1.271-2.772-2.839-2.772-2.839 1.241-2.839 2.772 1.271 2.773 2.839 2.773"/><path stroke="#3E74FF" stroke-miterlimit="10" stroke-width="1.5" d="M656.296 110.598h-30.063"/><path fill="#222" d="M80.452 165h-3.094v-8.727h3.12q1.316 0 2.267.524a3.53 3.53 0 0 1 1.461 1.496q.516.976.516 2.335 0 1.363-.516 2.344a3.55 3.55 0 0 1-1.47 1.504q-.954.524-2.284.524m-1.249-1.581h1.172q.818 0 1.377-.29.563-.294.843-.907.285-.619.286-1.594 0-.968-.286-1.581a1.85 1.85 0 0 0-.84-.904q-.557-.29-1.376-.289h-1.176zm9.834 1.709q-1.01 0-1.738-.409a2.8 2.8 0 0 1-1.117-1.168q-.392-.759-.392-1.794 0-1.01.392-1.773.393-.762 1.104-1.189.716-.426 1.679-.426.648 0 1.206.209.563.204.98.618.422.414.656 1.04.235.622.235 1.457v.499h-5.527v-1.125h3.818q0-.392-.17-.695a1.2 1.2 0 0 0-.474-.473 1.35 1.35 0 0 0-.694-.175q-.414 0-.733.192-.315.188-.494.507-.179.316-.184.703v1.07q0 .486.18.84.182.353.515.545.332.192.788.192.303 0 .554-.085t.43-.256q.18-.17.273-.418l1.68.111q-.128.605-.525 1.057-.392.447-1.014.699-.618.246-1.428.247m10.116-6.673L96.865 165h-2.046l-2.288-6.545h1.917l1.36 4.683h.068l1.355-4.683zm.929 6.545v-6.545h1.815V165zm.912-7.389a1 1 0 0 1-.695-.269.87.87 0 0 1-.285-.652q0-.375.285-.643a.98.98 0 0 1 .695-.273q.405 0 .69.273.29.268.29.643a.86.86 0 0 1-.29.652.97.97 0 0 1-.69.269m5.315 7.517q-1.006 0-1.73-.426a2.9 2.9 0 0 1-1.108-1.193q-.384-.763-.384-1.756 0-1.006.388-1.764a2.9 2.9 0 0 1 1.112-1.189q.72-.43 1.713-.431.856 0 1.5.311.644.312 1.019.874t.413 1.321h-1.713q-.072-.49-.384-.788-.306-.303-.805-.303a1.22 1.22 0 0 0-.737.23q-.311.226-.486.661-.174.434-.175 1.052 0 .627.171 1.066.175.438.49.669.315.23.737.23.311 0 .558-.128.252-.128.414-.371a1.4 1.4 0 0 0 .217-.592h1.713q-.043.75-.409 1.321a2.47 2.47 0 0 1-1.001.886q-.64.32-1.513.32m7.068 0q-1.01 0-1.738-.409a2.8 2.8 0 0 1-1.117-1.168q-.392-.759-.392-1.794 0-1.01.392-1.773a2.9 2.9 0 0 1 1.104-1.189q.716-.426 1.679-.426.648 0 1.206.209.563.204.98.618.422.414.656 1.04.235.622.235 1.457v.499h-5.527v-1.125h3.818q0-.392-.171-.695a1.2 1.2 0 0 0-.473-.473 1.35 1.35 0 0 0-.694-.175q-.414 0-.733.192-.315.188-.495.507a1.44 1.44 0 0 0-.183.703v1.07q0 .486.179.84.183.353.516.545.332.192.788.192.303 0 .554-.085t.431-.256a1.1 1.1 0 0 0 .272-.418l1.679.111q-.128.605-.524 1.057a2.6 2.6 0 0 1-1.014.699q-.618.246-1.428.247M589.362 158l-2.497-8.727h2.015l1.445 6.064h.072l1.594-6.064h1.726l1.589 6.076h.077l1.445-6.076h2.015L596.346 158h-1.798l-1.662-5.706h-.068L591.16 158zm12.715.128q-1.01 0-1.739-.409a2.8 2.8 0 0 1-1.117-1.168q-.392-.759-.392-1.794 0-1.01.392-1.773.393-.762 1.104-1.189.716-.426 1.679-.426.648 0 1.206.209.563.204.98.618.422.414.656 1.04.235.622.235 1.457v.499h-5.527v-1.125h3.818q0-.392-.17-.695a1.23 1.23 0 0 0-.473-.473 1.36 1.36 0 0 0-.695-.175q-.414 0-.733.192-.315.188-.494.507a1.43 1.43 0 0 0-.184.703v1.07q0 .486.179.84.184.353.516.545t.788.192q.303 0 .554-.085t.431-.256a1.1 1.1 0 0 0 .272-.418l1.679.111q-.128.605-.524 1.057a2.6 2.6 0 0 1-1.014.699q-.618.246-1.427.247M606.3 158v-8.727h1.815v3.281h.055q.12-.264.345-.537.231-.277.597-.46.37-.188.92-.188.716 0 1.322.375.604.37.967 1.121.362.746.362 1.871 0 1.095-.354 1.849-.35.75-.954 1.138a2.45 2.45 0 0 1-1.347.384q-.528 0-.899-.175a1.9 1.9 0 0 1-.601-.439 2.3 2.3 0 0 1-.358-.541h-.081V158zm1.777-3.273q0 .584.161 1.019.162.434.469.677.307.239.746.239.442 0 .75-.243.306-.247.464-.682.162-.438.162-1.01 0-.567-.157-.997a1.5 1.5 0 0 0-.465-.673 1.18 1.18 0 0 0-.754-.243q-.444 0-.75.234a1.47 1.47 0 0 0-.465.665 2.9 2.9 0 0 0-.161 1.014m11.263-1.406-1.662.102a.85.85 0 0 0-.183-.383.96.96 0 0 0-.371-.277 1.25 1.25 0 0 0-.541-.107q-.422 0-.711.179-.29.175-.29.469 0 .234.187.396.188.162.644.26l1.184.239q.955.196 1.424.631.468.434.469 1.142 0 .643-.38 1.129-.375.486-1.031.758-.652.269-1.504.269-1.3 0-2.071-.541a2.1 2.1 0 0 1-.899-1.483l1.785-.094a.92.92 0 0 0 .392.605q.311.204.797.205.477 0 .767-.184.295-.187.298-.481a.5.5 0 0 0-.208-.405q-.205-.162-.631-.247l-1.134-.226q-.959-.191-1.427-.665-.465-.472-.465-1.206 0-.63.341-1.086.345-.456.968-.704.626-.246 1.465-.247 1.24 0 1.952.524.716.525.835 1.428m1.293 4.679v-6.545h1.815V158zm.912-7.389a1 1 0 0 1-.695-.269.87.87 0 0 1-.286-.652q0-.375.286-.643a.98.98 0 0 1 .695-.273q.404 0 .69.273.29.268.29.643a.86.86 0 0 1-.29.652.97.97 0 0 1-.69.269m5.839.844v1.363h-3.942v-1.363zm-3.047-1.569h1.815v6.103a.8.8 0 0 0 .077.392.42.42 0 0 0 .213.191.9.9 0 0 0 .324.056q.127 0 .255-.021l.197-.039.285 1.351a5 5 0 0 1-.384.098q-.247.06-.6.072-.657.026-1.151-.174a1.6 1.6 0 0 1-.763-.622q-.273-.423-.268-1.066zm7.142 8.242q-1.01 0-1.739-.409a2.8 2.8 0 0 1-1.116-1.168q-.392-.759-.392-1.794 0-1.01.392-1.773a2.9 2.9 0 0 1 1.103-1.189q.716-.426 1.679-.426.648 0 1.206.209.563.204.981.618.422.414.656 1.04.234.622.234 1.457v.499h-5.527v-1.125h3.818q0-.392-.17-.695a1.2 1.2 0 0 0-.473-.473 1.36 1.36 0 0 0-.695-.175q-.413 0-.733.192-.315.188-.494.507a1.44 1.44 0 0 0-.183.703v1.07q0 .486.179.84.183.353.515.545.333.192.789.192.302 0 .554-.085.251-.086.43-.256t.273-.418l1.679.111q-.128.605-.524 1.057-.393.447-1.015.699-.618.246-1.427.247m10.767-9.264-2.812 10.448h-1.564l2.812-10.448zm5.191 9.136h-1.978l3.013-8.727h2.378l3.008 8.727h-1.977l-2.186-6.733h-.068zm-.124-3.43h4.67v1.44h-4.67zm7.596 3.43v-8.727h3.443q.993 0 1.692.379.699.375 1.065 1.044.37.665.371 1.534 0 .87-.375 1.534-.375.665-1.087 1.036-.707.37-1.713.37h-2.194v-1.478h1.896q.533 0 .878-.183.35-.188.52-.516.174-.333.174-.763 0-.435-.174-.758a1.17 1.17 0 0 0-.52-.508q-.35-.183-.887-.183h-1.244V158zm9.615-8.727V158h-1.846v-8.727z"/><path fill="#fff" d="M125.818 81.181H65.27v46.771h60.548z"/><path fill="#3E74FF" stroke="#3E74FF" d="M65.09 81v47.133H126V81zm.403 46.729V85.656h60.103v42.073z"/><path fill="#A8CBFF" d="M89.38 90.855H69.26v17.403h20.12z"/><path fill="#E0ECFF" d="M121.286 90.855H92.463v14.684h28.823z"/><path stroke="#fff" stroke-linecap="round" stroke-linejoin="bevel" stroke-width="2" d="m92.463 101.55 7.07-4.143 8.293 1.813 7.614-5.827 5.846 2.59"/><path fill="#E0ECFF" d="M89.38 110.911H69.259v1.451h20.123z"/><path fill="#A8CBFF" d="M100.258 106.989h-7.795v1.269h7.795zm10.514 0h-7.976v1.269h7.976zm10.515 0h-7.977v1.269h7.977z"/><path fill="#E0ECFF" d="M89.38 113.993H69.259v1.45h20.123zm0 3.082H69.259v1.45h20.123zm0 3.082H69.259v1.45h20.123zm-4.35 3.081H69.258v1.45H85.03z"/><path fill="#A8CBFF" d="M99.882 118.683v5.279h-4.816v-5.279zm6.019-1.282v6.561h-4.815v-6.561zm12.041-6.514v13.074h-4.816v-13.074zm-6.02 5.615v7.459h-4.816v-7.459z"/><path fill="#A8CBFF" d="M91.844 123.819h30.97v.266h-30.97z"/><g fill="#fff" clip-path="url(#clip0_0_1)"><path d="M80.97 102.919h-2.66a5.82 5.82 0 0 0-5.814 5.812l.55.549h13.182l.55-.549a5.82 5.82 0 0 0-5.81-5.812m-1.316-.758a3.84 3.84 0 0 0 3.552-2.373 3.845 3.845 0 1 0-3.552 2.373"/></g><path fill="#3E74FF" d="M65 81h60.534v7.355H65z"/><path fill="#fff" d="M68.473 85.683a1.21 1.21 0 1 0 0-2.42 1.21 1.21 0 0 0 0 2.42m3.912 0a1.21 1.21 0 1 0 0-2.42 1.21 1.21 0 0 0 0 2.42m3.913 0a1.21 1.21 0 1 0 0-2.42 1.21 1.21 0 0 0 0 2.42"/><path fill="#fff" stroke="#3E74FF" stroke-width="2" d="M691.549 138.283V117h-29.588v21.283z"/><path fill="#A8CBFF" d="M665.595 120.634h21.802v4.153h-21.802zm0 6.229h16.611v1.038h-16.611zm0 2.076h11.42v1.038h-11.42zm0 5.191h17.649v1.038h-17.649z"/><path fill="#A8CBFF" stroke="#3E74FF" stroke-width="2" d="M693.145 140.398v-3.191h-3.191v3.191z"/><path fill="#A8CBFF" stroke="#3E74FF" stroke-width="2" d="M686.543 144.484v-16.121h8.919v16.121l-3.751-3.763-.708-.71-.709.71z"/><path fill="#3E74FF" stroke="#3E74FF" stroke-width="2" d="M695.825 133.971v-.001c.287-.367.693-.511.917-.578.217-.064.458-.107.633-.138l-.008-.013a6 6 0 0 1-.29-.599c-.088-.222-.222-.624-.124-1.068.1-.451.402-.756.573-.913.164-.15.361-.293.503-.398l.036-.026-.035-.026a6 6 0 0 1-.504-.398c-.171-.157-.473-.462-.573-.913zm0 0c-.282.362-.329.788-.343 1.021-.013.23 0 .479.009.661v.002a6 6 0 0 0-.607-.149c-.231-.039-.662-.088-1.082.12h-.001m2.024-1.655-2.024 1.655m0 0c-.417.207-.642.579-.75.78m.75-.78-.75.78m-7.424-4.833c.098.445-.036.847-.124 1.068a6 6 0 0 1-.291.6l-.007.013c.174.031.416.074.633.138.225.067.63.211.917.579.282.362.329.788.342 1.021.014.23.001.479-.008.661l-.001.002c.169-.049.394-.113.608-.149.231-.039.662-.088 1.082.12zm0 0c-.101-.451-.402-.756-.573-.912a6 6 0 0 0-.539-.424l.035-.026c.143-.105.34-.248.504-.399.171-.156.472-.461.572-.912h.001m0 2.673V128.9m0 0c.098-.445-.036-.846-.124-1.068a6 6 0 0 0-.29-.599l-.008-.014c.174-.03.416-.073.633-.137.224-.067.63-.211.916-.578l.001-.001m-1.128 2.397 1.128-2.397m0 0c.282-.362.329-.788.342-1.021.014-.23.001-.479-.008-.661v-.002c.168.049.393.113.607.149.231.039.662.087 1.082-.12h.001m-2.024 1.655 2.024-1.655m0 0c.417-.207.641-.58.75-.78.102-.19.192-.407.259-.571.13.119.301.271.476.396.193.138.559.369 1.026.369s.833-.232 1.026-.369c.174-.125.345-.277.476-.396.067.164.156.381.259.571.108.201.333.574.75.78m-5.022 0h5.022m0 0c.421.208.852.159 1.083.12m-1.083-.12 1.083.12m-1.833 11.438c-.102.19-.192.407-.259.571m.259-.571-.259.571m0 0a6 6 0 0 0-.476-.396c-.193-.138-.559-.369-1.026-.369s-.833.231-1.026.369a5 5 0 0 0-.476.396 6 6 0 0 0-.259-.571c-.109-.201-.333-.573-.751-.78zm2.092-12.009c.214-.036.439-.1.607-.148m-.607.148.607-.148m0 0v.001c-.009.182-.022.431-.009.661.014.233.061.659.343 1.021zm1.251 2.262c-.225-.066-.631-.211-.917-.579zm0 0c.217.065.458.107.632.138m-.632-.138.632.138m0 0-.007.013a6 6 0 0 0-.29.6c-.088.221-.222.623-.124 1.067zm1.046 3.309-.007-.009zm-.007-.575.007-.008zm-.827 3.749-.003-.013zm.259-.553.01-.005zm-2.353 3.023.003-.014zm.492-.396h.012zm-9.401 0 .013-.001zm.502.382.003.014zm-2.36-3.014.01.005zm.272.545-.003.013zm-.837-3.744.007.008zm.007.574-.007.008zm.568-3.196-.01.005zm.259-.554.003.014zm2.094-2.469-.003.014zm-.492.396h-.012zm3.419-1.688-.009.01zm-.635.144-.013-.006zm3.832-.006-.013.007q.014-.009.013-.007Zm-.639-.128-.008-.01zm-.008 14.447.008-.011zm.635-.145.013.006zm-3.82 0-.013.006zm.635.145-.008-.011zm5.477-13.164.003.013zm.492.396.013-.001zm1.599 2.086.003-.013zm.262.541.01.004z"/><circle cx="691.29" cy="130.237" r="3.598" fill="#fff" stroke="#A8CBFF" stroke-width="2"/><circle cx="225.5" cy="110.5" r="14" fill="#fff" stroke="#000" stroke-width="3"/><path fill="#3E74FF" d="M218 106.431h15.261v10.129H218z"/><rect width="3.759" height="4.047" x="223.895" y="105" stroke="#3E74FF" stroke-width="2" rx="1.879"/><circle cx="225.631" cy="110.19" r="1.584" fill="#fff"/><path fill="#fff" d="m225.631 110.046-1.584 3.744h3.168z"/><circle cx="246" cy="86" r="11" fill="#000"/><path fill="#fff" d="M247.569 81.273V90h-1.845v-6.976h-.052l-1.998 1.253v-1.636l2.16-1.368z"/><circle cx="522" cy="86" r="11" fill="#000"/><path fill="#fff" d="M518.928 90v-1.33l3.107-2.876q.396-.384.664-.69.273-.307.414-.601a1.5 1.5 0 0 0 .14-.644q0-.382-.174-.66a1.15 1.15 0 0 0-.478-.43 1.5 1.5 0 0 0-.686-.154q-.4 0-.699.162a1.1 1.1 0 0 0-.46.465 1.5 1.5 0 0 0-.162.72h-1.751q0-.856.388-1.488.387-.63 1.086-.975.699-.346 1.611-.346.938 0 1.632.333.699.327 1.087.912.388.584.388 1.338 0 .495-.196.976-.192.48-.686 1.07-.495.583-1.394 1.401l-1.274 1.249v.06h3.665V90z"/><defs><clipPath id="clip0_0_1"><path fill="#fff" d="M70.85 91.11h17.576v17.577H70.85z"/></clipPath></defs></svg>