<svg xmlns="http://www.w3.org/2000/svg" viewBox="0 0 16 16">
  <path d="M.5 2.24l-.5.5v10.5l.5.5h10l.5-.5v-2.902h-1v2.401H1v-9.5h9v2.402h1V2.739l-.5-.5H.5zM14.025 7.49l-1.122-1.1.7-.714 2.361 2.313-2.36 2.314-.7-.714 1.121-1.1H12v-1h2.025z"/>
  <path d="M8 8.016a.57.57 0 101.14 0 .57.57 0 00-1.14 0zM10.482 8.585a.57.57 0 110-1.14.57.57 0 010 1.14zM3.25 6.171h-.807V9.99h.807V6.171z"/>
  <path fill-rule="evenodd" d="M4.25 9.99h.807V8.75h.679c.878 0 1.389-.523 1.389-1.286 0-.759-.502-1.294-1.369-1.294H4.25V9.99zm.807-1.886V6.831h.545c.466 0 .691.254.691.634 0 .378-.225.64-.688.64h-.548z"/>
</svg>
