<svg xmlns="http://www.w3.org/2000/svg" width="874" height="537" fill="none" viewBox="0 0 874 537"><path fill="#fff" d="M0 0h874v537H0z"/><path fill="#fff" stroke="#3E74FF" stroke-width="2" d="M539 28h302v131H539z"/><path fill="#fff" d="M646 20h90v15h-90z"/><path fill="#000" d="M670.487 32v-8.727h5.881v1.521h-4.036v2.08h3.733v1.52h-3.733v2.085h4.053V32zm11.511-2.787v-3.759h1.815V32h-1.743v-1.189h-.068a1.93 1.93 0 0 1-.737.925q-.511.35-1.248.35-.657 0-1.155-.3a2.04 2.04 0 0 1-.78-.847q-.278-.55-.281-1.317v-4.167h1.815v3.843q.004.58.311.917.308.336.822.336.329 0 .614-.149a1.17 1.17 0 0 0 .46-.452q.18-.298.175-.737M685.265 32v-6.546h1.76v1.143h.069q.178-.61.6-.92.423-.316.972-.316a3 3 0 0 1 .571.064v1.61a2.4 2.4 0 0 0-.354-.068q-.225-.03-.413-.03-.4 0-.716.175a1.3 1.3 0 0 0-.494.478q-.18.306-.179.707V32zm7.563.128q-.993 0-1.717-.422a2.9 2.9 0 0 1-1.112-1.185q-.392-.762-.392-1.768 0-1.014.392-1.773a2.85 2.85 0 0 1 1.112-1.184q.724-.427 1.717-.427t1.713.427a2.85 2.85 0 0 1 1.117 1.184q.392.759.392 1.773 0 1.006-.392 1.768-.393.758-1.117 1.185-.72.422-1.713.422m.009-1.406q.451 0 .754-.256.303-.26.456-.707.158-.448.158-1.019 0-.57-.158-1.018a1.6 1.6 0 0 0-.456-.708 1.12 1.12 0 0 0-.754-.26q-.456 0-.767.26-.308.261-.465.708a3.1 3.1 0 0 0-.153 1.018q0 .57.153 1.019.158.447.465.707.31.255.767.256m4.393 3.733v-9h1.79v1.099h.081q.12-.264.345-.537.23-.277.597-.46.37-.188.92-.188.717 0 1.321.375.605.37.968 1.121.362.745.362 1.87 0 1.095-.354 1.85-.35.75-.954 1.138-.601.384-1.347.383-.528 0-.899-.174a1.9 1.9 0 0 1-.601-.44 2.2 2.2 0 0 1-.358-.54h-.055v3.503zm1.777-5.728q0 .584.162 1.019t.469.677q.307.24.746.239.442 0 .75-.243.306-.247.464-.682.162-.438.162-1.01 0-.567-.158-.997a1.5 1.5 0 0 0-.464-.673 1.18 1.18 0 0 0-.754-.243q-.444 0-.75.234a1.47 1.47 0 0 0-.465.665 2.9 2.9 0 0 0-.162 1.014m8.8 3.4q-1.01 0-1.739-.408a2.8 2.8 0 0 1-1.116-1.168q-.392-.758-.392-1.794 0-1.01.392-1.773a2.9 2.9 0 0 1 1.104-1.189q.716-.426 1.679-.426.646 0 1.206.21.562.203.98.617.422.413.656 1.04.234.622.234 1.457v.499h-5.527v-1.125h3.818q0-.392-.17-.695a1.2 1.2 0 0 0-.473-.473 1.35 1.35 0 0 0-.695-.175q-.413 0-.733.192-.315.187-.494.507-.178.316-.183.703v1.07q0 .486.179.84.183.353.515.545.333.192.789.192.303 0 .554-.085a1.11 1.11 0 0 0 .703-.673l1.679.11q-.128.605-.524 1.057-.393.447-1.014.699-.618.247-1.428.247"/><path stroke="#6ECCE5" stroke-dasharray="8 8" stroke-width="2" d="M702 70h118v55H702z"/><path fill="#fff" d="M722 65h76v14h-76z"/><path fill="#000" d="M738.686 69.783q-.05-.516-.439-.802-.387-.285-1.052-.285-.452 0-.763.128a1.1 1.1 0 0 0-.477.345.83.83 0 0 0-.162.503.7.7 0 0 0 .098.409q.111.174.302.302a2.3 2.3 0 0 0 .444.218q.25.09.536.153l.785.188q.57.128 1.048.34.477.214.827.525.35.31.541.733.195.421.2.967-.004.8-.409 1.39-.4.583-1.159.907-.755.32-1.82.32-1.056 0-1.841-.324-.78-.324-1.218-.96-.435-.638-.456-1.58h1.785q.03.44.252.733.225.29.6.439.38.144.857.145.469 0 .814-.137.35-.135.541-.379a.88.88 0 0 0 .192-.558.72.72 0 0 0-.175-.495 1.3 1.3 0 0 0-.503-.34 5 5 0 0 0-.805-.256l-.95-.239q-1.104-.269-1.743-.84-.64-.57-.635-1.537-.004-.793.422-1.386.43-.592 1.18-.924t1.705-.333q.971 0 1.696.333.728.332 1.133.924t.418 1.373zm7.293 3.43v-3.758h1.815V76h-1.743v-1.189h-.068a1.94 1.94 0 0 1-.737.925q-.512.35-1.249.35-.656 0-1.155-.3a2.06 2.06 0 0 1-.78-.847q-.276-.55-.281-1.317v-4.168h1.815v3.844q.005.58.311.916.307.337.823.337.328 0 .614-.149.285-.153.46-.452.178-.298.175-.737M749.28 76v-8.727h1.815v3.281h.056q.118-.264.345-.537.23-.277.597-.46.37-.188.92-.188.716 0 1.321.375.605.371.967 1.121.363.745.363 1.87 0 1.095-.354 1.85-.35.75-.955 1.138-.6.383-1.346.383-.529 0-.899-.174a1.9 1.9 0 0 1-.601-.44 2.2 2.2 0 0 1-.358-.54h-.081V76zm1.777-3.273q0 .584.162 1.019t.469.677q.306.24.745.239.444 0 .75-.243.308-.247.465-.682.162-.438.162-1.01 0-.567-.158-.997a1.5 1.5 0 0 0-.464-.673 1.18 1.18 0 0 0-.755-.243 1.2 1.2 0 0 0-.75.234 1.5 1.5 0 0 0-.464.665 2.9 2.9 0 0 0-.162 1.014m7.633-.511V76h-1.815v-6.546h1.73v1.155h.077q.217-.57.728-.903.512-.337 1.24-.337.682 0 1.189.299.507.298.789.852.28.55.281 1.312V76h-1.815v-3.844q.003-.6-.307-.937-.312-.34-.857-.341-.366 0-.648.157a1.1 1.1 0 0 0-.434.46 1.6 1.6 0 0 0-.158.72m8.633 3.912q-1.01 0-1.739-.41a2.8 2.8 0 0 1-1.116-1.167q-.393-.758-.393-1.794 0-1.01.393-1.773a2.9 2.9 0 0 1 1.103-1.188q.716-.427 1.679-.427.648 0 1.206.21.563.204.98.617.422.413.657 1.04.234.622.234 1.457v.499H764.8v-1.125h3.818q0-.392-.17-.695a1.23 1.23 0 0 0-.473-.473 1.35 1.35 0 0 0-.695-.175q-.414 0-.733.192-.315.188-.494.507-.18.315-.184.703v1.07q0 .486.179.84.185.353.516.545.333.192.788.192.303 0 .554-.085t.431-.256q.178-.17.273-.418l1.679.111q-.128.605-.525 1.057a2.6 2.6 0 0 1-1.014.699q-.618.247-1.427.247m7.67-6.674v1.364h-3.942v-1.364zm-3.047-1.568h1.816v6.103a.8.8 0 0 0 .076.392q.076.135.213.191a.9.9 0 0 0 .324.056q.128 0 .256-.022l.196-.038.285 1.351a5 5 0 0 1-.383.098q-.247.06-.601.073-.656.024-1.151-.175a1.6 1.6 0 0 1-.762-.622q-.273-.423-.269-1.066zm8.771-.613 1.76 2.974h.068l1.769-2.974h2.084l-2.664 4.363L786.457 76h-2.122l-1.79-2.979h-.068L780.687 76h-2.113l2.731-4.364-2.68-4.363z"/><path fill="#0055DC" d="M715.507 90.198H712v18.05h3.507zm91.493 0h-3.507v18.05H807z"/><path fill="#fff" stroke="#0055DC" stroke-miterlimit="10" stroke-width="1.5" d="m720.31 111.464.001 3.426 78.376-.004v-3.426z"/><path fill="#C5EBF5" stroke="#0055DC" stroke-miterlimit="10" stroke-width="1.5" d="M803.492 87h-87.985v24.462h87.985z"/><path fill="#fff" d="M799.692 108.012V90.448h-80.384v17.564z"/><path fill="#0055DC" d="M725.832 95.408h-1.947v1.902h1.947zm0 5.725h-1.947v1.903h1.947zm2.667-3.016h-1.948v1.902h1.948zm2.37-2.709h-1.947v1.902h1.947zm0 5.725h-1.947v1.903h1.947zm2.52-3.016h-1.948v1.902h1.948zm2.98-2.709h-1.947v1.902h1.947zm0 5.725h-1.947v1.903h1.947zm2.519-3.016h-1.947v1.902h1.947zm3.065-2.709h-1.948v1.902h1.948zm0 5.725h-1.948v1.903h1.948zm2.371-3.016h-1.948v1.902h1.948zm2.666-2.709h-1.948v1.902h1.948zm0 5.725h-1.948v1.903h1.948zm2.224-3.016h-1.948v1.902h1.948zm2.815-2.709h-1.947v1.902h1.947zm0 5.725h-1.947v1.903h1.947zm2.075-3.016h-1.947v1.902h1.947zm39.202 3.475c1.335 0 2.418-1.057 2.418-2.361s-1.083-2.362-2.418-2.362-2.418 1.058-2.418 2.362 1.083 2.361 2.418 2.361"/><path stroke="#0055DC" stroke-miterlimit="10" stroke-width="1.5" d="M786.354 99.23h-25.606"/><path fill="#fff" stroke="#3E74FF" stroke-width="2" d="M539 202h302v131H539z"/><path fill="#fff" d="M655 194h75v15h-75z"/><path fill="#000" d="M683.952 197.273h1.845v5.667q0 .955-.456 1.671a3.05 3.05 0 0 1-1.266 1.116q-.813.397-1.896.397-1.087 0-1.9-.397a3.05 3.05 0 0 1-1.266-1.116q-.452-.716-.452-1.671v-5.667h1.845v5.51q0 .498.218.886.221.388.622.609.4.222.933.222.537 0 .933-.222.4-.22.618-.609a1.75 1.75 0 0 0 .222-.886zm8.098 2.51q-.052-.516-.439-.801-.389-.286-1.053-.286-.451 0-.763.128a1.07 1.07 0 0 0-.477.345.83.83 0 0 0-.162.503.7.7 0 0 0 .098.409q.111.174.303.303.19.123.443.217.25.09.537.153l.784.188q.571.128 1.048.341t.827.524.541.733q.196.421.2.967-.004.801-.409 1.389-.4.585-1.159.908-.754.32-1.819.32-1.058 0-1.841-.324-.78-.324-1.219-.959-.435-.639-.456-1.581h1.785q.03.44.252.733.226.29.601.439.38.144.856.145.47 0 .814-.137.35-.136.541-.379a.88.88 0 0 0 .192-.558.72.72 0 0 0-.175-.494 1.3 1.3 0 0 0-.502-.341 5 5 0 0 0-.806-.256l-.95-.239q-1.104-.269-1.743-.839-.64-.572-.635-1.539-.004-.792.422-1.384a2.84 2.84 0 0 1 1.18-.925q.75-.333 1.705-.333.972 0 1.696.333.73.332 1.133.925.405.591.418 1.372zm4.433 6.217h-1.977l3.013-8.727h2.378l3.008 8.727h-1.977l-2.186-6.733h-.068zm-.123-3.43h4.67v1.44h-4.67z"/><path fill="#fff" d="M700 238h76v14h-76z"/><path fill="#fff" stroke="#3E74FF" stroke-width="2" d="M539 382h302v131H539z"/><path fill="#fff" d="M658 374h65v15h-65z"/><path fill="#000" d="M679.866 386h-1.977l3.013-8.727h2.378l3.008 8.727h-1.977l-2.186-6.733h-.068zm-.123-3.43h4.67v1.44h-4.67zm12.855-1.249-1.662.102a.85.85 0 0 0-.183-.383.96.96 0 0 0-.371-.277 1.3 1.3 0 0 0-.541-.107q-.421 0-.712.179-.29.175-.289.469 0 .234.187.396.188.162.644.26l1.184.239q.955.196 1.424.631.468.434.468 1.142 0 .643-.379 1.129-.375.486-1.031.758-.652.269-1.504.269-1.3 0-2.071-.541a2.1 2.1 0 0 1-.9-1.483l1.786-.094a.92.92 0 0 0 .392.605q.31.205.797.205.477 0 .767-.184.294-.187.298-.481a.5.5 0 0 0-.209-.405q-.204-.162-.63-.247l-1.134-.226q-.959-.191-1.427-.665-.465-.472-.465-1.206 0-.63.341-1.086.346-.456.967-.704.627-.246 1.466-.247 1.24 0 1.952.524.716.525.835 1.428M693.89 386v-6.545h1.816V386zm.912-7.389a1 1 0 0 1-.694-.269.87.87 0 0 1-.286-.652.85.85 0 0 1 .286-.643.98.98 0 0 1 .694-.273q.405 0 .691.273a.85.85 0 0 1 .289.643.86.86 0 0 1-.289.652.97.97 0 0 1-.691.269m4.224 7.513q-.625 0-1.116-.218a1.8 1.8 0 0 1-.776-.652q-.28-.434-.281-1.082 0-.546.2-.916.201-.37.546-.597.345-.225.784-.341.443-.115.929-.162.571-.06.92-.111.35-.054.508-.161a.36.36 0 0 0 .157-.316v-.025q0-.405-.255-.627-.252-.221-.716-.221-.49 0-.78.217a1 1 0 0 0-.384.537l-1.679-.137q.128-.596.503-1.031.375-.438.967-.673.597-.239 1.381-.239.546 0 1.044.128.502.127.891.396.391.269.618.691.226.417.226 1.001V386h-1.722v-.908h-.051a1.9 1.9 0 0 1-.422.542 2 2 0 0 1-.635.362 2.6 2.6 0 0 1-.857.128m.52-1.253q.4 0 .708-.158.306-.162.481-.435.175-.272.175-.617v-.695a1 1 0 0 1-.234.102 4 4 0 0 1-.329.081q-.183.034-.366.064l-.332.047q-.32.047-.559.149a.9.9 0 0 0-.37.277.68.68 0 0 0-.132.426q0 .37.268.567.273.192.69.192"/><path fill="#222" d="M47.626 148.007v-8.727h5.88v1.521h-4.035v2.08h3.733v1.521H49.47v2.084h4.052v1.521zm7.313 0v-6.545h1.73v1.155h.077q.204-.576.682-.908.477-.332 1.142-.332.673 0 1.146.336.474.333.63.904h.07a1.74 1.74 0 0 1 .724-.899q.528-.341 1.248-.341.916 0 1.487.583.576.58.576 1.645v4.402H62.64v-4.044q0-.545-.29-.818a1 1 0 0 0-.725-.273q-.494 0-.771.316-.277.31-.277.822v3.997h-1.76v-4.082q0-.482-.277-.767-.273-.285-.72-.286-.303 0-.545.154a1.05 1.05 0 0 0-.38.422 1.34 1.34 0 0 0-.14.63v3.929zm10.946 2.455v-9h1.79v1.099h.08a2.4 2.4 0 0 1 .346-.537q.23-.276.596-.46.37-.187.92-.187.716 0 1.322.375.604.37.967 1.12.362.746.362 1.871 0 1.095-.354 1.85-.349.75-.954 1.137-.6.384-1.347.384-.528 0-.899-.175a1.9 1.9 0 0 1-.6-.439 2.2 2.2 0 0 1-.359-.541H67.7v3.503zm1.777-5.727q0 .583.161 1.018.163.435.47.678.306.238.745.238.444 0 .75-.243a1.5 1.5 0 0 0 .465-.681q.16-.44.161-1.01 0-.567-.157-.998a1.5 1.5 0 0 0-.465-.673 1.18 1.18 0 0 0-.754-.243q-.443 0-.75.235a1.47 1.47 0 0 0-.465.664 2.9 2.9 0 0 0-.161 1.015m7.632-5.455v8.727h-1.816v-8.727zm4.411 8.855q-.993 0-1.717-.422a2.9 2.9 0 0 1-1.112-1.184q-.392-.763-.392-1.769 0-1.014.392-1.773a2.85 2.85 0 0 1 1.112-1.184q.724-.426 1.717-.426t1.713.426q.724.422 1.117 1.184.392.759.392 1.773 0 1.006-.392 1.769a2.9 2.9 0 0 1-1.117 1.184q-.72.423-1.713.422m.009-1.406q.45 0 .754-.256.303-.26.456-.707.158-.447.158-1.019 0-.57-.158-1.018a1.6 1.6 0 0 0-.456-.707 1.1 1.1 0 0 0-.754-.26q-.456 0-.767.26-.307.26-.465.707a3.1 3.1 0 0 0-.153 1.018q0 .572.153 1.019.157.447.465.707.31.256.767.256m5.303 3.733q-.345 0-.648-.056a2.4 2.4 0 0 1-.494-.132l.41-1.355q.319.099.574.107a.73.73 0 0 0 .448-.12q.192-.128.31-.434l.107-.277-2.348-6.733h1.91l1.355 4.807h.068l1.368-4.807h1.922l-2.544 7.253a3 3 0 0 1-.499.92q-.31.396-.788.61-.478.217-1.151.217m8.683-2.327q-1.01 0-1.74-.409a2.8 2.8 0 0 1-1.115-1.168q-.393-.757-.393-1.794 0-1.01.392-1.772.393-.763 1.104-1.189.716-.426 1.68-.426.646 0 1.205.208.563.206.98.618.422.414.656 1.04.235.623.235 1.458v.498h-5.527v-1.125h3.818q0-.392-.17-.695a1.23 1.23 0 0 0-.473-.473 1.35 1.35 0 0 0-.695-.174q-.414 0-.733.192-.315.188-.494.507-.179.315-.184.703v1.069q0 .486.18.84.183.353.515.545t.788.192q.303 0 .554-.085t.43-.256q.18-.17.274-.417l1.678.11a2.3 2.3 0 0 1-.524 1.057q-.392.447-1.014.699-.618.247-1.427.247m7.171 0q-1.01 0-1.738-.409a2.8 2.8 0 0 1-1.117-1.168q-.392-.757-.392-1.794 0-1.01.392-1.772.393-.763 1.104-1.189.716-.426 1.679-.426.648 0 1.206.208.563.206.98.618.422.414.656 1.04.235.623.235 1.458v.498h-5.527v-1.125h3.818a1.4 1.4 0 0 0-.171-.695 1.2 1.2 0 0 0-.473-.473 1.35 1.35 0 0 0-.694-.174q-.414 0-.733.192-.315.188-.494.507-.179.315-.184.703v1.069q0 .486.18.84.182.353.515.545.332.192.788.192.303 0 .554-.085t.431-.256q.179-.17.272-.417l1.679.11a2.3 2.3 0 0 1-.524 1.057 2.6 2.6 0 0 1-1.014.699q-.618.247-1.428.247m10.095-.128h-3.094v-8.727h3.119q1.317 0 2.267.524a3.54 3.54 0 0 1 1.462 1.496q.516.976.515 2.335 0 1.364-.515 2.344a3.54 3.54 0 0 1-1.47 1.504q-.955.524-2.284.524m-1.249-1.581h1.172q.818 0 1.376-.289.563-.294.844-.908.286-.618.286-1.594 0-.968-.286-1.581a1.85 1.85 0 0 0-.839-.903q-.559-.29-1.377-.29h-1.176zm9.834 1.709q-1.01 0-1.739-.409a2.8 2.8 0 0 1-1.116-1.168q-.392-.757-.392-1.794 0-1.01.392-1.772a2.9 2.9 0 0 1 1.104-1.189q.716-.426 1.679-.426.648 0 1.206.208.562.206.98.618.422.414.656 1.04.234.623.234 1.458v.498h-5.527v-1.125h3.819a1.4 1.4 0 0 0-.171-.695 1.2 1.2 0 0 0-.473-.473 1.35 1.35 0 0 0-.694-.174q-.414 0-.733.192a1.35 1.35 0 0 0-.495.507q-.179.315-.183.703v1.069q0 .486.179.84.183.353.516.545.332.192.788.192.302 0 .554-.085a1.1 1.1 0 0 0 .703-.673l1.679.11a2.3 2.3 0 0 1-.524 1.057q-.392.447-1.014.699-.618.247-1.428.247m10.116-6.673-2.289 6.545h-2.045l-2.289-6.545h1.918l1.359 4.683h.069l1.355-4.683zm.929 6.545v-6.545h1.815v6.545zm.911-7.389a1 1 0 0 1-.694-.268.87.87 0 0 1-.286-.652q0-.375.286-.644a.98.98 0 0 1 .694-.273q.405 0 .691.273.29.269.29.644 0 .38-.29.652a.97.97 0 0 1-.691.268m5.315 7.517q-1.005 0-1.73-.426a2.9 2.9 0 0 1-1.108-1.193q-.383-.763-.383-1.756 0-1.005.388-1.764a2.9 2.9 0 0 1 1.112-1.189q.72-.43 1.713-.43.857 0 1.5.311.643.31 1.018.873t.414 1.321h-1.713q-.073-.49-.384-.788-.307-.303-.805-.303-.423 0-.737.231-.312.225-.486.66-.175.435-.175 1.053 0 .625.17 1.065.175.44.491.669.315.23.737.23a1.2 1.2 0 0 0 .558-.128q.252-.128.413-.37a1.4 1.4 0 0 0 .218-.593h1.713a2.7 2.7 0 0 1-.409 1.321 2.5 2.5 0 0 1-1.002.887q-.639.32-1.513.319m7.069 0q-1.01 0-1.739-.409a2.8 2.8 0 0 1-1.116-1.168q-.392-.757-.392-1.794 0-1.01.392-1.772a2.9 2.9 0 0 1 1.104-1.189q.715-.426 1.679-.426.647 0 1.206.208.562.206.98.618.422.414.656 1.04.234.623.234 1.458v.498h-5.527v-1.125h3.818a1.4 1.4 0 0 0-.17-.695 1.23 1.23 0 0 0-.473-.473 1.35 1.35 0 0 0-.695-.174q-.413 0-.733.192-.315.188-.494.507-.179.315-.183.703v1.069q0 .486.179.84.183.353.515.545.333.192.789.192.302 0 .554-.085.251-.085.43-.256.18-.17.273-.417l1.679.11a2.3 2.3 0 0 1-.524 1.057 2.65 2.65 0 0 1-1.014.699q-.618.247-1.428.247m-88.264 13.872-1.781-6.545h1.836l1.015 4.398h.06l1.056-4.398h1.803l1.074 4.372h.055l.997-4.372h1.832l-1.777 6.545h-1.921l-1.125-4.116h-.081l-1.125 4.116zm8.916 0v-6.545h1.815v6.545zm.912-7.389a1 1 0 0 1-.695-.268.87.87 0 0 1-.285-.652q0-.375.285-.644a.98.98 0 0 1 .695-.273q.405 0 .69.273.29.269.29.644 0 .38-.29.652a.97.97 0 0 1-.69.268m5.839.844v1.364h-3.942v-1.364zm-3.047-1.568h1.815v6.102q0 .252.077.392a.42.42 0 0 0 .213.192.9.9 0 0 0 .324.055q.127 0 .256-.021l.196-.038.285 1.35a5 5 0 0 1-.383.098q-.247.06-.601.073-.657.026-1.15-.175a1.6 1.6 0 0 1-.764-.622q-.271-.421-.268-1.065zm6.185 4.329v3.784h-1.815v-8.727h1.764v3.337h.077q.221-.58.716-.908.495-.332 1.24-.332.68 0 1.189.298.51.294.792.848.286.549.282 1.317v4.167H76.86v-3.843q.004-.606-.306-.942-.307-.337-.861-.337-.37 0-.657.158a1.1 1.1 0 0 0-.443.46q-.157.298-.162.72m10.061-4.943 2.11 6.631h.08l2.114-6.631h2.046l-3.009 8.727h-2.377l-3.013-8.727zm7.4 8.727v-8.727h3.444q.992 0 1.691.379.699.375 1.066 1.044.37.666.37 1.534 0 .87-.375 1.535t-1.086 1.035q-.708.37-1.713.371h-2.195v-1.479h1.896q.533 0 .878-.183.35-.187.52-.516.175-.332.175-.763 0-.434-.175-.758a1.16 1.16 0 0 0-.52-.507q-.35-.183-.886-.183h-1.245v7.218zm15.07-8.727v8.727h-1.594l-3.797-5.493h-.064v5.493h-1.845v-8.727h1.619l3.767 5.489h.077v-5.489zm7.225 8.855q-1.006 0-1.73-.426a2.9 2.9 0 0 1-1.108-1.193q-.384-.763-.384-1.756 0-1.005.388-1.764a2.9 2.9 0 0 1 1.112-1.189q.72-.43 1.713-.43.856 0 1.5.311.644.31 1.019.873t.413 1.321h-1.713a1.32 1.32 0 0 0-.384-.788q-.306-.303-.805-.303-.422 0-.737.231-.312.225-.486.66-.175.435-.175 1.053 0 .625.171 1.065.174.44.49.669.315.23.737.23a1.2 1.2 0 0 0 .558-.128q.252-.128.414-.37.165-.248.217-.593h1.713a2.7 2.7 0 0 1-.409 1.321 2.5 2.5 0 0 1-1.002.887q-.639.32-1.512.319m5.901-8.855v8.727h-1.816v-8.727zm1.454 8.727v-6.545h1.815v6.545zm.912-7.389a1 1 0 0 1-.695-.268.87.87 0 0 1-.285-.652q0-.375.285-.644a.98.98 0 0 1 .695-.273q.405 0 .69.273.29.269.29.644 0 .38-.29.652a.97.97 0 0 1-.69.268m5.34 7.517q-1.01 0-1.738-.409a2.8 2.8 0 0 1-1.117-1.168q-.392-.757-.392-1.794 0-1.01.392-1.772a2.9 2.9 0 0 1 1.104-1.189q.716-.426 1.679-.426.648 0 1.206.208.563.206.98.618.422.414.656 1.04.235.623.235 1.458v.498h-5.527v-1.125h3.818a1.4 1.4 0 0 0-.171-.695 1.2 1.2 0 0 0-.473-.473 1.35 1.35 0 0 0-.694-.174q-.414 0-.733.192a1.35 1.35 0 0 0-.495.507q-.179.315-.183.703v1.069q0 .486.179.84.183.353.516.545.332.192.788.192.302 0 .554-.085a1.1 1.1 0 0 0 .703-.673l1.679.11a2.3 2.3 0 0 1-.524 1.057 2.6 2.6 0 0 1-1.014.699q-.618.247-1.428.247m6.005-3.912v3.784h-1.816v-6.545h1.73v1.155h.077q.218-.571.729-.904.511-.336 1.24-.336.682 0 1.189.298t.788.852q.281.55.281 1.313v4.167h-1.815v-3.843q.005-.601-.307-.938-.311-.34-.856-.341-.367 0-.648.158-.278.157-.435.46a1.6 1.6 0 0 0-.157.72m9.131-2.761v1.364h-3.942v-1.364zm-3.047-1.568h1.815v6.102q0 .252.077.392a.42.42 0 0 0 .213.192.9.9 0 0 0 .324.055q.127 0 .255-.021l.196-.038.286 1.35a5 5 0 0 1-.384.098q-.247.06-.6.073-.657.026-1.151-.175a1.6 1.6 0 0 1-.763-.622q-.273-.421-.268-1.065zm424.909-38.621 2.11 6.63h.081l2.113-6.63h2.046L568.133 124h-2.378l-3.012-8.727zm7.4 8.727v-8.727h3.443q.993 0 1.692.379.699.375 1.065 1.044.372.665.371 1.534 0 .87-.375 1.534-.375.665-1.087 1.036-.707.37-1.713.37h-2.194v-1.478h1.896q.533 0 .878-.183.35-.187.52-.516.174-.333.175-.763 0-.435-.175-.758a1.17 1.17 0 0 0-.52-.508q-.35-.183-.886-.183h-1.245V124zm15.069-8.727V124h-1.593l-3.797-5.493h-.064V124h-1.845v-8.727h1.619l3.767 5.488h.077v-5.488zm12.002 3.055h-1.866a1.8 1.8 0 0 0-.209-.643 1.6 1.6 0 0 0-.405-.486 1.8 1.8 0 0 0-.571-.307 2.2 2.2 0 0 0-.694-.106q-.678 0-1.181.336-.503.333-.779.972-.277.635-.277 1.542 0 .934.277 1.569.28.634.784.958a2.1 2.1 0 0 0 1.163.324q.37 0 .686-.098a1.8 1.8 0 0 0 .567-.285q.247-.192.409-.465.166-.273.23-.622l1.866.009q-.072.6-.362 1.159-.285.554-.771.993a3.7 3.7 0 0 1-1.151.69 4.2 4.2 0 0 1-1.504.251q-1.167 0-2.088-.528-.917-.528-1.449-1.53-.528-1.002-.528-2.425 0-1.427.537-2.429.536-1.001 1.457-1.525.92-.529 2.071-.529.76 0 1.406.213.653.214 1.155.623.503.404.818.993.32.587.409 1.346m4.247 5.8q-.993 0-1.717-.422a2.9 2.9 0 0 1-1.113-1.185q-.392-.763-.392-1.768 0-1.014.392-1.773a2.87 2.87 0 0 1 1.113-1.185q.724-.426 1.717-.426t1.713.426a2.85 2.85 0 0 1 1.116 1.185q.393.759.393 1.773 0 1.005-.393 1.768a2.87 2.87 0 0 1-1.116 1.185q-.72.422-1.713.422m.008-1.406q.452 0 .755-.256.301-.26.456-.707.157-.448.157-1.019t-.157-1.018a1.6 1.6 0 0 0-.456-.708 1.12 1.12 0 0 0-.755-.26q-.455 0-.767.26a1.6 1.6 0 0 0-.464.708 3.1 3.1 0 0 0-.153 1.018q0 .571.153 1.019a1.6 1.6 0 0 0 .464.707q.312.256.767.256m6.209-2.506V124h-1.815v-6.545h1.73v1.154h.077q.218-.57.728-.903.512-.337 1.241-.337.681 0 1.188.299.507.298.789.852.28.55.281 1.312V124h-1.815v-3.844q.004-.6-.307-.937-.312-.341-.857-.341-.366 0-.647.158-.278.157-.435.46a1.6 1.6 0 0 0-.158.72m8.607 3.912q-1.005 0-1.73-.426a2.9 2.9 0 0 1-1.108-1.193q-.383-.763-.383-1.756 0-1.007.387-1.764a2.9 2.9 0 0 1 1.113-1.189q.72-.43 1.713-.431.857 0 1.5.311.643.312 1.018.874t.413 1.321h-1.713a1.32 1.32 0 0 0-.383-.788q-.307-.303-.806-.303a1.22 1.22 0 0 0-.737.23q-.31.226-.486.661-.174.434-.174 1.052 0 .627.17 1.066.175.438.49.669.315.23.737.23.312 0 .559-.128a1.1 1.1 0 0 0 .413-.371q.166-.247.217-.592h1.713q-.042.75-.409 1.321a2.47 2.47 0 0 1-1.001.886q-.639.32-1.513.32m7.069 0q-1.01 0-1.739-.409a2.8 2.8 0 0 1-1.116-1.168q-.392-.759-.392-1.794 0-1.01.392-1.773a2.9 2.9 0 0 1 1.103-1.189q.716-.426 1.679-.426.648 0 1.206.209.563.204.98.618.422.413.657 1.04.234.622.234 1.457v.499h-5.527v-1.125h3.818q0-.393-.17-.695a1.23 1.23 0 0 0-.473-.473 1.36 1.36 0 0 0-.695-.175q-.413 0-.733.192-.315.188-.494.507-.18.316-.183.703v1.07q0 .486.179.84.183.353.515.545.333.192.789.192.302 0 .554-.085.251-.086.43-.256t.273-.418l1.679.111q-.128.605-.525 1.057a2.6 2.6 0 0 1-1.014.699q-.618.246-1.427.247m6.004-3.912V124h-1.815v-6.545h1.73v1.154h.076a1.83 1.83 0 0 1 .729-.903q.511-.337 1.24-.337.682 0 1.189.299.507.298.788.852.282.55.282 1.312V124h-1.816v-3.844q.005-.6-.306-.937-.312-.341-.857-.341-.366 0-.648.158a1.1 1.1 0 0 0-.434.46 1.6 1.6 0 0 0-.158.72m9.131-2.761v1.363h-3.942v-1.363zm-3.047-1.569h1.815v6.103a.8.8 0 0 0 .077.392.42.42 0 0 0 .213.191.9.9 0 0 0 .324.056q.128 0 .256-.021l.196-.039.285 1.351a5 5 0 0 1-.383.098q-.247.06-.601.072-.657.026-1.151-.174a1.6 1.6 0 0 1-.762-.622q-.273-.423-.269-1.066zm4.23 8.114v-6.545h1.759v1.142h.069q.178-.61.601-.921a1.58 1.58 0 0 1 .971-.315 2.6 2.6 0 0 1 .571.064v1.611a3 3 0 0 0-.767-.098q-.4 0-.716.174a1.3 1.3 0 0 0-.494.477 1.4 1.4 0 0 0-.179.708V124zm6.589.124q-.627 0-1.117-.218a1.8 1.8 0 0 1-.775-.652q-.282-.435-.282-1.082 0-.546.201-.916.2-.37.545-.597.346-.225.784-.341a6 6 0 0 1 .929-.162q.572-.06.921-.111.35-.054.507-.161a.36.36 0 0 0 .157-.316v-.025q0-.405-.255-.627-.252-.222-.716-.221-.49 0-.78.217a1 1 0 0 0-.384.537l-1.679-.137q.129-.596.503-1.031.375-.439.968-.673.596-.239 1.38-.239.546 0 1.044.128.503.127.891.396.391.269.618.691.225.417.226 1.001V124h-1.722v-.908h-.051a1.9 1.9 0 0 1-.422.542 2 2 0 0 1-.635.362 2.6 2.6 0 0 1-.856.128m.52-1.253q.4 0 .707-.158.306-.162.481-.435.175-.272.175-.617v-.695a1 1 0 0 1-.234.102 4 4 0 0 1-.328.081q-.183.034-.367.064l-.332.047a2.2 2.2 0 0 0-.558.149.9.9 0 0 0-.371.277.68.68 0 0 0-.132.426q0 .37.268.567.273.192.691.192m8.056-5.416v1.363h-3.942v-1.363zm-3.047-1.569h1.815v6.103a.8.8 0 0 0 .077.392.42.42 0 0 0 .213.191.9.9 0 0 0 .324.056q.127 0 .255-.021l.196-.039.286 1.351a5 5 0 0 1-.384.098q-.247.06-.6.072-.657.026-1.151-.174a1.6 1.6 0 0 1-.763-.622q-.273-.423-.268-1.066zm7.116 8.242q-.993 0-1.717-.422a2.9 2.9 0 0 1-1.112-1.185q-.392-.763-.392-1.768 0-1.014.392-1.773a2.86 2.86 0 0 1 1.112-1.185q.724-.426 1.717-.426t1.713.426q.724.423 1.117 1.185.392.759.392 1.773 0 1.005-.392 1.768a2.9 2.9 0 0 1-1.117 1.185q-.72.422-1.713.422m.009-1.406q.451 0 .754-.256a1.6 1.6 0 0 0 .456-.707q.158-.448.158-1.019t-.158-1.018a1.6 1.6 0 0 0-.456-.708 1.12 1.12 0 0 0-.754-.26q-.456 0-.767.26-.308.26-.465.708a3.1 3.1 0 0 0-.153 1.018q0 .571.153 1.019.158.447.465.707.31.256.767.256m4.393 1.278v-6.545h1.76v1.142h.068q.18-.61.601-.921a1.58 1.58 0 0 1 .972-.315 2.6 2.6 0 0 1 .571.064v1.611a3 3 0 0 0-.767-.098q-.4 0-.716.174a1.3 1.3 0 0 0-.494.477q-.18.308-.179.708V124zm-16.288 29v-8.727h5.778v1.521h-3.933v2.08h3.55v1.521h-3.55V153zm6.986 0v-6.545h1.815V153zm.911-7.389a1 1 0 0 1-.694-.269.87.87 0 0 1-.286-.652.85.85 0 0 1 .286-.643.98.98 0 0 1 .694-.273q.405 0 .691.273.29.268.29.643a.86.86 0 0 1-.29.652.97.97 0 0 1-.691.269m2.358 7.389v-6.545h1.76v1.142h.068q.179-.61.601-.921a1.58 1.58 0 0 1 .972-.315 2.6 2.6 0 0 1 .571.064v1.611a3.2 3.2 0 0 0-.767-.098q-.4 0-.716.174a1.3 1.3 0 0 0-.495.477 1.4 1.4 0 0 0-.179.708V153zm7.588.128q-1.01 0-1.738-.409a2.8 2.8 0 0 1-1.117-1.168q-.392-.759-.392-1.794 0-1.01.392-1.773.393-.762 1.104-1.189.716-.426 1.679-.426.648 0 1.206.209.563.204.98.618.422.414.656 1.04.235.622.235 1.457v.499h-5.527v-1.125h3.818q0-.392-.171-.695a1.2 1.2 0 0 0-.473-.473 1.35 1.35 0 0 0-.694-.175q-.414 0-.733.192-.315.188-.494.507a1.43 1.43 0 0 0-.184.703v1.07q0 .486.179.84.183.353.516.545.332.192.788.192.303 0 .554-.085t.431-.256a1.1 1.1 0 0 0 .272-.418l1.679.111q-.128.605-.524 1.057a2.6 2.6 0 0 1-1.014.699q-.618.246-1.428.247m5.434-.128-1.782-6.545h1.837l1.014 4.397h.06l1.057-4.397h1.802l1.074 4.372h.056l.997-4.372h1.832L678.516 153h-1.922l-1.125-4.116h-.081L674.263 153zm10.782.124a2.7 2.7 0 0 1-1.116-.218 1.8 1.8 0 0 1-.776-.652q-.281-.434-.281-1.082 0-.546.2-.916t.545-.597a2.7 2.7 0 0 1 .785-.341q.443-.115.929-.162.57-.06.92-.111.35-.054.507-.161a.36.36 0 0 0 .158-.316v-.025q0-.405-.256-.627-.251-.221-.716-.221-.49 0-.78.217a1 1 0 0 0-.383.537l-1.679-.137q.128-.596.503-1.031.375-.439.967-.673.597-.239 1.381-.239.545 0 1.044.128.503.127.89.396.393.269.618.691.226.417.226 1.001V153h-1.721v-.908h-.052a1.8 1.8 0 0 1-.422.542 2 2 0 0 1-.634.362 2.6 2.6 0 0 1-.857.128m.52-1.253q.4 0 .707-.158.307-.162.482-.435a1.1 1.1 0 0 0 .175-.617v-.695a1 1 0 0 1-.235.102 4 4 0 0 1-.328.081q-.183.034-.366.064l-.333.047a2.2 2.2 0 0 0-.558.149.9.9 0 0 0-.371.277.68.68 0 0 0-.132.426q0 .37.269.567.271.192.69.192m6.39-7.598V153h-1.816v-8.727zm3.269 0V153h-1.815v-8.727zm8.033-.409-2.812 10.448h-1.564l2.812-10.448zm3.686 9.136v-8.727h3.443q.993 0 1.692.379.699.375 1.065 1.044.372.665.371 1.534 0 .87-.375 1.534-.375.665-1.087 1.036-.707.37-1.713.37h-2.194v-1.478h1.896q.533 0 .878-.183.35-.188.52-.516.174-.333.175-.763 0-.435-.175-.758a1.17 1.17 0 0 0-.52-.508q-.35-.183-.886-.183h-1.245V153zm7.736 0v-6.545h1.759v1.142h.069q.178-.61.601-.921a1.58 1.58 0 0 1 .971-.315 2.6 2.6 0 0 1 .571.064v1.611a3 3 0 0 0-.767-.098q-.4 0-.716.174a1.3 1.3 0 0 0-.494.477 1.4 1.4 0 0 0-.179.708V153zm7.562.128q-.993 0-1.717-.422a2.9 2.9 0 0 1-1.112-1.185q-.393-.763-.392-1.768 0-1.014.392-1.773a2.86 2.86 0 0 1 1.112-1.185q.724-.426 1.717-.426t1.713.426q.725.423 1.117 1.185.392.759.392 1.773 0 1.005-.392 1.768a2.9 2.9 0 0 1-1.117 1.185q-.72.422-1.713.422m.009-1.406q.451 0 .754-.256a1.6 1.6 0 0 0 .456-.707q.158-.448.158-1.019t-.158-1.018a1.6 1.6 0 0 0-.456-.708 1.12 1.12 0 0 0-.754-.26q-.456 0-.767.26-.308.26-.465.708a3.1 3.1 0 0 0-.153 1.018q0 .571.153 1.019.157.447.465.707.31.256.767.256m5.676-5.267 1.202 2.288 1.231-2.288h1.863l-1.897 3.272 1.948 3.273h-1.854l-1.291-2.263-1.27 2.263h-1.875l1.943-3.273-1.875-3.272zm6.494 9q-.345 0-.647-.056a2.4 2.4 0 0 1-.495-.132l.409-1.355q.32.098.576.106a.73.73 0 0 0 .447-.119q.192-.127.311-.435l.107-.276-2.348-6.733h1.909l1.355 4.806h.068l1.368-4.806h1.922l-2.544 7.252a3 3 0 0 1-.499.921q-.31.396-.788.609-.477.218-1.151.218"/><path fill="#fff" stroke="#414141" stroke-miterlimit="10" stroke-width="1.5" d="M577.883 91.664v4.293l95.96-.005V91.66z"/><path fill="#CCC" stroke="#414141" stroke-miterlimit="10" stroke-width="1.5" d="M679.723 69H572v22.66h107.723z"/><path fill="#fff" d="M675.07 87.338V73.323h-98.417v14.015z"/><path fill="#0055DC" stroke="#414141" stroke-width="1.5" d="M585.225 80.359a.583.583 0 1 1-1.166 0 .583.583 0 0 1 1.166 0Zm4.835 0a.584.584 0 1 1-1.168-.002.584.584 0 0 1 1.168.002Z"/><path fill="#414141" stroke="#414141" stroke-width="1.5" d="M598.601 80.358a2.251 2.251 0 1 1-4.502 0 2.251 2.251 0 0 1 4.502 0Z"/><path stroke="#414141" stroke-miterlimit="10" stroke-width="1.5" d="M668.658 83.19h-31.351"/><path stroke="#CCC" stroke-miterlimit="10" stroke-width="1.5" d="M668.797 79.664h-9.007m9.007-2.973h-9.007"/><g clip-path="url(#clip0_2203_55)"><path fill="#414141" d="M627.352 79.764h-13.04a5.447 5.447 0 0 0-9.375-2.968 5.447 5.447 0 0 0 3.606 9.148 5.447 5.447 0 0 0 5.769-4.685h6.768V84.6h1.495v-3.34h1.828v4.859h1.495v-4.86h1.454zm-18.433 4.698a3.95 3.95 0 1 1-.008-7.899 3.95 3.95 0 0 1 .008 7.899"/></g><path fill="#222" d="m565.792 468.273 2.11 6.63h.081l2.113-6.63h2.046L569.133 477h-2.378l-3.012-8.727zm7.4 8.727v-8.727h3.443q.993 0 1.692.379.699.375 1.065 1.044.372.665.371 1.534 0 .87-.375 1.534-.375.665-1.087 1.036-.707.37-1.713.37h-2.194v-1.478h1.896q.533 0 .878-.183.35-.187.52-.516.174-.333.175-.763 0-.435-.175-.758a1.17 1.17 0 0 0-.52-.508q-.35-.183-.886-.183h-1.245V477zm15.069-8.727V477h-1.593l-3.797-5.493h-.064V477h-1.845v-8.727h1.619l3.767 5.488h.077v-5.488zm12.002 3.055h-1.866a1.8 1.8 0 0 0-.209-.643 1.6 1.6 0 0 0-.405-.486 1.8 1.8 0 0 0-.571-.307 2.2 2.2 0 0 0-.694-.106q-.678 0-1.181.336-.503.333-.779.972-.277.635-.277 1.542 0 .934.277 1.569.28.634.784.958a2.1 2.1 0 0 0 1.163.324q.37 0 .686-.098a1.8 1.8 0 0 0 .567-.285q.247-.192.409-.465.166-.273.23-.622l1.866.009q-.072.6-.362 1.159-.285.554-.771.993a3.7 3.7 0 0 1-1.151.69 4.2 4.2 0 0 1-1.504.251q-1.167 0-2.088-.528-.917-.528-1.449-1.53-.528-1.002-.528-2.425 0-1.427.537-2.429.536-1.001 1.457-1.525.92-.528 2.071-.529.76 0 1.406.213.653.214 1.155.623.503.404.818.993.32.587.409 1.346m4.247 5.8q-.993 0-1.717-.422a2.9 2.9 0 0 1-1.113-1.185q-.392-.762-.392-1.768 0-1.014.392-1.773a2.87 2.87 0 0 1 1.113-1.185q.724-.426 1.717-.426t1.713.426a2.85 2.85 0 0 1 1.116 1.185q.393.759.393 1.773 0 1.006-.393 1.768a2.87 2.87 0 0 1-1.116 1.185q-.72.422-1.713.422m.008-1.406q.452 0 .755-.256.301-.26.456-.707.157-.448.157-1.019t-.157-1.018a1.6 1.6 0 0 0-.456-.708 1.12 1.12 0 0 0-.755-.26q-.455 0-.767.26a1.6 1.6 0 0 0-.464.708 3.1 3.1 0 0 0-.153 1.018q0 .571.153 1.019a1.6 1.6 0 0 0 .464.707q.312.255.767.256m6.209-2.506V477h-1.815v-6.545h1.73v1.154h.077q.218-.57.728-.903.512-.337 1.241-.337.681 0 1.188.299.507.298.789.852.28.55.281 1.312V477h-1.815v-3.844q.004-.6-.307-.937-.312-.341-.857-.341-.366 0-.647.158-.278.157-.435.46a1.6 1.6 0 0 0-.158.72m8.607 3.912q-1.005 0-1.73-.426a2.9 2.9 0 0 1-1.108-1.193q-.383-.763-.383-1.756 0-1.006.387-1.764a2.9 2.9 0 0 1 1.113-1.189q.72-.43 1.713-.431.857 0 1.5.311.643.312 1.018.874t.413 1.321h-1.713a1.32 1.32 0 0 0-.383-.788q-.307-.303-.806-.303a1.22 1.22 0 0 0-.737.23q-.31.226-.486.661-.174.434-.174 1.052 0 .627.17 1.066.175.438.49.669.315.23.737.23.312 0 .559-.128a1.1 1.1 0 0 0 .413-.371q.166-.247.217-.592h1.713q-.042.75-.409 1.321a2.47 2.47 0 0 1-1.001.886q-.639.32-1.513.32m7.069 0q-1.01 0-1.739-.409a2.8 2.8 0 0 1-1.116-1.168q-.392-.759-.392-1.794 0-1.01.392-1.773a2.9 2.9 0 0 1 1.103-1.189q.716-.426 1.679-.426.648 0 1.206.209.563.204.98.618.422.413.657 1.04.234.622.234 1.457v.499h-5.527v-1.125h3.818q0-.393-.17-.695a1.23 1.23 0 0 0-.473-.473 1.36 1.36 0 0 0-.695-.175q-.413 0-.733.192-.315.188-.494.507-.18.316-.183.703v1.07q0 .486.179.84.183.353.515.545.333.192.789.192.302 0 .554-.085.251-.086.43-.256t.273-.418l1.679.111q-.128.605-.525 1.057a2.6 2.6 0 0 1-1.014.699q-.618.246-1.427.247m6.004-3.912V477h-1.815v-6.545h1.73v1.154h.076a1.83 1.83 0 0 1 .729-.903q.511-.337 1.24-.337.682 0 1.189.299.507.298.788.852.282.55.282 1.312V477h-1.816v-3.844q.005-.6-.306-.937-.312-.341-.857-.341-.366 0-.648.158a1.1 1.1 0 0 0-.434.46 1.6 1.6 0 0 0-.158.72m9.131-2.761v1.363h-3.942v-1.363zm-3.047-1.569h1.815v6.103a.8.8 0 0 0 .077.392.42.42 0 0 0 .213.191.9.9 0 0 0 .324.056q.128 0 .256-.021l.196-.039.285 1.351a5 5 0 0 1-.383.098q-.247.06-.601.072-.657.026-1.151-.174a1.6 1.6 0 0 1-.762-.622q-.273-.423-.269-1.066zm4.23 8.114v-6.545h1.759v1.142h.069q.178-.61.601-.921a1.58 1.58 0 0 1 .971-.315 2.6 2.6 0 0 1 .571.064v1.611a3 3 0 0 0-.767-.098q-.4 0-.716.174a1.3 1.3 0 0 0-.494.477 1.4 1.4 0 0 0-.179.708V477zm6.589.124q-.627 0-1.117-.218a1.8 1.8 0 0 1-.775-.652q-.282-.434-.282-1.082 0-.546.201-.916.2-.37.545-.597.346-.225.784-.341a6 6 0 0 1 .929-.162q.572-.06.921-.111.35-.054.507-.161a.36.36 0 0 0 .157-.316v-.025q0-.405-.255-.627-.252-.221-.716-.221-.49 0-.78.217a1 1 0 0 0-.384.537l-1.679-.137q.129-.596.503-1.031.375-.438.968-.673.596-.239 1.38-.239.546 0 1.044.128.503.127.891.396.391.269.618.691.225.417.226 1.001V477h-1.722v-.908h-.051a1.9 1.9 0 0 1-.422.542 2 2 0 0 1-.635.362 2.6 2.6 0 0 1-.856.128m.52-1.253q.4 0 .707-.158.306-.162.481-.435.175-.272.175-.617v-.695a1 1 0 0 1-.234.102 4 4 0 0 1-.328.081q-.183.034-.367.064l-.332.047a2.2 2.2 0 0 0-.558.149.9.9 0 0 0-.371.277.68.68 0 0 0-.132.426q0 .37.268.567.273.192.691.192m8.056-5.416v1.363h-3.942v-1.363zm-3.047-1.569h1.815v6.103a.8.8 0 0 0 .077.392.42.42 0 0 0 .213.191.9.9 0 0 0 .324.056q.127 0 .255-.021l.196-.039.286 1.351a5 5 0 0 1-.384.098q-.247.06-.6.072-.657.026-1.151-.174a1.6 1.6 0 0 1-.763-.622q-.273-.423-.268-1.066zm7.116 8.242q-.993 0-1.717-.422a2.9 2.9 0 0 1-1.112-1.185q-.392-.762-.392-1.768 0-1.014.392-1.773a2.86 2.86 0 0 1 1.112-1.185q.724-.426 1.717-.426t1.713.426q.724.423 1.117 1.185.392.759.392 1.773 0 1.006-.392 1.768a2.9 2.9 0 0 1-1.117 1.185q-.72.422-1.713.422m.009-1.406q.451 0 .754-.256a1.6 1.6 0 0 0 .456-.707q.158-.448.158-1.019t-.158-1.018a1.6 1.6 0 0 0-.456-.708 1.12 1.12 0 0 0-.754-.26q-.456 0-.767.26-.308.26-.465.708a3.1 3.1 0 0 0-.153 1.018q0 .571.153 1.019.158.447.465.707.31.255.767.256m4.393 1.278v-6.545h1.76v1.142h.068q.18-.61.601-.921a1.58 1.58 0 0 1 .972-.315 2.6 2.6 0 0 1 .571.064v1.611a3 3 0 0 0-.767-.098q-.4 0-.716.174a1.3 1.3 0 0 0-.494.477q-.18.308-.179.708V477zM564.792 288.273l2.11 6.63h.081l2.113-6.63h2.046L568.133 297h-2.378l-3.012-8.727zm7.4 8.727v-8.727h3.443q.993 0 1.692.379.699.375 1.065 1.044.372.665.371 1.534 0 .87-.375 1.534-.375.665-1.087 1.036-.707.37-1.713.37h-2.194v-1.478h1.896q.533 0 .878-.183.35-.187.52-.516.174-.333.175-.763 0-.435-.175-.758a1.17 1.17 0 0 0-.52-.508q-.35-.183-.886-.183h-1.245V297zm15.069-8.727V297h-1.593l-3.797-5.493h-.064V297h-1.845v-8.727h1.619l3.767 5.488h.077v-5.488zm12.002 3.055h-1.866a1.8 1.8 0 0 0-.209-.643 1.6 1.6 0 0 0-.405-.486 1.8 1.8 0 0 0-.571-.307 2.2 2.2 0 0 0-.694-.106q-.678 0-1.181.336-.503.333-.779.972-.277.635-.277 1.542 0 .934.277 1.569.28.634.784.958a2.1 2.1 0 0 0 1.163.324q.37 0 .686-.098a1.8 1.8 0 0 0 .567-.285q.247-.192.409-.465.166-.273.23-.622l1.866.009q-.072.6-.362 1.159-.285.554-.771.993a3.7 3.7 0 0 1-1.151.69 4.2 4.2 0 0 1-1.504.251q-1.167 0-2.088-.528-.917-.528-1.449-1.53-.528-1.002-.528-2.425 0-1.427.537-2.429.536-1.001 1.457-1.525.92-.529 2.071-.529.76 0 1.406.213.653.214 1.155.623.503.404.818.993.32.587.409 1.346m4.247 5.8q-.993 0-1.717-.422a2.9 2.9 0 0 1-1.113-1.185q-.392-.762-.392-1.768 0-1.014.392-1.773a2.87 2.87 0 0 1 1.113-1.185q.724-.426 1.717-.426t1.713.426a2.85 2.85 0 0 1 1.116 1.185q.393.759.393 1.773 0 1.006-.393 1.768a2.87 2.87 0 0 1-1.116 1.185q-.72.422-1.713.422m.008-1.406q.452 0 .755-.256.301-.26.456-.707.157-.448.157-1.019t-.157-1.018a1.6 1.6 0 0 0-.456-.708 1.12 1.12 0 0 0-.755-.26q-.455 0-.767.26a1.6 1.6 0 0 0-.464.708 3.1 3.1 0 0 0-.153 1.018q0 .571.153 1.019a1.6 1.6 0 0 0 .464.707q.312.255.767.256m6.209-2.506V297h-1.815v-6.545h1.73v1.154h.077q.218-.57.728-.903.512-.337 1.241-.337.681 0 1.188.299.507.298.789.852.28.55.281 1.312V297h-1.815v-3.844q.004-.6-.307-.937-.312-.341-.857-.341-.366 0-.647.158-.278.157-.435.46a1.6 1.6 0 0 0-.158.72m8.607 3.912q-1.005 0-1.73-.426a2.9 2.9 0 0 1-1.108-1.193q-.383-.763-.383-1.756 0-1.007.387-1.764a2.9 2.9 0 0 1 1.113-1.189q.72-.43 1.713-.431.857 0 1.5.311.643.312 1.018.874t.413 1.321h-1.713a1.32 1.32 0 0 0-.383-.788q-.307-.303-.806-.303a1.22 1.22 0 0 0-.737.23q-.31.226-.486.661-.174.434-.174 1.052 0 .627.17 1.066.175.438.49.669.315.23.737.23.312 0 .559-.128a1.1 1.1 0 0 0 .413-.371q.166-.247.217-.592h1.713q-.042.75-.409 1.321a2.47 2.47 0 0 1-1.001.886q-.639.32-1.513.32m7.069 0q-1.01 0-1.739-.409a2.8 2.8 0 0 1-1.116-1.168q-.392-.759-.392-1.794 0-1.01.392-1.773a2.9 2.9 0 0 1 1.103-1.189q.716-.426 1.679-.426.648 0 1.206.209.563.204.98.618.422.413.657 1.04.234.622.234 1.457v.499h-5.527v-1.125h3.818q0-.393-.17-.695a1.23 1.23 0 0 0-.473-.473 1.36 1.36 0 0 0-.695-.175q-.413 0-.733.192-.315.188-.494.507-.18.316-.183.703v1.07q0 .486.179.84.183.353.515.545.333.192.789.192.302 0 .554-.085.251-.086.43-.256t.273-.418l1.679.111q-.128.605-.525 1.057a2.6 2.6 0 0 1-1.014.699q-.618.247-1.427.247m6.004-3.912V297h-1.815v-6.545h1.73v1.154h.076a1.83 1.83 0 0 1 .729-.903q.511-.337 1.24-.337.682 0 1.189.299.507.298.788.852.282.55.282 1.312V297h-1.816v-3.844q.005-.6-.306-.937-.312-.341-.857-.341-.366 0-.648.158a1.1 1.1 0 0 0-.434.46 1.6 1.6 0 0 0-.158.72m9.131-2.761v1.363h-3.942v-1.363zm-3.047-1.569h1.815v6.103a.8.8 0 0 0 .077.392.42.42 0 0 0 .213.191.9.9 0 0 0 .324.056q.128 0 .256-.021l.196-.039.285 1.351a5 5 0 0 1-.383.098q-.247.06-.601.072-.657.026-1.151-.174a1.6 1.6 0 0 1-.762-.622q-.273-.423-.269-1.066zm4.23 8.114v-6.545h1.759v1.142h.069q.178-.61.601-.921a1.58 1.58 0 0 1 .971-.315 2.6 2.6 0 0 1 .571.064v1.611a3 3 0 0 0-.767-.098q-.4 0-.716.174a1.3 1.3 0 0 0-.494.477 1.4 1.4 0 0 0-.179.708V297zm6.589.124q-.627 0-1.117-.218a1.8 1.8 0 0 1-.775-.652q-.282-.434-.282-1.082 0-.546.201-.916.2-.37.545-.597.346-.225.784-.341a6 6 0 0 1 .929-.162q.572-.06.921-.111.35-.054.507-.161a.36.36 0 0 0 .157-.316v-.025q0-.405-.255-.627-.252-.221-.716-.221-.49 0-.78.217a1 1 0 0 0-.384.537l-1.679-.137q.129-.596.503-1.031.375-.438.968-.673.596-.239 1.38-.239.546 0 1.044.128.503.127.891.396.391.269.618.691.225.417.226 1.001V297h-1.722v-.908h-.051a1.9 1.9 0 0 1-.422.542 2 2 0 0 1-.635.362 2.6 2.6 0 0 1-.856.128m.52-1.253q.4 0 .707-.158.306-.162.481-.435.175-.272.175-.617v-.695a1 1 0 0 1-.234.102 4 4 0 0 1-.328.081q-.183.034-.367.064l-.332.047a2.2 2.2 0 0 0-.558.149.9.9 0 0 0-.371.277.68.68 0 0 0-.132.426q0 .37.268.567.273.192.691.192m8.056-5.416v1.363h-3.942v-1.363zm-3.047-1.569h1.815v6.103a.8.8 0 0 0 .077.392.42.42 0 0 0 .213.191.9.9 0 0 0 .324.056q.127 0 .255-.021l.196-.039.286 1.351a5 5 0 0 1-.384.098q-.247.06-.6.072-.657.026-1.151-.174a1.6 1.6 0 0 1-.763-.622q-.273-.423-.268-1.066zm7.116 8.242q-.993 0-1.717-.422a2.9 2.9 0 0 1-1.112-1.185q-.392-.762-.392-1.768 0-1.014.392-1.773a2.86 2.86 0 0 1 1.112-1.185q.724-.426 1.717-.426t1.713.426q.724.423 1.117 1.185.392.759.392 1.773 0 1.006-.392 1.768a2.9 2.9 0 0 1-1.117 1.185q-.72.422-1.713.422m.009-1.406q.451 0 .754-.256a1.6 1.6 0 0 0 .456-.707q.158-.448.158-1.019t-.158-1.018a1.6 1.6 0 0 0-.456-.708 1.12 1.12 0 0 0-.754-.26q-.456 0-.767.26-.308.26-.465.708a3.1 3.1 0 0 0-.153 1.018q0 .571.153 1.019.158.447.465.707.31.255.767.256m4.393 1.278v-6.545h1.76v1.142h.068q.18-.61.601-.921a1.58 1.58 0 0 1 .972-.315 2.6 2.6 0 0 1 .571.064v1.611a3 3 0 0 0-.767-.098q-.4 0-.716.174a1.3 1.3 0 0 0-.494.477q-.18.307-.179.708V297z"/><path fill="#fff" stroke="#414141" stroke-miterlimit="10" stroke-width="1.5" d="M577.883 264.664v4.293l95.96-.005v-4.293z"/><path fill="#CCC" stroke="#414141" stroke-miterlimit="10" stroke-width="1.5" d="M679.723 242H572v22.661h107.723z"/><path fill="#fff" d="M675.07 260.338v-14.015h-98.417v14.015z"/><path fill="#0055DC" stroke="#414141" stroke-width="1.5" d="M585.225 253.358a.583.583 0 1 1-1.166.002.583.583 0 0 1 1.166-.002Zm4.835 0a.584.584 0 1 1-1.168 0 .584.584 0 0 1 1.168 0Z"/><path fill="#414141" stroke="#414141" stroke-width="1.5" d="M598.601 253.358a2.251 2.251 0 1 1-4.502 0 2.251 2.251 0 0 1 4.502 0Z"/><path stroke="#414141" stroke-miterlimit="10" stroke-width="1.5" d="M668.658 256.191h-31.351"/><path stroke="#CCC" stroke-miterlimit="10" stroke-width="1.5" d="M668.797 252.664h-9.007m9.007-2.973h-9.007"/><g clip-path="url(#clip1_2203_55)"><path fill="#414141" d="M627.352 252.764h-13.04a5.449 5.449 0 0 0-9.375-2.968 5.445 5.445 0 1 0 9.375 4.463h6.768v3.341h1.495v-3.341h1.828v4.858h1.495v-4.858h1.454zm-18.433 4.698a3.953 3.953 0 0 1-3.879-4.719 3.952 3.952 0 0 1 5.386-2.882 3.95 3.95 0 0 1 2.439 3.65 3.956 3.956 0 0 1-3.946 3.951"/></g><path fill="#fff" stroke="#414141" stroke-miterlimit="10" stroke-width="1.5" d="M577.883 444.664v4.293l95.96-.005v-4.293z"/><path fill="#CCC" stroke="#414141" stroke-miterlimit="10" stroke-width="1.5" d="M679.723 422H572v22.661h107.723z"/><path fill="#fff" d="M675.07 440.338v-14.015h-98.417v14.015z"/><path fill="#0055DC" stroke="#414141" stroke-width="1.5" d="M585.225 433.358a.583.583 0 1 1-1.166.002.583.583 0 0 1 1.166-.002Zm4.835 0a.584.584 0 1 1-1.168 0 .584.584 0 0 1 1.168 0Z"/><path fill="#414141" stroke="#414141" stroke-width="1.5" d="M598.601 433.358a2.251 2.251 0 1 1-4.502 0 2.251 2.251 0 0 1 4.502 0Z"/><path stroke="#414141" stroke-miterlimit="10" stroke-width="1.5" d="M668.658 436.191h-31.351"/><path stroke="#CCC" stroke-miterlimit="10" stroke-width="1.5" d="M668.797 432.664h-9.007m9.007-2.973h-9.007"/><g clip-path="url(#clip2_2203_55)"><path fill="#414141" d="M627.352 432.764h-13.04a5.449 5.449 0 0 0-9.375-2.968 5.445 5.445 0 1 0 9.375 4.463h6.768v3.341h1.495v-3.341h1.828v4.858h1.495v-4.858h1.454zm-18.433 4.698a3.953 3.953 0 0 1-3.879-4.719 3.952 3.952 0 0 1 5.386-2.882 3.95 3.95 0 0 1 2.439 3.65 3.956 3.956 0 0 1-3.946 3.951"/></g><path stroke="#6ECCE5" stroke-dasharray="8 8" stroke-width="2" d="M702 246h118v55H702z"/><path fill="#fff" d="M724 241h76v14h-76z"/><path fill="#0055DC" d="M717.507 266.198H714v18.05h3.507zm91.493 0h-3.507v18.05H809z"/><path fill="#fff" stroke="#0055DC" stroke-miterlimit="10" stroke-width="1.5" d="m722.31 287.464.001 3.426 78.376-.004v-3.426z"/><path fill="#C5EBF5" stroke="#0055DC" stroke-miterlimit="10" stroke-width="1.5" d="M805.492 263h-87.985v24.462h87.985z"/><path fill="#fff" d="M801.692 284.012v-17.564h-80.384v17.564z"/><path fill="#0055DC" d="M727.832 271.408h-1.947v1.902h1.947zm0 5.725h-1.947v1.903h1.947zm2.667-3.016h-1.948v1.902h1.948zm2.37-2.709h-1.947v1.902h1.947zm0 5.725h-1.947v1.903h1.947zm2.52-3.016h-1.948v1.902h1.948zm2.98-2.709h-1.947v1.902h1.947zm0 5.725h-1.947v1.903h1.947zm2.519-3.016h-1.947v1.902h1.947zm3.065-2.709h-1.948v1.902h1.948zm0 5.725h-1.948v1.903h1.948zm2.371-3.016h-1.948v1.902h1.948zm2.666-2.709h-1.948v1.902h1.948zm0 5.725h-1.948v1.903h1.948zm2.224-3.016h-1.948v1.902h1.948zm2.815-2.709h-1.947v1.902h1.947zm0 5.725h-1.947v1.903h1.947zm2.075-3.016h-1.947v1.902h1.947zm39.202 3.475c1.335 0 2.418-1.057 2.418-2.361s-1.083-2.362-2.418-2.362-2.418 1.058-2.418 2.362 1.083 2.361 2.418 2.361"/><path stroke="#0055DC" stroke-miterlimit="10" stroke-width="1.5" d="M788.354 275.231h-25.606"/><path stroke="#6ECCE5" stroke-dasharray="8 8" stroke-width="2" d="M702 423h118v55H702z"/><path fill="#fff" d="M726 418h76v14h-76z"/><path fill="#000" d="M742.973 422.783q-.05-.516-.439-.801-.387-.286-1.052-.286-.452 0-.763.128a1.07 1.07 0 0 0-.477.345.83.83 0 0 0-.162.503.7.7 0 0 0 .098.409q.111.174.302.303.192.123.444.217.25.09.537.153l.784.188q.57.128 1.048.341.477.212.827.524.35.311.541.733.196.421.2.967-.004.801-.409 1.389-.4.584-1.159.908-.754.32-1.82.32-1.056 0-1.841-.324-.78-.324-1.218-.959-.435-.639-.456-1.581h1.785q.03.44.252.733.226.29.601.439.379.144.856.145.47 0 .814-.137.35-.136.541-.379a.88.88 0 0 0 .192-.558.72.72 0 0 0-.175-.494 1.3 1.3 0 0 0-.503-.341 5 5 0 0 0-.805-.256l-.95-.239q-1.104-.269-1.743-.839-.64-.572-.635-1.539-.004-.793.422-1.384a2.84 2.84 0 0 1 1.18-.925q.75-.333 1.705-.333.971 0 1.696.333.728.332 1.133.925.405.591.418 1.372zm7.293 3.43v-3.758h1.815V429h-1.743v-1.189h-.068a1.94 1.94 0 0 1-.737.925q-.511.35-1.249.349-.655 0-1.155-.298a2.06 2.06 0 0 1-.78-.848q-.276-.55-.281-1.317v-4.167h1.816v3.843q.003.58.311.916.306.337.822.337.328 0 .614-.149.285-.153.46-.452.178-.298.175-.737m3.301 2.787v-8.727h1.815v3.281h.056q.118-.264.345-.537.23-.277.597-.46.37-.188.92-.188.716 0 1.321.375.606.37.967 1.121.363.746.363 1.871 0 1.095-.354 1.849-.35.75-.955 1.138-.6.384-1.346.384-.528 0-.899-.175a1.9 1.9 0 0 1-.601-.439 2.2 2.2 0 0 1-.358-.541h-.081V429zm1.777-3.273q0 .584.162 1.019t.469.677q.306.239.746.239.442 0 .75-.243.306-.247.464-.682.162-.438.162-1.01 0-.567-.158-.997a1.5 1.5 0 0 0-.464-.673 1.18 1.18 0 0 0-.754-.243q-.444 0-.75.234a1.47 1.47 0 0 0-.465.665 2.9 2.9 0 0 0-.162 1.014m7.633-.511V429h-1.815v-6.545h1.73v1.154h.077q.218-.57.728-.903.512-.337 1.241-.337.681 0 1.188.299.507.298.789.852.28.55.281 1.312V429h-1.815v-3.844q.004-.6-.307-.937-.312-.341-.857-.341-.366 0-.647.158-.278.157-.435.46a1.6 1.6 0 0 0-.158.72m8.633 3.912q-1.01 0-1.739-.409a2.8 2.8 0 0 1-1.116-1.168q-.392-.759-.392-1.794 0-1.01.392-1.773a2.9 2.9 0 0 1 1.103-1.189q.716-.426 1.679-.426.648 0 1.206.209.563.204.98.618.422.413.657 1.04.234.622.234 1.457v.499h-5.527v-1.125h3.818q0-.393-.17-.695a1.23 1.23 0 0 0-.473-.473 1.36 1.36 0 0 0-.695-.175q-.413 0-.733.192-.315.188-.494.507a1.43 1.43 0 0 0-.183.703v1.07q0 .486.179.84.183.353.515.545.333.192.789.192.302 0 .554-.085.251-.086.43-.256t.273-.418l1.679.111q-.128.605-.525 1.057a2.6 2.6 0 0 1-1.014.699q-.618.246-1.427.247m7.67-6.673v1.363h-3.942v-1.363zm-3.047-1.569h1.816v6.103q0 .25.076.392a.42.42 0 0 0 .213.191.9.9 0 0 0 .324.056q.129 0 .256-.021l.196-.039.286 1.351a5 5 0 0 1-.384.098q-.247.06-.601.072-.656.026-1.15-.174a1.6 1.6 0 0 1-.763-.622q-.273-.423-.269-1.066zM783.18 429v-1.095l4.356-6.111h-4.364v-1.521h6.682v1.095l-4.36 6.111h4.368V429z"/><path fill="#0055DC" d="M719.507 443.198H716v18.05h3.507zm91.493 0h-3.507v18.05H811z"/><path fill="#fff" stroke="#0055DC" stroke-miterlimit="10" stroke-width="1.5" d="m724.31 464.464.001 3.426 78.376-.004v-3.426z"/><path fill="#C5EBF5" stroke="#0055DC" stroke-miterlimit="10" stroke-width="1.5" d="M807.492 440h-87.985v24.462h87.985z"/><path fill="#fff" d="M803.692 461.012v-17.564h-80.384v17.564z"/><path fill="#0055DC" d="M729.832 448.408h-1.947v1.902h1.947zm0 5.725h-1.947v1.903h1.947zm2.667-3.016h-1.948v1.902h1.948zm2.37-2.709h-1.947v1.902h1.947zm0 5.725h-1.947v1.903h1.947zm2.52-3.016h-1.948v1.902h1.948zm2.98-2.709h-1.947v1.902h1.947zm0 5.725h-1.947v1.903h1.947zm2.519-3.016h-1.947v1.902h1.947zm3.065-2.709h-1.948v1.902h1.948zm0 5.725h-1.948v1.903h1.948zm2.371-3.016h-1.948v1.902h1.948zm2.666-2.709h-1.948v1.902h1.948zm0 5.725h-1.948v1.903h1.948zm2.224-3.016h-1.948v1.902h1.948zm2.815-2.709h-1.947v1.902h1.947zm0 5.725h-1.947v1.903h1.947zm2.075-3.016h-1.947v1.902h1.947zm39.202 3.475c1.335 0 2.418-1.057 2.418-2.361s-1.083-2.362-2.418-2.362-2.418 1.058-2.418 2.362 1.083 2.361 2.418 2.361"/><path stroke="#0055DC" stroke-miterlimit="10" stroke-width="1.5" d="M790.354 452.231h-25.606"/><path fill="#000" d="M740.628 245.783a1.08 1.08 0 0 0-.439-.801q-.388-.286-1.053-.286-.451 0-.763.128a1.07 1.07 0 0 0-.477.345.83.83 0 0 0-.162.503.73.73 0 0 0 .098.409q.111.174.303.303.192.123.443.217.252.09.537.153l.784.188q.571.128 1.048.341t.827.524.541.733q.197.421.2.967-.003.801-.409 1.389-.4.585-1.159.908-.754.32-1.819.32-1.058 0-1.841-.324a2.7 2.7 0 0 1-1.219-.959q-.435-.639-.456-1.581h1.786q.029.44.251.733.226.29.601.439.38.144.856.145.47 0 .814-.137.35-.136.541-.379a.88.88 0 0 0 .192-.558.73.73 0 0 0-.174-.494 1.3 1.3 0 0 0-.503-.341 5 5 0 0 0-.806-.256l-.95-.239q-1.104-.269-1.743-.839-.64-.572-.635-1.539-.004-.792.422-1.384a2.84 2.84 0 0 1 1.18-.925q.75-.333 1.705-.333.972 0 1.696.333.729.332 1.134.925.404.591.417 1.372zm7.292 3.43v-3.758h1.815V252h-1.743v-1.189h-.068a1.93 1.93 0 0 1-.737.925q-.511.35-1.249.349-.656 0-1.154-.298a2.05 2.05 0 0 1-.78-.848q-.277-.55-.282-1.317v-4.167h1.816v3.843q.004.58.311.916t.822.337q.329 0 .614-.149.286-.153.46-.452.18-.298.175-.737m3.301 2.787v-8.727h1.816v3.281h.055q.12-.264.345-.537.231-.277.597-.46.37-.188.92-.188.717 0 1.321.375.605.37.968 1.121.362.746.362 1.871 0 1.095-.354 1.849-.35.75-.954 1.138a2.45 2.45 0 0 1-1.347.384q-.528 0-.899-.175a1.9 1.9 0 0 1-.601-.439 2.3 2.3 0 0 1-.358-.541h-.081V252zm1.777-3.273q0 .584.162 1.019t.469.677q.307.239.746.239.442 0 .75-.243.306-.247.464-.682.162-.438.162-1.01 0-.567-.157-.997a1.5 1.5 0 0 0-.465-.673 1.18 1.18 0 0 0-.754-.243q-.444 0-.75.234a1.47 1.47 0 0 0-.465.665 2.9 2.9 0 0 0-.162 1.014m7.634-.511V252h-1.816v-6.545h1.73v1.154h.077a1.83 1.83 0 0 1 .729-.903q.511-.337 1.24-.337.681 0 1.189.299.507.298.788.852.281.55.281 1.312V252h-1.815v-3.844q.005-.6-.307-.937-.311-.341-.856-.341a1.3 1.3 0 0 0-.648.158q-.278.157-.435.46a1.6 1.6 0 0 0-.157.72m8.632 3.912q-1.01 0-1.739-.409a2.8 2.8 0 0 1-1.116-1.168q-.392-.759-.392-1.794 0-1.01.392-1.773a2.9 2.9 0 0 1 1.104-1.189q.716-.426 1.679-.426.646 0 1.206.209.562.204.98.618.422.414.656 1.04.234.622.234 1.457v.499h-5.527v-1.125h3.818q0-.393-.17-.695a1.2 1.2 0 0 0-.473-.473 1.35 1.35 0 0 0-.695-.175 1.4 1.4 0 0 0-.733.192q-.315.188-.494.507a1.44 1.44 0 0 0-.183.703v1.07q0 .486.179.84.183.353.516.545.332.192.788.192.303 0 .554-.085t.43-.256q.18-.17.273-.418l1.679.111q-.128.605-.524 1.057a2.65 2.65 0 0 1-1.014.699q-.618.246-1.428.247m7.67-6.673v1.363h-3.941v-1.363zm-3.046-1.569h1.815v6.103a.8.8 0 0 0 .077.392.42.42 0 0 0 .213.191.9.9 0 0 0 .324.056q.127 0 .255-.021l.196-.039.286 1.351a5 5 0 0 1-.384.098q-.246.06-.601.072-.656.026-1.15-.174a1.6 1.6 0 0 1-.763-.622q-.273-.423-.268-1.066zm6.529-.613h2.067l1.99 3.758h.085l1.99-3.758h2.067l-3.183 5.642V252H783.6v-3.085z"/><path fill="#222" d="M174.604 139.273V148h-1.845v-8.727zm1.518 8.727v-8.727h3.443q.993 0 1.692.379.699.375 1.065 1.044.37.665.371 1.534 0 .87-.375 1.534-.375.665-1.087 1.036-.707.37-1.713.37h-2.194v-1.478h1.896q.533 0 .878-.183.35-.188.52-.516.174-.333.174-.763 0-.435-.174-.758a1.17 1.17 0 0 0-.52-.508q-.35-.183-.887-.183h-1.244V148zm13.181-4.679-1.662.102a.85.85 0 0 0-.183-.383.96.96 0 0 0-.371-.277 1.3 1.3 0 0 0-.541-.107q-.422 0-.711.179-.29.175-.29.469 0 .234.187.396.188.162.644.26l1.184.239q.955.196 1.424.631.468.434.468 1.142 0 .643-.379 1.129-.375.486-1.031.758-.652.269-1.504.269-1.3 0-2.071-.541a2.1 2.1 0 0 1-.9-1.483l1.786-.094a.92.92 0 0 0 .392.605q.31.204.797.205.477 0 .767-.184.294-.187.298-.481a.5.5 0 0 0-.209-.405q-.204-.162-.63-.247l-1.134-.226q-.959-.191-1.427-.665-.465-.472-.465-1.206 0-.63.341-1.086.345-.456.967-.704.627-.246 1.466-.247 1.24 0 1.952.524.716.525.835 1.428m4.275 4.807q-1.01 0-1.738-.409a2.8 2.8 0 0 1-1.117-1.168q-.392-.759-.392-1.794 0-1.01.392-1.773.393-.762 1.104-1.189.716-.426 1.679-.426.648 0 1.206.209.563.204.98.618.422.414.656 1.04.235.622.235 1.457v.499h-5.527v-1.125h3.818q0-.392-.171-.695a1.2 1.2 0 0 0-.473-.473 1.35 1.35 0 0 0-.694-.175q-.414 0-.733.192-.315.188-.494.507a1.43 1.43 0 0 0-.184.703v1.07q0 .486.179.84.183.353.516.545t.788.192q.303 0 .554-.085t.431-.256a1.1 1.1 0 0 0 .272-.418l1.679.111q-.128.605-.524 1.057a2.6 2.6 0 0 1-1.014.699q-.618.246-1.428.247m7.147 0q-1.006 0-1.73-.426a2.9 2.9 0 0 1-1.108-1.193q-.384-.763-.384-1.756 0-1.006.388-1.764a2.9 2.9 0 0 1 1.112-1.189q.72-.43 1.713-.431.856 0 1.5.311.644.312 1.019.874t.413 1.321h-1.713q-.072-.49-.384-.788-.307-.303-.805-.303a1.22 1.22 0 0 0-.737.23q-.311.226-.486.661-.174.434-.175 1.052 0 .627.171 1.066.175.438.49.669.315.23.737.23.311 0 .558-.128.252-.128.414-.371a1.4 1.4 0 0 0 .217-.592h1.713q-.042.75-.409 1.321a2.47 2.47 0 0 1-1.001.886q-.64.32-1.513.32"/><path stroke="#3E74FF" stroke-width="2" d="M178 102v32"/><path fill="#E0ECFF" stroke="#3E74FF" stroke-width="2" d="M545.994 103H148.67V79h397.324z"/><path fill="#fff" d="M539.989 78H554v26h-14.011z"/><path fill="#E0ECFF" d="M143 80h14.011v22H143z"/><path fill="#000" d="M160.975 90.293a1 1 0 0 0 0 1.414l6.364 6.364a1 1 0 1 0 1.414-1.414L163.096 91l5.657-5.657a1 1 0 0 0-1.414-1.414zm361.039 1.414a1 1 0 0 0 0-1.414l-6.364-6.364a1 1 0 1 0-1.414 1.414L519.893 91l-5.657 5.657a1 1 0 1 0 1.414 1.414zM161.682 92h359.625v-2H161.682z"/><path fill="#E2F5FA" stroke="#0055DC" stroke-width="2" d="M383.436 169.843h.001c11.068 0 19.934 8.419 19.934 18.684 0 10.264-8.866 18.684-19.934 18.684h-79.773C289.977 207.177 279 196.749 279 184.017c0-12.753 11.014-23.195 24.732-23.195 1.377 0 2.752.108 4.112.321l.841.132.265-.809C313.382 146.91 326.831 137 342.796 137c19.271 0 34.854 14.423 35.385 32.28l.035 1.176 1.155-.224a21.3 21.3 0 0 1 4.065-.389Z"/><path fill="#222" d="M319.701 175.273V184h-1.845v-8.727zm3.3 4.943V184h-1.816v-6.545h1.73v1.154h.077a1.83 1.83 0 0 1 .729-.903q.511-.337 1.24-.337.682 0 1.189.299.507.298.788.852.281.55.281 1.312V184h-1.815v-3.844q.005-.6-.307-.937-.311-.341-.856-.341-.367 0-.648.158-.277.157-.435.46a1.6 1.6 0 0 0-.157.72m9.131-2.761v1.363h-3.942v-1.363zm-3.047-1.569h1.815v6.103a.8.8 0 0 0 .077.392.42.42 0 0 0 .213.191.9.9 0 0 0 .324.056q.127 0 .256-.021l.196-.039.285 1.351a6 6 0 0 1-.383.098q-.248.06-.601.072-.656.026-1.151-.174a1.6 1.6 0 0 1-.763-.622q-.272-.423-.268-1.066zm7.142 8.242q-1.01 0-1.739-.409a2.8 2.8 0 0 1-1.116-1.168q-.392-.759-.392-1.794 0-1.01.392-1.773a2.9 2.9 0 0 1 1.103-1.189q.716-.426 1.679-.426.648 0 1.206.209.563.204.981.618.422.414.656 1.04.234.622.234 1.457v.499h-5.527v-1.125h3.818q0-.393-.17-.695a1.2 1.2 0 0 0-.473-.473 1.35 1.35 0 0 0-.695-.175q-.413 0-.733.192-.315.188-.494.507a1.44 1.44 0 0 0-.183.703v1.07q0 .486.179.84.183.353.515.545.333.192.789.192.302 0 .554-.085.251-.086.43-.256.178-.17.273-.418l1.679.111q-.128.605-.524 1.057-.393.447-1.015.699-.617.246-1.427.247m4.189-.128v-6.545h1.76v1.142h.068q.179-.61.601-.921a1.58 1.58 0 0 1 .971-.315 2.6 2.6 0 0 1 .571.064v1.611a3.2 3.2 0 0 0-.767-.098 1.46 1.46 0 0 0-.716.174 1.3 1.3 0 0 0-.494.477 1.4 1.4 0 0 0-.179.708V184zm6.725-3.784V184h-1.815v-6.545h1.73v1.154h.077a1.83 1.83 0 0 1 .729-.903q.51-.337 1.24-.337.681 0 1.188.299.508.298.789.852.28.55.281 1.312V184h-1.815v-3.844q.004-.6-.307-.937-.31-.341-.857-.341-.366 0-.647.158-.277.157-.435.46a1.6 1.6 0 0 0-.158.72m8.633 3.912q-1.01 0-1.739-.409a2.8 2.8 0 0 1-1.116-1.168q-.393-.759-.392-1.794 0-1.01.392-1.773a2.9 2.9 0 0 1 1.103-1.189q.716-.426 1.679-.426.648 0 1.206.209.563.204.98.618.422.414.657 1.04.234.622.234 1.457v.499h-5.527v-1.125h3.818q0-.393-.17-.695a1.23 1.23 0 0 0-.473-.473 1.36 1.36 0 0 0-.695-.175q-.413 0-.733.192-.315.188-.494.507a1.44 1.44 0 0 0-.183.703v1.07q0 .486.179.84.183.353.515.545.333.192.789.192.302 0 .554-.085.251-.086.43-.256.178-.17.273-.418l1.679.111q-.129.605-.524 1.057-.393.447-1.015.699-.617.246-1.427.247m7.67-6.673v1.363h-3.942v-1.363zm-3.047-1.569h1.816v6.103q0 .25.076.392a.42.42 0 0 0 .213.191.9.9 0 0 0 .324.056q.129 0 .256-.021l.196-.039.286 1.351a5 5 0 0 1-.384.098q-.247.06-.601.072-.656.026-1.15-.174a1.6 1.6 0 0 1-.763-.622q-.272-.423-.269-1.066z"/><path fill="#CCC" fill-rule="evenodd" d="M142.405 56.275H54.659a4.437 4.437 0 0 0-4.423 4.384v57.715h96.591V60.66a4.43 4.43 0 0 0-4.422-4.385" clip-rule="evenodd"/><path fill="#fff" d="M142.741 63.174H54.097v51.659h88.644z"/><circle cx="98.495" cy="91.022" r="21.234" fill="#EEE"/><path fill="#CCC" fill-rule="evenodd" d="M150.642 122.826H46.348c-5.421 0-9.072-.831-9.072-1.622v-2.405a.485.485 0 0 1 .53-.43h121.378a.487.487 0 0 1 .53.43v2.499c0 .627-2.829 1.528-9.072 1.528" clip-rule="evenodd"/><path fill="#fff" fill-rule="evenodd" d="M159.714 121.298c0 .625-2.829 1.528-9.072 1.528H46.348c-5.421 0-9.072-.832-9.072-1.623z" clip-rule="evenodd"/><path fill="#414141" fill-rule="evenodd" d="M111.794 118.547v.546c0 .389-.767.507-1.347.507H86.64c-.61 0-1.382-.118-1.382-.507v-.546" clip-rule="evenodd"/><path fill="#3E74FF" d="M150.641 123.106H46.349c-4.645 0-9.348-.652-9.348-1.898v-2.405a.76.76 0 0 1 .806-.705h121.377a.763.763 0 0 1 .806.705v2.5c-.002 1.079-3.759 1.803-9.349 1.803M37.806 118.65c-.145 0-.254.081-.254.153v2.404c.074.382 2.8 1.347 8.797 1.347H150.64c6.353 0 8.673-.929 8.8-1.269l-.002-2.483c0-.073-.111-.154-.255-.154z"/><path fill="#3E74FF" stroke="#414141" d="M159.184 118.099h-12.178V60.66a4.68 4.68 0 0 0-4.698-4.66H54.562a4.686 4.686 0 0 0-4.698 4.66v57.44H37.806a.76.76 0 0 0-.806.705v2.404c0 1.246 4.703 1.898 9.348 1.898H150.64c5.59 0 9.347-.725 9.349-1.804v-2.499a.76.76 0 0 0-.805-.704ZM50.415 60.66a4.184 4.184 0 0 1 4.147-4.108h87.748a4.136 4.136 0 0 1 4.147 4.108v57.44H50.415zm100.225 61.895H46.349c-5.998 0-8.724-.965-8.797-1.346v-2.405c0-.073.109-.154.254-.154h121.378c.145 0 .254.081.254.154l.003 2.484c-.127.338-2.447 1.267-8.801 1.267Z"/><path fill="#CCC" d="M142.131 79.094h-23.588c-.907 0-1.642.735-1.642 1.642v46.423c0 .907.735 1.642 1.642 1.642h23.588c.907 0 1.642-.735 1.642-1.642V80.736c0-.907-.735-1.642-1.642-1.642"/><path fill="#0354DB" stroke="#414141" d="M142.131 129.007h-23.588a1.85 1.85 0 0 1-1.848-1.847V80.736a1.853 1.853 0 0 1 1.848-1.848h23.588a1.85 1.85 0 0 1 1.848 1.848v46.423a1.85 1.85 0 0 1-1.848 1.848Zm-23.588-49.706a1.435 1.435 0 0 0-1.434 1.434v46.424a1.437 1.437 0 0 0 1.434 1.434h23.588a1.435 1.435 0 0 0 1.434-1.434V80.736a1.433 1.433 0 0 0-1.434-1.434z"/><path fill="#fff" d="M142.226 83.747h-23.778v41.578h23.778z"/><path fill="#414141" d="M132.311 81.4h-4.424a.333.333 0 1 0 0 .664h4.424a.333.333 0 1 0 0-.664m-6.007.893a.562.562 0 1 0 0-1.124.562.562 0 0 0 0 1.124"/><path fill="#fff" d="M130.5 112.393a8.5 8.5 0 1 0-.001-17.001 8.5 8.5 0 0 0 .001 17.001"/><path fill="#414141" stroke="#414141" stroke-width=".25" d="M101.728 91.945h-5.445a11.92 11.92 0 0 0-11.908 11.903l1.125 1.125h27l1.125-1.125a11.917 11.917 0 0 0-11.897-11.903Zm-15.035 10.778a9.67 9.67 0 0 1 9.59-8.528h5.445a9.67 9.67 0 0 1 9.563 8.528zm12.335-12.33a7.873 7.873 0 0 0 7.724-9.412 7.88 7.88 0 0 0-6.188-6.187 7.874 7.874 0 1 0-1.536 15.599Zm0-13.5a5.623 5.623 0 0 1 5.517 6.722 5.63 5.63 0 0 1-4.42 4.42 5.624 5.624 0 1 1-1.097-11.142Z"/><path fill="#414141" stroke="#414141" stroke-width=".5" d="M131.805 104.659h-2.326a5.09 5.09 0 0 0-5.085 5.083l.48.48h11.531l.481-.48a5.09 5.09 0 0 0-5.081-5.083Zm-6.422 4.602a4.13 4.13 0 0 1 4.096-3.642h2.326a4.13 4.13 0 0 1 4.084 3.642zm5.269-5.265a3.37 3.37 0 0 0 3.107-2.077 3.364 3.364 0 1 0-3.107 2.077Zm0-5.766a2.4 2.4 0 0 1 1.698 4.101 2.398 2.398 0 0 1-3.696-.364 2.404 2.404 0 0 1 1.998-3.737Z"/><path fill="#fff" stroke="#414141" stroke-miterlimit="10" stroke-width="1.5" d="M567.883 101.664v4.293l95.96-.005v-4.293z"/><path fill="#CCC" stroke="#414141" stroke-miterlimit="10" stroke-width="1.5" d="M669.723 79H562v22.661h107.723z"/><path fill="#fff" d="M665.07 97.338V83.323h-98.417v14.015z"/><path fill="#0055DC" stroke="#414141" stroke-width="1.5" d="M575.225 90.359a.583.583 0 1 1-1.166 0 .583.583 0 0 1 1.166 0Zm4.835 0a.584.584 0 1 1-1.168-.002.584.584 0 0 1 1.168.002Z"/><path fill="#414141" stroke="#414141" stroke-width="1.5" d="M588.601 90.358a2.251 2.251 0 1 1-4.502 0 2.251 2.251 0 0 1 4.502 0Z"/><path stroke="#414141" stroke-miterlimit="10" stroke-width="1.5" d="M658.658 93.19h-31.351"/><path stroke="#CCC" stroke-miterlimit="10" stroke-width="1.5" d="M658.797 89.664h-9.007m9.007-2.973h-9.007"/><g clip-path="url(#clip3_2203_55)"><path fill="#414141" d="M617.352 89.764h-13.04a5.447 5.447 0 0 0-9.375-2.968 5.447 5.447 0 0 0 3.606 9.148 5.447 5.447 0 0 0 5.769-4.685h6.768V94.6h1.495v-3.34h1.828v4.859h1.495v-4.86h1.454zm-18.433 4.698a3.95 3.95 0 1 1-.008-7.899 3.95 3.95 0 0 1 .008 7.899"/></g><path fill="#fff" stroke="#414141" stroke-miterlimit="10" stroke-width="1.5" d="M567.883 274.664v4.293l95.96-.005v-4.293z"/><path fill="#CCC" stroke="#414141" stroke-miterlimit="10" stroke-width="1.5" d="M669.723 252H562v22.661h107.723z"/><path fill="#fff" d="M665.07 270.338v-14.015h-98.417v14.015z"/><path fill="#0055DC" stroke="#414141" stroke-width="1.5" d="M575.225 263.358a.583.583 0 1 1-1.166.002.583.583 0 0 1 1.166-.002Zm4.835 0a.584.584 0 1 1-1.168 0 .584.584 0 0 1 1.168 0Z"/><path fill="#414141" stroke="#414141" stroke-width="1.5" d="M588.601 263.358a2.251 2.251 0 1 1-4.502 0 2.251 2.251 0 0 1 4.502 0Z"/><path stroke="#414141" stroke-miterlimit="10" stroke-width="1.5" d="M658.658 266.191h-31.351"/><path stroke="#CCC" stroke-miterlimit="10" stroke-width="1.5" d="M658.797 262.664h-9.007m9.007-2.973h-9.007"/><g clip-path="url(#clip4_2203_55)"><path fill="#414141" d="M617.352 262.764h-13.04a5.449 5.449 0 0 0-9.375-2.968 5.445 5.445 0 1 0 9.375 4.463h6.768v3.341h1.495v-3.341h1.828v4.858h1.495v-4.858h1.454zm-18.433 4.698a3.953 3.953 0 0 1-3.879-4.719 3.952 3.952 0 0 1 5.386-2.882 3.95 3.95 0 0 1 2.439 3.65 3.956 3.956 0 0 1-3.946 3.951"/></g><path fill="#fff" stroke="#414141" stroke-miterlimit="10" stroke-width="1.5" d="M568.883 454.664v4.293l95.96-.005v-4.293z"/><path fill="#CCC" stroke="#414141" stroke-miterlimit="10" stroke-width="1.5" d="M670.723 432H563v22.661h107.723z"/><path fill="#fff" d="M666.07 450.338v-14.015h-98.417v14.015z"/><path fill="#0055DC" stroke="#414141" stroke-width="1.5" d="M576.225 443.358a.583.583 0 1 1-1.166.002.583.583 0 0 1 1.166-.002Zm4.835 0a.584.584 0 1 1-1.168 0 .584.584 0 0 1 1.168 0Z"/><path fill="#414141" stroke="#414141" stroke-width="1.5" d="M589.601 443.358a2.251 2.251 0 1 1-4.502 0 2.251 2.251 0 0 1 4.502 0Z"/><path stroke="#414141" stroke-miterlimit="10" stroke-width="1.5" d="M659.658 446.191h-31.351"/><path stroke="#CCC" stroke-miterlimit="10" stroke-width="1.5" d="M659.797 442.664h-9.007m9.007-2.973h-9.007"/><g clip-path="url(#clip5_2203_55)"><path fill="#414141" d="M618.352 442.764h-13.04a5.449 5.449 0 0 0-9.375-2.968 5.445 5.445 0 1 0 9.375 4.463h6.768v3.341h1.495v-3.341h1.828v4.858h1.495v-4.858h1.454zm-18.433 4.698a3.953 3.953 0 0 1-3.879-4.719 3.952 3.952 0 0 1 5.386-2.882 3.95 3.95 0 0 1 2.439 3.65 3.956 3.956 0 0 1-3.946 3.951"/></g><path fill="#000" d="M415.293 183.293a1 1 0 0 0 0 1.414l6.364 6.364a.999.999 0 1 0 1.414-1.414L417.414 184l5.657-5.657a.999.999 0 1 0-1.414-1.414zm195.705.707v-1zm0-1H416v2h194.998zm0 2c7.179 0 13-5.82 13.002-13h-2c-.001 6.075-4.927 11-11.002 11z"/><path fill="#fff" d="M470 181h47v20h-47z"/><path fill="#222" d="M476.536 187v-8.727h3.443q.993 0 1.692.379.699.375 1.065 1.044.37.665.371 1.534 0 .87-.375 1.534-.375.665-1.087 1.036-.707.37-1.713.37h-2.194v-1.478h1.896q.533 0 .878-.183.35-.188.52-.516.174-.333.174-.763 0-.435-.174-.758a1.17 1.17 0 0 0-.52-.508q-.35-.183-.887-.183h-1.244V187zm11.933-2.787v-3.758h1.815V187h-1.743v-1.189h-.068a1.93 1.93 0 0 1-.737.925q-.511.35-1.249.349-.656 0-1.155-.298a2.05 2.05 0 0 1-.779-.848q-.277-.55-.282-1.317v-4.167h1.816v3.843q.003.58.311.916.306.337.822.337.328 0 .614-.149.286-.153.46-.452.179-.298.175-.737M491.77 187v-8.727h1.816v3.281h.055q.12-.264.345-.537.23-.277.597-.46.37-.188.92-.188.716 0 1.321.375.605.37.968 1.121.362.746.362 1.871 0 1.095-.354 1.849-.35.75-.954 1.138a2.45 2.45 0 0 1-1.347.384q-.528 0-.899-.175a1.9 1.9 0 0 1-.601-.439 2.2 2.2 0 0 1-.358-.541h-.081V187zm1.777-3.273q0 .584.162 1.019t.469.677q.306.239.746.239.442 0 .75-.243.306-.247.464-.682.162-.438.162-1.01 0-.567-.158-.997a1.5 1.5 0 0 0-.464-.673 1.18 1.18 0 0 0-.754-.243q-.444 0-.75.234a1.47 1.47 0 0 0-.465.665 2.9 2.9 0 0 0-.162 1.014m7.633-5.454V187h-1.815v-8.727zm1.455 8.727v-6.545h1.815V187zm.912-7.389a1 1 0 0 1-.695-.269.87.87 0 0 1-.286-.652q0-.375.286-.643a.98.98 0 0 1 .695-.273q.404 0 .69.273.29.268.29.643a.86.86 0 0 1-.29.652.97.97 0 0 1-.69.269m5.315 7.517q-1.007 0-1.731-.426a2.9 2.9 0 0 1-1.108-1.193q-.383-.763-.383-1.756 0-1.006.388-1.764a2.9 2.9 0 0 1 1.112-1.189q.72-.43 1.713-.431.857 0 1.5.311.643.312 1.018.874t.414 1.321h-1.713q-.073-.49-.384-.788-.307-.303-.805-.303a1.22 1.22 0 0 0-.737.23q-.312.226-.486.661-.175.434-.175 1.052 0 .627.171 1.066.174.438.49.669.315.23.737.23a1.2 1.2 0 0 0 .558-.128q.251-.128.413-.371.167-.247.218-.592h1.713q-.043.75-.409 1.321a2.5 2.5 0 0 1-1.002.886q-.639.32-1.512.32"/><path fill="#A8CBFF" d="M627 164h14v8h-14zm-22-9h14v8h-14zm21-9h14v8h-14zm-7-8h14v8h-14z"/><path fill="#3E74FF" stroke="#fff" stroke-width=".5" d="M634.812 145.395v.25h6.053l1.26 1.26v8.231l-1.261 1.26-5.803.042-.249.001v6.123h6.053l1.26 1.26v8.231l-1.26 1.259h-29.05l-1.26-1.259v-7.178h-6.045l-1.26-1.26v-8.23l1.26-1.26h6.045V148h-6.045l-1.26-1.26v-8.23l1.26-1.26h29.043l1.259 1.26zm4.75 8.688h.25V148h-12.319v6.083zm-7.062-14.271v-.25h-12.312v6.126H632.5zm-26.688-.25h-.25v6.126h12.313v-6.126zm7.306 8.438h-.25v6.125h12.312V148zm-7.306 8.395h-.25v6.125h12.313v-6.125zm7.056 14.355v.25h12.312v-6.125h-12.312zm26.694.25h.25v-6.125h-12.319V171zm-7.305-8.438h.25v-.25l-.007-5.625v-.249h-12.312v6.124z"/><path fill="#fff" d="M620 156h13v7h-13z"/><defs><clipPath id="clip0_2203_55"><path fill="#fff" d="M603.473 69h23.92v23.92h-23.92z"/></clipPath><clipPath id="clip1_2203_55"><path fill="#fff" d="M603.473 242h23.92v23.92h-23.92z"/></clipPath><clipPath id="clip2_2203_55"><path fill="#fff" d="M603.473 422h23.92v23.92h-23.92z"/></clipPath><clipPath id="clip3_2203_55"><path fill="#fff" d="M593.473 79h23.92v23.92h-23.92z"/></clipPath><clipPath id="clip4_2203_55"><path fill="#fff" d="M593.473 252h23.92v23.92h-23.92z"/></clipPath><clipPath id="clip5_2203_55"><path fill="#fff" d="M594.473 432h23.92v23.92h-23.92z"/></clipPath></defs></svg>