<svg width="48" height="48" viewBox="0 0 48 48"  xmlns="http://www.w3.org/2000/svg">
<path d="M42.0446 4.45502H13.4996L11.9996 5.95502V24.1725H6.03711L4.53711 25.6725V42L6.03711 43.5H22.3271L23.8271 42V36H42.0446L43.5446 34.5V5.95502L42.0446 4.45502ZM20.8271 40.5H7.53711V27.1725H11.9996V34.5L13.4996 36H20.8496L20.8271 40.5ZM20.8271 33.06H14.9996V27.21H20.8496L20.8271 33.06ZM40.5446 33.06H23.8271V26.445L34.4996 15.645L34.5671 19.395L37.5671 19.3425L37.4021 10.5675L28.6271 10.7325L28.6796 13.7325L32.2496 13.635L21.8246 24.135H14.9996V7.45502H40.5446V33.06Z" />
</svg>
