<svg width="179" height="179" xmlns:xlink="http://www.w3.org/1999/xlink" xmlns="http://www.w3.org/2000/svg"><defs><path d="M32.99 0v94.238L26 98.274l6.957 4.017a4.026 4.026 0 010 .005l-6.967-4.022-11.488 6.632-.004-.003-.008.005a3 3 0 01-3 0L1.5 99.14A3 3 0 010 96.542V85.006a3 3 0 011.5-2.598l5.072-2.929-.018-.01v-7.411L1.5 69.14A3 3 0 010 66.542V55.006a3 3 0 011.5-2.598l11.49-6.634V0l7 4.042a5.994 5.994 0 001.921.706V53.6a.3.3 0 00.1.223l.051.038.708.406a.3.3 0 00.243.025l.058-.026.692-.405a.3.3 0 00.142-.196l.007-.063V4.775a5.994 5.994 0 002.078-.733z" id="prefix__a"/><path d="M36 17.866l16.486 9.518a3 3 0 011.5 2.598v19.036a3 3 0 01-1.5 2.598L36 61.134a3 3 0 01-3 0l-16.486-9.518a3 3 0 01-1.5-2.598V29.982a3 3 0 011.5-2.598L33 17.866a3 3 0 013 0z" id="prefix__f"/><path d="M37.641.804L66.282 17.34a6 6 0 013 5.196v33.072a6 6 0 01-3 5.196L37.641 77.34a6 6 0 01-6 0L3 60.804a6 6 0 01-3-5.196V22.536a6 6 0 013-5.196L31.641.804a6 6 0 016 0zM15.249 29.653l16.567 8.452a6 6 0 013.273 5.42l-.22 17.615a2.999 2.999 0 01-1.633-.399L16.75 51.223a3 3 0 01-1.5-2.598z" id="prefix__h"/><path d="M34.641 78.904l.447-35.377a5.997 5.997 0 00-3.276-5.424C16.44 30.26 5.367 24.613-1.404 21.16c-7.248-3.696-7.08-3.608.504.265.388-1.257.738-2.13 1.048-2.62.31-.49 1.049-.961 2.215-1.415l32.09-19.906 33.053 20.39a6 6 0 012.844 4.843l1.575 35.795-19.733 11.392-.742.428-13.955 8.056c-.516.314-1.24.486-2.173.516-.934.03-1.16.03-.681 0z" id="prefix__m"/><radialGradient cx="-13.862" cy="2.23" fx="-13.862" fy="2.23" r="207.882" gradientTransform="scale(.30951 3.2309)" id="prefix__c" gradientUnits="userSpaceOnUse"><stop stop-color="#7AE8FF" offset="0%"/><stop stop-color="#F4FBFF" offset="27.405%"/><stop stop-color="#F1F9FD" stop-opacity=".997" offset="34.795%"/><stop stop-color="#004C5B" stop-opacity=".725" offset="46.505%"/><stop stop-color="#003C48" stop-opacity=".693" offset="54.494%"/><stop stop-color="#00B4D8" stop-opacity=".934" offset="69.528%"/><stop stop-color="#0AC" stop-opacity=".914" offset="85.589%"/><stop stop-opacity=".572" offset="100%"/></radialGradient><radialGradient cx="27.927" cy="42.533" fx="27.927" fy="42.533" r="25.7" id="prefix__e" gradientTransform="scale(.94035 1.06343)" gradientUnits="userSpaceOnUse"><stop stop-color="#FFF" offset="0%"/><stop stop-color="#C6ECFF" offset="100%"/></radialGradient><radialGradient cx="34.763" cy="36.79" fx="34.763" fy="36.79" r="83.534" gradientTransform="scale(.9416 1.06203)" id="prefix__i" gradientUnits="userSpaceOnUse"><stop stop-color="#151515" offset="0%"/><stop stop-color="#0073AC" offset="7.1%"/><stop stop-color="#08C" offset="27.857%"/><stop stop-color="#04334A" offset="44.986%"/><stop stop-color="#06577F" offset="49.068%"/><stop stop-color="#056290" offset="56.174%"/><stop stop-color="#006BA0" offset="72.042%"/><stop stop-color="#00ABFF" offset="92.803%"/><stop stop-color="#00ABFF" offset="100%"/></radialGradient><filter x="0" y="0" width="1.013" height="1.016" filterUnits="objectBoundingBox" id="prefix__g"><feOffset dx=".5" in="SourceAlpha" result="shadowOffsetInner1"/><feComposite in="shadowOffsetInner1" in2="SourceAlpha" operator="arithmetic" k2="-1" k3="1" result="shadowInnerInner1"/><feColorMatrix values="0 0 0 0 1 0 0 0 0 1 0 0 0 0 1 0 0 0 0.5 0" in="shadowInnerInner1" result="shadowMatrixInner1"/><feOffset dy=".7" in="SourceAlpha" result="shadowOffsetInner2"/><feComposite in="shadowOffsetInner2" in2="SourceAlpha" operator="arithmetic" k2="-1" k3="1" result="shadowInnerInner2"/><feColorMatrix values="0 0 0 0 1 0 0 0 0 1 0 0 0 0 1 0 0 0 0.5 0" in="shadowInnerInner2" result="shadowMatrixInner2"/><feMerge><feMergeNode in="shadowMatrixInner1"/><feMergeNode in="shadowMatrixInner2"/></feMerge></filter><filter x="0" y="0" width="1.007" height="1.009" filterUnits="objectBoundingBox" id="prefix__j"><feOffset dx=".5" in="SourceAlpha" result="shadowOffsetInner1"/><feComposite in="shadowOffsetInner1" in2="SourceAlpha" operator="arithmetic" k2="-1" k3="1" result="shadowInnerInner1"/><feColorMatrix values="0 0 0 0 1 0 0 0 0 1 0 0 0 0 1 0 0 0 0.5 0" in="shadowInnerInner1" result="shadowMatrixInner1"/><feOffset dy=".7" in="SourceAlpha" result="shadowOffsetInner2"/><feComposite in="shadowOffsetInner2" in2="SourceAlpha" operator="arithmetic" k2="-1" k3="1" result="shadowInnerInner2"/><feColorMatrix values="0 0 0 0 1 0 0 0 0 1 0 0 0 0 1 0 0 0 0.5 0" in="shadowInnerInner2" result="shadowMatrixInner2"/><feMerge><feMergeNode in="shadowMatrixInner1"/><feMergeNode in="shadowMatrixInner2"/></feMerge></filter><filter x="0" y="-.002" width="1.004" height="1.002" filterUnits="objectBoundingBox" id="prefix__n"><feOffset dx=".3" dy="-.2" in="SourceAlpha" result="shadowOffsetInner1"/><feComposite in="shadowOffsetInner1" in2="SourceAlpha" operator="arithmetic" k2="-1" k3="1" result="shadowInnerInner1"/><feColorMatrix values="0 0 0 0 0 0 0 0 0 0.835294118 0 0 0 0 1 0 0 0 0.21410706 0" in="shadowInnerInner1"/></filter><linearGradient x1="29.471" y1="0" x2="21.041" y2="58.942" id="prefix__b" gradientTransform="scale(.5597 1.78667)" gradientUnits="userSpaceOnUse"><stop stop-color="#151515" offset="0%"/><stop stop-color="#0073AC" offset="7.958%"/><stop offset="78.546%"/><stop offset="100%"/></linearGradient><linearGradient x1="27.917" y1="-1.864" x2="62.62" y2="63.152" id="prefix__l" gradientTransform="scale(.98265 1.01766)" gradientUnits="userSpaceOnUse"><stop stop-color="#F4FBFF" offset="0%"/><stop stop-color="#E3E9ED" offset="1.56%"/><stop stop-color="#F4FBFF" offset="4.558%"/><stop stop-color="#00D5FF" offset="35.062%"/><stop stop-color="#06D6FF" offset="48.835%"/><stop stop-color="#007BB9" offset="56.446%"/><stop stop-color="#06557C" offset="100%"/></linearGradient></defs><g fill="none" fill-rule="evenodd" transform="translate(54.5)"><g transform="matrix(-1 0 0 1 57.64 73.298)"><mask id="prefix__d" fill="#fff"><use xlink:href="#prefix__a"/></mask><use fill="url(#prefix__b)" xlink:href="#prefix__a"/><path fill="url(#prefix__c)" mask="url(#prefix__d)" d="M22.919-1.867h20v107h-20z"/></g><use fill="url(#prefix__e)" xlink:href="#prefix__f"/><use fill="#000" filter="url(#prefix__g)" xlink:href="#prefix__f"/><mask id="prefix__k" fill="#fff"><use xlink:href="#prefix__h"/></mask><use fill="url(#prefix__i)" xlink:href="#prefix__h"/><use fill="#000" filter="url(#prefix__j)" xlink:href="#prefix__h"/><g mask="url(#prefix__k)"><use fill="url(#prefix__l)" xlink:href="#prefix__m"/><use fill="#000" filter="url(#prefix__n)" xlink:href="#prefix__m"/></g></g></svg>