<svg xmlns="http://www.w3.org/2000/svg" viewBox="0 0 16 16"><defs><linearGradient id="a" x1="8.001" x2="8.001" y1="83.411" y2="74.261" gradientTransform="matrix(1 0 0 -1 0 90)" gradientUnits="userSpaceOnUse"><stop offset="0" stop-color="#00583e"/><stop offset="1" stop-color="#00835c"/></linearGradient><style>.b{fill:#00a672}</style></defs><path d="M14.264 6.666a1.423 1.423 0 0 1 1.47 1.288c.279 3.61-3.025 7.654-7.68 7.783A7.69 7.69 0 0 1 .25 7.944a1.358 1.358 0 0 1 2.716 0 4.975 4.975 0 0 0 5.02 5.084 5.08 5.08 0 0 0 4.992-4.944 1.354 1.354 0 0 1 1.285-1.418" style="fill:url(#a)"/><path d="M10.888 8.05a1.39 1.39 0 0 1 1.396-1.388h2.034a1.388 1.388 0 1 1 0 2.775h-2.034a1.39 1.39 0 0 1-1.396-1.388M6.62 8.051a1.386 1.386 0 1 1 1.386 1.39A1.39 1.39 0 0 1 6.62 8.05" class="b"/><path d="M9.354 1.56a1.354 1.354 0 0 1-1.295 1.41 5.077 5.077 0 0 0-5.088 5.066 1.344 1.344 0 0 1-1.284 1.408A1.395 1.395 0 0 1 .255 8.123 7.77 7.77 0 0 1 7.947.263 1.353 1.353 0 0 1 9.354 1.56" style="fill:#00a672;fill-rule:evenodd"/></svg>