<svg xmlns="http://www.w3.org/2000/svg" viewBox="0 0 16 16"><defs><style>.a{fill:#d8d8d8;}.b{fill:#4d4d4d;}</style></defs><rect class="a" x="0.25" y="0.25" width="15.5" height="15.5"/><path class="b" d="M7.9031,8.3875a5.122,5.122,0,0,1-1.9375-.9688,1.6255,1.6255,0,0,1-.5812-1.3562,2.0224,2.0224,0,0,1,.775-1.55,3.0742,3.0742,0,0,1,1.9375-.5812A3.2344,3.2344,0,0,1,9.55,4.2219a2.1206,2.1206,0,0,1,.9688.8719,2.748,2.748,0,0,1,.3874,1.2593H9.8406a1.6043,1.6043,0,0,0-.4844-1.1625,1.7863,1.7863,0,0,0-1.2593-.3875,2.1977,2.1977,0,0,0-1.2594.2907,1.2437,1.2437,0,0,0-.3875.9687.8812.8812,0,0,0,.3875.775,6.2445,6.2445,0,0,0,1.3562.5813A8.8378,8.8378,0,0,1,9.7438,8a2.2871,2.2871,0,0,1,.8718.775,2.5788,2.5788,0,0,1,.2906,1.1625,1.8824,1.8824,0,0,1-.775,1.55,3.1781,3.1781,0,0,1-2.0343.5812,4.015,4.015,0,0,1-1.55-.2906,1.9486,1.9486,0,0,1-1.0656-.8719,2.7465,2.7465,0,0,1-.3875-1.2593H6.1594a1.6046,1.6046,0,0,0,.4843,1.1625,2.335,2.335,0,0,0,1.4532.3875,2.1981,2.1981,0,0,0,1.2594-.2907,1.0172,1.0172,0,0,0,.4843-.8718,1.48,1.48,0,0,0-.3875-.9688A8.6616,8.6616,0,0,0,7.9031,8.3875Z"/></svg>