<svg xmlns="http://www.w3.org/2000/svg" viewBox="0 0 16 16"><defs><style>.a{fill:#fff;}.a,.b,.c,.d,.e,.h{fill-rule:evenodd;}.b{fill:#3ecc5f;}.c{fill:#44d860;}.e{fill:#ffff50;}.f,.i{fill:#d8d8d8;}.g,.h{fill:#4a4a4a;}.i{opacity:0.136;isolation:isolate;}</style></defs><path class="a" d="M7.8808,4.1756h6.6769V6.8782H7.8808Z"/><path class="b" d="M1.84,12.9987a1.5877,1.5877,0,0,1-1.3753-.7949A1.5878,1.5878,0,0,0,1.84,14.5884H3.43v-1.59Z"/><path class="b" d="M8.992,4.6029l5.5657-.3478V3.46a1.59,1.59,0,0,0-1.59-1.59H5.8141l-.1987-.3442a.23.23,0,0,0-.3975,0l-.1987.3442-.1987-.3442a.2294.2294,0,0,0-.3974,0l-.1987.3442-.1988-.3442a.2294.2294,0,0,0-.3974,0L3.43,1.8705l-.0052,0-.3292-.3291a.2294.2294,0,0,0-.3838.1028L2.6025,2.05,2.19,1.94a.2294.2294,0,0,0-.281.2811l.11.4127-.4055.1087a.23.23,0,0,0-.1031.3839l.3293.3293,0,.005-.3441.1988a.2293.2293,0,0,0,0,.3974l.3441.1987-.3441.1987a.2294.2294,0,0,0,0,.3975L1.84,5.05l-.3441.1987a.2293.2293,0,0,0,0,.3974l.3441.1988-.3441.1987a.2293.2293,0,0,0,0,.3974L1.84,6.64l-.3441.1987a.2294.2294,0,0,0,0,.3975l.3441.1987-.3441.1987a.2294.2294,0,0,0,0,.3975L1.84,8.23l-.3441.1987a.2293.2293,0,0,0,0,.3974l.3441.1987-.3441.1988a.2293.2293,0,0,0,0,.3974l.3441.1987-.3441.1987a.2294.2294,0,0,0,0,.3975l.3441.1987-.3441.1987a.2293.2293,0,0,0,0,.3974l.3441.1988-.3441.1987a.2293.2293,0,0,0,0,.3974l.3441.1987-.3441.1987a.2294.2294,0,0,0,0,.3975l.3441.1987a1.59,1.59,0,0,0,1.59,1.59h9.5384a1.59,1.59,0,0,0,1.59-1.59V6.64L8.992,6.2919a.8462.8462,0,0,1,0-1.689Z"/><path class="b" d="M11.3782,14.5884h2.3846V11.409H11.3782Z"/><path class="c" d="M15.3526,12.6013a.3851.3851,0,0,0-.0508.0051l-.0092-.0359a.3969.3969,0,1,0-.3928-.6818l-.0266-.0267a.3936.3936,0,0,0,.08-.2374.3974.3974,0,0,0-.763-.1557l-.0353-.0092a.3966.3966,0,1,0-.79-.0507.3835.3835,0,0,0,.0051.0507l-.0354.0092a.3973.3973,0,0,0-.763.1557.3934.3934,0,0,0,.08.2374,1.5889,1.5889,0,1,0,2.6493,1.529.3851.3851,0,0,0,.0508.0051.3974.3974,0,1,0,0-.7948"/><path class="b" d="M12.1731,9.8192h2.3846V8.23H12.1731Z"/><path class="c" d="M15.3526,9.2231a.1988.1988,0,0,0,0-.3975.1934.1934,0,0,0-.0254.0026L15.3226,8.81a.1985.1985,0,1,0-.1964-.3409l-.0134-.0134a.1962.1962,0,0,0,.04-.1187.1987.1987,0,0,0-.3816-.0779.7949.7949,0,1,0,0,1.53.1988.1988,0,0,0,.3816-.0778.1962.1962,0,0,0-.04-.1187l.0134-.0134a.1969.1969,0,0,0,.2458-.0038.1987.1987,0,0,0-.0494-.3371l.0046-.0179A.2121.2121,0,0,0,15.3526,9.2231Z"/><path class="d" d="M5.0192,4.4538a.1987.1987,0,0,1-.1987-.1987.5962.5962,0,0,0-1.1923,0,.1987.1987,0,0,1-.3974,0,.9936.9936,0,1,1,1.9871,0,.1987.1987,0,0,1-.1987.1987"/><path class="e" d="M8.1987,14.5884h4.7692a1.59,1.59,0,0,0,1.59-1.59V7.4346H9.7885a1.59,1.59,0,0,0-1.59,1.59Z"/><path class="d" d="M13.367,9.8987H9.3894a.08.08,0,0,1,0-.159H13.367a.08.08,0,0,1,0,.159Zm0,1.59H9.3894a.0795.0795,0,0,1,0-.1589H13.367a.0795.0795,0,1,1,0,.1589Zm0,1.59H9.3894a.08.08,0,0,1,0-.159H13.367a.08.08,0,0,1,0,.159Zm0-3.96H9.3894a.08.08,0,0,1,0-.159H13.367a.08.08,0,0,1,0,.159Zm0,1.575H9.3894a.08.08,0,0,1,0-.159H13.367a.08.08,0,0,1,0,.159Zm0,1.59H9.3894a.08.08,0,0,1,0-.159H13.367a.08.08,0,0,1,0,.159ZM14.5577,4.94l-.0027,0c-.2456.0083-.3618.254-.4644.4708-.107.2265-.19.3738-.3253.3694-.15-.0054-.236-.1751-.3269-.3546-.1045-.2061-.2237-.44-.474-.4313-.2421.0083-.3588.2221-.4616.4108-.11.2009-.1839.3231-.3276.3174-.1531-.0055-.2345-.1434-.3287-.3031-.105-.1777-.2264-.3775-.4719-.3707-.238.0082-.3549.19-.4581.35-.1091.1693-.1856.2724-.331.2663-.1568-.0055-.2378-.12-.3316-.2525a.5434.5434,0,0,0-.4685-.3092.5837.5837,0,0,0-.4528.2876c-.0979.1243-.1744.2227-.3361.2165a.08.08,0,1,0-.0058.159.5492.5492,0,0,0,.4668-.2772c.0935-.1189.1743-.2215.3333-.2269.1531-.0066.2248.0886.3334.242a.5824.5824,0,0,0,.4556.32c.2466.0083.3653-.176.47-.3392.0939-.1457.175-.2716.33-.2769.1426-.0053.22.1073.3295.2926.1031.1746.22.3725.46.3812.2484.0086.3683-.2082.4729-.4.0905-.166.176-.3227.3274-.328.1425-.0033.2168.1268.3267.3442.1027.203.2192.4328.4631.4417l.0134,0c.2435,0,.3591-.2444.4614-.4606.0906-.1915.1762-.372.3233-.3794V4.94Z"/><path class="b" d="M6.609,14.5884h3.18V11.409H6.609Z"/><path class="f" d="M14.5385,6.34,8.3561,7.996a.159.159,0,0,0-.1124.1948l.6041,2.2547a.159.159,0,0,0,.1948.1124l6.1823-1.6566a.159.159,0,0,0,.1124-.1947l-.6041-2.2547A.1589.1589,0,0,0,14.5385,6.34Z"/><path class="g" d="M10.222,9.23l-.2214.0593a.0794.0794,0,0,0-.0562.0973l.0593.2213a.0794.0794,0,0,0,.0974.0562l.2214-.0593a.08.08,0,0,0,.0562-.0973l-.0593-.2213A.0794.0794,0,0,0,10.222,9.23Z"/><path class="g" d="M10.6663,9.1113l-.2214.0593a.08.08,0,0,0-.0562.0974l.0593.2213a.08.08,0,0,0,.0974.0562l.2213-.0593a.0794.0794,0,0,0,.0563-.0973l-.0594-.2214A.0794.0794,0,0,0,10.6663,9.1113Z"/><path class="g" d="M11.1107,8.9922l-.2214.0593a.0794.0794,0,0,0-.0562.0974l.0593.2214a.08.08,0,0,0,.0974.0562l.2212-.0593a.0794.0794,0,0,0,.0562-.0974l-.0593-.2214A.08.08,0,0,0,11.1107,8.9922Z"/><path class="g" d="M11.5549,8.8732l-.2213.0593a.08.08,0,0,0-.0563.0973l.0594.2214a.0794.0794,0,0,0,.0973.0562l.2214-.0593a.08.08,0,0,0,.0562-.0974l-.0593-.2213A.08.08,0,0,0,11.5549,8.8732Z"/><path class="g" d="M11.9992,8.7542l-.2213.0593a.0794.0794,0,0,0-.0562.0973l.0593.2213a.0793.0793,0,0,0,.0973.0562L12.1,9.129a.0794.0794,0,0,0,.0562-.0973L12.0966,8.81A.0794.0794,0,0,0,11.9992,8.7542Z"/><path class="g" d="M12.4436,8.6351l-.2214.0593a.08.08,0,0,0-.0562.0974l.0593.2213a.08.08,0,0,0,.0974.0562L12.544,9.01A.08.08,0,0,0,12.6,8.9127l-.0593-.2214A.0793.0793,0,0,0,12.4436,8.6351Z"/><path class="g" d="M12.8879,8.516l-.2214.0593a.08.08,0,0,0-.0562.0974l.0593.2214a.08.08,0,0,0,.0974.0562l.2214-.0593a.08.08,0,0,0,.0562-.0974l-.0594-.2214A.08.08,0,0,0,12.8879,8.516Z"/><path class="g" d="M13.3322,8.3969l-.2213.0593a.08.08,0,0,0-.0562.0974l.0593.2214a.0794.0794,0,0,0,.0973.0562l.2213-.0593a.08.08,0,0,0,.0563-.0974L13.43,8.4531A.08.08,0,0,0,13.3322,8.3969Z"/><path class="g" d="M13.7765,8.2779l-.2213.0594a.0793.0793,0,0,0-.0562.0972l.0593.2214a.0793.0793,0,0,0,.0973.0562l.2214-.0593a.08.08,0,0,0,.0562-.0974l-.0593-.2212A.08.08,0,0,0,13.7765,8.2779Z"/><path class="h" d="M8.8205,9.6059l.9433-.2527a.0793.0793,0,0,1,.0973.0562l.0593.2213a.0793.0793,0,0,1-.0562.0973l-.9433.2528a.0793.0793,0,0,1-.0973-.0562l-.0593-.2214a.0793.0793,0,0,1,.0562-.0973Zm5.1929-1.3914.9433-.2527a.08.08,0,0,1,.0974.0562l.0593.2212a.08.08,0,0,1-.0563.0974l-.9434.2528a.08.08,0,0,1-.0974-.0562l-.0593-.2214a.08.08,0,0,1,.0562-.0974Z"/><path class="h" d="M8.58,8.7087l.36-.0965a.08.08,0,0,1,.06.0079.08.08,0,0,1,.037.0484l.0593.2212a.08.08,0,0,1-.0562.0974l-.36.0965a.08.08,0,0,1-.0974-.0562l-.0593-.2213A.08.08,0,0,1,8.58,8.7087Z"/><path class="g" d="M9.3846,8.4931l-.2214.0594A.08.08,0,0,0,9.107,8.65l.0593.2214a.08.08,0,0,0,.0974.0562l.2213-.0593a.08.08,0,0,0,.0562-.0974l-.0593-.2213A.08.08,0,0,0,9.3846,8.4931Z"/><path class="g" d="M9.8288,8.3741l-.2213.0593a.08.08,0,0,0-.0561.0974l.0592.2213a.08.08,0,0,0,.0973.0562l.2214-.0593a.0793.0793,0,0,0,.0562-.0973L9.9262,8.43A.08.08,0,0,0,9.8288,8.3741Z"/><path class="g" d="M10.2732,8.2551l-.2214.0593a.0794.0794,0,0,0-.0562.0973l.0594.2214a.0794.0794,0,0,0,.0973.0562l.2213-.0594a.0793.0793,0,0,0,.0562-.0973l-.0593-.2213A.0793.0793,0,0,0,10.2732,8.2551Z"/><path class="g" d="M10.7175,8.136l-.2214.0593a.08.08,0,0,0-.0562.0974l.0593.2213a.08.08,0,0,0,.0974.0562l.2214-.0593a.08.08,0,0,0,.0562-.0973l-.0593-.2214A.08.08,0,0,0,10.7175,8.136Z"/><path class="g" d="M11.1618,8.0169l-.2213.0593a.08.08,0,0,0-.0562.0974l.0593.2214a.08.08,0,0,0,.0973.0562l.2214-.0593a.08.08,0,0,0,.0562-.0974l-.0593-.2214A.08.08,0,0,0,11.1618,8.0169Z"/><path class="g" d="M11.6062,7.8979l-.2214.0593a.08.08,0,0,0-.0562.0973l.0593.2214a.08.08,0,0,0,.0974.0562l.2213-.0593a.08.08,0,0,0,.0562-.0974l-.0593-.2213A.08.08,0,0,0,11.6062,7.8979Z"/><path class="g" d="M12.05,7.7788l-.2213.0593a.08.08,0,0,0-.0562.0974l.0593.2213a.08.08,0,0,0,.0974.0563l.2213-.0594a.0794.0794,0,0,0,.0562-.0973l-.0593-.2214A.08.08,0,0,0,12.05,7.7788Z"/><path class="g" d="M12.4948,7.66l-.2214.0593a.0794.0794,0,0,0-.0562.0973l.0594.2214a.0794.0794,0,0,0,.0973.0562l.2213-.0593a.08.08,0,0,0,.0562-.0974l-.0593-.2213A.0794.0794,0,0,0,12.4948,7.66Z"/><path class="g" d="M12.939,7.5407,12.7176,7.6a.08.08,0,0,0-.0562.0973l.0593.2214a.08.08,0,0,0,.0974.0562l.2214-.0593a.08.08,0,0,0,.0562-.0974l-.0593-.2213A.08.08,0,0,0,12.939,7.5407Z"/><path class="g" d="M13.3833,7.4217l-.2213.0593a.08.08,0,0,0-.0562.0974l.0593.2213a.0794.0794,0,0,0,.0973.0562l.2214-.0593a.08.08,0,0,0,.0562-.0973l-.0593-.2214A.08.08,0,0,0,13.3833,7.4217Z"/><path class="g" d="M13.8277,7.3026l-.2214.0593a.08.08,0,0,0-.0562.0974l.0593.2214a.08.08,0,0,0,.0974.0562l.2214-.0594a.08.08,0,0,0,.0562-.0973l-.0594-.2214A.08.08,0,0,0,13.8277,7.3026Z"/><path class="g" d="M14.2719,7.1836l-.2213.0593a.08.08,0,0,0-.0562.0973l.0593.2214a.08.08,0,0,0,.0974.0562l.2213-.0593a.0794.0794,0,0,0,.0562-.0974L14.3693,7.24A.08.08,0,0,0,14.2719,7.1836Z"/><path class="g" d="M14.7163,7.0645l-.2213.0593a.08.08,0,0,0-.0563.0974l.0594.2213a.0794.0794,0,0,0,.0973.0562l.2213-.0593a.0793.0793,0,0,0,.0562-.0973l-.0593-.2214A.08.08,0,0,0,14.7163,7.0645Z"/><path class="h" d="M14.7028,7.0143l-.36.0965a.0794.0794,0,0,1-.0974-.0562l-.0593-.2213a.08.08,0,0,1,.0562-.0974l.36-.0965a.0793.0793,0,0,1,.0973.0562l.0593.2214a.0793.0793,0,0,1-.0562.0973Z"/><path class="g" d="M13.8983,7.23l.2214-.0593a.08.08,0,0,0,.0562-.0974l-.0593-.2213a.08.08,0,0,0-.0974-.0563l-.2213.0594a.0794.0794,0,0,0-.0562.0973l.0593.2214A.08.08,0,0,0,13.8983,7.23Z"/><path class="g" d="M13.454,7.3489l.2214-.0593a.08.08,0,0,0,.0562-.0973l-.0593-.2214a.08.08,0,0,0-.0974-.0562l-.2214.0593a.08.08,0,0,0-.0562.0974l.0594.2213A.0794.0794,0,0,0,13.454,7.3489Z"/><path class="g" d="M13.01,7.468l.2214-.0593a.08.08,0,0,0,.0561-.0974L13.228,7.09a.08.08,0,0,0-.0974-.0562l-.2213.0593a.0793.0793,0,0,0-.0562.0973l.0593.2214A.08.08,0,0,0,13.01,7.468Z"/><path class="g" d="M12.5654,7.587l.2213-.0593A.0794.0794,0,0,0,12.843,7.43l-.0594-.2214a.08.08,0,0,0-.0973-.0562l-.2213.0593a.0794.0794,0,0,0-.0562.0974l.0593.2213A.0794.0794,0,0,0,12.5654,7.587Z"/><path class="g" d="M12.1211,7.7061l.2214-.0593a.08.08,0,0,0,.0562-.0974l-.0593-.2213a.08.08,0,0,0-.0974-.0562l-.2214.0593a.08.08,0,0,0-.0562.0973l.0593.2214A.08.08,0,0,0,12.1211,7.7061Z"/><path class="g" d="M11.6768,7.8251l.2213-.0593a.0794.0794,0,0,0,.0562-.0973l-.0593-.2214a.08.08,0,0,0-.0973-.0562l-.2214.0593a.08.08,0,0,0-.0562.0974l.0593.2213A.08.08,0,0,0,11.6768,7.8251Z"/><path class="g" d="M11.2324,7.9442l.2214-.0593a.08.08,0,0,0,.0562-.0974l-.0593-.2213a.08.08,0,0,0-.0974-.0562l-.2213.0593a.0794.0794,0,0,0-.0562.0973l.0593.2214A.0794.0794,0,0,0,11.2324,7.9442Z"/><path class="g" d="M10.7881,8.0633,11.01,8.004a.08.08,0,0,0,.0562-.0974l-.0593-.2214a.08.08,0,0,0-.0974-.0562l-.2213.0593a.08.08,0,0,0-.0562.0974l.0593.2214A.08.08,0,0,0,10.7881,8.0633Z"/><path class="g" d="M10.3438,8.1823l.2213-.0593a.0793.0793,0,0,0,.0562-.0973l-.0593-.2214a.0794.0794,0,0,0-.0973-.0562l-.2213.0593a.0794.0794,0,0,0-.0562.0973l.0593.2214A.0794.0794,0,0,0,10.3438,8.1823Z"/><path class="g" d="M9.9,8.3013l.2214-.0593a.08.08,0,0,0,.0562-.0973l-.0594-.2214a.08.08,0,0,0-.0973-.0562l-.2214.0594a.08.08,0,0,0-.0562.0973l.0593.2213A.0794.0794,0,0,0,9.9,8.3013Z"/><path class="g" d="M9.4552,8.42l.2213-.0593a.08.08,0,0,0,.0562-.0974l-.0593-.2213a.0794.0794,0,0,0-.0973-.0562l-.2214.0593a.08.08,0,0,0-.0562.0973l.0593.2214A.08.08,0,0,0,9.4552,8.42Z"/><path class="g" d="M9.0108,8.54,9.2322,8.48a.08.08,0,0,0,.0562-.0974l-.0593-.2214a.08.08,0,0,0-.0974-.0562L8.91,8.1645a.08.08,0,0,0-.0562.0974l.0593.2214A.08.08,0,0,0,9.0108,8.54Z"/><path class="g" d="M8.5666,8.6585l.2214-.0593a.08.08,0,0,0,.0562-.0973l-.0593-.2214a.08.08,0,0,0-.0974-.0562l-.2213.0593A.08.08,0,0,0,8.41,8.381l.0594.2213A.0794.0794,0,0,0,8.5666,8.6585Z"/><path class="g" d="M13.8983,7.23l.2214-.0593a.08.08,0,0,0,.0562-.0974l-.0593-.2213a.08.08,0,0,0-.0974-.0563l-.2213.0594a.0794.0794,0,0,0-.0562.0973l.0593.2214A.08.08,0,0,0,13.8983,7.23Z"/><path class="g" d="M13.454,7.3489l.2214-.0593a.08.08,0,0,0,.0562-.0973l-.0593-.2214a.08.08,0,0,0-.0974-.0562l-.2214.0593a.08.08,0,0,0-.0562.0974l.0594.2213A.0794.0794,0,0,0,13.454,7.3489Z"/><path class="g" d="M13.01,7.468l.2214-.0593a.08.08,0,0,0,.0561-.0974L13.228,7.09a.08.08,0,0,0-.0974-.0562l-.2213.0593a.0793.0793,0,0,0-.0562.0973l.0593.2214A.08.08,0,0,0,13.01,7.468Z"/><path class="g" d="M12.5654,7.587l.2213-.0593A.0794.0794,0,0,0,12.843,7.43l-.0594-.2214a.08.08,0,0,0-.0973-.0562l-.2213.0593a.0794.0794,0,0,0-.0562.0974l.0593.2213A.0794.0794,0,0,0,12.5654,7.587Z"/><path class="g" d="M12.1211,7.7061l.2214-.0593a.08.08,0,0,0,.0562-.0974l-.0593-.2213a.08.08,0,0,0-.0974-.0562l-.2214.0593a.08.08,0,0,0-.0562.0973l.0593.2214A.08.08,0,0,0,12.1211,7.7061Z"/><path class="g" d="M11.6768,7.8251l.2213-.0593a.0794.0794,0,0,0,.0562-.0973l-.0593-.2214a.08.08,0,0,0-.0973-.0562l-.2214.0593a.08.08,0,0,0-.0562.0974l.0593.2213A.08.08,0,0,0,11.6768,7.8251Z"/><path class="g" d="M11.2324,7.9442l.2214-.0593a.08.08,0,0,0,.0562-.0974l-.0593-.2213a.08.08,0,0,0-.0974-.0562l-.2213.0593a.0794.0794,0,0,0-.0562.0973l.0593.2214A.0794.0794,0,0,0,11.2324,7.9442Z"/><path class="g" d="M10.7881,8.0633,11.01,8.004a.08.08,0,0,0,.0562-.0974l-.0593-.2214a.08.08,0,0,0-.0974-.0562l-.2213.0593a.08.08,0,0,0-.0562.0974l.0593.2214A.08.08,0,0,0,10.7881,8.0633Z"/><path class="g" d="M10.3438,8.1823l.2213-.0593a.0793.0793,0,0,0,.0562-.0973l-.0593-.2214a.0794.0794,0,0,0-.0973-.0562l-.2213.0593a.0794.0794,0,0,0-.0562.0973l.0593.2214A.0794.0794,0,0,0,10.3438,8.1823Z"/><path class="g" d="M9.9,8.3013l.2214-.0593a.08.08,0,0,0,.0562-.0973l-.0594-.2214a.08.08,0,0,0-.0973-.0562l-.2214.0594a.08.08,0,0,0-.0562.0973l.0593.2213A.0794.0794,0,0,0,9.9,8.3013Z"/><path class="g" d="M9.4552,8.42l.2213-.0593a.08.08,0,0,0,.0562-.0974l-.0593-.2213a.0794.0794,0,0,0-.0973-.0562l-.2214.0593a.08.08,0,0,0-.0562.0973l.0593.2214A.08.08,0,0,0,9.4552,8.42Z"/><path class="g" d="M9.0108,8.54,9.2322,8.48a.08.08,0,0,0,.0562-.0974l-.0593-.2214a.08.08,0,0,0-.0974-.0562L8.91,8.1645a.08.08,0,0,0-.0562.0974l.0593.2214A.08.08,0,0,0,9.0108,8.54Z"/><path class="g" d="M8.5666,8.6585l.2214-.0593a.08.08,0,0,0,.0562-.0973l-.0593-.2214a.08.08,0,0,0-.0974-.0562l-.2213.0593A.08.08,0,0,0,8.41,8.381l.0594.2213A.0794.0794,0,0,0,8.5666,8.6585Z"/><path class="h" d="M8.6991,9.153l.5129-.1375a.08.08,0,0,1,.06.008.079.079,0,0,1,.037.0482l.0593.2214a.08.08,0,0,1-.0562.0974L8.8,9.5279a.08.08,0,0,1-.0974-.0562L8.6429,9.25a.08.08,0,0,1,.0562-.0974Z"/><path class="g" d="M9.67,8.8928l-.2214.0593a.08.08,0,0,0-.0562.0974l.0593.2213a.08.08,0,0,0,.0974.0561l.2214-.0592A.08.08,0,0,0,9.8269,9.17L9.7676,8.949A.0794.0794,0,0,0,9.67,8.8928Z"/><path class="g" d="M10.1145,8.7737l-.2214.0593a.08.08,0,0,0-.0562.0974l.0593.2214a.08.08,0,0,0,.0974.0562l.2214-.0594a.0794.0794,0,0,0,.0562-.0973L10.2119,8.83A.08.08,0,0,0,10.1145,8.7737Z"/><path class="g" d="M10.5589,8.6546l-.2214.0593a.0794.0794,0,0,0-.0562.0974l.0593.2214a.0794.0794,0,0,0,.0974.0562l.2213-.0593a.08.08,0,0,0,.0562-.0974l-.0594-.2214A.0794.0794,0,0,0,10.5589,8.6546Z"/><path class="g" d="M11.0032,8.5356l-.2214.0593a.0794.0794,0,0,0-.0562.0973l.0593.2214a.08.08,0,0,0,.0974.0562l.2213-.0593a.08.08,0,0,0,.0562-.0974l-.0593-.2213A.0794.0794,0,0,0,11.0032,8.5356Z"/><path class="g" d="M11.4474,8.4165l-.2213.0594a.08.08,0,0,0-.0562.0973l.0593.2213a.0794.0794,0,0,0,.0973.0562l.2214-.0593a.0793.0793,0,0,0,.0562-.0973l-.0593-.2213A.08.08,0,0,0,11.4474,8.4165Z"/><path class="g" d="M11.8918,8.2975l-.2214.0593a.08.08,0,0,0-.0562.0974l.0594.2213a.08.08,0,0,0,.0973.0562l.2213-.0593a.0794.0794,0,0,0,.0562-.0973l-.0593-.2214A.0794.0794,0,0,0,11.8918,8.2975Z"/><path class="g" d="M12.3361,8.1784l-.2214.0593a.08.08,0,0,0-.0562.0974l.0593.2214a.08.08,0,0,0,.0974.0562l.2214-.0593a.08.08,0,0,0,.0562-.0974l-.0593-.2214A.08.08,0,0,0,12.3361,8.1784Z"/><path class="g" d="M12.78,8.0594l-.2214.0593a.0794.0794,0,0,0-.0562.0973l.0593.2214a.0794.0794,0,0,0,.0974.0562l.2213-.0593a.08.08,0,0,0,.0562-.0974l-.0593-.2213A.0794.0794,0,0,0,12.78,8.0594Z"/><path class="g" d="M13.2247,7.94,13.0033,8a.08.08,0,0,0-.0562.0973l.0593.2213a.0794.0794,0,0,0,.0974.0562l.2214-.0593a.08.08,0,0,0,.0562-.0973l-.0594-.2213A.0794.0794,0,0,0,13.2247,7.94Z"/><path class="g" d="M13.669,7.8213l-.2213.0593a.0793.0793,0,0,0-.0562.0973l.0593.2214a.0794.0794,0,0,0,.0973.0562l.2213-.0593a.0794.0794,0,0,0,.0562-.0973l-.0593-.2214A.0794.0794,0,0,0,13.669,7.8213Z"/><path class="g" d="M14.1133,7.7022l-.2213.0593a.0794.0794,0,0,0-.0562.0974l.0593.2214a.08.08,0,0,0,.0973.0562l.2214-.0593A.08.08,0,0,0,14.27,7.98l-.0592-.2214A.08.08,0,0,0,14.1133,7.7022Z"/><path class="h" d="M14.35,7.6387l.4851-.13a.0794.0794,0,0,1,.0974.0562l.0593.2213a.08.08,0,0,1-.0562.0974l-.4852.13a.08.08,0,0,1-.0973-.0562l-.0593-.2213a.08.08,0,0,1,.0562-.0974Z"/><path class="g" d="M9.166,10.01l-.2214.0593a.08.08,0,0,0-.0562.0973l.0593.2214a.08.08,0,0,0,.0974.0562l.2214-.0593a.08.08,0,0,0,.0562-.0974l-.0593-.2213A.08.08,0,0,0,9.166,10.01Z"/><path class="g" d="M9.61,9.891,9.389,9.95a.0794.0794,0,0,0-.0562.0973l.0593.2213a.0793.0793,0,0,0,.0973.0562l.2214-.0593a.0794.0794,0,0,0,.0562-.0973l-.0593-.2213A.08.08,0,0,0,9.61,9.891Z"/><path class="g" d="M10.0547,9.772l-.2214.0593a.0794.0794,0,0,0-.0562.0974l.0593.2213a.08.08,0,0,0,.0974.0562l.2213-.0593a.08.08,0,0,0,.0562-.0973l-.0593-.2214A.0793.0793,0,0,0,10.0547,9.772Z"/><path class="g" d="M10.499,9.6529l-.2214.0593a.08.08,0,0,0-.0562.0974l.0593.2214a.08.08,0,0,0,.0974.0562l.2213-.0593a.08.08,0,0,0,.0562-.0974l-.0593-.2214A.08.08,0,0,0,10.499,9.6529Z"/><path class="h" d="M10.7219,9.5932,12.8594,9.02a.08.08,0,0,1,.0973.0562l.0593.2215a.08.08,0,0,1-.0562.0974l-2.1374.5727a.08.08,0,0,1-.0974-.0562l-.0593-.2215a.0793.0793,0,0,1,.0562-.0973Zm2.36-.6324.2769-.0743a.08.08,0,0,1,.0974.0562l.0593.2215a.08.08,0,0,1-.0562.0973l-.277.0742a.08.08,0,0,1-.0973-.0562l-.0593-.2215a.0793.0793,0,0,1,.0562-.0972Z"/><path class="g" d="M13.8035,8.7674l-.2214.0594a.08.08,0,0,0-.0562.0973l.0593.2214a.08.08,0,0,0,.0974.0562l.2214-.0593A.08.08,0,0,0,13.96,9.045l-.0593-.2214A.08.08,0,0,0,13.8035,8.7674Z"/><path class="g" d="M14.2479,8.6484l-.2214.0593a.08.08,0,0,0-.0562.0973l.0593.2214a.0794.0794,0,0,0,.0974.0562l.2213-.0593a.08.08,0,0,0,.0562-.0974l-.0593-.2213A.08.08,0,0,0,14.2479,8.6484Z"/><path class="g" d="M15.0809,8.4252l-.2214.0593a.0794.0794,0,0,0-.0562.0973l.0593.2214a.0794.0794,0,0,0,.0974.0562L15.1813,8.8a.08.08,0,0,0,.0562-.0974l-.0593-.2213A.0794.0794,0,0,0,15.0809,8.4252Z"/><path class="g" d="M14.409,8.7764l-.0223-.0829a.08.08,0,0,1,.0562-.0974l.2214-.0593a.08.08,0,0,1,.0974.0562l.0221.0829Z"/><path class="g" d="M14.7988,8.7314l.0222.0829a.0794.0794,0,0,1-.0562.0974l-.2213.0593a.0794.0794,0,0,1-.0974-.0562l-.0222-.0829Z"/><path class="g" d="M14.5247,6.4313l-6.0816,1.63a.0862.0862,0,0,0,.0447.1666l6.0816-1.6295a.0862.0862,0,0,0-.0447-.1666Z"/><path class="i" d="M8.8149,7.991l-.2393.0642a.0575.0575,0,0,0-.0407.07h0a.0575.0575,0,0,0,.07.0406l.2393-.0641a.0575.0575,0,0,0,.0406-.07h0A.0574.0574,0,0,0,8.8149,7.991Z"/><path class="i" d="M9.2943,7.8625l-.2393.0642a.0575.0575,0,0,0-.0407.07h0a.0574.0574,0,0,0,.07.0406l.2393-.0641a.0573.0573,0,0,0,.0406-.07h0A.0575.0575,0,0,0,9.2943,7.8625Z"/><path class="i" d="M9.6632,7.7637l-.2393.0641a.0576.0576,0,0,0-.0407.07h0a.0574.0574,0,0,0,.07.0406l.2392-.0641a.0575.0575,0,0,0,.0407-.07h0A.0574.0574,0,0,0,9.6632,7.7637Z"/><path class="i" d="M10.0319,7.6649l-.2393.0641a.0575.0575,0,0,0-.0406.07h0a.0574.0574,0,0,0,.07.0406l.2393-.0641a.0576.0576,0,0,0,.0407-.07h0A.0576.0576,0,0,0,10.0319,7.6649Z"/><path class="i" d="M10.4008,7.5661l-.2393.0641a.0573.0573,0,0,0-.0406.07h0a.0574.0574,0,0,0,.07.0406l.2394-.0641a.0575.0575,0,0,0,.0406-.07h0A.0575.0575,0,0,0,10.4008,7.5661Z"/><path class="i" d="M10.8618,7.4426l-.2394.0641a.0575.0575,0,0,0-.0406.07h0a.0575.0575,0,0,0,.07.0407l.2393-.0641a.0576.0576,0,0,0,.0407-.07h0A.0572.0572,0,0,0,10.8618,7.4426Z"/><path class="i" d="M11.2305,7.3437l-.2393.0642a.0575.0575,0,0,0-.0406.07h0a.0575.0575,0,0,0,.07.0407l.2393-.0642a.0574.0574,0,0,0,.0406-.07h0A.0575.0575,0,0,0,11.2305,7.3437Z"/><path class="i" d="M11.5994,7.2449,11.36,7.309a.0576.0576,0,0,0-.0407.07h0a.0573.0573,0,0,0,.07.0406l.2393-.0641a.0575.0575,0,0,0,.0407-.07h0A.0575.0575,0,0,0,11.5994,7.2449Z"/><path class="i" d="M11.9682,7.1461l-.2394.0641a.0574.0574,0,0,0-.0406.07h0a.0575.0575,0,0,0,.07.0406l.2393-.0641a.0575.0575,0,0,0,.0407-.07h0A.0574.0574,0,0,0,11.9682,7.1461Z"/><path class="i" d="M12.4292,7.0226l-.2393.0641a.0575.0575,0,0,0-.0407.07h0a.0575.0575,0,0,0,.07.0407l.2393-.0641a.0575.0575,0,0,0,.0406-.07h0A.0574.0574,0,0,0,12.4292,7.0226Z"/><path class="i" d="M12.798,6.9237l-.2393.0642a.0573.0573,0,0,0-.0406.07h0a.0574.0574,0,0,0,.07.0407l.2393-.0642a.0574.0574,0,0,0,.0407-.07h0A.0575.0575,0,0,0,12.798,6.9237Z"/><path class="i" d="M13.1668,6.8249l-.2393.0641a.0575.0575,0,0,0-.0406.07h0a.0573.0573,0,0,0,.07.0406l.2393-.0641a.0576.0576,0,0,0,.0407-.07h0A.0575.0575,0,0,0,13.1668,6.8249Z"/><path class="i" d="M13.6278,6.7014l-.2393.0641a.0575.0575,0,0,0-.0407.07h0a.0574.0574,0,0,0,.07.0406l.2394-.0641a.0574.0574,0,0,0,.0406-.07h0A.0575.0575,0,0,0,13.6278,6.7014Z"/><path class="i" d="M13.9966,6.6026l-.2393.0641a.0575.0575,0,0,0-.0407.07h0a.0575.0575,0,0,0,.07.0406l.2393-.0641a.0573.0573,0,0,0,.0406-.07h0A.0574.0574,0,0,0,13.9966,6.6026Z"/><path class="i" d="M14.3654,6.5038l-.2393.0641a.0575.0575,0,0,0-.0406.07h0a.0575.0575,0,0,0,.07.0407l.2392-.0641a.0576.0576,0,0,0,.0407-.07h0A.0573.0573,0,0,0,14.3654,6.5038Z"/><path class="c" d="M11.3782,12.6013a.3868.3868,0,0,0-.0508.0051l-.0092-.0359a.3969.3969,0,1,0-.3928-.6818l-.0266-.0267a.3967.3967,0,1,0-.6826-.3931l-.0354-.0092a.3835.3835,0,0,0,.0051-.0507.3977.3977,0,1,0-.79.0507l-.0354.0092a.397.397,0,1,0-.6826.3931,1.5889,1.5889,0,1,0,2.6493,1.529.3868.3868,0,0,0,.0508.0051.3974.3974,0,1,0,0-.7948"/><path class="b" d="M6.609,9.8192h3.18V8.23H6.609Z"/><path class="c" d="M10.5833,9.2231a.1988.1988,0,1,0,0-.3975.1919.1919,0,0,0-.0253.0026L10.5534,8.81a.1988.1988,0,0,0-.0766-.3821.1957.1957,0,0,0-.12.0412l-.0134-.0134a.1961.1961,0,0,0,.04-.1187.1987.1987,0,0,0-.3815-.0779.7949.7949,0,1,0,0,1.53.1987.1987,0,0,0,.3815-.0778.1961.1961,0,0,0-.04-.1187l.0134-.0134a.1964.1964,0,0,0,.12.0412.1988.1988,0,0,0,.0766-.3821l.0046-.0179A.21.21,0,0,0,10.5833,9.2231Z"/><path class="d" d="M11.3782,3.3609a.214.214,0,0,1-.0389-.004.2034.2034,0,0,1-.0374-.0111.214.214,0,0,1-.0343-.0183.3282.3282,0,0,1-.03-.0246.2334.2334,0,0,1-.0245-.03.2086.2086,0,0,1-.0184-.0341.2062.2062,0,0,1-.015-.0763.2141.2141,0,0,1,.004-.039.2194.2194,0,0,1,.011-.0373.2055.2055,0,0,1,.0184-.0342.2914.2914,0,0,1,.0245-.03.3138.3138,0,0,1,.03-.0247.214.214,0,0,1,.0343-.0183.2042.2042,0,0,1,.0374-.0111.1859.1859,0,0,1,.0779,0,.1926.1926,0,0,1,.0715.0294.302.302,0,0,1,.03.0247.28.28,0,0,1,.0246.03.1913.1913,0,0,1,.0183.0342.2111.2111,0,0,1,.0111.0373.2141.2141,0,0,1,.004.039.2016.2016,0,0,1-.058.1407.3154.3154,0,0,1-.03.0246.2089.2089,0,0,1-.0342.0183.2035.2035,0,0,1-.0763.0151Zm1.59-.0994a.2026.2026,0,0,1-.1407-.058.3115.3115,0,0,1-.0246-.03.1979.1979,0,0,1-.0334-.11.2029.2029,0,0,1,.058-.1407.29.29,0,0,1,.03-.0246.2054.2054,0,0,1,.0342-.0183.1938.1938,0,0,1,.0374-.0111.1827.1827,0,0,1,.0779,0,.1981.1981,0,0,1,.0374.0111.2046.2046,0,0,1,.0341.0183.29.29,0,0,1,.03.0246.203.203,0,0,1,.0581.1407.2253.2253,0,0,1-.004.039.208.208,0,0,1-.0111.0373.2953.2953,0,0,1-.0183.0342.1936.1936,0,0,1-.0549.0548.197.197,0,0,1-.1105.0334Z"/></svg>