<svg xmlns="http://www.w3.org/2000/svg" viewBox="0 0 16 16">
  <rect x="0.25" y="0.25" width="15.5" height="15.5" style="fill: #ffc411"/>
  <g>
    <path d="M1,3.45l7-1.4V3.1L1,4.15Z" style="fill-opacity: 0.44999998807907104"/>
    <path d="M8,2.05l7,1.4v.7L8,3.1Z" style="fill: #fff"/>
    <path d="M1,4.78v6.44l1.575.175V7.37L4.15,10.275,5.795,7.37v4.515l1.855.245V3.87l-1.995.28L4.15,7.055,2.645,4.605Z" style="fill-opacity: 0.44999998807907104"/>
    <path d="M15,4.78v6.44l-1.575.175V7.37L11.85,10.275,10.205,7.37v4.515L8.35,12.13V3.87l1.995.28L11.85,7.055l1.505-2.45Z" style="fill: #fff"/>
    <path d="M1,12.55l7,1.4V12.9L1,11.85Z" style="fill-opacity: 0.44999998807907104"/>
    <path d="M8,13.95l7-1.4v-.7L8,12.9Z" style="fill: #fff"/>
  </g>
</svg>
