<svg xmlns="http://www.w3.org/2000/svg" viewBox="0 0 16 16"><path d="M11.623 12.28a1.55 1.55 0 0 1 .447-1.357 2.44 2.44 0 0 0 .97-1.756 4.2 4.2 0 0 0-.738-2.91 1.4 1.4 0 0 0-.34-.34.796.796 0 0 0-1.057 0 2.2 2.2 0 0 0-.689.97 3.95 3.95 0 0 0-.223 2.91 2.17 2.17 0 0 0 .67.97l.116.107a1.14 1.14 0 0 1 .436.97v.718a.21.21 0 0 1-.067.165l-2.91 2.91v-.825c0-.63.058-1.26.077-1.94a1.16 1.16 0 0 1 .514-.97.5.5 0 0 0 .243-.465v-3.56A18.3 18.3 0 0 0 8.8 4.783a3.6 3.6 0 0 0-.543-1.3 1 1 0 0 0-.31-.301.31.31 0 0 0-.43.088.3.3 0 0 0-.026.048 1 1 0 0 0-.097.465v7.081a14.4 14.4 0 0 0 .136 2.047 17 17 0 0 1 0 2.522.4.4 0 0 0-.058-.106l-1.94-1.94a.32.32 0 0 1-.097-.243v-1.368a1.06 1.06 0 0 1 .31-.698 2.44 2.44 0 0 0 .766-2.047 17 17 0 0 0-.204-2.512 5 5 0 0 0-.174-.844.4.4 0 0 0-.077-.175 2.5 2.5 0 0 0-.097.572v2.212a5 5 0 0 1 0 .64 1.3 1.3 0 0 1-.078.272.21.21 0 0 1-.194.136c-.087 0-.117-.078-.146-.146a2.8 2.8 0 0 1-.145-.844c-.058-.766 0-1.542-.126-2.308a2.3 2.3 0 0 0-.097-.544 1.8 1.8 0 0 0-.088.485c0 .69-.067 1.378-.097 2.067a4.5 4.5 0 0 1-.126 1.028c0 .126-.058.281-.223.281s-.203-.165-.232-.29a4.1 4.1 0 0 1-.088-1.048V5.549a.66.66 0 0 0-.106.34 23 23 0 0 0-.447 3.288 2.31 2.31 0 0 0 .738 1.94 1.12 1.12 0 0 1 .34.737v.97c-.059 0-.078 0-.107-.067L.294 8.227c-.059-.078-.059-.117 0-.214L7.899.418c.097-.068.097-.078.194 0l7.595 7.595c.068.068.097.107 0 .194l-4.006 4.025Z" style="fill:#40894b"/></svg>