<svg xmlns="http://www.w3.org/2000/svg" viewBox="0 0 16 16"><path d="m13.993 9.486.192-1.286.245-1.64q.094-.644.2-1.286a.8.8 0 0 1 .058-.195.39.39 0 0 1 .375-.254h.615a.28.28 0 0 1 .287.214 1.07 1.07 0 0 1 .008.549l-.535 2.775-.508 2.639c-.118.612-.232 1.224-.358 1.835a4.4 4.4 0 0 1-.4 1.193 1.13 1.13 0 0 1-1.055.622 1.53 1.53 0 0 1-.761-.136.66.66 0 0 1-.4-.554 1.9 1.9 0 0 1 .044-.615.34.34 0 0 1 .281-.289.4.4 0 0 1 .137.014q.207.056.415.115c.1.026.118.018.17-.072a1.3 1.3 0 0 0 .135-.489 2.5 2.5 0 0 0-.1-.91c-.239-1.019-.485-2.036-.729-3.054l-.756-3.145a.9.9 0 0 1 .01-.483.26.26 0 0 1 .248-.2c.319 0 .639-.011.958 0 .226.01.362.158.412.415q.152.767.293 1.535l.489 2.583.025.12ZM9.809 4.83h.815a.35.35 0 0 1 .376.283.8.8 0 0 1 .03.194v.585a.7.7 0 0 1-.037.193.36.36 0 0 1-.393.259h-.7879999999999999c0 .031-.005.057-.005.083v3.745a2.6 2.6 0 0 0 .094.8.7.7 0 0 0 .067.145.35.35 0 0 0 .327.17h.49a.377.377 0 0 1 .436.385 4 4 0 0 1-.008.671.367.367 0 0 1-.392.355 11 11 0 0 1-1.154-.023 1.44 1.44 0 0 1-1.294-1.036 3.8 3.8 0 0 1-.2-1.117c-.014-.473-.014-.946-.015-1.419V6.348l-.068-.006h-.212a.374.374 0 0 1-.431-.377 7 7 0 0 1 0-.759.5.5 0 0 1 .053-.171.33.33 0 0 1 .318-.205h.341c0-.082.012-.156.015-.231q.056-1.259.119-2.518a2.4 2.4 0 0 1 .063-.461.335.335 0 0 1 .372-.272c.205 0 .41.008.614 0 .33-.016.425.18.458.416a2 2 0 0 1 .011.212v2.743ZM.857 3.81l-.394.1a.322.322 0 0 1-.438-.28A1.3 1.3 0 0 1 0 3.4q-.002-.395.007-.789a.455.455 0 0 1 .371-.459c.635-.156 1.267-.325 1.9-.487a.336.336 0 0 1 .457.288 1.3 1.3 0 0 1 .025.268v9.78a1.2 1.2 0 0 1-.078.494.32.32 0 0 1-.3.2H1.234a.33.33 0 0 1-.334-.283 1.4 1.4 0 0 1-.045-.325V4.612ZM4.6 3.8c-.133.033-.254.059-.372.094a.334.334 0 0 1-.468-.325q-.024-.511 0-1.022a.4.4 0 0 1 .347-.4l1.888-.485a.358.358 0 0 1 .5.331 1.4 1.4 0 0 1 .015.2v9.8a1.8 1.8 0 0 1-.059.432.327.327 0 0 1-.358.259H5.011a.32.32 0 0 1-.352-.255A1.8 1.8 0 0 1 4.6 12V3.911Z"/></svg>