<svg xmlns="http://www.w3.org/2000/svg" viewBox="0 0 16 16"><defs><style>.a{fill:#0287cb;}.b{fill:#02c7b3;}</style></defs><path class="a" d="M3.1535,12.2559a9.9361,9.9361,0,0,1,.29-2.3421,8.654,8.654,0,0,0,0-4.1036,7.8013,7.8013,0,0,1-.2033-3.0294,1.8776,1.8776,0,0,1,1.3937-1.684,2.4288,2.4288,0,0,1,1.52.2226,8.36,8.36,0,0,1,2.4,1.6937A8.5274,8.5274,0,0,0,11.99,4.9972a10.3759,10.3759,0,0,1,2.2163.9678,4.0244,4.0244,0,0,1,1.113.91,1.7419,1.7419,0,0,1,0,2.2937,4.7707,4.7707,0,0,1-1.6743,1.1905,13.1753,13.1753,0,0,1-1.7809.6678,8.2853,8.2853,0,0,0-3.1745,1.79,9.68,9.68,0,0,1-2.2937,1.7034,3.04,3.04,0,0,1-1.3066.3774,1.8291,1.8291,0,0,1-1.8486-1.7227A4.3744,4.3744,0,0,1,3.1535,12.2559Zm.9678-.2516a3.6768,3.6768,0,0,0,.1646,1.3743.7936.7936,0,0,0,.9678.5517A3.2424,3.2424,0,0,0,6.27,13.5045,10.5127,10.5127,0,0,0,8.0314,12.13a9.1659,9.1659,0,0,1,3.5423-2.0421,10.3406,10.3406,0,0,0,2.0712-.842,3,3,0,0,0,.9678-.7453.7742.7742,0,0,0,0-1.0646,2.3673,2.3673,0,0,0-.4936-.4258,5.4755,5.4755,0,0,0-1.3453-.7259c-.6291-.2323-1.2775-.4162-1.9357-.6678A10.1127,10.1127,0,0,1,7.6346,3.4583a5.7488,5.7488,0,0,0-2.11-1.3646c-.7646-.2614-1.1807,0-1.355.7645a6.07,6.07,0,0,0,.1549,2.7A9.902,9.902,0,0,1,4.5182,9.43,19.144,19.144,0,0,0,4.1213,12.0043Z"/><path class="b" d="M.25,7.9781a1.9356,1.9356,0,0,1,.6581-1.384A5.8041,5.8041,0,0,1,2.5535,5.5392c.1161-.0484.1742,0,.1935.0967a.1267.1267,0,0,0,0,.0581c0,.2226.1646.4839.1065.6872s-.3775.2323-.571.3581a3.624,3.624,0,0,0-.8033.6194.8221.8221,0,0,0,0,1.2388,3.4741,3.4741,0,0,0,1.21.8324c.1936.0871.2323.1935.1646.3677v.1065c-.1355.61-.1355.61-.6969.31A4.3573,4.3573,0,0,1,.792,9.246,1.8776,1.8776,0,0,1,.25,7.9781Z"/><path class="b" d="M11.864,3.72a2.9028,2.9028,0,0,0-.1548-1.113.7937.7937,0,0,0-.9673-.5693c-.02.0051-.0393.011-.0586.0176a3.63,3.63,0,0,0-1.326.6195.2543.2543,0,0,1-.3774,0,2.8256,2.8256,0,0,0-.3581-.3291c-.1452-.1065-.1839-.1742,0-.29a5.0429,5.0429,0,0,1,2.0131-.9678,1.6939,1.6939,0,0,1,1.8486.9678,4.598,4.598,0,0,1,.29,2.5261c0,.0871-.0581.1065-.1355.0774l-.2129-.0774C11.864,4.3584,11.864,4.3584,11.864,3.72Z"/><path class="b" d="M8.4476,13.7851l.61-.5613c.1162-.1162.1839,0,.271,0a3.8715,3.8715,0,0,0,1.3743.6484.7839.7839,0,0,0,.9679-.5323,3.4538,3.4538,0,0,0,.1935-1.49c0-.2033,0-.3.242-.3291h.1065c.5613-.1742.571-.1742.61.3871a4.4322,4.4322,0,0,1-.1839,1.7421,1.7518,1.7518,0,0,1-2.1511,1.229c-.0218-.006-.0436-.0124-.0652-.0192A5.3692,5.3692,0,0,1,8.4476,13.7851Z"/><path class="b" d="M10.78,6.4973a9.8593,9.8593,0,0,0,0,2.9713.1839.1839,0,0,1-.1372.2209l-.008.0017A9.3178,9.3178,0,0,0,8.0992,11.172a.1743.1743,0,0,1-.2459.0154l-.0155-.0154A9.5393,9.5393,0,0,0,5.2924,9.6912c-.1355,0-.1548-.1258-.1355-.2613a9.4233,9.4233,0,0,0,0-2.9035c0-.1452,0-.213.1549-.271A9.5036,9.5036,0,0,0,7.8282,4.7939c.1064-.0871.1742-.0968.2806,0a9.5036,9.5036,0,0,0,2.5164,1.4615C10.7994,6.3231,10.79,6.3328,10.78,6.4973ZM9.4154,7.9781a1.4517,1.4517,0,1,0-1.432,1.4713l.0093,0A1.4711,1.4711,0,0,0,9.4154,7.9781Z"/><path class="b" d="M4.973,10.2816h.1355a10.3438,10.3438,0,0,1,2.2841,1.3743c.1355.1065.1355.1548,0,.2613-.542.4742-.542.4742-1.142.0968a8.9485,8.9485,0,0,0-1.2679-.6969c-.1452-.0677-.2032-.1451-.1742-.3a2.7514,2.7514,0,0,1,.0774-.59C4.9634,10.2332,4.8859,10.2816,4.973,10.2816Z"/><path class="b" d="M12.2705,7.9781a5.4131,5.4131,0,0,0,.0581.9678.2322.2322,0,0,1-.1452.271c-.7258.3678-.7742.3485-.8226-.4548a12.6543,12.6543,0,0,1,0-2.1c0-.1838.0774-.2322.271-.1645.6484.2517.6581.242.6194.9679A1.5234,1.5234,0,0,1,12.2705,7.9781Z"/><path class="b" d="M6.7829,3.6035a4.4006,4.4006,0,0,1,.7065.5033c.0581,0,0,.0967-.058.1258A9.8712,9.8712,0,0,1,5.0892,5.6553c-.1162.0484-.1549,0-.1742-.0968s0-.0774,0-.1161c-.0968-.6582-.0968-.6582.4936-.9679A12.801,12.801,0,0,0,6.6668,3.71Z"/></svg>