<svg xmlns="http://www.w3.org/2000/svg" viewBox="0 0 16 16">
  <path d="M13.993,9.486,14.185,8.2q.123-.82.245-1.64c.064-.429.128-.858.2-1.286a.8.8,0,0,1,.058-.195.39.39,0,0,1,.375-.254c.205,0,.41,0,.615,0a.28.28,0,0,1,.287.214,1.065,1.065,0,0,1,.008.549q-.267,1.387-.535,2.775-.255,1.32-.508,2.639c-.118.612-.232,1.224-.358,1.835a4.358,4.358,0,0,1-.4,1.193,1.126,1.126,0,0,1-1.055.622,1.534,1.534,0,0,1-.761-.136.657.657,0,0,1-.4-.554A1.854,1.854,0,0,1,12,13.347a.337.337,0,0,1,.281-.289.4.4,0,0,1,.137.014c.139.036.276.077.415.115.1.026.118.018.17-.072a1.327,1.327,0,0,0,.135-.489,2.451,2.451,0,0,0-.1-.91c-.239-1.019-.485-2.036-.729-3.054q-.377-1.572-.756-3.145a.881.881,0,0,1,.01-.483.258.258,0,0,1,.248-.2c.319,0,.639-.011.958,0,.226.01.362.158.412.415.1.511.2,1.023.293,1.535l.489,2.583c.008.04.016.08.025.12Z"/>
  <path d="M9.809,4.83h.815A.351.351,0,0,1,11,5.113a.8.8,0,0,1,.03.194c0,.195,0,.39,0,.585a.673.673,0,0,1-.037.193.357.357,0,0,1-.393.259c-.229,0-.459,0-.688,0h-.1c0,.031-.005.057-.005.083q0,1.872,0,3.745a2.616,2.616,0,0,0,.094.8.683.683,0,0,0,.067.145.351.351,0,0,0,.327.17c.163,0,.326,0,.49,0a.377.377,0,0,1,.436.385,4.178,4.178,0,0,1-.008.671.367.367,0,0,1-.392.355,10.825,10.825,0,0,1-1.154-.023,1.442,1.442,0,0,1-1.294-1.036,3.769,3.769,0,0,1-.2-1.117c-.014-.473-.014-.946-.015-1.419q0-1.327,0-2.655v-.1a.608.608,0,0,0-.068-.006c-.071,0-.142,0-.212,0a.374.374,0,0,1-.431-.377,7.116,7.116,0,0,1,0-.759A.482.482,0,0,1,7.5,5.035a.329.329,0,0,1,.318-.205h.341c0-.082.012-.156.015-.231.039-.839.076-1.679.119-2.518a2.369,2.369,0,0,1,.063-.461.335.335,0,0,1,.372-.272c.205,0,.41.008.614,0,.33-.016.425.18.458.416a1.5,1.5,0,0,1,.011.212q0,1.371,0,2.743Z"/>
  <path d="M.857,3.81l-.394.1a.322.322,0,0,1-.438-.28A1.313,1.313,0,0,1,0,3.4c0-.263,0-.526.007-.789a.455.455,0,0,1,.371-.459c.635-.156,1.267-.325,1.9-.487a.336.336,0,0,1,.457.288,1.33,1.33,0,0,1,.025.268q0,4.89,0,9.78a1.158,1.158,0,0,1-.078.494.321.321,0,0,1-.3.2c-.383,0-.765,0-1.148,0A.333.333,0,0,1,.9,12.412a1.43,1.43,0,0,1-.045-.325q0-3.736,0-7.475Z"/>
  <path d="M4.6,3.8c-.133.033-.254.059-.372.094a.334.334,0,0,1-.468-.325c-.016-.34-.016-.682,0-1.022a.4.4,0,0,1,.347-.4l1.888-.485a.358.358,0,0,1,.5.331,1.4,1.4,0,0,1,.015.2q0,4.9,0,9.8a1.75,1.75,0,0,1-.059.432.327.327,0,0,1-.358.259H5.011a.318.318,0,0,1-.352-.255A1.8,1.8,0,0,1,4.6,12q0-4.044,0-8.089Z"/>
</svg>
