<svg xmlns="http://www.w3.org/2000/svg" viewBox="0 0 16 16"><defs><style>.a{fill:#ff3e00;}.b{fill:#fff;}</style></defs><path class="a" d="M13.6266,2.3008A4.7317,4.7317,0,0,0,7.2894.94L3.68,3.24A4.1414,4.1414,0,0,0,1.8088,6.0141a4.3615,4.3615,0,0,0,.43,2.8,4.1532,4.1532,0,0,0-.62,1.5476,4.4134,4.4134,0,0,0,.7539,3.3375A4.7319,4.7319,0,0,0,8.7105,15.06L12.32,12.76A4.14,4.14,0,0,0,14.191,9.9858a4.3628,4.3628,0,0,0-.43-2.8,4.1522,4.1522,0,0,0,.6192-1.5475,4.412,4.412,0,0,0-.7539-3.3375"/><path class="b" d="M6.9367,13.893a2.8672,2.8672,0,0,1-3.0774-1.1407,2.6536,2.6536,0,0,1-.4535-2.0071,2.5283,2.5283,0,0,1,.0863-.3371l.068-.2073.1849.1359a4.6566,4.6566,0,0,0,1.412.7055l.1342.0407-.0124.1339a.8094.8094,0,0,0,.1456.5367.8636.8636,0,0,0,.9266.3439A.7971.7971,0,0,0,6.5727,12l3.61-2.3a.7519.7519,0,0,0,.3391-.5025.802.802,0,0,0-.1367-.605A.8641.8641,0,0,0,9.458,8.248a.7979.7979,0,0,0-.2214.0974l-1.3775.8781a2.6339,2.6339,0,0,1-.733.3219A2.8672,2.8672,0,0,1,4.0487,8.4047a2.6536,2.6536,0,0,1-.4534-2.0071A2.49,2.49,0,0,1,4.72,4.73l3.6094-2.3a2.6308,2.6308,0,0,1,.7335-.3223,2.8672,2.8672,0,0,1,3.0774,1.1407,2.6536,2.6536,0,0,1,.4535,2.0071,2.5592,2.5592,0,0,1-.0863.3371l-.068.2072-.1848-.1356a4.6522,4.6522,0,0,0-1.4121-.7058l-.1342-.0407.0124-.1339a.8111.8111,0,0,0-.1456-.5367.8636.8636,0,0,0-.9266-.3439A.7942.7942,0,0,0,9.4273,4l-3.61,2.3a.75.75,0,0,0-.3388.5024.8005.8005,0,0,0,.1364.605.8641.8641,0,0,0,.9269.3441.7971.7971,0,0,0,.2217-.0975L8.141,6.7767a2.627,2.627,0,0,1,.7329-.3222,2.8671,2.8671,0,0,1,3.0774,1.1408,2.6533,2.6533,0,0,1,.4535,2.007A2.4908,2.4908,0,0,1,11.28,11.27l-3.6094,2.3a2.6337,2.6337,0,0,1-.7335.3223"/></svg>