<svg xmlns="http://www.w3.org/2000/svg" viewBox="0 0 16 16"><defs><style>.a{fill:#61dafb}</style></defs><path d="M16 8.002c0-1.06-1.327-2.065-3.362-2.688.47-2.074.26-3.724-.66-4.252a1.43 1.43 0 0 0-.73-.183v.727a.76.76 0 0 1 .373.085c.443.254.635 1.223.485 2.469-.035.306-.094.63-.166.959a16 16 0 0 0-2.07-.356 16 16 0 0 0-1.358-1.63 4.8 4.8 0 0 1 2.74-1.53V.875a5.46 5.46 0 0 0-3.259 1.748A5.46 5.46 0 0 0 4.736.889v.727a4.83 4.83 0 0 1 2.74 1.52 15 15 0 0 0-1.347 1.627 15 15 0 0 0-2.074.359q-.111-.49-.17-.946c-.153-1.246.036-2.214.476-2.472a.73.73 0 0 1 .375-.085V.892a1.45 1.45 0 0 0-.737.183c-.916.528-1.122 2.175-.649 4.243C1.321 5.944 0 6.945 0 8.002c0 1.06 1.327 2.064 3.362 2.687-.47 2.074-.26 3.724.66 4.253a1.43 1.43 0 0 0 .733.182 5.46 5.46 0 0 0 3.258-1.748 5.46 5.46 0 0 0 3.258 1.735 1.46 1.46 0 0 0 .737-.182c.917-.529 1.122-2.176.65-4.243C14.678 10.063 16 9.058 16 8.002m-4.246-2.176c-.12.421-.27.855-.44 1.289a17.465 17.465 0 0 0-.897-1.546q.696.101 1.337.257M10.26 9.3c-.254.44-.515.858-.786 1.246a17 17 0 0 1-2.942.003q-.406-.582-.789-1.24a17 17 0 0 1-.678-1.297 17.442 17.442 0 0 1 1.461-2.547 17 17 0 0 1 2.942-.003q.406.582.789 1.239.371.64.678 1.298c-.205.436-.43.873-.675 1.301m1.053-.424c.176.437.326.874.45 1.298q-.642.157-1.343.261a18 18 0 0 0 .893-1.56Zm-3.307 3.48a14 14 0 0 1-.906-1.044q.442.021.897.023.46 0 .906-.023a13 13 0 0 1-.896 1.043ZM5.58 10.435q-.696-.103-1.337-.258c.12-.42.27-.854.44-1.288q.2.391.427.782c.227.391.31.516.47.764m2.41-6.787a14 14 0 0 1 .907 1.043A20 20 0 0 0 8 4.67q-.461-.001-.907.022a13 13 0 0 1 .897-1.043m-2.413 1.92a18 18 0 0 0-.894 1.556 14 14 0 0 1-.45-1.298c.427-.1.878-.189 1.344-.257M2.625 9.653C1.471 9.159.724 8.514.724 8.002s.747-1.161 1.901-1.65c.28-.121.587-.229.904-.33a16 16 0 0 0 .733 1.986 15.5 15.5 0 0 0-.724 1.977 10 10 0 0 1-.913-.333m1.755 4.66c-.444-.254-.636-1.223-.486-2.469.036-.307.095-.63.166-.959a16 16 0 0 0 2.071.356 16 16 0 0 0 1.357 1.63 4.8 4.8 0 0 1-2.74 1.53.8.8 0 0 1-.368-.088Zm7.736-2.485c.153 1.246-.036 2.214-.476 2.472a.73.73 0 0 1-.375.085 4.83 4.83 0 0 1-2.74-1.52 15 15 0 0 0 1.347-1.627 15 15 0 0 0 2.074-.359 9 9 0 0 1 .17.95ZM13.37 9.65c-.28.121-.587.229-.903.33a16 16 0 0 0-.734-1.986 15.4 15.4 0 0 0 .724-1.977q.486.152.917.333c1.154.492 1.901 1.138 1.901 1.65-.003.513-.75 1.162-1.905 1.65Z" class="a"/><circle cx="7.997" cy="8.002" r="1.49" class="a"/></svg>