<svg xmlns="http://www.w3.org/2000/svg" viewBox="0 0 16 16">
  <path d="M8,.25H8A7.75,7.75,0,0,1,15.75,8h0A7.75,7.75,0,0,1,8,15.75H8A7.75,7.75,0,0,1,.25,8h0A7.75,7.75,0,0,1,8,.25Z" fill="#e05c43"/>
  <path d="M6.625,7.817c.059-2.33,1.587-3.349,2.116-2.839s.333,1.605-.666,2.291-1.45.548-1.45.548m1.45,2.371C6.718,10.222,6.86,9.33,6.86,9.33s5.054-1.781,3.6-5.045A2.367,2.367,0,0,0,8.153,3.172c-1,.019-2.229.628-3.032,2.431A7.926,7.926,0,0,0,4.53,7.9,1.893,1.893,0,0,1,3.182,7.68c-.47-.391-.717,0-.717,0s-.809.947-.006,1.261a8.088,8.088,0,0,0,2.054.377h0a2.977,2.977,0,0,0,1.428,2.306c1.726,1.123,4.289-.063,4.289-.063a8.548,8.548,0,0,0,2.99-2.12.4.4,0,0,0-.01-.544l-.5-.519a.4.4,0,0,0-.541-.032,7.46,7.46,0,0,1-4.094,1.842" fill="#fff" fill-rule="evenodd"/>
</svg>
