<svg xmlns="http://www.w3.org/2000/svg" viewBox="0 0 16 16"><defs><style>.b,.c,.d,.h{fill-rule:evenodd}.b{fill:#3ecc5f}.c{fill:#44d860}.i{fill:#d8d8d8}.g,.h{fill:#4a4a4a}.i{opacity:.136;isolation:isolate}</style></defs><path d="M7.88 4.176h6.678v2.702H7.88Z" style="fill:#fff;fill-rule:evenodd"/><path d="M1.84 12.999a1.59 1.59 0 0 1-1.375-.795 1.588 1.588 0 0 0 1.375 2.384h1.59v-1.59Z" class="b"/><path d="m8.992 4.603 5.566-.348V3.46a1.59 1.59 0 0 0-1.59-1.59H5.814l-.199-.344a.23.23 0 0 0-.397 0l-.199.344-.198-.344a.23.23 0 0 0-.398 0l-.199.344-.198-.344a.23.23 0 0 0-.398 0l-.198.345h-.005l-.33-.33a.23.23 0 0 0-.383.103l-.11.406-.412-.11a.23.23 0 0 0-.281.281l.11.413-.406.109a.23.23 0 0 0-.103.383l.33.33v.005l-.344.198a.23.23 0 0 0 0 .398l.344.199-.344.198a.23.23 0 0 0 0 .398l.344.198-.344.199a.23.23 0 0 0 0 .397l.344.199-.344.199a.23.23 0 0 0 0 .397l.344.199-.344.199a.23.23 0 0 0 0 .397l.344.199-.344.199a.23.23 0 0 0 0 .397l.344.199-.344.199a.23.23 0 0 0 0 .397l.344.199-.344.199a.23.23 0 0 0 0 .397l.344.199-.344.198a.23.23 0 0 0 0 .398l.344.199-.344.198a.23.23 0 0 0 0 .398l.344.199-.344.198a.23.23 0 0 0 0 .398l.344.198-.344.199a.23.23 0 0 0 0 .398l.344.198a1.59 1.59 0 0 0 1.59 1.59h9.538a1.59 1.59 0 0 0 1.59-1.59V6.64l-5.566-.348a.846.846 0 0 1 0-1.69" class="b"/><path d="M11.378 14.588h2.385V11.41h-2.385Z" class="b"/><path d="m15.353 12.601-.051.005-.01-.035a.397.397 0 1 0-.392-.682l-.027-.027a.4.4 0 0 0 .08-.237.397.397 0 0 0-.763-.156l-.035-.01a.397.397 0 1 0-.79-.05l.005.05-.035.01a.397.397 0 0 0-.763.156.4.4 0 0 0 .08.237 1.589 1.589 0 1 0 2.649 1.529l.05.005a.397.397 0 1 0 0-.795" class="c"/><path d="M12.173 9.82h2.385V8.23h-2.385Z" class="b"/><path d="M15.353 9.223a.199.199 0 0 0 0-.397l-.026.002-.004-.018a.199.199 0 1 0-.197-.34l-.013-.014a.2.2 0 0 0 .04-.119.199.199 0 0 0-.382-.078.795.795 0 1 0 0 1.53.199.199 0 0 0 .382-.078.2.2 0 0 0-.04-.118l.013-.014a.2.2 0 0 0 .246-.004.2.2 0 0 0-.05-.337l.005-.018z" class="c"/><path d="M5.02 4.454a.2.2 0 0 1-.2-.199.596.596 0 0 0-1.192 0 .199.199 0 0 1-.397 0 .994.994 0 1 1 1.987 0 .2.2 0 0 1-.199.199" class="d"/><path d="M8.199 14.588h4.769a1.59 1.59 0 0 0 1.59-1.59V7.435h-4.77a1.59 1.59 0 0 0-1.59 1.59Z" style="fill-rule:evenodd;fill:#ffff50"/><path d="M13.367 9.899H9.389a.08.08 0 0 1 0-.16h3.978a.08.08 0 0 1 0 .16m0 1.59H9.389a.08.08 0 0 1 0-.16h3.978a.08.08 0 1 1 0 .16m0 1.59H9.389a.08.08 0 0 1 0-.16h3.978a.08.08 0 0 1 0 .16m0-3.96H9.389a.08.08 0 0 1 0-.16h3.978a.08.08 0 0 1 0 .16m0 1.575H9.389a.08.08 0 0 1 0-.16h3.978a.08.08 0 0 1 0 .16m0 1.59H9.389a.08.08 0 0 1 0-.16h3.978a.08.08 0 0 1 0 .16m1.19-7.344h-.002c-.246.008-.362.254-.464.47-.107.227-.19.375-.326.37-.15-.005-.236-.175-.327-.354-.104-.207-.223-.44-.474-.432-.242.009-.358.222-.461.411-.11.201-.184.323-.328.317-.153-.005-.234-.143-.329-.303-.105-.177-.226-.377-.471-.37-.238.008-.355.19-.459.35-.109.169-.185.272-.33.266-.157-.006-.238-.12-.332-.253a.54.54 0 0 0-.469-.309.58.58 0 0 0-.452.288c-.098.124-.175.223-.337.216a.08.08 0 1 0-.005.16.55.55 0 0 0 .466-.278c.094-.119.175-.221.334-.227.153-.006.225.089.333.242a.58.58 0 0 0 .456.32c.246.009.365-.176.47-.339.094-.146.175-.272.33-.277.142-.005.22.107.33.293.102.174.22.372.46.381.248.009.368-.208.472-.4.09-.166.176-.323.328-.328.142-.003.216.127.326.344.103.203.22.433.463.442h.014c.243 0 .359-.245.461-.46.09-.192.176-.373.323-.38z" class="d"/><path d="M6.609 14.588h3.18V11.41h-3.18Z" class="b"/><path d="M14.539 6.34 8.356 7.996a.16.16 0 0 0-.112.195l.604 2.255a.16.16 0 0 0 .195.112L15.225 8.9a.16.16 0 0 0 .112-.194l-.604-2.255a.16.16 0 0 0-.194-.112" style="fill:#d8d8d8"/><path d="m10.222 9.23-.221.06a.08.08 0 0 0-.057.097l.06.22a.08.08 0 0 0 .097.057l.221-.06a.08.08 0 0 0 .057-.096l-.06-.222a.08.08 0 0 0-.097-.056M10.666 9.111l-.221.06a.08.08 0 0 0-.056.097l.059.221a.08.08 0 0 0 .097.056l.222-.059a.08.08 0 0 0 .056-.097l-.06-.221a.08.08 0 0 0-.097-.057M11.11 8.992l-.22.06a.08.08 0 0 0-.057.097l.06.221a.08.08 0 0 0 .097.057l.221-.06a.08.08 0 0 0 .056-.097l-.06-.222a.08.08 0 0 0-.096-.056M11.555 8.873l-.221.06a.08.08 0 0 0-.057.097l.06.221a.08.08 0 0 0 .097.056l.221-.059a.08.08 0 0 0 .057-.097l-.06-.222a.08.08 0 0 0-.097-.056M12 8.754l-.222.06a.08.08 0 0 0-.056.097l.059.221a.08.08 0 0 0 .097.056l.222-.059a.08.08 0 0 0 .056-.097l-.06-.222A.08.08 0 0 0 12 8.754M12.444 8.635l-.222.06a.08.08 0 0 0-.056.097l.06.221a.08.08 0 0 0 .097.056l.221-.059a.08.08 0 0 0 .056-.097l-.06-.222a.08.08 0 0 0-.096-.056M12.888 8.516l-.221.06a.08.08 0 0 0-.057.097l.06.221a.08.08 0 0 0 .097.056l.221-.059a.08.08 0 0 0 .057-.097l-.06-.222a.08.08 0 0 0-.097-.056M13.332 8.397l-.221.06a.08.08 0 0 0-.056.097l.059.221a.08.08 0 0 0 .097.056l.222-.06a.08.08 0 0 0 .056-.097l-.059-.22a.08.08 0 0 0-.098-.057M13.777 8.278l-.222.06a.08.08 0 0 0-.056.097l.06.22a.08.08 0 0 0 .097.057l.221-.06a.08.08 0 0 0 .056-.097l-.06-.22a.08.08 0 0 0-.096-.057" class="g"/><path d="m8.82 9.606.944-.253a.08.08 0 0 1 .097.056l.06.222a.08.08 0 0 1-.057.097l-.943.253a.08.08 0 0 1-.097-.056l-.06-.222a.08.08 0 0 1 .056-.097m5.193-1.391.944-.253a.08.08 0 0 1 .097.056l.06.221a.08.08 0 0 1-.057.098l-.943.252a.08.08 0 0 1-.098-.056l-.059-.221a.08.08 0 0 1 .056-.098ZM8.58 8.709l.36-.097A.08.08 0 0 1 9 8.62a.08.08 0 0 1 .037.048l.06.222a.08.08 0 0 1-.057.097l-.36.097a.08.08 0 0 1-.097-.057l-.06-.22a.08.08 0 0 1 .057-.098" class="h"/><path d="m9.385 8.493-.222.06a.08.08 0 0 0-.056.097l.06.221a.08.08 0 0 0 .097.057l.221-.06a.08.08 0 0 0 .056-.097l-.06-.221a.08.08 0 0 0-.096-.057M9.829 8.374l-.222.06a.08.08 0 0 0-.056.097l.06.221a.08.08 0 0 0 .097.056l.221-.059a.08.08 0 0 0 .056-.097l-.059-.222a.08.08 0 0 0-.097-.056M10.273 8.255l-.221.06a.08.08 0 0 0-.056.097l.059.221a.08.08 0 0 0 .097.056l.222-.06a.08.08 0 0 0 .056-.096l-.06-.222a.08.08 0 0 0-.097-.056M10.718 8.136l-.222.06a.08.08 0 0 0-.056.097l.06.221a.08.08 0 0 0 .097.056l.221-.06a.08.08 0 0 0 .056-.096l-.06-.222a.08.08 0 0 0-.097-.056M11.162 8.017l-.222.06a.08.08 0 0 0-.056.097l.06.221a.08.08 0 0 0 .097.056l.221-.06a.08.08 0 0 0 .056-.097l-.059-.22a.08.08 0 0 0-.097-.057M11.606 7.898l-.221.06a.08.08 0 0 0-.056.097l.059.22a.08.08 0 0 0 .097.057l.222-.06a.08.08 0 0 0 .056-.097l-.06-.22a.08.08 0 0 0-.097-.057M12.05 7.779l-.221.06a.08.08 0 0 0-.056.097l.059.22a.08.08 0 0 0 .097.057l.222-.06a.08.08 0 0 0 .056-.097l-.06-.221a.08.08 0 0 0-.097-.056M12.495 7.66l-.222.06a.08.08 0 0 0-.056.097l.06.221a.08.08 0 0 0 .097.056l.221-.06a.08.08 0 0 0 .056-.097l-.059-.22a.08.08 0 0 0-.097-.057M12.939 7.54l-.221.06a.08.08 0 0 0-.057.097l.06.222a.08.08 0 0 0 .097.056l.221-.06a.08.08 0 0 0 .057-.097l-.06-.221a.08.08 0 0 0-.097-.056M13.383 7.422l-.221.059a.08.08 0 0 0-.056.097l.06.222a.08.08 0 0 0 .096.056l.222-.06a.08.08 0 0 0 .056-.097l-.06-.221a.08.08 0 0 0-.097-.056M13.828 7.303l-.222.059a.08.08 0 0 0-.056.097l.06.222a.08.08 0 0 0 .097.056l.221-.06a.08.08 0 0 0 .056-.097l-.059-.221a.08.08 0 0 0-.097-.056M14.272 7.184l-.221.059a.08.08 0 0 0-.057.097l.06.222a.08.08 0 0 0 .097.056l.221-.06a.08.08 0 0 0 .057-.097l-.06-.221a.08.08 0 0 0-.097-.056M14.716 7.065l-.221.059a.08.08 0 0 0-.056.097l.06.222a.08.08 0 0 0 .096.056l.222-.06a.08.08 0 0 0 .056-.097l-.06-.221a.08.08 0 0 0-.097-.057" class="g"/><path d="m14.703 7.014-.36.097a.08.08 0 0 1-.098-.056l-.059-.222a.08.08 0 0 1 .056-.097l.36-.097a.08.08 0 0 1 .098.057l.059.221a.08.08 0 0 1-.056.097" class="h"/><path d="m13.898 7.23.222-.06a.08.08 0 0 0 .056-.097l-.06-.221a.08.08 0 0 0-.097-.056l-.221.06a.08.08 0 0 0-.056.096l.059.222a.08.08 0 0 0 .097.056M13.454 7.349l.221-.06a.08.08 0 0 0 .057-.097l-.06-.221a.08.08 0 0 0-.097-.056l-.221.059a.08.08 0 0 0-.057.097l.06.222a.08.08 0 0 0 .097.056M13.01 7.468l.221-.06a.08.08 0 0 0 .056-.097l-.059-.221a.08.08 0 0 0-.097-.056l-.222.06a.08.08 0 0 0-.056.096l.06.222a.08.08 0 0 0 .097.056M12.565 7.587l.222-.06a.08.08 0 0 0 .056-.097l-.06-.221a.08.08 0 0 0-.097-.057l-.221.06a.08.08 0 0 0-.056.097l.06.221a.08.08 0 0 0 .096.057M12.121 7.706l.221-.06a.08.08 0 0 0 .057-.097l-.06-.22a.08.08 0 0 0-.097-.057l-.221.06a.08.08 0 0 0-.057.097l.06.22a.08.08 0 0 0 .097.057M11.677 7.825l.221-.06a.08.08 0 0 0 .056-.097l-.059-.22a.08.08 0 0 0-.097-.057l-.222.06a.08.08 0 0 0-.056.097l.06.22a.08.08 0 0 0 .097.057M11.232 7.944l.222-.06a.08.08 0 0 0 .056-.097l-.06-.22a.08.08 0 0 0-.097-.057l-.221.06a.08.08 0 0 0-.056.097l.06.221a.08.08 0 0 0 .096.056M10.788 8.063l.222-.059a.08.08 0 0 0 .056-.097l-.06-.222a.08.08 0 0 0-.097-.056l-.22.06a.08.08 0 0 0-.057.097l.06.221a.08.08 0 0 0 .096.056M10.344 8.182l.221-.059a.08.08 0 0 0 .056-.097l-.059-.222a.08.08 0 0 0-.097-.056l-.222.06a.08.08 0 0 0-.056.097l.06.221a.08.08 0 0 0 .097.056M9.9 8.301l.221-.059a.08.08 0 0 0 .057-.097l-.06-.222a.08.08 0 0 0-.097-.056l-.222.06a.08.08 0 0 0-.056.097l.06.221a.08.08 0 0 0 .097.056M9.455 8.42l.221-.06a.08.08 0 0 0 .057-.097l-.06-.221a.08.08 0 0 0-.097-.056l-.221.06a.08.08 0 0 0-.057.096l.06.222a.08.08 0 0 0 .097.056M9.01 8.54l.222-.06a.08.08 0 0 0 .056-.097L9.23 8.16a.08.08 0 0 0-.097-.056l-.222.06a.08.08 0 0 0-.056.097l.06.221a.08.08 0 0 0 .097.057M8.567 8.659l.221-.06a.08.08 0 0 0 .056-.097l-.06-.222a.08.08 0 0 0-.097-.056l-.22.06a.08.08 0 0 0-.057.097l.06.221a.08.08 0 0 0 .097.056" class="g"/><path d="m13.898 7.23.222-.06a.08.08 0 0 0 .056-.097l-.06-.221a.08.08 0 0 0-.097-.056l-.221.06a.08.08 0 0 0-.056.096l.059.222a.08.08 0 0 0 .097.056M13.454 7.349l.221-.06a.08.08 0 0 0 .057-.097l-.06-.221a.08.08 0 0 0-.097-.056l-.221.059a.08.08 0 0 0-.057.097l.06.222a.08.08 0 0 0 .097.056M13.01 7.468l.221-.06a.08.08 0 0 0 .056-.097l-.059-.221a.08.08 0 0 0-.097-.056l-.222.06a.08.08 0 0 0-.056.096l.06.222a.08.08 0 0 0 .097.056M12.565 7.587l.222-.06a.08.08 0 0 0 .056-.097l-.06-.221a.08.08 0 0 0-.097-.057l-.221.06a.08.08 0 0 0-.056.097l.06.221a.08.08 0 0 0 .096.057M12.121 7.706l.221-.06a.08.08 0 0 0 .057-.097l-.06-.22a.08.08 0 0 0-.097-.057l-.221.06a.08.08 0 0 0-.057.097l.06.22a.08.08 0 0 0 .097.057M11.677 7.825l.221-.06a.08.08 0 0 0 .056-.097l-.059-.22a.08.08 0 0 0-.097-.057l-.222.06a.08.08 0 0 0-.056.097l.06.22a.08.08 0 0 0 .097.057M11.232 7.944l.222-.06a.08.08 0 0 0 .056-.097l-.06-.22a.08.08 0 0 0-.097-.057l-.221.06a.08.08 0 0 0-.056.097l.06.221a.08.08 0 0 0 .096.056M10.788 8.063l.222-.059a.08.08 0 0 0 .056-.097l-.06-.222a.08.08 0 0 0-.097-.056l-.22.06a.08.08 0 0 0-.057.097l.06.221a.08.08 0 0 0 .096.056M10.344 8.182l.221-.059a.08.08 0 0 0 .056-.097l-.059-.222a.08.08 0 0 0-.097-.056l-.222.06a.08.08 0 0 0-.056.097l.06.221a.08.08 0 0 0 .097.056M9.9 8.301l.221-.059a.08.08 0 0 0 .057-.097l-.06-.222a.08.08 0 0 0-.097-.056l-.222.06a.08.08 0 0 0-.056.097l.06.221a.08.08 0 0 0 .097.056M9.455 8.42l.221-.06a.08.08 0 0 0 .057-.097l-.06-.221a.08.08 0 0 0-.097-.056l-.221.06a.08.08 0 0 0-.057.096l.06.222a.08.08 0 0 0 .097.056M9.01 8.54l.222-.06a.08.08 0 0 0 .056-.097L9.23 8.16a.08.08 0 0 0-.097-.056l-.222.06a.08.08 0 0 0-.056.097l.06.221a.08.08 0 0 0 .097.057M8.567 8.659l.221-.06a.08.08 0 0 0 .056-.097l-.06-.222a.08.08 0 0 0-.097-.056l-.22.06a.08.08 0 0 0-.057.097l.06.221a.08.08 0 0 0 .097.056" class="g"/><path d="m8.7 9.153.512-.137a.08.08 0 0 1 .06.008.08.08 0 0 1 .037.048l.06.221a.08.08 0 0 1-.057.097l-.512.138a.08.08 0 0 1-.097-.056l-.06-.222a.08.08 0 0 1 .056-.097Z" class="h"/><path d="m9.67 8.893-.221.06a.08.08 0 0 0-.057.097l.06.22a.08.08 0 0 0 .097.057l.222-.06a.08.08 0 0 0 .056-.097l-.06-.221a.08.08 0 0 0-.097-.056M10.115 8.774l-.222.059a.08.08 0 0 0-.056.097l.06.222a.08.08 0 0 0 .097.056l.221-.06a.08.08 0 0 0 .056-.097l-.06-.221a.08.08 0 0 0-.097-.056M10.559 8.655l-.221.059a.08.08 0 0 0-.057.097l.06.222a.08.08 0 0 0 .097.056l.221-.06a.08.08 0 0 0 .056-.097l-.059-.221a.08.08 0 0 0-.097-.056M11.003 8.536l-.221.059a.08.08 0 0 0-.056.097l.059.222a.08.08 0 0 0 .097.056l.222-.06a.08.08 0 0 0 .056-.097l-.06-.221a.08.08 0 0 0-.097-.056M11.447 8.417l-.22.059a.08.08 0 0 0-.057.097l.06.221a.08.08 0 0 0 .097.057l.22-.06a.08.08 0 0 0 .057-.097l-.06-.221a.08.08 0 0 0-.097-.057M11.892 8.298l-.222.059a.08.08 0 0 0-.056.097l.06.221a.08.08 0 0 0 .097.057l.221-.06a.08.08 0 0 0 .056-.097l-.059-.221a.08.08 0 0 0-.097-.056M12.336 8.178l-.221.06a.08.08 0 0 0-.056.097l.059.221a.08.08 0 0 0 .097.057l.222-.06a.08.08 0 0 0 .056-.097l-.06-.221a.08.08 0 0 0-.097-.057M12.78 8.06l-.221.059a.08.08 0 0 0-.057.097l.06.221a.08.08 0 0 0 .097.057l.221-.06a.08.08 0 0 0 .057-.097l-.06-.221a.08.08 0 0 0-.097-.057M13.225 7.94l-.222.06a.08.08 0 0 0-.056.097l.06.222a.08.08 0 0 0 .097.056l.221-.06a.08.08 0 0 0 .056-.097l-.059-.221a.08.08 0 0 0-.097-.057M13.669 7.821l-.221.06a.08.08 0 0 0-.056.097l.059.221a.08.08 0 0 0 .097.056l.221-.059a.08.08 0 0 0 .057-.097l-.06-.222a.08.08 0 0 0-.097-.056M14.113 7.702l-.221.06a.08.08 0 0 0-.056.097l.06.221a.08.08 0 0 0 .096.057l.222-.06a.08.08 0 0 0 .056-.097l-.06-.221a.08.08 0 0 0-.097-.057" class="g"/><path d="m14.35 7.639.485-.13a.08.08 0 0 1 .097.056l.06.221a.08.08 0 0 1-.056.098l-.486.13a.08.08 0 0 1-.097-.057l-.06-.22a.08.08 0 0 1 .057-.098" class="h"/><path d="m9.166 10.01-.221.06a.08.08 0 0 0-.057.097l.06.221a.08.08 0 0 0 .097.056l.222-.06a.08.08 0 0 0 .056-.097l-.06-.22a.08.08 0 0 0-.097-.057M9.61 9.891l-.221.059a.08.08 0 0 0-.056.097l.06.222a.08.08 0 0 0 .096.056l.222-.06a.08.08 0 0 0 .056-.097l-.06-.221a.08.08 0 0 0-.097-.056M10.055 9.772l-.222.06a.08.08 0 0 0-.056.097l.06.221a.08.08 0 0 0 .097.056l.221-.06a.08.08 0 0 0 .056-.096l-.059-.222a.08.08 0 0 0-.097-.056M10.499 9.653l-.221.06a.08.08 0 0 0-.057.097l.06.221a.08.08 0 0 0 .097.056l.221-.06a.08.08 0 0 0 .057-.096l-.06-.222a.08.08 0 0 0-.097-.056" class="g"/><path d="m10.722 9.593 2.137-.573a.08.08 0 0 1 .098.056l.059.222a.08.08 0 0 1-.056.097l-2.138.573a.08.08 0 0 1-.097-.056l-.06-.222a.08.08 0 0 1 .057-.097Zm2.36-.632.277-.075a.08.08 0 0 1 .097.057l.06.221a.08.08 0 0 1-.057.098l-.277.074a.08.08 0 0 1-.097-.056l-.06-.222a.08.08 0 0 1 .057-.097" class="h"/><path d="m13.804 8.767-.222.06a.08.08 0 0 0-.056.097l.06.222a.08.08 0 0 0 .097.056l.221-.06a.08.08 0 0 0 .056-.097l-.06-.221a.08.08 0 0 0-.097-.057M14.248 8.648l-.221.06a.08.08 0 0 0-.057.097l.06.221a.08.08 0 0 0 .097.057l.221-.06a.08.08 0 0 0 .056-.097l-.059-.221a.08.08 0 0 0-.097-.057M15.08 8.425l-.22.06a.08.08 0 0 0-.057.097l.06.221a.08.08 0 0 0 .097.056l.221-.059a.08.08 0 0 0 .057-.097l-.06-.222a.08.08 0 0 0-.097-.056M14.409 8.776l-.022-.082a.08.08 0 0 1 .056-.098l.221-.06a.08.08 0 0 1 .098.057l.022.083ZM14.799 8.731l.022.083a.08.08 0 0 1-.056.098l-.222.059a.08.08 0 0 1-.097-.056l-.022-.083ZM14.525 6.431l-6.082 1.63a.086.086 0 0 0 .045.167l6.081-1.63a.086.086 0 0 0-.044-.166Z" class="g"/><path d="m8.815 7.991-.24.064a.06.06 0 0 0-.04.07.06.06 0 0 0 .07.04l.24-.063a.06.06 0 0 0 .04-.07.057.057 0 0 0-.07-.041M9.294 7.863l-.239.064a.06.06 0 0 0-.04.07.057.057 0 0 0 .07.04l.239-.064a.057.057 0 0 0 .04-.07.06.06 0 0 0-.07-.04M9.663 7.764l-.24.064a.06.06 0 0 0-.04.07.057.057 0 0 0 .07.04l.24-.064a.06.06 0 0 0 .04-.07.057.057 0 0 0-.07-.04M10.032 7.665l-.24.064a.06.06 0 0 0-.04.07.057.057 0 0 0 .07.04l.24-.063a.06.06 0 0 0 .04-.07.06.06 0 0 0-.07-.041M10.4 7.566l-.239.064a.057.057 0 0 0-.04.07.057.057 0 0 0 .07.04l.24-.063a.06.06 0 0 0 .04-.07.06.06 0 0 0-.07-.04M10.862 7.443l-.24.064a.06.06 0 0 0-.04.07.06.06 0 0 0 .07.04l.24-.064a.06.06 0 0 0 .04-.07.057.057 0 0 0-.07-.04M11.23 7.344l-.239.064a.06.06 0 0 0-.04.07.06.06 0 0 0 .07.04l.239-.064a.057.057 0 0 0 .04-.07.06.06 0 0 0-.07-.04M11.6 7.245l-.24.064a.06.06 0 0 0-.04.07.057.057 0 0 0 .07.04l.239-.063a.06.06 0 0 0 .04-.07.06.06 0 0 0-.07-.041M11.968 7.146l-.24.064a.057.057 0 0 0-.04.07.06.06 0 0 0 .07.04l.24-.063a.06.06 0 0 0 .04-.07.057.057 0 0 0-.07-.04M12.43 7.023l-.24.064a.06.06 0 0 0-.04.07.06.06 0 0 0 .07.04l.239-.064a.06.06 0 0 0 .04-.07.057.057 0 0 0-.07-.04M12.798 6.924l-.24.064a.057.057 0 0 0-.04.07.057.057 0 0 0 .07.04l.24-.064a.057.057 0 0 0 .04-.07.06.06 0 0 0-.07-.04M13.167 6.825l-.24.064a.06.06 0 0 0-.04.07.057.057 0 0 0 .07.04l.24-.063a.06.06 0 0 0 .04-.07.06.06 0 0 0-.07-.041M13.628 6.701l-.24.064a.06.06 0 0 0-.04.07.057.057 0 0 0 .07.041l.24-.064a.057.057 0 0 0 .04-.07.06.06 0 0 0-.07-.04M13.997 6.603l-.24.064a.06.06 0 0 0-.04.07.06.06 0 0 0 .07.04l.239-.064a.057.057 0 0 0 .04-.07.057.057 0 0 0-.07-.04M14.365 6.504l-.239.064a.06.06 0 0 0-.04.07.06.06 0 0 0 .07.04l.239-.063a.06.06 0 0 0 .04-.07.057.057 0 0 0-.07-.041" class="i"/><path d="m11.378 12.601-.05.005-.01-.035a.397.397 0 1 0-.393-.682l-.026-.027a.397.397 0 1 0-.683-.393l-.035-.01.005-.05a.398.398 0 1 0-.79.05l-.035.01a.397.397 0 1 0-.683.393 1.589 1.589 0 1 0 2.65 1.529l.05.005a.397.397 0 1 0 0-.795" class="c"/><path d="M6.609 9.82h3.18V8.23h-3.18Z" class="b"/><path d="M10.583 9.223a.199.199 0 1 0 0-.397l-.025.002-.005-.018a.199.199 0 0 0-.076-.382.2.2 0 0 0-.12.041l-.014-.013a.2.2 0 0 0 .04-.119.199.199 0 0 0-.381-.078.795.795 0 1 0 0 1.53.199.199 0 0 0 .381-.078.2.2 0 0 0-.04-.118l.014-.014a.2.2 0 0 0 .12.041.199.199 0 0 0 .076-.382l.005-.018z" class="c"/><path d="m11.378 3.36-.039-.003-.037-.011-.034-.018-.03-.025-.025-.03-.018-.034a.2.2 0 0 1-.015-.076l.004-.04.01-.037.02-.034.024-.03.03-.025.034-.018.037-.011a.2.2 0 0 1 .078 0 .2.2 0 0 1 .072.03l.03.024.024.03.019.034.01.038.005.039a.2.2 0 0 1-.058.14l-.03.025-.035.018a.2.2 0 0 1-.076.015Zm1.59-.098a.2.2 0 0 1-.14-.059l-.025-.03a.2.2 0 0 1-.034-.11.2.2 0 0 1 .058-.14l.03-.025.035-.018.037-.011a.2.2 0 0 1 .078 0l.037.01.034.02.03.024a.2.2 0 0 1 .059.14l-.004.04-.012.037-.018.034a.2.2 0 0 1-.055.055.2.2 0 0 1-.11.033Z" class="d"/></svg>