<svg xmlns="http://www.w3.org/2000/svg" width="846" height="196" fill="none" viewBox="0 0 846 196"><path fill="#fff" d="M0 0h846v196H0z"/><circle cx="376" cy="81" r="65" fill="#fff"/><path fill="#000" d="M224.707 81.617a1 1 0 0 0 0-1.414l-6.364-6.364a1 1 0 1 0-1.414 1.414l5.657 5.657-5.657 5.657a1 1 0 1 0 1.414 1.414zM224 79.91h-75v2h75zM51.463 127.727v-8.728h5.88v1.522h-4.035v2.079h3.733v1.521h-3.733v2.084h4.052v1.522zm8.83-6.546 1.202 2.288 1.232-2.288h1.862l-1.897 3.273 1.948 3.273h-1.854l-1.291-2.263-1.27 2.263H58.35l1.943-3.273-1.875-3.273zm8.855 0v1.364h-3.941v-1.364zm-3.046-1.568h1.815v6.102q0 .251.076.392a.42.42 0 0 0 .214.192.9.9 0 0 0 .324.055q.127 0 .255-.021l.196-.038.286 1.351q-.137.042-.384.098a3 3 0 0 1-.6.072q-.657.026-1.151-.175a1.6 1.6 0 0 1-.763-.622q-.273-.422-.269-1.065zm7.141 8.241q-1.01 0-1.738-.409a2.8 2.8 0 0 1-1.117-1.167q-.392-.759-.392-1.794 0-1.011.392-1.773.393-.763 1.104-1.189.716-.426 1.68-.426.646 0 1.205.209.563.204.98.618.422.413.656 1.039.235.623.235 1.458v.498H70.72v-1.125h3.818q0-.392-.17-.694a1.2 1.2 0 0 0-.474-.473 1.34 1.34 0 0 0-.694-.175q-.414 0-.733.192-.315.187-.494.507-.179.315-.184.703v1.07q0 .485.18.839.182.354.515.546.332.19.788.191.303 0 .554-.085t.43-.256q.18-.17.273-.417l1.68.111a2.3 2.3 0 0 1-.525 1.056q-.392.449-1.014.699-.618.247-1.428.247m4.19-.127v-6.546h1.76v1.142h.068q.18-.61.6-.92.422-.316.972-.316.136 0 .294.017t.277.047v1.611a2.5 2.5 0 0 0-.354-.068q-.225-.03-.413-.03-.4 0-.716.175a1.3 1.3 0 0 0-.494.477q-.18.307-.18.707v3.704zm6.725-3.785v3.785h-1.815v-6.546h1.73v1.155h.076q.217-.572.73-.903.51-.337 1.24-.337.681 0 1.188.298t.788.852q.282.55.282 1.313v4.168H86.56v-3.844q.004-.601-.307-.938-.31-.34-.856-.341-.366 0-.648.158-.277.158-.434.46a1.6 1.6 0 0 0-.158.72m7.516 3.908q-.627 0-1.117-.217a1.8 1.8 0 0 1-.775-.652q-.282-.435-.281-1.083 0-.545.2-.916.2-.37.545-.596.345-.227.785-.341.443-.115.928-.162.572-.06.92-.111.35-.056.508-.162a.36.36 0 0 0 .158-.315v-.026q0-.405-.256-.626-.252-.222-.716-.222-.49 0-.78.217a1 1 0 0 0-.383.537l-1.68-.136q.129-.596.504-1.031.375-.44.967-.673.597-.24 1.38-.239.546 0 1.045.128.503.127.89.396.393.269.618.69.226.418.226 1.002v4.415h-1.722v-.908h-.05a1.9 1.9 0 0 1-.423.541 2 2 0 0 1-.635.362 2.6 2.6 0 0 1-.856.128m.52-1.253q.4 0 .707-.157.307-.162.482-.435.174-.273.174-.618v-.695a1 1 0 0 1-.234.103 5 5 0 0 1-.694.145l-.333.047a2.2 2.2 0 0 0-.558.149.9.9 0 0 0-.37.277.67.67 0 0 0-.133.426q0 .37.269.567.272.19.69.191m6.39-7.598v8.728h-1.816v-8.728zm7.214 8.855q-1.01 0-1.738-.409a2.8 2.8 0 0 1-1.117-1.167q-.392-.759-.392-1.794 0-1.011.392-1.773a2.9 2.9 0 0 1 1.104-1.189q.716-.426 1.679-.426.648 0 1.206.209.562.204.98.618.422.413.656 1.039.234.623.234 1.458v.498h-5.527v-1.125h3.819q0-.392-.171-.694a1.2 1.2 0 0 0-.473-.473 1.34 1.34 0 0 0-.694-.175q-.414 0-.733.192a1.35 1.35 0 0 0-.495.507q-.178.315-.183.703v1.07q0 .485.179.839.183.354.516.546.332.19.788.191.303 0 .554-.085a1.14 1.14 0 0 0 .43-.256 1.1 1.1 0 0 0 .273-.417l1.679.111a2.3 2.3 0 0 1-.524 1.056 2.6 2.6 0 0 1-1.014.699q-.618.247-1.428.247m4.189-.127v-6.546h1.73v1.155h.077q.204-.576.682-.908.477-.332 1.142-.332.673 0 1.146.337.473.332.631.903h.068q.2-.563.724-.899.53-.34 1.249-.341.917 0 1.487.584.576.579.575 1.645v4.402h-1.811v-4.044q0-.546-.289-.819a1.02 1.02 0 0 0-.725-.272q-.493 0-.771.315-.277.31-.277.822v3.998h-1.76v-4.083q0-.482-.277-.767-.273-.285-.72-.285-.303 0-.546.153-.238.149-.379.422a1.34 1.34 0 0 0-.141.631v3.929zm12.812.123q-.627 0-1.117-.217a1.8 1.8 0 0 1-.775-.652q-.281-.435-.281-1.083 0-.545.2-.916.2-.37.545-.596.346-.227.784-.341.444-.115.929-.162.572-.06.921-.111.35-.056.507-.162a.36.36 0 0 0 .158-.315v-.026q0-.405-.256-.626-.252-.222-.716-.222-.49 0-.78.217a1 1 0 0 0-.383.537l-1.679-.136q.128-.596.503-1.031.375-.44.967-.673.597-.24 1.381-.239.544 0 1.044.128.503.127.89.396.393.269.618.69.226.418.226 1.002v4.415h-1.722v-.908h-.051a1.8 1.8 0 0 1-.422.541 2 2 0 0 1-.635.362 2.6 2.6 0 0 1-.856.128m.52-1.253q.4 0 .707-.157.307-.162.482-.435.174-.273.174-.618v-.695a1 1 0 0 1-.234.103 5 5 0 0 1-.328.081q-.183.034-.367.064l-.332.047q-.32.046-.558.149a.9.9 0 0 0-.371.277.67.67 0 0 0-.132.426q0 .37.268.567.273.19.691.191m4.574 1.13v-6.546h1.816v6.546zm.912-7.39a.98.98 0 0 1-.694-.268.87.87 0 0 1-.286-.652q0-.375.286-.644a.98.98 0 0 1 .694-.272q.405 0 .691.272a.85.85 0 0 1 .289.644q0 .38-.289.652a.97.97 0 0 1-.691.268m4.173-1.338v8.728h-1.815v-8.728zm605.307 15.274h1.845v5.667q0 .955-.456 1.671a3.05 3.05 0 0 1-1.266 1.116q-.813.397-1.896.397-1.087 0-1.9-.397a3.05 3.05 0 0 1-1.266-1.116q-.452-.716-.452-1.671v-5.667h1.845v5.51q0 .498.218.886.222.388.622.609.4.222.933.222.537 0 .933-.222.4-.22.618-.609a1.75 1.75 0 0 0 .222-.886zm8.775 4.048-1.662.102a.85.85 0 0 0-.183-.383.96.96 0 0 0-.371-.277 1.3 1.3 0 0 0-.541-.107q-.421 0-.712.179-.29.175-.289.469 0 .234.187.396.188.162.644.26l1.184.239q.955.196 1.424.631.468.434.468 1.142 0 .643-.379 1.129-.375.486-1.031.758-.652.269-1.504.269-1.3 0-2.072-.541a2.1 2.1 0 0 1-.899-1.483l1.786-.094a.92.92 0 0 0 .392.605q.31.204.797.205.477 0 .767-.184.294-.187.298-.481a.5.5 0 0 0-.209-.405q-.204-.162-.63-.247l-1.134-.226q-.959-.191-1.427-.665-.465-.472-.465-1.206 0-.63.341-1.086.346-.456.967-.704.627-.246 1.466-.247 1.24 0 1.952.524.716.525.835 1.428m4.275 4.807q-1.01 0-1.738-.409a2.8 2.8 0 0 1-1.117-1.168q-.392-.759-.392-1.794 0-1.01.392-1.773a2.9 2.9 0 0 1 1.104-1.189q.716-.426 1.679-.426.648 0 1.206.209.563.204.98.618.422.414.656 1.04.235.622.235 1.457v.499h-5.527v-1.125h3.818q0-.392-.171-.695a1.2 1.2 0 0 0-.473-.473 1.35 1.35 0 0 0-.694-.175q-.414 0-.733.192-.315.188-.495.507a1.44 1.44 0 0 0-.183.703v1.07q0 .486.179.84.183.353.516.545.332.192.788.192.303 0 .554-.085t.431-.256a1.1 1.1 0 0 0 .272-.418l1.679.111q-.128.605-.524 1.057a2.6 2.6 0 0 1-1.014.699q-.618.246-1.428.247m4.189-.128v-6.545h1.76v1.142h.068q.18-.61.601-.921a1.58 1.58 0 0 1 .972-.315 2.6 2.6 0 0 1 .571.064v1.611a3 3 0 0 0-.767-.098q-.4 0-.716.174a1.3 1.3 0 0 0-.494.477q-.18.308-.179.708V143zm7.688 0v-6.545h1.815V143zm.912-7.389a1 1 0 0 1-.695-.269.87.87 0 0 1-.285-.652q0-.375.285-.643a.98.98 0 0 1 .695-.273q.405 0 .69.273.29.268.29.643a.86.86 0 0 1-.29.652.97.97 0 0 1-.69.269m4.173 3.605V143h-1.816v-6.545h1.73v1.154h.077a1.83 1.83 0 0 1 .729-.903q.511-.337 1.24-.337.682 0 1.189.299.507.298.788.852.281.55.281 1.312V143h-1.815v-3.844q.005-.6-.307-.937-.311-.341-.856-.341a1.3 1.3 0 0 0-.648.158q-.277.157-.435.46a1.6 1.6 0 0 0-.157.72m5.683 3.784v-8.727h1.816v3.281h.055q.12-.264.345-.537.23-.277.597-.46.37-.188.92-.188.716 0 1.321.375.606.37.968 1.121.362.746.362 1.871 0 1.095-.354 1.849-.35.75-.954 1.138a2.45 2.45 0 0 1-1.347.384q-.528 0-.899-.175a1.9 1.9 0 0 1-.601-.439 2.2 2.2 0 0 1-.358-.541h-.081V143zm1.777-3.273q0 .584.162 1.019t.469.677q.306.239.746.239.442 0 .75-.243.306-.247.464-.682.162-.438.162-1.01 0-.567-.158-.997a1.5 1.5 0 0 0-.464-.673 1.18 1.18 0 0 0-.754-.243q-.444 0-.75.234a1.47 1.47 0 0 0-.465.665 2.9 2.9 0 0 0-.162 1.014m8.775 3.401q-.993 0-1.717-.422a2.9 2.9 0 0 1-1.112-1.185q-.392-.763-.392-1.768 0-1.014.392-1.773a2.86 2.86 0 0 1 1.112-1.185q.724-.426 1.717-.426t1.713.426q.725.423 1.117 1.185.392.759.392 1.773 0 1.005-.392 1.768a2.9 2.9 0 0 1-1.117 1.185q-.72.422-1.713.422m.009-1.406q.452 0 .754-.256a1.6 1.6 0 0 0 .456-.707q.158-.448.158-1.019t-.158-1.018a1.6 1.6 0 0 0-.456-.708 1.12 1.12 0 0 0-.754-.26q-.456 0-.767.26a1.6 1.6 0 0 0-.465.708 3.1 3.1 0 0 0-.153 1.018q0 .571.153 1.019.158.447.465.707.31.256.767.256m5.676-5.267 1.202 2.288 1.231-2.288h1.863l-1.897 3.272 1.948 3.273h-1.854l-1.291-2.263-1.27 2.263h-1.875l1.943-3.273-1.875-3.272z"/><path fill="#0055DC" stroke="#0057E1" stroke-miterlimit="10" stroke-width=".541" d="M55.378 53v51.818h73.65V53zm36.757 30.301L58.058 54.437h68.29zm-6.148-3.331-29.168 22.634V55.259zm1.126.958 5.022 4.267 5.113-4.313 28.965 22.475h-68.02L87.09 80.928zm11.261-1.004L127.61 55.26v47.345z"/><path stroke="#0053ED" stroke-miterlimit="10" stroke-width="2.072" d="M47.45 91.885H33.98m13.47-12.94H27m20.45-12.937H33.98"/><path fill="#000" d="M245.247 127.783a1.08 1.08 0 0 0-.439-.801q-.388-.286-1.053-.286a2 2 0 0 0-.762.128 1.07 1.07 0 0 0-.478.345.83.83 0 0 0-.162.503.73.73 0 0 0 .098.409q.111.174.303.303.191.123.443.217.252.09.537.153l.784.188q.571.128 1.048.341t.827.524.541.733q.196.421.201.967-.005.801-.41 1.389-.4.585-1.159.908-.754.32-1.819.32-1.057 0-1.841-.324a2.7 2.7 0 0 1-1.219-.959q-.435-.639-.456-1.581h1.786q.03.44.251.733.226.29.601.439.38.144.856.145.47 0 .814-.137a1.25 1.25 0 0 0 .542-.379.88.88 0 0 0 .191-.558.73.73 0 0 0-.174-.494 1.3 1.3 0 0 0-.503-.341 5 5 0 0 0-.806-.256l-.95-.239q-1.104-.269-1.743-.839-.64-.572-.635-1.539-.004-.793.422-1.384.43-.593 1.181-.925.75-.333 1.704-.333.972 0 1.696.333.729.332 1.134.925.405.591.417 1.372zm6.078 6.345q-1.01 0-1.739-.409a2.8 2.8 0 0 1-1.117-1.168q-.392-.759-.392-1.794 0-1.01.392-1.773.393-.762 1.104-1.189.716-.426 1.679-.426.648 0 1.206.209.563.204.98.618.422.414.656 1.04.235.622.235 1.457v.499h-5.527v-1.125h3.818q0-.392-.17-.695a1.23 1.23 0 0 0-.473-.473 1.36 1.36 0 0 0-.695-.175q-.414 0-.733.192-.315.188-.494.507a1.43 1.43 0 0 0-.184.703v1.07q0 .486.179.84.184.353.516.545.333.192.788.192.303 0 .554-.085t.431-.256q.179-.17.273-.418l1.678.111a2.3 2.3 0 0 1-.524 1.057 2.6 2.6 0 0 1-1.014.699q-.618.246-1.427.247m7.146 0q-1.006 0-1.73-.426a2.9 2.9 0 0 1-1.108-1.193q-.384-.763-.384-1.756 0-1.006.388-1.764a2.9 2.9 0 0 1 1.112-1.189q.72-.43 1.713-.431.857 0 1.5.311.644.312 1.019.874t.413 1.321h-1.713a1.32 1.32 0 0 0-.383-.788q-.307-.303-.806-.303a1.22 1.22 0 0 0-.737.23q-.31.226-.486.661-.175.434-.175 1.052 0 .627.171 1.066.174.438.49.669.315.23.737.23.312 0 .558-.128.252-.128.414-.371.166-.247.217-.592h1.713q-.043.75-.409 1.321a2.47 2.47 0 0 1-1.001.886q-.64.32-1.513.32m8.283-2.915v-3.758h1.815V134h-1.743v-1.189h-.068a1.93 1.93 0 0 1-.737.925q-.511.35-1.249.349-.656 0-1.154-.298a2.05 2.05 0 0 1-.78-.848q-.277-.55-.282-1.317v-4.167h1.816v3.843q.004.58.311.916t.822.337q.329 0 .614-.149.286-.153.46-.452.18-.298.175-.737m3.267 2.787v-6.545h1.76v1.142h.068q.18-.61.601-.921.422-.315.972-.315a2.6 2.6 0 0 1 .571.064v1.611a3 3 0 0 0-.767-.098q-.4 0-.716.174a1.3 1.3 0 0 0-.494.477q-.18.308-.179.708V134zm7.589.128q-1.01 0-1.739-.409a2.8 2.8 0 0 1-1.116-1.168q-.393-.759-.392-1.794 0-1.01.392-1.773a2.9 2.9 0 0 1 1.103-1.189q.716-.426 1.679-.426.648 0 1.206.209.563.204.98.618.422.414.657 1.04.234.622.234 1.457v.499h-5.527v-1.125h3.818q0-.392-.17-.695a1.23 1.23 0 0 0-.473-.473 1.36 1.36 0 0 0-.695-.175q-.413 0-.733.192-.315.188-.494.507a1.43 1.43 0 0 0-.183.703v1.07q0 .486.179.84.183.353.515.545.333.192.789.192.302 0 .554-.085.251-.086.43-.256.178-.17.273-.418l1.679.111q-.128.605-.525 1.057a2.6 2.6 0 0 1-1.014.699q-.618.246-1.427.247m9.949 0q-1.01 0-1.739-.409a2.8 2.8 0 0 1-1.116-1.168q-.392-.759-.392-1.794 0-1.01.392-1.773a2.9 2.9 0 0 1 1.104-1.189q.715-.426 1.679-.426.647 0 1.205.209.563.204.981.618.422.414.656 1.04.234.622.234 1.457v.499h-5.527v-1.125h3.818q0-.392-.17-.695a1.2 1.2 0 0 0-.473-.473 1.35 1.35 0 0 0-.695-.175q-.413 0-.733.192-.315.188-.494.507a1.44 1.44 0 0 0-.183.703v1.07q0 .486.179.84.183.353.515.545.333.192.789.192.302 0 .554-.085.251-.086.43-.256.178-.17.273-.418l1.679.111q-.128.605-.524 1.057a2.65 2.65 0 0 1-1.014.699q-.618.246-1.428.247m4.189-.128v-6.545h1.73v1.154h.077q.204-.575.682-.907.476-.333 1.142-.333.673 0 1.146.337.472.333.631.903h.068q.2-.562.724-.899.529-.34 1.249-.341.916 0 1.487.584.575.58.575 1.645V134h-1.811v-4.044q0-.546-.29-.818a1 1 0 0 0-.724-.273q-.495 0-.771.315-.277.312-.277.823V134h-1.76v-4.082q0-.482-.277-.767-.273-.286-.72-.286-.303 0-.546.153-.238.15-.379.422a1.34 1.34 0 0 0-.141.631V134zm12.812.124q-.627 0-1.117-.218a1.8 1.8 0 0 1-.775-.652q-.282-.434-.282-1.082 0-.546.201-.916.2-.37.545-.597.346-.225.784-.341a6 6 0 0 1 .929-.162q.572-.06.921-.111.35-.054.507-.161a.36.36 0 0 0 .157-.316v-.025q0-.405-.255-.627-.252-.221-.716-.221-.49 0-.78.217a1 1 0 0 0-.384.537l-1.679-.137q.129-.596.503-1.031.375-.439.968-.673.596-.239 1.38-.239.546 0 1.044.128.503.127.891.396.392.269.618.691.226.417.226 1.001V134h-1.722v-.908h-.051a1.9 1.9 0 0 1-.422.542 2 2 0 0 1-.635.362 2.6 2.6 0 0 1-.856.128m.52-1.253q.4 0 .707-.158.306-.162.481-.435.175-.272.175-.617v-.695a1 1 0 0 1-.234.102 4 4 0 0 1-.328.081q-.183.034-.367.064l-.332.047a2.2 2.2 0 0 0-.558.149.9.9 0 0 0-.371.277.68.68 0 0 0-.132.426q0 .37.268.567.273.192.691.192m4.574 1.129v-6.545h1.815V134zm.912-7.389a1 1 0 0 1-.695-.269.87.87 0 0 1-.285-.652q0-.375.285-.643a.98.98 0 0 1 .695-.273q.405 0 .69.273.29.268.29.643a.86.86 0 0 1-.29.652.97.97 0 0 1-.69.269m4.173-1.338V134h-1.815v-8.727zm-57.185 26.318q-.882 0-1.513-.243-.626-.238-.997-.652a2 2 0 0 1-.481-.929l1.679-.226q.076.196.243.367t.438.272q.278.107.674.107.592 0 .976-.29.387-.285.387-.959v-1.197h-.076a1.74 1.74 0 0 1-.972.912q-.375.153-.895.153-.737 0-1.342-.341-.601-.345-.959-1.052-.354-.712-.354-1.799 0-1.112.363-1.857.362-.747.963-1.117a2.5 2.5 0 0 1 1.325-.371q.55 0 .92.188.371.183.597.46.23.273.354.537h.068v-1.099h1.802v6.609q0 .835-.409 1.398-.408.563-1.133.843-.72.286-1.658.286m.039-4.048q.438 0 .741-.218.307-.221.469-.63.166-.414.166-.989 0-.576-.162-.997a1.46 1.46 0 0 0-.469-.661 1.2 1.2 0 0 0-.745-.234q-.448 0-.755.243-.306.238-.464.665a2.8 2.8 0 0 0-.158.984q0 .567.158.98.162.409.464.635.307.222.755.222m6.473 1.581q-.627 0-1.117-.218a1.8 1.8 0 0 1-.776-.652q-.28-.434-.281-1.082 0-.546.201-.916.2-.37.545-.597.345-.225.784-.341a6 6 0 0 1 .929-.162q.572-.06.92-.111.35-.054.508-.161a.36.36 0 0 0 .157-.316v-.025q0-.405-.255-.627-.252-.221-.716-.221-.49 0-.78.217a1 1 0 0 0-.384.537l-1.679-.137q.128-.596.503-1.031.375-.439.968-.673.596-.239 1.38-.239.546 0 1.044.128.502.127.891.396.391.269.618.691.226.417.226 1.001V149h-1.722v-.908h-.051a1.9 1.9 0 0 1-.422.542 2 2 0 0 1-.635.362 2.6 2.6 0 0 1-.856.128m.519-1.253q.4 0 .708-.158.307-.162.481-.435.175-.272.175-.617v-.695a1 1 0 0 1-.234.102 4 4 0 0 1-.328.081 17 17 0 0 1-.367.064l-.332.047a2.3 2.3 0 0 0-.559.149.9.9 0 0 0-.37.277.68.68 0 0 0-.132.426q0 .37.268.567.273.192.69.192m8.057-5.416v1.363H268.7v-1.363zm-3.047-1.569h1.815v6.103a.8.8 0 0 0 .077.392.42.42 0 0 0 .213.191.9.9 0 0 0 .324.056q.128 0 .255-.021l.196-.039.286 1.351a5 5 0 0 1-.384.098q-.246.06-.601.072-.656.026-1.15-.174a1.6 1.6 0 0 1-.763-.622q-.273-.423-.268-1.066zm7.142 8.242q-1.01 0-1.739-.409a2.8 2.8 0 0 1-1.116-1.168q-.392-.759-.392-1.794 0-1.01.392-1.773a2.9 2.9 0 0 1 1.103-1.189q.716-.426 1.679-.426.648 0 1.206.209.563.204.98.618.422.414.657 1.04.234.622.234 1.457v.499h-5.527v-1.125h3.818q0-.392-.17-.695a1.23 1.23 0 0 0-.473-.473 1.36 1.36 0 0 0-.695-.175q-.413 0-.733.192-.315.188-.494.507-.18.316-.183.703v1.07q0 .486.179.84.183.353.515.545.333.192.789.192.302 0 .553-.085t.431-.256q.178-.17.273-.418l1.679.111q-.128.605-.525 1.057a2.6 2.6 0 0 1-1.014.699q-.618.246-1.427.247m5.433-.128-1.781-6.545h1.836l1.015 4.397h.059l1.057-4.397h1.803l1.073 4.372h.056l.997-4.372h1.832L288.34 149h-1.921l-1.125-4.116h-.081L284.088 149zm10.782.124q-.626 0-1.116-.218a1.8 1.8 0 0 1-.776-.652q-.28-.434-.281-1.082 0-.546.2-.916.201-.37.546-.597.345-.225.784-.341.443-.115.929-.162.57-.06.92-.111.35-.054.507-.161a.36.36 0 0 0 .158-.316v-.025q0-.405-.256-.627-.25-.221-.716-.221-.49 0-.779.217a1 1 0 0 0-.384.537l-1.679-.137q.128-.596.503-1.031.375-.439.967-.673.597-.239 1.381-.239.546 0 1.044.128.502.127.891.396.392.269.617.691.226.417.226 1.001V149h-1.721v-.908h-.051a1.9 1.9 0 0 1-.422.542 2 2 0 0 1-.635.362 2.6 2.6 0 0 1-.857.128m.52-1.253q.4 0 .708-.158.306-.162.481-.435.175-.272.175-.617v-.695a1 1 0 0 1-.235.102 4 4 0 0 1-.328.081q-.183.034-.366.064l-.333.047a2.2 2.2 0 0 0-.558.149.9.9 0 0 0-.371.277.68.68 0 0 0-.132.426q0 .37.269.567.273.192.69.192m5.461 3.584q-.345 0-.648-.056a2.4 2.4 0 0 1-.494-.132l.409-1.355q.32.098.575.106a.73.73 0 0 0 .448-.119q.191-.127.311-.435l.106-.276-2.348-6.733h1.91l1.355 4.806h.068l1.368-4.806h1.922l-2.544 7.252a3.1 3.1 0 0 1-.499.921q-.31.396-.788.609-.478.218-1.151.218m239.153-17.182h2.275l2.404 5.863h.102l2.403-5.863h2.276V143h-1.79v-5.68h-.072l-2.259 5.637h-1.219l-2.258-5.659h-.073V143h-1.789zM549.032 143v-6.545h1.815V143zm.912-7.389a1 1 0 0 1-.695-.269.87.87 0 0 1-.285-.652q0-.375.285-.643a.98.98 0 0 1 .695-.273q.405 0 .69.273.29.268.29.643a.86.86 0 0 1-.29.652.97.97 0 0 1-.69.269m5.315 7.517q-1.005 0-1.73-.426a2.9 2.9 0 0 1-1.108-1.193q-.384-.763-.384-1.756 0-1.006.388-1.764a2.9 2.9 0 0 1 1.112-1.189q.72-.43 1.713-.431.857 0 1.5.311.644.312 1.019.874t.413 1.321h-1.713a1.32 1.32 0 0 0-.383-.788q-.307-.303-.806-.303a1.22 1.22 0 0 0-.737.23q-.31.226-.486.661-.174.434-.174 1.052 0 .627.17 1.066.174.438.49.669.315.23.737.23.312 0 .559-.128a1.1 1.1 0 0 0 .413-.371q.166-.247.217-.592h1.713q-.043.75-.409 1.321a2.47 2.47 0 0 1-1.001.886q-.64.32-1.513.32m4.086-.128v-6.545h1.759v1.142h.069q.178-.61.601-.921a1.58 1.58 0 0 1 .971-.315 2.6 2.6 0 0 1 .571.064v1.611a3 3 0 0 0-.767-.098q-.4 0-.716.174a1.3 1.3 0 0 0-.494.477 1.4 1.4 0 0 0-.179.708V143zm7.562.128q-.993 0-1.717-.422a2.9 2.9 0 0 1-1.112-1.185q-.392-.763-.392-1.768 0-1.014.392-1.773a2.86 2.86 0 0 1 1.112-1.185q.724-.426 1.717-.426t1.713.426q.725.423 1.117 1.185.392.759.392 1.773 0 1.005-.392 1.768a2.9 2.9 0 0 1-1.117 1.185q-.72.422-1.713.422m.009-1.406q.451 0 .754-.256a1.6 1.6 0 0 0 .456-.707q.158-.448.158-1.019t-.158-1.018a1.6 1.6 0 0 0-.456-.708 1.12 1.12 0 0 0-.754-.26q-.456 0-.767.26a1.6 1.6 0 0 0-.465.708 3.1 3.1 0 0 0-.153 1.018q0 .571.153 1.019.158.447.465.707.31.256.767.256m9.839-3.401-1.662.102a.85.85 0 0 0-.183-.383 1 1 0 0 0-.37-.277 1.3 1.3 0 0 0-.542-.107q-.421 0-.711.179-.29.175-.29.469 0 .234.187.396.188.162.644.26l1.185.239q.954.196 1.423.631.468.434.469 1.142 0 .643-.38 1.129-.375.486-1.031.758-.652.269-1.504.269-1.3 0-2.071-.541a2.1 2.1 0 0 1-.899-1.483l1.785-.094a.92.92 0 0 0 .392.605q.311.204.797.205.477 0 .767-.184.295-.187.298-.481a.5.5 0 0 0-.208-.405q-.205-.162-.631-.247l-1.134-.226q-.959-.191-1.427-.665-.465-.472-.465-1.206 0-.63.341-1.086.345-.456.968-.704.626-.246 1.465-.247 1.24 0 1.952.524.716.525.835 1.428m4.25 4.807q-.993 0-1.717-.422a2.9 2.9 0 0 1-1.112-1.185q-.393-.763-.393-1.768 0-1.014.393-1.773a2.86 2.86 0 0 1 1.112-1.185q.724-.426 1.717-.426t1.713.426q.724.423 1.117 1.185.392.759.392 1.773 0 1.005-.392 1.768a2.9 2.9 0 0 1-1.117 1.185q-.72.422-1.713.422m.009-1.406q.451 0 .754-.256a1.6 1.6 0 0 0 .456-.707q.157-.448.157-1.019t-.157-1.018a1.6 1.6 0 0 0-.456-.708 1.12 1.12 0 0 0-.754-.26q-.456 0-.767.26-.308.26-.465.708a3.1 3.1 0 0 0-.153 1.018q0 .571.153 1.019.157.447.465.707.31.256.767.256m7.913-5.267v1.363h-4.04v-1.363zM585.812 143v-7.018q0-.712.277-1.181.28-.469.767-.703a2.5 2.5 0 0 1 1.104-.234q.417 0 .762.064.35.063.52.115l-.324 1.363a3 3 0 0 0-.264-.064 1.6 1.6 0 0 0-.315-.03q-.4 0-.558.188-.158.183-.158.516V143zm7.705-6.545v1.363h-3.941v-1.363zm-3.046-1.569h1.815v6.103a.8.8 0 0 0 .077.392.42.42 0 0 0 .213.191.9.9 0 0 0 .324.056q.127 0 .255-.021l.196-.039.286 1.351a5 5 0 0 1-.384.098q-.246.06-.601.072-.656.026-1.15-.174a1.6 1.6 0 0 1-.763-.622q-.273-.423-.268-1.066zm10.215 8.233q-.954 0-1.7-.328-.741-.332-1.172-.912a2.3 2.3 0 0 1-.439-1.346h1.858q.017.32.209.562.196.239.52.371t.728.132q.423 0 .746-.149.324-.15.507-.413.183-.265.184-.61a1.02 1.02 0 0 0-.197-.618 1.24 1.24 0 0 0-.553-.426 2.2 2.2 0 0 0-.853-.153h-.814v-1.355h.814q.418 0 .737-.145.324-.145.503-.401.18-.26.179-.605a1.04 1.04 0 0 0-.592-.967 1.4 1.4 0 0 0-.648-.141q-.374 0-.686.136a1.2 1.2 0 0 0-.498.38 1 1 0 0 0-.201.579h-1.768q.013-.754.43-1.329a2.8 2.8 0 0 1 1.125-.899 3.8 3.8 0 0 1 1.607-.329q.903 0 1.581.329.677.328 1.052.886.38.554.375 1.244.005.734-.456 1.223-.456.49-1.189.622v.069q.963.123 1.466.669.507.54.503 1.355.004.746-.43 1.325-.431.579-1.189.912-.758.332-1.739.332m8.034 0a4 4 0 0 1-1.3-.226 2.9 2.9 0 0 1-1.116-.72q-.495-.498-.784-1.321-.286-.822-.286-2.02.005-1.099.252-1.964.251-.87.715-1.475.47-.605 1.121-.92a3.3 3.3 0 0 1 1.462-.32q.873 0 1.542.341.669.337 1.074.917.41.579.495 1.299h-1.82a1.22 1.22 0 0 0-.447-.716q-.342-.26-.844-.26-.852 0-1.296.742-.438.741-.447 2.015h.06q.195-.387.528-.66a2.4 2.4 0 0 1 .763-.422 2.8 2.8 0 0 1 .907-.149q.776 0 1.381.366.606.362.955.998.35.634.349 1.453 0 .886-.413 1.576a2.87 2.87 0 0 1-1.147 1.083q-.732.387-1.704.383m-.009-1.449a1.44 1.44 0 0 0 1.292-.758 1.6 1.6 0 0 0 .191-.784q0-.435-.191-.78a1.42 1.42 0 0 0-1.279-.754q-.32 0-.592.119a1.5 1.5 0 0 0-.789.827 1.5 1.5 0 0 0-.115.592q0 .422.192.771.196.35.529.559.336.208.762.208m7.769 1.449q-.903 0-1.611-.332a2.8 2.8 0 0 1-1.116-.916 2.35 2.35 0 0 1-.431-1.338h1.79q.03.507.426.822t.942.315q.434 0 .767-.191.336-.196.524-.541a1.64 1.64 0 0 0 .192-.802q0-.46-.196-.809a1.4 1.4 0 0 0-.533-.546 1.6 1.6 0 0 0-.78-.2 1.85 1.85 0 0 0-.745.158 1.35 1.35 0 0 0-.559.43l-1.64-.294.413-4.602h5.335v1.508h-3.814l-.226 2.186h.052q.23-.324.694-.537.465-.213 1.04-.213.788 0 1.406.371.618.37.976 1.019.359.643.354 1.482a2.96 2.96 0 0 1-.409 1.569 2.9 2.9 0 0 1-1.147 1.074q-.732.387-1.704.387m-93.773-61.412a1 1 0 0 0 0-1.414l-6.364-6.364a1 1 0 1 0-1.414 1.414L520.586 81l-5.657 5.657a1 1 0 1 0 1.414 1.414zM522 80h-66v2h66z"/><g clip-path="url(#clip0_0_1)"><path fill="url(#paint0_radial_0_1)" d="m569.873 42.819-.399.24a14 14 0 0 0-1.79 1.28l1.15-.808h9.764l1.775 13.424-8.875 8.863-8.875 6.161v7.104a14.18 14.18 0 0 0 6.847 12.133l9.343 5.648-19.74 11.5h-3.807l-7.096-4.29a14.18 14.18 0 0 1-6.847-12.132v-23.89c0-4.963 2.598-9.565 6.851-12.134l21.3-12.867q.198-.12.399-.232"/><path fill="url(#paint1_linear_0_1)" d="m569.873 42.819-.399.24a14 14 0 0 0-1.79 1.28l1.15-.808h9.764l1.775 13.424-8.875 8.863-8.875 6.161v7.104a14.18 14.18 0 0 0 6.847 12.133l9.343 5.648-19.74 11.5h-3.807l-7.096-4.29a14.18 14.18 0 0 1-6.847-12.132v-23.89c0-4.963 2.598-9.565 6.851-12.134l21.3-12.867q.198-.12.399-.232"/><path fill="url(#paint2_radial_0_1)" d="M591.023 71.137v7.942c0 4.962-2.596 9.563-6.847 12.132l-21.3 12.877a14.22 14.22 0 0 1-14.212.285l20.806 12.578a14.21 14.21 0 0 0 14.706 0l21.3-12.877a14.18 14.18 0 0 0 6.847-12.132v-5.737l-1.775-2.66z"/><path fill="url(#paint3_linear_0_1)" d="M591.023 71.137v7.942c0 4.962-2.596 9.563-6.847 12.132l-21.3 12.877a14.22 14.22 0 0 1-14.212.285l20.806 12.578a14.21 14.21 0 0 0 14.706 0l21.3-12.877a14.18 14.18 0 0 0 6.847-12.132v-5.737l-1.775-2.66z"/><path fill="url(#paint4_radial_0_1)" d="m605.473 55.918-21.3-12.867a14.22 14.22 0 0 0-14.276-.246l-.423.255a14.18 14.18 0 0 0-6.851 12.135v16.812l6.851-4.138a14.22 14.22 0 0 1 14.699 0l21.3 12.867a14.18 14.18 0 0 1 6.843 11.67q.007-.231.007-.464v-23.89c0-4.963-2.598-9.565-6.85-12.134"/><path fill="url(#paint5_linear_0_1)" d="m605.473 55.918-21.3-12.867a14.22 14.22 0 0 0-14.276-.246l-.423.255a14.18 14.18 0 0 0-6.851 12.135v16.812l6.851-4.138a14.22 14.22 0 0 1 14.699 0l21.3 12.867a14.18 14.18 0 0 1 6.843 11.67q.007-.231.007-.464v-23.89c0-4.963-2.598-9.565-6.85-12.134"/></g><path fill="#000" d="M697.975 81.9a1 1 0 0 0 0-1.414l-6.364-6.364a1 1 0 1 0-1.414 1.414l5.657 5.657-5.657 5.657a1 1 0 1 0 1.414 1.414zm-.707-1.707h-66v2h66zM156.384 98.41h2.275l2.403 5.863h.103l2.403-5.864h2.276v8.727h-1.79v-5.68h-.072l-2.259 5.638h-1.219l-2.258-5.659h-.073v5.701h-1.789zm12.71 0 1.76 2.974h.068l1.769-2.975h2.084l-2.664 4.364 2.723 4.363h-2.122l-1.79-2.978h-.068l-1.79 2.978h-2.113l2.731-4.363-2.68-4.364zm9.591 8.726v-6.545h1.76v1.142h.068q.18-.61.601-.92.422-.316.972-.316.137 0 .294.017t.277.047v1.611a2.3 2.3 0 0 0-.354-.068q-.225-.03-.413-.03-.4 0-.716.175a1.3 1.3 0 0 0-.494.477q-.18.307-.179.707v3.703zm7.589.128q-1.01 0-1.739-.409a2.8 2.8 0 0 1-1.116-1.167q-.393-.759-.392-1.794 0-1.011.392-1.773a2.9 2.9 0 0 1 1.103-1.189q.716-.426 1.679-.426.648 0 1.206.209.563.204.98.617.422.414.657 1.04.234.622.234 1.458v.498h-5.527v-1.125h3.818q0-.392-.17-.694a1.2 1.2 0 0 0-.473-.473 1.35 1.35 0 0 0-.695-.175q-.413 0-.733.192-.315.188-.494.507-.179.315-.183.703v1.069q0 .486.179.84.183.354.515.545.333.192.789.192.302 0 .554-.085.251-.085.43-.256a1.1 1.1 0 0 0 .273-.417l1.679.11q-.129.606-.524 1.057-.393.448-1.015.699-.618.247-1.427.247m7.146 0q-1.005 0-1.73-.426a2.9 2.9 0 0 1-1.108-1.193q-.383-.763-.383-1.756 0-1.005.387-1.764a2.9 2.9 0 0 1 1.113-1.189q.72-.43 1.713-.43.857 0 1.5.311.643.31 1.018.873t.413 1.321h-1.713a1.32 1.32 0 0 0-.383-.788q-.307-.303-.806-.302-.422 0-.737.23-.31.225-.486.66-.174.435-.174 1.053 0 .626.17 1.065.175.44.49.669t.737.23q.312 0 .559-.128.25-.127.413-.37a1.4 1.4 0 0 0 .217-.593h1.713a2.67 2.67 0 0 1-.409 1.321 2.47 2.47 0 0 1-1.001.887q-.64.32-1.513.319m7.043 0q-.993 0-1.717-.422a2.9 2.9 0 0 1-1.112-1.184q-.393-.763-.393-1.769 0-1.014.393-1.772a2.85 2.85 0 0 1 1.112-1.185q.724-.426 1.717-.426t1.713.426q.724.421 1.117 1.185.392.758.392 1.772 0 1.006-.392 1.769-.393.758-1.117 1.184-.72.422-1.713.422m.009-1.406q.451 0 .754-.256a1.6 1.6 0 0 0 .456-.707q.157-.448.157-1.018 0-.572-.157-1.019a1.6 1.6 0 0 0-.456-.707 1.1 1.1 0 0 0-.754-.26q-.456 0-.767.26-.308.26-.465.707a3.1 3.1 0 0 0-.153 1.019q0 .57.153 1.018.157.447.465.707.31.256.767.256m4.393 1.278v-6.545h1.76v1.142h.068q.18-.61.601-.92.422-.316.972-.316.137 0 .294.017t.277.047v1.611a2.4 2.4 0 0 0-.354-.068 3 3 0 0 0-.413-.03q-.4 0-.716.175a1.3 1.3 0 0 0-.495.477q-.179.307-.179.707v3.703zm7.017.107q-.745 0-1.35-.384-.601-.387-.955-1.137-.35-.755-.349-1.85 0-1.125.362-1.87.362-.75.963-1.121.605-.375 1.325-.375.55 0 .916.187.371.183.597.461.23.272.349.536h.056v-3.28h1.811v8.726h-1.79v-1.048h-.077a2.3 2.3 0 0 1-.362.541 1.8 1.8 0 0 1-.601.439q-.366.175-.895.175m.576-1.445q.439 0 .741-.238a1.5 1.5 0 0 0 .469-.678 2.8 2.8 0 0 0 .166-1.018q0-.584-.162-1.014a1.45 1.45 0 0 0-.469-.665 1.2 1.2 0 0 0-.745-.235q-.448 0-.755.243a1.5 1.5 0 0 0-.464.674 2.9 2.9 0 0 0-.158.997q0 .57.158 1.01.162.434.464.682.307.242.755.242"/><circle cx="375.866" cy="81.609" r="65.609" stroke="#F6821F" stroke-width="2"/><rect width="107.844" height="52.019" x="321.944" y="134.263" fill="#fff" rx="20.5"/><path fill="#222" d="M354.267 151.547h-1.866a1.8 1.8 0 0 0-.209-.644 1.6 1.6 0 0 0-.405-.485 1.8 1.8 0 0 0-.571-.307 2.2 2.2 0 0 0-.694-.107q-.678 0-1.181.337-.503.332-.78.971-.276.636-.277 1.543 0 .933.277 1.568.281.636.785.959a2.1 2.1 0 0 0 1.163.324q.37 0 .686-.098.32-.098.567-.286.246-.19.409-.464.166-.273.23-.622l1.866.008a3.4 3.4 0 0 1-.362 1.159q-.285.555-.771.993a3.6 3.6 0 0 1-1.151.691 4.2 4.2 0 0 1-1.504.251q-1.167 0-2.088-.528-.916-.53-1.449-1.53-.528-1.002-.528-2.425 0-1.428.537-2.429t1.457-1.525q.92-.53 2.071-.529.758 0 1.406.213.653.213 1.155.622.503.405.818.993.32.588.409 1.347m3.105-3.056v8.728h-1.816v-8.728zm4.411 8.856q-.993 0-1.717-.422a2.9 2.9 0 0 1-1.112-1.185q-.392-.763-.392-1.768 0-1.015.392-1.773a2.85 2.85 0 0 1 1.112-1.185q.724-.426 1.717-.426t1.713.426a2.84 2.84 0 0 1 1.117 1.185q.392.758.392 1.773 0 1.005-.392 1.768a2.9 2.9 0 0 1-1.117 1.185q-.72.422-1.713.422m.009-1.407q.451 0 .754-.255.303-.26.456-.708.158-.447.158-1.018t-.158-1.019a1.6 1.6 0 0 0-.456-.707 1.12 1.12 0 0 0-.754-.26q-.456 0-.767.26-.308.26-.465.707a3.2 3.2 0 0 0-.153 1.019q0 .57.153 1.018.158.448.465.708.31.255.767.255m8.591-1.508v-3.759h1.815v6.546h-1.743v-1.189h-.068a1.94 1.94 0 0 1-.737.925q-.511.349-1.249.349-.656 0-1.155-.298a2.05 2.05 0 0 1-.779-.848q-.278-.55-.282-1.317v-4.168h1.816v3.844q.004.58.311.916.306.337.822.337.329 0 .614-.149.285-.154.46-.452.179-.299.175-.737m5.679 2.893q-.745 0-1.351-.383-.6-.388-.954-1.138-.35-.754-.35-1.849 0-1.125.363-1.871.362-.75.963-1.121.605-.375 1.325-.375.55 0 .916.188.37.183.597.46.23.273.349.537h.055v-3.282h1.812v8.728h-1.79v-1.049h-.077a2.3 2.3 0 0 1-.362.542 1.8 1.8 0 0 1-.601.439q-.367.174-.895.174m.575-1.444q.44 0 .742-.239.307-.243.469-.678.166-.434.166-1.018t-.162-1.014a1.45 1.45 0 0 0-.469-.665 1.2 1.2 0 0 0-.746-.234q-.447 0-.754.243a1.5 1.5 0 0 0-.464.673 2.9 2.9 0 0 0-.158.997q0 .571.158 1.01.161.435.464.682.307.243.754.243m8.162-5.208v1.364h-4.04v-1.364zm-3.115 6.546V150.2q0-.712.277-1.18.28-.47.767-.703a2.5 2.5 0 0 1 1.104-.235q.417 0 .762.064.35.064.52.115l-.324 1.364a2 2 0 0 0-.264-.064 1.6 1.6 0 0 0-.315-.03q-.4 0-.558.188-.158.183-.158.515v6.985zm6.039-8.728v8.728h-1.815v-8.728zm3.321 8.851a2.7 2.7 0 0 1-1.116-.217 1.8 1.8 0 0 1-.776-.652q-.281-.435-.281-1.082 0-.546.2-.917a1.6 1.6 0 0 1 .545-.596q.346-.226.785-.341.443-.116.929-.162.57-.06.92-.111.35-.055.507-.162a.36.36 0 0 0 .158-.315v-.026q0-.405-.256-.626-.251-.222-.716-.222-.49 0-.78.218a1 1 0 0 0-.383.537l-1.679-.137q.128-.596.503-1.031.375-.44.967-.673.597-.239 1.381-.239.544 0 1.044.128.503.128.89.396.393.268.618.691.226.417.226 1.001v4.415h-1.721v-.908h-.052a1.8 1.8 0 0 1-.421.541 2 2 0 0 1-.635.362 2.6 2.6 0 0 1-.857.128m.52-1.253q.4 0 .707-.157.307-.162.482-.435t.175-.618v-.694a1 1 0 0 1-.235.102 5 5 0 0 1-.328.081q-.183.034-.366.064l-.333.047a2.2 2.2 0 0 0-.558.149.9.9 0 0 0-.371.277.67.67 0 0 0-.132.426q0 .37.269.567.272.191.69.191m4.574 1.13v-6.546h1.76v1.142h.069q.178-.61.6-.92.423-.315.972-.315a2.6 2.6 0 0 1 .571.063v1.611a2.5 2.5 0 0 0-.354-.068q-.225-.03-.413-.03-.4 0-.716.175a1.3 1.3 0 0 0-.494.477q-.18.308-.179.708v3.703zm7.589.128q-1.01 0-1.739-.409a2.8 2.8 0 0 1-1.116-1.168q-.393-.759-.392-1.794 0-1.01.392-1.773a2.9 2.9 0 0 1 1.103-1.189q.716-.426 1.679-.426.648 0 1.206.209.563.204.981.618.422.413.656 1.04.234.621.234 1.457v.499h-5.527v-1.125h3.818q0-.392-.17-.695a1.2 1.2 0 0 0-.473-.473 1.34 1.34 0 0 0-.695-.175q-.413 0-.733.192-.315.188-.494.507-.179.315-.183.703v1.07q0 .486.179.839.183.354.515.546.333.192.789.191.302 0 .554-.085a1.2 1.2 0 0 0 .43-.255q.178-.17.273-.418l1.679.111q-.128.604-.524 1.057-.393.447-1.015.698-.617.248-1.427.248"/><path fill="#F38020" d="M387.78 91.618c.383-1.313.237-2.516-.401-3.41-.584-.82-1.568-1.294-2.753-1.349l-22.438-.291a.42.42 0 0 1-.346-.183.5.5 0 0 1-.055-.4.62.62 0 0 1 .529-.402l22.639-.291c2.679-.128 5.595-2.298 6.616-4.96l1.294-3.372a.73.73 0 0 0 .037-.438C391.443 69.922 385.556 65 378.52 65c-6.489 0-11.993 4.193-13.962 10.01a6.7 6.7 0 0 0-4.648-1.295 6.64 6.64 0 0 0-5.924 5.925 7 7 0 0 0 .164 2.315 9.42 9.42 0 0 0-9.15 9.426c0 .456.036.912.091 1.367a.45.45 0 0 0 .438.383h41.412a.56.56 0 0 0 .529-.401z"/><path fill="#FAAE40" d="M394.925 77.197c-.201 0-.419 0-.62.018-.146 0-.273.11-.328.255l-.875 3.045c-.383 1.313-.237 2.516.401 3.41.584.82 1.568 1.294 2.753 1.348l4.775.292c.146 0 .274.073.346.182.073.11.092.274.055.401a.61.61 0 0 1-.528.401l-4.977.292c-2.697.128-5.595 2.297-6.616 4.96l-.365.929c-.073.182.055.365.256.365h17.097c.2 0 .383-.128.437-.329a12.5 12.5 0 0 0 .456-3.318c0-6.745-5.505-12.251-12.267-12.251"/><path fill="#B8E9F4" d="M319.453 51.36h-74.174v51.243h74.174z"/><path fill="#fff" d="M314.689 54.87h-64.627v42.866h64.627z"/><path fill="#B8E9F4" d="m282.252 82.025-36.355-30.73h72.71z"/><path fill="#fff" d="M256.826 55.432h50.851l-25.426 21.162z"/><path fill="#0057E1" d="M320.772 104.001H244V50h76.772zm-75.287-1.504h73.802V51.504h-73.802z"/><path fill="#0057E1" d="m282.294 83.55-38.046-32.233.969-1.149 37.077 31.42 37.241-31.42.97 1.15z"/><path fill="#0057E1" d="m276.597 77.548-32.32 25.069.903 1.194 32.32-25.07zm11.563.032-.903 1.193 32.316 25.075.903-1.194z"/><path fill="#BBECF7" d="M316.813 117.748c-.701-.355-17.012-8.816-17.012-26.175V76.74l4.165-.606c6.95-1.003 11.218-5.474 11.424-5.683l3.588-4.073 3.63 4.094s4.33 4.638 11.403 5.662l4.166.605v14.833c0 17.359-16.312 25.82-17.013 26.175l-2.165 1.107-2.165-1.107z"/><path fill="#0053ED" d="m318.999 119.693-2.496-1.275c-.721-.355-17.424-9.024-17.424-26.844v-15.48l4.804-.689c6.723-.982 10.806-5.285 10.991-5.452l4.125-4.68 4.186 4.722s4.206 4.45 10.949 5.431l4.805.69v15.48c0 17.819-16.724 26.488-17.425 26.843l-2.495 1.275zm-18.436-42.282v14.163c0 16.901 15.92 25.152 16.6 25.507l1.836.94 1.835-.94c.68-.334 16.6-8.586 16.6-25.507V77.411l-3.526-.502c-7.321-1.065-11.816-5.87-11.858-5.912l-3.072-3.467-3.031 3.447c-.207.208-4.64 4.888-11.878 5.932l-3.526.502z"/><path fill="#fff" d="m318.999 113.258-.536-.271c-.557-.293-13.734-7.124-13.734-20.953V81.359l1.011-.147c7.753-1.128 12.311-6.183 12.352-6.225l.887-1.003.886 1.003s4.599 5.097 12.352 6.225l1.011.147v10.675c0 13.829-13.177 20.66-13.734 20.953l-.536.271z"/><path fill="#FF7100" d="m316.772 101.914-7.403-6.957 1.34-1.483 5.836 5.473 10.208-13.119 1.546 1.254z"/><path fill="#0A2767" d="M799.378 81.24a1.84 1.84 0 0 0-.877-1.58h-.01l-.034-.02-28.53-16.884a3.83 3.83 0 0 0-4.277 0L737.12 79.64l-.034.019a1.858 1.858 0 0 0 .044 3.184l28.529 16.885q.186.123.383.227a3.83 3.83 0 0 0 3.895-.227l28.53-16.885c.57-.333.917-.945.911-1.605"/><path fill="#0364B8" d="M740.422 69.953h18.745v17.173h-18.745zm55.168-17.457V44.64a3.56 3.56 0 0 0-3.476-3.64h-48.642a3.56 3.56 0 0 0-3.475 3.64v7.856l28.755 7.664z"/><path fill="#0078D4" d="M739.996 52.498h19.208v17.179h-19.208z"/><path fill="#28A8EA" d="M778.355 52.498h-19.151v17.246l19.151 17.247h17.236V69.744z"/><path fill="#0078D4" d="M759.204 69.677h19.072V86.99h-19.072z"/><path fill="#0364B8" d="M759.204 86.991h19.072v17.179h-19.072z"/><path fill="#14447D" d="M740.401 87.127h18.802v15.555h-18.802z"/><path fill="#0078D4" d="M778.276 86.991h17.315v17.179h-17.315z"/><path fill="url(#paint6_linear_0_1)" d="m798.501 82.674-.036.02-28.522 16.048c-.125.076-.251.15-.383.214a4 4 0 0 1-1.547.383l-1.558-.911a4 4 0 0 1-.383-.22l-28.905-16.505h-.013l-.946-.528v32.487a3.926 3.926 0 0 0 3.949 3.9h55.333c.033 0 .062-.016.096-.016a4.8 4.8 0 0 0 1.34-.279q.28-.119.538-.28a3.87 3.87 0 0 0 1.914-3.325V81.175a1.73 1.73 0 0 1-.877 1.5"/><path fill="#0A2767" d="M797.89 81.111v1.99l-29.898 20.528-30.954-21.848q-.001-.017-.019-.019l-2.84-1.703v-1.435l1.171-.02 2.475 1.417.058.019.211.134s29.092 16.553 29.169 16.59l1.113.651c.096-.038.192-.076.307-.114.057-.039 28.881-16.209 28.881-16.209z" opacity=".5"/><path fill="#1490DF" d="m798.501 82.674-.036.021-28.522 16.049q-.186.115-.383.214a4 4 0 0 1-3.894-.214l-28.522-16.049-.034-.02a1.72 1.72 0 0 1-.902-1.5v32.487a3.924 3.924 0 0 0 3.947 3.9h55.276a3.924 3.924 0 0 0 3.947-3.899V81.175a1.73 1.73 0 0 1-.877 1.5"/><path fill="#000" d="m770.31 98.489-.427.24a3.96 3.96 0 0 1-1.887.615l10.85 12.841 18.926 4.565a3.9 3.9 0 0 0 1.2-1.5z" opacity=".1"/><path fill="#000" d="m772.25 97.407-2.364 1.327a4 4 0 0 1-1.89.615l5.092 14.028 24.741 3.373a3.87 3.87 0 0 0 1.549-3.096v-.419z" opacity=".05"/><path fill="#28A8EA" d="M740.207 117.562h55.185a3.98 3.98 0 0 0 2.363-.766l-31.319-18.364a4 4 0 0 1-.382-.22l-28.889-16.505h-.014l-.943-.532v32.376a4.006 4.006 0 0 0 3.999 4.011"/><path fill="#000" d="M762.991 59.796v40.85a3.52 3.52 0 0 1-2.2 3.256 3.3 3.3 0 0 1-1.301.268h-23.282V58.2h3.826v-1.915h19.456a3.516 3.516 0 0 1 3.501 3.51" opacity=".1"/><path fill="#000" d="M761.097 61.69v40.855c.005.463-.093.921-.287 1.341a3.49 3.49 0 0 1-3.217 2.178h-21.385V58.179h21.385a3.2 3.2 0 0 1 1.59.402 3.48 3.48 0 0 1 1.914 3.109" opacity=".2"/><path fill="#000" d="M761.097 61.694v37.06a3.536 3.536 0 0 1-3.503 3.522h-21.386V58.179h21.386a3.2 3.2 0 0 1 1.589.403 3.49 3.49 0 0 1 1.914 3.111" opacity=".2"/><path fill="#000" d="M759.204 61.693v37.061a3.525 3.525 0 0 1-3.507 3.522h-19.489V58.179h19.489a3.51 3.51 0 0 1 3.506 3.512z" opacity=".2"/><path fill="url(#paint7_linear_0_1)" d="M720.516 58.179h35.171a3.517 3.517 0 0 1 3.517 3.516v35.171a3.517 3.517 0 0 1-3.517 3.517h-35.171A3.516 3.516 0 0 1 717 96.866v-35.17a3.516 3.516 0 0 1 3.516-3.517"/><path fill="#fff" d="M727.973 72.984a10.2 10.2 0 0 1 4.024-4.415 12.23 12.23 0 0 1 6.395-1.593 11.4 11.4 0 0 1 5.917 1.51 10.1 10.1 0 0 1 3.915 4.22 13.54 13.54 0 0 1 1.373 6.204 14.3 14.3 0 0 1-1.413 6.49 10.35 10.35 0 0 1-4.036 4.366 11.84 11.84 0 0 1-6.139 1.55 11.63 11.63 0 0 1-6.048-1.527 10.3 10.3 0 0 1-3.967-4.227 13.2 13.2 0 0 1-1.388-6.13 14.7 14.7 0 0 1 1.367-6.448m4.29 10.366a6.6 6.6 0 0 0 2.264 2.906 5.94 5.94 0 0 0 3.536 1.057 6.23 6.23 0 0 0 3.775-1.092 6.33 6.33 0 0 0 2.198-2.905c.482-1.297.72-2.671.702-4.053a12.3 12.3 0 0 0-.661-4.105 6.5 6.5 0 0 0-2.13-3.027 5.88 5.88 0 0 0-3.742-1.146 6.13 6.13 0 0 0-3.619 1.067 6.67 6.67 0 0 0-2.306 2.93 11.57 11.57 0 0 0-.016 8.372z"/><path fill="#50D9FF" d="M778.276 52.498h17.315v17.179h-17.315z"/><defs><linearGradient id="paint1_linear_0_1" x1="565.307" x2="556.873" y1="104.585" y2="89.979" gradientUnits="userSpaceOnUse"><stop stop-color="#114A8B"/><stop offset="1" stop-color="#0078D4" stop-opacity="0"/></linearGradient><linearGradient id="paint3_linear_0_1" x1="605.856" x2="596.817" y1="82.441" y2="95.419" gradientUnits="userSpaceOnUse"><stop stop-color="#493474"/><stop offset="1" stop-color="#8C66BA" stop-opacity="0"/></linearGradient><linearGradient id="paint5_linear_0_1" x1="564.355" x2="577.687" y1="42.873" y2="42.873" gradientUnits="userSpaceOnUse"><stop stop-color="#2D3F80"/><stop offset="1" stop-color="#436DCD" stop-opacity="0"/></linearGradient><linearGradient id="paint6_linear_0_1" x1="767.793" x2="767.793" y1="81.175" y2="117.562" gradientUnits="userSpaceOnUse"><stop stop-color="#35B8F1"/><stop offset="1" stop-color="#28A8EA"/></linearGradient><linearGradient id="paint7_linear_0_1" x1="724.332" x2="751.872" y1="55.431" y2="103.13" gradientUnits="userSpaceOnUse"><stop stop-color="#1784D9"/><stop offset=".5" stop-color="#107AD5"/><stop offset="1" stop-color="#0A63C9"/></linearGradient><radialGradient id="paint0_radial_0_1" cx="0" cy="0" r="1" gradientTransform="matrix(-20.7677 55.39245 -96.70945 -36.25825 565.141 56.313)" gradientUnits="userSpaceOnUse"><stop offset=".064" stop-color="#AE7FE2"/><stop offset="1" stop-color="#0078D4"/></radialGradient><radialGradient id="paint2_radial_0_1" cx="0" cy="0" r="1" gradientTransform="rotate(-8.357 973.756 -3732.08)scale(55.1128 36.361)" gradientUnits="userSpaceOnUse"><stop offset=".134" stop-color="#D59DFF"/><stop offset="1" stop-color="#5E438F"/></radialGradient><radialGradient id="paint4_radial_0_1" cx="0" cy="0" r="1" gradientTransform="rotate(-165.789 308.81 4.381)scale(44.2346 74.3809)" gradientUnits="userSpaceOnUse"><stop offset=".058" stop-color="#50E6FF"/><stop offset="1" stop-color="#436DCD"/></radialGradient><clipPath id="clip0_0_1"><path fill="#fff" d="M541.323 41h71v78h-71z"/></clipPath></defs></svg>