<svg width="846" height="196" viewBox="0 0 846 196" fill="none" xmlns="http://www.w3.org/2000/svg">
<rect width="846" height="196" fill="white"/>
<circle cx="376" cy="81" r="65" fill="white"/>
<path d="M224.707 81.6173C225.098 81.2267 225.098 80.5936 224.707 80.2031L218.343 73.8391C217.953 73.4486 217.319 73.4486 216.929 73.8391C216.538 74.2296 216.538 74.8628 216.929 75.2533L222.586 80.9102L216.929 86.567C216.538 86.9575 216.538 87.5907 216.929 87.9812C217.319 88.3718 217.953 88.3718 218.343 87.9812L224.707 81.6173ZM224 79.9102L149 79.9102L149 81.9102L224 81.9102L224 79.9102Z" fill="black"/>
<path d="M51.4626 127.727V118.999H57.3433V120.521H53.3078V122.6H57.0407V124.121H53.3078V126.205H57.3604V127.727H51.4626ZM60.2932 121.181L61.4949 123.469L62.7265 121.181H64.5887L62.6924 124.454L64.6398 127.727H62.7861L61.4949 125.464L60.2251 127.727H58.3501L60.2932 124.454L58.4182 121.181H60.2932ZM69.1483 121.181V122.545H65.2066V121.181H69.1483ZM66.1015 119.613H67.9168V125.715C67.9168 125.883 67.9424 126.013 67.9935 126.107C68.0447 126.198 68.1157 126.262 68.2066 126.299C68.3003 126.336 68.4083 126.354 68.5305 126.354C68.6157 126.354 68.7009 126.347 68.7861 126.333C68.8714 126.316 68.9367 126.303 68.9822 126.295L69.2677 127.646C69.1768 127.674 69.0489 127.707 68.8841 127.744C68.7194 127.783 68.5191 127.808 68.2833 127.816C67.8458 127.833 67.4623 127.775 67.1327 127.641C66.806 127.508 66.5518 127.3 66.3699 127.019C66.1881 126.738 66.0986 126.383 66.1015 125.954V119.613ZM73.2435 127.854C72.5702 127.854 71.9907 127.718 71.5049 127.445C71.0219 127.17 70.6498 126.781 70.3884 126.278C70.127 125.772 69.9964 125.174 69.9964 124.484C69.9964 123.81 70.127 123.219 70.3884 122.711C70.6498 122.202 71.0177 121.806 71.4921 121.522C71.9694 121.238 72.529 121.096 73.1711 121.096C73.6029 121.096 74.0049 121.165 74.377 121.305C74.752 121.441 75.0787 121.647 75.3572 121.923C75.6384 122.198 75.8572 122.545 76.0134 122.962C76.1697 123.377 76.2478 123.863 76.2478 124.42V124.918H70.7208V123.793H74.539C74.539 123.532 74.4822 123.3 74.3685 123.099C74.2549 122.897 74.0972 122.739 73.8955 122.626C73.6966 122.509 73.4651 122.451 73.2009 122.451C72.9253 122.451 72.681 122.515 72.468 122.643C72.2577 122.768 72.093 122.937 71.9736 123.15C71.8543 123.36 71.7932 123.594 71.7904 123.853V124.923C71.7904 125.246 71.8501 125.526 71.9694 125.762C72.0915 125.998 72.2634 126.18 72.485 126.308C72.7066 126.435 72.9694 126.499 73.2733 126.499C73.4751 126.499 73.6597 126.471 73.8273 126.414C73.9949 126.357 74.1384 126.272 74.2577 126.158C74.377 126.045 74.468 125.906 74.5305 125.741L76.2094 125.852C76.1242 126.255 75.9495 126.607 75.6853 126.908C75.4239 127.207 75.0858 127.44 74.6711 127.607C74.2591 127.772 73.7833 127.854 73.2435 127.854ZM77.4324 127.727V121.181H79.1924V122.323H79.2606C79.3799 121.917 79.5802 121.61 79.8614 121.403C80.1427 121.192 80.4665 121.087 80.833 121.087C80.9239 121.087 81.0219 121.093 81.127 121.104C81.2322 121.116 81.3245 121.131 81.404 121.151V122.762C81.3188 122.737 81.2009 122.714 81.0503 122.694C80.8998 122.674 80.762 122.664 80.637 122.664C80.3699 122.664 80.1313 122.722 79.9211 122.839C79.7137 122.952 79.5489 123.112 79.4268 123.316C79.3074 123.521 79.2478 123.756 79.2478 124.023V127.727H77.4324ZM84.1579 123.942V127.727H82.3426V121.181H84.0727V122.336H84.1494C84.2943 121.955 84.5372 121.654 84.8781 121.433C85.219 121.208 85.6324 121.096 86.1182 121.096C86.5727 121.096 86.969 121.195 87.3071 121.394C87.6452 121.593 87.9079 121.877 88.0954 122.246C88.2829 122.613 88.3767 123.05 88.3767 123.559V127.727H86.5613V123.883C86.5642 123.482 86.4619 123.17 86.2545 122.945C86.0471 122.718 85.7616 122.604 85.398 122.604C85.1537 122.604 84.9378 122.657 84.7503 122.762C84.5656 122.867 84.4207 123.021 84.3156 123.222C84.2133 123.421 84.1608 123.661 84.1579 123.942ZM91.6739 127.85C91.2563 127.85 90.8841 127.778 90.5574 127.633C90.2307 127.485 89.9722 127.268 89.7819 126.981C89.5944 126.691 89.5006 126.33 89.5006 125.898C89.5006 125.535 89.5674 125.229 89.7009 124.982C89.8344 124.735 90.0162 124.536 90.2464 124.386C90.4765 124.235 90.7378 124.121 91.0305 124.045C91.3259 123.968 91.6356 123.914 91.9594 123.883C92.3401 123.843 92.6469 123.806 92.8799 123.772C93.1128 123.735 93.2819 123.681 93.387 123.61C93.4921 123.539 93.5447 123.434 93.5447 123.295V123.269C93.5447 122.999 93.4594 122.79 93.289 122.643C93.1214 122.495 92.8827 122.421 92.5731 122.421C92.2464 122.421 91.9864 122.494 91.7932 122.638C91.6001 122.781 91.4722 122.96 91.4097 123.175L89.7307 123.039C89.816 122.641 89.9836 122.298 90.2336 122.008C90.4836 121.715 90.806 121.491 91.2009 121.335C91.5986 121.175 92.0589 121.096 92.5816 121.096C92.9452 121.096 93.2932 121.138 93.6256 121.224C93.9608 121.309 94.2577 121.441 94.5162 121.62C94.7776 121.799 94.9836 122.029 95.1341 122.31C95.2847 122.589 95.36 122.923 95.36 123.312V127.727H93.6384V126.819H93.5873C93.4822 127.023 93.3415 127.204 93.1654 127.36C92.9893 127.513 92.7776 127.634 92.5305 127.722C92.2833 127.808 91.9978 127.85 91.6739 127.85ZM92.1938 126.597C92.4608 126.597 92.6966 126.545 92.9012 126.44C93.1057 126.332 93.2662 126.187 93.3827 126.005C93.4992 125.823 93.5574 125.617 93.5574 125.387V124.692C93.5006 124.729 93.4225 124.763 93.3231 124.795C93.2265 124.823 93.1171 124.85 92.9949 124.876C92.8728 124.898 92.7506 124.92 92.6285 124.94C92.5063 124.957 92.3955 124.972 92.2961 124.987C92.083 125.018 91.8969 125.067 91.7378 125.136C91.5787 125.204 91.4552 125.296 91.3671 125.413C91.279 125.526 91.235 125.668 91.235 125.839C91.235 126.086 91.3245 126.275 91.5035 126.406C91.6853 126.533 91.9154 126.597 92.1938 126.597ZM98.5837 118.999V127.727H96.7684V118.999H98.5837ZM105.798 127.854C105.125 127.854 104.545 127.718 104.06 127.445C103.577 127.17 103.204 126.781 102.943 126.278C102.682 125.772 102.551 125.174 102.551 124.484C102.551 123.81 102.682 123.219 102.943 122.711C103.204 122.202 103.572 121.806 104.047 121.522C104.524 121.238 105.084 121.096 105.726 121.096C106.158 121.096 106.56 121.165 106.932 121.305C107.307 121.441 107.633 121.647 107.912 121.923C108.193 122.198 108.412 122.545 108.568 122.962C108.724 123.377 108.802 123.863 108.802 124.42V124.918H103.275V123.793H107.094C107.094 123.532 107.037 123.3 106.923 123.099C106.81 122.897 106.652 122.739 106.45 122.626C106.251 122.509 106.02 122.451 105.756 122.451C105.48 122.451 105.236 122.515 105.023 122.643C104.812 122.768 104.648 122.937 104.528 123.15C104.409 123.36 104.348 123.594 104.345 123.853V124.923C104.345 125.246 104.405 125.526 104.524 125.762C104.646 125.998 104.818 126.18 105.04 126.308C105.261 126.435 105.524 126.499 105.828 126.499C106.03 126.499 106.214 126.471 106.382 126.414C106.55 126.357 106.693 126.272 106.812 126.158C106.932 126.045 107.023 125.906 107.085 125.741L108.764 125.852C108.679 126.255 108.504 126.607 108.24 126.908C107.979 127.207 107.641 127.44 107.226 127.607C106.814 127.772 106.338 127.854 105.798 127.854ZM109.987 127.727V121.181H111.717V122.336H111.794C111.93 121.952 112.158 121.65 112.476 121.428C112.794 121.207 113.175 121.096 113.618 121.096C114.067 121.096 114.449 121.208 114.764 121.433C115.079 121.654 115.29 121.955 115.395 122.336H115.463C115.597 121.961 115.838 121.661 116.187 121.437C116.54 121.21 116.956 121.096 117.436 121.096C118.047 121.096 118.543 121.29 118.923 121.68C119.307 122.066 119.498 122.614 119.498 123.325V127.727H117.687V123.683C117.687 123.319 117.591 123.046 117.398 122.864C117.204 122.683 116.963 122.592 116.673 122.592C116.344 122.592 116.087 122.697 115.902 122.907C115.717 123.114 115.625 123.388 115.625 123.729V127.727H113.865V123.644C113.865 123.323 113.773 123.067 113.588 122.877C113.406 122.687 113.166 122.592 112.868 122.592C112.666 122.592 112.484 122.643 112.322 122.745C112.163 122.844 112.037 122.985 111.943 123.167C111.849 123.346 111.802 123.556 111.802 123.798V127.727H109.987ZM122.799 127.85C122.381 127.85 122.009 127.778 121.682 127.633C121.356 127.485 121.097 127.268 120.907 126.981C120.719 126.691 120.626 126.33 120.626 125.898C120.626 125.535 120.692 125.229 120.826 124.982C120.959 124.735 121.141 124.536 121.371 124.386C121.601 124.235 121.863 124.121 122.155 124.045C122.451 123.968 122.761 123.914 123.084 123.883C123.465 123.843 123.772 123.806 124.005 123.772C124.238 123.735 124.407 123.681 124.512 123.61C124.617 123.539 124.67 123.434 124.67 123.295V123.269C124.67 122.999 124.584 122.79 124.414 122.643C124.246 122.495 124.008 122.421 123.698 122.421C123.371 122.421 123.111 122.494 122.918 122.638C122.725 122.781 122.597 122.96 122.535 123.175L120.856 123.039C120.941 122.641 121.109 122.298 121.359 122.008C121.609 121.715 121.931 121.491 122.326 121.335C122.724 121.175 123.184 121.096 123.707 121.096C124.07 121.096 124.418 121.138 124.751 121.224C125.086 121.309 125.383 121.441 125.641 121.62C125.903 121.799 126.109 122.029 126.259 122.31C126.41 122.589 126.485 122.923 126.485 123.312V127.727H124.763V126.819H124.712C124.607 127.023 124.467 127.204 124.29 127.36C124.114 127.513 123.903 127.634 123.655 127.722C123.408 127.808 123.123 127.85 122.799 127.85ZM123.319 126.597C123.586 126.597 123.822 126.545 124.026 126.44C124.231 126.332 124.391 126.187 124.508 126.005C124.624 125.823 124.682 125.617 124.682 125.387V124.692C124.626 124.729 124.547 124.763 124.448 124.795C124.351 124.823 124.242 124.85 124.12 124.876C123.998 124.898 123.876 124.92 123.753 124.94C123.631 124.957 123.521 124.972 123.421 124.987C123.208 125.018 123.022 125.067 122.863 125.136C122.704 125.204 122.58 125.296 122.492 125.413C122.404 125.526 122.36 125.668 122.36 125.839C122.36 126.086 122.449 126.275 122.628 126.406C122.81 126.533 123.04 126.597 123.319 126.597ZM127.893 127.727V121.181H129.709V127.727H127.893ZM128.805 120.337C128.535 120.337 128.304 120.248 128.111 120.069C127.92 119.887 127.825 119.67 127.825 119.417C127.825 119.167 127.92 118.952 128.111 118.773C128.304 118.592 128.535 118.501 128.805 118.501C129.075 118.501 129.305 118.592 129.496 118.773C129.689 118.952 129.785 119.167 129.785 119.417C129.785 119.67 129.689 119.887 129.496 120.069C129.305 120.248 129.075 120.337 128.805 120.337ZM132.978 118.999V127.727H131.163V118.999H132.978Z" fill="black"/>
<path d="M738.284 134.273H740.129V139.94C740.129 140.577 739.977 141.134 739.673 141.611C739.372 142.088 738.95 142.46 738.407 142.727C737.865 142.991 737.233 143.124 736.511 143.124C735.787 143.124 735.153 142.991 734.611 142.727C734.068 142.46 733.646 142.088 733.345 141.611C733.044 141.134 732.893 140.577 732.893 139.94V134.273H734.738V139.783C734.738 140.115 734.811 140.411 734.956 140.669C735.104 140.928 735.311 141.131 735.578 141.278C735.845 141.426 736.156 141.5 736.511 141.5C736.869 141.5 737.18 141.426 737.444 141.278C737.711 141.131 737.917 140.928 738.062 140.669C738.21 140.411 738.284 140.115 738.284 139.783V134.273ZM747.059 138.321L745.397 138.423C745.369 138.281 745.308 138.153 745.214 138.04C745.12 137.923 744.997 137.831 744.843 137.763C744.693 137.692 744.512 137.656 744.302 137.656C744.021 137.656 743.784 137.716 743.59 137.835C743.397 137.952 743.301 138.108 743.301 138.304C743.301 138.46 743.363 138.592 743.488 138.7C743.613 138.808 743.828 138.895 744.132 138.96L745.316 139.199C745.953 139.33 746.427 139.54 746.74 139.83C747.052 140.119 747.208 140.5 747.208 140.972C747.208 141.401 747.082 141.777 746.829 142.101C746.579 142.425 746.235 142.678 745.798 142.859C745.363 143.038 744.862 143.128 744.294 143.128C743.427 143.128 742.737 142.947 742.222 142.587C741.711 142.223 741.411 141.729 741.323 141.104L743.109 141.01C743.163 141.274 743.294 141.476 743.501 141.615C743.708 141.751 743.974 141.82 744.298 141.82C744.616 141.82 744.872 141.759 745.065 141.636C745.261 141.511 745.36 141.351 745.363 141.155C745.36 140.99 745.291 140.855 745.154 140.75C745.018 140.642 744.808 140.56 744.524 140.503L743.39 140.277C742.751 140.149 742.275 139.928 741.963 139.612C741.653 139.297 741.498 138.895 741.498 138.406C741.498 137.986 741.612 137.624 741.839 137.32C742.069 137.016 742.392 136.781 742.806 136.616C743.224 136.452 743.713 136.369 744.272 136.369C745.099 136.369 745.749 136.544 746.224 136.893C746.701 137.243 746.98 137.719 747.059 138.321ZM751.334 143.128C750.661 143.128 750.081 142.991 749.596 142.719C749.113 142.443 748.741 142.054 748.479 141.551C748.218 141.045 748.087 140.447 748.087 139.757C748.087 139.084 748.218 138.493 748.479 137.984C748.741 137.476 749.108 137.08 749.583 136.795C750.06 136.511 750.62 136.369 751.262 136.369C751.694 136.369 752.096 136.439 752.468 136.578C752.843 136.714 753.17 136.92 753.448 137.196C753.729 137.472 753.948 137.818 754.104 138.236C754.26 138.651 754.339 139.136 754.339 139.693V140.192H748.812V139.067H752.63C752.63 138.805 752.573 138.574 752.459 138.372C752.346 138.17 752.188 138.013 751.986 137.899C751.787 137.783 751.556 137.724 751.292 137.724C751.016 137.724 750.772 137.788 750.559 137.916C750.349 138.041 750.184 138.21 750.064 138.423C749.945 138.634 749.884 138.868 749.881 139.126V140.196C749.881 140.52 749.941 140.8 750.06 141.036C750.182 141.271 750.354 141.453 750.576 141.581C750.797 141.709 751.06 141.773 751.364 141.773C751.566 141.773 751.751 141.744 751.918 141.688C752.086 141.631 752.229 141.545 752.349 141.432C752.468 141.318 752.559 141.179 752.621 141.014L754.3 141.125C754.215 141.528 754.04 141.881 753.776 142.182C753.515 142.48 753.177 142.713 752.762 142.881C752.35 143.045 751.874 143.128 751.334 143.128ZM755.523 143V136.455H757.283V137.597H757.351C757.471 137.19 757.671 136.884 757.952 136.676C758.233 136.466 758.557 136.361 758.924 136.361C759.015 136.361 759.113 136.366 759.218 136.378C759.323 136.389 759.415 136.405 759.495 136.425V138.036C759.41 138.01 759.292 137.987 759.141 137.967C758.991 137.947 758.853 137.938 758.728 137.938C758.461 137.938 758.222 137.996 758.012 138.112C757.805 138.226 757.64 138.385 757.518 138.589C757.398 138.794 757.339 139.03 757.339 139.297V143H755.523ZM763.211 143V136.455H765.026V143H763.211ZM764.123 135.611C763.853 135.611 763.621 135.521 763.428 135.342C763.238 135.161 763.143 134.943 763.143 134.69C763.143 134.44 763.238 134.226 763.428 134.047C763.621 133.865 763.853 133.774 764.123 133.774C764.393 133.774 764.623 133.865 764.813 134.047C765.006 134.226 765.103 134.44 765.103 134.69C765.103 134.943 765.006 135.161 764.813 135.342C764.623 135.521 764.393 135.611 764.123 135.611ZM768.296 139.216V143H766.48V136.455H768.21V137.609H768.287C768.432 137.229 768.675 136.928 769.016 136.706C769.357 136.482 769.77 136.369 770.256 136.369C770.71 136.369 771.107 136.469 771.445 136.668C771.783 136.866 772.046 137.151 772.233 137.52C772.421 137.886 772.514 138.324 772.514 138.832V143H770.699V139.156C770.702 138.756 770.6 138.443 770.392 138.219C770.185 137.991 769.899 137.878 769.536 137.878C769.291 137.878 769.075 137.93 768.888 138.036C768.703 138.141 768.558 138.294 768.453 138.496C768.351 138.695 768.298 138.935 768.296 139.216ZM773.979 143V134.273H775.795V137.554H775.85C775.93 137.378 776.045 137.199 776.195 137.017C776.349 136.832 776.547 136.679 776.792 136.557C777.039 136.432 777.346 136.369 777.712 136.369C778.189 136.369 778.63 136.494 779.033 136.744C779.437 136.991 779.759 137.365 780.001 137.865C780.242 138.362 780.363 138.986 780.363 139.736C780.363 140.466 780.245 141.082 780.009 141.585C779.776 142.085 779.458 142.464 779.055 142.723C778.654 142.979 778.205 143.107 777.708 143.107C777.356 143.107 777.056 143.048 776.809 142.932C776.564 142.815 776.364 142.669 776.208 142.493C776.052 142.314 775.932 142.134 775.85 141.952H775.769V143H773.979ZM775.756 139.727C775.756 140.116 775.81 140.456 775.918 140.746C776.026 141.036 776.182 141.261 776.387 141.423C776.591 141.582 776.84 141.662 777.133 141.662C777.428 141.662 777.678 141.581 777.883 141.419C778.087 141.254 778.242 141.027 778.347 140.737C778.455 140.445 778.509 140.108 778.509 139.727C778.509 139.349 778.456 139.017 778.351 138.73C778.246 138.443 778.091 138.219 777.887 138.057C777.682 137.895 777.431 137.814 777.133 137.814C776.837 137.814 776.587 137.892 776.383 138.048C776.181 138.205 776.026 138.426 775.918 138.713C775.81 139 775.756 139.338 775.756 139.727ZM784.531 143.128C783.869 143.128 783.297 142.987 782.814 142.706C782.334 142.422 781.963 142.027 781.702 141.521C781.441 141.013 781.31 140.423 781.31 139.753C781.31 139.077 781.441 138.486 781.702 137.98C781.963 137.472 782.334 137.077 782.814 136.795C783.297 136.511 783.869 136.369 784.531 136.369C785.193 136.369 785.764 136.511 786.244 136.795C786.727 137.077 787.1 137.472 787.361 137.98C787.622 138.486 787.753 139.077 787.753 139.753C787.753 140.423 787.622 141.013 787.361 141.521C787.1 142.027 786.727 142.422 786.244 142.706C785.764 142.987 785.193 143.128 784.531 143.128ZM784.54 141.722C784.841 141.722 785.093 141.636 785.294 141.466C785.496 141.293 785.648 141.057 785.75 140.759C785.855 140.46 785.908 140.121 785.908 139.74C785.908 139.359 785.855 139.02 785.75 138.722C785.648 138.423 785.496 138.187 785.294 138.014C785.093 137.841 784.841 137.754 784.54 137.754C784.236 137.754 783.98 137.841 783.773 138.014C783.568 138.187 783.414 138.423 783.308 138.722C783.206 139.02 783.155 139.359 783.155 139.74C783.155 140.121 783.206 140.46 783.308 140.759C783.414 141.057 783.568 141.293 783.773 141.466C783.98 141.636 784.236 141.722 784.54 141.722ZM790.216 136.455L791.418 138.743L792.649 136.455H794.512L792.615 139.727L794.563 143H792.709L791.418 140.737L790.148 143H788.273L790.216 139.727L788.341 136.455H790.216Z" fill="black"/>
<path d="M55.3779 53V104.818H129.028V53H55.3779V53ZM92.1354 83.3011L58.0582 54.4375H126.348L92.1354 83.3011ZM85.9866 79.9698L56.8194 102.604V55.2589L85.9866 79.9698ZM87.1128 80.9281L92.1354 85.1949L97.2481 80.8824L126.213 103.357H58.1933L87.0902 80.9281H87.1128ZM98.3742 79.9241L127.609 55.2589V102.604L98.3742 79.9241Z" fill="#0055DC" stroke="#0057E1" stroke-width="0.540551" stroke-miterlimit="10"/>
<path d="M47.4492 91.8848H33.9805" stroke="#0053ED" stroke-width="2.07211" stroke-miterlimit="10"/>
<path d="M47.4508 78.9453H27" stroke="#0053ED" stroke-width="2.07211" stroke-miterlimit="10"/>
<path d="M47.4492 66.0078H33.9805" stroke="#0053ED" stroke-width="2.07211" stroke-miterlimit="10"/>
<path d="M245.247 127.783C245.213 127.439 245.066 127.172 244.808 126.982C244.549 126.791 244.199 126.696 243.755 126.696C243.454 126.696 243.2 126.739 242.993 126.824C242.785 126.906 242.626 127.021 242.515 127.169C242.407 127.317 242.353 127.484 242.353 127.672C242.348 127.828 242.38 127.964 242.451 128.081C242.525 128.197 242.626 128.298 242.754 128.384C242.882 128.466 243.029 128.538 243.197 128.601C243.365 128.661 243.544 128.712 243.734 128.754L244.518 128.942C244.899 129.027 245.248 129.141 245.566 129.283C245.885 129.425 246.16 129.599 246.393 129.807C246.626 130.014 246.806 130.259 246.934 130.54C247.065 130.821 247.132 131.143 247.135 131.507C247.132 132.041 246.995 132.504 246.725 132.896C246.458 133.286 246.072 133.588 245.566 133.804C245.064 134.017 244.457 134.124 243.747 134.124C243.042 134.124 242.429 134.016 241.906 133.8C241.386 133.584 240.98 133.264 240.687 132.841C240.397 132.415 240.245 131.888 240.231 131.26H242.017C242.037 131.553 242.12 131.797 242.268 131.993C242.419 132.186 242.619 132.332 242.869 132.432C243.122 132.528 243.407 132.577 243.725 132.577C244.038 132.577 244.309 132.531 244.539 132.44C244.772 132.349 244.953 132.223 245.081 132.061C245.208 131.899 245.272 131.713 245.272 131.503C245.272 131.307 245.214 131.142 245.098 131.009C244.984 130.875 244.816 130.761 244.595 130.668C244.376 130.574 244.108 130.489 243.789 130.412L242.839 130.173C242.103 129.994 241.522 129.714 241.096 129.334C240.67 128.953 240.458 128.44 240.461 127.795C240.458 127.267 240.599 126.805 240.883 126.411C241.17 126.016 241.564 125.707 242.064 125.486C242.564 125.264 243.132 125.153 243.768 125.153C244.416 125.153 244.981 125.264 245.464 125.486C245.95 125.707 246.328 126.016 246.598 126.411C246.868 126.805 247.007 127.263 247.015 127.783H245.247ZM251.325 134.128C250.651 134.128 250.072 133.991 249.586 133.719C249.103 133.443 248.731 133.054 248.469 132.551C248.208 132.045 248.077 131.447 248.077 130.757C248.077 130.084 248.208 129.493 248.469 128.984C248.731 128.476 249.099 128.08 249.573 127.795C250.05 127.511 250.61 127.369 251.252 127.369C251.684 127.369 252.086 127.439 252.458 127.578C252.833 127.714 253.16 127.92 253.438 128.196C253.719 128.472 253.938 128.818 254.094 129.236C254.251 129.651 254.329 130.136 254.329 130.693V131.192H248.802V130.067H252.62C252.62 129.805 252.563 129.574 252.45 129.372C252.336 129.17 252.178 129.013 251.977 128.899C251.778 128.783 251.546 128.724 251.282 128.724C251.006 128.724 250.762 128.788 250.549 128.916C250.339 129.041 250.174 129.21 250.055 129.423C249.935 129.634 249.874 129.868 249.871 130.126V131.196C249.871 131.52 249.931 131.8 250.05 132.036C250.173 132.271 250.344 132.453 250.566 132.581C250.788 132.709 251.05 132.773 251.354 132.773C251.556 132.773 251.741 132.744 251.908 132.688C252.076 132.631 252.219 132.545 252.339 132.432C252.458 132.318 252.549 132.179 252.612 132.014L254.29 132.125C254.205 132.528 254.031 132.881 253.766 133.182C253.505 133.48 253.167 133.713 252.752 133.881C252.34 134.045 251.864 134.128 251.325 134.128ZM258.471 134.128C257.8 134.128 257.224 133.986 256.741 133.702C256.261 133.415 255.891 133.017 255.633 132.509C255.377 132 255.249 131.415 255.249 130.753C255.249 130.082 255.379 129.494 255.637 128.989C255.898 128.48 256.269 128.084 256.749 127.8C257.229 127.513 257.8 127.369 258.462 127.369C259.033 127.369 259.533 127.473 259.962 127.68C260.391 127.888 260.731 128.179 260.981 128.554C261.231 128.929 261.369 129.369 261.394 129.875H259.681C259.633 129.548 259.505 129.286 259.298 129.087C259.093 128.885 258.825 128.784 258.492 128.784C258.211 128.784 257.965 128.861 257.755 129.014C257.548 129.165 257.386 129.385 257.269 129.675C257.153 129.964 257.094 130.315 257.094 130.727C257.094 131.145 257.151 131.5 257.265 131.793C257.381 132.085 257.545 132.308 257.755 132.462C257.965 132.615 258.211 132.692 258.492 132.692C258.7 132.692 258.886 132.649 259.05 132.564C259.218 132.479 259.356 132.355 259.464 132.193C259.575 132.028 259.647 131.831 259.681 131.601H261.394C261.366 132.101 261.229 132.541 260.985 132.922C260.744 133.3 260.41 133.595 259.984 133.808C259.558 134.021 259.053 134.128 258.471 134.128ZM266.754 131.213V127.455H268.569V134H266.826V132.811H266.758C266.61 133.195 266.365 133.503 266.021 133.736C265.68 133.969 265.264 134.085 264.772 134.085C264.335 134.085 263.95 133.986 263.618 133.787C263.285 133.588 263.025 133.305 262.838 132.939C262.653 132.572 262.559 132.134 262.556 131.622V127.455H264.372V131.298C264.375 131.685 264.478 131.99 264.683 132.214C264.887 132.439 265.162 132.551 265.505 132.551C265.724 132.551 265.929 132.501 266.119 132.402C266.309 132.3 266.463 132.149 266.579 131.95C266.699 131.751 266.757 131.506 266.754 131.213ZM270.021 134V127.455H271.781V128.597H271.849C271.969 128.19 272.169 127.884 272.45 127.676C272.732 127.466 273.055 127.361 273.422 127.361C273.513 127.361 273.611 127.366 273.716 127.378C273.821 127.389 273.913 127.405 273.993 127.425V129.036C273.908 129.01 273.79 128.987 273.639 128.967C273.489 128.947 273.351 128.938 273.226 128.938C272.959 128.938 272.72 128.996 272.51 129.112C272.303 129.226 272.138 129.385 272.016 129.589C271.896 129.794 271.837 130.03 271.837 130.297V134H270.021ZM277.61 134.128C276.936 134.128 276.357 133.991 275.871 133.719C275.388 133.443 275.016 133.054 274.755 132.551C274.493 132.045 274.363 131.447 274.363 130.757C274.363 130.084 274.493 129.493 274.755 128.984C275.016 128.476 275.384 128.08 275.858 127.795C276.336 127.511 276.895 127.369 277.537 127.369C277.969 127.369 278.371 127.439 278.743 127.578C279.118 127.714 279.445 127.92 279.723 128.196C280.005 128.472 280.223 128.818 280.38 129.236C280.536 129.651 280.614 130.136 280.614 130.693V131.192H275.087V130.067H278.905C278.905 129.805 278.848 129.574 278.735 129.372C278.621 129.17 278.463 129.013 278.262 128.899C278.063 128.783 277.831 128.724 277.567 128.724C277.292 128.724 277.047 128.788 276.834 128.916C276.624 129.041 276.459 129.21 276.34 129.423C276.221 129.634 276.159 129.868 276.157 130.126V131.196C276.157 131.52 276.216 131.8 276.336 132.036C276.458 132.271 276.63 132.453 276.851 132.581C277.073 132.709 277.336 132.773 277.64 132.773C277.841 132.773 278.026 132.744 278.194 132.688C278.361 132.631 278.505 132.545 278.624 132.432C278.743 132.318 278.834 132.179 278.897 132.014L280.576 132.125C280.49 132.528 280.316 132.881 280.051 133.182C279.79 133.48 279.452 133.713 279.037 133.881C278.625 134.045 278.15 134.128 277.61 134.128ZM287.559 134.128C286.886 134.128 286.306 133.991 285.82 133.719C285.337 133.443 284.965 133.054 284.704 132.551C284.442 132.045 284.312 131.447 284.312 130.757C284.312 130.084 284.442 129.493 284.704 128.984C284.965 128.476 285.333 128.08 285.808 127.795C286.285 127.511 286.844 127.369 287.487 127.369C287.918 127.369 288.32 127.439 288.692 127.578C289.067 127.714 289.394 127.92 289.673 128.196C289.954 128.472 290.173 128.818 290.329 129.236C290.485 129.651 290.563 130.136 290.563 130.693V131.192H285.036V130.067H288.854C288.854 129.805 288.798 129.574 288.684 129.372C288.57 129.17 288.413 129.013 288.211 128.899C288.012 128.783 287.781 128.724 287.516 128.724C287.241 128.724 286.996 128.788 286.783 128.916C286.573 129.041 286.408 129.21 286.289 129.423C286.17 129.634 286.109 129.868 286.106 130.126V131.196C286.106 131.52 286.165 131.8 286.285 132.036C286.407 132.271 286.579 132.453 286.8 132.581C287.022 132.709 287.285 132.773 287.589 132.773C287.79 132.773 287.975 132.744 288.143 132.688C288.31 132.631 288.454 132.545 288.573 132.432C288.692 132.318 288.783 132.179 288.846 132.014L290.525 132.125C290.44 132.528 290.265 132.881 290.001 133.182C289.739 133.48 289.401 133.713 288.987 133.881C288.575 134.045 288.099 134.128 287.559 134.128ZM291.748 134V127.455H293.478V128.609H293.555C293.691 128.226 293.918 127.923 294.237 127.702C294.555 127.48 294.935 127.369 295.379 127.369C295.827 127.369 296.21 127.482 296.525 127.706C296.84 127.928 297.05 128.229 297.156 128.609H297.224C297.357 128.234 297.599 127.935 297.948 127.71C298.3 127.483 298.717 127.369 299.197 127.369C299.808 127.369 300.303 127.564 300.684 127.953C301.067 128.339 301.259 128.888 301.259 129.598V134H299.448V129.956C299.448 129.592 299.352 129.32 299.158 129.138C298.965 128.956 298.724 128.865 298.434 128.865C298.104 128.865 297.847 128.97 297.663 129.18C297.478 129.388 297.386 129.662 297.386 130.003V134H295.626V129.918C295.626 129.597 295.533 129.341 295.349 129.151C295.167 128.96 294.927 128.865 294.629 128.865C294.427 128.865 294.245 128.916 294.083 129.018C293.924 129.118 293.798 129.259 293.704 129.44C293.61 129.619 293.563 129.83 293.563 130.071V134H291.748ZM304.56 134.124C304.142 134.124 303.77 134.051 303.443 133.906C303.116 133.759 302.858 133.541 302.668 133.254C302.48 132.964 302.386 132.604 302.386 132.172C302.386 131.808 302.453 131.503 302.587 131.256C302.72 131.009 302.902 130.81 303.132 130.659C303.362 130.509 303.624 130.395 303.916 130.318C304.212 130.241 304.521 130.188 304.845 130.156C305.226 130.116 305.533 130.08 305.766 130.045C305.999 130.009 306.168 129.955 306.273 129.884C306.378 129.812 306.43 129.707 306.43 129.568V129.543C306.43 129.273 306.345 129.064 306.175 128.916C306.007 128.768 305.768 128.695 305.459 128.695C305.132 128.695 304.872 128.767 304.679 128.912C304.486 129.054 304.358 129.233 304.295 129.449L302.616 129.312C302.702 128.915 302.869 128.571 303.119 128.281C303.369 127.989 303.692 127.764 304.087 127.608C304.484 127.449 304.945 127.369 305.467 127.369C305.831 127.369 306.179 127.412 306.511 127.497C306.847 127.582 307.143 127.714 307.402 127.893C307.663 128.072 307.869 128.303 308.02 128.584C308.17 128.862 308.246 129.196 308.246 129.585V134H306.524V133.092H306.473C306.368 133.297 306.227 133.477 306.051 133.634C305.875 133.787 305.663 133.908 305.416 133.996C305.169 134.081 304.884 134.124 304.56 134.124ZM305.08 132.871C305.347 132.871 305.582 132.818 305.787 132.713C305.991 132.605 306.152 132.46 306.268 132.278C306.385 132.097 306.443 131.891 306.443 131.661V130.966C306.386 131.003 306.308 131.037 306.209 131.068C306.112 131.097 306.003 131.124 305.881 131.149C305.759 131.172 305.636 131.193 305.514 131.213C305.392 131.23 305.281 131.246 305.182 131.26C304.969 131.291 304.783 131.341 304.624 131.409C304.464 131.477 304.341 131.57 304.253 131.686C304.165 131.8 304.121 131.942 304.121 132.112C304.121 132.359 304.21 132.548 304.389 132.679C304.571 132.807 304.801 132.871 305.08 132.871ZM309.654 134V127.455H311.469V134H309.654ZM310.566 126.611C310.296 126.611 310.065 126.521 309.871 126.342C309.681 126.161 309.586 125.943 309.586 125.69C309.586 125.44 309.681 125.226 309.871 125.047C310.065 124.865 310.296 124.774 310.566 124.774C310.836 124.774 311.066 124.865 311.256 125.047C311.45 125.226 311.546 125.44 311.546 125.69C311.546 125.943 311.45 126.161 311.256 126.342C311.066 126.521 310.836 126.611 310.566 126.611ZM314.739 125.273V134H312.924V125.273H314.739ZM257.554 151.591C256.966 151.591 256.462 151.51 256.041 151.348C255.624 151.189 255.291 150.972 255.044 150.696C254.797 150.42 254.637 150.111 254.563 149.767L256.242 149.541C256.293 149.672 256.374 149.794 256.485 149.908C256.595 150.021 256.742 150.112 256.923 150.18C257.108 150.251 257.333 150.287 257.597 150.287C257.992 150.287 258.317 150.19 258.573 149.997C258.831 149.807 258.96 149.487 258.96 149.038V147.841H258.884C258.804 148.023 258.685 148.195 258.526 148.357C258.367 148.518 258.162 148.651 257.912 148.753C257.662 148.855 257.364 148.906 257.017 148.906C256.526 148.906 256.078 148.793 255.675 148.565C255.274 148.335 254.955 147.984 254.716 147.513C254.48 147.038 254.362 146.439 254.362 145.714C254.362 144.973 254.483 144.354 254.725 143.857C254.966 143.359 255.287 142.987 255.688 142.74C256.091 142.493 256.533 142.369 257.013 142.369C257.379 142.369 257.686 142.432 257.933 142.557C258.181 142.679 258.379 142.832 258.53 143.017C258.683 143.199 258.801 143.378 258.884 143.554H258.952V142.455H260.754V149.064C260.754 149.621 260.618 150.087 260.345 150.462C260.073 150.837 259.695 151.118 259.212 151.305C258.732 151.496 258.179 151.591 257.554 151.591ZM257.593 147.543C257.885 147.543 258.132 147.47 258.334 147.325C258.539 147.178 258.695 146.967 258.803 146.695C258.914 146.419 258.969 146.089 258.969 145.706C258.969 145.322 258.915 144.99 258.807 144.709C258.699 144.425 258.543 144.205 258.338 144.048C258.134 143.892 257.885 143.814 257.593 143.814C257.294 143.814 257.043 143.895 256.838 144.057C256.634 144.216 256.479 144.437 256.374 144.722C256.269 145.006 256.216 145.334 256.216 145.706C256.216 146.084 256.269 146.411 256.374 146.686C256.482 146.959 256.637 147.17 256.838 147.321C257.043 147.469 257.294 147.543 257.593 147.543ZM264.066 149.124C263.648 149.124 263.276 149.051 262.949 148.906C262.622 148.759 262.364 148.541 262.173 148.254C261.986 147.964 261.892 147.604 261.892 147.172C261.892 146.808 261.959 146.503 262.093 146.256C262.226 146.009 262.408 145.81 262.638 145.659C262.868 145.509 263.129 145.395 263.422 145.318C263.718 145.241 264.027 145.188 264.351 145.156C264.732 145.116 265.039 145.08 265.271 145.045C265.504 145.009 265.673 144.955 265.779 144.884C265.884 144.812 265.936 144.707 265.936 144.568V144.543C265.936 144.273 265.851 144.064 265.681 143.916C265.513 143.768 265.274 143.695 264.965 143.695C264.638 143.695 264.378 143.767 264.185 143.912C263.992 144.054 263.864 144.233 263.801 144.449L262.122 144.312C262.208 143.915 262.375 143.571 262.625 143.281C262.875 142.989 263.198 142.764 263.593 142.608C263.99 142.449 264.45 142.369 264.973 142.369C265.337 142.369 265.685 142.412 266.017 142.497C266.352 142.582 266.649 142.714 266.908 142.893C267.169 143.072 267.375 143.303 267.526 143.584C267.676 143.862 267.752 144.196 267.752 144.585V149H266.03V148.092H265.979C265.874 148.297 265.733 148.477 265.557 148.634C265.381 148.787 265.169 148.908 264.922 148.996C264.675 149.081 264.389 149.124 264.066 149.124ZM264.585 147.871C264.852 147.871 265.088 147.818 265.293 147.713C265.497 147.605 265.658 147.46 265.774 147.278C265.891 147.097 265.949 146.891 265.949 146.661V145.966C265.892 146.003 265.814 146.037 265.715 146.068C265.618 146.097 265.509 146.124 265.387 146.149C265.264 146.172 265.142 146.193 265.02 146.213C264.898 146.23 264.787 146.246 264.688 146.26C264.475 146.291 264.289 146.341 264.129 146.409C263.97 146.477 263.847 146.57 263.759 146.686C263.671 146.8 263.627 146.942 263.627 147.112C263.627 147.359 263.716 147.548 263.895 147.679C264.077 147.807 264.307 147.871 264.585 147.871ZM272.642 142.455V143.818H268.7V142.455H272.642ZM269.595 140.886H271.41V146.989C271.41 147.156 271.436 147.287 271.487 147.381C271.538 147.472 271.609 147.536 271.7 147.572C271.794 147.609 271.901 147.628 272.024 147.628C272.109 147.628 272.194 147.621 272.279 147.607C272.365 147.589 272.43 147.577 272.475 147.568L272.761 148.919C272.67 148.947 272.542 148.98 272.377 149.017C272.213 149.057 272.012 149.081 271.776 149.089C271.339 149.107 270.955 149.048 270.626 148.915C270.299 148.781 270.045 148.574 269.863 148.293C269.681 148.011 269.592 147.656 269.595 147.227V140.886ZM276.737 149.128C276.063 149.128 275.484 148.991 274.998 148.719C274.515 148.443 274.143 148.054 273.882 147.551C273.62 147.045 273.49 146.447 273.49 145.757C273.49 145.084 273.62 144.493 273.882 143.984C274.143 143.476 274.511 143.08 274.985 142.795C275.463 142.511 276.022 142.369 276.664 142.369C277.096 142.369 277.498 142.439 277.87 142.578C278.245 142.714 278.572 142.92 278.85 143.196C279.132 143.472 279.35 143.818 279.507 144.236C279.663 144.651 279.741 145.136 279.741 145.693V146.192H274.214V145.067H278.032C278.032 144.805 277.975 144.574 277.862 144.372C277.748 144.17 277.59 144.013 277.389 143.899C277.19 143.783 276.958 143.724 276.694 143.724C276.419 143.724 276.174 143.788 275.961 143.916C275.751 144.041 275.586 144.21 275.467 144.423C275.347 144.634 275.286 144.868 275.284 145.126V146.196C275.284 146.52 275.343 146.8 275.463 147.036C275.585 147.271 275.757 147.453 275.978 147.581C276.2 147.709 276.463 147.773 276.767 147.773C276.968 147.773 277.153 147.744 277.32 147.688C277.488 147.631 277.632 147.545 277.751 147.432C277.87 147.318 277.961 147.179 278.024 147.014L279.703 147.125C279.617 147.528 279.443 147.881 279.178 148.182C278.917 148.48 278.579 148.713 278.164 148.881C277.752 149.045 277.276 149.128 276.737 149.128ZM282.17 149L280.389 142.455H282.225L283.24 146.852H283.299L284.356 142.455H286.159L287.232 146.827H287.288L288.285 142.455H290.117L288.34 149H286.419L285.294 144.884H285.213L284.088 149H282.17ZM292.952 149.124C292.535 149.124 292.162 149.051 291.836 148.906C291.509 148.759 291.251 148.541 291.06 148.254C290.873 147.964 290.779 147.604 290.779 147.172C290.779 146.808 290.846 146.503 290.979 146.256C291.113 146.009 291.295 145.81 291.525 145.659C291.755 145.509 292.016 145.395 292.309 145.318C292.604 145.241 292.914 145.188 293.238 145.156C293.618 145.116 293.925 145.08 294.158 145.045C294.391 145.009 294.56 144.955 294.665 144.884C294.77 144.812 294.823 144.707 294.823 144.568V144.543C294.823 144.273 294.738 144.064 294.567 143.916C294.4 143.768 294.161 143.695 293.851 143.695C293.525 143.695 293.265 143.767 293.072 143.912C292.878 144.054 292.751 144.233 292.688 144.449L291.009 144.312C291.094 143.915 291.262 143.571 291.512 143.281C291.762 142.989 292.084 142.764 292.479 142.608C292.877 142.449 293.337 142.369 293.86 142.369C294.224 142.369 294.572 142.412 294.904 142.497C295.239 142.582 295.536 142.714 295.795 142.893C296.056 143.072 296.262 143.303 296.412 143.584C296.563 143.862 296.638 144.196 296.638 144.585V149H294.917V148.092H294.866C294.76 148.297 294.62 148.477 294.444 148.634C294.268 148.787 294.056 148.908 293.809 148.996C293.562 149.081 293.276 149.124 292.952 149.124ZM293.472 147.871C293.739 147.871 293.975 147.818 294.18 147.713C294.384 147.605 294.545 147.46 294.661 147.278C294.778 147.097 294.836 146.891 294.836 146.661V145.966C294.779 146.003 294.701 146.037 294.601 146.068C294.505 146.097 294.395 146.124 294.273 146.149C294.151 146.172 294.029 146.193 293.907 146.213C293.785 146.23 293.674 146.246 293.574 146.26C293.361 146.291 293.175 146.341 293.016 146.409C292.857 146.477 292.733 146.57 292.645 146.686C292.557 146.8 292.513 146.942 292.513 147.112C292.513 147.359 292.603 147.548 292.782 147.679C292.964 147.807 293.194 147.871 293.472 147.871ZM298.933 151.455C298.703 151.455 298.487 151.436 298.285 151.399C298.086 151.365 297.922 151.321 297.791 151.267L298.2 149.912C298.413 149.977 298.605 150.013 298.775 150.018C298.949 150.024 299.098 149.984 299.223 149.899C299.351 149.814 299.454 149.669 299.534 149.464L299.64 149.188L297.292 142.455H299.202L300.557 147.261H300.625L301.993 142.455H303.915L301.371 149.707C301.248 150.06 301.082 150.366 300.872 150.628C300.665 150.892 300.402 151.095 300.084 151.237C299.765 151.382 299.382 151.455 298.933 151.455Z" fill="black"/>
<path d="M538.086 134.273H540.361L542.765 140.136H542.867L545.27 134.273H547.546V143H545.756V137.32H545.684L543.425 142.957H542.206L539.948 137.298H539.875V143H538.086V134.273ZM549.032 143V136.455H550.847V143H549.032ZM549.944 135.611C549.674 135.611 549.443 135.521 549.249 135.342C549.059 135.161 548.964 134.943 548.964 134.69C548.964 134.44 549.059 134.226 549.249 134.047C549.443 133.865 549.674 133.774 549.944 133.774C550.214 133.774 550.444 133.865 550.634 134.047C550.828 134.226 550.924 134.44 550.924 134.69C550.924 134.943 550.828 135.161 550.634 135.342C550.444 135.521 550.214 135.611 549.944 135.611ZM555.259 143.128C554.589 143.128 554.012 142.986 553.529 142.702C553.049 142.415 552.679 142.017 552.421 141.509C552.165 141 552.037 140.415 552.037 139.753C552.037 139.082 552.167 138.494 552.425 137.989C552.687 137.48 553.057 137.084 553.537 136.8C554.017 136.513 554.589 136.369 555.25 136.369C555.821 136.369 556.321 136.473 556.75 136.68C557.179 136.888 557.519 137.179 557.769 137.554C558.019 137.929 558.157 138.369 558.182 138.875H556.469C556.421 138.548 556.293 138.286 556.086 138.087C555.881 137.885 555.613 137.784 555.28 137.784C554.999 137.784 554.753 137.861 554.543 138.014C554.336 138.165 554.174 138.385 554.057 138.675C553.941 138.964 553.883 139.315 553.883 139.727C553.883 140.145 553.939 140.5 554.053 140.793C554.169 141.085 554.333 141.308 554.543 141.462C554.753 141.615 554.999 141.692 555.28 141.692C555.488 141.692 555.674 141.649 555.839 141.564C556.006 141.479 556.144 141.355 556.252 141.193C556.363 141.028 556.435 140.831 556.469 140.601H558.182C558.154 141.101 558.017 141.541 557.773 141.922C557.532 142.3 557.198 142.595 556.772 142.808C556.346 143.021 555.841 143.128 555.259 143.128ZM559.345 143V136.455H561.104V137.597H561.173C561.292 137.19 561.492 136.884 561.774 136.676C562.055 136.466 562.379 136.361 562.745 136.361C562.836 136.361 562.934 136.366 563.039 136.378C563.144 136.389 563.237 136.405 563.316 136.425V138.036C563.231 138.01 563.113 137.987 562.962 137.967C562.812 137.947 562.674 137.938 562.549 137.938C562.282 137.938 562.043 137.996 561.833 138.112C561.626 138.226 561.461 138.385 561.339 138.589C561.22 138.794 561.16 139.03 561.16 139.297V143H559.345ZM566.907 143.128C566.245 143.128 565.673 142.987 565.19 142.706C564.71 142.422 564.339 142.027 564.078 141.521C563.816 141.013 563.686 140.423 563.686 139.753C563.686 139.077 563.816 138.486 564.078 137.98C564.339 137.472 564.71 137.077 565.19 136.795C565.673 136.511 566.245 136.369 566.907 136.369C567.569 136.369 568.14 136.511 568.62 136.795C569.103 137.077 569.476 137.472 569.737 137.98C569.998 138.486 570.129 139.077 570.129 139.753C570.129 140.423 569.998 141.013 569.737 141.521C569.476 142.027 569.103 142.422 568.62 142.706C568.14 142.987 567.569 143.128 566.907 143.128ZM566.916 141.722C567.217 141.722 567.468 141.636 567.67 141.466C567.872 141.293 568.024 141.057 568.126 140.759C568.231 140.46 568.284 140.121 568.284 139.74C568.284 139.359 568.231 139.02 568.126 138.722C568.024 138.423 567.872 138.187 567.67 138.014C567.468 137.841 567.217 137.754 566.916 137.754C566.612 137.754 566.356 137.841 566.149 138.014C565.944 138.187 565.79 138.423 565.684 138.722C565.582 139.02 565.531 139.359 565.531 139.74C565.531 140.121 565.582 140.46 565.684 140.759C565.79 141.057 565.944 141.293 566.149 141.466C566.356 141.636 566.612 141.722 566.916 141.722ZM576.755 138.321L575.093 138.423C575.065 138.281 575.004 138.153 574.91 138.04C574.816 137.923 574.693 137.831 574.54 137.763C574.389 137.692 574.209 137.656 573.998 137.656C573.717 137.656 573.48 137.716 573.287 137.835C573.093 137.952 572.997 138.108 572.997 138.304C572.997 138.46 573.059 138.592 573.184 138.7C573.309 138.808 573.524 138.895 573.828 138.96L575.013 139.199C575.649 139.33 576.123 139.54 576.436 139.83C576.748 140.119 576.905 140.5 576.905 140.972C576.905 141.401 576.778 141.777 576.525 142.101C576.275 142.425 575.932 142.678 575.494 142.859C575.059 143.038 574.558 143.128 573.99 143.128C573.123 143.128 572.433 142.947 571.919 142.587C571.407 142.223 571.108 141.729 571.02 141.104L572.805 141.01C572.859 141.274 572.99 141.476 573.197 141.615C573.405 141.751 573.67 141.82 573.994 141.82C574.312 141.82 574.568 141.759 574.761 141.636C574.957 141.511 575.057 141.351 575.059 141.155C575.057 140.99 574.987 140.855 574.851 140.75C574.714 140.642 574.504 140.56 574.22 140.503L573.086 140.277C572.447 140.149 571.971 139.928 571.659 139.612C571.349 139.297 571.194 138.895 571.194 138.406C571.194 137.986 571.308 137.624 571.535 137.32C571.765 137.016 572.088 136.781 572.503 136.616C572.92 136.452 573.409 136.369 573.968 136.369C574.795 136.369 575.446 136.544 575.92 136.893C576.397 137.243 576.676 137.719 576.755 138.321ZM581.005 143.128C580.343 143.128 579.771 142.987 579.288 142.706C578.808 142.422 578.437 142.027 578.176 141.521C577.914 141.013 577.783 140.423 577.783 139.753C577.783 139.077 577.914 138.486 578.176 137.98C578.437 137.472 578.808 137.077 579.288 136.795C579.771 136.511 580.343 136.369 581.005 136.369C581.667 136.369 582.238 136.511 582.718 136.795C583.201 137.077 583.573 137.472 583.835 137.98C584.096 138.486 584.227 139.077 584.227 139.753C584.227 140.423 584.096 141.013 583.835 141.521C583.573 142.027 583.201 142.422 582.718 142.706C582.238 142.987 581.667 143.128 581.005 143.128ZM581.014 141.722C581.315 141.722 581.566 141.636 581.768 141.466C581.97 141.293 582.122 141.057 582.224 140.759C582.329 140.46 582.381 140.121 582.381 139.74C582.381 139.359 582.329 139.02 582.224 138.722C582.122 138.423 581.97 138.187 581.768 138.014C581.566 137.841 581.315 137.754 581.014 137.754C580.71 137.754 580.454 137.841 580.247 138.014C580.042 138.187 579.887 138.423 579.782 138.722C579.68 139.02 579.629 139.359 579.629 139.74C579.629 140.121 579.68 140.46 579.782 140.759C579.887 141.057 580.042 141.293 580.247 141.466C580.454 141.636 580.71 141.722 581.014 141.722ZM588.927 136.455V137.818H584.887V136.455H588.927ZM585.812 143V135.982C585.812 135.507 585.904 135.114 586.089 134.801C586.276 134.489 586.532 134.254 586.856 134.098C587.18 133.942 587.548 133.864 587.96 133.864C588.238 133.864 588.492 133.885 588.722 133.928C588.955 133.97 589.129 134.009 589.242 134.043L588.918 135.406C588.847 135.384 588.759 135.362 588.654 135.342C588.552 135.322 588.447 135.312 588.339 135.312C588.072 135.312 587.886 135.375 587.781 135.5C587.676 135.622 587.623 135.794 587.623 136.016V143H585.812ZM593.517 136.455V137.818H589.576V136.455H593.517ZM590.471 134.886H592.286V140.989C592.286 141.156 592.312 141.287 592.363 141.381C592.414 141.472 592.485 141.536 592.576 141.572C592.669 141.609 592.777 141.628 592.9 141.628C592.985 141.628 593.07 141.621 593.155 141.607C593.241 141.589 593.306 141.577 593.351 141.568L593.637 142.919C593.546 142.947 593.418 142.98 593.253 143.017C593.089 143.057 592.888 143.081 592.652 143.089C592.215 143.107 591.831 143.048 591.502 142.915C591.175 142.781 590.921 142.574 590.739 142.293C590.557 142.011 590.468 141.656 590.471 141.227V134.886ZM600.686 143.119C600.05 143.119 599.483 143.01 598.986 142.791C598.492 142.57 598.101 142.266 597.814 141.879C597.53 141.49 597.384 141.041 597.375 140.533H599.233C599.244 140.746 599.314 140.933 599.442 141.095C599.573 141.254 599.746 141.378 599.962 141.466C600.178 141.554 600.421 141.598 600.69 141.598C600.972 141.598 601.22 141.548 601.436 141.449C601.652 141.349 601.821 141.212 601.943 141.036C602.065 140.859 602.127 140.656 602.127 140.426C602.127 140.193 602.061 139.987 601.93 139.808C601.803 139.626 601.618 139.484 601.377 139.382C601.138 139.28 600.854 139.229 600.524 139.229H599.71V137.874H600.524C600.803 137.874 601.048 137.825 601.261 137.729C601.477 137.632 601.645 137.499 601.764 137.328C601.884 137.155 601.943 136.953 601.943 136.723C601.943 136.504 601.891 136.312 601.786 136.148C601.683 135.98 601.538 135.849 601.351 135.756C601.166 135.662 600.95 135.615 600.703 135.615C600.453 135.615 600.225 135.661 600.017 135.751C599.81 135.839 599.644 135.966 599.519 136.131C599.394 136.295 599.327 136.489 599.318 136.71H597.55C597.558 136.207 597.702 135.764 597.98 135.381C598.259 134.997 598.634 134.697 599.105 134.482C599.58 134.263 600.115 134.153 600.712 134.153C601.314 134.153 601.841 134.263 602.293 134.482C602.744 134.7 603.095 134.996 603.345 135.368C603.598 135.737 603.723 136.152 603.72 136.612C603.723 137.101 603.571 137.509 603.264 137.835C602.96 138.162 602.564 138.369 602.075 138.457V138.526C602.717 138.608 603.206 138.831 603.541 139.195C603.879 139.555 604.047 140.007 604.044 140.55C604.047 141.047 603.903 141.489 603.614 141.875C603.327 142.261 602.93 142.565 602.425 142.787C601.919 143.009 601.34 143.119 600.686 143.119ZM608.72 143.119C608.271 143.116 607.838 143.041 607.42 142.893C607.005 142.746 606.633 142.506 606.304 142.173C605.974 141.841 605.713 141.401 605.52 140.852C605.329 140.304 605.234 139.631 605.234 138.832C605.237 138.099 605.321 137.445 605.486 136.868C605.653 136.288 605.892 135.797 606.201 135.393C606.514 134.99 606.888 134.683 607.322 134.473C607.757 134.26 608.244 134.153 608.784 134.153C609.366 134.153 609.88 134.267 610.326 134.494C610.772 134.719 611.13 135.024 611.4 135.411C611.673 135.797 611.838 136.23 611.895 136.71H610.075C610.004 136.406 609.855 136.168 609.628 135.994C609.4 135.821 609.119 135.734 608.784 135.734C608.216 135.734 607.784 135.982 607.488 136.476C607.196 136.97 607.047 137.642 607.041 138.491H607.101C607.231 138.233 607.407 138.013 607.629 137.831C607.853 137.646 608.108 137.506 608.392 137.409C608.679 137.31 608.981 137.26 609.299 137.26C609.816 137.26 610.277 137.382 610.68 137.626C611.084 137.868 611.402 138.2 611.635 138.624C611.868 139.047 611.984 139.531 611.984 140.077C611.984 140.668 611.846 141.193 611.571 141.653C611.298 142.114 610.916 142.474 610.424 142.736C609.936 142.994 609.368 143.122 608.72 143.119ZM608.711 141.67C608.995 141.67 609.25 141.602 609.474 141.466C609.699 141.33 609.875 141.145 610.003 140.912C610.13 140.679 610.194 140.418 610.194 140.128C610.194 139.838 610.13 139.578 610.003 139.348C609.878 139.118 609.704 138.935 609.483 138.798C609.261 138.662 609.008 138.594 608.724 138.594C608.511 138.594 608.314 138.634 608.132 138.713C607.953 138.793 607.795 138.903 607.659 139.045C607.525 139.187 607.42 139.352 607.343 139.54C607.267 139.724 607.228 139.922 607.228 140.132C607.228 140.413 607.292 140.67 607.42 140.903C607.551 141.136 607.727 141.322 607.949 141.462C608.173 141.601 608.427 141.67 608.711 141.67ZM616.48 143.119C615.878 143.119 615.341 143.009 614.869 142.787C614.4 142.565 614.028 142.26 613.753 141.871C613.477 141.482 613.334 141.036 613.322 140.533H615.112C615.132 140.871 615.274 141.145 615.538 141.355C615.802 141.565 616.116 141.67 616.48 141.67C616.77 141.67 617.025 141.607 617.247 141.479C617.471 141.348 617.646 141.168 617.771 140.938C617.899 140.705 617.963 140.437 617.963 140.136C617.963 139.83 617.897 139.56 617.767 139.327C617.639 139.094 617.461 138.912 617.234 138.781C617.007 138.651 616.747 138.584 616.454 138.581C616.199 138.581 615.95 138.634 615.709 138.739C615.47 138.844 615.284 138.987 615.15 139.169L613.51 138.875L613.923 134.273H619.258V135.781H615.444L615.218 137.967H615.27C615.423 137.751 615.655 137.572 615.964 137.43C616.274 137.288 616.62 137.217 617.004 137.217C617.53 137.217 617.998 137.341 618.41 137.588C618.822 137.835 619.147 138.175 619.386 138.607C619.625 139.036 619.743 139.53 619.74 140.089C619.743 140.678 619.606 141.2 619.331 141.658C619.058 142.112 618.676 142.47 618.184 142.732C617.696 142.99 617.128 143.119 616.48 143.119Z" fill="black"/>
<path d="M522.707 81.7071C523.098 81.3166 523.098 80.6834 522.707 80.2929L516.343 73.9289C515.953 73.5384 515.319 73.5384 514.929 73.9289C514.538 74.3195 514.538 74.9526 514.929 75.3432L520.586 81L514.929 86.6569C514.538 87.0474 514.538 87.6805 514.929 88.0711C515.319 88.4616 515.953 88.4616 516.343 88.0711L522.707 81.7071ZM522 80L456 80L456 82L522 82L522 80Z" fill="black"/>
<g clip-path="url(#clip0_0_1)">
<path d="M569.873 42.8186L569.474 43.0595C568.839 43.4428 568.242 43.8713 567.684 44.3396L568.834 43.5314H578.598L580.373 56.9545L571.498 65.8182L562.623 71.9791V79.0833C562.623 84.0452 565.22 88.6463 569.47 91.2157L578.813 96.8638L559.073 108.364H555.266L548.17 104.074C543.92 101.505 541.323 96.9038 541.323 91.942V68.0529C541.323 63.0894 543.921 58.4871 548.174 55.9182L569.474 43.0508C569.606 42.9711 569.739 42.8937 569.873 42.8186Z" fill="url(#paint0_radial_0_1)"/>
<path d="M569.873 42.8186L569.474 43.0595C568.839 43.4428 568.242 43.8713 567.684 44.3396L568.834 43.5314H578.598L580.373 56.9545L571.498 65.8182L562.623 71.9791V79.0833C562.623 84.0452 565.22 88.6463 569.47 91.2157L578.813 96.8638L559.073 108.364H555.266L548.17 104.074C543.92 101.505 541.323 96.9038 541.323 91.942V68.0529C541.323 63.0894 543.921 58.4871 548.174 55.9182L569.474 43.0508C569.606 42.9711 569.739 42.8937 569.873 42.8186Z" fill="url(#paint1_linear_0_1)"/>
<path d="M591.023 71.1365V79.0788C591.023 84.0407 588.427 88.6418 584.176 91.2112L562.876 104.088C558.519 106.722 553.098 106.817 548.664 104.373L569.47 116.951C573.99 119.684 579.656 119.684 584.176 116.951L605.476 104.074C609.727 101.505 612.323 96.9038 612.323 91.9419V86.2047L610.548 83.5456L591.023 71.1365Z" fill="url(#paint2_radial_0_1)"/>
<path d="M591.023 71.1365V79.0788C591.023 84.0407 588.427 88.6418 584.176 91.2112L562.876 104.088C558.519 106.722 553.098 106.817 548.664 104.373L569.47 116.951C573.99 119.684 579.656 119.684 584.176 116.951L605.476 104.074C609.727 101.505 612.323 96.9038 612.323 91.9419V86.2047L610.548 83.5456L591.023 71.1365Z" fill="url(#paint3_linear_0_1)"/>
<path d="M605.473 55.918L584.173 43.0506C579.794 40.4056 574.342 40.3236 569.897 42.8048L569.474 43.0604C565.222 45.6293 562.623 50.2316 562.623 55.1951V72.0074L569.474 67.8688C573.992 65.1394 579.654 65.1394 584.173 67.8688L605.473 80.7362C609.592 83.2249 612.159 87.6216 612.316 92.4064C612.321 92.2518 612.323 92.097 612.323 91.9418V68.0527C612.323 63.0892 609.725 58.4868 605.473 55.918Z" fill="url(#paint4_radial_0_1)"/>
<path d="M605.473 55.918L584.173 43.0506C579.794 40.4056 574.342 40.3236 569.897 42.8048L569.474 43.0604C565.222 45.6293 562.623 50.2316 562.623 55.1951V72.0074L569.474 67.8688C573.992 65.1394 579.654 65.1394 584.173 67.8688L605.473 80.7362C609.592 83.2249 612.159 87.6216 612.316 92.4064C612.321 92.2518 612.323 92.097 612.323 91.9418V68.0527C612.323 63.0892 609.725 58.4868 605.473 55.918Z" fill="url(#paint5_linear_0_1)"/>
</g>
<path d="M697.975 81.9C698.365 81.5095 698.365 80.8763 697.975 80.4858L691.611 74.1218C691.22 73.7313 690.587 73.7313 690.197 74.1218C689.806 74.5123 689.806 75.1455 690.197 75.536L695.854 81.1929L690.197 86.8497C689.806 87.2403 689.806 87.8734 690.197 88.2639C690.587 88.6545 691.22 88.6545 691.611 88.2639L697.975 81.9ZM697.268 80.1929L631.268 80.1929L631.268 82.1929L697.268 82.1929L697.268 80.1929Z" fill="black"/>
<path d="M156.384 98.4092H158.659L161.062 104.273H161.165L163.568 98.4092H165.844V107.136H164.054V101.456H163.982L161.723 107.094H160.504L158.246 101.435H158.173V107.136H156.384V98.4092ZM169.094 98.4092L170.854 101.384H170.922L172.691 98.4092H174.775L172.111 102.773L174.834 107.136H172.712L170.922 104.158H170.854L169.064 107.136H166.951L169.682 102.773L167.002 98.4092H169.094ZM178.685 107.136V100.591H180.445V101.733H180.513C180.633 101.327 180.833 101.02 181.114 100.813C181.396 100.602 181.719 100.497 182.086 100.497C182.177 100.497 182.275 100.503 182.38 100.514C182.485 100.526 182.577 100.541 182.657 100.561V102.172C182.572 102.146 182.454 102.124 182.303 102.104C182.153 102.084 182.015 102.074 181.89 102.074C181.623 102.074 181.384 102.132 181.174 102.249C180.967 102.362 180.802 102.521 180.68 102.726C180.56 102.931 180.501 103.166 180.501 103.433V107.136H178.685ZM186.274 107.264C185.6 107.264 185.021 107.128 184.535 106.855C184.052 106.58 183.68 106.19 183.419 105.688C183.157 105.182 183.027 104.584 183.027 103.894C183.027 103.22 183.157 102.629 183.419 102.121C183.68 101.612 184.048 101.216 184.522 100.932C185 100.648 185.559 100.506 186.201 100.506C186.633 100.506 187.035 100.575 187.407 100.715C187.782 100.851 188.109 101.057 188.387 101.332C188.669 101.608 188.887 101.955 189.044 102.372C189.2 102.787 189.278 103.273 189.278 103.83V104.328H183.751V103.203H187.569C187.569 102.942 187.512 102.71 187.399 102.509C187.285 102.307 187.127 102.149 186.926 102.036C186.727 101.919 186.495 101.861 186.231 101.861C185.956 101.861 185.711 101.925 185.498 102.053C185.288 102.178 185.123 102.347 185.004 102.56C184.885 102.77 184.824 103.004 184.821 103.263V104.332C184.821 104.656 184.88 104.936 185 105.172C185.122 105.408 185.294 105.59 185.515 105.717C185.737 105.845 186 105.909 186.304 105.909C186.505 105.909 186.69 105.881 186.858 105.824C187.025 105.767 187.169 105.682 187.288 105.568C187.407 105.455 187.498 105.315 187.561 105.151L189.24 105.261C189.154 105.665 188.98 106.017 188.716 106.318C188.454 106.617 188.116 106.85 187.701 107.017C187.289 107.182 186.814 107.264 186.274 107.264ZM193.42 107.264C192.75 107.264 192.173 107.122 191.69 106.838C191.21 106.551 190.841 106.154 190.582 105.645C190.326 105.136 190.199 104.551 190.199 103.889C190.199 103.219 190.328 102.631 190.586 102.125C190.848 101.617 191.218 101.22 191.699 100.936C192.179 100.649 192.75 100.506 193.412 100.506C193.983 100.506 194.483 100.609 194.912 100.817C195.341 101.024 195.68 101.315 195.93 101.69C196.18 102.065 196.318 102.506 196.343 103.011H194.63C194.582 102.685 194.454 102.422 194.247 102.223C194.042 102.021 193.774 101.921 193.441 101.921C193.16 101.921 192.914 101.997 192.704 102.151C192.497 102.301 192.335 102.521 192.218 102.811C192.102 103.101 192.044 103.452 192.044 103.864C192.044 104.281 192.1 104.636 192.214 104.929C192.331 105.222 192.494 105.445 192.704 105.598C192.914 105.752 193.16 105.828 193.441 105.828C193.649 105.828 193.835 105.786 194 105.7C194.167 105.615 194.305 105.492 194.413 105.33C194.524 105.165 194.596 104.967 194.63 104.737H196.343C196.315 105.237 196.179 105.678 195.934 106.058C195.693 106.436 195.359 106.732 194.933 106.945C194.507 107.158 194.002 107.264 193.42 107.264ZM200.463 107.264C199.801 107.264 199.229 107.124 198.746 106.842C198.266 106.558 197.895 106.163 197.634 105.658C197.372 105.149 197.241 104.56 197.241 103.889C197.241 103.213 197.372 102.622 197.634 102.117C197.895 101.608 198.266 101.213 198.746 100.932C199.229 100.648 199.801 100.506 200.463 100.506C201.125 100.506 201.696 100.648 202.176 100.932C202.659 101.213 203.031 101.608 203.293 102.117C203.554 102.622 203.685 103.213 203.685 103.889C203.685 104.56 203.554 105.149 203.293 105.658C203.031 106.163 202.659 106.558 202.176 106.842C201.696 107.124 201.125 107.264 200.463 107.264ZM200.472 105.858C200.773 105.858 201.024 105.773 201.226 105.602C201.428 105.429 201.58 105.193 201.682 104.895C201.787 104.597 201.839 104.257 201.839 103.877C201.839 103.496 201.787 103.156 201.682 102.858C201.58 102.56 201.428 102.324 201.226 102.151C201.024 101.977 200.773 101.891 200.472 101.891C200.168 101.891 199.912 101.977 199.705 102.151C199.5 102.324 199.345 102.56 199.24 102.858C199.138 103.156 199.087 103.496 199.087 103.877C199.087 104.257 199.138 104.597 199.24 104.895C199.345 105.193 199.5 105.429 199.705 105.602C199.912 105.773 200.168 105.858 200.472 105.858ZM204.865 107.136V100.591H206.625V101.733H206.693C206.813 101.327 207.013 101.02 207.294 100.813C207.575 100.602 207.899 100.497 208.266 100.497C208.357 100.497 208.455 100.503 208.56 100.514C208.665 100.526 208.757 100.541 208.837 100.561V102.172C208.751 102.146 208.634 102.124 208.483 102.104C208.332 102.084 208.195 102.074 208.07 102.074C207.803 102.074 207.564 102.132 207.354 102.249C207.146 102.362 206.982 102.521 206.859 102.726C206.74 102.931 206.68 103.166 206.68 103.433V107.136H204.865ZM211.882 107.243C211.385 107.243 210.935 107.115 210.532 106.859C210.131 106.601 209.813 106.222 209.577 105.722C209.344 105.219 209.228 104.602 209.228 103.872C209.228 103.122 209.348 102.499 209.59 102.002C209.831 101.502 210.152 101.128 210.553 100.881C210.956 100.631 211.398 100.506 211.878 100.506C212.245 100.506 212.55 100.568 212.794 100.693C213.042 100.815 213.24 100.969 213.391 101.154C213.544 101.335 213.661 101.514 213.74 101.69H213.796V98.4092H215.607V107.136H213.817V106.088H213.74C213.655 106.27 213.534 106.45 213.378 106.629C213.225 106.806 213.025 106.952 212.777 107.068C212.533 107.185 212.235 107.243 211.882 107.243ZM212.458 105.798C212.75 105.798 212.998 105.719 213.199 105.56C213.404 105.398 213.56 105.172 213.668 104.882C213.779 104.592 213.834 104.253 213.834 103.864C213.834 103.475 213.78 103.136 213.672 102.85C213.564 102.563 213.408 102.341 213.203 102.185C212.999 102.029 212.75 101.95 212.458 101.95C212.159 101.95 211.908 102.031 211.703 102.193C211.499 102.355 211.344 102.58 211.239 102.867C211.134 103.154 211.081 103.486 211.081 103.864C211.081 104.244 211.134 104.581 211.239 104.874C211.347 105.163 211.502 105.391 211.703 105.556C211.908 105.717 212.159 105.798 212.458 105.798Z" fill="black"/>
<circle cx="375.866" cy="81.6094" r="65.6094" stroke="#F6821F" stroke-width="2"/>
<rect x="321.944" y="134.263" width="107.844" height="52.0187" rx="20.5" fill="white"/>
<path d="M354.267 151.547H352.401C352.367 151.305 352.297 151.091 352.192 150.903C352.087 150.713 351.952 150.551 351.787 150.418C351.623 150.284 351.432 150.182 351.216 150.111C351.003 150.04 350.772 150.004 350.522 150.004C350.07 150.004 349.676 150.116 349.341 150.341C349.006 150.562 348.746 150.886 348.561 151.312C348.377 151.736 348.284 152.25 348.284 152.855C348.284 153.477 348.377 154 348.561 154.423C348.749 154.847 349.01 155.166 349.346 155.382C349.681 155.598 350.069 155.706 350.509 155.706C350.756 155.706 350.985 155.673 351.195 155.608C351.408 155.543 351.597 155.447 351.762 155.322C351.926 155.195 352.063 155.04 352.171 154.858C352.282 154.676 352.358 154.469 352.401 154.236L354.267 154.244C354.219 154.645 354.098 155.031 353.905 155.403C353.715 155.773 353.458 156.104 353.134 156.396C352.813 156.686 352.429 156.916 351.983 157.087C351.54 157.254 351.039 157.338 350.479 157.338C349.701 157.338 349.005 157.162 348.391 156.81C347.78 156.457 347.297 155.947 346.942 155.28C346.59 154.612 346.414 153.804 346.414 152.855C346.414 151.903 346.593 151.094 346.951 150.426C347.309 149.759 347.794 149.25 348.408 148.901C349.022 148.548 349.712 148.372 350.479 148.372C350.985 148.372 351.453 148.443 351.885 148.585C352.32 148.727 352.705 148.935 353.04 149.207C353.375 149.477 353.648 149.808 353.858 150.2C354.071 150.592 354.208 151.041 354.267 151.547ZM357.372 148.491V157.219H355.556V148.491H357.372ZM361.783 157.347C361.121 157.347 360.549 157.206 360.066 156.925C359.586 156.641 359.215 156.246 358.954 155.74C358.692 155.232 358.562 154.642 358.562 153.972C358.562 153.295 358.692 152.705 358.954 152.199C359.215 151.69 359.586 151.295 360.066 151.014C360.549 150.73 361.121 150.588 361.783 150.588C362.445 150.588 363.016 150.73 363.496 151.014C363.979 151.295 364.352 151.69 364.613 152.199C364.874 152.705 365.005 153.295 365.005 153.972C365.005 154.642 364.874 155.232 364.613 155.74C364.352 156.246 363.979 156.641 363.496 156.925C363.016 157.206 362.445 157.347 361.783 157.347ZM361.792 155.94C362.093 155.94 362.344 155.855 362.546 155.685C362.748 155.511 362.9 155.276 363.002 154.977C363.107 154.679 363.16 154.339 363.16 153.959C363.16 153.578 363.107 153.239 363.002 152.94C362.9 152.642 362.748 152.406 362.546 152.233C362.344 152.06 362.093 151.973 361.792 151.973C361.488 151.973 361.232 152.06 361.025 152.233C360.82 152.406 360.665 152.642 360.56 152.94C360.458 153.239 360.407 153.578 360.407 153.959C360.407 154.339 360.458 154.679 360.56 154.977C360.665 155.276 360.82 155.511 361.025 155.685C361.232 155.855 361.488 155.94 361.792 155.94ZM370.383 154.432V150.673H372.198V157.219H370.455V156.03H370.387C370.239 156.413 369.994 156.722 369.65 156.955C369.309 157.187 368.893 157.304 368.401 157.304C367.964 157.304 367.579 157.205 367.246 157.006C366.914 156.807 366.654 156.524 366.467 156.158C366.282 155.791 366.188 155.352 366.185 154.841V150.673H368.001V154.517C368.004 154.903 368.107 155.209 368.312 155.433C368.516 155.658 368.79 155.77 369.134 155.77C369.353 155.77 369.558 155.72 369.748 155.621C369.938 155.518 370.092 155.368 370.208 155.169C370.327 154.97 370.386 154.724 370.383 154.432ZM376.062 157.325C375.565 157.325 375.115 157.197 374.711 156.942C374.311 156.683 373.993 156.304 373.757 155.804C373.524 155.301 373.407 154.685 373.407 153.955C373.407 153.205 373.528 152.581 373.77 152.084C374.011 151.584 374.332 151.21 374.733 150.963C375.136 150.713 375.578 150.588 376.058 150.588C376.424 150.588 376.73 150.651 376.974 150.776C377.221 150.898 377.42 151.051 377.571 151.236C377.724 151.418 377.841 151.597 377.92 151.773H377.975V148.491H379.787V157.219H377.997V156.17H377.92C377.835 156.352 377.714 156.533 377.558 156.712C377.404 156.888 377.204 157.034 376.957 157.151C376.713 157.267 376.414 157.325 376.062 157.325ZM376.637 155.881C376.93 155.881 377.177 155.801 377.379 155.642C377.583 155.48 377.74 155.254 377.848 154.964C377.958 154.675 378.014 154.335 378.014 153.946C378.014 153.557 377.96 153.219 377.852 152.932C377.744 152.645 377.588 152.423 377.383 152.267C377.179 152.111 376.93 152.033 376.637 152.033C376.339 152.033 376.088 152.114 375.883 152.276C375.679 152.437 375.524 152.662 375.419 152.949C375.314 153.236 375.261 153.568 375.261 153.946C375.261 154.327 375.314 154.663 375.419 154.956C375.527 155.246 375.681 155.473 375.883 155.638C376.088 155.8 376.339 155.881 376.637 155.881ZM384.799 150.673V152.037H380.759V150.673H384.799ZM381.684 157.219V150.2C381.684 149.726 381.776 149.332 381.961 149.02C382.148 148.707 382.404 148.473 382.728 148.317C383.052 148.161 383.42 148.082 383.832 148.082C384.11 148.082 384.364 148.104 384.594 148.146C384.827 148.189 385.001 148.227 385.114 148.261L384.79 149.625C384.719 149.602 384.631 149.581 384.526 149.561C384.424 149.541 384.319 149.531 384.211 149.531C383.944 149.531 383.758 149.594 383.653 149.719C383.548 149.841 383.495 150.013 383.495 150.234V157.219H381.684ZM387.723 148.491V157.219H385.908V148.491H387.723ZM391.044 157.342C390.626 157.342 390.254 157.27 389.928 157.125C389.601 156.977 389.342 156.76 389.152 156.473C388.964 156.183 388.871 155.822 388.871 155.391C388.871 155.027 388.938 154.722 389.071 154.474C389.205 154.227 389.386 154.028 389.616 153.878C389.847 153.727 390.108 153.614 390.401 153.537C390.696 153.46 391.006 153.406 391.33 153.375C391.71 153.335 392.017 153.298 392.25 153.264C392.483 153.227 392.652 153.173 392.757 153.102C392.862 153.031 392.915 152.926 392.915 152.787V152.761C392.915 152.491 392.83 152.283 392.659 152.135C392.491 151.987 392.253 151.913 391.943 151.913C391.616 151.913 391.357 151.986 391.163 152.131C390.97 152.273 390.842 152.452 390.78 152.668L389.101 152.531C389.186 152.134 389.354 151.79 389.604 151.5C389.854 151.207 390.176 150.983 390.571 150.827C390.969 150.668 391.429 150.588 391.952 150.588C392.315 150.588 392.663 150.631 392.996 150.716C393.331 150.801 393.628 150.933 393.886 151.112C394.148 151.291 394.354 151.521 394.504 151.803C394.655 152.081 394.73 152.415 394.73 152.804V157.219H393.009V156.311H392.957C392.852 156.516 392.712 156.696 392.536 156.852C392.359 157.006 392.148 157.126 391.901 157.214C391.653 157.3 391.368 157.342 391.044 157.342ZM391.564 156.089C391.831 156.089 392.067 156.037 392.271 155.932C392.476 155.824 392.636 155.679 392.753 155.497C392.869 155.315 392.928 155.109 392.928 154.879V154.185C392.871 154.222 392.793 154.256 392.693 154.287C392.597 154.315 392.487 154.342 392.365 154.368C392.243 154.391 392.121 154.412 391.999 154.432C391.876 154.449 391.766 154.464 391.666 154.479C391.453 154.51 391.267 154.56 391.108 154.628C390.949 154.696 390.825 154.788 390.737 154.905C390.649 155.018 390.605 155.161 390.605 155.331C390.605 155.578 390.695 155.767 390.874 155.898C391.055 156.026 391.286 156.089 391.564 156.089ZM396.138 157.219V150.673H397.898V151.815H397.967C398.086 151.409 398.286 151.102 398.567 150.895C398.849 150.685 399.173 150.58 399.539 150.58C399.63 150.58 399.728 150.585 399.833 150.597C399.938 150.608 400.031 150.624 400.11 150.643V152.254C400.025 152.229 399.907 152.206 399.756 152.186C399.606 152.166 399.468 152.156 399.343 152.156C399.076 152.156 398.837 152.214 398.627 152.331C398.42 152.445 398.255 152.604 398.133 152.808C398.013 153.013 397.954 153.249 397.954 153.516V157.219H396.138ZM403.727 157.347C403.054 157.347 402.474 157.21 401.988 156.938C401.505 156.662 401.133 156.273 400.872 155.77C400.61 155.264 400.48 154.666 400.48 153.976C400.48 153.303 400.61 152.712 400.872 152.203C401.133 151.695 401.501 151.298 401.975 151.014C402.453 150.73 403.012 150.588 403.654 150.588C404.086 150.588 404.488 150.658 404.86 150.797C405.235 150.933 405.562 151.139 405.841 151.415C406.122 151.69 406.341 152.037 406.497 152.455C406.653 152.869 406.731 153.355 406.731 153.912V154.411H401.204V153.286H405.022C405.022 153.024 404.966 152.793 404.852 152.591C404.738 152.389 404.581 152.232 404.379 152.118C404.18 152.001 403.949 151.943 403.684 151.943C403.409 151.943 403.164 152.007 402.951 152.135C402.741 152.26 402.576 152.429 402.457 152.642C402.338 152.852 402.277 153.087 402.274 153.345V154.415C402.274 154.739 402.333 155.018 402.453 155.254C402.575 155.49 402.747 155.672 402.968 155.8C403.19 155.928 403.453 155.991 403.757 155.991C403.958 155.991 404.143 155.963 404.311 155.906C404.478 155.849 404.622 155.764 404.741 155.651C404.86 155.537 404.951 155.398 405.014 155.233L406.693 155.344C406.608 155.747 406.433 156.099 406.169 156.401C405.907 156.699 405.569 156.932 405.154 157.099C404.743 157.264 404.267 157.347 403.727 157.347Z" fill="#222222"/>
<path d="M387.78 91.6179C388.163 90.3052 388.017 89.102 387.379 88.2086C386.795 87.3882 385.811 86.9142 384.626 86.8595L362.188 86.5678C362.043 86.5678 361.915 86.4949 361.842 86.3855C361.769 86.2761 361.751 86.1302 361.787 85.9844C361.86 85.7656 362.079 85.6015 362.316 85.5833L384.955 85.2916C387.634 85.164 390.55 82.9944 391.571 80.3326L392.865 76.9598C392.92 76.814 392.938 76.6681 392.902 76.5223C391.443 69.9225 385.556 65 378.52 65C372.031 65 366.527 69.1932 364.558 75.0091C363.282 74.061 361.66 73.5505 359.91 73.7146C356.793 74.0246 354.296 76.5223 353.986 79.6398C353.913 80.442 353.968 81.226 354.15 81.9552C349.065 82.1011 345 86.2579 345 91.3809C345 91.8367 345.036 92.2925 345.091 92.7482C345.128 92.967 345.31 93.1311 345.529 93.1311H386.941C387.178 93.1311 387.397 92.967 387.47 92.73L387.78 91.6179Z" fill="#F38020"/>
<path d="M394.925 77.1968C394.724 77.1968 394.506 77.1968 394.305 77.215C394.159 77.215 394.032 77.3244 393.977 77.4702L393.102 80.5149C392.719 81.8276 392.865 83.0308 393.503 83.9242C394.087 84.7446 395.071 85.2186 396.256 85.2733L401.031 85.565C401.177 85.565 401.305 85.6379 401.377 85.7473C401.45 85.8567 401.469 86.0208 401.432 86.1484C401.359 86.3672 401.141 86.5313 400.904 86.5495L395.927 86.8412C393.23 86.9688 390.332 89.1384 389.311 91.8002L388.946 92.73C388.873 92.9123 389.001 93.0946 389.202 93.0946H406.299C406.499 93.0946 406.682 92.967 406.736 92.7664C407.028 91.709 407.192 90.5969 407.192 89.4483C407.192 82.7027 401.687 77.1968 394.925 77.1968Z" fill="#FAAE40"/>
<path d="M319.453 51.3594H245.279V102.603H319.453V51.3594Z" fill="#B8E9F4"/>
<path d="M314.689 54.8691H250.062V97.736H314.689V54.8691Z" fill="white"/>
<path d="M282.252 82.0248L245.897 51.2952H318.607L282.252 82.0248Z" fill="#B8E9F4"/>
<path d="M256.826 55.4319H307.677L282.251 76.5937L256.826 55.4319Z" fill="white"/>
<path d="M320.772 104.001H244V50H320.772V104.001ZM245.485 102.497H319.287V51.5041H245.485V102.497Z" fill="#0057E1"/>
<path d="M282.294 83.5509L244.248 51.3172L245.217 50.1682L282.294 81.5872L319.535 50.1682L320.505 51.3172L282.294 83.5509Z" fill="#0057E1"/>
<path d="M276.597 77.5477L244.277 102.617L245.18 103.811L277.5 78.7419L276.597 77.5477Z" fill="#0057E1"/>
<path d="M288.16 77.5791L287.257 78.7732L319.573 103.848L320.476 102.654L288.16 77.5791Z" fill="#0057E1"/>
<path d="M316.813 117.748C316.112 117.393 299.801 108.932 299.801 91.5726V76.7405L303.966 76.1347C310.916 75.132 315.184 70.6614 315.39 70.4525L318.978 66.3789L322.608 70.4734C322.608 70.4734 326.938 75.1111 334.011 76.1347L338.177 76.7405V91.5726C338.177 108.932 321.865 117.393 321.164 117.748L318.999 118.855L316.834 117.748H316.813Z" fill="#BBECF7"/>
<path d="M318.999 119.693L316.503 118.418C315.782 118.063 299.079 109.394 299.079 91.5743V76.0946L303.883 75.4052C310.606 74.4234 314.689 70.12 314.874 69.9529L318.999 65.2734L323.185 69.9946C323.185 69.9946 327.391 74.4443 334.134 75.4261L338.939 76.1155V91.5952C338.939 109.415 322.215 118.084 321.514 118.439L319.019 119.714L318.999 119.693ZM300.563 77.4107V91.5743C300.563 108.475 316.483 116.726 317.163 117.081L318.999 118.021L320.834 117.081C321.514 116.747 337.434 108.495 337.434 91.5743V77.4107L333.908 76.9093C326.587 75.8439 322.092 71.0392 322.05 70.9974L318.978 67.5296L315.947 70.9765C315.74 71.1854 311.307 75.8648 304.069 76.9093L300.543 77.4107H300.563Z" fill="#0053ED"/>
<path d="M318.999 113.258L318.463 112.987C317.906 112.694 304.729 105.863 304.729 92.0336V81.3587L305.74 81.2124C313.493 80.0843 318.051 75.0289 318.092 74.9871L318.979 73.9844L319.865 74.9871C319.865 74.9871 324.464 80.0843 332.217 81.2124L333.228 81.3587V92.0336C333.228 105.863 320.051 112.694 319.494 112.987L318.958 113.258H318.999Z" fill="white"/>
<path d="M316.772 101.914L309.369 94.9572L310.709 93.474L316.545 98.9472L326.753 85.8281L328.299 87.0815L316.772 101.914Z" fill="#FF7100"/>
<path d="M799.378 81.2393C799.382 80.5956 799.05 79.9965 798.501 79.6599H798.491L798.457 79.6408L769.927 62.7558C769.804 62.6725 769.676 62.5965 769.544 62.528C768.443 61.9598 767.134 61.9598 766.033 62.528C765.901 62.5965 765.773 62.6725 765.65 62.7558L737.12 79.6408L737.086 79.6599C736.214 80.2021 735.946 81.3483 736.489 82.2201C736.648 82.477 736.868 82.691 737.13 82.8436L765.659 99.7286C765.783 99.8111 765.911 99.8872 766.042 99.9564C767.144 100.525 768.452 100.525 769.554 99.9564C769.686 99.8872 769.813 99.8111 769.937 99.7286L798.467 82.8436C799.037 82.5113 799.384 81.8989 799.378 81.2393Z" fill="#0A2767"/>
<path d="M740.422 69.953H759.167V87.1263H740.422V69.953ZM795.59 52.4961V44.6404C795.635 42.6763 794.079 41.0471 792.114 41H743.472C741.507 41.0471 739.952 42.6763 739.997 44.6404V52.4961L768.752 60.1602L795.59 52.4961Z" fill="#0364B8"/>
<path d="M739.996 52.4978H759.204V69.6768H739.996V52.4978Z" fill="#0078D4"/>
<path d="M778.355 52.4978H759.204V69.7444L778.355 86.9911H795.591V69.7444L778.355 52.4978Z" fill="#28A8EA"/>
<path d="M759.204 69.6768H778.276V86.991H759.204V69.6768Z" fill="#0078D4"/>
<path d="M759.204 86.9912H778.276V104.17H759.204V86.9912Z" fill="#0364B8"/>
<path d="M740.401 87.1265H759.203V102.682H740.401V87.1265Z" fill="#14447D"/>
<path d="M778.276 86.9912H795.591V104.17H778.276V86.9912Z" fill="#0078D4"/>
<path d="M798.501 82.6741L798.465 82.6933L769.943 98.7418C769.818 98.8184 769.692 98.8911 769.56 98.9563C769.075 99.1871 768.549 99.3174 768.013 99.3393L766.455 98.4277C766.323 98.3616 766.195 98.2881 766.072 98.2075L737.167 81.7031H737.154L736.208 81.1746V113.662C736.223 115.83 737.991 117.575 740.157 117.562H795.49C795.523 117.562 795.552 117.546 795.586 117.546C796.044 117.517 796.495 117.423 796.926 117.267C797.112 117.188 797.292 117.094 797.464 116.987C797.592 116.914 797.812 116.755 797.812 116.755C798.793 116.029 799.373 114.883 799.378 113.662V81.1746C799.377 81.796 799.042 82.3689 798.501 82.6741Z" fill="url(#paint6_linear_0_1)"/>
<path opacity="0.5" d="M797.89 81.1114V83.1016L767.992 103.629L737.038 81.7811C737.038 81.7706 737.03 81.762 737.019 81.762L734.179 80.0589V78.6236L735.35 78.6045L737.825 80.0206L737.883 80.0397L738.094 80.1737C738.094 80.1737 767.186 96.7266 767.263 96.7648L768.376 97.4154C768.472 97.3772 768.568 97.3389 768.683 97.3006C768.74 97.2623 797.564 81.0922 797.564 81.0922L797.89 81.1114Z" fill="#0A2767"/>
<path d="M798.501 82.6741L798.465 82.6951L769.943 98.7437C769.818 98.8203 769.692 98.893 769.56 98.9582C768.452 99.4995 767.157 99.4995 766.049 98.9582C765.918 98.8932 765.79 98.8216 765.666 98.7437L737.144 82.6951L737.11 82.6741C736.559 82.3754 736.214 81.8012 736.208 81.1746V113.662C736.222 115.83 737.989 117.575 740.155 117.562C740.155 117.562 740.155 117.562 740.155 117.562H795.431C797.597 117.575 799.364 115.83 799.378 113.663C799.378 113.663 799.378 113.662 799.378 113.662V81.1746C799.377 81.796 799.042 82.3689 798.501 82.6741Z" fill="#1490DF"/>
<path opacity="0.1" d="M770.31 98.4888L769.883 98.7282C769.759 98.807 769.632 98.8793 769.5 98.9447C769.03 99.1757 768.519 99.3111 767.996 99.3431L778.846 112.185L797.772 116.75C798.291 116.358 798.703 115.842 798.972 115.25L770.31 98.4888Z" fill="black"/>
<path opacity="0.05" d="M772.25 97.4067L769.886 98.7342C769.762 98.813 769.634 98.8853 769.503 98.9507C769.032 99.1817 768.52 99.3171 767.996 99.3491L773.088 113.377L797.829 116.75C798.804 116.019 799.378 114.872 799.378 113.654V113.235L772.25 97.4067Z" fill="black"/>
<path d="M740.207 117.562H795.392C796.241 117.566 797.069 117.297 797.755 116.796L766.436 98.4316C766.305 98.3655 766.177 98.292 766.054 98.2114L737.165 81.707H737.151L736.208 81.1746V113.551C736.206 115.764 737.996 117.559 740.207 117.562V117.562Z" fill="#28A8EA"/>
<path opacity="0.1" d="M762.991 59.7956V100.646C762.988 102.078 762.118 103.366 760.791 103.902C760.38 104.079 759.937 104.17 759.49 104.17H736.208V58.2003H740.034V56.2852H759.49C761.423 56.2925 762.987 57.8608 762.991 59.7956Z" fill="black"/>
<path opacity="0.2" d="M761.097 61.69V102.545C761.102 103.008 761.004 103.466 760.81 103.886C760.278 105.197 759.008 106.057 757.593 106.064H736.208V58.1791H757.593C758.149 58.1735 758.696 58.3122 759.183 58.5814C760.356 59.1729 761.097 60.3753 761.097 61.69Z" fill="black"/>
<path opacity="0.2" d="M761.097 61.6935V98.7543C761.088 100.69 759.527 102.26 757.594 102.276H736.208V58.1791H757.594C758.149 58.1735 758.697 58.3123 759.183 58.5818C760.356 59.1739 761.097 60.3775 761.097 61.6935Z" fill="black"/>
<path opacity="0.2" d="M759.204 61.6933V98.7543C759.201 100.693 757.635 102.267 755.697 102.276H736.208V58.179H755.697C757.635 58.18 759.205 59.7526 759.203 61.6914C759.204 61.692 759.204 61.6927 759.204 61.6933Z" fill="black"/>
<path d="M720.516 58.179H755.687C757.629 58.179 759.204 59.7533 759.204 61.6953V96.8662C759.204 98.8082 757.629 100.383 755.687 100.383H720.516C718.574 100.383 717 98.8082 717 96.8662V61.6953C717 59.7533 718.574 58.179 720.516 58.179Z" fill="url(#paint7_linear_0_1)"/>
<path d="M727.973 72.9841C728.841 71.1466 730.243 69.6089 731.997 68.5686C733.941 67.4635 736.153 66.9125 738.392 66.9764C740.466 66.9317 742.513 67.4541 744.309 68.4864C745.998 69.4867 747.358 70.9523 748.224 72.7053C749.168 74.6371 749.638 76.763 749.597 78.9096C749.642 81.1531 749.159 83.376 748.184 85.4003C747.297 87.216 745.894 88.7338 744.148 89.7662C742.283 90.8302 740.16 91.3662 738.009 91.3163C735.89 91.3671 733.798 90.8388 731.961 89.7891C730.258 88.7875 728.881 87.3203 727.994 85.5625C727.045 83.6587 726.569 81.5567 726.606 79.4327C726.567 77.2083 727.034 75.0039 727.973 72.9841ZM732.263 83.35C732.725 84.5116 733.511 85.5191 734.527 86.2555C735.562 86.974 736.801 87.3446 738.063 87.3131C739.407 87.3659 740.732 86.9826 741.838 86.2211C742.841 85.487 743.605 84.4768 744.036 83.3156C744.518 82.0188 744.756 80.645 744.738 79.2628C744.753 77.8674 744.529 76.4796 744.077 75.1584C743.677 73.9656 742.937 72.9138 741.947 72.1308C740.869 71.3332 739.548 70.9287 738.205 70.9853C736.916 70.9522 735.649 71.3257 734.586 72.0525C733.553 72.792 732.753 73.8084 732.28 74.9828C731.23 77.6748 731.225 80.658 732.264 83.3538L732.263 83.35Z" fill="white"/>
<path d="M778.276 52.4978H795.591V69.6768H778.276V52.4978Z" fill="#50D9FF"/>
<defs>
<radialGradient id="paint0_radial_0_1" cx="0" cy="0" r="1" gradientUnits="userSpaceOnUse" gradientTransform="translate(565.141 56.3133) rotate(110.552) scale(59.1576 103.283)">
<stop offset="0.06441" stop-color="#AE7FE2"/>
<stop offset="1" stop-color="#0078D4"/>
</radialGradient>
<linearGradient id="paint1_linear_0_1" x1="565.307" y1="104.585" x2="556.873" y2="89.9794" gradientUnits="userSpaceOnUse">
<stop stop-color="#114A8B"/>
<stop offset="1" stop-color="#0078D4" stop-opacity="0"/>
</linearGradient>
<radialGradient id="paint2_radial_0_1" cx="0" cy="0" r="1" gradientUnits="userSpaceOnUse" gradientTransform="translate(552.736 101.895) rotate(-8.35661) scale(55.1128 36.361)">
<stop offset="0.133928" stop-color="#D59DFF"/>
<stop offset="1" stop-color="#5E438F"/>
</radialGradient>
<linearGradient id="paint3_linear_0_1" x1="605.856" y1="82.4408" x2="596.817" y2="95.4188" gradientUnits="userSpaceOnUse">
<stop stop-color="#493474"/>
<stop offset="1" stop-color="#8C66BA" stop-opacity="0"/>
</linearGradient>
<radialGradient id="paint4_radial_0_1" cx="0" cy="0" r="1" gradientUnits="userSpaceOnUse" gradientTransform="translate(607.096 84.4389) rotate(-165.789) scale(44.2346 74.3809)">
<stop offset="0.0584996" stop-color="#50E6FF"/>
<stop offset="1" stop-color="#436DCD"/>
</radialGradient>
<linearGradient id="paint5_linear_0_1" x1="564.355" y1="42.8729" x2="577.687" y2="42.8729" gradientUnits="userSpaceOnUse">
<stop stop-color="#2D3F80"/>
<stop offset="1" stop-color="#436DCD" stop-opacity="0"/>
</linearGradient>
<linearGradient id="paint6_linear_0_1" x1="767.793" y1="81.1746" x2="767.793" y2="117.562" gradientUnits="userSpaceOnUse">
<stop stop-color="#35B8F1"/>
<stop offset="1" stop-color="#28A8EA"/>
</linearGradient>
<linearGradient id="paint7_linear_0_1" x1="724.332" y1="55.4314" x2="751.872" y2="103.13" gradientUnits="userSpaceOnUse">
<stop stop-color="#1784D9"/>
<stop offset="0.5" stop-color="#107AD5"/>
<stop offset="1" stop-color="#0A63C9"/>
</linearGradient>
<clipPath id="clip0_0_1">
<rect width="71" height="78" fill="white" transform="translate(541.323 41)"/>
</clipPath>
</defs>
</svg>
