<svg xmlns="http://www.w3.org/2000/svg" width="931" height="206" fill="none" viewBox="0 0 931 206"><path fill="#fff" d="M0 0h931v206H0z"/><path fill="#000" d="M677.982 143.636q0 1.428-.542 2.429-.536 1.002-1.466 1.53-.924.524-2.079.524-1.164 0-2.088-.528t-1.462-1.53-.537-2.425q0-1.427.537-2.429t1.462-1.525q.924-.529 2.088-.529 1.155 0 2.079.529.93.524 1.466 1.525.542 1.002.542 2.429m-1.871 0q0-.924-.277-1.559-.273-.636-.772-.963-.498-.328-1.167-.328t-1.168.328q-.499.327-.775.963-.273.635-.273 1.559 0 .925.273 1.56.276.634.775.963.5.328 1.168.328.669 0 1.167-.328.5-.329.772-.963.277-.635.277-1.56m3.203 4.364v-6.545h1.76v1.142h.068q.18-.61.601-.921.422-.315.972-.315a2.6 2.6 0 0 1 .571.064v1.611a3 3 0 0 0-.767-.098q-.4 0-.716.174a1.3 1.3 0 0 0-.494.477q-.18.308-.179.708V148zm4.91 0v-6.545h1.816V148zm.912-7.389a1 1 0 0 1-.694-.269.87.87 0 0 1-.286-.652.85.85 0 0 1 .286-.643.98.98 0 0 1 .694-.273q.405 0 .691.273a.85.85 0 0 1 .289.643.86.86 0 0 1-.289.652.97.97 0 0 1-.691.269m5.307 9.98q-.882 0-1.513-.243-.627-.238-.997-.652a2 2 0 0 1-.482-.929l1.679-.226q.077.196.243.367t.439.272q.277.107.673.107.593 0 .976-.29.388-.285.388-.959v-1.197h-.077a1.7 1.7 0 0 1-.358.516 1.8 1.8 0 0 1-.613.396q-.375.153-.895.153-.738 0-1.342-.341-.602-.345-.959-1.052-.354-.712-.354-1.799 0-1.112.362-1.857.363-.747.963-1.117a2.5 2.5 0 0 1 1.326-.371q.55 0 .92.188.37.183.597.46.23.273.353.537h.069v-1.099h1.802v6.609q0 .835-.409 1.398-.41.563-1.134.843-.72.286-1.657.286m.038-4.048q.44 0 .742-.218a1.4 1.4 0 0 0 .468-.63q.167-.414.167-.989 0-.576-.162-.997a1.47 1.47 0 0 0-.469-.661 1.2 1.2 0 0 0-.746-.234q-.447 0-.754.243-.307.238-.465.665a2.8 2.8 0 0 0-.157.984q0 .567.157.98.162.409.465.635.307.222.754.222m4.607 1.457v-6.545h1.815V148zm.912-7.389a1 1 0 0 1-.695-.269.87.87 0 0 1-.285-.652q0-.375.285-.643a.98.98 0 0 1 .695-.273q.405 0 .69.273.29.268.29.643a.86.86 0 0 1-.29.652.97.97 0 0 1-.69.269m4.173 3.605V148h-1.816v-6.545h1.73v1.154h.077a1.83 1.83 0 0 1 .729-.903q.511-.337 1.24-.337.681 0 1.189.299.507.298.788.852.281.55.281 1.312V148h-1.815v-3.844q.005-.6-.307-.937-.311-.341-.856-.341a1.3 1.3 0 0 0-.648.158q-.277.157-.435.46a1.6 1.6 0 0 0-.157.72m13.872-.895-1.661.102a.86.86 0 0 0-.184-.383.96.96 0 0 0-.37-.277 1.3 1.3 0 0 0-.542-.107q-.421 0-.711.179-.29.175-.29.469 0 .234.187.396.188.162.644.26l1.185.239q.954.196 1.423.631.468.434.469 1.142 0 .643-.38 1.129-.375.486-1.031.758-.652.269-1.504.269-1.3 0-2.071-.541a2.1 2.1 0 0 1-.899-1.483l1.785-.094a.92.92 0 0 0 .392.605q.311.204.797.205.477 0 .767-.184.294-.187.298-.481a.5.5 0 0 0-.208-.405q-.205-.162-.631-.247l-1.134-.226q-.959-.191-1.427-.665-.465-.472-.465-1.206 0-.63.341-1.086.345-.456.968-.704.626-.246 1.466-.247 1.24 0 1.951.524.717.525.835 1.428m4.276 4.807q-1.01 0-1.739-.409a2.8 2.8 0 0 1-1.116-1.168q-.393-.759-.392-1.794 0-1.01.392-1.773a2.9 2.9 0 0 1 1.103-1.189q.716-.426 1.679-.426.648 0 1.206.209.563.204.98.618.422.414.657 1.04.234.622.234 1.457v.499h-5.527v-1.125h3.818q0-.392-.17-.695a1.23 1.23 0 0 0-.473-.473 1.36 1.36 0 0 0-.695-.175q-.414 0-.733.192-.315.188-.494.507-.18.316-.183.703v1.07q0 .486.179.84.183.353.515.545.333.192.788.192.303 0 .554-.085t.431-.256q.178-.17.273-.418l1.679.111q-.128.605-.525 1.057a2.6 2.6 0 0 1-1.014.699q-.618.246-1.427.247m4.189-.128v-6.545h1.76v1.142h.068q.178-.61.601-.921a1.58 1.58 0 0 1 .971-.315 2.6 2.6 0 0 1 .571.064v1.611a3 3 0 0 0-.767-.098q-.4 0-.716.174a1.3 1.3 0 0 0-.494.477 1.4 1.4 0 0 0-.179.708V148zm11.211-6.545L731.433 148h-2.046l-2.288-6.545h1.918l1.359 4.683h.068l1.355-4.683zm3.701 6.673q-1.01 0-1.738-.409a2.8 2.8 0 0 1-1.117-1.168q-.392-.759-.392-1.794 0-1.01.392-1.773a2.9 2.9 0 0 1 1.104-1.189q.716-.426 1.679-.426.648 0 1.206.209.562.204.98.618.422.414.656 1.04.234.622.234 1.457v.499H734.9v-1.125h3.818q0-.392-.171-.695a1.2 1.2 0 0 0-.473-.473 1.35 1.35 0 0 0-.694-.175q-.414 0-.733.192a1.35 1.35 0 0 0-.495.507 1.44 1.44 0 0 0-.183.703v1.07q0 .486.179.84.183.353.516.545.332.192.788.192.303 0 .554-.085t.43-.256a1.1 1.1 0 0 0 .273-.418l1.679.111q-.128.605-.524 1.057a2.6 2.6 0 0 1-1.014.699q-.618.246-1.428.247m4.189-.128v-6.545h1.76v1.142h.068q.18-.61.601-.921a1.58 1.58 0 0 1 .972-.315 2.6 2.6 0 0 1 .571.064v1.611a3.2 3.2 0 0 0-.767-.098q-.4 0-.716.174a1.3 1.3 0 0 0-.495.477 1.4 1.4 0 0 0-.179.708V148zm-182.034-36.364q0 1.381-.499 2.387-.498 1.005-1.368 1.551-.869.545-1.986.545t-1.985-.545q-.87-.546-1.368-1.551-.5-1.006-.499-2.387 0-1.38.499-2.386.498-1.006 1.368-1.551.869-.546 1.985-.546t1.986.546 1.368 1.551q.5 1.005.499 2.386m-1.023 0q0-1.133-.379-1.913-.375-.78-1.019-1.18a2.64 2.64 0 0 0-1.432-.401q-.792 0-1.436.401-.639.4-1.018 1.18-.375.78-.375 1.913t.375 1.914q.38.78 1.018 1.18.644.4 1.436.401a2.64 2.64 0 0 0 1.432-.401q.644-.4 1.019-1.18.38-.78.379-1.914m2.663 4.364v-6.545h.972v.988h.068q.179-.485.648-.788a1.9 1.9 0 0 1 1.057-.303 11 11 0 0 1 .528.017v1.023a3 3 0 0 0-.234-.038q-.18-.03-.38-.03-.477 0-.852.2a1.47 1.47 0 0 0-.801 1.334V116zm4.465 0v-6.545h1.006V116zm.512-7.636a.72.72 0 0 1-.508-.201.64.64 0 0 1-.208-.481q0-.282.208-.482a.72.72 0 0 1 .508-.2.7.7 0 0 1 .502.2.64.64 0 0 1 .213.482.64.64 0 0 1-.213.481.7.7 0 0 1-.502.201m4.978 10.227q-.73 0-1.253-.188a2.7 2.7 0 0 1-.874-.485 2.6 2.6 0 0 1-.549-.64l.801-.562q.137.179.345.409.209.234.571.405.366.174.959.175.792 0 1.308-.384.516-.383.516-1.202v-1.329h-.085a5 5 0 0 1-.316.443 1.8 1.8 0 0 1-.579.464q-.375.201-1.015.201a2.73 2.73 0 0 1-1.423-.375 2.64 2.64 0 0 1-.993-1.091q-.362-.716-.362-1.739 0-1.005.354-1.751.354-.75.984-1.159a2.6 2.6 0 0 1 1.457-.414q.64 0 1.015.213.38.21.579.478.205.264.316.434h.102v-1.039h.971v6.733q0 .843-.383 1.372a2.2 2.2 0 0 1-1.023.779q-.639.252-1.423.252m-.034-3.597q.605 0 1.023-.277.418-.276.634-.797.218-.52.218-1.244 0-.707-.213-1.248a1.87 1.87 0 0 0-.631-.848q-.417-.307-1.031-.307-.639 0-1.066.324a1.96 1.96 0 0 0-.634.869q-.21.546-.209 1.21 0 .683.213 1.206.217.52.639.818.426.294 1.057.294m4.704 1.006v-6.545h1.006V116zm.512-7.636a.7.7 0 0 1-.507-.201.64.64 0 0 1-.209-.481q0-.282.209-.482a.72.72 0 0 1 .507-.2q.293 0 .503.2a.64.64 0 0 1 .213.482.64.64 0 0 1-.213.481.7.7 0 0 1-.503.201m3.342 3.698V116h-1.006v-6.545h.972v1.022h.085q.23-.498.699-.801.468-.306 1.21-.307.665 0 1.163.273.499.269.776.818.276.546.277 1.381V116h-1.006v-4.091q0-.771-.4-1.202-.4-.434-1.1-.434-.481 0-.861.209-.375.208-.592.609-.217.4-.217.971m12.048 4.074q-.92 0-1.586-.434a2.83 2.83 0 0 1-1.022-1.198q-.358-.762-.358-1.743 0-.996.366-1.76.37-.766 1.031-1.197.666-.435 1.552-.435.69 0 1.244.256.554.255.908.716.353.46.438 1.074h-1.005a1.56 1.56 0 0 0-.512-.793q-.391-.35-1.056-.349-.588 0-1.032.307a2 2 0 0 0-.686.856q-.243.55-.243 1.291 0 .759.239 1.321.243.562.682.874.443.31 1.04.311.391 0 .711-.136a1.47 1.47 0 0 0 .857-1.006h1.005a2.3 2.3 0 0 1-.421 1.044 2.36 2.36 0 0 1-.883.733q-.544.268-1.269.268m6.788 0q-.946 0-1.632-.417a2.8 2.8 0 0 1-1.053-1.176q-.366-.759-.366-1.765t.366-1.772a2.9 2.9 0 0 1 1.032-1.202q.664-.435 1.551-.435.511 0 1.01.171.499.17.907.554.41.38.652 1.005.243.627.243 1.543v.426h-5.045v-.869h4.022q0-.554-.221-.989a1.67 1.67 0 0 0-.622-.686 1.75 1.75 0 0 0-.946-.251q-.601 0-1.04.298a1.96 1.96 0 0 0-.669.767 2.25 2.25 0 0 0-.234 1.014v.58q0 .741.255 1.257.26.512.72.78.46.264 1.07.264.396 0 .716-.111.324-.115.558-.341.234-.23.362-.571l.972.273a2.15 2.15 0 0 1-.516.869 2.5 2.5 0 0 1-.895.58 3.3 3.3 0 0 1-1.197.204m4.24-.136v-6.545h.972v.988h.068q.179-.485.648-.788a1.9 1.9 0 0 1 1.056-.303 11 11 0 0 1 .529.017v1.023a3 3 0 0 0-.235-.038 2.3 2.3 0 0 0-.379-.03q-.477 0-.852.2a1.47 1.47 0 0 0-.801 1.334V116zm7.722-6.545v.852h-3.392v-.852zm-2.404-1.569h1.006v6.239q0 .426.123.639a.65.65 0 0 0 .324.281q.2.069.422.069.166 0 .273-.017l.17-.035.205.904a2.2 2.2 0 0 1-.75.119q-.427 0-.835-.183a1.66 1.66 0 0 1-.674-.558q-.264-.376-.264-.946zm3.916 8.114v-6.545h1.006V116zm.512-7.636a.7.7 0 0 1-.507-.201.64.64 0 0 1-.209-.481q0-.282.209-.482a.72.72 0 0 1 .507-.2q.294 0 .503.2a.64.64 0 0 1 .213.482.64.64 0 0 1-.213.481.7.7 0 0 1-.503.201m5.251 1.091v.852h-3.529v-.852zM615.297 116v-7.449q0-.562.264-.937.265-.375.687-.563t.89-.187q.37 0 .605.059.235.06.35.111l-.29.869a6 6 0 0 0-.213-.064 1.3 1.3 0 0 0-.35-.038q-.498 0-.72.252-.217.25-.217.737V116zm3.881 0v-6.545h1.006V116zm.512-7.636a.7.7 0 0 1-.507-.201.64.64 0 0 1-.209-.481q0-.282.209-.482a.72.72 0 0 1 .507-.2.7.7 0 0 1 .502.2.64.64 0 0 1 .214.482.63.63 0 0 1-.214.481.7.7 0 0 1-.502.201m4.995 7.772q-.92 0-1.585-.434a2.84 2.84 0 0 1-1.023-1.198q-.358-.762-.358-1.743 0-.996.367-1.76.37-.766 1.031-1.197.665-.435 1.551-.435.69 0 1.244.256.554.255.908.716t.439 1.074h-1.006a1.56 1.56 0 0 0-.511-.793q-.393-.35-1.057-.349-.588 0-1.031.307a2 2 0 0 0-.686.856q-.243.55-.243 1.291 0 .759.238 1.321.244.562.682.874.444.31 1.04.311.392 0 .712-.136.32-.137.541-.392.222-.256.315-.614h1.006a2.34 2.34 0 0 1-.422 1.044 2.36 2.36 0 0 1-.882.733q-.546.268-1.27.268m5.97.017q-.622 0-1.129-.234a1.93 1.93 0 0 1-.805-.686q-.299-.452-.299-1.091 0-.562.222-.912.222-.354.592-.554a3.1 3.1 0 0 1 .818-.298 10 10 0 0 1 .908-.162q.597-.077.967-.115.375-.043.546-.141.174-.098.175-.341v-.034q0-.63-.346-.98-.34-.35-1.035-.349-.72 0-1.129.315-.41.316-.576.673l-.954-.341q.255-.596.682-.929a2.55 2.55 0 0 1 .937-.468 4 4 0 0 1 1.006-.137 4 4 0 0 1 .724.077q.413.072.797.303.388.23.644.694.255.465.255 1.245V116h-1.005v-.886h-.052a1.8 1.8 0 0 1-.341.456q-.238.243-.634.413-.397.17-.968.17m.154-.903q.596 0 1.005-.234a1.6 1.6 0 0 0 .836-1.385v-.921q-.064.077-.282.141a5 5 0 0 1-.494.106 21 21 0 0 1-.963.128q-.392.052-.733.166a1.26 1.26 0 0 0-.546.337q-.204.221-.204.605 0 .525.388.793.391.264.993.264m7.528-5.795v.852h-3.392v-.852zm-2.403-1.569h1.006v6.239q0 .426.123.639a.64.64 0 0 0 .324.281q.2.069.422.069.167 0 .273-.017l.17-.035.205.904a2.3 2.3 0 0 1-.75.119q-.426 0-.836-.183a1.66 1.66 0 0 1-.673-.558q-.264-.376-.264-.946zm6.59 8.25q-.946 0-1.632-.417a2.8 2.8 0 0 1-1.053-1.176q-.366-.759-.366-1.765t.366-1.772a2.9 2.9 0 0 1 1.032-1.202q.664-.435 1.551-.435.511 0 1.01.171.498.17.907.554.41.38.652 1.005.243.627.243 1.543v.426h-5.045v-.869h4.023q0-.554-.222-.989a1.67 1.67 0 0 0-.622-.686 1.75 1.75 0 0 0-.946-.251q-.601 0-1.04.298a1.96 1.96 0 0 0-.669.767 2.25 2.25 0 0 0-.234 1.014v.58q0 .741.255 1.257.26.512.721.78.46.264 1.069.264.396 0 .716-.111.324-.115.558-.341a1.55 1.55 0 0 0 .363-.571l.971.273a2.15 2.15 0 0 1-.516.869 2.5 2.5 0 0 1-.894.58 3.3 3.3 0 0 1-1.198.204M309.569 116v-8.727h5.267v.937h-4.211v2.949h3.938v.938h-3.938v2.965h4.279V116zm9.507.136q-.818 0-1.445-.413-.627-.417-.98-1.176-.354-.763-.354-1.803 0-1.031.354-1.789.354-.76.984-1.172.631-.414 1.458-.414.638 0 1.01.213.375.21.571.478.2.264.311.434h.085v-3.221h1.006V116h-.972v-1.006h-.119a6 6 0 0 1-.316.452q-.205.269-.583.482-.38.208-1.01.208m.136-.903q.605 0 1.023-.315.417-.32.635-.882.217-.567.217-1.309 0-.733-.213-1.282-.213-.555-.631-.861-.417-.311-1.031-.311-.639 0-1.065.328a1.96 1.96 0 0 0-.635.882 3.5 3.5 0 0 0-.209 1.244q0 .699.213 1.27.217.567.639.904.427.332 1.057.332m7.487 3.358q-.728 0-1.253-.188a2.7 2.7 0 0 1-.873-.485 2.7 2.7 0 0 1-.55-.64l.801-.562q.137.179.345.409.21.234.571.405.367.174.959.175.793 0 1.308-.384.516-.383.516-1.202v-1.329h-.085a6 6 0 0 1-.315.443 1.8 1.8 0 0 1-.58.464q-.375.201-1.014.201a2.73 2.73 0 0 1-1.424-.375 2.63 2.63 0 0 1-.992-1.091q-.363-.716-.363-1.739 0-1.005.354-1.751.354-.75.984-1.159.632-.414 1.458-.414.639 0 1.014.213.38.21.58.478.204.264.315.434h.102v-1.039h.972v6.733q0 .843-.384 1.372a2.2 2.2 0 0 1-1.022.779 3.9 3.9 0 0 1-1.424.252m-.034-3.597q.605 0 1.023-.277.417-.276.635-.797.217-.52.217-1.244 0-.707-.213-1.248a1.87 1.87 0 0 0-.631-.848q-.417-.307-1.031-.307-.639 0-1.065.324a1.97 1.97 0 0 0-.635.869 3.4 3.4 0 0 0-.209 1.21q0 .683.213 1.206.217.52.639.818.426.294 1.057.294m7.449 1.142q-.946 0-1.632-.417a2.8 2.8 0 0 1-1.053-1.176q-.366-.759-.366-1.765t.366-1.772a2.9 2.9 0 0 1 1.032-1.202q.664-.435 1.551-.435.511 0 1.01.171.498.17.907.554.41.38.652 1.005.243.627.243 1.543v.426h-5.045v-.869h4.022q0-.554-.221-.989a1.67 1.67 0 0 0-.622-.686 1.75 1.75 0 0 0-.946-.251q-.601 0-1.04.298a1.96 1.96 0 0 0-.669.767 2.25 2.25 0 0 0-.234 1.014v.58q0 .741.255 1.257.261.512.72.78.46.264 1.07.264.396 0 .716-.111.324-.115.558-.341.234-.23.362-.571l.972.273a2.15 2.15 0 0 1-.516.869 2.5 2.5 0 0 1-.895.58 3.3 3.3 0 0 1-1.197.204m10.274 0q-.92 0-1.585-.434a2.84 2.84 0 0 1-1.023-1.198q-.358-.762-.358-1.743 0-.996.367-1.76.37-.766 1.031-1.197.665-.435 1.551-.435.69 0 1.244.256.554.255.908.716t.439 1.074h-1.006a1.55 1.55 0 0 0-.511-.793q-.392-.35-1.057-.349-.588 0-1.031.307a2 2 0 0 0-.686.856q-.243.55-.243 1.291 0 .759.239 1.321.242.562.681.874.444.31 1.04.311.393 0 .712-.136.32-.137.541-.392.222-.256.315-.614h1.006a2.33 2.33 0 0 1-1.304 1.777q-.546.268-1.27.268m6.788 0q-.945 0-1.632-.417a2.8 2.8 0 0 1-1.052-1.176q-.367-.759-.367-1.765t.367-1.772a2.9 2.9 0 0 1 1.031-1.202q.664-.435 1.551-.435.512 0 1.01.171.499.17.908.554.41.38.652 1.005.243.627.243 1.543v.426h-5.046v-.869h4.023q0-.554-.222-.989a1.66 1.66 0 0 0-.622-.686 1.75 1.75 0 0 0-.946-.251q-.6 0-1.04.298a2 2 0 0 0-.669.767 2.25 2.25 0 0 0-.234 1.014v.58q0 .741.256 1.257.26.512.72.78a2.1 2.1 0 0 0 1.069.264q.397 0 .716-.111a1.5 1.5 0 0 0 .559-.341q.234-.23.362-.571l.971.273a2.16 2.16 0 0 1-.515.869 2.5 2.5 0 0 1-.895.58 3.3 3.3 0 0 1-1.198.204m4.241-.136v-6.545h.971v.988h.068q.18-.485.648-.788a1.9 1.9 0 0 1 1.057-.303 11 11 0 0 1 .528.017v1.023a3 3 0 0 0-.234-.038 2.3 2.3 0 0 0-.379-.03q-.478 0-.853.2a1.47 1.47 0 0 0-.801 1.334V116zm7.721-6.545v.852h-3.392v-.852zm-2.403-1.569h1.005v6.239q0 .426.124.639a.64.64 0 0 0 .324.281q.2.069.422.069.166 0 .272-.017l.171-.035.204.904a2.2 2.2 0 0 1-.75.119q-.426 0-.835-.183a1.66 1.66 0 0 1-.673-.558q-.264-.376-.264-.946zm3.916 8.114v-6.545h1.006V116zm.511-7.636a.7.7 0 0 1-.507-.201.64.64 0 0 1-.209-.481q0-.282.209-.482a.72.72 0 0 1 .507-.2q.294 0 .503.2a.64.64 0 0 1 .213.482.64.64 0 0 1-.213.481.7.7 0 0 1-.503.201m5.251 1.091v.852h-3.528v-.852zM367.942 116v-7.449q0-.562.264-.937t.686-.563q.421-.187.891-.187.37 0 .605.059.235.06.349.111l-.29.869a6 6 0 0 0-.213-.064 1.3 1.3 0 0 0-.349-.038q-.498 0-.72.252-.218.25-.218.737V116zm3.881 0v-6.545h1.005V116zm.511-7.636a.7.7 0 0 1-.507-.201.64.64 0 0 1-.209-.481q0-.282.209-.482a.72.72 0 0 1 .507-.2q.294 0 .503.2a.64.64 0 0 1 .213.482.64.64 0 0 1-.213.481.7.7 0 0 1-.503.201m4.996 7.772q-.92 0-1.586-.434a2.83 2.83 0 0 1-1.022-1.198q-.358-.762-.358-1.743 0-.996.366-1.76.37-.766 1.031-1.197.666-.435 1.551-.435.691 0 1.245.256.554.255.907.716.354.46.439 1.074h-1.005a1.56 1.56 0 0 0-.512-.793q-.392-.35-1.056-.349-.588 0-1.032.307a2 2 0 0 0-.686.856q-.243.55-.243 1.291 0 .759.239 1.321.243.562.682.874.443.31 1.04.311.392 0 .711-.136a1.47 1.47 0 0 0 .857-1.006h1.005a2.3 2.3 0 0 1-.421 1.044 2.36 2.36 0 0 1-.883.733q-.544.268-1.269.268m5.97.017q-.622 0-1.13-.234a1.94 1.94 0 0 1-.805-.686q-.298-.452-.298-1.091 0-.562.221-.912.222-.354.593-.554a3.1 3.1 0 0 1 .818-.298 10 10 0 0 1 .908-.162q.596-.077.967-.115.375-.043.545-.141.175-.098.175-.341v-.034q0-.63-.345-.98-.341-.35-1.036-.349-.72 0-1.129.315-.409.316-.575.673l-.955-.341q.256-.596.682-.929.43-.336.938-.468.51-.137 1.005-.137.315 0 .725.077.413.072.797.303.387.23.643.694.255.465.256 1.245V116h-1.006v-.886h-.051a1.8 1.8 0 0 1-.341.456 2 2 0 0 1-.635.413q-.397.17-.967.17m.153-.903q.597 0 1.006-.234.413-.235.622-.605.213-.372.213-.78v-.921q-.064.077-.281.141-.213.06-.495.106a21 21 0 0 1-.963.128 4 4 0 0 0-.733.166 1.26 1.26 0 0 0-.545.337q-.205.221-.205.605 0 .525.388.793.393.264.993.264m7.529-5.795v.852h-3.392v-.852zm-2.404-1.569h1.006v6.239q0 .426.124.639a.64.64 0 0 0 .324.281q.2.069.421.069.167 0 .273-.017l.171-.035.204.904a2.2 2.2 0 0 1-.75.119q-.426 0-.835-.183a1.66 1.66 0 0 1-.673-.558q-.264-.376-.265-.946zm6.591 8.25q-.947 0-1.632-.417a2.8 2.8 0 0 1-1.053-1.176q-.366-.759-.366-1.765t.366-1.772a2.9 2.9 0 0 1 1.031-1.202q.664-.435 1.551-.435.512 0 1.01.171.499.17.908.554.41.38.652 1.005.243.627.243 1.543v.426h-5.046v-.869h4.023q0-.554-.221-.989a1.67 1.67 0 0 0-.623-.686 1.75 1.75 0 0 0-.946-.251q-.6 0-1.039.298a1.96 1.96 0 0 0-.669.767 2.24 2.24 0 0 0-.235 1.014v.58q0 .741.256 1.257.26.512.72.78.46.264 1.07.264.396 0 .716-.111.323-.115.558-.341.234-.23.362-.571l.972.273a2.2 2.2 0 0 1-.516.869q-.362.371-.895.58a3.3 3.3 0 0 1-1.197.204"/><path fill="#fff" stroke="#0055DC" stroke-miterlimit="10" stroke-width="1.5" d="M670.672 121.964v3.41l76.224-.004-.001-3.41z"/><path fill="#C5EBF5" stroke="#0055DC" stroke-miterlimit="10" stroke-width="1.5" d="M751.568 99.459H666v22.501h85.568z"/><path fill="#fff" d="M747.872 118.526v-15.634h-78.175v15.634z"/><path fill="#0055DC" d="M676.041 109.011a1.59 1.59 0 1 0 0-3.178 1.59 1.59 0 0 0 0 3.178"/><path stroke="#0055DC" stroke-miterlimit="10" stroke-width="1.5" d="M682.444 112.562h-8.182m30.199 2.671h-30.199m41.032 0h-7.155"/><path fill="#fff" stroke="#0055DC" stroke-miterlimit="10" stroke-width="1.5" d="M670.672 96.003v3.41l76.224-.004-.001-3.41z"/><path fill="#C5EBF5" stroke="#0055DC" stroke-miterlimit="10" stroke-width="1.5" d="M751.568 78H666v18h85.568z"/><path fill="#fff" d="M747.872 92.566V81.434h-78.175v11.132z"/><path fill="#0055DC" d="M676.041 88.082a1.059 1.059 0 1 0 0-2.118 1.059 1.059 0 0 0 0 2.118m3.84 0a1.06 1.06 0 1 0 0-2.12 1.06 1.06 0 0 0 0 2.12m5.46 1.324a2.384 2.384 0 1 0 0-4.767 2.384 2.384 0 0 0 0 4.767"/><path stroke="#0055DC" stroke-miterlimit="10" stroke-width="1.5" d="M742.778 89.272h-24.903m-2.581 0h-7.155"/><path stroke="#6ECCE5" stroke-miterlimit="10" stroke-width="1.5" d="M742.888 86.47h-7.155m7.155-2.36h-7.155"/><path fill="#fff" d="M499.768 56.768a2.5 2.5 0 0 0 0-3.536l-15.91-15.91a2.5 2.5 0 0 0-3.536 3.536L494.464 55l-14.142 14.142a2.5 2.5 0 0 0 3.536 3.536zM204 57.5h294v-5H204z"/><path fill="#0055DC" d="M532.293 96.293a1 1 0 0 0 0 1.414l6.364 6.364a.999.999 0 1 0 1.414-1.414L534.414 97l5.657-5.657a1 1 0 1 0-1.414-1.414zM654 96H533v2h121zm-369.707.293a1 1 0 0 0 0 1.414l6.364 6.364a.999.999 0 1 0 1.414-1.414L286.414 97l5.657-5.657a1 1 0 1 0-1.414-1.414zM406 96H285v2h121z"/><path fill="#000" d="M205.759 154v-8.727h3.494q.963 0 1.606.285.644.286.968.793.324.502.324 1.159 0 .512-.205.899a1.8 1.8 0 0 1-.562.631 2.3 2.3 0 0 1-.81.345v.085q.498.021.933.281.44.261.712.729.272.465.272 1.108 0 .694-.345 1.24-.34.541-1.01.857-.668.315-1.649.315zm1.845-1.509h1.504q.771 0 1.125-.294a.98.98 0 0 0 .354-.792q0-.363-.175-.639a1.2 1.2 0 0 0-.499-.435 1.7 1.7 0 0 0-.762-.158h-1.547zm0-3.566h1.368q.379 0 .673-.132.298-.137.469-.384.174-.247.174-.592a.96.96 0 0 0-.336-.763q-.333-.29-.946-.29h-1.402zm6.054 5.075v-6.545h1.76v1.142h.068q.179-.61.601-.921a1.58 1.58 0 0 1 .972-.315 2.6 2.6 0 0 1 .571.064v1.611a3.2 3.2 0 0 0-.767-.098q-.4 0-.716.174a1.3 1.3 0 0 0-.495.477 1.4 1.4 0 0 0-.179.708V154zm7.563.128q-.993 0-1.717-.422a2.9 2.9 0 0 1-1.113-1.185q-.392-.763-.392-1.768 0-1.014.392-1.773a2.86 2.86 0 0 1 1.113-1.185q.724-.426 1.717-.426t1.713.426a2.85 2.85 0 0 1 1.116 1.185q.392.759.392 1.773 0 1.005-.392 1.768a2.87 2.87 0 0 1-1.116 1.185q-.72.422-1.713.422m.008-1.406q.452 0 .755-.256.302-.26.456-.707.157-.448.157-1.019t-.157-1.018a1.6 1.6 0 0 0-.456-.708 1.12 1.12 0 0 0-.755-.26q-.456 0-.767.26a1.6 1.6 0 0 0-.464.708 3.1 3.1 0 0 0-.154 1.018q0 .571.154 1.019a1.6 1.6 0 0 0 .464.707q.312.256.767.256M226.75 154l-1.781-6.545h1.836l1.015 4.397h.059l1.057-4.397h1.803l1.073 4.372h.056l.997-4.372h1.832L232.92 154h-1.921l-1.125-4.116h-.081L228.668 154zm14.362-4.679-1.662.102a.86.86 0 0 0-.183-.383 1 1 0 0 0-.371-.277 1.3 1.3 0 0 0-.541-.107q-.422 0-.712.179-.29.175-.29.469 0 .234.188.396.187.162.643.26l1.185.239q.954.196 1.423.631.47.434.469 1.142 0 .643-.379 1.129-.375.486-1.032.758-.651.269-1.504.269-1.3 0-2.071-.541a2.1 2.1 0 0 1-.899-1.483l1.786-.094a.92.92 0 0 0 .392.605q.311.204.796.205.478 0 .768-.184.294-.187.298-.481a.5.5 0 0 0-.209-.405q-.205-.162-.631-.247l-1.133-.226q-.958-.191-1.428-.665-.464-.472-.464-1.206 0-.63.341-1.086.345-.456.967-.704.626-.246 1.466-.247 1.24 0 1.952.524.715.525.835 1.428m4.275 4.807q-1.01 0-1.739-.409a2.8 2.8 0 0 1-1.116-1.168q-.392-.759-.392-1.794 0-1.01.392-1.773a2.9 2.9 0 0 1 1.104-1.189q.716-.426 1.679-.426.647 0 1.206.209.562.204.98.618.422.414.656 1.04.234.622.234 1.457v.499h-5.527v-1.125h3.819q0-.392-.171-.695a1.2 1.2 0 0 0-.473-.473 1.35 1.35 0 0 0-.695-.175q-.413 0-.732.192a1.35 1.35 0 0 0-.495.507 1.44 1.44 0 0 0-.183.703v1.07q0 .486.179.84.183.353.516.545.332.192.788.192.302 0 .554-.085.251-.086.43-.256a1.1 1.1 0 0 0 .273-.418l1.679.111q-.128.605-.524 1.057a2.65 2.65 0 0 1-1.014.699q-.618.246-1.428.247m4.189-.128v-6.545h1.76v1.142h.068q.179-.61.601-.921a1.58 1.58 0 0 1 .972-.315 2.6 2.6 0 0 1 .571.064v1.611a3.2 3.2 0 0 0-.767-.098q-.401 0-.716.174a1.3 1.3 0 0 0-.495.477 1.4 1.4 0 0 0-.179.708V154z"/><circle cx="469.5" cy="96.5" r="51.5" stroke="#F6821F" stroke-width="2"/><rect width="85" height="41" x="427" y="138" fill="#fff" rx="20.5"/><path fill="#222" d="M447.767 149.328h-1.866a1.8 1.8 0 0 0-.209-.643 1.6 1.6 0 0 0-.405-.486 1.8 1.8 0 0 0-.571-.307 2.2 2.2 0 0 0-.694-.106q-.678 0-1.181.336-.503.333-.78.972-.276.635-.277 1.542 0 .934.277 1.569.281.634.785.958a2.1 2.1 0 0 0 1.163.324q.37 0 .686-.098a1.8 1.8 0 0 0 .567-.285 1.7 1.7 0 0 0 .409-.465q.166-.273.23-.622l1.866.009q-.072.6-.362 1.159-.285.553-.771.993a3.7 3.7 0 0 1-1.151.69 4.2 4.2 0 0 1-1.504.251q-1.167 0-2.088-.528-.916-.528-1.449-1.53-.528-1.002-.528-2.425 0-1.427.537-2.429t1.457-1.525q.92-.529 2.071-.529.758 0 1.406.213.653.214 1.155.623.503.404.818.993.32.588.409 1.346m3.105-3.055V155h-1.816v-8.727zm4.411 8.855q-.993 0-1.717-.422a2.9 2.9 0 0 1-1.112-1.185q-.392-.763-.392-1.768 0-1.014.392-1.773a2.86 2.86 0 0 1 1.112-1.185q.724-.426 1.717-.426t1.713.426q.725.423 1.117 1.185.392.759.392 1.773 0 1.005-.392 1.768a2.9 2.9 0 0 1-1.117 1.185q-.72.422-1.713.422m.009-1.406q.451 0 .754-.256a1.6 1.6 0 0 0 .456-.707q.158-.448.158-1.019t-.158-1.018a1.6 1.6 0 0 0-.456-.708 1.12 1.12 0 0 0-.754-.26q-.456 0-.767.26-.308.26-.465.708a3.1 3.1 0 0 0-.153 1.018q0 .571.153 1.019.158.447.465.707.31.256.767.256m8.591-1.509v-3.758h1.815V155h-1.743v-1.189h-.068a1.93 1.93 0 0 1-.737.925q-.511.35-1.249.349-.656 0-1.155-.298a2.05 2.05 0 0 1-.779-.848q-.278-.55-.282-1.317v-4.167h1.816v3.843q.004.58.311.916.306.337.822.337.329 0 .614-.149.285-.153.46-.452.179-.298.175-.737m5.679 2.894q-.745 0-1.351-.384-.6-.388-.954-1.138-.35-.754-.35-1.849 0-1.125.363-1.871.362-.75.963-1.121.605-.375 1.325-.375.55 0 .916.188.37.183.597.46.23.273.349.537h.055v-3.281h1.812V155h-1.79v-1.048h-.077a2.3 2.3 0 0 1-.362.541 1.8 1.8 0 0 1-.601.439q-.367.175-.895.175m.575-1.445q.44 0 .742-.239.307-.243.469-.677.166-.435.166-1.019t-.162-1.014a1.46 1.46 0 0 0-.469-.665 1.2 1.2 0 0 0-.746-.234q-.447 0-.754.243a1.5 1.5 0 0 0-.464.673 2.9 2.9 0 0 0-.158.997q0 .572.158 1.01.161.435.464.682.307.243.754.243m8.162-5.207v1.363h-4.04v-1.363zM475.184 155v-7.018q0-.712.277-1.181.28-.469.767-.703a2.5 2.5 0 0 1 1.104-.234q.417 0 .762.064.35.063.52.115l-.324 1.363a3 3 0 0 0-.264-.064 1.6 1.6 0 0 0-.315-.03q-.4 0-.558.188-.158.183-.158.516V155zm6.039-8.727V155h-1.815v-8.727zm3.321 8.851a2.7 2.7 0 0 1-1.116-.218 1.8 1.8 0 0 1-.776-.652q-.281-.434-.281-1.082 0-.546.2-.916t.545-.597a2.7 2.7 0 0 1 .785-.341q.443-.115.929-.162.57-.06.92-.111.35-.054.507-.161a.36.36 0 0 0 .158-.316v-.025q0-.405-.256-.627-.251-.221-.716-.221-.49 0-.78.217a1 1 0 0 0-.383.537l-1.679-.137q.128-.596.503-1.031.375-.439.967-.673.597-.239 1.381-.239.544 0 1.044.128.503.127.89.396.393.269.618.691.226.417.226 1.001V155h-1.721v-.908h-.052a1.9 1.9 0 0 1-.421.542 2 2 0 0 1-.635.362 2.6 2.6 0 0 1-.857.128m.52-1.253q.4 0 .707-.158.307-.162.482-.435a1.1 1.1 0 0 0 .175-.617v-.695a1 1 0 0 1-.235.102 4 4 0 0 1-.328.081q-.183.034-.366.064l-.333.047a2.2 2.2 0 0 0-.558.149.9.9 0 0 0-.371.277.68.68 0 0 0-.132.426q0 .37.269.567.272.192.69.192m4.574 1.129v-6.545h1.76v1.142h.069q.178-.61.6-.921.423-.315.972-.315a2.6 2.6 0 0 1 .571.064v1.611a3 3 0 0 0-.767-.098q-.4 0-.716.174a1.3 1.3 0 0 0-.494.477q-.18.308-.179.708V155zm7.589.128q-1.01 0-1.739-.409a2.8 2.8 0 0 1-1.116-1.168q-.393-.759-.392-1.794 0-1.01.392-1.773a2.9 2.9 0 0 1 1.103-1.189q.716-.426 1.679-.426.648 0 1.206.209.563.204.981.618.422.414.656 1.04.234.622.234 1.457v.499h-5.527v-1.125h3.818q0-.392-.17-.695a1.2 1.2 0 0 0-.473-.473 1.35 1.35 0 0 0-.695-.175q-.413 0-.733.192-.315.188-.494.507a1.44 1.44 0 0 0-.183.703v1.07q0 .486.179.84.183.353.515.545.333.192.789.192.302 0 .554-.085.251-.086.43-.256.178-.17.273-.418l1.679.111q-.128.605-.524 1.057-.393.447-1.015.699-.617.246-1.427.247"/><path fill="#F38020" d="M483.17 107.594c.44-1.509.273-2.892-.461-3.918-.67-.943-1.801-1.488-3.163-1.551l-25.79-.335a.48.48 0 0 1-.398-.21.58.58 0 0 1-.063-.461.71.71 0 0 1 .608-.461l26.02-.335c3.08-.147 6.432-2.64 7.605-5.7l1.487-3.877a.83.83 0 0 0 .042-.502C487.381 82.658 480.614 77 472.528 77c-7.459 0-13.786 4.82-16.048 11.504a7.7 7.7 0 0 0-5.343-1.488c-3.582.357-6.452 3.227-6.809 6.81a8 8 0 0 0 .189 2.662A10.825 10.825 0 0 0 434 107.322c0 .524.042 1.047.105 1.571.042.252.251.44.503.44h47.599a.65.65 0 0 0 .607-.461z"/><path fill="#FAAE40" d="M491.383 91.019c-.231 0-.482 0-.713.02-.167 0-.314.126-.377.294l-1.005 3.5c-.44 1.508-.273 2.891.461 3.918.67.943 1.801 1.488 3.163 1.551l5.489.335c.168 0 .314.084.398.209a.6.6 0 0 1 .063.461.71.71 0 0 1-.608.461l-5.719.336c-3.101.146-6.432 2.64-7.605 5.699l-.419 1.069c-.084.21.063.419.293.419h19.652c.23 0 .44-.146.502-.377.336-1.215.524-2.494.524-3.814 0-7.753-6.327-14.081-14.099-14.081"/><path fill="#fff" d="M272.741 64.258h-86.356v66.706h86.356z"/><path fill="#3E74FF" stroke="#3E74FF" d="M186.128 64v67.223H273V64zm.575 66.647V70.641h85.721v60.006z"/><path fill="#A8CBFF" d="M220.773 78.056h-28.699v24.82h28.699z"/><path fill="#E0ECFF" d="M266.277 78.056h-41.109v20.942h41.109z"/><path stroke="#fff" stroke-linecap="round" stroke-linejoin="bevel" stroke-width="2" d="m225.168 93.31 10.083-5.91 11.829 2.585 10.859-8.31 8.338 3.693"/><path fill="#E0ECFF" d="M220.772 106.66h-28.699v2.069h28.699z"/><path fill="#A8CBFF" d="M236.285 101.066h-11.117v1.81h11.117zm14.996 0h-11.376v1.81h11.376zm14.997 0h-11.377v1.81h11.377z"/><path fill="#E0ECFF" d="M220.772 111.056h-28.699v2.068h28.699zm0 4.395h-28.699v2.068h28.699zm0 4.396h-28.699v2.068h28.699zm-6.205 4.394h-22.494v2.069h22.494z"/><path fill="#A8CBFF" d="M235.749 117.745v7.529h-6.868v-7.529zm8.586-1.829v9.358h-6.868v-9.358zm17.172-9.291v18.647h-6.868v-18.647zm-8.586 8.009v10.638h-6.868v-10.638z"/><path fill="#A8CBFF" d="M224.286 125.07h44.17v.379h-44.17z"/><g fill="#fff" clip-path="url(#clip0_55_805)"><path d="M208.777 95.262h-3.792a8.3 8.3 0 0 0-8.292 8.288l.783.783h18.801l.784-.783a8.3 8.3 0 0 0-8.284-8.288m-1.881-1.082a5.485 5.485 0 0 0 1.07-10.861 5.483 5.483 0 1 0-1.07 10.862"/></g><path fill="#3E74FF" d="M186 64h86.335v10.489H186z"/><path fill="#fff" d="M190.953 70.678a1.725 1.725 0 1 0 0-3.45 1.725 1.725 0 0 0 0 3.45m5.58 0a1.726 1.726 0 1 0-.001-3.45 1.726 1.726 0 0 0 .001 3.45m5.58 0a1.726 1.726 0 1 0 0-3.451 1.726 1.726 0 0 0 0 3.451"/><defs><clipPath id="clip0_55_805"><path fill="#fff" d="M194.342 78.419h25.068v25.068h-25.068z"/></clipPath></defs></svg>