<svg xmlns="http://www.w3.org/2000/svg" width="1172" height="359" fill="none" viewBox="0 0 1172 359"><path fill="#fff" d="M0 0h1172v359H0z"/><path stroke="#F63" stroke-width="2.452" d="M690.628 173.996h215.814v47.823"/><path fill="#E0EDFF" stroke="#6691FF" stroke-width="2.452" d="M923.427 243.443c8.544 0 15.465 6.9 15.465 15.409 0 8.508-6.92 15.408-15.464 15.408h-63.597c-10.632-.028-19.235-8.627-19.235-19.22 0-10.611 8.632-19.22 19.289-19.22 1.071 0 2.142.089 3.2.265l1.058.176.316-1.024c3.491-11.319 14.064-19.549 26.569-19.549 15.089 0 27.362 11.981 27.781 26.908l.041 1.461 1.432-.294c1.037-.213 2.09-.32 3.145-.32Z"/><path fill="#E2EEFF" fill-rule="evenodd" stroke="#911475" stroke-miterlimit="10" stroke-width="1.069" d="M369.602 139.662h-92.321c-2.447 0-4.636 2.06-4.636 4.636v60.646h101.592v-60.646c0-2.576-2.189-4.636-4.635-4.636Z" clip-rule="evenodd"/><path fill="#fff" d="M378.232 209.578H268.528c-5.665 0-9.528-.902-9.528-1.674v-2.575c0-.258.257-.515.515-.515h127.601c.258 0 .515.257.515.515v2.575c.129.772-2.832 1.674-9.399 1.674"/><path stroke="#911475" stroke-miterlimit="10" stroke-width="1.069" d="M378.232 209.578H268.528c-5.665 0-9.528-.902-9.528-1.674v-2.575c0-.258.257-.515.515-.515h127.601c.258 0 .515.257.515.515v2.575c.129.772-2.832 1.674-9.399 1.674Z" clip-rule="evenodd"/><path fill="#E2EEFF" d="M387.758 205.329c0-.258-.257-.515-.515-.515H259.642c-.257 0-.515.257-.515.515v2.446h128.76v-2.446z"/><path stroke="#911475" stroke-miterlimit="10" stroke-width="1.069" d="M378.232 209.578H268.528c-5.665 0-9.528-.902-9.528-1.674v-2.575c0-.258.257-.515.515-.515h127.601c.258 0 .515.257.515.515v2.575c.129.772-2.832 1.674-9.399 1.674Z"/><path fill="#fff" d="M370.054 146.871h-93.222v54.337h93.222z"/><path fill="#911475" fill-rule="evenodd" d="M337.412 205.072v.515c0 .387-.772.515-1.416.515h-25.108c-.644 0-1.417-.128-1.417-.515v-.515" clip-rule="evenodd"/><path fill="#fff" stroke="url(#paint0_linear_55_809)" stroke-miterlimit="10" stroke-width="1.069" d="M323.447 196.223c12.251 0 22.182-9.932 22.182-22.182 0-12.251-9.931-22.182-22.182-22.182s-22.182 9.931-22.182 22.182 9.932 22.182 22.182 22.182Z"/><path fill="#F9AB41" stroke="#911475" stroke-miterlimit="10" stroke-width="1.069" d="M316.449 185.602a15.7 15.7 0 0 0 3.185-2.317v-5.855l7.712.091v5.507c.352.684 1.681 1.525 3.455 2.52 0 0-3.3 4.923-7.445 4.923s-6.907-4.869-6.907-4.869Z"/><path fill="url(#paint1_linear_55_809)" stroke="#911475" stroke-miterlimit="10" stroke-width="1.069" d="M323.456 196.222a22.1 22.1 0 0 0 14.892-5.744 34.5 34.5 0 0 0-7.498-4.898s-3.342 4.884-7.487 4.884-6.929-4.821-6.929-4.821c-2.544 1.434-5.665 2.784-8.004 4.71a22.1 22.1 0 0 0 15.026 5.869Z"/><path fill="#F9AB41" stroke="#911475" stroke-miterlimit="10" stroke-width="1.069" d="M330.803 170.025a1.22 1.22 0 0 1 1.094-.92c.169-.013.34.01.5.066.964.291.422 3.792-2.273 3.668q.42-1.388.679-2.814Z"/><path fill="#911475" stroke="#911475" stroke-linejoin="round" stroke-width="1.069" d="M328.134 161.669c-.215-1.902-4.182-.108-4.946-2.238 0 0 0-.169-1.017.62-.782.605-1.782.258-1.782.258s1.001.083 1.527-.796c.485-.81.255.673.255.673-1.018.796-2.62-.407-2.824 1.872l-.079-.082a14.5 14.5 0 0 1-.163-2.008 4.69 4.69 0 0 1 4.672-4.706 4.57 4.57 0 0 1 3.28 1.394 4.96 4.96 0 0 1 1.392 3.395c-.024.657-.11 1.31-.258 1.95z"/><path fill="#F9AB41" stroke="#911475" stroke-miterlimit="10" stroke-width="1.069" d="M316.086 170.019a1.27 1.27 0 0 0-.637-.788 1.26 1.26 0 0 0-1.011-.065c-.84.341-.421 3.791 2.275 3.667a22 22 0 0 1-.627-2.814Z"/><path fill="#F9AB41" stroke="#911475" stroke-miterlimit="10" stroke-width="1.069" d="M331.153 166.809c0 1.999-.733 6.073-2.018 8.531-.955 1.825-3.413 3.857-5.649 3.857-2.235 0-4.441-2.032-5.649-3.856-1.53-2.315-2.018-6.533-2.018-8.532a7.667 7.667 0 0 1 15.334 0Z"/><path fill="#911475" stroke="#911475" stroke-linejoin="round" stroke-width="1.069" d="M330.76 169.331c-.359-3.046-6.98-2.591-8.254-6.001 0 0 0 2.147-1.699 3.41-1.304.969-2.973.413-2.973.413s1.67.133 2.548-1.274c.81-1.298.425-2.549.425-2.549-1.699 1.274-4.371 2.974-4.713 6.623l-.131-.131a22 22 0 0 1-.272-3.214c0-4.234 3.564-7.536 7.798-7.536a7.78 7.78 0 0 1 7.798 7.668 16 16 0 0 1-.431 3.122z"/><path stroke="url(#paint2_linear_55_809)" stroke-miterlimit="10" stroke-width="1.069" d="M323.447 196.223c12.251 0 22.182-9.932 22.182-22.182 0-12.251-9.931-22.182-22.182-22.182s-22.182 9.931-22.182 22.182 9.932 22.182 22.182 22.182Z"/><path fill="#000" d="M888.662 321.757v1.226h1.226v-1.226zm-556.089 0h-1.226v1.226h1.226zm.867-94.673a1.226 1.226 0 0 0-1.734 0l-7.804 7.804a1.226 1.226 0 1 0 1.734 1.734l6.937-6.937 6.936 6.937a1.227 1.227 0 0 0 1.735-1.734zm553.996 70.148v24.525h2.452v-24.525zm1.226 23.299H332.573v2.452h556.089zm-554.863 1.226v-93.806h-2.452v93.806z"/><path fill="#4FAD97" d="M539.444 174.863a1.226 1.226 0 0 0 0-1.734l-7.803-7.803a1.226 1.226 0 1 0-1.734 1.734l6.936 6.936-6.936 6.937a1.226 1.226 0 1 0 1.734 1.734zm-156.596.359h155.729v-2.452H382.848z"/><path stroke="#F63" stroke-width="2.452" d="M503.121 241.439h242.501c9.58-52.754-31.934-65.942-53.889-65.942-5.988-35.969-37.922-46.959-50.895-47.958-38.321-2.398-55.885 26.976-59.876 41.963-11.976-9.592-24.949-5.995-29.939-2.998-11.975 7.194-12.974 22.98-11.977 29.974-31.135 2.398-36.923 30.973-35.925 44.961Z"/><path fill="#222" d="M389.749 181.411v7.134h-1.293v-7.134zm2.605 3.999v3.135h-1.262v-5.351h1.206v.91h.063q.184-.45.588-.715.408-.264 1.007-.264.554 0 .965.237.414.236.641.686.23.449.226 1.09v3.407h-1.261v-3.212q0-.536-.278-.839-.276-.303-.763-.303-.331 0-.589.146-.254.143-.401.414a1.4 1.4 0 0 0-.142.659m7.043 5.253q-.68 0-1.167-.185a2.06 2.06 0 0 1-.783-.487 1.7 1.7 0 0 1-.412-.68l1.136-.275q.077.157.223.31.147.157.394.258.25.105.63.105.537 0 .889-.262.351-.258.351-.85v-1.013h-.062q-.098.195-.286.4a1.5 1.5 0 0 1-.491.345q-.303.14-.763.139-.617 0-1.118-.289a2.1 2.1 0 0 1-.795-.871q-.292-.581-.292-1.456 0-.88.292-1.487.297-.61.798-.923a2.05 2.05 0 0 1 1.118-.317q.471 0 .774.16.306.156.487.38.182.219.276.414h.069v-.885h1.244v5.438q0 .686-.327 1.136a2 2 0 0 1-.896.672 3.5 3.5 0 0 1-1.289.223m.011-3.184q.4 0 .683-.195.281-.195.428-.561.147-.365.146-.878a2.5 2.5 0 0 0-.146-.885 1.26 1.26 0 0 0-.425-.588 1.1 1.1 0 0 0-.686-.213q-.422 0-.704.22t-.425.602a2.5 2.5 0 0 0-.143.864q0 .492.143.861.146.366.429.571.285.202.7.202m3.793 1.066v-5.351h1.223v.892h.056a1.334 1.334 0 0 1 1.32-.968q.105 0 .234.01.132.007.219.025v1.16a1.3 1.3 0 0 0-.254-.049 2.4 2.4 0 0 0-.331-.025q-.345 0-.62.15a1.11 1.11 0 0 0-.586 1.01v3.146zm6.038.105q-.805 0-1.39-.335a2.26 2.26 0 0 1-.895-.954q-.313-.62-.313-1.46 0-.825.313-1.449.317-.627.885-.976.567-.351 1.334-.351.495 0 .934.16.443.156.78.488.341.33.536.843.196.508.196 1.212v.387h-4.386v-.85h3.177a1.4 1.4 0 0 0-.157-.645 1.14 1.14 0 0 0-.428-.449 1.2 1.2 0 0 0-.635-.164q-.386 0-.679.188a1.3 1.3 0 0 0-.456.488q-.16.3-.164.658v.742q0 .466.171.801.171.332.477.509.307.174.718.174.274 0 .498-.076.222-.081.387-.234a1 1 0 0 0 .247-.38l1.177.133a1.83 1.83 0 0 1-.425.815q-.31.345-.794.536a3 3 0 0 1-1.108.189m7.675-4.041-1.149.125a.9.9 0 0 0-.171-.327.85.85 0 0 0-.32-.248 1.2 1.2 0 0 0-.495-.094 1.2 1.2 0 0 0-.662.171q-.264.17-.261.442a.46.46 0 0 0 .171.38q.177.147.585.24l.912.195q.76.165 1.129.52.373.354.376.93a1.45 1.45 0 0 1-.296.891 1.9 1.9 0 0 1-.804.6 3.1 3.1 0 0 1-1.185.216q-.982 0-1.581-.411a1.65 1.65 0 0 1-.714-1.154l1.229-.118a.86.86 0 0 0 .356.547q.271.185.707.185.449 0 .721-.185.275-.185.275-.456a.47.47 0 0 0-.178-.38q-.174-.15-.543-.23l-.913-.192q-.77-.159-1.139-.54-.369-.383-.366-.968a1.37 1.37 0 0 1 .269-.857q.275-.366.762-.564a3 3 0 0 1 1.133-.202q.94 0 1.48.4.544.4.672 1.084m5.384 0-1.149.125a.9.9 0 0 0-.171-.327.85.85 0 0 0-.32-.248 1.2 1.2 0 0 0-.495-.094q-.394 0-.662.171-.266.17-.261.442a.46.46 0 0 0 .17.38q.178.147.586.24l.912.195q.76.165 1.129.52.373.354.376.93a1.45 1.45 0 0 1-.296.891 1.9 1.9 0 0 1-.805.6 3 3 0 0 1-1.184.216q-.982 0-1.582-.411a1.66 1.66 0 0 1-.714-1.154l1.23-.118a.87.87 0 0 0 .355.547q.272.185.708.185.448 0 .721-.185.275-.185.275-.456a.47.47 0 0 0-.178-.38q-.174-.15-.543-.23l-.913-.192q-.77-.159-1.139-.54-.369-.383-.366-.968-.003-.495.268-.857.276-.366.763-.564a3 3 0 0 1 1.132-.202q.94 0 1.481.4.543.4.672 1.084m-118.485-84.578h-2.418v-7.134h2.466q1.063 0 1.826.429.766.424 1.177 1.222t.411 1.909q0 1.115-.414 1.916-.411.801-1.188 1.23-.774.428-1.86.428m-1.126-1.118h1.063q.745 0 1.244-.272a1.74 1.74 0 0 0 .749-.818q.25-.547.25-1.366t-.25-1.358a1.7 1.7 0 0 0-.742-.812q-.489-.272-1.213-.272h-1.101zm8.234 1.118h-2.418v-7.134h2.467q1.062 0 1.825.429.766.424 1.177 1.222t.412 1.909q0 1.115-.415 1.916-.411.801-1.188 1.23-.773.428-1.86.428m-1.125-1.118h1.062q.746 0 1.244-.272.498-.275.749-.818.25-.547.251-1.366 0-.819-.251-1.358a1.7 1.7 0 0 0-.742-.812q-.487-.272-1.213-.272h-1.1zm8.094 1.223q-.784 0-1.359-.345a2.35 2.35 0 0 1-.892-.965q-.313-.62-.313-1.45 0-.828.313-1.452.318-.623.892-.968t1.359-.345q.783 0 1.358.345t.889.968q.317.624.317 1.453t-.317 1.449a2.3 2.3 0 0 1-.889.965q-.575.345-1.358.345m.007-1.01q.425 0 .71-.234.286-.237.425-.634.144-.397.143-.885 0-.49-.143-.888a1.4 1.4 0 0 0-.425-.637 1.07 1.07 0 0 0-.71-.237q-.436 0-.725.237a1.43 1.43 0 0 0-.428.637q-.14.397-.14.888 0 .488.14.885.143.397.428.634.289.234.725.234m7.56-4.268a.95.95 0 0 0-.411-.71q-.359-.255-.934-.255-.404 0-.693.122a1.03 1.03 0 0 0-.442.33.8.8 0 0 0-.056.865q.105.163.282.279.178.111.394.188.216.076.435.129l.669.167q.404.095.777.254.376.16.672.404.3.244.474.589t.174.808q0 .627-.32 1.105-.321.473-.927.742-.603.264-1.46.264-.833 0-1.445-.257a2.15 2.15 0 0 1-.955-.753q-.34-.495-.369-1.205h1.271q.029.372.23.62.202.248.526.369.329.121.732.122.422 0 .738-.125a1.2 1.2 0 0 0 .502-.356.86.86 0 0 0 .185-.536.7.7 0 0 0-.164-.46 1.2 1.2 0 0 0-.449-.306 4.3 4.3 0 0 0-.669-.223l-.812-.21q-.881-.226-1.393-.686-.509-.464-.509-1.23 0-.63.341-1.104.345-.474.938-.735a3.3 3.3 0 0 1 1.341-.264q.76 0 1.33.264.575.261.903.728.327.464.338 1.066zm5.843 5.173h-1.38l2.512-7.134h1.595l2.516 7.134h-1.38l-1.905-5.671h-.056zm.045-2.797h3.762v1.038h-3.762zm8.418-2.553v.975h-3.076v-.975zm-2.317-1.282h1.262v5.023q0 .255.076.39a.4.4 0 0 0 .209.18.8.8 0 0 0 .286.05q.119 0 .216-.017.1-.017.153-.032l.213.986q-.101.035-.29.077a2.4 2.4 0 0 1-.452.049 2.1 2.1 0 0 1-.854-.143 1.33 1.33 0 0 1-.603-.495q-.219-.335-.216-.836zm6.044 1.282v.975h-3.076v-.975zm-2.317-1.282h1.261v5.023q0 .255.077.39a.4.4 0 0 0 .209.18.8.8 0 0 0 .285.05q.119 0 .216-.017.102-.017.154-.032l.212.986a2.4 2.4 0 0 1-.742.126q-.474.013-.853-.143a1.33 1.33 0 0 1-.603-.495q-.219-.335-.216-.836zm4.911 6.74q-.509 0-.916-.181a1.5 1.5 0 0 1-.641-.543q-.234-.36-.234-.885 0-.453.168-.75.166-.294.456-.473a2.3 2.3 0 0 1 .651-.268q.366-.094.756-.136.47-.048.763-.087.293-.042.425-.125.136-.087.136-.27v-.02q0-.393-.233-.61-.234-.215-.673-.215-.464 0-.735.202a1 1 0 0 0-.362.477l-1.177-.167q.139-.488.459-.815.32-.332.784-.495.463-.167 1.024-.167.387 0 .77.09.384.09.7.3.317.206.509.56.195.357.195.889v3.581h-1.212v-.735h-.042a1.6 1.6 0 0 1-.324.418q-.205.191-.519.31a2.1 2.1 0 0 1-.728.115m.327-.926q.38 0 .659-.15.279-.153.428-.404.153-.251.154-.547v-.631a.6.6 0 0 1-.202.09 3 3 0 0 1-.314.074q-.174.031-.345.056l-.296.042a2.2 2.2 0 0 0-.505.125.83.83 0 0 0-.352.244.6.6 0 0 0-.129.397q0 .349.254.526.255.178.648.178m6.1.923q-.801 0-1.376-.352a2.34 2.34 0 0 1-.881-.972q-.307-.624-.307-1.435 0-.815.314-1.44.314-.626.885-.974.575-.352 1.358-.352.651 0 1.153.24.505.237.805.673.3.431.341 1.01h-1.205a1.16 1.16 0 0 0-.348-.645q-.272-.261-.728-.261-.387 0-.68.209a1.34 1.34 0 0 0-.456.592q-.16.387-.16.927 0 .547.16.94.16.39.449.603.292.21.687.209.278 0 .498-.104.223-.109.372-.31.15-.204.206-.491h1.205q-.045.567-.334 1.006a2 2 0 0 1-.787.683q-.498.244-1.171.244m4.477-1.784-.003-1.522h.202l1.923-2.15h1.473l-2.365 2.634h-.261zm-1.149 1.679v-7.134h1.261v7.134zm3.358 0-1.742-2.435.85-.888 2.4 3.323zm173.407 34.37v-7.135h2.731q.773 0 1.285.244.516.24.77.658.258.418.258.948 0 .435-.167.745a1.4 1.4 0 0 1-.45.499 1.9 1.9 0 0 1-.63.275v.069q.38.021.728.234.351.209.575.592t.223.927q0 .553-.269.996-.267.44-.808.693-.54.255-1.358.255zm1.292-1.08h1.39q.703 0 1.014-.269a.88.88 0 0 0 .313-.696q0-.317-.156-.572a1.1 1.1 0 0 0-.446-.404q-.29-.15-.69-.15h-1.425zm0-3.021h1.279q.334 0 .602-.122.269-.125.422-.351a.95.95 0 0 0 .157-.544.9.9 0 0 0-.293-.683q-.29-.268-.861-.268h-1.306zm9.934-.756a1.9 1.9 0 0 0-.24-.505 1.6 1.6 0 0 0-.362-.386 1.5 1.5 0 0 0-.481-.241 2 2 0 0 0-.592-.083q-.575 0-1.024.289-.45.29-.708.85-.254.557-.254 1.358 0 .809.254 1.369.255.561.708.854.453.29 1.052.289.543 0 .94-.209.4-.209.617-.592.216-.387.216-.906l.292.045h-1.936v-1.01h2.894v.857q0 .916-.39 1.585-.39.67-1.073 1.031-.682.359-1.567.359-.987 0-1.732-.442a3.07 3.07 0 0 1-1.16-1.265q-.414-.822-.414-1.951 0-.864.244-1.543.247-.68.689-1.153.442-.477 1.039-.725.596-.25 1.295-.25.592 0 1.105.174.512.17.909.488.4.317.658.752t.338.961zm2.626 4.857v-7.135h2.676q.821 0 1.379.307.56.306.847.843.288.532.289 1.212 0 .687-.289 1.219a2.07 2.07 0 0 1-.854.84q-.564.303-1.39.303h-1.773v-1.063h1.599q.48 0 .787-.167t.453-.46q.15-.293.15-.672t-.15-.669a1 1 0 0 0-.456-.449q-.307-.164-.791-.164h-1.184v6.055zm-65.539 11h-1.379l2.511-7.135h1.596l2.515 7.135h-1.38l-1.905-5.672h-.056zm.045-2.798h3.763v1.038h-3.763zm7.343-.338v3.136h-1.261v-5.351h1.205v.909h.063q.184-.45.589-.714.407-.265 1.006-.265.555 0 .965.237.415.237.641.686.23.45.227 1.091v3.407h-1.261v-3.212q0-.537-.279-.84-.275-.303-.763-.303-.331 0-.589.146a1 1 0 0 0-.4.415 1.4 1.4 0 0 0-.143.658m5.978 0v3.136h-1.261v-5.351h1.205v.909h.063q.185-.45.588-.714.408-.265 1.007-.265.554 0 .965.237.415.237.641.686.23.45.227 1.091v3.407h-1.262v-3.212q0-.537-.278-.84-.276-.303-.763-.303-.331 0-.589.146a1 1 0 0 0-.4.415 1.4 1.4 0 0 0-.143.658m7.05 3.24q-.783 0-1.358-.345a2.34 2.34 0 0 1-.892-.965q-.313-.62-.313-1.449t.313-1.453a2.34 2.34 0 0 1 .892-.968q.575-.345 1.358-.345.785 0 1.359.345t.888.968q.318.624.317 1.453 0 .83-.317 1.449a2.3 2.3 0 0 1-.888.965q-.575.345-1.359.345m.007-1.01q.426 0 .711-.234.286-.237.425-.634.143-.396.143-.884a2.6 2.6 0 0 0-.143-.889 1.4 1.4 0 0 0-.425-.637 1.08 1.08 0 0 0-.711-.237q-.435 0-.724.237-.286.237-.429.637a2.7 2.7 0 0 0-.139.889q0 .488.139.884.143.397.429.634.29.234.724.234m7.038-1.345v-3.1h1.261v5.351h-1.223v-.951h-.055a1.6 1.6 0 0 1-.596.735q-.411.285-1.014.285-.525 0-.93-.233a1.63 1.63 0 0 1-.627-.686q-.226-.453-.226-1.094v-3.407h1.261v3.212q0 .508.278.808.279.3.732.299.279 0 .54-.135a1.1 1.1 0 0 0 .428-.405q.171-.271.171-.679m3.819-.885v3.136h-1.261v-5.351h1.205v.909h.063q.184-.45.589-.714.407-.265 1.006-.265.555 0 .965.237.415.237.641.686.23.45.227 1.091v3.407h-1.261v-3.212q0-.537-.279-.84-.275-.303-.763-.303-.33 0-.589.146a1 1 0 0 0-.4.415 1.4 1.4 0 0 0-.143.658m7.051 3.24q-.801 0-1.376-.352a2.35 2.35 0 0 1-.882-.972q-.306-.623-.306-1.435 0-.815.313-1.439.313-.627.885-.975.575-.352 1.359-.352.65 0 1.153.24.505.237.805.673.299.432.341 1.01h-1.205a1.15 1.15 0 0 0-.349-.644q-.272-.262-.728-.262-.387 0-.679.209a1.34 1.34 0 0 0-.456.593 2.4 2.4 0 0 0-.161.926q0 .547.161.941.16.39.449.602.293.21.686.209.279 0 .498-.104a1 1 0 0 0 .373-.31q.15-.203.206-.491h1.205q-.045.567-.335 1.006a1.97 1.97 0 0 1-.787.683q-.498.244-1.17.244m5.696 0q-.804 0-1.39-.334a2.27 2.27 0 0 1-.895-.955q-.314-.62-.314-1.459 0-.826.314-1.45.317-.627.885-.975.567-.352 1.334-.352.495 0 .934.16.442.157.78.488.341.332.536.843.196.508.196 1.212v.387h-4.386v-.85h3.177a1.4 1.4 0 0 0-.157-.644 1.13 1.13 0 0 0-.429-.45 1.2 1.2 0 0 0-.634-.164q-.386 0-.679.189a1.3 1.3 0 0 0-.456.487q-.16.3-.164.659v.742q0 .466.171.801.171.331.477.508.306.175.718.175.274 0 .498-.077.222-.08.386-.233a1 1 0 0 0 .248-.38l1.177.132a1.8 1.8 0 0 1-.425.815q-.31.345-.794.537a3 3 0 0 1-1.108.188m3.446-.104v-5.351h1.206v.909h.062q.168-.46.554-.718.387-.261.923-.261.544 0 .917.265.375.261.529.714h.056q.177-.445.599-.711a1.85 1.85 0 0 1 1.007-.268q.738 0 1.205.467.467.466.467 1.362v3.592h-1.265v-3.397q0-.498-.264-.728a.95.95 0 0 0-.648-.233q-.457 0-.714.285-.255.282-.255.735v3.338h-1.236v-3.449q0-.415-.251-.662-.248-.247-.648-.247a.9.9 0 0 0-.495.139.97.97 0 0 0-.355.387 1.2 1.2 0 0 0-.133.578v3.254zm11.173.104q-.805 0-1.39-.334a2.27 2.27 0 0 1-.895-.955q-.314-.62-.314-1.459 0-.826.314-1.45.316-.627.885-.975.567-.352 1.334-.352.495 0 .933.16.442.157.781.488.34.332.536.843.195.508.195 1.212v.387h-4.386v-.85h3.178a1.4 1.4 0 0 0-.157-.644 1.13 1.13 0 0 0-.429-.45 1.2 1.2 0 0 0-.634-.164q-.387 0-.679.189a1.3 1.3 0 0 0-.456.487q-.16.3-.164.659v.742q0 .466.171.801.17.331.477.508.306.175.717.175.276 0 .499-.077.222-.08.386-.233a1 1 0 0 0 .248-.38l1.177.132a1.8 1.8 0 0 1-.425.815q-.31.345-.794.537a3 3 0 0 1-1.108.188m4.707-3.24v3.136h-1.261v-5.351h1.205v.909h.063q.184-.45.589-.714.408-.265 1.007-.265.554 0 .965.237.414.237.641.686.23.45.226 1.091v3.407h-1.261v-3.212q0-.537-.279-.84-.275-.303-.763-.303-.33 0-.588.146-.255.144-.401.415a1.4 1.4 0 0 0-.143.658m7.389-2.215v.975h-3.076v-.975zm-2.317-1.282h1.261v5.023q0 .255.077.39a.4.4 0 0 0 .209.181.8.8 0 0 0 .286.049q.118 0 .216-.017.1-.017.153-.032l.212.986a2.4 2.4 0 0 1-.742.126 2.1 2.1 0 0 1-.853-.143 1.33 1.33 0 0 1-.603-.495q-.219-.334-.216-.836zm40.035 61.849h-2.417v-7.134h2.466q1.063 0 1.825.428.767.425 1.178 1.223t.411 1.909q0 1.115-.415 1.916-.411.801-1.188 1.23-.772.429-1.86.428m-1.125-1.118h1.062q.746 0 1.244-.272.498-.275.749-.818.25-.547.251-1.366 0-.819-.251-1.358a1.7 1.7 0 0 0-.742-.812q-.488-.272-1.212-.272h-1.101zm8.233 1.118h-2.417v-7.134h2.466q1.062 0 1.826.428.766.425 1.177 1.223t.411 1.909q0 1.115-.415 1.916-.411.801-1.187 1.23-.774.429-1.861.428m-1.125-1.118h1.063q.745 0 1.243-.272.498-.275.749-.818.25-.547.251-1.366 0-.819-.251-1.358a1.7 1.7 0 0 0-.742-.812q-.488-.272-1.212-.272h-1.101zm8.094 1.223q-.783 0-1.358-.345a2.34 2.34 0 0 1-.892-.965q-.314-.62-.314-1.449t.314-1.453q.316-.624.892-.968.575-.345 1.358-.345t1.359.345q.575.344.888.968.317.624.317 1.453t-.317 1.449a2.3 2.3 0 0 1-.888.965q-.575.345-1.359.345m.007-1.01q.425 0 .711-.234a1.4 1.4 0 0 0 .425-.634q.143-.397.143-.885 0-.49-.143-.888a1.4 1.4 0 0 0-.425-.637 1.08 1.08 0 0 0-.711-.237q-.436 0-.724.237-.287.236-.429.637a2.7 2.7 0 0 0-.139.888q0 .488.139.885.143.397.429.634.288.234.724.234m7.56-4.268a.95.95 0 0 0-.411-.71q-.359-.255-.933-.255-.405 0-.693.122a1.03 1.03 0 0 0-.443.331.8.8 0 0 0-.157.477q0 .224.101.387a.9.9 0 0 0 .283.279q.177.111.393.188.216.076.436.129l.668.167q.405.094.777.254.376.16.673.404.299.244.473.589.175.345.175.808 0 .627-.321 1.105-.32.473-.927.742-.602.264-1.459.264-.832 0-1.446-.257a2.15 2.15 0 0 1-.954-.753q-.342-.495-.37-1.205h1.272q.028.372.23.62t.526.369q.327.122.731.122.422 0 .739-.125a1.2 1.2 0 0 0 .502-.356.86.86 0 0 0 .184-.536.68.68 0 0 0-.164-.46 1.2 1.2 0 0 0-.449-.307 4.5 4.5 0 0 0-.669-.223l-.811-.209q-.881-.225-1.394-.686-.508-.464-.508-1.229 0-.631.341-1.105.345-.474.937-.735a3.3 3.3 0 0 1 1.341-.265q.76 0 1.331.265.575.261.902.728.327.463.338 1.066zm4.927 5.173v-7.134h2.675q.823 0 1.38.307.561.306.846.843.29.532.29 1.212 0 .686-.29 1.219a2.07 2.07 0 0 1-.853.84q-.565.303-1.39.303h-1.773v-1.063h1.599q.48 0 .787-.167.306-.167.453-.46.15-.293.15-.672t-.15-.669a1 1 0 0 0-.456-.449q-.307-.164-.791-.164h-1.185v6.054zm6.257 0v-5.35h1.223v.891h.056a1.33 1.33 0 0 1 .502-.714q.359-.254.818-.254.105 0 .234.01.132.007.219.025v1.16a1.3 1.3 0 0 0-.254-.049 2.4 2.4 0 0 0-.331-.024q-.345 0-.62.149a1.1 1.1 0 0 0-.429.408 1.15 1.15 0 0 0-.157.603v3.145zm6.003.105q-.783 0-1.358-.345a2.34 2.34 0 0 1-.892-.965q-.313-.62-.313-1.449t.313-1.453q.317-.624.892-.968.575-.345 1.358-.345.785 0 1.359.345.574.344.888.968.318.624.317 1.453 0 .83-.317 1.449a2.3 2.3 0 0 1-.888.965q-.574.345-1.359.345m.007-1.01q.426 0 .711-.234.286-.237.425-.634.143-.397.143-.885 0-.49-.143-.888a1.4 1.4 0 0 0-.425-.637 1.08 1.08 0 0 0-.711-.237q-.435 0-.724.237-.286.236-.429.637a2.7 2.7 0 0 0-.139.888q0 .488.139.885.143.397.429.634.29.234.724.234m6.3-4.445v.975h-3.076v-.975zm-2.317-1.282h1.261v5.023q0 .254.077.39a.4.4 0 0 0 .209.181.8.8 0 0 0 .285.049q.118 0 .216-.017.102-.017.154-.032l.212.986a3 3 0 0 1-.289.077 2.3 2.3 0 0 1-.453.048 2.05 2.05 0 0 1-.853-.142 1.33 1.33 0 0 1-.603-.495q-.219-.335-.216-.836zm5.683 6.737q-.805 0-1.39-.335a2.26 2.26 0 0 1-.896-.954q-.313-.62-.313-1.46 0-.825.313-1.449.318-.627.885-.975.568-.352 1.334-.352.495 0 .934.16.442.157.78.488.342.33.537.843.195.508.195 1.212v.387h-4.386v-.85h3.177a1.36 1.36 0 0 0-.157-.645 1.14 1.14 0 0 0-.428-.449 1.2 1.2 0 0 0-.634-.164 1.23 1.23 0 0 0-.679.188 1.3 1.3 0 0 0-.457.488 1.4 1.4 0 0 0-.164.658v.742q0 .468.171.802.171.33.477.508.307.174.718.174.275 0 .498-.076a1.1 1.1 0 0 0 .387-.234 1 1 0 0 0 .247-.379l1.178.132a1.84 1.84 0 0 1-.425.815q-.31.345-.795.537a3 3 0 0 1-1.107.188m5.78 0q-.801 0-1.376-.352a2.36 2.36 0 0 1-.882-.972q-.306-.624-.306-1.435 0-.816.313-1.439.313-.627.885-.975.575-.352 1.359-.352.65 0 1.153.24.505.237.805.673.299.431.341 1.01h-1.205a1.15 1.15 0 0 0-.349-.645q-.272-.261-.728-.261-.387 0-.679.209a1.34 1.34 0 0 0-.456.592 2.4 2.4 0 0 0-.161.927q0 .547.161.941.16.39.449.602.293.21.686.209.279 0 .498-.104.223-.108.373-.31t.206-.492h1.205q-.045.569-.335 1.007a1.97 1.97 0 0 1-.787.683q-.498.244-1.17.244m5.999-5.455v.975h-3.076v-.975zm-2.316-1.282h1.261v5.023q0 .254.076.39a.4.4 0 0 0 .209.181.8.8 0 0 0 .286.049q.118 0 .216-.017.1-.017.153-.032l.213.986a3 3 0 0 1-.289.077 2.3 2.3 0 0 1-.453.048 2.1 2.1 0 0 1-.854-.142 1.33 1.33 0 0 1-.602-.495q-.22-.335-.216-.836zm3.371 6.632v-5.35h1.261v5.35zm.634-6.11a.74.74 0 0 1-.516-.198.64.64 0 0 1-.216-.485q0-.285.216-.484a.73.73 0 0 1 .516-.202q.303 0 .516.202a.64.64 0 0 1 .215.484q0 .282-.215.485a.73.73 0 0 1-.516.198m4.258 6.215q-.784 0-1.359-.345a2.35 2.35 0 0 1-.892-.965q-.313-.62-.313-1.449t.313-1.453a2.34 2.34 0 0 1 .892-.968q.574-.345 1.359-.345.783 0 1.358.345.576.344.889.968.317.624.317 1.453t-.317 1.449a2.3 2.3 0 0 1-.889.965q-.575.345-1.358.345m.007-1.01q.425 0 .71-.234.286-.237.425-.634.144-.397.143-.885 0-.49-.143-.888a1.4 1.4 0 0 0-.425-.637 1.07 1.07 0 0 0-.71-.237q-.436 0-.725.237-.285.236-.428.637-.14.397-.14.888 0 .488.14.885.143.397.428.634.289.234.725.234m4.888-2.23v3.135h-1.261v-5.35h1.205v.909h.063q.184-.45.589-.714.407-.265 1.006-.265.554 0 .965.237.415.237.641.686.23.45.227 1.09v3.407h-1.261v-3.212q0-.536-.279-.839-.275-.303-.763-.303-.33 0-.589.146a1 1 0 0 0-.4.415 1.4 1.4 0 0 0-.143.658m9.254 2.714v-4.821h1.094v4.821zm-1.864-1.864v-1.094h4.822v1.094zm-71.128 6.151v7.134h-1.149l-3.362-4.859h-.059v4.859h-1.292v-7.134h1.156l3.358 4.863h.063v-4.863zm3.722 7.239q-.805 0-1.39-.335a2.26 2.26 0 0 1-.895-.954q-.314-.62-.314-1.46 0-.825.314-1.449.317-.627.884-.975.568-.352 1.335-.352.494 0 .933.16.442.157.781.488.34.33.536.843.195.508.195 1.212v.387h-4.386v-.85h3.177a1.36 1.36 0 0 0-.156-.645 1.14 1.14 0 0 0-.429-.449 1.2 1.2 0 0 0-.634-.164 1.23 1.23 0 0 0-.679.188 1.3 1.3 0 0 0-.457.488q-.16.3-.163.658v.742q0 .468.17.802.17.33.478.508.306.174.717.174.276 0 .498-.076a1.1 1.1 0 0 0 .387-.234.96.96 0 0 0 .247-.379l1.178.132a1.83 1.83 0 0 1-.425.815q-.31.345-.794.537a3 3 0 0 1-1.108.188m6.118-5.455v.975h-3.076v-.975zm-2.317-1.282h1.261v5.023q0 .254.077.39a.4.4 0 0 0 .209.181.8.8 0 0 0 .286.049q.118 0 .216-.017.1-.017.153-.032l.212.986a3 3 0 0 1-.289.077 2.3 2.3 0 0 1-.453.048q-.473.014-.853-.142a1.33 1.33 0 0 1-.603-.495q-.219-.335-.216-.836zm4.476 6.632-1.512-5.35h1.285l.941 3.762h.049l.961-3.762h1.272l.961 3.741h.052l.927-3.741h1.289l-1.515 5.35h-1.314l-1.003-3.616h-.073l-1.003 3.616zm9.286.105q-.783 0-1.359-.345a2.34 2.34 0 0 1-.891-.965q-.314-.62-.314-1.449t.314-1.453q.317-.624.891-.968.576-.345 1.359-.345.784 0 1.359.345.575.344.888.968.317.624.317 1.453t-.317 1.449a2.3 2.3 0 0 1-.888.965q-.575.345-1.359.345m.007-1.01q.425 0 .711-.234a1.4 1.4 0 0 0 .425-.634q.143-.397.143-.885 0-.49-.143-.888a1.4 1.4 0 0 0-.425-.637 1.08 1.08 0 0 0-.711-.237q-.435 0-.725.237-.285.236-.428.637a2.7 2.7 0 0 0-.139.888q0 .488.139.885.143.397.428.634.29.234.725.234m3.627.905v-5.35h1.223v.891h.056a1.334 1.334 0 0 1 1.32-.968q.105 0 .233.01.133.007.22.025v1.16a1.3 1.3 0 0 0-.254-.049 2.4 2.4 0 0 0-.331-.024q-.345 0-.62.149a1.1 1.1 0 0 0-.586 1.011v3.145zm5.039-1.679-.003-1.522h.202l1.923-2.149h1.473l-2.365 2.633h-.261zm-1.149 1.679v-7.134h1.261v7.134zm3.358 0-1.742-2.435.85-.888 2.4 3.323zm4.716 0v-7.134h4.57v1.083h-3.278v1.937h2.965v1.084h-2.965v3.03zm5.692 0v-5.35h1.261v5.35zm.634-6.11a.74.74 0 0 1-.516-.198.64.64 0 0 1-.216-.485q0-.285.216-.484a.73.73 0 0 1 .516-.202q.303 0 .515.202a.63.63 0 0 1 .216.484q0 .282-.216.485a.73.73 0 0 1-.515.198m1.924 6.11v-5.35h1.222v.891h.056a1.335 1.335 0 0 1 1.32-.968q.105 0 .234.01.132.007.219.025v1.16a1.3 1.3 0 0 0-.254-.049 2.4 2.4 0 0 0-.331-.024q-.345 0-.62.149a1.1 1.1 0 0 0-.428.408 1.14 1.14 0 0 0-.157.603v3.145zm6.038.105q-.805 0-1.39-.335a2.26 2.26 0 0 1-.896-.954q-.313-.62-.313-1.46 0-.825.313-1.449.318-.627.885-.975.568-.352 1.334-.352.495 0 .934.16.442.157.78.488.342.33.537.843.195.508.195 1.212v.387h-4.386v-.85h3.177a1.34 1.34 0 0 0-.157-.645 1.14 1.14 0 0 0-.428-.449 1.2 1.2 0 0 0-.634-.164 1.23 1.23 0 0 0-.679.188 1.3 1.3 0 0 0-.457.488 1.4 1.4 0 0 0-.164.658v.742q0 .468.171.802.171.33.477.508.307.174.718.174.275 0 .498-.076a1.1 1.1 0 0 0 .387-.234 1 1 0 0 0 .247-.379l1.178.132a1.84 1.84 0 0 1-.425.815q-.31.345-.795.537a3 3 0 0 1-1.107.188m4.521-.105-1.512-5.35h1.286l.94 3.762h.049l.962-3.762h1.271l.962 3.741h.052l.926-3.741h1.289l-1.515 5.35h-1.313l-1.004-3.616h-.073l-1.003 3.616zm8.646.108q-.509 0-.917-.181a1.5 1.5 0 0 1-.641-.543q-.233-.358-.233-.885 0-.453.167-.749.168-.295.457-.474.289-.177.651-.268.366-.094.756-.136.47-.048.763-.087.293-.042.425-.125.136-.087.136-.269v-.021q0-.393-.234-.609-.232-.216-.672-.216-.464 0-.735.202a1 1 0 0 0-.362.477l-1.178-.167q.14-.488.46-.815.32-.332.784-.495.463-.167 1.024-.167.387 0 .77.09.383.092.7.3.317.206.509.561.195.355.195.888v3.581h-1.212v-.735h-.042a1.6 1.6 0 0 1-.324.418q-.205.192-.519.31-.31.115-.728.115m.327-.926q.38 0 .658-.15.279-.153.429-.404.153-.251.153-.547v-.631a.6.6 0 0 1-.202.091 3 3 0 0 1-.313.073q-.174.032-.345.056l-.296.042a2.2 2.2 0 0 0-.505.125.83.83 0 0 0-.352.244.6.6 0 0 0-.129.397q0 .349.254.526.255.178.648.178m5.027-6.316v7.134h-1.261v-7.134zm2.558 0v7.134h-1.261v-7.134zm97.535-39.463h-1.38l2.512-7.135h1.595l2.516 7.135h-1.38l-1.905-5.672h-.056zm.045-2.798h3.762v1.038h-3.762zm7.343-.338v3.136h-1.261v-5.351h1.205v.909h.063a1.53 1.53 0 0 1 .588-.714q.408-.265 1.007-.265.554 0 .965.237.414.237.641.686.23.45.226 1.091v3.407h-1.261v-3.212q0-.537-.278-.84-.276-.303-.763-.303-.331 0-.589.147-.255.142-.401.414a1.4 1.4 0 0 0-.142.658m5.309 5.142a2.6 2.6 0 0 1-.823-.132l.293-.983q.275.08.491.077a.6.6 0 0 0 .38-.136q.167-.129.282-.432l.108-.289-1.94-5.462h1.337l1.234 4.041h.055l1.237-4.041h1.341l-2.142 5.999q-.15.425-.397.728a1.6 1.6 0 0 1-.606.466q-.356.165-.85.164m7.02-1.902q-.801 0-1.376-.352a2.35 2.35 0 0 1-.882-.972q-.306-.623-.306-1.435 0-.815.313-1.439.313-.627.885-.975.575-.352 1.359-.352.65 0 1.153.241.505.237.805.672.299.432.341 1.01h-1.205a1.15 1.15 0 0 0-.349-.644q-.272-.262-.728-.262-.387 0-.679.209a1.34 1.34 0 0 0-.456.593 2.4 2.4 0 0 0-.161.926q0 .547.161.941.16.39.449.603.293.209.686.209.279 0 .498-.105a1 1 0 0 0 .373-.31q.15-.202.206-.491h1.205q-.046.567-.334 1.007-.29.435-.788.682-.498.244-1.17.244m4.867.004q-.508 0-.916-.181a1.5 1.5 0 0 1-.641-.544q-.233-.359-.233-.885 0-.452.167-.749.167-.296.456-.473.29-.178.652-.269.365-.094.756-.136.47-.048.762-.087.293-.041.425-.125.136-.087.136-.268v-.021q0-.394-.233-.61-.234-.216-.672-.216-.463 0-.735.202-.268.203-.363.477l-1.177-.167q.14-.488.46-.815.32-.33.783-.495a3 3 0 0 1 1.025-.167q.386 0 .77.091.382.09.7.299a1.5 1.5 0 0 1 .508.561q.195.355.195.889v3.581h-1.212v-.735h-.042a1.52 1.52 0 0 1-.843.728 2.1 2.1 0 0 1-.728.115m.328-.927q.38 0 .658-.15.279-.153.429-.404.153-.25.153-.547v-.63a.6.6 0 0 1-.202.09 3 3 0 0 1-.314.073q-.174.032-.345.056l-.296.042a2.2 2.2 0 0 0-.505.125.85.85 0 0 0-.352.244.6.6 0 0 0-.129.397q0 .35.255.526.253.178.648.178m7.994-3.118-1.149.126a.9.9 0 0 0-.171-.328.86.86 0 0 0-.32-.247 1.2 1.2 0 0 0-.495-.094q-.393 0-.662.17-.264.171-.261.443a.46.46 0 0 0 .171.38q.177.145.585.24l.913.195q.759.164 1.128.519.373.355.376.93a1.45 1.45 0 0 1-.296.892 1.9 1.9 0 0 1-.804.599 3.1 3.1 0 0 1-1.185.216q-.982 0-1.581-.411a1.65 1.65 0 0 1-.714-1.153l1.229-.118a.87.87 0 0 0 .356.547q.271.184.707.184.449 0 .721-.184.275-.186.275-.457a.48.48 0 0 0-.178-.38q-.174-.149-.543-.229l-.913-.192q-.77-.16-1.139-.54-.369-.383-.366-.968-.004-.495.269-.857.274-.366.762-.565a3 3 0 0 1 1.133-.202q.94 0 1.48.401.544.4.672 1.083m3.827-1.414v.975h-3.076v-.975zm-2.316-1.282h1.261v5.023q0 .255.076.39a.42.42 0 0 0 .209.182.8.8 0 0 0 .286.048q.118 0 .216-.017.1-.018.153-.031l.213.985a2.4 2.4 0 0 1-.742.126 2.1 2.1 0 0 1-.854-.143 1.33 1.33 0 0 1-.602-.495q-.22-.334-.216-.836zm10.639 1.777a1.9 1.9 0 0 0-.24-.506q-.15-.225-.362-.386a1.5 1.5 0 0 0-.481-.241 2 2 0 0 0-.592-.083q-.576 0-1.024.289-.45.29-.708.85-.254.557-.254 1.359 0 .807.254 1.369.255.56.708.853.452.29 1.052.289.543 0 .94-.209.4-.209.617-.592.216-.387.216-.906l.292.046h-1.937v-1.011h2.895v.857q0 .916-.39 1.585-.39.67-1.073 1.031t-1.567.359q-.987 0-1.732-.442a3.07 3.07 0 0 1-1.16-1.265q-.414-.822-.414-1.951 0-.863.244-1.543.246-.68.689-1.153.442-.477 1.038-.724a3.3 3.3 0 0 1 1.296-.251q.592 0 1.105.174.512.17.909.488.4.317.658.752t.338.962zm2.626 4.856v-7.135h2.675q.822 0 1.38.286.561.285.846.801.29.513.29 1.195 0 .687-.293 1.191a1.9 1.9 0 0 1-.854.777q-.564.272-1.386.272h-1.906v-1.073h1.732q.48 0 .787-.132a.94.94 0 0 0 .453-.394q.15-.261.15-.641t-.15-.648a.96.96 0 0 0-.456-.411q-.307-.143-.791-.143h-1.185v6.055zm3.686-3.233 1.766 3.233h-1.442l-1.735-3.233zm2.694 3.233v-7.135h4.64v1.084h-3.347v1.937h3.107v1.083h-3.107v1.947h3.375v1.084zm8.079-6.051v-1.084h5.692v1.084h-2.205v6.051h-1.282v-6.051zm9.416 3.8v-3.1h1.261v5.351h-1.223v-.951h-.056a1.6 1.6 0 0 1-.595.735q-.412.285-1.014.285a1.8 1.8 0 0 1-.93-.233 1.63 1.63 0 0 1-.627-.686q-.227-.453-.227-1.094v-3.407h1.261v3.212q0 .508.279.808t.732.3q.278 0 .539-.136.262-.137.429-.404.171-.272.171-.68m3.818-.885v3.136h-1.261v-5.351h1.206v.909h.062q.186-.45.589-.714.408-.265 1.007-.265.554 0 .965.237.414.237.641.686.23.45.226 1.091v3.407h-1.261v-3.212q0-.537-.278-.84-.276-.303-.763-.303-.331 0-.589.147-.254.142-.401.414a1.4 1.4 0 0 0-.143.658m5.978 0v3.136h-1.261v-5.351h1.206v.909h.062q.185-.45.589-.714.408-.265 1.007-.265.554 0 .965.237.414.237.641.686.23.45.226 1.091v3.407h-1.261v-3.212q0-.537-.279-.84-.274-.303-.763-.303-.33 0-.588.147-.254.142-.401.414a1.4 1.4 0 0 0-.143.658m7.086 3.24q-.805 0-1.39-.334a2.27 2.27 0 0 1-.895-.955q-.314-.62-.314-1.459 0-.826.314-1.45.317-.627.884-.975.568-.352 1.335-.352.494 0 .933.16.442.158.781.488.34.332.536.843.195.508.195 1.212v.387h-4.386v-.85h3.177a1.35 1.35 0 0 0-.156-.644 1.14 1.14 0 0 0-.429-.45 1.2 1.2 0 0 0-.634-.163q-.387 0-.679.188a1.3 1.3 0 0 0-.457.487q-.16.3-.163.659v.742q0 .467.17.801.17.331.478.509.306.174.717.174.276 0 .498-.077.224-.08.387-.233a1 1 0 0 0 .247-.38l1.178.132a1.84 1.84 0 0 1-.425.816 2.1 2.1 0 0 1-.794.536 3 3 0 0 1-1.108.188m4.707-7.239v7.135h-1.261v-7.135zm-86.289 47.814h-1.303a1.6 1.6 0 0 0-.205-.568 1.53 1.53 0 0 0-.882-.686 2 2 0 0 0-.609-.091q-.582 0-1.031.293-.45.288-.704.85-.254.556-.254 1.362 0 .819.254 1.379.257.558.704.843a1.9 1.9 0 0 0 1.027.282q.321 0 .6-.083.282-.087.505-.254.226-.168.379-.412.158-.243.216-.557l1.303.007a2.8 2.8 0 0 1-.317.955q-.24.445-.63.787-.39.338-.913.529a3.4 3.4 0 0 1-1.16.188q-.94 0-1.679-.435a3.04 3.04 0 0 1-1.164-1.258q-.425-.822-.425-1.971 0-1.153.429-1.972a3.07 3.07 0 0 1 1.167-1.258 3.23 3.23 0 0 1 1.672-.435q.595 0 1.108.167.511.168.912.491.401.321.659.788.261.464.341 1.059m2.389-2.407v7.134h-1.261v-7.134zm3.631 7.238q-.784 0-1.359-.344a2.35 2.35 0 0 1-.892-.965q-.313-.62-.313-1.45 0-.828.313-1.452.318-.624.892-.969t1.359-.345q.783 0 1.358.345t.889.969q.317.624.317 1.452 0 .83-.317 1.45a2.3 2.3 0 0 1-.889.965q-.575.344-1.358.344m.007-1.01q.425 0 .71-.233.287-.237.425-.634.144-.398.143-.885 0-.491-.143-.888a1.4 1.4 0 0 0-.425-.638 1.07 1.07 0 0 0-.71-.237q-.436 0-.725.237-.285.237-.428.638-.14.397-.14.888 0 .487.14.885.143.397.428.634.289.233.725.233m7.037-1.344v-3.101h1.262v5.351h-1.223v-.951h-.056a1.6 1.6 0 0 1-.596.735q-.411.286-1.013.286a1.8 1.8 0 0 1-.93-.234 1.6 1.6 0 0 1-.628-.686q-.226-.453-.226-1.094v-3.407h1.261v3.212q0 .508.279.808t.731.3q.279 0 .54-.136t.429-.404q.17-.272.17-.679m4.544 2.344q-.63 0-1.129-.324-.498-.324-.787-.941t-.289-1.497q0-.893.292-1.505.297-.616.798-.931a2.05 2.05 0 0 1 1.118-.317q.471 0 .774.161.303.157.48.379.178.22.276.415h.052v-2.668h1.264v7.134h-1.24v-.843h-.076q-.097.195-.282.414a1.6 1.6 0 0 1-.488.37q-.303.153-.763.153m.352-1.035q.4 0 .683-.216a1.35 1.35 0 0 0 .428-.609q.146-.39.146-.909t-.146-.903a1.3 1.3 0 0 0-.425-.595 1.1 1.1 0 0 0-.686-.213q-.422 0-.704.22-.282.219-.425.606a2.6 2.6 0 0 0-.143.885q0 .5.143.895.146.39.429.616.285.223.7.223m6.551-4.41v.976h-3.163v-.976zm-2.372 5.351v-5.856q0-.54.223-.899.226-.359.606-.536t.843-.178q.328 0 .582.052.255.053.376.094l-.251.976a2 2 0 0 0-.202-.049 1.3 1.3 0 0 0-.271-.028q-.352 0-.498.171-.144.167-.143.481v5.772zm4.621-7.134v7.134h-1.261v-7.134zm2.837 7.242q-.509 0-.917-.181a1.5 1.5 0 0 1-.641-.544q-.233-.359-.233-.884 0-.453.167-.749a1.3 1.3 0 0 1 .457-.474q.288-.178.651-.268.366-.094.756-.136.47-.05.763-.087.293-.042.425-.126.135-.087.136-.268v-.021q0-.393-.234-.61-.232-.216-.672-.216-.463 0-.735.202a1 1 0 0 0-.362.478l-1.178-.167a1.9 1.9 0 0 1 .46-.816q.32-.33.784-.494.463-.168 1.024-.168.386 0 .77.091.383.09.7.3.317.206.509.561.195.354.195.888v3.581h-1.213v-.735h-.041a1.6 1.6 0 0 1-.324.418q-.206.192-.519.31-.31.115-.728.115m.327-.927q.38 0 .658-.15.279-.153.429-.404.153-.25.153-.547v-.63a.6.6 0 0 1-.202.091 3 3 0 0 1-.313.073 19 19 0 0 1-.641.097 2.2 2.2 0 0 0-.505.126.84.84 0 0 0-.352.243.6.6 0 0 0-.129.398q0 .348.254.526.255.177.648.177m3.766.819v-5.351h1.223v.892h.055a1.335 1.335 0 0 1 1.321-.968q.104 0 .233.01.132.007.219.024v1.16a1.4 1.4 0 0 0-.254-.048 2 2 0 0 0-.331-.025q-.345 0-.62.15a1.1 1.1 0 0 0-.428.408 1.14 1.14 0 0 0-.157.602v3.146zm6.038.104q-.805 0-1.39-.334a2.26 2.26 0 0 1-.896-.954q-.313-.62-.313-1.46 0-.826.313-1.449.318-.627.885-.976.569-.352 1.334-.352.495 0 .934.161.442.156.78.487.342.332.537.843t.195 1.213v.386h-4.386v-.85h3.177a1.34 1.34 0 0 0-.157-.644 1.14 1.14 0 0 0-.428-.449 1.2 1.2 0 0 0-.634-.164 1.23 1.23 0 0 0-.679.188 1.3 1.3 0 0 0-.457.488 1.4 1.4 0 0 0-.163.658v.742q0 .466.17.801.171.331.477.509.307.174.718.174.276 0 .498-.077.224-.08.387-.233a1 1 0 0 0 .247-.38l1.178.133a1.84 1.84 0 0 1-.425.815q-.31.345-.795.536a3 3 0 0 1-1.107.188m11.798-7.238v7.134h-1.15l-3.362-4.86h-.059v4.86h-1.292v-7.134h1.156l3.359 4.863h.062v-4.863zm3.721 7.238q-.805 0-1.39-.334a2.26 2.26 0 0 1-.895-.954q-.314-.62-.314-1.46 0-.826.314-1.449.317-.627.885-.976.567-.352 1.334-.352.495 0 .933.161.442.156.781.487.34.332.536.843.195.51.195 1.213v.386h-4.386v-.85h3.177a1.35 1.35 0 0 0-.156-.644 1.14 1.14 0 0 0-.429-.449 1.2 1.2 0 0 0-.634-.164 1.23 1.23 0 0 0-.679.188 1.3 1.3 0 0 0-.456.488 1.4 1.4 0 0 0-.164.658v.742q0 .466.171.801.17.331.477.509.306.174.717.174.276 0 .499-.077.222-.08.386-.233a1 1 0 0 0 .248-.38l1.177.133a1.83 1.83 0 0 1-.425.815q-.31.345-.794.536a3 3 0 0 1-1.108.188m6.118-5.455v.976h-3.076v-.976zm-2.317-1.282h1.261v5.024q0 .254.077.39a.42.42 0 0 0 .209.181.8.8 0 0 0 .286.049q.118 0 .216-.018.1-.017.153-.031l.213.986a3 3 0 0 1-.29.076 2.4 2.4 0 0 1-.452.049 2.1 2.1 0 0 1-.854-.143 1.33 1.33 0 0 1-.603-.494q-.219-.335-.216-.836zm4.476 6.633-1.512-5.351h1.285l.941 3.762h.049l.961-3.762h1.272l.961 3.742h.053l.926-3.742h1.289l-1.515 5.351h-1.314l-1.003-3.616h-.073l-1.003 3.616zm9.286.104q-.783 0-1.358-.344a2.34 2.34 0 0 1-.892-.965q-.314-.62-.314-1.45 0-.828.314-1.452a2.33 2.33 0 0 1 .892-.969q.575-.345 1.358-.345.785 0 1.359.345t.888.969q.317.624.317 1.452 0 .83-.317 1.45a2.3 2.3 0 0 1-.888.965q-.574.344-1.359.344m.007-1.01q.425 0 .711-.233a1.4 1.4 0 0 0 .425-.634q.143-.398.143-.885 0-.491-.143-.888a1.4 1.4 0 0 0-.425-.638 1.08 1.08 0 0 0-.711-.237q-.435 0-.724.237a1.43 1.43 0 0 0-.429.638 2.7 2.7 0 0 0-.139.888q0 .487.139.885.143.397.429.634.289.233.724.233m3.627.906v-5.351h1.223v.892h.056a1.33 1.33 0 0 1 .502-.714q.359-.255.818-.254.105 0 .234.01.132.007.219.024v1.16a1.4 1.4 0 0 0-.254-.048 2 2 0 0 0-.331-.025q-.345 0-.62.15a1.1 1.1 0 0 0-.585 1.01v3.146zm5.039-1.679-.003-1.522h.202l1.923-2.15h1.473l-2.365 2.634h-.261zm-1.149 1.679v-7.134h1.261v7.134zm3.358 0-1.742-2.435.85-.888 2.4 3.323zm-86.475 3.866v7.134h-1.293v-7.134zm2.605 3.999v3.135h-1.261v-5.351h1.205v.909h.063q.184-.448.588-.714.408-.264 1.007-.265.554 0 .965.237.414.237.641.687.23.449.226 1.09v3.407h-1.261v-3.212q0-.536-.278-.839-.276-.304-.763-.304-.331 0-.589.147a1 1 0 0 0-.4.414 1.4 1.4 0 0 0-.143.659m7.388-2.216v.976h-3.076v-.976zm-2.316-1.282h1.261v5.024a.8.8 0 0 0 .076.39.42.42 0 0 0 .209.181.8.8 0 0 0 .286.049q.118 0 .216-.018.101-.017.153-.031l.213.986a3 3 0 0 1-.289.076 2.4 2.4 0 0 1-.453.049q-.474.014-.854-.143a1.3 1.3 0 0 1-.602-.494q-.22-.335-.216-.836zm5.682 6.737q-.804 0-1.39-.334a2.27 2.27 0 0 1-.895-.954q-.313-.62-.313-1.46 0-.826.313-1.449.317-.627.885-.976.567-.352 1.334-.352.495 0 .934.161.442.156.78.487a2.3 2.3 0 0 1 .537.843q.195.51.195 1.213v.386h-4.386v-.85h3.177a1.4 1.4 0 0 0-.157-.644 1.14 1.14 0 0 0-.428-.449 1.2 1.2 0 0 0-.634-.164q-.387 0-.68.188a1.3 1.3 0 0 0-.456.488 1.4 1.4 0 0 0-.164.658v.742q0 .466.171.801.171.331.477.509.306.174.718.174.274 0 .498-.077.223-.08.387-.233a1 1 0 0 0 .247-.38l1.177.133a1.83 1.83 0 0 1-.425.815q-.31.345-.794.536a3 3 0 0 1-1.108.188m3.446-.104v-5.351h1.223v.892h.056a1.33 1.33 0 0 1 .502-.714q.359-.255.818-.254.105 0 .234.01.132.007.219.024v1.16a1.4 1.4 0 0 0-.254-.048 2 2 0 0 0-.331-.025q-.345 0-.62.15a1.1 1.1 0 0 0-.586 1.01v3.146zm6.003.104q-.8 0-1.376-.351a2.36 2.36 0 0 1-.881-.972q-.306-.623-.306-1.436 0-.815.313-1.438.313-.627.885-.976.574-.352 1.359-.352.65 0 1.153.241.505.237.804.672.3.432.342 1.01h-1.206a1.15 1.15 0 0 0-.348-.644q-.272-.261-.728-.261-.387 0-.679.209a1.34 1.34 0 0 0-.457.592q-.16.387-.16.927 0 .547.16.94.16.39.45.603.293.209.686.209.279 0 .498-.105a1 1 0 0 0 .373-.31q.15-.201.205-.491h1.206a2.1 2.1 0 0 1-.335 1.007q-.289.435-.787.683-.498.243-1.171.243m5.662 0q-.783 0-1.358-.344a2.34 2.34 0 0 1-.892-.965q-.314-.62-.314-1.45 0-.828.314-1.452a2.33 2.33 0 0 1 .892-.969q.575-.345 1.358-.345.785 0 1.359.345t.888.969q.317.624.317 1.452 0 .83-.317 1.45a2.3 2.3 0 0 1-.888.965q-.574.344-1.359.344m.007-1.01q.425 0 .711-.233a1.4 1.4 0 0 0 .425-.634q.143-.398.143-.885 0-.491-.143-.888a1.4 1.4 0 0 0-.425-.638 1.08 1.08 0 0 0-.711-.237q-.435 0-.724.237a1.43 1.43 0 0 0-.429.638 2.7 2.7 0 0 0-.139.888q0 .487.139.885.143.397.429.634.288.233.724.233m4.888-2.229v3.135h-1.261v-5.351h1.206v.909h.062q.186-.448.589-.714.408-.264 1.007-.265.554 0 .965.237.414.237.641.687.23.449.226 1.09v3.407h-1.261v-3.212q0-.536-.278-.839-.276-.304-.763-.304-.331 0-.589.147-.255.143-.401.414a1.4 1.4 0 0 0-.143.659m5.978 0v3.135h-1.261v-5.351h1.206v.909h.062q.185-.448.589-.714.408-.264 1.007-.265.554 0 .965.237.414.237.641.687.23.449.226 1.09v3.407h-1.261v-3.212q0-.536-.279-.839-.274-.304-.763-.304-.33 0-.588.147-.255.143-.401.414a1.4 1.4 0 0 0-.143.659m7.086 3.239q-.805 0-1.39-.334a2.26 2.26 0 0 1-.895-.954q-.314-.62-.314-1.46 0-.826.314-1.449.317-.627.884-.976.569-.352 1.335-.352.494 0 .933.161.442.156.781.487.34.332.536.843.195.51.195 1.213v.386h-4.386v-.85h3.177a1.35 1.35 0 0 0-.156-.644 1.14 1.14 0 0 0-.429-.449 1.2 1.2 0 0 0-.634-.164 1.23 1.23 0 0 0-.679.188 1.3 1.3 0 0 0-.457.488 1.4 1.4 0 0 0-.163.658v.742q0 .466.17.801.17.331.478.509.306.174.717.174.276 0 .498-.077.224-.08.387-.233a1 1 0 0 0 .247-.38l1.178.133a1.83 1.83 0 0 1-.425.815 2.1 2.1 0 0 1-.794.536 3 3 0 0 1-1.108.188m5.78 0q-.801 0-1.376-.351a2.35 2.35 0 0 1-.881-.972q-.307-.623-.307-1.436 0-.815.314-1.438a2.35 2.35 0 0 1 .884-.976q.575-.352 1.359-.352.651 0 1.153.241.505.237.805.672.299.432.341 1.01h-1.205a1.15 1.15 0 0 0-.349-.644q-.271-.261-.728-.261-.386 0-.679.209a1.34 1.34 0 0 0-.456.592 2.4 2.4 0 0 0-.161.927q0 .547.161.94.16.39.449.603.293.209.686.209.279 0 .499-.105.222-.108.372-.31.15-.201.206-.491h1.205q-.045.568-.334 1.007-.289.435-.788.683-.498.243-1.17.243m6-5.455v.976h-3.076v-.976zm-2.317-1.282h1.261v5.024q0 .254.077.39a.4.4 0 0 0 .209.181.8.8 0 0 0 .285.049q.118 0 .216-.018.102-.017.154-.031l.212.986a3 3 0 0 1-.289.076 2.4 2.4 0 0 1-.453.049 2.05 2.05 0 0 1-.853-.143 1.33 1.33 0 0 1-.603-.494q-.219-.335-.216-.836zm6.118 3.066q0-1.306.345-2.4a6.9 6.9 0 0 1 1.034-2.028h1.188q-.264.345-.494.847a7.5 7.5 0 0 0-.401 1.093q-.167.593-.265 1.23a9 9 0 0 0-.094 1.258q0 .826.164 1.672.167.846.449 1.571.286.721.641 1.181h-1.188a7 7 0 0 1-1.034-2.024 8 8 0 0 1-.345-2.4m9.71-1.16h-1.303a1.6 1.6 0 0 0-.206-.568 1.53 1.53 0 0 0-.881-.686 2 2 0 0 0-.61-.091q-.582 0-1.031.293-.45.288-.704.85-.254.556-.254 1.362 0 .819.254 1.379.258.558.704.843.45.282 1.028.282.32 0 .599-.083.282-.087.505-.254.227-.168.38-.412.156-.243.216-.557l1.303.007a2.83 2.83 0 0 1-1.861 2.271 3.4 3.4 0 0 1-1.16.188q-.94 0-1.679-.435a3.03 3.03 0 0 1-1.163-1.258q-.426-.822-.425-1.971 0-1.153.428-1.972a3.07 3.07 0 0 1 1.167-1.258 3.23 3.23 0 0 1 1.672-.435q.596 0 1.108.167.512.168.913.491.4.321.658.788.261.464.342 1.059m7.046-2.407v7.134h-1.15l-3.361-4.86h-.06v4.86h-1.292v-7.134h1.157l3.358 4.863h.062v-4.863zm2.701 0v7.134h-1.293v-7.134zm3.594 3.567q0 1.302-.349 2.4a6.9 6.9 0 0 1-1.031 2.024h-1.188q.269-.345.495-.843.23-.498.397-1.094a9.5 9.5 0 0 0 .265-1.233 8.3 8.3 0 0 0-.07-2.926 9 9 0 0 0-.449-1.571q-.282-.725-.638-1.185h1.188a6.8 6.8 0 0 1 1.031 2.028 7.9 7.9 0 0 1 .349 2.4m-4.919 67.917-1.303.006a1.6 1.6 0 0 0-.208-.567 1.5 1.5 0 0 0-.884-.682 2 2 0 0 0-.61-.088 1.85 1.85 0 0 0-1.03.297q-.448.291-.7.853-.252.56-.248 1.363.003.82.26 1.379.261.557.708.84.45.28 1.029.277.32-.002.599-.086a1.7 1.7 0 0 0 .503-.257q.226-.168.378-.412.156-.245.214-.559l1.303.001q-.072.51-.313.956a2.8 2.8 0 0 1-1.537 1.324 3.4 3.4 0 0 1-1.159.193q-.942.004-1.682-.428a3.04 3.04 0 0 1-1.169-1.252q-.428-.82-.433-1.97-.006-1.152.419-1.973.424-.825 1.161-1.263a3.23 3.23 0 0 1 1.671-.443q.595-.003 1.108.162t.915.487q.402.319.662.785.264.462.346 1.057m4.549 2.456-.014-3.1 1.261-.006.025 5.351-1.223.006-.004-.951h-.056q-.18.45-.593.738-.41.287-1.012.29a1.83 1.83 0 0 1-.931-.229 1.6 1.6 0 0 1-.63-.684q-.23-.451-.232-1.093l-.015-3.407 1.261-.005.015 3.212q.001.509.282.806t.733.297q.278-.002.539-.138.26-.137.427-.407.17-.272.167-.68m6.78-1.716-1.149.131a.9.9 0 0 0-.173-.327.84.84 0 0 0-.321-.246 1.2 1.2 0 0 0-.495-.092 1.2 1.2 0 0 0-.661.174q-.264.171-.26.443a.46.46 0 0 0 .173.379q.178.146.586.238l.914.191q.759.16 1.131.514.374.354.38.928a1.46 1.46 0 0 1-.292.894 1.9 1.9 0 0 1-.802.602q-.515.219-1.184.222-.981.004-1.583-.404a1.65 1.65 0 0 1-.719-1.15l1.229-.124a.87.87 0 0 0 .358.545q.271.183.708.182.448-.003.72-.188.274-.186.273-.458a.48.48 0 0 0-.179-.379q-.175-.149-.545-.227l-.913-.188q-.77-.156-1.142-.535-.37-.381-.37-.966-.006-.495.265-.858a1.75 1.75 0 0 1 .76-.568 3 3 0 0 1 1.131-.207q.94-.005 1.482.394.546.397.678 1.08m3.82-1.432.004.976-3.076.014-.004-.976zm-2.322-1.271 1.261-.006.022 5.024q.001.254.079.389a.4.4 0 0 0 .209.181.8.8 0 0 0 .286.047q.118 0 .216-.018a2 2 0 0 0 .153-.032l.217.984a2.5 2.5 0 0 1-.741.129 2 2 0 0 1-.854-.139 1.3 1.3 0 0 1-.605-.492q-.221-.333-.22-.835zm5.678 6.712q-.784.003-1.361-.339a2.34 2.34 0 0 1-.896-.961q-.316-.618-.32-1.448-.003-.828.307-1.454.315-.625.888-.972.573-.348 1.357-.351.784-.005 1.36.339.576.342.892.964.321.623.324 1.451t-.31 1.451a2.33 2.33 0 0 1-.884.969q-.574.346-1.357.351m.002-1.011q.425-.002.71-.236.284-.238.422-.636.14-.397.139-.885a2.6 2.6 0 0 0-.147-.888 1.4 1.4 0 0 0-.428-.636 1.07 1.07 0 0 0-.712-.233q-.435.001-.723.24-.285.238-.426.639a2.7 2.7 0 0 0-.135.889q.002.488.143.884.144.397.431.632.291.233.726.23m3.631.89-.024-5.351 1.206-.005.004.909h.062a1.42 1.42 0 0 1 .551-.72q.385-.263.922-.266.543-.002.917.261.377.26.533.712l.056-.001q.175-.446.596-.713.423-.27 1.005-.273.739-.003 1.208.462.468.464.473 1.36l.016 3.591-1.265.006-.015-3.397q-.003-.498-.268-.727a.95.95 0 0 0-.649-.23q-.456.002-.713.289-.253.283-.251.736l.015 3.337-1.237.006-.015-3.449q-.002-.415-.254-.661-.249-.246-.649-.244a.9.9 0 0 0-.494.141 1 1 0 0 0-.354.389q-.13.248-.129.579l.014 3.253zm11.173.054q-.804.004-1.391-.328a2.26 2.26 0 0 1-.9-.95q-.316-.62-.32-1.459-.003-.826.307-1.45.315-.629.881-.98.565-.354 1.332-.357.494-.003.935.156.443.154.782.484.344.33.54.841.198.507.201 1.211l.002.387-4.386.019-.004-.85 3.177-.014a1.36 1.36 0 0 0-.16-.644 1.14 1.14 0 0 0-.43-.447 1.2 1.2 0 0 0-.635-.161 1.23 1.23 0 0 0-.678.191 1.3 1.3 0 0 0-.454.49 1.4 1.4 0 0 0-.161.659l.003.742q.002.467.174.8.172.33.48.507.307.172.718.171.276-.001.498-.079.222-.081.386-.235a1 1 0 0 0 .245-.381l1.178.127a1.83 1.83 0 0 1-.421.817q-.309.346-.792.54a3 3 0 0 1-1.107.193m3.446-.12-.024-5.35 1.223-.006.004.892h.055a1.34 1.34 0 0 1 1.316-.975q.105 0 .234.01.132.006.219.023l.005 1.16a1.4 1.4 0 0 0-.254-.048 2.4 2.4 0 0 0-.331-.022q-.345.001-.62.152-.27.147-.426.41a1.14 1.14 0 0 0-.154.603l.014 3.146zm12.209-7.189.032 7.134-1.15.005-3.383-4.844h-.059l.022 4.86-1.293.006-.032-7.135 1.157-.005 3.38 4.848h.062l-.021-4.863zm3.754 7.222q-.805.004-1.392-.328a2.26 2.26 0 0 1-.899-.951q-.317-.618-.32-1.458-.004-.826.307-1.45.314-.629.88-.98.567-.354 1.333-.357.495-.003.934.156.442.154.783.484.342.33.54.84.197.509.2 1.212l.002.386-4.386.02-.003-.85 3.176-.014a1.35 1.35 0 0 0-.159-.644 1.14 1.14 0 0 0-.431-.447 1.2 1.2 0 0 0-.634-.161 1.23 1.23 0 0 0-.679.191 1.3 1.3 0 0 0-.454.49 1.4 1.4 0 0 0-.161.659l.004.742q.001.467.174.8.172.33.479.507.308.172.719.171a1.5 1.5 0 0 0 .498-.079q.222-.081.385-.235a1 1 0 0 0 .246-.381l1.178.127a1.85 1.85 0 0 1-.421.817q-.309.347-.792.54a3 3 0 0 1-1.107.193m6.093-5.483.005.976-3.076.014-.005-.976zm-2.322-1.271 1.261-.006.023 5.024q0 .254.078.389a.42.42 0 0 0 .21.181.8.8 0 0 0 .286.047q.119 0 .215-.018a2 2 0 0 0 .154-.032l.217.984q-.102.036-.289.078a2.3 2.3 0 0 1-.453.051q-.474.017-.854-.139a1.3 1.3 0 0 1-.605-.492q-.22-.333-.22-.835zm4.505 6.612-1.536-5.343 1.286-.006.957 3.758h.049l.945-3.767 1.271-.006.978 3.737h.052l.91-3.745 1.289-.006-1.491 5.357-1.313.006-1.02-3.611h-.073l-.987 3.621zm9.287.063q-.784.004-1.36-.338a2.35 2.35 0 0 1-.896-.961q-.317-.619-.32-1.448-.005-.83.307-1.454.314-.625.887-.973.573-.346 1.357-.351.784-.003 1.36.339t.893.965q.32.621.323 1.451t-.31 1.45a2.3 2.3 0 0 1-.884.969q-.573.348-1.357.351m.002-1.01q.426-.001.71-.237a1.4 1.4 0 0 0 .422-.635q.14-.399.139-.886a2.6 2.6 0 0 0-.147-.888 1.4 1.4 0 0 0-.428-.635 1.08 1.08 0 0 0-.711-.234 1.1 1.1 0 0 0-.724.24q-.285.238-.426.64a2.7 2.7 0 0 0-.135.889q.002.487.143.884.146.396.432.632.29.232.725.23m3.632.889-.024-5.35 1.222-.006.004.892h.056a1.34 1.34 0 0 1 .498-.717q.358-.255.818-.258.105 0 .233.01.133.006.22.023l.005 1.16a1.3 1.3 0 0 0-.254-.047 2 2 0 0 0-.331-.023q-.345.002-.62.152-.27.148-.426.41a1.14 1.14 0 0 0-.154.603l.014 3.146zm5.031-1.701-.01-1.522.202-.001 1.913-2.158 1.474-.007-2.354 2.644-.261.001zm-1.142 1.684-.032-7.134 1.261-.006.032 7.134zm3.358-.015-1.753-2.427.846-.892 2.415 3.312zm-320.51-34.091-1.791.008a2.3 2.3 0 0 0-.286-.779 2.1 2.1 0 0 0-1.216-.939 2.7 2.7 0 0 0-.839-.12 2.54 2.54 0 0 0-1.416.408q-.617.4-.962 1.173-.346.768-.342 1.875.006 1.125.359 1.895.357.765.972 1.155.62.385 1.415.382.44-.003.823-.119.389-.122.693-.353.31-.231.52-.567a2.1 2.1 0 0 0 .293-.768l1.792.001a3.9 3.9 0 0 1-.43 1.315 3.9 3.9 0 0 1-.862 1.086 4 4 0 0 1-1.252.734 4.7 4.7 0 0 1-1.594.266q-1.293.005-2.311-.589t-1.608-1.722-.596-2.708q-.008-1.586.577-2.714.583-1.133 1.597-1.736 1.012-.603 2.296-.609a4.9 4.9 0 0 1 1.524.223q.706.226 1.258.67.553.438.91 1.078.362.635.476 1.454m3.27-3.324.044 9.809-1.734.008-.044-9.81zm5.037 9.93q-1.078.005-1.87-.465a3.2 3.2 0 0 1-1.232-1.322q-.435-.85-.44-1.99t.422-2a3.2 3.2 0 0 1 1.22-1.337q.788-.477 1.866-.482 1.077-.006 1.87.466.792.47 1.227 1.326.44.855.445 1.995t-.427 1.995a3.2 3.2 0 0 1-1.215 1.332q-.789.477-1.866.482m.003-1.389q.585-.002.976-.325.391-.328.58-.874.194-.548.191-1.218a3.6 3.6 0 0 0-.201-1.22 1.94 1.94 0 0 0-.589-.874q-.394-.324-.978-.322-.6.003-.995.331a1.96 1.96 0 0 0-.585.879 3.7 3.7 0 0 0-.187 1.222q.003.67.198 1.216.198.545.593.869.399.32.997.316m9.669-1.892-.019-4.263 1.734-.008.033 7.357-1.682.008-.006-1.308-.076.001a2.2 2.2 0 0 1-.815 1.014q-.562.396-1.392.399a2.5 2.5 0 0 1-1.28-.315 2.24 2.24 0 0 1-.867-.94q-.313-.621-.318-1.502l-.021-4.685 1.734-.008.02 4.417q.003.7.388 1.109t1.008.407q.383-.001.742-.19.358-.187.586-.558.233-.375.231-.935m6.261 3.196a2.8 2.8 0 0 1-1.554-.439q-.687-.442-1.088-1.288-.4-.846-.407-2.058-.005-1.227.393-2.071.404-.85 1.092-1.284.687-.439 1.535-.443.647-.003 1.064.216.418.213.664.519.246.3.381.568h.072l-.017-3.669 1.739-.008.044 9.81-1.705.007-.006-1.159-.105.001a3 3 0 0 1-.385.571 2.1 2.1 0 0 1-.669.511q-.415.213-1.048.216m.478-1.425q.55-.003.937-.301.387-.304.586-.841.198-.538.195-1.251-.003-.714-.207-1.24a1.75 1.75 0 0 0-.588-.816q-.384-.291-.945-.288-.579.002-.966.306a1.83 1.83 0 0 0-.58.836q-.194.533-.191 1.217.003.69.202 1.23.203.536.593.846.393.304.964.302m8.981-6.105.006 1.342-4.349.019-.006-1.341zm-3.229 7.372-.036-8.051q-.003-.743.301-1.238.31-.494.83-.741a2.7 2.7 0 0 1 1.158-.25q.45-.001.8.069t.518.127l-.339 1.342a3 3 0 0 0-.278-.065 1.7 1.7 0 0 0-.373-.037q-.485.002-.684.238-.196.23-.194.662l.036 7.936zm6.31-9.838.044 9.81-1.734.008-.044-9.81zm3.945 9.941a3.1 3.1 0 0 1-1.261-.244 2.06 2.06 0 0 1-.885-.743q-.323-.492-.326-1.215-.003-.623.225-1.031t.625-.654.894-.373a7 7 0 0 1 1.038-.192 40 40 0 0 0 1.049-.124q.402-.06.583-.175.186-.12.185-.37v-.028q-.002-.541-.324-.837-.323-.296-.926-.293-.637.003-1.01.282a1.4 1.4 0 0 0-.495.659l-1.62-.223q.189-.671.627-1.124a2.8 2.8 0 0 1 1.075-.685 4.1 4.1 0 0 1 1.407-.236q.532-.002 1.059.12.528.121.965.408.437.28.703.768.27.487.274 1.22l.022 4.924-1.667.007-.005-1.01h-.057a2.1 2.1 0 0 1-.443.577 2.2 2.2 0 0 1-.712.429 2.9 2.9 0 0 1-1 .163m.444-1.276q.522-.003.905-.21.381-.213.586-.559.21-.345.208-.753l-.004-.867a.8.8 0 0 1-.277.126 4 4 0 0 1-.431.103q-.24.043-.474.078l-.407.06q-.388.055-.694.175a1.16 1.16 0 0 0-.482.338.82.82 0 0 0-.175.547q.003.478.353.721t.892.241m5.183 1.102-.033-7.357 1.681-.008.006 1.226h.077q.198-.638.685-.985a1.9 1.9 0 0 1 1.124-.355q.144 0 .321.013.182.01.302.032l.007 1.595a2 2 0 0 0-.35-.065 3 3 0 0 0-.455-.032q-.474.003-.852.21a1.5 1.5 0 0 0-.587.563 1.6 1.6 0 0 0-.211.83l.019 4.325zm8.303.106q-1.107.006-1.913-.451a3.1 3.1 0 0 1-1.237-1.307q-.435-.85-.44-2.005-.006-1.135.422-1.994a3.26 3.26 0 0 1 1.21-1.347q.778-.488 1.833-.492.68-.003 1.284.215.61.212 1.076.665.472.453.743 1.156.271.699.276 1.666l.002.532-6.03.027-.005-1.169 4.368-.02a1.9 1.9 0 0 0-.22-.885 1.56 1.56 0 0 0-.592-.615 1.65 1.65 0 0 0-.872-.221 1.7 1.7 0 0 0-.933.263q-.402.255-.625.673a1.94 1.94 0 0 0-.221.906l.005 1.02q.003.642.24 1.101.236.454.659.696.423.238.988.236.378-.003.684-.109.306-.111.53-.323t.338-.524l1.62.175q-.15.642-.579 1.123a2.85 2.85 0 0 1-1.089.743q-.665.261-1.522.265m-101.029 9.633a2.5 2.5 0 0 0-.334-.693 2.1 2.1 0 0 0-.5-.529 2 2 0 0 0-.663-.328 2.8 2.8 0 0 0-.815-.111 2.54 2.54 0 0 0-1.406.404q-.616.4-.967 1.173-.347.768-.341 1.869.004 1.111.358 1.881.353.77.977 1.169.625.396 1.449.391.747-.002 1.292-.293a2.03 2.03 0 0 0 .844-.818q.294-.533.291-1.246l.403.06-2.663.012-.007-1.389 3.981-.018.005 1.178q.006 1.26-.527 2.182a3.66 3.66 0 0 1-1.469 1.425q-.936.497-2.153.503-1.355.006-2.383-.598-1.023-.609-1.603-1.732-.575-1.128-.582-2.679-.005-1.188.326-2.124a4.6 4.6 0 0 1 .941-1.59 4 4 0 0 1 1.423-1.002 4.5 4.5 0 0 1 1.78-.353 4.7 4.7 0 0 1 1.52.233q.705.231 1.253.665.553.433.91 1.03t.47 1.32zm5.253-3.156.044 9.81-1.733.007-.044-9.809zm5.037 9.931q-1.077.005-1.87-.466a3.2 3.2 0 0 1-1.232-1.321q-.435-.85-.44-1.991-.005-1.14.422-1.999a3.2 3.2 0 0 1 1.22-1.337q.789-.479 1.866-.483 1.078-.005 1.87.466.793.471 1.228 1.326.44.855.445 1.995t-.427 1.995a3.2 3.2 0 0 1-1.216 1.332q-.788.479-1.866.483m.004-1.389q.584-.002.975-.326.392-.327.581-.874.194-.547.191-1.217a3.6 3.6 0 0 0-.202-1.221 1.93 1.93 0 0 0-.588-.874q-.394-.324-.979-.321-.599.003-.995.33a1.96 1.96 0 0 0-.585.879 3.7 3.7 0 0 0-.186 1.222q.003.671.197 1.216.198.545.593.869.4.32.998.317m5.069 1.222-.044-9.809 1.734-.008.017 3.669h.072q.132-.27.375-.572.243-.308.659-.525.416-.222 1.062-.225a2.8 2.8 0 0 1 1.54.429q.692.428 1.098 1.274.411.841.416 2.067.006 1.212-.388 2.062t-1.077 1.298-1.55.452q-.631.003-1.05-.206a2.1 2.1 0 0 1-.673-.505 3.3 3.3 0 0 1-.39-.568l-.101.001.006 1.159zm1.684-3.686q.003.714.207 1.249.209.536.593.836.389.295.94.293.575-.003.961-.311.387-.313.581-.851.2-.542.196-1.231a3.5 3.5 0 0 0-.202-1.216 1.83 1.83 0 0 0-.588-.831q-.39-.3-.969-.297-.557.002-.942.296a1.8 1.8 0 0 0-.586.822q-.194.527-.191 1.241m8.854 3.788a3.1 3.1 0 0 1-1.261-.244 2.05 2.05 0 0 1-.885-.743q-.323-.492-.326-1.215-.003-.623.225-1.031t.624-.654q.397-.247.894-.373a7 7 0 0 1 1.039-.192q.646-.07 1.048-.124.403-.06.584-.175.186-.121.185-.37v-.029q-.003-.54-.325-.836t-.925-.293q-.638.003-1.01.282-.367.28-.495.659l-1.62-.223q.189-.671.627-1.124a2.8 2.8 0 0 1 1.075-.685 4.1 4.1 0 0 1 1.407-.236q.533-.003 1.059.12.528.122.965.407.437.282.703.768.27.488.273 1.221l.022 4.924-1.666.007-.005-1.011-.057.001a2.2 2.2 0 0 1-.443.577 2.2 2.2 0 0 1-.712.429 2.9 2.9 0 0 1-1 .163m.444-1.277q.523-.002.904-.21.383-.212.587-.558a1.4 1.4 0 0 0 .207-.753l-.003-.867a.8.8 0 0 1-.278.126 4 4 0 0 1-.43.103q-.24.043-.474.078l-.407.06q-.388.054-.694.175a1.15 1.15 0 0 0-.482.338.82.82 0 0 0-.175.546q.002.48.353.722.35.243.892.24m6.873-8.715.044 9.81-1.734.008-.044-9.81zm6.509 9.781-1.897.009 3.41-9.826 2.193-.009 3.503 9.794-1.897.008-2.655-7.786h-.077zm.045-3.847 5.173-.023.006 1.428-5.173.023zm10.094-.509.019 4.31-1.734.008-.033-7.357 1.657-.007.006 1.25.086-.001q.252-.618.805-.985.56-.367 1.383-.37.762-.004 1.328.319.571.324.886.94.318.616.318 1.498l.021 4.684-1.734.008-.02-4.416q-.003-.738-.388-1.153-.38-.415-1.051-.412-.455.002-.809.205a1.4 1.4 0 0 0-.548.572q-.195.375-.192.907m7.331 7.037a3.5 3.5 0 0 1-.656-.055 2.4 2.4 0 0 1-.475-.122l.396-1.353q.38.109.676.102a.83.83 0 0 0 .521-.189q.23-.178.386-.595l.146-.399-2.701-7.498 1.839-.008 1.721 5.548h.076l1.676-5.564 1.844-.008-2.909 8.261a3.3 3.3 0 0 1-.542 1.004 2.2 2.2 0 0 1-.83.645q-.487.228-1.168.231m9.641-2.659q-1.101.005-1.894-.475a3.23 3.23 0 0 1-1.218-1.331q-.425-.856-.43-1.972-.006-1.12.422-1.98a3.2 3.2 0 0 1 1.211-1.346q.788-.487 1.866-.493.896-.004 1.586.324.697.322 1.111.919.414.592.476 1.387l-1.658.008a1.57 1.57 0 0 0-.483-.884q-.375-.358-1.002-.355a1.57 1.57 0 0 0-.933.291q-.4.284-.624.818-.218.533-.214 1.275.003.752.226 1.292.222.535.621.826.404.285.945.283a1.6 1.6 0 0 0 .685-.147q.305-.15.51-.428.205-.28.28-.677l1.657-.007q-.058.78-.454 1.386-.394.6-1.078.944-.684.338-1.608.342m6.693-.025a3.1 3.1 0 0 1-1.261-.244 2.06 2.06 0 0 1-.885-.743q-.323-.492-.326-1.215-.003-.623.225-1.031t.625-.654.894-.373a7 7 0 0 1 1.038-.191q.647-.07 1.049-.125.402-.059.583-.175.187-.12.186-.37l-.001-.028q-.002-.541-.324-.837-.323-.296-.926-.293-.637.003-1.009.282a1.4 1.4 0 0 0-.496.659l-1.62-.223q.189-.67.628-1.124.438-.457 1.074-.685a4.1 4.1 0 0 1 1.407-.236q.532-.002 1.06.12.527.121.964.408.438.28.703.768.27.487.274 1.22l.022 4.924-1.667.007-.005-1.01h-.057a2.1 2.1 0 0 1-.443.577 2.2 2.2 0 0 1-.712.429 2.9 2.9 0 0 1-1 .163m.444-1.276q.522-.003.905-.21.382-.213.586-.559.21-.345.208-.753l-.004-.867a.8.8 0 0 1-.277.126 4 4 0 0 1-.431.103q-.24.043-.474.079l-.407.059a3 3 0 0 0-.693.175 1.16 1.16 0 0 0-.483.338.82.82 0 0 0-.175.547q.003.479.353.721.351.243.892.241m10.974-4.337-1.58.18a1.25 1.25 0 0 0-.679-.787 1.6 1.6 0 0 0-.681-.127q-.541.003-.909.239-.363.237-.356.61a.64.64 0 0 0 .237.521q.245.2.806.327l1.256.263q1.045.22 1.555.706.515.486.523 1.277a2 2 0 0 1-.401 1.228q-.395.529-1.103.829t-1.627.304q-1.351.006-2.177-.555-.827-.567-.989-1.581l1.69-.171q.117.498.492.75.374.252.973.249.618-.002.99-.258.378-.255.376-.629a.65.65 0 0 0-.247-.521q-.24-.205-.748-.313l-1.256-.258q-1.06-.215-1.57-.735-.51-.525-.509-1.329a1.9 1.9 0 0 1 .364-1.18q.375-.505 1.045-.781.675-.28 1.556-.285 1.293-.006 2.038.542.75.548.931 1.485m5.253-1.968.006 1.341-4.23.019-.006-1.341zm-3.193-1.748 1.734-.008.031 6.907q.002.35.107.536.11.182.289.248.177.066.393.065a2 2 0 0 0 .297-.025q.138-.025.21-.044l.299 1.354a3.3 3.3 0 0 1-1.02.177 2.8 2.8 0 0 1-1.174-.191 1.83 1.83 0 0 1-.832-.677q-.304-.458-.302-1.148zm16.116-.762.044 9.809-1.581.007-4.652-6.661-.082.001.03 6.681-1.777.008-.044-9.809 1.59-.007 4.648 6.666.086-.001-.03-6.686zm5.161 9.93q-1.107.005-1.913-.451a3.1 3.1 0 0 1-1.237-1.307q-.435-.851-.44-2.005-.006-1.136.422-1.995a3.26 3.26 0 0 1 1.211-1.346q.778-.488 1.832-.492a3.7 3.7 0 0 1 1.285.214q.608.213 1.076.666.47.453.742 1.156.272.697.276 1.666l.002.531-6.03.027-.005-1.168 4.368-.02a1.9 1.9 0 0 0-.219-.885 1.56 1.56 0 0 0-.592-.615 1.66 1.66 0 0 0-.873-.222q-.532.003-.933.263a1.8 1.8 0 0 0-.624.674q-.22.413-.221.906l.004 1.02q.003.642.24 1.101.236.453.659.696.423.238.988.235.378-.001.684-.108.306-.112.531-.324.224-.211.337-.523l1.62.175q-.15.642-.579 1.123a2.85 2.85 0 0 1-1.089.742q-.664.262-1.522.266m8.379-7.539.006 1.341-4.23.019-.006-1.341zm-3.194-1.748 1.734-.008.031 6.907q.002.35.108.536.11.182.289.248.177.066.393.065.162 0 .297-.025.138-.024.21-.044l.298 1.354a4 4 0 0 1-.397.107 3.2 3.2 0 0 1-.622.07 2.8 2.8 0 0 1-1.174-.191 1.83 1.83 0 0 1-.832-.676q-.304-.459-.302-1.149zm6.195 9.092-2.112-7.348 1.768-.008 1.316 5.168.067-.001 1.299-5.179 1.748-.008 1.345 5.139h.072l1.251-5.15 1.773-.008-2.051 7.366-1.806.008-1.402-4.965h-.1l-1.357 4.978zm12.769.087q-1.077.005-1.87-.466a3.2 3.2 0 0 1-1.232-1.322q-.435-.85-.44-1.99t.422-1.999a3.2 3.2 0 0 1 1.22-1.338q.789-.477 1.866-.482 1.078-.005 1.87.466a3.17 3.17 0 0 1 1.228 1.326q.44.855.445 1.995t-.427 1.995a3.2 3.2 0 0 1-1.216 1.332q-.788.477-1.866.483m.004-1.39q.584-.002.975-.325.392-.327.581-.874.194-.548.191-1.218a3.6 3.6 0 0 0-.202-1.22 1.94 1.94 0 0 0-.588-.874q-.394-.324-.979-.321-.599.001-.995.33a1.96 1.96 0 0 0-.585.879 3.7 3.7 0 0 0-.186 1.222q.003.67.197 1.216.198.545.593.869.399.32.998.316m4.993 1.223-.033-7.357 1.681-.007.005 1.226h.077q.198-.639.685-.985a1.9 1.9 0 0 1 1.124-.355q.144-.001.321.013.182.009.302.032l.007 1.595a2 2 0 0 0-.35-.066 3 3 0 0 0-.455-.031 1.74 1.74 0 0 0-.851.21 1.5 1.5 0 0 0-.587.563q-.214.36-.212.829l.02 4.326zm6.918-2.339-.014-2.093.277-.002 2.631-2.967 2.026-.009-3.236 3.636-.359.001zm-1.57 2.315-.045-9.809 1.734-.008.044 9.81zm4.617-.02-2.41-3.338 1.163-1.226 3.321 4.554zm-150.06 22.497-.032-7.134 4.64-.021.004 1.083-3.347.015.008 1.937 3.108-.014.005 1.084-3.108.014.009 1.947 3.376-.015.004 1.083zm8.239 2.081q-.68.003-1.168-.179a2.1 2.1 0 0 1-.786-.485 1.7 1.7 0 0 1-.414-.677l1.134-.28q.078.156.225.309.146.156.395.256.25.104.63.101.537-.002.888-.265.35-.26.348-.851l-.005-1.014h-.063a1.8 1.8 0 0 1-.283.402 1.5 1.5 0 0 1-.49.347q-.303.141-.762.143a2.2 2.2 0 0 1-1.12-.284 2.1 2.1 0 0 1-.798-.867q-.296-.58-.299-1.455-.005-.882.286-1.489.293-.61.793-.927.5-.32 1.117-.322.471-.002.774.157.307.155.49.377.181.219.277.414l.069-.001-.004-.884 1.244-.006.024 5.438q.003.686-.322 1.137a1.96 1.96 0 0 1-.892.676 3.5 3.5 0 0 1-1.288.229m-.004-3.184a1.17 1.17 0 0 0 .682-.198q.28-.197.426-.563a2.4 2.4 0 0 0 .142-.878 2.4 2.4 0 0 0-.15-.885 1.26 1.26 0 0 0-.428-.586 1.1 1.1 0 0 0-.687-.21 1.12 1.12 0 0 0-.703.223 1.34 1.34 0 0 0-.422.604q-.14.38-.139.865a2.4 2.4 0 0 0 .147.86q.148.365.431.569.287.2.701.199m3.798 1.049-.024-5.351 1.223-.005.004.892.056-.001q.144-.464.498-.716.358-.257.818-.258a3 3 0 0 1 .453.033l.005 1.16a1.3 1.3 0 0 0-.255-.048 2.4 2.4 0 0 0-.331-.023 1.3 1.3 0 0 0-.619.153 1.1 1.1 0 0 0-.581 1.013l.014 3.145zm6.039.077q-.805.004-1.392-.328a2.26 2.26 0 0 1-.899-.95q-.317-.62-.32-1.458-.004-.826.307-1.451a2.37 2.37 0 0 1 .88-.979q.567-.355 1.333-.358.494-.003.934.156.442.154.783.484.342.33.54.841.197.507.2 1.211l.002.387-4.386.019-.004-.85 3.177-.014a1.36 1.36 0 0 0-.159-.644 1.14 1.14 0 0 0-.431-.447 1.2 1.2 0 0 0-.634-.161 1.23 1.23 0 0 0-.679.191 1.3 1.3 0 0 0-.454.49 1.4 1.4 0 0 0-.161.659l.003.742q.003.466.175.801.172.33.479.506.308.173.719.171a1.5 1.5 0 0 0 .497-.079q.223-.08.386-.235a1 1 0 0 0 .246-.381l1.178.127a1.83 1.83 0 0 1-.422.817 2.06 2.06 0 0 1-.791.54 3 3 0 0 1-1.107.193m7.657-4.075-1.149.131a.9.9 0 0 0-.173-.327.84.84 0 0 0-.321-.246 1.2 1.2 0 0 0-.495-.092 1.2 1.2 0 0 0-.661.174q-.264.171-.26.443a.46.46 0 0 0 .173.379q.178.146.586.238l.914.191q.759.16 1.131.514.374.354.38.928a1.46 1.46 0 0 1-.292.894 1.9 1.9 0 0 1-.802.602q-.515.219-1.183.222-.982.004-1.584-.404a1.65 1.65 0 0 1-.719-1.15l1.229-.124a.87.87 0 0 0 .358.545q.272.184.708.182.448-.003.72-.188.274-.186.273-.458a.47.47 0 0 0-.179-.379q-.175-.149-.545-.227l-.913-.188q-.77-.156-1.142-.534-.37-.382-.37-.967-.006-.495.265-.858a1.75 1.75 0 0 1 .76-.568 3 3 0 0 1 1.131-.207q.94-.005 1.482.394.546.397.678 1.08m5.383-.024-1.149.13a.9.9 0 0 0-.172-.326.84.84 0 0 0-.321-.246 1.2 1.2 0 0 0-.495-.092 1.2 1.2 0 0 0-.662.174q-.263.171-.259.443a.46.46 0 0 0 .173.379q.178.145.586.238l.913.191q.76.16 1.131.514.375.354.381.928a1.45 1.45 0 0 1-.292.893 1.9 1.9 0 0 1-.802.603q-.515.219-1.184.222-.982.004-1.583-.404a1.65 1.65 0 0 1-.719-1.15l1.229-.124a.87.87 0 0 0 .358.545q.272.183.708.182.448-.003.72-.188.275-.186.273-.458a.48.48 0 0 0-.179-.379q-.175-.149-.545-.227l-.913-.188q-.771-.156-1.142-.535-.371-.381-.37-.966-.006-.495.264-.859.274-.366.761-.567a2.9 2.9 0 0 1 1.131-.207q.94-.005 1.482.394.546.397.677 1.08m3.904.352a8 8 0 0 1 .334-2.402 7 7 0 0 1 1.025-2.032l1.188-.005q-.263.345-.491.848a7.6 7.6 0 0 0-.395 1.096q-.165.592-.26 1.231a9 9 0 0 0-.088 1.258q.003.825.171 1.671.17.846.457 1.569.289.72.646 1.178l-1.188.006a7 7 0 0 1-1.044-2.02 8 8 0 0 1-.355-2.398m6.036 3.54-2.417.011-.033-7.135 2.467-.011q1.062-.005 1.827.421a2.86 2.86 0 0 1 1.183 1.217q.414.796.42 1.907.005 1.114-.406 1.918a2.87 2.87 0 0 1-1.183 1.235q-.77.432-1.858.437m-1.13-1.113 1.062-.005q.745-.003 1.243-.278.496-.276.745-.821.248-.549.245-1.367-.004-.819-.257-1.358a1.7 1.7 0 0 0-.746-.808q-.489-.27-1.213-.266l-1.101.005zm5.765 1.092-.024-5.351 1.261-.005.024 5.35zm.606-6.113a.74.74 0 0 1-.516-.196.64.64 0 0 1-.218-.484.63.63 0 0 1 .214-.485.73.73 0 0 1 .514-.204.72.72 0 0 1 .517.2.63.63 0 0 1 .218.483.64.64 0 0 1-.214.485.73.73 0 0 1-.515.201m1.952 6.101-.024-5.35 1.222-.006.004.892h.056q.144-.464.499-.717.358-.255.817-.258.105 0 .234.01.132.006.219.023l.005 1.16a1.3 1.3 0 0 0-.254-.047 2 2 0 0 0-.331-.023q-.345.002-.62.152-.27.148-.426.41a1.15 1.15 0 0 0-.154.603l.014 3.146zm6.038.078q-.804.003-1.391-.328a2.27 2.27 0 0 1-.9-.951q-.317-.618-.32-1.458-.004-.825.307-1.451a2.37 2.37 0 0 1 .88-.979q.567-.354 1.333-.358.495-.002.934.156a2.1 2.1 0 0 1 .783.485q.342.329.54.84.197.508.201 1.212l.001.386-4.385.02-.004-.85 3.177-.014a1.36 1.36 0 0 0-.16-.644 1.14 1.14 0 0 0-.43-.448 1.2 1.2 0 0 0-.635-.16 1.2 1.2 0 0 0-.679.191 1.3 1.3 0 0 0-.454.489q-.159.3-.161.66l.004.742q.001.467.174.8.172.33.48.506.307.174.718.171.275 0 .498-.078a1.1 1.1 0 0 0 .385-.236.96.96 0 0 0 .246-.38l1.178.127a1.84 1.84 0 0 1-.421.817q-.309.346-.792.54a3 3 0 0 1-1.107.193m5.78-.026q-.8.003-1.378-.346a2.35 2.35 0 0 1-.885-.968q-.31-.621-.313-1.434-.004-.815.307-1.44.31-.628.88-.979.573-.355 1.357-.358a2.6 2.6 0 0 1 1.154.235q.507.235.808.669.301.43.346 1.009l-1.205.005a1.15 1.15 0 0 0-.351-.643q-.273-.26-.73-.258a1.14 1.14 0 0 0-.678.212 1.34 1.34 0 0 0-.454.594 2.5 2.5 0 0 0-.156.928 2.5 2.5 0 0 0 .165.94q.161.388.452.6.293.208.687.206.279-.001.498-.107a1 1 0 0 0 .371-.311q.149-.202.203-.492l1.206-.006a2.1 2.1 0 0 1-.33 1.008q-.287.437-.785.687-.497.246-1.169.249m5.975-5.482.004.975-3.075.014-.005-.975zm-2.322-1.272 1.261-.005.022 5.023a.8.8 0 0 0 .079.39.4.4 0 0 0 .21.18.8.8 0 0 0 .285.047q.118 0 .216-.018.102-.018.153-.032l.217.985a2.5 2.5 0 0 1-.741.129 2.1 2.1 0 0 1-.854-.139 1.33 1.33 0 0 1-.605-.492q-.221-.334-.22-.836zm9.744 1.416a.95.95 0 0 0-.415-.709q-.36-.252-.934-.25-.405.002-.693.125a1.03 1.03 0 0 0-.441.333.8.8 0 0 0-.155.478.7.7 0 0 0 .103.386.9.9 0 0 0 .284.278q.178.111.394.186.216.076.436.127l.67.164q.404.092.778.251.377.158.674.401.3.243.476.587t.178.807q.003.627-.315 1.106-.319.475-.924.746-.601.268-1.458.271-.832.004-1.447-.251a2.16 2.16 0 0 1-.958-.748q-.344-.493-.375-1.204l1.272-.006q.03.373.233.62.203.246.527.366.329.121.732.119.422-.001.738-.129.32-.13.5-.357a.86.86 0 0 0 .183-.538.7.7 0 0 0-.166-.459 1.2 1.2 0 0 0-.451-.304 4.3 4.3 0 0 0-.67-.22l-.812-.205q-.883-.223-1.397-.68-.51-.462-.514-1.228-.003-.63.336-1.106.343-.475.934-.739a3.3 3.3 0 0 1 1.34-.271q.759-.003 1.332.259.576.26.906.724.33.462.342 1.065zm4.83 5.256q-.805.003-1.392-.328a2.26 2.26 0 0 1-.899-.951q-.317-.618-.32-1.458-.004-.825.307-1.45.314-.629.88-.98.567-.354 1.333-.357.495-.003.934.156.442.154.783.484.342.33.54.84.197.508.2 1.212l.002.386-4.386.02-.003-.85 3.176-.014a1.35 1.35 0 0 0-.159-.644 1.14 1.14 0 0 0-.431-.447 1.2 1.2 0 0 0-.634-.161 1.23 1.23 0 0 0-.679.191 1.3 1.3 0 0 0-.454.49 1.4 1.4 0 0 0-.161.659l.004.742q.001.467.174.8.172.33.479.507.308.173.719.171a1.5 1.5 0 0 0 .498-.079q.223-.082.385-.235a1 1 0 0 0 .246-.381l1.178.127a1.85 1.85 0 0 1-.421.817q-.309.346-.792.54a3 3 0 0 1-1.107.193m3.445-.12-.024-5.351 1.223-.005.004.892.056-.001q.144-.464.498-.716.358-.257.818-.258.104 0 .233.01.132.006.22.023l.005 1.16a1.4 1.4 0 0 0-.255-.048 3 3 0 0 0-.331-.023 1.3 1.3 0 0 0-.619.153 1.1 1.1 0 0 0-.581 1.013l.014 3.145zm8.808-5.39-1.881 5.359-1.394.006-1.929-5.342 1.344-.006 1.248 3.969h.055l1.216-3.98zm3.084 5.441q-.805.004-1.392-.328a2.27 2.27 0 0 1-.899-.95q-.317-.62-.32-1.459-.004-.826.307-1.45.314-.629.88-.98.567-.354 1.333-.357.495-.003.934.156.443.154.783.484.342.33.54.841.197.507.2 1.211l.002.387-4.386.019-.003-.85 3.177-.014a1.4 1.4 0 0 0-.16-.644 1.14 1.14 0 0 0-.431-.447 1.2 1.2 0 0 0-.634-.161 1.23 1.23 0 0 0-.679.191 1.3 1.3 0 0 0-.454.49q-.159.3-.161.659l.004.742q.001.467.174.8.173.33.48.507.306.172.718.171a1.5 1.5 0 0 0 .498-.079q.223-.081.385-.235a1 1 0 0 0 .246-.381l1.178.127a1.83 1.83 0 0 1-.421.817q-.309.346-.792.54a3 3 0 0 1-1.107.193m3.445-.12-.024-5.35 1.223-.006.004.892h.056a1.335 1.335 0 0 1 1.316-.975q.105 0 .233.01.133.006.22.023l.005 1.16a1.4 1.4 0 0 0-.254-.048 2.4 2.4 0 0 0-.331-.022q-.345.001-.62.152a1.1 1.1 0 0 0-.427.41 1.15 1.15 0 0 0-.154.603l.015 3.146zm6.379-.028-.032-7.135 2.675-.012q.822-.003 1.381.28.562.283.85.797.29.511.295 1.194.003.686-.288 1.192a1.9 1.9 0 0 1-.85.781q-.563.275-1.385.278l-1.905.009-.005-1.073 1.731-.008q.481-.003.787-.136a.93.93 0 0 0 .451-.396 1.27 1.27 0 0 0 .147-.641 1.3 1.3 0 0 0-.153-.648.96.96 0 0 0-.458-.409q-.308-.14-.792-.139l-1.184.005.027 6.055zm3.671-3.25 1.781 3.225-1.443.007-1.749-3.225zm4.946 3.315q-.805.004-1.392-.328a2.27 2.27 0 0 1-.899-.95q-.317-.62-.32-1.458-.004-.826.307-1.451a2.37 2.37 0 0 1 .88-.979q.567-.355 1.333-.358.495-.003.934.156.443.155.783.484.342.33.54.841.197.507.2 1.211l.002.387-4.386.019-.003-.849 3.177-.015a1.4 1.4 0 0 0-.16-.644 1.14 1.14 0 0 0-.431-.447 1.2 1.2 0 0 0-.634-.161 1.23 1.23 0 0 0-.679.191 1.3 1.3 0 0 0-.454.49q-.159.3-.161.659l.004.742q.001.466.174.801.173.33.479.506.308.173.719.171a1.5 1.5 0 0 0 .498-.079q.223-.08.385-.235a1 1 0 0 0 .246-.381l1.178.127a1.83 1.83 0 0 1-.421.817q-.309.346-.792.54a3 3 0 0 1-1.107.193m6.093-5.482.005.975-3.076.014-.005-.975zm-2.322-1.272 1.261-.005.023 5.023q0 .253.078.39a.4.4 0 0 0 .21.18.8.8 0 0 0 .286.047q.118 0 .216-.018.1-.018.153-.032l.217.985a2.5 2.5 0 0 1-.742.129q-.474.015-.854-.139a1.33 1.33 0 0 1-.605-.492q-.22-.334-.22-.835zm6.801 4.352-.014-3.1 1.261-.006.024 5.351-1.222.005-.005-.951-.055.001q-.18.45-.593.737-.41.288-1.012.29a1.8 1.8 0 0 1-.931-.229 1.6 1.6 0 0 1-.63-.683q-.23-.452-.232-1.093l-.015-3.407 1.261-.006.014 3.212q.003.508.283.807t.733.296a1.14 1.14 0 0 0 .966-.544q.169-.273.167-.68m2.568 2.239-.024-5.351 1.223-.005.004.892.056-.001q.144-.464.498-.716.357-.257.817-.258a3 3 0 0 1 .453.033l.006 1.16a1.3 1.3 0 0 0-.255-.048 2.4 2.4 0 0 0-.331-.023 1.3 1.3 0 0 0-.619.153 1.1 1.1 0 0 0-.581 1.013l.014 3.145zm5.136-3.158.015 3.135-1.262.006-.024-5.351 1.206-.006.004.91.063-.001q.181-.45.585-.716.406-.267 1.006-.27.553-.002.966.233a1.6 1.6 0 0 1 .644.683q.231.448.231 1.09l.015 3.406-1.261.006-.014-3.212q-.003-.536-.283-.838-.276-.301-.764-.3a1.2 1.2 0 0 0-.588.149 1 1 0 0 0-.399.417 1.4 1.4 0 0 0-.14.659m6.969.195a8 8 0 0 1-.338 2.402 6.9 6.9 0 0 1-1.022 2.028l-1.188.005q.267-.345.491-.845.228-.5.392-1.095a9 9 0 0 0 .259-1.235 8.3 8.3 0 0 0-.082-2.926 9 9 0 0 0-.457-1.569q-.285-.723-.643-1.181l1.188-.006q.69.928 1.04 2.023.354 1.092.36 2.399"/><path fill="#fff" stroke="#FC3D2E" stroke-width="1.258" d="M596.807 131.079c0 5.748-4.659 10.407-10.407 10.407s-10.407-4.659-10.407-10.407 4.659-10.407 10.407-10.407 10.407 4.659 10.407 10.407Z"/><path fill="#FC3D2E" stroke="#FC3D2E" stroke-width=".629" d="m590.774 127.551-.894-.887-3.486 3.526-3.524-3.485-.884.893 3.524 3.485-3.486 3.523.893.887 3.487-3.526 3.524 3.485.887-.893-3.527-3.485z"/><path stroke="#FC3D2E" stroke-width="2.452" d="M365.068 54.44h155.116c21.867-2.043 65.725 8.461 66.216 66.829"/><path stroke="#6691FF" stroke-width="2.452" d="M734.772 193.617h154.503v20.846"/><path fill="#FC3D2E" d="M336.675 37h-9.246v3.525h9.246zm6.495 4.697h-15.741v3.526h15.741zm14.234 4.707h-38.347v3.526h38.347zm-6.02 4.698h-15.141v3.525h15.141zm-19.83 0h-8.091v3.525h8.091zm15.635 4.697h-20.2v3.525h20.2zm0 4.706H335.3v3.525h11.889zm-20.2 0h-11.89v3.525h11.89zm12.33 4.698h-24.22v3.525h24.22zm12.065 0h-6.592v3.525h6.592zM343.17 69.9h-6.998v3.526h6.998zm-11.977 0h-6.998v3.526h6.998zm8.126 4.706h-19.434v3.526h19.434zm0 4.699h-12.727v3.525h12.727z"/><mask id="mask0_55_809" width="23" height="23" x="620" y="161" maskUnits="userSpaceOnUse" style="mask-type:luminance"><path fill="#fff" d="M642.806 161.734h-22.072v22.072h22.072z"/></mask><g fill="#F63" mask="url(#mask0_55_809)"><path d="M631.77 165.782a6.32 6.32 0 0 0-6.312 6.298c0 4.314 5.47 11.381 5.705 11.674h1.1c.238-.293 5.818-7.343 5.818-11.674a6.32 6.32 0 0 0-6.311-6.298m-.049 16.389c-1.376-1.89-4.859-6.987-4.859-10.091a4.907 4.907 0 1 1 9.815 0c0 3.104-3.559 8.204-4.956 10.091"/><path d="M631.77 169.586a2.79 2.79 0 0 0-2.575 1.72 2.78 2.78 0 0 0 .604 3.037 2.79 2.79 0 0 0 4.288-.422 2.787 2.787 0 0 0-2.317-4.335m0 4.218a1.44 1.44 0 0 1-1.329-.884 1.437 1.437 0 0 1 1.046-1.958 1.438 1.438 0 0 1 1.714 1.411 1.435 1.435 0 0 1-1.431 1.431m.648-12.07h-1.355v2.924h1.355zm6.197 2.794-2.068 2.068.956.956 2.068-2.068zm3.542 7.138h-2.924v1.355h2.924zm-17.847.059h-2.925v1.356h2.925zm.572-7.154-.956.956 2.068 2.068.956-.956z"/></g><path fill="#F63" d="M549.613 161.736a1.226 1.226 0 1 0 0-2.453 1.226 1.226 0 0 0 0 2.453"/><path stroke="#F6821F" stroke-linejoin="bevel" stroke-width="1.586" d="M542.987 159.615a6.64 6.64 0 0 1 5.032-6.048 6.6 6.6 0 0 1 2.785-.086"/><path stroke="#FBAD41" stroke-linejoin="bevel" stroke-width="1.586" d="M539.643 158.887a9.65 9.65 0 0 1 3.68-7.029 9.65 9.65 0 0 1 7.702-1.904"/><path stroke="#F63" stroke-linejoin="bevel" stroke-width="1.586" d="M550.27 156.968a3.46 3.46 0 0 0-2.678.728 3.45 3.45 0 0 0-1.279 2.462"/><defs><linearGradient id="paint0_linear_55_809" x1="301.632" x2="345.629" y1="174.041" y2="174.041" gradientUnits="userSpaceOnUse"><stop stop-color="#CE2F55"/><stop offset=".284" stop-color="#F63"/><stop offset=".706" stop-color="#F6821F"/><stop offset="1" stop-color="#FBAD41"/></linearGradient><linearGradient id="paint1_linear_55_809" x1="308.677" x2="338.348" y1="190.901" y2="190.901" gradientUnits="userSpaceOnUse"><stop stop-color="#CE2F55"/><stop offset=".284" stop-color="#F63"/><stop offset=".706" stop-color="#F6821F"/><stop offset="1" stop-color="#FBAD41"/></linearGradient><linearGradient id="paint2_linear_55_809" x1="301.632" x2="345.629" y1="174.041" y2="174.041" gradientUnits="userSpaceOnUse"><stop stop-color="#CE2F55"/><stop offset=".337" stop-color="#F63"/><stop offset=".706" stop-color="#F6821F"/><stop offset="1" stop-color="#FBAD41"/></linearGradient></defs></svg>