<svg xmlns="http://www.w3.org/2000/svg" width="523" height="189" fill="none" viewBox="0 0 523 189"><path fill="#fff" d="M0 0h523v189H0z"/><path fill="#fff" d="M12 51.538h60v10.769H12z"/><path fill="#C5EBF5" fill-rule="evenodd" d="M58.694 35.106H24.946a1.707 1.707 0 0 0-1.701 1.686V58.99h37.15V36.792a1.705 1.705 0 0 0-1.7-1.686" clip-rule="evenodd"/><path fill="#fff" d="M58.824 37.76H24.73v19.868h34.094z"/><circle cx="41.806" cy="48.47" r="8.167" fill="#E1F4F9"/><path fill="#C5EBF5" fill-rule="evenodd" d="M61.862 60.702H21.75c-2.085 0-3.49-.32-3.49-.624v-.925a.187.187 0 0 1 .205-.165h46.683a.187.187 0 0 1 .204.165v.962c0 .24-1.088.587-3.489.587" clip-rule="evenodd"/><path fill="#fff" fill-rule="evenodd" d="M65.352 60.115c0 .24-1.089.587-3.49.587H21.75c-2.085 0-3.49-.32-3.49-.624z" clip-rule="evenodd"/><path fill="#0055DC" fill-rule="evenodd" d="M46.92 59.056v.21c0 .15-.294.195-.517.195h-9.157c-.234 0-.531-.045-.531-.195v-.21" clip-rule="evenodd"/><path fill="#0055DC" d="M61.862 60.81H21.75c-1.787 0-3.596-.25-3.596-.73v-.925a.293.293 0 0 1 .31-.271h46.684a.293.293 0 0 1 .31.271v.962c-.001.415-1.446.693-3.596.693m-43.398-1.714c-.056 0-.098.031-.098.06v.924c.029.147 1.077.518 3.384.518h40.112c2.443 0 3.336-.358 3.384-.488v-.956c0-.027-.043-.059-.098-.059z"/><path fill="#0055DC" stroke="#0055DC" d="M65.147 58.884h-4.683V36.792A1.8 1.8 0 0 0 58.657 35H24.909a1.8 1.8 0 0 0-1.808 1.792v22.092h-4.637a.29.29 0 0 0-.31.271v.925c0 .48 1.809.73 3.595.73h40.113c2.15 0 3.595-.279 3.595-.694v-.961a.293.293 0 0 0-.31-.27ZM23.314 36.792a1.61 1.61 0 0 1 1.595-1.58h33.748a1.59 1.59 0 0 1 1.596 1.58v22.092h-36.94zm38.548 23.806H21.749c-2.306 0-3.355-.371-3.383-.518v-.925c0-.028.042-.059.098-.059h46.683c.056 0 .099.031.099.06v.955c-.048.13-.94.487-3.384.487Z"/><path fill="#fff" d="M54.115 56.69a3.27 3.27 0 1 0 0-6.54 3.27 3.27 0 0 0 0 6.54"/><path fill="#0055DC" stroke="#0055DC" stroke-width=".25" d="M43.05 48.825h-2.095a4.585 4.585 0 0 0-4.58 4.578l.433.433h10.384l.433-.433a4.584 4.584 0 0 0-4.576-4.578Zm-5.784 4.145a3.72 3.72 0 0 1 3.689-3.28h2.094a3.72 3.72 0 0 1 3.678 3.28zm4.744-4.742a3.029 3.029 0 1 0 0-6.058 3.029 3.029 0 0 0 0 6.058Zm0-5.192a2.162 2.162 0 1 1 .001 4.325 2.162 2.162 0 0 1 0-4.325Z"/><path fill="#fff" d="M12 87.538h60v10.769H12z"/><path fill="#C5EBF5" fill-rule="evenodd" d="M58.694 71.106H24.946a1.707 1.707 0 0 0-1.701 1.686V94.99h37.15V72.792a1.705 1.705 0 0 0-1.7-1.686" clip-rule="evenodd"/><path fill="#fff" d="M58.824 73.76H24.73v19.868h34.094z"/><circle cx="43.167" cy="84.167" r="8.167" fill="#E1F4F9"/><path stroke="#0055DC" stroke-miterlimit="10" stroke-width=".6" d="M43.164 80.495v-1.317"/><path fill="#0055DC" d="M43.164 79.451a.626.626 0 1 1 0-1.251.626.626 0 0 1 0 1.251"/><path fill="#C5EBF5" stroke="#0055DC" stroke-miterlimit="10" stroke-width=".6" d="M37.576 80.448h11.238v8.456H37.576z"/><path fill="#fff" d="M38.201 88.279v-7.206h9.987v7.206z"/><path fill="#6ECCE5" stroke="#fff" stroke-width=".6" d="M44.42 83.587a.954.954 0 1 0 1.908 0 .954.954 0 0 0-1.908 0Zm-4.46 0a.954.954 0 1 0 1.908 0 .954.954 0 0 0-1.907 0Z"/><path fill="#0055DC" d="M37.03 83.316h.516v2.72h-.516zm11.754 0h.516v2.72h-.516z"/><path fill="#6ECCE5" stroke="#0055DC" stroke-miterlimit="10" stroke-width=".6" d="M41.428 86.072h3.473v1.157h-3.473z"/><path stroke="#0055DC" stroke-width=".6" d="M43.743 83.552a1.619 1.619 0 1 0 3.238 0 1.619 1.619 0 0 0-3.238 0Zm-.098.101h-1.01m-3.335-.101a1.619 1.619 0 1 0 3.237 0 1.619 1.619 0 0 0-3.237 0Z"/><path fill="#C5EBF5" fill-rule="evenodd" d="M61.862 96.702H21.75c-2.085 0-3.49-.32-3.49-.624v-.925a.187.187 0 0 1 .205-.165h46.683a.187.187 0 0 1 .204.165v.962c0 .24-1.088.587-3.489.587" clip-rule="evenodd"/><path fill="#fff" fill-rule="evenodd" d="M65.352 96.115c0 .24-1.089.587-3.49.587H21.75c-2.085 0-3.49-.32-3.49-.624z" clip-rule="evenodd"/><path fill="#0055DC" fill-rule="evenodd" d="M46.92 95.056v.21c0 .15-.294.195-.517.195h-9.157c-.234 0-.531-.045-.531-.195v-.21" clip-rule="evenodd"/><path fill="#0055DC" d="M61.862 96.81H21.75c-1.787 0-3.596-.25-3.596-.73v-.925a.293.293 0 0 1 .31-.271h46.684a.293.293 0 0 1 .31.271v.962c-.001.414-1.446.693-3.596.693m-43.398-1.714c-.056 0-.098.031-.098.06v.924c.029.147 1.077.518 3.384.518h40.112c2.443 0 3.336-.358 3.384-.488v-.956c0-.027-.043-.059-.098-.059z"/><path fill="#0055DC" stroke="#0055DC" d="M65.147 94.884h-4.683V72.793A1.8 1.8 0 0 0 58.657 71H24.909a1.8 1.8 0 0 0-1.808 1.793v22.091h-4.637a.29.29 0 0 0-.31.271v.925c0 .48 1.809.73 3.595.73h40.113c2.15 0 3.595-.279 3.595-.694v-.961a.293.293 0 0 0-.31-.27ZM23.314 72.793a1.61 1.61 0 0 1 1.595-1.58h33.748a1.59 1.59 0 0 1 1.596 1.58v22.091h-36.94zm38.548 23.805H21.749c-2.306 0-3.355-.371-3.383-.518v-.925c0-.028.042-.059.098-.059h46.683c.056 0 .099.031.099.06v.955c-.048.13-.94.487-3.384.487Z"/><path fill="#fff" d="M54.115 92.69a3.27 3.27 0 1 0 0-6.54 3.27 3.27 0 0 0 0 6.54M12 123.538h60v10.769H12z"/><path fill="#C5EBF5" fill-rule="evenodd" d="M58.694 107.106H24.946a1.706 1.706 0 0 0-1.701 1.686v22.198h37.15v-22.198a1.705 1.705 0 0 0-1.7-1.686" clip-rule="evenodd"/><path fill="#fff" d="M58.824 109.759H24.73v19.869h34.094z"/><circle cx="43.167" cy="120.167" r="8.167" fill="#E1F4F9"/><path stroke="#747474" stroke-miterlimit="10" stroke-width=".6" d="M43.186 116.495v-1.317"/><path fill="#747474" d="M43.186 115.451a.626.626 0 1 0 0-1.251.626.626 0 0 0 0 1.251"/><path fill="#E1E1E1" stroke="#747474" stroke-miterlimit="10" stroke-width=".6" d="M48.774 116.448H37.536v8.456h11.238z"/><path fill="#fff" d="M48.148 124.278v-7.205h-9.986v7.205z"/><path fill="#FC3D2E" stroke="#B0291C" stroke-width=".6" d="M41.93 119.587a.954.954 0 1 1-1.908 0 .954.954 0 0 1 1.908 0Zm4.459 0a.954.954 0 1 1-1.907-.001.954.954 0 0 1 1.907.001Z"/><path fill="#fff" d="m42.59 120.129-3.693-2.624h8.748l-3.694 2.624z"/><path fill="#747474" d="M49.32 119.316h-.516v2.72h.516zm-11.754 0h-.516v2.72h.516z"/><path stroke="#747474" stroke-miterlimit="10" stroke-width=".6" d="M40.777 121.898v1.216m4.796-1.216v1.216"/><path fill="#E1E1E1" stroke="#747474" stroke-miterlimit="10" stroke-width=".6" d="M45.572 121.898h-4.795v1.216h4.795z"/><path stroke="#B0291C" stroke-width=".6" d="m42.59 119.352-2.04-1.458m3.304 1.458 2.041-1.458"/><path fill="#C5EBF5" fill-rule="evenodd" d="M61.862 132.702H21.75c-2.085 0-3.49-.319-3.49-.624v-.925a.19.19 0 0 1 .205-.165h46.683a.19.19 0 0 1 .204.165v.962c0 .241-1.088.587-3.489.587" clip-rule="evenodd"/><path fill="#fff" fill-rule="evenodd" d="M65.352 132.115c0 .24-1.089.587-3.49.587H21.75c-2.085 0-3.49-.32-3.49-.624z" clip-rule="evenodd"/><path fill="#0055DC" fill-rule="evenodd" d="M46.92 131.056v.21c0 .15-.294.195-.517.195h-9.157c-.234 0-.531-.045-.531-.195v-.21" clip-rule="evenodd"/><path fill="#0055DC" d="M61.862 132.81H21.75c-1.787 0-3.596-.251-3.596-.73v-.925a.29.29 0 0 1 .31-.271h46.684a.293.293 0 0 1 .31.271v.961c-.001.415-1.446.694-3.596.694m-43.398-1.714c-.056 0-.098.031-.098.059v.925c.029.147 1.077.518 3.384.518h40.112c2.443 0 3.336-.358 3.384-.488v-.956c0-.027-.043-.059-.098-.059z"/><path fill="#0055DC" stroke="#0055DC" d="M65.147 130.884h-4.683v-22.092A1.8 1.8 0 0 0 58.657 107H24.909a1.804 1.804 0 0 0-1.808 1.792v22.092h-4.637a.29.29 0 0 0-.31.271v.925c0 .479 1.809.73 3.595.73h40.113c2.15 0 3.595-.279 3.595-.694v-.961a.294.294 0 0 0-.31-.271Zm-41.833-22.092a1.61 1.61 0 0 1 1.595-1.58h33.748a1.59 1.59 0 0 1 1.596 1.58v22.092h-36.94zm38.548 23.806H21.749c-2.306 0-3.355-.371-3.383-.518v-.925c0-.028.042-.059.098-.059h46.683c.056 0 .099.031.099.059v.956c-.048.13-.94.487-3.384.487Z"/><path fill="#fff" d="M54.115 128.689a3.269 3.269 0 1 0 .001-6.538 3.269 3.269 0 0 0 0 6.538"/><path fill="#000" d="M152.707 85.707a1 1 0 0 0 0-1.414l-6.364-6.364a1 1 0 1 0-1.414 1.414L150.586 85l-5.657 5.657a1 1 0 1 0 1.414 1.414zM72 86h80v-2H72zm80.514-17.142a1 1 0 0 0 .343-1.373l-4.63-7.717a1 1 0 1 0-1.715 1.03l4.116 6.859-6.86 4.116a1 1 0 1 0 1.029 1.715zM71.757 48.97l80 20 .486-1.94-80-20zm81.088 54.565a1 1 0 0 0-.31-1.38l-7.606-4.812a1 1 0 1 0-1.069 1.69l6.76 4.277-4.277 6.761a1 1 0 0 0 1.69 1.069zM72.22 121.976l80-18-.44-1.952-80 18z"/><path fill="#fff" d="M185.93 46.55H160v83.83h25.93zM280.14 38h-94.21v92.39h94.21z"/><path fill="#E9F7FB" fill-opacity=".5" d="M280.5 38.19h-94.21v91.999h94.21z"/><path fill="#fff" d="M272.47 59.91h-78.51v31.41h78.51zm-41.26 40.901h-37.25v28.519h37.25zm40.9 0h-37.25v28.519h37.25z"/><path fill="#0055DC" stroke="#0055DC" stroke-miterlimit="10" stroke-width="1.5" d="M280.5 38H160v8.56h120.5z"/><path fill="#fff" d="M163.92 43.76a1.478 1.478 0 0 0 1.451-1.769 1.479 1.479 0 1 0-1.451 1.769m4.78 0a1.48 1.48 0 1 0-.02-2.959 1.48 1.48 0 0 0 .02 2.959m4.83 0a1.48 1.48 0 0 0 1.36-.92 1.48 1.48 0 1 0-1.36.92"/><path stroke="#F0F0F0" stroke-miterlimit="10" stroke-width="1.5" d="M164.02 61.74h18.26"/><path fill="#F38020" d="M176.006 56.911c.098-.34.061-.653-.103-.885-.15-.213-.404-.336-.708-.35l-5.773-.076a.11.11 0 0 1-.089-.047.13.13 0 0 1-.014-.105.16.16 0 0 1 .136-.104l5.824-.075c.689-.034 1.44-.597 1.702-1.288l.333-.876a.2.2 0 0 0 .01-.113c-.376-1.714-1.89-2.992-3.7-2.992a3.795 3.795 0 0 0-3.592 2.599 1.7 1.7 0 0 0-1.196-.336 1.716 1.716 0 0 0-1.524 1.538c-.019.208-.005.412.042.601A2.435 2.435 0 0 0 165 56.85q.001.178.023.356c.01.056.057.099.113.099h10.654a.145.145 0 0 0 .136-.104z"/><path fill="#FAAE40" d="M177.844 53.167c-.051 0-.108 0-.159.004-.038 0-.071.029-.085.067l-.225.79c-.098.341-.061.653.103.885.15.213.404.336.708.35l1.229.076c.038 0 .07.02.089.048a.13.13 0 0 1 .014.104.16.16 0 0 1-.136.104l-1.28.076c-.694.033-1.44.596-1.702 1.287l-.094.242c-.019.047.014.094.066.094h4.398a.12.12 0 0 0 .113-.085 3.3 3.3 0 0 0 .117-.861c0-1.752-1.416-3.181-3.156-3.181"/><path stroke="#F0F0F0" stroke-miterlimit="10" stroke-width="1.5" d="M164.02 72h18.26m-18.26 5.08h18.26m-18.26-10.23h18.26m15.33 38.339h24.09m-24.09 10.231h24.09m-24.09 5.11h16.8m-16.8 5.11h24.09m-24.09-15.329h16.8m24.1-5.122h24.1m-24.1 10.231h24.1m-24.1 5.11h16.8m-16.8 5.11h24.1m-24.1-15.329h16.8M197.25 73.38h72.3m-62-.11v-9.44m10.3 9.44v-9.44m10.3 9.44v-9.44m10.29 9.44v-9.44m20.6 9.44v-9.44m-10.34 9.44v-9.44"/><path stroke="#148C40" stroke-miterlimit="10" stroke-width="1.5" d="m197.25 70.87 10.3-3.82 10.3 2.77 10.3-3.84 10.29 4.89 10.3-5.48 10.3 3.17 10.51-2.58"/><path stroke="#F0F0F0" stroke-miterlimit="10" stroke-width="1.5" d="M197.25 73.56V63.7m72.3 9.57v-9.44m-72.3 23.41h72.3m-62-.04v-9.44m10.3 9.44v-9.44m10.3 9.44v-9.44m10.29 9.44v-9.44m20.6 9.44v-9.44M248.7 87.2v-9.44"/><path stroke="#FC3D2E" stroke-miterlimit="10" stroke-width="1.5" d="m197.25 84.74 10.27-.23 10.28-2.11 10.27 2.11 10.28-1.32 10.31-3.14 5.12 1.09 5.11 1.1 10.5-3.06"/><path stroke="#F0F0F0" stroke-miterlimit="10" stroke-width="1.5" d="M197.25 87.43v-9.49m72.18 9.26v-9.44"/><path fill="#000" d="M194.495 98h-.421l.768-2.182h.488l.769 2.182h-.422l-.583-1.734h-.017zm.014-.856h1.151v.318h-1.151zm2.246-.103V98h-.386v-1.636h.369v.278h.019a.46.46 0 0 1 .18-.219.55.55 0 0 1 .308-.08.6.6 0 0 1 .295.072.5.5 0 0 1 .196.21q.07.136.069.333V98h-.386v-.982a.36.36 0 0 0-.085-.257.3.3 0 0 0-.233-.093.36.36 0 0 0-.18.045.3.3 0 0 0-.123.127.4.4 0 0 0-.043.201m1.913.992a.7.7 0 0 1-.28-.055.45.45 0 0 1-.196-.167.5.5 0 0 1-.072-.27q0-.139.052-.23a.4.4 0 0 1 .139-.144.7.7 0 0 1 .199-.082q.112-.03.232-.042l.233-.026a.3.3 0 0 0 .13-.039q.041-.026.041-.082v-.006q0-.12-.071-.186-.072-.067-.206-.067a.37.37 0 0 0-.224.062.3.3 0 0 0-.111.146l-.36-.051a.57.57 0 0 1 .38-.4 1.03 1.03 0 0 1 .549-.023.7.7 0 0 1 .214.09q.096.064.155.172.06.109.06.272V98h-.371v-.225h-.012a.48.48 0 0 1-.258.223.6.6 0 0 1-.223.035m.1-.283a.4.4 0 0 0 .202-.046.35.35 0 0 0 .131-.124.3.3 0 0 0 .046-.167v-.193a.2.2 0 0 1-.061.028 1 1 0 0 1-.096.022l-.106.017-.09.013a.7.7 0 0 0-.155.038.26.26 0 0 0-.107.075.18.18 0 0 0-.04.121q0 .108.078.161a.34.34 0 0 0 .198.055m1.537-1.932V98h-.385v-2.182zm.637 2.796a.8.8 0 0 1-.252-.04l.09-.301a.5.5 0 0 0 .15.023.2.2 0 0 0 .116-.041.3.3 0 0 0 .086-.132l.033-.089-.593-1.67h.409l.377 1.235h.017l.379-1.235h.41l-.655 1.834a.7.7 0 0 1-.122.223.5.5 0 0 1-.185.143.6.6 0 0 1-.26.05m2.782-1.818-.352.038a.28.28 0 0 0-.15-.175.4.4 0 0 0-.151-.029.37.37 0 0 0-.203.052q-.08.052-.079.135a.14.14 0 0 0 .052.117q.054.045.179.073l.279.06q.233.05.345.159a.38.38 0 0 1 .115.284.45.45 0 0 1-.09.273.6.6 0 0 1-.247.183.9.9 0 0 1-.362.066.84.84 0 0 1-.483-.126.5.5 0 0 1-.219-.352l.376-.037q.025.111.109.168a.4.4 0 0 0 .216.056.4.4 0 0 0 .221-.056q.084-.057.084-.14a.14.14 0 0 0-.055-.116.4.4 0 0 0-.166-.07l-.279-.059a.66.66 0 0 1-.348-.165.4.4 0 0 1-.112-.296.42.42 0 0 1 .082-.262.54.54 0 0 1 .233-.173.9.9 0 0 1 .347-.062q.287 0 .452.123.167.122.206.331m.353 1.204v-1.636h.386V98zm.194-1.869a.23.23 0 0 1-.158-.06.2.2 0 0 1-.066-.148q0-.088.066-.148a.22.22 0 0 1 .158-.062q.093 0 .158.062.066.06.066.148a.2.2 0 0 1-.066.148.22.22 0 0 1-.158.06m1.882.665-.352.038a.28.28 0 0 0-.15-.175.4.4 0 0 0-.151-.029.37.37 0 0 0-.203.052q-.08.052-.08.135 0 .072.052.117.055.045.179.073l.28.06a.7.7 0 0 1 .345.159.38.38 0 0 1 .115.284.45.45 0 0 1-.091.273.6.6 0 0 1-.246.183.9.9 0 0 1-.362.066q-.3 0-.484-.126a.5.5 0 0 1-.218-.352l.376-.037q.025.111.109.168a.4.4 0 0 0 .216.056.4.4 0 0 0 .22-.056q.085-.057.085-.14a.15.15 0 0 0-.055-.116.4.4 0 0 0-.166-.07l-.279-.059a.66.66 0 0 1-.348-.165.4.4 0 0 1-.112-.296.4.4 0 0 1 .082-.262.54.54 0 0 1 .233-.173.9.9 0 0 1 .346-.062q.288 0 .453.123a.52.52 0 0 1 .206.331m2.39 0-.351.038a.28.28 0 0 0-.151-.175.4.4 0 0 0-.151-.029.37.37 0 0 0-.202.052q-.081.052-.08.135a.14.14 0 0 0 .052.117q.054.045.179.073l.279.06q.233.05.345.159a.38.38 0 0 1 .115.284.44.44 0 0 1-.09.273.6.6 0 0 1-.246.183.9.9 0 0 1-.362.066q-.301 0-.484-.126a.5.5 0 0 1-.219-.352l.377-.037q.025.111.108.168a.4.4 0 0 0 .216.056.4.4 0 0 0 .221-.056q.084-.057.084-.14a.15.15 0 0 0-.054-.116.4.4 0 0 0-.166-.07l-.279-.059a.67.67 0 0 1-.349-.165.4.4 0 0 1-.112-.296q0-.151.082-.262a.54.54 0 0 1 .234-.173.9.9 0 0 1 .346-.062q.288 0 .453.123.166.122.205.331m.353 1.204v-1.636h.386V98zm.194-1.869a.22.22 0 0 1-.157-.06.2.2 0 0 1-.066-.148q0-.088.066-.148a.22.22 0 0 1 .157-.062.22.22 0 0 1 .158.062q.066.06.066.148a.2.2 0 0 1-.066.148.22.22 0 0 1-.158.06m1.3 2.517q-.207 0-.357-.057a.6.6 0 0 1-.239-.149.5.5 0 0 1-.126-.208l.347-.084a.4.4 0 0 0 .068.095q.045.048.121.079a.5.5 0 0 0 .193.032.44.44 0 0 0 .271-.08q.108-.08.108-.26v-.31h-.019a.5.5 0 0 1-.088.123.4.4 0 0 1-.15.105.6.6 0 0 1-.233.043.63.63 0 0 1-.585-.355 1 1 0 0 1-.089-.445q0-.27.089-.455a.66.66 0 0 1 .244-.283.63.63 0 0 1 .342-.097.5.5 0 0 1 .236.05q.094.047.15.115a.6.6 0 0 1 .084.127h.021v-.27h.38v1.663q0 .21-.1.347a.6.6 0 0 1-.274.206 1.1 1.1 0 0 1-.394.068m.003-.974q.123 0 .209-.06a.37.37 0 0 0 .131-.171.7.7 0 0 0 .045-.269.8.8 0 0 0-.045-.27.4.4 0 0 0-.13-.18.33.33 0 0 0-.21-.065.34.34 0 0 0-.215.067.4.4 0 0 0-.13.184.8.8 0 0 0-.043.264q0 .15.043.263.045.112.131.175.088.062.214.062m1.546-.633V98h-.385v-1.636h.368v.278h.019a.47.47 0 0 1 .18-.219.56.56 0 0 1 .308-.08q.17 0 .295.072.127.072.196.21.07.136.07.333V98h-.386v-.982a.36.36 0 0 0-.085-.257.3.3 0 0 0-.233-.093.36.36 0 0 0-.181.045.3.3 0 0 0-.122.127.4.4 0 0 0-.044.201m1.914.992a.7.7 0 0 1-.281-.055.46.46 0 0 1-.196-.167.5.5 0 0 1-.071-.27q0-.139.051-.23a.4.4 0 0 1 .14-.144.7.7 0 0 1 .199-.082q.112-.03.231-.042l.233-.026a.3.3 0 0 0 .13-.039q.042-.026.042-.082v-.006a.24.24 0 0 0-.071-.186q-.072-.067-.206-.067a.37.37 0 0 0-.225.062.3.3 0 0 0-.111.146l-.36-.051a.59.59 0 0 1 .381-.4 1 1 0 0 1 .548-.023q.118.026.214.09.097.064.156.172.06.109.06.272V98h-.371v-.225h-.013a.46.46 0 0 1-.258.223.6.6 0 0 1-.222.035m.1-.283a.4.4 0 0 0 .201-.046.33.33 0 0 0 .178-.291v-.193a.2.2 0 0 1-.062.028 1 1 0 0 1-.096.022 3 3 0 0 1-.196.03.7.7 0 0 0-.154.038.26.26 0 0 0-.108.075.18.18 0 0 0-.039.121q0 .108.078.161a.34.34 0 0 0 .198.055m1.537-1.932V98h-.386v-2.182zm1.69.978-.352.038a.28.28 0 0 0-.15-.175.4.4 0 0 0-.151-.029.37.37 0 0 0-.203.052q-.08.052-.079.135a.14.14 0 0 0 .052.117q.054.045.179.073l.279.06q.233.05.345.159a.38.38 0 0 1 .115.284.45.45 0 0 1-.09.273.6.6 0 0 1-.247.183.9.9 0 0 1-.362.066.84.84 0 0 1-.483-.126.5.5 0 0 1-.219-.352l.376-.037q.026.111.109.168a.4.4 0 0 0 .216.056.4.4 0 0 0 .221-.056q.084-.057.084-.14a.15.15 0 0 0-.054-.116.4.4 0 0 0-.167-.07l-.279-.059a.66.66 0 0 1-.348-.165.4.4 0 0 1-.112-.296.42.42 0 0 1 .082-.262.54.54 0 0 1 .233-.173.9.9 0 0 1 .347-.062q.287 0 .452.123.167.122.206.331M200.215 57v-2.182h.395v.924h1.011v-.924h.397V57h-.397v-.927h-1.011V57zm2.137-1.85v-.332h1.741v.332h-.675V57h-.392v-1.85zm1.98 0v-.332h1.741v.332h-.674V57h-.392v-1.85zm2.077 1.85v-2.182h.818a.9.9 0 0 1 .422.094q.171.093.258.258a.8.8 0 0 1 .089.37.8.8 0 0 1-.089.373.6.6 0 0 1-.261.257.9.9 0 0 1-.425.093h-.542v-.325h.489a.5.5 0 0 0 .241-.051.32.32 0 0 0 .138-.14.44.44 0 0 0 .046-.206.43.43 0 0 0-.046-.205.3.3 0 0 0-.139-.137.5.5 0 0 0-.242-.05h-.362V57zm2.657 0v-1.636h.374v.272h.017a.41.41 0 0 1 .404-.296 1 1 0 0 1 .139.01v.356a.7.7 0 0 0-.179-.022.4.4 0 0 0-.19.045.34.34 0 0 0-.179.309V57zm1.847.032a.84.84 0 0 1-.425-.102.7.7 0 0 1-.274-.292 1 1 0 0 1-.096-.447q0-.252.096-.443a.73.73 0 0 1 .679-.406q.15 0 .285.05a.65.65 0 0 1 .239.148.7.7 0 0 1 .164.258q.06.156.059.371v.118h-1.341v-.26h.972a.4.4 0 0 0-.048-.197.35.35 0 0 0-.131-.137.37.37 0 0 0-.194-.05.4.4 0 0 0-.208.057.42.42 0 0 0-.189.35v.228a.5.5 0 0 0 .052.245q.052.1.146.155a.43.43 0 0 0 .219.053.5.5 0 0 0 .152-.023.3.3 0 0 0 .194-.187l.36.04a.55.55 0 0 1-.13.25.6.6 0 0 1-.242.163.9.9 0 0 1-.339.058m2.146.582v-.872h-.016a.7.7 0 0 1-.087.127.5.5 0 0 1-.149.113.5.5 0 0 1-.233.047.6.6 0 0 1-.345-.1.67.67 0 0 1-.241-.287 1.1 1.1 0 0 1-.088-.458q0-.273.089-.46a.66.66 0 0 1 .244-.285.63.63 0 0 1 .342-.097q.144 0 .237.05.091.047.147.115a.7.7 0 0 1 .084.127h.023v-.27h.379v2.25zm-.377-.902a.33.33 0 0 0 .208-.066.4.4 0 0 0 .131-.186.8.8 0 0 0 .045-.278.8.8 0 0 0-.045-.276.4.4 0 0 0-.13-.182.33.33 0 0 0-.209-.065.34.34 0 0 0-.216.067.4.4 0 0 0-.13.185.8.8 0 0 0-.043.27q0 .154.043.275.045.12.131.188a.34.34 0 0 0 .215.068m2.203-.4v-.948h.385V57h-.374v-.29h-.017a.5.5 0 0 1-.182.224.53.53 0 0 1-.31.087.56.56 0 0 1-.284-.071.5.5 0 0 1-.192-.21.74.74 0 0 1-.069-.334v-1.042h.385v.982q0 .156.086.247a.3.3 0 0 0 .223.092.35.35 0 0 0 .296-.166.4.4 0 0 0 .053-.207m1.506.72a.84.84 0 0 1-.425-.102.7.7 0 0 1-.274-.292 1 1 0 0 1-.095-.447q0-.252.095-.443a.73.73 0 0 1 .679-.406q.151 0 .286.05.135.047.238.148.105.102.164.258t.06.371v.118h-1.341v-.26h.971a.4.4 0 0 0-.048-.197.35.35 0 0 0-.131-.137.37.37 0 0 0-.194-.05.37.37 0 0 0-.207.057.4.4 0 0 0-.14.15.4.4 0 0 0-.05.2v.228a.5.5 0 0 0 .052.245q.053.1.146.155a.44.44 0 0 0 .22.053.5.5 0 0 0 .152-.023.3.3 0 0 0 .118-.071.3.3 0 0 0 .076-.116l.36.04a.56.56 0 0 1-.13.25.6.6 0 0 1-.243.163.9.9 0 0 1-.339.058m2.348-1.236-.352.038a.28.28 0 0 0-.15-.175.4.4 0 0 0-.152-.029.37.37 0 0 0-.202.052q-.081.052-.08.136a.14.14 0 0 0 .052.116q.055.045.179.073l.279.06a.7.7 0 0 1 .346.158.38.38 0 0 1 .115.285.45.45 0 0 1-.091.273.6.6 0 0 1-.246.183.9.9 0 0 1-.362.066q-.3 0-.484-.126a.5.5 0 0 1-.218-.352l.376-.037q.025.111.109.168a.4.4 0 0 0 .216.056.4.4 0 0 0 .22-.056q.084-.057.084-.14a.15.15 0 0 0-.054-.116.4.4 0 0 0-.166-.07l-.279-.059a.67.67 0 0 1-.349-.165.4.4 0 0 1-.111-.296.4.4 0 0 1 .082-.262.53.53 0 0 1 .233-.173.9.9 0 0 1 .346-.062q.288 0 .453.123a.52.52 0 0 1 .206.331m1.17-.432v.298h-.941v-.298zm-.709-.392h.386v1.536q0 .077.023.12a.13.13 0 0 0 .064.054.3.3 0 0 0 .088.015.4.4 0 0 0 .113-.015l.065.302a.7.7 0 0 1-.227.038.6.6 0 0 1-.261-.043.4.4 0 0 1-.185-.152.46.46 0 0 1-.066-.255zm2.301.824-.351.038a.28.28 0 0 0-.151-.175.4.4 0 0 0-.151-.029.37.37 0 0 0-.202.052q-.081.052-.08.136a.14.14 0 0 0 .052.116q.054.045.179.073l.279.06q.232.05.345.158a.38.38 0 0 1 .115.285q0 .154-.09.273a.6.6 0 0 1-.246.183.9.9 0 0 1-.362.066q-.301 0-.484-.126a.5.5 0 0 1-.219-.352l.377-.037q.025.111.108.168a.4.4 0 0 0 .216.056.4.4 0 0 0 .221-.056q.084-.057.084-.14a.15.15 0 0 0-.054-.116.4.4 0 0 0-.166-.07l-.279-.059a.67.67 0 0 1-.349-.165.4.4 0 0 1-.112-.296q0-.151.082-.262a.54.54 0 0 1 .234-.173.9.9 0 0 1 .346-.062q.288 0 .453.123.166.122.205.331"/><g clip-path="url(#clip0_55_791)"><path fill="#0055DC" fill-rule="evenodd" d="M194.832 55.084a1.7 1.7 0 0 0-.007.802h.513a3.5 3.5 0 0 1 .004-.802zm.111-.313h.452c.057-.252.142-.48.25-.673q.04-.07.083-.134a1.73 1.73 0 0 0-.785.807m1.573-1.302h-.016a2.03 2.03 0 1 0 0 4.062h.066a2.031 2.031 0 0 0-.04-4.062zm-.173.35c-.15.064-.299.206-.425.432a2 2 0 0 0-.201.52h.626zm0 1.265h-.686a3 3 0 0 0-.004.802h.69zm.312.802v-.802h.739a3 3 0 0 1 .004.802zm-.312.313h-.634q.077.317.209.55c.126.226.275.368.425.431zm-.615.837a2 2 0 0 1-.083-.134c-.112-.2-.2-.44-.256-.703h-.46c.162.363.446.659.799.837m1.623-.043c.317-.18.57-.459.72-.794h-.409a2.5 2.5 0 0 1-.256.703zm-.009-.794h-.687v1c.168-.05.337-.198.478-.45q.132-.233.209-.55m.371-.312h.462a1.7 1.7 0 0 0-.007-.803h-.459q.025.202.025.416 0 .198-.021.386m-.057-1.116a2.5 2.5 0 0 0-.25-.673l-.055-.091c.307.175.555.442.706.764zm-.322 0h-.679v-.97c.168.05.337.198.478.45q.126.222.201.52" clip-rule="evenodd"/></g><path fill="#000" d="M236.401 96.418a.3.3 0 0 0-.126-.217.5.5 0 0 0-.285-.078.5.5 0 0 0-.212.037.3.3 0 0 0-.136.101.25.25 0 0 0-.048.146q0 .069.031.119.032.05.087.085a.6.6 0 0 0 .12.057q.066.025.133.04l.205.05q.123.03.237.079a.8.8 0 0 1 .206.123q.091.075.145.18.053.106.053.247 0 .192-.098.338a.65.65 0 0 1-.283.227 1.1 1.1 0 0 1-.447.081q-.254 0-.442-.079a.67.67 0 0 1-.292-.23.7.7 0 0 1-.113-.368h.389q.009.114.071.19.061.075.16.112a.6.6 0 0 0 .224.037.6.6 0 0 0 .226-.038.4.4 0 0 0 .153-.109.26.26 0 0 0 .057-.164.2.2 0 0 0-.05-.14.4.4 0 0 0-.138-.094 1.3 1.3 0 0 0-.204-.068l-.248-.064a1 1 0 0 1-.427-.21.5.5 0 0 1-.155-.376q0-.193.104-.338a.7.7 0 0 1 .287-.225 1 1 0 0 1 .41-.08q.233 0 .407.08a.67.67 0 0 1 .276.223.56.56 0 0 1 .103.326zm1.216 1.615a.7.7 0 0 1-.28-.055.46.46 0 0 1-.196-.167.5.5 0 0 1-.071-.27q0-.139.051-.23a.4.4 0 0 1 .139-.144.7.7 0 0 1 .2-.082q.111-.03.231-.042l.233-.026a.3.3 0 0 0 .13-.039q.042-.026.042-.082v-.006a.24.24 0 0 0-.072-.186q-.071-.067-.205-.067-.142 0-.225.062a.3.3 0 0 0-.111.146l-.36-.051a.56.56 0 0 1 .141-.25.6.6 0 0 1 .239-.15 1.03 1.03 0 0 1 .549-.023.7.7 0 0 1 .214.09q.097.064.156.172a.6.6 0 0 1 .059.272V98h-.37v-.225h-.013a.48.48 0 0 1-.258.223.6.6 0 0 1-.223.035m.1-.283a.4.4 0 0 0 .202-.046.34.34 0 0 0 .131-.124.3.3 0 0 0 .047-.167v-.193a.2.2 0 0 1-.062.028 1 1 0 0 1-.096.022 4 4 0 0 1-.196.03.7.7 0 0 0-.154.038.25.25 0 0 0-.108.075.2.2 0 0 0-.04.121q0 .108.078.161a.34.34 0 0 0 .198.055m1.152.25v-1.636h.369v.278h.019a.43.43 0 0 1 .169-.22.5.5 0 0 1 .283-.08q.166 0 .28.081.114.08.162.219h.017a.45.45 0 0 1 .183-.218.56.56 0 0 1 .308-.082q.225 0 .368.143.144.142.143.417V98h-.387v-1.039q0-.151-.08-.222a.3.3 0 0 0-.199-.072.28.28 0 0 0-.218.088.32.32 0 0 0-.078.224V98h-.378v-1.055a.27.27 0 0 0-.077-.202.27.27 0 0 0-.198-.076.3.3 0 0 0-.26.16.4.4 0 0 0-.04.178V98zm2.692.614v-2.25h.38v.27h.022a.7.7 0 0 1 .084-.127.44.44 0 0 1 .147-.116.5.5 0 0 1 .237-.049.625.625 0 0 1 .585.382q.09.187.09.46 0 .27-.088.458a.62.62 0 0 1-.586.387.48.48 0 0 1-.383-.16 1 1 0 0 1-.086-.127h-.016v.872zm.379-1.432a.8.8 0 0 0 .044.278q.047.12.131.186a.34.34 0 0 0 .209.066.33.33 0 0 0 .214-.068.4.4 0 0 0 .13-.188.8.8 0 0 0 .045-.274.8.8 0 0 0-.044-.27.4.4 0 0 0-.13-.186.34.34 0 0 0-.215-.067.34.34 0 0 0-.21.065.4.4 0 0 0-.131.182.8.8 0 0 0-.043.276m1.882-1.364V98h-.386v-2.182zm1.121 2.214a.84.84 0 0 1-.425-.102.7.7 0 0 1-.274-.292 1 1 0 0 1-.096-.447q0-.252.096-.443a.73.73 0 0 1 .679-.406q.151 0 .285.05.136.047.239.148.104.102.164.258t.06.371v.118h-1.342v-.26h.972a.4.4 0 0 0-.048-.197.35.35 0 0 0-.131-.137.37.37 0 0 0-.194-.05.4.4 0 0 0-.208.057.4.4 0 0 0-.139.15.4.4 0 0 0-.05.2v.228a.5.5 0 0 0 .052.245q.052.1.146.155a.44.44 0 0 0 .219.053.5.5 0 0 0 .153-.023.3.3 0 0 0 .118-.071.3.3 0 0 0 .076-.116l.36.04a.56.56 0 0 1-.13.25.6.6 0 0 1-.243.163.9.9 0 0 1-.339.058m1.661-.003a.62.62 0 0 1-.586-.387 1.1 1.1 0 0 1-.088-.458q0-.273.089-.46a.63.63 0 0 1 .586-.381q.144 0 .237.048t.147.116a.7.7 0 0 1 .084.127h.016v-.816h.387V98h-.38v-.258h-.023a.7.7 0 0 1-.086.127.5.5 0 0 1-.149.113.5.5 0 0 1-.234.047m.108-.317a.34.34 0 0 0 .209-.066.4.4 0 0 0 .131-.186.8.8 0 0 0 .044-.278.8.8 0 0 0-.044-.276.4.4 0 0 0-.13-.182.34.34 0 0 0-.21-.065.34.34 0 0 0-.215.067.4.4 0 0 0-.13.185.8.8 0 0 0-.044.27q0 .154.044.275.044.12.131.188a.34.34 0 0 0 .214.068m2.304-1.894V98h-.385v-2.182zm1.111 2.214a.8.8 0 0 1-.416-.105.7.7 0 0 1-.272-.296 1 1 0 0 1-.096-.443q0-.253.096-.444a.7.7 0 0 1 .272-.296.8.8 0 0 1 .416-.106.8.8 0 0 1 .415.106.7.7 0 0 1 .272.296.96.96 0 0 1 .097.444.96.96 0 0 1-.097.443.7.7 0 0 1-.272.296.8.8 0 0 1-.415.105m.002-.309a.33.33 0 0 0 .217-.071.43.43 0 0 0 .13-.194.8.8 0 0 0 .044-.27.8.8 0 0 0-.044-.273.43.43 0 0 0-.13-.195.33.33 0 0 0-.217-.072.34.34 0 0 0-.222.073.44.44 0 0 0-.131.194.8.8 0 0 0-.042.272q0 .15.042.27a.44.44 0 0 0 .131.195.34.34 0 0 0 .222.071m1.821.925q-.209 0-.357-.057a.64.64 0 0 1-.24-.149.5.5 0 0 1-.125-.208l.347-.084a.36.36 0 0 0 .188.174.5.5 0 0 0 .193.032q.165 0 .272-.08t.107-.26v-.31h-.019a.6.6 0 0 1-.087.123.5.5 0 0 1-.15.105.6.6 0 0 1-.234.043.7.7 0 0 1-.342-.089.63.63 0 0 1-.242-.266 1 1 0 0 1-.09-.445q0-.27.09-.455a.66.66 0 0 1 .244-.283.63.63 0 0 1 .342-.097q.143 0 .236.05a.45.45 0 0 1 .149.115.6.6 0 0 1 .084.127h.022v-.27h.38v1.663q0 .21-.1.347a.6.6 0 0 1-.274.206 1.1 1.1 0 0 1-.394.068m.003-.974q.123 0 .209-.06a.37.37 0 0 0 .131-.171.7.7 0 0 0 .045-.269.8.8 0 0 0-.045-.27.4.4 0 0 0-.13-.18.34.34 0 0 0-.21-.065.34.34 0 0 0-.215.067.4.4 0 0 0-.13.184.8.8 0 0 0-.044.264q0 .15.044.263.044.112.131.175t.214.062m2.454-.878-.352.038a.28.28 0 0 0-.15-.175.4.4 0 0 0-.152-.029.37.37 0 0 0-.202.052q-.081.052-.08.135a.14.14 0 0 0 .052.117q.055.045.179.073l.279.06a.7.7 0 0 1 .346.159.38.38 0 0 1 .115.284.45.45 0 0 1-.091.273.6.6 0 0 1-.246.183.9.9 0 0 1-.362.066q-.3 0-.484-.126a.5.5 0 0 1-.218-.352l.376-.037q.025.111.108.168a.4.4 0 0 0 .217.056.4.4 0 0 0 .22-.056q.084-.057.084-.14a.15.15 0 0 0-.054-.116.4.4 0 0 0-.166-.07l-.279-.059a.67.67 0 0 1-.349-.165.4.4 0 0 1-.111-.296.4.4 0 0 1 .082-.262.53.53 0 0 1 .233-.173.9.9 0 0 1 .346-.062q.288 0 .453.123a.52.52 0 0 1 .206.331"/><path stroke="#0055DC" stroke-miterlimit="10" stroke-width="1.5" d="M280.5 38H160v92.39h120.5z"/><path fill="#000" d="M369.707 85.707a1 1 0 0 0 0-1.414l-6.364-6.364a1 1 0 1 0-1.414 1.414L367.586 85l-5.657 5.657a1 1 0 1 0 1.414 1.414zM289 86h80v-2h-80z"/><path fill="#fff" d="M402.93 46.55H377v83.83h25.93zM497.14 38h-94.21v92.39h94.21z"/><path fill="#E9F7FB" fill-opacity=".5" d="M497.5 38.19h-94.21v91.999h94.21z"/><path fill="#0055DC" stroke="#0055DC" stroke-miterlimit="10" stroke-width="1.5" d="M497.5 38H377v8.56h120.5z"/><path fill="#fff" d="M380.92 43.76a1.478 1.478 0 0 0 1.451-1.769 1.479 1.479 0 1 0-1.451 1.769m4.78 0a1.48 1.48 0 1 0-.02-2.959 1.48 1.48 0 0 0 .02 2.959m4.83 0a1.48 1.48 0 0 0 1.36-.92 1.48 1.48 0 1 0-1.36.92"/><g clip-path="url(#clip1_55_791)"><path fill="#0055DC" d="M414.938 53.469h-2.876l-.156.156v1.319c0 1.683 1.364 2.479 1.52 2.565h.152c.156-.086 1.519-.882 1.519-2.565v-1.319zm-2.72 1.475V53.78h1.126v3.303c-.391-.286-1.126-.975-1.126-2.14m2.564 0c0 1.165-.731 1.854-1.125 2.14V53.78h1.125z"/></g><path stroke="#F0F0F0" stroke-miterlimit="10" stroke-width="1.5" d="M381.02 61.74h18.26"/><path fill="#F38020" d="M393.006 56.911c.098-.34.061-.653-.103-.885-.15-.213-.404-.336-.708-.35l-5.773-.076a.11.11 0 0 1-.089-.047.13.13 0 0 1-.014-.105.16.16 0 0 1 .136-.104l5.824-.075c.689-.034 1.44-.597 1.702-1.288l.333-.876a.2.2 0 0 0 .01-.113c-.376-1.714-1.89-2.992-3.7-2.992a3.795 3.795 0 0 0-3.592 2.599 1.7 1.7 0 0 0-1.196-.336 1.716 1.716 0 0 0-1.524 1.538c-.019.208-.005.412.042.601A2.435 2.435 0 0 0 382 56.85q.001.178.023.356c.01.056.057.099.113.099h10.654a.145.145 0 0 0 .136-.104z"/><path fill="#FAAE40" d="M394.844 53.167c-.051 0-.108 0-.159.004-.038 0-.071.029-.085.067l-.225.79c-.098.341-.061.653.103.885.15.213.404.336.708.35l1.229.076c.038 0 .07.02.089.048a.13.13 0 0 1 .014.104.16.16 0 0 1-.136.104l-1.28.076c-.694.033-1.44.596-1.702 1.287l-.094.242c-.019.047.014.094.066.094h4.398a.12.12 0 0 0 .113-.085 3.3 3.3 0 0 0 .117-.861c0-1.752-1.416-3.181-3.156-3.181"/><path stroke="#F0F0F0" stroke-miterlimit="10" stroke-width="1.5" d="M381.02 72h18.26m-18.26 5.08h18.26m-18.26-10.23h18.26"/><path fill="#000" d="m417.674 57-.615-2.182h.425l.393 1.604h.02l.42-1.604h.386l.421 1.605h.019l.394-1.605h.425L419.346 57h-.39l-.437-1.53h-.017l-.438 1.53zm2.637 0h-.422l.768-2.182h.488l.769 2.182h-.422l-.582-1.734h-.018zm.014-.855h1.15v.317h-1.15zm1.877.855v-2.182h1.397v.332h-1.002v.592h.906v.331h-.906V57zm2.484 0v-1.636h.374v.272h.017a.41.41 0 0 1 .404-.296 1 1 0 0 1 .139.01v.356a.7.7 0 0 0-.179-.022.4.4 0 0 0-.19.045.34.34 0 0 0-.179.309V57zm2.233-.688v-.948h.386V57h-.374v-.29h-.017a.5.5 0 0 1-.183.224.53.53 0 0 1-.31.087.56.56 0 0 1-.284-.071.5.5 0 0 1-.192-.21.74.74 0 0 1-.069-.334v-1.042h.386v.982q0 .156.085.247a.3.3 0 0 0 .223.092.36.36 0 0 0 .166-.042.34.34 0 0 0 .131-.123.4.4 0 0 0 .052-.208m1.168-1.494V57h-.386v-2.182zm1.121 2.214a.84.84 0 0 1-.425-.102.7.7 0 0 1-.274-.292 1 1 0 0 1-.096-.447q0-.252.096-.443a.73.73 0 0 1 .27-.298.76.76 0 0 1 .409-.108q.15 0 .285.05a.65.65 0 0 1 .239.148.7.7 0 0 1 .164.258q.059.156.059.371v.118h-1.341v-.26h.972a.4.4 0 0 0-.048-.197.35.35 0 0 0-.131-.137.37.37 0 0 0-.194-.05.39.39 0 0 0-.347.207.4.4 0 0 0-.051.2v.228a.5.5 0 0 0 .053.245q.051.1.146.155a.43.43 0 0 0 .219.053.5.5 0 0 0 .152-.023.3.3 0 0 0 .194-.187l.36.04a.55.55 0 0 1-.13.25.6.6 0 0 1-.242.163.9.9 0 0 1-.339.058m2.347-1.236-.352.038a.28.28 0 0 0-.15-.175.4.4 0 0 0-.151-.029.37.37 0 0 0-.203.052q-.08.052-.079.136a.14.14 0 0 0 .052.116q.054.045.179.073l.279.06q.232.05.345.158a.38.38 0 0 1 .115.285.45.45 0 0 1-.09.273.6.6 0 0 1-.247.183.9.9 0 0 1-.362.066.84.84 0 0 1-.483-.126.5.5 0 0 1-.219-.352l.376-.037q.026.111.109.168a.4.4 0 0 0 .216.056.4.4 0 0 0 .221-.056q.084-.057.084-.14a.15.15 0 0 0-.054-.116.4.4 0 0 0-.167-.07l-.279-.059a.66.66 0 0 1-.348-.165.4.4 0 0 1-.112-.296.42.42 0 0 1 .082-.262.54.54 0 0 1 .233-.173.9.9 0 0 1 .347-.062q.287 0 .452.123.167.122.206.331"/><path fill="#fff" d="M489 60h-78v15h78z"/><path stroke="#F0F0F0" stroke-miterlimit="10" stroke-width="1.5" d="M420 65h24.09"/><path stroke="#FC3D2E" stroke-miterlimit="10" stroke-width="1.5" d="M427 65h6"/><path stroke="#F0F0F0" stroke-miterlimit="10" stroke-width="1.5" d="M446 65h24.09M427 70h24.09"/><path fill="#000" d="M415.61 63.818V66h-.395v-2.182zm1.24.546v.298h-.967v-.298zM416.125 66v-1.79q0-.166.068-.276a.43.43 0 0 1 .185-.164.6.6 0 0 1 .258-.054.9.9 0 0 1 .293.045l-.077.298-.061-.015a.4.4 0 0 0-.084-.008q-.107 0-.152.052a.22.22 0 0 0-.044.147V66zm-.63 5h-.421l.768-2.182h.488l.769 2.182h-.422l-.583-1.734h-.017zm.014-.856h1.151v.318h-1.151zm2.524.888a.72.72 0 0 1-.69-.405 1 1 0 0 1-.094-.439q0-.25.096-.44a.72.72 0 0 1 .686-.406.8.8 0 0 1 .353.074.6.6 0 0 1 .35.514h-.369a.35.35 0 0 0-.106-.197.3.3 0 0 0-.223-.08.35.35 0 0 0-.208.064.4.4 0 0 0-.139.181.7.7 0 0 0-.049.284q0 .167.049.287t.137.185q.09.063.21.064.085 0 .153-.032a.3.3 0 0 0 .114-.095.4.4 0 0 0 .062-.15h.369a.6.6 0 0 1-.343.517.8.8 0 0 1-.358.074m1.835-1.668v.298h-.941v-.298zm-.709-.392h.386v1.536q0 .077.023.12a.13.13 0 0 0 .064.055.3.3 0 0 0 .088.014.4.4 0 0 0 .113-.014l.065.301a.7.7 0 0 1-.227.038.6.6 0 0 1-.261-.043.4.4 0 0 1-.185-.152.46.46 0 0 1-.066-.255zM420.19 71v-1.636h.386V71zm.194-1.869a.22.22 0 0 1-.157-.06.2.2 0 0 1-.066-.148q0-.088.066-.148a.22.22 0 0 1 .157-.062.22.22 0 0 1 .158.062q.066.06.066.148a.2.2 0 0 1-.066.148.22.22 0 0 1-.158.06m1.302 1.901a.8.8 0 0 1-.415-.105.7.7 0 0 1-.273-.296 1 1 0 0 1-.096-.443q0-.253.096-.444a.7.7 0 0 1 .273-.296.8.8 0 0 1 .415-.106q.24 0 .416.106.176.105.271.296a.96.96 0 0 1 .097.444.96.96 0 0 1-.097.443.7.7 0 0 1-.271.296.8.8 0 0 1-.416.105m.002-.309q.13 0 .218-.071a.44.44 0 0 0 .13-.194.8.8 0 0 0 .043-.27q0-.151-.043-.273a.44.44 0 0 0-.13-.195.33.33 0 0 0-.218-.072.34.34 0 0 0-.221.073.44.44 0 0 0-.131.194.8.8 0 0 0-.043.272q0 .15.043.27a.44.44 0 0 0 .131.195.34.34 0 0 0 .221.071m1.495-.682V71h-.385v-1.636h.368v.278h.02a.46.46 0 0 1 .18-.219.55.55 0 0 1 .307-.08q.17 0 .296.072a.5.5 0 0 1 .196.21q.07.136.069.333V71h-.386v-.982a.36.36 0 0 0-.085-.257.3.3 0 0 0-.233-.093.36.36 0 0 0-.18.045.3.3 0 0 0-.123.127.4.4 0 0 0-.044.201"/><path fill="#fff" d="M489 77h-78v15h78z"/><path stroke="#F0F0F0" stroke-miterlimit="10" stroke-width="1.5" d="M420 82h24.09"/><path stroke="#FC3D2E" stroke-miterlimit="10" stroke-width="1.5" d="M429 82h12"/><path stroke="#F0F0F0" stroke-miterlimit="10" stroke-width="1.5" d="M427 87h24.09"/><path fill="#000" d="M415.61 80.818V83h-.395v-2.182zm1.24.546v.298h-.967v-.298zM416.125 83v-1.79q0-.166.068-.276a.43.43 0 0 1 .185-.164.6.6 0 0 1 .258-.054.9.9 0 0 1 .293.045l-.077.298-.061-.015a.4.4 0 0 0-.084-.008q-.107 0-.152.052a.22.22 0 0 0-.044.147V83zm-.63 5h-.421l.768-2.182h.488l.769 2.182h-.422l-.583-1.734h-.017zm.014-.856h1.151v.318h-1.151zm2.524.888a.72.72 0 0 1-.69-.405 1 1 0 0 1-.094-.439q0-.25.096-.44a.72.72 0 0 1 .686-.406.8.8 0 0 1 .353.074.6.6 0 0 1 .35.514h-.369a.35.35 0 0 0-.106-.197.3.3 0 0 0-.223-.08.35.35 0 0 0-.208.064.4.4 0 0 0-.139.181.7.7 0 0 0-.049.284q0 .167.049.287t.137.185q.09.063.21.064.085 0 .153-.032a.3.3 0 0 0 .114-.095.4.4 0 0 0 .062-.15h.369a.6.6 0 0 1-.343.517.8.8 0 0 1-.358.074m1.835-1.668v.298h-.941v-.298zm-.709-.392h.386v1.536q0 .077.023.12a.13.13 0 0 0 .064.055.3.3 0 0 0 .088.014.4.4 0 0 0 .113-.014l.065.301a.7.7 0 0 1-.227.038.6.6 0 0 1-.261-.043.4.4 0 0 1-.185-.152.46.46 0 0 1-.066-.255zM420.19 88v-1.636h.386V88zm.194-1.869a.22.22 0 0 1-.157-.06.2.2 0 0 1-.066-.148q0-.088.066-.148a.22.22 0 0 1 .157-.062.22.22 0 0 1 .158.062q.066.06.066.148a.2.2 0 0 1-.066.148.22.22 0 0 1-.158.06m1.302 1.901a.8.8 0 0 1-.415-.105.7.7 0 0 1-.273-.296 1 1 0 0 1-.096-.443q0-.253.096-.444a.7.7 0 0 1 .273-.296.8.8 0 0 1 .415-.106q.24 0 .416.106.176.105.271.296a.96.96 0 0 1 .097.444.96.96 0 0 1-.097.443.7.7 0 0 1-.271.296.8.8 0 0 1-.416.105m.002-.309q.13 0 .218-.071a.44.44 0 0 0 .13-.194.8.8 0 0 0 .043-.27q0-.151-.043-.273a.44.44 0 0 0-.13-.195.33.33 0 0 0-.218-.072.34.34 0 0 0-.221.073.44.44 0 0 0-.131.194.8.8 0 0 0-.043.272q0 .15.043.27a.44.44 0 0 0 .131.195.34.34 0 0 0 .221.071m1.495-.682V88h-.385v-1.636h.368v.278h.02a.46.46 0 0 1 .18-.219.55.55 0 0 1 .307-.08q.17 0 .296.072a.5.5 0 0 1 .196.21q.07.136.069.333V88h-.386v-.982a.36.36 0 0 0-.085-.257.3.3 0 0 0-.233-.093.36.36 0 0 0-.18.045.3.3 0 0 0-.123.127.4.4 0 0 0-.044.201"/><path fill="#fff" d="M489 94h-78v15h78z"/><path stroke="#F0F0F0" stroke-miterlimit="10" stroke-width="1.5" d="M420 99h24.09m1.91 0h24.09M427 104h24.09"/><path fill="#000" d="M415.61 97.818V100h-.395v-2.182zm1.24.546v.298h-.967v-.298zm-.725 1.636v-1.79q0-.166.068-.276a.43.43 0 0 1 .185-.164.6.6 0 0 1 .258-.054.9.9 0 0 1 .293.045l-.077.298-.061-.015a.4.4 0 0 0-.084-.008q-.107 0-.152.052a.22.22 0 0 0-.044.147V100zm-.63 5h-.421l.768-2.182h.488l.769 2.182h-.422l-.583-1.734h-.017zm.014-.855h1.151v.317h-1.151zm2.524.887a.8.8 0 0 1-.421-.108.7.7 0 0 1-.269-.297 1 1 0 0 1-.094-.439q0-.25.096-.44a.7.7 0 0 1 .27-.298.8.8 0 0 1 .416-.108.8.8 0 0 1 .353.074.6.6 0 0 1 .246.205.6.6 0 0 1 .104.309h-.369a.36.36 0 0 0-.106-.197.3.3 0 0 0-.223-.08.35.35 0 0 0-.208.064.4.4 0 0 0-.139.181.7.7 0 0 0-.049.284q0 .167.049.287t.137.185q.09.064.21.064a.32.32 0 0 0 .267-.127.4.4 0 0 0 .062-.15h.369a.6.6 0 0 1-.343.516.8.8 0 0 1-.358.075m1.835-1.668v.298h-.941v-.298zm-.709-.392h.386v1.536q0 .078.023.119a.13.13 0 0 0 .064.056.34.34 0 0 0 .154.009l.047-.009.065.301a.78.78 0 0 1-.488-.005.4.4 0 0 1-.185-.152.46.46 0 0 1-.066-.255zM420.19 105v-1.636h.386V105zm.194-1.869a.23.23 0 0 1-.157-.06.2.2 0 0 1-.066-.148q0-.088.066-.148a.22.22 0 0 1 .157-.062q.093 0 .158.062.066.06.066.148a.2.2 0 0 1-.066.148.22.22 0 0 1-.158.06m1.302 1.901a.8.8 0 0 1-.415-.106.7.7 0 0 1-.273-.295 1 1 0 0 1-.096-.443q0-.253.096-.444a.7.7 0 0 1 .273-.296.8.8 0 0 1 .415-.106q.24 0 .416.106a.7.7 0 0 1 .271.296.96.96 0 0 1 .097.444.96.96 0 0 1-.097.443.7.7 0 0 1-.271.295.8.8 0 0 1-.416.106m.002-.309q.13 0 .218-.071a.44.44 0 0 0 .13-.194.8.8 0 0 0 .043-.271q0-.15-.043-.272a.44.44 0 0 0-.13-.194.33.33 0 0 0-.218-.073.34.34 0 0 0-.221.073.44.44 0 0 0-.131.194.8.8 0 0 0-.043.272q0 .15.043.271a.44.44 0 0 0 .131.194.34.34 0 0 0 .221.071m1.495-.682V105h-.385v-1.636h.368v.278h.02a.46.46 0 0 1 .18-.219.55.55 0 0 1 .307-.081q.17 0 .296.073a.5.5 0 0 1 .196.21.7.7 0 0 1 .069.333V105h-.386v-.982a.36.36 0 0 0-.085-.257.3.3 0 0 0-.233-.093.35.35 0 0 0-.18.045.3.3 0 0 0-.123.127.4.4 0 0 0-.044.201"/><path stroke="#FC3D2E" stroke-miterlimit="10" stroke-width="1.5" d="M450 99h6"/><path fill="#fff" d="M489 111h-78v15h78z"/><path stroke="#F0F0F0" stroke-miterlimit="10" stroke-width="1.5" d="M420 116h24.09"/><path stroke="#FC3D2E" stroke-miterlimit="10" stroke-width="1.5" d="M427 116h9"/><path stroke="#F0F0F0" stroke-miterlimit="10" stroke-width="1.5" d="M446 116h24.09M427 121h24.09"/><path fill="#000" d="M415.61 114.818V117h-.395v-2.182zm1.24.546v.298h-.967v-.298zm-.725 1.636v-1.791q0-.165.068-.275a.43.43 0 0 1 .185-.164.6.6 0 0 1 .258-.054.9.9 0 0 1 .293.045l-.077.298-.061-.015a.4.4 0 0 0-.084-.008q-.107 0-.152.052a.22.22 0 0 0-.044.147V117zm-.63 5h-.421l.768-2.182h.488l.769 2.182h-.422l-.583-1.734h-.017zm.014-.855h1.151v.317h-1.151zm2.524.887a.8.8 0 0 1-.421-.108.7.7 0 0 1-.269-.297 1 1 0 0 1-.094-.439q0-.25.096-.44a.7.7 0 0 1 .27-.298.8.8 0 0 1 .416-.108.8.8 0 0 1 .353.074.6.6 0 0 1 .246.205.6.6 0 0 1 .104.309h-.369a.36.36 0 0 0-.106-.197.3.3 0 0 0-.223-.08.35.35 0 0 0-.208.064.4.4 0 0 0-.139.181.7.7 0 0 0-.049.284q0 .167.049.287t.137.185q.09.064.21.064a.32.32 0 0 0 .267-.127.4.4 0 0 0 .062-.15h.369a.6.6 0 0 1-.343.516.8.8 0 0 1-.358.075m1.835-1.668v.298h-.941v-.298zm-.709-.392h.386v1.536q0 .078.023.119a.13.13 0 0 0 .064.056.34.34 0 0 0 .154.009l.047-.009.065.301a.78.78 0 0 1-.488-.005.4.4 0 0 1-.185-.152.46.46 0 0 1-.066-.255zM420.19 122v-1.636h.386V122zm.194-1.869a.23.23 0 0 1-.157-.06.2.2 0 0 1-.066-.148q0-.088.066-.148a.22.22 0 0 1 .157-.062q.093 0 .158.062.066.06.066.148a.2.2 0 0 1-.066.148.22.22 0 0 1-.158.06m1.302 1.901a.8.8 0 0 1-.415-.106.7.7 0 0 1-.273-.295 1 1 0 0 1-.096-.443q0-.253.096-.444a.7.7 0 0 1 .273-.296.8.8 0 0 1 .415-.106q.24 0 .416.106a.7.7 0 0 1 .271.296.96.96 0 0 1 .097.444.96.96 0 0 1-.097.443.7.7 0 0 1-.271.295.8.8 0 0 1-.416.106m.002-.309q.13 0 .218-.071a.44.44 0 0 0 .13-.194.8.8 0 0 0 .043-.271q0-.15-.043-.272a.44.44 0 0 0-.13-.194.33.33 0 0 0-.218-.073.34.34 0 0 0-.221.073.44.44 0 0 0-.131.194.8.8 0 0 0-.043.272q0 .15.043.271a.44.44 0 0 0 .131.194.34.34 0 0 0 .221.071m1.495-.682V122h-.385v-1.636h.368v.278h.02a.46.46 0 0 1 .18-.219.55.55 0 0 1 .307-.081q.17 0 .296.073a.5.5 0 0 1 .196.21.7.7 0 0 1 .069.333V122h-.386v-.982a.36.36 0 0 0-.085-.257.3.3 0 0 0-.233-.093.35.35 0 0 0-.18.045.3.3 0 0 0-.123.127.4.4 0 0 0-.044.201"/><path stroke="#0055DC" stroke-miterlimit="10" stroke-width="1.5" d="M497.5 38H377v92.39h120.5z"/><path fill="#000" d="M196.727 157h-4.436v-13.091h4.526q1.949 0 3.349.786a5.26 5.26 0 0 1 2.161 2.244q.754 1.464.754 3.503 0 2.045-.761 3.515a5.26 5.26 0 0 1-2.179 2.257q-1.419.786-3.414.786m-2.064-2.052h1.949q1.368 0 2.282-.498a3.2 3.2 0 0 0 1.374-1.503q.46-1.004.461-2.505 0-1.503-.461-2.493-.46-.997-1.361-1.489-.895-.5-2.224-.499h-2.02zm14.915 2.244q-1.476 0-2.55-.614a4.16 4.16 0 0 1-1.643-1.751q-.575-1.138-.575-2.679 0-1.515.575-2.659a4.35 4.35 0 0 1 1.624-1.789q1.042-.646 2.448-.646.907 0 1.713.294.812.288 1.432.895.627.607.984 1.547.358.933.358 2.224v.71h-8.047v-1.56h5.829a2.5 2.5 0 0 0-.287-1.182 2.1 2.1 0 0 0-.787-.825q-.498-.3-1.163-.3-.71 0-1.246.345a2.4 2.4 0 0 0-.838.895 2.6 2.6 0 0 0-.3 1.208v1.361q0 .857.313 1.47.314.607.876.934.563.32 1.316.319.506 0 .915-.14.408-.147.709-.429.3-.28.454-.696l2.16.242a3.4 3.4 0 0 1-.779 1.496q-.57.633-1.458.985-.888.345-2.033.345m11.227-10.01v1.79h-5.645v-1.79zm-4.251-2.352h2.314v9.217q0 .467.14.716a.75.75 0 0 0 .384.332q.237.09.524.09.217 0 .396-.032.186-.033.282-.058l.389 1.809q-.185.065-.53.141a4.3 4.3 0 0 1-.831.089q-.87.026-1.566-.262a2.43 2.43 0 0 1-1.106-.908q-.402-.613-.396-1.534zm10.427 12.362q-1.477 0-2.551-.614a4.15 4.15 0 0 1-1.642-1.751q-.576-1.138-.576-2.679 0-1.515.576-2.659a4.35 4.35 0 0 1 1.623-1.789q1.042-.646 2.448-.646.908 0 1.713.294.813.288 1.432.895.627.607.985 1.547.358.933.358 2.224v.71h-8.048v-1.56h5.83a2.5 2.5 0 0 0-.288-1.182 2.1 2.1 0 0 0-.786-.825q-.499-.3-1.164-.3-.71 0-1.246.345a2.4 2.4 0 0 0-.837.895 2.6 2.6 0 0 0-.301 1.208v1.361q0 .857.313 1.47.313.607.876.934.562.32 1.317.319.504 0 .914-.14.41-.147.709-.429.301-.28.454-.696l2.161.242a3.4 3.4 0 0 1-.78 1.496q-.569.633-1.458.985-.888.345-2.032.345m10.606 0q-1.47 0-2.525-.646a4.3 4.3 0 0 1-1.617-1.783q-.563-1.145-.563-2.634 0-1.496.576-2.64a4.3 4.3 0 0 1 1.623-1.789q1.054-.646 2.493-.646 1.195 0 2.116.441a3.6 3.6 0 0 1 1.476 1.234q.55.792.627 1.853h-2.212a2.1 2.1 0 0 0-.639-1.182q-.498-.48-1.336-.48-.71 0-1.246.384-.537.377-.838 1.087-.294.709-.294 1.7 0 1.003.294 1.726.294.716.825 1.106.536.383 1.259.383.512 0 .914-.192.41-.198.684-.569t.377-.901h2.212q-.083 1.043-.614 1.847a3.63 3.63 0 0 1-1.444 1.253q-.915.448-2.148.448m11.009-10.01v1.79h-5.645v-1.79zm-4.251-2.352h2.314v9.217q0 .467.14.716a.75.75 0 0 0 .384.332q.236.09.524.09.218 0 .396-.032.186-.033.282-.058l.39 1.809q-.186.065-.531.141a4.3 4.3 0 0 1-.831.089q-.87.026-1.566-.262a2.43 2.43 0 0 1-1.106-.908q-.402-.613-.396-1.534zm157.946-.921h2.902l3.887 9.486h.153l3.886-9.486h2.902V157h-2.275v-8.994h-.122l-3.618 8.956h-1.7l-3.618-8.975h-.121V157h-2.276zM418.501 157v-9.818h2.314V157zm1.164-11.212q-.55 0-.946-.364a1.18 1.18 0 0 1-.397-.888q0-.525.397-.889.396-.37.946-.371.556 0 .946.371.396.364.396.889 0 .517-.396.888-.39.364-.946.364m8.432 1.394v1.79h-5.644v-1.79zm-4.25-2.352h2.314v9.217q0 .467.14.716a.75.75 0 0 0 .384.332q.236.09.524.09.217 0 .396-.032.186-.033.282-.058l.389 1.809q-.185.065-.53.141a4.3 4.3 0 0 1-.831.089q-.87.026-1.566-.262a2.43 2.43 0 0 1-1.106-.908q-.402-.613-.396-1.534zm6.186 12.17v-9.818h2.314V157zm1.163-11.212a1.35 1.35 0 0 1-.946-.364 1.17 1.17 0 0 1-.396-.888q0-.525.396-.889.396-.37.946-.371.556 0 .946.371.396.364.396.889 0 .517-.396.888-.39.364-.946.364m7.8 15.098q-1.247 0-2.141-.338-.895-.333-1.439-.895a3.1 3.1 0 0 1-.754-1.247l2.084-.505q.14.288.409.569.269.288.722.473.46.192 1.157.192.985 0 1.63-.479.646-.474.646-1.56v-1.86h-.115q-.18.357-.524.735a2.7 2.7 0 0 1-.902.633q-.555.255-1.4.255a4 4 0 0 1-2.051-.53q-.915-.537-1.458-1.598-.537-1.067-.537-2.672 0-1.617.537-2.729.543-1.12 1.464-1.694a3.76 3.76 0 0 1 2.052-.582q.862 0 1.419.294.562.288.895.697.332.403.505.76h.128v-1.623h2.282v9.978q0 1.259-.601 2.084-.601.824-1.643 1.233t-2.365.409m.019-5.842q.735 0 1.253-.358.517-.359.786-1.029t.269-1.611q0-.927-.269-1.623-.262-.697-.78-1.081-.511-.39-1.259-.39-.774 0-1.291.403t-.78 1.106q-.262.697-.262 1.585 0 .901.262 1.579.268.671.786 1.048.525.37 1.285.371m9.786 2.154a4.1 4.1 0 0 1-1.681-.332 2.75 2.75 0 0 1-1.176-.997q-.428-.659-.428-1.624 0-.831.307-1.374.306-.543.837-.87a4.2 4.2 0 0 1 1.195-.492 10 10 0 0 1 1.387-.249q.863-.09 1.4-.16.537-.077.78-.23.249-.16.249-.492v-.039q0-.722-.428-1.118t-1.234-.396q-.85 0-1.348.37-.492.37-.665.876l-2.161-.307q.256-.894.844-1.496a3.7 3.7 0 0 1 1.438-.907 5.5 5.5 0 0 1 1.88-.307 6 6 0 0 1 1.412.166q.703.166 1.285.55.582.376.933 1.029.358.652.358 1.63V157h-2.224v-1.349h-.077a2.8 2.8 0 0 1-.594.767 2.9 2.9 0 0 1-.953.569q-.568.211-1.336.211m.601-1.7q.697 0 1.208-.275a2.03 2.03 0 0 0 .786-.741q.282-.46.282-1.004v-1.157q-.109.09-.371.166-.255.077-.575.134t-.633.103l-.543.076a4 4 0 0 0-.927.231 1.53 1.53 0 0 0-.646.447q-.237.28-.236.729 0 .64.466.965.467.326 1.189.326m11.813-8.316v1.79h-5.645v-1.79zm-4.251-2.352h2.314v9.217q0 .467.141.716a.75.75 0 0 0 .383.332q.236.09.524.09.217 0 .396-.032.186-.033.282-.058l.39 1.809q-.186.065-.531.141a4.3 4.3 0 0 1-.831.089q-.868.026-1.566-.262a2.44 2.44 0 0 1-1.106-.908q-.402-.613-.396-1.534zm10.427 12.362q-1.477 0-2.55-.614a4.15 4.15 0 0 1-1.643-1.751q-.576-1.138-.575-2.679 0-1.515.575-2.659a4.35 4.35 0 0 1 1.623-1.789q1.042-.646 2.449-.646.908 0 1.713.294.812.288 1.431.895.627.607.985 1.547.357.933.358 2.224v.71h-8.048v-1.56h5.83a2.5 2.5 0 0 0-.288-1.182 2.1 2.1 0 0 0-.786-.825q-.499-.3-1.164-.3-.71 0-1.246.345a2.4 2.4 0 0 0-.837.895 2.6 2.6 0 0 0-.301 1.208v1.361q0 .857.313 1.47.313.607.876.934.563.32 1.317.319.505 0 .914-.14.409-.147.71-.429.3-.28.453-.696l2.161.242a3.36 3.36 0 0 1-.78 1.496q-.569.633-1.457.985-.889.345-2.033.345"/><defs><clipPath id="clip0_55_791"><path fill="#fff" d="M194 53h5v5h-5z"/></clipPath><clipPath id="clip1_55_791"><path fill="#fff" d="M411 53h5v5h-5z"/></clipPath></defs></svg>