<svg xmlns="http://www.w3.org/2000/svg" width="1257" height="524" fill="none" viewBox="0 0 1257 524"><path fill="#fff" d="M0 0h1257v524H0z"/><path stroke="#127D10" stroke-width="3" d="M93 147h1121"/><path fill="#fff" d="M302 127h740v48H302z"/><path fill="#000" d="M43.414 86.586a2 2 0 0 0-2.828 0L27.858 99.314a2 2 0 1 0 2.828 2.828L42 90.828l11.314 11.314a2 2 0 0 0 2.828-2.828zM44 411V88h-4v323zm1171.41 60.414c.79-.781.79-2.047 0-2.828l-12.72-12.728a2.001 2.001 0 0 0-2.83 2.828L1211.17 470l-11.31 11.314a2.001 2.001 0 0 0 2.83 2.828zM93 472h1121v-4H93z"/><path fill="#fff" d="M533 442h206v55H533z"/><path fill="#002F71" d="M603.858 462.317v-2.249h15.699v2.249h-6.582V481h-2.534v-18.683zM623.142 481v-15.699h2.412V481zm1.227-18.316q-.705 0-1.216-.48a1.54 1.54 0 0 1-.501-1.155q0-.675.501-1.155.51-.48 1.216-.48.705 0 1.206.48.511.48.511 1.155t-.511 1.155a1.68 1.68 0 0 1-1.206.48M629.972 481v-15.699h2.331v2.453h.204q.49-1.257 1.584-1.952 1.094-.705 2.627-.705 1.554 0 2.586.705 1.043.695 1.625 1.952h.163a4.6 4.6 0 0 1 1.81-1.932q1.206-.726 2.892-.725 2.106 0 3.444 1.318 1.34 1.309 1.339 4.078V481h-2.412v-10.507q0-1.737-.95-2.484t-2.239-.746q-1.655 0-2.565 1.002-.91.991-.91 2.514V481h-2.453v-10.752q0-1.34-.868-2.157-.87-.828-2.239-.828-.94 0-1.758.501a3.8 3.8 0 0 0-1.308 1.39q-.49.879-.491 2.034V481zm31.598.327q-2.27 0-3.915-1.002-1.636-1.011-2.524-2.82-.879-1.82-.879-4.232t.879-4.252q.889-1.85 2.473-2.882 1.594-1.042 3.72-1.042 1.227 0 2.423.408a6 6 0 0 1 2.177 1.329q.98.91 1.564 2.412.582 1.503.582 3.7v1.022h-12.101v-2.085h9.648q0-1.329-.531-2.371a4 4 0 0 0-1.493-1.646q-.96-.603-2.269-.603-1.44 0-2.493.716a4.7 4.7 0 0 0-1.605 1.84 5.4 5.4 0 0 0-.562 2.432v1.39q0 1.779.613 3.015.624 1.226 1.727 1.871 1.104.633 2.566.633.95 0 1.717-.265a3.7 3.7 0 0 0 1.339-.818 3.7 3.7 0 0 0 .868-1.37l2.331.654a5.2 5.2 0 0 1-1.237 2.085q-.869.89-2.146 1.39-1.278.491-2.872.491"/><path fill="#fff" d="M14 353V147h55v206z"/><path fill="#002F71" d="M53 310.594H32.068v-7.073q0-2.453.838-4.027.828-1.574 2.28-2.33 1.45-.757 3.3-.757 1.851 0 3.281.757 1.431.756 2.249 2.32.807 1.563.807 3.996v5.724h-2.289v-5.642q0-1.677-.49-2.699-.492-1.032-1.39-1.492-.911-.47-2.167-.47-1.258 0-2.198.47t-1.451 1.503q-.522 1.032-.522 2.729v4.456H53zm-9.403-9.853L53 295.59v2.943l-9.403 5.07zm9.73-14.644q0 2.27-1.002 3.915-1.011 1.635-2.82 2.524-1.82.879-4.232.879t-4.252-.879q-1.85-.89-2.882-2.473-1.043-1.594-1.043-3.721 0-1.226.41-2.422a6 6 0 0 1 1.328-2.177q.909-.98 2.412-1.564 1.503-.582 3.7-.582h1.022v12.101h-2.085v-9.648q-1.329 0-2.371.531a4 4 0 0 0-1.646 1.492q-.603.961-.603 2.269 0 1.441.716 2.494a4.7 4.7 0 0 0 1.84 1.605 5.4 5.4 0 0 0 2.432.562h1.39q1.778 0 3.015-.613 1.227-.624 1.87-1.728.634-1.103.634-2.565 0-.95-.265-1.717a3.7 3.7 0 0 0-.818-1.339 3.7 3.7 0 0 0-1.37-.869l.654-2.33q1.186.368 2.085 1.237.89.868 1.39 2.146.492 1.278.491 2.872m5.56-20.881h-8.3v.205q.43.266 1.084.756.645.49 1.155 1.4.501.91.501 2.422 0 1.964-.991 3.465-1.002 1.502-2.821 2.351-1.83.849-4.324.848-2.474 0-4.292-.848-1.82-.849-2.811-2.361-.992-1.513-.992-3.495 0-1.534.512-2.423.5-.899 1.144-1.369.634-.481 1.043-.746v-.287H37.3v-2.33h21.586zm-7.727 4.456q0-1.45-.756-2.453-.766-1-2.116-1.523-1.36-.52-3.137-.521-1.759 0-3.077.511-1.329.511-2.064 1.513-.747 1.002-.747 2.473 0 1.533.787 2.556.777 1.011 2.116 1.522 1.328.501 2.985.501 1.675 0 3.045-.511 1.36-.52 2.167-1.533.797-1.022.797-2.535m-4.579-21.177h-9.28v-2.412H53v2.412h-2.657v.164q1.196.551 2.033 1.717.829 1.165.828 2.943 0 1.472-.644 2.617-.654 1.144-1.962 1.799-1.318.654-3.322.654h-9.975v-2.412h9.812q1.718 0 2.739-.961 1.022-.97 1.022-2.474 0-.899-.46-1.829-.46-.94-1.41-1.574-.95-.644-2.423-.644m6.746-13.412q0 2.269-1.002 3.914-1.011 1.636-2.82 2.525-1.82.879-4.232.879t-4.252-.879q-1.85-.889-2.882-2.474-1.043-1.594-1.043-3.72 0-1.227.41-2.422a6 6 0 0 1 1.328-2.177q.909-.982 2.412-1.564t3.7-.583h1.022v12.102h-2.085v-9.649q-1.329 0-2.371.532a4 4 0 0 0-1.646 1.492q-.603.961-.603 2.269 0 1.441.716 2.494a4.7 4.7 0 0 0 1.84 1.605 5.4 5.4 0 0 0 2.432.562h1.39q1.778 0 3.015-.613 1.227-.624 1.87-1.728.634-1.104.634-2.565 0-.95-.265-1.717a3.7 3.7 0 0 0-.818-1.339 3.7 3.7 0 0 0-1.37-.869l.654-2.33q1.186.368 2.085 1.236.89.87 1.39 2.147.492 1.278.491 2.872m-12.51-21.29.613 2.167a4 4 0 0 0-1.053.603q-.52.388-.858 1.063t-.337 1.727q0 1.442.664 2.402.654.951 1.666.951.9 0 1.42-.655.522-.654.87-2.044l.572-2.33q.51-2.106 1.563-3.138 1.044-1.032 2.689-1.032 1.349 0 2.412.777 1.062.766 1.676 2.146t.613 3.209q0 2.403-1.042 3.976-1.042 1.575-3.046 1.993l-.573-2.289q1.267-.327 1.902-1.237.633-.92.633-2.402 0-1.686-.715-2.678-.726-1-1.738-1.001-.817 0-1.37.572-.562.573-.837 1.758l-.614 2.617q-.51 2.156-1.584 3.168-1.083 1.002-2.709 1.002-1.328 0-2.35-.746-1.022-.757-1.605-2.055-.583-1.308-.583-2.964 0-2.33 1.023-3.659 1.021-1.338 2.698-1.901M37.3 203.049h2.044v8.135H37.3zm-3.761 5.764v-2.412h14.963q1.022 0 1.533-.296.501-.308.675-.777.163-.481.163-1.012 0-.399-.04-.654l-.083-.409 2.167-.491q.093.246.184.685.102.44.102 1.114 0 1.023-.44 2.003a4 4 0 0 1-1.338 1.615q-.9.634-2.269.634zm7.277-20.232.613 2.167a4 4 0 0 0-1.053.603q-.52.388-.858 1.063t-.337 1.727q0 1.442.664 2.402.654.951 1.666.951.9 0 1.42-.655.522-.654.87-2.044l.572-2.33q.51-2.106 1.563-3.138 1.044-1.032 2.689-1.032 1.349 0 2.412.777 1.062.766 1.676 2.146t.613 3.209q0 2.403-1.042 3.976-1.042 1.575-3.046 1.993l-.573-2.289q1.267-.327 1.902-1.237.633-.92.633-2.402 0-1.686-.715-2.678-.726-1-1.738-1.001-.817 0-1.37.572-.562.573-.837 1.758l-.614 2.617q-.51 2.155-1.584 3.168-1.083 1.002-2.709 1.002-1.328 0-2.35-.746-1.022-.757-1.605-2.055-.583-1.308-.583-2.964 0-2.33 1.023-3.659 1.021-1.338 2.698-1.901"/><path fill="#D9D9D9" stroke="#3E74FF" stroke-width="4" d="M171.439 179.647 96 247.751V411h1118V235.733l-145.5-23.035-165.16 78.62-118.078-187.787L534.11 212.698 345.277 83l-96.524 239.365z"/><path fill="url(#paint0_linear_55_793)" fill-opacity=".59" d="M302 46h740v362H302z"/><path fill="#002F71" d="M549.734 311h-4.743l7.226-20.932h5.704L565.136 311h-4.742l-5.243-16.149h-.164zm-.297-8.228h11.202v3.455h-11.202zm24.499 8.535q-2.412 0-4.149-1.022a6.9 6.9 0 0 1-2.658-2.862q-.92-1.83-.919-4.211 0-2.412.93-4.232a6.9 6.9 0 0 1 2.667-2.851q1.727-1.032 4.109-1.032 2.055 0 3.598.746 1.543.745 2.442 2.095.9 1.348.992 3.168h-4.109q-.173-1.175-.92-1.89-.735-.726-1.932-.726-1.01 0-1.768.552-.745.541-1.165 1.584-.419 1.042-.419 2.524 0 1.503.409 2.556.419 1.052 1.175 1.604.757.552 1.768.552.747 0 1.339-.306a2.6 2.6 0 0 0 .992-.89q.399-.592.521-1.42h4.109q-.102 1.798-.981 3.168-.87 1.36-2.402 2.126-1.533.767-3.629.767m18.15-16.006v3.271h-9.454v-3.271zm-7.308-3.761h4.354v14.636q0 .603.184.94.184.327.511.46.337.133.777.133.306 0 .613-.051.306-.062.47-.092l.685 3.24q-.327.102-.92.235a7.4 7.4 0 0 1-1.441.174q-1.573.061-2.76-.419-1.175-.481-1.829-1.493-.654-1.011-.644-2.555zM594.922 311v-15.699h4.354V311zm2.187-17.723a2.36 2.36 0 0 1-1.666-.644q-.684-.654-.684-1.563 0-.9.684-1.544a2.35 2.35 0 0 1 1.666-.654q.972 0 1.656.654.695.645.695 1.544 0 .909-.695 1.563-.684.644-1.656.644m12.748 18.03q-2.38 0-4.119-1.012a6.93 6.93 0 0 1-2.667-2.842q-.94-1.829-.941-4.241 0-2.433.941-4.252.94-1.83 2.667-2.841 1.739-1.022 4.119-1.022t4.109 1.022a6.8 6.8 0 0 1 2.678 2.841q.94 1.82.94 4.252 0 2.412-.94 4.241a6.9 6.9 0 0 1-2.678 2.842q-1.727 1.011-4.109 1.012m.021-3.373q1.083 0 1.809-.613.725-.624 1.093-1.697.378-1.074.378-2.443 0-1.37-.378-2.443-.368-1.073-1.093-1.696-.726-.624-1.809-.624-1.094 0-1.84.624-.736.623-1.114 1.696-.369 1.074-.368 2.443 0 1.37.368 2.443.378 1.073 1.114 1.697.746.613 1.84.613m14.891-6.01V311h-4.354v-15.699h4.15v2.77h.184a4.38 4.38 0 0 1 1.747-2.167q1.227-.807 2.975-.807 1.635 0 2.851.715t1.891 2.044q.675 1.318.675 3.148V311h-4.354v-9.219q.01-1.441-.736-2.249-.746-.817-2.055-.817-.878 0-1.553.378-.665.378-1.043 1.104-.367.715-.378 1.727M652.483 311h-7.421v-20.932h7.482q3.158 0 5.437 1.257 2.28 1.247 3.506 3.588 1.237 2.34 1.237 5.601 0 3.27-1.237 5.621-1.227 2.35-3.526 3.608-2.289 1.257-5.478 1.257m-2.995-3.792h2.811q1.962 0 3.301-.695 1.349-.705 2.024-2.177.685-1.482.685-3.822 0-2.32-.685-3.792-.675-1.473-2.014-2.167-1.339-.695-3.301-.695h-2.821zm26.5-2.892v-9.015h4.354V311h-4.18v-2.852h-.164a4.63 4.63 0 0 1-1.768 2.218q-1.227.838-2.995.838-1.573 0-2.77-.715-1.195-.715-1.87-2.034-.665-1.319-.675-3.158v-9.996h4.354v9.219q.01 1.39.747 2.198.736.807 1.972.807.787 0 1.472-.358a2.8 2.8 0 0 0 1.104-1.083q.43-.716.419-1.768m7.837 6.684v-15.699h4.221v2.739h.163q.43-1.461 1.441-2.208 1.012-.756 2.331-.756.327 0 .705.041t.664.112v3.864a6 6 0 0 0-.848-.164 8 8 0 0 0-.991-.071q-.961 0-1.718.419a3.1 3.1 0 0 0-1.185 1.145q-.429.736-.429 1.696V311zm15.803.296q-1.502 0-2.677-.521a4.3 4.3 0 0 1-1.861-1.564q-.674-1.042-.674-2.596 0-1.308.48-2.197.48-.89 1.308-1.431a6.4 6.4 0 0 1 1.881-.818 14 14 0 0 1 2.228-.388 55 55 0 0 0 2.208-.266q.838-.133 1.216-.388.378-.256.378-.757v-.061q0-.97-.613-1.502-.603-.532-1.717-.532-1.176 0-1.87.521-.696.511-.92 1.288l-4.027-.327q.306-1.43 1.206-2.473.899-1.053 2.32-1.615 1.431-.572 3.311-.572 1.309 0 2.504.306a6.6 6.6 0 0 1 2.137.951q.939.644 1.482 1.655.541 1.002.541 2.402V311h-4.129v-2.177h-.123a4.4 4.4 0 0 1-1.011 1.298q-.634.552-1.523.869-.89.306-2.055.306m1.247-3.004q.961 0 1.697-.379a3 3 0 0 0 1.155-1.042 2.7 2.7 0 0 0 .419-1.482v-1.666a2.4 2.4 0 0 1-.562.245 10 10 0 0 1-.787.194 39 39 0 0 1-.879.154l-.797.112a5.4 5.4 0 0 0-1.339.358q-.573.245-.89.664-.316.409-.316 1.022 0 .89.644 1.36.654.46 1.655.46m19.323-12.991v3.271h-9.455v-3.271zm-7.308-3.761h4.354v14.636q0 .603.184.94.183.327.511.46.338.133.777.133.306 0 .613-.051.306-.062.47-.092l.685 3.24q-.327.102-.92.235a7.5 7.5 0 0 1-1.441.174q-1.574.061-2.76-.419-1.175-.481-1.829-1.493-.654-1.011-.644-2.555zM723.034 311v-15.699h4.354V311zm2.187-17.723a2.36 2.36 0 0 1-1.666-.644q-.684-.654-.685-1.563 0-.9.685-1.544a2.35 2.35 0 0 1 1.666-.654q.97 0 1.656.654.695.645.695 1.544 0 .909-.695 1.563a2.33 2.33 0 0 1-1.656.644m12.748 18.03q-2.382 0-4.119-1.012a6.93 6.93 0 0 1-2.668-2.842q-.94-1.829-.94-4.241 0-2.433.94-4.252.94-1.83 2.668-2.841 1.737-1.022 4.119-1.022 2.38 0 4.109 1.022a6.8 6.8 0 0 1 2.677 2.841q.94 1.82.941 4.252 0 2.412-.941 4.241a6.9 6.9 0 0 1-2.677 2.842q-1.728 1.011-4.109 1.012m.02-3.373q1.084 0 1.809-.613.726-.624 1.094-1.697.378-1.074.378-2.443 0-1.37-.378-2.443-.368-1.073-1.094-1.696-.725-.624-1.809-.624-1.094 0-1.839.624-.736.623-1.114 1.696-.368 1.074-.368 2.443 0 1.37.368 2.443.378 1.073 1.114 1.697.745.613 1.839.613m14.892-6.01V311h-4.354v-15.699h4.149v2.77h.184a4.4 4.4 0 0 1 1.748-2.167q1.227-.807 2.974-.807 1.636 0 2.852.715t1.891 2.044q.675 1.318.674 3.148V311h-4.354v-9.219q.01-1.441-.736-2.249-.746-.817-2.054-.817-.88 0-1.553.378-.665.378-1.043 1.104-.367.715-.378 1.727"/><mask id="mask0_55_793" width="1122" height="334" x="94" y="78" maskUnits="userSpaceOnUse" style="mask-type:alpha"><path stroke="red" stroke-width="4" d="M171.439 178.647 96 246.751V410h1118V234.733l-145.5-23.035-165.16 78.62-118.078-187.787L534.11 211.698 345.277 82l-96.524 239.365z"/></mask><g mask="url(#mask0_55_793)"><path fill="#F66B6B" d="M302 65h740v323H302z"/></g><path stroke="#10377D" stroke-width="6" d="M96 411V49m-3 362h1121"/><defs><linearGradient id="paint0_linear_55_793" x1="672" x2="672" y1="46" y2="408" gradientUnits="userSpaceOnUse"><stop stop-color="#F66B6B"/><stop offset="1" stop-color="#fff"/></linearGradient></defs></svg>