<svg width="931" height="206" viewBox="0 0 931 206" fill="none" xmlns="http://www.w3.org/2000/svg">
<rect width="931" height="206" fill="white"/>
<path d="M677.982 143.636C677.982 144.588 677.801 145.398 677.44 146.065C677.082 146.733 676.594 147.243 675.974 147.595C675.358 147.945 674.665 148.119 673.895 148.119C673.119 148.119 672.423 147.943 671.807 147.591C671.19 147.239 670.703 146.729 670.345 146.061C669.987 145.393 669.808 144.585 669.808 143.636C669.808 142.685 669.987 141.875 670.345 141.207C670.703 140.54 671.19 140.031 671.807 139.682C672.423 139.33 673.119 139.153 673.895 139.153C674.665 139.153 675.358 139.33 675.974 139.682C676.594 140.031 677.082 140.54 677.44 141.207C677.801 141.875 677.982 142.685 677.982 143.636ZM676.111 143.636C676.111 143.02 676.018 142.5 675.834 142.077C675.652 141.653 675.395 141.332 675.062 141.114C674.73 140.895 674.341 140.786 673.895 140.786C673.449 140.786 673.06 140.895 672.727 141.114C672.395 141.332 672.136 141.653 671.952 142.077C671.77 142.5 671.679 143.02 671.679 143.636C671.679 144.253 671.77 144.773 671.952 145.196C672.136 145.619 672.395 145.94 672.727 146.159C673.06 146.378 673.449 146.487 673.895 146.487C674.341 146.487 674.73 146.378 675.062 146.159C675.395 145.94 675.652 145.619 675.834 145.196C676.018 144.773 676.111 144.253 676.111 143.636ZM679.314 148V141.455H681.074V142.597H681.142C681.262 142.19 681.462 141.884 681.743 141.676C682.025 141.466 682.348 141.361 682.715 141.361C682.806 141.361 682.904 141.366 683.009 141.378C683.114 141.389 683.206 141.405 683.286 141.425V143.036C683.201 143.01 683.083 142.987 682.932 142.967C682.782 142.947 682.644 142.938 682.519 142.938C682.252 142.938 682.013 142.996 681.803 143.112C681.596 143.226 681.431 143.385 681.309 143.589C681.189 143.794 681.13 144.03 681.13 144.297V148H679.314ZM684.224 148V141.455H686.04V148H684.224ZM685.136 140.611C684.866 140.611 684.635 140.521 684.442 140.342C684.251 140.161 684.156 139.943 684.156 139.69C684.156 139.44 684.251 139.226 684.442 139.047C684.635 138.865 684.866 138.774 685.136 138.774C685.406 138.774 685.636 138.865 685.827 139.047C686.02 139.226 686.116 139.44 686.116 139.69C686.116 139.943 686.02 140.161 685.827 140.342C685.636 140.521 685.406 140.611 685.136 140.611ZM690.443 150.591C689.855 150.591 689.35 150.51 688.93 150.348C688.512 150.189 688.18 149.972 687.933 149.696C687.686 149.42 687.525 149.111 687.451 148.767L689.13 148.541C689.181 148.672 689.262 148.794 689.373 148.908C689.484 149.021 689.63 149.112 689.812 149.18C689.997 149.251 690.221 149.287 690.485 149.287C690.88 149.287 691.206 149.19 691.461 148.997C691.72 148.807 691.849 148.487 691.849 148.038V146.841H691.772C691.693 147.023 691.574 147.195 691.414 147.357C691.255 147.518 691.051 147.651 690.801 147.753C690.551 147.855 690.252 147.906 689.906 147.906C689.414 147.906 688.967 147.793 688.564 147.565C688.163 147.335 687.843 146.984 687.605 146.513C687.369 146.038 687.251 145.439 687.251 144.714C687.251 143.973 687.372 143.354 687.613 142.857C687.855 142.359 688.176 141.987 688.576 141.74C688.98 141.493 689.422 141.369 689.902 141.369C690.268 141.369 690.575 141.432 690.822 141.557C691.069 141.679 691.268 141.832 691.419 142.017C691.572 142.199 691.69 142.378 691.772 142.554H691.841V141.455H693.643V148.064C693.643 148.621 693.507 149.087 693.234 149.462C692.961 149.837 692.583 150.118 692.1 150.305C691.62 150.496 691.068 150.591 690.443 150.591ZM690.481 146.543C690.774 146.543 691.021 146.47 691.223 146.325C691.427 146.178 691.583 145.967 691.691 145.695C691.802 145.419 691.858 145.089 691.858 144.706C691.858 144.322 691.804 143.99 691.696 143.709C691.588 143.425 691.431 143.205 691.227 143.048C691.022 142.892 690.774 142.814 690.481 142.814C690.183 142.814 689.931 142.895 689.727 143.057C689.522 143.216 689.368 143.437 689.262 143.722C689.157 144.006 689.105 144.334 689.105 144.706C689.105 145.084 689.157 145.411 689.262 145.686C689.37 145.959 689.525 146.17 689.727 146.321C689.931 146.469 690.183 146.543 690.481 146.543ZM695.088 148V141.455H696.903V148H695.088ZM696 140.611C695.73 140.611 695.498 140.521 695.305 140.342C695.115 140.161 695.02 139.943 695.02 139.69C695.02 139.44 695.115 139.226 695.305 139.047C695.498 138.865 695.73 138.774 696 138.774C696.27 138.774 696.5 138.865 696.69 139.047C696.883 139.226 696.98 139.44 696.98 139.69C696.98 139.943 696.883 140.161 696.69 140.342C696.5 140.521 696.27 140.611 696 140.611ZM700.173 144.216V148H698.357V141.455H700.087V142.609H700.164C700.309 142.229 700.552 141.928 700.893 141.706C701.234 141.482 701.647 141.369 702.133 141.369C702.587 141.369 702.984 141.469 703.322 141.668C703.66 141.866 703.923 142.151 704.11 142.52C704.298 142.886 704.391 143.324 704.391 143.832V148H702.576V144.156C702.579 143.756 702.477 143.443 702.269 143.219C702.062 142.991 701.776 142.878 701.413 142.878C701.168 142.878 700.952 142.93 700.765 143.036C700.58 143.141 700.435 143.294 700.33 143.496C700.228 143.695 700.175 143.935 700.173 144.216ZM714.045 143.321L712.384 143.423C712.355 143.281 712.294 143.153 712.2 143.04C712.107 142.923 711.983 142.831 711.83 142.763C711.679 142.692 711.499 142.656 711.288 142.656C711.007 142.656 710.77 142.716 710.577 142.835C710.384 142.952 710.287 143.108 710.287 143.304C710.287 143.46 710.349 143.592 710.474 143.7C710.599 143.808 710.814 143.895 711.118 143.96L712.303 144.199C712.939 144.33 713.413 144.54 713.726 144.83C714.038 145.119 714.195 145.5 714.195 145.972C714.195 146.401 714.068 146.777 713.815 147.101C713.565 147.425 713.222 147.678 712.784 147.859C712.349 148.038 711.848 148.128 711.28 148.128C710.413 148.128 709.723 147.947 709.209 147.587C708.697 147.223 708.398 146.729 708.31 146.104L710.095 146.01C710.149 146.274 710.28 146.476 710.487 146.615C710.695 146.751 710.96 146.82 711.284 146.82C711.602 146.82 711.858 146.759 712.051 146.636C712.247 146.511 712.347 146.351 712.349 146.155C712.347 145.99 712.277 145.855 712.141 145.75C712.004 145.642 711.794 145.56 711.51 145.503L710.376 145.277C709.737 145.149 709.261 144.928 708.949 144.612C708.639 144.297 708.484 143.895 708.484 143.406C708.484 142.986 708.598 142.624 708.825 142.32C709.055 142.016 709.378 141.781 709.793 141.616C710.21 141.452 710.699 141.369 711.259 141.369C712.085 141.369 712.736 141.544 713.21 141.893C713.688 142.243 713.966 142.719 714.045 143.321ZM718.321 148.128C717.647 148.128 717.068 147.991 716.582 147.719C716.099 147.443 715.727 147.054 715.466 146.551C715.204 146.045 715.074 145.447 715.074 144.757C715.074 144.084 715.204 143.493 715.466 142.984C715.727 142.476 716.095 142.08 716.569 141.795C717.047 141.511 717.606 141.369 718.248 141.369C718.68 141.369 719.082 141.439 719.454 141.578C719.829 141.714 720.156 141.92 720.434 142.196C720.716 142.472 720.934 142.818 721.091 143.236C721.247 143.651 721.325 144.136 721.325 144.693V145.192H715.798V144.067H719.616C719.616 143.805 719.559 143.574 719.446 143.372C719.332 143.17 719.174 143.013 718.973 142.899C718.774 142.783 718.542 142.724 718.278 142.724C718.002 142.724 717.758 142.788 717.545 142.916C717.335 143.041 717.17 143.21 717.051 143.423C716.931 143.634 716.87 143.868 716.868 144.126V145.196C716.868 145.52 716.927 145.8 717.047 146.036C717.169 146.271 717.341 146.453 717.562 146.581C717.784 146.709 718.047 146.773 718.35 146.773C718.552 146.773 718.737 146.744 718.904 146.688C719.072 146.631 719.216 146.545 719.335 146.432C719.454 146.318 719.545 146.179 719.608 146.014L721.287 146.125C721.201 146.528 721.027 146.881 720.762 147.182C720.501 147.48 720.163 147.713 719.748 147.881C719.336 148.045 718.86 148.128 718.321 148.128ZM722.51 148V141.455H724.27V142.597H724.338C724.457 142.19 724.657 141.884 724.939 141.676C725.22 141.466 725.544 141.361 725.91 141.361C726.001 141.361 726.099 141.366 726.204 141.378C726.309 141.389 726.402 141.405 726.481 141.425V143.036C726.396 143.01 726.278 142.987 726.127 142.967C725.977 142.947 725.839 142.938 725.714 142.938C725.447 142.938 725.208 142.996 724.998 143.112C724.791 143.226 724.626 143.385 724.504 143.589C724.385 143.794 724.325 144.03 724.325 144.297V148H722.51ZM733.721 141.455L731.433 148H729.387L727.099 141.455H729.017L730.376 146.138H730.444L731.799 141.455H733.721ZM737.422 148.128C736.749 148.128 736.169 147.991 735.684 147.719C735.201 147.443 734.828 147.054 734.567 146.551C734.306 146.045 734.175 145.447 734.175 144.757C734.175 144.084 734.306 143.493 734.567 142.984C734.828 142.476 735.196 142.08 735.671 141.795C736.148 141.511 736.708 141.369 737.35 141.369C737.782 141.369 738.184 141.439 738.556 141.578C738.931 141.714 739.257 141.92 739.536 142.196C739.817 142.472 740.036 142.818 740.192 143.236C740.348 143.651 740.426 144.136 740.426 144.693V145.192H734.9V144.067H738.718C738.718 143.805 738.661 143.574 738.547 143.372C738.434 143.17 738.276 143.013 738.074 142.899C737.875 142.783 737.644 142.724 737.38 142.724C737.104 142.724 736.86 142.788 736.647 142.916C736.436 143.041 736.272 143.21 736.152 143.423C736.033 143.634 735.972 143.868 735.969 144.126V145.196C735.969 145.52 736.029 145.8 736.148 146.036C736.27 146.271 736.442 146.453 736.664 146.581C736.885 146.709 737.148 146.773 737.452 146.773C737.654 146.773 737.838 146.744 738.006 146.688C738.174 146.631 738.317 146.545 738.436 146.432C738.556 146.318 738.647 146.179 738.709 146.014L740.388 146.125C740.303 146.528 740.128 146.881 739.864 147.182C739.603 147.48 739.265 147.713 738.85 147.881C738.438 148.045 737.962 148.128 737.422 148.128ZM741.611 148V141.455H743.371V142.597H743.439C743.559 142.19 743.759 141.884 744.04 141.676C744.321 141.466 744.645 141.361 745.012 141.361C745.103 141.361 745.201 141.366 745.306 141.378C745.411 141.389 745.503 141.405 745.583 141.425V143.036C745.498 143.01 745.38 142.987 745.229 142.967C745.078 142.947 744.941 142.938 744.816 142.938C744.549 142.938 744.31 142.996 744.1 143.112C743.892 143.226 743.728 143.385 743.605 143.589C743.486 143.794 743.426 144.03 743.426 144.297V148H741.611Z" fill="black"/>
<path d="M559.577 111.636C559.577 112.557 559.411 113.352 559.078 114.023C558.746 114.693 558.29 115.21 557.71 115.574C557.131 115.938 556.469 116.119 555.724 116.119C554.98 116.119 554.318 115.938 553.739 115.574C553.159 115.21 552.703 114.693 552.371 114.023C552.038 113.352 551.872 112.557 551.872 111.636C551.872 110.716 552.038 109.92 552.371 109.25C552.703 108.58 553.159 108.062 553.739 107.699C554.318 107.335 554.98 107.153 555.724 107.153C556.469 107.153 557.131 107.335 557.71 107.699C558.29 108.062 558.746 108.58 559.078 109.25C559.411 109.92 559.577 110.716 559.577 111.636ZM558.554 111.636C558.554 110.881 558.428 110.243 558.175 109.723C557.925 109.203 557.585 108.81 557.156 108.543C556.73 108.276 556.253 108.142 555.724 108.142C555.196 108.142 554.717 108.276 554.288 108.543C553.862 108.81 553.523 109.203 553.27 109.723C553.02 110.243 552.895 110.881 552.895 111.636C552.895 112.392 553.02 113.03 553.27 113.55C553.523 114.07 553.862 114.463 554.288 114.73C554.717 114.997 555.196 115.131 555.724 115.131C556.253 115.131 556.73 114.997 557.156 114.73C557.585 114.463 557.925 114.07 558.175 113.55C558.428 113.03 558.554 112.392 558.554 111.636ZM561.217 116V109.455H562.189V110.443H562.257C562.376 110.119 562.592 109.857 562.905 109.655C563.217 109.453 563.57 109.352 563.962 109.352C564.036 109.352 564.128 109.354 564.239 109.357C564.349 109.359 564.433 109.364 564.49 109.369V110.392C564.456 110.384 564.378 110.371 564.256 110.354C564.136 110.334 564.01 110.324 563.876 110.324C563.558 110.324 563.274 110.391 563.024 110.524C562.777 110.655 562.581 110.837 562.436 111.07C562.294 111.3 562.223 111.562 562.223 111.858V116H561.217ZM565.682 116V109.455H566.688V116H565.682ZM566.194 108.364C565.998 108.364 565.828 108.297 565.686 108.163C565.547 108.03 565.478 107.869 565.478 107.682C565.478 107.494 565.547 107.334 565.686 107.2C565.828 107.067 565.998 107 566.194 107C566.39 107 566.557 107.067 566.696 107.2C566.838 107.334 566.909 107.494 566.909 107.682C566.909 107.869 566.838 108.03 566.696 108.163C566.557 108.297 566.39 108.364 566.194 108.364ZM571.172 118.591C570.686 118.591 570.268 118.528 569.919 118.403C569.57 118.281 569.278 118.119 569.045 117.918C568.815 117.719 568.632 117.506 568.496 117.278L569.297 116.716C569.388 116.835 569.503 116.972 569.642 117.125C569.781 117.281 569.972 117.416 570.213 117.53C570.457 117.646 570.777 117.705 571.172 117.705C571.7 117.705 572.136 117.577 572.48 117.321C572.824 117.065 572.996 116.665 572.996 116.119V114.79H572.911C572.837 114.909 572.732 115.057 572.595 115.233C572.462 115.406 572.268 115.561 572.016 115.697C571.766 115.831 571.428 115.898 571.001 115.898C570.473 115.898 569.999 115.773 569.578 115.523C569.161 115.273 568.83 114.909 568.585 114.432C568.344 113.955 568.223 113.375 568.223 112.693C568.223 112.023 568.341 111.439 568.577 110.942C568.813 110.442 569.141 110.055 569.561 109.783C569.982 109.507 570.467 109.369 571.018 109.369C571.445 109.369 571.783 109.44 572.033 109.582C572.286 109.722 572.479 109.881 572.612 110.06C572.749 110.236 572.854 110.381 572.928 110.494H573.03V109.455H574.001V116.188C574.001 116.75 573.874 117.207 573.618 117.56C573.365 117.915 573.024 118.175 572.595 118.339C572.169 118.507 571.695 118.591 571.172 118.591ZM571.138 114.994C571.541 114.994 571.882 114.902 572.161 114.717C572.439 114.533 572.651 114.267 572.795 113.92C572.94 113.574 573.013 113.159 573.013 112.676C573.013 112.205 572.942 111.788 572.8 111.428C572.658 111.067 572.447 110.784 572.169 110.58C571.891 110.375 571.547 110.273 571.138 110.273C570.712 110.273 570.357 110.381 570.072 110.597C569.791 110.812 569.58 111.102 569.438 111.466C569.298 111.83 569.229 112.233 569.229 112.676C569.229 113.131 569.3 113.533 569.442 113.882C569.587 114.229 569.8 114.501 570.081 114.7C570.365 114.896 570.717 114.994 571.138 114.994ZM575.842 116V109.455H576.848V116H575.842ZM576.354 108.364C576.158 108.364 575.989 108.297 575.847 108.163C575.707 108.03 575.638 107.869 575.638 107.682C575.638 107.494 575.707 107.334 575.847 107.2C575.989 107.067 576.158 107 576.354 107C576.55 107 576.717 107.067 576.857 107.2C576.999 107.334 577.07 107.494 577.07 107.682C577.07 107.869 576.999 108.03 576.857 108.163C576.717 108.297 576.55 108.364 576.354 108.364ZM579.696 112.062V116H578.69V109.455H579.662V110.477H579.747C579.9 110.145 580.133 109.878 580.446 109.676C580.758 109.472 581.162 109.369 581.656 109.369C582.099 109.369 582.487 109.46 582.819 109.642C583.152 109.821 583.41 110.094 583.595 110.46C583.779 110.824 583.872 111.284 583.872 111.841V116H582.866V111.909C582.866 111.395 582.733 110.994 582.466 110.707C582.199 110.418 581.832 110.273 581.366 110.273C581.045 110.273 580.758 110.342 580.505 110.482C580.255 110.621 580.058 110.824 579.913 111.091C579.768 111.358 579.696 111.682 579.696 112.062ZM591.744 116.136C591.13 116.136 590.602 115.991 590.158 115.702C589.715 115.412 589.374 115.013 589.136 114.504C588.897 113.996 588.778 113.415 588.778 112.761C588.778 112.097 588.9 111.51 589.144 111.001C589.391 110.49 589.735 110.091 590.175 109.804C590.619 109.514 591.136 109.369 591.727 109.369C592.187 109.369 592.602 109.455 592.971 109.625C593.34 109.795 593.643 110.034 593.879 110.341C594.114 110.648 594.261 111.006 594.317 111.415H593.312C593.235 111.116 593.065 110.852 592.8 110.622C592.539 110.389 592.187 110.273 591.744 110.273C591.352 110.273 591.008 110.375 590.712 110.58C590.42 110.781 590.191 111.067 590.026 111.436C589.864 111.803 589.783 112.233 589.783 112.727C589.783 113.233 589.863 113.673 590.022 114.048C590.184 114.423 590.411 114.714 590.704 114.922C590.999 115.129 591.346 115.233 591.744 115.233C592.005 115.233 592.242 115.188 592.455 115.097C592.668 115.006 592.849 114.875 592.996 114.705C593.144 114.534 593.249 114.33 593.312 114.091H594.317C594.261 114.477 594.12 114.825 593.896 115.135C593.674 115.442 593.38 115.686 593.013 115.868C592.65 116.047 592.227 116.136 591.744 116.136ZM598.532 116.136C597.901 116.136 597.357 115.997 596.9 115.719C596.445 115.438 596.094 115.045 595.847 114.543C595.603 114.037 595.481 113.449 595.481 112.778C595.481 112.108 595.603 111.517 595.847 111.006C596.094 110.491 596.438 110.091 596.879 109.804C597.322 109.514 597.839 109.369 598.43 109.369C598.771 109.369 599.107 109.426 599.44 109.54C599.772 109.653 600.075 109.838 600.347 110.094C600.62 110.347 600.837 110.682 600.999 111.099C601.161 111.517 601.242 112.031 601.242 112.642V113.068H596.197V112.199H600.219C600.219 111.83 600.146 111.5 599.998 111.21C599.853 110.92 599.646 110.692 599.376 110.524C599.109 110.357 598.793 110.273 598.43 110.273C598.029 110.273 597.683 110.372 597.39 110.571C597.1 110.767 596.877 111.023 596.721 111.338C596.565 111.653 596.487 111.991 596.487 112.352V112.932C596.487 113.426 596.572 113.845 596.742 114.189C596.915 114.53 597.156 114.79 597.462 114.969C597.769 115.145 598.126 115.233 598.532 115.233C598.796 115.233 599.035 115.196 599.248 115.122C599.464 115.045 599.65 114.932 599.806 114.781C599.962 114.628 600.083 114.437 600.168 114.21L601.14 114.483C601.038 114.812 600.866 115.102 600.624 115.352C600.383 115.599 600.085 115.793 599.729 115.932C599.374 116.068 598.975 116.136 598.532 116.136ZM602.772 116V109.455H603.744V110.443H603.812C603.931 110.119 604.147 109.857 604.46 109.655C604.772 109.453 605.124 109.352 605.516 109.352C605.59 109.352 605.683 109.354 605.793 109.357C605.904 109.359 605.988 109.364 606.045 109.369V110.392C606.011 110.384 605.933 110.371 605.81 110.354C605.691 110.334 605.565 110.324 605.431 110.324C605.113 110.324 604.829 110.391 604.579 110.524C604.332 110.655 604.136 110.837 603.991 111.07C603.849 111.3 603.778 111.562 603.778 111.858V116H602.772ZM610.494 109.455V110.307H607.102V109.455H610.494ZM608.09 107.886H609.096V114.125C609.096 114.409 609.137 114.622 609.219 114.764C609.305 114.903 609.413 114.997 609.543 115.045C609.677 115.091 609.817 115.114 609.965 115.114C610.076 115.114 610.167 115.108 610.238 115.097C610.309 115.082 610.366 115.071 610.408 115.062L610.613 115.966C610.545 115.991 610.45 116.017 610.327 116.043C610.205 116.071 610.05 116.085 609.863 116.085C609.579 116.085 609.3 116.024 609.028 115.902C608.758 115.78 608.533 115.594 608.354 115.344C608.178 115.094 608.09 114.778 608.09 114.398V107.886ZM612.006 116V109.455H613.012V116H612.006ZM612.518 108.364C612.322 108.364 612.153 108.297 612.011 108.163C611.871 108.03 611.802 107.869 611.802 107.682C611.802 107.494 611.871 107.334 612.011 107.2C612.153 107.067 612.322 107 612.518 107C612.714 107 612.881 107.067 613.021 107.2C613.163 107.334 613.234 107.494 613.234 107.682C613.234 107.869 613.163 108.03 613.021 108.163C612.881 108.297 612.714 108.364 612.518 108.364ZM617.769 109.455V110.307H614.24V109.455H617.769ZM615.297 116V108.551C615.297 108.176 615.385 107.864 615.561 107.614C615.738 107.364 615.966 107.176 616.248 107.051C616.529 106.926 616.826 106.864 617.138 106.864C617.385 106.864 617.587 106.884 617.743 106.923C617.9 106.963 618.016 107 618.093 107.034L617.803 107.903C617.752 107.886 617.681 107.865 617.59 107.839C617.502 107.814 617.385 107.801 617.24 107.801C616.908 107.801 616.668 107.885 616.52 108.053C616.375 108.22 616.303 108.466 616.303 108.79V116H615.297ZM619.178 116V109.455H620.184V116H619.178ZM619.69 108.364C619.494 108.364 619.325 108.297 619.183 108.163C619.043 108.03 618.974 107.869 618.974 107.682C618.974 107.494 619.043 107.334 619.183 107.2C619.325 107.067 619.494 107 619.69 107C619.886 107 620.053 107.067 620.192 107.2C620.335 107.334 620.406 107.494 620.406 107.682C620.406 107.869 620.335 108.03 620.192 108.163C620.053 108.297 619.886 108.364 619.69 108.364ZM624.685 116.136C624.071 116.136 623.543 115.991 623.1 115.702C622.657 115.412 622.316 115.013 622.077 114.504C621.838 113.996 621.719 113.415 621.719 112.761C621.719 112.097 621.841 111.51 622.086 111.001C622.333 110.49 622.676 110.091 623.117 109.804C623.56 109.514 624.077 109.369 624.668 109.369C625.128 109.369 625.543 109.455 625.912 109.625C626.282 109.795 626.584 110.034 626.82 110.341C627.056 110.648 627.202 111.006 627.259 111.415H626.253C626.176 111.116 626.006 110.852 625.742 110.622C625.48 110.389 625.128 110.273 624.685 110.273C624.293 110.273 623.949 110.375 623.654 110.58C623.361 110.781 623.132 111.067 622.968 111.436C622.806 111.803 622.725 112.233 622.725 112.727C622.725 113.233 622.804 113.673 622.963 114.048C623.125 114.423 623.353 114.714 623.645 114.922C623.941 115.129 624.287 115.233 624.685 115.233C624.946 115.233 625.184 115.188 625.397 115.097C625.61 115.006 625.79 114.875 625.938 114.705C626.086 114.534 626.191 114.33 626.253 114.091H627.259C627.202 114.477 627.061 114.825 626.837 115.135C626.615 115.442 626.321 115.686 625.955 115.868C625.591 116.047 625.168 116.136 624.685 116.136ZM630.655 116.153C630.24 116.153 629.864 116.075 629.526 115.919C629.188 115.76 628.919 115.531 628.721 115.233C628.522 114.932 628.422 114.568 628.422 114.142C628.422 113.767 628.496 113.463 628.644 113.23C628.792 112.994 628.989 112.81 629.236 112.676C629.483 112.543 629.756 112.443 630.054 112.378C630.355 112.31 630.658 112.256 630.962 112.216C631.36 112.165 631.682 112.126 631.929 112.101C632.179 112.072 632.361 112.026 632.475 111.96C632.591 111.895 632.65 111.781 632.65 111.619V111.585C632.65 111.165 632.534 110.838 632.304 110.605C632.077 110.372 631.732 110.256 631.269 110.256C630.789 110.256 630.412 110.361 630.14 110.571C629.867 110.781 629.675 111.006 629.564 111.244L628.61 110.903C628.78 110.506 629.007 110.196 629.292 109.974C629.578 109.75 629.891 109.594 630.229 109.506C630.57 109.415 630.905 109.369 631.235 109.369C631.445 109.369 631.686 109.395 631.959 109.446C632.235 109.494 632.5 109.595 632.756 109.749C633.015 109.902 633.229 110.134 633.4 110.443C633.57 110.753 633.655 111.168 633.655 111.688V116H632.65V115.114H632.598C632.53 115.256 632.417 115.408 632.257 115.57C632.098 115.732 631.887 115.869 631.623 115.983C631.358 116.097 631.036 116.153 630.655 116.153ZM630.809 115.25C631.206 115.25 631.542 115.172 631.814 115.016C632.09 114.859 632.297 114.658 632.436 114.411C632.578 114.163 632.65 113.903 632.65 113.631V112.71C632.607 112.761 632.513 112.808 632.368 112.851C632.226 112.891 632.061 112.926 631.874 112.957C631.689 112.986 631.509 113.011 631.333 113.034C631.159 113.054 631.019 113.071 630.911 113.085C630.65 113.119 630.405 113.175 630.178 113.251C629.953 113.325 629.772 113.437 629.632 113.588C629.496 113.736 629.428 113.937 629.428 114.193C629.428 114.543 629.557 114.807 629.816 114.986C630.077 115.162 630.408 115.25 630.809 115.25ZM638.337 109.455V110.307H634.945V109.455H638.337ZM635.934 107.886H636.94V114.125C636.94 114.409 636.981 114.622 637.063 114.764C637.148 114.903 637.256 114.997 637.387 115.045C637.521 115.091 637.661 115.114 637.809 115.114C637.92 115.114 638.011 115.108 638.082 115.097C638.153 115.082 638.21 115.071 638.252 115.062L638.457 115.966C638.388 115.991 638.293 116.017 638.171 116.043C638.049 116.071 637.894 116.085 637.707 116.085C637.423 116.085 637.144 116.024 636.871 115.902C636.602 115.78 636.377 115.594 636.198 115.344C636.022 115.094 635.934 114.778 635.934 114.398V107.886ZM642.524 116.136C641.893 116.136 641.349 115.997 640.892 115.719C640.438 115.438 640.087 115.045 639.839 114.543C639.595 114.037 639.473 113.449 639.473 112.778C639.473 112.108 639.595 111.517 639.839 111.006C640.087 110.491 640.43 110.091 640.871 109.804C641.314 109.514 641.831 109.369 642.422 109.369C642.763 109.369 643.099 109.426 643.432 109.54C643.764 109.653 644.067 109.838 644.339 110.094C644.612 110.347 644.83 110.682 644.991 111.099C645.153 111.517 645.234 112.031 645.234 112.642V113.068H640.189V112.199H644.212C644.212 111.83 644.138 111.5 643.99 111.21C643.845 110.92 643.638 110.692 643.368 110.524C643.101 110.357 642.786 110.273 642.422 110.273C642.021 110.273 641.675 110.372 641.382 110.571C641.092 110.767 640.869 111.023 640.713 111.338C640.557 111.653 640.479 111.991 640.479 112.352V112.932C640.479 113.426 640.564 113.845 640.734 114.189C640.908 114.53 641.148 114.79 641.455 114.969C641.761 115.145 642.118 115.233 642.524 115.233C642.788 115.233 643.027 115.196 643.24 115.122C643.456 115.045 643.642 114.932 643.798 114.781C643.955 114.628 644.075 114.437 644.161 114.21L645.132 114.483C645.03 114.812 644.858 115.102 644.616 115.352C644.375 115.599 644.077 115.793 643.722 115.932C643.366 116.068 642.967 116.136 642.524 116.136Z" fill="black"/>
<path d="M309.569 116V107.273H314.836V108.21H310.625V111.159H314.563V112.097H310.625V115.062H314.904V116H309.569ZM319.076 116.136C318.53 116.136 318.049 115.999 317.631 115.723C317.213 115.445 316.887 115.053 316.651 114.547C316.415 114.038 316.297 113.438 316.297 112.744C316.297 112.057 316.415 111.46 316.651 110.955C316.887 110.449 317.215 110.058 317.635 109.783C318.056 109.507 318.542 109.369 319.093 109.369C319.519 109.369 319.855 109.44 320.103 109.582C320.353 109.722 320.543 109.881 320.674 110.06C320.807 110.236 320.911 110.381 320.985 110.494H321.07V107.273H322.076V116H321.104V114.994H320.985C320.911 115.114 320.806 115.264 320.669 115.446C320.533 115.625 320.338 115.786 320.086 115.928C319.833 116.067 319.496 116.136 319.076 116.136ZM319.212 115.233C319.615 115.233 319.956 115.128 320.235 114.918C320.513 114.705 320.725 114.411 320.87 114.036C321.015 113.658 321.087 113.222 321.087 112.727C321.087 112.239 321.016 111.811 320.874 111.445C320.732 111.075 320.522 110.788 320.243 110.584C319.965 110.376 319.621 110.273 319.212 110.273C318.786 110.273 318.431 110.382 318.147 110.601C317.865 110.817 317.654 111.111 317.512 111.483C317.373 111.852 317.303 112.267 317.303 112.727C317.303 113.193 317.374 113.616 317.516 113.997C317.661 114.375 317.874 114.676 318.155 114.901C318.439 115.122 318.792 115.233 319.212 115.233ZM326.699 118.591C326.213 118.591 325.796 118.528 325.446 118.403C325.097 118.281 324.806 118.119 324.573 117.918C324.343 117.719 324.159 117.506 324.023 117.278L324.824 116.716C324.915 116.835 325.03 116.972 325.169 117.125C325.309 117.281 325.499 117.416 325.74 117.53C325.985 117.646 326.304 117.705 326.699 117.705C327.228 117.705 327.664 117.577 328.007 117.321C328.351 117.065 328.523 116.665 328.523 116.119V114.79H328.438C328.364 114.909 328.259 115.057 328.123 115.233C327.989 115.406 327.796 115.561 327.543 115.697C327.293 115.831 326.955 115.898 326.529 115.898C326 115.898 325.526 115.773 325.105 115.523C324.688 115.273 324.357 114.909 324.113 114.432C323.871 113.955 323.75 113.375 323.75 112.693C323.75 112.023 323.868 111.439 324.104 110.942C324.34 110.442 324.668 110.055 325.088 109.783C325.509 109.507 325.995 109.369 326.546 109.369C326.972 109.369 327.31 109.44 327.56 109.582C327.813 109.722 328.006 109.881 328.14 110.06C328.276 110.236 328.381 110.381 328.455 110.494H328.557V109.455H329.529V116.188C329.529 116.75 329.401 117.207 329.145 117.56C328.892 117.915 328.551 118.175 328.123 118.339C327.696 118.507 327.222 118.591 326.699 118.591ZM326.665 114.994C327.069 114.994 327.409 114.902 327.688 114.717C327.966 114.533 328.178 114.267 328.323 113.92C328.468 113.574 328.54 113.159 328.54 112.676C328.54 112.205 328.469 111.788 328.327 111.428C328.185 111.067 327.975 110.784 327.696 110.58C327.418 110.375 327.074 110.273 326.665 110.273C326.239 110.273 325.884 110.381 325.6 110.597C325.319 110.812 325.107 111.102 324.965 111.466C324.826 111.83 324.756 112.233 324.756 112.676C324.756 113.131 324.827 113.533 324.969 113.882C325.114 114.229 325.327 114.501 325.608 114.7C325.892 114.896 326.245 114.994 326.665 114.994ZM334.114 116.136C333.483 116.136 332.939 115.997 332.482 115.719C332.027 115.438 331.676 115.045 331.429 114.543C331.185 114.037 331.063 113.449 331.063 112.778C331.063 112.108 331.185 111.517 331.429 111.006C331.676 110.491 332.02 110.091 332.461 109.804C332.904 109.514 333.421 109.369 334.012 109.369C334.353 109.369 334.689 109.426 335.022 109.54C335.354 109.653 335.657 109.838 335.929 110.094C336.202 110.347 336.419 110.682 336.581 111.099C336.743 111.517 336.824 112.031 336.824 112.642V113.068H331.779V112.199H335.801C335.801 111.83 335.728 111.5 335.58 111.21C335.435 110.92 335.228 110.692 334.958 110.524C334.691 110.357 334.375 110.273 334.012 110.273C333.611 110.273 333.265 110.372 332.972 110.571C332.682 110.767 332.459 111.023 332.303 111.338C332.147 111.653 332.069 111.991 332.069 112.352V112.932C332.069 113.426 332.154 113.845 332.324 114.189C332.498 114.53 332.738 114.79 333.044 114.969C333.351 115.145 333.708 115.233 334.114 115.233C334.378 115.233 334.617 115.196 334.83 115.122C335.046 115.045 335.232 114.932 335.388 114.781C335.544 114.628 335.665 114.437 335.75 114.21L336.722 114.483C336.62 114.812 336.448 115.102 336.206 115.352C335.965 115.599 335.667 115.793 335.311 115.932C334.956 116.068 334.557 116.136 334.114 116.136ZM344.388 116.136C343.775 116.136 343.246 115.991 342.803 115.702C342.36 115.412 342.019 115.013 341.78 114.504C341.542 113.996 341.422 113.415 341.422 112.761C341.422 112.097 341.544 111.51 341.789 111.001C342.036 110.49 342.38 110.091 342.82 109.804C343.263 109.514 343.78 109.369 344.371 109.369C344.831 109.369 345.246 109.455 345.615 109.625C345.985 109.795 346.287 110.034 346.523 110.341C346.759 110.648 346.905 111.006 346.962 111.415H345.956C345.88 111.116 345.709 110.852 345.445 110.622C345.184 110.389 344.831 110.273 344.388 110.273C343.996 110.273 343.652 110.375 343.357 110.58C343.064 110.781 342.836 111.067 342.671 111.436C342.509 111.803 342.428 112.233 342.428 112.727C342.428 113.233 342.507 113.673 342.667 114.048C342.828 114.423 343.056 114.714 343.348 114.922C343.644 115.129 343.99 115.233 344.388 115.233C344.65 115.233 344.887 115.188 345.1 115.097C345.313 115.006 345.493 114.875 345.641 114.705C345.789 114.534 345.894 114.33 345.956 114.091H346.962C346.905 114.477 346.765 114.825 346.54 115.135C346.319 115.442 346.025 115.686 345.658 115.868C345.294 116.047 344.871 116.136 344.388 116.136ZM351.176 116.136C350.546 116.136 350.002 115.997 349.544 115.719C349.09 115.438 348.739 115.045 348.492 114.543C348.248 114.037 348.125 113.449 348.125 112.778C348.125 112.108 348.248 111.517 348.492 111.006C348.739 110.491 349.083 110.091 349.523 109.804C349.966 109.514 350.483 109.369 351.074 109.369C351.415 109.369 351.752 109.426 352.084 109.54C352.417 109.653 352.719 109.838 352.992 110.094C353.265 110.347 353.482 110.682 353.644 111.099C353.806 111.517 353.887 112.031 353.887 112.642V113.068H348.841V112.199H352.864C352.864 111.83 352.79 111.5 352.642 111.21C352.498 110.92 352.29 110.692 352.02 110.524C351.753 110.357 351.438 110.273 351.074 110.273C350.674 110.273 350.327 110.372 350.034 110.571C349.745 110.767 349.522 111.023 349.365 111.338C349.209 111.653 349.131 111.991 349.131 112.352V112.932C349.131 113.426 349.216 113.845 349.387 114.189C349.56 114.53 349.8 114.79 350.107 114.969C350.414 115.145 350.77 115.233 351.176 115.233C351.441 115.233 351.679 115.196 351.892 115.122C352.108 115.045 352.294 114.932 352.451 114.781C352.607 114.628 352.728 114.437 352.813 114.21L353.784 114.483C353.682 114.812 353.51 115.102 353.269 115.352C353.027 115.599 352.729 115.793 352.374 115.932C352.019 116.068 351.62 116.136 351.176 116.136ZM355.417 116V109.455H356.388V110.443H356.456C356.576 110.119 356.792 109.857 357.104 109.655C357.417 109.453 357.769 109.352 358.161 109.352C358.235 109.352 358.327 109.354 358.438 109.357C358.549 109.359 358.632 109.364 358.689 109.369V110.392C358.655 110.384 358.577 110.371 358.455 110.354C358.336 110.334 358.209 110.324 358.076 110.324C357.757 110.324 357.473 110.391 357.223 110.524C356.976 110.655 356.78 110.837 356.635 111.07C356.493 111.3 356.422 111.562 356.422 111.858V116H355.417ZM363.138 109.455V110.307H359.746V109.455H363.138ZM360.735 107.886H361.74V114.125C361.74 114.409 361.782 114.622 361.864 114.764C361.949 114.903 362.057 114.997 362.188 115.045C362.321 115.091 362.462 115.114 362.61 115.114C362.721 115.114 362.811 115.108 362.882 115.097C362.953 115.082 363.01 115.071 363.053 115.062L363.257 115.966C363.189 115.991 363.094 116.017 362.972 116.043C362.85 116.071 362.695 116.085 362.507 116.085C362.223 116.085 361.945 116.024 361.672 115.902C361.402 115.78 361.178 115.594 360.999 115.344C360.823 115.094 360.735 114.778 360.735 114.398V107.886ZM364.651 116V109.455H365.657V116H364.651ZM365.162 108.364C364.966 108.364 364.797 108.297 364.655 108.163C364.516 108.03 364.446 107.869 364.446 107.682C364.446 107.494 364.516 107.334 364.655 107.2C364.797 107.067 364.966 107 365.162 107C365.358 107 365.526 107.067 365.665 107.2C365.807 107.334 365.878 107.494 365.878 107.682C365.878 107.869 365.807 108.03 365.665 108.163C365.526 108.297 365.358 108.364 365.162 108.364ZM370.413 109.455V110.307H366.885V109.455H370.413ZM367.942 116V108.551C367.942 108.176 368.03 107.864 368.206 107.614C368.382 107.364 368.611 107.176 368.892 107.051C369.173 106.926 369.47 106.864 369.783 106.864C370.03 106.864 370.232 106.884 370.388 106.923C370.544 106.963 370.661 107 370.737 107.034L370.447 107.903C370.396 107.886 370.325 107.865 370.234 107.839C370.146 107.814 370.03 107.801 369.885 107.801C369.553 107.801 369.313 107.885 369.165 108.053C369.02 108.22 368.947 108.466 368.947 108.79V116H367.942ZM371.823 116V109.455H372.828V116H371.823ZM372.334 108.364C372.138 108.364 371.969 108.297 371.827 108.163C371.688 108.03 371.618 107.869 371.618 107.682C371.618 107.494 371.688 107.334 371.827 107.2C371.969 107.067 372.138 107 372.334 107C372.53 107 372.698 107.067 372.837 107.2C372.979 107.334 373.05 107.494 373.05 107.682C373.05 107.869 372.979 108.03 372.837 108.163C372.698 108.297 372.53 108.364 372.334 108.364ZM377.33 116.136C376.716 116.136 376.188 115.991 375.744 115.702C375.301 115.412 374.96 115.013 374.722 114.504C374.483 113.996 374.364 113.415 374.364 112.761C374.364 112.097 374.486 111.51 374.73 111.001C374.977 110.49 375.321 110.091 375.761 109.804C376.205 109.514 376.722 109.369 377.312 109.369C377.773 109.369 378.188 109.455 378.557 109.625C378.926 109.795 379.229 110.034 379.464 110.341C379.7 110.648 379.847 111.006 379.903 111.415H378.898C378.821 111.116 378.651 110.852 378.386 110.622C378.125 110.389 377.773 110.273 377.33 110.273C376.938 110.273 376.594 110.375 376.298 110.58C376.006 110.781 375.777 111.067 375.612 111.436C375.45 111.803 375.369 112.233 375.369 112.727C375.369 113.233 375.449 113.673 375.608 114.048C375.77 114.423 375.997 114.714 376.29 114.922C376.585 115.129 376.932 115.233 377.33 115.233C377.591 115.233 377.828 115.188 378.041 115.097C378.254 115.006 378.435 114.875 378.582 114.705C378.73 114.534 378.835 114.33 378.898 114.091H379.903C379.847 114.477 379.706 114.825 379.482 115.135C379.26 115.442 378.966 115.686 378.599 115.868C378.236 116.047 377.813 116.136 377.33 116.136ZM383.3 116.153C382.885 116.153 382.509 116.075 382.17 115.919C381.832 115.76 381.564 115.531 381.365 115.233C381.166 114.932 381.067 114.568 381.067 114.142C381.067 113.767 381.141 113.463 381.288 113.23C381.436 112.994 381.634 112.81 381.881 112.676C382.128 112.543 382.401 112.443 382.699 112.378C383 112.31 383.303 112.256 383.607 112.216C384.004 112.165 384.327 112.126 384.574 112.101C384.824 112.072 385.006 112.026 385.119 111.96C385.236 111.895 385.294 111.781 385.294 111.619V111.585C385.294 111.165 385.179 110.838 384.949 110.605C384.722 110.372 384.376 110.256 383.913 110.256C383.433 110.256 383.057 110.361 382.784 110.571C382.511 110.781 382.32 111.006 382.209 111.244L381.254 110.903C381.425 110.506 381.652 110.196 381.936 109.974C382.223 109.75 382.536 109.594 382.874 109.506C383.214 109.415 383.55 109.369 383.879 109.369C384.089 109.369 384.331 109.395 384.604 109.446C384.879 109.494 385.145 109.595 385.401 109.749C385.659 109.902 385.874 110.134 386.044 110.443C386.214 110.753 386.3 111.168 386.3 111.688V116H385.294V115.114H385.243C385.175 115.256 385.061 115.408 384.902 115.57C384.743 115.732 384.531 115.869 384.267 115.983C384.003 116.097 383.68 116.153 383.3 116.153ZM383.453 115.25C383.851 115.25 384.186 115.172 384.459 115.016C384.734 114.859 384.942 114.658 385.081 114.411C385.223 114.163 385.294 113.903 385.294 113.631V112.71C385.251 112.761 385.158 112.808 385.013 112.851C384.871 112.891 384.706 112.926 384.518 112.957C384.334 112.986 384.153 113.011 383.977 113.034C383.804 113.054 383.663 113.071 383.555 113.085C383.294 113.119 383.05 113.175 382.822 113.251C382.598 113.325 382.416 113.437 382.277 113.588C382.141 113.736 382.072 113.937 382.072 114.193C382.072 114.543 382.202 114.807 382.46 114.986C382.722 115.162 383.053 115.25 383.453 115.25ZM390.982 109.455V110.307H387.59V109.455H390.982ZM388.578 107.886H389.584V114.125C389.584 114.409 389.625 114.622 389.708 114.764C389.793 114.903 389.901 114.997 390.032 115.045C390.165 115.091 390.306 115.114 390.453 115.114C390.564 115.114 390.655 115.108 390.726 115.097C390.797 115.082 390.854 115.071 390.897 115.062L391.101 115.966C391.033 115.991 390.938 116.017 390.816 116.043C390.694 116.071 390.539 116.085 390.351 116.085C390.067 116.085 389.789 116.024 389.516 115.902C389.246 115.78 389.022 115.594 388.843 115.344C388.667 115.094 388.578 114.778 388.578 114.398V107.886ZM395.169 116.136C394.538 116.136 393.994 115.997 393.537 115.719C393.082 115.438 392.731 115.045 392.484 114.543C392.24 114.037 392.118 113.449 392.118 112.778C392.118 112.108 392.24 111.517 392.484 111.006C392.731 110.491 393.075 110.091 393.515 109.804C393.958 109.514 394.475 109.369 395.066 109.369C395.407 109.369 395.744 109.426 396.076 109.54C396.409 109.653 396.711 109.838 396.984 110.094C397.257 110.347 397.474 110.682 397.636 111.099C397.798 111.517 397.879 112.031 397.879 112.642V113.068H392.833V112.199H396.856C396.856 111.83 396.782 111.5 396.635 111.21C396.49 110.92 396.282 110.692 396.012 110.524C395.745 110.357 395.43 110.273 395.066 110.273C394.666 110.273 394.319 110.372 394.027 110.571C393.737 110.767 393.514 111.023 393.358 111.338C393.201 111.653 393.123 111.991 393.123 112.352V112.932C393.123 113.426 393.208 113.845 393.379 114.189C393.552 114.53 393.792 114.79 394.099 114.969C394.406 115.145 394.762 115.233 395.169 115.233C395.433 115.233 395.672 115.196 395.885 115.122C396.1 115.045 396.287 114.932 396.443 114.781C396.599 114.628 396.72 114.437 396.805 114.21L397.777 114.483C397.674 114.812 397.502 115.102 397.261 115.352C397.02 115.599 396.721 115.793 396.366 115.932C396.011 116.068 395.612 116.136 395.169 116.136Z" fill="black"/>
<path d="M670.672 121.964L670.672 125.374L746.896 125.37L746.895 121.96L670.672 121.964Z" fill="white" stroke="#0055DC" stroke-width="1.5" stroke-miterlimit="10"/>
<path d="M751.568 99.4585H666V121.96H751.568V99.4585Z" fill="#C5EBF5" stroke="#0055DC" stroke-width="1.5" stroke-miterlimit="10"/>
<path d="M747.872 118.526V102.892H669.697V118.526H747.872Z" fill="white"/>
<path d="M676.041 109.011C676.919 109.011 677.63 108.299 677.63 107.422C677.63 106.544 676.919 105.833 676.041 105.833C675.163 105.833 674.452 106.544 674.452 107.422C674.452 108.299 675.163 109.011 676.041 109.011Z" fill="#0055DC"/>
<path d="M682.444 112.562H674.262" stroke="#0055DC" stroke-width="1.5" stroke-miterlimit="10"/>
<path d="M704.461 115.233H674.262" stroke="#0055DC" stroke-width="1.5" stroke-miterlimit="10"/>
<path d="M715.294 115.233H708.139" stroke="#0055DC" stroke-width="1.5" stroke-miterlimit="10"/>
<path d="M670.672 96.0026L670.672 99.4131L746.896 99.4091L746.895 95.9986L670.672 96.0026Z" fill="white" stroke="#0055DC" stroke-width="1.5" stroke-miterlimit="10"/>
<path d="M751.568 78H666V95.9999H751.568V78Z" fill="#C5EBF5" stroke="#0055DC" stroke-width="1.5" stroke-miterlimit="10"/>
<path d="M747.872 92.5662V81.4341H669.697V92.5662H747.872Z" fill="white"/>
<path d="M676.041 88.0817C676.626 88.0817 677.1 87.6075 677.1 87.0225C677.1 86.4376 676.626 85.9634 676.041 85.9634C675.456 85.9634 674.982 86.4376 674.982 87.0225C674.982 87.6075 675.456 88.0817 676.041 88.0817Z" fill="#0055DC"/>
<path d="M679.881 88.0817C680.466 88.0817 680.941 87.6075 680.941 87.0225C680.941 86.4376 680.466 85.9634 679.881 85.9634C679.296 85.9634 678.822 86.4376 678.822 87.0225C678.822 87.6075 679.296 88.0817 679.881 88.0817Z" fill="#0055DC"/>
<path d="M685.341 89.4059C686.658 89.4059 687.725 88.3387 687.725 87.0223C687.725 85.7059 686.658 84.6387 685.341 84.6387C684.025 84.6387 682.958 85.7059 682.958 87.0223C682.958 88.3387 684.025 89.4059 685.341 89.4059Z" fill="#0055DC"/>
<path d="M742.778 89.272H717.875" stroke="#0055DC" stroke-width="1.5" stroke-miterlimit="10"/>
<path d="M715.294 89.272H708.139" stroke="#0055DC" stroke-width="1.5" stroke-miterlimit="10"/>
<path d="M742.888 86.4702H735.733" stroke="#6ECCE5" stroke-width="1.5" stroke-miterlimit="10"/>
<path d="M742.888 84.1094H735.733" stroke="#6ECCE5" stroke-width="1.5" stroke-miterlimit="10"/>
<path d="M499.768 56.7678C500.744 55.7915 500.744 54.2086 499.768 53.2322L483.858 37.3223C482.882 36.346 481.299 36.346 480.322 37.3223C479.346 38.2987 479.346 39.8816 480.322 40.8579L494.464 55L480.322 69.1421C479.346 70.1185 479.346 71.7014 480.322 72.6777C481.299 73.654 482.882 73.654 483.858 72.6777L499.768 56.7678ZM204 57.5L498 57.5L498 52.5L204 52.5L204 57.5Z" fill="white"/>
<path d="M532.293 96.2929C531.902 96.6834 531.902 97.3166 532.293 97.7071L538.657 104.071C539.047 104.462 539.681 104.462 540.071 104.071C540.462 103.681 540.462 103.047 540.071 102.657L534.414 97L540.071 91.3431C540.462 90.9526 540.462 90.3195 540.071 89.9289C539.681 89.5384 539.047 89.5384 538.657 89.9289L532.293 96.2929ZM654 96L533 96V98L654 98V96Z" fill="#0055DC"/>
<path d="M284.293 96.2929C283.902 96.6834 283.902 97.3166 284.293 97.7071L290.657 104.071C291.047 104.462 291.681 104.462 292.071 104.071C292.462 103.681 292.462 103.047 292.071 102.657L286.414 97L292.071 91.3431C292.462 90.9526 292.462 90.3195 292.071 89.9289C291.681 89.5384 291.047 89.5384 290.657 89.9289L284.293 96.2929ZM406 96L285 96V98L406 98V96Z" fill="#0055DC"/>
<path d="M205.759 154V145.273H209.253C209.895 145.273 210.43 145.368 210.859 145.558C211.288 145.749 211.611 146.013 211.827 146.351C212.043 146.686 212.151 147.072 212.151 147.51C212.151 147.851 212.082 148.151 211.946 148.409C211.81 148.665 211.622 148.875 211.384 149.04C211.148 149.202 210.878 149.317 210.574 149.385V149.47C210.906 149.484 211.217 149.578 211.507 149.751C211.8 149.925 212.037 150.168 212.219 150.48C212.401 150.79 212.491 151.159 212.491 151.588C212.491 152.051 212.376 152.464 212.146 152.828C211.919 153.189 211.582 153.474 211.136 153.685C210.69 153.895 210.141 154 209.487 154H205.759ZM207.604 152.491H209.108C209.622 152.491 209.997 152.393 210.233 152.197C210.469 151.999 210.587 151.734 210.587 151.405C210.587 151.163 210.528 150.95 210.412 150.766C210.295 150.581 210.129 150.436 209.913 150.331C209.7 150.226 209.446 150.173 209.151 150.173H207.604V152.491ZM207.604 148.925H208.972C209.224 148.925 209.449 148.881 209.645 148.793C209.844 148.702 210 148.574 210.114 148.409C210.23 148.244 210.288 148.047 210.288 147.817C210.288 147.501 210.176 147.247 209.952 147.054C209.73 146.861 209.415 146.764 209.006 146.764H207.604V148.925ZM213.658 154V147.455H215.418V148.597H215.486C215.605 148.19 215.806 147.884 216.087 147.676C216.368 147.466 216.692 147.361 217.059 147.361C217.15 147.361 217.248 147.366 217.353 147.378C217.458 147.389 217.55 147.405 217.63 147.425V149.036C217.544 149.01 217.426 148.987 217.276 148.967C217.125 148.947 216.988 148.938 216.863 148.938C216.596 148.938 216.357 148.996 216.147 149.112C215.939 149.226 215.775 149.385 215.652 149.589C215.533 149.794 215.473 150.03 215.473 150.297V154H213.658ZM221.221 154.128C220.559 154.128 219.987 153.987 219.504 153.706C219.023 153.422 218.653 153.027 218.391 152.521C218.13 152.013 217.999 151.423 217.999 150.753C217.999 150.077 218.13 149.486 218.391 148.98C218.653 148.472 219.023 148.077 219.504 147.795C219.987 147.511 220.559 147.369 221.221 147.369C221.883 147.369 222.454 147.511 222.934 147.795C223.417 148.077 223.789 148.472 224.05 148.98C224.312 149.486 224.442 150.077 224.442 150.753C224.442 151.423 224.312 152.013 224.05 152.521C223.789 153.027 223.417 153.422 222.934 153.706C222.454 153.987 221.883 154.128 221.221 154.128ZM221.229 152.722C221.531 152.722 221.782 152.636 221.984 152.466C222.185 152.293 222.337 152.057 222.44 151.759C222.545 151.46 222.597 151.121 222.597 150.74C222.597 150.359 222.545 150.02 222.44 149.722C222.337 149.423 222.185 149.187 221.984 149.014C221.782 148.841 221.531 148.754 221.229 148.754C220.925 148.754 220.67 148.841 220.462 149.014C220.258 149.187 220.103 149.423 219.998 149.722C219.896 150.02 219.844 150.359 219.844 150.74C219.844 151.121 219.896 151.46 219.998 151.759C220.103 152.057 220.258 152.293 220.462 152.466C220.67 152.636 220.925 152.722 221.229 152.722ZM226.75 154L224.969 147.455H226.805L227.82 151.852H227.879L228.936 147.455H230.739L231.812 151.827H231.868L232.865 147.455H234.697L232.92 154H230.999L229.874 149.884H229.793L228.668 154H226.75ZM241.112 149.321L239.45 149.423C239.422 149.281 239.36 149.153 239.267 149.04C239.173 148.923 239.049 148.831 238.896 148.763C238.745 148.692 238.565 148.656 238.355 148.656C238.074 148.656 237.836 148.716 237.643 148.835C237.45 148.952 237.353 149.108 237.353 149.304C237.353 149.46 237.416 149.592 237.541 149.7C237.666 149.808 237.88 149.895 238.184 149.96L239.369 150.199C240.005 150.33 240.48 150.54 240.792 150.83C241.105 151.119 241.261 151.5 241.261 151.972C241.261 152.401 241.135 152.777 240.882 153.101C240.632 153.425 240.288 153.678 239.85 153.859C239.416 154.038 238.914 154.128 238.346 154.128C237.48 154.128 236.789 153.947 236.275 153.587C235.764 153.223 235.464 152.729 235.376 152.104L237.162 152.01C237.216 152.274 237.346 152.476 237.554 152.615C237.761 152.751 238.027 152.82 238.35 152.82C238.669 152.82 238.924 152.759 239.118 152.636C239.314 152.511 239.413 152.351 239.416 152.155C239.413 151.99 239.343 151.855 239.207 151.75C239.071 151.642 238.86 151.56 238.576 151.503L237.443 151.277C236.804 151.149 236.328 150.928 236.015 150.612C235.706 150.297 235.551 149.895 235.551 149.406C235.551 148.986 235.664 148.624 235.892 148.32C236.122 148.016 236.444 147.781 236.859 147.616C237.277 147.452 237.765 147.369 238.325 147.369C239.152 147.369 239.802 147.544 240.277 147.893C240.754 148.243 241.032 148.719 241.112 149.321ZM245.387 154.128C244.714 154.128 244.134 153.991 243.648 153.719C243.165 153.443 242.793 153.054 242.532 152.551C242.271 152.045 242.14 151.447 242.14 150.757C242.14 150.084 242.271 149.493 242.532 148.984C242.793 148.476 243.161 148.08 243.636 147.795C244.113 147.511 244.673 147.369 245.315 147.369C245.746 147.369 246.148 147.439 246.521 147.578C246.896 147.714 247.222 147.92 247.501 148.196C247.782 148.472 248.001 148.818 248.157 149.236C248.313 149.651 248.391 150.136 248.391 150.693V151.192H242.864V150.067H246.683C246.683 149.805 246.626 149.574 246.512 149.372C246.398 149.17 246.241 149.013 246.039 148.899C245.84 148.783 245.609 148.724 245.344 148.724C245.069 148.724 244.825 148.788 244.612 148.916C244.401 149.041 244.237 149.21 244.117 149.423C243.998 149.634 243.937 149.868 243.934 150.126V151.196C243.934 151.52 243.994 151.8 244.113 152.036C244.235 152.271 244.407 152.453 244.629 152.581C244.85 152.709 245.113 152.773 245.417 152.773C245.619 152.773 245.803 152.744 245.971 152.688C246.138 152.631 246.282 152.545 246.401 152.432C246.521 152.318 246.612 152.179 246.674 152.014L248.353 152.125C248.268 152.528 248.093 152.881 247.829 153.182C247.567 153.48 247.229 153.713 246.815 153.881C246.403 154.045 245.927 154.128 245.387 154.128ZM249.576 154V147.455H251.336V148.597H251.404C251.523 148.19 251.724 147.884 252.005 147.676C252.286 147.466 252.61 147.361 252.977 147.361C253.067 147.361 253.165 147.366 253.271 147.378C253.376 147.389 253.468 147.405 253.548 147.425V149.036C253.462 149.01 253.344 148.987 253.194 148.967C253.043 148.947 252.906 148.938 252.781 148.938C252.513 148.938 252.275 148.996 252.065 149.112C251.857 149.226 251.692 149.385 251.57 149.589C251.451 149.794 251.391 150.03 251.391 150.297V154H249.576Z" fill="black"/>
<circle cx="469.5" cy="96.5" r="51.5" stroke="#F6821F" stroke-width="2"/>
<rect x="427" y="138" width="85" height="41" rx="20.5" fill="white"/>
<path d="M447.767 149.328H445.901C445.867 149.087 445.797 148.872 445.692 148.685C445.587 148.494 445.452 148.332 445.287 148.199C445.123 148.065 444.932 147.963 444.716 147.892C444.503 147.821 444.272 147.786 444.022 147.786C443.57 147.786 443.176 147.898 442.841 148.122C442.506 148.344 442.246 148.668 442.061 149.094C441.877 149.517 441.784 150.031 441.784 150.636C441.784 151.259 441.877 151.781 442.061 152.205C442.249 152.628 442.51 152.947 442.846 153.163C443.181 153.379 443.569 153.487 444.009 153.487C444.256 153.487 444.485 153.455 444.695 153.389C444.908 153.324 445.097 153.229 445.262 153.104C445.426 152.976 445.563 152.821 445.671 152.639C445.782 152.457 445.858 152.25 445.901 152.017L447.767 152.026C447.719 152.426 447.598 152.812 447.405 153.185C447.215 153.554 446.958 153.885 446.634 154.178C446.313 154.467 445.929 154.697 445.483 154.868C445.04 155.036 444.539 155.119 443.979 155.119C443.201 155.119 442.505 154.943 441.891 154.591C441.28 154.239 440.797 153.729 440.442 153.061C440.09 152.393 439.914 151.585 439.914 150.636C439.914 149.685 440.093 148.875 440.451 148.207C440.809 147.54 441.294 147.031 441.908 146.682C442.522 146.33 443.212 146.153 443.979 146.153C444.485 146.153 444.953 146.224 445.385 146.366C445.82 146.509 446.205 146.716 446.54 146.989C446.875 147.259 447.148 147.589 447.358 147.982C447.571 148.374 447.708 148.822 447.767 149.328ZM450.872 146.273V155H449.056V146.273H450.872ZM455.283 155.128C454.621 155.128 454.049 154.987 453.566 154.706C453.086 154.422 452.715 154.027 452.454 153.521C452.192 153.013 452.062 152.423 452.062 151.753C452.062 151.077 452.192 150.486 452.454 149.98C452.715 149.472 453.086 149.077 453.566 148.795C454.049 148.511 454.621 148.369 455.283 148.369C455.945 148.369 456.516 148.511 456.996 148.795C457.479 149.077 457.852 149.472 458.113 149.98C458.374 150.486 458.505 151.077 458.505 151.753C458.505 152.423 458.374 153.013 458.113 153.521C457.852 154.027 457.479 154.422 456.996 154.706C456.516 154.987 455.945 155.128 455.283 155.128ZM455.292 153.722C455.593 153.722 455.844 153.636 456.046 153.466C456.248 153.293 456.4 153.057 456.502 152.759C456.607 152.46 456.66 152.121 456.66 151.74C456.66 151.359 456.607 151.02 456.502 150.722C456.4 150.423 456.248 150.187 456.046 150.014C455.844 149.841 455.593 149.754 455.292 149.754C454.988 149.754 454.732 149.841 454.525 150.014C454.32 150.187 454.165 150.423 454.06 150.722C453.958 151.02 453.907 151.359 453.907 151.74C453.907 152.121 453.958 152.46 454.06 152.759C454.165 153.057 454.32 153.293 454.525 153.466C454.732 153.636 454.988 153.722 455.292 153.722ZM463.883 152.213V148.455H465.698V155H463.955V153.811H463.887C463.739 154.195 463.494 154.503 463.15 154.736C462.809 154.969 462.393 155.085 461.901 155.085C461.464 155.085 461.079 154.986 460.746 154.787C460.414 154.588 460.154 154.305 459.967 153.939C459.782 153.572 459.688 153.134 459.685 152.622V148.455H461.501V152.298C461.504 152.685 461.607 152.99 461.812 153.214C462.016 153.439 462.29 153.551 462.634 153.551C462.853 153.551 463.058 153.501 463.248 153.402C463.438 153.3 463.592 153.149 463.708 152.95C463.827 152.751 463.886 152.506 463.883 152.213ZM469.562 155.107C469.065 155.107 468.615 154.979 468.211 154.723C467.811 154.464 467.493 154.085 467.257 153.585C467.024 153.082 466.907 152.466 466.907 151.736C466.907 150.986 467.028 150.362 467.27 149.865C467.511 149.365 467.832 148.991 468.233 148.744C468.636 148.494 469.078 148.369 469.558 148.369C469.924 148.369 470.23 148.432 470.474 148.557C470.721 148.679 470.92 148.832 471.071 149.017C471.224 149.199 471.341 149.378 471.42 149.554H471.475V146.273H473.287V155H471.497V153.952H471.42C471.335 154.134 471.214 154.314 471.058 154.493C470.904 154.669 470.704 154.815 470.457 154.932C470.213 155.048 469.914 155.107 469.562 155.107ZM470.137 153.662C470.43 153.662 470.677 153.582 470.879 153.423C471.083 153.261 471.24 153.036 471.348 152.746C471.458 152.456 471.514 152.116 471.514 151.727C471.514 151.338 471.46 151 471.352 150.713C471.244 150.426 471.088 150.205 470.883 150.048C470.679 149.892 470.43 149.814 470.137 149.814C469.839 149.814 469.588 149.895 469.383 150.057C469.179 150.219 469.024 150.443 468.919 150.73C468.814 151.017 468.761 151.349 468.761 151.727C468.761 152.108 468.814 152.445 468.919 152.737C469.027 153.027 469.181 153.254 469.383 153.419C469.588 153.581 469.839 153.662 470.137 153.662ZM478.299 148.455V149.818H474.259V148.455H478.299ZM475.184 155V147.982C475.184 147.507 475.276 147.114 475.461 146.801C475.648 146.489 475.904 146.254 476.228 146.098C476.552 145.942 476.92 145.864 477.332 145.864C477.61 145.864 477.864 145.885 478.094 145.928C478.327 145.97 478.501 146.009 478.614 146.043L478.29 147.406C478.219 147.384 478.131 147.362 478.026 147.342C477.924 147.322 477.819 147.312 477.711 147.312C477.444 147.312 477.258 147.375 477.153 147.5C477.048 147.622 476.995 147.794 476.995 148.016V155H475.184ZM481.223 146.273V155H479.408V146.273H481.223ZM484.544 155.124C484.126 155.124 483.754 155.051 483.428 154.906C483.101 154.759 482.842 154.541 482.652 154.254C482.464 153.964 482.371 153.604 482.371 153.172C482.371 152.808 482.438 152.503 482.571 152.256C482.705 152.009 482.886 151.81 483.116 151.659C483.347 151.509 483.608 151.395 483.901 151.318C484.196 151.241 484.506 151.188 484.83 151.156C485.21 151.116 485.517 151.08 485.75 151.045C485.983 151.009 486.152 150.955 486.257 150.884C486.362 150.812 486.415 150.707 486.415 150.568V150.543C486.415 150.273 486.33 150.064 486.159 149.916C485.991 149.768 485.753 149.695 485.443 149.695C485.116 149.695 484.857 149.767 484.663 149.912C484.47 150.054 484.342 150.233 484.28 150.449L482.601 150.312C482.686 149.915 482.854 149.571 483.104 149.281C483.354 148.989 483.676 148.764 484.071 148.608C484.469 148.449 484.929 148.369 485.452 148.369C485.815 148.369 486.163 148.412 486.496 148.497C486.831 148.582 487.128 148.714 487.386 148.893C487.648 149.072 487.854 149.303 488.004 149.584C488.155 149.862 488.23 150.196 488.23 150.585V155H486.509V154.092H486.457C486.352 154.297 486.212 154.477 486.036 154.634C485.859 154.787 485.648 154.908 485.401 154.996C485.153 155.081 484.868 155.124 484.544 155.124ZM485.064 153.871C485.331 153.871 485.567 153.818 485.771 153.713C485.976 153.605 486.136 153.46 486.253 153.278C486.369 153.097 486.428 152.891 486.428 152.661V151.966C486.371 152.003 486.293 152.037 486.193 152.068C486.097 152.097 485.987 152.124 485.865 152.149C485.743 152.172 485.621 152.193 485.499 152.213C485.376 152.23 485.266 152.246 485.166 152.26C484.953 152.291 484.767 152.341 484.608 152.409C484.449 152.477 484.325 152.57 484.237 152.686C484.149 152.8 484.105 152.942 484.105 153.112C484.105 153.359 484.195 153.548 484.374 153.679C484.555 153.807 484.786 153.871 485.064 153.871ZM489.638 155V148.455H491.398V149.597H491.467C491.586 149.19 491.786 148.884 492.067 148.676C492.349 148.466 492.673 148.361 493.039 148.361C493.13 148.361 493.228 148.366 493.333 148.378C493.438 148.389 493.531 148.405 493.61 148.425V150.036C493.525 150.01 493.407 149.987 493.256 149.967C493.106 149.947 492.968 149.938 492.843 149.938C492.576 149.938 492.337 149.996 492.127 150.112C491.92 150.226 491.755 150.385 491.633 150.589C491.513 150.794 491.454 151.03 491.454 151.297V155H489.638ZM497.227 155.128C496.554 155.128 495.974 154.991 495.488 154.719C495.005 154.443 494.633 154.054 494.372 153.551C494.11 153.045 493.98 152.447 493.98 151.757C493.98 151.084 494.11 150.493 494.372 149.984C494.633 149.476 495.001 149.08 495.475 148.795C495.953 148.511 496.512 148.369 497.154 148.369C497.586 148.369 497.988 148.439 498.36 148.578C498.735 148.714 499.062 148.92 499.341 149.196C499.622 149.472 499.841 149.818 499.997 150.236C500.153 150.651 500.231 151.136 500.231 151.693V152.192H494.704V151.067H498.522C498.522 150.805 498.466 150.574 498.352 150.372C498.238 150.17 498.081 150.013 497.879 149.899C497.68 149.783 497.449 149.724 497.184 149.724C496.909 149.724 496.664 149.788 496.451 149.916C496.241 150.041 496.076 150.21 495.957 150.423C495.838 150.634 495.777 150.868 495.774 151.126V152.196C495.774 152.52 495.833 152.8 495.953 153.036C496.075 153.271 496.247 153.453 496.468 153.581C496.69 153.709 496.953 153.773 497.257 153.773C497.458 153.773 497.643 153.744 497.811 153.688C497.978 153.631 498.122 153.545 498.241 153.432C498.36 153.318 498.451 153.179 498.514 153.014L500.193 153.125C500.108 153.528 499.933 153.881 499.669 154.182C499.407 154.48 499.069 154.713 498.654 154.881C498.243 155.045 497.767 155.128 497.227 155.128Z" fill="#222222"/>
<path d="M483.17 107.594C483.61 106.085 483.443 104.702 482.709 103.676C482.039 102.733 480.908 102.188 479.546 102.125L453.756 101.79C453.588 101.79 453.442 101.706 453.358 101.58C453.274 101.454 453.253 101.287 453.295 101.119C453.379 100.868 453.63 100.679 453.903 100.658L479.923 100.323C483.003 100.176 486.355 97.6825 487.528 94.623L489.015 90.7464C489.078 90.5788 489.099 90.4111 489.057 90.2435C487.381 82.6578 480.614 77 472.528 77C465.069 77 458.742 81.8196 456.48 88.5042C455.013 87.4146 453.149 86.8278 451.137 87.0164C447.555 87.3727 444.685 90.2435 444.328 93.8268C444.245 94.7488 444.308 95.6498 444.517 96.488C438.672 96.6557 434 101.433 434 107.322C434 107.846 434.042 108.369 434.105 108.893C434.147 109.145 434.356 109.333 434.608 109.333H482.207C482.479 109.333 482.73 109.145 482.814 108.872L483.17 107.594Z" fill="#F38020"/>
<path d="M491.383 91.0186C491.152 91.0186 490.901 91.0186 490.67 91.0395C490.503 91.0395 490.356 91.1652 490.293 91.3329L489.288 94.8323C488.848 96.3411 489.015 97.7241 489.749 98.7509C490.419 99.6939 491.55 100.239 492.912 100.302L498.401 100.637C498.569 100.637 498.715 100.721 498.799 100.846C498.883 100.972 498.904 101.161 498.862 101.307C498.778 101.559 498.527 101.747 498.254 101.768L492.535 102.104C489.434 102.25 486.103 104.744 484.93 107.803L484.511 108.872C484.427 109.082 484.574 109.291 484.804 109.291H504.456C504.686 109.291 504.896 109.145 504.958 108.914C505.294 107.699 505.482 106.42 505.482 105.1C505.482 97.3469 499.155 91.0186 491.383 91.0186Z" fill="#FAAE40"/>
<path d="M272.741 64.2583H186.385V130.964H272.741V64.2583Z" fill="white"/>
<path d="M186.128 64V131.223H273V64H186.128ZM186.703 130.647V70.6408H272.424V130.647H186.703Z" fill="#3E74FF" stroke="#3E74FF"/>
<path d="M220.773 78.0557H192.074V102.876H220.773V78.0557Z" fill="#A8CBFF"/>
<path d="M266.277 78.0557H225.168V98.9981H266.277V78.0557Z" fill="#E0ECFF"/>
<path d="M225.168 93.3095L235.251 87.3998L247.08 89.9853L257.939 81.6748L266.277 85.3683" stroke="white" stroke-width="2" stroke-linecap="round" stroke-linejoin="bevel"/>
<path d="M220.772 106.66H192.073V108.729H220.772V106.66Z" fill="#E0ECFF"/>
<path d="M236.285 101.066H225.168V102.876H236.285V101.066Z" fill="#A8CBFF"/>
<path d="M251.281 101.066H239.905V102.876H251.281V101.066Z" fill="#A8CBFF"/>
<path d="M266.278 101.066H254.901V102.876H266.278V101.066Z" fill="#A8CBFF"/>
<path d="M220.772 111.056H192.073V113.124H220.772V111.056Z" fill="#E0ECFF"/>
<path d="M220.772 115.451H192.073V117.519H220.772V115.451Z" fill="#E0ECFF"/>
<path d="M220.772 119.847H192.073V121.915H220.772V119.847Z" fill="#E0ECFF"/>
<path d="M214.567 124.241H192.073V126.31H214.567V124.241Z" fill="#E0ECFF"/>
<path d="M235.749 117.745V125.274H228.881V117.745H235.749Z" fill="#A8CBFF"/>
<path d="M244.335 115.916V125.274H237.467V115.916H244.335Z" fill="#A8CBFF"/>
<path d="M261.507 106.625V125.272H254.639V106.625H261.507Z" fill="#A8CBFF"/>
<path d="M252.921 114.634V125.272H246.053V114.634H252.921Z" fill="#A8CBFF"/>
<path d="M224.286 125.07H268.456V125.449H224.286V125.07Z" fill="#A8CBFF"/>
<g clip-path="url(#clip0_55_805)">
<path d="M208.777 95.2617H204.985C202.787 95.2638 200.68 96.1375 199.125 97.6913C197.571 99.2451 196.696 101.352 196.693 103.55L197.476 104.333H216.277L217.061 103.55C217.058 101.353 216.184 99.2476 214.631 97.6941C213.078 96.1405 210.973 95.2659 208.777 95.2617Z" fill="white"/>
<path d="M206.896 94.1807C207.981 94.1807 209.041 93.8591 209.943 93.2566C210.845 92.654 211.548 91.7976 211.963 90.7956C212.378 89.7935 212.486 88.691 212.275 87.6272C212.063 86.5635 211.541 85.5864 210.774 84.8195C210.007 84.0526 209.03 83.5303 207.966 83.3187C206.902 83.1072 205.8 83.2158 204.798 83.6308C203.796 84.0458 202.939 84.7487 202.337 85.6505C201.734 86.5523 201.413 87.6125 201.413 88.697C201.413 90.1514 201.99 91.5462 203.019 92.5746C204.047 93.603 205.442 94.1807 206.896 94.1807Z" fill="white"/>
</g>
<rect x="186" y="64" width="86.3351" height="10.4893" fill="#3E74FF"/>
<path d="M190.953 70.6783C191.906 70.6783 192.678 69.9059 192.678 68.9529C192.678 68 191.906 67.2275 190.953 67.2275C190 67.2275 189.228 68 189.228 68.9529C189.228 69.9059 190 70.6783 190.953 70.6783Z" fill="white"/>
<path d="M196.533 70.6783C197.485 70.6783 198.258 69.9059 198.258 68.9529C198.258 68 197.485 67.2275 196.533 67.2275C195.58 67.2275 194.807 68 194.807 68.9529C194.807 69.9059 195.58 70.6783 196.533 70.6783Z" fill="white"/>
<path d="M202.113 70.6783C203.066 70.6783 203.839 69.9059 203.839 68.9529C203.839 68 203.066 67.2275 202.113 67.2275C201.161 67.2275 200.388 68 200.388 68.9529C200.388 69.9059 201.161 70.6783 202.113 70.6783Z" fill="white"/>
<defs>
<clipPath id="clip0_55_805">
<rect width="25.0682" height="25.0682" fill="white" transform="translate(194.342 78.4189)"/>
</clipPath>
</defs>
</svg>
