<svg xmlns="http://www.w3.org/2000/svg" width="1800" height="856" fill="none" viewBox="0 0 1800 856"><path fill="#fff" d="M0 0h1800v856H0z"/><path fill="#C5EBF5" stroke="#0E64DD" stroke-width="3" d="M103.5 113.5h466v83h-466z"/><path stroke="#0E64DD" stroke-width="3" d="M189 198v-86"/><path stroke="#002F71" stroke-width="3" d="M730 155H588m727 0h-142M779 460H588m170 101H588m770-101h-251m357 101h-336"/><path fill="#002F71" d="M1451.15 620.396h-4.48a4.4 4.4 0 0 0-.5-1.543 3.8 3.8 0 0 0-.97-1.165 4.2 4.2 0 0 0-1.37-.736 5.2 5.2 0 0 0-1.66-.256c-1.09 0-2.03.269-2.84.808-.8.531-1.42 1.308-1.87 2.33q-.66 1.523-.66 3.7 0 2.238.66 3.761.675 1.523 1.89 2.3 1.2.777 2.79.777c.59 0 1.14-.079 1.64-.235.51-.157.97-.385 1.36-.685.4-.307.72-.678.98-1.114.27-.436.45-.934.55-1.493l4.48.021a8.34 8.34 0 0 1-2.72 5.161q-1.155 1.043-2.76 1.656c-1.06.402-2.26.603-3.61.603-1.86 0-3.53-.422-5-1.267q-2.205-1.267-3.48-3.669c-.84-1.602-1.27-3.54-1.27-5.816q0-3.424 1.29-5.826c.86-1.601 2.02-2.821 3.5-3.659 1.47-.845 3.12-1.267 4.96-1.267 1.22 0 2.34.17 3.38.511a8.6 8.6 0 0 1 2.77 1.492c.8.647 1.45 1.441 1.96 2.381.51.941.84 2.017.98 3.23m7.45-7.328V634h-4.36v-20.932zm10.58 21.239c-1.59 0-2.96-.338-4.12-1.012a6.97 6.97 0 0 1-2.67-2.842c-.63-1.219-.94-2.633-.94-4.241 0-1.622.31-3.039.94-4.252q.945-1.83 2.67-2.841c1.16-.682 2.53-1.022 4.12-1.022q2.37 0 4.11 1.022a6.8 6.8 0 0 1 2.67 2.841c.63 1.213.94 2.63.94 4.252 0 1.608-.31 3.022-.94 4.241a6.9 6.9 0 0 1-2.67 2.842q-1.74 1.011-4.11 1.012m.02-3.373c.72 0 1.32-.205 1.81-.613.48-.416.84-.982 1.09-1.697s.38-1.53.38-2.443-.13-1.727-.38-2.443c-.25-.715-.61-1.281-1.09-1.696-.49-.416-1.09-.624-1.81-.624-.73 0-1.35.208-1.84.624-.49.415-.86.981-1.12 1.696q-.36 1.074-.36 2.443 0 1.37.36 2.443c.26.715.63 1.281 1.12 1.697.49.408 1.11.613 1.84.613m20.6-3.618v-9.015h4.36V634h-4.18v-2.852h-.17q-.525 1.38-1.77 2.218c-.81.559-1.81.838-2.99.838-1.05 0-1.97-.238-2.77-.715s-1.42-1.155-1.87-2.034c-.44-.879-.67-1.932-.68-3.158v-9.996h4.36v9.219c.01.927.25 1.659.74 2.198.5.538 1.15.807 1.98.807q.78 0 1.47-.358c.46-.245.82-.606 1.1-1.083q.435-.716.42-1.768m13.62 6.94q-1.785 0-3.24-.92c-.96-.62-1.72-1.53-2.29-2.729-.55-1.206-.83-2.685-.83-4.436q0-2.699.87-4.487.855-1.799 2.31-2.688a5.87 5.87 0 0 1 3.17-.899c.88 0 1.62.149 2.2.449.59.293 1.07.661 1.43 1.104q.555.654.84 1.288h.13v-7.87h4.35V634h-4.3v-2.514h-.18q-.3.654-.87 1.298-.555.633-1.44 1.052c-.59.28-1.3.42-2.15.42m1.38-3.465c.71 0 1.3-.191 1.78-.573.49-.388.87-.93 1.13-1.625s.4-1.509.4-2.443q0-1.4-.39-2.432c-.26-.688-.64-1.22-1.13-1.594s-1.08-.563-1.79-.563-1.31.195-1.81.583q-.735.582-1.11 1.615c-.25.688-.38 1.485-.38 2.391 0 .914.13 1.721.38 2.423q.39 1.043 1.11 1.635c.5.388 1.1.583 1.81.583m19.58-12.49v3.271h-9.69v-3.271zM1516.91 634v-16.834q0-1.706.66-2.831a4.26 4.26 0 0 1 1.84-1.686c.78-.375 1.66-.562 2.65-.562q1.005 0 1.83.153c.56.102.97.194 1.25.276l-.78 3.271a5 5 0 0 0-.64-.154 4 4 0 0 0-.75-.071c-.64 0-1.09.15-1.34.45-.25.293-.38.705-.38 1.236V634zm14.48-20.932V634h-4.35v-20.932zm7.97 21.228c-1 0-1.9-.173-2.68-.521a4.34 4.34 0 0 1-1.86-1.564c-.45-.695-.68-1.56-.68-2.596 0-.872.17-1.604.49-2.197a3.9 3.9 0 0 1 1.3-1.431 6.5 6.5 0 0 1 1.88-.818c.71-.184 1.46-.313 2.23-.388a54 54 0 0 0 2.21-.266c.56-.088.96-.218 1.22-.388.25-.171.37-.423.37-.757v-.061c0-.647-.2-1.148-.61-1.502-.4-.355-.97-.532-1.72-.532-.78 0-1.4.174-1.87.521-.46.341-.77.77-.92 1.288l-4.02-.327q.3-1.43 1.2-2.473c.6-.702 1.38-1.24 2.32-1.615.96-.382 2.06-.572 3.31-.572.88 0 1.71.102 2.51.306q1.2.307 2.13.951c.63.429 1.13.981 1.49 1.655q.54 1.002.54 2.402V634h-4.13v-2.177h-.12c-.26.491-.59.923-1.02 1.298-.42.368-.93.658-1.52.869-.59.204-1.28.306-2.05.306m1.24-3.004c.64 0 1.21-.127 1.7-.379a3.03 3.03 0 0 0 1.16-1.042q.42-.654.42-1.482v-1.666q-.21.132-.57.245-.345.102-.78.194c-.3.055-.59.106-.88.154l-.8.112a5.4 5.4 0 0 0-1.34.358c-.38.163-.68.385-.89.664-.21.273-.32.613-.32 1.022 0 .593.22 1.046.65 1.36.43.306.99.46 1.65.46m10.98 2.708v-15.699h4.22v2.739h.16q.435-1.461 1.44-2.208a3.8 3.8 0 0 1 2.33-.756c.22 0 .46.014.71.041q.375.041.66.112v3.864c-.2-.061-.49-.116-.85-.164a8 8 0 0 0-.99-.071q-.96 0-1.71.419c-.5.272-.9.654-1.19 1.145-.29.49-.43 1.056-.43 1.696V634zm18.2.307q-2.43 0-4.17-.982c-1.16-.661-2.05-1.594-2.68-2.8-.63-1.213-.94-2.647-.94-4.303 0-1.615.31-3.032.94-4.252s1.51-2.17 2.65-2.851q1.71-1.023 4.02-1.022c1.04 0 2 .166 2.9.5.9.327 1.68.821 2.35 1.482s1.2 1.493 1.57 2.494c.38.995.56 2.16.56 3.496v1.196h-13.25v-2.699h9.15c0-.627-.13-1.182-.4-1.666a3 3 0 0 0-1.14-1.134c-.48-.28-1.03-.419-1.67-.419-.66 0-1.24.153-1.75.46-.51.299-.9.705-1.19 1.216-.29.504-.43 1.066-.44 1.686v2.566c0 .777.14 1.448.43 2.013.29.566.71 1.002 1.24 1.308q.795.46 1.89.46c.48 0 .93-.068 1.33-.204s.74-.341 1.03-.613c.29-.273.5-.607.65-1.002l4.03.266q-.3 1.45-1.26 2.535-.93 1.073-2.43 1.676-1.485.593-3.42.593m24.21-.307h-7.42v-20.932h7.48c2.1 0 3.92.419 5.44 1.257 1.52.831 2.68 2.027 3.5 3.588.83 1.56 1.24 3.427 1.24 5.601 0 2.18-.41 4.054-1.24 5.621-.82 1.567-1.99 2.77-3.52 3.608s-3.36 1.257-5.48 1.257m-3-3.792h2.81q1.965 0 3.3-.695c.9-.47 1.58-1.196 2.03-2.177.45-.988.68-2.262.68-3.822 0-1.547-.23-2.811-.68-3.792-.45-.982-1.12-1.704-2.02-2.167q-1.335-.695-3.3-.695h-2.82zm23.94 3.792h-7.42v-20.932h7.48c2.1 0 3.92.419 5.44 1.257 1.52.831 2.68 2.027 3.5 3.588.83 1.56 1.24 3.427 1.24 5.601 0 2.18-.41 4.054-1.24 5.621-.82 1.567-1.99 2.77-3.52 3.608s-3.36 1.257-5.48 1.257m-3-3.792h2.81q1.965 0 3.3-.695c.9-.47 1.58-1.196 2.03-2.177.45-.988.68-2.262.68-3.822 0-1.547-.23-2.811-.68-3.792-.45-.982-1.12-1.704-2.02-2.167q-1.335-.695-3.3-.695h-2.82zm23.53 4.099c-1.59 0-2.96-.338-4.12-1.012a6.97 6.97 0 0 1-2.67-2.842c-.63-1.219-.94-2.633-.94-4.241 0-1.622.31-3.039.94-4.252q.945-1.83 2.67-2.841c1.16-.682 2.53-1.022 4.12-1.022q2.385 0 4.11 1.022a6.8 6.8 0 0 1 2.67 2.841c.63 1.213.94 2.63.94 4.252 0 1.608-.31 3.022-.94 4.241a6.9 6.9 0 0 1-2.67 2.842q-1.725 1.011-4.11 1.012m.02-3.373c.72 0 1.32-.205 1.81-.613.48-.416.85-.982 1.09-1.697.25-.716.38-1.53.38-2.443s-.13-1.727-.38-2.443c-.24-.715-.61-1.281-1.09-1.696-.49-.416-1.09-.624-1.81-.624-.73 0-1.34.208-1.84.624-.49.415-.86.981-1.12 1.696q-.36 1.074-.36 2.443 0 1.37.36 2.443c.26.715.63 1.281 1.12 1.697.5.408 1.11.613 1.84.613m21.97-11.846q-.12-1.237-1.05-1.922t-2.52-.684q-1.095 0-1.83.306c-.5.198-.88.474-1.15.828q-.39.532-.39 1.206-.015.563.24.981.27.42.72.726c.31.198.66.371 1.07.521.4.143.83.266 1.28.368l1.89.45c.91.204 1.75.477 2.51.818q1.14.51 1.98 1.257a5.25 5.25 0 0 1 1.3 1.758q.465 1.011.48 2.32c-.01 1.281-.33 2.392-.98 3.332-.64.933-1.57 1.659-2.78 2.177-1.21.511-2.66.766-4.36.766-1.69 0-3.17-.259-4.42-.776-1.25-.518-2.22-1.285-2.92-2.3-.7-1.022-1.06-2.286-1.1-3.792h4.29q.06 1.053.6 1.758.54.694 1.44 1.053c.61.231 1.29.347 2.05.347.75 0 1.4-.109 1.96-.327.55-.218.99-.521 1.29-.909.31-.389.46-.835.46-1.339 0-.471-.14-.866-.41-1.186-.28-.32-.68-.593-1.21-.818s-1.17-.429-1.93-.613l-2.28-.572c-1.77-.429-3.16-1.101-4.18-2.014q-1.53-1.37-1.53-3.689 0-1.902 1.02-3.322c.69-.947 1.63-1.687 2.83-2.218s2.56-.797 4.09-.797c1.55 0 2.91.266 4.06.797 1.17.531 2.08 1.271 2.72 2.218.65.947.98 2.044 1 3.291zM1475.31 669v-20.932h8.25c1.59 0 2.94.303 4.06.91 1.12.599 1.97 1.434 2.56 2.504.59 1.063.89 2.289.89 3.679q0 2.085-.9 3.68-.9 1.594-2.61 2.483-1.695.89-4.11.889h-5.26v-3.546h4.55q1.275 0 2.1-.44c.56-.299.98-.712 1.25-1.236q.42-.798.42-1.83 0-1.042-.42-1.819c-.27-.525-.69-.93-1.25-1.216-.56-.293-1.27-.44-2.12-.44h-2.99V669zm18.55 0v-15.699h4.22v2.739h.16q.435-1.461 1.44-2.208a3.82 3.82 0 0 1 2.33-.756c.22 0 .46.014.71.041q.375.041.66.112v3.864q-.3-.092-.84-.164c-.37-.047-.7-.071-1-.071q-.96 0-1.71.419c-.5.272-.9.654-1.19 1.145-.28.49-.43 1.056-.43 1.696V669zm18.14.307c-1.59 0-2.96-.338-4.12-1.012a6.97 6.97 0 0 1-2.67-2.842c-.63-1.219-.94-2.633-.94-4.241 0-1.622.31-3.039.94-4.252q.945-1.83 2.67-2.841c1.16-.682 2.53-1.022 4.12-1.022q2.385 0 4.11 1.022a6.8 6.8 0 0 1 2.67 2.841c.63 1.213.94 2.63.94 4.252 0 1.608-.31 3.022-.94 4.241a6.9 6.9 0 0 1-2.67 2.842q-1.725 1.011-4.11 1.012m.02-3.373c.72 0 1.32-.205 1.81-.613.48-.416.85-.982 1.09-1.697.25-.716.38-1.53.38-2.443s-.13-1.727-.38-2.443c-.24-.715-.61-1.281-1.09-1.696-.49-.416-1.09-.624-1.81-.624-.73 0-1.34.208-1.84.624-.49.415-.86.981-1.12 1.696q-.36 1.074-.36 2.443 0 1.37.36 2.443c.26.715.63 1.281 1.12 1.697.5.408 1.11.613 1.84.613m18.89-12.633v3.271h-9.46v-3.271zm-7.31-3.761h4.35v14.636c0 .402.06.715.19.94q.18.327.51.46c.22.089.48.133.77.133.21 0 .41-.017.62-.051.2-.041.36-.072.47-.092l.68 3.24c-.22.068-.52.146-.92.235q-.585.143-1.44.174-1.575.061-2.76-.419-1.17-.481-1.83-1.493c-.43-.674-.65-1.526-.64-2.555zm17.13 19.767q-2.43 0-4.17-.982c-1.16-.661-2.05-1.594-2.68-2.8-.63-1.213-.94-2.647-.94-4.303 0-1.615.31-3.032.94-4.252s1.51-2.17 2.65-2.851q1.71-1.023 4.02-1.022c1.04 0 2 .166 2.9.5.9.327 1.68.821 2.35 1.482s1.2 1.493 1.57 2.494c.38.995.56 2.16.56 3.496v1.196h-13.25v-2.699h9.16c0-.627-.14-1.182-.41-1.666a2.95 2.95 0 0 0-1.14-1.134c-.47-.28-1.03-.419-1.66-.419-.66 0-1.25.153-1.76.46-.51.299-.9.705-1.19 1.216a3.54 3.54 0 0 0-.44 1.686v2.566c0 .777.15 1.448.43 2.013.3.566.71 1.002 1.24 1.308q.795.46 1.89.46c.48 0 .93-.068 1.33-.204s.74-.341 1.03-.613c.29-.273.51-.607.65-1.002l4.03.266q-.3 1.45-1.26 2.535-.93 1.073-2.43 1.676-1.485.593-3.42.593m17.14 0c-1.61 0-2.99-.341-4.15-1.022a6.93 6.93 0 0 1-2.66-2.862c-.61-1.22-.92-2.624-.92-4.211q0-2.412.93-4.232.945-1.829 2.67-2.851 1.725-1.032 4.11-1.032 2.055 0 3.6.746c1.02.497 1.84 1.195 2.44 2.095q.9 1.348.99 3.168h-4.11c-.11-.783-.42-1.414-.92-1.89-.49-.484-1.13-.726-1.93-.726-.68 0-1.26.184-1.77.552-.5.361-.88.889-1.16 1.584q-.42 1.042-.42 2.524c0 1.002.13 1.854.41 2.556q.42 1.052 1.17 1.604c.51.368 1.09.552 1.77.552.5 0 .94-.102 1.34-.306q.6-.307.99-.89c.27-.395.44-.868.52-1.42h4.11c-.07 1.199-.4 2.255-.98 3.168q-.87 1.36-2.4 2.126c-1.03.511-2.23.767-3.63.767m18.15-16.006v3.271h-9.46v-3.271zm-7.31-3.761h4.35v14.636c0 .402.07.715.19.94q.18.327.51.46t.78.133c.2 0 .4-.017.61-.051.2-.041.36-.072.47-.092l.68 3.24c-.21.068-.52.146-.92.235q-.585.143-1.44.174-1.575.061-2.76-.419-1.17-.481-1.83-1.493c-.43-.674-.65-1.526-.64-2.555zm10.14 19.46v-15.699h4.36V669zm2.19-17.723c-.65 0-1.2-.214-1.66-.644q-.69-.654-.69-1.563 0-.9.69-1.544a2.32 2.32 0 0 1 1.66-.654c.65 0 1.2.218 1.66.654q.69.644.69 1.544 0 .909-.69 1.563c-.46.43-1.01.644-1.66.644m12.75 18.03c-1.59 0-2.96-.338-4.12-1.012a6.97 6.97 0 0 1-2.67-2.842c-.62-1.219-.94-2.633-.94-4.241 0-1.622.32-3.039.94-4.252q.945-1.83 2.67-2.841c1.16-.682 2.53-1.022 4.12-1.022q2.385 0 4.11 1.022c1.16.674 2.05 1.621 2.68 2.841.62 1.213.94 2.63.94 4.252 0 1.608-.32 3.022-.94 4.241a6.9 6.9 0 0 1-2.68 2.842q-1.725 1.011-4.11 1.012m.02-3.373c.72 0 1.32-.205 1.81-.613.48-.416.85-.982 1.09-1.697.25-.716.38-1.53.38-2.443s-.13-1.727-.38-2.443c-.24-.715-.61-1.281-1.09-1.696-.49-.416-1.09-.624-1.81-.624-.73 0-1.34.208-1.84.624q-.735.623-1.11 1.696c-.25.716-.37 1.53-.37 2.443s.12 1.727.37 2.443q.375 1.073 1.11 1.697c.5.408 1.11.613 1.84.613m14.89-6.01V669h-4.35v-15.699h4.15v2.77h.18c.35-.913.93-1.636 1.75-2.167q1.23-.807 2.97-.807 1.635 0 2.85.715c.82.477 1.45 1.158 1.9 2.044.44.879.67 1.928.67 3.148V669h-4.35v-9.219c0-.961-.24-1.71-.74-2.249-.5-.545-1.18-.817-2.05-.817q-.885 0-1.56.378c-.44.252-.79.62-1.04 1.104-.25.477-.37 1.052-.38 1.727M771.016 141.396h-4.476a4.4 4.4 0 0 0-.501-1.543 3.9 3.9 0 0 0-.971-1.165 4.3 4.3 0 0 0-1.37-.736 5.2 5.2 0 0 0-1.666-.256q-1.625 0-2.831.808-1.206.797-1.87 2.33-.665 1.523-.665 3.7 0 2.238.665 3.761.674 1.523 1.88 2.3t2.791.777q.888 0 1.645-.235a4.3 4.3 0 0 0 1.359-.685q.594-.46.982-1.114.398-.654.552-1.493l4.476.021a8.1 8.1 0 0 1-.868 2.78 8.4 8.4 0 0 1-1.85 2.381q-1.155 1.043-2.76 1.656-1.595.603-3.608.603-2.8 0-5.008-1.267-2.197-1.268-3.475-3.669-1.268-2.403-1.268-5.816 0-3.424 1.288-5.826t3.496-3.659q2.207-1.267 4.967-1.267 1.82 0 3.373.511a8.6 8.6 0 0 1 2.77 1.492 7.7 7.7 0 0 1 1.962 2.381q.766 1.411.981 3.23m7.446-7.328V155h-4.354v-20.932zm10.581 21.239q-2.382 0-4.119-1.012a6.93 6.93 0 0 1-2.667-2.842q-.94-1.829-.941-4.241 0-2.433.941-4.252.94-1.83 2.667-2.841 1.737-1.022 4.119-1.022t4.109 1.022a6.8 6.8 0 0 1 2.678 2.841q.94 1.82.94 4.252 0 2.412-.94 4.241a6.9 6.9 0 0 1-2.678 2.842q-1.728 1.011-4.109 1.012m.021-3.373q1.083 0 1.809-.613.725-.624 1.093-1.697.378-1.074.378-2.443 0-1.37-.378-2.443-.368-1.073-1.093-1.696-.726-.624-1.809-.624-1.095 0-1.84.624-.736.623-1.114 1.696-.369 1.074-.368 2.443 0 1.37.368 2.443.378 1.073 1.114 1.697.745.613 1.84.613m20.604-3.618v-9.015h4.355V155h-4.181v-2.852h-.163a4.64 4.64 0 0 1-1.768 2.218q-1.227.838-2.995.838-1.574 0-2.77-.715t-1.87-2.034q-.665-1.319-.675-3.158v-9.996h4.354v9.219q.01 1.39.746 2.198.736.807 1.973.807a3.1 3.1 0 0 0 1.472-.358 2.8 2.8 0 0 0 1.103-1.083q.43-.716.419-1.768m13.622 6.94q-1.788 0-3.24-.92-1.442-.93-2.289-2.729-.838-1.81-.838-4.436 0-2.699.868-4.487.87-1.799 2.31-2.688a5.9 5.9 0 0 1 3.179-.899q1.318 0 2.197.449.89.44 1.431 1.104.553.654.838 1.288h.133v-7.87h4.344V155h-4.293v-2.514h-.184a5.6 5.6 0 0 1-.868 1.298q-.553.633-1.441 1.052-.88.42-2.147.42m1.38-3.465q1.053 0 1.778-.573.737-.582 1.125-1.625.398-1.042.398-2.443 0-1.4-.388-2.432-.389-1.032-1.124-1.594t-1.789-.563q-1.072 0-1.809.583-.736.582-1.114 1.615t-.378 2.391q0 1.37.378 2.423.388 1.043 1.114 1.635.737.583 1.809.583m19.575-12.49v3.271h-9.689v-3.271zM836.774 155v-16.834q0-1.706.664-2.831a4.27 4.27 0 0 1 1.84-1.686q1.165-.562 2.647-.562a10 10 0 0 1 1.83.153q.837.153 1.247.276l-.777 3.271a5 5 0 0 0-.634-.154 4 4 0 0 0-.756-.071q-.961 0-1.339.45-.378.44-.378 1.236V155zm14.485-20.932V155h-4.354v-20.932zm7.965 21.228q-1.503 0-2.678-.521a4.3 4.3 0 0 1-1.86-1.564q-.675-1.042-.675-2.596 0-1.308.481-2.197.48-.89 1.308-1.431a6.4 6.4 0 0 1 1.88-.818 14.4 14.4 0 0 1 2.228-.388 55 55 0 0 0 2.208-.266q.838-.132 1.216-.388.38-.256.379-.757v-.061q0-.97-.614-1.502-.603-.532-1.717-.532-1.175 0-1.87.521-.695.511-.92 1.288l-4.027-.327q.306-1.43 1.206-2.473.9-1.053 2.32-1.615 1.431-.572 3.312-.572 1.308 0 2.504.306a6.6 6.6 0 0 1 2.136.951 4.6 4.6 0 0 1 1.482 1.655q.542 1.002.542 2.402V155h-4.13v-2.177h-.122q-.379.736-1.012 1.298-.634.552-1.523.869-.89.306-2.054.306m1.247-3.004q.96 0 1.696-.379a3 3 0 0 0 1.155-1.042q.42-.654.419-1.482v-1.666q-.204.132-.562.245a10 10 0 0 1-.787.194 39 39 0 0 1-.879.154l-.797.112a5.4 5.4 0 0 0-1.339.358q-.573.245-.889.664-.317.409-.317 1.022 0 .89.644 1.36.654.46 1.656.46M871.443 155v-15.699h4.221v2.739h.163q.43-1.461 1.441-2.208 1.012-.756 2.331-.756.327 0 .705.041t.664.112v3.864a6 6 0 0 0-.848-.164 8 8 0 0 0-.991-.071q-.961 0-1.718.419a3.1 3.1 0 0 0-1.185 1.145q-.429.736-.429 1.696V155zm18.2.307q-2.423 0-4.17-.982a6.7 6.7 0 0 1-2.678-2.8q-.94-1.82-.94-4.303 0-2.422.94-4.252.941-1.829 2.647-2.851 1.717-1.022 4.027-1.022 1.554 0 2.893.5a6.4 6.4 0 0 1 2.351 1.482q1.011.992 1.574 2.494.562 1.492.562 3.496v1.196h-13.257v-2.699h9.158q0-.94-.409-1.666a2.9 2.9 0 0 0-1.134-1.134q-.715-.42-1.666-.419-.991 0-1.758.46a3.2 3.2 0 0 0-1.186 1.216 3.44 3.44 0 0 0-.439 1.686v2.566q0 1.165.429 2.013a3.13 3.13 0 0 0 1.237 1.308q.797.46 1.891.46.725 0 1.328-.204a2.8 2.8 0 0 0 1.033-.613q.429-.41.654-1.002l4.027.266a5.5 5.5 0 0 1-1.257 2.535q-.94 1.073-2.433 1.676-1.482.593-3.424.593m24.21-.307h-7.42v-20.932h7.482q3.158 0 5.437 1.257 2.28 1.246 3.506 3.588 1.236 2.34 1.237 5.601 0 3.27-1.237 5.621-1.227 2.35-3.526 3.608-2.29 1.257-5.479 1.257m-2.994-3.792h2.811q1.962 0 3.301-.695 1.349-.705 2.024-2.177.684-1.482.684-3.822 0-2.32-.684-3.792-.675-1.473-2.014-2.167-1.34-.695-3.301-.695h-2.821zM934.793 155h-7.42v-20.932h7.482q3.157 0 5.437 1.257 2.279 1.246 3.506 3.588 1.236 2.34 1.236 5.601 0 3.27-1.236 5.621-1.227 2.35-3.526 3.608-2.29 1.257-5.479 1.257m-2.994-3.792h2.81q1.962 0 3.302-.695 1.349-.705 2.023-2.177.685-1.482.685-3.822 0-2.32-.685-3.792-.674-1.473-2.013-2.167-1.339-.695-3.302-.695h-2.82zm23.525 4.099q-2.382 0-4.119-1.012a6.93 6.93 0 0 1-2.667-2.842q-.94-1.829-.941-4.241 0-2.433.941-4.252.94-1.83 2.667-2.841 1.737-1.022 4.119-1.022t4.109 1.022a6.8 6.8 0 0 1 2.678 2.841q.94 1.82.94 4.252 0 2.412-.94 4.241a6.9 6.9 0 0 1-2.678 2.842q-1.728 1.011-4.109 1.012m.021-3.373q1.083 0 1.809-.613.725-.624 1.093-1.697.378-1.074.378-2.443 0-1.37-.378-2.443-.368-1.073-1.093-1.696-.726-.624-1.809-.624-1.095 0-1.84.624-.736.623-1.114 1.696-.369 1.074-.368 2.443 0 1.37.368 2.443.378 1.073 1.114 1.697.745.613 1.84.613m21.974-11.846q-.123-1.237-1.053-1.922t-2.524-.684q-1.083 0-1.83.306-.746.297-1.144.828a2 2 0 0 0-.389 1.206q-.02.563.235.981.265.42.726.726.46.297 1.063.521.603.215 1.288.368l1.88.45q1.37.306 2.515.818 1.145.51 1.982 1.257a5.2 5.2 0 0 1 1.299 1.758q.47 1.012.48 2.32-.01 1.922-.981 3.332-.961 1.4-2.78 2.177-1.809.766-4.365.766-2.534 0-4.415-.776-1.87-.777-2.923-2.3-1.043-1.533-1.094-3.792h4.283q.071 1.053.603 1.758.541.694 1.441 1.053.91.347 2.054.347 1.125 0 1.952-.327.838-.327 1.299-.909.459-.583.459-1.339 0-.706-.419-1.186-.408-.48-1.206-.818a12.3 12.3 0 0 0-1.931-.613l-2.28-.572q-2.646-.644-4.18-2.014t-1.523-3.689q-.01-1.902 1.012-3.322 1.032-1.421 2.831-2.218t4.089-.797q2.33 0 4.067.797 1.749.797 2.719 2.218t1.002 3.291zm14.084 20.799v-21.586h4.293v2.637h.194q.287-.634.828-1.288.552-.665 1.431-1.104.889-.45 2.211-.449c1.14 0 2.2.299 3.17.899.96.593 1.74 1.489 2.32 2.688.57 1.192.86 2.688.86 4.487q0 2.627-.84 4.436c-.56 1.199-1.33 2.109-2.29 2.729-.96.613-2.04.92-3.23.92q-1.272 0-2.16-.42-.88-.419-1.441-1.052a5.4 5.4 0 0 1-.859-1.298h-.133v8.401zm4.262-13.737q0 1.4.389 2.443.388 1.043 1.124 1.625.736.573 1.789.573c.708 0 1.303-.195 1.803-.583q.735-.593 1.11-1.635.39-1.052.39-2.423c0-.906-.13-1.703-.38-2.391q-.375-1.032-1.11-1.615c-.49-.388-1.098-.583-1.813-.583q-1.064 0-1.799.563-.726.562-1.114 1.594t-.389 2.432m13.955 7.85v-15.699h4.22v2.739h.16q.435-1.461 1.44-2.208a3.8 3.8 0 0 1 2.33-.756c.22 0 .46.014.71.041q.375.041.66.112v3.864a5.5 5.5 0 0 0-.85-.164 8 8 0 0 0-.99-.071q-.96 0-1.71.419c-.5.272-.9.654-1.19 1.145-.29.49-.43 1.056-.43 1.696V155zm18.14.307c-1.59 0-2.96-.338-4.12-1.012a6.97 6.97 0 0 1-2.67-2.842c-.63-1.219-.94-2.633-.94-4.241 0-1.622.31-3.039.94-4.252q.945-1.83 2.67-2.841c1.16-.682 2.53-1.022 4.12-1.022 1.58 0 2.95.34 4.1 1.022a6.77 6.77 0 0 1 2.68 2.841c.63 1.213.94 2.63.94 4.252 0 1.608-.31 3.022-.94 4.241a6.86 6.86 0 0 1-2.68 2.842c-1.15.674-2.52 1.012-4.1 1.012m.02-3.373c.72 0 1.32-.205 1.81-.613.48-.416.84-.982 1.09-1.697s.38-1.53.38-2.443-.13-1.727-.38-2.443c-.25-.715-.61-1.281-1.09-1.696-.49-.416-1.09-.624-1.81-.624-.73 0-1.35.208-1.84.624-.49.415-.87.981-1.12 1.696-.24.716-.37 1.53-.37 2.443s.13 1.727.37 2.443c.25.715.63 1.281 1.12 1.697.49.408 1.11.613 1.84.613m18.88-12.633v3.271h-9.45v-3.271zm-7.3-3.761h4.35v14.636q0 .603.18.94c.13.218.3.371.52.46s.48.133.77.133c.21 0 .41-.017.62-.051.2-.041.36-.072.47-.092l.68 3.24c-.22.068-.52.146-.92.235-.39.095-.88.153-1.44.174q-1.575.061-2.76-.419-1.17-.481-1.83-1.493c-.44-.674-.65-1.526-.64-2.555zm17.13 19.767q-2.43 0-4.17-.982c-1.16-.661-2.05-1.594-2.68-2.8-.63-1.213-.94-2.647-.94-4.303 0-1.615.31-3.032.94-4.252s1.51-2.17 2.65-2.851q1.71-1.022 4.02-1.022c1.04 0 2 .166 2.9.5a6.5 6.5 0 0 1 2.35 1.482c.67.661 1.2 1.493 1.57 2.494.37.995.56 2.16.56 3.496v1.196h-13.25v-2.699h9.15c0-.627-.13-1.182-.41-1.666a2.93 2.93 0 0 0-1.13-1.134c-.48-.28-1.03-.419-1.67-.419-.66 0-1.24.153-1.75.46-.51.299-.9.705-1.19 1.216-.29.504-.43 1.066-.44 1.686v2.566c0 .777.14 1.448.43 2.013.29.566.71 1.002 1.24 1.308q.795.46 1.89.46c.48 0 .92-.068 1.33-.204.4-.136.74-.341 1.03-.613.29-.273.5-.607.65-1.002l4.03.266q-.3 1.45-1.26 2.535-.93 1.073-2.43 1.676-1.485.593-3.42.593m17.14 0c-1.61 0-2.99-.341-4.15-1.022a6.93 6.93 0 0 1-2.66-2.862c-.61-1.22-.92-2.624-.92-4.211q0-2.412.93-4.232.945-1.829 2.67-2.851 1.725-1.032 4.11-1.032c1.37 0 2.56.248 3.59.746 1.03.497 1.85 1.195 2.45 2.095q.9 1.349.99 3.168h-4.11c-.12-.783-.42-1.414-.92-1.89-.49-.484-1.14-.726-1.93-.726q-1.02 0-1.77.552-.75.541-1.17 1.584c-.28.695-.41 1.536-.41 2.524 0 1.002.13 1.854.4 2.556.28.701.68 1.236 1.18 1.604q.75.552 1.77.552c.49 0 .94-.102 1.34-.306q.6-.307.99-.89c.26-.395.44-.868.52-1.42h4.11c-.07 1.199-.4 2.255-.98 3.168-.58.906-1.38 1.615-2.41 2.126-1.02.511-2.23.767-3.62.767m18.15-16.006v3.271h-9.46v-3.271zm-7.31-3.761h4.35v14.636c0 .402.06.715.19.94q.18.327.51.46c.22.089.48.133.77.133.21 0 .41-.017.62-.051.2-.041.36-.072.47-.092l.68 3.24c-.22.068-.52.146-.92.235q-.585.142-1.44.174-1.575.061-2.76-.419-1.17-.481-1.83-1.493c-.43-.674-.65-1.526-.64-2.555zm10.14 19.46v-15.699h4.36V155zm2.19-17.723c-.65 0-1.2-.214-1.67-.644-.45-.436-.68-.957-.68-1.563 0-.6.23-1.114.68-1.544a2.36 2.36 0 0 1 1.67-.654c.65 0 1.2.218 1.66.654q.69.644.69 1.544 0 .909-.69 1.563c-.46.43-1.01.644-1.66.644m12.75 18.03c-1.59 0-2.96-.338-4.12-1.012a6.97 6.97 0 0 1-2.67-2.842c-.63-1.219-.94-2.633-.94-4.241 0-1.622.31-3.039.94-4.252q.945-1.83 2.67-2.841c1.16-.682 2.53-1.022 4.12-1.022q2.37 0 4.11 1.022a6.8 6.8 0 0 1 2.67 2.841c.63 1.213.94 2.63.94 4.252 0 1.608-.31 3.022-.94 4.241a6.9 6.9 0 0 1-2.67 2.842q-1.74 1.011-4.11 1.012m.02-3.373c.72 0 1.32-.205 1.81-.613.48-.416.85-.982 1.09-1.697.25-.716.38-1.53.38-2.443s-.13-1.727-.38-2.443c-.24-.715-.61-1.281-1.09-1.696-.49-.416-1.09-.624-1.81-.624-.73 0-1.34.208-1.84.624-.49.415-.86.981-1.12 1.696q-.36 1.074-.36 2.443 0 1.37.36 2.443c.26.715.63 1.281 1.12 1.697.5.408 1.11.613 1.84.613m14.89-6.01V155h-4.35v-15.699h4.14v2.77h.19c.35-.913.93-1.636 1.75-2.167.81-.538 1.81-.807 2.97-.807q1.635 0 2.85.715t1.89 2.044c.45.879.68 1.928.68 3.148V155h-4.36v-9.219c.01-.961-.23-1.71-.73-2.249-.5-.545-1.18-.817-2.06-.817-.58 0-1.1.126-1.55.378-.44.252-.79.62-1.04 1.104-.25.477-.37 1.052-.38 1.727m-313.789 28.377v3.271h-9.689v-3.271zM803.2 190v-16.834q0-1.706.664-2.831a4.27 4.27 0 0 1 1.84-1.686q1.165-.562 2.647-.562a10 10 0 0 1 1.83.153q.838.153 1.247.276l-.777 3.271a5 5 0 0 0-.634-.154 4 4 0 0 0-.756-.071q-.961 0-1.339.45-.378.44-.378 1.236V190zm16.662.307q-2.38 0-4.119-1.012a6.93 6.93 0 0 1-2.667-2.842q-.94-1.829-.94-4.241 0-2.433.94-4.252.94-1.83 2.667-2.841 1.739-1.022 4.119-1.022 2.382 0 4.109 1.022a6.8 6.8 0 0 1 2.678 2.841q.94 1.82.94 4.252 0 2.412-.94 4.241a6.9 6.9 0 0 1-2.678 2.842q-1.727 1.011-4.109 1.012m.021-3.373q1.083 0 1.809-.613.726-.624 1.094-1.697.378-1.074.378-2.443 0-1.37-.378-2.443-.369-1.073-1.094-1.696-.726-.624-1.809-.624-1.093 0-1.84.624-.736.623-1.114 1.696-.368 1.074-.368 2.443 0 1.37.368 2.443.378 1.073 1.114 1.697.747.612 1.84.613M830.42 190v-15.699h4.222v2.739h.163q.43-1.461 1.441-2.208 1.012-.756 2.331-.756.327 0 .705.041t.664.112v3.864a6 6 0 0 0-.848-.164 8 8 0 0 0-.992-.071q-.96 0-1.717.419a3.1 3.1 0 0 0-1.185 1.145q-.43.735-.43 1.696V190zm21.535 0-4.272-15.699h4.405l2.433 10.548h.143l2.535-10.548h4.323l2.576 10.486h.133l2.391-10.486h4.395L866.755 190h-4.609l-2.699-9.873h-.194L856.555 190zm28.146.307q-2.423 0-4.17-.982a6.7 6.7 0 0 1-2.678-2.8q-.94-1.82-.94-4.303 0-2.422.94-4.252t2.647-2.851q1.717-1.022 4.027-1.022 1.554 0 2.893.5a6.4 6.4 0 0 1 2.35 1.482q1.013.992 1.574 2.494.562 1.492.562 3.496v1.196H874.05v-2.699h9.158q0-.94-.409-1.666a2.93 2.93 0 0 0-1.134-1.134q-.716-.42-1.666-.419-.991 0-1.758.46-.757.449-1.186 1.216a3.4 3.4 0 0 0-.439 1.686v2.566q0 1.166.429 2.013a3.13 3.13 0 0 0 1.237 1.308q.796.46 1.89.46.726 0 1.329-.204a2.8 2.8 0 0 0 1.032-.613q.43-.41.654-1.002l4.027.266a5.5 5.5 0 0 1-1.257 2.535q-.94 1.073-2.432 1.676-1.483.593-3.424.593M890.23 190v-20.932h4.354v7.87h.132q.287-.634.828-1.288.552-.665 1.431-1.104.89-.45 2.208-.449 1.717 0 3.168.899 1.452.89 2.32 2.688.87 1.788.869 4.487 0 2.627-.848 4.436-.838 1.799-2.29 2.729-1.44.92-3.229.92-1.267 0-2.157-.42-.879-.419-1.441-1.052a5.4 5.4 0 0 1-.859-1.298h-.194V190zm4.262-7.85q0 1.4.388 2.443.389 1.043 1.124 1.625.736.573 1.789.573 1.063 0 1.799-.583.736-.593 1.114-1.635.388-1.052.388-2.423 0-1.359-.378-2.391t-1.114-1.615-1.809-.583q-1.063 0-1.799.563-.726.561-1.114 1.594t-.388 2.432m25.091 8.146q-1.502 0-2.677-.521a4.3 4.3 0 0 1-1.861-1.564q-.674-1.042-.674-2.596 0-1.308.48-2.197a3.9 3.9 0 0 1 1.309-1.431 6.3 6.3 0 0 1 1.88-.818 14.4 14.4 0 0 1 2.228-.388 55 55 0 0 0 2.208-.266q.838-.132 1.216-.388t.378-.757v-.061q0-.97-.613-1.502-.603-.532-1.717-.532-1.176 0-1.87.521-.695.511-.92 1.288l-4.027-.327q.306-1.43 1.206-2.473.9-1.053 2.32-1.615 1.431-.572 3.312-.572 1.308 0 2.504.306a6.6 6.6 0 0 1 2.136.951 4.6 4.6 0 0 1 1.482 1.655q.541 1.002.541 2.402V190h-4.129v-2.177h-.122q-.38.736-1.012 1.298-.634.552-1.523.869-.89.306-2.055.306m1.247-3.004q.961 0 1.697-.379a3 3 0 0 0 1.155-1.042 2.7 2.7 0 0 0 .419-1.482v-1.666a2.4 2.4 0 0 1-.562.245 10 10 0 0 1-.787.194 39 39 0 0 1-.879.154l-.797.112a5.4 5.4 0 0 0-1.339.358q-.573.245-.889.664-.317.409-.317 1.022 0 .89.644 1.36.654.46 1.655.46m10.972 8.595v-21.586h4.293v2.637h.194q.287-.634.828-1.288.552-.665 1.431-1.104.89-.45 2.208-.449 1.717 0 3.168.899 1.452.89 2.32 2.688.869 1.788.869 4.487 0 2.627-.848 4.436-.838 1.799-2.29 2.729-1.44.92-3.229.92-1.267 0-2.157-.42-.879-.419-1.441-1.052a5.4 5.4 0 0 1-.859-1.298h-.133v8.401zm4.262-13.737q0 1.4.389 2.443.388 1.043 1.124 1.625.736.573 1.789.573 1.062 0 1.799-.583.736-.593 1.114-1.635.388-1.052.388-2.423 0-1.359-.378-2.391-.379-1.032-1.114-1.615-.737-.583-1.809-.583-1.064 0-1.799.563-.726.561-1.114 1.594t-.389 2.432m13.952 13.737v-21.586h4.292v2.637h.195q.285-.634.828-1.288.55-.665 1.43-1.104.89-.45 2.208-.449a5.9 5.9 0 0 1 3.169.899q1.45.89 2.32 2.688.868 1.788.868 4.487 0 2.627-.848 4.436-.838 1.799-2.289 2.729-1.442.92-3.23.92-1.268 0-2.157-.42-.879-.419-1.441-1.052a5.3 5.3 0 0 1-.858-1.298h-.133v8.401zm4.262-13.737q0 1.4.388 2.443.389 1.043 1.124 1.625.736.573 1.789.573 1.063 0 1.799-.583.736-.593 1.114-1.635.388-1.052.388-2.423 0-1.359-.378-2.391t-1.114-1.615-1.809-.583q-1.063 0-1.799.563-.726.561-1.114 1.594t-.388 2.432m18.305-13.082V190h-4.354v-20.932zM976.071 190v-15.699h4.354V190zm2.187-17.723a2.36 2.36 0 0 1-1.666-.644q-.685-.654-.685-1.563 0-.9.685-1.544a2.35 2.35 0 0 1 1.666-.654q.97 0 1.656.654.695.644.695 1.544 0 .909-.695 1.563a2.33 2.33 0 0 1-1.656.644m12.748 18.03q-2.412 0-4.15-1.022a6.9 6.9 0 0 1-2.657-2.862q-.92-1.83-.92-4.211 0-2.412.93-4.232.94-1.829 2.668-2.851 1.727-1.032 4.108-1.032 2.055 0 3.598.746 1.543.745 2.443 2.095.9 1.349.991 3.168h-4.108q-.174-1.175-.92-1.89-.736-.726-1.932-.726-1.012 0-1.768.552-.747.541-1.165 1.584-.42 1.042-.419 2.524 0 1.503.408 2.556.42 1.052 1.176 1.604t1.768.552q.746 0 1.339-.306.603-.307.991-.89.399-.592.522-1.42h4.108q-.102 1.799-.981 3.168-.869 1.36-2.402 2.126-1.533.767-3.628.767m14.274-.011c-1 0-1.89-.173-2.68-.521a4.34 4.34 0 0 1-1.86-1.564c-.45-.695-.67-1.56-.67-2.596q0-1.308.48-2.197c.32-.593.76-1.07 1.31-1.431a6.4 6.4 0 0 1 1.88-.818c.71-.184 1.45-.313 2.23-.388a53 53 0 0 0 2.2-.266c.56-.088.97-.218 1.22-.388.25-.171.38-.423.38-.757v-.061c0-.647-.21-1.148-.61-1.502-.41-.355-.98-.532-1.72-.532-.79 0-1.41.174-1.87.521-.47.341-.77.77-.92 1.288l-4.03-.327c.21-.954.61-1.778 1.21-2.473.6-.702 1.37-1.24 2.32-1.615.95-.382 2.06-.572 3.31-.572.87 0 1.71.102 2.5.306.81.205 1.52.521 2.14.951.63.429 1.12.981 1.48 1.655q.54 1.002.54 2.402V190h-4.13v-2.177h-.12c-.25.491-.59.923-1.01 1.298-.42.368-.93.658-1.52.869-.6.204-1.28.306-2.06.306m1.25-3.004c.64 0 1.2-.127 1.7-.379a3 3 0 0 0 1.15-1.042q.42-.654.42-1.482v-1.666c-.14.088-.32.17-.56.245-.23.068-.5.133-.79.194-.29.055-.59.106-.88.154l-.8.112c-.51.075-.95.194-1.33.358-.39.163-.68.385-.89.664-.22.273-.32.613-.32 1.022 0 .593.21 1.046.64 1.36.44.306.99.46 1.66.46m19.32-12.991v3.271h-9.45v-3.271zm-7.31-3.761h4.36v14.636q0 .603.18.94.18.327.51.46.345.133.78.133c.2 0 .41-.017.61-.051.21-.041.36-.072.47-.092l.69 3.24c-.22.068-.53.146-.92.235q-.6.142-1.44.174-1.575.061-2.76-.419-1.185-.481-1.83-1.493c-.44-.674-.65-1.526-.65-2.555zm10.15 19.46v-15.699h4.35V190zm2.18-17.723c-.64 0-1.2-.214-1.66-.644q-.69-.654-.69-1.563 0-.9.69-1.544a2.34 2.34 0 0 1 1.66-.654c.65 0 1.2.218 1.66.654.46.43.7.944.7 1.544 0 .606-.24 1.127-.7 1.563-.46.43-1.01.644-1.66.644m12.75 18.03c-1.59 0-2.96-.338-4.12-1.012a6.9 6.9 0 0 1-2.66-2.842c-.63-1.219-.94-2.633-.94-4.241 0-1.622.31-3.039.94-4.252a6.8 6.8 0 0 1 2.66-2.841c1.16-.682 2.53-1.022 4.12-1.022q2.385 0 4.11 1.022c1.16.674 2.05 1.621 2.68 2.841.63 1.213.94 2.63.94 4.252 0 1.608-.31 3.022-.94 4.241a6.9 6.9 0 0 1-2.68 2.842q-1.725 1.011-4.11 1.012m.02-3.373c.72 0 1.33-.205 1.81-.613.49-.416.85-.982 1.1-1.697s.37-1.53.37-2.443-.12-1.727-.37-2.443c-.25-.715-.61-1.281-1.1-1.696-.48-.416-1.09-.624-1.81-.624-.73 0-1.34.208-1.84.624q-.735.623-1.11 1.696c-.25.716-.37 1.53-.37 2.443s.12 1.727.37 2.443q.375 1.073 1.11 1.697c.5.408 1.11.613 1.84.613m14.89-6.01V190h-4.35v-15.699h4.15v2.77h.18c.35-.913.93-1.636 1.75-2.167.82-.538 1.81-.807 2.98-.807q1.635 0 2.85.715t1.89 2.044c.45.879.67 1.928.67 3.148V190h-4.35v-9.219c.01-.961-.24-1.71-.74-2.249-.49-.545-1.18-.817-2.05-.817q-.885 0-1.56.378c-.44.252-.79.62-1.04 1.104-.24.477-.37 1.052-.38 1.727m26.62-2.146-3.99.245a2 2 0 0 0-.44-.92 2.3 2.3 0 0 0-.89-.664c-.36-.171-.79-.256-1.3-.256-.67 0-1.24.143-1.7.429-.47.28-.7.655-.7 1.125q0 .562.45.95c.3.259.82.467 1.54.624l2.85.572c1.52.314 2.66.818 3.41 1.513s1.12 1.608 1.12 2.739c0 1.029-.3 1.932-.91 2.708-.6.777-1.42 1.384-2.47 1.82-1.04.429-2.24.644-3.61.644-2.07 0-3.73-.433-4.96-1.298q-1.845-1.309-2.16-3.557l4.28-.225c.13.634.44 1.117.94 1.451.5.327 1.14.491 1.91.491s1.38-.147 1.84-.44q.705-.449.72-1.155c-.01-.395-.18-.718-.5-.971-.33-.258-.83-.456-1.51-.592l-2.72-.542c-1.54-.307-2.68-.838-3.43-1.594q-1.11-1.135-1.11-2.893c0-1.008.27-1.877.82-2.606s1.32-1.291 2.32-1.687q1.5-.592 3.51-.592c1.98 0 3.55.419 4.68 1.257q1.725 1.257 2.01 3.424M817.702 457.396h-4.477a4.4 4.4 0 0 0-.5-1.543 3.9 3.9 0 0 0-.971-1.165 4.3 4.3 0 0 0-1.37-.736 5.2 5.2 0 0 0-1.666-.256q-1.625 0-2.831.808-1.206.797-1.871 2.33-.663 1.523-.664 3.7 0 2.238.664 3.761.675 1.523 1.881 2.3t2.79.777q.89 0 1.646-.235a4.3 4.3 0 0 0 1.359-.685q.592-.46.981-1.114.399-.654.552-1.493l4.477.021a8.1 8.1 0 0 1-.869 2.78 8.3 8.3 0 0 1-1.85 2.381q-1.155 1.043-2.759 1.656-1.595.603-3.608.603-2.801 0-5.008-1.267-2.198-1.268-3.475-3.669-1.268-2.403-1.268-5.816 0-3.425 1.288-5.826 1.288-2.402 3.495-3.659 2.208-1.267 4.968-1.267 1.82 0 3.373.511a8.5 8.5 0 0 1 2.769 1.492 7.7 7.7 0 0 1 1.963 2.381q.766 1.411.981 3.23m7.446-7.328V471h-4.354v-20.932zm10.581 21.239q-2.382 0-4.119-1.012a6.93 6.93 0 0 1-2.668-2.842q-.94-1.829-.94-4.241 0-2.433.94-4.252.94-1.83 2.668-2.841 1.737-1.022 4.119-1.022 2.38 0 4.109 1.022a6.8 6.8 0 0 1 2.677 2.841q.94 1.82.941 4.252 0 2.412-.941 4.241a6.9 6.9 0 0 1-2.677 2.842q-1.728 1.011-4.109 1.012m.02-3.373q1.085 0 1.809-.613.726-.624 1.094-1.697.378-1.074.378-2.443 0-1.37-.378-2.443-.368-1.073-1.094-1.696-.724-.624-1.809-.624-1.093 0-1.839.624-.736.623-1.115 1.696-.367 1.074-.367 2.443 0 1.37.367 2.443.379 1.073 1.115 1.697.745.613 1.839.613m20.605-3.618v-9.015h4.354V471h-4.18v-2.852h-.164a4.63 4.63 0 0 1-1.768 2.218q-1.226.838-2.994.838-1.575 0-2.77-.715t-1.871-2.034q-.664-1.319-.674-3.158v-9.996h4.354v9.219q.01 1.39.746 2.198.736.807 1.973.807.786 0 1.471-.358a2.8 2.8 0 0 0 1.104-1.083q.43-.716.419-1.768m13.622 6.94q-1.789 0-3.24-.92-1.442-.93-2.289-2.729-.839-1.81-.839-4.436 0-2.699.869-4.487.869-1.799 2.31-2.688a5.9 5.9 0 0 1 3.179-.899q1.318 0 2.197.449.89.44 1.431 1.104.552.654.838 1.288h.133v-7.87h4.344V471h-4.293v-2.514h-.184a5.6 5.6 0 0 1-.869 1.298q-.552.633-1.441 1.052-.879.42-2.146.42m1.38-3.465q1.053 0 1.778-.573.736-.582 1.124-1.625.399-1.042.399-2.443 0-1.4-.388-2.432-.389-1.033-1.125-1.594-.735-.563-1.788-.563-1.074 0-1.809.583-.736.583-1.114 1.615-.38 1.032-.379 2.391 0 1.37.379 2.423.388 1.042 1.114 1.635.735.582 1.809.583m19.575-12.49v3.271h-9.689v-3.271zM883.46 471v-16.834q0-1.706.664-2.831a4.27 4.27 0 0 1 1.84-1.686q1.164-.562 2.647-.562 1.002 0 1.829.153.839.153 1.247.276l-.776 3.271a5 5 0 0 0-.634-.154 4 4 0 0 0-.757-.071q-.96 0-1.338.45-.38.44-.379 1.236V471zm14.485-20.932V471h-4.354v-20.932zm7.964 21.228q-1.502 0-2.677-.521a4.3 4.3 0 0 1-1.861-1.564q-.674-1.042-.674-2.596 0-1.308.48-2.197.48-.89 1.308-1.431a6.4 6.4 0 0 1 1.881-.818 14 14 0 0 1 2.228-.388 55 55 0 0 0 2.208-.266q.838-.133 1.216-.388.378-.256.378-.757v-.061q0-.97-.613-1.502-.603-.532-1.717-.532-1.176 0-1.87.521-.695.511-.92 1.288l-4.027-.327q.306-1.43 1.206-2.473.899-1.053 2.32-1.615 1.431-.572 3.311-.572 1.309 0 2.505.306a6.6 6.6 0 0 1 2.136.951 4.6 4.6 0 0 1 1.482 1.655q.541 1.002.541 2.402V471h-4.129v-2.177h-.122q-.38.736-1.012 1.298-.634.552-1.523.869-.89.306-2.055.306m1.247-3.004q.961 0 1.697-.379a3 3 0 0 0 1.155-1.042 2.7 2.7 0 0 0 .419-1.482v-1.666a2.4 2.4 0 0 1-.562.245 10 10 0 0 1-.787.194 39 39 0 0 1-.879.154l-.797.112a5.4 5.4 0 0 0-1.339.358q-.573.245-.889.664-.317.409-.317 1.022 0 .89.644 1.36.654.46 1.655.46M918.128 471v-15.699h4.221v2.739h.164q.43-1.461 1.441-2.208 1.012-.756 2.33-.756.328 0 .706.041t.664.112v3.864a6 6 0 0 0-.848-.164 8 8 0 0 0-.992-.071q-.96 0-1.717.419a3.1 3.1 0 0 0-1.185 1.145q-.43.736-.43 1.696V471zm18.201.307q-2.423 0-4.17-.982a6.7 6.7 0 0 1-2.678-2.8q-.94-1.82-.94-4.303 0-2.422.94-4.252t2.647-2.851q1.717-1.022 4.027-1.022 1.554 0 2.893.5a6.4 6.4 0 0 1 2.35 1.482q1.013.992 1.574 2.494.562 1.492.562 3.496v1.196h-13.256v-2.699h9.158q0-.94-.409-1.666a2.93 2.93 0 0 0-1.134-1.134q-.716-.42-1.666-.419-.991 0-1.758.46-.757.449-1.186 1.216a3.4 3.4 0 0 0-.439 1.686v2.566q0 1.165.429 2.013a3.13 3.13 0 0 0 1.237 1.308q.796.46 1.89.46.726 0 1.329-.204a2.8 2.8 0 0 0 1.032-.613q.43-.41.655-1.002l4.027.266a5.5 5.5 0 0 1-1.258 2.535q-.94 1.073-2.432 1.676-1.482.593-3.424.593m28.145-15.219q-.122-1.237-1.053-1.922t-2.524-.684q-1.083 0-1.83.306-.746.297-1.144.828a2 2 0 0 0-.389 1.206q-.02.563.235.981.266.42.726.726.46.296 1.063.521.603.215 1.288.368l1.88.45q1.37.306 2.515.818 1.145.51 1.983 1.257a5.2 5.2 0 0 1 1.298 1.758q.47 1.012.48 2.32-.01 1.922-.981 3.332-.961 1.4-2.78 2.177-1.81.766-4.364.766-2.535 0-4.416-.776-1.87-.777-2.923-2.3-1.043-1.533-1.094-3.792h4.283q.072 1.053.603 1.758.541.695 1.441 1.053.91.347 2.054.347 1.125 0 1.953-.327.837-.327 1.298-.909.46-.583.46-1.339 0-.706-.42-1.186-.408-.48-1.206-.818a12.3 12.3 0 0 0-1.931-.613l-2.28-.572q-2.647-.644-4.18-2.014t-1.523-3.689q-.01-1.902 1.012-3.322 1.032-1.421 2.831-2.218 1.8-.797 4.089-.797 2.33 0 4.067.797 1.749.797 2.719 2.218t1.002 3.291zm7.423 20.799v-21.586h4.293v2.637h.194q.287-.634.828-1.288.552-.664 1.431-1.104.888-.45 2.207-.449a5.9 5.9 0 0 1 3.169.899q1.451.89 2.32 2.688.869 1.788.869 4.487 0 2.627-.849 4.436-.838 1.799-2.289 2.729-1.441.92-3.23.92-1.268 0-2.156-.42-.88-.419-1.442-1.052a5.4 5.4 0 0 1-.858-1.298h-.133v8.401zm4.262-13.737q0 1.4.388 2.443.389 1.043 1.125 1.625.736.573 1.788.573 1.064 0 1.799-.583.736-.593 1.114-1.635.389-1.053.389-2.423 0-1.359-.379-2.391-.378-1.032-1.114-1.615-.735-.582-1.809-.583-1.062 0-1.799.563-.725.562-1.114 1.594-.388 1.032-.388 2.432m21.106 8.157q-2.423 0-4.17-.982a6.7 6.7 0 0 1-2.678-2.8q-.94-1.82-.94-4.303 0-2.422.94-4.252t2.647-2.851q1.717-1.022 4.027-1.022 1.554 0 2.893.5a6.4 6.4 0 0 1 2.346 1.482c.68.661 1.2 1.493 1.58 2.494.37.995.56 2.16.56 3.496v1.196h-13.256v-2.699h9.156c0-.627-.13-1.182-.407-1.666a2.93 2.93 0 0 0-1.134-1.134q-.716-.42-1.666-.419-.991 0-1.758.46-.757.449-1.186 1.216a3.4 3.4 0 0 0-.439 1.686v2.566q0 1.165.429 2.013a3.13 3.13 0 0 0 1.237 1.308q.797.46 1.89.46.726 0 1.329-.204a2.8 2.8 0 0 0 1.032-.613q.43-.41.653-1.002l4.03.266a5.6 5.6 0 0 1-1.26 2.535q-.945 1.073-2.43 1.676-1.484.593-3.425.593m17.145 0c-1.61 0-3-.341-4.15-1.022-1.16-.689-2.04-1.643-2.66-2.862s-.92-2.624-.92-4.211q0-2.412.93-4.232c.63-1.219 1.51-2.17 2.67-2.851 1.15-.688 2.52-1.032 4.1-1.032q2.055 0 3.6.746c1.03.497 1.85 1.195 2.45 2.095.59.899.93 1.955.99 3.168h-4.11c-.12-.783-.42-1.414-.92-1.89-.49-.484-1.14-.726-1.93-.726q-1.02 0-1.77.552-.75.541-1.17 1.584-.42 1.042-.42 2.524c0 1.002.14 1.854.41 2.556.28.701.67 1.236 1.18 1.604q.75.552 1.77.552c.49 0 .94-.102 1.34-.306q.6-.307.99-.89c.26-.395.44-.868.52-1.42h4.11c-.07 1.199-.4 2.255-.98 3.168-.58.906-1.38 1.615-2.41 2.126-1.02.511-2.23.767-3.62.767m18.14-16.006v3.271h-9.45v-3.271zm-7.3-3.761h4.35v14.636q0 .603.18.94c.13.218.3.371.52.46s.48.133.77.133c.21 0 .41-.017.62-.051.2-.041.36-.072.47-.092l.68 3.24c-.22.068-.52.146-.92.235q-.585.143-1.44.174-1.575.061-2.76-.419-1.17-.481-1.83-1.493c-.44-.674-.65-1.526-.64-2.555zm10.14 19.46v-15.699h4.22v2.739h.17q.42-1.461 1.44-2.208c.67-.504 1.45-.756 2.33-.756a6.7 6.7 0 0 1 1.37.153v3.864a6 6 0 0 0-.85-.164 8 8 0 0 0-.99-.071c-.64 0-1.22.139-1.72.419-.5.272-.89.654-1.19 1.145-.28.49-.43 1.056-.43 1.696V471zm21.84-6.684v-9.015h4.36V471h-4.18v-2.852h-.16q-.54 1.38-1.77 2.218t-3 .838c-1.05 0-1.97-.238-2.77-.715-.79-.477-1.42-1.155-1.87-2.034-.44-.879-.67-1.932-.67-3.158v-9.996h4.35v9.219q.015 1.39.75 2.198c.49.538 1.15.807 1.97.807.52 0 1.02-.119 1.47-.358q.69-.368 1.11-1.083c.28-.477.42-1.067.41-1.768m7.84 6.684v-15.699h4.15v2.77h.19a4.32 4.32 0 0 1 1.63-2.177c.76-.532 1.68-.797 2.74-.797 1.08 0 1.99.269 2.75.807.76.531 1.26 1.254 1.51 2.167h.17c.32-.9.89-1.619 1.73-2.157q1.275-.817 3-.817c1.46 0 2.65.466 3.56 1.4q1.38 1.39 1.38 3.945V471h-4.34v-9.699q0-1.31-.69-1.963-.705-.654-1.74-.654c-.79 0-1.41.252-1.85.756-.44.498-.67 1.155-.67 1.973V471h-4.22v-9.791q0-1.156-.66-1.84c-.44-.457-1.01-.685-1.73-.685-.48 0-.92.123-1.31.368-.38.238-.68.576-.91 1.012q-.33.643-.33 1.512V471zm-273.901 89.396h-4.477a4.4 4.4 0 0 0-.501-1.543 3.9 3.9 0 0 0-.97-1.165 4.3 4.3 0 0 0-1.37-.736 5.2 5.2 0 0 0-1.666-.256q-1.625 0-2.831.808-1.206.797-1.871 2.33-.664 1.523-.664 3.7 0 2.238.664 3.761.675 1.523 1.881 2.3t2.79.777q.89 0 1.646-.235a4.3 4.3 0 0 0 1.359-.685q.592-.46.981-1.114.399-.654.552-1.493l4.477.021a8.1 8.1 0 0 1-.869 2.78 8.3 8.3 0 0 1-1.85 2.381q-1.155 1.043-2.759 1.656-1.595.603-3.608.603-2.801 0-5.008-1.267-2.198-1.267-3.475-3.669-1.268-2.402-1.268-5.816 0-3.424 1.288-5.826t3.495-3.659q2.208-1.267 4.968-1.267 1.82 0 3.373.511a8.5 8.5 0 0 1 2.769 1.492 7.7 7.7 0 0 1 1.963 2.381q.766 1.411.981 3.23m7.446-7.328V574h-4.354v-20.932zm10.581 21.239q-2.382 0-4.119-1.012a6.93 6.93 0 0 1-2.668-2.842q-.94-1.829-.94-4.241 0-2.433.94-4.252.94-1.83 2.668-2.841 1.737-1.023 4.119-1.022 2.38 0 4.109 1.022a6.8 6.8 0 0 1 2.677 2.841q.94 1.82.941 4.252 0 2.412-.941 4.241a6.9 6.9 0 0 1-2.677 2.842q-1.728 1.011-4.109 1.012m.02-3.373q1.085 0 1.809-.613.726-.624 1.094-1.697.378-1.074.378-2.443 0-1.37-.378-2.443-.368-1.073-1.094-1.696-.724-.624-1.809-.624-1.093 0-1.839.624-.736.623-1.115 1.696-.367 1.074-.367 2.443 0 1.37.367 2.443.379 1.073 1.115 1.697.745.612 1.839.613m20.605-3.618v-9.015h4.354V574h-4.18v-2.852h-.164a4.63 4.63 0 0 1-1.768 2.218q-1.226.838-2.994.838-1.575 0-2.77-.715-1.196-.716-1.871-2.034-.664-1.319-.674-3.158v-9.996h4.354v9.219q.01 1.39.746 2.198.736.807 1.973.807.786 0 1.471-.358a2.8 2.8 0 0 0 1.104-1.083q.43-.716.419-1.768m13.622 6.94q-1.79 0-3.24-.92-1.441-.93-2.29-2.729-.837-1.81-.838-4.436 0-2.699.869-4.487.868-1.799 2.31-2.688a5.9 5.9 0 0 1 3.179-.899q1.318 0 2.197.449.89.44 1.431 1.104.552.654.838 1.288h.133v-7.87h4.344V574h-4.293v-2.514h-.184a5.6 5.6 0 0 1-.869 1.298q-.552.633-1.441 1.052-.879.42-2.146.42m1.38-3.465q1.052 0 1.778-.573.736-.582 1.124-1.625.399-1.042.399-2.443 0-1.4-.388-2.432t-1.125-1.594q-.735-.563-1.788-.563-1.074 0-1.809.583-.736.582-1.114 1.615-.38 1.032-.379 2.391 0 1.37.379 2.423.388 1.043 1.114 1.635.735.582 1.809.583m19.575-12.49v3.271h-9.689v-3.271zM856.927 574v-16.834q0-1.706.664-2.831a4.27 4.27 0 0 1 1.84-1.686q1.164-.562 2.647-.562 1.002 0 1.829.153.839.153 1.247.276l-.776 3.271a5 5 0 0 0-.634-.154 4 4 0 0 0-.757-.071q-.96 0-1.338.45-.38.44-.379 1.236V574zm14.485-20.932V574h-4.354v-20.932zm7.964 21.228q-1.502 0-2.677-.521a4.3 4.3 0 0 1-1.861-1.564q-.674-1.042-.674-2.596 0-1.308.48-2.197.48-.89 1.308-1.431a6.4 6.4 0 0 1 1.881-.818 14 14 0 0 1 2.228-.388 55 55 0 0 0 2.208-.266q.838-.132 1.216-.388t.378-.757v-.061q0-.97-.613-1.502-.603-.532-1.717-.532-1.176 0-1.87.521-.696.511-.92 1.288l-4.027-.327q.306-1.43 1.206-2.473.899-1.053 2.32-1.615 1.431-.572 3.311-.572 1.309 0 2.505.306a6.6 6.6 0 0 1 2.136.951 4.6 4.6 0 0 1 1.482 1.655q.541 1.002.541 2.402V574h-4.129v-2.177h-.122q-.38.736-1.012 1.298-.634.552-1.523.869-.89.306-2.055.306m1.247-3.004q.961 0 1.697-.379a3 3 0 0 0 1.155-1.042 2.7 2.7 0 0 0 .419-1.482v-1.666a2.4 2.4 0 0 1-.562.245 10 10 0 0 1-.787.194 39 39 0 0 1-.879.154l-.797.112a5.4 5.4 0 0 0-1.339.358q-.573.245-.889.664-.318.409-.317 1.022 0 .89.644 1.36.654.46 1.655.46M891.595 574v-15.699h4.221v2.739h.164q.43-1.461 1.441-2.208 1.012-.756 2.33-.756.327 0 .706.041t.664.112v3.864a6 6 0 0 0-.848-.164 8 8 0 0 0-.992-.071q-.96 0-1.717.419a3.1 3.1 0 0 0-1.185 1.145q-.43.736-.43 1.696V574zm18.201.307q-2.423 0-4.17-.982a6.7 6.7 0 0 1-2.678-2.8q-.94-1.82-.94-4.303 0-2.422.94-4.252t2.647-2.851q1.717-1.023 4.027-1.022 1.554 0 2.893.5a6.4 6.4 0 0 1 2.35 1.482q1.013.992 1.574 2.494.562 1.492.562 3.496v1.196h-13.256v-2.699h9.158q0-.94-.409-1.666a2.93 2.93 0 0 0-1.134-1.134q-.716-.42-1.666-.419-.991 0-1.758.46-.757.449-1.186 1.216a3.4 3.4 0 0 0-.439 1.686v2.566q0 1.165.429 2.013a3.13 3.13 0 0 0 1.237 1.308q.797.46 1.89.46.726 0 1.329-.204a2.8 2.8 0 0 0 1.032-.613q.43-.41.655-1.002l4.027.266a5.5 5.5 0 0 1-1.258 2.535q-.94 1.073-2.432 1.676-1.483.593-3.424.593m16.79-21.239h5.458l5.764 14.064h.246l5.764-14.064h5.458V574h-4.293v-13.624h-.173l-5.417 13.522h-2.924l-5.417-13.573h-.173V574h-4.293zm30.731 21.228q-1.502 0-2.678-.521a4.3 4.3 0 0 1-1.86-1.564q-.674-1.042-.674-2.596 0-1.308.48-2.197.48-.89 1.308-1.431a6.4 6.4 0 0 1 1.881-.818 14 14 0 0 1 2.228-.388 55 55 0 0 0 2.208-.266q.838-.132 1.216-.388t.378-.757v-.061q0-.97-.613-1.502-.603-.532-1.717-.532-1.176 0-1.871.521-.695.511-.92 1.288l-4.026-.327q.306-1.43 1.206-2.473.899-1.053 2.32-1.615 1.43-.572 3.311-.572 1.308 0 2.504.306a6.6 6.6 0 0 1 2.136.951 4.6 4.6 0 0 1 1.482 1.655q.543 1.002.542 2.402V574h-4.129v-2.177h-.123a4.4 4.4 0 0 1-1.012 1.298q-.633.552-1.522.869-.89.306-2.055.306m1.247-3.004q.961 0 1.697-.379.735-.388 1.155-1.042a2.7 2.7 0 0 0 .419-1.482v-1.666a2.4 2.4 0 0 1-.562.245 10 10 0 0 1-.787.194 39 39 0 0 1-.879.154l-.798.112a5.4 5.4 0 0 0-1.339.358q-.572.245-.889.664-.317.409-.317 1.022 0 .89.644 1.36.654.46 1.656.46m18.045 8.922q-2.116 0-3.629-.582-1.501-.573-2.391-1.564a4.8 4.8 0 0 1-1.155-2.228l4.027-.542q.184.47.582.879.399.41 1.053.654.664.255 1.615.256 1.42 0 2.341-.695.93-.685.93-2.3v-2.872h-.184a4.1 4.1 0 0 1-.859 1.237q-.572.582-1.472.95-.899.368-2.146.368-1.768 0-3.22-.818-1.44-.827-2.299-2.524-.849-1.707-.849-4.313 0-2.668.869-4.456.868-1.789 2.31-2.678a5.97 5.97 0 0 1 3.179-.889q1.319 0 2.207.449.89.44 1.431 1.104.552.654.849 1.288h.163v-2.637h4.324v15.852q0 2.004-.982 3.353-.981 1.349-2.718 2.023-1.728.685-3.976.685m.092-9.709q1.053 0 1.778-.522.737-.531 1.124-1.512.399-.992.399-2.372t-.388-2.391q-.389-1.023-1.125-1.584-.735-.563-1.788-.563-1.074 0-1.809.583-.736.573-1.114 1.594-.378 1.023-.379 2.361 0 1.36.379 2.351.388.981 1.114 1.523.735.532 1.809.532M987.749 574v-15.699h4.354V574zm2.188-17.723a2.36 2.36 0 0 1-1.666-.644q-.685-.654-.685-1.563 0-.9.685-1.544a2.34 2.34 0 0 1 1.666-.654q.97 0 1.655.654.695.644.695 1.544 0 .909-.695 1.563-.684.644-1.655.644m12.743 18.03c-1.6 0-2.987-.341-4.145-1.022a6.9 6.9 0 0 1-2.658-2.862q-.92-1.83-.919-4.211 0-2.412.93-4.232a6.9 6.9 0 0 1 2.667-2.851c1.152-.688 2.525-1.032 4.105-1.032q2.055 0 3.6.746c1.03.497 1.84 1.195 2.44 2.095.6.899.93 1.955 1 3.168h-4.11c-.12-.783-.43-1.414-.92-1.89-.49-.484-1.14-.726-1.93-.726q-1.02 0-1.77.552-.75.541-1.168 1.584-.419 1.042-.419 2.524 0 1.503.409 2.556.415 1.052 1.178 1.604.75.552 1.77.552c.49 0 .94-.102 1.33-.306.41-.205.74-.501 1-.89.26-.395.44-.868.52-1.42h4.11q-.105 1.798-.99 3.168c-.57.906-1.38 1.615-2.4 2.126q-1.53.767-3.63.767m15.75-17.59v-3.649h17.19v3.649h-6.41V574h-4.37v-17.283zM1036.74 574v-15.699h4.22v2.739h.16c.29-.974.77-1.71 1.45-2.208.67-.504 1.45-.756 2.33-.756a6.7 6.7 0 0 1 1.37.153v3.864a6 6 0 0 0-.85-.164 8 8 0 0 0-.99-.071c-.64 0-1.22.139-1.72.419-.5.272-.89.654-1.19 1.145-.28.49-.43 1.056-.43 1.696V574zm15.8.296q-1.5 0-2.67-.521-1.185-.53-1.86-1.564c-.45-.695-.68-1.56-.68-2.596q0-1.308.48-2.197c.32-.593.76-1.07 1.31-1.431a6.4 6.4 0 0 1 1.88-.818c.71-.184 1.45-.313 2.23-.388a56 56 0 0 0 2.21-.266c.55-.088.96-.218 1.21-.388.25-.171.38-.423.38-.757v-.061c0-.647-.2-1.148-.61-1.502-.4-.355-.98-.532-1.72-.532-.78 0-1.41.174-1.87.521-.46.341-.77.77-.92 1.288l-4.03-.327c.21-.954.61-1.778 1.21-2.473.6-.702 1.37-1.24 2.32-1.615.95-.382 2.06-.572 3.31-.572.87 0 1.71.102 2.5.306.81.205 1.52.521 2.14.951.63.429 1.12.981 1.48 1.655q.54 1.002.54 2.402V574h-4.12v-2.177h-.13c-.25.491-.59.923-1.01 1.298-.42.368-.93.658-1.52.869-.59.204-1.28.306-2.06.306m1.25-3.004c.64 0 1.21-.127 1.7-.379a3 3 0 0 0 1.15-1.042q.42-.654.42-1.482v-1.666c-.14.088-.32.17-.56.245-.23.068-.49.133-.79.194-.29.055-.58.106-.88.154-.29.041-.56.078-.79.112-.52.075-.96.194-1.34.358s-.68.385-.89.664c-.21.273-.32.613-.32 1.022 0 .593.22 1.046.64 1.36.44.306.99.46 1.66.46m15.33-6.368V574h-4.36v-15.699h4.15v2.77h.19c.34-.913.93-1.636 1.74-2.167.82-.538 1.81-.807 2.98-.807q1.635 0 2.85.715t1.89 2.044c.45.879.68 1.928.68 3.148V574h-4.36v-9.219c.01-.961-.24-1.71-.73-2.249-.5-.545-1.19-.817-2.06-.817-.59 0-1.1.126-1.55.378s-.79.62-1.05 1.104c-.24.477-.37 1.052-.37 1.727m26.61-2.146-3.99.245a2 2 0 0 0-.44-.92 2.3 2.3 0 0 0-.89-.664q-.54-.256-1.29-.256-1.02 0-1.71.429c-.46.28-.7.655-.7 1.125q0 .562.45.95c.3.259.82.467 1.55.624l2.84.572c1.52.314 2.66.818 3.41 1.513s1.13 1.608 1.13 2.739c0 1.029-.31 1.932-.91 2.708s-1.43 1.384-2.48 1.82q-1.56.644-3.6.644c-2.08 0-3.74-.433-4.97-1.298q-1.845-1.309-2.16-3.557l4.28-.225c.13.634.45 1.117.94 1.451q.75.49 1.92.491c.76 0 1.37-.147 1.84-.44.47-.299.7-.684.71-1.155a1.2 1.2 0 0 0-.5-.971c-.33-.258-.83-.456-1.51-.592l-2.72-.542c-1.53-.307-2.68-.838-3.43-1.594q-1.11-1.135-1.11-2.893c0-1.008.27-1.877.82-2.606s1.32-1.291 2.32-1.687q1.5-.592 3.51-.592c1.99 0 3.55.419 4.69 1.257s1.81 1.979 2 3.424m3.1 11.222v-15.699h4.35V574zm2.19-17.723c-.65 0-1.21-.214-1.67-.644q-.69-.654-.69-1.563 0-.9.69-1.544a2.35 2.35 0 0 1 1.67-.654q.96 0 1.65.654c.46.43.7.944.7 1.544 0 .606-.24 1.127-.7 1.563q-.69.644-1.65.644m14 2.024v3.271h-9.45v-3.271zm-7.31-3.761h4.36v14.636q0 .603.18.94.18.327.51.46.345.133.78.133c.2 0 .41-.017.61-.051.21-.041.36-.072.47-.092l.69 3.24c-.22.068-.53.146-.92.235q-.6.143-1.44.174-1.575.061-2.76-.419-1.185-.481-1.83-1.493c-.44-.674-.65-1.526-.65-2.555zM246.393 168h-2.657l7.686-20.932h2.616L261.724 168h-2.657l-6.255-17.621h-.164zm.981-8.177h10.712v2.249h-10.712zm17.284 14.064v-21.586h2.33v2.494h.286q.266-.409.736-1.043.48-.644 1.37-1.144.899-.511 2.432-.511 1.983 0 3.496.991 1.512.992 2.361 2.811.848 1.819.848 4.292 0 2.494-.848 4.324-.848 1.82-2.351 2.821-1.503.991-3.465.991-1.512 0-2.422-.501-.91-.51-1.4-1.155-.491-.654-.757-1.083h-.204v8.299zm2.371-13.737q0 1.779.521 3.138.522 1.35 1.523 2.116 1.002.756 2.453.756 1.512 0 2.525-.797 1.022-.808 1.533-2.167.52-1.37.521-3.046 0-1.655-.511-2.984-.501-1.34-1.523-2.116-1.012-.787-2.545-.787-1.472 0-2.473.746-1.002.736-1.513 2.065-.511 1.319-.511 3.076m15.167 13.737v-21.586h2.331v2.494h.286q.265-.409.736-1.043.48-.644 1.369-1.144.9-.511 2.433-.511 1.983 0 3.495.991 1.514.992 2.361 2.811.849 1.819.849 4.292 0 2.494-.849 4.324-.848 1.82-2.35 2.821-1.503.991-3.465.991-1.513 0-2.422-.501-.91-.51-1.401-1.155a15 15 0 0 1-.756-1.083h-.204v8.299zm2.372-13.737q0 1.779.521 3.138.52 1.35 1.523 2.116 1.002.756 2.453.756 1.513 0 2.524-.797 1.023-.808 1.533-2.167.522-1.37.522-3.046 0-1.655-.511-2.984-.501-1.34-1.523-2.116-1.012-.787-2.545-.787-1.472 0-2.474.746-1.001.736-1.512 2.065-.511 1.319-.511 3.076m17.579-13.082V168h-2.412v-20.932zM306.565 168v-15.699h2.412V168zm1.227-18.316q-.705 0-1.217-.48-.5-.48-.5-1.155t.5-1.155q.512-.48 1.217-.48t1.206.48q.51.48.511 1.155 0 .675-.511 1.155a1.68 1.68 0 0 1-1.206.48m11.981 18.643q-2.208 0-3.802-1.042-1.595-1.043-2.453-2.872-.858-1.83-.859-4.181 0-2.391.879-4.221.89-1.84 2.474-2.872 1.594-1.042 3.72-1.042 1.656 0 2.985.613a5.7 5.7 0 0 1 2.177 1.717q.848 1.104 1.052 2.575h-2.412q-.276-1.073-1.226-1.901-.94-.838-2.535-.838-1.41 0-2.473.736-1.053.726-1.646 2.055-.582 1.319-.583 3.096 0 1.82.573 3.169.582 1.349 1.635 2.095 1.063.747 2.494.746.94 0 1.707-.327a3.5 3.5 0 0 0 1.298-.94q.531-.614.756-1.472h2.412a5.6 5.6 0 0 1-1.012 2.504q-.796 1.104-2.115 1.758-1.309.644-3.046.644m14.319.041q-1.492 0-2.708-.562a4.65 4.65 0 0 1-1.932-1.646q-.715-1.083-.715-2.616 0-1.35.531-2.187a3.74 3.74 0 0 1 1.421-1.329 7.5 7.5 0 0 1 1.962-.716 24 24 0 0 1 2.177-.388 95 95 0 0 1 2.32-.276q.9-.103 1.308-.337.42-.236.42-.818v-.082q0-1.513-.828-2.35-.817-.839-2.484-.839-1.727 0-2.708.757-.982.756-1.38 1.615l-2.29-.818q.613-1.431 1.636-2.228a6.1 6.1 0 0 1 2.248-1.124 9.3 9.3 0 0 1 2.412-.327q.757 0 1.738.184a5.5 5.5 0 0 1 1.911.725q.93.552 1.543 1.666.614 1.114.614 2.985V168h-2.412v-2.126h-.123q-.245.511-.818 1.094-.572.583-1.523.991-.95.41-2.32.409m.368-2.167q1.431 0 2.412-.562.992-.563 1.493-1.451.51-.89.511-1.871v-2.207q-.154.184-.675.337-.511.142-1.186.255-.664.103-1.298.184-.623.072-1.012.123a9 9 0 0 0-1.757.399q-.808.266-1.309.807-.49.531-.49 1.451 0 1.258.93 1.901.94.634 2.381.634m18.058-13.9v2.044h-8.136v-2.044zm-5.765-3.761h2.412v14.963q0 1.022.297 1.533.306.501.776.675.481.163 1.012.163a4 4 0 0 0 .654-.041l.409-.082.491 2.167a5 5 0 0 1-.685.184 5 5 0 0 1-1.114.102 4.85 4.85 0 0 1-2.003-.439 3.97 3.97 0 0 1-1.615-1.339q-.634-.9-.634-2.269zm9.393 19.46v-15.699h2.412V168zm1.227-18.316q-.706 0-1.217-.48a1.54 1.54 0 0 1-.501-1.155q0-.675.501-1.155.511-.48 1.217-.48.705 0 1.206.48.51.48.511 1.155 0 .675-.511 1.155a1.68 1.68 0 0 1-1.206.48m11.981 18.643q-2.127 0-3.731-1.012-1.594-1.011-2.494-2.831-.889-1.82-.889-4.252 0-2.453.889-4.282.9-1.83 2.494-2.842 1.604-1.011 3.731-1.011 2.125 0 3.72 1.011 1.605 1.012 2.494 2.842.9 1.829.899 4.282 0 2.433-.899 4.252-.89 1.82-2.494 2.831-1.594 1.012-3.72 1.012m0-2.167q1.614 0 2.657-.828 1.043-.827 1.543-2.177.501-1.348.501-2.923a8.4 8.4 0 0 0-.501-2.933q-.5-1.36-1.543-2.198t-2.657-.838q-1.616 0-2.658.838-1.042.839-1.543 2.198a8.4 8.4 0 0 0-.501 2.933q0 1.575.501 2.923.5 1.35 1.543 2.177 1.043.828 2.658.828m13.207-7.604V168h-2.412v-15.699h2.331v2.453h.204a4.5 4.5 0 0 1 1.676-1.922q1.124-.735 2.903-.735 1.594 0 2.79.654 1.196.643 1.86 1.962.665 1.308.665 3.312V168h-2.412v-9.812q0-1.85-.961-2.882-.961-1.043-2.637-1.043-1.155 0-2.065.501a3.6 3.6 0 0 0-1.42 1.462q-.522.96-.522 2.33M405.407 168v-20.932h2.535v18.683h9.73V168zm20.483.368q-1.493 0-2.709-.562a4.65 4.65 0 0 1-1.932-1.646q-.715-1.083-.715-2.616 0-1.35.532-2.187a3.74 3.74 0 0 1 1.42-1.329 7.5 7.5 0 0 1 1.963-.716 24 24 0 0 1 2.177-.388 95 95 0 0 1 2.32-.276q.899-.103 1.308-.337.419-.236.419-.818v-.082q0-1.513-.828-2.35-.817-.839-2.484-.839-1.727 0-2.708.757-.981.756-1.38 1.615l-2.289-.818q.613-1.431 1.635-2.228a6.1 6.1 0 0 1 2.249-1.124 9.3 9.3 0 0 1 2.412-.327q.756 0 1.737.184a5.6 5.6 0 0 1 1.912.725q.93.552 1.543 1.666t.613 2.985V168h-2.412v-2.126h-.123q-.245.511-.817 1.094-.573.583-1.523.991-.95.41-2.32.409m.368-2.167q1.431 0 2.412-.562.991-.563 1.492-1.451a3.7 3.7 0 0 0 .511-1.871v-2.207q-.153.184-.675.337-.51.142-1.185.255-.665.103-1.298.184-.624.072-1.012.123a9 9 0 0 0-1.758.399q-.807.266-1.308.807-.49.531-.491 1.451 0 1.258.93 1.901.94.634 2.382.634m12.221 7.686q-.613 0-1.094-.102-.48-.092-.664-.184l.613-2.126q.879.225 1.554.164t1.196-.603q.531-.533.971-1.728l.449-1.226-5.805-15.781h2.617l4.333 12.51h.164l4.333-12.51h2.617l-6.664 17.988q-.45 1.216-1.114 2.014a4.2 4.2 0 0 1-1.544 1.196q-.869.388-1.962.388m20.488-5.56q-2.27 0-3.915-1.002-1.635-1.011-2.525-2.82-.879-1.82-.879-4.232t.879-4.252q.89-1.85 2.474-2.882 1.594-1.042 3.72-1.042 1.226 0 2.423.408a6 6 0 0 1 2.177 1.329q.981.91 1.563 2.412.583 1.503.583 3.7v1.022h-12.101v-2.085h9.648q0-1.329-.532-2.371a4 4 0 0 0-1.492-1.646q-.96-.603-2.269-.603-1.441 0-2.494.716a4.7 4.7 0 0 0-1.604 1.84 5.4 5.4 0 0 0-.562 2.432v1.39q0 1.779.613 3.015.623 1.226 1.727 1.871 1.104.633 2.566.633.95 0 1.717-.265a3.7 3.7 0 0 0 1.339-.818 3.7 3.7 0 0 0 .868-1.37l2.331.654a5.2 5.2 0 0 1-1.237 2.085q-.869.89-2.146 1.39-1.278.492-2.872.491m10.169-.327v-15.699h2.33v2.371h.164q.429-1.165 1.554-1.891 1.124-.725 2.534-.725.266 0 .665.01.397.01.603.031v2.453a7 7 0 0 0-.562-.092 5.5 5.5 0 0 0-.91-.072q-1.145 0-2.044.48a3.63 3.63 0 0 0-1.411 1.309q-.51.828-.511 1.89V168zm-330.345 0 9.648-19.091v-.159H137.2v-4.023h16.33v4.08L143.871 168z"/><path fill="#fff" stroke="#0E64DD" stroke-width="3" d="M103.5 214.5h466v83h-466z"/><path stroke="#0E64DD" stroke-width="3" d="M189 299v-86"/><path fill="#002F71" d="M245.535 269v-20.932h7.072q2.464 0 4.027.889 1.575.879 2.331 2.382.756 1.502.756 3.352t-.756 3.363q-.747 1.512-2.31 2.412-1.564.889-4.007.889h-5.069v-2.249h4.988q1.686 0 2.708-.582 1.021-.583 1.482-1.574.47-1.002.47-2.259t-.47-2.249q-.46-.991-1.492-1.553-1.032-.573-2.739-.572h-4.457V269zm17.942 0v-15.699h2.331v2.371h.163q.429-1.165 1.554-1.891 1.124-.725 2.534-.725.267 0 .665.01.397.01.603.031v2.453a7 7 0 0 0-.562-.092 5.5 5.5 0 0 0-.91-.072q-1.145 0-2.044.48a3.63 3.63 0 0 0-1.411 1.309q-.51.828-.511 1.89V269zm16.813.327q-2.268 0-3.914-1.002-1.635-1.011-2.525-2.82-.879-1.82-.879-4.232t.879-4.252q.89-1.85 2.474-2.882 1.594-1.042 3.72-1.042 1.227 0 2.422.408a6 6 0 0 1 2.177 1.329q.981.91 1.564 2.412.583 1.503.583 3.7v1.022h-12.102v-2.085h9.649q0-1.329-.532-2.371a4 4 0 0 0-1.492-1.646q-.96-.603-2.269-.603-1.441 0-2.494.716a4.7 4.7 0 0 0-1.604 1.84 5.4 5.4 0 0 0-.563 2.432v1.39q0 1.779.614 3.015.623 1.226 1.727 1.871 1.104.633 2.565.633.95 0 1.717-.265a3.7 3.7 0 0 0 1.339-.818 3.7 3.7 0 0 0 .869-1.37l2.33.654a5.16 5.16 0 0 1-1.236 2.085q-.869.89-2.147 1.39-1.277.491-2.872.491m21.29-12.51-2.167.613a4 4 0 0 0-.603-1.053q-.388-.52-1.063-.858t-1.727-.337q-1.441 0-2.402.664-.95.654-.95 1.666 0 .9.654 1.421t2.044.868l2.33.573q2.106.51 3.138 1.563 1.032 1.043 1.032 2.689 0 1.348-.776 2.412-.767 1.062-2.147 1.676t-3.209.613q-2.402 0-3.976-1.042t-1.993-3.046l2.289-.573q.327 1.268 1.237 1.901.92.634 2.402.634 1.686 0 2.678-.715 1.001-.726 1.001-1.738 0-.817-.572-1.369-.572-.563-1.758-.839l-2.616-.613q-2.157-.51-3.169-1.584-1.002-1.083-1.001-2.708 0-1.33.746-2.351.756-1.022 2.054-1.605 1.308-.582 2.964-.582 2.33 0 3.659 1.022 1.339 1.021 1.901 2.698m10.499 12.51q-2.268 0-3.914-1.002-1.635-1.011-2.525-2.82-.879-1.82-.879-4.232t.879-4.252q.89-1.85 2.474-2.882 1.594-1.042 3.72-1.042 1.227 0 2.422.408a6 6 0 0 1 2.177 1.329q.982.91 1.564 2.412.583 1.503.583 3.7v1.022h-12.102v-2.085h9.649q0-1.329-.532-2.371a4 4 0 0 0-1.492-1.646q-.96-.603-2.269-.603-1.441 0-2.494.716a4.7 4.7 0 0 0-1.604 1.84 5.4 5.4 0 0 0-.563 2.432v1.39q0 1.779.614 3.015.623 1.226 1.727 1.871 1.104.633 2.565.633.95 0 1.717-.265a3.7 3.7 0 0 0 1.339-.818 3.7 3.7 0 0 0 .869-1.37l2.33.654a5.16 5.16 0 0 1-1.236 2.085q-.869.89-2.147 1.39-1.277.491-2.872.491m12.582-9.771V269h-2.412v-15.699h2.33v2.453h.205a4.5 4.5 0 0 1 1.676-1.922q1.124-.735 2.903-.735 1.594 0 2.79.654 1.196.643 1.86 1.962.664 1.308.664 3.312V269h-2.412v-9.812q0-1.85-.96-2.882-.962-1.043-2.637-1.043-1.156 0-2.065.501-.9.5-1.421 1.462-.52.96-.521 2.33m21.252-6.255v2.044h-8.136v-2.044zm-5.765-3.761h2.412v14.963q0 1.022.297 1.533.306.501.776.675.481.163 1.012.163a4 4 0 0 0 .654-.041l.409-.082.491 2.167a5 5 0 0 1-.685.184 5 5 0 0 1-1.114.102 4.85 4.85 0 0 1-2.003-.439 3.97 3.97 0 0 1-1.615-1.339q-.634-.9-.634-2.269zm14.013 19.828q-1.493 0-2.709-.562a4.65 4.65 0 0 1-1.932-1.646q-.715-1.083-.715-2.616 0-1.35.531-2.187a3.75 3.75 0 0 1 1.421-1.329 7.5 7.5 0 0 1 1.963-.716 24 24 0 0 1 2.177-.388 94 94 0 0 1 2.32-.276q.899-.102 1.308-.337.419-.236.419-.818v-.082q0-1.512-.828-2.35-.817-.839-2.484-.839-1.727 0-2.708.757-.981.756-1.38 1.615l-2.289-.818q.613-1.431 1.635-2.228a6.1 6.1 0 0 1 2.249-1.124 9.3 9.3 0 0 1 2.412-.327q.756 0 1.737.184a5.5 5.5 0 0 1 1.911.725q.931.552 1.544 1.666.613 1.115.613 2.985V269h-2.412v-2.126h-.123q-.245.511-.817 1.094-.573.582-1.523.991t-2.32.409m.368-2.167q1.431 0 2.412-.562.991-.563 1.492-1.451a3.7 3.7 0 0 0 .511-1.871v-2.207q-.153.184-.675.337-.51.143-1.185.255-.665.103-1.298.184-.624.072-1.012.123a9 9 0 0 0-1.758.399q-.807.266-1.308.807-.49.531-.491 1.451 0 1.258.93 1.901.94.634 2.382.634m18.057-13.9v2.044h-8.136v-2.044zm-5.764-3.761h2.412v14.963q0 1.022.296 1.533.306.501.777.675.48.163 1.012.163.397 0 .654-.041l.409-.082.49 2.167a5 5 0 0 1-.685.184 5 5 0 0 1-1.114.102 4.85 4.85 0 0 1-2.003-.439 4 4 0 0 1-1.615-1.339q-.633-.9-.633-2.269zm9.392 19.46v-15.699h2.413V269zm1.227-18.316q-.706 0-1.216-.48a1.54 1.54 0 0 1-.501-1.155q0-.675.501-1.155.51-.48 1.216-.48.705 0 1.206.48.511.48.511 1.155t-.511 1.155a1.68 1.68 0 0 1-1.206.48m11.981 18.643q-2.126 0-3.73-1.012-1.595-1.011-2.494-2.831-.89-1.82-.889-4.252 0-2.453.889-4.282.899-1.83 2.494-2.842 1.604-1.011 3.73-1.011t3.721 1.011q1.604 1.012 2.493 2.842.9 1.829.9 4.282 0 2.433-.9 4.252-.889 1.82-2.493 2.831-1.595 1.012-3.721 1.012m0-2.167q1.615 0 2.658-.828 1.042-.827 1.543-2.177.501-1.348.501-2.923a8.4 8.4 0 0 0-.501-2.933q-.5-1.36-1.543-2.198t-2.658-.838-2.657.838-1.544 2.198a8.4 8.4 0 0 0-.5 2.933q0 1.575.5 2.923.501 1.35 1.544 2.177 1.043.828 2.657.828m13.208-7.604V269h-2.412v-15.699h2.33v2.453h.205a4.5 4.5 0 0 1 1.676-1.922q1.124-.735 2.902-.735 1.594 0 2.791.654 1.195.643 1.86 1.962.664 1.308.664 3.312V269h-2.412v-9.812q0-1.85-.961-2.882-.96-1.043-2.637-1.043-1.155 0-2.064.501-.9.5-1.421 1.462-.52.96-.521 2.33M425.476 269v-20.932h2.535v18.683h9.73V269zm20.482.368q-1.493 0-2.708-.562a4.65 4.65 0 0 1-1.932-1.646q-.716-1.083-.716-2.616 0-1.35.532-2.187a3.74 3.74 0 0 1 1.421-1.329 7.5 7.5 0 0 1 1.962-.716 24 24 0 0 1 2.177-.388 95 95 0 0 1 2.32-.276q.9-.102 1.308-.337.42-.236.419-.818v-.082q0-1.512-.827-2.35-.818-.839-2.484-.839-1.727 0-2.709.757-.981.756-1.379 1.615l-2.29-.818q.613-1.431 1.635-2.228a6.1 6.1 0 0 1 2.249-1.124 9.3 9.3 0 0 1 2.412-.327q.757 0 1.738.184a5.5 5.5 0 0 1 1.911.725q.93.552 1.543 1.666.614 1.115.614 2.985V269h-2.413v-2.126h-.122q-.245.511-.818 1.094-.572.582-1.523.991-.95.41-2.32.409m.368-2.167q1.431 0 2.412-.562.991-.563 1.492-1.451a3.7 3.7 0 0 0 .511-1.871v-2.207q-.153.184-.674.337-.511.143-1.186.255-.664.103-1.298.184-.623.072-1.012.123a9 9 0 0 0-1.758.399q-.807.266-1.308.807-.49.531-.49 1.451 0 1.258.93 1.901.94.634 2.381.634m12.221 7.686q-.613 0-1.093-.102-.48-.092-.664-.184l.613-2.126q.88.224 1.553.164.675-.062 1.196-.603.531-.533.971-1.728l.45-1.226-5.806-15.781h2.617l4.334 12.51h.163l4.334-12.51h2.616l-6.664 17.988q-.45 1.216-1.114 2.014a4.2 4.2 0 0 1-1.543 1.196q-.868.388-1.963.388m20.488-5.56q-2.27 0-3.915-1.002-1.635-1.011-2.524-2.82-.879-1.82-.879-4.232t.879-4.252q.89-1.85 2.473-2.882 1.594-1.042 3.721-1.042 1.226 0 2.422.408a6 6 0 0 1 2.177 1.329q.98.91 1.564 2.412.582 1.503.582 3.7v1.022h-12.101v-2.085h9.648q0-1.329-.531-2.371a4 4 0 0 0-1.492-1.646q-.961-.603-2.269-.603-1.441 0-2.494.716a4.7 4.7 0 0 0-1.605 1.84 5.4 5.4 0 0 0-.562 2.432v1.39q0 1.779.613 3.015.624 1.226 1.728 1.871 1.103.633 2.565.633.95 0 1.717-.265a3.7 3.7 0 0 0 1.339-.818q.562-.552.869-1.37l2.33.654a5.16 5.16 0 0 1-1.237 2.085q-.868.89-2.146 1.39-1.278.491-2.872.491m10.17-.327v-15.699h2.33v2.371h.163q.43-1.165 1.554-1.891 1.124-.725 2.535-.725.265 0 .664.01t.603.031v2.453a7 7 0 0 0-.562-.092 5.5 5.5 0 0 0-.91-.072q-1.144 0-2.044.48a3.6 3.6 0 0 0-1.41 1.309q-.511.828-.511 1.89V269zm-343.449.318a10.5 10.5 0 0 1-3.466-.602q-1.66-.59-2.978-1.921-1.317-1.329-2.09-3.522-.762-2.193-.762-5.387.012-2.931.671-5.238.67-2.318 1.909-3.932 1.25-1.614 2.988-2.455 1.74-.852 3.898-.852 2.33 0 4.114.909 1.784.898 2.863 2.443a7.4 7.4 0 0 1 1.319 3.466h-4.853q-.284-1.215-1.193-1.909-.909-.693-2.25-.693-2.273 0-3.454 1.977-1.17 1.977-1.194 5.375h.16a5.4 5.4 0 0 1 1.409-1.761 6.4 6.4 0 0 1 2.034-1.125 7.3 7.3 0 0 1 2.42-.398q2.068 0 3.682.977a6.93 6.93 0 0 1 2.545 2.66q.933 1.692.932 3.875 0 2.363-1.102 4.204-1.09 1.84-3.057 2.886-1.954 1.035-4.545 1.023m-.023-3.863q1.137 0 2.034-.546a3.9 3.9 0 0 0 1.409-1.477q.512-.931.512-2.091t-.512-2.08a3.85 3.85 0 0 0-1.386-1.466q-.886-.545-2.023-.545-.853 0-1.579.318a4 4 0 0 0-1.262.887 4.26 4.26 0 0 0-1.148 2.897q0 1.125.512 2.057a4.1 4.1 0 0 0 1.409 1.489q.897.557 2.034.557"/><path fill="#fff" stroke="#0E64DD" stroke-width="3" d="M103.5 315.5h466v83h-466z"/><path stroke="#0E64DD" stroke-width="3" d="M189 400v-86"/><path fill="#002F71" d="M256.982 354.301q-.184-1.554-1.492-2.412t-3.21-.859q-1.39 0-2.432.45-1.032.45-1.615 1.237a2.96 2.96 0 0 0-.572 1.788q0 .838.398 1.441.409.593 1.043.992.633.388 1.328.644.696.245 1.278.398l2.126.573q.818.214 1.819.593a8.4 8.4 0 0 1 1.932 1.032 5.25 5.25 0 0 1 1.533 1.656q.603 1.011.603 2.483 0 1.697-.889 3.066-.88 1.37-2.576 2.178-1.686.807-4.098.807-2.249 0-3.894-.726-1.636-.726-2.576-2.023-.93-1.299-1.053-3.016h2.617q.102 1.186.797 1.963.705.766 1.778 1.145a7.2 7.2 0 0 0 2.331.368q1.45 0 2.606-.471 1.155-.48 1.83-1.328.674-.859.674-2.004 0-1.042-.582-1.696-.583-.654-1.534-1.063a16 16 0 0 0-2.054-.716l-2.576-.736q-2.452-.705-3.883-2.013-1.431-1.309-1.431-3.424 0-1.758.95-3.066.961-1.319 2.576-2.044 1.625-.736 3.628-.736 2.024 0 3.598.725 1.573.716 2.494 1.963.93 1.247.981 2.831zm13.162 16.026q-2.27 0-3.915-1.002-1.635-1.011-2.524-2.82-.879-1.82-.879-4.232t.879-4.252q.888-1.85 2.473-2.882 1.594-1.042 3.72-1.042 1.226 0 2.423.408a6 6 0 0 1 2.177 1.329q.98.91 1.564 2.412.582 1.503.582 3.7v1.022h-12.101v-2.085h9.648q0-1.329-.531-2.371a4 4 0 0 0-1.493-1.646q-.96-.603-2.269-.603-1.44 0-2.493.716a4.7 4.7 0 0 0-1.605 1.84 5.4 5.4 0 0 0-.562 2.432v1.39q0 1.779.613 3.015.623 1.226 1.727 1.871 1.104.633 2.566.633.95 0 1.717-.265a3.7 3.7 0 0 0 1.339-.818 3.7 3.7 0 0 0 .868-1.37l2.331.654a5.2 5.2 0 0 1-1.237 2.085q-.869.89-2.146 1.39-1.278.491-2.872.491m21.289-12.51-2.166.613a4 4 0 0 0-.603-1.053q-.389-.52-1.063-.858-.675-.337-1.728-.337-1.44 0-2.401.664-.951.654-.951 1.666 0 .9.654 1.421t2.044.868l2.331.573q2.105.51 3.137 1.563 1.033 1.043 1.033 2.689 0 1.348-.777 2.412-.767 1.062-2.146 1.676t-3.21.613q-2.401 0-3.976-1.042-1.573-1.043-1.993-3.046l2.29-.573q.327 1.268 1.236 1.901.92.634 2.402.634 1.687 0 2.678-.715 1.002-.726 1.002-1.738 0-.817-.573-1.369-.572-.563-1.758-.839l-2.616-.613q-2.157-.51-3.168-1.584-1.002-1.083-1.002-2.708 0-1.33.746-2.351.756-1.022 2.054-1.605 1.31-.582 2.964-.582 2.331 0 3.659 1.022 1.34 1.021 1.901 2.698m15.038 0-2.167.613a4 4 0 0 0-.603-1.053q-.388-.52-1.063-.858t-1.727-.337q-1.442 0-2.402.664-.951.654-.951 1.666 0 .9.654 1.421t2.045.868l2.33.573q2.105.51 3.138 1.563 1.032 1.043 1.032 2.689 0 1.348-.777 2.412-.766 1.062-2.146 1.676t-3.21.613q-2.401 0-3.975-1.042t-1.993-3.046l2.289-.573q.327 1.268 1.237 1.901.92.634 2.402.634 1.686 0 2.677-.715 1.002-.726 1.002-1.738 0-.817-.572-1.369-.573-.563-1.758-.839l-2.617-.613q-2.157-.51-3.168-1.584-1.002-1.083-1.002-2.708 0-1.33.746-2.351.756-1.022 2.055-1.605 1.308-.582 2.964-.582 2.33 0 3.659 1.022 1.338 1.021 1.901 2.698M310.388 370v-15.699h2.412V370zm1.226-18.316q-.705 0-1.216-.48a1.54 1.54 0 0 1-.501-1.155q0-.675.501-1.155.511-.48 1.216-.48t1.206.48q.511.48.511 1.155t-.511 1.155a1.68 1.68 0 0 1-1.206.48m11.982 18.643q-2.126 0-3.731-1.012-1.594-1.011-2.494-2.831-.89-1.82-.889-4.252 0-2.453.889-4.282.9-1.83 2.494-2.842 1.605-1.011 3.731-1.011t3.72 1.011q1.605 1.012 2.494 2.842.899 1.829.899 4.282 0 2.433-.899 4.252-.89 1.82-2.494 2.831-1.594 1.012-3.72 1.012m0-2.167q1.614 0 2.657-.828 1.042-.827 1.543-2.177.501-1.348.501-2.923a8.4 8.4 0 0 0-.501-2.933q-.5-1.36-1.543-2.198t-2.657-.838q-1.615 0-2.658.838-1.042.839-1.543 2.198a8.4 8.4 0 0 0-.501 2.933q0 1.575.501 2.923.5 1.35 1.543 2.177 1.043.828 2.658.828m13.207-7.604V370h-2.412v-15.699h2.331v2.453h.204a4.5 4.5 0 0 1 1.676-1.922q1.125-.735 2.903-.735 1.594 0 2.79.654 1.195.644 1.86 1.962.665 1.308.665 3.312V370h-2.412v-9.812q0-1.85-.961-2.882-.962-1.043-2.637-1.043-1.155 0-2.065.501a3.6 3.6 0 0 0-1.42 1.462q-.522.96-.522 2.33M359.649 370v-20.932h2.535v18.683h9.73V370zm20.483.368q-1.493 0-2.709-.562a4.65 4.65 0 0 1-1.932-1.646q-.715-1.083-.715-2.616 0-1.35.531-2.187a3.75 3.75 0 0 1 1.421-1.329 7.5 7.5 0 0 1 1.962-.716 24 24 0 0 1 2.177-.388 95 95 0 0 1 2.321-.276q.899-.102 1.308-.337.419-.236.419-.818v-.082q0-1.512-.828-2.35-.817-.839-2.484-.839-1.727 0-2.708.757-.981.756-1.38 1.615l-2.289-.818q.612-1.431 1.635-2.228a6.1 6.1 0 0 1 2.248-1.124 9.3 9.3 0 0 1 2.413-.327q.756 0 1.737.184a5.5 5.5 0 0 1 1.911.725q.93.552 1.544 1.666.613 1.115.613 2.985V370h-2.412v-2.126h-.123q-.245.511-.817 1.094-.573.582-1.523.991t-2.32.409m.367-2.167q1.43 0 2.413-.562.99-.563 1.492-1.451.51-.89.511-1.871v-2.207q-.153.184-.675.337-.51.143-1.185.255-.665.103-1.298.184-.624.072-1.012.123a9 9 0 0 0-1.758.399q-.809.266-1.308.807-.492.531-.491 1.451 0 1.258.93 1.901.94.634 2.381.634m12.222 7.686q-.613 0-1.094-.102-.48-.092-.664-.184l.613-2.126q.879.224 1.554.164.674-.062 1.196-.603.531-.533.971-1.728l.449-1.226-5.805-15.781h2.616l4.334 12.51h.163l4.334-12.51h2.617l-6.664 17.988q-.45 1.216-1.114 2.014a4.2 4.2 0 0 1-1.544 1.196q-.869.388-1.962.388m20.487-5.56q-2.268 0-3.914-1.002-1.635-1.011-2.525-2.82-.879-1.82-.879-4.232t.879-4.252q.89-1.85 2.474-2.882 1.594-1.042 3.72-1.042 1.227 0 2.422.408a6 6 0 0 1 2.177 1.329q.982.91 1.564 2.412.583 1.503.583 3.7v1.022h-12.102v-2.085h9.649q0-1.329-.532-2.371a4 4 0 0 0-1.492-1.646q-.96-.603-2.269-.603-1.441 0-2.494.716a4.7 4.7 0 0 0-1.604 1.84 5.4 5.4 0 0 0-.563 2.432v1.39q0 1.779.614 3.015.623 1.226 1.727 1.871 1.104.633 2.565.633.95 0 1.717-.265a3.7 3.7 0 0 0 1.339-.818 3.7 3.7 0 0 0 .869-1.37l2.33.654a5.16 5.16 0 0 1-1.236 2.085q-.869.89-2.147 1.39-1.277.491-2.872.491m10.17-.327v-15.699h2.33v2.371h.164q.43-1.165 1.553-1.891 1.125-.725 2.535-.725.266 0 .664.01.399.01.603.031v2.453a6 6 0 0 0-.562-.092 5.5 5.5 0 0 0-.909-.072q-1.145 0-2.044.48a3.63 3.63 0 0 0-1.411 1.309q-.511.828-.511 1.89V370zm-277.804.318q-2.409 0-4.296-.886-1.875-.886-2.977-2.443t-1.148-3.569h4.773q.08 1.353 1.136 2.194 1.057.84 2.512.841 1.159 0 2.045-.512a3.65 3.65 0 0 0 1.398-1.443q.511-.931.511-2.136 0-1.228-.522-2.159a3.7 3.7 0 0 0-1.421-1.455q-.909-.523-2.079-.534a4.9 4.9 0 0 0-1.989.42q-.954.421-1.489 1.148l-4.375-.784 1.103-12.273h14.227v4.023h-10.171l-.602 5.83h.137q.613-.864 1.852-1.432t2.773-.568q2.102 0 3.75.988a7.1 7.1 0 0 1 2.602 2.716q.954 1.716.943 3.955.012 2.352-1.091 4.181-1.09 1.819-3.057 2.864-1.955 1.034-4.545 1.034"/><path fill="#C5EBF5" stroke="#0E64DD" stroke-width="3" d="M103.5 418.5h466v83h-466z"/><path stroke="#0E64DD" stroke-width="3" d="M189 503v-86"/><path fill="#002F71" d="M244.39 454.317v-2.249h15.699v2.249h-6.582V473h-2.535v-18.683zM262.044 473v-15.699h2.33v2.371h.164q.43-1.165 1.553-1.891 1.125-.725 2.535-.725.266 0 .664.01.399.01.603.031v2.453a6 6 0 0 0-.562-.092 5.5 5.5 0 0 0-.909-.072q-1.145 0-2.045.48a3.63 3.63 0 0 0-1.41 1.309q-.511.828-.511 1.89V473zm15.328.368q-1.492 0-2.708-.562a4.65 4.65 0 0 1-1.932-1.646q-.715-1.083-.715-2.616 0-1.35.531-2.187a3.74 3.74 0 0 1 1.421-1.329 7.5 7.5 0 0 1 1.962-.716 24 24 0 0 1 2.177-.388 95 95 0 0 1 2.32-.276q.9-.102 1.309-.337.419-.236.419-.818v-.082q0-1.512-.828-2.35-.817-.839-2.484-.839-1.727 0-2.708.757-.982.756-1.38 1.615l-2.29-.818q.613-1.431 1.636-2.228a6.1 6.1 0 0 1 2.248-1.124 9.3 9.3 0 0 1 2.412-.327q.757 0 1.738.184a5.5 5.5 0 0 1 1.911.725q.93.552 1.543 1.666.614 1.115.614 2.985V473h-2.412v-2.126h-.123q-.245.511-.818 1.094-.572.582-1.523.991-.95.41-2.32.409m.368-2.167q1.431 0 2.412-.562.992-.563 1.493-1.451.51-.89.511-1.871v-2.207q-.154.184-.675.337-.511.143-1.186.255-.663.103-1.298.184-.623.072-1.011.123a9 9 0 0 0-1.758.399q-.808.266-1.309.807-.49.531-.49 1.451 0 1.258.93 1.901.94.634 2.381.634m13.642-7.645V473h-2.412v-15.699h2.331v2.453h.204a4.5 4.5 0 0 1 1.676-1.922q1.124-.735 2.903-.735 1.594 0 2.79.654 1.196.644 1.86 1.962.665 1.308.665 3.312V473h-2.412v-9.812q0-1.85-.961-2.882-.962-1.043-2.637-1.043-1.155 0-2.065.501a3.6 3.6 0 0 0-1.42 1.462q-.522.96-.522 2.33m25.545-2.739-2.167.613a4 4 0 0 0-.603-1.053q-.389-.52-1.063-.858-.675-.337-1.728-.337-1.44 0-2.401.664-.951.654-.951 1.666 0 .9.654 1.421t2.044.868l2.331.573q2.105.51 3.137 1.563 1.033 1.043 1.033 2.689 0 1.348-.777 2.412-.767 1.062-2.146 1.676t-3.21.613q-2.401 0-3.976-1.042-1.573-1.043-1.993-3.046l2.29-.573q.327 1.268 1.237 1.901.92.634 2.401.634 1.687 0 2.678-.715 1.002-.726 1.002-1.738 0-.817-.573-1.369-.572-.563-1.757-.839l-2.617-.613q-2.157-.51-3.168-1.584-1.002-1.083-1.002-2.708 0-1.33.746-2.351.756-1.022 2.054-1.605 1.31-.582 2.964-.582 2.331 0 3.659 1.022 1.34 1.021 1.902 2.698m3.917 18.07v-21.586h2.33v2.494h.286q.266-.409.736-1.043.48-.644 1.37-1.144.899-.511 2.432-.511 1.983 0 3.496.991 1.512.992 2.361 2.811.848 1.819.848 4.292 0 2.494-.848 4.324-.85 1.82-2.351 2.821-1.503.991-3.465.991-1.512 0-2.422-.501-.91-.51-1.401-1.155a15 15 0 0 1-.756-1.083h-.204v8.299zm2.371-13.737q0 1.779.521 3.138.522 1.35 1.523 2.116 1.002.756 2.453.756 1.512 0 2.524-.797 1.023-.808 1.534-2.167.52-1.37.521-3.046 0-1.655-.511-2.984-.501-1.34-1.523-2.116-1.012-.786-2.545-.787-1.472 0-2.473.746-1.002.736-1.513 2.065-.511 1.319-.511 3.076m21.545 8.177q-2.126 0-3.73-1.012-1.595-1.011-2.494-2.831-.89-1.82-.89-4.252 0-2.453.89-4.282.899-1.83 2.494-2.842 1.604-1.011 3.73-1.011t3.72 1.011q1.606 1.012 2.494 2.842.9 1.829.9 4.282 0 2.433-.9 4.252-.888 1.82-2.494 2.831-1.594 1.012-3.72 1.012m0-2.167q1.615 0 2.658-.828 1.042-.827 1.543-2.177.501-1.348.501-2.923a8.4 8.4 0 0 0-.501-2.933q-.5-1.36-1.543-2.198t-2.658-.838q-1.614 0-2.657.838-1.043.839-1.544 2.198a8.4 8.4 0 0 0-.5 2.933q0 1.575.5 2.923.501 1.35 1.544 2.177 1.043.828 2.657.828m10.796 1.84v-15.699h2.33v2.371h.164q.43-1.165 1.553-1.891 1.125-.725 2.535-.725.266 0 .664.01.399.01.603.031v2.453a6 6 0 0 0-.562-.092 5.5 5.5 0 0 0-.909-.072q-1.146 0-2.045.48a3.63 3.63 0 0 0-1.41 1.309q-.511.828-.511 1.89V473zm18.52-15.699v2.044h-8.136v-2.044zm-5.765-3.761h2.412v14.963q0 1.022.297 1.533.306.501.777.675.48.163 1.011.163a4 4 0 0 0 .654-.041l.409-.082.491 2.167a5 5 0 0 1-.685.184 5 5 0 0 1-1.114.102 4.85 4.85 0 0 1-2.003-.439 3.97 3.97 0 0 1-1.615-1.339q-.634-.9-.634-2.269zM386.126 473v-20.932h2.535v18.683h9.73V473zm20.482.368q-1.492 0-2.708-.562a4.65 4.65 0 0 1-1.932-1.646q-.715-1.083-.715-2.616 0-1.35.531-2.187a3.74 3.74 0 0 1 1.421-1.329 7.5 7.5 0 0 1 1.962-.716 24 24 0 0 1 2.177-.388 95 95 0 0 1 2.32-.276q.9-.102 1.309-.337.419-.236.419-.818v-.082q0-1.512-.828-2.35-.818-.839-2.484-.839-1.727 0-2.708.757-.982.756-1.38 1.615l-2.29-.818q.613-1.431 1.636-2.228a6.1 6.1 0 0 1 2.248-1.124 9.3 9.3 0 0 1 2.412-.327q.757 0 1.738.184a5.5 5.5 0 0 1 1.911.725q.93.552 1.543 1.666.614 1.115.614 2.985V473h-2.412v-2.126h-.123q-.245.511-.818 1.094-.572.582-1.523.991-.95.41-2.32.409m.368-2.167q1.431 0 2.412-.562.992-.563 1.493-1.451.51-.89.511-1.871v-2.207q-.154.184-.675.337-.511.143-1.186.255-.663.103-1.298.184-.623.072-1.011.123a9 9 0 0 0-1.758.399q-.808.266-1.309.807-.49.531-.49 1.451 0 1.258.93 1.901.94.634 2.381.634m12.222 7.686q-.614 0-1.094-.102-.48-.092-.664-.184l.613-2.126q.879.224 1.554.164.674-.062 1.195-.603.532-.533.971-1.728l.45-1.226-5.805-15.781h2.616l4.334 12.51h.163l4.334-12.51h2.616l-6.664 17.988q-.449 1.216-1.114 2.014a4.2 4.2 0 0 1-1.543 1.196q-.869.388-1.962.388m20.487-5.56q-2.269 0-3.914-1.002-1.636-1.011-2.525-2.82-.879-1.82-.879-4.232t.879-4.252q.89-1.85 2.473-2.882 1.595-1.042 3.721-1.042 1.226 0 2.422.408a6 6 0 0 1 2.177 1.329q.981.91 1.564 2.412.582 1.503.583 3.7v1.022h-12.102v-2.085h9.649q0-1.329-.532-2.371a4 4 0 0 0-1.492-1.646q-.961-.603-2.269-.603-1.441 0-2.494.716a4.7 4.7 0 0 0-1.605 1.84 5.4 5.4 0 0 0-.562 2.432v1.39q0 1.779.613 3.015.624 1.226 1.728 1.871 1.104.633 2.565.633.95 0 1.717-.265a3.7 3.7 0 0 0 1.339-.818q.562-.552.869-1.37l2.33.654a5.16 5.16 0 0 1-1.236 2.085q-.87.89-2.147 1.39-1.278.491-2.872.491m10.17-.327v-15.699h2.33v2.371h.164q.43-1.165 1.553-1.891 1.125-.725 2.535-.725.266 0 .664.01.399.01.603.031v2.453a6 6 0 0 0-.562-.092 5.5 5.5 0 0 0-.91-.072q-1.144 0-2.044.48a3.63 3.63 0 0 0-1.41 1.309q-.511.828-.511 1.89V473zm-313.665-4.091v-3.875l9.716-15.307h3.341v5.364h-1.977l-6.125 9.693v.182h13.807v3.943zM147.361 473v-5.273l.091-1.716v-16.284h4.613V473z"/><path fill="#C5EBF5" stroke="#0E64DD" stroke-width="3" d="M103.5 519.5h466v83h-466z"/><path stroke="#0E64DD" stroke-width="3" d="M189 604v-86"/><path fill="#002F71" d="M262.133 553.068V574h-2.453l-11.406-16.435h-.205V574h-2.534v-20.932h2.453l11.447 16.476h.204v-16.476zm11.327 21.259q-2.268 0-3.914-1.002-1.635-1.011-2.525-2.82-.879-1.82-.879-4.232t.879-4.252q.89-1.85 2.474-2.882 1.594-1.042 3.72-1.042 1.227 0 2.422.408a6 6 0 0 1 2.177 1.329q.981.91 1.564 2.412.583 1.503.583 3.7v1.022h-12.102v-2.085h9.649q0-1.329-.532-2.371a4 4 0 0 0-1.492-1.646q-.96-.603-2.269-.603-1.441 0-2.494.716a4.7 4.7 0 0 0-1.604 1.84 5.4 5.4 0 0 0-.563 2.432v1.39q0 1.779.614 3.015.623 1.226 1.727 1.871 1.104.633 2.565.633.95 0 1.717-.265a3.7 3.7 0 0 0 1.339-.818 3.7 3.7 0 0 0 .869-1.37l2.33.654a5.16 5.16 0 0 1-1.236 2.085q-.869.89-2.147 1.39-1.277.491-2.872.491m16.997-16.026v2.044h-8.135v-2.044zm-5.764-3.761h2.412v14.963q0 1.021.296 1.533.307.501.777.675.48.163 1.012.163a4 4 0 0 0 .654-.041l.409-.082.491 2.167a5 5 0 0 1-.685.184 5 5 0 0 1-1.114.102 4.9 4.9 0 0 1-2.004-.439 4 4 0 0 1-1.614-1.339q-.634-.9-.634-2.269zm12.95 19.46-4.784-15.699h2.535l3.393 12.02h.164l3.352-12.02h2.576l3.311 11.979h.164l3.393-11.979h2.535L309.499 574h-2.372l-3.434-12.06h-.245L300.014 574zm25.671.327q-2.125 0-3.73-1.012-1.594-1.011-2.494-2.831-.89-1.82-.889-4.252 0-2.453.889-4.282.9-1.83 2.494-2.842 1.605-1.011 3.73-1.011 2.127 0 3.721 1.011 1.605 1.012 2.494 2.842.899 1.829.899 4.282 0 2.433-.899 4.252-.89 1.82-2.494 2.831-1.594 1.012-3.721 1.012m0-2.167q1.615 0 2.658-.828 1.042-.827 1.543-2.177.501-1.348.501-2.923a8.4 8.4 0 0 0-.501-2.933q-.5-1.36-1.543-2.198t-2.658-.838-2.657.838q-1.042.839-1.543 2.198a8.4 8.4 0 0 0-.501 2.933q0 1.575.501 2.923.5 1.35 1.543 2.177 1.043.828 2.657.828M334.11 574v-15.699h2.33v2.371h.164q.429-1.165 1.554-1.891 1.124-.725 2.534-.725.266 0 .665.01.397.01.603.031v2.453a7 7 0 0 0-.562-.092 5.5 5.5 0 0 0-.91-.072q-1.145 0-2.044.48a3.63 3.63 0 0 0-1.411 1.309q-.51.828-.511 1.89V574zm12.957-5.724-.04-2.984h.49l6.868-6.991h2.985l-7.318 7.4h-.205zM344.819 574v-20.932h2.412V574zm9.975 0-6.132-7.768 1.717-1.676 7.482 9.444zm14.102 0v-20.932h2.535v18.683h9.73V574zm20.483.368q-1.493 0-2.709-.562a4.64 4.64 0 0 1-1.931-1.646q-.716-1.083-.716-2.616 0-1.35.532-2.187a3.74 3.74 0 0 1 1.42-1.329 7.5 7.5 0 0 1 1.963-.716 24 24 0 0 1 2.177-.388 95 95 0 0 1 2.32-.276q.899-.103 1.308-.337.419-.236.419-.818v-.082q0-1.513-.828-2.35-.818-.839-2.483-.839-1.728 0-2.709.757-.981.756-1.38 1.615l-2.289-.818q.613-1.431 1.635-2.228a6.1 6.1 0 0 1 2.249-1.124 9.3 9.3 0 0 1 2.412-.327q.756 0 1.737.184a5.6 5.6 0 0 1 1.912.725q.93.552 1.543 1.666.613 1.115.613 2.985V574h-2.412v-2.126h-.123q-.245.511-.817 1.094t-1.523.991q-.95.41-2.32.409m.368-2.167q1.431 0 2.412-.562.991-.563 1.492-1.451a3.7 3.7 0 0 0 .511-1.871v-2.207q-.153.183-.675.337-.51.143-1.185.255-.665.103-1.298.184-.624.072-1.012.123a9 9 0 0 0-1.758.399q-.807.266-1.308.807-.49.531-.491 1.451 0 1.258.93 1.901.94.634 2.382.634m12.221 7.686q-.613 0-1.094-.102-.48-.092-.664-.184l.613-2.126q.879.224 1.554.164.675-.062 1.196-.603.531-.533.971-1.728l.449-1.226-5.805-15.781h2.617l4.333 12.51h.164l4.333-12.51h2.617l-6.664 17.988q-.45 1.216-1.114 2.014a4.2 4.2 0 0 1-1.544 1.196q-.869.388-1.962.388m20.488-5.56q-2.27 0-3.915-1.002-1.635-1.011-2.525-2.82-.879-1.82-.879-4.232t.879-4.252q.89-1.85 2.474-2.882 1.594-1.042 3.72-1.042 1.226 0 2.423.408a6 6 0 0 1 2.177 1.329q.981.91 1.563 2.412.583 1.503.583 3.7v1.022h-12.101v-2.085h9.648q0-1.329-.532-2.371a4 4 0 0 0-1.492-1.646q-.96-.603-2.269-.603-1.441 0-2.494.716a4.7 4.7 0 0 0-1.604 1.84 5.4 5.4 0 0 0-.562 2.432v1.39q0 1.779.613 3.015.623 1.226 1.727 1.871 1.104.633 2.566.633.95 0 1.717-.265a3.7 3.7 0 0 0 1.339-.818 3.7 3.7 0 0 0 .868-1.37l2.331.654a5.2 5.2 0 0 1-1.237 2.085q-.869.89-2.146 1.39-1.279.491-2.872.491m10.169-.327v-15.699h2.33v2.371h.164q.429-1.165 1.554-1.891 1.124-.725 2.534-.725.266 0 .665.01.397.01.603.031v2.453a7 7 0 0 0-.562-.092 5.5 5.5 0 0 0-.91-.072q-1.145 0-2.044.48a3.63 3.63 0 0 0-1.411 1.309q-.51.828-.511 1.89V574zm-287.183.318q-2.546 0-4.534-.875-1.978-.886-3.125-2.432-1.137-1.556-1.171-3.591h4.955q.045.853.557 1.5.522.637 1.386.989t1.943.352q1.125 0 1.989-.397.863-.399 1.352-1.103t.489-1.625q0-.931-.523-1.647-.511-.727-1.477-1.137-.955-.409-2.273-.409h-2.171v-3.613h2.171q1.113 0 1.966-.387.864-.386 1.341-1.068.477-.693.477-1.614 0-.874-.42-1.534a2.8 2.8 0 0 0-1.16-1.045q-.738-.375-1.727-.375-1 0-1.829.363a3.2 3.2 0 0 0-1.33 1.012 2.66 2.66 0 0 0-.534 1.545h-4.716q.034-2.011 1.148-3.545t3-2.398q1.898-.875 4.284-.875 2.409 0 4.216.875 1.806.875 2.807 2.364 1.01 1.478 1 3.318.01 1.954-1.216 3.261-1.216 1.307-3.171 1.659v.182q2.568.33 3.909 1.784 1.353 1.443 1.341 3.614.012 1.989-1.147 3.534-1.148 1.545-3.171 2.432-2.023.886-4.636.886"/><path fill="#fff" stroke="#0E64DD" stroke-width="3" d="M103.5 620.5h466v83h-466z"/><path stroke="#0E64DD" stroke-width="3" d="M189 705v-86"/><path fill="#002F71" d="M251.994 675h-6.459v-20.932h6.745q3.046 0 5.213 1.257 2.167 1.247 3.322 3.588 1.155 2.33 1.155 5.58 0 3.271-1.165 5.632-1.165 2.35-3.394 3.618-2.228 1.257-5.417 1.257m-3.925-2.249h3.762q2.595 0 4.303-1.001 1.707-1.002 2.545-2.852t.838-4.405q0-2.534-.828-4.364-.828-1.84-2.474-2.821-1.645-.991-4.098-.991h-4.048zm22.445 2.617q-1.492 0-2.708-.562a4.65 4.65 0 0 1-1.932-1.646q-.715-1.083-.715-2.616 0-1.35.531-2.187a3.74 3.74 0 0 1 1.421-1.329 7.5 7.5 0 0 1 1.962-.716 24 24 0 0 1 2.177-.388 95 95 0 0 1 2.32-.276q.9-.103 1.308-.337.42-.236.42-.818v-.082q0-1.513-.828-2.35-.817-.839-2.484-.839-1.727 0-2.709.757-.981.756-1.379 1.615l-2.29-.818q.613-1.431 1.636-2.228a6.1 6.1 0 0 1 2.248-1.124 9.3 9.3 0 0 1 2.412-.327q.756 0 1.738.184a5.5 5.5 0 0 1 1.911.725q.93.552 1.543 1.666.614 1.115.614 2.985V675h-2.412v-2.126h-.123q-.245.511-.818 1.094-.572.583-1.523.991-.95.41-2.32.409m.368-2.167q1.431 0 2.412-.562.992-.563 1.492-1.451a3.7 3.7 0 0 0 .512-1.871v-2.207q-.154.183-.675.337-.511.143-1.186.255-.664.103-1.298.184-.623.072-1.012.123a9.3 9.3 0 0 0-1.758.399q-.807.266-1.308.807-.49.531-.49 1.451 0 1.258.93 1.901.94.634 2.381.634m18.058-13.9v2.044h-8.136v-2.044zm-5.765-3.761h2.412v14.963q0 1.021.297 1.533.306.501.776.675.481.163 1.012.163a4 4 0 0 0 .654-.041l.409-.082.491 2.167a5 5 0 0 1-.685.184 5 5 0 0 1-1.114.102 4.85 4.85 0 0 1-2.003-.439 3.97 3.97 0 0 1-1.615-1.339q-.634-.9-.634-2.269zm14.013 19.828q-1.493 0-2.709-.562a4.64 4.64 0 0 1-1.931-1.646q-.716-1.083-.716-2.616 0-1.35.532-2.187a3.74 3.74 0 0 1 1.42-1.329 7.5 7.5 0 0 1 1.963-.716 24 24 0 0 1 2.177-.388 95 95 0 0 1 2.32-.276q.899-.103 1.308-.337.419-.236.419-.818v-.082q0-1.513-.828-2.35-.818-.839-2.483-.839-1.728 0-2.709.757-.981.756-1.38 1.615l-2.289-.818q.613-1.431 1.635-2.228a6.1 6.1 0 0 1 2.249-1.124 9.3 9.3 0 0 1 2.412-.327q.756 0 1.737.184a5.6 5.6 0 0 1 1.912.725q.93.552 1.543 1.666.613 1.115.613 2.985V675h-2.412v-2.126h-.123q-.245.511-.817 1.094-.573.583-1.523.991-.95.41-2.32.409m.368-2.167q1.431 0 2.412-.562.991-.563 1.492-1.451a3.7 3.7 0 0 0 .511-1.871v-2.207q-.153.183-.675.337-.51.143-1.185.255-.665.103-1.298.184-.624.072-1.012.123a9 9 0 0 0-1.758.399q-.807.266-1.308.807-.49.531-.491 1.451 0 1.258.93 1.901.94.634 2.382.634m13.642-19.133V675h-2.412v-20.932zM315.616 675v-15.699h2.412V675zm1.226-18.316q-.705 0-1.216-.48a1.54 1.54 0 0 1-.501-1.155q0-.675.501-1.155.511-.48 1.216-.48t1.206.48q.511.48.511 1.155t-.511 1.155a1.68 1.68 0 0 1-1.206.48m8.016 8.872V675h-2.412v-15.699h2.33v2.453h.204a4.5 4.5 0 0 1 1.677-1.922q1.124-.735 2.902-.735 1.594 0 2.791.654 1.195.644 1.86 1.962.664 1.308.664 3.312V675h-2.412v-9.812q0-1.85-.961-2.882-.96-1.043-2.637-1.043-1.155 0-2.064.501-.9.5-1.421 1.462-.52.96-.521 2.33m16.672 3.72-.041-2.984h.491l6.868-6.991h2.985l-7.318 7.4h-.205zM339.282 675v-20.932h2.412V675zm9.975 0-6.132-7.768 1.717-1.676 7.481 9.444zm14.102 0v-20.932h2.535v18.683h9.73V675zm20.483.368q-1.493 0-2.709-.562a4.65 4.65 0 0 1-1.932-1.646q-.715-1.083-.715-2.616 0-1.35.531-2.187a3.75 3.75 0 0 1 1.421-1.329 7.5 7.5 0 0 1 1.963-.716 24 24 0 0 1 2.177-.388 94 94 0 0 1 2.32-.276q.899-.103 1.308-.337.419-.236.419-.818v-.082q0-1.513-.828-2.35-.817-.839-2.484-.839-1.727 0-2.708.757-.981.756-1.38 1.615l-2.289-.818q.614-1.431 1.635-2.228a6.1 6.1 0 0 1 2.249-1.124 9.3 9.3 0 0 1 2.412-.327q.756 0 1.737.184a5.5 5.5 0 0 1 1.911.725q.931.552 1.544 1.666.613 1.115.613 2.985V675h-2.412v-2.126h-.123q-.245.511-.817 1.094-.573.583-1.523.991-.95.41-2.32.409m.368-2.167q1.431 0 2.412-.562.991-.563 1.492-1.451a3.7 3.7 0 0 0 .511-1.871v-2.207q-.153.183-.675.337-.51.143-1.185.255-.665.103-1.298.184-.624.072-1.012.123a9 9 0 0 0-1.758.399q-.807.266-1.308.807-.49.531-.491 1.451 0 1.258.93 1.901.94.634 2.382.634m12.221 7.686q-.613 0-1.094-.102-.48-.092-.664-.184l.613-2.126q.879.224 1.554.164.674-.062 1.196-.603.531-.533.971-1.728l.449-1.226-5.805-15.781h2.616l4.334 12.51h.164l4.333-12.51h2.617l-6.664 17.988q-.45 1.216-1.114 2.014a4.2 4.2 0 0 1-1.544 1.196q-.868.388-1.962.388m20.487-5.56q-2.268 0-3.914-1.002-1.635-1.011-2.525-2.82-.879-1.82-.879-4.232t.879-4.252q.89-1.85 2.474-2.882 1.594-1.042 3.72-1.042 1.227 0 2.422.408a6 6 0 0 1 2.177 1.329q.982.91 1.564 2.412.583 1.503.583 3.7v1.022h-12.102v-2.085h9.649q0-1.329-.532-2.371a4 4 0 0 0-1.492-1.646q-.96-.603-2.269-.603-1.441 0-2.494.716a4.7 4.7 0 0 0-1.604 1.84 5.4 5.4 0 0 0-.562 2.432v1.39q0 1.779.613 3.015.623 1.226 1.727 1.871 1.104.633 2.565.633.951 0 1.718-.265a3.7 3.7 0 0 0 1.338-.818 3.7 3.7 0 0 0 .869-1.37l2.331.654a5.2 5.2 0 0 1-1.237 2.085q-.869.89-2.147 1.39-1.277.491-2.872.491m10.17-.327v-15.699h2.33v2.371h.164q.429-1.165 1.554-1.891 1.124-.725 2.534-.725.266 0 .665.01.397.01.603.031v2.453a7 7 0 0 0-.563-.092 5.5 5.5 0 0 0-.909-.072q-1.145 0-2.044.48a3.63 3.63 0 0 0-1.411 1.309q-.51.828-.511 1.89V675zm-289.78 0v-3.545l8.284-7.671a31 31 0 0 0 1.773-1.841q.727-.817 1.102-1.602.375-.795.375-1.716 0-1.023-.466-1.761-.465-.75-1.272-1.148-.807-.41-1.83-.409-1.068 0-1.863.432-.796.432-1.228 1.238-.432.807-.432 1.921h-4.67q0-2.285 1.034-3.966t2.898-2.602 4.295-.921q2.5 0 4.353.886 1.863.875 2.897 2.432 1.034 1.558 1.034 3.568a6.9 6.9 0 0 1-.522 2.603q-.512 1.284-1.83 2.852-1.318 1.557-3.716 3.739l-3.398 3.329v.159h9.773V675z"/><path fill="#fff" stroke="#0E64DD" stroke-width="3" d="M103.5 721.5h466v83h-466z"/><path stroke="#0E64DD" stroke-width="3" d="M189 806v-86"/><path fill="#002F71" d="M245.535 776v-20.932h7.072q2.464 0 4.027.889 1.575.879 2.331 2.382.756 1.502.756 3.352t-.756 3.363q-.747 1.512-2.31 2.412-1.564.889-4.007.889h-5.069v-2.249h4.988q1.686 0 2.708-.582 1.021-.583 1.482-1.574.47-1.002.47-2.259t-.47-2.249q-.46-.991-1.492-1.553-1.032-.572-2.739-.572h-4.457V776zm20.354-9.444V776h-2.412v-20.932h2.412v7.686h.205a4.44 4.44 0 0 1 1.655-1.932q1.114-.725 2.965-.725 1.604 0 2.81.643 1.206.635 1.871 1.953.674 1.307.674 3.332V776h-2.412v-9.812q0-1.87-.971-2.892-.96-1.033-2.668-1.033-1.186 0-2.125.501a3.66 3.66 0 0 0-1.472 1.462q-.532.96-.532 2.33m15.584 15.331q-.613 0-1.093-.102-.48-.092-.665-.184l.614-2.126q.879.224 1.553.164.675-.062 1.196-.603.531-.533.971-1.728l.45-1.226-5.806-15.781h2.617l4.333 12.51h.164l4.334-12.51h2.616l-6.664 17.988q-.45 1.216-1.114 2.014a4.2 4.2 0 0 1-1.543 1.196q-.869.388-1.963.388m25.588-18.07-2.167.613a4 4 0 0 0-.603-1.053q-.388-.52-1.063-.858t-1.727-.337q-1.441 0-2.402.664-.951.654-.951 1.666 0 .9.655 1.421.654.521 2.044.868l2.33.573q2.106.51 3.138 1.563 1.032 1.043 1.032 2.689 0 1.349-.777 2.412-.766 1.062-2.146 1.676t-3.209.613q-2.403 0-3.976-1.042-1.574-1.043-1.993-3.046l2.289-.573q.328 1.268 1.237 1.901.92.634 2.402.634 1.686 0 2.678-.715 1-.726 1.001-1.738 0-.817-.572-1.369-.573-.563-1.758-.839l-2.617-.613q-2.156-.51-3.168-1.584-1.002-1.083-1.002-2.708 0-1.33.747-2.351.756-1.022 2.054-1.605 1.308-.582 2.964-.582 2.33 0 3.659 1.022 1.339 1.021 1.901 2.698M310.978 776v-15.699h2.412V776zm1.227-18.316q-.706 0-1.217-.48a1.54 1.54 0 0 1-.501-1.155q0-.675.501-1.155.511-.48 1.217-.48.705 0 1.206.48.51.48.511 1.155 0 .675-.511 1.155a1.68 1.68 0 0 1-1.206.48m11.981 18.643q-2.208 0-3.802-1.042-1.595-1.043-2.453-2.872-.86-1.83-.859-4.181 0-2.391.879-4.221.889-1.84 2.474-2.872 1.594-1.042 3.72-1.042 1.656 0 2.984.613a5.7 5.7 0 0 1 2.177 1.717q.849 1.104 1.053 2.575h-2.412q-.276-1.073-1.226-1.901-.94-.837-2.535-.838-1.411 0-2.474.736-1.052.726-1.645 2.055-.583 1.318-.583 3.096 0 1.82.573 3.169.582 1.349 1.635 2.095 1.063.746 2.494.746.94 0 1.707-.327a3.5 3.5 0 0 0 1.298-.94q.531-.614.756-1.472h2.412a5.6 5.6 0 0 1-1.012 2.504q-.797 1.104-2.115 1.758-1.31.644-3.046.644m14.319.041q-1.493 0-2.708-.562a4.65 4.65 0 0 1-1.932-1.646q-.716-1.083-.716-2.616 0-1.35.532-2.187a3.74 3.74 0 0 1 1.421-1.329 7.5 7.5 0 0 1 1.962-.716 24 24 0 0 1 2.177-.388 95 95 0 0 1 2.32-.276q.9-.103 1.308-.337.42-.236.419-.818v-.082q0-1.512-.828-2.35-.818-.839-2.483-.839-1.728 0-2.709.757-.981.756-1.379 1.615l-2.29-.818q.613-1.431 1.635-2.228a6.1 6.1 0 0 1 2.249-1.124 9.3 9.3 0 0 1 2.412-.327 9.5 9.5 0 0 1 1.738.184 5.5 5.5 0 0 1 1.911.725q.93.552 1.543 1.666.613 1.115.613 2.985V776h-2.412v-2.126h-.122q-.245.511-.818 1.094-.572.583-1.523.991-.95.41-2.32.409m.368-2.167q1.431 0 2.412-.562.991-.563 1.492-1.451a3.7 3.7 0 0 0 .511-1.871v-2.207q-.153.183-.674.337-.511.143-1.186.255-.664.103-1.298.184-.624.072-1.012.123a9 9 0 0 0-1.758.399q-.807.265-1.308.807-.49.531-.491 1.451 0 1.258.931 1.901.94.634 2.381.634m13.642-19.133V776h-2.412v-20.932zM365.355 776v-20.932h2.535v18.683h9.73V776zm20.482.368q-1.492 0-2.708-.562a4.65 4.65 0 0 1-1.932-1.646q-.715-1.083-.715-2.616 0-1.35.531-2.187a3.74 3.74 0 0 1 1.421-1.329 7.5 7.5 0 0 1 1.962-.716 24 24 0 0 1 2.177-.388 95 95 0 0 1 2.32-.276q.9-.103 1.308-.337.42-.236.42-.818v-.082q0-1.512-.828-2.35-.817-.839-2.484-.839-1.728 0-2.708.757-.982.756-1.38 1.615l-2.29-.818q.613-1.431 1.636-2.228a6.1 6.1 0 0 1 2.248-1.124 9.3 9.3 0 0 1 2.412-.327q.757 0 1.738.184a5.5 5.5 0 0 1 1.911.725q.93.552 1.543 1.666.614 1.115.614 2.985V776h-2.412v-2.126h-.123q-.245.511-.818 1.094-.572.583-1.523.991-.95.41-2.32.409m.368-2.167q1.431 0 2.412-.562.992-.563 1.492-1.451a3.7 3.7 0 0 0 .512-1.871v-2.207q-.154.183-.675.337-.511.143-1.186.255-.664.103-1.298.184-.623.072-1.012.123a9 9 0 0 0-1.757.399q-.808.265-1.309.807-.49.531-.49 1.451 0 1.258.93 1.901.94.634 2.381.634m12.222 7.686q-.614 0-1.094-.102-.48-.092-.664-.184l.613-2.126q.88.224 1.553.164.675-.062 1.196-.603.532-.533.971-1.728l.45-1.226-5.805-15.781h2.616l4.334 12.51h.163l4.334-12.51h2.616l-6.664 17.988q-.449 1.216-1.114 2.014a4.2 4.2 0 0 1-1.543 1.196q-.868.388-1.962.388m20.487-5.56q-2.269 0-3.914-1.002-1.636-1.011-2.525-2.82-.879-1.82-.879-4.232t.879-4.252q.89-1.85 2.473-2.882 1.594-1.042 3.721-1.042 1.226 0 2.422.408a6 6 0 0 1 2.177 1.329q.98.91 1.564 2.412.582 1.503.582 3.7v1.022h-12.101v-2.085h9.648q0-1.329-.531-2.371a4 4 0 0 0-1.492-1.646q-.961-.603-2.269-.603-1.441 0-2.494.716a4.7 4.7 0 0 0-1.605 1.84 5.4 5.4 0 0 0-.562 2.432v1.39q0 1.779.613 3.015.624 1.226 1.728 1.871 1.104.633 2.565.633.95 0 1.717-.265a3.7 3.7 0 0 0 1.339-.818q.562-.552.869-1.37l2.33.654a5.15 5.15 0 0 1-1.237 2.085q-.868.89-2.146 1.39-1.278.491-2.872.491m10.17-.327v-15.699h2.33v2.371h.164q.43-1.165 1.553-1.891 1.125-.725 2.535-.725.265 0 .664.01t.603.031v2.453a7 7 0 0 0-.562-.092 5.5 5.5 0 0 0-.91-.072q-1.144 0-2.044.48a3.6 3.6 0 0 0-1.41 1.309q-.511.828-.511 1.89V776zm-279.401-23.273V776h-4.92v-18.602h-.137l-5.329 3.341v-4.364l5.761-3.648z"/><path fill="#E2F5FA" stroke="#6ECCE5" stroke-miterlimit="10" stroke-width="1.913" d="M1527.23 560.183c-6.93-3.462-169.21-86.538-169.21-256.967V157.629l41.33-5.905c69.03-9.774 111.59-53.756 113.62-55.792l35.64-39.91 36.04 40.114c.2.204 42.96 45.61 113.41 55.588l41.34 5.905v145.587c0 170.429-162.29 253.505-169.21 256.967l-21.58 10.792z"/><path fill="#fff" stroke="#F6821F" stroke-width="4.2" d="m1540.52 132.606.07-.048.18-.202 7.53-8.39 7.66 8.354c.03.041.06.069.06.072v.001q.06.074.15.169c.12.128.27.299.48.511.4.425.98 1.022 1.73 1.771 1.51 1.499 3.73 3.609 6.63 6.154 5.79 5.09 14.31 11.927 25.34 19.097 22.06 14.337 54.21 30.031 94.76 35.713v.001l8.81 1.266v105.987c0 69.001-33.66 120.59-68.19 155.364-34.39 34.638-69.5 52.448-72.55 53.959l-5.04 2.252-4.53-2.234c-2.79-1.38-38.05-19.194-72.58-53.977-34.53-34.774-68.19-86.363-68.19-155.364V197.075l8.81-1.267c40.45-5.683 72.56-21.426 94.62-35.786 11.03-7.181 19.55-14.023 25.37-19.101 2.9-2.539 5.13-4.637 6.66-6.116.76-.739 1.34-1.323 1.74-1.726q.12-.115.21-.206a9 9 0 0 1 .27-.267Zm.07-.077c0-.002.01-.003.01-.005l.03-.027c0 .001-.02.013-.04.032Z"/><path stroke="#F6821F" stroke-width="3.826" d="M1548 60.134v67m0 385v57m146-256h43m-380 0h45"/><path stroke="url(#paint0_linear_55_787)" stroke-miterlimit="10" stroke-width="3.826" d="M1526.72 559.16c-6.92-3.462-169.21-86.538-169.21-256.967V156.606l41.34-5.905c69.03-9.774 111.58-53.756 113.62-55.792L1548.1 55l36.04 40.113c.21.204 42.97 45.61 113.42 55.588l41.33 5.905v145.587c0 170.429-162.28 253.505-169.2 256.967l-21.59 10.792z"/><circle cx="1544.57" cy="315.402" r="108.895" fill="#E2F5FA"/><path fill="#E0EDFF" d="M1658.46 313.456h-51.63c0-19.814-2.6-39.108-7.82-55.272h44.33c9.9 16.164 15.12 34.936 15.12 55.272"/><path fill="#fff" d="M1606.84 313.456h51.62c0 19.814-5.22 39.108-14.6 55.272h-44.32c1.04-4.693 2.6-9.907 3.65-14.6 2.08-13.036 3.65-26.072 3.65-40.672m36.5-55.274h-44.33c-10.42-32.85-29.2-55.272-51.1-55.272 40.68 0 76.13 21.9 95.43 55.272"/><path fill="#E0EDFF" d="M1599.02 368.209h44.32c-19.29 32.851-54.75 55.273-95.95 55.273 21.9.522 41.2-21.379 51.63-55.273"/><path fill="#fff" d="M1606.84 313.456h-59.45v-55.272h51.1c5.22 16.164 8.35 34.936 8.35 55.272"/><path fill="#E0EDFF" d="M1547.39 313.456h59.45c0 14.078-1.04 28.157-3.65 40.672-1.04 5.214-2.61 10.429-3.65 14.6h-51.62v-55.272z"/><path fill="#fff" d="M1547.39 368.209h51.1c-10.42 32.851-29.2 55.273-51.1 55.273z"/><path fill="#E0EDFF" stroke="#3E74FF" stroke-width="1.5" d="M1547.39 202.91c21.9 0 40.68 22.422 51.1 55.272h-51.1z"/><path fill="#E0EDFF" d="M1547.39 368.209v55.273c-21.9 0-40.67-22.422-51.1-55.273z"/><path fill="#fff" d="M1547.39 313.456v55.272h-51.1c-5.21-16.164-7.82-35.458-7.82-55.272z"/><path fill="#E0EDFF" d="M1547.39 258.184v55.272h-59.44c0-19.814 2.6-39.108 7.82-55.272z"/><path fill="#fff" d="M1547.39 202.91v55.272h-51.1c10.43-33.372 29.2-55.272 51.1-55.272"/><path fill="#E0EDFF" d="M1547.39 202.91c-21.9 0-40.67 22.422-51.1 55.272h-44.32c18.77-33.372 54.75-55.272 95.42-55.272"/><path fill="#fff" d="M1496.29 368.209c10.43 32.851 29.2 55.273 51.1 55.273-41.2 0-76.65-22.422-95.95-55.273z"/><path fill="#E0EDFF" d="M1496.29 368.208h-44.32c-9.91-16.164-14.6-35.458-14.6-55.272h51.62c-.52 20.857 2.08 39.629 7.3 55.272"/><path fill="#fff" d="M1451.97 258.184h44.32c-5.21 16.164-7.82 35.458-7.82 55.272h-51.62c0-20.336 5.21-39.108 15.12-55.272"/><path stroke="#3E74FF" stroke-miterlimit="10" stroke-width="1.5" d="M1658.46 313.455c0 19.815-5.22 39.108-14.6 55.273-19.3 32.85-54.76 55.272-95.95 55.272s-76.65-22.422-95.94-55.272c-9.91-16.165-14.6-35.458-14.6-55.273s5.21-39.108 14.6-55.273c19.29-32.85 54.75-55.272 95.94-55.272s76.65 22.422 95.95 55.272c9.38 16.165 14.6 34.937 14.6 55.273Z"/><path stroke="#3E74FF" stroke-miterlimit="10" stroke-width="1.5" d="M1602.66 354.127c-1.04 5.215-2.6 10.429-3.65 14.601-10.43 32.85-29.2 55.272-51.1 55.272s-40.67-22.422-51.1-55.272c-5.21-16.165-7.82-35.458-7.82-55.273s2.61-39.108 7.82-55.273c10.43-32.85 29.2-55.272 51.1-55.272s40.67 22.422 51.1 55.272c5.22 16.165 7.82 35.458 7.82 55.273 0 14.6-1.56 27.636-4.17 40.672Zm-165.81-40.671h221.61M1547.39 202.91v220.569m-95.42-165.295h191.37m-191.37 110.025h191.37"/><path fill="#F6821F" d="M1485.34 245.147c3.13 0 5.74-2.607 5.74-5.735s-2.61-5.736-5.74-5.736-5.74 2.607-5.74 5.736 2.61 5.735 5.74 5.735m32.85 46.407c3.13 0 5.74-2.607 5.74-5.736s-2.61-5.735-5.74-5.735-5.73 2.607-5.73 5.735 2.6 5.736 5.73 5.736m48.49-47.449c3.13 0 5.74-2.607 5.74-5.735s-2.61-5.736-5.74-5.736-5.73 2.607-5.73 5.736 2.6 5.735 5.73 5.735m64.14 47.449c3.13 0 5.74-2.607 5.74-5.736s-2.61-5.735-5.74-5.735-5.74 2.607-5.74 5.735 2.09 5.736 5.74 5.736m-26.6 106.376c3.13 0 5.74-2.608 5.74-5.736 0-3.129-2.61-5.736-5.74-5.736-3.12 0-5.73 2.607-5.73 5.736s2.61 5.736 5.73 5.736m-29.19-52.143c3.13 0 5.73-2.608 5.73-5.736 0-3.129-2.6-5.736-5.73-5.736s-5.74 2.607-5.74 5.736 2.61 5.736 5.74 5.736m-47.45 53.707c3.13 0 5.73-2.607 5.73-5.736s-2.6-5.736-5.73-5.736-5.74 2.608-5.74 5.736c-.52 3.129 2.09 5.736 5.74 5.736m-63.62-53.707c3.13 0 5.74-2.608 5.74-5.736 0-3.129-2.61-5.736-5.74-5.736s-5.73 2.607-5.73 5.736 2.6 5.736 5.73 5.736"/><defs><linearGradient id="paint0_linear_55_787" x1="1548.2" x2="1548" y1="55" y2="790.134" gradientUnits="userSpaceOnUse"><stop stop-color="#0055DC"/><stop offset="1" stop-color="#6ECCE5"/></linearGradient></defs></svg>