<svg xmlns="http://www.w3.org/2000/svg" width="1257" height="544" fill="none" viewBox="0 0 1257 544"><path fill="#fff" d="M0 0h1257v544H0z"/><path stroke="#127D10" stroke-width="3" d="M93 167h1121"/><path fill="#000" d="M43.414 106.586a2 2 0 0 0-2.828 0l-12.728 12.728a2 2 0 1 0 2.828 2.828L42 110.828l11.314 11.314a2 2 0 0 0 2.828-2.828zM44 431V108h-4v323zm1171.41 60.414c.79-.781.79-2.047 0-2.828l-12.72-12.728a2.001 2.001 0 0 0-2.83 2.828L1211.17 490l-11.31 11.314a2.001 2.001 0 0 0 2.83 2.828zM93 492h1121v-4H93z"/><path fill="#fff" d="M533 462h206v55H533z"/><path fill="#002F71" d="M603.858 482.317v-2.249h15.699v2.249h-6.582V501h-2.534v-18.683zM623.142 501v-15.699h2.412V501zm1.227-18.316q-.705 0-1.216-.48a1.54 1.54 0 0 1-.501-1.155q0-.675.501-1.155.51-.48 1.216-.48.705 0 1.206.48.511.48.511 1.155t-.511 1.155a1.68 1.68 0 0 1-1.206.48M629.972 501v-15.699h2.331v2.453h.204q.49-1.257 1.584-1.952 1.094-.705 2.627-.705 1.554 0 2.586.705 1.043.695 1.625 1.952h.163a4.6 4.6 0 0 1 1.81-1.932q1.206-.726 2.892-.725 2.106 0 3.444 1.318 1.34 1.309 1.339 4.078V501h-2.412v-10.507q0-1.737-.95-2.484t-2.239-.746q-1.655 0-2.565 1.002-.91.991-.91 2.514V501h-2.453v-10.752q0-1.34-.868-2.157-.87-.828-2.239-.828-.94 0-1.758.501a3.8 3.8 0 0 0-1.308 1.39q-.49.879-.491 2.034V501zm31.598.327q-2.27 0-3.915-1.002-1.636-1.011-2.524-2.82-.879-1.82-.879-4.232t.879-4.252q.889-1.85 2.473-2.882 1.594-1.042 3.72-1.042 1.227 0 2.423.408a6 6 0 0 1 2.177 1.329q.98.91 1.564 2.412.582 1.503.582 3.7v1.022h-12.101v-2.085h9.648q0-1.329-.531-2.371a4 4 0 0 0-1.493-1.646q-.96-.603-2.269-.603-1.44 0-2.493.716a4.7 4.7 0 0 0-1.605 1.84 5.4 5.4 0 0 0-.562 2.432v1.39q0 1.779.613 3.015.624 1.226 1.727 1.871 1.104.633 2.566.633.95 0 1.717-.265a3.7 3.7 0 0 0 1.339-.818 3.7 3.7 0 0 0 .868-1.37l2.331.654a5.2 5.2 0 0 1-1.237 2.085q-.869.89-2.146 1.39-1.278.491-2.872.491"/><path fill="#fff" d="M14 373V167h55v206z"/><path fill="#002F71" d="M53 330.594H32.068v-7.073q0-2.453.838-4.027.828-1.574 2.28-2.33 1.45-.757 3.3-.757 1.851 0 3.281.757 1.431.756 2.249 2.32.807 1.563.807 3.996v5.724h-2.289v-5.642q0-1.677-.49-2.699-.492-1.032-1.39-1.492-.911-.47-2.167-.47-1.258 0-2.198.47t-1.451 1.503q-.522 1.032-.522 2.729v4.456H53zm-9.403-9.853L53 315.59v2.943l-9.403 5.07zm9.73-14.644q0 2.27-1.002 3.915-1.011 1.635-2.82 2.524-1.82.879-4.232.879t-4.252-.879q-1.85-.89-2.882-2.473-1.043-1.594-1.043-3.721 0-1.226.41-2.422a6 6 0 0 1 1.328-2.177q.909-.98 2.412-1.564 1.503-.582 3.7-.582h1.022v12.101h-2.085v-9.648q-1.329 0-2.371.531a4 4 0 0 0-1.646 1.492q-.603.961-.603 2.269 0 1.441.716 2.494a4.7 4.7 0 0 0 1.84 1.605 5.4 5.4 0 0 0 2.432.562h1.39q1.778 0 3.015-.613 1.227-.624 1.87-1.728.634-1.103.634-2.565 0-.95-.265-1.717a3.7 3.7 0 0 0-.818-1.339 3.7 3.7 0 0 0-1.37-.869l.654-2.33q1.186.368 2.085 1.237.89.868 1.39 2.146.492 1.278.491 2.872m5.56-20.881h-8.3v.205q.43.266 1.084.756.645.49 1.155 1.4.501.91.501 2.422 0 1.964-.991 3.465-1.002 1.502-2.821 2.351-1.83.849-4.324.848-2.474 0-4.292-.848-1.82-.849-2.811-2.361-.992-1.513-.992-3.495 0-1.534.512-2.423.5-.899 1.144-1.369.634-.481 1.043-.746v-.287H37.3v-2.33h21.586zm-7.727 4.456q0-1.45-.756-2.453-.766-1-2.116-1.523-1.36-.52-3.137-.521-1.759 0-3.077.511-1.329.511-2.064 1.513-.747 1.002-.747 2.473 0 1.533.787 2.556.777 1.011 2.116 1.522 1.328.501 2.985.501 1.675 0 3.045-.511 1.36-.52 2.167-1.533.797-1.022.797-2.535m-4.579-21.177h-9.28v-2.412H53v2.412h-2.657v.164q1.196.551 2.033 1.717.829 1.165.828 2.943 0 1.472-.644 2.617-.654 1.144-1.962 1.799-1.318.654-3.322.654h-9.975v-2.412h9.812q1.718 0 2.739-.961 1.022-.97 1.022-2.474 0-.899-.46-1.829-.46-.94-1.41-1.574-.95-.644-2.423-.644m6.746-13.412q0 2.269-1.002 3.914-1.011 1.636-2.82 2.525-1.82.879-4.232.879t-4.252-.879q-1.85-.889-2.882-2.474-1.043-1.594-1.043-3.72 0-1.227.41-2.422a6 6 0 0 1 1.328-2.177q.909-.982 2.412-1.564t3.7-.583h1.022v12.102h-2.085v-9.649q-1.329 0-2.371.532a4 4 0 0 0-1.646 1.492q-.603.961-.603 2.269 0 1.441.716 2.494a4.7 4.7 0 0 0 1.84 1.605 5.4 5.4 0 0 0 2.432.562h1.39q1.778 0 3.015-.613 1.227-.624 1.87-1.728.634-1.104.634-2.565 0-.95-.265-1.717a3.7 3.7 0 0 0-.818-1.339 3.7 3.7 0 0 0-1.37-.869l.654-2.33q1.186.368 2.085 1.236.89.87 1.39 2.147.492 1.278.491 2.872m-12.51-21.29.613 2.167a4 4 0 0 0-1.053.603q-.52.388-.858 1.063t-.337 1.727q0 1.442.664 2.402.654.951 1.666.951.9 0 1.42-.655.522-.654.87-2.044l.572-2.33q.51-2.106 1.563-3.138 1.044-1.032 2.689-1.032 1.349 0 2.412.777 1.062.766 1.676 2.146t.613 3.209q0 2.403-1.042 3.976-1.042 1.575-3.046 1.993l-.573-2.289q1.267-.327 1.902-1.237.633-.92.633-2.402 0-1.686-.715-2.678-.726-1-1.738-1.001-.817 0-1.37.572-.562.573-.837 1.758l-.614 2.617q-.51 2.156-1.584 3.168-1.083 1.002-2.709 1.002-1.328 0-2.35-.746-1.022-.757-1.605-2.055-.583-1.308-.583-2.964 0-2.33 1.023-3.659 1.021-1.338 2.698-1.901M37.3 223.049h2.044v8.135H37.3zm-3.761 5.764v-2.412h14.963q1.022 0 1.533-.296.501-.308.675-.777.163-.481.163-1.012 0-.399-.04-.654l-.083-.409 2.167-.491q.093.246.184.685.102.44.102 1.114 0 1.023-.44 2.003a4 4 0 0 1-1.338 1.615q-.9.634-2.269.634zm7.277-20.232.613 2.167a4 4 0 0 0-1.053.603q-.52.388-.858 1.063t-.337 1.727q0 1.442.664 2.402.654.951 1.666.951.9 0 1.42-.655.522-.654.87-2.044l.572-2.33q.51-2.106 1.563-3.138 1.044-1.032 2.689-1.032 1.349 0 2.412.777 1.062.766 1.676 2.146t.613 3.209q0 2.403-1.042 3.976-1.042 1.575-3.046 1.993l-.573-2.289q1.267-.327 1.902-1.237.633-.92.633-2.402 0-1.686-.715-2.678-.726-1-1.738-1.001-.817 0-1.37.572-.562.573-.837 1.758l-.614 2.617q-.51 2.155-1.584 3.168-1.083 1.002-2.709 1.002-1.328 0-2.35-.746-1.022-.757-1.605-2.055-.583-1.308-.583-2.964 0-2.33 1.023-3.659 1.021-1.338 2.698-1.901"/><path stroke="#3E74FF" stroke-width="4" d="M171.439 199.647 96 267.751V431h1118V255.733l-145.5-23.035-165.16 78.62-118.078-187.787L534.11 232.698 345.277 103l-96.524 239.365z"/><path fill="#D9D9D9" stroke="#3E74FF" stroke-width="4" d="M171.439 199.647 96 267.751V431h1118V255.733l-145.5-23.035-165.16 78.62-118.078-187.787L534.11 232.698 345.277 103l-96.524 239.365z"/><path stroke="red" stroke-width="4" d="M320 165h115m255 0h121"/><mask id="mask0_55_795" width="1122" height="334" x="94" y="99" maskUnits="userSpaceOnUse" style="mask-type:alpha"><path stroke="#3E74FF" stroke-width="4" d="M171.439 199.647 96 267.751V431h1118V255.733l-145.5-23.035-165.16 78.62-118.078-187.787L534.11 232.698 345.277 103l-96.524 239.365z"/></mask><g mask="url(#mask0_55_795)"><path fill="red" d="M242-57h684v224H242z"/></g><path fill="red" d="m320 164 24.598-60L432 164zm491.5.5-26-41-96.5 42z"/><path stroke="#10377D" stroke-width="6" d="M96 431V69m-3 362h1121"/></svg>