<svg width="1257" height="524" viewBox="0 0 1257 524" fill="none" xmlns="http://www.w3.org/2000/svg">
<rect width="1257" height="524" fill="white"/>
<path d="M93 147L1214 147" stroke="#127D10" stroke-width="3"/>
<rect x="302" y="127" width="740" height="48" fill="white"/>
<path d="M43.4142 86.5858C42.6332 85.8047 41.3668 85.8047 40.5858 86.5858L27.8579 99.3137C27.0768 100.095 27.0768 101.361 27.8579 102.142C28.6389 102.923 29.9052 102.923 30.6863 102.142L42 90.8284L53.3137 102.142C54.0947 102.923 55.3611 102.923 56.1421 102.142C56.9232 101.361 56.9232 100.095 56.1421 99.3137L43.4142 86.5858ZM44 411L44 88L40 88L40 411L44 411Z" fill="black"/>
<path d="M1215.41 471.414C1216.2 470.633 1216.2 469.367 1215.41 468.586L1202.69 455.858C1201.91 455.077 1200.64 455.077 1199.86 455.858C1199.08 456.639 1199.08 457.905 1199.86 458.686L1211.17 470L1199.86 481.314C1199.08 482.095 1199.08 483.361 1199.86 484.142C1200.64 484.923 1201.91 484.923 1202.69 484.142L1215.41 471.414ZM93 472L1214 472V468L93 468V472Z" fill="black"/>
<rect x="533" y="442" width="206" height="55" fill="white"/>
<path d="M603.858 462.317V460.068H619.557V462.317H612.975V481H610.441V462.317H603.858ZM623.142 481V465.301H625.554V481H623.142ZM624.369 462.684C623.899 462.684 623.493 462.524 623.153 462.204C622.819 461.884 622.652 461.499 622.652 461.049C622.652 460.599 622.819 460.214 623.153 459.894C623.493 459.574 623.899 459.414 624.369 459.414C624.839 459.414 625.241 459.574 625.575 459.894C625.916 460.214 626.086 460.599 626.086 461.049C626.086 461.499 625.916 461.884 625.575 462.204C625.241 462.524 624.839 462.684 624.369 462.684ZM629.972 481V465.301H632.303V467.754H632.507C632.834 466.916 633.362 466.265 634.091 465.802C634.82 465.332 635.696 465.097 636.718 465.097C637.754 465.097 638.616 465.332 639.304 465.802C639.999 466.265 640.541 466.916 640.929 467.754H641.092C641.494 466.943 642.098 466.299 642.902 465.822C643.706 465.338 644.67 465.097 645.794 465.097C647.198 465.097 648.346 465.536 649.238 466.415C650.131 467.287 650.577 468.647 650.577 470.493V481H648.165V470.493C648.165 469.335 647.848 468.507 647.215 468.009C646.581 467.512 645.835 467.263 644.976 467.263C643.873 467.263 643.017 467.597 642.411 468.265C641.805 468.926 641.501 469.764 641.501 470.779V481H639.048V470.248C639.048 469.355 638.759 468.636 638.18 468.091C637.6 467.539 636.854 467.263 635.941 467.263C635.314 467.263 634.728 467.43 634.183 467.764C633.645 468.098 633.209 468.561 632.875 469.154C632.548 469.74 632.384 470.418 632.384 471.188V481H629.972ZM661.57 481.327C660.057 481.327 658.752 480.993 657.655 480.325C656.565 479.651 655.723 478.711 655.131 477.505C654.545 476.292 654.252 474.881 654.252 473.273C654.252 471.665 654.545 470.248 655.131 469.021C655.723 467.788 656.548 466.827 657.604 466.139C658.667 465.444 659.907 465.097 661.324 465.097C662.142 465.097 662.95 465.233 663.747 465.505C664.544 465.778 665.27 466.221 665.924 466.834C666.578 467.441 667.099 468.245 667.488 469.246C667.876 470.248 668.07 471.481 668.07 472.946V473.968H655.969V471.883H665.617C665.617 470.997 665.44 470.207 665.086 469.512C664.738 468.817 664.241 468.268 663.593 467.866C662.953 467.464 662.197 467.263 661.324 467.263C660.364 467.263 659.532 467.502 658.831 467.979C658.136 468.449 657.601 469.062 657.226 469.819C656.851 470.575 656.664 471.386 656.664 472.251V473.641C656.664 474.827 656.868 475.832 657.277 476.656C657.693 477.474 658.268 478.097 659.004 478.527C659.74 478.949 660.595 479.16 661.57 479.16C662.203 479.16 662.776 479.072 663.287 478.895C663.805 478.711 664.251 478.438 664.626 478.077C665 477.709 665.29 477.252 665.494 476.707L667.825 477.361C667.579 478.152 667.167 478.847 666.588 479.446C666.009 480.039 665.293 480.503 664.442 480.836C663.59 481.164 662.633 481.327 661.57 481.327Z" fill="#002F71"/>
<rect x="14" y="353" width="206" height="55" transform="rotate(-90 14 353)" fill="white"/>
<path d="M53 310.594L32.0679 310.594L32.0679 303.521C32.0679 301.886 32.3473 300.543 32.906 299.494C33.458 298.445 34.2177 297.668 35.1853 297.164C36.1528 296.659 37.2533 296.407 38.4866 296.407C39.7199 296.407 40.8135 296.659 41.7674 297.164C42.7214 297.668 43.4709 298.441 44.016 299.484C44.5543 300.526 44.8234 301.858 44.8234 303.48L44.8234 309.204L42.534 309.204L42.534 303.562C42.534 302.444 42.3704 301.545 42.0434 300.863C41.7163 300.175 41.253 299.678 40.6534 299.371C40.0469 299.058 39.3247 298.901 38.4866 298.901C37.6485 298.901 36.916 299.058 36.2891 299.371C35.6622 299.685 35.1785 300.185 34.8378 300.874C34.4903 301.562 34.3165 302.472 34.3165 303.603L34.3165 308.059L53 308.059L53 310.594ZM43.5969 300.741L53 295.59L53 298.533L43.5969 303.603L43.5969 300.741ZM53.3271 286.097C53.3271 287.61 52.9932 288.915 52.3254 290.012C51.6509 291.102 50.7106 291.943 49.5045 292.536C48.2916 293.122 46.8812 293.415 45.2731 293.415C43.6651 293.415 42.2478 293.122 41.0213 292.536C39.788 291.943 38.8273 291.119 38.1391 290.063C37.444 289 37.0965 287.76 37.0965 286.342C37.0965 285.525 37.2328 284.717 37.5054 283.92C37.7779 283.123 38.2208 282.397 38.8341 281.743C39.4405 281.089 40.2445 280.568 41.2462 280.179C42.2478 279.791 43.4811 279.597 44.9461 279.597L45.9681 279.597L45.9681 291.698L43.8831 291.698L43.8831 282.05C42.9973 282.05 42.2069 282.227 41.5119 282.581C40.8169 282.929 40.2684 283.426 39.8664 284.073C39.4643 284.714 39.2633 285.47 39.2633 286.342C39.2633 287.303 39.5018 288.134 39.9788 288.836C40.4489 289.531 41.0622 290.066 41.8185 290.441C42.5749 290.816 43.3857 291.003 44.2511 291.003L45.6411 291.003C46.8267 291.003 47.8317 290.799 48.6562 290.39C49.4738 289.974 50.0973 289.398 50.5266 288.662C50.949 287.927 51.1603 287.071 51.1603 286.097C51.1603 285.463 51.0717 284.891 50.8945 284.38C50.7106 283.862 50.438 283.416 50.0769 283.041C49.7089 282.666 49.2524 282.377 48.7073 282.172L49.3614 279.842C50.1518 280.087 50.8468 280.5 51.4464 281.079C52.0392 281.658 52.5026 282.373 52.8365 283.225C53.1635 284.077 53.3271 285.034 53.3271 286.097ZM58.8871 265.216L50.5879 265.216L50.5879 265.421C50.8741 265.598 51.2352 265.85 51.6713 266.177C52.1006 266.504 52.4856 266.971 52.8262 267.577C53.1601 268.184 53.3271 268.991 53.3271 269.999C53.3271 271.308 52.9966 272.463 52.3356 273.464C51.6679 274.466 50.7276 275.249 49.5147 275.815C48.2951 276.381 46.8539 276.663 45.1914 276.663C43.5424 276.663 42.1115 276.381 40.8987 275.815C39.6858 275.249 38.7489 274.462 38.088 273.454C37.427 272.446 37.0965 271.28 37.0965 269.959C37.0965 268.936 37.2669 268.129 37.6076 267.536C37.9415 266.937 38.323 266.48 38.7523 266.167C39.1748 265.846 39.5223 265.598 39.7948 265.421L39.7948 265.134L37.301 265.134L37.301 262.804L58.8871 262.804L58.8871 265.216ZM51.1603 269.672C51.1603 268.705 50.9082 267.887 50.4039 267.219C49.8929 266.552 49.1877 266.044 48.2882 265.696C47.382 265.349 46.3361 265.175 45.1505 265.175C43.9785 265.175 42.953 265.346 42.074 265.686C41.1882 266.027 40.5 266.531 40.0095 267.199C39.512 267.867 39.2633 268.691 39.2633 269.672C39.2633 270.694 39.5257 271.546 40.0503 272.228C40.5682 272.902 41.2734 273.41 42.166 273.75C43.0518 274.084 44.0466 274.251 45.1505 274.251C46.2679 274.251 47.2832 274.081 48.1963 273.74C49.1025 273.393 49.8248 272.882 50.363 272.207C50.8945 271.526 51.1603 270.681 51.1603 269.672ZM46.5814 248.495L37.301 248.495L37.301 246.083L53 246.083L53 248.495L50.3426 248.495L50.3426 248.659C51.1398 249.026 51.8178 249.599 52.3765 250.376C52.9285 251.152 53.2044 252.134 53.2044 253.319C53.2044 254.3 52.9898 255.173 52.5605 255.936C52.1244 256.699 51.4703 257.298 50.5981 257.735C49.7191 258.171 48.6119 258.389 47.2764 258.389L37.301 258.389L37.301 255.977L47.1129 255.977C48.2576 255.977 49.1706 255.656 49.852 255.016C50.5334 254.369 50.8741 253.544 50.8741 252.542C50.8741 251.943 50.7208 251.333 50.4142 250.713C50.1075 250.086 49.6374 249.561 49.0037 249.139C48.37 248.71 47.5626 248.495 46.5814 248.495ZM53.3271 235.083C53.3271 236.596 52.9932 237.9 52.3254 238.997C51.6509 240.088 50.7106 240.929 49.5045 241.522C48.2916 242.108 46.8812 242.401 45.2731 242.401C43.6651 242.401 42.2478 242.108 41.0213 241.522C39.788 240.929 38.8273 240.105 38.1391 239.048C37.444 237.986 37.0965 236.745 37.0965 235.328C37.0965 234.51 37.2328 233.703 37.5054 232.906C37.7779 232.109 38.2208 231.383 38.8341 230.729C39.4405 230.075 40.2445 229.553 41.2462 229.165C42.2478 228.777 43.4811 228.582 44.9461 228.582L45.9681 228.582L45.9681 240.684L43.8831 240.684L43.8831 231.035C42.9973 231.035 42.2069 231.213 41.5119 231.567C40.8169 231.914 40.2684 232.412 39.8664 233.059C39.4643 233.7 39.2633 234.456 39.2633 235.328C39.2633 236.289 39.5018 237.12 39.9788 237.822C40.4489 238.517 41.0622 239.052 41.8185 239.427C42.5749 239.801 43.3857 239.989 44.2511 239.989L45.6411 239.989C46.8267 239.989 47.8317 239.784 48.6562 239.376C49.4738 238.96 50.0973 238.384 50.5266 237.648C50.949 236.912 51.1603 236.057 51.1603 235.083C51.1603 234.449 51.0717 233.877 50.8945 233.366C50.7106 232.848 50.438 232.402 50.0769 232.027C49.7089 231.652 49.2524 231.363 48.7073 231.158L49.3614 228.828C50.1518 229.073 50.8468 229.485 51.4464 230.064C52.0392 230.644 52.5026 231.359 52.8365 232.211C53.1635 233.063 53.3271 234.02 53.3271 235.083ZM40.8169 213.793L41.4301 215.96C41.069 216.096 40.7181 216.297 40.3774 216.563C40.0299 216.822 39.7437 217.176 39.5189 217.626C39.294 218.076 39.1816 218.651 39.1816 219.353C39.1816 220.314 39.403 221.115 39.8459 221.755C40.282 222.389 40.8373 222.706 41.5119 222.706C42.1115 222.706 42.5851 222.487 42.9326 222.051C43.2801 221.615 43.5697 220.934 43.8013 220.007L44.3737 217.677C44.7144 216.273 45.2356 215.227 45.9375 214.539C46.6325 213.851 47.5285 213.507 48.6255 213.507C49.5249 213.507 50.329 213.766 51.0376 214.284C51.7463 214.795 52.305 215.51 52.7138 216.43C53.1226 217.35 53.3271 218.42 53.3271 219.639C53.3271 221.241 52.9796 222.566 52.2845 223.615C51.5895 224.665 50.5743 225.329 49.2388 225.608L48.6664 223.319C49.5113 223.101 50.145 222.689 50.5675 222.082C50.9899 221.469 51.2011 220.668 51.2011 219.68C51.2011 218.556 50.9627 217.663 50.4857 217.002C50.0019 216.335 49.4227 216.001 48.7482 216.001C48.2031 216.001 47.7465 216.192 47.3786 216.573C47.0038 216.955 46.7245 217.541 46.5405 218.331L45.9273 220.948C45.5866 222.385 45.0585 223.441 44.343 224.116C43.6208 224.784 42.7179 225.118 41.6345 225.118C40.7487 225.118 39.9652 224.869 39.2838 224.372C38.6024 223.867 38.0675 223.183 37.6791 222.317C37.2907 221.445 37.0965 220.457 37.0965 219.353C37.0965 217.8 37.4372 216.58 38.1186 215.694C38.8 214.802 39.6994 214.168 40.8169 213.793ZM37.301 203.049L39.3451 203.049L39.3451 211.184L37.301 211.184L37.301 203.049ZM33.5397 208.813L33.5397 206.401L48.5029 206.401C49.1843 206.401 49.6953 206.302 50.036 206.105C50.3699 205.9 50.5947 205.641 50.7106 205.328C50.8196 205.007 50.8741 204.67 50.8741 204.316C50.8741 204.05 50.8605 203.832 50.8332 203.662C50.7991 203.491 50.7719 203.355 50.7514 203.253L52.9182 202.762C52.9796 202.926 53.0409 203.154 53.1022 203.447C53.1703 203.74 53.2044 204.111 53.2044 204.561C53.2044 205.243 53.0579 205.91 52.7649 206.564C52.4719 207.212 52.0256 207.75 51.426 208.179C50.8264 208.602 50.0701 208.813 49.157 208.813L33.5397 208.813ZM40.8169 188.581L41.4301 190.748C41.069 190.884 40.7181 191.085 40.3774 191.351C40.0299 191.61 39.7437 191.964 39.5189 192.414C39.294 192.864 39.1816 193.439 39.1816 194.141C39.1816 195.102 39.403 195.903 39.8459 196.543C40.282 197.177 40.8373 197.494 41.5119 197.494C42.1115 197.494 42.5851 197.276 42.9326 196.839C43.2801 196.403 43.5697 195.722 43.8013 194.795L44.3737 192.465C44.7144 191.061 45.2356 190.015 45.9375 189.327C46.6325 188.639 47.5285 188.295 48.6255 188.295C49.5249 188.295 50.329 188.554 51.0376 189.072C51.7463 189.583 52.305 190.298 52.7138 191.218C53.1226 192.138 53.3271 193.208 53.3271 194.427C53.3271 196.029 52.9796 197.354 52.2845 198.403C51.5895 199.453 50.5743 200.117 49.2388 200.396L48.6664 198.107C49.5113 197.889 50.145 197.477 50.5675 196.87C50.9899 196.257 51.2011 195.456 51.2011 194.468C51.2011 193.344 50.9627 192.451 50.4857 191.79C50.0019 191.123 49.4227 190.789 48.7482 190.789C48.2031 190.789 47.7465 190.98 47.3786 191.361C47.0038 191.743 46.7245 192.329 46.5405 193.119L45.9272 195.736C45.5866 197.173 45.0585 198.229 44.343 198.904C43.6208 199.572 42.7179 199.906 41.6345 199.906C40.7487 199.906 39.9652 199.657 39.2838 199.16C38.6024 198.655 38.0675 197.971 37.6791 197.105C37.2907 196.233 37.0965 195.245 37.0965 194.141C37.0965 192.588 37.4372 191.368 38.1186 190.482C38.8 189.59 39.6994 188.956 40.8169 188.581Z" fill="#002F71"/>
<path d="M171.439 179.647L96 247.751V411H1214V235.733L1068.5 212.698L903.34 291.318L785.262 103.531L534.11 212.698L345.277 83L248.753 322.365L171.439 179.647Z" fill="#D9D9D9" stroke="#3E74FF" stroke-width="4"/>
<rect x="302" y="46" width="740" height="362" fill="url(#paint0_linear_55_793)" fill-opacity="0.59"/>
<path d="M549.734 311H544.991L552.217 290.068H557.921L565.136 311H560.394L555.151 294.851H554.987L549.734 311ZM549.437 302.772H560.639V306.227H549.437V302.772ZM573.936 311.307C572.328 311.307 570.945 310.966 569.787 310.285C568.635 309.596 567.749 308.642 567.129 307.423C566.516 306.203 566.21 304.799 566.21 303.212C566.21 301.604 566.52 300.193 567.14 298.98C567.766 297.761 568.656 296.81 569.807 296.129C570.959 295.441 572.328 295.097 573.916 295.097C575.286 295.097 576.485 295.345 577.514 295.843C578.543 296.34 579.357 297.038 579.956 297.938C580.556 298.837 580.886 299.893 580.948 301.106H576.839C576.723 300.323 576.417 299.692 575.919 299.216C575.429 298.732 574.785 298.49 573.987 298.49C573.313 298.49 572.724 298.674 572.219 299.042C571.722 299.403 571.334 299.931 571.054 300.626C570.775 301.321 570.635 302.162 570.635 303.15C570.635 304.152 570.771 305.004 571.044 305.706C571.323 306.407 571.715 306.942 572.219 307.31C572.724 307.678 573.313 307.862 573.987 307.862C574.485 307.862 574.931 307.76 575.326 307.556C575.728 307.351 576.059 307.055 576.318 306.666C576.584 306.271 576.757 305.798 576.839 305.246H580.948C580.88 306.445 580.553 307.501 579.967 308.414C579.387 309.32 578.587 310.029 577.565 310.54C576.543 311.051 575.333 311.307 573.936 311.307ZM592.086 295.301V298.572H582.632V295.301H592.086ZM584.778 291.54H589.132V306.176C589.132 306.578 589.193 306.891 589.316 307.116C589.439 307.334 589.609 307.487 589.827 307.576C590.052 307.665 590.311 307.709 590.604 307.709C590.808 307.709 591.013 307.692 591.217 307.658C591.421 307.617 591.578 307.586 591.687 307.566L592.372 310.806C592.154 310.874 591.847 310.952 591.452 311.041C591.057 311.136 590.577 311.194 590.011 311.215C588.962 311.256 588.042 311.116 587.251 310.796C586.468 310.475 585.858 309.978 585.422 309.303C584.986 308.629 584.771 307.777 584.778 306.748V291.54ZM594.922 311V295.301H599.276V311H594.922ZM597.109 293.277C596.462 293.277 595.907 293.063 595.443 292.633C594.987 292.197 594.759 291.676 594.759 291.07C594.759 290.47 594.987 289.956 595.443 289.526C595.907 289.09 596.462 288.872 597.109 288.872C597.757 288.872 598.309 289.09 598.765 289.526C599.228 289.956 599.46 290.47 599.46 291.07C599.46 291.676 599.228 292.197 598.765 292.633C598.309 293.063 597.757 293.277 597.109 293.277ZM609.857 311.307C608.27 311.307 606.897 310.969 605.738 310.295C604.587 309.613 603.697 308.666 603.071 307.453C602.444 306.234 602.13 304.82 602.13 303.212C602.13 301.59 602.444 300.173 603.071 298.96C603.697 297.74 604.587 296.793 605.738 296.119C606.897 295.437 608.27 295.097 609.857 295.097C611.445 295.097 612.814 295.437 613.966 296.119C615.124 296.793 616.017 297.74 616.644 298.96C617.271 300.173 617.584 301.59 617.584 303.212C617.584 304.82 617.271 306.234 616.644 307.453C616.017 308.666 615.124 309.613 613.966 310.295C612.814 310.969 611.445 311.307 609.857 311.307ZM609.878 307.934C610.6 307.934 611.203 307.729 611.687 307.321C612.17 306.905 612.535 306.339 612.78 305.624C613.032 304.908 613.158 304.094 613.158 303.181C613.158 302.268 613.032 301.454 612.78 300.738C612.535 300.023 612.17 299.457 611.687 299.042C611.203 298.626 610.6 298.418 609.878 298.418C609.149 298.418 608.535 298.626 608.038 299.042C607.547 299.457 607.176 300.023 606.924 300.738C606.678 301.454 606.556 302.268 606.556 303.181C606.556 304.094 606.678 304.908 606.924 305.624C607.176 306.339 607.547 306.905 608.038 307.321C608.535 307.729 609.149 307.934 609.878 307.934ZM624.769 301.924V311H620.415V295.301H624.565V298.071H624.749C625.096 297.158 625.679 296.435 626.496 295.904C627.314 295.366 628.306 295.097 629.471 295.097C630.561 295.097 631.511 295.335 632.322 295.812C633.133 296.289 633.763 296.97 634.213 297.856C634.663 298.735 634.888 299.784 634.888 301.004V311H630.534V301.781C630.54 300.82 630.295 300.071 629.798 299.532C629.3 298.987 628.616 298.715 627.743 298.715C627.157 298.715 626.64 298.841 626.19 299.093C625.747 299.345 625.399 299.713 625.147 300.197C624.902 300.674 624.776 301.249 624.769 301.924ZM652.483 311H645.062V290.068H652.544C654.649 290.068 656.462 290.487 657.981 291.325C659.501 292.156 660.669 293.352 661.487 294.913C662.312 296.473 662.724 298.34 662.724 300.514C662.724 302.694 662.312 304.568 661.487 306.135C660.669 307.702 659.494 308.905 657.961 309.743C656.435 310.581 654.609 311 652.483 311ZM649.488 307.208H652.299C653.607 307.208 654.707 306.976 655.6 306.513C656.499 306.043 657.174 305.317 657.624 304.336C658.08 303.348 658.309 302.074 658.309 300.514C658.309 298.967 658.08 297.703 657.624 296.722C657.174 295.74 656.503 295.018 655.61 294.555C654.718 294.092 653.617 293.86 652.309 293.86H649.488V307.208ZM675.988 304.316V295.301H680.342V311H676.162V308.148H675.998C675.644 309.068 675.054 309.808 674.23 310.366C673.412 310.925 672.414 311.204 671.235 311.204C670.186 311.204 669.263 310.966 668.465 310.489C667.668 310.012 667.045 309.334 666.595 308.455C666.152 307.576 665.927 306.523 665.92 305.297V295.301H670.274V304.52C670.281 305.447 670.53 306.179 671.021 306.718C671.511 307.256 672.169 307.525 672.993 307.525C673.518 307.525 674.008 307.406 674.465 307.167C674.921 306.922 675.289 306.561 675.569 306.084C675.855 305.607 675.995 305.017 675.988 304.316ZM683.825 311V295.301H688.046V298.04H688.209C688.495 297.066 688.976 296.33 689.65 295.832C690.325 295.328 691.102 295.076 691.981 295.076C692.199 295.076 692.434 295.09 692.686 295.117C692.938 295.144 693.159 295.182 693.35 295.229V299.093C693.146 299.032 692.863 298.977 692.502 298.929C692.141 298.882 691.81 298.858 691.511 298.858C690.87 298.858 690.298 298.997 689.793 299.277C689.296 299.549 688.901 299.931 688.608 300.422C688.322 300.912 688.179 301.478 688.179 302.118V311H683.825ZM699.628 311.296C698.627 311.296 697.734 311.123 696.951 310.775C696.167 310.421 695.547 309.9 695.09 309.211C694.641 308.516 694.416 307.651 694.416 306.615C694.416 305.743 694.576 305.011 694.896 304.418C695.216 303.825 695.652 303.348 696.204 302.987C696.756 302.626 697.383 302.353 698.085 302.169C698.794 301.985 699.536 301.856 700.313 301.781C701.226 301.686 701.962 301.597 702.521 301.515C703.08 301.427 703.485 301.297 703.737 301.127C703.989 300.956 704.115 300.704 704.115 300.37V300.309C704.115 299.662 703.911 299.161 703.502 298.807C703.1 298.452 702.528 298.275 701.785 298.275C701.001 298.275 700.378 298.449 699.915 298.796C699.451 299.137 699.145 299.566 698.995 300.084L694.968 299.757C695.172 298.803 695.574 297.979 696.174 297.284C696.773 296.582 697.547 296.044 698.494 295.669C699.448 295.287 700.552 295.097 701.805 295.097C702.678 295.097 703.512 295.199 704.309 295.403C705.113 295.608 705.826 295.924 706.446 296.354C707.072 296.783 707.566 297.335 707.928 298.009C708.289 298.677 708.469 299.478 708.469 300.411V311H704.34V308.823H704.217C703.965 309.314 703.628 309.746 703.206 310.121C702.783 310.489 702.276 310.779 701.683 310.99C701.09 311.194 700.405 311.296 699.628 311.296ZM700.875 308.292C701.516 308.292 702.081 308.165 702.572 307.913C703.063 307.654 703.448 307.307 703.727 306.871C704.006 306.435 704.146 305.941 704.146 305.389V303.723C704.01 303.811 703.822 303.893 703.584 303.968C703.352 304.036 703.09 304.101 702.797 304.162C702.504 304.217 702.211 304.268 701.918 304.316C701.625 304.357 701.359 304.394 701.121 304.428C700.61 304.503 700.163 304.622 699.782 304.786C699.4 304.949 699.104 305.171 698.892 305.45C698.681 305.723 698.576 306.063 698.576 306.472C698.576 307.065 698.79 307.518 699.22 307.832C699.656 308.138 700.208 308.292 700.875 308.292ZM720.198 295.301V298.572H710.743V295.301H720.198ZM712.89 291.54H717.244V306.176C717.244 306.578 717.305 306.891 717.428 307.116C717.55 307.334 717.721 307.487 717.939 307.576C718.164 307.665 718.423 307.709 718.716 307.709C718.92 307.709 719.124 307.692 719.329 307.658C719.533 307.617 719.69 307.586 719.799 307.566L720.484 310.806C720.266 310.874 719.959 310.952 719.564 311.041C719.169 311.136 718.688 311.194 718.123 311.215C717.073 311.256 716.154 311.116 715.363 310.796C714.58 310.475 713.97 309.978 713.534 309.303C713.098 308.629 712.883 307.777 712.89 306.748V291.54ZM723.034 311V295.301H727.388V311H723.034ZM725.221 293.277C724.574 293.277 724.018 293.063 723.555 292.633C723.099 292.197 722.87 291.676 722.87 291.07C722.87 290.47 723.099 289.956 723.555 289.526C724.018 289.09 724.574 288.872 725.221 288.872C725.868 288.872 726.42 289.09 726.877 289.526C727.34 289.956 727.572 290.47 727.572 291.07C727.572 291.676 727.34 292.197 726.877 292.633C726.42 293.063 725.868 293.277 725.221 293.277ZM737.969 311.307C736.381 311.307 735.008 310.969 733.85 310.295C732.698 309.613 731.809 308.666 731.182 307.453C730.555 306.234 730.242 304.82 730.242 303.212C730.242 301.59 730.555 300.173 731.182 298.96C731.809 297.74 732.698 296.793 733.85 296.119C735.008 295.437 736.381 295.097 737.969 295.097C739.556 295.097 740.926 295.437 742.078 296.119C743.236 296.793 744.129 297.74 744.755 298.96C745.382 300.173 745.696 301.59 745.696 303.212C745.696 304.82 745.382 306.234 744.755 307.453C744.129 308.666 743.236 309.613 742.078 310.295C740.926 310.969 739.556 311.307 737.969 311.307ZM737.989 307.934C738.712 307.934 739.315 307.729 739.798 307.321C740.282 306.905 740.647 306.339 740.892 305.624C741.144 304.908 741.27 304.094 741.27 303.181C741.27 302.268 741.144 301.454 740.892 300.738C740.647 300.023 740.282 299.457 739.798 299.042C739.315 298.626 738.712 298.418 737.989 298.418C737.26 298.418 736.647 298.626 736.15 299.042C735.659 299.457 735.288 300.023 735.036 300.738C734.79 301.454 734.668 302.268 734.668 303.181C734.668 304.094 734.79 304.908 735.036 305.624C735.288 306.339 735.659 306.905 736.15 307.321C736.647 307.729 737.26 307.934 737.989 307.934ZM752.881 301.924V311H748.527V295.301H752.676V298.071H752.86C753.208 297.158 753.791 296.435 754.608 295.904C755.426 295.366 756.417 295.097 757.582 295.097C758.673 295.097 759.623 295.335 760.434 295.812C761.245 296.289 761.875 296.97 762.325 297.856C762.775 298.735 762.999 299.784 762.999 301.004V311H758.645V301.781C758.652 300.82 758.407 300.071 757.909 299.532C757.412 298.987 756.727 298.715 755.855 298.715C755.269 298.715 754.751 298.841 754.302 299.093C753.859 299.345 753.511 299.713 753.259 300.197C753.014 300.674 752.888 301.249 752.881 301.924Z" fill="#002F71"/>
<mask id="mask0_55_793" style="mask-type:alpha" maskUnits="userSpaceOnUse" x="94" y="78" width="1122" height="334">
<path d="M171.439 178.647L96 246.751V410H1214V234.733L1068.5 211.698L903.34 290.318L785.262 102.531L534.11 211.698L345.277 82L248.753 321.365L171.439 178.647Z" stroke="#FF0000" stroke-width="4"/>
</mask>
<g mask="url(#mask0_55_793)">
<rect x="302" y="65" width="740" height="323" fill="#F66B6B"/>
</g>
<path d="M96 411L96 49" stroke="#10377D" stroke-width="6"/>
<path d="M93 411L1214 411" stroke="#10377D" stroke-width="6"/>
<defs>
<linearGradient id="paint0_linear_55_793" x1="672" y1="46" x2="672" y2="408" gradientUnits="userSpaceOnUse">
<stop stop-color="#F66B6B"/>
<stop offset="1" stop-color="white"/>
</linearGradient>
</defs>
</svg>
