<svg width="136" height="136" viewBox="0 0 136 136" fill="none" xmlns="http://www.w3.org/2000/svg">
<path d="M68 136C81.4491 136 94.5962 132.012 105.779 124.54C116.961 117.068 125.677 106.448 130.824 94.0225C135.971 81.5971 137.317 67.9246 134.693 54.7339C132.07 41.5432 125.593 29.4267 116.083 19.9168C106.573 10.4068 94.4568 3.93043 81.2661 1.30663C68.0754 -1.31716 54.4029 0.0294639 41.9775 5.17622C29.5521 10.323 18.932 19.0387 11.4601 30.2212C3.98813 41.4038 0 54.5509 0 68C0 86.0347 7.16426 103.331 19.9167 116.083C32.6692 128.836 49.9653 136 68 136Z" fill="white"/>
<path d="M100.268 34.816H46.5415V93.8098H100.268V34.816Z" fill="#C5EBF5" stroke="#0055DC" stroke-width="1.5" stroke-miterlimit="10"/>
<rect x="53.9153" y="41.1359" width="40.0315" height="46.3523" fill="white"/>
<path d="M74.985 45.3523H57.0762V47.4592H74.985V45.3523Z" fill="#0055DC"/>
<path d="M89.7336 45.3518H78.1455V47.4587H89.7336V45.3518Z" fill="#6ECCE5"/>
<path d="M64.4504 52.7257H57.0762V54.8326H64.4504V52.7257Z" fill="#0055DC"/>
<path d="M64.4504 81.1709H57.0762V83.2778H64.4504V81.1709Z" fill="#0055DC"/>
<path d="M87.6266 52.7257H67.6108V54.8326H87.6266V52.7257Z" fill="#6ECCE5"/>
<path d="M67.6108 60.0994H57.0762V62.2063H67.6108V60.0994Z" fill="#0055DC"/>
<path d="M83.4123 60.0994H70.7708V62.2063H83.4123V60.0994Z" fill="#6ECCE5"/>
<path d="M77.0915 67.4731H70.7708V69.5801H77.0915V67.4731Z" fill="#6ECCE5"/>
<path d="M81.3053 74.849H66.5569V76.9559H81.3053V74.849Z" fill="#6ECCE5"/>
<path d="M72.8781 81.1709H67.6108V83.2778H72.8781V81.1709Z" fill="#6ECCE5"/>
<path d="M67.6108 67.4731H57.0762V69.5801H67.6108V67.4731Z" fill="#0055DC"/>
<path d="M63.3969 74.849H57.0762V76.9559H63.3969V74.849Z" fill="#0055DC"/>
<path d="M92.8944 42.1898H39.168V101.184H92.8944V42.1898Z" fill="#E2F5FA" stroke="#0055DC" stroke-width="1.5" stroke-miterlimit="10"/>
<rect x="46.5417" y="48.5117" width="40.0315" height="46.3523" fill="white"/>
<path d="M68.6657 82.1019H50.7568V83.8499H68.6657V82.1019Z" fill="#0055DC"/>
<path d="M83.4142 82.1016H71.8262V83.8496H83.4142V82.1016Z" fill="#6ECCE5"/>
<path d="M58.1311 88.2173H50.7568V89.9653H58.1311V88.2173Z" fill="#0055DC"/>
<path d="M81.3072 88.2173H61.2915V89.9653H81.3072V88.2173Z" fill="#6ECCE5"/>
<g clip-path="url(#clip0_1736_3336)">
<path d="M71.0757 76.1295H64.2822V77.7924H71.0757V76.1295Z" fill="#0055DC"/>
<path d="M68.4729 50.7068H66.81V54.2973H68.4729V50.7068Z" fill="#0055DC"/>
<path d="M76.0832 54.14L73.5446 56.6786L74.7202 57.8541L77.2588 55.3155L76.0832 54.14Z" fill="#0055DC"/>
<path d="M80.4326 62.905H76.8425V64.5679H80.4326V62.905Z" fill="#0055DC"/>
<path d="M58.5132 62.9778H54.9231V64.6408H58.5132V62.9778Z" fill="#0055DC"/>
<path d="M59.2209 54.1917L58.0454 55.3672L60.5842 57.9062L61.7598 56.7306L59.2209 54.1917Z" fill="#0055DC"/>
<path d="M67.6779 55.8827C65.9681 55.8824 64.3046 56.4374 62.9376 57.4643C61.5706 58.4911 60.5741 59.9343 60.0982 61.5765C59.6224 63.2186 59.6928 64.9709 60.299 66.5696C60.9051 68.1683 62.0142 69.5268 63.4592 70.4406V73.5707L64.2894 74.4052H71.0664L71.8966 73.5707V70.4406C73.3416 69.5268 74.4506 68.1683 75.0568 66.5696C75.6629 64.9709 75.7334 63.2186 75.2575 61.5765C74.7816 59.9343 73.7852 58.4911 72.4182 57.4643C71.0512 56.4374 69.3876 55.8824 67.6779 55.8827ZM70.6682 69.2377L70.2362 69.4749V72.7406H65.1195V69.4749L64.6875 69.2377C63.4735 68.5735 62.5151 67.5241 61.9635 66.2549C61.412 64.9857 61.2986 63.569 61.6414 62.2283C61.9842 60.8876 62.7635 59.6991 63.8565 58.8504C64.9495 58.0017 66.294 57.541 67.6779 57.541C69.0617 57.541 70.4062 58.0017 71.4992 58.8504C72.5922 59.6991 73.3716 60.8876 73.7143 62.2283C74.0571 63.569 73.9438 64.9857 73.3922 66.2549C72.8407 67.5241 71.8823 68.5735 70.6682 69.2377Z" fill="#0055DC"/>
</g>
<defs>
<clipPath id="clip0_1736_3336">
<rect width="27.1081" height="27.1081" fill="white" transform="translate(54.1238 50.7068)"/>
</clipPath>
</defs>
</svg>
