<svg width="136" height="136" viewBox="0 0 136 136" fill="none" xmlns="http://www.w3.org/2000/svg">
<path d="M68 136C81.4491 136 94.5962 132.012 105.779 124.54C116.961 117.068 125.677 106.448 130.824 94.0225C135.971 81.5971 137.317 67.9246 134.693 54.7339C132.07 41.5432 125.593 29.4267 116.083 19.9168C106.573 10.4068 94.4568 3.93043 81.2661 1.30663C68.0754 -1.31716 54.4029 0.0294639 41.9775 5.17622C29.5521 10.323 18.932 19.0387 11.4601 30.2212C3.98813 41.4038 0 54.5509 0 68C0 86.0347 7.16426 103.331 19.9167 116.083C32.6692 128.836 49.9653 136 68 136Z" fill="#003682"/>
<path d="M100.268 34.8161H46.5415V93.8099H100.268V34.8161Z" fill="#C5EBF5" stroke="#0055DC" stroke-width="1.5" stroke-miterlimit="10"/>
<rect x="53.9155" y="41.1359" width="40.0315" height="46.3523" fill="white"/>
<path d="M74.985 45.3522H57.0762V47.4592H74.985V45.3522Z" fill="#0055DC"/>
<path d="M89.7336 45.3518H78.1455V47.4587H89.7336V45.3518Z" fill="#6ECCE5"/>
<path d="M64.4504 52.7257H57.0762V54.8326H64.4504V52.7257Z" fill="#0055DC"/>
<path d="M64.4504 81.1709H57.0762V83.2778H64.4504V81.1709Z" fill="#0055DC"/>
<path d="M87.6266 52.7257H67.6108V54.8326H87.6266V52.7257Z" fill="#6ECCE5"/>
<path d="M67.6108 60.0994H57.0762V62.2063H67.6108V60.0994Z" fill="#0055DC"/>
<path d="M83.412 60.0994H70.7705V62.2063H83.412V60.0994Z" fill="#6ECCE5"/>
<path d="M77.0913 67.4731H70.7705V69.5801H77.0913V67.4731Z" fill="#6ECCE5"/>
<path d="M81.3056 74.8491H66.5571V76.956H81.3056V74.8491Z" fill="#6ECCE5"/>
<path d="M72.8781 81.1709H67.6108V83.2778H72.8781V81.1709Z" fill="#6ECCE5"/>
<path d="M67.6108 67.4731H57.0762V69.5801H67.6108V67.4731Z" fill="#0055DC"/>
<path d="M63.3969 74.8491H57.0762V76.956H63.3969V74.8491Z" fill="#0055DC"/>
<path d="M92.8944 42.1899H39.168V101.184H92.8944V42.1899Z" fill="#E2F5FA" stroke="#0055DC" stroke-width="1.5" stroke-miterlimit="10"/>
<rect x="46.542" y="48.5117" width="40.0315" height="46.3523" fill="white"/>
<path d="M68.6657 82.1019H50.7568V83.8499H68.6657V82.1019Z" fill="#0055DC"/>
<path d="M83.4142 82.1016H71.8262V83.8496H83.4142V82.1016Z" fill="#6ECCE5"/>
<path d="M58.1311 88.2172H50.7568V89.9652H58.1311V88.2172Z" fill="#0055DC"/>
<path d="M81.3072 88.2172H61.2915V89.9652H81.3072V88.2172Z" fill="#6ECCE5"/>
<g clip-path="url(#clip0_1824_3451)">
<path d="M71.0759 76.1296H64.2824V77.7925H71.0759V76.1296Z" fill="#0055DC"/>
<path d="M68.4731 50.7069H66.8102V54.2975H68.4731V50.7069Z" fill="#0055DC"/>
<path d="M76.0834 54.1401L73.5448 56.6787L74.7204 57.8543L77.259 55.3157L76.0834 54.1401Z" fill="#0055DC"/>
<path d="M80.4329 62.9051H76.8427V64.568H80.4329V62.9051Z" fill="#0055DC"/>
<path d="M58.5135 62.978H54.9233V64.6409H58.5135V62.978Z" fill="#0055DC"/>
<path d="M59.2212 54.1918L58.0456 55.3673L60.5844 57.9063L61.76 56.7308L59.2212 54.1918Z" fill="#0055DC"/>
<path d="M67.6781 55.8829C65.9684 55.8825 64.3048 56.4375 62.9378 57.4644C61.5708 58.4913 60.5744 59.9344 60.0985 61.5766C59.6226 63.2187 59.6931 64.971 60.2992 66.5697C60.9053 68.1684 62.0144 69.5269 63.4594 70.4407V73.5709L64.2896 74.4053H71.0666L71.8968 73.5709V70.4407C73.3418 69.5269 74.4509 68.1684 75.057 66.5697C75.6632 64.971 75.7336 63.2187 75.2577 61.5766C74.7818 59.9344 73.7854 58.4913 72.4184 57.4644C71.0514 56.4375 69.3878 55.8825 67.6781 55.8829ZM70.6685 69.2378L70.2364 69.475V72.7407H65.1198V69.475L64.6877 69.2378C63.4737 68.5736 62.5153 67.5242 61.9638 66.255C61.4122 64.9858 61.2989 63.5692 61.6416 62.2284C61.9844 60.8877 62.7638 59.6992 63.8568 58.8505C64.9498 58.0018 66.2943 57.5411 67.6781 57.5411C69.0619 57.5411 70.4064 58.0018 71.4994 58.8505C72.5924 59.6992 73.3718 60.8877 73.7146 62.2284C74.0573 63.5692 73.944 64.9858 73.3925 66.255C72.8409 67.5242 71.8825 68.5736 70.6685 69.2378Z" fill="#0055DC"/>
</g>
<defs>
<clipPath id="clip0_1824_3451">
<rect width="27.1081" height="27.1081" fill="white" transform="translate(54.124 50.7069)"/>
</clipPath>
</defs>
</svg>
