<svg width="36" height="21" viewBox="0 0 36 21" fill="none" xmlns="http://www.w3.org/2000/svg">
<path d="M17.6859 10.7325C18.7249 10.7325 19.7405 10.4244 20.6043 9.84722C21.4682 9.27002 22.1415 8.44962 22.539 7.48976C22.9366 6.52991 23.0407 5.47371 22.838 4.45473C22.6353 3.43576 22.135 2.49977 21.4003 1.76512C20.6657 1.03048 19.7297 0.530186 18.7107 0.327499C17.6918 0.124812 16.6356 0.228839 15.6757 0.626424C14.7158 1.02401 13.8954 1.6973 13.3182 2.56114C12.741 3.42499 12.433 4.4406 12.433 5.47954C12.4341 6.87235 12.9879 8.20779 13.9728 9.19265C14.9577 10.1775 16.2931 10.7313 17.6859 10.7325ZM17.6859 2.44111C18.2874 2.44111 18.8754 2.61947 19.3755 2.95364C19.8756 3.28781 20.2654 3.76278 20.4956 4.31849C20.7258 4.87419 20.786 5.48567 20.6687 6.07561C20.5513 6.66554 20.2617 7.20743 19.8364 7.63275C19.4111 8.05807 18.8692 8.34771 18.2792 8.46506C17.6893 8.5824 17.0778 8.52218 16.5221 8.292C15.9664 8.06182 15.4914 7.67202 15.1573 7.1719C14.8231 6.67178 14.6447 6.08379 14.6447 5.4823C14.6447 4.67573 14.9651 3.90219 15.5355 3.33185C16.1058 2.76152 16.8793 2.44111 17.6859 2.44111Z" fill="#313131"/>
<path d="M6.64363 13.0245C7.40916 13.0245 8.1575 12.7975 8.79402 12.3721C9.43054 11.9468 9.92665 11.3423 10.2196 10.6351C10.5126 9.92781 10.5892 9.14956 10.4399 8.39873C10.2905 7.64791 9.92188 6.95823 9.38056 6.41692C8.83925 5.8756 8.14957 5.50696 7.39875 5.35761C6.64792 5.20827 5.86967 5.28492 5.16241 5.57787C4.45515 5.87083 3.85064 6.36694 3.42533 7.00346C3.00002 7.63997 2.77302 8.38832 2.77302 9.15385C2.77404 10.1801 3.18216 11.164 3.90782 11.8897C4.63348 12.6153 5.61739 13.0234 6.64363 13.0245ZM6.64363 7.49502C6.97171 7.49502 7.29243 7.59231 7.56523 7.77458C7.83802 7.95686 8.05064 8.21593 8.17619 8.51904C8.30174 8.82216 8.33459 9.15569 8.27059 9.47747C8.20658 9.79926 8.04859 10.0948 7.8166 10.3268C7.58461 10.5588 7.28903 10.7168 6.96725 10.7808C6.64547 10.8448 6.31193 10.812 6.00882 10.6864C5.70571 10.5609 5.44663 10.3482 5.26436 10.0755C5.08208 9.80266 4.98479 9.48194 4.98479 9.15385C4.98523 8.71419 5.1602 8.29268 5.47124 7.98195C5.78228 7.67122 6.20396 7.49668 6.64363 7.49668V7.49502Z" fill="#313131"/>
<path d="M29.8468 13.6012H27.6168C26.7955 13.6004 25.9846 13.7845 25.2441 14.1398C24.5204 13.2798 23.6175 12.5885 22.5985 12.1141C21.5796 11.6398 20.4693 11.394 19.3453 11.3938H16.0022C14.8803 11.394 13.7719 11.6391 12.7544 12.1118C11.7369 12.5845 10.8349 13.2736 10.1111 14.1309C9.37319 13.7813 8.56666 13.6003 7.75007 13.6012H5.5206C4.05713 13.6028 2.65405 14.1848 1.61911 15.2195C0.584181 16.2542 0.00190258 17.6572 0 19.1207L1.10589 20.2266H34.2621L35.368 19.1207C35.3662 17.6571 34.7839 16.2539 33.7488 15.2192C32.7137 14.1844 31.3104 13.6025 29.8468 13.6012ZM5.5206 15.813H7.75007C8.15064 15.8149 8.5475 15.8899 8.9212 16.0341C8.64667 16.666 8.45863 17.3321 8.36218 18.0142H2.40199C2.63148 17.3706 3.0543 16.8136 3.61257 16.4195C4.17084 16.0255 4.83726 15.8136 5.5206 15.813ZM10.5966 18.0153C10.8533 16.7709 11.531 15.6529 12.5156 14.8497C13.5002 14.0465 14.7316 13.6071 16.0022 13.6056H19.3453C20.616 13.607 21.8474 14.0462 22.8321 14.8493C23.8168 15.6524 24.4946 16.7703 24.7514 18.0148L10.5966 18.0153ZM26.9853 18.0153C26.8895 17.3351 26.7024 16.671 26.4291 16.0408C26.8075 15.8921 27.2102 15.8148 27.6168 15.813H29.8468C30.5302 15.8137 31.1967 16.0257 31.7549 16.42C32.3131 16.8142 32.7358 17.3715 32.9649 18.0153H26.9853Z" fill="#313131"/>
<path d="M28.7404 13.0245C29.5059 13.0245 30.2543 12.7975 30.8908 12.3721C31.5273 11.9468 32.0234 11.3423 32.3164 10.6351C32.6093 9.92781 32.686 9.14956 32.5366 8.39873C32.3873 7.64791 32.0186 6.95823 31.4773 6.41692C30.936 5.8756 30.2463 5.50696 29.4955 5.35761C28.7447 5.20827 27.9664 5.28492 27.2592 5.57787C26.5519 5.87083 25.9474 6.36694 25.5221 7.00346C25.0968 7.63997 24.8698 8.38832 24.8698 9.15385C24.8708 10.1801 25.2789 11.164 26.0046 11.8897C26.7302 12.6153 27.7142 13.0234 28.7404 13.0245ZM28.7404 7.49502C29.0685 7.49502 29.3892 7.59231 29.662 7.77458C29.9348 7.95686 30.1474 8.21593 30.273 8.51904C30.3985 8.82216 30.4314 9.15569 30.3673 9.47747C30.3033 9.79926 30.1454 10.0948 29.9134 10.3268C29.6814 10.5588 29.3858 10.7168 29.064 10.7808C28.7422 10.8448 28.4087 10.812 28.1056 10.6864C27.8025 10.5609 27.5434 10.3482 27.3611 10.0755C27.1788 9.80266 27.0816 9.48194 27.0816 9.15385C27.082 8.71419 27.257 8.29268 27.568 7.98195C27.879 7.67122 28.3007 7.49668 28.7404 7.49668V7.49502Z" fill="#313131"/>
</svg>
