<svg width="16" height="16" viewBox="0 0 16 16" fill="none" xmlns="http://www.w3.org/2000/svg">
<g clip-path="url(#clip0_2122_2118)">
<path d="M8.00553 8.22803C8.47526 8.22803 8.93444 8.08874 9.32501 7.82777C9.71557 7.5668 10.02 7.19588 10.1997 6.7619C10.3795 6.32793 10.4265 5.85039 10.3349 5.38969C10.2433 4.92898 10.0171 4.5058 9.68491 4.17365C9.35276 3.8415 8.92957 3.6153 8.46887 3.52366C8.00816 3.43202 7.53063 3.47906 7.09665 3.65881C6.66268 3.83857 6.29176 4.14298 6.03079 4.53355C5.76982 4.92412 5.63053 5.3833 5.63053 5.85303C5.63106 6.48276 5.88145 7.08654 6.32673 7.53182C6.77202 7.97711 7.3758 8.2275 8.00553 8.22803ZM8.00553 4.47928C8.27748 4.47928 8.54332 4.55992 8.76944 4.71101C8.99555 4.86209 9.17179 5.07684 9.27586 5.32809C9.37993 5.57934 9.40716 5.8558 9.35411 6.12253C9.30105 6.38925 9.1701 6.63425 8.9778 6.82655C8.7855 7.01885 8.5405 7.1498 8.27378 7.20286C8.00705 7.25591 7.73059 7.22868 7.47934 7.12461C7.22809 7.02054 7.01334 6.84431 6.86226 6.61819C6.71117 6.39207 6.63053 6.12623 6.63053 5.85428C6.63053 5.48961 6.77539 5.13987 7.03326 4.88201C7.29112 4.62414 7.64085 4.47928 8.00553 4.47928Z" fill="black"/>
<path d="M3.01303 9.26428C3.35914 9.26428 3.69749 9.16164 3.98528 8.96935C4.27306 8.77706 4.49736 8.50374 4.62982 8.18397C4.76227 7.8642 4.79693 7.51234 4.7294 7.17287C4.66188 6.8334 4.49521 6.52158 4.25046 6.27684C4.00572 6.0321 3.6939 5.86543 3.35444 5.7979C3.01497 5.73038 2.6631 5.76504 2.34333 5.89749C2.02356 6.02994 1.75025 6.25424 1.55796 6.54203C1.36566 6.82982 1.26303 7.16816 1.26303 7.51428C1.26349 7.97827 1.44801 8.42312 1.7761 8.7512C2.10419 9.07929 2.54904 9.26382 3.01303 9.26428ZM3.01303 6.76428C3.16136 6.76428 3.30637 6.80827 3.42971 6.89068C3.55304 6.97309 3.64917 7.09022 3.70594 7.22727C3.7627 7.36431 3.77756 7.51511 3.74862 7.6606C3.71968 7.80608 3.64825 7.93972 3.54336 8.04461C3.43847 8.1495 3.30483 8.22093 3.15935 8.24987C3.01386 8.27881 2.86306 8.26395 2.72601 8.20719C2.58897 8.15042 2.47184 8.05429 2.38943 7.93096C2.30701 7.80762 2.26303 7.66261 2.26303 7.51428C2.26323 7.3155 2.34233 7.12492 2.48296 6.98443C2.62359 6.84394 2.81424 6.76503 3.01303 6.76503V6.76428Z" fill="black"/>
<path d="M13.5038 9.52503H12.4955C12.1242 9.5247 11.7576 9.60792 11.4228 9.76853C11.0956 9.37972 10.6873 9.06715 10.2266 8.85269C9.76595 8.63824 9.26394 8.52709 8.75578 8.52703H7.24428C6.73702 8.52712 6.23589 8.6379 5.77587 8.85164C5.31584 9.06537 4.90799 9.37692 4.58078 9.76453C4.24713 9.60645 3.88248 9.52464 3.51328 9.52503H2.50528C1.84361 9.52576 1.20924 9.78889 0.741319 10.2567C0.2734 10.7245 0.0101375 11.3589 0.00927734 12.0205L0.509277 12.5205H15.5L16 12.0205C15.9992 11.3588 15.736 10.7244 15.268 10.2566C14.8 9.78871 14.1655 9.52562 13.5038 9.52503ZM2.50528 10.525H3.51328C3.69439 10.5259 3.87382 10.5598 4.04278 10.625C3.91865 10.9107 3.83364 11.2119 3.79003 11.5203H1.09528C1.19903 11.2293 1.3902 10.9774 1.64261 10.7993C1.89502 10.6211 2.19633 10.5253 2.50528 10.525ZM4.80028 11.5208C4.91634 10.9581 5.22275 10.4527 5.66791 10.0895C6.11307 9.72636 6.66978 9.52772 7.24428 9.52703H8.75578C9.33028 9.52765 9.88702 9.72623 10.3322 10.0893C10.7774 10.4524 11.0839 10.9579 11.2 11.5205L4.80028 11.5208ZM12.21 11.5208C12.1667 11.2132 12.0821 10.913 11.9585 10.628C12.1296 10.5608 12.3117 10.5259 12.4955 10.525H13.5038C13.8128 10.5253 14.1141 10.6212 14.3665 10.7995C14.6189 10.9777 14.8099 11.2297 14.9135 11.5208H12.21Z" fill="black"/>
<path d="M13.0035 9.26428C13.3496 9.26428 13.688 9.16164 13.9758 8.96935C14.2636 8.77706 14.4879 8.50374 14.6203 8.18397C14.7528 7.8642 14.7874 7.51234 14.7199 7.17287C14.6524 6.8334 14.4857 6.52158 14.241 6.27684C13.9962 6.0321 13.6844 5.86543 13.3449 5.7979C13.0055 5.73038 12.6536 5.76504 12.3338 5.89749C12.0141 6.02994 11.7407 6.25424 11.5485 6.54203C11.3562 6.82982 11.2535 7.16816 11.2535 7.51428C11.254 7.97827 11.4385 8.42312 11.7666 8.7512C12.0947 9.07929 12.5395 9.26382 13.0035 9.26428ZM13.0035 6.76428C13.1519 6.76428 13.2969 6.80827 13.4202 6.89068C13.5435 6.97309 13.6397 7.09022 13.6964 7.22727C13.7532 7.36431 13.7681 7.51511 13.7391 7.6606C13.7102 7.80608 13.6387 7.93972 13.5339 8.04461C13.429 8.1495 13.2953 8.22093 13.1498 8.24987C13.0044 8.27881 12.8536 8.26395 12.7165 8.20719C12.5795 8.15042 12.4623 8.05429 12.3799 7.93096C12.2975 7.80762 12.2535 7.66261 12.2535 7.51428C12.2537 7.3155 12.3328 7.12492 12.4735 6.98443C12.6141 6.84394 12.8047 6.76503 13.0035 6.76503V6.76428Z" fill="black"/>
</g>
<defs>
<clipPath id="clip0_2122_2118">
<rect width="16" height="16" fill="white"/>
</clipPath>
</defs>
</svg>
