<svg viewBox="0 0 36 21" fill="none" xmlns="http://www.w3.org/2000/svg">
<path d="M18.223 11.0059C19.262 11.0059 20.2776 10.6979 21.1414 10.1207C22.0053 9.54346 22.6786 8.72305 23.0761 7.7632C23.4737 6.80334 23.5778 5.74715 23.3751 4.72817C23.1724 3.70919 22.6721 2.7732 21.9374 2.03856C21.2028 1.30392 20.2668 0.803624 19.2478 0.600937C18.2289 0.39825 17.1727 0.502276 16.2128 0.899861C15.253 1.29745 14.4326 1.97073 13.8553 2.83458C13.2781 3.69843 12.9701 4.71403 12.9701 5.75297C12.9712 7.14579 13.525 8.48122 14.5099 9.46609C15.4948 10.451 16.8302 11.0048 18.223 11.0059ZM18.223 2.71454C18.8245 2.71454 19.4125 2.89291 19.9126 3.22708C20.4128 3.56125 20.8026 4.03622 21.0327 4.59192C21.2629 5.14763 21.3231 5.75911 21.2058 6.34905C21.0884 6.93898 20.7988 7.48087 20.3735 7.90619C19.9482 8.33151 19.4063 8.62115 18.8163 8.7385C18.2264 8.85584 17.6149 8.79562 17.0592 8.56544C16.5035 8.33525 16.0285 7.94546 15.6944 7.44534C15.3602 6.94521 15.1818 6.35723 15.1818 5.75574C15.1818 4.94916 15.5023 4.17562 16.0726 3.60529C16.6429 3.03496 17.4165 2.71454 18.223 2.71454Z" fill="#0055DC"/>
<path d="M7.18074 13.2979C7.94627 13.2979 8.69461 13.0709 9.33113 12.6456C9.96765 12.2203 10.4638 11.6158 10.7567 10.9085C11.0497 10.2012 11.1263 9.423 10.977 8.67217C10.8276 7.92135 10.459 7.23167 9.91767 6.69035C9.37636 6.14904 8.68668 5.7804 7.93585 5.63105C7.18503 5.4817 6.40678 5.55835 5.69952 5.85131C4.99226 6.14427 4.38775 6.64037 3.96244 7.27689C3.53713 7.91341 3.31013 8.66175 3.31013 9.42729C3.31115 10.4535 3.71927 11.4374 4.44493 12.1631C5.17059 12.8888 6.1545 13.2969 7.18074 13.2979ZM7.18074 7.76846C7.50882 7.76846 7.82954 7.86575 8.10233 8.04802C8.37513 8.23029 8.58774 8.48937 8.7133 8.79248C8.83885 9.09559 8.8717 9.42913 8.8077 9.75091C8.74369 10.0727 8.5857 10.3683 8.35371 10.6003C8.12172 10.8323 7.82614 10.9902 7.50436 11.0542C7.18258 11.1183 6.84904 11.0854 6.54593 10.9599C6.24282 10.8343 5.98374 10.6217 5.80147 10.3489C5.61919 10.0761 5.5219 9.75537 5.5219 9.42729C5.52234 8.98763 5.69731 8.56612 6.00835 8.25539C6.31939 7.94466 6.74107 7.77011 7.18074 7.77011V7.76846Z" fill="#0055DC"/>
<path d="M30.3839 13.8746H28.1539C27.3326 13.8739 26.5217 14.058 25.7812 14.4132C25.0575 13.5532 24.1546 12.8619 23.1356 12.3876C22.1167 11.9132 21.0064 11.6674 19.8824 11.6673H16.5393C15.4174 11.6675 14.309 11.9125 13.2915 12.3852C12.274 12.858 11.372 13.547 10.6482 14.4043C9.9103 14.0547 9.10376 13.8738 8.28718 13.8746H6.05771C4.59424 13.8762 3.19116 14.4582 2.15622 15.493C1.12129 16.5277 0.539012 17.9306 0.537109 19.3941L1.643 20.5H34.7992L35.9051 19.3941C35.9033 17.9305 35.321 16.5274 34.2859 15.4926C33.2509 14.4578 31.8475 13.8759 30.3839 13.8746ZM6.05771 16.0864H8.28718C8.68775 16.0884 9.08461 16.1633 9.45831 16.3076C9.18378 16.9395 8.99574 17.6055 8.89929 18.2877H2.9391C3.16859 17.644 3.59141 17.087 4.14968 16.693C4.70795 16.2989 5.37437 16.0871 6.05771 16.0864ZM11.1337 18.2888C11.3904 17.0443 12.0682 15.9263 13.0527 15.1231C14.0373 14.3199 15.2687 13.8806 16.5393 13.879H19.8824C21.1531 13.8804 22.3845 14.3196 23.3692 15.1227C24.3539 15.9259 25.0317 17.0438 25.2886 18.2882L11.1337 18.2888ZM27.5225 18.2888C27.4266 17.6086 27.2395 16.9444 26.9662 16.3142C27.3446 16.1655 27.7473 16.0883 28.1539 16.0864H30.3839C31.0674 16.0871 31.7338 16.2991 32.292 16.6934C32.8502 17.0877 33.2729 17.6449 33.502 18.2888H27.5225Z" fill="#0055DC"/>
<path d="M29.2775 13.2979C30.043 13.2979 30.7914 13.0709 31.4279 12.6456C32.0644 12.2203 32.5605 11.6158 32.8535 10.9085C33.1464 10.2012 33.2231 9.423 33.0737 8.67217C32.9244 7.92135 32.5557 7.23167 32.0144 6.69035C31.4731 6.14904 30.7834 5.7804 30.0326 5.63105C29.2818 5.4817 28.5035 5.55835 27.7963 5.85131C27.089 6.14427 26.4845 6.64037 26.0592 7.27689C25.6339 7.91341 25.4069 8.66175 25.4069 9.42729C25.4079 10.4535 25.816 11.4374 26.5417 12.1631C27.2674 12.8888 28.2513 13.2969 29.2775 13.2979ZM29.2775 7.76846C29.6056 7.76846 29.9263 7.86575 30.1991 8.04802C30.4719 8.23029 30.6845 8.48937 30.8101 8.79248C30.9356 9.09559 30.9685 9.42913 30.9045 9.75091C30.8405 10.0727 30.6825 10.3683 30.4505 10.6003C30.2185 10.8323 29.9229 10.9902 29.6011 11.0542C29.2793 11.1183 28.9458 11.0854 28.6427 10.9599C28.3396 10.8343 28.0805 10.6217 27.8982 10.3489C27.716 10.0761 27.6187 9.75537 27.6187 9.42729C27.6191 8.98763 27.7941 8.56612 28.1051 8.25539C28.4162 7.94466 28.8378 7.77011 29.2775 7.77011V7.76846Z" fill="#0055DC"/>
</svg>
