<svg width="728" height="262" viewBox="0 0 728 262" fill="none" xmlns="http://www.w3.org/2000/svg">
<path d="M594 228C594 198.059 588.103 168.41 576.645 140.748C565.186 113.086 548.392 87.9514 527.22 66.7796C506.049 45.6079 480.914 28.8135 453.252 17.3555C425.59 5.89739 395.941 -1.30878e-06 366 0C336.059 1.30878e-06 306.41 5.8974 278.748 17.3555C251.086 28.8135 225.951 45.6079 204.78 66.7797C183.608 87.9514 166.814 113.086 155.355 140.748C143.897 168.41 138 198.059 138 228L366 228H594Z" fill="#0055DC" fill-opacity="0.3"/>
<path fill-rule="evenodd" clip-rule="evenodd" d="M687.764 233.445C694.17 228.715 703.135 228.17 710.712 232.805C712.989 234.198 714.95 235.942 716.562 237.924C710.156 242.654 701.191 243.2 693.614 238.565C691.337 237.172 689.376 235.428 687.764 233.445Z" fill="#FBAD41"/>
<mask id="mask0_0_1" style="mask-type:luminance" maskUnits="userSpaceOnUse" x="687" y="229" width="30" height="13">
<path fill-rule="evenodd" clip-rule="evenodd" d="M687.764 233.445C694.17 228.715 703.135 228.17 710.712 232.805C712.989 234.198 714.95 235.942 716.562 237.924C710.156 242.654 701.191 243.2 693.614 238.565C691.337 237.172 689.376 235.428 687.764 233.445Z" fill="white"/>
</mask>
<g mask="url(#mask0_0_1)">
<path d="M687.764 233.445L686.673 231.853L685.05 233.051L686.372 234.677L687.764 233.445ZM716.562 237.924L717.653 239.516L719.275 238.318L717.954 236.693L716.562 237.924ZM688.855 235.037C694.681 230.736 702.869 230.221 709.814 234.47L711.611 231.14C703.402 226.119 693.66 226.695 686.673 231.853L688.855 235.037ZM709.814 234.47C711.902 235.747 713.696 237.344 715.17 239.156L717.954 236.693C716.203 234.54 714.076 232.649 711.611 231.14L709.814 234.47ZM715.471 236.332C709.645 240.634 701.457 241.148 694.512 236.9L692.715 240.229C700.924 245.251 710.666 244.675 717.653 239.516L715.471 236.332ZM694.512 236.9C692.424 235.622 690.63 234.026 689.156 232.214L686.372 234.677C688.123 236.83 690.25 238.721 692.715 240.229L694.512 236.9Z" fill="#FF6633"/>
</g>
<path fill-rule="evenodd" clip-rule="evenodd" d="M727.058 223.562C722.327 228.715 715.397 230.653 709.28 227.867C707.442 227.03 705.832 225.836 704.48 224.379C709.211 219.226 716.141 217.288 722.257 220.074C724.096 220.911 725.706 222.105 727.058 223.562Z" fill="#FBAD41"/>
<mask id="mask1_0_1" style="mask-type:luminance" maskUnits="userSpaceOnUse" x="704" y="218" width="24" height="12">
<path fill-rule="evenodd" clip-rule="evenodd" d="M727.058 223.562C722.327 228.715 715.397 230.653 709.28 227.867C707.442 227.03 705.832 225.836 704.48 224.379C709.211 219.226 716.141 217.288 722.257 220.074C724.096 220.911 725.706 222.105 727.058 223.562Z" fill="white"/>
</mask>
<g mask="url(#mask1_0_1)">
<path d="M727.058 223.562L728.42 224.929L729.627 223.614L728.361 222.249L727.058 223.562ZM704.48 224.379L703.118 223.012L701.91 224.327L703.176 225.692L704.48 224.379ZM725.696 222.196C721.375 226.902 715.226 228.5 709.96 226.102L708.601 229.633C715.567 232.805 723.279 230.528 728.42 224.929L725.696 222.196ZM709.96 226.102C708.363 225.375 706.963 224.338 705.783 223.066L703.176 225.692C704.7 227.335 706.521 228.685 708.601 229.633L709.96 226.102ZM705.841 225.745C710.163 221.039 716.311 219.441 721.578 221.839L722.937 218.308C715.97 215.136 708.259 217.413 703.118 223.012L705.841 225.745ZM721.578 221.839C723.175 222.566 724.575 223.603 725.755 224.876L728.361 222.249C726.838 220.606 725.017 219.256 722.937 218.308L721.578 221.839Z" fill="#FF6633"/>
</g>
<path d="M714.216 214.837C714.216 214.837 710.031 221.187 702.595 226.704C694.925 232.395 684.149 232.18 679.49 234.87C679.478 234.877 679.46 234.888 679.46 234.888" stroke="#FF6633" stroke-width="1.89161" stroke-linecap="square" stroke-linejoin="round"/>
<path fill-rule="evenodd" clip-rule="evenodd" d="M724.153 196.929C725.596 202.88 723.949 208.793 719.481 211.766C718.138 212.659 716.653 213.212 715.1 213.448C713.657 207.497 715.304 201.584 719.772 198.612C721.115 197.718 722.6 197.165 724.153 196.929Z" fill="#FBAD41"/>
<path d="M724.153 196.929L725.068 196.702L724.865 195.862L724.014 195.991L724.153 196.929ZM715.1 213.448L714.184 213.676L714.388 214.516L715.238 214.387L715.1 213.448ZM723.237 197.157C724.615 202.84 723.004 208.286 718.963 210.974L719.999 212.557C724.893 209.301 726.576 202.92 725.068 196.702L723.237 197.157ZM718.963 210.974C717.74 211.788 716.386 212.293 714.962 212.51L715.238 214.387C716.92 214.131 718.536 213.531 719.999 212.557L718.963 210.974ZM716.016 213.221C714.638 207.537 716.249 202.092 720.29 199.403L719.254 197.82C714.36 201.076 712.677 207.457 714.184 213.676L716.016 213.221ZM720.29 199.403C721.513 198.589 722.867 198.084 724.291 197.868L724.014 195.991C722.333 196.247 720.717 196.847 719.254 197.82L720.29 199.403Z" fill="#FF6633"/>
<path d="M100.676 231.096V236.623L33.0656 236.618L33.0658 231.092L100.676 231.096Z" fill="#E0EDFF" stroke="#3E74FF" stroke-width="1.89161" stroke-miterlimit="10"/>
<path d="M28.9213 212.164H104.82V232.137H28.9213V212.164Z" fill="#A8CBFF" stroke="#3E74FF" stroke-width="1.89161" stroke-miterlimit="10"/>
<path d="M32.916 228.143V216.159H100.826V228.143H32.916Z" fill="#E0EDFF"/>
<path d="M93.2581 223.574C92.5851 223.574 92.0391 223.028 92.0391 222.354C92.0391 221.68 92.5851 221.134 93.2581 221.134C93.9321 221.134 94.4781 221.68 94.4781 222.354C94.4781 223.028 93.9321 223.574 93.2581 223.574Z" fill="#3E74FF"/>
<path d="M88.835 223.574C88.162 223.574 87.6155 223.028 87.6155 222.354C87.6155 221.68 88.162 221.134 88.835 221.134C89.509 221.134 90.055 221.68 90.055 222.354C90.055 223.028 89.509 223.574 88.835 223.574Z" fill="#3E74FF"/>
<path d="M82.5475 225.099C81.0316 225.099 79.8027 223.87 79.8027 222.354C79.8027 220.838 81.0316 219.609 82.5475 219.609C84.0635 219.609 85.2924 220.838 85.2924 222.354C85.2924 223.87 84.0635 225.099 82.5475 225.099Z" fill="#6691FF"/>
<path d="M44.9003 212.878V184.201" stroke="#3E74FF" stroke-width="1.89161" stroke-miterlimit="10"/>
<path d="M40.6558 220.153H48.8949" stroke="#3E74FF" stroke-width="1.89161" stroke-miterlimit="10"/>
<path d="M54.7404 184.871C54.6701 182.654 53.944 180.508 52.6539 178.704C51.3638 176.899 49.5677 175.518 47.4927 174.735C45.4177 173.952 43.157 173.801 40.9965 174.303C38.836 174.804 36.8727 175.935 35.3549 177.552" stroke="#FBAD41" stroke-width="1.89161"/>
<path d="M62.9476 184.29C62.8256 180.445 61.5662 176.723 59.3286 173.593C57.0909 170.464 53.9756 168.069 50.3765 166.71C46.7774 165.351 42.8563 165.09 39.1089 165.96C35.3615 166.83 31.9562 168.791 29.3235 171.596" stroke="#FBAD41" stroke-width="1.89161"/>
<path d="M70.5793 184.011C70.4078 178.607 68.6378 173.376 65.493 168.978C62.3483 164.58 57.97 161.213 52.9119 159.304C47.8538 157.394 42.343 157.027 37.0764 158.25C31.8098 159.472 27.024 162.229 23.3242 166.171" stroke="#FBAD41" stroke-width="1.89161"/>
<path fill-rule="evenodd" clip-rule="evenodd" d="M27.7499 234.623C31.1609 227.777 30.6854 219.422 25.88 213.388C24.4357 211.575 22.7216 210.123 20.8379 209.041C17.4269 215.887 17.9024 224.242 22.7078 230.275C24.1521 232.089 25.8662 233.54 27.7499 234.623Z" fill="#FBAD41"/>
<mask id="mask2_0_1" style="mask-type:luminance" maskUnits="userSpaceOnUse" x="18" y="209" width="12" height="26">
<path fill-rule="evenodd" clip-rule="evenodd" d="M27.7499 234.623C31.1609 227.777 30.6854 219.422 25.88 213.388C24.4357 211.575 22.7216 210.123 20.8379 209.041C17.4269 215.887 17.9024 224.242 22.7078 230.275C24.1521 232.089 25.8662 233.54 27.7499 234.623Z" fill="white"/>
</mask>
<g mask="url(#mask2_0_1)">
<path d="M27.7499 234.623L29.3941 235.501L28.512 237.271L26.8446 236.313L27.7499 234.623ZM20.8379 209.041L19.1937 208.163L20.0759 206.392L21.7432 207.351L20.8379 209.041ZM26.1058 233.745C29.2045 227.525 28.7407 220.014 24.4493 214.626L27.3107 212.151C32.6302 218.83 33.1173 228.028 29.3941 235.501L26.1058 233.745ZM24.4493 214.626C23.1545 213 21.6197 211.701 19.9326 210.731L21.7432 207.351C23.8235 208.546 25.717 210.15 27.3107 212.151L24.4493 214.626ZM22.4821 209.919C19.3833 216.138 19.8471 223.65 24.1385 229.038L21.2771 231.513C15.9576 224.834 15.4705 215.636 19.1937 208.163L22.4821 209.919ZM24.1385 229.038C25.4334 230.664 26.9682 231.963 28.6553 232.933L26.8446 236.313C24.7643 235.117 22.8708 233.514 21.2771 231.513L24.1385 229.038Z" fill="#FF6633"/>
</g>
<path fill-rule="evenodd" clip-rule="evenodd" d="M0.882202 228.776C5.4184 233.715 12.0621 235.573 17.926 232.903C19.6884 232.1 21.2323 230.956 22.5285 229.558C17.9924 224.618 11.3486 222.76 5.4848 225.431C3.7224 226.234 2.1784 227.378 0.882202 228.776Z" fill="#FBAD41"/>
<mask id="mask3_0_1" style="mask-type:luminance" maskUnits="userSpaceOnUse" x="0" y="224" width="23" height="11">
<path fill-rule="evenodd" clip-rule="evenodd" d="M0.882202 228.776C5.4184 233.715 12.0621 235.573 17.926 232.903C19.6884 232.1 21.2323 230.956 22.5285 229.558C17.9924 224.618 11.3486 222.76 5.4848 225.431C3.7224 226.234 2.1784 227.378 0.882202 228.776Z" fill="white"/>
</mask>
<g mask="url(#mask3_0_1)">
<path d="M0.882189 228.776L-0.479411 230.143L-1.68701 228.828L-0.421111 227.463L0.882189 228.776ZM22.5285 229.558L23.8902 228.191L25.0977 229.506L23.8318 230.871L22.5285 229.558ZM2.24379 227.409C6.37029 231.902 12.2327 233.421 17.2466 231.137L18.6054 234.668C11.8916 237.726 4.46639 235.528 -0.479411 230.143L2.24379 227.409ZM17.2466 231.137C18.7673 230.445 20.1008 229.457 21.2253 228.245L23.8318 230.871C22.3638 232.454 20.6094 233.755 18.6054 234.668L17.2466 231.137ZM21.1669 230.925C17.0404 226.431 11.1781 224.913 6.16409 227.196L4.80539 223.666C11.5191 220.608 18.9443 222.805 23.8902 228.191L21.1669 230.925ZM6.16409 227.196C4.64339 227.889 3.30989 228.876 2.18549 230.089L-0.421111 227.463C1.04699 225.88 2.80129 224.578 4.80539 223.666L6.16409 227.196Z" fill="#FF6633"/>
</g>
<path d="M39.5155 236.608C37.041 236.608 31.6889 237.243 24.3353 231.788C17.2064 226.498 13.1937 220.411 13.1937 220.411" stroke="#FF6633" stroke-width="1.89161" stroke-linecap="square" stroke-linejoin="round"/>
<path fill-rule="evenodd" clip-rule="evenodd" d="M4.29862 203.873C2.91532 209.578 4.49412 215.247 8.77752 218.097C10.0651 218.953 11.489 219.483 12.9774 219.709C14.3607 214.004 12.7819 208.335 8.49852 205.485C7.21092 204.629 5.78702 204.099 4.29862 203.873Z" fill="#FBAD41"/>
<path d="M4.29866 203.873L3.38296 203.645L3.58666 202.805L4.43686 202.934L4.29866 203.873ZM12.9775 219.709L13.8932 219.937L13.6895 220.777L12.8393 220.648L12.9775 219.709ZM5.21446 204.1C3.89596 209.538 5.43866 214.739 9.29556 217.305L8.25956 218.888C3.54976 215.755 1.93476 209.618 3.38296 203.645L5.21446 204.1ZM9.29556 217.305C10.4631 218.082 11.7561 218.564 13.1157 218.771L12.8393 220.648C11.222 220.402 9.66736 219.824 8.25956 218.888L9.29556 217.305ZM12.0618 219.482C13.3803 214.044 11.8376 208.843 7.98056 206.277L9.01656 204.694C13.7265 207.827 15.3414 213.964 13.8932 219.937L12.0618 219.482ZM7.98056 206.277C6.81306 205.5 5.52006 205.018 4.16056 204.811L4.43686 202.934C6.05416 203.18 7.60886 203.758 9.01656 204.694L7.98056 206.277Z" fill="#FF6633"/>
<path fill-rule="evenodd" clip-rule="evenodd" d="M486.659 85.122V226.158H516.56C516.607 226.155 516.654 226.154 516.701 226.155C517.143 226.161 517.57 226.324 517.905 226.617C518.276 226.941 518.504 227.398 518.54 227.889V234.027C518.534 236.676 509.308 238.455 495.583 238.455H239.501C228.875 238.455 218.129 237.066 216.706 234.403C216.6 234.206 216.545 234.003 216.545 233.792V227.889C216.581 227.398 216.808 226.941 217.179 226.617C217.457 226.374 217.798 226.22 218.159 226.171C218.277 226.155 218.397 226.151 218.518 226.158C218.52 226.158 218.523 226.158 218.525 226.158H248.132V85.122C248.148 82.076 249.372 79.16 251.534 77.015C253.697 74.87 256.622 73.67 259.668 73.679H475.122C478.169 73.67 481.094 74.87 483.256 77.015C485.419 79.16 486.643 82.076 486.659 85.122ZM517.191 233.984L517.186 227.889L517.185 227.885C517.185 227.883 517.185 227.88 517.185 227.878C517.178 227.702 516.91 227.508 516.56 227.508L218.524 227.512C218.166 227.512 217.899 227.711 217.899 227.889V233.792C217.907 233.833 217.927 233.875 217.959 233.92C218.668 234.928 225.404 237.099 239.499 237.099H495.583C511.183 237.099 516.88 234.818 517.191 233.984ZM517.185 227.878C517.174 227.703 516.91 227.512 516.56 227.512H218.524C218.167 227.512 217.901 227.711 217.901 227.889V233.794C217.909 233.834 217.928 233.876 217.959 233.92" fill="#3E74FF"/>
<mask id="mask4_0_1" style="mask-type:luminance" maskUnits="userSpaceOnUse" x="212" y="69" width="311" height="174">
<path d="M522.545 69.678H212.545V242.678H522.545V69.678Z" fill="white"/>
<path fill-rule="evenodd" clip-rule="evenodd" d="M486.659 85.122V226.158H516.56C516.607 226.155 516.654 226.154 516.701 226.155C517.143 226.161 517.57 226.324 517.905 226.617C518.276 226.941 518.504 227.398 518.54 227.889V234.027C518.534 236.676 509.308 238.455 495.583 238.455H239.501C228.875 238.455 218.129 237.066 216.706 234.403C216.6 234.206 216.545 234.003 216.545 233.792V227.889C216.581 227.398 216.808 226.941 217.179 226.617C217.457 226.374 217.798 226.22 218.159 226.171C218.277 226.155 218.397 226.151 218.518 226.158C218.52 226.158 218.523 226.158 218.525 226.158H248.132V85.122C248.148 82.076 249.372 79.16 251.534 77.015C253.697 74.87 256.622 73.67 259.668 73.679H475.122C478.169 73.67 481.094 74.87 483.256 77.015C485.419 79.16 486.643 82.076 486.659 85.122ZM517.191 233.984L517.186 227.889L517.185 227.885C517.185 227.883 517.185 227.88 517.185 227.878C517.178 227.702 516.91 227.508 516.56 227.508L218.524 227.512C218.166 227.512 217.899 227.711 217.899 227.889V233.792C217.907 233.833 217.927 233.875 217.959 233.92C218.668 234.928 225.404 237.099 239.499 237.099H495.583C511.183 237.099 516.88 234.818 517.191 233.984ZM517.185 227.878C517.174 227.703 516.91 227.512 516.56 227.512H218.524C218.167 227.512 217.901 227.711 217.901 227.889V233.794C217.909 233.834 217.928 233.876 217.959 233.92" fill="black"/>
</mask>
<g mask="url(#mask4_0_1)">
<path d="M217.997 235.812L517.223 229.769L517.147 225.987L217.92 232.029L217.997 235.812ZM486.659 226.158H482.876V229.941H486.659V226.158ZM486.659 85.122H490.442V85.112V85.102L486.659 85.122ZM516.56 226.158V229.941H516.674L516.787 229.934L516.56 226.158ZM516.701 226.155L516.642 229.938H516.648L516.701 226.155ZM518.54 227.889H522.323V227.752L522.313 227.616L518.54 227.889ZM518.54 234.027L522.323 234.035V234.027H518.54ZM216.706 234.403L220.042 232.62L220.039 232.614L216.706 234.403ZM216.545 227.889L212.772 227.618L212.762 227.754V227.889H216.545ZM218.518 226.158L218.741 222.381H218.738L218.518 226.158ZM218.525 226.158L218.302 229.935L218.414 229.941H218.525V226.158ZM248.132 226.158V229.941H251.915V226.158H248.132ZM248.132 85.122L244.348 85.102V85.112V85.122H248.132ZM259.668 73.679L259.658 77.462H259.668V73.679ZM475.122 73.679V77.462H475.133L475.122 73.679ZM517.186 227.889L520.969 227.886V227.79L520.964 227.693L517.186 227.889ZM517.191 233.984L520.736 235.306L520.975 234.665L520.974 233.981L517.191 233.984ZM517.185 227.885H513.402V227.983L513.407 228.081L517.185 227.885ZM517.185 227.878L520.966 227.736L520.965 227.722L517.185 227.878ZM217.899 233.792H214.116V234.155L214.185 234.512L217.899 233.792ZM217.901 233.794H214.118V234.155L214.186 234.509L217.901 233.794ZM490.442 226.158V85.122H482.876V226.158H490.442ZM486.659 229.941H516.56V222.375H486.659V229.941ZM516.759 222.372C516.617 222.37 516.475 222.373 516.333 222.382L516.787 229.934C516.739 229.937 516.691 229.938 516.642 229.938L516.759 222.372ZM516.648 229.938C516.196 229.931 515.759 229.765 515.415 229.465L520.396 223.769C519.382 222.882 518.089 222.391 516.753 222.372L516.648 229.938ZM515.415 229.465C515.036 229.133 514.803 228.665 514.766 228.163L522.313 227.616C522.205 226.131 521.516 224.749 520.396 223.769L515.415 229.465ZM514.756 227.889V234.027H522.323V227.889H514.756ZM514.756 234.018C514.76 232.297 516.158 231.968 515.19 232.452C514.562 232.765 513.37 233.157 511.489 233.52C507.795 234.232 502.322 234.672 495.583 234.672V242.238C502.568 242.238 508.571 241.789 512.922 240.949C515.065 240.536 517.038 239.986 518.57 239.221C519.763 238.626 522.316 237.081 522.323 234.035L514.756 234.018ZM495.583 234.672H239.501V242.238H495.583V234.672ZM239.501 234.672C234.323 234.672 229.193 234.332 225.258 233.693C223.276 233.372 221.732 232.996 220.678 232.609C220.152 232.415 219.854 232.257 219.719 232.169C219.553 232.061 219.804 232.174 220.042 232.62L213.369 236.186C213.963 237.298 214.861 238.037 215.597 238.514C216.363 239.012 217.222 239.4 218.069 239.711C219.762 240.333 221.836 240.804 224.047 241.162C228.497 241.884 234.053 242.238 239.501 242.238V234.672ZM212.762 233.792C212.762 234.687 213.001 235.5 213.372 236.192L220.039 232.614C220.199 232.913 220.329 233.319 220.329 233.792H212.762ZM212.762 227.889V233.792H220.329V227.889H212.762ZM214.687 223.77C213.567 224.75 212.879 226.133 212.772 227.618L220.319 228.161C220.283 228.663 220.05 229.132 219.67 229.464L214.687 223.77ZM217.651 222.422C216.56 222.57 215.528 223.034 214.687 223.77L219.67 229.464C219.385 229.713 219.036 229.87 218.667 229.92L217.651 222.422ZM218.738 222.381C218.373 222.36 218.009 222.374 217.651 222.422L218.666 229.92C218.545 229.937 218.422 229.942 218.298 229.934L218.738 222.381ZM218.295 229.934C218.324 229.936 218.348 229.937 218.362 229.938C218.369 229.938 218.375 229.938 218.379 229.938C218.381 229.938 218.383 229.938 218.384 229.938C218.385 229.938 218.385 229.939 218.385 229.939C218.386 229.939 218.384 229.938 218.381 229.938C218.378 229.938 218.372 229.938 218.366 229.938C218.352 229.937 218.33 229.936 218.302 229.935L218.748 222.381C218.719 222.38 218.696 222.378 218.681 222.378C218.674 222.378 218.668 222.377 218.664 222.377C218.662 222.377 218.661 222.377 218.66 222.377C218.659 222.377 218.658 222.377 218.658 222.377C218.657 222.377 218.659 222.377 218.662 222.377C218.665 222.377 218.671 222.377 218.678 222.378C218.691 222.378 218.713 222.379 218.741 222.381L218.295 229.934ZM218.525 229.941H248.132V222.375H218.525V229.941ZM244.348 85.122V226.158H251.915V85.122H244.348ZM248.87 74.329C245.996 77.18 244.37 81.054 244.348 85.102L251.915 85.142C251.926 83.098 252.747 81.141 254.199 79.701L248.87 74.329ZM259.679 69.895C255.631 69.884 251.744 71.479 248.87 74.329L254.199 79.701C255.65 78.261 257.613 77.456 259.658 77.462L259.679 69.895ZM475.122 69.895H259.668V77.462H475.122V69.895ZM485.921 74.329C483.047 71.479 479.16 69.884 475.112 69.895L475.133 77.462C477.177 77.456 479.141 78.261 480.592 79.701L485.921 74.329ZM490.442 85.102C490.421 81.054 488.795 77.18 485.921 74.329L480.592 79.701C482.044 81.141 482.865 83.098 482.876 85.142L490.442 85.102ZM513.402 227.893L513.408 233.987L520.974 233.981L520.969 227.886L513.402 227.893ZM513.407 228.081L513.408 228.085L520.964 227.693V227.689L513.407 228.081ZM513.405 228.02C513.404 227.993 513.402 227.945 513.402 227.885L520.969 227.886C520.969 227.821 520.967 227.768 520.966 227.736L513.405 228.02ZM516.56 231.291C516.061 231.291 515.509 231.158 514.983 230.827C514.72 230.661 514.388 230.397 514.088 229.99C513.794 229.591 513.442 228.925 513.405 228.034L520.965 227.722C520.887 225.83 519.596 224.79 519.019 224.427C518.27 223.955 517.409 223.725 516.56 223.725V231.291ZM218.524 231.295L516.56 231.291V223.725L218.524 223.729V231.295ZM221.683 227.889C221.683 229.661 220.502 230.572 220.132 230.811C219.59 231.161 219.023 231.295 218.524 231.295V223.729C217.667 223.729 216.788 223.963 216.023 224.457C215.431 224.84 214.116 225.939 214.116 227.889H221.683ZM221.683 233.792V227.889H214.116V233.792H221.683ZM221.052 231.742C221.23 231.995 221.492 232.444 221.614 233.073L214.185 234.512C214.323 235.221 214.624 235.755 214.866 236.099L221.052 231.742ZM239.499 233.316C232.633 233.316 227.667 232.786 224.413 232.17C222.777 231.861 221.637 231.541 220.932 231.286C220.575 231.156 220.398 231.068 220.351 231.041C220.189 230.951 220.631 231.145 221.052 231.742L214.866 236.099C215.463 236.947 216.272 237.43 216.669 237.651C217.181 237.936 217.757 238.183 218.351 238.398C219.549 238.833 221.107 239.245 223.006 239.605C226.82 240.326 232.27 240.882 239.499 240.882V233.316ZM495.583 233.316H239.499V240.882H495.583V233.316ZM513.646 232.662C513.889 232.011 514.253 231.621 514.396 231.479C514.566 231.309 514.7 231.219 514.733 231.197C514.799 231.154 514.737 231.203 514.463 231.313C513.931 231.528 512.949 231.834 511.387 232.143C508.283 232.756 503.217 233.316 495.583 233.316V240.882C503.549 240.882 509.131 240.301 512.854 239.565C514.705 239.2 516.18 238.779 517.291 238.331C517.839 238.111 518.395 237.845 518.893 237.517C519.191 237.321 520.243 236.628 520.736 235.306L513.646 232.662ZM516.56 231.295C516.07 231.295 515.52 231.166 514.993 230.837C514.626 230.607 513.515 229.778 513.41 228.118L520.961 227.638C520.844 225.802 519.596 224.791 519.006 224.422C518.257 223.953 517.4 223.729 516.56 223.729V231.295ZM218.524 231.295H516.56V223.729H218.524V231.295ZM221.684 227.889C221.684 229.661 220.502 230.572 220.132 230.811C219.59 231.161 219.023 231.295 218.524 231.295V223.729C217.667 223.729 216.789 223.963 216.025 224.457C215.432 224.84 214.118 225.939 214.118 227.889H221.684ZM221.684 233.794V227.889H214.118V233.794H221.684ZM221.063 231.757C221.24 232.012 221.497 232.459 221.616 233.08L214.186 234.509C214.321 235.209 214.615 235.74 214.855 236.083L221.063 231.757Z" fill="#1D1F20"/>
</g>
<path d="M130.997 227.293H233.302V212.837H130.997V227.293Z" fill="#FFE9CB" stroke="#FF6633" stroke-width="1.89161"/>
<path d="M140.407 212.837H231.081V207.18H140.407V212.837Z" fill="#FFF7EC" stroke="#FF6633" stroke-width="1.89161"/>
<path d="M134.178 236.093H222.703V227.293H134.178V236.093Z" fill="#FBAD41" stroke="#FF6633" stroke-width="1.89161"/>
<path d="M198.432 216.983H198.46L198.487 216.982C198.921 216.958 199.403 217.17 199.813 217.673C200.223 218.175 200.507 218.914 200.507 219.753C200.507 221.498 199.363 222.522 198.432 222.522H158.45C157.471 222.522 156.374 221.44 156.374 219.753C156.374 218.008 157.519 216.983 158.45 216.983H198.432Z" fill="#FBAD41" stroke="#FF6633" stroke-width="2"/>
<path d="M146.018 212.837H140.407V227.293H146.018V212.837Z" fill="#A8CBFF" stroke="#FF6633" stroke-width="1.89161"/>
<path d="M172.83 207.18H167.219V212.837H172.83V207.18Z" fill="#A8CBFF" stroke="#FF6633" stroke-width="1.89161"/>
<path d="M222.704 207.18H217.093V212.837H222.704V207.18Z" fill="#A8CBFF" stroke="#FF6633" stroke-width="1.89161"/>
<path fill-rule="evenodd" clip-rule="evenodd" d="M474.008 74.353H258.552C255.691 74.362 252.948 75.496 250.916 77.511C248.884 79.525 247.727 82.258 247.693 85.119V226.835H484.866V85.122C484.836 82.26 483.68 79.525 481.647 77.509C479.615 75.494 476.871 74.36 474.008 74.353Z" fill="#A8CBFF"/>
<path d="M474.832 91.294H257.172V218.139H474.832V91.294Z" fill="white"/>
<path fill-rule="evenodd" clip-rule="evenodd" d="M495.125 237.766H239.039C225.727 237.766 216.762 235.725 216.762 233.783V227.877C216.798 227.566 216.954 227.281 217.197 227.084C217.44 226.887 217.751 226.793 218.063 226.823H516.1C516.412 226.793 516.723 226.887 516.967 227.084C517.21 227.281 517.367 227.566 517.402 227.877V234.015C517.402 235.553 510.456 237.766 495.125 237.766Z" fill="#A8CBFF"/>
<path fill-rule="evenodd" clip-rule="evenodd" d="M516.508 234.015C516.508 235.551 509.562 237.766 494.231 237.766H238.145C224.833 237.766 215.868 235.725 215.868 233.783L516.508 234.015Z" fill="#6691FF"/>
<path fill-rule="evenodd" clip-rule="evenodd" d="M398.844 227.257V228.599C398.844 229.555 396.962 229.843 395.537 229.843H337.081C335.583 229.843 333.687 229.555 333.687 228.599V227.257" fill="#3E74FF"/>
<path d="M495.169 238.455H239.087C227.68 238.455 216.133 236.854 216.133 233.795V227.889C216.168 227.398 216.396 226.941 216.766 226.617C217.137 226.293 217.62 226.128 218.112 226.158H516.146C516.638 226.128 517.121 226.293 517.492 226.617C517.863 226.941 518.091 227.398 518.126 227.889V234.027C518.12 236.676 508.894 238.455 495.169 238.455ZM218.11 227.512C217.753 227.512 217.486 227.711 217.486 227.889V233.793C217.667 234.73 224.36 237.099 239.086 237.099H495.169C510.769 237.099 516.467 234.818 516.777 233.984L516.772 227.885C516.772 227.707 516.501 227.508 516.146 227.508L218.11 227.512Z" fill="#3E74FF" stroke="#3E74FF" stroke-width="0.630537"/>
<path d="M516.146 226.158H486.245V85.122C486.229 82.076 485.005 79.16 482.843 77.015C480.68 74.87 477.755 73.67 474.709 73.679H259.255C256.208 73.67 253.283 74.87 251.121 77.015C248.958 79.16 247.734 82.076 247.718 85.122V226.158H218.11C217.619 226.128 217.135 226.293 216.765 226.617C216.395 226.941 216.167 227.398 216.132 227.889V233.793C216.132 236.852 227.68 238.453 239.086 238.453H495.169C508.894 238.453 518.12 236.674 518.123 234.025V227.887C518.087 227.397 517.86 226.941 517.49 226.617C517.12 226.294 516.637 226.129 516.146 226.158ZM249.072 85.122C249.12 82.445 250.211 79.892 252.113 78.008C254.015 76.124 256.577 75.056 259.255 75.033H474.713C477.401 75.024 479.982 76.081 481.89 77.972C483.799 79.864 484.88 82.435 484.896 85.122V226.158H249.072V85.122ZM495.169 237.101H239.087C224.36 237.101 217.667 234.731 217.487 233.795V227.889C217.487 227.711 217.754 227.512 218.112 227.512H516.146C516.504 227.512 516.772 227.711 516.772 227.889L516.777 233.989C516.467 234.82 510.769 237.101 495.169 237.101Z" fill="#3E74FF" stroke="#3E74FF" stroke-width="0.630537"/>
<path d="M555.59 120.847L555.591 120.847C581.061 127.671 596.177 153.657 589.409 178.914C582.649 204.141 556.537 219.081 531.095 212.263L530.966 212.746L531.095 212.263C529.688 211.886 528.278 211.442 526.919 210.944L529.498 207.517C529.672 207.575 529.85 207.634 530.028 207.693C530.201 207.75 530.374 207.808 530.547 207.865L531.051 208.033L531.188 207.52L531.834 205.11L531.838 205.096C532.566 205.302 533.302 205.499 534.036 205.685L534.032 205.7L533.386 208.11L533.252 208.611L533.758 208.727C556.5 213.909 579.427 200.368 585.46 177.855L584.977 177.726L585.46 177.855C591.5 155.315 578.414 132.124 556.12 125.269L555.624 125.117L555.49 125.618L554.845 128.025C554.118 127.815 553.381 127.617 552.647 127.436L553.292 125.028L553.425 124.534L552.927 124.413C551.838 124.15 550.759 123.96 549.681 123.801L549.172 119.593C551.298 119.845 553.449 120.273 555.59 120.847Z" fill="#F6821F" stroke="#FF6633"/>
<path d="M555.941 230.043L556.046 230.144L556.189 230.173C556.716 230.279 557.438 230.383 558.263 230.502C558.727 230.568 559.223 230.64 559.736 230.719C561.181 230.942 562.798 231.232 564.334 231.665C565.874 232.1 567.3 232.671 568.382 233.44C569.275 234.076 569.912 234.83 570.202 235.742H516.933C517.223 234.829 517.86 234.073 518.754 233.436C519.835 232.665 521.262 232.091 522.802 231.655C524.337 231.22 525.954 230.929 527.398 230.707C527.953 230.622 528.489 230.546 528.985 230.476C529.762 230.367 530.441 230.271 530.942 230.174L531.087 230.146L531.193 230.043C536.581 224.863 539.837 219.665 540.884 214.42C541.76 214.467 542.663 214.509 543.568 214.509C544.464 214.509 545.366 214.488 546.252 214.428C547.301 219.671 550.557 224.866 555.941 230.043Z" fill="#FF6633" stroke="#FF6633"/>
<path d="M523.089 160.722L506.459 156.266C508.298 149.722 511.623 144.117 516.189 139.715L530.369 143.514C527.326 148.38 524.835 154.363 523.089 160.722Z" fill="#FFF7EC" stroke="#FF6633"/>
<path d="M523.441 161.334L505.844 156.619C504.034 163.373 504.049 170.426 505.772 176.794L520.881 180.842C520.954 179.147 520.897 177.227 520.97 175.532C521.45 170.897 522.107 166.311 523.441 161.334Z" fill="#FFF7EC"/>
<path d="M517.025 138.903C525.187 131.104 536.4 127.119 547.902 128.448C545.848 128.888 543.788 129.801 541.776 131.109C537.914 133.62 534.19 137.612 530.933 142.63L517.025 138.903Z" fill="#FFF7EC" stroke="#FF6633"/>
<path d="M528.038 201.753C517.476 197.052 509.901 187.967 506.723 177.375L520.621 181.099C520.888 187.248 522.15 192.627 524.292 196.727C525.333 198.719 526.586 200.417 528.038 201.753Z" fill="#FFF7EC" stroke="#FF6633"/>
<path d="M543.35 166.152L524.055 160.981C525.86 154.436 528.492 148.645 531.557 143.833L548.141 148.277L543.35 166.152Z" fill="#FFE9CB" stroke="#FF6633"/>
<path d="M523.796 161.947L542.914 167.069L538.124 184.944L521.386 180.459C521.389 180.074 521.389 179.672 521.389 179.259C521.389 178.09 521.388 176.823 521.469 175.563H521.469L521.469 175.559C521.713 171.25 522.582 166.568 523.796 161.947Z" fill="#FFE9CB" stroke="#FF6633"/>
<path d="M533.304 203.644C529.971 202.583 527.278 199.936 525.323 196.093C523.352 192.219 522.152 187.165 521.819 181.42L538.091 185.781L533.304 203.644Z" fill="#FFE9CB" stroke="#FF6633"/>
<path d="M553.801 129.081C546.335 127.081 537.889 133.009 531.333 143.255L548.752 147.922L553.801 129.081Z" fill="#FFE9CB" stroke="#FF6633" stroke-width="2.00905"/>
<path d="M544.957 201.354C541.343 203.704 537.687 204.651 534.27 203.903L539.057 186.039L555.328 190.399C552.168 195.208 548.601 198.985 544.957 201.354Z" fill="#FFCD89" stroke="#FF6633"/>
<path d="M539.267 185.251L544.058 167.376L563.175 172.499C561.417 178.896 558.904 184.884 555.85 189.694L539.267 185.251Z" fill="#FFCD89" stroke="#FF6633"/>
<path d="M544.316 166.41L549.107 148.534L565.866 153.026C566.106 158.719 565.289 165.161 563.612 171.58L544.316 166.41Z" fill="#FFCD89" stroke="#FF6633"/>
<path d="M553.801 129.081L548.753 147.922L566.172 152.589C565.665 140.261 561.266 131.081 553.801 129.081Z" fill="#FFCD89"/>
<path d="M553.801 129.081C561.266 131.081 565.617 140.439 566.172 152.59L581.28 156.638C577.929 143.548 567.665 132.796 553.801 129.081Z" fill="#FBAD41"/>
<path d="M570.425 194.444C562.282 202.117 551.014 206.204 539.374 204.854C541.429 204.414 543.489 203.501 545.502 202.192C549.364 199.681 553.088 195.689 556.345 190.671L570.425 194.444Z" fill="#FBAD41" stroke="#FF6633"/>
<path d="M556.122 190.094L571.231 194.142C576.084 189.537 579.446 183.389 581.256 176.634L563.659 171.919C561.932 179.077 559.329 185.237 556.122 190.094Z" fill="#FBAD41"/>
<path d="M581.28 156.638L566.172 152.59C566.473 158.576 565.599 165.391 563.789 172.145L581.386 176.86C583.244 169.928 583.181 163.053 581.28 156.638Z" fill="#FBAD41"/>
<path d="M505.844 156.619C504.034 163.373 504.05 170.426 505.773 176.793C509.349 189.754 519.387 200.635 533.429 204.398C547.471 208.16 561.606 203.756 571.183 194.32C576.037 189.715 579.398 183.567 581.208 176.813C583.018 170.058 583.003 163.005 581.28 156.638C577.704 143.678 567.665 132.796 553.623 129.034C539.581 125.271 525.447 129.676 515.87 139.111C511.194 143.764 507.702 149.687 505.844 156.619Z" stroke="#FF6633" stroke-width="2.00905" stroke-miterlimit="10"/>
<path d="M521.148 175.579C521.027 177.451 521.084 179.372 521.059 180.889C521.613 193.039 525.964 202.397 533.429 204.397C540.895 206.398 549.341 200.469 555.897 190.224C559.151 185.19 561.802 178.851 563.611 172.097C565.421 165.343 566.295 158.528 565.994 152.542C565.439 140.391 561.088 131.034 553.623 129.033C546.158 127.033 537.711 132.961 531.156 143.207C527.902 148.241 525.251 154.579 523.441 161.333C522.107 166.31 521.45 170.897 521.148 175.579Z" stroke="#FF6633" stroke-width="2.00905" stroke-miterlimit="10"/>
<path d="M581.386 176.86L563.789 172.145L543.704 166.763L523.441 161.333L505.844 156.618" stroke="#FF6633" stroke-width="2.00905" stroke-miterlimit="10"/>
<path d="M553.801 129.081L548.752 147.922L543.704 166.763L538.703 185.427L533.655 204.268" stroke="#FF6633" stroke-width="2.00905" stroke-miterlimit="10"/>
<path d="M581.281 156.638L566.172 152.59L548.753 147.923L531.156 143.208L516.048 139.159" stroke="#FF6633" stroke-width="2.00905" stroke-miterlimit="10"/>
<path d="M571.231 194.142L556.122 190.094L538.703 185.426L521.107 180.711L505.998 176.663" stroke="#FF6633" stroke-width="2.00905" stroke-miterlimit="10"/>
<path d="M621.896 148.666V235.732H635.426V148.666H621.896Z" fill="#FFE9CB" stroke="#F6821F" stroke-width="1.89161"/>
<path d="M608.365 154.549V235.732H621.896V154.549H608.365Z" fill="#FBAD41" stroke="#FF6633" stroke-width="1.89161"/>
<path d="M591.305 138.077V235.732H608.365V138.077H591.305Z" fill="#FFCD89" stroke="#FF6633" stroke-width="1.89161"/>
<path d="M635.426 176.904V235.732H646.015V176.904H635.426Z" fill="#FBAD41" stroke="#F6821F" stroke-width="1.89161"/>
<path d="M608.365 157.49H591.305V169.674H608.365V157.49Z" fill="#FFE9CB" stroke="#FF6633" stroke-width="1.89161"/>
<path d="M608.365 203.965H591.305V216.319H608.365V203.965Z" fill="#FFE9CB" stroke="#FF6633" stroke-width="1.89161"/>
<path d="M628.953 223.378C626.974 223.378 625.425 221.452 625.425 219.221V165.177C625.425 162.845 627.06 161.02 628.953 161.02C630.933 161.02 632.482 162.947 632.482 165.177V219.221C632.568 221.452 630.933 223.378 628.953 223.378Z" fill="#FBAD41"/>
<path d="M616.155 223.966H613.518C612.327 223.966 611.307 222.755 611.307 221.342V202.471C611.307 201.058 612.327 199.847 613.518 199.847H616.155C617.345 199.847 618.366 201.058 618.366 202.471V221.342C618.366 222.856 617.345 223.966 616.155 223.966Z" fill="#FFE9CB" stroke="#FF6633" stroke-width="1.89161"/>
<path d="M227.854 156.627V156.631C227.916 158.377 227.34 160.462 226.363 162.668C225.394 164.858 224.067 167.086 222.717 169.095C221.369 171.1 220.01 172.867 218.988 174.134C218.477 174.766 218.051 175.273 217.754 175.62C217.685 175.701 217.623 175.773 217.568 175.836H190.293C190.239 175.773 190.177 175.701 190.108 175.62C189.81 175.273 189.385 174.766 188.874 174.134C187.851 172.867 186.493 171.1 185.145 169.095C183.795 167.086 182.468 164.858 181.499 162.668C180.522 160.462 179.946 158.377 180.008 156.631C180.084 154.52 180.998 149.307 182.361 142.565C183.717 135.863 185.496 127.749 187.266 119.906C189.036 112.063 190.796 104.496 192.113 98.889C192.772 96.086 193.32 93.772 193.704 92.16C193.886 91.396 194.03 90.789 194.132 90.363H195.602H212.26H213.73C213.832 90.789 213.977 91.396 214.16 92.161C214.544 93.773 215.094 96.086 215.754 98.889C217.075 104.496 218.839 112.064 220.611 119.906C222.383 127.749 224.163 135.863 225.517 142.565C226.879 149.308 227.788 154.519 227.854 156.627Z" fill="#FFE9CB" stroke="#3E74FF" stroke-width="1.89161"/>
<path d="M204.86 166.307C204.94 169.212 204.465 171.819 203.04 173.383C202.526 173.942 201.893 174.351 201.102 174.649C200.548 174.835 199.954 174.91 199.4 174.91C186.105 174.686 205.137 169.547 191.922 159.344C187.332 155.843 174.829 148.805 188.203 135.845C193.465 130.743 203.871 131.562 205.494 136.069C207.868 142.734 204.821 146.794 203.871 150.667C201.814 159.12 204.86 164.855 204.86 166.307Z" fill="#FBAD41"/>
<path d="M195.443 120.799C195.205 120.576 195.007 120.353 194.81 120.055C189.587 112.011 190.022 100.504 201.219 92.348C202.011 91.678 205.097 91.156 206.719 91.901C206.798 91.938 206.838 91.976 206.917 91.976C221.122 97.189 208.381 110.298 201.734 119.682C200.191 121.879 197.263 122.438 195.443 120.837C195.482 120.837 195.443 120.799 195.443 120.799Z" fill="#FF6633"/>
<path d="M220.846 146.606C221.004 146.792 221.162 146.979 221.321 147.202C225.238 153.607 224.921 162.024 216.533 167.014C215.939 167.423 213.644 167.535 212.418 166.865C212.378 166.828 212.299 166.79 212.26 166.79C201.655 161.651 211.152 153.16 216.098 146.867C217.245 145.415 219.461 145.266 220.767 146.569C220.806 146.569 220.846 146.569 220.846 146.606Z" fill="#FBAD41"/>
<path d="M213.328 114.916C216.849 115.549 218.115 119.757 218.155 119.831C218.867 124.933 217.443 125.864 211.033 132.009C206.641 136.217 205.572 140.909 202.605 142.808C198.767 145.304 192.396 145.117 194.81 139.68C195.72 137.409 205.77 132.381 206.482 130.11C207.274 127.503 201.893 126.535 203.831 119.608C204.346 117.671 207.788 113.91 213.328 114.916Z" fill="#FD8639"/>
<path d="M218.353 144.336C217.007 144.448 214.633 142.735 214.554 142.66C212.615 141.022 213.209 138.526 215.86 137.26C216.651 136.925 218.234 136.515 218.788 136.851C220.727 137.893 219.777 139.718 220.608 141.17C220.766 141.431 221.36 144.112 218.353 144.336Z" fill="#FD8639"/>
<path d="M211.971 88.9H213.365L215.171 96.518H192.69L194.496 88.9H195.89H211.971Z" fill="#A8CBFF" stroke="#3E74FF" stroke-width="1.89161"/>
<path d="M225.933 206.586H182.116L184.957 199.039L184.96 199.032L184.962 199.024L192.485 177.946L192.634 177.528L192.408 177.145L187.795 169.376H220.253L215.641 177.145L215.414 177.528L215.563 177.946L223.086 199.024L223.089 199.032L223.092 199.039L225.933 206.586Z" fill="#A8CBFF" stroke="#3E74FF" stroke-width="1.89161"/>
<path d="M222.578 169.152L216.332 177.911H191.742L185.164 169.152H222.578Z" fill="#A8CBFF" stroke="#3E74FF" stroke-width="1.89161"/>
<path fill-rule="evenodd" clip-rule="evenodd" d="M673.756 235.673H687.75L686.96 232.131C694.942 227.53 700.315 218.911 700.315 209.036C700.315 197.638 693.157 187.913 683.09 184.11L683.781 176.368H663.154L663.967 184.225C654.059 188.107 647.042 197.752 647.042 209.036C647.042 218.91 652.415 227.53 660.396 232.13L659.606 235.673H673.601C673.627 235.673 673.653 235.673 673.679 235.673C673.705 235.673 673.73 235.673 673.756 235.673Z" fill="#FFE9CB"/>
<path d="M687.75 235.673V236.618H688.93L688.673 235.467L687.75 235.673ZM673.756 235.673V234.727H673.754L673.756 235.673ZM686.96 232.131L686.488 231.311L685.886 231.658L686.037 232.337L686.96 232.131ZM683.09 184.11L682.148 184.026L682.085 184.741L682.756 184.995L683.09 184.11ZM683.781 176.368L684.723 176.452L684.815 175.423H683.781V176.368ZM663.154 176.368V175.423H662.105L662.213 176.466L663.154 176.368ZM663.967 184.225L664.312 185.106L664.982 184.844L664.908 184.128L663.967 184.225ZM660.396 232.13L661.319 232.336L661.471 231.658L660.869 231.311L660.396 232.13ZM659.606 235.673L658.683 235.467L658.426 236.618H659.606V235.673ZM673.601 235.673L673.604 234.727H673.601V235.673ZM687.75 234.727H673.756V236.618H687.75V234.727ZM686.037 232.337L686.827 235.879L688.673 235.467L687.883 231.925L686.037 232.337ZM699.37 209.036C699.37 218.559 694.189 226.873 686.488 231.311L687.432 232.95C695.695 228.188 701.261 219.262 701.261 209.036H699.37ZM682.756 184.995C692.467 188.663 699.37 198.045 699.37 209.036H701.261C701.261 197.232 693.847 187.162 683.425 183.225L682.756 184.995ZM682.839 176.284L682.148 184.026L684.032 184.194L684.723 176.452L682.839 176.284ZM663.154 177.314H683.781V175.423H663.154V177.314ZM664.908 184.128L664.095 176.271L662.213 176.466L663.026 184.323L664.908 184.128ZM647.988 209.036C647.988 198.154 654.754 188.85 664.312 185.106L663.622 183.345C653.363 187.363 646.096 197.35 646.096 209.036H647.988ZM660.869 231.311C653.168 226.872 647.988 218.558 647.988 209.036H646.096C646.096 219.262 651.661 228.187 659.924 232.949L660.869 231.311ZM660.529 235.879L661.319 232.336L659.473 231.924L658.683 235.467L660.529 235.879ZM673.601 234.727H659.606V236.618H673.601V234.727ZM673.679 234.727C673.654 234.727 673.629 234.727 673.604 234.727L673.598 236.618C673.625 236.619 673.652 236.619 673.679 236.619V234.727ZM673.754 234.727C673.729 234.727 673.704 234.727 673.679 234.727V236.619C673.705 236.619 673.732 236.619 673.759 236.618L673.754 234.727Z" fill="#3E74FF"/>
<path d="M680.213 235.421V153.178C680.213 148.816 682.035 144.651 685.239 141.69" stroke="#3E74FF" stroke-width="1.89161"/>
<path d="M666.643 235.673V161.771C666.643 153.459 664.385 145.302 660.109 138.173" stroke="#3E74FF" stroke-width="1.89161"/>
<path d="M675.689 235.17V142.725C675.689 124.055 668.278 106.149 655.084 92.94" stroke="#3E74FF" stroke-width="1.89161"/>
<path d="M671.166 235.422V147.245C671.166 128.576 678.578 110.671 691.772 97.464" stroke="#3E74FF" stroke-width="1.89161"/>
<path fill-rule="evenodd" clip-rule="evenodd" d="M684.126 104.586C682.758 100.362 683.893 95.54 687.408 92.38C688.465 91.43 689.648 90.71 690.896 90.217C692.263 94.442 691.129 99.263 687.613 102.423C686.556 103.373 685.374 104.093 684.126 104.586Z" fill="#FBAD41"/>
<mask id="mask5_0_1" style="mask-type:luminance" maskUnits="userSpaceOnUse" x="683" y="90" width="9" height="15">
<path fill-rule="evenodd" clip-rule="evenodd" d="M684.126 104.586C682.758 100.362 683.893 95.54 687.408 92.38C688.465 91.43 689.648 90.71 690.896 90.217C692.263 94.442 691.129 99.263 687.613 102.423C686.556 103.373 685.374 104.093 684.126 104.586Z" fill="white"/>
</mask>
<g mask="url(#mask5_0_1)">
<path d="M684.126 104.586L682.326 105.169L682.946 107.086L684.821 106.345L684.126 104.586ZM690.896 90.217L692.695 89.635L692.075 87.717L690.2 88.458L690.896 90.217ZM685.925 104.004C684.78 100.464 685.733 96.43 688.673 93.787L686.143 90.973C682.053 94.651 680.737 100.259 682.326 105.169L685.925 104.004ZM688.673 93.787C689.559 92.99 690.549 92.388 691.591 91.976L690.2 88.458C688.746 89.033 687.37 89.871 686.143 90.973L688.673 93.787ZM689.096 90.8C690.241 94.34 689.289 98.374 686.348 101.016L688.878 103.83C692.969 100.153 694.284 94.544 692.695 89.635L689.096 90.8ZM686.348 101.016C685.462 101.814 684.472 102.415 683.43 102.827L684.821 106.345C686.275 105.771 687.651 104.932 688.878 103.83L686.348 101.016Z" fill="#FF6633"/>
</g>
<path fill-rule="evenodd" clip-rule="evenodd" d="M684.276 104.658C686.127 100.622 690.223 97.837 694.95 97.887C696.37 97.902 697.729 98.172 698.982 98.653C697.132 102.689 693.035 105.474 688.308 105.424C686.888 105.409 685.529 105.139 684.276 104.658Z" fill="#FBAD41"/>
<mask id="mask6_0_1" style="mask-type:luminance" maskUnits="userSpaceOnUse" x="684" y="97" width="15" height="9">
<path fill-rule="evenodd" clip-rule="evenodd" d="M684.276 104.658C686.127 100.622 690.223 97.837 694.95 97.887C696.37 97.902 697.729 98.172 698.982 98.653C697.132 102.689 693.035 105.474 688.308 105.424C686.888 105.409 685.529 105.139 684.276 104.658Z" fill="white"/>
</mask>
<g mask="url(#mask6_0_1)">
<path d="M684.276 104.658L682.557 103.87L681.717 105.702L683.599 106.424L684.276 104.658ZM698.982 98.653L700.701 99.441L701.541 97.609L699.659 96.887L698.982 98.653ZM685.996 105.446C687.546 102.064 690.977 99.737 694.93 99.779L694.97 95.996C689.469 95.938 684.707 99.179 682.557 103.87L685.996 105.446ZM694.93 99.779C696.122 99.791 697.258 100.018 698.304 100.419L699.659 96.887C698.199 96.327 696.619 96.013 694.97 95.996L694.93 99.779ZM697.262 97.865C695.712 101.247 692.282 103.574 688.328 103.532L688.288 107.315C693.789 107.373 698.551 104.132 700.701 99.441L697.262 97.865ZM688.328 103.532C687.136 103.52 686 103.293 684.954 102.892L683.599 106.424C685.059 106.984 686.64 107.298 688.288 107.315L688.328 103.532Z" fill="#FF6633"/>
</g>
<path fill-rule="evenodd" clip-rule="evenodd" d="M695.697 93.352C695.469 97.786 692.691 101.887 688.28 103.587C686.955 104.098 685.592 104.349 684.25 104.366C684.478 99.931 687.256 95.83 691.667 94.13C692.993 93.619 694.355 93.368 695.697 93.352Z" fill="#FBAD41"/>
<mask id="mask7_0_1" style="mask-type:luminance" maskUnits="userSpaceOnUse" x="684" y="93" width="12" height="12">
<path fill-rule="evenodd" clip-rule="evenodd" d="M695.697 93.352C695.469 97.786 692.691 101.887 688.28 103.587C686.955 104.098 685.592 104.349 684.25 104.366C684.478 99.931 687.256 95.83 691.667 94.13C692.993 93.619 694.355 93.368 695.697 93.352Z" fill="white"/>
</mask>
<g mask="url(#mask7_0_1)">
<path d="M695.697 93.352L697.586 93.449L697.69 91.436L695.674 91.46L695.697 93.352ZM684.25 104.366L682.361 104.269L682.258 106.281L684.273 106.257L684.25 104.366ZM693.808 93.255C693.617 96.971 691.289 100.4 687.6 101.822L688.961 105.352C694.094 103.374 697.322 98.602 697.586 93.449L693.808 93.255ZM687.6 101.822C686.487 102.251 685.348 102.461 684.227 102.474L684.273 106.257C685.837 106.238 687.422 105.945 688.961 105.352L687.6 101.822ZM686.139 104.463C686.33 100.747 688.658 97.317 692.347 95.895L690.987 92.365C685.854 94.343 682.626 99.115 682.361 104.269L686.139 104.463ZM692.347 95.895C693.46 95.466 694.599 95.257 695.72 95.243L695.674 91.46C694.111 91.479 692.526 91.772 690.987 92.365L692.347 95.895Z" fill="#FF6633"/>
</g>
<path fill-rule="evenodd" clip-rule="evenodd" d="M680.069 148.549C677.872 144.69 678.002 139.739 680.802 135.93C681.644 134.785 682.656 133.84 683.778 133.103C685.975 136.962 685.844 141.913 683.045 145.722C682.203 146.866 681.191 147.812 680.069 148.549Z" fill="#FBAD41"/>
<mask id="mask8_0_1" style="mask-type:luminance" maskUnits="userSpaceOnUse" x="678" y="133" width="8" height="16">
<path fill-rule="evenodd" clip-rule="evenodd" d="M680.069 148.549C677.872 144.69 678.002 139.739 680.802 135.93C681.644 134.785 682.656 133.84 683.778 133.103C685.975 136.962 685.844 141.913 683.045 145.722C682.203 146.866 681.191 147.812 680.069 148.549Z" fill="white"/>
</mask>
<g mask="url(#mask8_0_1)">
<path d="M680.069 148.549L678.425 149.485L679.423 151.236L681.107 150.13L680.069 148.549ZM683.778 133.103L685.422 132.167L684.424 130.416L682.74 131.522L683.778 133.103ZM681.713 147.613C679.872 144.379 679.985 140.236 682.326 137.051L679.278 134.81C676.02 139.242 675.872 145.001 678.425 149.485L681.713 147.613ZM682.326 137.051C683.033 136.09 683.88 135.3 684.816 134.684L682.74 131.522C681.432 132.381 680.255 133.481 679.278 134.81L682.326 137.051ZM682.134 134.039C683.975 137.273 683.862 141.416 681.52 144.601L684.569 146.842C687.827 142.41 687.975 136.651 685.422 132.167L682.134 134.039ZM681.52 144.601C680.814 145.562 679.967 146.352 679.031 146.967L681.107 150.13C682.414 149.271 683.592 148.171 684.569 146.842L681.52 144.601Z" fill="#FF6633"/>
</g>
<path fill-rule="evenodd" clip-rule="evenodd" d="M680.232 148.589C681.223 144.26 684.668 140.702 689.306 139.79C690.7 139.516 692.085 139.504 693.409 139.72C692.418 144.048 688.973 147.607 684.335 148.519C682.941 148.793 681.556 148.805 680.232 148.589Z" fill="#FBAD41"/>
<mask id="mask9_0_1" style="mask-type:luminance" maskUnits="userSpaceOnUse" x="680" y="139" width="14" height="10">
<path fill-rule="evenodd" clip-rule="evenodd" d="M680.232 148.589C681.223 144.26 684.668 140.702 689.306 139.79C690.7 139.516 692.085 139.504 693.409 139.72C692.418 144.048 688.973 147.607 684.335 148.519C682.941 148.793 681.556 148.805 680.232 148.589Z" fill="white"/>
</mask>
<g mask="url(#mask9_0_1)">
<path d="M680.232 148.589L678.388 148.167L677.938 150.132L679.927 150.456L680.232 148.589ZM693.409 139.72L695.253 140.142L695.703 138.177L693.714 137.853L693.409 139.72ZM682.076 149.011C682.906 145.384 685.792 142.408 689.671 141.646L688.941 137.934C683.544 138.995 679.539 143.137 678.388 148.167L682.076 149.011ZM689.671 141.646C690.841 141.416 691.999 141.407 693.105 141.587L693.714 137.853C692.171 137.601 690.559 137.616 688.941 137.934L689.671 141.646ZM691.565 139.298C690.735 142.925 687.849 145.9 683.97 146.663L684.699 150.375C690.097 149.314 694.101 145.172 695.253 140.142L691.565 139.298ZM683.97 146.663C682.8 146.893 681.642 146.902 680.536 146.722L679.927 150.456C681.47 150.708 683.082 150.693 684.699 150.375L683.97 146.663Z" fill="#FF6633"/>
</g>
<path fill-rule="evenodd" clip-rule="evenodd" d="M680.148 148.307C679.469 143.918 681.356 139.339 685.329 136.778C686.523 136.008 687.806 135.485 689.116 135.197C689.794 139.585 687.908 144.165 683.935 146.726C682.74 147.495 681.458 148.018 680.148 148.307Z" fill="#FBAD41"/>
<mask id="mask10_0_1" style="mask-type:luminance" maskUnits="userSpaceOnUse" x="680" y="135" width="10" height="14">
<path fill-rule="evenodd" clip-rule="evenodd" d="M680.148 148.307C679.469 143.918 681.356 139.339 685.329 136.778C686.523 136.008 687.806 135.485 689.116 135.197C689.794 139.585 687.908 144.165 683.935 146.726C682.74 147.495 681.458 148.018 680.148 148.307Z" fill="white"/>
</mask>
<g mask="url(#mask10_0_1)">
<path d="M680.148 148.307L678.278 148.596L678.586 150.588L680.554 150.154L680.148 148.307ZM689.116 135.197L690.986 134.908L690.678 132.916L688.709 133.349L689.116 135.197ZM682.017 148.018C681.449 144.341 683.031 140.509 686.354 138.368L684.305 135.188C679.681 138.168 677.49 143.496 678.278 148.596L682.017 148.018ZM686.354 138.368C687.356 137.722 688.429 137.285 689.523 137.044L688.709 133.349C687.183 133.686 685.69 134.294 684.305 135.188L686.354 138.368ZM687.247 135.486C687.815 139.163 686.233 142.994 682.91 145.136L684.959 148.316C689.583 145.336 691.774 140.007 690.986 134.908L687.247 135.486ZM682.91 145.136C681.908 145.782 680.835 146.218 679.741 146.459L680.554 150.154C682.081 149.818 683.573 149.209 684.959 148.316L682.91 145.136Z" fill="#FF6633"/>
</g>
<path d="M648.048 148.786C649.191 148.786 650.118 147.859 650.118 146.716C650.118 145.573 649.191 144.646 648.048 144.646C646.905 144.646 645.978 145.573 645.978 146.716C645.978 147.859 646.905 148.786 648.048 148.786Z" fill="#FBAD41" stroke="#FF6633" stroke-width="1.89161"/>
<path fill-rule="evenodd" clip-rule="evenodd" d="M676.135 167.87C679.069 161.484 678.198 153.696 673.278 148.057C671.801 146.363 670.082 145.004 668.217 143.988C665.282 150.374 666.154 158.161 671.073 163.801C672.551 165.495 674.27 166.854 676.135 167.87Z" fill="#6691FF"/>
<mask id="mask11_0_1" style="mask-type:luminance" maskUnits="userSpaceOnUse" x="666" y="143" width="12" height="25">
<path fill-rule="evenodd" clip-rule="evenodd" d="M676.135 167.87C679.069 161.484 678.198 153.696 673.278 148.057C671.801 146.363 670.082 145.004 668.217 143.988C665.282 150.374 666.154 158.161 671.073 163.801C672.551 165.495 674.27 166.854 676.135 167.87Z" fill="white"/>
</mask>
<g mask="url(#mask11_0_1)">
<path d="M676.135 167.87L677.853 168.66L677.008 170.501L675.229 169.531L676.135 167.87ZM668.217 143.988L666.498 143.198L667.344 141.357L669.122 142.327L668.217 143.988ZM674.416 167.08C677.051 161.346 676.265 154.359 671.853 149.3L674.704 146.813C680.13 153.034 681.087 161.622 677.853 168.66L674.416 167.08ZM671.853 149.3C670.525 147.777 668.982 146.559 667.312 145.648L669.122 142.327C671.181 143.449 673.077 144.948 674.704 146.813L671.853 149.3ZM669.936 144.777C667.301 150.512 668.086 157.499 672.499 162.558L669.648 165.045C664.221 158.823 663.264 150.235 666.498 143.198L669.936 144.777ZM672.499 162.558C673.827 164.08 675.369 165.299 677.04 166.209L675.229 169.531C673.171 168.409 671.275 166.91 669.648 165.045L672.499 162.558Z" fill="#3E74FF"/>
</g>
<path fill-rule="evenodd" clip-rule="evenodd" d="M675.088 137.915C673.266 133.951 673.807 129.117 676.861 125.616C677.778 124.564 678.845 123.721 680.003 123.09C681.824 127.054 681.284 131.888 678.23 135.389C677.313 136.441 676.245 137.284 675.088 137.915Z" fill="#6691FF"/>
<mask id="mask12_0_1" style="mask-type:luminance" maskUnits="userSpaceOnUse" x="674" y="123" width="8" height="15">
<path fill-rule="evenodd" clip-rule="evenodd" d="M675.088 137.915C673.266 133.951 673.807 129.117 676.861 125.616C677.778 124.564 678.845 123.721 680.003 123.09C681.824 127.054 681.284 131.888 678.23 135.389C677.313 136.441 676.245 137.284 675.088 137.915Z" fill="white"/>
</mask>
<g mask="url(#mask12_0_1)">
<path d="M675.088 137.915L673.369 138.705L674.215 140.546L675.993 139.576L675.088 137.915ZM680.003 123.09L681.722 122.3L680.876 120.459L679.097 121.429L680.003 123.09ZM676.807 137.126C675.284 133.813 675.74 129.779 678.286 126.859L675.435 124.372C671.875 128.455 671.248 134.089 673.369 138.705L676.807 137.126ZM678.286 126.859C679.054 125.979 679.944 125.276 680.908 124.751L679.097 121.429C677.746 122.166 676.502 123.149 675.435 124.372L678.286 126.859ZM678.284 123.88C679.806 127.192 679.351 131.226 676.804 134.146L679.655 136.633C683.216 132.551 683.843 126.916 681.722 122.3L678.284 123.88ZM676.804 134.146C676.036 135.026 675.146 135.729 674.182 136.254L675.993 139.576C677.345 138.84 678.589 137.856 679.655 136.633L676.804 134.146Z" fill="#3E74FF"/>
</g>
<path fill-rule="evenodd" clip-rule="evenodd" d="M663.921 144.206C657.495 144.92 650.951 141.891 647.472 135.953C646.427 134.168 645.746 132.27 645.407 130.345C651.833 129.631 658.377 132.659 661.856 138.598C662.901 140.383 663.582 142.281 663.921 144.206Z" fill="#FBAD41"/>
<mask id="mask13_0_1" style="mask-type:luminance" maskUnits="userSpaceOnUse" x="645" y="130" width="19" height="15">
<path fill-rule="evenodd" clip-rule="evenodd" d="M663.921 144.206C657.495 144.92 650.951 141.891 647.472 135.953C646.427 134.168 645.746 132.27 645.407 130.345C651.833 129.631 658.377 132.659 661.856 138.598C662.901 140.383 663.582 142.281 663.921 144.206Z" fill="white"/>
</mask>
<g mask="url(#mask13_0_1)">
<path d="M663.921 144.206L664.129 146.086L666.133 145.863L665.784 143.878L663.921 144.206ZM645.407 130.345L645.198 128.465L643.195 128.688L643.544 130.673L645.407 130.345ZM663.712 142.326C658.002 142.96 652.192 140.268 649.104 134.997L645.84 136.909C649.71 143.515 656.989 146.879 664.129 146.086L663.712 142.326ZM649.104 134.997C648.174 133.409 647.571 131.724 647.27 130.018L643.544 130.673C643.921 132.816 644.679 134.927 645.84 136.909L649.104 134.997ZM645.616 132.225C651.326 131.591 657.136 134.283 660.223 139.554L663.488 137.642C659.618 131.036 652.339 127.672 645.198 128.465L645.616 132.225ZM660.223 139.554C661.154 141.142 661.757 142.827 662.057 144.533L665.784 143.878C665.407 141.735 664.649 139.624 663.488 137.642L660.223 139.554Z" fill="#FF6633"/>
</g>
<path fill-rule="evenodd" clip-rule="evenodd" d="M664.067 144.011C658.851 140.192 656.078 133.534 657.532 126.807C657.969 124.785 658.752 122.927 659.804 121.28C665.02 125.1 667.793 131.757 666.339 138.484C665.902 140.506 665.119 142.365 664.067 144.011Z" fill="#FBAD41"/>
<mask id="mask14_0_1" style="mask-type:luminance" maskUnits="userSpaceOnUse" x="657" y="121" width="10" height="24">
<path fill-rule="evenodd" clip-rule="evenodd" d="M664.067 144.011C658.851 140.192 656.078 133.534 657.532 126.807C657.969 124.785 658.752 122.927 659.804 121.28C665.02 125.1 667.793 131.757 666.339 138.484C665.902 140.506 665.119 142.365 664.067 144.011Z" fill="white"/>
</mask>
<g mask="url(#mask14_0_1)">
<path d="M664.067 144.011L662.95 145.537L664.576 146.728L665.661 145.03L664.067 144.011ZM659.804 121.28L660.921 119.754L659.295 118.563L658.21 120.262L659.804 121.28ZM665.185 142.485C660.549 139.091 658.09 133.178 659.381 127.207L655.683 126.407C654.066 133.891 657.153 141.293 662.95 145.537L665.185 142.485ZM659.381 127.207C659.77 125.408 660.465 123.759 661.398 122.299L658.21 120.262C657.038 122.095 656.169 124.162 655.683 126.407L659.381 127.207ZM658.686 122.807C663.322 126.201 665.781 132.114 664.49 138.085L668.188 138.884C669.805 131.401 666.718 123.999 660.921 119.754L658.686 122.807ZM664.49 138.085C664.101 139.884 663.406 141.533 662.473 142.993L665.661 145.03C666.833 143.197 667.702 141.129 668.188 138.884L664.49 138.085Z" fill="#FF6633"/>
</g>
<path fill-rule="evenodd" clip-rule="evenodd" d="M651.282 124.414C657.541 126.036 662.577 131.198 663.711 137.987C664.052 140.027 664.011 142.043 663.642 143.962C657.384 142.339 652.347 137.178 651.213 130.389C650.872 128.349 650.913 126.333 651.282 124.414Z" fill="#FBAD41"/>
<mask id="mask15_0_1" style="mask-type:luminance" maskUnits="userSpaceOnUse" x="650" y="124" width="14" height="20">
<path fill-rule="evenodd" clip-rule="evenodd" d="M651.282 124.414C657.541 126.036 662.577 131.198 663.711 137.987C664.052 140.027 664.011 142.043 663.642 143.962C657.384 142.339 652.347 137.178 651.213 130.389C650.872 128.349 650.913 126.333 651.282 124.414Z" fill="white"/>
</mask>
<g mask="url(#mask15_0_1)">
<path d="M651.282 124.414L651.757 122.583L649.806 122.077L649.425 124.056L651.282 124.414ZM663.642 143.962L663.167 145.793L665.118 146.298L665.499 144.319L663.642 143.962ZM650.808 126.245C656.369 127.687 660.839 132.273 661.845 138.298L665.577 137.675C664.315 130.123 658.712 124.386 651.757 122.583L650.808 126.245ZM661.845 138.298C662.148 140.114 662.112 141.903 661.784 143.604L665.499 144.319C665.911 142.183 665.955 139.94 665.577 137.675L661.845 138.298ZM664.117 142.131C658.555 140.689 654.086 136.103 653.079 130.077L649.348 130.701C650.609 138.252 656.212 143.99 663.167 145.793L664.117 142.131ZM653.079 130.077C652.776 128.262 652.812 126.473 653.14 124.772L649.425 124.056C649.013 126.193 648.969 128.435 649.348 130.701L653.079 130.077Z" fill="#FF6633"/>
</g>
<path fill-rule="evenodd" clip-rule="evenodd" d="M660.721 86.347C664.872 88.895 667.362 93.724 666.683 98.865C666.479 100.41 666.005 101.854 665.316 103.155C661.165 100.607 658.674 95.778 659.354 90.637C659.558 89.092 660.031 87.648 660.721 86.347Z" fill="#FBAD41"/>
<mask id="mask16_0_1" style="mask-type:luminance" maskUnits="userSpaceOnUse" x="659" y="86" width="8" height="18">
<path fill-rule="evenodd" clip-rule="evenodd" d="M660.721 86.347C664.872 88.895 667.362 93.724 666.683 98.865C666.479 100.41 666.005 101.854 665.316 103.155C661.165 100.607 658.674 95.778 659.354 90.637C659.558 89.092 660.031 87.648 660.721 86.347Z" fill="white"/>
</mask>
<g mask="url(#mask16_0_1)">
<path d="M660.721 86.347L661.71 84.735L659.992 83.68L659.049 85.461L660.721 86.347ZM665.316 103.155L664.327 104.767L666.044 105.822L666.988 104.041L665.316 103.155ZM659.731 87.959C663.269 90.131 665.386 94.244 664.808 98.617L668.558 99.113C669.339 93.205 666.475 87.66 661.71 84.735L659.731 87.959ZM664.808 98.617C664.633 99.936 664.23 101.164 663.645 102.27L666.988 104.041C667.781 102.544 668.324 100.885 668.558 99.113L664.808 98.617ZM666.306 101.543C662.768 99.371 660.651 95.258 661.229 90.885L657.478 90.389C656.698 96.297 659.562 101.842 664.327 104.767L666.306 101.543ZM661.229 90.885C661.403 89.566 661.807 88.338 662.392 87.232L659.049 85.461C658.256 86.958 657.712 88.617 657.478 90.389L661.229 90.885Z" fill="#FF6633"/>
</g>
<path fill-rule="evenodd" clip-rule="evenodd" d="M669.414 84.139C673.463 89.556 674.199 97.064 670.686 103.348C669.63 105.236 668.278 106.856 666.722 108.181C662.674 102.764 661.937 95.256 665.451 88.973C666.507 87.084 667.858 85.464 669.414 84.139Z" fill="#F6821F"/>
<mask id="mask17_0_1" style="mask-type:luminance" maskUnits="userSpaceOnUse" x="663" y="84" width="10" height="25">
<path fill-rule="evenodd" clip-rule="evenodd" d="M669.414 84.139C673.463 89.556 674.199 97.064 670.686 103.348C669.63 105.236 668.278 106.856 666.722 108.181C662.674 102.764 661.937 95.256 665.451 88.973C666.507 87.084 667.858 85.464 669.414 84.139Z" fill="white"/>
</mask>
<g mask="url(#mask17_0_1)">
<path d="M669.414 84.139L670.93 83.007L669.723 81.392L668.188 82.699L669.414 84.139ZM666.722 108.181L665.207 109.313L666.413 110.928L667.948 109.621L666.722 108.181ZM667.899 85.272C671.517 90.112 672.17 96.816 669.035 102.424L672.337 104.271C676.228 97.311 675.409 89 670.93 83.007L667.899 85.272ZM669.035 102.424C668.09 104.114 666.884 105.559 665.496 106.74L667.948 109.621C669.673 108.153 671.169 106.359 672.337 104.271L669.035 102.424ZM668.237 107.048C664.62 102.208 663.966 95.504 667.102 89.896L663.8 88.049C659.909 95.009 660.728 103.32 665.207 109.313L668.237 107.048ZM667.102 89.896C668.046 88.206 669.253 86.761 670.64 85.58L668.188 82.699C666.463 84.167 664.967 85.961 663.8 88.049L667.102 89.896Z" fill="#FF6633"/>
</g>
<path fill-rule="evenodd" clip-rule="evenodd" d="M661.665 105.705C660.7 100.93 657.023 96.93 651.962 95.8C650.441 95.46 648.922 95.408 647.464 95.607C648.428 100.382 652.106 104.382 657.167 105.512C658.688 105.852 660.206 105.904 661.665 105.705Z" fill="#FBAD41"/>
<mask id="mask18_0_1" style="mask-type:luminance" maskUnits="userSpaceOnUse" x="647" y="95" width="15" height="11">
<path fill-rule="evenodd" clip-rule="evenodd" d="M661.665 105.705C660.7 100.93 657.023 96.93 651.962 95.8C650.441 95.46 648.922 95.408 647.464 95.607C648.428 100.382 652.106 104.382 657.167 105.512C658.688 105.852 660.206 105.904 661.665 105.705Z" fill="white"/>
</mask>
<g mask="url(#mask18_0_1)">
<path d="M661.665 105.705L663.519 105.33L663.919 107.305L661.922 107.579L661.665 105.705ZM647.464 95.607L645.609 95.982L645.21 94.007L647.207 93.733L647.464 95.607ZM659.811 106.079C658.989 102.01 655.855 98.608 651.55 97.646L652.375 93.954C658.191 95.253 662.412 99.85 663.519 105.33L659.811 106.079ZM651.55 97.646C650.251 97.356 648.959 97.312 647.72 97.482L647.207 93.733C648.885 93.504 650.631 93.564 652.375 93.954L651.55 97.646ZM649.318 95.233C650.14 99.302 653.273 102.704 657.579 103.666L656.754 107.358C650.938 106.059 646.717 101.462 645.609 95.982L649.318 95.233ZM657.579 103.666C658.878 103.956 660.169 104 661.409 103.83L661.922 107.579C660.243 107.808 658.498 107.748 656.754 107.358L657.579 103.666Z" fill="#FF6633"/>
</g>
<path fill-rule="evenodd" clip-rule="evenodd" d="M665.905 108.752C662.212 103.087 655.416 99.813 648.307 100.951C646.17 101.292 644.185 102.004 642.406 103.009C646.1 108.674 652.896 111.948 660.004 110.811C662.141 110.469 664.126 109.758 665.905 108.752Z" fill="#F6821F"/>
<mask id="mask19_0_1" style="mask-type:luminance" maskUnits="userSpaceOnUse" x="642" y="100" width="24" height="12">
<path fill-rule="evenodd" clip-rule="evenodd" d="M665.905 108.752C662.212 103.087 655.416 99.813 648.307 100.951C646.17 101.292 644.185 102.004 642.406 103.009C646.1 108.674 652.896 111.948 660.004 110.811C662.141 110.469 664.126 109.758 665.905 108.752Z" fill="white"/>
</mask>
<g mask="url(#mask19_0_1)">
<path d="M665.905 108.752L667.49 107.719L668.591 109.407L666.836 110.399L665.905 108.752ZM642.406 103.009L640.821 104.042L639.72 102.354L641.475 101.362L642.406 103.009ZM664.321 109.785C661.02 104.723 654.95 101.803 648.606 102.818L648.008 99.083C655.881 97.823 663.403 101.451 667.49 107.719L664.321 109.785ZM648.606 102.818C646.695 103.124 644.923 103.76 643.336 104.656L641.475 101.362C643.447 100.248 645.646 99.461 648.008 99.083L648.606 102.818ZM643.99 101.976C647.291 107.038 653.361 109.958 659.706 108.943L660.303 112.679C652.43 113.938 644.908 110.31 640.821 104.042L643.99 101.976ZM659.706 108.943C661.617 108.637 663.388 108.002 664.975 107.105L666.836 110.399C664.864 111.513 662.665 112.301 660.303 112.679L659.706 108.943Z" fill="#FF6633"/>
</g>
<path fill-rule="evenodd" clip-rule="evenodd" d="M652.238 88.801C658.884 90.053 664.504 95.085 666.166 102.09C666.666 104.195 666.766 106.302 666.516 108.33C659.87 107.078 654.25 102.046 652.588 95.041C652.088 92.936 651.988 90.829 652.238 88.801Z" fill="#F6821F"/>
<mask id="mask20_0_1" style="mask-type:luminance" maskUnits="userSpaceOnUse" x="652" y="88" width="15" height="21">
<path fill-rule="evenodd" clip-rule="evenodd" d="M652.238 88.801C658.884 90.053 664.504 95.085 666.166 102.09C666.666 104.195 666.766 106.302 666.516 108.33C659.87 107.078 654.25 102.046 652.588 95.041C652.088 92.936 651.988 90.829 652.238 88.801Z" fill="white"/>
</mask>
<g mask="url(#mask20_0_1)">
<path d="M652.238 88.801L652.588 86.942L650.608 86.569L650.361 88.569L652.238 88.801ZM666.516 108.33L666.165 110.189L668.146 110.562L668.393 108.562L666.516 108.33ZM651.888 90.66C657.827 91.779 662.842 96.275 664.326 102.527L668.007 101.653C666.166 93.895 659.942 88.327 652.588 86.942L651.888 90.66ZM664.326 102.527C664.773 104.41 664.861 106.29 664.638 108.099L668.393 108.562C668.67 106.313 668.559 103.98 668.007 101.653L664.326 102.527ZM666.866 106.471C660.927 105.353 655.912 100.857 654.428 94.605L650.747 95.478C652.588 103.236 658.812 108.804 666.165 110.189L666.866 106.471ZM654.428 94.605C653.981 92.721 653.893 90.841 654.116 89.033L650.361 88.569C650.084 90.818 650.195 93.151 650.747 95.478L654.428 94.605Z" fill="#FF6633"/>
</g>
<path fill-rule="evenodd" clip-rule="evenodd" d="M668.608 97.455C670.432 100.103 670.643 103.684 668.858 106.605C668.321 107.483 667.65 108.227 666.886 108.828C665.062 106.18 664.851 102.599 666.636 99.678C667.173 98.8 667.844 98.055 668.608 97.455Z" fill="#6691FF"/>
<mask id="mask21_0_1" style="mask-type:luminance" maskUnits="userSpaceOnUse" x="665" y="97" width="6" height="12">
<path fill-rule="evenodd" clip-rule="evenodd" d="M668.608 97.455C670.432 100.103 670.643 103.684 668.858 106.605C668.321 107.483 667.65 108.227 666.886 108.828C665.062 106.18 664.851 102.599 666.636 99.678C667.173 98.8 667.844 98.055 668.608 97.455Z" fill="white"/>
</mask>
<g mask="url(#mask21_0_1)">
<path d="M668.608 97.455L670.166 96.382L669.023 94.722L667.439 95.968L668.608 97.455ZM666.886 108.828L665.328 109.901L666.471 111.561L668.055 110.315L666.886 108.828ZM667.05 98.527C668.466 100.583 668.626 103.358 667.244 105.619L670.472 107.592C672.661 104.01 672.398 99.623 670.166 96.382L667.05 98.527ZM667.244 105.619C666.827 106.302 666.306 106.878 665.716 107.341L668.055 110.315C668.993 109.577 669.816 108.664 670.472 107.592L667.244 105.619ZM668.444 107.755C667.028 105.7 666.868 102.925 668.25 100.664L665.022 98.691C662.833 102.272 663.096 106.66 665.328 109.901L668.444 107.755ZM668.25 100.664C668.668 99.981 669.188 99.405 669.778 98.941L667.439 95.968C666.501 96.705 665.678 97.619 665.022 98.691L668.25 100.664Z" fill="#3E74FF"/>
</g>
<path fill-rule="evenodd" clip-rule="evenodd" d="M655.496 106.75C657.364 109.367 660.658 110.787 664.012 110.104C665.021 109.899 665.95 109.521 666.775 109.008C664.907 106.391 661.613 104.972 658.258 105.654C657.25 105.859 656.321 106.237 655.496 106.75Z" fill="#6691FF"/>
<mask id="mask22_0_1" style="mask-type:luminance" maskUnits="userSpaceOnUse" x="655" y="105" width="12" height="6">
<path fill-rule="evenodd" clip-rule="evenodd" d="M655.496 106.75C657.364 109.367 660.658 110.787 664.012 110.104C665.021 109.899 665.95 109.521 666.775 109.008C664.907 106.391 661.613 104.972 658.258 105.654C657.25 105.859 656.321 106.237 655.496 106.75Z" fill="white"/>
</mask>
<g mask="url(#mask22_0_1)">
<path d="M655.496 106.75L653.956 107.85L652.785 106.209L654.497 105.144L655.496 106.75ZM666.775 109.008L668.315 107.909L669.486 109.549L667.774 110.614L666.775 109.008ZM657.035 105.651C658.485 107.683 661.039 108.779 663.635 108.25L664.389 111.958C660.277 112.794 656.243 111.052 653.956 107.85L657.035 105.651ZM663.635 108.25C664.42 108.091 665.139 107.798 665.776 107.402L667.774 110.614C666.761 111.244 665.621 111.707 664.389 111.958L663.635 108.25ZM665.235 110.107C663.785 108.075 661.232 106.979 658.636 107.508L657.881 103.8C661.994 102.964 666.028 104.706 668.315 107.909L665.235 110.107ZM658.636 107.508C657.851 107.667 657.132 107.96 656.495 108.357L654.497 105.144C655.51 104.514 656.649 104.051 657.881 103.8L658.636 107.508Z" fill="#3E74FF"/>
</g>
<path fill-rule="evenodd" clip-rule="evenodd" d="M660.532 100.16C663.666 100.881 666.241 103.378 666.897 106.738C667.095 107.748 667.102 108.751 666.945 109.71C663.811 108.989 661.236 106.492 660.579 103.132C660.382 102.122 660.374 101.119 660.532 100.16Z" fill="#6691FF"/>
<mask id="mask23_0_1" style="mask-type:luminance" maskUnits="userSpaceOnUse" x="660" y="100" width="8" height="10">
<path fill-rule="evenodd" clip-rule="evenodd" d="M660.532 100.16C663.666 100.881 666.241 103.378 666.897 106.738C667.095 107.748 667.102 108.751 666.945 109.71C663.811 108.989 661.236 106.492 660.579 103.132C660.382 102.122 660.374 101.119 660.532 100.16Z" fill="white"/>
</mask>
<g mask="url(#mask23_0_1)">
<path d="M660.532 100.16L660.956 98.316L658.992 97.865L658.665 99.853L660.532 100.16ZM666.945 109.71L666.521 111.554L668.485 112.005L668.812 110.016L666.945 109.71ZM660.108 102.003C662.54 102.563 664.533 104.501 665.041 107.101L668.754 106.375C667.949 102.256 664.791 99.198 660.956 98.316L660.108 102.003ZM665.041 107.101C665.195 107.887 665.2 108.663 665.078 109.404L668.812 110.016C669.005 108.839 668.995 107.609 668.754 106.375L665.041 107.101ZM667.369 107.867C664.936 107.307 662.944 105.369 662.436 102.769L658.723 103.495C659.528 107.614 662.685 110.671 666.521 111.554L667.369 107.867ZM662.436 102.769C662.282 101.983 662.277 101.207 662.398 100.466L658.665 99.853C658.472 101.031 658.481 102.261 658.723 103.495L662.436 102.769Z" fill="#3E74FF"/>
</g>
<path d="M654.832 75.4094C655.836 75.4094 656.65 74.5953 656.65 73.591C656.65 72.5867 655.836 71.7726 654.832 71.7726C653.828 71.7726 653.014 72.5867 653.014 73.591C653.014 74.5953 653.828 75.4094 654.832 75.4094Z" fill="#FBAD41" stroke="#FF6633" stroke-width="1.89161"/>
<path d="M655.084 158.838C656.227 158.838 657.154 157.911 657.154 156.768C657.154 155.625 656.227 154.698 655.084 154.698C653.941 154.698 653.014 155.625 653.014 156.768C653.014 157.911 653.941 158.838 655.084 158.838Z" fill="#FBAD41" stroke="#FF6633" stroke-width="1.89161"/>
<path d="M689.762 120.139C690.905 120.139 691.832 119.212 691.832 118.069C691.832 116.926 690.905 115.999 689.762 115.999C688.619 115.999 687.692 116.926 687.692 118.069C687.692 119.212 688.619 120.139 689.762 120.139Z" fill="#FBAD41" stroke="#FF6633" stroke-width="1.89161"/>
<path fill-rule="evenodd" clip-rule="evenodd" d="M673.756 235.673H687.75L686.96 232.131C694.942 227.53 700.315 218.911 700.315 209.036C700.315 197.638 693.157 187.913 683.09 184.11L683.781 176.368H663.154L663.967 184.225C654.059 188.107 647.042 197.752 647.042 209.036C647.042 218.91 652.415 227.53 660.396 232.13L659.606 235.673H673.601C673.627 235.673 673.653 235.673 673.679 235.673C673.705 235.673 673.73 235.673 673.756 235.673Z" fill="#A8CBFF"/>
<path d="M687.75 235.673V236.618H688.93L688.673 235.467L687.75 235.673ZM673.756 235.673V234.727H673.754L673.756 235.673ZM686.96 232.131L686.488 231.311L685.886 231.658L686.037 232.337L686.96 232.131ZM683.09 184.11L682.148 184.026L682.085 184.741L682.756 184.995L683.09 184.11ZM683.781 176.368L684.723 176.452L684.815 175.423H683.781V176.368ZM663.154 176.368V175.423H662.105L662.213 176.466L663.154 176.368ZM663.967 184.225L664.312 185.106L664.982 184.844L664.908 184.128L663.967 184.225ZM660.396 232.13L661.319 232.336L661.471 231.658L660.869 231.311L660.396 232.13ZM659.606 235.673L658.683 235.467L658.426 236.618H659.606V235.673ZM673.601 235.673L673.604 234.727H673.601V235.673ZM687.75 234.727H673.756V236.618H687.75V234.727ZM686.037 232.337L686.827 235.879L688.673 235.467L687.883 231.925L686.037 232.337ZM699.37 209.036C699.37 218.559 694.189 226.873 686.488 231.311L687.432 232.95C695.695 228.188 701.261 219.262 701.261 209.036H699.37ZM682.756 184.995C692.467 188.663 699.37 198.045 699.37 209.036H701.261C701.261 197.232 693.847 187.162 683.425 183.225L682.756 184.995ZM682.839 176.284L682.148 184.026L684.032 184.194L684.723 176.452L682.839 176.284ZM663.154 177.314H683.781V175.423H663.154V177.314ZM664.908 184.128L664.095 176.271L662.213 176.466L663.026 184.323L664.908 184.128ZM647.988 209.036C647.988 198.154 654.754 188.85 664.312 185.106L663.622 183.345C653.363 187.363 646.096 197.35 646.096 209.036H647.988ZM660.869 231.311C653.168 226.872 647.988 218.558 647.988 209.036H646.096C646.096 219.262 651.661 228.187 659.924 232.949L660.869 231.311ZM660.529 235.879L661.319 232.336L659.473 231.924L658.683 235.467L660.529 235.879ZM673.601 234.727H659.606V236.618H673.601V234.727ZM673.679 234.727C673.654 234.727 673.629 234.727 673.604 234.727L673.598 236.618C673.625 236.619 673.652 236.619 673.679 236.619V234.727ZM673.754 234.727C673.729 234.727 673.704 234.727 673.679 234.727V236.619C673.705 236.619 673.732 236.619 673.759 236.618L673.754 234.727Z" fill="#3E74FF"/>
<path d="M133.419 145.678H121.025V237.151H133.419V145.678Z" fill="#FBAD41" stroke="#FF6633" stroke-width="1.89161"/>
<path d="M120.264 236.819V236.437H131.658V236.819H120.264Z" fill="#3E74FF" stroke="#FF6633"/>
<path d="M128.544 236.98C128.544 236.98 128.544 236.98 128.544 236.98V236.986C128.544 236.984 128.544 236.982 128.544 236.98Z" fill="#3E74FF" stroke="#FF6633"/>
<path d="M133.395 146H121V147.381H133.395V146Z" fill="#FF6633"/>
<path d="M120.859 178.374H103.713V237.151H120.859V178.374Z" fill="#FFE9CB" stroke="#FF6633" stroke-width="1.89161"/>
<path d="M115.682 217.373H115.682L115.682 217.381C115.699 219.4 114.203 220.915 112.569 220.915C110.943 220.915 109.456 219.406 109.456 217.373V199.494C109.456 197.444 110.957 195.952 112.569 195.952C114.195 195.952 115.682 197.461 115.682 199.494V217.373Z" fill="#FBAD41" stroke="#FF6633" stroke-width="2"/>
<path d="M166.589 179.336H148.326C144.669 179.336 141.705 182.3 141.705 185.957V193.472C141.705 197.128 144.669 200.092 148.326 200.092H166.589C170.245 200.092 173.21 197.128 173.21 193.472V185.957C173.21 182.3 170.245 179.336 166.589 179.336Z" stroke="#FF6633" stroke-width="1.89161"/>
<path d="M151.301 173.195H181.655V199.614C181.655 203.271 178.69 206.235 175.034 206.235H157.922C154.266 206.235 151.301 203.271 151.301 199.614V173.195Z" fill="#FFE9CB" stroke="#FF6633" stroke-width="1.89161"/>
<path d="M160.144 174.155H167.63V203.438C167.63 205.505 165.954 207.181 163.887 207.181C161.82 207.181 160.144 205.505 160.144 203.438V174.155Z" fill="white"/>
<path d="M155.154 174.155H158.273V205.621C158.273 206.482 157.575 207.181 156.714 207.181C155.852 207.181 155.154 206.482 155.154 205.621V174.155Z" fill="white"/>
<path d="M151.301 178.185H181.655V199.614C181.655 203.271 178.69 206.235 175.034 206.235H157.922C154.266 206.235 151.301 203.271 151.301 199.614V178.185Z" fill="#FF6633" stroke="#FF6633" stroke-width="1.89161"/>
<path d="M170.15 192.703L170.257 192.337C170.385 191.901 170.338 191.499 170.122 191.203C169.924 190.931 169.594 190.77 169.194 190.752L161.603 190.656C161.552 190.654 161.509 190.631 161.483 190.594C161.457 190.556 161.451 190.506 161.467 190.459C161.492 190.386 161.566 190.33 161.643 190.327L169.305 190.231C170.214 190.19 171.197 189.465 171.542 188.581L171.979 187.459C171.991 187.429 171.996 187.396 171.996 187.364C171.996 187.346 171.995 187.328 171.991 187.311C171.494 185.117 169.503 183.477 167.122 183.477C164.928 183.477 163.065 184.869 162.397 186.804C161.966 186.486 161.414 186.317 160.821 186.375C159.769 186.478 158.923 187.311 158.818 188.345C158.791 188.614 158.813 188.873 158.876 189.117C157.157 189.166 155.778 190.551 155.778 192.253C155.778 192.407 155.79 192.558 155.812 192.706C155.823 192.778 155.884 192.832 155.958 192.832L169.972 192.834C169.974 192.834 169.976 192.833 169.976 192.833C170.056 192.831 170.127 192.779 170.15 192.703Z" fill="#FFE9CB"/>
<path d="M172.798 187.22C172.727 187.22 172.657 187.222 172.586 187.225C172.575 187.226 172.564 187.229 172.553 187.233C172.516 187.246 172.487 187.277 172.476 187.317L172.174 188.392C172.045 188.854 172.093 189.28 172.31 189.594C172.51 189.884 172.843 190.053 173.248 190.073L174.881 190.174C174.93 190.177 174.972 190.201 174.998 190.24C175.025 190.281 175.031 190.333 175.015 190.383C174.989 190.461 174.915 190.52 174.837 190.524L173.14 190.625C172.219 190.669 171.225 191.438 170.877 192.375L170.755 192.706C170.732 192.766 170.774 192.83 170.835 192.833C170.837 192.833 170.838 192.834 170.84 192.834H176.68C176.75 192.834 176.812 192.787 176.831 192.718C176.933 192.345 176.987 191.952 176.987 191.546C176.986 189.156 175.111 187.22 172.798 187.22Z" fill="#FFE9CB"/>
<path fill-rule="evenodd" clip-rule="evenodd" d="M589.988 234.143C593.337 226.429 592.331 217.282 586.705 210.936C585.015 209.028 583.049 207.534 580.918 206.455C577.569 214.169 578.575 223.316 584.201 229.662C585.892 231.57 587.858 233.064 589.988 234.143Z" fill="#FBAD41"/>
<mask id="mask24_0_1" style="mask-type:luminance" maskUnits="userSpaceOnUse" x="579" y="206" width="13" height="29">
<path fill-rule="evenodd" clip-rule="evenodd" d="M589.988 234.143C593.337 226.429 592.331 217.282 586.705 210.936C585.015 209.028 583.049 207.534 580.918 206.455C577.569 214.169 578.575 223.316 584.201 229.662C585.892 231.57 587.858 233.064 589.988 234.143Z" fill="white"/>
</mask>
<g mask="url(#mask24_0_1)">
<path d="M589.988 234.143L591.677 234.933L590.889 236.748L589.173 235.879L589.988 234.143ZM580.918 206.455L579.23 205.665L580.017 203.85L581.733 204.719L580.918 206.455ZM588.3 233.353C591.37 226.281 590.42 217.976 585.342 212.247L588.069 209.625C594.242 216.589 595.304 226.576 591.677 234.933L588.3 233.353ZM585.342 212.247C583.81 210.519 582.031 209.167 580.103 208.19L581.733 204.719C584.066 205.901 586.219 207.538 588.069 209.625L585.342 212.247ZM582.606 207.245C579.536 214.317 580.486 222.622 585.564 228.351L582.837 230.973C576.664 224.009 575.602 214.022 579.23 205.665L582.606 207.245ZM585.564 228.351C587.096 230.079 588.875 231.431 590.804 232.408L589.173 235.879C586.84 234.697 584.687 233.06 582.837 230.973L585.564 228.351Z" fill="#FF6633"/>
</g>
<path fill-rule="evenodd" clip-rule="evenodd" d="M593.03 235.972C588.798 228.723 580.344 224.459 571.076 225.79C568.291 226.19 565.666 227.061 563.279 228.309C567.511 235.559 575.964 239.822 585.232 238.492C588.018 238.092 590.643 237.22 593.03 235.972Z" fill="#FBAD41"/>
<mask id="mask25_0_1" style="mask-type:luminance" maskUnits="userSpaceOnUse" x="563" y="225" width="31" height="14">
<path fill-rule="evenodd" clip-rule="evenodd" d="M593.03 235.972C588.798 228.723 580.344 224.459 571.076 225.79C568.291 226.19 565.666 227.061 563.279 228.309C567.511 235.559 575.964 239.822 585.232 238.492C588.018 238.092 590.643 237.22 593.03 235.972Z" fill="white"/>
</mask>
<g mask="url(#mask25_0_1)">
<path d="M593.03 235.972L594.661 234.941L595.678 236.683L593.821 237.654L593.03 235.972ZM563.279 228.309L561.648 229.34L560.631 227.598L562.487 226.628L563.279 228.309ZM591.398 237.004C587.53 230.377 579.778 226.449 571.244 227.674L570.909 223.906C580.91 222.47 590.065 227.069 594.661 234.941L591.398 237.004ZM571.244 227.674C568.677 228.043 566.263 228.845 564.071 229.991L562.487 226.628C565.069 225.278 567.905 224.337 570.909 223.906L571.244 227.674ZM564.911 227.278C568.779 233.904 576.53 237.833 585.065 236.608L585.4 240.376C575.398 241.812 566.243 237.213 561.648 229.34L564.911 227.278ZM585.065 236.608C587.632 236.239 590.045 235.437 592.238 234.291L593.821 237.654C591.24 239.004 588.404 239.945 585.4 240.376L585.065 236.608Z" fill="#FF6633"/>
</g>
<path fill-rule="evenodd" clip-rule="evenodd" d="M699.033 230.976C695.475 223.836 695.971 215.121 700.984 208.827C702.49 206.936 704.278 205.422 706.243 204.293C709.801 211.434 709.305 220.149 704.292 226.442C702.786 228.333 700.998 229.847 699.033 230.976Z" fill="#FBAD41"/>
<mask id="mask26_0_1" style="mask-type:luminance" maskUnits="userSpaceOnUse" x="696" y="204" width="13" height="27">
<path fill-rule="evenodd" clip-rule="evenodd" d="M699.033 230.976C695.475 223.836 695.971 215.121 700.984 208.827C702.49 206.936 704.278 205.422 706.243 204.293C709.801 211.434 709.305 220.149 704.292 226.442C702.786 228.333 700.998 229.847 699.033 230.976Z" fill="white"/>
</mask>
<g mask="url(#mask26_0_1)">
<path d="M699.033 230.976L697.389 231.854L698.271 233.625L699.939 232.667L699.033 230.976ZM706.243 204.293L707.887 203.415L707.005 201.645L705.338 202.603L706.243 204.293ZM700.677 230.099C697.432 223.584 697.916 215.713 702.414 210.065L699.553 207.59C694.027 214.529 693.519 224.087 697.389 231.854L700.677 230.099ZM702.414 210.065C703.771 208.361 705.38 206.999 707.148 205.983L705.338 202.603C703.176 203.845 701.209 205.511 699.553 207.59L702.414 210.065ZM704.599 205.171C707.844 211.685 707.36 219.557 702.862 225.205L705.723 227.68C711.25 220.741 711.757 211.183 707.887 203.415L704.599 205.171ZM702.862 225.205C701.505 226.908 699.896 228.27 698.128 229.286L699.939 232.667C702.1 231.425 704.067 229.759 705.723 227.68L702.862 225.205Z" fill="#FF6633"/>
</g>
<path d="M103.844 191.307H120.485" stroke="#FF6633" stroke-width="1.89161"/>
<path d="M366.002 261.502C420.684 261.502 465.013 217.173 465.013 162.491C465.013 107.809 420.684 63.4799 366.002 63.4799C311.32 63.4799 266.991 107.809 266.991 162.491C266.991 217.173 311.32 261.502 366.002 261.502Z" fill="white"/>
<path d="M365.941 254.927C417.026 254.927 458.438 213.515 458.438 162.43C458.438 111.345 417.026 69.9325 365.941 69.9325C314.856 69.9325 273.443 111.345 273.443 162.43C273.443 213.515 314.856 254.927 365.941 254.927Z" fill="url(#paint0_linear_0_1)" stroke="url(#paint1_linear_0_1)" stroke-width="2.8677"/>
<path d="M365.927 236.976C407.105 236.976 440.487 203.594 440.487 162.416C440.487 121.238 407.105 87.8558 365.927 87.8558C324.749 87.8558 291.367 121.238 291.367 162.416C291.367 203.594 324.749 236.976 365.927 236.976Z" fill="white"/>
<path d="M421.701 141.357V187.275L366.322 218.677V172.759L421.701 141.357Z" fill="url(#paint2_linear_0_1)" stroke="#FF6633" stroke-width="3" stroke-linejoin="round"/>
<path d="M310.943 141.357V187.275L366.322 218.677V172.759L310.943 141.357Z" fill="url(#paint3_linear_0_1)" stroke="#FF6633" stroke-width="3" stroke-linejoin="round"/>
<path d="M366.322 109.965L310.943 141.357L366.322 172.759L421.701 141.357L366.322 109.965Z" fill="#FBAD41" stroke="#FF6633" stroke-width="3" stroke-linejoin="round"/>
<path d="M374.957 124.54V120.311L371.299 120.862C369.612 120.283 367.798 120.181 366.057 120.567C364.67 120.842 363.357 121.405 362.202 122.219L359.438 122.622V127.707C359.438 131.051 364.031 132.565 368.289 131.69C372.548 130.815 374.908 128.228 374.957 124.54Z" fill="#FF6633" stroke="#003682" stroke-width="3" stroke-linejoin="round"/>
<path d="M365.978 132.162C364.123 132.254 362.289 131.736 360.756 130.687C360.298 130.344 359.927 129.898 359.672 129.386C359.418 128.873 359.287 128.308 359.291 127.736V122.465L362.241 122.042C363.424 121.222 364.763 120.653 366.175 120.37C367.943 119.996 369.778 120.095 371.495 120.655L375.331 120.075V124.501C375.331 128.356 372.902 130.982 368.574 131.867C367.722 132.056 366.852 132.155 365.978 132.162ZM359.713 122.819V127.736C359.713 128.235 359.831 128.728 360.058 129.172C360.291 129.622 360.629 130.009 361.041 130.303C362.106 131.001 363.305 131.466 364.562 131.67C365.815 131.879 367.097 131.825 368.329 131.513C372.42 130.667 374.692 128.199 374.731 124.57V120.636L371.289 121.147C369.637 120.595 367.866 120.5 366.165 120.872C364.812 121.139 363.529 121.685 362.398 122.475H362.29L359.713 122.819Z" fill="#FF6633" stroke="#FF6633" stroke-width="3" stroke-linejoin="round"/>
<path d="M368.515 127.185C372.852 126.31 375.852 123.104 375.203 120.036C374.554 116.967 370.522 115.177 366.185 116.053C361.847 116.928 358.848 120.134 359.497 123.202C360.146 126.271 364.178 128.041 368.515 127.185Z" fill="#FBAD41" stroke="#FF6633" stroke-width="3" stroke-linejoin="round"/>
<path d="M347.135 140.511V136.292L343.476 136.833C341.79 136.255 339.976 136.152 338.235 136.538C336.848 136.811 335.534 137.374 334.379 138.19L331.606 138.603V143.688C331.606 147.031 336.199 148.546 340.457 147.622C344.716 146.697 347.086 144.199 347.135 140.511Z" fill="#FF6633" stroke="#FF6633" stroke-width="3" stroke-linejoin="round"/>
<path d="M338.146 148.134C336.293 148.229 334.461 147.71 332.934 146.658C332.479 146.314 332.109 145.87 331.852 145.36C331.595 144.851 331.46 144.289 331.458 143.718V138.437L334.409 138.014C335.589 137.19 336.929 136.624 338.343 136.352C340.106 135.97 341.939 136.065 343.653 136.627L347.499 136.057V140.473C347.499 144.328 345.07 146.954 340.742 147.839C339.891 148.037 339.02 148.136 338.146 148.134ZM331.891 138.791V143.708C331.894 144.206 332.013 144.696 332.238 145.14C332.464 145.584 332.789 145.969 333.189 146.265C334.255 146.959 335.452 147.425 336.706 147.633C337.961 147.841 339.244 147.787 340.477 147.475C344.568 146.639 346.84 144.16 346.879 140.532V136.598L343.437 137.119C341.787 136.559 340.015 136.46 338.313 136.834C336.957 137.101 335.671 137.647 334.537 138.437H334.438L331.891 138.791Z" fill="#FF6633" stroke="#FF6633" stroke-width="3" stroke-linejoin="round"/>
<path d="M340.693 143.167C345.03 142.292 348.029 139.086 347.38 136.007C346.731 132.929 342.699 131.149 338.362 132.024C334.025 132.9 331.025 136.106 331.665 139.184C332.304 142.262 336.346 144.042 340.693 143.167Z" fill="#FBAD41" stroke="#FF6633" stroke-width="3" stroke-linejoin="round"/>
<path d="M400.842 140.187V135.958L397.193 136.508C395.507 135.925 393.692 135.823 391.951 136.213C390.565 136.483 389.251 137.043 388.096 137.856L385.323 138.269V143.353C385.323 146.697 389.916 148.212 394.174 147.287C398.432 146.363 400.803 143.865 400.842 140.187Z" fill="#FF6633" stroke="#003682" stroke-width="3" stroke-linejoin="round"/>
<path d="M391.863 147.798C390.012 147.894 388.18 147.379 386.65 146.333C386.196 145.986 385.826 145.54 385.571 145.029C385.315 144.517 385.18 143.954 385.175 143.382V138.111L388.126 137.678C389.308 136.859 390.648 136.293 392.059 136.016C393.824 135.643 395.656 135.741 397.37 136.302L401.215 135.721V140.147C401.215 144.002 398.786 146.628 394.459 147.503C393.608 147.702 392.737 147.801 391.863 147.798ZM385.578 138.465V143.382C385.578 143.882 385.696 144.374 385.923 144.818C386.162 145.264 386.498 145.651 386.906 145.949C387.975 146.639 389.173 147.105 390.427 147.316C391.684 147.522 392.97 147.465 394.203 147.149C398.295 146.313 400.557 143.835 400.606 140.265V136.331L397.164 136.842C395.512 136.29 393.741 136.195 392.04 136.567C390.682 136.83 389.395 137.376 388.263 138.17H388.165L385.578 138.465Z" fill="#FF6633" stroke="#FF6633" stroke-width="3" stroke-linejoin="round"/>
<path d="M394.43 142.793C398.767 141.918 401.756 138.712 401.117 135.634C400.478 132.555 396.436 130.775 392.099 131.7C387.762 132.624 384.762 135.781 385.401 138.85C386.041 141.918 390.063 143.708 394.43 142.793Z" fill="#FBAD41" stroke="#FF6633" stroke-width="3" stroke-linejoin="round"/>
<path d="M373.777 155.5V151.271L370.129 151.821C368.443 151.238 366.628 151.136 364.887 151.526C363.498 151.798 362.181 152.358 361.022 153.169L358.258 153.582V158.666C358.258 162.01 362.851 163.525 367.109 162.6C371.368 161.676 373.699 159.178 373.777 155.5Z" fill="#FF6633" stroke="#003682" stroke-width="3" stroke-linejoin="round"/>
<path d="M364.759 163.111C362.908 163.207 361.076 162.692 359.546 161.646C359.092 161.299 358.722 160.853 358.467 160.342C358.211 159.83 358.076 159.267 358.071 158.696V153.424L361.021 152.992C362.205 152.173 363.544 151.607 364.955 151.329C366.723 150.951 368.559 151.049 370.276 151.615L374.121 151.034V155.45C374.121 159.315 371.692 161.931 367.355 162.816C366.504 163.016 365.633 163.115 364.759 163.111ZM358.494 153.778V158.696C358.502 159.195 358.623 159.686 358.848 160.131C359.087 160.577 359.423 160.964 359.832 161.262C360.899 161.954 362.098 162.42 363.352 162.629C364.606 162.835 365.889 162.778 367.119 162.462C371.22 161.626 373.482 159.148 373.531 155.529V151.595L370.079 152.106C368.427 151.554 366.657 151.459 364.955 151.831C363.601 152.095 362.318 152.641 361.189 153.434H361.09L358.494 153.778Z" fill="#FF6633" stroke="#FF6633" stroke-width="3" stroke-linejoin="round"/>
<path d="M367.296 158.144C371.643 157.269 374.633 154.063 373.993 150.985C373.354 147.907 369.312 146.126 364.965 147.051C360.618 147.975 357.629 151.132 358.278 154.201C358.927 157.269 362.959 159.02 367.296 158.144Z" fill="#FBAD41" stroke="#FF6633" stroke-width="3" stroke-linejoin="round"/>
<path d="M420.833 141.392V187.31L365.454 218.712V172.794L420.833 141.392Z" fill="url(#paint4_linear_0_1)" stroke="#FF6633" stroke-width="3" stroke-linejoin="round"/>
<path d="M310.075 141.392V187.31L365.454 218.712V172.794L310.075 141.392Z" fill="url(#paint5_linear_0_1)" stroke="#FF6633" stroke-width="3" stroke-linejoin="round"/>
<path d="M365.454 110L310.075 141.392L365.454 172.794L420.833 141.392L365.454 110Z" fill="#FBAD41" stroke="#FF6633" stroke-width="3" stroke-linejoin="round"/>
<path d="M374.089 124.575V120.346L370.431 120.897C368.744 120.319 366.93 120.217 365.189 120.602C363.802 120.877 362.489 121.44 361.334 122.254L358.57 122.657V127.742C358.57 131.086 363.163 132.6 367.421 131.725C371.68 130.85 374.04 128.263 374.089 124.575Z" fill="#FF6633" stroke="#003682" stroke-width="3" stroke-linejoin="round"/>
<path d="M365.11 132.197C363.255 132.289 361.421 131.771 359.888 130.722C359.43 130.379 359.059 129.933 358.804 129.421C358.55 128.909 358.419 128.344 358.423 127.772V122.5L361.373 122.077C362.556 121.257 363.895 120.688 365.307 120.405C367.075 120.032 368.91 120.13 370.627 120.691L374.463 120.11V124.536C374.463 128.391 372.034 131.017 367.706 131.902C366.854 132.091 365.983 132.19 365.11 132.197ZM358.845 122.854V127.772C358.845 128.271 358.963 128.763 359.19 129.207C359.423 129.657 359.76 130.044 360.173 130.338C361.238 131.036 362.437 131.502 363.694 131.705C364.947 131.914 366.229 131.861 367.461 131.548C371.552 130.702 373.824 128.234 373.863 124.605V120.671L370.421 121.182C368.769 120.63 366.998 120.535 365.297 120.907C363.944 121.174 362.661 121.72 361.53 122.51H361.422L358.845 122.854Z" fill="#FF6633" stroke="#FF6633" stroke-width="3" stroke-linejoin="round"/>
<path d="M367.647 127.221C371.984 126.345 374.984 123.139 374.335 120.071C373.686 117.002 369.654 115.213 365.317 116.088C360.979 116.963 357.98 120.169 358.629 123.238C359.278 126.306 363.31 128.076 367.647 127.221Z" fill="#FBAD41" stroke="#FF6633" stroke-width="3" stroke-linejoin="round"/>
<path d="M346.267 140.546V136.327L342.608 136.868C340.922 136.29 339.108 136.188 337.367 136.573C335.98 136.847 334.666 137.41 333.511 138.225L330.738 138.638V143.723C330.738 147.067 335.331 148.581 339.589 147.657C343.848 146.732 346.218 144.234 346.267 140.546Z" fill="#FF6633" stroke="#FF6633" stroke-width="3" stroke-linejoin="round"/>
<path d="M337.278 148.169C335.425 148.264 333.593 147.746 332.066 146.694C331.611 146.349 331.241 145.905 330.984 145.395C330.727 144.886 330.592 144.324 330.59 143.753V138.472L333.541 138.049C334.721 137.226 336.061 136.659 337.475 136.387C339.238 136.005 341.071 136.1 342.785 136.662L346.631 136.092V140.508C346.631 144.363 344.202 146.989 339.874 147.874C339.023 148.072 338.152 148.171 337.278 148.169ZM331.023 138.826V143.743C331.026 144.241 331.145 144.731 331.37 145.175C331.596 145.619 331.921 146.004 332.321 146.3C333.387 146.994 334.584 147.46 335.838 147.668C337.093 147.876 338.376 147.823 339.609 147.51C343.7 146.674 345.972 144.196 346.011 140.567V136.633L342.569 137.154C340.919 136.594 339.147 136.495 337.445 136.869C336.089 137.136 334.803 137.682 333.669 138.472H333.57L331.023 138.826Z" fill="#FF6633" stroke="#FF6633" stroke-width="3" stroke-linejoin="round"/>
<path d="M339.825 143.202C344.162 142.327 347.162 139.121 346.512 136.043C345.863 132.964 341.831 131.184 337.494 132.06C333.157 132.935 330.157 136.141 330.797 139.219C331.436 142.297 335.478 144.078 339.825 143.202Z" fill="#FBAD41" stroke="#FF6633" stroke-width="3" stroke-linejoin="round"/>
<path d="M399.974 140.222V135.993L396.325 136.544C394.639 135.961 392.824 135.858 391.083 136.249C389.697 136.518 388.383 137.078 387.228 137.891L384.455 138.304V143.388C384.455 146.732 389.048 148.247 393.306 147.322C397.564 146.398 399.935 143.9 399.974 140.222Z" fill="#FF6633" stroke="#003682" stroke-width="3" stroke-linejoin="round"/>
<path d="M390.995 147.833C389.144 147.929 387.312 147.414 385.782 146.368C385.328 146.021 384.958 145.575 384.703 145.064C384.447 144.553 384.312 143.989 384.307 143.418V138.146L387.258 137.714C388.44 136.894 389.78 136.328 391.191 136.052C392.956 135.678 394.788 135.776 396.502 136.337L400.347 135.757V140.182C400.347 144.037 397.918 146.663 393.591 147.538C392.74 147.737 391.869 147.836 390.995 147.833ZM384.71 138.5V143.418C384.71 143.917 384.828 144.409 385.055 144.854C385.294 145.299 385.63 145.686 386.038 145.985C387.107 146.675 388.305 147.14 389.559 147.352C390.816 147.557 392.102 147.5 393.335 147.184C397.427 146.348 399.689 143.87 399.738 140.3V136.366L396.296 136.878C394.644 136.326 392.873 136.23 391.172 136.602C389.814 136.865 388.527 137.411 387.395 138.205H387.297L384.71 138.5Z" fill="#FF6633" stroke="#FF6633" stroke-width="3" stroke-linejoin="round"/>
<path d="M393.562 142.829C397.899 141.953 400.888 138.747 400.249 135.669C399.61 132.591 395.568 130.811 391.231 131.735C386.894 132.659 383.894 135.816 384.533 138.885C385.173 141.953 389.195 143.743 393.562 142.829Z" fill="#FBAD41" stroke="#FF6633" stroke-width="3" stroke-linejoin="round"/>
<path d="M372.909 155.535V151.306L369.261 151.857C367.575 151.274 365.76 151.171 364.019 151.562C362.63 151.833 361.313 152.393 360.154 153.204L357.39 153.617V158.702C357.39 162.045 361.983 163.56 366.241 162.635C370.5 161.711 372.831 159.213 372.909 155.535Z" fill="#FF6633" stroke="#003682" stroke-width="3" stroke-linejoin="round"/>
<path d="M363.891 163.147C362.04 163.242 360.208 162.728 358.678 161.681C358.224 161.335 357.854 160.888 357.599 160.377C357.343 159.866 357.208 159.303 357.203 158.731V153.459L360.153 153.027C361.337 152.208 362.676 151.642 364.087 151.365C365.855 150.986 367.691 151.084 369.408 151.65L373.253 151.07V155.485C373.253 159.35 370.824 161.966 366.487 162.851C365.636 163.051 364.765 163.15 363.891 163.147ZM357.626 153.813V158.731C357.634 159.23 357.755 159.721 357.98 160.167C358.219 160.612 358.555 160.999 358.963 161.298C360.031 161.99 361.229 162.455 362.484 162.665C363.738 162.87 365.021 162.813 366.251 162.497C370.352 161.662 372.614 159.183 372.663 155.564V151.63L369.211 152.142C367.559 151.589 365.789 151.494 364.087 151.866C362.733 152.13 361.45 152.677 360.321 153.469H360.222L357.626 153.813Z" fill="#FF6633" stroke="#FF6633" stroke-width="3" stroke-linejoin="round"/>
<path d="M366.428 158.18C370.775 157.304 373.765 154.098 373.125 151.02C372.486 147.942 368.444 146.162 364.097 147.086C359.75 148.011 356.761 151.167 357.41 154.236C358.059 157.304 362.091 159.055 366.428 158.18Z" fill="#FBAD41" stroke="#FF6633" stroke-width="3" stroke-linejoin="round"/>
<defs>
<linearGradient id="paint0_linear_0_1" x1="374" y1="255" x2="381" y2="61.4999" gradientUnits="userSpaceOnUse">
<stop stop-color="#FFE9CB"/>
<stop offset="1" stop-color="#FFF5C2"/>
</linearGradient>
<linearGradient id="paint1_linear_0_1" x1="371.825" y1="256.417" x2="368.599" y2="68.582" gradientUnits="userSpaceOnUse">
<stop offset="0.00709136" stop-color="#FF6633"/>
<stop offset="0.335224" stop-color="#F6821F"/>
<stop offset="1" stop-color="#FBAD41"/>
</linearGradient>
<linearGradient id="paint2_linear_0_1" x1="409.81" y1="121.032" x2="383.798" y2="207.987" gradientUnits="userSpaceOnUse">
<stop offset="0.642996" stop-color="#F9AB41"/>
<stop offset="1" stop-color="#F6821F"/>
</linearGradient>
<linearGradient id="paint3_linear_0_1" x1="348.699" y1="162.59" x2="328.567" y2="197.454" gradientUnits="userSpaceOnUse">
<stop stop-color="#F6821F"/>
<stop offset="1" stop-color="#FF6633"/>
</linearGradient>
<linearGradient id="paint4_linear_0_1" x1="408.942" y1="121.067" x2="382.93" y2="208.022" gradientUnits="userSpaceOnUse">
<stop offset="0.642996" stop-color="#F9AB41"/>
<stop offset="1" stop-color="#F6821F"/>
</linearGradient>
<linearGradient id="paint5_linear_0_1" x1="347.831" y1="162.625" x2="302.632" y2="189.293" gradientUnits="userSpaceOnUse">
<stop stop-color="#F6821F"/>
<stop offset="0.198482" stop-color="#FF6633"/>
<stop offset="0.965" stop-color="#CE2F55"/>
</linearGradient>
</defs>
</svg>
