<svg xmlns="http://www.w3.org/2000/svg" width="757" height="426" fill="none">
  <path fill="#1D1F20" d="M0 .257h756.645V425.87H0z" />
  <mask id="a" fill="#fff">
    <path fill-rule="evenodd"
      d="M699.765 299.445c6.406-4.73 15.371-5.275 22.948-.64a23.02 23.02 0 0 1 5.85 5.119c-6.407 4.73-15.371 5.276-22.948.641a22.988 22.988 0 0 1-5.85-5.12Z"
      clip-rule="evenodd" />
  </mask>
  <path fill="#52AEE3" fill-rule="evenodd"
    d="M699.765 299.445c6.406-4.73 15.371-5.275 22.948-.64a23.02 23.02 0 0 1 5.85 5.119c-6.407 4.73-15.371 5.276-22.948.641a22.988 22.988 0 0 1-5.85-5.12Z"
    clip-rule="evenodd" />
  <path fill="#3790E0"
    d="m699.765 299.445-1.091-1.592-1.623 1.198 1.322 1.626 1.392-1.232Zm28.798 4.479 1.091 1.592 1.622-1.198-1.321-1.625-1.392 1.231Zm-27.707-2.887c5.826-4.301 14.014-4.816 20.958-.567l1.797-3.33c-8.208-5.021-17.95-4.445-24.937.713l2.182 3.184Zm20.958-.567a21.035 21.035 0 0 1 5.356 4.686l2.785-2.463a24.974 24.974 0 0 0-6.344-5.553l-1.797 3.33Zm5.658 1.862c-5.826 4.302-14.014 4.816-20.959.568l-1.797 3.329c8.209 5.022 17.951 4.446 24.938-.713l-2.182-3.184Zm-20.959.568a21.055 21.055 0 0 1-5.356-4.686l-2.784 2.463a24.946 24.946 0 0 0 6.343 5.552l1.797-3.329Z"
    mask="url(#a)" />
  <mask id="b" fill="#fff">
    <path fill-rule="evenodd"
      d="M739.059 289.562c-4.732 5.153-11.662 7.091-17.778 4.305a15.058 15.058 0 0 1-4.801-3.488c4.732-5.153 11.661-7.091 17.778-4.305a15.058 15.058 0 0 1 4.801 3.488Z"
      clip-rule="evenodd" />
  </mask>
  <path fill="#52AEE3" fill-rule="evenodd"
    d="M739.059 289.562c-4.732 5.153-11.662 7.091-17.778 4.305a15.058 15.058 0 0 1-4.801-3.488c4.732-5.153 11.661-7.091 17.778-4.305a15.058 15.058 0 0 1 4.801 3.488Z"
    clip-rule="evenodd" />
  <path fill="#3790E0"
    d="m739.059 289.562 1.361 1.367 1.208-1.315-1.266-1.365-1.303 1.313Zm-22.579.817-1.362-1.367-1.207 1.315 1.266 1.365 1.303-1.313Zm21.217-2.183c-4.322 4.706-10.47 6.304-15.737 3.906l-1.359 3.531c6.967 3.172 14.678.895 19.819-4.704l-2.723-2.733Zm-15.737 3.906a13.107 13.107 0 0 1-4.177-3.036l-2.606 2.626a17.02 17.02 0 0 0 5.424 3.941l1.359-3.531Zm-4.118-.357c4.322-4.706 10.47-6.304 15.736-3.906l1.359-3.531c-6.966-3.172-14.677-.895-19.819 4.704l2.724 2.733Zm15.736-3.906a13.072 13.072 0 0 1 4.177 3.037l2.607-2.627a17.024 17.024 0 0 0-5.425-3.941l-1.359 3.531Z"
    mask="url(#b)" />
  <path stroke="#3790E0" stroke-linecap="square" stroke-linejoin="round" stroke-width="1.892"
    d="M726.217 280.837s-4.186 6.35-11.621 11.867c-7.671 5.691-18.447 5.476-23.106 8.166l-.03.018" />
  <path fill="#52AEE3" fill-rule="evenodd"
    d="M736.153 262.929c1.443 5.951-.204 11.864-4.672 14.837a10.789 10.789 0 0 1-4.381 1.682c-1.443-5.951.204-11.864 4.672-14.836a10.776 10.776 0 0 1 4.381-1.683Z"
    clip-rule="evenodd" />
  <path fill="#3790E0"
    d="m736.153 262.929.915-.227-.203-.84-.85.129.138.938Zm-9.053 16.519-.915.228.203.84.85-.129-.138-.939Zm8.137-16.291c1.378 5.683-.233 11.129-4.274 13.817l1.036 1.583c4.894-3.256 6.577-9.637 5.069-15.855l-1.831.455Zm-4.274 13.817a9.846 9.846 0 0 1-4.001 1.536l.276 1.877a11.721 11.721 0 0 0 4.761-1.83l-1.036-1.583Zm-2.947 2.247c-1.378-5.684.233-11.129 4.274-13.818l-1.036-1.583c-4.894 3.256-6.577 9.637-5.069 15.856l1.831-.455Zm4.274-13.818a9.83 9.83 0 0 1 4.001-1.535l-.276-1.877a11.734 11.734 0 0 0-4.761 1.829l1.036 1.583Z" />
  <path fill="#E2F5FA" stroke="#3790E0" stroke-miterlimit="10" stroke-width="1.892"
    d="M112.676 297.096v5.527l-67.61-.005v-5.526l67.61.004Z" />
  <path fill="#99DBED" stroke="#3790E0" stroke-miterlimit="10" stroke-width="1.892"
    d="M40.921 278.164h75.899v19.973H40.921v-19.973Z" />
  <path fill="#E2F5FA" d="M44.916 294.143v-11.984h67.91v11.984h-67.91Z" />
  <path fill="#3790E0"
    d="M105.258 289.574a1.22 1.22 0 1 1 0-2.44 1.22 1.22 0 0 1 0 2.44ZM100.835 289.574a1.22 1.22 0 1 1 0-2.439 1.22 1.22 0 0 1 0 2.439Z" />
  <path fill="#52AEE3" d="M94.547 291.099a2.745 2.745 0 1 1 0-5.49 2.745 2.745 0 0 1 0 5.49Z" />
  <path stroke="#3790E0" stroke-miterlimit="10" stroke-width="1.892"
    d="M56.9 278.878v-28.677M52.655 286.153h8.24" />
  <path stroke="#52AEE3" stroke-width="1.892"
    d="M66.74 250.871a11.212 11.212 0 0 0-13.744-10.568 11.212 11.212 0 0 0-5.641 3.249" />
  <path stroke="#52AEE3" stroke-width="1.892"
    d="M74.947 250.29a19.454 19.454 0 0 0-12.57-17.58 19.447 19.447 0 0 0-21.054 4.886" />
  <path stroke="#52AEE3" stroke-width="1.892" d="M82.58 250.011a27.335 27.335 0 0 0-47.256-17.84" />
  <mask id="c" fill="#fff">
    <path fill-rule="evenodd"
      d="M39.75 300.623c3.411-6.846 2.936-15.201-1.87-21.235a17.729 17.729 0 0 0-5.042-4.347c-3.41 6.846-2.935 15.201 1.87 21.234a17.732 17.732 0 0 0 5.042 4.348Z"
      clip-rule="evenodd" />
  </mask>
  <path fill="#52AEE3" fill-rule="evenodd"
    d="M39.75 300.623c3.411-6.846 2.936-15.201-1.87-21.235a17.729 17.729 0 0 0-5.042-4.347c-3.41 6.846-2.935 15.201 1.87 21.234a17.732 17.732 0 0 0 5.042 4.348Z"
    clip-rule="evenodd" />
  <path fill="#3790E0"
    d="m39.75 300.623 1.644.878-.882 1.77-1.667-.958.905-1.69Zm-6.912-25.582-1.644-.878.882-1.771 1.667.959-.905 1.69Zm5.268 24.704c3.099-6.22 2.635-13.731-1.656-19.119l2.861-2.475c5.32 6.679 5.807 15.877 2.083 23.35l-3.288-1.756Zm-1.656-19.119a15.886 15.886 0 0 0-4.517-3.895l1.81-3.38a19.577 19.577 0 0 1 5.568 4.8l-2.861 2.475Zm-1.968-4.707c-3.098 6.219-2.635 13.731 1.657 19.119l-2.862 2.475c-5.32-6.679-5.806-15.877-2.083-23.35l3.288 1.756Zm1.657 19.119a15.886 15.886 0 0 0 4.517 3.895l-1.811 3.38a19.59 19.59 0 0 1-5.568-4.8l2.862-2.475Z"
    mask="url(#c)" />
  <mask id="d" fill="#fff">
    <path fill-rule="evenodd"
      d="M12.882 294.776c4.537 4.939 11.18 6.797 17.044 4.127a14.426 14.426 0 0 0 4.603-3.345c-4.536-4.94-11.18-6.798-17.044-4.127a14.427 14.427 0 0 0-4.603 3.345Z"
      clip-rule="evenodd" />
  </mask>
  <path fill="#52AEE3" fill-rule="evenodd"
    d="M12.882 294.776c4.537 4.939 11.18 6.797 17.044 4.127a14.426 14.426 0 0 0 4.603-3.345c-4.536-4.94-11.18-6.798-17.044-4.127a14.427 14.427 0 0 0-4.603 3.345Z"
    clip-rule="evenodd" />
  <path fill="#3790E0"
    d="m12.882 294.776-1.361 1.367-1.208-1.315 1.266-1.365 1.303 1.313Zm21.647.782 1.361-1.367 1.208 1.315-1.266 1.365-1.303-1.313Zm-20.285-2.149c4.127 4.493 9.989 6.012 15.003 3.728l1.358 3.531c-6.713 3.058-14.138.86-19.084-4.525l2.723-2.734Zm15.003 3.728a12.462 12.462 0 0 0 3.978-2.892l2.607 2.626a16.39 16.39 0 0 1-5.227 3.797l-1.358-3.531Zm3.92-.212c-4.126-4.494-9.989-6.012-15.003-3.729l-1.358-3.53c6.713-3.058 14.139-.861 19.084 4.525l-2.723 2.734Zm-15.003-3.729a12.463 12.463 0 0 0-3.978 2.893l-2.607-2.626a16.375 16.375 0 0 1 5.227-3.797l1.358 3.53Z"
    mask="url(#d)" />
  <path stroke="#3790E0" stroke-linecap="square" stroke-linejoin="round" stroke-width="1.892"
    d="M51.515 302.608c-2.475 0-7.827.635-15.18-4.82-7.13-5.29-11.142-11.377-11.142-11.377" />
  <path fill="#52AEE3" fill-rule="evenodd"
    d="M16.298 269.873c-1.383 5.705.196 11.374 4.48 14.224a10.343 10.343 0 0 0 4.2 1.612c1.382-5.705-.196-11.374-4.48-14.224a10.343 10.343 0 0 0-4.2-1.612Z"
    clip-rule="evenodd" />
  <path fill="#3790E0"
    d="m16.298 269.873-.915-.228.203-.84.85.129-.138.939Zm8.68 15.836.915.228-.204.84-.85-.129.138-.939ZM17.213 270.1c-1.318 5.438.224 10.639 4.081 13.205l-1.036 1.583c-4.71-3.133-6.325-9.27-4.876-15.243l1.831.455Zm4.081 13.205a9.399 9.399 0 0 0 3.82 1.466l-.276 1.877a11.29 11.29 0 0 1-4.58-1.76l1.036-1.583Zm2.766 2.177c1.319-5.438-.224-10.639-4.08-13.205l1.035-1.583c4.71 3.133 6.325 9.27 4.877 15.243l-1.832-.455Zm-4.08-13.205a9.399 9.399 0 0 0-3.82-1.466l.275-1.877a11.29 11.29 0 0 1 4.58 1.76l-1.036 1.583Z" />
  <g clip-path="url(#e)">
    <path fill="url(#f)"
      d="m379.462 244.143 2.498 160.27-1.192.019-2.498-160.27 1.192-.019Zm-17.665 159.404 1.187.107 14.278-159.63-1.188-.107-14.277 159.63Zm12.118-160.105-30.894 157.242 1.169.23 30.894-157.242-1.169-.23Zm-2.098-.697-47.172 153.13 1.139.352 47.172-153.131-1.139-.351Zm-2.013-.912-62.935 147.342 1.097.468 62.935-147.341-1.097-.469Zm-1.909-1.116L289.89 380.654l1.041.58 78.006-139.938-1.042-.579Zm-1.779-1.311-92.225 131.001.975.687 92.225-131.002-.975-.686Zm-1.634-1.49L259.049 358.545l.897.785 105.432-120.629-.896-.785Zm-1.472-1.65L245.526 345.202l.811.874L363.821 237.14l-.811-.874Zm-1.288-1.796-128.249 96.048.715.955 128.249-96.048-.715-.955Zm-1.095-1.921-137.607 82.11.61 1.024 137.609-82.109-.612-1.025Zm-.888-2.024-145.46 67.27.501 1.083 145.46-67.27-.501-1.083Zm-.67-2.106L207.35 280.114l.383 1.129 151.719-51.695-.383-1.129Zm-.448-2.161-156.315 35.55.266 1.163 156.315-35.551-.266-1.162Zm-.221-2.199L199.202 243.08l.142 1.183 159.198-19.021-.142-1.183Zm.014-2.208-160.339 2.279.017 1.192 160.338-2.279-.016-1.192Zm.242-2.196-159.72-14.485-.107 1.188 159.719 14.484.108-1.187Zm.472-2.156-157.354-31.092-.23 1.169 157.354 31.092.23-1.169Zm.693-2.097-153.262-47.358-.351 1.138 153.261 47.358.352-1.138Zm.909-2.011-147.49-63.105-.469 1.097 147.491 63.105.468-1.097Zm1.114-1.906-140.103-78.161-.58 1.041 140.104 78.161.579-1.041Zm1.319-2.298L251.182 130.32l-.687.975 111.982 78.868.686-.976Zm1.485-1.63-111.279-97.269-.784.899 111.28 97.269.783-.899Zm.776-.656.873-.811-72.294-77.952-.873.811 72.294 77.952Zm2.667-2.097L273.396 78.427l-.955.715 94.696 126.378.954-.716Zm1.917-1.093-68.039-113.93-1.024.614 68.038 113.929 1.025-.613Zm2.02-.884L322.54 95.954l-1.082.501 49.488 106.872 1.082-.5Zm.973-.284 1.129-.384-33.804-99.026-1.129.384 33.804 99.026Zm3.29-.831L338.013 33.92l-1.162.266 38.278 167.792 1.162-.266ZM361.593 60.923l-1.183.142 16.893 140.573 1.183-.142-16.893-140.573Zm19.099 140.586-1.508-101.001-1.192.02 1.508 101 1.192-.019Zm16.438 33.199 140.105 78.161.58-1.041-140.105-78.161-.58 1.041Zm-1.308 1.778 131.184 92.361.687-.975-131.184-92.361-.687.975Zm-1.487 1.633L515.16 343.666l.784-.899L395.119 237.22l-.784.899Zm-1.65 1.464 109.144 117.58.873-.811-109.145-117.58-.872.811Zm-1.795 1.288 96.264 128.321.955-.716-96.265-128.32-.954.715Zm-1.918 1.092 82.33 137.656 1.022-.613-82.331-137.655-1.021.612Zm-2.025.885 67.496 145.487 1.08-.503-67.496-145.487-1.08.503Zm-2.104.668 51.922 151.721 1.126-.386L385.97 243.13l-1.127.386Zm-2.165.445 35.779 156.292 1.162-.266-35.778-156.292-1.163.266Zm-2.198.216 19.244 159.153 1.183-.142-19.244-159.153-1.183.142Zm14.401-175.69-1.188-.107-11.994 133.266 1.187.107 11.995-133.266Zm-9.841 133.737 34.143-173.362-1.17-.23-34.142 173.362 1.169.23Zm.956.344 1.139.352 32.639-105.836-1.139-.352-32.639 105.836Zm3.15 1.262 54.842-128.341-1.097-.47-54.842 128.342 1.097.469Zm1.902 1.115 77.976-139.88-1.041-.58-77.976 139.88 1.041.58Zm1.207.728.975.687 43.404-61.661-.975-.687-43.404 61.661Zm66.948-71.462-.896-.785-64.343 73.635.896.785 64.343-73.635Zm-.172 17.124-.811-.872-62.705 58.159.811.873 62.705-58.16Zm-61.417 59.954 89.632-67.155-.715-.955-89.632 67.154.715.956Zm1.092 1.918 137.419-82.04-.61-1.025-137.419 82.041.61 1.024Zm.887 2.022 145.256-67.222-.501-1.083-145.256 67.222.501 1.083Zm.669 2.101 151.501-51.665-.384-1.13-151.501 51.666.384 1.129Zm.447 2.161 156.087-35.545-.266-1.163-156.086 35.545.265 1.163Zm.218 2.196 158.963-19.034-.142-1.183-158.963 19.034.142 1.183Zm-.013 2.204 160.096-2.312-.016-1.193-160.097 2.313.017 1.192Zm-.242 2.193 159.475 14.433.107-1.188-159.475-14.433-.107 1.188Zm-.471 2.155 157.109 31.018.23-1.168-157.109-31.019-.23 1.169Zm-.694 2.094 153.02 47.265.352-1.139-153.02-47.265-.352 1.139Zm-.907 2.009 147.253 62.993.468-1.097-147.252-62.993-.469 1.097Z" />
  </g>
  <mask id="g" width="310" height="173" x="224.545" y="135.678" fill="#000"
    maskUnits="userSpaceOnUse">
    <path fill="#fff" d="M224.545 135.678h310v173h-310z" />
    <path fill-rule="evenodd"
      d="M498.659 151.122v141.036h29.9c.047-.003.094-.004.141-.003a1.87 1.87 0 0 1 1.839 1.734v6.138c-.006 2.649-9.232 4.428-22.957 4.428H251.5c-10.625 0-21.372-1.389-22.795-4.052-.105-.197-.16-.4-.16-.611v-5.903a1.868 1.868 0 0 1 1.973-1.731H260.131V151.122a11.503 11.503 0 0 1 11.537-11.443h215.454a11.504 11.504 0 0 1 11.537 11.443Zm30.531 148.862-.005-6.095v-.011c-.007-.176-.276-.37-.626-.37l-298.036.004c-.357 0-.624.199-.624.377v5.903a.331.331 0 0 0 .059.128c.71 1.008 7.445 3.179 21.541 3.179h256.083c15.6 0 21.298-2.281 21.608-3.115Zm-.005-6.106c-.011-.175-.276-.366-.626-.366H230.525c-.358 0-.624.199-.624.377v5.905c.007.04.026.082.057.126"
      clip-rule="evenodd" />
  </mask>
  <path fill="#3790E0" fill-rule="evenodd"
    d="M498.659 151.122v141.036h29.9c.047-.003.094-.004.141-.003a1.87 1.87 0 0 1 1.839 1.734v6.138c-.006 2.649-9.232 4.428-22.957 4.428H251.5c-10.625 0-21.372-1.389-22.795-4.052-.105-.197-.16-.4-.16-.611v-5.903a1.868 1.868 0 0 1 1.973-1.731H260.131V151.122a11.503 11.503 0 0 1 11.537-11.443h215.454a11.504 11.504 0 0 1 11.537 11.443Zm30.531 148.862-.005-6.095v-.011c-.007-.176-.276-.37-.626-.37l-298.036.004c-.357 0-.624.199-.624.377v5.903a.331.331 0 0 0 .059.128c.71 1.008 7.445 3.179 21.541 3.179h256.083c15.6 0 21.298-2.281 21.608-3.115Zm-.005-6.106c-.011-.175-.276-.366-.626-.366H230.525c-.358 0-.624.199-.624.377v5.905c.007.04.026.082.057.126"
    clip-rule="evenodd" />
  <path fill="#1D1F20"
    d="m229.996 301.812 299.227-6.043-.076-3.782-299.227 6.042.076 3.783Zm268.663-9.654h-3.784v3.783h3.784v-3.783Zm0-141.036h3.783v-.02l-3.783.02Zm29.9 141.036v3.783h.114l.113-.007-.227-3.776Zm.141-.003-.058 3.783h.005l.053-3.783Zm1.205.462 2.491-2.848h-.001l-2.49 2.848Zm.634 1.272h3.783v-.137l-.01-.136-3.773.273Zm0 6.138 3.783.008v-.008h-3.783Zm-301.834.376 3.337-1.783-.003-.006-3.334 1.789Zm-.16-6.514-3.774-.271-.009.136v.135h3.783Zm.633-1.272-2.491-2.847 2.491 2.847Zm.98-.446-.508-3.749.508 3.749Zm.36-.013.222-3.777h-.003l-.219 3.777Zm.007 0-.223 3.777.111.006h.112v-3.783Zm29.606 0v3.783h3.783v-3.783h-3.783Zm0-141.036-3.783-.02v.02h3.783Zm3.403-8.107 2.664 2.686-2.664-2.686Zm8.134-3.336-.011 3.783h.011v-3.783Zm215.454 0v3.783h.01l-.01-3.783Zm8.134 3.336-2.664 2.686 2.664-2.686Zm33.929 150.874 3.783-.003v-.096l-.005-.097-3.778.196Zm.005 6.095 3.545 1.322.239-.641v-.684l-3.784.003Zm-.005-6.099h-3.783v.098l.005.098 3.778-.196Zm0-.007 3.78-.142v-.014l-3.78.156Zm-.626-.37v-3.783 3.783Zm-298.036.004v3.783-3.783Zm-.624 6.28h-3.783v.363l.069.357 3.714-.72Zm.059.128-3.093 2.179 3.093-2.179Zm-.057-.126h-3.784v.361l.068.354 3.716-.715Zm272.541-7.636V151.122h-7.567v141.036h7.567Zm-3.783 3.783h29.9v-7.566h-29.9v7.566Zm30.099-7.569a5.53 5.53 0 0 0-.426.01l.454 7.552a2.307 2.307 0 0 1-.144.004l.116-7.566Zm-.111 7.566a1.92 1.92 0 0 1-1.232-.473l4.98-5.696a5.654 5.654 0 0 0-3.642-1.397l-.106 7.566Zm-1.233-.473a1.913 1.913 0 0 1-.648-1.302l7.546-.547a5.652 5.652 0 0 0-1.916-3.847l-4.982 5.696Zm-.658-1.576v6.138h7.566v-6.138h-7.566Zm0 6.129c.004-1.721 1.401-2.05.434-1.566-.628.313-1.821.705-3.701 1.068-3.694.712-9.167 1.152-15.907 1.152v7.566c6.986 0 12.988-.449 17.34-1.289 2.142-.413 4.115-.963 5.648-1.728 1.192-.595 3.745-2.14 3.752-5.186l-7.566-.017Zm-19.174.654H251.5v7.566h256.082v-7.566Zm-256.082 0c-5.177 0-10.307-.34-14.242-.979-1.982-.321-3.527-.697-4.58-1.084-.527-.194-.824-.352-.96-.44-.166-.108.085.005.324.451l-6.674 3.566c.595 1.112 1.493 1.851 2.228 2.328.767.498 1.625.886 2.472 1.197 1.694.622 3.767 1.093 5.978 1.451 4.45.722 10.006 1.076 15.454 1.076v-7.566Zm-26.738-.88c0 .895.238 1.708.609 2.4l6.668-3.578c.16.299.289.705.289 1.178h-7.566Zm0-5.903v5.903h7.566v-5.903h-7.566Zm1.925-4.119a5.65 5.65 0 0 0-1.916 3.848l7.547.543a1.916 1.916 0 0 1-.648 1.303l-4.983-5.694Zm2.963-1.348a5.65 5.65 0 0 0-2.963 1.348l4.983 5.694a1.918 1.918 0 0 1-1.004.456l-1.016-7.498Zm1.087-.041a5.711 5.711 0 0 0-1.087.041l1.016 7.498a1.809 1.809 0 0 1-.368.014l.439-7.553Zm-.442 7.553.067.004h.021l.002.001-.005-.001h-.015a1.936 1.936 0 0 0-.063-.003l.445-7.554-.066-.003-.017-.001h-.007.005l.015.001.063.003-.445 7.553Zm.23.007h29.606v-7.566h-29.606v7.566Zm25.823-144.819v141.036h7.566V151.122h-7.566Zm4.522-10.793a15.291 15.291 0 0 0-4.522 10.773l7.566.04a7.726 7.726 0 0 1 2.284-5.441l-5.328-5.372Zm10.808-4.434a15.29 15.29 0 0 0-10.808 4.434l5.328 5.372a7.72 7.72 0 0 1 5.459-2.239l.021-7.567Zm215.444 0H271.668v7.567h215.454v-7.567Zm10.798 4.434a15.292 15.292 0 0 0-10.809-4.434l.021 7.567a7.72 7.72 0 0 1 5.46 2.239l5.328-5.372Zm4.522 10.773a15.291 15.291 0 0 0-4.522-10.773l-5.328 5.372a7.72 7.72 0 0 1 2.283 5.441l7.567-.04Zm22.96 142.791.005 6.094 7.567-.006-.006-6.095-7.566.007Zm.005.188v.004l7.556-.392v-.004l-7.556.392Zm-.003-.061a3.945 3.945 0 0 1-.002-.135h7.566c0-.065-.001-.117-.003-.149l-7.561.284Zm3.155 3.271a2.95 2.95 0 0 1-1.576-.464 3.275 3.275 0 0 1-.895-.837 3.53 3.53 0 0 1-.683-1.956l7.56-.312c-.078-1.892-1.37-2.932-1.947-3.295a4.619 4.619 0 0 0-2.459-.702v7.566Zm-298.036.004 298.036-.004v-7.566l-298.036.004v7.566Zm3.159-3.406a3.463 3.463 0 0 1-1.551 2.922 2.96 2.96 0 0 1-1.608.484v-7.566a4.61 4.61 0 0 0-2.5.728c-.593.383-1.907 1.482-1.907 3.432h7.566Zm0 5.903v-5.903h-7.566v5.903h7.566Zm-.631-2.05c.179.253.44.702.562 1.331l-7.428 1.439c.137.709.438 1.243.68 1.587l6.186-4.357Zm18.448 1.574c-6.866 0-11.832-.53-15.087-1.146-1.635-.309-2.776-.629-3.481-.884a4.367 4.367 0 0 1-.58-.245c-.163-.09.28.104.7.701l-6.186 4.357c.598.848 1.406 1.331 1.803 1.552.512.285 1.088.532 1.683.747 1.198.435 2.755.847 4.655 1.207 3.814.721 9.263 1.277 16.493 1.277v-7.566Zm256.083 0H251.499v7.566h256.083v-7.566Zm18.064-.654a3.287 3.287 0 0 1 .749-1.183c.171-.17.304-.26.338-.282.065-.043.004.006-.27.116-.532.215-1.515.521-3.077.83-3.104.613-8.17 1.173-15.804 1.173v7.566c7.966 0 13.549-.581 17.271-1.317 1.852-.365 3.326-.786 4.438-1.234a9.063 9.063 0 0 0 1.601-.814c.298-.196 1.35-.889 1.843-2.211l-7.089-2.644Zm2.913-1.367c-.49 0-1.039-.129-1.566-.458a3.45 3.45 0 0 1-1.584-2.719l7.551-.48c-.116-1.836-1.365-2.847-1.954-3.216a4.62 4.62 0 0 0-2.447-.693v7.566Zm-298.034 0h298.034v-7.566H230.525v7.566Zm3.159-3.406a3.463 3.463 0 0 1-1.551 2.922 2.962 2.962 0 0 1-1.608.484v-7.566c-.857 0-1.736.234-2.501.728-.592.383-1.907 1.482-1.907 3.432h7.567Zm0 5.905v-5.905h-7.567v5.905h7.567Zm-.622-2.037c.178.255.434.702.554 1.323l-7.431 1.429c.135.7.43 1.231.669 1.574l6.208-4.326Z"
    mask="url(#g)" />
  <path fill="#99DBED" stroke="#3790E0" stroke-width="1.892"
    d="M142.997 293.293h102.305v-14.456H142.997v14.456ZM152.407 278.837h90.674v-5.657h-90.674v5.657Z" />
  <path fill="#52AEE3" stroke="#3790E0" stroke-width="1.892"
    d="M146.179 302.093h88.525v-8.8h-88.525v8.8Z" />
  <path fill="#52AEE3"
    d="M213.508 285.753c0 2.114-1.425 3.769-3.076 3.769h-39.981c-1.726 0-3.076-1.746-3.076-3.769 0-2.115 1.425-3.77 3.076-3.77h39.981c1.651-.091 3.076 1.655 3.076 3.77Z" />
  <path fill="#AFE3F1" stroke="#3790E0" stroke-width="1.892"
    d="M152.407 278.837h5.611v14.456h-5.611zM179.22 273.18h5.611v5.657h-5.611zM229.093 273.18h5.611v5.657h-5.611z" />
  <path fill="#99DBED" fill-rule="evenodd"
    d="M486.008 140.353H270.552a10.893 10.893 0 0 0-10.86 10.766v141.716h237.174V151.122a10.886 10.886 0 0 0-10.858-10.769Z"
    clip-rule="evenodd" />
  <path fill="#E2F5FA" d="M486.831 157.294H269.172v126.845h217.659V157.294Z" />
  <path fill="#99DBED" fill-rule="evenodd"
    d="M507.126 303.766H251.04c-13.312 0-22.277-2.041-22.277-3.983v-5.906a1.193 1.193 0 0 1 1.3-1.054H528.1a1.198 1.198 0 0 1 1.303 1.054v6.138c0 1.538-6.947 3.751-22.277 3.751Z"
    clip-rule="evenodd" />
  <path fill="#52AEE3" fill-rule="evenodd"
    d="M528.508 300.015c0 1.536-6.946 3.751-22.277 3.751H250.145c-13.312 0-22.277-2.041-22.277-3.983l300.64.232Z"
    clip-rule="evenodd" />
  <path fill="#3790E0" fill-rule="evenodd"
    d="M410.844 293.257v1.342c0 .956-1.882 1.244-3.307 1.244h-58.456c-1.499 0-3.394-.288-3.394-1.244v-1.342"
    clip-rule="evenodd" />
  <path fill="#3790E0" stroke="#3790E0" stroke-width=".631"
    d="M507.169 304.455H251.087c-11.407 0-22.954-1.601-22.954-4.66v-5.906a1.868 1.868 0 0 1 1.978-1.731h298.035a1.872 1.872 0 0 1 1.98 1.731v6.138c-.006 2.649-9.232 4.428-22.957 4.428ZM230.11 293.512c-.358 0-.624.199-.624.377v5.904c.181.937 6.874 3.306 21.6 3.306h256.083c15.6 0 21.297-2.281 21.608-3.115l-.005-6.099c0-.178-.271-.377-.626-.377l-298.036.004Z" />
  <path fill="#3790E0" stroke="#3790E0" stroke-width=".631"
    d="M528.146 292.158h-29.9V151.122a11.508 11.508 0 0 0-11.537-11.443H271.255a11.502 11.502 0 0 0-11.537 11.443v141.036H230.11a1.871 1.871 0 0 0-1.978 1.731v5.904c0 3.059 11.548 4.66 22.954 4.66h256.083c13.725 0 22.951-1.779 22.955-4.428v-6.138a1.875 1.875 0 0 0-.634-1.27 1.876 1.876 0 0 0-1.344-.459ZM261.072 151.122a10.273 10.273 0 0 1 10.183-10.089h215.459a10.15 10.15 0 0 1 10.182 10.089v141.036H261.072V151.122Zm246.097 151.979H251.087c-14.727 0-21.419-2.37-21.6-3.306v-5.906c0-.178.267-.377.625-.377h298.034c.358 0 .626.199.626.377l.005 6.1c-.31.831-6.008 3.112-21.608 3.112Z" />
  <path fill="#3790E0" fill-rule="evenodd"
    d="M567.719 186.364c25.735 6.895 41.012 33.152 34.173 58.679-6.833 25.498-33.221 40.591-58.926 33.703a49.219 49.219 0 0 1-4.848-1.569l3.197-4.248c.445.149.917.305 1.39.462l.646-2.41c-.592-.278-.97-.56-.903-.812a85.08 85.08 0 0 0 5.254 1.408c-.067.252-.536.306-1.187.252l-.646 2.41c22.485 5.124 45.146-8.265 51.108-30.513 5.968-22.276-6.963-45.202-29.005-51.979l-.645 2.41c.591.278.97.56.902.812a56.97 56.97 0 0 0-5.254-1.408c.068-.252.536-.306 1.188-.252l.646-2.41c-1.194-.289-2.382-.488-3.578-.658l-.631-5.214c2.357.241 4.747.701 7.119 1.337Z"
    clip-rule="evenodd" />
  <path fill="#3790E0" fill-rule="evenodd"
    d="M568.288 295.683c3.237.653 13.732 1.164 14.541 6.559h-54.524c.809-5.395 11.304-5.934 14.542-6.559 5.492-5.281 8.702-10.534 9.627-15.787 1.012.057 2.052.113 3.093.113s2.082-.028 3.093-.113c.926 5.253 4.135 10.506 9.628 15.787Z"
    clip-rule="evenodd" />
  <path fill="#E2F5FA"
    d="m517.845 222.619 17.597 4.715c1.809-6.755 4.46-13.093 7.714-18.127l-15.108-4.048c-4.854 4.605-8.346 10.528-10.203 17.46ZM535.44 227.334l-17.597-4.715c-1.809 6.754-1.794 13.807-.071 20.175l15.108 4.048c.073-1.695.016-3.615.09-5.31.479-4.635 1.137-9.221 2.47-14.198Z" />
  <path fill="#E2F5FA"
    d="m528.048 205.159 15.109 4.048c6.555-10.245 15.002-16.174 22.467-14.174-13.864-3.714-27.951.512-37.576 10.126ZM533.106 246.711l-15.108-4.048c3.576 12.96 13.615 23.842 27.657 27.605-7.513-1.823-12.09-11.051-12.549-23.557Z" />
  <path fill="#AFE3F1"
    d="m535.441 227.334 20.263 5.43 5.049-18.841-17.419-4.668c-3.254 5.034-6.035 11.147-7.893 18.079Z" />
  <path fill="#AFE3F1"
    d="m555.704 232.763-20.263-5.429c-1.286 4.799-2.216 9.693-2.471 14.197-.12 1.873-.063 3.793-.089 5.31l17.597 4.715 5.048-18.841.178.048Z" />
  <path fill="#AFE3F1"
    d="m550.703 251.427-17.419-4.668c.554 12.151 4.905 21.508 12.371 23.509l5.048-18.841Z" />
  <path fill="#AFE3F1" stroke="#3790E0" stroke-width="2.009"
    d="M565.801 195.081c-7.466-2-15.912 3.928-22.468 14.174l17.419 4.667 5.049-18.841Z" />
  <path fill="#99DBED"
    d="m550.703 251.427-5.048 18.841c7.465 2 15.912-3.928 22.467-14.174l-17.419-4.667Z" />
  <path fill="#99DBED"
    d="m555.704 232.764-5.049 18.841 17.419 4.667c3.254-5.034 5.905-11.372 7.715-18.126l-20.085-5.382ZM560.753 213.922l-5.049 18.842 20.263 5.429c1.81-6.754 2.683-13.569 2.382-19.555l-17.596-4.716ZM565.802 195.081l-5.049 18.841 17.419 4.667c-.507-12.328-4.905-21.508-12.37-23.508Z" />
  <path fill="#99DBED"
    d="M565.802 195.081c7.465 2 11.816 11.358 12.37 23.509l15.109 4.048c-3.351-13.09-13.615-23.842-27.479-27.557ZM568.122 256.094c-6.555 10.245-15.002 16.174-22.467 14.174 14.041 3.762 28.176-.642 37.753-10.078l-15.286-4.096Z" />
  <path fill="#99DBED"
    d="m568.122 256.094 15.109 4.048c4.853-4.605 8.215-10.753 10.025-17.508l-17.597-4.715c-1.727 7.158-4.331 13.318-7.537 18.175Z" />
  <path fill="#99DBED"
    d="m593.28 222.638-15.108-4.048c.301 5.986-.573 12.801-2.383 19.555l17.597 4.715c1.858-6.932 1.795-13.807-.106-20.222Z" />
  <path stroke="#3790E0" stroke-miterlimit="10" stroke-width="2.009"
    d="M517.845 222.619c-1.81 6.754-1.795 13.807-.072 20.174 3.576 12.961 13.615 23.842 27.657 27.605 14.042 3.762 28.176-.642 37.753-10.078 4.854-4.605 8.216-10.753 10.026-17.507 1.81-6.755 1.794-13.808.071-20.175-3.576-12.96-13.614-23.842-27.656-27.604-14.042-3.763-28.177.642-37.754 10.077-4.676 4.653-8.168 10.576-10.025 17.508Z" />
  <path stroke="#3790E0" stroke-miterlimit="10" stroke-width="2.009"
    d="M533.149 241.579c-.121 1.872-.064 3.793-.09 5.31.555 12.15 4.906 21.508 12.371 23.508 7.465 2.001 15.912-3.928 22.467-14.173 3.254-5.034 5.905-11.373 7.715-18.127 1.81-6.754 2.683-13.569 2.382-19.555-.554-12.151-4.905-21.508-12.37-23.509-7.466-2-15.912 3.928-22.468 14.174-3.254 5.034-5.905 11.372-7.714 18.126-1.334 4.977-1.991 9.564-2.293 14.246Z" />
  <path stroke="#3790E0" stroke-miterlimit="10" stroke-width="2.009"
    d="m593.387 242.86-17.597-4.715-20.085-5.382-20.263-5.43-17.597-4.715" />
  <path stroke="#3790E0" stroke-miterlimit="10" stroke-width="2.009"
    d="m565.801 195.081-5.049 18.841-5.048 18.841-5.001 18.664-5.048 18.841" />
  <path stroke="#3790E0" stroke-miterlimit="10" stroke-width="2.009"
    d="m593.28 222.638-15.108-4.048-17.419-4.667-17.597-4.715-15.108-4.049M583.231 260.142l-15.108-4.048-17.419-4.668-17.597-4.715-15.108-4.048" />
  <path fill="#99DBED" stroke="#3790E0" stroke-width="1.892"
    d="M633.896 214.666v87.066h13.53v-87.066h-13.53Z" />
  <path fill="#52AEE3" stroke="#3790E0" stroke-width="1.892"
    d="M620.365 220.549v81.183h13.531v-81.183h-13.531Z" />
  <path fill="#99DBED" stroke="#3790E0" stroke-width="1.892"
    d="M603.306 204.077v97.655h17.06v-97.655h-17.06Z" />
  <path fill="#52AEE3" stroke="#3790E0" stroke-width="1.892"
    d="M647.427 242.904v58.828h10.589v-58.828h-10.589Z" />
  <path fill="#AFE3F1" stroke="#3790E0" stroke-width="1.892"
    d="M620.366 223.49h-17.06v12.184h17.06V223.49ZM620.366 269.965h-17.06v12.354h17.06v-12.354Z" />
  <path fill="#52AEE3"
    d="M640.954 289.378c-1.979 0-3.528-1.926-3.528-4.157v-54.044c0-2.332 1.635-4.157 3.528-4.157 1.979 0 3.528 1.927 3.528 4.157v54.044c.086 2.231-1.549 4.157-3.528 4.157Z" />
  <path fill="#99DBED" stroke="#3790E0" stroke-width="1.892"
    d="M628.155 289.966h-2.637c-1.191 0-2.211-1.211-2.211-2.624v-18.871c0-1.413 1.02-2.624 2.211-2.624h2.637c1.19 0 2.211 1.211 2.211 2.624v18.871c0 1.514-1.021 2.624-2.211 2.624Z" />
  <path fill="#E2F5FA" stroke="#3790E0" stroke-width="1.892"
    d="M239.854 222.627v.004c.062 1.746-.514 3.831-1.491 6.037-.969 2.19-2.296 4.418-3.646 6.427a73.401 73.401 0 0 1-5.149 6.741h-27.275l-.185-.216a73.07 73.07 0 0 1-4.963-6.525c-1.35-2.009-2.677-4.237-3.646-6.427-.977-2.206-1.553-4.291-1.491-6.037.076-2.111.99-7.324 2.353-14.066 1.356-6.702 3.135-14.816 4.905-22.659a2523.263 2523.263 0 0 1 6.438-27.746l.428-1.797h19.598l.43 1.798a2606.683 2606.683 0 0 1 6.451 27.745c1.772 7.843 3.552 15.957 4.906 22.659 1.362 6.743 2.271 11.954 2.337 14.062Z" />
  <path fill="#FBAD41"
    d="M216.86 232.307c.08 2.905-.395 5.512-1.82 7.076-.514.559-1.147.968-1.938 1.266a5.41 5.41 0 0 1-1.702.261c-13.295-.224 5.737-5.363-7.478-15.566-4.59-3.501-17.093-10.539-3.719-23.499 5.262-5.102 15.668-4.283 17.291.224 2.374 6.665-.673 10.725-1.623 14.598-2.057 8.453.989 14.188.989 15.64Z" />
  <path fill="#F63"
    d="M207.442 186.799a4.074 4.074 0 0 1-.633-.744c-5.223-8.044-4.787-19.551 6.41-27.707.792-.67 3.878-1.192 5.5-.447.079.037.119.075.198.075 14.205 5.213 1.464 18.322-5.183 27.706-1.543 2.197-4.471 2.756-6.292 1.155.04 0 0-.038 0-.038Z" />
  <path fill="#FBAD41"
    d="M232.846 212.606c.158.186.316.373.475.596 3.917 6.405 3.6 14.822-4.788 19.812-.594.409-2.889.521-4.115-.149a.314.314 0 0 0-.158-.075c-10.605-5.139-1.108-13.63 3.838-19.923 1.147-1.452 3.363-1.601 4.669-.298.039 0 .079 0 .079.037Z" />
  <path fill="#FD8639"
    d="M225.327 180.916c3.522.633 4.788 4.841 4.828 4.915.712 5.102-.713 6.033-7.122 12.178-4.392 4.208-5.461 8.9-8.428 10.799-3.838 2.496-10.209 2.309-7.795-3.128.91-2.271 10.96-7.299 11.672-9.57.792-2.607-4.59-3.575-2.651-10.502.515-1.937 3.957-5.698 9.496-4.692ZM230.353 210.336c-1.345.112-3.719-1.601-3.798-1.676-1.939-1.638-1.346-4.134 1.305-5.4.792-.335 2.374-.745 2.928-.409 1.939 1.042.989 2.867 1.82 4.319.159.261.752 2.942-2.255 3.166Z" />
  <path fill="#99DBED" stroke="#3790E0" stroke-width="1.892"
    d="M223.971 154.9h1.394l1.806 7.618H204.69l1.806-7.618H223.971ZM237.932 272.586h-43.816l2.84-7.547.003-.007.003-.008 7.523-21.078.149-.418-.227-.383-4.612-7.769h32.458l-4.612 7.769-.227.383.149.418 7.523 21.078.003.008.003.007 2.84 7.547Z" />
  <path fill="#99DBED" stroke="#3790E0" stroke-width="1.892"
    d="m234.578 235.152-6.247 8.759h-24.589l-6.578-8.759h37.414Z" />
  <path fill="#99DBED" fill-rule="evenodd"
    d="M685.756 301.673h13.994l-.79-3.542c7.982-4.601 13.355-13.22 13.355-23.095 0-11.398-7.158-21.123-17.225-24.926l.691-7.742h-20.627l.813 7.857c-9.908 3.882-16.925 13.527-16.925 24.811 0 9.874 5.373 18.494 13.354 23.094l-.79 3.543H685.756Z"
    clip-rule="evenodd" />
  <path fill="#3790E0"
    d="M699.75 301.673v.945h1.18l-.257-1.151-.923.206Zm-13.994 0v-.946h-.002l.002.946Zm13.204-3.542-.472-.82-.602.347.151.679.923-.206Zm-3.87-48.021-.942-.084-.063.715.671.254.334-.885Zm.691-7.742.942.084.092-1.029h-1.034v.945Zm-20.627 0v-.945h-1.049l.108 1.043.941-.098Zm.813 7.857.345.881.67-.262-.074-.716-.941.097Zm-3.571 47.905.923.206.152-.678-.602-.347-.473.819Zm-.79 3.543-.923-.206-.257 1.151h1.18v-.945Zm13.995 0 .003-.946h-.003v.946Zm14.149-.946h-13.994v1.891h13.994v-1.891Zm-1.713-2.39.79 3.542 1.846-.412-.79-3.542-1.846.412Zm13.333-23.301c0 9.523-5.181 17.837-12.882 22.275l.944 1.639c8.263-4.762 13.829-13.688 13.829-23.914h-1.891Zm-16.614-24.041c9.711 3.668 16.614 13.05 16.614 24.041h1.891c0-11.804-7.414-21.874-17.836-25.811l-.669 1.77Zm.083-8.711-.691 7.742 1.884.168.691-7.742-1.884-.168Zm-19.685 1.03h20.627v-1.891h-20.627v1.891Zm1.754 6.814-.813-7.857-1.882.195.813 7.857 1.882-.195Zm-16.92 24.908c0-10.882 6.766-20.186 16.324-23.93l-.69-1.761c-10.259 4.018-17.526 14.005-17.526 25.691h1.892Zm12.881 22.275c-7.701-4.439-12.881-12.753-12.881-22.275h-1.892c0 10.226 5.565 19.151 13.828 23.913l.945-1.638Zm-.34 4.568.79-3.543-1.846-.412-.79 3.543 1.846.412Zm13.072-1.152h-13.995v1.891h13.995v-1.891Zm.078 0h-.075l-.006 1.891.081.001v-1.892Zm.075 0h-.075v1.892l.08-.001-.005-1.891Z" />
  <path stroke="#3790E0" stroke-width="1.892"
    d="M692.213 301.421v-82.243c0-4.362 1.822-8.527 5.026-11.488M678.643 301.673v-73.902a45.888 45.888 0 0 0-6.534-23.598" />
  <path stroke="#3790E0" stroke-width="1.892"
    d="M687.689 301.17v-92.445a70.446 70.446 0 0 0-20.605-49.785" />
  <path stroke="#3790E0" stroke-width="1.892"
    d="M683.166 301.422v-88.177a70.432 70.432 0 0 1 20.606-49.781" />
  <mask id="h" fill="#fff">
    <path fill-rule="evenodd"
      d="M696.126 170.586c-1.367-4.224-.233-9.046 3.283-12.206a11.554 11.554 0 0 1 3.487-2.163 11.602 11.602 0 0 1-3.282 12.206 11.57 11.57 0 0 1-3.488 2.163Z"
      clip-rule="evenodd" />
  </mask>
  <path fill="#FBAD41" fill-rule="evenodd"
    d="M696.126 170.586c-1.367-4.224-.233-9.046 3.283-12.206a11.554 11.554 0 0 1 3.487-2.163 11.602 11.602 0 0 1-3.282 12.206 11.57 11.57 0 0 1-3.488 2.163Z"
    clip-rule="evenodd" />
  <path fill="#F63"
    d="m696.126 170.586-1.799.583.62 1.917 1.875-.741-.696-1.759Zm6.77-14.369 1.8-.582-.621-1.918-1.874.741.695 1.759Zm-4.97 13.787a9.71 9.71 0 0 1 2.747-10.217l-2.529-2.814c-4.091 3.678-5.406 9.286-3.817 14.196l3.599-1.165Zm2.747-10.217a9.695 9.695 0 0 1 2.919-1.811l-1.391-3.518a13.474 13.474 0 0 0-4.057 2.515l2.529 2.814Zm.424-2.987a9.711 9.711 0 0 1-2.748 10.216l2.529 2.814c4.091-3.677 5.407-9.286 3.818-14.195l-3.599 1.165Zm-2.748 10.216a9.67 9.67 0 0 1-2.918 1.811l1.391 3.518a13.45 13.45 0 0 0 4.056-2.515l-2.529-2.814Z"
    mask="url(#h)" />
  <mask id="i" fill="#fff">
    <path fill-rule="evenodd"
      d="M696.277 170.658c1.85-4.036 5.947-6.821 10.674-6.771 1.42.015 2.779.285 4.032.766-1.851 4.036-5.947 6.821-10.674 6.771a11.572 11.572 0 0 1-4.032-.766Z"
      clip-rule="evenodd" />
  </mask>
  <path fill="#FBAD41" fill-rule="evenodd"
    d="M696.277 170.658c1.85-4.036 5.947-6.821 10.674-6.771 1.42.015 2.779.285 4.032.766-1.851 4.036-5.947 6.821-10.674 6.771a11.572 11.572 0 0 1-4.032-.766Z"
    clip-rule="evenodd" />
  <path fill="#F63"
    d="m696.277 170.658-1.719-.788-.84 1.832 1.882.722.677-1.766Zm14.706-6.005 1.719.788.84-1.832-1.882-.722-.677 1.766Zm-12.986 6.793a9.711 9.711 0 0 1 8.934-5.667l.04-3.783c-5.501-.058-10.263 3.183-12.413 7.874l3.439 1.576Zm8.934-5.667a9.677 9.677 0 0 1 3.374.64l1.355-3.532a13.46 13.46 0 0 0-4.689-.891l-.04 3.783Zm2.332-1.914a9.711 9.711 0 0 1-8.934 5.667l-.04 3.783c5.501.058 10.263-3.183 12.413-7.874l-3.439-1.576Zm-8.934 5.667a9.677 9.677 0 0 1-3.374-.64l-1.355 3.532c1.46.56 3.04.874 4.689.891l.04-3.783Z"
    mask="url(#i)" />
  <mask id="j" fill="#fff">
    <path fill-rule="evenodd"
      d="M707.698 159.352a11.604 11.604 0 0 1-7.417 10.235 11.596 11.596 0 0 1-4.03.779 11.601 11.601 0 0 1 7.416-10.236 11.572 11.572 0 0 1 4.031-.778Z"
      clip-rule="evenodd" />
  </mask>
  <path fill="#FBAD41" fill-rule="evenodd"
    d="M707.698 159.352a11.604 11.604 0 0 1-7.417 10.235 11.596 11.596 0 0 1-4.03.779 11.601 11.601 0 0 1 7.416-10.236 11.572 11.572 0 0 1 4.031-.778Z"
    clip-rule="evenodd" />
  <path fill="#F63"
    d="m707.698 159.352 1.889.097.103-2.013-2.015.024.023 1.892Zm-11.447 11.014-1.889-.097-.104 2.012 2.015-.024-.022-1.891Zm9.557-11.111a9.709 9.709 0 0 1-6.207 8.567l1.36 3.53c5.133-1.978 8.361-6.75 8.626-11.903l-3.779-.194Zm-6.207 8.567a9.675 9.675 0 0 1-3.373.652l.045 3.783a13.475 13.475 0 0 0 4.688-.905l-1.36-3.53Zm-1.461 2.641a9.713 9.713 0 0 1 6.208-8.568l-1.361-3.53c-5.133 1.978-8.361 6.75-8.625 11.904l3.778.194Zm6.208-8.568a9.688 9.688 0 0 1 3.372-.652l-.045-3.783a13.475 13.475 0 0 0-4.688.905l1.361 3.53Z"
    mask="url(#j)" />
  <mask id="k" fill="#fff">
    <path fill-rule="evenodd"
      d="M692.07 214.549c-2.197-3.859-2.067-8.81.733-12.619a11.583 11.583 0 0 1 2.976-2.827 11.604 11.604 0 0 1-.734 12.619 11.58 11.58 0 0 1-2.975 2.827Z"
      clip-rule="evenodd" />
  </mask>
  <path fill="#FBAD41" fill-rule="evenodd"
    d="M692.07 214.549c-2.197-3.859-2.067-8.81.733-12.619a11.583 11.583 0 0 1 2.976-2.827 11.604 11.604 0 0 1-.734 12.619 11.58 11.58 0 0 1-2.975 2.827Z"
    clip-rule="evenodd" />
  <path fill="#F63"
    d="m692.07 214.549-1.644.936.997 1.751 1.685-1.106-1.038-1.581Zm3.709-15.446 1.644-.936-.998-1.751-1.685 1.106 1.039 1.581Zm-2.065 14.51a9.71 9.71 0 0 1 .613-10.562l-3.048-2.241c-3.258 4.432-3.406 10.191-.853 14.675l3.288-1.872Zm.613-10.562a9.705 9.705 0 0 1 2.49-2.367l-2.077-3.162a13.477 13.477 0 0 0-3.461 3.288l3.048 2.241Zm-.192-3.012a9.71 9.71 0 0 1-.614 10.562l3.048 2.241c3.259-4.432 3.407-10.191.854-14.675l-3.288 1.872Zm-.614 10.562a9.668 9.668 0 0 1-2.49 2.366l2.077 3.163a13.461 13.461 0 0 0 3.461-3.288l-3.048-2.241Z"
    mask="url(#k)" />
  <mask id="l" fill="#fff">
    <path fill-rule="evenodd"
      d="M692.232 214.589a11.602 11.602 0 0 1 9.075-8.799 11.574 11.574 0 0 1 4.103-.07 11.603 11.603 0 0 1-9.075 8.799 11.574 11.574 0 0 1-4.103.07Z"
      clip-rule="evenodd" />
  </mask>
  <path fill="#FBAD41" fill-rule="evenodd"
    d="M692.232 214.589a11.602 11.602 0 0 1 9.075-8.799 11.574 11.574 0 0 1 4.103-.07 11.603 11.603 0 0 1-9.075 8.799 11.574 11.574 0 0 1-4.103.07Z"
    clip-rule="evenodd" />
  <path fill="#F63"
    d="m692.232 214.589-1.844-.422-.449 1.965 1.989.324.304-1.867Zm13.178-8.869 1.844.422.45-1.965-1.99-.324-.304 1.867Zm-11.334 9.291a9.712 9.712 0 0 1 7.596-7.365l-.73-3.712c-5.398 1.061-9.402 5.203-10.554 10.233l3.688.844Zm7.596-7.365a9.692 9.692 0 0 1 3.434-.059l.608-3.734a13.457 13.457 0 0 0-4.772.081l.73 3.712Zm1.894-2.348a9.71 9.71 0 0 1-7.596 7.365l.73 3.712c5.398-1.061 9.402-5.203 10.554-10.233l-3.688-.844Zm-7.596 7.365a9.686 9.686 0 0 1-3.433.059l-.609 3.734c1.543.252 3.154.237 4.772-.081l-.73-3.712Z"
    mask="url(#l)" />
  <mask id="m" fill="#fff">
    <path fill-rule="evenodd"
      d="M692.148 214.307a11.603 11.603 0 0 1 5.182-11.529 11.558 11.558 0 0 1 3.787-1.581c.678 4.388-1.208 8.968-5.182 11.529a11.592 11.592 0 0 1-3.787 1.581Z"
      clip-rule="evenodd" />
  </mask>
  <path fill="#FBAD41" fill-rule="evenodd"
    d="M692.148 214.307a11.603 11.603 0 0 1 5.182-11.529 11.558 11.558 0 0 1 3.787-1.581c.678 4.388-1.208 8.968-5.182 11.529a11.592 11.592 0 0 1-3.787 1.581Z"
    clip-rule="evenodd" />
  <path fill="#F63"
    d="m692.148 214.307-1.869.289.308 1.992 1.968-.434-.407-1.847Zm8.969-13.11 1.87-.289-.308-1.992-1.969.433.407 1.848Zm-7.099 12.821a9.71 9.71 0 0 1 4.337-9.65l-2.05-3.18c-4.623 2.98-6.814 8.308-6.026 13.408l3.739-.578Zm4.337-9.65a9.684 9.684 0 0 1 3.169-1.324l-.814-3.695a13.469 13.469 0 0 0-4.405 1.839l2.05 3.18Zm.893-2.882a9.712 9.712 0 0 1-4.337 9.65l2.049 3.18c4.624-2.98 6.815-8.309 6.027-13.408l-3.739.578Zm-4.337 9.65a9.69 9.69 0 0 1-3.169 1.323l.813 3.695a13.466 13.466 0 0 0 4.405-1.838l-2.049-3.18Z"
    mask="url(#m)" />
  <circle cx="660.048" cy="212.716" r="2.07" fill="#FBAD41" stroke="#F63" stroke-width="1.892" />
  <mask id="n" fill="#fff">
    <path fill-rule="evenodd"
      d="M688.135 233.87c2.935-6.386 2.063-14.174-2.856-19.813a18.39 18.39 0 0 0-5.061-4.069c-2.935 6.386-2.064 14.173 2.856 19.813a18.375 18.375 0 0 0 5.061 4.069Z"
      clip-rule="evenodd" />
  </mask>
  <path fill="#52AEE3" fill-rule="evenodd"
    d="M688.135 233.87c2.935-6.386 2.063-14.174-2.856-19.813a18.39 18.39 0 0 0-5.061-4.069c-2.935 6.386-2.064 14.173 2.856 19.813a18.375 18.375 0 0 0 5.061 4.069Z"
    clip-rule="evenodd" />
  <path fill="#3790E0"
    d="m688.135 233.87 1.719.79-.846 1.841-1.778-.97.905-1.661Zm-7.917-23.882-1.719-.79.846-1.841 1.778.97-.905 1.661Zm6.198 23.092c2.635-5.734 1.85-12.721-2.562-17.78l2.851-2.487c5.426 6.221 6.383 14.809 3.149 21.847l-3.438-1.58Zm-2.562-17.78a16.505 16.505 0 0 0-4.542-3.652l1.811-3.321a20.287 20.287 0 0 1 5.582 4.486l-2.851 2.487Zm-1.918-4.523c-2.635 5.735-1.849 12.722 2.563 17.781l-2.851 2.487c-5.426-6.222-6.383-14.81-3.149-21.847l3.437 1.579Zm2.563 17.781a16.487 16.487 0 0 0 4.542 3.651l-1.811 3.322a20.272 20.272 0 0 1-5.582-4.486l2.851-2.487Z"
    mask="url(#n)" />
  <mask id="o" fill="#fff">
    <path fill-rule="evenodd"
      d="M687.088 203.915a11.436 11.436 0 0 1 1.773-12.299 11.395 11.395 0 0 1 3.142-2.526 11.436 11.436 0 0 1-1.773 12.299 11.41 11.41 0 0 1-3.142 2.526Z"
      clip-rule="evenodd" />
  </mask>
  <path fill="#52AEE3" fill-rule="evenodd"
    d="M687.088 203.915a11.436 11.436 0 0 1 1.773-12.299 11.395 11.395 0 0 1 3.142-2.526 11.436 11.436 0 0 1-1.773 12.299 11.41 11.41 0 0 1-3.142 2.526Z"
    clip-rule="evenodd" />
  <path fill="#3790E0"
    d="m687.088 203.915-1.719.79.846 1.841 1.778-.97-.905-1.661Zm4.915-14.825 1.719-.79-.846-1.841-1.778.97.905 1.661Zm-3.196 14.036a9.55 9.55 0 0 1 1.479-10.267l-2.851-2.487c-3.56 4.083-4.187 9.717-2.066 14.333l3.438-1.579Zm1.479-10.267a9.532 9.532 0 0 1 2.622-2.108l-1.81-3.322a13.306 13.306 0 0 0-3.663 2.943l2.851 2.487Zm-.002-2.979a9.546 9.546 0 0 1-1.48 10.266l2.851 2.487c3.561-4.082 4.188-9.717 2.067-14.333l-3.438 1.58Zm-1.48 10.266a9.513 9.513 0 0 1-2.621 2.108l1.81 3.322a13.27 13.27 0 0 0 3.662-2.943l-2.851-2.487Z"
    mask="url(#o)" />
  <mask id="p" fill="#fff">
    <path fill-rule="evenodd"
      d="M675.921 210.206c-6.425.714-12.969-2.315-16.448-8.253a16.854 16.854 0 0 1-2.065-5.608c6.426-.714 12.97 2.314 16.449 8.253a16.852 16.852 0 0 1 2.064 5.608Z"
      clip-rule="evenodd" />
  </mask>
  <path fill="#FBAD41" fill-rule="evenodd"
    d="M675.921 210.206c-6.425.714-12.969-2.315-16.448-8.253a16.854 16.854 0 0 1-2.065-5.608c6.426-.714 12.97 2.314 16.449 8.253a16.852 16.852 0 0 1 2.064 5.608Z"
    clip-rule="evenodd" />
  <path fill="#F63"
    d="m675.921 210.206.209 1.88 2.004-.223-.35-1.985-1.863.328Zm-18.513-13.861-.209-1.88-2.003.223.349 1.985 1.863-.328Zm18.304 11.981c-5.71.634-11.519-2.058-14.607-7.329l-3.264 1.912c3.869 6.606 11.149 9.97 18.289 9.177l-.418-3.76Zm-14.607-7.329a14.965 14.965 0 0 1-1.834-4.979l-3.726.655a18.746 18.746 0 0 0 2.296 6.236l3.264-1.912Zm-3.488-2.772c5.71-.634 11.52 2.058 14.607 7.329l3.265-1.912c-3.87-6.606-11.149-9.97-18.29-9.177l.418 3.76Zm14.607 7.329a14.943 14.943 0 0 1 1.834 4.979l3.726-.655a18.744 18.744 0 0 0-2.295-6.236l-3.265 1.912Z"
    mask="url(#p)" />
  <mask id="q" fill="#fff">
    <path fill-rule="evenodd"
      d="M676.067 210.011c-5.216-3.819-7.989-10.477-6.534-17.204a16.86 16.86 0 0 1 2.271-5.527c5.216 3.82 7.989 10.477 6.535 17.204a16.832 16.832 0 0 1-2.272 5.527Z"
      clip-rule="evenodd" />
  </mask>
  <path fill="#FBAD41" fill-rule="evenodd"
    d="M676.067 210.011c-5.216-3.819-7.989-10.477-6.534-17.204a16.86 16.86 0 0 1 2.271-5.527c5.216 3.82 7.989 10.477 6.535 17.204a16.832 16.832 0 0 1-2.272 5.527Z"
    clip-rule="evenodd" />
  <path fill="#F63"
    d="m676.067 210.011-1.117 1.526 1.626 1.191 1.085-1.698-1.594-1.019Zm-4.263-22.731 1.118-1.526-1.627-1.191-1.085 1.699 1.594 1.018Zm5.381 21.205c-4.636-3.394-7.094-9.307-5.804-15.278l-3.697-.8c-1.618 7.484 1.469 14.886 7.266 19.13l2.235-3.052Zm-5.804-15.278a14.965 14.965 0 0 1 2.017-4.908l-3.188-2.037a18.744 18.744 0 0 0-2.526 6.145l3.697.8Zm-.694-4.4c4.635 3.394 7.094 9.307 5.803 15.278l3.698.799c1.618-7.483-1.469-14.885-7.266-19.13l-2.235 3.053Zm5.803 15.278a14.985 14.985 0 0 1-2.016 4.908l3.187 2.037a18.73 18.73 0 0 0 2.527-6.146l-3.698-.799Z"
    mask="url(#q)" />
  <mask id="r" fill="#fff">
    <path fill-rule="evenodd"
      d="M663.283 190.414c6.259 1.622 11.295 6.784 12.429 13.573.341 2.04.3 4.056-.069 5.975-6.258-1.623-11.295-6.784-12.429-13.573-.341-2.04-.3-4.056.069-5.975Z"
      clip-rule="evenodd" />
  </mask>
  <path fill="#FBAD41" fill-rule="evenodd"
    d="M663.283 190.414c6.259 1.622 11.295 6.784 12.429 13.573.341 2.04.3 4.056-.069 5.975-6.258-1.623-11.295-6.784-12.429-13.573-.341-2.04-.3-4.056.069-5.975Z"
    clip-rule="evenodd" />
  <path fill="#F63"
    d="m663.283 190.414.475-1.831-1.951-.506-.381 1.979 1.857.358Zm12.36 19.548-.475 1.831 1.951.505.381-1.979-1.857-.357Zm-12.834-17.717c5.561 1.442 10.031 6.028 11.037 12.053l3.732-.623c-1.262-7.552-6.865-13.289-13.82-15.092l-.949 3.662Zm11.037 12.053a14.96 14.96 0 0 1-.061 5.306l3.715.715c.412-2.136.456-4.379.078-6.644l-3.732.623Zm2.272 3.833c-5.562-1.442-10.031-6.028-11.038-12.054l-3.731.624c1.261 7.551 6.864 13.289 13.819 15.092l.95-3.662Zm-11.038-12.054a14.954 14.954 0 0 1 .061-5.305l-3.715-.716a18.722 18.722 0 0 0-.077 6.645l3.731-.624Z"
    mask="url(#r)" />
  <mask id="s" fill="#fff">
    <path fill-rule="evenodd"
      d="M672.721 152.347c4.151 2.548 6.642 7.377 5.962 12.518a12.679 12.679 0 0 1-1.367 4.29c-4.151-2.548-6.641-7.377-5.962-12.518a12.701 12.701 0 0 1 1.367-4.29Z"
      clip-rule="evenodd" />
  </mask>
  <path fill="#FBAD41" fill-rule="evenodd"
    d="M672.721 152.347c4.151 2.548 6.642 7.377 5.962 12.518a12.679 12.679 0 0 1-1.367 4.29c-4.151-2.548-6.641-7.377-5.962-12.518a12.701 12.701 0 0 1 1.367-4.29Z"
    clip-rule="evenodd" />
  <path fill="#F63"
    d="m672.721 152.347.989-1.612-1.717-1.055-.944 1.781 1.672.886Zm4.595 16.808-.989 1.612 1.717 1.055.944-1.781-1.672-.886Zm-5.585-15.196a10.836 10.836 0 0 1 5.077 10.658l3.751.496c.78-5.908-2.084-11.453-6.849-14.378l-1.979 3.224Zm5.077 10.658a10.82 10.82 0 0 1-1.163 3.653l3.343 1.771a14.61 14.61 0 0 0 1.571-4.928l-3.751-.496Zm1.498 2.926a10.836 10.836 0 0 1-5.077-10.658l-3.75-.496c-.781 5.908 2.083 11.453 6.848 14.378l1.979-3.224Zm-5.077-10.658a10.843 10.843 0 0 1 1.163-3.653l-3.343-1.771a14.586 14.586 0 0 0-1.57 4.928l3.75.496Z"
    mask="url(#s)" />
  <mask id="t" fill="#fff">
    <path fill-rule="evenodd"
      d="M681.414 150.139c4.049 5.417 4.785 12.925 1.271 19.209a17.646 17.646 0 0 1-3.963 4.833c-4.049-5.417-4.785-12.925-1.272-19.208a17.64 17.64 0 0 1 3.964-4.834Z"
      clip-rule="evenodd" />
  </mask>
  <path fill="#F6821F" fill-rule="evenodd"
    d="M681.414 150.139c4.049 5.417 4.785 12.925 1.271 19.209a17.646 17.646 0 0 1-3.963 4.833c-4.049-5.417-4.785-12.925-1.272-19.208a17.64 17.64 0 0 1 3.964-4.834Z"
    clip-rule="evenodd" />
  <path fill="#F63"
    d="m681.414 150.139 1.515-1.132-1.206-1.615-1.535 1.307 1.226 1.44Zm-2.692 24.042-1.515 1.132 1.206 1.615 1.535-1.307-1.226-1.44Zm1.177-22.909c3.618 4.84 4.271 11.544 1.135 17.152l3.302 1.847c3.891-6.96 3.073-15.271-1.407-21.264l-3.03 2.265Zm1.135 17.152a15.726 15.726 0 0 1-3.538 4.316l2.452 2.881a19.504 19.504 0 0 0 4.388-5.35l-3.302-1.847Zm-.797 4.624c-3.618-4.84-4.271-11.544-1.135-17.152l-3.303-1.847c-3.89 6.96-3.072 15.271 1.408 21.264l3.03-2.265Zm-1.135-17.152a15.726 15.726 0 0 1 3.538-4.316l-2.452-2.881a19.525 19.525 0 0 0-4.389 5.35l3.303 1.847Z"
    mask="url(#t)" />
  <mask id="u" fill="#fff">
    <path fill-rule="evenodd"
      d="M673.666 171.705c-.965-4.775-4.643-8.775-9.704-9.905a12.707 12.707 0 0 0-4.498-.193c.965 4.775 4.642 8.775 9.703 9.905 1.521.34 3.04.392 4.499.193Z"
      clip-rule="evenodd" />
  </mask>
  <path fill="#FBAD41" fill-rule="evenodd"
    d="M673.666 171.705c-.965-4.775-4.643-8.775-9.704-9.905a12.707 12.707 0 0 0-4.498-.193c.965 4.775 4.642 8.775 9.703 9.905 1.521.34 3.04.392 4.499.193Z"
    clip-rule="evenodd" />
  <path fill="#F63"
    d="m673.666 171.705 1.854-.375.399 1.975-1.997.274-.256-1.874Zm-14.202-10.098-1.854.375-.4-1.975 1.997-.274.257 1.874Zm12.347 10.472a10.835 10.835 0 0 0-8.261-8.433l.825-3.692c5.816 1.299 10.037 5.896 11.145 11.376l-3.709.749Zm-8.261-8.433a10.8 10.8 0 0 0-3.83-.164l-.513-3.749a14.6 14.6 0 0 1 5.168.221l-.825 3.692Zm-2.232-2.413a10.836 10.836 0 0 0 8.261 8.433l-.825 3.692c-5.815-1.299-10.037-5.896-11.144-11.376l3.708-.749Zm8.261 8.433c1.299.29 2.591.334 3.83.164l.513 3.749a14.6 14.6 0 0 1-5.168-.221l.825-3.692Z"
    mask="url(#u)" />
  <mask id="v" fill="#fff">
    <path fill-rule="evenodd"
      d="M677.906 174.752c-3.694-5.665-10.49-8.939-17.599-7.801a17.63 17.63 0 0 0-5.901 2.058c3.694 5.665 10.49 8.939 17.599 7.802a17.632 17.632 0 0 0 5.901-2.059Z"
      clip-rule="evenodd" />
  </mask>
  <path fill="#F6821F" fill-rule="evenodd"
    d="M677.906 174.752c-3.694-5.665-10.49-8.939-17.599-7.801a17.63 17.63 0 0 0-5.901 2.058c3.694 5.665 10.49 8.939 17.599 7.802a17.632 17.632 0 0 0 5.901-2.059Z"
    clip-rule="evenodd" />
  <path fill="#F63"
    d="m677.906 174.752 1.584-1.033 1.101 1.688-1.755.992-.93-1.647Zm-23.5-5.743-1.584 1.033-1.101-1.688 1.755-.992.93 1.647Zm21.915 6.776c-3.3-5.062-9.37-7.982-15.715-6.967l-.598-3.735c7.873-1.26 15.396 2.368 19.482 8.636l-3.169 2.066Zm-15.715-6.967a15.75 15.75 0 0 0-5.269 1.838l-1.861-3.294a19.534 19.534 0 0 1 6.532-2.279l.598 3.735Zm-4.615-.842c3.3 5.062 9.37 7.982 15.715 6.967l.598 3.736c-7.873 1.259-15.396-2.369-19.482-8.637l3.169-2.066Zm15.715 6.967a15.729 15.729 0 0 0 5.269-1.838l1.861 3.294a19.535 19.535 0 0 1-6.532 2.28l-.598-3.736Z"
    mask="url(#v)" />
  <mask id="w" fill="#fff">
    <path fill-rule="evenodd"
      d="M664.238 154.801c6.646 1.252 12.266 6.284 13.928 13.289.5 2.105.6 4.212.349 6.24-6.646-1.252-12.265-6.284-13.928-13.289a17.647 17.647 0 0 1-.349-6.24Z"
      clip-rule="evenodd" />
  </mask>
  <path fill="#F6821F" fill-rule="evenodd"
    d="M664.238 154.801c6.646 1.252 12.266 6.284 13.928 13.289.5 2.105.6 4.212.349 6.24-6.646-1.252-12.265-6.284-13.928-13.289a17.647 17.647 0 0 1-.349-6.24Z"
    clip-rule="evenodd" />
  <path fill="#F63"
    d="m664.238 154.801.35-1.859-1.981-.373-.246 2 1.877.232Zm14.277 19.529-.35 1.859 1.981.373.247-2-1.878-.232Zm-14.627-17.67c5.939 1.119 10.954 5.615 12.438 11.867l3.681-.874c-1.841-7.758-8.066-13.326-15.419-14.711l-.7 3.718Zm12.438 11.867a15.76 15.76 0 0 1 .312 5.572l3.755.463a19.536 19.536 0 0 0-.386-6.909l-3.681.874Zm2.54 3.944c-5.939-1.118-10.955-5.614-12.438-11.866l-3.681.873c1.841 7.758 8.065 13.326 15.418 14.711l.701-3.718Zm-12.438-11.866a15.74 15.74 0 0 1-.313-5.572l-3.754-.464a19.513 19.513 0 0 0 .386 6.909l3.681-.873Z"
    mask="url(#w)" />
  <mask id="x" fill="#fff">
    <path fill-rule="evenodd"
      d="M680.609 163.455a8.402 8.402 0 0 1 .249 9.15 8.37 8.37 0 0 1-1.972 2.223 8.402 8.402 0 0 1 1.723-11.373Z"
      clip-rule="evenodd" />
  </mask>
  <path fill="#52AEE3" fill-rule="evenodd"
    d="M680.609 163.455a8.402 8.402 0 0 1 .249 9.15 8.37 8.37 0 0 1-1.972 2.223 8.402 8.402 0 0 1 1.723-11.373Z"
    clip-rule="evenodd" />
  <path fill="#3790E0"
    d="m680.609 163.455 1.558-1.073-1.143-1.66-1.585 1.246 1.17 1.487Zm-1.723 11.373-1.558 1.073 1.143 1.66 1.584-1.246-1.169-1.487Zm.165-10.301a6.513 6.513 0 0 1 .193 7.092l3.228 1.973a10.294 10.294 0 0 0-.305-11.21l-3.116 2.145Zm.193 7.092a6.461 6.461 0 0 1-1.527 1.722l2.338 2.974a10.259 10.259 0 0 0 2.417-2.723l-3.228-1.973Zm1.2 2.136a6.511 6.511 0 0 1-.194-7.091l-3.228-1.973a10.296 10.296 0 0 0 .306 11.21l3.116-2.146Zm-.194-7.091a6.502 6.502 0 0 1 1.528-1.723l-2.339-2.973a10.278 10.278 0 0 0-2.417 2.723l3.228 1.973Z"
    mask="url(#x)" />
  <mask id="y" fill="#fff">
    <path fill-rule="evenodd"
      d="M667.496 172.75a8.402 8.402 0 0 0 8.517 3.354 8.384 8.384 0 0 0 2.762-1.096 8.403 8.403 0 0 0-8.516-3.354 8.38 8.38 0 0 0-2.763 1.096Z"
      clip-rule="evenodd" />
  </mask>
  <path fill="#52AEE3" fill-rule="evenodd"
    d="M667.496 172.75a8.402 8.402 0 0 0 8.517 3.354 8.384 8.384 0 0 0 2.762-1.096 8.403 8.403 0 0 0-8.516-3.354 8.38 8.38 0 0 0-2.763 1.096Z"
    clip-rule="evenodd" />
  <path fill="#3790E0"
    d="m667.496 172.75-1.54 1.1-1.171-1.641 1.712-1.065.999 1.606Zm11.279 2.258 1.54-1.099 1.171 1.64-1.712 1.065-.999-1.606Zm-9.739-3.357a6.507 6.507 0 0 0 6.599 2.599l.755 3.708a10.298 10.298 0 0 1-10.434-4.108l3.08-2.199Zm6.599 2.599a6.481 6.481 0 0 0 2.141-.848l1.998 3.212a10.284 10.284 0 0 1-3.384 1.344l-.755-3.708Zm1.601 1.857a6.508 6.508 0 0 0-6.6-2.599l-.755-3.708a10.297 10.297 0 0 1 10.434 4.109l-3.079 2.198Zm-6.6-2.599a6.461 6.461 0 0 0-2.141.849l-1.998-3.213a10.293 10.293 0 0 1 3.384-1.344l.755 3.708Z"
    mask="url(#y)" />
  <mask id="z" fill="#fff">
    <path fill-rule="evenodd"
      d="M672.532 166.16a8.403 8.403 0 0 1 6.366 6.578 8.381 8.381 0 0 1 .048 2.972 8.403 8.403 0 0 1-6.366-6.578 8.381 8.381 0 0 1-.048-2.972Z"
      clip-rule="evenodd" />
  </mask>
  <path fill="#52AEE3" fill-rule="evenodd"
    d="M672.532 166.16a8.403 8.403 0 0 1 6.366 6.578 8.381 8.381 0 0 1 .048 2.972 8.403 8.403 0 0 1-6.366-6.578 8.381 8.381 0 0 1-.048-2.972Z"
    clip-rule="evenodd" />
  <path fill="#3790E0"
    d="m672.532 166.16.424-1.844-1.964-.451-.326 1.988 1.866.307Zm6.414 9.55-.424 1.844 1.964.451.326-1.989-1.866-.306Zm-6.838-7.707a6.514 6.514 0 0 1 4.934 5.098l3.713-.726a10.296 10.296 0 0 0-7.799-8.059l-.848 3.687Zm4.934 5.098c.153.786.159 1.562.037 2.303l3.733.612a10.263 10.263 0 0 0-.057-3.641l-3.713.726Zm2.328.766a6.514 6.514 0 0 1-4.934-5.098l-3.713.726a10.297 10.297 0 0 0 7.799 8.059l.848-3.687Zm-4.934-5.098a6.498 6.498 0 0 1-.037-2.303l-3.733-.613a10.268 10.268 0 0 0 .057 3.642l3.713-.726Z"
    mask="url(#z)" />
  <circle cx="666.833" cy="139.591" r="1.818" fill="#FBAD41" stroke="#F63" stroke-width="1.892" />
  <circle cx="667.084" cy="222.768" r="2.07" fill="#FBAD41" stroke="#F63" stroke-width="1.892" />
  <circle cx="701.763" cy="184.069" r="2.07" fill="#FBAD41" stroke="#F63" stroke-width="1.892" />
  <path fill="#99DBED" fill-rule="evenodd"
    d="M685.756 301.673h13.994l-.79-3.542c7.982-4.601 13.355-13.22 13.355-23.095 0-11.398-7.158-21.123-17.225-24.926l.691-7.742h-20.627l.813 7.857c-9.908 3.882-16.925 13.527-16.925 24.811 0 9.874 5.373 18.494 13.354 23.094l-.79 3.543H685.756Z"
    clip-rule="evenodd" />
  <path fill="#3790E0"
    d="M699.75 301.673v.945h1.18l-.257-1.151-.923.206Zm-13.994 0v-.946h-.002l.002.946Zm13.204-3.542-.472-.82-.602.347.151.679.923-.206Zm-3.87-48.021-.942-.084-.063.715.671.254.334-.885Zm.691-7.742.942.084.092-1.029h-1.034v.945Zm-20.627 0v-.945h-1.049l.108 1.043.941-.098Zm.813 7.857.345.881.67-.262-.074-.716-.941.097Zm-3.571 47.905.923.206.152-.678-.602-.347-.473.819Zm-.79 3.543-.923-.206-.257 1.151h1.18v-.945Zm13.995 0 .003-.946h-.003v.946Zm14.149-.946h-13.994v1.891h13.994v-1.891Zm-1.713-2.39.79 3.542 1.846-.412-.79-3.542-1.846.412Zm13.333-23.301c0 9.523-5.181 17.837-12.882 22.275l.944 1.639c8.263-4.762 13.829-13.688 13.829-23.914h-1.891Zm-16.614-24.041c9.711 3.668 16.614 13.05 16.614 24.041h1.891c0-11.804-7.414-21.874-17.836-25.811l-.669 1.77Zm.083-8.711-.691 7.742 1.884.168.691-7.742-1.884-.168Zm-19.685 1.03h20.627v-1.891h-20.627v1.891Zm1.754 6.814-.813-7.857-1.882.195.813 7.857 1.882-.195Zm-16.92 24.908c0-10.882 6.766-20.186 16.324-23.93l-.69-1.761c-10.259 4.018-17.526 14.005-17.526 25.691h1.892Zm12.881 22.275c-7.701-4.439-12.881-12.753-12.881-22.275h-1.892c0 10.226 5.565 19.151 13.828 23.913l.945-1.638Zm-.34 4.568.79-3.543-1.846-.412-.79 3.543 1.846.412Zm13.072-1.152h-13.995v1.891h13.995v-1.891Zm.078 0h-.075l-.006 1.891.081.001v-1.892Zm.075 0h-.075v1.892l.08-.001-.005-1.891Z" />
  <path fill="#52AEE3" stroke="#3790E0" stroke-width="1.892"
    d="M145.42 211.678h-12.395v91.473h12.395v-91.473Z" />
  <path fill="#3790E0" d="M144.159 301.937h-12.394v1.382h12.394v-1.382Z" />
  <path fill="#3790E0"
    d="M138.072 303.065c-1.643 0-2.973-.048-2.973-.106v-.42c0-.059 1.346-.107 2.973-.107 1.643 0 2.974.048 2.974.107v.42c.015.058-1.331.106-2.974.106ZM144.159 211.678h-12.394v1.381h12.394v-1.381Z" />
  <path fill="#99DBED" stroke="#3790E0" stroke-width="1.892"
    d="M132.859 244.374h-17.145v58.777h17.145v-58.777Z" />
  <path fill="#52AEE3"
    d="M124.569 287.915c-2.273 0-4.113-2.056-4.113-4.542v-17.879c0-2.51 1.862-4.542 4.113-4.542 2.273 0 4.113 2.056 4.113 4.542v17.879c.022 2.486-1.84 4.542-4.113 4.542Z" />
  <rect width="31.505" height="20.756" x="153.705" y="245.336" stroke="#3790E0" stroke-width="1.892"
    rx="6.621" />
  <path fill="#99DBED" stroke="#3790E0" stroke-width="1.892"
    d="M163.301 239.195h30.353v26.419a6.62 6.62 0 0 1-6.62 6.621h-17.112a6.62 6.62 0 0 1-6.621-6.621v-26.419Z" />
  <path fill="#AFE3F1"
    d="M172.145 240.155h7.485v29.283a3.743 3.743 0 0 1-7.485 0v-29.283ZM167.154 240.155h3.119v31.466a1.56 1.56 0 1 1-3.119 0v-31.466Z" />
  <path fill="#0055DC" stroke="#3790E0" stroke-width="1.892"
    d="M163.301 244.185h30.353v21.429a6.62 6.62 0 0 1-6.62 6.621h-17.112a6.62 6.62 0 0 1-6.621-6.621v-21.429Z" />
  <path fill="#E2F5FA"
    d="m182.15 258.703.108-.366c.128-.436.08-.838-.135-1.134-.198-.272-.528-.433-.929-.451l-7.591-.096a.149.149 0 0 1-.119-.062.15.15 0 0 1-.017-.135.203.203 0 0 1 .177-.132l7.661-.096c.909-.041 1.893-.766 2.237-1.65l.437-1.122a.259.259 0 0 0 .012-.148c-.496-2.194-2.487-3.834-4.868-3.834-2.194 0-4.057 1.392-4.725 3.327a2.27 2.27 0 0 0-1.576-.429c-1.053.103-1.899.936-2.003 1.97-.028.269-.005.528.058.772-1.72.049-3.099 1.434-3.099 3.136 0 .154.012.305.034.453a.148.148 0 0 0 .146.126l14.015.002.004-.001a.185.185 0 0 0 .173-.13ZM184.799 253.22a4.96 4.96 0 0 0-.212.005.125.125 0 0 0-.111.092l-.301 1.075c-.13.462-.082.888.136 1.202.2.29.533.459.937.479l1.634.101c.048.003.09.027.116.066a.16.16 0 0 1 .017.143.206.206 0 0 1-.177.141l-1.698.101c-.921.044-1.914.813-2.262 1.75l-.123.331a.094.094 0 0 0 .081.127l.004.001h5.841a.156.156 0 0 0 .15-.116c.102-.373.156-.766.156-1.172 0-2.39-1.875-4.326-4.188-4.326Z" />
  <mask id="A" fill="#fff">
    <path fill-rule="evenodd"
      d="M601.988 300.143c3.349-7.714 2.343-16.861-3.283-23.207a19.48 19.48 0 0 0-5.788-4.481c-3.348 7.714-2.342 16.861 3.283 23.207a19.48 19.48 0 0 0 5.788 4.481Z"
      clip-rule="evenodd" />
  </mask>
  <path fill="#52AEE3" fill-rule="evenodd"
    d="M601.988 300.143c3.349-7.714 2.343-16.861-3.283-23.207a19.48 19.48 0 0 0-5.788-4.481c-3.348 7.714-2.342 16.861 3.283 23.207a19.48 19.48 0 0 0 5.788 4.481Z"
    clip-rule="evenodd" />
  <path fill="#3790E0"
    d="m601.988 300.143 1.688.79-.787 1.815-1.716-.869.815-1.736Zm-9.071-27.688-1.688-.79.788-1.815 1.716.869-.816 1.736Zm7.383 26.898c3.07-7.072 2.12-15.377-2.958-21.106l2.727-2.622c6.173 6.964 7.235 16.951 3.607 25.308l-3.376-1.58Zm-2.958-21.106a17.645 17.645 0 0 0-5.24-4.057l1.631-3.471a21.35 21.35 0 0 1 6.336 4.906l-2.727 2.622Zm-2.736-5.002c-3.07 7.072-2.121 15.377 2.958 21.106l-2.727 2.622c-6.173-6.964-7.235-16.951-3.608-25.308l3.377 1.58Zm2.958 21.106a17.654 17.654 0 0 0 5.239 4.057l-1.63 3.471a21.35 21.35 0 0 1-6.336-4.906l2.727-2.622Z"
    mask="url(#A)" />
  <mask id="B" fill="#fff">
    <path fill-rule="evenodd"
      d="M605.03 301.972c-4.232-7.249-12.686-11.513-21.954-10.182-2.785.4-5.41 1.271-7.797 2.519 4.232 7.25 12.685 11.513 21.953 10.183a24.253 24.253 0 0 0 7.798-2.52Z"
      clip-rule="evenodd" />
  </mask>
  <path fill="#52AEE3" fill-rule="evenodd"
    d="M605.03 301.972c-4.232-7.249-12.686-11.513-21.954-10.182-2.785.4-5.41 1.271-7.797 2.519 4.232 7.25 12.685 11.513 21.953 10.183a24.253 24.253 0 0 0 7.798-2.52Z"
    clip-rule="evenodd" />
  <path fill="#3790E0"
    d="m605.03 301.972 1.631-1.031 1.017 1.742-1.856.971-.792-1.682Zm-29.751-7.663-1.631 1.031-1.017-1.742 1.856-.97.792 1.681Zm28.119 8.695c-3.868-6.627-11.62-10.555-20.154-9.33l-.335-3.768c10.001-1.436 19.156 3.163 23.752 11.035l-3.263 2.063Zm-20.154-9.33a22.319 22.319 0 0 0-7.173 2.317l-1.584-3.363a26.189 26.189 0 0 1 8.422-2.722l.335 3.768Zm-6.333-.396c3.868 6.626 11.619 10.555 20.154 9.33l.335 3.768c-10.002 1.436-19.156-3.163-23.752-11.036l3.263-2.062Zm20.154 9.33a22.319 22.319 0 0 0 7.173-2.317l1.584 3.363a26.189 26.189 0 0 1-8.422 2.722l-.335-3.768Z"
    mask="url(#B)" />
  <mask id="C" fill="#fff">
    <path fill-rule="evenodd"
      d="M711.034 296.976c-3.558-7.14-3.062-15.855 1.95-22.149a18.488 18.488 0 0 1 5.259-4.534c3.558 7.141 3.062 15.856-1.95 22.149a18.515 18.515 0 0 1-5.259 4.534Z"
      clip-rule="evenodd" />
  </mask>
  <path fill="#52AEE3" fill-rule="evenodd"
    d="M711.034 296.976c-3.558-7.14-3.062-15.855 1.95-22.149a18.488 18.488 0 0 1 5.259-4.534c3.558 7.141 3.062 15.856-1.95 22.149a18.515 18.515 0 0 1-5.259 4.534Z"
    clip-rule="evenodd" />
  <path fill="#3790E0"
    d="m711.034 296.976-1.645.878.883 1.771 1.667-.958-.905-1.691Zm7.209-26.683 1.644-.878-.882-1.77-1.667.958.905 1.69Zm-5.565 25.806c-3.246-6.515-2.762-14.386 1.737-20.034l-2.862-2.475c-5.526 6.939-6.034 16.497-2.164 24.264l3.289-1.755Zm1.737-20.034a16.638 16.638 0 0 1 4.733-4.082l-1.81-3.38a20.34 20.34 0 0 0-5.785 4.987l2.862 2.475Zm2.184-4.894c3.246 6.514 2.761 14.386-1.737 20.034l2.861 2.475c5.527-6.939 6.034-16.497 2.164-24.265l-3.288 1.756Zm-1.737 20.034a16.654 16.654 0 0 1-4.734 4.081l1.811 3.381a20.337 20.337 0 0 0 5.784-4.987l-2.861-2.475Z"
    mask="url(#C)" />
  <path stroke="#3790E0" stroke-width="1.892" d="M115.844 257.307h16.64" />
  <circle cx="378.002" cy="228.491" r="99.011" fill="#fff" />
  <circle cx="377.941" cy="228.43" r="92.498" fill="#E2F5FA" stroke="url(#D)" stroke-width="2.868" />
  <circle cx="377.926" cy="228.416" r="74.56" fill="#fff" />
  <path fill="url(#E)" stroke="#F63" stroke-linejoin="round" stroke-width="3"
    d="M433.701 207.357v45.918l-55.379 31.402v-45.918l55.379-31.402Z" />
  <path fill="url(#F)" stroke="#F63" stroke-linejoin="round" stroke-width="3"
    d="M322.943 207.357v45.918l55.379 31.402v-45.918l-55.379-31.402Z" />
  <path fill="#FBAD41" stroke="#F63" stroke-linejoin="round" stroke-width="3"
    d="m378.322 175.965-55.379 31.392 55.379 31.402 55.379-31.402-55.379-31.392Z" />
  <path fill="#F63" stroke="#003682" stroke-linejoin="round" stroke-width="3"
    d="M386.958 190.54v-4.229l-3.659.551a9.688 9.688 0 0 0-5.242-.295c-1.386.275-2.7.838-3.855 1.652l-2.764.403v5.085c0 3.344 4.593 4.858 8.852 3.983 4.258-.875 6.618-3.462 6.668-7.15Z" />
  <path fill="#F63" stroke="#F63" stroke-linejoin="round" stroke-width="3"
    d="M377.978 198.162a8.502 8.502 0 0 1-5.223-1.475 3.666 3.666 0 0 1-1.465-2.951v-5.271l2.95-.423a10.55 10.55 0 0 1 3.934-1.672 10.294 10.294 0 0 1 5.321.285l3.835-.58v4.426c0 3.855-2.429 6.481-6.756 7.366-.853.189-1.723.288-2.596.295Zm-6.265-9.343v4.917c0 .499.118.992.344 1.436a3.2 3.2 0 0 0 .984 1.131 9.067 9.067 0 0 0 3.52 1.367 9.184 9.184 0 0 0 3.767-.157c4.091-.846 6.363-3.314 6.402-6.943v-3.934l-3.442.511a9.655 9.655 0 0 0-5.123-.275 9.926 9.926 0 0 0-3.767 1.603h-.108l-2.577.344Z" />
  <path fill="#FBAD41" stroke="#F63" stroke-linejoin="round" stroke-width="3"
    d="M380.516 193.185c4.337-.875 7.336-4.081 6.687-7.149-.649-3.069-4.681-4.859-9.018-3.983-4.337.875-7.337 4.081-6.688 7.149.65 3.069 4.682 4.839 9.019 3.983Z" />
  <path fill="#F63" stroke="#F63" stroke-linejoin="round" stroke-width="3"
    d="M359.135 206.511v-4.219l-3.658.541a9.698 9.698 0 0 0-5.242-.295 10.034 10.034 0 0 0-3.855 1.652l-2.774.413v5.085c0 3.343 4.593 4.858 8.852 3.934 4.258-.925 6.628-3.423 6.677-7.111Z" />
  <path fill="#F63" stroke="#F63" stroke-linejoin="round" stroke-width="3"
    d="M350.146 214.134a8.431 8.431 0 0 1-5.213-1.476 3.732 3.732 0 0 1-1.082-1.298 3.67 3.67 0 0 1-.393-1.642v-5.281l2.95-.423a10.266 10.266 0 0 1 3.934-1.662 10.15 10.15 0 0 1 5.311.275l3.845-.57v4.416c0 3.855-2.429 6.481-6.756 7.366-.851.198-1.723.297-2.596.295Zm-6.255-9.343v4.917a3.21 3.21 0 0 0 1.298 2.557 9.2 9.2 0 0 0 7.287 1.21c4.092-.836 6.363-3.315 6.403-6.943v-3.934l-3.442.521a9.56 9.56 0 0 0-5.124-.285 9.984 9.984 0 0 0-3.777 1.603h-.098l-2.547.354Z" />
  <path fill="#FBAD41" stroke="#F63" stroke-linejoin="round" stroke-width="3"
    d="M352.693 209.167c4.337-.875 7.337-4.081 6.688-7.16-.649-3.078-4.682-4.858-9.019-3.983-4.337.876-7.336 4.082-6.697 7.16.639 3.078 4.681 4.858 9.028 3.983Z" />
  <path fill="#F63" stroke="#003682" stroke-linejoin="round" stroke-width="3"
    d="M412.842 206.187v-4.229l-3.648.55a9.611 9.611 0 0 0-5.242-.295c-1.387.27-2.7.83-3.855 1.643l-2.774.413v5.084c0 3.344 4.593 4.859 8.851 3.934 4.259-.924 6.629-3.422 6.668-7.1Z" />
  <path fill="#F63" stroke="#F63" stroke-linejoin="round" stroke-width="3"
    d="M403.862 213.798a8.459 8.459 0 0 1-5.212-1.465 3.754 3.754 0 0 1-1.475-2.951v-5.271l2.95-.433a10.443 10.443 0 0 1 3.934-1.662 10.257 10.257 0 0 1 5.311.286l3.845-.581v4.426c0 3.855-2.429 6.481-6.756 7.356-.851.199-1.723.298-2.597.295Zm-6.284-9.333v4.917c0 .5.118.992.344 1.436.239.446.575.833.984 1.131a9.346 9.346 0 0 0 3.52 1.367 9.217 9.217 0 0 0 3.777-.167c4.091-.836 6.353-3.314 6.402-6.884v-3.934l-3.442.511a9.659 9.659 0 0 0-5.124-.275 9.835 9.835 0 0 0-3.776 1.603h-.098l-2.587.295Z" />
  <path fill="#FBAD41" stroke="#F63" stroke-linejoin="round" stroke-width="3"
    d="M406.429 208.793c4.338-.875 7.327-4.081 6.688-7.159-.639-3.079-4.681-4.859-9.018-3.934-4.337.924-7.337 4.081-6.698 7.15.64 3.068 4.662 4.858 9.028 3.943Z" />
  <path fill="#F63" stroke="#003682" stroke-linejoin="round" stroke-width="3"
    d="M385.778 221.5v-4.229l-3.649.55a9.611 9.611 0 0 0-5.242-.295 10.149 10.149 0 0 0-3.865 1.643l-2.763.413v5.084c0 3.344 4.593 4.859 8.851 3.934 4.258-.924 6.589-3.422 6.668-7.1Z" />
  <path fill="#F63" stroke="#F63" stroke-linejoin="round" stroke-width="3"
    d="M376.759 229.111a8.462 8.462 0 0 1-5.213-1.465 3.751 3.751 0 0 1-1.475-2.95v-5.272l2.951-.432a10.46 10.46 0 0 1 3.934-1.663 10.186 10.186 0 0 1 5.32.286l3.845-.581v4.416c0 3.865-2.429 6.481-6.766 7.366-.851.2-1.722.299-2.596.295Zm-6.265-9.333v4.918c.008.499.129.99.354 1.435.239.446.575.833.984 1.131a9.274 9.274 0 0 0 3.52 1.367 9.168 9.168 0 0 0 3.767-.167c4.101-.836 6.363-3.314 6.412-6.933v-3.934l-3.452.511a9.655 9.655 0 0 0-5.123-.275 9.82 9.82 0 0 0-3.767 1.603h-.098l-2.597.344Z" />
  <path fill="#FBAD41" stroke="#F63" stroke-linejoin="round" stroke-width="3"
    d="M379.296 224.144c4.347-.875 7.337-4.081 6.698-7.159-.64-3.078-4.682-4.859-9.028-3.934-4.347.924-7.337 4.081-6.688 7.15.649 3.068 4.681 4.819 9.018 3.943Z" />
  <defs>
    <linearGradient id="D" x1="383.825" x2="380.599" y1="322.417" y2="134.582"
      gradientUnits="userSpaceOnUse">
      <stop offset=".007" stop-color="#F63" />
      <stop offset=".335" stop-color="#F6821F" />
      <stop offset="1" stop-color="#FBAD41" />
    </linearGradient>
    <linearGradient id="E" x1="421.81" x2="395.798" y1="187.032" y2="273.987"
      gradientUnits="userSpaceOnUse">
      <stop offset=".643" stop-color="#F9AB41" />
      <stop offset="1" stop-color="#F6821F" />
    </linearGradient>
    <linearGradient id="F" x1="360.699" x2="340.567" y1="228.59" y2="263.454"
      gradientUnits="userSpaceOnUse">
      <stop stop-color="#F6821F" />
      <stop offset="1" stop-color="#F63" />
    </linearGradient>
    <radialGradient id="f" cx="0" cy="0" r="1"
      gradientTransform="matrix(184.678 0 0 184.743 379.543 216.531)" gradientUnits="userSpaceOnUse">
      <stop stop-color="#F9AB41" />
      <stop offset=".239" stop-color="#FAA03F" />
      <stop offset=".658" stop-color="#FB8339" />
      <stop offset="1" stop-color="#FD6633" />
    </radialGradient>
    <clipPath id="e">
      <path fill="#fff" d="M198.075 28.631H561.01v375.8H198.075z" />
    </clipPath>
  </defs>
</svg>