<svg width="728" height="253" viewBox="0 0 728 253" fill="none" xmlns="http://www.w3.org/2000/svg">
<path d="M594 228C594 198.059 588.103 168.41 576.645 140.748C565.186 113.086 548.392 87.9514 527.22 66.7796C506.049 45.6079 480.914 28.8135 453.252 17.3555C425.59 5.89739 395.941 -1.30878e-06 366 0C336.059 1.30878e-06 306.41 5.8974 278.748 17.3555C251.086 28.8135 225.951 45.6079 204.78 66.7797C183.608 87.9514 166.814 113.086 155.355 140.748C143.897 168.41 138 198.059 138 228L366 228H594Z" fill="url(#paint0_linear_0_1)"/>
<path fill-rule="evenodd" clip-rule="evenodd" d="M687.764 229.188C694.17 224.458 703.135 223.913 710.712 228.548C712.989 229.941 714.95 231.684 716.562 233.667C710.156 238.397 701.191 238.942 693.614 234.307C691.337 232.914 689.376 231.171 687.764 229.188Z" fill="#FFCD89"/>
<mask id="mask0_0_1" style="mask-type:luminance" maskUnits="userSpaceOnUse" x="687" y="225" width="30" height="13">
<path fill-rule="evenodd" clip-rule="evenodd" d="M687.764 229.188C694.17 224.458 703.135 223.913 710.712 228.548C712.989 229.941 714.95 231.684 716.562 233.667C710.156 238.397 701.191 238.942 693.614 234.307C691.337 232.914 689.376 231.171 687.764 229.188Z" fill="white"/>
</mask>
<g mask="url(#mask0_0_1)">
<path d="M687.764 229.188L686.673 227.596L685.05 228.794L686.372 230.42L687.764 229.188ZM716.562 233.667L717.653 235.259L719.275 234.061L717.954 232.435L716.562 233.667ZM688.855 230.78C694.681 226.479 702.869 225.964 709.814 230.212L711.611 226.883C703.402 221.862 693.66 222.437 686.673 227.596L688.855 230.78ZM709.814 230.212C711.902 231.49 713.696 233.087 715.17 234.899L717.954 232.435C716.203 230.282 714.076 228.391 711.611 226.883L709.814 230.212ZM715.471 232.075C709.645 236.376 701.457 236.891 694.512 232.643L692.715 235.972C700.924 240.993 710.666 240.418 717.653 235.259L715.471 232.075ZM694.512 232.643C692.424 231.365 690.63 229.768 689.156 227.956L686.372 230.42C688.123 232.573 690.25 234.464 692.715 235.972L694.512 232.643Z" fill="#FBAD41"/>
</g>
<path fill-rule="evenodd" clip-rule="evenodd" d="M727.058 219.305C722.327 224.458 715.397 226.396 709.28 223.61C707.442 222.773 705.832 221.579 704.48 220.121C709.211 214.969 716.141 213.031 722.257 215.817C724.096 216.654 725.706 217.847 727.058 219.305Z" fill="#FFCD89"/>
<mask id="mask1_0_1" style="mask-type:luminance" maskUnits="userSpaceOnUse" x="704" y="214" width="24" height="11">
<path fill-rule="evenodd" clip-rule="evenodd" d="M727.058 219.305C722.327 224.458 715.397 226.396 709.28 223.61C707.442 222.773 705.832 221.579 704.48 220.121C709.211 214.969 716.141 213.031 722.257 215.817C724.096 216.654 725.706 217.847 727.058 219.305Z" fill="white"/>
</mask>
<g mask="url(#mask1_0_1)">
<path d="M727.058 219.305L728.42 220.672L729.627 219.357L728.361 217.992L727.058 219.305ZM704.48 220.121L703.118 218.755L701.91 220.069L703.176 221.434L704.48 220.121ZM725.696 217.938C721.375 222.645 715.226 224.243 709.96 221.845L708.601 225.375C715.567 228.548 723.278 226.271 728.42 220.672L725.696 217.938ZM709.96 221.845C708.363 221.117 706.963 220.081 705.783 218.808L703.176 221.434C704.7 223.077 706.521 224.428 708.601 225.375L709.96 221.845ZM705.841 221.488C710.163 216.782 716.311 215.184 721.578 217.582L722.937 214.051C715.97 210.879 708.259 213.156 703.118 218.755L705.841 221.488ZM721.578 217.582C723.175 218.309 724.574 219.346 725.755 220.618L728.361 217.992C726.837 216.349 725.017 214.999 722.937 214.051L721.578 217.582Z" fill="#FBAD41"/>
</g>
<path d="M714.216 210.58C714.216 210.58 710.031 216.93 702.595 222.446C694.925 228.137 684.149 227.923 679.49 230.613C679.478 230.62 679.46 230.63 679.46 230.63" stroke="#FBAD41" stroke-width="1.89161" stroke-linecap="square" stroke-linejoin="round"/>
<path fill-rule="evenodd" clip-rule="evenodd" d="M724.153 192.672C725.596 198.623 723.949 204.536 719.481 207.509C718.138 208.402 716.653 208.955 715.1 209.191C713.657 203.24 715.304 197.327 719.772 194.354C721.115 193.461 722.6 192.908 724.153 192.672Z" fill="#FFCD89"/>
<path d="M724.153 192.672L725.068 192.444L724.865 191.604L724.014 191.734L724.153 192.672ZM715.1 209.191L714.184 209.419L714.388 210.259L715.238 210.129L715.1 209.191ZM723.237 192.9C724.615 198.583 723.004 204.029 718.963 206.717L719.999 208.3C724.893 205.044 726.576 198.663 725.068 192.444L723.237 192.9ZM718.963 206.717C717.74 207.531 716.386 208.036 714.962 208.253L715.238 210.129C716.92 209.874 718.536 209.273 719.999 208.3L718.963 206.717ZM716.016 208.963C714.638 203.28 716.248 197.834 720.29 195.146L719.254 193.563C714.36 196.819 712.677 203.2 714.184 209.419L716.016 208.963ZM720.29 195.146C721.513 194.332 722.867 193.827 724.291 193.61L724.014 191.734C722.333 191.99 720.717 192.59 719.254 193.563L720.29 195.146Z" fill="#FBAD41"/>
<path d="M100.676 226.839V232.366L33.0656 232.361L33.0658 226.835L100.676 226.839Z" fill="white" stroke="#FBAD41" stroke-width="1.89161" stroke-miterlimit="10"/>
<path d="M28.9214 207.907H104.821V227.88H28.9214V207.907Z" fill="#FFF7EC" stroke="#FBAD41" stroke-width="1.89161" stroke-miterlimit="10"/>
<path d="M32.9161 223.885V211.901H100.826V223.885H32.9161Z" fill="white"/>
<path d="M93.2581 219.316C92.5851 219.316 92.0391 218.77 92.0391 218.097C92.0391 217.423 92.5851 216.877 93.2581 216.877C93.9321 216.877 94.4781 217.423 94.4781 218.097C94.4781 218.77 93.9321 219.316 93.2581 219.316Z" fill="#FBAD41"/>
<path d="M88.835 219.316C88.162 219.316 87.6156 218.77 87.6156 218.097C87.6156 217.423 88.162 216.877 88.835 216.877C89.509 216.877 90.055 217.423 90.055 218.097C90.055 218.77 89.509 219.316 88.835 219.316Z" fill="#FBAD41"/>
<path d="M82.5478 220.842C81.0318 220.842 79.8029 219.613 79.8029 218.097C79.8029 216.581 81.0318 215.352 82.5478 215.352C84.0637 215.352 85.2927 216.581 85.2927 218.097C85.2927 219.613 84.0637 220.842 82.5478 220.842Z" fill="#FFCD89"/>
<path d="M44.9005 208.621V179.944" stroke="#FBAD41" stroke-width="1.89161" stroke-miterlimit="10"/>
<path d="M40.6559 215.896H48.8951" stroke="#FBAD41" stroke-width="1.89161" stroke-miterlimit="10"/>
<path d="M54.7404 180.614C54.6701 178.397 53.944 176.251 52.6539 174.446C51.3638 172.642 49.5677 171.261 47.4927 170.478C45.4177 169.694 43.157 169.544 40.9965 170.045C38.836 170.547 36.8727 171.678 35.3549 173.295" stroke="#A8CBFF" stroke-width="1.89161"/>
<path d="M62.9478 180.033C62.8258 176.188 61.5663 172.465 59.3287 169.336C57.091 166.207 53.9757 163.811 50.3766 162.453C46.7776 161.094 42.8564 160.833 39.109 161.703C35.3616 162.572 31.9563 164.534 29.3237 167.339" stroke="#A8CBFF" stroke-width="1.89161"/>
<path d="M70.5794 179.754C70.408 174.35 68.6379 169.118 65.4932 164.721C62.3484 160.323 57.9701 156.956 52.912 155.046C47.8539 153.137 42.3431 152.77 37.0765 153.993C31.81 155.215 27.0242 157.972 23.3243 161.914" stroke="#A8CBFF" stroke-width="1.89161"/>
<path fill-rule="evenodd" clip-rule="evenodd" d="M27.7501 230.365C31.1611 223.519 30.6856 215.164 25.8802 209.131C24.4359 207.317 22.7217 205.866 20.838 204.783C17.4271 211.63 17.9025 219.985 22.7079 226.018C24.1522 227.832 25.8664 229.283 27.7501 230.365Z" fill="#FFCD89"/>
<mask id="mask2_0_1" style="mask-type:luminance" maskUnits="userSpaceOnUse" x="18" y="204" width="12" height="27">
<path fill-rule="evenodd" clip-rule="evenodd" d="M27.7501 230.365C31.1611 223.519 30.6856 215.164 25.8802 209.131C24.4359 207.317 22.7217 205.866 20.838 204.783C17.4271 211.63 17.9025 219.985 22.7079 226.018C24.1522 227.832 25.8664 229.283 27.7501 230.365Z" fill="white"/>
</mask>
<g mask="url(#mask2_0_1)">
<path d="M27.7501 230.365L29.3943 231.243L28.5121 233.014L26.8448 232.056L27.7501 230.365ZM20.838 204.783L19.1938 203.906L20.076 202.135L21.7433 203.093L20.838 204.783ZM26.1059 229.488C29.2047 223.268 28.7408 215.756 24.4495 210.368L27.3109 207.893C32.6304 214.572 33.1175 223.77 29.3943 231.243L26.1059 229.488ZM24.4495 210.368C23.1546 208.742 21.6198 207.443 19.9327 206.474L21.7433 203.093C23.8236 204.289 25.7171 205.892 27.3109 207.893L24.4495 210.368ZM22.4822 205.661C19.3835 211.881 19.8473 219.393 24.1386 224.781L21.2773 227.256C15.9578 220.577 15.4706 211.379 19.1938 203.906L22.4822 205.661ZM24.1386 224.781C25.4335 226.406 26.9683 227.706 28.6554 228.675L26.8448 232.056C24.7645 230.86 22.871 229.257 21.2773 227.256L24.1386 224.781Z" fill="#FBAD41"/>
</g>
<path fill-rule="evenodd" clip-rule="evenodd" d="M0.882324 224.518C5.41852 229.458 12.0623 231.316 17.9261 228.645C19.6885 227.843 21.2324 226.698 22.5287 225.301C17.9925 220.361 11.3487 218.503 5.48492 221.174C3.72252 221.976 2.17862 223.121 0.882324 224.518Z" fill="#FFCD89"/>
<mask id="mask3_0_1" style="mask-type:luminance" maskUnits="userSpaceOnUse" x="0" y="219" width="23" height="11">
<path fill-rule="evenodd" clip-rule="evenodd" d="M0.882324 224.518C5.41852 229.458 12.0623 231.316 17.9261 228.645C19.6885 227.843 21.2324 226.698 22.5287 225.301C17.9925 220.361 11.3487 218.503 5.48492 221.174C3.72252 221.976 2.17862 223.121 0.882324 224.518Z" fill="white"/>
</mask>
<g mask="url(#mask3_0_1)">
<path d="M0.882333 224.518L-0.479267 225.885L-1.68677 224.57L-0.420868 223.205L0.882333 224.518ZM22.5287 225.301L23.8903 223.934L25.0978 225.249L23.8319 226.614L22.5287 225.301ZM2.24393 223.151C6.37043 227.645 12.2328 229.163 17.2468 226.88L18.6055 230.411C11.8917 233.468 4.46663 231.271 -0.479267 225.885L2.24393 223.151ZM17.2468 226.88C18.7675 226.187 20.101 225.2 21.2254 223.988L23.8319 226.614C22.3639 228.197 20.6095 229.498 18.6055 230.411L17.2468 226.88ZM21.1671 226.668C17.0406 222.174 11.1782 220.656 6.16423 222.939L4.80553 219.408C11.5193 216.351 18.9444 218.548 23.8903 223.934L21.1671 226.668ZM6.16423 222.939C4.64353 223.632 3.31003 224.619 2.18563 225.831L-0.420868 223.205C1.04713 221.622 2.80153 220.321 4.80553 219.408L6.16423 222.939Z" fill="#FBAD41"/>
</g>
<path d="M39.5156 232.351C37.0411 232.351 31.689 232.986 24.3354 227.53C17.2065 222.241 13.1938 216.154 13.1938 216.154" stroke="#FBAD41" stroke-width="1.89161" stroke-linecap="square" stroke-linejoin="round"/>
<path fill-rule="evenodd" clip-rule="evenodd" d="M4.2988 199.615C2.9154 205.321 4.4942 210.99 8.7776 213.839C10.0652 214.696 11.4891 215.226 12.9775 215.452C14.3609 209.747 12.782 204.078 8.4986 201.228C7.211 200.372 5.7872 199.842 4.2988 199.615Z" fill="#FFCD89"/>
<path d="M4.29876 199.615L3.38296 199.388L3.58666 198.548L4.43686 198.677L4.29876 199.615ZM12.9775 215.452L13.8932 215.68L13.6895 216.52L12.8394 216.39L12.9775 215.452ZM5.21446 199.843C3.89596 205.281 5.43866 210.482 9.29566 213.048L8.25956 214.631C3.54976 211.497 1.93476 205.36 3.38296 199.388L5.21446 199.843ZM9.29566 213.048C10.4631 213.825 11.7562 214.307 13.1157 214.514L12.8394 216.39C11.2221 216.144 9.66736 215.567 8.25956 214.631L9.29566 213.048ZM12.0618 215.225C13.3803 209.787 11.8376 204.585 7.98056 202.019L9.01656 200.437C13.7265 203.57 15.3414 209.707 13.8932 215.68L12.0618 215.225ZM7.98056 202.019C6.81316 201.243 5.52006 200.76 4.16056 200.554L4.43686 198.677C6.05416 198.923 7.60886 199.5 9.01656 200.437L7.98056 202.019Z" fill="#FBAD41"/>
<path fill-rule="evenodd" clip-rule="evenodd" d="M486.659 80.865V221.901H516.56C517.051 221.871 517.535 222.035 517.905 222.36C518.276 222.684 518.504 223.141 518.54 223.632V229.77C518.534 232.419 509.308 234.198 495.583 234.198H239.501C228.9 234.198 218.178 232.815 216.715 230.164C216.603 229.962 216.545 229.752 216.545 229.535V223.632C216.581 223.141 216.808 222.684 217.179 222.36C217.457 222.117 217.798 221.963 218.159 221.914C218.236 221.904 218.314 221.898 218.393 221.897C218.437 221.897 218.481 221.898 218.525 221.901H248.132V80.865C248.148 77.819 249.372 74.903 251.534 72.758C253.697 70.613 256.622 69.413 259.668 69.421H475.122C478.169 69.413 481.094 70.613 483.256 72.758C485.419 74.903 486.643 77.819 486.659 80.865ZM517.191 229.727L517.186 223.632L517.185 223.628C517.185 223.626 517.185 223.623 517.185 223.621C517.178 223.445 516.91 223.251 516.56 223.251L218.524 223.255C218.166 223.255 217.899 223.454 217.899 223.632V229.535C217.907 229.574 217.925 229.614 217.954 229.657C218.641 230.662 225.375 232.842 239.499 232.842H495.583C511.183 232.842 516.88 230.56 517.191 229.727ZM517.185 223.621C517.174 223.446 516.91 223.255 516.56 223.255H218.524C218.167 223.255 217.901 223.454 217.901 223.632V229.537C217.908 229.575 217.926 229.615 217.954 229.657" fill="#FF6633"/>
<mask id="mask4_0_1" style="mask-type:luminance" maskUnits="userSpaceOnUse" x="212" y="65" width="311" height="174">
<path d="M522.545 65.421H212.545V238.421H522.545V65.421Z" fill="white"/>
<path fill-rule="evenodd" clip-rule="evenodd" d="M486.659 80.865V221.901H516.56C517.051 221.871 517.535 222.035 517.905 222.36C518.276 222.684 518.504 223.141 518.54 223.632V229.77C518.534 232.419 509.308 234.198 495.583 234.198H239.501C228.9 234.198 218.178 232.815 216.715 230.164C216.603 229.962 216.545 229.752 216.545 229.535V223.632C216.581 223.141 216.808 222.684 217.179 222.36C217.457 222.117 217.798 221.963 218.159 221.914C218.236 221.904 218.314 221.898 218.393 221.897C218.437 221.897 218.481 221.898 218.525 221.901H248.132V80.865C248.148 77.819 249.372 74.903 251.534 72.758C253.697 70.613 256.622 69.413 259.668 69.421H475.122C478.169 69.413 481.094 70.613 483.256 72.758C485.419 74.903 486.643 77.819 486.659 80.865ZM517.191 229.727L517.186 223.632L517.185 223.628C517.185 223.626 517.185 223.623 517.185 223.621C517.178 223.445 516.91 223.251 516.56 223.251L218.524 223.255C218.166 223.255 217.899 223.454 217.899 223.632V229.535C217.907 229.574 217.925 229.614 217.954 229.657C218.641 230.662 225.375 232.842 239.499 232.842H495.583C511.183 232.842 516.88 230.56 517.191 229.727ZM517.185 223.621C517.174 223.446 516.91 223.255 516.56 223.255H218.524C218.167 223.255 217.901 223.454 217.901 223.632V229.537C217.908 229.575 217.926 229.615 217.954 229.657" fill="black"/>
</mask>
<g mask="url(#mask4_0_1)">
<path d="M217.993 231.548L517.223 225.512L517.147 221.73L217.916 227.766L217.993 231.548ZM486.659 221.901H482.876V225.684H486.659V221.901ZM486.659 80.865H490.442V80.855V80.844L486.659 80.865ZM516.56 221.901V225.684H516.676L516.792 225.677L516.56 221.901ZM518.54 223.632H522.323V223.495L522.313 223.359L518.54 223.632ZM518.54 229.77L522.323 229.778V229.77H518.54ZM216.715 230.164L220.028 228.337L220.025 228.331L216.715 230.164ZM216.545 223.632L212.772 223.361L212.762 223.497V223.632H216.545ZM218.393 221.897L218.426 225.681L218.429 225.68L218.393 221.897ZM218.525 221.901L218.293 225.677L218.409 225.684H218.525V221.901ZM248.132 221.901V225.684H251.915V221.901H248.132ZM248.132 80.865L244.348 80.844V80.855V80.865H248.132ZM259.668 69.421L259.658 73.205H259.668V69.421ZM475.122 69.421V73.205H475.133L475.122 69.421ZM517.186 223.632L520.969 223.629V223.534L520.964 223.44L517.186 223.632ZM517.191 229.727L520.736 231.049L520.975 230.408L520.974 229.724L517.191 229.727ZM517.185 223.628H513.402V223.724L513.407 223.82L517.185 223.628ZM517.185 223.621L520.966 223.475L520.965 223.47L517.185 223.621ZM217.899 229.535H214.116V229.898L214.185 230.255L217.899 229.535ZM217.954 229.657L214.831 231.791V231.792L217.954 229.657ZM217.901 229.537H214.118V229.898L214.186 230.252L217.901 229.537ZM490.442 221.901V80.865H482.876V221.901H490.442ZM486.659 225.684H516.56V218.118H486.659V225.684ZM516.792 225.677C516.289 225.708 515.794 225.539 515.415 225.208L520.396 219.512C519.275 218.532 517.814 218.033 516.328 218.125L516.792 225.677ZM515.415 225.207C515.036 224.876 514.803 224.408 514.766 223.906L522.313 223.359C522.205 221.874 521.516 220.492 520.396 219.512L515.415 225.207ZM514.756 223.632V229.77H522.323V223.632H514.756ZM514.756 229.761C514.76 228.04 516.158 227.711 515.19 228.194C514.562 228.508 513.37 228.9 511.489 229.263C507.795 229.975 502.322 230.415 495.583 230.415V237.981C502.568 237.981 508.571 237.531 512.922 236.692C515.065 236.279 517.038 235.729 518.57 234.964C519.763 234.368 522.316 232.824 522.323 229.778L514.756 229.761ZM495.583 230.415H239.501V237.981H495.583V230.415ZM239.501 230.415C234.335 230.415 229.217 230.076 225.285 229.441C223.305 229.12 221.758 228.746 220.699 228.359C220.17 228.166 219.866 228.007 219.724 227.916C219.551 227.805 219.791 227.908 220.028 228.337L213.403 231.992C214.005 233.083 214.9 233.81 215.635 234.282C216.401 234.774 217.258 235.158 218.105 235.467C219.798 236.085 221.869 236.553 224.078 236.91C228.522 237.628 234.065 237.981 239.501 237.981V230.415ZM212.762 229.535C212.762 230.459 213.016 231.294 213.406 231.997L220.025 228.331C220.191 228.63 220.329 229.046 220.329 229.535H212.762ZM212.762 223.632V229.535H220.329V223.632H212.762ZM214.687 219.513C213.567 220.493 212.879 221.876 212.772 223.361L220.319 223.903C220.283 224.406 220.05 224.875 219.67 225.207L214.687 219.513ZM217.651 218.165C216.56 218.313 215.528 218.777 214.687 219.513L219.67 225.207C219.385 225.456 219.036 225.613 218.666 225.663L217.651 218.165ZM218.359 218.114C218.121 218.116 217.885 218.134 217.651 218.165L218.666 225.663C218.587 225.674 218.507 225.68 218.426 225.681L218.359 218.114ZM218.429 225.68C218.39 225.681 218.345 225.68 218.293 225.677L218.757 218.125C218.617 218.116 218.483 218.113 218.356 218.114L218.429 225.68ZM218.525 225.684H248.132V218.118H218.525V225.684ZM244.348 80.865V221.901H251.915V80.865H244.348ZM248.87 70.072C245.996 72.923 244.37 76.797 244.348 80.844L251.915 80.885C251.926 78.841 252.747 76.884 254.199 75.444L248.87 70.072ZM259.679 65.638C255.631 65.627 251.744 67.221 248.87 70.072L254.199 75.444C255.65 74.004 257.613 73.199 259.658 73.205L259.679 65.638ZM475.122 65.638H259.668V73.205H475.122V65.638ZM485.921 70.072C483.047 67.221 479.16 65.627 475.112 65.638L475.133 73.205C477.177 73.199 479.141 74.004 480.592 75.444L485.921 70.072ZM490.442 80.844C490.421 76.797 488.795 72.923 485.921 70.072L480.592 75.444C482.044 76.884 482.865 78.841 482.876 80.885L490.442 80.844ZM513.402 223.635L513.408 229.73L520.974 229.724L520.969 223.629L513.402 223.635ZM513.407 223.82V223.825L520.964 223.44V223.436L513.407 223.82ZM513.405 223.767C513.404 223.739 513.402 223.69 513.402 223.628H520.969C520.969 223.561 520.967 223.507 520.966 223.475L513.405 223.767ZM516.56 227.034C516.061 227.034 515.508 226.901 514.982 226.57C514.719 226.403 514.387 226.139 514.087 225.732C513.792 225.331 513.441 224.664 513.405 223.772L520.965 223.47C520.89 221.575 519.597 220.534 519.02 220.17C518.271 219.698 517.409 219.468 516.56 219.468V227.034ZM218.524 227.038L516.56 227.034V219.468L218.524 219.472V227.038ZM221.683 223.632C221.683 225.404 220.502 226.314 220.132 226.554C219.59 226.904 219.023 227.038 218.524 227.038V219.472C217.667 219.472 216.788 219.705 216.023 220.2C215.43 220.583 214.116 221.682 214.116 223.632H221.683ZM221.683 229.535V223.632H214.116V229.535H221.683ZM221.078 227.523C221.253 227.778 221.497 228.214 221.614 228.816L214.185 230.255C214.317 230.933 214.597 231.45 214.831 231.791L221.078 227.523ZM239.499 229.058C232.619 229.058 227.647 228.527 224.393 227.909C222.758 227.599 221.62 227.279 220.92 227.024C220.565 226.895 220.392 226.807 220.35 226.784C220.187 226.692 220.651 226.898 221.078 227.522L214.831 231.792C215.429 232.667 216.254 233.161 216.646 233.381C217.159 233.669 217.735 233.917 218.329 234.133C219.526 234.569 221.083 234.983 222.983 235.343C226.798 236.067 232.255 236.625 239.499 236.625V229.058ZM495.583 229.058H239.499V236.625H495.583V229.058ZM513.646 228.405C513.889 227.754 514.253 227.364 514.396 227.222C514.566 227.051 514.7 226.962 514.733 226.94C514.799 226.897 514.737 226.946 514.463 227.056C513.931 227.27 512.949 227.577 511.387 227.885C508.283 228.499 503.217 229.058 495.583 229.058V236.625C503.549 236.625 509.131 236.044 512.854 235.308C514.705 234.942 516.18 234.522 517.291 234.074C517.839 233.854 518.395 233.588 518.893 233.26C519.191 233.064 520.243 232.371 520.736 231.049L513.646 228.405ZM516.56 227.038C516.07 227.038 515.52 226.909 514.993 226.579C514.626 226.35 513.513 225.52 513.409 223.857L520.961 223.385C520.846 221.547 519.596 220.534 519.007 220.165C518.257 219.696 517.4 219.472 516.56 219.472V227.038ZM218.524 227.038H516.56V219.472H218.524V227.038ZM221.684 223.632C221.684 225.404 220.502 226.315 220.132 226.554C219.59 226.904 219.023 227.038 218.524 227.038V219.472C217.667 219.472 216.789 219.706 216.025 220.2C215.432 220.583 214.118 221.682 214.118 223.632H221.684ZM221.684 229.537V223.632H214.118V229.537H221.684ZM221.089 227.539C221.263 227.797 221.502 228.229 221.616 228.823L214.186 230.252C214.314 230.921 214.589 231.433 214.819 231.775L221.089 227.539Z" fill="white"/>
</g>
<path d="M130.997 223.036H233.302V208.58H130.997V223.036Z" fill="#FFF7EC" stroke="#F6821F" stroke-width="1.89161"/>
<path d="M140.407 208.58H231.081V202.923H140.407V208.58Z" fill="#FFF7EC" stroke="#FBAD41" stroke-width="1.89161"/>
<path d="M134.178 231.836H222.703V223.036H134.178V231.836Z" fill="#FFCD89" stroke="#F6821F" stroke-width="1.89161"/>
<path d="M201.507 215.496C201.507 217.61 200.082 219.265 198.432 219.265H158.45C156.725 219.265 155.374 217.518 155.374 215.496C155.374 213.381 156.8 211.726 158.45 211.726H198.432C200.082 211.634 201.507 213.381 201.507 215.496Z" fill="white"/>
<path d="M146.018 208.58H140.407V223.036H146.018V208.58Z" fill="#FFE9CB" stroke="#F6821F" stroke-width="1.89161"/>
<path d="M172.83 202.923H167.219V208.58H172.83V202.923Z" fill="#FFE9CB" stroke="#FF6633" stroke-width="1.89161"/>
<path d="M222.704 202.923H217.093V208.58H222.704V202.923Z" fill="#FFE9CB" stroke="#FF6633" stroke-width="1.89161"/>
<path fill-rule="evenodd" clip-rule="evenodd" d="M474.009 70.096H258.552C255.691 70.105 252.948 71.239 250.916 73.254C248.884 75.268 247.727 78.001 247.693 80.862V222.578H484.866V80.865C484.836 78.003 483.68 75.268 481.647 73.252C479.615 71.236 476.871 70.103 474.009 70.096Z" fill="url(#paint1_linear_0_1)"/>
<path d="M474.832 87.037H257.172V213.882H474.832V87.037Z" fill="white"/>
<path fill-rule="evenodd" clip-rule="evenodd" d="M495.125 233.509H239.039C225.727 233.509 216.762 231.468 216.762 229.525V223.62C216.798 223.309 216.954 223.024 217.197 222.827C217.44 222.63 217.751 222.536 218.063 222.566H516.1C516.412 222.536 516.723 222.629 516.967 222.827C517.21 223.024 517.367 223.309 517.402 223.62V229.758C517.402 231.296 510.456 233.509 495.125 233.509Z" fill="url(#paint2_linear_0_1)"/>
<path fill-rule="evenodd" clip-rule="evenodd" d="M516.508 229.758C516.508 231.293 509.562 233.509 494.231 233.509H238.145C224.833 233.509 215.868 231.468 215.868 229.525L516.508 229.758Z" fill="white"/>
<path fill-rule="evenodd" clip-rule="evenodd" d="M398.844 223V224.342C398.844 225.298 396.962 225.586 395.537 225.586H337.081C335.583 225.586 333.687 225.298 333.687 224.342V223" fill="#FF6633"/>
<path d="M495.169 234.198H239.087C227.68 234.198 216.133 232.597 216.133 229.537V223.632C216.168 223.141 216.396 222.684 216.766 222.36C217.137 222.035 217.62 221.871 218.112 221.901H516.146C516.638 221.871 517.121 222.035 517.492 222.36C517.863 222.684 518.091 223.141 518.126 223.632V229.77C518.12 232.419 508.894 234.198 495.169 234.198ZM218.11 223.255C217.753 223.255 217.486 223.454 217.486 223.632V229.535C217.667 230.472 224.36 232.842 239.086 232.842H495.169C510.769 232.842 516.467 230.56 516.777 229.727L516.772 223.628C516.772 223.45 516.501 223.251 516.146 223.251L218.11 223.255Z" fill="#FF6633" stroke="#FF6633" stroke-width="0.630537"/>
<path d="M516.146 221.901H486.245V80.865C486.229 77.819 485.005 74.903 482.843 72.758C480.68 70.613 477.755 69.413 474.709 69.421H259.255C256.208 69.413 253.283 70.613 251.121 72.758C248.958 74.903 247.734 77.819 247.718 80.865V221.901H218.11C217.619 221.871 217.135 222.036 216.765 222.36C216.395 222.684 216.167 223.141 216.132 223.632V229.535C216.132 232.595 227.68 234.196 239.086 234.196H495.169C508.894 234.196 518.12 232.417 518.123 229.768V223.63C518.087 223.14 517.86 222.684 517.49 222.36C517.12 222.036 516.637 221.871 516.146 221.901ZM249.072 80.865C249.12 78.188 250.211 75.635 252.113 73.751C254.015 71.866 256.577 70.799 259.255 70.776H474.713C477.401 70.767 479.982 71.824 481.89 73.715C483.799 75.606 484.88 78.178 484.896 80.865V221.901H249.072V80.865ZM495.169 232.844H239.087C224.36 232.844 217.667 230.474 217.487 229.537V223.632C217.487 223.454 217.754 223.255 218.112 223.255H516.146C516.504 223.255 516.772 223.454 516.772 223.632L516.777 229.732C516.467 230.563 510.769 232.844 495.169 232.844Z" fill="#FF6633" stroke="#FF6633" stroke-width="0.630537"/>
<path d="M445.173 207.869C456.614 207.869 465.889 198.594 465.889 187.153C465.889 175.712 456.614 166.438 445.173 166.438C433.732 166.438 424.458 175.712 424.458 187.153C424.458 198.594 433.732 207.869 445.173 207.869Z" fill="white"/>
<path fill-rule="evenodd" clip-rule="evenodd" d="M555.719 116.106C581.454 123.002 596.732 149.259 589.892 174.785C583.059 200.284 556.671 215.377 530.966 208.489C529.327 208.05 527.683 207.519 526.118 206.92L529.315 202.671C529.76 202.82 530.232 202.977 530.705 203.134L531.351 200.724C530.759 200.445 530.381 200.164 530.448 199.911C532.156 200.429 533.964 200.914 535.702 201.319C535.635 201.571 535.166 201.626 534.515 201.572L533.869 203.981C556.354 209.105 579.015 195.717 584.977 173.468C590.945 151.192 578.014 128.267 555.972 121.49L555.327 123.899C555.918 124.178 556.297 124.46 556.229 124.712C554.529 124.166 552.721 123.682 550.975 123.304C551.043 123.052 551.512 122.997 552.163 123.052L552.809 120.642C551.615 120.352 550.427 120.154 549.231 119.984L548.6 114.769C550.957 115.01 553.347 115.47 555.719 116.106Z" fill="#FF6633"/>
<path fill-rule="evenodd" clip-rule="evenodd" d="M556.288 225.426C559.526 226.079 570.02 226.59 570.83 231.985H516.305C517.115 226.59 527.609 226.05 530.847 225.426C536.34 220.144 539.549 214.891 540.474 209.638C541.486 209.695 542.527 209.752 543.567 209.752C544.608 209.752 545.649 209.724 546.661 209.638C547.586 214.891 550.795 220.144 556.288 225.426Z" fill="#FF6633"/>
<path d="M505.844 152.362L523.441 157.077C525.251 150.322 527.902 143.984 531.156 138.95L516.047 134.902C511.194 139.507 507.702 145.429 505.844 152.362Z" fill="white"/>
<path d="M523.44 157.077L505.844 152.362C504.034 159.116 504.049 166.169 505.772 172.536L520.88 176.585C520.954 174.89 520.897 172.969 520.97 171.274C521.449 166.64 522.107 162.054 523.44 157.077Z" fill="white"/>
<path d="M516.048 134.902L531.156 138.95C537.712 128.704 546.158 122.776 553.624 124.776C539.759 121.061 525.672 125.288 516.048 134.902Z" fill="white"/>
<path d="M521.106 176.454L505.998 172.406C509.574 185.366 519.613 196.248 533.655 200.01C526.142 198.188 521.565 188.96 521.106 176.454Z" fill="white"/>
<path d="M523.441 157.077L543.704 162.506L548.753 143.665L531.334 138.998C528.08 144.032 525.299 150.145 523.441 157.077Z" fill="#EFF6FF"/>
<path d="M543.704 162.506L523.441 157.076C522.155 161.875 521.225 166.77 520.97 171.274C520.849 173.147 520.906 175.067 520.881 176.584L538.478 181.299L543.526 162.458L543.704 162.506Z" fill="#EFF6FF"/>
<path d="M538.703 181.169L521.284 176.502C521.838 188.652 526.189 198.01 533.655 200.01L538.703 181.169Z" fill="#EFF6FF"/>
<path d="M553.801 124.824C546.335 122.824 537.889 128.752 531.333 138.998L548.752 143.665L553.801 124.824Z" fill="#EFF6FF" stroke="#FF6633" stroke-width="2.00905"/>
<path d="M538.703 181.17L533.655 200.011C541.12 202.011 549.567 196.082 556.122 185.837L538.703 181.17Z" fill="#E0EDFF"/>
<path d="M543.704 162.507L538.655 181.348L556.074 186.015C559.328 180.981 561.979 174.643 563.789 167.888L543.704 162.507Z" fill="#E0EDFF"/>
<path d="M548.753 143.665L543.704 162.506L563.967 167.936C565.777 161.181 566.65 154.367 566.349 148.38L548.753 143.665Z" fill="#E0EDFF"/>
<path d="M553.801 124.824L548.753 143.665L566.172 148.332C565.665 136.004 561.266 126.824 553.801 124.824Z" fill="#E0EDFF"/>
<path d="M553.801 124.824C561.266 126.824 565.617 136.182 566.172 148.332L581.28 152.381C577.929 139.29 567.665 128.539 553.801 124.824Z" fill="#BDD0FF"/>
<path d="M556.122 185.837C549.567 196.082 541.12 202.011 533.655 200.01C547.697 203.773 561.831 199.368 571.408 189.933L556.122 185.837Z" fill="#BDD0FF"/>
<path d="M556.122 185.836L571.231 189.885C576.084 185.279 579.446 179.132 581.256 172.377L563.659 167.662C561.932 174.82 559.329 180.98 556.122 185.836Z" fill="#BDD0FF"/>
<path d="M581.28 152.381L566.171 148.333C566.472 154.319 565.599 161.134 563.789 167.888L581.386 172.603C583.243 165.671 583.181 158.796 581.28 152.381Z" fill="#BDD0FF"/>
<path d="M505.844 152.362C504.034 159.116 504.05 166.169 505.773 172.536C509.349 185.496 519.387 196.378 533.429 200.141C547.471 203.903 561.606 199.499 571.183 190.063C576.037 185.458 579.398 179.31 581.208 172.555C583.018 165.801 583.003 158.748 581.28 152.381C577.704 139.421 567.665 128.539 553.623 124.776C539.581 121.014 525.447 125.418 515.869 134.854C511.194 139.507 507.702 145.43 505.844 152.362Z" stroke="#FF6633" stroke-width="2.00905" stroke-miterlimit="10"/>
<path d="M521.148 171.321C521.027 173.194 521.084 175.114 521.059 176.632C521.613 188.782 525.964 198.14 533.429 200.14C540.895 202.14 549.341 196.212 555.897 185.967C559.151 180.933 561.802 174.594 563.611 167.84C565.421 161.086 566.295 154.271 565.994 148.284C565.439 136.134 561.088 126.776 553.623 124.776C546.158 122.776 537.711 128.704 531.156 138.95C527.902 143.983 525.251 150.322 523.441 157.076C522.107 162.053 521.45 166.64 521.148 171.321Z" stroke="#FF6633" stroke-width="2.00905" stroke-miterlimit="10"/>
<path d="M581.386 172.603L563.789 167.887L543.704 162.506L523.441 157.076L505.844 152.361" stroke="#FF6633" stroke-width="2.00905" stroke-miterlimit="10"/>
<path d="M553.801 124.824L548.752 143.665L543.704 162.506L538.703 181.169L533.655 200.01" stroke="#FF6633" stroke-width="2.00905" stroke-miterlimit="10"/>
<path d="M581.28 152.381L566.172 148.333L548.753 143.665L531.156 138.95L516.048 134.902" stroke="#FF6633" stroke-width="2.00905" stroke-miterlimit="10"/>
<path d="M571.231 189.885L556.122 185.837L538.703 181.169L521.107 176.454L505.998 172.406" stroke="#FF6633" stroke-width="2.00905" stroke-miterlimit="10"/>
<path d="M621.896 144.409V231.475H635.426V144.409H621.896Z" fill="#FFE9CB" stroke="#F6821F" stroke-width="1.89161"/>
<path d="M608.365 150.292V231.475H621.896V150.292H608.365Z" fill="#FFCD89" stroke="#F6821F" stroke-width="1.89161"/>
<path d="M591.305 133.82V231.475H608.365V133.82H591.305Z" fill="#FFE9CB" stroke="#F6821F" stroke-width="1.89161"/>
<path d="M635.426 172.646V231.475H646.015V172.646H635.426Z" fill="#FFCD89" stroke="#FBAD41" stroke-width="1.89161"/>
<path d="M608.365 153.233H591.305V165.417H608.365V153.233Z" fill="white" stroke="#F6821F" stroke-width="1.89161"/>
<path d="M608.365 199.708H591.305V212.061H608.365V199.708Z" fill="white" stroke="#F6821F" stroke-width="1.89161"/>
<path d="M628.953 219.121C626.974 219.121 625.425 217.194 625.425 214.964V160.92C625.425 158.588 627.06 156.763 628.953 156.763C630.933 156.763 632.482 158.689 632.482 160.92V214.964C632.568 217.194 630.933 219.121 628.953 219.121Z" fill="white"/>
<path d="M616.155 219.709H613.518C612.327 219.709 611.307 218.498 611.307 217.085V198.213C611.307 196.801 612.327 195.589 613.518 195.589H616.155C617.345 195.589 618.366 196.801 618.366 198.213V217.085C618.366 218.599 617.345 219.709 616.155 219.709Z" fill="#FFE9CB" stroke="#FBAD41" stroke-width="1.89161"/>
<path d="M227.854 152.371V152.374C227.916 154.12 227.34 156.205 226.363 158.411C225.394 160.601 224.067 162.83 222.717 164.838C221.369 166.843 220.011 168.61 218.988 169.877C218.477 170.51 218.051 171.016 217.754 171.363C217.685 171.444 217.623 171.516 217.569 171.579H190.293C190.239 171.516 190.177 171.444 190.108 171.363C189.811 171.016 189.385 170.51 188.874 169.877C187.851 168.61 186.493 166.843 185.145 164.838C183.795 162.83 182.468 160.601 181.499 158.411C180.522 156.205 179.946 154.12 180.008 152.374C180.084 150.263 180.998 145.05 182.361 138.308C183.717 131.606 185.496 123.492 187.266 115.649C189.036 107.807 190.796 100.239 192.113 94.632C192.772 91.829 193.32 89.516 193.704 87.903C193.886 87.139 194.03 86.532 194.132 86.106H195.602H212.26H213.73C213.832 86.532 213.978 87.139 214.16 87.904C214.544 89.516 215.094 91.829 215.754 94.633C217.075 100.24 218.839 107.807 220.611 115.649C222.384 123.493 224.164 131.606 225.517 138.308C226.879 145.051 227.788 150.262 227.854 152.371Z" fill="white" stroke="#FF6633" stroke-width="1.89161"/>
<path d="M204.861 162.05C204.94 164.955 204.465 167.562 203.04 169.126C202.526 169.685 201.893 170.094 201.102 170.392C200.548 170.578 199.954 170.653 199.4 170.653C186.106 170.429 205.137 165.29 191.922 155.087C187.332 151.586 174.829 144.548 188.203 131.588C193.465 126.486 203.871 127.306 205.494 131.812C207.868 138.478 204.821 142.537 203.871 146.41C201.814 154.863 204.861 160.598 204.861 162.05Z" fill="#FBAD41"/>
<path d="M195.443 116.543C195.205 116.319 195.007 116.096 194.81 115.798C189.587 107.754 190.022 96.247 201.22 88.091C202.011 87.421 205.097 86.9 206.719 87.644C206.799 87.682 206.838 87.719 206.917 87.719C221.122 92.932 208.381 106.041 201.734 115.425C200.191 117.623 197.263 118.181 195.443 116.58C195.482 116.58 195.443 116.543 195.443 116.543Z" fill="#FF6633"/>
<path d="M220.846 142.349C221.004 142.536 221.162 142.722 221.321 142.945C225.238 149.35 224.921 157.767 216.533 162.757C215.939 163.167 213.645 163.278 212.418 162.608C212.378 162.571 212.299 162.533 212.26 162.533C201.656 157.394 211.152 148.904 216.098 142.61C217.245 141.158 219.461 141.009 220.767 142.312C220.806 142.312 220.846 142.312 220.846 142.349Z" fill="#FBAD41"/>
<path d="M213.328 110.659C216.849 111.292 218.115 115.5 218.155 115.574C218.867 120.676 217.443 121.607 211.033 127.752C206.641 131.96 205.573 136.652 202.605 138.552C198.767 141.047 192.397 140.86 194.81 135.423C195.72 133.152 205.77 128.124 206.483 125.853C207.274 123.246 201.893 122.278 203.832 115.351C204.346 113.415 207.788 109.653 213.328 110.659Z" fill="#FD8639"/>
<path d="M218.353 140.079C217.007 140.191 214.633 138.478 214.554 138.403C212.615 136.765 213.209 134.27 215.86 133.003C216.651 132.668 218.234 132.259 218.788 132.594C220.727 133.637 219.777 135.461 220.608 136.914C220.766 137.174 221.36 139.856 218.353 140.079Z" fill="#FD8639"/>
<path d="M211.971 84.643H213.365L215.171 92.261H192.69L194.496 84.643H195.89H211.971Z" fill="#E0EDFF" stroke="#FF6633" stroke-width="1.89161"/>
<path d="M225.933 202.329H182.116L184.957 194.782L184.96 194.775L184.962 194.767L192.485 173.689L192.635 173.27L192.408 172.888L187.795 165.119H220.254L215.641 172.888L215.414 173.27L215.563 173.689L223.086 194.767L223.089 194.775L223.092 194.782L225.933 202.329Z" fill="#E0EDFF" stroke="#FF6633" stroke-width="1.89161"/>
<path d="M222.579 164.895L216.332 173.654H191.742L185.164 164.895H222.579Z" fill="#BDD0FF" stroke="#FF6633" stroke-width="1.89161"/>
<path d="M217 201H201L202.037 193.698L202.039 193.692L202.039 193.684L204.786 173.291L204.841 172.886L204.758 172.516L203.074 165H214.926L213.242 172.516L213.159 172.886L213.213 173.291L215.96 193.684L215.962 193.692L215.963 193.698L217 201Z" fill="white"/>
<path d="M222.579 164.895L216.332 173.654H191.742L185.164 164.895H222.579Z" stroke="#FF6633" stroke-width="1.89161"/>
<path fill-rule="evenodd" clip-rule="evenodd" d="M673.758 231.416H687.75L686.96 227.873C694.942 223.273 700.315 214.654 700.315 204.779C700.315 193.381 693.157 183.656 683.09 179.853L683.781 172.111H663.154L663.967 179.968C654.059 183.85 647.042 193.495 647.042 204.779C647.042 214.653 652.415 223.273 660.396 227.873L659.606 231.416H673.6C673.626 231.416 673.652 231.416 673.679 231.416C673.705 231.416 673.731 231.416 673.758 231.416Z" fill="#FFE9CB"/>
<path d="M687.75 231.416V232.361H688.93L688.673 231.21L687.75 231.416ZM673.758 231.416V230.47H673.755L673.758 231.416ZM686.96 227.873L686.488 227.054L685.886 227.401L686.037 228.079L686.96 227.873ZM683.09 179.853L682.148 179.769L682.085 180.484L682.756 180.738L683.09 179.853ZM683.781 172.111L684.723 172.195L684.815 171.166H683.781V172.111ZM663.154 172.111V171.166H662.105L662.213 172.209L663.154 172.111ZM663.967 179.968L664.312 180.849L664.982 180.587L664.908 179.871L663.967 179.968ZM660.396 227.873L661.319 228.079L661.471 227.401L660.869 227.054L660.396 227.873ZM659.606 231.416L658.683 231.21L658.426 232.361H659.606V231.416ZM673.6 231.416L673.602 230.47H673.6V231.416ZM687.75 230.47H673.758V232.361H687.75V230.47ZM686.037 228.079L686.827 231.622L688.673 231.21L687.883 227.668L686.037 228.079ZM699.37 204.779C699.37 214.302 694.189 222.616 686.488 227.054L687.432 228.693C695.695 223.931 701.261 215.005 701.261 204.779H699.37ZM682.756 180.738C692.467 184.406 699.37 193.788 699.37 204.779H701.261C701.261 192.975 693.847 182.905 683.425 178.968L682.756 180.738ZM682.839 172.027L682.148 179.769L684.032 179.937L684.723 172.195L682.839 172.027ZM663.154 173.057H683.781V171.166H663.154V173.057ZM664.908 179.871L664.095 172.014L662.213 172.209L663.026 180.066L664.908 179.871ZM647.988 204.779C647.988 193.897 654.754 184.593 664.312 180.849L663.622 179.088C653.363 183.106 646.096 193.093 646.096 204.779H647.988ZM660.869 227.054C653.168 222.615 647.988 214.301 647.988 204.779H646.096C646.096 215.005 651.661 223.93 659.924 228.692L660.869 227.054ZM660.529 231.622L661.319 228.079L659.473 227.667L658.683 231.21L660.529 231.622ZM673.6 230.47H659.606V232.361H673.6V230.47ZM673.679 230.47C673.653 230.47 673.628 230.47 673.602 230.47L673.597 232.361C673.624 232.361 673.651 232.362 673.679 232.362V230.47ZM673.755 230.47C673.729 230.47 673.704 230.47 673.679 230.47V232.362C673.706 232.362 673.733 232.361 673.76 232.361L673.755 230.47Z" fill="#FBAD41"/>
<path d="M680.213 231.164V148.921C680.213 144.558 682.035 140.394 685.239 137.433" stroke="#FBAD41" stroke-width="1.89161"/>
<path d="M666.643 231.416V157.514C666.643 149.201 664.385 141.045 660.109 133.915" stroke="#FBAD41" stroke-width="1.89161"/>
<path d="M675.689 230.913V138.468C675.689 119.798 668.278 101.892 655.084 88.683" stroke="#FBAD41" stroke-width="1.89161"/>
<path d="M671.166 231.165V142.988C671.166 124.319 678.578 106.414 691.772 93.207" stroke="#FBAD41" stroke-width="1.89161"/>
<path fill-rule="evenodd" clip-rule="evenodd" d="M690.896 85.96C692.263 90.184 691.129 95.006 687.613 98.166C686.557 99.116 685.374 99.836 684.126 100.329C682.758 96.104 683.893 91.283 687.408 88.123C688.465 87.173 689.648 86.453 690.896 85.96Z" fill="#FBAD41"/>
<mask id="mask5_0_1" style="mask-type:luminance" maskUnits="userSpaceOnUse" x="683" y="85" width="9" height="16">
<path fill-rule="evenodd" clip-rule="evenodd" d="M690.896 85.96C692.263 90.184 691.129 95.006 687.613 98.166C686.557 99.116 685.374 99.836 684.126 100.329C682.758 96.104 683.893 91.283 687.408 88.123C688.465 87.173 689.648 86.453 690.896 85.96Z" fill="white"/>
</mask>
<g mask="url(#mask5_0_1)">
<path d="M690.896 85.96L692.695 85.377L692.075 83.46L690.2 84.201L690.896 85.96ZM684.126 100.329L682.326 100.911L682.947 102.829L684.821 102.088L684.126 100.329ZM689.096 86.542C690.242 90.082 689.289 94.116 686.349 96.759L688.878 99.573C692.969 95.895 694.284 90.287 692.695 85.377L689.096 86.542ZM686.349 96.759C685.462 97.556 684.472 98.158 683.43 98.57L684.821 102.088C686.275 101.513 687.651 100.675 688.878 99.573L686.349 96.759ZM685.925 99.746C684.78 96.206 685.733 92.172 688.673 89.53L686.143 86.716C682.053 90.393 680.737 96.002 682.326 100.911L685.925 99.746ZM688.673 89.53C689.559 88.732 690.549 88.131 691.591 87.719L690.2 84.201C688.746 84.775 687.37 85.614 686.143 86.716L688.673 89.53Z" fill="#FF6633"/>
</g>
<path fill-rule="evenodd" clip-rule="evenodd" d="M684.277 100.401C686.127 96.364 690.223 93.58 694.95 93.63C696.37 93.645 697.729 93.915 698.982 94.396C697.132 98.432 693.035 101.216 688.309 101.167C686.888 101.151 685.53 100.882 684.277 100.401Z" fill="#FBAD41"/>
<mask id="mask6_0_1" style="mask-type:luminance" maskUnits="userSpaceOnUse" x="684" y="93" width="15" height="9">
<path fill-rule="evenodd" clip-rule="evenodd" d="M684.277 100.401C686.127 96.364 690.223 93.58 694.95 93.63C696.37 93.645 697.729 93.915 698.982 94.396C697.132 98.432 693.035 101.216 688.309 101.167C686.888 101.151 685.53 100.882 684.277 100.401Z" fill="white"/>
</mask>
<g mask="url(#mask6_0_1)">
<path d="M684.277 100.401L682.557 99.613L681.717 101.445L683.599 102.167L684.277 100.401ZM698.982 94.396L700.701 95.184L701.541 93.351L699.659 92.63L698.982 94.396ZM685.996 101.189C687.546 97.807 690.977 95.48 694.93 95.522L694.97 91.739C689.469 91.68 684.707 94.922 682.557 99.613L685.996 101.189ZM694.93 95.522C696.122 95.534 697.258 95.76 698.304 96.162L699.659 92.63C698.2 92.069 696.619 91.756 694.97 91.739L694.93 95.522ZM697.262 93.607C695.712 96.99 692.282 99.317 688.329 99.275L688.289 103.058C693.789 103.116 698.551 99.875 700.701 95.184L697.262 93.607ZM688.329 99.275C687.136 99.262 686 99.036 684.954 98.635L683.599 102.167C685.059 102.727 686.64 103.041 688.289 103.058L688.329 99.275Z" fill="#FF6633"/>
</g>
<path fill-rule="evenodd" clip-rule="evenodd" d="M695.697 89.094C695.469 93.529 692.692 97.63 688.281 99.33C686.955 99.841 685.592 100.092 684.25 100.108C684.478 95.674 687.256 91.573 691.667 89.873C692.993 89.362 694.355 89.111 695.697 89.094Z" fill="#FBAD41"/>
<mask id="mask7_0_1" style="mask-type:luminance" maskUnits="userSpaceOnUse" x="684" y="89" width="12" height="12">
<path fill-rule="evenodd" clip-rule="evenodd" d="M695.697 89.094C695.469 93.529 692.692 97.63 688.281 99.33C686.955 99.841 685.592 100.092 684.25 100.108C684.478 95.674 687.256 91.573 691.667 89.873C692.993 89.362 694.355 89.111 695.697 89.094Z" fill="white"/>
</mask>
<g mask="url(#mask7_0_1)">
<path d="M695.697 89.094L697.586 89.192L697.69 87.179L695.674 87.203L695.697 89.094ZM684.25 100.108L682.361 100.011L682.258 102.024L684.273 102L684.25 100.108ZM693.808 88.997C693.617 92.713 691.289 96.143 687.6 97.565L688.961 101.095C694.094 99.117 697.322 94.345 697.586 89.192L693.808 88.997ZM687.6 97.565C686.487 97.994 685.348 98.203 684.228 98.217L684.273 102C685.837 101.981 687.422 101.688 688.961 101.095L687.6 97.565ZM686.139 100.205C686.33 96.489 688.658 93.06 692.347 91.638L690.987 88.108C685.854 90.086 682.626 94.858 682.361 100.011L686.139 100.205ZM692.347 91.638C693.46 91.209 694.599 90.999 695.72 90.986L695.674 87.203C694.111 87.222 692.526 87.515 690.987 88.108L692.347 91.638Z" fill="#FF6633"/>
</g>
<path fill-rule="evenodd" clip-rule="evenodd" d="M680.069 144.291C677.872 140.433 678.003 135.482 680.803 131.673C681.644 130.528 682.656 129.583 683.778 128.846C685.975 132.705 685.845 137.656 683.045 141.464C682.203 142.609 681.191 143.555 680.069 144.291Z" fill="#FBAD41"/>
<mask id="mask8_0_1" style="mask-type:luminance" maskUnits="userSpaceOnUse" x="678" y="128" width="8" height="17">
<path fill-rule="evenodd" clip-rule="evenodd" d="M680.069 144.291C677.872 140.433 678.003 135.482 680.803 131.673C681.644 130.528 682.656 129.583 683.778 128.846C685.975 132.705 685.845 137.656 683.045 141.464C682.203 142.609 681.191 143.555 680.069 144.291Z" fill="white"/>
</mask>
<g mask="url(#mask8_0_1)">
<path d="M680.069 144.291L678.425 145.227L679.423 146.979L681.108 145.872L680.069 144.291ZM683.778 128.846L685.422 127.91L684.424 126.158L682.74 127.265L683.778 128.846ZM681.713 143.355C679.872 140.122 679.985 135.979 682.327 132.793L679.278 130.553C676.02 134.984 675.872 140.743 678.425 145.227L681.713 143.355ZM682.327 132.793C683.033 131.832 683.88 131.042 684.816 130.427L682.74 127.265C681.433 128.123 680.255 129.224 679.278 130.553L682.327 132.793ZM682.134 129.782C683.975 133.015 683.862 137.159 681.521 140.344L684.569 142.585C687.827 138.153 687.975 132.394 685.422 127.91L682.134 129.782ZM681.521 140.344C680.814 141.305 679.967 142.095 679.031 142.71L681.108 145.872C682.415 145.014 683.592 143.913 684.569 142.585L681.521 140.344Z" fill="#FF6633"/>
</g>
<path fill-rule="evenodd" clip-rule="evenodd" d="M693.409 135.462C692.418 139.791 688.973 143.35 684.335 144.262C682.941 144.536 681.556 144.548 680.232 144.332C681.223 140.003 684.668 136.444 689.306 135.532C690.7 135.259 692.085 135.247 693.409 135.462Z" fill="#FBAD41"/>
<mask id="mask9_0_1" style="mask-type:luminance" maskUnits="userSpaceOnUse" x="680" y="135" width="14" height="10">
<path fill-rule="evenodd" clip-rule="evenodd" d="M693.409 135.462C692.418 139.791 688.973 143.35 684.335 144.262C682.941 144.536 681.556 144.548 680.232 144.332C681.223 140.003 684.668 136.444 689.306 135.532C690.7 135.259 692.085 135.247 693.409 135.462Z" fill="white"/>
</mask>
<g mask="url(#mask9_0_1)">
<path d="M693.409 135.462L695.253 135.885L695.703 133.92L693.714 133.596L693.409 135.462ZM680.232 144.332L678.388 143.91L677.938 145.874L679.927 146.199L680.232 144.332ZM691.565 135.04C690.735 138.667 687.849 141.643 683.97 142.406L684.699 146.118C690.097 145.057 694.101 140.915 695.253 135.885L691.565 135.04ZM683.97 142.406C682.8 142.636 681.642 142.645 680.536 142.465L679.927 146.199C681.47 146.45 683.082 146.436 684.699 146.118L683.97 142.406ZM682.076 144.754C682.906 141.127 685.792 138.151 689.671 137.389L688.941 133.676C683.544 134.737 679.539 138.879 678.388 143.91L682.076 144.754ZM689.671 137.389C690.841 137.159 691.999 137.149 693.105 137.329L693.714 133.596C692.171 133.344 690.559 133.358 688.941 133.676L689.671 137.389Z" fill="#FF6633"/>
</g>
<path fill-rule="evenodd" clip-rule="evenodd" d="M689.116 130.94C689.795 135.328 687.908 139.908 683.935 142.469C682.74 143.238 681.458 143.761 680.148 144.05C679.469 139.661 681.356 135.081 685.329 132.52C686.523 131.751 687.806 131.228 689.116 130.94Z" fill="#FBAD41"/>
<mask id="mask10_0_1" style="mask-type:luminance" maskUnits="userSpaceOnUse" x="680" y="130" width="10" height="15">
<path fill-rule="evenodd" clip-rule="evenodd" d="M689.116 130.94C689.795 135.328 687.908 139.908 683.935 142.469C682.74 143.238 681.458 143.761 680.148 144.05C679.469 139.661 681.356 135.081 685.329 132.52C686.523 131.751 687.806 131.228 689.116 130.94Z" fill="white"/>
</mask>
<g mask="url(#mask10_0_1)">
<path d="M689.116 130.94L690.986 130.651L690.678 128.659L688.709 129.092L689.116 130.94ZM680.148 144.05L678.278 144.339L678.586 146.33L680.555 145.897L680.148 144.05ZM687.247 131.228C687.815 134.906 686.233 138.737 682.91 140.879L684.959 144.059C689.583 141.079 691.774 135.75 690.986 130.651L687.247 131.228ZM682.91 140.879C681.908 141.525 680.835 141.961 679.741 142.202L680.555 145.897C682.081 145.561 683.573 144.952 684.959 144.059L682.91 140.879ZM682.017 143.761C681.449 140.083 683.031 136.252 686.354 134.11L684.305 130.93C679.681 133.911 677.49 139.239 678.278 144.339L682.017 143.761ZM686.354 134.11C687.356 133.464 688.429 133.028 689.523 132.787L688.709 129.092C687.183 129.428 685.691 130.037 684.305 130.93L686.354 134.11Z" fill="#FF6633"/>
</g>
<path d="M648.048 144.529C649.191 144.529 650.118 143.602 650.118 142.459C650.118 141.316 649.191 140.389 648.048 140.389C646.905 140.389 645.978 141.316 645.978 142.459C645.978 143.602 646.905 144.529 648.048 144.529Z" fill="#FBAD41" stroke="#FF6633" stroke-width="1.89161"/>
<path fill-rule="evenodd" clip-rule="evenodd" d="M668.217 139.731C665.283 146.117 666.154 153.904 671.073 159.544C672.551 161.238 674.27 162.597 676.135 163.613C679.069 157.227 678.198 149.439 673.279 143.8C671.801 142.106 670.082 140.747 668.217 139.731Z" fill="#FFCD89"/>
<mask id="mask11_0_1" style="mask-type:luminance" maskUnits="userSpaceOnUse" x="666" y="139" width="12" height="25">
<path fill-rule="evenodd" clip-rule="evenodd" d="M668.217 139.731C665.283 146.117 666.154 153.904 671.073 159.544C672.551 161.238 674.27 162.597 676.135 163.613C679.069 157.227 678.198 149.439 673.279 143.8C671.801 142.106 670.082 140.747 668.217 139.731Z" fill="white"/>
</mask>
<g mask="url(#mask11_0_1)">
<path d="M668.217 139.731L666.498 138.941L667.344 137.1L669.122 138.07L668.217 139.731ZM676.135 163.613L677.853 164.403L677.008 166.244L675.229 165.274L676.135 163.613ZM669.936 140.52C667.301 146.255 668.086 153.242 672.499 158.301L669.648 160.788C664.221 154.566 663.264 145.978 666.498 138.941L669.936 140.52ZM672.499 158.301C673.827 159.823 675.369 161.041 677.04 161.952L675.229 165.274C673.171 164.152 671.275 162.653 669.648 160.788L672.499 158.301ZM674.416 162.823C677.051 157.089 676.265 150.102 671.853 145.043L674.704 142.556C680.13 148.777 681.087 157.365 677.853 164.403L674.416 162.823ZM671.853 145.043C670.525 143.52 668.982 142.302 667.312 141.391L669.122 138.07C671.181 139.192 673.077 140.691 674.704 142.556L671.853 145.043Z" fill="#FBAD41"/>
</g>
<path fill-rule="evenodd" clip-rule="evenodd" d="M680.003 118.833C681.825 122.797 681.284 127.631 678.23 131.132C677.313 132.184 676.245 133.027 675.088 133.658C673.266 129.694 673.807 124.86 676.861 121.359C677.778 120.307 678.845 119.464 680.003 118.833Z" fill="#FFCD89"/>
<mask id="mask12_0_1" style="mask-type:luminance" maskUnits="userSpaceOnUse" x="674" y="118" width="8" height="16">
<path fill-rule="evenodd" clip-rule="evenodd" d="M680.003 118.833C681.825 122.797 681.284 127.631 678.23 131.132C677.313 132.184 676.245 133.027 675.088 133.658C673.266 129.694 673.807 124.86 676.861 121.359C677.778 120.307 678.845 119.464 680.003 118.833Z" fill="white"/>
</mask>
<g mask="url(#mask12_0_1)">
<path d="M680.003 118.833L681.722 118.043L680.876 116.202L679.097 117.172L680.003 118.833ZM675.088 133.658L673.369 134.448L674.215 136.289L675.993 135.319L675.088 133.658ZM678.284 119.623C679.806 122.935 679.351 126.969 676.804 129.889L679.655 132.376C683.216 128.293 683.843 122.659 681.722 118.043L678.284 119.623ZM676.804 129.889C676.037 130.769 675.146 131.472 674.183 131.997L675.993 135.319C677.345 134.583 678.589 133.599 679.655 132.376L676.804 129.889ZM676.807 132.868C675.285 129.556 675.74 125.522 678.286 122.602L675.435 120.115C671.875 124.198 671.248 129.832 673.369 134.448L676.807 132.868ZM678.286 122.602C679.054 121.722 679.945 121.019 680.908 120.494L679.097 117.172C677.746 117.908 676.502 118.892 675.435 120.115L678.286 122.602Z" fill="#FF6633"/>
</g>
<path fill-rule="evenodd" clip-rule="evenodd" d="M663.921 139.948C657.495 140.662 650.951 137.634 647.472 131.695C646.427 129.91 645.746 128.012 645.407 126.088C651.833 125.374 658.377 128.402 661.856 134.341C662.901 136.126 663.582 138.024 663.921 139.948Z" fill="#FBAD41"/>
<mask id="mask13_0_1" style="mask-type:luminance" maskUnits="userSpaceOnUse" x="645" y="125" width="19" height="16">
<path fill-rule="evenodd" clip-rule="evenodd" d="M663.921 139.948C657.495 140.662 650.951 137.634 647.472 131.695C646.427 129.91 645.746 128.012 645.407 126.088C651.833 125.374 658.377 128.402 661.856 134.341C662.901 136.126 663.582 138.024 663.921 139.948Z" fill="white"/>
</mask>
<g mask="url(#mask13_0_1)">
<path d="M663.921 139.948L664.129 141.828L666.133 141.606L665.784 139.621L663.921 139.948ZM645.407 126.088L645.198 124.208L643.195 124.43L643.544 126.416L645.407 126.088ZM663.712 138.068C658.002 138.703 652.192 136.01 649.104 130.739L645.84 132.652C649.71 139.258 656.989 142.622 664.129 141.828L663.712 138.068ZM649.104 130.739C648.174 129.151 647.571 127.467 647.27 125.76L643.544 126.416C643.921 128.558 644.679 130.67 645.84 132.652L649.104 130.739ZM645.616 127.968C651.326 127.333 657.136 130.026 660.223 135.297L663.488 133.385C659.618 126.778 652.339 123.414 645.198 124.208L645.616 127.968ZM660.223 135.297C661.154 136.885 661.757 138.57 662.057 140.276L665.784 139.621C665.407 137.478 664.649 135.367 663.488 133.385L660.223 135.297Z" fill="#FF6633"/>
</g>
<path fill-rule="evenodd" clip-rule="evenodd" d="M659.804 117.023C665.02 120.843 667.793 127.5 666.339 134.227C665.902 136.249 665.12 138.107 664.067 139.754C658.851 135.934 656.078 129.277 657.532 122.55C657.969 120.528 658.752 118.67 659.804 117.023Z" fill="#FBAD41"/>
<mask id="mask14_0_1" style="mask-type:luminance" maskUnits="userSpaceOnUse" x="657" y="117" width="10" height="23">
<path fill-rule="evenodd" clip-rule="evenodd" d="M659.804 117.023C665.02 120.843 667.793 127.5 666.339 134.227C665.902 136.249 665.12 138.107 664.067 139.754C658.851 135.934 656.078 129.277 657.532 122.55C657.969 120.528 658.752 118.67 659.804 117.023Z" fill="white"/>
</mask>
<g mask="url(#mask14_0_1)">
<path d="M659.804 117.023L660.921 115.497L659.295 114.306L658.21 116.004L659.804 117.023ZM664.067 139.754L662.95 141.28L664.576 142.471L665.661 140.773L664.067 139.754ZM658.686 118.549C663.322 121.944 665.781 127.857 664.49 133.827L668.188 134.627C669.805 127.143 666.718 119.742 660.921 115.497L658.686 118.549ZM664.49 133.827C664.101 135.626 663.406 137.276 662.473 138.735L665.661 140.773C666.833 138.939 667.702 136.872 668.188 134.627L664.49 133.827ZM665.185 138.228C660.549 134.833 658.091 128.92 659.381 122.95L655.683 122.15C654.066 129.634 657.153 137.035 662.95 141.28L665.185 138.228ZM659.381 122.95C659.77 121.151 660.465 119.501 661.398 118.042L658.21 116.004C657.038 117.838 656.169 119.905 655.683 122.15L659.381 122.95Z" fill="#FF6633"/>
</g>
<path fill-rule="evenodd" clip-rule="evenodd" d="M651.282 120.157C657.541 121.779 662.577 126.941 663.711 133.729C664.052 135.77 664.011 137.786 663.642 139.704C657.384 138.082 652.347 132.92 651.213 126.132C650.872 124.091 650.913 122.076 651.282 120.157Z" fill="#FBAD41"/>
<mask id="mask15_0_1" style="mask-type:luminance" maskUnits="userSpaceOnUse" x="650" y="120" width="14" height="20">
<path fill-rule="evenodd" clip-rule="evenodd" d="M651.282 120.157C657.541 121.779 662.577 126.941 663.711 133.729C664.052 135.77 664.011 137.786 663.642 139.704C657.384 138.082 652.347 132.92 651.213 126.132C650.872 124.091 650.913 122.076 651.282 120.157Z" fill="white"/>
</mask>
<g mask="url(#mask15_0_1)">
<path d="M651.282 120.157L651.757 118.326L649.806 117.82L649.425 119.799L651.282 120.157ZM663.642 139.704L663.167 141.535L665.118 142.041L665.5 140.062L663.642 139.704ZM650.808 121.988C656.369 123.43 660.839 128.016 661.845 134.041L665.577 133.418C664.315 125.866 658.712 120.129 651.757 118.326L650.808 121.988ZM661.845 134.041C662.148 135.856 662.112 137.645 661.785 139.347L665.5 140.062C665.911 137.926 665.955 135.683 665.577 133.418L661.845 134.041ZM664.117 137.873C658.555 136.432 654.086 131.845 653.079 125.82L649.348 126.443C650.609 133.995 656.212 139.733 663.167 141.535L664.117 137.873ZM653.079 125.82C652.776 124.005 652.812 122.216 653.14 120.514L649.425 119.799C649.013 121.935 648.969 124.178 649.348 126.443L653.079 125.82Z" fill="#FF6633"/>
</g>
<path fill-rule="evenodd" clip-rule="evenodd" d="M660.722 82.089C664.873 84.637 667.363 89.466 666.684 94.607C666.48 96.152 666.006 97.596 665.317 98.897C661.166 96.348 658.675 91.519 659.355 86.378C659.559 84.833 660.032 83.39 660.722 82.089Z" fill="#FBAD41"/>
<mask id="mask16_0_1" style="mask-type:luminance" maskUnits="userSpaceOnUse" x="659" y="82" width="8" height="17">
<path fill-rule="evenodd" clip-rule="evenodd" d="M660.722 82.089C664.873 84.637 667.363 89.466 666.684 94.607C666.48 96.152 666.006 97.596 665.317 98.897C661.166 96.348 658.675 91.519 659.355 86.378C659.559 84.833 660.032 83.39 660.722 82.089Z" fill="white"/>
</mask>
<g mask="url(#mask16_0_1)">
<path d="M660.722 82.089L661.711 80.477L659.994 79.422L659.05 81.203L660.722 82.089ZM665.317 98.897L664.328 100.509L666.045 101.563L666.989 99.782L665.317 98.897ZM659.732 83.701C663.27 85.873 665.387 89.985 664.809 94.359L668.559 94.855C669.34 88.947 666.476 83.401 661.711 80.477L659.732 83.701ZM664.809 94.359C664.634 95.678 664.231 96.906 663.646 98.011L666.989 99.782C667.782 98.285 668.325 96.626 668.559 94.855L664.809 94.359ZM666.307 97.285C662.769 95.113 660.652 91 661.23 86.626L657.479 86.131C656.699 92.039 659.563 97.584 664.328 100.509L666.307 97.285ZM661.23 86.626C661.404 85.307 661.808 84.079 662.393 82.974L659.05 81.203C658.257 82.7 657.714 84.359 657.479 86.131L661.23 86.626Z" fill="#FF6633"/>
</g>
<path fill-rule="evenodd" clip-rule="evenodd" d="M666.721 103.924C662.673 98.507 661.937 91 665.45 84.716C666.506 82.827 667.857 81.208 669.414 79.883C673.462 85.3 674.198 92.807 670.685 99.091C669.629 100.98 668.278 102.599 666.721 103.924Z" fill="#F6821F"/>
<mask id="mask17_0_1" style="mask-type:luminance" maskUnits="userSpaceOnUse" x="663" y="79" width="10" height="25">
<path fill-rule="evenodd" clip-rule="evenodd" d="M666.721 103.924C662.673 98.507 661.937 91 665.45 84.716C666.506 82.827 667.857 81.208 669.414 79.883C673.462 85.3 674.198 92.807 670.685 99.091C669.629 100.98 668.278 102.599 666.721 103.924Z" fill="white"/>
</mask>
<g mask="url(#mask17_0_1)">
<path d="M666.721 103.924L665.206 105.056L666.413 106.671L667.947 105.364L666.721 103.924ZM669.414 79.883L670.929 78.75L669.722 77.136L668.187 78.442L669.414 79.883ZM668.236 102.792C664.619 97.951 663.965 91.247 667.101 85.639L663.799 83.793C659.908 90.752 660.727 99.063 665.206 105.056L668.236 102.792ZM667.101 85.639C668.046 83.949 669.252 82.504 670.64 81.323L668.187 78.442C666.462 79.911 664.966 81.705 663.799 83.793L667.101 85.639ZM667.898 81.015C671.516 85.856 672.169 92.559 669.034 98.168L672.336 100.014C676.227 93.055 675.408 84.744 670.929 78.75L667.898 81.015ZM669.034 98.168C668.089 99.857 666.883 101.302 665.495 102.484L667.947 105.364C669.673 103.896 671.169 102.102 672.336 100.014L669.034 98.168Z" fill="#FF6633"/>
</g>
<path fill-rule="evenodd" clip-rule="evenodd" d="M661.665 101.447C660.7 96.673 657.023 92.673 651.962 91.543C650.441 91.203 648.922 91.151 647.464 91.35C648.428 96.125 652.106 100.124 657.167 101.255C658.688 101.595 660.206 101.647 661.665 101.447Z" fill="#FBAD41"/>
<mask id="mask18_0_1" style="mask-type:luminance" maskUnits="userSpaceOnUse" x="647" y="91" width="15" height="11">
<path fill-rule="evenodd" clip-rule="evenodd" d="M661.665 101.447C660.7 96.673 657.023 92.673 651.962 91.543C650.441 91.203 648.922 91.151 647.464 91.35C648.428 96.125 652.106 100.124 657.167 101.255C658.688 101.595 660.206 101.647 661.665 101.447Z" fill="white"/>
</mask>
<g mask="url(#mask18_0_1)">
<path d="M661.665 101.447L663.519 101.073L663.919 103.048L661.922 103.321L661.665 101.447ZM647.464 91.35L645.609 91.725L645.21 89.749L647.207 89.476L647.464 91.35ZM659.811 101.822C658.989 97.753 655.855 94.351 651.55 93.389L652.375 89.696C658.191 90.996 662.412 95.593 663.519 101.073L659.811 101.822ZM651.55 93.389C650.251 93.099 648.959 93.055 647.72 93.224L647.207 89.476C648.885 89.246 650.631 89.307 652.375 89.696L651.55 93.389ZM649.318 90.976C650.14 95.045 653.273 98.447 657.579 99.409L656.754 103.101C650.938 101.802 646.717 97.205 645.609 91.725L649.318 90.976ZM657.579 99.409C658.878 99.699 660.17 99.743 661.409 99.573L661.922 103.321C660.243 103.551 658.498 103.491 656.754 103.101L657.579 99.409Z" fill="#FF6633"/>
</g>
<path fill-rule="evenodd" clip-rule="evenodd" d="M665.906 104.495C662.212 98.83 655.416 95.556 648.307 96.693C646.171 97.035 644.185 97.746 642.406 98.752C646.1 104.417 652.896 107.691 660.005 106.553C662.141 106.212 664.126 105.5 665.906 104.495Z" fill="#F6821F"/>
<mask id="mask19_0_1" style="mask-type:luminance" maskUnits="userSpaceOnUse" x="642" y="96" width="24" height="11">
<path fill-rule="evenodd" clip-rule="evenodd" d="M665.906 104.495C662.212 98.83 655.416 95.556 648.307 96.693C646.171 97.035 644.185 97.746 642.406 98.752C646.1 104.417 652.896 107.691 660.005 106.553C662.141 106.212 664.126 105.5 665.906 104.495Z" fill="white"/>
</mask>
<g mask="url(#mask19_0_1)">
<path d="M665.906 104.495L667.49 103.462L668.591 105.15L666.836 106.142L665.906 104.495ZM642.406 98.752L640.821 99.785L639.721 98.097L641.475 97.105L642.406 98.752ZM664.321 105.528C661.02 100.466 654.951 97.546 648.606 98.561L648.008 94.825C655.881 93.566 663.403 97.194 667.49 103.462L664.321 105.528ZM648.606 98.561C646.695 98.867 644.923 99.502 643.337 100.399L641.475 97.105C643.448 95.991 645.646 95.203 648.008 94.825L648.606 98.561ZM643.991 97.719C647.291 102.781 653.361 105.7 659.706 104.686L660.303 108.421C652.43 109.681 644.908 106.053 640.821 99.785L643.991 97.719ZM659.706 104.686C661.617 104.38 663.388 103.744 664.975 102.848L666.836 106.142C664.864 107.256 662.665 108.043 660.303 108.421L659.706 104.686Z" fill="#FF6633"/>
</g>
<path fill-rule="evenodd" clip-rule="evenodd" d="M652.238 84.544C658.884 85.796 664.504 90.828 666.166 97.833C666.666 99.938 666.766 102.044 666.516 104.073C659.87 102.821 654.25 97.789 652.588 90.784C652.088 88.679 651.988 86.572 652.238 84.544Z" fill="#F6821F"/>
<mask id="mask20_0_1" style="mask-type:luminance" maskUnits="userSpaceOnUse" x="652" y="84" width="15" height="21">
<path fill-rule="evenodd" clip-rule="evenodd" d="M652.238 84.544C658.884 85.796 664.504 90.828 666.166 97.833C666.666 99.938 666.766 102.044 666.516 104.073C659.87 102.821 654.25 97.789 652.588 90.784C652.088 88.679 651.988 86.572 652.238 84.544Z" fill="white"/>
</mask>
<g mask="url(#mask20_0_1)">
<path d="M652.238 84.544L652.589 82.685L650.608 82.312L650.361 84.312L652.238 84.544ZM666.516 104.073L666.166 105.932L668.146 106.305L668.393 104.304L666.516 104.073ZM651.888 86.403C657.827 87.521 662.842 92.017 664.326 98.269L668.007 97.396C666.166 89.638 659.942 84.07 652.589 82.685L651.888 86.403ZM664.326 98.269C664.773 100.152 664.861 102.033 664.638 103.841L668.393 104.304C668.67 102.056 668.559 99.723 668.007 97.396L664.326 98.269ZM666.866 102.214C660.927 101.095 655.912 96.599 654.428 90.347L650.747 91.221C652.588 98.979 658.812 104.547 666.166 105.932L666.866 102.214ZM654.428 90.347C653.981 88.464 653.893 86.584 654.116 84.775L650.361 84.312C650.084 86.56 650.195 88.893 650.747 91.221L654.428 90.347Z" fill="#FF6633"/>
</g>
<path fill-rule="evenodd" clip-rule="evenodd" d="M668.608 93.197C670.432 95.846 670.643 99.427 668.858 102.348C668.322 103.226 667.65 103.97 666.886 104.571C665.062 101.922 664.851 98.341 666.636 95.42C667.173 94.543 667.845 93.798 668.608 93.197Z" fill="#FFCD89"/>
<mask id="mask21_0_1" style="mask-type:luminance" maskUnits="userSpaceOnUse" x="665" y="93" width="6" height="12">
<path fill-rule="evenodd" clip-rule="evenodd" d="M668.608 93.197C670.432 95.846 670.643 99.427 668.858 102.348C668.322 103.226 667.65 103.97 666.886 104.571C665.062 101.922 664.851 98.341 666.636 95.42C667.173 94.543 667.845 93.798 668.608 93.197Z" fill="white"/>
</mask>
<g mask="url(#mask21_0_1)">
<path d="M668.608 93.197L670.166 92.125L669.023 90.464L667.439 91.71L668.608 93.197ZM666.886 104.571L665.328 105.644L666.471 107.304L668.055 106.058L666.886 104.571ZM667.05 94.27C668.466 96.326 668.626 99.1 667.244 101.361L670.472 103.334C672.661 99.753 672.398 95.366 670.166 92.125L667.05 94.27ZM667.244 101.361C666.827 102.044 666.306 102.62 665.716 103.084L668.055 106.058C668.993 105.32 669.817 104.407 670.472 103.334L667.244 101.361ZM668.444 103.498C667.028 101.442 666.868 98.668 668.25 96.407L665.022 94.434C662.833 98.015 663.096 102.402 665.328 105.644L668.444 103.498ZM668.25 96.407C668.668 95.724 669.188 95.148 669.778 94.684L667.439 91.71C666.501 92.448 665.678 93.361 665.022 94.434L668.25 96.407Z" fill="#FF6633"/>
</g>
<path fill-rule="evenodd" clip-rule="evenodd" d="M666.775 104.75C664.907 102.133 661.613 100.714 658.258 101.397C657.25 101.602 656.321 101.98 655.496 102.493C657.364 105.11 660.658 106.529 664.012 105.847C665.021 105.642 665.95 105.264 666.775 104.75Z" fill="#FFCD89"/>
<mask id="mask22_0_1" style="mask-type:luminance" maskUnits="userSpaceOnUse" x="655" y="101" width="12" height="6">
<path fill-rule="evenodd" clip-rule="evenodd" d="M666.775 104.75C664.907 102.133 661.613 100.714 658.258 101.397C657.25 101.602 656.321 101.98 655.496 102.493C657.364 105.11 660.658 106.529 664.012 105.847C665.021 105.642 665.95 105.264 666.775 104.75Z" fill="white"/>
</mask>
<g mask="url(#mask22_0_1)">
<path d="M666.775 104.75L668.315 103.651L669.486 105.292L667.774 106.357L666.775 104.75ZM655.496 102.493L653.956 103.592L652.785 101.952L654.497 100.887L655.496 102.493ZM665.235 105.849C663.785 103.818 661.232 102.722 658.636 103.25L657.881 99.543C661.994 98.706 666.028 100.449 668.315 103.651L665.235 105.849ZM658.636 103.25C657.851 103.41 657.132 103.703 656.495 104.099L654.497 100.887C655.51 100.257 656.649 99.794 657.881 99.543L658.636 103.25ZM657.035 101.394C658.485 103.425 661.039 104.521 663.635 103.993L664.389 107.7C660.277 108.537 656.243 106.795 653.956 103.592L657.035 101.394ZM663.635 103.993C664.42 103.834 665.139 103.541 665.776 103.144L667.774 106.357C666.761 106.987 665.621 107.45 664.389 107.7L663.635 103.993Z" fill="#FF6633"/>
</g>
<path fill-rule="evenodd" clip-rule="evenodd" d="M666.945 105.453C663.811 104.732 661.236 102.234 660.579 98.874C660.382 97.865 660.374 96.862 660.532 95.902C663.666 96.623 666.241 99.121 666.897 102.481C667.095 103.491 667.102 104.494 666.945 105.453Z" fill="#FFCD89"/>
<mask id="mask23_0_1" style="mask-type:luminance" maskUnits="userSpaceOnUse" x="660" y="95" width="8" height="11">
<path fill-rule="evenodd" clip-rule="evenodd" d="M666.945 105.453C663.811 104.732 661.236 102.234 660.579 98.874C660.382 97.865 660.374 96.862 660.532 95.902C663.666 96.623 666.241 99.121 666.897 102.481C667.095 103.491 667.102 104.494 666.945 105.453Z" fill="white"/>
</mask>
<g mask="url(#mask23_0_1)">
<path d="M666.945 105.453L666.521 107.296L668.485 107.748L668.812 105.759L666.945 105.453ZM660.532 95.902L660.956 94.059L658.992 93.607L658.665 95.596L660.532 95.902ZM667.369 103.609C664.936 103.05 662.944 101.112 662.436 98.511L658.723 99.237C659.528 103.357 662.686 106.414 666.521 107.296L667.369 103.609ZM662.436 98.511C662.282 97.726 662.277 96.949 662.398 96.209L658.665 95.596C658.472 96.774 658.482 98.003 658.723 99.237L662.436 98.511ZM660.108 97.746C662.54 98.305 664.533 100.243 665.041 102.844L668.754 102.118C667.949 97.999 664.791 94.941 660.956 94.059L660.108 97.746ZM665.041 102.844C665.195 103.63 665.2 104.406 665.078 105.146L668.812 105.759C669.005 104.581 668.995 103.352 668.754 102.118L665.041 102.844Z" fill="#FF6633"/>
</g>
<path d="M654.832 71.1524C655.836 71.1524 656.65 70.3383 656.65 69.334C656.65 68.3297 655.836 67.5156 654.832 67.5156C653.828 67.5156 653.014 68.3297 653.014 69.334C653.014 70.3383 653.828 71.1524 654.832 71.1524Z" fill="#FBAD41" stroke="#FF6633" stroke-width="1.89161"/>
<path d="M655.084 154.581C656.227 154.581 657.154 153.654 657.154 152.511C657.154 151.368 656.227 150.441 655.084 150.441C653.941 150.441 653.014 151.368 653.014 152.511C653.014 153.654 653.941 154.581 655.084 154.581Z" fill="#FBAD41" stroke="#FF6633" stroke-width="1.89161"/>
<path d="M689.762 115.882C690.905 115.882 691.832 114.955 691.832 113.812C691.832 112.669 690.905 111.742 689.762 111.742C688.619 111.742 687.692 112.669 687.692 113.812C687.692 114.955 688.619 115.882 689.762 115.882Z" fill="#FBAD41" stroke="#FF6633" stroke-width="1.89161"/>
<path fill-rule="evenodd" clip-rule="evenodd" d="M673.758 231.416H687.75L686.96 227.873C694.942 223.273 700.315 214.654 700.315 204.779C700.315 193.381 693.157 183.656 683.09 179.853L683.781 172.111H663.154L663.967 179.968C654.059 183.85 647.042 193.495 647.042 204.779C647.042 214.653 652.415 223.273 660.396 227.873L659.606 231.416H673.6C673.626 231.416 673.652 231.416 673.679 231.416C673.705 231.416 673.731 231.416 673.758 231.416Z" fill="#FFE9CB"/>
<path d="M687.75 231.416V232.361H688.93L688.673 231.21L687.75 231.416ZM673.758 231.416V230.47H673.755L673.758 231.416ZM686.96 227.873L686.488 227.054L685.886 227.401L686.037 228.079L686.96 227.873ZM683.09 179.853L682.148 179.769L682.085 180.484L682.756 180.738L683.09 179.853ZM683.781 172.111L684.723 172.195L684.815 171.166H683.781V172.111ZM663.154 172.111V171.166H662.105L662.213 172.209L663.154 172.111ZM663.967 179.968L664.312 180.849L664.982 180.587L664.908 179.871L663.967 179.968ZM660.396 227.873L661.319 228.079L661.471 227.401L660.869 227.054L660.396 227.873ZM659.606 231.416L658.683 231.21L658.426 232.361H659.606V231.416ZM673.6 231.416L673.602 230.47H673.6V231.416ZM687.75 230.47H673.758V232.361H687.75V230.47ZM686.037 228.079L686.827 231.622L688.673 231.21L687.883 227.668L686.037 228.079ZM699.37 204.779C699.37 214.302 694.189 222.616 686.488 227.054L687.432 228.693C695.695 223.931 701.261 215.005 701.261 204.779H699.37ZM682.756 180.738C692.467 184.406 699.37 193.788 699.37 204.779H701.261C701.261 192.975 693.847 182.905 683.425 178.968L682.756 180.738ZM682.839 172.027L682.148 179.769L684.032 179.937L684.723 172.195L682.839 172.027ZM663.154 173.057H683.781V171.166H663.154V173.057ZM664.908 179.871L664.095 172.014L662.213 172.209L663.026 180.066L664.908 179.871ZM647.988 204.779C647.988 193.897 654.754 184.593 664.312 180.849L663.622 179.088C653.363 183.106 646.096 193.093 646.096 204.779H647.988ZM660.869 227.054C653.168 222.615 647.988 214.301 647.988 204.779H646.096C646.096 215.005 651.661 223.93 659.924 228.692L660.869 227.054ZM660.529 231.622L661.319 228.079L659.473 227.667L658.683 231.21L660.529 231.622ZM673.6 230.47H659.606V232.361H673.6V230.47ZM673.679 230.47C673.653 230.47 673.628 230.47 673.602 230.47L673.597 232.361C673.624 232.361 673.651 232.362 673.679 232.362V230.47ZM673.755 230.47C673.729 230.47 673.704 230.47 673.679 230.47V232.362C673.706 232.362 673.733 232.361 673.76 232.361L673.755 230.47Z" fill="#FBAD41"/>
<path d="M133.42 141.421H121.025V232.894H133.42V141.421Z" fill="#FFCD89" stroke="#F6821F" stroke-width="1.89161"/>
<path d="M132.159 231.68H119.764V233.062H132.159V231.68Z" fill="#F6821F"/>
<path d="M126.071 232.808C124.428 232.808 123.098 232.76 123.098 232.702V232.281C123.098 232.222 124.444 232.175 126.071 232.175C127.714 232.175 129.045 232.223 129.045 232.281V232.702C129.06 232.76 127.714 232.808 126.071 232.808Z" fill="#F6821F"/>
<path d="M132.159 141.421H119.764V142.802H132.159V141.421Z" fill="#FBAD41"/>
<path d="M120.859 174.117H103.714V232.894H120.859V174.117Z" fill="#FFF7EC" stroke="#F6821F" stroke-width="1.89161"/>
<path d="M112.569 217.657C110.296 217.657 108.456 215.602 108.456 213.116V195.236C108.456 192.727 110.317 190.695 112.569 190.695C114.842 190.695 116.682 192.751 116.682 195.236V213.116C116.703 215.602 114.842 217.657 112.569 217.657Z" fill="#FFCD89"/>
<path d="M166.589 175.079H148.326C144.669 175.079 141.705 178.043 141.705 181.7V189.215C141.705 192.871 144.669 195.836 148.326 195.836H166.589C170.245 195.836 173.21 192.871 173.21 189.215V181.7C173.21 178.043 170.245 175.079 166.589 175.079Z" stroke="#FBAD41" stroke-width="1.89161"/>
<path d="M151.301 168.938H181.655V195.357C181.655 199.014 178.69 201.978 175.034 201.978H157.922C154.266 201.978 151.301 199.014 151.301 195.357V168.938Z" fill="#FFE9CB" stroke="#FBAD41" stroke-width="1.89161"/>
<path d="M160.144 169.239H167.63V199.181C167.63 201.248 165.954 202.924 163.887 202.924C161.82 202.924 160.144 201.248 160.144 199.181V169.239Z" fill="#F8FBFB"/>
<path d="M155.154 169.239H158.273V201.364C158.273 202.225 157.575 202.924 156.714 202.924C155.852 202.924 155.154 202.225 155.154 201.364V169.239Z" fill="#F8FBFB"/>
<path d="M151.301 173.928H181.655V195.357C181.655 199.014 178.69 201.978 175.034 201.978H157.922C154.266 201.978 151.301 199.014 151.301 195.357V173.928Z" fill="#FF6633" stroke="#FBAD41" stroke-width="1.89161"/>
<path d="M170.15 188.446L170.257 188.08C170.385 187.644 170.338 187.242 170.122 186.946C169.924 186.674 169.594 186.513 169.194 186.495L161.603 186.399C161.552 186.397 161.509 186.374 161.483 186.337C161.457 186.299 161.451 186.249 161.467 186.202C161.492 186.129 161.566 186.073 161.643 186.07L169.305 185.974C170.214 185.933 171.197 185.208 171.542 184.324L171.979 183.202C171.991 183.172 171.996 183.139 171.996 183.107C171.996 183.089 171.995 183.071 171.991 183.054C171.494 180.86 169.503 179.22 167.122 179.22C164.928 179.22 163.065 180.612 162.397 182.547C161.966 182.229 161.414 182.06 160.821 182.118C159.769 182.221 158.923 183.054 158.818 184.088C158.791 184.357 158.813 184.616 158.876 184.86C157.157 184.909 155.778 186.294 155.778 187.996C155.778 188.15 155.79 188.301 155.812 188.449C155.823 188.521 155.884 188.575 155.958 188.575L169.972 188.577C169.974 188.577 169.976 188.576 169.976 188.576C170.056 188.574 170.127 188.522 170.15 188.446Z" fill="white"/>
<path d="M172.798 182.963C172.727 182.963 172.657 182.965 172.586 182.968C172.575 182.969 172.564 182.972 172.553 182.976C172.516 182.989 172.487 183.02 172.476 183.06L172.174 184.135C172.045 184.597 172.093 185.023 172.31 185.337C172.51 185.627 172.843 185.796 173.248 185.816L174.881 185.917C174.93 185.92 174.972 185.944 174.998 185.983C175.025 186.024 175.031 186.076 175.015 186.126C174.989 186.204 174.915 186.263 174.837 186.267L173.14 186.368C172.218 186.412 171.225 187.181 170.877 188.118L170.755 188.449C170.732 188.509 170.774 188.573 170.835 188.576C170.837 188.576 170.838 188.577 170.84 188.577H176.68C176.75 188.577 176.812 188.53 176.831 188.461C176.933 188.088 176.987 187.695 176.987 187.289C176.986 184.9 175.111 182.963 172.798 182.963Z" fill="white"/>
<path fill-rule="evenodd" clip-rule="evenodd" d="M589.989 229.886C593.337 222.172 592.332 213.025 586.706 206.679C585.015 204.771 583.049 203.277 580.918 202.198C577.569 209.912 578.575 219.059 584.201 225.405C585.892 227.313 587.858 228.807 589.989 229.886Z" fill="#A8CBFF"/>
<mask id="mask24_0_1" style="mask-type:luminance" maskUnits="userSpaceOnUse" x="579" y="202" width="13" height="28">
<path fill-rule="evenodd" clip-rule="evenodd" d="M589.989 229.886C593.337 222.172 592.332 213.025 586.706 206.679C585.015 204.771 583.049 203.277 580.918 202.198C577.569 209.912 578.575 219.059 584.201 225.405C585.892 227.313 587.858 228.807 589.989 229.886Z" fill="white"/>
</mask>
<g mask="url(#mask24_0_1)">
<path d="M589.989 229.886L591.677 230.676L590.889 232.491L589.174 231.622L589.989 229.886ZM580.918 202.198L579.23 201.408L580.018 199.593L581.733 200.462L580.918 202.198ZM588.301 229.096C591.371 222.024 590.421 213.719 585.342 207.99L588.069 205.368C594.242 212.332 595.304 222.319 591.677 230.676L588.301 229.096ZM585.342 207.99C583.81 206.262 582.032 204.91 580.103 203.933L581.733 200.462C584.066 201.644 586.219 203.281 588.069 205.368L585.342 207.99ZM582.606 202.988C579.536 210.06 580.486 218.365 585.565 224.094L582.837 226.716C576.664 219.753 575.602 209.765 579.23 201.408L582.606 202.988ZM585.565 224.094C587.096 225.822 588.875 227.174 590.804 228.151L589.174 231.622C586.84 230.44 584.687 228.803 582.837 226.716L585.565 224.094Z" fill="#FF6633"/>
</g>
<path fill-rule="evenodd" clip-rule="evenodd" d="M593.03 231.716C588.798 224.466 580.345 220.202 571.077 221.533C568.291 221.933 565.666 222.804 563.279 224.052C567.511 231.302 575.965 235.565 585.233 234.235C588.018 233.835 590.643 232.963 593.03 231.716Z" fill="#A8CBFF"/>
<mask id="mask25_0_1" style="mask-type:luminance" maskUnits="userSpaceOnUse" x="563" y="221" width="31" height="14">
<path fill-rule="evenodd" clip-rule="evenodd" d="M593.03 231.716C588.798 224.466 580.345 220.202 571.077 221.533C568.291 221.933 565.666 222.804 563.279 224.052C567.511 231.302 575.965 235.565 585.233 234.235C588.018 233.835 590.643 232.963 593.03 231.716Z" fill="white"/>
</mask>
<g mask="url(#mask25_0_1)">
<path d="M593.03 231.716L594.661 230.684L595.678 232.427L593.822 233.397L593.03 231.716ZM563.279 224.052L561.648 225.083L560.631 223.341L562.487 222.371L563.279 224.052ZM591.398 232.747C587.53 226.121 579.778 222.192 571.244 223.417L570.909 219.649C580.911 218.213 590.065 222.812 594.661 230.684L591.398 232.747ZM571.244 223.417C568.677 223.786 566.263 224.588 564.071 225.734L562.487 222.371C565.069 221.021 567.905 220.08 570.909 219.649L571.244 223.417ZM564.911 223.021C568.779 229.647 576.531 233.576 585.065 232.351L585.4 236.119C575.399 237.555 566.244 232.956 561.648 225.083L564.911 223.021ZM585.065 232.351C587.632 231.982 590.046 231.18 592.238 230.034L593.822 233.397C591.24 234.747 588.404 235.688 585.4 236.119L585.065 232.351Z" fill="#FF6633"/>
</g>
<path fill-rule="evenodd" clip-rule="evenodd" d="M699.033 226.719C695.475 219.578 695.971 210.864 700.984 204.57C702.49 202.679 704.278 201.165 706.243 200.036C709.801 207.177 709.305 215.892 704.293 222.185C702.786 224.076 700.998 225.59 699.033 226.719Z" fill="#FFCD89"/>
<mask id="mask26_0_1" style="mask-type:luminance" maskUnits="userSpaceOnUse" x="696" y="200" width="13" height="27">
<path fill-rule="evenodd" clip-rule="evenodd" d="M699.033 226.719C695.475 219.578 695.971 210.864 700.984 204.57C702.49 202.679 704.278 201.165 706.243 200.036C709.801 207.177 709.305 215.892 704.293 222.185C702.786 224.076 700.998 225.59 699.033 226.719Z" fill="white"/>
</mask>
<g mask="url(#mask26_0_1)">
<path d="M699.033 226.719L697.389 227.597L698.271 229.368L699.939 228.409L699.033 226.719ZM706.243 200.036L707.887 199.158L707.005 197.387L705.338 198.346L706.243 200.036ZM700.678 225.842C697.432 219.327 697.916 211.456 702.414 205.808L699.553 203.333C694.027 210.271 693.519 219.829 697.389 227.597L700.678 225.842ZM702.414 205.808C703.772 204.104 705.38 202.742 707.148 201.726L705.338 198.346C703.176 199.588 701.209 201.254 699.553 203.333L702.414 205.808ZM704.599 200.914C707.844 207.428 707.36 215.3 702.862 220.947L705.723 223.422C711.25 216.484 711.757 206.926 707.887 199.158L704.599 200.914ZM702.862 220.947C701.505 222.651 699.896 224.013 698.128 225.029L699.939 228.409C702.1 227.167 704.067 225.501 705.723 223.422L702.862 220.947Z" fill="#FBAD41"/>
</g>
<path d="M103.844 187.05H120.485" stroke="#FBAD41" stroke-width="1.89161"/>
<path d="M366.002 252.245C420.684 252.245 465.013 207.916 465.013 153.234C465.013 98.5517 420.684 54.2229 366.002 54.2229C311.32 54.2229 266.991 98.5517 266.991 153.234C266.991 207.916 311.32 252.245 366.002 252.245Z" fill="white"/>
<path d="M365.941 245.669C417.026 245.669 458.438 204.257 458.438 153.172C458.438 102.087 417.026 60.6745 365.941 60.6745C314.856 60.6745 273.443 102.087 273.443 153.172C273.443 204.257 314.856 245.669 365.941 245.669Z" fill="#FFF7EC" stroke="url(#paint3_linear_0_1)" stroke-width="2.8677"/>
<path d="M365.927 227.718C407.105 227.718 440.487 194.336 440.487 153.158C440.487 111.98 407.105 78.5978 365.927 78.5978C324.749 78.5978 291.367 111.98 291.367 153.158C291.367 194.336 324.749 227.718 365.927 227.718Z" fill="white"/>
<path d="M421.701 132.099V178.017L366.322 209.419V163.501L421.701 132.099Z" fill="url(#paint4_linear_0_1)" stroke="#FF6633" stroke-width="3" stroke-linejoin="round"/>
<path d="M310.943 132.099V178.017L366.322 209.419V163.501L310.943 132.099Z" fill="url(#paint5_linear_0_1)" stroke="#FF6633" stroke-width="3" stroke-linejoin="round"/>
<path d="M366.322 100.707L310.943 132.099L366.322 163.501L421.701 132.099L366.322 100.707Z" fill="#FBAD41" stroke="#FF6633" stroke-width="3" stroke-linejoin="round"/>
<path d="M374.957 115.282V111.053L371.299 111.604C369.612 111.026 367.798 110.924 366.057 111.309C364.67 111.584 363.357 112.147 362.202 112.961L359.438 113.364V118.449C359.438 121.793 364.031 123.307 368.289 122.432C372.548 121.557 374.908 118.97 374.957 115.282Z" fill="#FF6633" stroke="#003682" stroke-width="3" stroke-linejoin="round"/>
<path d="M365.978 122.904C364.123 122.996 362.289 122.478 360.756 121.429C360.298 121.086 359.927 120.64 359.672 120.128C359.418 119.616 359.287 119.051 359.291 118.479V113.207L362.241 112.784C363.424 111.964 364.763 111.395 366.175 111.112C367.943 110.739 369.778 110.837 371.495 111.398L375.331 110.817V115.243C375.331 119.098 372.902 121.724 368.574 122.609C367.722 122.798 366.851 122.897 365.978 122.904ZM359.713 113.561V118.479C359.713 118.978 359.831 119.47 360.058 119.914C360.291 120.364 360.628 120.751 361.041 121.045C362.106 121.743 363.305 122.209 364.562 122.412C365.815 122.621 367.097 122.568 368.329 122.255C372.42 121.409 374.692 118.941 374.731 115.312V111.378L371.289 111.889C369.637 111.337 367.866 111.242 366.165 111.614C364.812 111.881 363.529 112.427 362.398 113.217H362.29L359.713 113.561Z" fill="#FF6633" stroke="#FF6633" stroke-width="3" stroke-linejoin="round"/>
<path d="M368.515 117.928C372.852 117.052 375.852 113.846 375.203 110.778C374.554 107.709 370.522 105.92 366.185 106.795C361.847 107.67 358.848 110.876 359.497 113.945C360.146 117.013 364.178 118.783 368.515 117.928Z" fill="#FBAD41" stroke="#FF6633" stroke-width="3" stroke-linejoin="round"/>
<path d="M347.135 131.253V127.034L343.476 127.575C341.79 126.997 339.976 126.895 338.235 127.28C336.848 127.554 335.534 128.117 334.379 128.932L331.606 129.345V134.43C331.606 137.774 336.199 139.288 340.457 138.364C344.716 137.439 347.086 134.941 347.135 131.253Z" fill="#FF6633" stroke="#FF6633" stroke-width="3" stroke-linejoin="round"/>
<path d="M338.146 138.876C336.293 138.971 334.461 138.453 332.934 137.401C332.479 137.056 332.109 136.612 331.852 136.102C331.595 135.593 331.46 135.031 331.458 134.46V129.179L334.409 128.756C335.589 127.933 336.929 127.366 338.343 127.094C340.106 126.712 341.939 126.807 343.653 127.369L347.499 126.799V131.215C347.499 135.07 345.07 137.696 340.742 138.581C339.891 138.779 339.02 138.878 338.146 138.876ZM331.891 129.533V134.45C331.894 134.948 332.013 135.438 332.238 135.882C332.464 136.326 332.789 136.711 333.189 137.007C334.255 137.701 335.452 138.167 336.706 138.375C337.961 138.583 339.244 138.53 340.477 138.217C344.568 137.381 346.84 134.903 346.879 131.274V127.34L343.437 127.861C341.787 127.301 340.015 127.202 338.313 127.576C336.957 127.843 335.671 128.389 334.537 129.179H334.438L331.891 129.533Z" fill="#FF6633" stroke="#FF6633" stroke-width="3" stroke-linejoin="round"/>
<path d="M340.693 133.909C345.03 133.034 348.03 129.828 347.38 126.75C346.731 123.671 342.699 121.891 338.362 122.767C334.025 123.642 331.025 126.848 331.665 129.926C332.304 133.004 336.346 134.785 340.693 133.909Z" fill="#FBAD41" stroke="#FF6633" stroke-width="3" stroke-linejoin="round"/>
<path d="M400.842 130.929V126.7L397.193 127.251C395.507 126.668 393.692 126.565 391.951 126.956C390.565 127.225 389.251 127.785 388.096 128.598L385.323 129.011V134.095C385.323 137.439 389.916 138.954 394.174 138.029C398.432 137.105 400.803 134.607 400.842 130.929Z" fill="#FF6633" stroke="#003682" stroke-width="3" stroke-linejoin="round"/>
<path d="M391.863 138.54C390.012 138.636 388.18 138.121 386.65 137.075C386.196 136.728 385.826 136.282 385.571 135.771C385.315 135.26 385.18 134.696 385.175 134.125V128.853L388.126 128.421C389.308 127.601 390.648 127.035 392.059 126.759C393.824 126.385 395.656 126.483 397.37 127.044L401.215 126.464V130.889C401.215 134.744 398.786 137.37 394.459 138.245C393.608 138.444 392.737 138.543 391.863 138.54ZM385.578 129.207V134.125C385.578 134.624 385.696 135.116 385.923 135.561C386.162 136.006 386.498 136.393 386.906 136.692C387.975 137.382 389.173 137.847 390.427 138.059C391.684 138.264 392.97 138.207 394.203 137.891C398.295 137.055 400.557 134.577 400.606 131.007V127.073L397.164 127.585C395.512 127.033 393.741 126.937 392.04 127.309C390.682 127.572 389.395 128.118 388.263 128.912H388.165L385.578 129.207Z" fill="#FF6633" stroke="#FF6633" stroke-width="3" stroke-linejoin="round"/>
<path d="M394.43 133.536C398.767 132.66 401.756 129.454 401.117 126.376C400.478 123.298 396.436 121.518 392.099 122.442C387.762 123.366 384.762 126.523 385.401 129.592C386.041 132.66 390.063 134.45 394.43 133.536Z" fill="#FBAD41" stroke="#FF6633" stroke-width="3" stroke-linejoin="round"/>
<path d="M373.777 146.242V142.013L370.129 142.564C368.443 141.981 366.628 141.878 364.887 142.269C363.498 142.54 362.181 143.1 361.022 143.911L358.258 144.324V149.409C358.258 152.752 362.851 154.267 367.109 153.342C371.368 152.418 373.699 149.92 373.777 146.242Z" fill="#FF6633" stroke="#003682" stroke-width="3" stroke-linejoin="round"/>
<path d="M364.759 153.854C362.908 153.949 361.076 153.435 359.546 152.388C359.092 152.042 358.722 151.595 358.467 151.084C358.211 150.573 358.076 150.01 358.071 149.438V144.166L361.021 143.734C362.205 142.915 363.544 142.349 364.955 142.072C366.723 141.693 368.559 141.791 370.276 142.357L374.121 141.777V146.192C374.121 150.057 371.692 152.673 367.355 153.558C366.504 153.758 365.633 153.857 364.759 153.854ZM358.494 144.52V149.438C358.502 149.937 358.623 150.428 358.848 150.874C359.087 151.319 359.423 151.706 359.831 152.005C360.899 152.697 362.097 153.162 363.352 153.372C364.606 153.577 365.889 153.52 367.119 153.204C371.22 152.369 373.482 149.89 373.531 146.271V142.337L370.079 142.849C368.427 142.296 366.657 142.201 364.955 142.573C363.601 142.837 362.318 143.384 361.189 144.176H361.09L358.494 144.52Z" fill="#FF6633" stroke="#FF6633" stroke-width="3" stroke-linejoin="round"/>
<path d="M367.296 148.887C371.643 148.011 374.633 144.805 373.993 141.727C373.354 138.649 369.312 136.869 364.965 137.793C360.618 138.718 357.629 141.874 358.278 144.943C358.927 148.011 362.959 149.762 367.296 148.887Z" fill="#FBAD41" stroke="#FF6633" stroke-width="3" stroke-linejoin="round"/>
<defs>
<linearGradient id="paint0_linear_0_1" x1="476.01" y1="-4.40963e-05" x2="400.961" y2="389.821" gradientUnits="userSpaceOnUse">
<stop stop-color="#E0EDFF"/>
<stop offset="1" stop-color="white"/>
</linearGradient>
<linearGradient id="paint1_linear_0_1" x1="423.497" y1="70.096" x2="407.017" y2="203.24" gradientUnits="userSpaceOnUse">
<stop stop-color="#E0EDFF"/>
<stop offset="1" stop-color="white"/>
</linearGradient>
<linearGradient id="paint2_linear_0_1" x1="439.611" y1="222.56" x2="439.543" y2="232.266" gradientUnits="userSpaceOnUse">
<stop stop-color="#E0EDFF"/>
<stop offset="1" stop-color="white"/>
</linearGradient>
<linearGradient id="paint3_linear_0_1" x1="371.825" y1="247.159" x2="368.599" y2="59.325" gradientUnits="userSpaceOnUse">
<stop offset="0.00709136" stop-color="#FF6633"/>
<stop offset="0.335224" stop-color="#F6821F"/>
<stop offset="1" stop-color="#FBAD41"/>
</linearGradient>
<linearGradient id="paint4_linear_0_1" x1="409.81" y1="111.774" x2="383.798" y2="198.729" gradientUnits="userSpaceOnUse">
<stop offset="0.642996" stop-color="#F9AB41"/>
<stop offset="1" stop-color="#F6821F"/>
</linearGradient>
<linearGradient id="paint5_linear_0_1" x1="348.699" y1="153.332" x2="303.5" y2="180" gradientUnits="userSpaceOnUse">
<stop stop-color="#F6821F"/>
<stop offset="0.198482" stop-color="#FF6633"/>
<stop offset="0.965" stop-color="#CE2F55"/>
</linearGradient>
</defs>
</svg>
