<svg xmlns="http://www.w3.org/2000/svg" width="757" height="426" fill="none">
  <path fill="#fff" d="M0 .342h757v425H0z" />
  <mask id="a" fill="#fff">
    <path fill-rule="evenodd"
      d="M699.764 299.188c6.406-4.73 15.371-5.275 22.948-.64a23.002 23.002 0 0 1 5.85 5.119c-6.407 4.73-15.371 5.275-22.948.64a23.002 23.002 0 0 1-5.85-5.119Z"
      clip-rule="evenodd" />
  </mask>
  <path fill="#6ECCE5" fill-rule="evenodd"
    d="M699.764 299.188c6.406-4.73 15.371-5.275 22.948-.64a23.002 23.002 0 0 1 5.85 5.119c-6.407 4.73-15.371 5.275-22.948.64a23.002 23.002 0 0 1-5.85-5.119Z"
    clip-rule="evenodd" />
  <path fill="#0055DC"
    d="m699.764 299.188-1.091-1.592-1.623 1.198 1.322 1.626 1.392-1.232Zm28.798 4.479 1.091 1.592 1.622-1.198-1.321-1.626-1.392 1.232Zm-27.707-2.887c5.826-4.301 14.014-4.816 20.959-.568l1.796-3.329c-8.208-5.021-17.95-4.446-24.937.713l2.182 3.184Zm20.959-.568a21.07 21.07 0 0 1 5.355 4.687l2.785-2.464a24.951 24.951 0 0 0-6.344-5.552l-1.796 3.329Zm5.657 1.863c-5.826 4.301-14.014 4.816-20.959.568l-1.797 3.329c8.209 5.021 17.951 4.446 24.938-.713l-2.182-3.184Zm-20.959.568a21.058 21.058 0 0 1-5.356-4.687l-2.784 2.464a24.946 24.946 0 0 0 6.343 5.552l1.797-3.329Z"
    mask="url(#a)" />
  <mask id="b" fill="#fff">
    <path fill-rule="evenodd"
      d="M739.058 289.305c-4.732 5.153-11.662 7.091-17.778 4.305a15.046 15.046 0 0 1-4.801-3.489c4.732-5.152 11.661-7.09 17.778-4.304a15.043 15.043 0 0 1 4.801 3.488Z"
      clip-rule="evenodd" />
  </mask>
  <path fill="#6ECCE5" fill-rule="evenodd"
    d="M739.058 289.305c-4.732 5.153-11.662 7.091-17.778 4.305a15.046 15.046 0 0 1-4.801-3.489c4.732-5.152 11.661-7.09 17.778-4.304a15.043 15.043 0 0 1 4.801 3.488Z"
    clip-rule="evenodd" />
  <path fill="#0055DC"
    d="m739.058 289.305 1.361 1.367 1.208-1.315-1.266-1.365-1.303 1.313Zm-22.579.816-1.362-1.366-1.207 1.314 1.266 1.365 1.303-1.313Zm21.217-2.183c-4.322 4.707-10.47 6.305-15.737 3.907l-1.359 3.53c6.967 3.173 14.678.896 19.819-4.703l-2.723-2.734Zm-15.737 3.907a13.11 13.11 0 0 1-4.177-3.037l-2.606 2.626a17.015 17.015 0 0 0 5.424 3.941l1.359-3.53Zm-4.118-.357c4.322-4.706 10.47-6.304 15.736-3.906l1.359-3.531c-6.966-3.172-14.677-.895-19.819 4.704l2.724 2.733Zm15.736-3.906a13.085 13.085 0 0 1 4.177 3.036l2.607-2.626a17.024 17.024 0 0 0-5.425-3.941l-1.359 3.531Z"
    mask="url(#b)" />
  <path stroke="#0055DC" stroke-linecap="square" stroke-linejoin="round" stroke-width="1.892"
    d="M726.216 280.58s-4.186 6.35-11.621 11.866c-7.671 5.691-18.447 5.477-23.106 8.167l-.03.017" />
  <path fill="#6ECCE5" fill-rule="evenodd"
    d="M736.152 262.672c1.443 5.951-.204 11.864-4.672 14.837a10.789 10.789 0 0 1-4.381 1.682c-1.443-5.951.204-11.864 4.672-14.837a10.789 10.789 0 0 1 4.381-1.682Z"
    clip-rule="evenodd" />
  <path fill="#0055DC"
    d="m736.152 262.672.915-.228-.203-.84-.85.13.138.938Zm-9.053 16.519-.915.228.203.84.85-.13-.138-.938Zm8.137-16.291c1.378 5.683-.233 11.129-4.274 13.817l1.036 1.583c4.894-3.256 6.577-9.637 5.069-15.856l-1.831.456Zm-4.274 13.817a9.846 9.846 0 0 1-4.001 1.536l.276 1.876a11.72 11.72 0 0 0 4.761-1.829l-1.036-1.583Zm-2.947 2.246c-1.378-5.683.233-11.129 4.274-13.817l-1.036-1.583c-4.894 3.256-6.577 9.637-5.069 15.856l1.831-.456Zm4.274-13.817a9.846 9.846 0 0 1 4.001-1.536l-.276-1.876a11.734 11.734 0 0 0-4.761 1.829l1.036 1.583Z" />
  <path fill="#fff" stroke="#0055DC" stroke-miterlimit="10" stroke-width="1.892"
    d="M112.676 296.839v5.527l-67.61-.005v-5.526l67.61.004Z" />
  <path fill="#C5EBF5" stroke="#0055DC" stroke-miterlimit="10" stroke-width="1.892"
    d="M40.921 277.907h75.899v19.973H40.921v-19.973Z" />
  <path fill="#fff" d="M44.916 293.885v-11.984h67.91v11.984h-67.91Z" />
  <path fill="#0055DC"
    d="M105.258 289.316a1.22 1.22 0 1 1 0-2.439 1.22 1.22 0 0 1 0 2.439ZM100.835 289.316a1.22 1.22 0 1 1 0-2.439 1.22 1.22 0 0 1 0 2.439Z" />
  <path fill="#6ECCE5" d="M94.548 290.842a2.745 2.745 0 1 1 0-5.49 2.745 2.745 0 0 1 0 5.49Z" />
  <path stroke="#0055DC" stroke-miterlimit="10" stroke-width="1.892"
    d="M56.9 278.621v-28.677M52.656 285.896h8.239" />
  <path stroke="#6ECCE5" stroke-width="1.892"
    d="M66.74 250.614a11.218 11.218 0 0 0-7.248-10.136 11.213 11.213 0 0 0-12.137 2.817" />
  <path stroke="#6ECCE5" stroke-width="1.892" d="M74.948 250.033a19.45 19.45 0 0 0-33.624-12.694" />
  <path stroke="#6ECCE5" stroke-width="1.892"
    d="M82.58 249.754a27.332 27.332 0 0 0-17.668-24.708 27.335 27.335 0 0 0-29.588 6.868" />
  <mask id="c" fill="#fff">
    <path fill-rule="evenodd"
      d="M39.75 300.365c3.41-6.846 2.935-15.201-1.87-21.234a17.732 17.732 0 0 0-5.042-4.348c-3.411 6.847-2.936 15.202 1.87 21.235a17.714 17.714 0 0 0 5.042 4.347Z"
      clip-rule="evenodd" />
  </mask>
  <path fill="#6ECCE5" fill-rule="evenodd"
    d="M39.75 300.365c3.41-6.846 2.935-15.201-1.87-21.234a17.732 17.732 0 0 0-5.042-4.348c-3.411 6.847-2.936 15.202 1.87 21.235a17.714 17.714 0 0 0 5.042 4.347Z"
    clip-rule="evenodd" />
  <path fill="#0055DC"
    d="m39.75 300.365 1.644.878-.882 1.771-1.668-.958.906-1.691Zm-6.912-25.582-1.645-.877.883-1.771 1.667.958-.905 1.69Zm5.267 24.705c3.1-6.22 2.635-13.732-1.656-19.12l2.861-2.475c5.32 6.679 5.807 15.877 2.084 23.35l-3.288-1.755Zm-1.656-19.12a15.866 15.866 0 0 0-4.517-3.894l1.81-3.381a19.593 19.593 0 0 1 5.569 4.8l-2.862 2.475Zm-1.967-4.707c-3.099 6.22-2.635 13.732 1.656 19.12l-2.861 2.475c-5.32-6.679-5.807-15.877-2.084-23.35l3.289 1.755Zm1.656 19.12a15.882 15.882 0 0 0 4.517 3.894l-1.81 3.381a19.59 19.59 0 0 1-5.568-4.8l2.861-2.475Z"
    mask="url(#c)" />
  <mask id="d" fill="#fff">
    <path fill-rule="evenodd"
      d="M12.882 294.518c4.536 4.94 11.18 6.798 17.044 4.127a14.423 14.423 0 0 0 4.602-3.344c-4.536-4.94-11.18-6.798-17.043-4.127a14.424 14.424 0 0 0-4.603 3.344Z"
      clip-rule="evenodd" />
  </mask>
  <path fill="#6ECCE5" fill-rule="evenodd"
    d="M12.882 294.518c4.536 4.94 11.18 6.798 17.044 4.127a14.423 14.423 0 0 0 4.602-3.344c-4.536-4.94-11.18-6.798-17.043-4.127a14.424 14.424 0 0 0-4.603 3.344Z"
    clip-rule="evenodd" />
  <path fill="#0055DC"
    d="m12.882 294.518-1.362 1.367-1.207-1.315 1.266-1.365 1.303 1.313Zm21.646.783 1.362-1.367 1.207 1.315-1.266 1.365-1.303-1.313Zm-20.285-2.15c4.127 4.494 9.99 6.012 15.003 3.729l1.36 3.531c-6.715 3.057-14.14.86-19.086-4.526l2.723-2.734Zm15.003 3.729a12.477 12.477 0 0 0 3.979-2.892l2.606 2.626a16.39 16.39 0 0 1-5.226 3.797l-1.359-3.531Zm3.92-.212c-4.126-4.494-9.988-6.012-15.002-3.729l-1.359-3.531c6.714-3.057 14.139-.86 19.085 4.526l-2.723 2.734Zm-15.002-3.729a12.475 12.475 0 0 0-3.979 2.892l-2.606-2.626a16.39 16.39 0 0 1 5.226-3.797l1.359 3.531Z"
    mask="url(#d)" />
  <path stroke="#0055DC" stroke-linecap="square" stroke-linejoin="round" stroke-width="1.892"
    d="M51.515 302.351c-2.474 0-7.826.635-15.18-4.821-7.129-5.289-11.141-11.376-11.141-11.376" />
  <path fill="#6ECCE5" fill-rule="evenodd"
    d="M16.298 269.615c-1.383 5.706.196 11.375 4.48 14.224a10.33 10.33 0 0 0 4.2 1.613c1.382-5.705-.196-11.374-4.48-14.224a10.359 10.359 0 0 0-4.2-1.613Z"
    clip-rule="evenodd" />
  <path fill="#0055DC"
    d="m16.298 269.615-.915-.227.203-.84.85.129-.138.938Zm8.68 15.837.915.228-.204.84-.85-.13.138-.938Zm-7.764-15.609c-1.318 5.438.224 10.639 4.081 13.205l-1.036 1.583c-4.71-3.134-6.325-9.271-4.876-15.243l1.831.455Zm4.081 13.205a9.399 9.399 0 0 0 3.82 1.466l-.276 1.876a11.288 11.288 0 0 1-4.58-1.759l1.036-1.583Zm2.766 2.177c1.319-5.438-.224-10.64-4.08-13.206l1.035-1.582c4.71 3.133 6.325 9.27 4.877 15.243l-1.832-.455Zm-4.08-13.206a9.397 9.397 0 0 0-3.82-1.465l.275-1.877c1.618.246 3.172.823 4.58 1.76l-1.036 1.582Z" />
  <g clip-path="url(#e)">
    <path fill="url(#f)"
      d="m379.462 243.886 2.498 160.269-1.192.02-2.498-160.27 1.192-.019ZM361.797 403.29l1.187.107 14.278-159.63-1.188-.107-14.277 159.63Zm12.118-160.105-30.894 157.242 1.169.23 30.894-157.242-1.169-.23Zm-2.098-.698-47.172 153.131 1.139.352 47.172-153.131-1.139-.352Zm-2.013-.911-62.935 147.342 1.097.468 62.935-147.341-1.097-.469Zm-1.909-1.116L289.89 380.397l1.041.58 78.006-139.938-1.042-.579Zm-1.779-1.312L273.891 370.15l.975.687 92.225-131.002-.975-.687Zm-1.634-1.489L259.049 358.288l.897.785 105.432-120.629-.896-.785Zm-1.472-1.65L245.526 344.945l.811.874 117.484-108.936-.811-.874Zm-1.288-1.796-128.249 96.048.715.955 128.249-96.048-.715-.955Zm-1.095-1.921-137.607 82.11.61 1.024 137.609-82.109-.612-1.025Zm-.888-2.024-145.46 67.27.501 1.083 145.46-67.27-.501-1.083Zm-.67-2.106L207.35 279.857l.383 1.129 151.719-51.695-.383-1.129Zm-.448-2.161-156.315 35.55.266 1.163 156.315-35.551-.266-1.162Zm-.221-2.199-159.198 19.021.142 1.183 159.198-19.021-.142-1.183Zm.014-2.208-160.339 2.278.017 1.193 160.338-2.279-.016-1.192Zm.242-2.196-159.72-14.485-.107 1.188 159.719 14.484.108-1.187Zm.472-2.156L201.774 186.15l-.23 1.169 157.354 31.092.23-1.169Zm.693-2.097-153.262-47.358-.351 1.138 153.261 47.358.352-1.138Zm.909-2.011-147.49-63.105-.469 1.097 147.491 63.105.468-1.097Zm1.114-1.906-140.103-78.161-.58 1.041 140.104 78.161.579-1.041Zm1.319-2.298-111.981-78.867-.687.975 111.982 78.868.686-.976Zm1.485-1.63-111.279-97.269-.784.899 111.28 97.269.783-.899Zm.776-.656.873-.811-72.294-77.952-.873.81 72.294 77.953Zm2.667-2.097L273.396 78.17l-.955.715 94.696 126.378.954-.716Zm1.917-1.093-68.039-113.93-1.024.614 68.038 113.929 1.025-.613Zm2.02-.884L322.54 95.697l-1.082.501 49.488 106.872 1.082-.5Zm.973-.284 1.129-.384-33.804-99.026-1.129.384 33.804 99.026Zm3.29-.831L338.013 33.663l-1.162.266 38.278 167.791 1.162-.265ZM361.593 60.666l-1.183.142 16.893 140.573 1.183-.142-16.893-140.573Zm19.099 140.586-1.508-101.001-1.192.019 1.508 101.001 1.192-.019Zm16.438 33.199 140.105 78.161.58-1.041L397.71 233.41l-.58 1.041Zm-1.308 1.778 131.184 92.361.687-.975-131.184-92.361-.687.975Zm-1.487 1.633L515.16 343.409l.784-.899-120.825-105.547-.784.899Zm-1.65 1.464 109.144 117.58.873-.811-109.145-117.58-.872.811Zm-1.795 1.288 96.264 128.321.955-.716-96.265-128.32-.954.715Zm-1.918 1.092 82.33 137.656 1.022-.613-82.331-137.656-1.021.613Zm-2.025.885 67.496 145.487 1.08-.503-67.496-145.487-1.08.503Zm-2.104.668 51.922 151.721 1.126-.386-51.921-151.721-1.127.386Zm-2.165.445 35.779 156.292 1.162-.266-35.778-156.292-1.163.266Zm-2.198.216 19.244 159.153 1.183-.142-19.244-159.153-1.183.142Zm14.401-175.69-1.188-.107-11.994 133.266 1.187.107L394.881 68.23Zm-9.841 133.737 34.143-173.363-1.17-.23-34.142 173.363 1.169.23Zm.956.344 1.139.352 32.639-105.837-1.139-.351-32.639 105.836Zm3.15 1.261 54.842-128.34-1.097-.47-54.842 128.342 1.097.468Zm1.902 1.115 77.976-139.88-1.041-.579-77.976 139.88 1.041.579Zm1.207.729.975.687 43.404-61.661-.975-.687-43.404 61.661Zm66.948-71.462-.896-.785-64.343 73.635.896.785 64.343-73.635Zm-.172 17.124-.811-.873-62.705 58.16.811.873 62.705-58.16Zm-61.417 59.954 89.632-67.155-.715-.955-89.632 67.154.715.956Zm1.092 1.918 137.419-82.041-.61-1.024-137.419 82.041.61 1.024Zm.887 2.022 145.256-67.222-.501-1.083-145.256 67.222.501 1.083Zm.669 2.101 151.501-51.666-.384-1.129-151.501 51.665.384 1.13Zm.447 2.161 156.087-35.545-.266-1.163-156.086 35.545.265 1.163Zm.218 2.196 158.963-19.035-.142-1.183-158.963 19.035.142 1.183Zm-.013 2.204 160.096-2.312-.016-1.193-160.097 2.312.017 1.193Zm-.242 2.193 159.475 14.433.107-1.188-159.475-14.433-.107 1.188Zm-.471 2.155L557.31 259l.23-1.169-157.109-31.018-.23 1.169Zm-.694 2.094 153.02 47.265.352-1.139-153.02-47.265-.352 1.139Zm-.907 2.009 147.253 62.993.468-1.097-147.252-62.993-.469 1.097Z" />
  </g>
  <mask id="g" width="310" height="173" x="224.545" y="135.421" fill="#000"
    maskUnits="userSpaceOnUse">
    <path fill="#fff" d="M224.545 135.421h310v173h-310z" />
    <path fill-rule="evenodd"
      d="M498.659 150.865v141.036h29.901a1.87 1.87 0 0 1 1.98 1.731v6.138c-.006 2.649-9.232 4.428-22.957 4.428H251.501c-10.601 0-21.323-1.383-22.786-4.034a1.284 1.284 0 0 1-.17-.629v-5.903a1.869 1.869 0 0 1 1.98-1.731h29.607V150.865a11.507 11.507 0 0 1 11.536-11.444h215.454a11.505 11.505 0 0 1 11.537 11.444Zm30.532 148.862-.005-6.095-.001-.004v-.007c-.007-.176-.275-.37-.625-.37l-298.036.004c-.358 0-.625.199-.625.377v5.903a.343.343 0 0 0 .055.122c.687 1.005 7.421 3.185 21.545 3.185h256.084c15.6 0 21.297-2.282 21.608-3.115Zm-.006-6.106c-.011-.175-.275-.366-.625-.366H230.525c-.357 0-.624.199-.624.377v5.905a.328.328 0 0 0 .053.12"
      clip-rule="evenodd" />
  </mask>
  <path fill="#0055DC" fill-rule="evenodd"
    d="M498.659 150.865v141.036h29.901a1.87 1.87 0 0 1 1.98 1.731v6.138c-.006 2.649-9.232 4.428-22.957 4.428H251.501c-10.601 0-21.323-1.383-22.786-4.034a1.284 1.284 0 0 1-.17-.629v-5.903a1.869 1.869 0 0 1 1.98-1.731h29.607V150.865a11.507 11.507 0 0 1 11.536-11.444h215.454a11.505 11.505 0 0 1 11.537 11.444Zm30.532 148.862-.005-6.095-.001-.004v-.007c-.007-.176-.275-.37-.625-.37l-298.036.004c-.358 0-.625.199-.625.377v5.903a.343.343 0 0 0 .055.122c.687 1.005 7.421 3.185 21.545 3.185h256.084c15.6 0 21.297-2.282 21.608-3.115Zm-.006-6.106c-.011-.175-.275-.366-.625-.366H230.525c-.357 0-.624.199-.624.377v5.905a.328.328 0 0 0 .053.12"
    clip-rule="evenodd" />
  <path fill="#fff"
    d="m229.993 301.548 299.23-6.036-.076-3.782-299.231 6.036.077 3.782Zm268.666-9.647h-3.783v3.783h3.783v-3.783Zm0-141.036h3.783V150.844l-3.783.021Zm29.901 141.036v3.783h.116l.116-.007-.232-3.776Zm1.345.459 2.491-2.848-2.491 2.848Zm.635 1.272h3.783v-.137l-.01-.136-3.773.273Zm0 6.138 3.783.008v-.008h-3.783Zm-301.825.394 3.313-1.827-.003-.006-3.31 1.833Zm-.17-6.532-3.773-.271-.01.136v.135h3.783Zm.634-1.272-2.492-2.847 2.492 2.847Zm.98-.446-.508-3.749.508 3.749Zm.234-.017.033 3.784.003-.001-.036-3.783Zm.132.004-.232 3.776.116.007h.116v-3.783Zm29.607 0v3.783h3.783v-3.783h-3.783Zm0-141.036-3.784-.021V150.865h3.784Zm3.402-8.107 2.665 2.686-2.665-2.686Zm8.134-3.337-.01 3.784h.01v-3.784Zm215.454 0v3.784h.011l-.011-3.784Zm8.134 3.337-2.664 2.686 2.664-2.686Zm33.93 150.874 3.783-.003v-.095l-.005-.094-3.778.192Zm.005 6.095 3.545 1.322.239-.641-.001-.684-3.783.003Zm-.006-6.099h-3.783v.096l.005.096 3.778-.192Zm0-.007 3.781-.146-.001-.005-3.78.151Zm-.625-.37v-3.783 3.783Zm-298.036.004v3.783-3.783Zm-.625 6.28h-3.783v.363l.069.357 3.714-.72Zm.055.122-3.123 2.134v.001l3.123-2.135Zm-.053-.12h-3.783v.361l.068.354 3.715-.715Zm272.541-7.636V150.865h-7.566v141.036h7.566Zm-3.783 3.783h29.901v-7.566h-29.901v7.566Zm30.133-.007a1.915 1.915 0 0 1-1.377-.469l4.981-5.696a5.65 5.65 0 0 0-4.068-1.387l.464 7.552Zm-1.377-.47a1.914 1.914 0 0 1-.649-1.301l7.547-.547a5.657 5.657 0 0 0-1.917-3.847l-4.981 5.695Zm-.659-1.575v6.138h7.567v-6.138h-7.567Zm0 6.129c.004-1.721 1.402-2.05.434-1.567-.628.314-1.82.706-3.701 1.069-3.694.712-9.167 1.152-15.906 1.152v7.566c6.985 0 12.988-.45 17.339-1.289 2.143-.413 4.116-.963 5.648-1.728 1.193-.596 3.746-2.14 3.753-5.186l-7.567-.017Zm-19.173.654H251.501v7.566h256.082v-7.566Zm-256.082 0c-5.166 0-10.284-.339-14.216-.974-1.98-.321-3.526-.695-4.586-1.082-.529-.193-.833-.352-.975-.443-.173-.111.067-.008.304.421l-6.625 3.655c.602 1.091 1.497 1.818 2.232 2.29.766.492 1.623.876 2.47 1.185 1.693.618 3.764 1.086 5.973 1.443 4.444.718 9.987 1.071 15.423 1.071v-7.566Zm-26.739-.88c0 .924.254 1.759.644 2.462l6.619-3.666c.166.299.304.715.304 1.204h-7.567Zm0-5.903v5.903h7.567v-5.903h-7.567Zm1.925-4.119a5.653 5.653 0 0 0-1.915 3.848l7.547.542a1.913 1.913 0 0 1-.649 1.304l-4.983-5.694Zm2.964-1.348a5.653 5.653 0 0 0-2.964 1.348l4.983 5.694a1.915 1.915 0 0 1-1.003.456l-1.016-7.498Zm.708-.051c-.238.002-.474.02-.708.051l1.015 7.498a1.91 1.91 0 0 1-.24.018l-.067-7.567Zm.07 7.566c-.039.001-.084 0-.136-.003l.464-7.552a5.563 5.563 0 0 0-.401-.011l.073 7.566Zm.096.004h29.607v-7.566h-29.607v7.566Zm25.823-144.819v141.036h7.567V150.865h-7.567Zm4.522-10.793a15.29 15.29 0 0 0-4.522 10.772l7.567.041a7.722 7.722 0 0 1 2.284-5.441l-5.329-5.372Zm10.809-4.434a15.288 15.288 0 0 0-10.809 4.434l5.329 5.372a7.716 7.716 0 0 1 5.459-2.239l.021-7.567Zm215.443 0H271.668v7.567h215.454v-7.567Zm10.799 4.434a15.288 15.288 0 0 0-10.809-4.434l.021 7.567a7.718 7.718 0 0 1 5.459 2.239l5.329-5.372Zm4.521 10.772a15.285 15.285 0 0 0-4.521-10.772l-5.329 5.372a7.722 7.722 0 0 1 2.284 5.441l7.566-.041Zm22.96 142.791.006 6.095 7.566-.006-.005-6.095-7.567.006Zm.005.185v.005l7.557-.385v-.004l-7.557.384Zm-.002-.053c-.001-.028-.003-.077-.003-.139h7.567c0-.067-.002-.121-.003-.153l-7.561.292Zm3.155 3.267a2.954 2.954 0 0 1-1.577-.464 3.313 3.313 0 0 1-.896-.838 3.549 3.549 0 0 1-.682-1.96l7.56-.302c-.075-1.895-1.368-2.936-1.945-3.3a4.622 4.622 0 0 0-2.46-.702v7.566Zm-298.036.004 298.036-.004v-7.566l-298.036.004v7.566Zm3.159-3.406a3.465 3.465 0 0 1-1.551 2.922 2.962 2.962 0 0 1-1.608.484v-7.566c-.857 0-1.736.233-2.501.728-.592.383-1.907 1.482-1.907 3.432h7.567Zm0 5.903v-5.903h-7.567v5.903h7.567Zm-.605-2.012c.175.255.419.691.536 1.293l-7.429 1.439c.132.678.412 1.195.646 1.536l6.247-4.268Zm18.421 1.535c-6.88 0-11.852-.531-15.106-1.149-1.635-.31-2.773-.63-3.473-.885a4.513 4.513 0 0 1-.57-.24c-.162-.092.301.114.728.738l-6.247 4.27c.598.875 1.423 1.369 1.815 1.589.513.288 1.09.536 1.683.752 1.197.436 2.754.85 4.654 1.21 3.815.724 9.272 1.282 16.516 1.282v-7.567Zm256.084 0H251.499v7.567h256.084v-7.567Zm18.063-.653a3.284 3.284 0 0 1 .75-1.183c.17-.171.304-.26.337-.282.066-.043.004.006-.27.116-.532.214-1.514.521-3.076.829-3.104.614-8.17 1.173-15.804 1.173v7.567c7.966 0 13.548-.581 17.271-1.317 1.851-.366 3.326-.786 4.437-1.234a9.072 9.072 0 0 0 1.602-.814c.298-.196 1.35-.889 1.843-2.211l-7.09-2.644Zm2.914-1.367a2.95 2.95 0 0 1-1.567-.459 3.446 3.446 0 0 1-1.584-2.722l7.552-.472c-.115-1.838-1.365-2.851-1.954-3.22a4.62 4.62 0 0 0-2.447-.693v7.566Zm-298.035 0H528.56v-7.566H230.525v7.566Zm3.159-3.406a3.463 3.463 0 0 1-1.551 2.922 2.96 2.96 0 0 1-1.608.484v-7.566a4.61 4.61 0 0 0-2.5.728c-.593.383-1.907 1.482-1.907 3.432h7.566Zm0 5.905v-5.905h-7.566v5.905h7.566Zm-.595-1.998c.174.258.413.69.527 1.284l-7.43 1.429a4.11 4.11 0 0 0 .633 1.523l6.27-4.236Z"
    mask="url(#g)" />
  <path fill="#C5EBF5" stroke="#0055DC" stroke-width="1.892"
    d="M142.997 293.036h102.305V278.58H142.997v14.456ZM152.407 278.58h90.674v-5.657h-90.674v5.657Z" />
  <path fill="#6ECCE5" stroke="#0055DC" stroke-width="1.892"
    d="M146.178 301.836h88.526v-8.8h-88.526v8.8Z" />
  <path fill="#fff"
    d="M213.507 285.496c0 2.114-1.425 3.769-3.075 3.769H170.45c-1.725 0-3.075-1.747-3.075-3.769 0-2.115 1.425-3.77 3.075-3.77h39.982c1.65-.092 3.075 1.655 3.075 3.77Z" />
  <path fill="#E2F5FA" stroke="#0055DC" stroke-width="1.892"
    d="M152.407 278.58h5.611v14.456h-5.611zM179.219 272.923h5.611v5.657h-5.611zM229.093 272.923h5.611v5.657h-5.611z" />
  <path fill="#C5EBF5" fill-rule="evenodd"
    d="M486.009 140.096H270.552a10.893 10.893 0 0 0-10.859 10.766v141.716h237.173V150.865a10.885 10.885 0 0 0-10.857-10.769Z"
    clip-rule="evenodd" />
  <path fill="#fff" d="M486.832 157.037h-217.66v126.845h217.66V157.037Z" />
  <path fill="#C5EBF5" fill-rule="evenodd"
    d="M507.125 303.509H251.039c-13.312 0-22.277-2.041-22.277-3.984v-5.905a1.198 1.198 0 0 1 1.301-1.054H528.1a1.193 1.193 0 0 1 1.302 1.054v6.138c0 1.538-6.946 3.751-22.277 3.751Z"
    clip-rule="evenodd" />
  <path fill="#fff" fill-rule="evenodd"
    d="M528.508 299.758c0 1.535-6.946 3.751-22.277 3.751H250.145c-13.312 0-22.277-2.041-22.277-3.984l300.64.233Z"
    clip-rule="evenodd" />
  <path fill="#0055DC" fill-rule="evenodd"
    d="M410.844 293v1.342c0 .956-1.882 1.244-3.307 1.244h-58.456c-1.499 0-3.394-.288-3.394-1.244V293"
    clip-rule="evenodd" />
  <path fill="#0055DC" stroke="#0055DC" stroke-width=".631"
    d="M507.169 304.198H251.088c-11.408 0-22.955-1.601-22.955-4.661v-5.905a1.869 1.869 0 0 1 1.979-1.731h298.035c.491-.03.975.134 1.345.459.371.324.599.781.634 1.272v6.138c-.006 2.649-9.231 4.428-22.957 4.428ZM230.11 293.255c-.357 0-.624.199-.624.377v5.903c.182.937 6.874 3.307 21.6 3.307h256.083c15.601 0 21.298-2.282 21.609-3.115l-.006-6.099c0-.178-.271-.377-.625-.377l-298.037.004Z" />
  <path fill="#0055DC" stroke="#0055DC" stroke-width=".631"
    d="M528.146 291.901h-29.9V150.865a11.508 11.508 0 0 0-11.537-11.444H271.255a11.507 11.507 0 0 0-11.537 11.444v141.036H230.11a1.871 1.871 0 0 0-1.978 1.731v5.903c0 3.06 11.548 4.661 22.954 4.661h256.083c13.725 0 22.951-1.779 22.955-4.428v-6.138a1.867 1.867 0 0 0-1.978-1.729ZM261.072 150.865a10.273 10.273 0 0 1 10.183-10.089h215.459a10.15 10.15 0 0 1 10.182 10.089v141.036H261.072V150.865Zm246.097 151.979H251.087c-14.727 0-21.419-2.37-21.6-3.307v-5.905c0-.178.267-.377.625-.377h298.034c.358 0 .626.199.626.377l.005 6.1c-.31.831-6.008 3.112-21.608 3.112Z" />
  <path fill="#fff"
    d="M457.173 277.869c11.441 0 20.716-9.275 20.716-20.716s-9.275-20.715-20.716-20.715-20.716 9.274-20.716 20.715 9.275 20.716 20.716 20.716Z" />
  <path fill="#0055DC" fill-rule="evenodd"
    d="M567.719 186.106c25.735 6.896 41.012 33.153 34.173 58.679-6.833 25.499-33.221 40.592-58.926 33.704a49.486 49.486 0 0 1-4.848-1.569l3.197-4.249 1.39.463.646-2.41c-.592-.279-.97-.56-.903-.813a84.377 84.377 0 0 0 5.254 1.408c-.067.252-.536.307-1.187.253l-.646 2.409c22.485 5.124 45.146-8.264 51.108-30.513 5.968-22.276-6.963-45.201-29.005-51.978l-.645 2.409c.591.279.97.561.902.813a56.654 56.654 0 0 0-5.254-1.408c.068-.252.536-.307 1.188-.252l.646-2.41c-1.194-.29-2.382-.488-3.578-.658l-.631-5.215c2.357.241 4.747.701 7.119 1.337Z"
    clip-rule="evenodd" />
  <path fill="#0055DC" fill-rule="evenodd"
    d="M568.288 295.426c3.237.653 13.732 1.164 14.541 6.559h-54.524c.809-5.395 11.304-5.935 14.542-6.559 5.492-5.282 8.702-10.535 9.627-15.788 1.012.057 2.052.114 3.093.114s2.082-.028 3.093-.114c.926 5.253 4.135 10.506 9.628 15.788Z"
    clip-rule="evenodd" />
  <path fill="#fff"
    d="m517.845 222.362 17.597 4.715c1.809-6.755 4.46-13.093 7.714-18.127l-15.108-4.048c-4.854 4.605-8.346 10.527-10.203 17.46ZM535.44 227.077l-17.597-4.715c-1.809 6.754-1.794 13.807-.071 20.174l15.108 4.049c.073-1.695.016-3.616.09-5.311.479-4.634 1.137-9.22 2.47-14.197Z" />
  <path fill="#fff"
    d="m528.048 204.902 15.109 4.048c6.555-10.246 15.002-16.174 22.467-14.174-13.864-3.715-27.951.512-37.576 10.126ZM533.106 246.454l-15.108-4.048c3.576 12.96 13.615 23.842 27.657 27.604-7.513-1.822-12.09-11.05-12.549-23.556Z" />
  <path fill="#E2F5FA"
    d="m535.441 227.077 20.263 5.429 5.049-18.841-17.419-4.667c-3.254 5.034-6.035 11.147-7.893 18.079Z" />
  <path fill="#E2F5FA"
    d="m555.704 232.506-20.263-5.43c-1.286 4.799-2.216 9.694-2.471 14.198-.12 1.873-.063 3.793-.089 5.31l17.597 4.715 5.048-18.841.178.048Z" />
  <path fill="#E2F5FA"
    d="m550.703 251.169-17.419-4.667c.554 12.15 4.905 21.508 12.371 23.508l5.048-18.841Z" />
  <path fill="#E2F5FA" stroke="#0055DC" stroke-width="2.009"
    d="M565.801 194.824c-7.466-2-15.912 3.928-22.468 14.174l17.419 4.667 5.049-18.841Z" />
  <path fill="#C5EBF5"
    d="m550.703 251.17-5.048 18.841c7.465 2 15.912-3.929 22.467-14.174l-17.419-4.667Z" />
  <path fill="#C5EBF5"
    d="m555.704 232.507-5.049 18.841 17.419 4.667c3.254-5.034 5.905-11.372 7.715-18.127l-20.085-5.381Z" />
  <path fill="#C5EBF5"
    d="m560.753 213.665-5.049 18.841 20.263 5.43c1.81-6.755 2.683-13.569 2.382-19.556l-17.596-4.715Z" />
  <path fill="#C5EBF5"
    d="m565.802 194.824-5.049 18.841 17.419 4.667c-.507-12.328-4.905-21.508-12.37-23.508Z" />
  <path fill="#C5EBF5"
    d="M565.802 194.824c7.465 2 11.816 11.358 12.37 23.508l15.109 4.049c-3.351-13.091-13.615-23.842-27.479-27.557ZM568.122 255.837c-6.555 10.245-15.002 16.174-22.467 14.173 14.041 3.763 28.176-.642 37.753-10.077l-15.286-4.096ZM568.122 255.836l15.109 4.049c4.853-4.606 8.215-10.753 10.025-17.508l-17.597-4.715c-1.727 7.158-4.331 13.318-7.537 18.174Z" />
  <path fill="#C5EBF5"
    d="m593.28 222.381-15.108-4.048c.301 5.986-.573 12.801-2.383 19.555l17.597 4.715c1.858-6.932 1.795-13.807-.106-20.222Z" />
  <path stroke="#0055DC" stroke-miterlimit="10" stroke-width="2.009"
    d="M517.845 222.362c-1.81 6.754-1.795 13.807-.072 20.174 3.576 12.96 13.615 23.842 27.657 27.605 14.042 3.762 28.176-.642 37.753-10.078 4.854-4.605 8.216-10.753 10.026-17.508 1.81-6.754 1.794-13.807.071-20.174-3.576-12.96-13.614-23.842-27.656-27.605-14.042-3.762-28.177.642-37.754 10.078-4.676 4.653-8.168 10.576-10.025 17.508Z" />
  <path stroke="#0055DC" stroke-miterlimit="10" stroke-width="2.009"
    d="M533.149 241.321c-.121 1.873-.064 3.793-.09 5.311.555 12.15 4.906 21.508 12.371 23.508 7.465 2 15.912-3.928 22.467-14.173 3.254-5.034 5.905-11.373 7.715-18.127 1.81-6.754 2.683-13.569 2.382-19.556-.554-12.15-4.905-21.508-12.37-23.508-7.466-2-15.912 3.928-22.468 14.174-3.254 5.033-5.905 11.372-7.714 18.126-1.334 4.977-1.991 9.564-2.293 14.245Z" />
  <path stroke="#0055DC" stroke-miterlimit="10" stroke-width="2.009"
    d="m593.387 242.603-17.597-4.716-20.085-5.381-20.263-5.43-17.597-4.715" />
  <path stroke="#0055DC" stroke-miterlimit="10" stroke-width="2.009"
    d="m565.801 194.824-5.049 18.841-5.048 18.841-5.001 18.663-5.048 18.841" />
  <path stroke="#0055DC" stroke-miterlimit="10" stroke-width="2.009"
    d="m593.28 222.381-15.108-4.048-17.419-4.668-17.597-4.715-15.108-4.048M583.231 259.885l-15.108-4.048-17.419-4.668-17.597-4.715-15.108-4.048" />
  <path fill="#C5EBF5" stroke="#0055DC" stroke-width="1.892"
    d="M633.896 214.409v87.066h13.53v-87.066h-13.53Z" />
  <path fill="#6ECCE5" stroke="#0055DC" stroke-width="1.892"
    d="M620.365 220.292v81.183h13.531v-81.183h-13.531Z" />
  <path fill="#C5EBF5" stroke="#0055DC" stroke-width="1.892"
    d="M603.306 203.82v97.655h17.06V203.82h-17.06Z" />
  <path fill="#6ECCE5" stroke="#0055DC" stroke-width="1.892"
    d="M647.427 242.646v58.829h10.589v-58.829h-10.589Z" />
  <path fill="#E2F5FA" stroke="#0055DC" stroke-width="1.892"
    d="M620.366 223.233h-17.06v12.184h17.06v-12.184ZM620.366 269.708h-17.06v12.353h17.06v-12.353Z" />
  <path fill="#fff"
    d="M640.954 289.121c-1.979 0-3.528-1.927-3.528-4.157V230.92c0-2.332 1.635-4.157 3.528-4.157 1.979 0 3.528 1.926 3.528 4.157v54.044c.086 2.23-1.549 4.157-3.528 4.157Z" />
  <path fill="#C5EBF5" stroke="#0055DC" stroke-width="1.892"
    d="M628.155 289.709h-2.637c-1.191 0-2.211-1.211-2.211-2.624v-18.872c0-1.412 1.02-2.624 2.211-2.624h2.637c1.19 0 2.211 1.212 2.211 2.624v18.872c0 1.514-1.021 2.624-2.211 2.624Z" />
  <path fill="#fff" stroke="#0055DC" stroke-width="1.892"
    d="M239.854 222.371v.003c.062 1.746-.514 3.831-1.491 6.037-.969 2.19-2.296 4.419-3.646 6.427a73.401 73.401 0 0 1-5.149 6.741h-27.275l-.185-.216a73.07 73.07 0 0 1-4.963-6.525c-1.35-2.008-2.677-4.237-3.646-6.427-.977-2.206-1.553-4.291-1.491-6.037.076-2.111.99-7.324 2.353-14.066 1.356-6.702 3.135-14.816 4.905-22.659a2532.596 2532.596 0 0 1 6.438-27.746l.428-1.797h19.598l.43 1.798c.384 1.612.934 3.925 1.594 6.729a2413.803 2413.803 0 0 1 4.857 21.016c1.772 7.844 3.552 15.957 4.906 22.659 1.362 6.743 2.271 11.954 2.337 14.063Z" />
  <path fill="#FBAD41"
    d="M216.86 232.05c.08 2.905-.395 5.512-1.82 7.076-.514.559-1.147.968-1.938 1.266a5.41 5.41 0 0 1-1.702.261c-13.295-.224 5.737-5.363-7.478-15.566-4.59-3.501-17.093-10.539-3.719-23.499 5.262-5.102 15.668-4.282 17.291.224 2.374 6.666-.673 10.725-1.623 14.598-2.057 8.453.989 14.188.989 15.64Z" />
  <path fill="#F63"
    d="M207.442 186.543a4.116 4.116 0 0 1-.633-.745c-5.223-8.044-4.787-19.551 6.41-27.707.792-.67 3.878-1.191 5.5-.447.079.038.119.075.198.075 14.205 5.213 1.464 18.322-5.183 27.706-1.543 2.198-4.471 2.756-6.292 1.155.04 0 0-.037 0-.037Z" />
  <path fill="#FBAD41"
    d="M232.846 212.349c.158.187.316.373.475.596 3.917 6.405 3.6 14.822-4.788 19.812-.594.41-2.889.521-4.115-.149a.314.314 0 0 0-.158-.075c-10.605-5.139-1.108-13.629 3.838-19.923 1.147-1.452 3.363-1.601 4.669-.298.039 0 .079 0 .079.037Z" />
  <path fill="#FD8639"
    d="M225.327 180.659c3.522.633 4.788 4.841 4.828 4.915.712 5.102-.713 6.033-7.122 12.178-4.392 4.208-5.461 8.9-8.428 10.8-3.838 2.495-10.209 2.308-7.795-3.129.91-2.271 10.96-7.299 11.672-9.57.792-2.607-4.59-3.575-2.651-10.502.515-1.936 3.957-5.698 9.496-4.692ZM230.353 210.079c-1.346.112-3.72-1.601-3.799-1.676-1.939-1.638-1.345-4.133 1.306-5.4.791-.335 2.374-.744 2.928-.409 1.939 1.043.989 2.867 1.82 4.32.158.26.752 2.942-2.255 3.165Z" />
  <path fill="#C5EBF5" stroke="#0055DC" stroke-width="1.892"
    d="M223.971 154.643h1.394l1.806 7.618H204.69l1.806-7.618H223.971ZM237.932 272.329h-43.816l2.84-7.547.003-.007.003-.008 7.523-21.078.149-.419-.227-.382-4.612-7.769h32.458l-4.612 7.769-.227.382.149.419 7.523 21.078.003.008.003.007 2.84 7.547Z" />
  <path fill="#C5EBF5" stroke="#0055DC" stroke-width="1.892"
    d="m234.578 234.895-6.247 8.759h-24.589l-6.578-8.759h37.414Z" />
  <path fill="#C5EBF5" fill-rule="evenodd"
    d="M685.758 301.416h13.992l-.79-3.543c7.982-4.6 13.355-13.219 13.355-23.094 0-11.398-7.158-21.123-17.225-24.926l.691-7.742h-20.627l.813 7.857c-9.908 3.882-16.925 13.527-16.925 24.811 0 9.874 5.373 18.494 13.354 23.094l-.79 3.543H685.758Z"
    clip-rule="evenodd" />
  <path fill="#0055DC"
    d="M699.75 301.416v.945h1.18l-.257-1.151-.923.206Zm-13.992 0v-.946h-.003l.003.946Zm13.202-3.543-.472-.819-.602.347.151.678.923-.206Zm-3.87-48.02-.942-.084-.063.715.671.254.334-.885Zm.691-7.742.942.084.092-1.029h-1.034v.945Zm-20.627 0v-.945h-1.049l.108 1.043.941-.098Zm.813 7.857.345.881.67-.262-.074-.716-.941.097Zm-3.571 47.905.923.206.152-.678-.602-.347-.473.819Zm-.79 3.543-.923-.206-.257 1.151h1.18v-.945Zm13.994 0 .002-.946h-.002v.946Zm14.15-.946h-13.992v1.891h13.992v-1.891Zm-1.713-2.391.79 3.543 1.846-.412-.79-3.542-1.846.411Zm13.333-23.3c0 9.523-5.181 17.837-12.882 22.275l.944 1.639c8.263-4.762 13.829-13.688 13.829-23.914h-1.891Zm-16.614-24.041c9.711 3.668 16.614 13.05 16.614 24.041h1.891c0-11.804-7.414-21.874-17.836-25.811l-.669 1.77Zm.083-8.711-.691 7.742 1.884.168.691-7.742-1.884-.168Zm-19.685 1.03h20.627v-1.891h-20.627v1.891Zm1.754 6.814-.813-7.857-1.882.195.813 7.857 1.882-.195Zm-16.92 24.908c0-10.882 6.766-20.186 16.324-23.93l-.69-1.761c-10.259 4.018-17.526 14.005-17.526 25.691h1.892Zm12.881 22.275c-7.701-4.439-12.881-12.753-12.881-22.275h-1.892c0 10.226 5.565 19.151 13.828 23.913l.945-1.638Zm-.34 4.568.79-3.543-1.846-.412-.79 3.543 1.846.412Zm13.071-1.152h-13.994v1.891H685.6v-1.891Zm.079 0h-.077l-.005 1.891.082.001v-1.892Zm.076 0h-.076v1.892l.081-.001-.005-1.891Z" />
  <path stroke="#0055DC" stroke-width="1.892"
    d="M692.213 301.164v-82.243c0-4.363 1.822-8.527 5.026-11.488M678.643 301.416v-73.902a45.891 45.891 0 0 0-6.534-23.599" />
  <path stroke="#0055DC" stroke-width="1.892"
    d="M687.689 300.913v-92.445a70.446 70.446 0 0 0-20.605-49.785" />
  <path stroke="#0055DC" stroke-width="1.892"
    d="M683.166 301.165v-88.177a70.432 70.432 0 0 1 20.606-49.781" />
  <mask id="h" fill="#fff">
    <path fill-rule="evenodd"
      d="M702.896 155.96a11.602 11.602 0 0 1-3.282 12.206 11.57 11.57 0 0 1-3.488 2.163c-1.367-4.225-.233-9.046 3.283-12.206a11.554 11.554 0 0 1 3.487-2.163Z"
      clip-rule="evenodd" />
  </mask>
  <path fill="#FBAD41" fill-rule="evenodd"
    d="M702.896 155.96a11.602 11.602 0 0 1-3.282 12.206 11.57 11.57 0 0 1-3.488 2.163c-1.367-4.225-.233-9.046 3.283-12.206a11.554 11.554 0 0 1 3.487-2.163Z"
    clip-rule="evenodd" />
  <path fill="#F63"
    d="m702.896 155.96 1.8-.583-.621-1.917-1.874.741.695 1.759Zm-6.77 14.369-1.799.582.62 1.918 1.875-.741-.696-1.759Zm4.971-13.787a9.713 9.713 0 0 1-2.748 10.217l2.529 2.814c4.091-3.678 5.407-9.286 3.818-14.196l-3.599 1.165Zm-2.748 10.217a9.69 9.69 0 0 1-2.918 1.811l1.391 3.518a13.47 13.47 0 0 0 4.056-2.515l-2.529-2.814Zm-.423 2.987a9.709 9.709 0 0 1 2.747-10.216l-2.529-2.814c-4.091 3.677-5.406 9.286-3.817 14.195l3.599-1.165Zm2.747-10.216a9.675 9.675 0 0 1 2.919-1.811l-1.391-3.518a13.454 13.454 0 0 0-4.057 2.515l2.529 2.814Z"
    mask="url(#h)" />
  <mask id="i" fill="#fff">
    <path fill-rule="evenodd"
      d="M696.277 170.401a11.603 11.603 0 0 1 10.674-6.771c1.42.015 2.779.285 4.032.766a11.607 11.607 0 0 1-14.706 6.005Z"
      clip-rule="evenodd" />
  </mask>
  <path fill="#FBAD41" fill-rule="evenodd"
    d="M696.277 170.401a11.603 11.603 0 0 1 10.674-6.771c1.42.015 2.779.285 4.032.766a11.607 11.607 0 0 1-14.706 6.005Z"
    clip-rule="evenodd" />
  <path fill="#F63"
    d="m696.277 170.401-1.719-.788-.84 1.832 1.882.722.677-1.766Zm14.706-6.005 1.719.788.84-1.833-1.882-.721-.677 1.766Zm-12.986 6.793a9.711 9.711 0 0 1 8.934-5.667l.04-3.783c-5.501-.059-10.263 3.183-12.413 7.874l3.439 1.576Zm8.934-5.667a9.654 9.654 0 0 1 3.374.64l1.355-3.532a13.437 13.437 0 0 0-4.689-.891l-.04 3.783Zm2.332-1.915a9.71 9.71 0 0 1-8.934 5.668l-.04 3.783c5.501.058 10.263-3.183 12.413-7.874l-3.439-1.577Zm-8.934 5.668a9.7 9.7 0 0 1-3.374-.64l-1.355 3.532c1.46.56 3.04.874 4.689.891l.04-3.783Z"
    mask="url(#i)" />
  <mask id="j" fill="#fff">
    <path fill-rule="evenodd"
      d="M707.698 159.094c-.228 4.435-3.006 8.536-7.417 10.236a11.571 11.571 0 0 1-4.03.778 11.6 11.6 0 0 1 7.416-10.235 11.597 11.597 0 0 1 4.031-.779Z"
      clip-rule="evenodd" />
  </mask>
  <path fill="#FBAD41" fill-rule="evenodd"
    d="M707.698 159.094c-.228 4.435-3.006 8.536-7.417 10.236a11.571 11.571 0 0 1-4.03.778 11.6 11.6 0 0 1 7.416-10.235 11.597 11.597 0 0 1 4.031-.779Z"
    clip-rule="evenodd" />
  <path fill="#F63"
    d="m707.698 159.094 1.889.098.103-2.013-2.015.024.023 1.891Zm-11.447 11.014-1.889-.097-.104 2.013 2.015-.024-.022-1.892Zm9.557-11.111a9.71 9.71 0 0 1-6.207 8.568l1.36 3.53c5.133-1.978 8.361-6.75 8.626-11.903l-3.779-.195Zm-6.207 8.568a9.698 9.698 0 0 1-3.373.652l.045 3.783a13.475 13.475 0 0 0 4.688-.905l-1.36-3.53Zm-1.461 2.64a9.711 9.711 0 0 1 6.208-8.567l-1.361-3.53c-5.133 1.978-8.361 6.75-8.625 11.903l3.778.194Zm6.208-8.567a9.666 9.666 0 0 1 3.372-.652l-.045-3.783a13.475 13.475 0 0 0-4.688.905l1.361 3.53Z"
    mask="url(#j)" />
  <mask id="k" fill="#fff">
    <path fill-rule="evenodd"
      d="M692.07 214.291c-2.197-3.858-2.067-8.809.733-12.618a11.583 11.583 0 0 1 2.976-2.827c2.197 3.859 2.066 8.81-.734 12.618a11.546 11.546 0 0 1-2.975 2.827Z"
      clip-rule="evenodd" />
  </mask>
  <path fill="#FBAD41" fill-rule="evenodd"
    d="M692.07 214.291c-2.197-3.858-2.067-8.809.733-12.618a11.583 11.583 0 0 1 2.976-2.827c2.197 3.859 2.066 8.81-.734 12.618a11.546 11.546 0 0 1-2.975 2.827Z"
    clip-rule="evenodd" />
  <path fill="#F63"
    d="m692.07 214.291-1.644.936.997 1.752 1.685-1.107-1.038-1.581Zm3.709-15.445 1.644-.936-.998-1.752-1.685 1.107 1.039 1.581Zm-2.065 14.509a9.71 9.71 0 0 1 .613-10.562l-3.048-2.24c-3.258 4.431-3.406 10.19-.853 14.674l3.288-1.872Zm.613-10.562a9.684 9.684 0 0 1 2.49-2.366l-2.077-3.162a13.46 13.46 0 0 0-3.461 3.288l3.048 2.24Zm-.192-3.011a9.71 9.71 0 0 1-.614 10.562l3.048 2.241c3.259-4.432 3.407-10.191.854-14.675l-3.288 1.872Zm-.614 10.562a9.668 9.668 0 0 1-2.49 2.366l2.077 3.162a13.457 13.457 0 0 0 3.461-3.287l-3.048-2.241Z"
    mask="url(#k)" />
  <mask id="l" fill="#fff">
    <path fill-rule="evenodd"
      d="M705.41 205.462a11.603 11.603 0 0 1-9.075 8.8 11.574 11.574 0 0 1-4.103.07 11.603 11.603 0 0 1 9.075-8.8 11.62 11.62 0 0 1 4.103-.07Z"
      clip-rule="evenodd" />
  </mask>
  <path fill="#FBAD41" fill-rule="evenodd"
    d="M705.41 205.462a11.603 11.603 0 0 1-9.075 8.8 11.574 11.574 0 0 1-4.103.07 11.603 11.603 0 0 1 9.075-8.8 11.62 11.62 0 0 1 4.103-.07Z"
    clip-rule="evenodd" />
  <path fill="#F63"
    d="m705.41 205.462 1.844.423.45-1.965-1.99-.324-.304 1.866Zm-13.178 8.87-1.844-.422-.449 1.964 1.989.325.304-1.867Zm11.334-9.292a9.712 9.712 0 0 1-7.596 7.366l.73 3.712c5.398-1.061 9.402-5.203 10.554-10.233l-3.688-.845Zm-7.596 7.366a9.686 9.686 0 0 1-3.433.059l-.609 3.734a13.48 13.48 0 0 0 4.772-.081l-.73-3.712Zm-1.894 2.348a9.712 9.712 0 0 1 7.596-7.365l-.73-3.713c-5.398 1.061-9.402 5.203-10.554 10.234l3.688.844Zm7.596-7.365a9.692 9.692 0 0 1 3.434-.06l.608-3.733a13.456 13.456 0 0 0-4.772.08l.73 3.713Z"
    mask="url(#l)" />
  <mask id="m" fill="#fff">
    <path fill-rule="evenodd"
      d="M701.117 200.94c.678 4.388-1.208 8.968-5.182 11.529a11.592 11.592 0 0 1-3.787 1.581c-.678-4.389 1.209-8.969 5.182-11.53a11.577 11.577 0 0 1 3.787-1.58Z"
      clip-rule="evenodd" />
  </mask>
  <path fill="#FBAD41" fill-rule="evenodd"
    d="M701.117 200.94c.678 4.388-1.208 8.968-5.182 11.529a11.592 11.592 0 0 1-3.787 1.581c-.678-4.389 1.209-8.969 5.182-11.53a11.577 11.577 0 0 1 3.787-1.58Z"
    clip-rule="evenodd" />
  <path fill="#F63"
    d="m701.117 200.94 1.87-.289-.308-1.992-1.969.433.407 1.848Zm-8.969 13.11-1.869.289.308 1.991 1.968-.433-.407-1.847Zm7.1-12.822a9.712 9.712 0 0 1-4.337 9.651l2.049 3.18c4.624-2.98 6.815-8.309 6.027-13.408l-3.739.577Zm-4.337 9.651a9.69 9.69 0 0 1-3.169 1.323l.813 3.695a13.466 13.466 0 0 0 4.405-1.838l-2.049-3.18Zm-.893 2.882a9.712 9.712 0 0 1 4.337-9.651l-2.05-3.18c-4.623 2.981-6.814 8.309-6.026 13.409l3.739-.578Zm4.337-9.651a9.681 9.681 0 0 1 3.169-1.323l-.814-3.695a13.466 13.466 0 0 0-4.405 1.838l2.05 3.18Z"
    mask="url(#m)" />
  <circle cx="660.048" cy="212.459" r="2.07" fill="#FBAD41" stroke="#F63" stroke-width="1.892" />
  <mask id="n" fill="#fff">
    <path fill-rule="evenodd"
      d="M680.218 209.731c-2.935 6.386-2.064 14.173 2.856 19.813a18.375 18.375 0 0 0 5.061 4.069c2.935-6.386 2.063-14.174-2.856-19.813a18.39 18.39 0 0 0-5.061-4.069Z"
      clip-rule="evenodd" />
  </mask>
  <path fill="#6ECCE5" fill-rule="evenodd"
    d="M680.218 209.731c-2.935 6.386-2.064 14.173 2.856 19.813a18.375 18.375 0 0 0 5.061 4.069c2.935-6.386 2.063-14.174-2.856-19.813a18.39 18.39 0 0 0-5.061-4.069Z"
    clip-rule="evenodd" />
  <path fill="#0055DC"
    d="m680.218 209.731-1.719-.79.846-1.841 1.778.97-.905 1.661Zm7.917 23.882 1.719.79-.846 1.841-1.778-.97.905-1.661Zm-6.199-23.093c-2.635 5.735-1.849 12.722 2.563 17.781l-2.851 2.487c-5.426-6.222-6.383-14.81-3.149-21.847l3.437 1.579Zm2.563 17.781a16.505 16.505 0 0 0 4.542 3.651l-1.811 3.322a20.272 20.272 0 0 1-5.582-4.486l2.851-2.487Zm1.917 4.522c2.635-5.734 1.85-12.721-2.562-17.78l2.851-2.487c5.426 6.221 6.383 14.809 3.149 21.847l-3.438-1.58Zm-2.562-17.78a16.505 16.505 0 0 0-4.542-3.652l1.811-3.321a20.287 20.287 0 0 1 5.582 4.486l-2.851 2.487Z"
    mask="url(#n)" />
  <mask id="o" fill="#fff">
    <path fill-rule="evenodd"
      d="M692.003 188.833a11.436 11.436 0 0 1-1.773 12.299 11.41 11.41 0 0 1-3.142 2.526 11.436 11.436 0 0 1 1.773-12.299 11.395 11.395 0 0 1 3.142-2.526Z"
      clip-rule="evenodd" />
  </mask>
  <path fill="#6ECCE5" fill-rule="evenodd"
    d="M692.003 188.833a11.436 11.436 0 0 1-1.773 12.299 11.41 11.41 0 0 1-3.142 2.526 11.436 11.436 0 0 1 1.773-12.299 11.395 11.395 0 0 1 3.142-2.526Z"
    clip-rule="evenodd" />
  <path fill="#0055DC"
    d="m692.003 188.833 1.719-.79-.846-1.841-1.778.97.905 1.661Zm-4.915 14.825-1.719.79.846 1.841 1.778-.97-.905-1.661Zm3.196-14.035a9.546 9.546 0 0 1-1.48 10.266l2.851 2.487c3.561-4.083 4.188-9.717 2.067-14.333l-3.438 1.58Zm-1.48 10.266a9.513 9.513 0 0 1-2.621 2.108l1.81 3.322a13.27 13.27 0 0 0 3.662-2.943l-2.851-2.487Zm.003 2.979a9.548 9.548 0 0 1 1.479-10.266l-2.851-2.487c-3.56 4.083-4.187 9.717-2.066 14.333l3.438-1.58Zm1.479-10.266a9.532 9.532 0 0 1 2.622-2.108l-1.81-3.322a13.288 13.288 0 0 0-3.663 2.943l2.851 2.487Z"
    mask="url(#o)" />
  <mask id="p" fill="#fff">
    <path fill-rule="evenodd"
      d="M675.921 209.948c-6.425.714-12.969-2.314-16.448-8.253a16.857 16.857 0 0 1-2.065-5.607c6.426-.714 12.97 2.314 16.449 8.253a16.855 16.855 0 0 1 2.064 5.607Z"
      clip-rule="evenodd" />
  </mask>
  <path fill="#FBAD41" fill-rule="evenodd"
    d="M675.921 209.948c-6.425.714-12.969-2.314-16.448-8.253a16.857 16.857 0 0 1-2.065-5.607c6.426-.714 12.97 2.314 16.449 8.253a16.855 16.855 0 0 1 2.064 5.607Z"
    clip-rule="evenodd" />
  <path fill="#F63"
    d="m675.921 209.948.209 1.88 2.004-.222-.35-1.985-1.863.327Zm-18.513-13.86-.209-1.88-2.003.222.349 1.986 1.863-.328Zm18.304 11.98c-5.71.635-11.519-2.058-14.607-7.329l-3.264 1.913c3.869 6.606 11.149 9.97 18.289 9.176l-.418-3.76Zm-14.607-7.329a14.957 14.957 0 0 1-1.834-4.979l-3.726.656a18.754 18.754 0 0 0 2.296 6.236l3.264-1.913Zm-3.488-2.771c5.71-.635 11.52 2.058 14.607 7.329l3.265-1.912c-3.87-6.607-11.149-9.971-18.29-9.177l.418 3.76Zm14.607 7.329a14.943 14.943 0 0 1 1.834 4.979l3.726-.655a18.744 18.744 0 0 0-2.295-6.236l-3.265 1.912Z"
    mask="url(#p)" />
  <mask id="q" fill="#fff">
    <path fill-rule="evenodd"
      d="M671.804 187.023c5.216 3.82 7.989 10.477 6.535 17.204a16.84 16.84 0 0 1-2.272 5.527c-5.216-3.82-7.989-10.477-6.534-17.204a16.86 16.86 0 0 1 2.271-5.527Z"
      clip-rule="evenodd" />
  </mask>
  <path fill="#FBAD41" fill-rule="evenodd"
    d="M671.804 187.023c5.216 3.82 7.989 10.477 6.535 17.204a16.84 16.84 0 0 1-2.272 5.527c-5.216-3.82-7.989-10.477-6.534-17.204a16.86 16.86 0 0 1 2.271-5.527Z"
    clip-rule="evenodd" />
  <path fill="#F63"
    d="m671.804 187.023 1.118-1.526-1.627-1.191-1.085 1.698 1.594 1.019Zm4.263 22.731-1.117 1.526 1.626 1.191 1.085-1.698-1.594-1.019Zm-5.38-21.205c4.635 3.395 7.094 9.308 5.803 15.278l3.698.8c1.618-7.484-1.469-14.885-7.266-19.13l-2.235 3.052Zm5.803 15.278a14.976 14.976 0 0 1-2.016 4.908l3.187 2.038a18.738 18.738 0 0 0 2.527-6.146l-3.698-.8Zm.695 4.401c-4.636-3.395-7.094-9.308-5.804-15.278l-3.697-.8c-1.618 7.484 1.469 14.885 7.266 19.13l2.235-3.052Zm-5.804-15.278a14.956 14.956 0 0 1 2.017-4.908l-3.188-2.038a18.758 18.758 0 0 0-2.526 6.146l3.697.8Z"
    mask="url(#q)" />
  <mask id="r" fill="#fff">
    <path fill-rule="evenodd"
      d="M663.283 190.157c6.259 1.622 11.295 6.784 12.429 13.572a16.86 16.86 0 0 1-.069 5.975c-6.258-1.622-11.295-6.784-12.429-13.572-.341-2.041-.3-4.056.069-5.975Z"
      clip-rule="evenodd" />
  </mask>
  <path fill="#FBAD41" fill-rule="evenodd"
    d="M663.283 190.157c6.259 1.622 11.295 6.784 12.429 13.572a16.86 16.86 0 0 1-.069 5.975c-6.258-1.622-11.295-6.784-12.429-13.572-.341-2.041-.3-4.056.069-5.975Z"
    clip-rule="evenodd" />
  <path fill="#F63"
    d="m663.283 190.157.475-1.831-1.951-.506-.381 1.979 1.857.358Zm12.36 19.547-.475 1.831 1.951.506.381-1.979-1.857-.358Zm-12.834-17.716c5.561 1.442 10.031 6.028 11.037 12.053l3.732-.623c-1.262-7.552-6.865-13.289-13.82-15.092l-.949 3.662Zm11.037 12.053a14.96 14.96 0 0 1-.061 5.306l3.715.715c.412-2.136.456-4.379.078-6.644l-3.732.623Zm2.272 3.832c-5.562-1.441-10.031-6.028-11.038-12.053l-3.731.623c1.261 7.552 6.864 13.29 13.819 15.092l.95-3.662ZM665.08 195.82a14.96 14.96 0 0 1 .061-5.306l-3.715-.715a18.716 18.716 0 0 0-.077 6.644l3.731-.623Z"
    mask="url(#r)" />
  <mask id="s" fill="#fff">
    <path fill-rule="evenodd"
      d="M672.722 152.089c4.151 2.548 6.642 7.377 5.962 12.518a12.679 12.679 0 0 1-1.367 4.29c-4.151-2.549-6.641-7.378-5.962-12.519a12.696 12.696 0 0 1 1.367-4.289Z"
      clip-rule="evenodd" />
  </mask>
  <path fill="#FBAD41" fill-rule="evenodd"
    d="M672.722 152.089c4.151 2.548 6.642 7.377 5.962 12.518a12.679 12.679 0 0 1-1.367 4.29c-4.151-2.549-6.641-7.378-5.962-12.519a12.696 12.696 0 0 1 1.367-4.289Z"
    clip-rule="evenodd" />
  <path fill="#F63"
    d="m672.722 152.089.989-1.612-1.717-1.055-.944 1.781 1.672.886Zm4.595 16.808-.989 1.612 1.717 1.054.944-1.781-1.672-.885Zm-5.585-15.196a10.836 10.836 0 0 1 5.077 10.658l3.751.496c.78-5.908-2.084-11.454-6.849-14.378l-1.979 3.224Zm5.077 10.658a10.808 10.808 0 0 1-1.163 3.652l3.343 1.771a14.611 14.611 0 0 0 1.571-4.927l-3.751-.496Zm1.498 2.926a10.837 10.837 0 0 1-5.077-10.659l-3.75-.495c-.781 5.908 2.083 11.453 6.848 14.378l1.979-3.224Zm-5.077-10.659a10.83 10.83 0 0 1 1.163-3.652l-3.343-1.771a14.586 14.586 0 0 0-1.57 4.928l3.75.495Z"
    mask="url(#s)" />
  <mask id="t" fill="#fff">
    <path fill-rule="evenodd"
      d="M678.722 173.924c-4.049-5.417-4.785-12.924-1.272-19.208a17.635 17.635 0 0 1 3.964-4.833c4.049 5.417 4.785 12.924 1.271 19.208a17.632 17.632 0 0 1-3.963 4.833Z"
      clip-rule="evenodd" />
  </mask>
  <path fill="#F6821F" fill-rule="evenodd"
    d="M678.722 173.924c-4.049-5.417-4.785-12.924-1.272-19.208a17.635 17.635 0 0 1 3.964-4.833c4.049 5.417 4.785 12.924 1.271 19.208a17.632 17.632 0 0 1-3.963 4.833Z"
    clip-rule="evenodd" />
  <path fill="#F63"
    d="m678.722 173.924-1.515 1.132 1.206 1.615 1.535-1.307-1.226-1.44Zm2.692-24.041 1.515-1.133-1.206-1.614-1.535 1.306 1.226 1.441Zm-1.177 22.909c-3.618-4.841-4.271-11.545-1.135-17.153l-3.303-1.846c-3.89 6.959-3.072 15.27 1.408 21.263l3.03-2.264Zm-1.135-17.153a15.726 15.726 0 0 1 3.538-4.316l-2.452-2.881a19.545 19.545 0 0 0-4.389 5.351l3.303 1.846Zm.797-4.624c3.618 4.841 4.271 11.544 1.135 17.153l3.302 1.846c3.891-6.959 3.073-15.27-1.407-21.264l-3.03 2.265Zm1.135 17.153a15.756 15.756 0 0 1-3.538 4.316l2.452 2.88a19.504 19.504 0 0 0 4.388-5.35l-3.302-1.846Z"
    mask="url(#t)" />
  <mask id="u" fill="#fff">
    <path fill-rule="evenodd"
      d="M673.666 171.447c-.965-4.774-4.643-8.774-9.704-9.904a12.707 12.707 0 0 0-4.498-.193c.965 4.775 4.642 8.774 9.703 9.905 1.521.34 3.04.392 4.499.192Z"
      clip-rule="evenodd" />
  </mask>
  <path fill="#FBAD41" fill-rule="evenodd"
    d="M673.666 171.447c-.965-4.774-4.643-8.774-9.704-9.904a12.707 12.707 0 0 0-4.498-.193c.965 4.775 4.642 8.774 9.703 9.905 1.521.34 3.04.392 4.499.192Z"
    clip-rule="evenodd" />
  <path fill="#F63"
    d="m673.666 171.447 1.854-.374.399 1.975-1.997.273-.256-1.874Zm-14.202-10.097-1.854.375-.4-1.976 1.997-.273.257 1.874Zm12.347 10.472a10.835 10.835 0 0 0-8.261-8.433l.825-3.693c5.816 1.3 10.037 5.897 11.145 11.377l-3.709.749Zm-8.261-8.433a10.824 10.824 0 0 0-3.83-.165l-.513-3.748a14.6 14.6 0 0 1 5.168.22l-.825 3.693Zm-2.232-2.413a10.836 10.836 0 0 0 8.261 8.433l-.825 3.692c-5.815-1.299-10.037-5.896-11.144-11.376l3.708-.749Zm8.261 8.433c1.299.29 2.591.334 3.83.164l.513 3.748c-1.678.23-3.424.17-5.168-.22l.825-3.692Z"
    mask="url(#u)" />
  <mask id="v" fill="#fff">
    <path fill-rule="evenodd"
      d="M677.906 174.495c-3.694-5.665-10.49-8.939-17.599-7.802a17.632 17.632 0 0 0-5.901 2.059c3.694 5.665 10.49 8.939 17.599 7.801a17.63 17.63 0 0 0 5.901-2.058Z"
      clip-rule="evenodd" />
  </mask>
  <path fill="#F6821F" fill-rule="evenodd"
    d="M677.906 174.495c-3.694-5.665-10.49-8.939-17.599-7.802a17.632 17.632 0 0 0-5.901 2.059c3.694 5.665 10.49 8.939 17.599 7.801a17.63 17.63 0 0 0 5.901-2.058Z"
    clip-rule="evenodd" />
  <path fill="#F63"
    d="m677.906 174.495 1.584-1.033 1.101 1.688-1.755.992-.93-1.647Zm-23.5-5.743-1.584 1.033-1.101-1.688 1.755-.992.93 1.647Zm21.915 6.776c-3.3-5.062-9.37-7.982-15.715-6.967l-.598-3.736c7.873-1.259 15.396 2.369 19.482 8.637l-3.169 2.066Zm-15.715-6.967a15.729 15.729 0 0 0-5.269 1.838l-1.861-3.294a19.535 19.535 0 0 1 6.532-2.28l.598 3.736Zm-4.615-.842c3.3 5.062 9.37 7.981 15.715 6.967l.598 3.735c-7.873 1.26-15.396-2.368-19.482-8.636l3.169-2.066Zm15.715 6.967a15.75 15.75 0 0 0 5.269-1.838l1.861 3.294a19.534 19.534 0 0 1-6.532 2.279l-.598-3.735Z"
    mask="url(#v)" />
  <mask id="w" fill="#fff">
    <path fill-rule="evenodd"
      d="M664.238 154.544c6.646 1.252 12.266 6.284 13.928 13.289.5 2.105.6 4.211.349 6.24-6.646-1.252-12.265-6.284-13.928-13.289a17.647 17.647 0 0 1-.349-6.24Z"
      clip-rule="evenodd" />
  </mask>
  <path fill="#F6821F" fill-rule="evenodd"
    d="M664.238 154.544c6.646 1.252 12.266 6.284 13.928 13.289.5 2.105.6 4.211.349 6.24-6.646-1.252-12.265-6.284-13.928-13.289a17.647 17.647 0 0 1-.349-6.24Z"
    clip-rule="evenodd" />
  <path fill="#F63"
    d="m664.238 154.544.35-1.859-1.981-.373-.246 2 1.877.232Zm14.277 19.529-.35 1.859 1.981.373.247-2.001-1.878-.231Zm-14.627-17.67c5.939 1.118 10.954 5.614 12.438 11.866l3.681-.873c-1.841-7.758-8.066-13.326-15.419-14.711l-.7 3.718Zm12.438 11.866c.446 1.883.535 3.764.312 5.572l3.755.463a19.532 19.532 0 0 0-.386-6.908l-3.681.873Zm2.54 3.945c-5.939-1.119-10.955-5.615-12.438-11.867l-3.681.874c1.841 7.758 8.065 13.326 15.418 14.711l.701-3.718Zm-12.438-11.867a15.738 15.738 0 0 1-.313-5.572l-3.754-.463a19.515 19.515 0 0 0 .386 6.909l3.681-.874Z"
    mask="url(#w)" />
  <mask id="x" fill="#fff">
    <path fill-rule="evenodd"
      d="M680.609 163.197a8.404 8.404 0 0 1 .249 9.151 8.37 8.37 0 0 1-1.972 2.223 8.404 8.404 0 0 1 1.723-11.374Z"
      clip-rule="evenodd" />
  </mask>
  <path fill="#6ECCE5" fill-rule="evenodd"
    d="M680.609 163.197a8.404 8.404 0 0 1 .249 9.151 8.37 8.37 0 0 1-1.972 2.223 8.404 8.404 0 0 1 1.723-11.374Z"
    clip-rule="evenodd" />
  <path fill="#0055DC"
    d="m680.609 163.197 1.558-1.072-1.143-1.661-1.585 1.246 1.17 1.487Zm-1.723 11.374-1.558 1.073 1.143 1.66 1.584-1.246-1.169-1.487Zm.165-10.301a6.511 6.511 0 0 1 .193 7.091l3.228 1.973a10.292 10.292 0 0 0-.305-11.209l-3.116 2.145Zm.193 7.091a6.481 6.481 0 0 1-1.527 1.723l2.338 2.974a10.248 10.248 0 0 0 2.417-2.724l-3.228-1.973Zm1.2 2.137a6.511 6.511 0 0 1-.194-7.091l-3.228-1.973a10.296 10.296 0 0 0 .306 11.21l3.116-2.146Zm-.194-7.091a6.502 6.502 0 0 1 1.528-1.723l-2.339-2.974a10.282 10.282 0 0 0-2.417 2.724l3.228 1.973Z"
    mask="url(#x)" />
  <mask id="y" fill="#fff">
    <path fill-rule="evenodd"
      d="M678.775 174.75a8.4 8.4 0 0 0-8.516-3.353 8.38 8.38 0 0 0-2.763 1.096 8.404 8.404 0 0 0 11.279 2.257Z"
      clip-rule="evenodd" />
  </mask>
  <path fill="#6ECCE5" fill-rule="evenodd"
    d="M678.775 174.75a8.4 8.4 0 0 0-8.516-3.353 8.38 8.38 0 0 0-2.763 1.096 8.404 8.404 0 0 0 11.279 2.257Z"
    clip-rule="evenodd" />
  <path fill="#0055DC"
    d="m678.775 174.75 1.54-1.099 1.171 1.641-1.712 1.065-.999-1.607Zm-11.279-2.257-1.54 1.099-1.171-1.64 1.712-1.065.999 1.606Zm9.74 3.356a6.512 6.512 0 0 0-6.6-2.599l-.755-3.707a10.296 10.296 0 0 1 10.434 4.108l-3.079 2.198Zm-6.6-2.599a6.505 6.505 0 0 0-2.141.849l-1.998-3.212a10.293 10.293 0 0 1 3.384-1.344l.755 3.707Zm-1.6-1.856a6.51 6.51 0 0 0 6.599 2.599l.755 3.707a10.294 10.294 0 0 1-10.434-4.108l3.08-2.198Zm6.599 2.599a6.461 6.461 0 0 0 2.141-.849l1.998 3.213a10.26 10.26 0 0 1-3.384 1.343l-.755-3.707Z"
    mask="url(#y)" />
  <mask id="z" fill="#fff">
    <path fill-rule="evenodd"
      d="M678.946 175.453a8.404 8.404 0 0 1-6.366-6.579 8.38 8.38 0 0 1-.048-2.972 8.404 8.404 0 0 1 6.366 6.579 8.381 8.381 0 0 1 .048 2.972Z"
      clip-rule="evenodd" />
  </mask>
  <path fill="#6ECCE5" fill-rule="evenodd"
    d="M678.946 175.453a8.404 8.404 0 0 1-6.366-6.579 8.38 8.38 0 0 1-.048-2.972 8.404 8.404 0 0 1 6.366 6.579 8.381 8.381 0 0 1 .048 2.972Z"
    clip-rule="evenodd" />
  <path fill="#0055DC"
    d="m678.946 175.453-.424 1.843 1.964.452.326-1.989-1.866-.306Zm-6.414-9.551.424-1.843-1.964-.452-.326 1.989 1.866.306Zm6.838 7.707a6.511 6.511 0 0 1-4.934-5.098l-3.713.726a10.294 10.294 0 0 0 7.799 8.059l.848-3.687Zm-4.934-5.098a6.492 6.492 0 0 1-.037-2.302l-3.733-.613a10.262 10.262 0 0 0 .057 3.641l3.713-.726Zm-2.328-.765a6.511 6.511 0 0 1 4.934 5.098l3.713-.726a10.296 10.296 0 0 0-7.799-8.059l-.848 3.687Zm4.934 5.098c.153.786.159 1.562.037 2.302l3.733.613a10.262 10.262 0 0 0-.057-3.641l-3.713.726Z"
    mask="url(#z)" />
  <circle cx="666.833" cy="139.334" r="1.818" fill="#FBAD41" stroke="#F63" stroke-width="1.892" />
  <circle cx="667.084" cy="222.511" r="2.07" fill="#FBAD41" stroke="#F63" stroke-width="1.892" />
  <circle cx="701.763" cy="183.812" r="2.07" fill="#FBAD41" stroke="#F63" stroke-width="1.892" />
  <path fill="#C5EBF5" fill-rule="evenodd"
    d="M685.758 301.416h13.992l-.79-3.543c7.982-4.6 13.355-13.219 13.355-23.094 0-11.398-7.158-21.123-17.225-24.926l.691-7.742h-20.627l.813 7.857c-9.908 3.882-16.925 13.527-16.925 24.811 0 9.874 5.373 18.494 13.354 23.094l-.79 3.543H685.758Z"
    clip-rule="evenodd" />
  <path fill="#0055DC"
    d="M699.75 301.416v.945h1.18l-.257-1.151-.923.206Zm-13.992 0v-.946h-.003l.003.946Zm13.202-3.543-.472-.819-.602.347.151.678.923-.206Zm-3.87-48.02-.942-.084-.063.715.671.254.334-.885Zm.691-7.742.942.084.092-1.029h-1.034v.945Zm-20.627 0v-.945h-1.049l.108 1.043.941-.098Zm.813 7.857.345.881.67-.262-.074-.716-.941.097Zm-3.571 47.905.923.206.152-.678-.602-.347-.473.819Zm-.79 3.543-.923-.206-.257 1.151h1.18v-.945Zm13.994 0 .002-.946h-.002v.946Zm14.15-.946h-13.992v1.891h13.992v-1.891Zm-1.713-2.391.79 3.543 1.846-.412-.79-3.542-1.846.411Zm13.333-23.3c0 9.523-5.181 17.837-12.882 22.275l.944 1.639c8.263-4.762 13.829-13.688 13.829-23.914h-1.891Zm-16.614-24.041c9.711 3.668 16.614 13.05 16.614 24.041h1.891c0-11.804-7.414-21.874-17.836-25.811l-.669 1.77Zm.083-8.711-.691 7.742 1.884.168.691-7.742-1.884-.168Zm-19.685 1.03h20.627v-1.891h-20.627v1.891Zm1.754 6.814-.813-7.857-1.882.195.813 7.857 1.882-.195Zm-16.92 24.908c0-10.882 6.766-20.186 16.324-23.93l-.69-1.761c-10.259 4.018-17.526 14.005-17.526 25.691h1.892Zm12.881 22.275c-7.701-4.439-12.881-12.753-12.881-22.275h-1.892c0 10.226 5.565 19.151 13.828 23.913l.945-1.638Zm-.34 4.568.79-3.543-1.846-.412-.79 3.543 1.846.412Zm13.071-1.152h-13.994v1.891H685.6v-1.891Zm.079 0h-.077l-.005 1.891.082.001v-1.892Zm.076 0h-.076v1.892l.081-.001-.005-1.891Z" />
  <path fill="#6ECCE5" stroke="#0055DC" stroke-width="1.892"
    d="M145.419 211.421h-12.394v91.473h12.394v-91.473Z" />
  <path fill="#0055DC" d="M144.158 301.68h-12.394v1.382h12.394v-1.382Z" />
  <path fill="#0055DC"
    d="M138.071 302.808c-1.644 0-2.974-.048-2.974-.106v-.421c0-.059 1.346-.106 2.974-.106 1.643 0 2.973.048 2.973.106v.421c.016.058-1.33.106-2.973.106ZM144.159 211.421h-12.395v1.381h12.395v-1.381Z" />
  <path fill="#C5EBF5" stroke="#0055DC" stroke-width="1.892"
    d="M132.858 244.117h-17.145v58.777h17.145v-58.777Z" />
  <path fill="#6ECCE5"
    d="M124.569 287.657c-2.273 0-4.113-2.055-4.113-4.541v-17.88c0-2.509 1.861-4.541 4.113-4.541 2.273 0 4.113 2.056 4.113 4.541v17.88c.021 2.486-1.84 4.541-4.113 4.541Z" />
  <rect width="31.505" height="20.756" x="153.705" y="245.079" stroke="#0055DC" stroke-width="1.892"
    rx="6.621" />
  <path fill="#C5EBF5" stroke="#0055DC" stroke-width="1.892"
    d="M163.301 238.938h30.353v26.419a6.62 6.62 0 0 1-6.62 6.621h-17.112a6.62 6.62 0 0 1-6.621-6.621v-26.419Z" />
  <path fill="#F8FBFB"
    d="M172.145 239.239h7.485v29.942a3.743 3.743 0 0 1-7.485 0v-29.942ZM167.154 239.239h3.119v32.125a1.56 1.56 0 1 1-3.119 0v-32.125Z" />
  <path fill="#003682" stroke="#0055DC" stroke-width="1.892"
    d="M163.301 243.928h30.353v21.429a6.62 6.62 0 0 1-6.62 6.621h-17.112a6.62 6.62 0 0 1-6.621-6.621v-21.429Z" />
  <path fill="#fff"
    d="m182.149 258.446.108-.366c.128-.436.081-.838-.135-1.134-.198-.272-.528-.433-.928-.451l-7.591-.096a.15.15 0 0 1-.12-.062.152.152 0 0 1-.016-.135.201.201 0 0 1 .176-.132l7.662-.096c.908-.041 1.892-.766 2.237-1.65l.437-1.122a.258.258 0 0 0 .012-.148c-.497-2.194-2.488-3.834-4.869-3.834-2.194 0-4.057 1.392-4.725 3.327a2.268 2.268 0 0 0-1.576-.429c-1.052.103-1.898.936-2.003 1.97-.027.269-.005.528.058.772-1.719.049-3.098 1.434-3.098 3.136 0 .154.012.305.034.453a.148.148 0 0 0 .146.126l14.014.002.004-.001a.184.184 0 0 0 .173-.13ZM184.798 252.963a4.96 4.96 0 0 0-.212.005.114.114 0 0 0-.033.008.123.123 0 0 0-.077.084l-.302 1.075c-.129.462-.081.888.136 1.202.2.29.533.459.938.479l1.633.101a.15.15 0 0 1 .117.066.166.166 0 0 1 .017.143.207.207 0 0 1-.178.141l-1.697.101c-.922.044-1.915.813-2.263 1.75l-.122.331a.093.093 0 0 0 .08.127l.005.001h5.84c.07 0 .132-.047.151-.116.101-.373.155-.766.155-1.172 0-2.389-1.875-4.326-4.188-4.326Z" />
  <mask id="A" fill="#fff">
    <path fill-rule="evenodd"
      d="M601.989 299.886c3.349-7.714 2.343-16.861-3.283-23.207a19.48 19.48 0 0 0-5.788-4.481c-3.348 7.714-2.342 16.861 3.283 23.207a19.48 19.48 0 0 0 5.788 4.481Z"
      clip-rule="evenodd" />
  </mask>
  <path fill="#6ECCE5" fill-rule="evenodd"
    d="M601.989 299.886c3.349-7.714 2.343-16.861-3.283-23.207a19.48 19.48 0 0 0-5.788-4.481c-3.348 7.714-2.342 16.861 3.283 23.207a19.48 19.48 0 0 0 5.788 4.481Z"
    clip-rule="evenodd" />
  <path fill="#0055DC"
    d="m601.989 299.886 1.688.79-.787 1.815-1.716-.869.815-1.736Zm-9.071-27.688-1.688-.79.788-1.815 1.716.869-.816 1.736Zm7.383 26.898c3.07-7.072 2.12-15.377-2.958-21.106l2.727-2.622c6.173 6.964 7.235 16.951 3.607 25.308l-3.376-1.58Zm-2.958-21.106a17.645 17.645 0 0 0-5.24-4.057l1.631-3.471a21.35 21.35 0 0 1 6.336 4.906l-2.727 2.622Zm-2.736-5.002c-3.07 7.072-2.121 15.377 2.958 21.106l-2.727 2.622c-6.173-6.963-7.235-16.951-3.608-25.308l3.377 1.58Zm2.958 21.106a17.654 17.654 0 0 0 5.239 4.057l-1.63 3.471a21.35 21.35 0 0 1-6.336-4.906l2.727-2.622Z"
    mask="url(#A)" />
  <mask id="B" fill="#fff">
    <path fill-rule="evenodd"
      d="M605.031 301.716c-4.232-7.25-12.686-11.514-21.954-10.183-2.785.4-5.41 1.271-7.797 2.519 4.232 7.25 12.685 11.513 21.953 10.183a24.276 24.276 0 0 0 7.798-2.519Z"
      clip-rule="evenodd" />
  </mask>
  <path fill="#6ECCE5" fill-rule="evenodd"
    d="M605.031 301.716c-4.232-7.25-12.686-11.514-21.954-10.183-2.785.4-5.41 1.271-7.797 2.519 4.232 7.25 12.685 11.513 21.953 10.183a24.276 24.276 0 0 0 7.798-2.519Z"
    clip-rule="evenodd" />
  <path fill="#0055DC"
    d="m605.031 301.716 1.631-1.032 1.017 1.743-1.857.97-.791-1.681Zm-29.751-7.664-1.631 1.031-1.017-1.742 1.856-.97.792 1.681Zm28.119 8.695c-3.868-6.626-11.62-10.555-20.154-9.33l-.335-3.768c10.001-1.436 19.156 3.163 23.752 11.035l-3.263 2.063Zm-20.154-9.33a22.319 22.319 0 0 0-7.173 2.317l-1.584-3.363a26.189 26.189 0 0 1 8.422-2.722l.335 3.768Zm-6.333-.396c3.868 6.626 11.619 10.555 20.154 9.33l.335 3.768c-10.002 1.436-19.157-3.163-23.752-11.036l3.263-2.062Zm20.154 9.33a22.319 22.319 0 0 0 7.173-2.317l1.583 3.363a26.175 26.175 0 0 1-8.421 2.722l-.335-3.768Z"
    mask="url(#B)" />
  <mask id="C" fill="#fff">
    <path fill-rule="evenodd"
      d="M711.034 296.719c-3.558-7.141-3.062-15.855 1.95-22.149a18.488 18.488 0 0 1 5.259-4.534c3.558 7.141 3.062 15.856-1.95 22.149a18.515 18.515 0 0 1-5.259 4.534Z"
      clip-rule="evenodd" />
  </mask>
  <path fill="#6ECCE5" fill-rule="evenodd"
    d="M711.034 296.719c-3.558-7.141-3.062-15.855 1.95-22.149a18.488 18.488 0 0 1 5.259-4.534c3.558 7.141 3.062 15.856-1.95 22.149a18.515 18.515 0 0 1-5.259 4.534Z"
    clip-rule="evenodd" />
  <path fill="#0055DC"
    d="m711.034 296.719-1.645.878.883 1.771 1.667-.959-.905-1.69Zm7.209-26.683 1.644-.878-.882-1.771-1.667.959.905 1.69Zm-5.565 25.806c-3.246-6.515-2.762-14.386 1.737-20.034l-2.862-2.475c-5.526 6.938-6.034 16.496-2.164 24.264l3.289-1.755Zm1.737-20.034a16.638 16.638 0 0 1 4.733-4.082l-1.81-3.38a20.34 20.34 0 0 0-5.785 4.987l2.862 2.475Zm2.184-4.894c3.246 6.514 2.761 14.386-1.737 20.033l2.861 2.475c5.527-6.938 6.034-16.496 2.164-24.264l-3.288 1.756Zm-1.737 20.033a16.642 16.642 0 0 1-4.734 4.082l1.811 3.38a20.337 20.337 0 0 0 5.784-4.987l-2.861-2.475Z"
    mask="url(#C)" />
  <path stroke="#0055DC" stroke-width="1.892" d="M115.844 257.05h16.641" />
  <circle cx="378.002" cy="223.234" r="99.011" fill="#fff" />
  <circle cx="377.941" cy="223.172" r="92.498" fill="#E2F5FA" stroke="url(#D)" stroke-width="2.868" />
  <circle cx="377.926" cy="223.158" r="74.56" fill="#fff" />
  <path fill="url(#E)" stroke="#F63" stroke-linejoin="round" stroke-width="3"
    d="M433.701 202.099v45.918l-55.379 31.402v-45.918l55.379-31.402Z" />
  <path fill="url(#F)" stroke="#F63" stroke-linejoin="round" stroke-width="3"
    d="M322.943 202.099v45.918l55.379 31.402v-45.918l-55.379-31.402Z" />
  <path fill="#FBAD41" stroke="#F63" stroke-linejoin="round" stroke-width="3"
    d="m378.322 170.707-55.379 31.392 55.379 31.402 55.379-31.402-55.379-31.392Z" />
  <path fill="#F63" stroke="#003682" stroke-linejoin="round" stroke-width="3"
    d="M386.958 185.282v-4.229l-3.659.551a9.707 9.707 0 0 0-5.242-.295c-1.386.275-2.7.838-3.855 1.652l-2.764.403v5.085c0 3.344 4.593 4.858 8.852 3.983 4.258-.875 6.618-3.462 6.668-7.15Z" />
  <path fill="#F63" stroke="#F63" stroke-linejoin="round" stroke-width="3"
    d="M377.978 192.904a8.502 8.502 0 0 1-5.223-1.475 3.666 3.666 0 0 1-1.465-2.95v-5.272l2.95-.423a10.55 10.55 0 0 1 3.934-1.672 10.295 10.295 0 0 1 5.321.286l3.835-.581v4.426c0 3.855-2.429 6.481-6.756 7.366-.853.189-1.723.288-2.596.295Zm-6.265-9.343v4.918c0 .499.118.991.344 1.435a3.2 3.2 0 0 0 .984 1.131 9.052 9.052 0 0 0 3.52 1.367 9.167 9.167 0 0 0 3.767-.157c4.091-.846 6.363-3.314 6.402-6.943v-3.934l-3.442.511a9.655 9.655 0 0 0-5.123-.275 9.926 9.926 0 0 0-3.767 1.603h-.108l-2.577.344Z" />
  <path fill="#FBAD41" stroke="#F63" stroke-linejoin="round" stroke-width="3"
    d="M380.516 187.928c4.337-.876 7.336-4.082 6.687-7.15-.649-3.069-4.681-4.858-9.018-3.983-4.337.875-7.337 4.081-6.688 7.15.65 3.068 4.682 4.838 9.019 3.983Z" />
  <path fill="#F63" stroke="#F63" stroke-linejoin="round" stroke-width="3"
    d="M359.135 201.253v-4.219l-3.658.541a9.707 9.707 0 0 0-5.242-.295 10.065 10.065 0 0 0-3.855 1.652l-2.774.413v5.085c0 3.344 4.593 4.858 8.852 3.934 4.258-.925 6.628-3.423 6.677-7.111Z" />
  <path fill="#F63" stroke="#F63" stroke-linejoin="round" stroke-width="3"
    d="M350.146 208.876a8.43 8.43 0 0 1-5.213-1.475 3.745 3.745 0 0 1-1.082-1.299 3.67 3.67 0 0 1-.393-1.642v-5.281l2.95-.423a10.281 10.281 0 0 1 3.934-1.662 10.15 10.15 0 0 1 5.311.275l3.845-.57v4.416c0 3.855-2.429 6.481-6.756 7.366-.851.198-1.723.297-2.596.295Zm-6.255-9.343v4.917a3.21 3.21 0 0 0 1.298 2.557 9.2 9.2 0 0 0 7.287 1.21c4.092-.836 6.363-3.314 6.403-6.943v-3.934l-3.442.521a9.56 9.56 0 0 0-5.124-.285 9.984 9.984 0 0 0-3.777 1.603h-.098l-2.547.354Z" />
  <path fill="#FBAD41" stroke="#F63" stroke-linejoin="round" stroke-width="3"
    d="M352.693 203.909c4.337-.875 7.337-4.081 6.688-7.159-.649-3.079-4.682-4.859-9.019-3.983-4.337.875-7.336 4.081-6.697 7.159.639 3.078 4.681 4.859 9.028 3.983Z" />
  <path fill="#F63" stroke="#003682" stroke-linejoin="round" stroke-width="3"
    d="M412.842 200.929V196.7l-3.648.551a9.602 9.602 0 0 0-5.242-.295c-1.387.269-2.7.829-3.855 1.642l-2.774.413v5.084c0 3.344 4.593 4.859 8.851 3.934 4.259-.924 6.629-3.422 6.668-7.1Z" />
  <path fill="#F63" stroke="#F63" stroke-linejoin="round" stroke-width="3"
    d="M403.862 208.54a8.459 8.459 0 0 1-5.212-1.465 3.754 3.754 0 0 1-1.475-2.95v-5.272l2.95-.432a10.41 10.41 0 0 1 3.934-1.662 10.246 10.246 0 0 1 5.311.285l3.845-.58v4.425c0 3.855-2.429 6.481-6.756 7.356-.851.199-1.723.298-2.597.295Zm-6.284-9.333v4.918c0 .499.118.991.344 1.436.239.445.575.832.984 1.131a9.363 9.363 0 0 0 3.52 1.367 9.234 9.234 0 0 0 3.777-.168c4.091-.836 6.353-3.314 6.402-6.884v-3.934l-3.442.512a9.659 9.659 0 0 0-5.124-.276 9.835 9.835 0 0 0-3.776 1.603h-.098l-2.587.295Z" />
  <path fill="#FBAD41" stroke="#F63" stroke-linejoin="round" stroke-width="3"
    d="M406.429 203.536c4.338-.876 7.327-4.082 6.688-7.16-.639-3.078-4.681-4.858-9.018-3.934-4.337.924-7.337 4.081-6.698 7.15.64 3.068 4.662 4.858 9.028 3.944Z" />
  <path fill="#F63" stroke="#003682" stroke-linejoin="round" stroke-width="3"
    d="M385.778 216.242v-4.229l-3.649.551a9.602 9.602 0 0 0-5.242-.295 10.132 10.132 0 0 0-3.865 1.642l-2.763.413v5.085c0 3.343 4.593 4.858 8.851 3.933 4.258-.924 6.589-3.422 6.668-7.1Z" />
  <path fill="#F63" stroke="#F63" stroke-linejoin="round" stroke-width="3"
    d="M376.759 223.854a8.462 8.462 0 0 1-5.213-1.466 3.742 3.742 0 0 1-1.475-2.95v-5.272l2.951-.432a10.443 10.443 0 0 1 3.934-1.662 10.175 10.175 0 0 1 5.32.285l3.845-.58v4.415c0 3.865-2.429 6.481-6.766 7.366-.851.2-1.722.299-2.596.296Zm-6.265-9.334v4.918c.008.499.129.99.354 1.436.239.445.575.832.984 1.131a9.29 9.29 0 0 0 3.52 1.367 9.185 9.185 0 0 0 3.767-.168c4.101-.835 6.363-3.314 6.412-6.933v-3.934l-3.452.512a9.646 9.646 0 0 0-5.123-.276 9.835 9.835 0 0 0-3.767 1.603h-.098l-2.597.344Z" />
  <path fill="#FBAD41" stroke="#F63" stroke-linejoin="round" stroke-width="3"
    d="M379.296 218.887c4.347-.876 7.337-4.082 6.698-7.16-.64-3.078-4.682-4.858-9.028-3.934-4.347.925-7.337 4.081-6.688 7.15.649 3.068 4.681 4.819 9.018 3.944Z" />
  <defs>
    <linearGradient id="D" x1="383.825" x2="380.599" y1="317.159" y2="129.325"
      gradientUnits="userSpaceOnUse">
      <stop offset=".007" stop-color="#F63" />
      <stop offset=".335" stop-color="#F6821F" />
      <stop offset="1" stop-color="#FBAD41" />
    </linearGradient>
    <linearGradient id="E" x1="421.81" x2="395.798" y1="181.774" y2="268.729"
      gradientUnits="userSpaceOnUse">
      <stop offset=".643" stop-color="#F9AB41" />
      <stop offset="1" stop-color="#F6821F" />
    </linearGradient>
    <linearGradient id="F" x1="360.699" x2="340.567" y1="223.332" y2="258.196"
      gradientUnits="userSpaceOnUse">
      <stop stop-color="#F6821F" />
      <stop offset="1" stop-color="#F63" />
    </linearGradient>
    <radialGradient id="f" cx="0" cy="0" r="1"
      gradientTransform="matrix(184.678 0 0 184.743 379.543 216.274)" gradientUnits="userSpaceOnUse">
      <stop stop-color="#F9AB41" />
      <stop offset=".239" stop-color="#FAA03F" />
      <stop offset=".658" stop-color="#FB8339" />
      <stop offset="1" stop-color="#FD6633" />
    </radialGradient>
    <clipPath id="e">
      <path fill="#fff" d="M198.075 28.374H561.01v375.8H198.075z" />
    </clipPath>
  </defs>
</svg>