<svg width="12" height="14" viewBox="0 0 12 14" fill="none" xmlns="http://www.w3.org/2000/svg">
<path d="M4.08159 6.43934C4.08159 6.02586 4.38661 5.68695 4.77297 5.68695C5.15934 5.68695 5.47113 6.02586 5.46436 6.43934C5.46436 6.85281 5.15934 7.19172 4.77297 7.19172C4.39339 7.19172 4.08159 6.85281 4.08159 6.43934Z" fill="black"/>
<path d="M6.55565 6.43934C6.55565 6.02586 6.86067 5.68695 7.24703 5.68695C7.63339 5.68695 7.93842 6.02586 7.93842 6.43934C7.93842 6.85281 7.63339 7.19172 7.24703 7.19172C6.86745 7.19172 6.55565 6.85281 6.55565 6.43934Z" fill="black"/>
<path fill-rule="evenodd" clip-rule="evenodd" d="M1.45842 7.62939e-06H10.5413C11.3072 7.62939e-06 11.9308 0.623606 11.9308 1.39633V13.5565L10.4735 12.2686L9.65331 11.5095L8.7857 10.7029L9.14495 11.9568H1.45842C0.692477 11.9568 0.0688782 11.3332 0.0688782 10.5605V1.39633C0.0688782 0.623606 0.692477 7.62939e-06 1.45842 7.62939e-06ZM7.4775 8.30336C7.68085 8.56093 7.92486 8.8524 7.92486 8.8524C9.42285 8.80495 9.99901 7.8221 9.99901 7.8221C9.99901 5.63951 9.02294 3.87038 9.02294 3.87038C8.04687 3.13833 7.11825 3.15867 7.11825 3.15867L7.02336 3.26712C8.17566 3.61959 8.71114 4.12796 8.71114 4.12796C8.0062 3.7416 7.31482 3.55181 6.67089 3.47725C6.18285 3.42302 5.71516 3.43658 5.30168 3.4908C5.26618 3.4908 5.23584 3.49597 5.20165 3.50179C5.19667 3.50264 5.19162 3.5035 5.18645 3.50436C4.94921 3.52469 4.37306 3.61281 3.64779 3.93139C3.397 4.04662 3.24787 4.12796 3.24787 4.12796C3.24787 4.12796 3.81047 3.59248 5.03055 3.24001L4.96277 3.15867C4.96277 3.15867 4.03415 3.13833 3.05808 3.87038C3.05808 3.87038 2.08202 5.63951 2.08202 7.8221C2.08202 7.8221 2.65139 8.80495 4.14938 8.8524C4.14938 8.8524 4.40018 8.54737 4.60352 8.2898C3.74269 8.03223 3.41733 7.48997 3.41733 7.48997C3.41733 7.48997 3.48511 7.53742 3.60712 7.6052C3.6139 7.61198 3.62068 7.61875 3.63423 7.62553C3.6444 7.63231 3.65457 7.6374 3.66474 7.64248C3.67491 7.64756 3.68507 7.65265 3.69524 7.65942C3.86469 7.75432 4.03415 7.82888 4.19005 7.88988C4.46796 7.99833 4.80009 8.10679 5.18645 8.18135C5.69482 8.27624 6.29131 8.31013 6.94202 8.18813C7.26059 8.1339 7.58595 8.03901 7.92486 7.89666C8.1621 7.80854 8.42645 7.67976 8.70436 7.49675C8.70436 7.49675 8.36545 8.05256 7.4775 8.30336Z" fill="black"/>
</svg>
