<svg width="1512" height="548" viewBox="0 0 1512 548" fill="none" xmlns="http://www.w3.org/2000/svg">
<path d="M0 0H1512V548H0V0Z" fill="url(#paint0_linear_16_2)"/>
<path d="M719.93 333.105L676.343 307.787L720.193 283.041L763.7 307.787L719.93 333.105Z" fill="#C5ECF6" stroke="#6ECCE5" stroke-width="1.53118" stroke-linejoin="round"/>
<path d="M719.93 333.299H719.85L676 307.741L676.263 307.592L720.193 282.801H720.284L764.043 307.741L763.78 307.901L719.93 333.299ZM676.686 307.741L719.93 332.91L763.391 307.798L720.239 283.247L676.686 307.741Z" fill="#C5ECF6" stroke="#6ECCE5" stroke-width="1.53118" stroke-linejoin="round"/>
<path d="M1049.56 344.505L973.406 300.558L1050.02 257.604L1126.04 300.558L1049.56 344.505Z" fill="#C5ECF6" stroke="#6ECCE5" stroke-width="1.53118" stroke-linejoin="round" stroke-dasharray="4.59 3.06"/>
<circle cx="1202.34" cy="201.266" r="102.206" fill="#99DBED"/>
<path d="M1207.17 435.885L1050.08 344.635V316.968L1207.17 408.217V435.885Z" fill="#C5ECF6" stroke="#6ECCE5" stroke-width="1.53118" stroke-linejoin="round"/>
<path d="M1207.17 436.379L1364.92 345.13V316.968L1207.17 408.217V436.379Z" fill="#C5ECF6" stroke="#6ECCE5" stroke-width="1.53118" stroke-linejoin="round"/>
<path d="M1207.37 408.358H1207.09L1050.37 317.3L1051.31 316.771L1208.31 228.444H1208.64L1365.03 317.3L1364.09 317.871L1207.37 408.358Z" fill="#C5ECF6" stroke="#6ECCE5" stroke-width="1.53118" stroke-linejoin="round"/>
<path d="M1161.43 282.479C1161.69 282.148 1161.63 281.666 1161.3 281.403L1155.91 277.118C1155.58 276.855 1155.1 276.91 1154.83 277.241C1154.57 277.572 1154.62 278.054 1154.96 278.317L1159.75 282.126L1155.94 286.922C1155.68 287.253 1155.73 287.735 1156.07 287.998C1156.4 288.261 1156.88 288.206 1157.14 287.874L1161.43 282.479ZM1124.24 295.646L1124.67 296.278L1124.24 295.646ZM1098.25 324.787L1098.92 325.144L1098.25 324.787ZM1088.32 363.231C1088.61 363.53 1089.1 363.53 1089.4 363.231L1094.27 358.36C1094.57 358.061 1094.57 357.576 1094.27 357.277C1093.97 356.978 1093.49 356.978 1093.19 357.277L1088.86 361.607L1084.53 357.276C1084.23 356.977 1083.74 356.977 1083.44 357.276C1083.14 357.575 1083.14 358.06 1083.44 358.359L1088.32 363.231ZM1089.62 362.69C1089.62 361.875 1089.63 361.062 1089.66 360.249L1088.13 360.202C1088.1 361.031 1088.09 361.86 1088.09 362.69L1089.62 362.69ZM1089.96 355.376C1090.1 353.753 1090.3 352.137 1090.55 350.53L1089.03 350.298C1088.78 351.936 1088.58 353.583 1088.43 355.236L1089.96 355.376ZM1091.43 345.728C1091.78 344.137 1092.17 342.557 1092.61 340.989L1091.13 340.576C1090.68 342.173 1090.29 343.784 1089.94 345.405L1091.43 345.728ZM1094.07 336.33C1094.6 334.794 1095.18 333.272 1095.8 331.768L1094.39 331.18C1093.75 332.712 1093.16 334.263 1092.62 335.829L1094.07 336.33ZM1097.82 327.32C1098.17 326.59 1098.54 325.865 1098.92 325.144L1097.57 324.43C1097.18 325.164 1096.81 325.903 1096.44 326.647L1097.82 327.32ZM1098.92 325.144C1099.3 324.424 1099.69 323.71 1100.1 323.003L1098.76 322.247C1098.35 322.968 1097.96 323.695 1097.57 324.43L1098.92 325.144ZM1102.63 318.831C1103.52 317.465 1104.45 316.128 1105.42 314.821L1104.19 313.91C1103.2 315.242 1102.25 316.604 1101.35 317.996L1102.63 318.831ZM1108.44 310.987C1109.49 309.74 1110.57 308.525 1111.69 307.344L1110.58 306.29C1109.44 307.494 1108.33 308.732 1107.27 310.003L1108.44 310.987ZM1115.15 303.904C1116.34 302.794 1117.57 301.719 1118.82 300.681L1117.85 299.501C1116.57 300.559 1115.32 301.654 1114.11 302.785L1115.15 303.904ZM1122.68 297.686C1123.33 297.207 1124 296.738 1124.67 296.278L1123.81 295.014C1123.12 295.482 1122.44 295.961 1121.77 296.449L1122.68 297.686ZM1124.67 296.278C1125.34 295.818 1126.02 295.369 1126.71 294.931L1125.88 293.641C1125.18 294.088 1124.49 294.546 1123.81 295.014L1124.67 296.278ZM1130.9 292.425C1132.32 291.632 1133.77 290.882 1135.23 290.178L1134.57 288.798C1133.07 289.516 1131.6 290.279 1130.15 291.088L1130.9 292.425ZM1139.69 288.198C1141.2 287.583 1142.73 287.014 1144.27 286.492L1143.78 285.042C1142.21 285.574 1140.65 286.154 1139.12 286.78L1139.69 288.198ZM1148.94 285.067C1150.51 284.64 1152.09 284.26 1153.69 283.928L1153.37 282.429C1151.75 282.767 1150.13 283.154 1148.54 283.59L1148.94 285.067ZM1158.49 283.078C1159.3 282.961 1160.11 282.856 1160.91 282.763L1160.74 281.242C1159.92 281.337 1159.09 281.444 1158.27 281.563L1158.49 283.078Z" fill="#0055DC"/>
<mask id="path-10-inside-1_16_2" fill="white">
<path fill-rule="evenodd" clip-rule="evenodd" d="M1172.55 313.597L1180.63 293.577C1180.84 293.065 1181.33 292.729 1181.88 292.729H1224.91C1225.46 292.729 1225.95 293.054 1226.16 293.555L1234.9 314.161C1235.77 315.806 1236.24 317.549 1236.24 319.353C1236.24 329.433 1221.61 337.605 1203.57 337.605C1185.52 337.605 1170.9 329.433 1170.9 319.353C1170.9 317.342 1171.48 315.407 1172.55 313.597Z"/>
</mask>
<path fill-rule="evenodd" clip-rule="evenodd" d="M1172.55 313.597L1180.63 293.577C1180.84 293.065 1181.33 292.729 1181.88 292.729H1224.91C1225.46 292.729 1225.95 293.054 1226.16 293.555L1234.9 314.161C1235.77 315.806 1236.24 317.549 1236.24 319.353C1236.24 329.433 1221.61 337.605 1203.57 337.605C1185.52 337.605 1170.9 329.433 1170.9 319.353C1170.9 317.342 1171.48 315.407 1172.55 313.597Z" fill="#C5ECF6"/>
<path d="M1180.63 293.577L1181.88 294.084V294.084L1180.63 293.577ZM1172.55 313.597L1173.72 314.289L1173.77 314.2L1173.81 314.104L1172.55 313.597ZM1226.16 293.555L1224.91 294.084L1224.91 294.084L1226.16 293.555ZM1234.9 314.161L1233.65 314.689L1233.68 314.743L1233.7 314.795L1234.9 314.161ZM1179.37 293.071L1171.3 313.091L1173.81 314.104L1181.88 294.084L1179.37 293.071ZM1181.88 291.375C1180.78 291.375 1179.79 292.046 1179.37 293.071L1181.88 294.084V294.084V291.375ZM1224.91 291.375H1181.88V294.084H1224.91V291.375ZM1227.41 293.026C1226.98 292.025 1226 291.375 1224.91 291.375V294.084L1224.91 294.084L1227.41 293.026ZM1236.15 313.632L1227.41 293.026L1224.91 294.084L1233.65 314.689L1236.15 313.632ZM1233.7 314.795C1234.48 316.265 1234.89 317.791 1234.89 319.353H1237.6C1237.6 317.307 1237.06 315.348 1236.1 313.526L1233.7 314.795ZM1234.89 319.353C1234.89 323.682 1231.73 327.881 1226.01 331.077C1220.34 334.247 1212.4 336.25 1203.57 336.25V338.959C1212.78 338.959 1221.18 336.876 1227.33 333.441C1233.44 330.03 1237.6 325.104 1237.6 319.353H1234.89ZM1203.57 336.25C1194.73 336.25 1186.8 334.247 1181.13 331.077C1175.41 327.881 1172.25 323.682 1172.25 319.353H1169.54C1169.54 325.104 1173.7 330.03 1179.81 333.441C1185.96 336.876 1194.36 338.959 1203.57 338.959V336.25ZM1172.25 319.353C1172.25 317.613 1172.75 315.914 1173.72 314.289L1171.39 312.905C1170.21 314.899 1169.54 317.07 1169.54 319.353H1172.25Z" fill="#0055DC" mask="url(#path-10-inside-1_16_2)"/>
<mask id="path-12-inside-2_16_2" fill="white">
<path fill-rule="evenodd" clip-rule="evenodd" d="M1180.06 293.465C1180.72 300.23 1190.84 305.602 1203.23 305.602C1215.48 305.602 1225.51 300.352 1226.38 293.697L1232.44 276.92L1174.28 276.92L1180.06 293.465Z"/>
</mask>
<path fill-rule="evenodd" clip-rule="evenodd" d="M1180.06 293.465C1180.72 300.23 1190.84 305.602 1203.23 305.602C1215.48 305.602 1225.51 300.352 1226.38 293.697L1232.44 276.92L1174.28 276.92L1180.06 293.465Z" fill="#73CEE6"/>
<path d="M1180.06 293.465L1181.4 293.333L1181.39 293.172L1181.33 293.019L1180.06 293.465ZM1226.38 293.697L1225.1 293.237L1225.05 293.375L1225.03 293.521L1226.38 293.697ZM1232.44 276.92L1233.71 277.38L1234.37 275.566L1232.44 275.566V276.92ZM1174.28 276.92L1174.28 275.566L1172.38 275.566L1173.01 277.366L1174.28 276.92ZM1203.23 304.247C1197.22 304.247 1191.81 302.941 1187.88 300.871C1183.89 298.777 1181.67 296.057 1181.4 293.333L1178.71 293.597C1179.1 297.638 1182.27 300.986 1186.61 303.269C1191 305.576 1196.85 306.956 1203.23 306.956V304.247ZM1225.03 293.521C1224.68 296.212 1222.42 298.889 1218.45 300.942C1214.52 302.971 1209.17 304.247 1203.23 304.247V306.956C1209.53 306.956 1215.32 305.607 1219.69 303.348C1224.02 301.112 1227.2 297.836 1227.72 293.872L1225.03 293.521ZM1227.65 294.157L1233.71 277.38L1231.16 276.46L1225.1 293.237L1227.65 294.157ZM1232.44 275.566L1174.28 275.566L1174.28 278.274L1232.44 278.274V275.566ZM1173.01 277.366L1178.78 293.911L1181.33 293.019L1175.56 276.474L1173.01 277.366Z" fill="#0055DC" mask="url(#path-12-inside-2_16_2)"/>
<path d="M1207.31 304.021L1211.55 289.059L1220.3 286.801L1215.22 302.892L1227.36 329.428C1227.36 329.428 1225.2 330.961 1223.69 331.687C1222.21 332.394 1219.73 333.098 1219.73 333.098L1207.31 304.021Z" fill="white"/>
<path d="M1218.89 300.351L1223.69 284.825L1226.51 282.566L1220.86 299.504L1232.72 324.629L1231.59 326.041L1218.89 300.351Z" fill="white"/>
<path d="M1233.32 272.93C1233.32 277.239 1230.16 281.283 1224.75 284.288C1219.37 287.28 1211.88 289.152 1203.57 289.152C1195.27 289.152 1187.78 287.28 1182.39 284.288C1176.98 281.283 1173.83 277.239 1173.83 272.93C1173.83 268.621 1176.98 264.577 1182.39 261.572C1187.78 258.579 1195.27 256.707 1203.57 256.707C1211.88 256.707 1219.37 258.579 1224.75 261.572C1230.16 264.577 1233.32 268.621 1233.32 272.93Z" fill="url(#paint1_linear_16_2)" stroke="#0055DC" stroke-width="1.35424"/>
<path opacity="0.66" d="M1238.94 206.387L1238.94 206.385C1238.84 203.052 1237.51 194.947 1235.54 184.588C1233.57 174.257 1230.99 161.752 1228.42 149.669C1225.85 137.587 1223.3 125.929 1221.38 117.291C1220.42 112.972 1219.63 109.408 1219.07 106.925C1218.79 105.683 1218.57 104.711 1218.42 104.049L1218.31 103.565H1215.64H1191.49H1188.82L1188.71 104.049C1188.56 104.71 1188.35 105.682 1188.07 106.924C1187.51 109.408 1186.72 112.972 1185.76 117.291C1183.85 125.928 1181.3 137.587 1178.73 149.669C1176.17 161.752 1173.59 174.257 1171.62 184.588C1169.65 194.946 1168.31 203.053 1168.19 206.387H1238.94ZM1238.94 206.387C1239.04 209.276 1238.28 212.561 1237.06 215.895C1235.84 219.222 1234.17 222.555 1232.48 225.528C1230.8 228.498 1229.1 231.097 1227.82 232.953C1227.18 233.881 1226.65 234.622 1226.27 235.131C1226.09 235.385 1225.94 235.581 1225.84 235.714C1225.82 235.741 1225.8 235.766 1225.79 235.788C1225.76 235.818 1225.74 235.843 1225.73 235.863L1225.73 235.866C1225.72 235.872 1225.71 235.879 1225.7 235.887C1225.66 235.926 1225.59 235.987 1225.49 236.066C1225.3 236.224 1225 236.455 1224.58 236.734C1223.76 237.294 1222.48 238.049 1220.7 238.807C1217.15 240.323 1211.6 241.858 1203.65 241.858C1196.11 241.754 1190.54 240.358 1186.87 238.999C1185.03 238.319 1183.67 237.647 1182.77 237.15C1182.32 236.901 1181.99 236.696 1181.77 236.555C1181.67 236.487 1181.59 236.434 1181.54 236.398M1238.94 206.387L1181.54 236.398M1181.54 236.398C1181.51 236.367 1181.48 236.326 1181.45 236.277C1181.35 236.141 1181.2 235.938 1181.01 235.676C1180.63 235.152 1180.09 234.388 1179.45 233.434C1178.15 231.524 1176.43 228.855 1174.73 225.813C1173.02 222.769 1171.33 219.365 1170.1 215.984C1168.86 212.595 1168.1 209.275 1168.19 206.388L1181.54 236.398Z" fill="#E2F5FA" fill-opacity="0.64" stroke="url(#paint2_linear_16_2)" stroke-width="1.35424"/>
<path opacity="0.66" d="M1226.23 236.325C1226.23 236.325 1240.02 218.41 1239.62 206.365C1239.22 192.771 1218.85 102.888 1218.85 102.888H1215.64H1191.49H1188.28C1188.28 102.888 1167.98 192.771 1167.52 206.365C1167.11 218.41 1181.06 236.889 1181.06 236.889C1181.06 236.889 1188.4 242.326 1203.64 242.535C1219.73 242.535 1226.23 236.325 1226.23 236.325Z" fill="white"/>
<path opacity="0.66" d="M1226.23 236.325C1226.23 236.325 1240.02 218.41 1239.62 206.365C1239.22 192.771 1218.85 102.888 1218.85 102.888H1215.64H1191.49H1188.28C1188.28 102.888 1167.98 192.771 1167.52 206.365C1167.11 218.41 1181.06 236.889 1181.06 236.889C1181.06 236.889 1188.4 242.326 1203.64 242.535C1219.73 242.535 1226.23 236.325 1226.23 236.325Z" fill="white"/>
<path opacity="0.66" d="M1226.23 236.325L1226.54 236.651L1226.56 236.627L1226.59 236.6L1226.23 236.325ZM1226.23 236.325C1226.54 236.651 1226.54 236.651 1226.54 236.651L1226.54 236.652L1226.54 236.654L1226.53 236.658L1226.51 236.675C1226.5 236.689 1226.48 236.708 1226.45 236.733C1226.39 236.782 1226.31 236.853 1226.2 236.942C1225.98 237.12 1225.66 237.37 1225.21 237.669C1224.33 238.266 1222.99 239.057 1221.15 239.845C1217.45 241.422 1211.75 242.987 1203.64 242.987H1203.64C1195.96 242.881 1190.26 241.459 1186.48 240.057C1184.58 239.356 1183.17 238.66 1182.22 238.137C1181.75 237.875 1181.4 237.657 1181.16 237.502C1181.04 237.425 1180.95 237.364 1180.89 237.321C1180.86 237.3 1180.83 237.283 1180.82 237.272L1180.8 237.258L1180.79 237.254L1180.79 237.253L1180.79 237.252C1180.79 237.252 1180.79 237.252 1181.06 236.889M1226.23 236.325C1226.59 236.6 1226.59 236.6 1226.59 236.6L1226.59 236.599L1226.59 236.596L1226.6 236.586L1226.63 236.546C1226.65 236.511 1226.69 236.46 1226.74 236.392C1226.84 236.256 1226.99 236.057 1227.18 235.798C1227.56 235.282 1228.1 234.531 1228.75 233.593C1230.04 231.718 1231.76 229.091 1233.47 226.085C1235.17 223.079 1236.87 219.687 1238.12 216.283C1239.36 212.884 1240.17 209.444 1240.07 206.351C1240.07 206.35 1240.07 206.35 1240.07 206.35L1239.62 206.365C1239.22 192.771 1218.85 102.888 1218.85 102.888M1181.06 236.889L1218.85 102.888M1181.06 236.889C1180.7 237.161 1180.7 237.161 1180.7 237.161L1180.7 237.16L1180.7 237.157L1180.69 237.147L1180.66 237.106C1180.63 237.07 1180.59 237.017 1180.54 236.947C1180.44 236.807 1180.28 236.601 1180.09 236.335C1179.71 235.804 1179.17 235.031 1178.51 234.067C1177.21 232.139 1175.47 229.442 1173.74 226.365C1172.02 223.29 1170.3 219.827 1169.04 216.371C1167.78 212.919 1166.96 209.444 1167.07 206.35L1167.07 206.35C1167.18 202.908 1168.55 194.702 1170.51 184.377C1172.48 174.034 1175.06 161.521 1177.63 149.435C1180.2 137.348 1182.75 125.686 1184.66 117.047C1185.62 112.727 1186.41 109.162 1186.97 106.678C1187.24 105.435 1187.46 104.463 1187.61 103.801L1187.78 103.047L1187.83 102.854L1187.84 102.805L1187.84 102.792L1187.84 102.789C1187.84 102.789 1187.84 102.788 1188.28 102.888M1181.06 236.889L1180.7 237.161L1180.74 237.213L1180.79 237.252L1181.06 236.889ZM1181.06 236.889L1188.28 102.888M1218.85 102.888L1219.29 102.788L1219.21 102.436H1218.85H1215.64H1191.49H1188.28H1187.92L1187.84 102.788L1188.28 102.888M1218.85 102.888H1188.28" fill="#E2F5FA" fill-opacity="0.69" stroke="url(#paint3_linear_16_2)" stroke-width="0.902827"/>
<path d="M1204.91 223.573C1205.03 228.047 1204.34 232.062 1202.28 234.471C1201.53 235.332 1200.61 235.963 1199.47 236.421C1198.66 236.708 1197.8 236.823 1197 236.823C1177.73 236.479 1205.32 228.563 1186.16 212.847C1179.5 207.455 1161.38 196.614 1180.77 176.653C1188.4 168.794 1203.48 170.056 1205.83 176.997C1209.27 187.264 1204.86 193.516 1203.48 199.482C1200.5 212.502 1204.91 221.336 1204.91 223.573Z" fill="url(#paint4_linear_16_2)"/>
<path d="M1191.26 153.479C1190.92 153.135 1190.63 152.791 1190.35 152.332C1182.77 139.942 1183.41 122.218 1199.64 109.656C1200.79 108.624 1205.26 107.821 1207.61 108.968C1207.73 109.025 1207.78 109.083 1207.9 109.083C1228.49 117.113 1210.02 137.304 1200.38 151.758C1198.15 155.143 1193.9 156.003 1191.26 153.536C1191.32 153.536 1191.26 153.479 1191.26 153.479Z" fill="url(#paint5_linear_16_2)"/>
<path d="M1228.09 193.23C1228.32 193.517 1228.55 193.804 1228.78 194.148C1234.46 204.014 1234 216.977 1221.84 224.663C1220.98 225.294 1217.65 225.466 1215.87 224.434C1215.81 224.376 1215.7 224.319 1215.64 224.319C1200.27 216.403 1214.04 203.325 1221.21 193.631C1222.87 191.394 1226.08 191.165 1227.97 193.173C1228.03 193.173 1228.09 193.173 1228.09 193.23Z" fill="url(#paint6_linear_16_2)"/>
<path d="M1217.19 144.416C1222.29 145.391 1224.13 151.872 1224.19 151.987C1225.22 159.845 1223.16 161.279 1213.86 170.744C1207.5 177.226 1205.95 184.453 1201.65 187.378C1196.08 191.221 1186.85 190.935 1190.35 182.56C1191.66 179.061 1206.23 171.317 1207.27 167.818C1208.41 163.803 1200.61 162.312 1203.42 151.643C1204.17 148.66 1209.16 142.867 1217.19 144.416Z" fill="#FD8639"/>
<path d="M1224.47 189.73C1222.52 189.902 1219.08 187.264 1218.97 187.149C1216.16 184.625 1217.02 180.782 1220.86 178.832C1222.01 178.316 1224.3 177.685 1225.11 178.201C1227.92 179.807 1226.54 182.618 1227.74 184.855C1227.97 185.256 1228.83 189.386 1224.47 189.73Z" fill="#FD8639"/>
<path d="M1219.77 103.165C1219.77 105.424 1218.13 107.608 1215.17 109.266C1212.23 110.912 1208.12 111.952 1203.55 111.952C1198.97 111.952 1194.87 110.912 1191.93 109.266C1188.97 107.608 1187.32 105.424 1187.32 103.165C1187.32 100.906 1188.97 98.7222 1191.93 97.0638C1194.87 95.4177 1198.97 94.3783 1203.55 94.3783C1208.12 94.3783 1212.23 95.4177 1215.17 97.0638C1218.13 98.7222 1219.77 100.906 1219.77 103.165Z" fill="url(#paint7_linear_16_2)" stroke="#6ECCE5" stroke-width="1.35424"/>
<mask id="path-27-inside-3_16_2" fill="white">
<path fill-rule="evenodd" clip-rule="evenodd" d="M1183.58 68.4549L1187.03 54.3398H1220.47L1223.8 68.4549H1223.71C1223.73 68.6627 1223.74 68.8721 1223.74 69.0828C1223.74 75.3051 1214.76 80.3493 1203.68 80.3493C1192.61 80.3493 1183.63 75.3051 1183.63 69.0828C1183.63 68.8721 1183.64 68.6627 1183.66 68.4549H1183.58Z"/>
</mask>
<path fill-rule="evenodd" clip-rule="evenodd" d="M1183.58 68.4549L1187.03 54.3398H1220.47L1223.8 68.4549H1223.71C1223.73 68.6627 1223.74 68.8721 1223.74 69.0828C1223.74 75.3051 1214.76 80.3493 1203.68 80.3493C1192.61 80.3493 1183.63 75.3051 1183.63 69.0828C1183.63 68.8721 1183.64 68.6627 1183.66 68.4549H1183.58Z" fill="#C5ECF6"/>
<path d="M1187.03 54.3398V52.9856H1185.97L1185.72 54.0183L1187.03 54.3398ZM1183.58 68.4549L1182.27 68.1333L1181.86 69.8091H1183.58V68.4549ZM1220.47 54.3398L1221.79 54.0294L1221.55 52.9856H1220.47V54.3398ZM1223.8 68.4549V69.8091H1225.51L1225.12 68.1444L1223.8 68.4549ZM1223.71 68.4549V67.1006H1222.21L1222.36 68.5867L1223.71 68.4549ZM1183.66 68.4549L1185.01 68.5867L1185.15 67.1006H1183.66V68.4549ZM1185.72 54.0183L1182.27 68.1333L1184.9 68.7764L1188.35 54.6614L1185.72 54.0183ZM1220.47 52.9856H1187.03V55.6941H1220.47V52.9856ZM1225.12 68.1444L1221.79 54.0294L1219.15 54.6503L1222.48 68.7653L1225.12 68.1444ZM1223.71 69.8091H1223.8V67.1006H1223.71V69.8091ZM1222.36 68.5867C1222.37 68.7509 1222.38 68.9163 1222.38 69.0828H1225.09C1225.09 68.8279 1225.08 68.5746 1225.05 68.3231L1222.36 68.5867ZM1222.38 69.0828C1222.38 71.4866 1220.63 73.9394 1217.2 75.8687C1213.81 77.774 1209.03 78.995 1203.68 78.995V81.7035C1209.41 81.7035 1214.66 80.4025 1218.53 78.2301C1222.35 76.0817 1225.09 72.9014 1225.09 69.0828H1222.38ZM1203.68 78.995C1198.33 78.995 1193.56 77.774 1190.17 75.8687C1186.73 73.9394 1184.98 71.4866 1184.98 69.0828H1182.27C1182.27 72.9014 1185.01 76.0817 1188.84 78.2301C1192.71 80.4025 1197.96 81.7035 1203.68 81.7035V78.995ZM1184.98 69.0828C1184.98 68.9163 1184.99 68.7509 1185.01 68.5867L1182.31 68.3231C1182.29 68.5746 1182.27 68.8279 1182.27 69.0828H1184.98ZM1183.58 69.8091H1183.66V67.1006H1183.58V69.8091Z" fill="#0055DC" mask="url(#path-27-inside-3_16_2)"/>
<path d="M1213.51 63.6553L1207.58 65.3491L1208.99 77.7703L1213.51 76.9234L1216.61 75.7942L1213.51 63.6553Z" fill="white"/>
<path d="M1220.09 56.4638C1220.09 58.7223 1218.45 60.9066 1215.49 62.5649C1212.55 64.211 1208.45 65.2505 1203.87 65.2505C1199.3 65.2505 1195.19 64.211 1192.25 62.5649C1189.29 60.9066 1187.65 58.7223 1187.65 56.4638C1187.65 54.2053 1189.29 52.021 1192.25 50.3627C1195.19 48.7166 1199.3 47.6771 1203.87 47.6771C1208.45 47.6771 1212.55 48.7166 1215.49 50.3627C1218.45 52.021 1220.09 54.2053 1220.09 56.4638Z" fill="#C5ECF6" stroke="#0055DC" stroke-width="1.35424"/>
<path d="M1230.91 279.281C1228.67 282.136 1224.94 284.619 1220.13 286.388C1215.32 288.155 1209.68 289.118 1203.89 289.152C1198.1 289.185 1192.42 288.288 1187.55 286.576C1182.67 284.863 1178.84 282.422 1176.48 279.588" stroke="#0055DC" stroke-width="1.35424"/>
<mask id="path-32-inside-4_16_2" fill="white">
<path fill-rule="evenodd" clip-rule="evenodd" d="M1183.62 297.746C1185.33 299.572 1187.96 301.185 1191.32 302.353C1194.67 303.518 1198.55 304.175 1202.55 304.242C1206.56 304.309 1210.5 303.782 1213.98 302.727C1217.47 301.671 1220.3 300.141 1222.23 298.354L1223.15 299.348C1221.03 301.311 1218 302.925 1214.38 304.024C1210.75 305.122 1206.66 305.665 1202.53 305.596C1198.4 305.527 1194.38 304.849 1190.88 303.632C1187.38 302.415 1184.53 300.702 1182.63 298.672L1183.62 297.746Z"/>
</mask>
<path d="M1191.32 302.353L1191.77 301.074V301.074L1191.32 302.353ZM1183.62 297.746L1184.6 296.82L1183.68 295.832L1182.69 296.758L1183.62 297.746ZM1202.55 304.242L1202.53 305.596L1202.55 304.242ZM1213.98 302.727L1214.38 304.024V304.024L1213.98 302.727ZM1222.23 298.354L1223.22 297.434L1222.3 296.44L1221.31 297.36L1222.23 298.354ZM1223.15 299.348L1224.07 300.341L1225.06 299.421L1224.14 298.428L1223.15 299.348ZM1214.38 304.024L1213.98 302.727L1214.38 304.024ZM1202.53 305.596L1202.55 304.242H1202.55L1202.53 305.596ZM1190.88 303.632L1191.32 302.353L1190.88 303.632ZM1182.63 298.672L1181.7 297.684L1180.71 298.61L1181.64 299.598L1182.63 298.672ZM1191.77 301.074C1188.55 299.955 1186.12 298.442 1184.6 296.82L1182.63 298.672C1184.53 300.702 1187.38 302.415 1190.88 303.632L1191.77 301.074ZM1202.58 302.888C1198.7 302.823 1194.97 302.186 1191.77 301.074L1190.88 303.632C1194.38 304.849 1198.4 305.527 1202.53 305.596L1202.58 302.888ZM1213.59 301.431C1210.26 302.441 1206.45 302.952 1202.58 302.888L1202.53 305.596C1206.66 305.665 1210.75 305.122 1214.38 304.024L1213.59 301.431ZM1221.31 297.36C1219.57 298.972 1216.94 300.417 1213.59 301.431L1214.38 304.024C1218 302.925 1221.03 301.311 1223.15 299.348L1221.31 297.36ZM1224.14 298.428L1223.22 297.434L1221.24 299.274L1222.16 300.268L1224.14 298.428ZM1214.77 305.32C1218.53 304.179 1221.76 302.48 1224.07 300.341L1222.23 298.354C1220.3 300.141 1217.47 301.671 1213.98 302.727L1214.77 305.32ZM1202.51 306.95C1206.77 307.021 1211 306.462 1214.77 305.32L1213.98 302.727C1210.5 303.782 1206.56 304.309 1202.55 304.242L1202.51 306.95ZM1190.43 304.911C1194.08 306.181 1198.25 306.879 1202.51 306.95L1202.55 304.242C1198.55 304.175 1194.67 303.518 1191.32 302.353L1190.43 304.911ZM1181.64 299.598C1183.73 301.833 1186.79 303.645 1190.43 304.911L1191.32 302.353C1187.96 301.185 1185.33 299.572 1183.62 297.746L1181.64 299.598ZM1182.69 296.758L1181.7 297.684L1183.55 299.66L1184.54 298.734L1182.69 296.758Z" fill="#0055DC" mask="url(#path-32-inside-4_16_2)"/>
<path d="M1204.27 103.902C1203.97 104.201 1203.48 104.201 1203.19 103.902L1198.31 99.0302C1198.01 98.7312 1198.01 98.2465 1198.31 97.9475C1198.61 97.6485 1199.1 97.6485 1199.4 97.9475L1203.73 102.278L1208.06 97.9475C1208.36 97.6485 1208.84 97.6485 1209.14 97.9475C1209.44 98.2465 1209.44 98.7312 1209.14 99.0302L1204.27 103.902ZM1204.49 83.3653L1204.49 103.361L1202.96 103.361L1202.96 83.3653L1204.49 83.3653Z" fill="#0055DC"/>
<path d="M1245.69 151.132C1245.39 150.833 1245.39 150.349 1245.69 150.05L1250.56 145.178C1250.86 144.879 1251.34 144.879 1251.64 145.178C1251.94 145.476 1251.94 145.961 1251.64 146.26L1247.31 150.591L1251.64 154.922C1251.94 155.221 1251.94 155.706 1251.64 156.005C1251.34 156.304 1250.86 156.304 1250.56 156.005L1245.69 151.132ZM1246.23 149.825L1286.58 149.825L1286.58 151.357L1246.23 151.357L1246.23 149.825Z" fill="#0055DC"/>
<path d="M1233.37 108.655C1233.08 108.356 1233.08 107.872 1233.37 107.573L1238.25 102.7C1238.55 102.401 1239.03 102.401 1239.33 102.7C1239.63 102.999 1239.63 103.484 1239.33 103.783L1235 108.114L1239.33 112.445C1239.63 112.744 1239.63 113.229 1239.33 113.528C1239.03 113.826 1238.55 113.826 1238.25 113.528L1233.37 108.655ZM1233.92 107.348L1286.77 107.348L1286.77 108.88L1233.92 108.88L1233.92 107.348Z" fill="#0055DC"/>
<path d="M1166.01 260.686C1166.31 260.387 1166.31 259.902 1166.01 259.603L1161.14 254.731C1160.84 254.432 1160.36 254.432 1160.06 254.731C1159.76 255.03 1159.76 255.515 1160.06 255.814L1164.39 260.145L1160.06 264.476C1159.76 264.775 1159.76 265.259 1160.06 265.558C1160.36 265.857 1160.84 265.857 1161.14 265.558L1166.01 260.686ZM1165.47 259.379L1117.56 259.379L1117.56 260.91L1165.47 260.91L1165.47 259.379Z" fill="#0055DC"/>
<path d="M1093.26 269.234L1085.88 259.358L1093.22 249.763L1091.8 247.828L1083.53 258.651L1083.52 260.035L1091.83 271.169L1093.26 269.234Z" fill="#0055DC"/>
<path d="M1095.84 245.565H1093L1103.25 259.576L1093.24 273.127H1096.1L1106.1 259.581L1095.84 245.565Z" fill="#0055DC"/>
<path d="M1101.34 245.565H1098.46L1108.87 259.409L1098.46 273.127H1101.34L1111.22 260.104V258.72L1101.34 245.565Z" fill="#0055DC"/>
<path d="M1309.56 113.062H1307.41V108.216H1309.56V113.062Z" fill="#0055DC"/>
<path d="M1315.49 107.139H1310.64V104.985H1315.49V107.139Z" fill="#0055DC"/>
<path d="M1309.56 103.907H1307.41V99.0604H1309.56V103.907Z" fill="#0055DC"/>
<path d="M1306.33 107.139H1301.49V104.985H1306.33V107.139Z" fill="#0055DC"/>
<path d="M1318.13 97.8912L1316.03 95.7959L1318.13 93.7006L1320.22 95.7959L1318.13 97.8912Z" fill="#0055DC"/>
<path d="M1318.33 122.794V116.669" stroke="#0055DC" stroke-width="1.53118"/>
<path d="M1315.27 119.731L1321.39 119.731" stroke="#0055DC" stroke-width="1.53118"/>
<path d="M896.367 407.374L971.911 363.473V301.549L896.367 345.429V407.374Z" fill="#C5ECF6" stroke="#6ECCE5" stroke-width="1.53118" stroke-linejoin="round"/>
<path d="M896.069 407.969L896.525 407.712L972.208 363.752V301.015L971.772 301.272L896.069 345.252V407.969ZM971.613 363.395L896.664 407.018V345.589L971.613 301.966V363.395Z" fill="#C5ECF6" stroke="#6ECCE5" stroke-width="1.53118" stroke-linejoin="round"/>
<path d="M896.368 407.374L820.527 363.473V301.549L896.368 345.429V407.374Z" fill="#C5ECF6" stroke="#6ECCE5" stroke-width="1.53118" stroke-linejoin="round"/>
<path d="M896.664 407.968V345.251H896.525L820.228 301.093V363.731H820.367L896.664 407.968ZM896.069 345.687V406.937L820.744 363.315V302.045L896.069 345.687Z" fill="#C5ECF6" stroke="#6ECCE5" stroke-width="1.53118" stroke-linejoin="round"/>
<path d="M896.367 345.43L971.911 301.549L895.911 258.66L820.526 301.549L896.367 345.43Z" fill="#C5ECF6" stroke="#6ECCE5" stroke-width="1.53118" stroke-linejoin="round"/>
<path d="M896.367 345.766H896.525L972.564 301.529L972.109 301.271L895.951 258.303H895.812L819.931 301.529L820.367 301.787L896.367 345.766ZM971.316 301.549L896.367 345.171L821.041 301.549L895.832 258.997L971.316 301.549Z" fill="#C5ECF6" stroke="#6ECCE5" stroke-width="1.53118" stroke-linejoin="round"/>
<circle cx="1089.03" cy="400.319" r="15.6946" fill="white"/>
<path d="M1088.97 402.177L1065.13 388.325L1089.12 374.785L1112.92 388.325L1088.97 402.177Z" stroke="#6ECCE5" stroke-width="1.53118" stroke-linejoin="round"/>
<path d="M1088.97 402.283H1088.92L1064.92 388.318L1065.06 388.236L1089.1 374.672H1089.15L1113.1 388.318L1112.97 388.399L1088.97 402.283ZM1065.31 388.324L1088.97 402.095L1112.75 388.324L1089.14 374.891L1065.31 388.324Z" stroke="#6ECCE5" stroke-width="1.53118" stroke-linejoin="round"/>
<path d="M1088.97 426.297L1112.91 412.439V388.324L1088.97 402.177V426.297Z" stroke="#6ECCE5" stroke-width="1.53118" stroke-linejoin="round"/>
<path d="M1088.97 426.297L1065.13 412.439V388.324L1088.97 402.177V426.297Z" stroke="#6ECCE5" stroke-width="1.53118" stroke-linejoin="round"/>
<path d="M820.653 368.336L783.663 346.85L820.876 325.85L857.788 346.85L820.653 368.336Z" fill="#C5ECF6" stroke="#6ECCE5" stroke-width="1.53118" stroke-linejoin="round" stroke-dasharray="3.06 3.06"/>
<path d="M783.342 346.839L820.574 368.5H820.652L857.865 346.966M820.856 325.674H820.924M783.953 346.849L820.914 326.014" stroke="#6ECCE5" stroke-width="1.53118" stroke-linejoin="round" stroke-dasharray="3.06 3.06"/>
<path d="M820.651 405.748L857.786 384.253V346.85L820.651 368.336V405.748Z" fill="#C5ECF6" stroke="#6ECCE5" stroke-width="1.53118" stroke-linejoin="round" stroke-dasharray="3.06 3.06"/>
<path d="M820.653 405.748L783.663 384.253V346.85L820.653 368.336V405.748Z" fill="#C5ECF6" stroke="#6ECCE5" stroke-width="1.53118" stroke-linejoin="round" stroke-dasharray="3.06 3.06"/>
<circle cx="1203.87" cy="273.997" r="12.6322" fill="white" stroke="#E2F5FA" stroke-width="3.06235"/>
<path d="M1245.83 217.819C1248.02 221.577 1248.54 225.547 1247.38 229.411C1246.21 233.29 1243.37 237.006 1239.01 240.21C1234.66 243.414 1228.95 245.986 1222.39 247.686C1215.83 249.386 1208.62 250.158 1201.4 249.93" stroke="#0055DC" stroke-width="1.35424"/>
<path d="M1236.68 292.113C1246.7 295.354 1254.94 300.042 1260.55 305.654C1266.16 311.26 1268.91 317.552 1268.63 323.864C1268.36 330.181 1265.05 336.4 1258.94 341.855C1252.84 347.311 1244.19 351.768 1233.89 354.727C1223.59 357.684 1212.05 359.027 1200.5 358.608C1188.94 358.188 1177.81 356.023 1168.28 352.349C1158.75 348.674 1151.22 343.639 1146.43 337.812C1141.65 331.995 1139.79 325.618 1140.96 319.336" stroke="#6ECCE5" stroke-width="1.35424"/>
<circle cx="1205.02" cy="249.115" r="6.1247" fill="#C5ECF6"/>
<path d="M1189.79 248.676C1182.3 247.262 1175.63 244.749 1170.48 241.415C1165.33 238.079 1161.91 234.071 1160.5 229.839C1159.1 225.628 1159.7 221.276 1162.3 217.199C1164.91 213.106 1169.44 209.429 1175.49 206.585" stroke="#0055DC" stroke-width="1.35424"/>
<path d="M1168.27 212.367L1167.51 208.156L1168.66 201.648L1176.69 205.476L1178.61 215.812L1168.27 212.367Z" fill="#EFF9FC"/>
<path d="M1303.04 143.197H1309.93V145.494H1303.04V143.197Z" fill="#0055DC"/>
<path d="M1309.93 147.791H1303.04V150.087H1309.93V147.791Z" fill="#0055DC"/>
<path d="M1303.04 152.384H1309.93V154.681H1303.04V152.384Z" fill="#0055DC"/>
<path fill-rule="evenodd" clip-rule="evenodd" d="M1327.15 137.168L1328.3 138.316V162.432L1327.15 163.581H1317.97C1316.69 163.581 1315.58 164.274 1314.98 165.303H1311.76C1311.17 164.274 1310.06 163.581 1308.78 163.581H1299.59L1298.44 162.432V138.316L1299.59 137.168H1308.78C1310.66 137.168 1312.33 138.07 1313.37 139.464C1314.42 138.07 1316.09 137.168 1317.97 137.168H1327.15ZM1314.52 142.91C1314.52 141.007 1316.06 139.465 1317.97 139.465H1326.01V161.284H1317.97C1316.67 161.284 1315.48 161.711 1314.52 162.432V142.91ZM1312.23 162.432C1311.27 161.711 1310.07 161.284 1308.78 161.284H1300.74V139.465H1308.78C1310.68 139.465 1312.23 141.007 1312.23 142.91V162.432Z" fill="#0055DC"/>
<ellipse cx="1141.86" cy="322.995" rx="9.56985" ry="7.27309" fill="#C5ECF6"/>
<rect x="920.988" y="92.1699" width="24.4988" height="24.4988" fill="#99DBED"/>
<rect x="920.988" y="138.105" width="24.4988" height="24.4988" fill="#99DBED"/>
<rect x="920.988" y="184.04" width="24.4988" height="24.4988" fill="#99DBED"/>
<rect x="956.205" y="92.1699" width="143.931" height="10.7182" fill="#99DBED"/>
<rect x="956.205" y="109.013" width="60.4815" height="10.7182" fill="#99DBED"/>
<rect x="956.205" y="138.105" width="94.1673" height="10.7182" fill="#99DBED"/>
<rect x="1058.03" y="138.105" width="30.6235" height="10.7182" fill="#99DBED"/>
<rect x="956.205" y="154.948" width="27.5612" height="10.7182" fill="#99DBED"/>
<rect x="998.312" y="184.04" width="75.0276" height="10.7182" fill="#99DBED"/>
<rect x="956.205" y="184.04" width="36.7482" height="10.7182" fill="#99DBED"/>
<rect x="956.205" y="200.884" width="77.3244" height="10.7182" fill="#99DBED"/>
<defs>
<linearGradient id="paint0_linear_16_2" x1="1104.5" y1="122.5" x2="756" y2="548" gradientUnits="userSpaceOnUse">
<stop offset="0.10212" stop-color="#ECF1F6"/>
<stop offset="1" stop-color="#ECF1F6" stop-opacity="0"/>
</linearGradient>
<linearGradient id="paint1_linear_16_2" x1="1203.49" y1="266.341" x2="1203.49" y2="289.692" gradientUnits="userSpaceOnUse">
<stop stop-color="#73CEE6"/>
<stop offset="1" stop-color="#3790E0"/>
</linearGradient>
<linearGradient id="paint2_linear_16_2" x1="1203.57" y1="102.888" x2="1203.57" y2="242.535" gradientUnits="userSpaceOnUse">
<stop stop-color="#C5EBF5" stop-opacity="0"/>
<stop offset="0.22773" stop-color="#C5EBF5"/>
<stop offset="1" stop-color="#C5EBF5" stop-opacity="0"/>
</linearGradient>
<linearGradient id="paint3_linear_16_2" x1="1203.57" y1="102.888" x2="1203.57" y2="242.535" gradientUnits="userSpaceOnUse">
<stop stop-color="#C5EBF5" stop-opacity="0"/>
<stop offset="0.0568736" stop-color="#F8FBFB"/>
<stop offset="0.272156" stop-color="#AFE3F1"/>
<stop offset="0.787296" stop-color="#B1E4F1" stop-opacity="0.908449"/>
</linearGradient>
<linearGradient id="paint4_linear_16_2" x1="1189.59" y1="171.259" x2="1189.59" y2="236.823" gradientUnits="userSpaceOnUse">
<stop offset="0.686091" stop-color="#FBAD41"/>
<stop offset="1" stop-color="#FFE08F"/>
</linearGradient>
<linearGradient id="paint5_linear_16_2" x1="1199.97" y1="129.97" x2="1200.25" y2="155.659" gradientUnits="userSpaceOnUse">
<stop stop-color="#FF6633"/>
<stop offset="1" stop-color="#F6821F"/>
</linearGradient>
<linearGradient id="paint6_linear_16_2" x1="1218.04" y1="226.517" x2="1223.4" y2="205.626" gradientUnits="userSpaceOnUse">
<stop stop-color="#FBAD41"/>
<stop offset="1" stop-color="#F6821F"/>
</linearGradient>
<linearGradient id="paint7_linear_16_2" x1="1203.87" y1="104.037" x2="1203.49" y2="115.138" gradientUnits="userSpaceOnUse">
<stop stop-color="#F1FAFC"/>
<stop offset="1" stop-color="#F1FAFC" stop-opacity="0"/>
</linearGradient>
</defs>
</svg>
