<svg width="26" height="26" viewBox="0 0 26 26" fill="none" xmlns="http://www.w3.org/2000/svg">
<path fill-rule="evenodd" clip-rule="evenodd" d="M12.9959 2.41771C7.16381 2.41771 2.43344 7.2663 2.43344 13.2483C2.41747 15.5002 3.10511 17.7009 4.40034 19.5431C5.69557 21.3853 7.53373 22.777 9.65819 23.524C10.1863 23.6231 10.3789 23.2888 10.3789 23.002C10.3789 22.7448 10.3699 22.064 10.3647 21.1601C7.42666 21.8145 6.80672 19.7081 6.80672 19.7081C6.32653 18.4573 5.63388 18.1237 5.63388 18.1237C4.67472 17.4518 5.70659 17.4652 5.70659 17.4652C6.0437 17.515 6.36487 17.6416 6.64534 17.8352C6.92581 18.0287 7.15809 18.2841 7.32428 18.5816C8.26638 20.2362 9.79631 19.7597 10.3984 19.4814C10.445 18.935 10.6824 18.4224 11.0691 18.0336C8.72341 17.7606 6.25625 16.8315 6.25625 12.6812C6.23898 11.6101 6.62731 10.5721 7.34338 9.7753C7.02093 8.8402 7.05785 7.81859 7.44697 6.90921C7.44697 6.90921 8.33381 6.61793 10.3513 8.01949C12.0807 7.53307 13.9108 7.53307 15.6402 8.01949C17.6564 6.61793 18.5417 6.90921 18.5417 6.90921C18.9316 7.81833 18.9691 8.84004 18.6469 9.7753C19.3631 10.5719 19.751 11.6102 19.7328 12.6812C19.7328 16.8416 17.2632 17.7593 14.9102 18.0254C15.1634 18.2909 15.3581 18.6066 15.4817 18.9521C15.6052 19.2976 15.6548 19.6652 15.6272 20.0311C15.6272 21.479 15.6142 22.6469 15.6142 23.002C15.6142 23.2916 15.8043 23.6284 16.3406 23.5228C18.4635 22.7746 20.3001 21.3825 21.5941 19.5407C22.8881 17.6989 23.5751 15.4992 23.5592 13.2483C23.5592 7.2663 18.8297 2.41771 12.9959 2.41771Z" fill="black"/>
<path d="M4.875 11.8163C4.875 11.8525 4.87744 11.8882 4.87784 11.9248C4.87784 11.8821 4.875 11.8395 4.87541 11.7972L4.875 11.8163Z" fill="black"/>
<path d="M23.5625 11.8163C23.5625 11.7871 23.5605 11.759 23.5605 11.7302C23.5605 11.8037 23.5605 11.8768 23.5605 11.9504C23.5597 11.9053 23.5625 11.8626 23.5625 11.8163Z" fill="black"/>
<path d="M23.5625 11.6725C23.5625 11.64 23.5592 11.6075 23.5584 11.575C23.5584 11.6266 23.5621 11.6782 23.5625 11.7302C23.5601 11.7107 23.5625 11.692 23.5625 11.6725Z" fill="black"/>
</svg>
