<svg width="17" height="15" viewBox="0 0 14 13" fill="none" xmlns="http://www.w3.org/2000/svg">
<path d="M11.5 2.87501H8.50001V3.87501H11.5V2.87501Z" fill="black"/>
<path d="M8.50001 4.87501H11.5V5.87501H8.50001V4.87501Z" fill="black"/>
<path d="M11.5 6.87501H8.50001V7.87501H11.5V6.87501Z" fill="black"/>
<path fill-rule="evenodd" clip-rule="evenodd" d="M1.00001 0.250008L0.500011 0.750008V11.25L1.00001 11.75H5.00001C5.55522 11.75 6.03998 12.0517 6.29934 12.5H7.70068C7.96004 12.0517 8.4448 11.75 9.00001 11.75H13L13.5 11.25V0.750008L13 0.250008H9.00001C8.18221 0.250008 7.45613 0.64268 7.00001 1.24976C6.5439 0.64268 5.81781 0.250008 5.00001 0.250008H1.00001ZM6.50001 2.75001C6.50001 1.92158 5.82844 1.25001 5.00001 1.25001H1.50001V10.75H5.00001C5.56281 10.75 6.08218 10.936 6.50001 11.2498V2.75001ZM7.50001 11.2498C7.91784 10.936 8.43721 10.75 9.00001 10.75H12.5V1.25001H9.00001C8.17158 1.25001 7.50001 1.92158 7.50001 2.75001V11.2498Z" fill="black"/>
</svg>
