<svg width="548" height="291" viewBox="0 0 548 291" fill="none" xmlns="http://www.w3.org/2000/svg">
<path d="M546.981 239.997H0V241.457H546.981V239.997Z" fill="#0050E4"/>
<path d="M410.737 78.2194C410.737 31.2258 368.957 0 335.854 0C300.244 0 265.726 22.077 256.819 56.8223C225.24 50.7531 191.947 76.0697 191.947 112.965C191.947 147.86 222.131 169.687 242.103 169.687H422.424C444.863 169.687 465.207 148.2 465.207 125.943C465.207 94.0872 441.593 74.2399 410.737 78.2194Z" fill="#B9E9F4"/>
<path d="M387.977 85.3084C387.977 51.313 357.773 28.766 333.808 28.766C308.058 28.766 283.111 44.7639 276.63 69.8505C253.799 65.4511 229.725 83.7586 229.725 110.435C229.725 135.662 251.553 151.429 265.997 151.429H396.403C412.623 151.429 427.339 135.891 427.339 119.804C427.329 96.7868 410.276 82.4387 387.977 85.3084Z" fill="#6ECCE5"/>
<path d="M365.135 92.3674C365.135 71.4602 346.568 57.6121 331.862 57.6121C316.033 57.6121 300.695 67.4208 296.753 82.8587C282.709 80.1591 267.923 91.4075 267.923 107.855C267.923 123.363 281.335 133.062 290.212 133.062H370.332C380.313 133.062 389.391 123.513 389.391 113.625C389.291 99.4164 378.798 90.5976 365.135 92.3674Z" fill="#E2F5FA"/>
<path d="M351.152 96.8668C351.152 83.8686 339.636 75.2997 330.508 75.2997C320.687 75.2997 311.168 81.3889 308.71 90.9676C300.013 89.2978 290.824 96.2769 290.824 106.456C290.824 116.074 299.15 122.093 304.657 122.093H354.372C360.561 122.093 366.179 116.164 366.179 110.025C366.139 101.246 359.659 95.777 351.152 96.8668Z" fill="#F8FBFB"/>
<path d="M38.1189 229.449H54.861C55.9845 228.116 57.0645 226.689 58.101 225.169C67.5003 211.371 68.4934 195.703 68.4934 195.703C68.4934 195.703 53.4867 203.642 44.1376 217.44L38.1189 229.449Z" fill="#E2F5FA"/>
<path d="M55.1719 230.139H36.9753L43.4756 216.991C52.8748 203.202 68.0018 195.104 68.1523 194.994L69.3059 194.374L69.2156 195.753C69.2156 195.903 68.1021 211.751 58.6929 225.579C57.6898 227.039 56.5964 228.499 55.4127 229.919L55.1719 230.139ZM39.3026 228.679H54.5199C55.5832 227.389 56.5863 226.049 57.5293 224.68C65.1028 213.561 67.1592 201.063 67.6507 196.963C63.9191 199.163 52.3933 206.532 44.7495 217.73L39.3026 228.679Z" fill="#0050E4"/>
<path d="M33.2936 220.07C26.2718 209.791 15.0469 204.072 15.0469 204.072C15.8212 211.917 18.4773 219.462 22.791 226.069C23.5634 227.199 24.3759 228.259 25.2085 229.259H37.6572L33.2936 220.07Z" fill="#E2F5FA"/>
<path d="M38.8208 229.949H24.8674L24.6468 229.689C23.7736 228.647 22.9534 227.563 22.1891 226.439C17.7892 219.753 15.0867 212.101 14.3146 204.142L14.2344 202.862L15.3779 203.452C15.8494 203.682 26.8737 209.382 33.9056 219.69L33.9557 219.79L38.8208 229.949ZM25.5496 228.489H36.5036L32.6617 220.44C27.1847 212.441 18.9892 207.172 15.9296 205.392C16.8734 212.605 19.4233 219.516 23.3929 225.619C24.075 226.589 24.7872 227.549 25.5496 228.489Z" fill="#0050E4"/>
<path d="M46.9764 229.449C48.1153 225.304 48.7055 221.028 48.7318 216.731C48.7318 203.042 40.4059 191.944 40.4059 191.944C40.4059 191.944 31.5283 203.052 31.5383 216.741C31.5383 221.39 32.8725 225.739 33.8756 229.449H46.9764Z" fill="#E2F5FA"/>
<path d="M47.5382 230.139H33.314L32.8626 228.459C31.6517 224.662 30.9567 220.721 30.7961 216.741C30.7961 202.952 39.4631 191.954 39.8242 191.494L40.4161 190.754L40.9878 191.514C41.3389 191.974 49.4542 202.952 49.4642 216.731C49.4356 221.092 48.8388 225.431 47.6887 229.639L47.5382 230.139ZM34.4375 228.679H46.4147C47.4454 224.761 47.9778 220.73 47.9996 216.681C47.9996 205.492 42.2417 195.943 40.386 193.154C38.3797 195.913 32.2607 205.482 32.2707 216.691C32.427 220.552 33.1018 224.376 34.277 228.059L34.4375 228.679Z" fill="#0050E4"/>
<path d="M53.938 250.136H26.0813C22.5403 250.136 19.6714 247.566 19.6714 244.397V228.879H60.3479V244.357C60.3479 247.526 57.479 250.136 53.938 250.136Z" fill="#B9E9F4"/>
<path d="M53.938 250.826H26.0814C22.1492 250.826 18.9392 247.926 18.9392 244.357V228.139H61.0702V244.347C61.0803 247.926 57.8803 250.826 53.938 250.826ZM20.4238 229.609V244.357C20.4238 247.116 22.9617 249.356 26.0915 249.356H53.938C57.0678 249.356 59.6157 247.106 59.6157 244.357V229.609H20.4238Z" fill="#0050E4"/>
<path fill-rule="evenodd" clip-rule="evenodd" d="M357.662 275.833H91.6351C77.8021 275.833 68.4932 273.713 68.4932 271.713V265.594C68.5285 265.271 68.6909 264.975 68.9446 264.77C69.1984 264.566 69.523 264.47 69.8474 264.504H379.47C379.794 264.473 380.117 264.57 380.37 264.774C380.624 264.977 380.787 265.272 380.824 265.594V271.703C380.814 273.283 373.602 275.833 357.662 275.833Z" fill="white"/>
<path d="M357.672 276.562H91.635C82.0351 276.562 67.7607 275.263 67.7607 271.713V265.594C67.8067 265.081 68.0493 264.606 68.4379 264.267C68.8265 263.928 69.3313 263.751 69.8472 263.774H379.47C379.984 263.754 380.487 263.932 380.873 264.271C381.259 264.609 381.501 265.083 381.547 265.594V271.703C381.537 274.513 371.485 276.562 357.672 276.562ZM69.8472 265.234C69.466 265.234 69.2253 265.444 69.2253 265.594V271.713C69.4761 272.663 76.4979 275.103 91.635 275.103H357.672C373.592 275.103 379.741 272.533 380.092 271.653V265.594C380.092 265.444 379.851 265.234 379.48 265.234H69.8472Z" fill="#0050E5"/>
<path d="M69.0347 265.544V271.693H380.243V265.544C380.243 265.409 380.189 265.279 380.093 265.183C379.997 265.088 379.867 265.034 379.731 265.034H69.5362C69.4023 265.037 69.2747 265.091 69.1809 265.187C69.0872 265.282 69.0346 265.41 69.0347 265.544Z" fill="#BBEBF6"/>
<path fill-rule="evenodd" clip-rule="evenodd" d="M336.416 106.375H112.59C109.618 106.386 106.77 107.561 104.66 109.647C102.551 111.733 101.349 114.562 101.315 117.524V264.264H347.701V117.534C347.672 114.568 346.471 111.733 344.358 109.644C342.245 107.555 339.392 106.381 336.416 106.375Z" fill="#BCECF7"/>
<path d="M348.434 264.994H100.583V117.524C100.591 115.956 100.908 114.405 101.517 112.96C102.127 111.515 103.016 110.203 104.133 109.1C105.251 107.997 106.576 107.124 108.032 106.531C109.488 105.939 111.047 105.638 112.62 105.646H336.416C337.99 105.638 339.55 105.939 341.007 106.532C342.463 107.126 343.789 107.999 344.907 109.103C346.025 110.207 346.913 111.52 347.522 112.967C348.13 114.413 348.447 115.965 348.454 117.534L348.434 264.994ZM102.047 263.534H346.969V117.554C346.945 114.783 345.822 112.133 343.845 110.185C341.867 108.237 339.197 107.147 336.416 107.155H112.59C109.817 107.178 107.162 108.281 105.193 110.227C103.223 112.174 102.094 114.81 102.047 117.574V263.534Z" fill="#0050E5"/>
<path d="M337.34 124.143H111.226V255.495H337.34V124.143Z" fill="white"/>
<path d="M224.498 117.554C225.59 117.554 226.474 116.672 226.474 115.584C226.474 114.496 225.59 113.615 224.498 113.615C223.407 113.615 222.522 114.496 222.522 115.584C222.522 116.672 223.407 117.554 224.498 117.554Z" fill="#0050E4"/>
<path fill-rule="evenodd" clip-rule="evenodd" d="M258.343 265.034V266.324C258.343 267.324 256.337 267.614 254.913 267.614H194.184C192.629 267.614 190.653 267.324 190.653 266.324V265.034H258.343Z" fill="#0050E4"/>
<path d="M337.34 124.143H111.226V134.372H337.34V124.143Z" fill="#0050E4"/>
<path d="M119.231 130.972C120.178 130.972 120.946 130.207 120.946 129.262C120.946 128.318 120.178 127.553 119.231 127.553C118.284 127.553 117.516 128.318 117.516 129.262C117.516 130.207 118.284 130.972 119.231 130.972Z" fill="white"/>
<path d="M124.788 130.972C125.736 130.972 126.504 130.207 126.504 129.262C126.504 128.318 125.736 127.553 124.788 127.553C123.841 127.553 123.073 128.318 123.073 129.262C123.073 130.207 123.841 130.972 124.788 130.972Z" fill="white"/>
<path d="M130.345 130.972C131.293 130.972 132.061 130.207 132.061 129.262C132.061 128.318 131.293 127.553 130.345 127.553C129.398 127.553 128.63 128.318 128.63 129.262C128.63 130.207 129.398 130.972 130.345 130.972Z" fill="white"/>
<path d="M264.202 144.37H138.36V247.456H264.202V144.37Z" fill="#E2F5FA"/>
<path d="M264.573 247.816H137.999V144.01H264.573V247.816ZM138.732 247.136H263.821V144.74H138.732V247.136Z" fill="#0050E5"/>
<path d="M309.834 144.37H264.212V247.456H309.834V144.37Z" fill="#F8FBFB"/>
<mask id="mask0_1736_2506" style="mask-type:luminance" maskUnits="userSpaceOnUse" x="264" y="144" width="46" height="35">
<path d="M309.833 144.37H264.211V178.736H309.833V144.37Z" fill="white"/>
</mask>
<g mask="url(#mask0_1736_2506)">
<path d="M281.726 175.196C282.728 174.647 283.658 173.975 284.494 173.197V168.147L291.195 168.227V172.997C291.496 173.586 292.65 174.316 294.205 175.176C294.205 175.176 291.336 179.436 287.735 179.436C284.133 179.436 281.726 175.196 281.726 175.196Z" fill="#C3E9F3"/>
<path d="M287.725 179.776C283.953 179.776 281.516 175.556 281.415 175.376L281.235 175.066L281.536 174.886C282.467 174.366 283.338 173.746 284.134 173.037V167.747L291.557 167.837V172.837C292.374 173.659 293.328 174.336 294.375 174.836L294.717 175.036L294.496 175.356C294.375 175.526 291.476 179.776 287.725 179.776ZM282.238 175.316C282.85 176.246 284.936 179.046 287.725 179.046C290.513 179.046 292.921 176.226 293.653 175.266C292.584 174.783 291.643 174.057 290.905 173.147V173.067V168.567L284.946 168.497V173.346L284.836 173.446C284.053 174.177 283.18 174.806 282.238 175.316Z" fill="#10377E"/>
<path d="M287.805 184.395C292.593 184.395 297.208 182.612 300.745 179.396C298.769 177.704 296.58 176.276 294.235 175.146C294.235 175.146 291.326 179.376 287.724 179.376C284.123 179.376 281.706 175.206 281.706 175.206C279.499 176.446 276.79 177.616 274.754 179.286C278.304 182.566 282.964 184.391 287.805 184.395Z" fill="#0055DA"/>
<path d="M287.805 184.755C282.88 184.758 278.135 182.913 274.514 179.586L274.203 179.296L274.524 179.036C276.085 177.84 277.766 176.808 279.539 175.956C280.211 175.606 280.873 175.266 281.485 174.956L281.806 174.776L281.987 175.096C281.987 175.096 284.344 179.096 287.685 179.096C291.025 179.096 293.864 175.096 293.894 175.026L294.064 174.766L294.345 174.896C296.727 176.035 298.947 177.484 300.946 179.206L301.247 179.476L300.946 179.746C297.338 182.978 292.656 184.763 287.805 184.755ZM275.326 179.326C278.759 182.336 283.169 184.005 287.741 184.023C292.313 184.042 296.737 182.408 300.193 179.426C298.399 177.943 296.436 176.674 294.345 175.646C293.633 176.586 290.995 179.776 287.725 179.776C284.454 179.776 282.238 176.716 281.586 175.776L279.92 176.656C278.313 177.409 276.776 178.303 275.326 179.326Z" fill="#10377E"/>
<path d="M284.966 165.837C284.966 165.967 284.144 166.027 284.124 166.147C284.103 166.267 284.876 166.567 284.846 166.687C284.816 166.807 284.003 166.687 283.953 166.747C283.903 166.807 284.555 167.357 284.485 167.457C284.414 167.557 283.692 167.177 283.612 167.267C283.532 167.357 284.023 168.017 283.933 168.097C283.843 168.177 283.251 167.607 283.141 167.667C283.03 167.727 283.321 168.507 283.211 168.557C283.1 168.607 282.699 167.897 282.579 167.927C282.458 167.957 282.519 168.787 282.388 168.797C282.258 168.807 282.087 168.017 281.967 168.017C281.846 168.017 281.656 168.817 281.536 168.797C281.415 168.777 281.465 167.967 281.345 167.927C281.225 167.887 280.823 168.607 280.713 168.557C280.603 168.507 280.883 167.737 280.783 167.667C280.683 167.597 280.091 168.177 280.001 168.097C279.91 168.017 280.392 167.357 280.312 167.267C280.231 167.177 279.509 167.557 279.439 167.457C279.369 167.357 280.031 166.857 279.981 166.747C279.931 166.637 279.118 166.797 279.088 166.687C279.058 166.577 279.82 166.277 279.8 166.147C279.78 166.017 278.968 165.967 278.968 165.837C278.968 165.707 279.79 165.647 279.8 165.527C279.81 165.407 279.048 165.118 279.088 164.998C279.128 164.878 279.931 165.048 279.981 164.938C280.031 164.828 279.369 164.328 279.439 164.218C279.509 164.108 280.231 164.508 280.312 164.418C280.392 164.328 279.91 163.658 280.001 163.578C280.091 163.498 280.683 164.078 280.783 164.008C280.883 163.938 280.603 163.168 280.713 163.118C280.823 163.068 281.225 163.788 281.345 163.748C281.465 163.708 281.415 162.898 281.536 162.878C281.656 162.858 281.836 163.668 281.967 163.668C282.097 163.668 282.268 162.858 282.388 162.878C282.509 162.898 282.458 163.718 282.579 163.748C282.699 163.778 283.1 163.068 283.211 163.118C283.321 163.168 283.04 163.948 283.141 164.008C283.241 164.068 283.833 163.498 283.933 163.578C284.033 163.658 283.532 164.328 283.612 164.418C283.692 164.508 284.425 164.118 284.485 164.228C284.545 164.338 283.903 164.828 283.953 164.938C284.003 165.048 284.806 164.878 284.846 164.998C284.886 165.118 284.103 165.407 284.124 165.527C284.144 165.647 284.966 165.717 284.966 165.837Z" fill="#003681"/>
<path d="M282.378 168.987C282.197 168.987 282.117 168.777 282.007 168.477V168.367C282.004 168.404 282.004 168.44 282.007 168.477C281.876 168.797 281.796 169.027 281.595 168.987C281.395 168.947 281.365 168.707 281.335 168.377C281.335 168.377 281.335 168.307 281.335 168.267C281.335 168.227 281.285 168.337 281.274 168.357C281.064 168.637 280.923 168.817 280.733 168.727C280.542 168.637 280.582 168.407 280.653 168.077V167.967L280.562 168.037C280.281 168.237 280.101 168.377 279.94 168.237C279.78 168.097 279.89 167.897 280.051 167.597L280.101 167.497H280.001C279.67 167.617 279.459 167.697 279.349 167.497C279.238 167.297 279.348 167.157 279.639 166.907L279.71 166.837H279.609C279.258 166.837 279.028 166.837 278.967 166.677C278.907 166.517 279.108 166.367 279.409 166.197L279.509 166.137H279.409C279.078 166.067 278.837 166.007 278.837 165.797C278.837 165.587 279.078 165.537 279.409 165.457H279.509L279.409 165.408C279.108 165.238 278.907 165.128 278.967 164.928C279.028 164.728 279.268 164.738 279.609 164.758H279.71L279.639 164.678C279.389 164.428 279.228 164.268 279.349 164.088C279.469 163.908 279.68 163.998 280.001 164.088H280.101L280.051 163.998C279.89 163.698 279.78 163.488 279.94 163.348C280.101 163.208 280.281 163.348 280.562 163.558L280.653 163.618C280.649 163.585 280.649 163.551 280.653 163.518C280.572 163.178 280.532 162.948 280.723 162.858C280.913 162.768 281.044 162.958 281.264 163.228C281.281 163.26 281.301 163.29 281.325 163.318C281.325 163.318 281.325 163.248 281.325 163.218C281.325 162.878 281.375 162.638 281.585 162.608C281.796 162.578 281.866 162.788 281.997 163.108C281.993 163.144 281.993 163.181 281.997 163.218C281.995 163.185 281.995 163.151 281.997 163.118C282.117 162.788 282.207 162.568 282.408 162.608C282.609 162.648 282.639 162.878 282.659 163.218C282.664 163.251 282.664 163.285 282.659 163.318L282.729 163.228C282.94 162.958 283.08 162.778 283.271 162.858C283.461 162.938 283.411 163.188 283.341 163.518C283.341 163.518 283.341 163.578 283.341 163.618L283.421 163.558C283.702 163.348 283.893 163.218 284.053 163.348C284.214 163.478 284.103 163.688 283.933 163.998C283.92 164.03 283.903 164.06 283.883 164.088H283.983C284.314 163.968 284.535 163.888 284.645 164.088C284.755 164.288 284.595 164.418 284.354 164.668L284.274 164.748H284.384C284.715 164.748 284.956 164.748 285.016 164.918C285.076 165.088 284.876 165.228 284.575 165.398L284.484 165.448H284.585C284.906 165.527 285.147 165.577 285.147 165.787C285.147 165.997 284.906 166.057 284.585 166.127H284.484L284.575 166.177C284.876 166.347 285.076 166.457 285.016 166.657C284.956 166.857 284.735 166.847 284.384 166.817H284.274L284.354 166.887C284.595 167.137 284.755 167.307 284.645 167.477C284.535 167.647 284.314 167.577 283.983 167.477H283.883C283.901 167.51 283.918 167.543 283.933 167.577C284.103 167.877 284.204 168.087 284.053 168.217C283.903 168.347 283.702 168.217 283.421 168.017L283.341 167.947C283.335 167.984 283.335 168.021 283.341 168.057C283.411 168.397 283.461 168.617 283.271 168.707C283.08 168.797 282.94 168.617 282.729 168.337L282.659 168.247C282.664 168.284 282.664 168.321 282.659 168.357C282.659 168.687 282.659 168.937 282.408 168.967L282.378 168.987ZM281.375 167.737H281.435C281.606 167.787 281.636 167.967 281.656 168.237C281.756 167.987 281.836 167.817 282.007 167.817C282.177 167.817 282.258 167.987 282.348 168.237C282.348 167.967 282.408 167.787 282.569 167.737C282.729 167.687 282.849 167.827 283.02 168.037C282.96 167.777 282.94 167.597 283.08 167.507C283.221 167.417 283.381 167.507 283.602 167.667C283.471 167.427 283.401 167.257 283.511 167.137C283.622 167.017 283.792 167.057 284.053 167.137C283.863 166.937 283.752 166.797 283.822 166.647C283.893 166.497 284.073 166.487 284.344 166.507C284.103 166.377 283.953 166.267 283.983 166.107C284.013 165.947 284.174 165.887 284.454 165.817C284.174 165.757 284.003 165.707 283.983 165.537C283.963 165.368 284.103 165.268 284.344 165.138C284.063 165.138 283.893 165.138 283.822 164.998C283.752 164.858 283.822 164.698 284.053 164.508C283.802 164.598 283.622 164.638 283.511 164.508C283.401 164.378 283.511 164.218 283.602 163.978C283.381 164.138 283.231 164.228 283.08 164.138C282.93 164.048 282.96 163.868 283.02 163.598C282.849 163.818 282.729 163.948 282.569 163.898C282.408 163.848 282.378 163.678 282.348 163.408C282.258 163.658 282.177 163.818 282.007 163.818C281.836 163.818 281.756 163.658 281.656 163.408C281.656 163.678 281.606 163.848 281.445 163.898C281.285 163.948 281.154 163.818 280.994 163.598C281.044 163.868 281.064 164.048 280.923 164.138C280.783 164.228 280.633 164.138 280.412 163.978C280.532 164.218 280.602 164.378 280.492 164.508C280.382 164.638 280.211 164.588 279.95 164.508C280.141 164.698 280.251 164.838 280.181 164.988C280.111 165.138 279.95 165.148 279.669 165.138C279.9 165.268 280.051 165.368 280.031 165.537C280.011 165.707 279.84 165.757 279.559 165.817C279.84 165.887 280.001 165.937 280.031 166.107C280.061 166.277 279.9 166.377 279.669 166.507C279.93 166.507 280.121 166.507 280.181 166.647C280.241 166.787 280.181 166.937 279.95 167.137C280.211 167.047 280.382 166.997 280.492 167.137C280.602 167.277 280.492 167.427 280.402 167.667C280.622 167.507 280.783 167.417 280.923 167.507C281.064 167.597 281.044 167.777 280.994 168.037C281.094 167.867 281.204 167.737 281.335 167.737H281.375Z" fill="#003681"/>
<path d="M296.552 165.837C296.552 165.967 295.73 166.027 295.71 166.147C295.689 166.267 296.462 166.567 296.432 166.687C296.402 166.807 295.589 166.687 295.539 166.747C295.489 166.807 296.141 167.357 296.081 167.457C296.02 167.557 295.278 167.177 295.198 167.267C295.118 167.357 295.609 168.017 295.519 168.097C295.429 168.177 294.837 167.607 294.726 167.667C294.616 167.727 294.907 168.507 294.797 168.557C294.686 168.607 294.285 167.897 294.165 167.927C294.044 167.957 294.105 168.787 293.974 168.797C293.844 168.807 293.673 168.017 293.553 168.017C293.432 168.017 293.242 168.817 293.121 168.797C293.001 168.777 293.051 167.967 292.941 167.927C292.831 167.887 292.419 168.607 292.309 168.557C292.199 168.507 292.479 167.737 292.369 167.667C292.259 167.597 291.677 168.177 291.587 168.097C291.496 168.017 291.978 167.357 291.898 167.267C291.817 167.177 291.095 167.557 291.025 167.457C290.955 167.357 291.617 166.857 291.567 166.747C291.516 166.637 290.704 166.797 290.674 166.687C290.644 166.577 291.406 166.277 291.396 166.147C291.386 166.017 290.553 165.967 290.553 165.837C290.553 165.707 291.376 165.647 291.396 165.527C291.416 165.407 290.634 165.118 290.674 164.998C290.714 164.878 291.516 165.048 291.567 164.938C291.617 164.828 290.965 164.328 291.025 164.218C291.085 164.108 291.817 164.508 291.908 164.418C291.998 164.328 291.496 163.658 291.587 163.578C291.677 163.498 292.269 164.078 292.369 164.008C292.469 163.938 292.189 163.168 292.309 163.118C292.429 163.068 292.821 163.788 292.941 163.748C293.061 163.708 293.001 162.898 293.121 162.878C293.242 162.858 293.422 163.668 293.553 163.668C293.683 163.668 293.854 162.858 293.984 162.878C294.115 162.898 294.054 163.718 294.165 163.748C294.275 163.778 294.686 163.068 294.797 163.118C294.907 163.168 294.626 163.948 294.736 164.008C294.847 164.068 295.429 163.498 295.519 163.578C295.609 163.658 295.118 164.328 295.198 164.418C295.278 164.508 296.01 164.118 296.081 164.228C296.151 164.338 295.489 164.828 295.539 164.938C295.589 165.048 296.392 164.878 296.432 164.998C296.472 165.118 295.699 165.407 295.71 165.527C295.72 165.647 296.552 165.717 296.552 165.837Z" fill="#003681"/>
<path d="M293.964 168.987C293.784 168.987 293.714 168.777 293.593 168.477C293.593 168.477 293.593 168.407 293.593 168.367C293.591 168.404 293.591 168.44 293.593 168.477C293.463 168.797 293.383 169.027 293.182 168.987C292.981 168.947 292.951 168.707 292.921 168.377C292.926 168.341 292.926 168.304 292.921 168.267L292.861 168.357C292.65 168.637 292.51 168.817 292.319 168.727C292.129 168.637 292.179 168.407 292.249 168.077C292.245 168.041 292.245 168.004 292.249 167.967L292.159 168.037C291.878 168.237 291.697 168.377 291.537 168.237C291.376 168.097 291.487 167.897 291.647 167.597C291.67 167.567 291.687 167.533 291.697 167.497H291.597C291.276 167.617 291.055 167.697 290.945 167.497C290.835 167.297 290.945 167.157 291.236 166.907L291.306 166.837H291.206C290.855 166.837 290.624 166.837 290.564 166.677C290.504 166.517 290.704 166.367 291.005 166.197L291.105 166.137H291.005C290.674 166.067 290.433 166.007 290.433 165.797C290.433 165.587 290.674 165.537 291.005 165.458H291.105L291.005 165.408C290.704 165.238 290.504 165.128 290.564 164.928C290.624 164.728 290.875 164.738 291.206 164.758H291.306L291.236 164.678C290.995 164.428 290.825 164.268 290.945 164.088C291.065 163.908 291.276 163.998 291.597 164.088H291.697C291.684 164.056 291.668 164.025 291.647 163.998C291.487 163.688 291.376 163.488 291.537 163.348C291.697 163.208 291.878 163.348 292.159 163.558L292.249 163.618C292.245 163.585 292.245 163.551 292.249 163.518C292.179 163.178 292.129 162.948 292.319 162.858C292.51 162.768 292.65 162.958 292.861 163.228L292.921 163.318C292.926 163.285 292.926 163.251 292.921 163.218C292.921 162.878 292.971 162.638 293.182 162.608C293.393 162.578 293.463 162.788 293.593 163.108C293.589 163.144 293.589 163.181 293.593 163.218C293.593 163.218 293.593 163.148 293.593 163.108C293.714 162.788 293.804 162.568 294.004 162.608C294.205 162.648 294.235 162.868 294.265 163.218V163.318L294.335 163.238C294.546 162.958 294.687 162.778 294.877 162.858C295.068 162.938 295.018 163.188 294.947 163.518C294.951 163.551 294.951 163.585 294.947 163.618L295.038 163.558C295.319 163.348 295.499 163.218 295.66 163.348C295.82 163.478 295.66 163.688 295.549 163.998L295.489 164.088H295.599C295.92 163.968 296.141 163.888 296.251 164.088C296.362 164.288 296.201 164.418 295.961 164.668L295.88 164.748H295.991C296.322 164.748 296.572 164.748 296.633 164.918C296.693 165.088 296.492 165.228 296.181 165.398L296.091 165.448H296.191C296.522 165.528 296.763 165.577 296.763 165.787C296.763 165.997 296.522 166.057 296.191 166.127H296.091L296.181 166.177C296.472 166.337 296.693 166.457 296.633 166.657C296.572 166.857 296.332 166.837 295.991 166.817H295.88L295.961 166.887C296.201 167.137 296.362 167.307 296.251 167.477C296.141 167.647 295.92 167.577 295.589 167.477H295.489L295.539 167.577C295.7 167.867 295.82 168.087 295.66 168.217C295.499 168.347 295.319 168.217 295.038 168.017L294.947 167.947C294.947 167.947 294.947 168.027 294.947 168.057C295.018 168.397 295.068 168.617 294.877 168.707C294.687 168.797 294.546 168.617 294.335 168.337L294.265 168.247V168.357C294.265 168.687 294.215 168.937 294.004 168.967L293.964 168.987ZM292.961 167.737H293.031C293.192 167.787 293.222 167.967 293.242 168.237C293.342 167.987 293.423 167.817 293.593 167.817C293.764 167.817 293.844 167.987 293.944 168.237C293.944 167.967 293.994 167.787 294.155 167.737C294.315 167.687 294.436 167.827 294.606 168.037C294.546 167.777 294.526 167.597 294.677 167.507C294.827 167.417 294.967 167.507 295.188 167.667C295.058 167.427 294.988 167.257 295.098 167.137C295.208 167.017 295.389 167.057 295.64 167.137C295.449 166.937 295.339 166.797 295.409 166.647C295.479 166.497 295.66 166.487 295.93 166.507C295.69 166.377 295.549 166.267 295.569 166.107C295.589 165.947 295.77 165.887 296.041 165.817C295.76 165.757 295.589 165.707 295.569 165.537C295.549 165.368 295.69 165.268 295.93 165.138C295.65 165.138 295.479 165.138 295.409 164.998C295.339 164.858 295.409 164.698 295.64 164.508C295.389 164.598 295.208 164.638 295.098 164.508C294.988 164.378 295.098 164.218 295.188 163.978C294.967 164.138 294.817 164.228 294.677 164.138C294.536 164.048 294.556 163.868 294.606 163.598C294.436 163.818 294.315 163.948 294.155 163.898C293.994 163.848 293.964 163.678 293.944 163.408C293.844 163.658 293.764 163.818 293.593 163.818C293.423 163.818 293.342 163.658 293.242 163.408C293.242 163.678 293.192 163.848 293.031 163.898C292.871 163.948 292.751 163.818 292.58 163.598C292.63 163.868 292.65 164.048 292.51 164.138C292.369 164.228 292.219 164.138 291.998 163.978C292.119 164.218 292.189 164.378 292.078 164.508C291.968 164.638 291.798 164.588 291.537 164.508C291.727 164.698 291.848 164.838 291.778 164.988C291.707 165.138 291.537 165.148 291.256 165.138C291.487 165.268 291.637 165.368 291.617 165.537C291.597 165.707 291.426 165.757 291.146 165.817C291.426 165.887 291.587 165.937 291.617 166.107C291.647 166.277 291.487 166.377 291.256 166.507C291.527 166.507 291.707 166.507 291.778 166.647C291.848 166.787 291.727 166.937 291.537 167.137C291.798 167.047 291.978 166.997 292.078 167.137C292.179 167.277 292.078 167.427 291.998 167.667C292.219 167.507 292.369 167.417 292.51 167.507C292.65 167.597 292.63 167.777 292.58 168.037C292.68 167.867 292.791 167.737 292.911 167.737H292.961Z" fill="#003681"/>
<path d="M294.195 161.708C294.233 161.566 294.299 161.433 294.391 161.318C294.482 161.203 294.597 161.109 294.727 161.04C294.857 160.971 295 160.931 295.147 160.92C295.294 160.909 295.441 160.929 295.58 160.978C296.422 161.228 295.951 164.258 293.573 164.148C293.83 163.348 294.037 162.533 294.195 161.708Z" fill="#C3E9F3"/>
<path d="M293.723 164.518H293.593H293.112L293.252 164.068C293.49 163.286 293.684 162.491 293.834 161.688C293.883 161.497 293.971 161.317 294.093 161.161C294.215 161.006 294.367 160.877 294.542 160.783C294.716 160.689 294.908 160.632 295.106 160.616C295.303 160.599 295.502 160.624 295.69 160.688C296.191 160.838 296.432 161.488 296.291 162.298C296.195 162.91 295.884 163.469 295.414 163.875C294.944 164.281 294.345 164.509 293.723 164.518ZM294.556 161.778C294.476 162.318 294.265 163.158 294.105 163.778C294.485 163.685 294.828 163.479 295.089 163.188C295.351 162.898 295.518 162.535 295.569 162.148C295.659 161.648 295.569 161.368 295.479 161.348C295.378 161.315 295.272 161.303 295.167 161.313C295.061 161.323 294.959 161.356 294.867 161.408C294.724 161.492 294.614 161.623 294.556 161.778Z" fill="#10377E"/>
<path d="M281.415 161.708C281.376 161.563 281.306 161.428 281.212 161.311C281.117 161.194 280.999 161.098 280.864 161.03C280.73 160.961 280.583 160.921 280.433 160.912C280.282 160.903 280.132 160.926 279.991 160.978C279.258 161.268 279.619 164.258 281.997 164.148C281.747 163.349 281.553 162.533 281.415 161.708Z" fill="#C3E9F3"/>
<path d="M281.877 164.518C281.28 164.512 280.704 164.298 280.249 163.912C279.794 163.527 279.49 162.994 279.389 162.408C279.208 161.558 279.389 160.828 279.89 160.638C280.079 160.556 280.284 160.518 280.489 160.529C280.695 160.539 280.895 160.597 281.074 160.698C281.256 160.798 281.416 160.933 281.544 161.097C281.671 161.26 281.764 161.448 281.816 161.648C281.934 162.45 282.112 163.242 282.348 164.018L282.489 164.468H282.007L281.877 164.518ZM280.422 161.258C280.336 161.245 280.248 161.245 280.161 161.258C280.078 161.451 280.035 161.658 280.035 161.868C280.035 162.078 280.078 162.285 280.161 162.478C280.251 162.782 280.421 163.055 280.654 163.27C280.887 163.485 281.175 163.633 281.485 163.698C281.308 163.04 281.167 162.372 281.064 161.698C280.999 161.513 280.866 161.36 280.693 161.268C280.592 161.241 280.485 161.237 280.382 161.258H280.422Z" fill="#10377E"/>
<path d="M294.496 158.928C294.404 161.481 293.811 163.992 292.75 166.317C291.918 167.897 289.741 169.657 287.845 169.657C285.949 169.657 283.983 167.897 282.94 166.317C281.606 164.318 281.184 160.658 281.184 158.928C281.149 158.036 281.296 157.145 281.615 156.31C281.933 155.475 282.418 154.712 283.04 154.068C283.661 153.424 284.407 152.912 285.231 152.562C286.056 152.212 286.943 152.032 287.84 152.032C288.736 152.032 289.624 152.212 290.448 152.562C291.273 152.912 292.019 153.424 292.64 154.068C293.262 154.712 293.746 155.475 294.065 156.31C294.384 157.145 294.53 158.036 294.496 158.928Z" fill="#C3E9F3"/>
<path d="M287.895 170.017C285.758 170.017 283.752 168.137 282.679 166.517C281.345 164.518 280.863 160.878 280.863 158.928C280.863 157.072 281.603 155.292 282.92 153.979C284.237 152.667 286.023 151.929 287.885 151.929C289.747 151.929 291.533 152.667 292.85 153.979C294.167 155.292 294.907 157.072 294.907 158.928C294.817 161.542 294.207 164.111 293.111 166.487C292.178 168.147 289.901 170.017 287.895 170.017ZM287.895 152.659C286.226 152.659 284.625 153.319 283.444 154.495C282.263 155.67 281.598 157.265 281.595 158.928C281.595 160.718 282.057 164.258 283.291 166.117C284.294 167.697 286.17 169.287 287.895 169.287C289.62 169.287 291.677 167.667 292.469 166.147C293.506 163.875 294.089 161.423 294.184 158.928C294.184 157.266 293.522 155.671 292.342 154.495C291.163 153.32 289.563 152.659 287.895 152.659Z" fill="#10377E"/>
<path d="M294.155 161.148C293.844 158.508 291.276 154.999 288.417 154.999L287.936 152.819L287.555 155.039C285.027 155.419 281.716 158.528 281.416 161.688L281.305 161.578C281.156 160.655 281.076 159.723 281.064 158.788C281.099 157.028 281.832 155.354 283.103 154.132C284.374 152.91 286.08 152.24 287.846 152.269C289.623 152.266 291.33 152.962 292.598 154.204C293.865 155.447 294.59 157.137 294.617 158.908C294.581 159.818 294.456 160.722 294.245 161.608L294.155 161.148Z" fill="#003681"/>
<path d="M281.415 161.838C281.39 161.837 281.366 161.832 281.344 161.821C281.321 161.811 281.301 161.796 281.285 161.778L281.174 161.668C281.144 161.639 281.126 161.6 281.124 161.558C280.976 160.629 280.896 159.69 280.884 158.748C280.966 156.954 281.743 155.262 283.051 154.027C284.359 152.792 286.096 152.111 287.898 152.126C289.7 152.142 291.425 152.853 292.712 154.11C293.998 155.368 294.746 157.073 294.797 158.868C294.764 159.795 294.636 160.717 294.416 161.618C294.416 161.698 294.315 161.778 294.235 161.748C294.192 161.749 294.15 161.734 294.117 161.706C294.084 161.679 294.062 161.64 294.055 161.598L293.974 161.138C293.583 157.829 290.614 155.139 288.417 155.139C288.373 155.14 288.329 155.125 288.295 155.098C288.26 155.071 288.236 155.032 288.226 154.989L287.956 153.729L287.735 155.019C287.727 155.057 287.707 155.092 287.678 155.119C287.65 155.146 287.613 155.164 287.574 155.169C285.127 155.539 281.887 158.598 281.606 161.658C281.601 161.691 281.587 161.723 281.566 161.749C281.545 161.776 281.517 161.796 281.485 161.808L281.415 161.838ZM287.845 152.409C286.129 152.383 284.472 153.034 283.237 154.223C282.002 155.411 281.289 157.038 281.255 158.748C281.262 159.417 281.306 160.084 281.385 160.748C281.804 159.334 282.576 158.05 283.628 157.015C284.681 155.979 285.98 155.227 287.404 154.829L287.765 152.729C287.774 152.688 287.797 152.65 287.829 152.623C287.862 152.596 287.903 152.581 287.945 152.579C287.989 152.579 288.031 152.593 288.064 152.621C288.097 152.648 288.119 152.687 288.126 152.729L288.567 154.729C291.216 154.839 293.693 157.829 294.265 160.518C294.363 159.956 294.42 159.388 294.436 158.818C294.407 157.109 293.705 155.479 292.481 154.28C291.258 153.081 289.611 152.409 287.895 152.409H287.845Z" fill="#003681"/>
</g>
<mask id="mask1_1736_2506" style="mask-type:luminance" maskUnits="userSpaceOnUse" x="264" y="178" width="46" height="36">
<path d="M309.833 178.736H264.211V213.101H309.833V178.736Z" fill="white"/>
</mask>
<g mask="url(#mask1_1736_2506)">
<path d="M290.904 212.011V203.502L282.949 203.412V212.011H290.904Z" fill="#C9E7F1"/>
<path d="M291.265 212.381H282.588V203.042L291.265 203.132V212.381ZM283.32 211.651H290.533V203.862L283.32 203.782V211.651Z" fill="#193979"/>
<path d="M292.539 200.313C292.875 199.116 293.14 197.901 293.331 196.673L292.539 200.313Z" fill="white"/>
<path d="M292.539 200.493C292.516 200.489 292.493 200.481 292.473 200.468C292.453 200.455 292.435 200.439 292.422 200.419C292.409 200.399 292.4 200.377 292.396 200.353C292.392 200.33 292.393 200.306 292.399 200.283C292.399 200.143 292.489 199.913 292.559 199.633C292.84 198.649 293.051 197.647 293.191 196.633C293.192 196.609 293.199 196.585 293.21 196.562C293.221 196.54 293.236 196.521 293.255 196.505C293.273 196.489 293.295 196.477 293.319 196.47C293.343 196.463 293.367 196.46 293.392 196.463C293.416 196.466 293.439 196.473 293.46 196.484C293.481 196.496 293.499 196.511 293.514 196.53C293.529 196.548 293.54 196.57 293.547 196.593C293.553 196.615 293.555 196.639 293.552 196.663C293.412 197.676 293.201 198.679 292.92 199.663C292.84 199.933 292.79 200.163 292.76 200.303C292.76 200.33 292.755 200.358 292.743 200.383C292.732 200.408 292.715 200.431 292.694 200.449C292.673 200.467 292.648 200.48 292.621 200.488C292.595 200.495 292.567 200.497 292.539 200.493Z" fill="#10377E"/>
<path d="M293.291 196.673C293.351 196.153 294.184 194.993 295.076 195.583C295.969 196.173 294.986 200.473 292.539 200.313" fill="#C9E7F1"/>
<path d="M292.669 200.683H292.509V199.953C293.632 200.013 294.395 198.953 294.746 197.883C295.097 196.813 294.986 196.013 294.826 195.883C294.75 195.825 294.658 195.789 294.562 195.781C294.467 195.772 294.37 195.79 294.284 195.833C293.951 196.022 293.706 196.335 293.602 196.703L292.88 196.613C292.944 196.306 293.076 196.017 293.267 195.768C293.458 195.519 293.703 195.315 293.983 195.173C294.181 195.078 294.4 195.037 294.619 195.055C294.838 195.073 295.048 195.148 295.227 195.273C295.879 195.703 295.799 197.033 295.438 198.103C295.067 199.363 294.104 200.683 292.669 200.683Z" fill="#193979"/>
<path d="M281.304 200.313C280.968 199.116 280.703 197.901 280.512 196.673L281.304 200.313Z" fill="white"/>
<path d="M281.304 200.663C281.224 200.66 281.147 200.631 281.086 200.581C281.024 200.53 280.981 200.46 280.963 200.383C280.963 200.243 280.873 200.023 280.803 199.753C280.518 198.752 280.303 197.733 280.161 196.703C280.155 196.657 280.159 196.61 280.172 196.565C280.186 196.521 280.208 196.479 280.238 196.444C280.268 196.408 280.306 196.379 280.347 196.358C280.389 196.338 280.435 196.326 280.482 196.323C280.573 196.315 280.664 196.343 280.736 196.401C280.807 196.458 280.853 196.542 280.863 196.633C280.997 197.63 281.205 198.616 281.485 199.583C281.555 199.863 281.615 200.093 281.645 200.233C281.666 200.323 281.651 200.418 281.602 200.496C281.553 200.575 281.475 200.631 281.384 200.653L281.304 200.663Z" fill="#10377E"/>
<path d="M280.552 196.673C280.491 196.153 279.659 194.993 278.766 195.583C277.873 196.173 278.856 200.473 281.304 200.313" fill="#C9E7F1"/>
<path d="M281.174 200.683C279.739 200.683 278.776 199.363 278.355 198.113C277.994 197.043 277.913 195.713 278.555 195.283C278.737 195.158 278.949 195.083 279.169 195.065C279.389 195.048 279.61 195.088 279.809 195.183C280.09 195.325 280.335 195.529 280.526 195.778C280.717 196.027 280.849 196.316 280.913 196.623L280.191 196.713C280.14 196.53 280.054 196.359 279.937 196.21C279.82 196.061 279.674 195.936 279.508 195.843C279.423 195.8 279.326 195.782 279.23 195.791C279.135 195.799 279.043 195.835 278.967 195.893C278.796 196.003 278.686 196.793 279.047 197.893C279.408 198.993 280.181 200.023 281.284 199.963V200.693L281.174 200.683Z" fill="#193979"/>
<path d="M293.572 192.634C293.623 194.493 293.4 196.349 292.91 198.143C292.659 198.963 292.358 201.493 292.017 202.142C291.145 203.792 288.918 205.632 286.881 205.632C284.845 205.632 282.869 203.792 281.755 202.142C281.334 201.513 281.003 198.973 280.752 198.143C280.309 196.359 280.136 194.519 280.241 192.684C280.191 191.783 280.326 190.881 280.638 190.033C280.95 189.186 281.432 188.411 282.054 187.756C282.677 187.1 283.427 186.578 284.258 186.221C285.09 185.864 285.986 185.68 286.891 185.68C287.797 185.68 288.693 185.864 289.525 186.221C290.356 186.578 291.106 187.1 291.729 187.756C292.351 188.411 292.833 189.186 293.145 190.033C293.457 190.881 293.592 191.783 293.542 192.684L293.572 192.634Z" fill="#C9E7F1"/>
<path d="M286.891 205.962C284.674 205.962 282.578 203.962 281.454 202.302C281.073 201.433 280.82 200.514 280.702 199.573C280.592 199.013 280.491 198.483 280.401 198.203C279.974 196.552 279.794 194.847 279.869 193.144V192.674C279.869 190.817 280.609 189.037 281.926 187.725C283.243 186.412 285.029 185.675 286.891 185.675C288.754 185.675 290.54 186.412 291.856 187.725C293.173 189.037 293.913 190.817 293.913 192.674C293.968 194.548 293.752 196.42 293.271 198.233C293.181 198.553 293.07 199.153 292.95 199.793C292.841 200.652 292.639 201.497 292.348 202.312C291.445 204.042 289.098 205.962 286.891 205.962ZM286.891 186.055C286.04 186.056 285.197 186.23 284.415 186.566C283.633 186.901 282.927 187.391 282.34 188.006C281.753 188.621 281.297 189.348 281 190.143C280.703 190.939 280.571 191.786 280.612 192.634V193.144C280.535 194.785 280.7 196.429 281.103 198.023C281.204 198.343 281.314 198.873 281.434 199.473C281.549 200.319 281.764 201.148 282.076 201.942C283.18 203.602 285.086 205.272 286.901 205.272C288.717 205.272 290.914 203.562 291.716 201.972C291.959 201.219 292.136 200.446 292.248 199.663C292.368 199.003 292.479 198.373 292.579 198.023C293.039 196.278 293.245 194.477 293.191 192.674C293.236 191.821 293.106 190.969 292.81 190.168C292.514 189.367 292.057 188.635 291.467 188.015C290.878 187.396 290.168 186.903 289.382 186.566C288.595 186.229 287.748 186.055 286.891 186.055Z" fill="#193979"/>
<path d="M286.892 218.56C291.874 218.57 296.663 216.644 300.243 213.191C296.883 210.551 292.329 210.111 290.894 208.732C289.249 210.001 284.876 210.001 282.939 208.732C281.545 209.731 276.921 210.291 273.771 213.421C277.333 216.729 282.023 218.566 286.892 218.56Z" fill="#1B59D0"/>
<path d="M286.891 218.93C281.929 218.935 277.151 217.062 273.52 213.691L273.239 213.431L273.52 213.161C275.514 211.392 277.889 210.102 280.461 209.391C281.249 209.166 282.007 208.847 282.718 208.442L282.929 208.292L283.14 208.422C284.996 209.611 289.159 209.621 290.663 208.422L290.763 208.352H291.034L291.145 208.452C292.105 209.112 293.175 209.599 294.305 209.891C296.509 210.546 298.59 211.56 300.464 212.891L300.795 213.151L300.494 213.441C296.847 216.962 291.969 218.93 286.891 218.93ZM274.312 213.411C277.807 216.527 282.34 218.234 287.029 218.199C291.717 218.164 296.224 216.389 299.671 213.221C297.94 212.081 296.051 211.198 294.064 210.601C292.935 210.287 291.857 209.813 290.864 209.191C289.018 210.351 285.056 210.341 282.949 209.191C282.23 209.566 281.478 209.874 280.702 210.111C278.369 210.759 276.197 211.882 274.322 213.411H274.312Z" fill="#10377E"/>
<path d="M280.271 194.504C280.271 193.784 280.271 193.134 280.271 192.634C280.221 191.733 280.356 190.831 280.668 189.983C280.98 189.136 281.462 188.361 282.084 187.706C282.707 187.05 283.457 186.528 284.288 186.171C285.12 185.814 286.016 185.63 286.921 185.63C287.827 185.63 288.723 185.814 289.555 186.171C290.386 186.528 291.136 187.05 291.759 187.706C292.381 188.361 292.863 189.136 293.175 189.983C293.487 190.831 293.622 191.733 293.572 192.634C293.572 193.114 293.572 193.734 293.572 194.424L291.746 193.004V190.524H282.066V193.004L280.311 194.504H280.271Z" fill="#10377E"/>
<path d="M280.271 194.874C280.221 194.883 280.17 194.883 280.121 194.874C280.057 194.844 280.003 194.798 279.964 194.74C279.925 194.682 279.903 194.614 279.9 194.544C279.9 194.034 279.9 193.544 279.9 193.134V192.664C279.9 190.808 280.64 189.028 281.957 187.715C283.273 186.402 285.059 185.665 286.922 185.665C288.784 185.665 290.57 186.402 291.887 187.715C293.204 189.028 293.944 190.808 293.944 192.664C293.944 193.154 293.944 193.774 293.944 194.464C293.941 194.531 293.92 194.597 293.883 194.653C293.846 194.709 293.794 194.755 293.733 194.784C293.671 194.81 293.603 194.819 293.536 194.81C293.469 194.801 293.405 194.775 293.352 194.734L291.536 193.314C291.492 193.281 291.457 193.239 291.433 193.191C291.408 193.142 291.396 193.088 291.396 193.034V190.914H282.448V193.034C282.446 193.086 282.434 193.136 282.411 193.183C282.389 193.229 282.357 193.271 282.317 193.304L280.562 194.814C280.52 194.843 280.473 194.863 280.423 194.873C280.373 194.884 280.321 194.884 280.271 194.874ZM286.922 186.055C286.07 186.057 285.227 186.231 284.444 186.566C283.661 186.901 282.955 187.391 282.367 188.006C281.779 188.62 281.323 189.347 281.025 190.143C280.726 190.938 280.593 191.786 280.632 192.634V193.144C280.632 193.344 280.632 193.544 280.632 193.764L281.635 192.874V190.564C281.635 190.468 281.673 190.375 281.74 190.306C281.808 190.237 281.9 190.197 281.996 190.194H291.677C291.775 190.194 291.869 190.233 291.939 190.303C292.009 190.372 292.048 190.466 292.048 190.564V192.864L293.161 193.734C293.161 193.334 293.161 192.974 293.161 192.674C293.207 191.824 293.08 190.973 292.786 190.174C292.492 189.374 292.038 188.643 291.451 188.024C290.865 187.404 290.158 186.911 289.374 186.572C288.591 186.234 287.746 186.058 286.892 186.055H286.922Z" fill="#10377E"/>
</g>
<mask id="mask2_1736_2506" style="mask-type:luminance" maskUnits="userSpaceOnUse" x="264" y="213" width="46" height="35">
<path d="M309.833 213.091H264.211V247.456H309.833V213.091Z" fill="white"/>
</mask>
<g mask="url(#mask2_1736_2506)">
<path d="M292.911 229.389C292.668 228.492 292.507 227.575 292.429 226.649C288.779 226.647 285.195 225.674 282.047 223.83L282.238 223.6C285.363 225.427 288.927 226.374 292.55 226.339H292.7V226.489C292.781 227.43 292.939 228.363 293.172 229.279L292.911 229.389Z" fill="#1B59D0"/>
<path d="M273.249 246.416C272.936 245.734 272.792 244.986 272.828 244.237C272.898 242.147 278.215 240.527 278.215 239.347C278.215 238.168 275.577 235.528 275.577 233.588C275.577 231.648 278.957 229.959 278.957 226.179C278.957 219.71 285.537 219.86 286.139 219.86C293.282 219.86 294.164 225.399 294.877 226.439C295.278 227.059 297.344 227.439 297.344 229.319C297.344 231.198 295.779 232.128 295.549 233.588C295.318 235.048 295.819 235.938 298.337 237.328C301.938 239.327 301.477 244.837 296.331 245.966C296.331 245.966 290.794 243.767 289.67 242.037V236.918L282.478 236.838V242.267C280.873 244.007 276.178 246.186 274.122 247.326L273.249 246.416Z" fill="#003487"/>
<path d="M274.092 247.777L272.919 246.567C272.585 245.833 272.427 245.032 272.457 244.227C272.507 242.837 274.313 241.767 275.908 240.808C276.68 240.348 277.854 239.648 277.854 239.348C277.648 238.624 277.308 237.946 276.851 237.348C276.098 236.158 275.236 234.808 275.236 233.609C275.383 232.595 275.855 231.655 276.58 230.929C277.785 229.632 278.496 227.955 278.586 226.19C278.544 225.337 278.675 224.485 278.971 223.684C279.268 222.883 279.724 222.151 280.312 221.53C281.901 220.156 283.958 219.441 286.059 219.53C292.359 219.53 294.084 223.75 294.807 225.53C294.897 225.781 295.008 226.025 295.138 226.26C295.323 226.445 295.536 226.6 295.77 226.719C296.298 226.938 296.755 227.299 297.09 227.762C297.425 228.224 297.624 228.77 297.666 229.339C297.618 230.327 297.268 231.276 296.662 232.059C296.296 232.536 296.033 233.084 295.89 233.669C295.699 234.918 296.02 235.668 298.498 237.028C299.366 237.498 300.068 238.221 300.511 239.1C300.954 239.98 301.116 240.973 300.976 241.947C300.774 243.062 300.225 244.086 299.408 244.873C298.591 245.661 297.546 246.173 296.422 246.337H296.311H296.201C295.97 246.247 290.543 244.067 289.37 242.257L289.31 242.167V237.308L282.86 237.238V242.447L282.759 242.547C281.475 243.937 278.325 245.547 276.018 246.777C275.366 247.117 274.774 247.417 274.313 247.677L274.092 247.777ZM273.551 246.197L274.223 246.877L275.707 246.097C277.894 244.957 280.883 243.407 282.147 242.097V236.438L290.062 236.528V241.887C291.065 243.187 294.837 244.887 296.392 245.557C297.349 245.403 298.236 244.958 298.93 244.284C299.625 243.609 300.094 242.737 300.274 241.787C300.392 240.96 300.252 240.116 299.874 239.371C299.495 238.625 298.896 238.013 298.157 237.618C295.649 236.228 294.927 235.228 295.148 233.509C295.3 232.819 295.602 232.171 296.03 231.609C296.569 230.949 296.889 230.138 296.943 229.289C296.943 228.219 296.121 227.729 295.399 227.289C295.064 227.124 294.768 226.893 294.526 226.61C294.373 226.337 294.243 226.053 294.135 225.76C293.402 223.95 291.868 220.19 286.11 220.19C284.19 220.114 282.312 220.756 280.843 221.99C280.324 222.545 279.922 223.198 279.662 223.911C279.401 224.624 279.288 225.382 279.329 226.14C279.231 228.068 278.457 229.901 277.142 231.319C276.532 231.932 276.117 232.711 275.948 233.559C276.173 234.779 276.689 235.928 277.453 236.908C278.011 237.614 278.399 238.438 278.586 239.318C278.586 240.038 277.583 240.608 276.279 241.407C274.975 242.207 273.27 243.237 273.189 244.217C273.157 244.896 273.281 245.573 273.551 246.197Z" fill="#003487"/>
<path d="M279.529 244.467C280.601 243.875 281.595 243.153 282.488 242.317V236.878L289.68 236.968V242.077C290.011 242.717 291.245 243.497 292.9 244.417C290.768 245.573 288.386 246.197 285.959 246.236C283.692 246.255 281.465 245.642 279.529 244.467Z" fill="#BCECF7"/>
<path d="M285.959 246.596C283.616 246.622 281.314 245.988 279.318 244.767L278.847 244.447L279.338 244.157C280.341 243.597 281.276 242.926 282.127 242.157V236.498L290.041 236.598V241.967C290.914 242.842 291.932 243.559 293.051 244.087L293.603 244.397L293.051 244.727C290.873 245.913 288.44 246.554 285.959 246.596ZM280.241 244.467C282.007 245.382 283.968 245.862 285.959 245.866C288.097 245.829 290.201 245.331 292.128 244.407C291.044 243.915 290.092 243.175 289.349 242.247V242.167V237.328L282.899 237.248V242.467L282.799 242.567C282.026 243.3 281.167 243.938 280.241 244.467Z" fill="#003487"/>
<path d="M286.752 251.996C291.071 251.999 295.266 250.552 298.659 247.886C296.877 246.545 294.969 245.38 292.961 244.407C290.803 245.576 288.394 246.207 285.939 246.247C283.665 246.262 281.431 245.646 279.489 244.467C277.824 245.397 275.908 246.287 274.152 247.356C277.654 250.365 282.128 252.013 286.752 251.996Z" fill="#0050E5"/>
<path d="M286.752 252.366C282.053 252.365 277.511 250.683 273.952 247.626L273.571 247.306L274.002 247.046C275.055 246.406 276.159 245.827 277.232 245.277C277.964 244.897 278.676 244.527 279.349 244.147L279.539 244.037L279.73 244.167C281.617 245.295 283.778 245.887 285.979 245.877C288.352 245.829 290.68 245.219 292.77 244.097L292.941 243.997L293.111 244.077C295.143 245.062 297.075 246.241 298.879 247.596L299.25 247.886L298.929 248.136C295.472 250.888 291.176 252.38 286.752 252.366ZM274.824 247.366C278.194 250.102 282.406 251.595 286.752 251.596C290.826 251.606 294.792 250.289 298.047 247.846C296.444 246.683 294.746 245.657 292.971 244.777C290.805 245.918 288.399 246.531 285.949 246.566C283.679 246.572 281.448 245.982 279.479 244.857C278.867 245.197 278.215 245.537 277.553 245.857C276.67 246.386 275.727 246.876 274.855 247.406L274.824 247.366Z" fill="#003487"/>
<path d="M293.242 226.979C293.141 229.715 292.504 232.406 291.366 234.898C290.474 236.598 288.186 238.477 286.1 238.477C284.013 238.477 281.967 236.598 280.844 234.898C279.409 232.748 278.958 228.829 278.958 226.979C278.958 225.091 279.71 223.28 281.05 221.945C282.389 220.61 284.206 219.86 286.1 219.86C287.994 219.86 289.811 220.61 291.15 221.945C292.49 223.28 293.242 225.091 293.242 226.979Z" fill="#BCECF7"/>
<path d="M286.1 238.847C283.833 238.847 281.676 236.848 280.532 235.098C279.108 232.958 278.596 229.099 278.596 226.979C278.596 224.99 279.389 223.083 280.8 221.676C282.211 220.27 284.125 219.48 286.12 219.48C288.115 219.48 290.029 220.27 291.44 221.676C292.851 223.083 293.643 224.99 293.643 226.979C293.543 229.776 292.888 232.525 291.717 235.068C290.734 236.888 288.327 238.847 286.1 238.847ZM286.1 220.22C284.303 220.223 282.581 220.936 281.311 222.203C280.042 223.47 279.329 225.188 279.329 226.979C279.329 228.979 279.81 232.688 281.144 234.698C282.278 236.398 284.244 238.118 286.1 238.118C287.956 238.118 290.182 236.368 291.045 234.728C292.155 232.288 292.779 229.656 292.881 226.979C292.881 225.186 292.166 223.467 290.895 222.2C289.623 220.932 287.898 220.22 286.1 220.22Z" fill="#003487"/>
<path d="M293.031 229.319C292.794 228.39 292.63 227.444 292.539 226.489C288.881 226.522 285.282 225.565 282.127 223.72C282.127 223.72 280.792 228.919 279.208 229.959C279.05 228.966 278.966 227.964 278.957 226.959C278.957 225.071 279.709 223.26 281.049 221.925C282.388 220.59 284.205 219.84 286.099 219.84C287.993 219.84 289.81 220.59 291.149 221.925C292.489 223.26 293.241 225.071 293.241 226.959C293.228 227.743 293.157 228.525 293.031 229.299V229.319Z" fill="#003487"/>
<path d="M279.067 230.289V229.989C278.909 228.996 278.821 227.994 278.807 226.989C278.807 225.051 279.579 223.192 280.954 221.821C282.33 220.45 284.195 219.68 286.139 219.68C288.084 219.68 289.949 220.45 291.325 221.821C292.7 223.192 293.472 225.051 293.472 226.989C293.46 227.783 293.39 228.575 293.262 229.359L293.161 229.959L292.9 229.409C292.655 228.522 292.49 227.615 292.409 226.699C288.861 226.677 285.376 225.762 282.277 224.039C281.976 225.139 280.783 229.189 279.358 230.129L279.067 230.289ZM286.089 220.05C284.246 220.05 282.477 220.78 281.174 222.079C279.87 223.379 279.138 225.141 279.138 226.979C279.151 227.856 279.218 228.73 279.338 229.599C280.743 228.269 281.916 223.72 281.926 223.67L281.997 223.39L282.227 223.56C285.34 225.399 288.901 226.347 292.519 226.299H292.7V226.479C292.7 226.869 292.84 227.649 292.951 228.289C292.996 227.86 293.019 227.43 293.021 226.999C293.026 225.163 292.3 223.4 291.002 222.097C289.705 220.794 287.941 220.058 286.099 220.05H286.089Z" fill="#003487"/>
<path d="M292.911 229.959C292.949 229.805 293.019 229.662 293.117 229.537C293.214 229.412 293.337 229.309 293.477 229.235C293.617 229.16 293.771 229.116 293.929 229.105C294.087 229.093 294.246 229.115 294.395 229.169C295.298 229.439 294.787 232.688 292.279 232.578C292.535 231.717 292.746 230.842 292.911 229.959Z" fill="#BCECF7"/>
<path d="M292.42 232.938H292.269H291.788L291.938 232.488C292.189 231.646 292.397 230.792 292.56 229.929C292.605 229.735 292.689 229.552 292.806 229.39C292.923 229.229 293.071 229.092 293.242 228.989C293.432 228.875 293.644 228.804 293.864 228.78C294.084 228.756 294.306 228.779 294.516 228.849C295.038 229.009 295.288 229.689 295.148 230.549C295.059 231.208 294.733 231.813 294.232 232.252C293.731 232.691 293.087 232.935 292.42 232.938ZM293.282 230.019C293.155 230.747 292.987 231.468 292.781 232.178C293.204 232.083 293.588 231.862 293.881 231.544C294.175 231.226 294.365 230.827 294.426 230.399C294.516 229.839 294.376 229.539 294.295 229.519C294.186 229.477 294.069 229.461 293.952 229.472C293.836 229.482 293.723 229.519 293.623 229.579C293.46 229.679 293.339 229.836 293.282 230.019Z" fill="#003487"/>
<path d="M279.208 229.959C279.165 229.803 279.09 229.657 278.988 229.531C278.886 229.406 278.759 229.302 278.615 229.228C278.47 229.154 278.312 229.11 278.15 229.1C277.988 229.09 277.826 229.113 277.673 229.169C276.891 229.489 277.282 232.688 279.8 232.578C279.546 231.719 279.349 230.844 279.208 229.959Z" fill="#BCECF7"/>
<path d="M279.669 232.938C279.035 232.936 278.423 232.711 277.939 232.303C277.454 231.896 277.13 231.331 277.021 230.709C276.82 229.809 277.021 229.039 277.543 228.829C277.741 228.744 277.957 228.705 278.173 228.718C278.389 228.73 278.599 228.792 278.787 228.899C278.979 229.003 279.148 229.145 279.283 229.317C279.418 229.489 279.515 229.687 279.569 229.899C279.698 230.761 279.889 231.613 280.141 232.448L280.281 232.898H279.8L279.669 232.938ZM278.094 229.449C277.998 229.45 277.902 229.471 277.814 229.509C277.727 229.701 277.683 229.908 277.683 230.119C277.683 230.329 277.727 230.537 277.814 230.729C277.906 231.089 278.098 231.417 278.367 231.675C278.637 231.933 278.973 232.111 279.338 232.188C279.148 231.473 278.994 230.749 278.877 230.019C278.801 229.815 278.655 229.645 278.466 229.539C278.353 229.475 278.224 229.443 278.094 229.449Z" fill="#003487"/>
</g>
<path d="M310.195 247.816H263.82V212.731H310.174L310.195 247.816ZM264.573 247.136H309.462V213.461H264.573V247.136Z" fill="#0050E5"/>
<path d="M310.195 213.461H263.82V178.366H310.174L310.195 213.461ZM264.573 212.731H309.462V179.146H264.573V212.731Z" fill="#0050E5"/>
<path d="M310.195 179.146H263.82V144.01H310.174L310.195 179.146ZM264.573 178.416H309.462V144.74H264.573V178.416Z" fill="#0050E5"/>
<mask id="mask3_1736_2506" style="mask-type:luminance" maskUnits="userSpaceOnUse" x="138" y="144" width="127" height="104">
<path d="M264.202 144.37H138.36V247.456H264.202V144.37Z" fill="white"/>
</mask>
<g mask="url(#mask3_1736_2506)">
<path d="M239.745 248.076C228.059 241.887 215.109 240.227 212.661 234.578C210.836 230.309 212.661 215.991 212.661 215.991L184.423 215.701C184.423 215.701 186.209 230.209 184.423 234.578C182.257 239.887 170.49 241.577 159.687 247.576" fill="#C3E9F3"/>
<path d="M239.545 248.416C235.188 246.224 230.683 244.337 226.063 242.767C219.252 240.287 213.865 238.338 212.32 234.768C210.635 230.819 211.949 218.88 212.24 216.411L184.875 216.141C185.166 218.64 186.45 230.739 184.795 234.778C183.42 238.168 178.515 240.067 172.316 242.477C168.051 244.026 163.901 245.874 159.897 248.006L159.526 247.326C163.561 245.18 167.741 243.315 172.035 241.747C178.054 239.407 182.829 237.568 184.072 234.488C185.798 230.259 184.072 215.941 184.072 215.791V215.351L213.163 215.661L213.103 216.091C213.103 216.231 211.317 230.349 213.103 234.478C214.507 237.778 219.753 239.677 226.394 242.087C231.044 243.675 235.578 245.579 239.966 247.786L239.545 248.416Z" fill="#10377E"/>
<path d="M199.982 262.804C214.583 262.823 228.701 257.594 239.746 248.076C228.059 241.887 215.109 240.227 212.661 234.578C212.241 233.39 212.001 232.147 211.949 230.889C207.53 231.781 203.036 232.263 198.528 232.328C194.019 232.263 189.525 231.781 185.106 230.889C185.06 232.145 184.83 233.388 184.424 234.578C182.257 239.887 170.49 241.577 159.697 247.576C170.801 257.398 185.136 262.817 199.982 262.804Z" fill="#0055DA"/>
<path d="M199.982 263.194C185.07 263.189 170.673 257.756 159.496 247.916L159.075 247.546L159.556 247.276C163.593 245.127 167.777 243.263 172.075 241.697C178.094 239.357 182.859 237.508 184.113 234.438C184.505 233.283 184.728 232.077 184.775 230.859V230.409L185.226 230.509C189.617 231.389 194.079 231.868 198.558 231.938C203.039 231.867 207.505 231.388 211.899 230.509L212.341 230.409V230.859C212.386 232.076 212.616 233.279 213.023 234.428C214.427 237.718 219.673 239.627 226.314 242.037C230.966 243.615 235.501 245.516 239.886 247.726L240.398 247.996L239.956 248.376C228.841 257.926 214.657 263.184 199.982 263.194ZM160.399 247.686C171.295 257.098 185.207 262.318 199.624 262.404C214.042 262.49 228.015 257.437 239.024 248.156C234.825 246.085 230.496 244.288 226.063 242.777C219.242 240.297 213.855 238.338 212.321 234.778C211.92 233.692 211.683 232.553 211.618 231.398C207.321 232.239 202.957 232.694 198.578 232.758C194.199 232.695 189.834 232.24 185.537 231.398C185.472 232.548 185.242 233.683 184.855 234.768C183.471 238.158 178.576 240.057 172.366 242.467C168.268 243.946 164.27 245.69 160.399 247.686Z" fill="#003681"/>
<path d="M177.251 190.874C177.031 189.064 174.332 185.795 171.142 187.874C167.952 189.954 171.012 205.212 179.719 204.642" fill="#C3E9F3"/>
<path d="M179.268 205.062C175.466 205.062 172.246 202.062 170.5 197.003C169.256 193.324 169.076 188.784 170.922 187.564C171.477 187.161 172.131 186.912 172.816 186.846C173.5 186.779 174.19 186.896 174.814 187.184C175.534 187.536 176.164 188.048 176.654 188.681C177.145 189.314 177.483 190.05 177.642 190.834L176.87 190.924C176.723 190.278 176.432 189.673 176.018 189.154C175.605 188.635 175.08 188.215 174.483 187.924C173.98 187.693 173.423 187.601 172.872 187.659C172.321 187.717 171.796 187.923 171.353 188.254C170.049 189.114 169.989 193.104 171.233 196.803C171.854 198.653 174.302 204.652 179.699 204.312L179.749 205.082L179.268 205.062Z" fill="#10377E"/>
<path d="M219.974 190.874C220.195 189.064 222.893 185.795 226.083 187.874C229.273 189.954 226.203 205.212 217.506 204.642" fill="#C3E9F3"/>
<path d="M217.958 205.062H217.476V204.292C222.853 204.632 225.32 198.633 225.942 196.783C227.186 193.084 227.126 189.094 225.822 188.234C225.379 187.903 224.854 187.697 224.303 187.639C223.752 187.581 223.195 187.673 222.692 187.904C222.095 188.195 221.57 188.615 221.157 189.134C220.743 189.653 220.452 190.258 220.305 190.904L219.532 190.814C219.692 190.03 220.03 189.294 220.521 188.661C221.011 188.028 221.641 187.516 222.361 187.165C222.985 186.876 223.675 186.759 224.359 186.826C225.044 186.892 225.698 187.141 226.253 187.544C228.099 188.764 227.919 193.304 226.675 196.983C225.01 202.142 221.759 205.062 217.958 205.062Z" fill="#10377E"/>
<path d="M220.516 180.235C220.698 186.226 220.022 192.212 218.51 198.013C217.677 200.943 216.694 209.931 215.561 212.261C212.722 218.14 205.409 224.669 198.758 224.669C192.108 224.669 185.577 218.14 181.926 212.271C180.562 210.021 179.468 201.013 178.616 198.023C176.61 191.084 176.961 184.725 176.961 180.235C176.961 166.617 186.129 157.549 198.728 157.549C211.327 157.549 220.516 166.617 220.516 180.235Z" fill="#C3E9F3"/>
<path d="M198.738 225.059C191.776 225.059 185.156 218.28 181.595 212.471C180.682 210.971 179.92 206.782 179.247 203.092C178.886 201.093 178.545 199.193 178.244 198.093C176.489 191.924 176.539 186.095 176.569 181.875C176.569 181.295 176.569 180.735 176.569 180.205C176.569 166.627 185.677 157.139 198.728 157.139C211.779 157.139 220.907 166.627 220.907 180.205C221.097 186.23 220.422 192.25 218.901 198.083C218.57 199.253 218.209 201.433 217.827 203.732C217.236 207.292 216.634 210.961 215.932 212.401C212.952 218.51 205.559 225.059 198.738 225.059ZM198.738 157.939C186.149 157.939 177.352 167.107 177.352 180.235C177.352 180.775 177.352 181.325 177.352 181.905C177.106 187.29 177.663 192.682 179.007 197.903C179.318 199.003 179.669 200.903 180.01 202.902C180.642 206.352 181.424 210.641 182.257 212.011C185.978 218.1 192.519 224.24 198.738 224.24C204.957 224.24 212.35 217.93 215.199 212.051C215.841 210.711 216.473 206.922 217.025 203.592C217.406 201.263 217.767 199.063 218.108 197.853C219.622 192.09 220.298 186.14 220.115 180.185C220.135 167.147 211.327 157.939 198.728 157.939H198.738Z" fill="#10377E"/>
<path d="M216.674 177.366C216.674 177.366 194.164 179.476 183.892 172.097C183.892 172.097 180.883 184.665 177.241 190.874C177.241 190.874 172.737 171.807 179.298 169.277C179.298 169.277 178.756 158.688 190.462 155.979C190.462 155.979 189.861 158.618 191.827 158.538C193.793 158.458 209.381 149.54 220.506 156.539C231.63 163.538 223.094 173.776 223.094 173.776C223.094 173.776 223.395 184.595 220.716 189.164L219.713 192.264C219.713 192.264 216.935 182.435 216.674 177.366Z" fill="#003681"/>
<path d="M219.754 192.514C219.693 192.513 219.635 192.493 219.586 192.457C219.538 192.421 219.502 192.371 219.483 192.314C219.483 192.214 216.764 182.795 216.473 177.676C213.815 177.876 193.873 179.186 184.143 172.567C183.591 174.776 180.823 185.475 177.562 191.024C177.532 191.072 177.489 191.111 177.437 191.136C177.386 191.161 177.328 191.171 177.272 191.164C177.216 191.154 177.164 191.127 177.123 191.088C177.082 191.049 177.054 190.999 177.041 190.944C176.85 190.164 172.637 171.947 179.047 169.087C179.047 167.577 179.539 158.228 190.442 155.699C190.489 155.69 190.537 155.692 190.583 155.706C190.629 155.72 190.67 155.745 190.704 155.778C190.737 155.812 190.762 155.853 190.776 155.899C190.79 155.944 190.793 155.992 190.784 156.039C190.614 156.68 190.692 157.362 191.004 157.949C191.111 158.062 191.243 158.149 191.389 158.203C191.535 158.257 191.692 158.276 191.847 158.258C192.72 158.039 193.573 157.745 194.395 157.379C199.561 155.379 211.658 150.579 220.697 156.269C224.027 158.358 225.953 160.948 226.434 163.968C227.207 168.857 223.957 173.176 223.425 173.846C223.425 175.046 223.586 184.845 220.997 189.274L220.055 192.274C220.042 192.344 220.005 192.406 219.95 192.451C219.894 192.495 219.825 192.517 219.754 192.514ZM216.674 177.076C216.744 177.078 216.81 177.103 216.865 177.146C216.893 177.171 216.916 177.202 216.931 177.236C216.947 177.271 216.955 177.308 216.955 177.346C217.166 181.425 219.061 188.664 219.754 191.224L220.446 189.054C223.074 184.545 222.813 173.866 222.813 173.756C222.81 173.722 222.814 173.688 222.824 173.655C222.835 173.623 222.851 173.593 222.873 173.566C222.873 173.566 226.615 169.007 225.823 164.058C225.371 161.208 223.535 158.748 220.356 156.749C211.558 151.209 200.082 155.749 194.565 157.908C193.691 158.311 192.777 158.619 191.837 158.828C191.592 158.854 191.344 158.82 191.116 158.729C190.887 158.639 190.683 158.494 190.523 158.308C190.149 157.732 190.002 157.037 190.111 156.359C179.218 159.148 179.559 168.847 179.559 169.257C179.562 169.318 179.545 169.378 179.511 169.429C179.476 169.479 179.426 169.517 179.368 169.537C173.831 171.677 176.599 186.595 177.362 190.084C180.782 183.795 183.581 172.147 183.611 172.027C183.622 171.981 183.644 171.939 183.676 171.904C183.707 171.869 183.747 171.842 183.792 171.827C183.834 171.807 183.88 171.797 183.927 171.797C183.974 171.797 184.02 171.807 184.063 171.827C194.094 179.066 216.423 177.076 216.644 177.046L216.674 177.076Z" fill="#003681"/>
</g>
<path d="M395.931 290.031H332.735C331.569 290.031 330.452 289.569 329.628 288.748C328.804 287.927 328.341 286.813 328.341 285.651V161.668C328.341 160.507 328.804 159.393 329.628 158.571C330.452 157.75 331.569 157.289 332.735 157.289H395.931C396.508 157.287 397.08 157.4 397.614 157.619C398.148 157.839 398.633 158.161 399.041 158.568C399.449 158.975 399.773 159.459 399.993 159.991C400.213 160.522 400.326 161.093 400.325 161.668V285.651C400.322 286.812 399.858 287.924 399.035 288.745C398.212 289.566 397.096 290.028 395.931 290.031Z" fill="#BCECF7"/>
<path d="M395.932 290.76H332.735C331.375 290.76 330.072 290.222 329.11 289.264C328.149 288.306 327.609 287.006 327.609 285.651V161.668C327.609 160.313 328.149 159.013 329.11 158.055C330.072 157.097 331.375 156.559 332.735 156.559H395.932C397.291 156.559 398.595 157.097 399.556 158.055C400.517 159.013 401.057 160.313 401.057 161.668V285.651C401.057 287.006 400.517 288.306 399.556 289.264C398.595 290.222 397.291 290.76 395.932 290.76ZM332.735 157.988C331.765 157.991 330.835 158.376 330.149 159.06C329.463 159.744 329.076 160.671 329.074 161.638V285.621C329.076 286.588 329.463 287.515 330.149 288.199C330.835 288.883 331.765 289.268 332.735 289.271H395.932C396.903 289.271 397.836 288.886 398.524 288.202C399.212 287.518 399.6 286.59 399.603 285.621V161.638C399.603 160.67 399.217 159.742 398.531 159.057C397.844 158.373 396.913 157.988 395.942 157.988H332.735Z" fill="#0050E5"/>
<path d="M395.932 290.88H332.735C331.344 290.88 330.009 290.329 329.025 289.349C328.042 288.368 327.489 287.038 327.489 285.651V161.668C327.489 160.281 328.042 158.951 329.025 157.97C330.009 156.99 331.344 156.439 332.735 156.439H395.932C397.323 156.439 398.657 156.99 399.641 157.97C400.625 158.951 401.178 160.281 401.178 161.668V285.651C401.175 287.037 400.622 288.366 399.638 289.346C398.655 290.326 397.322 290.878 395.932 290.88ZM332.725 158.148C331.786 158.148 330.885 158.52 330.221 159.182C329.557 159.844 329.184 160.742 329.184 161.678V285.661C329.184 286.597 329.557 287.495 330.221 288.157C330.885 288.819 331.786 289.191 332.725 289.191H395.922C396.862 289.191 397.763 288.819 398.429 288.157C399.095 287.496 399.47 286.598 399.473 285.661V161.678C399.47 160.741 399.095 159.843 398.429 159.182C397.763 158.52 396.862 158.148 395.922 158.148H332.725Z" fill="#0050E4"/>
<path d="M396.192 169.687H332.464V280.752H396.192V169.687Z" fill="white"/>
<path d="M369.619 165.197H357.762C357.645 165.197 357.53 165.174 357.422 165.13C357.314 165.085 357.217 165.019 357.134 164.936C357.052 164.853 356.988 164.755 356.944 164.647C356.9 164.539 356.878 164.424 356.879 164.308C356.879 164.074 356.972 163.85 357.138 163.685C357.304 163.52 357.528 163.428 357.762 163.428H369.619C369.854 163.428 370.08 163.52 370.247 163.685C370.414 163.85 370.509 164.073 370.512 164.308C370.509 164.543 370.414 164.768 370.248 164.934C370.081 165.1 369.855 165.195 369.619 165.197Z" fill="#1B59D0"/>
<path d="M353.509 165.807C354.346 165.807 355.024 165.131 355.024 164.298C355.024 163.464 354.346 162.788 353.509 162.788C352.673 162.788 351.995 163.464 351.995 164.298C351.995 165.131 352.673 165.807 353.509 165.807Z" fill="#1B59D0"/>
<path d="M364.233 247.646C377.136 247.646 387.596 237.22 387.596 224.359C387.596 211.498 377.136 201.073 364.233 201.073C351.33 201.073 340.87 211.498 340.87 224.359C340.87 237.22 351.33 247.646 364.233 247.646Z" fill="white"/>
<path d="M364.233 248.376C359.471 248.376 354.817 246.969 350.857 244.332C346.898 241.695 343.813 237.947 341.99 233.563C340.168 229.178 339.692 224.353 340.62 219.698C341.549 215.043 343.842 210.767 347.209 207.411C350.576 204.055 354.866 201.77 359.536 200.844C364.206 199.918 369.047 200.393 373.446 202.209C377.845 204.026 381.605 207.101 384.25 211.048C386.896 214.994 388.308 219.633 388.308 224.379C388.308 230.744 385.771 236.847 381.256 241.348C376.741 245.848 370.618 248.376 364.233 248.376ZM364.233 201.813C359.756 201.813 355.381 203.136 351.659 205.615C347.937 208.094 345.037 211.617 343.324 215.74C341.611 219.862 341.164 224.398 342.038 228.774C342.912 233.15 345.068 237.169 348.234 240.323C351.4 243.477 355.433 245.625 359.824 246.494C364.214 247.363 368.765 246.915 372.9 245.206C377.035 243.498 380.569 240.605 383.054 236.894C385.54 233.183 386.865 228.821 386.863 224.359C386.855 218.38 384.468 212.649 380.225 208.422C375.983 204.195 370.231 201.818 364.233 201.813Z" fill="#FF5912"/>
<path d="M354.513 213.141L353.971 212.291C359.307 208.912 367.954 208.922 373.241 212.291L372.699 213.131C367.704 209.911 359.548 209.911 354.513 213.141Z" fill="#FFAA11"/>
<path d="M350.861 220.8L350.009 220.26C351.534 218.047 353.577 216.238 355.961 214.987C358.344 213.737 360.998 213.084 363.691 213.084C366.385 213.084 369.038 213.737 371.422 214.987C373.805 216.238 375.848 218.047 377.374 220.26L376.511 220.78C375.054 218.708 373.112 217.021 370.854 215.864C368.596 214.707 366.089 214.116 363.551 214.141C361.059 214.174 358.61 214.795 356.404 215.953C354.199 217.11 352.3 218.771 350.861 220.8Z" fill="#F6821F"/>
<path d="M368.145 239.007C365.866 238.485 363.781 237.335 362.126 235.688C361.186 234.824 360.43 233.78 359.903 232.619C359.375 231.458 359.088 230.203 359.057 228.929C359.057 225.589 361.223 223.93 363.229 223.82C363.761 223.789 364.293 223.863 364.795 224.039C365.297 224.215 365.758 224.489 366.153 224.844C366.548 225.199 366.868 225.63 367.095 226.109C367.321 226.589 367.45 227.109 367.473 227.639C367.492 228.19 367.63 228.731 367.877 229.225C368.125 229.718 368.476 230.153 368.907 230.499C369.791 231.013 370.837 231.178 371.836 230.959H371.917C372.027 230.959 374.515 230.669 374.284 227.029C374.078 224.379 372.846 221.912 370.849 220.15C368.851 218.389 366.245 217.471 363.581 217.59C361.775 217.534 359.984 217.934 358.375 218.754C356.767 219.574 355.393 220.787 354.382 222.28C353.287 223.979 352.623 225.918 352.448 227.93C352.273 229.942 352.593 231.967 353.379 233.828L352.436 234.208C351.598 232.19 351.264 229.999 351.463 227.823C351.662 225.648 352.389 223.554 353.579 221.72C354.679 220.088 356.176 218.76 357.931 217.862C359.685 216.963 361.639 216.522 363.611 216.581C366.534 216.458 369.391 217.474 371.577 219.412C373.764 221.351 375.108 224.061 375.327 226.969C375.588 231.299 372.528 231.898 372.087 231.968C370.817 232.253 369.486 232.034 368.375 231.359C367.818 230.938 367.361 230.4 367.037 229.783C366.713 229.166 366.529 228.485 366.5 227.789C366.491 227.385 366.401 226.988 366.234 226.62C366.067 226.252 365.828 225.921 365.53 225.648C365.232 225.374 364.882 225.163 364.501 225.028C364.119 224.892 363.714 224.835 363.31 224.859C361.715 224.949 360.1 226.249 360.1 228.959C360.1 233.798 364.905 237.348 368.375 238.048L368.145 239.007Z" fill="#FF5912"/>
<path d="M360.12 238.318C358.154 236.96 356.669 235.016 355.878 232.766C355.087 230.516 355.03 228.074 355.716 225.789C356.82 222.23 359.608 220.03 362.989 220.03C369.198 220.03 371.405 224.709 371.405 228.709H370.402C370.402 227.429 370.041 221.03 362.989 221.03C359.98 221.03 357.662 222.92 356.679 226.079C356.053 228.16 356.104 230.384 356.825 232.434C357.546 234.483 358.9 236.253 360.692 237.488L360.12 238.318Z" fill="#F6821F"/>
<path d="M371.847 236.028C369.367 236.102 366.952 235.23 365.096 233.588C364.32 232.828 363.712 231.916 363.309 230.909C362.907 229.902 362.719 228.822 362.758 227.739H363.762C363.718 228.685 363.874 229.629 364.219 230.511C364.565 231.393 365.092 232.193 365.768 232.858C366.667 233.637 367.713 234.228 368.845 234.597C369.977 234.966 371.171 235.106 372.358 235.008V236.008L371.847 236.028Z" fill="#FFAA11"/>
<path d="M528.233 185.145L507.97 176.146C511.304 168.849 513.535 161.099 514.59 153.149L532.125 160.978C532.979 169.235 531.636 177.57 528.233 185.145Z" fill="#DDF5FA"/>
<path d="M507.97 176.146L528.233 185.145C524.835 192.749 519.477 199.321 512.704 204.192L495.16 196.373C496.554 194.784 497.918 193.084 499.232 191.284C502.656 186.549 505.584 181.477 507.97 176.146Z" fill="white"/>
<path d="M532.135 160.968L514.6 153.149C516.396 138.431 512.815 126.393 504.248 122.573C511.868 125.971 518.457 131.307 523.352 138.047C528.247 144.787 531.276 152.692 532.135 160.968Z" fill="white"/>
<path d="M495.16 196.413L512.704 204.232C505.952 209.11 498.03 212.132 489.735 212.994C481.44 213.856 473.064 212.527 465.447 209.142C473.964 212.921 485.359 207.562 495.16 196.413Z" fill="#DDF5FA"/>
<path d="M507.97 176.146L484.818 165.817L494.538 144.2L514.6 153.149C513.542 161.099 511.308 168.849 507.97 176.146Z" fill="white"/>
<path d="M484.818 165.827L507.97 176.146C505.586 181.487 502.658 186.57 499.232 191.314C497.918 193.114 496.554 194.814 495.16 196.403L475.097 187.405L484.818 165.827Z" fill="#DDF5FA"/>
<path d="M514.6 153.149L494.538 144.21L504.248 122.573C512.805 126.383 516.386 138.421 514.6 153.149Z" fill="#DDF5FA"/>
<path d="M475.107 187.465L495.17 196.463C485.359 207.562 473.964 212.921 465.447 209.142L475.107 187.465Z" fill="white"/>
<path d="M475.108 187.465L465.448 209.142C456.881 205.322 453.3 193.284 455.106 178.566L475.108 187.465Z" fill="#DDF5FA"/>
<path d="M484.818 165.827L475.107 187.465L455.045 178.526C456.098 170.577 458.325 162.827 461.656 155.529L484.818 165.827Z" fill="white"/>
<path d="M494.538 144.2L484.828 165.827L461.676 155.509C464.921 148.166 469.233 141.341 474.475 135.252L494.538 144.2Z" fill="#DDF5FA"/>
<path d="M504.238 122.563L494.538 144.2L474.475 135.202C484.276 124.153 495.661 118.744 504.238 122.563Z" fill="white"/>
<path d="M504.238 122.563C495.661 118.744 484.276 124.103 474.465 135.252L456.931 127.433C463.691 122.549 471.624 119.528 479.929 118.673C488.234 117.818 496.619 119.16 504.238 122.563Z" fill="#DDF5FA"/>
<path d="M455.055 178.526C453.25 193.244 456.831 205.282 465.397 209.102C457.774 205.706 451.182 200.368 446.284 193.626C441.387 186.885 438.358 178.976 437.501 170.697L455.055 178.526Z" fill="white"/>
<path d="M455.055 178.526L437.5 170.697C436.64 162.419 437.99 154.061 441.413 146.47L461.666 155.469C458.33 162.786 456.102 170.556 455.055 178.526Z" fill="#DDF5FA"/>
<path d="M456.931 127.433L474.476 135.252C469.234 141.341 464.921 148.166 461.676 155.509L441.423 146.51C444.811 138.897 450.162 132.314 456.931 127.433Z" fill="white"/>
<path d="M484.777 213.941C473.315 213.909 462.239 209.801 453.543 202.357C444.847 194.914 439.1 184.621 437.336 173.332C435.573 162.042 437.908 150.495 443.922 140.768C449.936 131.041 459.234 123.772 470.144 120.267C481.055 116.763 492.862 117.253 503.442 121.65C514.022 126.047 522.682 134.062 527.863 144.254C533.044 154.446 534.408 166.146 531.708 177.25C529.009 188.355 522.423 198.135 513.136 204.832L512.283 203.642C520.639 197.618 526.767 189.013 529.717 179.163C532.666 169.313 532.272 158.768 528.596 149.163C524.919 139.559 518.166 131.433 509.384 126.044C500.601 120.656 490.28 118.307 480.021 119.361C469.763 120.416 460.14 124.816 452.646 131.877C445.152 138.939 440.205 148.269 438.572 158.419C436.94 168.569 438.714 178.972 443.618 188.014C448.523 197.057 456.284 204.234 465.698 208.432C473.201 211.78 481.457 213.1 489.634 212.259C497.812 211.418 505.623 208.446 512.283 203.642L513.146 204.822C504.887 210.76 494.96 213.951 484.777 213.941Z" fill="#0050E4"/>
<path d="M471.255 211.031C469.135 211.051 467.035 210.618 465.096 209.762C456.55 205.952 452.427 193.954 454.323 178.436C456.562 162.321 463.361 147.175 473.924 134.772C484.266 123.023 495.992 118.084 504.539 121.893C513.085 125.703 517.208 137.711 515.312 153.229C514.247 161.256 511.999 169.083 508.642 176.456C506.239 181.844 503.284 186.971 499.824 191.754C498.51 193.544 497.126 195.273 495.711 196.893C487.686 206.022 478.819 211.031 471.255 211.031ZM498.34 122.043C491.217 122.043 482.751 126.893 474.997 135.692C464.634 147.879 457.961 162.752 455.757 178.576C453.941 193.424 457.763 204.852 465.678 208.392C473.593 211.931 484.737 207.142 494.588 195.893C495.982 194.314 497.336 192.614 498.6 190.894C502.005 186.209 504.91 181.183 507.267 175.896C510.571 168.662 512.782 160.979 513.828 153.099C515.643 138.231 511.821 126.803 503.907 123.273C502.164 122.486 500.273 122.08 498.36 122.083L498.34 122.043Z" fill="#0050E4"/>
<path d="M441.69 145.788L441.092 147.12L527.917 185.833L528.515 184.5L441.69 145.788Z" fill="#0050E4"/>
<path d="M503.575 122.277L464.751 208.827L466.088 209.423L504.912 122.873L503.575 122.277Z" fill="#0050E4"/>
<path d="M457.204 126.746L456.606 128.079L531.811 161.611L532.409 160.278L457.204 126.746Z" fill="#0050E4"/>
<path d="M512.424 204.902L437.21 171.367L437.802 170.037L513.005 203.572L512.424 204.902Z" fill="#0050E4"/>
<path d="M467.223 252.736H474.475V223.38H467.223V252.736Z" fill="#E2F5FA"/>
<path d="M475.208 253.466H466.5V222.65H475.208V253.466ZM467.965 252.006H473.743V224.14H467.965V252.006Z" fill="#0050E5"/>
<path d="M504.92 114.155L461.044 215.141C461.711 215.516 462.401 215.85 463.11 216.141C476.538 221.787 491.66 221.921 505.187 216.512C518.714 211.104 529.551 200.591 535.342 187.26C541.133 173.929 541.409 158.858 536.11 145.325C530.811 131.792 520.366 120.891 507.047 114.994C506.355 114.68 505.644 114.406 504.92 114.175L507.538 108.175C508.27 108.485 508.953 108.685 509.675 108.995C524.5 115.648 536.103 127.847 541.978 142.958C547.852 158.068 547.526 174.876 541.07 189.748C534.613 204.621 522.545 216.364 507.473 222.44C492.401 228.516 475.536 228.437 460.522 222.22C459.812 221.931 459.122 221.597 458.456 221.22L504.92 114.155Z" fill="#E2F5FA"/>
<path d="M484.998 227.929C476.467 227.929 468.026 226.18 460.201 222.79C459.467 222.497 458.751 222.163 458.055 221.79L457.493 221.46L460.703 214.071L461.405 214.481C462.056 214.849 462.726 215.182 463.411 215.481C469.999 218.399 477.101 219.987 484.308 220.153C491.515 220.319 498.684 219.059 505.4 216.448C512.116 213.836 518.246 209.924 523.436 204.936C528.625 199.949 532.772 193.987 535.637 187.393C538.501 180.799 540.026 173.704 540.123 166.52C540.221 159.335 538.889 152.202 536.204 145.533C533.52 138.864 529.536 132.792 524.483 127.667C519.43 122.542 513.409 118.466 506.766 115.674C506.096 115.373 505.409 115.109 504.71 114.884L503.927 114.644L507.167 107.185L507.839 107.475C508.191 107.625 508.532 107.745 508.843 107.875C509.154 108.005 509.565 108.135 509.946 108.295C523.17 114.003 534.014 124.081 540.651 136.83C547.287 149.58 549.309 164.221 546.376 178.283C543.443 192.346 535.734 204.97 524.549 214.027C513.365 223.083 499.389 228.018 484.978 227.999L484.998 227.929ZM459.359 220.81C459.81 221.03 460.262 221.22 460.753 221.44C468.168 224.918 476.209 226.877 484.398 227.199C492.587 227.521 500.757 226.2 508.424 223.314C516.091 220.429 523.099 216.038 529.031 210.401C534.963 204.765 539.698 197.998 542.957 190.503C546.215 183.007 547.929 174.936 547.998 166.768C548.067 158.599 546.489 150.5 543.358 142.951C540.227 135.402 535.606 128.557 529.77 122.822C523.934 117.087 517.002 112.579 509.384 109.565C509.033 109.415 508.692 109.295 508.381 109.175L507.96 109.015L505.954 113.675C506.445 113.865 506.907 114.064 507.388 114.274C521.021 120.159 531.751 131.2 537.217 144.97C542.683 158.74 542.437 174.11 536.534 187.699C530.63 201.289 519.553 211.984 505.738 217.432C491.923 222.88 476.503 222.635 462.87 216.751C462.388 216.541 461.927 216.341 461.455 216.111L459.359 220.81Z" fill="#0050E5"/>
<path d="M442.315 253.256V260.485H499.393V253.256H442.315Z" fill="#E2F5FA"/>
<path d="M500.125 261.215H441.583V252.536H500.125V261.215ZM443.048 259.755H498.661V253.995H443.048V259.755Z" fill="#0050E5"/>
<path d="M451.835 246.336V253.566H489.863V246.336H451.835Z" fill="#E2F5FA"/>
<path d="M490.595 254.305H451.103V245.617H490.595V254.305ZM452.567 252.846H489.131V247.076H452.567V252.846Z" fill="#0050E5"/>
</svg>
