<svg width="519" height="307" viewBox="0 0 519 307" fill="none" xmlns="http://www.w3.org/2000/svg">
<path d="M397.552 230.16V76.7201L264.599 0L131.645 76.7201L131.645 230.16L264.599 306.88L397.552 230.16Z" fill="#003682"/>
<mask id="mask0_1824_2128" style="mask-type:alpha" maskUnits="userSpaceOnUse" x="47" y="28" width="434" height="248">
<path d="M263.367 275.399L47.7949 150.819L264.668 29.0547L479.845 150.819L263.367 275.399Z" fill="white" stroke="#0055DC" stroke-linejoin="round" stroke-dasharray="6 4"/>
</mask>
<g mask="url(#mask0_1824_2128)">
<path d="M266.397 174.668L268.77 326.924L267.637 326.942L265.264 174.687L266.397 174.668ZM249.61 326.101L250.738 326.203L264.306 174.555L263.177 174.453L249.61 326.101ZM261.126 174.002L231.768 323.381L232.879 323.6L262.236 174.221L261.126 174.002ZM259.132 173.34L214.306 318.814L215.388 319.148L260.214 173.674L259.132 173.34ZM257.219 172.474L197.414 312.448L198.456 312.893L258.261 172.919L257.219 172.474ZM255.405 171.414L181.28 304.354L182.269 304.904L256.395 171.963L255.405 171.414ZM253.714 170.168L166.077 294.619L167.003 295.271L254.641 170.82L253.714 170.168ZM252.162 168.753L151.973 283.35L152.825 284.095L253.013 169.498L252.162 168.753ZM250.763 167.185L139.123 270.674L139.893 271.505L251.533 168.015L250.763 167.185ZM249.538 165.479L127.669 256.724L128.349 257.631L250.218 166.386L249.538 165.479ZM248.499 163.653L117.736 241.658L118.316 242.631L249.08 164.628L248.499 163.653ZM247.655 161.731L109.43 225.638L109.906 226.666L248.13 162.76L247.655 161.731ZM247.018 159.73L102.845 208.841L103.21 209.913L247.382 160.803L247.018 159.73ZM246.592 157.678L98.0525 191.45L98.3051 192.554L246.845 158.781L246.592 157.678ZM246.383 155.589L95.1027 173.658L95.2375 174.782L246.517 156.712L246.383 155.589ZM246.395 153.49L94.0322 155.655L94.0481 156.788L246.411 154.623L246.395 153.49ZM246.625 151.405L94.8501 137.644L94.7482 138.772L246.523 152.532L246.625 151.405ZM247.074 149.357L97.5473 119.819L97.3287 120.929L246.855 150.467L247.074 149.357ZM247.733 147.364L102.094 102.374L101.76 103.456L247.397 148.446L247.733 147.364ZM248.596 145.454L108.442 85.5041L107.997 86.5464L248.152 146.496L248.596 145.454ZM249.655 143.643L116.52 69.3901L115.97 70.3791L249.105 144.632L249.655 143.643ZM250.908 141.46L144.497 66.5364L143.844 67.4631L250.257 142.387L250.908 141.46ZM252.319 139.912L146.576 47.5063L145.83 48.3605L251.575 140.766L252.319 139.912ZM253.057 139.289L253.886 138.518L185.188 64.4632L184.359 65.2335L253.057 139.289ZM255.591 137.296L165.607 17.238L164.699 17.9178L254.685 137.977L255.591 137.296ZM257.413 136.258L192.758 28.0253L191.785 28.6076L256.438 136.84L257.413 136.258ZM259.333 135.418L212.306 33.8891L211.277 34.3649L258.304 135.893L259.333 135.418ZM260.257 135.148L261.33 134.783L230.784 44.6079L229.711 44.9727L260.257 135.148ZM263.383 134.358L227.01 -25.0433L225.905 -24.7906L262.279 134.611L263.383 134.358ZM249.416 0.60964L248.292 0.744453L264.345 134.288L265.469 134.153L249.416 0.60964ZM267.566 134.166L265.375 23.0559L264.242 23.074L266.433 134.184L267.566 134.166ZM283.186 165.705L416.322 239.957L416.872 238.968L283.736 164.716L283.186 165.705ZM281.943 167.394L406.601 255.137L407.254 254.21L282.596 166.468L281.943 167.394ZM280.529 168.945L395.345 269.215L396.09 268.361L281.275 168.091L280.529 168.945ZM278.962 170.336L382.677 282.037L383.506 281.267L279.791 169.566L278.962 170.336ZM277.256 171.56L368.732 293.464L369.639 292.785L278.163 170.88L277.256 171.56ZM275.433 172.598L353.668 303.37L354.639 302.788L276.404 172.015L275.433 172.598ZM273.509 173.438L337.648 311.65L338.674 311.172L274.536 172.96L273.509 173.438ZM271.51 174.073L320.849 318.207L321.919 317.84L272.581 173.705L271.51 174.073ZM269.453 174.495L303.451 322.972L304.556 322.72L270.557 174.242L269.453 174.495ZM267.364 174.7L285.651 325.895L286.774 325.76L268.488 174.565L267.364 174.7ZM281.048 7.79549L279.92 7.69353L268.522 134.296L269.65 134.398L281.048 7.79549ZM271.697 134.846L304.141 -29.8489L303.03 -30.0676L270.586 134.627L271.697 134.846ZM272.606 135.172L273.687 135.506L304.703 34.9619L303.621 34.6277L272.606 135.172ZM275.598 136.37L327.712 14.4466L326.67 14.0014L274.556 135.925L275.598 136.37ZM277.406 137.43L351.503 4.54413L350.514 3.99355L276.417 136.879L277.406 137.43ZM278.553 138.122L279.479 138.774L332.094 64.279L331.167 63.6264L278.553 138.122ZM342.171 70.2329L341.32 69.4875L280.177 139.44L281.029 140.186L342.171 70.2329ZM342.007 86.5011L341.237 85.6718L281.651 140.923L282.421 141.753L342.007 86.5011ZM283.646 143.457L368.819 79.6596L368.14 78.7522L282.966 142.549L283.646 143.457ZM284.683 145.279L415.267 67.3407L414.687 66.3676L284.103 144.306L284.683 145.279ZM285.526 147.2L423.557 83.3392L423.081 82.3106L285.05 146.171L285.526 147.2ZM286.162 149.196L430.127 100.114L429.762 99.0409L285.797 148.123L286.162 149.196ZM286.586 151.248L434.91 117.481L434.657 116.376L286.335 150.144L286.586 151.248ZM286.794 153.335L437.849 135.252L437.714 134.128L286.659 152.211L286.794 153.335ZM286.781 155.429L438.914 153.232L438.898 152.099L286.765 154.296L286.781 155.429ZM286.551 157.512L438.094 171.223L438.196 170.095L286.653 156.384L286.551 157.512ZM286.104 159.559L435.398 189.027L435.617 187.916L286.322 158.449L286.104 159.559ZM285.445 161.549L430.853 206.45L431.187 205.368L285.779 160.467L285.445 161.549ZM284.583 163.457L424.511 223.301L424.956 222.258L285.028 162.415L284.583 163.457Z" fill="#FBAD41"/>
</g>
<path d="M259.739 153.25C259.739 153.25 202.79 263.749 121.983 263.749C64.7745 263.749 11 214.277 11 153.25C11 92.2227 64.7745 42.7505 121.983 42.7505C214.892 42.7505 259.739 153.25 259.739 153.25Z" stroke="#242628" stroke-width="21"/>
<path d="M259.742 153.248C259.742 153.248 316.691 42.7483 397.497 42.7483C454.706 42.7483 508.48 92.2205 508.48 153.248C508.48 214.275 454.706 263.747 397.497 263.747C304.589 263.747 259.742 153.248 259.742 153.248Z" stroke="#242628" stroke-width="21"/>
<path d="M259.739 153.25C259.739 153.25 202.79 263.749 121.983 263.749C64.7745 263.749 11 214.277 11 153.25C11 92.2227 64.7745 42.7505 121.983 42.7505C214.892 42.7505 259.739 153.25 259.739 153.25Z" stroke="#242628" stroke-width="8"/>
<path d="M259.742 153.248C259.742 153.248 316.691 42.7483 397.497 42.7483C454.706 42.7483 508.48 92.2205 508.48 153.248C508.48 214.275 454.706 263.747 397.497 263.747C304.589 263.747 259.742 153.248 259.742 153.248Z" stroke="#F6821F" stroke-width="8"/>
<path d="M259.742 153.248C259.742 153.248 316.691 42.7483 397.497 42.7483C454.706 42.7483 508.48 92.2205 508.48 153.248C508.48 214.275 454.706 263.747 397.497 263.747C304.589 263.747 259.742 153.248 259.742 153.248Z" stroke="#242628" stroke-width="8"/>
<path d="M259.739 153.351C259.739 153.351 202.79 263.85 121.983 263.85C64.7745 263.85 11 214.378 11 153.351C11 92.3238 64.7745 42.8516 121.983 42.8516C214.892 42.8516 259.739 153.351 259.739 153.351Z" stroke="url(#paint0_linear_1824_2128)" stroke-width="5"/>
<path d="M259.742 153.349C259.742 153.349 316.691 42.8496 397.497 42.8496C454.706 42.8496 508.48 92.3218 508.48 153.349C508.48 214.376 454.706 263.848 397.497 263.848C304.589 263.848 259.742 153.349 259.742 153.349Z" stroke="#0055DC" stroke-width="5" stroke-dasharray="10 10"/>
<path d="M259.742 153.349C259.742 153.349 316.691 42.8496 397.497 42.8496C454.706 42.8496 508.48 92.3218 508.48 153.349C508.48 214.376 454.706 263.848 397.497 263.848C304.589 263.848 259.742 153.349 259.742 153.349Z" stroke="url(#paint1_linear_1824_2128)" stroke-width="5" stroke-dasharray="10 10"/>
<path d="M259.739 153.246C259.739 153.246 214.892 42.7469 121.984 42.7469C64.7749 42.7469 11.0005 92.2192 11.0005 153.246" stroke="#242628" stroke-width="9"/>
<path d="M259.74 153.248C259.74 153.248 304.587 263.747 397.495 263.747" stroke="#242628" stroke-width="9"/>
<path d="M259.739 153.246C259.739 153.246 214.892 42.7469 121.984 42.7469C64.7749 42.7469 11.0005 92.2192 11.0005 153.246" stroke="#3790E0" stroke-width="5"/>
<path d="M259.74 153.248C259.74 153.248 304.587 263.747 397.495 263.747" stroke="#0055DC" stroke-width="5"/>
<circle cx="262.535" cy="153.426" r="62.1039" fill="white"/>
<path fill-rule="evenodd" clip-rule="evenodd" d="M362.32 82.5688H163.331C160.688 82.5772 158.155 83.6248 156.279 85.4853C154.402 87.3458 153.332 89.8698 153.301 92.5122V223.397H372.348V92.5147C372.32 89.8713 371.252 87.3453 369.376 85.4838C367.499 83.6222 364.964 82.575 362.32 82.5688Z" fill="#C5EBF5"/>
<path d="M363.081 98.2159H162.057V215.366H363.081V98.2159Z" fill="white"/>
<path fill-rule="evenodd" clip-rule="evenodd" d="M380.998 233.493H144.484C132.19 233.493 123.91 231.608 123.91 229.814V224.36C123.942 224.072 124.086 223.809 124.311 223.627C124.536 223.445 124.823 223.358 125.111 223.386H400.37C400.658 223.358 400.945 223.445 401.171 223.627C401.396 223.809 401.54 224.072 401.573 224.36V230.028C401.573 231.449 395.157 233.493 380.998 233.493Z" fill="#C5EBF5"/>
<path fill-rule="evenodd" clip-rule="evenodd" d="M401.573 230.028C401.573 231.446 395.157 233.492 380.998 233.492H144.484C132.189 233.492 123.909 231.607 123.909 229.813L401.573 230.028Z" fill="white"/>
<path fill-rule="evenodd" clip-rule="evenodd" d="M292.9 223.788V225.027C292.9 225.91 291.162 226.176 289.846 226.176H235.857C234.473 226.176 232.722 225.91 232.722 225.027V223.788" fill="#0055DC"/>
<path d="M380.996 234.129H144.486C133.951 234.129 123.286 232.651 123.286 229.825V224.371C123.319 223.917 123.529 223.495 123.871 223.196C124.213 222.896 124.66 222.744 125.113 222.772H400.37C400.824 222.744 401.271 222.896 401.613 223.195C401.956 223.495 402.166 223.917 402.199 224.371V230.039C402.193 232.486 393.673 234.129 380.996 234.129ZM125.112 224.022C124.782 224.022 124.536 224.206 124.536 224.371V229.823C124.703 230.688 130.884 232.876 144.485 232.876H380.996C395.404 232.876 400.666 230.77 400.953 230L400.948 224.367C400.948 224.203 400.698 224.019 400.37 224.019L125.112 224.022Z" fill="#0055DC"/>
<path d="M400.37 222.773H372.754V92.5156C372.739 89.7023 371.609 87.0098 369.611 85.0285C367.614 83.0473 364.912 81.9391 362.099 81.9469H163.111C160.298 81.9391 157.596 83.0473 155.599 85.0285C153.602 87.0098 152.471 89.7023 152.456 92.5156V222.773H125.112C124.658 222.745 124.211 222.897 123.869 223.197C123.527 223.496 123.317 223.918 123.284 224.372V229.824C123.284 232.649 133.95 234.128 144.484 234.128H380.996C393.672 234.128 402.193 232.485 402.196 230.038V224.37C402.162 223.917 401.952 223.496 401.61 223.197C401.269 222.898 400.823 222.746 400.37 222.773ZM153.707 92.5156C153.751 90.0432 154.759 87.6858 156.516 85.9454C158.272 84.205 160.639 83.2191 163.111 83.1976H362.103C364.585 83.1893 366.969 84.1656 368.732 85.9124C370.495 87.6592 371.493 90.0338 371.508 92.5156V222.773H153.707V92.5156ZM380.996 232.879H144.485C130.884 232.879 124.703 230.691 124.536 229.826V224.372C124.536 224.207 124.783 224.024 125.113 224.024H400.37C400.7 224.024 400.948 224.207 400.948 224.372L400.953 230.005C400.665 230.773 395.404 232.879 380.996 232.879Z" fill="#0055DC" stroke="#0055DC"/>
<rect x="171.513" y="108.27" width="182.191" height="99.0618" fill="#E2F5FA"/>
<path d="M359.619 134.319H306.125C304.069 134.319 302.402 135.986 302.402 138.042V243.319C302.402 245.375 304.069 247.042 306.125 247.042H359.619C361.675 247.042 363.342 245.375 363.342 243.319V138.042C363.342 135.986 361.675 134.319 359.619 134.319Z" fill="#C5EBF5"/>
<path d="M359.62 247.511H306.126C305.016 247.509 303.951 247.067 303.166 246.282C302.38 245.496 301.938 244.432 301.937 243.321V138.042C301.938 136.931 302.38 135.866 303.166 135.081C303.951 134.295 305.016 133.853 306.126 133.852H359.62C360.73 133.854 361.795 134.296 362.58 135.081C363.366 135.866 363.808 136.931 363.81 138.042V243.318C363.808 244.43 363.367 245.495 362.581 246.281C361.796 247.067 360.731 247.509 359.62 247.511ZM306.126 134.787C305.264 134.789 304.438 135.132 303.829 135.741C303.219 136.351 302.876 137.177 302.875 138.039V243.318C302.876 244.18 303.219 245.007 303.829 245.616C304.438 246.226 305.264 246.569 306.126 246.57H359.62C360.482 246.569 361.308 246.226 361.917 245.616C362.527 245.007 362.87 244.18 362.872 243.318V138.042C362.87 137.18 362.527 136.353 361.917 135.744C361.308 135.134 360.482 134.791 359.62 134.79L306.126 134.787Z" fill="#0354DB" stroke="#0055DC"/>
<path d="M359.835 144.871H305.911V239.161H359.835V144.871Z" fill="white"/>
<path d="M337.349 139.546H327.316C326.9 139.546 326.562 139.884 326.562 140.3C326.562 140.717 326.9 141.054 327.316 141.054H337.349C337.766 141.054 338.103 140.717 338.103 140.3C338.103 139.884 337.766 139.546 337.349 139.546Z" fill="#2A5BC9"/>
<path d="M323.726 141.574C324.43 141.574 325 141.003 325 140.299C325 139.595 324.43 139.025 323.726 139.025C323.022 139.025 322.451 139.595 322.451 140.299C322.451 141.003 323.022 141.574 323.726 141.574Z" fill="#2A5BC9"/>
<path d="M335.321 209.832C345.966 209.832 354.597 201.202 354.597 190.556C354.597 179.91 345.966 171.28 335.321 171.28C324.675 171.28 316.044 179.91 316.044 190.556C316.044 201.202 324.675 209.832 335.321 209.832Z" fill="white"/>
<rect x="309.369" y="151.913" width="47.1063" height="81.0505" fill="#E2F5FA"/>
<rect x="232.298" y="170.332" width="61.4273" height="11.5916" fill="white" stroke="#0055DC" stroke-width="2"/>
<rect x="316.113" y="199.781" width="35.3768" height="5.92841" fill="white" stroke="#0055DC" stroke-width="2"/>
<rect x="232.298" y="189.02" width="61.4273" height="11.5916" fill="white" stroke="#0055DC" stroke-width="2"/>
<rect x="316.113" y="212.239" width="35.3768" height="5.92841" fill="white" stroke="#0055DC" stroke-width="2"/>
<path d="M333.659 193.058C341.769 193.058 348.343 186.484 348.343 178.374C348.343 170.265 341.769 163.69 333.659 163.69C325.55 163.69 318.976 170.265 318.976 178.374C318.976 186.484 325.55 193.058 333.659 193.058Z" fill="white" stroke="#0055DC" stroke-width="2" stroke-miterlimit="10"/>
<path d="M329.026 186.023C329.79 185.603 330.499 185.087 331.134 184.489V180.614L336.239 180.674V184.319C336.472 184.772 337.352 185.329 338.526 185.988C338.526 185.988 336.342 189.246 333.598 189.246C330.854 189.246 329.026 186.023 329.026 186.023Z" fill="#C5EBF5" stroke="#003682" stroke-miterlimit="10"/>
<path d="M333.66 193.058C337.305 193.063 340.82 191.707 343.518 189.256C342.011 187.964 340.343 186.874 338.554 186.014C338.554 186.014 336.342 189.246 333.598 189.246C330.854 189.246 329.012 186.055 329.012 186.055C327.327 187.004 325.261 187.898 323.713 189.173C326.421 191.675 329.973 193.063 333.66 193.058Z" fill="#0055DC" stroke="#003682" stroke-miterlimit="10"/>
<path d="M337.77 167.847C337.77 168.037 337.209 168.183 337.183 168.366C337.157 168.548 337.654 168.852 337.602 169.03C337.551 169.208 336.971 169.192 336.894 169.36C336.818 169.529 337.21 169.961 337.11 170.117C337.01 170.273 336.46 170.091 336.339 170.232C336.218 170.373 336.475 170.897 336.335 171.019C336.196 171.141 335.718 170.81 335.563 170.911C335.407 171.012 335.509 171.588 335.34 171.666C335.171 171.744 334.808 171.289 334.63 171.342C334.451 171.395 334.39 171.976 334.205 172.002C334.02 172.029 333.801 171.489 333.613 171.489C333.426 171.489 333.202 172.029 333.022 172.002C332.842 171.976 332.773 171.394 332.597 171.342C332.422 171.29 332.055 171.743 331.886 171.666C331.717 171.589 331.819 171.012 331.664 170.911C331.509 170.811 331.031 171.141 330.891 171.019C330.752 170.897 331.009 170.372 330.888 170.231C330.767 170.091 330.217 170.274 330.116 170.116C330.016 169.959 330.41 169.531 330.332 169.36C330.255 169.189 329.677 169.211 329.625 169.03C329.572 168.849 330.068 168.553 330.044 168.366C330.02 168.178 329.457 168.036 329.457 167.847C329.457 167.658 330.018 167.511 330.044 167.328C330.07 167.145 329.573 166.841 329.625 166.664C329.676 166.487 330.256 166.502 330.333 166.333C330.41 166.165 330.017 165.733 330.117 165.576C330.217 165.42 330.767 165.602 330.888 165.462C331.009 165.322 330.752 164.797 330.892 164.674C331.031 164.552 331.509 164.884 331.664 164.783C331.819 164.682 331.718 164.106 331.887 164.028C332.056 163.95 332.418 164.404 332.597 164.352C332.776 164.299 332.837 163.718 333.022 163.691C333.207 163.664 333.426 164.205 333.613 164.205C333.801 164.205 334.024 163.665 334.205 163.691C334.385 163.717 334.454 164.299 334.63 164.352C334.805 164.404 335.172 163.951 335.341 164.028C335.51 164.105 335.408 164.682 335.563 164.783C335.718 164.883 336.196 164.553 336.335 164.675C336.474 164.797 336.218 165.322 336.339 165.462C336.46 165.602 337.01 165.42 337.111 165.577C337.211 165.734 336.817 166.163 336.895 166.334C336.972 166.505 337.55 166.483 337.602 166.664C337.655 166.845 337.159 167.141 337.183 167.328C337.207 167.514 337.77 167.657 337.77 167.847Z" fill="#003682" stroke="#003682" stroke-width="2"/>
<path d="M338.528 176.122C338.556 176.013 338.606 175.911 338.675 175.822C338.745 175.733 338.832 175.66 338.931 175.607C339.03 175.554 339.14 175.522 339.252 175.513C339.364 175.505 339.477 175.519 339.583 175.557C340.221 175.749 339.862 178.067 338.079 177.985C338.264 177.373 338.414 176.751 338.528 176.122Z" fill="#C5EBF5" stroke="#003682" stroke-miterlimit="10"/>
<path d="M328.789 176.122C328.759 176.011 328.706 175.907 328.633 175.817C328.561 175.727 328.47 175.654 328.368 175.6C328.265 175.547 328.153 175.516 328.038 175.509C327.923 175.501 327.807 175.518 327.699 175.557C327.142 175.783 327.42 178.067 329.205 177.985C329.026 177.373 328.887 176.751 328.789 176.122Z" fill="#C5EBF5" stroke="#003682" stroke-miterlimit="10"/>
<path d="M338.759 173.994C338.759 175.318 338.275 178.014 337.424 179.641C336.792 180.85 335.164 182.195 333.684 182.195C332.205 182.195 330.744 180.85 329.945 179.642C328.932 178.11 328.609 175.318 328.609 173.994C328.609 172.648 329.144 171.358 330.096 170.406C331.048 169.454 332.338 168.919 333.684 168.919C335.03 168.919 336.321 169.454 337.273 170.406C338.225 171.358 338.759 172.648 338.759 173.994Z" fill="#C5EBF5" stroke="#003682" stroke-miterlimit="10"/>
<path d="M338.498 175.66C338.26 173.644 333.878 173.945 333.034 171.688C333.034 171.688 333.034 173.109 331.91 173.945C331.046 174.587 329.941 174.218 329.941 174.218C329.941 174.218 331.047 174.306 331.628 173.375C332.164 172.516 331.91 171.688 331.91 171.688C329.989 171.976 329.016 173.657 328.79 176.072L328.703 175.985C328.591 175.281 328.531 174.57 328.523 173.858C328.523 171.055 330.882 168.869 333.685 168.869C335.04 168.866 336.342 169.397 337.308 170.347C338.274 171.297 338.827 172.59 338.847 173.945C338.82 174.642 338.724 175.334 338.561 176.012L338.498 175.66Z" fill="#003682" stroke="#003682" stroke-width="0.505" stroke-linejoin="round"/>
<path d="M333.659 193.058C341.769 193.058 348.343 186.484 348.343 178.374C348.343 170.265 341.769 163.69 333.659 163.69C325.55 163.69 318.976 170.265 318.976 178.374C318.976 186.484 325.55 193.058 333.659 193.058Z" stroke="#0055DC" stroke-width="3" stroke-miterlimit="10"/>
<path d="M261.835 155.531C261.835 155.531 216.096 42.8322 121.338 42.8322" stroke="url(#paint2_linear_1824_2128)" stroke-width="5"/>
<path d="M143.351 241.497L172.611 249.337L164.771 278.596" stroke="#242628" stroke-width="8" stroke-linecap="round" stroke-linejoin="round"/>
<path d="M388.31 62.5189L360.236 51.142L371.613 23.0681" stroke="#242628" stroke-width="8" stroke-linecap="round" stroke-linejoin="round"/>
<path d="M149.205 248.078L166.746 252.779L162.046 270.321" stroke="#3790E0" stroke-width="5"/>
<path d="M382.682 55.8042L365.94 48.7666L372.977 32.0248" stroke="#6ECCE5" stroke-width="5"/>
<path d="M263.031 161.768C276.848 161.768 288.048 150.567 288.048 136.751C288.048 122.934 276.848 111.734 263.031 111.734C249.215 111.734 238.015 122.934 238.015 136.751C238.015 150.567 249.215 161.768 263.031 161.768Z" fill="white" stroke="#0055DC" stroke-width="2" stroke-miterlimit="10"/>
<path d="M255.138 149.783C256.44 149.067 257.647 148.189 258.729 147.17V140.567L267.427 140.67V146.88C267.824 147.652 269.323 148.6 271.324 149.723C271.324 149.723 267.602 155.274 262.927 155.274C258.252 155.274 255.138 149.783 255.138 149.783Z" fill="#C5EBF5" stroke="#003682" stroke-miterlimit="10"/>
<path d="M263.032 161.768C269.242 161.777 275.232 159.467 279.828 155.291C277.261 153.09 274.418 151.233 271.371 149.767C271.371 149.767 267.602 155.274 262.928 155.274C258.253 155.274 255.113 149.837 255.113 149.837C252.244 151.455 248.724 152.978 246.086 155.15C250.699 159.412 256.751 161.776 263.032 161.768Z" fill="#0055DC" stroke="#003682" stroke-miterlimit="10"/>
<path d="M271.546 119.878C271.546 120.249 270.446 120.537 270.396 120.894C270.346 121.251 271.319 121.847 271.218 122.195C271.117 122.544 269.98 122.512 269.83 122.843C269.681 123.173 270.448 124.019 270.253 124.325C270.058 124.631 268.979 124.274 268.742 124.55C268.506 124.826 269.009 125.854 268.736 126.093C268.462 126.332 267.527 125.683 267.222 125.881C266.917 126.079 267.117 127.207 266.786 127.36C266.455 127.513 265.743 126.621 265.394 126.726C265.044 126.83 264.924 127.967 264.562 128.019C264.2 128.07 263.77 127.012 263.403 127.012C263.036 127.012 262.598 128.07 262.244 128.019C261.891 127.967 261.756 126.827 261.412 126.726C261.068 126.624 260.35 127.511 260.019 127.359C259.688 127.208 259.887 126.078 259.583 125.881C259.28 125.684 258.343 126.332 258.069 126.093C257.796 125.854 258.3 124.825 258.064 124.549C257.827 124.273 256.749 124.632 256.552 124.324C256.355 124.016 257.126 123.176 256.975 122.842C256.823 122.507 255.69 122.549 255.588 122.195C255.486 121.841 256.457 121.26 256.41 120.894C256.362 120.527 255.26 120.248 255.26 119.878C255.26 119.507 256.359 119.219 256.41 118.861C256.461 118.503 255.487 117.907 255.588 117.56C255.689 117.213 256.825 117.243 256.975 116.912C257.126 116.582 256.357 115.736 256.553 115.429C256.749 115.123 257.827 115.48 258.064 115.205C258.3 114.93 257.797 113.901 258.07 113.662C258.344 113.422 259.279 114.072 259.583 113.874C259.888 113.676 259.689 112.548 260.02 112.395C260.351 112.242 261.062 113.133 261.412 113.03C261.763 112.926 261.882 111.789 262.244 111.736C262.606 111.683 263.036 112.742 263.403 112.742C263.77 112.742 264.208 111.685 264.562 111.736C264.915 111.787 265.05 112.927 265.394 113.03C265.738 113.132 266.456 112.244 266.787 112.395C267.118 112.546 266.919 113.677 267.223 113.874C267.526 114.071 268.463 113.424 268.736 113.663C269.008 113.901 268.505 114.93 268.742 115.205C268.98 115.48 270.057 115.122 270.254 115.43C270.451 115.739 269.68 116.579 269.831 116.913C269.983 117.248 271.116 117.206 271.218 117.56C271.32 117.914 270.349 118.495 270.396 118.861C270.444 119.226 271.546 119.506 271.546 119.878Z" fill="#003682" stroke="#003682"/>
<path d="M271.326 132.913C271.373 132.727 271.459 132.553 271.577 132.402C271.695 132.251 271.844 132.126 272.013 132.036C272.182 131.945 272.368 131.891 272.559 131.876C272.751 131.862 272.943 131.887 273.124 131.951C274.211 132.279 273.599 136.227 270.561 136.087C270.876 135.044 271.131 133.985 271.326 132.913Z" fill="#C5EBF5" stroke="#003682" stroke-miterlimit="10"/>
<path d="M254.734 132.914C254.683 132.724 254.592 132.548 254.469 132.395C254.345 132.242 254.191 132.116 254.017 132.026C253.842 131.935 253.651 131.882 253.454 131.869C253.258 131.856 253.061 131.884 252.877 131.952C251.929 132.336 252.401 136.228 255.442 136.088C255.138 135.046 254.902 133.986 254.734 132.914Z" fill="#C5EBF5" stroke="#003682" stroke-miterlimit="10"/>
<path d="M271.719 129.289C271.719 131.544 270.893 136.137 269.443 138.91C268.367 140.969 265.594 143.26 263.073 143.26C260.552 143.26 258.064 140.969 256.702 138.911C254.976 136.301 254.426 131.544 254.426 129.289C254.426 126.996 255.337 124.797 256.959 123.175C258.58 121.554 260.779 120.643 263.073 120.643C265.366 120.643 267.565 121.554 269.187 123.175C270.808 124.797 271.719 126.996 271.719 129.289Z" fill="#C5EBF5" stroke="#003682" stroke-miterlimit="10"/>
<path d="M271.274 132.128C270.869 128.692 263.403 129.205 261.966 125.36C261.966 125.36 261.966 127.781 260.05 129.205C258.579 130.299 256.696 129.671 256.696 129.671C256.696 129.671 258.58 129.821 259.571 128.234C260.484 126.771 260.05 125.36 260.05 125.36C256.777 125.851 255.119 128.714 254.734 132.829L254.586 132.681C254.396 131.482 254.294 130.271 254.28 129.057C254.28 124.281 258.299 120.558 263.074 120.558C265.383 120.552 267.601 121.457 269.247 123.076C270.893 124.695 271.835 126.897 271.868 129.205C271.823 130.392 271.66 131.572 271.382 132.726L271.274 132.128Z" fill="#003682" stroke="#003682" stroke-width="0.505" stroke-linejoin="round"/>
<path d="M263.031 161.768C276.848 161.768 288.048 150.567 288.048 136.751C288.048 122.934 276.848 111.734 263.031 111.734C249.215 111.734 238.015 122.934 238.015 136.751C238.015 150.567 249.215 161.768 263.031 161.768Z" stroke="#0055DC" stroke-width="3" stroke-miterlimit="10"/>
<defs>
<linearGradient id="paint0_linear_1824_2128" x1="163.146" y1="255.153" x2="170.296" y2="251.824" gradientUnits="userSpaceOnUse">
<stop stop-color="#3790E0"/>
<stop offset="1" stop-color="#0055DC"/>
</linearGradient>
<linearGradient id="paint1_linear_1824_2128" x1="364.023" y1="49.8889" x2="405.4" y2="252.371" gradientUnits="userSpaceOnUse">
<stop stop-color="#6ECCE5"/>
<stop offset="1" stop-color="#0055DC"/>
</linearGradient>
<linearGradient id="paint2_linear_1824_2128" x1="121.338" y1="42.8322" x2="228.61" y2="99.1815" gradientUnits="userSpaceOnUse">
<stop stop-color="#3790E0"/>
<stop offset="1" stop-color="#0055DC"/>
</linearGradient>
</defs>
</svg>
