<svg width="519" height="314" viewBox="0 0 519 314" fill="none" xmlns="http://www.w3.org/2000/svg">
<path d="M397.552 233.617V80.177L264.599 3.45691L131.645 80.177L131.645 233.617L264.599 310.337L397.552 233.617Z" fill="#E1F4F9" stroke="white" stroke-width="6" stroke-linejoin="round"/>
<mask id="mask0_1824_2045" style="mask-type:alpha" maskUnits="userSpaceOnUse" x="47" y="32" width="434" height="248">
<path d="M263.367 278.856L47.7949 154.276L264.668 32.5116L479.845 154.276L263.367 278.856Z" fill="white" stroke="#0055DC" stroke-linejoin="round" stroke-dasharray="6 4"/>
</mask>
<g mask="url(#mask0_1824_2045)">
<path d="M266.397 178.125L268.77 330.381L267.637 330.399L265.264 178.143L266.397 178.125ZM249.61 329.558L250.738 329.66L264.306 178.012L263.177 177.91L249.61 329.558ZM261.126 177.459L231.768 326.838L232.879 327.057L262.236 177.678L261.126 177.459ZM259.132 176.796L214.306 322.27L215.388 322.605L260.214 177.131L259.132 176.796ZM257.219 175.931L197.414 315.905L198.456 316.35L258.261 176.376L257.219 175.931ZM255.405 174.871L181.28 307.81L182.269 308.361L256.395 175.42L255.405 174.871ZM253.714 173.624L166.077 298.076L167.003 298.728L254.641 174.277L253.714 173.624ZM252.162 172.209L151.973 286.807L152.825 287.552L253.013 172.955L252.162 172.209ZM250.763 170.641L139.123 274.131L139.893 274.961L251.533 171.472L250.763 170.641ZM249.538 168.935L127.669 260.181L128.349 261.088L250.218 169.843L249.538 168.935ZM248.499 167.11L117.736 245.115L118.316 246.088L249.08 168.085L248.499 167.11ZM247.655 165.188L109.43 229.095L109.906 230.123L248.13 166.216L247.655 165.188ZM247.018 163.187L102.845 212.297L103.21 213.37L247.382 164.26L247.018 163.187ZM246.592 161.134L98.0525 194.907L98.3051 196.011L246.845 162.238L246.592 161.134ZM246.383 159.045L95.1027 177.115L95.2375 178.239L246.517 160.169L246.383 159.045ZM246.395 156.947L94.0322 159.112L94.0481 160.245L246.411 158.08L246.395 156.947ZM246.625 154.862L94.8501 141.101L94.7482 142.229L246.523 155.989L246.625 154.862ZM247.074 152.813L97.5473 123.276L97.3287 124.386L246.855 153.924L247.074 152.813ZM247.733 150.821L102.094 105.831L101.76 106.913L247.397 151.903L247.733 150.821ZM248.596 148.911L108.442 88.961L107.997 90.0032L248.152 149.953L248.596 148.911ZM249.655 147.1L116.52 72.8469L115.97 73.8359L249.105 148.089L249.655 147.1ZM250.908 144.917L144.497 69.9932L143.844 70.9199L250.257 145.844L250.908 144.917ZM252.319 143.369L146.576 50.9631L145.83 51.8173L251.575 144.223L252.319 143.369ZM253.057 142.746L253.886 141.975L185.188 67.92L184.359 68.6904L253.057 142.746ZM255.591 140.753L165.607 20.6949L164.699 21.3746L254.685 141.434L255.591 140.753ZM257.413 139.715L192.758 31.4821L191.785 32.0644L256.438 140.297L257.413 139.715ZM259.333 138.874L212.306 37.3459L211.277 37.8217L258.304 139.35L259.333 138.874ZM260.257 138.605L261.33 138.24L230.784 48.0647L229.711 48.4295L260.257 138.605ZM263.383 137.815L227.01 -21.5864L225.905 -21.3338L262.279 138.068L263.383 137.815ZM249.416 4.06649L248.292 4.2013L264.345 137.745L265.469 137.61L249.416 4.06649ZM267.566 137.623L265.375 26.5127L264.242 26.5309L266.433 137.641L267.566 137.623ZM283.186 169.162L416.322 243.414L416.872 242.425L283.736 168.173L283.186 169.162ZM281.943 170.851L406.601 258.594L407.254 257.667L282.596 169.924L281.943 170.851ZM280.529 172.402L395.345 272.672L396.09 271.818L281.275 171.548L280.529 172.402ZM278.962 173.793L382.677 285.494L383.506 284.723L279.791 173.023L278.962 173.793ZM277.256 175.017L368.732 296.921L369.639 296.241L278.163 174.337L277.256 175.017ZM275.433 176.054L353.668 306.827L354.639 306.245L276.404 175.472L275.433 176.054ZM273.509 176.895L337.648 315.107L338.674 314.629L274.536 176.417L273.509 176.895ZM271.51 177.529L320.849 321.664L321.919 321.297L272.581 177.162L271.51 177.529ZM269.453 177.952L303.451 326.429L304.556 326.177L270.557 177.699L269.453 177.952ZM267.364 178.157L285.651 329.352L286.774 329.217L268.488 178.022L267.364 178.157ZM281.048 11.2523L279.92 11.1504L268.522 137.753L269.65 137.855L281.048 11.2523ZM271.697 138.302L304.141 -26.3921L303.03 -26.6107L270.586 138.084L271.697 138.302ZM272.606 138.629L273.687 138.963L304.703 38.4188L303.621 38.0846L272.606 138.629ZM275.598 139.827L327.712 17.9035L326.67 17.4582L274.556 139.382L275.598 139.827ZM277.406 140.886L351.503 8.00098L350.514 7.4504L276.417 140.336L277.406 140.886ZM278.553 141.579L279.479 142.231L332.094 67.7358L331.167 67.0833L278.553 141.579ZM342.171 73.6898L341.32 72.9443L280.177 142.897L281.029 143.643L342.171 73.6898ZM342.007 89.9579L341.237 89.1286L281.651 144.38L282.421 145.21L342.007 89.9579ZM283.646 146.913L368.819 83.1165L368.14 82.209L282.966 146.006L283.646 146.913ZM284.683 148.736L415.267 70.7975L414.687 69.8244L284.103 147.763L284.683 148.736ZM285.526 150.656L423.557 86.7961L423.081 85.7674L285.05 149.628L285.526 150.656ZM286.162 152.653L430.127 103.571L429.762 102.498L285.797 151.58L286.162 152.653ZM286.586 154.705L434.91 120.938L434.657 119.833L286.335 153.601L286.586 154.705ZM286.794 156.792L437.849 138.709L437.714 137.585L286.659 155.668L286.794 156.792ZM286.781 158.886L438.914 156.689L438.898 155.556L286.765 157.753L286.781 158.886ZM286.551 160.969L438.094 174.68L438.196 173.552L286.653 159.841L286.551 160.969ZM286.104 163.016L435.398 192.483L435.617 191.373L286.322 161.906L286.104 163.016ZM285.445 165.005L430.853 209.907L431.187 208.825L285.779 163.924L285.445 165.005ZM284.583 166.914L424.511 226.757L424.956 225.715L285.028 165.872L284.583 166.914Z" fill="#FBAD41"/>
</g>
<path d="M259.739 156.707C259.739 156.707 202.79 267.206 121.983 267.206C64.7745 267.206 11 217.734 11 156.707C11 95.6796 64.7745 46.2074 121.983 46.2074C214.892 46.2074 259.739 156.707 259.739 156.707Z" stroke="white" stroke-width="21"/>
<path d="M259.742 156.704C259.742 156.704 316.691 46.2052 397.497 46.2052C454.706 46.2052 508.48 95.6774 508.48 156.704C508.48 217.732 454.706 267.204 397.497 267.204C304.589 267.204 259.742 156.704 259.742 156.704Z" stroke="white" stroke-width="21"/>
<path d="M259.739 156.707C259.739 156.707 202.79 267.206 121.983 267.206C64.7745 267.206 11 217.734 11 156.707C11 95.6796 64.7745 46.2074 121.983 46.2074C214.892 46.2074 259.739 156.707 259.739 156.707Z" stroke="white" stroke-width="8"/>
<path d="M259.742 156.704C259.742 156.704 316.691 46.2052 397.497 46.2052C454.706 46.2052 508.48 95.6774 508.48 156.704C508.48 217.732 454.706 267.204 397.497 267.204C304.589 267.204 259.742 156.704 259.742 156.704Z" stroke="#F6821F" stroke-width="8"/>
<path d="M259.742 156.704C259.742 156.704 316.691 46.2052 397.497 46.2052C454.706 46.2052 508.48 95.6774 508.48 156.704C508.48 217.732 454.706 267.204 397.497 267.204C304.589 267.204 259.742 156.704 259.742 156.704Z" stroke="white" stroke-width="8"/>
<path d="M259.739 156.808C259.739 156.808 202.79 267.307 121.983 267.307C64.7745 267.307 11 217.835 11 156.808C11 95.7807 64.7745 46.3085 121.983 46.3085C214.892 46.3085 259.739 156.808 259.739 156.808Z" stroke="#0055DC" stroke-width="5"/>
<path d="M259.742 156.806C259.742 156.806 316.691 46.3065 397.497 46.3065C454.706 46.3065 508.48 95.7788 508.48 156.806C508.48 217.833 454.706 267.305 397.497 267.305C304.589 267.305 259.742 156.806 259.742 156.806Z" stroke="#0055DC" stroke-width="5" stroke-dasharray="10 10"/>
<path d="M259.742 156.806C259.742 156.806 316.691 46.3065 397.497 46.3065C454.706 46.3065 508.48 95.7788 508.48 156.806C508.48 217.833 454.706 267.305 397.497 267.305C304.589 267.305 259.742 156.806 259.742 156.806Z" stroke="url(#paint0_linear_1824_2045)" stroke-width="5" stroke-dasharray="10 10"/>
<path d="M259.739 156.703C259.739 156.703 214.892 46.2039 121.984 46.2039C64.7749 46.2039 11.0005 95.6761 11.0005 156.703" stroke="white" stroke-width="9"/>
<path d="M259.74 156.704C259.74 156.704 304.587 267.204 397.495 267.204" stroke="white" stroke-width="9"/>
<path d="M259.739 156.703C259.739 156.703 214.892 46.2039 121.984 46.2039C64.7749 46.2039 11.0005 95.6761 11.0005 156.703" stroke="#0055DC" stroke-width="5"/>
<path d="M259.74 156.704C259.74 156.704 304.587 267.204 397.495 267.204" stroke="#0055DC" stroke-width="5"/>
<circle cx="262.535" cy="156.883" r="62.1039" fill="white"/>
<path fill-rule="evenodd" clip-rule="evenodd" d="M362.32 86.0259H163.331C160.688 86.0342 158.155 87.0818 156.279 88.9423C154.402 90.8028 153.332 93.3268 153.301 95.9692V226.854H372.348V95.9717C372.32 93.3284 371.252 90.8024 369.376 88.9408C367.499 87.0792 364.964 86.032 362.32 86.0259Z" fill="#C5EBF5"/>
<path d="M363.081 101.673H162.057V218.823H363.081V101.673Z" fill="white"/>
<path fill-rule="evenodd" clip-rule="evenodd" d="M380.998 236.95H144.484C132.19 236.95 123.91 235.065 123.91 233.271V227.817C123.942 227.529 124.086 227.266 124.311 227.084C124.536 226.902 124.823 226.815 125.111 226.843H400.37C400.658 226.815 400.945 226.902 401.171 227.084C401.396 227.266 401.54 227.529 401.573 227.817V233.485C401.573 234.906 395.157 236.95 380.998 236.95Z" fill="#C5EBF5"/>
<path fill-rule="evenodd" clip-rule="evenodd" d="M401.573 233.485C401.573 234.903 395.157 236.949 380.998 236.949H144.484C132.189 236.949 123.909 235.064 123.909 233.27L401.573 233.485Z" fill="white"/>
<path fill-rule="evenodd" clip-rule="evenodd" d="M292.9 227.245V228.484C292.9 229.367 291.162 229.633 289.846 229.633H235.857C234.473 229.633 232.722 229.367 232.722 228.484V227.245" fill="#0055DC"/>
<path d="M380.996 237.586H144.486C133.951 237.586 123.286 236.108 123.286 233.281V227.828C123.319 227.374 123.529 226.952 123.871 226.652C124.213 226.353 124.66 226.201 125.113 226.229H400.37C400.824 226.201 401.271 226.353 401.613 226.652C401.956 226.952 402.166 227.374 402.199 227.828V233.496C402.193 235.943 393.673 237.586 380.996 237.586ZM125.112 227.479C124.782 227.479 124.536 227.663 124.536 227.828V233.28C124.703 234.145 130.884 236.333 144.485 236.333H380.996C395.404 236.333 400.666 234.226 400.953 233.457L400.948 227.824C400.948 227.659 400.698 227.476 400.37 227.476L125.112 227.479Z" fill="#0055DC"/>
<path d="M400.37 226.23H372.754V95.9726C372.739 93.1592 371.609 90.4667 369.611 88.4855C367.614 86.5043 364.912 85.396 362.099 85.4038H163.111C160.298 85.396 157.596 86.5043 155.599 88.4855C153.602 90.4667 152.471 93.1592 152.456 95.9726V226.23H125.112C124.658 226.202 124.211 226.354 123.869 226.654C123.527 226.953 123.317 227.375 123.284 227.829V233.281C123.284 236.106 133.95 237.585 144.484 237.585H380.996C393.672 237.585 402.193 235.942 402.196 233.495V227.827C402.162 227.374 401.952 226.953 401.61 226.654C401.269 226.355 400.823 226.203 400.37 226.23ZM153.707 95.9726C153.751 93.5002 154.759 91.1428 156.516 89.4024C158.272 87.6619 160.639 86.676 163.111 86.6546H362.103C364.585 86.6463 366.969 87.6226 368.732 89.3693C370.495 91.1161 371.493 93.4908 371.508 95.9726V226.23H153.707V95.9726ZM380.996 236.336H144.485C130.884 236.336 124.703 234.148 124.536 233.283V227.829C124.536 227.664 124.783 227.481 125.113 227.481H400.37C400.7 227.481 400.948 227.664 400.948 227.829L400.953 233.462C400.665 234.23 395.404 236.336 380.996 236.336Z" fill="#0055DC" stroke="#0055DC"/>
<rect x="171.513" y="111.727" width="182.191" height="99.0618" fill="#E2F5FA"/>
<path d="M359.619 137.776H306.125C304.069 137.776 302.402 139.443 302.402 141.499V246.776C302.402 248.832 304.069 250.499 306.125 250.499H359.619C361.675 250.499 363.342 248.832 363.342 246.776V141.499C363.342 139.443 361.675 137.776 359.619 137.776Z" fill="#C5EBF5"/>
<path d="M359.62 250.968H306.126C305.016 250.966 303.951 250.524 303.166 249.739C302.38 248.953 301.938 247.889 301.937 246.778V141.499C301.938 140.388 302.38 139.323 303.166 138.538C303.951 137.752 305.016 137.31 306.126 137.309H359.62C360.73 137.311 361.795 137.753 362.58 138.538C363.366 139.323 363.808 140.388 363.81 141.499V246.775C363.808 247.887 363.367 248.952 362.581 249.738C361.796 250.524 360.731 250.966 359.62 250.968ZM306.126 138.244C305.264 138.246 304.438 138.589 303.829 139.198C303.219 139.808 302.876 140.634 302.875 141.496V246.775C302.876 247.638 303.219 248.464 303.829 249.073C304.438 249.683 305.264 250.026 306.126 250.027H359.62C360.482 250.026 361.308 249.683 361.917 249.073C362.527 248.464 362.87 247.637 362.872 246.775V141.499C362.87 140.637 362.527 139.81 361.917 139.201C361.308 138.591 360.482 138.248 359.62 138.247L306.126 138.244Z" fill="#0354DB" stroke="#0055DC"/>
<path d="M359.835 148.328H305.911V242.618H359.835V148.328Z" fill="white"/>
<path d="M337.349 143.003H327.316C326.9 143.003 326.562 143.341 326.562 143.757C326.562 144.174 326.9 144.511 327.316 144.511H337.349C337.766 144.511 338.103 144.174 338.103 143.757C338.103 143.341 337.766 143.003 337.349 143.003Z" fill="#2A5BC9"/>
<path d="M323.726 145.031C324.43 145.031 325 144.46 325 143.756C325 143.052 324.43 142.482 323.726 142.482C323.022 142.482 322.451 143.052 322.451 143.756C322.451 144.46 323.022 145.031 323.726 145.031Z" fill="#2A5BC9"/>
<path d="M335.321 213.289C345.966 213.289 354.597 204.659 354.597 194.013C354.597 183.367 345.966 174.737 335.321 174.737C324.675 174.737 316.044 183.367 316.044 194.013C316.044 204.659 324.675 213.289 335.321 213.289Z" fill="white"/>
<rect x="309.369" y="155.37" width="47.1063" height="81.0505" fill="#E2F5FA"/>
<rect x="232.298" y="173.789" width="61.4273" height="11.5916" fill="white" stroke="#0055DC" stroke-width="2"/>
<rect x="316.113" y="203.238" width="35.3768" height="5.92841" fill="white" stroke="#0055DC" stroke-width="2"/>
<rect x="232.298" y="192.477" width="61.4273" height="11.5916" fill="white" stroke="#0055DC" stroke-width="2"/>
<rect x="316.113" y="215.696" width="35.3768" height="5.92841" fill="white" stroke="#0055DC" stroke-width="2"/>
<path d="M333.659 196.515C341.769 196.515 348.343 189.941 348.343 181.831C348.343 173.721 341.769 167.147 333.659 167.147C325.55 167.147 318.976 173.721 318.976 181.831C318.976 189.941 325.55 196.515 333.659 196.515Z" fill="white" stroke="#0055DC" stroke-width="2" stroke-miterlimit="10"/>
<path d="M329.026 189.48C329.79 189.06 330.499 188.544 331.134 187.946V184.071L336.239 184.131V187.776C336.472 188.229 337.352 188.786 338.526 189.445C338.526 189.445 336.342 192.703 333.598 192.703C330.854 192.703 329.026 189.48 329.026 189.48Z" fill="#C5EBF5" stroke="#003682" stroke-miterlimit="10"/>
<path d="M333.66 196.515C337.305 196.52 340.82 195.164 343.518 192.713C342.011 191.421 340.343 190.331 338.554 189.471C338.554 189.471 336.342 192.703 333.598 192.703C330.854 192.703 329.012 189.512 329.012 189.512C327.327 190.461 325.261 191.355 323.713 192.63C326.421 195.132 329.973 196.52 333.66 196.515Z" fill="#0055DC" stroke="#003682" stroke-miterlimit="10"/>
<path d="M337.77 171.304C337.77 171.494 337.209 171.64 337.183 171.823C337.157 172.005 337.654 172.309 337.602 172.487C337.551 172.665 336.971 172.649 336.894 172.817C336.818 172.986 337.21 173.418 337.11 173.574C337.01 173.73 336.46 173.548 336.339 173.689C336.218 173.83 336.475 174.354 336.335 174.476C336.196 174.598 335.718 174.267 335.563 174.368C335.407 174.469 335.509 175.045 335.34 175.123C335.171 175.201 334.808 174.746 334.63 174.799C334.451 174.852 334.39 175.433 334.205 175.459C334.02 175.486 333.801 174.946 333.613 174.946C333.426 174.946 333.202 175.486 333.022 175.459C332.842 175.433 332.773 174.851 332.597 174.799C332.422 174.747 332.055 175.2 331.886 175.123C331.717 175.046 331.819 174.469 331.664 174.368C331.509 174.268 331.031 174.598 330.891 174.476C330.752 174.354 331.009 173.829 330.888 173.688C330.767 173.548 330.217 173.731 330.116 173.573C330.016 173.416 330.41 172.988 330.332 172.817C330.255 172.646 329.677 172.668 329.625 172.487C329.572 172.306 330.068 172.01 330.044 171.823C330.02 171.635 329.457 171.493 329.457 171.304C329.457 171.115 330.018 170.967 330.044 170.785C330.07 170.602 329.573 170.298 329.625 170.121C329.676 169.944 330.256 169.959 330.333 169.79C330.41 169.622 330.017 169.19 330.117 169.033C330.217 168.877 330.767 169.059 330.888 168.919C331.009 168.779 330.752 168.254 330.892 168.131C331.031 168.009 331.509 168.341 331.664 168.24C331.819 168.139 331.718 167.563 331.887 167.485C332.056 167.406 332.418 167.861 332.597 167.809C332.776 167.756 332.837 167.175 333.022 167.148C333.207 167.121 333.426 167.662 333.613 167.662C333.801 167.662 334.024 167.122 334.205 167.148C334.385 167.174 334.454 167.756 334.63 167.809C334.805 167.861 335.172 167.407 335.341 167.485C335.51 167.562 335.408 168.139 335.563 168.24C335.718 168.34 336.196 168.01 336.335 168.132C336.474 168.254 336.218 168.779 336.339 168.919C336.46 169.059 337.01 168.877 337.111 169.034C337.211 169.191 336.817 169.62 336.895 169.791C336.972 169.962 337.55 169.94 337.602 170.121C337.655 170.302 337.159 170.598 337.183 170.785C337.207 170.971 337.77 171.114 337.77 171.304Z" fill="#003682" stroke="#003682" stroke-width="2"/>
<path d="M338.528 179.579C338.556 179.47 338.606 179.368 338.675 179.279C338.745 179.19 338.832 179.117 338.931 179.064C339.03 179.011 339.14 178.979 339.252 178.97C339.364 178.962 339.477 178.976 339.583 179.014C340.221 179.206 339.862 181.524 338.079 181.442C338.264 180.83 338.414 180.208 338.528 179.579Z" fill="#C5EBF5" stroke="#003682" stroke-miterlimit="10"/>
<path d="M328.789 179.579C328.759 179.468 328.706 179.364 328.633 179.274C328.561 179.184 328.47 179.111 328.368 179.057C328.265 179.004 328.153 178.973 328.038 178.966C327.923 178.958 327.807 178.975 327.699 179.014C327.142 179.24 327.42 181.524 329.205 181.442C329.026 180.83 328.887 180.208 328.789 179.579Z" fill="#C5EBF5" stroke="#003682" stroke-miterlimit="10"/>
<path d="M338.759 177.451C338.759 178.775 338.275 181.471 337.424 183.098C336.792 184.307 335.164 185.652 333.684 185.652C332.205 185.652 330.744 184.307 329.945 183.099C328.932 181.567 328.609 178.775 328.609 177.451C328.609 176.105 329.144 174.815 330.096 173.863C331.048 172.911 332.338 172.376 333.684 172.376C335.03 172.376 336.321 172.911 337.273 173.863C338.225 174.815 338.759 176.105 338.759 177.451Z" fill="#C5EBF5" stroke="#003682" stroke-miterlimit="10"/>
<path d="M338.498 179.117C338.26 177.101 333.878 177.402 333.034 175.145C333.034 175.145 333.034 176.566 331.91 177.402C331.046 178.044 329.941 177.675 329.941 177.675C329.941 177.675 331.047 177.763 331.628 176.832C332.164 175.973 331.91 175.145 331.91 175.145C329.989 175.433 329.016 177.113 328.79 179.529L328.703 179.442C328.591 178.738 328.531 178.027 328.523 177.315C328.523 174.512 330.882 172.326 333.685 172.326C335.04 172.323 336.342 172.854 337.308 173.804C338.274 174.754 338.827 176.047 338.847 177.402C338.82 178.098 338.724 178.791 338.561 179.468L338.498 179.117Z" fill="#003682" stroke="#003682" stroke-width="0.505" stroke-linejoin="round"/>
<path d="M333.659 196.515C341.769 196.515 348.343 189.941 348.343 181.831C348.343 173.721 341.769 167.147 333.659 167.147C325.55 167.147 318.976 173.721 318.976 181.831C318.976 189.941 325.55 196.515 333.659 196.515Z" stroke="#0055DC" stroke-width="3" stroke-miterlimit="10"/>
<path d="M261.835 158.988C261.835 158.988 216.096 46.2892 121.338 46.2892" stroke="#0055DC" stroke-width="5"/>
<path d="M143.351 244.954L172.611 252.794L164.771 282.053" stroke="white" stroke-width="8" stroke-linecap="round" stroke-linejoin="round"/>
<path d="M388.31 65.9759L360.236 54.5989L371.613 26.5251" stroke="white" stroke-width="8" stroke-linecap="round" stroke-linejoin="round"/>
<path d="M149.205 251.535L166.746 256.236L162.046 273.778" stroke="#0055DC" stroke-width="5"/>
<path d="M382.682 59.261L365.94 52.2235L372.977 35.4817" stroke="#6ECCE5" stroke-width="5"/>
<path d="M263.031 165.224C276.848 165.224 288.048 154.024 288.048 140.208C288.048 126.391 276.848 115.191 263.031 115.191C249.215 115.191 238.015 126.391 238.015 140.208C238.015 154.024 249.215 165.224 263.031 165.224Z" fill="white" stroke="#0055DC" stroke-width="2" stroke-miterlimit="10"/>
<path d="M255.138 153.24C256.44 152.524 257.647 151.646 258.729 150.627V144.024L267.427 144.127V150.337C267.824 151.109 269.323 152.057 271.324 153.18C271.324 153.18 267.602 158.731 262.927 158.731C258.252 158.731 255.138 153.24 255.138 153.24Z" fill="#C5EBF5" stroke="#003682" stroke-miterlimit="10"/>
<path d="M263.032 165.225C269.242 165.234 275.232 162.924 279.828 158.748C277.261 156.547 274.418 154.69 271.371 153.224C271.371 153.224 267.602 158.731 262.928 158.731C258.253 158.731 255.113 153.294 255.113 153.294C252.244 154.912 248.724 156.435 246.086 158.607C250.699 162.869 256.751 165.233 263.032 165.225Z" fill="#0055DC" stroke="#003682" stroke-miterlimit="10"/>
<path d="M271.546 123.335C271.546 123.706 270.446 123.994 270.396 124.351C270.346 124.708 271.319 125.304 271.218 125.652C271.117 126 269.98 125.969 269.83 126.3C269.681 126.63 270.448 127.476 270.253 127.782C270.058 128.088 268.979 127.731 268.742 128.007C268.506 128.283 269.009 129.311 268.736 129.55C268.462 129.789 267.527 129.14 267.222 129.338C266.917 129.536 267.117 130.664 266.786 130.817C266.455 130.97 265.743 130.078 265.394 130.183C265.044 130.287 264.924 131.424 264.562 131.476C264.2 131.527 263.77 130.469 263.403 130.469C263.036 130.469 262.598 131.527 262.244 131.476C261.891 131.424 261.756 130.284 261.412 130.183C261.068 130.081 260.35 130.968 260.019 130.816C259.688 130.665 259.887 129.535 259.583 129.338C259.28 129.141 258.343 129.789 258.069 129.55C257.796 129.311 258.3 128.282 258.064 128.006C257.827 127.73 256.749 128.089 256.552 127.781C256.355 127.473 257.126 126.633 256.975 126.299C256.823 125.964 255.69 126.006 255.588 125.652C255.486 125.298 256.457 124.717 256.41 124.351C256.362 123.984 255.26 123.705 255.26 123.335C255.26 122.964 256.359 122.676 256.41 122.318C256.461 121.96 255.487 121.364 255.588 121.017C255.689 120.67 256.825 120.7 256.975 120.369C257.126 120.039 256.357 119.193 256.553 118.886C256.749 118.58 257.827 118.937 258.064 118.662C258.3 118.387 257.797 117.358 258.07 117.119C258.344 116.879 259.279 117.529 259.583 117.331C259.888 117.133 259.689 116.005 260.02 115.852C260.351 115.699 261.062 116.59 261.412 116.487C261.763 116.383 261.882 115.245 262.244 115.193C262.606 115.14 263.036 116.199 263.403 116.199C263.77 116.199 264.208 115.142 264.562 115.193C264.915 115.244 265.05 116.384 265.394 116.487C265.738 116.589 266.456 115.701 266.787 115.852C267.118 116.003 266.919 117.134 267.223 117.331C267.526 117.528 268.463 116.881 268.736 117.12C269.008 117.358 268.505 118.387 268.742 118.662C268.98 118.937 270.057 118.579 270.254 118.887C270.451 119.195 269.68 120.036 269.831 120.37C269.983 120.705 271.116 120.663 271.218 121.017C271.32 121.371 270.349 121.952 270.396 122.318C270.444 122.683 271.546 122.963 271.546 123.335Z" fill="#003682" stroke="#003682"/>
<path d="M271.326 136.37C271.373 136.184 271.459 136.01 271.577 135.859C271.695 135.708 271.844 135.583 272.013 135.493C272.182 135.402 272.368 135.348 272.559 135.333C272.751 135.319 272.943 135.344 273.124 135.408C274.211 135.736 273.599 139.684 270.561 139.544C270.876 138.501 271.131 137.442 271.326 136.37Z" fill="#C5EBF5" stroke="#003682" stroke-miterlimit="10"/>
<path d="M254.734 136.371C254.683 136.181 254.592 136.004 254.469 135.852C254.345 135.699 254.191 135.573 254.017 135.482C253.842 135.392 253.651 135.339 253.454 135.326C253.258 135.313 253.061 135.341 252.877 135.408C251.929 135.793 252.401 139.685 255.442 139.544C255.138 138.503 254.902 137.443 254.734 136.371Z" fill="#C5EBF5" stroke="#003682" stroke-miterlimit="10"/>
<path d="M271.719 132.746C271.719 135.001 270.893 139.594 269.443 142.367C268.367 144.426 265.594 146.717 263.073 146.717C260.552 146.717 258.064 144.426 256.702 142.368C254.976 139.758 254.426 135.001 254.426 132.746C254.426 130.453 255.337 128.254 256.959 126.632C258.58 125.011 260.779 124.1 263.073 124.1C265.366 124.1 267.565 125.011 269.187 126.632C270.808 128.254 271.719 130.453 271.719 132.746Z" fill="#C5EBF5" stroke="#003682" stroke-miterlimit="10"/>
<path d="M271.274 135.585C270.869 132.149 263.403 132.662 261.966 128.817C261.966 128.817 261.966 131.238 260.05 132.662C258.579 133.756 256.696 133.128 256.696 133.128C256.696 133.128 258.58 133.278 259.571 131.691C260.484 130.228 260.05 128.817 260.05 128.817C256.777 129.308 255.119 132.171 254.734 136.286L254.586 136.138C254.396 134.939 254.294 133.728 254.28 132.514C254.28 127.739 258.299 124.015 263.074 124.015C265.383 124.01 267.601 124.914 269.247 126.533C270.893 128.152 271.835 130.354 271.868 132.662C271.823 133.849 271.66 135.029 271.382 136.183L271.274 135.585Z" fill="#003682" stroke="#003682" stroke-width="0.505" stroke-linejoin="round"/>
<path d="M263.031 165.224C276.848 165.224 288.048 154.024 288.048 140.208C288.048 126.391 276.848 115.191 263.031 115.191C249.215 115.191 238.015 126.391 238.015 140.208C238.015 154.024 249.215 165.224 263.031 165.224Z" stroke="#0055DC" stroke-width="3" stroke-miterlimit="10"/>
<defs>
<linearGradient id="paint0_linear_1824_2045" x1="364.023" y1="53.3458" x2="405.4" y2="255.828" gradientUnits="userSpaceOnUse">
<stop stop-color="#6ECCE5"/>
<stop offset="1" stop-color="#0055DC"/>
</linearGradient>
</defs>
</svg>
