<svg xmlns="http://www.w3.org/2000/svg" width="555" height="350" fill="none" viewBox="0 0 555 350"><path fill="#fff" d="M0 0h555v350H0z"/><path stroke="#F6821F" stroke-width="2" d="M19 20h520v309H19z"/><path fill="#fff" d="M52 11h203v18H52z"/><path fill="#222" d="M62.084 15.273V24H60.24v-8.727zm6.93 4.048-1.662.102a.86.86 0 0 0-.183-.383 1 1 0 0 0-.37-.277 1.3 1.3 0 0 0-.542-.107q-.421 0-.712.18-.29.174-.29.468 0 .234.188.396t.644.26l1.184.239q.955.195 1.424.63t.468 1.143q0 .643-.379 1.129-.375.486-1.031.758-.652.27-1.504.269-1.3 0-2.071-.541a2.1 2.1 0 0 1-.9-1.483l1.786-.094a.92.92 0 0 0 .392.605q.31.204.797.205.477 0 .767-.184.294-.187.298-.481a.5.5 0 0 0-.209-.405q-.204-.162-.63-.247l-1.134-.226q-.959-.192-1.427-.665-.465-.473-.465-1.206 0-.63.341-1.086.346-.456.967-.704.627-.247 1.466-.247 1.24 0 1.952.524.716.525.835 1.428m4.25 4.807q-.993 0-1.718-.422a2.9 2.9 0 0 1-1.112-1.185q-.392-.762-.392-1.768 0-1.014.392-1.773a2.85 2.85 0 0 1 1.112-1.184q.725-.427 1.718-.427t1.713.427q.725.421 1.116 1.184.392.759.392 1.773 0 1.006-.392 1.768-.391.758-1.116 1.185-.72.422-1.713.422m.008-1.406q.452 0 .755-.256.302-.26.456-.707.157-.448.157-1.019 0-.57-.157-1.018a1.6 1.6 0 0 0-.456-.708 1.12 1.12 0 0 0-.755-.26q-.456 0-.767.26a1.6 1.6 0 0 0-.464.708 3.1 3.1 0 0 0-.154 1.018q0 .57.154 1.019a1.6 1.6 0 0 0 .464.707q.311.255.767.256m6.21-7.45V24h-1.816v-8.727zm3.32 8.852q-.627 0-1.117-.218a1.8 1.8 0 0 1-.775-.652q-.282-.434-.281-1.082 0-.547.2-.916.2-.37.545-.597t.784-.34q.443-.116.93-.163.57-.06.92-.11.35-.055.507-.162a.36.36 0 0 0 .158-.316v-.025q0-.406-.256-.627-.252-.221-.716-.221-.49 0-.78.217a1 1 0 0 0-.383.537l-1.68-.137q.129-.596.504-1.03.375-.44.967-.674.597-.24 1.38-.239.546 0 1.045.128.503.128.89.396.392.27.618.69t.226 1.002V24h-1.722v-.908h-.05a1.9 1.9 0 0 1-.423.542 2 2 0 0 1-.635.362 2.6 2.6 0 0 1-.856.128m.52-1.253q.4 0 .707-.158.307-.162.482-.435.174-.272.174-.617v-.695a1 1 0 0 1-.234.102 4 4 0 0 1-.328.081q-.183.034-.367.064l-.332.047q-.32.046-.558.15a.9.9 0 0 0-.371.276.68.68 0 0 0-.132.426q0 .37.268.567.273.192.69.192m8.056-5.416v1.363h-3.942v-1.364zm-3.047-1.569h1.815v6.103q0 .25.077.392.076.135.213.191a.9.9 0 0 0 .324.056q.127 0 .256-.021l.196-.039.285 1.351q-.136.042-.383.098a3 3 0 0 1-.601.073q-.657.025-1.15-.175a1.6 1.6 0 0 1-.764-.622q-.271-.423-.268-1.066zm7.142 8.242q-1.01 0-1.739-.41a2.8 2.8 0 0 1-1.116-1.167q-.392-.758-.392-1.794 0-1.01.392-1.773t1.104-1.189q.716-.426 1.679-.426.646 0 1.206.21.561.203.98.617.421.413.656 1.04.234.622.234 1.457v.499H92.95v-1.125h3.819a1.4 1.4 0 0 0-.171-.695 1.2 1.2 0 0 0-.473-.473 1.35 1.35 0 0 0-.695-.175q-.413 0-.733.192-.315.187-.494.507-.18.316-.183.703v1.07q0 .486.179.84.183.353.516.545.332.192.788.192.302 0 .554-.085.25-.085.43-.256t.273-.418l1.679.111q-.128.605-.524 1.057-.393.447-1.014.699-.618.247-1.428.247m8.833-.004a2.7 2.7 0 0 1-1.117-.218 1.8 1.8 0 0 1-.775-.652q-.282-.434-.282-1.082 0-.547.201-.916.2-.37.545-.597t.784-.34q.444-.116.929-.163.572-.06.921-.11.35-.055.507-.162a.36.36 0 0 0 .157-.316v-.025q0-.406-.255-.627-.252-.221-.716-.221-.49 0-.78.217a1 1 0 0 0-.383.537l-1.679-.137q.127-.596.502-1.03.375-.44.968-.674.596-.24 1.38-.239.546 0 1.044.128.504.128.891.396.391.27.618.69t.226 1.002V24h-1.722v-.908h-.051a1.9 1.9 0 0 1-.422.542 2 2 0 0 1-.635.362 2.6 2.6 0 0 1-.856.128m.52-1.253q.4 0 .707-.158.307-.162.482-.435.174-.272.174-.617v-.695a1 1 0 0 1-.234.102 4 4 0 0 1-.328.081q-.184.034-.367.064l-.332.047a2.3 2.3 0 0 0-.558.15.9.9 0 0 0-.371.276.68.68 0 0 0-.132.426q0 .37.268.567.273.192.691.192m6.39-7.598V24H109.4v-8.727zm3.269 0V24h-1.815v-8.727zm9.678 4.048-1.662.102a.86.86 0 0 0-.184-.383 1 1 0 0 0-.37-.277 1.3 1.3 0 0 0-.541-.107q-.423 0-.712.18-.29.174-.29.468 0 .234.188.396.187.162.643.26l1.185.239q.954.195 1.423.63t.469 1.143q0 .643-.379 1.129-.375.486-1.032.758-.651.27-1.504.269-1.3 0-2.071-.541a2.1 2.1 0 0 1-.899-1.483l1.785-.094a.92.92 0 0 0 .392.605q.311.204.797.205.477 0 .767-.184.294-.187.299-.481a.5.5 0 0 0-.209-.405q-.205-.162-.631-.247l-1.133-.226q-.96-.192-1.428-.665-.464-.473-.464-1.206 0-.63.34-1.086.346-.456.968-.704.626-.247 1.466-.247 1.24 0 1.951.524.716.525.836 1.428m4.249 4.807q-.993 0-1.717-.422a2.9 2.9 0 0 1-1.112-1.185q-.393-.762-.392-1.768 0-1.014.392-1.773a2.85 2.85 0 0 1 1.112-1.184q.724-.427 1.717-.427t1.713.427a2.85 2.85 0 0 1 1.117 1.184q.392.759.392 1.773 0 1.006-.392 1.768-.393.758-1.117 1.185-.72.422-1.713.422m.009-1.406q.451 0 .754-.256.303-.26.456-.707.158-.448.158-1.019 0-.57-.158-1.018a1.6 1.6 0 0 0-.456-.708 1.12 1.12 0 0 0-.754-.26q-.456 0-.767.26-.308.261-.465.708a3.1 3.1 0 0 0-.153 1.018q0 .57.153 1.019.157.447.465.707.31.255.767.256m7.351 1.406q-1.006 0-1.73-.426a2.87 2.87 0 0 1-1.108-1.194q-.384-.762-.384-1.755 0-1.006.388-1.764a2.9 2.9 0 0 1 1.112-1.19q.72-.43 1.713-.43.857 0 1.5.311.644.312 1.019.874t.413 1.321h-1.713q-.072-.49-.384-.788-.307-.303-.805-.303-.422 0-.737.23-.312.225-.486.66-.175.435-.175 1.053 0 .627.171 1.066.174.438.49.669.315.23.737.23.31 0 .558-.128.252-.128.414-.37.166-.248.217-.593h1.713q-.042.75-.409 1.32a2.47 2.47 0 0 1-1.002.887q-.639.32-1.512.32m4.085-.128v-6.546h1.816V24zm.912-7.39a.98.98 0 0 1-.694-.268.87.87 0 0 1-.286-.652.85.85 0 0 1 .286-.643.98.98 0 0 1 .694-.273q.405 0 .691.273a.85.85 0 0 1 .289.643q0 .38-.289.652a.97.97 0 0 1-.691.269m4.224 7.514q-.626 0-1.116-.218a1.8 1.8 0 0 1-.776-.652q-.28-.434-.281-1.082 0-.547.2-.916.201-.37.546-.597t.784-.34q.443-.116.929-.163.57-.06.92-.11.35-.055.507-.162a.36.36 0 0 0 .158-.316v-.025q0-.406-.256-.627-.25-.221-.716-.221-.49 0-.779.217a1 1 0 0 0-.384.537l-1.679-.137a2.3 2.3 0 0 1 .503-1.03 2.4 2.4 0 0 1 .967-.674q.597-.24 1.381-.239.546 0 1.044.128.502.128.891.396.392.27.617.69.226.42.226 1.002V24h-1.721v-.908h-.051a1.9 1.9 0 0 1-.422.542 2 2 0 0 1-.635.362 2.6 2.6 0 0 1-.857.128m.52-1.253q.4 0 .708-.158.307-.162.481-.435.175-.272.175-.617v-.695a1 1 0 0 1-.235.102 4 4 0 0 1-.328.081 16 16 0 0 1-.366.064l-.333.047a2.3 2.3 0 0 0-.558.15.9.9 0 0 0-.371.276.68.68 0 0 0-.132.426q0 .37.269.567.273.192.69.192m6.39-7.598V24h-1.815v-8.727zM156.135 24v-6.546h1.73v1.155h.076a1.82 1.82 0 0 1 .682-.907q.477-.333 1.142-.333.673 0 1.147.337.472.333.63.903h.068q.2-.562.725-.899.528-.34 1.248-.34.917 0 1.488.583.575.58.575 1.645V24h-1.811v-4.044q0-.546-.29-.818a1.02 1.02 0 0 0-.724-.273q-.495 0-.772.315-.276.312-.277.823V24h-1.76v-4.082q0-.482-.277-.767-.272-.285-.72-.286a1 1 0 0 0-.545.154q-.239.149-.379.421-.141.27-.141.631V24zm13.928.128q-1.01 0-1.739-.41a2.8 2.8 0 0 1-1.116-1.167q-.393-.758-.392-1.794 0-1.01.392-1.773a2.9 2.9 0 0 1 1.103-1.189q.717-.426 1.679-.426.648 0 1.206.21.563.203.98.617.422.413.657 1.04.234.622.234 1.457v.499h-5.527v-1.125h3.818q0-.392-.17-.695a1.2 1.2 0 0 0-.473-.473 1.35 1.35 0 0 0-.695-.175q-.413 0-.733.192-.315.187-.494.507-.178.316-.183.703v1.07q0 .486.179.84.183.353.515.545.333.192.789.192.302 0 .554-.085a1.15 1.15 0 0 0 .43-.256q.178-.17.273-.418l1.679.111q-.128.605-.524 1.057-.393.447-1.015.699-.618.247-1.427.247m6.601-.021a2.47 2.47 0 0 1-1.351-.384q-.601-.388-.955-1.138-.35-.755-.349-1.85 0-1.125.362-1.87.363-.75.963-1.12.606-.375 1.325-.376.55 0 .917.188.37.183.596.46.23.272.35.537h.055v-3.281h1.811V24h-1.79v-1.048h-.076a2.4 2.4 0 0 1-.363.54 1.8 1.8 0 0 1-.6.44q-.367.175-.895.175m.575-1.445q.44 0 .741-.239a1.5 1.5 0 0 0 .469-.677q.166-.435.166-1.019t-.162-1.014a1.45 1.45 0 0 0-.468-.665 1.2 1.2 0 0 0-.746-.234q-.448 0-.754.243-.308.243-.465.673t-.157.997q0 .572.157 1.01.162.435.465.682.306.243.754.243M181.881 24v-6.546h1.815V24zm.912-7.39a1 1 0 0 1-.695-.268.87.87 0 0 1-.286-.652q0-.375.286-.643a.98.98 0 0 1 .695-.273q.405 0 .69.273.29.268.29.643 0 .38-.29.652a.97.97 0 0 1-.69.269m4.224 7.514a2.7 2.7 0 0 1-1.117-.218 1.8 1.8 0 0 1-.775-.652q-.282-.434-.282-1.082 0-.547.201-.916.2-.37.545-.597t.784-.34q.443-.116.929-.163.571-.06.921-.11.35-.055.507-.162a.36.36 0 0 0 .157-.316v-.025q0-.406-.255-.627-.252-.221-.716-.221-.49 0-.78.217a1 1 0 0 0-.384.537l-1.678-.137q.127-.596.502-1.03.375-.44.968-.674.596-.24 1.38-.239.546 0 1.044.128.503.128.891.396.392.27.618.69t.226 1.002V24h-1.722v-.908h-.051a1.9 1.9 0 0 1-.422.542 2 2 0 0 1-.635.362 2.6 2.6 0 0 1-.856.128m.52-1.253q.4 0 .707-.158.307-.162.481-.435.175-.272.175-.617v-.695a1 1 0 0 1-.234.102 4 4 0 0 1-.328.081q-.184.034-.367.064l-.332.047a2.3 2.3 0 0 0-.558.15.9.9 0 0 0-.371.276.68.68 0 0 0-.132.426q0 .37.268.567.273.192.691.192M196.18 24l-1.782-6.546h1.837l1.014 4.398h.06l1.057-4.398h1.802l1.074 4.373h.056l.997-4.373h1.832L202.35 24h-1.922l-1.125-4.116h-.081L198.097 24zm11.734.128q-1.01 0-1.738-.41a2.8 2.8 0 0 1-1.117-1.167q-.392-.758-.392-1.794 0-1.01.392-1.773.393-.762 1.104-1.189.716-.426 1.679-.426.648 0 1.206.21.563.203.98.617.422.413.656 1.04.235.622.235 1.457v.499h-5.527v-1.125h3.818q0-.392-.171-.695a1.2 1.2 0 0 0-.473-.473 1.35 1.35 0 0 0-.694-.175q-.414 0-.733.192-.315.187-.494.507-.18.316-.184.703v1.07q0 .486.179.84.183.353.516.545.332.192.788.192.303 0 .554-.085t.431-.256q.179-.17.272-.418l1.679.111q-.128.605-.524 1.057a2.6 2.6 0 0 1-1.014.699q-.618.247-1.428.247m4.223-.128v-8.727h1.816v3.281h.055q.12-.264.345-.537.231-.277.597-.46.37-.188.92-.188.717 0 1.321.375.605.37.968 1.121.362.745.362 1.87 0 1.095-.354 1.85-.35.75-.954 1.138-.602.384-1.347.384-.528 0-.899-.175a1.9 1.9 0 0 1-.601-.44 2.3 2.3 0 0 1-.358-.54h-.081V24zm1.777-3.273q0 .584.162 1.019t.469.677q.307.24.746.239.442 0 .75-.243.306-.247.464-.682.162-.438.162-1.01 0-.567-.157-.997a1.5 1.5 0 0 0-.465-.673 1.18 1.18 0 0 0-.754-.243q-.444 0-.75.234a1.47 1.47 0 0 0-.465.665 2.9 2.9 0 0 0-.162 1.014m11.264-1.406-1.662.102a.85.85 0 0 0-.183-.383 1 1 0 0 0-.371-.277 1.3 1.3 0 0 0-.541-.107q-.422 0-.711.18-.29.174-.29.468 0 .234.187.396.188.162.644.26l1.184.239q.955.195 1.424.63t.468 1.143q0 .643-.379 1.129-.375.486-1.031.758-.652.27-1.504.269-1.3 0-2.071-.541a2.1 2.1 0 0 1-.9-1.483l1.786-.094a.92.92 0 0 0 .392.605q.31.204.797.205.477 0 .767-.184.294-.187.298-.481a.5.5 0 0 0-.209-.405q-.204-.162-.63-.247l-1.134-.226q-.959-.192-1.427-.665-.465-.473-.465-1.206 0-.63.341-1.086.345-.456.967-.704.627-.247 1.466-.247 1.24 0 1.952.524.716.525.835 1.428M226.471 24v-6.546h1.815V24zm.911-7.39a1 1 0 0 1-.694-.268.87.87 0 0 1-.286-.652q0-.375.286-.643a.98.98 0 0 1 .694-.273q.405 0 .691.273.29.268.29.643 0 .38-.29.652a.97.97 0 0 1-.691.269m5.84.845v1.363h-3.942v-1.364zm-3.047-1.569h1.815v6.103a.8.8 0 0 0 .077.392q.077.135.213.191a.9.9 0 0 0 .324.056q.127 0 .255-.021l.196-.039.286 1.351a5 5 0 0 1-.384.098q-.247.06-.6.073-.656.025-1.151-.175a1.6 1.6 0 0 1-.763-.622q-.273-.423-.268-1.066zm7.142 8.242q-1.01 0-1.739-.41a2.8 2.8 0 0 1-1.116-1.167q-.392-.758-.392-1.794 0-1.01.392-1.773a2.9 2.9 0 0 1 1.103-1.189q.716-.426 1.679-.426.648 0 1.206.21.563.203.98.617.422.413.657 1.04.234.622.234 1.457v.499h-5.527v-1.125h3.818q0-.392-.17-.695a1.23 1.23 0 0 0-.473-.473 1.35 1.35 0 0 0-.695-.175q-.413 0-.733.192-.315.187-.494.507-.18.316-.183.703v1.07q0 .486.179.84.183.353.515.545.333.192.789.192.302 0 .554-.085a1.15 1.15 0 0 0 .43-.256q.179-.17.273-.418l1.679.111q-.129.605-.524 1.057-.393.447-1.015.699-.618.247-1.427.247m9.635-4.807-1.662.102a.9.9 0 0 0-.183-.383 1 1 0 0 0-.371-.277 1.3 1.3 0 0 0-.541-.107q-.423 0-.712.18-.29.174-.29.468 0 .234.188.396.187.162.643.26l1.185.239q.954.195 1.423.63t.469 1.143q0 .643-.379 1.129-.375.486-1.032.758-.651.27-1.504.269-1.3 0-2.071-.541a2.1 2.1 0 0 1-.899-1.483l1.785-.094a.92.92 0 0 0 .392.605q.311.204.797.205.478 0 .767-.184.294-.187.299-.481a.5.5 0 0 0-.209-.405q-.205-.162-.631-.247l-1.133-.226q-.96-.192-1.428-.665-.464-.473-.464-1.206 0-.63.341-1.086.345-.456.967-.704.626-.247 1.466-.247 1.24 0 1.951.524.716.525.836 1.428M36.426 46.794v-1.521h7.168v1.521h-2.672V54h-1.824v-7.206zM44.06 54v-6.545h1.76v1.142h.069q.18-.61.6-.92a1.58 1.58 0 0 1 .972-.316 3 3 0 0 1 .571.064v1.61a2.4 2.4 0 0 0-.354-.068q-.225-.03-.413-.03-.4 0-.716.175a1.3 1.3 0 0 0-.494.477q-.18.307-.18.708V54zm6.59.124q-.627 0-1.117-.218a1.8 1.8 0 0 1-.776-.652q-.28-.434-.28-1.082 0-.547.2-.916.2-.371.545-.597t.784-.34q.443-.117.929-.163.571-.06.92-.11.35-.056.508-.163a.36.36 0 0 0 .157-.315v-.025q0-.406-.255-.627-.252-.22-.716-.221-.49 0-.78.217a1 1 0 0 0-.384.537l-1.679-.136q.128-.597.503-1.032.376-.438.967-.673.597-.24 1.381-.239.546 0 1.044.128.503.128.89.397.393.268.619.69.225.417.226 1.001V54h-1.722v-.908h-.051a1.9 1.9 0 0 1-.422.541 2 2 0 0 1-.635.363 2.6 2.6 0 0 1-.856.128m.52-1.253q.4 0 .707-.158.306-.162.481-.435a1.1 1.1 0 0 0 .175-.617v-.695a1 1 0 0 1-.234.102 4 4 0 0 1-.328.081q-.184.034-.367.064l-.332.047q-.32.046-.559.15a.9.9 0 0 0-.37.276.68.68 0 0 0-.132.426q0 .37.268.567.273.192.69.192m8.094-5.416v1.363h-4.04v-1.363zM56.149 54v-7.019q0-.71.277-1.18a1.8 1.8 0 0 1 .767-.703 2.5 2.5 0 0 1 1.104-.234q.417-.001.762.064.35.063.52.115l-.324 1.363a2 2 0 0 0-.264-.064 1.7 1.7 0 0 0-.315-.03q-.4 0-.559.188-.157.183-.157.516V54zm7.744-6.545v1.363h-4.04v-1.363zM60.778 54v-7.019q0-.71.277-1.18a1.8 1.8 0 0 1 .767-.703 2.5 2.5 0 0 1 1.103-.234q.418-.001.763.064.35.063.52.115l-.324 1.363a2 2 0 0 0-.264-.064 1.7 1.7 0 0 0-.315-.03q-.4 0-.559.188-.157.183-.157.516V54zm4.224 0v-6.545h1.815V54zm.912-7.39a1 1 0 0 1-.695-.268.87.87 0 0 1-.285-.652q0-.375.285-.643a.98.98 0 0 1 .695-.273q.405 0 .69.273.29.268.29.643 0 .38-.29.652a.97.97 0 0 1-.69.269m5.315 7.518q-1.006 0-1.73-.426a2.9 2.9 0 0 1-1.108-1.194q-.384-.762-.384-1.755 0-1.006.388-1.764a2.9 2.9 0 0 1 1.112-1.19q.72-.43 1.713-.43.856 0 1.5.311.645.312 1.019.874t.413 1.321h-1.713q-.072-.49-.384-.788-.306-.303-.805-.303-.422 0-.737.23-.312.225-.486.66-.175.435-.175 1.053 0 .627.17 1.066.175.438.49.669.316.23.738.23.311 0 .558-.128.252-.128.414-.37a1.4 1.4 0 0 0 .217-.593h1.713q-.042.75-.41 1.32a2.47 2.47 0 0 1-1 .887q-.64.32-1.513.32M47.415 84h-1.108l3.204-8.727h1.091L53.807 84h-1.108l-2.608-7.347h-.068zm.409-3.41h4.466v.938h-4.466zm7.206 5.864v-9H56v1.04h.12q.11-.17.307-.434.2-.269.57-.478.375-.213 1.015-.213.826 0 1.457.414.63.413.985 1.171.353.76.353 1.79 0 1.04-.353 1.803-.354.759-.98 1.176-.627.413-1.445.413-.63 0-1.01-.208a1.9 1.9 0 0 1-.584-.482 7 7 0 0 1-.315-.452h-.086v3.46zm.989-5.727q0 .742.217 1.308.217.564.635.883.418.315 1.023.315.63 0 1.052-.332.426-.337.64-.904.216-.57.217-1.27 0-.69-.213-1.244a1.9 1.9 0 0 0-.636-.882q-.42-.328-1.06-.328-.614 0-1.032.31a1.87 1.87 0 0 0-.63.862q-.213.55-.213 1.282m6.323 5.727v-9h.972v1.04h.12q.11-.17.306-.434.2-.269.571-.478.375-.213 1.014-.213.827 0 1.458.414.63.413.984 1.171.354.76.354 1.79 0 1.04-.354 1.803-.353.759-.98 1.176-.627.413-1.445.413-.63 0-1.01-.208a1.9 1.9 0 0 1-.583-.482 7 7 0 0 1-.316-.452h-.085v3.46zm.989-5.727q0 .742.217 1.308.218.564.635.883.418.315 1.023.315.63 0 1.052-.332.427-.337.64-.904.217-.57.217-1.27 0-.69-.213-1.244a1.9 1.9 0 0 0-.635-.882q-.422-.328-1.061-.328-.614 0-1.031.31a1.87 1.87 0 0 0-.631.862q-.213.55-.213 1.282m7.33-5.454V84h-1.006v-8.727zM72.502 84v-6.546h1.006V84zm.512-7.636a.72.72 0 0 1-.507-.2.64.64 0 0 1-.21-.482q0-.281.21-.482a.72.72 0 0 1 .507-.2.7.7 0 0 1 .503.2.64.64 0 0 1 .213.482.64.64 0 0 1-.213.481.7.7 0 0 1-.503.2m4.995 7.772q-.92 0-1.585-.434a2.83 2.83 0 0 1-1.023-1.198q-.357-.763-.358-1.743 0-.996.367-1.76.37-.766 1.031-1.197.665-.435 1.551-.435.69 0 1.245.256.553.256.907.716.353.46.44 1.074h-1.007a1.56 1.56 0 0 0-.51-.793q-.393-.35-1.058-.35-.588 0-1.031.307a2 2 0 0 0-.686.857q-.243.55-.243 1.291 0 .759.239 1.321.243.562.681.874.444.31 1.04.311.393 0 .712-.136.32-.137.541-.392.222-.256.315-.614h1.006a2.33 2.33 0 0 1-1.304 1.777q-.546.268-1.27.268m5.97.017a2.7 2.7 0 0 1-1.129-.234 1.94 1.94 0 0 1-.805-.686q-.3-.452-.299-1.091 0-.562.222-.912.222-.353.592-.554.371-.2.819-.298.45-.102.907-.162.597-.077.968-.115.374-.043.545-.14.174-.099.175-.342v-.034q0-.63-.345-.98-.342-.35-1.036-.35-.72 0-1.13.316-.408.315-.575.673l-.954-.34q.255-.597.682-.93.431-.336.937-.468.511-.137 1.006-.137.316 0 .724.077.414.073.797.303.388.23.644.694.255.465.255 1.245V84h-1.005v-.886h-.051a1.8 1.8 0 0 1-.341.456q-.24.243-.635.413-.396.17-.968.17m.154-.903q.597 0 1.005-.234a1.6 1.6 0 0 0 .836-1.385v-.92q-.065.075-.282.14a5 5 0 0 1-.494.106 22 22 0 0 1-.963.128q-.392.052-.733.166a1.26 1.26 0 0 0-.545.337q-.205.222-.205.605 0 .525.388.793.391.264.993.264m7.529-5.796v.853h-3.393v-.853zm-2.404-1.568h1.006v6.239q0 .426.123.64a.64.64 0 0 0 .324.28q.2.069.422.069.167 0 .273-.017l.17-.034.205.903a2 2 0 0 1-.286.077 2 2 0 0 1-.464.042q-.427 0-.835-.183a1.66 1.66 0 0 1-.674-.558q-.264-.376-.264-.946zM93.174 84v-6.546h1.006V84zm.512-7.636a.72.72 0 0 1-.507-.2.64.64 0 0 1-.21-.482q0-.281.21-.482a.72.72 0 0 1 .507-.2.7.7 0 0 1 .503.2.64.64 0 0 1 .213.482.64.64 0 0 1-.213.481.7.7 0 0 1-.503.2m4.995 7.772q-.886 0-1.555-.421a2.87 2.87 0 0 1-1.04-1.18q-.37-.76-.37-1.774 0-1.022.37-1.785a2.86 2.86 0 0 1 1.04-1.185q.669-.422 1.555-.422t1.551.422a2.8 2.8 0 0 1 1.04 1.185q.375.762.375 1.785 0 1.015-.375 1.773-.37.76-1.04 1.18-.665.422-1.55.422m0-.903q.673 0 1.108-.345.434-.345.644-.908a3.5 3.5 0 0 0 .208-1.219q0-.656-.208-1.223a2.07 2.07 0 0 0-.644-.916q-.435-.35-1.108-.35t-1.108.35a2.06 2.06 0 0 0-.643.916 3.5 3.5 0 0 0-.21 1.223q0 .656.21 1.22.208.561.643.907.436.345 1.108.345m5.507-3.17V84h-1.006v-6.546h.972v1.023h.085q.23-.499.699-.8.468-.308 1.21-.308.665 0 1.163.273.499.269.776.818.277.546.277 1.38V84h-1.006v-4.09q0-.772-.4-1.203-.4-.434-1.1-.434-.482 0-.86.209-.375.209-.593.609t-.217.972m63.925-4.79V84h-1.057v-8.727zm2.988 4.79V84h-1.006v-6.546h.972v1.023h.085q.23-.499.699-.8.469-.308 1.21-.308.665 0 1.163.273.499.269.776.818.277.546.277 1.38V84h-1.006v-4.09q0-.772-.4-1.203-.4-.434-1.1-.434-.482 0-.86.209-.375.209-.593.609t-.217.972"/><path stroke="#C4C4C4" d="M36 59.5h487"/><path fill="#222" d="M38.263 154h-1.977l3.012-8.727h2.378L44.685 154h-1.978l-2.186-6.733h-.068zm-.124-3.43h4.67v1.44h-4.67zm10.215 3.558q-1.006 0-1.73-.426a2.9 2.9 0 0 1-1.108-1.193q-.384-.763-.384-1.756 0-1.006.388-1.764a2.9 2.9 0 0 1 1.112-1.189q.72-.43 1.713-.431.856 0 1.5.311.645.312 1.019.874.375.562.413 1.321h-1.713q-.072-.49-.384-.788-.307-.303-.805-.303a1.22 1.22 0 0 0-.737.23q-.312.226-.486.661-.175.434-.175 1.052 0 .627.17 1.066.175.438.49.669.317.23.738.23a1.2 1.2 0 0 0 .558-.128q.252-.128.414-.371a1.4 1.4 0 0 0 .217-.592h1.713q-.042.75-.41 1.321a2.47 2.47 0 0 1-1 .886q-.64.32-1.513.32m7.567-6.673v1.363h-3.942v-1.363zm-3.047-1.569h1.815v6.103q0 .25.077.392a.42.42 0 0 0 .213.191.9.9 0 0 0 .324.056q.127 0 .256-.021l.196-.039.285 1.351q-.136.042-.383.098-.247.06-.601.072-.657.026-1.15-.174a1.6 1.6 0 0 1-.764-.622q-.271-.423-.268-1.066zm4.23 8.114v-6.545h1.815V154zm.911-7.389a1 1 0 0 1-.694-.269.87.87 0 0 1-.286-.652q0-.375.286-.643a.98.98 0 0 1 .694-.273q.405 0 .69.273.29.268.29.643a.86.86 0 0 1-.29.652.97.97 0 0 1-.69.269m5.315 7.517q-.993 0-1.717-.422a2.9 2.9 0 0 1-1.112-1.185q-.392-.763-.392-1.768 0-1.014.392-1.773a2.86 2.86 0 0 1 1.112-1.185q.724-.426 1.717-.426t1.713.426q.724.423 1.117 1.185.392.759.392 1.773 0 1.005-.392 1.768a2.9 2.9 0 0 1-1.117 1.185q-.72.422-1.713.422m.009-1.406q.45 0 .754-.256.303-.26.456-.707a3 3 0 0 0 .158-1.019q0-.571-.158-1.018a1.6 1.6 0 0 0-.456-.708 1.12 1.12 0 0 0-.754-.26q-.456 0-.767.26-.307.26-.465.708a3.1 3.1 0 0 0-.153 1.018q0 .571.153 1.019.157.447.465.707.31.256.767.256m6.209-2.506V154h-1.816v-6.545h1.73v1.154h.077q.218-.57.729-.903.51-.337 1.24-.337.68 0 1.189.299.507.298.788.852.282.55.281 1.312V154h-1.815v-3.844q.004-.6-.307-.937-.311-.341-.856-.341-.367 0-.648.158-.278.157-.435.46a1.6 1.6 0 0 0-.157.72"/><path stroke="#C4C4C4" d="M36 159.5h487"/><path fill="#222" d="M41.493 217.783q-.05-.516-.439-.801t-1.053-.286q-.45 0-.762.128a1.07 1.07 0 0 0-.478.345.83.83 0 0 0-.162.503.7.7 0 0 0 .098.409q.111.174.303.303.192.123.443.217.252.09.537.153l.784.188q.57.128 1.048.341t.827.524q.35.311.541.733.197.421.2.967-.004.801-.408 1.389-.4.585-1.16.908-.753.32-1.82.32-1.056 0-1.84-.324a2.7 2.7 0 0 1-1.219-.959q-.434-.639-.456-1.581h1.786q.03.44.251.733.225.29.601.439.379.144.857.145.468 0 .813-.137.35-.136.542-.379a.88.88 0 0 0 .192-.558.72.72 0 0 0-.175-.494 1.3 1.3 0 0 0-.503-.341 5 5 0 0 0-.806-.256l-.95-.239q-1.103-.269-1.743-.839-.639-.572-.635-1.539-.004-.792.422-1.384.43-.593 1.18-.925t1.705-.333q.972 0 1.696.333.729.332 1.134.925.405.591.417 1.372zm6.078 6.345q-1.01 0-1.739-.409a2.8 2.8 0 0 1-1.116-1.168q-.392-.759-.392-1.794 0-1.01.392-1.773.391-.762 1.103-1.189.715-.426 1.68-.426.647 0 1.205.209.563.204.98.618.422.414.657 1.04.234.622.234 1.457v.499h-5.527v-1.125h3.818q0-.393-.17-.695a1.2 1.2 0 0 0-.473-.473 1.35 1.35 0 0 0-.695-.175q-.414 0-.733.192-.315.188-.494.507-.179.316-.184.703v1.07q0 .486.18.84.183.353.515.545.333.192.788.192.303 0 .554-.085t.43-.256q.18-.17.274-.418l1.679.111q-.128.605-.525 1.057-.39.447-1.014.699-.618.246-1.427.247m7.67-6.673v1.363H51.3v-1.363zm-3.047-1.569h1.816v6.103a.8.8 0 0 0 .076.392.42.42 0 0 0 .213.191.9.9 0 0 0 .324.056q.128 0 .256-.021l.196-.039.285 1.351q-.135.042-.383.098-.248.06-.6.072-.657.026-1.152-.174a1.6 1.6 0 0 1-.762-.622q-.273-.423-.269-1.066zm7.711 1.569v1.363h-3.942v-1.363zm-3.047-1.569h1.816v6.103q0 .25.076.392a.42.42 0 0 0 .213.191.9.9 0 0 0 .324.056q.128 0 .256-.021l.196-.039.286 1.351q-.137.042-.384.098-.248.06-.6.072-.657.026-1.151-.174a1.6 1.6 0 0 1-.763-.622q-.273-.423-.269-1.066zm4.23 8.114v-6.545h1.815V224zm.912-7.389a1 1 0 0 1-.695-.269.87.87 0 0 1-.285-.652q0-.375.285-.643a.98.98 0 0 1 .695-.273q.405 0 .69.273.29.268.29.643a.86.86 0 0 1-.29.652.97.97 0 0 1-.69.269m4.173 3.605V224h-1.816v-6.545h1.73v1.154h.077q.218-.57.729-.903.51-.337 1.24-.337.68 0 1.189.299.507.298.788.852.282.55.281 1.312V224h-1.815v-3.844q.004-.6-.307-.937-.311-.341-.856-.341-.367 0-.648.158-.278.157-.435.46a1.6 1.6 0 0 0-.157.72m8.598 6.375q-.882 0-1.513-.243-.626-.238-.997-.652a2 2 0 0 1-.481-.929l1.678-.226q.078.196.243.367.167.17.44.272.276.107.673.107.593 0 .975-.29.388-.285.388-.959v-1.197H76.1q-.118.273-.357.516a1.8 1.8 0 0 1-.614.396q-.375.153-.895.153a2.7 2.7 0 0 1-1.342-.341q-.6-.345-.96-1.052-.353-.712-.353-1.799 0-1.112.362-1.857.363-.747.963-1.117a2.5 2.5 0 0 1 1.326-.371q.55 0 .92.188.37.183.597.46.23.273.353.537h.069v-1.099h1.802v6.609q0 .835-.409 1.398t-1.133.843q-.72.286-1.658.286m.038-4.048q.44 0 .742-.218.306-.221.468-.63.167-.414.167-.989 0-.576-.162-.997a1.46 1.46 0 0 0-.469-.661 1.2 1.2 0 0 0-.746-.234q-.448 0-.754.243-.308.238-.464.665a2.8 2.8 0 0 0-.158.984q0 .567.158.98.162.409.464.635.307.222.754.222m10.053-3.222-1.662.102a.86.86 0 0 0-.183-.383 1 1 0 0 0-.371-.277 1.3 1.3 0 0 0-.541-.107q-.423 0-.712.179-.29.175-.29.469 0 .234.188.396t.643.26l1.185.239q.954.196 1.423.631.47.434.469 1.142 0 .643-.38 1.129-.375.486-1.03.758-.653.269-1.505.269-1.3 0-2.07-.541a2.1 2.1 0 0 1-.9-1.483l1.786-.094a.92.92 0 0 0 .392.605q.311.204.796.205.478 0 .768-.184.294-.187.298-.481a.5.5 0 0 0-.209-.405q-.205-.162-.63-.247l-1.134-.226q-.96-.191-1.428-.665-.465-.472-.464-1.206 0-.63.34-1.086.345-.456.968-.704.627-.246 1.466-.247 1.24 0 1.952.524.715.525.835 1.428"/><path stroke="#C4C4C4" d="M36 229.5h487"/><rect width="106" height="21" x="36.5" y="68.5" stroke="#000" stroke-linejoin="round" rx="3.5"/><rect width="85" height="22" x="225" y="73" fill="#EDECEC" rx="4"/><rect width="286" height="64" x="216.5" y="68.5" stroke="#000" stroke-linejoin="round" rx="3.5"/><rect width="45" height="21" x="156.5" y="68.5" stroke="#000" stroke-linejoin="round" rx="3.5"/><path fill="#D9D9D9" d="m133.5 83-3.897-6.75h7.794z"/><path fill="#222" d="M48.114 175.273V184h-1.057v-8.727zm6.619 3.647-.904.256a1.7 1.7 0 0 0-.251-.439 1.2 1.2 0 0 0-.443-.358q-.282-.14-.72-.14-.601 0-1.002.277-.396.272-.396.694 0 .375.272.593.273.216.853.362l.971.238q.879.214 1.309.652.43.435.43 1.121 0 .562-.324 1.006a2.16 2.16 0 0 1-.895.699q-.575.255-1.338.255-1.001 0-1.658-.434-.656-.435-.83-1.27l.954-.239q.136.529.516.793.384.264 1.001.264.703 0 1.117-.298.417-.303.417-.725a.76.76 0 0 0-.238-.571q-.24-.234-.733-.349l-1.091-.256q-.9-.213-1.321-.66-.418-.452-.418-1.13 0-.554.311-.98.315-.426.857-.669a3 3 0 0 1 1.235-.243q.972 0 1.526.426.558.428.793 1.125m4.292 5.216q-.887 0-1.556-.422a2.86 2.86 0 0 1-1.04-1.18q-.37-.759-.37-1.773 0-1.022.37-1.785.375-.763 1.04-1.185.67-.422 1.556-.422t1.551.422q.67.421 1.04 1.185.375.763.375 1.785 0 1.014-.375 1.773a2.8 2.8 0 0 1-1.04 1.18q-.664.423-1.551.422m0-.903q.673 0 1.108-.345t.643-.908q.21-.562.21-1.219 0-.656-.21-1.223a2.07 2.07 0 0 0-.643-.916q-.435-.35-1.108-.349-.673 0-1.108.349-.434.35-.644.916-.208.567-.208 1.223t.208 1.219.644.908 1.108.345m5.507-7.96V184h-1.006v-8.727zm3.768 8.88q-.622 0-1.13-.234a1.94 1.94 0 0 1-.805-.686q-.298-.452-.298-1.091 0-.562.221-.912.222-.353.593-.554.37-.2.818-.298.452-.102.907-.162.596-.077.968-.115.375-.043.545-.141.175-.098.175-.341v-.034q0-.63-.345-.98-.341-.35-1.036-.349-.72 0-1.129.315-.409.316-.575.673l-.955-.341q.255-.596.682-.929.43-.336.938-.468a4 4 0 0 1 1.005-.137 4 4 0 0 1 .725.077q.412.072.797.303.387.23.643.694.255.465.256 1.245V184h-1.006v-.886h-.051a1.8 1.8 0 0 1-.341.456 2 2 0 0 1-.635.413q-.397.17-.967.17m.153-.903q.597 0 1.006-.234.413-.235.622-.605.213-.372.213-.78v-.921q-.064.077-.281.141-.213.06-.495.106a21 21 0 0 1-.963.128 4 4 0 0 0-.733.166 1.26 1.26 0 0 0-.545.337q-.204.221-.205.605 0 .525.388.793.393.264.993.264m7.529-5.795v.852H72.59v-.852zm-2.403-1.569h1.005v6.239q0 .426.124.639a.64.64 0 0 0 .324.281q.2.069.422.069.165 0 .272-.017l.17-.035.205.904a2.2 2.2 0 0 1-.75.119q-.426 0-.835-.183a1.66 1.66 0 0 1-.673-.558q-.265-.376-.264-.946zm6.59 8.25q-.946 0-1.632-.417a2.8 2.8 0 0 1-1.053-1.176q-.366-.759-.366-1.765t.366-1.772q.37-.772 1.031-1.202.665-.435 1.551-.435.512 0 1.01.171.499.17.908.554.41.38.652 1.005.243.627.243 1.543v.426h-5.046v-.869h4.023a2.15 2.15 0 0 0-.221-.989 1.67 1.67 0 0 0-.623-.686 1.75 1.75 0 0 0-.946-.251q-.6 0-1.04.298-.435.294-.668.767a2.25 2.25 0 0 0-.235 1.014v.58q0 .741.256 1.257.26.512.72.78.46.264 1.07.264.395 0 .716-.111a1.5 1.5 0 0 0 .558-.341q.234-.23.362-.571l.972.273a2.16 2.16 0 0 1-.516.869q-.363.371-.895.58a3.3 3.3 0 0 1-1.197.204M68.75 254h-2.693v-8.727h2.812q1.27 0 2.174.524a3.43 3.43 0 0 1 1.385 1.496q.48.971.481 2.326 0 1.364-.486 2.348a3.46 3.46 0 0 1-1.415 1.509q-.929.524-2.258.524m-1.636-.938h1.568q1.082 0 1.794-.417a2.58 2.58 0 0 0 1.06-1.189q.35-.77.35-1.837 0-1.056-.345-1.819a2.54 2.54 0 0 0-1.031-1.176q-.686-.414-1.709-.414h-1.687zm7.432.938v-6.545h1.005V254zm.51-7.636a.7.7 0 0 1-.506-.201.64.64 0 0 1-.21-.481q0-.282.21-.482a.72.72 0 0 1 .507-.2q.294 0 .503.2a.64.64 0 0 1 .213.482.64.64 0 0 1-.213.481.7.7 0 0 1-.503.201m6.974 2.556-.904.256a1.7 1.7 0 0 0-.251-.439 1.2 1.2 0 0 0-.444-.358q-.28-.14-.72-.14-.6 0-1.001.277-.396.272-.396.694 0 .375.272.593.273.216.853.362l.971.238q.878.214 1.308.652.43.435.43 1.121 0 .562-.323 1.006a2.15 2.15 0 0 1-.895.699q-.576.255-1.338.255-1.002 0-1.658-.434-.656-.435-.83-1.27l.954-.239q.136.529.515.793.384.264 1.002.264.703 0 1.116-.298.418-.303.418-.725a.76.76 0 0 0-.239-.571q-.238-.234-.733-.349l-1.09-.256q-.9-.213-1.322-.66-.417-.452-.417-1.13 0-.554.311-.98.315-.426.856-.669a3 3 0 0 1 1.236-.243q.972 0 1.526.426.558.428.793 1.125m3.559 5.233q-.622 0-1.13-.234a1.94 1.94 0 0 1-.805-.686q-.298-.452-.298-1.091 0-.562.221-.912.222-.353.593-.554a3.1 3.1 0 0 1 .818-.298q.452-.102.908-.162.596-.077.967-.115.375-.043.545-.141.175-.098.175-.341v-.034q0-.63-.345-.98-.341-.35-1.036-.349-.72 0-1.129.315-.409.316-.575.673l-.955-.341q.255-.596.682-.929.43-.336.938-.468a4 4 0 0 1 1.005-.137 4 4 0 0 1 .725.077q.412.072.797.303.388.23.643.694.255.465.256 1.245V254h-1.006v-.886h-.051a1.8 1.8 0 0 1-.34.456q-.24.243-.636.413-.397.17-.967.17m.153-.903q.597 0 1.006-.234a1.6 1.6 0 0 0 .835-1.385v-.921q-.064.077-.281.141a5 5 0 0 1-.495.106 21 21 0 0 1-.963.128 4 4 0 0 0-.732.166 1.26 1.26 0 0 0-.546.337q-.204.221-.204.605 0 .525.387.793.393.264.993.264m4.819.75v-8.727h1.005v3.221h.086q.11-.17.306-.434.2-.268.572-.478.375-.213 1.014-.213.826 0 1.457.414.63.413.984 1.172t.354 1.789q0 1.04-.354 1.803-.353.759-.98 1.176-.626.414-1.444.413-.63 0-1.01-.208a1.9 1.9 0 0 1-.584-.482 6 6 0 0 1-.315-.452h-.12V254zm.988-3.273q0 .742.218 1.309.217.563.635.882.417.315 1.022.315.63 0 1.053-.332.426-.337.64-.904.216-.571.216-1.27 0-.69-.213-1.244a1.9 1.9 0 0 0-.635-.882q-.421-.328-1.06-.328-.615 0-1.032.311a1.86 1.86 0 0 0-.63.861q-.214.55-.214 1.282m7.334-5.454V254h-1.005v-8.727zm4.586 8.863q-.945 0-1.632-.417a2.8 2.8 0 0 1-1.052-1.176q-.367-.759-.367-1.765t.367-1.772a2.9 2.9 0 0 1 1.031-1.202q.664-.435 1.551-.435.512 0 1.01.171.499.17.908.554.41.38.652 1.005.243.627.243 1.543v.426h-5.046v-.869h4.023q0-.554-.222-.989a1.67 1.67 0 0 0-.622-.686 1.75 1.75 0 0 0-.946-.251q-.6 0-1.04.298a2 2 0 0 0-.669.767 2.25 2.25 0 0 0-.234 1.014v.58q0 .741.256 1.257.26.512.72.78a2.1 2.1 0 0 0 1.069.264q.397 0 .716-.111a1.5 1.5 0 0 0 .559-.341q.234-.23.362-.571l.971.273a2.16 2.16 0 0 1-.515.869 2.5 2.5 0 0 1-.895.58 3.3 3.3 0 0 1-1.198.204m10.275 0q-.92 0-1.586-.434a2.83 2.83 0 0 1-1.022-1.198q-.358-.762-.358-1.743 0-.996.366-1.76.37-.766 1.031-1.197.666-.435 1.552-.435.69 0 1.244.256.554.255.908.716.353.46.438 1.074h-1.005a1.56 1.56 0 0 0-.512-.793q-.391-.35-1.056-.349-.588 0-1.032.307a2 2 0 0 0-.686.856q-.243.55-.243 1.291 0 .759.239 1.321.243.562.682.874.443.31 1.04.311.392 0 .711-.136a1.47 1.47 0 0 0 .857-1.006h1.005a2.3 2.3 0 0 1-.421 1.044 2.36 2.36 0 0 1-.883.733q-.544.268-1.269.268m6.703 0q-.887 0-1.556-.422a2.86 2.86 0 0 1-1.039-1.18q-.371-.759-.371-1.773 0-1.022.371-1.785.375-.763 1.039-1.185.67-.422 1.556-.422t1.551.422q.668.421 1.04 1.185.375.763.375 1.785 0 1.014-.375 1.773a2.83 2.83 0 0 1-1.04 1.18q-.664.423-1.551.422m0-.903q.673 0 1.108-.345.434-.345.643-.908a3.5 3.5 0 0 0 .209-1.219q0-.656-.209-1.223a2.07 2.07 0 0 0-.643-.916q-.435-.35-1.108-.349-.673 0-1.108.349-.434.35-.644.916a3.5 3.5 0 0 0-.208 1.223q0 .657.208 1.219.21.563.644.908t1.108.345m4.501 3.222v-9h.971v1.039h.12a9 9 0 0 1 .307-.434q.2-.268.571-.478.375-.213 1.014-.213.827 0 1.457.414.631.413.985 1.172.353.758.353 1.789 0 1.04-.353 1.803-.354.759-.981 1.176-.626.414-1.444.413-.631 0-1.01-.208a1.9 1.9 0 0 1-.584-.482 7 7 0 0 1-.315-.452h-.086v3.461zm.988-5.728q0 .742.218 1.309.217.563.635.882.417.315 1.022.315.631 0 1.053-.332.426-.337.639-.904.218-.571.218-1.27 0-.69-.214-1.244a1.9 1.9 0 0 0-.634-.882q-.422-.328-1.062-.328-.613 0-1.031.311a1.86 1.86 0 0 0-.63.861q-.214.55-.214 1.282m6.738 5.728q-.256 0-.456-.043a1.2 1.2 0 0 1-.277-.077l.255-.886q.367.093.648.068a.78.78 0 0 0 .499-.251q.22-.222.405-.721l.187-.511-2.42-6.579h1.09l1.807 5.215h.068l1.807-5.215h1.091l-2.778 7.5q-.188.506-.465.839a1.74 1.74 0 0 1-.643.499 2 2 0 0 1-.818.162m12.492-11.591-2.813 10.448h-.92l2.812-10.448zm4.567 11.591v-9h.972v1.039h.119a9 9 0 0 1 .307-.434q.2-.268.571-.478.375-.213 1.014-.213.827 0 1.457.414.631.413.985 1.172.353.758.353 1.789 0 1.04-.353 1.803-.354.759-.98 1.176-.627.414-1.445.413-.63 0-1.01-.208a1.9 1.9 0 0 1-.584-.482 7 7 0 0 1-.315-.452h-.085v3.461zm.989-5.728q0 .742.217 1.309.217.563.635.882.417.315 1.023.315.63 0 1.052-.332.426-.337.639-.904.218-.571.218-1.27 0-.69-.213-1.244a1.93 1.93 0 0 0-.635-.882q-.423-.328-1.061-.328-.613 0-1.032.311a1.86 1.86 0 0 0-.63.861q-.213.55-.213 1.282m8.25 3.426q-.623 0-1.13-.234a1.94 1.94 0 0 1-.805-.686q-.298-.452-.298-1.091 0-.562.221-.912.222-.353.593-.554.37-.2.818-.298.451-.102.907-.162.597-.077.968-.115.375-.043.545-.141.175-.098.175-.341v-.034q0-.63-.345-.98-.342-.35-1.036-.349-.72 0-1.129.315-.41.316-.575.673l-.955-.341q.256-.596.682-.929.43-.336.937-.468a4 4 0 0 1 1.006-.137q.315 0 .725.077.413.072.796.303.388.23.644.694.256.465.256 1.245V254h-1.006v-.886h-.051a1.8 1.8 0 0 1-.341.456 2 2 0 0 1-.635.413q-.396.17-.967.17m.153-.903q.597 0 1.006-.234.413-.235.622-.605.213-.372.213-.78v-.921q-.064.077-.281.141-.213.06-.495.106a21 21 0 0 1-.963.128 4 4 0 0 0-.733.166 1.26 1.26 0 0 0-.545.337q-.204.221-.205.605 0 .525.388.793.392.264.993.264m9.319-4.33-.904.256a1.7 1.7 0 0 0-.251-.439 1.2 1.2 0 0 0-.443-.358q-.282-.14-.721-.14-.6 0-1.001.277-.396.272-.396.694 0 .375.272.593.273.216.853.362l.971.238q.878.214 1.308.652.43.435.431 1.121 0 .562-.324 1.006a2.15 2.15 0 0 1-.895.699q-.575.255-1.338.255-1.001 0-1.658-.434-.656-.435-.831-1.27l.955-.239q.137.529.516.793.383.264 1.001.264.703 0 1.116-.298.418-.303.418-.725a.76.76 0 0 0-.239-.571q-.238-.234-.733-.349l-1.09-.256q-.9-.213-1.321-.66-.418-.452-.418-1.13 0-.554.311-.98.315-.426.857-.669a3 3 0 0 1 1.235-.243q.972 0 1.526.426.558.428.793 1.125m4.479-1.465v.852h-3.392v-.852zm-2.403-1.569h1.006v6.239q0 .426.123.639a.64.64 0 0 0 .324.281q.2.069.422.069.167 0 .273-.017l.17-.035.205.904a2.3 2.3 0 0 1-.75.119q-.426 0-.836-.183a1.66 1.66 0 0 1-.673-.558q-.264-.376-.264-.946zm6.59 8.25q-.947 0-1.632-.417a2.8 2.8 0 0 1-1.053-1.176q-.366-.759-.366-1.765t.366-1.772a2.9 2.9 0 0 1 1.032-1.202q.665-.435 1.551-.435.511 0 1.01.171.498.17.907.554.41.38.652 1.005.243.627.243 1.543v.426h-5.045v-.869h4.023q0-.554-.222-.989a1.67 1.67 0 0 0-.622-.686 1.75 1.75 0 0 0-.946-.251q-.601 0-1.04.298a1.96 1.96 0 0 0-.669.767 2.25 2.25 0 0 0-.234 1.014v.58q0 .741.255 1.257.261.512.72.78.46.264 1.07.264.396 0 .716-.111.324-.115.558-.341.234-.23.362-.571l.972.273a2.15 2.15 0 0 1-.516.869 2.5 2.5 0 0 1-.894.58 3.3 3.3 0 0 1-1.198.204M68.75 284h-2.693v-8.727h2.812q1.27 0 2.174.524a3.43 3.43 0 0 1 1.385 1.496q.48.971.481 2.326 0 1.364-.486 2.348a3.46 3.46 0 0 1-1.415 1.509q-.929.524-2.258.524m-1.636-.938h1.568q1.082 0 1.794-.417a2.58 2.58 0 0 0 1.06-1.189q.35-.77.35-1.837 0-1.056-.345-1.819a2.54 2.54 0 0 0-1.031-1.176q-.686-.414-1.709-.414h-1.687zm7.432.938v-6.545h1.005V284zm.51-7.636a.7.7 0 0 1-.506-.201.64.64 0 0 1-.21-.481q0-.282.21-.482a.72.72 0 0 1 .507-.2q.294 0 .503.2a.64.64 0 0 1 .213.482.64.64 0 0 1-.213.481.7.7 0 0 1-.503.201m6.974 2.556-.904.256a1.7 1.7 0 0 0-.251-.439 1.2 1.2 0 0 0-.444-.358q-.28-.14-.72-.14-.6 0-1.001.277-.396.272-.396.694 0 .375.272.593.273.216.853.362l.971.238q.878.214 1.308.652.43.435.43 1.121 0 .562-.323 1.006a2.15 2.15 0 0 1-.895.699q-.576.255-1.338.255-1.002 0-1.658-.434-.656-.435-.83-1.27l.954-.239q.136.529.515.793.384.264 1.002.264.703 0 1.116-.298.418-.303.418-.725a.76.76 0 0 0-.239-.571q-.238-.234-.733-.349l-1.09-.256q-.9-.213-1.322-.66-.417-.452-.417-1.13 0-.554.311-.98.315-.426.856-.669a3 3 0 0 1 1.236-.243q.972 0 1.526.426.558.428.793 1.125m3.559 5.233q-.622 0-1.13-.234a1.94 1.94 0 0 1-.805-.686q-.298-.452-.298-1.091 0-.562.221-.912.222-.353.593-.554a3.1 3.1 0 0 1 .818-.298q.452-.102.908-.162.596-.077.967-.115.375-.043.545-.141.175-.098.175-.341v-.034q0-.63-.345-.98-.341-.35-1.036-.349-.72 0-1.129.315t-.575.673l-.955-.341q.255-.596.682-.929.43-.336.938-.468a4 4 0 0 1 1.005-.137 4 4 0 0 1 .725.077q.412.072.797.303.388.23.643.694.255.465.256 1.245V284h-1.006v-.886h-.051a1.8 1.8 0 0 1-.34.456q-.24.243-.636.413-.397.17-.967.17m.153-.903q.597 0 1.006-.234a1.6 1.6 0 0 0 .835-1.385v-.921q-.064.076-.281.141a5 5 0 0 1-.495.106 21 21 0 0 1-.963.128 4 4 0 0 0-.732.166 1.26 1.26 0 0 0-.546.337q-.204.221-.204.605 0 .525.387.793.393.264.993.264m4.819.75v-8.727h1.005v3.221h.086q.11-.17.306-.434.2-.268.572-.478.375-.213 1.014-.213.826 0 1.457.414.63.413.984 1.172t.354 1.789q0 1.04-.354 1.803-.353.759-.98 1.176-.626.414-1.444.413-.63 0-1.01-.208a1.9 1.9 0 0 1-.584-.482 6 6 0 0 1-.315-.452h-.12V284zm.988-3.273q0 .742.218 1.309.217.562.635.882.417.315 1.022.315.63 0 1.053-.332.426-.337.64-.904.216-.571.216-1.27 0-.69-.213-1.244a1.9 1.9 0 0 0-.635-.882q-.421-.328-1.06-.328-.615 0-1.032.311a1.86 1.86 0 0 0-.63.861q-.214.55-.214 1.282m7.334-5.454V284h-1.005v-8.727zm4.586 8.863q-.945 0-1.632-.417a2.8 2.8 0 0 1-1.052-1.176q-.367-.759-.367-1.765t.367-1.772a2.9 2.9 0 0 1 1.031-1.202q.664-.435 1.551-.435.512 0 1.01.171.499.17.908.554.41.38.652 1.005.243.627.243 1.543v.426h-5.046v-.869h4.023q0-.554-.222-.989a1.67 1.67 0 0 0-.622-.686 1.75 1.75 0 0 0-.946-.251q-.6 0-1.04.298a2 2 0 0 0-.669.767 2.25 2.25 0 0 0-.234 1.014v.58q0 .741.256 1.257.26.512.72.78a2.1 2.1 0 0 0 1.069.264q.397 0 .716-.111a1.5 1.5 0 0 0 .559-.341q.234-.23.362-.571l.971.273a2.16 2.16 0 0 1-.515.869 2.5 2.5 0 0 1-.895.58 3.3 3.3 0 0 1-1.198.204m7.616 2.319v-9h.971v1.039h.119q.111-.17.307-.434.2-.268.571-.478.375-.213 1.014-.213.827 0 1.458.414.63.413.984 1.172t.354 1.789q0 1.04-.354 1.803-.354.759-.98 1.176-.626.414-1.444.413-.632 0-1.01-.208a1.9 1.9 0 0 1-.584-.482 6 6 0 0 1-.316-.452h-.085v3.461zm.988-5.728q0 .742.217 1.309.218.562.635.882.418.315 1.023.315.63 0 1.053-.332.426-.337.639-.904.217-.571.217-1.27 0-.69-.213-1.244a1.9 1.9 0 0 0-.635-.882q-.422-.328-1.061-.328-.614 0-1.031.311-.418.306-.631.861-.213.55-.213 1.282m6.324 3.273v-6.545h.972v.988h.068q.178-.486.648-.788a1.9 1.9 0 0 1 1.056-.303 11 11 0 0 1 .529.017v1.023a3 3 0 0 0-.235-.038 2.3 2.3 0 0 0-.379-.03q-.477 0-.852.2a1.47 1.47 0 0 0-.801 1.334V284zm4.465 0v-6.545h1.006V284zm.511-7.636a.7.7 0 0 1-.507-.201.64.64 0 0 1-.209-.481q0-.282.209-.482a.72.72 0 0 1 .507-.2q.294 0 .503.2a.64.64 0 0 1 .213.482.64.64 0 0 1-.213.481.7.7 0 0 1-.503.201m3.342 3.698V284h-1.005v-6.545h.971v1.022h.085a1.9 1.9 0 0 1 .699-.801q.47-.306 1.21-.307.665 0 1.164.273.499.269.775.818.277.546.277 1.381V284h-1.005v-4.091q0-.771-.401-1.202-.4-.434-1.099-.434-.482 0-.861.209-.375.209-.592.609-.218.4-.218.971m8.861-2.607v.852h-3.392v-.852zm-2.404-1.569h1.006v6.239q0 .426.123.639a.65.65 0 0 0 .324.281q.201.069.422.069.166 0 .273-.017l.17-.035.205.904a2.2 2.2 0 0 1-.75.119q-.426 0-.835-.183a1.66 1.66 0 0 1-.674-.558q-.264-.375-.264-.946zm3.916 8.114v-6.545h1.006V284zm.512-7.636a.7.7 0 0 1-.507-.201.64.64 0 0 1-.209-.481q0-.282.209-.482a.72.72 0 0 1 .507-.2q.294 0 .503.2a.64.64 0 0 1 .213.482.64.64 0 0 1-.213.481.7.7 0 0 1-.503.201m3.342 3.698V284h-1.006v-6.545h.972v1.022h.085q.23-.498.699-.801.469-.306 1.21-.307.665 0 1.163.273.499.269.776.818.277.546.277 1.381V284h-1.006v-4.091q0-.771-.4-1.202-.4-.434-1.1-.434-.482 0-.861.209-.375.209-.592.609t-.217.971m8.656 6.529q-.73 0-1.253-.188a2.7 2.7 0 0 1-.874-.485 2.6 2.6 0 0 1-.549-.64l.801-.562q.137.179.345.409.208.234.571.405.366.175.959.175.792 0 1.308-.384.516-.383.516-1.202v-1.329h-.086a6 6 0 0 1-.315.443 1.8 1.8 0 0 1-.58.464q-.375.201-1.014.201a2.73 2.73 0 0 1-1.423-.375 2.63 2.63 0 0 1-.993-1.091q-.362-.716-.362-1.739 0-1.005.353-1.751.354-.75.985-1.159.63-.414 1.457-.414.639 0 1.014.213.38.21.58.478.204.264.315.434h.103v-1.039h.971v6.733q0 .843-.383 1.372a2.2 2.2 0 0 1-1.023.779 3.9 3.9 0 0 1-1.423.252m-.034-3.597q.605 0 1.022-.277.418-.276.635-.797.218-.52.218-1.244 0-.707-.214-1.248a1.87 1.87 0 0 0-.63-.848q-.418-.307-1.031-.307-.64 0-1.066.324a1.97 1.97 0 0 0-.635.869 3.4 3.4 0 0 0-.209 1.21q0 .683.214 1.206.216.52.639.818.426.294 1.057.294M68.75 314h-2.693v-8.727h2.812q1.27 0 2.174.524a3.43 3.43 0 0 1 1.385 1.496q.48.971.481 2.326 0 1.364-.486 2.348a3.46 3.46 0 0 1-1.415 1.509q-.929.524-2.258.524m-1.636-.938h1.568q1.082 0 1.794-.417a2.58 2.58 0 0 0 1.06-1.189q.35-.77.35-1.837 0-1.056-.345-1.819a2.54 2.54 0 0 0-1.031-1.176q-.686-.414-1.709-.414h-1.687zm7.432.938v-6.545h1.005V314zm.51-7.636a.7.7 0 0 1-.506-.201.64.64 0 0 1-.21-.481q0-.282.21-.482a.72.72 0 0 1 .507-.2q.294 0 .503.2a.64.64 0 0 1 .213.482.64.64 0 0 1-.213.481.7.7 0 0 1-.503.201m6.974 2.556-.904.256a1.7 1.7 0 0 0-.251-.439 1.2 1.2 0 0 0-.444-.358q-.28-.14-.72-.14-.6 0-1.001.277-.396.272-.396.694 0 .375.272.593.273.216.853.362l.971.238q.878.214 1.308.652.43.435.43 1.121 0 .562-.323 1.006a2.15 2.15 0 0 1-.895.699q-.576.255-1.338.255-1.002 0-1.658-.434-.656-.435-.83-1.27l.954-.239q.136.529.515.793.384.264 1.002.264.703 0 1.116-.298.418-.303.418-.725a.76.76 0 0 0-.239-.571q-.238-.234-.733-.349l-1.09-.256q-.9-.213-1.322-.66-.417-.452-.417-1.13 0-.554.311-.98.315-.426.856-.669a3 3 0 0 1 1.236-.243q.972 0 1.526.426.558.428.793 1.125m3.559 5.233q-.622 0-1.13-.234a1.94 1.94 0 0 1-.805-.686q-.298-.452-.298-1.091 0-.562.221-.912.222-.353.593-.554a3.1 3.1 0 0 1 .818-.298q.452-.102.908-.162.596-.077.967-.115.375-.043.545-.141.175-.098.175-.341v-.034q0-.63-.345-.98-.341-.35-1.036-.349-.72 0-1.129.315t-.575.673l-.955-.341q.255-.596.682-.929.43-.336.938-.468a4 4 0 0 1 1.005-.137 4 4 0 0 1 .725.077q.412.072.797.303.388.23.643.694.255.465.256 1.245V314h-1.006v-.886h-.051a1.8 1.8 0 0 1-.34.456q-.24.243-.636.413-.397.17-.967.17m.153-.903q.597 0 1.006-.234a1.6 1.6 0 0 0 .835-1.385v-.921q-.064.076-.281.141a5 5 0 0 1-.495.106 21 21 0 0 1-.963.128 4 4 0 0 0-.732.166 1.26 1.26 0 0 0-.546.337q-.204.221-.204.605 0 .525.387.793.393.264.993.264m4.819.75v-8.727h1.005v3.221h.086q.11-.17.306-.434.2-.268.572-.478.375-.213 1.014-.213.826 0 1.457.414.63.413.984 1.172t.354 1.789q0 1.04-.354 1.803-.353.759-.98 1.176-.626.414-1.444.413-.63 0-1.01-.208a1.9 1.9 0 0 1-.584-.482 6 6 0 0 1-.315-.452h-.12V314zm.988-3.273q0 .742.218 1.309.217.562.635.882.417.315 1.022.315.63 0 1.053-.332.426-.337.64-.904.216-.571.216-1.27 0-.69-.213-1.244a1.9 1.9 0 0 0-.635-.882q-.421-.328-1.06-.328-.615 0-1.032.311a1.86 1.86 0 0 0-.63.861q-.214.55-.214 1.282m7.334-5.454V314h-1.005v-8.727zm4.586 8.863q-.945 0-1.632-.417a2.8 2.8 0 0 1-1.052-1.176q-.367-.759-.367-1.765t.367-1.772a2.9 2.9 0 0 1 1.031-1.202q.664-.435 1.551-.435.512 0 1.01.171.499.17.908.554.41.38.652 1.005.243.627.243 1.543v.426h-5.046v-.869h4.023q0-.554-.222-.989a1.67 1.67 0 0 0-.622-.686 1.75 1.75 0 0 0-.946-.251q-.6 0-1.04.298a2 2 0 0 0-.669.767 2.25 2.25 0 0 0-.234 1.014v.58q0 .741.256 1.257.26.512.72.78a2.1 2.1 0 0 0 1.069.264q.397 0 .716-.111a1.5 1.5 0 0 0 .559-.341q.234-.23.362-.571l.971.273a2.16 2.16 0 0 1-.515.869 2.5 2.5 0 0 1-.895.58 3.3 3.3 0 0 1-1.198.204m8.553-2.522-.017-1.245h.205l2.863-2.914h1.244l-3.051 3.085h-.085zm-.937 2.386v-8.727h1.005V314zm4.159 0-2.557-3.239.716-.699 3.119 3.938zm4.843.136q-.947 0-1.632-.417a2.8 2.8 0 0 1-1.053-1.176q-.366-.759-.366-1.765t.366-1.772a2.9 2.9 0 0 1 1.031-1.202q.664-.435 1.551-.435.512 0 1.01.171.499.17.908.554.41.38.652 1.005.243.627.243 1.543v.426h-5.046v-.869h4.023q0-.554-.221-.989a1.67 1.67 0 0 0-.623-.686 1.75 1.75 0 0 0-.946-.251q-.6 0-1.039.298a1.96 1.96 0 0 0-.669.767 2.24 2.24 0 0 0-.235 1.014v.58q0 .741.256 1.257.26.512.72.78.46.264 1.07.264.395 0 .716-.111.323-.115.558-.341.234-.23.362-.571l.972.273a2.2 2.2 0 0 1-.516.869q-.362.371-.895.58a3.3 3.3 0 0 1-1.197.204m4.688 2.319q-.255 0-.456-.043a1.2 1.2 0 0 1-.277-.077l.256-.886q.366.093.648.068a.78.78 0 0 0 .498-.251q.222-.222.405-.721l.188-.511-2.421-6.579h1.091l1.807 5.215h.068l1.807-5.215h1.091l-2.779 7.5a2.8 2.8 0 0 1-.464.839 1.75 1.75 0 0 1-.644.499 2 2 0 0 1-.818.162m6.169-2.455v-8.727h1.005v3.221h.085q.111-.17.307-.434.2-.268.571-.478.375-.213 1.014-.213.827 0 1.458.414.63.413.984 1.172t.354 1.789q0 1.04-.354 1.803-.353.759-.98 1.176-.626.414-1.444.413-.632 0-1.01-.208a1.9 1.9 0 0 1-.584-.482 6 6 0 0 1-.316-.452h-.119V314zm.988-3.273q0 .742.218 1.309.217.562.634.882.418.315 1.023.315.63 0 1.053-.332.426-.337.639-.904.217-.571.217-1.27 0-.69-.213-1.244a1.9 1.9 0 0 0-.635-.882q-.422-.328-1.061-.328-.614 0-1.031.311a1.86 1.86 0 0 0-.631.861q-.213.55-.213 1.282m8.987 3.409q-.886 0-1.555-.422a2.86 2.86 0 0 1-1.04-1.18q-.37-.759-.371-1.773 0-1.022.371-1.785.375-.764 1.04-1.185.669-.422 1.555-.422t1.552.422q.669.421 1.039 1.185.375.763.375 1.785 0 1.014-.375 1.773a2.8 2.8 0 0 1-1.039 1.18q-.666.423-1.552.422m0-.903q.674 0 1.108-.345t.644-.908a3.5 3.5 0 0 0 .209-1.219q0-.656-.209-1.223a2.06 2.06 0 0 0-.644-.916q-.434-.35-1.108-.349-.673 0-1.108.349a2.07 2.07 0 0 0-.643.916 3.5 3.5 0 0 0-.209 1.223q0 .657.209 1.219t.643.908q.435.345 1.108.345m6.428.92q-.623 0-1.13-.234a1.94 1.94 0 0 1-.805-.686q-.298-.452-.298-1.091 0-.562.221-.912.222-.353.593-.554.37-.2.818-.298.451-.102.907-.162.597-.077.968-.115.375-.043.545-.141.175-.098.175-.341v-.034q0-.63-.345-.98-.342-.35-1.036-.349-.72 0-1.129.315t-.575.673l-.955-.341q.256-.596.682-.929.43-.336.937-.468a4 4 0 0 1 1.006-.137q.315 0 .725.077.413.072.796.303.388.23.644.694.256.465.256 1.245V314h-1.006v-.886h-.051a1.8 1.8 0 0 1-.341.456 2 2 0 0 1-.635.413q-.396.17-.967.17m.153-.903q.597 0 1.006-.234.413-.235.622-.605.213-.372.213-.78v-.921q-.064.076-.281.141-.213.06-.495.106a21 21 0 0 1-.963.128 4 4 0 0 0-.733.166 1.26 1.26 0 0 0-.545.337q-.204.221-.205.605 0 .525.388.793.392.264.993.264m4.682.75v-6.545h.972v.988h.068q.179-.486.648-.788a1.9 1.9 0 0 1 1.056-.303 11 11 0 0 1 .529.017v1.023a3 3 0 0 0-.234-.038q-.18-.03-.38-.03-.477 0-.852.2a1.47 1.47 0 0 0-.801 1.334V314zm6.737.136q-.818 0-1.444-.413-.627-.417-.98-1.176-.354-.763-.354-1.803 0-1.031.354-1.789.353-.76.984-1.172a2.6 2.6 0 0 1 1.457-.414q.64 0 1.01.213.375.21.571.478.201.264.311.434h.086v-3.221h1.005V314h-.971v-1.006h-.12a6 6 0 0 1-.315.452q-.204.269-.584.482-.379.208-1.01.208m.137-.903q.605 0 1.022-.315.419-.32.635-.882.218-.567.218-1.309 0-.732-.213-1.282a1.86 1.86 0 0 0-.631-.861q-.417-.312-1.031-.311-.639 0-1.066.328-.421.324-.635.882a3.5 3.5 0 0 0-.208 1.244q0 .699.213 1.27.218.567.639.904.426.332 1.057.332"/><rect width="106" height="21" x="36.5" y="168.5" stroke="#000" stroke-linejoin="round" rx="3.5"/><rect width="14" height="16" x="39.5" y="241.5" fill="#2D2D2D" stroke="#747474" stroke-linejoin="round" rx="3.5"/><rect width="14" height="16" x="39.5" y="301.5" stroke="#747474" stroke-linejoin="round" rx="3.5"/><path fill="#D9D9D9" d="m133.5 183-3.897-6.75h7.794zm60-100-3.897-6.75h7.794z"/><path fill="#222" d="M229.057 88v-8.727h5.233v.937h-4.176v2.95h3.784v.937h-3.784V88zm8.833.153q-.623 0-1.13-.234a1.94 1.94 0 0 1-.805-.686q-.298-.452-.298-1.091 0-.562.221-.912.221-.353.593-.554.37-.2.818-.298.451-.102.907-.162.597-.077.968-.115.375-.043.545-.14.175-.099.175-.342v-.034q0-.63-.345-.98-.342-.35-1.036-.35-.72 0-1.129.316-.41.315-.575.673l-.955-.34q.256-.597.682-.93.43-.336.937-.468.512-.137 1.006-.137.315 0 .725.077.413.073.796.303.388.23.644.694.255.465.256 1.245V88h-1.006v-.886h-.051a1.8 1.8 0 0 1-.341.456 2 2 0 0 1-.635.413q-.396.17-.967.17m.153-.903q.597 0 1.006-.234a1.6 1.6 0 0 0 .835-1.385v-.92q-.064.075-.281.14-.213.06-.495.106a22 22 0 0 1-.963.128q-.391.052-.733.166a1.26 1.26 0 0 0-.545.337q-.205.222-.205.605 0 .525.388.793.392.264.993.264m7.341.886q-.92 0-1.585-.434a2.84 2.84 0 0 1-1.023-1.198q-.358-.763-.358-1.743 0-.996.367-1.76.37-.766 1.031-1.197.665-.435 1.551-.435.69 0 1.245.256.553.256.907.716t.439 1.074h-1.006a1.56 1.56 0 0 0-.511-.793q-.392-.35-1.057-.35-.588 0-1.031.307a2 2 0 0 0-.686.857q-.243.55-.243 1.291 0 .759.239 1.321.243.562.681.874.444.31 1.04.311.393 0 .712-.136a1.5 1.5 0 0 0 .541-.392q.222-.256.315-.614h1.006a2.33 2.33 0 0 1-1.304 1.777q-.546.268-1.27.268m6.789 0q-.946 0-1.633-.417a2.8 2.8 0 0 1-1.052-1.176q-.366-.759-.367-1.765 0-1.005.367-1.772a2.9 2.9 0 0 1 1.031-1.202q.665-.435 1.551-.435a3.1 3.1 0 0 1 1.01.17 2.5 2.5 0 0 1 .908.555q.41.38.652 1.005.243.627.243 1.543v.426h-5.046v-.87h4.023q0-.552-.222-.988a1.66 1.66 0 0 0-.622-.686 1.74 1.74 0 0 0-.946-.251q-.6 0-1.039.298-.435.294-.669.767a2.24 2.24 0 0 0-.235 1.014v.58q0 .741.256 1.257.26.51.72.78a2.1 2.1 0 0 0 1.07.264q.396 0 .715-.11a1.5 1.5 0 0 0 .559-.342q.234-.23.362-.57l.972.272q-.154.495-.516.87a2.5 2.5 0 0 1-.895.579 3.3 3.3 0 0 1-1.197.204m4.376-.136v-8.727h1.006v3.221h.085q.11-.17.307-.434.2-.269.571-.478.375-.213 1.014-.213.827 0 1.457.414.631.413.985 1.171.353.76.353 1.79 0 1.04-.353 1.803-.354.759-.98 1.176-.627.413-1.445.413-.63 0-1.01-.208a1.9 1.9 0 0 1-.584-.482 7 7 0 0 1-.315-.452h-.119V88zm.989-3.273q0 .742.217 1.308.218.564.635.883.417.315 1.023.315.63 0 1.052-.332.426-.337.639-.904.218-.57.218-1.27 0-.69-.213-1.244a1.93 1.93 0 0 0-.635-.882q-.422-.328-1.061-.328-.614 0-1.032.31a1.87 1.87 0 0 0-.63.862q-.213.55-.213 1.282m8.987 3.41q-.887 0-1.556-.422a2.87 2.87 0 0 1-1.039-1.18q-.37-.76-.371-1.774 0-1.022.371-1.785a2.86 2.86 0 0 1 1.039-1.185q.67-.422 1.556-.422t1.551.422a2.8 2.8 0 0 1 1.04 1.185q.375.762.375 1.785 0 1.015-.375 1.773-.37.76-1.04 1.18-.664.422-1.551.422m0-.904q.673 0 1.108-.345t.643-.908a3.5 3.5 0 0 0 .209-1.219q0-.656-.209-1.223a2.06 2.06 0 0 0-.643-.916q-.435-.35-1.108-.35t-1.108.35-.644.916a3.5 3.5 0 0 0-.208 1.223q0 .656.208 1.22.21.561.644.907.435.345 1.108.345m7.16.903q-.886 0-1.555-.421a2.86 2.86 0 0 1-1.04-1.18q-.37-.76-.371-1.774 0-1.022.371-1.785.375-.763 1.04-1.185.669-.422 1.555-.422.887 0 1.551.422a2.8 2.8 0 0 1 1.04 1.185q.375.762.375 1.785 0 1.015-.375 1.773-.37.76-1.04 1.18-.664.422-1.551.422m0-.903q.673 0 1.108-.345t.643-.908q.21-.562.209-1.219 0-.656-.209-1.223a2.06 2.06 0 0 0-.643-.916q-.435-.35-1.108-.35t-1.108.35-.643.916q-.21.567-.209 1.223 0 .656.209 1.22.208.561.643.907.435.345 1.108.345m5.439-1.62-.017-1.244h.204l2.864-2.915h1.244l-3.051 3.086h-.085zM278.186 88v-8.727h1.006V88zm4.159 0-2.557-3.239.716-.698 3.12 3.937z"/><circle cx="298" cy="84" r="6" fill="#747474"/><path fill="#C4C4C4" d="m294.65 88 2.535-3.679-2.379-3.471h1.378l1.417 2.21q.091.143.169.312.091.17.143.273.039-.104.117-.273.091-.17.182-.312l1.43-2.21h1.365l-2.379 3.484L301.15 88h-1.378l-1.534-2.34a4 4 0 0 1-.182-.325q-.078-.195-.143-.312a6 6 0 0 1-.156.312q-.091.182-.195.325L296.015 88z"/><rect width="70" height="22" x="402" y="103" fill="#EDECEC" rx="4"/><path fill="#222" d="M405.58 110.21v-.937h6.545v.937h-2.744V118h-1.057v-7.79zm9.045 3.852V118h-1.005v-8.727h1.005v3.204h.086q.23-.507.69-.805.465-.303 1.236-.303.669 0 1.172.269a1.8 1.8 0 0 1 .779.814q.282.544.282 1.389V118h-1.006v-4.091q0-.78-.405-1.206-.4-.43-1.112-.43-.495 0-.886.209a1.5 1.5 0 0 0-.614.609q-.222.4-.222.971M420.71 118v-6.545h.971v.988h.068q.18-.485.648-.788a1.9 1.9 0 0 1 1.057-.303 11 11 0 0 1 .528.017v1.023a3 3 0 0 0-.234-.038 2.3 2.3 0 0 0-.379-.03q-.478 0-.853.2a1.47 1.47 0 0 0-.801 1.334V118zm7.009.136q-.945 0-1.632-.417a2.8 2.8 0 0 1-1.052-1.176q-.367-.759-.367-1.765t.367-1.772a2.9 2.9 0 0 1 1.031-1.202q.664-.435 1.551-.435.512 0 1.01.171.499.17.908.554.41.38.652 1.005.243.627.243 1.543v.426h-5.046v-.869h4.023q0-.554-.222-.989a1.67 1.67 0 0 0-.622-.686 1.75 1.75 0 0 0-.946-.251q-.6 0-1.04.298a2 2 0 0 0-.669.767 2.25 2.25 0 0 0-.234 1.014v.58q0 .741.256 1.257.26.512.72.78a2.1 2.1 0 0 0 1.069.264q.397 0 .716-.111a1.5 1.5 0 0 0 .559-.341q.234-.23.362-.571l.971.273a2.16 2.16 0 0 1-.515.869 2.5 2.5 0 0 1-.895.58 3.3 3.3 0 0 1-1.198.204m6.167.017q-.623 0-1.13-.234a1.94 1.94 0 0 1-.805-.686q-.298-.452-.298-1.091 0-.562.221-.912.222-.354.593-.554a3.1 3.1 0 0 1 .818-.298q.451-.102.907-.162.597-.077.968-.115.375-.043.545-.141.175-.098.175-.341v-.034q0-.63-.345-.98-.341-.35-1.036-.349-.72 0-1.129.315-.409.316-.575.673l-.955-.341q.256-.596.682-.929.43-.336.938-.468.51-.137 1.005-.137.315 0 .725.077.413.072.797.303.387.23.643.694.255.465.256 1.245V118h-1.006v-.886h-.051a1.8 1.8 0 0 1-.341.456 2 2 0 0 1-.635.413q-.397.17-.967.17m.153-.903q.597 0 1.006-.234.413-.235.622-.605.213-.372.213-.78v-.921q-.064.077-.281.141-.213.06-.495.106a21 21 0 0 1-.963.128 4 4 0 0 0-.733.166 1.26 1.26 0 0 0-.545.337q-.204.221-.205.605 0 .525.388.793.392.264.993.264m7.154.886q-.818 0-1.445-.413-.626-.417-.98-1.176-.354-.763-.354-1.803 0-1.031.354-1.789.354-.76.984-1.172.631-.414 1.458-.414.64 0 1.01.213.375.21.571.478.2.264.311.434h.085v-3.221h1.006V118h-.972v-1.006h-.119q-.111.18-.315.452-.205.269-.584.482-.38.208-1.01.208m.136-.903q.606 0 1.023-.315.417-.32.635-.882.217-.567.217-1.309 0-.733-.213-1.282-.213-.555-.631-.861-.417-.311-1.031-.311-.639 0-1.065.328-.422.324-.635.882a3.5 3.5 0 0 0-.209 1.244q0 .699.213 1.27.217.567.639.904.426.332 1.057.332m9.482-4.313-.904.256a1.7 1.7 0 0 0-.251-.439 1.2 1.2 0 0 0-.443-.358q-.282-.14-.72-.14-.602 0-1.002.277-.396.272-.396.694 0 .375.273.593.271.216.852.362l.971.238q.879.213 1.309.652.43.435.43 1.121 0 .562-.324 1.006a2.15 2.15 0 0 1-.895.699q-.575.255-1.338.255-1.001 0-1.657-.434-.657-.435-.831-1.27l.954-.239q.137.529.516.793.383.264 1.001.264.703 0 1.117-.298.417-.303.417-.725a.76.76 0 0 0-.238-.571q-.239-.234-.733-.349l-1.091-.256q-.9-.213-1.321-.66-.418-.453-.418-1.13 0-.554.311-.98.315-.426.857-.669a3 3 0 0 1 1.236-.243q.971 0 1.525.426.558.427.793 1.125"/><circle cx="463" cy="114" r="6" fill="#747474"/><path fill="#C4C4C4" d="m459.65 118 2.535-3.679-2.379-3.471h1.378l1.417 2.21q.091.142.169.312.091.17.143.273.039-.104.117-.273.091-.17.182-.312l1.43-2.21h1.365l-2.379 3.484L466.15 118h-1.378l-1.534-2.34a4 4 0 0 1-.182-.325q-.078-.195-.143-.312a6 6 0 0 1-.156.312q-.091.182-.195.325l-1.547 2.34z"/><rect width="86" height="22" x="316" y="73" fill="#EDECEC" rx="4"/><path fill="#222" d="M322.114 79.273V88h-1.057v-8.727zm2.988 4.79V88h-1.006v-6.546h.972v1.023h.085q.23-.499.699-.8.469-.308 1.21-.308.665 0 1.163.273.499.269.776.818.277.546.277 1.38V88h-1.006v-4.09q0-.772-.4-1.203-.4-.434-1.1-.434-.482 0-.86.209-.375.209-.593.609t-.217.972m10.65-1.142-.903.255a1.7 1.7 0 0 0-.252-.439 1.2 1.2 0 0 0-.443-.358q-.28-.14-.72-.14-.601 0-1.001.277-.397.272-.397.694 0 .375.273.593.273.216.852.362l.972.238q.877.213 1.308.652.43.435.43 1.121 0 .562-.323 1.006a2.15 2.15 0 0 1-.895.699q-.576.255-1.338.255-1.002 0-1.658-.434-.657-.435-.831-1.27l.955-.239q.135.53.515.793.384.264 1.002.264.702 0 1.116-.298.418-.303.418-.725a.76.76 0 0 0-.239-.57q-.238-.235-.733-.35l-1.091-.256q-.899-.213-1.321-.66-.417-.453-.417-1.13 0-.554.311-.98.315-.426.856-.669a3 3 0 0 1 1.236-.243q.972 0 1.526.427.558.425.792 1.124m4.48-1.467v.853h-3.392v-.853zm-2.404-1.568h1.006v6.239q0 .426.124.64.127.208.324.28.2.069.421.069.166 0 .273-.017l.171-.034.204.903a2 2 0 0 1-.285.077 2 2 0 0 1-.465.042q-.426 0-.835-.183a1.66 1.66 0 0 1-.673-.558q-.264-.376-.265-.946zm5.843 8.267q-.622 0-1.129-.234a1.94 1.94 0 0 1-.806-.686q-.298-.452-.298-1.091 0-.562.221-.912a1.57 1.57 0 0 1 .593-.554q.37-.2.818-.298.452-.102.908-.162.596-.077.967-.115.375-.043.545-.14.175-.099.175-.342v-.034q0-.63-.345-.98-.34-.35-1.036-.35-.72 0-1.129.316-.409.315-.575.673l-.955-.34q.256-.597.682-.93.43-.336.938-.468.511-.137 1.005-.137.316 0 .725.077.413.073.797.303.388.23.643.694.256.465.256 1.245V88h-1.006v-.886h-.051a1.8 1.8 0 0 1-.341.456 2 2 0 0 1-.635.413q-.397.17-.967.17m.153-.903q.597 0 1.006-.234a1.6 1.6 0 0 0 .835-1.385v-.92q-.063.075-.281.14-.213.06-.494.106a22 22 0 0 1-.964.128q-.392.052-.732.166a1.26 1.26 0 0 0-.546.337q-.204.222-.204.605 0 .525.387.793.393.264.993.264m7.324 3.34q-.728 0-1.252-.187a2.7 2.7 0 0 1-.874-.485 2.7 2.7 0 0 1-.55-.64l.801-.562q.136.18.346.409.208.234.571.405.367.174.958.174.793 0 1.309-.383t.515-1.202v-1.33h-.085a6 6 0 0 1-.315.444 1.8 1.8 0 0 1-.58.464q-.375.2-1.014.2a2.73 2.73 0 0 1-1.423-.374 2.63 2.63 0 0 1-.993-1.091q-.363-.716-.362-1.739 0-1.005.353-1.751.354-.75.985-1.16.63-.413 1.457-.413.639 0 1.014.213.38.21.58.478a7 7 0 0 1 .315.434h.102v-1.04h.972v6.734q0 .843-.384 1.372a2.2 2.2 0 0 1-1.022.78 3.9 3.9 0 0 1-1.424.25m-.034-3.596q.606 0 1.023-.277.417-.276.635-.796.217-.52.217-1.245 0-.708-.213-1.248a1.9 1.9 0 0 0-.63-.849q-.418-.306-1.032-.306-.639 0-1.065.324a1.97 1.97 0 0 0-.635.869 3.4 3.4 0 0 0-.209 1.21q0 .682.213 1.206.217.52.64.818.426.294 1.056.294M355.819 88v-6.546h.971v.99h.069q.179-.487.647-.79a1.9 1.9 0 0 1 1.057-.302q.11 0 .277.004.166.005.252.013v1.023a3 3 0 0 0-.235-.038 2.3 2.3 0 0 0-.379-.03 1.8 1.8 0 0 0-.852.2q-.37.196-.588.546a1.47 1.47 0 0 0-.213.788V88zm6.391.153q-.622 0-1.129-.234a1.94 1.94 0 0 1-.806-.686q-.298-.452-.298-1.091 0-.562.222-.912a1.56 1.56 0 0 1 .592-.554q.37-.2.818-.298.452-.102.908-.162.596-.077.967-.115.375-.043.545-.14.175-.099.175-.342v-.034q0-.63-.345-.98-.34-.35-1.035-.35-.721 0-1.13.316-.408.315-.575.673l-.955-.34q.256-.597.682-.93.43-.336.938-.468.511-.137 1.005-.137.316 0 .725.077.413.073.797.303.387.23.643.694.256.465.256 1.245V88h-1.006v-.886h-.051a1.8 1.8 0 0 1-.341.456 2 2 0 0 1-.635.413q-.396.17-.967.17m.153-.903q.597 0 1.006-.234a1.59 1.59 0 0 0 .835-1.385v-.92q-.063.075-.281.14-.213.06-.494.106a22 22 0 0 1-.963.128q-.393.052-.733.166a1.26 1.26 0 0 0-.546.337q-.204.222-.204.605 0 .525.387.793.393.264.993.264m4.682.75v-6.546h.972v1.023h.085q.205-.524.661-.814.456-.294 1.095-.294.648 0 1.078.294.435.29.678.814h.068q.251-.507.754-.805.502-.303 1.206-.303.878 0 1.436.55.558.546.558 1.7V88h-1.005v-4.38q0-.726-.397-1.036a1.47 1.47 0 0 0-.933-.311q-.69 0-1.069.417-.38.413-.38 1.049V88h-1.022v-4.483q0-.558-.363-.9-.362-.345-.933-.344-.392 0-.733.209-.336.208-.545.58a1.7 1.7 0 0 0-.205.847V88z"/><circle cx="390" cy="84" r="6" fill="#747474"/><path fill="#C4C4C4" d="m386.65 88 2.535-3.679-2.379-3.471h1.378l1.417 2.21q.091.143.169.312.091.17.143.273.039-.104.117-.273.091-.17.182-.312l1.43-2.21h1.365l-2.379 3.484L393.15 88h-1.378l-1.534-2.34a4 4 0 0 1-.182-.325q-.078-.195-.143-.312a6 6 0 0 1-.156.312q-.091.182-.195.325L388.015 88z"/><rect width="86" height="22" x="408" y="73" fill="#EDECEC" rx="4"/><path fill="#222" d="M417.83 81.455a1.34 1.34 0 0 0-.623-1.006q-.544-.358-1.338-.358-.579 0-1.014.187a1.6 1.6 0 0 0-.673.516 1.24 1.24 0 0 0-.239.746q0 .35.166.6.171.248.435.414.264.162.554.268.29.103.533.167l.886.238q.34.09.759.247.421.158.805.43.388.27.639.691.252.422.252 1.036 0 .707-.371 1.278-.366.57-1.074.908-.703.336-1.709.336-.937 0-1.623-.302a2.6 2.6 0 0 1-1.074-.844 2.4 2.4 0 0 1-.439-1.257h1.091q.042.495.332.818.294.32.742.478.452.153.971.153a2.9 2.9 0 0 0 1.087-.196 1.9 1.9 0 0 0 .763-.554q.28-.358.281-.835 0-.435-.243-.708a1.8 1.8 0 0 0-.639-.443 7 7 0 0 0-.857-.298l-1.074-.307q-1.022-.294-1.619-.84-.597-.545-.597-1.427 0-.734.397-1.278.4-.55 1.074-.853a3.6 3.6 0 0 1 1.512-.307q.845 0 1.5.303.657.299 1.04.818.388.52.409 1.18zm3.748 2.608V88h-1.005v-6.546h.971v1.023h.086q.23-.499.698-.8.469-.308 1.211-.308.665 0 1.163.273.498.269.776.818.276.546.277 1.38V88h-1.006v-4.09q0-.772-.401-1.203-.4-.434-1.099-.434-.481 0-.861.209-.375.209-.592.609-.218.4-.218.972m7.94 4.09a2.7 2.7 0 0 1-1.129-.234 1.94 1.94 0 0 1-.805-.686q-.298-.452-.298-1.091 0-.562.221-.912.222-.353.592-.554.371-.2.819-.298.451-.102.907-.162.597-.077.968-.115.375-.043.545-.14.175-.099.175-.342v-.034q0-.63-.345-.98-.342-.35-1.036-.35-.72 0-1.129.316-.41.315-.575.673l-.955-.34q.256-.597.682-.93.43-.336.937-.468.511-.137 1.006-.137.315 0 .724.077.414.073.797.303.388.23.644.694.255.465.255 1.245V88h-1.005v-.886h-.051a1.8 1.8 0 0 1-.341.456 2 2 0 0 1-.635.413q-.396.17-.968.17m.154-.903q.597 0 1.006-.234a1.6 1.6 0 0 0 .835-1.385v-.92q-.065.075-.281.14-.214.06-.495.106a22 22 0 0 1-.963.128q-.392.052-.733.166a1.26 1.26 0 0 0-.545.337q-.205.222-.205.605 0 .525.388.793.391.264.993.264m4.682 3.204v-9h.972v1.04h.119q.11-.17.307-.434.2-.269.571-.478.375-.213 1.014-.213.827 0 1.457.414.631.413.985 1.171.353.76.353 1.79 0 1.04-.353 1.803-.354.759-.98 1.176a2.56 2.56 0 0 1-1.445.413q-.63 0-1.01-.208a1.9 1.9 0 0 1-.584-.482 7 7 0 0 1-.315-.452h-.085v3.46zm.989-5.727q0 .742.217 1.308.218.564.635.883.417.315 1.023.315.63 0 1.052-.332.426-.337.639-.904.218-.57.218-1.27 0-.69-.213-1.244a1.9 1.9 0 0 0-.635-.882q-.422-.328-1.061-.328-.613 0-1.032.31a1.87 1.87 0 0 0-.63.862q-.213.55-.213 1.282m8.983 3.41q-.92 0-1.586-.435a2.83 2.83 0 0 1-1.022-1.198q-.358-.763-.358-1.743 0-.996.366-1.76.37-.766 1.031-1.197.666-.435 1.552-.435.69 0 1.244.256t.908.716.439 1.074h-1.006a1.56 1.56 0 0 0-.512-.793q-.392-.35-1.056-.35a1.77 1.77 0 0 0-1.032.307 2 2 0 0 0-.686.857q-.243.55-.243 1.291 0 .759.239 1.321.243.562.682.874.443.31 1.04.311.392 0 .711-.136a1.46 1.46 0 0 0 .857-1.006h1.006a2.34 2.34 0 0 1-.422 1.044 2.36 2.36 0 0 1-.882.733q-.546.268-1.27.268m5.049-4.075V88h-1.005v-8.727h1.005v3.204h.086q.23-.507.69-.805.465-.303 1.236-.303.669 0 1.172.269.503.264.779.814.282.544.282 1.389V88h-1.006v-4.09q0-.78-.405-1.207-.4-.43-1.112-.43-.495 0-.886.209-.388.209-.614.609-.222.4-.222.972m8.011 4.091q-.623 0-1.13-.234a1.94 1.94 0 0 1-.805-.686q-.298-.452-.298-1.091 0-.562.221-.912.222-.353.593-.554.37-.2.818-.298.451-.102.907-.162.597-.077.968-.115.375-.043.545-.14.175-.099.175-.342v-.034q0-.63-.345-.98-.341-.35-1.036-.35-.72 0-1.129.316-.409.315-.575.673l-.955-.34q.256-.597.682-.93a2.55 2.55 0 0 1 .938-.468q.51-.137 1.005-.137.315 0 .725.077.413.073.797.303.387.23.643.694.255.465.256 1.245V88h-1.006v-.886h-.051a1.8 1.8 0 0 1-.341.456 2 2 0 0 1-.635.413q-.397.17-.967.17m.153-.903q.597 0 1.006-.234a1.6 1.6 0 0 0 .835-1.385v-.92q-.064.075-.281.14-.213.06-.495.106a22 22 0 0 1-.963.128q-.391.052-.733.166a1.26 1.26 0 0 0-.545.337q-.204.222-.205.605 0 .525.388.793.392.264.993.264m7.529-5.796v.853h-3.392v-.853zm-2.404-1.568h1.006v6.239q0 .426.124.64.127.208.324.28.2.069.421.069.166 0 .273-.017l.171-.034.204.903a2 2 0 0 1-.285.077 2 2 0 0 1-.465.042q-.426 0-.835-.183a1.66 1.66 0 0 1-.673-.558q-.265-.376-.265-.946z"/><circle cx="482" cy="84" r="6" fill="#747474"/><path fill="#C4C4C4" d="m478.65 88 2.535-3.679-2.379-3.471h1.378l1.417 2.21q.091.143.169.312.091.17.143.273.039-.104.117-.273.091-.17.182-.312l1.43-2.21h1.365l-2.379 3.484L485.15 88h-1.378l-1.534-2.34a4 4 0 0 1-.182-.325q-.078-.195-.143-.312a6 6 0 0 1-.156.312q-.091.182-.195.325L480.015 88z"/><rect width="62" height="22" x="225" y="103" fill="#EDECEC" rx="4"/><path fill="#222" d="M229.58 110.21v-.937h6.545v.937h-2.744V118h-1.057v-7.79zm8.04 7.79v-6.545h1.005V118zm.511-7.636a.7.7 0 0 1-.507-.201.64.64 0 0 1-.209-.481q0-.282.209-.482a.72.72 0 0 1 .507-.2q.294 0 .503.2a.64.64 0 0 1 .213.482.64.64 0 0 1-.213.481.7.7 0 0 1-.503.201m3.274 5.25-.017-1.245h.204l2.864-2.914h1.244l-3.051 3.085h-.085zm-.938 2.386v-8.727h1.006V118zm4.159 0-2.556-3.239.716-.699 3.119 3.938zm1.348-7.79v-.937h6.546v.937h-2.745V118h-1.057v-7.79zm9.75 7.926q-.886 0-1.555-.422a2.86 2.86 0 0 1-1.04-1.18q-.37-.759-.371-1.773 0-1.022.371-1.785.374-.763 1.04-1.185.669-.422 1.555-.422.887 0 1.551.422.67.422 1.04 1.185.375.763.375 1.785 0 1.014-.375 1.773a2.8 2.8 0 0 1-1.04 1.18q-.664.423-1.551.422m0-.903q.673 0 1.108-.345t.643-.908q.21-.562.209-1.219 0-.656-.209-1.223a2.06 2.06 0 0 0-.643-.916q-.435-.35-1.108-.349-.673 0-1.108.349-.435.35-.643.916-.21.567-.209 1.223 0 .657.209 1.219.208.563.643.908t1.108.345m5.439-1.619-.017-1.245h.204l2.864-2.914h1.244l-3.051 3.085h-.085zm-.938 2.386v-8.727h1.006V118zm4.159 0-2.557-3.239.716-.699 3.12 3.938z"/><circle cx="277" cy="114" r="6" fill="#747474"/><path fill="#C4C4C4" d="m273.65 118 2.535-3.679-2.379-3.471h1.378l1.417 2.21q.091.142.169.312.091.17.143.273.039-.104.117-.273.091-.17.182-.312l1.43-2.21h1.365l-2.379 3.484L280.15 118h-1.378l-1.534-2.34a4 4 0 0 1-.182-.325q-.078-.195-.143-.312a6 6 0 0 1-.156.312q-.091.182-.195.325l-1.547 2.34z"/><rect width="62" height="22" x="332" y="103" fill="#EDECEC" rx="4"/><path fill="#222" d="M337.057 118v-8.727h2.949q1.023 0 1.679.349.656.345.971.95.315.606.316 1.377 0 .771-.316 1.368a2.2 2.2 0 0 1-.967.937q-.652.337-1.666.337h-2.387v-.955h2.353q.699 0 1.125-.204.43-.205.622-.58.196-.38.196-.903 0-.525-.196-.916a1.34 1.34 0 0 0-.627-.605q-.43-.218-1.137-.218h-1.858V118zm4.108-3.92 2.147 3.92h-1.227l-2.113-3.92zm6.105 4.056q-.945 0-1.632-.417a2.8 2.8 0 0 1-1.052-1.176q-.367-.759-.367-1.765t.367-1.772q.37-.772 1.031-1.202.665-.435 1.551-.435.512 0 1.01.171.498.17.908.554.409.38.652 1.005.242.627.242 1.543v.426h-5.045v-.869h4.023q0-.554-.222-.989a1.67 1.67 0 0 0-.622-.686 1.75 1.75 0 0 0-.946-.251q-.601 0-1.04.298a1.96 1.96 0 0 0-.669.767 2.25 2.25 0 0 0-.234 1.014v.58q0 .741.255 1.257.26.512.721.78.46.264 1.069.264.396 0 .716-.111.324-.115.558-.341a1.55 1.55 0 0 0 .363-.571l.971.273a2.16 2.16 0 0 1-.515.869 2.5 2.5 0 0 1-.895.58 3.3 3.3 0 0 1-1.198.204m6.712 0q-.818 0-1.445-.413-.626-.417-.98-1.176-.354-.763-.354-1.803 0-1.031.354-1.789.354-.76.985-1.172.63-.414 1.457-.414.64 0 1.01.213.375.21.571.478.2.264.311.434h.085v-3.221h1.006V118h-.972v-1.006h-.119q-.111.18-.315.452-.205.269-.584.482-.38.208-1.01.208m.136-.903q.606 0 1.023-.315.417-.32.635-.882.217-.567.217-1.309 0-.733-.213-1.282a1.86 1.86 0 0 0-.63-.861q-.418-.311-1.032-.311-.639 0-1.065.328-.422.324-.635.882a3.5 3.5 0 0 0-.209 1.244q0 .699.213 1.27.217.567.639.904.427.332 1.057.332m7.317.903a2.56 2.56 0 0 1-1.445-.413q-.626-.417-.98-1.176-.353-.763-.353-1.803 0-1.031.353-1.789.354-.76.985-1.172.63-.414 1.457-.414.64 0 1.01.213.375.21.571.478.2.264.311.434h.085v-3.221h1.006V118h-.972v-1.006h-.119q-.111.18-.315.452-.205.269-.584.482-.38.208-1.01.208m.136-.903q.606 0 1.023-.315.418-.32.635-.882.217-.567.217-1.309 0-.733-.213-1.282a1.86 1.86 0 0 0-.63-.861q-.419-.311-1.032-.311-.639 0-1.065.328-.422.324-.635.882a3.5 3.5 0 0 0-.209 1.244q0 .699.213 1.27.217.567.64.904.426.332 1.056.332m4.846.767v-6.545h1.005V118zm.511-7.636a.7.7 0 0 1-.507-.201.64.64 0 0 1-.209-.481q0-.282.209-.482a.72.72 0 0 1 .507-.2q.294 0 .503.2a.64.64 0 0 1 .213.482.64.64 0 0 1-.213.481.7.7 0 0 1-.503.201m5.183 1.091v.852h-3.392v-.852zm-2.404-1.569h1.006v6.239q0 .426.124.639a.64.64 0 0 0 .324.281q.2.069.421.069.166 0 .273-.017l.171-.035.204.904a2.2 2.2 0 0 1-.75.119q-.426 0-.835-.183a1.66 1.66 0 0 1-.673-.558q-.265-.376-.265-.946z"/><circle cx="384" cy="114" r="6" fill="#747474"/><path fill="#C4C4C4" d="m380.65 118 2.535-3.679-2.379-3.471h1.378l1.417 2.21q.091.142.169.312.091.17.143.273.039-.104.117-.273.091-.17.182-.312l1.43-2.21h1.365l-2.379 3.484L387.15 118h-1.378l-1.534-2.34a4 4 0 0 1-.182-.325q-.078-.195-.143-.312a6 6 0 0 1-.156.312q-.091.182-.195.325l-1.547 2.34z"/><rect width="32" height="22" x="293" y="103" fill="#EDECEC" rx="4"/><path fill="#222" d="m298.568 109.273 2.25 3.63h.068l2.25-3.63h1.245l-2.745 4.363 2.745 4.364h-1.245l-2.25-3.562h-.068l-2.25 3.562h-1.244l2.812-4.364-2.812-4.363z"/><circle cx="315" cy="114" r="6" fill="#747474"/><path fill="#C4C4C4" d="m311.65 118 2.535-3.679-2.379-3.471h1.378l1.417 2.21q.091.142.169.312.091.17.143.273.039-.104.117-.273.091-.17.182-.312l1.43-2.21h1.365l-2.379 3.484L318.15 118h-1.378l-1.534-2.34a4 4 0 0 1-.182-.325q-.078-.195-.143-.312a6 6 0 0 1-.156.312q-.091.182-.195.325l-1.547 2.34z"/><path fill="#fff" fill-rule="evenodd" stroke="#fff" stroke-miterlimit="10" d="m51.769 247.532-6.763 7.008-3.777-3.963.588-.56 3.192 3.349 6.175-6.398z" clip-rule="evenodd"/><rect width="14" height="16" x="39.5" y="271.5" fill="#2D2D2D" stroke="#747474" stroke-linejoin="round" rx="3.5"/><path fill="#fff" fill-rule="evenodd" stroke="#fff" stroke-miterlimit="10" d="m51.769 277.532-6.763 7.008-3.777-3.963.588-.56 3.192 3.349 6.175-6.398z" clip-rule="evenodd"/><path fill="#222" d="M258.75 254h-2.693v-8.727h2.812q1.27 0 2.174.524a3.43 3.43 0 0 1 1.385 1.496q.481.971.481 2.326 0 1.364-.486 2.348a3.46 3.46 0 0 1-1.414 1.509q-.93.524-2.259.524m-1.636-.938h1.568q1.082 0 1.794-.417a2.58 2.58 0 0 0 1.061-1.189q.35-.77.349-1.837 0-1.056-.345-1.819a2.54 2.54 0 0 0-1.031-1.176q-.686-.414-1.709-.414h-1.687zm7.431.938v-6.545h1.006V254zm.512-7.636a.7.7 0 0 1-.507-.201.64.64 0 0 1-.209-.481q0-.282.209-.482a.72.72 0 0 1 .507-.2q.293 0 .503.2a.64.64 0 0 1 .213.482.64.64 0 0 1-.213.481.7.7 0 0 1-.503.201m6.972 2.556-.903.256a1.7 1.7 0 0 0-.251-.439 1.2 1.2 0 0 0-.444-.358q-.28-.14-.72-.14-.6 0-1.001.277-.396.272-.396.694 0 .375.272.593.273.216.853.362l.971.238q.877.214 1.308.652.43.435.431 1.121 0 .562-.324 1.006a2.15 2.15 0 0 1-.895.699q-.575.255-1.338.255-1.002 0-1.658-.434-.656-.435-.831-1.27l.955-.239q.136.529.516.793.383.264 1.001.264.704 0 1.116-.298.418-.303.418-.725a.76.76 0 0 0-.239-.571q-.238-.234-.733-.349l-1.09-.256q-.9-.213-1.322-.66-.417-.452-.417-1.13 0-.554.311-.98a2.1 2.1 0 0 1 .856-.669 3 3 0 0 1 1.236-.243q.972 0 1.526.426.558.428.792 1.125m3.56 5.233q-.622 0-1.129-.234a1.94 1.94 0 0 1-.806-.686q-.298-.452-.298-1.091 0-.562.221-.912.222-.353.593-.554a3.1 3.1 0 0 1 .818-.298 10 10 0 0 1 .908-.162q.596-.077.967-.115.375-.043.545-.141.175-.098.175-.341v-.034q0-.63-.345-.98-.341-.35-1.036-.349-.72 0-1.129.315-.409.316-.575.673l-.955-.341q.256-.596.682-.929.43-.336.938-.468a4 4 0 0 1 1.005-.137q.316 0 .725.077.413.072.797.303.387.23.643.694.256.465.256 1.245V254h-1.006v-.886h-.051a1.8 1.8 0 0 1-.341.456 2 2 0 0 1-.635.413q-.397.17-.967.17m.153-.903q.597 0 1.006-.234.413-.235.622-.605.213-.372.213-.78v-.921q-.064.077-.281.141a5 5 0 0 1-.494.106 21 21 0 0 1-.964.128 4 4 0 0 0-.732.166 1.26 1.26 0 0 0-.546.337q-.204.221-.204.605 0 .525.387.793.393.264.993.264m4.819.75v-8.727h1.005v3.221h.086q.11-.17.306-.434.2-.268.571-.478.375-.213 1.015-.213.827 0 1.457.414.632.413.984 1.172.354.758.354 1.789 0 1.04-.354 1.803-.353.759-.98 1.176-.626.414-1.444.413-.631 0-1.01-.208a1.9 1.9 0 0 1-.584-.482 6 6 0 0 1-.315-.452h-.12V254zm.988-3.273q0 .742.218 1.309.217.563.635.882.417.315 1.022.315.631 0 1.053-.332.426-.337.639-.904.217-.571.217-1.27 0-.69-.213-1.244a1.9 1.9 0 0 0-.635-.882q-.422-.328-1.061-.328-.613 0-1.031.311a1.86 1.86 0 0 0-.631.861q-.213.55-.213 1.282m7.334-5.454V254h-1.006v-8.727zm4.586 8.863q-.945 0-1.632-.417a2.8 2.8 0 0 1-1.052-1.176q-.367-.759-.367-1.765t.367-1.772a2.9 2.9 0 0 1 1.031-1.202q.664-.435 1.551-.435.512 0 1.01.171.499.17.908.554.41.38.652 1.005.243.627.243 1.543v.426h-5.046v-.869h4.023q0-.554-.222-.989a1.67 1.67 0 0 0-.622-.686 1.75 1.75 0 0 0-.946-.251q-.6 0-1.04.298a2 2 0 0 0-.669.767 2.25 2.25 0 0 0-.234 1.014v.58q0 .741.256 1.257.26.512.72.78a2.1 2.1 0 0 0 1.069.264q.397 0 .716-.111a1.5 1.5 0 0 0 .559-.341q.234-.23.362-.571l.971.273a2.16 2.16 0 0 1-.515.869 2.5 2.5 0 0 1-.895.58 3.3 3.3 0 0 1-1.198.204m10.53-6.681v.852h-3.528v-.852zM301.528 254v-7.449q0-.562.264-.937t.686-.563.891-.187q.37 0 .605.059.234.06.349.111l-.29.869a6 6 0 0 0-.213-.064 1.3 1.3 0 0 0-.349-.038q-.5 0-.72.252-.218.25-.218.737V254zm3.881 0v-6.545h1.005V254zm.511-7.636a.7.7 0 0 1-.507-.201.64.64 0 0 1-.209-.481q0-.282.209-.482a.72.72 0 0 1 .507-.2q.294 0 .503.2a.64.64 0 0 1 .213.482.64.64 0 0 1-.213.481.7.7 0 0 1-.503.201m3.342-1.091V254h-1.006v-8.727zm4.586 8.863q-.945 0-1.632-.417a2.8 2.8 0 0 1-1.052-1.176q-.367-.759-.367-1.765t.367-1.772a2.9 2.9 0 0 1 1.031-1.202q.665-.435 1.551-.435.512 0 1.01.171.498.17.908.554.409.38.652 1.005.243.627.243 1.543v.426h-5.046v-.869h4.023q0-.554-.222-.989a1.67 1.67 0 0 0-.622-.686 1.75 1.75 0 0 0-.946-.251q-.6 0-1.04.298a2 2 0 0 0-.669.767 2.25 2.25 0 0 0-.234 1.014v.58q0 .741.256 1.257.26.512.72.78a2.1 2.1 0 0 0 1.069.264q.397 0 .716-.111a1.5 1.5 0 0 0 .559-.341q.234-.23.362-.571l.971.273a2.16 2.16 0 0 1-.515.869 2.5 2.5 0 0 1-.895.58 3.3 3.3 0 0 1-1.198.204m10.087 0a2.56 2.56 0 0 1-1.445-.413q-.626-.417-.98-1.176-.353-.763-.353-1.803 0-1.031.353-1.789.354-.76.985-1.172.63-.414 1.457-.414.64 0 1.01.213.375.21.571.478.2.264.311.434h.085v-3.221h1.006V254h-.972v-1.006h-.119q-.111.18-.315.452-.205.269-.584.482-.38.208-1.01.208m.136-.903q.606 0 1.023-.315.418-.32.635-.882.217-.567.217-1.309 0-.732-.213-1.282a1.86 1.86 0 0 0-.63-.861q-.419-.312-1.032-.311-.639 0-1.065.328-.422.324-.635.882a3.5 3.5 0 0 0-.209 1.244q0 .699.213 1.27.217.567.64.904.426.332 1.056.332m7.505.903q-.887 0-1.556-.422a2.86 2.86 0 0 1-1.04-1.18q-.37-.759-.37-1.773 0-1.022.37-1.785.375-.763 1.04-1.185.67-.422 1.556-.422.887 0 1.551.422.668.421 1.04 1.185.375.763.375 1.785 0 1.014-.375 1.773a2.83 2.83 0 0 1-1.04 1.18q-.664.423-1.551.422m0-.903q.673 0 1.108-.345.434-.345.643-.908a3.5 3.5 0 0 0 .209-1.219q0-.656-.209-1.223a2.07 2.07 0 0 0-.643-.916q-.435-.35-1.108-.349-.674 0-1.108.349-.435.35-.644.916a3.5 3.5 0 0 0-.209 1.223q0 .657.209 1.219t.644.908q.434.345 1.108.345m5.761.767-1.994-6.545h1.057l1.414 5.011h.068l1.398-5.011h1.074l1.381 4.994h.068l1.415-4.994h1.057L342.28 254h-.988l-1.432-5.028h-.103L338.326 254zm9.273-3.938V254h-1.006v-6.545h.972v1.022h.085q.23-.498.699-.801.469-.307 1.21-.307.665 0 1.163.273.499.269.776.818.277.546.277 1.381V254h-1.006v-4.091q0-.771-.4-1.202-.4-.434-1.1-.434-.481 0-.861.209-.375.209-.592.609t-.217.971m7.019-4.789V254h-1.005v-8.727zm4.501 8.863q-.886 0-1.555-.422a2.86 2.86 0 0 1-1.04-1.18q-.37-.759-.371-1.773 0-1.022.371-1.785.375-.763 1.04-1.185.669-.422 1.555-.422t1.551.422q.67.421 1.04 1.185.375.763.375 1.785 0 1.014-.375 1.773a2.8 2.8 0 0 1-1.04 1.18q-.665.423-1.551.422m0-.903q.674 0 1.108-.345t.644-.908a3.5 3.5 0 0 0 .209-1.219q0-.656-.209-1.223a2.06 2.06 0 0 0-.644-.916q-.434-.35-1.108-.349-.673 0-1.108.349a2.07 2.07 0 0 0-.643.916 3.5 3.5 0 0 0-.209 1.223q0 .657.209 1.219t.643.908q.435.345 1.108.345m6.428.92q-.623 0-1.13-.234a1.94 1.94 0 0 1-.805-.686q-.298-.452-.298-1.091 0-.562.221-.912.222-.353.592-.554.371-.2.819-.298.451-.102.907-.162.597-.077.968-.115.375-.043.545-.141.175-.098.175-.341v-.034q0-.63-.345-.98-.342-.35-1.036-.349-.72 0-1.129.315-.41.316-.575.673l-.955-.341q.256-.596.682-.929.43-.336.937-.468a4 4 0 0 1 1.006-.137q.315 0 .725.077.413.072.796.303.388.23.644.694.255.465.256 1.245V254h-1.006v-.886h-.051a1.8 1.8 0 0 1-.341.456 2 2 0 0 1-.635.413q-.397.17-.967.17m.153-.903q.597 0 1.006-.234.413-.235.622-.605.213-.372.213-.78v-.921q-.065.077-.281.141-.213.06-.495.106a21 21 0 0 1-.963.128 4 4 0 0 0-.733.166 1.26 1.26 0 0 0-.545.337q-.205.221-.205.605 0 .525.388.793.392.264.993.264m7.154.886q-.818 0-1.445-.413-.627-.417-.98-1.176-.354-.763-.354-1.803 0-1.031.354-1.789.354-.76.984-1.172.631-.414 1.458-.414.64 0 1.01.213.375.21.571.478.2.264.311.434h.085v-3.221h1.006V254h-.972v-1.006h-.119a6 6 0 0 1-.316.452q-.205.269-.583.482-.38.208-1.01.208m.136-.903q.605 0 1.023-.315.417-.32.635-.882.217-.567.217-1.309 0-.732-.213-1.282-.213-.555-.631-.861-.417-.312-1.031-.311-.639 0-1.065.328a1.96 1.96 0 0 0-.635.882 3.5 3.5 0 0 0-.209 1.244q0 .699.213 1.27.217.567.639.904.426.332 1.057.332m9.482-4.313-.904.256a1.7 1.7 0 0 0-.251-.439 1.2 1.2 0 0 0-.443-.358q-.282-.14-.721-.14-.6 0-1.001.277-.396.272-.396.694 0 .375.272.593.273.216.853.362l.971.238q.879.214 1.309.652.43.435.43 1.121 0 .562-.324 1.006a2.15 2.15 0 0 1-.895.699q-.575.255-1.338.255-1.002 0-1.658-.434-.656-.435-.831-1.27l.955-.239q.137.529.516.793.383.264 1.001.264.703 0 1.117-.298.417-.303.417-.725a.76.76 0 0 0-.238-.571q-.24-.234-.733-.349l-1.091-.256q-.9-.213-1.321-.66-.418-.452-.418-1.13 0-.554.311-.98.315-.426.857-.669a3 3 0 0 1 1.235-.243q.972 0 1.526.426.558.428.793 1.125M258.75 284h-2.693v-8.727h2.812q1.27 0 2.174.524a3.43 3.43 0 0 1 1.385 1.496q.481.971.481 2.326 0 1.364-.486 2.348a3.46 3.46 0 0 1-1.414 1.509q-.93.524-2.259.524m-1.636-.938h1.568q1.082 0 1.794-.417a2.58 2.58 0 0 0 1.061-1.189q.35-.77.349-1.837 0-1.056-.345-1.819a2.54 2.54 0 0 0-1.031-1.176q-.686-.414-1.709-.414h-1.687zm7.431.938v-6.545h1.006V284zm.512-7.636a.7.7 0 0 1-.507-.201.64.64 0 0 1-.209-.481q0-.282.209-.482a.72.72 0 0 1 .507-.2q.293 0 .503.2a.64.64 0 0 1 .213.482.64.64 0 0 1-.213.481.7.7 0 0 1-.503.201m6.972 2.556-.903.256a1.7 1.7 0 0 0-.251-.439 1.2 1.2 0 0 0-.444-.358q-.28-.14-.72-.14-.6 0-1.001.277-.396.272-.396.694 0 .375.272.593.273.216.853.362l.971.238q.877.214 1.308.652.43.435.431 1.121 0 .562-.324 1.006a2.15 2.15 0 0 1-.895.699q-.575.255-1.338.255-1.002 0-1.658-.434-.656-.435-.831-1.27l.955-.239q.136.529.516.793.383.264 1.001.264.704 0 1.116-.298.418-.303.418-.725a.76.76 0 0 0-.239-.571q-.238-.234-.733-.349l-1.09-.256q-.9-.213-1.322-.66-.417-.452-.417-1.13 0-.554.311-.98a2.1 2.1 0 0 1 .856-.669 3 3 0 0 1 1.236-.243q.972 0 1.526.426.558.428.792 1.125m3.56 5.233q-.622 0-1.129-.234a1.94 1.94 0 0 1-.806-.686q-.298-.452-.298-1.091 0-.562.221-.912.222-.353.593-.554a3.1 3.1 0 0 1 .818-.298 10 10 0 0 1 .908-.162q.596-.077.967-.115.375-.043.545-.141.175-.098.175-.341v-.034q0-.63-.345-.98-.341-.35-1.036-.349-.72 0-1.129.315t-.575.673l-.955-.341q.256-.596.682-.929.43-.336.938-.468a4 4 0 0 1 1.005-.137q.316 0 .725.077.413.072.797.303.387.23.643.694.256.465.256 1.245V284h-1.006v-.886h-.051a1.8 1.8 0 0 1-.341.456 2 2 0 0 1-.635.413q-.397.17-.967.17m.153-.903q.597 0 1.006-.234.413-.235.622-.605.213-.372.213-.78v-.921q-.064.076-.281.141a5 5 0 0 1-.494.106 21 21 0 0 1-.964.128 4 4 0 0 0-.732.166 1.26 1.26 0 0 0-.546.337q-.204.221-.204.605 0 .525.387.793.393.264.993.264m4.819.75v-8.727h1.005v3.221h.086q.11-.17.306-.434.2-.268.571-.478.375-.213 1.015-.213.827 0 1.457.414.632.413.984 1.172.354.758.354 1.789 0 1.04-.354 1.803-.353.759-.98 1.176-.626.414-1.444.413-.631 0-1.01-.208a1.9 1.9 0 0 1-.584-.482 6 6 0 0 1-.315-.452h-.12V284zm.988-3.273q0 .742.218 1.309.217.562.635.882.417.315 1.022.315.631 0 1.053-.332.426-.337.639-.904.217-.571.217-1.27 0-.69-.213-1.244a1.9 1.9 0 0 0-.635-.882q-.422-.328-1.061-.328-.613 0-1.031.311a1.86 1.86 0 0 0-.631.861q-.213.55-.213 1.282m7.334-5.454V284h-1.006v-8.727zm4.586 8.863q-.945 0-1.632-.417a2.8 2.8 0 0 1-1.052-1.176q-.367-.759-.367-1.765t.367-1.772a2.9 2.9 0 0 1 1.031-1.202q.664-.435 1.551-.435.512 0 1.01.171.499.17.908.554.41.38.652 1.005.243.627.243 1.543v.426h-5.046v-.869h4.023q0-.554-.222-.989a1.67 1.67 0 0 0-.622-.686 1.75 1.75 0 0 0-.946-.251q-.6 0-1.04.298a2 2 0 0 0-.669.767 2.25 2.25 0 0 0-.234 1.014v.58q0 .741.256 1.257.26.512.72.78a2.1 2.1 0 0 0 1.069.264q.397 0 .716-.111a1.5 1.5 0 0 0 .559-.341q.234-.23.362-.571l.971.273a2.16 2.16 0 0 1-.515.869 2.5 2.5 0 0 1-.895.58 3.3 3.3 0 0 1-1.198.204m10.53-6.681v.852h-3.528v-.852zM301.528 284v-7.449q0-.562.264-.937t.686-.563.891-.187q.37 0 .605.059.234.06.349.111l-.29.869a6 6 0 0 0-.213-.064 1.3 1.3 0 0 0-.349-.038q-.5 0-.72.252-.218.25-.218.737V284zm3.881 0v-6.545h1.005V284zm.511-7.636a.7.7 0 0 1-.507-.201.64.64 0 0 1-.209-.481q0-.282.209-.482a.72.72 0 0 1 .507-.2q.294 0 .503.2a.64.64 0 0 1 .213.482.64.64 0 0 1-.213.481.7.7 0 0 1-.503.201m3.342-1.091V284h-1.006v-8.727zm4.586 8.863q-.945 0-1.632-.417a2.8 2.8 0 0 1-1.052-1.176q-.367-.759-.367-1.765t.367-1.772a2.9 2.9 0 0 1 1.031-1.202q.665-.435 1.551-.435.512 0 1.01.171.498.17.908.554.409.38.652 1.005.243.627.243 1.543v.426h-5.046v-.869h4.023q0-.554-.222-.989a1.67 1.67 0 0 0-.622-.686 1.75 1.75 0 0 0-.946-.251q-.6 0-1.04.298a2 2 0 0 0-.669.767 2.25 2.25 0 0 0-.234 1.014v.58q0 .741.256 1.257.26.512.72.78a2.1 2.1 0 0 0 1.069.264q.397 0 .716-.111a1.5 1.5 0 0 0 .559-.341q.234-.23.362-.571l.971.273a2.16 2.16 0 0 1-.515.869 2.5 2.5 0 0 1-.895.58 3.3 3.3 0 0 1-1.198.204m11.74-2.812v-3.869h1.006V284h-1.006v-1.108h-.068a2.15 2.15 0 0 1-.716.848q-.486.345-1.227.345-.614 0-1.091-.268a1.9 1.9 0 0 1-.75-.818q-.273-.55-.273-1.385v-4.159h1.006v4.09q0 .716.401 1.143.404.426 1.031.426.375 0 .763-.192.392-.192.656-.588.268-.396.268-1.01m2.848 5.131v-9h.972v1.039h.119a9 9 0 0 1 .307-.434q.2-.268.571-.478.375-.213 1.014-.213.827 0 1.457.414.631.413.985 1.172t.353 1.789q0 1.04-.353 1.803-.354.759-.98 1.176-.626.414-1.445.413-.63 0-1.01-.208a1.9 1.9 0 0 1-.584-.482 7 7 0 0 1-.315-.452h-.085v3.461zm.989-5.728q0 .742.217 1.309.218.562.635.882.417.315 1.023.315.63 0 1.052-.332.426-.337.639-.904.218-.571.218-1.27 0-.69-.213-1.244a1.9 1.9 0 0 0-.635-.882q-.422-.328-1.061-.328-.613 0-1.032.311a1.86 1.86 0 0 0-.63.861q-.213.55-.213 1.282m7.329-5.454V284h-1.005v-8.727zm4.501 8.863q-.886 0-1.555-.422a2.86 2.86 0 0 1-1.04-1.18q-.37-.759-.371-1.773 0-1.022.371-1.785.375-.764 1.04-1.185.669-.422 1.555-.422t1.551.422q.67.421 1.04 1.185.375.763.375 1.785 0 1.014-.375 1.773a2.8 2.8 0 0 1-1.04 1.18q-.665.423-1.551.422m0-.903q.674 0 1.108-.345t.644-.908a3.5 3.5 0 0 0 .209-1.219q0-.656-.209-1.223a2.06 2.06 0 0 0-.644-.916q-.434-.35-1.108-.349-.673 0-1.108.349a2.07 2.07 0 0 0-.643.916 3.5 3.5 0 0 0-.209 1.223q0 .657.209 1.219t.643.908q.435.345 1.108.345m6.428.92q-.623 0-1.13-.234a1.94 1.94 0 0 1-.805-.686q-.298-.452-.298-1.091 0-.562.221-.912.222-.353.592-.554.371-.2.819-.298.451-.102.907-.162.597-.077.968-.115.375-.043.545-.141.175-.098.175-.341v-.034q0-.63-.345-.98-.342-.35-1.036-.349-.72 0-1.129.315t-.575.673l-.955-.341q.256-.596.682-.929.43-.336.937-.468a4 4 0 0 1 1.006-.137q.315 0 .725.077.413.072.796.303.388.23.644.694.255.465.256 1.245V284h-1.006v-.886h-.051a1.8 1.8 0 0 1-.341.456 2 2 0 0 1-.635.413q-.397.17-.967.17m.153-.903q.597 0 1.006-.234.413-.235.622-.605.213-.372.213-.78v-.921q-.065.076-.281.141-.213.06-.495.106a21 21 0 0 1-.963.128 4 4 0 0 0-.733.166 1.26 1.26 0 0 0-.545.337q-.205.221-.205.605 0 .525.388.793.392.264.993.264m7.154.886q-.818 0-1.445-.413-.627-.417-.98-1.176-.354-.763-.354-1.803 0-1.031.354-1.789.354-.76.984-1.172.631-.414 1.458-.414.64 0 1.01.213.375.21.571.478.2.264.311.434h.085v-3.221h1.006V284h-.972v-1.006h-.119a6 6 0 0 1-.316.452q-.205.269-.583.482-.38.208-1.01.208m.136-.903q.605 0 1.023-.315.417-.32.635-.882.217-.567.217-1.309 0-.732-.213-1.282-.213-.555-.631-.861-.417-.312-1.031-.311-.639 0-1.065.328a1.96 1.96 0 0 0-.635.882 3.5 3.5 0 0 0-.209 1.244q0 .699.213 1.27.217.567.639.904.426.332 1.057.332m9.482-4.313-.904.256a1.7 1.7 0 0 0-.251-.439 1.2 1.2 0 0 0-.443-.358q-.282-.14-.721-.14-.6 0-1.001.277-.396.272-.396.694 0 .375.272.593.273.216.853.362l.971.238q.879.214 1.309.652.43.435.43 1.121 0 .562-.324 1.006a2.15 2.15 0 0 1-.895.699q-.575.255-1.338.255-1.002 0-1.658-.434-.656-.435-.831-1.27l.955-.239q.137.529.516.793.383.264 1.001.264.703 0 1.117-.298.417-.303.417-.725a.76.76 0 0 0-.238-.571q-.24-.234-.733-.349l-1.091-.256q-.9-.213-1.321-.66-.418-.452-.418-1.13 0-.554.311-.98.315-.426.857-.669a3 3 0 0 1 1.235-.243q.972 0 1.526.426.558.428.793 1.125"/><rect width="14" height="16" x="229.5" y="241.5" fill="#2D2D2D" stroke="#747474" stroke-linejoin="round" rx="3.5"/><path fill="#fff" fill-rule="evenodd" stroke="#fff" stroke-miterlimit="10" d="m241.769 247.532-6.763 7.008-3.777-3.963.588-.56 3.192 3.349 6.175-6.398z" clip-rule="evenodd"/><rect width="14" height="16" x="229.5" y="271.5" fill="#2D2D2D" stroke="#747474" stroke-linejoin="round" rx="3.5"/><path fill="#fff" fill-rule="evenodd" stroke="#fff" stroke-miterlimit="10" d="m241.769 277.532-6.763 7.008-3.777-3.963.588-.56 3.192 3.349 6.175-6.398z" clip-rule="evenodd"/></svg>