<svg xmlns="http://www.w3.org/2000/svg" width="720" height="311" fill="none" viewBox="0 0 720 311"><path fill="#fff" d="M0 0h720v311H0z"/><path stroke="#6ECCE5" stroke-dasharray="10 10" stroke-width="2" d="M31 86h195v156H31z"/><path fill="#fff" d="M192 186h69v33h-69z"/><circle cx="227" cy="168" r="14" fill="#fff"/><path fill="#E2F5FA" stroke="#F6821F" stroke-width="2" d="M469 183H228v-30h241zm87-82H315V71h241zm0 168H315v-30h241z"/><path fill="#E2F5FA" stroke="#F6821F" stroke-width="2" d="M315 71v198h-30V71z"/><path fill="#E2F5FA" d="M303 240h23v28h-23zm0-168h23v28h-23zm-24 82h47v28h-47z"/><path fill="#C5EBF5" stroke="#0055DC" stroke-miterlimit="10" stroke-width="1.5" d="M66 112h23v55.75H66z"/><path fill="#fff" d="M69 118h19.256v50H69z"/><path fill="#0055DC" d="M71.164 137.394h-2.068v-2.069h2.068zm0 6.592h-2.068v-2.069h2.068zm0 6.592h-2.068v-2.068h2.068zm0 6.593h-2.068v-2.069h2.068zm0 6.592h-2.068v-2.068h2.068zm0-32.962h-2.068v-2.069h2.068zm4.751 6.593h-2.068v-2.069h2.068zm0 6.592h-2.068v-2.069h2.068zm0 6.592h-2.068v-2.068h2.068zm0 6.593h-2.068v-2.069h2.068zm0 6.592h-2.068v-2.068h2.068zm0-32.962h-2.068v-2.069h2.068zm5.248 6.593h-2.069v-2.069h2.069zm0 6.592h-2.069v-2.069h2.069zm0 6.592h-2.069v-2.068h2.069zm0 6.593h-2.069v-2.069h2.069zm0 6.592h-2.069v-2.068h2.069zm0-32.962h-2.069v-2.069h2.069zm5.247 6.593h-2.07v-2.069h2.07zm0 6.592h-2.07v-2.069h2.07zm0 6.592h-2.07v-2.068h2.07zm0 6.593h-2.07v-2.069h2.07zm0 6.592h-2.07v-2.068h2.07zm0-32.962h-2.07v-2.069h2.07zm-22.862-4.176h2.285v41.125h-2.285zM125 127h2.285v41.125H125z"/><path fill="#fff" stroke="#0055DC" stroke-miterlimit="10" stroke-width="1.5" d="M89 123h36v44.75H89z"/><path fill="#003682" d="M100.895 158.37h12.788v9.131h-12.788z"/><path fill="#C5EBF5" d="M112.988 126.157h8.832v8.783h-8.832zm-10.115 0h8.832v8.783h-8.832zm-10.116 0h8.832v8.783h-8.832zm20.231 10.738h8.832v8.783h-8.832zm-10.115 0h8.832v8.783h-8.832zm-10.116 0h8.832v8.783h-8.832zm20.231 10.737h8.832v8.783h-8.832zm-10.115 0h8.832v8.783h-8.832zm-10.116 0h8.832v8.783h-8.832z"/><path fill="#0055DC" d="M204.53 168.53a.75.75 0 0 0 0-1.06l-4.773-4.773a.749.749 0 1 0-1.06 1.06l4.242 4.243-4.242 4.243a.749.749 0 1 0 1.06 1.06zm-.53-1.28H50v1.5h154z"/><path stroke="#0055DC" stroke-miterlimit="10" stroke-width="1.5" d="M168 216V116m-14 91h14m0-20h14m-14-57h14m-28 22h14"/><path fill="#222" d="M58.027 184.636q0 1.428-.542 2.429a3.75 3.75 0 0 1-1.466 1.53q-.925.524-2.08.524-1.162 0-2.087-.528t-1.462-1.53-.537-2.425q0-1.427.537-2.429t1.462-1.525q.924-.529 2.088-.529 1.155 0 2.08.529.928.524 1.465 1.525.541 1.002.541 2.429m-1.871 0q0-.924-.277-1.559-.274-.636-.772-.963a2.07 2.07 0 0 0-1.167-.328q-.669 0-1.168.328-.498.327-.775.963-.273.635-.273 1.559 0 .925.273 1.56.276.634.775.963.5.328 1.168.328.669 0 1.167-.328.5-.329.772-.963.276-.635.277-1.56m6.723-2.181v1.363h-4.04v-1.363zM59.764 189v-7.018q0-.712.277-1.181a1.8 1.8 0 0 1 .767-.703 2.5 2.5 0 0 1 1.104-.234q.417 0 .763.064.35.063.52.115l-.324 1.363a3 3 0 0 0-.265-.064 1.6 1.6 0 0 0-.315-.03q-.4 0-.558.188-.158.183-.158.516V189zm7.744-6.545v1.363h-4.04v-1.363zM64.393 189v-7.018q0-.712.277-1.181a1.8 1.8 0 0 1 .767-.703 2.5 2.5 0 0 1 1.104-.234q.417 0 .762.064.35.063.52.115l-.323 1.363a3 3 0 0 0-.265-.064 1.6 1.6 0 0 0-.315-.03q-.4 0-.558.188-.158.183-.158.516V189zm4.224 0v-6.545h1.815V189zm.912-7.389a1 1 0 0 1-.695-.269.87.87 0 0 1-.285-.652q0-.375.285-.643a.98.98 0 0 1 .695-.273q.405 0 .69.273.29.268.29.643a.86.86 0 0 1-.29.652.97.97 0 0 1-.69.269m5.315 7.517q-1.005 0-1.73-.426a2.9 2.9 0 0 1-1.108-1.193q-.384-.763-.384-1.756 0-1.006.388-1.764a2.9 2.9 0 0 1 1.112-1.189q.72-.43 1.713-.431.856 0 1.5.311.645.312 1.019.874.375.562.413 1.321h-1.713q-.072-.49-.383-.788-.307-.303-.806-.303a1.22 1.22 0 0 0-.737.23q-.311.226-.486.661-.174.434-.174 1.052 0 .627.17 1.066.174.438.49.669.315.23.737.23a1.2 1.2 0 0 0 .559-.128q.25-.128.413-.371a1.4 1.4 0 0 0 .217-.592h1.713q-.042.75-.409 1.321a2.47 2.47 0 0 1-1.001.886q-.639.32-1.513.32m7.069 0q-1.01 0-1.74-.409a2.8 2.8 0 0 1-1.116-1.168q-.392-.759-.392-1.794 0-1.01.392-1.773.393-.762 1.104-1.189.716-.426 1.679-.426.648 0 1.206.209.563.204.98.618.422.414.656 1.04.235.622.235 1.457v.499H79.39v-1.125h3.818q0-.393-.17-.695a1.2 1.2 0 0 0-.474-.473 1.35 1.35 0 0 0-.694-.175q-.414 0-.733.192-.315.188-.494.507-.179.316-.184.703v1.07q0 .486.18.84.182.353.515.545.332.192.788.192.303 0 .554-.085t.43-.256q.18-.17.273-.418l1.68.111q-.128.605-.525 1.057-.392.447-1.014.699-.618.246-1.428.247m8.781-3.912V189H88.88v-6.545h1.73v1.154h.077a1.83 1.83 0 0 1 .728-.903q.511-.337 1.24-.337.682 0 1.19.299.506.298.788.852.28.55.28 1.312V189h-1.815v-3.844q.005-.6-.306-.937-.311-.341-.857-.341-.366 0-.648.158-.277.157-.434.46a1.6 1.6 0 0 0-.158.72m8.632 3.912q-1.01 0-1.738-.409a2.8 2.8 0 0 1-1.117-1.168q-.392-.759-.392-1.794 0-1.01.392-1.773.393-.762 1.104-1.189.716-.426 1.68-.426.646 0 1.205.209.563.204.98.618.422.414.656 1.04.235.622.235 1.457v.499h-5.527v-1.125h3.818q0-.393-.17-.695a1.23 1.23 0 0 0-.474-.473 1.35 1.35 0 0 0-.694-.175q-.414 0-.733.192-.315.188-.494.507-.179.316-.184.703v1.07q0 .486.18.84.182.353.515.545.332.192.788.192.303 0 .554-.085t.431-.256a1.1 1.1 0 0 0 .272-.418l1.679.111q-.128.605-.524 1.057a2.6 2.6 0 0 1-1.014.699q-.618.246-1.428.247m7.671-6.673v1.363h-3.942v-1.363zm-3.047-1.569h1.815v6.103a.8.8 0 0 0 .077.392.42.42 0 0 0 .213.191.9.9 0 0 0 .324.056q.128 0 .256-.021l.196-.039.285 1.351a5 5 0 0 1-.383.098q-.247.06-.601.072-.657.026-1.151-.174a1.6 1.6 0 0 1-.762-.622q-.273-.423-.269-1.066zm5.521 8.114-1.782-6.545h1.837l1.014 4.397h.06l1.057-4.397h1.802l1.074 4.372h.056l.997-4.372h1.832L115.641 189h-1.922l-1.125-4.116h-.081L111.388 189zm11.709.128q-.994 0-1.717-.422a2.9 2.9 0 0 1-1.113-1.185q-.392-.763-.392-1.768 0-1.014.392-1.773a2.86 2.86 0 0 1 1.113-1.185q.724-.426 1.717-.426t1.713.426a2.85 2.85 0 0 1 1.116 1.185q.392.759.392 1.773 0 1.005-.392 1.768a2.87 2.87 0 0 1-1.116 1.185q-.72.422-1.713.422m.008-1.406q.453 0 .755-.256.301-.26.456-.707.157-.448.157-1.019t-.157-1.018a1.6 1.6 0 0 0-.456-.708 1.12 1.12 0 0 0-.755-.26q-.456 0-.767.26a1.6 1.6 0 0 0-.464.708 3.1 3.1 0 0 0-.154 1.018q0 .571.154 1.019a1.6 1.6 0 0 0 .464.707q.311.256.767.256m4.394 1.278v-6.545h1.76v1.142h.068q.179-.61.601-.921a1.58 1.58 0 0 1 .971-.315 2.6 2.6 0 0 1 .571.064v1.611a3.2 3.2 0 0 0-.767-.098 1.46 1.46 0 0 0-.716.174 1.3 1.3 0 0 0-.494.477 1.4 1.4 0 0 0-.179.708V189zm6.555-1.884.004-2.177h.264l2.097-2.484h2.084l-2.817 3.289h-.43zM130.492 189v-8.727h1.815V189zm4.091 0-1.926-2.851 1.21-1.283 2.842 4.134zm-74.79 5.273V203h-1.056v-7.619h-.051l-2.13 1.414v-1.073l2.181-1.449zM62.578 203l3.903-7.722v-.068h-4.5v-.937h5.59v.988L63.686 203zm6.582 0v-.767l2.881-3.153q.507-.555.835-.964.328-.413.486-.775.162-.366.162-.767 0-.46-.222-.797a1.44 1.44 0 0 0-.596-.52 1.9 1.9 0 0 0-.852-.183q-.504 0-.878.209a1.44 1.44 0 0 0-.576.575q-.2.37-.2.869h-1.006q0-.767.354-1.346t.963-.904q.614-.324 1.376-.324.768 0 1.36.324t.929.874.337 1.223q0 .481-.175.942-.171.456-.597 1.018-.422.558-1.172 1.364l-1.96 2.096v.068h4.057V203zm8.016.068a.74.74 0 0 1-.541-.226.74.74 0 0 1-.226-.541q0-.315.226-.541a.74.74 0 0 1 .54-.226q.316 0 .542.226t.226.541a.8.8 0 0 1-.383.665.73.73 0 0 1-.384.102m4.58-8.795V203h-1.057v-7.619h-.051l-2.13 1.414v-1.073l2.181-1.449zm5.407 8.846a3.3 3.3 0 0 1-1.073-.204 2.6 2.6 0 0 1-.98-.661q-.444-.468-.712-1.265-.27-.801-.269-2.012 0-1.158.218-2.054.218-.899.63-1.512.413-.618.998-.938.587-.32 1.325-.32.732 0 1.304.294a2.5 2.5 0 0 1 .937.81q.362.52.47 1.198h-1.04a1.9 1.9 0 0 0-.563-.976q-.418-.388-1.108-.388-1.014 0-1.598.882-.58.882-.584 2.476h.068a2.55 2.55 0 0 1 2.148-1.159q.75 0 1.372.375.622.37.997 1.027.375.651.375 1.496 0 .81-.362 1.482a2.76 2.76 0 0 1-1.018 1.066q-.653.392-1.535.383m0-.937q.538 0 .963-.269a1.9 1.9 0 0 0 .678-.72 2.03 2.03 0 0 0 .252-1.005q0-.541-.243-.985a1.86 1.86 0 0 0-.66-.712 1.75 1.75 0 0 0-.955-.264q-.405 0-.755.162a1.9 1.9 0 0 0-.613.435q-.26.277-.41.635-.149.353-.149.746a2.02 2.02 0 0 0 .917 1.7q.43.276.975.277m4.93.886a.74.74 0 0 1-.54-.226.74.74 0 0 1-.226-.541q0-.315.226-.541a.74.74 0 0 1 .54-.226q.317 0 .542.226a.74.74 0 0 1 .226.541.8.8 0 0 1-.383.665.73.73 0 0 1-.384.102m5.097.051q-.962 0-1.64-.524-.678-.528-1.036-1.53-.358-1.005-.358-2.429 0-1.414.358-2.416.362-1.005 1.04-1.534.682-.533 1.636-.533t1.633.533q.68.529 1.04 1.534.362 1.002.362 2.416 0 1.424-.358 2.429-.358 1.002-1.036 1.53-.677.524-1.64.524m0-.937q.955 0 1.483-.921.53-.92.529-2.625 0-1.133-.243-1.93-.24-.797-.69-1.215a1.53 1.53 0 0 0-1.079-.417q-.945 0-1.478.933-.533.929-.533 2.629 0 1.134.239 1.926.239.793.686 1.206.45.414 1.087.414m5.099.886a.74.74 0 0 1-.541-.226.74.74 0 0 1-.226-.541q0-.315.226-.541a.74.74 0 0 1 .541-.226q.316 0 .541.226a.74.74 0 0 1 .226.541.73.73 0 0 1-.106.384.8.8 0 0 1-.277.281.74.74 0 0 1-.384.102m5.097.051q-.963 0-1.641-.524-.678-.528-1.035-1.53-.358-1.005-.358-2.429 0-1.414.358-2.416.362-1.005 1.039-1.534.682-.533 1.637-.533.954 0 1.632.533.681.529 1.04 1.534.362 1.002.362 2.416 0 1.424-.358 2.429-.358 1.002-1.036 1.53-.677.524-1.64.524m0-.937q.954 0 1.483-.921.528-.92.528-2.625 0-1.133-.243-1.93-.239-.797-.69-1.215a1.53 1.53 0 0 0-1.078-.417q-.947 0-1.479.933-.533.929-.533 2.629 0 1.134.239 1.926.239.793.686 1.206.451.414 1.087.414m7.755-8.318-2.812 10.448h-.921l2.813-10.448zM116.32 203v-.767l2.88-3.153q.507-.555.835-.964.328-.413.486-.775.162-.366.162-.767a1.4 1.4 0 0 0-.221-.797 1.44 1.44 0 0 0-.597-.52 1.9 1.9 0 0 0-.852-.183q-.503 0-.878.209a1.43 1.43 0 0 0-.575.575 1.8 1.8 0 0 0-.201.869h-1.005q0-.767.353-1.346.354-.58.963-.904a2.9 2.9 0 0 1 1.377-.324q.767 0 1.359.324.593.324.929.874t.337 1.223q0 .481-.175.942-.17.456-.597 1.018-.421.558-1.171 1.364l-1.961 2.096v.068h4.057V203zm10.112.119q-.963 0-1.641-.524-.678-.528-1.035-1.53-.358-1.005-.358-2.429 0-1.414.358-2.416.362-1.005 1.039-1.534.682-.533 1.637-.533.954 0 1.632.533.681.529 1.04 1.534.362 1.002.362 2.416 0 1.424-.358 2.429-.358 1.002-1.036 1.53-.677.524-1.64.524m0-.937q.954 0 1.483-.921.528-.92.528-2.625 0-1.133-.243-1.93-.239-.797-.69-1.215a1.53 1.53 0 0 0-1.078-.417q-.947 0-1.479.933-.533.929-.533 2.629 0 1.134.239 1.926.239.793.686 1.206.451.414 1.087.414m74.67-9.399q-.05-.516-.439-.801-.387-.286-1.052-.286-.452 0-.763.128a1.07 1.07 0 0 0-.477.345.83.83 0 0 0-.162.503.7.7 0 0 0 .098.409q.111.174.302.303.192.123.444.217.25.09.536.153l.785.188q.57.128 1.048.341.477.213.827.524t.541.733q.195.421.2.967-.004.801-.409 1.389-.4.585-1.159.908-.754.32-1.82.32-1.056 0-1.841-.324a2.7 2.7 0 0 1-1.218-.959q-.435-.639-.456-1.581h1.785q.03.44.252.733.225.29.6.439.38.144.857.145.469 0 .814-.137.35-.136.541-.379a.88.88 0 0 0 .192-.558.72.72 0 0 0-.175-.494 1.3 1.3 0 0 0-.503-.341 5 5 0 0 0-.805-.256l-.95-.239q-1.104-.269-1.743-.839-.64-.572-.635-1.539-.004-.792.422-1.384a2.84 2.84 0 0 1 1.18-.925q.75-.333 1.705-.333.971 0 1.696.333.728.332 1.133.925.405.591.418 1.372zm3.095 6.217v-6.545h1.815V199zm.912-7.389a1 1 0 0 1-.695-.269.87.87 0 0 1-.285-.652q0-.375.285-.643a.98.98 0 0 1 .695-.273q.405 0 .69.273.29.268.29.643a.86.86 0 0 1-.29.652.97.97 0 0 1-.69.269m5.839.844v1.363h-3.942v-1.363zm-3.047-1.569h1.816v6.103q0 .25.076.392a.42.42 0 0 0 .213.191.9.9 0 0 0 .324.056q.128 0 .256-.021l.196-.039.285 1.351q-.135.042-.383.098-.247.06-.601.072-.656.026-1.15-.174a1.6 1.6 0 0 1-.763-.622q-.273-.423-.269-1.066zm7.142 8.242q-1.01 0-1.738-.409a2.8 2.8 0 0 1-1.117-1.168q-.392-.759-.392-1.794 0-1.01.392-1.773a2.9 2.9 0 0 1 1.104-1.189q.716-.426 1.679-.426.648 0 1.206.209.563.204.98.618.422.414.656 1.04.234.622.235 1.457v.499h-5.527v-1.125h3.818q0-.393-.171-.695a1.2 1.2 0 0 0-.473-.473 1.35 1.35 0 0 0-.694-.175q-.414 0-.733.192-.315.188-.495.507a1.44 1.44 0 0 0-.183.703v1.07q0 .486.179.84.183.353.516.545.332.192.788.192.303 0 .554-.085t.431-.256a1.1 1.1 0 0 0 .272-.418l1.679.111q-.128.605-.524 1.057a2.6 2.6 0 0 1-1.014.699q-.618.246-1.428.247m6.967-.128v-6.545h1.76v1.142h.068q.178-.61.601-.921a1.58 1.58 0 0 1 .971-.315 2.6 2.6 0 0 1 .571.064v1.611a3 3 0 0 0-.767-.098q-.4 0-.716.174a1.3 1.3 0 0 0-.494.477 1.4 1.4 0 0 0-.179.708V199zm7.562.128q-.992 0-1.717-.422a2.9 2.9 0 0 1-1.112-1.185q-.392-.763-.392-1.768 0-1.014.392-1.773a2.86 2.86 0 0 1 1.112-1.185q.725-.426 1.717-.426t1.714.426q.724.423 1.116 1.185.392.759.392 1.773 0 1.005-.392 1.768a2.9 2.9 0 0 1-1.116 1.185q-.721.422-1.714.422m.009-1.406q.452 0 .754-.256a1.6 1.6 0 0 0 .456-.707q.158-.448.158-1.019t-.158-1.018a1.6 1.6 0 0 0-.456-.708 1.12 1.12 0 0 0-.754-.26q-.456 0-.767.26a1.6 1.6 0 0 0-.465.708 3.1 3.1 0 0 0-.153 1.018q0 .571.153 1.019.158.447.465.707.31.256.767.256m8.591-1.509v-3.758h1.815V199h-1.743v-1.189h-.068a1.93 1.93 0 0 1-.737.925q-.511.35-1.249.349-.656 0-1.154-.298a2.05 2.05 0 0 1-.78-.848q-.278-.55-.282-1.317v-4.167h1.816v3.843q.004.58.311.916t.822.337q.329 0 .614-.149.285-.153.46-.452.179-.298.175-.737m6.749-3.758v1.363h-3.942v-1.363zm-3.047-1.569h1.815v6.103a.8.8 0 0 0 .077.392.42.42 0 0 0 .213.191.9.9 0 0 0 .324.056q.127 0 .256-.021l.196-.039.285 1.351a6 6 0 0 1-.383.098q-.247.06-.601.072-.656.026-1.151-.174a1.6 1.6 0 0 1-.763-.622q-.272-.423-.268-1.066zm7.142 8.242q-1.01 0-1.739-.409a2.8 2.8 0 0 1-1.116-1.168q-.392-.759-.392-1.794 0-1.01.392-1.773a2.9 2.9 0 0 1 1.104-1.189q.715-.426 1.679-.426.647 0 1.206.209.562.204.98.618.422.414.656 1.04.234.622.234 1.457v.499h-5.527v-1.125h3.818q0-.393-.17-.695a1.2 1.2 0 0 0-.473-.473 1.35 1.35 0 0 0-.695-.175q-.413 0-.733.192-.315.188-.494.507a1.44 1.44 0 0 0-.183.703v1.07q0 .486.179.84.183.353.515.545.333.192.789.192.302 0 .554-.085.251-.086.43-.256.18-.17.273-.418l1.679.111q-.128.605-.524 1.057a2.65 2.65 0 0 1-1.014.699q-.618.246-1.428.247m4.189-.128v-6.545h1.76v1.142h.068q.179-.61.601-.921a1.58 1.58 0 0 1 .971-.315 2.6 2.6 0 0 1 .571.064v1.611a3.2 3.2 0 0 0-.767-.098q-.4 0-.715.174a1.3 1.3 0 0 0-.495.477 1.4 1.4 0 0 0-.179.708V199zm-64.341 5.273V213h-1.057v-7.619h-.051l-2.13 1.414v-1.073l2.181-1.449zm5.459 8.846q-.844 0-1.504-.289a2.6 2.6 0 0 1-1.044-.806 2.16 2.16 0 0 1-.418-1.206h1.074q.034.422.29.729.255.303.669.469.413.166.916.166.562 0 .997-.196.435-.197.682-.546t.247-.809q0-.482-.239-.848a1.6 1.6 0 0 0-.698-.58q-.46-.209-1.125-.209h-.699v-.937h.699q.52 0 .911-.188.397-.187.618-.528.226-.34.226-.801 0-.444-.196-.772a1.34 1.34 0 0 0-.554-.511 1.8 1.8 0 0 0-.835-.183q-.451 0-.852.166-.396.162-.648.473a1.23 1.23 0 0 0-.273.742h-1.022q.025-.687.413-1.202a2.6 2.6 0 0 1 1.014-.81q.631-.29 1.385-.29.81 0 1.389.329.58.323.891.856.31.533.311 1.151 0 .737-.388 1.257a1.97 1.97 0 0 1-1.044.72v.068q.827.136 1.291.703.465.563.465 1.394 0 .711-.388 1.278a2.63 2.63 0 0 1-1.048.886q-.665.324-1.513.324m7.419 0q-.75 0-1.351-.298a2.5 2.5 0 0 1-.963-.818 2.24 2.24 0 0 1-.396-1.185h1.023q.059.593.536.98a1.8 1.8 0 0 0 1.151.384q.537 0 .955-.252.422-.25.66-.69.243-.443.243-1.001a2.05 2.05 0 0 0-.251-1.019 1.85 1.85 0 0 0-.682-.711 1.9 1.9 0 0 0-.993-.265 2.7 2.7 0 0 0-.823.124 2.3 2.3 0 0 0-.694.32l-.989-.12.529-4.295h4.534v.937h-3.648l-.307 2.574h.051q.269-.213.674-.354.404-.14.843-.14a2.69 2.69 0 0 1 2.416 1.423q.363.66.363 1.509 0 .835-.375 1.491a2.74 2.74 0 0 1-1.023 1.031q-.652.375-1.483.375m4.995-.051a.74.74 0 0 1-.541-.226.74.74 0 0 1-.226-.541q0-.315.226-.541a.74.74 0 0 1 .541-.226q.316 0 .542.226a.74.74 0 0 1 .225.541.73.73 0 0 1-.106.384.8.8 0 0 1-.277.281.74.74 0 0 1-.384.102m2.555-.068v-.767l2.881-3.153q.507-.555.835-.964.328-.413.486-.775.162-.366.162-.767a1.41 1.41 0 0 0-.818-1.317 1.94 1.94 0 0 0-.853-.183q-.503 0-.878.209a1.44 1.44 0 0 0-.575.575q-.2.37-.2.869h-1.006q0-.767.354-1.346t.963-.904a2.9 2.9 0 0 1 1.376-.324q.768 0 1.36.324t.929.874.336 1.223q0 .481-.174.942-.171.456-.597 1.018-.422.558-1.172 1.364l-1.96 2.096v.068h4.057V213zm10.112.119q-.963 0-1.64-.524-.678-.528-1.036-1.53-.358-1.005-.358-2.429 0-1.414.358-2.416.362-1.005 1.04-1.534.681-.533 1.636-.533.956 0 1.632.533.683.529 1.04 1.534.362 1.002.362 2.416 0 1.424-.358 2.429-.357 1.002-1.035 1.53-.678.524-1.641.524m0-.937q.955 0 1.483-.921.53-.92.529-2.625 0-1.133-.243-1.93-.238-.797-.691-1.215a1.52 1.52 0 0 0-1.078-.417q-.945 0-1.478.933-.534.929-.533 2.629 0 1.134.239 1.926.238.793.686 1.206a1.55 1.55 0 0 0 1.086.414m7.432-8.029a3.1 3.1 0 0 1 1.074.205q.537.2.98.665.444.46.712 1.257t.268 1.998q0 1.164-.221 2.067-.217.9-.631 1.517a2.8 2.8 0 0 1-.997.938q-.584.32-1.321.319-.734 0-1.308-.289a2.6 2.6 0 0 1-.938-.814 2.84 2.84 0 0 1-.464-1.215h1.039q.14.601.559.993.422.388 1.112.388 1.01 0 1.594-.882.588-.882.588-2.493h-.069a2.7 2.7 0 0 1-.566.618 2.5 2.5 0 0 1-.729.4 2.6 2.6 0 0 1-.852.141q-.75 0-1.377-.371a2.8 2.8 0 0 1-.997-1.027q-.37-.655-.371-1.5 0-.801.358-1.466a2.77 2.77 0 0 1 1.015-1.065q.656-.396 1.542-.384m0 .938q-.537 0-.967.268-.426.265-.678.716a2 2 0 0 0-.247.993q0 .546.239.993.243.444.66.707.422.26.959.26.405 0 .754-.157.35-.162.61-.439.264-.282.413-.635.149-.358.149-.746 0-.511-.247-.959a2 2 0 0 0-.673-.724 1.74 1.74 0 0 0-.972-.277m5.155 7.977a.74.74 0 0 1-.541-.226.74.74 0 0 1-.226-.541q0-.315.226-.541a.74.74 0 0 1 .541-.226q.316 0 .541.226a.74.74 0 0 1 .226.541.73.73 0 0 1-.106.384.8.8 0 0 1-.277.281.74.74 0 0 1-.384.102m4.58-8.795V213h-1.057v-7.619h-.051l-2.13 1.414v-1.073l2.181-1.449zm2.306 6.937v-.869l3.835-6.068h.631v1.346h-.427l-2.897 4.586v.068h5.164v.937zm4.108 1.79v-8.727h1.005V213zm6.591.119q-.877 0-1.551-.311a2.54 2.54 0 0 1-1.044-.865 2.17 2.17 0 0 1-.371-1.261q-.004-.554.217-1.023.222-.473.605-.788a1.86 1.86 0 0 1 .865-.405v-.051a1.7 1.7 0 0 1-.997-.703 2.13 2.13 0 0 1-.366-1.24q-.004-.666.336-1.189.342-.525.938-.827.6-.303 1.368-.303.758 0 1.355.303.597.302.937.827.346.523.35 1.189a2.16 2.16 0 0 1-.379 1.24 1.7 1.7 0 0 1-.985.703v.051q.474.085.852.405a2.38 2.38 0 0 1 .836 1.811 2.2 2.2 0 0 1-.384 1.261q-.375.55-1.044.865-.665.311-1.538.311m0-.937q.593 0 1.023-.192t.664-.541q.235-.35.239-.818a1.57 1.57 0 0 0-.256-.874 1.7 1.7 0 0 0-.686-.596 2.15 2.15 0 0 0-.984-.218q-.559 0-.997.218a1.7 1.7 0 0 0-.686.596 1.54 1.54 0 0 0-.243.874q-.005.468.226.818.234.35.669.541.434.192 1.031.192m0-4.142q.468 0 .831-.188.366-.187.575-.524.209-.336.213-.788a1.45 1.45 0 0 0-.209-.772 1.35 1.35 0 0 0-.566-.511 1.85 1.85 0 0 0-.844-.183q-.49 0-.857.183a1.3 1.3 0 0 0-.566.511 1.43 1.43 0 0 0-.197.772q-.004.452.201.788.209.337.575.524.367.188.844.188m5.079 5.028a.74.74 0 0 1-.541-.226.74.74 0 0 1-.226-.541q0-.315.226-.541a.74.74 0 0 1 .541-.226q.316 0 .542.226a.74.74 0 0 1 .225.541.73.73 0 0 1-.106.384.8.8 0 0 1-.277.281.74.74 0 0 1-.384.102m4.58-8.795V213h-1.057v-7.619h-.051l-2.13 1.414v-1.073l2.181-1.449zm2.51 8.727v-.767l2.881-3.153q.507-.555.835-.964.328-.413.486-.775.162-.366.162-.767a1.41 1.41 0 0 0-.818-1.317 1.94 1.94 0 0 0-.853-.183q-.502 0-.877.209a1.44 1.44 0 0 0-.576.575q-.2.37-.2.869h-1.006q0-.767.354-1.346t.963-.904a2.9 2.9 0 0 1 1.376-.324q.768 0 1.36.324t.929.874.336 1.223q0 .481-.174.942-.171.456-.597 1.018-.422.558-1.172 1.364l-1.96 2.096v.068h4.057V213zM459.294 24.438h-2.489a2.4 2.4 0 0 0-.278-.858q-.21-.381-.54-.648a2.4 2.4 0 0 0-.761-.41 2.9 2.9 0 0 0-.926-.141q-.904 0-1.574.448-.67.444-1.04 1.296-.369.846-.369 2.057 0 1.245.369 2.09.375.847 1.046 1.28.67.43 1.551.431.494 0 .914-.13.427-.132.756-.381.33-.255.546-.62a2.4 2.4 0 0 0 .306-.83l2.489.012a4.5 4.5 0 0 1-.483 1.546 4.7 4.7 0 0 1-1.028 1.323q-.643.58-1.534.92-.887.336-2.006.336-1.557 0-2.784-.704-1.223-.705-1.932-2.04-.705-1.335-.705-3.233 0-1.904.716-3.239t1.944-2.034q1.227-.704 2.761-.704a6 6 0 0 1 1.875.284 4.8 4.8 0 0 1 1.54.83q.67.538 1.091 1.323.425.784.545 1.796m4.139-4.074V32h-2.42V20.364zm5.882 11.806q-1.323 0-2.289-.562a3.84 3.84 0 0 1-1.483-1.58q-.523-1.017-.523-2.357 0-1.353.523-2.364a3.8 3.8 0 0 1 1.483-1.58q.966-.568 2.289-.568t2.284.568a3.8 3.8 0 0 1 1.489 1.58q.523 1.011.523 2.364 0 1.34-.523 2.357a3.84 3.84 0 0 1-1.489 1.58q-.96.562-2.284.562m.012-1.875q.601 0 1.005-.34.404-.347.608-.944.21-.596.211-1.358 0-.761-.211-1.357-.204-.597-.608-.944-.404-.345-1.005-.346-.609 0-1.023.346-.41.347-.619.944-.205.596-.205 1.357 0 .762.205 1.358.21.597.619.944.414.34 1.023.34m11.454-2.01v-5.012h2.421V32h-2.324v-1.585h-.091a2.6 2.6 0 0 1-.983 1.233q-.682.466-1.665.466-.874 0-1.54-.398a2.73 2.73 0 0 1-1.039-1.13q-.37-.735-.375-1.756v-5.557h2.42v5.125q.006.773.415 1.221.41.45 1.096.45.438 0 .819-.2.38-.204.613-.602.239-.398.233-.983m7.573 3.857q-.995 0-1.801-.511-.802-.517-1.273-1.517-.466-1.006-.466-2.466 0-1.5.483-2.495.483-.999 1.284-1.494a3.3 3.3 0 0 1 1.767-.5q.733 0 1.222.25.494.244.795.614.307.362.466.716h.074v-4.375h2.415V32h-2.387v-1.398h-.102a3.1 3.1 0 0 1-.483.722 2.4 2.4 0 0 1-.801.585q-.49.233-1.193.233m.767-1.926q.585 0 .988-.318.41-.324.625-.904.222-.58.222-1.358t-.216-1.352-.625-.886q-.41-.313-.994-.313-.597 0-1.006.324t-.619.898-.21 1.33q0 .76.21 1.346.216.58.619.909.41.324 1.006.324m10.882-6.943v1.818h-5.387v-1.818zM495.849 32v-9.358q0-.949.37-1.574.375-.625 1.022-.937a3.35 3.35 0 0 1 1.472-.313q.556 0 1.017.085.466.085.693.154l-.432 1.818a3 3 0 0 0-.352-.085 2 2 0 0 0-.42-.04q-.534 0-.745.25-.21.244-.21.688V32zm8.053-11.636V32h-2.42V20.364zm4.428 11.8q-.835 0-1.489-.289a2.4 2.4 0 0 1-1.034-.87q-.375-.58-.375-1.442 0-.727.267-1.222t.727-.796 1.046-.454a8 8 0 0 1 1.238-.216q.762-.08 1.228-.148.465-.073.676-.216a.48.48 0 0 0 .21-.42v-.034q0-.54-.341-.835-.336-.296-.955-.296-.653 0-1.039.29-.387.285-.512.716l-2.238-.182q.17-.796.67-1.375.5-.586 1.29-.898.795-.318 1.841-.318.728 0 1.392.17.67.17 1.187.529.523.358.824.92.301.558.301 1.336V32h-2.295v-1.21h-.068q-.21.41-.563.721a2.6 2.6 0 0 1-.846.483q-.495.17-1.142.17m.693-1.67q.534 0 .943-.21.41-.216.642-.58t.233-.823v-.927q-.114.075-.313.137a6 6 0 0 1-.437.108q-.245.046-.489.085l-.443.063a3 3 0 0 0-.744.198q-.318.136-.495.37a.9.9 0 0 0-.176.568q0 .494.358.756.365.255.921.255M515.122 32v-8.727h2.347v1.523h.091q.239-.813.801-1.228.563-.42 1.295-.42a3.7 3.7 0 0 1 .762.085v2.148a3 3 0 0 0-.472-.091 4 4 0 0 0-.551-.04 1.94 1.94 0 0 0-.955.233 1.7 1.7 0 0 0-.659.636 1.84 1.84 0 0 0-.238.944V32zm10.118.17q-1.347 0-2.318-.545a3.74 3.74 0 0 1-1.489-1.557q-.522-1.01-.522-2.392 0-1.346.522-2.363a3.87 3.87 0 0 1 1.472-1.586q.954-.568 2.238-.568.864 0 1.608.279.75.272 1.307.823.563.552.875 1.387.313.829.313 1.943v.665h-7.37v-1.5h5.091a1.85 1.85 0 0 0-.227-.927 1.63 1.63 0 0 0-.631-.63 1.8 1.8 0 0 0-.926-.233q-.55 0-.977.256-.42.25-.659.676-.239.42-.244.937v1.426q0 .648.238 1.12.244.47.688.727.443.255 1.051.256.403 0 .738-.114a1.48 1.48 0 0 0 .938-.898l2.239.148a3.06 3.06 0 0 1-.699 1.41q-.524.595-1.353.93-.823.33-1.903.33m7.614-11.806v1.227q0 .522-.205 1.068a4.5 4.5 0 0 1-1.267 1.835l-1.068-.63q.284-.45.5-.995.222-.545.222-1.267v-1.238zm7.78 5.397-2.216.137q-.057-.285-.245-.512a1.3 1.3 0 0 0-.494-.369 1.7 1.7 0 0 0-.722-.142q-.562 0-.948.239-.387.232-.387.625 0 .312.25.528t.858.347l1.58.318q1.272.261 1.897.84.625.58.625 1.524 0 .857-.505 1.505-.5.648-1.375 1.012-.87.357-2.006.357-1.733 0-2.761-.721a2.8 2.8 0 0 1-1.199-1.977l2.38-.125q.108.527.523.806.415.273 1.063.273.636 0 1.022-.244.393-.25.398-.642a.67.67 0 0 0-.278-.54q-.273-.216-.841-.33l-1.512-.3q-1.278-.257-1.903-.887-.62-.63-.619-1.608 0-.84.454-1.449.46-.608 1.29-.937.835-.33 1.955-.33 1.653 0 2.602.699.954.699 1.114 1.903M548.111 32h-2.637l4.017-11.636h3.171L556.673 32h-2.636l-2.915-8.977h-.091zm-.165-4.574h6.227v1.92h-6.227zm12.503-.471V32h-2.421v-8.727h2.307v1.54h.103q.29-.762.971-1.205.683-.45 1.653-.449.91 0 1.586.398t1.051 1.136q.375.733.375 1.75V32h-2.421v-5.125q.006-.8-.409-1.25-.414-.454-1.142-.454-.488 0-.863.21a1.46 1.46 0 0 0-.58.613q-.204.398-.21.96m8.714 8.318q-.46 0-.863-.074a3 3 0 0 1-.659-.176l.545-1.807q.426.13.767.142a.98.98 0 0 0 .597-.16q.255-.17.414-.579l.143-.369-3.131-8.977h2.545l1.807 6.409h.091l1.824-6.41h2.562l-3.392 9.671a4.1 4.1 0 0 1-.664 1.227 2.7 2.7 0 0 1-1.052.813q-.636.29-1.534.29m11.543-3.103q-1.341 0-2.307-.568a3.84 3.84 0 0 1-1.477-1.59q-.511-1.018-.511-2.341 0-1.342.517-2.353a3.83 3.83 0 0 1 1.483-1.585q.96-.574 2.284-.574 1.142 0 2 .415a3.35 3.35 0 0 1 1.358 1.165q.5.75.551 1.761h-2.284q-.097-.654-.512-1.051-.408-.404-1.074-.404-.562 0-.983.307-.414.302-.647.881-.233.58-.233 1.403 0 .835.227 1.42.233.586.653.893.421.306.983.307.415 0 .745-.17.335-.172.551-.495.222-.33.29-.79h2.284q-.057 1-.546 1.762a3.3 3.3 0 0 1-1.335 1.181q-.852.426-2.017.426m7.936-.005q-.835 0-1.489-.29a2.4 2.4 0 0 1-1.034-.87q-.375-.58-.375-1.442 0-.727.267-1.222t.728-.796 1.045-.454a8 8 0 0 1 1.239-.216q.76-.08 1.227-.148.466-.073.676-.216a.48.48 0 0 0 .21-.42v-.034q0-.54-.341-.835-.335-.296-.954-.296-.654 0-1.04.29-.386.285-.511.716l-2.239-.182a3.04 3.04 0 0 1 .671-1.375q.5-.586 1.289-.898.796-.318 1.841-.318.727 0 1.392.17.67.17 1.188.529.522.358.824.92.3.558.301 1.336V32h-2.296v-1.21h-.068q-.21.41-.562.721a2.6 2.6 0 0 1-.847.483q-.494.17-1.142.17m.693-1.67q.534 0 .943-.21.41-.217.642-.58.233-.364.233-.824v-.927q-.113.075-.312.137a6 6 0 0 1-.438.108q-.243.046-.488.085l-.443.063a3 3 0 0 0-.745.198q-.318.136-.494.37a.9.9 0 0 0-.176.568q0 .494.358.756.363.255.92.255m13.361-4.734-2.216.137a1.15 1.15 0 0 0-.244-.512 1.3 1.3 0 0 0-.495-.369 1.7 1.7 0 0 0-.721-.142q-.562 0-.949.239-.386.232-.386.625 0 .312.25.528.249.216.858.347l1.579.318q1.273.261 1.898.84.625.58.625 1.524 0 .857-.506 1.505-.5.648-1.375 1.012-.869.357-2.005.357-1.734 0-2.762-.721a2.8 2.8 0 0 1-1.199-1.977l2.381-.125q.108.527.523.806.414.273 1.062.273.636 0 1.023-.244.392-.25.398-.642a.67.67 0 0 0-.279-.54q-.273-.216-.841-.33l-1.511-.3q-1.278-.257-1.903-.887-.62-.63-.62-1.608 0-.84.455-1.449.46-.608 1.29-.937.835-.33 1.954-.33 1.654 0 2.602.699.955.699 1.114 1.903m6.365-2.488v1.818h-5.256v-1.818zm-4.062-2.091h2.42v8.136q0 .336.102.523a.56.56 0 0 0 .284.256q.188.073.432.073.17 0 .341-.028l.261-.051.381 1.801a7 7 0 0 1-.511.13q-.33.08-.801.097-.876.034-1.534-.233a2.14 2.14 0 0 1-1.017-.83q-.364-.561-.358-1.42zm19.12-.818V32h-2.125l-5.062-7.324h-.085V32h-2.461V20.364h2.159l5.023 7.318h.102v-7.318zm5.965 11.806q-1.347 0-2.318-.545a3.73 3.73 0 0 1-1.489-1.557q-.522-1.01-.523-2.392 0-1.346.523-2.363a3.86 3.86 0 0 1 1.472-1.586q.954-.568 2.238-.568.864 0 1.608.279.75.272 1.307.823.563.552.875 1.387.312.829.312 1.943v.665h-7.369v-1.5h5.091a1.86 1.86 0 0 0-.227-.927 1.63 1.63 0 0 0-.631-.63 1.8 1.8 0 0 0-.926-.233q-.55 0-.977.256-.421.25-.659.676-.239.42-.245.937v1.426q0 .648.239 1.12.245.47.687.727.443.255 1.052.256.403 0 .738-.114a1.5 1.5 0 0 0 .574-.34q.238-.228.364-.558l2.238.148a3.04 3.04 0 0 1-.699 1.41q-.522.595-1.352.93-.823.33-1.903.33m10.227-8.897v1.818h-5.256v-1.818zm-4.062-2.091h2.42v8.136q0 .336.102.523a.56.56 0 0 0 .284.256q.188.073.432.073.17 0 .341-.028l.261-.051.381 1.801a7 7 0 0 1-.511.13q-.33.08-.801.097-.876.034-1.534-.233a2.14 2.14 0 0 1-1.017-.83q-.364-.561-.358-1.42zm7.36 10.82-2.375-8.727h2.449l1.353 5.863h.079l1.409-5.863h2.404l1.431 5.83h.074l1.33-5.83h2.443L651.837 32h-2.563l-1.5-5.489h-.108l-1.5 5.489zm15.613.17q-1.324 0-2.29-.562a3.85 3.85 0 0 1-1.483-1.58q-.523-1.017-.523-2.357 0-1.353.523-2.364a3.8 3.8 0 0 1 1.483-1.58q.966-.568 2.29-.568 1.323 0 2.284.568.966.563 1.488 1.58.523 1.011.523 2.364 0 1.34-.523 2.357a3.83 3.83 0 0 1-1.488 1.58q-.96.562-2.284.562m.011-1.875q.602 0 1.006-.34.403-.347.608-.944.21-.596.21-1.358 0-.761-.21-1.357-.205-.597-.608-.944-.404-.345-1.006-.346-.608 0-1.023.346-.409.347-.619.944-.204.596-.205 1.357 0 .762.205 1.358.21.597.619.944.416.34 1.023.34M665.091 32v-8.727h2.347v1.523h.09q.24-.813.802-1.228.562-.42 1.295-.42a3.7 3.7 0 0 1 .761.085v2.148a3 3 0 0 0-.471-.091 4 4 0 0 0-.551-.04q-.534 0-.955.233a1.7 1.7 0 0 0-.659.636 1.84 1.84 0 0 0-.239.944V32zm8.74-2.511.006-2.904h.352l2.795-3.312h2.779l-3.756 4.386h-.574zM671.638 32V20.364h2.42V32zm5.454 0-2.568-3.801 1.614-1.71 3.79 5.511z"/><path fill="#fff" fill-rule="evenodd" stroke="#0055DC" stroke-linejoin="round" stroke-width="3" d="M566.827 59c62.896 0 113.828 51.022 113.828 113.844 0 62.905-51.015 113.843-113.828 113.843-62.812 0-113.827-50.938-113.827-113.843C453 110.022 503.932 59 566.827 59Z" clip-rule="evenodd"/><path fill="#C5EBF5" fill-rule="evenodd" stroke="#0055DC" stroke-linejoin="round" stroke-width="3" d="m582.115 141.35.499-1.745-3.656-6.15-3.157 2.161-3.074-1.08.083-3.324-8.143-3.574-4.237 5.153 2.16 3.988-.249 3.324-3.905.748-.748 6.149-3.656-1.579-.831-4.071.333-1.995-10.386-6.731.249-2.991-2.243-1.995-.083-1.911 5.068-2.243 4.902-.084-.415-2.326 3.074.083.581-.748-2.409-1.33.166-.581 2.576 1.163 1.828-.249 2.742.332 2.824-2.243-.747-3.407-2.493-.25-1.911 1.995-1.578-.167 1.246-2.576-.582-.997-1.828.997-1.412-1.828 1.412-1.994-1.827-3.74 2.741.084 1.662-2.244-1.246-1.163-4.155.997.083-1.995-2.658-.664-.166 2.077-2.077-.415-.748 1.828 2.326 2.742 1.496-.332-.499 1.911 2.493 2.077-4.653 3.573-1.579-2.576h-2.243l-4.902-2.659-2.16-.831-2.576 3.324-.249-2.908-2.41-1.33v-2.41l-1.661-3.24-3.241-2.244v-2.493h-3.323l-.333-.914-2.409-.748-2.742-5.401.582-5.734-5.982.25-3.407 2.908-1.911-.25-2.16 1.58.581 1.661-1.91 1.662-2.41-1.246-5.068 5.069-.582 3.157-3.988-.083-1.412 1.496 3.988 1.163 7.062-.249 1.662 5.235-.831 6.399 2.243-1.164-5.151 14.709 3.323 3.407.083.332-.997 3.241-2.409-1.662h-.083l-1.33 3.656-5.151 6.316-1.662 5.733 1.828 2.244-1.08 2.908 4.487 11.219 2.409 2.908-.083 4.238-2.243-3.573-2.243 2.077 3.406 7.147 2.659-4.737 5.234 11.551-1.329 3.822 6.979 8.061 11.383 6.647 10.302 4.737 1.413 5.069 2.16.997 2.659 2.992 3.406 1.329 2.742-1.08 3.49 3.075-1.163 2.576.332 3.573-7.644 6.481h.083l.083 1.662-.914.748 2.161 6.482 7.062 8.808 4.985 2.825 2.16.665.831 3.74-.665 6.731-4.736 7.977-1.994 2.493.582 3.573-1.662 3.407.831 1.745 4.154 1.745 1.662-1.246h.415l2.161-.665.166-.831-.748-1.163 4.154-1.413-.249-1.496 1.246-1.496.997 1.579h.25l2.742-1.662 5.649-.332 1.662-1.247-1.495-2.409.997-.998 1.994 2.327 3.822-.748 5.483-3.739.831.665 3.573-2.826 1.08-2.41 4.237-2.409 6.232-.499 8.474-7.645 5.816-7.063 2.41-2.327 1.163-3.158-4.736-2.991-8.142-.831-2.825-1.994h-2.991l-1.911 1.163h-2.327l-1.412-1.33-1.745.914-.997-.914 2.16-1.911 1.911.083.582-.582-1.08-2.576-.249-1.994-3.989-3.074-3.157-.998-1.661.998-2.576-1.413-1.496.083.333-1.911-2.327-.914h-3.157l1.496-1.496-3.407-2.078-3.573.748-4.32-1.246-4.071-2.909-2.077 1.912.498 1.745-.914.332-1.495-1.163 1.08-.831-.333-.582.997-.997-.415-.831-3.905 1.08h-.166l-2.327-.166-.249.083-3.49 3.324-3.572-3.49-2.16.332-3.407-1.828-1.08-2.659-.997-6.315-7.727-1.579 3.656-7.811-.416-.914-4.237-.499-3.573 4.57-1.911-1.745-3.655-.415-2.41-5.152v-6.233l1.911-.831v-4.071l3.739-1.662 6.813 1.246 2.991 1.33 1.662-.997 9.222 2.825v3.49l3.324 3.906 1.661-.831-2.077-3.657v-2.908l8.641-5.817 1.579-1.496-.831-3.573.083-.249 2.41-1.745.249 1.329 4.486-4.071 2.825-.167 3.241-3.074 8.225-2.078-3.157 2.41 2.575.997v-.166l3.656-3.158-.083-1.828-2.077-.415-3.323-2.909 2.991-3.407 2.991.25.831-.831 6.73-1.912-1.579 4.654-1.413 1.413 7.727 1.661 1.911-2.492-5.4-2.244-.499-3.158.748-.831-1.246-2.908-1.08-1.995-3.324-1.08zm24.76-74.954c34.73 13.046 61.4 42.546 70.456 79.108l-2.16-.997-2.991-1.994-1.246 1.08 1.578 5.152-.664.665-2.244-2.991-4.486-3.657v1.911l3.323 2.327.914 2.909-.332.914-3.739-4.654h-2.576l-.166 3.573-1.745.167-2.243 2.742.582 9.639-1.33 2.825-5.4 1.33-1.994-2.659.581-4.903-1.08-1.579.914-1.745 2.243-.083 2.493-1.828v-2.742l-1.994-1.745-.083-1.33-2.576-.997.416-1.745.166-.249 1.578-.914.914-6.814-.249-3.74 1.662-2.576-3.822-2.243 1.08-2.743 1.495.582-.664 2.244 2.742.914 1.661-1.33.333-3.074-3.573-6.482 1.662-.249v-1.33l-3.656-1.994 2.243-4.321-2.825-1.496-.166 3.656-6.564-8.393-.997.914 8.475 11.8 2.908 7.645-.831.582-3.822-4.57h-.747l.415 3.656-1.745.498-5.317-5.152.664-6.315-2.825-5.9-3.406-5.069.831-1.08-2.077-3.74v-2.243l2.16.914 4.57 4.072 3.323.415-7.228-8.725-5.152-5.817-3.074-.665-6.564-5.983.499-.748 6.73 3.906-3.656-4.737-17.614-8.725zm73.614 100.548c.083 1.994.166 4.071.166 6.066 0 16.287-3.49 31.826-9.638 45.87l1.163-9.474-.997-3.074-1.828 1.994-3.656-2.493-5.151 8.559-6.231 2.244-3.905-1.911-.416-1.828-4.237-6.15.249-2.077 1.911-1.994-.083-2.992-1.413-3.822.582-2.992 6.398-12.465 1.911-8.226.166-4.986h2.991l4.237-3.823 2.908-5.401 2.161 1.163.913 3.241 4.819-.332.333-5.568 2.243-1.994zm-16.701-16.869 1.081 2.742.415 1.662 2.16 1.745.582-.997-1.828-1.413v-.332l.249-2.493-2.16-1.413zm-45.531-65.066-1.08 1.33.333.25 2.991 1.994-2.908.498.249.665h3.407l3.074 1.994.498-1.163v-.166l-3.157-1.995-.083-1.495zm7.229 34.818-5.318.582-.581 1.496 7.478 2.576h.332l2.659-3.075-2.327-2.16zm-45.531-22.52-1.08 1.081-3.324-.665-1.246 1.08 2.077 1.33-1.828.333v1.911l4.238 1.994 3.157-.748 5.733 4.571-.582 2.409.582 1.745h2.908l1.246 2.078-2.742-.332-.747 2.825 3.074 1.163 1.08-2.742.748 3.407-2.493 2.41.416 2.825 3.489 4.238.249 1.994 5.983 3.989 3.572-.498 1.496-6.15-.997-3.157 1.495-1.247 1.496.333.249-.333 2.327-3.49v-1.08l2.409-.416 3.323-3.739.499-2.659-2.326-3.158-1.828-.332-.665-1.413 1.662.083.083-2.327-2.41-1.662-.166-2.243-1.745-1.33-.831-2.576-2.409-1.163.083-4.57-1.495-.25-2.327 1.58-2.326-.666-4.071.831.083-.748 4.486-.83-2.742-1.58-3.157 1.33.582-1.496 1.163-.415-1.413-.332-2.991.332-.997 1.994-1.329-.415-1.994.997 1.163 1.662-2.243.25-.083-1.33-7.893 2.41-.997 1.578.332.166 3.739 1.247h-1.745zm-29.828-.996-.747.747 2.908 3.241 3.738.167-.332-1.413h-1.662l.249-2.327-1.412-.582-.748.665zm11.134-6.233-.914 3.657.166.249 3.822 3.075-2.41 2.41-4.237-.832-.665.416 3.074 1.745-2.243 2.327 1.994 1.08-3.656 3.989 3.573 3.656h.249l3.241.665.581.581 1.579-1.163 4.57 3.158-2.077.831.581 1.495 2.16.084.582 1.578-2.41 3.324-3.655.582-1.163 2.41 1.994 1.329h.249l2.492-1.329 3.656 4.155 3.988.166.25-.831-3.905-2.659 5.151 1.246.249-1.163-2.492-3.241.581-1.246 3.739 3.157 2.077-4.071-2.077-.167-5.151-3.656 1.828-2.16-4.819-3.574-.831-2.243-2.659-1.247-.332-1.911-3.573-.582-3.323-1.163 5.234-.665-.997-1.413-3.573-.747.249-.748 3.324-.333 3.074.998 1.579-1.413v-.997l3.157-2.493 2.991-1.496 4.985-2.992-4.819-3.157-1.246 1.662-2.825-1.08-2.659 1.745-1.329-1.33h-.249l-3.158.499 1.413 1.994-1.911.25-.914-1.829zm-3.573 3.906-.831 2.992 2.659.498.249-.166.416-1.164zm-4.071-2.327-1.911 1.662 3.822 2.244.249-1.247zm-4.902-1.08-1.911.582.083 1.495 2.576-.498-.083-.914zm-10.137-.582-.083 1.662 3.407.499-2.908 1.495 2.326 3.657h5.733l.997-1.662-1.329-1.247-1.08.831-2.659-2.742 2.326-1.828-.997-.83zm-8.973 7.23.416 1.08 2.908.499 1.08 3.157-1.745.083.748 3.657 4.652 1.579 2.077-.915 1.662 2.327 3.573-1.579-2.908-3.49 1.496-2.825h-2.161l-1.163-1.413-1.579.333.831-1.829-3.323-5.068h-2.659z" clip-rule="evenodd"/><path stroke="#F6821F" stroke-miterlimit="10" stroke-width="3" d="M684 172.501c0 21.217-5.594 41.084-15.624 58.25-20.059 34.912-57.864 58.25-100.876 58.25s-80.817-23.531-100.877-58.25C456.786 213.585 451 193.718 451 172.501s5.594-41.083 15.623-58.25c20.06-34.911 57.865-58.25 100.877-58.25s80.817 23.532 100.876 58.25c10.03 17.167 15.624 37.033 15.624 58.25Z"/><path stroke="#F6821F" stroke-miterlimit="10" stroke-width="3" d="M625.364 215.32c-1.157 5.4-2.508 10.608-4.051 15.43C610.512 265.661 590.452 289 567.5 289s-43.013-23.532-53.814-58.25c-5.208-17.166-8.294-37.033-8.294-58.25s3.086-41.084 8.294-58.25C524.487 79.339 544.547 56 567.5 56s43.012 23.532 53.813 58.25c5.208 17.166 8.294 37.033 8.294 58.25 0 15.238-1.543 29.704-4.243 42.82ZM451 172.5h233M567.5 56v233.193M466.624 114.251h201.945M466.624 230.943h201.945"/><circle cx="568" cy="172" r="118" stroke="#F6821F" stroke-width="4"/><path fill="#757575" d="M401.707 85.707a1 1 0 0 0 0-1.414l-6.364-6.364a1 1 0 1 0-1.414 1.414L399.586 85l-5.657 5.657a1 1 0 1 0 1.414 1.414zM299 86h102v-2H299z"/><path fill="#F6821F" d="M466.485 75c4.139 0 7.515 3.278 7.515 7.298 0 5.36-7.427 14.625-7.427 14.625S459 87.658 459 82.298c-.029-4.048 3.347-7.298 7.485-7.298m0 10.406c1.556 0 2.818-1.226 2.818-2.737s-1.262-2.737-2.818-2.737c-1.555 0-2.818 1.226-2.818 2.737 0 1.51 1.263 2.737 2.818 2.737"/><path fill="#F6821F" d="M466.485 75c4.139 0 7.515 3.278 7.515 7.298 0 5.36-7.427 14.625-7.427 14.625S459 87.658 459 82.298c-.029-4.048 3.347-7.298 7.485-7.298m0 10.406c1.556 0 2.818-1.226 2.818-2.737s-1.262-2.737-2.818-2.737c-1.555 0-2.818 1.226-2.818 2.737 0 1.51 1.263 2.737 2.818 2.737"/><path fill="#222" d="M409.034 80.273V89h-1.057v-7.62h-.051l-2.131 1.416v-1.074l2.182-1.45zm5.288-.12q.537.004 1.074.205t.98.665q.444.46.712 1.257.269.797.269 1.998 0 1.164-.222 2.067-.217.9-.631 1.517a2.8 2.8 0 0 1-.997.938q-.583.32-1.321.32-.733 0-1.308-.29a2.6 2.6 0 0 1-.938-.814 2.84 2.84 0 0 1-.464-1.215h1.04q.14.6.558.993.422.388 1.112.388 1.01 0 1.594-.882.588-.883.588-2.493h-.068a2.7 2.7 0 0 1-.567.618 2.5 2.5 0 0 1-1.581.54q-.75 0-1.376-.37a2.8 2.8 0 0 1-.998-1.027q-.37-.656-.37-1.5 0-.8.358-1.466a2.76 2.76 0 0 1 1.014-1.065q.656-.396 1.542-.384m0 .938q-.537 0-.967.268-.426.265-.677.716-.248.448-.248.993 0 .546.239.993.243.443.661.707.421.26.958.26.405 0 .755-.157.35-.162.609-.44.264-.28.413-.634.15-.358.149-.746 0-.51-.247-.959a1.96 1.96 0 0 0-.673-.724 1.74 1.74 0 0 0-.972-.277m4.71 7.909v-.767l2.881-3.154q.507-.554.835-.962.328-.414.486-.776.162-.366.162-.767a1.41 1.41 0 0 0-.818-1.317 1.9 1.9 0 0 0-.853-.183q-.502 0-.877.209a1.44 1.44 0 0 0-.576.575q-.2.37-.2.87h-1.006q0-.768.354-1.347a2.46 2.46 0 0 1 .963-.904 2.9 2.9 0 0 1 1.377-.324q.767 0 1.359.324.593.324.929.874a2.3 2.3 0 0 1 .337 1.223q0 .48-.175.942-.171.456-.597 1.018-.422.558-1.172 1.364l-1.96 2.096v.069h4.057V89zm8.016.068a.74.74 0 0 1-.541-.226.74.74 0 0 1-.226-.54q0-.317.226-.542a.74.74 0 0 1 .541-.226q.315 0 .541.226.226.225.226.541 0 .21-.107.384a.8.8 0 0 1-.277.28.73.73 0 0 1-.383.103m5.097.051q-.964 0-1.641-.524-.678-.528-1.036-1.53-.358-1.005-.358-2.429 0-1.414.358-2.416.363-1.006 1.04-1.534.682-.533 1.637-.533.954 0 1.632.533.681.529 1.039 1.534.363 1.002.363 2.416 0 1.424-.358 2.43-.358 1-1.036 1.53-.678.523-1.64.523m0-.937q.954 0 1.482-.92.53-.921.529-2.626 0-1.133-.243-1.93-.238-.797-.69-1.215a1.53 1.53 0 0 0-1.078-.417q-.947 0-1.479.933-.533.93-.533 2.63 0 1.133.239 1.925.239.793.686 1.207.451.413 1.087.413m5.098.886a.74.74 0 0 1-.541-.226.74.74 0 0 1-.226-.54q0-.317.226-.542a.74.74 0 0 1 .541-.226q.315 0 .541.226.226.225.226.541 0 .21-.106.384a.8.8 0 0 1-.277.28.73.73 0 0 1-.384.103m2.555-.068v-.767l2.881-3.154q.507-.554.835-.962.328-.414.486-.776.162-.366.162-.767 0-.46-.222-.797a1.44 1.44 0 0 0-.597-.52 1.9 1.9 0 0 0-.852-.183q-.503 0-.878.209a1.44 1.44 0 0 0-.575.575q-.2.37-.2.87h-1.006q0-.768.354-1.347a2.46 2.46 0 0 1 .963-.904 2.9 2.9 0 0 1 1.376-.324q.768 0 1.36.324.591.324.929.874.336.55.336 1.223 0 .48-.175.942-.17.456-.596 1.018-.422.558-1.172 1.364l-1.96 2.096v.069h4.057V89zm8.016.068a.74.74 0 0 1-.542-.226.74.74 0 0 1-.225-.54q0-.317.225-.542a.74.74 0 0 1 .542-.226q.315 0 .541.226a.74.74 0 0 1 .226.541q0 .21-.107.384a.8.8 0 0 1-.277.28.73.73 0 0 1-.383.103m4.579-8.795V89h-1.056v-7.62h-.051l-2.131 1.416v-1.074l2.182-1.45z"/><path fill="#757575" d="M251.293 167.293a1 1 0 0 0 0 1.414l6.364 6.364a.999.999 0 1 0 1.414-1.414L253.414 168l5.657-5.657a.999.999 0 1 0-1.414-1.414zm120.414 1.414a1 1 0 0 0 0-1.414l-6.364-6.364a.999.999 0 1 0-1.414 1.414l5.657 5.657-5.657 5.657a.999.999 0 1 0 1.414 1.414zM252 169h119v-2H252z"/><path stroke="#757575" stroke-miterlimit="8" stroke-width="2" d="M299 84v170"/><path fill="#F6821F" d="M435.485 157c4.139 0 7.515 3.278 7.515 7.298 0 5.36-7.427 14.625-7.427 14.625S428 169.658 428 164.298c-.029-4.048 3.347-7.298 7.485-7.298m0 10.406c1.556 0 2.818-1.226 2.818-2.737s-1.262-2.737-2.818-2.737c-1.555 0-2.818 1.226-2.818 2.737s1.263 2.737 2.818 2.737"/><path fill="#222" d="M378.034 163.273V172h-1.057v-7.619h-.051l-2.131 1.414v-1.073l2.182-1.449zm5.288-.12a3.1 3.1 0 0 1 1.074.205q.537.2.98.665.444.46.712 1.257.269.797.269 1.998 0 1.164-.222 2.067-.217.9-.631 1.517a2.8 2.8 0 0 1-.997.938 2.7 2.7 0 0 1-1.321.319q-.733 0-1.308-.289a2.6 2.6 0 0 1-.938-.814 2.84 2.84 0 0 1-.464-1.215h1.04q.14.601.558.993.422.388 1.112.388 1.01 0 1.594-.882.588-.882.588-2.493h-.068a2.7 2.7 0 0 1-.567.618 2.5 2.5 0 0 1-.729.4 2.6 2.6 0 0 1-.852.141q-.75 0-1.376-.371a2.8 2.8 0 0 1-.998-1.027q-.37-.655-.37-1.5 0-.801.358-1.466a2.76 2.76 0 0 1 1.014-1.065q.656-.396 1.542-.384m0 .938q-.537 0-.967.268-.426.265-.677.716-.248.448-.248.993 0 .546.239.993.243.444.661.707.421.26.958.26a1.82 1.82 0 0 0 1.364-.596q.264-.282.413-.635.15-.358.149-.746 0-.511-.247-.959a2 2 0 0 0-.673-.724 1.74 1.74 0 0 0-.972-.277m4.71 7.909v-.767l2.881-3.153q.507-.555.835-.964.328-.413.486-.775.162-.366.162-.767a1.41 1.41 0 0 0-.818-1.317 1.94 1.94 0 0 0-.853-.183q-.502 0-.877.209a1.44 1.44 0 0 0-.576.575q-.2.37-.2.869h-1.006q0-.767.354-1.346t.963-.904a2.9 2.9 0 0 1 1.377-.324q.767 0 1.359.324.593.324.929.874t.337 1.223q0 .481-.175.942-.171.456-.597 1.018-.422.558-1.172 1.364l-1.96 2.096v.068h4.057V172zm8.016.068a.74.74 0 0 1-.541-.226.74.74 0 0 1-.226-.541q0-.315.226-.541a.74.74 0 0 1 .541-.226q.315 0 .541.226a.74.74 0 0 1 .226.541.8.8 0 0 1-.384.665.73.73 0 0 1-.383.102m5.097.051q-.964 0-1.641-.524-.678-.528-1.036-1.53-.358-1.005-.358-2.429 0-1.414.358-2.416.363-1.005 1.04-1.534.682-.533 1.637-.533.954 0 1.632.533.681.529 1.039 1.534.363 1.002.363 2.416 0 1.424-.358 2.429-.358 1.002-1.036 1.53-.678.524-1.64.524m0-.937q.954 0 1.482-.921.53-.92.529-2.625 0-1.133-.243-1.93-.238-.797-.69-1.215a1.53 1.53 0 0 0-1.078-.417q-.947 0-1.479.933-.533.929-.533 2.629 0 1.134.239 1.926.239.793.686 1.206.451.414 1.087.414m5.098.886a.74.74 0 0 1-.541-.226.74.74 0 0 1-.226-.541q0-.315.226-.541a.74.74 0 0 1 .541-.226q.315 0 .541.226a.74.74 0 0 1 .226.541.73.73 0 0 1-.106.384.8.8 0 0 1-.277.281.74.74 0 0 1-.384.102m2.555-.068v-.767l2.881-3.153q.507-.555.835-.964.328-.413.486-.775.162-.366.162-.767a1.41 1.41 0 0 0-.819-1.317 1.9 1.9 0 0 0-.852-.183q-.503 0-.878.209a1.43 1.43 0 0 0-.575.575q-.2.37-.2.869h-1.006q0-.767.354-1.346t.963-.904a2.9 2.9 0 0 1 1.376-.324q.768 0 1.36.324.591.324.929.874.336.55.336 1.223 0 .481-.175.942-.17.456-.596 1.018-.422.558-1.172 1.364l-1.96 2.096v.068h4.057V172zm8.016.068a.74.74 0 0 1-.542-.226.74.74 0 0 1-.225-.541q0-.315.225-.541a.74.74 0 0 1 .542-.226q.315 0 .541.226.225.226.226.541a.8.8 0 0 1-.384.665.73.73 0 0 1-.383.102m4.579-8.795V172h-1.056v-7.619h-.051l-2.131 1.414v-1.073l2.182-1.449z"/><path fill="#757575" d="M395.707 254.707a1 1 0 0 0 0-1.414l-6.364-6.364a.999.999 0 1 0-1.414 1.414l5.657 5.657-5.657 5.657a.999.999 0 1 0 1.414 1.414zM298 255h97v-2h-97z"/><path fill="#F6821F" d="M460.485 244c4.139 0 7.515 3.278 7.515 7.298 0 5.36-7.427 14.625-7.427 14.625S453 256.658 453 251.298c-.029-4.048 3.347-7.298 7.485-7.298m0 10.406c1.556 0 2.818-1.226 2.818-2.737s-1.262-2.737-2.818-2.737c-1.555 0-2.818 1.226-2.818 2.737s1.263 2.737 2.818 2.737"/><path fill="#F6821F" d="M460.485 244c4.139 0 7.515 3.278 7.515 7.298 0 5.36-7.427 14.625-7.427 14.625S453 256.658 453 251.298c-.029-4.048 3.347-7.298 7.485-7.298m0 10.406c1.556 0 2.818-1.226 2.818-2.737s-1.262-2.737-2.818-2.737c-1.555 0-2.818 1.226-2.818 2.737s1.263 2.737 2.818 2.737"/><path fill="#222" d="M403.034 249.273V258h-1.057v-7.619h-.051l-2.131 1.414v-1.073l2.182-1.449zm5.288-.12a3.1 3.1 0 0 1 1.074.205q.537.2.98.665.444.46.712 1.257.269.797.269 1.998 0 1.164-.222 2.067-.217.9-.631 1.517a2.8 2.8 0 0 1-.997.938 2.7 2.7 0 0 1-1.321.319q-.733 0-1.308-.289a2.6 2.6 0 0 1-.938-.814 2.84 2.84 0 0 1-.464-1.215h1.04q.14.602.558.993.422.388 1.112.388 1.01 0 1.594-.882.588-.882.588-2.493h-.068a2.7 2.7 0 0 1-.567.618 2.5 2.5 0 0 1-.729.4 2.6 2.6 0 0 1-.852.141q-.75 0-1.376-.371a2.8 2.8 0 0 1-.998-1.027q-.37-.655-.37-1.5 0-.801.358-1.466a2.76 2.76 0 0 1 1.014-1.065q.656-.396 1.542-.384m0 .938q-.537 0-.967.268-.426.265-.677.716-.248.449-.248.993 0 .546.239.993.243.444.661.707.421.26.958.26a1.82 1.82 0 0 0 1.364-.596q.264-.282.413-.635.15-.358.149-.746 0-.511-.247-.959a2 2 0 0 0-.673-.724 1.74 1.74 0 0 0-.972-.277m4.71 7.909v-.767l2.881-3.153q.507-.555.835-.964.328-.413.486-.775.162-.366.162-.767a1.41 1.41 0 0 0-.818-1.317 1.94 1.94 0 0 0-.853-.183q-.502 0-.877.209a1.44 1.44 0 0 0-.576.575q-.2.37-.2.869h-1.006q0-.767.354-1.346t.963-.904a2.9 2.9 0 0 1 1.377-.324q.767 0 1.359.324.593.324.929.874t.337 1.223q0 .481-.175.942-.171.456-.597 1.018-.422.558-1.172 1.364l-1.96 2.096v.068h4.057V258zm8.016.068a.74.74 0 0 1-.541-.226.74.74 0 0 1-.226-.541q0-.315.226-.541a.74.74 0 0 1 .541-.226q.315 0 .541.226a.74.74 0 0 1 .226.541.8.8 0 0 1-.384.665.73.73 0 0 1-.383.102m5.097.051q-.964 0-1.641-.524-.678-.528-1.036-1.53-.358-1.005-.358-2.429 0-1.414.358-2.416.363-1.005 1.04-1.534.682-.533 1.637-.533.954 0 1.632.533.681.529 1.039 1.534.363 1.002.363 2.416 0 1.424-.358 2.429-.358 1.002-1.036 1.53-.678.524-1.64.524m0-.937q.954 0 1.482-.921.53-.92.529-2.625 0-1.133-.243-1.93-.238-.797-.69-1.215a1.53 1.53 0 0 0-1.078-.417q-.947 0-1.479.933-.533.929-.533 2.629 0 1.134.239 1.926.239.793.686 1.206.451.414 1.087.414m5.098.886a.74.74 0 0 1-.541-.226.74.74 0 0 1-.226-.541q0-.315.226-.541a.74.74 0 0 1 .541-.226q.315 0 .541.226a.74.74 0 0 1 .226.541.73.73 0 0 1-.106.384.8.8 0 0 1-.277.281.74.74 0 0 1-.384.102m2.555-.068v-.767l2.881-3.153q.507-.555.835-.964.328-.413.486-.775.162-.366.162-.767a1.41 1.41 0 0 0-.819-1.317 1.9 1.9 0 0 0-.852-.183q-.503 0-.878.209a1.43 1.43 0 0 0-.575.575q-.2.37-.2.869h-1.006q0-.767.354-1.346t.963-.904a2.9 2.9 0 0 1 1.376-.324q.768 0 1.36.324.591.324.929.874.336.55.336 1.223 0 .481-.175.942-.17.456-.596 1.018-.422.558-1.172 1.364l-1.96 2.096v.068h4.057V258zm8.016.068a.74.74 0 0 1-.542-.226.74.74 0 0 1-.225-.541q0-.315.225-.541a.74.74 0 0 1 .542-.226q.315 0 .541.226.225.226.226.541a.8.8 0 0 1-.384.665.73.73 0 0 1-.383.102m4.579-8.795V258h-1.056v-7.619h-.051l-2.131 1.414v-1.073l2.182-1.449z"/><path fill="#fff" stroke="#FFA629" stroke-dasharray="10 10" stroke-width="2" d="M504 62h126v219H504z"/><path fill="#fff" stroke="#F6821F" stroke-width="2" d="M514 157h105v22H514zm0 33h105v21H514zm0 29h105v22H514zm0 30h105v21H514zm0-121h105v22H514zm0-29h105v22H514zm0-29h105v22H514z"/><path fill="#222" d="M548.964 114v-7.273h4.816v1.268h-3.278v1.733h2.958v1.268h-2.958V114zm5.712 0v-5.455h1.512V114zm.76-6.158a.82.82 0 0 1-.579-.223.73.73 0 0 1-.238-.544q0-.312.238-.536a.82.82 0 0 1 .579-.227q.336 0 .575.227a.7.7 0 0 1 .241.536q0 .316-.241.544a.8.8 0 0 1-.575.223M557.29 114v-5.455h1.467v.952h.057q.149-.507.5-.767a1.32 1.32 0 0 1 .81-.263 2.2 2.2 0 0 1 .476.054v1.342a2.7 2.7 0 0 0-.639-.082 1.2 1.2 0 0 0-.597.146 1.07 1.07 0 0 0-.561.987V114zm6.214.107q-.842 0-1.449-.341a2.33 2.33 0 0 1-.93-.973q-.327-.633-.327-1.495 0-.842.327-1.478.326-.635.919-.99.597-.356 1.399-.356.54 0 1.005.174.47.171.817.515.352.345.547.867.195.518.195 1.214v.416h-4.605v-.938h3.181q0-.326-.142-.579a1 1 0 0 0-.394-.394 1.1 1.1 0 0 0-.579-.145q-.344 0-.61.159a1.1 1.1 0 0 0-.412.423q-.15.263-.153.586v.891q0 .405.149.7.153.294.43.454.276.16.657.16.252 0 .461-.071a.95.95 0 0 0 .359-.213.9.9 0 0 0 .227-.348l1.399.093a1.9 1.9 0 0 1-.436.88q-.327.373-.846.583a3.2 3.2 0 0 1-1.189.206m4.418-.107-1.485-5.455h1.531l.845 3.665h.05l.88-3.665h1.502l.895 3.644h.046l.831-3.644h1.527l-1.48 5.455h-1.602l-.937-3.43h-.068l-.937 3.43zm8.875.103q-.522 0-.931-.181a1.5 1.5 0 0 1-.646-.543q-.234-.363-.234-.902 0-.455.167-.764.166-.31.454-.497.288-.188.654-.284.369-.096.774-.135.476-.05.767-.092.291-.046.422-.135a.3.3 0 0 0 .132-.263v-.021q0-.337-.213-.523-.21-.184-.597-.184-.408 0-.65.181a.83.83 0 0 0-.319.447l-1.399-.113q.106-.497.419-.86.312-.364.806-.561a3.1 3.1 0 0 1 1.15-.199q.454 0 .87.107.42.106.742.33.327.224.515.576.189.348.189.834V114h-1.435v-.756h-.043a1.5 1.5 0 0 1-.351.451 1.6 1.6 0 0 1-.529.301 2.2 2.2 0 0 1-.714.107m.433-1.044q.334 0 .59-.131.255-.135.401-.363a.93.93 0 0 0 .145-.515v-.578a.8.8 0 0 1-.195.085q-.12.035-.273.067l-.306.054-.277.039a2 2 0 0 0-.465.124.75.75 0 0 0-.309.231.56.56 0 0 0-.11.355q0 .309.224.472.227.16.575.16m5.215-6.332V114h-1.513v-7.273zm2.615 0V114h-1.513v-7.273zM557.148 84l-2.081-7.273h1.679l1.204 5.054h.061l1.328-5.054h1.438l1.325 5.064h.063l1.204-5.064h1.68L562.968 84h-1.499l-1.384-4.755h-.057L558.646 84zm9.135 0h-1.648l2.511-7.273h1.982L571.635 84h-1.648l-1.822-5.61h-.057zm-.103-2.859h3.892v1.2h-3.892zm12.303-4.414V84h-1.328l-3.164-4.577h-.053V84H572.4v-7.273h1.349l3.14 4.574h.064v-4.574zM559.729 143h-2.578v-7.273h2.6q1.097 0 1.889.437.792.433 1.218 1.247.43.813.43 1.946 0 1.136-.43 1.953a2.96 2.96 0 0 1-1.225 1.253q-.795.437-1.904.437m-1.04-1.317h.976q.682 0 1.148-.242.468-.245.703-.756.238-.515.238-1.328 0-.807-.238-1.318a1.55 1.55 0 0 0-.7-.753q-.465-.241-1.147-.241h-.98zm11.711-5.956V143h-1.328l-3.164-4.577h-.054V143h-1.537v-7.273h1.349l3.139 4.574h.064v-4.574zm5.106 2.092a.9.9 0 0 0-.366-.668q-.324-.238-.877-.238-.376 0-.636.107a.9.9 0 0 0-.398.288.7.7 0 0 0-.135.419.6.6 0 0 0 .082.34.9.9 0 0 0 .252.253q.16.103.369.181.21.074.448.128l.653.156q.476.107.874.284t.689.437.451.61q.163.353.167.807-.004.668-.341 1.157-.334.487-.966.757-.629.266-1.516.266-.882 0-1.535-.27a2.25 2.25 0 0 1-1.015-.799q-.363-.532-.38-1.317h1.488q.024.365.209.61.189.241.501.366.317.121.714.121.39 0 .678-.114.29-.113.451-.316a.73.73 0 0 0 .16-.465.6.6 0 0 0-.146-.412 1.1 1.1 0 0 0-.419-.284 4.3 4.3 0 0 0-.671-.213l-.792-.199q-.92-.224-1.452-.699-.533-.477-.529-1.282a1.9 1.9 0 0 1 .351-1.155q.358-.494.984-.77.625-.277 1.42-.277.81 0 1.414.277.606.276.944.77t.348 1.144zM553.627 172v-.913l3.629-5.092h-3.636v-1.268h5.568v.913l-3.633 5.092h3.64V172zm6.361-6.005v-1.268h5.973v1.268h-2.226V172h-1.52v-6.005zm12.93-1.268V172h-1.328l-3.164-4.577h-.053V172h-1.538v-7.273h1.349l3.14 4.574h.063v-4.574zm2.414 7.273h-1.648l2.511-7.273h1.981l2.508 7.273h-1.648l-1.822-5.611h-.057zm-.103-2.859h3.892v1.201h-3.892zm-15.597 29.678a.9.9 0 0 0-.366-.668q-.323-.238-.877-.238-.376 0-.636.107a.9.9 0 0 0-.398.288.7.7 0 0 0-.134.419.6.6 0 0 0 .081.34.9.9 0 0 0 .252.253q.16.103.37.181.208.074.447.128l.654.156q.475.107.873.284t.689.437.451.61q.164.353.167.807-.003.668-.341 1.157-.334.487-.966.757-.628.266-1.516.266-.881 0-1.534-.27a2.24 2.24 0 0 1-1.016-.799q-.362-.532-.38-1.317h1.488q.025.365.21.61.188.241.5.366.317.121.714.121.39 0 .678-.114a1.03 1.03 0 0 0 .451-.316.73.73 0 0 0 .16-.465.6.6 0 0 0-.146-.412 1.1 1.1 0 0 0-.419-.284 4.3 4.3 0 0 0-.671-.213l-.792-.199q-.92-.224-1.452-.699-.533-.477-.529-1.282a1.9 1.9 0 0 1 .351-1.155q.359-.494.984-.77.625-.277 1.421-.277.808 0 1.413.277.608.276.944.77.337.494.348 1.144zm4.134 5.181-2.081-7.273h1.68l1.204 5.054h.06l1.328-5.054h1.439l1.324 5.064h.064l1.204-5.064h1.68L569.587 204h-1.499l-1.385-4.755h-.057L565.265 204zm13.027-4.922a1.6 1.6 0 0 0-.21-.458 1.42 1.42 0 0 0-.77-.558 1.9 1.9 0 0 0-.544-.074q-.557 0-.98.277a1.8 1.8 0 0 0-.653.806q-.234.525-.235 1.286 0 .76.231 1.292t.654.813q.422.277.998.277.522 0 .891-.184a1.33 1.33 0 0 0 .568-.529 1.57 1.57 0 0 0 .199-.807l.312.047h-1.875v-1.158h3.044v.916q0 .959-.405 1.648-.405.686-1.115 1.058-.71.369-1.627.369-1.022 0-1.796-.451a3.1 3.1 0 0 1-1.208-1.289q-.429-.837-.429-1.988 0-.884.255-1.577a3.4 3.4 0 0 1 .725-1.179q.465-.483 1.083-.735a3.5 3.5 0 0 1 1.338-.252q.618 0 1.151.181.532.177.945.504.415.327.678.778.263.447.337.987zM534.605 234v-7.273h1.537v6.005h3.118V234zm8 .107q-.828 0-1.432-.352a2.4 2.4 0 0 1-.926-.987q-.327-.636-.327-1.474 0-.845.327-1.477.326-.636.926-.987.604-.356 1.432-.356.827 0 1.427.356.605.351.93.987.327.632.327 1.477 0 .838-.327 1.474-.326.631-.93.987-.6.352-1.427.352m.007-1.172q.376 0 .628-.213.252-.217.38-.59a2.5 2.5 0 0 0 .132-.849q0-.476-.132-.848a1.3 1.3 0 0 0-.38-.59.93.93 0 0 0-.628-.216.97.97 0 0 0-.64.216q-.255.217-.387.59a2.6 2.6 0 0 0-.128.848q0 .477.128.849.132.373.387.59a.98.98 0 0 0 .64.213m5.106 1.168q-.522 0-.93-.181a1.5 1.5 0 0 1-.646-.543q-.235-.363-.235-.902 0-.455.167-.764.167-.31.455-.497a2.2 2.2 0 0 1 .653-.284q.369-.096.774-.135.476-.05.767-.092.291-.047.423-.135a.3.3 0 0 0 .131-.263v-.021q0-.337-.213-.523-.21-.184-.596-.184-.409 0-.65.181a.83.83 0 0 0-.32.447l-1.399-.113q.107-.497.419-.86.312-.364.806-.561a3.1 3.1 0 0 1 1.151-.199q.454 0 .87.107.418.107.742.33.327.224.515.576.188.348.188.834V234h-1.435v-.756h-.042a1.6 1.6 0 0 1-.352.451 1.6 1.6 0 0 1-.529.301 2.2 2.2 0 0 1-.714.107m.433-1.044q.335 0 .59-.131.255-.135.401-.363a.93.93 0 0 0 .146-.515v-.578a1 1 0 0 1-.195.085 4 4 0 0 1-.274.067l-.305.054-.277.039a2 2 0 0 0-.466.124.74.74 0 0 0-.308.231.56.56 0 0 0-.111.355q0 .309.224.472.227.16.575.16m5.713 1.03q-.622 0-1.126-.32-.5-.323-.796-.948-.291-.629-.291-1.541 0-.938.302-1.559.302-.625.803-.934a2.06 2.06 0 0 1 1.104-.313q.458 0 .764.157.308.152.497.383.192.228.291.448h.046v-2.735h1.509V234h-1.491v-.874h-.064a2 2 0 0 1-.302.451 1.5 1.5 0 0 1-.501.366 1.7 1.7 0 0 1-.745.146m.479-1.204q.366 0 .618-.199.256-.202.39-.565.14-.362.139-.848 0-.487-.135-.845-.135-.36-.391-.554a1 1 0 0 0-.621-.196.98.98 0 0 0-.629.203q-.255.203-.387.561a2.4 2.4 0 0 0-.131.831q0 .476.131.841.135.362.387.569.256.201.629.202m5.991 1.115v-7.273h2.912q.802 0 1.339.238t.806.661q.27.419.27.966 0 .425-.171.749a1.46 1.46 0 0 1-.469.525 1.9 1.9 0 0 1-.674.288v.071q.416.018.777.235.366.216.593.607.228.387.228.923 0 .579-.288 1.033-.284.451-.842.714-.556.263-1.374.263zm1.538-1.257h1.253q.643 0 .938-.245a.82.82 0 0 0 .294-.661 1 1 0 0 0-.145-.532 1 1 0 0 0-.416-.363 1.4 1.4 0 0 0-.635-.131h-1.289zm0-2.972h1.139q.316 0 .562-.11a.94.94 0 0 0 .39-.32.83.83 0 0 0 .146-.494.8.8 0 0 0-.281-.635q-.276-.242-.788-.242h-1.168zm6.49 4.332q-.522 0-.93-.181a1.5 1.5 0 0 1-.646-.543q-.235-.363-.235-.902 0-.455.167-.764.167-.31.455-.497a2.2 2.2 0 0 1 .653-.284q.369-.096.774-.135.476-.05.767-.092.291-.047.423-.135a.3.3 0 0 0 .131-.263v-.021q0-.337-.213-.523-.21-.184-.596-.184-.409 0-.65.181a.83.83 0 0 0-.32.447l-1.399-.113q.107-.497.419-.86.312-.364.806-.561a3.1 3.1 0 0 1 1.151-.199q.454 0 .87.107.418.107.742.33.326.224.515.576.188.348.188.834V234h-1.435v-.756h-.042a1.6 1.6 0 0 1-.352.451 1.6 1.6 0 0 1-.529.301 2.2 2.2 0 0 1-.714.107m.433-1.044q.334 0 .59-.131.255-.135.401-.363a.93.93 0 0 0 .146-.515v-.578a1 1 0 0 1-.195.085 4 4 0 0 1-.274.067l-.305.054-.277.039a2 2 0 0 0-.466.124.74.74 0 0 0-.308.231.56.56 0 0 0-.111.355q0 .309.224.472.227.16.575.16m5.215-6.332V234h-1.512v-7.273zm2.658 7.376q-.523 0-.931-.181a1.5 1.5 0 0 1-.646-.543q-.234-.363-.234-.902 0-.455.166-.764.168-.31.455-.497.288-.189.653-.284.37-.096.775-.135.475-.05.767-.092.291-.047.422-.135a.3.3 0 0 0 .132-.263v-.021q0-.337-.214-.523-.209-.184-.596-.184-.408 0-.65.181a.84.84 0 0 0-.32.447l-1.399-.113q.107-.497.419-.86.313-.364.806-.561a3.1 3.1 0 0 1 1.151-.199q.455 0 .87.107.419.107.742.33.327.224.515.576.188.348.188.834V234h-1.434v-.756h-.043q-.132.255-.351.451a1.6 1.6 0 0 1-.53.301 2.2 2.2 0 0 1-.713.107m.433-1.044q.333 0 .589-.131a1.04 1.04 0 0 0 .402-.363.93.93 0 0 0 .145-.515v-.578a.8.8 0 0 1-.195.085 4 4 0 0 1-.274.067q-.152.028-.305.054l-.277.039a2 2 0 0 0-.465.124.74.74 0 0 0-.309.231.56.56 0 0 0-.11.355q0 .309.224.472.227.16.575.16m5.215-2.212V234h-1.513v-5.455h1.442v.963h.064a1.52 1.52 0 0 1 .607-.753q.426-.28 1.033-.281.568 0 .991.249.423.248.657.71.234.459.234 1.094V234h-1.512v-3.203q.003-.5-.256-.781-.26-.284-.714-.284-.305 0-.54.131a.9.9 0 0 0-.362.383 1.3 1.3 0 0 0-.131.601m7.062 3.26q-.838 0-1.442-.356-.6-.358-.923-.994-.32-.635-.319-1.463 0-.838.323-1.47a2.4 2.4 0 0 1 .927-.991q.6-.359 1.427-.359.714 0 1.25.26.536.258.849.728.312.468.344 1.1h-1.427a1.1 1.1 0 0 0-.32-.656q-.255-.253-.671-.253-.351 0-.614.192a1.2 1.2 0 0 0-.405.551 2.4 2.4 0 0 0-.146.877q0 .522.142.888.145.365.409.557.263.192.614.192a1 1 0 0 0 .465-.107.9.9 0 0 0 .345-.309q.138-.206.181-.493h1.427a2.23 2.23 0 0 1-.341 1.101 2.06 2.06 0 0 1-.834.738q-.532.267-1.261.267m5.781 0q-.842 0-1.449-.341a2.34 2.34 0 0 1-.931-.973q-.326-.633-.326-1.495 0-.842.326-1.478.327-.635.92-.99.597-.356 1.399-.356.54 0 1.005.174.47.171.817.515.351.345.547.867.195.518.195 1.214v.416h-4.606v-.938h3.182q0-.326-.142-.579a1 1 0 0 0-.394-.394 1.1 1.1 0 0 0-.579-.145q-.345 0-.611.159a1.14 1.14 0 0 0-.412.423q-.149.263-.152.586v.891q0 .405.149.7.153.295.43.454.276.16.656.16.253 0 .462-.071a.95.95 0 0 0 .359-.213.9.9 0 0 0 .227-.348l1.399.093a1.9 1.9 0 0 1-.437.88 2.2 2.2 0 0 1-.845.583q-.515.206-1.189.206m3.38-.107v-5.455h1.467v.952h.057q.149-.507.501-.767.351-.263.809-.263a2.2 2.2 0 0 1 .476.054v1.342a2.7 2.7 0 0 0-.639-.082 1.2 1.2 0 0 0-.597.146 1.07 1.07 0 0 0-.561.987V234zm-35.131 27.148q-.562 0-.966-.398a1.33 1.33 0 0 1-.397-.966 1.3 1.3 0 0 1 .397-.954q.404-.399.966-.398.546 0 .955.398.41.397.409.954 0 .375-.193.688-.187.306-.495.494-.306.182-.676.182m4.59 0q-.562 0-.966-.398a1.33 1.33 0 0 1-.398-.966q0-.557.398-.954.404-.399.966-.398.546 0 .954.398.41.397.41.954 0 .375-.194.688a1.5 1.5 0 0 1-.494.494q-.307.182-.676.182m4.589 0q-.562 0-.965-.398a1.32 1.32 0 0 1-.398-.966q0-.557.398-.954.403-.399.965-.398.546 0 .955.398.41.397.409.954 0 .375-.193.688-.188.306-.494.494-.307.182-.677.182"/><circle cx="227" cy="168" r="17" fill="#fff"/><path fill="#0055DC" d="M226.5 150.219a18.282 18.282 0 1 0 18.281 18.281 18.35 18.35 0 0 0-5.375-12.906 18.35 18.35 0 0 0-12.906-5.375m0 33.75a15.468 15.468 0 1 1 15.469-15.469 15.54 15.54 0 0 1-15.469 15.469"/><path fill="#0055DC" d="M224.672 170.469v-.071h-.07l-.985-.984-4.781 4.922v-2.813h-2.25v7.032h7.031v-2.25h-2.812l4.851-4.852zm4.57-2.672 4.852-4.992v2.812h2.25v-7.031h-7.031v2.25h2.812l-4.922 4.992zm2.25 3.797h2.742v-2.25h-7.031v7.031h2.25v-2.813l5.695 5.555 1.969-1.969zm-8.086-8.086-5.554-5.625-1.969 1.969 5.555 5.695h-2.813v2.25h7.031v-7.031h-2.25z"/></svg>