<svg xmlns="http://www.w3.org/2000/svg" width="555" height="350" fill="none" viewBox="0 0 555 350"><path fill="#fff" d="M0 0h555v350H0z"/><path stroke="#F6821F" stroke-width="2" d="M18 32h520v294H18z"/><path fill="#fff" d="M51 23h275v18H51z"/><path fill="#222" d="M57.874 36v-8.727h3.443q.993 0 1.692.379.698.375 1.065 1.044.37.665.37 1.534 0 .87-.374 1.534-.375.665-1.087 1.036-.706.37-1.713.37h-2.195v-1.478h1.897q.533 0 .878-.183.35-.187.52-.516.174-.333.174-.763 0-.435-.174-.758a1.17 1.17 0 0 0-.52-.508q-.35-.183-.887-.183H59.72V36zm7.735 0v-6.546h1.76v1.143h.068q.18-.61.601-.92a1.58 1.58 0 0 1 .972-.316 3 3 0 0 1 .57.064v1.61a2.4 2.4 0 0 0-.353-.068q-.225-.03-.413-.03-.4 0-.716.175a1.3 1.3 0 0 0-.495.478q-.178.306-.178.707V36zm7.589.128q-1.01 0-1.739-.41a2.8 2.8 0 0 1-1.117-1.167q-.39-.759-.391-1.794 0-1.01.392-1.773.391-.762 1.103-1.189.716-.426 1.68-.426.647 0 1.205.21.563.203.98.617.422.413.656 1.04.235.622.235 1.457v.499h-5.527v-1.125h3.818a1.4 1.4 0 0 0-.17-.695 1.2 1.2 0 0 0-.473-.473 1.35 1.35 0 0 0-.695-.175q-.414 0-.733.192-.315.187-.494.507-.18.316-.183.703v1.07q0 .486.178.84.184.353.516.545.333.192.789.192.302 0 .553-.086t.43-.255.274-.418l1.678.111q-.128.605-.524 1.057-.392.447-1.014.699-.618.246-1.427.247m10.115-6.674L81.025 36h-2.046l-2.288-6.546h1.918l1.359 4.684h.068l1.355-4.683zm3.701 6.674q-1.01 0-1.739-.41a2.8 2.8 0 0 1-1.116-1.167q-.393-.759-.392-1.794 0-1.01.392-1.773t1.104-1.189q.715-.426 1.679-.426.647 0 1.206.21.561.203.98.617.421.413.656 1.04.234.622.234 1.457v.499h-5.527v-1.125h3.819a1.4 1.4 0 0 0-.171-.695 1.2 1.2 0 0 0-.473-.473 1.35 1.35 0 0 0-.695-.175q-.413 0-.733.192-.314.187-.494.507-.18.316-.183.703v1.07q0 .486.179.84.183.353.516.545.332.192.788.192.302 0 .554-.086.25-.085.43-.255t.273-.418l1.679.111q-.128.605-.524 1.057-.393.447-1.014.699-.618.246-1.428.247m6.004-3.912V36h-1.815v-6.546h1.73v1.155h.077q.217-.57.728-.903.512-.337 1.24-.337.682 0 1.19.299.506.298.788.852.28.55.281 1.312V36h-1.815v-3.844q.003-.6-.307-.937-.31-.342-.857-.341-.366 0-.647.157-.278.159-.435.46a1.6 1.6 0 0 0-.158.72m9.131-2.762v1.364h-3.941v-1.364zm-3.046-1.568h1.815v6.103a.8.8 0 0 0 .076.392q.078.135.214.191a.9.9 0 0 0 .323.056q.129 0 .256-.022l.196-.038.286 1.351a5 5 0 0 1-.384.098q-.247.06-.601.072-.656.026-1.15-.174a1.6 1.6 0 0 1-.763-.622q-.273-.423-.268-1.066zm9.418 8.22q-.745 0-1.351-.383-.6-.388-.954-1.138-.35-.755-.35-1.85 0-1.125.363-1.87.361-.75.963-1.12.605-.375 1.325-.376.55 0 .916.188.37.183.597.46.23.272.349.537h.055v-3.281h1.812V36h-1.79v-1.048h-.077a2.3 2.3 0 0 1-.362.54 1.8 1.8 0 0 1-.601.44q-.367.174-.895.174m.575-1.444q.44 0 .742-.239.306-.243.469-.677.165-.435.166-1.019 0-.584-.162-1.014a1.45 1.45 0 0 0-.469-.665 1.2 1.2 0 0 0-.746-.234q-.447 0-.754.243a1.5 1.5 0 0 0-.464.673q-.158.431-.158.997 0 .572.158 1.01.162.435.464.682.307.243.754.243m7.599 1.466q-.992 0-1.717-.422a2.9 2.9 0 0 1-1.112-1.185q-.392-.763-.392-1.768 0-1.014.392-1.773a2.85 2.85 0 0 1 1.112-1.184q.725-.427 1.717-.427t1.714.427a2.84 2.84 0 0 1 1.116 1.184q.392.759.392 1.773 0 1.005-.392 1.768-.391.758-1.116 1.185-.721.422-1.714.422m.009-1.406q.452 0 .754-.256.303-.26.456-.708.158-.447.158-1.018 0-.57-.158-1.018a1.6 1.6 0 0 0-.456-.708 1.12 1.12 0 0 0-.754-.26q-.456 0-.767.26-.307.261-.465.708a3.1 3.1 0 0 0-.153 1.018q0 .57.153 1.018.158.448.465.708.31.255.767.256M122.225 36l-1.782-6.546h1.837l1.014 4.398h.06l1.057-4.397h1.802l1.074 4.372h.056l.997-4.372h1.832L128.395 36h-1.922l-1.125-4.116h-.081L124.142 36zm10.731-3.784V36h-1.816v-6.546h1.731v1.155h.076q.218-.57.729-.903.511-.337 1.24-.337.682 0 1.189.299.507.298.788.852.282.55.282 1.312V36h-1.816v-3.844q.005-.6-.307-.937-.311-.342-.856-.341-.366 0-.648.157a1.1 1.1 0 0 0-.435.46 1.6 1.6 0 0 0-.157.72m7.465-4.943V36h-1.816v-8.727zm4.411 8.855q-.993 0-1.717-.422a2.9 2.9 0 0 1-1.112-1.185q-.392-.763-.392-1.768 0-1.014.392-1.773a2.85 2.85 0 0 1 1.112-1.184q.724-.427 1.717-.427t1.713.427a2.85 2.85 0 0 1 1.117 1.184q.392.759.392 1.773 0 1.005-.392 1.768-.393.758-1.117 1.185-.72.422-1.713.422m.009-1.406q.451 0 .754-.256.303-.26.456-.708.158-.447.158-1.018 0-.57-.158-1.018a1.6 1.6 0 0 0-.456-.708 1.12 1.12 0 0 0-.754-.26q-.456 0-.767.26-.308.261-.465.708a3.1 3.1 0 0 0-.153 1.018q0 .57.153 1.018.157.448.465.708.31.255.767.256m6.26 1.402a2.7 2.7 0 0 1-1.117-.218 1.8 1.8 0 0 1-.775-.652q-.282-.434-.282-1.082 0-.547.201-.916.2-.371.545-.597t.784-.34q.443-.117.929-.163.571-.06.921-.11.35-.056.507-.162a.36.36 0 0 0 .157-.316v-.025q0-.406-.255-.627-.252-.222-.716-.221-.49 0-.78.217a1 1 0 0 0-.384.537l-1.679-.137a2.3 2.3 0 0 1 .503-1.03q.375-.44.968-.674.596-.24 1.38-.239.546 0 1.044.128.503.128.891.396.392.27.618.69t.226 1.002V36h-1.722v-.908h-.051a1.9 1.9 0 0 1-.422.541 2 2 0 0 1-.635.363 2.6 2.6 0 0 1-.856.128m.52-1.253q.4 0 .707-.158.307-.162.481-.435.175-.272.175-.617v-.695a1 1 0 0 1-.234.102 4 4 0 0 1-.328.081q-.184.034-.367.064l-.332.047a2.3 2.3 0 0 0-.558.15.9.9 0 0 0-.371.276.68.68 0 0 0-.132.426q0 .37.268.567.273.192.691.192m6.986 1.235q-.745 0-1.351-.383-.6-.388-.954-1.138-.35-.755-.35-1.85 0-1.125.362-1.87.363-.75.964-1.12.605-.375 1.325-.376.55 0 .916.188.37.183.597.46.23.272.349.537h.055v-3.281h1.811V36h-1.789v-1.048h-.077a2.3 2.3 0 0 1-.362.54 1.8 1.8 0 0 1-.601.44q-.367.174-.895.174m.575-1.444q.44 0 .742-.239.306-.243.469-.677.166-.435.166-1.019t-.162-1.014a1.45 1.45 0 0 0-.469-.665 1.2 1.2 0 0 0-.746-.234q-.447 0-.754.243a1.5 1.5 0 0 0-.464.673 2.9 2.9 0 0 0-.158.997q0 .572.158 1.01.161.435.464.682.307.243.754.243m10.377 1.466q-.993 0-1.718-.422a2.9 2.9 0 0 1-1.112-1.185q-.392-.763-.392-1.768 0-1.014.392-1.773a2.86 2.86 0 0 1 1.112-1.184q.725-.427 1.718-.427t1.713.427a2.84 2.84 0 0 1 1.116 1.184q.393.759.392 1.773 0 1.005-.392 1.768-.391.758-1.116 1.185-.72.422-1.713.422m.008-1.406q.452 0 .755-.256.302-.26.456-.708.157-.447.157-1.018 0-.57-.157-1.018a1.6 1.6 0 0 0-.456-.708 1.12 1.12 0 0 0-.755-.26q-.456 0-.767.26-.306.261-.464.708a3.1 3.1 0 0 0-.154 1.018q0 .57.154 1.018.158.448.464.708.311.255.767.256m7.914-5.268v1.364h-4.04v-1.364zM174.366 36v-7.018q0-.712.277-1.18.28-.47.767-.704a2.5 2.5 0 0 1 1.103-.234q.418-.001.763.064.35.063.52.115l-.324 1.363a2 2 0 0 0-.264-.064 1.6 1.6 0 0 0-.315-.03q-.401 0-.559.188-.157.183-.157.516V36zm12.447-4.679-1.662.102a.85.85 0 0 0-.183-.383 1 1 0 0 0-.371-.277 1.3 1.3 0 0 0-.541-.107q-.422 0-.712.18-.29.174-.289.468 0 .234.187.396t.643.26l1.185.239q.954.195 1.423.63t.469 1.143q0 .643-.379 1.129-.375.486-1.031.758-.652.27-1.505.269-1.299 0-2.071-.541a2.1 2.1 0 0 1-.899-1.483l1.786-.094a.92.92 0 0 0 .392.605q.31.204.797.205.477 0 .767-.184.294-.187.298-.481a.5.5 0 0 0-.209-.405q-.204-.162-.63-.247l-1.134-.226q-.959-.192-1.428-.665-.464-.472-.464-1.206 0-.63.341-1.086.345-.456.967-.704.626-.247 1.466-.247 1.24 0 1.952.524.715.525.835 1.428m4.275 4.807q-1.01 0-1.738-.41a2.8 2.8 0 0 1-1.117-1.167q-.392-.759-.392-1.794 0-1.01.392-1.773a2.9 2.9 0 0 1 1.104-1.189q.716-.426 1.679-.426.648 0 1.206.21.562.203.98.617.422.413.656 1.04.234.622.235 1.457v.499h-5.527v-1.125h3.818q0-.392-.171-.695a1.2 1.2 0 0 0-.473-.473 1.35 1.35 0 0 0-.694-.175q-.414 0-.733.192a1.35 1.35 0 0 0-.495.507q-.179.316-.183.703v1.07q0 .486.179.84.183.353.516.545.332.192.788.192.303 0 .554-.086t.43-.255q.18-.17.273-.418l1.679.111q-.128.605-.524 1.057a2.6 2.6 0 0 1-1.014.699q-.618.246-1.428.247m6.005-3.912V36h-1.816v-6.546h1.73v1.155h.077q.218-.57.729-.903.511-.337 1.24-.337.681 0 1.189.299.507.298.788.852.281.55.281 1.312V36h-1.815v-3.844q.004-.6-.307-.937-.311-.342-.856-.341a1.3 1.3 0 0 0-.648.157q-.278.159-.435.46a1.6 1.6 0 0 0-.157.72m11.095-.895-1.662.102a.85.85 0 0 0-.183-.383 1 1 0 0 0-.371-.277 1.3 1.3 0 0 0-.541-.107q-.422 0-.712.18-.29.174-.289.468 0 .234.187.396t.643.26l1.185.239q.954.195 1.423.63t.469 1.143q0 .643-.379 1.129-.375.486-1.031.758-.652.27-1.505.269-1.299 0-2.071-.541a2.1 2.1 0 0 1-.899-1.483l1.786-.094a.92.92 0 0 0 .392.605q.31.204.797.205.477 0 .767-.184.294-.187.298-.481a.5.5 0 0 0-.209-.405q-.204-.162-.63-.247l-1.134-.226q-.959-.192-1.428-.665-.464-.472-.464-1.206 0-.63.341-1.086.345-.456.967-.704.626-.247 1.466-.247 1.24 0 1.952.524.715.525.835 1.428M209.48 36v-6.546h1.816V36zm.912-7.39a.98.98 0 0 1-.694-.268.87.87 0 0 1-.286-.652.85.85 0 0 1 .286-.643.98.98 0 0 1 .694-.273q.405 0 .691.273a.85.85 0 0 1 .289.643q0 .38-.289.652a.97.97 0 0 1-.691.269m5.839.845v1.363h-3.941v-1.364zm-3.047-1.569H215v6.103q0 .25.077.392.077.135.213.191a.9.9 0 0 0 .323.056q.129 0 .256-.022l.196-.038.286 1.351a5 5 0 0 1-.384.098q-.247.06-.601.072-.656.026-1.15-.174a1.6 1.6 0 0 1-.763-.622q-.272-.423-.269-1.066zm4.23 8.114v-6.546h1.815V36zm.912-7.39a1 1 0 0 1-.695-.268.87.87 0 0 1-.285-.652q0-.375.285-.643a.98.98 0 0 1 .695-.273q.405 0 .69.273.29.268.29.643 0 .38-.29.652a.97.97 0 0 1-.69.269m8.46.845L224.497 36h-2.045l-2.288-6.546h1.917l1.36 4.684h.068l1.355-4.683zm3.701 6.673q-1.01 0-1.739-.41a2.8 2.8 0 0 1-1.116-1.167q-.392-.759-.392-1.794 0-1.01.392-1.773a2.9 2.9 0 0 1 1.103-1.189q.717-.426 1.679-.426.648 0 1.206.21.563.203.98.617.422.413.657 1.04.234.622.234 1.457v.499h-5.527v-1.125h3.818q0-.392-.17-.695a1.23 1.23 0 0 0-.473-.473 1.35 1.35 0 0 0-.695-.175q-.413 0-.733.192-.315.187-.494.507-.18.316-.183.703v1.07q0 .486.179.84.183.353.515.545.333.192.789.192.302 0 .553-.086t.431-.255q.179-.17.273-.418l1.679.111q-.128.605-.525 1.057a2.6 2.6 0 0 1-1.014.699q-.618.246-1.427.247m9.923 0q-1.005 0-1.73-.426a2.9 2.9 0 0 1-1.108-1.194q-.383-.762-.383-1.755 0-1.006.388-1.764a2.9 2.9 0 0 1 1.112-1.19q.72-.43 1.713-.43.857 0 1.5.311.643.312 1.018.874t.414 1.321h-1.713q-.073-.49-.384-.788-.307-.303-.805-.303a1.22 1.22 0 0 0-.738.23q-.31.225-.485.66t-.175 1.053q0 .627.17 1.066.175.438.49.669.316.23.738.23.31 0 .558-.128.25-.128.413-.37a1.4 1.4 0 0 0 .218-.593h1.713q-.043.75-.409 1.32a2.5 2.5 0 0 1-1.002.887q-.639.32-1.513.32m7.043 0q-.993 0-1.717-.422a2.9 2.9 0 0 1-1.112-1.185q-.392-.763-.392-1.768 0-1.014.392-1.773a2.85 2.85 0 0 1 1.112-1.184q.724-.427 1.717-.427t1.713.427a2.85 2.85 0 0 1 1.117 1.184q.392.759.392 1.773 0 1.005-.392 1.768-.393.758-1.117 1.185-.72.422-1.713.422m.009-1.406q.451 0 .754-.256.303-.26.456-.708.158-.447.158-1.018 0-.57-.158-1.018a1.6 1.6 0 0 0-.456-.708 1.12 1.12 0 0 0-.754-.26q-.456 0-.767.26-.308.261-.465.708a3.1 3.1 0 0 0-.153 1.018q0 .57.153 1.018.157.448.465.708.31.255.767.256M251.855 36v-6.546h1.73v1.155h.077q.204-.575.682-.907.477-.333 1.142-.333.673 0 1.146.337.474.333.631.903h.068q.2-.562.725-.899.528-.34 1.248-.34.917 0 1.487.583.576.58.576 1.645V36h-1.811v-4.044q0-.546-.29-.818a1.02 1.02 0 0 0-.725-.273q-.493 0-.771.315-.277.312-.277.823V36h-1.76v-4.082q0-.482-.277-.767-.273-.285-.72-.286a1 1 0 0 0-.545.154q-.24.149-.38.421a1.35 1.35 0 0 0-.14.631V36zm10.946 2.455v-9h1.789v1.099h.081q.12-.264.346-.537.23-.277.596-.46.37-.188.921-.188.715 0 1.321.375.604.37.967 1.121.362.745.362 1.87 0 1.095-.354 1.85-.35.75-.954 1.138-.601.384-1.347.383-.528 0-.899-.174a1.9 1.9 0 0 1-.601-.44 2.3 2.3 0 0 1-.358-.54h-.055v3.503zm1.777-5.728q0 .585.162 1.019.161.434.468.677.307.24.746.239.443 0 .75-.243.307-.247.465-.682.16-.438.161-1.01 0-.567-.157-.997a1.5 1.5 0 0 0-.465-.673 1.18 1.18 0 0 0-.754-.243 1.2 1.2 0 0 0-.75.234 1.46 1.46 0 0 0-.464.665 2.9 2.9 0 0 0-.162 1.014m7.683 3.397a2.7 2.7 0 0 1-1.117-.218 1.8 1.8 0 0 1-.775-.652q-.281-.434-.281-1.082 0-.547.2-.916.2-.371.545-.597t.784-.34q.444-.117.929-.163.571-.06.921-.11.35-.056.507-.162a.36.36 0 0 0 .158-.316v-.025q0-.406-.256-.627-.252-.222-.716-.221-.49 0-.78.217a1 1 0 0 0-.383.537l-1.679-.137q.127-.596.502-1.03.375-.44.968-.674.597-.24 1.381-.239.545 0 1.044.128.503.128.89.396.392.27.618.69t.226 1.002V36h-1.722v-.908h-.051a1.9 1.9 0 0 1-.422.541 1.9 1.9 0 0 1-.635.363 2.6 2.6 0 0 1-.856.128m.52-1.253q.4 0 .707-.158.307-.162.482-.435.174-.272.174-.617v-.695a1 1 0 0 1-.234.102 4 4 0 0 1-.328.081q-.183.034-.367.064l-.332.047a2.3 2.3 0 0 0-.558.15.9.9 0 0 0-.371.276.68.68 0 0 0-.132.426q0 .37.268.567.273.192.691.192m6.39-2.655V36h-1.816v-6.546h1.73v1.155h.077q.217-.57.729-.903.511-.337 1.24-.337.682 0 1.189.299.507.298.788.852.281.55.281 1.312V36h-1.815v-3.844q.005-.6-.307-.937-.311-.342-.856-.341a1.3 1.3 0 0 0-.648.157q-.277.159-.435.46a1.6 1.6 0 0 0-.157.72m6.535 6.239q-.345 0-.647-.056a2.4 2.4 0 0 1-.495-.132l.41-1.355q.319.097.575.107a.73.73 0 0 0 .447-.12q.192-.128.311-.434l.107-.278-2.348-6.732h1.909l1.355 4.806h.068l1.368-4.807h1.922l-2.544 7.253q-.183.53-.499.92a2.04 2.04 0 0 1-.788.61q-.477.218-1.151.218m11.1-2.349q-.745 0-1.351-.383-.6-.388-.954-1.138-.35-.755-.35-1.85 0-1.125.363-1.87.361-.75.963-1.12.605-.375 1.325-.376.55 0 .916.188.37.183.597.46.23.272.349.537h.056v-3.281h1.811V36h-1.79v-1.048h-.077a2.3 2.3 0 0 1-.362.54 1.8 1.8 0 0 1-.601.44q-.366.174-.895.174m.576-1.444q.438 0 .741-.239a1.5 1.5 0 0 0 .469-.677q.166-.435.166-1.019t-.162-1.014a1.45 1.45 0 0 0-.469-.665 1.2 1.2 0 0 0-.745-.234q-.448 0-.755.243a1.5 1.5 0 0 0-.464.673q-.158.431-.158.997 0 .572.158 1.01.162.435.464.682.307.243.755.243m6.508 1.462a2.7 2.7 0 0 1-1.117-.218 1.8 1.8 0 0 1-.775-.652q-.282-.434-.282-1.082 0-.547.201-.916.2-.371.545-.597t.784-.34q.444-.117.929-.163.571-.06.921-.11.35-.056.507-.162a.36.36 0 0 0 .157-.316v-.025q0-.406-.255-.627-.251-.222-.716-.221-.49 0-.78.217a1 1 0 0 0-.383.537l-1.679-.137q.127-.596.502-1.03.375-.44.968-.674.596-.24 1.38-.239.546 0 1.044.128.504.128.891.396.392.27.618.69t.226 1.002V36h-1.722v-.908h-.051a1.9 1.9 0 0 1-.422.541 2 2 0 0 1-.635.363 2.6 2.6 0 0 1-.856.128m.52-1.253q.4 0 .707-.158.307-.162.482-.435.174-.272.174-.617v-.695a1 1 0 0 1-.234.102 4 4 0 0 1-.328.081q-.183.034-.367.064l-.332.047a2.3 2.3 0 0 0-.558.15.9.9 0 0 0-.371.276.68.68 0 0 0-.132.426q0 .37.268.567.273.192.691.192m8.056-5.417v1.364h-3.942v-1.364zm-3.047-1.568h1.815v6.103a.8.8 0 0 0 .077.392q.076.135.213.191a.9.9 0 0 0 .324.056q.127 0 .256-.022l.196-.038.285 1.351a5 5 0 0 1-.383.098q-.248.06-.601.072-.657.026-1.151-.174a1.6 1.6 0 0 1-.763-.622q-.272-.423-.268-1.066zm6.096 8.238a2.7 2.7 0 0 1-1.117-.218 1.8 1.8 0 0 1-.775-.652q-.282-.434-.282-1.082 0-.547.201-.916.2-.371.545-.597t.784-.34q.444-.117.929-.163.571-.06.921-.11.35-.056.507-.162a.36.36 0 0 0 .157-.316v-.025q0-.406-.255-.627-.251-.222-.716-.221-.49 0-.78.217a1 1 0 0 0-.383.537l-1.679-.137q.127-.596.502-1.03.375-.44.968-.674.596-.24 1.38-.239.546 0 1.044.128.504.128.891.396.392.27.618.69t.226 1.002V36h-1.722v-.908h-.051a1.9 1.9 0 0 1-.422.541 2 2 0 0 1-.635.363 2.6 2.6 0 0 1-.856.128m.52-1.253q.4 0 .707-.158.307-.162.482-.435.174-.272.174-.617v-.695a1 1 0 0 1-.234.102 4 4 0 0 1-.328.081q-.183.034-.367.064l-.332.047a2.3 2.3 0 0 0-.558.15.9.9 0 0 0-.371.276.68.68 0 0 0-.132.426q0 .37.268.567.273.192.691.192M35.426 58.794v-1.521h7.168v1.521h-2.672V66h-1.824v-7.206zM43.06 66v-6.545h1.76v1.142h.069q.18-.61.6-.92a1.58 1.58 0 0 1 .972-.316 3 3 0 0 1 .571.064v1.61a2.4 2.4 0 0 0-.354-.068q-.225-.03-.413-.03-.4 0-.716.175a1.3 1.3 0 0 0-.494.477q-.18.307-.18.708V66zm6.59.124q-.627 0-1.117-.218a1.8 1.8 0 0 1-.776-.652q-.28-.435-.28-1.082 0-.546.2-.916.2-.371.545-.597t.784-.34q.443-.117.929-.163.571-.06.92-.11.35-.056.508-.163a.36.36 0 0 0 .157-.315v-.025q0-.406-.255-.627-.252-.22-.716-.221-.49 0-.78.217a1 1 0 0 0-.384.537l-1.679-.136q.128-.597.503-1.032.376-.438.967-.673.597-.24 1.381-.239.546 0 1.044.128.503.128.89.397.393.268.619.69.225.417.226 1.001V66h-1.722v-.908h-.051a1.9 1.9 0 0 1-.422.541 2 2 0 0 1-.635.363 2.6 2.6 0 0 1-.856.128m.52-1.253q.4 0 .707-.158.306-.162.481-.435a1.1 1.1 0 0 0 .175-.618v-.694a1 1 0 0 1-.234.102 4 4 0 0 1-.328.081q-.184.034-.367.064l-.332.047q-.32.046-.559.15a.9.9 0 0 0-.37.276.68.68 0 0 0-.132.426q0 .37.268.567.273.192.69.192m8.094-5.416v1.363h-4.04v-1.363zM55.149 66v-7.019q0-.71.277-1.18a1.8 1.8 0 0 1 .767-.703 2.5 2.5 0 0 1 1.104-.234q.417-.001.762.064.35.063.52.115l-.324 1.363a2 2 0 0 0-.264-.064 1.7 1.7 0 0 0-.315-.03q-.4 0-.559.188-.157.183-.157.516V66zm7.744-6.545v1.363h-4.04v-1.363zM59.778 66v-7.019q0-.71.277-1.18a1.8 1.8 0 0 1 .767-.703 2.5 2.5 0 0 1 1.103-.234q.418-.001.763.064.35.063.52.115l-.324 1.363a2 2 0 0 0-.264-.064 1.7 1.7 0 0 0-.315-.03q-.4 0-.559.188-.157.183-.157.516V66zm4.224 0v-6.545h1.815V66zm.912-7.39a1 1 0 0 1-.695-.268.87.87 0 0 1-.285-.652q0-.375.285-.643a.98.98 0 0 1 .695-.273q.405 0 .69.273.29.268.29.643 0 .38-.29.652a.97.97 0 0 1-.69.269m5.315 7.518q-1.006 0-1.73-.426a2.9 2.9 0 0 1-1.108-1.194q-.384-.762-.384-1.755 0-1.006.388-1.764a2.9 2.9 0 0 1 1.112-1.19q.72-.43 1.713-.43.856 0 1.5.311.645.312 1.019.874t.413 1.321h-1.713q-.072-.49-.384-.788-.306-.303-.805-.303-.422 0-.737.23-.312.225-.486.66-.175.435-.175 1.053 0 .627.17 1.066.175.438.49.669.316.23.738.23.311 0 .558-.128.252-.128.414-.37a1.4 1.4 0 0 0 .217-.593h1.713q-.042.75-.41 1.32a2.47 2.47 0 0 1-1 .887q-.64.32-1.513.32M48.75 96h-2.693v-8.727h2.812q1.27 0 2.174.524a3.43 3.43 0 0 1 1.385 1.496q.48.971.481 2.326 0 1.365-.486 2.348a3.46 3.46 0 0 1-1.415 1.509Q50.08 96 48.75 96m-1.636-.937h1.568q1.082 0 1.794-.418a2.57 2.57 0 0 0 1.06-1.189q.35-.771.35-1.837 0-1.056-.345-1.82a2.55 2.55 0 0 0-1.031-1.175q-.686-.414-1.709-.414h-1.687zm7.568.937v-8.727h1.057v7.79h4.057V96zm6.75 0v-8.727h2.949q1.026 0 1.679.37.656.367.971.993.316.627.316 1.398 0 .772-.316 1.402-.31.63-.963 1.006-.651.37-1.67.37h-2.114v-.937h2.08q.703 0 1.129-.243.426-.242.618-.656a2.2 2.2 0 0 0 .196-.942q0-.525-.196-.937a1.4 1.4 0 0 0-.622-.648q-.43-.24-1.142-.239h-1.858V96zm10.992 0v-8.727h2.949q1.026 0 1.679.37.656.367.971.993.315.627.316 1.398 0 .772-.316 1.402-.31.63-.963 1.006-.651.37-1.67.37h-2.114v-.937h2.08q.703 0 1.13-.243.425-.242.617-.656a2.2 2.2 0 0 0 .196-.942q0-.525-.196-.937a1.4 1.4 0 0 0-.622-.648q-.43-.24-1.142-.239H73.48V96zm7.48 0v-6.546h.972v.99h.069q.179-.487.647-.79a1.9 1.9 0 0 1 1.057-.302q.11 0 .277.004.166.005.252.013v1.023a3 3 0 0 0-.235-.038q-.18-.03-.38-.03-.476 0-.851.2-.372.196-.588.546a1.47 1.47 0 0 0-.213.788V96zm6.926.136q-.887 0-1.556-.421a2.87 2.87 0 0 1-1.04-1.18q-.37-.76-.37-1.774 0-1.022.37-1.785a2.86 2.86 0 0 1 1.04-1.185q.67-.422 1.555-.422.888 0 1.552.422.668.422 1.04 1.185.375.762.374 1.785 0 1.015-.374 1.773-.371.76-1.04 1.18-.665.422-1.552.422m0-.903q.672 0 1.108-.345.435-.345.643-.908.21-.562.209-1.219 0-.656-.209-1.223a2.06 2.06 0 0 0-.644-.916q-.435-.35-1.108-.35t-1.107.35a2.06 2.06 0 0 0-.644.916 3.5 3.5 0 0 0-.209 1.223q0 .657.21 1.22.207.561.643.907.435.345 1.108.345m7.415-5.779v.853h-3.528v-.853zM91.774 96v-7.449q0-.562.264-.937t.686-.563.89-.187q.372 0 .606.06t.35.11l-.29.87a5 5 0 0 0-.214-.064 1.3 1.3 0 0 0-.349-.039q-.499 0-.72.252-.218.25-.218.737V96zm3.88 0v-6.546h1.007V96zm.512-7.636a.72.72 0 0 1-.507-.2.64.64 0 0 1-.209-.482q0-.281.21-.482a.72.72 0 0 1 .506-.2.7.7 0 0 1 .503.2.64.64 0 0 1 .213.482.64.64 0 0 1-.213.481.7.7 0 0 1-.503.2m3.342-1.091V96h-1.005v-8.727zm4.586 8.863q-.945 0-1.632-.417a2.8 2.8 0 0 1-1.052-1.176q-.367-.759-.367-1.765t.367-1.772a2.9 2.9 0 0 1 1.031-1.202q.664-.435 1.551-.435a3.1 3.1 0 0 1 1.01.17 2.5 2.5 0 0 1 .908.555q.41.38.652 1.005.243.627.243 1.543v.426h-5.046v-.87h4.023q0-.552-.222-.988a1.67 1.67 0 0 0-.622-.686 1.74 1.74 0 0 0-.946-.251q-.6 0-1.04.298a2 2 0 0 0-.669.767 2.26 2.26 0 0 0-.234 1.014v.58q0 .741.256 1.257.26.51.72.78a2.1 2.1 0 0 0 1.069.264q.397 0 .716-.11a1.5 1.5 0 0 0 .559-.342q.234-.23.362-.57l.971.272q-.153.495-.515.87a2.5 2.5 0 0 1-.895.579 3.3 3.3 0 0 1-1.198.204m55.02-8.862V96h-1.057v-8.727zm2.988 4.79V96h-1.006v-6.546h.972v1.023h.085q.23-.499.699-.8.469-.308 1.21-.308.665 0 1.163.273.499.269.776.818.277.546.277 1.38V96h-1.006v-4.09q0-.773-.4-1.203-.4-.435-1.1-.434-.482 0-.86.209-.375.209-.593.609t-.217.972"/><path stroke="#C4C4C4" d="M35 71.5h487"/><path fill="#222" d="M37.604 177.273V186h-1.846v-8.727zm3.896 8.834q-.747 0-1.351-.384-.6-.388-.955-1.138-.35-.754-.35-1.849 0-1.125.363-1.871.363-.75.963-1.121.605-.375 1.325-.375.55 0 .917.188.37.183.596.46.23.273.35.537h.055v-3.281h1.811V186h-1.79v-1.048h-.076a2.3 2.3 0 0 1-.363.541 1.8 1.8 0 0 1-.6.439q-.367.175-.895.175m.575-1.445q.439 0 .741-.239a1.5 1.5 0 0 0 .47-.677q.165-.435.165-1.019t-.162-1.014a1.46 1.46 0 0 0-.468-.665 1.2 1.2 0 0 0-.746-.234q-.447 0-.754.243t-.465.673a2.9 2.9 0 0 0-.157.997q0 .572.157 1.01.162.435.465.682.306.243.754.243m7.625 1.466q-1.01 0-1.74-.409a2.8 2.8 0 0 1-1.116-1.168q-.391-.759-.392-1.794 0-1.01.392-1.773.393-.762 1.104-1.189.716-.426 1.68-.426.646 0 1.205.209.563.204.98.618.422.414.656 1.04.235.622.235 1.457v.499h-5.527v-1.125h3.818q0-.393-.17-.695a1.2 1.2 0 0 0-.473-.473 1.35 1.35 0 0 0-.695-.175q-.414 0-.733.192-.315.188-.494.507-.179.316-.184.703v1.07q0 .486.18.84.182.353.515.545t.788.192q.303 0 .554-.085t.43-.256q.18-.17.273-.418l1.68.111q-.128.605-.525 1.057-.392.447-1.014.699-.618.246-1.427.247m6.004-3.912V186h-1.815v-6.545h1.73v1.154h.076a1.83 1.83 0 0 1 .729-.903q.51-.337 1.24-.337.682 0 1.189.299.507.298.788.852.282.55.282 1.312V186h-1.816v-3.844q.004-.6-.307-.937-.31-.341-.856-.341-.366 0-.648.158-.277.157-.434.46a1.6 1.6 0 0 0-.158.72m9.13-2.761v1.363h-3.94v-1.363zm-3.046-1.569h1.815v6.103a.8.8 0 0 0 .077.392.42.42 0 0 0 .213.191.9.9 0 0 0 .324.056q.127 0 .256-.021l.196-.039.285 1.351q-.136.042-.383.098-.247.06-.601.072-.657.026-1.15-.174a1.6 1.6 0 0 1-.764-.622q-.271-.423-.268-1.066zm4.23 8.114v-6.545h1.815V186zm.911-7.389a1 1 0 0 1-.694-.269.87.87 0 0 1-.286-.652q0-.375.286-.643a.98.98 0 0 1 .694-.273q.405 0 .69.273.29.268.29.643a.86.86 0 0 1-.29.652.97.97 0 0 1-.69.269m5.84.844v1.363h-3.942v-1.363zm-3.047-1.569h1.815v6.103a.8.8 0 0 0 .077.392.42.42 0 0 0 .213.191.9.9 0 0 0 .324.056q.127 0 .255-.021l.196-.039.286 1.351q-.136.042-.384.098-.248.06-.6.072-.657.026-1.151-.174a1.6 1.6 0 0 1-.763-.622q-.273-.423-.268-1.066zm5.35 10.569q-.345 0-.648-.056a2.4 2.4 0 0 1-.494-.132l.409-1.355q.32.098.575.106a.73.73 0 0 0 .448-.119q.191-.127.31-.435l.107-.276-2.348-6.733h1.91l1.354 4.806h.069l1.367-4.806h1.922l-2.544 7.252a3 3 0 0 1-.498.921q-.311.396-.789.609-.477.218-1.15.218"/><path stroke="#C4C4C4" d="M35 191.5h487"/><path fill="#222" d="M37.263 266h-1.977l3.012-8.727h2.378L43.685 266h-1.978l-2.186-6.733h-.068zm-.124-3.43h4.67v1.44h-4.67zm10.215 3.558q-1.006 0-1.73-.426a2.9 2.9 0 0 1-1.108-1.193q-.384-.763-.384-1.756 0-1.007.388-1.764a2.9 2.9 0 0 1 1.112-1.189q.72-.43 1.713-.431.856 0 1.5.311.645.312 1.019.874.375.562.413 1.321h-1.713q-.072-.49-.384-.788-.307-.303-.805-.303a1.22 1.22 0 0 0-.737.23q-.312.226-.486.661-.175.434-.175 1.052 0 .627.17 1.066.175.438.49.669.317.23.738.23a1.2 1.2 0 0 0 .558-.128q.252-.128.414-.371a1.4 1.4 0 0 0 .217-.592h1.713q-.042.75-.41 1.321a2.47 2.47 0 0 1-1 .886q-.64.32-1.513.32m7.567-6.673v1.363h-3.942v-1.363zm-3.047-1.569h1.815v6.103q0 .25.077.392a.42.42 0 0 0 .213.191.9.9 0 0 0 .324.056q.127 0 .256-.021l.196-.039.285 1.351q-.136.042-.383.098-.247.06-.601.072-.657.026-1.15-.174a1.6 1.6 0 0 1-.764-.622q-.271-.423-.268-1.066zm4.23 8.114v-6.545h1.815V266zm.911-7.389a1 1 0 0 1-.694-.269.87.87 0 0 1-.286-.652q0-.375.286-.643a.98.98 0 0 1 .694-.273q.405 0 .69.273.29.268.29.643a.86.86 0 0 1-.29.652.97.97 0 0 1-.69.269m5.315 7.517q-.993 0-1.717-.422a2.9 2.9 0 0 1-1.112-1.185q-.392-.762-.392-1.768 0-1.014.392-1.773a2.86 2.86 0 0 1 1.112-1.185q.724-.426 1.717-.426t1.713.426q.724.423 1.117 1.185.392.759.392 1.773 0 1.006-.392 1.768a2.9 2.9 0 0 1-1.117 1.185q-.72.422-1.713.422m.009-1.406q.45 0 .754-.256.303-.26.456-.707a3 3 0 0 0 .158-1.019q0-.571-.158-1.018a1.6 1.6 0 0 0-.456-.708 1.12 1.12 0 0 0-.754-.26q-.456 0-.767.26-.307.26-.465.708a3.1 3.1 0 0 0-.153 1.018q0 .571.153 1.019.157.447.465.707.31.255.767.256m6.209-2.506V266h-1.816v-6.545h1.73v1.154h.077q.218-.57.729-.903.51-.337 1.24-.337.68 0 1.189.299.507.298.788.852.282.55.281 1.312V266h-1.815v-3.844q.004-.6-.307-.937-.311-.341-.856-.341-.367 0-.648.158-.278.157-.435.46a1.6 1.6 0 0 0-.157.72"/><path stroke="#C4C4C4" d="M35 271.5h487"/><rect width="99" height="21" x="35.5" y="80.5" stroke="#000" stroke-linejoin="round" rx="3.5"/><rect width="140" height="22" x="234" y="85" fill="#EDECEC" rx="4"/><rect width="256" height="32" x="223.5" y="80.5" stroke="#000" stroke-linejoin="round" rx="3.5"/><rect width="63" height="21" x="147.5" y="80.5" stroke="#000" stroke-linejoin="round" rx="3.5"/><path fill="#D9D9D9" d="m123.5 95-3.897-6.75h7.794z"/><path fill="#222" d="M46.057 296v-8.727h3.051q.912 0 1.504.315.593.31.882.84.29.524.29 1.163 0 .563-.2.929-.196.366-.52.579a2.4 2.4 0 0 1-.695.316v.085q.4.026.806.281.404.256.677.733.273.478.273 1.168 0 .656-.298 1.18-.3.525-.942.831-.643.307-1.675.307zm1.057-.938h2.096q1.035 0 1.47-.4.44-.405.44-.98 0-.443-.226-.818a1.63 1.63 0 0 0-.644-.605q-.417-.231-.989-.231h-2.147zm0-3.954h1.96q.477 0 .86-.188.39-.187.614-.528.23-.34.23-.801 0-.576-.4-.976-.4-.405-1.27-.405h-1.994zm7.617-3.835V296h-1.006v-8.727zm4.5 8.863q-.885 0-1.555-.422a2.86 2.86 0 0 1-1.04-1.18q-.37-.759-.37-1.773 0-1.022.37-1.785.375-.764 1.04-1.185.67-.422 1.556-.422t1.551.422q.67.421 1.04 1.185.375.763.375 1.785 0 1.014-.375 1.773a2.8 2.8 0 0 1-1.04 1.18q-.665.423-1.551.422m0-.903q.675 0 1.109-.345.435-.345.643-.908.21-.562.21-1.219 0-.656-.21-1.223a2.07 2.07 0 0 0-.643-.916q-.435-.35-1.108-.349-.673 0-1.108.349-.434.35-.644.916-.208.567-.208 1.223t.209 1.219q.208.563.643.908t1.108.345m7.161.903q-.92 0-1.585-.434a2.83 2.83 0 0 1-1.023-1.198q-.358-.762-.358-1.743 0-.996.367-1.76.37-.767 1.03-1.197.666-.435 1.552-.435.69 0 1.244.256.555.255.908.716.354.46.439 1.074H67.96a1.56 1.56 0 0 0-.511-.793q-.392-.35-1.057-.349-.588 0-1.031.307a2 2 0 0 0-.686.856q-.243.55-.243 1.291 0 .759.239 1.321.242.562.681.874.443.31 1.04.311.392 0 .712-.136.32-.137.54-.392.223-.256.316-.614h1.006a2.3 2.3 0 0 1-.422 1.044 2.36 2.36 0 0 1-.882.733q-.546.268-1.27.268m4.982-2.522-.017-1.245h.204l2.864-2.914h1.244l-3.051 3.085h-.085zM70.436 296v-8.727h1.006V296zm4.16 0-2.558-3.239.716-.699 3.12 3.938z"/><rect width="106" height="21" x="35.5" y="280.5" stroke="#000" stroke-linejoin="round" rx="3.5"/><path fill="#222" d="M245.08 94h-1.057a2.2 2.2 0 0 0-.891-1.38 2.4 2.4 0 0 0-.729-.359 3 3 0 0 0-.835-.119q-.792 0-1.436.4-.64.401-1.018 1.181-.375.78-.375 1.913t.375 1.914q.379.78 1.018 1.18.644.4 1.436.4.435 0 .835-.119.4-.12.729-.353a2.3 2.3 0 0 0 .563-.584q.234-.35.328-.801h1.057q-.12.669-.435 1.197t-.784.9q-.47.366-1.053.558a4 4 0 0 1-1.24.191q-1.116 0-1.986-.545-.868-.545-1.368-1.551-.498-1.005-.498-2.387 0-1.38.498-2.386.5-1.005 1.368-1.551.87-.546 1.986-.546.661 0 1.24.192.584.192 1.053.563.469.366.784.895.315.523.435 1.197m5.696 3.324v-3.87h1.006V100h-1.006v-1.108h-.068a2.15 2.15 0 0 1-.716.848q-.486.345-1.227.345-.614 0-1.091-.268a1.87 1.87 0 0 1-.75-.818q-.273-.55-.273-1.385v-4.16h1.006v4.092q0 .715.4 1.141.405.427 1.031.427.376 0 .763-.192.392-.192.656-.588.269-.396.269-1.01m7.484-2.403-.903.255a1.7 1.7 0 0 0-.252-.439 1.2 1.2 0 0 0-.443-.358q-.282-.14-.72-.14-.601 0-1.002.277-.396.272-.396.694 0 .375.273.593.273.216.852.362l.972.238q.877.214 1.308.652.43.435.43 1.121 0 .562-.324 1.006a2.15 2.15 0 0 1-.894.699q-.576.255-1.339.255-1.001 0-1.657-.434-.657-.435-.831-1.27l.954-.239q.137.53.516.793.383.264 1.001.264.703 0 1.117-.298.417-.303.417-.725a.76.76 0 0 0-.238-.57q-.239-.235-.733-.35l-1.091-.256q-.899-.213-1.321-.66-.418-.453-.418-1.13 0-.554.311-.98.316-.426.857-.669a3 3 0 0 1 1.236-.243q.971 0 1.525.427.558.425.793 1.124m4.48-1.467v.853h-3.392v-.853zm-2.404-1.568h1.006v6.239q0 .426.124.64a.64.64 0 0 0 .323.28q.201.069.422.069.166 0 .273-.017l.17-.034.205.903a2.1 2.1 0 0 1-.75.12q-.426-.001-.835-.184a1.66 1.66 0 0 1-.674-.558q-.264-.376-.264-.946zm6.505 8.25q-.886 0-1.555-.421a2.87 2.87 0 0 1-1.04-1.18q-.37-.76-.371-1.774 0-1.022.371-1.785.375-.764 1.04-1.185.669-.422 1.555-.422t1.551.422a2.8 2.8 0 0 1 1.04 1.185q.375.762.375 1.785 0 1.015-.375 1.773-.37.76-1.04 1.18-.665.422-1.551.422m0-.903q.673 0 1.108-.345t.644-.908a3.5 3.5 0 0 0 .208-1.219q0-.656-.208-1.223a2.07 2.07 0 0 0-.644-.916q-.435-.35-1.108-.35t-1.108.35a2.06 2.06 0 0 0-.643.916 3.5 3.5 0 0 0-.209 1.223q0 .657.209 1.22.209.561.643.907.435.345 1.108.345m4.501.767v-6.546h.972v1.023h.085q.205-.524.661-.814.456-.294 1.095-.294.648 0 1.078.294.435.29.678.814h.068q.251-.507.754-.805.502-.303 1.206-.303.878 0 1.436.55.558.546.558 1.7V100h-1.005v-4.38q0-.726-.397-1.036a1.47 1.47 0 0 0-.933-.311q-.69 0-1.07.417-.379.413-.379 1.049V100h-1.023v-4.483q0-.558-.362-.9-.361-.345-.933-.344-.392 0-.733.209-.336.208-.545.58a1.7 1.7 0 0 0-.205.847V100zm13.174.136q-.945 0-1.632-.417a2.8 2.8 0 0 1-1.052-1.176q-.367-.759-.367-1.765t.367-1.772a2.9 2.9 0 0 1 1.031-1.202q.664-.435 1.551-.435a3.1 3.1 0 0 1 1.01.17q.498.172.908.555.409.38.652 1.005.243.627.243 1.543v.426h-5.046v-.87h4.023q0-.552-.222-.988a1.67 1.67 0 0 0-.622-.686 1.74 1.74 0 0 0-.946-.251q-.601 0-1.04.298a2 2 0 0 0-.669.767 2.26 2.26 0 0 0-.234 1.014v.58q0 .741.256 1.257.26.51.72.78a2.1 2.1 0 0 0 1.069.264q.397 0 .716-.11.324-.116.558-.342a1.55 1.55 0 0 0 .363-.57l.971.272q-.153.495-.515.87a2.5 2.5 0 0 1-.895.579 3.3 3.3 0 0 1-1.198.204m4.24-.136v-6.546h.972v.99h.068q.178-.487.648-.79a1.9 1.9 0 0 1 1.057-.302q.11 0 .277.004.165.005.251.013v1.023a3 3 0 0 0-.234-.038q-.18-.03-.38-.03a1.8 1.8 0 0 0-.852.2q-.37.196-.588.546a1.47 1.47 0 0 0-.213.788V100zm8.335 0h-1.108l3.204-8.727h1.091l3.205 8.727h-1.108l-2.608-7.347h-.068zm.409-3.41h4.466v.938H297.5zm9.865 3.546q-.92 0-1.586-.434a2.83 2.83 0 0 1-1.022-1.198q-.358-.763-.358-1.743 0-.996.366-1.76.37-.766 1.032-1.197.664-.435 1.551-.435.69 0 1.244.256t.908.716.439 1.074h-1.006a1.56 1.56 0 0 0-.511-.793q-.393-.35-1.057-.35a1.77 1.77 0 0 0-1.032.307 2 2 0 0 0-.686.857q-.243.55-.243 1.291 0 .759.239 1.321.243.562.682.874.443.31 1.04.311.392 0 .711-.136.32-.137.542-.392.22-.256.315-.614h1.006a2.34 2.34 0 0 1-.422 1.044 2.36 2.36 0 0 1-.882.733q-.546.268-1.27.268m6.703 0q-.92 0-1.585-.434a2.83 2.83 0 0 1-1.023-1.198q-.358-.763-.358-1.743 0-.996.366-1.76a2.9 2.9 0 0 1 1.032-1.197q.664-.435 1.551-.435.69 0 1.244.256t.908.716.439 1.074h-1.006a1.56 1.56 0 0 0-.511-.793q-.393-.35-1.057-.35-.588 0-1.031.307a2 2 0 0 0-.687.857q-.242.55-.242 1.291 0 .759.238 1.321.243.562.682.874.443.31 1.04.311.392 0 .711-.136.32-.137.542-.392.221-.256.315-.614h1.006a2.34 2.34 0 0 1-.422 1.044 2.36 2.36 0 0 1-.882.733q-.546.268-1.27.268m6.703 0q-.886 0-1.555-.421a2.86 2.86 0 0 1-1.04-1.18q-.37-.76-.371-1.774 0-1.022.371-1.785.375-.764 1.04-1.185.669-.422 1.555-.422.887 0 1.551.422a2.8 2.8 0 0 1 1.04 1.185q.375.762.375 1.785 0 1.015-.375 1.773-.37.76-1.04 1.18-.664.422-1.551.422m0-.903q.673 0 1.108-.345t.643-.908q.21-.562.209-1.219 0-.656-.209-1.223a2.06 2.06 0 0 0-.643-.916q-.435-.35-1.108-.35t-1.108.35-.643.916q-.21.567-.209 1.223 0 .657.209 1.22.208.561.643.907.435.345 1.108.345m8.626-1.91v-3.868h1.006V100h-1.006v-1.108h-.068a2.15 2.15 0 0 1-.716.848q-.486.345-1.227.345-.614 0-1.091-.268a1.9 1.9 0 0 1-.75-.818q-.273-.55-.273-1.385v-4.16h1.006v4.092q0 .715.4 1.141.405.427 1.032.427.375 0 .762-.192.392-.192.657-.588.268-.396.268-1.01m3.853-1.26V100h-1.005v-6.546h.971v1.023h.085q.231-.499.699-.8.469-.308 1.211-.308.665 0 1.163.273.498.269.776.818.276.546.276 1.38V100h-1.005v-4.09q0-.773-.401-1.203-.4-.435-1.099-.434-.482 0-.861.209-.375.209-.592.609-.218.4-.218.972m8.861-2.609v.853h-3.392v-.853zm-2.404-1.568h1.006v6.239q0 .426.124.64.127.208.324.28.2.069.421.069.166 0 .273-.017l.171-.034.204.903a2.1 2.1 0 0 1-.75.12q-.426-.001-.835-.184a1.66 1.66 0 0 1-.673-.558q-.265-.376-.265-.946zm8.436 3.035-.904.255a1.7 1.7 0 0 0-.251-.439 1.2 1.2 0 0 0-.443-.358q-.282-.14-.72-.14-.602 0-1.002.277-.396.272-.396.694 0 .375.273.593.272.216.852.362l.971.238q.879.214 1.309.652.43.435.43 1.121 0 .562-.324 1.006a2.15 2.15 0 0 1-.895.699q-.574.255-1.338.255-1.001 0-1.657-.434-.657-.435-.831-1.27l.954-.239q.137.53.516.793.383.264 1.001.264.703 0 1.117-.298.417-.303.417-.725a.76.76 0 0 0-.238-.57q-.239-.235-.733-.35l-1.091-.256q-.9-.213-1.321-.66-.418-.453-.418-1.13 0-.554.311-.98.315-.426.857-.669a3 3 0 0 1 1.236-.243q.971 0 1.525.427.558.425.793 1.124M48.75 146h-2.693v-8.727h2.812q1.27 0 2.174.524a3.43 3.43 0 0 1 1.385 1.496q.48.971.481 2.326 0 1.364-.486 2.348a3.46 3.46 0 0 1-1.415 1.509q-.929.524-2.258.524m-1.636-.938h1.568q1.082 0 1.794-.417a2.58 2.58 0 0 0 1.06-1.189q.35-.77.35-1.837 0-1.056-.345-1.819a2.54 2.54 0 0 0-1.031-1.176q-.686-.414-1.709-.414h-1.687zm10.09 1.074q-.886 0-1.555-.422a2.86 2.86 0 0 1-1.04-1.18q-.37-.759-.37-1.773 0-1.022.37-1.785.375-.763 1.04-1.185.67-.422 1.556-.422t1.55.422q.67.421 1.04 1.185.375.763.375 1.785 0 1.014-.375 1.773a2.8 2.8 0 0 1-1.04 1.18q-.665.423-1.55.422m0-.903q.675 0 1.108-.345.435-.345.644-.908.21-.562.209-1.219 0-.656-.209-1.223a2.07 2.07 0 0 0-.644-.916q-.435-.35-1.107-.349-.675 0-1.108.349-.435.35-.644.916t-.209 1.223.21 1.219q.207.563.643.908.435.345 1.108.345m4.502.767v-6.545h.971v1.022h.085a1.65 1.65 0 0 1 .66-.814q.457-.294 1.096-.294.648 0 1.078.294.435.29.678.814h.068q.252-.507.754-.805.502-.303 1.206-.303.878 0 1.436.55.558.546.558 1.7V146h-1.005v-4.381q0-.725-.397-1.035a1.46 1.46 0 0 0-.933-.311q-.69 0-1.07.417-.379.413-.379 1.049V146H65.49v-4.483q0-.558-.362-.899-.363-.345-.934-.345-.391 0-.733.209a1.6 1.6 0 0 0-.545.579 1.7 1.7 0 0 0-.205.848V146zm12.355.153q-.62 0-1.129-.234a1.94 1.94 0 0 1-.805-.686q-.299-.452-.298-1.091 0-.562.221-.912.222-.353.592-.554a3.1 3.1 0 0 1 .819-.298 10 10 0 0 1 .907-.162q.596-.077.968-.115.374-.043.545-.141.175-.098.175-.341v-.034q0-.63-.345-.98-.342-.35-1.036-.349-.72 0-1.13.315-.408.316-.575.673l-.954-.341q.255-.596.682-.929.431-.336.937-.468a4 4 0 0 1 1.006-.137 4 4 0 0 1 .724.077q.414.072.797.303.388.23.644.694.255.465.255 1.245V146h-1.005v-.886h-.051a1.8 1.8 0 0 1-.341.456q-.24.243-.635.413-.396.17-.968.17m.154-.903q.597 0 1.005-.234a1.6 1.6 0 0 0 .836-1.385v-.921q-.065.077-.281.141a5 5 0 0 1-.495.106 21 21 0 0 1-.963.128q-.392.051-.733.166a1.26 1.26 0 0 0-.545.337q-.205.221-.205.605 0 .525.388.793.392.264.993.264m4.682.75v-6.545h1.006V146zm.511-7.636a.7.7 0 0 1-.507-.201.64.64 0 0 1-.209-.481q0-.282.21-.482a.72.72 0 0 1 .506-.2q.294 0 .503.2a.64.64 0 0 1 .213.482.64.64 0 0 1-.213.481.7.7 0 0 1-.503.201m3.342 3.698V146h-1.005v-6.545h.971v1.022h.086q.23-.498.698-.801.47-.307 1.21-.307.666 0 1.164.273.498.269.776.818.276.546.276 1.381V146h-1.005v-4.091q0-.771-.4-1.202-.401-.434-1.1-.434-.481 0-.861.209-.375.209-.592.609-.218.4-.218.971m76.362-4.789V146h-1.057v-8.727zm2.988 4.789V146h-1.006v-6.545h.972v1.022h.085q.23-.498.699-.801.469-.307 1.21-.307.665 0 1.163.273.499.269.776.818.277.546.277 1.381V146h-1.006v-4.091q0-.771-.4-1.202-.4-.434-1.1-.434-.482 0-.86.209-.375.209-.593.609t-.217.971m9.525 3.938v-8.727h1.057v7.789h4.057V146zm6.614 0v-6.545h1.005V146zm.511-7.636a.7.7 0 0 1-.507-.201.64.64 0 0 1-.209-.481q0-.282.209-.482a.72.72 0 0 1 .507-.2q.294 0 .503.2a.64.64 0 0 1 .213.482.64.64 0 0 1-.213.481.7.7 0 0 1-.503.201m6.973 2.556-.904.256a1.7 1.7 0 0 0-.251-.439 1.2 1.2 0 0 0-.443-.358q-.282-.14-.72-.14-.602 0-1.002.277-.396.272-.396.694 0 .375.273.593.272.216.852.362l.971.238q.879.214 1.309.652.43.435.43 1.121 0 .562-.324 1.006a2.15 2.15 0 0 1-.895.699q-.575.255-1.338.255-1.001 0-1.657-.434-.657-.435-.831-1.27l.954-.239q.137.528.516.793.384.264 1.001.264.703 0 1.117-.298.417-.303.417-.725a.76.76 0 0 0-.238-.571q-.239-.234-.733-.349l-1.091-.256q-.9-.213-1.321-.66-.418-.452-.418-1.13 0-.554.311-.98.316-.426.857-.669a3 3 0 0 1 1.236-.243q.971 0 1.525.426.559.427.793 1.125m4.48-1.465v.852h-3.393v-.852zm-2.404-1.569h1.006v6.239q0 .426.123.639a.65.65 0 0 0 .324.281q.2.069.422.069.166 0 .273-.017l.17-.035.205.904a2.2 2.2 0 0 1-.75.119q-.426 0-.835-.183a1.66 1.66 0 0 1-.674-.558q-.264-.376-.264-.946z"/><rect width="99" height="21" x="35.5" y="130.5" stroke="#000" stroke-linejoin="round" rx="3.5"/><rect width="201" height="22" x="234" y="135" fill="#EDECEC" rx="4"/><rect width="256" height="32" x="223.5" y="130.5" stroke="#000" stroke-linejoin="round" rx="3.5"/><rect width="63" height="21" x="147.5" y="130.5" stroke="#000" stroke-linejoin="round" rx="3.5"/><path fill="#D9D9D9" d="m123.5 145-3.897-6.75h7.794zm78 0-3.897-6.75h7.794zm0-50-3.897-6.75h7.794z"/><path fill="#222" d="M51.784 207.273h1.057v5.778q0 .895-.422 1.598a2.95 2.95 0 0 1-1.18 1.104q-.763.4-1.79.4t-1.79-.4a3 3 0 0 1-1.185-1.104 3.07 3.07 0 0 1-.417-1.598v-5.778h1.057v5.693q0 .639.28 1.138.282.494.802.78.525.28 1.253.281.728 0 1.253-.281.525-.287.8-.78.282-.5.282-1.138zm7.667 3.647-.903.256a1.7 1.7 0 0 0-.252-.439 1.2 1.2 0 0 0-.443-.358q-.28-.14-.72-.14-.6 0-1.001.277-.397.272-.397.694 0 .375.273.593.273.216.852.362l.972.238q.878.214 1.308.652.43.435.43 1.121 0 .562-.323 1.006a2.16 2.16 0 0 1-.895.699q-.576.255-1.338.255-1.001 0-1.658-.434-.656-.435-.83-1.27l.954-.239q.136.529.515.793.384.264 1.002.264.703 0 1.116-.298.418-.303.418-.725a.76.76 0 0 0-.239-.571q-.238-.234-.733-.349l-1.09-.256q-.9-.213-1.322-.66-.417-.452-.417-1.13 0-.554.31-.98a2.1 2.1 0 0 1 .857-.669 3 3 0 0 1 1.236-.243q.972 0 1.526.426.558.428.792 1.125m4.378 5.216q-.946 0-1.632-.417a2.8 2.8 0 0 1-1.053-1.176q-.366-.759-.366-1.765t.366-1.772q.37-.772 1.031-1.202.665-.435 1.552-.435.51 0 1.01.171.498.17.907.554.41.38.652 1.005.243.627.243 1.543v.426h-5.045v-.869h4.022q0-.554-.221-.989a1.67 1.67 0 0 0-.622-.686 1.75 1.75 0 0 0-.946-.251q-.602 0-1.04.298-.435.294-.67.767a2.25 2.25 0 0 0-.234 1.014v.58q0 .741.256 1.257.26.512.72.78.46.264 1.07.264.396 0 .716-.111a1.5 1.5 0 0 0 .558-.341q.234-.23.362-.571l.972.273a2.16 2.16 0 0 1-.516.869q-.362.371-.895.58a3.3 3.3 0 0 1-1.197.204m4.24-.136v-6.545h.971v.988h.069q.179-.486.647-.788a1.9 1.9 0 0 1 1.057-.303 11 11 0 0 1 .529.017v1.023a3 3 0 0 0-.235-.038q-.179-.03-.379-.03-.477 0-.852.2a1.47 1.47 0 0 0-.801 1.334V216zm13.942-6a3 3 0 0 0-.37-.771 2.4 2.4 0 0 0-.542-.588 2.3 2.3 0 0 0-.707-.371 2.8 2.8 0 0 0-.87-.128 2.6 2.6 0 0 0-1.41.401q-.635.4-1.01 1.18t-.375 1.913.38 1.914q.378.78 1.026 1.18t1.458.401q.75 0 1.32-.32.576-.324.895-.912.324-.592.324-1.393l.324.068H79.83v-.938h3.324v.938q0 1.078-.46 1.875a3.2 3.2 0 0 1-1.261 1.236q-.802.434-1.841.434-1.16 0-2.037-.545-.874-.546-1.364-1.551-.486-1.006-.486-2.387 0-1.035.277-1.862a4.1 4.1 0 0 1 .793-1.415q.51-.583 1.21-.895a3.75 3.75 0 0 1 1.538-.311q.69 0 1.287.209a3.46 3.46 0 0 1 1.858 1.483q.315.52.435 1.155zm2.816 6v-6.545h.971v.988h.069q.179-.486.647-.788a1.9 1.9 0 0 1 1.057-.303 11 11 0 0 1 .528.017v1.023a3 3 0 0 0-.234-.038q-.18-.03-.38-.03-.476 0-.852.2a1.47 1.47 0 0 0-.801 1.334V216zm6.924.136q-.885 0-1.555-.422a2.86 2.86 0 0 1-1.04-1.18q-.37-.759-.37-1.773 0-1.022.37-1.785.375-.763 1.04-1.185.67-.422 1.555-.422.886 0 1.552.422.668.421 1.04 1.185.374.763.374 1.785 0 1.014-.375 1.773a2.8 2.8 0 0 1-1.04 1.18q-.665.423-1.55.422m0-.903q.675 0 1.108-.345.435-.345.644-.908.209-.562.209-1.219 0-.656-.21-1.223a2.07 2.07 0 0 0-.643-.916q-.435-.35-1.108-.349-.672 0-1.108.349-.435.35-.643.916-.21.567-.209 1.223 0 .657.209 1.219.21.563.644.908t1.107.345m8.626-1.909v-3.869h1.006V216h-1.006v-1.108h-.068a2.15 2.15 0 0 1-.716.848q-.486.345-1.227.345-.614 0-1.09-.268a1.9 1.9 0 0 1-.75-.818q-.274-.55-.273-1.385v-4.159h1.005v4.09q0 .716.4 1.143.405.426 1.032.426.375 0 .763-.192.392-.192.656-.588.268-.396.268-1.01m2.848 5.131v-9h.972v1.039h.119a9 9 0 0 1 .307-.434q.2-.268.571-.478.375-.213 1.014-.213.827 0 1.457.414.631.413.985 1.172t.354 1.789q0 1.04-.354 1.803-.354.759-.98 1.176-.627.414-1.445.413-.63 0-1.01-.208a1.9 1.9 0 0 1-.584-.482 7 7 0 0 1-.315-.452h-.085v3.461zm.989-5.728q0 .742.217 1.309.218.563.635.882.417.315 1.023.315.63 0 1.052-.332.426-.337.64-.904.217-.571.217-1.27 0-.69-.213-1.244a1.9 1.9 0 0 0-.635-.882q-.422-.328-1.061-.328-.614 0-1.031.311-.418.306-.631.861-.213.55-.213 1.282m16.755-5.454V216h-1.022l-4.756-6.852h-.085V216h-1.057v-8.727h1.023l4.772 6.869h.086v-6.869zm3.905 8.88q-.622 0-1.129-.234a1.94 1.94 0 0 1-.806-.686q-.298-.452-.298-1.091 0-.562.222-.912.221-.353.592-.554a3.1 3.1 0 0 1 .818-.298 10 10 0 0 1 .908-.162q.596-.077.967-.115.375-.043.546-.141.174-.098.174-.341v-.034q0-.63-.345-.98-.34-.35-1.035-.349-.721 0-1.13.315-.408.316-.575.673l-.955-.341q.256-.596.682-.929.43-.336.938-.468a4 4 0 0 1 1.005-.137q.316 0 .725.077.413.072.797.303.387.23.643.694.256.465.256 1.245V216h-1.006v-.886h-.051a1.8 1.8 0 0 1-.341.456 2 2 0 0 1-.635.413q-.396.17-.967.17m.153-.903q.597 0 1.006-.234a1.6 1.6 0 0 0 .835-1.385v-.921q-.063.077-.281.141a5 5 0 0 1-.494.106 21 21 0 0 1-.963.128q-.393.052-.733.166a1.26 1.26 0 0 0-.546.337q-.204.221-.204.605 0 .525.387.793.393.264.993.264m4.683.75v-6.545h.971v1.022h.085q.205-.523.661-.814.456-.294 1.095-.294.648 0 1.078.294.435.29.678.814h.068q.251-.507.754-.805.503-.303 1.206-.303.878 0 1.436.55.558.546.558 1.7V216h-1.005v-4.381q0-.725-.397-1.035a1.46 1.46 0 0 0-.933-.311q-.69 0-1.069.417-.38.413-.38 1.049V216h-1.022v-4.483q0-.558-.363-.899-.362-.345-.933-.345-.392 0-.733.209a1.6 1.6 0 0 0-.545.579 1.7 1.7 0 0 0-.205.848V216zm13.174.136q-.946 0-1.633-.417a2.8 2.8 0 0 1-1.052-1.176q-.366-.759-.367-1.765 0-1.005.367-1.772a2.9 2.9 0 0 1 1.031-1.202q.665-.435 1.551-.435.512 0 1.01.171.499.17.908.554.41.38.652 1.005.243.627.243 1.543v.426h-5.046v-.869h4.023q0-.554-.222-.989a1.66 1.66 0 0 0-.622-.686 1.75 1.75 0 0 0-.946-.251q-.6 0-1.04.298a2 2 0 0 0-.669.767 2.25 2.25 0 0 0-.234 1.014v.58q0 .741.256 1.257.26.512.72.78.46.264 1.07.264.396 0 .715-.111a1.5 1.5 0 0 0 .559-.341q.234-.23.362-.571l.971.273a2.16 2.16 0 0 1-.515.869 2.5 2.5 0 0 1-.895.58 3.3 3.3 0 0 1-1.197.204m8.876-5.216-.903.256a1.7 1.7 0 0 0-.252-.439 1.2 1.2 0 0 0-.443-.358q-.282-.14-.72-.14-.602 0-1.002.277-.396.272-.396.694 0 .375.273.593.273.216.852.362l.972.238q.877.214 1.308.652.43.435.43 1.121 0 .562-.324 1.006a2.16 2.16 0 0 1-.894.699q-.576.255-1.339.255-1.001 0-1.657-.434-.657-.435-.831-1.27l.954-.239q.137.529.516.793.383.264 1.001.264.703 0 1.117-.298.417-.303.417-.725a.76.76 0 0 0-.238-.571q-.239-.234-.733-.349l-1.091-.256q-.899-.213-1.321-.66-.418-.452-.418-1.13 0-.554.311-.98.316-.426.857-.669a3 3 0 0 1 1.236-.243q.971 0 1.525.426.559.428.793 1.125m46.353-3.647V216h-1.057v-8.727zm2.988 4.789V216h-1.006v-6.545h.972v1.022h.085q.23-.498.699-.801.469-.307 1.21-.307.665 0 1.163.273.499.269.776.818.277.546.277 1.381V216h-1.006v-4.091q0-.771-.4-1.202-.4-.434-1.1-.434-.482 0-.86.209-.375.209-.593.609t-.217.971"/><rect width="141" height="21" x="35.5" y="200.5" stroke="#000" stroke-linejoin="round" rx="3.5"/><rect width="97" height="22" x="274" y="205" fill="#EDECEC" rx="4"/><rect width="256" height="32" x="263.5" y="200.5" stroke="#000" stroke-linejoin="round" rx="3.5"/><rect width="63" height="21" x="186.5" y="200.5" stroke="#000" stroke-linejoin="round" rx="3.5"/><path fill="#D9D9D9" d="m166.5 215-3.897-6.75h7.794z"/><path fill="#222" d="M285.08 214h-1.057a2.2 2.2 0 0 0-.891-1.381 2.4 2.4 0 0 0-.729-.358 3 3 0 0 0-.835-.119q-.792 0-1.436.401-.64.4-1.018 1.18-.375.78-.375 1.913t.375 1.914q.378.78 1.018 1.18.644.4 1.436.401.435 0 .835-.12a2.4 2.4 0 0 0 .729-.353q.332-.239.563-.584.234-.35.328-.801h1.057q-.12.669-.435 1.197a3.28 3.28 0 0 1-1.837 1.458 4 4 0 0 1-1.24.191q-1.116 0-1.986-.545-.869-.546-1.368-1.551-.498-1.006-.498-2.387 0-1.38.498-2.386.5-1.006 1.368-1.551.87-.546 1.986-.546.661 0 1.24.192.584.192 1.053.563.469.366.784.895.315.523.435 1.197m4.23 6.136q-.886 0-1.555-.422a2.86 2.86 0 0 1-1.04-1.18q-.37-.759-.371-1.773 0-1.022.371-1.785.375-.763 1.04-1.185.669-.422 1.555-.422.887 0 1.551.422.67.421 1.04 1.185.375.763.375 1.785 0 1.014-.375 1.773a2.8 2.8 0 0 1-1.04 1.18q-.664.423-1.551.422m0-.903q.673 0 1.108-.345t.643-.908q.21-.562.209-1.219 0-.656-.209-1.223a2.06 2.06 0 0 0-.643-.916q-.435-.35-1.108-.349-.673 0-1.108.349-.435.35-.643.916-.21.567-.209 1.223 0 .657.209 1.219.208.563.643.908t1.108.345m5.507-3.171V220h-1.006v-6.545h.972v1.022h.085q.23-.498.699-.801.469-.307 1.21-.307.665 0 1.163.273.499.269.776.818.277.546.277 1.381V220h-1.006v-4.091q0-.771-.4-1.202-.4-.434-1.1-.434-.482 0-.861.209-.375.209-.592.609t-.217.971m8.86-2.607v.852h-3.392v-.852zm-2.403-1.569h1.005v6.239q0 .426.124.639a.64.64 0 0 0 .324.281q.2.069.422.069.166 0 .273-.017l.17-.035.205.904a2.3 2.3 0 0 1-.75.119q-.427 0-.836-.183a1.66 1.66 0 0 1-.673-.558q-.264-.376-.264-.946zM305.19 220v-6.545h.972v.988h.068q.179-.486.647-.788a1.9 1.9 0 0 1 1.057-.303 11 11 0 0 1 .529.017v1.023a3 3 0 0 0-.235-.038 2.3 2.3 0 0 0-.379-.03q-.477 0-.852.2a1.47 1.47 0 0 0-.801 1.334V220zm6.391.153q-.622 0-1.129-.234a1.94 1.94 0 0 1-.806-.686q-.298-.452-.298-1.091 0-.562.222-.912.221-.353.592-.554a3.1 3.1 0 0 1 .818-.298 10 10 0 0 1 .908-.162q.597-.077.967-.115.375-.043.546-.141.174-.098.174-.341v-.034q0-.63-.345-.98-.34-.35-1.035-.349-.721 0-1.13.315-.408.316-.575.673l-.954-.341q.255-.596.681-.929.43-.336.938-.468a4 4 0 0 1 1.006-.137 4 4 0 0 1 .724.077q.413.072.797.303.387.23.643.694.256.465.256 1.245V220h-1.006v-.886h-.051a1.8 1.8 0 0 1-.341.456q-.238.243-.635.413-.396.17-.967.17m.153-.903q.597 0 1.006-.234a1.6 1.6 0 0 0 .835-1.385v-.921q-.063.077-.281.141a5 5 0 0 1-.494.106 21 21 0 0 1-.963.128q-.393.052-.733.166a1.26 1.26 0 0 0-.546.337q-.204.221-.204.605 0 .525.387.793.393.264.993.264m7.342.886q-.92 0-1.586-.434a2.83 2.83 0 0 1-1.022-1.198q-.358-.762-.358-1.743 0-.996.366-1.76.37-.766 1.031-1.197.666-.435 1.552-.435.69 0 1.244.256.554.255.908.716.353.46.439 1.074h-1.006a1.56 1.56 0 0 0-.512-.793q-.392-.35-1.056-.349-.588 0-1.032.307a2 2 0 0 0-.686.856q-.243.55-.243 1.291 0 .759.239 1.321.243.562.682.874.443.31 1.04.311.392 0 .711-.136a1.47 1.47 0 0 0 .857-1.006h1.006a2.34 2.34 0 0 1-.422 1.044 2.36 2.36 0 0 1-.882.733q-.546.268-1.27.268m6.89-6.681v.852h-3.392v-.852zm-2.403-1.569h1.006v6.239q0 .426.123.639a.64.64 0 0 0 .324.281q.2.069.422.069.166 0 .273-.017l.17-.035.205.904a2.3 2.3 0 0 1-.75.119q-.427 0-.836-.183a1.66 1.66 0 0 1-.673-.558q-.264-.376-.264-.946zm6.505 8.25q-.887 0-1.556-.422a2.86 2.86 0 0 1-1.039-1.18q-.372-.759-.371-1.773 0-1.022.371-1.785.375-.763 1.039-1.185.67-.422 1.556-.422.887 0 1.551.422.67.421 1.04 1.185.375.763.375 1.785 0 1.014-.375 1.773a2.8 2.8 0 0 1-1.04 1.18q-.664.423-1.551.422m0-.903q.673 0 1.108-.345t.643-.908a3.5 3.5 0 0 0 .209-1.219q0-.656-.209-1.223a2.06 2.06 0 0 0-.643-.916q-.435-.35-1.108-.349-.673 0-1.108.349-.435.35-.644.916a3.5 3.5 0 0 0-.208 1.223q0 .657.208 1.219.21.563.644.908t1.108.345m4.501.767v-6.545h.971v.988h.069q.179-.486.647-.788a1.9 1.9 0 0 1 1.057-.303 11 11 0 0 1 .529.017v1.023a3 3 0 0 0-.235-.038 2.3 2.3 0 0 0-.379-.03q-.477 0-.852.2a1.47 1.47 0 0 0-.801 1.334V220zm9.101-5.08-.903.256a1.7 1.7 0 0 0-.252-.439 1.2 1.2 0 0 0-.443-.358q-.28-.14-.72-.14-.6 0-1.002.277-.396.272-.396.694 0 .375.273.593.273.216.852.362l.972.238q.877.214 1.308.652.43.435.43 1.121 0 .562-.323 1.006a2.17 2.17 0 0 1-.895.699q-.576.255-1.338.255-1.002 0-1.658-.434-.657-.435-.831-1.27l.955-.239q.135.529.515.793.384.264 1.002.264.702 0 1.116-.298.418-.303.418-.725a.76.76 0 0 0-.239-.571q-.238-.234-.733-.349l-1.091-.256q-.899-.213-1.321-.66-.417-.452-.417-1.13 0-.554.311-.98.315-.426.856-.669a3 3 0 0 1 1.236-.243q.972 0 1.525.426a2.3 2.3 0 0 1 .793 1.125"/><path fill="#D9D9D9" d="m240.5 215-3.897-6.75h7.794z"/><path fill="#222" d="M245.08 144h-1.057a2.2 2.2 0 0 0-.891-1.381 2.4 2.4 0 0 0-.729-.358 3 3 0 0 0-.835-.119q-.792 0-1.436.401-.64.4-1.018 1.18-.375.78-.375 1.913t.375 1.914q.379.78 1.018 1.18.644.4 1.436.401.435 0 .835-.12a2.4 2.4 0 0 0 .729-.353q.333-.239.563-.584.234-.35.328-.801h1.057q-.12.669-.435 1.197a3.28 3.28 0 0 1-1.837 1.458 4 4 0 0 1-1.24.191q-1.116 0-1.986-.545-.868-.546-1.368-1.551-.498-1.006-.498-2.387 0-1.38.498-2.386.5-1.006 1.368-1.551.87-.546 1.986-.546.661 0 1.24.192.584.192 1.053.563.469.366.784.895.315.523.435 1.197m4.23 6.136q-.886 0-1.555-.422a2.86 2.86 0 0 1-1.04-1.18q-.37-.759-.371-1.773 0-1.022.371-1.785.374-.763 1.04-1.185.669-.422 1.555-.422.887 0 1.551.422.67.421 1.04 1.185.375.763.375 1.785 0 1.014-.375 1.773a2.8 2.8 0 0 1-1.04 1.18q-.665.423-1.551.422m0-.903q.673 0 1.108-.345t.643-.908q.21-.562.209-1.219 0-.656-.209-1.223a2.06 2.06 0 0 0-.643-.916q-.435-.35-1.108-.349-.673 0-1.108.349-.435.35-.643.916-.21.567-.209 1.223 0 .657.209 1.219.208.563.643.908t1.108.345m4.501.767v-6.545h.972v1.022h.085q.204-.523.66-.814.456-.294 1.096-.294.647 0 1.078.294.434.29.677.814h.068q.251-.507.755-.805.502-.303 1.206-.303.878 0 1.436.55.558.546.558 1.7V150h-1.006v-4.381q0-.725-.396-1.035a1.46 1.46 0 0 0-.933-.311q-.69 0-1.07.417-.38.413-.379 1.049V150h-1.023v-4.483q0-.558-.362-.899-.363-.345-.933-.345a1.37 1.37 0 0 0-.733.209 1.6 1.6 0 0 0-.546.579 1.7 1.7 0 0 0-.204.848V150zm10.43 2.455v-9h.971v1.039h.12q.111-.17.306-.434a1.8 1.8 0 0 1 .572-.478q.375-.213 1.014-.213.827 0 1.457.414.632.413.984 1.172.354.758.354 1.789 0 1.04-.354 1.803-.353.759-.98 1.176-.626.413-1.444.413-.631 0-1.01-.208a1.9 1.9 0 0 1-.584-.482 7 7 0 0 1-.315-.452h-.086v3.461zm.988-5.728q0 .742.218 1.309.217.563.635.882.417.315 1.022.315.632 0 1.053-.332.426-.337.639-.904.217-.571.217-1.27 0-.69-.213-1.244a1.9 1.9 0 0 0-.635-.882q-.421-.328-1.061-.328-.613 0-1.031.311-.417.306-.631.861-.213.55-.213 1.282m8.25 3.426q-.622 0-1.129-.234a1.94 1.94 0 0 1-.805-.686q-.299-.452-.299-1.091 0-.562.222-.912.222-.353.592-.554.371-.2.819-.298.451-.102.907-.162.597-.077.968-.115.375-.043.545-.141.175-.098.175-.341v-.034q0-.63-.345-.98-.342-.35-1.036-.349-.72 0-1.129.315-.41.316-.576.673l-.954-.341q.256-.596.682-.929.43-.336.937-.468a4 4 0 0 1 1.006-.137q.315 0 .724.077.414.072.797.303.388.23.644.694.255.465.255 1.245V150h-1.005v-.886h-.051a1.8 1.8 0 0 1-.341.456 2 2 0 0 1-.635.413q-.396.17-.968.17m.154-.903q.597 0 1.005-.234.414-.235.623-.605.213-.372.213-.78v-.921q-.065.077-.282.141-.212.06-.494.106a21 21 0 0 1-.963.128q-.392.051-.733.166a1.26 1.26 0 0 0-.545.337q-.205.221-.205.605 0 .525.388.793.391.264.993.264m5.688-3.188V150h-1.006v-6.545h.972v1.022h.085q.23-.498.699-.801.469-.307 1.21-.307.665 0 1.163.273.499.269.776.818.276.546.277 1.381V150h-1.006v-4.091q0-.771-.4-1.202-.4-.434-1.1-.434-.482 0-.861.209-.375.209-.592.609t-.217.971m6.427 6.393q-.256 0-.456-.043a1.2 1.2 0 0 1-.277-.077l.256-.886q.366.093.647.068a.78.78 0 0 0 .499-.251q.222-.222.405-.721l.187-.511-2.42-6.579h1.091l1.807 5.215h.068l1.807-5.215h1.09l-2.778 7.5q-.188.506-.464.839-.278.336-.644.499a2 2 0 0 1-.818.162m9.901-2.455h-1.108l3.205-8.727h1.091l3.204 8.727h-1.108l-2.608-7.347h-.068zm.409-3.409h4.466v.937h-4.466zm7.206 5.864v-9h.972v1.039h.119a9 9 0 0 1 .307-.434q.2-.268.571-.478.375-.213 1.014-.213.826 0 1.458.414.63.413.984 1.172t.354 1.789q0 1.04-.354 1.803-.354.759-.98 1.176-.627.413-1.445.413-.63 0-1.01-.208a1.9 1.9 0 0 1-.584-.482 7 7 0 0 1-.315-.452h-.085v3.461zm.989-5.728q0 .742.217 1.309.218.563.635.882.418.315 1.023.315.63 0 1.052-.332.426-.337.64-.904.216-.571.217-1.27 0-.69-.213-1.244a1.9 1.9 0 0 0-.635-.882q-.422-.328-1.061-.328-.614 0-1.031.311-.418.306-.631.861-.213.55-.213 1.282m6.324 5.728v-9h.971v1.039h.12q.11-.17.306-.434.2-.268.571-.478.375-.213 1.015-.213.827 0 1.457.414.632.413.984 1.172.354.758.354 1.789 0 1.04-.354 1.803-.353.759-.98 1.176-.626.413-1.444.413-.631 0-1.01-.208a1.9 1.9 0 0 1-.584-.482 6 6 0 0 1-.315-.452h-.086v3.461zm.988-5.728q0 .742.218 1.309.217.563.635.882.417.315 1.022.315.632 0 1.053-.332.426-.337.639-.904.217-.571.217-1.27 0-.69-.213-1.244a1.9 1.9 0 0 0-.635-.882q-.422-.328-1.061-.328-.613 0-1.031.311a1.86 1.86 0 0 0-.631.861q-.213.55-.213 1.282m7.33-5.454V150h-1.006v-8.727zm1.842 8.727v-6.545h1.006V150zm.511-7.636a.7.7 0 0 1-.507-.201.64.64 0 0 1-.209-.481q0-.282.209-.482a.72.72 0 0 1 .507-.2q.294 0 .503.2a.64.64 0 0 1 .213.482.64.64 0 0 1-.213.481.7.7 0 0 1-.503.201m4.996 7.772q-.92 0-1.586-.434a2.83 2.83 0 0 1-1.022-1.198q-.358-.762-.358-1.743 0-.996.366-1.76.37-.766 1.031-1.197.666-.435 1.552-.435.69 0 1.244.256.554.255.908.716.353.46.438 1.074h-1.005a1.56 1.56 0 0 0-.512-.793q-.392-.35-1.056-.349-.588 0-1.032.307a2 2 0 0 0-.686.856q-.243.55-.243 1.291 0 .759.239 1.321.243.562.682.874.443.31 1.04.311.392 0 .711-.136a1.47 1.47 0 0 0 .857-1.006h1.005a2.3 2.3 0 0 1-.421 1.044 2.36 2.36 0 0 1-.883.733q-.545.268-1.269.268m5.97.017q-.622 0-1.129-.234a1.94 1.94 0 0 1-.806-.686q-.298-.452-.298-1.091 0-.562.221-.912.222-.353.593-.554a3.1 3.1 0 0 1 .818-.298 10 10 0 0 1 .908-.162q.596-.077.967-.115.375-.043.545-.141.175-.098.175-.341v-.034q0-.63-.345-.98-.341-.35-1.036-.349-.72 0-1.129.315-.409.316-.575.673l-.955-.341q.256-.596.682-.929.43-.336.938-.468a4 4 0 0 1 1.005-.137q.316 0 .725.077.413.072.797.303.387.23.643.694.256.465.256 1.245V150h-1.006v-.886h-.051a1.8 1.8 0 0 1-.341.456 2 2 0 0 1-.635.413q-.397.17-.967.17m.153-.903q.597 0 1.006-.234.413-.235.622-.605.213-.372.213-.78v-.921q-.064.077-.281.141a5 5 0 0 1-.494.106 21 21 0 0 1-.964.128 4 4 0 0 0-.732.166 1.26 1.26 0 0 0-.546.337q-.204.221-.204.605 0 .525.387.793.393.264.993.264m7.529-5.795v.852h-3.392v-.852zm-2.403-1.569h1.005v6.239q0 .426.124.639a.64.64 0 0 0 .324.281q.2.069.422.069.165 0 .272-.017l.171-.035.204.904a2.2 2.2 0 0 1-.75.119q-.426 0-.835-.183a1.66 1.66 0 0 1-.673-.558q-.264-.376-.264-.946zm3.916 8.114v-6.545h1.005V150zm.511-7.636a.7.7 0 0 1-.507-.201.64.64 0 0 1-.209-.481q0-.282.209-.482a.72.72 0 0 1 .507-.2q.294 0 .503.2a.64.64 0 0 1 .213.482.64.64 0 0 1-.213.481.7.7 0 0 1-.503.201m4.995 7.772q-.885 0-1.555-.422a2.86 2.86 0 0 1-1.04-1.18q-.37-.759-.37-1.773 0-1.022.37-1.785.375-.763 1.04-1.185.67-.422 1.555-.422.886 0 1.552.422.669.421 1.039 1.185.375.763.375 1.785 0 1.014-.375 1.773a2.8 2.8 0 0 1-1.039 1.18q-.666.423-1.552.422m0-.903q.674 0 1.108-.345t.644-.908a3.5 3.5 0 0 0 .209-1.219q0-.656-.209-1.223a2.06 2.06 0 0 0-.644-.916q-.434-.35-1.108-.349-.673 0-1.107.349-.435.35-.644.916a3.5 3.5 0 0 0-.209 1.223q0 .657.209 1.219t.644.908q.434.345 1.107.345m5.507-3.171V150h-1.005v-6.545h.971v1.022h.085a1.9 1.9 0 0 1 .699-.801q.47-.307 1.21-.307.665 0 1.164.273.499.269.775.818.277.546.277 1.381V150h-1.005v-4.091q0-.771-.401-1.202-.4-.434-1.099-.434-.482 0-.861.209-.375.209-.592.609-.218.4-.218.971M364.641 150h-2.694v-8.727h2.813q1.27 0 2.173.524a3.4 3.4 0 0 1 1.385 1.496q.482.971.482 2.326 0 1.364-.486 2.348a3.46 3.46 0 0 1-1.415 1.509q-.929.524-2.258.524m-1.637-.938h1.568q1.083 0 1.794-.417a2.58 2.58 0 0 0 1.062-1.189q.35-.77.349-1.837 0-1.056-.345-1.819a2.54 2.54 0 0 0-1.031-1.176q-.687-.414-1.709-.414h-1.688zm10.091 1.074q-.886 0-1.555-.422a2.86 2.86 0 0 1-1.04-1.18q-.37-.759-.371-1.773 0-1.022.371-1.785.375-.763 1.04-1.185.669-.422 1.555-.422.887 0 1.551.422.67.421 1.04 1.185.375.763.375 1.785 0 1.014-.375 1.773a2.8 2.8 0 0 1-1.04 1.18q-.664.423-1.551.422m0-.903q.673 0 1.108-.345t.644-.908.208-1.219-.208-1.223a2.07 2.07 0 0 0-.644-.916q-.435-.35-1.108-.349-.673 0-1.108.349-.435.35-.643.916a3.5 3.5 0 0 0-.209 1.223q0 .657.209 1.219.208.563.643.908t1.108.345m4.501.767v-6.545h.972v1.022h.085a1.65 1.65 0 0 1 .661-.814q.456-.294 1.095-.294.648 0 1.078.294.435.29.677.814h.069q.251-.507.754-.805.502-.303 1.206-.303.878 0 1.436.55.558.546.558 1.7V150h-1.006v-4.381q0-.725-.396-1.035a1.46 1.46 0 0 0-.933-.311q-.69 0-1.07.417-.38.413-.379 1.049V150h-1.023v-4.483q0-.558-.362-.899-.362-.345-.933-.345-.392 0-.733.209a1.6 1.6 0 0 0-.546.579 1.7 1.7 0 0 0-.204.848V150zm12.356.153q-.622 0-1.129-.234a1.94 1.94 0 0 1-.806-.686q-.298-.452-.298-1.091 0-.562.222-.912.221-.353.592-.554a3.1 3.1 0 0 1 .818-.298 10 10 0 0 1 .908-.162q.597-.077.967-.115.375-.043.546-.141.174-.098.174-.341v-.034q0-.63-.345-.98-.34-.35-1.035-.349-.72 0-1.13.315-.408.316-.575.673l-.954-.341q.255-.596.681-.929.43-.336.938-.468a4 4 0 0 1 1.006-.137 4 4 0 0 1 .724.077q.413.072.797.303.388.23.643.694.256.465.256 1.245V150h-1.006v-.886h-.051a1.8 1.8 0 0 1-.341.456q-.238.243-.635.413-.396.17-.967.17m.153-.903q.597 0 1.006-.234a1.6 1.6 0 0 0 .835-1.385v-.921q-.063.077-.281.141a5 5 0 0 1-.494.106 21 21 0 0 1-.963.128q-.393.051-.733.166a1.26 1.26 0 0 0-.546.337q-.204.221-.204.605 0 .525.388.793.392.264.992.264m4.683.75v-6.545h1.005V150zm.511-7.636a.7.7 0 0 1-.507-.201.64.64 0 0 1-.209-.481q0-.282.209-.482a.72.72 0 0 1 .507-.2q.294 0 .503.2a.64.64 0 0 1 .213.482.64.64 0 0 1-.213.481.7.7 0 0 1-.503.201m3.342 3.698V150h-1.006v-6.545h.972v1.022h.085q.23-.498.699-.801.469-.307 1.21-.307.665 0 1.164.273.498.269.775.818.277.546.277 1.381V150h-1.006v-4.091q0-.771-.4-1.202-.4-.434-1.1-.434-.482 0-.86.209-.375.209-.593.609t-.217.971m10.65-1.142-.903.256a1.7 1.7 0 0 0-.252-.439 1.2 1.2 0 0 0-.443-.358q-.28-.14-.72-.14-.601 0-1.001.277-.397.272-.397.694 0 .375.273.593.273.216.852.362l.972.238q.877.214 1.308.652.43.435.431 1.121 0 .562-.324 1.006a2.16 2.16 0 0 1-.895.699q-.576.255-1.338.255-1.002 0-1.658-.434-.655-.435-.831-1.27l.955-.239q.136.528.515.793.384.264 1.002.264.703 0 1.116-.298.418-.303.418-.725a.76.76 0 0 0-.239-.571q-.238-.234-.733-.349l-1.091-.256q-.899-.213-1.321-.66-.417-.452-.417-1.13 0-.554.311-.98.315-.426.856-.669a3 3 0 0 1 1.236-.243q.972 0 1.526.426.558.427.792 1.125"/><circle cx="361" cy="96" r="6" fill="#747474"/><path fill="#C4C4C4" d="m357.65 100 2.535-3.679-2.379-3.471h1.378l1.417 2.21q.091.143.169.312.091.17.143.273.039-.104.117-.273.091-.17.182-.312l1.43-2.21h1.365l-2.379 3.484L364.15 100h-1.378l-1.534-2.34a4 4 0 0 1-.182-.325q-.078-.195-.143-.312a6 6 0 0 1-.156.312q-.091.182-.195.325l-1.547 2.34z"/><circle cx="361" cy="216" r="6" fill="#747474"/><path fill="#C4C4C4" d="m357.65 220 2.535-3.679-2.379-3.471h1.378l1.417 2.21q.091.143.169.312.091.17.143.273.039-.103.117-.273.091-.17.182-.312l1.43-2.21h1.365l-2.379 3.484L364.15 220h-1.378l-1.534-2.34a4 4 0 0 1-.182-.325q-.078-.195-.143-.312a6 6 0 0 1-.156.312q-.091.182-.195.325l-1.547 2.34z"/><circle cx="424" cy="146" r="6" fill="#747474"/><path fill="#C4C4C4" d="m420.65 150 2.535-3.679-2.379-3.471h1.378l1.417 2.21q.091.143.169.312.091.17.143.273.039-.103.117-.273.091-.17.182-.312l1.43-2.21h1.365l-2.379 3.484L427.15 150h-1.378l-1.534-2.34a4 4 0 0 1-.182-.325q-.078-.195-.143-.312a6 6 0 0 1-.156.312q-.091.182-.195.325l-1.547 2.34z"/></svg>