<svg xmlns="http://www.w3.org/2000/svg" width="996" height="235" fill="none" viewBox="0 0 996 235"><path fill="#fff" d="M0 0h996v235H0z"/><path fill="#C5EBF5" d="M515.152 110.171h28.089v16.051h-28.089zm-44.139-18.057h28.089v16.051h-28.089zm42.133-18.057h28.089v16.051h-28.089zm-14.044-16.051h28.089v16.051h-28.089z"/><path fill="#0055DC" stroke="#fff" stroke-width=".5" d="M531.079 72.844v.25h11.996l2.675 2.675V92.49l-2.676 2.676-11.747.084-.248.002v11.784h11.996l2.675 2.675v16.721l-2.675 2.675h-58.493l-2.675-2.675v-14.253h-11.982l-2.675-2.675V92.782l2.675-2.675h11.982V78.321h-11.982l-2.675-2.675V58.925l2.675-2.675h58.479l2.675 2.675zm9.278 17.179h.25V78.32h-24.214v11.701h23.964Zm-14.421-28.38v-.25h-24.2v11.786h24.2zm-53.293-.25h-.25v11.786h24.2V61.393zM487.3 78.32h-.25v11.786h24.2V78.321H487.3Zm-14.657 16.844h-.25v11.786h24.2V95.165h-23.95Zm14.407 28.549v.25h24.2v-11.785h-24.2zm53.307.25h.25v-11.785h-24.214v11.785zM525.7 107.036h.25v-.251l-.014-11.285-.001-.25h-24.199v11.786z"/><path stroke="#0055DC" stroke-dasharray="10 10" stroke-width="2" d="M437 26h139v182H437z"/><path fill="#000" d="M216.707 94.617a1 1 0 0 0 0-1.414l-6.364-6.364a1 1 0 1 0-1.414 1.414l5.657 5.657-5.657 5.657a.999.999 0 1 0 1.414 1.414zM216 92.91h-75v2h75zM43.463 140.727v-8.728h5.88v1.522h-4.035v2.079h3.733v1.521h-3.733v2.084h4.052v1.522zm8.83-6.546 1.202 2.288 1.232-2.288h1.862l-1.897 3.273 1.948 3.273h-1.854l-1.291-2.263-1.27 2.263H50.35l1.943-3.273-1.875-3.273zm8.855 0v1.364h-3.941v-1.364zm-3.047-1.568h1.816v6.102q0 .251.076.392a.42.42 0 0 0 .214.192.9.9 0 0 0 .324.055q.127 0 .255-.021l.196-.038.286 1.351q-.137.042-.384.098a3 3 0 0 1-.6.072q-.657.026-1.151-.175a1.6 1.6 0 0 1-.763-.622q-.273-.422-.268-1.065zm7.142 8.241q-1.01 0-1.738-.409a2.8 2.8 0 0 1-1.117-1.167q-.392-.759-.392-1.794 0-1.011.392-1.773.393-.763 1.104-1.189.715-.426 1.68-.426.646 0 1.205.209.563.204.98.618.422.413.656 1.039.235.623.235 1.458v.498H62.72v-1.125h3.818q0-.392-.17-.694a1.2 1.2 0 0 0-.474-.473 1.34 1.34 0 0 0-.694-.175q-.414 0-.733.192-.315.188-.494.507-.179.315-.184.703v1.07q0 .485.18.839.182.354.515.546.332.19.788.191.303 0 .554-.085t.43-.256q.18-.17.273-.417l1.68.111a2.3 2.3 0 0 1-.525 1.056q-.392.448-1.014.699-.618.247-1.428.247m4.19-.127v-6.546h1.76v1.142h.068q.18-.61.6-.92.422-.316.972-.316.136 0 .294.017t.277.047v1.611a2.5 2.5 0 0 0-.354-.068q-.225-.03-.413-.03-.4 0-.716.175a1.3 1.3 0 0 0-.494.477q-.18.307-.18.707v3.704zm6.725-3.785v3.785h-1.815v-6.546h1.73v1.155h.076q.217-.571.73-.903.51-.337 1.24-.337.681 0 1.188.298t.788.852q.282.55.282 1.313v4.168H78.56v-3.844q.004-.601-.307-.938-.31-.34-.856-.341-.366 0-.648.158-.277.158-.434.46a1.6 1.6 0 0 0-.158.72m7.516 3.908q-.627 0-1.117-.217a1.8 1.8 0 0 1-.775-.652q-.282-.435-.281-1.083 0-.545.2-.916.2-.37.545-.596.345-.227.785-.341.443-.115.928-.162.572-.06.92-.111.35-.055.508-.162a.36.36 0 0 0 .158-.315v-.026q0-.405-.256-.626-.252-.222-.716-.222-.49 0-.78.217a1 1 0 0 0-.383.537l-1.68-.136q.129-.596.504-1.031.375-.44.967-.673.597-.24 1.38-.239.546 0 1.045.128.503.127.89.396.393.269.618.69.226.418.226 1.002v4.415h-1.722v-.908h-.05a1.9 1.9 0 0 1-.423.541 2 2 0 0 1-.635.362 2.6 2.6 0 0 1-.856.128m.52-1.253q.4 0 .707-.157.307-.162.482-.435.174-.273.174-.618v-.695a1 1 0 0 1-.234.103 5 5 0 0 1-.694.145l-.333.047a2.2 2.2 0 0 0-.558.149.9.9 0 0 0-.37.277.67.67 0 0 0-.133.426q0 .37.269.567.272.19.69.191m6.39-7.598v8.728h-1.816v-8.728zm7.214 8.855q-1.01 0-1.738-.409a2.8 2.8 0 0 1-1.117-1.167q-.392-.759-.392-1.794 0-1.011.392-1.773.392-.763 1.104-1.189.716-.426 1.679-.426.648 0 1.206.209.562.204.98.618.422.413.656 1.039.234.623.234 1.458v.498h-5.527v-1.125h3.819q0-.392-.17-.694a1.2 1.2 0 0 0-.474-.473 1.34 1.34 0 0 0-.694-.175q-.414 0-.733.192-.315.188-.495.507-.179.315-.183.703v1.07q0 .485.18.839.182.354.515.546.332.19.788.191.303 0 .554-.085t.43-.256q.18-.17.273-.417l1.679.111a2.3 2.3 0 0 1-.524 1.056q-.392.448-1.014.699-.618.247-1.428.247m4.189-.127v-6.546h1.73v1.155h.077q.204-.575.682-.908.477-.332 1.142-.332.673 0 1.146.337.473.332.631.903h.068q.2-.563.724-.899.53-.34 1.249-.341.917 0 1.487.584.576.579.575 1.645v4.402h-1.811v-4.044q0-.546-.289-.819a1.02 1.02 0 0 0-.725-.272q-.493 0-.771.315-.277.31-.277.822v3.998h-1.76v-4.083q0-.482-.277-.767-.273-.285-.72-.285-.303 0-.546.153-.238.149-.379.422a1.34 1.34 0 0 0-.141.631v3.929zm12.812.123q-.627 0-1.117-.217a1.8 1.8 0 0 1-.775-.652q-.281-.435-.281-1.083 0-.545.2-.916.2-.37.545-.596.346-.227.784-.341.444-.115.929-.162.572-.06.921-.111.35-.055.507-.162a.36.36 0 0 0 .158-.315v-.026q0-.405-.256-.626-.252-.222-.716-.222-.49 0-.78.217a1 1 0 0 0-.383.537l-1.679-.136q.128-.596.503-1.031.375-.44.967-.673.597-.24 1.381-.239.544 0 1.044.128.503.127.89.396.393.269.618.69.226.418.226 1.002v4.415h-1.722v-.908h-.051a1.8 1.8 0 0 1-.422.541 2 2 0 0 1-.635.362 2.6 2.6 0 0 1-.856.128m.52-1.253q.4 0 .707-.157.307-.162.482-.435.174-.273.174-.618v-.695a1 1 0 0 1-.234.103 5 5 0 0 1-.695.145l-.332.047q-.32.046-.558.149a.9.9 0 0 0-.371.277.67.67 0 0 0-.132.426q0 .37.268.567.273.19.691.191m4.574 1.13v-6.546h1.816v6.546zm.912-7.39a.98.98 0 0 1-.694-.268.87.87 0 0 1-.286-.652q0-.375.286-.644a.98.98 0 0 1 .694-.272q.405 0 .691.272a.85.85 0 0 1 .289.644q0 .38-.289.652a.97.97 0 0 1-.691.268m4.173-1.338v8.728h-1.815v-8.728zm770.307-2.941h1.845v5.667q0 .956-.456 1.671a3.05 3.05 0 0 1-1.266 1.116q-.813.397-1.896.397-1.087 0-1.9-.397a3.05 3.05 0 0 1-1.266-1.116q-.452-.715-.452-1.671v-5.667h1.845v5.51q0 .499.218.886.222.388.622.61.4.22.933.221.537 0 .933-.221.4-.222.618-.61a1.75 1.75 0 0 0 .222-.886zm8.775 4.048-1.662.102a.85.85 0 0 0-.183-.383.96.96 0 0 0-.371-.277 1.3 1.3 0 0 0-.541-.107q-.421 0-.712.179-.29.175-.289.469 0 .234.187.396.188.162.644.26l1.184.239q.955.196 1.424.631.468.434.468 1.142 0 .643-.379 1.129-.375.486-1.031.759-.652.268-1.504.268-1.3 0-2.072-.541a2.1 2.1 0 0 1-.899-1.483l1.786-.094a.92.92 0 0 0 .392.605q.31.205.797.205.477 0 .767-.183.294-.188.298-.482a.5.5 0 0 0-.209-.405q-.204-.162-.63-.247l-1.134-.226q-.959-.191-1.427-.665-.465-.473-.465-1.206 0-.63.341-1.086.346-.456.967-.703.627-.248 1.466-.248 1.24 0 1.952.525.716.524.835 1.427m4.275 4.807q-1.01 0-1.738-.409a2.8 2.8 0 0 1-1.117-1.168q-.392-.757-.392-1.794 0-1.01.392-1.772a2.9 2.9 0 0 1 1.104-1.189q.716-.427 1.679-.427.648 0 1.206.209.563.205.98.618.422.413.656 1.04.235.623.235 1.457v.499h-5.527v-1.125h3.818a1.4 1.4 0 0 0-.171-.695 1.2 1.2 0 0 0-.473-.473 1.35 1.35 0 0 0-.694-.174q-.414 0-.733.191-.315.188-.495.507-.178.316-.183.704v1.069q0 .486.179.84.183.353.516.545.332.192.788.192.303 0 .554-.085t.431-.256a1.1 1.1 0 0 0 .272-.418l1.679.111a2.3 2.3 0 0 1-.524 1.057 2.6 2.6 0 0 1-1.014.699q-.618.247-1.428.247m4.189-.128v-6.545h1.76v1.142h.068q.18-.61.601-.921a1.58 1.58 0 0 1 .972-.315q.137 0 .294.017t.277.047v1.611a3.3 3.3 0 0 0-.767-.098q-.4 0-.716.174a1.29 1.29 0 0 0-.673 1.185v3.703zm7.688 0v-6.545h1.815v6.545zm.912-7.389a1 1 0 0 1-.695-.269.87.87 0 0 1-.285-.652q0-.375.285-.643a.98.98 0 0 1 .695-.273q.405 0 .69.273.29.268.29.643a.86.86 0 0 1-.29.652.97.97 0 0 1-.69.269m4.173 3.605v3.784h-1.816v-6.545h1.73v1.155h.077q.217-.571.729-.904.511-.336 1.24-.337.682 0 1.189.299t.788.852q.281.55.281 1.313v4.167h-1.815v-3.844q.005-.6-.307-.937-.311-.34-.856-.341-.368 0-.648.158-.277.157-.435.46a1.6 1.6 0 0 0-.157.72m5.683 3.784v-8.727h1.816v3.281h.055q.12-.264.345-.537.23-.276.597-.46.37-.188.92-.188.716 0 1.321.375.606.372.968 1.121.362.746.362 1.871 0 1.096-.354 1.849-.35.75-.954 1.138a2.45 2.45 0 0 1-1.347.384q-.528 0-.899-.175a1.9 1.9 0 0 1-.601-.439 2.2 2.2 0 0 1-.358-.541h-.081v1.048zm1.777-3.273q0 .584.162 1.019t.469.677q.306.24.746.239.442 0 .75-.243.306-.247.464-.682.162-.438.162-1.01 0-.566-.158-.997a1.5 1.5 0 0 0-.464-.673 1.18 1.18 0 0 0-.754-.243q-.444 0-.75.234a1.47 1.47 0 0 0-.465.665 2.9 2.9 0 0 0-.162 1.014m8.775 3.401q-.993 0-1.717-.422a2.9 2.9 0 0 1-1.112-1.185q-.392-.763-.392-1.768 0-1.014.392-1.773a2.85 2.85 0 0 1 1.112-1.184q.724-.427 1.717-.427t1.713.427q.725.422 1.117 1.184.392.759.392 1.773 0 1.005-.392 1.768a2.9 2.9 0 0 1-1.117 1.185q-.72.422-1.713.422m.009-1.406q.452 0 .754-.256a1.6 1.6 0 0 0 .456-.707q.158-.448.158-1.019 0-.57-.158-1.018a1.6 1.6 0 0 0-.456-.708 1.12 1.12 0 0 0-.754-.26q-.456 0-.767.26a1.6 1.6 0 0 0-.465.708 3.1 3.1 0 0 0-.153 1.018q0 .571.153 1.019.158.447.465.707.31.256.767.256m5.676-5.267 1.202 2.288 1.231-2.288h1.863l-1.897 3.272 1.948 3.273h-1.854l-1.291-2.263-1.27 2.263h-1.875l1.943-3.273-1.875-3.272z"/><path fill="#0055DC" stroke="#0057E1" stroke-miterlimit="10" stroke-width=".541" d="M47.378 66v51.818h73.65V66zm36.757 30.301L50.058 67.437h68.29zm-6.148-3.331-29.168 22.634V68.259zm1.126.958 5.022 4.267 5.113-4.313 28.965 22.475h-68.02L79.09 93.928zm11.261-1.004L119.61 68.26v47.345z"/><path stroke="#0053ED" stroke-miterlimit="10" stroke-width="2.072" d="M39.45 104.885H25.98m13.47-12.94H19m20.45-12.937H25.98"/><path fill="#0053ED" stroke="#fff" stroke-miterlimit="10" d="m958.06 74.516-1.399 2.362V47H882.99v29.427l-1.504-1.91H867v40.358h108V74.516h-16.967zm-4.328 7.35-4.459 7.562h-1.979l-20.159-15.522 26.624-22.289V81.84zm-11.319 7.562h-45.148l17.547-13.532 4.935 4.14 5.013-4.22 17.626 13.586zm8.707-39.483-31.347 26.243-31.215-26.243h62.589zm-65.174 1.699 26.544 22.315-19.578 15.071-6.993-8.862V51.643zm86.151 60.312H869.929V77.461h10.185l11.742 14.913h59.053l8.813-14.913h12.402v34.495z"/><path fill="#B8E9F4" d="M306.175 67.36h-74.174v51.243h74.174z"/><path fill="#fff" d="M301.411 70.87h-64.626v42.866h64.626z"/><path fill="#B8E9F4" d="m268.975 98.025-36.355-30.73h72.709z"/><path fill="#fff" d="M243.548 71.432H294.4l-25.426 21.162z"/><path fill="#0057E1" d="M307.495 120.001h-76.772V66h76.772zm-75.288-1.504h73.803V67.504h-73.803z"/><path fill="#0057E1" d="m269.016 99.55-38.045-32.233.969-1.149 37.076 31.42 37.242-31.42.969 1.15z"/><path fill="#0057E1" d="M263.32 93.548 231 118.617l.903 1.194 32.32-25.07zm11.563.032-.903 1.193 32.316 25.075.903-1.194z"/><path fill="#BBECF7" d="M303.536 133.748c-.701-.355-17.013-8.816-17.013-26.175V92.741l4.166-.606c6.949-1.003 11.218-5.474 11.424-5.683l3.588-4.073 3.629 4.094s4.331 4.638 11.404 5.662l4.165.605v14.833c0 17.359-16.311 25.82-17.012 26.175l-2.165 1.107-2.166-1.107z"/><path fill="#0053ED" d="m305.721 135.693-2.495-1.275c-.722-.355-17.425-9.024-17.425-26.844v-15.48l4.805-.689c6.722-.982 10.805-5.285 10.991-5.452l4.124-4.68 4.186 4.722s4.207 4.45 10.95 5.431l4.805.69v15.479c0 17.82-16.724 26.489-17.425 26.844l-2.495 1.275zm-18.435-42.282v14.163c0 16.901 15.919 25.152 16.6 25.507l1.835.94 1.835-.94c.681-.334 16.6-8.586 16.6-25.507V93.411l-3.526-.502c-7.32-1.065-11.816-5.87-11.857-5.912l-3.072-3.467-3.032 3.447c-.206.208-4.639 4.888-11.877 5.932l-3.527.502z"/><path fill="#fff" d="m305.722 129.258-.536-.271c-.557-.293-13.734-7.124-13.734-20.953V97.359l1.011-.147c7.753-1.128 12.31-6.183 12.352-6.225l.886-1.003.887 1.003s4.598 5.097 12.352 6.225l1.01.147v10.675c0 13.829-13.176 20.66-13.733 20.953l-.536.271z"/><path fill="#FF7100" d="m303.495 117.914-7.403-6.957 1.34-1.483 5.836 5.473 10.207-13.119 1.547 1.254z"/><path fill="#000" d="M236.247 150.919a1.08 1.08 0 0 0-.439-.801q-.388-.286-1.053-.286a2 2 0 0 0-.762.128 1.1 1.1 0 0 0-.478.345.83.83 0 0 0-.162.503.7.7 0 0 0 .098.409q.111.175.303.303.191.124.443.217.252.09.537.154l.784.187q.571.128 1.048.341t.827.524q.35.312.541.733.196.422.201.967-.005.802-.41 1.39-.4.583-1.159.907-.754.32-1.819.32-1.057 0-1.841-.324-.78-.324-1.219-.959-.435-.639-.456-1.581h1.786q.03.44.251.733a1.4 1.4 0 0 0 .601.439q.38.145.856.145.47 0 .814-.136.35-.137.542-.38a.88.88 0 0 0 .191-.558.73.73 0 0 0-.174-.494 1.3 1.3 0 0 0-.503-.341 5 5 0 0 0-.806-.256l-.95-.238q-1.104-.269-1.743-.84-.64-.571-.635-1.538-.004-.793.422-1.385.43-.592 1.181-.925.75-.332 1.704-.332.972 0 1.696.332.729.333 1.134.925t.417 1.372zm6.078 6.345q-1.01 0-1.739-.409a2.8 2.8 0 0 1-1.117-1.167q-.392-.759-.392-1.795 0-1.01.392-1.772.393-.763 1.104-1.189.716-.426 1.679-.426.648 0 1.206.208.563.205.98.618.422.414.656 1.04.235.623.235 1.458v.498h-5.527v-1.125h3.818q0-.392-.17-.694a1.2 1.2 0 0 0-.473-.473 1.35 1.35 0 0 0-.695-.175q-.414 0-.733.192-.315.188-.494.507-.18.315-.184.703v1.069q0 .486.179.84.184.353.516.545.333.192.788.192.303 0 .554-.085t.431-.256a1.1 1.1 0 0 0 .273-.417l1.678.11a2.3 2.3 0 0 1-.524 1.057 2.6 2.6 0 0 1-1.014.699q-.618.247-1.427.247m7.146 0q-1.006 0-1.73-.426a2.9 2.9 0 0 1-1.108-1.193q-.384-.763-.384-1.756 0-1.005.388-1.764a2.9 2.9 0 0 1 1.112-1.189q.72-.43 1.713-.43.856 0 1.5.311.644.31 1.019.873t.413 1.321h-1.713a1.32 1.32 0 0 0-.383-.788q-.307-.303-.806-.303-.422 0-.737.231-.31.225-.486.66-.175.435-.175 1.053 0 .626.171 1.065.175.44.49.669t.737.23q.312 0 .558-.128.252-.128.414-.37a1.4 1.4 0 0 0 .217-.593h1.713a2.7 2.7 0 0 1-.409 1.321 2.47 2.47 0 0 1-1.001.887q-.64.32-1.513.319m8.283-2.915v-3.758h1.815v6.545h-1.743v-1.189h-.068a1.93 1.93 0 0 1-.737.925q-.511.35-1.249.35-.656 0-1.154-.299a2.04 2.04 0 0 1-.78-.848q-.278-.55-.282-1.316v-4.168h1.816v3.844q.004.579.311.916t.822.337a1.3 1.3 0 0 0 .614-.15q.286-.153.46-.451.18-.298.175-.738m3.267 2.787v-6.545h1.76v1.142h.068q.18-.61.601-.92.422-.316.972-.316.137 0 .294.017t.277.047v1.611a2.3 2.3 0 0 0-.354-.068q-.225-.03-.413-.03-.4 0-.716.175a1.3 1.3 0 0 0-.494.477q-.18.306-.179.707v3.703zm7.589.128q-1.01 0-1.739-.409a2.8 2.8 0 0 1-1.116-1.167q-.393-.759-.392-1.795 0-1.01.392-1.772a2.9 2.9 0 0 1 1.103-1.189q.716-.426 1.679-.426.648 0 1.206.208.563.205.98.618.422.414.657 1.04.234.623.234 1.458v.498h-5.527v-1.125h3.818q0-.392-.17-.694a1.2 1.2 0 0 0-.473-.473 1.35 1.35 0 0 0-.695-.175q-.413 0-.733.192-.315.188-.494.507-.18.315-.183.703v1.069q0 .486.179.84.183.353.515.545.333.192.789.192.302 0 .554-.085.251-.085.43-.256a1.1 1.1 0 0 0 .273-.417l1.679.11a2.3 2.3 0 0 1-.525 1.057 2.6 2.6 0 0 1-1.014.699q-.618.247-1.427.247m9.949 0q-1.01 0-1.739-.409a2.8 2.8 0 0 1-1.116-1.167q-.392-.759-.392-1.795 0-1.01.392-1.772a2.9 2.9 0 0 1 1.104-1.189q.715-.426 1.679-.426.647 0 1.205.208a2.7 2.7 0 0 1 .981.618q.422.414.656 1.04.234.623.234 1.458v.498h-5.527v-1.125h3.818q0-.392-.17-.694a1.2 1.2 0 0 0-.473-.473 1.34 1.34 0 0 0-.695-.175q-.413 0-.733.192-.315.188-.494.507-.178.315-.183.703v1.069q0 .486.179.84.183.353.515.545.333.192.789.192.302 0 .554-.085.251-.085.43-.256a1.1 1.1 0 0 0 .273-.417l1.679.11a2.3 2.3 0 0 1-.524 1.057 2.65 2.65 0 0 1-1.014.699q-.618.247-1.428.247m4.189-.128v-6.545h1.73v1.155h.077a1.8 1.8 0 0 1 .682-.908q.476-.332 1.142-.332.673 0 1.146.336.472.333.631.904h.068q.2-.563.724-.899.529-.341 1.249-.341.916 0 1.487.583.575.58.575 1.645v4.402h-1.811v-4.044q0-.545-.29-.818a1 1 0 0 0-.724-.273q-.495 0-.771.316-.277.31-.277.822v3.997h-1.76v-4.082q0-.482-.277-.767-.273-.285-.72-.286-.303 0-.546.154-.238.149-.379.422a1.34 1.34 0 0 0-.141.63v3.929zm12.812.124q-.627 0-1.117-.217a1.8 1.8 0 0 1-.775-.652q-.282-.435-.282-1.083 0-.545.201-.916.2-.37.545-.597.346-.225.784-.34.444-.116.929-.162.572-.06.921-.111.35-.056.507-.162a.36.36 0 0 0 .157-.315v-.026q0-.405-.255-.626-.252-.222-.716-.222-.49 0-.78.217a1 1 0 0 0-.384.537l-1.679-.136q.129-.597.503-1.031a2.4 2.4 0 0 1 .968-.674q.596-.238 1.38-.238.546 0 1.044.128.503.128.891.396.392.268.618.69.226.418.226 1.002v4.414h-1.722v-.907h-.051a1.9 1.9 0 0 1-.422.541 2 2 0 0 1-.635.362 2.6 2.6 0 0 1-.856.128m.52-1.253q.4 0 .707-.158a1.25 1.25 0 0 0 .481-.434q.175-.273.175-.618v-.695a1 1 0 0 1-.234.103 5 5 0 0 1-.695.144l-.332.047a2.3 2.3 0 0 0-.558.149.9.9 0 0 0-.371.277.68.68 0 0 0-.132.427q0 .37.268.566.273.192.691.192m4.574 1.129v-6.545h1.815v6.545zm.912-7.389a1 1 0 0 1-.695-.268.87.87 0 0 1-.285-.652q0-.375.285-.644a.98.98 0 0 1 .695-.272q.405 0 .69.272.29.269.29.644 0 .38-.29.652a.97.97 0 0 1-.69.268m4.173-1.338v8.727h-1.815v-8.727zm-57.185 26.318q-.882 0-1.513-.243-.626-.238-.997-.652a2 2 0 0 1-.481-.929l1.679-.225q.076.195.243.366t.438.273q.278.106.674.106.592 0 .976-.289.387-.286.387-.959v-1.198h-.076a1.74 1.74 0 0 1-.972.912q-.375.154-.895.154-.737 0-1.342-.341-.601-.345-.959-1.053-.354-.712-.354-1.798 0-1.113.363-1.858.362-.745.963-1.117.605-.37 1.325-.37.55 0 .92.187.371.184.597.46.23.273.354.537h.068v-1.099h1.802v6.609q0 .836-.409 1.398-.408.562-1.133.844-.72.285-1.658.285m.039-4.048q.438 0 .741-.217.307-.222.469-.631.166-.413.166-.989 0-.575-.162-.997a1.45 1.45 0 0 0-.469-.66 1.2 1.2 0 0 0-.745-.235q-.448 0-.755.243a1.46 1.46 0 0 0-.464.665 2.8 2.8 0 0 0-.158.984q0 .567.158.98.162.41.464.635.307.222.755.222m6.473 1.581q-.627 0-1.117-.217a1.8 1.8 0 0 1-.776-.652q-.28-.435-.281-1.083 0-.545.201-.916.2-.37.545-.597.345-.225.784-.34.443-.116.929-.162.572-.06.92-.111.35-.056.508-.162a.36.36 0 0 0 .157-.315v-.026q0-.405-.255-.626-.252-.222-.716-.222-.49 0-.78.217a1 1 0 0 0-.384.537l-1.679-.136q.128-.597.503-1.031a2.4 2.4 0 0 1 .968-.674q.595-.238 1.38-.238.546 0 1.044.128.502.128.891.396.391.268.618.69.226.418.226 1.002v4.414h-1.722v-.907h-.051a1.9 1.9 0 0 1-.422.541 2 2 0 0 1-.635.362 2.6 2.6 0 0 1-.856.128m.519-1.253q.4 0 .708-.158a1.25 1.25 0 0 0 .481-.434q.175-.273.175-.618v-.695a1 1 0 0 1-.234.103 5 5 0 0 1-.328.081q-.184.034-.367.063l-.332.047a2.3 2.3 0 0 0-.559.149.9.9 0 0 0-.37.277.68.68 0 0 0-.132.427q0 .37.268.566.273.192.69.192m8.057-5.416v1.364H259.7v-1.364zm-3.047-1.568h1.815v6.102q0 .252.077.392a.42.42 0 0 0 .213.192.9.9 0 0 0 .324.055q.128 0 .255-.021l.196-.038.286 1.35a5 5 0 0 1-.384.098q-.246.06-.601.073-.656.026-1.15-.175a1.6 1.6 0 0 1-.763-.622q-.273-.422-.268-1.065zm7.142 8.241q-1.01 0-1.739-.409a2.8 2.8 0 0 1-1.116-1.167q-.392-.759-.392-1.795 0-1.01.392-1.772a2.9 2.9 0 0 1 1.103-1.189q.716-.426 1.679-.426.648 0 1.206.208.563.205.98.618.422.414.657 1.04.234.623.234 1.458v.498h-5.527v-1.125h3.818q0-.392-.17-.694a1.2 1.2 0 0 0-.473-.473 1.35 1.35 0 0 0-.695-.175q-.413 0-.733.192-.315.188-.494.507-.18.315-.183.703v1.069q0 .486.179.84.183.353.515.545.333.192.789.192.302 0 .553-.085t.431-.256a1.1 1.1 0 0 0 .273-.417l1.679.11a2.3 2.3 0 0 1-.525 1.057 2.6 2.6 0 0 1-1.014.699q-.618.247-1.427.247m5.433-.128-1.781-6.545h1.836l1.015 4.398h.059l1.057-4.398h1.803l1.073 4.372h.056l.997-4.372h1.832l-1.777 6.545h-1.921l-1.125-4.116h-.081l-1.125 4.116zm10.782.124q-.626 0-1.116-.217a1.8 1.8 0 0 1-.776-.652q-.28-.435-.281-1.083 0-.545.2-.916.201-.37.546-.597.345-.225.784-.34.443-.116.929-.162.57-.06.92-.111.35-.056.507-.162a.36.36 0 0 0 .158-.315v-.026q0-.405-.256-.626-.25-.222-.716-.222-.49 0-.779.217a1 1 0 0 0-.384.537l-1.679-.136q.128-.597.503-1.031.375-.439.967-.674.597-.238 1.381-.238.546 0 1.044.128.502.128.891.396.392.268.617.69.226.418.226 1.002v4.414h-1.721v-.907h-.051a1.9 1.9 0 0 1-.422.541 2 2 0 0 1-.635.362 2.6 2.6 0 0 1-.857.128m.52-1.253q.4 0 .708-.158a1.25 1.25 0 0 0 .481-.434q.175-.273.175-.618v-.695a1 1 0 0 1-.235.103 5 5 0 0 1-.328.081q-.183.034-.366.063l-.333.047a2.3 2.3 0 0 0-.558.149.9.9 0 0 0-.371.277.68.68 0 0 0-.132.427q0 .37.269.566.273.192.69.192m5.461 3.584a3.7 3.7 0 0 1-.648-.055 2.4 2.4 0 0 1-.494-.133l.409-1.355q.32.099.575.107a.73.73 0 0 0 .448-.119q.191-.129.311-.435l.106-.277-2.348-6.733h1.91l1.355 4.807h.068l1.368-4.807h1.922l-2.544 7.253a3.1 3.1 0 0 1-.499.92q-.31.397-.788.61-.478.216-1.151.217m386.861-2.455v-8.727h5.88v1.521h-4.035v2.08h3.733v1.521h-3.733v2.084h4.052v1.521zm7.313 0v-6.545h1.73v1.155h.077q.204-.576.682-.908.477-.332 1.142-.332.674 0 1.146.336.474.333.631.904h.068a1.74 1.74 0 0 1 .725-.899q.528-.341 1.248-.341.917 0 1.487.583.576.58.576 1.645v4.402h-1.811v-4.044q0-.545-.29-.818a1.02 1.02 0 0 0-.725-.273q-.493 0-.771.316-.277.31-.277.822v3.997h-1.76v-4.082q0-.482-.277-.767-.273-.285-.72-.286-.303 0-.546.154-.238.149-.379.422-.14.269-.14.63v3.929zm12.812.124a2.7 2.7 0 0 1-1.116-.217 1.8 1.8 0 0 1-.776-.652q-.281-.435-.281-1.083 0-.545.2-.916.2-.37.545-.597.346-.225.785-.34.443-.116.929-.162.57-.06.92-.111.35-.056.507-.162a.36.36 0 0 0 .158-.315v-.026q0-.405-.256-.626-.251-.222-.716-.222-.49 0-.78.217a1 1 0 0 0-.383.537l-1.679-.136q.128-.597.503-1.031.375-.439.967-.674.597-.238 1.381-.238.544 0 1.044.128.503.128.89.396.393.268.618.69.226.418.226 1.002v4.414h-1.721v-.907h-.052a1.9 1.9 0 0 1-.421.541 2 2 0 0 1-.635.362 2.6 2.6 0 0 1-.857.128m.52-1.253q.4 0 .707-.158.307-.161.482-.434.174-.273.175-.618v-.695a1 1 0 0 1-.235.103 5 5 0 0 1-.328.081q-.183.034-.366.063l-.333.047a2.3 2.3 0 0 0-.558.149.9.9 0 0 0-.371.277.68.68 0 0 0-.132.427q0 .37.269.566.272.192.69.192m4.574 1.129v-6.545h1.816v6.545zm.912-7.389a1 1 0 0 1-.694-.268.87.87 0 0 1-.286-.652q0-.375.286-.644a.98.98 0 0 1 .694-.272q.405 0 .691.272.29.269.29.644 0 .38-.29.652a.97.97 0 0 1-.691.268m4.173-1.338v8.727h-1.815v-8.727zm4.232 11.182v-9h1.79v1.099h.081q.119-.264.345-.537.23-.276.596-.46.371-.187.921-.187.715 0 1.321.375.605.37.967 1.12.363.746.362 1.871 0 1.095-.353 1.85-.35.75-.955 1.137-.6.384-1.346.384-.529 0-.9-.175a1.9 1.9 0 0 1-.6-.439 2.2 2.2 0 0 1-.358-.541h-.056v3.503zm1.777-5.727q0 .583.162 1.018t.469.678q.306.238.745.238.444 0 .75-.243.308-.247.465-.681.162-.44.162-1.01a2.9 2.9 0 0 0-.158-.998 1.5 1.5 0 0 0-.464-.673 1.18 1.18 0 0 0-.755-.243q-.442 0-.75.235a1.5 1.5 0 0 0-.464.664 2.9 2.9 0 0 0-.162 1.015m5.817 3.272v-6.545h1.76v1.142h.068q.178-.61.601-.92.422-.316.971-.316.136 0 .294.017t.277.047v1.611a2.3 2.3 0 0 0-.353-.068 3 3 0 0 0-.414-.03 1.45 1.45 0 0 0-.716.175 1.3 1.3 0 0 0-.494.477q-.179.306-.179.707v3.703zm7.563.128q-.993 0-1.718-.422a2.9 2.9 0 0 1-1.112-1.184q-.392-.763-.392-1.769 0-1.014.392-1.773a2.85 2.85 0 0 1 1.112-1.184q.725-.426 1.718-.426.991 0 1.713.426a2.84 2.84 0 0 1 1.116 1.184q.392.759.392 1.773 0 1.006-.392 1.769-.392.758-1.116 1.184-.722.423-1.713.422m.008-1.406q.452 0 .754-.256a1.6 1.6 0 0 0 .456-.707q.158-.447.158-1.019 0-.57-.158-1.018a1.6 1.6 0 0 0-.456-.707 1.1 1.1 0 0 0-.754-.26q-.456 0-.767.26a1.6 1.6 0 0 0-.465.707 3.1 3.1 0 0 0-.153 1.018q0 .572.153 1.019.158.447.465.707.31.256.767.256m10.285-5.267-2.289 6.545h-2.045l-2.288-6.545h1.917l1.36 4.683h.068l1.355-4.683zm.929 6.545v-6.545h1.815v6.545zm.912-7.389a1 1 0 0 1-.695-.268.87.87 0 0 1-.285-.652q0-.375.285-.644a.98.98 0 0 1 .695-.272q.405 0 .69.272.29.269.29.644 0 .38-.29.652a.97.97 0 0 1-.69.268m4.769 7.496q-.745 0-1.351-.384-.6-.387-.954-1.137-.35-.755-.35-1.85 0-1.124.363-1.871.361-.75.963-1.12.605-.375 1.325-.375.55 0 .916.187.37.184.597.46.23.273.349.537h.056v-3.281h1.811v8.727h-1.79v-1.048h-.077a2.3 2.3 0 0 1-.362.541 1.8 1.8 0 0 1-.601.439q-.366.175-.895.175m.576-1.445q.438 0 .741-.238a1.5 1.5 0 0 0 .469-.678 2.8 2.8 0 0 0 .166-1.018q0-.585-.162-1.015a1.45 1.45 0 0 0-.469-.664 1.2 1.2 0 0 0-.745-.235q-.448 0-.755.243a1.5 1.5 0 0 0-.464.673 2.9 2.9 0 0 0-.158.998q0 .57.158 1.01.162.434.464.681.307.243.755.243m7.624 1.466q-1.01 0-1.738-.409a2.8 2.8 0 0 1-1.117-1.167q-.392-.759-.392-1.795 0-1.01.392-1.772a2.9 2.9 0 0 1 1.104-1.189q.716-.426 1.679-.426.648 0 1.206.208.562.205.98.618.422.414.656 1.04.234.623.234 1.458v.498h-5.527v-1.125h3.819q0-.392-.171-.694a1.2 1.2 0 0 0-.473-.473 1.34 1.34 0 0 0-.694-.175q-.414 0-.733.192a1.35 1.35 0 0 0-.495.507q-.179.315-.183.703v1.069q0 .486.179.84.183.353.516.545.332.192.788.192.303 0 .554-.085a1.1 1.1 0 0 0 .703-.673l1.679.11a2.3 2.3 0 0 1-.524 1.057 2.6 2.6 0 0 1-1.014.699q-.618.247-1.428.247m4.189-.128v-6.545h1.76v1.142h.068q.18-.61.601-.92.421-.316.972-.316.137 0 .294.017t.277.047v1.611a2.4 2.4 0 0 0-.354-.068 3 3 0 0 0-.413-.03q-.4 0-.716.175a1.3 1.3 0 0 0-.495.477q-.179.306-.179.707v3.703zm-71.644 10.637q0-1.602.422-2.949a8.8 8.8 0 0 1 1.232-2.485h1.167a5.4 5.4 0 0 0-.588 1.036q-.272.614-.477 1.347-.205.728-.319 1.512-.116.78-.116 1.539 0 1.014.201 2.054.2 1.04.541 1.93.34.89.758 1.453h-1.167a8.8 8.8 0 0 1-1.232-2.484q-.422-1.347-.422-2.953m5.004 4.363h-1.397l3.14-8.727h1.522l3.14 8.727h-1.398l-2.467-7.142h-.068zm.235-3.417h4.534v1.108h-4.534zm8.602-.469v3.886h-1.274v-6.545h1.223v1.065h.081q.226-.52.708-.835.485-.315 1.223-.315.669 0 1.171.281.504.277.78.827.277.549.277 1.359v4.163h-1.274v-4.01q0-.711-.371-1.112-.37-.405-1.018-.405-.444 0-.788.192a1.4 1.4 0 0 0-.542.563q-.196.366-.196.886m6.469 6.341q-.286 0-.52-.047a1.6 1.6 0 0 1-.349-.094l.307-1.044q.35.094.622.081a.74.74 0 0 0 .481-.204q.213-.192.375-.627l.158-.434-2.395-6.631h1.364l1.657 5.079h.069l1.657-5.079h1.368l-2.697 7.419a3 3 0 0 1-.478.865 1.84 1.84 0 0 1-.69.537 2.3 2.3 0 0 1-.929.179m14.03-8.889a1.25 1.25 0 0 0-.563-.938q-.494-.336-1.244-.336a2.3 2.3 0 0 0-.929.17 1.43 1.43 0 0 0-.61.46 1.1 1.1 0 0 0-.213.661 1 1 0 0 0 .145.537q.15.226.388.379.243.149.52.251.277.099.533.162l.852.222q.418.102.856.277.44.174.814.46.375.285.605.707.235.423.235 1.01 0 .742-.384 1.317-.379.576-1.103.908-.72.332-1.743.332-.98 0-1.696-.311a2.6 2.6 0 0 1-1.121-.882q-.405-.575-.448-1.364h1.322q.037.474.306.789.273.31.695.464.426.15.933.149.558 0 .993-.174.44-.18.69-.495.252-.32.252-.745 0-.389-.222-.635a1.6 1.6 0 0 0-.592-.409 6 6 0 0 0-.84-.286l-1.031-.281q-1.048-.285-1.662-.84-.609-.554-.609-1.466 0-.753.409-1.316a2.7 2.7 0 0 1 1.108-.874q.698-.315 1.577-.315.886 0 1.564.311.681.311 1.073.856.393.542.409 1.245zm2.962-2.293h1.598l2.779 6.784h.102l2.778-6.784h1.598v8.727h-1.252v-6.315h-.081l-2.574 6.303h-1.04l-2.574-6.307h-.081v6.319h-1.253zm10.339 1.134v-1.134h6.755v1.134h-2.723v7.593h-1.313v-7.593zm8.247 7.593v-8.727h3.111q1.019 0 1.688.371a2.4 2.4 0 0 1 1.001 1.014q.333.639.332 1.44 0 .806-.336 1.449a2.44 2.44 0 0 1-1.006 1.014q-.669.372-1.683.371h-2.139v-1.116h2.019q.643 0 1.045-.222.4-.225.588-.614.187-.387.187-.882a2 2 0 0 0-.187-.877 1.35 1.35 0 0 0-.593-.601q-.4-.218-1.057-.218h-1.653v7.598zm-39.488 10.053-1.155.204a1.4 1.4 0 0 0-.23-.421 1.14 1.14 0 0 0-.418-.329 1.5 1.5 0 0 0-.66-.127q-.541 0-.904.243-.362.239-.362.617 0 .328.243.529.243.2.784.328l1.04.239q.903.208 1.346.643t.444 1.129q0 .588-.341 1.049-.337.456-.942.716-.601.26-1.393.259-1.1 0-1.795-.468-.695-.474-.852-1.343l1.232-.187q.114.481.473.729.357.242.933.242.627 0 1.001-.259.375-.265.375-.644a.67.67 0 0 0-.23-.516q-.226-.209-.694-.315l-1.108-.243q-.917-.209-1.355-.665-.435-.456-.435-1.154 0-.58.324-1.015t.895-.677q.57-.247 1.308-.247 1.06 0 1.67.46.61.456.806 1.223m4.35 5.079q-.968 0-1.667-.413a2.8 2.8 0 0 1-1.073-1.172q-.375-.758-.375-1.777 0-1.005.375-1.772a2.9 2.9 0 0 1 1.056-1.198q.682-.43 1.594-.43.554 0 1.074.183t.933.575a2.7 2.7 0 0 1 .652 1.019q.239.622.239 1.512v.452h-5.203v-.954h3.954q0-.503-.204-.891a1.55 1.55 0 0 0-1.436-.844q-.537 0-.938.264a1.8 1.8 0 0 0-.614.682 2 2 0 0 0-.213.908v.746q0 .655.231 1.116.234.46.652.703.417.239.975.239.363 0 .661-.102.298-.106.516-.316.216-.209.332-.515l1.206.217q-.145.532-.52.933-.37.396-.933.618a3.5 3.5 0 0 1-1.274.217m4.222-.132v-6.545h1.231v1.04h.068q.18-.53.631-.831a1.8 1.8 0 0 1 1.031-.307q.12 0 .281.008.167.009.26.022v1.218a2 2 0 0 0-.272-.046 3 3 0 0 0-.392-.03q-.453 0-.806.192a1.42 1.42 0 0 0-.758 1.282v3.997zm10.404-6.545-2.374 6.545h-1.364l-2.377-6.545h1.367l1.658 5.037h.068l1.654-5.037zm1.197 6.545v-6.545h1.274v6.545zm.644-7.555a.8.8 0 0 1-.571-.222.72.72 0 0 1-.235-.537q0-.315.235-.536a.8.8 0 0 1 .571-.226q.332 0 .566.226a.7.7 0 0 1 .239.536q0 .312-.239.537a.8.8 0 0 1-.566.222m5.101 7.687q-.95 0-1.636-.43a2.85 2.85 0 0 1-1.048-1.197q-.367-.763-.367-1.748 0-.997.375-1.759.375-.768 1.057-1.198t1.607-.43q.745 0 1.329.277.583.272.942.767.362.493.43 1.155h-1.24a1.5 1.5 0 0 0-.468-.793q-.363-.333-.972-.332-.533 0-.933.281a1.8 1.8 0 0 0-.618.792q-.222.512-.222 1.211 0 .716.218 1.235.216.52.613.806.4.285.942.285.362 0 .656-.132.298-.136.499-.388.204-.25.285-.605h1.24a2.4 2.4 0 0 1-.413 1.134q-.345.499-.925.784-.574.285-1.351.285m6.873 0q-.967 0-1.666-.413a2.8 2.8 0 0 1-1.074-1.172q-.375-.758-.375-1.777 0-1.005.375-1.772a2.9 2.9 0 0 1 1.057-1.198q.682-.43 1.594-.43.554 0 1.073.183.52.183.934.575.413.392.652 1.019.238.622.238 1.512v.452h-5.203v-.954h3.955q0-.503-.205-.891a1.55 1.55 0 0 0-1.436-.844q-.537 0-.937.264a1.8 1.8 0 0 0-.614.682 2 2 0 0 0-.213.908v.746q0 .655.23 1.116.234.46.652.703.418.239.976.239.362 0 .66-.102.299-.106.516-.316a1.36 1.36 0 0 0 .332-.515l1.206.217q-.144.532-.52.933-.37.396-.933.618a3.5 3.5 0 0 1-1.274.217m6.672-3.754q0 1.607-.422 2.953a8.8 8.8 0 0 1-1.231 2.485h-1.168a5.4 5.4 0 0 0 .588-1.036q.273-.613.478-1.342.204-.733.319-1.517a10.6 10.6 0 0 0 .115-1.543q0-1.01-.2-2.05a11.5 11.5 0 0 0-.541-1.93q-.341-.89-.759-1.453h1.168q.81 1.138 1.231 2.484.423 1.347.422 2.949M410.272 94.707a1 1 0 0 0 0-1.414l-6.364-6.364a1 1 0 1 0-1.414 1.414L408.151 94l-5.657 5.657a1 1 0 0 0 1.414 1.414zM409.565 93h-66v2h66zm55.988 64.136v-8.727h5.881v1.521h-4.035v2.08h3.733v1.521h-3.733v2.084h4.052v1.521zm8.831-6.545 1.202 2.288 1.231-2.288h1.863l-1.897 3.273 1.948 3.272h-1.854l-1.291-2.262-1.27 2.262h-1.875l1.943-3.272-1.875-3.273zm5.374 6.545v-6.545h1.815v6.545zm.912-7.389a1 1 0 0 1-.695-.268.87.87 0 0 1-.286-.652q0-.375.286-.644a.98.98 0 0 1 .695-.272q.404 0 .69.272.29.269.29.644 0 .38-.29.652a.97.97 0 0 1-.69.268m7.803 2.71-1.662.103a.86.86 0 0 0-.183-.384 1 1 0 0 0-.371-.277 1.3 1.3 0 0 0-.541-.106q-.421 0-.712.179-.29.174-.289.468 0 .235.187.397.188.161.644.26l1.184.238q.955.196 1.424.631t.468 1.142q0 .643-.379 1.129-.375.486-1.031.759-.652.268-1.504.268-1.3 0-2.071-.541a2.1 2.1 0 0 1-.9-1.483l1.786-.094a.92.92 0 0 0 .392.605q.31.205.797.205.477 0 .767-.183.294-.188.298-.482a.5.5 0 0 0-.209-.405q-.204-.162-.63-.247l-1.134-.226q-.959-.191-1.427-.664-.465-.474-.465-1.206 0-.631.341-1.087.346-.456.967-.703.627-.247 1.466-.247 1.24 0 1.952.524.716.524.835 1.427m4.774-1.866v1.364h-3.942v-1.364zm-3.047-1.568h1.815v6.102q0 .252.077.392a.42.42 0 0 0 .213.192.9.9 0 0 0 .324.055q.128 0 .256-.021l.196-.038.285 1.35a5 5 0 0 1-.383.098q-.247.06-.601.073-.656.026-1.151-.175a1.6 1.6 0 0 1-.762-.622q-.273-.422-.269-1.065zm4.23 8.113v-6.545h1.815v6.545zm.911-7.389a1 1 0 0 1-.694-.268.87.87 0 0 1-.286-.652q0-.375.286-.644a.98.98 0 0 1 .694-.272q.405 0 .691.272.29.269.29.644 0 .38-.29.652a.97.97 0 0 1-.691.268m4.173 3.605v3.784h-1.815v-6.545h1.73v1.155h.077q.217-.571.729-.904.51-.336 1.24-.336.68 0 1.189.298.507.299.788.852.28.55.281 1.313v4.167h-1.815v-3.843q.004-.601-.307-.938-.31-.34-.857-.341a1.3 1.3 0 0 0-.647.158q-.277.157-.435.46a1.6 1.6 0 0 0-.158.72m8.599 6.375q-.883 0-1.513-.243-.627-.238-.997-.652a2 2 0 0 1-.482-.929l1.679-.225q.076.195.243.366t.439.273q.277.106.673.106.593 0 .976-.289.388-.286.388-.959v-1.198h-.077a1.7 1.7 0 0 1-.358.516 1.8 1.8 0 0 1-.613.396q-.375.154-.895.154-.738 0-1.343-.341-.6-.345-.958-1.053-.354-.712-.354-1.798 0-1.113.362-1.858.363-.745.963-1.117.605-.37 1.326-.37.55 0 .92.187.37.184.597.46.23.273.353.537h.068v-1.099h1.803v6.609q0 .836-.409 1.398-.41.562-1.134.844-.72.285-1.657.285m.038-4.048q.44 0 .742-.217.306-.222.468-.631.167-.413.167-.989 0-.575-.162-.997a1.46 1.46 0 0 0-.469-.66 1.2 1.2 0 0 0-.746-.235q-.448 0-.754.243-.308.239-.465.665a2.8 2.8 0 0 0-.157.984q0 .567.157.98.162.41.465.635.306.222.754.222m10.367 1.585q-1.01 0-1.739-.409a2.8 2.8 0 0 1-1.116-1.167q-.392-.759-.392-1.795 0-1.01.392-1.772a2.9 2.9 0 0 1 1.104-1.189q.715-.426 1.678-.426.648 0 1.206.208a2.7 2.7 0 0 1 .981.618q.422.414.656 1.04.234.623.234 1.458v.498h-5.527v-1.125h3.818q0-.392-.17-.694a1.2 1.2 0 0 0-.473-.473 1.34 1.34 0 0 0-.695-.175q-.413 0-.733.192-.315.188-.494.507-.178.315-.183.703v1.069q0 .486.179.84.183.353.515.545.333.192.789.192.302 0 .554-.085.251-.085.43-.256a1.1 1.1 0 0 0 .273-.417l1.679.11a2.3 2.3 0 0 1-.524 1.057q-.393.447-1.015.699-.617.247-1.427.247m4.189-.128v-6.545h1.73v1.155h.077q.204-.576.681-.908t1.143-.332q.673 0 1.146.336.472.333.631.904h.068q.2-.563.724-.899.529-.341 1.249-.341.916 0 1.487.583.575.58.575 1.645v4.402h-1.811v-4.044q0-.545-.29-.818a1 1 0 0 0-.724-.273q-.495 0-.771.316-.277.31-.277.822v3.997h-1.76v-4.082q0-.482-.277-.767-.273-.285-.72-.286-.303 0-.546.154-.238.149-.379.422a1.34 1.34 0 0 0-.141.63v3.929zm12.812.124q-.627 0-1.117-.217a1.8 1.8 0 0 1-.775-.652q-.282-.435-.282-1.083 0-.545.201-.916.2-.37.545-.597.346-.225.784-.34.444-.116.929-.162.571-.06.921-.111.35-.056.507-.162a.36.36 0 0 0 .157-.315v-.026q0-.405-.255-.626-.252-.222-.716-.222-.49 0-.78.217a1 1 0 0 0-.384.537l-1.679-.136q.129-.597.503-1.031a2.4 2.4 0 0 1 .968-.674q.596-.238 1.38-.238.546 0 1.044.128.503.128.891.396.392.268.618.69.226.418.226 1.002v4.414h-1.722v-.907h-.051a1.9 1.9 0 0 1-.422.541 2 2 0 0 1-.635.362 2.6 2.6 0 0 1-.856.128m.52-1.253q.4 0 .707-.158a1.25 1.25 0 0 0 .481-.434q.175-.273.175-.618v-.695a1 1 0 0 1-.234.103 5 5 0 0 1-.695.144l-.332.047a2.3 2.3 0 0 0-.558.149.9.9 0 0 0-.371.277.68.68 0 0 0-.132.427q0 .37.268.566.273.192.691.192m4.574 1.129v-6.545h1.815v6.545zm.912-7.389a1 1 0 0 1-.695-.268.87.87 0 0 1-.285-.652q0-.375.285-.644a.98.98 0 0 1 .695-.272q.405 0 .69.272.29.269.29.644 0 .38-.29.652a.97.97 0 0 1-.69.268m4.173-1.338v8.727h-1.815v-8.727zm-60.144 26.318q-.882 0-1.513-.243-.626-.238-.997-.652a2 2 0 0 1-.481-.929l1.679-.225q.076.195.243.366t.438.273q.278.106.674.106.592 0 .976-.289.387-.286.387-.959v-1.198h-.076a1.74 1.74 0 0 1-.972.912q-.375.154-.895.154-.737 0-1.342-.341-.601-.345-.959-1.053-.354-.712-.354-1.798 0-1.113.363-1.858.361-.745.963-1.117.605-.37 1.325-.37.55 0 .92.187.371.184.597.46.23.273.354.537h.068v-1.099h1.802v6.609q0 .836-.409 1.398-.408.562-1.133.844-.72.285-1.658.285m.039-4.048q.438 0 .741-.217.307-.222.469-.631.166-.413.166-.989 0-.575-.162-.997a1.45 1.45 0 0 0-.469-.66 1.2 1.2 0 0 0-.745-.235q-.448 0-.755.243a1.46 1.46 0 0 0-.464.665 2.8 2.8 0 0 0-.158.984q0 .567.158.98.162.41.464.635.307.222.755.222m6.473 1.581q-.627 0-1.117-.217a1.8 1.8 0 0 1-.776-.652q-.28-.435-.281-1.083 0-.545.201-.916.2-.37.545-.597.345-.225.784-.34.443-.116.929-.162.572-.06.92-.111.35-.056.508-.162a.36.36 0 0 0 .157-.315v-.026q0-.405-.255-.626-.252-.222-.716-.222-.49 0-.78.217a1 1 0 0 0-.384.537l-1.679-.136q.128-.597.503-1.031a2.4 2.4 0 0 1 .968-.674q.596-.238 1.38-.238.546 0 1.044.128.502.128.891.396.391.268.618.69.226.418.226 1.002v4.414h-1.722v-.907h-.051a1.9 1.9 0 0 1-.422.541 2 2 0 0 1-.635.362 2.6 2.6 0 0 1-.856.128m.519-1.253q.4 0 .708-.158a1.25 1.25 0 0 0 .481-.434q.175-.273.175-.618v-.695a1 1 0 0 1-.234.103 5 5 0 0 1-.328.081q-.184.034-.367.063l-.332.047a2.3 2.3 0 0 0-.559.149.9.9 0 0 0-.37.277.68.68 0 0 0-.132.427q0 .37.268.566.273.192.69.192m8.057-5.416v1.364H496.7v-1.364zm-3.047-1.568h1.815v6.102q0 .252.077.392a.42.42 0 0 0 .213.192.9.9 0 0 0 .324.055q.128 0 .255-.021l.196-.038.286 1.35a5 5 0 0 1-.384.098q-.246.06-.601.073-.656.026-1.15-.175a1.6 1.6 0 0 1-.763-.622q-.273-.422-.268-1.065zm7.142 8.241q-1.01 0-1.739-.409a2.8 2.8 0 0 1-1.116-1.167q-.392-.759-.392-1.795 0-1.01.392-1.772a2.9 2.9 0 0 1 1.103-1.189q.716-.426 1.679-.426.648 0 1.206.208.563.205.98.618.422.414.657 1.04.234.623.234 1.458v.498h-5.527v-1.125h3.818q0-.392-.17-.694a1.2 1.2 0 0 0-.473-.473 1.35 1.35 0 0 0-.695-.175q-.413 0-.733.192-.315.188-.494.507-.18.315-.183.703v1.069q0 .486.179.84.183.353.515.545.333.192.789.192.302 0 .553-.085t.431-.256a1.1 1.1 0 0 0 .273-.417l1.679.11a2.3 2.3 0 0 1-.525 1.057 2.6 2.6 0 0 1-1.014.699q-.618.247-1.427.247m5.433-.128-1.781-6.545h1.836l1.015 4.398h.059l1.057-4.398h1.803l1.073 4.372h.056l.997-4.372h1.832l-1.777 6.545h-1.921l-1.125-4.116h-.081l-1.125 4.116zm10.782.124q-.626 0-1.116-.217a1.8 1.8 0 0 1-.776-.652q-.28-.435-.281-1.083 0-.545.2-.916.201-.37.546-.597.345-.225.784-.34.443-.116.929-.162.57-.06.92-.111.35-.056.507-.162a.36.36 0 0 0 .158-.315v-.026q0-.405-.256-.626-.25-.222-.716-.222-.49 0-.779.217a1 1 0 0 0-.384.537l-1.679-.136q.128-.597.503-1.031.375-.439.967-.674.597-.238 1.381-.238.546 0 1.044.128.502.128.891.396.392.268.617.69.226.418.226 1.002v4.414h-1.721v-.907h-.051a1.9 1.9 0 0 1-.422.541 2 2 0 0 1-.635.362 2.6 2.6 0 0 1-.857.128m.52-1.253q.4 0 .708-.158a1.25 1.25 0 0 0 .481-.434q.175-.273.175-.618v-.695a1 1 0 0 1-.235.103 5 5 0 0 1-.328.081q-.183.034-.366.063l-.333.047a2.3 2.3 0 0 0-.558.149.9.9 0 0 0-.371.277.68.68 0 0 0-.132.427q0 .37.269.566.273.192.69.192m5.461 3.584a3.7 3.7 0 0 1-.648-.055 2.4 2.4 0 0 1-.494-.133l.409-1.355q.32.099.575.107a.73.73 0 0 0 .448-.119q.192-.129.311-.435l.106-.277-2.348-6.733h1.91l1.355 4.807h.068l1.368-4.807h1.922l-2.544 7.253a3.1 3.1 0 0 1-.499.92q-.31.397-.788.61-.478.216-1.151.217m-47.393 8.182q0-1.602.422-2.949a8.8 8.8 0 0 1 1.231-2.485h1.168a5.4 5.4 0 0 0-.588 1.036 10 10 0 0 0-.478 1.347q-.204.728-.319 1.512a10.5 10.5 0 0 0 .085 3.593q.2 1.04.541 1.93t.759 1.453h-1.168a8.8 8.8 0 0 1-1.231-2.484q-.423-1.347-.422-2.953m11.847 0q0 1.398-.511 2.403-.511 1.002-1.402 1.543-.887.537-2.016.537-1.133 0-2.024-.537-.887-.542-1.397-1.547-.512-1.006-.512-2.399 0-1.398.512-2.399.51-1.006 1.397-1.543.891-.541 2.024-.541 1.13 0 2.016.541.89.537 1.402 1.543.511 1 .511 2.399m-1.304 0q0-1.066-.345-1.794-.34-.733-.937-1.108a2.44 2.44 0 0 0-1.343-.38q-.753 0-1.346.38-.593.375-.938 1.108-.34.728-.341 1.794 0 1.065.341 1.798.345.729.938 1.108.593.375 1.346.375.75 0 1.343-.375.597-.38.937-1.108.345-.733.345-1.798m2.844 6.818v-9h1.244v1.061h.107q.11-.204.319-.473.21-.268.58-.469.37-.204.98-.204.792 0 1.415.4.622.4.976 1.155.358.755.358 1.815t-.354 1.82q-.354.755-.972 1.163-.618.405-1.41.405-.597 0-.976-.2a1.9 1.9 0 0 1-.588-.469 3.5 3.5 0 0 1-.328-.477h-.077v3.473zm1.248-5.727q0 .69.201 1.21.2.52.579.814.38.29.929.29.571 0 .955-.303.383-.308.579-.831.201-.524.201-1.18 0-.648-.196-1.164a1.8 1.8 0 0 0-.58-.814q-.383-.297-.959-.298-.554 0-.937.286-.38.286-.576.796-.196.512-.196 1.194m9.213-3.273v1.023h-3.575v-1.023zm-2.616-1.568h1.274v6.191q0 .372.111.559a.58.58 0 0 0 .285.251q.18.064.388.064.154 0 .269-.021l.179-.034.23 1.052a2 2 0 0 1-.316.085 2.4 2.4 0 0 1-.511.052 2.25 2.25 0 0 1-.937-.179 1.6 1.6 0 0 1-.704-.58q-.267-.391-.268-.984zm4.026 8.113v-6.545h1.274v6.545zm.643-7.555a.8.8 0 0 1-.571-.222.72.72 0 0 1-.234-.537.7.7 0 0 1 .234-.536.8.8 0 0 1 .571-.226q.333 0 .567.226a.7.7 0 0 1 .239.536q0 .312-.239.537a.8.8 0 0 1-.567.222m5.102 7.687q-.92 0-1.606-.421a2.85 2.85 0 0 1-1.066-1.181q-.379-.757-.379-1.773 0-1.018.379-1.781a2.84 2.84 0 0 1 1.066-1.184q.686-.422 1.606-.422t1.607.422q.685.422 1.065 1.184.38.763.379 1.781 0 1.016-.379 1.773a2.85 2.85 0 0 1-1.065 1.181q-.687.421-1.607.421m.005-1.069q.596 0 .988-.315.393-.317.58-.84.192-.523.192-1.155a3.3 3.3 0 0 0-.192-1.15 1.87 1.87 0 0 0-.58-.848q-.392-.32-.988-.32-.601 0-.998.32a1.9 1.9 0 0 0-.583.848 3.4 3.4 0 0 0-.188 1.15q0 .632.188 1.155.191.523.583.84.397.315.998.315m5.743-2.949v3.886h-1.274v-6.545h1.223v1.065h.081q.225-.52.707-.835.486-.315 1.223-.315.67 0 1.172.281.503.277.78.827.276.549.277 1.359v4.163h-1.274v-4.01q0-.711-.371-1.112-.37-.405-1.019-.405-.443 0-.788.192a1.37 1.37 0 0 0-.541.563q-.196.366-.196.886m7.802 4.031q-.621 0-1.125-.23a1.9 1.9 0 0 1-.796-.677q-.29-.444-.29-1.087 0-.554.213-.912t.575-.567a3 3 0 0 1 .81-.315q.447-.106.912-.162l.954-.111q.367-.047.533-.149t.166-.332v-.03q0-.559-.315-.865-.312-.307-.929-.307-.644 0-1.014.285a1.53 1.53 0 0 0-.508.627l-1.197-.273q.213-.597.622-.963.414-.37.95-.537.537-.17 1.13-.17.391 0 .831.093.443.09.826.333.389.243.635.694.248.449.248 1.164v4.346h-1.245v-.895h-.051a1.8 1.8 0 0 1-.371.486 2 2 0 0 1-.635.397 2.5 2.5 0 0 1-.929.157m.277-1.022q.53 0 .904-.209.379-.209.575-.546.2-.34.2-.728v-.844a.7.7 0 0 1-.264.128 4 4 0 0 1-.439.098l-.481.072-.392.051a3.2 3.2 0 0 0-.678.158q-.303.11-.486.32-.179.204-.179.545 0 .473.35.716.35.239.89.239m5.925-7.85v8.727h-1.274v-8.727zm4.164 5.105q0 1.607-.422 2.953a8.8 8.8 0 0 1-1.231 2.485h-1.168a5.4 5.4 0 0 0 .588-1.036q.273-.613.477-1.342.205-.733.32-1.517a10.6 10.6 0 0 0 .115-1.543q0-1.01-.2-2.05a11.5 11.5 0 0 0-.541-1.93q-.341-.89-.759-1.453h1.168q.81 1.138 1.231 2.484.423 1.347.422 2.949m123.925-88.807a1 1 0 0 0 0-1.414l-6.364-6.364a1 1 0 1 0-1.414 1.414L656.263 94l-5.657 5.657a.999.999 0 1 0 1.414 1.414zM657.677 93h-66v2h66z"/><g clip-path="url(#clip0_0_1)"><path fill="url(#paint0_radial_0_1)" d="m714.084 102.026-.224.136a8 8 0 0 0-1.009.722l.648-.456H719l1 7.572-5 5-5 3.475v4.008a8 8 0 0 0 3.857 6.844l5.264 3.186L708 139h-2.145l-3.998-2.42a8 8 0 0 1-3.857-6.844v-13.475c0-2.8 1.464-5.397 3.86-6.846l12-7.258q.111-.068.224-.131"/><path fill="url(#paint1_linear_0_1)" d="m714.084 102.026-.224.136a8 8 0 0 0-1.009.722l.648-.456H719l1 7.572-5 5-5 3.475v4.008a8 8 0 0 0 3.857 6.844l5.264 3.186L708 139h-2.145l-3.998-2.42a8 8 0 0 1-3.857-6.844v-13.475c0-2.8 1.464-5.397 3.86-6.846l12-7.258q.111-.068.224-.131"/><path fill="url(#paint2_radial_0_1)" d="M726 118v4.48a8 8 0 0 1-3.857 6.844l-12 7.264a8 8 0 0 1-8.008.161l11.722 7.095a8 8 0 0 0 8.286 0l12-7.264a8 8 0 0 0 3.857-6.844V126.5l-1-1.5z"/><path fill="url(#paint3_linear_0_1)" d="M726 118v4.48a8 8 0 0 1-3.857 6.844l-12 7.264a8 8 0 0 1-8.008.161l11.722 7.095a8 8 0 0 0 8.286 0l12-7.264a8 8 0 0 0 3.857-6.844V126.5l-1-1.5z"/><path fill="url(#paint4_radial_0_1)" d="m734.14 109.415-12-7.258a8 8 0 0 0-8.042-.139l-.238.144a8 8 0 0 0-3.86 6.845v9.484l3.86-2.334a8 8 0 0 1 8.28 0l12 7.258a8 8 0 0 1 3.856 6.584q.004-.131.004-.263V116.26a8 8 0 0 0-3.86-6.845"/><path fill="url(#paint5_linear_0_1)" d="m734.14 109.415-12-7.258a8 8 0 0 0-8.042-.139l-.238.144a8 8 0 0 0-3.86 6.845v9.484l3.86-2.334a8 8 0 0 1 8.28 0l12 7.258a8 8 0 0 1 3.856 6.584q.004-.131.004-.263V116.26a8 8 0 0 0-3.86-6.845"/></g><g clip-path="url(#clip1_0_1)"><path fill="#4285F4" d="M696.364 80h7.848V60.94L693 52.53v24.106A3.363 3.363 0 0 0 696.364 80"/><path fill="#34A853" d="M731.121 80h7.849a3.36 3.36 0 0 0 3.363-3.364V52.53l-11.212 8.41"/><path fill="#FBBC04" d="M731.121 46.364v14.575l11.212-8.409v-4.485c0-4.16-4.748-6.53-8.073-4.036"/><path fill="#EA4335" d="M704.212 60.94V46.363l13.455 10.09 13.454-10.09v14.575L717.667 71.03"/><path fill="#C5221F" d="M693 48.045v4.485l11.212 8.41V46.363l-3.139-2.355c-3.33-2.495-8.073-.123-8.073 4.036"/></g><path fill="#000" d="M833.652 94.9a1 1 0 0 0 0-1.414l-6.364-6.364a1 1 0 1 0-1.414 1.414l5.656 5.657-5.656 5.657a1 1 0 1 0 1.414 1.414zm-.707-1.707h-66v2h66zm-684.561 18.216h2.275l2.403 5.864h.103l2.403-5.864h2.276v8.727h-1.79v-5.68h-.072l-2.259 5.638h-1.219l-2.258-5.659h-.073v5.701h-1.789zm12.71 0 1.76 2.975h.068l1.769-2.975h2.084l-2.664 4.364 2.723 4.363h-2.122l-1.79-2.978h-.068l-1.79 2.978h-2.113l2.731-4.363-2.68-4.364zm9.591 8.727v-6.545h1.76v1.142h.068q.18-.61.601-.92.422-.316.972-.316.137 0 .294.017t.277.047v1.611a2.3 2.3 0 0 0-.354-.068q-.225-.03-.413-.03-.4 0-.716.175a1.3 1.3 0 0 0-.494.477q-.18.306-.179.707v3.703zm7.589.128q-1.01 0-1.739-.409a2.8 2.8 0 0 1-1.116-1.167q-.393-.759-.392-1.795 0-1.01.392-1.772a2.9 2.9 0 0 1 1.103-1.189q.716-.426 1.679-.426.648 0 1.206.208.563.206.98.618.422.414.657 1.04.234.622.234 1.458v.498h-5.527v-1.125h3.818q0-.392-.17-.694a1.2 1.2 0 0 0-.473-.473 1.35 1.35 0 0 0-.695-.175q-.413 0-.733.192-.315.188-.494.507-.179.315-.183.703v1.069q0 .486.179.84.183.353.515.545.333.192.789.192.302 0 .554-.085.251-.085.43-.256a1.1 1.1 0 0 0 .273-.417l1.679.11q-.129.606-.524 1.057-.393.447-1.015.699-.618.247-1.427.247m7.146 0q-1.005 0-1.73-.426a2.9 2.9 0 0 1-1.108-1.193q-.383-.763-.383-1.756 0-1.005.387-1.764a2.9 2.9 0 0 1 1.113-1.189q.72-.43 1.713-.43.857 0 1.5.311.643.31 1.018.873t.413 1.321h-1.713a1.32 1.32 0 0 0-.383-.788q-.307-.303-.806-.303-.422 0-.737.231-.31.225-.486.66-.174.435-.174 1.053 0 .626.17 1.065.175.44.49.669t.737.23q.312 0 .559-.128.25-.128.413-.37a1.4 1.4 0 0 0 .217-.593h1.713a2.67 2.67 0 0 1-.409 1.321 2.47 2.47 0 0 1-1.001.887q-.64.32-1.513.319m7.043 0q-.993 0-1.717-.422a2.9 2.9 0 0 1-1.112-1.184q-.393-.763-.393-1.769 0-1.014.393-1.773a2.85 2.85 0 0 1 1.112-1.184q.724-.426 1.717-.426t1.713.426a2.85 2.85 0 0 1 1.117 1.184q.392.759.392 1.773 0 1.006-.392 1.769-.393.758-1.117 1.184-.72.422-1.713.422m.009-1.406q.451 0 .754-.256a1.6 1.6 0 0 0 .456-.707q.157-.447.157-1.019 0-.57-.157-1.018a1.6 1.6 0 0 0-.456-.707 1.1 1.1 0 0 0-.754-.26q-.456 0-.767.26-.308.26-.465.707a3.1 3.1 0 0 0-.153 1.018q0 .572.153 1.019.157.447.465.707.31.256.767.256m4.393 1.278v-6.545h1.76v1.142h.068q.18-.61.601-.92.422-.316.972-.316.137 0 .294.017t.277.047v1.611a2.4 2.4 0 0 0-.354-.068 3 3 0 0 0-.413-.03q-.4 0-.716.175a1.3 1.3 0 0 0-.495.477q-.179.306-.179.707v3.703zm7.017.107q-.745 0-1.35-.384-.601-.387-.955-1.137-.35-.755-.349-1.85 0-1.125.362-1.871.362-.75.963-1.12.605-.375 1.325-.375.55 0 .916.187.371.183.597.46.23.273.349.537h.056v-3.281h1.811v8.727h-1.79v-1.048h-.077a2.3 2.3 0 0 1-.362.541 1.8 1.8 0 0 1-.601.439q-.366.175-.895.175m.576-1.445q.439 0 .741-.238a1.5 1.5 0 0 0 .469-.678 2.8 2.8 0 0 0 .166-1.018q0-.585-.162-1.015a1.45 1.45 0 0 0-.469-.664 1.2 1.2 0 0 0-.745-.235q-.448 0-.755.243a1.5 1.5 0 0 0-.464.673 2.9 2.9 0 0 0-.158.998q0 .57.158 1.01.162.434.464.681.307.243.755.243"/><defs><radialGradient id="paint0_radial_0_1" cx="0" cy="0" r="1" gradientTransform="rotate(110.528 317.7 301.455)scale(33.3657 58.1966)" gradientUnits="userSpaceOnUse"><stop offset=".064" stop-color="#AE7FE2"/><stop offset="1" stop-color="#0078D4"/></radialGradient><radialGradient id="paint2_radial_0_1" cx="0" cy="0" r="1" gradientTransform="matrix(30.7198 -4.51832 2.98465 20.29248 704.43 135.351)" gradientUnits="userSpaceOnUse"><stop offset=".134" stop-color="#D59DFF"/><stop offset="1" stop-color="#5E438F"/></radialGradient><radialGradient id="paint4_radial_0_1" cx="0" cy="0" r="1" gradientTransform="matrix(-24.1583 -6.12555 10.3118 -40.66824 735.055 125.504)" gradientUnits="userSpaceOnUse"><stop offset=".058" stop-color="#50E6FF"/><stop offset="1" stop-color="#436DCD"/></radialGradient><linearGradient id="paint1_linear_0_1" x1="711.512" x2="706.751" y1="136.868" y2="128.635" gradientUnits="userSpaceOnUse"><stop stop-color="#114A8B"/><stop offset="1" stop-color="#0078D4" stop-opacity="0"/></linearGradient><linearGradient id="paint3_linear_0_1" x1="734.357" x2="729.255" y1="124.377" y2="131.692" gradientUnits="userSpaceOnUse"><stop stop-color="#493474"/><stop offset="1" stop-color="#8C66BA" stop-opacity="0"/></linearGradient><linearGradient id="paint5_linear_0_1" x1="710.976" x2="718.487" y1="102.057" y2="102.057" gradientUnits="userSpaceOnUse"><stop stop-color="#2D3F80"/><stop offset="1" stop-color="#436DCD" stop-opacity="0"/></linearGradient><clipPath id="clip0_0_1"><path fill="#fff" d="M698 101h40v44h-40z"/></clipPath><clipPath id="clip1_0_1"><path fill="#fff" d="M693 43h49.333v37H693z"/></clipPath></defs></svg>