<svg xmlns="http://www.w3.org/2000/svg" width="555" height="350" fill="none" viewBox="0 0 555 350"><path fill="#fff" d="M0 0h555v350H0z"/><path stroke="#F6821F" stroke-width="2" d="M18 32h520v294H18z"/><path fill="#fff" d="M51 23h433v18H51z"/><path fill="#222" d="M57.637 36v-8.727h3.444q.992 0 1.691.379.699.375 1.066 1.044.37.665.37 1.534 0 .87-.374 1.534-.376.665-1.087 1.036-.708.37-1.713.37h-2.195v-1.478h1.896q.534 0 .878-.183.35-.187.52-.516.175-.333.175-.763 0-.435-.175-.758a1.17 1.17 0 0 0-.52-.508q-.35-.183-.886-.183h-1.244V36zm7.736 0v-6.546h1.76v1.143h.068q.18-.61.6-.92a1.58 1.58 0 0 1 .972-.316 3 3 0 0 1 .572.064v1.61a2.4 2.4 0 0 0-.354-.068q-.226-.03-.414-.03-.4 0-.715.175a1.3 1.3 0 0 0-.495.478q-.18.306-.179.707V36zm7.588.128q-1.01 0-1.738-.41a2.8 2.8 0 0 1-1.117-1.167q-.392-.759-.392-1.794 0-1.01.392-1.773.393-.762 1.104-1.189.716-.426 1.679-.426.648 0 1.206.21.562.203.98.617.422.413.656 1.04.234.622.235 1.457v.499h-5.527v-1.125h3.818a1.4 1.4 0 0 0-.17-.695 1.2 1.2 0 0 0-.474-.473 1.35 1.35 0 0 0-.694-.175q-.414 0-.733.192-.315.187-.495.507-.178.316-.183.703v1.07q0 .486.18.84.182.353.515.545.332.192.788.192.302 0 .554-.086t.43-.255q.18-.17.273-.418l1.68.111q-.128.605-.525 1.057-.392.447-1.014.699-.618.246-1.428.247m10.116-6.674L80.788 36h-2.045l-2.288-6.546h1.917l1.36 4.684h.068l1.355-4.683zm3.7 6.674q-1.01 0-1.738-.41a2.8 2.8 0 0 1-1.116-1.167q-.392-.759-.392-1.794 0-1.01.392-1.773.391-.762 1.103-1.189.716-.426 1.68-.426.647 0 1.205.21.563.203.98.617.422.413.657 1.04.234.622.234 1.457v.499h-5.527v-1.125h3.818a1.4 1.4 0 0 0-.17-.695 1.2 1.2 0 0 0-.473-.473 1.35 1.35 0 0 0-.695-.175q-.413 0-.733.192-.315.187-.494.507-.18.316-.183.703v1.07q0 .486.179.84.183.353.515.545.333.192.788.192.303 0 .555-.086.25-.085.43-.255t.273-.418l1.679.111q-.128.605-.525 1.057-.39.447-1.014.699-.618.246-1.427.247m6.005-3.912V36h-1.815v-6.546h1.73v1.155h.076q.217-.57.73-.903.51-.337 1.24-.337.681 0 1.188.299.507.298.788.852.282.55.282 1.312V36h-1.816v-3.844q.004-.6-.306-.937-.311-.342-.857-.341-.366 0-.648.157-.277.159-.434.46a1.6 1.6 0 0 0-.158.72m9.131-2.762v1.364h-3.942v-1.364zm-3.047-1.568h1.815v6.103a.8.8 0 0 0 .077.392q.077.135.213.191a.9.9 0 0 0 .324.056q.128 0 .256-.022l.196-.038.285 1.351a5 5 0 0 1-.383.098q-.247.06-.601.072-.657.026-1.15-.174a1.6 1.6 0 0 1-.763-.622q-.273-.423-.269-1.066zm11.204 5.327v-3.759h1.816V36h-1.743v-1.189h-.068a1.94 1.94 0 0 1-.738.925q-.511.35-1.248.35-.657 0-1.155-.3a2.06 2.06 0 0 1-.78-.847q-.277-.55-.281-1.317v-4.167h1.815v3.843q.005.58.311.916.307.337.823.337.328 0 .613-.149.286-.153.461-.452.179-.298.174-.737m3.268 5.242v-9h1.789v1.099h.081q.12-.264.346-.537.23-.277.596-.46.37-.188.921-.188.715 0 1.321.375.605.37.967 1.121.362.745.362 1.87 0 1.095-.353 1.85-.35.75-.955 1.138a2.45 2.45 0 0 1-1.347.383q-.528 0-.899-.174a1.9 1.9 0 0 1-.601-.44 2.3 2.3 0 0 1-.358-.54h-.055v3.503zm1.777-5.728q0 .585.162 1.019t.468.677q.308.24.746.239.444 0 .75-.243.307-.247.465-.682.162-.438.162-1.01 0-.567-.158-.997a1.5 1.5 0 0 0-.465-.673 1.18 1.18 0 0 0-.754-.243 1.2 1.2 0 0 0-.75.234 1.47 1.47 0 0 0-.464.665 2.9 2.9 0 0 0-.162 1.014m7.632-5.454V36h-1.816v-8.727zm4.411 8.855q-.993 0-1.717-.422a2.9 2.9 0 0 1-1.112-1.185q-.393-.763-.392-1.768 0-1.014.392-1.773a2.85 2.85 0 0 1 1.112-1.184q.724-.427 1.717-.427t1.713.427q.725.421 1.117 1.184.392.759.392 1.773 0 1.005-.392 1.768-.392.758-1.117 1.185-.72.422-1.713.422m.009-1.406q.451 0 .754-.256.303-.26.456-.708.158-.447.158-1.018 0-.57-.158-1.018a1.6 1.6 0 0 0-.456-.708 1.12 1.12 0 0 0-.754-.26q-.456 0-.767.26-.308.261-.465.708a3.1 3.1 0 0 0-.153 1.018q0 .57.153 1.018.157.448.465.708.31.255.767.256m6.26 1.402a2.7 2.7 0 0 1-1.117-.218 1.8 1.8 0 0 1-.775-.652q-.281-.434-.281-1.082 0-.547.2-.916.2-.371.545-.597t.784-.34q.444-.117.929-.163.572-.06.921-.11.35-.056.507-.162a.36.36 0 0 0 .158-.316v-.025q0-.406-.256-.627-.252-.222-.716-.221-.49 0-.78.217a1 1 0 0 0-.383.537l-1.679-.137a2.3 2.3 0 0 1 .503-1.03 2.4 2.4 0 0 1 .967-.674q.597-.24 1.381-.239.544 0 1.044.128.503.128.89.396.393.27.618.69.226.42.226 1.002V36h-1.722v-.908h-.051a1.9 1.9 0 0 1-.422.541 1.9 1.9 0 0 1-.635.363 2.6 2.6 0 0 1-.856.128m.52-1.253q.4 0 .707-.158.307-.162.482-.435.174-.272.174-.617v-.695a1 1 0 0 1-.234.102 4 4 0 0 1-.328.081q-.183.034-.367.064l-.332.047a2.3 2.3 0 0 0-.558.15.9.9 0 0 0-.371.276.68.68 0 0 0-.132.426q0 .37.268.567.273.192.691.192m6.986 1.235q-.745 0-1.351-.383-.6-.388-.954-1.138-.35-.755-.35-1.85 0-1.125.363-1.87.362-.75.963-1.12.605-.375 1.325-.376.55 0 .916.188.37.183.597.46.23.272.349.537h.056v-3.281h1.811V36h-1.79v-1.048h-.077a2.3 2.3 0 0 1-.362.54 1.8 1.8 0 0 1-.601.44q-.366.174-.895.174m.576-1.444q.438 0 .741-.239a1.5 1.5 0 0 0 .469-.677q.166-.435.166-1.019t-.162-1.014a1.45 1.45 0 0 0-.469-.665 1.2 1.2 0 0 0-.745-.234q-.448 0-.755.243a1.5 1.5 0 0 0-.464.673q-.158.431-.158.997 0 .572.158 1.01.162.435.464.682.307.243.755.243m10.376 1.466q-.993 0-1.717-.422a2.9 2.9 0 0 1-1.113-1.185q-.392-.763-.392-1.768 0-1.014.392-1.773a2.86 2.86 0 0 1 1.113-1.184q.724-.427 1.717-.427t1.713.427a2.84 2.84 0 0 1 1.116 1.184q.393.759.393 1.773 0 1.005-.393 1.768-.392.758-1.116 1.185-.72.422-1.713.422m.008-1.406q.452 0 .755-.256.302-.26.456-.708.157-.447.157-1.018 0-.57-.157-1.018a1.6 1.6 0 0 0-.456-.708 1.12 1.12 0 0 0-.755-.26q-.456 0-.767.26-.306.261-.464.708a3.1 3.1 0 0 0-.153 1.018q0 .57.153 1.018.158.448.464.708.311.255.767.256m7.914-5.268v1.364h-4.04v-1.364zM156.692 36v-7.018q0-.712.277-1.18.28-.47.767-.704a2.5 2.5 0 0 1 1.103-.234q.418-.001.763.064.35.063.52.115l-.324 1.363a2 2 0 0 0-.264-.064 1.6 1.6 0 0 0-.315-.03q-.4 0-.558.188-.159.183-.158.516V36zm12.447-4.679-1.662.102a.85.85 0 0 0-.183-.383 1 1 0 0 0-.371-.277 1.3 1.3 0 0 0-.541-.107q-.421 0-.712.18-.29.174-.289.468 0 .234.187.396.188.162.644.26l1.184.239q.955.195 1.424.63t.468 1.143q0 .643-.379 1.129-.375.486-1.031.758-.652.27-1.504.269-1.3 0-2.071-.541a2.1 2.1 0 0 1-.9-1.483l1.786-.094a.92.92 0 0 0 .392.605q.31.204.797.205.477 0 .767-.184.294-.187.298-.481a.5.5 0 0 0-.209-.405q-.204-.162-.63-.247l-1.134-.226q-.959-.192-1.427-.665-.465-.472-.465-1.206 0-.63.341-1.086.345-.456.967-.704.627-.247 1.466-.247 1.24 0 1.952.524.716.525.835 1.428m4.275 4.807q-1.01 0-1.738-.41a2.8 2.8 0 0 1-1.117-1.167q-.392-.759-.392-1.794 0-1.01.392-1.773.393-.762 1.104-1.189.716-.426 1.679-.426.648 0 1.206.21.563.203.98.617.422.413.656 1.04.235.622.235 1.457v.499h-5.527v-1.125h3.818q0-.392-.171-.695a1.2 1.2 0 0 0-.473-.473 1.35 1.35 0 0 0-.694-.175q-.414 0-.733.192-.315.187-.494.507-.18.316-.184.703v1.07q0 .486.179.84.183.353.516.545.332.192.788.192.303 0 .554-.086t.431-.255q.179-.17.272-.418l1.679.111q-.128.605-.524 1.057a2.6 2.6 0 0 1-1.014.699q-.618.246-1.428.247m6.005-3.912V36h-1.816v-6.546h1.73v1.155h.077q.218-.57.729-.903.511-.337 1.24-.337.681 0 1.189.299.507.298.788.852.281.55.281 1.312V36h-1.815v-3.844q.005-.6-.307-.937-.311-.342-.856-.341-.367 0-.648.157-.278.159-.435.46a1.6 1.6 0 0 0-.157.72m11.095-.895-1.662.102a.85.85 0 0 0-.183-.383 1 1 0 0 0-.371-.277 1.3 1.3 0 0 0-.541-.107q-.421 0-.712.18-.29.174-.289.468 0 .234.187.396.188.162.644.26l1.184.239q.955.195 1.424.63t.468 1.143q0 .643-.379 1.129-.375.486-1.031.758-.652.27-1.504.269-1.3 0-2.071-.541a2.1 2.1 0 0 1-.9-1.483l1.786-.094a.92.92 0 0 0 .392.605q.31.204.797.205.477 0 .767-.184.294-.187.298-.481a.5.5 0 0 0-.209-.405q-.204-.162-.63-.247l-1.134-.226q-.959-.192-1.427-.665-.465-.472-.465-1.206 0-.63.341-1.086.345-.456.967-.704.627-.247 1.466-.247 1.24 0 1.952.524.716.525.835 1.428m1.292 4.68v-6.546h1.816V36zm.912-7.39a1 1 0 0 1-.694-.268.87.87 0 0 1-.286-.652.85.85 0 0 1 .286-.643.98.98 0 0 1 .694-.273q.405 0 .691.273.29.268.29.643 0 .38-.29.652a.97.97 0 0 1-.691.269m5.84.845v1.363h-3.942v-1.364zm-3.047-1.569h1.815v6.103a.8.8 0 0 0 .077.392q.077.135.213.191a.9.9 0 0 0 .324.056q.127 0 .255-.022l.196-.038.286 1.351a5 5 0 0 1-.384.098q-.246.06-.601.072-.656.026-1.15-.174a1.6 1.6 0 0 1-.763-.622q-.273-.423-.268-1.066zM199.74 36v-6.546h1.815V36zm.912-7.39a1 1 0 0 1-.695-.268.87.87 0 0 1-.285-.652q0-.375.285-.643a.98.98 0 0 1 .695-.273q.405 0 .69.273.29.268.29.643 0 .38-.29.652a.97.97 0 0 1-.69.269m8.46.845L206.824 36h-2.046l-2.288-6.546h1.917l1.36 4.684h.068l1.355-4.683zm3.701 6.673q-1.01 0-1.739-.41a2.8 2.8 0 0 1-1.116-1.167q-.393-.759-.392-1.794 0-1.01.392-1.773a2.9 2.9 0 0 1 1.103-1.189q.717-.426 1.679-.426.648 0 1.206.21.563.203.98.617.422.413.657 1.04.234.622.234 1.457v.499h-5.527v-1.125h3.818q0-.392-.17-.695a1.2 1.2 0 0 0-.473-.473 1.35 1.35 0 0 0-.695-.175q-.413 0-.733.192-.315.187-.494.507-.179.316-.183.703v1.07q0 .486.179.84.183.353.515.545.333.192.789.192.302 0 .554-.086a1.15 1.15 0 0 0 .43-.255q.178-.17.273-.418l1.679.111q-.128.605-.524 1.057-.393.447-1.015.699-.618.246-1.427.247m9.924 0q-1.006 0-1.731-.426a2.9 2.9 0 0 1-1.108-1.194q-.383-.762-.383-1.755 0-1.006.388-1.764a2.9 2.9 0 0 1 1.112-1.19q.72-.43 1.713-.43.857 0 1.5.311.643.312 1.018.874t.414 1.321h-1.713q-.073-.49-.384-.788-.306-.303-.805-.303-.422 0-.737.23-.312.225-.486.66-.175.435-.175 1.053 0 .627.171 1.066.174.438.49.669.315.23.737.23.31 0 .558-.128.251-.128.413-.37.167-.248.218-.593h1.713q-.043.75-.409 1.32a2.5 2.5 0 0 1-1.002.887q-.639.32-1.512.32m7.042 0q-.992 0-1.717-.422a2.9 2.9 0 0 1-1.112-1.185q-.392-.763-.392-1.768 0-1.014.392-1.773a2.85 2.85 0 0 1 1.112-1.184q.725-.427 1.717-.427t1.714.427q.724.421 1.116 1.184.392.759.392 1.773 0 1.005-.392 1.768-.392.758-1.116 1.185-.721.422-1.714.422m.009-1.406q.452 0 .754-.256.303-.26.456-.708.158-.447.158-1.018 0-.57-.158-1.018a1.6 1.6 0 0 0-.456-.708 1.12 1.12 0 0 0-.754-.26q-.456 0-.767.26-.307.261-.465.708a3.1 3.1 0 0 0-.153 1.018q0 .57.153 1.018.158.448.465.708.31.255.767.256M234.181 36v-6.546h1.731v1.155h.076a1.82 1.82 0 0 1 .682-.907q.477-.333 1.142-.333.674 0 1.146.337.474.333.631.903h.068q.2-.562.725-.899.528-.34 1.248-.34.916 0 1.488.583.575.58.575 1.645V36h-1.811v-4.044q0-.546-.29-.818a1.02 1.02 0 0 0-.724-.273q-.495 0-.772.315-.276.312-.277.823V36h-1.76v-4.082q0-.482-.277-.767-.273-.285-.72-.286a1 1 0 0 0-.545.154q-.239.149-.38.421a1.35 1.35 0 0 0-.14.631V36zm10.946 2.455v-9h1.79v1.099h.081q.118-.264.345-.537.23-.277.596-.46.37-.188.921-.188.715 0 1.321.375.605.37.967 1.121.362.745.362 1.87 0 1.095-.353 1.85-.35.75-.955 1.138a2.45 2.45 0 0 1-1.347.383q-.528 0-.899-.174a1.9 1.9 0 0 1-.601-.44 2.2 2.2 0 0 1-.357-.54h-.056v3.503zm1.777-5.728q0 .585.162 1.019t.468.677q.308.24.746.239.444 0 .75-.243.308-.247.465-.682.162-.438.162-1.01 0-.567-.158-.997a1.5 1.5 0 0 0-.465-.673 1.18 1.18 0 0 0-.754-.243 1.2 1.2 0 0 0-.75.234 1.47 1.47 0 0 0-.464.665 2.9 2.9 0 0 0-.162 1.014m7.683 3.397q-.627 0-1.116-.218a1.8 1.8 0 0 1-.776-.652q-.281-.434-.281-1.082 0-.547.2-.916.2-.371.545-.597t.785-.34q.443-.117.929-.163.57-.06.92-.11.35-.056.507-.162a.36.36 0 0 0 .158-.316v-.025q0-.406-.256-.627-.252-.222-.716-.221-.49 0-.78.217a1 1 0 0 0-.383.537l-1.679-.137a2.3 2.3 0 0 1 .503-1.03 2.4 2.4 0 0 1 .967-.674q.597-.24 1.381-.239.545 0 1.044.128.503.128.89.396.393.27.618.69.226.42.226 1.002V36h-1.722v-.908h-.051a1.8 1.8 0 0 1-.422.541 2 2 0 0 1-.634.363 2.6 2.6 0 0 1-.857.128m.52-1.253q.4 0 .707-.158.307-.162.482-.435.174-.272.175-.617v-.695a1 1 0 0 1-.235.102 4 4 0 0 1-.328.081 16 16 0 0 1-.366.064l-.333.047a2.3 2.3 0 0 0-.558.15.9.9 0 0 0-.371.276.68.68 0 0 0-.132.426q0 .37.269.567.272.192.69.192m6.39-2.655V36h-1.816v-6.546h1.731v1.155h.076q.217-.57.729-.903.511-.337 1.24-.337.682 0 1.189.299.507.298.788.852.282.55.282 1.312V36H263.9v-3.844q.005-.6-.307-.937-.311-.342-.856-.341-.366 0-.648.157a1.1 1.1 0 0 0-.435.46 1.6 1.6 0 0 0-.157.72m6.536 6.239q-.345 0-.648-.056a2.3 2.3 0 0 1-.494-.132l.409-1.355q.32.097.575.107a.73.73 0 0 0 .447-.12q.192-.128.312-.434l.106-.278-2.348-6.732h1.909l1.355 4.806h.068l1.368-4.807h1.922l-2.544 7.253q-.183.53-.498.92a2.05 2.05 0 0 1-.789.61q-.477.218-1.15.218m11.099-2.349q-.745 0-1.35-.383-.601-.388-.955-1.138-.35-.755-.349-1.85 0-1.125.362-1.87.362-.75.963-1.12.605-.375 1.325-.376.55 0 .916.188.371.183.597.46.23.272.349.537h.056v-3.281h1.811V36h-1.79v-1.048h-.077a2.3 2.3 0 0 1-.362.54 1.8 1.8 0 0 1-.601.44q-.366.174-.895.174m.576-1.444q.439 0 .741-.239a1.5 1.5 0 0 0 .469-.677q.166-.435.166-1.019t-.162-1.014a1.45 1.45 0 0 0-.469-.665 1.2 1.2 0 0 0-.745-.234q-.448 0-.755.243a1.5 1.5 0 0 0-.464.673q-.158.431-.158.997 0 .572.158 1.01.162.435.464.682.307.243.755.243m6.508 1.462a2.7 2.7 0 0 1-1.117-.218 1.8 1.8 0 0 1-.775-.652q-.281-.434-.281-1.082 0-.547.2-.916.2-.371.545-.597t.784-.34q.444-.117.929-.163.572-.06.921-.11.35-.056.507-.162a.36.36 0 0 0 .158-.316v-.025q0-.406-.256-.627-.251-.222-.716-.221-.49 0-.78.217a1 1 0 0 0-.383.537l-1.679-.137a2.3 2.3 0 0 1 .503-1.03 2.4 2.4 0 0 1 .967-.674q.597-.24 1.381-.239.544 0 1.044.128.503.128.89.396.393.27.618.69.226.42.226 1.002V36h-1.722v-.908h-.051a1.8 1.8 0 0 1-.422.541 1.9 1.9 0 0 1-.635.363 2.6 2.6 0 0 1-.856.128m.52-1.253q.4 0 .707-.158.307-.162.482-.435.174-.272.174-.617v-.695a1 1 0 0 1-.234.102 4 4 0 0 1-.328.081q-.183.034-.367.064l-.332.047a2.3 2.3 0 0 0-.558.15.9.9 0 0 0-.371.276.68.68 0 0 0-.132.426q0 .37.268.567.273.192.691.192m8.056-5.417v1.364h-3.942v-1.364zm-3.047-1.568h1.815v6.103a.8.8 0 0 0 .077.392q.076.135.213.191a.9.9 0 0 0 .324.056q.127 0 .256-.022l.196-.038.285 1.351a5 5 0 0 1-.383.098q-.247.06-.601.072-.657.026-1.151-.174a1.6 1.6 0 0 1-.763-.622q-.272-.423-.268-1.066zm6.096 8.238a2.7 2.7 0 0 1-1.117-.218 1.8 1.8 0 0 1-.775-.652q-.281-.434-.281-1.082 0-.547.2-.916.2-.371.545-.597t.784-.34q.444-.117.929-.163.572-.06.921-.11.35-.056.507-.162a.36.36 0 0 0 .158-.316v-.025q0-.406-.256-.627-.251-.222-.716-.221-.49 0-.78.217a1 1 0 0 0-.383.537l-1.679-.137a2.3 2.3 0 0 1 .503-1.03 2.4 2.4 0 0 1 .967-.674q.597-.24 1.381-.239.544 0 1.044.128.503.128.89.396.393.27.618.69.226.42.226 1.002V36h-1.722v-.908h-.051a1.8 1.8 0 0 1-.422.541 1.9 1.9 0 0 1-.635.363 2.6 2.6 0 0 1-.856.128m.52-1.253q.4 0 .707-.158.307-.162.482-.435.174-.272.174-.617v-.695a1 1 0 0 1-.234.102 4 4 0 0 1-.328.081q-.183.034-.367.064l-.332.047a2.3 2.3 0 0 0-.558.15.9.9 0 0 0-.371.276.68.68 0 0 0-.132.426q0 .37.268.567.273.192.691.192m10.833-5.417v1.364h-3.942v-1.364zm-3.047-1.568h1.816v6.103a.8.8 0 0 0 .076.392.43.43 0 0 0 .213.191.9.9 0 0 0 .324.056q.129 0 .256-.022l.196-.038.286 1.351a5 5 0 0 1-.384.098q-.247.06-.601.072-.656.026-1.15-.174a1.6 1.6 0 0 1-.763-.622q-.272-.423-.269-1.066zm7.117 8.242q-.994 0-1.717-.422a2.9 2.9 0 0 1-1.113-1.185q-.392-.763-.392-1.768 0-1.014.392-1.773a2.85 2.85 0 0 1 1.113-1.184q.724-.427 1.717-.427t1.713.427a2.84 2.84 0 0 1 1.116 1.184q.392.759.392 1.773 0 1.005-.392 1.768-.392.758-1.116 1.185-.72.422-1.713.422m.008-1.406q.452 0 .755-.256.301-.26.456-.708.157-.447.157-1.018 0-.57-.157-1.018a1.6 1.6 0 0 0-.456-.708 1.12 1.12 0 0 0-.755-.26q-.455 0-.767.26-.306.261-.464.708a3.1 3.1 0 0 0-.154 1.018q0 .57.154 1.018.158.448.464.708.312.255.767.256m8.987-2.506V36h-1.816v-6.546h1.73v1.155h.077q.217-.57.729-.903.511-.337 1.24-.337.681 0 1.189.299.507.298.788.852.281.55.281 1.312V36h-1.815v-3.844q.005-.6-.307-.937-.311-.342-.856-.341a1.3 1.3 0 0 0-.648.157q-.277.159-.435.46a1.6 1.6 0 0 0-.157.72m8.606 3.912q-.993 0-1.717-.422a2.9 2.9 0 0 1-1.112-1.185q-.392-.763-.392-1.768 0-1.014.392-1.773a2.85 2.85 0 0 1 1.112-1.184q.724-.427 1.717-.427t1.713.427q.725.421 1.117 1.184.392.759.392 1.773 0 1.005-.392 1.768-.392.758-1.117 1.185-.72.422-1.713.422m.009-1.406q.451 0 .754-.256.303-.26.456-.708.158-.447.158-1.018 0-.57-.158-1.018a1.6 1.6 0 0 0-.456-.708 1.12 1.12 0 0 0-.754-.26q-.456 0-.767.26-.307.261-.465.708a3.1 3.1 0 0 0-.153 1.018q0 .57.153 1.018.158.448.465.708.31.255.767.256m6.209-2.506V36h-1.816v-6.546h1.731v1.155h.076q.217-.57.729-.903.511-.337 1.24-.337.682 0 1.189.299.507.298.788.852.282.55.281 1.312V36h-1.815v-3.844q.005-.6-.307-.937-.311-.342-.856-.341-.367 0-.648.157a1.1 1.1 0 0 0-.435.46 1.6 1.6 0 0 0-.157.72m9.727-.52v1.44h-3.98v-1.44zm3.414 4.428a2.7 2.7 0 0 1-1.117-.218 1.8 1.8 0 0 1-.775-.652q-.282-.434-.282-1.082 0-.547.201-.916.2-.371.545-.597t.784-.34q.444-.117.929-.163.571-.06.921-.11.35-.056.507-.162a.36.36 0 0 0 .157-.316v-.025q0-.406-.255-.627-.252-.222-.716-.221-.49 0-.78.217a1 1 0 0 0-.383.537l-1.679-.137q.127-.596.502-1.03.375-.44.968-.674.596-.24 1.38-.239.546 0 1.044.128.504.128.891.396.392.27.618.69t.226 1.002V36h-1.722v-.908h-.051a1.9 1.9 0 0 1-.422.541 2 2 0 0 1-.635.363 2.6 2.6 0 0 1-.856.128m.52-1.253q.4 0 .707-.158.307-.162.482-.435.174-.272.174-.617v-.695a1 1 0 0 1-.234.102 4 4 0 0 1-.328.081q-.184.034-.367.064l-.332.047a2.3 2.3 0 0 0-.558.15.9.9 0 0 0-.371.276.68.68 0 0 0-.132.426q0 .37.268.567.273.192.691.192m4.574 3.584v-9h1.79v1.099h.081q.12-.264.345-.537.23-.277.597-.46.37-.188.92-.188.716 0 1.321.375.606.37.967 1.121.363.745.363 1.87 0 1.095-.354 1.85-.35.75-.955 1.138-.6.384-1.346.383-.528 0-.899-.174a1.9 1.9 0 0 1-.601-.44 2.2 2.2 0 0 1-.358-.54h-.055v3.503zm1.777-5.728q0 .585.162 1.019t.469.677q.306.24.746.239.442 0 .75-.243.306-.247.464-.682.162-.438.162-1.01 0-.567-.158-.997a1.5 1.5 0 0 0-.464-.673 1.18 1.18 0 0 0-.754-.243q-.444 0-.75.234a1.47 1.47 0 0 0-.465.665 2.9 2.9 0 0 0-.162 1.014m5.817 5.728v-9h1.79v1.099h.081q.118-.264.345-.537.23-.277.596-.46.371-.188.921-.188.716 0 1.321.375.605.37.967 1.121.363.745.362 1.87 0 1.095-.353 1.85-.35.75-.955 1.138-.6.384-1.346.383-.529 0-.9-.174a1.9 1.9 0 0 1-.6-.44 2.2 2.2 0 0 1-.358-.54h-.056v3.503zm1.777-5.728q0 .585.162 1.019t.469.677q.307.24.745.239.444 0 .75-.243.308-.247.465-.682.162-.438.162-1.01 0-.567-.158-.997a1.5 1.5 0 0 0-.464-.673 1.18 1.18 0 0 0-.755-.243 1.2 1.2 0 0 0-.75.234 1.5 1.5 0 0 0-.464.665 2.9 2.9 0 0 0-.162 1.014M370.506 36v-6.546h1.76v1.143h.068q.178-.61.601-.92.422-.316.971-.316a3 3 0 0 1 .571.064v1.61a2.4 2.4 0 0 0-.353-.068 3 3 0 0 0-.414-.03q-.4 0-.716.175a1.3 1.3 0 0 0-.494.478 1.4 1.4 0 0 0-.179.707V36zm7.563.128q-.993 0-1.718-.422a2.9 2.9 0 0 1-1.112-1.185q-.392-.763-.392-1.768 0-1.014.392-1.773a2.85 2.85 0 0 1 1.112-1.184q.725-.427 1.718-.427.992 0 1.713.427a2.84 2.84 0 0 1 1.116 1.184q.392.759.392 1.773 0 1.005-.392 1.768-.392.758-1.116 1.185-.721.422-1.713.422m.008-1.406q.452 0 .754-.256.303-.26.456-.708.158-.447.158-1.018 0-.57-.158-1.018a1.6 1.6 0 0 0-.456-.708 1.12 1.12 0 0 0-.754-.26q-.456 0-.767.26-.307.261-.464.708a3.1 3.1 0 0 0-.154 1.018q0 .57.154 1.018.157.448.464.708.31.255.767.256m10.285-5.268L386.074 36h-2.046l-2.288-6.546h1.917l1.36 4.684h.068l1.355-4.683zm3.701 6.674q-1.01 0-1.739-.41a2.8 2.8 0 0 1-1.116-1.167q-.392-.759-.392-1.794 0-1.01.392-1.773a2.9 2.9 0 0 1 1.103-1.189q.716-.426 1.679-.426.648 0 1.206.21.563.203.98.617.422.413.657 1.04.234.622.234 1.457v.499h-5.527v-1.125h3.818q0-.392-.17-.695a1.2 1.2 0 0 0-.473-.473 1.35 1.35 0 0 0-.695-.175q-.413 0-.733.192-.315.187-.494.507-.179.316-.183.703v1.07q0 .486.179.84.183.353.515.545.333.192.789.192.302 0 .554-.086a1.15 1.15 0 0 0 .43-.255q.178-.17.273-.418l1.679.111q-.128.605-.524 1.057-.393.447-1.015.699-.617.246-1.427.247m6.601-.022a2.47 2.47 0 0 1-1.351-.383q-.601-.388-.955-1.138-.35-.755-.349-1.85 0-1.125.362-1.87.363-.75.963-1.12.605-.375 1.325-.376.55 0 .917.188.37.183.596.46.23.272.35.537h.055v-3.281h1.811V36h-1.79v-1.048h-.076a2.4 2.4 0 0 1-.363.54 1.8 1.8 0 0 1-.6.44q-.367.174-.895.174m.575-1.444q.44 0 .741-.239a1.5 1.5 0 0 0 .469-.677q.166-.435.166-1.019t-.162-1.014a1.45 1.45 0 0 0-.468-.665 1.2 1.2 0 0 0-.746-.234q-.447 0-.754.243-.308.243-.465.673t-.157.997q0 .572.157 1.01.162.435.465.682.307.243.754.243m9.286 1.462a2.7 2.7 0 0 1-1.117-.218 1.8 1.8 0 0 1-.776-.652q-.28-.434-.281-1.082 0-.547.2-.916.201-.371.546-.597t.784-.34q.443-.117.929-.163.572-.06.92-.11.35-.056.508-.162a.36.36 0 0 0 .157-.316v-.025q0-.406-.255-.627-.252-.222-.716-.221-.49 0-.78.217a1 1 0 0 0-.384.537l-1.679-.137a2.3 2.3 0 0 1 .503-1.03q.375-.44.967-.674.597-.24 1.381-.239.546 0 1.044.128.503.128.891.396.392.27.618.69t.226 1.002V36h-1.722v-.908h-.051a1.9 1.9 0 0 1-.422.541 2 2 0 0 1-.635.363 2.6 2.6 0 0 1-.856.128m.519-1.253q.4 0 .708-.158.307-.162.481-.435.175-.272.175-.617v-.695a1 1 0 0 1-.234.102 4 4 0 0 1-.328.081 17 17 0 0 1-.367.064l-.332.047a2.3 2.3 0 0 0-.559.15.9.9 0 0 0-.37.276.68.68 0 0 0-.132.426q0 .37.268.567.273.192.69.192m4.575 3.584v-9h1.79v1.099h.081q.119-.264.345-.537.23-.277.596-.46.371-.188.921-.188.716 0 1.321.375.605.37.967 1.121.363.745.362 1.87 0 1.095-.353 1.85-.35.75-.955 1.138-.6.384-1.346.383-.529 0-.899-.174a1.9 1.9 0 0 1-.601-.44 2.2 2.2 0 0 1-.358-.54h-.056v3.503zm1.777-5.728q0 .585.162 1.019t.469.677q.306.24.745.239.444 0 .75-.243.308-.247.465-.682.162-.438.162-1.01 0-.567-.158-.997a1.5 1.5 0 0 0-.464-.673 1.18 1.18 0 0 0-.755-.243 1.2 1.2 0 0 0-.75.234 1.5 1.5 0 0 0-.464.665 2.9 2.9 0 0 0-.162 1.014m5.817 5.728v-9h1.789v1.099h.081q.12-.264.346-.537.23-.277.596-.46.37-.188.921-.188.715 0 1.321.375.605.37.967 1.121.362.745.362 1.87 0 1.095-.353 1.85-.35.75-.955 1.138a2.45 2.45 0 0 1-1.347.383q-.528 0-.899-.174a1.9 1.9 0 0 1-.601-.44 2.3 2.3 0 0 1-.358-.54h-.055v3.503zm1.777-5.728q0 .585.162 1.019t.468.677q.308.24.746.239.444 0 .75-.243.307-.247.465-.682.162-.438.162-1.01 0-.567-.158-.997a1.5 1.5 0 0 0-.465-.673 1.18 1.18 0 0 0-.754-.243 1.2 1.2 0 0 0-.75.234 1.47 1.47 0 0 0-.464.665 2.9 2.9 0 0 0-.162 1.014m7.632-5.454V36h-1.816v-8.727zM432.076 36v-6.546h1.815V36zm.912-7.39a1 1 0 0 1-.695-.268.87.87 0 0 1-.285-.652q0-.375.285-.643a.98.98 0 0 1 .695-.273q.405 0 .69.273.29.268.29.643 0 .38-.29.652a.97.97 0 0 1-.69.269m5.315 7.518q-1.006 0-1.73-.426a2.9 2.9 0 0 1-1.108-1.194q-.384-.762-.384-1.755 0-1.006.388-1.764a2.9 2.9 0 0 1 1.112-1.19q.72-.43 1.713-.43.857 0 1.5.311.644.312 1.019.874t.413 1.321h-1.713a1.32 1.32 0 0 0-.383-.788q-.307-.303-.806-.303-.422 0-.737.23-.31.225-.486.66-.174.435-.175 1.053 0 .627.171 1.066.174.438.49.669.315.23.737.23.312 0 .558-.128.252-.128.414-.37.166-.248.217-.593h1.713q-.043.75-.409 1.32a2.47 2.47 0 0 1-1.001.887q-.64.32-1.513.32m5.952-.004a2.7 2.7 0 0 1-1.117-.218 1.8 1.8 0 0 1-.775-.652q-.281-.434-.281-1.082 0-.547.2-.916.2-.371.545-.597t.785-.34a6 6 0 0 1 .928-.163q.571-.06.921-.11.35-.056.507-.162a.36.36 0 0 0 .158-.316v-.025q0-.406-.256-.627-.251-.222-.716-.221-.49 0-.78.217a1 1 0 0 0-.383.537l-1.679-.137a2.3 2.3 0 0 1 .503-1.03 2.4 2.4 0 0 1 .967-.674q.597-.24 1.381-.239.544 0 1.044.128.503.128.89.396.393.27.618.69.226.42.226 1.002V36h-1.722v-.908h-.051a1.8 1.8 0 0 1-.422.541 2 2 0 0 1-.634.363 2.6 2.6 0 0 1-.857.128m.52-1.253q.4 0 .707-.158.307-.162.482-.435.174-.272.174-.617v-.695a1 1 0 0 1-.234.102 4 4 0 0 1-.328.081 16 16 0 0 1-.366.064l-.333.047a2.3 2.3 0 0 0-.558.15.9.9 0 0 0-.371.276.68.68 0 0 0-.132.426q0 .37.269.567.271.192.69.192m8.056-5.417v1.364h-3.942v-1.364zm-3.047-1.568h1.815v6.103a.8.8 0 0 0 .077.392q.077.135.213.191a.9.9 0 0 0 .324.056q.128 0 .256-.022l.196-.038.285 1.351a5 5 0 0 1-.383.098q-.247.06-.601.072-.657.026-1.151-.174a1.6 1.6 0 0 1-.762-.622q-.273-.423-.269-1.066zM454.013 36v-6.546h1.816V36zm.912-7.39a1 1 0 0 1-.694-.268.87.87 0 0 1-.286-.652.85.85 0 0 1 .286-.643.98.98 0 0 1 .694-.273q.405 0 .691.273.29.268.29.643 0 .38-.29.652a.97.97 0 0 1-.691.269m5.315 7.518q-.993 0-1.717-.422a2.9 2.9 0 0 1-1.112-1.185q-.392-.763-.392-1.768 0-1.014.392-1.773a2.85 2.85 0 0 1 1.112-1.184q.724-.427 1.717-.427t1.713.427q.725.421 1.117 1.184.392.759.392 1.773 0 1.005-.392 1.768-.392.758-1.117 1.185-.72.422-1.713.422m.009-1.406q.451 0 .754-.256.303-.26.456-.708.158-.447.158-1.018 0-.57-.158-1.018a1.6 1.6 0 0 0-.456-.708 1.12 1.12 0 0 0-.754-.26q-.456 0-.767.26-.307.261-.465.708a3.1 3.1 0 0 0-.153 1.018q0 .57.153 1.018.158.448.465.708.31.255.767.256m6.209-2.506V36h-1.816v-6.546h1.731v1.155h.076q.217-.57.729-.903.511-.337 1.24-.337.682 0 1.189.299.507.298.788.852.281.55.281 1.312V36h-1.815v-3.844q.005-.6-.307-.937-.311-.342-.856-.341-.367 0-.648.157a1.1 1.1 0 0 0-.435.46 1.6 1.6 0 0 0-.157.72m11.095-.895-1.662.102a.85.85 0 0 0-.183-.383 1 1 0 0 0-.371-.277 1.3 1.3 0 0 0-.541-.107q-.421 0-.711.18-.29.174-.29.468 0 .234.187.396.188.162.644.26l1.184.239q.955.195 1.424.63t.468 1.143q0 .643-.379 1.129-.375.486-1.031.758-.652.27-1.504.269-1.3 0-2.071-.541a2.1 2.1 0 0 1-.9-1.483l1.786-.094a.92.92 0 0 0 .392.605q.31.204.797.205.477 0 .767-.184.294-.187.298-.481a.5.5 0 0 0-.209-.405q-.204-.162-.63-.247l-1.134-.226q-.959-.192-1.427-.665-.465-.472-.465-1.206 0-.63.341-1.086.346-.456.967-.704.627-.247 1.466-.247 1.24 0 1.952.524.716.525.835 1.428M35.426 58.794v-1.521h7.168v1.521h-2.672V66h-1.824v-7.206zM43.06 66v-6.545h1.76v1.142h.069q.18-.61.6-.92a1.58 1.58 0 0 1 .972-.316 3 3 0 0 1 .571.064v1.61a2.4 2.4 0 0 0-.354-.068q-.225-.03-.413-.03-.4 0-.716.175a1.3 1.3 0 0 0-.494.477q-.18.307-.18.708V66zm6.59.124q-.627 0-1.117-.218a1.8 1.8 0 0 1-.776-.652q-.28-.435-.28-1.082 0-.546.2-.916.2-.371.545-.597t.784-.34q.443-.117.929-.163.571-.06.92-.11.35-.056.508-.163a.36.36 0 0 0 .157-.315v-.025q0-.406-.255-.627-.252-.22-.716-.221-.49 0-.78.217a1 1 0 0 0-.384.537l-1.679-.136q.128-.597.503-1.032.376-.438.967-.673.597-.24 1.381-.239.546 0 1.044.128.503.128.89.397.393.268.619.69.225.417.226 1.001V66h-1.722v-.908h-.051a1.9 1.9 0 0 1-.422.541 2 2 0 0 1-.635.363 2.6 2.6 0 0 1-.856.128m.52-1.253q.4 0 .707-.158.306-.162.481-.435a1.1 1.1 0 0 0 .175-.618v-.694a1 1 0 0 1-.234.102 4 4 0 0 1-.328.081q-.184.034-.367.064l-.332.047q-.32.046-.559.15a.9.9 0 0 0-.37.276.68.68 0 0 0-.132.426q0 .37.268.567.273.192.69.192m8.094-5.416v1.363h-4.04v-1.363zM55.149 66v-7.019q0-.71.277-1.18a1.8 1.8 0 0 1 .767-.703 2.5 2.5 0 0 1 1.104-.234q.417-.001.762.064.35.063.52.115l-.324 1.363a2 2 0 0 0-.264-.064 1.7 1.7 0 0 0-.315-.03q-.4 0-.559.188-.157.183-.157.516V66zm7.744-6.545v1.363h-4.04v-1.363zM59.778 66v-7.019q0-.71.277-1.18a1.8 1.8 0 0 1 .767-.703 2.5 2.5 0 0 1 1.103-.234q.418-.001.763.064.35.063.52.115l-.324 1.363a2 2 0 0 0-.264-.064 1.7 1.7 0 0 0-.315-.03q-.4 0-.559.188-.157.183-.157.516V66zm4.224 0v-6.545h1.815V66zm.912-7.39a1 1 0 0 1-.695-.268.87.87 0 0 1-.285-.652q0-.375.285-.643a.98.98 0 0 1 .695-.273q.405 0 .69.273.29.268.29.643 0 .38-.29.652a.97.97 0 0 1-.69.269m5.315 7.518q-1.006 0-1.73-.426a2.9 2.9 0 0 1-1.108-1.194q-.384-.762-.384-1.755 0-1.006.388-1.764a2.9 2.9 0 0 1 1.112-1.19q.72-.43 1.713-.43.856 0 1.5.311.645.312 1.019.874t.413 1.321h-1.713q-.072-.49-.384-.788-.306-.303-.805-.303-.422 0-.737.23-.312.225-.486.66-.175.435-.175 1.053 0 .627.17 1.066.175.438.49.669.316.23.738.23.311 0 .558-.128.252-.128.414-.37a1.4 1.4 0 0 0 .217-.593h1.713q-.042.75-.41 1.32a2.47 2.47 0 0 1-1 .887q-.64.32-1.513.32M48.75 96h-2.693v-8.727h2.812q1.27 0 2.174.524a3.43 3.43 0 0 1 1.385 1.496q.48.971.481 2.326 0 1.365-.486 2.348a3.46 3.46 0 0 1-1.415 1.509Q50.08 96 48.75 96m-1.636-.937h1.568q1.082 0 1.794-.418a2.57 2.57 0 0 0 1.06-1.189q.35-.771.35-1.837 0-1.056-.345-1.82a2.55 2.55 0 0 0-1.031-1.175q-.686-.414-1.709-.414h-1.687zm7.568.937v-8.727h1.057v7.79h4.057V96zm6.75 0v-8.727h2.949q1.026 0 1.679.37.656.367.971.993.316.627.316 1.398 0 .772-.316 1.402-.31.63-.963 1.006-.651.37-1.67.37h-2.114v-.937h2.08q.703 0 1.129-.243.426-.242.618-.656a2.2 2.2 0 0 0 .196-.942q0-.525-.196-.937a1.4 1.4 0 0 0-.622-.648q-.43-.24-1.142-.239h-1.858V96zm10.992 0v-8.727h2.949q1.026 0 1.679.37.656.367.971.993.315.627.316 1.398 0 .772-.316 1.402-.31.63-.963 1.006-.651.37-1.67.37h-2.114v-.937h2.08q.703 0 1.13-.243.425-.242.617-.656a2.2 2.2 0 0 0 .196-.942q0-.525-.196-.937a1.4 1.4 0 0 0-.622-.648q-.43-.24-1.142-.239H73.48V96zm7.48 0v-6.546h.972v.99h.069q.179-.487.647-.79a1.9 1.9 0 0 1 1.057-.302q.11 0 .277.004.166.005.252.013v1.023a3 3 0 0 0-.235-.038q-.18-.03-.38-.03-.476 0-.851.2-.372.196-.588.546a1.47 1.47 0 0 0-.213.788V96zm6.926.136q-.887 0-1.556-.421a2.87 2.87 0 0 1-1.04-1.18q-.37-.76-.37-1.774 0-1.022.37-1.785a2.86 2.86 0 0 1 1.04-1.185q.67-.422 1.555-.422.888 0 1.552.422.668.422 1.04 1.185.375.762.374 1.785 0 1.015-.374 1.773-.371.76-1.04 1.18-.665.422-1.552.422m0-.903q.672 0 1.108-.345.435-.345.643-.908.21-.562.209-1.219 0-.656-.209-1.223a2.06 2.06 0 0 0-.644-.916q-.435-.35-1.108-.35t-1.107.35a2.06 2.06 0 0 0-.644.916 3.5 3.5 0 0 0-.209 1.223q0 .657.21 1.22.207.561.643.907.435.345 1.108.345m7.415-5.779v.853h-3.528v-.853zM91.774 96v-7.449q0-.562.264-.937t.686-.563.89-.187q.372 0 .606.06t.35.11l-.29.87a5 5 0 0 0-.214-.064 1.3 1.3 0 0 0-.349-.039q-.499 0-.72.252-.218.25-.218.737V96zm3.88 0v-6.546h1.007V96zm.512-7.636a.72.72 0 0 1-.507-.2.64.64 0 0 1-.209-.482q0-.281.21-.482a.72.72 0 0 1 .506-.2.7.7 0 0 1 .503.2.64.64 0 0 1 .213.482.64.64 0 0 1-.213.481.7.7 0 0 1-.503.2m3.342-1.091V96h-1.005v-8.727zm4.586 8.863q-.945 0-1.632-.417a2.8 2.8 0 0 1-1.052-1.176q-.367-.759-.367-1.765t.367-1.772a2.9 2.9 0 0 1 1.031-1.202q.664-.435 1.551-.435a3.1 3.1 0 0 1 1.01.17 2.5 2.5 0 0 1 .908.555q.41.38.652 1.005.243.627.243 1.543v.426h-5.046v-.87h4.023q0-.552-.222-.988a1.67 1.67 0 0 0-.622-.686 1.74 1.74 0 0 0-.946-.251q-.6 0-1.04.298a2 2 0 0 0-.669.767 2.26 2.26 0 0 0-.234 1.014v.58q0 .741.256 1.257.26.51.72.78a2.1 2.1 0 0 0 1.069.264q.397 0 .716-.11a1.5 1.5 0 0 0 .559-.342q.234-.23.362-.57l.971.272q-.153.495-.515.87a2.5 2.5 0 0 1-.895.579 3.3 3.3 0 0 1-1.198.204m70.02-8.862V96h-1.057v-8.727zm2.988 4.79V96h-1.006v-6.546h.972v1.023h.085q.23-.499.699-.8.469-.308 1.21-.308.665 0 1.163.273.499.269.776.818.277.546.277 1.38V96h-1.006v-4.09q0-.773-.4-1.203-.4-.435-1.1-.434-.482 0-.86.209-.375.209-.593.609t-.217.972"/><path stroke="#C4C4C4" d="M35 71.5h487"/><path fill="#222" d="M37.263 266h-1.977l3.012-8.727h2.378L43.685 266h-1.978l-2.186-6.733h-.068zm-.124-3.43h4.67v1.44h-4.67zm10.215 3.558q-1.006 0-1.73-.426a2.9 2.9 0 0 1-1.108-1.193q-.384-.763-.384-1.756 0-1.007.388-1.764a2.9 2.9 0 0 1 1.112-1.189q.72-.43 1.713-.431.856 0 1.5.311.645.312 1.019.874.375.562.413 1.321h-1.713q-.072-.49-.384-.788-.307-.303-.805-.303a1.22 1.22 0 0 0-.737.23q-.312.226-.486.661-.175.434-.175 1.052 0 .627.17 1.066.175.438.49.669.317.23.738.23a1.2 1.2 0 0 0 .558-.128q.252-.128.414-.371a1.4 1.4 0 0 0 .217-.592h1.713q-.042.75-.41 1.321a2.47 2.47 0 0 1-1 .886q-.64.32-1.513.32m7.567-6.673v1.363h-3.942v-1.363zm-3.047-1.569h1.815v6.103q0 .25.077.392a.42.42 0 0 0 .213.191.9.9 0 0 0 .324.056q.127 0 .256-.021l.196-.039.285 1.351q-.136.042-.383.098-.247.06-.601.072-.657.026-1.15-.174a1.6 1.6 0 0 1-.764-.622q-.271-.423-.268-1.066zm4.23 8.114v-6.545h1.815V266zm.911-7.389a1 1 0 0 1-.694-.269.87.87 0 0 1-.286-.652q0-.375.286-.643a.98.98 0 0 1 .694-.273q.405 0 .69.273.29.268.29.643a.86.86 0 0 1-.29.652.97.97 0 0 1-.69.269m5.315 7.517q-.993 0-1.717-.422a2.9 2.9 0 0 1-1.112-1.185q-.392-.762-.392-1.768 0-1.014.392-1.773a2.86 2.86 0 0 1 1.112-1.185q.724-.426 1.717-.426t1.713.426q.724.423 1.117 1.185.392.759.392 1.773 0 1.006-.392 1.768a2.9 2.9 0 0 1-1.117 1.185q-.72.422-1.713.422m.009-1.406q.45 0 .754-.256.303-.26.456-.707a3 3 0 0 0 .158-1.019q0-.571-.158-1.018a1.6 1.6 0 0 0-.456-.708 1.12 1.12 0 0 0-.754-.26q-.456 0-.767.26-.307.26-.465.708a3.1 3.1 0 0 0-.153 1.018q0 .571.153 1.019.157.447.465.707.31.255.767.256m6.209-2.506V266h-1.816v-6.545h1.73v1.154h.077q.218-.57.729-.903.51-.337 1.24-.337.68 0 1.189.299.507.298.788.852.282.55.281 1.312V266h-1.815v-3.844q.004-.6-.307-.937-.311-.341-.856-.341-.367 0-.648.158-.278.157-.435.46a1.6 1.6 0 0 0-.157.72"/><path stroke="#C4C4C4" d="M35 271.5h487"/><rect width="118" height="21" x="35.5" y="80.5" stroke="#000" stroke-linejoin="round" rx="3.5"/><rect width="140" height="22" x="234" y="85" fill="#EDECEC" rx="4"/><rect width="303" height="32" x="223.5" y="80.5" stroke="#000" stroke-linejoin="round" rx="3.5"/><rect width="46" height="21" x="164.5" y="80.5" stroke="#000" stroke-linejoin="round" rx="3.5"/><path fill="#D9D9D9" d="m143.5 95-3.897-6.75h7.794z"/><path fill="#222" d="M46.057 296v-8.727h3.051q.912 0 1.504.315.593.31.882.84.29.524.29 1.163 0 .563-.2.929-.196.366-.52.579a2.4 2.4 0 0 1-.695.316v.085q.4.026.806.281.404.256.677.733.273.478.273 1.168 0 .656-.298 1.18-.3.525-.942.831-.643.307-1.675.307zm1.057-.938h2.096q1.035 0 1.47-.4.44-.405.44-.98 0-.443-.226-.818a1.63 1.63 0 0 0-.644-.605q-.417-.231-.989-.231h-2.147zm0-3.954h1.96q.477 0 .86-.188.39-.187.614-.528.23-.34.23-.801 0-.576-.4-.976-.4-.405-1.27-.405h-1.994zm7.617-3.835V296h-1.006v-8.727zm4.5 8.863q-.885 0-1.555-.422a2.86 2.86 0 0 1-1.04-1.18q-.37-.759-.37-1.773 0-1.022.37-1.785.375-.764 1.04-1.185.67-.422 1.556-.422t1.551.422q.67.421 1.04 1.185.375.763.375 1.785 0 1.014-.375 1.773a2.8 2.8 0 0 1-1.04 1.18q-.665.423-1.551.422m0-.903q.675 0 1.109-.345.435-.345.643-.908.21-.562.21-1.219 0-.656-.21-1.223a2.07 2.07 0 0 0-.643-.916q-.435-.35-1.108-.349-.673 0-1.108.349-.434.35-.644.916-.208.567-.208 1.223t.209 1.219q.208.563.643.908t1.108.345m7.161.903q-.92 0-1.585-.434a2.83 2.83 0 0 1-1.023-1.198q-.358-.762-.358-1.743 0-.996.367-1.76.37-.767 1.03-1.197.666-.435 1.552-.435.69 0 1.244.256.555.255.908.716.354.46.439 1.074H67.96a1.56 1.56 0 0 0-.511-.793q-.392-.35-1.057-.349-.588 0-1.031.307a2 2 0 0 0-.686.856q-.243.55-.243 1.291 0 .759.239 1.321.242.562.681.874.443.31 1.04.311.392 0 .712-.136.32-.137.54-.392.223-.256.316-.614h1.006a2.3 2.3 0 0 1-.422 1.044 2.36 2.36 0 0 1-.882.733q-.546.268-1.27.268m4.982-2.522-.017-1.245h.204l2.864-2.914h1.244l-3.051 3.085h-.085zM70.436 296v-8.727h1.006V296zm4.16 0-2.558-3.239.716-.699 3.12 3.938z"/><rect width="106" height="21" x="35.5" y="280.5" stroke="#000" stroke-linejoin="round" rx="3.5"/><path fill="#222" d="M245.08 94h-1.057a2.2 2.2 0 0 0-.891-1.38 2.4 2.4 0 0 0-.729-.359 3 3 0 0 0-.835-.119q-.792 0-1.436.4-.64.401-1.018 1.181-.375.78-.375 1.913t.375 1.914q.379.78 1.018 1.18.644.4 1.436.4.435 0 .835-.119.4-.12.729-.353a2.3 2.3 0 0 0 .563-.584q.234-.35.328-.801h1.057q-.12.669-.435 1.197t-.784.9q-.47.366-1.053.558a4 4 0 0 1-1.24.191q-1.116 0-1.986-.545-.868-.545-1.368-1.551-.498-1.005-.498-2.387 0-1.38.498-2.386.5-1.005 1.368-1.551.87-.546 1.986-.546.661 0 1.24.192.584.192 1.053.563.469.366.784.895.315.523.435 1.197m5.696 3.324v-3.87h1.006V100h-1.006v-1.108h-.068a2.15 2.15 0 0 1-.716.848q-.486.345-1.227.345-.614 0-1.091-.268a1.87 1.87 0 0 1-.75-.818q-.273-.55-.273-1.385v-4.16h1.006v4.092q0 .715.4 1.141.405.427 1.031.427.376 0 .763-.192.392-.192.656-.588.269-.396.269-1.01m7.484-2.403-.903.255a1.7 1.7 0 0 0-.252-.439 1.2 1.2 0 0 0-.443-.358q-.282-.14-.72-.14-.601 0-1.002.277-.396.272-.396.694 0 .375.273.593.273.216.852.362l.972.238q.877.214 1.308.652.43.435.43 1.121 0 .562-.324 1.006a2.15 2.15 0 0 1-.894.699q-.576.255-1.339.255-1.001 0-1.657-.434-.657-.435-.831-1.27l.954-.239q.137.53.516.793.383.264 1.001.264.703 0 1.117-.298.417-.303.417-.725a.76.76 0 0 0-.238-.57q-.239-.235-.733-.35l-1.091-.256q-.899-.213-1.321-.66-.418-.453-.418-1.13 0-.554.311-.98.316-.426.857-.669a3 3 0 0 1 1.236-.243q.971 0 1.525.427.558.425.793 1.124m4.48-1.467v.853h-3.392v-.853zm-2.404-1.568h1.006v6.239q0 .426.124.64a.64.64 0 0 0 .323.28q.201.069.422.069.166 0 .273-.017l.17-.034.205.903a2.1 2.1 0 0 1-.75.12q-.426-.001-.835-.184a1.66 1.66 0 0 1-.674-.558q-.264-.376-.264-.946zm6.505 8.25q-.886 0-1.555-.421a2.87 2.87 0 0 1-1.04-1.18q-.37-.76-.371-1.774 0-1.022.371-1.785.375-.764 1.04-1.185.669-.422 1.555-.422t1.551.422a2.8 2.8 0 0 1 1.04 1.185q.375.762.375 1.785 0 1.015-.375 1.773-.37.76-1.04 1.18-.665.422-1.551.422m0-.903q.673 0 1.108-.345t.644-.908a3.5 3.5 0 0 0 .208-1.219q0-.656-.208-1.223a2.07 2.07 0 0 0-.644-.916q-.435-.35-1.108-.35t-1.108.35a2.06 2.06 0 0 0-.643.916 3.5 3.5 0 0 0-.209 1.223q0 .657.209 1.22.209.561.643.907.435.345 1.108.345m4.501.767v-6.546h.972v1.023h.085q.205-.524.661-.814.456-.294 1.095-.294.648 0 1.078.294.435.29.678.814h.068q.251-.507.754-.805.502-.303 1.206-.303.878 0 1.436.55.558.546.558 1.7V100h-1.005v-4.38q0-.726-.397-1.036a1.47 1.47 0 0 0-.933-.311q-.69 0-1.07.417-.379.413-.379 1.049V100h-1.023v-4.483q0-.558-.362-.9-.361-.345-.933-.344-.392 0-.733.209-.336.208-.545.58a1.7 1.7 0 0 0-.205.847V100zm13.174.136q-.945 0-1.632-.417a2.8 2.8 0 0 1-1.052-1.176q-.367-.759-.367-1.765t.367-1.772a2.9 2.9 0 0 1 1.031-1.202q.664-.435 1.551-.435a3.1 3.1 0 0 1 1.01.17q.498.172.908.555.409.38.652 1.005.243.627.243 1.543v.426h-5.046v-.87h4.023q0-.552-.222-.988a1.67 1.67 0 0 0-.622-.686 1.74 1.74 0 0 0-.946-.251q-.601 0-1.04.298a2 2 0 0 0-.669.767 2.26 2.26 0 0 0-.234 1.014v.58q0 .741.256 1.257.26.51.72.78a2.1 2.1 0 0 0 1.069.264q.397 0 .716-.11.324-.116.558-.342a1.55 1.55 0 0 0 .363-.57l.971.272q-.153.495-.515.87a2.5 2.5 0 0 1-.895.579 3.3 3.3 0 0 1-1.198.204m4.24-.136v-6.546h.972v.99h.068q.178-.487.648-.79a1.9 1.9 0 0 1 1.057-.302q.11 0 .277.004.165.005.251.013v1.023a3 3 0 0 0-.234-.038q-.18-.03-.38-.03a1.8 1.8 0 0 0-.852.2q-.37.196-.588.546a1.47 1.47 0 0 0-.213.788V100zm8.335 0h-1.108l3.204-8.727h1.091l3.205 8.727h-1.108l-2.608-7.347h-.068zm.409-3.41h4.466v.938H297.5zm9.865 3.546q-.92 0-1.586-.434a2.83 2.83 0 0 1-1.022-1.198q-.358-.763-.358-1.743 0-.996.366-1.76.37-.766 1.032-1.197.664-.435 1.551-.435.69 0 1.244.256t.908.716.439 1.074h-1.006a1.56 1.56 0 0 0-.511-.793q-.393-.35-1.057-.35a1.77 1.77 0 0 0-1.032.307 2 2 0 0 0-.686.857q-.243.55-.243 1.291 0 .759.239 1.321.243.562.682.874.443.31 1.04.311.392 0 .711-.136.32-.137.542-.392.22-.256.315-.614h1.006a2.34 2.34 0 0 1-.422 1.044 2.36 2.36 0 0 1-.882.733q-.546.268-1.27.268m6.703 0q-.92 0-1.585-.434a2.83 2.83 0 0 1-1.023-1.198q-.358-.763-.358-1.743 0-.996.366-1.76a2.9 2.9 0 0 1 1.032-1.197q.664-.435 1.551-.435.69 0 1.244.256t.908.716.439 1.074h-1.006a1.56 1.56 0 0 0-.511-.793q-.393-.35-1.057-.35-.588 0-1.031.307a2 2 0 0 0-.687.857q-.242.55-.242 1.291 0 .759.238 1.321.243.562.682.874.443.31 1.04.311.392 0 .711-.136.32-.137.542-.392.221-.256.315-.614h1.006a2.34 2.34 0 0 1-.422 1.044 2.36 2.36 0 0 1-.882.733q-.546.268-1.27.268m6.703 0q-.886 0-1.555-.421a2.86 2.86 0 0 1-1.04-1.18q-.37-.76-.371-1.774 0-1.022.371-1.785.375-.764 1.04-1.185.669-.422 1.555-.422.887 0 1.551.422a2.8 2.8 0 0 1 1.04 1.185q.375.762.375 1.785 0 1.015-.375 1.773-.37.76-1.04 1.18-.664.422-1.551.422m0-.903q.673 0 1.108-.345t.643-.908q.21-.562.209-1.219 0-.656-.209-1.223a2.06 2.06 0 0 0-.643-.916q-.435-.35-1.108-.35t-1.108.35-.643.916q-.21.567-.209 1.223 0 .657.209 1.22.208.561.643.907.435.345 1.108.345m8.626-1.91v-3.868h1.006V100h-1.006v-1.108h-.068a2.15 2.15 0 0 1-.716.848q-.486.345-1.227.345-.614 0-1.091-.268a1.9 1.9 0 0 1-.75-.818q-.273-.55-.273-1.385v-4.16h1.006v4.092q0 .715.4 1.141.405.427 1.032.427.375 0 .762-.192.392-.192.657-.588.268-.396.268-1.01m3.853-1.26V100h-1.005v-6.546h.971v1.023h.085q.231-.499.699-.8.469-.308 1.211-.308.665 0 1.163.273.498.269.776.818.276.546.276 1.38V100h-1.005v-4.09q0-.773-.401-1.203-.4-.435-1.099-.434-.482 0-.861.209-.375.209-.592.609-.218.4-.218.972m8.861-2.609v.853h-3.392v-.853zm-2.404-1.568h1.006v6.239q0 .426.124.64.127.208.324.28.2.069.421.069.166 0 .273-.017l.171-.034.204.903a2.1 2.1 0 0 1-.75.12q-.426-.001-.835-.184a1.66 1.66 0 0 1-.673-.558q-.265-.376-.265-.946zm8.436 3.035-.904.255a1.7 1.7 0 0 0-.251-.439 1.2 1.2 0 0 0-.443-.358q-.282-.14-.72-.14-.602 0-1.002.277-.396.272-.396.694 0 .375.273.593.272.216.852.362l.971.238q.879.214 1.309.652.43.435.43 1.121 0 .562-.324 1.006a2.15 2.15 0 0 1-.895.699q-.574.255-1.338.255-1.001 0-1.657-.434-.657-.435-.831-1.27l.954-.239q.137.53.516.793.383.264 1.001.264.703 0 1.117-.298.417-.303.417-.725a.76.76 0 0 0-.238-.57q-.239-.235-.733-.35l-1.091-.256q-.9-.213-1.321-.66-.418-.453-.418-1.13 0-.554.311-.98.315-.426.857-.669a3 3 0 0 1 1.236-.243q.971 0 1.525.427.558.425.793 1.124M46.415 146h-1.108l3.204-8.727h1.091L52.807 146h-1.108l-2.608-7.347h-.068zm.409-3.409h4.466v.937h-4.466zm7.206 5.864v-9H55v1.039h.12q.11-.17.307-.434.2-.268.57-.478.375-.213 1.015-.213.826 0 1.457.414.63.413.985 1.172.353.758.353 1.789 0 1.04-.353 1.803-.354.759-.98 1.176-.627.413-1.445.413-.63 0-1.01-.208a1.9 1.9 0 0 1-.584-.482 6 6 0 0 1-.315-.452h-.086v3.461zm.989-5.728q0 .742.217 1.309.217.563.635.882.418.315 1.023.315.63 0 1.052-.332.426-.337.64-.904.216-.571.217-1.27 0-.69-.213-1.244a1.9 1.9 0 0 0-.636-.882q-.42-.328-1.06-.328-.614 0-1.032.311a1.86 1.86 0 0 0-.63.861q-.213.55-.213 1.282m6.323 5.728v-9h.972v1.039h.12q.11-.17.306-.434.2-.268.571-.478.375-.213 1.014-.213.827 0 1.458.414.63.413.984 1.172t.354 1.789q0 1.04-.354 1.803-.353.759-.98 1.176-.627.413-1.445.413-.63 0-1.01-.208a1.9 1.9 0 0 1-.583-.482 6 6 0 0 1-.316-.452h-.085v3.461zm.989-5.728q0 .742.217 1.309.218.563.635.882.419.315 1.023.315.63 0 1.052-.332.427-.337.64-.904.217-.571.217-1.27 0-.69-.213-1.244a1.9 1.9 0 0 0-.635-.882q-.422-.328-1.061-.328-.614 0-1.031.311a1.86 1.86 0 0 0-.631.861q-.213.55-.213 1.282m7.33-5.454V146h-1.006v-8.727zM71.502 146v-6.545h1.006V146zm.512-7.636a.7.7 0 0 1-.507-.201.64.64 0 0 1-.21-.481q0-.282.21-.482a.72.72 0 0 1 .507-.2q.294 0 .503.2a.64.64 0 0 1 .213.482.64.64 0 0 1-.213.481.7.7 0 0 1-.503.201m4.995 7.772q-.92 0-1.585-.434a2.83 2.83 0 0 1-1.023-1.198q-.357-.762-.358-1.743 0-.996.367-1.76.37-.766 1.031-1.197.665-.435 1.551-.435.69 0 1.245.256.553.255.907.716.353.46.44 1.074h-1.007a1.56 1.56 0 0 0-.51-.793q-.393-.35-1.058-.349-.588 0-1.031.307a2 2 0 0 0-.686.856q-.243.55-.243 1.291 0 .759.239 1.321.243.562.681.874.444.31 1.04.311.393 0 .712-.136.32-.137.541-.392.222-.256.315-.614h1.006a2.3 2.3 0 0 1-.422 1.044 2.36 2.36 0 0 1-.882.733q-.546.268-1.27.268m5.97.017q-.62 0-1.129-.234a1.94 1.94 0 0 1-.805-.686q-.3-.452-.299-1.091 0-.562.222-.912.222-.353.592-.554.371-.2.819-.298.45-.102.907-.162.597-.077.968-.115.374-.043.545-.141.174-.098.175-.341v-.034q0-.63-.345-.98-.342-.35-1.036-.349-.72 0-1.13.315-.408.316-.575.673l-.954-.341q.255-.596.682-.929.431-.336.937-.468a4 4 0 0 1 1.006-.137 4 4 0 0 1 .724.077q.414.072.797.303.388.23.644.694.255.465.255 1.245V146h-1.005v-.886h-.051a1.8 1.8 0 0 1-.341.456q-.24.243-.635.413-.396.17-.968.17m.154-.903q.597 0 1.005-.234.413-.235.623-.605.213-.372.213-.78v-.921q-.065.077-.282.141-.213.06-.494.106a21 21 0 0 1-.963.128 4 4 0 0 0-.733.166 1.26 1.26 0 0 0-.545.337q-.205.221-.205.605 0 .525.388.793.391.264.993.264m7.529-5.795v.852h-3.393v-.852zm-2.404-1.569h1.006v6.239q0 .426.123.639a.64.64 0 0 0 .324.281q.2.069.422.069.167 0 .273-.017l.17-.035.205.904a2.2 2.2 0 0 1-.75.119q-.427 0-.835-.183a1.66 1.66 0 0 1-.674-.558q-.264-.376-.264-.946zM92.174 146v-6.545h1.006V146zm.512-7.636a.7.7 0 0 1-.507-.201.64.64 0 0 1-.21-.481q0-.282.21-.482a.72.72 0 0 1 .507-.2q.293 0 .503.2a.64.64 0 0 1 .213.482.64.64 0 0 1-.213.481.7.7 0 0 1-.503.201m4.995 7.772q-.886 0-1.555-.422a2.86 2.86 0 0 1-1.04-1.18q-.37-.759-.37-1.773 0-1.022.37-1.785.375-.763 1.04-1.185.669-.422 1.555-.422t1.551.422q.67.421 1.04 1.185.375.763.375 1.785 0 1.014-.375 1.773a2.8 2.8 0 0 1-1.04 1.18q-.665.423-1.55.422m0-.903q.673 0 1.108-.345.434-.345.644-.908.208-.562.208-1.219 0-.656-.209-1.223a2.07 2.07 0 0 0-.643-.916q-.435-.35-1.108-.349-.673 0-1.108.349-.435.35-.643.916-.21.567-.21 1.223t.21 1.219.643.908 1.108.345m5.507-3.171V146h-1.006v-6.545h.972v1.022h.085q.23-.498.699-.801.468-.307 1.21-.307.665 0 1.163.273.499.269.776.818.277.546.277 1.381V146h-1.006v-4.091q0-.771-.4-1.202-.4-.434-1.1-.434-.482 0-.86.209-.375.209-.593.609t-.217.971m70.925-4.789V146h-1.057v-8.727zm2.988 4.789V146h-1.006v-6.545h.972v1.022h.085q.23-.498.699-.801.469-.307 1.21-.307.665 0 1.163.273.499.269.776.818.277.546.277 1.381V146h-1.006v-4.091q0-.771-.4-1.202-.4-.434-1.1-.434-.482 0-.86.209-.375.209-.593.609t-.217.971"/><rect width="118" height="21" x="35.5" y="130.5" stroke="#000" stroke-linejoin="round" rx="3.5"/><rect width="74" height="22" x="234" y="135" fill="#EDECEC" rx="4"/><rect width="303" height="64" x="223.5" y="130.5" stroke="#000" stroke-linejoin="round" rx="3.5"/><rect width="46" height="21" x="164.5" y="130.5" stroke="#000" stroke-linejoin="round" rx="3.5"/><path fill="#D9D9D9" d="m143.5 145-3.897-6.75h7.794zm58 0-3.897-6.75h7.794zm0-50-3.897-6.75h7.794z"/><path fill="#222" d="M240.75 150h-2.693v-8.727h2.812q1.27 0 2.174.524a3.43 3.43 0 0 1 1.385 1.496q.481.971.481 2.326 0 1.364-.486 2.348a3.46 3.46 0 0 1-1.414 1.509q-.93.524-2.259.524m-1.636-.938h1.568q1.081 0 1.794-.417a2.58 2.58 0 0 0 1.061-1.189q.35-.77.349-1.837 0-1.056-.345-1.819a2.54 2.54 0 0 0-1.031-1.176q-.686-.414-1.709-.414h-1.687zm7.431.938v-6.545h.972v.988h.068q.18-.486.648-.788a1.9 1.9 0 0 1 1.057-.303 11 11 0 0 1 .528.017v1.023a3 3 0 0 0-.234-.038q-.18-.03-.379-.03-.478 0-.853.2a1.47 1.47 0 0 0-.801 1.334V150zm6.925.136q-.886 0-1.555-.422a2.86 2.86 0 0 1-1.04-1.18q-.37-.759-.371-1.773 0-1.022.371-1.785.375-.763 1.04-1.185.669-.422 1.555-.422.887 0 1.551.422.67.421 1.04 1.185.375.763.375 1.785 0 1.014-.375 1.773a2.8 2.8 0 0 1-1.04 1.18q-.665.423-1.551.422m0-.903q.673 0 1.108-.345t.644-.908q.208-.562.208-1.219 0-.656-.208-1.223a2.07 2.07 0 0 0-.644-.916q-.435-.35-1.108-.349-.673 0-1.108.349-.435.35-.643.916a3.5 3.5 0 0 0-.209 1.223q0 .657.209 1.219.208.563.643.908t1.108.345m4.501 3.222v-9h.972v1.039h.119a9 9 0 0 1 .307-.434q.2-.268.571-.478.375-.213 1.014-.213.826 0 1.458.414.63.413.984 1.172t.354 1.789q0 1.04-.354 1.803-.354.759-.98 1.176-.627.413-1.445.413-.63 0-1.01-.208a1.9 1.9 0 0 1-.584-.482 7 7 0 0 1-.315-.452h-.085v3.461zm.989-5.728q0 .742.217 1.309.218.563.635.882.418.315 1.023.315.63 0 1.052-.332a2.03 2.03 0 0 0 .64-.904q.217-.571.217-1.27 0-.69-.213-1.244a1.9 1.9 0 0 0-.635-.882q-.422-.328-1.061-.328-.614 0-1.031.311-.418.306-.631.861-.213.55-.213 1.282m6.46 3.273v-8.727h1.006v3.221h.085a9 9 0 0 1 .307-.434q.2-.268.571-.478.375-.213 1.014-.213.827 0 1.457.414.631.413.985 1.172t.354 1.789q0 1.04-.354 1.803-.354.759-.98 1.176-.626.413-1.445.413-.63 0-1.01-.208a1.9 1.9 0 0 1-.584-.482 7 7 0 0 1-.315-.452h-.119V150zm.989-3.273q0 .742.217 1.309.218.563.635.882.417.315 1.023.315.63 0 1.052-.332.426-.337.639-.904.218-.571.218-1.27 0-.69-.213-1.244a1.9 1.9 0 0 0-.635-.882q-.422-.328-1.061-.328-.613 0-1.032.311a1.86 1.86 0 0 0-.63.861q-.213.55-.213 1.282m8.987 3.409q-.886 0-1.555-.422a2.86 2.86 0 0 1-1.04-1.18q-.37-.759-.371-1.773 0-1.022.371-1.785.375-.763 1.04-1.185.669-.422 1.555-.422.887 0 1.551.422.67.421 1.04 1.185.375.763.375 1.785 0 1.014-.375 1.773a2.8 2.8 0 0 1-1.04 1.18q-.664.423-1.551.422m0-.903q.673 0 1.108-.345t.643-.908q.21-.562.209-1.219 0-.656-.209-1.223a2.06 2.06 0 0 0-.643-.916q-.435-.35-1.108-.349-.673 0-1.108.349-.435.35-.643.916-.21.567-.209 1.223 0 .657.209 1.219.208.563.643.908t1.108.345m4.981-5.778 1.569 2.676 1.568-2.676h1.159l-2.114 3.272 2.114 3.273h-1.159l-1.568-2.54-1.569 2.54h-1.159l2.08-3.273-2.08-3.272z"/><circle cx="361" cy="96" r="6" fill="#747474"/><path fill="#C4C4C4" d="m357.65 100 2.535-3.679-2.379-3.471h1.378l1.417 2.21q.091.143.169.312.091.17.143.273.039-.104.117-.273.091-.17.182-.312l1.43-2.21h1.365l-2.379 3.484L364.15 100h-1.378l-1.534-2.34a4 4 0 0 1-.182-.325q-.078-.195-.143-.312a6 6 0 0 1-.156.312q-.091.182-.195.325l-1.547 2.34z"/><path fill="#222" d="M46.057 226v-8.727h1.057v3.886h4.653v-3.886h1.057V226h-1.057v-3.903h-4.653V226zm8.405-7.79v-.937h6.546v.937h-2.745V226h-1.056v-7.79zm7.7 0v-.937h6.545v.937h-2.744V226h-1.057v-7.79zm8.176 7.79v-8.727h2.949q1.027 0 1.679.37.655.367.972.993.315.627.315 1.398 0 .772-.316 1.402a2.34 2.34 0 0 1-.963 1.006q-.651.37-1.67.37H71.19v-.937h2.08q.703 0 1.13-.243a1.45 1.45 0 0 0 .617-.656q.195-.418.196-.942a2.16 2.16 0 0 0-.196-.937 1.4 1.4 0 0 0-.622-.648q-.43-.239-1.142-.239h-1.858V226zm10.992-8.727h1.262l2.966 7.244h.102l2.966-7.244h1.261V226h-.989v-6.631h-.085L86.086 226h-.955l-2.727-6.631h-.085V226h-.989zm13.284 8.863q-.946 0-1.632-.417a2.8 2.8 0 0 1-1.053-1.176q-.366-.759-.366-1.765t.366-1.772q.371-.772 1.032-1.202.665-.435 1.55-.435.512 0 1.01.171.5.17.908.554.41.38.652 1.005.243.627.243 1.543v.426H92.28v-.869h4.023a2.15 2.15 0 0 0-.222-.989 1.67 1.67 0 0 0-.622-.686 1.75 1.75 0 0 0-.946-.251q-.6 0-1.04.298-.435.294-.67.767a2.25 2.25 0 0 0-.234 1.014v.58q0 .741.256 1.257.261.512.72.78.46.264 1.07.264.396 0 .716-.111a1.5 1.5 0 0 0 .558-.341q.234-.23.362-.571l.972.273a2.16 2.16 0 0 1-.516.869q-.362.371-.895.58a3.3 3.3 0 0 1-1.197.204m7.087-6.681v.852H98.31v-.852zm-2.404-1.569h1.006v6.239q0 .426.123.639a.65.65 0 0 0 .324.281q.201.069.422.069.166 0 .273-.017l.17-.035.205.904a2.2 2.2 0 0 1-.75.119q-.427 0-.835-.183a1.66 1.66 0 0 1-.674-.558q-.264-.376-.264-.946zm5.063 4.176V226h-1.006v-8.727h1.006v3.204h.085q.23-.507.69-.805.465-.303 1.236-.303.67 0 1.172.269.502.264.78.814.28.544.281 1.389V226h-1.006v-4.091q0-.78-.404-1.206-.401-.43-1.113-.43-.494 0-.886.209a1.5 1.5 0 0 0-.614.609q-.22.4-.221.971m8.743 4.074q-.886 0-1.555-.422a2.86 2.86 0 0 1-1.04-1.18q-.37-.759-.371-1.773 0-1.022.371-1.785.375-.763 1.04-1.185.669-.422 1.555-.422t1.551.422q.67.421 1.04 1.185.375.763.375 1.785 0 1.014-.375 1.773a2.8 2.8 0 0 1-1.04 1.18q-.665.423-1.551.422m0-.903q.673 0 1.108-.345t.643-.908q.21-.562.209-1.219 0-.656-.209-1.223a2.06 2.06 0 0 0-.643-.916q-.435-.35-1.108-.349-.673 0-1.108.349-.435.35-.643.916-.21.567-.209 1.223 0 .657.209 1.219.208.563.643.908t1.108.345m6.973.903q-.819 0-1.445-.413-.626-.417-.98-1.176-.354-.763-.354-1.803 0-1.031.354-1.789.354-.76.984-1.172.631-.414 1.458-.414.638 0 1.01.213.375.21.571.478.2.264.311.434h.085v-3.221h1.006V226h-.972v-1.006h-.119a6 6 0 0 1-.316.452q-.204.269-.583.482-.38.208-1.01.208m.136-.903q.605 0 1.023-.315.417-.32.635-.882.217-.567.217-1.309 0-.732-.213-1.282-.213-.555-.631-.861-.417-.312-1.031-.311-.639 0-1.065.328a1.96 1.96 0 0 0-.635.882 3.5 3.5 0 0 0-.209 1.244q0 .699.213 1.27.217.567.639.904.427.332 1.057.332m53.901-7.96V226h-1.057v-8.727zm6.619 3.647-.904.256a1.7 1.7 0 0 0-.251-.439 1.2 1.2 0 0 0-.443-.358q-.282-.14-.721-.14-.6 0-1.001.277-.396.272-.396.694 0 .375.272.593.273.216.853.362l.971.238q.879.214 1.309.652.43.435.43 1.121 0 .562-.324 1.006a2.15 2.15 0 0 1-.895.699q-.575.255-1.338.255-1.001 0-1.658-.434-.656-.435-.831-1.27l.955-.239q.137.529.516.793.383.264 1.001.264.703 0 1.117-.298.417-.303.417-.725a.76.76 0 0 0-.238-.571q-.24-.234-.733-.349l-1.091-.256q-.9-.213-1.321-.66-.418-.452-.418-1.13 0-.554.311-.98.315-.426.857-.669a3 3 0 0 1 1.235-.243q.972 0 1.526.426.558.428.793 1.125"/><rect width="118" height="21" x="35.5" y="210.5" stroke="#000" stroke-linejoin="round" rx="3.5"/><rect width="51" height="22" x="234" y="215" fill="#EDECEC" rx="4"/><rect width="303" height="32" x="223.5" y="210.5" stroke="#000" stroke-linejoin="round" rx="3.5"/><rect width="46" height="21" x="164.5" y="210.5" stroke="#000" stroke-linejoin="round" rx="3.5"/><path fill="#D9D9D9" d="m143.5 225-3.897-6.75h7.794z"/><path fill="#222" d="M238.057 230v-8.727h2.949q1.026 0 1.679.37.656.367.971.993.316.627.316 1.398 0 .772-.316 1.402a2.34 2.34 0 0 1-.963 1.006q-.651.37-1.67.37h-2.114v-.937h2.08q.702 0 1.129-.243.426-.243.618-.656.195-.418.196-.942a2.2 2.2 0 0 0-.196-.937 1.4 1.4 0 0 0-.622-.648q-.43-.239-1.142-.239h-1.858V230zm13.344-8.727h1.057v5.778q0 .895-.422 1.598a2.95 2.95 0 0 1-1.18 1.104q-.763.4-1.79.4t-1.79-.4a3 3 0 0 1-1.184-1.104 3.06 3.06 0 0 1-.418-1.598v-5.778h1.057v5.693q0 .639.281 1.138.282.494.801.78.524.28 1.253.281.728 0 1.253-.281.524-.287.801-.78.281-.5.281-1.138zm2.69.937v-.937h6.546v.937h-2.745V230h-1.056v-7.79z"/><path fill="#D9D9D9" d="m201.5 225-3.897-6.75h7.794z"/><circle cx="273" cy="226" r="6" fill="#747474"/><path fill="#C4C4C4" d="m269.65 230 2.535-3.679-2.379-3.471h1.378l1.417 2.21q.091.143.169.312.091.17.143.273.039-.103.117-.273.091-.17.182-.312l1.43-2.21h1.365l-2.379 3.484L276.15 230h-1.378l-1.534-2.34a4 4 0 0 1-.182-.325q-.078-.195-.143-.312a6 6 0 0 1-.156.312q-.091.182-.195.325l-1.547 2.34z"/><rect width="140" height="22" x="381" y="85" fill="#EDECEC" rx="4"/><path fill="#222" d="M385.057 100v-8.727h5.233v.937h-4.176v2.95h3.784v.937h-3.784V100zm6.906 0v-6.546h1.006V100zm.512-7.636a.72.72 0 0 1-.507-.2.64.64 0 0 1-.209-.482.64.64 0 0 1 .209-.482.72.72 0 0 1 .507-.2q.293 0 .503.2a.64.64 0 0 1 .213.482.64.64 0 0 1-.213.481.7.7 0 0 1-.503.2m3.342 3.698V100h-1.006v-6.546h.972v1.023h.085q.23-.499.699-.8.469-.308 1.21-.308.665 0 1.163.273.499.269.776.818.277.546.277 1.38V100h-1.006v-4.09q0-.773-.4-1.203-.4-.435-1.1-.434-.481 0-.861.209-.375.209-.592.609t-.217.972m7.94 4.091q-.622 0-1.13-.234a1.94 1.94 0 0 1-.805-.686q-.298-.452-.298-1.091 0-.562.221-.912a1.57 1.57 0 0 1 .593-.554q.37-.2.818-.298.452-.102.908-.162.596-.077.967-.115.375-.043.545-.14.175-.099.175-.342v-.034q0-.63-.345-.98-.341-.35-1.036-.35-.72 0-1.129.316t-.575.673l-.955-.34q.256-.597.682-.93.43-.336.938-.468.511-.137 1.005-.137.316 0 .725.077.413.073.797.303.387.23.643.694.256.465.256 1.245V100h-1.006v-.886h-.051a1.8 1.8 0 0 1-.341.456 2 2 0 0 1-.635.413q-.397.17-.967.17m.153-.903q.597 0 1.006-.234a1.6 1.6 0 0 0 .835-1.385v-.92q-.064.075-.281.14-.213.06-.495.106a22 22 0 0 1-.963.128q-.391.052-.733.166a1.26 1.26 0 0 0-.545.337q-.204.222-.205.605 0 .525.388.793.393.264.993.264m5.688-3.187V100h-1.006v-6.546h.972v1.023h.085q.231-.499.699-.8.47-.308 1.21-.308.664 0 1.164.273.498.269.775.818.277.546.277 1.38V100h-1.006v-4.09q0-.773-.4-1.203-.4-.435-1.1-.434-.481 0-.86.209-.375.209-.593.609t-.217.972m8.673 4.073q-.92 0-1.585-.434a2.84 2.84 0 0 1-1.023-1.198q-.358-.763-.358-1.743 0-.996.367-1.76a2.9 2.9 0 0 1 1.031-1.197q.664-.435 1.551-.435.69 0 1.244.256.555.256.908.716.354.46.439 1.074h-1.006a1.56 1.56 0 0 0-.511-.793q-.393-.35-1.057-.35-.588 0-1.031.307a2 2 0 0 0-.686.857q-.243.55-.243 1.291 0 .759.238 1.321.243.562.682.874.443.31 1.04.311.392 0 .712-.136a1.5 1.5 0 0 0 .541-.392q.222-.256.315-.614h1.006a2.34 2.34 0 0 1-.422 1.044 2.36 2.36 0 0 1-.882.733q-.546.268-1.27.268m6.788 0q-.945 0-1.632-.417a2.8 2.8 0 0 1-1.052-1.176q-.367-.759-.367-1.765t.367-1.772a2.9 2.9 0 0 1 1.031-1.202q.665-.435 1.551-.435a3.1 3.1 0 0 1 1.01.17q.498.172.908.555.409.38.652 1.005.243.627.243 1.543v.426h-5.046v-.87h4.023q0-.552-.222-.988a1.67 1.67 0 0 0-.622-.686 1.74 1.74 0 0 0-.946-.251q-.601 0-1.04.298-.435.294-.669.767a2.26 2.26 0 0 0-.234 1.014v.58q0 .741.256 1.257.26.51.72.78a2.1 2.1 0 0 0 1.069.264q.397 0 .716-.11.324-.116.558-.342a1.55 1.55 0 0 0 .363-.57l.971.272q-.153.495-.515.87a2.5 2.5 0 0 1-.895.579 3.3 3.3 0 0 1-1.198.204m8.809-8.863V100h-1.057v-8.727zm2.988 4.79V100h-1.006v-6.546h.972v1.023h.085q.23-.499.699-.8.468-.308 1.21-.308.665 0 1.163.273.499.269.776.818.277.546.277 1.38V100h-1.006v-4.09q0-.773-.4-1.203-.4-.435-1.1-.434-.482 0-.861.209-.375.209-.592.609t-.217.972m8.928-2.609v.853h-3.528v-.853zM443.313 100v-7.449q0-.562.264-.937t.686-.563.891-.187q.37 0 .605.06t.349.11l-.289.87a6 6 0 0 0-.214-.064 1.3 1.3 0 0 0-.349-.039q-.498 0-.72.252-.217.25-.217.737V100zm6.27.136q-.885 0-1.555-.421a2.87 2.87 0 0 1-1.04-1.18q-.37-.76-.37-1.774 0-1.022.37-1.785.375-.764 1.04-1.185.67-.422 1.555-.422.886 0 1.552.422.669.422 1.039 1.185.375.762.375 1.785 0 1.015-.375 1.773-.37.76-1.039 1.18-.666.422-1.552.422m0-.903q.674 0 1.108-.345t.644-.908a3.5 3.5 0 0 0 .209-1.219q0-.656-.209-1.223a2.06 2.06 0 0 0-.644-.916q-.434-.35-1.108-.35-.672 0-1.108.35a2.06 2.06 0 0 0-.643.916 3.5 3.5 0 0 0-.209 1.223q0 .657.209 1.22.209.561.643.907.436.345 1.108.345m4.502.767v-6.546h.971v.99h.068q.18-.487.648-.79a1.9 1.9 0 0 1 1.057-.302q.11 0 .277.004a4 4 0 0 1 .251.013v1.023a3 3 0 0 0-.234-.038 2.3 2.3 0 0 0-.379-.03q-.478 0-.853.2-.37.196-.588.546a1.47 1.47 0 0 0-.213.788V100zm4.464 0v-6.546h.972v1.023h.085q.205-.524.661-.814.456-.294 1.095-.294.648 0 1.078.294.435.29.678.814h.068q.251-.507.754-.805.502-.303 1.206-.303.878 0 1.436.55.558.546.558 1.7V100h-1.005v-4.38q0-.726-.397-1.036a1.47 1.47 0 0 0-.933-.311q-.69 0-1.07.417-.379.413-.379 1.049V100h-1.023v-4.483q0-.558-.362-.9-.361-.345-.933-.344-.392 0-.733.209-.336.208-.545.58a1.7 1.7 0 0 0-.205.847V100zm12.356.153q-.622 0-1.129-.234a1.93 1.93 0 0 1-.805-.686q-.299-.452-.299-1.091 0-.562.222-.912.222-.353.592-.554.37-.2.818-.298.452-.102.908-.162.597-.077.967-.115.375-.043.546-.14.174-.099.175-.342v-.034q0-.63-.346-.98-.34-.35-1.035-.35-.72 0-1.129.316t-.576.673l-.954-.34q.255-.597.682-.93.43-.336.937-.468.511-.137 1.006-.137.315 0 .724.077.413.073.797.303.388.23.644.694.255.465.255 1.245V100H472.9v-.886h-.052a1.8 1.8 0 0 1-.341.456q-.238.243-.634.413-.397.17-.968.17m.154-.903q.596 0 1.005-.234a1.6 1.6 0 0 0 .622-.606q.214-.37.214-.78v-.92q-.064.077-.282.14-.213.06-.494.107a23 23 0 0 1-.963.128q-.392.052-.733.166a1.3 1.3 0 0 0-.546.337q-.204.222-.204.605 0 .525.388.793.392.264.993.264m7.528-5.796v.853h-3.392v-.853zm-2.403-1.568h1.006v6.239q0 .426.123.64.128.208.324.28.2.069.422.069.166 0 .273-.017l.17-.034.205.903a2.2 2.2 0 0 1-.75.119q-.426 0-.836-.183a1.66 1.66 0 0 1-.673-.558q-.264-.376-.264-.946zM480.1 100v-6.546h1.006V100zm.512-7.636a.72.72 0 0 1-.508-.2.64.64 0 0 1-.208-.482q0-.281.208-.482a.72.72 0 0 1 .508-.2q.294 0 .502.2a.64.64 0 0 1 .213.482.64.64 0 0 1-.213.481.7.7 0 0 1-.502.2m4.995 7.772q-.886 0-1.556-.421a2.87 2.87 0 0 1-1.039-1.18q-.37-.76-.371-1.774 0-1.022.371-1.785a2.86 2.86 0 0 1 1.039-1.185q.67-.422 1.556-.422.887 0 1.551.422a2.8 2.8 0 0 1 1.04 1.185q.375.762.375 1.785 0 1.015-.375 1.773-.37.76-1.04 1.18-.664.422-1.551.422m0-.903q.673 0 1.108-.345t.643-.908q.21-.562.209-1.219 0-.656-.209-1.223a2.06 2.06 0 0 0-.643-.916q-.435-.35-1.108-.35t-1.108.35-.644.916a3.5 3.5 0 0 0-.208 1.223q0 .657.208 1.22.21.561.644.907.435.345 1.108.345m5.507-3.17V100h-1.006v-6.546h.972v1.023h.085q.23-.499.699-.8.469-.308 1.21-.308.665 0 1.163.273.499.269.776.818.276.546.277 1.38V100h-1.006v-4.09q0-.773-.4-1.203-.401-.435-1.1-.434-.481 0-.861.209-.375.209-.592.609t-.217.972"/><circle cx="508" cy="96" r="6" fill="#747474"/><path fill="#C4C4C4" d="m504.65 100 2.535-3.679-2.379-3.471h1.378l1.417 2.21q.091.143.169.312.091.17.143.273.039-.104.117-.273.091-.17.182-.312l1.43-2.21h1.365l-2.379 3.484L511.15 100h-1.378l-1.534-2.34a4 4 0 0 1-.182-.325q-.078-.195-.143-.312a6 6 0 0 1-.156.312q-.091.182-.195.325l-1.547 2.34z"/><circle cx="297" cy="146" r="6" fill="#747474"/><path fill="#C4C4C4" d="m293.65 150 2.535-3.679-2.379-3.471h1.378l1.417 2.21q.091.143.169.312.091.17.143.273.039-.103.117-.273.091-.17.182-.312l1.43-2.21h1.365l-2.379 3.484L300.15 150h-1.378l-1.534-2.34a4 4 0 0 1-.182-.325q-.078-.195-.143-.312a6 6 0 0 1-.156.312q-.091.182-.195.325l-1.547 2.34z"/><rect width="101" height="22" x="401" y="135" fill="#EDECEC" rx="4"/><path fill="#222" d="M411.023 144a3 3 0 0 0-.371-.771 2.4 2.4 0 0 0-.541-.588 2.3 2.3 0 0 0-.708-.371 2.8 2.8 0 0 0-.869-.128q-.776 0-1.41.401-.635.4-1.01 1.18t-.375 1.913.379 1.914 1.027 1.18 1.457.401q.75 0 1.321-.32.576-.324.895-.912.324-.592.324-1.393l.324.068h-2.625v-.938h3.324v.938q0 1.078-.46 1.875a3.2 3.2 0 0 1-1.262 1.236q-.801.434-1.841.434-1.158 0-2.037-.545-.873-.546-1.363-1.551-.486-1.006-.486-2.387 0-1.035.277-1.862a4.1 4.1 0 0 1 .793-1.415q.51-.583 1.21-.895a3.7 3.7 0 0 1 1.538-.311q.69 0 1.287.209a3.47 3.47 0 0 1 1.858 1.483q.315.52.435 1.155zm5.475 6.136q-.887 0-1.556-.422a2.86 2.86 0 0 1-1.04-1.18q-.37-.759-.37-1.773 0-1.022.37-1.785.375-.763 1.04-1.185.67-.422 1.556-.422.885 0 1.551.422.669.421 1.039 1.185.375.763.375 1.785 0 1.014-.375 1.773a2.8 2.8 0 0 1-1.039 1.18q-.666.423-1.551.422m0-.903q.673 0 1.107-.345.435-.345.644-.908a3.5 3.5 0 0 0 .209-1.219q0-.656-.209-1.223a2.06 2.06 0 0 0-.644-.916q-.434-.35-1.107-.349-.674 0-1.108.349-.435.35-.644.916a3.5 3.5 0 0 0-.209 1.223q0 .657.209 1.219t.644.908q.434.345 1.108.345m7.16.903q-.887 0-1.556-.422a2.86 2.86 0 0 1-1.04-1.18q-.37-.759-.37-1.773 0-1.022.37-1.785.375-.763 1.04-1.185.67-.422 1.556-.422t1.551.422q.668.421 1.04 1.185.375.763.375 1.785 0 1.014-.375 1.773a2.83 2.83 0 0 1-1.04 1.18q-.665.423-1.551.422m0-.903q.673 0 1.108-.345.434-.345.643-.908a3.5 3.5 0 0 0 .209-1.219q0-.656-.209-1.223a2.07 2.07 0 0 0-.643-.916q-.435-.35-1.108-.349-.674 0-1.108.349-.435.35-.644.916a3.5 3.5 0 0 0-.209 1.223q0 .657.209 1.219t.644.908q.434.345 1.108.345m7.143 3.358q-.73 0-1.253-.188a2.7 2.7 0 0 1-.874-.485 2.6 2.6 0 0 1-.549-.64l.801-.562q.137.179.345.409.208.234.571.405.366.174.959.175.792 0 1.308-.384.516-.383.516-1.202v-1.329h-.086a5 5 0 0 1-.315.443 1.8 1.8 0 0 1-.579.464q-.375.201-1.015.201a2.73 2.73 0 0 1-1.423-.375 2.63 2.63 0 0 1-.993-1.091q-.362-.716-.362-1.739 0-1.005.354-1.751.353-.75.984-1.159.63-.414 1.457-.414.64 0 1.015.213.379.21.579.478.205.264.315.434h.103v-1.039h.971v6.733q0 .843-.383 1.372a2.2 2.2 0 0 1-1.023.779q-.639.252-1.423.252m-.034-3.597q.605 0 1.022-.277.418-.276.635-.797.218-.52.218-1.244 0-.707-.213-1.248a1.87 1.87 0 0 0-.631-.848q-.417-.307-1.031-.307-.64 0-1.066.324a1.97 1.97 0 0 0-.635.869 3.4 3.4 0 0 0-.208 1.21q0 .683.213 1.206.217.52.639.818.426.294 1.057.294m5.71-7.721V150h-1.006v-8.727zm4.586 8.863q-.946 0-1.632-.417a2.8 2.8 0 0 1-1.052-1.176q-.367-.759-.367-1.765t.367-1.772q.37-.772 1.031-1.202.664-.435 1.551-.435.511 0 1.01.171.498.17.908.554.409.38.652 1.005.242.627.242 1.543v.426h-5.045v-.869h4.023q0-.554-.222-.989a1.67 1.67 0 0 0-.622-.686 1.75 1.75 0 0 0-.946-.251q-.601 0-1.04.298a1.96 1.96 0 0 0-.669.767 2.25 2.25 0 0 0-.234 1.014v.58q0 .741.255 1.257.26.512.721.78.46.264 1.069.264.396 0 .716-.111.324-.115.558-.341a1.55 1.55 0 0 0 .363-.571l.971.273a2.16 2.16 0 0 1-.515.869 2.5 2.5 0 0 1-.895.58 3.3 3.3 0 0 1-1.198.204m10.445-.136h-2.693v-8.727h2.812q1.27 0 2.173.524a3.4 3.4 0 0 1 1.385 1.496q.482.971.482 2.326 0 1.364-.486 2.348a3.46 3.46 0 0 1-1.415 1.509q-.929.524-2.258.524m-1.637-.938h1.569q1.082 0 1.794-.417a2.58 2.58 0 0 0 1.061-1.189q.35-.77.349-1.837 0-1.056-.345-1.819a2.54 2.54 0 0 0-1.031-1.176q-.687-.414-1.709-.414h-1.688zm7.432.938v-6.545h.972v.988h.068q.179-.486.648-.788a1.9 1.9 0 0 1 1.057-.303 11 11 0 0 1 .528.017v1.023a3 3 0 0 0-.234-.038q-.18-.03-.38-.03-.477 0-.852.2a1.47 1.47 0 0 0-.801 1.334V150zm4.465 0v-6.545h1.006V150zm.511-7.636a.7.7 0 0 1-.507-.201.64.64 0 0 1-.208-.481q0-.282.208-.482a.72.72 0 0 1 .507-.2q.294 0 .503.2a.64.64 0 0 1 .213.482.64.64 0 0 1-.213.481.7.7 0 0 1-.503.201m7.689 1.091-2.42 6.545h-1.023l-2.421-6.545h1.091l1.807 5.215h.068l1.807-5.215zm3.837 6.681q-.945 0-1.632-.417a2.8 2.8 0 0 1-1.052-1.176q-.367-.759-.367-1.765t.367-1.772a2.9 2.9 0 0 1 1.031-1.202q.664-.435 1.551-.435.512 0 1.01.171.498.17.908.554.409.38.652 1.005.243.627.243 1.543v.426h-5.046v-.869h4.023q0-.554-.222-.989a1.67 1.67 0 0 0-.622-.686 1.75 1.75 0 0 0-.946-.251q-.6 0-1.04.298a2 2 0 0 0-.669.767 2.25 2.25 0 0 0-.234 1.014v.58q0 .741.256 1.257.26.512.72.78a2.1 2.1 0 0 0 1.069.264q.397 0 .716-.111a1.5 1.5 0 0 0 .559-.341q.234-.23.362-.571l.971.273a2.16 2.16 0 0 1-.515.869 2.5 2.5 0 0 1-.895.58 3.3 3.3 0 0 1-1.198.204"/><circle cx="490" cy="146" r="6" fill="#747474"/><path fill="#C4C4C4" d="m486.65 150 2.535-3.679-2.379-3.471h1.378l1.417 2.21q.091.143.169.312.091.17.143.273.039-.103.117-.273.091-.17.182-.312l1.43-2.21h1.365l-2.379 3.484L493.15 150h-1.378l-1.534-2.34a4 4 0 0 1-.182-.325q-.078-.195-.143-.312a6 6 0 0 1-.156.312q-.091.182-.195.325l-1.547 2.34z"/><rect width="139" height="22" x="234" y="165" fill="#EDECEC" rx="4"/><path fill="#222" d="M238.057 171.273h1.261l2.966 7.244h.102l2.966-7.244h1.262V180h-.989v-6.631h-.085L242.812 180h-.954l-2.727-6.631h-.086V180h-.988zM248.596 180v-6.545h1.006V180zm.512-7.636a.72.72 0 0 1-.508-.201.64.64 0 0 1-.208-.481q0-.282.208-.482a.72.72 0 0 1 .508-.2.7.7 0 0 1 .502.2.64.64 0 0 1 .214.482.64.64 0 0 1-.214.481.7.7 0 0 1-.502.201m4.995 7.772q-.92 0-1.585-.434a2.84 2.84 0 0 1-1.023-1.198q-.358-.762-.358-1.743 0-.996.367-1.76.37-.766 1.031-1.197.665-.435 1.551-.435.69 0 1.244.256.554.255.908.716t.439 1.074h-1.006a1.56 1.56 0 0 0-.511-.793q-.393-.35-1.057-.349-.588 0-1.031.307a2 2 0 0 0-.686.856q-.243.55-.243 1.291 0 .759.238 1.321.244.562.682.874.444.31 1.04.311.392 0 .712-.136.32-.137.541-.392.222-.256.315-.614h1.006a2.34 2.34 0 0 1-.422 1.044 2.36 2.36 0 0 1-.882.733q-.546.268-1.27.268m4.044-.136v-6.545h.972v.988h.068q.178-.486.648-.788a1.9 1.9 0 0 1 1.056-.303 11 11 0 0 1 .529.017v1.023a3 3 0 0 0-.235-.038 2.3 2.3 0 0 0-.379-.03q-.477 0-.852.2a1.47 1.47 0 0 0-.801 1.334V180zm6.925.136q-.887 0-1.556-.422a2.86 2.86 0 0 1-1.039-1.18q-.371-.759-.371-1.773 0-1.022.371-1.785.375-.763 1.039-1.185.67-.422 1.556-.422t1.551.422q.668.421 1.04 1.185.375.763.375 1.785 0 1.014-.375 1.773a2.83 2.83 0 0 1-1.04 1.18q-.665.423-1.551.422m0-.903q.673 0 1.108-.345.434-.345.643-.908a3.5 3.5 0 0 0 .209-1.219q0-.656-.209-1.223a2.07 2.07 0 0 0-.643-.916q-.435-.35-1.108-.349-.673 0-1.108.349-.435.35-.644.916a3.5 3.5 0 0 0-.208 1.223q0 .657.208 1.219.21.563.644.908t1.108.345m9.137-4.313-.903.256a1.7 1.7 0 0 0-.252-.439 1.2 1.2 0 0 0-.443-.358q-.28-.14-.72-.14-.601 0-1.001.277-.397.272-.397.694 0 .375.273.593.273.216.852.362l.972.238q.877.214 1.308.652.43.435.43 1.121 0 .562-.323 1.006a2.16 2.16 0 0 1-.895.699q-.576.255-1.338.255-1.002 0-1.658-.434-.656-.435-.831-1.27l.955-.239q.135.529.515.793.384.264 1.002.264.703 0 1.116-.298.418-.303.418-.725a.76.76 0 0 0-.239-.571q-.238-.234-.733-.349l-1.091-.256q-.899-.213-1.321-.66-.417-.452-.417-1.13 0-.554.311-.98.315-.426.856-.669a3 3 0 0 1 1.236-.243q.972 0 1.526.426.558.428.792 1.125m4.292 5.216q-.885 0-1.555-.422a2.86 2.86 0 0 1-1.04-1.18q-.37-.759-.37-1.773 0-1.022.37-1.785.375-.763 1.04-1.185.67-.422 1.555-.422.886 0 1.552.422.669.421 1.039 1.185.375.763.375 1.785 0 1.014-.375 1.773a2.8 2.8 0 0 1-1.039 1.18q-.666.423-1.552.422m0-.903q.674 0 1.108-.345t.644-.908a3.5 3.5 0 0 0 .209-1.219q0-.656-.209-1.223a2.06 2.06 0 0 0-.644-.916q-.434-.35-1.108-.349-.673 0-1.108.349a2.07 2.07 0 0 0-.643.916 3.5 3.5 0 0 0-.209 1.223q0 .657.209 1.219t.643.908q.435.345 1.108.345m7.416-5.778v.852h-3.528v-.852zM283.446 180v-7.449q0-.562.264-.937t.686-.563.891-.187q.37 0 .605.059.234.06.349.111l-.29.869a6 6 0 0 0-.213-.064 1.3 1.3 0 0 0-.349-.038q-.5 0-.72.252-.218.25-.218.737V180zm6.727-6.545v.852h-3.392v-.852zm-2.403-1.569h1.006v6.239q0 .426.123.639a.64.64 0 0 0 .324.281q.2.069.422.069.166 0 .273-.017l.17-.035.205.904a2.3 2.3 0 0 1-.75.119q-.426 0-.836-.183a1.66 1.66 0 0 1-.673-.558q-.264-.376-.264-.946zm14.791 3.75q0 1.381-.499 2.387-.498 1.005-1.367 1.551-.87.546-1.986.545-1.117 0-1.986-.545-.87-.546-1.368-1.551-.498-1.006-.498-2.387 0-1.38.498-2.386.499-1.006 1.368-1.551.87-.546 1.986-.546t1.986.546q.869.545 1.367 1.551.5 1.006.499 2.386m-1.023 0q0-1.133-.379-1.913-.375-.78-1.018-1.18a2.65 2.65 0 0 0-1.432-.401q-.793 0-1.436.401-.64.4-1.019 1.18-.375.78-.375 1.913t.375 1.914q.38.78 1.019 1.18.643.4 1.436.401.792 0 1.432-.401.643-.4 1.018-1.18.38-.78.379-1.914m3.669.426V180h-1.005v-6.545h.971v1.022h.086q.23-.498.698-.801.469-.307 1.211-.307.665 0 1.163.273.498.269.776.818.276.546.277 1.381V180h-1.006v-4.091q0-.771-.401-1.202-.4-.434-1.099-.434-.482 0-.861.209-.375.209-.592.609-.218.4-.218.971m8.759 4.074q-.946 0-1.633-.417a2.8 2.8 0 0 1-1.052-1.176q-.367-.759-.367-1.765t.367-1.772a2.9 2.9 0 0 1 1.031-1.202q.664-.435 1.551-.435.512 0 1.01.171.499.17.908.554.41.38.652 1.005.243.627.243 1.543v.426h-5.046v-.869h4.023q0-.554-.222-.989a1.66 1.66 0 0 0-.622-.686 1.75 1.75 0 0 0-.946-.251q-.6 0-1.039.298a1.97 1.97 0 0 0-.67.767 2.25 2.25 0 0 0-.234 1.014v.58q0 .741.256 1.257.26.512.72.78.46.264 1.07.264.396 0 .715-.111a1.5 1.5 0 0 0 .559-.341q.234-.23.362-.571l.972.273a2.2 2.2 0 0 1-.516.869 2.5 2.5 0 0 1-.895.58 3.3 3.3 0 0 1-1.197.204m7.069-.136h-2.693v-8.727h2.812q1.27 0 2.174.524a3.43 3.43 0 0 1 1.385 1.496q.481.971.481 2.326 0 1.364-.486 2.348a3.45 3.45 0 0 1-1.414 1.509q-.93.524-2.259.524m-1.636-.938h1.568q1.083 0 1.794-.417a2.58 2.58 0 0 0 1.061-1.189q.35-.77.35-1.837 0-1.056-.346-1.819a2.54 2.54 0 0 0-1.031-1.176q-.686-.414-1.709-.414h-1.687zm7.432.938v-6.545h.971v.988h.068q.18-.486.648-.788a1.9 1.9 0 0 1 1.057-.303 11 11 0 0 1 .528.017v1.023a3 3 0 0 0-.234-.038 2.3 2.3 0 0 0-.379-.03 1.8 1.8 0 0 0-.853.2 1.47 1.47 0 0 0-.801 1.334V180zm4.464 0v-6.545h1.006V180zm.512-7.636a.7.7 0 0 1-.507-.201.64.64 0 0 1-.209-.481q0-.282.209-.482a.72.72 0 0 1 .507-.2q.293 0 .503.2a.64.64 0 0 1 .213.482.64.64 0 0 1-.213.481.7.7 0 0 1-.503.201m7.688 1.091-2.42 6.545h-1.023l-2.42-6.545h1.091l1.806 5.215h.069l1.806-5.215zm3.838 6.681q-.946 0-1.632-.417a2.8 2.8 0 0 1-1.053-1.176q-.366-.759-.366-1.765t.366-1.772a2.9 2.9 0 0 1 1.031-1.202q.666-.435 1.551-.435.512 0 1.01.171.499.17.908.554.41.38.652 1.005.243.627.243 1.543v.426h-5.045v-.869h4.022q0-.554-.221-.989a1.67 1.67 0 0 0-.623-.686 1.75 1.75 0 0 0-.946-.251q-.6 0-1.039.298a1.96 1.96 0 0 0-.669.767 2.24 2.24 0 0 0-.235 1.014v.58q0 .741.256 1.257.26.512.72.78.46.264 1.07.264.396 0 .716-.111.324-.115.558-.341.234-.23.362-.571l.972.273a2.16 2.16 0 0 1-.516.869q-.362.371-.895.58a3.3 3.3 0 0 1-1.197.204"/><circle cx="360" cy="176" r="6" fill="#747474"/><path fill="#C4C4C4" d="m356.65 180 2.535-3.679-2.379-3.471h1.378l1.417 2.21q.091.143.169.312.091.17.143.273.039-.103.117-.273.091-.17.182-.312l1.43-2.21h1.365l-2.379 3.484L363.15 180h-1.378l-1.534-2.34a4 4 0 0 1-.182-.325q-.078-.195-.143-.312a6 6 0 0 1-.156.312q-.091.182-.195.325l-1.547 2.34z"/><rect width="74" height="22" x="316" y="135" fill="#EDECEC" rx="4"/><path fill="#222" d="M319.92 150v-6.545h1.006V150zm.512-7.636a.7.7 0 0 1-.507-.201.64.64 0 0 1-.209-.481q0-.282.209-.482a.72.72 0 0 1 .507-.2q.293 0 .503.2a.64.64 0 0 1 .213.482.64.64 0 0 1-.213.481.7.7 0 0 1-.503.201m9.495 1.636h-1.057a2.2 2.2 0 0 0-.89-1.381 2.4 2.4 0 0 0-.729-.358 3 3 0 0 0-.835-.119q-.793 0-1.436.401-.64.4-1.019 1.18-.375.78-.375 1.913t.375 1.914q.38.78 1.019 1.18.643.4 1.436.401.435 0 .835-.12a2.4 2.4 0 0 0 .729-.353 2.25 2.25 0 0 0 .89-1.385h1.057a3.5 3.5 0 0 1-.434 1.197 3.28 3.28 0 0 1-1.837 1.458q-.58.19-1.24.191-1.116 0-1.986-.545-.87-.546-1.368-1.551-.498-1.006-.498-2.387 0-1.38.498-2.386.499-1.006 1.368-1.551.87-.546 1.986-.546.66 0 1.24.192.584.192 1.052.563.469.366.785.895.315.523.434 1.197m2.577-2.727V150h-1.005v-8.727zm4.501 8.863q-.886 0-1.555-.422a2.86 2.86 0 0 1-1.04-1.18q-.37-.759-.371-1.773 0-1.022.371-1.785.375-.763 1.04-1.185.669-.422 1.555-.422t1.551.422q.67.421 1.04 1.185.375.763.375 1.785 0 1.014-.375 1.773a2.8 2.8 0 0 1-1.04 1.18q-.665.423-1.551.422m0-.903q.674 0 1.108-.345t.644-.908a3.5 3.5 0 0 0 .209-1.219q0-.656-.209-1.223a2.06 2.06 0 0 0-.644-.916q-.434-.35-1.108-.349-.673 0-1.108.349a2.07 2.07 0 0 0-.643.916 3.5 3.5 0 0 0-.209 1.223q0 .657.209 1.219t.643.908q.435.345 1.108.345m8.626-1.909v-3.869h1.006V150h-1.006v-1.108h-.068a2.15 2.15 0 0 1-.716.848q-.486.345-1.227.345-.614 0-1.091-.268a1.9 1.9 0 0 1-.75-.818q-.273-.55-.273-1.385v-4.159h1.006v4.09q0 .716.401 1.143.404.426 1.031.426.375 0 .763-.192.392-.192.656-.588.268-.396.268-1.01m5.32 2.812q-.818 0-1.445-.413-.627-.417-.98-1.176-.354-.763-.354-1.803 0-1.031.354-1.789.354-.76.984-1.172.631-.414 1.458-.414.638 0 1.01.213.375.21.571.478.2.264.311.434h.085v-3.221h1.006V150h-.972v-1.006h-.119a6 6 0 0 1-.316.452q-.205.269-.583.482-.38.208-1.01.208m.136-.903q.605 0 1.023-.315.417-.32.635-.882.217-.567.217-1.309 0-.732-.213-1.282-.213-.555-.631-.861-.417-.312-1.031-.311-.639 0-1.065.328a1.96 1.96 0 0 0-.635.882 3.5 3.5 0 0 0-.209 1.244q0 .699.213 1.27.217.567.639.904.427.332 1.057.332"/><circle cx="379" cy="146" r="6" fill="#747474"/><path fill="#C4C4C4" d="m375.65 150 2.535-3.679-2.379-3.471h1.378l1.417 2.21q.091.143.169.312.091.17.143.273.039-.103.117-.273.091-.17.182-.312l1.43-2.21h1.365l-2.379 3.484L382.15 150h-1.378l-1.534-2.34a4 4 0 0 1-.182-.325q-.078-.195-.143-.312a6 6 0 0 1-.156.312q-.091.182-.195.325l-1.547 2.34z"/></svg>