<svg xmlns="http://www.w3.org/2000/svg" width="728" height="262" fill="none" viewBox="0 0 728 262"><path fill="#0055dc" fill-opacity=".3" d="M594 228A228 228 0 0 0 453.252 17.356 228 228 0 0 0 138 228z"/><path fill="#fbad41" fill-rule="evenodd" d="M687.764 233.445c6.406-4.73 15.371-5.275 22.948-.64a23 23 0 0 1 5.85 5.119c-6.406 4.73-15.371 5.276-22.948.641a23 23 0 0 1-5.85-5.12" clip-rule="evenodd"/><mask id="mask0_0_1" width="30" height="13" x="687" y="229" maskUnits="userSpaceOnUse" style="mask-type:luminance"><path fill="#fff" fill-rule="evenodd" d="M687.764 233.445c6.406-4.73 15.371-5.275 22.948-.64a23 23 0 0 1 5.85 5.119c-6.406 4.73-15.371 5.276-22.948.641a23 23 0 0 1-5.85-5.12" clip-rule="evenodd"/></mask><g mask="url(#mask0_0_1)"><path fill="#f63" d="m687.764 233.445-1.091-1.592-1.623 1.198 1.322 1.626zm28.798 4.479 1.091 1.592 1.622-1.198-1.321-1.625zm-27.707-2.887c5.826-4.301 14.014-4.816 20.959-.567l1.797-3.33c-8.209-5.021-17.951-4.445-24.938.713zm20.959-.567a21.1 21.1 0 0 1 5.356 4.686l2.784-2.463a25 25 0 0 0-6.343-5.553zm5.657 1.862c-5.826 4.302-14.014 4.816-20.959.568l-1.797 3.329c8.209 5.022 17.951 4.446 24.938-.713zm-20.959.568a21.1 21.1 0 0 1-5.356-4.686l-2.784 2.463a25 25 0 0 0 6.343 5.552z"/></g><path fill="#fbad41" fill-rule="evenodd" d="M727.058 223.562c-4.731 5.153-11.661 7.091-17.778 4.305a15.1 15.1 0 0 1-4.8-3.488c4.731-5.153 11.661-7.091 17.777-4.305a15.1 15.1 0 0 1 4.801 3.488" clip-rule="evenodd"/><mask id="mask1_0_1" width="24" height="12" x="704" y="218" maskUnits="userSpaceOnUse" style="mask-type:luminance"><path fill="#fff" fill-rule="evenodd" d="M727.058 223.562c-4.731 5.153-11.661 7.091-17.778 4.305a15.1 15.1 0 0 1-4.8-3.488c4.731-5.153 11.661-7.091 17.777-4.305a15.1 15.1 0 0 1 4.801 3.488" clip-rule="evenodd"/></mask><g mask="url(#mask1_0_1)"><path fill="#f63" d="m727.058 223.562 1.362 1.367 1.207-1.315-1.266-1.365zm-22.578.817-1.362-1.367-1.208 1.315 1.266 1.365zm21.216-2.183c-4.321 4.706-10.47 6.304-15.736 3.906l-1.359 3.531c6.966 3.172 14.678.895 19.819-4.704zm-15.736 3.906a13.1 13.1 0 0 1-4.177-3.036l-2.607 2.626a17 17 0 0 0 5.425 3.941zm-4.119-.357c4.322-4.706 10.47-6.304 15.737-3.906l1.359-3.531c-6.967-3.172-14.678-.895-19.819 4.704zm15.737-3.906a13.1 13.1 0 0 1 4.177 3.037l2.606-2.627a17 17 0 0 0-5.424-3.941z"/></g><path stroke="#f63" stroke-linecap="square" stroke-linejoin="round" stroke-width="1.892" d="M714.216 214.837s-4.185 6.35-11.621 11.867c-7.67 5.691-18.446 5.476-23.105 8.166l-.03.018"/><path fill="#fbad41" fill-rule="evenodd" d="M724.153 196.929c1.443 5.951-.204 11.864-4.672 14.837a10.8 10.8 0 0 1-4.381 1.682c-1.443-5.951.204-11.864 4.672-14.836a10.8 10.8 0 0 1 4.381-1.683" clip-rule="evenodd"/><path fill="#f63" d="m724.153 196.929.915-.227-.203-.84-.851.129zm-9.053 16.519-.916.228.204.84.85-.129zm8.137-16.291c1.378 5.683-.233 11.129-4.274 13.817l1.036 1.583c4.894-3.256 6.577-9.637 5.069-15.855zm-4.274 13.817a9.85 9.85 0 0 1-4.001 1.536l.276 1.877a11.7 11.7 0 0 0 4.761-1.83zm-2.947 2.247c-1.378-5.684.233-11.129 4.274-13.818l-1.036-1.583c-4.894 3.256-6.577 9.637-5.07 15.856zm4.274-13.818a9.8 9.8 0 0 1 4.001-1.535l-.277-1.877a11.7 11.7 0 0 0-4.76 1.829z"/><path fill="#e0edff" stroke="#3e74ff" stroke-miterlimit="10" stroke-width="1.892" d="M100.676 231.096v5.527l-67.61-.005v-5.526z"/><path fill="#a8cbff" stroke="#3e74ff" stroke-miterlimit="10" stroke-width="1.892" d="M28.921 212.164h75.899v19.973H28.921z"/><path fill="#e0edff" d="M32.916 228.143v-11.984h67.91v11.984z"/><path fill="#3e74ff" d="M93.258 223.574a1.22 1.22 0 1 1 .001-2.439 1.22 1.22 0 0 1 0 2.439m-4.424 0a1.22 1.22 0 1 1 0-2.44 1.22 1.22 0 0 1 0 2.44"/><path fill="#6691ff" d="M82.548 225.099a2.745 2.745 0 1 1 0-5.49 2.745 2.745 0 0 1 0 5.49"/><path stroke="#3e74ff" stroke-miterlimit="10" stroke-width="1.892" d="M44.9 212.878v-28.677m-4.244 35.952h8.239"/><path stroke="#fbad41" stroke-width="1.892" d="M54.74 184.871a11.212 11.212 0 0 0-13.744-10.568 11.2 11.2 0 0 0-5.641 3.249"/><path stroke="#fbad41" stroke-width="1.892" d="M62.948 184.29a19.45 19.45 0 0 0-12.571-17.58 19.45 19.45 0 0 0-21.054 4.886"/><path stroke="#fbad41" stroke-width="1.892" d="M70.58 184.011a27.335 27.335 0 0 0-47.256-17.84"/><path fill="#fbad41" fill-rule="evenodd" d="M27.75 234.623c3.41-6.846 2.935-15.201-1.87-21.235a17.7 17.7 0 0 0-5.042-4.347c-3.411 6.846-2.936 15.201 1.87 21.234a17.7 17.7 0 0 0 5.042 4.348" clip-rule="evenodd"/><mask id="mask2_0_1" width="12" height="26" x="18" y="209" maskUnits="userSpaceOnUse" style="mask-type:luminance"><path fill="#fff" fill-rule="evenodd" d="M27.75 234.623c3.41-6.846 2.935-15.201-1.87-21.235a17.7 17.7 0 0 0-5.042-4.347c-3.411 6.846-2.936 15.201 1.87 21.234a17.7 17.7 0 0 0 5.042 4.348" clip-rule="evenodd"/></mask><g mask="url(#mask2_0_1)"><path fill="#f63" d="m27.75 234.623 1.644.878-.882 1.77-1.667-.958zm-6.912-25.582-1.644-.878.882-1.771 1.667.959zm5.268 24.704c3.099-6.22 2.635-13.731-1.657-19.119l2.862-2.475c5.32 6.679 5.806 15.877 2.083 23.35zm-1.657-19.119a15.9 15.9 0 0 0-4.516-3.895l1.81-3.38a19.6 19.6 0 0 1 5.568 4.8zm-1.967-4.707c-3.099 6.219-2.635 13.731 1.657 19.119l-2.862 2.475c-5.32-6.679-5.807-15.877-2.083-23.35zm1.656 19.119a15.9 15.9 0 0 0 4.517 3.895l-1.81 3.38a19.6 19.6 0 0 1-5.568-4.8z"/></g><path fill="#fbad41" fill-rule="evenodd" d="M.882 228.776c4.536 4.939 11.18 6.797 17.044 4.127a14.4 14.4 0 0 0 4.603-3.345c-4.537-4.94-11.18-6.798-17.044-4.127a14.4 14.4 0 0 0-4.603 3.345" clip-rule="evenodd"/><mask id="mask3_0_1" width="23" height="11" x="0" y="224" maskUnits="userSpaceOnUse" style="mask-type:luminance"><path fill="#fff" fill-rule="evenodd" d="M.882 228.776c4.536 4.939 11.18 6.797 17.044 4.127a14.4 14.4 0 0 0 4.603-3.345c-4.537-4.94-11.18-6.798-17.044-4.127a14.4 14.4 0 0 0-4.603 3.345" clip-rule="evenodd"/></mask><g mask="url(#mask3_0_1)"><path fill="#f63" d="m.882 228.776-1.361 1.367-1.208-1.315 1.266-1.365zm21.647.782 1.361-1.367 1.208 1.315-1.266 1.365zm-20.285-2.149c4.126 4.493 9.989 6.012 15.003 3.728l1.358 3.531c-6.713 3.058-14.139.86-19.084-4.525zm15.003 3.728a12.5 12.5 0 0 0 3.978-2.892l2.607 2.626a16.4 16.4 0 0 1-5.227 3.797zm3.92-.212c-4.127-4.494-9.989-6.012-15.003-3.729l-1.359-3.53c6.714-3.058 14.14-.861 19.085 4.525zm-15.003-3.729a12.5 12.5 0 0 0-3.979 2.893l-2.606-2.626a16.4 16.4 0 0 1 5.226-3.797z"/></g><path stroke="#f63" stroke-linecap="square" stroke-linejoin="round" stroke-width="1.892" d="M39.516 236.608c-2.475 0-7.827.635-15.18-4.82-7.13-5.29-11.142-11.377-11.142-11.377"/><path fill="#fbad41" fill-rule="evenodd" d="M4.299 203.873c-1.384 5.705.195 11.374 4.479 14.224a10.3 10.3 0 0 0 4.2 1.612c1.383-5.705-.196-11.374-4.48-14.224a10.3 10.3 0 0 0-4.2-1.612" clip-rule="evenodd"/><path fill="#f63" d="m4.299 203.873-.916-.228.204-.84.85.129zm8.679 15.836.915.228-.203.84-.85-.129zM5.213 204.1c-1.318 5.438.225 10.639 4.082 13.205l-1.036 1.583c-4.71-3.133-6.325-9.27-4.877-15.243zm4.082 13.205a9.4 9.4 0 0 0 3.82 1.466l-.277 1.877a11.3 11.3 0 0 1-4.58-1.76zm2.766 2.177c1.318-5.438-.224-10.639-4.081-13.205l1.036-1.583c4.71 3.133 6.324 9.27 4.876 15.243zM7.98 206.277a9.4 9.4 0 0 0-3.82-1.466l.276-1.877a11.3 11.3 0 0 1 4.58 1.76z"/><path fill="#3e74ff" fill-rule="evenodd" d="M486.659 85.122v141.036h29.901q.07-.004.141-.003a1.867 1.867 0 0 1 1.839 1.734v6.138c-.006 2.649-9.232 4.428-22.957 4.428H239.501c-10.626 0-21.372-1.389-22.795-4.052a1.3 1.3 0 0 1-.161-.611v-5.903a1.87 1.87 0 0 1 1.973-1.731h29.614V85.122a11.507 11.507 0 0 1 11.536-11.443h215.454a11.5 11.5 0 0 1 11.537 11.443m30.532 148.862-.005-6.095-.001-.004v-.007c-.007-.176-.275-.37-.625-.37l-298.036.004c-.358 0-.625.199-.625.377v5.903a.3.3 0 0 0 .06.128c.709 1.008 7.445 3.179 21.54 3.179h256.084c15.6 0 21.297-2.281 21.608-3.115m-.006-6.106c-.011-.175-.275-.366-.625-.366H218.524c-.357 0-.623.199-.623.377v5.905q.012.06.058.126" clip-rule="evenodd"/><mask id="mask4_0_1" width="311" height="174" x="212" y="69" maskUnits="userSpaceOnUse" style="mask-type:luminance"><path fill="#fff" d="M522.545 69.678h-310v173h310z"/><path fill="#000" fill-rule="evenodd" d="M486.659 85.122v141.036h29.901q.07-.004.141-.003a1.867 1.867 0 0 1 1.839 1.734v6.138c-.006 2.649-9.232 4.428-22.957 4.428H239.501c-10.626 0-21.372-1.389-22.795-4.052a1.3 1.3 0 0 1-.161-.611v-5.903a1.87 1.87 0 0 1 1.973-1.731h29.614V85.122a11.507 11.507 0 0 1 11.536-11.443h215.454a11.5 11.5 0 0 1 11.537 11.443m30.532 148.862-.005-6.095-.001-.004v-.007c-.007-.176-.275-.37-.625-.37l-298.036.004c-.358 0-.625.199-.625.377v5.903a.3.3 0 0 0 .06.128c.709 1.008 7.445 3.179 21.54 3.179h256.084c15.6 0 21.297-2.281 21.608-3.115m-.006-6.106c-.011-.175-.275-.366-.625-.366H218.524c-.357 0-.623.199-.623.377v5.905q.012.06.058.126" clip-rule="evenodd"/></mask><g mask="url(#mask4_0_1)"><path fill="#1d1f20" d="m217.997 235.812 299.226-6.043-.076-3.782-299.227 6.042zm268.662-9.654h-3.783v3.783h3.783zm0-141.036h3.783v-.02zm29.901 141.036v3.783h.114l.113-.007zm.141-.003-.059 3.783h.006zm1.839 1.734h3.783v-.137l-.01-.136zm0 6.138 3.783.008v-.008zm-301.834.376 3.336-1.783-.003-.006zm-.161-6.514-3.773-.271-.01.136v.135zm1.973-1.731.223-3.777h-.003zm.007 0-.223 3.777.112.006h.111zm29.607 0v3.783h3.783v-3.783zm0-141.036-3.784-.02v.02zm11.536-11.443-.01 3.783h.01zm215.454 0v3.783h.011zm42.064 154.21 3.783-.003v-.096l-.005-.097zm.005 6.095 3.545 1.322.239-.641-.001-.684zm-.006-6.099h-3.783v.098l.005.098zm0-.007 3.781-.142-.001-.014zm-299.286 5.914h-3.783v.363l.069.357zm.002.002h-3.783v.361l.068.354zm272.541-7.636V85.122h-7.566v141.036zm-3.783 3.783h29.901v-7.566h-29.901zm30.1-7.569a6 6 0 0 0-.426.01l.454 7.552a2 2 0 0 1-.145.004zm-.111 7.566a1.92 1.92 0 0 1-1.233-.473l4.981-5.696a5.66 5.66 0 0 0-3.643-1.397zm-1.233-.473a1.92 1.92 0 0 1-.649-1.302l7.547-.547a5.66 5.66 0 0 0-1.917-3.847zm-.659-1.576v6.138h7.567v-6.138zm0 6.129c.004-1.721 1.402-2.05.434-1.566-.628.313-1.82.705-3.701 1.068-3.694.712-9.167 1.152-15.906 1.152v7.566c6.985 0 12.988-.449 17.339-1.289 2.143-.413 4.116-.963 5.648-1.728 1.193-.595 3.746-2.14 3.753-5.186zm-19.173.654H239.501v7.566h256.082zm-256.082 0c-5.178 0-10.308-.34-14.243-.979-1.982-.321-3.526-.697-4.58-1.084-.526-.194-.824-.352-.959-.44-.166-.108.085.005.323.451l-6.673 3.566c.594 1.112 1.492 1.851 2.228 2.328.766.498 1.625.886 2.472 1.197 1.693.622 3.767 1.093 5.978 1.451 4.45.722 10.006 1.076 15.454 1.076zm-26.739-.88c0 .895.239 1.708.61 2.4l6.667-3.578c.16.299.29.705.29 1.178zm0-5.903v5.903h7.567v-5.903zm1.925-4.119a5.65 5.65 0 0 0-1.915 3.848l7.547.543a1.9 1.9 0 0 1-.649 1.303zm2.964-1.348a5.65 5.65 0 0 0-2.964 1.348l4.983 5.694a1.9 1.9 0 0 1-1.003.456zm1.087-.041a5.7 5.7 0 0 0-1.087.041l1.015 7.498a2 2 0 0 1-.368.014zm-.443 7.553.067.004h.022l.001.001-.004-.001h-.015l-.064-.003.446-7.554-.067-.003-.017-.001h-.006.004l.016.001.063.003zm.23.007h29.607v-7.566h-29.607zm25.823-144.819v141.036h7.567V85.122zm4.522-10.793a15.3 15.3 0 0 0-4.522 10.773l7.567.04a7.72 7.72 0 0 1 2.284-5.441zm10.809-4.434a15.3 15.3 0 0 0-10.809 4.434l5.329 5.372a7.72 7.72 0 0 1 5.459-2.239zm215.443 0H259.668v7.567h215.454zm10.799 4.434a15.3 15.3 0 0 0-10.809-4.434l.021 7.567a7.72 7.72 0 0 1 5.459 2.239zm4.521 10.773a15.3 15.3 0 0 0-4.521-10.773l-5.329 5.372a7.72 7.72 0 0 1 2.284 5.441zm22.96 142.791.006 6.094 7.566-.006-.005-6.095zm.005.188.001.004 7.556-.392v-.004zm-.002-.061c-.001-.027-.003-.075-.003-.135l7.567.001c0-.065-.002-.118-.003-.15zm3.155 3.271a2.96 2.96 0 0 1-1.577-.464 3.3 3.3 0 0 1-.895-.837 3.55 3.55 0 0 1-.683-1.956l7.56-.312c-.078-1.892-1.369-2.932-1.946-3.295a4.6 4.6 0 0 0-2.459-.702zm-298.036.004 298.036-.004v-7.566l-298.036.004zm3.159-3.406a3.46 3.46 0 0 1-1.551 2.922 2.96 2.96 0 0 1-1.608.484v-7.566c-.857 0-1.736.234-2.501.728-.592.383-1.907 1.482-1.907 3.432zm0 5.903v-5.903h-7.567v5.903zm-.631-2.05c.178.253.44.702.562 1.331l-7.429 1.439a4.1 4.1 0 0 0 .681 1.587zm18.447 1.574c-6.866 0-11.832-.53-15.086-1.146-1.636-.309-2.776-.629-3.481-.884a4.4 4.4 0 0 1-.581-.245c-.162-.09.28.104.701.701l-6.186 4.357c.597.848 1.406 1.331 1.803 1.552.512.285 1.088.532 1.682.747 1.198.435 2.756.847 4.655 1.207 3.814.721 9.264 1.277 16.493 1.277zm256.084 0H239.499v7.566h256.084zm18.063-.654a3.3 3.3 0 0 1 .75-1.183c.17-.17.304-.26.337-.282.066-.043.004.006-.27.116-.532.215-1.514.521-3.076.83-3.104.613-8.17 1.173-15.804 1.173v7.566c7.966 0 13.548-.581 17.271-1.317 1.851-.365 3.326-.786 4.437-1.234a9 9 0 0 0 1.602-.814c.298-.196 1.35-.889 1.843-2.211zm2.914-1.367c-.49 0-1.04-.129-1.567-.458a3.45 3.45 0 0 1-1.583-2.719l7.551-.48c-.117-1.836-1.365-2.847-1.955-3.216a4.6 4.6 0 0 0-2.446-.693zm-298.036 0H516.56v-7.566H218.524zm3.16-3.406a3.46 3.46 0 0 1-1.552 2.922 2.96 2.96 0 0 1-1.608.484v-7.566c-.857 0-1.735.234-2.499.728-.593.383-1.907 1.482-1.907 3.432zm0 5.905v-5.905h-7.566v5.905zm-.621-2.037c.177.255.434.702.553 1.323l-7.43 1.429c.135.7.429 1.231.669 1.574z"/></g><path fill="#ffe9cb" stroke="#f63" stroke-width="1.892" d="M130.997 227.293h102.305v-14.456H130.997z"/><path fill="#fff7ec" stroke="#f63" stroke-width="1.892" d="M140.407 212.837h90.674v-5.657h-90.674z"/><path fill="#fbad41" stroke="#f63" stroke-width="1.892" d="M134.178 236.093h88.525v-8.8h-88.525z"/><path fill="#fbad41" stroke="#f63" stroke-width="2" d="M198.432 216.983h.028l.027-.001c.434-.024.916.188 1.326.691s.694 1.241.694 2.08c0 1.745-1.144 2.769-2.075 2.769H158.45c-.979 0-2.076-1.082-2.076-2.769 0-1.745 1.145-2.77 2.076-2.77z"/><path fill="#a8cbff" stroke="#f63" stroke-width="1.892" d="M146.018 212.837h-5.611v14.456h5.611zm26.812-5.657h-5.611v5.657h5.611zm49.874 0h-5.611v5.657h5.611z"/><path fill="#a8cbff" fill-rule="evenodd" d="M474.008 74.353H258.552a10.893 10.893 0 0 0-10.859 10.766v141.716h237.173V85.122a10.88 10.88 0 0 0-10.858-10.769" clip-rule="evenodd"/><path fill="#fff" d="M474.832 91.294h-217.66v126.845h217.66z"/><path fill="#a8cbff" fill-rule="evenodd" d="M495.125 237.766H239.039c-13.312 0-22.277-2.041-22.277-3.983v-5.906a1.2 1.2 0 0 1 1.301-1.054H516.1a1.2 1.2 0 0 1 1.302 1.054v6.138c0 1.538-6.946 3.751-22.277 3.751" clip-rule="evenodd"/><path fill="#6691ff" fill-rule="evenodd" d="M516.508 234.015c0 1.536-6.946 3.751-22.277 3.751H238.145c-13.312 0-22.277-2.041-22.277-3.983z" clip-rule="evenodd"/><path fill="#3e74ff" fill-rule="evenodd" d="M398.844 227.257v1.342c0 .956-1.882 1.244-3.307 1.244h-58.456c-1.498 0-3.394-.288-3.394-1.244v-1.342" clip-rule="evenodd"/><path fill="#3e74ff" stroke="#3e74ff" stroke-width=".631" d="M495.169 238.455H239.087c-11.407 0-22.954-1.601-22.954-4.66v-5.906a1.87 1.87 0 0 1 1.979-1.731h298.034a1.87 1.87 0 0 1 1.98 1.731v6.138c-.006 2.649-9.232 4.428-22.957 4.428zM218.11 227.512c-.357 0-.624.199-.624.377v5.904c.181.937 6.874 3.306 21.6 3.306h256.083c15.6 0 21.298-2.281 21.608-3.115l-.005-6.099c0-.178-.271-.377-.626-.377z"/><path fill="#3e74ff" stroke="#3e74ff" stroke-width=".631" d="M516.146 226.158h-29.901V85.122a11.507 11.507 0 0 0-11.536-11.443H259.255a11.5 11.5 0 0 0-11.537 11.443v141.036H218.11a1.87 1.87 0 0 0-1.978 1.731v5.904c0 3.059 11.548 4.66 22.954 4.66h256.083c13.725 0 22.951-1.779 22.954-4.428v-6.138a1.87 1.87 0 0 0-1.977-1.729zM249.072 85.122a10.273 10.273 0 0 1 10.183-10.089h215.458a10.147 10.147 0 0 1 10.183 10.089v141.036H249.072zm246.097 151.979H239.087c-14.727 0-21.42-2.37-21.6-3.306v-5.906c0-.178.267-.377.625-.377h298.034c.358 0 .626.199.626.377l.005 6.1c-.31.831-6.008 3.112-21.608 3.112z"/><path fill="#f6821f" stroke="#f63" d="M555.59 120.847h.001c25.47 6.824 40.586 32.81 33.818 58.067-6.76 25.227-32.872 40.167-58.314 33.349l-.129.483.129-.483a49 49 0 0 1-4.176-1.319l2.579-3.427.53.176.519.172.504.168.137-.513.646-2.41.004-.014c.728.206 1.464.403 2.198.589l-.004.015-.646 2.41-.134.501.506.116c22.742 5.182 45.669-8.359 51.702-30.872l-.483-.129.483.129c6.04-22.54-7.046-45.731-29.34-52.586l-.496-.152-.134.501-.645 2.407a58 58 0 0 0-2.198-.589l.645-2.408.133-.494-.498-.121a36 36 0 0 0-3.246-.612l-.509-4.208c2.126.252 4.277.68 6.418 1.254z"/><path fill="#f63" stroke="#f63" d="m555.941 230.043.105.101.143.029c.527.106 1.249.21 2.074.329.464.066.96.138 1.473.217 1.445.223 3.062.513 4.598.946 1.54.435 2.966 1.006 4.048 1.775.893.636 1.53 1.39 1.82 2.302h-53.269c.29-.913.927-1.669 1.821-2.306 1.081-.771 2.508-1.345 4.048-1.781 1.535-.435 3.152-.726 4.596-.948.555-.085 1.091-.161 1.587-.231a43 43 0 0 0 1.957-.302l.145-.028.106-.103c5.388-5.18 8.644-10.378 9.691-15.623.876.047 1.779.089 2.684.089.896 0 1.798-.021 2.684-.081 1.049 5.243 4.305 10.438 9.689 15.615z"/><path fill="#fff7ec" stroke="#f63" d="m523.089 160.722-16.63-4.456c1.839-6.544 5.164-12.149 9.73-16.551l14.18 3.799c-3.043 4.866-5.534 10.849-7.28 17.208z"/><path fill="#fff7ec" d="m523.441 161.334-17.597-4.715c-1.81 6.754-1.795 13.807-.072 20.175l15.109 4.048c.073-1.695.016-3.615.089-5.31.48-4.635 1.137-9.221 2.471-14.198"/><path fill="#fff7ec" stroke="#f63" d="M517.025 138.903c8.162-7.799 19.375-11.784 30.877-10.455-2.054.44-4.114 1.353-6.126 2.661-3.862 2.511-7.586 6.503-10.843 11.521zm11.013 62.85c-10.562-4.701-18.137-13.786-21.315-24.378l13.898 3.724c.267 6.149 1.529 11.528 3.671 15.628 1.041 1.992 2.294 3.69 3.746 5.026z"/><path fill="#ffe9cb" stroke="#f63" d="m543.35 166.152-19.295-5.171c1.805-6.545 4.437-12.336 7.502-17.148l16.584 4.444zm-19.554-4.205 19.118 5.122-4.79 17.875-16.738-4.485q.004-.579.003-1.2c0-1.169-.001-2.436.08-3.696v-.004c.244-4.309 1.113-8.991 2.327-13.612zm9.508 41.697c-3.333-1.061-6.026-3.708-7.981-7.551-1.971-3.874-3.171-8.928-3.504-14.673l16.272 4.361z"/><path fill="#ffe9cb" stroke="#f63" stroke-width="2.009" d="M553.801 129.081c-7.466-2-15.912 3.928-22.468 14.174l17.419 4.667z"/><path fill="#ffcd89" stroke="#f63" d="M544.957 201.354c-3.614 2.35-7.27 3.297-10.687 2.549l4.787-17.864 16.271 4.36c-3.16 4.809-6.727 8.586-10.371 10.955zm-5.69-16.103 4.791-17.875 19.117 5.123c-1.758 6.397-4.271 12.385-7.325 17.195zm5.049-18.841 4.791-17.876 16.759 4.492c.24 5.693-.577 12.135-2.254 18.554z"/><path fill="#ffcd89" d="m553.801 129.081-5.048 18.841 17.419 4.667c-.507-12.328-4.906-21.508-12.371-23.508"/><path fill="#fbad41" d="M553.801 129.081c7.465 2 11.816 11.358 12.371 23.509l15.108 4.048c-3.351-13.09-13.615-23.842-27.479-27.557"/><path fill="#fbad41" stroke="#f63" d="M570.425 194.444c-8.143 7.673-19.411 11.76-31.051 10.41 2.055-.44 4.115-1.353 6.128-2.662 3.862-2.511 7.586-6.503 10.843-11.521z"/><path fill="#fbad41" d="m556.122 190.094 15.109 4.048c4.853-4.605 8.215-10.753 10.025-17.508l-17.597-4.715c-1.727 7.158-4.33 13.318-7.537 18.175"/><path fill="#fbad41" d="m581.28 156.638-15.108-4.048c.301 5.986-.573 12.801-2.383 19.555l17.597 4.715c1.858-6.932 1.795-13.807-.106-20.222"/><path stroke="#f63" stroke-miterlimit="10" stroke-width="2.009" d="M505.844 156.619c-1.81 6.754-1.794 13.807-.071 20.174 3.576 12.961 13.614 23.842 27.656 27.605 14.042 3.762 28.177-.642 37.754-10.078 4.854-4.605 8.215-10.753 10.025-17.507s1.795-13.808.072-20.175c-3.576-12.96-13.615-23.842-27.657-27.604s-28.176.642-37.753 10.077c-4.676 4.653-8.168 10.576-10.026 17.508z"/><path stroke="#f63" stroke-miterlimit="10" stroke-width="2.009" d="M521.148 175.579c-.121 1.872-.064 3.793-.089 5.31.554 12.15 4.905 21.508 12.37 23.508 7.466 2.001 15.912-3.928 22.468-14.173 3.254-5.034 5.905-11.373 7.714-18.127s2.684-13.569 2.383-19.555c-.555-12.151-4.906-21.508-12.371-23.509-7.465-2-15.912 3.928-22.467 14.174-3.254 5.034-5.905 11.372-7.715 18.126-1.334 4.977-1.991 9.564-2.293 14.246z"/><path stroke="#f63" stroke-miterlimit="10" stroke-width="2.009" d="m581.386 176.86-17.597-4.715-20.085-5.382-20.263-5.43-17.597-4.715"/><path stroke="#f63" stroke-miterlimit="10" stroke-width="2.009" d="m553.801 129.081-5.049 18.841-5.048 18.841-5.001 18.664-5.048 18.841"/><path stroke="#f63" stroke-miterlimit="10" stroke-width="2.009" d="m581.281 156.638-15.109-4.048-17.419-4.667-17.597-4.715-15.108-4.049m55.183 54.983-15.109-4.048-17.419-4.668-17.596-4.715-15.109-4.048"/><path fill="#ffe9cb" stroke="#f6821f" stroke-width="1.892" d="M621.896 148.666v87.066h13.53v-87.066z"/><path fill="#fbad41" stroke="#f63" stroke-width="1.892" d="M608.365 154.549v81.183h13.531v-81.183z"/><path fill="#ffcd89" stroke="#f63" stroke-width="1.892" d="M591.305 138.077v97.655h17.06v-97.655z"/><path fill="#fbad41" stroke="#f6821f" stroke-width="1.892" d="M635.426 176.904v58.828h10.589v-58.828z"/><path fill="#ffe9cb" stroke="#f63" stroke-width="1.892" d="M608.365 157.49h-17.06v12.184h17.06zm0 46.475h-17.06v12.354h17.06z"/><path fill="#fbad41" d="M628.953 223.378c-1.979 0-3.528-1.926-3.528-4.157v-54.044c0-2.332 1.635-4.157 3.528-4.157 1.98 0 3.529 1.927 3.529 4.157v54.044c.086 2.231-1.549 4.157-3.529 4.157"/><path fill="#ffe9cb" stroke="#f63" stroke-width="1.892" d="M616.155 223.966h-2.637c-1.191 0-2.211-1.211-2.211-2.624v-18.871c0-1.413 1.02-2.624 2.211-2.624h2.637c1.19 0 2.211 1.211 2.211 2.624v18.871c0 1.514-1.021 2.624-2.211 2.624z"/><path fill="#ffe9cb" stroke="#3e74ff" stroke-width="1.892" d="M227.854 156.627v.004c.062 1.746-.514 3.831-1.491 6.037-.969 2.19-2.296 4.418-3.646 6.427a73 73 0 0 1-5.149 6.741h-27.275l-.185-.216a73 73 0 0 1-4.963-6.525c-1.35-2.009-2.677-4.237-3.646-6.427-.977-2.206-1.553-4.291-1.491-6.037.076-2.111.99-7.324 2.353-14.066 1.356-6.702 3.135-14.816 4.905-22.659a2523 2523 0 0 1 6.438-27.746l.428-1.797h19.598l.43 1.798a2607 2607 0 0 1 6.451 27.745c1.772 7.843 3.552 15.957 4.906 22.659 1.362 6.743 2.271 11.954 2.337 14.062z"/><path fill="#fbad41" d="M204.86 166.307c.08 2.905-.395 5.512-1.82 7.076-.514.559-1.147.968-1.938 1.266a5.4 5.4 0 0 1-1.702.261c-13.295-.224 5.737-5.363-7.478-15.566-4.59-3.501-17.093-10.539-3.719-23.499 5.262-5.102 15.668-4.283 17.291.224 2.374 6.665-.673 10.725-1.623 14.598-2.057 8.453.989 14.188.989 15.64"/><path fill="#f63" d="M195.443 120.799a4 4 0 0 1-.633-.744c-5.223-8.044-4.788-19.551 6.409-27.707.792-.67 3.878-1.192 5.5-.447.079.037.119.075.198.075 14.205 5.213 1.464 18.322-5.183 27.706-1.543 2.197-4.471 2.756-6.291 1.155.039 0 0-.038 0-.038"/><path fill="#fbad41" d="M220.846 146.606c.158.186.316.373.475.596 3.917 6.405 3.6 14.822-4.788 19.812-.594.409-2.889.521-4.115-.149a.3.3 0 0 0-.158-.075c-10.605-5.139-1.108-13.63 3.838-19.923 1.147-1.452 3.363-1.601 4.669-.298.039 0 .079 0 .079.037"/><path fill="#fd8639" d="M213.328 114.916c3.521.633 4.787 4.841 4.827 4.915.712 5.102-.712 6.033-7.122 12.178-4.392 4.208-5.461 8.9-8.428 10.799-3.838 2.496-10.209 2.309-7.795-3.128.91-2.271 10.96-7.299 11.672-9.57.792-2.607-4.589-3.575-2.651-10.502.515-1.937 3.957-5.698 9.497-4.692m5.025 29.42c-1.346.112-3.72-1.601-3.799-1.676-1.939-1.638-1.345-4.134 1.306-5.4.791-.335 2.374-.745 2.928-.409 1.939 1.042.989 2.867 1.82 4.319.158.261.752 2.942-2.255 3.166"/><path fill="#a8cbff" stroke="#3e74ff" stroke-width="1.892" d="M211.971 88.9h1.394l1.806 7.618H192.69l1.806-7.618zm13.962 117.686h-43.817l2.841-7.547.003-.007.002-.008 7.523-21.078.149-.418-.226-.383-4.613-7.769h32.458l-4.612 7.769-.227.383.149.418 7.523 21.078.003.008.003.007z"/><path fill="#a8cbff" stroke="#3e74ff" stroke-width="1.892" d="m222.578 169.152-6.246 8.759h-24.59l-6.578-8.759z"/><path fill="#ffe9cb" fill-rule="evenodd" d="M673.756 235.673h13.994l-.79-3.542c7.982-4.601 13.355-13.22 13.355-23.095 0-11.398-7.158-21.123-17.225-24.926l.691-7.742h-20.627l.813 7.857c-9.908 3.882-16.925 13.527-16.925 24.811 0 9.874 5.373 18.494 13.354 23.094l-.79 3.543z" clip-rule="evenodd"/><path fill="#3e74ff" d="M687.75 235.673v.945h1.18l-.257-1.151zm-13.994 0v-.946h-.002zm13.204-3.542-.472-.82-.602.347.151.679zm-3.87-48.021-.942-.084-.063.715.671.254zm.691-7.742.942.084.092-1.029h-1.034zm-20.627 0v-.945h-1.049l.108 1.043zm.813 7.857.345.881.67-.262-.074-.716zm-3.571 47.905.923.206.152-.678-.602-.347zm-.79 3.543-.923-.206-.257 1.151h1.18zm13.995 0 .003-.946h-.003zm14.149-.946h-13.994v1.891h13.994zm-1.713-2.39.79 3.542 1.846-.412-.79-3.542zm13.333-23.301c0 9.523-5.181 17.837-12.882 22.275l.944 1.639c8.263-4.762 13.829-13.688 13.829-23.914zm-16.614-24.041c9.711 3.668 16.614 13.05 16.614 24.041h1.891c0-11.804-7.414-21.874-17.836-25.811zm.083-8.711-.691 7.742 1.884.168.691-7.742zm-19.685 1.03h20.627v-1.891h-20.627zm1.754 6.814-.813-7.857-1.882.195.813 7.857zm-16.92 24.908c0-10.882 6.766-20.186 16.324-23.93l-.69-1.761c-10.259 4.018-17.526 14.005-17.526 25.691zm12.881 22.275c-7.701-4.439-12.881-12.753-12.881-22.275h-1.892c0 10.226 5.565 19.151 13.828 23.913zm-.34 4.568.79-3.543-1.846-.412-.79 3.543zm13.072-1.152h-13.995v1.891h13.995zm.078 0h-.075l-.006 1.891.081.001zm.075 0h-.075v1.892l.08-.001z"/><path stroke="#3e74ff" stroke-width="1.892" d="M680.213 235.421v-82.243c0-4.362 1.822-8.527 5.026-11.488m-18.596 93.983v-73.902a45.9 45.9 0 0 0-6.534-23.598"/><path stroke="#3e74ff" stroke-width="1.892" d="M675.689 235.17v-92.445a70.45 70.45 0 0 0-20.605-49.785"/><path stroke="#3e74ff" stroke-width="1.892" d="M671.166 235.422v-88.177a70.44 70.44 0 0 1 20.606-49.781"/><path fill="#fbad41" fill-rule="evenodd" d="M684.126 104.586a11.6 11.6 0 0 1 3.282-12.206 11.6 11.6 0 0 1 3.488-2.163c1.367 4.225.233 9.046-3.283 12.206a11.6 11.6 0 0 1-3.487 2.163" clip-rule="evenodd"/><mask id="mask5_0_1" width="9" height="15" x="683" y="90" maskUnits="userSpaceOnUse" style="mask-type:luminance"><path fill="#fff" fill-rule="evenodd" d="M684.126 104.586a11.6 11.6 0 0 1 3.282-12.206 11.6 11.6 0 0 1 3.488-2.163c1.367 4.225.233 9.046-3.283 12.206a11.6 11.6 0 0 1-3.487 2.163" clip-rule="evenodd"/></mask><g mask="url(#mask5_0_1)"><path fill="#f63" d="m684.126 104.586-1.8.583.62 1.917 1.875-.741zm6.77-14.369 1.799-.582-.62-1.918-1.875.741zm-4.971 13.787a9.71 9.71 0 0 1 2.748-10.217l-2.53-2.814c-4.09 3.678-5.406 9.286-3.817 14.196zm2.748-10.217a9.7 9.7 0 0 1 2.918-1.811l-1.391-3.518a13.5 13.5 0 0 0-4.057 2.515zm.423-2.987a9.71 9.71 0 0 1-2.748 10.216l2.53 2.814c4.091-3.677 5.406-9.286 3.817-14.195zm-2.748 10.216a9.7 9.7 0 0 1-2.918 1.811l1.391 3.518a13.5 13.5 0 0 0 4.057-2.515z"/></g><path fill="#fbad41" fill-rule="evenodd" d="M684.276 104.658c1.851-4.036 5.947-6.821 10.674-6.771 1.42.015 2.779.285 4.032.766-1.85 4.036-5.947 6.821-10.674 6.771a11.6 11.6 0 0 1-4.032-.766" clip-rule="evenodd"/><mask id="mask6_0_1" width="15" height="9" x="684" y="97" maskUnits="userSpaceOnUse" style="mask-type:luminance"><path fill="#fff" fill-rule="evenodd" d="M684.276 104.658c1.851-4.036 5.947-6.821 10.674-6.771 1.42.015 2.779.285 4.032.766-1.85 4.036-5.947 6.821-10.674 6.771a11.6 11.6 0 0 1-4.032-.766" clip-rule="evenodd"/></mask><g mask="url(#mask6_0_1)"><path fill="#f63" d="m684.276 104.658-1.719-.788-.84 1.832 1.882.722zm14.706-6.005 1.719.788.84-1.832-1.882-.722zm-12.986 6.793a9.71 9.71 0 0 1 8.934-5.667l.04-3.783c-5.501-.058-10.263 3.183-12.413 7.874zm8.934-5.667a9.7 9.7 0 0 1 3.374.64l1.355-3.532c-1.46-.56-3.04-.874-4.689-.891zm2.332-1.914a9.71 9.71 0 0 1-8.934 5.667l-.04 3.783c5.501.058 10.263-3.183 12.413-7.874zm-8.934 5.667a9.7 9.7 0 0 1-3.374-.64l-1.355 3.532c1.46.56 3.041.874 4.689.891z"/></g><path fill="#fbad41" fill-rule="evenodd" d="M695.697 93.352a11.6 11.6 0 0 1-7.417 10.235 11.6 11.6 0 0 1-4.03.779c.228-4.435 3.006-8.536 7.417-10.236a11.6 11.6 0 0 1 4.03-.778" clip-rule="evenodd"/><mask id="mask7_0_1" width="12" height="12" x="684" y="93" maskUnits="userSpaceOnUse" style="mask-type:luminance"><path fill="#fff" fill-rule="evenodd" d="M695.697 93.352a11.6 11.6 0 0 1-7.417 10.235 11.6 11.6 0 0 1-4.03.779c.228-4.435 3.006-8.536 7.417-10.236a11.6 11.6 0 0 1 4.03-.778" clip-rule="evenodd"/></mask><g mask="url(#mask7_0_1)"><path fill="#f63" d="m695.697 93.352 1.889.097.104-2.013-2.016.024zm-11.447 11.014-1.889-.097-.103 2.012 2.015-.024zm9.558-11.111a9.71 9.71 0 0 1-6.208 8.567l1.361 3.53c5.133-1.978 8.361-6.75 8.625-11.903zm-6.208 8.567a9.7 9.7 0 0 1-3.373.652l.046 3.783a13.5 13.5 0 0 0 4.688-.905zm-1.461 2.641a9.71 9.71 0 0 1 6.208-8.568l-1.36-3.53c-5.133 1.978-8.361 6.75-8.626 11.904zm6.208-8.568a9.7 9.7 0 0 1 3.373-.652l-.046-3.783a13.5 13.5 0 0 0-4.687.905z"/></g><path fill="#fbad41" fill-rule="evenodd" d="M680.069 148.549c-2.197-3.859-2.067-8.81.733-12.619a11.6 11.6 0 0 1 2.976-2.827 11.606 11.606 0 0 1-3.709 15.446" clip-rule="evenodd"/><mask id="mask8_0_1" width="8" height="16" x="678" y="133" maskUnits="userSpaceOnUse" style="mask-type:luminance"><path fill="#fff" fill-rule="evenodd" d="M680.069 148.549c-2.197-3.859-2.067-8.81.733-12.619a11.6 11.6 0 0 1 2.976-2.827 11.606 11.606 0 0 1-3.709 15.446" clip-rule="evenodd"/></mask><g mask="url(#mask8_0_1)"><path fill="#f63" d="m680.069 148.549-1.644.936.998 1.751 1.684-1.106zm3.709-15.446 1.644-.936-.998-1.751-1.684 1.106zm-2.065 14.51a9.71 9.71 0 0 1 .613-10.562l-3.048-2.241c-3.258 4.432-3.406 10.191-.853 14.675zm.613-10.562a9.7 9.7 0 0 1 2.49-2.367l-2.076-3.162a13.5 13.5 0 0 0-3.462 3.288zm-.192-3.012a9.71 9.71 0 0 1-.614 10.562l3.049 2.241c3.258-4.432 3.406-10.191.853-14.675zm-.614 10.562a9.7 9.7 0 0 1-2.489 2.366l2.076 3.163a13.5 13.5 0 0 0 3.462-3.288z"/></g><path fill="#fbad41" fill-rule="evenodd" d="M680.232 148.589a11.6 11.6 0 0 1 9.074-8.799 11.6 11.6 0 0 1 4.103-.07c-.991 4.328-4.436 7.887-9.074 8.799a11.6 11.6 0 0 1-4.103.07" clip-rule="evenodd"/><mask id="mask9_0_1" width="14" height="10" x="680" y="139" maskUnits="userSpaceOnUse" style="mask-type:luminance"><path fill="#fff" fill-rule="evenodd" d="M680.232 148.589a11.6 11.6 0 0 1 9.074-8.799 11.6 11.6 0 0 1 4.103-.07c-.991 4.328-4.436 7.887-9.074 8.799a11.6 11.6 0 0 1-4.103.07" clip-rule="evenodd"/></mask><g mask="url(#mask9_0_1)"><path fill="#f63" d="m680.232 148.589-1.844-.422-.45 1.965 1.989.324zm13.177-8.869 1.844.422.45-1.965-1.989-.324zm-11.333 9.291a9.71 9.71 0 0 1 7.595-7.365l-.73-3.712c-5.397 1.061-9.402 5.203-10.553 10.233zm7.595-7.365a9.7 9.7 0 0 1 3.434-.059l.609-3.734a13.5 13.5 0 0 0-4.773.081zm1.894-2.348a9.71 9.71 0 0 1-7.595 7.365l.729 3.712c5.398-1.061 9.402-5.203 10.554-10.233zm-7.595 7.365a9.7 9.7 0 0 1-3.434.059l-.609 3.734c1.543.252 3.155.237 4.772-.081z"/></g><path fill="#fbad41" fill-rule="evenodd" d="M680.148 148.307a11.6 11.6 0 0 1 5.181-11.529 11.6 11.6 0 0 1 3.787-1.581c.678 4.388-1.208 8.968-5.181 11.529a11.6 11.6 0 0 1-3.787 1.581" clip-rule="evenodd"/><mask id="mask10_0_1" width="10" height="14" x="680" y="135" maskUnits="userSpaceOnUse" style="mask-type:luminance"><path fill="#fff" fill-rule="evenodd" d="M680.148 148.307a11.6 11.6 0 0 1 5.181-11.529 11.6 11.6 0 0 1 3.787-1.581c.678 4.388-1.208 8.968-5.181 11.529a11.6 11.6 0 0 1-3.787 1.581" clip-rule="evenodd"/></mask><g mask="url(#mask10_0_1)"><path fill="#f63" d="m680.148 148.307-1.87.289.308 1.992 1.968-.434zm8.968-13.11 1.87-.289-.308-1.992-1.969.433zm-7.099 12.821a9.71 9.71 0 0 1 4.337-9.65l-2.049-3.18c-4.624 2.98-6.815 8.308-6.027 13.408zm4.337-9.65a9.7 9.7 0 0 1 3.169-1.324l-.814-3.695a13.5 13.5 0 0 0-4.404 1.839zm.893-2.882a9.71 9.71 0 0 1-4.337 9.65l2.049 3.18c4.624-2.98 6.815-8.309 6.027-13.408zm-4.337 9.65a9.7 9.7 0 0 1-3.169 1.323l.813 3.695a13.5 13.5 0 0 0 4.405-1.838z"/></g><path fill="#fbad41" stroke="#f63" stroke-width="1.892" d="M648.048 148.786a2.07 2.07 0 1 0 0-4.14 2.07 2.07 0 0 0 0 4.14z"/><path fill="#6691ff" fill-rule="evenodd" d="M676.135 167.87c2.934-6.386 2.063-14.174-2.857-19.813a18.4 18.4 0 0 0-5.061-4.069c-2.935 6.386-2.063 14.173 2.856 19.813a18.4 18.4 0 0 0 5.062 4.069" clip-rule="evenodd"/><mask id="mask11_0_1" width="12" height="25" x="666" y="143" maskUnits="userSpaceOnUse" style="mask-type:luminance"><path fill="#fff" fill-rule="evenodd" d="M676.135 167.87c2.934-6.386 2.063-14.174-2.857-19.813a18.4 18.4 0 0 0-5.061-4.069c-2.935 6.386-2.063 14.173 2.856 19.813a18.4 18.4 0 0 0 5.062 4.069" clip-rule="evenodd"/></mask><g mask="url(#mask11_0_1)"><path fill="#3e74ff" d="m676.135 167.87 1.718.79-.845 1.841-1.779-.97zm-7.918-23.882-1.719-.79.846-1.841 1.778.97zm6.199 23.092c2.635-5.734 1.849-12.721-2.563-17.78l2.851-2.487c5.426 6.221 6.383 14.809 3.149 21.847zm-2.563-17.78a16.5 16.5 0 0 0-4.541-3.652l1.81-3.321a20.3 20.3 0 0 1 5.582 4.486zm-1.917-4.523c-2.635 5.735-1.85 12.722 2.563 17.781l-2.851 2.487c-5.427-6.222-6.384-14.81-3.15-21.847zm2.563 17.781a16.5 16.5 0 0 0 4.541 3.651l-1.811 3.322a20.3 20.3 0 0 1-5.581-4.486z"/></g><path fill="#6691ff" fill-rule="evenodd" d="M675.088 137.915a11.44 11.44 0 0 1 1.773-12.299 11.4 11.4 0 0 1 3.142-2.526c1.821 3.964 1.281 8.798-1.773 12.299a11.4 11.4 0 0 1-3.142 2.526" clip-rule="evenodd"/><mask id="mask12_0_1" width="8" height="15" x="674" y="123" maskUnits="userSpaceOnUse" style="mask-type:luminance"><path fill="#fff" fill-rule="evenodd" d="M675.088 137.915a11.44 11.44 0 0 1 1.773-12.299 11.4 11.4 0 0 1 3.142-2.526c1.821 3.964 1.281 8.798-1.773 12.299a11.4 11.4 0 0 1-3.142 2.526" clip-rule="evenodd"/></mask><g mask="url(#mask12_0_1)"><path fill="#3e74ff" d="m675.088 137.915-1.719.79.846 1.841 1.778-.97zm4.915-14.825 1.719-.79-.846-1.841-1.779.97zm-3.196 14.036a9.55 9.55 0 0 1 1.479-10.267l-2.851-2.487c-3.56 4.083-4.187 9.717-2.066 14.333zm1.479-10.267a9.5 9.5 0 0 1 2.622-2.108l-1.811-3.322a13.3 13.3 0 0 0-3.662 2.943zm-.002-2.979a9.55 9.55 0 0 1-1.48 10.266l2.851 2.487c3.561-4.082 4.188-9.717 2.067-14.333zm-1.48 10.266a9.5 9.5 0 0 1-2.622 2.108l1.811 3.322a13.3 13.3 0 0 0 3.662-2.943z"/></g><path fill="#fbad41" fill-rule="evenodd" d="M663.921 144.206c-6.426.714-12.97-2.315-16.449-8.253a16.9 16.9 0 0 1-2.065-5.608c6.426-.714 12.97 2.314 16.449 8.253a16.9 16.9 0 0 1 2.065 5.608" clip-rule="evenodd"/><mask id="mask13_0_1" width="19" height="15" x="645" y="130" maskUnits="userSpaceOnUse" style="mask-type:luminance"><path fill="#fff" fill-rule="evenodd" d="M663.921 144.206c-6.426.714-12.97-2.315-16.449-8.253a16.9 16.9 0 0 1-2.065-5.608c6.426-.714 12.97 2.314 16.449 8.253a16.9 16.9 0 0 1 2.065 5.608" clip-rule="evenodd"/></mask><g mask="url(#mask13_0_1)"><path fill="#f63" d="m663.921 144.206.208 1.88 2.004-.223-.349-1.985zm-18.514-13.861-.209-1.88-2.003.223.349 1.985zm18.305 11.981c-5.71.634-11.52-2.058-14.608-7.329l-3.264 1.912c3.87 6.606 11.149 9.97 18.289 9.177zm-14.608-7.329a15 15 0 0 1-1.834-4.979l-3.726.655a18.8 18.8 0 0 0 2.296 6.236zm-3.488-2.772c5.71-.634 11.52 2.058 14.607 7.329l3.265-1.912c-3.87-6.606-11.149-9.97-18.29-9.177zm14.607 7.329a15 15 0 0 1 1.834 4.979l3.727-.655a18.8 18.8 0 0 0-2.296-6.236z"/></g><path fill="#fbad41" fill-rule="evenodd" d="M664.067 144.011c-5.216-3.819-7.989-10.477-6.535-17.204a16.9 16.9 0 0 1 2.272-5.527c5.216 3.82 7.989 10.477 6.535 17.204a16.9 16.9 0 0 1-2.272 5.527" clip-rule="evenodd"/><mask id="mask14_0_1" width="10" height="24" x="657" y="121" maskUnits="userSpaceOnUse" style="mask-type:luminance"><path fill="#fff" fill-rule="evenodd" d="M664.067 144.011c-5.216-3.819-7.989-10.477-6.535-17.204a16.9 16.9 0 0 1 2.272-5.527c5.216 3.82 7.989 10.477 6.535 17.204a16.9 16.9 0 0 1-2.272 5.527" clip-rule="evenodd"/></mask><g mask="url(#mask14_0_1)"><path fill="#f63" d="m664.067 144.011-1.117 1.526 1.626 1.191 1.085-1.698zm-4.263-22.731 1.117-1.526-1.626-1.191-1.085 1.699zm5.381 21.205c-4.636-3.394-7.095-9.307-5.804-15.278l-3.698-.8c-1.617 7.484 1.47 14.886 7.267 19.13zm-5.804-15.278a15 15 0 0 1 2.017-4.908l-3.188-2.037a18.8 18.8 0 0 0-2.527 6.145zm-.695-4.4c4.636 3.394 7.095 9.307 5.804 15.278l3.698.799c1.617-7.483-1.47-14.885-7.267-19.13zm5.804 15.278a15 15 0 0 1-2.017 4.908l3.188 2.037a18.8 18.8 0 0 0 2.527-6.146z"/></g><path fill="#fbad41" fill-rule="evenodd" d="M651.282 124.414c6.259 1.622 11.295 6.784 12.429 13.573.341 2.04.3 4.056-.069 5.975-6.258-1.623-11.295-6.784-12.429-13.573-.341-2.04-.3-4.056.069-5.975" clip-rule="evenodd"/><mask id="mask15_0_1" width="14" height="20" x="650" y="124" maskUnits="userSpaceOnUse" style="mask-type:luminance"><path fill="#fff" fill-rule="evenodd" d="M651.282 124.414c6.259 1.622 11.295 6.784 12.429 13.573.341 2.04.3 4.056-.069 5.975-6.258-1.623-11.295-6.784-12.429-13.573-.341-2.04-.3-4.056.069-5.975" clip-rule="evenodd"/></mask><g mask="url(#mask15_0_1)"><path fill="#f63" d="m651.282 124.414.475-1.831-1.951-.506-.381 1.979zm12.36 19.548-.475 1.831 1.951.505.381-1.979zm-12.834-17.717c5.561 1.442 10.031 6.028 11.037 12.053l3.732-.623c-1.262-7.552-6.865-13.289-13.82-15.092zm11.037 12.053a15 15 0 0 1-.061 5.306l3.715.715c.412-2.136.456-4.379.078-6.644zm2.272 3.833c-5.562-1.442-10.031-6.028-11.038-12.054l-3.731.624c1.261 7.551 6.864 13.289 13.819 15.092zm-11.038-12.054a15 15 0 0 1 .061-5.305l-3.715-.716a18.7 18.7 0 0 0-.077 6.645z"/></g><path fill="#fbad41" fill-rule="evenodd" d="M660.721 86.347c4.151 2.548 6.641 7.377 5.962 12.518a12.7 12.7 0 0 1-1.367 4.29c-4.151-2.548-6.642-7.377-5.962-12.518a12.7 12.7 0 0 1 1.367-4.29" clip-rule="evenodd"/><mask id="mask16_0_1" width="8" height="18" x="659" y="86" maskUnits="userSpaceOnUse" style="mask-type:luminance"><path fill="#fff" fill-rule="evenodd" d="M660.721 86.347c4.151 2.548 6.641 7.377 5.962 12.518a12.7 12.7 0 0 1-1.367 4.29c-4.151-2.548-6.642-7.377-5.962-12.518a12.7 12.7 0 0 1 1.367-4.29" clip-rule="evenodd"/></mask><g mask="url(#mask16_0_1)"><path fill="#f63" d="m660.721 86.347.989-1.612-1.718-1.055-.943 1.781zm4.595 16.808-.989 1.612 1.717 1.055.944-1.781zm-5.585-15.196a10.84 10.84 0 0 1 5.077 10.658l3.75.496c.781-5.908-2.083-11.453-6.848-14.378zm5.077 10.658a10.8 10.8 0 0 1-1.163 3.653l3.343 1.771a14.6 14.6 0 0 0 1.57-4.928zm1.498 2.926a10.84 10.84 0 0 1-5.077-10.658l-3.751-.496c-.78 5.908 2.084 11.453 6.849 14.378zm-5.077-10.658a10.8 10.8 0 0 1 1.163-3.653l-3.343-1.771a14.6 14.6 0 0 0-1.571 4.928z"/></g><path fill="#f6821f" fill-rule="evenodd" d="M669.414 84.139c4.049 5.417 4.785 12.925 1.272 19.209a17.7 17.7 0 0 1-3.964 4.833c-4.048-5.417-4.785-12.925-1.271-19.208a17.6 17.6 0 0 1 3.963-4.834" clip-rule="evenodd"/><mask id="mask17_0_1" width="10" height="25" x="663" y="84" maskUnits="userSpaceOnUse" style="mask-type:luminance"><path fill="#fff" fill-rule="evenodd" d="M669.414 84.139c4.049 5.417 4.785 12.925 1.272 19.209a17.7 17.7 0 0 1-3.964 4.833c-4.048-5.417-4.785-12.925-1.271-19.208a17.6 17.6 0 0 1 3.963-4.834" clip-rule="evenodd"/></mask><g mask="url(#mask17_0_1)"><path fill="#f63" d="m669.414 84.139 1.516-1.132-1.207-1.615-1.535 1.307zm-2.692 24.042-1.515 1.132 1.206 1.615 1.535-1.307zm1.177-22.909c3.618 4.84 4.271 11.544 1.136 17.152l3.302 1.847c3.891-6.96 3.072-15.271-1.407-21.264zm1.136 17.152a15.7 15.7 0 0 1-3.539 4.316l2.452 2.881a19.5 19.5 0 0 0 4.389-5.35zm-.798 4.624c-3.617-4.84-4.271-11.544-1.135-17.152l-3.302-1.847c-3.891 6.96-3.072 15.271 1.407 21.264zm-1.135-17.152a15.7 15.7 0 0 1 3.538-4.316l-2.452-2.881a19.5 19.5 0 0 0-4.388 5.35z"/></g><path fill="#fbad41" fill-rule="evenodd" d="M661.665 105.705c-.965-4.775-4.642-8.775-9.703-9.905a12.7 12.7 0 0 0-4.498-.193c.964 4.775 4.642 8.775 9.703 9.905 1.521.34 3.039.392 4.498.193" clip-rule="evenodd"/><mask id="mask18_0_1" width="15" height="11" x="647" y="95" maskUnits="userSpaceOnUse" style="mask-type:luminance"><path fill="#fff" fill-rule="evenodd" d="M661.665 105.705c-.965-4.775-4.642-8.775-9.703-9.905a12.7 12.7 0 0 0-4.498-.193c.964 4.775 4.642 8.775 9.703 9.905 1.521.34 3.039.392 4.498.193" clip-rule="evenodd"/></mask><g mask="url(#mask18_0_1)"><path fill="#f63" d="m661.665 105.705 1.854-.375.4 1.975-1.997.274zm-14.201-10.098-1.855.375-.399-1.975 1.997-.274zm12.347 10.472a10.84 10.84 0 0 0-8.261-8.433l.825-3.692c5.816 1.299 10.037 5.896 11.144 11.376zm-8.261-8.433a10.8 10.8 0 0 0-3.83-.164l-.513-3.749a14.6 14.6 0 0 1 5.168.221zm-2.232-2.413a10.84 10.84 0 0 0 8.261 8.433l-.825 3.692c-5.816-1.299-10.037-5.896-11.145-11.376zm8.261 8.433c1.299.29 2.59.334 3.83.164l.513 3.749a14.6 14.6 0 0 1-5.168-.221z"/></g><path fill="#f6821f" fill-rule="evenodd" d="M665.905 108.752c-3.693-5.665-10.489-8.939-17.598-7.801a17.6 17.6 0 0 0-5.901 2.058c3.694 5.665 10.49 8.939 17.598 7.802a17.6 17.6 0 0 0 5.901-2.059" clip-rule="evenodd"/><mask id="mask19_0_1" width="24" height="12" x="642" y="100" maskUnits="userSpaceOnUse" style="mask-type:luminance"><path fill="#fff" fill-rule="evenodd" d="M665.905 108.752c-3.693-5.665-10.489-8.939-17.598-7.801a17.6 17.6 0 0 0-5.901 2.058c3.694 5.665 10.49 8.939 17.598 7.802a17.6 17.6 0 0 0 5.901-2.059" clip-rule="evenodd"/></mask><g mask="url(#mask19_0_1)"><path fill="#f63" d="m665.905 108.752 1.585-1.033 1.101 1.688-1.755.992zm-23.499-5.743-1.585 1.033-1.101-1.688 1.755-.992zm21.915 6.776c-3.301-5.062-9.371-7.982-15.715-6.967l-.598-3.735c7.873-1.26 15.395 2.368 19.482 8.636zm-15.715-6.967a15.8 15.8 0 0 0-5.27 1.838l-1.861-3.294a19.5 19.5 0 0 1 6.533-2.279zm-4.616-.842c3.301 5.062 9.371 7.982 15.716 6.967l.597 3.736c-7.873 1.259-15.395-2.369-19.482-8.637zm15.716 6.967a15.7 15.7 0 0 0 5.269-1.838l1.861 3.294a19.5 19.5 0 0 1-6.533 2.28z"/></g><path fill="#f6821f" fill-rule="evenodd" d="M652.238 88.801c6.646 1.252 12.266 6.284 13.928 13.289.5 2.105.6 4.212.35 6.24-6.646-1.252-12.266-6.284-13.928-13.289-.5-2.105-.6-4.212-.35-6.24" clip-rule="evenodd"/><mask id="mask20_0_1" width="15" height="21" x="652" y="88" maskUnits="userSpaceOnUse" style="mask-type:luminance"><path fill="#fff" fill-rule="evenodd" d="M652.238 88.801c6.646 1.252 12.266 6.284 13.928 13.289.5 2.105.6 4.212.35 6.24-6.646-1.252-12.266-6.284-13.928-13.289-.5-2.105-.6-4.212-.35-6.24" clip-rule="evenodd"/></mask><g mask="url(#mask20_0_1)"><path fill="#f63" d="m652.238 88.801.35-1.859-1.98-.373-.247 2zm14.278 19.529-.351 1.859 1.981.373.247-2zm-14.628-17.67c5.939 1.119 10.954 5.615 12.438 11.867l3.681-.874c-1.841-7.758-8.065-13.326-15.419-14.711zm12.438 11.867c.447 1.883.535 3.763.312 5.572l3.755.463a19.5 19.5 0 0 0-.386-6.909zm2.54 3.944c-5.939-1.118-10.954-5.614-12.438-11.866l-3.681.873c1.841 7.758 8.065 13.326 15.418 14.711zm-12.438-11.866a15.7 15.7 0 0 1-.312-5.572l-3.755-.464a19.5 19.5 0 0 0 .386 6.909z"/></g><path fill="#6691ff" fill-rule="evenodd" d="M668.608 97.455a8.4 8.4 0 0 1 .25 9.15 8.4 8.4 0 0 1-1.972 2.223 8.4 8.4 0 0 1-.25-9.15 8.4 8.4 0 0 1 1.972-2.223" clip-rule="evenodd"/><mask id="mask21_0_1" width="6" height="12" x="665" y="97" maskUnits="userSpaceOnUse" style="mask-type:luminance"><path fill="#fff" fill-rule="evenodd" d="M668.608 97.455a8.4 8.4 0 0 1 .25 9.15 8.4 8.4 0 0 1-1.972 2.223 8.4 8.4 0 0 1-.25-9.15 8.4 8.4 0 0 1 1.972-2.223" clip-rule="evenodd"/></mask><g mask="url(#mask21_0_1)"><path fill="#3e74ff" d="m668.608 97.455 1.558-1.073-1.143-1.66-1.584 1.246zm-1.722 11.373-1.558 1.073 1.143 1.66 1.584-1.246zm.164-10.301a6.51 6.51 0 0 1 .194 7.092l3.228 1.973a10.29 10.29 0 0 0-.306-11.21zm.194 7.092a6.5 6.5 0 0 1-1.528 1.722l2.339 2.974a10.3 10.3 0 0 0 2.417-2.723zm1.2 2.136a6.51 6.51 0 0 1-.194-7.091l-3.228-1.973a10.29 10.29 0 0 0 .306 11.21zm-.194-7.091a6.5 6.5 0 0 1 1.528-1.723l-2.339-2.973a10.3 10.3 0 0 0-2.417 2.723z"/></g><path fill="#6691ff" fill-rule="evenodd" d="M655.496 106.75a8.4 8.4 0 0 0 8.516 3.354 8.4 8.4 0 0 0 2.763-1.096 8.404 8.404 0 0 0-11.279-2.258" clip-rule="evenodd"/><mask id="mask22_0_1" width="12" height="6" x="655" y="105" maskUnits="userSpaceOnUse" style="mask-type:luminance"><path fill="#fff" fill-rule="evenodd" d="M655.496 106.75a8.4 8.4 0 0 0 8.516 3.354 8.4 8.4 0 0 0 2.763-1.096 8.404 8.404 0 0 0-11.279-2.258" clip-rule="evenodd"/></mask><g mask="url(#mask22_0_1)"><path fill="#3e74ff" d="m655.496 106.75-1.54 1.1-1.171-1.641 1.712-1.065zm11.279 2.258 1.54-1.099 1.171 1.64-1.712 1.065zm-9.74-3.357a6.51 6.51 0 0 0 6.6 2.599l.754 3.708a10.3 10.3 0 0 1-10.433-4.108zm6.6 2.599a6.5 6.5 0 0 0 2.141-.848l1.998 3.212a10.3 10.3 0 0 1-3.385 1.344zm1.6 1.857a6.51 6.51 0 0 0-6.599-2.599l-.755-3.708a10.3 10.3 0 0 1 10.434 4.109zm-6.599-2.599a6.5 6.5 0 0 0-2.141.849l-1.998-3.213a10.3 10.3 0 0 1 3.384-1.344z"/></g><path fill="#6691ff" fill-rule="evenodd" d="M660.532 100.16a8.4 8.4 0 0 1 6.365 6.578 8.4 8.4 0 0 1 .048 2.972 8.403 8.403 0 0 1-6.413-9.55" clip-rule="evenodd"/><mask id="mask23_0_1" width="8" height="10" x="660" y="100" maskUnits="userSpaceOnUse" style="mask-type:luminance"><path fill="#fff" fill-rule="evenodd" d="M660.532 100.16a8.4 8.4 0 0 1 6.365 6.578 8.4 8.4 0 0 1 .048 2.972 8.403 8.403 0 0 1-6.413-9.55" clip-rule="evenodd"/></mask><g mask="url(#mask23_0_1)"><path fill="#3e74ff" d="m660.532 100.16.424-1.844-1.964-.451-.327 1.988zm6.413 9.55-.424 1.844 1.964.451.327-1.989zm-6.837-7.707a6.51 6.51 0 0 1 4.933 5.098l3.713-.726a10.29 10.29 0 0 0-7.798-8.059zm4.933 5.098c.154.786.159 1.562.037 2.303l3.734.612a10.3 10.3 0 0 0-.058-3.641zm2.328.766a6.51 6.51 0 0 1-4.933-5.098l-3.713.726a10.29 10.29 0 0 0 7.798 8.059zm-4.933-5.098a6.5 6.5 0 0 1-.038-2.303l-3.733-.613a10.3 10.3 0 0 0 .058 3.642z"/></g><path fill="#fbad41" stroke="#f63" stroke-width="1.892" d="M654.832 75.41a1.818 1.818 0 1 0 0-3.637 1.818 1.818 0 0 0 0 3.636zm.252 83.428a2.07 2.07 0 1 0 0-4.14 2.07 2.07 0 0 0 0 4.14zm34.678-38.699a2.07 2.07 0 1 0 0-4.14 2.07 2.07 0 0 0 0 4.14z"/><path fill="#a8cbff" fill-rule="evenodd" d="M673.756 235.673h13.994l-.79-3.542c7.982-4.601 13.355-13.22 13.355-23.095 0-11.398-7.158-21.123-17.225-24.926l.691-7.742h-20.627l.813 7.857c-9.908 3.882-16.925 13.527-16.925 24.811 0 9.874 5.373 18.494 13.354 23.094l-.79 3.543z" clip-rule="evenodd"/><path fill="#3e74ff" d="M687.75 235.673v.945h1.18l-.257-1.151zm-13.994 0v-.946h-.002zm13.204-3.542-.472-.82-.602.347.151.679zm-3.87-48.021-.942-.084-.063.715.671.254zm.691-7.742.942.084.092-1.029h-1.034zm-20.627 0v-.945h-1.049l.108 1.043zm.813 7.857.345.881.67-.262-.074-.716zm-3.571 47.905.923.206.152-.678-.602-.347zm-.79 3.543-.923-.206-.257 1.151h1.18zm13.995 0 .003-.946h-.003zm14.149-.946h-13.994v1.891h13.994zm-1.713-2.39.79 3.542 1.846-.412-.79-3.542zm13.333-23.301c0 9.523-5.181 17.837-12.882 22.275l.944 1.639c8.263-4.762 13.829-13.688 13.829-23.914zm-16.614-24.041c9.711 3.668 16.614 13.05 16.614 24.041h1.891c0-11.804-7.414-21.874-17.836-25.811zm.083-8.711-.691 7.742 1.884.168.691-7.742zm-19.685 1.03h20.627v-1.891h-20.627zm1.754 6.814-.813-7.857-1.882.195.813 7.857zm-16.92 24.908c0-10.882 6.766-20.186 16.324-23.93l-.69-1.761c-10.259 4.018-17.526 14.005-17.526 25.691zm12.881 22.275c-7.701-4.439-12.881-12.753-12.881-22.275h-1.892c0 10.226 5.565 19.151 13.828 23.913zm-.34 4.568.79-3.543-1.846-.412-.79 3.543zm13.072-1.152h-13.995v1.891h13.995zm.078 0h-.075l-.006 1.891.081.001zm.075 0h-.075v1.892l.08-.001z"/><path fill="#fbad41" stroke="#f63" stroke-width="1.892" d="M133.419 145.678h-12.394v91.473h12.394z"/><path fill="#3e74ff" stroke="#f63" d="M120.264 236.819v-.382h11.394v.382zm8.28.161v.006z"/><path fill="#f63" d="M133.395 146H121v1.381h12.395z"/><path fill="#ffe9cb" stroke="#f63" stroke-width="1.892" d="M120.859 178.374h-17.146v58.777h17.146z"/><path fill="#fbad41" stroke="#f63" stroke-width="2" d="M115.682 217.373v.008c.017 2.019-1.479 3.534-3.113 3.534-1.626 0-3.113-1.509-3.113-3.542v-17.879c0-2.05 1.501-3.542 3.113-3.542 1.626 0 3.113 1.509 3.113 3.542z"/><path stroke="#f63" stroke-width="1.892" d="M166.589 179.336h-18.263a6.62 6.62 0 0 0-6.621 6.621v7.515a6.62 6.62 0 0 0 6.621 6.62h18.263a6.62 6.62 0 0 0 6.621-6.62v-7.515a6.62 6.62 0 0 0-6.621-6.621z"/><path fill="#ffe9cb" stroke="#f63" stroke-width="1.892" d="M151.301 173.195h30.354v26.419a6.62 6.62 0 0 1-6.621 6.621h-17.112a6.62 6.62 0 0 1-6.621-6.621z"/><path fill="#fff" d="M160.144 174.155h7.486v29.283a3.743 3.743 0 0 1-7.486 0zm-4.99 0h3.119v31.466a1.56 1.56 0 1 1-3.119 0z"/><path fill="#f63" stroke="#f63" stroke-width="1.892" d="M151.301 178.185h30.354v21.429a6.62 6.62 0 0 1-6.621 6.621h-17.112a6.62 6.62 0 0 1-6.621-6.621z"/><path fill="#ffe9cb" d="m170.15 192.703.107-.366c.128-.436.081-.838-.135-1.134-.198-.272-.528-.433-.928-.451l-7.591-.096a.15.15 0 0 1-.12-.062.15.15 0 0 1-.016-.135.2.2 0 0 1 .176-.132l7.662-.096c.909-.041 1.892-.766 2.237-1.65l.437-1.122a.26.26 0 0 0 .012-.148c-.497-2.194-2.488-3.834-4.869-3.834-2.194 0-4.057 1.392-4.725 3.327a2.27 2.27 0 0 0-1.576-.429c-1.052.103-1.898.936-2.003 1.97q-.038.405.058.772c-1.719.049-3.098 1.434-3.098 3.136q0 .231.034.453a.15.15 0 0 0 .146.126l14.014.002.004-.001a.19.19 0 0 0 .174-.13m2.648-5.483q-.106 0-.212.005a.1.1 0 0 0-.033.008.12.12 0 0 0-.077.084l-.302 1.075c-.129.462-.081.888.136 1.202.2.29.533.459.938.479l1.633.101a.15.15 0 0 1 .117.066.17.17 0 0 1 .017.143.21.21 0 0 1-.178.141l-1.697.101c-.921.044-1.915.813-2.263 1.75l-.122.331a.093.093 0 0 0 .08.127l.005.001h5.84c.07 0 .132-.047.151-.116q.155-.561.156-1.172c-.001-2.39-1.876-4.326-4.189-4.326"/><path fill="#fbad41" fill-rule="evenodd" d="M589.988 234.143c3.349-7.714 2.343-16.861-3.283-23.207a19.5 19.5 0 0 0-5.787-4.481c-3.349 7.714-2.343 16.861 3.283 23.207a19.5 19.5 0 0 0 5.787 4.481" clip-rule="evenodd"/><mask id="mask24_0_1" width="13" height="29" x="579" y="206" maskUnits="userSpaceOnUse" style="mask-type:luminance"><path fill="#fff" fill-rule="evenodd" d="M589.988 234.143c3.349-7.714 2.343-16.861-3.283-23.207a19.5 19.5 0 0 0-5.787-4.481c-3.349 7.714-2.343 16.861 3.283 23.207a19.5 19.5 0 0 0 5.787 4.481" clip-rule="evenodd"/></mask><g mask="url(#mask24_0_1)"><path fill="#f63" d="m589.988 234.143 1.689.79-.788 1.815-1.716-.869zm-9.07-27.688-1.688-.79.787-1.815 1.716.869zm7.382 26.898c3.07-7.072 2.12-15.377-2.958-21.106l2.727-2.622c6.173 6.964 7.235 16.951 3.608 25.308zm-2.958-21.106a17.7 17.7 0 0 0-5.239-4.057l1.63-3.471a21.4 21.4 0 0 1 6.336 4.906zm-2.736-5.002c-3.07 7.072-2.12 15.377 2.958 21.106l-2.727 2.622c-6.173-6.964-7.235-16.951-3.607-25.308zm2.958 21.106a17.7 17.7 0 0 0 5.24 4.057l-1.631 3.471a21.4 21.4 0 0 1-6.336-4.906z"/></g><path fill="#fbad41" fill-rule="evenodd" d="M593.03 235.972c-4.232-7.249-12.686-11.513-21.954-10.182-2.785.4-5.41 1.271-7.797 2.519 4.232 7.25 12.685 11.513 21.953 10.183a24.3 24.3 0 0 0 7.798-2.52" clip-rule="evenodd"/><mask id="mask25_0_1" width="31" height="14" x="563" y="225" maskUnits="userSpaceOnUse" style="mask-type:luminance"><path fill="#fff" fill-rule="evenodd" d="M593.03 235.972c-4.232-7.249-12.686-11.513-21.954-10.182-2.785.4-5.41 1.271-7.797 2.519 4.232 7.25 12.685 11.513 21.953 10.183a24.3 24.3 0 0 0 7.798-2.52" clip-rule="evenodd"/></mask><g mask="url(#mask25_0_1)"><path fill="#f63" d="m593.03 235.972 1.631-1.031 1.017 1.742-1.857.971zm-29.751-7.663-1.631 1.031-1.017-1.742 1.856-.97zm28.119 8.695c-3.868-6.627-11.62-10.555-20.154-9.33l-.335-3.768c10.001-1.436 19.156 3.163 23.752 11.035zm-20.154-9.33a22.3 22.3 0 0 0-7.173 2.317l-1.584-3.363a26.2 26.2 0 0 1 8.422-2.722zm-6.333-.396c3.868 6.626 11.619 10.555 20.154 9.33l.335 3.768c-10.002 1.436-19.157-3.163-23.752-11.036zm20.154 9.33a22.3 22.3 0 0 0 7.173-2.317l1.583 3.363a26.2 26.2 0 0 1-8.421 2.722z"/></g><path fill="#fbad41" fill-rule="evenodd" d="M699.033 230.976c-3.558-7.14-3.062-15.855 1.951-22.149a18.5 18.5 0 0 1 5.259-4.534c3.558 7.141 3.062 15.856-1.951 22.149a18.5 18.5 0 0 1-5.259 4.534" clip-rule="evenodd"/><mask id="mask26_0_1" width="13" height="27" x="696" y="204" maskUnits="userSpaceOnUse" style="mask-type:luminance"><path fill="#fff" fill-rule="evenodd" d="M699.033 230.976c-3.558-7.14-3.062-15.855 1.951-22.149a18.5 18.5 0 0 1 5.259-4.534c3.558 7.141 3.062 15.856-1.951 22.149a18.5 18.5 0 0 1-5.259 4.534" clip-rule="evenodd"/></mask><g mask="url(#mask26_0_1)"><path fill="#f63" d="m699.033 230.976-1.644.878.882 1.771 1.668-.958zm7.21-26.683 1.644-.878-.882-1.77-1.667.958zm-5.566 25.806c-3.245-6.515-2.761-14.386 1.737-20.034l-2.861-2.475c-5.526 6.939-6.034 16.497-2.164 24.264zm1.737-20.034a16.6 16.6 0 0 1 4.734-4.082l-1.81-3.38a20.3 20.3 0 0 0-5.785 4.987zm2.185-4.894c3.245 6.514 2.761 14.386-1.737 20.034l2.861 2.475c5.527-6.939 6.034-16.497 2.164-24.265zm-1.737 20.034a16.7 16.7 0 0 1-4.734 4.081l1.811 3.381a20.4 20.4 0 0 0 5.784-4.987z"/></g><path stroke="#f63" stroke-width="1.892" d="M103.844 191.307h16.641"/><path fill="#fff" d="M366.002 261.502c54.682 0 99.011-44.329 99.011-99.011S420.684 63.48 366.002 63.48s-99.011 44.329-99.011 99.011 44.329 99.011 99.011 99.011"/><path fill="url(#paint0_linear_0_1)" stroke="url(#paint1_linear_0_1)" stroke-width="2.868" d="M365.941 254.927c51.085 0 92.497-41.412 92.497-92.497s-41.412-92.497-92.497-92.497-92.498 41.412-92.498 92.497 41.413 92.497 92.498 92.497z"/><path fill="#fff" d="M365.927 236.976c41.178 0 74.56-33.382 74.56-74.56s-33.382-74.56-74.56-74.56-74.56 33.382-74.56 74.56 33.382 74.56 74.56 74.56"/><path fill="url(#paint2_linear_0_1)" stroke="#f63" stroke-linejoin="round" stroke-width="3" d="M421.701 141.357v45.918l-55.379 31.402v-45.918z"/><path fill="url(#paint3_linear_0_1)" stroke="#f63" stroke-linejoin="round" stroke-width="3" d="M310.943 141.357v45.918l55.379 31.402v-45.918z"/><path fill="#fbad41" stroke="#f63" stroke-linejoin="round" stroke-width="3" d="m366.322 109.965-55.379 31.392 55.379 31.402 55.379-31.402z"/><path fill="#f63" stroke="#003682" stroke-linejoin="round" stroke-width="3" d="M374.957 124.54v-4.229l-3.658.551a9.7 9.7 0 0 0-5.242-.295c-1.387.275-2.7.838-3.855 1.652l-2.764.403v5.085c0 3.344 4.593 4.858 8.851 3.983s6.619-3.462 6.668-7.15z"/><path fill="#f63" stroke="#f63" stroke-linejoin="round" stroke-width="3" d="M365.978 132.162a8.5 8.5 0 0 1-5.222-1.475 3.66 3.66 0 0 1-1.465-2.951v-5.271l2.95-.423a10.5 10.5 0 0 1 3.934-1.672 10.3 10.3 0 0 1 5.32.285l3.836-.58v4.426c0 3.855-2.429 6.481-6.757 7.366-.852.189-1.722.288-2.596.295zm-6.265-9.343v4.917c0 .499.118.992.345 1.436.233.45.571.837.983 1.131a9.1 9.1 0 0 0 3.521 1.367 9.2 9.2 0 0 0 3.767-.157c4.091-.846 6.363-3.314 6.402-6.943v-3.934l-3.442.511a9.66 9.66 0 0 0-5.124-.275 9.9 9.9 0 0 0-3.767 1.603h-.108z"/><path fill="#fbad41" stroke="#f63" stroke-linejoin="round" stroke-width="3" d="M368.515 127.185c4.337-.875 7.337-4.081 6.688-7.149-.649-3.069-4.681-4.859-9.018-3.983s-7.337 4.081-6.688 7.149c.649 3.069 4.681 4.839 9.018 3.983z"/><path fill="#f63" stroke="#f63" stroke-linejoin="round" stroke-width="3" d="M347.135 140.511v-4.219l-3.659.541a9.7 9.7 0 0 0-5.241-.295 10.05 10.05 0 0 0-3.856 1.652l-2.773.413v5.085c0 3.343 4.593 4.858 8.851 3.934 4.259-.925 6.629-3.423 6.678-7.111z"/><path fill="#f63" stroke="#f63" stroke-linejoin="round" stroke-width="3" d="M338.146 148.134a8.43 8.43 0 0 1-5.212-1.476 3.7 3.7 0 0 1-1.082-1.298 3.7 3.7 0 0 1-.394-1.642v-5.281l2.951-.423c1.18-.824 2.52-1.39 3.934-1.662a10.15 10.15 0 0 1 5.31.275l3.846-.57v4.416c0 3.855-2.429 6.481-6.757 7.366a11.3 11.3 0 0 1-2.596.295zm-6.255-9.343v4.917a3.21 3.21 0 0 0 1.298 2.557 9.2 9.2 0 0 0 7.288 1.21c4.091-.836 6.363-3.315 6.402-6.943v-3.934l-3.442.521a9.56 9.56 0 0 0-5.124-.285 10 10 0 0 0-3.776 1.603h-.099z"/><path fill="#fbad41" stroke="#f63" stroke-linejoin="round" stroke-width="3" d="M340.693 143.167c4.337-.875 7.336-4.081 6.687-7.16s-4.681-4.858-9.018-3.983c-4.337.876-7.337 4.082-6.697 7.16s4.681 4.858 9.028 3.983z"/><path fill="#f63" stroke="#003682" stroke-linejoin="round" stroke-width="3" d="M400.842 140.187v-4.229l-3.649.55a9.6 9.6 0 0 0-5.242-.295c-1.386.27-2.7.83-3.855 1.643l-2.773.413v5.084c0 3.344 4.593 4.859 8.851 3.934s6.629-3.422 6.668-7.1z"/><path fill="#f63" stroke="#f63" stroke-linejoin="round" stroke-width="3" d="M391.863 147.798a8.46 8.46 0 0 1-5.213-1.465 3.75 3.75 0 0 1-1.475-2.951v-5.271l2.951-.433a10.4 10.4 0 0 1 3.933-1.662 10.26 10.26 0 0 1 5.311.286l3.845-.581v4.426c0 3.855-2.429 6.481-6.756 7.356a11.2 11.2 0 0 1-2.596.295zm-6.285-9.333v4.917c0 .5.118.992.345 1.436.239.446.575.833.983 1.131a9.4 9.4 0 0 0 3.521 1.367 9.2 9.2 0 0 0 3.776-.167c4.092-.836 6.354-3.314 6.403-6.884v-3.934l-3.442.511a9.66 9.66 0 0 0-5.124-.275 9.8 9.8 0 0 0-3.777 1.603h-.098z"/><path fill="#fbad41" stroke="#f63" stroke-linejoin="round" stroke-width="3" d="M394.43 142.793c4.337-.875 7.326-4.081 6.687-7.159-.639-3.079-4.681-4.859-9.018-3.934s-7.337 4.081-6.698 7.15c.64 3.068 4.662 4.858 9.029 3.943z"/><path fill="#f63" stroke="#003682" stroke-linejoin="round" stroke-width="3" d="M373.777 155.5v-4.229l-3.648.55a9.6 9.6 0 0 0-5.242-.295 10.1 10.1 0 0 0-3.865 1.643l-2.764.413v5.084c0 3.344 4.593 4.859 8.851 3.934s6.59-3.422 6.668-7.1z"/><path fill="#f63" stroke="#f63" stroke-linejoin="round" stroke-width="3" d="M364.759 163.111a8.46 8.46 0 0 1-5.213-1.465 3.75 3.75 0 0 1-1.475-2.95v-5.272l2.95-.432a10.5 10.5 0 0 1 3.934-1.663 10.2 10.2 0 0 1 5.321.286l3.845-.581v4.416c0 3.865-2.429 6.481-6.766 7.366-.851.2-1.722.299-2.596.295zm-6.265-9.333v4.918c.008.499.129.99.354 1.435.239.446.575.833.984 1.131a9.3 9.3 0 0 0 3.52 1.367 9.2 9.2 0 0 0 3.767-.167c4.101-.836 6.363-3.314 6.412-6.933v-3.934l-3.452.511a9.66 9.66 0 0 0-5.124-.275 9.8 9.8 0 0 0-3.766 1.603h-.099z"/><path fill="#fbad41" stroke="#f63" stroke-linejoin="round" stroke-width="3" d="M367.296 158.144c4.347-.875 7.337-4.081 6.697-7.159s-4.681-4.859-9.028-3.934-7.336 4.081-6.687 7.15 4.681 4.819 9.018 3.943z"/><path fill="url(#paint4_linear_0_1)" stroke="#f63" stroke-linejoin="round" stroke-width="3" d="M420.833 141.392v45.918l-55.379 31.402v-45.918z"/><path fill="url(#paint5_linear_0_1)" stroke="#f63" stroke-linejoin="round" stroke-width="3" d="M310.075 141.392v45.918l55.379 31.402v-45.918z"/><path fill="#fbad41" stroke="#f63" stroke-linejoin="round" stroke-width="3" d="m365.454 110-55.379 31.392 55.379 31.402 55.379-31.402z"/><path fill="#f63" stroke="#003682" stroke-linejoin="round" stroke-width="3" d="M374.089 124.575v-4.229l-3.658.551a9.7 9.7 0 0 0-5.242-.295c-1.387.275-2.7.838-3.855 1.652l-2.764.403v5.085c0 3.344 4.593 4.858 8.851 3.983s6.619-3.462 6.668-7.15z"/><path fill="#f63" stroke="#f63" stroke-linejoin="round" stroke-width="3" d="M365.11 132.197a8.5 8.5 0 0 1-5.222-1.475 3.65 3.65 0 0 1-1.465-2.95V122.5l2.95-.423a10.5 10.5 0 0 1 3.934-1.672 10.3 10.3 0 0 1 5.32.286l3.836-.581v4.426c0 3.855-2.429 6.481-6.757 7.366-.852.189-1.723.288-2.596.295zm-6.265-9.343v4.918c0 .499.118.991.345 1.435.233.45.57.837.983 1.131a9.1 9.1 0 0 0 3.521 1.367 9.2 9.2 0 0 0 3.767-.157c4.091-.846 6.363-3.314 6.402-6.943v-3.934l-3.442.511a9.66 9.66 0 0 0-5.124-.275 9.9 9.9 0 0 0-3.767 1.603h-.108z"/><path fill="#fbad41" stroke="#f63" stroke-linejoin="round" stroke-width="3" d="M367.647 127.221c4.337-.876 7.337-4.082 6.688-7.15s-4.681-4.858-9.018-3.983-7.337 4.081-6.688 7.15 4.681 4.838 9.018 3.983z"/><path fill="#f63" stroke="#f63" stroke-linejoin="round" stroke-width="3" d="M346.267 140.546v-4.219l-3.659.541a9.7 9.7 0 0 0-5.241-.295 10.1 10.1 0 0 0-3.856 1.652l-2.773.413v5.085c0 3.344 4.593 4.858 8.851 3.934 4.259-.925 6.629-3.423 6.678-7.111z"/><path fill="#f63" stroke="#f63" stroke-linejoin="round" stroke-width="3" d="M337.278 148.169a8.43 8.43 0 0 1-5.212-1.475 3.75 3.75 0 0 1-1.082-1.299 3.7 3.7 0 0 1-.394-1.642v-5.281l2.951-.423c1.18-.823 2.52-1.39 3.934-1.662a10.15 10.15 0 0 1 5.31.275l3.846-.57v4.416c0 3.855-2.429 6.481-6.757 7.366a11.3 11.3 0 0 1-2.596.295zm-6.255-9.343v4.917a3.21 3.21 0 0 0 1.298 2.557 9.2 9.2 0 0 0 7.288 1.21c4.091-.836 6.363-3.314 6.402-6.943v-3.934l-3.442.521a9.56 9.56 0 0 0-5.124-.285 10 10 0 0 0-3.776 1.603h-.099z"/><path fill="#fbad41" stroke="#f63" stroke-linejoin="round" stroke-width="3" d="M339.825 143.202c4.337-.875 7.337-4.081 6.687-7.159-.649-3.079-4.681-4.859-9.018-3.983s-7.337 4.081-6.697 7.159 4.681 4.859 9.028 3.983z"/><path fill="#f63" stroke="#003682" stroke-linejoin="round" stroke-width="3" d="M399.974 140.222v-4.229l-3.649.551a9.6 9.6 0 0 0-5.242-.295c-1.386.269-2.7.829-3.855 1.642l-2.773.413v5.084c0 3.344 4.593 4.859 8.851 3.934s6.629-3.422 6.668-7.1z"/><path fill="#f63" stroke="#f63" stroke-linejoin="round" stroke-width="3" d="M390.995 147.833a8.46 8.46 0 0 1-5.213-1.465 3.75 3.75 0 0 1-1.475-2.95v-5.272l2.951-.432a10.4 10.4 0 0 1 3.933-1.662 10.25 10.25 0 0 1 5.311.285l3.845-.58v4.425c0 3.855-2.429 6.481-6.756 7.356a11.2 11.2 0 0 1-2.596.295zm-6.285-9.333v4.918c0 .499.118.991.345 1.436.239.445.575.832.983 1.131a9.4 9.4 0 0 0 3.521 1.367 9.2 9.2 0 0 0 3.776-.168c4.092-.836 6.354-3.314 6.403-6.884v-3.934l-3.442.512a9.66 9.66 0 0 0-5.124-.276 9.8 9.8 0 0 0-3.777 1.603h-.098z"/><path fill="#fbad41" stroke="#f63" stroke-linejoin="round" stroke-width="3" d="M393.562 142.829c4.337-.876 7.326-4.082 6.687-7.16s-4.681-4.858-9.018-3.934-7.337 4.081-6.698 7.15c.64 3.068 4.662 4.858 9.029 3.944z"/><path fill="#f63" stroke="#003682" stroke-linejoin="round" stroke-width="3" d="M372.909 155.535v-4.229l-3.648.551a9.6 9.6 0 0 0-5.242-.295 10.1 10.1 0 0 0-3.865 1.642l-2.764.413v5.085c0 3.343 4.593 4.858 8.851 3.933s6.59-3.422 6.668-7.1z"/><path fill="#f63" stroke="#f63" stroke-linejoin="round" stroke-width="3" d="M363.891 163.147a8.46 8.46 0 0 1-5.213-1.466 3.74 3.74 0 0 1-1.475-2.95v-5.272l2.95-.432a10.5 10.5 0 0 1 3.934-1.662 10.2 10.2 0 0 1 5.321.285l3.845-.58v4.415c0 3.865-2.429 6.481-6.766 7.366-.851.2-1.722.299-2.596.296zm-6.265-9.334v4.918c.008.499.129.99.354 1.436.239.445.575.832.983 1.131a9.3 9.3 0 0 0 3.521 1.367 9.2 9.2 0 0 0 3.767-.168c4.101-.835 6.363-3.314 6.412-6.933v-3.934l-3.452.512a9.65 9.65 0 0 0-5.124-.276 9.8 9.8 0 0 0-3.766 1.603h-.099z"/><path fill="#fbad41" stroke="#f63" stroke-linejoin="round" stroke-width="3" d="M366.428 158.18c4.347-.876 7.337-4.082 6.697-7.16s-4.681-4.858-9.028-3.934c-4.347.925-7.336 4.081-6.687 7.15s4.681 4.819 9.018 3.944z"/><defs><linearGradient id="paint0_linear_0_1" x1="374" x2="381" y1="255" y2="61.5" gradientUnits="userSpaceOnUse"><stop stop-color="#ffe9cb"/><stop offset="1" stop-color="#fff5c2"/></linearGradient><linearGradient id="paint1_linear_0_1" x1="371.825" x2="368.599" y1="256.417" y2="68.582" gradientUnits="userSpaceOnUse"><stop offset=".007" stop-color="#f63"/><stop offset=".335" stop-color="#f6821f"/><stop offset="1" stop-color="#fbad41"/></linearGradient><linearGradient id="paint2_linear_0_1" x1="409.81" x2="383.798" y1="121.032" y2="207.987" gradientUnits="userSpaceOnUse"><stop offset=".643" stop-color="#f9ab41"/><stop offset="1" stop-color="#f6821f"/></linearGradient><linearGradient id="paint3_linear_0_1" x1="348.699" x2="328.567" y1="162.59" y2="197.454" gradientUnits="userSpaceOnUse"><stop stop-color="#f6821f"/><stop offset="1" stop-color="#f63"/></linearGradient><linearGradient id="paint4_linear_0_1" x1="408.942" x2="382.93" y1="121.067" y2="208.022" gradientUnits="userSpaceOnUse"><stop offset=".643" stop-color="#f9ab41"/><stop offset="1" stop-color="#f6821f"/></linearGradient><linearGradient id="paint5_linear_0_1" x1="347.831" x2="302.632" y1="162.625" y2="189.293" gradientUnits="userSpaceOnUse"><stop stop-color="#f6821f"/><stop offset=".198" stop-color="#f63"/><stop offset=".965" stop-color="#ce2f55"/></linearGradient></defs></svg>