<svg xmlns="http://www.w3.org/2000/svg" width="728" height="253" fill="none" viewBox="0 0 728 253"><path fill="url(#paint0_linear_0_1)" d="M594 228A228 228 0 0 0 453.252 17.356 228 228 0 0 0 138 228z"/><path fill="#ffcd89" fill-rule="evenodd" d="M687.764 229.188c6.406-4.73 15.371-5.275 22.948-.64a23 23 0 0 1 5.85 5.119c-6.406 4.73-15.371 5.275-22.948.64a23 23 0 0 1-5.85-5.119" clip-rule="evenodd"/><mask id="mask0_0_1" width="30" height="13" x="687" y="225" maskUnits="userSpaceOnUse" style="mask-type:luminance"><path fill="#fff" fill-rule="evenodd" d="M687.764 229.188c6.406-4.73 15.371-5.275 22.948-.64a23 23 0 0 1 5.85 5.119c-6.406 4.73-15.371 5.275-22.948.64a23 23 0 0 1-5.85-5.119" clip-rule="evenodd"/></mask><g mask="url(#mask0_0_1)"><path fill="#fbad41" d="m687.764 229.188-1.091-1.592-1.623 1.198 1.322 1.626zm28.798 4.479 1.091 1.592 1.622-1.198-1.321-1.626zm-27.707-2.887c5.826-4.301 14.014-4.816 20.959-.568l1.797-3.329c-8.209-5.021-17.951-4.446-24.938.713zm20.959-.568a21.1 21.1 0 0 1 5.356 4.687l2.784-2.464a25 25 0 0 0-6.343-5.552zm5.657 1.863c-5.826 4.301-14.014 4.816-20.959.568l-1.797 3.329c8.209 5.021 17.951 4.446 24.938-.713zm-20.959.568a21.1 21.1 0 0 1-5.356-4.687l-2.784 2.464a25 25 0 0 0 6.343 5.552z"/></g><path fill="#ffcd89" fill-rule="evenodd" d="M727.058 219.305c-4.731 5.153-11.661 7.091-17.778 4.305a15 15 0 0 1-4.8-3.489c4.731-5.152 11.661-7.09 17.777-4.304a15 15 0 0 1 4.801 3.488" clip-rule="evenodd"/><mask id="mask1_0_1" width="24" height="11" x="704" y="214" maskUnits="userSpaceOnUse" style="mask-type:luminance"><path fill="#fff" fill-rule="evenodd" d="M727.058 219.305c-4.731 5.153-11.661 7.091-17.778 4.305a15 15 0 0 1-4.8-3.489c4.731-5.152 11.661-7.09 17.777-4.304a15 15 0 0 1 4.801 3.488" clip-rule="evenodd"/></mask><g mask="url(#mask1_0_1)"><path fill="#fbad41" d="m727.058 219.305 1.362 1.367 1.207-1.315-1.266-1.365zm-22.578.816-1.362-1.366-1.208 1.314 1.266 1.365zm21.216-2.183c-4.321 4.707-10.47 6.305-15.736 3.907l-1.359 3.53c6.966 3.173 14.677.896 19.819-4.703zm-15.736 3.907a13.1 13.1 0 0 1-4.177-3.037l-2.607 2.626a17 17 0 0 0 5.425 3.941zm-4.119-.357c4.322-4.706 10.47-6.304 15.737-3.906l1.359-3.531c-6.967-3.172-14.678-.895-19.819 4.704zm15.737-3.906a13.1 13.1 0 0 1 4.177 3.036l2.606-2.626a17 17 0 0 0-5.424-3.941z"/></g><path stroke="#fbad41" stroke-linecap="square" stroke-linejoin="round" stroke-width="1.892" d="M714.216 210.58s-4.185 6.35-11.621 11.866c-7.67 5.691-18.446 5.477-23.105 8.167l-.03.017"/><path fill="#ffcd89" fill-rule="evenodd" d="M724.153 192.672c1.443 5.951-.204 11.864-4.672 14.837a10.8 10.8 0 0 1-4.381 1.682c-1.443-5.951.204-11.864 4.672-14.837a10.8 10.8 0 0 1 4.381-1.682" clip-rule="evenodd"/><path fill="#fbad41" d="m724.153 192.672.915-.228-.203-.84-.851.13zm-9.053 16.519-.916.228.204.84.85-.13zm8.137-16.291c1.378 5.683-.233 11.129-4.274 13.817l1.036 1.583c4.894-3.256 6.577-9.637 5.069-15.856zm-4.274 13.817a9.85 9.85 0 0 1-4.001 1.536l.276 1.876a11.7 11.7 0 0 0 4.761-1.829zm-2.947 2.246c-1.378-5.683.232-11.129 4.274-13.817l-1.036-1.583c-4.894 3.256-6.577 9.637-5.07 15.856zm4.274-13.817a9.85 9.85 0 0 1 4.001-1.536l-.277-1.876a11.7 11.7 0 0 0-4.76 1.829z"/><path fill="#fff" stroke="#fbad41" stroke-miterlimit="10" stroke-width="1.892" d="M100.676 226.839v5.527l-67.61-.005v-5.526z"/><path fill="#fff7ec" stroke="#fbad41" stroke-miterlimit="10" stroke-width="1.892" d="M28.921 207.907h75.9v19.973h-75.9z"/><path fill="#fff" d="M32.916 223.885v-11.984h67.91v11.984z"/><path fill="#fbad41" d="M93.258 219.316a1.22 1.22 0 1 1 0-2.439 1.22 1.22 0 0 1 0 2.439m-4.423 0a1.22 1.22 0 1 1 0-2.44 1.22 1.22 0 0 1 0 2.44"/><path fill="#ffcd89" d="M82.548 220.842a2.745 2.745 0 1 1 0-5.49 2.745 2.745 0 0 1 0 5.49"/><path stroke="#fbad41" stroke-miterlimit="10" stroke-width="1.892" d="M44.9 208.621v-28.677m-4.244 35.952h8.24"/><path stroke="#a8cbff" stroke-width="1.892" d="M54.74 180.614a11.22 11.22 0 0 0-7.247-10.136 11.21 11.21 0 0 0-12.138 2.817"/><path stroke="#a8cbff" stroke-width="1.892" d="M62.948 180.033a19.45 19.45 0 0 0-33.624-12.694"/><path stroke="#a8cbff" stroke-width="1.892" d="M70.58 179.754a27.33 27.33 0 0 0-17.668-24.708 27.34 27.34 0 0 0-29.588 6.868"/><path fill="#ffcd89" fill-rule="evenodd" d="M27.75 230.365c3.411-6.846 2.936-15.201-1.87-21.234a17.7 17.7 0 0 0-5.042-4.348c-3.41 6.847-2.936 15.202 1.87 21.235a17.7 17.7 0 0 0 5.042 4.347" clip-rule="evenodd"/><mask id="mask2_0_1" width="12" height="27" x="18" y="204" maskUnits="userSpaceOnUse" style="mask-type:luminance"><path fill="#fff" fill-rule="evenodd" d="M27.75 230.365c3.411-6.846 2.936-15.201-1.87-21.234a17.7 17.7 0 0 0-5.042-4.348c-3.41 6.847-2.936 15.202 1.87 21.235a17.7 17.7 0 0 0 5.042 4.347" clip-rule="evenodd"/></mask><g mask="url(#mask2_0_1)"><path fill="#fbad41" d="m27.75 230.365 1.644.878-.882 1.771-1.667-.958zm-6.912-25.582-1.644-.877.882-1.771 1.667.958zm5.268 24.705c3.099-6.22 2.635-13.732-1.656-19.12l2.86-2.475c5.32 6.679 5.808 15.877 2.084 23.35zm-1.656-19.12a15.9 15.9 0 0 0-4.517-3.894l1.81-3.381a19.6 19.6 0 0 1 5.568 4.8zm-1.968-4.707c-3.099 6.22-2.635 13.732 1.657 19.12l-2.862 2.475c-5.32-6.679-5.806-15.877-2.083-23.35zm1.657 19.12a15.9 15.9 0 0 0 4.516 3.894l-1.81 3.381a19.6 19.6 0 0 1-5.568-4.8z"/></g><path fill="#ffcd89" fill-rule="evenodd" d="M.882 224.518c4.537 4.94 11.18 6.798 17.044 4.127a14.4 14.4 0 0 0 4.603-3.344c-4.536-4.94-11.18-6.798-17.044-4.127a14.4 14.4 0 0 0-4.603 3.344" clip-rule="evenodd"/><mask id="mask3_0_1" width="23" height="11" x="0" y="219" maskUnits="userSpaceOnUse" style="mask-type:luminance"><path fill="#fff" fill-rule="evenodd" d="M.882 224.518c4.537 4.94 11.18 6.798 17.044 4.127a14.4 14.4 0 0 0 4.603-3.344c-4.536-4.94-11.18-6.798-17.044-4.127a14.4 14.4 0 0 0-4.603 3.344" clip-rule="evenodd"/></mask><g mask="url(#mask3_0_1)"><path fill="#fbad41" d="m.882 224.518-1.361 1.367-1.208-1.315 1.266-1.365zm21.647.783 1.361-1.367 1.208 1.315-1.266 1.365zm-20.285-2.15c4.126 4.494 9.989 6.012 15.003 3.729l1.358 3.531c-6.713 3.057-14.138.86-19.084-4.526zm15.003 3.729a12.5 12.5 0 0 0 3.978-2.892l2.607 2.626a16.4 16.4 0 0 1-5.227 3.797zm3.92-.212c-4.126-4.494-9.989-6.012-15.003-3.729l-1.358-3.531c6.713-3.057 14.138-.86 19.084 4.526zm-15.003-3.729a12.5 12.5 0 0 0-3.978 2.892l-2.607-2.626a16.4 16.4 0 0 1 5.227-3.797z"/></g><path stroke="#fbad41" stroke-linecap="square" stroke-linejoin="round" stroke-width="1.892" d="M39.516 232.351c-2.475 0-7.827.635-15.18-4.821-7.13-5.289-11.142-11.376-11.142-11.376"/><path fill="#ffcd89" fill-rule="evenodd" d="M4.299 199.615c-1.384 5.706.195 11.375 4.479 14.224a10.3 10.3 0 0 0 4.2 1.613c1.383-5.705-.196-11.374-4.48-14.224a10.4 10.4 0 0 0-4.2-1.613" clip-rule="evenodd"/><path fill="#fbad41" d="m4.299 199.615-.916-.227.204-.84.85.129zm8.679 15.837.915.228-.203.84-.85-.13zm-7.764-15.609c-1.318 5.438.225 10.639 4.082 13.205l-1.036 1.583c-4.71-3.134-6.325-9.271-4.877-15.243zm4.082 13.205a9.4 9.4 0 0 0 3.82 1.466l-.277 1.876a11.3 11.3 0 0 1-4.58-1.759zm2.766 2.177c1.318-5.438-.224-10.64-4.081-13.206l1.036-1.582c4.71 3.133 6.324 9.27 4.876 15.243zM7.98 202.019a9.4 9.4 0 0 0-3.82-1.465l.276-1.877a11.3 11.3 0 0 1 4.58 1.76z"/><path fill="#f63" fill-rule="evenodd" d="M486.659 80.865v141.036h29.901a1.87 1.87 0 0 1 1.98 1.731v6.138c-.006 2.649-9.232 4.428-22.957 4.428H239.501c-10.601 0-21.323-1.383-22.786-4.034a1.3 1.3 0 0 1-.17-.629v-5.903a1.87 1.87 0 0 1 1.98-1.731h29.607V80.865a11.507 11.507 0 0 1 11.536-11.444h215.454a11.505 11.505 0 0 1 11.537 11.444m30.532 148.862-.005-6.095-.001-.004v-.007c-.007-.176-.275-.37-.625-.37l-298.036.004c-.358 0-.625.199-.625.377v5.903a.3.3 0 0 0 .055.122c.687 1.005 7.421 3.185 21.545 3.185h256.084c15.6 0 21.297-2.282 21.608-3.115m-.006-6.106c-.011-.175-.275-.366-.625-.366H218.524c-.357 0-.623.199-.623.377v5.905a.3.3 0 0 0 .053.12" clip-rule="evenodd"/><mask id="mask4_0_1" width="311" height="174" x="212" y="65" maskUnits="userSpaceOnUse" style="mask-type:luminance"><path fill="#fff" d="M522.545 65.421h-310v173h310z"/><path fill="#000" fill-rule="evenodd" d="M486.659 80.865v141.036h29.901a1.87 1.87 0 0 1 1.98 1.731v6.138c-.006 2.649-9.232 4.428-22.957 4.428H239.501c-10.601 0-21.323-1.383-22.786-4.034a1.3 1.3 0 0 1-.17-.629v-5.903a1.87 1.87 0 0 1 1.98-1.731h29.607V80.865a11.507 11.507 0 0 1 11.536-11.444h215.454a11.505 11.505 0 0 1 11.537 11.444m30.532 148.862-.005-6.095-.001-.004v-.007c-.007-.176-.275-.37-.625-.37l-298.036.004c-.358 0-.625.199-.625.377v5.903a.3.3 0 0 0 .055.122c.687 1.005 7.421 3.185 21.545 3.185h256.084c15.6 0 21.297-2.282 21.608-3.115m-.006-6.106c-.011-.175-.275-.366-.625-.366H218.524c-.357 0-.623.199-.623.377v5.905a.3.3 0 0 0 .053.12" clip-rule="evenodd"/></mask><g mask="url(#mask4_0_1)"><path fill="#fff" d="m217.993 231.548 299.23-6.036-.076-3.782-299.231 6.036zm268.666-9.647h-3.783v3.783h3.783zm0-141.036h3.783v-.021zm29.901 141.036v3.783h.116l.116-.007zm1.98 1.731h3.783v-.137l-.01-.136zm0 6.138 3.783.008v-.008zm-301.825.394 3.313-1.827-.003-.006zm-.17-6.532-3.773-.271-.01.136v.135zm1.848-1.735.033 3.784.003-.001zm.132.004-.232 3.776.116.007h.116zm29.607 0v3.783h3.783v-3.783zm0-141.036-3.784-.021v.021zm11.536-11.444-.01 3.784h.01zm215.454 0v3.784h.011zm42.064 154.211 3.783-.003v-.095l-.005-.094zm.005 6.095 3.545 1.322.239-.641-.001-.684zm-.006-6.099h-3.783v.096l.005.096zm0-.007 3.781-.146-.001-.005zm-299.286 5.914h-3.783v.363l.069.357zm.055.122-3.123 2.134v.001zm-.053-.12h-3.783v.361l.068.354zm272.541-7.636V80.865h-7.566v141.036zm-3.783 3.783h29.901v-7.566h-29.901zm30.133-.007a1.92 1.92 0 0 1-1.377-.469l4.981-5.696a5.65 5.65 0 0 0-4.068-1.387zm-1.377-.47a1.9 1.9 0 0 1-.649-1.301l7.547-.547a5.66 5.66 0 0 0-1.917-3.847zm-.659-1.575v6.138h7.567v-6.138zm0 6.129c.004-1.721 1.402-2.05.434-1.567-.628.314-1.82.706-3.701 1.069-3.694.712-9.167 1.152-15.906 1.152v7.566c6.985 0 12.988-.45 17.339-1.289 2.143-.413 4.116-.963 5.648-1.728 1.193-.596 3.746-2.14 3.753-5.186zm-19.173.654H239.501v7.566h256.082zm-256.082 0c-5.166 0-10.284-.339-14.216-.974-1.98-.321-3.527-.695-4.586-1.082-.529-.193-.833-.352-.975-.443-.173-.111.067-.008.304.421l-6.625 3.655c.602 1.091 1.497 1.818 2.232 2.29.766.492 1.623.876 2.47 1.185 1.693.618 3.764 1.086 5.973 1.443 4.444.718 9.987 1.071 15.423 1.071zm-26.739-.88c0 .924.254 1.759.644 2.462l6.619-3.666c.166.299.304.715.304 1.204zm0-5.903v5.903h7.567v-5.903zm1.925-4.119a5.65 5.65 0 0 0-1.915 3.848l7.547.542a1.9 1.9 0 0 1-.649 1.304zm2.964-1.348a5.65 5.65 0 0 0-2.964 1.348l4.983 5.694a1.9 1.9 0 0 1-1.004.456zm.708-.051q-.357.004-.708.051l1.015 7.498a2 2 0 0 1-.24.018zm.07 7.566q-.058.001-.136-.003l.464-7.552a6 6 0 0 0-.401-.011zm.096.004h29.607v-7.566h-29.607zm25.823-144.819v141.036h7.567V80.865zm4.522-10.793a15.3 15.3 0 0 0-4.522 10.772l7.567.041a7.72 7.72 0 0 1 2.284-5.441zm10.809-4.434a15.3 15.3 0 0 0-10.809 4.434l5.329 5.372a7.72 7.72 0 0 1 5.459-2.239zm215.443 0H259.668v7.567h215.454zm10.799 4.434a15.3 15.3 0 0 0-10.809-4.434l.021 7.567a7.72 7.72 0 0 1 5.459 2.239zm4.521 10.772a15.3 15.3 0 0 0-4.521-10.772l-5.329 5.372a7.72 7.72 0 0 1 2.284 5.441zm22.96 142.791.006 6.095 7.566-.006-.005-6.095zm.005.185v.005l7.557-.385v-.004zm-.002-.053c-.001-.028-.003-.077-.003-.139h7.567c0-.067-.002-.121-.003-.153zm3.155 3.267a2.96 2.96 0 0 1-1.578-.464 3.3 3.3 0 0 1-.895-.838 3.55 3.55 0 0 1-.682-1.96l7.56-.302c-.075-1.895-1.368-2.936-1.945-3.3a4.6 4.6 0 0 0-2.46-.702zm-298.036.004 298.036-.004v-7.566l-298.036.004zm3.159-3.406a3.47 3.47 0 0 1-1.551 2.922 2.96 2.96 0 0 1-1.608.484v-7.566c-.857 0-1.736.233-2.501.728-.593.383-1.907 1.482-1.907 3.432zm0 5.903v-5.903h-7.567v5.903zm-.605-2.012c.175.255.419.691.536 1.293l-7.429 1.439c.132.678.412 1.195.646 1.536zm18.421 1.535c-6.88 0-11.852-.531-15.106-1.149-1.635-.31-2.773-.63-3.473-.885a4.5 4.5 0 0 1-.57-.24c-.163-.092.301.114.728.738l-6.247 4.27c.598.875 1.423 1.369 1.815 1.589.513.288 1.089.536 1.683.752 1.197.436 2.754.85 4.654 1.21 3.815.724 9.272 1.282 16.516 1.282zm256.084 0H239.499v7.567h256.084zm18.063-.653a3.3 3.3 0 0 1 .75-1.183c.17-.171.304-.26.337-.282.066-.043.004.006-.27.116-.532.214-1.514.521-3.076.829-3.104.614-8.17 1.173-15.804 1.173v7.567c7.966 0 13.548-.581 17.271-1.317 1.851-.366 3.326-.786 4.437-1.234a9 9 0 0 0 1.602-.814c.298-.196 1.35-.889 1.843-2.211zm2.914-1.367a2.95 2.95 0 0 1-1.567-.459 3.45 3.45 0 0 1-1.584-2.722l7.552-.472c-.115-1.838-1.365-2.851-1.954-3.22a4.6 4.6 0 0 0-2.447-.693zm-298.036 0H516.56v-7.566H218.524zm3.16-3.406a3.46 3.46 0 0 1-1.552 2.922 2.96 2.96 0 0 1-1.608.484v-7.566c-.857 0-1.735.234-2.499.728-.593.383-1.907 1.482-1.907 3.432zm0 5.905v-5.905h-7.566v5.905zm-.595-1.998c.174.258.413.69.527 1.284l-7.43 1.429a4.1 4.1 0 0 0 .633 1.523z"/></g><path fill="#fff7ec" stroke="#f6821f" stroke-width="1.892" d="M130.997 223.036h102.305V208.58H130.997z"/><path fill="#fff7ec" stroke="#fbad41" stroke-width="1.892" d="M140.407 208.58h90.674v-5.657h-90.674z"/><path fill="#ffcd89" stroke="#f6821f" stroke-width="1.892" d="M134.178 231.836h88.525v-8.8h-88.525z"/><path fill="#fff" d="M201.507 215.496c0 2.114-1.425 3.769-3.075 3.769H158.45c-1.725 0-3.076-1.747-3.076-3.769 0-2.115 1.426-3.77 3.076-3.77h39.982c1.65-.092 3.075 1.655 3.075 3.77"/><path fill="#ffe9cb" stroke="#f6821f" stroke-width="1.892" d="M146.018 208.58h-5.611v14.456h5.611z"/><path fill="#ffe9cb" stroke="#f63" stroke-width="1.892" d="M172.83 202.923h-5.611v5.657h5.611zm49.874 0h-5.611v5.657h5.611z"/><path fill="url(#paint1_linear_0_1)" fill-rule="evenodd" d="M474.009 70.096H258.552a10.893 10.893 0 0 0-10.859 10.766v141.716h237.173V80.865a10.88 10.88 0 0 0-10.857-10.769" clip-rule="evenodd"/><path fill="#fff" d="M474.832 87.037h-217.66v126.845h217.66z"/><path fill="url(#paint2_linear_0_1)" fill-rule="evenodd" d="M495.125 233.509H239.039c-13.312 0-22.277-2.041-22.277-3.984v-5.905a1.2 1.2 0 0 1 1.301-1.054H516.1a1.193 1.193 0 0 1 1.302 1.054v6.138c0 1.538-6.946 3.751-22.277 3.751" clip-rule="evenodd"/><path fill="#fff" fill-rule="evenodd" d="M516.508 229.758c0 1.535-6.946 3.751-22.277 3.751H238.145c-13.312 0-22.277-2.041-22.277-3.984z" clip-rule="evenodd"/><path fill="#f63" fill-rule="evenodd" d="M398.844 223v1.342c0 .956-1.882 1.244-3.307 1.244h-58.456c-1.498 0-3.394-.288-3.394-1.244V223" clip-rule="evenodd"/><path fill="#f63" stroke="#f63" stroke-width=".631" d="M495.169 234.198H239.087c-11.407 0-22.954-1.601-22.954-4.661v-5.905a1.87 1.87 0 0 1 1.979-1.731h298.034a1.87 1.87 0 0 1 1.98 1.731v6.138c-.006 2.649-9.232 4.428-22.957 4.428zM218.11 223.255c-.357 0-.624.199-.624.377v5.903c.181.937 6.874 3.307 21.6 3.307h256.083c15.6 0 21.298-2.282 21.608-3.115l-.005-6.099c0-.178-.271-.377-.626-.377z"/><path fill="#f63" stroke="#f63" stroke-width=".631" d="M516.146 221.901h-29.901V80.865a11.507 11.507 0 0 0-11.536-11.444H259.255a11.505 11.505 0 0 0-11.537 11.444v141.036H218.11a1.87 1.87 0 0 0-1.978 1.731v5.903c0 3.06 11.548 4.661 22.954 4.661h256.083c13.725 0 22.951-1.779 22.954-4.428v-6.138a1.87 1.87 0 0 0-1.977-1.729zM249.072 80.865a10.273 10.273 0 0 1 10.183-10.089h215.458a10.147 10.147 0 0 1 10.183 10.089v141.036H249.072zm246.097 151.979H239.087c-14.727 0-21.42-2.37-21.6-3.307v-5.905c0-.178.267-.377.625-.377h298.034c.358 0 .626.199.626.377l.005 6.1c-.31.831-6.008 3.112-21.608 3.112z"/><path fill="#fff" d="M445.173 207.869c11.441 0 20.716-9.275 20.716-20.716s-9.275-20.715-20.716-20.715-20.715 9.274-20.715 20.715 9.274 20.716 20.715 20.716"/><path fill="#f63" fill-rule="evenodd" d="M555.719 116.106c25.735 6.896 41.013 33.153 34.173 58.679-6.833 25.499-33.221 40.592-58.926 33.704a50 50 0 0 1-4.848-1.569l3.197-4.249 1.39.463.646-2.41c-.592-.279-.97-.56-.903-.813a84 84 0 0 0 5.254 1.408c-.067.252-.536.307-1.187.253l-.646 2.409c22.485 5.124 45.146-8.264 51.108-30.513 5.968-22.276-6.963-45.201-29.005-51.978l-.645 2.409c.591.279.97.561.902.813a57 57 0 0 0-5.254-1.408c.068-.252.537-.307 1.188-.252l.646-2.41c-1.194-.29-2.382-.488-3.578-.658l-.631-5.215c2.357.241 4.747.701 7.119 1.337" clip-rule="evenodd"/><path fill="#f63" fill-rule="evenodd" d="M556.288 225.426c3.238.653 13.732 1.164 14.542 6.559h-54.525c.81-5.395 11.304-5.935 14.542-6.559 5.493-5.282 8.702-10.535 9.627-15.788 1.012.057 2.053.114 3.093.114s2.082-.028 3.094-.114c.925 5.253 4.134 10.506 9.627 15.788" clip-rule="evenodd"/><path fill="#fff" d="m505.844 152.362 17.597 4.715c1.81-6.755 4.461-13.093 7.715-18.127l-15.109-4.048c-4.853 4.605-8.345 10.527-10.203 17.46"/><path fill="#fff" d="m523.44 157.077-17.596-4.715c-1.81 6.754-1.795 13.807-.072 20.174l15.108 4.049c.074-1.695.017-3.616.09-5.311.479-4.634 1.137-9.22 2.47-14.197m-7.392-22.175 15.108 4.048c6.556-10.246 15.002-16.174 22.468-14.174-13.865-3.715-27.952.512-37.576 10.126"/><path fill="#fff" d="m521.106 176.454-15.108-4.048c3.576 12.96 13.615 23.842 27.657 27.604-7.513-1.822-12.09-11.05-12.549-23.556"/><path fill="#eff6ff" d="m523.441 157.077 20.263 5.429 5.049-18.841-17.419-4.667c-3.254 5.034-6.035 11.147-7.893 18.079"/><path fill="#eff6ff" d="m543.704 162.506-20.263-5.43c-1.286 4.799-2.216 9.694-2.471 14.198-.121 1.873-.064 3.793-.089 5.31l17.597 4.715 5.048-18.841z"/><path fill="#eff6ff" d="m538.703 181.169-17.419-4.667c.554 12.15 4.905 21.508 12.371 23.508z"/><path fill="#eff6ff" stroke="#f63" stroke-width="2.009" d="M553.801 124.824c-7.466-2-15.912 3.928-22.468 14.174l17.419 4.667z"/><path fill="#e0edff" d="m538.703 181.17-5.048 18.841c7.465 2 15.912-3.929 22.467-14.174z"/><path fill="#e0edff" d="m543.704 162.507-5.049 18.841 17.419 4.667c3.254-5.034 5.905-11.372 7.715-18.127z"/><path fill="#e0edff" d="m548.753 143.665-5.049 18.841 20.263 5.43c1.81-6.755 2.683-13.569 2.382-19.556zm5.048-18.841-5.048 18.841 17.419 4.667c-.507-12.328-4.906-21.508-12.371-23.508"/><path fill="#bdd0ff" d="M553.801 124.824c7.465 2 11.816 11.358 12.371 23.508l15.108 4.049c-3.351-13.091-13.615-23.842-27.479-27.557m2.321 61.013c-6.555 10.245-15.002 16.174-22.467 14.173 14.042 3.763 28.176-.642 37.753-10.077zm0-.001 15.109 4.049c4.853-4.606 8.215-10.753 10.025-17.508l-17.597-4.715c-1.727 7.158-4.33 13.318-7.537 18.174"/><path fill="#bdd0ff" d="m581.28 152.381-15.109-4.048c.301 5.986-.572 12.801-2.382 19.555l17.597 4.715c1.857-6.932 1.795-13.807-.106-20.222"/><path stroke="#f63" stroke-miterlimit="10" stroke-width="2.009" d="M505.844 152.362c-1.81 6.754-1.794 13.807-.071 20.174 3.576 12.96 13.614 23.842 27.656 27.605 14.042 3.762 28.177-.642 37.754-10.078 4.854-4.605 8.215-10.753 10.025-17.508s1.795-13.807.072-20.174c-3.576-12.96-13.615-23.842-27.657-27.605-14.042-3.762-28.176.642-37.754 10.078-4.675 4.653-8.167 10.576-10.025 17.508z"/><path stroke="#f63" stroke-miterlimit="10" stroke-width="2.009" d="M521.148 171.321c-.121 1.873-.064 3.793-.089 5.311.554 12.15 4.905 21.508 12.37 23.508 7.466 2 15.912-3.928 22.468-14.173 3.254-5.034 5.905-11.373 7.714-18.127s2.684-13.569 2.383-19.556c-.555-12.15-4.906-21.508-12.371-23.508s-15.912 3.928-22.467 14.174c-3.254 5.033-5.905 11.372-7.715 18.126-1.334 4.977-1.991 9.564-2.293 14.245z"/><path stroke="#f63" stroke-miterlimit="10" stroke-width="2.009" d="m581.386 172.603-17.597-4.716-20.085-5.381-20.263-5.43-17.597-4.715"/><path stroke="#f63" stroke-miterlimit="10" stroke-width="2.009" d="m553.801 124.824-5.049 18.841-5.048 18.841-5.001 18.663-5.048 18.841"/><path stroke="#f63" stroke-miterlimit="10" stroke-width="2.009" d="m581.28 152.381-15.108-4.048-17.419-4.668-17.597-4.715-15.108-4.048m55.183 54.983-15.109-4.048-17.419-4.668-17.596-4.715-15.109-4.048"/><path fill="#ffe9cb" stroke="#f6821f" stroke-width="1.892" d="M621.896 144.409v87.066h13.53v-87.066z"/><path fill="#ffcd89" stroke="#f6821f" stroke-width="1.892" d="M608.365 150.292v81.183h13.531v-81.183z"/><path fill="#ffe9cb" stroke="#f6821f" stroke-width="1.892" d="M591.305 133.82v97.655h17.06V133.82z"/><path fill="#ffcd89" stroke="#fbad41" stroke-width="1.892" d="M635.426 172.646v58.829h10.589v-58.829z"/><path fill="#fff" stroke="#f6821f" stroke-width="1.892" d="M608.365 153.233h-17.06v12.184h17.06zm0 46.475h-17.06v12.353h17.06z"/><path fill="#fff" d="M628.953 219.121c-1.979 0-3.528-1.927-3.528-4.157V160.92c0-2.332 1.635-4.157 3.528-4.157 1.98 0 3.529 1.926 3.529 4.157v54.044c.086 2.23-1.549 4.157-3.529 4.157"/><path fill="#ffe9cb" stroke="#fbad41" stroke-width="1.892" d="M616.155 219.709h-2.637c-1.191 0-2.211-1.211-2.211-2.624v-18.872c0-1.412 1.02-2.624 2.211-2.624h2.637c1.19 0 2.211 1.212 2.211 2.624v18.872c0 1.514-1.021 2.624-2.211 2.624z"/><path fill="#fff" stroke="#f63" stroke-width="1.892" d="M227.854 152.371v.003c.062 1.746-.514 3.831-1.491 6.037-.969 2.19-2.296 4.419-3.646 6.427a73 73 0 0 1-4.963 6.525l-.185.216h-27.276l-.185-.216a73 73 0 0 1-4.963-6.525c-1.35-2.008-2.677-4.237-3.646-6.427-.977-2.206-1.553-4.291-1.491-6.037.076-2.111.99-7.324 2.353-14.066 1.356-6.702 3.135-14.816 4.905-22.659a2533 2533 0 0 1 6.438-27.746l.428-1.797h19.598l.43 1.798c.384 1.612.934 3.925 1.594 6.729a2414 2414 0 0 1 4.857 21.016c1.773 7.844 3.553 15.957 4.906 22.659 1.362 6.743 2.271 11.954 2.337 14.063z"/><path fill="#fbad41" d="M204.861 162.05c.079 2.905-.396 5.512-1.821 7.076-.514.559-1.147.968-1.938 1.266a5.4 5.4 0 0 1-1.702.261c-13.294-.224 5.737-5.363-7.478-15.566-4.59-3.501-17.093-10.539-3.719-23.499 5.262-5.102 15.668-4.282 17.291.224 2.374 6.666-.673 10.725-1.623 14.598-2.057 8.453.99 14.188.99 15.64"/><path fill="#f63" d="M195.443 116.543a4 4 0 0 1-.633-.745c-5.223-8.044-4.788-19.551 6.41-27.707.791-.67 3.877-1.191 5.499-.447.08.038.119.075.198.075 14.205 5.213 1.464 18.322-5.183 27.706-1.543 2.198-4.471 2.756-6.291 1.155.039 0 0-.037 0-.037"/><path fill="#fbad41" d="M220.846 142.349c.158.187.316.373.475.596 3.917 6.405 3.6 14.822-4.788 19.812-.594.41-2.888.521-4.115-.149a.3.3 0 0 0-.158-.075c-10.604-5.139-1.108-13.629 3.838-19.923 1.147-1.452 3.363-1.601 4.669-.298.039 0 .079 0 .079.037"/><path fill="#fd8639" d="M213.328 110.659c3.521.633 4.787 4.841 4.827 4.915.712 5.102-.712 6.033-7.122 12.178-4.392 4.208-5.46 8.9-8.428 10.8-3.838 2.495-10.208 2.308-7.795-3.129.91-2.271 10.96-7.299 11.673-9.57.791-2.607-4.59-3.575-2.651-10.502.514-1.936 3.956-5.698 9.496-4.692m5.025 29.42c-1.346.112-3.72-1.601-3.799-1.676-1.939-1.638-1.345-4.133 1.306-5.4.791-.335 2.374-.744 2.928-.409 1.939 1.043.989 2.867 1.82 4.32.158.26.752 2.942-2.255 3.165"/><path fill="#e0edff" stroke="#f63" stroke-width="1.892" d="M211.971 84.643h1.394l1.806 7.618H192.69l1.806-7.618zm13.962 117.686h-43.817l2.841-7.547.003-.007.002-.008 7.523-21.078.15-.419-.227-.382-4.613-7.769h32.459l-4.613 7.769-.227.382.149.419 7.523 21.078.003.008.003.007z"/><path fill="#bdd0ff" stroke="#f63" stroke-width="1.892" d="m222.579 164.895-6.247 8.759h-24.59l-6.578-8.759z"/><path fill="#fff" d="M217 201h-16l1.037-7.302.002-.006v-.008l2.747-20.393.055-.405-.083-.37-1.684-7.516h11.852l-1.684 7.516-.083.37.054.405 2.747 20.393.002.008.001.006z"/><path stroke="#f63" stroke-width="1.892" d="m222.579 164.895-6.247 8.759h-24.59l-6.578-8.759z"/><path fill="#ffe9cb" fill-rule="evenodd" d="M673.758 231.416h13.992l-.79-3.543c7.982-4.6 13.355-13.219 13.355-23.094 0-11.398-7.158-21.123-17.225-24.926l.691-7.742h-20.627l.813 7.857c-9.908 3.882-16.925 13.527-16.925 24.811 0 9.874 5.373 18.494 13.354 23.094l-.79 3.543z" clip-rule="evenodd"/><path fill="#fbad41" d="M687.75 231.416v.945h1.18l-.257-1.151zm-13.992 0v-.946h-.003zm13.202-3.543-.472-.819-.602.347.151.678zm-3.87-48.02-.942-.084-.063.715.671.254zm.691-7.742.942.084.092-1.029h-1.034zm-20.627 0v-.945h-1.049l.108 1.043zm.813 7.857.345.881.67-.262-.074-.716zm-3.571 47.905.923.206.152-.678-.602-.347zm-.79 3.543-.923-.206-.257 1.151h1.18zm13.994 0 .002-.946h-.002zm14.15-.946h-13.992v1.891h13.992zm-1.713-2.391.79 3.543 1.846-.412-.79-3.542zm13.333-23.3c0 9.523-5.181 17.837-12.882 22.275l.944 1.639c8.263-4.762 13.829-13.688 13.829-23.914zm-16.614-24.041c9.711 3.668 16.614 13.05 16.614 24.041h1.891c0-11.804-7.414-21.874-17.836-25.811zm.083-8.711-.691 7.742 1.884.168.691-7.742zm-19.685 1.03h20.627v-1.891h-20.627zm1.754 6.814-.813-7.857-1.882.195.813 7.857zm-16.92 24.908c0-10.882 6.766-20.186 16.324-23.93l-.69-1.761c-10.259 4.018-17.526 14.005-17.526 25.691zm12.881 22.275c-7.701-4.439-12.881-12.753-12.881-22.275h-1.892c0 10.226 5.565 19.151 13.828 23.913zm-.34 4.568.79-3.543-1.846-.412-.79 3.543zm13.071-1.152h-13.994v1.891H673.6zm.079 0h-.077l-.005 1.891.082.001zm.076 0h-.076v1.892l.081-.001z"/><path stroke="#fbad41" stroke-width="1.892" d="M680.213 231.164v-82.243c0-4.363 1.822-8.527 5.026-11.488m-18.596 93.983v-73.902a45.9 45.9 0 0 0-6.534-23.599"/><path stroke="#fbad41" stroke-width="1.892" d="M675.689 230.913v-92.445a70.45 70.45 0 0 0-20.605-49.785"/><path stroke="#fbad41" stroke-width="1.892" d="M671.166 231.165v-88.177a70.44 70.44 0 0 1 20.606-49.781"/><path fill="#fbad41" fill-rule="evenodd" d="M690.896 85.96c1.367 4.224.233 9.046-3.283 12.206a11.6 11.6 0 0 1-3.487 2.163 11.6 11.6 0 0 1 3.282-12.206 11.6 11.6 0 0 1 3.488-2.163" clip-rule="evenodd"/><mask id="mask5_0_1" width="9" height="16" x="683" y="85" maskUnits="userSpaceOnUse" style="mask-type:luminance"><path fill="#fff" fill-rule="evenodd" d="M690.896 85.96c1.367 4.224.233 9.046-3.283 12.206a11.6 11.6 0 0 1-3.487 2.163 11.6 11.6 0 0 1 3.282-12.206 11.6 11.6 0 0 1 3.488-2.163" clip-rule="evenodd"/></mask><g mask="url(#mask5_0_1)"><path fill="#f63" d="m690.896 85.96 1.799-.583-.62-1.917-1.875.741zm-6.77 14.369-1.8.582.621 1.918 1.874-.741zm4.97-13.787a9.71 9.71 0 0 1-2.747 10.217l2.529 2.814c4.091-3.678 5.406-9.286 3.817-14.196zm-2.747 10.217a9.7 9.7 0 0 1-2.919 1.811l1.391 3.518a13.5 13.5 0 0 0 4.057-2.515zm-.424 2.987a9.71 9.71 0 0 1 2.748-10.216l-2.53-2.814c-4.09 3.677-5.406 9.286-3.817 14.195zm2.748-10.216a9.7 9.7 0 0 1 2.918-1.811l-1.391-3.518a13.5 13.5 0 0 0-4.057 2.515z"/></g><path fill="#fbad41" fill-rule="evenodd" d="M684.277 100.401a11.6 11.6 0 0 1 10.673-6.771c1.42.015 2.779.285 4.032.766a11.606 11.606 0 0 1-14.705 6.005" clip-rule="evenodd"/><mask id="mask6_0_1" width="15" height="9" x="684" y="93" maskUnits="userSpaceOnUse" style="mask-type:luminance"><path fill="#fff" fill-rule="evenodd" d="M684.277 100.401a11.6 11.6 0 0 1 10.673-6.771c1.42.015 2.779.285 4.032.766a11.606 11.606 0 0 1-14.705 6.005" clip-rule="evenodd"/></mask><g mask="url(#mask6_0_1)"><path fill="#f63" d="m684.277 100.401-1.72-.788-.84 1.832 1.882.722zm14.705-6.005 1.719.788.84-1.833-1.882-.721zm-12.986 6.793a9.71 9.71 0 0 1 8.934-5.667l.04-3.783c-5.501-.059-10.263 3.183-12.413 7.874zm8.934-5.667a9.7 9.7 0 0 1 3.374.64l1.355-3.532a13.4 13.4 0 0 0-4.689-.891zm2.332-1.915a9.71 9.71 0 0 1-8.933 5.668l-.04 3.783c5.5.058 10.262-3.183 12.412-7.874zm-8.933 5.668a9.7 9.7 0 0 1-3.375-.64l-1.355 3.532c1.46.56 3.041.874 4.69.891z"/></g><path fill="#fbad41" fill-rule="evenodd" d="M695.697 89.094c-.228 4.435-3.005 8.536-7.416 10.236a11.6 11.6 0 0 1-4.031.778 11.6 11.6 0 0 1 7.417-10.235 11.6 11.6 0 0 1 4.03-.779" clip-rule="evenodd"/><mask id="mask7_0_1" width="12" height="12" x="684" y="89" maskUnits="userSpaceOnUse" style="mask-type:luminance"><path fill="#fff" fill-rule="evenodd" d="M695.697 89.094c-.228 4.435-3.005 8.536-7.416 10.236a11.6 11.6 0 0 1-4.031.778 11.6 11.6 0 0 1 7.417-10.235 11.6 11.6 0 0 1 4.03-.779" clip-rule="evenodd"/></mask><g mask="url(#mask7_0_1)"><path fill="#f63" d="m695.697 89.094 1.889.098.104-2.013-2.016.024zm-11.447 11.014-1.889-.097-.103 2.013 2.015-.024zm9.558-11.111a9.71 9.71 0 0 1-6.208 8.568l1.361 3.53c5.133-1.978 8.361-6.75 8.625-11.903zm-6.208 8.568a9.7 9.7 0 0 1-3.372.652l.045 3.783a13.5 13.5 0 0 0 4.688-.905zm-1.461 2.64a9.71 9.71 0 0 1 6.208-8.567l-1.36-3.53c-5.133 1.978-8.361 6.75-8.626 11.903zm6.208-8.567a9.7 9.7 0 0 1 3.373-.652l-.046-3.783a13.5 13.5 0 0 0-4.687.905z"/></g><path fill="#fbad41" fill-rule="evenodd" d="M680.069 144.291a11.6 11.6 0 0 1 .734-12.618 11.6 11.6 0 0 1 2.975-2.827c2.197 3.859 2.067 8.81-.733 12.618a11.6 11.6 0 0 1-2.976 2.827" clip-rule="evenodd"/><mask id="mask8_0_1" width="8" height="17" x="678" y="128" maskUnits="userSpaceOnUse" style="mask-type:luminance"><path fill="#fff" fill-rule="evenodd" d="M680.069 144.291a11.6 11.6 0 0 1 .734-12.618 11.6 11.6 0 0 1 2.975-2.827c2.197 3.859 2.067 8.81-.733 12.618a11.6 11.6 0 0 1-2.976 2.827" clip-rule="evenodd"/></mask><g mask="url(#mask8_0_1)"><path fill="#f63" d="m680.069 144.291-1.644.936.998 1.752 1.685-1.107zm3.709-15.445 1.644-.936-.998-1.752-1.684 1.107zm-2.065 14.509a9.71 9.71 0 0 1 .614-10.562l-3.049-2.24c-3.258 4.431-3.406 10.19-.853 14.674zm.614-10.562a9.7 9.7 0 0 1 2.489-2.366l-2.076-3.162a13.5 13.5 0 0 0-3.462 3.288zm-.193-3.011a9.71 9.71 0 0 1-.613 10.562l3.048 2.241c3.258-4.432 3.406-10.191.853-14.675zm-.613 10.562a9.7 9.7 0 0 1-2.49 2.366l2.077 3.162a13.5 13.5 0 0 0 3.461-3.287z"/></g><path fill="#fbad41" fill-rule="evenodd" d="M693.409 135.462c-.991 4.329-4.436 7.888-9.074 8.8a11.6 11.6 0 0 1-4.103.07c.991-4.329 4.436-7.888 9.074-8.8a11.6 11.6 0 0 1 4.103-.07" clip-rule="evenodd"/><mask id="mask9_0_1" width="14" height="10" x="680" y="135" maskUnits="userSpaceOnUse" style="mask-type:luminance"><path fill="#fff" fill-rule="evenodd" d="M693.409 135.462c-.991 4.329-4.436 7.888-9.074 8.8a11.6 11.6 0 0 1-4.103.07c.991-4.329 4.436-7.888 9.074-8.8a11.6 11.6 0 0 1 4.103-.07" clip-rule="evenodd"/></mask><g mask="url(#mask9_0_1)"><path fill="#f63" d="m693.409 135.462 1.844.423.45-1.965-1.989-.324zm-13.177 8.87-1.844-.422-.45 1.964 1.989.325zm11.333-9.292a9.71 9.71 0 0 1-7.595 7.366l.729 3.712c5.398-1.061 9.402-5.203 10.554-10.233zm-7.595 7.366a9.7 9.7 0 0 1-3.434.059l-.609 3.734a13.5 13.5 0 0 0 4.772-.081zm-1.894 2.348a9.71 9.71 0 0 1 7.595-7.365l-.73-3.713c-5.397 1.061-9.402 5.203-10.553 10.234zm7.595-7.365a9.7 9.7 0 0 1 3.434-.06l.609-3.733a13.5 13.5 0 0 0-4.773.08z"/></g><path fill="#fbad41" fill-rule="evenodd" d="M689.116 130.94a11.6 11.6 0 0 1-5.181 11.529 11.6 11.6 0 0 1-3.787 1.581 11.6 11.6 0 0 1 5.181-11.53 11.6 11.6 0 0 1 3.787-1.58" clip-rule="evenodd"/><mask id="mask10_0_1" width="10" height="15" x="680" y="130" maskUnits="userSpaceOnUse" style="mask-type:luminance"><path fill="#fff" fill-rule="evenodd" d="M689.116 130.94a11.6 11.6 0 0 1-5.181 11.529 11.6 11.6 0 0 1-3.787 1.581 11.6 11.6 0 0 1 5.181-11.53 11.6 11.6 0 0 1 3.787-1.58" clip-rule="evenodd"/></mask><g mask="url(#mask10_0_1)"><path fill="#f63" d="m689.116 130.94 1.87-.289-.308-1.992-1.969.433zm-8.968 13.11-1.87.289.308 1.991 1.969-.433zm7.099-12.822a9.71 9.71 0 0 1-4.337 9.651l2.049 3.18c4.624-2.98 6.815-8.309 6.027-13.408zm-4.337 9.651a9.7 9.7 0 0 1-3.169 1.323l.814 3.695a13.5 13.5 0 0 0 4.404-1.838zm-.893 2.882a9.71 9.71 0 0 1 4.337-9.651l-2.049-3.18c-4.624 2.981-6.815 8.309-6.027 13.409zm4.337-9.651a9.7 9.7 0 0 1 3.169-1.323l-.814-3.695a13.5 13.5 0 0 0-4.404 1.838z"/></g><path fill="#fbad41" stroke="#f63" stroke-width="1.892" d="M648.048 144.529a2.07 2.07 0 1 0 0-4.14 2.07 2.07 0 0 0 0 4.14z"/><path fill="#ffcd89" fill-rule="evenodd" d="M668.217 139.731c-2.934 6.386-2.063 14.173 2.856 19.813a18.4 18.4 0 0 0 5.062 4.069c2.934-6.386 2.063-14.174-2.856-19.813a18.4 18.4 0 0 0-5.062-4.069" clip-rule="evenodd"/><mask id="mask11_0_1" width="12" height="25" x="666" y="139" maskUnits="userSpaceOnUse" style="mask-type:luminance"><path fill="#fff" fill-rule="evenodd" d="M668.217 139.731c-2.934 6.386-2.063 14.173 2.856 19.813a18.4 18.4 0 0 0 5.062 4.069c2.934-6.386 2.063-14.174-2.856-19.813a18.4 18.4 0 0 0-5.062-4.069" clip-rule="evenodd"/></mask><g mask="url(#mask11_0_1)"><path fill="#fbad41" d="m668.217 139.731-1.719-.79.846-1.841 1.778.97zm7.918 23.882 1.718.79-.845 1.841-1.779-.97zm-6.199-23.093c-2.635 5.735-1.85 12.722 2.563 17.781l-2.851 2.487c-5.427-6.222-6.384-14.81-3.15-21.847zm2.563 17.781a16.5 16.5 0 0 0 4.541 3.651l-1.811 3.322a20.3 20.3 0 0 1-5.581-4.486zm1.917 4.522c2.635-5.734 1.849-12.721-2.563-17.78l2.851-2.487c5.426 6.221 6.383 14.809 3.149 21.847zm-2.563-17.78a16.5 16.5 0 0 0-4.541-3.652l1.81-3.321a20.3 20.3 0 0 1 5.582 4.486z"/></g><path fill="#ffcd89" fill-rule="evenodd" d="M680.003 118.833a11.44 11.44 0 0 1-1.773 12.299 11.4 11.4 0 0 1-3.142 2.526 11.44 11.44 0 0 1 1.773-12.299 11.4 11.4 0 0 1 3.142-2.526" clip-rule="evenodd"/><mask id="mask12_0_1" width="8" height="16" x="674" y="118" maskUnits="userSpaceOnUse" style="mask-type:luminance"><path fill="#fff" fill-rule="evenodd" d="M680.003 118.833a11.44 11.44 0 0 1-1.773 12.299 11.4 11.4 0 0 1-3.142 2.526 11.44 11.44 0 0 1 1.773-12.299 11.4 11.4 0 0 1 3.142-2.526" clip-rule="evenodd"/></mask><g mask="url(#mask12_0_1)"><path fill="#f63" d="m680.003 118.833 1.719-.79-.846-1.841-1.779.97zm-4.915 14.825-1.719.79.846 1.841 1.778-.97zm3.196-14.035a9.55 9.55 0 0 1-1.48 10.266l2.851 2.487c3.561-4.083 4.188-9.717 2.067-14.333zm-1.48 10.266a9.5 9.5 0 0 1-2.621 2.108l1.81 3.322a13.3 13.3 0 0 0 3.662-2.943zm.003 2.979a9.55 9.55 0 0 1 1.479-10.266l-2.851-2.487c-3.56 4.083-4.187 9.717-2.066 14.333zm1.479-10.266a9.5 9.5 0 0 1 2.622-2.108l-1.811-3.322a13.3 13.3 0 0 0-3.662 2.943z"/></g><path fill="#fbad41" fill-rule="evenodd" d="M663.921 139.948c-6.426.714-12.97-2.314-16.449-8.253a16.9 16.9 0 0 1-2.065-5.607c6.426-.714 12.97 2.314 16.449 8.253a16.9 16.9 0 0 1 2.065 5.607" clip-rule="evenodd"/><mask id="mask13_0_1" width="19" height="16" x="645" y="125" maskUnits="userSpaceOnUse" style="mask-type:luminance"><path fill="#fff" fill-rule="evenodd" d="M663.921 139.948c-6.426.714-12.97-2.314-16.449-8.253a16.9 16.9 0 0 1-2.065-5.607c6.426-.714 12.97 2.314 16.449 8.253a16.9 16.9 0 0 1 2.065 5.607" clip-rule="evenodd"/></mask><g mask="url(#mask13_0_1)"><path fill="#f63" d="m663.921 139.948.208 1.88 2.004-.222-.349-1.985zm-18.514-13.86-.209-1.88-2.003.222.349 1.986zm18.305 11.98c-5.71.635-11.52-2.058-14.608-7.329l-3.264 1.913c3.87 6.606 11.149 9.97 18.289 9.176zm-14.608-7.329a15 15 0 0 1-1.834-4.979l-3.726.656a18.8 18.8 0 0 0 2.296 6.236zm-3.488-2.771c5.71-.635 11.52 2.058 14.607 7.329l3.265-1.912c-3.87-6.607-11.149-9.971-18.29-9.177zm14.607 7.329a15 15 0 0 1 1.834 4.979l3.727-.655a18.8 18.8 0 0 0-2.296-6.236z"/></g><path fill="#fbad41" fill-rule="evenodd" d="M659.804 117.023c5.216 3.82 7.989 10.477 6.535 17.204a16.8 16.8 0 0 1-2.272 5.527c-5.216-3.82-7.989-10.477-6.535-17.204a16.9 16.9 0 0 1 2.272-5.527" clip-rule="evenodd"/><mask id="mask14_0_1" width="10" height="23" x="657" y="117" maskUnits="userSpaceOnUse" style="mask-type:luminance"><path fill="#fff" fill-rule="evenodd" d="M659.804 117.023c5.216 3.82 7.989 10.477 6.535 17.204a16.8 16.8 0 0 1-2.272 5.527c-5.216-3.82-7.989-10.477-6.535-17.204a16.9 16.9 0 0 1 2.272-5.527" clip-rule="evenodd"/></mask><g mask="url(#mask14_0_1)"><path fill="#f63" d="m659.804 117.023 1.117-1.526-1.626-1.191-1.085 1.698zm4.263 22.731-1.117 1.526 1.626 1.191 1.085-1.698zm-5.381-21.205c4.636 3.395 7.095 9.308 5.804 15.278l3.698.8c1.617-7.484-1.47-14.885-7.267-19.13zm5.804 15.278a15 15 0 0 1-2.017 4.908l3.188 2.038a18.8 18.8 0 0 0 2.527-6.146zm.695 4.401c-4.636-3.395-7.094-9.308-5.804-15.278l-3.698-.8c-1.617 7.484 1.47 14.885 7.267 19.13zm-5.804-15.278a15 15 0 0 1 2.017-4.908l-3.188-2.038a18.8 18.8 0 0 0-2.527 6.146z"/></g><path fill="#fbad41" fill-rule="evenodd" d="M651.282 120.157c6.259 1.622 11.295 6.784 12.429 13.572a16.9 16.9 0 0 1-.069 5.975c-6.258-1.622-11.295-6.784-12.429-13.572-.341-2.041-.3-4.056.069-5.975" clip-rule="evenodd"/><mask id="mask15_0_1" width="14" height="20" x="650" y="120" maskUnits="userSpaceOnUse" style="mask-type:luminance"><path fill="#fff" fill-rule="evenodd" d="M651.282 120.157c6.259 1.622 11.295 6.784 12.429 13.572a16.9 16.9 0 0 1-.069 5.975c-6.258-1.622-11.295-6.784-12.429-13.572-.341-2.041-.3-4.056.069-5.975" clip-rule="evenodd"/></mask><g mask="url(#mask15_0_1)"><path fill="#f63" d="m651.282 120.157.475-1.831-1.951-.506-.381 1.979zm12.36 19.547-.475 1.831 1.951.506.382-1.979zm-12.834-17.716c5.561 1.442 10.031 6.028 11.037 12.053l3.732-.623c-1.262-7.552-6.865-13.289-13.82-15.092zm11.037 12.053a15 15 0 0 1-.06 5.306l3.715.715c.411-2.136.455-4.379.077-6.644zm2.272 3.832c-5.562-1.441-10.031-6.028-11.038-12.053l-3.731.623c1.261 7.552 6.864 13.29 13.819 15.092zm-11.038-12.053a15 15 0 0 1 .061-5.306l-3.715-.715a18.7 18.7 0 0 0-.077 6.644z"/></g><path fill="#fbad41" fill-rule="evenodd" d="M660.722 82.089c4.151 2.548 6.641 7.377 5.962 12.518a12.7 12.7 0 0 1-1.367 4.29c-4.151-2.549-6.642-7.378-5.962-12.519a12.7 12.7 0 0 1 1.367-4.289" clip-rule="evenodd"/><mask id="mask16_0_1" width="8" height="17" x="659" y="82" maskUnits="userSpaceOnUse" style="mask-type:luminance"><path fill="#fff" fill-rule="evenodd" d="M660.722 82.089c4.151 2.548 6.641 7.377 5.962 12.518a12.7 12.7 0 0 1-1.367 4.29c-4.151-2.549-6.642-7.378-5.962-12.519a12.7 12.7 0 0 1 1.367-4.289" clip-rule="evenodd"/></mask><g mask="url(#mask16_0_1)"><path fill="#f63" d="m660.722 82.089.989-1.612-1.717-1.055-.944 1.781zm4.595 16.808-.989 1.612 1.717 1.054.944-1.781zm-5.585-15.196a10.84 10.84 0 0 1 5.077 10.658l3.75.496c.781-5.908-2.083-11.454-6.848-14.378zm5.077 10.658a10.8 10.8 0 0 1-1.163 3.652l3.343 1.771a14.6 14.6 0 0 0 1.57-4.927zm1.498 2.926a10.84 10.84 0 0 1-5.077-10.659l-3.751-.495c-.78 5.908 2.084 11.453 6.849 14.378zm-5.077-10.659a10.8 10.8 0 0 1 1.163-3.652l-3.343-1.771a14.6 14.6 0 0 0-1.571 4.928z"/></g><path fill="#f6821f" fill-rule="evenodd" d="M666.721 103.924c-4.048-5.417-4.784-12.924-1.271-19.208a17.6 17.6 0 0 1 3.964-4.833c4.048 5.417 4.784 12.924 1.271 19.208a17.6 17.6 0 0 1-3.964 4.833" clip-rule="evenodd"/><mask id="mask17_0_1" width="10" height="25" x="663" y="79" maskUnits="userSpaceOnUse" style="mask-type:luminance"><path fill="#fff" fill-rule="evenodd" d="M666.721 103.924c-4.048-5.417-4.784-12.924-1.271-19.208a17.6 17.6 0 0 1 3.964-4.833c4.048 5.417 4.784 12.924 1.271 19.208a17.6 17.6 0 0 1-3.964 4.833" clip-rule="evenodd"/></mask><g mask="url(#mask17_0_1)"><path fill="#f63" d="m666.721 103.924-1.515 1.132 1.207 1.615 1.534-1.307zm2.693-24.041 1.515-1.133-1.207-1.614-1.535 1.306zm-1.178 22.909c-3.617-4.841-4.271-11.545-1.135-17.153l-3.302-1.846c-3.891 6.959-3.072 15.27 1.407 21.263zm-1.135-17.153a15.7 15.7 0 0 1 3.539-4.316l-2.453-2.881a19.5 19.5 0 0 0-4.388 5.351zm.797-4.624c3.618 4.841 4.271 11.544 1.136 17.153l3.302 1.846c3.891-6.959 3.072-15.27-1.407-21.264zm1.136 17.153a15.8 15.8 0 0 1-3.539 4.316l2.452 2.88a19.5 19.5 0 0 0 4.389-5.35z"/></g><path fill="#fbad41" fill-rule="evenodd" d="M661.665 101.447c-.965-4.774-4.642-8.774-9.703-9.904a12.7 12.7 0 0 0-4.498-.193c.964 4.775 4.642 8.774 9.703 9.905 1.521.34 3.039.392 4.498.192" clip-rule="evenodd"/><mask id="mask18_0_1" width="15" height="11" x="647" y="91" maskUnits="userSpaceOnUse" style="mask-type:luminance"><path fill="#fff" fill-rule="evenodd" d="M661.665 101.447c-.965-4.774-4.642-8.774-9.703-9.904a12.7 12.7 0 0 0-4.498-.193c.964 4.775 4.642 8.774 9.703 9.905 1.521.34 3.039.392 4.498.192" clip-rule="evenodd"/></mask><g mask="url(#mask18_0_1)"><path fill="#f63" d="m661.665 101.447 1.854-.374.4 1.975-1.997.273zM647.464 91.35l-1.855.375-.399-1.976 1.997-.273zm12.347 10.472a10.84 10.84 0 0 0-8.261-8.433l.825-3.693c5.816 1.3 10.037 5.897 11.144 11.377zm-8.261-8.433a10.8 10.8 0 0 0-3.83-.165l-.513-3.748a14.6 14.6 0 0 1 5.168.22zm-2.232-2.413a10.84 10.84 0 0 0 8.261 8.433l-.825 3.692c-5.816-1.299-10.037-5.896-11.145-11.376zm8.261 8.433c1.299.29 2.591.334 3.83.164l.513 3.748c-1.679.23-3.424.17-5.168-.22z"/></g><path fill="#f6821f" fill-rule="evenodd" d="M665.906 104.495c-3.694-5.665-10.49-8.939-17.599-7.802a17.6 17.6 0 0 0-5.901 2.059c3.694 5.665 10.49 8.939 17.599 7.801a17.6 17.6 0 0 0 5.901-2.058" clip-rule="evenodd"/><mask id="mask19_0_1" width="24" height="11" x="642" y="96" maskUnits="userSpaceOnUse" style="mask-type:luminance"><path fill="#fff" fill-rule="evenodd" d="M665.906 104.495c-3.694-5.665-10.49-8.939-17.599-7.802a17.6 17.6 0 0 0-5.901 2.059c3.694 5.665 10.49 8.939 17.599 7.801a17.6 17.6 0 0 0 5.901-2.058" clip-rule="evenodd"/></mask><g mask="url(#mask19_0_1)"><path fill="#f63" d="m665.906 104.495 1.584-1.033 1.101 1.688-1.755.992zm-23.5-5.743-1.585 1.033-1.1-1.688 1.754-.992zm21.915 6.776c-3.301-5.062-9.37-7.982-15.715-6.967l-.598-3.736c7.873-1.259 15.395 2.369 19.482 8.637zm-15.715-6.967a15.7 15.7 0 0 0-5.269 1.838l-1.862-3.294a19.5 19.5 0 0 1 6.533-2.28zm-4.615-.842c3.3 5.062 9.37 7.981 15.715 6.967l.597 3.735c-7.873 1.26-15.395-2.368-19.482-8.636zm15.715 6.967a15.8 15.8 0 0 0 5.269-1.838l1.861 3.294a19.5 19.5 0 0 1-6.533 2.279z"/></g><path fill="#f6821f" fill-rule="evenodd" d="M652.238 84.544c6.646 1.252 12.266 6.284 13.928 13.289.5 2.105.6 4.211.35 6.24-6.646-1.252-12.266-6.284-13.928-13.289-.5-2.105-.6-4.212-.35-6.24" clip-rule="evenodd"/><mask id="mask20_0_1" width="15" height="21" x="652" y="84" maskUnits="userSpaceOnUse" style="mask-type:luminance"><path fill="#fff" fill-rule="evenodd" d="M652.238 84.544c6.646 1.252 12.266 6.284 13.928 13.289.5 2.105.6 4.211.35 6.24-6.646-1.252-12.266-6.284-13.928-13.289-.5-2.105-.6-4.212-.35-6.24" clip-rule="evenodd"/></mask><g mask="url(#mask20_0_1)"><path fill="#f63" d="m652.238 84.544.351-1.859-1.981-.373-.247 2zm14.278 19.529-.35 1.859 1.98.373.247-2.001zm-14.628-17.67c5.939 1.118 10.954 5.614 12.438 11.866l3.681-.873c-1.841-7.758-8.065-13.326-15.418-14.711zm12.438 11.866c.447 1.883.535 3.764.312 5.572l3.755.463a19.5 19.5 0 0 0-.386-6.908zm2.54 3.945c-5.939-1.119-10.954-5.615-12.438-11.867l-3.681.874c1.841 7.758 8.065 13.326 15.419 14.711zm-12.438-11.867a15.7 15.7 0 0 1-.312-5.572l-3.755-.463a19.5 19.5 0 0 0 .386 6.909z"/></g><path fill="#ffcd89" fill-rule="evenodd" d="M668.608 93.197a8.404 8.404 0 0 1-1.722 11.374 8.404 8.404 0 0 1 1.722-11.374" clip-rule="evenodd"/><mask id="mask21_0_1" width="6" height="12" x="665" y="93" maskUnits="userSpaceOnUse" style="mask-type:luminance"><path fill="#fff" fill-rule="evenodd" d="M668.608 93.197a8.404 8.404 0 0 1-1.722 11.374 8.404 8.404 0 0 1 1.722-11.374" clip-rule="evenodd"/></mask><g mask="url(#mask21_0_1)"><path fill="#f63" d="m668.608 93.197 1.558-1.072-1.143-1.661-1.584 1.246zm-1.722 11.374-1.558 1.073 1.143 1.66 1.584-1.246zm.164-10.301a6.51 6.51 0 0 1 .194 7.091l3.228 1.973a10.29 10.29 0 0 0-.306-11.209zm.194 7.091a6.5 6.5 0 0 1-1.528 1.723l2.339 2.974a10.3 10.3 0 0 0 2.417-2.724zm1.2 2.137a6.51 6.51 0 0 1-.194-7.091l-3.228-1.973a10.29 10.29 0 0 0 .306 11.21zm-.194-7.091a6.5 6.5 0 0 1 1.528-1.723l-2.339-2.974a10.3 10.3 0 0 0-2.417 2.724z"/></g><path fill="#ffcd89" fill-rule="evenodd" d="M666.775 104.75a8.4 8.4 0 0 0-8.517-3.353 8.4 8.4 0 0 0-2.762 1.096 8.403 8.403 0 0 0 11.279 2.257" clip-rule="evenodd"/><mask id="mask22_0_1" width="12" height="6" x="655" y="101" maskUnits="userSpaceOnUse" style="mask-type:luminance"><path fill="#fff" fill-rule="evenodd" d="M666.775 104.75a8.4 8.4 0 0 0-8.517-3.353 8.4 8.4 0 0 0-2.762 1.096 8.403 8.403 0 0 0 11.279 2.257" clip-rule="evenodd"/></mask><g mask="url(#mask22_0_1)"><path fill="#f63" d="m666.775 104.75 1.54-1.099 1.171 1.641-1.712 1.065zm-11.279-2.257-1.54 1.099-1.171-1.64 1.712-1.065zm9.739 3.356a6.51 6.51 0 0 0-6.599-2.599l-.755-3.707a10.3 10.3 0 0 1 10.434 4.108zm-6.599-2.599a6.5 6.5 0 0 0-2.141.849l-1.998-3.212a10.3 10.3 0 0 1 3.384-1.344zm-1.601-1.856a6.51 6.51 0 0 0 6.6 2.599l.754 3.707a10.29 10.29 0 0 1-10.433-4.108zm6.6 2.599a6.5 6.5 0 0 0 2.141-.849l1.998 3.213a10.3 10.3 0 0 1-3.385 1.343z"/></g><path fill="#ffcd89" fill-rule="evenodd" d="M666.945 105.453a8.404 8.404 0 0 1-6.413-9.551 8.4 8.4 0 0 1 6.365 6.579 8.4 8.4 0 0 1 .048 2.972" clip-rule="evenodd"/><mask id="mask23_0_1" width="8" height="11" x="660" y="95" maskUnits="userSpaceOnUse" style="mask-type:luminance"><path fill="#fff" fill-rule="evenodd" d="M666.945 105.453a8.404 8.404 0 0 1-6.413-9.551 8.4 8.4 0 0 1 6.365 6.579 8.4 8.4 0 0 1 .048 2.972" clip-rule="evenodd"/></mask><g mask="url(#mask23_0_1)"><path fill="#f63" d="m666.945 105.453-.424 1.843 1.964.452.327-1.989zm-6.413-9.551.424-1.843-1.964-.452-.327 1.989zm6.837 7.707a6.51 6.51 0 0 1-4.933-5.098l-3.713.726a10.29 10.29 0 0 0 7.798 8.059zm-4.933-5.098a6.5 6.5 0 0 1-.038-2.302l-3.733-.613a10.3 10.3 0 0 0 .058 3.641zm-2.328-.765a6.51 6.51 0 0 1 4.933 5.098l3.713-.726a10.29 10.29 0 0 0-7.798-8.059zm4.933 5.098a6.5 6.5 0 0 1 .037 2.302l3.734.613a10.3 10.3 0 0 0-.058-3.641z"/></g><path fill="#fbad41" stroke="#f63" stroke-width="1.892" d="M654.832 71.152a1.818 1.818 0 1 0 0-3.636 1.818 1.818 0 0 0 0 3.636zm.252 83.429a2.07 2.07 0 1 0 0-4.14 2.07 2.07 0 0 0 0 4.14zm34.678-38.699a2.07 2.07 0 1 0 0-4.14 2.07 2.07 0 0 0 0 4.14z"/><path fill="#ffe9cb" fill-rule="evenodd" d="M673.758 231.416h13.992l-.79-3.543c7.982-4.6 13.355-13.219 13.355-23.094 0-11.398-7.158-21.123-17.225-24.926l.691-7.742h-20.627l.813 7.857c-9.908 3.882-16.925 13.527-16.925 24.811 0 9.874 5.373 18.494 13.354 23.094l-.79 3.543z" clip-rule="evenodd"/><path fill="#fbad41" d="M687.75 231.416v.945h1.18l-.257-1.151zm-13.992 0v-.946h-.003zm13.202-3.543-.472-.819-.602.347.151.678zm-3.87-48.02-.942-.084-.063.715.671.254zm.691-7.742.942.084.092-1.029h-1.034zm-20.627 0v-.945h-1.049l.108 1.043zm.813 7.857.345.881.67-.262-.074-.716zm-3.571 47.905.923.206.152-.678-.602-.347zm-.79 3.543-.923-.206-.257 1.151h1.18zm13.994 0 .002-.946h-.002zm14.15-.946h-13.992v1.891h13.992zm-1.713-2.391.79 3.543 1.846-.412-.79-3.542zm13.333-23.3c0 9.523-5.181 17.837-12.882 22.275l.944 1.639c8.263-4.762 13.829-13.688 13.829-23.914zm-16.614-24.041c9.711 3.668 16.614 13.05 16.614 24.041h1.891c0-11.804-7.414-21.874-17.836-25.811zm.083-8.711-.691 7.742 1.884.168.691-7.742zm-19.685 1.03h20.627v-1.891h-20.627zm1.754 6.814-.813-7.857-1.882.195.813 7.857zm-16.92 24.908c0-10.882 6.766-20.186 16.324-23.93l-.69-1.761c-10.259 4.018-17.526 14.005-17.526 25.691zm12.881 22.275c-7.701-4.439-12.881-12.753-12.881-22.275h-1.892c0 10.226 5.565 19.151 13.828 23.913zm-.34 4.568.79-3.543-1.846-.412-.79 3.543zm13.071-1.152h-13.994v1.891H673.6zm.079 0h-.077l-.005 1.891.082.001zm.076 0h-.076v1.892l.081-.001z"/><path fill="#ffcd89" stroke="#f6821f" stroke-width="1.892" d="M133.42 141.421h-12.395v91.473h12.395z"/><path fill="#f6821f" d="M132.159 231.68h-12.395v1.382h12.395z"/><path fill="#f6821f" d="M126.071 232.808c-1.643 0-2.973-.048-2.973-.106v-.421c0-.059 1.346-.106 2.973-.106 1.643 0 2.974.048 2.974.106v.421c.015.058-1.331.106-2.974.106"/><path fill="#fbad41" d="M132.159 141.421h-12.395v1.381h12.395z"/><path fill="#fff7ec" stroke="#f6821f" stroke-width="1.892" d="M120.859 174.117h-17.145v58.777h17.145z"/><path fill="#ffcd89" d="M112.569 217.657c-2.273 0-4.113-2.055-4.113-4.541v-17.88c0-2.509 1.861-4.541 4.113-4.541 2.273 0 4.113 2.056 4.113 4.541v17.88c.021 2.486-1.84 4.541-4.113 4.541"/><path stroke="#fbad41" stroke-width="1.892" d="M166.589 175.079h-18.263a6.62 6.62 0 0 0-6.621 6.621v7.515a6.62 6.62 0 0 0 6.621 6.621h18.263a6.62 6.62 0 0 0 6.621-6.621V181.7a6.62 6.62 0 0 0-6.621-6.621z"/><path fill="#ffe9cb" stroke="#fbad41" stroke-width="1.892" d="M151.301 168.938h30.354v26.419a6.62 6.62 0 0 1-6.621 6.621h-17.112a6.62 6.62 0 0 1-6.621-6.621z"/><path fill="#f8fbfb" d="M160.144 169.239h7.486v29.942a3.743 3.743 0 0 1-7.486 0zm-4.99 0h3.119v32.125a1.56 1.56 0 1 1-3.119 0z"/><path fill="#f63" stroke="#fbad41" stroke-width="1.892" d="M151.301 173.928h30.354v21.429a6.62 6.62 0 0 1-6.621 6.621h-17.112a6.62 6.62 0 0 1-6.621-6.621z"/><path fill="#fff" d="m170.15 188.446.107-.366c.128-.436.081-.838-.135-1.134-.198-.272-.528-.433-.928-.451l-7.591-.096a.15.15 0 0 1-.12-.062.15.15 0 0 1-.016-.135.2.2 0 0 1 .176-.132l7.662-.096c.909-.041 1.892-.766 2.237-1.65l.437-1.122a.26.26 0 0 0 .012-.148c-.497-2.194-2.488-3.834-4.869-3.834-2.194 0-4.057 1.392-4.725 3.327a2.27 2.27 0 0 0-1.576-.429c-1.052.103-1.898.936-2.003 1.97q-.038.405.058.772c-1.719.049-3.098 1.434-3.098 3.136q0 .231.034.453a.15.15 0 0 0 .146.126l14.014.002.004-.001a.19.19 0 0 0 .174-.13m2.648-5.483q-.106 0-.212.005a.1.1 0 0 0-.033.008.12.12 0 0 0-.077.084l-.302 1.075c-.129.462-.081.888.136 1.202.2.29.533.459.938.479l1.633.101a.15.15 0 0 1 .117.066.17.17 0 0 1 .017.143.21.21 0 0 1-.178.141l-1.697.101c-.922.044-1.915.813-2.263 1.75l-.122.331a.093.093 0 0 0 .08.127l.005.001h5.84c.07 0 .132-.047.151-.116q.155-.561.156-1.172c-.001-2.389-1.876-4.326-4.189-4.326"/><path fill="#a8cbff" fill-rule="evenodd" d="M589.989 229.886c3.348-7.714 2.343-16.861-3.283-23.207a19.5 19.5 0 0 0-5.788-4.481c-3.349 7.714-2.343 16.861 3.283 23.207a19.5 19.5 0 0 0 5.788 4.481" clip-rule="evenodd"/><mask id="mask24_0_1" width="13" height="28" x="579" y="202" maskUnits="userSpaceOnUse" style="mask-type:luminance"><path fill="#fff" fill-rule="evenodd" d="M589.989 229.886c3.348-7.714 2.343-16.861-3.283-23.207a19.5 19.5 0 0 0-5.788-4.481c-3.349 7.714-2.343 16.861 3.283 23.207a19.5 19.5 0 0 0 5.788 4.481" clip-rule="evenodd"/></mask><g mask="url(#mask24_0_1)"><path fill="#f63" d="m589.989 229.886 1.688.79-.788 1.815-1.715-.869zm-9.071-27.688-1.688-.79.788-1.815 1.715.869zm7.383 26.898c3.07-7.072 2.12-15.377-2.959-21.106l2.727-2.622c6.173 6.964 7.235 16.951 3.608 25.308zm-2.959-21.106a17.6 17.6 0 0 0-5.239-4.057l1.63-3.471a21.4 21.4 0 0 1 6.336 4.906zm-2.736-5.002c-3.07 7.072-2.12 15.377 2.959 21.106l-2.728 2.622c-6.173-6.963-7.235-16.951-3.607-25.308zm2.959 21.106a17.6 17.6 0 0 0 5.239 4.057l-1.63 3.471a21.3 21.3 0 0 1-6.337-4.906z"/></g><path fill="#a8cbff" fill-rule="evenodd" d="M593.03 231.716c-4.232-7.25-12.685-11.514-21.953-10.183a24.3 24.3 0 0 0-7.798 2.519c4.232 7.25 12.686 11.513 21.954 10.183 2.785-.4 5.41-1.272 7.797-2.519" clip-rule="evenodd"/><mask id="mask25_0_1" width="31" height="14" x="563" y="221" maskUnits="userSpaceOnUse" style="mask-type:luminance"><path fill="#fff" fill-rule="evenodd" d="M593.03 231.716c-4.232-7.25-12.685-11.514-21.953-10.183a24.3 24.3 0 0 0-7.798 2.519c4.232 7.25 12.686 11.513 21.954 10.183 2.785-.4 5.41-1.272 7.797-2.519" clip-rule="evenodd"/></mask><g mask="url(#mask25_0_1)"><path fill="#f63" d="m593.03 231.716 1.631-1.032 1.017 1.743-1.856.97zm-29.751-7.664-1.631 1.031-1.017-1.742 1.856-.97zm28.119 8.695c-3.868-6.626-11.62-10.555-20.154-9.33l-.335-3.768c10.002-1.436 19.156 3.163 23.752 11.035zm-20.154-9.33a22.3 22.3 0 0 0-7.173 2.317l-1.584-3.363a26.2 26.2 0 0 1 8.422-2.722zm-6.333-.396c3.868 6.626 11.62 10.555 20.154 9.33l.335 3.768c-10.001 1.436-19.156-3.163-23.752-11.036zm20.154 9.33a22.3 22.3 0 0 0 7.173-2.317l1.584 3.363a26.2 26.2 0 0 1-8.422 2.722z"/></g><path fill="#ffcd89" fill-rule="evenodd" d="M699.033 226.719c-3.558-7.141-3.062-15.855 1.951-22.149a18.5 18.5 0 0 1 5.259-4.534c3.558 7.141 3.062 15.856-1.95 22.149a18.5 18.5 0 0 1-5.26 4.534" clip-rule="evenodd"/><mask id="mask26_0_1" width="13" height="27" x="696" y="200" maskUnits="userSpaceOnUse" style="mask-type:luminance"><path fill="#fff" fill-rule="evenodd" d="M699.033 226.719c-3.558-7.141-3.062-15.855 1.951-22.149a18.5 18.5 0 0 1 5.259-4.534c3.558 7.141 3.062 15.856-1.95 22.149a18.5 18.5 0 0 1-5.26 4.534" clip-rule="evenodd"/></mask><g mask="url(#mask26_0_1)"><path fill="#fbad41" d="m699.033 226.719-1.644.878.882 1.771 1.668-.959zm7.21-26.683 1.644-.878-.882-1.771-1.667.959zm-5.565 25.806c-3.246-6.515-2.762-14.386 1.736-20.034l-2.861-2.475c-5.526 6.938-6.034 16.496-2.164 24.264zm1.736-20.034a16.7 16.7 0 0 1 4.734-4.082l-1.81-3.38a20.3 20.3 0 0 0-5.785 4.987zm2.185-4.894c3.245 6.514 2.761 14.386-1.737 20.033l2.861 2.475c5.527-6.938 6.034-16.496 2.164-24.264zm-1.737 20.033a16.6 16.6 0 0 1-4.734 4.082l1.811 3.38a20.4 20.4 0 0 0 5.784-4.987z"/></g><path stroke="#fbad41" stroke-width="1.892" d="M103.844 187.05h16.641"/><path fill="#fff" d="M366.002 252.245c54.682 0 99.011-44.329 99.011-99.011s-44.329-99.011-99.011-99.011-99.011 44.329-99.011 99.011 44.329 99.011 99.011 99.011"/><path fill="#fff7ec" stroke="url(#paint3_linear_0_1)" stroke-width="2.868" d="M365.941 245.669c51.085 0 92.497-41.412 92.497-92.497s-41.412-92.497-92.497-92.497-92.498 41.412-92.498 92.497 41.413 92.497 92.498 92.497z"/><path fill="#fff" d="M365.927 227.718c41.178 0 74.56-33.382 74.56-74.56s-33.382-74.56-74.56-74.56-74.56 33.382-74.56 74.56 33.382 74.56 74.56 74.56"/><path fill="url(#paint4_linear_0_1)" stroke="#f63" stroke-linejoin="round" stroke-width="3" d="M421.701 132.099v45.918l-55.379 31.402v-45.918z"/><path fill="url(#paint5_linear_0_1)" stroke="#f63" stroke-linejoin="round" stroke-width="3" d="M310.943 132.099v45.918l55.379 31.402v-45.918z"/><path fill="#fbad41" stroke="#f63" stroke-linejoin="round" stroke-width="3" d="m366.322 100.707-55.379 31.392 55.379 31.402 55.379-31.402z"/><path fill="#f63" stroke="#003682" stroke-linejoin="round" stroke-width="3" d="M374.957 115.282v-4.229l-3.658.551a9.7 9.7 0 0 0-5.242-.295c-1.387.275-2.7.838-3.855 1.652l-2.764.403v5.085c0 3.344 4.593 4.858 8.851 3.983s6.619-3.462 6.668-7.15z"/><path fill="#f63" stroke="#f63" stroke-linejoin="round" stroke-width="3" d="M365.978 122.904a8.5 8.5 0 0 1-5.222-1.475 3.65 3.65 0 0 1-1.465-2.95v-5.272l2.95-.423a10.5 10.5 0 0 1 3.934-1.672 10.3 10.3 0 0 1 5.32.286l3.836-.581v4.426c0 3.855-2.429 6.481-6.757 7.366-.852.189-1.723.288-2.596.295zm-6.265-9.343v4.918c0 .499.118.991.345 1.435.233.45.57.837.983 1.131a9.1 9.1 0 0 0 3.521 1.367 9.2 9.2 0 0 0 3.767-.157c4.091-.846 6.363-3.314 6.402-6.943v-3.934l-3.442.511a9.66 9.66 0 0 0-5.124-.275 9.9 9.9 0 0 0-3.767 1.603h-.108z"/><path fill="#fbad41" stroke="#f63" stroke-linejoin="round" stroke-width="3" d="M368.515 117.928c4.337-.876 7.337-4.082 6.688-7.15s-4.681-4.858-9.018-3.983-7.337 4.081-6.688 7.15 4.681 4.838 9.018 3.983z"/><path fill="#f63" stroke="#f63" stroke-linejoin="round" stroke-width="3" d="M347.135 131.253v-4.219l-3.659.541a9.7 9.7 0 0 0-5.241-.295 10.1 10.1 0 0 0-3.856 1.652l-2.773.413v5.085c0 3.344 4.593 4.858 8.851 3.934 4.259-.925 6.629-3.423 6.678-7.111z"/><path fill="#f63" stroke="#f63" stroke-linejoin="round" stroke-width="3" d="M338.146 138.876a8.43 8.43 0 0 1-5.212-1.475 3.75 3.75 0 0 1-1.082-1.299 3.7 3.7 0 0 1-.394-1.642v-5.281l2.951-.423c1.18-.823 2.52-1.39 3.934-1.662a10.15 10.15 0 0 1 5.31.275l3.846-.57v4.416c0 3.855-2.429 6.481-6.757 7.366a11.3 11.3 0 0 1-2.596.295zm-6.255-9.343v4.917a3.21 3.21 0 0 0 1.298 2.557 9.2 9.2 0 0 0 7.288 1.21c4.091-.836 6.363-3.314 6.402-6.943v-3.934l-3.442.521a9.56 9.56 0 0 0-5.124-.285 10 10 0 0 0-3.776 1.603h-.099z"/><path fill="#fbad41" stroke="#f63" stroke-linejoin="round" stroke-width="3" d="M340.693 133.909c4.337-.875 7.337-4.081 6.687-7.159-.649-3.079-4.681-4.859-9.018-3.983s-7.337 4.081-6.697 7.159 4.681 4.859 9.028 3.983z"/><path fill="#f63" stroke="#003682" stroke-linejoin="round" stroke-width="3" d="M400.842 130.929V126.7l-3.649.551a9.6 9.6 0 0 0-5.242-.295c-1.386.269-2.7.829-3.855 1.642l-2.773.413v5.084c0 3.344 4.593 4.859 8.851 3.934s6.629-3.422 6.668-7.1z"/><path fill="#f63" stroke="#f63" stroke-linejoin="round" stroke-width="3" d="M391.863 138.54a8.46 8.46 0 0 1-5.213-1.465 3.75 3.75 0 0 1-1.475-2.95v-5.272l2.951-.432a10.4 10.4 0 0 1 3.933-1.662 10.25 10.25 0 0 1 5.311.285l3.845-.58v4.425c0 3.855-2.429 6.481-6.756 7.356a11.2 11.2 0 0 1-2.596.295zm-6.285-9.333v4.918c0 .499.118.991.345 1.436.239.445.575.832.983 1.131a9.4 9.4 0 0 0 3.521 1.367 9.2 9.2 0 0 0 3.776-.168c4.092-.836 6.354-3.314 6.403-6.884v-3.934l-3.442.512a9.66 9.66 0 0 0-5.124-.276 9.8 9.8 0 0 0-3.777 1.603h-.098z"/><path fill="#fbad41" stroke="#f63" stroke-linejoin="round" stroke-width="3" d="M394.43 133.536c4.337-.876 7.326-4.082 6.687-7.16s-4.681-4.858-9.018-3.934-7.337 4.081-6.698 7.15c.64 3.068 4.662 4.858 9.029 3.944z"/><path fill="#f63" stroke="#003682" stroke-linejoin="round" stroke-width="3" d="M373.777 146.242v-4.229l-3.648.551a9.6 9.6 0 0 0-5.242-.295 10.1 10.1 0 0 0-3.865 1.642l-2.764.413v5.085c0 3.343 4.593 4.858 8.851 3.933s6.59-3.422 6.668-7.1z"/><path fill="#f63" stroke="#f63" stroke-linejoin="round" stroke-width="3" d="M364.759 153.854a8.46 8.46 0 0 1-5.213-1.466 3.74 3.74 0 0 1-1.475-2.95v-5.272l2.95-.432a10.5 10.5 0 0 1 3.934-1.662 10.2 10.2 0 0 1 5.321.285l3.845-.58v4.415c0 3.865-2.429 6.481-6.766 7.366-.851.2-1.722.299-2.596.296zm-6.265-9.334v4.918c.008.499.129.99.354 1.436.239.445.575.832.983 1.131a9.3 9.3 0 0 0 3.521 1.367 9.2 9.2 0 0 0 3.767-.168c4.101-.835 6.363-3.314 6.412-6.933v-3.934l-3.452.512a9.65 9.65 0 0 0-5.124-.276 9.8 9.8 0 0 0-3.766 1.603h-.099z"/><path fill="#fbad41" stroke="#f63" stroke-linejoin="round" stroke-width="3" d="M367.296 148.887c4.347-.876 7.337-4.082 6.697-7.16s-4.681-4.858-9.028-3.934c-4.347.925-7.336 4.081-6.687 7.15s4.681 4.819 9.018 3.944z"/><defs><linearGradient id="paint0_linear_0_1" x1="476.01" x2="400.961" y1="0" y2="389.821" gradientUnits="userSpaceOnUse"><stop stop-color="#e0edff"/><stop offset="1" stop-color="#fff"/></linearGradient><linearGradient id="paint1_linear_0_1" x1="423.497" x2="407.017" y1="70.096" y2="203.24" gradientUnits="userSpaceOnUse"><stop stop-color="#e0edff"/><stop offset="1" stop-color="#fff"/></linearGradient><linearGradient id="paint2_linear_0_1" x1="439.611" x2="439.543" y1="222.56" y2="232.266" gradientUnits="userSpaceOnUse"><stop stop-color="#e0edff"/><stop offset="1" stop-color="#fff"/></linearGradient><linearGradient id="paint3_linear_0_1" x1="371.825" x2="368.599" y1="247.159" y2="59.325" gradientUnits="userSpaceOnUse"><stop offset=".007" stop-color="#f63"/><stop offset=".335" stop-color="#f6821f"/><stop offset="1" stop-color="#fbad41"/></linearGradient><linearGradient id="paint4_linear_0_1" x1="409.81" x2="383.798" y1="111.774" y2="198.729" gradientUnits="userSpaceOnUse"><stop offset=".643" stop-color="#f9ab41"/><stop offset="1" stop-color="#f6821f"/></linearGradient><linearGradient id="paint5_linear_0_1" x1="348.699" x2="303.5" y1="153.332" y2="180" gradientUnits="userSpaceOnUse"><stop stop-color="#f6821f"/><stop offset=".198" stop-color="#f63"/><stop offset=".965" stop-color="#ce2f55"/></linearGradient></defs></svg>