<svg xmlns="http://www.w3.org/2000/svg" width="40" height="19" fill="none" viewBox="0 0 40 19"><path fill="#F6821F" d="m27.16 18.507.204-.735c.242-.873.152-1.68-.255-2.274-.374-.547-.998-.868-1.755-.906l-14.346-.19a.3.3 0 0 1-.127-.034.3.3 0 0 1-.099-.09.31.31 0 0 1-.03-.27.4.4 0 0 1 .128-.185.37.37 0 0 1 .205-.081l14.479-.192c1.717-.082 3.576-1.536 4.227-3.31l.826-2.25a.55.55 0 0 0 .022-.298C29.702 3.29 25.94 0 21.44 0c-4.146 0-7.667 2.792-8.928 6.673a4.1 4.1 0 0 0-2.978-.86c-1.99.206-3.589 1.877-3.786 3.953a4.6 4.6 0 0 0 .11 1.547C2.605 11.41 0 14.189 0 17.603q0 .459.065.911c.009.07.042.134.093.18.05.047.116.072.183.073l26.485.003h.007a.34.34 0 0 0 .205-.076.36.36 0 0 0 .122-.187"/><path fill="#FBAD41" d="M31.94 8.153q-.2 0-.397.01a.2.2 0 0 0-.062.014.2.2 0 0 0-.091.061.24.24 0 0 0-.054.098l-.564 2.033c-.243.874-.152 1.68.254 2.274.375.547.998.868 1.756.906l3.058.191a.3.3 0 0 1 .123.035.28.28 0 0 1 .142.22.3.3 0 0 1-.015.14.4.4 0 0 1-.128.185.37.37 0 0 1-.205.08l-3.177.192c-1.725.083-3.585 1.536-4.235 3.31l-.23.626a.18.18 0 0 0 .017.16.17.17 0 0 0 .134.08h10.941a.3.3 0 0 0 .176-.06.3.3 0 0 0 .106-.16 8.5 8.5 0 0 0 .291-2.216c0-4.517-3.51-8.18-7.84-8.18"/></svg>