<svg width="519" height="307" viewBox="0 0 519 307" fill="none" xmlns="http://www.w3.org/2000/svg"><g clip-path="url(#clip0_1_7605)"><path d="M264.599 1.73182 396.052 77.5863V229.294L264.599 305.148 133.145 229.294V77.5864L264.599 1.73182z" stroke="#e0edff" stroke-width="3"/><mask id="mask0_1_7605" style="mask-type:alpha" maskUnits="userSpaceOnUse" x="47" y="28" width="434" height="248"><path d="M263.367 275.399 47.795 150.819 264.668 29.0547 479.845 150.819 263.367 275.399z" fill="#fff" stroke="#0055dc" stroke-linejoin="round" stroke-dasharray="6 4"/></mask><g mask="url(#mask0_1_7605)"><path d="M266.396 174.668 268.769 326.924 267.636 326.942 265.263 174.687 266.396 174.668zM249.609 326.101 250.737 326.203l13.567-151.648L263.176 174.453 249.609 326.101zm11.516-152.099-29.358 149.379L232.877 323.6l29.358-149.379L261.125 174.002zM259.131 173.34 214.305 318.814 215.387 319.148l44.826-145.474L259.131 173.34zM257.218 172.474 197.413 312.448 198.455 312.893 258.26 172.919 257.218 172.474zM255.404 171.414l-74.125 132.94L182.268 304.904l74.126-132.941L255.404 171.414zM253.713 170.168 166.076 294.619 167.002 295.271 254.639 170.82 253.713 170.168zM252.161 168.753 151.972 283.35 152.824 284.095 253.012 169.498 252.161 168.753zM250.762 167.185 139.122 270.674 139.892 271.505l111.64-103.49L250.762 167.185zM249.537 165.479 127.668 256.724 128.348 257.631l121.869-91.245L249.537 165.479zM248.497 163.653 117.735 241.658 118.315 242.631l130.764-78.003L248.497 163.653zM247.654 161.731 109.429 225.638 109.905 226.666 248.129 162.76 247.654 161.731zM247.017 159.73 102.844 208.841 103.209 209.913l144.172-49.11L247.017 159.73zM246.591 157.678 98.0516 191.45 98.3042 192.554 246.844 158.781 246.591 157.678zM246.381 155.589 95.1018 173.658 95.2366 174.782l151.2794-18.07L246.381 155.589zM246.394 153.49 94.0313 155.655 94.0472 156.788 246.41 154.623 246.394 153.49zM246.624 151.405 94.8492 137.644 94.7472 138.772l151.7748 13.76L246.624 151.405zM247.072 149.357 97.5464 119.819 97.3277 120.929 246.854 150.467 247.072 149.357zM247.732 147.364l-145.639-44.99L101.759 103.456l145.637 44.99L247.732 147.364zm.863-1.91L108.441 85.5043 107.996 86.5466 248.151 146.496 248.595 145.454zM249.654 143.643 116.519 69.3903 115.969 70.3793 249.103 144.632 249.654 143.643zM250.907 141.46 144.496 66.5366 143.843 67.4633 250.256 142.387 250.907 141.46zm1.411-1.548L146.575 47.5065 145.829 48.3607 251.574 140.766 252.318 139.912zM253.056 139.289 253.885 138.518 185.187 64.4634 184.358 65.2337l68.698 74.0553zM255.59 137.296 165.605 17.2382 164.698 17.918l89.986 120.059L255.59 137.296zM257.411 136.258 192.757 28.0255 191.784 28.6078 256.437 136.84 257.411 136.258zM259.331 135.418 212.305 33.8893l-1.029.4758L258.303 135.893 259.331 135.418zM260.256 135.148 261.329 134.783 230.783 44.6081 229.71 44.9729l30.546 90.1751zM263.382 134.358 227.008-25.0431 225.904-24.7904 262.278 134.611 263.382 134.358zM249.415.609858l-1.124.134813L264.344 134.288 265.468 134.153 249.415.609858zM267.565 134.166 265.374 23.0561 264.241 23.0742 266.432 134.184 267.565 134.166zm15.62 31.539 133.136 74.252L416.871 238.968 283.735 164.716 283.185 165.705zM281.942 167.394 406.6 255.137 407.253 254.21 282.594 166.468 281.942 167.394zM280.528 168.945l114.816 100.27L396.089 268.361 281.274 168.091 280.528 168.945zM278.961 170.336 382.676 282.037 383.505 281.267 279.79 169.566 278.961 170.336zM277.254 171.56l91.477 121.904L369.638 292.785 278.162 170.88 277.254 171.56zM275.432 172.598 353.667 303.37 354.638 302.788 276.403 172.015 275.432 172.598zM273.508 173.438 337.647 311.65 338.673 311.172 274.535 172.96 273.508 173.438zM271.509 174.073l49.339 144.134L321.918 317.84 272.579 173.705 271.509 174.073zM269.452 174.495 303.45 322.972 304.555 322.72 270.556 174.242 269.452 174.495zM267.363 174.7 285.65 325.895 286.773 325.76 268.487 174.565 267.363 174.7zM281.047 7.79571 279.919 7.69375 268.521 134.296 269.649 134.398 281.047 7.79571zM271.696 134.846 304.14-29.8487 303.029-30.0674 270.585 134.627 271.696 134.846zM272.604 135.172 273.686 135.506 304.702 34.9621 303.62 34.6279 272.604 135.172zM275.597 136.37 327.711 14.4468 326.669 14.0016 274.555 135.925 275.597 136.37zM277.405 137.43 351.502 4.54435 350.513 3.99377 276.416 136.879 277.405 137.43zM278.552 138.122 279.478 138.774l52.615-74.4948L331.166 63.6266 278.552 138.122zM342.17 70.2331 341.318 69.4877 280.176 139.44 281.028 140.186 342.17 70.2331zM342.006 86.5013 341.236 85.672 281.65 140.923 282.42 141.753l59.586-55.2517zM283.645 143.457l85.173-63.7972L368.138 78.7524 282.965 142.549 283.645 143.457zM284.682 145.279 415.266 67.3409 414.686 66.3678 284.102 144.306 284.682 145.279zM285.525 147.2 423.556 83.3394 423.08 82.3108 285.049 146.171 285.525 147.2zM286.161 149.196l143.965-49.082L429.761 99.0411 285.796 148.123 286.161 149.196zM286.585 151.248l148.324-33.767L434.656 116.376 286.334 150.144 286.585 151.248zM286.793 153.335l151.055-18.083L437.713 134.128 286.658 152.211 286.793 153.335zM286.78 155.429l152.133-2.197L438.897 152.099l-152.133 2.197L286.78 155.429zM286.55 157.512l151.543 13.711L438.195 170.095 286.652 156.384 286.55 157.512zM286.103 159.559l149.294 29.468L435.615 187.916 286.321 158.449 286.103 159.559zM285.443 161.549 430.852 206.45 431.186 205.368 285.778 160.467 285.443 161.549zM284.581 163.457l139.928 59.844L424.955 222.258 285.027 162.415 284.581 163.457z" fill="#fbad41"/></g><path d="M259.739 153.25s-56.95 110.499-137.756 110.499C64.7744 263.749 11 214.277 11 153.25 11 92.2232 64.7744 42.751 121.983 42.751c92.909.0 137.756 110.499 137.756 110.499z" stroke="#fff" stroke-width="21"/><path d="M259.74 153.248s56.95-110.5 137.756-110.5c57.209.0 110.983 49.4722 110.983 110.5.0 61.027-53.774 110.499-110.983 110.499-92.909.0-137.756-110.499-137.756-110.499z" stroke="#fff" stroke-width="21"/><path d="M259.739 153.25s-56.95 110.499-137.756 110.499C64.7744 263.749 11 214.277 11 153.25 11 92.2232 64.7744 42.751 121.983 42.751c92.909.0 137.756 110.499 137.756 110.499z" stroke="#fff" stroke-width="8"/><path d="M259.74 153.248s56.95-110.5 137.756-110.5c57.209.0 110.983 49.4722 110.983 110.5.0 61.027-53.774 110.499-110.983 110.499-92.909.0-137.756-110.499-137.756-110.499z" stroke="#f6821f" stroke-width="8"/><path d="M259.74 153.248s56.95-110.5 137.756-110.5c57.209.0 110.983 49.4722 110.983 110.5.0 61.027-53.774 110.499-110.983 110.499-92.909.0-137.756-110.499-137.756-110.499z" stroke="#fff" stroke-width="8"/><path d="M259.739 153.351S202.789 263.85 121.983 263.85c-57.2088.0-110.9832-49.472-110.9832-110.499.0-61.0272 53.7744-110.4994 110.9832-110.4994 92.909.0 137.756 110.4994 137.756 110.4994z" stroke="url(#paint0_linear_1_7605)" stroke-width="5"/><path d="M259.738 153.351S224.443 221.833 170 250.973" stroke="url(#paint1_linear_1_7605)" stroke-width="5"/><path d="M259.74 153.349S316.69 42.8496 397.496 42.8496c57.209.0 110.983 49.4722 110.983 110.4994.0 61.027-53.774 110.499-110.983 110.499-92.909.0-137.756-110.499-137.756-110.499z" stroke="#f6821f" stroke-width="5" stroke-dasharray="10 10"/><path d="M259.74 153.349S316.69 42.8496 397.496 42.8496c57.209.0 110.983 49.4722 110.983 110.4994.0 61.027-53.774 110.499-110.983 110.499-92.909.0-137.756-110.499-137.756-110.499z" stroke="url(#paint2_linear_1_7605)" stroke-width="5" stroke-dasharray="10 10"/><path d="M259.74 153.349S316.69 42.8496 397.496 42.8496" stroke="url(#paint3_linear_1_7605)" stroke-width="5" stroke-dasharray="10 10"/><path d="M259.739 153.246S214.892 42.7471 121.984 42.7471C64.7744 42.7471 11 92.2194 11 153.246" stroke="#fff" stroke-width="9"/><path d="M259.74 153.248s44.846 110.499 137.755 110.499" stroke="#fff" stroke-width="9"/><path d="M259.739 153.246S214.892 42.7471 121.984 42.7471C64.7744 42.7471 11 92.2194 11 153.246" stroke="url(#paint4_linear_1_7605)" stroke-width="5"/><path d="M259.74 153.248s44.846 110.499 137.755 110.499" stroke="#fbab3f" stroke-width="5"/><path d="M262.536 215.53c34.299.0 62.103-27.805 62.103-62.104.0-34.299-27.804-62.1037-62.103-62.1037-34.3.0-62.104 27.8047-62.104 62.1037.0 34.299 27.804 62.104 62.104 62.104z" fill="#fff"/><path fill-rule="evenodd" clip-rule="evenodd" d="M362.32 82.5684H163.331C160.688 82.5768 158.155 83.6244 156.278 85.4849c-1.876 1.8605-2.946 4.3845-2.977 7.0269V223.397H372.348V92.5143C372.32 89.8709 371.252 87.3449 369.375 85.4834 367.499 83.6218 364.964 82.5746 362.32 82.5684z" fill="url(#paint5_linear_1_7605)"/><path d="M363.081 98.2158H162.057V215.366H363.081V98.2158z" fill="#fff"/><path fill-rule="evenodd" clip-rule="evenodd" d="M380.998 233.493H144.484C132.189 233.493 123.91 231.608 123.91 229.814V224.36C123.942 224.072 124.086 223.809 124.311 223.627 124.536 223.445 124.823 223.358 125.111 223.386H400.37C400.658 223.358 400.945 223.445 401.17 223.627 401.395 223.809 401.54 224.072 401.573 224.36V230.028c0 1.42100000000002-6.416 3.465-20.575 3.465z" fill="url(#paint6_linear_1_7605)"/><path fill-rule="evenodd" clip-rule="evenodd" d="M401.572 230.028c0 1.41800000000001-6.416 3.464-20.575 3.464H144.483c-12.295.0-20.575-1.88499999999999-20.575-3.679L401.572 230.028z" fill="#a8cbff"/><path fill-rule="evenodd" clip-rule="evenodd" d="M292.901 223.788V225.027C292.901 225.91 291.162 226.176 289.847 226.176H235.858C234.474 226.176 232.723 225.91 232.723 225.027V223.788" fill="#f6821f"/><path d="M380.996 234.129H144.485c-10.535.0-21.2-1.47799999999998-21.2-4.304V224.371C123.318 223.917 123.528 223.495 123.87 223.196 124.212 222.896 124.659 222.744 125.113 222.772H400.37C400.824 222.744 401.27 222.896 401.613 223.195 401.955 223.495 402.165 223.917 402.198 224.371V230.039C402.193 232.486 393.672 234.129 380.996 234.129zM125.111 224.022C124.781 224.022 124.535 224.206 124.535 224.371v5.452C124.702 230.688 130.884 232.876 144.484 232.876H380.996C395.404 232.876 400.665 230.77 400.952 230L400.947 224.367C400.947 224.203 400.697 224.019 400.37 224.019L125.111 224.022z" fill="#f6821f"/><path d="M400.369 222.773H372.753V92.516C372.738 89.7027 371.608 87.0102 369.61 85.0289 367.613 83.0477 364.911 81.9395 362.098 81.9473H163.11C160.297 81.9395 157.595 83.0477 155.598 85.0289 153.601 87.0102 152.47 89.7027 152.455 92.516V222.773H125.111C124.657 222.745 124.21 222.897 123.868 223.197 123.526 223.496 123.316 223.918 123.283 224.372v5.452C123.283 232.649 133.949 234.128 144.483 234.128H380.995C393.671 234.128 402.192 232.485 402.195 230.038V224.37C402.161 223.917 401.951 223.496 401.609 223.197 401.268 222.898 400.822 222.746 400.369 222.773zM153.706 92.516C153.75 90.0436 154.758 87.6862 156.515 85.9458 158.271 84.2054 160.638 83.2195 163.11 83.198H362.102C364.584 83.1897 366.968 84.166 368.731 85.9128 370.494 87.6596 371.492 90.0342 371.507 92.516V222.773H153.706V92.516zM380.995 232.879H144.484c-13.601.0-19.782-2.18799999999999-19.949-3.053V224.372C124.535 224.207 124.782 224.024 125.112 224.024H400.369C400.699 224.024 400.947 224.207 400.947 224.372L400.952 230.005C400.664 230.773 395.403 232.879 380.995 232.879z" fill="#f6821f" stroke="#f6821f"/><path d="M353.705 108.27H171.514v99.061H353.705V108.27z" fill="url(#paint7_linear_1_7605)"/><path d="M359.619 134.319H306.125C304.069 134.319 302.402 135.986 302.402 138.042V243.319C302.402 245.375 304.069 247.042 306.125 247.042h53.494C361.675 247.042 363.342 245.375 363.342 243.319V138.042C363.342 135.986 361.675 134.319 359.619 134.319z" fill="url(#paint8_linear_1_7605)"/><path d="M359.62 247.511H306.126C305.016 247.509 303.951 247.067 303.166 246.282 302.38 245.496 301.939 244.432 301.938 243.321V138.042C301.939 136.931 302.38 135.866 303.166 135.081 303.951 134.295 305.016 133.853 306.126 133.852H359.62C360.73 133.854 361.795 134.296 362.58 135.081 363.366 135.866 363.808 136.931 363.81 138.042V243.318C363.808 244.43 363.367 245.495 362.581 246.281 361.796 247.067 360.731 247.509 359.62 247.511zM306.126 134.787C305.264 134.789 304.438 135.132 303.829 135.741 303.219 136.351 302.876 137.177 302.875 138.039V243.318C302.876 244.18 303.219 245.007 303.829 245.616 304.438 246.226 305.264 246.569 306.126 246.57H359.62C360.482 246.569 361.308 246.226 361.917 245.616 362.527 245.007 362.87 244.18 362.872 243.318V138.042C362.87 137.18 362.527 136.353 361.917 135.744 361.308 135.134 360.482 134.791 359.62 134.79L306.126 134.787z" fill="#0354db" stroke="#f6821f"/><path d="M359.833 144.871H305.91v94.29h53.923v-94.29z" fill="#fff"/><path d="M337.349 139.546H327.316C326.9 139.546 326.562 139.884 326.562 140.3 326.562 140.717 326.9 141.054 327.316 141.054h10.033C337.766 141.054 338.103 140.717 338.103 140.3 338.103 139.884 337.766 139.546 337.349 139.546z" fill="#f63"/><path d="M323.726 141.574C324.43 141.574 325 141.003 325 140.299 325 139.595 324.43 139.025 323.726 139.025S322.451 139.595 322.451 140.299C322.451 141.003 323.022 141.574 323.726 141.574z" fill="#f63"/><path d="M335.321 209.832c10.646.0 19.277-8.63 19.277-19.276C354.598 179.91 345.967 171.28 335.321 171.28c-10.645.0-19.276 8.63-19.276 19.276.0 10.646 8.63099999999997 19.276 19.276 19.276z" fill="#fff"/><path d="M356.475 151.913H309.369v81.05h47.106v-81.05z" fill="url(#paint9_linear_1_7605)"/><path d="M293.726 170.332H232.299v11.592h61.427V170.332z" fill="#fff" stroke="#f6821f" stroke-width="2"/><path d="M351.49 199.781H316.113v5.929H351.49v-5.929z" fill="#fff" stroke="#f6821f" stroke-width="2"/><path d="M293.726 189.02H232.299v11.591h61.427V189.02z" fill="#fff" stroke="#f6821f" stroke-width="2"/><path d="M351.49 212.239H316.113v5.929H351.49v-5.929z" fill="#fff" stroke="#f6821f" stroke-width="2"/><path d="M333.66 193.058C341.77 193.058 348.344 186.484 348.344 178.374 348.344 170.265 341.77 163.69 333.66 163.69 325.551 163.69 318.977 170.265 318.977 178.374 318.977 186.484 325.551 193.058 333.66 193.058z" fill="#fff" stroke="#f6821f" stroke-width="2" stroke-miterlimit="10"/><path d="M329.025 186.023C329.789 185.603 330.498 185.087 331.133 184.489v-3.875L336.238 180.674V184.319C336.471 184.772 337.351 185.329 338.525 185.988 338.525 185.988 336.341 189.246 333.597 189.246 330.853 189.246 329.025 186.023 329.025 186.023z" fill="#f6a86f" stroke="#911475" stroke-miterlimit="10"/><path d="M333.659 193.058C337.304 193.063 340.82 191.707 343.518 189.256 342.011 187.964 340.343 186.874 338.554 186.014 338.554 186.014 336.342 189.246 333.598 189.246 330.854 189.246 329.011 186.055 329.011 186.055 327.327 187.004 325.261 187.898 323.713 189.173 326.42 191.675 329.973 193.063 333.659 193.058z" fill="#f6821f" stroke="#911475" stroke-miterlimit="10"/><path d="M337.77 167.847C337.77 168.037 337.208 168.183 337.183 168.366 337.157 168.548 337.654 168.852 337.602 169.03 337.55 169.208 336.97 169.192 336.894 169.36 336.818 169.529 337.209 169.961 337.11 170.117 337.01 170.273 336.459 170.091 336.339 170.232 336.218 170.373 336.475 170.897 336.335 171.019 336.196 171.141 335.718 170.81 335.562 170.911 335.407 171.012 335.509 171.588 335.34 171.666 335.171 171.744 334.808 171.289 334.63 171.342 334.451 171.395 334.39 171.976 334.205 172.002 334.02 172.029 333.801 171.489 333.613 171.489 333.426 171.489 333.202 172.029 333.022 172.002 332.842 171.976 332.773 171.394 332.597 171.342 332.422 171.29 332.055 171.743 331.886 171.666 331.717 171.589 331.819 171.012 331.664 170.911 331.509 170.811 331.03 171.141 330.891 171.019 330.752 170.897 331.009 170.372 330.888 170.231 330.767 170.091 330.217 170.274 330.116 170.116 330.016 169.959 330.41 169.531 330.332 169.36 330.255 169.189 329.677 169.211 329.624 169.03 329.572 168.849 330.068 168.553 330.044 168.366 330.02 168.178 329.457 168.036 329.457 167.847 329.457 167.658 330.018 167.511 330.044 167.328S329.573 166.841 329.624 166.664C329.676 166.487 330.256 166.502 330.333 166.333 330.41 166.165 330.017 165.733 330.117 165.576 330.217 165.42 330.767 165.602 330.888 165.462 331.009 165.322 330.752 164.797 330.892 164.674 331.031 164.552 331.509 164.884 331.664 164.783 331.819 164.682 331.717 164.106 331.887 164.028 332.056 163.95 332.418 164.404 332.597 164.352 332.776 164.299 332.837 163.718 333.022 163.691 333.207 163.664 333.426 164.205 333.613 164.205 333.801 164.205 334.024 163.665 334.205 163.691 334.385 163.717 334.454 164.299 334.63 164.352 334.805 164.404 335.172 163.951 335.341 164.028S335.408 164.682 335.563 164.783C335.718 164.883 336.196 164.553 336.335 164.675 336.474 164.797 336.217 165.322 336.339 165.462 336.46 165.602 337.01 165.42 337.11 165.577 337.211 165.734 336.817 166.163 336.895 166.334 336.972 166.505 337.55 166.483 337.602 166.664 337.654 166.845 337.159 167.141 337.183 167.328 337.207 167.514 337.77 167.657 337.77 167.847z" fill="#911475" stroke="#911475" stroke-width="2"/><path d="M338.527 176.122C338.555 176.013 338.605 175.911 338.674 175.822 338.744 175.733 338.831 175.66 338.93 175.607S339.139 175.522 339.251 175.513C339.363 175.505 339.476 175.519 339.582 175.557 340.22 175.749 339.861 178.067 338.078 177.985 338.263 177.373 338.413 176.751 338.527 176.122z" fill="#f6a86f" stroke="#911475" stroke-miterlimit="10"/><path d="M328.789 176.122C328.759 176.011 328.706 175.907 328.633 175.817 328.56 175.727 328.47 175.654 328.368 175.6 328.265 175.547 328.153 175.516 328.038 175.509 327.923 175.501 327.807 175.518 327.699 175.557 327.142 175.783 327.42 178.067 329.205 177.985 329.026 177.373 328.887 176.751 328.789 176.122z" fill="#f6a86f" stroke="#911475" stroke-miterlimit="10"/><path d="M338.759 173.994C338.759 175.318 338.275 178.014 337.424 179.641 336.792 180.85 335.164 182.195 333.684 182.195 332.205 182.195 330.744 180.85 329.945 179.642 328.932 178.11 328.609 175.318 328.609 173.994 328.609 172.648 329.144 171.358 330.096 170.406 331.047 169.454 332.338 168.919 333.684 168.919 335.03 168.919 336.321 169.454 337.273 170.406S338.759 172.648 338.759 173.994z" fill="#f6a86f" stroke="#911475" stroke-miterlimit="10"/><path d="M338.498 175.66C338.26 173.644 333.878 173.945 333.034 171.688 333.034 171.688 333.034 173.109 331.91 173.945 331.046 174.587 329.941 174.218 329.941 174.218S331.047 174.306 331.628 173.375C332.164 172.516 331.91 171.688 331.91 171.688 329.989 171.976 329.016 173.657 328.79 176.072L328.703 175.985C328.591 175.281 328.531 174.57 328.523 173.858 328.523 171.055 330.882 168.869 333.685 168.869 335.04 168.866 336.342 169.397 337.308 170.347 338.274 171.297 338.827 172.59 338.847 173.945 338.82 174.642 338.724 175.334 338.561 176.012L338.498 175.66z" fill="#911475" stroke="#911475" stroke-width=".505" stroke-linejoin="round"/><path d="M333.66 193.058C341.77 193.058 348.344 186.484 348.344 178.374 348.344 170.265 341.77 163.69 333.66 163.69 325.551 163.69 318.977 170.265 318.977 178.374 318.977 186.484 325.551 193.058 333.66 193.058z" stroke="#f6821f" stroke-width="3" stroke-miterlimit="10"/><path d="M261.835 155.531S216.096 42.8322 121.338 42.8322" stroke="#fdd39a" stroke-width="5"/><path d="M143.352 241.497 172.612 249.337l-7.84 29.259" stroke="#fff" stroke-width="8" stroke-linecap="round" stroke-linejoin="round"/><path d="M388.31 62.5192 360.236 51.1423l11.377-28.0739" stroke="#fff" stroke-width="8" stroke-linecap="round" stroke-linejoin="round"/><path d="M149.205 248.078 166.746 252.779 162.046 270.321" stroke="#f97727" stroke-width="5"/><path d="M386.681 54.8038 369.939 47.7662 376.976 31.0244" stroke="#ff6732" stroke-width="5"/><path d="M263.032 161.768c13.817.0 25.017-11.201 25.017-25.017.0-13.817-11.2-25.017-25.017-25.017-13.816.0-25.016 11.2-25.016 25.017.0 13.816 11.2 25.017 25.016 25.017z" fill="#fff" stroke="#f6821f" stroke-width="2" stroke-miterlimit="10"/><path d="M255.139 149.783C256.442 149.067 257.648 148.189 258.731 147.17V140.567L267.428 140.67V146.88C267.825 147.652 269.324 148.6 271.325 149.723 271.325 149.723 267.603 155.274 262.928 155.274S255.139 149.783 255.139 149.783z" fill="#f6a86f" stroke="#911475" stroke-miterlimit="10"/><path d="M263.032 161.768C269.242 161.777 275.232 159.467 279.828 155.291 277.261 153.09 274.418 151.233 271.371 149.767 271.371 149.767 267.602 155.274 262.927 155.274 258.253 155.274 255.113 149.837 255.113 149.837 252.244 151.455 248.724 152.978 246.086 155.15 250.699 159.412 256.751 161.776 263.032 161.768z" fill="#f6821f" stroke="#911475" stroke-miterlimit="10"/><path d="M271.546 119.878C271.546 120.249 270.446 120.537 270.396 120.894S271.319 121.847 271.218 122.195C271.117 122.544 269.98 122.512 269.83 122.843 269.681 123.173 270.448 124.019 270.253 124.325S268.979 124.274 268.742 124.55C268.506 124.826 269.009 125.854 268.736 126.093 268.462 126.332 267.527 125.683 267.222 125.881S267.117 127.207 266.786 127.36 265.743 126.621 265.394 126.726C265.044 126.83 264.924 127.967 264.562 128.019 264.2 128.07 263.77 127.012 263.403 127.012 263.036 127.012 262.598 128.07 262.244 128.019 261.891 127.967 261.756 126.827 261.412 126.726 261.068 126.624 260.35 127.511 260.019 127.359 259.688 127.208 259.887 126.078 259.583 125.881 259.28 125.684 258.343 126.332 258.069 126.093 257.796 125.854 258.3 124.825 258.064 124.549 257.827 124.273 256.749 124.632 256.552 124.324 256.355 124.016 257.126 123.176 256.975 122.842 256.823 122.507 255.69 122.549 255.588 122.195 255.486 121.841 256.457 121.26 256.41 120.894 256.362 120.527 255.26 120.248 255.26 119.878 255.26 119.507 256.359 119.219 256.41 118.861 256.461 118.503 255.487 117.907 255.588 117.56 255.689 117.213 256.825 117.243 256.975 116.912 257.126 116.582 256.357 115.736 256.553 115.429 256.749 115.123 257.827 115.48 258.064 115.205 258.3 114.93 257.797 113.901 258.07 113.662 258.344 113.422 259.279 114.072 259.583 113.874 259.888 113.676 259.689 112.548 260.02 112.395 260.351 112.242 261.062 113.133 261.412 113.03 261.763 112.926 261.882 111.789 262.244 111.736 262.606 111.683 263.036 112.742 263.403 112.742 263.77 112.742 264.208 111.685 264.562 111.736 264.915 111.787 265.05 112.927 265.394 113.03 265.738 113.132 266.456 112.244 266.787 112.395 267.118 112.546 266.919 113.677 267.223 113.874 267.526 114.071 268.463 113.424 268.736 113.663 269.008 113.901 268.505 114.93 268.742 115.205 268.98 115.48 270.057 115.122 270.254 115.43 270.451 115.739 269.68 116.579 269.831 116.913 269.983 117.248 271.116 117.206 271.218 117.56 271.32 117.914 270.349 118.495 270.396 118.861 270.444 119.226 271.546 119.506 271.546 119.878z" fill="#911475" stroke="#911475"/><path d="M271.326 132.913C271.373 132.727 271.459 132.553 271.577 132.402 271.695 132.251 271.844 132.126 272.013 132.036 272.182 131.945 272.368 131.891 272.559 131.876 272.751 131.862 272.943 131.887 273.124 131.951 274.211 132.279 273.599 136.227 270.561 136.087 270.876 135.044 271.131 133.985 271.326 132.913z" fill="#f6a86f" stroke="#911475" stroke-miterlimit="10"/><path d="M254.733 132.914C254.682 132.724 254.591 132.548 254.468 132.395 254.344 132.242 254.19 132.116 254.016 132.026 253.841 131.935 253.65 131.882 253.453 131.869 253.257 131.856 253.06 131.884 252.876 131.952 251.928 132.336 252.4 136.228 255.441 136.088 255.137 135.046 254.901 133.986 254.733 132.914z" fill="#f6a86f" stroke="#911475" stroke-miterlimit="10"/><path d="M271.719 129.289C271.719 131.544 270.893 136.137 269.443 138.91 268.367 140.969 265.594 143.26 263.073 143.26 260.551 143.26 258.064 140.969 256.702 138.911 254.976 136.301 254.426 131.544 254.426 129.289 254.426 126.996 255.337 124.797 256.959 123.175 258.58 121.554 260.779 120.643 263.073 120.643 265.366 120.643 267.565 121.554 269.186 123.175 270.808 124.797 271.719 126.996 271.719 129.289z" fill="#f6a86f" stroke="#911475" stroke-miterlimit="10"/><path d="M271.273 132.128C270.868 128.692 263.401 129.205 261.964 125.36c0 0 0 2.42100000000001-1.916 3.84500000000001C258.578 130.299 256.695 129.671 256.695 129.671S258.579 129.821 259.569 128.234C260.483 126.771 260.048 125.36 260.048 125.36 256.776 125.851 255.118 128.714 254.733 132.829L254.585 132.681C254.395 131.482 254.293 130.271 254.279 129.057 254.279 124.281 258.298 120.558 263.073 120.558 265.382 120.552 267.6 121.457 269.246 123.076 270.892 124.695 271.834 126.897 271.867 129.205 271.822 130.392 271.659 131.572 271.381 132.726L271.273 132.128z" fill="#911475" stroke="#911475" stroke-width=".505" stroke-linejoin="round"/><path d="M263.032 161.768c13.817.0 25.017-11.201 25.017-25.017.0-13.817-11.2-25.017-25.017-25.017-13.816.0-25.016 11.2-25.016 25.017.0 13.816 11.2 25.017 25.016 25.017z" stroke="#f6821f" stroke-width="3" stroke-miterlimit="10"/></g><defs><linearGradient id="paint0_linear_1_7605" x1="366.002" y1="394.498" x2="32.5015" y2="58.9984" gradientUnits="userSpaceOnUse"><stop stop-color="#911475"/><stop offset=".25" stop-color="#ce2f55"/><stop offset=".5" stop-color="#f63"/><stop offset=".611677" stop-color="#f6821f"/><stop offset=".838132" stop-color="#fbad41"/><stop offset="1" stop-color="#ffe9cb"/></linearGradient><linearGradient id="paint1_linear_1_7605" x1="209.5" y1="246" x2="125.5" y2="274.5" gradientUnits="userSpaceOnUse"><stop stop-color="#ffe9cb"/><stop offset=".75" stop-color="#f6821f"/><stop offset="1" stop-color="#fbad41"/></linearGradient><linearGradient id="paint2_linear_1_7605" x1="423" y1="277" x2="508" y2="43" gradientUnits="userSpaceOnUse"><stop offset=".0212967" stop-color="#fbad41"/><stop offset=".41193" stop-color="#f6821f"/><stop offset=".71402" stop-color="#f63"/><stop offset="1" stop-color="#ce2f55"/></linearGradient><linearGradient id="paint3_linear_1_7605" x1="359" y1="103" x2="411.5" y2="43" gradientUnits="userSpaceOnUse"><stop offset=".0212967" stop-color="#fbad41"/><stop offset=".41193" stop-color="#f6821f"/><stop offset=".71402" stop-color="#f63"/><stop offset="1" stop-color="#ce2f55"/></linearGradient><linearGradient id="paint4_linear_1_7605" x1="126" y1="164.5" x2="15.5003" y2="33.9998" gradientUnits="userSpaceOnUse"><stop stop-color="#f63"/><stop offset=".151981" stop-color="#f6821f"/><stop offset=".276984" stop-color="#fbad41"/><stop offset=".870747" stop-color="#fff8ee"/><stop offset="1" stop-color="#fff"/></linearGradient><linearGradient id="paint5_linear_1_7605" x1="315.669" y1="82.5683" x2="300.449" y2="205.537" gradientUnits="userSpaceOnUse"><stop stop-color="#e0edff"/><stop offset="1" stop-color="#fff"/></linearGradient><linearGradient id="paint6_linear_1_7605" x1="329.728" y1="223.381" x2="329.665" y2="232.345" gradientUnits="userSpaceOnUse"><stop stop-color="#e0edff"/><stop offset="1" stop-color="#fff"/></linearGradient><linearGradient id="paint7_linear_1_7605" x1="263" y1="165.5" x2="163.5" y2="117.5" gradientUnits="userSpaceOnUse"><stop stop-color="#fce8ce"/><stop offset="1" stop-color="#fff5c2" stop-opacity=".62"/></linearGradient><linearGradient id="paint8_linear_1_7605" x1="347.574" y1="134.319" x2="315.991" y2="223.007" gradientUnits="userSpaceOnUse"><stop stop-color="#e0edff"/><stop offset="1" stop-color="#fff"/></linearGradient><linearGradient id="paint9_linear_1_7605" x1="356" y1="192" x2="274" y2="132.5" gradientUnits="userSpaceOnUse"><stop stop-color="#ffe9cb"/><stop offset="1" stop-color="#fff5c2"/></linearGradient><clipPath id="clip0_1_7605"><rect width="519" height="307" fill="#fff"/></clipPath></defs></svg>