<svg xmlns="http://www.w3.org/2000/svg" width="519" height="307" fill="none" viewBox="0 0 519 307"><g clip-path="url(#clip0_1_7605)"><path stroke="#e0edff" stroke-width="3" d="m264.599 1.732 131.453 75.854v151.708l-131.453 75.854-131.454-75.854V77.586z"/><mask id="mask0_1_7605" width="434" height="248" x="47" y="28" maskUnits="userSpaceOnUse" style="mask-type:alpha"><path fill="#fff" stroke="#0055dc" stroke-dasharray="6 4" stroke-linejoin="round" d="M263.367 275.399 47.795 150.819 264.668 29.055l215.177 121.764z"/></mask><g mask="url(#mask0_1_7605)"><path fill="#fbad41" d="m266.396 174.668 2.373 152.256-1.133.018-2.373-152.255zm-16.787 151.433 1.128.102 13.567-151.648-1.128-.102zm11.516-152.099-29.358 149.379 1.11.219 29.358-149.379zm-1.994-.662-44.826 145.474 1.082.334 44.826-145.474zm-1.913-.866-59.805 139.974 1.042.445 59.805-139.974zm-1.814-1.06-74.125 132.94.989.55 74.126-132.941zm-1.691-1.246-87.637 124.451.926.652 87.637-124.451zm-1.552-1.415L151.972 283.35l.852.745 100.188-114.597zm-1.399-1.568-111.64 103.489.77.831 111.64-103.49zm-1.225-1.706-121.869 91.245.68.907 121.869-91.245zm-1.04-1.826-130.762 78.005.58.973 130.764-78.003zm-.843-1.922-138.225 63.907.476 1.028 138.224-63.906zm-.637-2.001-144.173 49.111.365 1.072 144.172-49.11zm-.426-2.052L98.051 191.45l.253 1.104 148.54-33.773zm-.21-2.089-151.28 18.069.136 1.124 151.279-18.07zm.013-2.099-152.363 2.165.016 1.133 152.363-2.165zm.23-2.085L94.849 137.644l-.102 1.128 151.775 13.76zm.448-2.048L97.546 119.819l-.218 1.11 149.526 29.538zm.66-1.993-145.639-44.99-.334 1.082 145.637 44.99zm.863-1.91-140.154-59.95-.445 1.043 140.155 59.949zm1.059-1.811L116.519 69.39l-.55.99 133.134 74.252zm1.253-2.183L144.496 66.537l-.653.926 106.413 74.924zm1.411-1.548L146.575 47.507l-.746.854 105.745 92.405zm.738-.623.829-.771-68.698-74.055-.829.77zm2.534-1.993L165.605 17.238l-.907.68 89.986 120.059zm1.821-1.038L192.757 28.025l-.973.583 64.653 108.232zm1.92-.84L212.305 33.889l-1.029.476 47.027 101.528zm.925-.27 1.073-.365-30.546-90.175-1.073.365zm3.126-.79L227.008-25.043l-1.104.253 36.374 159.401zM249.415.61l-1.124.135 16.053 133.543 1.124-.135zm18.15 133.556-2.191-111.11-1.133.018 2.191 111.11zm15.62 31.539 133.136 74.252.55-.989-133.136-74.252zm-1.243 1.689L406.6 255.137l.653-.927-124.659-87.742zm-1.414 1.551 114.816 100.27.745-.854-114.815-100.27zm-1.567 1.391 103.715 111.701.829-.77L279.79 169.566zm-1.707 1.224 91.477 121.904.907-.679-91.476-121.905zm-1.822 1.038 78.235 130.772.971-.582-78.235-130.773zm-1.924.84 64.139 138.212 1.026-.478-64.138-138.212zm-1.999.635 49.339 144.134 1.07-.367-49.339-144.135zm-2.057.422 33.998 148.477 1.105-.252-33.999-148.478zm-2.089.205 18.287 151.195 1.123-.135-18.286-151.195zM281.047 7.796l-1.128-.102-11.398 126.602 1.128.102zm-9.351 127.05L304.14-29.849l-1.111-.218-32.444 164.694zm.908.326 1.082.334 31.016-100.544-1.082-.334zm2.993 1.198 52.114-121.923-1.042-.445-52.114 121.923zm1.808 1.06L351.502 4.544l-.989-.55-74.097 132.885zm1.147.692.926.652 52.615-74.495-.927-.652zm63.618-67.889-.852-.745-61.142 69.952.852.746zm-.164 16.268-.77-.829-59.586 55.251.77.83zm-58.361 56.956 85.173-63.797-.68-.908-85.173 63.797zm1.037 1.822 130.584-77.938-.58-.973-130.584 77.938zm.843 1.921 138.031-63.86-.476-1.03-138.031 63.861zm.636 1.996 143.965-49.082-.365-1.073-143.965 49.082zm.424 2.052 148.324-33.767-.253-1.105-148.322 33.768zm.208 2.087 151.055-18.083-.135-1.124-151.055 18.083zm-.013 2.094 152.133-2.197-.016-1.133-152.133 2.197zm-.23 2.083 151.543 13.711.102-1.128-151.543-13.711zm-.447 2.047 149.294 29.468.218-1.111-149.294-29.467zm-.66 1.99 145.409 44.901.334-1.082-145.408-44.901zm-.862 1.908 139.928 59.844.446-1.043-139.928-59.843z"/></g><path stroke="#fff" stroke-width="21" d="M259.739 153.25s-56.95 110.499-137.756 110.499C64.774 263.749 11 214.277 11 153.25S64.774 42.751 121.983 42.751c92.909 0 137.756 110.499 137.756 110.499zm.001-.002s56.95-110.5 137.756-110.5c57.209 0 110.983 49.472 110.983 110.5s-53.774 110.499-110.983 110.499c-92.909 0-137.756-110.499-137.756-110.499z"/><path stroke="#fff" stroke-width="8" d="M259.739 153.25s-56.95 110.499-137.756 110.499C64.774 263.749 11 214.277 11 153.25S64.774 42.751 121.983 42.751c92.909 0 137.756 110.499 137.756 110.499z"/><path stroke="#f6821f" stroke-width="8" d="M259.74 153.248s56.95-110.5 137.756-110.5c57.209 0 110.983 49.472 110.983 110.5s-53.774 110.499-110.983 110.499c-92.909 0-137.756-110.499-137.756-110.499z"/><path stroke="#fff" stroke-width="8" d="M259.74 153.248s56.95-110.5 137.756-110.5c57.209 0 110.983 49.472 110.983 110.5s-53.774 110.499-110.983 110.499c-92.909 0-137.756-110.499-137.756-110.499z"/><path stroke="url(#paint0_linear_1_7605)" stroke-width="5" d="M259.739 153.351S202.789 263.85 121.983 263.85C64.774 263.85 11 214.378 11 153.351s53.774-110.5 110.983-110.5c92.909 0 137.756 110.5 137.756 110.5z"/><path stroke="url(#paint1_linear_1_7605)" stroke-width="5" d="M259.738 153.351S224.443 221.833 170 250.973"/><path stroke="#f6821f" stroke-dasharray="10 10" stroke-width="5" d="M259.74 153.349s56.95-110.5 137.756-110.5c57.209 0 110.983 49.473 110.983 110.5s-53.774 110.499-110.983 110.499c-92.909 0-137.756-110.499-137.756-110.499z"/><path stroke="url(#paint2_linear_1_7605)" stroke-dasharray="10 10" stroke-width="5" d="M259.74 153.349s56.95-110.5 137.756-110.5c57.209 0 110.983 49.473 110.983 110.5s-53.774 110.499-110.983 110.499c-92.909 0-137.756-110.499-137.756-110.499z"/><path stroke="url(#paint3_linear_1_7605)" stroke-dasharray="10 10" stroke-width="5" d="M259.74 153.349s56.95-110.5 137.756-110.5"/><path stroke="#fff" stroke-width="9" d="M259.739 153.246S214.892 42.747 121.984 42.747C64.774 42.747 11 92.22 11 153.246m248.74.002s44.846 110.499 137.755 110.499"/><path stroke="url(#paint4_linear_1_7605)" stroke-width="5" d="M259.739 153.246S214.892 42.747 121.984 42.747C64.774 42.747 11 92.22 11 153.246"/><path stroke="#fbab3f" stroke-width="5" d="M259.74 153.248s44.846 110.499 137.755 110.499"/><path fill="#fff" d="M262.536 215.53c34.299 0 62.103-27.805 62.103-62.104s-27.804-62.104-62.103-62.104-62.104 27.805-62.104 62.104 27.804 62.104 62.104 62.104"/><path fill="url(#paint5_linear_1_7605)" fill-rule="evenodd" d="M362.32 82.568H163.331a10.064 10.064 0 0 0-10.03 9.944v130.885h219.047V92.514a10.05 10.05 0 0 0-10.028-9.946" clip-rule="evenodd"/><path fill="#fff" d="M363.081 98.216H162.057v117.15h201.024z"/><path fill="url(#paint6_linear_1_7605)" fill-rule="evenodd" d="M380.998 233.493H144.484c-12.295 0-20.574-1.885-20.574-3.679v-5.454a1.1 1.1 0 0 1 1.201-.974H400.37a1.1 1.1 0 0 1 1.203.974v5.668c0 1.421-6.416 3.465-20.575 3.465" clip-rule="evenodd"/><path fill="#a8cbff" fill-rule="evenodd" d="M401.572 230.028c0 1.418-6.416 3.464-20.575 3.464H144.483c-12.295 0-20.575-1.885-20.575-3.679z" clip-rule="evenodd"/><path fill="#f6821f" fill-rule="evenodd" d="M292.901 223.788v1.239c0 .883-1.739 1.149-3.054 1.149h-53.989c-1.384 0-3.135-.266-3.135-1.149v-1.239" clip-rule="evenodd"/><path fill="#f6821f" d="M380.996 234.129H144.485c-10.535 0-21.2-1.478-21.2-4.304v-5.454a1.726 1.726 0 0 1 1.828-1.599H400.37a1.73 1.73 0 0 1 1.828 1.599v5.668c-.005 2.447-8.526 4.09-21.202 4.09m-255.885-10.107c-.33 0-.576.184-.576.349v5.452c.167.865 6.349 3.053 19.949 3.053h236.512c14.408 0 19.669-2.106 19.956-2.876l-.005-5.633c0-.164-.25-.348-.577-.348z"/><path fill="#f6821f" stroke="#f6821f" d="M400.369 222.773h-27.616V92.516a10.623 10.623 0 0 0-10.655-10.569H163.11a10.625 10.625 0 0 0-10.655 10.569v130.257h-27.344a1.724 1.724 0 0 0-1.828 1.599v5.452c0 2.825 10.666 4.304 21.2 4.304h236.512c12.676 0 21.197-1.643 21.2-4.09v-5.668a1.73 1.73 0 0 0-1.826-1.597zM153.706 92.516a9.485 9.485 0 0 1 9.404-9.318h198.992a9.374 9.374 0 0 1 9.405 9.318v130.257H153.706zm227.289 140.363H144.484c-13.601 0-19.782-2.188-19.949-3.053v-5.454c0-.165.247-.348.577-.348h275.257c.33 0 .578.183.578.348l.005 5.633c-.288.768-5.549 2.874-19.957 2.874z"/><path fill="url(#paint7_linear_1_7605)" d="M353.705 108.27H171.514v99.061h182.191z"/><path fill="url(#paint8_linear_1_7605)" d="M359.619 134.319h-53.494a3.723 3.723 0 0 0-3.723 3.723v105.277a3.723 3.723 0 0 0 3.723 3.723h53.494a3.723 3.723 0 0 0 3.723-3.723V138.042a3.723 3.723 0 0 0-3.723-3.723"/><path fill="#0354db" stroke="#f6821f" d="M359.62 247.511h-53.494a4.2 4.2 0 0 1-4.188-4.19V138.042a4.2 4.2 0 0 1 1.228-2.961 4.2 4.2 0 0 1 2.96-1.229h53.494a4.2 4.2 0 0 1 4.19 4.19v105.276a4.2 4.2 0 0 1-4.19 4.193zm-53.494-112.724a3.26 3.26 0 0 0-3.251 3.252v105.279a3.253 3.253 0 0 0 3.251 3.252h53.494a3.26 3.26 0 0 0 3.252-3.252V138.042a3.26 3.26 0 0 0-3.252-3.252z"/><path fill="#fff" d="M359.833 144.871H305.91v94.29h53.923z"/><path fill="#f63" d="M337.349 139.546h-10.033a.755.755 0 0 0 0 1.508h10.033a.753.753 0 1 0 0-1.508m-13.623 2.028a1.274 1.274 0 1 0 0-2.549 1.274 1.274 0 0 0 0 2.549"/><path fill="#fff" d="M335.321 209.832c10.646 0 19.277-8.63 19.277-19.276s-8.631-19.276-19.277-19.276c-10.645 0-19.276 8.63-19.276 19.276s8.631 19.276 19.276 19.276"/><path fill="url(#paint9_linear_1_7605)" d="M356.475 151.913h-47.106v81.05h47.106z"/><path fill="#fff" stroke="#f6821f" stroke-width="2" d="M293.726 170.332h-61.427v11.592h61.427zm57.764 29.449h-35.377v5.929h35.377zm-57.764-10.761h-61.427v11.591h61.427zm57.764 23.219h-35.377v5.929h35.377z"/><path fill="#fff" stroke="#f6821f" stroke-miterlimit="10" stroke-width="2" d="M333.66 193.058c8.11 0 14.684-6.574 14.684-14.684s-6.574-14.684-14.684-14.684-14.683 6.575-14.683 14.684c0 8.11 6.574 14.684 14.683 14.684z"/><path fill="#f6a86f" stroke="#911475" stroke-miterlimit="10" d="M329.025 186.023c.764-.42 1.473-.936 2.108-1.534v-3.875l5.105.06v3.645c.233.453 1.113 1.01 2.287 1.669 0 0-2.184 3.258-4.928 3.258s-4.572-3.223-4.572-3.223z"/><path fill="#f6821f" stroke="#911475" stroke-miterlimit="10" d="M333.659 193.058a14.63 14.63 0 0 0 9.859-3.802 22.8 22.8 0 0 0-4.964-3.242s-2.212 3.232-4.956 3.232-4.587-3.191-4.587-3.191c-1.684.949-3.75 1.843-5.298 3.118a14.63 14.63 0 0 0 9.946 3.885z"/><path fill="#911475" stroke="#911475" stroke-width="2" d="M337.77 167.847c0 .19-.562.336-.587.519-.026.182.471.486.419.664s-.632.162-.708.33c-.076.169.315.601.216.757-.1.156-.651-.026-.771.115-.121.141.136.665-.004.787-.139.122-.617-.209-.773-.108-.155.101-.053.677-.222.755s-.532-.377-.71-.324c-.179.053-.24.634-.425.66s-.404-.513-.592-.513-.411.54-.591.513c-.18-.026-.249-.608-.425-.66-.175-.052-.542.401-.711.324s-.067-.654-.222-.755-.634.23-.773.108.118-.647-.003-.788c-.121-.14-.671.043-.772-.115-.1-.157.294-.585.216-.756s-.655-.149-.708-.33.444-.477.42-.664-.587-.33-.587-.519.561-.336.587-.519-.471-.487-.42-.664c.052-.177.632-.162.709-.331.077-.168-.316-.6-.216-.757.1-.156.65.026.771-.114s-.136-.665.004-.788c.139-.122.617.21.772.109s.053-.677.223-.755c.169-.078.531.376.71.324.179-.053.24-.634.425-.661s.404.514.591.514c.188 0 .411-.54.592-.514.18.026.249.608.425.661.175.052.542-.401.711-.324s.067.654.222.755.633-.23.772-.108-.118.647.004.787c.121.14.671-.042.771.115.101.157-.293.586-.215.757s.655.149.707.33-.443.477-.419.664c.024.186.587.329.587.519z"/><path fill="#f6a86f" stroke="#911475" stroke-miterlimit="10" d="M338.527 176.122a.815.815 0 0 1 1.055-.565c.638.192.279 2.51-1.504 2.428a17 17 0 0 0 .449-1.863zm-9.738 0a.83.83 0 0 0-.421-.522.83.83 0 0 0-.669-.043c-.557.226-.279 2.51 1.506 2.428a15 15 0 0 1-.416-1.863z"/><path fill="#f6a86f" stroke="#911475" stroke-miterlimit="10" d="M338.759 173.994c0 1.324-.484 4.02-1.335 5.647-.632 1.209-2.26 2.554-3.74 2.554-1.479 0-2.94-1.345-3.739-2.553-1.013-1.532-1.336-4.324-1.336-5.648a5.074 5.074 0 0 1 5.075-5.075 5.076 5.076 0 0 1 5.075 5.075z"/><path fill="#911475" stroke="#911475" stroke-linejoin="round" stroke-width=".505" d="M338.498 175.66c-.238-2.016-4.62-1.715-5.464-3.972 0 0 0 1.421-1.124 2.257-.864.642-1.969.273-1.969.273s1.106.088 1.687-.843c.536-.859.282-1.687.282-1.687-1.921.288-2.894 1.969-3.12 4.384l-.087-.087a14.6 14.6 0 0 1-.18-2.127c0-2.803 2.359-4.989 5.162-4.989a5.15 5.15 0 0 1 5.162 5.076 10.6 10.6 0 0 1-.286 2.067z"/><path stroke="#f6821f" stroke-miterlimit="10" stroke-width="3" d="M333.66 193.058c8.11 0 14.684-6.574 14.684-14.684s-6.574-14.684-14.684-14.684-14.683 6.575-14.683 14.684c0 8.11 6.574 14.684 14.683 14.684z"/><path stroke="#fdd39a" stroke-width="5" d="M261.835 155.531S216.096 42.832 121.338 42.832"/><path stroke="#fff" stroke-linecap="round" stroke-linejoin="round" stroke-width="8" d="m143.352 241.497 29.26 7.84-7.84 29.259M388.31 62.52l-28.074-11.378 11.377-28.074"/><path stroke="#f97727" stroke-width="5" d="m149.205 248.078 17.541 4.701-4.7 17.542"/><path stroke="#ff6732" stroke-width="5" d="m386.681 54.804-16.742-7.038 7.037-16.742"/><path fill="#fff" stroke="#f6821f" stroke-miterlimit="10" stroke-width="2" d="M263.032 161.768c13.817 0 25.017-11.201 25.017-25.017 0-13.817-11.2-25.017-25.017-25.017s-25.016 11.2-25.016 25.017 11.2 25.017 25.016 25.017z"/><path fill="#f6a86f" stroke="#911475" stroke-miterlimit="10" d="M255.139 149.783a17.6 17.6 0 0 0 3.592-2.613v-6.603l8.697.103v6.21c.397.772 1.896 1.72 3.897 2.843 0 0-3.722 5.551-8.397 5.551s-7.789-5.491-7.789-5.491z"/><path fill="#f6821f" stroke="#911475" stroke-miterlimit="10" d="M263.032 161.768c6.21.009 12.2-2.301 16.796-6.477a39 39 0 0 0-8.457-5.524s-3.769 5.507-8.444 5.507c-4.674 0-7.814-5.437-7.814-5.437-2.869 1.618-6.389 3.141-9.027 5.313a24.93 24.93 0 0 0 16.946 6.618z"/><path fill="#911475" stroke="#911475" d="M271.546 119.878c0 .371-1.1.659-1.15 1.016s.923.953.822 1.301c-.101.349-1.238.317-1.388.648-.149.33.618 1.176.423 1.482s-1.274-.051-1.511.225.267 1.304-.006 1.543c-.274.239-1.209-.41-1.514-.212s-.105 1.326-.436 1.479-1.043-.739-1.392-.634c-.35.104-.47 1.241-.832 1.293s-.792-1.007-1.159-1.007-.805 1.058-1.159 1.007c-.353-.052-.488-1.192-.832-1.293-.344-.102-1.062.785-1.393.633-.331-.151-.132-1.281-.436-1.478-.303-.197-1.24.451-1.514.212-.273-.239.231-1.268-.005-1.544s-1.315.083-1.512-.225.574-1.148.423-1.482c-.152-.335-1.285-.293-1.387-.647s.869-.935.822-1.301c-.048-.367-1.15-.646-1.15-1.016 0-.371 1.099-.659 1.15-1.017s-.923-.954-.822-1.301 1.237-.317 1.387-.648c.151-.33-.618-1.176-.422-1.483.196-.306 1.274.051 1.511-.224s-.267-1.304.006-1.543c.274-.24 1.209.41 1.513.212.305-.198.106-1.326.437-1.479s1.042.738 1.392.635c.351-.104.47-1.241.832-1.294s.792 1.006 1.159 1.006.805-1.057 1.159-1.006c.353.051.488 1.191.832 1.294s1.062-.786 1.393-.635.132 1.282.436 1.479c.303.197 1.24-.45 1.513-.211.272.238-.231 1.267.006 1.542s1.315-.083 1.512.225c.197.309-.574 1.149-.423 1.483.152.335 1.285.293 1.387.647s-.869.935-.822 1.301 1.15.645 1.15 1.017z"/><path fill="#f6a86f" stroke="#911475" stroke-miterlimit="10" d="M271.326 132.913a1.38 1.38 0 0 1 1.798-.962c1.087.328.475 4.276-2.563 4.136q.473-1.565.765-3.174zm-16.593.001a1.4 1.4 0 0 0-.717-.888 1.42 1.42 0 0 0-1.14-.074c-.948.384-.476 4.276 2.565 4.136a25 25 0 0 1-.708-3.174z"/><path fill="#f6a86f" stroke="#911475" stroke-miterlimit="10" d="M271.719 129.289c0 2.255-.826 6.848-2.276 9.621-1.076 2.059-3.849 4.35-6.37 4.35s-5.009-2.291-6.371-4.349c-1.726-2.61-2.276-7.367-2.276-9.622a8.646 8.646 0 0 1 17.293 0z"/><path fill="#911475" stroke="#911475" stroke-linejoin="round" stroke-width=".505" d="M271.273 132.128c-.405-3.436-7.872-2.923-9.309-6.768 0 0 0 2.421-1.916 3.845-1.47 1.094-3.353.466-3.353.466s1.884.15 2.874-1.437c.914-1.463.479-2.874.479-2.874-3.272.491-4.93 3.354-5.315 7.469l-.148-.148a25 25 0 0 1-.306-3.624c0-4.776 4.019-8.499 8.794-8.499a8.77 8.77 0 0 1 8.794 8.647 18 18 0 0 1-.486 3.521z"/><path stroke="#f6821f" stroke-miterlimit="10" stroke-width="3" d="M263.032 161.768c13.817 0 25.017-11.201 25.017-25.017 0-13.817-11.2-25.017-25.017-25.017s-25.016 11.2-25.016 25.017 11.2 25.017 25.016 25.017z"/></g><defs><linearGradient id="paint0_linear_1_7605" x1="366.002" x2="32.502" y1="394.498" y2="58.998" gradientUnits="userSpaceOnUse"><stop stop-color="#911475"/><stop offset=".25" stop-color="#ce2f55"/><stop offset=".5" stop-color="#f63"/><stop offset=".612" stop-color="#f6821f"/><stop offset=".838" stop-color="#fbad41"/><stop offset="1" stop-color="#ffe9cb"/></linearGradient><linearGradient id="paint1_linear_1_7605" x1="209.5" x2="125.5" y1="246" y2="274.5" gradientUnits="userSpaceOnUse"><stop stop-color="#ffe9cb"/><stop offset=".75" stop-color="#f6821f"/><stop offset="1" stop-color="#fbad41"/></linearGradient><linearGradient id="paint2_linear_1_7605" x1="423" x2="508" y1="277" y2="43" gradientUnits="userSpaceOnUse"><stop offset=".021" stop-color="#fbad41"/><stop offset=".412" stop-color="#f6821f"/><stop offset=".714" stop-color="#f63"/><stop offset="1" stop-color="#ce2f55"/></linearGradient><linearGradient id="paint3_linear_1_7605" x1="359" x2="411.5" y1="103" y2="43" gradientUnits="userSpaceOnUse"><stop offset=".021" stop-color="#fbad41"/><stop offset=".412" stop-color="#f6821f"/><stop offset=".714" stop-color="#f63"/><stop offset="1" stop-color="#ce2f55"/></linearGradient><linearGradient id="paint4_linear_1_7605" x1="126" x2="15.5" y1="164.5" y2="34" gradientUnits="userSpaceOnUse"><stop stop-color="#f63"/><stop offset=".152" stop-color="#f6821f"/><stop offset=".277" stop-color="#fbad41"/><stop offset=".871" stop-color="#fff8ee"/><stop offset="1" stop-color="#fff"/></linearGradient><linearGradient id="paint5_linear_1_7605" x1="315.669" x2="300.449" y1="82.568" y2="205.537" gradientUnits="userSpaceOnUse"><stop stop-color="#e0edff"/><stop offset="1" stop-color="#fff"/></linearGradient><linearGradient id="paint6_linear_1_7605" x1="329.728" x2="329.665" y1="223.381" y2="232.345" gradientUnits="userSpaceOnUse"><stop stop-color="#e0edff"/><stop offset="1" stop-color="#fff"/></linearGradient><linearGradient id="paint7_linear_1_7605" x1="263" x2="163.5" y1="165.5" y2="117.5" gradientUnits="userSpaceOnUse"><stop stop-color="#fce8ce"/><stop offset="1" stop-color="#fff5c2" stop-opacity=".62"/></linearGradient><linearGradient id="paint8_linear_1_7605" x1="347.574" x2="315.991" y1="134.319" y2="223.007" gradientUnits="userSpaceOnUse"><stop stop-color="#e0edff"/><stop offset="1" stop-color="#fff"/></linearGradient><linearGradient id="paint9_linear_1_7605" x1="356" x2="274" y1="192" y2="132.5" gradientUnits="userSpaceOnUse"><stop stop-color="#ffe9cb"/><stop offset="1" stop-color="#fff5c2"/></linearGradient><clipPath id="clip0_1_7605"><path fill="#fff" d="M0 0h519v307H0z"/></clipPath></defs></svg>