<?xml version="1.0" encoding="UTF-8"?>
<svg width="180px" height="160px" viewBox="0 0 180 160" version="1.1" xmlns="http://www.w3.org/2000/svg" xmlns:xlink="http://www.w3.org/1999/xlink">
    <!-- Generator: Sketch 51.3 (57544) - http://www.bohemiancoding.com/sketch -->
    <title>unlimited</title>
    <desc>Created with Sketch.</desc>
    <defs></defs>
    <g id="unlimited" stroke="none" stroke-width="1" fill="none" fill-rule="evenodd">
        <g id="griddable-hexagon-grayscale" opacity="0.35" transform="translate(2.000000, 38.000000)" fill="#F4F4F7" stroke="#D7DADF">
            <polygon id="hexagon" points="6 0 7.10542736e-15 10 6 20 18.0454149 20 24 10 18.0454149 0"></polygon>
        </g>
        <g id="griddable-hexagon-grayscale" transform="translate(2.000000, 58.000000)" fill="#F4F4F7" stroke="#D7DADF">
            <polygon id="hexagon" points="6 0 7.10542736e-15 10 6 20 18.0454149 20 24 10 18.0454149 0"></polygon>
        </g>
        <g id="griddable-hexagon-grayscale" transform="translate(20.000000, 28.000000)" fill="#F4F4F7" stroke="#D7DADF">
            <polygon id="hexagon" points="6 0 7.10542736e-15 10 6 20 18.0454149 20 24 10 18.0454149 0"></polygon>
        </g>
        <g id="griddable-hexagon-grayscale" transform="translate(38.000000, 38.000000)" fill="#F4F4F7" stroke="#D7DADF">
            <polygon id="hexagon" points="6 0 7.10542736e-15 10 6 20 18.0454149 20 24 10 18.0454149 0"></polygon>
        </g>
        <g id="griddable-hexagon-grayscale" transform="translate(38.000000, 18.000000)" fill="#F4F4F7" stroke="#D7DADF">
            <polygon id="hexagon" points="6 0 7.10542736e-15 10 6 20 18.0454149 20 24 10 18.0454149 0"></polygon>
        </g>
        <g id="griddable-hexagon-grayscale" transform="translate(38.000000, 58.000000)" fill="#F4F4F7" stroke="#D7DADF">
            <polygon id="hexagon" points="6 0 7.10542736e-15 10 6 20 18.0454149 20 24 10 18.0454149 0"></polygon>
        </g>
        <g id="griddable-hexagon-grayscale" transform="translate(20.000000, 68.000000)" fill="#F4F4F7" stroke="#D7DADF">
            <polygon id="hexagon" points="6 0 7.10542736e-15 10 6 20 18.0454149 20 24 10 18.0454149 0"></polygon>
        </g>
        <g id="griddable-hexagon-grayscale" opacity="0.3" transform="translate(2.000000, 78.000000)" fill="#F4F4F7" stroke="#D7DADF">
            <polygon id="hexagon" points="6 0 7.10542736e-15 10 6 20 18.0454149 20 24 10 18.0454149 0"></polygon>
        </g>
        <g id="griddable-hexagon" transform="translate(2.000000, 118.000000)" fill="#FEECD6" stroke="#FFC88C">
            <polygon id="hexagon" points="6 0 7.10542736e-15 10 6 20 18.0454149 20 24 10 18.0454149 0"></polygon>
        </g>
        <g id="griddable-hexagon" transform="translate(2.000000, 98.000000)" fill="#FEECD6" stroke="#FFC88C">
            <polygon id="hexagon" points="6 0 7.10542736e-15 10 6 20 18.0454149 20 24 10 18.0454149 0"></polygon>
        </g>
        <g id="griddable-hexagon" opacity="0.3" transform="translate(20.000000, 108.000000)" fill="#FEECD6" stroke="#FFC88C">
            <polygon id="hexagon" points="6 0 7.10542736e-15 10 6 20 18.0454149 20 24 10 18.0454149 0"></polygon>
        </g>
        <g id="griddable-hexagon" opacity="0.3" transform="translate(20.000000, 128.000000)" fill="#FEECD6" stroke="#FFC88C">
            <polygon id="hexagon" points="6 0 7.10542736e-15 10 6 20 18.0454149 20 24 10 18.0454149 0"></polygon>
        </g>
        <g id="griddable-hexagon" transform="translate(38.000000, 138.000000)" fill="#FEECD6" stroke="#FFC88C">
            <polygon id="hexagon" points="6 0 7.10542736e-15 10 6 20 18.0454149 20 24 10 18.0454149 0"></polygon>
        </g>
        <g id="griddable-hexagon" transform="translate(38.000000, 118.000000)" fill="#FEECD6" stroke="#FFC88C">
            <polygon id="hexagon" points="6 0 7.10542736e-15 10 6 20 18.0454149 20 24 10 18.0454149 0"></polygon>
        </g>
        <g id="griddable-hexagon" transform="translate(38.000000, 78.000000)" fill="#FEECD6" stroke="#FFC88C">
            <polygon id="hexagon" points="6 0 7.10542736e-15 10 6 20 18.0454149 20 24 10 18.0454149 0"></polygon>
        </g>
        <g id="griddable-hexagon" opacity="0.3" transform="translate(20.000000, 88.000000)" fill="#FEECD6" stroke="#FFC88C">
            <polygon id="hexagon" points="6 0 7.10542736e-15 10 6 20 18.0454149 20 24 10 18.0454149 0"></polygon>
        </g>
        <g id="griddable-hexagon-grayscale" transform="translate(56.000000, 8.000000)" fill="#F4F4F7" stroke="#D7DADF">
            <polygon id="hexagon" points="6 0 7.10542736e-15 10 6 20 18.0454149 20 24 10 18.0454149 0"></polygon>
        </g>
        <g id="griddable-hexagon-grayscale" transform="translate(56.000000, 48.000000)" fill="#F4F4F7" stroke="#D7DADF">
            <polygon id="hexagon" points="6 0 7.10542736e-15 10 6 20 18.0454149 20 24 10 18.0454149 0"></polygon>
        </g>
        <g id="griddable-hexagon-grayscale" transform="translate(74.000000, 38.000000)" fill="#F4F4F7" stroke="#D7DADF">
            <polygon id="hexagon" points="6 0 7.10542736e-15 10 6 20 18.0454149 20 24 10 18.0454149 0"></polygon>
        </g>
        <g id="griddable-hexagon-grayscale" opacity="0.35" transform="translate(74.000000, 18.000000)" fill="#F4F4F7" stroke="#D7DADF">
            <polygon id="hexagon" points="6 0 7.10542736e-15 10 6 20 18.0454149 20 24 10 18.0454149 0"></polygon>
        </g>
        <g id="griddable-hexagon" transform="translate(74.000000, 58.000000)" fill="#FEECD6" stroke="#FFC88C">
            <polygon id="hexagon" points="6 0 7.10542736e-15 10 6 20 18.0454149 20 24 10 18.0454149 0"></polygon>
        </g>
        <g id="griddable-hexagon" opacity="0.35" transform="translate(56.000000, 108.000000)" fill="#FEECD6" stroke="#FFC88C">
            <polygon id="hexagon" points="6 0 7.10542736e-15 10 6 20 18.0454149 20 24 10 18.0454149 0"></polygon>
        </g>
        <g id="griddable-hexagon" transform="translate(56.000000, 128.000000)" fill="#FEECD6" stroke="#FFC88C">
            <polygon id="hexagon" points="6 0 7.10542736e-15 10 6 20 18.0454149 20 24 10 18.0454149 0"></polygon>
        </g>
        <g id="griddable-hexagon" opacity="0.3" transform="translate(74.000000, 118.000000)" fill="#FEECD6" stroke="#FFC88C">
            <polygon id="hexagon" points="6 0 7.10542736e-15 10 6 20 18.0454149 20 24 10 18.0454149 0"></polygon>
        </g>
        <g id="griddable-hexagon" opacity="0.35" transform="translate(74.000000, 78.000000)" fill="#FEECD6" stroke="#FFC88C">
            <polygon id="hexagon" points="6 0 7.10542736e-15 10 6 20 18.0454149 20 24 10 18.0454149 0"></polygon>
        </g>
        <g id="griddable-hexagon" transform="translate(56.000000, 88.000000)" fill="#FEECD6" stroke="#FFC88C">
            <polygon id="hexagon" points="6 0 7.10542736e-15 10 6 20 18.0454149 20 24 10 18.0454149 0"></polygon>
        </g>
        <g id="griddable-hexagon" transform="translate(74.000000, 98.000000)" fill="#FEECD6" stroke="#FFC88C">
            <polygon id="hexagon" points="6 0 7.10542736e-15 10 6 20 18.0454149 20 24 10 18.0454149 0"></polygon>
        </g>
        <g id="griddable-hexagon-grayscale" transform="translate(92.000000, 28.000000)" fill="#F4F4F7" stroke="#D7DADF">
            <polygon id="hexagon" points="6 0 7.10542736e-15 10 6 20 18.0454149 20 24 10 18.0454149 0"></polygon>
        </g>
        <g id="griddable-hexagon" transform="translate(110.000000, 38.000000)" fill="#FEECD6" stroke="#FFC88C">
            <polygon id="hexagon" points="6 0 7.10542736e-15 10 6 20 18.0454149 20 24 10 18.0454149 0"></polygon>
        </g>
        <g id="griddable-hexagon-logo-grayscale" transform="translate(110.000000, 18.000000)">
            <polygon id="hexagon" fill="#D7DADF" points="6 0 8.32667268e-15 10 6 20 12.0454149 20 6 10 12.0454149 0"></polygon>
            <polygon id="hexagon" fill="#F4F4F7" points="6 0 12 10 6 20 12 20 18 10 12 0"></polygon>
            <polygon id="hexagon" fill="#D7DADF" points="12 0 18 10 12 20 18.0454149 20 24 10 18.0454149 0"></polygon>
        </g>
        <g id="griddable-hexagon" opacity="0.35" transform="translate(128.000000, 28.000000)" fill="#FEECD6" stroke="#FFC88C">
            <polygon id="hexagon" points="6 0 7.10542736e-15 10 6 20 18.0454149 20 24 10 18.0454149 0"></polygon>
        </g>
        <g id="griddable-hexagon" transform="translate(128.000000, 48.000000)" fill="#FEECD6" stroke="#FFC88C">
            <polygon id="hexagon" points="6 0 7.10542736e-15 10 6 20 18.0454149 20 24 10 18.0454149 0"></polygon>
        </g>
        <g id="griddable-hexagon" opacity="0.35" transform="translate(110.000000, 58.000000)" fill="#FEECD6" stroke="#FFC88C">
            <polygon id="hexagon" points="6 0 7.10542736e-15 10 6 20 18.0454149 20 24 10 18.0454149 0"></polygon>
        </g>
        <g id="griddable-hexagon" transform="translate(92.000000, 68.000000)" fill="#FEECD6" stroke="#FFC88C">
            <polygon id="hexagon" points="6 0 7.10542736e-15 10 6 20 18.0454149 20 24 10 18.0454149 0"></polygon>
        </g>
        <g id="griddable-hexagon" opacity="0.3" transform="translate(92.000000, 108.000000)" fill="#FEECD6" stroke="#FFC88C">
            <polygon id="hexagon" points="6 0 7.10542736e-15 10 6 20 18.0454149 20 24 10 18.0454149 0"></polygon>
        </g>
        <g id="griddable-hexagon" opacity="0.35" transform="translate(128.000000, 108.000000)" fill="#FEECD6" stroke="#FFC88C">
            <polygon id="hexagon" points="6 0 7.10542736e-15 10 6 20 18.0454149 20 24 10 18.0454149 0"></polygon>
        </g>
        <g id="griddable-hexagon" opacity="0.35" transform="translate(146.000000, 98.000000)" fill="#FEECD6" stroke="#FFC88C">
            <polygon id="hexagon" points="6 0 7.10542736e-15 10 6 20 18.0454149 20 24 10 18.0454149 0"></polygon>
        </g>
        <g id="griddable-hexagon" opacity="0.3" transform="translate(128.000000, 68.000000)" fill="#FEECD6" stroke="#FFC88C">
            <polygon id="hexagon" points="6 0 7.10542736e-15 10 6 20 18.0454149 20 24 10 18.0454149 0"></polygon>
        </g>
        <g id="griddable-hexagon" transform="translate(110.000000, 78.000000)" fill="#FEECD6" stroke="#FFC88C">
            <polygon id="hexagon" points="6 0 7.10542736e-15 10 6 20 18.0454149 20 24 10 18.0454149 0"></polygon>
        </g>
        <g id="griddable-hexagon" transform="translate(146.000000, 18.000000)" fill="#FEECD6" stroke="#FFC88C">
            <polygon id="hexagon" points="6 0 7.10542736e-15 10 6 20 18.0454149 20 24 10 18.0454149 0"></polygon>
        </g>
        <g id="griddable-hexagon" transform="translate(146.000000, 78.000000)" fill="#FEECD6" stroke="#FFC88C">
            <polygon id="hexagon" points="6 0 7.10542736e-15 10 6 20 18.0454149 20 24 10 18.0454149 0"></polygon>
        </g>
        <g id="griddable-hexagon" transform="translate(146.000000, 58.000000)" fill="#FEECD6" stroke="#FFC88C">
            <polygon id="hexagon" points="6 0 7.10542736e-15 10 6 20 18.0454149 20 24 10 18.0454149 0"></polygon>
        </g>
        <g id="griddable-hexagon-logo" transform="translate(92.000000, 128.000000)">
            <polygon id="hexagon" fill="#F7A245" points="6 0 8.32667268e-15 10 6 20 12.0454149 20 6 10 12.0454149 0"></polygon>
            <polygon id="hexagon" fill="#F2D0A6" points="6 0 12 10 6 20 12 20 18 10 12 0"></polygon>
            <polygon id="hexagon" fill="#F7A245" points="12 0 18 10 12 20 18.0454149 20 24 10 18.0454149 0"></polygon>
        </g>
        <g id="griddable-hexagon-logo-grayscale" transform="translate(20.000000, 48.000000)">
            <polygon id="hexagon" fill="#D7DADF" points="6 0 8.32667268e-15 10 6 20 12.0454149 20 6 10 12.0454149 0"></polygon>
            <polygon id="hexagon" fill="#F4F4F7" points="6 0 12 10 6 20 12 20 18 10 12 0"></polygon>
            <polygon id="hexagon" fill="#D7DADF" points="12 0 18 10 12 20 18.0454149 20 24 10 18.0454149 0"></polygon>
        </g>
        <g id="griddable-hexagon-logo" transform="translate(38.000000, 98.000000)">
            <polygon id="hexagon" fill="#F7A245" points="6 0 8.32667268e-15 10 6 20 12.0454149 20 6 10 12.0454149 0"></polygon>
            <polygon id="hexagon" fill="#F2D0A6" points="6 0 12 10 6 20 12 20 18 10 12 0"></polygon>
            <polygon id="hexagon" fill="#F7A245" points="12 0 18 10 12 20 18.0454149 20 24 10 18.0454149 0"></polygon>
        </g>
        <g id="griddable-hexagon-logo-grayscale" transform="translate(56.000000, 28.000000)">
            <polygon id="hexagon" fill="#D7DADF" points="6 0 8.32667268e-15 10 6 20 12.0454149 20 6 10 12.0454149 0"></polygon>
            <polygon id="hexagon" fill="#F4F4F7" points="6 0 12 10 6 20 12 20 18 10 12 0"></polygon>
            <polygon id="hexagon" fill="#D7DADF" points="12 0 18 10 12 20 18.0454149 20 24 10 18.0454149 0"></polygon>
        </g>
        <g id="griddable-hexagon-logo" transform="translate(56.000000, 68.000000)">
            <polygon id="hexagon" fill="#F7A245" points="6 0 8.32667268e-15 10 6 20 12.0454149 20 6 10 12.0454149 0"></polygon>
            <polygon id="hexagon" fill="#F2D0A6" points="6 0 12 10 6 20 12 20 18 10 12 0"></polygon>
            <polygon id="hexagon" fill="#F7A245" points="12 0 18 10 12 20 18.0454149 20 24 10 18.0454149 0"></polygon>
        </g>
        <g id="griddable-hexagon-logo" transform="translate(92.000000, 48.000000)">
            <polygon id="hexagon" fill="#F7A245" points="6 0 8.32667268e-15 10 6 20 12.0454149 20 6 10 12.0454149 0"></polygon>
            <polygon id="hexagon" fill="#F2D0A6" points="6 0 12 10 6 20 12 20 18 10 12 0"></polygon>
            <polygon id="hexagon" fill="#F7A245" points="12 0 18 10 12 20 18.0454149 20 24 10 18.0454149 0"></polygon>
        </g>
        <g id="griddable-hexagon-grayscale" transform="translate(128.000000, 8.000000)" fill="#F4F4F7" stroke="#D7DADF">
            <polygon id="hexagon" points="6 0 7.10542736e-15 10 6 20 18.0454149 20 24 10 18.0454149 0"></polygon>
        </g>
        <g id="griddable-hexagon-logo" transform="translate(92.000000, 88.000000)">
            <polygon id="hexagon" fill="#F7A245" points="6 0 8.32667268e-15 10 6 20 12.0454149 20 6 10 12.0454149 0"></polygon>
            <polygon id="hexagon" fill="#F2D0A6" points="6 0 12 10 6 20 12 20 18 10 12 0"></polygon>
            <polygon id="hexagon" fill="#F7A245" points="12 0 18 10 12 20 18.0454149 20 24 10 18.0454149 0"></polygon>
        </g>
        <g id="griddable-hexagon" transform="translate(110.000000, 118.000000)" fill="#FEECD6" stroke="#FFC88C">
            <polygon id="hexagon" points="6 0 7.10542736e-15 10 6 20 18.0454149 20 24 10 18.0454149 0"></polygon>
        </g>
        <g id="griddable-hexagon-logo" transform="translate(128.000000, 88.000000)">
            <polygon id="hexagon" fill="#F7A245" points="6 0 8.32667268e-15 10 6 20 12.0454149 20 6 10 12.0454149 0"></polygon>
            <polygon id="hexagon" fill="#F2D0A6" points="6 0 12 10 6 20 12 20 18 10 12 0"></polygon>
            <polygon id="hexagon" fill="#F7A245" points="12 0 18 10 12 20 18.0454149 20 24 10 18.0454149 0"></polygon>
        </g>
        <g id="griddable-hexagon-logo" transform="translate(146.000000, 38.000000)">
            <polygon id="hexagon" fill="#F7A245" points="6 0 8.32667268e-15 10 6 20 12.0454149 20 6 10 12.0454149 0"></polygon>
            <polygon id="hexagon" fill="#F2D0A6" points="6 0 12 10 6 20 12 20 18 10 12 0"></polygon>
            <polygon id="hexagon" fill="#F7A245" points="12 0 18 10 12 20 18.0454149 20 24 10 18.0454149 0"></polygon>
        </g>
    </g>
</svg>