<svg width="271px" height="160px" xmlns="http://www.w3.org/2000/svg" viewBox="0 0 271 160">
  <title>Cloudflare’s global network</title>
  <defs>
    <linearGradient id="CloudflareWorkersIllustrationGlobalNetwork--gradient" x1="86.98%" x2="13.69%" y1="0%" y2="100%">
      <stop offset="0%" stop-color="#faae40"/>
      <stop offset="100%" stop-color="#f38020"/>
    </linearGradient>
  </defs>
  <path fill="#523e28" d="M76.12 16.66c-1.8-.08-1.88-1.52-1.88-1.52-1.1.08-1.4-.38-.72-1.23.68-.85-.56-.51-1.07-.9-.51-.37-.8-1.4.21-1.69 1.03-.3 1.7-.5 1.84-1.01.12-.51 2.17-.09 2.8-.94.65-.84-1.52-.89-1.57-1.56-.04-.68 3.2-2.04 3.88-2.25.68-.21.81-1.27 2.51-2 1.7-.71 3.75-.2 4.52.05.77.25.73-.3.85-.68.13-.38 2.35-.2 2.52-.55.17-.34 1.45-.97 4.05-.97 2.6 0 4.13-1.23 7.88-1.4a8.86 8.86 0 0 1 6.14 2.12s1.7-.26 2.47 0c.77.25-.72 1.27-.55 2.12.17.84 3.1 0 4.3-.64 1.2-.64 3.03.68 3.37 1.06.34.38-.13.6-1.8 1.95-1.66 1.35-4.08 3.52-4.51 4.2-.43.67.08 1.01.9 1.52.8.5 1.15 1.9 1.06 2.33-.09.42-2.22.08-2.22.47 0 .38 1.2.5 1.24.76.04.25-.04.34-.38 1.44-.34 1.1.2.55.55 1.14.34.6-1.79 2.33-2.3 3.35-.51 1.02.21 1.65.8 2.88.6 1.23-1.18 2.16-2.34 3.35-1.15 1.19-2.94.93-4.3 1.36-1.36.42-1.83.93-2.64 2.45-.81 1.53-3.84 1.87-4.77 2.33-.94.47-.86 1.57-.56 2.25.3.68-.47.47-1.2.89-.72.42-.55 2.97-.93 3.64-.38.68-1.66.56-1.83 0-.17-.55-.85-.72-1.7-.97-.86-.26-3.88-5.47-4.31-7.2-.43-1.74.55-2.93 1.3-4.03.74-1.1.4-1.44-.36-.76-.77.68-2.13.04-2.1-.85.05-.89 1.54-1.4 2.22-1.82.69-.43-.2-.9-1.57-1.57-1.37-.68-.68-.42-.81-1.86-.13-1.44-1.8-4.03-3.71-5.26-1.24-.8-2.33-.53-3.43-.26-.61.15-1.22.3-1.85.26zm-10.23-.55c-1.07-.42-2.69-.92-3.62-.29-.94.63-2.69.04-2.94-.64-.26-.68.68-.51.55-1.53-.13-1.01.34-1.1.47-1.48.13-.38-.73-.42-1.8 0-1.06.42-2.5-.76-2.76-1.61-.26-.85-2.26-1.86-2.26-2.5 0-.64 1.79-2.75 2.73-2.75.93 0 1.7 1.18 2.3 1.7.6.5 1.4 1.1 1.79.84.38-.26-.51-.04-1.28-1.15-.77-1.1-2.13-1.65-1.62-2.2.51-.55 2.69-1.31 3.92-1.27 1.24.04 1.62 1.1 2.43 0s3.28-1.65 8.95-1.65 7.84.55 7.5 1.6c-.34 1.07-2.64 1.62-3.24 2.5-.6.9-1.87 1.66-2.98 2.55a7.34 7.34 0 0 1-2.99 1.48c-.6.09-.3 1.53-1.57 2.8-1.28 1.27-1.28 1.65-1.8 2.92 0 0-.72 1.1-1.78.68zM51.6 8.14c.85-.33 1.37.48.94.75-.43.27-.94.27-.94.27s-.85-.68 0-1.02zm1.3 2.7c.79-.33 1.75.17 2.22 1.06.48.9 1.29.87 1.29 1.3 0 .42-.75.63-1.21.47-.46-.17-1.7-1.17-2.03-1.44-.34-.26-.61-.63-.61-.63s-.43-.42.35-.76zm-5.36-1.17c1.12.15 1.7.58 2.37 1.07.67.48 1.96 1.23 1.87 1.67-.1.44-1.38.59-1.96.4-.58-.2-.54-.31-1.32-.89a7.47 7.47 0 0 1-1.65-1.64s-.42-.76.7-.6zm7.95 4.79c1.54.58 3.85 2.96 4.81 2.85.97-.1 2.17.19 2.56-.2.38-.37 1.85-.62 2.61-.3.76.32 1.53 1.19 1.22 1.72-.3.53-1.57.85-4.41.84-2.85-.02-4.2-.16-4.73-.55-.52-.4-.8-2-1.63-2.69-.84-.7-2.19-.94-2.25-1.3 0 0 .28-.95 1.82-.37zm-.02 2.58c.94.32 1.1 1.32.77 1.63-.34.3-.96.64-1.6.26-.62-.38-.88-.72-.77-1.19 0 0 .67-1.02 1.6-.7zM49 15.24c.54.33.75.31 1.44.16s2.1-.2 2.25.1c.15.31.5 2.68-.38 2.83-.9.15-1.96.03-2.1-.59-.12-.62-.93-.64-1.27-1.14-.33-.5-.82-.62-1.1-.87-.27-.24-.48-.44-.29-.5 0 0 .92-.33 1.45 0zm-8.37-3c.48.14.48.01.52-.33.04-.33.74-1.63 1.48-1.31.73.31 1.6.94 1.45 1.63-.15.69-1.52 1.92-2.09 1.9-.56-.02-.86-.41-1.22-.67-.35-.25-1.23-.77-1.11-.88 0 0 .48-.5.97-.35zm-6.2 2.6c.93-.64 3.25-1.44 3.8-1.33.54.1.84.78.73 1.23-.1.44.44.96 1 .8.54-.17.96-.1 1.23.44.28.54 1.8 1.25 2.11.76.32-.5-.1-.83 0-1.27.1-.44.44-1.25 1.03-.73.6.52.57 1.03 1.06 1.13.48.1 1.32.02 1.4.48.07.46.2.99.69 1.07.47.08.64.65.52.8-.13.14-1.08.31-2.15.31-1.08 0-1.56-.25-2.38.23-.82.48-1.65 1.53-2.72.78-1.07-.76-1.4-1.07-2.52-1.34a5.55 5.55 0 0 1-2.43-1.1c-.37-.4-2.3-.41-2.33-1.12 0 0 .04-.49.97-1.13zm16.8 5.24c.85-.3 1.6-.3 1.9.64.3.95.6 1.37.73 1.96.12.58-.79 1.96-1.16 2.05-.37.08-1.72-.42-2.1-.92-.37-.5-2.38-1.51-1.31-1.97 1.06-.46 2.32.08 1.94-.25-.37-.34-1.14.16-1.05-.55 0 0 .2-.67 1.05-.96zm47.68 87.56c.93.67 2.1.88 2.27 2 .17 1.14-.8 3.31-1.9 4.57-1.09 1.26-1.8 2.56-1.68 3.9.13 1.33-.46 5.77-2.73 6.61-2.28.84-4.38 2.35-4.38 3.3 0 .97-.04 1.93-1.14 3.9-1.1 1.97-2.99 5.07-3.87 5.11-.29.02-.58-.03-.84-.08-.55-.1-.98-.2-.89.3.13.7 1.35 1.92.21 3-1.14 1.1-3.79.89-3.83 1.35-.04.46.63 1.04-.25 1.55-.89.5-1.73-.05-1.48.67.25.7 1.01 1 .46 1.84-.54.83-1.26 1.46-1.3 2-.04.55-1.4.34-1.1 1.43.3 1.09 1.52 1.55.6 2.85-.93 1.3-2.4 2.43-2.07 3.56.34 1.13 2.86 3.52 2.61 4.06-.25.54-1.98.63-3.7 0-1.73-.63-3.16-1.68-3.16-2.76 0-1.1-.17-1.72-.5-2.73-.35-1-.72-2.93 0-4.3.7-1.4.92-1.64 1.09-2.52.16-.88-.21-1.22-.17-2.43.04-1.21-.25-3.48.55-5.4.8-1.93 1.51-3.64 1.6-5.24.08-1.59 1.1-12.39.42-13.4-.68-1-4.5-2.6-4.85-4.35-.33-1.76-.67-4.02-1.55-5.65-.89-1.64-1.52-2.9-1.44-3.56.09-.67.09-.38.17-1.47.09-1.09.6-3.14 1.48-4.56.88-1.43 1.43-1.38.88-2.68-.55-1.3-.84-2.72-1.39-2.26-.55.46-1.39 1.42-2.23.37-.84-1.04-2.23-3.64-3.83-4.35-1.6-.71-3.5-.3-4.21-1.42-.72-1.13-2.11-1.31-2.78-1.27-.68.05-6.32-3.3-6.57-4.1-.26-.79-.42-1.5-.93-2.93-.5-1.42-2.78-3.22-3.62-4.94-.84-1.71-2.78-3.35-2.7-2.8.09.54 1.52 1.46 2.07 2.89.54 1.42.88 2.51 1.55 3.35.68.84 1.06 1.25.85 1.59-.21.33-2.36-.96-2.78-2.56-.42-1.59-2.45-4.02-2.66-5.02-.2-1-1.17-1.76-2.31-3.06-1.14-1.3-3.8-5.32-3.96-7.95a82.52 82.52 0 0 0-.63-6.95c-.25-1.43-2.53-2.85-2.53-4.48 0-1.64-3.41-4.57-4.34-5.95-.92-1.38-3.96-4.69-6.23-4.69-2.27 0-2.65-.5-2.95-1-.3-.5-1.34-.93-1.34-.42 0 .5-.26 1.21-.8 1.71-.55.5-1.77 1.47-1.94.84-.17-.63-.84-1.88-.93-1.5-.08.37.13.7 0 1.3-.12.58-.67.83-.38 1.16.3.34 1.18.76 1.01 1.26-.17.5-1.22 1.46-1.51 1.21-.3-.25.04-1.59-.6-1.5-.62.08-2.01 1.75-2.9 2.26-.88.5-1.18.2-1.94.84-.75.62-1.97 1.3-1.93.7.04-.58 1.18-.54 1.51-1.2.34-.68.55-.89 1.86-1.6 1.3-.71 2.35-1.97 1.98-2.13a9.27 9.27 0 0 0-2.2-.21c-.46 0-2.31.29-2.52-.67-.21-.97.38-.72-.63-1.68S.96 39.8 1.29 39.13c.34-.67 2.49-1.71 3.25-2.18.75-.46 1-1 .54-1.04-.46-.04-3.96-.09-4.3-.38-.33-.3-.92-1.17-.75-1.63.17-.46 1.68-1.72 2.23-1.5.55.2 1.77.5 1.81.2.04-.3-2.15-2.14-2.4-3.01-.25-.88.21-.76.84-1.01.64-.25 2.11-.96 2.91-1.72.8-.75 2.44-1.8 4.63-1.17 2.2.63 4.63 1.3 5.98 1.22 1.35-.09 1.3-.97 3.08-.05 1.77.92 2.86 1.68 4 1.39 1.13-.3 6.06-1.64 6.52-1.6.47.05.51.59 1.48.42.97-.16 1.3-.7 1.64-.33.34.37.89.71 1.26.5.38-.2 1.06-.42 1.52.08.46.5 1.94 1.34 2.74 1.34.8 0 1.8.21 1.9.67.08.46.37.59 1.21.67.85.09 3.16.55 3.25-.04.08-.58.88-1-.26-.92-1.13.08-2.99.75-3.36.08-.38-.67.54-.7-.68-.92-1.22-.2-2.65.13-2.65-.54s.42-1.13 1.14-1.22c.71-.08.96-.41.33-.33-.63.08-2.02.13-2.15-.54-.12-.67-.63-.8-.46-1.51.17-.71 1.1-2.14.68-2.14-.43 0-.47.8-1.14 1.84-.68 1.05-1.27 2.35-2.07 1.72-.8-.63-1.09-.96-1.68-1.5-.59-.55-1.52-2.43-.04-2.94 0 0 .55-.23.42-.83-.13-.61-.57-.97.48-1.03 1.06-.06 3.75.08 5.1.93 1.35.85 2.61 2.19 3.5 1.85a5.6 5.6 0 0 1 2.14-.46c.6.02 1.67-.14 2.38-.77.72-.63 1.05-.46 1.41-.14.36.33-.9 1.67-.71 2.13.19.46.63 2.05 1.95 2.62 1.33.56 1.86 1.13 1.52 1.52-.34.4-.97 1.11-.88 1.43.08.31-.2.73-.87.73h-1.66s-.36 1.03 1.14 1.24c1.5.2 3.45.25 3.58-.36.12-.6.99-.52.7-1.05-.3-.52-.9-1.15-.35-1.57.55-.42 1.69-.23 1.81.21.13.44.93.8.57 1.38-.35.59-.7.86-.33 1.03.35.17 1.34-.36 1.32-1.22-.02-.85-1.34-1.19-1.56-1.67-.2-.48-.63-1.6-.1-2.4.55-.82 1.22-.7 1.14-1.5-.09-.79-.43-3.09.14-3.31.57-.22 3.35-.01 3.29.53-.06.55-2.9 2.2-2.61 2.91.3.71 1.37 1.07 1.43 2.01.06.94-.19 2.14.4 2.43.59.3.55.75.88.88.34.12.47.1.55-.31.09-.42.8-.57 1.05 0 .26.56-.23 2.72.49 2.72.71 0 .84-.55.84-1.15 0-.61.67-.28.67-1.07 0-.8.38-1.64-.27-1.84-.65-.21-2.23-.7-2.74-1.34-.5-.65-1.11-2.6-.1-4.09a3.06 3.06 0 0 1 3.58-1.09c.76.34 1.98.2 2.25.2s1.98-.48 2.86.13c.89.62 3.23 2.92 4.17 3.46.95.55 3.96.97 4.34 2.39.38 1.42-.08 2.3 1.01 3.14 1.1.84 3.6 1.8 3.06 2.89-.53 1.09-1.54 2.18-2.22 1.68-.67-.5-2.44-1.18-2.06-.6.38.6 2.7 2.1 2.32 2.94-.38.84-1.27 1.38-1.77 1.84-.5.46-1.6.13-3-1.09-1.38-1.21-2.73-2.09-3.82-2.05-1.1.04-2.36.09-2.4-.96-.05-1.05 1.9 0 2.7-1.3.8-1.3 1.72-1.72 1.5-2.47-.2-.75-1.38-.3-1.76.25-.38.55-1.1.42-1.22-.33-.13-.76 1.26-.38.59-1.6-.68-1.2-1.27-2.8-1.86-1.92-.59.88-1 1.63-1.55.96-.55-.67-1.35-1-1.02-.37.34.62 1.65 1.67.76 3.05-.88 1.38-1.85 1.55-1.72 2.26.12.71 1.9 2.6 2.31 3.1.42.5.76.92-.12 1.05a3.2 3.2 0 0 1-1.22-.16c-.53-.15-1.01-.29-1.23-.05-.38.42-1 1-2.02.5-1-.5-.71-1.09-.59-1.5.13-.42.68-1.85.3-1.85-.38 0-.09.46-.85 1.3-.75.84-1.8.46-2.73 2.18-.93 1.71-2.23 3.47-2.4 4.18-.17.72 1.13 1.1 1.43 1.64.3.54-.63.5 1.05 1.63 1.69 1.13 2.82 1.97 4.42 2.39 1.6.42 2.66 0 2.66.88s-.09 2.1.33 2.47c.42.37.47.58.6 1.13.12.54 1.26.67 1.51 0s-.88-2.05-.21-2.93c.67-.88 1.85-1.47 1.43-2.68-.42-1.22-1.98-2.9-1.6-3.35.38-.46.72-.04.76-1.05.04-1-.38-3.6.08-3.77.23-.08.35.03.55.15.2.11.48.23 1.05.14 1.14-.16 3.67-.04 4.21 1.01.55 1.05.85.38 1.14 1.72.3 1.34 1.05 2.89 1.85 1.92.8-.96 1.23-2.05 1.9-1.67.67.37.55 4.69 2.23 5.44 1.69.76 4.17 1.38 4.17 2.93 0 1.55-.38 3.56.25 4.19.63.63.97.2 1.06 1.17.08.97 1 1.8.59 2.51-.43.72-1.69.13-2.78 0-1.1-.12-2.28-.67-2.03-1.46.26-.8 2.28-2.89 1.65-3.18-.63-.3-.85.8-1.94 1.04-.5.12-1.42.1-2.3.07-1.02-.03-1.97-.06-2.04.14-.12.38 1.64.13 1.22 1-.42.89-.63 2 .05 2.74.67.74 1.8.68 2.14 0 .34-.68 1.06.12.97.53-.08.42-3.16 1.43-3.75 2.56-.59 1.13-1.43 1.05-1.64.42-.2-.63 1.26-1.38.68-1.3-.6.08-.55 0-1.56 1s-1.6 1.64-1.35 2.18c.25.55.21.76-.55 1.17-.76.42-3.16 1.72-3.24 3.06-.08 1.34-.34 2.8-1.14 3.48-.8.67-3.62 2.97-3.62 3.85 0 .88.38 2.47.89 3.14.5.67.8 2.26.08 2.64-.72.37-1.6-.34-1.64-1.39-.05-1.04-.09-2.8-1.27-3.22-1.18-.42-4.42-.92-4.33-.25.08.67-.34 1.34-.93 1.09-.59-.25-1.35-1.26-2.1-.55-.76.72-2.62.72-2.62 2.01 0 1.3-.08 2.6-.12 3.94-.05 1.34-.21 3.1 1.18 3.98 1.39.88 2.06.84 3.07 0 1.01-.84.84-1.84 1.64-2.22.8-.38 2.28.3 1.94 1.25-.34.97-1.22 3.31.04 3.77 1.26.46 2.7-.04 2.87 1.26.16 1.3-.47 2.76.04 3.6.5.84 1.39 1.5 2.19 1.21.8-.29 1 0 1.64.3.63.3.8.58 1.64-.34.84-.92 1.69-2.13 3.58-1.76 1.9.38 2.82.88 4.97.97 2.15.08 3.7 1.46 4.8 2.72 1.1 1.26 3.16 1.21 4.13 1.63.97.42 1.39 2.56 1.77 3.69.38 1.13.08 1.63 2.06 2.05 1.98.42 1.94.3 2.44 1 .5.72.8.76 2.78 1.1 1.98.33 1.81.54 2.74 1.2zM65.44 82.03c1.04.83 2.01 1.43 3.03 1.86 1.02.44 2.6.57 2.4 1.23-.2.67-.67 1.24-1.41.84-.74-.4-1.32-.7-2.42-1.37-1.1-.66-1.36-.96-2.2-.8-.84.17-1.87-.07-1.64-.43 0 0 1.2-2.16 2.24-1.33zm6.63 3.5c.3-.3 1.68-.97 2.04-.3.37.66.6.66 1.04 1.06.44.4.8.6 0 .93-.8.33-.13.67-1.57.63-1.44-.03-1.84-.66-2.38-.8-.53-.13-.77-.83 0-.96 0 0 .57-.27.87-.57zm37.1-52.27c-.02-.66.21-1.54.88-1.02.67.5.6.69 1.96.59 1.36-.1 3.76-.31 4.12.3.36.62.1 1.3-.23 1.82-.34.51-.7 1.38-1.42 1.49-.72.1-2.14.18-2.63-.31-.49-.49-1.46-.77-1.65-1.02a5.38 5.38 0 0 1-.4-.93s-.6-.25-.63-.92zm26.06-21.76c-.61-.36-.75-1.65-.23-2.57.52-.92 1.66-.1 2.47-.46.81-.36.71-.72 1.81-.42s1.04.33 1.54-.11 1.8-.75 3.57-.56c1.77.2 2.99.27 2.77.83-.2.55-.82 1.76-1.61 1.95-.8.2-1.47-.17-2.3-.56-.83-.38-2.54-.92-2.12-.47a34.8 34.8 0 0 0 3.12 2.4c.97.66 1.8.95 1.16 1.75-.64.8-2.08 2.04-2.47 1.15-.38-.88-.46-2.47-.9-2.56-.45-.1-1.16.74-1.31 1.3-.16.55-.56 1.2-.97 1.82-.4.61-1.42.13-1.79-.75-.36-.88-1.06-.98-1.15-1.6-.1-.64.06-1.04-.43-.98 0 0-.54.2-1.16-.16zm26.13-5.28c1.18.3 1.01.5 2.07.3 1.05-.22 1.43-.8 1.77-.15.33.65-.43.85-.97 1.48-.55.63-1.18.88-1.8.42-.6-.46-.1-.87-1.1-.98-1.02-.1-2.16-.23-1.74-.78 0 0 .6-.58 1.77-.29zm7.29-1.34c1.05-.92 2.19-2.3 2.44-1.26.25 1.05-.8 1.72-.55 2.45.26.74.68.31 1.6 0 .93-.31 1.31-.02 2.11-.9.8-.88 2.44.42 1.47 1.13-.96.72-1.8.09-2.19.8-.38.71-1.8.3-2.78.71-.96.42-2.65.59-2.65-.3 0-.87-1.73-.75-1-1.63.22-.27.5-.08 1.55-1zm.76 17.46a3.1 3.1 0 0 0 0 2.93c-.13 1.17-1.48 0-2.53-.92-1.05-.92-1.39-.42-1.68-1.38-.3-.96 3.87-4.98 4.84-6.24.97-1.26 1.94-.96 3.16-1.46 1.22-.5 1.85-.05 2.6-1.3.77-1.26 2.66-.3 2.75.7.08 1.01-2.2 1.68-3.8 2.35-1.6.67-1.97.59-2.77 1.72s-1.73 2.1-2.57 3.6zm-43.59 30.78c-1.77.25-2.48.71-2.48.71-.83.34-.55-.63-.26-1.13.3-.5-.42-.8-.46-1.3-.04-.5 1.26-.63 1.56-1.3.3-.67-.04-.7-.6-1.55a33.2 33.2 0 0 1-1.89-3.43c-.46-1 .55-1.17 1.18-1.63.63-.46 1.18-.09 1.22.33.05.42.68.5 1.63.8.96.3-.2 1.09-.24 2-.04.93 1.98 2.27 2.49 3.9.5 1.63-.38 2.35-2.15 2.6zm-4.24-1.76c-.8 1.26-2.25.96-2.25.96-.84-.37-.42-1 .22-2.54.63-1.53.63-2.02 1.6-2.48.96-.46 1.64 1.17 1.3 2.05-.34.88-.08.75-.87 2zM59.52 56.3c-.84.33-1.15 1.16-1.15 1.16-.14.27.05.5.6.19.55-.32 1.33-.37 1.57-.08.23.28.57.73.94.47.36-.26.28-.26.8-.78.53-.52-.86-1.17-1.5-1.59-.66-.41-.43.29-1.26.63zm1.77 4.96c-.13-.91.63-.76 1-1.43.36-.68.07-1.1-.34-1.04-.42.05-1.2 1.25-1.41 1.97-.21.73 0 2.32 0 2.32.06.6.62.39.9 0 .3-.4-.02-.91-.15-1.82zm4.92-1.72c-.03-.49-.76-.33-1.89-.88-1.12-.55-.8.31-.8.31s.3.42.57.92c.26.5.1.77.26 1.23.16.46.81-.02 1-.62.18-.6.88-.46.86-.96zm190.88-33.3c1.1 0 2.4 0 5 1.3 3.04 1.5 8.39 4.47 8.39 4.8 0 .34-.72.34-1.1 1.06-.38.7.09 1.84-1.26 1.54-1.35-.29-2.82-2.13-3.46-1.92-.62.2-.12.5-1.17 1.21-1.06.71-2.2.84-2.15 1.13.04.3 1.22 1.26.71 1.89-.5.63-1.85.63-2.02 1.04-.17.42-2.44 2.43-4.2 2.68-.68.1-1.5.08-2.27.06-1.27-.03-2.41-.06-2.62.4-.34.76-.93 1.51-.97 2.94-.04 1.42.17 1.76-1.27 2.97-1.43 1.21-2.9 4.9-3.83 4.69-.92-.21-.8-5.95-.38-7 .43-1.04 2.74-2.92 3.2-3.76.47-.84 2.7-1.8 2.91-2.43.21-.63-.04-1.47-.8-.38-.76 1.1-1.56 2.39-2.23 1.68-.68-.71-.68-1.18-1.43-1.05-.76.13-1.82.08-2.32 1.38-.5 1.3.25 1.47-.8 1.72s-1.18.38-1.98-.17c-.8-.54-4.84-.84-6.06-.04-1.22.8-5.69 5.07-5.35 5.57.33.5-.09.5.67 1.09.76.58.89.25 1.77-.25s1.52.5 1.77.54c.25.04-.13-.71.67-.75.8-.04.55 2.43.55 3.39s.55 1.09.63 1.88c.09.8-.8 1.26-.8 1.55 0 .3.63 2.01.6 2.3-.05.3-1.23.38-1.23.63s-.97.59-.89-.12c.09-.71.85-5.78.17-5.74-.67.04-.67.55-.71 1.8-.04 1.26-1.73 3.9-2.28 4.7-.54.79-1.76 3.34-2.77 3.6-1.02.24-2.24.37-2.95 1.33-.72.97-2.07 1.22-1.56 2.26.5 1.05 1.64 2.98 1.22 3.69-.42.71-2.23 1.8-2.4 1.17-.17-.63.97-1.84-.04-2.51-1.01-.67-1.14-.55-1.3-1.47-.18-.92-.6-.75-1.4-.63-.8.13-1.56.21-1.51-.25.04-.46-1.77.84-1.6 1.3.16.46.33 1.13.84.63.5-.5.84-.84 1.51-.63.68.21.6.55.22 1.34-.38.8-1.73.59-1.44 1.63.3 1.05 1.73 3.9 1.35 5.74-.38 1.84-1.94 2.93-2.27 3.85-.34.92-1.65 2.1-2.66 2.64-1 .55-2.9 1.38-3.53 1.5-.64.13-4.05.39-3.67 1.73.38 1.34 1.01 1.92 1.86 3.26.84 1.34 1.13 3.02.54 3.77-.59.75-1.9 1-1.98 1.93-.08.92-.71.88-1 .29-.3-.59-.26-.38-1.08-1.24-.82-.85-1.52-1.1-1.75-1.57-.23-.46-.6-1.15-.93-.46-.31.7-.33 1.24-.58 1.8-.26.57.02 1.22.23 1.57.2.36.82 1.37 1.87 2.43 1.05 1.07 1.35 1.34 1.35 2.33 0 .98.06 2.24-.34 2.26-.4.02-2.1-1.76-2.25-2.6-.15-.84-.44-2.03-.93-3.08-.48-1.04-.7-.81-.7-1.54 0-.74.28-3.06.03-3.54s-.57-.55-.74-1.4c-.17-.86-.13-1.74-.48-1.64-.36.1-1.29.86-1.56.9-.27.04-.61-1.1-.55-1.86.06-.76.13-1.36-.46-2.01-.6-.65-1.46-1.1-1.54-1.6-.08-.5-.67-.24-1.01-.06-.12.07-.36.06-.64.04-.48-.02-1.07-.05-1.3.38-.35.67-.71 2-2.04 3.16-1.33 1.18-3.5 1.93-3.5 2.4 0 .45.22 2.55.09 2.9-.13.36-.15 1.2-.46 1.78-.32.59-.6 1.6-1.18 1.76-.6.17-1.75-.94-1.8-2.11-.03-1.18-1.23-4.42-1.72-5.5a9.14 9.14 0 0 1-.84-3.32c.06-.65-.57-1.21-.87-1.03-.29.2-1.66-.6-1.93-1.2-.28-.62-1.33-2.02-2.02-2.33-.35-.16-1.2-.08-2.03 0-.84.08-1.68.15-2.02 0-.67-.32-2.25-.97-2.71-1.24-.47-.27-1.81.1-2.3-.63-.48-.73-2.99-3.7-3.6-3.58-.6.13-.92 1.49-.52 2.14.4.65 1.85 1.82 1.93 2.72.09.9.89 1.26 1.27 1 .37-.25 1.24-1.13 1.95-.77a9.9 9.9 0 0 1 2.47 1.68c.6.64 1.03 1.17.9 1.84-.12.67-3.85 4.48-4.84 5.27-.99.8-2.13.99-3.87 1.85-1.75.85-3.06 1.6-3.44 1.02a47.45 47.45 0 0 1-2.54-5.63c-.51-1.5-.97-2-1.48-3.73-.5-1.71-1.94-4.27-2.53-4.18-.58.08-1.13-.17-.37 1.21a31.9 31.9 0 0 1 2.31 5.78c.34 1.42.97 1.17 1.69 3.18.71 2.01 2.06 3.02 2.57 4.06a1.98 1.98 0 0 0 2.56.97c.89-.38 3.04-.72 3.37.42.34 1.13-2.48 5.65-4.2 8.12-1.73 2.47-4.72 4.98-4.72 6.24 0 1.25.5 2.84.88 4.18.38 1.34.13 3.1.13 4.02 0 .93.08 2.06-1.48 2.98-1.56.92-2.78 2.26-2.48 3.43.3 1.17.67 1.5.17 2.64-.5 1.13-2.03 1.59-2.07 2.55a5.96 5.96 0 0 1-.88 2.77c-.42.58-.93 2.6-1.9 3.51a5.95 5.95 0 0 1-3.37 1.55c-1.22.17-3.15 1.68-4.3 1.18-1.13-.5-.29-2.47-1.04-4.07-.76-1.59-1.82-2.34-2.03-4.02-.2-1.67-.29-3.97-.8-5.15-.5-1.17-1.98-3.47-1.13-5.73.84-2.26.71-4.99.3-7.25-.43-2.26-2.45-4.18-2.45-5.98 0-1.8.42-3.73-.38-4.4-.8-.67-3.07-1.17-3.33-1.84-.25-.67-2.6.12-3.66.62-.67.32-.96.24-1.28.15-.18-.04-.38-.1-.66-.06-.76.08-2.65 1.3-3.58.5-.92-.8-4-3.35-4.42-4.9-.42-1.55-2.82-3.26-2.36-5.02.47-1.76.72-2.01.6-3.1-.13-1.1.2-4.82 1.09-6.16.88-1.34 2.73-2.13 3.03-3.8a8.2 8.2 0 0 1 1.98-4.32c1.05-1.09 1.47-2.14 1.47-2.51 0-.38.63-.76-.42-1.51s-1.85.33-1.85-2.43v-3.1s.17-1.21.88-1.46c.28-.1 1-.06 1.8-.02 1.28.06 2.73.13 2.84-.36.16-.8 1.09-2.14 0-3.01-1.1-.88-2.45-1.68-2.2-2.3.26-.64 1.1-.76 2.03-.76.92 0 2.36.02 3.07-1.02.72-1.03 2.53-4.38 3.75-4.6 1.22-.2 1.52-.37 1.35-1-.17-.63-1.06-1.88-.8-2.38.25-.5 1.18-1.8 1.6-1.3.42.5.25 1.84.54 1.8.3-.04.76-1.47.38-2.35-.38-.88-.54-2.47-1.1-1.92-.54.54-.75 1.25-1.68 1.5-.92.26-1.6-1.14-1.68-1.61-.08-.48-1.14-2.15-.13-3.24 1.01-1.1 3.75-3.69 4.47-4.99.71-1.3 3.16-4.81 5.18-6.28 2.02-1.46 2.78-2.5 4.12-2.72 1.35-.2 4.64.44 4.72.95.08.52-.17.52.89.98 1.05.46 4.71 2.13 6.19 2.68 1.47.54 2.31 1.63 1.26 2.47-1.05.84-2.57.84-3.2.84-.63 0-1.3.67-.76 1.57.55.9.55.02 1.14-.36.26-.17.42 0 .57.15.2.2.4.4.77-.07.68-.83.74-1.92 1.95-1.75 1.21.16 1.54.2 1.54-.97.01-1.17.26-2.97.81-3.01.27-.02.37.61.52 1.25.14.64.34 1.28.83 1.26.97-.04 1.8-.13 2.57-1.21a2.94 2.94 0 0 1 2.4-1.18c.38 0-.21.5 1.64.5 1.85 0 3.52.17 3.6-.33.06-.5.35-.67 0-1.26-.36-.58-.99-.33-.99-1.04s.76-1.32 1.16-.52c.4.81-.02 1.4.82 1.35.84-.04 1.52.09 2.32.55.8.46 2.19 1.17 2.6.67.43-.5-.92-1.86-1.09-2.57-.17-.7.76-2 1.6-2.92.85-.92.85-1.67 1.27-2.09.42-.42.59-.96.96 0 .38.96.76.96.89 1.6.13.62.13 1.25 0 2s.1 1.5.1 2.35c-.02.83-.23 1.67.36 1.67.6 0 .55.08.42-.88-.12-.96-.71-1.72-.38-2.64.34-.92.08-1.25.46-1.96.39-.72-.08-1.47.47-1.3.55.16.6 1.3 1.1 1.3.5 0 2.94.54 3.11-.34.17-.88.04-2.12 1.3-2.34 1.27-.21 2.96-.05 3.59-1.01.63-.96 2.57-3.14 3.66-3.18.25-.01.6 0 1 .03 1.34.06 3.33.12 4.43-.91 1.44-1.34 3.75-2 4.8-1.77 1.06.22 1.1 1.35 1.94 1.35.84 0 4.25.46 4.68.84.42.37.63 1.09.2 1.63-.41.55-.92.92-1.43 1.3-.5.38-1.3-.13-1.55.63-.26.75-1.44 1.04-1.44 1.59 0 .54 1.02.12 1.27-.3.25-.41.97-1.21 1.6-1.33.63-.13.25.33 1.79 1.08 1.54.76 3.68.93 5.03.88 1.35-.04 2.02-1.25 2.86-1.3.85-.04 3.67.17 3.63 1.3-.05 1.13-.6.8-.26 1.47.34.67.47.92.6 1.46.12.55.7 1.18 1 .3.3-.88.47-1.18 1.1-1 .63.16-.5.45.97.66 1.47.21 4 .34 4.12-.25.13-.59-.29-1.26 1.65-1.55 1.93-.3 4.2-.96 5.55-.2 1.35.75 1.65 2.76 3.63 2.5 1.98-.25 3.62-.5 4.12.34.5.84.22 1.42 1.23 1.6.42.06 1.48.05 2.6.04 1.52-.02 3.16-.03 3.5.16.6.34 1.01.92 1.3.46.3-.46-.24-.84 1.02-.8l.55.01zm-95.02 90.26a1.8 1.8 0 0 1 1.33-1.51c.96-.3 1.51 1.8 1.37 2.82-.13 1.01-.82 2-1.37 5.26-.55 3.26-2.2 4.99-3.17 4.38-.97-.6-.6-2-1-2.8-.38-.79-.1-1.85.45-2.78.55-.94 0-1.73-.14-2.6-.14-.88 2.31-1.49 2.53-2.77zm56.7-28.8c0 .93-.59 1.22 0 1.93.58.71 2.27 2.68 2.4 3.27.12.58-.22 1.34.16 1.71.38.38 1.4 1.6.72 2.9-.68 1.3-1.17.45-2.16.45-1 0-1.12-.7-1.12-1.21 0-.5.88-1.68.75-2.14-.13-.46-1.26-.92-1.22-1.75.04-.84-.42-1.34-.8-2.1-.38-.75-.64-.8-.57-1.8.06-1-.15-1.17 0-1.76.15-.58.2-1.21.57-1 0 0 1.27.58 1.27 1.5zm-1.57 6c.3.16.17.96-.27 1.54-.44.59-1.45.92-1.41.5.04-.41 1.05-1 1.1-1.54 0 0 .29-.67.58-.5zm-8.1 10c-.25-.65.12-1.67 1.03-2.18.9-.5 2.25-1.8 3.05-2.84.8-1.05 1.43-2 1.9-1.7.46.3.67.9.9 1.07.24.17.94.31.46.98-.48.67-.81.55-.77 1.22.04.67.02 1.08.59 1.5.57.42.3.65.04.86-.25.21-1.1.84-1.1 1.17 0 .34-.02.9-.2 1.5-.2.58-.47 1.69-1.27 1.85-.8.17-1.37-.41-2.23-.81-.86-.4-1.42-.57-1.66-1.05 0 0-.49-.92-.74-1.57zm-10.15-5.38c.4-.2.42-.59 1.66.65 1.24 1.23 2.2 1.88 3.2 2.8 1.01.93 1.16 1.68 1.54 2.35.38.67 1.73.69 1.94 1.05.2.35-.5 1.21-.53 1.63-.02.42-.48 1.76-.9 1.8-.43.04-2.93-2.66-3.27-3.58-.34-.92-1.33-2.7-1.83-3.5-.5-.8-2.08-2.24-2.08-2.55 0 0-.13-.44.27-.65zm2.28 5.57c.26-.04.59.2.78.9.2.69-.04 1.15-.78-.21 0 0-.26-.65 0-.7zm6.96 1.58c.63-.2.97 0 .63.62-.33.6-.92 0-.92 0s-.34-.42.3-.62zm-1.36 4.05c-.22-.39.16-1.28.98-1.03s1.1.96 1.86.88c.76-.07 1.54-.16 2.21.23.68.4 1.21.76 1.97.93.76.16 2.02.22 2.1.55.09.34-.47.7-.9.62-.41-.08-.67.11-2.07-.45a4.65 4.65 0 0 0-2.58-.39c-.31.06-2.02-.56-2.02-.56s-1.32-.39-1.55-.78zm9.91 2.07c0-.28.68-.37.84-.53.17-.17.73-.5 1.24-.37.5.14.93.34.56.65-.36.3-.81-.06-.9.37-.08.43-.4.57-.76.6 0 0-.98-.44-.98-.72zm3.65.12c.42-.26.54-.4.9-.65.37-.26 1.15-.5 1.35-.14.2.36-.65 1.03-.82 1.11-.16.09-.16.84-.67.9-.5.05-1.18-.62-1.18-.62s0-.34.42-.6zm-3.52-3.7c-.02-.41.07-.92-.13-1.14-.2-.22-.95-.69-.59-1.47.37-.8.6-.88.72-1.32.12-.45.43-1.79.91-1.82.48-.02 1.88.14 2.2 0 .3-.14 1.06-.23.94 0-.1.23-.67.4-1.4.59-.73.2-1.8-.17-1.8.14 0 .3-.16 1.14.23 1.17.4.03.84-.08 1.12-.28.28-.2.68-.33.7 0 .03.34-.22.31-.5.5-.28.2-.65.14-.54.65.12.5.17.89.4 1.16.22.26.55.99.44 1.15-.1.17-.41.31-.75.2-.34-.11-.76-.5-.84-.38-.09.13-.57.94-.82 1 0 0-.27.27-.29-.15zm6.53-6.56c.47.23 1.23.79 1.12 1.18-.11.39-.6.58-.85.61-.25.03-1.06.59-1-.17.05-.75.14-1.37.14-1.37s.1-.47.59-.25zm-1.52 4.34c.45-.07.42-.18.65.14.22.32.3.58.14.7-.17.11-.8 0-.8 0 0-.09-.44-.77 0-.84zm2.65-.07c.41.12.89.35.91.46.03.1.15.6-.2.66-.33.06-.58-.2-1-.2-.42 0-1.07-.36-.87-.85 0 0 .75-.2 1.16-.07zm2.35-2.76c.98.4 1.12 1.36 1.32 1.71.2.36.16.88.73.79.56-.1.14.1.73-.28s.95-.67 1.57-.5c.62.15 2.3 1.02 3.31 1.35 1.01.34 2.22.62 2.53 1.13.3.52.53 1.47.87 1.86.34.39.87 1.73 1.37 2.15.5.42 1.5 1.17 1.44 1.62-.06.44-1.63.53-2.08-.14-.45-.67-2.27-2.3-2.67-2.26-.4.02-.93.42-1.2.7-.29.27-1.1 1.05-1.69.4-.59-.66-.9-.86-1.49-.83-.59.03-1.2-.22-1.2-.58s-.31-2.04-.99-2.48c-.67-.45-2.36-.87-2.86-1.68-.5-.81-1.57-1.14-1.6-1.6 0 0 .92-1.75 1.9-1.36zm1.05 5.48c.29.05.6.24.52.52-.09.28.03.4-.17.45-.2.06-1.05.03-.7-.8 0 0 .06-.2.35-.17zm11.27-.79c.34-.03 1.71-.2 1.91-.49.2-.3-.11-1.29.17-1.44.28-.16.95.5 1.23.92.28.42.4.82 0 1.12-.39.31-.64.95-1.29 1.17-.64.23-.9.48-1.43.37-.53-.11-1.26-.58-1.29-.86 0 0 .36-.76.7-.79zm-4.1 6.59c.29 1.03.96 1.84 1.3 2.37.33.53.53 1.82.7 2.54.16.73 1.18 1.82 2.07 2.8.9.97 3.93 4.68 3.93 6.7 0 2-1.57 4.99-2.16 6.13-.59 1.15-.87 2.88-1.07 3.58-.19.7-1.76.9-2.44 1.34-.67.44-2.05.3-3.11 0-1.07-.31-3.23-2.9-3.99-3.1-.76-.2-1.18-.22-1.43-.95s-2.98-2.7-3.43-2.62c-.45.08-3.45.33-4.24 1-.78.67-.7 1.2-1.82 1.34-1.12.14-1.85.22-2.64.56-.79.33-2.9.64-3.12-.14-.22-.78.03-3.1-.47-4.91-.5-1.82-.79-4.39 0-7.04.78-2.65 4.38-1.87 5.58-3.32 1.21-1.45 3.26-4.66 4.13-4.55.87.11.7.75 1.26.28.56-.48 1.3-1.79 2.1-2.07.82-.28 1.72.11 2.19.11.46 0 1.58-.25 1.38.48-.2.72-.67 1.4-.44 1.84.22.45 1.65 1.6 2.41 2.1.76.5 1.69.94 1.85-.37.17-1.3-.14-3.65.29-4.27.41-.61.36-.86.72-.93 0 0 .17.07.45 1.1zm2.08 27.44c1.15 0 1.35.03 1.6-.28.25-.3.7.4.56.81-.14.42-.08 1.09-.62 2.15-.53 1.06-.87 1.37-1.48 1.26-.62-.12-.6-.56-1.07-1.6-.48-1.03-.72-1.51-.4-1.81 0 0 .26-.53 1.41-.53zm19.85-6.78c.59.1 1.15 1.43 1.57 2.1.42.69 1.3.88 1.49 1.55.2.67.37.53.76.84.4.3.34.87.17 1.37-.17.5-1.97 2.73-2.28 2.23-.3-.5-.17-.95-.62-1.37-.45-.41-.78-.61-.53-1 .25-.4 1.1-.84.87-1.76-.22-.92-.9-1.22-1.26-1.85-.37-.63-.5-1.5-.5-1.5 0-.08-.26-.73.33-.61zm.5 7.37c.74.58 1.19.64.8 1.4a8.04 8.04 0 0 1-1.7 2.14c-.36.22-.64 0-.61.73.03.72-1.24 2.57-1.94 2.68-.7.1-2.38-.45-1.77-1.87.62-1.43 2.47-1.76 2.7-2.4.22-.65.34-.67.7-1.12.37-.45.73-1.34.73-1.34s.37-.81 1.1-.22zm-13.73-34.25c.26-.02.67.49 1.44.93.77.44 1.5.99 2.04 1.25.52.26 1.17.48 1.25.98.09.5 1.26 1.65.5 1.68-.76.02-1.1.33-1.48-.53-.39-.85-.73-.95-1.26-1.48-.53-.54-1.27-.53-1.58-.97-.3-.44-1.12-1.01-1.12-1.01s-.05-.83.21-.85zm-18.97-36.18c.42-.72.97-1.97 1.64-2.14.67-.17 2.15.04 2.82-.59.67-.62 2.61-2.43 2.86-3.51.26-1.1-.04-3.98.34-4.2.38-.2 1.05-.28 1.14-.79.08-.5.25-1.34.67-1.46.2-.06.41.24.7.53.33.35.76.7 1.32.47 1.06-.42 1.22-.37 1.69-.7.46-.34-.21 1-.6 1.67-.37.67-.62 2-1.93 1.84-1.3-.17-1.81-.76-1.72-.09.08.67.42.67.42 2.06 0 1.38-1.1 1.42-1.06 2.68.05 1.25.68 2.34-.97 3.1-1.64.75-5.64.7-5.76 1.46-.13.75-.38 1.68-1.06 1.47 0 0-.92-1.1-.5-1.8zm5.84-54.04c-.4-.65-.68-2.12.18-2.23.87-.1 1.63.5 2.86.33 1.23-.18 1.73.03 1.99.57.25.54.4 1.11-.4 1.37-.8.25-2.06.07-2.57-.04 0 0-1.66.65-2.06 0zm1.92 2.37c-.04-.6-.07-1.4.65-1.22.72.18 1.77.79 2.1 1.22.32.43-.03.94-1.13.72 0 0-1.59-.1-1.62-.72zm5.6-3.63c.83-.18 1.55.22 2.02.43.47.22 1.23.47.65 1.12-.57.64-1.41.97-1.63.54-.2-.43-.9-.76-.9-.76s-1-.15-.93-.47c0 0-.04-.68.8-.86zm24.25 6.65c.68-.07 1.26.47 1.59.65.32.18.72 1.15 0 1.29-.72.14-3.5.68-3.04-.65 0 0 .76-1.22 1.45-1.29zm-66.78-15.6c.54-.93 1.7-1.18 2.56-1.58.87-.4 1.77.18 2.1.9.33.72 1.3.94 1.48 1.62.18.68.04 1.8-.58 2.12-.61.32-3.1.22-3.47-.5-.36-.72-1.4-1.19-1.4-1.19s-1.23-.43-.7-1.36zm6.97 3.06c.47-.97 1.05-1.73 1.92-1.3.86.44 1.95 1.34 1.52 1.91-.44.58-.15.5-1.56.83-1.4.32-2.82 0-2.96-.18 0 0 .61-.29 1.08-1.26zm-4.26 2.72c.54-.2 1.15-.35 1.23.19.07.54-.44.65-1.05.72 0 0-.72-.7-.18-.91zm-35.83 14.26c.3-.72 2.2-.83 2.32-.51.14.32-.22 1.08-.45 1.25-.23.17-1.1.24-1.1.24s-1.07-.26-.77-.98zm25.78 68.74c.16 1.22-.64 1.89-1.23 1.89s-.54-1.38-.33-2.18c.2-.8.17-1.26.33-1.47 0 0 1.06.55 1.23 1.76zm21.05-11.76c.8-.25 1.85 0 1.14 1.21-.72 1.22-2.02 1.17-1.94 0 0 0 0-.96.8-1.21zm9.4-4.32c.04.59-.26 2.14-.77 2.43-.5.3-1.22 0-1.05-1 .17-1 .63-2.05 1.05-2.22.27-.1.72.2.76.8zm-69.5-5.86c.93-.08.64-.2 1.94-.38 1.31-.16 1.98-2.34 1.98-3.43 0-1.09-.12-1-.38-1.34-.25-.33-.08.21-.71.63-.34.23-.38-.16-.54-.55-.15-.33-.38-.66-.98-.62-1.3.08-1.43 1.21-2.19.29-.76-.92-1.26-1.38-1.9-2.05-.62-.67-.54-2.01-1.09-2.85-.54-.84-.71.54-.8 1.5-.08.97.8 1.05.8 1.56 0 .5-.63.46-.67 1.13-.04.67-1.18.63-1.35-.34-.17-.96-.46-1.21-1.22-1.88-.76-.67-.8-.92-1.35-2.14-.55-1.21-3.96-4.56-4.59-4.4-.63.17.6 1.9 1.81 2.94 1.22 1.04 1.77 2.05 1.9 2.75.12.7 0 1.06-.38 1.6-.38.55-.84 1.1-1.01 1.72-.17.63-1.35.25-1.56-.21-.21-.46-.72-.3-.76-.84-.02-.3.23-.27.65-.23.34.02.8.05 1.33-.1 1.18-.34.3-.42.25-1.55-.04-1.13-1.51-1.63-2.23-2.22-.71-.59-1.39-1.5-2.4-2.47-1-.96-1.18.2-2.1.88-.93.67-1.1-.38-1.73-.38-.63 0-.8.88-1.22 2.05-.42 1.17-1.01.63-1.64.92-.64.3-.34 2.18-.76 3.27-.42 1.09-2.02.71-2.53 1.47-.5.75.5.75.5.75 1.14-.5 2.03-1.13 2.32-1.63.2-.32 1.44-.25 2.6-.18.65.04 1.28.08 1.66.05 1.05-.08 2.9-.17 3.36-.2.47-.05.97 1.7 1.02 2.71.04 1 .92 1.26 2.02 1.55 1.1.3 2.52 2.22 3.74 2.47 1.23.25 1.82-1.42 2.36-2 .55-.6 1.81.41 2.7 1.04.88.63 2.23.8 3.16.71zm17.53-9.2c-.47-.91.16-.39.7-.85.54-.46-.28-.8-1.04-1.13-.76-.33-1.3-2-1.64-2.51-.34-.5.8-1 1.68-1.26.89-.25 1.3-1.09.76-1.09-.55 0-2.4-1.13-3.66-.46-1.27.67-1.02 2.06-1.02 2.06-.08 1.88 1.48 3.26 1.94 4.19.46.93-1.35 1.63-.88 3 .46 1.39 2.6 1.35 3.5.97.88-.38.12-2.01-.34-2.92zm-14.36-2.73c1.26-.55 2.14 1.5 2.99 1.67.84.16 3.03-1.25 2.4-1.76-.64-.5-2.95-2.09-3.67-2.68-.71-.58-1.6-.04-2.27.13-.35.09-.65-.32-1-.73-.32-.38-.68-.76-1.15-.74-.97.05-1.39 1.76-1.85 3.1-.47 1.34.54 1.64.54 1.64.85.5 2.74-.09 4-.63zm-12.98-16.8c-.37.84-1.72 1.3-2.73 1.52-1.01.21-1.65 1.07-1.52 1.17.8.58 2.07.37 3.5 0a5.09 5.09 0 0 1 1.68-.15c.44.02.8.04 1.16-.15.74-.37.86-2.1 1.24-3.51.38-1.43.84-1.85.93-2.22.08-.38 3.54-.59 3.91-.91.38-.33.47-.3-.67-.66-1.14-.36-1.73.35-2.65.4-.93.04-1.9-1.56-2.02-2.3-.13-.76 1.3-1.77 1.43-2.69.12-.92 1.22-1.38 1.64-2.13.42-.76-.76-.88-1.39-.88-.63 0-.84.83-.84 1.75 0 .93-.93 1.01-2.1 1.57-1.19.57-1.31 2.04-1.31 2.62 0 .59.88 1.17 1.05 2.05.17.88-1.22 1.97-1.39 2.77-.12.54.07.44.41.33.16-.05.35-.1.56-.08.67.04-.5.67-.89 1.5z"/>
  <path fill="url(#CloudflareWorkersIllustrationGlobalNetwork--gradient)" d="M232 139c0-.2.03-.4.09-.59a2 2 0 1 1 1.32-1.32 2 2 0 0 1 1.22.01 2 2 0 0 1 2.52 2.53 2 2 0 0 1-3.8 1.26A2 2 0 0 1 232 139zm-63.25-58.25a2 2 0 0 1-.09.59 2 2 0 0 1 2.48 1.27 2 2 0 0 1 .61.33 2 2 0 0 1 3.14.9 2 2 0 1 1-1.28 2.57 2 2 0 0 1-1.86-.35 2 2 0 0 1-3.13-.86 2 2 0 1 1-2.57-2.58 2 2 0 0 1-1.2-1.23c-.78-.26-1.35-4.01-1.35-4.89a2 2 0 0 1 .1-.61 2 2 0 0 1 .65-3.89c1.1 0 2 3.9 2 5a2 2 0 0 1-.1.61 2 2 0 0 1 1.24 1.25 2 2 0 0 1 1.36 1.89zM259 142.5a2 2 0 1 1 .63-3.9 2 2 0 1 1 0 3.8 2 2 0 0 1-.63.1zm-176.75-8.75a2 2 0 0 1 3.9-.64 2 2 0 1 1-2.54 2.53 2 2 0 0 1-1.36-1.89zm73.25-28.5a2 2 0 1 1 3.9.63 2 2 0 1 1-3.8 0 2 2 0 0 1-.1-.63zm47.5-4a2 2 0 0 1 3.89-.66 2 2 0 1 1-.01 3.81 2 2 0 0 1-2.52-1.26 2 2 0 0 1-1.36-1.89zm-22-17a2 2 0 1 1 3.9.63 2 2 0 1 1-3.8 0 2 2 0 0 1-.1-.63zm34.75-11.5a2 2 0 0 1 1.08-1.78 2.01 2.01 0 0 1-2.22-1.31 2 2 0 0 1-1.2 0 2 2 0 0 1-2.53 2.49 2 2 0 0 1-2.4-.98l.02.33a2 2 0 1 1-.22-.92 2 2 0 0 1 2.3-2.3 2 2 0 0 1 .28-3.67 2 2 0 0 1 3.8 1.25 2 2 0 0 1 1.23 1.23 2 2 0 0 1 1.53 3.69 2 2 0 0 1 2.23 2.6 2 2 0 0 1 0 1.25 2 2 0 0 1-1.2 2.5 2 2 0 0 1 1.2 1.23 2 2 0 1 1-2.54 2.53 2 2 0 0 1-.06-3.77 2 2 0 0 1-1.2-2.5 2 2 0 0 1 0-1.25 2 2 0 0 1-.1-.62zm15.75-3a2 2 0 0 1-.59-.09 2 2 0 1 1-1.32-1.32 2 2 0 0 1 2.53-2.49 2 2 0 1 1 0 3.8 2 2 0 0 1-.62.1zm-105.22-4.92a2 2 0 0 1 2.56-2.24 2 2 0 0 1 1.25-2.48 2 2 0 0 1 0-1.2 2 2 0 0 1-1.25-3.8 2 2 0 0 1-.06-.94 2 2 0 0 1-3.67-.28 2 2 0 0 1-1.23-1.2 2 2 0 1 1 0-1.39 2 2 0 0 1 .95-1.08 2 2 0 1 1 .59-.2 2.01 2.01 0 0 1 2.22 1.34 2 2 0 0 1 1.23 1.2 2 2 0 0 1 3.77.05 2 2 0 0 1 1.25 1.25 2 2 0 0 1 1.25 1.23 2 2 0 0 1 1.22 0 2 2 0 0 1 .97-1.12 2.01 2.01 0 0 1-2.22-1.31 2 2 0 0 1-1.25-3.8 2 2 0 0 1 .33-.61 2 2 0 0 1 .64-3.03 2 2 0 1 1 .59-.2l.33-.02a2 2 0 0 1 1.56 3.25 2 2 0 0 1 .35 1.86 2 2 0 0 1 .26 3.67 2.01 2.01 0 0 1 2.22 1.33 2 2 0 0 1 1.25 1.23 2 2 0 0 1 2.52 2.52 2 2 0 0 1 1.22 1.2 2 2 0 0 1 2.46-1.22 2 2 0 0 1 2.24-2.56 2 2 0 1 1 .59.2 2 2 0 0 1-1.5 3.68 2 2 0 0 1-1.26 2.48 2 2 0 0 1 .06.94 2 2 0 1 1-.2.59 2 2 0 0 1-1.13.97 2 2 0 0 1-.97 1.14 2 2 0 1 1-.59.2l-.33.02a2 2 0 0 1-.92-3.78 2 2 0 0 1-2.3-2.3 2 2 0 1 1-3.34-2.17 2 2 0 0 1-.31-.55 2 2 0 0 1-2.49 1.2 2 2 0 0 1-.33.6 2 2 0 0 1-2.17 3.16 2 2 0 0 1-2.48 1.25 2 2 0 0 1-3.69 1.5l.03.34a2 2 0 0 1-3.9.64 2 2 0 1 1 2.54-2.53 2 2 0 0 1 1.14.97zM34.5 64.5a2 2 0 0 1 .64 3.9 2 2 0 0 1-3.79-1.28 2 2 0 0 1 2.52-2.52 2 2 0 0 1 .63-.1zm109.1-18.61a2 2 0 1 1 2.54-2.53 2 2 0 0 1 1.24 1.2 2 2 0 1 1 .1 1.6 2.01 2.01 0 0 1-.42 1.59 2 2 0 0 1 .35 1.86 2 2 0 1 1-2.57 1.28 2 2 0 0 1-.9-3.14 2 2 0 0 1-.35-1.86zM93.74 130a2 2 0 1 1-1.67-1.97 2 2 0 0 1 .26-3.67 2 2 0 0 1 3.16-2.17 2 2 0 1 1 0 3.12 2 2 0 0 1-.6.33 2 2 0 0 1-2.23 2.58 2 2 0 0 1 1.08 1.78zm81.75-8.75a2 2 0 0 1 .64 3.9 2 2 0 1 1-2.53-2.54 2 2 0 0 1 1.89-1.36zM67.25 98.75c0-.2.03-.4.09-.59a2 2 0 1 1 1.32-1.32 2 2 0 0 1 2.48 1.27 2 2 0 1 1-2.53 2.53 2 2 0 0 1-1.36-1.89zm137.25-8c0-.11 0-.22.03-.33a2 2 0 1 1 .2-.59 2 2 0 0 1 3.66.28 2 2 0 1 1-2.53 2.53 2 2 0 0 1-1.36-1.89zm-15.25-2.25a2 2 0 1 1-.92.22 2 2 0 1 1 .59-.2l.33-.02zm-142-2.25c0-1.1-.1-3 1-3 .88 0 2.63 1.57 2.9 2.36a2 2 0 1 1-2.54 2.53 2 2 0 0 1-1.36-1.89zM209 80.75a2 2 0 0 1 1.88 1.3 2 2 0 0 1 .95-1.08 2 2 0 0 1-2.23-2.6 2 2 0 0 1 1.24-2.51 2 2 0 1 1 2.57 1.28 2 2 0 0 1-.01 1.23 2 2 0 0 1-.98 2.4l.33-.02a2 2 0 1 1-1.88 2.7 2 2 0 0 1-2.48 1.2 2 2 0 1 1-1.28-2.56 2 2 0 0 1 1.89-1.34zm-141.25-.5a2 2 0 0 1-3.9.64 2 2 0 0 1-1.26-2.5 2 2 0 0 1-1.25-2.5 2 2 0 0 1-1.25-2.48 2 2 0 0 1-1.29-3.78 2 2 0 0 1-1.19-1.22 2 2 0 0 1-2.52-2.52 2 2 0 1 1 2.57-1.28 2 2 0 0 1 1.23 1.23 2 2 0 0 1 2.39 1 2.01 2.01 0 0 1 .06-.95 2 2 0 1 1 2.53-2.59 2 2 0 0 1 3.66-.22 2 2 0 1 1 1.64 1.64 2 2 0 0 1 .95 1.08 2 2 0 0 1 1.24-1.2 2 2 0 0 1 2.5-1.26 2 2 0 0 1 .97-1.12 2.01 2.01 0 0 1-.95-.07 2 2 0 1 1 0-3.8 2 2 0 0 1 1.54 3.68 2 2 0 1 1-.28 3.88 2 2 0 0 1-1.25 1.23 2 2 0 0 1-1.25 1.25 2 2 0 0 1-.33.61 2 2 0 1 1-3.34 2.17 2 2 0 0 1-3.75 1.25 2.01 2.01 0 0 1-1.27 2.2 2 2 0 0 1 .55.32 2 2 0 1 1 1.95 3.44 2 2 0 0 1 1.3 1.87zm117.75-5.5a2 2 0 1 1-1.91 1.41 2 2 0 0 1-2.5-2.52 2 2 0 1 1 2.57-1.28 2 2 0 0 1 1.25 2.48 2 2 0 0 1 .59-.09zm-30.72.83a2.01 2.01 0 0 1 .06-.92 2 2 0 0 1-.92.06 2 2 0 0 1 .86.86zm-2.53-2.83a2 2 0 0 1 3.89-.66 2 2 0 0 1 2.51 2.53 2 2 0 0 1-3.68 1.55 2 2 0 1 1-1.64-1.64 2 2 0 0 1-1.08-1.78zM54.5 74.5a2 2 0 1 1-.92.22 2 2 0 1 1 .59-.2l.33-.02zm10.53-2.67a2 2 0 0 1 2.56-2.24 2 2 0 0 1 0-1.2 2 2 0 0 1-.59-.33 2 2 0 0 1-2.5 0 2 2 0 0 1-1.58.41 2 2 0 0 1 .99 2.39 2 2 0 0 1 1.12.97zM39 72.75a2 2 0 0 1-3.9.64 2 2 0 1 1 2.54-2.53 2 2 0 0 1 1.14.97 2.01 2.01 0 0 1 .06-.94 2 2 0 1 1 2.57-1.28 2 2 0 1 1-2.44 2.8l.03.34zm23-4.5c.11 0 .22 0 .33.03a2 2 0 0 1-.86-.86 2.01 2.01 0 0 1-.06.92 2 2 0 0 1 .59-.09zm5.72-4.58a2.01 2.01 0 0 1-.06.92 2 2 0 0 1 .92-.06 2 2 0 0 1-.86-.86zm-29.97-5.92a2 2 0 1 1-2.66-1.89 2 2 0 0 1 .35-1.86 2 2 0 1 1 3.12 0 2 2 0 0 1-.9 3.14c.06.2.09.4.09.61zM113 37.25a2 2 0 1 1 0-4 2 2 0 0 1 0 4zm27.5 11.25a2 2 0 1 1 0-4 2 2 0 0 1 0 4zm-89.75 3.75a2 2 0 1 1 0-4 2 2 0 0 1 0 4zm104.75 0a2 2 0 1 1 0-4 2 2 0 0 1 0 4zm-111 1.25a2 2 0 1 1 0-4 2 2 0 0 1 0 4zM57 56a2 2 0 1 1 0-4 2 2 0 0 1 0 4zm87.25 1.25a2 2 0 1 1 0-4 2 2 0 0 1 0 4zm57.25 1.25a2 2 0 1 1 0-4 2 2 0 0 1 0 4zm-142 3.75a2 2 0 1 1 0-4 2 2 0 0 1 0 4zm160 2.25a2 2 0 1 1 0-4 2 2 0 0 1 0 4zM43.25 66a2 2 0 1 1 0-4 2 2 0 0 1 0 4zm5 1.25a2 2 0 1 1 0-4 2 2 0 0 1 0 4zM138 65.5a2 2 0 1 1 0-4 2 2 0 0 1 0 4zm30 6a2 2 0 1 1 0-4 2 2 0 0 1 0 4zm55.25-2a2 2 0 1 1 0-4 2 2 0 0 1 0 4zm-60.25.25a2 2 0 1 1 0-4 2 2 0 0 1 0 4zM120.5 71a2 2 0 1 1 0-4 2 2 0 0 1 0 4zm1.25 5a2 2 0 1 1 0-4 2 2 0 0 1 0 4zM204 77.25a2 2 0 1 1 0-4 2 2 0 0 1 0 4zM192 81a2 2 0 1 1 0-4 2 2 0 0 1 0 4zM50.75 82.25a2 2 0 1 1 0-4 2 2 0 0 1 0 4zM179 82.5a2 2 0 1 1 0-4 2 2 0 0 1 0 4zm41.25 9.75a2 2 0 1 1 0-4 2 2 0 0 1 0 4zM75.5 95.75a2 2 0 1 1 0-4 2 2 0 0 1 0 4zm84.5-1a2 2 0 1 1 0-4 2 2 0 0 1 0 4zM222.75 96a2 2 0 1 1 0-4 2 2 0 0 1 0 4zm-35.5 2.75a2 2 0 1 1 0-4 2 2 0 0 1 0 4zm-57.75 1a2 2 0 1 1 0-4 2 2 0 0 1 0 4zm-62.75 6a2 2 0 1 1 0-4 2 2 0 0 1 0 4zm33.75 3.75a2 2 0 1 1 0-4 2 2 0 0 1 0 4zm37.75 4.75a2 2 0 1 1 0-4 2 2 0 0 1 0 4zM68 115.75a2 2 0 1 1 0-4 2 2 0 0 1 0 4zm82.5 14.5a2 2 0 1 1 0-4 2 2 0 0 1 0 4zM153 134a2 2 0 1 1 0-4 2 2 0 0 1 0 4zm92.25-3a2 2 0 1 1 0-4 2 2 0 0 1 0 4zM143 137.75a2 2 0 1 1 0-4 2 2 0 0 1 0 4zm71-3a2 2 0 1 1 0-4 2 2 0 0 1 0 4zm-138.5 1a2 2 0 1 1 0-4 2 2 0 0 1 0 4zm166 2.75a2 2 0 1 1 0-4 2 2 0 0 1 0 4zm11.25-3.5a2 2 0 1 1 0-4 2 2 0 0 1 0 4zm3.75 3.75a2 2 0 1 1 0-4 2 2 0 0 1 0 4z"/>
</svg>
