<svg width="187px" height="160px" xmlns="http://www.w3.org/2000/svg" viewBox="0 0 187 160">
  <title>Low cost</title>
  <defs>
    <linearGradient id="CloudflareWorkersIllustrationLowCost--gradient" x1="86.98%" x2="13.69%" y1="0%" y2="100%">
      <stop offset="0%" stop-color="#faae40"/>
      <stop offset="100%" stop-color="#f38020"/>
    </linearGradient>
  </defs>
  <path fill="#d7dadf" d="M32.47 119.74a26.53 26.53 0 0 1-4.36 1.6c-1.85.44-3.79.66-5.83.66-7.23 0-12.76-2.4-16.57-7.2C1.91 110 0 103.09 0 94.03c0-9.09 1.9-16.03 5.71-20.83C9.52 68.4 15.05 66 22.28 66c2.04 0 4 .22 5.86.65 1.76.4 3.03.73 4.57 1.52.18.1.29.28.29.48v10.9a.27.27 0 0 1-.45.22l-.33-.3a16.07 16.07 0 0 0-4.13-2.71 12.62 12.62 0 0 0-5.3-1.18c-3.89 0-6.81 1.55-8.8 4.65-1.97 3.1-2.96 7.69-2.96 13.79 0 6.07 1 10.66 2.97 13.75 1.98 3.1 4.9 4.65 8.79 4.65 1.82 0 3.58-.4 5.3-1.18 1.47-.67 2.6-1.57 4.16-2.92l.44-.39c.08-.07.24-.06.31.01.02.03.02 3.69 0 10.99 0 .35-.21.67-.53.81zm28.52-44.16c-2.7 0-4.68 1.45-5.93 4.36-1.25 2.9-1.87 7.6-1.87 14.08 0 6.46.62 11.14 1.87 14.04 1.25 2.9 3.22 4.36 5.93 4.36 2.73 0 4.72-1.45 5.97-4.36 1.24-2.9 1.87-7.58 1.87-14.04 0-6.49-.63-11.18-1.87-14.08-1.25-2.9-3.24-4.36-5.97-4.36zM42.16 94.02c0-9.23 1.59-16.21 4.76-20.93C50.09 68.36 54.78 66 60.99 66c6.23 0 10.93 2.36 14.1 7.09 3.18 4.72 4.77 11.7 4.77 20.93 0 9.2-1.59 16.17-4.76 20.9-3.18 4.72-7.88 7.08-14.1 7.08s-10.9-2.36-14.08-7.09c-3.17-4.72-4.76-11.69-4.76-20.9zM171.06 121H162c-.51 0-1-.49-1-1V76h-12.32c-.51 0-.68-.49-.68-1v-7c0-.51.5-1 1-1h35c.5 0 1 .49 1 1v7c0 .51-.5 1-1 1h-12v44c0 .51-.43 1-.94 1z"/>
  <path fill="url(#CloudflareWorkersIllustrationLowCost--gradient)" d="M120 100.5v15.12c2.08-.3 3.97-1.1 5.13-2.43a7.36 7.36 0 0 0 1.73-5.03 7.5 7.5 0 0 0-1.7-5.09c-1.15-1.32-3.05-2.18-5.16-2.58zm-7-14.48V71.84a6.63 6.63 0 0 0-4.35 2.08c-1.04 1.12-1.56 2.65-1.56 4.58 0 1.9.52 3.5 1.56 4.76a8 8 0 0 0 4.35 2.76zm7 55.98h9.33a.7.7 0 0 1 .53 1.16l-12.75 14.63a.7.7 0 0 1-.99.06l-12.87-14.69a.7.7 0 0 1 .53-1.16H113v-15.06c-2.88-.1-5.85-.53-8.99-1.3A68 68 0 0 1 94 122.25V109c3.4 2.04 6.9 3.82 10.09 4.92 3.18 1.1 6.1 1.67 8.91 1.7V99.14c-6.51-1.3-11.27-3.55-14.44-6.74-3.17-3.19-4.76-7.4-4.76-12.64 0-5.58 1.69-10.02 5.06-13.33 3.37-3.3 8.03-5.16 14.14-5.56V40a1 1 0 0 1 1-1h5a1 1 0 0 1 1 1v20.87a60.38 60.38 0 0 1 15 2.8V76.4a26.43 26.43 0 0 0-6.65-3.06 35.4 35.4 0 0 0-8.35-1.5v15.38c6.51 1.03 11.5 3.28 14.82 6.74 3.32 3.45 4.98 8.05 4.98 13.8 0 5.47-1.8 9.97-5.38 13.47s-8.47 5.41-14.42 5.71V142z"/>
</svg>
