<svg width="156px" height="160px" xmlns="http://www.w3.org/2000/svg" viewBox="0 0 156 160">
  <title>Scaling</title>
  <defs>
    <linearGradient id="CloudflareWorkersIllustrationScaling--gradient" x1="86.98%" x2="13.69%" y1="0%" y2="100%">
      <stop offset="0%" stop-color="#FAAE40"/>
      <stop offset="100%" stop-color="#F38020"/>
    </linearGradient>
  </defs>
  <path fill="url(#CloudflareWorkersIllustrationScaling--gradient)" d="M80.01 21.41l56.5 33.02a3 3 0 0 1 1.49 2.59v66.1a3 3 0 0 1-1.49 2.58l-56.5 33.02a3 3 0 0 1-3.02 0l-56.5-33.02a3 3 0 0 1-1.49-2.59v-66.1a3 3 0 0 1 1.49-2.58l56.5-33.02a3 3 0 0 1 3.02 0z" opacity=".13"/>
  <path fill="url(#CloudflareWorkersIllustrationScaling--gradient)" d="M79.5 48.83l34 19.78a3 3 0 0 1 1.5 2.6v39.59a3 3 0 0 1-1.5 2.59l-34 19.78a3 3 0 0 1-3 0l-34-19.78a3 3 0 0 1-1.5-2.6V71.2a3 3 0 0 1 1.5-2.59l34-19.78a3 3 0 0 1 3 0z" opacity=".47"/>
  <path fill="url(#CloudflareWorkersIllustrationScaling--gradient)" d="M80 69.38l15.5 9a3 3 0 0 1 1.5 2.6v18.04a3 3 0 0 1-1.5 2.6l-15.5 9a3 3 0 0 1-3 0l-15.5-9a3 3 0 0 1-1.5-2.6V80.98a3 3 0 0 1 1.5-2.6l15.5-9a3 3 0 0 1 3 0z"/>
  <path fill="#f7a648" fill-rule="nonzero" d="M154.78 45.94a.84.84 0 0 0-.77-1.28l-13.75 1.08a.84.84 0 0 0-.65 1.26l6.36 10.56a.84.84 0 0 0 1.42.02l7.39-11.64zM96.79 81.15l47.4-28.54a1 1 0 0 0-1.03-1.72l-47.4 28.55a1 1 0 1 0 1.03 1.71z"/>
  <path fill="#f6a547" fill-rule="nonzero" d="M79.25.77a.84.84 0 0 0-1.5 0L71.6 13.1a.84.84 0 0 0 .75 1.2h12.32a.84.84 0 0 0 .75-1.2L79.25.77zm.25 69.15V13.3a1 1 0 1 0-2 0v56.6a1 1 0 0 0 2 0z"/>
  <path fill="#f4953d" fill-rule="nonzero" d="M2.68 45.28a.84.84 0 0 0-.75 1.29l7.53 11.55a.84.84 0 0 0 1.42-.04l6.22-10.64a.84.84 0 0 0-.66-1.26l-13.76-.9zm58.25 33.77L13.63 51.4a1 1 0 1 0-1.01 1.72l47.3 27.67a1 1 0 0 0 1-1.73z"/>
</svg>
