<svg width="179px" height="160px" xmlns="http://www.w3.org/2000/svg" viewBox="0 0 179 160">
  <title>Serverless</title>
  <defs>
    <linearGradient id="CloudflareWorkersIllustrationServerless--gradient-a" x1="86.98%" x2="13.69%" y1="0%" y2="100%">
      <stop offset="0%" stop-color="#faae40"/>
      <stop offset="100%" stop-color="#f38020"/>
    </linearGradient>
    <linearGradient id="CloudflareWorkersIllustrationServerless--gradient-b" x1="132.11%" x2="13.69%" y1="0%" y2="100%">
      <stop offset="0%" stop-color="#faae40"/>
      <stop offset="100%" stop-color="#f38020"/>
    </linearGradient>
  </defs>
  <path fill="url(#CloudflareWorkersIllustrationServerless--gradient-a)" d="M33.03 97C23.45 97 16 89.08 16 79.32c0-8.45 5.59-15.84 13.04-17.16 0-1.58-.27-2.9-.27-5.01 0-14.26 11.17-25.6 24.48-25.6 2.12 0 4.52.52 6.91 1.05C66.28 17.3 80.38 7 96.88 7c20.75 0 38.04 17.16 39.1 38.8C147.95 47.38 157 58.2 157 71.4c0 12.93-11.17 25.6-21.02 25.6H33.03z" opacity=".21"/>
  <path fill="url(#CloudflareWorkersIllustrationServerless--gradient-b)" d="M80 107V85.14c0-.6-.5-1.14-1.1-1.14H65a.97.97 0 0 1-.72-1.66l23.31-23.9a2 2 0 0 1 2.83-.03l24.23 23.92a1 1 0 0 1 0 1.41.97.97 0 0 1-.7.26H99.1c-.6 0-1.1.53-1.1 1.14V107a1 1 0 0 1-1 1H81a1 1 0 0 1-1-1z"/>
  <rect width="179" height="33" y="120" fill="#232324" rx="4"/>
  <path fill="#f8f8f2" d="M28 133.34h1.24l1.34 6.19 1.1-3.95h1.06l1.11 3.95 1.33-6.19h1.25l-1.8 7.66h-1.2l-1.22-4.2L31 141h-1.2L28 133.34zm16.32 1.58a2.85 2.85 0 0 0-.82-.46 2.8 2.8 0 0 0-.91-.14c-.79 0-1.39.25-1.8.74-.41.5-.62 1.2-.62 2.13V141H38.9v-7.66h1.27v1.5c.2-.54.53-.96.97-1.25a3.12 3.12 0 0 1 2.42-.32c.26.08.52.2.76.37v1.28zm6.51 2.23h-1.6c-.72 0-1.28.13-1.65.39-.37.26-.56.64-.56 1.15 0 .46.14.82.42 1.07.28.26.66.39 1.16.39a2 2 0 0 0 1.63-.73c.4-.48.6-1.14.6-1.99v-.28zm1.27-.52V141h-1.27v-1.13c-.27.45-.6.79-1.01 1-.41.22-.9.33-1.49.33a2.6 2.6 0 0 1-1.87-.66 2.32 2.32 0 0 1-.7-1.77c0-.85.3-1.5.86-1.94a4.07 4.07 0 0 1 2.52-.66h1.7v-.2c-.01-.61-.17-1.06-.47-1.33-.3-.28-.8-.41-1.47-.41-.42 0-.86.06-1.3.18-.43.12-.86.3-1.27.54v-1.26c.46-.18.9-.3 1.33-.4.43-.09.84-.13 1.24-.13.64 0 1.18.1 1.63.28.45.19.81.47 1.09.84.17.23.3.51.37.84.07.34.1.84.1 1.51zm8.37-.37V141h-1.26v-4.74c0-.7-.12-1.2-.37-1.52-.24-.33-.62-.49-1.13-.49-.59 0-1.04.21-1.36.63a2.92 2.92 0 0 0-.47 1.8V141h-1.26v-7.66h1.26v1.15a2.37 2.37 0 0 1 2.27-1.33c.78 0 1.36.26 1.74.77.39.51.58 1.29.58 2.33zm7.11.85c0-.94-.15-1.66-.46-2.15a1.5 1.5 0 0 0-1.34-.73c-.62 0-1.09.24-1.41.73-.33.49-.49 1.2-.49 2.15 0 .94.16 1.66.5 2.16.32.5.79.74 1.4.74.59 0 1.03-.25 1.34-.75.3-.5.46-1.21.46-2.15zm1.26 3.4c0 1.15-.27 2.02-.82 2.6-.54.6-1.34.9-2.39.9a6.54 6.54 0 0 1-2.22-.38v-1.24c.45.2.85.36 1.22.46.36.1.7.15 1 .15.68 0 1.18-.18 1.49-.55.3-.37.46-.96.46-1.76v-.9c-.2.42-.47.74-.82.95a2.4 2.4 0 0 1-1.26.31c-.9 0-1.61-.35-2.14-1.07a4.7 4.7 0 0 1-.8-2.87c0-1.2.26-2.16.8-2.88a2.53 2.53 0 0 1 2.14-1.07c.49 0 .9.1 1.25.3.34.19.62.5.83.9v-.99h1.26v7.14zm6.22-2.28c0 .57.1 1 .31 1.28.2.29.51.43.92.43h1.47V141h-1.6c-.75 0-1.33-.24-1.74-.72a3.05 3.05 0 0 1-.62-2.05v-6.92h-2.02v-.99h3.28v7.91zm11.17-1.69v.62h-5.45v.04c-.04 1.04.16 1.8.6 2.25.43.45 1.05.68 1.84.68.4 0 .82-.06 1.26-.19.44-.13.9-.32 1.4-.58v1.25c-.48.2-.94.34-1.38.44-.45.1-.88.15-1.3.15a3.64 3.64 0 0 1-2.78-1.07c-.67-.71-1-1.7-1-2.95 0-1.22.32-2.2.98-2.93a3.36 3.36 0 0 1 2.62-1.1c.98 0 1.75.34 2.31 1 .56.66.86 1.46.9 2.4zm-1.26-.37a2.44 2.44 0 0 0-.58-1.37c-.33-.38-.8-.57-1.42-.57a2 2 0 0 0-1.5.6c-.4.4-.6.85-.64 1.35h4.14zm9.93-1.25a2.85 2.85 0 0 0-.82-.46 2.8 2.8 0 0 0-.92-.14c-.78 0-1.38.25-1.8.74-.41.5-.62 1.2-.62 2.13V141h-1.26v-7.66h1.26v1.5c.21-.54.53-.96.97-1.25a3.12 3.12 0 0 1 2.42-.32c.26.08.52.2.77.37v1.28zm11.52 5.12v3.87h-1.26v-10.57h1.26v.98a2.19 2.19 0 0 1 2.05-1.16c.92 0 1.65.36 2.17 1.07.53.72.8 1.7.8 2.98a4.8 4.8 0 0 1-.8 2.93 2.56 2.56 0 0 1-2.17 1.06c-.47 0-.88-.1-1.22-.3a2.1 2.1 0 0 1-.83-.86zm3.7-2.86c0-.98-.16-1.71-.47-2.2-.3-.5-.76-.75-1.37-.75-.6 0-1.07.25-1.39.74-.31.5-.47 1.24-.47 2.2 0 .97.16 1.7.47 2.21.32.5.78.75 1.4.75.6 0 1.05-.25 1.36-.74.3-.5.46-1.24.46-2.21zm3.5.92v-4.74h1.26v4.74c0 .69.12 1.2.36 1.52.25.32.62.48 1.14.48.59 0 1.04-.2 1.36-.62.31-.42.47-1.02.47-1.8v-4.32h1.26V141h-1.26v-1.15a2.38 2.38 0 0 1-2.27 1.35c-.78 0-1.36-.26-1.75-.77-.38-.51-.57-1.29-.57-2.33zm13.37-.92c0-.98-.15-1.71-.46-2.2-.31-.5-.77-.75-1.38-.75-.6 0-1.07.25-1.39.74-.31.5-.47 1.24-.47 2.2 0 .97.16 1.7.47 2.21.32.5.78.75 1.4.75.6 0 1.06-.25 1.37-.74.3-.5.46-1.24.46-2.21zm-3.7-2.86c.2-.37.48-.66.83-.86.36-.2.77-.3 1.23-.3.92 0 1.65.35 2.17 1.06.53.71.8 1.69.8 2.93a4.9 4.9 0 0 1-.8 2.97 2.57 2.57 0 0 1-2.18 1.08c-.46 0-.86-.1-1.21-.3-.35-.2-.63-.49-.84-.86v.96h-1.25v-10.64h1.25v3.96zm10.77 3.91c0 .57.1 1 .31 1.28.2.29.51.43.92.43h1.47V141h-1.6c-.74 0-1.33-.24-1.74-.72a3.05 3.05 0 0 1-.62-2.05v-6.92h-2.01v-.99h3.27v7.91zm5.67-4.86h3.22v6.65h2.5v.98h-6.25v-.98h2.5v-5.67h-1.97v-.98zm1.97-2.97h1.25v1.58h-1.25v-1.58zm10.95 3.21v1.23a4.8 4.8 0 0 0-1.08-.47c-.37-.1-.74-.16-1.12-.16-.57 0-1 .1-1.27.28-.28.18-.42.46-.42.84 0 .34.1.6.31.77.21.17.73.33 1.57.5l.5.09c.63.12 1.1.35 1.42.7.32.36.48.83.48 1.4 0 .75-.27 1.34-.8 1.77-.54.43-1.29.64-2.25.64a6.3 6.3 0 0 1-1.19-.12c-.41-.08-.86-.2-1.34-.36v-1.3c.47.24.92.42 1.34.54.43.13.84.19 1.22.19.56 0 .99-.12 1.3-.34.3-.23.45-.54.45-.95 0-.58-.56-.99-1.67-1.21l-.06-.01-.47-.1a3.01 3.01 0 0 1-1.59-.71c-.33-.34-.5-.8-.5-1.37 0-.74.25-1.3.75-1.7.5-.4 1.2-.6 2.13-.6a6.05 6.05 0 0 1 2.3.45zm8.97 2.65V141h-1.27v-4.74c0-.7-.12-1.2-.36-1.52-.24-.33-.62-.49-1.14-.49-.58 0-1.04.21-1.35.63a2.92 2.92 0 0 0-.48 1.8V141h-1.26v-10.64h1.26v4.13a2.37 2.37 0 0 1 2.27-1.33c.78 0 1.36.26 1.75.77.38.51.58 1.29.58 2.33z"/>
  <path fill="#b67c40" d="M15.74 137.4v2.06c.3-.05.51-.16.67-.34a1 1 0 0 0 .24-.68c0-.29-.08-.52-.23-.7-.16-.18-.38-.3-.68-.35zm-.96-1.98v-1.94c-.28.04-.5.13-.64.28a.88.88 0 0 0-.21.63c0 .26.07.48.21.65.14.17.36.3.64.38zm.96 7.64h-.96V141a6.2 6.2 0 0 1-1.25-.18c-.43-.1-.88-.25-1.35-.45v-1.79c.47.28.92.5 1.36.64.44.15.85.23 1.24.24v-2.25a3.84 3.84 0 0 1-2-.92 2.33 2.33 0 0 1-.66-1.73c0-.76.23-1.37.7-1.82a3 3 0 0 1 1.96-.76v-1.62h.96l.01 1.62a8.15 8.15 0 0 1 2.08.4v1.74a3.9 3.9 0 0 0-.94-.43c-.35-.11-.73-.18-1.15-.21v2.1c.9.14 1.58.45 2.04.92.46.47.68 1.1.68 1.88 0 .75-.24 1.36-.74 1.84s-1.15.74-1.97.78v2.06z"/>
</svg>
