<svg width="176px" height="160px" xmlns="http://www.w3.org/2000/svg" viewBox="0 0 176 160">
  <title>0ms cold starts</title>
  <defs>
    <linearGradient id="CloudflareWorkersIllustrationShortColdStarts--gradient" x1="124.4%" x2="-6.68%" y1="0%" y2="131.31%">
      <stop offset="0%" stop-color="#FAAE40"/>
      <stop offset="100%" stop-color="#F38020"/>
    </linearGradient>
  </defs>
  <path fill="url(#CloudflareWorkersIllustrationShortColdStarts--gradient)" d="M34.57 17.65l4.24 6.68c.25.4.25.89 0 1.29l-4.29 6.71c-.25.4-.72.65-1.23.65L5.67 33c-.51 0-.99-.25-1.24-.65L.19 25.67c-.25-.4-.25-.89 0-1.29l4.29-6.71c.25-.4.72-.65 1.23-.65L33.33 17c.51 0 .99.25 1.24.65z"/>
  <path fill="#4e5255" d="M139.59 113.65l4.22 6.68c.25.4.25.89 0 1.29l-4.27 6.71c-.26.4-.72.65-1.23.65L5.65 129c-.51 0-.98-.25-1.24-.65L.2 121.67c-.25-.4-.25-.89 0-1.29l4.27-6.71c.26-.4.72-.65 1.23-.65l132.66-.02c.51 0 .98.25 1.24.65zM116.59 89.65l4.22 6.68c.25.4.25.89 0 1.29l-4.27 6.71c-.26.4-.72.65-1.23.65L5.65 105c-.51 0-.98-.25-1.24-.65L.2 97.67c-.25-.4-.25-.89 0-1.29l4.27-6.71c.26-.4.72-.65 1.23-.65L115.35 89c.51 0 .98.25 1.24.65zM85.59 65.65l4.22 6.68c.25.4.25.89 0 1.29l-4.28 6.71c-.25.4-.72.65-1.22.65L5.65 81c-.5 0-.98-.25-1.24-.65L.2 73.67c-.25-.4-.25-.89 0-1.29l4.28-6.71c.25-.4.72-.65 1.22-.65L84.35 65c.5 0 .98.25 1.24.65zM68.58 41.65l4.23 6.68c.25.4.25.89 0 1.29l-4.28 6.71c-.25.4-.72.65-1.23.65L5.65 57c-.5 0-.98-.25-1.23-.65L.19 49.67c-.25-.4-.25-.89 0-1.29l4.28-6.71c.25-.4.72-.65 1.23-.65L67.35 41c.5 0 .98.25 1.23.65zM171.59 137.65l4.22 6.68c.25.4.25.89 0 1.29l-4.27 6.71c-.26.4-.72.65-1.23.65L5.65 153c-.51 0-.98-.25-1.24-.65L.2 145.67c-.25-.4-.25-.89 0-1.29l4.27-6.71c.26-.4.72-.65 1.23-.65l164.66-.02c.51 0 .98.25 1.24.65z"/>
</svg>
