<svg xmlns="http://www.w3.org/2000/svg" width="1300" height="280" fill="none" viewBox="0 0 1300 280"><path fill="#fff" d="M0 0h1300v280H0z"/><path fill="#222" d="M180.383 138.328h-1.867a1.8 1.8 0 0 0-.209-.643 1.6 1.6 0 0 0-.404-.486 1.8 1.8 0 0 0-.572-.307 2.2 2.2 0 0 0-.694-.106q-.678 0-1.181.336-.503.333-.779.972-.277.635-.277 1.542 0 .934.277 1.569.281.634.784.958a2.1 2.1 0 0 0 1.163.324q.37 0 .686-.098a1.8 1.8 0 0 0 .567-.285q.247-.192.409-.465.167-.273.23-.622l1.867.009q-.073.6-.363 1.159-.285.553-.771.993a3.7 3.7 0 0 1-1.15.69 4.2 4.2 0 0 1-1.505.251q-1.167 0-2.088-.528-.916-.528-1.449-1.53-.528-1.002-.528-2.425 0-1.427.537-2.429t1.457-1.525q.92-.529 2.071-.529.759 0 1.407.213.651.214 1.154.623.503.404.819.993.32.588.409 1.346m8.623-3.055V144h-1.594l-3.797-5.493h-.064V144h-1.845v-8.727h1.619l3.767 5.488h.077v-5.488zm3.028 8.727h-1.977l3.013-8.727h2.378l3.008 8.727h-1.977l-2.186-6.733h-.068zm-.123-3.43h4.67v1.44h-4.67zm7.596-5.297h2.275l2.404 5.863h.102l2.403-5.863h2.276V144h-1.79v-5.68h-.072l-2.259 5.637h-1.219l-2.258-5.659h-.073V144h-1.789zm10.98 8.727v-8.727h5.881v1.521h-4.036v2.08h3.733v1.521h-3.733v2.084h4.053V144zm364.896-6.672h-1.867a1.8 1.8 0 0 0-.209-.643 1.6 1.6 0 0 0-.404-.486 1.8 1.8 0 0 0-.572-.307 2.2 2.2 0 0 0-.694-.106q-.678 0-1.181.336-.503.333-.779.972-.277.635-.277 1.542 0 .934.277 1.569.281.634.784.958a2.1 2.1 0 0 0 1.163.324q.37 0 .686-.098a1.8 1.8 0 0 0 .567-.285q.247-.192.409-.465.167-.273.23-.622l1.867.009q-.073.6-.363 1.159-.285.553-.771.993a3.7 3.7 0 0 1-1.15.69 4.2 4.2 0 0 1-1.505.251q-1.167 0-2.088-.528-.916-.528-1.449-1.53-.528-1.002-.528-2.425 0-1.427.537-2.429t1.457-1.525q.92-.529 2.071-.529.759 0 1.407.213.651.214 1.154.623.503.404.819.993.32.588.409 1.346m8.623-3.055V143h-1.594l-3.797-5.493h-.064V143h-1.845v-8.727h1.619l3.767 5.488h.077v-5.488zm3.028 8.727h-1.977l3.013-8.727h2.378l3.008 8.727h-1.977l-2.186-6.733h-.068zm-.123-3.43h4.67v1.44h-4.67zm7.596-5.297h2.275l2.404 5.863h.102l2.403-5.863h2.276V143h-1.79v-5.68h-.072l-2.259 5.637h-1.219l-2.258-5.659h-.073V143h-1.789zm10.98 8.727v-8.727h5.881v1.521h-4.036v2.08h3.733v1.521h-3.733v2.084h4.053V143z"/><path fill="#fff" d="M122.062 133.483H51v46.668h71.062z"/><path fill="#3E74FF" stroke="#3E74FF" stroke-miterlimit="10" stroke-width="1.5" d="M122.062 130.301H51v5.303h71.062z"/><path fill="#fff" d="M54.287 133.903a1.378 1.378 0 1 0 0-2.756 1.378 1.378 0 0 0 0 2.756m4.457 0a1.378 1.378 0 1 0 0-2.756 1.378 1.378 0 0 0 0 2.756m4.458 0a1.378 1.378 0 1 0 0-2.756 1.378 1.378 0 0 0 0 2.756"/><path fill="#E0ECFF" d="M92.29 140.532H55.233v14.998H92.29zm-15.882 17.646H55.233v18.528h21.175zm41.467-17.646h-22.94v14.998h22.94zm0 17.646h-38.82v18.528h38.82z"/><path fill="#fff" d="M122.062 132.854H51v46.668h71.062z"/><path fill="#3E74FF" stroke="#3E74FF" stroke-miterlimit="10" stroke-width="1.5" d="M122.062 129.672H51v5.304h71.062z"/><path fill="#fff" d="M54.287 133.903a1.378 1.378 0 1 0 0-2.757 1.378 1.378 0 0 0 0 2.757m4.457 0a1.378 1.378 0 1 0 0-2.757 1.378 1.378 0 0 0 0 2.757m4.458 0a1.378 1.378 0 1 0 0-2.757 1.378 1.378 0 0 0 0 2.757"/><path fill="#E0ECFF" d="M92.29 139.903H55.233v14.999H92.29zm-15.882 17.646H55.233v18.528h21.175zm41.467-17.646h-22.94v14.999h22.94zm0 17.646h-38.82v18.528h38.82z"/><path stroke="#3E74FF" stroke-miterlimit="10" stroke-width="1.5" d="M122.062 129.24H51v6.364h71.062z"/><path stroke="#3E74FF" stroke-miterlimit="10" stroke-width="1.5" d="M122.062 129.24H51v50.911h71.062z"/><path fill="#222" d="M31.9 198.268q-.923 0-1.586-.391a2.64 2.64 0 0 1-1.016-1.094q-.351-.699-.352-1.609 0-.922.356-1.617.36-.699 1.02-1.09.66-.394 1.57-.394.784 0 1.375.285.59.285.933.8t.38 1.211h-1.571a1.2 1.2 0 0 0-.352-.722q-.28-.278-.738-.278a1.12 1.12 0 0 0-.676.211q-.285.207-.445.606-.16.398-.16.965 0 .573.156.976.16.402.45.614.288.21.675.21.284 0 .512-.117a1 1 0 0 0 .379-.34q.151-.227.199-.543h1.57a2.46 2.46 0 0 1-.375 1.211 2.26 2.26 0 0 1-.918.813q-.586.293-1.387.293m7.592-2.672v-3.445h1.664v6H39.56v-1.09h-.063a1.77 1.77 0 0 1-.676.847q-.469.321-1.144.321-.602 0-1.059-.274a1.9 1.9 0 0 1-.715-.777q-.254-.504-.258-1.207v-3.82h1.665v3.523q.003.531.285.84t.754.309q.3 0 .562-.137.262-.141.422-.414a1.27 1.27 0 0 0 .16-.676m7.988-1.734-1.524.093a.8.8 0 0 0-.168-.351.9.9 0 0 0-.34-.254 1.2 1.2 0 0 0-.496-.098q-.387 0-.652.164-.266.16-.266.43 0 .214.172.363t.59.239l1.086.218q.874.18 1.305.578.43.399.43 1.047 0 .591-.348 1.035-.345.445-.946.696-.597.246-1.379.246-1.191 0-1.898-.496a1.94 1.94 0 0 1-.824-1.36l1.636-.086q.075.364.36.555.285.188.73.188.438 0 .703-.168.27-.172.274-.442a.46.46 0 0 0-.192-.371q-.187-.148-.578-.226l-1.039-.207q-.879-.177-1.308-.61-.426-.433-.426-1.105 0-.579.312-.996.317-.418.887-.645.574-.226 1.344-.226 1.137 0 1.789.48.656.48.766 1.309m4.376-1.711v1.25h-3.614v-1.25zm-2.794-1.438h1.665v5.594q0 .23.07.359a.4.4 0 0 0 .195.176.8.8 0 0 0 .297.051q.117 0 .234-.02l.18-.035.262 1.238a4 4 0 0 1-.352.09 3 3 0 0 1-.55.067 2.55 2.55 0 0 1-1.055-.16 1.5 1.5 0 0 1-.7-.571q-.25-.387-.245-.976zm6.524 7.555q-.91 0-1.574-.387-.66-.39-1.02-1.086-.36-.699-.36-1.621 0-.93.36-1.625.36-.699 1.02-1.086.663-.39 1.574-.39.91 0 1.57.39.664.387 1.024 1.086.36.696.36 1.625 0 .922-.36 1.621-.36.696-1.024 1.086-.66.387-1.57.387m.008-1.289q.414 0 .691-.235a1.45 1.45 0 0 0 .418-.648 2.8 2.8 0 0 0 .145-.934q0-.523-.145-.933a1.45 1.45 0 0 0-.418-.649 1.03 1.03 0 0 0-.691-.238q-.418 0-.703.238-.282.238-.426.649-.14.41-.14.933t.14.934q.144.41.426.648.285.235.703.235m4.027 1.172v-6h1.586v1.058h.07q.188-.527.625-.832.438-.304 1.047-.304.618 0 1.051.308.434.304.578.828h.063a1.6 1.6 0 0 1 .664-.824q.484-.312 1.144-.312.84 0 1.364.535.527.53.527 1.508v4.035h-1.66v-3.707q0-.501-.266-.75a.93.93 0 0 0-.664-.25q-.453 0-.707.289-.254.285-.254.754v3.664h-1.613v-3.743q0-.44-.254-.703-.25-.261-.66-.261a.92.92 0 0 0-.848.527 1.2 1.2 0 0 0-.129.578v3.602zm11.006.101a.9.9 0 0 1-.664-.273.9.9 0 0 1-.273-.664q0-.382.273-.657a.9.9 0 0 1 .664-.273q.375 0 .656.273a.9.9 0 0 1 .281.657.9.9 0 0 1-.132.472q-.13.211-.34.34a.9.9 0 0 1-.465.125m5.038.016q-.925 0-1.594-.375a2.6 2.6 0 0 1-1.023-1.07q-.36-.696-.36-1.645 0-.926.36-1.625a2.66 2.66 0 0 1 1.012-1.09q.656-.39 1.539-.39.593 0 1.105.191.516.188.899.566.386.38.601.953.215.571.215 1.336v.457h-5.066v-1.031h3.5q0-.359-.157-.637a1.1 1.1 0 0 0-.433-.433 1.23 1.23 0 0 0-.637-.16q-.38 0-.672.176a1.23 1.23 0 0 0-.453.464q-.164.29-.168.645v.98q0 .446.164.77a1.2 1.2 0 0 0 .473.5q.305.176.722.176.278 0 .508-.078a1.02 1.02 0 0 0 .645-.618l1.539.102a2.1 2.1 0 0 1-.48.969 2.4 2.4 0 0 1-.93.64 3.5 3.5 0 0 1-1.309.227m5.123-6.117 1.102 2.097 1.129-2.097h1.707l-1.739 3 1.785 3h-1.699l-1.183-2.075-1.164 2.075h-1.72l1.782-3-1.719-3zm6.605 6.113q-.574 0-1.024-.199a1.65 1.65 0 0 1-.71-.598q-.26-.398-.259-.992 0-.5.184-.84.183-.34.5-.547.315-.207.719-.312.405-.106.851-.149.524-.054.844-.101.32-.051.465-.149a.33.33 0 0 0 .144-.289v-.023q0-.372-.234-.574-.23-.204-.656-.204-.45 0-.715.2a.9.9 0 0 0-.352.492l-1.539-.125q.117-.547.461-.946a2.2 2.2 0 0 1 .887-.617q.547-.218 1.266-.218.5 0 .957.117.461.117.816.363.36.246.566.633.208.382.208.918v4.047h-1.579v-.832h-.046a1.7 1.7 0 0 1-.387.496q-.243.21-.582.332a2.4 2.4 0 0 1-.785.117m.476-1.148q.367 0 .649-.145.28-.149.441-.398a1.03 1.03 0 0 0 .16-.567v-.637a1 1 0 0 1-.215.094 4 4 0 0 1-.3.074q-.168.032-.336.059l-.305.043a2 2 0 0 0-.512.137.8.8 0 0 0-.34.254.62.62 0 0 0-.12.39q0 .34.245.52.25.176.633.176m4.194 1.035v-6h1.585v1.058h.07q.189-.527.626-.832t1.047-.304q.616 0 1.05.308.434.304.578.828h.063a1.6 1.6 0 0 1 .664-.824q.485-.312 1.145-.312.84 0 1.363.535.527.53.527 1.508v4.035h-1.66v-3.707q0-.501-.265-.75a.93.93 0 0 0-.665-.25q-.453 0-.707.289-.253.285-.253.754v3.664h-1.614v-3.743q0-.44-.254-.703-.249-.261-.66-.261a.92.92 0 0 0-.847.527 1.2 1.2 0 0 0-.13.578v3.602zm10.033 2.25v-8.25h1.64v1.007h.075q.108-.242.316-.492.211-.254.547-.422.34-.171.844-.171.656 0 1.211.343.554.34.886 1.028.332.683.332 1.714 0 1.005-.324 1.696-.32.687-.875 1.043a2.25 2.25 0 0 1-1.234.351q-.485 0-.825-.16a1.7 1.7 0 0 1-.55-.402 2 2 0 0 1-.328-.496h-.051v3.211zm1.629-5.25q0 .535.148.933.148.399.43.621.28.219.683.219.406 0 .688-.223.28-.226.426-.625a2.7 2.7 0 0 0 .148-.925q0-.52-.144-.914a1.4 1.4 0 0 0-.426-.618 1.08 1.08 0 0 0-.692-.222q-.407 0-.687.215a1.35 1.35 0 0 0-.426.609 2.6 2.6 0 0 0-.148.93m6.996-5v8h-1.664v-8zm4.067 8.117q-.925 0-1.594-.375a2.6 2.6 0 0 1-1.023-1.07q-.36-.696-.359-1.645 0-.926.359-1.625a2.66 2.66 0 0 1 1.012-1.09q.656-.39 1.539-.39.594 0 1.105.191.515.188.899.566.386.38.601.953.215.571.215 1.336v.457h-5.066v-1.031h3.5a1.27 1.27 0 0 0-.157-.637 1.1 1.1 0 0 0-.433-.433 1.24 1.24 0 0 0-.637-.16q-.38 0-.672.176a1.2 1.2 0 0 0-.453.464 1.3 1.3 0 0 0-.168.645v.98q0 .446.164.77.168.324.473.5t.722.176q.278 0 .508-.078.23-.08.395-.235.163-.156.25-.383l1.539.102q-.117.555-.481.969a2.4 2.4 0 0 1-.929.64 3.5 3.5 0 0 1-1.309.227m4.813-.016a.9.9 0 0 1-.664-.273.9.9 0 0 1-.274-.664q0-.382.274-.657a.9.9 0 0 1 .664-.273q.374 0 .656.273a.9.9 0 0 1 .281.657.9.9 0 0 1-.133.472 1 1 0 0 1-.34.34.9.9 0 0 1-.464.125m5.014.016q-.921 0-1.586-.391a2.64 2.64 0 0 1-1.015-1.094q-.352-.699-.352-1.609 0-.922.356-1.617a2.64 2.64 0 0 1 1.019-1.09q.66-.394 1.57-.394.786 0 1.375.285.59.285.934.8.343.516.379 1.211h-1.57a1.22 1.22 0 0 0-.352-.722q-.281-.278-.738-.278a1.12 1.12 0 0 0-.676.211q-.285.207-.445.606-.16.398-.16.965 0 .573.156.976.16.402.449.614.29.21.676.21.285 0 .511-.117a1 1 0 0 0 .379-.34q.153-.227.2-.543h1.57a2.46 2.46 0 0 1-.375 1.211 2.26 2.26 0 0 1-.918.813q-.586.293-1.387.293m6.456 0q-.91 0-1.574-.387-.66-.39-1.019-1.086-.36-.699-.36-1.621 0-.93.36-1.625a2.6 2.6 0 0 1 1.019-1.086q.665-.39 1.574-.39.91 0 1.571.39.663.387 1.023 1.086.36.696.359 1.625 0 .922-.359 1.621a2.64 2.64 0 0 1-1.023 1.086q-.661.387-1.571.387m.008-1.289q.414 0 .692-.235a1.45 1.45 0 0 0 .417-.648q.145-.41.145-.934 0-.523-.145-.933a1.45 1.45 0 0 0-.417-.649 1.03 1.03 0 0 0-.692-.238q-.418 0-.703.238a1.47 1.47 0 0 0-.426.649 2.9 2.9 0 0 0-.14.933q0 .524.14.934.145.41.426.648.285.235.703.235m4.027 1.172v-6h1.586v1.058h.071q.187-.527.625-.832.436-.304 1.047-.304.616 0 1.05.308.434.304.578.828h.063a1.6 1.6 0 0 1 .664-.824q.484-.312 1.145-.312.839 0 1.363.535.527.53.527 1.508v4.035h-1.66v-3.707q0-.501-.266-.75a.93.93 0 0 0-.664-.25q-.452 0-.707.289-.254.285-.254.754v3.664h-1.613v-3.743q0-.44-.254-.703-.249-.261-.66-.261a.9.9 0 0 0-.5.14.96.96 0 0 0-.348.387 1.2 1.2 0 0 0-.128.578v3.602z"/><path stroke="#D9D9D9" stroke-dasharray="10 10" stroke-width="2" d="M268 139h248v38H268z"/><path fill="#222" d="M293.063 161.759q-1.01 0-1.739-.409a2.8 2.8 0 0 1-1.116-1.167q-.392-.759-.392-1.794 0-1.011.392-1.773a2.9 2.9 0 0 1 1.103-1.189q.716-.426 1.679-.426.648 0 1.206.209.563.204.98.618.422.413.657 1.039.234.622.234 1.458v.498h-5.527v-1.125h3.818q0-.392-.17-.694a1.2 1.2 0 0 0-.473-.473 1.35 1.35 0 0 0-.695-.175q-.413 0-.733.192-.315.188-.494.507-.179.315-.183.703v1.07q0 .485.179.839.183.354.515.546.333.19.789.191.302 0 .554-.085.251-.085.43-.256.178-.17.273-.417l1.679.111a2.3 2.3 0 0 1-.524 1.056q-.393.449-1.015.699-.617.247-1.427.247m8.386-2.914v-3.759h1.816v6.546h-1.743v-1.189h-.069a1.93 1.93 0 0 1-.737.924q-.512.35-1.248.35-.657 0-1.155-.298a2.05 2.05 0 0 1-.78-.849q-.277-.55-.281-1.316v-4.168h1.815v3.844q.005.58.311.916.307.337.823.337.327 0 .613-.149.286-.154.461-.452.179-.299.174-.737m7.346-1.517v1.44h-3.98v-1.44zm4.504 4.431q-1.005 0-1.73-.426a2.9 2.9 0 0 1-1.108-1.193q-.384-.762-.384-1.756 0-1.005.388-1.764a2.9 2.9 0 0 1 1.112-1.189q.721-.43 1.713-.43.858 0 1.5.311.644.311 1.019.874t.413 1.321h-1.713q-.072-.49-.383-.789-.307-.302-.806-.302-.422 0-.737.23-.31.226-.486.66-.174.435-.174 1.053 0 .626.17 1.065.175.44.49.669t.737.23q.312 0 .559-.128.25-.127.413-.37.166-.247.217-.593h1.713a2.67 2.67 0 0 1-.409 1.321 2.47 2.47 0 0 1-1.001.887q-.64.32-1.513.319m8.283-2.914v-3.759h1.815v6.546h-1.743v-1.189h-.068a1.93 1.93 0 0 1-.737.924q-.511.35-1.249.35-.656 0-1.154-.298a2.04 2.04 0 0 1-.78-.849q-.278-.55-.281-1.316v-4.168h1.815v3.844q.004.58.311.916t.822.337q.329 0 .614-.149.286-.154.46-.452.18-.299.175-.737m8.713-1.892-1.661.102a.9.9 0 0 0-.184-.384 1 1 0 0 0-.37-.277 1.3 1.3 0 0 0-.542-.106q-.421 0-.711.179-.29.174-.29.469 0 .234.187.396.188.161.644.26l1.185.238q.954.196 1.423.631t.469 1.142q0 .644-.38 1.129-.375.486-1.031.759-.652.268-1.504.268-1.3 0-2.071-.541a2.1 2.1 0 0 1-.899-1.483l1.785-.093a.92.92 0 0 0 .392.605q.312.204.797.204.477 0 .767-.183.295-.188.298-.482a.5.5 0 0 0-.208-.404q-.205-.162-.631-.248l-1.134-.225q-.959-.192-1.427-.665-.465-.474-.465-1.206 0-.631.341-1.087.345-.456.968-.703.626-.247 1.466-.247 1.24 0 1.951.524.717.523.835 1.428m4.774-1.867v1.364h-3.942v-1.364zm-3.047-1.568h1.816v6.102q0 .252.076.392a.43.43 0 0 0 .213.192.9.9 0 0 0 .324.055q.129 0 .256-.021l.196-.038.286 1.351a5 5 0 0 1-.384.098 3 3 0 0 1-.601.072q-.656.026-1.15-.175a1.6 1.6 0 0 1-.763-.622q-.272-.422-.269-1.065zm7.117 8.241q-.994 0-1.717-.421a2.9 2.9 0 0 1-1.113-1.185q-.392-.763-.392-1.769 0-1.014.392-1.772a2.85 2.85 0 0 1 1.113-1.185q.724-.426 1.717-.426t1.713.426q.725.422 1.116 1.185.392.758.392 1.772 0 1.006-.392 1.769a2.9 2.9 0 0 1-1.116 1.185q-.72.421-1.713.421m.008-1.406q.452 0 .755-.256.301-.26.456-.707.157-.447.157-1.018 0-.572-.157-1.019a1.6 1.6 0 0 0-.456-.707 1.1 1.1 0 0 0-.755-.26q-.455 0-.767.26a1.6 1.6 0 0 0-.464.707 3.1 3.1 0 0 0-.154 1.019q0 .57.154 1.018a1.6 1.6 0 0 0 .464.707q.312.256.767.256m4.394 1.279v-6.546h1.73v1.155h.077q.204-.576.681-.908t1.143-.332q.672 0 1.146.337.472.332.631.903h.068q.2-.563.724-.899.529-.34 1.249-.341.915 0 1.487.584.575.579.575 1.645v4.402h-1.811v-4.044q0-.546-.29-.819a1.02 1.02 0 0 0-.724-.272q-.495 0-.771.315-.277.311-.277.822v3.998h-1.76v-4.083q0-.482-.277-.767-.273-.285-.72-.285-.303 0-.546.153-.238.149-.379.422a1.34 1.34 0 0 0-.141.631v3.929zm13.928.127q-1.01 0-1.739-.409a2.8 2.8 0 0 1-1.116-1.167q-.392-.759-.392-1.794 0-1.011.392-1.773a2.9 2.9 0 0 1 1.104-1.189q.716-.426 1.679-.426.647 0 1.206.209.562.204.98.618.422.413.656 1.039.234.622.234 1.458v.498h-5.527v-1.125h3.819q0-.392-.171-.694a1.2 1.2 0 0 0-.473-.473 1.34 1.34 0 0 0-.695-.175q-.412 0-.732.192a1.35 1.35 0 0 0-.495.507q-.179.315-.183.703v1.07q0 .485.179.839.183.354.516.546.332.19.788.191.303 0 .554-.085a1.14 1.14 0 0 0 .43-.256 1.1 1.1 0 0 0 .273-.417l1.679.111a2.3 2.3 0 0 1-.524 1.056 2.6 2.6 0 0 1-1.014.699q-.618.247-1.428.247m4.189-.127v-6.546h1.76v1.142h.068q.179-.61.601-.92.422-.316.972-.316.137 0 .294.017t.277.047v1.611a2.5 2.5 0 0 0-.354-.068 3 3 0 0 0-.413-.03q-.4 0-.716.175a1.3 1.3 0 0 0-.495.477q-.179.307-.179.707v3.704zm10.356-4.679-1.662.102a.86.86 0 0 0-.183-.384 1 1 0 0 0-.371-.277 1.3 1.3 0 0 0-.541-.106q-.421 0-.712.179-.29.174-.289.469 0 .234.187.396.188.161.644.26l1.184.238q.955.196 1.424.631t.468 1.142q0 .644-.379 1.129-.375.486-1.031.759-.652.268-1.504.268-1.3 0-2.071-.541a2.1 2.1 0 0 1-.9-1.483l1.786-.093a.92.92 0 0 0 .392.605q.31.204.797.204.477 0 .767-.183.294-.188.298-.482a.5.5 0 0 0-.209-.404q-.204-.162-.63-.248l-1.134-.225q-.959-.192-1.427-.665-.465-.474-.465-1.206 0-.631.341-1.087.346-.456.967-.703.627-.247 1.466-.247 1.24 0 1.952.524.716.523.835 1.428m2.354 4.789a1 1 0 0 1-.725-.298 1 1 0 0 1-.298-.724q0-.418.298-.716a1 1 0 0 1 .725-.299q.409 0 .715.299a.96.96 0 0 1 .307.716.96.96 0 0 1-.145.515 1.1 1.1 0 0 1-.37.371 1 1 0 0 1-.507.136m2.513-.11v-6.546h1.73v1.155h.077q.204-.576.681-.908t1.142-.332q.673 0 1.147.337.472.332.63.903h.069q.2-.563.724-.899.528-.34 1.249-.341.915 0 1.487.584.575.579.575 1.645v4.402h-1.811v-4.044q0-.546-.29-.819a1.02 1.02 0 0 0-.724-.272q-.495 0-.772.315-.276.311-.277.822v3.998h-1.759v-4.083q0-.482-.277-.767-.273-.285-.721-.285-.302 0-.545.153-.239.149-.379.422a1.34 1.34 0 0 0-.141.631v3.929zm11.831 2.454q-.345 0-.647-.055a2.4 2.4 0 0 1-.495-.132l.409-1.355q.32.097.576.106a.73.73 0 0 0 .447-.119q.192-.128.311-.435l.107-.277-2.348-6.733h1.909l1.355 4.807h.068l1.368-4.807h1.922l-2.544 7.253a3 3 0 0 1-.499.92q-.31.397-.788.61-.477.217-1.151.217m7.602-2.331q-.627 0-1.117-.217a1.8 1.8 0 0 1-.775-.652q-.282-.435-.282-1.083 0-.545.201-.916.2-.37.545-.596a2.6 2.6 0 0 1 .784-.341q.444-.115.929-.162.571-.06.921-.111.349-.056.507-.162a.36.36 0 0 0 .157-.315v-.026q0-.405-.255-.626-.252-.222-.716-.222-.49 0-.78.218a1 1 0 0 0-.384.536l-1.679-.136q.128-.597.503-1.031.375-.44.968-.673.596-.24 1.38-.239.546 0 1.044.128.503.128.891.396.392.268.618.69.226.418.226 1.002v4.415h-1.722v-.908h-.051a1.9 1.9 0 0 1-.422.541 1.9 1.9 0 0 1-.635.362 2.6 2.6 0 0 1-.856.128m.519-1.253q.4 0 .708-.157.307-.162.481-.435.175-.273.175-.618v-.695a1 1 0 0 1-.234.103 5 5 0 0 1-.328.081q-.184.034-.367.064l-.332.047q-.32.046-.559.149a.9.9 0 0 0-.37.277.67.67 0 0 0-.132.426q0 .37.268.567.273.19.69.191m4.575 3.584v-9h1.79v1.1h.081a2.3 2.3 0 0 1 .345-.537q.23-.277.597-.461.37-.187.92-.187.716 0 1.321.375.605.37.967 1.121.363.745.363 1.87 0 1.095-.354 1.85-.35.75-.955 1.138-.6.383-1.346.383-.529 0-.899-.175a1.8 1.8 0 0 1-.601-.439 2.2 2.2 0 0 1-.358-.541h-.056v3.503zm1.777-5.727q0 .584.162 1.018t.469.678q.306.239.745.239.444 0 .75-.243a1.5 1.5 0 0 0 .465-.682q.162-.439.162-1.01 0-.567-.158-.997a1.5 1.5 0 0 0-.464-.674 1.18 1.18 0 0 0-.755-.243q-.443 0-.75.235a1.47 1.47 0 0 0-.464.665 2.9 2.9 0 0 0-.162 1.014m5.817 5.727v-9h1.79v1.1h.081a2.3 2.3 0 0 1 .345-.537q.23-.277.596-.461.37-.187.921-.187.715 0 1.321.375.605.37.967 1.121.363.745.362 1.87 0 1.095-.353 1.85-.35.75-.955 1.138a2.46 2.46 0 0 1-1.347.383q-.528 0-.899-.175a1.9 1.9 0 0 1-.601-.439 2.2 2.2 0 0 1-.357-.541h-.056v3.503zm1.777-5.727q0 .584.162 1.018t.468.678q.308.239.746.239.444 0 .75-.243a1.5 1.5 0 0 0 .465-.682q.162-.439.162-1.01 0-.567-.158-.997a1.5 1.5 0 0 0-.465-.674 1.18 1.18 0 0 0-.754-.243q-.442 0-.75.235a1.47 1.47 0 0 0-.464.665 2.9 2.9 0 0 0-.162 1.014m8.799 3.4q-1.01 0-1.738-.409a2.8 2.8 0 0 1-1.117-1.167q-.392-.759-.392-1.794 0-1.011.392-1.773.393-.763 1.104-1.189.716-.426 1.679-.426.648 0 1.206.209.563.204.98.618.422.413.656 1.039.235.622.235 1.458v.498h-5.527v-1.125h3.818q0-.392-.171-.694a1.2 1.2 0 0 0-.473-.473 1.34 1.34 0 0 0-.694-.175q-.414 0-.733.192-.315.188-.494.507-.18.315-.184.703v1.07q0 .485.179.839.183.354.516.546.332.19.788.191.303 0 .554-.085t.431-.256q.179-.17.272-.417l1.679.111a2.3 2.3 0 0 1-.524 1.056 2.6 2.6 0 0 1-1.014.699q-.618.247-1.428.247m5.589-6.673 1.202 2.288 1.231-2.288h1.863l-1.897 3.273 1.948 3.273h-1.854l-1.291-2.263-1.27 2.263h-1.875l1.943-3.273-1.875-3.273zm7.205 6.669q-.626 0-1.116-.217a1.8 1.8 0 0 1-.776-.652q-.28-.435-.281-1.083 0-.545.2-.916.2-.37.546-.596a2.6 2.6 0 0 1 .784-.341q.443-.115.929-.162.57-.06.92-.111.35-.056.507-.162a.36.36 0 0 0 .158-.315v-.026q0-.405-.256-.626-.25-.222-.716-.222-.489 0-.78.218a1 1 0 0 0-.383.536l-1.679-.136q.128-.597.503-1.031.375-.44.967-.673.597-.24 1.381-.239.544 0 1.044.128.503.128.89.396.393.268.618.69.226.418.226 1.002v4.415h-1.721v-.908h-.051a1.9 1.9 0 0 1-.422.541 1.9 1.9 0 0 1-.635.362 2.6 2.6 0 0 1-.857.128m.52-1.253q.4 0 .707-.157.307-.162.482-.435.174-.273.175-.618v-.695a1 1 0 0 1-.235.103 5 5 0 0 1-.328.081q-.183.034-.366.064l-.333.047q-.32.046-.558.149a.9.9 0 0 0-.371.277.67.67 0 0 0-.132.426q0 .37.269.567.273.19.69.191m4.575 1.13v-6.546h1.73v1.155h.076q.205-.576.682-.908t1.142-.332q.673 0 1.147.337.472.332.63.903h.068a1.74 1.74 0 0 1 .725-.899q.528-.34 1.248-.341.917 0 1.488.584.575.579.575 1.645v4.402h-1.811v-4.044q0-.546-.29-.819a1.02 1.02 0 0 0-.724-.272q-.495 0-.772.315-.277.311-.277.822v3.998h-1.76v-4.083q0-.482-.277-.767-.271-.285-.72-.285-.302 0-.545.153-.239.149-.379.422a1.34 1.34 0 0 0-.141.631v3.929zm10.945 2.454v-9h1.79v1.1h.081a2.3 2.3 0 0 1 .345-.537q.23-.277.596-.461.371-.187.921-.187.716 0 1.321.375.605.37.967 1.121.363.745.362 1.87 0 1.095-.353 1.85-.35.75-.955 1.138-.6.383-1.346.383-.529 0-.9-.175a1.8 1.8 0 0 1-.6-.439 2.2 2.2 0 0 1-.358-.541h-.056v3.503zm1.777-5.727q0 .584.162 1.018t.469.678q.307.239.745.239.444 0 .75-.243a1.5 1.5 0 0 0 .465-.682q.162-.439.162-1.01 0-.567-.158-.997a1.5 1.5 0 0 0-.464-.674 1.18 1.18 0 0 0-.755-.243q-.443 0-.75.235a1.47 1.47 0 0 0-.464.665 2.9 2.9 0 0 0-.162 1.014m7.632-5.455v8.728h-1.815v-8.728zm4.437 8.855q-1.01 0-1.738-.409a2.8 2.8 0 0 1-1.117-1.167q-.392-.759-.392-1.794 0-1.011.392-1.773a2.9 2.9 0 0 1 1.104-1.189q.716-.426 1.679-.426.648 0 1.206.209.562.204.98.618.422.413.656 1.039.234.622.234 1.458v.498h-5.527v-1.125h3.819q0-.392-.171-.694a1.2 1.2 0 0 0-.473-.473 1.34 1.34 0 0 0-.694-.175q-.414 0-.733.192a1.35 1.35 0 0 0-.495.507q-.179.315-.183.703v1.07q0 .485.179.839.183.354.516.546.332.19.788.191.303 0 .554-.085a1.14 1.14 0 0 0 .43-.256 1.1 1.1 0 0 0 .273-.417l1.679.111a2.3 2.3 0 0 1-.524 1.056 2.6 2.6 0 0 1-1.014.699q-.618.247-1.428.247m5.25-.017a1 1 0 0 1-.724-.298 1 1 0 0 1-.299-.724q0-.418.299-.716a1 1 0 0 1 .724-.299q.41 0 .716.299a.96.96 0 0 1 .307.716.96.96 0 0 1-.145.515 1.1 1.1 0 0 1-.371.371.97.97 0 0 1-.507.136m5.471.017q-1.006 0-1.73-.426a2.87 2.87 0 0 1-1.108-1.193q-.384-.762-.384-1.756 0-1.005.388-1.764a2.9 2.9 0 0 1 1.112-1.189q.72-.43 1.713-.43.856 0 1.5.311t1.019.874.413 1.321h-1.713q-.072-.49-.384-.789-.307-.302-.805-.302-.422 0-.737.23-.312.226-.486.66-.175.435-.175 1.053 0 .626.171 1.065.174.44.49.669.315.23.737.23.31 0 .558-.128.252-.127.414-.37.166-.247.217-.593h1.713a2.7 2.7 0 0 1-.409 1.321 2.47 2.47 0 0 1-1.002.887q-.639.32-1.512.319m7.043 0q-.993 0-1.718-.421a2.9 2.9 0 0 1-1.112-1.185q-.392-.763-.392-1.769 0-1.014.392-1.772a2.85 2.85 0 0 1 1.112-1.185q.725-.426 1.718-.426t1.713.426q.724.422 1.116 1.185.393.758.392 1.772 0 1.006-.392 1.769a2.9 2.9 0 0 1-1.116 1.185q-.72.421-1.713.421m.008-1.406q.452 0 .754-.256a1.6 1.6 0 0 0 .456-.707 3 3 0 0 0 .158-1.018q0-.572-.158-1.019a1.6 1.6 0 0 0-.456-.707 1.1 1.1 0 0 0-.754-.26q-.456 0-.767.26a1.6 1.6 0 0 0-.464.707 3.1 3.1 0 0 0-.154 1.019q0 .57.154 1.018a1.6 1.6 0 0 0 .464.707q.312.256.767.256m4.394 1.279v-6.546h1.73v1.155h.076q.205-.576.682-.908t1.142-.332q.673 0 1.147.337.472.332.63.903h.069q.2-.563.724-.899.528-.34 1.249-.341.915 0 1.487.584.575.579.575 1.645v4.402h-1.811v-4.044q0-.546-.29-.819a1.02 1.02 0 0 0-.724-.272q-.495 0-.772.315-.276.311-.277.822v3.998h-1.76v-4.083q0-.482-.276-.767-.273-.285-.721-.285-.302 0-.545.153-.239.149-.379.422a1.34 1.34 0 0 0-.141.631v3.929zM326.187 198l1.449-8.727h2.949q1.022 0 1.619.345.601.345.814.95.217.606.09 1.381a3.3 3.3 0 0 1-.546 1.363q-.412.597-1.125.938-.707.34-1.721.341h-2.387l.171-.955h2.352q.699 0 1.159-.204a1.65 1.65 0 0 0 .716-.584q.255-.38.341-.899.085-.529-.047-.916a1.04 1.04 0 0 0-.524-.605q-.392-.218-1.1-.218h-1.858l-1.295 7.79zm4.756-3.92 1.5 3.92h-1.227l-1.466-3.92zm5.441 4.056q-.942 0-1.556-.417a2.2 2.2 0 0 1-.856-1.176q-.243-.759-.077-1.765.167-1.005.66-1.772.494-.772 1.232-1.202a3.13 3.13 0 0 1 2.604-.264q.473.17.818.554.345.38.481 1.005.137.627-.017 1.543l-.068.426h-5.045l.136-.869h4.023q.098-.554-.051-.989a1.32 1.32 0 0 0-.507-.686q-.359-.25-.908-.251-.567 0-1.057.307a2.8 2.8 0 0 0-.818.767 2.26 2.26 0 0 0-.409.937l-.12.75q-.127.815.039 1.296.17.481.592.694.422.209 1.057.209.404 0 .746-.111.34-.115.609-.341.269-.23.452-.571l.92.273a2.7 2.7 0 0 1-.66.869 3.1 3.1 0 0 1-.989.58 3.6 3.6 0 0 1-1.231.204m6.513 2.455q-.733 0-1.227-.188a2.1 2.1 0 0 1-.793-.485 2.2 2.2 0 0 1-.452-.64l.904-.562q.102.179.264.409.162.234.49.405.333.175.933.175.789 0 1.381-.384t.733-1.202l.205-1.329h-.086a7 7 0 0 1-.379.443 2.3 2.3 0 0 1-.652.464q-.41.201-1.048.201-.797 0-1.364-.375t-.814-1.091q-.243-.716-.072-1.739.166-1.005.639-1.751.477-.75 1.176-1.159a2.94 2.94 0 0 1 1.526-.414q.639 0 .98.213.345.21.503.478.157.264.238.434h.103l.17-1.039h.972l-1.108 6.733q-.14.843-.61 1.372a2.75 2.75 0 0 1-1.15.779 4.2 4.2 0 0 1-1.462.252m.528-3.597q.602 0 1.07-.277.473-.276.784-.797.311-.52.431-1.244.118-.707-.018-1.248-.135-.542-.515-.848-.375-.307-.985-.307-.643 0-1.112.324a2.4 2.4 0 0 0-.754.869 4 4 0 0 0-.401 1.21q-.11.683.009 1.206.119.52.486.818.37.294 1.005.294m4.552 1.006 1.09-6.545h1.006L348.982 198zm1.9-7.653a.7.7 0 0 1-.507-.201.64.64 0 0 1-.209-.481q0-.281.209-.482a.72.72 0 0 1 .507-.2q.294 0 .503.2a.64.64 0 0 1 .213.482.64.64 0 0 1-.213.481.7.7 0 0 1-.503.201m3.649 7.789q-.903 0-1.513-.43t-.861-1.206q-.246-.775-.081-1.807.162-1.005.644-1.751.486-.75 1.206-1.159a3.16 3.16 0 0 1 1.594-.414q.903 0 1.508.435.609.43.861 1.21.251.775.085 1.816-.162.996-.652 1.742-.486.743-1.206 1.155a3.14 3.14 0 0 1-1.585.409m.017-.903q.69 0 1.197-.354a2.66 2.66 0 0 0 .827-.933 3.9 3.9 0 0 0 .431-1.253 3.3 3.3 0 0 0-.009-1.189q-.111-.554-.473-.89-.362-.342-1.018-.341-.692 0-1.206.358a2.7 2.7 0 0 0-.827.941q-.315.585-.422 1.258-.102.639.004 1.188.111.546.473.883.367.332 1.023.332m6.095-3.171L358.99 198h-1.006l1.091-6.545h.972l-.171 1.022h.086q.306-.498.831-.801.524-.307 1.265-.307.657 0 1.108.273.456.269.644.818.192.546.055 1.381l-.699 4.159h-1.005l.681-4.091q.129-.767-.2-1.202-.324-.434-1.027-.434-.486 0-.899.209a1.9 1.9 0 0 0-.695.609 2.4 2.4 0 0 0-.383.971m7.275 4.091q-.622 0-1.091-.234a1.54 1.54 0 0 1-.695-.686q-.225-.452-.123-1.091.098-.562.379-.912a2 2 0 0 1 .682-.554q.405-.204.869-.302.47-.103.934-.158.605-.077.984-.119.38-.043.571-.141a.44.44 0 0 0 .234-.337v-.034q.102-.626-.166-.976-.268-.353-.959-.353-.715 0-1.197.315-.481.316-.712.673l-.886-.341q.35-.596.835-.929.486-.336 1.019-.468a4 4 0 0 1 1.027-.137q.315 0 .711.077.397.072.742.303.349.23.524.694.179.465.051 1.245L369.93 198h-1.006l.154-.886h-.051a2.43 2.43 0 0 1-1.121.869q-.421.17-.993.17m.29-.903q.596 0 1.044-.234.451-.235.724-.605.278-.372.345-.78l.154-.921q-.077.077-.303.141-.226.06-.511.106a22 22 0 0 1-.976.128q-.4.052-.763.166-.357.11-.605.337a1 1 0 0 0-.302.605q-.09.525.251.793.34.264.942.264m7.017-7.977L372.771 198h-1.005l1.448-8.727zm.393 8.727 1.091-6.545h1.006L375.619 198zm1.901-7.653a.7.7 0 0 1-.507-.201.64.64 0 0 1-.209-.481q0-.281.209-.482a.72.72 0 0 1 .507-.2q.293 0 .503.2a.64.64 0 0 1 .213.482.64.64 0 0 1-.213.481.7.7 0 0 1-.503.201m.759 7.653.137-.767 4.5-4.773.017-.068h-3.597l.154-.937h4.892l-.137.801-4.397 4.738-.017.068h3.733l-.154.938zm9.22.136q-.942 0-1.555-.417a2.2 2.2 0 0 1-.857-1.176q-.243-.759-.077-1.765t.661-1.772q.494-.772 1.231-1.202a3.13 3.13 0 0 1 1.62-.435q.512 0 .984.171.473.17.818.554.345.38.482 1.005.136.627-.017 1.543l-.069.426h-5.045l.136-.869h4.023q.097-.554-.051-.989a1.32 1.32 0 0 0-.507-.686q-.358-.25-.908-.251-.567 0-1.057.307a2.8 2.8 0 0 0-.818.767 2.26 2.26 0 0 0-.409.937l-.119.75q-.128.815.038 1.296.17.481.592.694.423.209 1.057.209.405 0 .746-.111.34-.115.609-.341.269-.23.452-.571l.921.273a2.7 2.7 0 0 1-.661.869 3.1 3.1 0 0 1-.989.58 3.6 3.6 0 0 1-1.231.204m6.744 0q-.823 0-1.381-.413-.558-.417-.789-1.176-.225-.763-.055-1.803.175-1.031.652-1.789a3.5 3.5 0 0 1 1.18-1.172 2.94 2.94 0 0 1 1.526-.414q.639 0 .976.213.34.21.494.478.153.264.235.434h.085l.537-3.221h1.005L396.254 198h-.972l.17-1.006h-.119q-.14.18-.392.452-.252.269-.665.482-.409.208-1.039.208m.247-.903a1.9 1.9 0 0 0 1.082-.315q.482-.32.801-.882.32-.567.443-1.309.124-.732-.008-1.282-.132-.555-.507-.861-.375-.312-.993-.311-.635 0-1.104.328-.468.324-.763.882a4 4 0 0 0-.409 1.244 3.6 3.6 0 0 0-.004 1.27q.11.567.469.904.361.332.993.332m9.771-3.171-.648 3.938h-1.005l1.448-8.727h1.006l-.528 3.204h.085q.306-.512.818-.809.516-.299 1.296-.299.664 0 1.12.269.46.264.648.814.192.544.055 1.389l-.698 4.159h-1.006l.682-4.091q.127-.78-.209-1.206-.333-.43-1.036-.43-.494 0-.92.209-.422.209-.716.609a2.3 2.3 0 0 0-.392.971m8.138 4.074q-.903 0-1.513-.43t-.86-1.206q-.248-.775-.081-1.807.162-1.005.643-1.751.486-.75 1.206-1.159a3.16 3.16 0 0 1 1.594-.414q.903 0 1.508.435.61.43.861 1.21.252.775.085 1.816-.162.996-.652 1.742-.486.743-1.206 1.155a3.13 3.13 0 0 1-1.585.409m.017-.903q.69 0 1.198-.354.511-.354.826-.933a3.9 3.9 0 0 0 .431-1.253 3.3 3.3 0 0 0-.009-1.189q-.11-.554-.473-.89-.362-.342-1.018-.341-.692 0-1.206.358a2.7 2.7 0 0 0-.827.941q-.315.585-.422 1.258-.102.639.004 1.188.111.546.473.883.368.332 1.023.332m9.93-4.313-.954.256a1.5 1.5 0 0 0-.179-.443.9.9 0 0 0-.384-.354q-.255-.14-.699-.14-.6 0-1.044.277-.442.272-.507.694-.064.37.171.593.234.22.784.362l.937.238q.844.218 1.202.652.362.43.247 1.121a1.97 1.97 0 0 1-.49 1.006 2.75 2.75 0 0 1-1.014.699q-.618.255-1.377.255-1.01 0-1.593-.434-.584-.44-.623-1.27l1.006-.239q.039.525.375.793.341.264.955.264.702 0 1.172-.298.469-.303.532-.725.064-.345-.136-.575-.196-.23-.682-.345l-1.04-.256q-.87-.217-1.218-.665-.346-.447-.231-1.125a1.9 1.9 0 0 1 .478-.98q.387-.426.971-.669a3.3 3.3 0 0 1 1.279-.243q.971 0 1.453.426.481.423.609 1.125m4.719-1.465-.137.852h-3.392l.137-.852zm-2.148-1.569h1.006l-1.04 6.239q-.069.426.021.639a.5.5 0 0 0 .281.281q.192.069.414.069.165 0 .272-.017l.171-.035.068.904q-.115.038-.311.077a2.3 2.3 0 0 1-.473.042q-.426 0-.801-.183a1.27 1.27 0 0 1-.575-.558q-.2-.376-.107-.946zm4.223 4.176-.648 3.938h-1.006l1.091-6.545h.972l-.17 1.022h.085q.306-.498.831-.801.524-.307 1.265-.307.657 0 1.108.273.456.269.644.818.192.546.055 1.381l-.699 4.159h-1.005l.681-4.091q.129-.767-.2-1.202-.324-.434-1.027-.434-.486 0-.899.209a1.9 1.9 0 0 0-.695.609 2.4 2.4 0 0 0-.383.971m7.275 4.091q-.622 0-1.091-.234a1.53 1.53 0 0 1-.694-.686q-.226-.452-.124-1.091.098-.562.379-.912a2 2 0 0 1 .682-.554q.405-.204.869-.302.47-.103.934-.158.604-.077.984-.119.38-.043.571-.141a.44.44 0 0 0 .234-.337v-.034q.103-.626-.166-.976-.268-.353-.959-.353-.715 0-1.197.315-.481.316-.712.673l-.886-.341q.35-.596.835-.929.486-.336 1.019-.468a4 4 0 0 1 1.027-.137q.315 0 .711.077.397.072.742.303.349.23.524.694.178.465.051 1.245l-.716 4.312h-1.006l.154-.886h-.051a2.43 2.43 0 0 1-1.121.869q-.422.17-.993.17m.29-.903a2.2 2.2 0 0 0 1.044-.234q.452-.235.724-.605.277-.372.345-.78l.154-.921q-.077.077-.303.141-.226.06-.511.106a22 22 0 0 1-.976.128q-.4.052-.763.166-.357.11-.605.337a1 1 0 0 0-.302.605q-.09.525.251.793.34.264.942.264m4.563.75 1.091-6.545h.971l-.17 1.022h.085q.294-.523.797-.814.507-.294 1.146-.294.64 0 1.027.294.388.29.541.814h.069q.332-.512.886-.809a2.6 2.6 0 0 1 1.261-.299q.87 0 1.338.55.473.55.282 1.7l-.733 4.381h-1.006l.733-4.381q.115-.728-.23-1.035-.34-.312-.878-.311-.69 0-1.138.413a1.78 1.78 0 0 0-.55 1.053l-.715 4.261h-1.023l.75-4.483q.089-.562-.213-.903-.303-.342-.878-.341-.392 0-.767.213a2 2 0 0 0-.644.579 1.9 1.9 0 0 0-.345.844l-.682 4.091zm13.157.136q-.942 0-1.556-.417a2.2 2.2 0 0 1-.856-1.176q-.243-.759-.077-1.765t.661-1.772q.494-.772 1.231-1.202a3.13 3.13 0 0 1 1.619-.435q.511 0 .985.171.473.17.818.554.346.38.481 1.005.137.627-.017 1.543l-.068.426h-5.045l.136-.869h4.023q.097-.554-.051-.989a1.32 1.32 0 0 0-.507-.686q-.359-.25-.908-.251-.567 0-1.057.307a2.8 2.8 0 0 0-.818.767 2.26 2.26 0 0 0-.409.937l-.119.75q-.129.815.038 1.296.17.481.592.694.423.209 1.057.209.405 0 .746-.111.34-.115.609-.341.269-.23.452-.571l.92.273a2.7 2.7 0 0 1-.66.869 3.1 3.1 0 0 1-.989.58 3.6 3.6 0 0 1-1.231.204"/><path stroke="#D9D9D9" stroke-dasharray="10 10" stroke-width="2" d="M663 139h248v38H663z"/><path fill="#222" d="M706.957 155.086v1.364h-4.04v-1.364zm-3.115 6.546v-7.019q0-.712.277-1.18.282-.47.767-.703a2.5 2.5 0 0 1 1.104-.235q.418 0 .763.064.35.064.52.115l-.324 1.364a2 2 0 0 0-.265-.064 1.6 1.6 0 0 0-.315-.03q-.4 0-.558.188-.158.183-.158.515v6.985zm5.856.123q-.625 0-1.116-.217a1.8 1.8 0 0 1-.776-.652q-.28-.435-.281-1.083 0-.545.2-.916.201-.37.546-.596a2.6 2.6 0 0 1 .784-.341q.443-.115.929-.162.571-.06.92-.111.35-.056.507-.162a.35.35 0 0 0 .158-.315v-.026q0-.405-.256-.626-.25-.222-.716-.222-.49 0-.779.218a1 1 0 0 0-.384.536l-1.679-.136q.128-.597.503-1.031.375-.44.967-.673.597-.24 1.381-.239.546 0 1.044.128.502.128.891.396.391.268.618.69.225.418.225 1.002v4.415h-1.721v-.908h-.051a1.9 1.9 0 0 1-.422.541 1.9 1.9 0 0 1-.635.362 2.6 2.6 0 0 1-.857.128m.52-1.253q.4 0 .708-.157.306-.162.481-.435t.175-.618v-.695a1 1 0 0 1-.235.103 5 5 0 0 1-.328.081q-.183.034-.366.064l-.333.047q-.32.046-.558.149a.9.9 0 0 0-.37.277.67.67 0 0 0-.133.426q0 .37.269.567.273.19.69.191m6.39-7.598v8.728h-1.815v-8.728zm3.27 0v8.728h-1.816v-8.728zm1.488 8.728v-8.728h1.815v3.282h.056a2.3 2.3 0 0 1 .345-.537q.23-.277.596-.461.371-.187.921-.187.716 0 1.321.375.605.37.967 1.121.362.745.362 1.87 0 1.095-.353 1.85-.35.75-.955 1.138-.6.383-1.346.383-.529 0-.9-.175a1.8 1.8 0 0 1-.6-.439 2.2 2.2 0 0 1-.358-.541h-.081v1.049zm1.777-3.273q0 .584.162 1.018t.469.678q.307.239.745.239.444 0 .75-.243a1.5 1.5 0 0 0 .465-.682q.162-.439.162-1.01 0-.567-.158-.997a1.5 1.5 0 0 0-.464-.674 1.18 1.18 0 0 0-.755-.243q-.442 0-.75.235a1.47 1.47 0 0 0-.464.665 2.9 2.9 0 0 0-.162 1.014m7.684 3.396q-.626 0-1.116-.217a1.8 1.8 0 0 1-.776-.652q-.28-.435-.281-1.083 0-.545.2-.916.201-.37.546-.596a2.6 2.6 0 0 1 .784-.341q.443-.115.929-.162.57-.06.92-.111.35-.056.507-.162a.36.36 0 0 0 .158-.315v-.026q0-.405-.256-.626-.25-.222-.716-.222-.49 0-.779.218a1 1 0 0 0-.384.536l-1.679-.136q.128-.597.503-1.031.375-.44.967-.673.597-.24 1.381-.239.546 0 1.044.128.502.128.891.396.392.268.617.69.226.418.226 1.002v4.415h-1.721v-.908h-.051a1.9 1.9 0 0 1-.422.541 1.9 1.9 0 0 1-.635.362 2.6 2.6 0 0 1-.857.128m.52-1.253q.4 0 .708-.157.306-.162.481-.435t.175-.618v-.695a1 1 0 0 1-.235.103 5 5 0 0 1-.328.081q-.183.034-.366.064l-.333.047q-.32.046-.558.149a.9.9 0 0 0-.371.277.67.67 0 0 0-.132.426q0 .37.269.567.273.19.69.191m7.532 1.257q-1.005 0-1.73-.426a2.9 2.9 0 0 1-1.108-1.193q-.384-.762-.384-1.756 0-1.005.388-1.764a2.9 2.9 0 0 1 1.112-1.189q.721-.43 1.714-.43.856 0 1.5.311.643.311 1.018.874t.413 1.321h-1.713q-.072-.49-.383-.789-.307-.302-.806-.302-.422 0-.737.23-.31.226-.486.66-.174.435-.174 1.053 0 .626.17 1.065.175.44.49.669t.737.23q.312 0 .559-.128.25-.127.413-.37.166-.247.217-.593h1.713a2.67 2.67 0 0 1-.409 1.321 2.47 2.47 0 0 1-1.001.887q-.64.32-1.513.319m5.731-2.011.004-2.178h.264l2.097-2.484h2.083l-2.816 3.29h-.431zm-1.645 1.884v-8.728h1.815v8.728zm4.091 0-1.927-2.851 1.211-1.283 2.842 4.134zm3.954.11a1 1 0 0 1-.724-.298 1 1 0 0 1-.299-.724q0-.418.299-.716a1 1 0 0 1 .724-.299q.409 0 .716.299a.96.96 0 0 1 .307.716.96.96 0 0 1-.145.515 1.1 1.1 0 0 1-.371.371.97.97 0 0 1-.507.136m2.513-.11v-6.546h1.73v1.155h.077q.205-.576.682-.908t1.142-.332q.673 0 1.146.337.474.332.631.903h.068a1.74 1.74 0 0 1 .725-.899q.528-.34 1.248-.341.917 0 1.487.584.576.579.576 1.645v4.402h-1.811v-4.044q0-.546-.29-.819a1.02 1.02 0 0 0-.725-.272q-.494 0-.771.315-.277.311-.277.822v3.998h-1.76v-4.083q0-.482-.277-.767-.273-.285-.72-.285-.303 0-.546.153-.238.149-.379.422-.14.268-.14.631v3.929zm11.832 2.454q-.345 0-.648-.055a2.4 2.4 0 0 1-.494-.132l.409-1.355q.32.097.575.106a.73.73 0 0 0 .448-.119q.191-.128.311-.435l.106-.277-2.348-6.733h1.909l1.356 4.807h.068l1.368-4.807h1.921l-2.544 7.253a3 3 0 0 1-.498.92q-.312.397-.788.61-.478.217-1.151.217m7.601-2.331q-.626 0-1.116-.217a1.8 1.8 0 0 1-.776-.652q-.28-.435-.281-1.083 0-.545.2-.916.2-.37.546-.596a2.6 2.6 0 0 1 .784-.341q.443-.115.929-.162.57-.06.92-.111.35-.056.507-.162a.36.36 0 0 0 .158-.315v-.026q0-.405-.256-.626-.25-.222-.716-.222-.489 0-.78.218a1 1 0 0 0-.383.536l-1.679-.136q.128-.597.503-1.031.375-.44.967-.673.597-.24 1.381-.239.545 0 1.044.128.503.128.89.396.393.268.618.69.226.418.226 1.002v4.415h-1.721v-.908h-.052a1.9 1.9 0 0 1-.421.541 2 2 0 0 1-.635.362 2.6 2.6 0 0 1-.857.128m.52-1.253q.4 0 .707-.157.307-.162.482-.435.174-.273.175-.618v-.695a1 1 0 0 1-.235.103 5 5 0 0 1-.328.081q-.183.034-.366.064l-.333.047q-.32.046-.558.149a.9.9 0 0 0-.371.277.67.67 0 0 0-.132.426q0 .37.269.567.273.19.69.191m4.575 3.584v-9h1.789v1.1h.081a2.4 2.4 0 0 1 .346-.537q.23-.277.596-.461.37-.187.921-.187.715 0 1.321.375.604.37.967 1.121.362.745.362 1.87 0 1.095-.354 1.85-.35.75-.954 1.138-.601.383-1.347.383-.528 0-.899-.175a1.9 1.9 0 0 1-.601-.439 2.3 2.3 0 0 1-.358-.541h-.055v3.503zm1.777-5.727q0 .584.162 1.018.161.435.468.678.307.239.746.239.442 0 .75-.243.307-.247.465-.682.16-.439.161-1.01 0-.567-.157-.997a1.5 1.5 0 0 0-.465-.674 1.18 1.18 0 0 0-.754-.243q-.442 0-.75.235a1.46 1.46 0 0 0-.464.665 2.9 2.9 0 0 0-.162 1.014m5.816 5.727v-9h1.79v1.1h.081q.12-.266.345-.537a1.8 1.8 0 0 1 .597-.461q.37-.187.92-.187.717 0 1.321.375.606.37.968 1.121.362.745.362 1.87 0 1.095-.354 1.85-.35.75-.954 1.138-.601.383-1.347.383-.528 0-.899-.175a1.8 1.8 0 0 1-.601-.439 2.2 2.2 0 0 1-.358-.541h-.055v3.503zm1.777-5.727q0 .584.162 1.018t.469.678q.307.239.746.239.442 0 .75-.243.306-.247.464-.682.162-.439.162-1.01 0-.567-.157-.997a1.5 1.5 0 0 0-.465-.674 1.18 1.18 0 0 0-.754-.243q-.444 0-.75.235a1.47 1.47 0 0 0-.465.665 2.9 2.9 0 0 0-.162 1.014m8.8 3.4q-1.01 0-1.739-.409a2.8 2.8 0 0 1-1.116-1.167q-.392-.759-.392-1.794 0-1.011.392-1.773a2.9 2.9 0 0 1 1.104-1.189q.716-.426 1.679-.426.647 0 1.206.209.562.204.98.618.422.413.656 1.039.234.622.234 1.458v.498h-5.527v-1.125h3.819q0-.392-.171-.694a1.2 1.2 0 0 0-.473-.473 1.34 1.34 0 0 0-.695-.175 1.4 1.4 0 0 0-.733.192q-.315.188-.494.507-.178.315-.183.703v1.07q0 .485.179.839.183.354.516.546.332.19.788.191.303 0 .554-.085t.43-.256q.18-.17.273-.417l1.679.111a2.3 2.3 0 0 1-.524 1.056q-.393.449-1.014.699-.618.247-1.428.247m5.589-6.673 1.202 2.288 1.231-2.288h1.862l-1.896 3.273 1.947 3.273h-1.853l-1.291-2.263-1.27 2.263h-1.875l1.943-3.273-1.875-3.273zm7.205 6.669q-.627 0-1.117-.217a1.8 1.8 0 0 1-.775-.652q-.282-.435-.282-1.083 0-.545.201-.916.2-.37.545-.596.346-.227.784-.341.443-.115.929-.162.572-.06.921-.111.35-.056.507-.162a.36.36 0 0 0 .157-.315v-.026q0-.405-.255-.626-.251-.222-.716-.222-.49 0-.78.218a1 1 0 0 0-.383.536l-1.679-.136q.127-.597.502-1.031.375-.44.968-.673.596-.24 1.38-.239.546 0 1.044.128.504.128.891.396.391.268.618.69.226.418.226 1.002v4.415h-1.722v-.908h-.051a1.9 1.9 0 0 1-.422.541 1.9 1.9 0 0 1-.635.362 2.6 2.6 0 0 1-.856.128m.52-1.253q.4 0 .707-.157.307-.162.482-.435.174-.273.174-.618v-.695a1 1 0 0 1-.234.103 5 5 0 0 1-.695.145l-.332.047q-.32.046-.558.149a.9.9 0 0 0-.371.277.67.67 0 0 0-.132.426q0 .37.268.567.273.19.691.191m4.574 1.13v-6.546h1.73v1.155h.077q.204-.576.682-.908.477-.332 1.142-.332.674 0 1.146.337.474.332.631.903h.068q.2-.563.724-.899.53-.34 1.249-.341.917 0 1.487.584.576.579.576 1.645v4.402h-1.812v-4.044q0-.546-.289-.819a1.02 1.02 0 0 0-.725-.272q-.493 0-.771.315-.277.311-.277.822v3.998h-1.76v-4.083q0-.482-.277-.767-.273-.285-.72-.285-.303 0-.546.153-.238.149-.379.422-.14.268-.14.631v3.929zm10.946 2.454v-9h1.789v1.1h.081q.12-.266.345-.537a1.8 1.8 0 0 1 .597-.461q.37-.187.92-.187.717 0 1.321.375.606.37.968 1.121.362.745.362 1.87 0 1.095-.354 1.85-.35.75-.954 1.138-.601.383-1.347.383-.528 0-.899-.175a1.8 1.8 0 0 1-.601-.439 2.3 2.3 0 0 1-.358-.541h-.055v3.503zm1.776-5.727q0 .584.162 1.018.163.435.469.678.307.239.746.239.442 0 .75-.243.306-.247.464-.682.162-.439.162-1.01 0-.567-.157-.997a1.5 1.5 0 0 0-.465-.674 1.18 1.18 0 0 0-.754-.243q-.444 0-.75.235a1.47 1.47 0 0 0-.465.665 2.9 2.9 0 0 0-.162 1.014m7.633-5.455v8.728h-1.816v-8.728zm4.437 8.855q-1.01 0-1.739-.409a2.8 2.8 0 0 1-1.116-1.167q-.392-.759-.392-1.794 0-1.011.392-1.773a2.9 2.9 0 0 1 1.103-1.189q.716-.426 1.679-.426.648 0 1.206.209.563.204.98.618.422.413.657 1.039.234.622.234 1.458v.498h-5.527v-1.125h3.818q0-.392-.17-.694a1.2 1.2 0 0 0-.473-.473 1.35 1.35 0 0 0-.695-.175q-.413 0-.733.192-.315.188-.494.507-.18.315-.183.703v1.07q0 .485.179.839.183.354.515.546.333.19.789.191.302 0 .554-.085.251-.085.43-.256.178-.17.273-.417l1.679.111a2.3 2.3 0 0 1-.524 1.056q-.393.449-1.015.699-.617.247-1.427.247m5.25-.017a1 1 0 0 1-.725-.298 1 1 0 0 1-.298-.724q0-.418.298-.716a1 1 0 0 1 .725-.299q.408 0 .716.299a.96.96 0 0 1 .306.716.96.96 0 0 1-.144.515 1.1 1.1 0 0 1-.371.371 1 1 0 0 1-.507.136m5.47.017q-1.005 0-1.73-.426a2.9 2.9 0 0 1-1.108-1.193q-.383-.762-.383-1.756 0-1.005.387-1.764a2.9 2.9 0 0 1 1.113-1.189q.72-.43 1.713-.43.856 0 1.5.311.643.311 1.018.874t.414 1.321h-1.714q-.072-.49-.383-.789-.307-.302-.805-.302-.422 0-.738.23-.31.226-.485.66t-.175 1.053q0 .626.17 1.065.175.44.49.669.316.23.738.23.31 0 .558-.128.25-.127.413-.37.166-.247.217-.593h1.714a2.7 2.7 0 0 1-.41 1.321 2.47 2.47 0 0 1-1.001.887q-.639.32-1.513.319m7.043 0q-.993 0-1.717-.421a2.9 2.9 0 0 1-1.112-1.185q-.393-.763-.392-1.769 0-1.014.392-1.772a2.85 2.85 0 0 1 1.112-1.185q.724-.426 1.717-.426t1.713.426q.724.422 1.117 1.185.392.758.392 1.772 0 1.006-.392 1.769-.393.758-1.117 1.185-.72.421-1.713.421m.009-1.406q.451 0 .754-.256a1.6 1.6 0 0 0 .456-.707q.158-.447.158-1.018 0-.572-.158-1.019a1.6 1.6 0 0 0-.456-.707 1.1 1.1 0 0 0-.754-.26q-.456 0-.767.26-.308.26-.465.707a3.1 3.1 0 0 0-.153 1.019q0 .57.153 1.018.158.447.465.707.31.256.767.256m4.393 1.279v-6.546h1.73v1.155h.077q.205-.576.682-.908t1.142-.332q.673 0 1.146.337.474.332.631.903h.068a1.74 1.74 0 0 1 .725-.899q.528-.34 1.248-.341.917 0 1.487.584.576.579.576 1.645v4.402h-1.811v-4.044q0-.546-.29-.819a1.02 1.02 0 0 0-.725-.272q-.494 0-.771.315-.277.311-.277.822v3.998h-1.76v-4.083q0-.482-.277-.767-.273-.285-.72-.285-.303 0-.546.153-.238.149-.379.422-.14.268-.14.631v3.929z"/><path fill="#000" d="M251.707 158.707a1 1 0 0 0 0-1.414l-6.364-6.364a.999.999 0 1 0-1.414 1.414l5.657 5.657-5.657 5.657a.999.999 0 1 0 1.414 1.414zM139 159h112v-2H139zm507.707-1.293a1 1 0 0 0 0-1.414l-6.364-6.364a.999.999 0 1 0-1.414 1.414l5.657 5.657-5.657 5.657a.999.999 0 1 0 1.414 1.414zM534 158h112v-2H534z"/><circle cx="194.993" cy="102.993" r="17.992" fill="#E2F5FA" stroke="#0055DC" stroke-width="2"/><path fill="#000" d="M196.873 95.824v12.823h-2.531v-9.905l-3.041.967v-1.995l5.3-1.89z"/><circle cx="589.992" cy="102.993" r="17.992" fill="#E2F5FA" stroke="#0055DC" stroke-width="2"/><path fill="#000" d="M594.457 106.67v1.977h-8.753v-1.687l4.139-4.439q.624-.695.985-1.221a4.8 4.8 0 0 0 .518-.958q.167-.431.167-.818 0-.58-.193-.993a1.44 1.44 0 0 0-.572-.65q-.368-.23-.914-.229-.579 0-1.002.281a1.8 1.8 0 0 0-.632.783 2.9 2.9 0 0 0-.211 1.133h-2.54q0-1.142.545-2.091a4 4 0 0 1 1.538-1.52q.993-.573 2.355-.572 1.345 0 2.268.44.932.43 1.406 1.247.483.81.483 1.934 0 .633-.202 1.239a5.6 5.6 0 0 1-.58 1.195 10 10 0 0 1-.896 1.196q-.528.606-1.169 1.257l-2.224 2.496z"/><circle cx="1023.99" cy="102.993" r="17.992" fill="#E2F5FA" stroke="#0055DC" stroke-width="2"/><path fill="#000" d="M1022.3 101.15h1.35c.43 0 .79-.073 1.07-.22q.42-.228.63-.632.21-.414.21-.958c0-.329-.07-.619-.2-.87a1.3 1.3 0 0 0-.57-.598c-.26-.147-.58-.22-.97-.22-.31 0-.6.062-.86.185a1.57 1.57 0 0 0-.64.518c-.16.223-.23.492-.23.809h-2.54c0-.703.18-1.316.56-1.837q.57-.783 1.53-1.222c.64-.293 1.34-.44 2.11-.44.86 0 1.62.141 2.27.423.65.275 1.16.682 1.52 1.221.37.54.55 1.207.55 2.004 0 .404-.1.797-.28 1.178q-.285.563-.81 1.019c-.35.299-.77.54-1.27.721-.5.176-1.05.264-1.68.264h-1.75zm0 1.925v-1.31h1.75c.7 0 1.31.079 1.84.238s.97.386 1.33.685q.54.44.81 1.046.27.598.27 1.327c0 .598-.12 1.131-.34 1.6-.23.463-.55.855-.97 1.178q-.615.483-1.44.738-.825.246-1.8.246-.81 0-1.59-.22a4.7 4.7 0 0 1-1.41-.676 3.4 3.4 0 0 1-1-1.143c-.25-.463-.37-1.011-.37-1.644h2.54q0 .493.24.879c.17.258.39.46.68.607s.62.219.98.219c.4 0 .75-.073 1.03-.219.3-.153.52-.364.67-.633q.24-.413.24-.958c0-.469-.09-.844-.26-1.125a1.5 1.5 0 0 0-.73-.633c-.31-.135-.69-.202-1.12-.202z"/><path fill="#F63" d="M255.267 80.328h-1.866a1.8 1.8 0 0 0-.209-.643 1.6 1.6 0 0 0-.405-.486 1.8 1.8 0 0 0-.571-.307 2.2 2.2 0 0 0-.694-.106q-.678 0-1.181.336-.502.333-.78.972-.276.635-.277 1.542 0 .934.277 1.569.281.634.785.958a2.1 2.1 0 0 0 1.163.324q.37 0 .686-.098.32-.097.567-.285.246-.192.409-.465.166-.273.23-.622l1.866.009q-.072.6-.362 1.159-.285.553-.771.993-.482.435-1.151.69a4.2 4.2 0 0 1-1.504.251q-1.167 0-2.088-.528-.916-.528-1.449-1.53-.528-1.002-.528-2.425 0-1.427.537-2.429.536-1.001 1.457-1.525.92-.53 2.071-.529.758 0 1.406.213.653.213 1.155.623.503.404.818.992.32.589.409 1.347m3.105-3.055V86h-1.816v-8.727zm4.411 8.855q-.993 0-1.717-.422a2.9 2.9 0 0 1-1.112-1.185q-.392-.762-.392-1.768 0-1.014.392-1.773a2.85 2.85 0 0 1 1.112-1.184q.724-.427 1.717-.427t1.713.427q.725.421 1.117 1.184.392.759.392 1.773 0 1.006-.392 1.768-.392.758-1.117 1.185-.72.422-1.713.422m.009-1.406q.451 0 .754-.256.303-.26.456-.707.158-.448.158-1.019 0-.57-.158-1.018a1.6 1.6 0 0 0-.456-.708 1.12 1.12 0 0 0-.754-.26q-.456 0-.767.26-.308.261-.465.708a3.1 3.1 0 0 0-.153 1.018q0 .57.153 1.019.158.447.465.707.31.256.767.256m8.591-1.509v-3.758h1.815V86h-1.743v-1.189h-.068a1.93 1.93 0 0 1-.737.925q-.511.35-1.249.35-.656 0-1.155-.3a2.05 2.05 0 0 1-.779-.847q-.278-.55-.282-1.317v-4.168h1.816v3.844q.004.58.311.916.306.337.822.337.329 0 .614-.149a1.17 1.17 0 0 0 .46-.452q.179-.298.175-.737m5.679 2.894q-.745 0-1.351-.384-.6-.388-.954-1.138-.35-.755-.35-1.85 0-1.125.363-1.87.361-.75.963-1.12.605-.376 1.325-.376.55 0 .916.188.37.183.597.46.23.272.349.537h.055v-3.281h1.812V86h-1.79v-1.048h-.077a2.3 2.3 0 0 1-.362.54 1.8 1.8 0 0 1-.601.44q-.367.174-.895.174m.575-1.445q.44 0 .742-.239.307-.243.469-.677.166-.435.166-1.019t-.162-1.014a1.45 1.45 0 0 0-.469-.665 1.2 1.2 0 0 0-.746-.234q-.447 0-.754.243a1.5 1.5 0 0 0-.464.673q-.158.431-.158.997 0 .572.158 1.01.161.435.464.682.307.243.754.243m8.162-5.208v1.364h-4.04v-1.364zM282.684 86v-7.019q0-.71.277-1.18.28-.468.767-.703a2.5 2.5 0 0 1 1.104-.234q.417-.001.762.064.35.063.52.115l-.324 1.363a2 2 0 0 0-.264-.064 1.6 1.6 0 0 0-.315-.03q-.4 0-.558.188-.158.183-.158.516V86zm6.039-8.727V86h-1.815v-8.727zm3.321 8.85q-.627 0-1.116-.217a1.8 1.8 0 0 1-.776-.652q-.281-.435-.281-1.082 0-.547.2-.916.2-.371.545-.597t.785-.34q.443-.117.929-.163.57-.06.92-.11.35-.057.507-.163a.36.36 0 0 0 .158-.315v-.025q0-.406-.256-.627-.251-.22-.716-.221-.49 0-.78.217a1 1 0 0 0-.383.537l-1.679-.136a2.3 2.3 0 0 1 .503-1.032 2.4 2.4 0 0 1 .967-.673q.597-.24 1.381-.239.544 0 1.044.128.503.128.89.397.393.268.618.69.226.417.226 1.001V86h-1.721v-.908h-.052a1.8 1.8 0 0 1-.421.541 2 2 0 0 1-.635.363 2.6 2.6 0 0 1-.857.128m.52-1.252q.4 0 .707-.158.307-.162.482-.435.175-.272.175-.618v-.694a1 1 0 0 1-.235.102 4 4 0 0 1-.328.081 16 16 0 0 1-.366.064l-.333.047a2.3 2.3 0 0 0-.558.15.9.9 0 0 0-.371.276.68.68 0 0 0-.132.426q0 .37.269.567.272.192.69.192M297.138 86v-6.546h1.76v1.143h.069q.178-.61.6-.92.423-.316.972-.316a3 3 0 0 1 .571.064v1.61a2.4 2.4 0 0 0-.354-.068q-.225-.03-.413-.03-.4 0-.716.175a1.3 1.3 0 0 0-.494.478q-.18.306-.179.707V86zm7.589.128q-1.01 0-1.739-.41a2.8 2.8 0 0 1-1.116-1.167q-.392-.758-.392-1.794 0-1.01.392-1.773a2.9 2.9 0 0 1 1.103-1.188q.716-.427 1.679-.427.648 0 1.206.21.563.204.981.617.422.413.656 1.04.234.622.234 1.457v.499h-5.527v-1.125h3.818q0-.392-.17-.695a1.2 1.2 0 0 0-.473-.473 1.35 1.35 0 0 0-.695-.175q-.413 0-.733.192-.315.188-.494.507-.179.315-.183.703v1.07q0 .486.179.84.183.353.515.545.333.192.789.192.302 0 .554-.085a1.15 1.15 0 0 0 .43-.256q.178-.17.273-.418l1.679.111q-.128.605-.524 1.057-.393.447-1.015.699-.617.247-1.427.247"/><path fill="#fff" stroke="#0055DC" stroke-width="2" d="M1088 48h182v139h-182z"/><path fill="#222" d="M1146.42 110.636q0 1.428-.54 2.429a3.77 3.77 0 0 1-1.47 1.53c-.61.35-1.31.524-2.08.524s-1.47-.176-2.09-.528a3.8 3.8 0 0 1-1.46-1.53c-.36-.668-.53-1.476-.53-2.425 0-.951.17-1.761.53-2.429s.85-1.176 1.46-1.525c.62-.352 1.32-.529 2.09-.529s1.47.177 2.08.529q.93.524 1.47 1.525.54 1.002.54 2.429m-1.87 0c0-.616-.09-1.136-.28-1.559-.18-.424-.44-.745-.77-.963q-.495-.328-1.17-.328-.66 0-1.17.328c-.33.218-.59.539-.77.963q-.27.635-.27 1.559 0 .925.27 1.56c.18.423.44.744.77.963q.51.328 1.17.328.675 0 1.17-.328c.33-.219.59-.54.77-.963.19-.423.28-.943.28-1.56m3.2 4.364v-6.545h1.76v1.142h.07q.18-.61.6-.921c.28-.21.61-.315.97-.315q.135 0 .3.017.15.017.27.047v1.611a3.2 3.2 0 0 0-.76-.098q-.405 0-.72.174c-.21.114-.37.273-.49.477q-.18.308-.18.708V115zm4.91 0v-6.545h1.82V115zm.91-7.389a.97.97 0 0 1-.69-.269.88.88 0 0 1-.29-.652c0-.25.1-.464.29-.643a.96.96 0 0 1 .69-.273q.405 0 .69.273c.2.179.29.393.29.643a.84.84 0 0 1-.29.652.97.97 0 0 1-.69.269m5.31 9.98c-.59 0-1.09-.081-1.51-.243-.42-.159-.75-.376-1-.652a1.94 1.94 0 0 1-.48-.929l1.68-.226q.075.196.24.367c.11.113.26.204.44.272.18.071.41.107.67.107.4 0 .72-.097.98-.29q.39-.285.39-.959v-1.197h-.08q-.12.273-.36.516c-.16.161-.36.294-.61.396a2.4 2.4 0 0 1-.9.153c-.49 0-.94-.113-1.34-.341q-.6-.345-.96-1.052c-.23-.475-.35-1.074-.35-1.799q0-1.112.36-1.857.36-.747.96-1.117c.41-.247.85-.371 1.33-.371.37 0 .67.063.92.188q.375.183.6.46c.15.182.27.361.35.537h.07v-1.099h1.8v6.609c0 .557-.14 1.023-.41 1.398s-.65.656-1.13.843c-.48.191-1.03.286-1.66.286m.04-4.048c.29 0 .54-.073.74-.218.2-.147.36-.358.47-.63.11-.276.17-.606.17-.989 0-.384-.06-.716-.17-.997-.1-.284-.26-.504-.47-.661-.2-.156-.45-.234-.74-.234-.3 0-.55.081-.76.243-.2.159-.35.38-.46.665-.11.284-.16.612-.16.984 0 .378.05.705.16.98.11.273.26.484.46.635.21.148.46.222.76.222m4.61 1.457v-6.545h1.81V115zm.91-7.389c-.27 0-.5-.09-.7-.269a.87.87 0 0 1-.28-.652c0-.25.09-.464.28-.643.2-.182.43-.273.7-.273q.405 0 .69.273c.19.179.29.393.29.643 0 .253-.1.471-.29.652a.97.97 0 0 1-.69.269m4.17 3.605V115h-1.82v-6.545h1.73v1.154h.08c.15-.38.39-.681.73-.903.34-.224.75-.337 1.24-.337.45 0 .85.1 1.19.299s.6.483.79.852c.19.366.28.804.28 1.312V115h-1.82v-3.844c.01-.4-.1-.713-.3-.937-.21-.228-.5-.341-.86-.341-.24 0-.46.052-.65.158-.18.105-.33.258-.43.46-.1.199-.16.439-.16.72m13.2-2.433c-.04-.344-.18-.611-.44-.801s-.61-.286-1.06-.286c-.3 0-.55.043-.76.128q-.315.123-.48.345a.9.9 0 0 0-.16.503c0 .156.03.292.1.409q.105.174.3.303.195.123.45.217c.16.06.34.111.53.153l.79.188c.38.085.73.199 1.04.341.32.142.6.316.83.524.23.207.42.452.54.733.13.281.2.603.2.967 0 .534-.14.997-.41 1.389-.26.39-.65.692-1.16.908-.5.213-1.1.32-1.81.32s-1.32-.108-1.85-.324a2.66 2.66 0 0 1-1.21-.959c-.29-.426-.45-.953-.46-1.581h1.79c.02.293.1.537.25.733q.225.29.6.439c.25.096.54.145.85.145.32 0 .59-.046.82-.137q.345-.136.54-.379a.86.86 0 0 0 .19-.558.75.75 0 0 0-.17-.494 1.3 1.3 0 0 0-.51-.341 5 5 0 0 0-.8-.256l-.95-.239c-.74-.179-1.32-.459-1.75-.839q-.63-.572-.63-1.539 0-.793.42-1.384a2.86 2.86 0 0 1 1.18-.925q.75-.333 1.71-.333c.64 0 1.21.111 1.69.333q.735.332 1.14.925c.27.394.41.852.41 1.372zm6.07 6.345q-1.005 0-1.74-.409a2.8 2.8 0 0 1-1.11-1.168q-.39-.759-.39-1.794 0-1.01.39-1.773c.26-.508.63-.904 1.1-1.189q.72-.426 1.68-.426c.43 0 .83.07 1.21.209.37.136.7.342.98.618s.5.622.65 1.04q.24.622.24 1.457v.499h-5.53v-1.125h3.82c0-.262-.06-.493-.17-.695a1.27 1.27 0 0 0-.47-.473c-.2-.116-.44-.175-.7-.175-.28 0-.52.064-.73.192-.21.125-.38.294-.5.507q-.18.316-.18.703v1.07q0 .486.18.84.18.353.51.545c.23.128.49.192.79.192.2 0 .39-.029.56-.085.16-.057.31-.143.43-.256q.18-.17.27-.418l1.68.111c-.09.403-.26.756-.53 1.057-.26.298-.59.531-1.01.699-.41.164-.89.247-1.43.247m4.19-.128v-6.545h1.76v1.142h.07q.18-.61.6-.921c.28-.21.61-.315.97-.315q.135 0 .3.017.15.017.27.047v1.611a3.2 3.2 0 0 0-.76-.098q-.405 0-.72.174c-.21.114-.37.273-.49.477q-.18.308-.18.708V115zm11.21-6.545L1201 115h-2.05l-2.29-6.545h1.92l1.36 4.683h.07l1.35-4.683zm3.7 6.673c-.67 0-1.25-.137-1.73-.409a2.76 2.76 0 0 1-1.12-1.168q-.39-.759-.39-1.794 0-1.01.39-1.773c.26-.508.63-.904 1.1-1.189q.72-.426 1.68-.426c.43 0 .84.07 1.21.209.37.136.7.342.98.618s.5.622.65 1.04q.24.622.24 1.457v.499h-5.53v-1.125h3.82c0-.262-.06-.493-.17-.695a1.2 1.2 0 0 0-.47-.473c-.2-.116-.43-.175-.7-.175a1.39 1.39 0 0 0-1.23.699c-.11.211-.18.445-.18.703v1.07q0 .486.18.84c.12.235.29.417.52.545q.33.192.78.192c.21 0 .39-.029.56-.085s.31-.143.43-.256q.18-.17.27-.418l1.68.111c-.08.403-.26.756-.52 1.057q-.39.447-1.02.699c-.41.164-.89.247-1.43.247m4.19-.128v-6.545h1.76v1.142h.07q.18-.61.6-.921c.28-.21.61-.315.97-.315a2.6 2.6 0 0 1 .58.064v1.611a3 3 0 0 0-.36-.069 3 3 0 0 0-.41-.029q-.405 0-.72.174c-.21.114-.37.273-.49.477q-.18.308-.18.708V115z"/><path fill="#0055DC" d="M1148.22 66.025H1146v11.43h2.22zm57.93 0h-2.22v11.43h2.22z"/><path fill="#fff" stroke="#0055DC" stroke-miterlimit="10" stroke-width="1.5" d="M1151.26 79.49v2.17l49.63-.003v-2.169z"/><path fill="#C5EBF5" stroke="#0055DC" stroke-miterlimit="10" stroke-width="1.5" d="M1203.93 64h-55.71v15.489h55.71z"/><path fill="#fff" d="M1201.53 77.305V66.183h-50.9v11.122z"/><path fill="#0055DC" d="M1154.76 69.324h-1.23v1.204h1.23zm0 3.626h-1.23v1.204h1.23zm1.69-1.911h-1.24v1.204h1.24zm1.5-1.715h-1.24v1.204h1.24zm0 3.626h-1.24v1.204h1.24zm1.59-1.911h-1.23v1.204h1.23zm1.89-1.715h-1.23v1.204h1.23zm0 3.626h-1.23v1.204h1.23zm1.6-1.911h-1.24v1.204h1.24zm1.94-1.715h-1.24v1.204h1.24zm0 3.626h-1.24v1.204h1.24zm1.5-1.911h-1.24v1.204h1.24zm1.69-1.715h-1.24v1.204h1.24zm0 3.626h-1.24v1.204h1.24zm1.4-1.911h-1.23v1.204h1.23zm1.79-1.715h-1.24v1.204h1.24zm0 3.626h-1.24v1.204h1.24zm1.31-1.911h-1.23v1.204h1.23zm24.82 2.201c.85 0 1.53-.67 1.53-1.496 0-.825-.68-1.495-1.53-1.495-.84 0-1.53.67-1.53 1.495s.69 1.496 1.53 1.496"/><path stroke="#0055DC" stroke-miterlimit="10" stroke-width="1.5" d="M1193.08 71.744h-16.21"/><path fill="#0055DC" d="M1162 73.264h-2.22v11.429h2.22zm57.94 0h-2.23v11.429h2.23z"/><path fill="#fff" stroke="#0055DC" stroke-miterlimit="10" stroke-width="1.5" d="M1165.04 86.73v2.168l49.63-.002v-2.17z"/><path fill="#C5EBF5" stroke="#0055DC" stroke-miterlimit="10" stroke-width="1.5" d="M1217.71 71.239H1162v15.488h55.71z"/><path fill="#fff" d="M1215.31 84.543V73.422h-50.9v11.121z"/><path fill="#0055DC" d="M1168.54 76.562h-1.23v1.205h1.23zm0 3.626h-1.23v1.204h1.23zm1.69-1.91H1169v1.204h1.23zm1.5-1.716h-1.23v1.205h1.23zm0 3.626h-1.23v1.204h1.23zm1.6-1.91h-1.24v1.204h1.24zm1.88-1.716h-1.23v1.205h1.23zm0 3.626h-1.23v1.204h1.23zm1.6-1.91h-1.24v1.204h1.24zm1.94-1.716h-1.23v1.205h1.23zm0 3.626h-1.23v1.204h1.23zm1.5-1.91h-1.23v1.204h1.23zm1.69-1.716h-1.24v1.205h1.24zm0 3.626h-1.24v1.204h1.24zm1.41-1.91h-1.24v1.204h1.24zm1.78-1.716h-1.23v1.205h1.23zm0 3.626h-1.23v1.204h1.23zm1.31-1.91h-1.23v1.204h1.23zm24.82 2.2c.85 0 1.54-.67 1.54-1.495s-.69-1.495-1.54-1.495c-.84 0-1.53.67-1.53 1.495s.69 1.495 1.53 1.495"/><path stroke="#0055DC" stroke-miterlimit="10" stroke-width="1.5" d="M1206.86 78.983h-16.21"/><path fill="#E2F5FA" stroke="#F6821F" stroke-width="2" d="M1110 167H949v-24h161zm2-32h133v40h-133z"/><path fill="#222" d="M1159.68 159.151c-.67 0-1.25-.142-1.73-.426a2.9 2.9 0 0 1-1.11-1.193c-.25-.509-.38-1.094-.38-1.756q0-1.005.39-1.764.39-.763 1.11-1.189.72-.43 1.71-.43.855 0 1.5.311.645.31 1.02.873t.42 1.321h-1.72c-.05-.327-.17-.589-.38-.788-.21-.202-.47-.303-.81-.303a1.2 1.2 0 0 0-.73.23c-.21.151-.37.371-.49.661s-.17.641-.17 1.052c0 .418.05.773.17 1.066.11.292.28.515.49.669.21.153.45.23.73.23.21 0 .4-.043.56-.128a1 1 0 0 0 .41-.371c.12-.164.19-.362.22-.592h1.72c-.03.5-.17.94-.41 1.321-.25.378-.58.673-1.01.886-.42.214-.93.32-1.51.32m5.9-8.855v8.727h-1.81v-8.727zm4.41 8.855q-.99 0-1.71-.422a2.97 2.97 0 0 1-1.12-1.184q-.39-.764-.39-1.769 0-1.014.39-1.773c.27-.508.64-.903 1.12-1.184q.72-.426 1.71-.426c.67 0 1.24.142 1.72.426q.72.422 1.11 1.184c.27.506.4 1.097.4 1.773 0 .67-.13 1.26-.4 1.769q-.39.758-1.11 1.184c-.48.281-1.05.422-1.72.422m.01-1.406c.3 0 .56-.085.76-.256q.3-.26.45-.707c.11-.299.16-.638.16-1.019s-.05-.72-.16-1.018q-.15-.448-.45-.708c-.2-.173-.46-.26-.76-.26s-.56.087-.76.26c-.21.174-.36.409-.47.708q-.15.447-.15 1.018t.15 1.019c.11.298.26.534.47.707.2.171.46.256.76.256m8.59-1.509v-3.758h1.82v6.545h-1.74v-1.189h-.07c-.15.384-.4.692-.74.925s-.76.349-1.25.349c-.44 0-.82-.099-1.15-.298a2.1 2.1 0 0 1-.78-.848c-.19-.366-.28-.805-.28-1.317v-4.167h1.81v3.843c0 .387.11.692.31.917.21.224.48.336.83.336.21 0 .42-.049.61-.149.19-.102.34-.253.46-.452.12-.198.18-.444.17-.737m5.68 2.894a2.5 2.5 0 0 1-1.35-.384c-.4-.258-.72-.638-.95-1.138-.24-.502-.35-1.119-.35-1.849q0-1.125.36-1.871.36-.75.96-1.12a2.5 2.5 0 0 1 1.33-.375c.37 0 .67.062.92.187.24.122.44.276.59.46.16.182.27.361.35.537h.06v-3.281h1.81v8.727h-1.79v-1.048h-.08q-.12.273-.36.541-.225.264-.6.439c-.25.116-.54.175-.9.175m.58-1.445c.29 0 .54-.079.74-.239.2-.161.36-.387.47-.677s.16-.629.16-1.019-.05-.727-.16-1.014-.26-.508-.47-.665c-.2-.156-.45-.234-.74-.234-.3 0-.55.081-.76.243-.2.162-.36.386-.46.673-.11.287-.16.62-.16.997 0 .381.05.718.16 1.01.11.29.26.517.46.682.21.162.46.243.76.243m8.16-5.207v1.363h-4.04v-1.363zm-3.12 6.545v-7.018c0-.475.1-.868.28-1.181.19-.312.45-.547.77-.703a2.5 2.5 0 0 1 1.1-.234c.28 0 .54.021.77.064s.4.081.52.115l-.33 1.363a2 2 0 0 0-.26-.063c-.11-.02-.21-.03-.32-.03-.27 0-.45.062-.56.187q-.15.183-.15.516v6.984zm6.04-8.727v8.727h-1.81v-8.727zm3.32 8.851q-.615 0-1.11-.218a1.8 1.8 0 0 1-.78-.652c-.18-.289-.28-.65-.28-1.082 0-.364.07-.669.2-.916.14-.247.32-.446.55-.597q.345-.225.78-.341.45-.114.93-.162c.38-.039.69-.076.92-.11q.345-.056.51-.162a.37.37 0 0 0 .16-.316v-.025c0-.27-.09-.479-.26-.627q-.255-.22-.72-.221-.48 0-.78.217a1 1 0 0 0-.38.537l-1.68-.136c.09-.398.25-.742.5-1.032.25-.292.58-.517.97-.673q.6-.238 1.38-.238c.37 0 .71.042 1.05.127.33.086.63.218.89.397s.46.409.62.69c.15.278.22.612.22 1.001v4.415h-1.72v-.907h-.05q-.165.306-.42.541c-.18.153-.39.274-.64.362-.25.085-.53.128-.86.128m.52-1.253c.27 0 .51-.053.71-.158q.315-.162.48-.434.18-.273.18-.618v-.695q-.09.056-.24.102c-.09.029-.2.056-.32.081l-.37.064-.33.047c-.22.031-.4.081-.56.149a.9.9 0 0 0-.37.277.66.66 0 0 0-.13.426c0 .248.09.436.26.567q.285.192.69.192m4.58 1.129v-6.545h1.76v1.142h.07q.18-.609.6-.921c.28-.21.6-.315.97-.315a2.7 2.7 0 0 1 .57.064v1.611c-.08-.026-.2-.049-.35-.068a3 3 0 0 0-.42-.03c-.26 0-.5.058-.71.174a1.34 1.34 0 0 0-.5.478q-.18.306-.18.707v3.703zm7.59.128c-.68 0-1.25-.136-1.74-.409a2.8 2.8 0 0 1-1.12-1.168q-.39-.757-.39-1.794 0-1.01.39-1.772.39-.763 1.11-1.189.705-.426 1.68-.426.645 0 1.2.208c.38.137.7.343.98.618q.42.413.66 1.04c.15.415.23.901.23 1.457v.499h-5.52v-1.125h3.81c0-.261-.05-.493-.17-.695a1.2 1.2 0 0 0-.47-.473 1.35 1.35 0 0 0-.69-.174c-.28 0-.52.064-.74.191a1.34 1.34 0 0 0-.49.507c-.12.211-.18.445-.19.704v1.069q0 .486.18.84c.13.236.3.417.52.545s.48.192.79.192c.2 0 .38-.028.55-.085s.31-.142.43-.256q.18-.17.27-.418l1.68.111c-.08.404-.26.756-.52 1.057-.26.298-.6.531-1.01.699-.42.165-.89.247-1.43.247m6.6-.021q-.75 0-1.35-.384-.6-.388-.96-1.138c-.23-.502-.35-1.119-.35-1.849 0-.75.12-1.374.37-1.871q.36-.75.96-1.12.6-.375 1.32-.375c.37 0 .68.062.92.187q.375.184.6.46c.15.182.27.361.35.537h.05v-3.281h1.81v8.727h-1.79v-1.048h-.07c-.09.182-.21.362-.37.541q-.225.264-.6.439c-.24.116-.54.175-.89.175m.57-1.445c.3 0 .54-.079.75-.239.2-.161.36-.387.46-.677.12-.29.17-.629.17-1.019s-.05-.727-.16-1.014a1.5 1.5 0 0 0-.47-.665q-.3-.234-.75-.234c-.29 0-.55.081-.75.243s-.36.386-.46.673c-.11.287-.16.62-.16.997 0 .381.05.718.16 1.01.1.29.26.517.46.682.2.162.46.243.75.243"/><path fill="#E2F5FA" d="M948 144h166v22H948z"/><path fill="#F6821F" d="M1142.95 157.1h-4.32l-.63-1.155 7.75-11.922 1.34.559-1.6 8.048h4.32l.63 1.154-7.75 11.923-1.34-.56z"/><path stroke="#F63" stroke-dasharray="2 2" stroke-width="2" d="M233 67h716v175H233z"/><path fill="#000" d="M1128.71 155.707a1 1 0 0 0 0-1.414l-6.37-6.364a.994.994 0 0 0-1.41 0 1 1 0 0 0 0 1.414l5.66 5.657-5.66 5.657a1 1 0 0 0 0 1.414.994.994 0 0 0 1.41 0zM934 156h194v-2H934z"/></svg>