<svg xmlns="http://www.w3.org/2000/svg" width="960" height="500" fill="none" viewBox="0 0 960 500"><path fill="#fff" d="M0 0h960v500H0z"/><path fill="#222" d="M195.562 144.328h-1.866a1.8 1.8 0 0 0-.209-.643 1.6 1.6 0 0 0-.405-.486 1.8 1.8 0 0 0-.571-.307 2.2 2.2 0 0 0-.694-.106q-.678 0-1.181.336-.502.333-.78.972-.276.635-.277 1.542 0 .934.277 1.569.282.634.784.958.503.324 1.164.324.37 0 .686-.098a1.8 1.8 0 0 0 .567-.285 1.7 1.7 0 0 0 .409-.465q.166-.273.23-.622l1.866.009q-.072.6-.362 1.159-.285.553-.771.993a3.7 3.7 0 0 1-1.151.69 4.2 4.2 0 0 1-1.504.251q-1.167 0-2.088-.528-.916-.528-1.449-1.53-.528-1.002-.528-2.425 0-1.427.537-2.429t1.457-1.525q.92-.529 2.071-.529.758 0 1.406.213.652.214 1.155.623.503.404.818.993.32.588.409 1.346m8.623-3.055V150h-1.594l-3.796-5.493h-.064V150h-1.846v-8.727h1.62l3.767 5.488h.077v-5.488zm3.029 8.727h-1.977l3.012-8.727h2.378l3.009 8.727h-1.977l-2.187-6.733h-.068zm-.124-3.43h4.671v1.44h-4.671zm7.596-5.297h2.276l2.403 5.863h.103l2.403-5.863h2.275V150h-1.789v-5.68h-.073l-2.258 5.637h-1.219l-2.259-5.659h-.072V150h-1.79zM225.667 150v-8.727h5.88v1.521h-4.035v2.08h3.733v1.521h-3.733v2.084h4.052V150zm12.767.128q-.904 0-1.56-.324a2.46 2.46 0 0 1-1.01-.878 2.3 2.3 0 0 1-.349-1.244q0-.512.204-.908.205-.396.571-.729a8 8 0 0 1 .853-.669l1.691-1.112q.329-.208.482-.439a.9.9 0 0 0 .153-.507.7.7 0 0 0-.209-.481q-.208-.222-.592-.218a.84.84 0 0 0-.737.409.8.8 0 0 0-.102.401q0 .273.153.554.154.28.409.597l.558.673 4.138 4.747h-1.892l-3.452-3.844a25 25 0 0 1-.681-.809 4.7 4.7 0 0 1-.563-.904 2.4 2.4 0 0 1-.226-1.044q0-.635.294-1.142.299-.507.836-.801.536-.298 1.252-.298.699 0 1.206.285a2 2 0 0 1 1.061 1.773q0 .618-.306 1.121-.303.498-.853.895l-1.781 1.282q-.362.264-.537.541a1 1 0 0 0-.17.525q0 .31.153.558.153.247.435.392.28.14.66.14.46 0 .908-.208.452-.214.818-.601a3 3 0 0 0 .592-.929q.222-.537.222-1.189h1.504a5.5 5.5 0 0 1-.174 1.445 4 4 0 0 1-.486 1.116 3.1 3.1 0 0 1-.712.776l-.247.153-.247.153a3.1 3.1 0 0 1-1.087.567 4.2 4.2 0 0 1-1.18.175m-55.874 8.2h-1.866a1.8 1.8 0 0 0-.209-.643 1.6 1.6 0 0 0-.405-.486 1.8 1.8 0 0 0-.571-.307 2.2 2.2 0 0 0-.694-.106q-.678 0-1.181.336-.503.333-.78.972-.276.635-.277 1.542 0 .934.277 1.569.282.634.784.958.504.324 1.164.324.37 0 .686-.098a1.8 1.8 0 0 0 .567-.285 1.7 1.7 0 0 0 .409-.465q.166-.273.23-.622l1.866.009q-.072.6-.362 1.159-.285.553-.771.993a3.7 3.7 0 0 1-1.151.69 4.2 4.2 0 0 1-1.504.251q-1.167 0-2.088-.528-.916-.528-1.449-1.53-.528-1.002-.528-2.425 0-1.427.537-2.429.536-1.001 1.457-1.525.92-.529 2.071-.529.758 0 1.406.213.652.214 1.155.623.503.404.818.993.32.588.409 1.346m5.487 2.885v-3.758h1.815V164h-1.743v-1.189h-.068a1.93 1.93 0 0 1-.737.925q-.511.35-1.249.349-.656 0-1.154-.298a2.05 2.05 0 0 1-.78-.848q-.278-.55-.282-1.317v-4.167h1.816v3.843q.004.58.311.916t.822.337q.329 0 .614-.149.285-.153.46-.452.179-.298.175-.737m8.713-1.892-1.662.102a.85.85 0 0 0-.183-.383.96.96 0 0 0-.371-.277 1.3 1.3 0 0 0-.541-.107q-.422 0-.711.179-.29.175-.29.469 0 .234.187.396.188.162.644.26l1.184.239q.955.196 1.424.631.468.434.468 1.142 0 .643-.379 1.129-.375.486-1.031.758-.652.269-1.504.269-1.3 0-2.071-.541a2.1 2.1 0 0 1-.899-1.483l1.785-.094a.92.92 0 0 0 .392.605q.31.204.797.205.477 0 .767-.184.294-.187.298-.481a.5.5 0 0 0-.209-.405q-.204-.162-.63-.247l-1.134-.226q-.959-.191-1.427-.665-.465-.472-.465-1.206 0-.63.341-1.086.345-.456.967-.704.627-.246 1.466-.247 1.24 0 1.952.524.716.525.835 1.428m4.774-1.866v1.363h-3.942v-1.363zm-3.047-1.569h1.816v6.103q0 .25.076.392a.42.42 0 0 0 .213.191.9.9 0 0 0 .324.056q.128 0 .256-.021l.196-.039.285 1.351q-.135.042-.383.098-.247.06-.601.072a2.8 2.8 0 0 1-1.151-.174 1.6 1.6 0 0 1-.762-.622q-.273-.423-.269-1.066zm7.117 8.242q-.993 0-1.718-.422a2.9 2.9 0 0 1-1.112-1.185q-.392-.763-.392-1.768 0-1.014.392-1.773a2.87 2.87 0 0 1 1.112-1.185q.725-.426 1.718-.426t1.713.426a2.85 2.85 0 0 1 1.116 1.185q.392.759.392 1.773 0 1.005-.392 1.768a2.87 2.87 0 0 1-1.116 1.185q-.72.422-1.713.422m.008-1.406q.452 0 .754-.256a1.6 1.6 0 0 0 .456-.707q.158-.448.158-1.019t-.158-1.018a1.6 1.6 0 0 0-.456-.708 1.12 1.12 0 0 0-.754-.26q-.456 0-.767.26a1.6 1.6 0 0 0-.464.708 3.1 3.1 0 0 0-.154 1.018q0 .571.154 1.019a1.6 1.6 0 0 0 .464.707q.311.256.767.256m4.394 1.278v-6.545h1.73v1.154h.076q.205-.575.682-.907t1.142-.333q.673 0 1.147.337.472.333.63.903h.069q.2-.562.724-.899.528-.34 1.249-.341.915 0 1.487.584.575.58.575 1.645V164h-1.811v-4.044q0-.546-.29-.818a1 1 0 0 0-.724-.273q-.495 0-.772.315-.276.312-.277.823V164h-1.759v-4.082q0-.482-.277-.767-.273-.286-.721-.286-.302 0-.545.153-.239.15-.379.422a1.34 1.34 0 0 0-.141.631V164zm21.776-4.364q0 1.428-.541 2.429-.536 1.002-1.466 1.53-.924.524-2.079.524-1.164 0-2.088-.528t-1.462-1.53-.537-2.425q0-1.427.537-2.429t1.462-1.525q.924-.529 2.088-.529 1.155 0 2.079.529.93.524 1.466 1.525.541 1.002.541 2.429m-1.87 0q0-.924-.277-1.559-.273-.636-.772-.963-.498-.328-1.167-.328-.67 0-1.168.328-.498.327-.776.963-.272.635-.272 1.559 0 .925.272 1.56.278.634.776.963t1.168.328q.669 0 1.167-.328.5-.329.772-.963.276-.635.277-1.56m3.203 4.364v-6.545h1.76v1.142h.068q.18-.61.601-.921a1.58 1.58 0 0 1 .972-.315 2.6 2.6 0 0 1 .571.064v1.611a3.2 3.2 0 0 0-.767-.098q-.4 0-.716.174a1.3 1.3 0 0 0-.495.477 1.4 1.4 0 0 0-.179.708V164zm4.91 0v-6.545h1.816V164zm.912-7.389a1 1 0 0 1-.694-.269.87.87 0 0 1-.286-.652.85.85 0 0 1 .286-.643.98.98 0 0 1 .694-.273q.405 0 .69.273.29.268.29.643a.86.86 0 0 1-.29.652.97.97 0 0 1-.69.269m5.307 9.98q-.882 0-1.513-.243-.627-.238-.997-.652a2 2 0 0 1-.482-.929l1.679-.226q.077.196.243.367t.439.272q.277.107.673.107.592 0 .976-.29.388-.285.388-.959v-1.197h-.077a1.7 1.7 0 0 1-.358.516 1.8 1.8 0 0 1-.613.396q-.375.153-.895.153-.738 0-1.343-.341-.6-.345-.958-1.052-.354-.712-.354-1.799 0-1.112.362-1.857.363-.747.963-1.117a2.5 2.5 0 0 1 1.325-.371q.55 0 .921.188.37.183.596.46.231.273.354.537h.068v-1.099h1.803v6.609q0 .835-.409 1.398-.41.563-1.134.843-.72.286-1.657.286m.038-4.048q.44 0 .741-.218.307-.221.469-.63.166-.414.166-.989 0-.576-.162-.997a1.47 1.47 0 0 0-.468-.661 1.2 1.2 0 0 0-.746-.234q-.448 0-.754.243a1.45 1.45 0 0 0-.465.665 2.8 2.8 0 0 0-.157.984q0 .567.157.98.162.409.465.635.306.222.754.222m4.606 1.457v-6.545h1.816V164zm.912-7.389a1 1 0 0 1-.694-.269.87.87 0 0 1-.286-.652.85.85 0 0 1 .286-.643.98.98 0 0 1 .694-.273q.405 0 .691.273.29.268.29.643a.86.86 0 0 1-.29.652.97.97 0 0 1-.691.269m4.173 3.605V164h-1.815v-6.545h1.73v1.154h.077a1.83 1.83 0 0 1 .729-.903q.51-.337 1.24-.337.68 0 1.189.299.507.298.788.852.28.55.281 1.312V164h-1.815v-3.844q.004-.6-.307-.937-.31-.341-.857-.341-.366 0-.647.158-.278.157-.435.46a1.6 1.6 0 0 0-.158.72"/><path fill="#fff" d="M144.062 151.483H73v46.668h71.062z"/><path fill="#3E74FF" stroke="#3E74FF" stroke-miterlimit="10" stroke-width="1.5" d="M144.062 148.301H73v5.303h71.062z"/><path fill="#fff" d="M76.287 151.903a1.378 1.378 0 1 0 0-2.756 1.378 1.378 0 0 0 0 2.756m4.457 0a1.378 1.378 0 1 0 0-2.756 1.378 1.378 0 0 0 0 2.756m4.458 0a1.378 1.378 0 1 0 0-2.756 1.378 1.378 0 0 0 0 2.756"/><path fill="#E0ECFF" d="M114.289 158.532H77.233v14.998h37.056zm-15.881 17.646H77.233v18.528h21.175zm41.467-17.646h-22.939v14.998h22.939zm0 17.646h-38.82v18.528h38.82z"/><path fill="#fff" d="M144.062 150.854H73v46.668h71.062z"/><path fill="#3E74FF" stroke="#3E74FF" stroke-miterlimit="10" stroke-width="1.5" d="M144.062 147.672H73v5.304h71.062z"/><path fill="#fff" d="M76.287 151.903a1.378 1.378 0 1 0 0-2.756 1.378 1.378 0 0 0 0 2.756m4.457 0a1.378 1.378 0 1 0 0-2.756 1.378 1.378 0 0 0 0 2.756m4.458 0a1.378 1.378 0 1 0 0-2.756 1.378 1.378 0 0 0 0 2.756"/><path fill="#E0ECFF" d="M114.289 157.903H77.233v14.999h37.056zm-15.881 17.646H77.233v18.528h21.175zm41.467-17.646h-22.939v14.999h22.939zm0 17.646h-38.82v18.528h38.82z"/><path stroke="#3E74FF" stroke-miterlimit="10" stroke-width="1.5" d="M144.062 147.24H73v6.364h71.062z"/><path stroke="#3E74FF" stroke-miterlimit="10" stroke-width="1.5" d="M144.062 147.24H73v50.911h71.062z"/><path fill="#222" d="M53.9 216.268q-.922 0-1.587-.391a2.64 2.64 0 0 1-1.015-1.093q-.352-.7-.352-1.61 0-.922.356-1.617.36-.699 1.02-1.09.66-.394 1.57-.394.784 0 1.375.285.59.285.933.801.345.515.38 1.21h-1.571a1.2 1.2 0 0 0-.352-.722q-.28-.278-.738-.278a1.12 1.12 0 0 0-.676.211q-.285.207-.445.606-.16.398-.16.965 0 .574.156.976.16.402.45.614.288.21.675.21.284 0 .512-.117a1 1 0 0 0 .379-.34q.151-.227.199-.543h1.57a2.46 2.46 0 0 1-.375 1.211 2.26 2.26 0 0 1-.918.813q-.586.293-1.387.293m7.592-2.672v-3.445h1.664v6H61.56v-1.09h-.063q-.202.527-.676.848-.469.32-1.144.32-.602 0-1.059-.274a1.9 1.9 0 0 1-.715-.777q-.253-.504-.258-1.207v-3.82h1.665v3.523q.003.531.285.84t.754.309q.3 0 .562-.137.262-.141.422-.414a1.27 1.27 0 0 0 .16-.676m7.988-1.734-1.524.093a.8.8 0 0 0-.168-.351.9.9 0 0 0-.34-.254 1.2 1.2 0 0 0-.496-.098q-.387 0-.652.164-.266.16-.266.43 0 .214.172.363t.59.239l1.086.218q.875.18 1.304.578.43.399.43 1.047 0 .591-.347 1.035-.345.445-.946.696-.597.246-1.379.246-1.191 0-1.898-.496a1.94 1.94 0 0 1-.824-1.36l1.636-.086q.075.364.36.555.285.188.73.188.438 0 .703-.168.27-.172.274-.442a.46.46 0 0 0-.192-.371q-.187-.148-.578-.226l-1.039-.207q-.879-.177-1.308-.61-.426-.433-.426-1.105 0-.579.312-.996.317-.418.887-.645.574-.226 1.344-.226 1.137 0 1.789.48.656.48.766 1.309m4.376-1.711v1.25h-3.614v-1.25zm-2.793-1.438h1.664v5.594q0 .23.07.359a.4.4 0 0 0 .195.176.8.8 0 0 0 .297.051q.117 0 .234-.02l.18-.035.262 1.238a4 4 0 0 1-.352.09 3 3 0 0 1-.55.067 2.55 2.55 0 0 1-1.055-.16 1.5 1.5 0 0 1-.7-.571q-.249-.387-.246-.976zm6.523 7.555q-.91 0-1.574-.387-.66-.39-1.02-1.086-.36-.699-.36-1.621 0-.93.36-1.625.36-.699 1.02-1.086.663-.39 1.574-.39.91 0 1.57.39.664.387 1.024 1.086.36.696.36 1.625 0 .922-.36 1.621-.36.696-1.024 1.086-.66.387-1.57.387m.008-1.289q.414 0 .691-.235a1.45 1.45 0 0 0 .418-.648 2.8 2.8 0 0 0 .145-.934q0-.523-.145-.933a1.45 1.45 0 0 0-.418-.649 1.03 1.03 0 0 0-.691-.238q-.418 0-.703.238-.282.238-.426.649-.14.41-.14.933t.14.934q.144.41.426.648.285.235.703.235m4.027 1.172v-6h1.586v1.058h.07q.188-.527.625-.832.438-.304 1.047-.304.618 0 1.051.308.435.304.578.828h.063a1.6 1.6 0 0 1 .664-.824q.484-.312 1.144-.312.84 0 1.364.535.527.53.527 1.508v4.035h-1.66v-3.707q0-.501-.266-.75a.93.93 0 0 0-.664-.25q-.453 0-.707.289-.254.285-.254.754v3.664h-1.613v-3.742q0-.442-.254-.704-.25-.261-.66-.261a.92.92 0 0 0-.848.527 1.2 1.2 0 0 0-.129.578v3.602zm11.006.101a.9.9 0 0 1-.664-.273.9.9 0 0 1-.273-.664q0-.383.273-.656a.9.9 0 0 1 .664-.274.9.9 0 0 1 .656.274.88.88 0 0 1 .281.656.9.9 0 0 1-.132.472q-.13.211-.34.34a.9.9 0 0 1-.465.125m5.038.016q-.925 0-1.594-.375a2.57 2.57 0 0 1-1.023-1.07q-.36-.696-.36-1.645 0-.926.36-1.625a2.66 2.66 0 0 1 1.012-1.09q.656-.39 1.539-.39.593 0 1.105.191.516.188.899.566.386.38.601.954.215.57.215 1.335v.457h-5.066v-1.031h3.5a1.27 1.27 0 0 0-.157-.636 1.1 1.1 0 0 0-.433-.434 1.23 1.23 0 0 0-.637-.16q-.38 0-.672.176a1.23 1.23 0 0 0-.453.464q-.164.29-.168.645v.98q0 .446.164.77a1.2 1.2 0 0 0 .473.5q.305.176.722.176.278 0 .508-.078a1.02 1.02 0 0 0 .645-.618l1.539.102q-.117.555-.48.969a2.4 2.4 0 0 1-.93.64 3.5 3.5 0 0 1-1.309.227m5.123-6.117 1.102 2.097 1.129-2.097h1.707l-1.739 3 1.785 3h-1.699l-1.183-2.075-1.164 2.075h-1.719l1.781-3-1.719-3zm6.605 6.113q-.574 0-1.024-.199a1.66 1.66 0 0 1-.711-.598q-.258-.398-.258-.992 0-.5.184-.84.183-.34.5-.547t.719-.312q.406-.106.851-.149.524-.054.844-.101.321-.051.465-.149a.33.33 0 0 0 .144-.289v-.023q0-.372-.234-.574-.23-.204-.656-.204-.45 0-.715.2a.92.92 0 0 0-.352.492l-1.539-.125q.117-.548.461-.945.344-.403.887-.618.547-.218 1.266-.218.5 0 .957.117.46.117.816.363.36.246.566.633.207.382.207.918v4.047h-1.578v-.832h-.047a1.7 1.7 0 0 1-.386.496q-.243.21-.582.332a2.4 2.4 0 0 1-.785.117m.476-1.148q.367 0 .649-.145.28-.149.441-.398t.16-.567v-.637a1 1 0 0 1-.215.094 4 4 0 0 1-.3.074 13 13 0 0 1-.336.059l-.305.043a2 2 0 0 0-.512.137.8.8 0 0 0-.34.254.62.62 0 0 0-.121.39q0 .34.246.52.25.176.633.176m4.194 1.035v-6h1.585v1.058h.071q.187-.527.625-.832.436-.304 1.047-.304.616 0 1.05.308.434.304.579.828h.062a1.6 1.6 0 0 1 .664-.824q.485-.312 1.145-.312.84 0 1.363.535.527.53.527 1.508v4.035h-1.66v-3.707q0-.501-.266-.75a.93.93 0 0 0-.664-.25q-.453 0-.707.289-.254.285-.254.754v3.664h-1.613v-3.742q0-.442-.254-.704-.249-.261-.66-.261a.9.9 0 0 0-.5.14.96.96 0 0 0-.348.387 1.24 1.24 0 0 0-.128.578v3.602zm10.033 2.25v-8.25h1.64v1.008h.075q.108-.243.316-.493.211-.254.547-.422.34-.171.844-.171.656 0 1.211.343.554.34.886 1.028.333.683.332 1.715 0 1.004-.324 1.695-.32.687-.875 1.043a2.25 2.25 0 0 1-1.234.351q-.485 0-.825-.16a1.7 1.7 0 0 1-.55-.402 2 2 0 0 1-.328-.496h-.051v3.211zm1.629-5.25q0 .535.148.933.148.399.43.621.28.219.683.219.406 0 .688-.223.28-.226.426-.625a2.7 2.7 0 0 0 .148-.925q0-.52-.144-.914a1.4 1.4 0 0 0-.426-.618 1.08 1.08 0 0 0-.692-.222q-.407 0-.687.215a1.35 1.35 0 0 0-.426.609 2.6 2.6 0 0 0-.148.93m6.996-5v8h-1.664v-8zm4.067 8.117q-.925 0-1.594-.375a2.57 2.57 0 0 1-1.023-1.07q-.36-.696-.359-1.645 0-.926.359-1.625a2.66 2.66 0 0 1 1.012-1.09q.656-.39 1.539-.39.594 0 1.105.191.515.188.899.566.386.38.601.954.215.57.215 1.335v.457h-5.066v-1.031h3.5q0-.36-.157-.636a1.1 1.1 0 0 0-.433-.434 1.24 1.24 0 0 0-.637-.16q-.38 0-.672.176a1.2 1.2 0 0 0-.453.464 1.3 1.3 0 0 0-.168.645v.98q0 .446.164.77.168.324.473.5t.722.176q.278 0 .508-.078.23-.08.395-.235.163-.156.25-.383l1.539.102q-.117.555-.481.969a2.4 2.4 0 0 1-.929.64 3.5 3.5 0 0 1-1.309.227m4.813-.016a.9.9 0 0 1-.664-.273.9.9 0 0 1-.274-.664q0-.383.274-.656a.9.9 0 0 1 .664-.274.9.9 0 0 1 .656.274.88.88 0 0 1 .281.656.9.9 0 0 1-.133.472 1 1 0 0 1-.34.34.9.9 0 0 1-.464.125m5.014.016q-.921 0-1.586-.391a2.64 2.64 0 0 1-1.015-1.093q-.352-.7-.352-1.61 0-.922.356-1.617a2.64 2.64 0 0 1 1.019-1.09q.66-.394 1.57-.394.786 0 1.375.285.59.285.934.801.343.515.379 1.21h-1.57a1.22 1.22 0 0 0-.352-.722q-.281-.278-.738-.278a1.12 1.12 0 0 0-.676.211q-.286.207-.445.606-.16.398-.16.965 0 .574.156.976.16.402.449.614.29.21.676.21.285 0 .511-.117a1 1 0 0 0 .379-.34q.153-.227.2-.543h1.57a2.46 2.46 0 0 1-.375 1.211 2.26 2.26 0 0 1-.918.813q-.586.293-1.387.293m6.456 0q-.91 0-1.574-.387-.66-.39-1.019-1.086-.36-.699-.36-1.621 0-.93.36-1.625a2.6 2.6 0 0 1 1.019-1.086q.665-.39 1.574-.39.91 0 1.571.39.663.387 1.023 1.086.36.696.359 1.625 0 .922-.359 1.621a2.64 2.64 0 0 1-1.023 1.086q-.661.387-1.571.387m.008-1.289q.414 0 .692-.235a1.45 1.45 0 0 0 .417-.648q.145-.41.145-.934 0-.523-.145-.933a1.45 1.45 0 0 0-.417-.649 1.03 1.03 0 0 0-.692-.238q-.418 0-.703.238a1.47 1.47 0 0 0-.426.649 2.9 2.9 0 0 0-.14.933q0 .524.14.934.145.41.426.648.285.235.703.235m4.027 1.172v-6h1.586v1.058h.071q.187-.527.625-.832.436-.304 1.047-.304.616 0 1.05.308.434.304.578.828h.063a1.6 1.6 0 0 1 .664-.824q.484-.312 1.145-.312.839 0 1.363.535.527.53.527 1.508v4.035h-1.66v-3.707q0-.501-.266-.75a.93.93 0 0 0-.664-.25q-.452 0-.707.289-.254.285-.254.754v3.664h-1.613v-3.742q0-.442-.254-.704-.249-.261-.66-.261a.9.9 0 0 0-.5.14.96.96 0 0 0-.348.387 1.2 1.2 0 0 0-.128.578v3.602z"/><path fill="#000" d="M273.707 176.707a1 1 0 0 0 0-1.414l-6.364-6.364a.999.999 0 1 0-1.414 1.414l5.657 5.657-5.657 5.657a.999.999 0 1 0 1.414 1.414zM161 177h112v-2H161z"/><circle cx="216.993" cy="108.993" r="17.992" fill="#E2F5FA" stroke="#0055DC" stroke-width="2"/><path fill="#000" d="M218.873 101.824v12.823h-2.531v-9.905l-3.041.967v-1.995l5.3-1.89z"/><path fill="#222" d="m389.789 423 1.449-8.727h2.948q1.023 0 1.62.345.6.345.814.95.217.606.089 1.381a3.3 3.3 0 0 1-.545 1.363 2.8 2.8 0 0 1-1.125.938q-.708.34-1.722.341h-2.386l.17-.955h2.352q.7 0 1.16-.204.46-.205.715-.584.257-.38.341-.899.086-.528-.046-.916a1.04 1.04 0 0 0-.525-.605q-.391-.218-1.099-.218h-1.858l-1.295 7.79zm4.755-3.92 1.5 3.92h-1.227l-1.466-3.92zm5.441 4.056q-.942 0-1.555-.417a2.2 2.2 0 0 1-.857-1.176q-.243-.759-.077-1.765t.661-1.772a3.6 3.6 0 0 1 1.231-1.202 3.13 3.13 0 0 1 1.62-.435q.512 0 .984.171.474.17.818.554.345.38.482 1.005.136.627-.017 1.543l-.068.426h-5.046l.137-.869h4.022q.099-.554-.051-.989a1.3 1.3 0 0 0-.507-.686q-.358-.25-.908-.251-.566 0-1.056.307-.49.302-.819.767a2.3 2.3 0 0 0-.409.937l-.119.75q-.127.815.038 1.296.17.481.593.694.422.209 1.056.209.405 0 .746-.111.342-.115.61-.341.268-.23.451-.571l.921.273a2.7 2.7 0 0 1-.661.869 3.1 3.1 0 0 1-.988.58 3.6 3.6 0 0 1-1.232.204m6.514 2.455q-.733 0-1.228-.188a2.1 2.1 0 0 1-.792-.485 2.2 2.2 0 0 1-.452-.64l.903-.562q.103.179.265.409.162.234.49.405.332.175.933.175.788 0 1.381-.384.592-.383.733-1.202l.204-1.329h-.085a7 7 0 0 1-.379.443q-.243.26-.652.464-.41.201-1.049.201-.796 0-1.363-.375t-.814-1.091q-.243-.716-.073-1.739.166-1.005.64-1.751.477-.75 1.176-1.159a2.94 2.94 0 0 1 1.525-.414q.64 0 .98.213.345.21.503.478.158.264.239.434h.102l.171-1.039h.971l-1.108 6.733q-.141.843-.609 1.372a2.75 2.75 0 0 1-1.151.779 4.2 4.2 0 0 1-1.461.252m.528-3.597a2.06 2.06 0 0 0 1.07-.277 2.2 2.2 0 0 0 .784-.797q.311-.52.43-1.244.12-.707-.017-1.248-.136-.542-.516-.848-.375-.307-.984-.307-.644 0-1.112.324-.465.323-.754.869a4 4 0 0 0-.401 1.21q-.111.683.009 1.206.119.52.485.818.371.294 1.006.294m4.551 1.006 1.091-6.545h1.006L412.584 423zm1.901-7.653a.7.7 0 0 1-.507-.201.64.64 0 0 1-.209-.481q0-.281.209-.482a.72.72 0 0 1 .507-.2q.293 0 .503.2a.64.64 0 0 1 .213.482.64.64 0 0 1-.213.481.7.7 0 0 1-.503.201m3.648 7.789q-.903 0-1.512-.43-.61-.43-.861-1.206-.247-.775-.081-1.807.162-1.005.643-1.751.486-.75 1.206-1.159a3.16 3.16 0 0 1 1.594-.414q.903 0 1.509.435.61.43.86 1.21.252.775.086 1.816-.163.996-.652 1.742-.486.743-1.206 1.155a3.14 3.14 0 0 1-1.586.409m.018-.903q.69 0 1.197-.354a2.7 2.7 0 0 0 .827-.933q.32-.58.43-1.253a3.4 3.4 0 0 0-.008-1.189q-.111-.554-.473-.89-.363-.341-1.019-.341-.69 0-1.206.358a2.7 2.7 0 0 0-.827.941q-.315.585-.421 1.258-.103.639.004 1.188.11.546.473.883.366.332 1.023.332m6.094-3.171-.647 3.938h-1.006l1.091-6.545h.971l-.17 1.022h.085a2.3 2.3 0 0 1 .831-.801q.524-.306 1.266-.307.656 0 1.108.273.456.269.643.818.192.546.056 1.381l-.699 4.159h-1.006l.682-4.091q.127-.767-.2-1.202-.325-.434-1.027-.434a1.96 1.96 0 0 0-.9.209 1.9 1.9 0 0 0-.694.609 2.4 2.4 0 0 0-.384.971m7.276 4.091q-.623 0-1.091-.234a1.53 1.53 0 0 1-.695-.686q-.226-.452-.124-1.091.098-.562.38-.912a2 2 0 0 1 .682-.554q.404-.204.869-.302.468-.103.933-.158.606-.077.984-.119.38-.043.572-.141a.44.44 0 0 0 .234-.337v-.034q.102-.626-.166-.976-.269-.353-.959-.353-.716 0-1.198.315-.481.315-.711.673l-.887-.341q.35-.596.836-.929a3.1 3.1 0 0 1 1.018-.468 4 4 0 0 1 1.027-.137q.315 0 .712.077.396.072.741.303.35.23.524.694.18.465.052 1.245l-.716 4.312h-1.006l.153-.886h-.051a2.4 2.4 0 0 1-1.121.869q-.422.17-.992.17m.289-.903a2.2 2.2 0 0 0 1.044-.234q.452-.235.725-.605.277-.372.345-.78l.153-.921q-.077.076-.302.141-.226.06-.512.106a21 21 0 0 1-.975.128q-.401.051-.763.166a1.6 1.6 0 0 0-.605.337 1 1 0 0 0-.303.605q-.09.525.252.793.34.264.941.264m7.018-7.977L436.373 423h-1.006l1.449-8.727zm.393 8.727 1.091-6.545h1.005l-1.09 6.545zm1.9-7.653a.7.7 0 0 1-.507-.201.64.64 0 0 1-.208-.481q0-.281.208-.482a.72.72 0 0 1 .507-.2q.294 0 .503.2a.64.64 0 0 1 .213.482.64.64 0 0 1-.213.481.7.7 0 0 1-.503.201m.76 7.653.136-.767 4.5-4.773.017-.068h-3.596l.153-.937h4.892l-.136.801-4.398 4.738-.017.068h3.733l-.153.938zm9.219.136q-.941 0-1.555-.417a2.2 2.2 0 0 1-.856-1.176q-.243-.759-.077-1.765t.66-1.772q.494-.772 1.232-1.202a3.13 3.13 0 0 1 2.604-.264q.473.17.818.554.345.38.481 1.005.137.627-.017 1.543l-.068.426h-5.045l.136-.869h4.023q.098-.554-.051-.989a1.32 1.32 0 0 0-.508-.686q-.357-.25-.907-.251-.567 0-1.057.307a2.8 2.8 0 0 0-.818.767 2.26 2.26 0 0 0-.409.937l-.12.75q-.127.815.039 1.296.17.481.592.694.422.209 1.057.209.404 0 .746-.111.34-.115.609-.341.269-.23.452-.571l.92.273a2.7 2.7 0 0 1-.66.869 3.1 3.1 0 0 1-.989.58 3.6 3.6 0 0 1-1.232.204m6.744 0q-.822 0-1.381-.413-.558-.417-.788-1.176-.226-.763-.055-1.803.174-1.031.652-1.789a3.5 3.5 0 0 1 1.18-1.172 2.94 2.94 0 0 1 1.526-.414q.639 0 .975.213.341.21.495.478.153.264.234.434h.085l.537-3.221h1.006L459.855 423h-.971l.17-1.006h-.119a8 8 0 0 1-.392.452q-.252.269-.665.482-.409.208-1.04.208m.247-.903q.605 0 1.083-.315.481-.32.801-.882.32-.567.443-1.309.123-.732-.009-1.282-.132-.555-.507-.861-.375-.312-.993-.311-.635 0-1.103.328-.47.324-.763.882a4 4 0 0 0-.409 1.244 3.6 3.6 0 0 0-.004 1.27q.11.567.468.904.363.332.993.332m8.254.767 1.449-8.727h1.057l-1.295 7.789h4.057l-.154.938zm9.316.136q-.904 0-1.513-.43t-.861-1.206q-.248-.775-.081-1.807.162-1.005.644-1.751.486-.75 1.206-1.159a3.16 3.16 0 0 1 1.593-.414q.904 0 1.509.435.609.43.861 1.21.251.775.085 1.816-.162.996-.652 1.742-.486.743-1.206 1.155a3.14 3.14 0 0 1-1.585.409m.017-.903q.69 0 1.197-.354a2.66 2.66 0 0 0 .827-.933q.32-.58.43-1.253a3.3 3.3 0 0 0-.008-1.189q-.111-.554-.473-.89-.363-.341-1.019-.341-.69 0-1.206.358-.51.357-.826.941-.315.585-.422 1.258-.102.639.004 1.188.111.546.473.883.366.332 1.023.332m6.35.92q-.621 0-1.091-.234a1.53 1.53 0 0 1-.694-.686q-.226-.452-.124-1.091.098-.562.38-.912.28-.354.681-.554.405-.204.87-.302.468-.103.933-.158.604-.077.984-.119.38-.043.571-.141a.44.44 0 0 0 .235-.337v-.034q.102-.626-.167-.976-.268-.353-.958-.353-.717 0-1.198.315t-.711.673l-.887-.341q.35-.596.835-.929.486-.336 1.019-.468a4 4 0 0 1 1.027-.137q.315 0 .712.077.396.072.741.303.35.23.524.694.18.465.051 1.245l-.716 4.312h-1.005l.153-.886h-.051a2.2 2.2 0 0 1-.418.456 2.4 2.4 0 0 1-.703.413q-.422.17-.993.17m.29-.903a2.2 2.2 0 0 0 1.044-.234 2.1 2.1 0 0 0 .725-.605q.276-.372.345-.78l.153-.921q-.077.076-.302.141-.226.06-.512.106a21 21 0 0 1-.976.128 4.4 4.4 0 0 0-.762.166 1.6 1.6 0 0 0-.605.337 1 1 0 0 0-.303.605q-.09.525.251.793.342.264.942.264m7.026.886q-.822 0-1.381-.413-.558-.417-.788-1.176-.226-.763-.055-1.803.174-1.031.652-1.789a3.5 3.5 0 0 1 1.18-1.172 2.94 2.94 0 0 1 1.526-.414q.639 0 .975.213.341.21.495.478.153.264.234.434h.085l.537-3.221h1.006L491.355 423h-.971l.17-1.006h-.119a8 8 0 0 1-.392.452q-.252.269-.665.482-.409.208-1.04.208m.247-.903q.605 0 1.083-.315.481-.32.801-.882.32-.567.443-1.309.123-.732-.009-1.282-.132-.555-.507-.861-.375-.312-.993-.311-.635 0-1.103.328-.47.324-.763.882a4 4 0 0 0-.409 1.244 3.6 3.6 0 0 0-.004 1.27q.11.567.468.904.363.332.993.332m8.254.767 1.449-8.727h3.051q.912 0 1.454.315.54.31.741.84.2.524.09 1.163-.094.563-.354.929a2 2 0 0 1-.614.579 2.8 2.8 0 0 1-.737.316l-.017.085q.392.026.754.281.363.256.558.733.197.478.086 1.168-.11.656-.499 1.18-.387.525-1.082.831-.695.307-1.726.307zm1.211-.938h2.096q1.036 0 1.539-.4.507-.405.609-.98a1.44 1.44 0 0 0-.098-.818 1.27 1.27 0 0 0-.541-.605q-.375-.231-.946-.231h-2.148zm.664-3.954h1.961q.477 0 .895-.188a1.9 1.9 0 0 0 .698-.528 1.6 1.6 0 0 0 .35-.801q.102-.576-.23-.976-.332-.405-1.202-.405h-1.994zm7.703 5.045q-.623 0-1.091-.234a1.53 1.53 0 0 1-.695-.686q-.225-.452-.123-1.091.098-.562.379-.912a2 2 0 0 1 .682-.554q.405-.204.869-.302a10 10 0 0 1 .933-.158q.606-.077.985-.119.38-.043.571-.141a.44.44 0 0 0 .234-.337v-.034q.102-.626-.166-.976-.269-.353-.959-.353-.715 0-1.197.315-.481.315-.712.673l-.886-.341q.35-.596.835-.929a3.1 3.1 0 0 1 1.018-.468 4 4 0 0 1 1.027-.137q.316 0 .712.077.396.072.742.303.349.23.524.694.179.465.051 1.245l-.716 4.312h-1.006l.154-.886h-.051a2.43 2.43 0 0 1-1.121.869q-.421.17-.993.17m.29-.903q.596 0 1.044-.234.451-.235.724-.605.277-.372.345-.78l.154-.921q-.077.076-.303.141-.225.06-.511.106a22 22 0 0 1-.976.128q-.4.051-.763.166-.357.11-.605.337a1 1 0 0 0-.303.605q-.089.525.252.793.34.264.942.264m7.017-7.977L512.275 423h-1.005l1.448-8.727zm2.302 8.88q-.621 0-1.091-.234a1.53 1.53 0 0 1-.694-.686q-.226-.452-.124-1.091.099-.562.379-.912a2 2 0 0 1 .682-.554q.405-.204.87-.302.468-.103.933-.158.604-.077.984-.119.38-.043.571-.141a.44.44 0 0 0 .235-.337v-.034q.102-.626-.167-.976-.268-.353-.958-.353-.717 0-1.198.315t-.711.673l-.887-.341q.35-.596.835-.929.486-.336 1.019-.468a4 4 0 0 1 1.027-.137q.315 0 .711.077.397.072.742.303.35.23.524.694.178.465.051 1.245l-.716 4.312h-1.005l.153-.886h-.051a2.2 2.2 0 0 1-.418.456 2.4 2.4 0 0 1-.703.413q-.421.17-.993.17m.29-.903a2.2 2.2 0 0 0 1.044-.234 2.1 2.1 0 0 0 .725-.605q.276-.372.345-.78l.153-.921q-.077.076-.302.141-.226.06-.512.106a21 21 0 0 1-.976.128 4.4 4.4 0 0 0-.762.166 1.6 1.6 0 0 0-.606.337 1 1 0 0 0-.302.605q-.09.525.251.793.341.264.942.264m6.216-3.188-.647 3.938h-1.006l1.091-6.545h.971l-.17 1.022h.085a2.3 2.3 0 0 1 .831-.801q.524-.306 1.266-.307.656 0 1.108.273.456.269.643.818.192.546.056 1.381l-.699 4.159h-1.006l.682-4.091q.127-.767-.2-1.202-.324-.434-1.027-.434a1.96 1.96 0 0 0-.9.209 1.9 1.9 0 0 0-.694.609 2.4 2.4 0 0 0-.384.971m8.008 4.074q-.924 0-1.517-.434-.587-.435-.818-1.198t-.068-1.743a4.55 4.55 0 0 1 .656-1.76q.495-.767 1.232-1.197a3.14 3.14 0 0 1 1.623-.435q.691 0 1.202.256.512.255.788.716.278.46.26 1.074h-1.005a1.28 1.28 0 0 0-.384-.793q-.337-.35-.997-.349-.588 0-1.082.307-.495.302-.831.856a3.5 3.5 0 0 0-.456 1.291q-.128.759.021 1.321t.541.874q.392.31.989.311.392 0 .733-.136a1.86 1.86 0 0 0 1.023-1.006h1.005a2.9 2.9 0 0 1-.601 1.044 3.05 3.05 0 0 1-1.001.733q-.588.268-1.313.268m6.789 0q-.942 0-1.556-.417a2.2 2.2 0 0 1-.856-1.176q-.243-.759-.077-1.765t.661-1.772q.494-.772 1.231-1.202a3.13 3.13 0 0 1 1.62-.435q.51 0 .984.171.473.17.818.554.345.38.482 1.005.136.627-.017 1.543l-.069.426h-5.045l.136-.869h4.023q.098-.554-.051-.989a1.32 1.32 0 0 0-.507-.686q-.358-.25-.908-.251-.567 0-1.057.307a2.8 2.8 0 0 0-.818.767 2.26 2.26 0 0 0-.409.937l-.119.75q-.128.815.038 1.296.17.481.592.694.423.209 1.057.209.405 0 .746-.111.34-.115.609-.341.269-.23.452-.571l.921.273a2.7 2.7 0 0 1-.661.869 3.1 3.1 0 0 1-.989.58 3.6 3.6 0 0 1-1.231.204m4.28-.136 1.091-6.545h.972l-.171.988h.069q.255-.486.779-.788.525-.303 1.113-.303a11 11 0 0 1 .528.017l-.17 1.023a3 3 0 0 0-.231-.038 2.3 2.3 0 0 0-.383-.03 1.97 1.97 0 0 0-1.56.746q-.273.345-.349.788l-.682 4.142z"/><path fill="#fff" stroke="#F6821F" stroke-width="2" d="M297 147.857h340V403H297z"/><path fill="#fff" d="M369.286 134h195.429v16.531H369.286z"/><path fill="#222" d="M395.206 150.801q-1.01 0-1.738-.409a2.8 2.8 0 0 1-1.117-1.167q-.392-.759-.392-1.794 0-1.011.392-1.773.393-.763 1.104-1.189.716-.426 1.679-.426.648 0 1.206.209.563.204.98.617.422.414.656 1.04.235.623.235 1.458v.498h-5.527v-1.125h3.818q0-.392-.171-.694a1.2 1.2 0 0 0-.473-.473 1.34 1.34 0 0 0-.694-.175q-.414 0-.733.192-.315.188-.494.507-.18.315-.184.703v1.069q0 .486.179.84a1.3 1.3 0 0 0 .516.545q.332.192.788.192.303 0 .554-.085t.431-.256q.179-.17.272-.417l1.679.11a2.3 2.3 0 0 1-.524 1.057 2.6 2.6 0 0 1-1.014.699q-.618.247-1.428.247m8.387-2.914v-3.759h1.815v6.545h-1.743v-1.188h-.068a1.93 1.93 0 0 1-.737.924q-.511.35-1.249.35-.656 0-1.155-.299a2.04 2.04 0 0 1-.779-.848q-.278-.55-.282-1.316v-4.168h1.816v3.844q.004.58.311.916.306.336.822.337a1.3 1.3 0 0 0 .614-.15q.285-.153.46-.451.179-.299.175-.737m7.345-1.518v1.441h-3.98v-1.441zm3.363-4.423v8.727h-1.816v-8.727zm1.488 8.727v-8.727h1.815v3.281h.056q.118-.264.345-.536.23-.278.596-.461.37-.187.921-.187.715 0 1.321.375.605.37.967 1.121.363.745.362 1.87 0 1.095-.353 1.85-.35.75-.955 1.137-.6.384-1.346.384-.529 0-.9-.175a1.9 1.9 0 0 1-.6-.439 2.2 2.2 0 0 1-.358-.541h-.081v1.048zm1.777-3.272q0 .583.162 1.018t.468.678q.308.238.746.238.444 0 .75-.243.308-.247.465-.681.162-.44.162-1.01 0-.567-.158-.997a1.5 1.5 0 0 0-.465-.674 1.17 1.17 0 0 0-.754-.243q-.442 0-.75.235a1.47 1.47 0 0 0-.464.665 2.9 2.9 0 0 0-.162 1.014m6.879 3.383a1 1 0 0 1-.725-.298 1 1 0 0 1-.298-.724q0-.419.298-.716a1 1 0 0 1 .725-.299q.408 0 .716.299a.96.96 0 0 1 .306.716.96.96 0 0 1-.144.515 1.1 1.1 0 0 1-.371.371 1 1 0 0 1-.507.136m2.513-.111v-6.545h1.73v1.155h.077q.204-.576.681-.908t1.143-.332q.672 0 1.146.336.472.333.631.904h.068q.2-.563.724-.899.528-.342 1.249-.341.916 0 1.487.584.575.579.575 1.644v4.402h-1.811v-4.044q0-.545-.29-.818a1 1 0 0 0-.724-.272q-.495 0-.771.315-.277.31-.277.822v3.997h-1.76v-4.082q0-.482-.277-.767-.273-.285-.72-.285-.303 0-.546.153-.238.149-.379.422a1.34 1.34 0 0 0-.141.63v3.929zm11.832 2.455q-.346 0-.648-.055a2.4 2.4 0 0 1-.495-.132l.41-1.356q.319.099.575.107a.73.73 0 0 0 .447-.119q.192-.129.311-.435l.107-.277-2.348-6.733h1.909l1.355 4.807h.068l1.368-4.807h1.922l-2.544 7.253a3 3 0 0 1-.499.92q-.31.397-.788.61-.478.217-1.15.217m7.601-2.331q-.627 0-1.117-.217a1.8 1.8 0 0 1-.775-.652q-.282-.435-.282-1.083 0-.545.201-.916.2-.37.545-.596.346-.227.784-.341.443-.115.929-.162.571-.06.921-.111.35-.055.507-.162a.36.36 0 0 0 .157-.315v-.026q0-.405-.255-.626-.251-.222-.716-.222-.49 0-.78.217a1 1 0 0 0-.383.537l-1.679-.136q.127-.597.502-1.031a2.4 2.4 0 0 1 .968-.674q.596-.238 1.38-.238.546 0 1.044.128.504.127.891.396.392.269.618.69.226.418.226 1.002v4.414h-1.722v-.907h-.051a1.9 1.9 0 0 1-.422.541 2 2 0 0 1-.635.362 2.6 2.6 0 0 1-.856.128m.52-1.253q.4 0 .707-.157.307-.162.482-.435.174-.273.174-.618v-.695a1 1 0 0 1-.234.103 5 5 0 0 1-.695.145l-.332.046a2.2 2.2 0 0 0-.558.15.9.9 0 0 0-.371.277.67.67 0 0 0-.132.426q0 .37.268.566.273.192.691.192m4.574 3.584v-9h1.79v1.099h.081q.12-.264.345-.536.23-.278.597-.461.37-.187.92-.187.716 0 1.321.375.606.37.967 1.121.363.745.363 1.87 0 1.095-.354 1.85-.35.75-.955 1.137-.6.384-1.346.384-.528 0-.899-.175a1.85 1.85 0 0 1-.601-.439 2.2 2.2 0 0 1-.358-.541h-.055v3.503zm1.777-5.727q0 .583.162 1.018t.469.678q.306.238.746.238.443 0 .75-.243.306-.247.464-.681.162-.44.162-1.01 0-.567-.158-.997a1.5 1.5 0 0 0-.464-.674 1.18 1.18 0 0 0-.754-.243q-.444 0-.75.235a1.47 1.47 0 0 0-.465.665 2.9 2.9 0 0 0-.162 1.014m5.817 5.727v-9h1.79v1.099h.081q.118-.264.345-.536.23-.278.596-.461.371-.187.921-.187.716 0 1.321.375.605.37.967 1.121.363.745.362 1.87 0 1.095-.353 1.85-.35.75-.955 1.137-.6.384-1.346.384-.529 0-.9-.175a1.9 1.9 0 0 1-.6-.439 2.2 2.2 0 0 1-.358-.541h-.056v3.503zm1.777-5.727q0 .583.162 1.018t.469.678q.306.238.745.238.444 0 .75-.243.308-.247.465-.681.162-.44.162-1.01 0-.567-.158-.997a1.5 1.5 0 0 0-.464-.674 1.18 1.18 0 0 0-.755-.243q-.442 0-.75.235a1.47 1.47 0 0 0-.464.665 2.9 2.9 0 0 0-.162 1.014m8.8 3.4q-1.01 0-1.739-.409a2.8 2.8 0 0 1-1.116-1.167q-.393-.759-.393-1.794 0-1.011.393-1.773a2.9 2.9 0 0 1 1.103-1.189q.716-.426 1.679-.426.648 0 1.206.209.563.204.98.617.422.414.657 1.04.234.623.234 1.458v.498h-5.527v-1.125h3.818q0-.392-.17-.694a1.2 1.2 0 0 0-.473-.473 1.35 1.35 0 0 0-.695-.175q-.414 0-.733.192-.315.188-.494.507-.18.315-.183.703v1.069q0 .486.178.84.185.354.516.545.333.192.788.192.303 0 .554-.085t.431-.256a1.1 1.1 0 0 0 .273-.417l1.679.11a2.3 2.3 0 0 1-.525 1.057 2.6 2.6 0 0 1-1.014.699q-.618.247-1.427.247m5.588-6.673 1.202 2.288 1.232-2.288h1.862l-1.896 3.273 1.947 3.272h-1.854l-1.291-2.262-1.27 2.262h-1.875l1.943-3.272-1.875-3.273zm7.205 6.669q-.626 0-1.116-.217a1.8 1.8 0 0 1-.776-.652q-.28-.435-.281-1.083 0-.545.2-.916.201-.37.546-.596a2.6 2.6 0 0 1 .784-.341q.443-.115.929-.162.571-.06.92-.111.35-.055.507-.162a.35.35 0 0 0 .158-.315v-.026q0-.405-.256-.626-.25-.222-.716-.222-.49 0-.779.217a1 1 0 0 0-.384.537l-1.679-.136q.128-.597.503-1.031.375-.439.967-.674.597-.238 1.381-.238.546 0 1.044.128.502.127.891.396.392.269.618.69.225.418.225 1.002v4.414h-1.721v-.907h-.051a1.9 1.9 0 0 1-.422.541 2 2 0 0 1-.635.362 2.6 2.6 0 0 1-.857.128m.52-1.253q.4 0 .708-.157.307-.162.481-.435.175-.273.175-.618v-.695a1 1 0 0 1-.235.103 5 5 0 0 1-.328.081q-.183.034-.366.064l-.333.046a2.2 2.2 0 0 0-.558.15.9.9 0 0 0-.37.277.67.67 0 0 0-.133.426q0 .37.269.566.273.192.69.192m4.575 1.129v-6.545h1.73v1.155h.077q.204-.576.681-.908t1.142-.332q.673 0 1.147.336.472.333.63.904h.069q.2-.563.724-.899.529-.342 1.249-.341.915 0 1.487.584.575.579.575 1.644v4.402h-1.811v-4.044q0-.545-.29-.818a1 1 0 0 0-.724-.272q-.495 0-.771.315-.277.31-.277.822v3.997h-1.76v-4.082q0-.482-.277-.767-.273-.285-.721-.285-.302 0-.545.153-.239.149-.379.422a1.34 1.34 0 0 0-.141.63v3.929zm10.945 2.455v-9h1.79v1.099h.081q.118-.264.345-.536.23-.278.597-.461.37-.187.92-.187.716 0 1.321.375.605.37.967 1.121.363.745.363 1.87 0 1.095-.354 1.85-.35.75-.955 1.137-.6.384-1.346.384-.528 0-.899-.175a1.85 1.85 0 0 1-.601-.439 2.2 2.2 0 0 1-.358-.541h-.056v3.503zm1.777-5.727q0 .583.162 1.018t.469.678q.306.238.746.238.442 0 .75-.243.306-.247.464-.681.162-.44.162-1.01 0-.567-.158-.997a1.5 1.5 0 0 0-.464-.674 1.18 1.18 0 0 0-.754-.243q-.444 0-.75.235a1.47 1.47 0 0 0-.465.665 2.9 2.9 0 0 0-.162 1.014m7.632-5.455v8.727h-1.815v-8.727zm4.437 8.855q-1.01 0-1.738-.409a2.8 2.8 0 0 1-1.117-1.167q-.392-.759-.392-1.794 0-1.011.392-1.773a2.9 2.9 0 0 1 1.104-1.189q.716-.426 1.679-.426.648 0 1.206.209.563.204.98.617.422.414.656 1.04.234.623.235 1.458v.498h-5.527v-1.125h3.818q0-.392-.171-.694a1.2 1.2 0 0 0-.473-.473 1.34 1.34 0 0 0-.694-.175q-.414 0-.733.192-.315.188-.495.507-.179.315-.183.703v1.069q0 .486.179.84a1.3 1.3 0 0 0 .516.545q.332.192.788.192.303 0 .554-.085t.431-.256q.179-.17.272-.417l1.679.11a2.3 2.3 0 0 1-.524 1.057 2.6 2.6 0 0 1-1.014.699q-.618.247-1.428.247m5.25-.017a1 1 0 0 1-.724-.298 1 1 0 0 1-.298-.724q0-.419.298-.716a1 1 0 0 1 .724-.299q.41 0 .716.299a.96.96 0 0 1 .307.716.96.96 0 0 1-.145.515 1.1 1.1 0 0 1-.371.371.97.97 0 0 1-.507.136m5.471.017q-1.006 0-1.73-.426a2.9 2.9 0 0 1-1.108-1.193q-.384-.763-.384-1.756 0-1.005.388-1.764a2.9 2.9 0 0 1 1.112-1.189q.72-.43 1.713-.43.857 0 1.5.311.644.31 1.019.873t.413 1.321h-1.713a1.32 1.32 0 0 0-.383-.788q-.307-.302-.806-.302-.422 0-.737.23-.31.225-.486.66-.174.435-.175 1.053 0 .625.171 1.065.174.44.49.669.315.23.737.23.312 0 .558-.128.252-.127.414-.37a1.4 1.4 0 0 0 .217-.593h1.713a2.7 2.7 0 0 1-.409 1.321 2.47 2.47 0 0 1-1.001.887q-.64.32-1.513.319m7.043 0q-.993 0-1.718-.422a2.9 2.9 0 0 1-1.112-1.184q-.392-.763-.392-1.769 0-1.014.392-1.772a2.85 2.85 0 0 1 1.112-1.185q.725-.426 1.718-.426t1.713.426q.725.421 1.116 1.185.392.758.392 1.772 0 1.006-.392 1.769-.391.758-1.116 1.184-.72.423-1.713.422m.008-1.406q.452 0 .755-.256.301-.26.456-.707.157-.448.157-1.018 0-.572-.157-1.019a1.6 1.6 0 0 0-.456-.707 1.12 1.12 0 0 0-.755-.26q-.455 0-.767.26a1.6 1.6 0 0 0-.464.707 3.1 3.1 0 0 0-.154 1.019q0 .57.154 1.018a1.6 1.6 0 0 0 .464.707q.312.256.767.256m4.394 1.278v-6.545h1.73v1.155h.077q.204-.576.681-.908t1.142-.332q.673 0 1.147.336.473.333.63.904h.069q.2-.563.724-.899.529-.342 1.249-.341.915 0 1.487.584.575.579.575 1.644v4.402h-1.811v-4.044q0-.545-.29-.818a1 1 0 0 0-.724-.272q-.495 0-.771.315-.277.31-.277.822v3.997h-1.76v-4.082q0-.482-.277-.767-.273-.285-.721-.285-.302 0-.545.153-.238.149-.379.422a1.34 1.34 0 0 0-.141.63v3.929z"/><path fill="#E0ECFF" stroke="#3E74FF" stroke-dasharray="10 10" stroke-width="2" d="M331 188h272v79H331z"/><path fill="#222" d="M338.778 175.636q0 1.428-.541 2.429-.536 1.002-1.466 1.53-.924.524-2.079.524-1.164 0-2.088-.528t-1.462-1.53-.537-2.425q0-1.427.537-2.429t1.462-1.525q.924-.529 2.088-.529 1.155 0 2.079.529.93.524 1.466 1.525.541 1.002.541 2.429m-1.87 0q0-.924-.277-1.559-.273-.636-.772-.963-.498-.328-1.167-.328t-1.168.328q-.499.327-.775.963-.273.635-.273 1.559 0 .925.273 1.56.277.634.775.963.5.328 1.168.328.669 0 1.167-.328.5-.329.772-.963.277-.635.277-1.56m3.203 4.364v-6.545h1.76v1.142h.068q.18-.61.601-.921a1.58 1.58 0 0 1 .972-.315 2.6 2.6 0 0 1 .571.064v1.611a3.2 3.2 0 0 0-.767-.098q-.4 0-.716.174a1.3 1.3 0 0 0-.495.477 1.4 1.4 0 0 0-.179.708V180zm4.91 0v-6.545h1.816V180zm.912-7.389a1 1 0 0 1-.694-.269.87.87 0 0 1-.286-.652.85.85 0 0 1 .286-.643.98.98 0 0 1 .694-.273q.405 0 .691.273a.85.85 0 0 1 .289.643.86.86 0 0 1-.289.652.97.97 0 0 1-.691.269m5.307 9.98q-.883 0-1.513-.243-.627-.238-.997-.652a2 2 0 0 1-.482-.929l1.679-.226q.077.196.243.367t.439.272q.277.107.673.107.592 0 .976-.29.388-.285.388-.959v-1.197h-.077a1.7 1.7 0 0 1-.358.516 1.8 1.8 0 0 1-.613.396q-.375.153-.895.153-.738 0-1.343-.341-.6-.345-.958-1.052-.354-.712-.354-1.799 0-1.112.362-1.857.363-.747.963-1.117a2.5 2.5 0 0 1 1.326-.371q.55 0 .92.188.37.183.597.46.23.273.353.537h.068v-1.099h1.803v6.609q0 .835-.409 1.398-.41.563-1.134.843-.72.286-1.657.286m.038-4.048q.44 0 .742-.218a1.4 1.4 0 0 0 .468-.63q.166-.414.166-.989 0-.576-.161-.997a1.47 1.47 0 0 0-.469-.661 1.2 1.2 0 0 0-.746-.234q-.447 0-.754.243a1.45 1.45 0 0 0-.465.665 2.8 2.8 0 0 0-.157.984q0 .567.157.98.162.409.465.635.307.222.754.222m4.607 1.457v-6.545h1.815V180zm.912-7.389a1 1 0 0 1-.695-.269.87.87 0 0 1-.286-.652q0-.375.286-.643a.98.98 0 0 1 .695-.273q.404 0 .69.273.29.268.29.643a.86.86 0 0 1-.29.652.97.97 0 0 1-.69.269m4.172 3.605V180h-1.815v-6.545h1.73v1.154h.077a1.83 1.83 0 0 1 .729-.903q.511-.337 1.24-.337.681 0 1.189.299.507.298.788.852.28.55.281 1.312V180h-1.815v-3.844q.004-.6-.307-.937-.311-.341-.856-.341a1.3 1.3 0 0 0-.648.158q-.277.157-.435.46a1.6 1.6 0 0 0-.158.72M369.43 180v-8.727h3.444q.992 0 1.691.379.699.375 1.066 1.044.37.665.37 1.534 0 .87-.375 1.534-.375.665-1.086 1.036-.708.37-1.713.37h-2.195v-1.478h1.896q.534 0 .878-.183a1.2 1.2 0 0 0 .52-.516 1.6 1.6 0 0 0 .175-.763q0-.435-.175-.758a1.17 1.17 0 0 0-.52-.508q-.35-.183-.886-.183h-1.244V180zm10.588.128q-.993 0-1.718-.422a2.9 2.9 0 0 1-1.112-1.185q-.392-.763-.392-1.768 0-1.014.392-1.773a2.87 2.87 0 0 1 1.112-1.185q.725-.426 1.718-.426t1.713.426a2.85 2.85 0 0 1 1.116 1.185q.392.759.392 1.773 0 1.005-.392 1.768a2.87 2.87 0 0 1-1.116 1.185q-.72.422-1.713.422m.008-1.406q.452 0 .755-.256.302-.26.456-.707.157-.448.157-1.019t-.157-1.018a1.6 1.6 0 0 0-.456-.708 1.12 1.12 0 0 0-.755-.26q-.456 0-.767.26a1.6 1.6 0 0 0-.464.708 3.1 3.1 0 0 0-.154 1.018q0 .571.154 1.019a1.6 1.6 0 0 0 .464.707q.312.256.767.256m7.351 1.406q-.993 0-1.717-.422a2.9 2.9 0 0 1-1.112-1.185q-.392-.763-.392-1.768 0-1.014.392-1.773a2.86 2.86 0 0 1 1.112-1.185q.724-.426 1.717-.426t1.713.426q.724.423 1.117 1.185.392.759.392 1.773 0 1.005-.392 1.768a2.9 2.9 0 0 1-1.117 1.185q-.72.422-1.713.422m.009-1.406q.451 0 .754-.256a1.6 1.6 0 0 0 .456-.707q.158-.448.158-1.019t-.158-1.018a1.6 1.6 0 0 0-.456-.708 1.12 1.12 0 0 0-.754-.26q-.456 0-.767.26-.308.26-.465.708a3.1 3.1 0 0 0-.153 1.018q0 .571.153 1.019.158.447.465.707.31.256.767.256m6.208-7.449V180h-1.815v-8.727zm8.012 0V180h-1.845v-6.976h-.051l-1.999 1.253v-1.636l2.16-1.368z"/><path stroke="#D9D9D9" stroke-dasharray="10 10" stroke-width="2" d="M343 209h248v38H343z"/><path fill="#222" d="M374.698 227.268q0 1.427-.541 2.429a3.75 3.75 0 0 1-1.466 1.53q-.924.524-2.079.524-1.164 0-2.088-.528-.925-.53-1.462-1.53-.537-1.002-.537-2.425 0-1.428.537-2.429.537-1.002 1.462-1.526.924-.528 2.088-.528 1.155 0 2.079.528.93.524 1.466 1.526.541 1.001.541 2.429m-1.87 0q0-.925-.277-1.56-.273-.634-.772-.963-.498-.328-1.167-.328-.67 0-1.168.328-.499.329-.775.963-.273.635-.273 1.56 0 .924.273 1.56.276.635.775.963.498.327 1.168.328.669 0 1.167-.328.5-.328.772-.963.276-.636.277-1.56m3.237 4.364v-8.728h3.443q.989 0 1.688.354.703.35 1.069.993.371.639.371 1.504 0 .87-.375 1.496-.375.623-1.086.954-.708.333-1.714.333h-2.305v-1.483h2.007q.528 0 .878-.145t.52-.435q.175-.29.175-.72 0-.435-.175-.733a1.07 1.07 0 0 0-.524-.451q-.35-.159-.882-.158h-1.245v7.219zm4.713-3.972 2.169 3.972h-2.037l-2.122-3.972zm5.007-4.756v8.728h-1.845v-8.728zm7.305 2.821a1.9 1.9 0 0 0-.251-.549 1.7 1.7 0 0 0-.925-.669 2.2 2.2 0 0 0-.652-.09 2.1 2.1 0 0 0-1.176.332q-.502.333-.784.968-.28.63-.281 1.542 0 .912.277 1.552.277.639.784.975.507.333 1.197.333.627 0 1.07-.222a1.6 1.6 0 0 0 .682-.635q.238-.409.238-.967l.375.055h-2.25v-1.389h3.652v1.1q0 1.15-.485 1.977-.486.822-1.339 1.27-.852.443-1.951.443-1.227 0-2.156-.541a3.75 3.75 0 0 1-1.449-1.547q-.516-1.006-.516-2.387 0-1.06.307-1.892a4 4 0 0 1 .869-1.414 3.7 3.7 0 0 1 1.3-.882 4.2 4.2 0 0 1 1.606-.303q.742 0 1.381.217.639.213 1.134.605.498.393.814.934.315.537.404 1.184zm5.188-2.821v8.728h-1.846v-8.728zm8.817 0v8.728h-1.593l-3.797-5.493h-.064v5.493h-1.845v-8.728h1.619l3.767 5.489h.077v-5.489zm2.552 7.713a1 1 0 0 1-.725-.298 1 1 0 0 1-.298-.724q0-.418.298-.716a1 1 0 0 1 .725-.299q.409 0 .716.299a.97.97 0 0 1 .307.716.97.97 0 0 1-.145.515 1.1 1.1 0 0 1-.371.371 1 1 0 0 1-.507.136m0-4.282a1 1 0 0 1-.725-.299 1 1 0 0 1-.298-.724q0-.417.298-.712a1 1 0 0 1 .725-.298q.409 0 .716.298a.95.95 0 0 1 .307.712q0 .286-.145.52a1.1 1.1 0 0 1-.371.366 1 1 0 0 1-.507.137m5.644 1.738v-1.5l6-2.642v1.726l-4.108 1.649.055-.089v.213l-.055-.09 4.108 1.65v1.725zm13.227-5.169h1.845v5.668q0 .954-.456 1.67-.452.717-1.265 1.117-.815.396-1.896.396-1.087 0-1.901-.396a3.05 3.05 0 0 1-1.266-1.117q-.451-.716-.451-1.67v-5.668h1.845v5.51q0 .499.217.887.222.387.622.609t.934.222q.537 0 .933-.222a1.56 1.56 0 0 0 .618-.609q.22-.388.221-.887zm8.754 0h1.845v5.668q0 .954-.456 1.67-.452.717-1.265 1.117-.814.396-1.897.396-1.086 0-1.9-.396a3.04 3.04 0 0 1-1.266-1.117q-.451-.716-.451-1.67v-5.668h1.845v5.51q0 .499.217.887.222.387.622.609t.933.222q.538 0 .934-.222a1.56 1.56 0 0 0 .618-.609q.22-.388.221-.887zm5.209 0v8.728h-1.846v-8.728zm4.612 8.728h-3.094v-8.728h3.119q1.317 0 2.267.524a3.54 3.54 0 0 1 1.462 1.496q.515.976.515 2.335 0 1.365-.515 2.344a3.54 3.54 0 0 1-1.47 1.504q-.955.525-2.284.525m-1.249-1.581h1.172q.818 0 1.376-.29.562-.294.844-.908.285-.618.285-1.594 0-.966-.285-1.581a1.85 1.85 0 0 0-.84-.903q-.557-.29-1.376-.29h-1.176zm13.205-1.978-6 2.642v-1.725l4.108-1.65-.056.09v-.213l.056.089-4.108-1.649v-1.726l6 2.642zm2.863 3.669a1 1 0 0 1-.724-.298 1 1 0 0 1-.298-.724q0-.418.298-.716a1 1 0 0 1 .724-.299q.41 0 .716.299a.96.96 0 0 1 .307.716.96.96 0 0 1-.145.515 1.1 1.1 0 0 1-.37.371 1 1 0 0 1-.508.136m5.471.017q-1.005 0-1.73-.426a2.9 2.9 0 0 1-1.108-1.193q-.384-.763-.384-1.756 0-1.005.388-1.764a2.9 2.9 0 0 1 1.112-1.189q.721-.43 1.713-.43.856 0 1.5.311t1.019.874.413 1.321h-1.713q-.072-.49-.383-.789-.307-.302-.806-.302-.422 0-.737.23-.31.226-.486.66-.174.435-.174 1.053 0 .626.17 1.065.175.44.49.669t.737.23q.312 0 .559-.127.25-.129.413-.371.166-.247.217-.593h1.713a2.67 2.67 0 0 1-.409 1.321 2.47 2.47 0 0 1-1.001.887q-.64.32-1.513.319m7.605-6.673v1.364h-4.039v-1.364zm-3.115 6.546v-7.019q0-.712.277-1.18.282-.47.767-.703a2.5 2.5 0 0 1 1.104-.235q.418 0 .763.064.35.064.52.115l-.324 1.364a2 2 0 0 0-.264-.064 1.7 1.7 0 0 0-.316-.03q-.4 0-.558.188-.158.183-.158.515v6.985zm5.857.123q-.627 0-1.117-.217a1.8 1.8 0 0 1-.775-.652q-.282-.435-.282-1.083 0-.545.201-.916.2-.37.545-.596.346-.227.784-.341.443-.115.929-.162.572-.06.921-.111.35-.056.507-.162a.36.36 0 0 0 .157-.315v-.026q0-.405-.255-.626-.252-.222-.716-.222-.49 0-.78.218a1 1 0 0 0-.384.536l-1.679-.136q.128-.597.503-1.031.375-.44.968-.673.596-.24 1.38-.239.546 0 1.044.128.503.128.891.396.391.269.618.69.226.418.226 1.002v4.415h-1.722v-.908h-.051a1.9 1.9 0 0 1-.422.541 1.9 1.9 0 0 1-.635.362 2.6 2.6 0 0 1-.856.128m.519-1.253q.401 0 .708-.157.306-.162.481-.435t.175-.618v-.694a1 1 0 0 1-.234.102 5 5 0 0 1-.328.081q-.184.034-.367.064l-.332.047a2.2 2.2 0 0 0-.558.149.9.9 0 0 0-.371.277.67.67 0 0 0-.132.426q0 .37.268.567.273.19.69.191m4.575 1.13v-6.546h1.76v1.142h.068q.179-.61.601-.92a1.58 1.58 0 0 1 .972-.316q.137 0 .294.017t.277.047v1.611a2.5 2.5 0 0 0-.354-.068 3 3 0 0 0-.413-.03q-.4 0-.716.175a1.3 1.3 0 0 0-.495.477q-.179.307-.179.707v3.704zm7.554 2.591q-.882 0-1.512-.243-.626-.239-.998-.652a2 2 0 0 1-.481-.929l1.679-.226q.077.196.243.366.166.171.439.273.276.107.673.107.592 0 .976-.29.387-.286.388-.959v-1.197h-.077a1.74 1.74 0 0 1-.972.911q-.375.154-.895.154-.736 0-1.342-.341-.6-.345-.959-1.053-.353-.71-.353-1.798 0-1.112.362-1.858.362-.745.963-1.116a2.5 2.5 0 0 1 1.325-.371q.55 0 .921.187.37.184.596.461.231.272.354.537h.068v-1.1h1.803v6.61q0 .834-.409 1.397-.41.562-1.134.844-.72.286-1.658.286m.039-4.049q.438 0 .741-.217.307-.222.469-.631.166-.413.166-.988t-.162-.998a1.45 1.45 0 0 0-.469-.66 1.2 1.2 0 0 0-.745-.234q-.448 0-.755.242-.306.24-.464.665a2.8 2.8 0 0 0-.158.985q0 .566.158.98.162.408.464.635.307.22.755.221m7.564 1.585q-.993 0-1.718-.421a2.9 2.9 0 0 1-1.112-1.185q-.392-.763-.392-1.769 0-1.014.392-1.772a2.85 2.85 0 0 1 1.112-1.185q.725-.426 1.718-.426t1.713.426q.725.422 1.116 1.185.392.758.392 1.772 0 1.006-.392 1.769a2.9 2.9 0 0 1-1.116 1.185q-.72.421-1.713.421m.008-1.406q.452 0 .754-.255.303-.261.456-.708a3 3 0 0 0 .158-1.018q0-.572-.158-1.019a1.6 1.6 0 0 0-.456-.707 1.12 1.12 0 0 0-.754-.26q-.455 0-.767.26a1.6 1.6 0 0 0-.464.707 3.1 3.1 0 0 0-.154 1.019q0 .57.154 1.018.158.447.464.708.312.255.767.255m7.875-5.267v1.364h-3.942v-1.364zm-3.047-1.568h1.816v6.102q0 .252.076.392a.42.42 0 0 0 .213.192.9.9 0 0 0 .324.055q.128 0 .256-.021l.196-.038.285 1.351q-.135.042-.383.098a3 3 0 0 1-.601.072q-.656.026-1.15-.175a1.6 1.6 0 0 1-.763-.622q-.273-.422-.269-1.065zm8.427 5.327v-3.759h1.815v6.546h-1.742v-1.189h-.069a1.93 1.93 0 0 1-.737.924q-.512.35-1.248.35-.657 0-1.155-.298a2.05 2.05 0 0 1-.78-.848q-.277-.55-.281-1.317v-4.168h1.815v3.844q.005.58.311.916.307.337.823.337.328 0 .613-.149.286-.154.46-.452.18-.299.175-.737m5.083-.997v3.784h-1.815v-6.546h1.73v1.155h.076q.217-.571.729-.903.511-.337 1.24-.337.682 0 1.189.298.507.299.788.852.282.55.282 1.313v4.168h-1.816v-3.844q.005-.601-.307-.938-.31-.34-.856-.341-.366 0-.648.158a1.1 1.1 0 0 0-.434.46 1.6 1.6 0 0 0-.158.721m7.465 0v3.784h-1.816v-6.546h1.73v1.155h.077q.218-.571.729-.903.511-.337 1.24-.337.681 0 1.189.298.507.299.788.852.282.55.281 1.313v4.168h-1.815v-3.844q.005-.601-.307-.938-.311-.34-.856-.341-.367 0-.648.158a1.1 1.1 0 0 0-.435.46 1.6 1.6 0 0 0-.157.721m8.632 3.911q-1.01 0-1.738-.409a2.8 2.8 0 0 1-1.117-1.167q-.392-.759-.392-1.794 0-1.011.392-1.773a2.9 2.9 0 0 1 1.104-1.189q.716-.426 1.679-.426.648 0 1.206.209.562.204.98.618.422.413.656 1.039.234.623.234 1.458v.498h-5.527v-1.125h3.819q0-.392-.171-.694a1.2 1.2 0 0 0-.473-.473 1.34 1.34 0 0 0-.694-.175q-.414 0-.733.192a1.35 1.35 0 0 0-.495.507q-.178.315-.183.703v1.07q0 .485.179.839.183.354.516.546.332.19.788.191.303 0 .554-.085a1.14 1.14 0 0 0 .43-.256 1.1 1.1 0 0 0 .273-.417l1.679.111a2.3 2.3 0 0 1-.524 1.056 2.6 2.6 0 0 1-1.014.699q-.618.247-1.428.247m6.004-8.855v8.728h-1.815v-8.728zm2.516 8.838a1 1 0 0 1-.725-.298 1 1 0 0 1-.298-.724q0-.418.298-.716a1 1 0 0 1 .725-.299q.408 0 .716.299a.96.96 0 0 1 .306.716.96.96 0 0 1-.144.515 1.1 1.1 0 0 1-.371.371 1 1 0 0 1-.507.136m5.47.017q-1.005 0-1.73-.426a2.9 2.9 0 0 1-1.108-1.193q-.384-.763-.383-1.756 0-1.005.387-1.764a2.9 2.9 0 0 1 1.113-1.189q.72-.43 1.713-.43.857 0 1.5.311t1.018.874.414 1.321h-1.714q-.072-.49-.383-.789-.307-.302-.805-.302-.422 0-.738.23-.31.226-.485.66t-.175 1.053q0 .626.17 1.065.175.44.49.669.316.23.738.23a1.2 1.2 0 0 0 .558-.127q.25-.129.413-.371.166-.247.217-.593h1.714a2.7 2.7 0 0 1-.41 1.321 2.47 2.47 0 0 1-1.001.887q-.639.32-1.513.319m7.043 0q-.993 0-1.717-.421a2.9 2.9 0 0 1-1.112-1.185q-.392-.763-.392-1.769 0-1.014.392-1.772a2.85 2.85 0 0 1 1.112-1.185q.724-.426 1.717-.426t1.713.426q.724.422 1.117 1.185.392.758.392 1.772 0 1.006-.392 1.769-.393.758-1.117 1.185-.72.421-1.713.421m.009-1.406q.451 0 .754-.255.303-.261.456-.708.158-.447.158-1.018 0-.572-.158-1.019a1.6 1.6 0 0 0-.456-.707 1.12 1.12 0 0 0-.754-.26q-.456 0-.767.26-.308.26-.465.707a3.1 3.1 0 0 0-.153 1.019q0 .57.153 1.018.158.447.465.708.31.255.767.255m4.393 1.279v-6.546h1.73v1.155h.077q.204-.576.682-.908.477-.332 1.142-.332.674 0 1.146.337.474.332.631.903h.068q.2-.563.724-.899.53-.34 1.249-.341.917 0 1.487.584.576.579.576 1.645v4.402h-1.812v-4.044q0-.546-.289-.819a1.02 1.02 0 0 0-.725-.272q-.493 0-.771.315-.277.311-.277.822v3.998h-1.76v-4.083q0-.481-.277-.767-.273-.285-.72-.285-.303 0-.546.153-.238.149-.379.422-.14.268-.14.631v3.929z"/><path fill="#E0ECFF" stroke="#3E74FF" stroke-dasharray="10 10" stroke-width="2" d="M331 303h272v79H331z"/><path fill="#222" d="M338.778 290.636q0 1.428-.541 2.429-.536 1.002-1.466 1.53-.924.524-2.079.524-1.164 0-2.088-.528t-1.462-1.53-.537-2.425q0-1.427.537-2.429t1.462-1.525q.924-.529 2.088-.529 1.155 0 2.079.529.93.524 1.466 1.525.541 1.002.541 2.429m-1.87 0q0-.924-.277-1.559-.273-.636-.772-.963-.498-.328-1.167-.328t-1.168.328-.775.963q-.273.635-.273 1.559 0 .925.273 1.56.277.635.775.963.5.328 1.168.328.669 0 1.167-.328.5-.328.772-.963.277-.635.277-1.56m3.203 4.364v-6.545h1.76v1.142h.068q.18-.61.601-.921a1.58 1.58 0 0 1 .972-.315 2.6 2.6 0 0 1 .571.064v1.611a3.2 3.2 0 0 0-.767-.098q-.4 0-.716.174a1.3 1.3 0 0 0-.495.477 1.4 1.4 0 0 0-.179.708V295zm4.91 0v-6.545h1.816V295zm.912-7.389a1 1 0 0 1-.694-.269.87.87 0 0 1-.286-.652.85.85 0 0 1 .286-.643.98.98 0 0 1 .694-.273q.405 0 .691.273a.85.85 0 0 1 .289.643.86.86 0 0 1-.289.652.97.97 0 0 1-.691.269m5.307 9.98q-.883 0-1.513-.243-.627-.238-.997-.652a2 2 0 0 1-.482-.929l1.679-.226q.077.196.243.367t.439.272q.277.107.673.107.592 0 .976-.29.388-.285.388-.959v-1.197h-.077a1.7 1.7 0 0 1-.358.516 1.8 1.8 0 0 1-.613.396q-.375.153-.895.153-.738 0-1.343-.341-.6-.345-.958-1.052-.354-.712-.354-1.799 0-1.111.362-1.857.363-.747.963-1.117a2.5 2.5 0 0 1 1.326-.371q.55 0 .92.188.37.183.597.46.23.273.353.537h.068v-1.099h1.803v6.609q0 .836-.409 1.398-.41.563-1.134.843-.72.286-1.657.286m.038-4.048q.44 0 .742-.218a1.4 1.4 0 0 0 .468-.63q.166-.414.166-.989 0-.576-.161-.997a1.47 1.47 0 0 0-.469-.661 1.2 1.2 0 0 0-.746-.234q-.447 0-.754.243a1.45 1.45 0 0 0-.465.665 2.8 2.8 0 0 0-.157.984q0 .567.157.98.162.409.465.635.307.222.754.222m4.607 1.457v-6.545h1.815V295zm.912-7.389a1 1 0 0 1-.695-.269.87.87 0 0 1-.286-.652q0-.375.286-.643a.98.98 0 0 1 .695-.273q.404 0 .69.273.29.268.29.643a.86.86 0 0 1-.29.652.97.97 0 0 1-.69.269m4.172 3.605V295h-1.815v-6.545h1.73v1.154h.077a1.83 1.83 0 0 1 .729-.903q.511-.337 1.24-.337.681 0 1.189.299.507.298.788.852.28.55.281 1.312V295h-1.815v-3.844q.004-.6-.307-.937-.311-.341-.856-.341a1.3 1.3 0 0 0-.648.158q-.277.157-.435.46a1.6 1.6 0 0 0-.158.72M369.43 295v-8.727h3.444q.992 0 1.691.379.699.375 1.066 1.044.37.665.37 1.534 0 .87-.375 1.534-.375.665-1.086 1.036-.708.37-1.713.37h-2.195v-1.478h1.896q.534 0 .878-.183a1.2 1.2 0 0 0 .52-.516 1.6 1.6 0 0 0 .175-.763q0-.435-.175-.758a1.17 1.17 0 0 0-.52-.508q-.35-.183-.886-.183h-1.244V295zm10.588.128q-.993 0-1.718-.422a2.9 2.9 0 0 1-1.112-1.185q-.392-.762-.392-1.768 0-1.014.392-1.773a2.87 2.87 0 0 1 1.112-1.185q.725-.426 1.718-.426t1.713.426a2.85 2.85 0 0 1 1.116 1.185q.392.759.392 1.773 0 1.006-.392 1.768a2.87 2.87 0 0 1-1.116 1.185q-.72.422-1.713.422m.008-1.406q.452 0 .755-.256.302-.26.456-.707.157-.448.157-1.019t-.157-1.018a1.6 1.6 0 0 0-.456-.708 1.12 1.12 0 0 0-.755-.26q-.456 0-.767.26a1.6 1.6 0 0 0-.464.708 3.1 3.1 0 0 0-.154 1.018q0 .571.154 1.019a1.6 1.6 0 0 0 .464.707q.312.255.767.256m7.351 1.406q-.993 0-1.717-.422a2.9 2.9 0 0 1-1.112-1.185q-.392-.762-.392-1.768 0-1.014.392-1.773a2.86 2.86 0 0 1 1.112-1.185q.724-.426 1.717-.426t1.713.426q.724.423 1.117 1.185.392.759.392 1.773 0 1.006-.392 1.768a2.9 2.9 0 0 1-1.117 1.185q-.72.422-1.713.422m.009-1.406q.451 0 .754-.256a1.6 1.6 0 0 0 .456-.707q.158-.448.158-1.019t-.158-1.018a1.6 1.6 0 0 0-.456-.708 1.12 1.12 0 0 0-.754-.26q-.456 0-.767.26-.308.26-.465.708a3.1 3.1 0 0 0-.153 1.018q0 .571.153 1.019.158.447.465.707.31.255.767.256m6.208-7.449V295h-1.815v-8.727zm4.215 8.727v-1.33l3.106-2.876q.397-.384.665-.69.273-.307.414-.601.14-.299.14-.644 0-.382-.174-.66a1.15 1.15 0 0 0-.478-.431 1.5 1.5 0 0 0-.686-.153q-.4 0-.699.162a1.1 1.1 0 0 0-.46.464 1.5 1.5 0 0 0-.162.721h-1.751q0-.856.388-1.488.387-.63 1.086-.975.699-.346 1.611-.346.938 0 1.632.333.699.329 1.087.912.387.583.387 1.338 0 .494-.196.976-.19.481-.686 1.069-.494.584-1.393 1.402l-1.274 1.249v.059h3.665V295z"/><path stroke="#D9D9D9" stroke-dasharray="10 10" stroke-width="2" d="M343 324h248v38H343z"/><path fill="#222" d="M382.808 342.268q0 1.428-.541 2.429a3.76 3.76 0 0 1-1.466 1.53q-.925.524-2.08.524-1.164 0-2.088-.528a3.8 3.8 0 0 1-1.462-1.53q-.537-1.002-.537-2.425 0-1.428.537-2.429a3.74 3.74 0 0 1 1.462-1.526q.924-.528 2.088-.528 1.155 0 2.08.528a3.73 3.73 0 0 1 1.466 1.526q.54 1.001.541 2.429m-1.871 0q0-.925-.277-1.56-.273-.635-.771-.963a2.1 2.1 0 0 0-1.168-.328q-.669 0-1.168.328t-.775.963q-.273.635-.273 1.56 0 .924.273 1.56.277.635.775.963.5.328 1.168.328.669 0 1.168-.328.498-.329.771-.963.277-.636.277-1.56m3.238 4.364v-8.728h3.443q.988 0 1.687.354.704.35 1.07.993.37.639.371 1.504 0 .87-.375 1.496a2.43 2.43 0 0 1-1.087.954q-.708.333-1.713.333h-2.306v-1.483h2.008q.528 0 .877-.145a1.04 1.04 0 0 0 .52-.435q.175-.29.175-.72 0-.435-.175-.733a1.06 1.06 0 0 0-.524-.451q-.35-.159-.882-.158h-1.244v7.219zm4.713-3.972 2.169 3.972h-2.037l-2.122-3.972zm5.007-4.756v8.728h-1.845v-8.728zm7.305 2.821a2 2 0 0 0-.252-.549 1.5 1.5 0 0 0-.396-.409 1.7 1.7 0 0 0-.528-.26 2.2 2.2 0 0 0-.652-.09q-.669 0-1.177.332-.502.333-.784.968-.28.63-.281 1.542 0 .912.277 1.552.277.639.784.975.507.333 1.198.333.626 0 1.069-.222.448-.225.682-.635.239-.409.239-.967l.375.055h-2.25v-1.389h3.652v1.1q0 1.15-.486 1.977a3.3 3.3 0 0 1-1.338 1.27q-.852.443-1.952.443-1.227 0-2.156-.541a3.77 3.77 0 0 1-1.449-1.547q-.516-1.006-.516-2.387 0-1.06.307-1.892a4 4 0 0 1 .87-1.414 3.7 3.7 0 0 1 1.299-.882 4.2 4.2 0 0 1 1.607-.303q.741 0 1.38.217.64.213 1.134.605.498.393.814.934.315.537.405 1.184zm5.187-2.821v8.728h-1.845v-8.728zm8.818 0v8.728h-1.594l-3.797-5.493h-.064v5.493h-1.845v-8.728h1.619l3.767 5.489h.077v-5.489zm2.551 7.713a1 1 0 0 1-.724-.298 1 1 0 0 1-.299-.724q0-.418.299-.716a1 1 0 0 1 .724-.299q.41 0 .716.299a.96.96 0 0 1 .307.716.96.96 0 0 1-.145.515 1.1 1.1 0 0 1-.371.371.97.97 0 0 1-.507.136m0-4.282a1 1 0 0 1-.724-.299.98.98 0 0 1-.299-.724q0-.418.299-.712a1 1 0 0 1 .724-.298q.41 0 .716.298a.95.95 0 0 1 .307.712q0 .286-.145.52a1.1 1.1 0 0 1-.371.366 1 1 0 0 1-.507.137m9.071-3.431v8.728h-1.846v-6.976h-.051l-1.998 1.253v-1.637l2.16-1.368zm5.496 8.919q-1.1-.003-1.892-.541-.789-.537-1.215-1.555-.421-1.018-.418-2.451 0-1.427.422-2.433.426-1.005 1.215-1.53.793-.528 1.888-.528t1.883.528q.793.529 1.219 1.535.426 1.001.422 2.428 0 1.437-.426 2.455-.423 1.018-1.211 1.555-.787.537-1.887.537m0-1.529q.75 0 1.197-.755.447-.754.443-2.263 0-.992-.204-1.653-.2-.66-.571-.993a1.25 1.25 0 0 0-.865-.332q-.746 0-1.194.746-.447.745-.451 2.232 0 1.007.2 1.679.204.67.575 1.006.37.333.87.333m5.566 1.448a1 1 0 0 1-.724-.298 1 1 0 0 1-.299-.724q0-.418.299-.716a1 1 0 0 1 .724-.299q.409 0 .716.299a.97.97 0 0 1 .307.716.97.97 0 0 1-.145.515 1.1 1.1 0 0 1-.371.371.97.97 0 0 1-.507.136m5.566.081q-1.099-.003-1.892-.541-.788-.537-1.214-1.555-.422-1.018-.418-2.451 0-1.427.422-2.433.426-1.005 1.215-1.53.792-.528 1.887-.528 1.096 0 1.884.528.793.529 1.219 1.535.425 1.001.422 2.428 0 1.437-.427 2.455-.421 1.018-1.21 1.555t-1.888.537m0-1.529q.75 0 1.198-.755.447-.754.443-2.263 0-.992-.204-1.653-.2-.66-.572-.993a1.25 1.25 0 0 0-.865-.332q-.745 0-1.193.746-.447.745-.451 2.232 0 1.007.2 1.679.204.67.575 1.006.37.333.869.333m5.567 1.448a1 1 0 0 1-.725-.298 1 1 0 0 1-.298-.724q0-.418.298-.716a1 1 0 0 1 .725-.299q.409 0 .716.299a.97.97 0 0 1 .307.716.97.97 0 0 1-.145.515 1.1 1.1 0 0 1-.371.371 1 1 0 0 1-.507.136m5.566.081q-1.099-.003-1.892-.541-.788-.537-1.214-1.555-.423-1.018-.418-2.451 0-1.427.422-2.433.426-1.005 1.214-1.53.793-.528 1.888-.528t1.884.528q.792.529 1.219 1.535.426 1.001.421 2.428 0 1.437-.426 2.455-.421 1.018-1.21 1.555t-1.888.537m0-1.529q.75 0 1.198-.755.447-.754.443-2.263 0-.992-.205-1.653-.2-.66-.571-.993a1.25 1.25 0 0 0-.865-.332q-.746 0-1.193.746-.447.745-.452 2.232 0 1.007.201 1.679.204.67.575 1.006.37.333.869.333m5.567 1.448a1 1 0 0 1-.725-.298 1 1 0 0 1-.298-.724q0-.418.298-.716a1 1 0 0 1 .725-.299q.408 0 .716.299a.96.96 0 0 1 .306.716.96.96 0 0 1-.145.515 1.1 1.1 0 0 1-.37.371 1 1 0 0 1-.507.136m5.613.009q-.903 0-1.611-.332a2.8 2.8 0 0 1-1.116-.917 2.35 2.35 0 0 1-.431-1.338h1.79q.03.507.426.823t.942.315q.435 0 .767-.192a1.37 1.37 0 0 0 .524-.541q.192-.35.192-.801 0-.46-.196-.81a1.4 1.4 0 0 0-.533-.545 1.55 1.55 0 0 0-.78-.2q-.383 0-.745.157a1.35 1.35 0 0 0-.559.431l-1.64-.294.413-4.603h5.335v1.509h-3.814l-.225 2.186h.051q.23-.324.694-.537a2.5 2.5 0 0 1 1.04-.213q.789 0 1.406.371.619.37.976 1.018.358.643.354 1.483.004.882-.409 1.568a2.9 2.9 0 0 1-1.147 1.074q-.732.388-1.704.388m31.171-8.847 2.109 6.631h.081l2.114-6.631h2.045l-3.008 8.728h-2.378l-3.013-8.728zm14.699 0v8.728h-1.593l-3.797-5.493h-.064v5.493h-1.845v-8.728h1.619l3.767 5.489h.077v-5.489zm1.525 8.728v-8.728h5.881v1.522h-4.036v2.079h3.733v1.521h-3.733v2.084h4.053v1.522zm7.015-7.206v-1.522h7.168v1.522h-2.672v7.206h-1.824v-7.206zm8.895 6.191a1 1 0 0 1-.725-.298 1 1 0 0 1-.298-.724q0-.418.298-.716a1 1 0 0 1 .725-.299q.408 0 .716.299a.96.96 0 0 1 .306.716.96.96 0 0 1-.145.515 1.1 1.1 0 0 1-.37.371 1 1 0 0 1-.507.136m0-4.282a1 1 0 0 1-.725-.299.98.98 0 0 1-.298-.724q0-.418.298-.712a1 1 0 0 1 .725-.298q.408 0 .716.298a.95.95 0 0 1 .306.712q0 .286-.145.52a1.06 1.06 0 0 1-.37.366 1 1 0 0 1-.507.137m11.392-1.249-2.288 6.546h-2.045l-2.289-6.546h1.918l1.359 4.683h.068l1.356-4.683zm2.745 2.762v3.784h-1.816v-6.546h1.73v1.155h.077q.217-.572.729-.903.511-.337 1.24-.337.682 0 1.189.298t.788.852q.282.55.281 1.313v4.168h-1.815v-3.844q.005-.601-.307-.938-.311-.34-.856-.341-.367 0-.648.158a1.1 1.1 0 0 0-.435.46 1.6 1.6 0 0 0-.157.721m8.632 3.911q-1.01 0-1.738-.409a2.8 2.8 0 0 1-1.117-1.167q-.392-.759-.392-1.794 0-1.011.392-1.773a2.9 2.9 0 0 1 1.104-1.189q.716-.426 1.679-.426.648 0 1.206.209.562.204.98.618.422.413.656 1.039.234.623.234 1.458v.498h-5.527v-1.125h3.819q0-.392-.171-.694a1.2 1.2 0 0 0-.473-.473 1.34 1.34 0 0 0-.694-.175q-.414 0-.733.192a1.35 1.35 0 0 0-.495.507q-.178.315-.183.703v1.07q0 .485.179.839.183.354.516.546.332.19.788.191.303 0 .554-.085a1.14 1.14 0 0 0 .43-.256 1.1 1.1 0 0 0 .273-.417l1.679.111a2.3 2.3 0 0 1-.524 1.056 2.6 2.6 0 0 1-1.014.699q-.618.247-1.428.247m7.671-6.673v1.364h-3.942v-1.364zm-3.047-1.568h1.815v6.102q0 .252.077.392a.42.42 0 0 0 .213.192.9.9 0 0 0 .324.055q.127 0 .255-.021l.196-.038.286 1.351a5 5 0 0 1-.384.098 3 3 0 0 1-.6.072q-.657.026-1.151-.175a1.6 1.6 0 0 1-.763-.622q-.273-.422-.268-1.065z"/><circle cx="467.993" cy="108.993" r="17.992" fill="#E2F5FA" stroke="#0055DC" stroke-width="2"/><path fill="#000" d="M472.457 112.67v1.977h-8.753v-1.687l4.139-4.439q.624-.695.985-1.221a4.8 4.8 0 0 0 .518-.958q.167-.431.167-.818 0-.58-.193-.993a1.44 1.44 0 0 0-.572-.65q-.368-.23-.914-.229-.579 0-1.002.281a1.8 1.8 0 0 0-.632.783 2.9 2.9 0 0 0-.211 1.133h-2.54q0-1.142.545-2.091a4 4 0 0 1 1.538-1.521q.993-.571 2.355-.571 1.345 0 2.268.439.932.43 1.406 1.248.483.809.483 1.934 0 .633-.202 1.239a5.6 5.6 0 0 1-.58 1.195 10 10 0 0 1-.896 1.196q-.528.606-1.169 1.257l-2.224 2.496z"/><path fill="#fff" stroke="#0055DC" stroke-width="2" d="M676 130h182v151H676z"/><g clip-path="url(#clip0_52_13)"><path fill="#0055DC" d="M704.031 115.65h-18.922a7.125 7.125 0 0 1-7.109-7.11 7.3 7.3 0 0 1 2.6-5.515 6.8 6.8 0 0 1 4.846-1.594 9.647 9.647 0 0 1 15.702-3.242 9.65 9.65 0 0 1 2.785 5.536 5.8 5.8 0 0 1 4 1.361 6.02 6.02 0 0 1 1.694 6.627 6.02 6.02 0 0 1-5.594 3.936zm-19.034-12.234a4.78 4.78 0 0 0-3.111 1.14 5.3 5.3 0 0 0-1.379 1.786 5.3 5.3 0 0 0-.507 2.198 5.116 5.116 0 0 0 5.095 5.11h18.935a3.974 3.974 0 0 0 3.97-3.971 4.06 4.06 0 0 0-1.364-3.071 4.15 4.15 0 0 0-3.457-.808l-1.127.181-.031-1.141a7.643 7.643 0 0 0-14.943-2.03l-.26.843-.868-.153a5.5 5.5 0 0 0-.953-.084"/></g><path fill="#222" d="M721.472 100.546v11.636h-2.461v-11.636zm4.291 11.801q-.835 0-1.489-.29a2.4 2.4 0 0 1-1.034-.869q-.375-.58-.375-1.444 0-.727.267-1.221t.728-.796q.46-.3 1.045-.454a8 8 0 0 1 1.239-.216q.76-.08 1.227-.148.465-.074.676-.216a.47.47 0 0 0 .21-.42v-.034q0-.54-.341-.836-.335-.294-.954-.295-.654 0-1.04.29a1.33 1.33 0 0 0-.511.716l-2.239-.182q.17-.796.67-1.375.501-.586 1.29-.898.796-.318 1.841-.318.727 0 1.392.17.67.17 1.188.529.522.357.824.92.3.558.301 1.336v5.886h-2.296v-1.21h-.068q-.21.409-.562.721a2.6 2.6 0 0 1-.847.483 3.5 3.5 0 0 1-1.142.171m.693-1.671q.535 0 .943-.21.41-.216.642-.58t.233-.823v-.927a1.3 1.3 0 0 1-.312.137 6 6 0 0 1-.438.108q-.244.045-.488.085l-.444.062a3 3 0 0 0-.744.199 1.2 1.2 0 0 0-.494.37.9.9 0 0 0-.176.568q0 .493.358.756.363.255.92.255m8.412 1.671q-.836 0-1.488-.29a2.4 2.4 0 0 1-1.035-.869q-.375-.58-.375-1.444 0-.727.267-1.221a2.2 2.2 0 0 1 .728-.796 3.5 3.5 0 0 1 1.045-.454 8 8 0 0 1 1.239-.216q.761-.08 1.227-.148.466-.074.676-.216a.47.47 0 0 0 .21-.42v-.034q0-.54-.34-.836-.336-.294-.955-.295-.654 0-1.04.29a1.33 1.33 0 0 0-.511.716l-2.239-.182a3.04 3.04 0 0 1 .671-1.375q.5-.586 1.289-.898.796-.318 1.841-.318.727 0 1.392.17.67.17 1.188.529.522.357.824.92.301.558.301 1.336v5.886h-2.296v-1.21h-.068q-.21.409-.562.721a2.6 2.6 0 0 1-.847.483q-.494.171-1.142.171m.693-1.671q.534 0 .944-.21.408-.216.642-.58.233-.364.233-.823v-.927a1.3 1.3 0 0 1-.313.137 6 6 0 0 1-.437.108q-.245.045-.489.085l-.443.062a3 3 0 0 0-.745.199 1.2 1.2 0 0 0-.494.37.9.9 0 0 0-.176.568q0 .493.358.756.363.255.92.255m12.282-6.784q-.069-.687-.585-1.068-.518-.381-1.404-.381-.601 0-1.017.171a1.43 1.43 0 0 0-.636.46q-.216.295-.216.67a.96.96 0 0 0 .13.546q.148.233.404.403.255.165.591.29.335.12.716.205l1.045.25q.762.17 1.398.454t1.102.699q.466.414.722.977.261.563.267 1.29-.006 1.069-.546 1.852-.534.779-1.545 1.211-1.006.426-2.426.426-1.41 0-2.455-.432-1.04-.432-1.625-1.279-.58-.851-.608-2.108h2.381q.04.586.335.978.301.386.801.585.506.193 1.142.193.626 0 1.086-.182.465-.181.721-.505t.256-.745a.97.97 0 0 0-.233-.659q-.228-.267-.671-.454a7 7 0 0 0-1.073-.341l-1.267-.318q-1.472-.358-2.324-1.12-.853-.76-.847-2.051-.006-1.056.563-1.846.573-.79 1.573-1.233t2.273-.444q1.296 0 2.262.444.97.443 1.511 1.233t.557 1.829zM760.388 100l-3.75 13.932h-2.085l3.75-13.932zm10.876 3.892q-.069-.687-.585-1.068-.518-.381-1.404-.381-.601 0-1.017.171a1.43 1.43 0 0 0-.636.46q-.216.295-.216.67a.96.96 0 0 0 .13.546q.148.233.404.403.255.165.591.29.335.12.716.205l1.045.25q.762.17 1.398.454.637.284 1.102.699.466.414.722.977.261.563.267 1.29-.006 1.069-.546 1.852-.534.779-1.545 1.211-1.006.426-2.426.426-1.41 0-2.455-.432-1.04-.432-1.625-1.279-.58-.851-.608-2.108h2.381q.04.586.335.978.301.386.801.585.506.193 1.142.193.625 0 1.086-.182.466-.181.721-.505.256-.324.256-.745a.97.97 0 0 0-.233-.659q-.227-.267-.671-.454a7 7 0 0 0-1.073-.341l-1.267-.318q-1.472-.358-2.324-1.12-.853-.76-.847-2.051-.006-1.056.563-1.846.574-.79 1.573-1.233 1-.444 2.273-.444 1.296 0 2.262.444.97.443 1.511 1.233t.557 1.829zm7.927 8.46q-1.346 0-2.318-.545a3.73 3.73 0 0 1-1.488-1.557q-.523-1.012-.523-2.392 0-1.347.523-2.364a3.86 3.86 0 0 1 1.471-1.585q.955-.568 2.239-.568.864 0 1.608.278.75.273 1.307.824.562.552.875 1.387.312.829.312 1.943v.665h-7.369v-1.5h5.091q0-.523-.228-.927a1.6 1.6 0 0 0-.63-.63 1.8 1.8 0 0 0-.926-.233q-.552 0-.978.255a1.8 1.8 0 0 0-.659.677q-.238.42-.244.937v1.426q0 .648.239 1.12.244.47.687.727.444.255 1.051.256.403 0 .739-.114t.574-.341a1.5 1.5 0 0 0 .363-.557l2.239.148a3.07 3.07 0 0 1-.699 1.409q-.522.597-1.352.932-.824.329-1.904.329m7.83-11.806v11.636h-2.42v-11.636zm6.456 2.909v1.818h-5.386v-1.818zm-4.153 8.727v-9.358q0-.949.369-1.574.375-.625 1.023-.937t1.471-.313q.558 0 1.017.085.466.085.694.154l-.432 1.818a3 3 0 0 0-.352-.085 2 2 0 0 0-.421-.04q-.534 0-.744.25-.21.244-.21.687v9.313zm10.581-5.739v1.921h-5.307v-1.921zm4.307.693v5.046h-2.421v-11.636h2.353v4.448h.102a2.47 2.47 0 0 1 .955-1.21q.659-.443 1.653-.443.909 0 1.585.398.682.392 1.057 1.13.381.733.375 1.756v5.557h-2.42v-5.125q.005-.807-.41-1.256-.409-.449-1.147-.449-.495 0-.875.211-.375.21-.591.613-.21.397-.216.96m11.331 5.216q-1.324 0-2.29-.562a3.85 3.85 0 0 1-1.483-1.58q-.522-1.017-.522-2.358 0-1.352.522-2.363a3.8 3.8 0 0 1 1.483-1.58q.966-.568 2.29-.568t2.284.568q.966.563 1.489 1.58.522 1.011.522 2.363 0 1.341-.522 2.358a3.84 3.84 0 0 1-1.489 1.58q-.96.562-2.284.562m.011-1.875q.603 0 1.006-.341.404-.346.608-.943.21-.596.21-1.358 0-.76-.21-1.358-.204-.596-.608-.943-.403-.346-1.006-.346-.608 0-1.022.346-.41.347-.62.943a4.2 4.2 0 0 0-.204 1.358q0 .762.204 1.358.21.597.62.943.414.341 1.022.341m12.944-4.534-2.216.137a1.15 1.15 0 0 0-.245-.512 1.3 1.3 0 0 0-.494-.369 1.7 1.7 0 0 0-.721-.142q-.563 0-.949.239-.387.232-.387.625 0 .312.25.528t.858.347l1.58.318q1.272.26 1.898.841.624.58.625 1.522a2.38 2.38 0 0 1-.506 1.506q-.5.648-1.375 1.011-.87.358-2.006.358-1.733 0-2.761-.721a2.8 2.8 0 0 1-1.199-1.978l2.381-.125q.108.53.522.807.415.273 1.063.273.636 0 1.023-.244.391-.25.397-.642a.67.67 0 0 0-.278-.54q-.273-.216-.841-.33l-1.511-.301q-1.279-.255-1.904-.886-.62-.632-.619-1.608 0-.842.454-1.449.46-.608 1.29-.937.836-.33 1.955-.33 1.653 0 2.602.699.955.699 1.114 1.903m6.189-2.488v1.818h-5.256v-1.818zm-4.063-2.091h2.421v8.136q0 .336.102.523a.56.56 0 0 0 .284.255q.188.075.432.074.17 0 .341-.028l.261-.051.381 1.801a7 7 0 0 1-.512.131 4 4 0 0 1-.801.096q-.874.034-1.534-.233a2.15 2.15 0 0 1-1.017-.829q-.363-.563-.358-1.421zm9.347 10.988q-1.347 0-2.318-.545a3.74 3.74 0 0 1-1.489-1.557q-.523-1.012-.523-2.392 0-1.347.523-2.364a3.87 3.87 0 0 1 1.472-1.585q.954-.568 2.238-.568.864 0 1.608.278.75.273 1.307.824.563.552.875 1.387.313.829.313 1.943v.665h-7.37v-1.5h5.091q0-.523-.227-.927a1.63 1.63 0 0 0-.631-.63 1.8 1.8 0 0 0-.926-.233q-.55 0-.977.255a1.8 1.8 0 0 0-.659.677 1.9 1.9 0 0 0-.245.937v1.426q0 .648.239 1.12.244.47.688.727.442.255 1.051.256.404 0 .738-.114.336-.114.574-.341.239-.228.364-.557l2.238.148a3.05 3.05 0 0 1-.698 1.409q-.523.597-1.353.932-.823.329-1.903.329m8.625-.028a3.3 3.3 0 0 1-1.801-.511q-.8-.518-1.273-1.517-.465-1.007-.466-2.466 0-1.5.483-2.495.483-.999 1.284-1.494a3.3 3.3 0 0 1 1.767-.5q.733 0 1.222.25.495.244.795.614.307.363.466.716h.074v-4.375h2.415v11.636h-2.386v-1.398h-.103a3 3 0 0 1-.483.722q-.306.352-.801.585-.488.233-1.193.233m.767-1.926q.585 0 .989-.318.409-.324.625-.904.22-.58.221-1.358 0-.778-.216-1.352t-.625-.886q-.409-.313-.994-.313-.597 0-1.006.324t-.619.898q-.21.573-.21 1.329 0 .762.21 1.347.216.579.619.909.41.324 1.006.324"/><path fill="#0055DC" d="M723.1 164.198h-3.507v18.05h3.507zm91.493 0h-3.507v18.05h3.507z"/><path fill="#fff" stroke="#0055DC" stroke-miterlimit="10" stroke-width="1.5" d="M727.904 185.464v3.426l78.377-.004-.001-3.426z"/><path fill="#C5EBF5" stroke="#0055DC" stroke-miterlimit="10" stroke-width="1.5" d="M811.086 161H723.1v24.462h87.986z"/><path fill="#fff" d="M807.286 182.012v-17.564h-80.384v17.564z"/><path fill="#0055DC" d="M733.426 169.408h-1.948v1.902h1.948zm0 5.725h-1.948v1.903h1.948zm2.666-3.016h-1.948v1.902h1.948zm2.371-2.709h-1.948v1.902h1.948zm0 5.725h-1.948v1.903h1.948zm2.519-3.016h-1.947v1.902h1.947zm2.981-2.709h-1.948v1.902h1.948zm0 5.725h-1.948v1.903h1.948zm2.519-3.016h-1.948v1.902h1.948zm3.064-2.709h-1.947v1.902h1.947zm0 5.725h-1.947v1.903h1.947zm2.371-3.016h-1.948v1.902h1.948zm2.666-2.709h-1.948v1.902h1.948zm0 5.725h-1.948v1.903h1.948zm2.224-3.016h-1.947v1.902h1.947zm2.815-2.709h-1.947v1.902h1.947zm0 5.725h-1.947v1.903h1.947zm2.076-3.016h-1.948v1.902h1.948zm39.201 3.475c1.336 0 2.418-1.057 2.418-2.361s-1.082-2.362-2.418-2.362c-1.335 0-2.417 1.058-2.417 2.362s1.082 2.361 2.417 2.361"/><path stroke="#0055DC" stroke-miterlimit="10" stroke-width="1.5" d="M793.947 173.231h-25.606"/><path fill="#E2F5FA" stroke="#F6821F" stroke-width="2" d="M703 241H599v-24h104zm0-32h115v40H703z"/><path fill="#222" d="M740.682 233.151q-1.006 0-1.73-.426a2.9 2.9 0 0 1-1.108-1.193q-.384-.763-.384-1.756 0-1.005.388-1.764a2.9 2.9 0 0 1 1.112-1.189q.72-.43 1.713-.43.856 0 1.5.311.644.31 1.019.873t.413 1.321h-1.713a1.32 1.32 0 0 0-.383-.788q-.307-.303-.806-.303a1.22 1.22 0 0 0-.737.23q-.31.226-.486.661-.175.435-.175 1.052 0 .627.171 1.066.174.438.49.669.315.23.737.23.312 0 .558-.128.252-.128.414-.371a1.4 1.4 0 0 0 .217-.592h1.713q-.043.75-.409 1.321a2.47 2.47 0 0 1-1.001.886q-.64.32-1.513.32m5.901-8.855v8.727h-1.816v-8.727zm4.411 8.855q-.993 0-1.717-.422a2.9 2.9 0 0 1-1.112-1.184q-.393-.764-.392-1.769 0-1.014.392-1.773a2.85 2.85 0 0 1 1.112-1.184q.724-.426 1.717-.426t1.713.426a2.85 2.85 0 0 1 1.117 1.184q.392.759.392 1.773 0 1.005-.392 1.769-.393.758-1.117 1.184-.72.422-1.713.422m.009-1.406q.451 0 .754-.256a1.6 1.6 0 0 0 .456-.707q.158-.448.158-1.019 0-.57-.158-1.018a1.6 1.6 0 0 0-.456-.708 1.12 1.12 0 0 0-.754-.26q-.456 0-.767.26-.308.26-.465.708a3.1 3.1 0 0 0-.153 1.018q0 .571.153 1.019.158.447.465.707.31.256.767.256m8.591-1.509v-3.758h1.815v6.545h-1.743v-1.189h-.068a1.93 1.93 0 0 1-.737.925q-.511.35-1.249.349-.656 0-1.155-.298a2.05 2.05 0 0 1-.779-.848q-.277-.549-.282-1.317v-4.167h1.816v3.843q.003.58.311.917.306.336.822.336.328 0 .614-.149.286-.153.46-.452.179-.297.175-.737m5.679 2.894q-.745 0-1.351-.384-.6-.388-.954-1.138-.35-.754-.35-1.849 0-1.125.362-1.871.363-.75.964-1.12.605-.375 1.325-.375.55 0 .916.187.37.184.597.46.23.273.349.537h.055v-3.281h1.812v8.727h-1.79v-1.048h-.077a2.3 2.3 0 0 1-.362.541 1.8 1.8 0 0 1-.601.439q-.367.175-.895.175m.575-1.445q.44 0 .742-.239a1.5 1.5 0 0 0 .469-.677q.166-.434.166-1.019 0-.584-.162-1.014a1.46 1.46 0 0 0-.469-.665 1.2 1.2 0 0 0-.746-.234q-.447 0-.754.243a1.5 1.5 0 0 0-.464.673q-.158.431-.158.997 0 .572.158 1.01.161.435.464.682.307.243.754.243m8.162-5.207v1.363h-4.04v-1.363zm-3.115 6.545v-7.018q0-.712.277-1.181.28-.469.767-.703a2.5 2.5 0 0 1 1.104-.234q.417 0 .762.064.35.064.52.115l-.324 1.363a2 2 0 0 0-.264-.063 1.6 1.6 0 0 0-.315-.03q-.4 0-.558.187-.158.183-.158.516v6.984zm6.039-8.727v8.727h-1.815v-8.727zm3.321 8.851q-.627 0-1.117-.218a1.8 1.8 0 0 1-.775-.652q-.282-.434-.281-1.082 0-.546.2-.916t.545-.597a2.7 2.7 0 0 1 .785-.341 6 6 0 0 1 .928-.162q.572-.059.921-.11.35-.055.507-.162a.36.36 0 0 0 .158-.316v-.025q0-.405-.256-.627-.251-.22-.716-.221-.49 0-.78.217a1 1 0 0 0-.383.537l-1.679-.136q.128-.597.503-1.032.375-.438.967-.673.597-.238 1.381-.238.545 0 1.044.127.503.129.89.397.393.268.618.69.226.417.226 1.001v4.415h-1.722v-.907h-.051a1.9 1.9 0 0 1-.422.541 2 2 0 0 1-.634.362 2.6 2.6 0 0 1-.857.128m.52-1.253q.4 0 .707-.158a1.26 1.26 0 0 0 .482-.434q.174-.273.174-.618v-.695a1 1 0 0 1-.234.102 4 4 0 0 1-.328.081q-.183.034-.366.064l-.333.047a2.2 2.2 0 0 0-.558.149.9.9 0 0 0-.371.277.68.68 0 0 0-.132.426q0 .371.269.567.271.192.69.192m4.574 1.129v-6.545h1.76v1.142h.069q.179-.609.6-.921.423-.315.972-.315.137 0 .294.017t.277.047v1.611a2 2 0 0 0-.354-.068q-.225-.03-.413-.03-.4 0-.716.174a1.29 1.29 0 0 0-.673 1.185v3.703zm7.589.128q-1.01 0-1.739-.409a2.8 2.8 0 0 1-1.116-1.168q-.392-.757-.392-1.794 0-1.01.392-1.772a2.9 2.9 0 0 1 1.103-1.189q.717-.426 1.679-.426.648 0 1.206.208.563.205.98.618.422.413.657 1.04.234.623.234 1.457v.499h-5.527v-1.125h3.818a1.4 1.4 0 0 0-.17-.695 1.23 1.23 0 0 0-.473-.473 1.36 1.36 0 0 0-.695-.174q-.413 0-.733.191-.315.188-.494.507-.179.316-.183.704v1.069q0 .486.179.84.183.354.515.545.333.192.789.192.302 0 .554-.085.251-.085.43-.256.178-.17.273-.418l1.679.111a2.3 2.3 0 0 1-.524 1.057q-.393.447-1.015.699-.618.247-1.427.247m6.601-.021q-.746 0-1.351-.384-.601-.388-.955-1.138-.35-.754-.349-1.849 0-1.125.362-1.871.363-.75.963-1.12.606-.375 1.325-.375.55 0 .917.187.37.184.596.46.23.273.35.537h.055v-3.281h1.811v8.727h-1.79v-1.048h-.076a2.3 2.3 0 0 1-.363.541 1.8 1.8 0 0 1-.6.439q-.367.175-.895.175m.575-1.445q.44 0 .741-.239.307-.242.469-.677.166-.434.166-1.019 0-.584-.162-1.014a1.46 1.46 0 0 0-.468-.665 1.2 1.2 0 0 0-.746-.234q-.447 0-.754.243-.308.243-.465.673t-.157.997q0 .572.157 1.01.162.435.465.682.307.243.754.243"/><path fill="#E2F5FA" d="M596 218.023h96v22h-96z"/><path fill="#F6821F" d="M723.955 231.1h-4.322l-.633-1.155 7.75-11.922 1.341.559-1.602 8.048h4.321l.634 1.154-7.75 11.923-1.341-.56z"/><path fill="#E2F5FA" d="M702 218h6v22h-6z"/><path fill="#757575" d="M591.293 229.707a1 1 0 0 1 0-1.414l6.364-6.364a.999.999 0 1 1 1.414 1.414L593.414 229l5.657 5.657a.999.999 0 1 1-1.414 1.414zM713 230H592v-2h121z"/><circle cx="799.992" cy="329.993" r="17.992" fill="#E2F5FA" stroke="#0055DC" stroke-width="2"/><path fill="#000" d="M798.296 328.15h1.354q.65 0 1.072-.22.421-.228.624-.632.211-.414.211-.958 0-.493-.193-.871a1.3 1.3 0 0 0-.572-.597q-.386-.22-.975-.22-.466 0-.862.185a1.6 1.6 0 0 0-.632.518 1.36 1.36 0 0 0-.238.809h-2.54q0-1.055.563-1.837.571-.783 1.529-1.222a5 5 0 0 1 2.11-.439q1.3 0 2.276.422.975.413 1.52 1.221.546.808.545 2.004 0 .607-.281 1.178a3.3 3.3 0 0 1-.809 1.019q-.518.449-1.265.721a5 5 0 0 1-1.679.264h-1.758zm0 1.925v-1.31h1.758q1.046 0 1.837.238.791.237 1.327.685.536.44.809 1.046.272.598.272 1.327 0 .897-.343 1.6-.342.694-.966 1.178-.615.483-1.442.738a6.3 6.3 0 0 1-1.801.246 5.8 5.8 0 0 1-1.591-.22 4.8 4.8 0 0 1-1.407-.676 3.5 3.5 0 0 1-1.002-1.143q-.369-.695-.369-1.644h2.54q0 .493.246.879.247.387.677.607.44.219.976.219.606 0 1.037-.219.44-.23.668-.633a1.9 1.9 0 0 0 .237-.958q0-.704-.255-1.125a1.5 1.5 0 0 0-.729-.633q-.476-.202-1.125-.202z"/><path fill="#fff" stroke="#0055DC" stroke-width="2" d="M675.445 293h94.311v78.085h-94.311z"/><path fill="#0055DC" d="M699.622 310.424h-1.836v9.448h1.836zm47.89 0h-1.835v9.448h1.835z"/><path fill="#fff" stroke="#0055DC" stroke-miterlimit="10" stroke-width="1.5" d="M702.136 321.555v1.793l41.025-.002v-1.793z"/><path fill="#C5EBF5" stroke="#0055DC" stroke-miterlimit="10" stroke-width="1.5" d="M745.676 308.75h-46.054v12.804h46.054z"/><path fill="#fff" d="M743.687 319.748v-9.193h-42.075v9.193z"/><path fill="#0055DC" d="M705.027 313.151h-1.02v.995h1.02zm0 2.997h-1.02v.995h1.02zm1.395-1.579h-1.019v.995h1.019zm1.241-1.418h-1.019v.995h1.019zm0 2.997h-1.019v.995h1.019zm1.319-1.579h-1.019v.995h1.019zm1.56-1.418h-1.019v.995h1.019zm0 2.997h-1.019v.995h1.019zm1.318-1.579h-1.019v.995h1.019zm1.605-1.418h-1.02v.995h1.02zm0 2.997h-1.02v.995h1.02zm1.24-1.579h-1.019v.995h1.019zm1.396-1.418h-1.019v.995h1.019zm0 2.997h-1.019v.995h1.019zm1.164-1.579h-1.019v.995h1.019zm1.474-1.418h-1.02v.995h1.02zm0 2.997h-1.02v.995h1.02zm1.086-1.579h-1.019v.995h1.019zm20.519 1.818c.699 0 1.266-.553 1.266-1.235 0-.683-.567-1.236-1.266-1.236-.698 0-1.265.553-1.265 1.236s.567 1.235 1.265 1.235"/><path stroke="#0055DC" stroke-miterlimit="10" stroke-width="1.5" d="M736.706 315.152h-13.404"/><path fill="#E2F5FA" stroke="#F6821F" stroke-width="2" d="M691 352h-90v-16h90z"/><path fill="#E2F5FA" stroke="#F6821F" stroke-width="2" d="M689.577 334.351h59.242v19.984h-59.242z"/><path fill="#222" d="M708.892 346.761q-.545 0-.937-.231a1.57 1.57 0 0 1-.601-.647 2.1 2.1 0 0 1-.207-.951q0-.544.21-.955.212-.414.602-.644.39-.233.928-.233.464 0 .813.168.348.169.551.473.204.305.224.716h-.928a.72.72 0 0 0-.207-.427.6.6 0 0 0-.437-.164.66.66 0 0 0-.399.125q-.168.121-.263.357a1.5 1.5 0 0 0-.095.571q0 .339.093.577a.8.8 0 0 0 .265.362.66.66 0 0 0 .399.125.64.64 0 0 0 .303-.07.6.6 0 0 0 .224-.2.8.8 0 0 0 .117-.321h.928a1.45 1.45 0 0 1-.221.715 1.34 1.34 0 0 1-.543.48 1.8 1.8 0 0 1-.819.174m3.196-4.797v4.727h-.983v-4.727zm2.39 4.797q-.538 0-.931-.229a1.57 1.57 0 0 1-.602-.642 2.06 2.06 0 0 1-.212-.958q0-.549.212-.96.212-.412.602-.642.393-.23.931-.23a1.8 1.8 0 0 1 .928.23q.392.23.604.642.213.411.213.96 0 .546-.213.958a1.56 1.56 0 0 1-.604.642q-.39.228-.928.229m.004-.762q.245 0 .409-.139a.86.86 0 0 0 .247-.383 1.7 1.7 0 0 0 .085-.552q0-.31-.085-.551a.86.86 0 0 0-.247-.383.6.6 0 0 0-.409-.141.63.63 0 0 0-.415.141.86.86 0 0 0-.252.383 1.7 1.7 0 0 0-.083.551q0 .31.083.552a.86.86 0 0 0 .252.383.63.63 0 0 0 .415.139m4.654-.817v-2.036h.983v3.545h-.944v-.644h-.037q-.12.312-.399.501-.277.189-.677.189a1.2 1.2 0 0 1-.625-.161 1.1 1.1 0 0 1-.423-.459 1.6 1.6 0 0 1-.152-.714v-2.257h.983v2.082q.003.314.169.496a.57.57 0 0 0 .445.182q.179 0 .333-.08a.64.64 0 0 0 .249-.245.75.75 0 0 0 .095-.399m3.076 1.567q-.404 0-.732-.208a1.44 1.44 0 0 1-.517-.616q-.189-.408-.189-1.002 0-.61.196-1.013.196-.406.522-.607a1.33 1.33 0 0 1 .718-.203q.298 0 .496.101a.9.9 0 0 1 .323.25q.124.147.189.29h.03v-1.777h.981v4.727h-.969v-.568h-.042a1.2 1.2 0 0 1-.196.294 1 1 0 0 1-.325.237 1.1 1.1 0 0 1-.485.095m.312-.783a.63.63 0 0 0 .401-.129.8.8 0 0 0 .254-.367q.09-.236.09-.551t-.087-.55a.8.8 0 0 0-.254-.36.65.65 0 0 0-.404-.127.64.64 0 0 0-.409.132.8.8 0 0 0-.251.364 1.6 1.6 0 0 0-.086.541q0 .309.086.547.087.235.251.369a.64.64 0 0 0 .409.131m4.421-2.82v.738h-2.189v-.738zm-1.688 3.545v-3.801q0-.385.15-.64a.97.97 0 0 1 .416-.381q.262-.126.598-.127.225 0 .413.035.19.035.281.062l-.175.739a1 1 0 0 0-.143-.035 1 1 0 0 0-.171-.016q-.217 0-.302.102a.4.4 0 0 0-.086.279v3.783zm3.272-4.727v4.727h-.984v-4.727zm1.798 4.794q-.34 0-.605-.117a1 1 0 0 1-.42-.354 1.06 1.06 0 0 1-.152-.586q0-.295.109-.496a.9.9 0 0 1 .295-.323q.187-.123.425-.185.24-.063.503-.088.309-.031.498-.06a.7.7 0 0 0 .275-.087.2.2 0 0 0 .086-.171v-.014a.43.43 0 0 0-.139-.339q-.136-.12-.388-.12a.7.7 0 0 0-.422.117.54.54 0 0 0-.208.291l-.909-.074q.07-.322.272-.558.203-.238.524-.365.323-.129.748-.129.295 0 .565.069.273.07.483.215.212.145.335.374.122.225.122.542v2.391h-.933v-.491h-.027q-.085.165-.229.293a1.1 1.1 0 0 1-.344.196 1.4 1.4 0 0 1-.464.069m.282-.678a.8.8 0 0 0 .383-.086.7.7 0 0 0 .261-.235.6.6 0 0 0 .094-.335v-.376a.5.5 0 0 1-.126.055 2 2 0 0 1-.178.044l-.199.035-.18.025a1.2 1.2 0 0 0-.302.081.5.5 0 0 0-.201.15.36.36 0 0 0-.072.231q0 .2.146.307a.64.64 0 0 0 .374.104m2.478.611v-3.545h.953v.618h.037a.9.9 0 0 1 .325-.498.86.86 0 0 1 .527-.171 1.5 1.5 0 0 1 .309.035v.872a1.7 1.7 0 0 0-.415-.053.8.8 0 0 0-.388.095.7.7 0 0 0-.268.258.74.74 0 0 0-.097.383v2.006zm4.11.07q-.547 0-.942-.222a1.5 1.5 0 0 1-.604-.633 2.1 2.1 0 0 1-.213-.971q0-.547.213-.961.212-.413.597-.644.388-.23.91-.23.351 0 .653.113a1.46 1.46 0 0 1 .886.898q.127.336.127.789v.27h-2.993v-.609h2.068a.76.76 0 0 0-.092-.376.66.66 0 0 0-.257-.257.73.73 0 0 0-.376-.094.75.75 0 0 0-.665.378.8.8 0 0 0-.099.381v.579q0 .264.097.455a.7.7 0 0 0 .279.296q.18.104.427.104.165 0 .3-.047a.6.6 0 0 0 .381-.364l.91.06a1.24 1.24 0 0 1-.284.572 1.4 1.4 0 0 1-.55.379q-.334.134-.773.134m3.576-.012q-.405 0-.732-.208a1.44 1.44 0 0 1-.517-.616q-.189-.408-.189-1.002 0-.61.196-1.013.196-.406.521-.607.328-.203.718-.203.298 0 .497.101a.95.95 0 0 1 .323.25q.125.147.189.29h.03v-1.777h.981v4.727h-.969v-.568h-.042a1.3 1.3 0 0 1-.196.294 1 1 0 0 1-.326.237 1.1 1.1 0 0 1-.484.095m.311-.783a.63.63 0 0 0 .402-.129.8.8 0 0 0 .254-.367q.09-.236.09-.551t-.088-.55a.8.8 0 0 0-.254-.36.64.64 0 0 0-.404-.127.63.63 0 0 0-.408.132.8.8 0 0 0-.252.364 1.6 1.6 0 0 0-.085.541q0 .309.085.547a.84.84 0 0 0 .252.369q.166.132.408.131"/><path fill="#E2F5FA" d="M598 337h83v14h-83z"/><path fill="#F6821F" d="M700.069 345.442h-2.262l-.331-.604 4.056-6.24.702.292-.838 4.212h2.262l.331.605-4.056 6.24-.702-.292z"/><path fill="#E2F5FA" d="M686 337h6v14h-6z"/><path fill="#757575" d="M591.293 343.293a1 1 0 0 0 0 1.414l6.364 6.364a.999.999 0 1 0 1.414-1.414L593.414 344l5.657-5.657a.999.999 0 1 0-1.414-1.414zM694 343H592v2h102z"/><defs><clipPath id="clip0_52_13"><path fill="#fff" d="M678 90h32v32h-32z"/></clipPath></defs></svg>