<svg xmlns="http://www.w3.org/2000/svg" width="830" height="280" fill="none" viewBox="0 0 830 280"><path fill="#fff" d="M0 0h830v280H0z"/><path fill="#222" d="M180.383 128.328h-1.867a1.8 1.8 0 0 0-.209-.643 1.6 1.6 0 0 0-.404-.486 1.8 1.8 0 0 0-.572-.307 2.2 2.2 0 0 0-.694-.106q-.678 0-1.181.336-.503.333-.779.972-.277.635-.277 1.542 0 .934.277 1.569.281.634.784.958a2.1 2.1 0 0 0 1.163.324q.37 0 .686-.098a1.8 1.8 0 0 0 .567-.285q.247-.192.409-.465.167-.273.23-.622l1.867.009q-.073.6-.363 1.159-.285.553-.771.993a3.7 3.7 0 0 1-1.15.69 4.2 4.2 0 0 1-1.505.251q-1.167 0-2.088-.528-.916-.528-1.449-1.53-.528-1.002-.528-2.425 0-1.427.537-2.429t1.457-1.525q.92-.529 2.071-.529.759 0 1.407.213.651.214 1.154.623.503.404.819.993.32.587.409 1.346m8.623-3.055V134h-1.594l-3.797-5.493h-.064V134h-1.845v-8.727h1.619l3.767 5.488h.077v-5.488zm3.028 8.727h-1.977l3.013-8.727h2.378l3.008 8.727h-1.977l-2.186-6.733h-.068zm-.123-3.43h4.67v1.44h-4.67zm7.596-5.297h2.275l2.404 5.863h.102l2.403-5.863h2.276V134h-1.79v-5.68h-.072l-2.259 5.637h-1.219l-2.258-5.659h-.073V134h-1.789zm10.98 8.727v-8.727h5.881v1.521h-4.036v2.08h3.733v1.521h-3.733v2.084h4.053V134zm394.788-1h-1.978l3.013-8.727h2.378l3.008 8.727h-1.977l-2.186-6.733h-.068zm-.124-3.43h4.67v1.44h-4.67z"/><path fill="#fff" d="M122.062 123.483H51v46.668h71.062z"/><path fill="#3E74FF" stroke="#3E74FF" stroke-miterlimit="10" stroke-width="1.5" d="M122.062 120.301H51v5.303h71.062z"/><path fill="#fff" d="M54.287 123.903a1.378 1.378 0 1 0 0-2.756 1.378 1.378 0 0 0 0 2.756m4.457 0a1.378 1.378 0 1 0 0-2.756 1.378 1.378 0 0 0 0 2.756m4.458 0a1.378 1.378 0 1 0 0-2.756 1.378 1.378 0 0 0 0 2.756"/><path fill="#E0ECFF" d="M92.29 130.532H55.233v14.998H92.29zm-15.882 17.646H55.233v18.528h21.175zm41.467-17.646h-22.94v14.998h22.94zm0 17.646h-38.82v18.528h38.82z"/><path fill="#fff" d="M122.062 122.854H51v46.668h71.062z"/><path fill="#3E74FF" stroke="#3E74FF" stroke-miterlimit="10" stroke-width="1.5" d="M122.062 119.672H51v5.304h71.062z"/><path fill="#fff" d="M54.287 123.903a1.378 1.378 0 1 0 0-2.757 1.378 1.378 0 0 0 0 2.757m4.457 0a1.378 1.378 0 1 0 0-2.757 1.378 1.378 0 0 0 0 2.757m4.458 0a1.378 1.378 0 1 0 0-2.757 1.378 1.378 0 0 0 0 2.757"/><path fill="#E0ECFF" d="M92.29 129.903H55.233v14.999H92.29zm-15.882 17.646H55.233v18.528h21.175zm41.467-17.646h-22.94v14.999h22.94zm0 17.646h-38.82v18.528h38.82z"/><path stroke="#3E74FF" stroke-miterlimit="10" stroke-width="1.5" d="M122.062 119.24H51v6.364h71.062z"/><path stroke="#3E74FF" stroke-miterlimit="10" stroke-width="1.5" d="M122.062 119.24H51v50.911h71.062z"/><path fill="#222" d="M31.9 188.268q-.923 0-1.586-.391a2.64 2.64 0 0 1-1.016-1.093q-.351-.7-.352-1.61 0-.922.356-1.617.36-.699 1.02-1.09.66-.394 1.57-.394.784 0 1.375.285.59.285.933.801.344.515.38 1.21h-1.571a1.2 1.2 0 0 0-.352-.722q-.28-.278-.738-.278a1.12 1.12 0 0 0-.676.211q-.285.207-.445.606-.16.398-.16.965 0 .574.156.976.16.402.45.614.288.21.675.21.284 0 .512-.117a1 1 0 0 0 .379-.34q.151-.227.199-.543h1.57a2.46 2.46 0 0 1-.375 1.211 2.26 2.26 0 0 1-.918.813q-.586.293-1.387.293m7.592-2.672v-3.445h1.664v6H39.56v-1.09h-.063q-.202.527-.676.848-.469.32-1.144.32-.602 0-1.059-.274a1.9 1.9 0 0 1-.715-.777q-.254-.504-.258-1.207v-3.82h1.665v3.523q.003.531.285.84t.754.309q.3 0 .562-.137.262-.141.422-.414a1.27 1.27 0 0 0 .16-.676m7.988-1.734-1.524.093a.8.8 0 0 0-.168-.351.9.9 0 0 0-.34-.254 1.2 1.2 0 0 0-.496-.098q-.387 0-.652.164-.266.16-.266.43 0 .214.172.363t.59.239l1.086.218q.874.18 1.305.578.43.399.43 1.047 0 .591-.348 1.035-.345.445-.946.696-.597.246-1.379.246-1.191 0-1.898-.496a1.94 1.94 0 0 1-.824-1.36l1.636-.086q.075.364.36.555.285.188.73.188.438 0 .703-.168.27-.172.274-.442a.46.46 0 0 0-.192-.371q-.187-.148-.578-.226l-1.039-.207q-.879-.177-1.308-.61-.426-.433-.426-1.105 0-.579.312-.996.317-.418.887-.645.574-.226 1.344-.226 1.137 0 1.789.48.656.48.766 1.309m4.376-1.711v1.25h-3.614v-1.25zm-2.794-1.438h1.665v5.594q0 .23.07.359a.4.4 0 0 0 .195.176.8.8 0 0 0 .297.051q.117 0 .234-.02l.18-.035.262 1.238a4 4 0 0 1-.352.09 3 3 0 0 1-.55.067 2.55 2.55 0 0 1-1.055-.16 1.5 1.5 0 0 1-.7-.571q-.25-.387-.245-.976zm6.524 7.555q-.91 0-1.574-.387-.66-.39-1.02-1.086-.36-.699-.36-1.621 0-.93.36-1.625.36-.699 1.02-1.086.663-.39 1.574-.39.91 0 1.57.39.664.387 1.024 1.086.36.696.36 1.625 0 .922-.36 1.621-.36.696-1.024 1.086-.66.387-1.57.387m.008-1.289q.414 0 .691-.235a1.45 1.45 0 0 0 .418-.648 2.8 2.8 0 0 0 .145-.934q0-.523-.145-.933a1.45 1.45 0 0 0-.418-.649 1.03 1.03 0 0 0-.691-.238q-.418 0-.703.238-.282.238-.426.649-.14.41-.14.933t.14.934q.144.41.426.648.285.235.703.235m4.027 1.172v-6h1.586v1.058h.07q.188-.527.625-.832.438-.304 1.047-.304.618 0 1.051.308.434.304.578.828h.063a1.6 1.6 0 0 1 .664-.824q.484-.312 1.144-.312.84 0 1.364.535.527.53.527 1.508v4.035h-1.66v-3.707q0-.501-.266-.75a.93.93 0 0 0-.664-.25q-.453 0-.707.289-.254.285-.254.754v3.664h-1.613v-3.742q0-.442-.254-.704-.25-.261-.66-.261a.92.92 0 0 0-.848.527 1.2 1.2 0 0 0-.129.578v3.602zm11.006.101a.9.9 0 0 1-.664-.273.9.9 0 0 1-.273-.664q0-.383.273-.656a.9.9 0 0 1 .664-.274.9.9 0 0 1 .656.274.88.88 0 0 1 .281.656.9.9 0 0 1-.132.472q-.13.211-.34.34a.9.9 0 0 1-.465.125m5.038.016q-.925 0-1.594-.375a2.57 2.57 0 0 1-1.023-1.07q-.36-.696-.36-1.645 0-.926.36-1.625a2.66 2.66 0 0 1 1.012-1.09q.656-.39 1.539-.39.593 0 1.105.191.516.188.899.566.386.38.601.954.215.57.215 1.335v.457h-5.066v-1.031h3.5a1.27 1.27 0 0 0-.157-.636 1.1 1.1 0 0 0-.433-.434 1.23 1.23 0 0 0-.637-.16q-.38 0-.672.176a1.23 1.23 0 0 0-.453.464q-.164.29-.168.645v.98q0 .446.164.77a1.2 1.2 0 0 0 .473.5q.305.176.722.176.278 0 .508-.078a1.02 1.02 0 0 0 .645-.618l1.539.102a2.1 2.1 0 0 1-.48.969 2.4 2.4 0 0 1-.93.64 3.5 3.5 0 0 1-1.309.227m5.123-6.117 1.102 2.097 1.129-2.097h1.707l-1.739 3 1.785 3h-1.699l-1.183-2.075-1.164 2.075h-1.72l1.782-3-1.719-3zm6.605 6.113q-.574 0-1.024-.199a1.65 1.65 0 0 1-.71-.598q-.26-.398-.259-.992 0-.5.184-.84a1.5 1.5 0 0 1 .5-.547q.315-.207.719-.312.405-.106.851-.149.524-.054.844-.101.32-.051.465-.149a.33.33 0 0 0 .144-.289v-.023q0-.372-.234-.574-.23-.204-.656-.204-.45 0-.715.2a.9.9 0 0 0-.352.492l-1.539-.125q.117-.548.461-.945.345-.403.887-.618.547-.218 1.266-.218.5 0 .957.117.461.117.816.363.36.246.566.633.208.382.208.918v4.047h-1.579v-.832h-.046a1.7 1.7 0 0 1-.387.496q-.243.21-.582.332a2.4 2.4 0 0 1-.785.117m.476-1.148q.367 0 .649-.145.28-.149.441-.398a1.03 1.03 0 0 0 .16-.567v-.637a1 1 0 0 1-.215.094 4 4 0 0 1-.3.074q-.168.032-.336.059l-.305.043a2 2 0 0 0-.512.137.8.8 0 0 0-.34.254.62.62 0 0 0-.12.39q0 .34.245.52.25.176.633.176m4.194 1.035v-6h1.585v1.058h.07q.189-.527.626-.832t1.047-.304q.616 0 1.05.308.434.304.578.828h.063a1.6 1.6 0 0 1 .664-.824q.485-.312 1.145-.312.84 0 1.363.535.527.53.527 1.508v4.035h-1.66v-3.707q0-.501-.265-.75a.93.93 0 0 0-.665-.25q-.453 0-.707.289-.253.285-.253.754v3.664h-1.614v-3.742q0-.442-.254-.704-.249-.261-.66-.261a.92.92 0 0 0-.847.527 1.2 1.2 0 0 0-.13.578v3.602zm10.033 2.25v-8.25h1.64v1.008h.075q.108-.243.316-.493.211-.254.547-.422.34-.171.844-.171.656 0 1.211.343.554.34.886 1.028.332.683.332 1.715 0 1.004-.324 1.695-.32.687-.875 1.043a2.25 2.25 0 0 1-1.234.351q-.485 0-.825-.16a1.7 1.7 0 0 1-.55-.402 2 2 0 0 1-.328-.496h-.051v3.211zm1.629-5.25q0 .535.148.933.148.399.43.621.28.219.683.219.406 0 .688-.223.28-.226.426-.625a2.7 2.7 0 0 0 .148-.925q0-.52-.144-.914a1.4 1.4 0 0 0-.426-.618 1.08 1.08 0 0 0-.692-.222q-.407 0-.687.215a1.35 1.35 0 0 0-.426.609 2.6 2.6 0 0 0-.148.93m6.996-5v8h-1.664v-8zm4.067 8.117q-.925 0-1.594-.375a2.57 2.57 0 0 1-1.023-1.07q-.36-.696-.359-1.645 0-.926.359-1.625a2.66 2.66 0 0 1 1.012-1.09q.656-.39 1.539-.39.594 0 1.105.191.515.188.899.566.386.38.601.954.215.57.215 1.335v.457h-5.066v-1.031h3.5q0-.36-.157-.636a1.1 1.1 0 0 0-.433-.434 1.24 1.24 0 0 0-.637-.16q-.38 0-.672.176a1.2 1.2 0 0 0-.453.464 1.3 1.3 0 0 0-.168.645v.98q0 .446.164.77.168.324.473.5t.722.176q.278 0 .508-.078.23-.08.395-.235.163-.156.25-.383l1.539.102q-.117.555-.481.969a2.4 2.4 0 0 1-.929.64 3.5 3.5 0 0 1-1.309.227m4.813-.016a.9.9 0 0 1-.664-.273.9.9 0 0 1-.274-.664q0-.383.274-.656a.9.9 0 0 1 .664-.274.9.9 0 0 1 .656.274.88.88 0 0 1 .281.656.9.9 0 0 1-.133.472 1 1 0 0 1-.34.34.9.9 0 0 1-.464.125m5.014.016q-.921 0-1.586-.391a2.64 2.64 0 0 1-1.015-1.093q-.352-.7-.352-1.61 0-.922.356-1.617a2.64 2.64 0 0 1 1.019-1.09q.66-.394 1.57-.394.786 0 1.375.285.59.285.934.801.343.515.379 1.21h-1.57a1.22 1.22 0 0 0-.352-.722q-.281-.278-.738-.278a1.12 1.12 0 0 0-.676.211q-.285.207-.445.606-.16.398-.16.965 0 .574.156.976.16.402.449.614.29.21.676.21.285 0 .511-.117a1 1 0 0 0 .379-.34q.153-.227.2-.543h1.57a2.46 2.46 0 0 1-.375 1.211 2.26 2.26 0 0 1-.918.813q-.586.293-1.387.293m6.456 0q-.91 0-1.574-.387-.66-.39-1.019-1.086-.36-.699-.36-1.621 0-.93.36-1.625a2.6 2.6 0 0 1 1.019-1.086q.665-.39 1.574-.39.91 0 1.571.39.663.387 1.023 1.086.36.696.359 1.625 0 .922-.359 1.621a2.64 2.64 0 0 1-1.023 1.086q-.661.387-1.571.387m.008-1.289q.414 0 .692-.235a1.45 1.45 0 0 0 .417-.648q.145-.41.145-.934 0-.523-.145-.933a1.45 1.45 0 0 0-.417-.649 1.03 1.03 0 0 0-.692-.238q-.418 0-.703.238a1.47 1.47 0 0 0-.426.649 2.9 2.9 0 0 0-.14.933q0 .524.14.934.145.41.426.648.285.235.703.235m4.027 1.172v-6h1.586v1.058h.071q.187-.527.625-.832.436-.304 1.047-.304.616 0 1.05.308.434.304.578.828h.063a1.6 1.6 0 0 1 .664-.824q.484-.312 1.145-.312.839 0 1.363.535.527.53.527 1.508v4.035h-1.66v-3.707q0-.501-.266-.75a.93.93 0 0 0-.664-.25q-.452 0-.707.289-.254.285-.254.754v3.664h-1.613v-3.742q0-.442-.254-.704-.249-.261-.66-.261a.9.9 0 0 0-.5.14.96.96 0 0 0-.348.387 1.2 1.2 0 0 0-.128.578v3.602z"/><path stroke="#D9D9D9" stroke-dasharray="10 10" stroke-width="2" d="M277 128h248v38H277z"/><path fill="#222" d="M320.957 144.086v1.364h-4.04v-1.364zm-3.115 6.546v-7.019q0-.712.277-1.18.281-.47.767-.703a2.5 2.5 0 0 1 1.104-.235q.418 0 .763.064.35.064.52.115l-.324 1.364a2 2 0 0 0-.265-.064 1.6 1.6 0 0 0-.315-.03q-.4 0-.558.188-.158.183-.158.515v6.985zm5.856.123q-.625 0-1.116-.217a1.8 1.8 0 0 1-.776-.652q-.28-.435-.281-1.083 0-.545.2-.916.201-.37.546-.596a2.6 2.6 0 0 1 .784-.341q.443-.115.929-.162.571-.06.92-.111.35-.056.507-.162a.35.35 0 0 0 .158-.315v-.026q0-.405-.256-.626-.25-.222-.716-.222-.49 0-.779.218a1 1 0 0 0-.384.536l-1.679-.136q.128-.597.503-1.031.375-.44.967-.673.597-.24 1.381-.239.546 0 1.044.128.503.128.891.396.392.268.618.69.225.418.225 1.002v4.415h-1.721v-.908h-.051a1.9 1.9 0 0 1-.422.541 1.9 1.9 0 0 1-.635.362 2.6 2.6 0 0 1-.857.128m.52-1.253q.4 0 .708-.157.307-.162.481-.435.175-.273.175-.618v-.694a1 1 0 0 1-.235.102 5 5 0 0 1-.328.081q-.183.034-.366.064l-.333.047a2.2 2.2 0 0 0-.558.149.9.9 0 0 0-.37.277.67.67 0 0 0-.133.426q0 .37.269.567.273.19.69.191m6.39-7.598v8.728h-1.815v-8.728zm3.27 0v8.728h-1.816v-8.728zm1.488 8.728v-8.728h1.815v3.282h.056a2.3 2.3 0 0 1 .345-.537q.23-.277.596-.461.371-.187.921-.187.716 0 1.321.375.605.37.967 1.121.363.745.362 1.87 0 1.096-.353 1.85-.35.75-.955 1.138-.6.383-1.346.383-.529 0-.9-.175a1.8 1.8 0 0 1-.6-.439 2.2 2.2 0 0 1-.358-.541h-.081v1.049zm1.777-3.273q0 .584.162 1.018t.469.678q.306.239.745.239.444 0 .75-.243a1.5 1.5 0 0 0 .465-.682q.162-.439.162-1.01 0-.567-.158-.997a1.5 1.5 0 0 0-.464-.674 1.18 1.18 0 0 0-.755-.242q-.442 0-.75.234a1.47 1.47 0 0 0-.464.665 2.9 2.9 0 0 0-.162 1.014m7.684 3.396q-.626 0-1.116-.217a1.8 1.8 0 0 1-.776-.652q-.28-.435-.281-1.083 0-.545.2-.916.201-.37.546-.596a2.6 2.6 0 0 1 .784-.341q.443-.115.929-.162.57-.06.92-.111.35-.056.507-.162a.36.36 0 0 0 .158-.315v-.026q0-.405-.256-.626-.25-.222-.716-.222-.49 0-.779.218a1 1 0 0 0-.384.536l-1.679-.136q.128-.597.503-1.031.375-.44.967-.673.597-.24 1.381-.239.546 0 1.044.128.502.128.891.396.392.268.617.69.226.418.226 1.002v4.415h-1.721v-.908h-.051a1.9 1.9 0 0 1-.422.541 1.9 1.9 0 0 1-.635.362 2.6 2.6 0 0 1-.857.128m.52-1.253q.4 0 .708-.157.306-.162.481-.435t.175-.618v-.694a1 1 0 0 1-.235.102 5 5 0 0 1-.328.081q-.183.034-.366.064l-.333.047a2.2 2.2 0 0 0-.558.149.9.9 0 0 0-.371.277.67.67 0 0 0-.132.426q0 .37.269.567.273.19.69.191m7.532 1.257q-1.005 0-1.73-.426a2.9 2.9 0 0 1-1.108-1.193q-.384-.762-.384-1.756 0-1.005.388-1.764a2.9 2.9 0 0 1 1.112-1.189q.721-.43 1.714-.43.857 0 1.5.311t1.018.874.413 1.321h-1.713q-.072-.49-.383-.789-.307-.302-.806-.302-.422 0-.737.23-.31.226-.486.66-.174.435-.174 1.053 0 .626.17 1.065.175.44.49.669t.737.23q.312 0 .559-.127.25-.129.413-.371.166-.247.217-.593h1.713a2.67 2.67 0 0 1-.409 1.321 2.47 2.47 0 0 1-1.001.887q-.64.32-1.513.319m5.731-2.011.004-2.177h.264l2.097-2.485h2.083l-2.816 3.29h-.431zm-1.645 1.884v-8.728h1.815v8.728zm4.091 0-1.927-2.851 1.211-1.283 2.842 4.134zm3.954.11a1 1 0 0 1-.724-.298 1 1 0 0 1-.299-.724q0-.418.299-.716a1 1 0 0 1 .724-.299q.409 0 .716.299a.96.96 0 0 1 .307.716.96.96 0 0 1-.145.515 1.1 1.1 0 0 1-.371.371.97.97 0 0 1-.507.136m2.513-.11v-6.546h1.73v1.155h.077q.205-.576.682-.908t1.142-.332q.673 0 1.146.337.474.332.631.903h.068a1.74 1.74 0 0 1 .725-.899q.528-.34 1.248-.341.917 0 1.487.584.576.579.576 1.645v4.402h-1.811v-4.044q0-.546-.29-.819a1.02 1.02 0 0 0-.725-.272q-.494 0-.771.315-.277.311-.277.822v3.998h-1.76v-4.083q0-.481-.277-.767-.273-.285-.72-.285-.303 0-.546.153-.238.149-.379.422-.14.268-.14.631v3.929zm11.832 2.454q-.345 0-.648-.055a2.4 2.4 0 0 1-.494-.132l.409-1.355q.32.097.575.106a.73.73 0 0 0 .448-.119q.192-.127.311-.435l.106-.277-2.348-6.733h1.909l1.356 4.807h.068l1.368-4.807h1.921l-2.544 7.253a3 3 0 0 1-.498.92q-.312.397-.788.61-.478.217-1.151.217m7.601-2.331q-.626 0-1.116-.217a1.8 1.8 0 0 1-.776-.652q-.28-.435-.281-1.083 0-.545.2-.916.2-.37.546-.596a2.6 2.6 0 0 1 .784-.341q.443-.115.929-.162.57-.06.92-.111.35-.056.507-.162a.36.36 0 0 0 .158-.315v-.026q0-.405-.256-.626-.25-.222-.716-.222-.489 0-.78.218a1 1 0 0 0-.383.536l-1.679-.136q.128-.597.503-1.031.375-.44.967-.673.597-.24 1.381-.239.545 0 1.044.128.503.128.89.396.393.268.618.69.226.418.226 1.002v4.415h-1.721v-.908h-.052a1.9 1.9 0 0 1-.421.541 2 2 0 0 1-.635.362 2.6 2.6 0 0 1-.857.128m.52-1.253q.4 0 .707-.157.307-.162.482-.435t.175-.618v-.694a1 1 0 0 1-.235.102 5 5 0 0 1-.328.081q-.183.034-.366.064l-.333.047a2.2 2.2 0 0 0-.558.149.9.9 0 0 0-.371.277.67.67 0 0 0-.132.426q0 .37.269.567.273.19.69.191m4.575 3.584v-9h1.789v1.1h.081a2.4 2.4 0 0 1 .346-.537q.23-.277.596-.461.37-.187.921-.187.715 0 1.321.375.604.37.967 1.121.362.745.362 1.87 0 1.096-.354 1.85-.35.75-.954 1.138-.601.383-1.347.383-.528 0-.899-.175a1.9 1.9 0 0 1-.601-.439 2.2 2.2 0 0 1-.358-.541h-.055v3.503zm1.777-5.727q0 .584.162 1.018.161.435.468.678.307.239.746.239.443 0 .75-.243.307-.247.465-.682.16-.439.161-1.01 0-.567-.157-.997a1.5 1.5 0 0 0-.465-.674 1.18 1.18 0 0 0-.754-.242q-.443 0-.75.234a1.46 1.46 0 0 0-.464.665 2.9 2.9 0 0 0-.162 1.014m5.816 5.727v-9h1.79v1.1h.081q.12-.266.345-.537a1.8 1.8 0 0 1 .597-.461q.37-.187.92-.187.717 0 1.321.375.606.37.968 1.121.362.745.362 1.87 0 1.096-.354 1.85-.35.75-.954 1.138-.601.383-1.347.383-.528 0-.899-.175a1.8 1.8 0 0 1-.601-.439 2.2 2.2 0 0 1-.358-.541h-.055v3.503zm1.777-5.727q0 .584.162 1.018t.469.678q.307.239.746.239.442 0 .75-.243.306-.247.464-.682.162-.439.162-1.01 0-.567-.157-.997a1.5 1.5 0 0 0-.465-.674 1.18 1.18 0 0 0-.754-.242q-.444 0-.75.234a1.47 1.47 0 0 0-.465.665 2.9 2.9 0 0 0-.162 1.014m8.8 3.4q-1.01 0-1.739-.409a2.8 2.8 0 0 1-1.116-1.167q-.392-.759-.392-1.794 0-1.011.392-1.773a2.9 2.9 0 0 1 1.104-1.189q.716-.426 1.679-.426.647 0 1.206.209.562.204.98.618.422.413.656 1.039.234.622.234 1.458v.498h-5.527v-1.125h3.819q0-.392-.171-.694a1.2 1.2 0 0 0-.473-.473 1.34 1.34 0 0 0-.695-.175 1.4 1.4 0 0 0-.733.192q-.315.188-.494.507-.178.315-.183.703v1.07q0 .485.179.839.183.354.516.546.332.19.788.191.303 0 .554-.085t.43-.256q.18-.17.273-.417l1.679.111a2.3 2.3 0 0 1-.524 1.056q-.393.449-1.014.699-.618.247-1.428.247m5.589-6.673 1.202 2.288 1.231-2.288h1.862l-1.896 3.273 1.947 3.273h-1.853l-1.291-2.263-1.27 2.263h-1.875l1.943-3.273-1.875-3.273zm7.205 6.669q-.627 0-1.117-.217a1.8 1.8 0 0 1-.775-.652q-.282-.435-.282-1.083 0-.545.201-.916.2-.37.545-.596.346-.227.784-.341.443-.115.929-.162.571-.06.921-.111.35-.056.507-.162a.36.36 0 0 0 .157-.315v-.026q0-.405-.255-.626-.251-.222-.716-.222-.49 0-.78.218a1 1 0 0 0-.383.536l-1.679-.136q.127-.597.502-1.031.375-.44.968-.673.596-.24 1.38-.239.546 0 1.044.128.504.128.891.396.392.268.618.69.226.418.226 1.002v4.415h-1.722v-.908h-.051a1.9 1.9 0 0 1-.422.541 1.9 1.9 0 0 1-.635.362 2.6 2.6 0 0 1-.856.128m.52-1.253q.4 0 .707-.157.307-.162.482-.435.174-.273.174-.618v-.694a1 1 0 0 1-.234.102 5 5 0 0 1-.695.145l-.332.047a2.2 2.2 0 0 0-.558.149.9.9 0 0 0-.371.277.67.67 0 0 0-.132.426q0 .37.268.567.273.19.691.191m4.574 1.13v-6.546h1.73v1.155h.077q.204-.576.682-.908.477-.332 1.142-.332.674 0 1.146.337.474.332.631.903h.068q.2-.563.724-.899.53-.34 1.249-.341.917 0 1.487.584.576.579.576 1.645v4.402h-1.812v-4.044q0-.546-.289-.819a1.02 1.02 0 0 0-.725-.272q-.493 0-.771.315-.277.311-.277.822v3.998h-1.76v-4.083q0-.481-.277-.767-.273-.285-.72-.285-.303 0-.546.153-.238.149-.379.422-.14.268-.14.631v3.929zm10.946 2.454v-9h1.789v1.1h.081q.12-.266.345-.537a1.8 1.8 0 0 1 .597-.461q.37-.187.92-.187.717 0 1.321.375.606.37.968 1.121.362.745.362 1.87 0 1.096-.354 1.85-.35.75-.954 1.138-.602.383-1.347.383-.528 0-.899-.175a1.8 1.8 0 0 1-.601-.439 2.2 2.2 0 0 1-.358-.541h-.055v3.503zm1.776-5.727q0 .584.162 1.018t.469.678q.307.239.746.239.442 0 .75-.243.306-.247.464-.682.162-.439.162-1.01 0-.567-.157-.997a1.5 1.5 0 0 0-.465-.674 1.18 1.18 0 0 0-.754-.242q-.444 0-.75.234a1.47 1.47 0 0 0-.465.665 2.9 2.9 0 0 0-.162 1.014m7.633-5.455v8.728h-1.816v-8.728zm4.437 8.855q-1.01 0-1.739-.409a2.8 2.8 0 0 1-1.116-1.167q-.393-.759-.392-1.794 0-1.011.392-1.773a2.9 2.9 0 0 1 1.103-1.189q.716-.426 1.679-.426.648 0 1.206.209.563.204.98.618.422.413.657 1.039.234.622.234 1.458v.498h-5.527v-1.125h3.818q0-.392-.17-.694a1.2 1.2 0 0 0-.473-.473 1.35 1.35 0 0 0-.695-.175q-.413 0-.733.192-.315.188-.494.507-.18.315-.183.703v1.07q0 .485.179.839.183.354.515.546.333.19.789.191.302 0 .554-.085.251-.085.43-.256.178-.17.273-.417l1.679.111a2.3 2.3 0 0 1-.524 1.056q-.393.449-1.015.699-.617.247-1.427.247m5.25-.017a1 1 0 0 1-.725-.298 1 1 0 0 1-.298-.724q0-.418.298-.716a1 1 0 0 1 .725-.299q.408 0 .716.299a.96.96 0 0 1 .306.716.96.96 0 0 1-.144.515 1.1 1.1 0 0 1-.371.371 1 1 0 0 1-.507.136m5.47.017q-1.005 0-1.73-.426a2.9 2.9 0 0 1-1.108-1.193q-.383-.762-.383-1.756 0-1.005.387-1.764a2.9 2.9 0 0 1 1.113-1.189q.72-.43 1.713-.43.857 0 1.5.311t1.018.874.414 1.321h-1.714q-.072-.49-.383-.789-.307-.302-.805-.302-.422 0-.738.23-.31.226-.485.66t-.175 1.053q0 .626.17 1.065.175.44.49.669.316.23.738.23a1.2 1.2 0 0 0 .558-.127q.25-.129.413-.371.166-.247.217-.593h1.714a2.7 2.7 0 0 1-.41 1.321 2.47 2.47 0 0 1-1.001.887q-.639.32-1.513.319m7.043 0q-.993 0-1.717-.421a2.9 2.9 0 0 1-1.112-1.185q-.392-.763-.392-1.769 0-1.014.392-1.772a2.85 2.85 0 0 1 1.112-1.185q.724-.426 1.717-.426t1.713.426q.724.422 1.117 1.185.392.758.392 1.772 0 1.006-.392 1.769-.393.758-1.117 1.185-.72.421-1.713.421m.009-1.406q.451 0 .754-.255.303-.261.456-.708.158-.447.158-1.018 0-.572-.158-1.019a1.6 1.6 0 0 0-.456-.707 1.12 1.12 0 0 0-.754-.26q-.456 0-.767.26-.308.26-.465.707a3.1 3.1 0 0 0-.153 1.019q0 .57.153 1.018.157.447.465.708.31.255.767.255m4.393 1.279v-6.546h1.73v1.155h.077q.204-.576.682-.908.477-.332 1.142-.332.673 0 1.146.337.474.332.631.903h.068a1.74 1.74 0 0 1 .725-.899q.528-.34 1.248-.341.917 0 1.487.584.576.579.576 1.645v4.402h-1.811v-4.044q0-.546-.29-.819a1.02 1.02 0 0 0-.725-.272q-.493 0-.771.315-.277.311-.277.822v3.998h-1.76v-4.083q0-.481-.277-.767-.273-.285-.72-.285-.303 0-.546.153-.238.149-.379.422-.14.268-.14.631v3.929z"/><path fill="#000" d="M251.707 148.707a1 1 0 0 0 0-1.414l-6.364-6.364a.999.999 0 1 0-1.414 1.414l5.657 5.657-5.657 5.657a.999.999 0 1 0 1.414 1.414zM139 149h112v-2H139zm525.707-1.293a1 1 0 0 0 0-1.414l-6.364-6.364a.999.999 0 1 0-1.414 1.414l5.657 5.657-5.657 5.657a.999.999 0 1 0 1.414 1.414zM552 148h112v-2H552z"/><circle cx="194.993" cy="92.993" r="17.992" fill="#E2F5FA" stroke="#0055DC" stroke-width="2"/><path fill="#000" d="M196.873 85.824v12.823h-2.531v-9.905l-3.041.967v-1.995l5.3-1.89z"/><circle cx="607.992" cy="92.993" r="17.992" fill="#E2F5FA" stroke="#0055DC" stroke-width="2"/><path fill="#000" d="M612.457 96.67v1.977h-8.753V96.96l4.139-4.439q.624-.695.985-1.221.36-.537.518-.958a2.3 2.3 0 0 0 .167-.818q0-.58-.193-.993a1.44 1.44 0 0 0-.572-.65q-.368-.23-.914-.229-.579 0-1.002.281a1.8 1.8 0 0 0-.632.783 2.9 2.9 0 0 0-.211 1.133h-2.54q0-1.142.545-2.091a4 4 0 0 1 1.538-1.52q.993-.573 2.355-.572 1.345 0 2.268.44.932.43 1.406 1.247.483.81.483 1.934 0 .633-.202 1.24a5.6 5.6 0 0 1-.58 1.194 10 10 0 0 1-.896 1.196q-.528.606-1.169 1.257l-2.224 2.496z"/><path fill="#222" d="M712.419 167.636q0 1.428-.541 2.429a3.75 3.75 0 0 1-1.466 1.53q-.925.524-2.08.524-1.162 0-2.088-.528-.924-.528-1.461-1.53t-.537-2.425q0-1.427.537-2.429t1.461-1.525q.926-.529 2.088-.529 1.155 0 2.08.529.929.524 1.466 1.525.541 1.002.541 2.429m-1.871 0q0-.924-.277-1.559-.273-.636-.771-.963-.499-.328-1.168-.328t-1.167.328q-.499.327-.776.963-.273.635-.273 1.559 0 .925.273 1.56.277.634.776.963.498.328 1.167.328.67 0 1.168-.328.498-.329.771-.963.277-.635.277-1.56m3.204 4.364v-6.545h1.76v1.142h.068q.179-.61.601-.921a1.58 1.58 0 0 1 .971-.315 2.6 2.6 0 0 1 .571.064v1.611a3.2 3.2 0 0 0-.767-.098 1.46 1.46 0 0 0-.716.174 1.3 1.3 0 0 0-.494.477 1.4 1.4 0 0 0-.179.708V172zm4.91 0v-6.545h1.815V172zm.912-7.389a1 1 0 0 1-.695-.269.87.87 0 0 1-.285-.652q0-.375.285-.643a.98.98 0 0 1 .695-.273q.405 0 .69.273.29.268.29.643a.86.86 0 0 1-.29.652.97.97 0 0 1-.69.269m5.306 9.98q-.882 0-1.512-.243-.626-.238-.998-.652a2 2 0 0 1-.481-.929l1.679-.226q.076.196.243.367t.439.272q.276.107.673.107.592 0 .976-.29.387-.285.388-.959v-1.197h-.077a1.74 1.74 0 0 1-.972.912q-.375.153-.895.153-.737 0-1.342-.341-.601-.345-.959-1.052-.354-.712-.353-1.799 0-1.112.362-1.857.361-.747.963-1.117a2.5 2.5 0 0 1 1.325-.371q.55 0 .921.188.37.183.596.46.23.273.354.537h.068v-1.099h1.803v6.609q0 .835-.409 1.398-.41.563-1.134.843-.72.286-1.658.286m.039-4.048q.438 0 .741-.218.307-.221.469-.63.166-.414.166-.989 0-.576-.162-.997a1.46 1.46 0 0 0-.469-.661 1.2 1.2 0 0 0-.745-.234q-.448 0-.755.243-.306.238-.464.665a2.8 2.8 0 0 0-.158.984q0 .567.158.98.162.409.464.635.307.222.755.222m4.606 1.457v-6.545h1.816V172zm.912-7.389a1 1 0 0 1-.694-.269.87.87 0 0 1-.286-.652.85.85 0 0 1 .286-.643.98.98 0 0 1 .694-.273q.405 0 .69.273.29.268.29.643a.86.86 0 0 1-.29.652.97.97 0 0 1-.69.269m4.173 3.605V172h-1.815v-6.545h1.73v1.154h.077q.216-.57.728-.903.512-.337 1.24-.337.682 0 1.189.299.507.298.789.852.28.55.281 1.312V172h-1.816v-3.844q.005-.6-.306-.937-.311-.341-.857-.341-.366 0-.648.158a1.1 1.1 0 0 0-.434.46 1.6 1.6 0 0 0-.158.72m13.195-2.433q-.05-.516-.439-.801-.387-.286-1.052-.286-.451 0-.763.128a1.07 1.07 0 0 0-.477.345.83.83 0 0 0-.162.503.7.7 0 0 0 .098.409q.111.174.302.303.192.123.444.217.25.09.537.153l.784.188q.57.128 1.048.341.477.213.827.524t.541.733q.196.421.2.967-.004.801-.409 1.389-.4.585-1.159.908-.754.32-1.82.32-1.056 0-1.841-.324-.78-.324-1.218-.959-.435-.639-.456-1.581h1.785q.03.44.252.733.226.29.601.439.379.144.856.145.47 0 .814-.137.35-.136.541-.379a.88.88 0 0 0 .192-.558.72.72 0 0 0-.175-.494 1.3 1.3 0 0 0-.503-.341 5 5 0 0 0-.805-.256l-.95-.239q-1.104-.269-1.743-.839-.64-.572-.635-1.539-.004-.792.422-1.384a2.84 2.84 0 0 1 1.18-.925q.75-.333 1.705-.333.971 0 1.696.333.729.332 1.133.925.405.591.418 1.372zm6.078 6.345q-1.01 0-1.738-.409a2.8 2.8 0 0 1-1.117-1.168q-.392-.759-.392-1.794 0-1.01.392-1.773a2.9 2.9 0 0 1 1.104-1.189q.716-.426 1.679-.426.648 0 1.206.209.562.204.98.618.422.414.656 1.04.234.622.234 1.457v.499h-5.527v-1.125h3.819q0-.392-.171-.695a1.2 1.2 0 0 0-.473-.473 1.35 1.35 0 0 0-.694-.175q-.414 0-.733.192a1.35 1.35 0 0 0-.495.507 1.44 1.44 0 0 0-.183.703v1.07q0 .486.179.84.183.353.516.545.332.192.788.192.303 0 .554-.085t.43-.256a1.1 1.1 0 0 0 .273-.418l1.679.111q-.128.605-.524 1.057-.392.447-1.014.699-.618.246-1.428.247m4.189-.128v-6.545h1.76v1.142h.068q.18-.61.601-.921a1.58 1.58 0 0 1 .972-.315 2.6 2.6 0 0 1 .571.064v1.611a3.2 3.2 0 0 0-.767-.098q-.4 0-.716.174a1.3 1.3 0 0 0-.495.477 1.4 1.4 0 0 0-.179.708V172zm11.212-6.545L766.995 172h-2.045l-2.288-6.545h1.917l1.36 4.683h.068l1.355-4.683zm3.701 6.673q-1.01 0-1.739-.409a2.8 2.8 0 0 1-1.116-1.168q-.392-.759-.392-1.794 0-1.01.392-1.773a2.9 2.9 0 0 1 1.103-1.189q.716-.426 1.679-.426.648 0 1.206.209.563.204.98.618.422.414.657 1.04.234.622.234 1.457v.499h-5.527v-1.125h3.818q0-.392-.17-.695a1.23 1.23 0 0 0-.473-.473 1.36 1.36 0 0 0-.695-.175q-.413 0-.733.192-.315.188-.494.507a1.43 1.43 0 0 0-.183.703v1.07q0 .486.179.84.183.353.515.545.333.192.789.192.302 0 .554-.085.251-.086.43-.256t.273-.418l1.679.111q-.128.605-.525 1.057a2.6 2.6 0 0 1-1.014.699q-.618.246-1.427.247m4.189-.128v-6.545h1.76v1.142h.068q.178-.61.601-.921a1.58 1.58 0 0 1 .971-.315 2.6 2.6 0 0 1 .571.064v1.611a3.2 3.2 0 0 0-.767-.098 1.46 1.46 0 0 0-.716.174 1.3 1.3 0 0 0-.494.477 1.4 1.4 0 0 0-.179.708V172z"/><path fill="#0055DC" d="M714.221 123.025H712v11.429h2.221zm57.932 0h-2.221v11.429h2.221z"/><path fill="#fff" stroke="#0055DC" stroke-miterlimit="10" stroke-width="1.5" d="M717.262 136.491v2.169l49.627-.003v-2.169z"/><path fill="#C5EBF5" stroke="#0055DC" stroke-miterlimit="10" stroke-width="1.5" d="M769.932 121H714.22v15.489h55.712z"/><path fill="#fff" d="M767.526 134.305v-11.121h-50.899v11.121z"/><path fill="#0055DC" d="M720.759 126.324h-1.234v1.204h1.234zm0 3.625h-1.234v1.205h1.234zm1.688-1.91h-1.233v1.204h1.233zm1.501-1.715h-1.233v1.204h1.233zm0 3.625h-1.233v1.205h1.233zm1.595-1.91h-1.233v1.204h1.233zm1.887-1.715h-1.233v1.204h1.233zm0 3.625h-1.233v1.205h1.233zm1.595-1.91h-1.233v1.204h1.233zm1.941-1.715h-1.233v1.204h1.233zm0 3.625h-1.233v1.205h1.233zm1.501-1.91h-1.233v1.204h1.233zm1.688-1.715h-1.233v1.204h1.233zm0 3.625h-1.233v1.205h1.233zm1.408-1.91h-1.233v1.204h1.233zm1.783-1.715h-1.233v1.204h1.233zm0 3.625h-1.233v1.205h1.233zm1.314-1.91h-1.233v1.204h1.233zm24.822 2.201c.846 0 1.531-.67 1.531-1.496 0-.825-.685-1.495-1.531-1.495s-1.531.67-1.531 1.495.686 1.496 1.531 1.496"/><path stroke="#0055DC" stroke-miterlimit="10" stroke-width="1.5" d="M759.08 128.744h-16.213"/><path fill="#0055DC" d="M728.003 130.264h-2.22v11.429h2.22zm57.932 0h-2.22v11.429h2.22z"/><path fill="#fff" stroke="#0055DC" stroke-miterlimit="10" stroke-width="1.5" d="M731.045 143.729v2.169l49.627-.003v-2.168z"/><path fill="#C5EBF5" stroke="#0055DC" stroke-miterlimit="10" stroke-width="1.5" d="M783.714 128.239h-55.711v15.488h55.711z"/><path fill="#fff" d="M781.308 141.543v-11.121H730.41v11.121z"/><path fill="#0055DC" d="M734.541 133.562h-1.233v1.205h1.233zm0 3.626h-1.233v1.204h1.233zm1.688-1.911h-1.233v1.205h1.233zm1.502-1.715h-1.234v1.205h1.234zm0 3.626h-1.234v1.204h1.234zm1.595-1.911h-1.233v1.205h1.233zm1.887-1.715h-1.233v1.205h1.233zm0 3.626h-1.233v1.204h1.233zm1.595-1.911h-1.233v1.205h1.233zm1.94-1.715h-1.233v1.205h1.233zm0 3.626h-1.233v1.204h1.233zm1.502-1.911h-1.234v1.205h1.234zm1.688-1.715h-1.233v1.205h1.233zm0 3.626h-1.233v1.204h1.233zm1.408-1.911h-1.233v1.205h1.233zm1.783-1.715h-1.233v1.205h1.233zm0 3.626h-1.233v1.204h1.233zm1.314-1.911h-1.234v1.205h1.234zm24.822 2.201c.845 0 1.531-.669 1.531-1.495s-.686-1.495-1.531-1.495c-.846 0-1.531.669-1.531 1.495s.685 1.495 1.531 1.495"/><path stroke="#0055DC" stroke-miterlimit="10" stroke-width="1.5" d="M772.863 135.983h-16.214"/><path stroke="#F63" stroke-dasharray="2 2" stroke-width="2" d="M232 51h341v161H232z"/><path fill="#F63" d="M252.267 64.328h-1.866a1.8 1.8 0 0 0-.209-.643 1.6 1.6 0 0 0-.405-.486 1.8 1.8 0 0 0-.571-.307 2.2 2.2 0 0 0-.694-.107q-.678 0-1.181.337-.502.333-.78.972-.276.635-.277 1.542 0 .934.277 1.569.281.634.785.958a2.1 2.1 0 0 0 1.163.324q.37 0 .686-.098.32-.097.567-.285.246-.192.409-.465.166-.273.23-.622l1.866.009q-.072.6-.362 1.159-.285.553-.771.993-.482.435-1.151.69a4.2 4.2 0 0 1-1.504.251q-1.167 0-2.088-.528-.916-.528-1.449-1.53-.528-1.002-.528-2.425 0-1.427.537-2.429.536-1.001 1.457-1.525.92-.529 2.071-.529.758 0 1.406.214.653.213 1.155.622.503.405.818.992.32.589.409 1.347m3.105-3.055V70h-1.816v-8.727zm4.411 8.855q-.993 0-1.717-.422a2.9 2.9 0 0 1-1.112-1.185q-.392-.762-.392-1.768 0-1.014.392-1.773a2.85 2.85 0 0 1 1.112-1.185q.724-.426 1.717-.426t1.713.426q.725.423 1.117 1.185.392.759.392 1.773 0 1.006-.392 1.768-.392.758-1.117 1.185-.72.422-1.713.422m.009-1.406q.451 0 .754-.256.303-.26.456-.707.158-.448.158-1.019 0-.57-.158-1.018a1.6 1.6 0 0 0-.456-.708 1.12 1.12 0 0 0-.754-.26q-.456 0-.767.26-.308.261-.465.708a3.1 3.1 0 0 0-.153 1.018q0 .57.153 1.019.158.447.465.707.31.256.767.256m8.591-1.509v-3.758h1.815V70h-1.743v-1.189h-.068a1.93 1.93 0 0 1-.737.925q-.511.35-1.249.35-.656 0-1.155-.3a2.05 2.05 0 0 1-.779-.847q-.278-.55-.282-1.317v-4.167h1.816v3.843q.004.58.311.916.306.337.822.337.329 0 .614-.149a1.17 1.17 0 0 0 .46-.452q.179-.298.175-.737m5.679 2.894q-.745 0-1.351-.384-.6-.387-.954-1.138-.35-.755-.35-1.85 0-1.125.363-1.87.361-.75.963-1.12.605-.376 1.325-.376.55 0 .916.188.37.183.597.46.23.272.349.537h.055v-3.281h1.812V70h-1.79v-1.048h-.077a2.3 2.3 0 0 1-.362.54 1.8 1.8 0 0 1-.601.44q-.367.174-.895.174m.575-1.445q.44 0 .742-.239.307-.243.469-.677.166-.435.166-1.019t-.162-1.014a1.45 1.45 0 0 0-.469-.665 1.2 1.2 0 0 0-.746-.234q-.447 0-.754.243a1.5 1.5 0 0 0-.464.673q-.158.431-.158.997 0 .572.158 1.01.161.435.464.682.307.243.754.243m8.162-5.208v1.364h-4.04v-1.363zM279.684 70v-7.019q0-.71.277-1.18.28-.468.767-.703a2.5 2.5 0 0 1 1.104-.234q.417-.001.762.064.35.063.52.115l-.324 1.363a2 2 0 0 0-.264-.064 1.6 1.6 0 0 0-.315-.03q-.4 0-.558.188-.158.183-.158.516V70zm6.039-8.727V70h-1.815v-8.727zm3.321 8.85q-.627 0-1.116-.217a1.8 1.8 0 0 1-.776-.652q-.281-.435-.281-1.082 0-.547.2-.916.2-.371.545-.597t.785-.34q.443-.117.929-.163.57-.06.92-.11.35-.057.507-.163a.36.36 0 0 0 .158-.315v-.025q0-.406-.256-.627-.251-.22-.716-.221-.49 0-.78.217a1 1 0 0 0-.383.537l-1.679-.136a2.3 2.3 0 0 1 .503-1.032 2.4 2.4 0 0 1 .967-.673q.597-.24 1.381-.239.544 0 1.044.128.503.128.89.397.393.268.618.69.226.417.226 1.001V70h-1.721v-.908h-.052a1.8 1.8 0 0 1-.421.541 2 2 0 0 1-.635.363 2.6 2.6 0 0 1-.857.128m.52-1.252q.4 0 .707-.158.307-.162.482-.435.175-.272.175-.618v-.694a1 1 0 0 1-.235.102 4 4 0 0 1-.328.081 16 16 0 0 1-.366.064l-.333.047a2.3 2.3 0 0 0-.558.15.9.9 0 0 0-.371.276.68.68 0 0 0-.132.426q0 .37.269.567.272.192.69.192M294.138 70v-6.545h1.76v1.142h.069q.178-.61.6-.92.423-.316.972-.316a3 3 0 0 1 .571.064v1.61a2.4 2.4 0 0 0-.354-.068q-.225-.03-.413-.03-.4 0-.716.175a1.3 1.3 0 0 0-.494.478q-.18.306-.179.707V70zm7.589.128q-1.01 0-1.739-.41a2.8 2.8 0 0 1-1.116-1.167q-.392-.758-.392-1.794 0-1.01.392-1.773a2.9 2.9 0 0 1 1.103-1.188q.716-.427 1.679-.427.648 0 1.206.21.563.203.981.617.422.413.656 1.04.234.622.234 1.457v.499h-5.527v-1.125h3.818q0-.392-.17-.695a1.2 1.2 0 0 0-.473-.473 1.35 1.35 0 0 0-.695-.175q-.413 0-.733.192-.315.188-.494.507-.179.315-.183.703v1.07q0 .486.179.84.183.353.515.545.333.192.789.192.302 0 .554-.085a1.15 1.15 0 0 0 .43-.256q.178-.17.273-.418l1.679.111q-.128.605-.524 1.057-.393.447-1.015.699-.617.247-1.427.247"/></svg>