<svg width="830" height="280" viewBox="0 0 830 280" fill="none" xmlns="http://www.w3.org/2000/svg">
<rect width="830" height="280" fill="white"/>
<path d="M180.383 128.328H178.516C178.482 128.087 178.412 127.872 178.307 127.685C178.202 127.494 178.067 127.332 177.903 127.199C177.738 127.065 177.547 126.963 177.331 126.892C177.118 126.821 176.887 126.786 176.637 126.786C176.185 126.786 175.792 126.898 175.456 127.122C175.121 127.344 174.861 127.668 174.677 128.094C174.492 128.517 174.4 129.031 174.4 129.636C174.4 130.259 174.492 130.781 174.677 131.205C174.864 131.628 175.126 131.947 175.461 132.163C175.796 132.379 176.184 132.487 176.624 132.487C176.871 132.487 177.1 132.455 177.31 132.389C177.523 132.324 177.712 132.229 177.877 132.104C178.042 131.976 178.178 131.821 178.286 131.639C178.397 131.457 178.474 131.25 178.516 131.017L180.383 131.026C180.334 131.426 180.214 131.812 180.02 132.185C179.83 132.554 179.573 132.885 179.249 133.178C178.928 133.467 178.545 133.697 178.099 133.868C177.655 134.036 177.154 134.119 176.594 134.119C175.816 134.119 175.12 133.943 174.506 133.591C173.895 133.239 173.412 132.729 173.057 132.061C172.705 131.393 172.529 130.585 172.529 129.636C172.529 128.685 172.708 127.875 173.066 127.207C173.424 126.54 173.91 126.031 174.523 125.682C175.137 125.33 175.827 125.153 176.594 125.153C177.1 125.153 177.569 125.224 178.001 125.366C178.435 125.509 178.82 125.716 179.155 125.989C179.491 126.259 179.763 126.589 179.974 126.982C180.187 127.374 180.323 127.822 180.383 128.328ZM189.006 125.273V134H187.412L183.615 128.507H183.551V134H181.706V125.273H183.325L187.092 130.761H187.169V125.273H189.006ZM192.034 134H190.057L193.07 125.273H195.448L198.456 134H196.479L194.293 127.267H194.225L192.034 134ZM191.911 130.57H196.581V132.01H191.911V130.57ZM199.507 125.273H201.782L204.186 131.136H204.288L206.691 125.273H208.967V134H207.177V128.32H207.105L204.846 133.957H203.627L201.369 128.298H201.296V134H199.507V125.273ZM210.487 134V125.273H216.368V126.794H212.332V128.874H216.065V130.395H212.332V132.479H216.385V134H210.487Z" fill="#222222"/>
<path d="M605.275 133H603.297L606.31 124.273H608.688L611.696 133H609.719L607.533 126.267H607.465L605.275 133ZM605.151 129.57H609.821V131.01H605.151V129.57Z" fill="#222222"/>
<path d="M122.062 123.483H51V170.151H122.062V123.483Z" fill="white"/>
<path d="M122.062 120.301H51V125.604H122.062V120.301Z" fill="#3E74FF" stroke="#3E74FF" stroke-width="1.5" stroke-miterlimit="10"/>
<path d="M54.2874 123.903C55.0485 123.903 55.6656 123.286 55.6656 122.525C55.6656 121.763 55.0485 121.146 54.2874 121.146C53.5262 121.146 52.9092 121.763 52.9092 122.525C52.9092 123.286 53.5262 123.903 54.2874 123.903Z" fill="white"/>
<path d="M58.7444 123.903C59.5056 123.903 60.1226 123.286 60.1226 122.525C60.1226 121.763 59.5056 121.146 58.7444 121.146C57.9833 121.146 57.3662 121.763 57.3662 122.525C57.3662 123.286 57.9833 123.903 58.7444 123.903Z" fill="white"/>
<path d="M63.2024 123.903C63.9636 123.903 64.5806 123.286 64.5806 122.525C64.5806 121.763 63.9636 121.146 63.2024 121.146C62.4413 121.146 61.8242 121.763 61.8242 122.525C61.8242 123.286 62.4413 123.903 63.2024 123.903Z" fill="white"/>
<path d="M92.2895 130.532H55.2334V145.53H92.2895V130.532Z" fill="#E0ECFF"/>
<path d="M76.4083 148.178H55.2334V166.706H76.4083V148.178Z" fill="#E0ECFF"/>
<path d="M117.875 130.532H94.9355V145.53H117.875V130.532Z" fill="#E0ECFF"/>
<path d="M117.875 148.178H79.0547V166.706H117.875V148.178Z" fill="#E0ECFF"/>
<path d="M122.062 122.854H51V169.522H122.062V122.854Z" fill="white"/>
<path d="M122.062 119.672H51V124.976H122.062V119.672Z" fill="#3E74FF" stroke="#3E74FF" stroke-width="1.5" stroke-miterlimit="10"/>
<path d="M54.2874 123.903C55.0485 123.903 55.6656 123.286 55.6656 122.524C55.6656 121.763 55.0485 121.146 54.2874 121.146C53.5262 121.146 52.9092 121.763 52.9092 122.524C52.9092 123.286 53.5262 123.903 54.2874 123.903Z" fill="white"/>
<path d="M58.7444 123.903C59.5056 123.903 60.1226 123.286 60.1226 122.524C60.1226 121.763 59.5056 121.146 58.7444 121.146C57.9833 121.146 57.3662 121.763 57.3662 122.524C57.3662 123.286 57.9833 123.903 58.7444 123.903Z" fill="white"/>
<path d="M63.2024 123.903C63.9636 123.903 64.5806 123.286 64.5806 122.524C64.5806 121.763 63.9636 121.146 63.2024 121.146C62.4413 121.146 61.8242 121.763 61.8242 122.524C61.8242 123.286 62.4413 123.903 63.2024 123.903Z" fill="white"/>
<path d="M92.2895 129.903H55.2334V144.902H92.2895V129.903Z" fill="#E0ECFF"/>
<path d="M76.4083 147.549H55.2334V166.077H76.4083V147.549Z" fill="#E0ECFF"/>
<path d="M117.875 129.903H94.9355V144.902H117.875V129.903Z" fill="#E0ECFF"/>
<path d="M117.875 147.549H79.0547V166.077H117.875V147.549Z" fill="#E0ECFF"/>
<path d="M122.062 119.24H51V125.604H122.062V119.24Z" stroke="#3E74FF" stroke-width="1.5" stroke-miterlimit="10"/>
<path d="M122.062 119.24H51V170.151H122.062V119.24Z" stroke="#3E74FF" stroke-width="1.5" stroke-miterlimit="10"/>
<path d="M31.8994 188.268C31.2848 188.268 30.7562 188.138 30.3135 187.877C29.8734 187.614 29.5348 187.25 29.2979 186.784C29.0635 186.317 28.9463 185.781 28.9463 185.174C28.9463 184.56 29.0648 184.02 29.3018 183.557C29.5413 183.091 29.8812 182.728 30.3213 182.467C30.7614 182.204 31.2848 182.073 31.8916 182.073C32.415 182.073 32.8734 182.168 33.2666 182.358C33.6598 182.548 33.971 182.815 34.2002 183.159C34.4294 183.502 34.5557 183.906 34.5791 184.369H33.0088C32.9645 184.07 32.8473 183.829 32.6572 183.647C32.4697 183.462 32.2236 183.369 31.9189 183.369C31.6611 183.369 31.4359 183.44 31.2432 183.58C31.0531 183.718 30.9046 183.92 30.7979 184.186C30.6911 184.451 30.6377 184.773 30.6377 185.151C30.6377 185.534 30.6898 185.859 30.7939 186.127C30.9007 186.395 31.0505 186.6 31.2432 186.741C31.4359 186.881 31.6611 186.951 31.9189 186.951C32.109 186.951 32.2796 186.912 32.4307 186.834C32.5843 186.756 32.7106 186.643 32.8096 186.494C32.9111 186.343 32.9775 186.162 33.0088 185.951H34.5791C34.5531 186.41 34.4281 186.813 34.2041 187.162C33.9827 187.509 33.6768 187.78 33.2861 187.975C32.8955 188.17 32.4333 188.268 31.8994 188.268ZM39.4922 185.596V182.151H41.1563V188.151H39.5586V187.061H39.4961C39.3607 187.412 39.1354 187.695 38.8203 187.909C38.5078 188.122 38.1263 188.229 37.6758 188.229C37.2747 188.229 36.9219 188.138 36.6172 187.955C36.3125 187.773 36.0742 187.514 35.9023 187.178C35.7331 186.842 35.6471 186.44 35.6445 185.971V182.151H37.3086V185.674C37.3112 186.028 37.4063 186.308 37.5938 186.514C37.7813 186.72 38.0326 186.823 38.3477 186.823C38.5482 186.823 38.7357 186.777 38.9102 186.686C39.0846 186.592 39.2253 186.454 39.332 186.272C39.4414 186.089 39.4948 185.864 39.4922 185.596ZM47.4795 183.862L45.9561 183.955C45.93 183.825 45.874 183.708 45.7881 183.604C45.7021 183.497 45.5889 183.412 45.4482 183.35C45.3102 183.285 45.1449 183.252 44.9521 183.252C44.6943 183.252 44.4769 183.307 44.2998 183.416C44.1227 183.523 44.0342 183.666 44.0342 183.846C44.0342 183.989 44.0915 184.11 44.2061 184.209C44.3206 184.308 44.5173 184.388 44.7959 184.448L45.8818 184.666C46.4652 184.786 46.9001 184.979 47.1865 185.244C47.473 185.51 47.6162 185.859 47.6162 186.291C47.6162 186.685 47.5003 187.03 47.2686 187.326C47.0394 187.623 46.7243 187.855 46.3232 188.022C45.9248 188.186 45.4652 188.268 44.9443 188.268C44.1501 188.268 43.5173 188.103 43.0459 187.772C42.5771 187.438 42.3024 186.985 42.2217 186.412L43.8584 186.326C43.9079 186.569 44.0277 186.754 44.2178 186.881C44.4079 187.006 44.6514 187.069 44.9482 187.069C45.2399 187.069 45.4743 187.013 45.6514 186.901C45.8311 186.786 45.9222 186.639 45.9248 186.459C45.9222 186.308 45.8584 186.185 45.7334 186.088C45.6084 185.989 45.4157 185.914 45.1553 185.862L44.1162 185.655C43.5303 185.537 43.0941 185.334 42.8076 185.045C42.5238 184.756 42.3818 184.388 42.3818 183.94C42.3818 183.554 42.486 183.222 42.6943 182.944C42.9053 182.665 43.2008 182.45 43.5811 182.299C43.9639 182.148 44.4118 182.073 44.9248 182.073C45.6826 182.073 46.279 182.233 46.7139 182.553C47.1514 182.873 47.4066 183.31 47.4795 183.862ZM51.8555 182.151V183.401H48.2422V182.151H51.8555ZM49.0625 180.713H50.7266V186.307C50.7266 186.461 50.75 186.58 50.7969 186.666C50.8438 186.75 50.9089 186.808 50.9922 186.842C51.0781 186.876 51.1771 186.893 51.2891 186.893C51.3672 186.893 51.4453 186.886 51.5234 186.873C51.6016 186.858 51.6615 186.846 51.7031 186.838L51.9648 188.076C51.8815 188.103 51.7643 188.132 51.6133 188.166C51.4622 188.203 51.2786 188.225 51.0625 188.233C50.6615 188.248 50.3099 188.195 50.0078 188.073C49.7083 187.95 49.4753 187.76 49.3086 187.502C49.1419 187.244 49.0599 186.919 49.0625 186.526V180.713ZM55.5859 188.268C54.9792 188.268 54.4544 188.139 54.0117 187.881C53.5716 187.621 53.2318 187.259 52.9922 186.795C52.7526 186.329 52.6328 185.789 52.6328 185.174C52.6328 184.554 52.7526 184.013 52.9922 183.549C53.2318 183.083 53.5716 182.721 54.0117 182.463C54.4544 182.203 54.9792 182.073 55.5859 182.073C56.1927 182.073 56.7161 182.203 57.1563 182.463C57.599 182.721 57.9401 183.083 58.1797 183.549C58.4193 184.013 58.5391 184.554 58.5391 185.174C58.5391 185.789 58.4193 186.329 58.1797 186.795C57.9401 187.259 57.599 187.621 57.1563 187.881C56.7161 188.139 56.1927 188.268 55.5859 188.268ZM55.5937 186.979C55.8698 186.979 56.1003 186.901 56.2852 186.744C56.4701 186.586 56.6094 186.369 56.7031 186.096C56.7995 185.823 56.8477 185.511 56.8477 185.162C56.8477 184.813 56.7995 184.502 56.7031 184.229C56.6094 183.955 56.4701 183.739 56.2852 183.58C56.1003 183.422 55.8698 183.342 55.5937 183.342C55.3151 183.342 55.0807 183.422 54.8906 183.58C54.7031 183.739 54.5612 183.955 54.4648 184.229C54.3711 184.502 54.3242 184.813 54.3242 185.162C54.3242 185.511 54.3711 185.823 54.4648 186.096C54.5612 186.369 54.7031 186.586 54.8906 186.744C55.0807 186.901 55.3151 186.979 55.5937 186.979ZM59.6211 188.151V182.151H61.207V183.209H61.2773C61.4023 182.858 61.6107 182.58 61.9023 182.377C62.194 182.174 62.543 182.073 62.9492 182.073C63.3607 182.073 63.7109 182.175 64 182.381C64.2891 182.584 64.4818 182.86 64.5781 183.209H64.6406C64.763 182.866 64.9844 182.591 65.3047 182.385C65.6276 182.177 66.0091 182.073 66.4492 182.073C67.0091 182.073 67.4635 182.251 67.8125 182.608C68.1641 182.962 68.3398 183.464 68.3398 184.116V188.151H66.6797V184.444C66.6797 184.11 66.5911 183.86 66.4141 183.694C66.237 183.527 66.0156 183.444 65.75 183.444C65.4479 183.444 65.2122 183.54 65.043 183.733C64.8737 183.923 64.7891 184.174 64.7891 184.487V188.151H63.1758V184.409C63.1758 184.114 63.0911 183.88 62.9219 183.705C62.7552 183.531 62.5352 183.444 62.2617 183.444C62.0768 183.444 61.9102 183.491 61.7617 183.584C61.6159 183.675 61.5 183.804 61.4141 183.971C61.3281 184.135 61.2852 184.328 61.2852 184.549V188.151H59.6211ZM70.627 188.252C70.3691 188.252 70.1478 188.161 69.9629 187.979C69.7806 187.794 69.6895 187.573 69.6895 187.315C69.6895 187.06 69.7806 186.841 69.9629 186.659C70.1478 186.476 70.3691 186.385 70.627 186.385C70.877 186.385 71.0957 186.476 71.2832 186.659C71.4707 186.841 71.5645 187.06 71.5645 187.315C71.5645 187.487 71.5202 187.644 71.4316 187.787C71.3457 187.928 71.2324 188.041 71.0918 188.127C70.9512 188.211 70.7962 188.252 70.627 188.252ZM75.665 188.268C75.0479 188.268 74.5166 188.143 74.0713 187.893C73.6286 187.64 73.2874 187.284 73.0479 186.823C72.8083 186.359 72.6885 185.811 72.6885 185.178C72.6885 184.561 72.8083 184.019 73.0479 183.553C73.2874 183.087 73.6247 182.724 74.0596 182.463C74.4971 182.203 75.0101 182.073 75.5986 182.073C75.9945 182.073 76.363 182.136 76.7041 182.264C77.0479 182.389 77.3473 182.578 77.6025 182.83C77.8604 183.083 78.0609 183.401 78.2041 183.784C78.3473 184.164 78.4189 184.609 78.4189 185.119V185.576H73.3525V184.545H76.8525C76.8525 184.306 76.8005 184.093 76.6963 183.909C76.5921 183.724 76.4476 183.579 76.2627 183.475C76.0804 183.368 75.8682 183.315 75.626 183.315C75.3734 183.315 75.1494 183.373 74.9541 183.491C74.7614 183.605 74.6104 183.76 74.501 183.955C74.3916 184.148 74.3356 184.363 74.333 184.6V185.58C74.333 185.877 74.3877 186.134 74.4971 186.35C74.609 186.566 74.7666 186.733 74.9697 186.85C75.1729 186.967 75.4137 187.026 75.6924 187.026C75.8773 187.026 76.0465 187 76.2002 186.948C76.3538 186.895 76.4854 186.817 76.5947 186.713C76.7041 186.609 76.7874 186.481 76.8447 186.33L78.3838 186.432C78.3057 186.802 78.1455 187.125 77.9033 187.401C77.6637 187.674 77.3538 187.888 76.9736 188.041C76.596 188.192 76.1598 188.268 75.665 188.268ZM80.7881 182.151L81.8896 184.248L83.0186 182.151H84.7256L82.9873 185.151L84.7725 188.151H83.0732L81.8896 186.076L80.7256 188.151H79.0068L80.7881 185.151L79.0693 182.151H80.7881ZM87.3926 188.264C87.0098 188.264 86.6686 188.198 86.3691 188.065C86.0697 187.929 85.8327 187.73 85.6582 187.467C85.4863 187.201 85.4004 186.871 85.4004 186.475C85.4004 186.142 85.4616 185.862 85.584 185.635C85.7064 185.409 85.873 185.226 86.084 185.088C86.2949 184.95 86.5345 184.846 86.8027 184.776C87.0736 184.705 87.3574 184.656 87.6543 184.627C88.0033 184.591 88.2845 184.557 88.498 184.526C88.7116 184.492 88.8665 184.442 88.9629 184.377C89.0592 184.312 89.1074 184.216 89.1074 184.088V184.065C89.1074 183.817 89.0293 183.626 88.873 183.491C88.7194 183.355 88.5007 183.287 88.2168 183.287C87.9173 183.287 87.679 183.354 87.502 183.487C87.3249 183.617 87.2077 183.781 87.1504 183.979L85.6113 183.854C85.6895 183.489 85.8431 183.174 86.0723 182.909C86.3014 182.64 86.597 182.435 86.959 182.291C87.3236 182.145 87.7454 182.073 88.2246 182.073C88.5579 182.073 88.877 182.112 89.1816 182.19C89.4889 182.268 89.7611 182.389 89.998 182.553C90.2376 182.717 90.4264 182.928 90.5645 183.186C90.7025 183.441 90.7715 183.747 90.7715 184.104V188.151H89.1934V187.319H89.1465C89.0501 187.506 88.9212 187.672 88.7598 187.815C88.5983 187.955 88.4043 188.066 88.1777 188.147C87.9512 188.225 87.6895 188.264 87.3926 188.264ZM87.8691 187.116C88.1139 187.116 88.3301 187.067 88.5176 186.971C88.7051 186.872 88.8522 186.739 88.959 186.573C89.0658 186.406 89.1191 186.217 89.1191 186.006V185.369C89.0671 185.403 88.9954 185.435 88.9043 185.463C88.8158 185.489 88.7155 185.514 88.6035 185.537C88.4915 185.558 88.3796 185.578 88.2676 185.596C88.1556 185.612 88.054 185.626 87.9629 185.639C87.7676 185.668 87.597 185.713 87.4512 185.776C87.3053 185.838 87.1921 185.923 87.1113 186.03C87.0306 186.134 86.9902 186.264 86.9902 186.42C86.9902 186.647 87.0723 186.82 87.2363 186.94C87.403 187.057 87.6139 187.116 87.8691 187.116ZM92.0625 188.151V182.151H93.6484V183.209H93.7188C93.8438 182.858 94.0521 182.58 94.3438 182.377C94.6354 182.174 94.9844 182.073 95.3906 182.073C95.8021 182.073 96.1523 182.175 96.4414 182.381C96.7305 182.584 96.9232 182.86 97.0195 183.209H97.082C97.2044 182.866 97.4258 182.591 97.7461 182.385C98.069 182.177 98.4505 182.073 98.8906 182.073C99.4505 182.073 99.9049 182.251 100.254 182.608C100.605 182.962 100.781 183.464 100.781 184.116V188.151H99.1211V184.444C99.1211 184.11 99.0326 183.86 98.8555 183.694C98.6784 183.527 98.457 183.444 98.1914 183.444C97.8893 183.444 97.6536 183.54 97.4844 183.733C97.3151 183.923 97.2305 184.174 97.2305 184.487V188.151H95.6172V184.409C95.6172 184.114 95.5326 183.88 95.3633 183.705C95.1966 183.531 94.9766 183.444 94.7031 183.444C94.5182 183.444 94.3516 183.491 94.2031 183.584C94.0573 183.675 93.9414 183.804 93.8555 183.971C93.7695 184.135 93.7266 184.328 93.7266 184.549V188.151H92.0625ZM102.096 190.401V182.151H103.736V183.159H103.811C103.883 182.997 103.989 182.833 104.127 182.666C104.268 182.497 104.45 182.356 104.674 182.244C104.9 182.13 105.182 182.073 105.518 182.073C105.955 182.073 106.359 182.187 106.729 182.416C107.098 182.643 107.394 182.985 107.615 183.444C107.837 183.899 107.947 184.471 107.947 185.159C107.947 185.828 107.839 186.393 107.623 186.854C107.41 187.312 107.118 187.66 106.748 187.897C106.381 188.131 105.969 188.248 105.514 188.248C105.191 188.248 104.916 188.195 104.689 188.088C104.465 187.981 104.282 187.847 104.139 187.686C103.995 187.522 103.886 187.356 103.811 187.19H103.76V190.401H102.096ZM103.725 185.151C103.725 185.507 103.774 185.819 103.873 186.084C103.972 186.35 104.115 186.557 104.303 186.705C104.49 186.851 104.718 186.924 104.986 186.924C105.257 186.924 105.486 186.85 105.674 186.701C105.861 186.55 106.003 186.342 106.1 186.076C106.199 185.808 106.248 185.5 106.248 185.151C106.248 184.804 106.2 184.5 106.104 184.237C106.007 183.974 105.865 183.768 105.678 183.619C105.49 183.471 105.26 183.397 104.986 183.397C104.715 183.397 104.486 183.468 104.299 183.612C104.114 183.755 103.972 183.958 103.873 184.221C103.774 184.484 103.725 184.794 103.725 185.151ZM110.721 180.151V188.151H109.057V180.151H110.721ZM114.788 188.268C114.171 188.268 113.64 188.143 113.194 187.893C112.752 187.64 112.41 187.284 112.171 186.823C111.931 186.359 111.812 185.811 111.812 185.178C111.812 184.561 111.931 184.019 112.171 183.553C112.41 183.087 112.748 182.724 113.183 182.463C113.62 182.203 114.133 182.073 114.722 182.073C115.118 182.073 115.486 182.136 115.827 182.264C116.171 182.389 116.47 182.578 116.726 182.83C116.983 183.083 117.184 183.401 117.327 183.784C117.47 184.164 117.542 184.609 117.542 185.119V185.576H112.476V184.545H115.976C115.976 184.306 115.924 184.093 115.819 183.909C115.715 183.724 115.571 183.579 115.386 183.475C115.203 183.368 114.991 183.315 114.749 183.315C114.496 183.315 114.272 183.373 114.077 183.491C113.884 183.605 113.733 183.76 113.624 183.955C113.515 184.148 113.459 184.363 113.456 184.6V185.58C113.456 185.877 113.511 186.134 113.62 186.35C113.732 186.566 113.89 186.733 114.093 186.85C114.296 186.967 114.537 187.026 114.815 187.026C115 187.026 115.17 187 115.323 186.948C115.477 186.895 115.608 186.817 115.718 186.713C115.827 186.609 115.91 186.481 115.968 186.33L117.507 186.432C117.429 186.802 117.269 187.125 117.026 187.401C116.787 187.674 116.477 187.888 116.097 188.041C115.719 188.192 115.283 188.268 114.788 188.268ZM119.601 188.252C119.343 188.252 119.121 188.161 118.937 187.979C118.754 187.794 118.663 187.573 118.663 187.315C118.663 187.06 118.754 186.841 118.937 186.659C119.121 186.476 119.343 186.385 119.601 186.385C119.851 186.385 120.069 186.476 120.257 186.659C120.444 186.841 120.538 187.06 120.538 187.315C120.538 187.487 120.494 187.644 120.405 187.787C120.319 187.928 120.206 188.041 120.065 188.127C119.925 188.211 119.77 188.252 119.601 188.252ZM124.615 188.268C124.001 188.268 123.472 188.138 123.029 187.877C122.589 187.614 122.251 187.25 122.014 186.784C121.779 186.317 121.662 185.781 121.662 185.174C121.662 184.56 121.781 184.02 122.018 183.557C122.257 183.091 122.597 182.728 123.037 182.467C123.477 182.204 124.001 182.073 124.607 182.073C125.131 182.073 125.589 182.168 125.982 182.358C126.376 182.548 126.687 182.815 126.916 183.159C127.145 183.502 127.271 183.906 127.295 184.369H125.725C125.68 184.07 125.563 183.829 125.373 183.647C125.186 183.462 124.939 183.369 124.635 183.369C124.377 183.369 124.152 183.44 123.959 183.58C123.769 183.718 123.62 183.92 123.514 184.186C123.407 184.451 123.354 184.773 123.354 185.151C123.354 185.534 123.406 185.859 123.51 186.127C123.617 186.395 123.766 186.6 123.959 186.741C124.152 186.881 124.377 186.951 124.635 186.951C124.825 186.951 124.995 186.912 125.146 186.834C125.3 186.756 125.426 186.643 125.525 186.494C125.627 186.343 125.693 186.162 125.725 185.951H127.295C127.269 186.41 127.144 186.813 126.92 187.162C126.699 187.509 126.393 187.78 126.002 187.975C125.611 188.17 125.149 188.268 124.615 188.268ZM131.071 188.268C130.465 188.268 129.94 188.139 129.497 187.881C129.057 187.621 128.717 187.259 128.478 186.795C128.238 186.329 128.118 185.789 128.118 185.174C128.118 184.554 128.238 184.013 128.478 183.549C128.717 183.083 129.057 182.721 129.497 182.463C129.94 182.203 130.465 182.073 131.071 182.073C131.678 182.073 132.201 182.203 132.642 182.463C133.084 182.721 133.425 183.083 133.665 183.549C133.905 184.013 134.024 184.554 134.024 185.174C134.024 185.789 133.905 186.329 133.665 186.795C133.425 187.259 133.084 187.621 132.642 187.881C132.201 188.139 131.678 188.268 131.071 188.268ZM131.079 186.979C131.355 186.979 131.586 186.901 131.771 186.744C131.955 186.586 132.095 186.369 132.188 186.096C132.285 185.823 132.333 185.511 132.333 185.162C132.333 184.813 132.285 184.502 132.188 184.229C132.095 183.955 131.955 183.739 131.771 183.58C131.586 183.422 131.355 183.342 131.079 183.342C130.8 183.342 130.566 183.422 130.376 183.58C130.188 183.739 130.047 183.955 129.95 184.229C129.856 184.502 129.81 184.813 129.81 185.162C129.81 185.511 129.856 185.823 129.95 186.096C130.047 186.369 130.188 186.586 130.376 186.744C130.566 186.901 130.8 186.979 131.079 186.979ZM135.106 188.151V182.151H136.692V183.209H136.763C136.888 182.858 137.096 182.58 137.388 182.377C137.679 182.174 138.028 182.073 138.435 182.073C138.846 182.073 139.196 182.175 139.485 182.381C139.774 182.584 139.967 182.86 140.063 183.209H140.126C140.248 182.866 140.47 182.591 140.79 182.385C141.113 182.177 141.494 182.073 141.935 182.073C142.494 182.073 142.949 182.251 143.298 182.608C143.649 182.962 143.825 183.464 143.825 184.116V188.151H142.165V184.444C142.165 184.11 142.076 183.86 141.899 183.694C141.722 183.527 141.501 183.444 141.235 183.444C140.933 183.444 140.698 183.54 140.528 183.733C140.359 183.923 140.274 184.174 140.274 184.487V188.151H138.661V184.409C138.661 184.114 138.576 183.88 138.407 183.705C138.241 183.531 138.021 183.444 137.747 183.444C137.562 183.444 137.396 183.491 137.247 183.584C137.101 183.675 136.985 183.804 136.899 183.971C136.813 184.135 136.771 184.328 136.771 184.549V188.151H135.106Z" fill="#222222"/>
<rect x="277" y="128" width="248" height="38" stroke="#D9D9D9" stroke-width="2" stroke-dasharray="10 10"/>
<path d="M320.957 144.086V145.45H316.917V144.086H320.957ZM317.842 150.632V143.613C317.842 143.139 317.934 142.745 318.119 142.433C318.307 142.12 318.562 141.886 318.886 141.73C319.21 141.573 319.578 141.495 319.99 141.495C320.268 141.495 320.523 141.517 320.753 141.559C320.986 141.602 321.159 141.64 321.273 141.674L320.949 143.038C320.878 143.015 320.79 142.994 320.684 142.974C320.582 142.954 320.477 142.944 320.369 142.944C320.102 142.944 319.916 143.007 319.811 143.132C319.706 143.254 319.653 143.426 319.653 143.647V150.632H317.842ZM323.698 150.755C323.281 150.755 322.909 150.683 322.582 150.538C322.255 150.39 321.997 150.173 321.806 149.886C321.619 149.596 321.525 149.235 321.525 148.803C321.525 148.44 321.592 148.134 321.725 147.887C321.859 147.64 322.041 147.441 322.271 147.291C322.501 147.14 322.762 147.026 323.055 146.95C323.35 146.873 323.66 146.819 323.984 146.788C324.365 146.748 324.671 146.711 324.904 146.677C325.137 146.64 325.306 146.586 325.411 146.515C325.517 146.444 325.569 146.339 325.569 146.2V146.174C325.569 145.904 325.484 145.696 325.313 145.548C325.146 145.4 324.907 145.326 324.597 145.326C324.271 145.326 324.011 145.399 323.818 145.544C323.624 145.686 323.497 145.865 323.434 146.08L321.755 145.944C321.84 145.546 322.008 145.203 322.258 144.913C322.508 144.62 322.83 144.396 323.225 144.24C323.623 144.08 324.083 144.001 324.606 144.001C324.97 144.001 325.318 144.044 325.65 144.129C325.985 144.214 326.282 144.346 326.541 144.525C326.802 144.704 327.008 144.934 327.159 145.215C327.309 145.494 327.384 145.828 327.384 146.217V150.632H325.663V149.724H325.612C325.507 149.928 325.366 150.109 325.19 150.265C325.014 150.419 324.802 150.539 324.555 150.627C324.308 150.713 324.022 150.755 323.698 150.755ZM324.218 149.502C324.485 149.502 324.721 149.45 324.926 149.345C325.13 149.237 325.291 149.092 325.407 148.91C325.524 148.728 325.582 148.522 325.582 148.292V147.598C325.525 147.634 325.447 147.669 325.347 147.7C325.251 147.728 325.142 147.755 325.019 147.781C324.897 147.803 324.775 147.825 324.653 147.845C324.531 147.862 324.42 147.877 324.32 147.892C324.107 147.923 323.921 147.973 323.762 148.041C323.603 148.109 323.48 148.201 323.392 148.318C323.303 148.431 323.259 148.573 323.259 148.744C323.259 148.991 323.349 149.18 323.528 149.311C323.71 149.438 323.94 149.502 324.218 149.502ZM330.608 141.904V150.632H328.793V141.904H330.608ZM333.878 141.904V150.632H332.062V141.904H333.878ZM335.366 150.632V141.904H337.181V145.186H337.237C337.316 145.009 337.431 144.83 337.582 144.649C337.735 144.464 337.934 144.311 338.178 144.188C338.426 144.063 338.732 144.001 339.099 144.001C339.576 144.001 340.017 144.126 340.42 144.376C340.823 144.623 341.146 144.997 341.387 145.497C341.629 145.994 341.749 146.617 341.749 147.367C341.749 148.098 341.632 148.714 341.396 149.217C341.163 149.717 340.845 150.096 340.441 150.355C340.041 150.61 339.592 150.738 339.095 150.738C338.742 150.738 338.443 150.68 338.195 150.563C337.951 150.447 337.751 150.301 337.595 150.124C337.438 149.946 337.319 149.765 337.237 149.583H337.156V150.632H335.366ZM337.143 147.359C337.143 147.748 337.197 148.088 337.305 148.377C337.413 148.667 337.569 148.893 337.774 149.055C337.978 149.214 338.227 149.294 338.519 149.294C338.815 149.294 339.065 149.213 339.269 149.051C339.474 148.886 339.629 148.659 339.734 148.369C339.842 148.076 339.896 147.74 339.896 147.359C339.896 146.981 339.843 146.649 339.738 146.362C339.633 146.075 339.478 145.85 339.274 145.688C339.069 145.526 338.818 145.446 338.519 145.446C338.224 145.446 337.974 145.524 337.769 145.68C337.568 145.836 337.413 146.058 337.305 146.345C337.197 146.632 337.143 146.97 337.143 147.359ZM344.827 150.755C344.41 150.755 344.037 150.683 343.711 150.538C343.384 150.39 343.126 150.173 342.935 149.886C342.748 149.596 342.654 149.235 342.654 148.803C342.654 148.44 342.721 148.134 342.854 147.887C342.988 147.64 343.17 147.441 343.4 147.291C343.63 147.14 343.891 147.026 344.184 146.95C344.479 146.873 344.789 146.819 345.113 146.788C345.493 146.748 345.8 146.711 346.033 146.677C346.266 146.64 346.435 146.586 346.54 146.515C346.645 146.444 346.698 146.339 346.698 146.2V146.174C346.698 145.904 346.613 145.696 346.442 145.548C346.275 145.4 346.036 145.326 345.726 145.326C345.4 145.326 345.14 145.399 344.947 145.544C344.753 145.686 344.626 145.865 344.563 146.08L342.884 145.944C342.969 145.546 343.137 145.203 343.387 144.913C343.637 144.62 343.959 144.396 344.354 144.24C344.752 144.08 345.212 144.001 345.735 144.001C346.099 144.001 346.447 144.044 346.779 144.129C347.114 144.214 347.411 144.346 347.67 144.525C347.931 144.704 348.137 144.934 348.287 145.215C348.438 145.494 348.513 145.828 348.513 146.217V150.632H346.792V149.724H346.741C346.635 149.928 346.495 150.109 346.319 150.265C346.143 150.419 345.931 150.539 345.684 150.627C345.437 150.713 345.151 150.755 344.827 150.755ZM345.347 149.502C345.614 149.502 345.85 149.45 346.055 149.345C346.259 149.237 346.42 149.092 346.536 148.91C346.653 148.728 346.711 148.522 346.711 148.292V147.598C346.654 147.634 346.576 147.669 346.476 147.7C346.38 147.728 346.27 147.755 346.148 147.781C346.026 147.803 345.904 147.825 345.782 147.845C345.66 147.862 345.549 147.877 345.449 147.892C345.236 147.923 345.05 147.973 344.891 148.041C344.732 148.109 344.608 148.201 344.52 148.318C344.432 148.431 344.388 148.573 344.388 148.744C344.388 148.991 344.478 149.18 344.657 149.311C344.839 149.438 345.069 149.502 345.347 149.502ZM352.879 150.759C352.209 150.759 351.632 150.617 351.149 150.333C350.669 150.046 350.3 149.649 350.041 149.14C349.785 148.632 349.657 148.046 349.657 147.384C349.657 146.714 349.787 146.126 350.045 145.62C350.307 145.112 350.677 144.715 351.157 144.431C351.638 144.144 352.209 144.001 352.871 144.001C353.442 144.001 353.942 144.105 354.371 144.312C354.8 144.519 355.139 144.811 355.389 145.186C355.639 145.561 355.777 146.001 355.802 146.507H354.089C354.041 146.18 353.913 145.917 353.706 145.718C353.501 145.517 353.233 145.416 352.9 145.416C352.619 145.416 352.373 145.492 352.163 145.646C351.956 145.796 351.794 146.017 351.677 146.306C351.561 146.596 351.503 146.947 351.503 147.359C351.503 147.776 351.559 148.132 351.673 148.424C351.79 148.717 351.953 148.94 352.163 149.093C352.373 149.247 352.619 149.323 352.9 149.323C353.108 149.323 353.294 149.281 353.459 149.196C353.626 149.11 353.764 148.987 353.872 148.825C353.983 148.66 354.055 148.463 354.089 148.232H355.802C355.774 148.732 355.638 149.173 355.393 149.553C355.152 149.931 354.818 150.227 354.392 150.44C353.966 150.653 353.461 150.759 352.879 150.759ZM358.61 148.748L358.614 146.571H358.878L360.975 144.086H363.058L360.242 147.376H359.811L358.61 148.748ZM356.965 150.632V141.904H358.78V150.632H356.965ZM361.056 150.632L359.129 147.781L360.34 146.498L363.182 150.632H361.056ZM365.01 150.742C364.729 150.742 364.487 150.643 364.286 150.444C364.087 150.242 363.987 150.001 363.987 149.72C363.987 149.441 364.087 149.203 364.286 149.004C364.487 148.805 364.729 148.705 365.01 148.705C365.283 148.705 365.521 148.805 365.726 149.004C365.931 149.203 366.033 149.441 366.033 149.72C366.033 149.907 365.985 150.079 365.888 150.235C365.794 150.389 365.671 150.512 365.517 150.606C365.364 150.697 365.195 150.742 365.01 150.742ZM367.523 150.632V144.086H369.253V145.241H369.33C369.466 144.857 369.694 144.555 370.012 144.333C370.33 144.112 370.711 144.001 371.154 144.001C371.603 144.001 371.985 144.113 372.3 144.338C372.616 144.559 372.826 144.86 372.931 145.241H372.999C373.133 144.866 373.374 144.566 373.724 144.342C374.076 144.115 374.492 144.001 374.972 144.001C375.583 144.001 376.079 144.196 376.459 144.585C376.843 144.971 377.035 145.519 377.035 146.23V150.632H375.224V146.588C375.224 146.224 375.127 145.951 374.934 145.769C374.741 145.588 374.499 145.497 374.209 145.497C373.88 145.497 373.623 145.602 373.438 145.812C373.253 146.019 373.161 146.294 373.161 146.634V150.632H371.401V146.549C371.401 146.228 371.309 145.973 371.124 145.782C370.942 145.592 370.702 145.497 370.404 145.497C370.202 145.497 370.02 145.548 369.858 145.65C369.699 145.749 369.573 145.89 369.479 146.072C369.385 146.251 369.339 146.461 369.339 146.703V150.632H367.523ZM379.355 153.086C379.125 153.086 378.909 153.068 378.707 153.031C378.508 152.997 378.344 152.953 378.213 152.899L378.622 151.544C378.835 151.609 379.027 151.644 379.197 151.65C379.371 151.656 379.52 151.616 379.645 151.531C379.773 151.446 379.876 151.301 379.956 151.096L380.062 150.819L377.714 144.086H379.623L380.979 148.893H381.047L382.415 144.086H384.336L381.792 151.339C381.67 151.691 381.504 151.998 381.294 152.259C381.086 152.524 380.824 152.727 380.506 152.869C380.187 153.014 379.804 153.086 379.355 153.086ZM386.956 150.755C386.539 150.755 386.166 150.683 385.84 150.538C385.513 150.39 385.254 150.173 385.064 149.886C384.877 149.596 384.783 149.235 384.783 148.803C384.783 148.44 384.85 148.134 384.983 147.887C385.117 147.64 385.298 147.441 385.529 147.291C385.759 147.14 386.02 147.026 386.313 146.95C386.608 146.873 386.918 146.819 387.242 146.788C387.622 146.748 387.929 146.711 388.162 146.677C388.395 146.64 388.564 146.586 388.669 146.515C388.774 146.444 388.827 146.339 388.827 146.2V146.174C388.827 145.904 388.742 145.696 388.571 145.548C388.404 145.4 388.165 145.326 387.855 145.326C387.529 145.326 387.269 145.399 387.075 145.544C386.882 145.686 386.754 145.865 386.692 146.08L385.013 145.944C385.098 145.546 385.266 145.203 385.516 144.913C385.766 144.62 386.088 144.396 386.483 144.24C386.881 144.08 387.341 144.001 387.864 144.001C388.227 144.001 388.575 144.044 388.908 144.129C389.243 144.214 389.54 144.346 389.798 144.525C390.06 144.704 390.266 144.934 390.416 145.215C390.567 145.494 390.642 145.828 390.642 146.217V150.632H388.921V149.724H388.869C388.764 149.928 388.624 150.109 388.448 150.265C388.271 150.419 388.06 150.539 387.813 150.627C387.566 150.713 387.28 150.755 386.956 150.755ZM387.476 149.502C387.743 149.502 387.979 149.45 388.183 149.345C388.388 149.237 388.548 149.092 388.665 148.91C388.781 148.728 388.84 148.522 388.84 148.292V147.598C388.783 147.634 388.705 147.669 388.605 147.7C388.509 147.728 388.399 147.755 388.277 147.781C388.155 147.803 388.033 147.825 387.911 147.845C387.789 147.862 387.678 147.877 387.578 147.892C387.365 147.923 387.179 147.973 387.02 148.041C386.861 148.109 386.737 148.201 386.649 148.318C386.561 148.431 386.517 148.573 386.517 148.744C386.517 148.991 386.607 149.18 386.786 149.311C386.968 149.438 387.198 149.502 387.476 149.502ZM392.051 153.086V144.086H393.84V145.186H393.921C394.001 145.009 394.116 144.83 394.267 144.649C394.42 144.464 394.619 144.311 394.863 144.188C395.11 144.063 395.417 144.001 395.784 144.001C396.261 144.001 396.701 144.126 397.105 144.376C397.508 144.623 397.83 144.997 398.072 145.497C398.313 145.994 398.434 146.617 398.434 147.367C398.434 148.098 398.316 148.714 398.08 149.217C397.847 149.717 397.529 150.096 397.126 150.355C396.725 150.61 396.276 150.738 395.779 150.738C395.427 150.738 395.127 150.68 394.88 150.563C394.636 150.447 394.436 150.301 394.279 150.124C394.123 149.946 394.004 149.765 393.921 149.583H393.866V153.086H392.051ZM393.828 147.359C393.828 147.748 393.882 148.088 393.99 148.377C394.097 148.667 394.254 148.893 394.458 149.055C394.663 149.214 394.911 149.294 395.204 149.294C395.499 149.294 395.749 149.213 395.954 149.051C396.159 148.886 396.313 148.659 396.419 148.369C396.526 148.076 396.58 147.74 396.58 147.359C396.58 146.981 396.528 146.649 396.423 146.362C396.318 146.075 396.163 145.85 395.958 145.688C395.754 145.526 395.502 145.446 395.204 145.446C394.909 145.446 394.659 145.524 394.454 145.68C394.252 145.836 394.097 146.058 393.99 146.345C393.882 146.632 393.828 146.97 393.828 147.359ZM399.644 153.086V144.086H401.434V145.186H401.515C401.595 145.009 401.71 144.83 401.86 144.649C402.014 144.464 402.213 144.311 402.457 144.188C402.704 144.063 403.011 144.001 403.377 144.001C403.855 144.001 404.295 144.126 404.698 144.376C405.102 144.623 405.424 144.997 405.666 145.497C405.907 145.994 406.028 146.617 406.028 147.367C406.028 148.098 405.91 148.714 405.674 149.217C405.441 149.717 405.123 150.096 404.72 150.355C404.319 150.61 403.87 150.738 403.373 150.738C403.021 150.738 402.721 150.68 402.474 150.563C402.23 150.447 402.029 150.301 401.873 150.124C401.717 149.946 401.597 149.765 401.515 149.583H401.46V153.086H399.644ZM401.421 147.359C401.421 147.748 401.475 148.088 401.583 148.377C401.691 148.667 401.847 148.893 402.052 149.055C402.257 149.214 402.505 149.294 402.798 149.294C403.093 149.294 403.343 149.213 403.548 149.051C403.752 148.886 403.907 148.659 404.012 148.369C404.12 148.076 404.174 147.74 404.174 147.359C404.174 146.981 404.122 146.649 404.017 146.362C403.911 146.075 403.757 145.85 403.552 145.688C403.347 145.526 403.096 145.446 402.798 145.446C402.502 145.446 402.252 145.524 402.048 145.68C401.846 145.836 401.691 146.058 401.583 146.345C401.475 146.632 401.421 146.97 401.421 147.359ZM410.221 150.759C409.548 150.759 408.968 150.623 408.482 150.35C407.999 150.075 407.627 149.686 407.366 149.183C407.105 148.677 406.974 148.079 406.974 147.389C406.974 146.715 407.105 146.124 407.366 145.616C407.627 145.107 407.995 144.711 408.47 144.427C408.947 144.143 409.507 144.001 410.149 144.001C410.58 144.001 410.982 144.071 411.355 144.21C411.73 144.346 412.056 144.552 412.335 144.828C412.616 145.103 412.835 145.45 412.991 145.867C413.147 146.282 413.225 146.768 413.225 147.325V147.823H407.698V146.698H411.517C411.517 146.437 411.46 146.205 411.346 146.004C411.232 145.802 411.075 145.644 410.873 145.531C410.674 145.414 410.443 145.356 410.178 145.356C409.903 145.356 409.659 145.42 409.445 145.548C409.235 145.673 409.07 145.842 408.951 146.055C408.832 146.265 408.771 146.499 408.768 146.758V147.828C408.768 148.151 408.828 148.431 408.947 148.667C409.069 148.903 409.241 149.085 409.463 149.213C409.684 149.34 409.947 149.404 410.251 149.404C410.453 149.404 410.637 149.376 410.805 149.319C410.972 149.262 411.116 149.177 411.235 149.063C411.355 148.95 411.445 148.811 411.508 148.646L413.187 148.757C413.102 149.16 412.927 149.512 412.663 149.813C412.401 150.112 412.063 150.345 411.649 150.512C411.237 150.677 410.761 150.759 410.221 150.759ZM415.81 144.086L417.012 146.374L418.243 144.086H420.105L418.209 147.359L420.156 150.632H418.303L417.012 148.369L415.742 150.632H413.867L415.81 147.359L413.935 144.086H415.81ZM423.015 150.755C422.597 150.755 422.225 150.683 421.898 150.538C421.572 150.39 421.313 150.173 421.123 149.886C420.935 149.596 420.841 149.235 420.841 148.803C420.841 148.44 420.908 148.134 421.042 147.887C421.175 147.64 421.357 147.441 421.587 147.291C421.817 147.14 422.079 147.026 422.371 146.95C422.667 146.873 422.976 146.819 423.3 146.788C423.681 146.748 423.988 146.711 424.221 146.677C424.454 146.64 424.623 146.586 424.728 146.515C424.833 146.444 424.885 146.339 424.885 146.2V146.174C424.885 145.904 424.8 145.696 424.63 145.548C424.462 145.4 424.224 145.326 423.914 145.326C423.587 145.326 423.327 145.399 423.134 145.544C422.941 145.686 422.813 145.865 422.751 146.08L421.072 145.944C421.157 145.546 421.324 145.203 421.574 144.913C421.824 144.62 422.147 144.396 422.542 144.24C422.939 144.08 423.4 144.001 423.922 144.001C424.286 144.001 424.634 144.044 424.966 144.129C425.302 144.214 425.599 144.346 425.857 144.525C426.118 144.704 426.324 144.934 426.475 145.215C426.626 145.494 426.701 145.828 426.701 146.217V150.632H424.979V149.724H424.928C424.823 149.928 424.682 150.109 424.506 150.265C424.33 150.419 424.118 150.539 423.871 150.627C423.624 150.713 423.339 150.755 423.015 150.755ZM423.535 149.502C423.802 149.502 424.037 149.45 424.242 149.345C424.447 149.237 424.607 149.092 424.724 148.91C424.84 148.728 424.898 148.522 424.898 148.292V147.598C424.841 147.634 424.763 147.669 424.664 147.7C424.567 147.728 424.458 147.755 424.336 147.781C424.214 147.803 424.091 147.825 423.969 147.845C423.847 147.862 423.736 147.877 423.637 147.892C423.424 147.923 423.238 147.973 423.079 148.041C422.92 148.109 422.796 148.201 422.708 148.318C422.62 148.431 422.576 148.573 422.576 148.744C422.576 148.991 422.665 149.18 422.844 149.311C423.026 149.438 423.256 149.502 423.535 149.502ZM428.109 150.632V144.086H429.839V145.241H429.916C430.052 144.857 430.28 144.555 430.598 144.333C430.916 144.112 431.297 144.001 431.74 144.001C432.189 144.001 432.571 144.113 432.886 144.338C433.202 144.559 433.412 144.86 433.517 145.241H433.585C433.719 144.866 433.96 144.566 434.309 144.342C434.662 144.115 435.078 144.001 435.558 144.001C436.169 144.001 436.665 144.196 437.045 144.585C437.429 144.971 437.621 145.519 437.621 146.23V150.632H435.809V146.588C435.809 146.224 435.713 145.951 435.52 145.769C435.327 145.588 435.085 145.497 434.795 145.497C434.466 145.497 434.209 145.602 434.024 145.812C433.839 146.019 433.747 146.294 433.747 146.634V150.632H431.987V146.549C431.987 146.228 431.895 145.973 431.71 145.782C431.528 145.592 431.288 145.497 430.99 145.497C430.788 145.497 430.606 145.548 430.444 145.65C430.285 145.749 430.159 145.89 430.065 146.072C429.971 146.251 429.925 146.461 429.925 146.703V150.632H428.109ZM439.055 153.086V144.086H440.844V145.186H440.925C441.005 145.009 441.12 144.83 441.27 144.649C441.424 144.464 441.623 144.311 441.867 144.188C442.114 144.063 442.421 144.001 442.787 144.001C443.265 144.001 443.705 144.126 444.108 144.376C444.512 144.623 444.834 144.997 445.076 145.497C445.317 145.994 445.438 146.617 445.438 147.367C445.438 148.098 445.32 148.714 445.084 149.217C444.851 149.717 444.533 150.096 444.13 150.355C443.729 150.61 443.28 150.738 442.783 150.738C442.431 150.738 442.131 150.68 441.884 150.563C441.64 150.447 441.439 150.301 441.283 150.124C441.127 149.946 441.008 149.765 440.925 149.583H440.87V153.086H439.055ZM440.831 147.359C440.831 147.748 440.885 148.088 440.993 148.377C441.101 148.667 441.258 148.893 441.462 149.055C441.667 149.214 441.915 149.294 442.208 149.294C442.503 149.294 442.753 149.213 442.958 149.051C443.162 148.886 443.317 148.659 443.422 148.369C443.53 148.076 443.584 147.74 443.584 147.359C443.584 146.981 443.532 146.649 443.427 146.362C443.322 146.075 443.167 145.85 442.962 145.688C442.758 145.526 442.506 145.446 442.208 145.446C441.912 145.446 441.662 145.524 441.458 145.68C441.256 145.836 441.101 146.058 440.993 146.345C440.885 146.632 440.831 146.97 440.831 147.359ZM448.464 141.904V150.632H446.648V141.904H448.464ZM452.901 150.759C452.227 150.759 451.648 150.623 451.162 150.35C450.679 150.075 450.307 149.686 450.046 149.183C449.784 148.677 449.654 148.079 449.654 147.389C449.654 146.715 449.784 146.124 450.046 145.616C450.307 145.107 450.675 144.711 451.149 144.427C451.627 144.143 452.186 144.001 452.828 144.001C453.26 144.001 453.662 144.071 454.034 144.21C454.409 144.346 454.736 144.552 455.014 144.828C455.296 145.103 455.514 145.45 455.671 145.867C455.827 146.282 455.905 146.768 455.905 147.325V147.823H450.378V146.698H454.196C454.196 146.437 454.139 146.205 454.026 146.004C453.912 145.802 453.754 145.644 453.553 145.531C453.354 145.414 453.122 145.356 452.858 145.356C452.583 145.356 452.338 145.42 452.125 145.548C451.915 145.673 451.75 145.842 451.631 146.055C451.512 146.265 451.45 146.499 451.448 146.758V147.828C451.448 148.151 451.507 148.431 451.627 148.667C451.749 148.903 451.921 149.085 452.142 149.213C452.364 149.34 452.627 149.404 452.931 149.404C453.132 149.404 453.317 149.376 453.485 149.319C453.652 149.262 453.796 149.177 453.915 149.063C454.034 148.95 454.125 148.811 454.188 148.646L455.867 148.757C455.781 149.16 455.607 149.512 455.343 149.813C455.081 150.112 454.743 150.345 454.328 150.512C453.916 150.677 453.441 150.759 452.901 150.759ZM458.151 150.742C457.869 150.742 457.628 150.643 457.426 150.444C457.227 150.242 457.128 150.001 457.128 149.72C457.128 149.441 457.227 149.203 457.426 149.004C457.628 148.805 457.869 148.705 458.151 148.705C458.423 148.705 458.662 148.805 458.867 149.004C459.071 149.203 459.173 149.441 459.173 149.72C459.173 149.907 459.125 150.079 459.029 150.235C458.935 150.389 458.811 150.512 458.658 150.606C458.504 150.697 458.335 150.742 458.151 150.742ZM463.621 150.759C462.951 150.759 462.374 150.617 461.891 150.333C461.411 150.046 461.042 149.649 460.783 149.14C460.528 148.632 460.4 148.046 460.4 147.384C460.4 146.714 460.529 146.126 460.787 145.62C461.049 145.112 461.42 144.715 461.9 144.431C462.38 144.144 462.951 144.001 463.613 144.001C464.184 144.001 464.684 144.105 465.113 144.312C465.542 144.519 465.881 144.811 466.131 145.186C466.381 145.561 466.519 146.001 466.545 146.507H464.831C464.783 146.18 464.655 145.917 464.448 145.718C464.243 145.517 463.975 145.416 463.643 145.416C463.361 145.416 463.116 145.492 462.905 145.646C462.698 145.796 462.536 146.017 462.42 146.306C462.303 146.596 462.245 146.947 462.245 147.359C462.245 147.776 462.302 148.132 462.415 148.424C462.532 148.717 462.695 148.94 462.905 149.093C463.116 149.247 463.361 149.323 463.643 149.323C463.85 149.323 464.036 149.281 464.201 149.196C464.368 149.11 464.506 148.987 464.614 148.825C464.725 148.66 464.797 148.463 464.831 148.232H466.545C466.516 148.732 466.38 149.173 466.135 149.553C465.894 149.931 465.56 150.227 465.134 150.44C464.708 150.653 464.204 150.759 463.621 150.759ZM470.664 150.759C470.002 150.759 469.43 150.619 468.947 150.338C468.467 150.053 468.096 149.659 467.835 149.153C467.573 148.644 467.443 148.055 467.443 147.384C467.443 146.708 467.573 146.117 467.835 145.612C468.096 145.103 468.467 144.708 468.947 144.427C469.43 144.143 470.002 144.001 470.664 144.001C471.326 144.001 471.897 144.143 472.377 144.427C472.86 144.708 473.232 145.103 473.494 145.612C473.755 146.117 473.886 146.708 473.886 147.384C473.886 148.055 473.755 148.644 473.494 149.153C473.232 149.659 472.86 150.053 472.377 150.338C471.897 150.619 471.326 150.759 470.664 150.759ZM470.673 149.353C470.974 149.353 471.225 149.268 471.427 149.098C471.629 148.924 471.781 148.688 471.883 148.39C471.988 148.092 472.041 147.752 472.041 147.372C472.041 146.991 471.988 146.651 471.883 146.353C471.781 146.055 471.629 145.819 471.427 145.646C471.225 145.473 470.974 145.386 470.673 145.386C470.369 145.386 470.113 145.473 469.906 145.646C469.701 145.819 469.546 146.055 469.441 146.353C469.339 146.651 469.288 146.991 469.288 147.372C469.288 147.752 469.339 148.092 469.441 148.39C469.546 148.688 469.701 148.924 469.906 149.098C470.113 149.268 470.369 149.353 470.673 149.353ZM475.066 150.632V144.086H476.796V145.241H476.873C477.009 144.857 477.237 144.555 477.555 144.333C477.873 144.112 478.254 144.001 478.697 144.001C479.146 144.001 479.528 144.113 479.843 144.338C480.159 144.559 480.369 144.86 480.474 145.241H480.542C480.676 144.866 480.917 144.566 481.267 144.342C481.619 144.115 482.035 144.001 482.515 144.001C483.126 144.001 483.622 144.196 484.002 144.585C484.386 144.971 484.578 145.519 484.578 146.23V150.632H482.767V146.588C482.767 146.224 482.67 145.951 482.477 145.769C482.284 145.588 482.042 145.497 481.752 145.497C481.423 145.497 481.166 145.602 480.981 145.812C480.796 146.019 480.704 146.294 480.704 146.634V150.632H478.944V146.549C478.944 146.228 478.852 145.973 478.667 145.782C478.485 145.592 478.245 145.497 477.947 145.497C477.745 145.497 477.563 145.548 477.401 145.65C477.242 145.749 477.116 145.89 477.022 146.072C476.928 146.251 476.882 146.461 476.882 146.703V150.632H475.066Z" fill="#222222"/>
<path d="M251.707 148.707C252.098 148.317 252.098 147.683 251.707 147.293L245.343 140.929C244.953 140.538 244.319 140.538 243.929 140.929C243.538 141.319 243.538 141.953 243.929 142.343L249.586 148L243.929 153.657C243.538 154.047 243.538 154.681 243.929 155.071C244.319 155.462 244.953 155.462 245.343 155.071L251.707 148.707ZM139 149H251V147H139V149Z" fill="black"/>
<path d="M664.707 147.707C665.098 147.317 665.098 146.683 664.707 146.293L658.343 139.929C657.953 139.538 657.319 139.538 656.929 139.929C656.538 140.319 656.538 140.953 656.929 141.343L662.586 147L656.929 152.657C656.538 153.047 656.538 153.681 656.929 154.071C657.319 154.462 657.953 154.462 658.343 154.071L664.707 147.707ZM552 148H664V146H552V148Z" fill="black"/>
<circle cx="194.993" cy="92.9925" r="17.9925" fill="#E2F5FA" stroke="#0055DC" stroke-width="2"/>
<path d="M196.873 85.824V98.6472H194.342V88.7419L191.301 89.7087V87.7136L196.601 85.824H196.873Z" fill="black"/>
<circle cx="607.992" cy="92.9925" r="17.9925" fill="#E2F5FA" stroke="#0055DC" stroke-width="2"/>
<path d="M612.457 96.6697V98.6472H603.704V96.9597L607.843 92.5212C608.259 92.0583 608.587 91.6511 608.828 91.2996C609.068 90.9421 609.241 90.6228 609.346 90.3416C609.457 90.0544 609.513 89.782 609.513 89.5242C609.513 89.1375 609.449 88.8064 609.32 88.531C609.191 88.2498 609 88.033 608.748 87.8806C608.502 87.7283 608.198 87.6521 607.834 87.6521C607.448 87.6521 607.114 87.7458 606.832 87.9333C606.557 88.1208 606.346 88.3816 606.2 88.7156C606.059 89.0496 605.989 89.4275 605.989 89.8494H603.449C603.449 89.0876 603.63 88.3904 603.994 87.7576C604.357 87.1189 604.87 86.6121 605.532 86.2371C606.194 85.8562 606.979 85.6658 607.887 85.6658C608.784 85.6658 609.539 85.8123 610.155 86.1052C610.776 86.3923 611.245 86.8083 611.561 87.3533C611.883 87.8923 612.044 88.5369 612.044 89.2869C612.044 89.7087 611.977 90.1218 611.842 90.5261C611.707 90.9246 611.514 91.323 611.262 91.7214C611.016 92.114 610.717 92.5125 610.366 92.9167C610.014 93.321 609.624 93.74 609.197 94.1736L606.973 96.6697H612.457Z" fill="black"/>
<path d="M712.419 167.636C712.419 168.588 712.239 169.398 711.878 170.065C711.52 170.733 711.031 171.243 710.412 171.595C709.795 171.945 709.102 172.119 708.332 172.119C707.557 172.119 706.861 171.943 706.244 171.591C705.628 171.239 705.141 170.729 704.783 170.061C704.425 169.393 704.246 168.585 704.246 167.636C704.246 166.685 704.425 165.875 704.783 165.207C705.141 164.54 705.628 164.031 706.244 163.682C706.861 163.33 707.557 163.153 708.332 163.153C709.102 163.153 709.795 163.33 710.412 163.682C711.031 164.031 711.52 164.54 711.878 165.207C712.239 165.875 712.419 166.685 712.419 167.636ZM710.548 167.636C710.548 167.02 710.456 166.5 710.271 166.077C710.089 165.653 709.832 165.332 709.5 165.114C709.168 164.895 708.778 164.786 708.332 164.786C707.886 164.786 707.497 164.895 707.165 165.114C706.832 165.332 706.574 165.653 706.389 166.077C706.207 166.5 706.116 167.02 706.116 167.636C706.116 168.253 706.207 168.773 706.389 169.196C706.574 169.619 706.832 169.94 707.165 170.159C707.497 170.378 707.886 170.487 708.332 170.487C708.778 170.487 709.168 170.378 709.5 170.159C709.832 169.94 710.089 169.619 710.271 169.196C710.456 168.773 710.548 168.253 710.548 167.636ZM713.752 172V165.455H715.512V166.597H715.58C715.699 166.19 715.9 165.884 716.181 165.676C716.462 165.466 716.786 165.361 717.152 165.361C717.243 165.361 717.341 165.366 717.446 165.378C717.551 165.389 717.644 165.405 717.723 165.425V167.036C717.638 167.01 717.52 166.987 717.37 166.967C717.219 166.947 717.081 166.938 716.956 166.938C716.689 166.938 716.451 166.996 716.24 167.112C716.033 167.226 715.868 167.385 715.746 167.589C715.627 167.794 715.567 168.03 715.567 168.297V172H713.752ZM718.662 172V165.455H720.477V172H718.662ZM719.574 164.611C719.304 164.611 719.072 164.521 718.879 164.342C718.689 164.161 718.594 163.943 718.594 163.69C718.594 163.44 718.689 163.226 718.879 163.047C719.072 162.865 719.304 162.774 719.574 162.774C719.844 162.774 720.074 162.865 720.264 163.047C720.457 163.226 720.554 163.44 720.554 163.69C720.554 163.943 720.457 164.161 720.264 164.342C720.074 164.521 719.844 164.611 719.574 164.611ZM724.88 174.591C724.292 174.591 723.788 174.51 723.368 174.348C722.95 174.189 722.618 173.972 722.37 173.696C722.123 173.42 721.963 173.111 721.889 172.767L723.568 172.541C723.619 172.672 723.7 172.794 723.811 172.908C723.922 173.021 724.068 173.112 724.25 173.18C724.434 173.251 724.659 173.287 724.923 173.287C725.318 173.287 725.643 173.19 725.899 172.997C726.157 172.807 726.287 172.487 726.287 172.038V170.841H726.21C726.13 171.023 726.011 171.195 725.852 171.357C725.693 171.518 725.488 171.651 725.238 171.753C724.988 171.855 724.69 171.906 724.343 171.906C723.852 171.906 723.404 171.793 723.001 171.565C722.6 171.335 722.281 170.984 722.042 170.513C721.806 170.038 721.689 169.439 721.689 168.714C721.689 167.973 721.809 167.354 722.051 166.857C722.292 166.359 722.613 165.987 723.014 165.74C723.417 165.493 723.859 165.369 724.339 165.369C724.706 165.369 725.012 165.432 725.26 165.557C725.507 165.679 725.706 165.832 725.856 166.017C726.01 166.199 726.127 166.378 726.21 166.554H726.278V165.455H728.081V172.064C728.081 172.621 727.944 173.087 727.672 173.462C727.399 173.837 727.021 174.118 726.538 174.305C726.058 174.496 725.505 174.591 724.88 174.591ZM724.919 170.543C725.211 170.543 725.458 170.47 725.66 170.325C725.865 170.178 726.021 169.967 726.129 169.695C726.24 169.419 726.295 169.089 726.295 168.706C726.295 168.322 726.241 167.99 726.133 167.709C726.025 167.425 725.869 167.205 725.664 167.048C725.46 166.892 725.211 166.814 724.919 166.814C724.62 166.814 724.369 166.895 724.164 167.057C723.96 167.216 723.805 167.437 723.7 167.722C723.595 168.006 723.542 168.334 723.542 168.706C723.542 169.084 723.595 169.411 723.7 169.686C723.808 169.959 723.963 170.17 724.164 170.321C724.369 170.469 724.62 170.543 724.919 170.543ZM729.525 172V165.455H731.341V172H729.525ZM730.437 164.611C730.167 164.611 729.936 164.521 729.743 164.342C729.552 164.161 729.457 163.943 729.457 163.69C729.457 163.44 729.552 163.226 729.743 163.047C729.936 162.865 730.167 162.774 730.437 162.774C730.707 162.774 730.937 162.865 731.127 163.047C731.321 163.226 731.417 163.44 731.417 163.69C731.417 163.943 731.321 164.161 731.127 164.342C730.937 164.521 730.707 164.611 730.437 164.611ZM734.61 168.216V172H732.795V165.455H734.525V166.609H734.602C734.746 166.229 734.989 165.928 735.33 165.706C735.671 165.482 736.085 165.369 736.57 165.369C737.025 165.369 737.421 165.469 737.759 165.668C738.097 165.866 738.36 166.151 738.548 166.52C738.735 166.886 738.829 167.324 738.829 167.832V172H737.013V168.156C737.016 167.756 736.914 167.443 736.707 167.219C736.499 166.991 736.214 166.878 735.85 166.878C735.606 166.878 735.39 166.93 735.202 167.036C735.018 167.141 734.873 167.294 734.768 167.496C734.665 167.695 734.613 167.935 734.61 168.216ZM747.805 165.783C747.771 165.439 747.625 165.172 747.366 164.982C747.108 164.791 746.757 164.696 746.314 164.696C746.013 164.696 745.759 164.739 745.551 164.824C745.344 164.906 745.185 165.021 745.074 165.169C744.966 165.317 744.912 165.484 744.912 165.672C744.906 165.828 744.939 165.964 745.01 166.081C745.084 166.197 745.185 166.298 745.312 166.384C745.44 166.466 745.588 166.538 745.756 166.601C745.923 166.661 746.102 166.712 746.293 166.754L747.077 166.942C747.457 167.027 747.807 167.141 748.125 167.283C748.443 167.425 748.719 167.599 748.952 167.807C749.185 168.014 749.365 168.259 749.493 168.54C749.624 168.821 749.69 169.143 749.693 169.507C749.69 170.041 749.554 170.504 749.284 170.896C749.017 171.286 748.631 171.588 748.125 171.804C747.622 172.017 747.016 172.124 746.305 172.124C745.601 172.124 744.987 172.016 744.464 171.8C743.945 171.584 743.538 171.264 743.246 170.841C742.956 170.415 742.804 169.888 742.79 169.26H744.575C744.595 169.553 744.679 169.797 744.827 169.993C744.977 170.186 745.178 170.332 745.428 170.432C745.68 170.528 745.966 170.577 746.284 170.577C746.597 170.577 746.868 170.531 747.098 170.44C747.331 170.349 747.511 170.223 747.639 170.061C747.767 169.899 747.831 169.713 747.831 169.503C747.831 169.307 747.773 169.142 747.656 169.009C747.543 168.875 747.375 168.761 747.153 168.668C746.935 168.574 746.666 168.489 746.348 168.412L745.398 168.173C744.662 167.994 744.081 167.714 743.655 167.334C743.229 166.953 743.017 166.44 743.02 165.795C743.017 165.267 743.158 164.805 743.442 164.411C743.729 164.016 744.122 163.707 744.622 163.486C745.122 163.264 745.69 163.153 746.327 163.153C746.974 163.153 747.54 163.264 748.023 163.486C748.509 163.707 748.886 164.016 749.156 164.411C749.426 164.805 749.565 165.263 749.574 165.783H747.805ZM753.883 172.128C753.21 172.128 752.63 171.991 752.145 171.719C751.662 171.443 751.289 171.054 751.028 170.551C750.767 170.045 750.636 169.447 750.636 168.757C750.636 168.084 750.767 167.493 751.028 166.984C751.289 166.476 751.657 166.08 752.132 165.795C752.609 165.511 753.169 165.369 753.811 165.369C754.243 165.369 754.645 165.439 755.017 165.578C755.392 165.714 755.718 165.92 755.997 166.196C756.278 166.472 756.497 166.818 756.653 167.236C756.809 167.651 756.887 168.136 756.887 168.693V169.192H751.36V168.067H755.179C755.179 167.805 755.122 167.574 755.008 167.372C754.895 167.17 754.737 167.013 754.535 166.899C754.336 166.783 754.105 166.724 753.841 166.724C753.565 166.724 753.321 166.788 753.108 166.916C752.897 167.041 752.733 167.21 752.613 167.423C752.494 167.634 752.433 167.868 752.43 168.126V169.196C752.43 169.52 752.49 169.8 752.609 170.036C752.731 170.271 752.903 170.453 753.125 170.581C753.346 170.709 753.609 170.773 753.913 170.773C754.115 170.773 754.299 170.744 754.467 170.688C754.635 170.631 754.778 170.545 754.897 170.432C755.017 170.318 755.108 170.179 755.17 170.014L756.849 170.125C756.764 170.528 756.589 170.881 756.325 171.182C756.064 171.48 755.725 171.713 755.311 171.881C754.899 172.045 754.423 172.128 753.883 172.128ZM758.072 172V165.455H759.832V166.597H759.9C760.02 166.19 760.22 165.884 760.501 165.676C760.782 165.466 761.106 165.361 761.473 165.361C761.564 165.361 761.662 165.366 761.767 165.378C761.872 165.389 761.964 165.405 762.044 165.425V167.036C761.958 167.01 761.841 166.987 761.69 166.967C761.539 166.947 761.402 166.938 761.277 166.938C761.01 166.938 760.771 166.996 760.561 167.112C760.353 167.226 760.189 167.385 760.066 167.589C759.947 167.794 759.887 168.03 759.887 168.297V172H758.072ZM769.284 165.455L766.995 172H764.95L762.662 165.455H764.579L765.939 170.138H766.007L767.362 165.455H769.284ZM772.985 172.128C772.311 172.128 771.732 171.991 771.246 171.719C770.763 171.443 770.391 171.054 770.13 170.551C769.868 170.045 769.738 169.447 769.738 168.757C769.738 168.084 769.868 167.493 770.13 166.984C770.391 166.476 770.759 166.08 771.233 165.795C771.711 165.511 772.27 165.369 772.912 165.369C773.344 165.369 773.746 165.439 774.118 165.578C774.493 165.714 774.82 165.92 775.098 166.196C775.38 166.472 775.598 166.818 775.755 167.236C775.911 167.651 775.989 168.136 775.989 168.693V169.192H770.462V168.067H774.28C774.28 167.805 774.223 167.574 774.11 167.372C773.996 167.17 773.838 167.013 773.637 166.899C773.438 166.783 773.206 166.724 772.942 166.724C772.667 166.724 772.422 166.788 772.209 166.916C771.999 167.041 771.834 167.21 771.715 167.423C771.596 167.634 771.534 167.868 771.532 168.126V169.196C771.532 169.52 771.591 169.8 771.711 170.036C771.833 170.271 772.005 170.453 772.226 170.581C772.448 170.709 772.711 170.773 773.015 170.773C773.216 170.773 773.401 170.744 773.569 170.688C773.736 170.631 773.88 170.545 773.999 170.432C774.118 170.318 774.209 170.179 774.272 170.014L775.951 170.125C775.865 170.528 775.691 170.881 775.426 171.182C775.165 171.48 774.827 171.713 774.412 171.881C774 172.045 773.525 172.128 772.985 172.128ZM777.174 172V165.455H778.934V166.597H779.002C779.121 166.19 779.321 165.884 779.603 165.676C779.884 165.466 780.208 165.361 780.574 165.361C780.665 165.361 780.763 165.366 780.868 165.378C780.973 165.389 781.066 165.405 781.145 165.425V167.036C781.06 167.01 780.942 166.987 780.792 166.967C780.641 166.947 780.503 166.938 780.378 166.938C780.111 166.938 779.873 166.996 779.662 167.112C779.455 167.226 779.29 167.385 779.168 167.589C779.049 167.794 778.989 168.03 778.989 168.297V172H777.174Z" fill="#222222"/>
<path d="M714.221 123.025H712V134.454H714.221V123.025Z" fill="#0055DC"/>
<path d="M772.153 123.025H769.932V134.454H772.153V123.025Z" fill="#0055DC"/>
<path d="M717.262 136.491L717.262 138.66L766.889 138.657L766.889 136.488L717.262 136.491Z" fill="white" stroke="#0055DC" stroke-width="1.5" stroke-miterlimit="10"/>
<path d="M769.932 121H714.22V136.489H769.932V121Z" fill="#C5EBF5" stroke="#0055DC" stroke-width="1.5" stroke-miterlimit="10"/>
<path d="M767.526 134.305V123.184H716.627V134.305H767.526Z" fill="white"/>
<path d="M720.759 126.324H719.525V127.528H720.759V126.324Z" fill="#0055DC"/>
<path d="M720.759 129.949H719.525V131.154H720.759V129.949Z" fill="#0055DC"/>
<path d="M722.447 128.039H721.214V129.243H722.447V128.039Z" fill="#0055DC"/>
<path d="M723.948 126.324H722.715V127.528H723.948V126.324Z" fill="#0055DC"/>
<path d="M723.948 129.949H722.715V131.154H723.948V129.949Z" fill="#0055DC"/>
<path d="M725.543 128.039H724.31V129.243H725.543V128.039Z" fill="#0055DC"/>
<path d="M727.43 126.324H726.197V127.528H727.43V126.324Z" fill="#0055DC"/>
<path d="M727.43 129.949H726.197V131.154H727.43V129.949Z" fill="#0055DC"/>
<path d="M729.025 128.039H727.792V129.243H729.025V128.039Z" fill="#0055DC"/>
<path d="M730.966 126.324H729.733V127.528H730.966V126.324Z" fill="#0055DC"/>
<path d="M730.966 129.949H729.733V131.154H730.966V129.949Z" fill="#0055DC"/>
<path d="M732.467 128.039H731.234V129.243H732.467V128.039Z" fill="#0055DC"/>
<path d="M734.155 126.324H732.922V127.528H734.155V126.324Z" fill="#0055DC"/>
<path d="M734.155 129.949H732.922V131.154H734.155V129.949Z" fill="#0055DC"/>
<path d="M735.563 128.039H734.33V129.243H735.563V128.039Z" fill="#0055DC"/>
<path d="M737.346 126.324H736.113V127.528H737.346V126.324Z" fill="#0055DC"/>
<path d="M737.346 129.949H736.113V131.154H737.346V129.949Z" fill="#0055DC"/>
<path d="M738.66 128.039H737.427V129.243H738.66V128.039Z" fill="#0055DC"/>
<path d="M763.482 130.24C764.328 130.24 765.013 129.57 765.013 128.744C765.013 127.919 764.328 127.249 763.482 127.249C762.637 127.249 761.951 127.919 761.951 128.744C761.951 129.57 762.637 130.24 763.482 130.24Z" fill="#0055DC"/>
<path d="M759.08 128.744H742.867" stroke="#0055DC" stroke-width="1.5" stroke-miterlimit="10"/>
<path d="M728.003 130.264H725.783V141.693H728.003V130.264Z" fill="#0055DC"/>
<path d="M785.935 130.264H783.715V141.693H785.935V130.264Z" fill="#0055DC"/>
<path d="M731.045 143.729L731.045 145.898L780.672 145.895L780.672 143.727L731.045 143.729Z" fill="white" stroke="#0055DC" stroke-width="1.5" stroke-miterlimit="10"/>
<path d="M783.714 128.239H728.003V143.727H783.714V128.239Z" fill="#C5EBF5" stroke="#0055DC" stroke-width="1.5" stroke-miterlimit="10"/>
<path d="M781.308 141.543V130.422H730.41V141.543H781.308Z" fill="white"/>
<path d="M734.541 133.562H733.308V134.767H734.541V133.562Z" fill="#0055DC"/>
<path d="M734.541 137.188H733.308V138.392H734.541V137.188Z" fill="#0055DC"/>
<path d="M736.229 135.277H734.996V136.482H736.229V135.277Z" fill="#0055DC"/>
<path d="M737.731 133.562H736.497V134.767H737.731V133.562Z" fill="#0055DC"/>
<path d="M737.731 137.188H736.497V138.392H737.731V137.188Z" fill="#0055DC"/>
<path d="M739.326 135.277H738.093V136.482H739.326V135.277Z" fill="#0055DC"/>
<path d="M741.213 133.562H739.98V134.767H741.213V133.562Z" fill="#0055DC"/>
<path d="M741.213 137.188H739.98V138.392H741.213V137.188Z" fill="#0055DC"/>
<path d="M742.808 135.277H741.575V136.482H742.808V135.277Z" fill="#0055DC"/>
<path d="M744.748 133.562H743.515V134.767H744.748V133.562Z" fill="#0055DC"/>
<path d="M744.748 137.188H743.515V138.392H744.748V137.188Z" fill="#0055DC"/>
<path d="M746.25 135.277H745.016V136.482H746.25V135.277Z" fill="#0055DC"/>
<path d="M747.938 133.562H746.705V134.767H747.938V133.562Z" fill="#0055DC"/>
<path d="M747.938 137.188H746.705V138.392H747.938V137.188Z" fill="#0055DC"/>
<path d="M749.346 135.277H748.113V136.482H749.346V135.277Z" fill="#0055DC"/>
<path d="M751.129 133.562H749.896V134.767H751.129V133.562Z" fill="#0055DC"/>
<path d="M751.129 137.188H749.896V138.392H751.129V137.188Z" fill="#0055DC"/>
<path d="M752.443 135.277H751.209V136.482H752.443V135.277Z" fill="#0055DC"/>
<path d="M777.265 137.478C778.11 137.478 778.796 136.809 778.796 135.983C778.796 135.157 778.11 134.488 777.265 134.488C776.419 134.488 775.734 135.157 775.734 135.983C775.734 136.809 776.419 137.478 777.265 137.478Z" fill="#0055DC"/>
<path d="M772.863 135.983H756.649" stroke="#0055DC" stroke-width="1.5" stroke-miterlimit="10"/>
<rect x="232" y="51" width="341" height="161" stroke="#FF6633" stroke-width="2" stroke-dasharray="2 2"/>
<path d="M252.267 64.3281H250.401C250.367 64.0866 250.297 63.8722 250.192 63.6847C250.087 63.4943 249.952 63.3324 249.787 63.1989C249.623 63.0653 249.432 62.9631 249.216 62.892C249.003 62.821 248.772 62.7855 248.522 62.7855C248.07 62.7855 247.676 62.8977 247.341 63.1222C247.006 63.3437 246.746 63.6676 246.561 64.0938C246.377 64.517 246.284 65.0312 246.284 65.6364C246.284 66.2585 246.377 66.7812 246.561 67.2045C246.749 67.6278 247.01 67.9474 247.346 68.1634C247.681 68.3793 248.069 68.4872 248.509 68.4872C248.756 68.4872 248.985 68.4545 249.195 68.3892C249.408 68.3239 249.597 68.2287 249.762 68.1037C249.926 67.9759 250.063 67.821 250.171 67.6392C250.282 67.4574 250.358 67.25 250.401 67.017L252.267 67.0256C252.219 67.4261 252.098 67.8125 251.905 68.1847C251.715 68.554 251.458 68.8849 251.134 69.1776C250.813 69.4673 250.429 69.6974 249.983 69.8679C249.54 70.0355 249.039 70.1193 248.479 70.1193C247.701 70.1193 247.005 69.9432 246.391 69.5909C245.78 69.2386 245.297 68.7287 244.942 68.0611C244.59 67.3935 244.414 66.5852 244.414 65.6364C244.414 64.6847 244.593 63.875 244.951 63.2074C245.309 62.5398 245.794 62.0312 246.408 61.6818C247.022 61.3295 247.712 61.1534 248.479 61.1534C248.985 61.1534 249.453 61.2244 249.885 61.3665C250.32 61.5085 250.705 61.7159 251.04 61.9886C251.375 62.2585 251.648 62.5895 251.858 62.9815C252.071 63.3736 252.208 63.8224 252.267 64.3281ZM255.372 61.2727V70H253.556V61.2727H255.372ZM259.783 70.1278C259.121 70.1278 258.549 69.9872 258.066 69.706C257.586 69.4219 257.215 69.027 256.954 68.5213C256.692 68.0128 256.562 67.4233 256.562 66.7528C256.562 66.0767 256.692 65.4858 256.954 64.9801C257.215 64.4716 257.586 64.0767 258.066 63.7955C258.549 63.5114 259.121 63.3693 259.783 63.3693C260.445 63.3693 261.016 63.5114 261.496 63.7955C261.979 64.0767 262.352 64.4716 262.613 64.9801C262.874 65.4858 263.005 66.0767 263.005 66.7528C263.005 67.4233 262.874 68.0128 262.613 68.5213C262.352 69.027 261.979 69.4219 261.496 69.706C261.016 69.9872 260.445 70.1278 259.783 70.1278ZM259.792 68.7216C260.093 68.7216 260.344 68.6364 260.546 68.4659C260.748 68.2926 260.9 68.0568 261.002 67.7585C261.107 67.4602 261.16 67.1207 261.16 66.7401C261.16 66.3594 261.107 66.0199 261.002 65.7216C260.9 65.4233 260.748 65.1875 260.546 65.0142C260.344 64.8409 260.093 64.7543 259.792 64.7543C259.488 64.7543 259.232 64.8409 259.025 65.0142C258.82 65.1875 258.665 65.4233 258.56 65.7216C258.458 66.0199 258.407 66.3594 258.407 66.7401C258.407 67.1207 258.458 67.4602 258.56 67.7585C258.665 68.0568 258.82 68.2926 259.025 68.4659C259.232 68.6364 259.488 68.7216 259.792 68.7216ZM268.383 67.2131V63.4545H270.198V70H268.455V68.8111H268.387C268.239 69.1946 267.994 69.5028 267.65 69.7358C267.309 69.9687 266.893 70.0852 266.401 70.0852C265.964 70.0852 265.579 69.9858 265.246 69.7869C264.914 69.5881 264.654 69.3054 264.467 68.9389C264.282 68.5724 264.188 68.1335 264.185 67.6222V63.4545H266.001V67.2983C266.004 67.6847 266.107 67.9901 266.312 68.2145C266.516 68.4389 266.79 68.5511 267.134 68.5511C267.353 68.5511 267.558 68.5014 267.748 68.402C267.938 68.2997 268.092 68.1491 268.208 67.9503C268.327 67.7514 268.386 67.5057 268.383 67.2131ZM274.062 70.1065C273.565 70.1065 273.115 69.9787 272.711 69.723C272.311 69.4645 271.993 69.0852 271.757 68.5852C271.524 68.0824 271.407 67.4659 271.407 66.7358C271.407 65.9858 271.528 65.3622 271.77 64.8651C272.011 64.3651 272.332 63.9915 272.733 63.7443C273.136 63.4943 273.578 63.3693 274.058 63.3693C274.424 63.3693 274.73 63.4318 274.974 63.5568C275.221 63.679 275.42 63.8324 275.571 64.017C275.724 64.1989 275.841 64.3778 275.92 64.554H275.975V61.2727H277.787V70H275.997V68.9517H275.92C275.835 69.1335 275.714 69.3139 275.558 69.4929C275.404 69.669 275.204 69.8153 274.957 69.9318C274.713 70.0483 274.414 70.1065 274.062 70.1065ZM274.637 68.6619C274.93 68.6619 275.177 68.5824 275.379 68.4233C275.583 68.2614 275.74 68.0355 275.848 67.7457C275.958 67.456 276.014 67.1165 276.014 66.7273C276.014 66.3381 275.96 66 275.852 65.7131C275.744 65.4261 275.588 65.2045 275.383 65.0483C275.179 64.892 274.93 64.8139 274.637 64.8139C274.339 64.8139 274.088 64.8949 273.883 65.0568C273.679 65.2187 273.524 65.4432 273.419 65.7301C273.314 66.017 273.261 66.3494 273.261 66.7273C273.261 67.108 273.314 67.4446 273.419 67.7372C273.527 68.027 273.681 68.2543 273.883 68.419C274.088 68.581 274.339 68.6619 274.637 68.6619ZM282.799 63.4545V64.8182H278.759V63.4545H282.799ZM279.684 70V62.9815C279.684 62.5071 279.776 62.1136 279.961 61.8011C280.148 61.4886 280.404 61.2543 280.728 61.098C281.052 60.9418 281.42 60.8636 281.832 60.8636C282.11 60.8636 282.364 60.8849 282.594 60.9276C282.827 60.9702 283.001 61.0085 283.114 61.0426L282.79 62.4062C282.719 62.3835 282.631 62.3622 282.526 62.3423C282.424 62.3224 282.319 62.3125 282.211 62.3125C281.944 62.3125 281.758 62.375 281.653 62.5C281.548 62.6222 281.495 62.794 281.495 63.0156V70H279.684ZM285.723 61.2727V70H283.908V61.2727H285.723ZM289.044 70.1236C288.626 70.1236 288.254 70.0511 287.928 69.9062C287.601 69.7585 287.342 69.5412 287.152 69.2543C286.964 68.9645 286.871 68.6037 286.871 68.1719C286.871 67.8082 286.938 67.5028 287.071 67.2557C287.205 67.0085 287.386 66.8097 287.616 66.6591C287.847 66.5085 288.108 66.3949 288.401 66.3182C288.696 66.2415 289.006 66.1875 289.33 66.1562C289.71 66.1165 290.017 66.0795 290.25 66.0455C290.483 66.0085 290.652 65.9545 290.757 65.8835C290.862 65.8125 290.915 65.7074 290.915 65.5682V65.5426C290.915 65.2727 290.83 65.0639 290.659 64.9162C290.491 64.7685 290.253 64.6946 289.943 64.6946C289.616 64.6946 289.357 64.767 289.163 64.9119C288.97 65.054 288.842 65.233 288.78 65.4489L287.101 65.3125C287.186 64.9148 287.354 64.571 287.604 64.2812C287.854 63.9886 288.176 63.7642 288.571 63.608C288.969 63.4489 289.429 63.3693 289.952 63.3693C290.315 63.3693 290.663 63.4119 290.996 63.4972C291.331 63.5824 291.628 63.7145 291.886 63.8935C292.148 64.0724 292.354 64.3026 292.504 64.5838C292.655 64.8622 292.73 65.196 292.73 65.5852V70H291.009V69.0923H290.957C290.852 69.2969 290.712 69.4773 290.536 69.6335C290.359 69.7869 290.148 69.9077 289.901 69.9957C289.653 70.081 289.368 70.1236 289.044 70.1236ZM289.564 68.8707C289.831 68.8707 290.067 68.8182 290.271 68.7131C290.476 68.6051 290.636 68.4602 290.753 68.2784C290.869 68.0966 290.928 67.8906 290.928 67.6605V66.9659C290.871 67.0028 290.793 67.0369 290.693 67.0682C290.597 67.0966 290.487 67.1236 290.365 67.1491C290.243 67.1719 290.121 67.1932 289.999 67.2131C289.876 67.2301 289.766 67.2457 289.666 67.2599C289.453 67.2912 289.267 67.3409 289.108 67.4091C288.949 67.4773 288.825 67.5696 288.737 67.6861C288.649 67.7997 288.605 67.9418 288.605 68.1122C288.605 68.3594 288.695 68.5483 288.874 68.679C289.055 68.8068 289.286 68.8707 289.564 68.8707ZM294.138 70V63.4545H295.898V64.5966H295.967C296.086 64.1903 296.286 63.8835 296.567 63.6761C296.849 63.4659 297.173 63.3608 297.539 63.3608C297.63 63.3608 297.728 63.3665 297.833 63.3778C297.938 63.3892 298.031 63.4048 298.11 63.4247V65.0355C298.025 65.0099 297.907 64.9872 297.756 64.9673C297.606 64.9474 297.468 64.9375 297.343 64.9375C297.076 64.9375 296.837 64.9957 296.627 65.1122C296.42 65.2259 296.255 65.3849 296.133 65.5895C296.013 65.794 295.954 66.0298 295.954 66.2969V70H294.138ZM301.727 70.1278C301.054 70.1278 300.474 69.9915 299.988 69.7188C299.505 69.4432 299.133 69.054 298.872 68.5511C298.61 68.0455 298.48 67.4474 298.48 66.7571C298.48 66.0838 298.61 65.4929 298.872 64.9844C299.133 64.4759 299.501 64.0795 299.975 63.7955C300.453 63.5114 301.012 63.3693 301.654 63.3693C302.086 63.3693 302.488 63.4389 302.86 63.5781C303.235 63.7145 303.562 63.9205 303.841 64.196C304.122 64.4716 304.341 64.8182 304.497 65.2358C304.653 65.6506 304.731 66.1364 304.731 66.6932V67.1918H299.204V66.0668H303.022C303.022 65.8054 302.966 65.5739 302.852 65.3722C302.738 65.1705 302.581 65.0128 302.379 64.8991C302.18 64.7827 301.949 64.7244 301.684 64.7244C301.409 64.7244 301.164 64.7884 300.951 64.9162C300.741 65.0412 300.576 65.2102 300.457 65.4233C300.338 65.6335 300.277 65.8679 300.274 66.1264V67.196C300.274 67.5199 300.333 67.7997 300.453 68.0355C300.575 68.2713 300.747 68.4531 300.968 68.581C301.19 68.7088 301.453 68.7727 301.757 68.7727C301.958 68.7727 302.143 68.7443 302.311 68.6875C302.478 68.6307 302.622 68.5455 302.741 68.4318C302.86 68.3182 302.951 68.179 303.014 68.0142L304.693 68.125C304.608 68.5284 304.433 68.8807 304.169 69.1818C303.907 69.4801 303.569 69.7131 303.154 69.8807C302.743 70.0455 302.267 70.1278 301.727 70.1278Z" fill="#FF6633"/>
</svg>
