<svg xmlns="http://www.w3.org/2000/svg" width="928" height="468" fill="none" viewBox="0 0 928 468"><path fill="#fff" d="M0 0h928v468H0z"/><path stroke="#B5B5B5" stroke-dasharray="10 10" stroke-width="2" d="M463 93h417v246H463z"/><path fill="#222" d="M745.188 66.438H742.7a2.5 2.5 0 0 0-.279-.859q-.21-.38-.54-.647a2.4 2.4 0 0 0-.761-.41 2.9 2.9 0 0 0-.926-.141q-.903 0-1.574.448-.67.444-1.04 1.296-.369.846-.369 2.057 0 1.244.369 2.09.375.847 1.046 1.28.67.43 1.551.431.493 0 .915-.13.426-.132.755-.381.33-.255.546-.62.221-.363.307-.83l2.488.012a4.64 4.64 0 0 1-1.511 2.87q-.643.58-1.534.92-.887.335-2.006.335-1.557 0-2.784-.705-1.221-.705-1.932-2.04-.705-1.335-.704-3.232 0-1.904.715-3.239.716-1.335 1.944-2.034 1.227-.705 2.761-.704a6 6 0 0 1 1.875.284 4.8 4.8 0 0 1 1.54.83q.67.539 1.091 1.323.426.784.545 1.796m5.486 7.733q-1.323 0-2.29-.563a3.85 3.85 0 0 1-1.483-1.58q-.522-1.017-.522-2.358 0-1.352.522-2.363a3.8 3.8 0 0 1 1.483-1.58q.966-.568 2.29-.568t2.284.568q.966.563 1.489 1.58.522 1.011.523 2.364 0 1.34-.523 2.357a3.84 3.84 0 0 1-1.489 1.58q-.96.563-2.284.563m.011-1.876q.603 0 1.006-.34.404-.347.608-.944.21-.596.21-1.358 0-.76-.21-1.358-.204-.596-.608-.943-.403-.346-1.006-.346-.608 0-1.022.346-.409.347-.62.944-.204.596-.204 1.357t.204 1.358q.211.597.62.944.414.34 1.022.34M756.367 74v-8.727h2.347v1.523h.091q.239-.813.801-1.228.563-.42 1.295-.42a3.7 3.7 0 0 1 .762.085v2.148a3 3 0 0 0-.472-.091q-.3-.04-.551-.04-.534 0-.954.233a1.7 1.7 0 0 0-.66.636 1.84 1.84 0 0 0-.238.944V74zm6.371 3.273v-12h2.387v1.466h.108q.159-.353.46-.716.307-.37.795-.614.495-.25 1.228-.25a3.3 3.3 0 0 1 1.761.5q.807.495 1.29 1.494.483.995.483 2.495 0 1.46-.472 2.466-.466 1-1.273 1.517a3.27 3.27 0 0 1-1.795.511q-.704 0-1.199-.233a2.5 2.5 0 0 1-.801-.585 3 3 0 0 1-.477-.722h-.074v4.67zm2.37-7.637q0 .78.216 1.358.215.58.625.904.409.318.994.318.59 0 1-.324.41-.33.619-.909.216-.586.216-1.347 0-.755-.21-1.33-.21-.573-.619-.897t-1.006-.324q-.59 0-1 .313-.404.313-.619.886-.216.574-.216 1.352m11.522 4.535q-1.323 0-2.289-.563a3.85 3.85 0 0 1-1.483-1.58q-.523-1.017-.523-2.358 0-1.352.523-2.363a3.8 3.8 0 0 1 1.483-1.58q.966-.568 2.289-.568t2.285.568q.965.563 1.488 1.58.523 1.011.523 2.364 0 1.34-.523 2.357a3.84 3.84 0 0 1-1.488 1.58q-.961.563-2.285.563m.012-1.876q.602 0 1.006-.34.402-.347.607-.944.211-.596.211-1.358 0-.76-.211-1.358-.205-.596-.607-.943-.404-.346-1.006-.346-.608 0-1.023.346-.41.347-.619.944-.205.596-.205 1.357t.205 1.358q.21.597.619.944.415.34 1.023.34M782.324 74v-8.727h2.346v1.523h.091q.239-.813.801-1.228.563-.42 1.296-.42a3.7 3.7 0 0 1 .761.085v2.148a3 3 0 0 0-.471-.091 4 4 0 0 0-.551-.04q-.535 0-.955.233a1.7 1.7 0 0 0-.659.636 1.84 1.84 0 0 0-.239.944V74zm8.609.165q-.836 0-1.488-.29a2.4 2.4 0 0 1-1.034-.87q-.375-.58-.375-1.442 0-.727.267-1.222t.727-.795q.46-.302 1.045-.455a8 8 0 0 1 1.239-.216q.762-.08 1.227-.148.466-.073.676-.216a.47.47 0 0 0 .211-.42v-.034q0-.54-.341-.835-.336-.296-.955-.296-.653 0-1.04.29-.386.284-.511.716l-2.239-.182a3.05 3.05 0 0 1 .671-1.375q.5-.585 1.29-.898.795-.318 1.841-.318.726 0 1.392.17.67.17 1.187.529.523.358.824.92.301.558.301 1.336V74h-2.295v-1.21h-.069q-.21.409-.562.721a2.6 2.6 0 0 1-.847.483q-.494.17-1.142.17m.693-1.67q.535 0 .944-.21a1.7 1.7 0 0 0 .642-.58q.233-.364.233-.824v-.927q-.114.075-.313.137a6 6 0 0 1-.437.108q-.245.045-.489.085l-.443.063a3 3 0 0 0-.744.199 1.2 1.2 0 0 0-.495.369.9.9 0 0 0-.176.568q0 .494.358.756.363.255.92.255m10.566-7.222v1.818h-5.256v-1.818zm-4.063-2.091h2.421v8.136q0 .336.102.523a.56.56 0 0 0 .284.256q.188.074.432.074.17 0 .341-.029l.261-.051.381 1.801a7 7 0 0 1-.511.13q-.33.08-.801.097-.875.034-1.535-.233a2.15 2.15 0 0 1-1.017-.83q-.363-.561-.358-1.42zm9.347 10.989q-1.346 0-2.318-.546a3.74 3.74 0 0 1-1.489-1.557q-.522-1.01-.522-2.392 0-1.347.522-2.364a3.87 3.87 0 0 1 1.472-1.585q.954-.568 2.239-.568a4.6 4.6 0 0 1 1.608.278q.75.273 1.306.824.563.552.875 1.387.313.829.313 1.943v.665h-7.369v-1.5h5.09a1.85 1.85 0 0 0-.227-.927 1.63 1.63 0 0 0-.631-.63 1.8 1.8 0 0 0-.926-.233q-.55 0-.977.256-.42.25-.659.676-.239.42-.244.937v1.426q0 .648.238 1.12.244.47.688.727.443.255 1.051.256.403 0 .739-.114.334-.114.573-.34.24-.228.364-.558l2.239.148a3.06 3.06 0 0 1-.699 1.41 3.5 3.5 0 0 1-1.352.93q-.824.33-1.904.33m18.715-11.807V74h-2.125l-5.063-7.324h-.085V74h-2.46V62.364h2.159l5.023 7.318h.102v-7.318zm5.788 11.807q-1.346 0-2.318-.546a3.73 3.73 0 0 1-1.488-1.557q-.523-1.01-.523-2.392 0-1.347.523-2.364a3.86 3.86 0 0 1 1.471-1.585q.955-.568 2.239-.568.864 0 1.608.278.75.273 1.307.824.562.552.875 1.387.312.829.312 1.943v.665h-7.369v-1.5h5.091a1.85 1.85 0 0 0-.228-.927 1.6 1.6 0 0 0-.63-.63 1.8 1.8 0 0 0-.926-.233q-.552 0-.978.256-.42.25-.659.676-.238.42-.244.937v1.426q0 .648.239 1.12.244.47.687.727.444.255 1.051.256.403 0 .739-.114t.574-.34.363-.558l2.239.148a3.06 3.06 0 0 1-.699 1.41q-.522.595-1.352.93-.824.33-1.904.33m10.052-8.898v1.818h-5.256v-1.818zm-4.063-2.091h2.421v8.136q0 .336.102.523a.56.56 0 0 0 .284.256q.188.074.432.074.17 0 .341-.029l.261-.051.381 1.801a7 7 0 0 1-.512.13 4 4 0 0 1-.801.097q-.874.034-1.534-.233a2.15 2.15 0 0 1-1.017-.83q-.363-.561-.358-1.42zM845.153 74l-2.375-8.727h2.449l1.352 5.863h.08l1.409-5.863h2.403l1.432 5.83h.074l1.329-5.83h2.444L853.38 74h-2.562l-1.5-5.489h-.108L847.71 74zm15.436.17q-1.323 0-2.29-.562a3.85 3.85 0 0 1-1.483-1.58q-.522-1.017-.522-2.358 0-1.352.522-2.363a3.8 3.8 0 0 1 1.483-1.58q.966-.568 2.29-.568t2.284.568q.966.563 1.489 1.58.522 1.011.523 2.364 0 1.34-.523 2.357a3.84 3.84 0 0 1-1.489 1.58q-.96.563-2.284.563m.012-1.874q.601 0 1.005-.342.404-.346.608-.943.21-.596.21-1.358 0-.76-.21-1.358-.204-.596-.608-.943-.404-.346-1.005-.346-.609 0-1.023.346-.41.347-.619.944-.205.596-.205 1.357t.205 1.358q.21.597.619.944.414.34 1.023.34M866.283 74v-8.727h2.346v1.523h.091q.238-.813.801-1.228.563-.42 1.296-.42a3.7 3.7 0 0 1 .761.085v2.148a3 3 0 0 0-.472-.091q-.3-.04-.551-.04-.534 0-.954.233a1.7 1.7 0 0 0-.659.636 1.84 1.84 0 0 0-.239.944V74zm8.564-2.511.005-2.904h.353L878 65.273h2.778l-3.755 4.386h-.574zM872.653 74V62.364h2.421V74zm5.455 0-2.568-3.801 1.613-1.71 3.79 5.511zM640.03 273h-1.977l3.013-8.727h2.378l3.008 8.727h-1.977l-2.186-6.733h-.068zm-.123-3.43h4.67v1.44h-4.67zm7.562 5.885v-9h1.789v1.099h.081q.12-.264.345-.537.231-.277.597-.46.37-.188.921-.188.715 0 1.321.375.604.37.967 1.121.362.746.362 1.871 0 1.095-.354 1.849-.35.75-.954 1.138a2.45 2.45 0 0 1-1.347.384q-.528 0-.899-.175a1.9 1.9 0 0 1-.601-.439 2.3 2.3 0 0 1-.358-.541h-.055v3.503zm1.777-5.728q0 .584.161 1.019.162.434.469.677.307.239.746.239.442 0 .75-.243.307-.247.464-.682.162-.438.162-1.01 0-.567-.157-.997a1.5 1.5 0 0 0-.465-.673 1.18 1.18 0 0 0-.754-.243q-.442 0-.75.234a1.47 1.47 0 0 0-.465.665 2.9 2.9 0 0 0-.161 1.014m5.816 5.728v-9h1.79v1.099h.081q.12-.264.345-.537.231-.277.597-.46.37-.188.92-.188.717 0 1.321.375.606.37.968 1.121.362.746.362 1.871 0 1.095-.354 1.849-.35.75-.954 1.138a2.45 2.45 0 0 1-1.347.384q-.528 0-.899-.175a1.9 1.9 0 0 1-.601-.439 2.2 2.2 0 0 1-.358-.541h-.055v3.503zm1.777-5.728q0 .584.162 1.019t.469.677q.307.239.746.239.442 0 .75-.243.306-.247.464-.682.162-.438.162-1.01 0-.567-.158-.997a1.5 1.5 0 0 0-.464-.673 1.18 1.18 0 0 0-.754-.243q-.444 0-.75.234a1.47 1.47 0 0 0-.465.665 2.9 2.9 0 0 0-.162 1.014m7.632-5.454V273h-1.815v-8.727zm1.455 8.727v-6.545h1.815V273zm.912-7.389a1 1 0 0 1-.695-.269.87.87 0 0 1-.286-.652q0-.375.286-.643a.98.98 0 0 1 .695-.273q.404 0 .69.273.29.268.29.643a.86.86 0 0 1-.29.652.97.97 0 0 1-.69.269m5.315 7.517q-1.007 0-1.731-.426a2.9 2.9 0 0 1-1.108-1.193q-.383-.763-.383-1.756 0-1.007.388-1.764a2.9 2.9 0 0 1 1.112-1.189q.72-.43 1.713-.431.856 0 1.5.311.643.312 1.018.874t.414 1.321h-1.713q-.073-.49-.384-.788-.306-.303-.805-.303a1.22 1.22 0 0 0-.737.23q-.312.226-.486.661-.175.434-.175 1.052 0 .627.171 1.066.174.438.49.669.315.23.737.23a1.2 1.2 0 0 0 .558-.128q.251-.128.413-.371.167-.247.218-.592h1.713q-.043.75-.409 1.321a2.5 2.5 0 0 1-1.002.886q-.639.32-1.512.32m5.952-.004q-.627 0-1.117-.218a1.8 1.8 0 0 1-.775-.652q-.282-.434-.282-1.082 0-.546.201-.916.2-.37.545-.597.346-.225.784-.341a6 6 0 0 1 .929-.162q.571-.06.921-.111.35-.054.507-.161a.36.36 0 0 0 .157-.316v-.025q0-.405-.255-.627-.252-.221-.716-.221-.49 0-.78.217a1 1 0 0 0-.384.537l-1.679-.137q.129-.596.503-1.031.375-.438.968-.673.596-.239 1.38-.239.546 0 1.044.128.503.127.891.396.391.269.618.691.225.417.226 1.001V273h-1.722v-.908h-.051a1.9 1.9 0 0 1-.422.542 2 2 0 0 1-.635.362 2.6 2.6 0 0 1-.856.128m.519-1.253q.401 0 .708-.158.306-.162.481-.435.175-.272.175-.617v-.695a1 1 0 0 1-.234.102 4 4 0 0 1-.328.081 17 17 0 0 1-.367.064l-.332.047a2.2 2.2 0 0 0-.558.149.9.9 0 0 0-.371.277.68.68 0 0 0-.132.426q0 .37.268.567.273.192.69.192m8.057-5.416v1.363h-3.942v-1.363zm-3.047-1.569h1.815v6.103a.8.8 0 0 0 .077.392.42.42 0 0 0 .213.191.9.9 0 0 0 .324.056q.127 0 .255-.021l.196-.039.286 1.351a5 5 0 0 1-.384.098q-.247.06-.6.072-.657.026-1.151-.174a1.6 1.6 0 0 1-.763-.622q-.273-.423-.268-1.066zm4.229 8.114v-6.545h1.815V273zm.912-7.389a1 1 0 0 1-.695-.269.87.87 0 0 1-.285-.652q0-.375.285-.643a.98.98 0 0 1 .695-.273q.405 0 .69.273.29.268.29.643a.86.86 0 0 1-.29.652.97.97 0 0 1-.69.269m5.315 7.517q-.993 0-1.717-.422a2.9 2.9 0 0 1-1.113-1.185q-.392-.762-.392-1.768 0-1.014.392-1.773a2.87 2.87 0 0 1 1.113-1.185q.724-.426 1.717-.426t1.713.426q.724.423 1.117 1.185.392.759.392 1.773 0 1.006-.392 1.768a2.9 2.9 0 0 1-1.117 1.185q-.72.422-1.713.422m.009-1.406q.451 0 .754-.256.302-.26.456-.707.157-.448.157-1.019t-.157-1.018a1.6 1.6 0 0 0-.456-.708 1.12 1.12 0 0 0-.754-.26q-.456 0-.768.26a1.6 1.6 0 0 0-.464.708 3.1 3.1 0 0 0-.153 1.018q0 .571.153 1.019a1.6 1.6 0 0 0 .464.707q.312.255.768.256m6.208-2.506V273h-1.815v-6.545h1.73v1.154h.077a1.83 1.83 0 0 1 .729-.903q.51-.337 1.24-.337.681 0 1.188.299.508.298.789.852.28.55.281 1.312V273h-1.815v-3.844q.004-.6-.307-.937-.31-.341-.857-.341-.366 0-.647.158-.278.157-.435.46a1.6 1.6 0 0 0-.158.72M32.59 210.273V219h-1.845v-6.976h-.05l-2 1.253v-1.636l2.161-1.368zm4.26 8.838a1 1 0 0 1-.725-.299 1 1 0 0 1-.298-.724q0-.417.298-.716a1 1 0 0 1 .725-.298q.408 0 .716.298a.96.96 0 0 1 .306.716.96.96 0 0 1-.145.516 1.1 1.1 0 0 1-.37.37 1 1 0 0 1-.507.137m11.895-8.838h1.845v5.667q0 .955-.456 1.671a3.05 3.05 0 0 1-1.266 1.116q-.813.397-1.896.397-1.087 0-1.9-.397a3.05 3.05 0 0 1-1.266-1.116q-.452-.716-.452-1.671v-5.667H45.2v5.51q0 .498.218.886.222.388.622.609.4.222.933.222.538 0 .933-.222.4-.22.618-.609.222-.388.222-.886zm8.775 4.048-1.662.102a.86.86 0 0 0-.183-.383 1 1 0 0 0-.37-.277 1.3 1.3 0 0 0-.542-.107q-.421 0-.712.179-.29.175-.29.469 0 .234.188.396t.644.26l1.184.239q.955.196 1.423.631.47.434.47 1.142 0 .643-.38 1.129-.375.486-1.031.758-.652.269-1.505.269-1.299 0-2.07-.541a2.1 2.1 0 0 1-.9-1.483l1.786-.094a.92.92 0 0 0 .392.605q.31.204.797.205.477 0 .767-.184.294-.187.298-.481a.5.5 0 0 0-.209-.405q-.204-.162-.63-.247l-1.134-.226q-.96-.191-1.428-.665-.464-.472-.464-1.206 0-.63.34-1.086.346-.456.968-.704.626-.246 1.466-.247 1.24 0 1.952.524.715.525.835 1.428m4.275 4.807q-1.01 0-1.738-.409a2.8 2.8 0 0 1-1.117-1.168q-.392-.759-.392-1.794 0-1.01.392-1.773.393-.762 1.104-1.189.716-.426 1.679-.426.648 0 1.206.209.562.204.98.618.422.414.656 1.04.234.622.234 1.457v.499h-5.527v-1.125h3.819q0-.393-.17-.695a1.2 1.2 0 0 0-.474-.473 1.35 1.35 0 0 0-.694-.175q-.414 0-.733.192-.315.188-.495.507-.178.316-.183.703v1.07q0 .486.18.84.182.353.515.545.332.192.788.192.303 0 .554-.085t.43-.256q.18-.17.273-.418l1.68.111q-.128.605-.525 1.057-.392.447-1.014.699-.618.246-1.428.247m4.19-.128v-6.545h1.76v1.142h.067q.18-.61.601-.921a1.58 1.58 0 0 1 .972-.315 2.6 2.6 0 0 1 .57.064v1.611a3.2 3.2 0 0 0-.767-.098q-.4 0-.715.174a1.3 1.3 0 0 0-.495.477q-.178.308-.178.708V219zm7.72 0v-8.727h1.816v3.281h.055a2.4 2.4 0 0 1 .346-.537q.23-.277.596-.46.37-.188.92-.188.717 0 1.322.375.605.37.967 1.121.363.746.362 1.871 0 1.095-.353 1.849-.35.75-.955 1.138-.6.384-1.347.384-.528 0-.899-.175a1.9 1.9 0 0 1-.6-.439 2.2 2.2 0 0 1-.359-.541h-.08V219zm1.778-3.273q0 .584.162 1.019t.469.677q.306.239.745.239.444 0 .75-.243.307-.247.465-.682.162-.438.162-1.01 0-.567-.158-.997a1.5 1.5 0 0 0-.465-.673 1.18 1.18 0 0 0-.754-.243 1.2 1.2 0 0 0-.75.234 1.5 1.5 0 0 0-.464.665 2.9 2.9 0 0 0-.162 1.014M81.3 219v-6.545h1.76v1.142h.068q.18-.61.6-.921a1.58 1.58 0 0 1 .972-.315 2.6 2.6 0 0 1 .571.064v1.611a3.2 3.2 0 0 0-.767-.098q-.4 0-.716.174a1.3 1.3 0 0 0-.494.477q-.18.308-.18.708V219zm7.563.128q-.994 0-1.718-.422a2.9 2.9 0 0 1-1.112-1.185q-.393-.763-.392-1.768 0-1.014.392-1.773a2.86 2.86 0 0 1 1.112-1.185q.724-.426 1.718-.426.992 0 1.712.426.726.423 1.117 1.185.392.759.392 1.773 0 1.005-.392 1.768a2.9 2.9 0 0 1-1.117 1.185q-.72.422-1.712.422m.008-1.406q.451 0 .754-.256.303-.26.456-.707a3 3 0 0 0 .158-1.019q0-.571-.158-1.018a1.6 1.6 0 0 0-.456-.708 1.12 1.12 0 0 0-.754-.26q-.456 0-.767.26-.308.26-.465.708a3.1 3.1 0 0 0-.153 1.018q0 .571.153 1.019.158.447.465.707.31.256.767.256m5.52 1.278-1.78-6.545h1.836l1.014 4.397h.06l1.057-4.397h1.802l1.074 4.372h.055l.998-4.372h1.832L100.563 219h-1.922l-1.125-4.116h-.08L96.31 219zm14.362-4.679-1.661.102a.86.86 0 0 0-.184-.383.96.96 0 0 0-.37-.277 1.3 1.3 0 0 0-.542-.107q-.422 0-.711.179-.29.175-.29.469 0 .234.187.396.188.162.644.26l1.185.239q.954.196 1.423.631.468.434.469 1.142 0 .643-.38 1.129-.374.486-1.031.758-.652.269-1.504.269-1.3 0-2.071-.541a2.1 2.1 0 0 1-.899-1.483l1.785-.094a.92.92 0 0 0 .392.605q.311.204.797.205.477 0 .767-.184.294-.187.298-.481a.5.5 0 0 0-.208-.405q-.205-.162-.631-.247l-1.134-.226q-.959-.191-1.427-.665-.465-.472-.465-1.206 0-.63.341-1.086.345-.456.968-.704.626-.246 1.466-.247 1.24 0 1.951.524.716.525.835 1.428m4.276 4.807q-1.01 0-1.739-.409a2.8 2.8 0 0 1-1.116-1.168q-.393-.759-.393-1.794 0-1.01.393-1.773a2.9 2.9 0 0 1 1.103-1.189q.717-.426 1.679-.426.648 0 1.206.209.563.204.98.618.422.414.657 1.04.234.622.234 1.457v.499h-5.527v-1.125h3.818q0-.393-.17-.695a1.23 1.23 0 0 0-.473-.473 1.36 1.36 0 0 0-.695-.175q-.414 0-.733.192-.315.188-.494.507-.18.316-.183.703v1.07q0 .486.179.84.183.353.515.545.333.192.788.192.303 0 .554-.085t.431-.256q.178-.17.273-.418l1.679.111q-.128.605-.525 1.057a2.6 2.6 0 0 1-1.014.699q-.618.246-1.427.247m4.189-.128v-6.545h1.76v1.142h.068q.178-.61.601-.921a1.58 1.58 0 0 1 .971-.315 2.6 2.6 0 0 1 .571.064v1.611a3 3 0 0 0-.767-.098q-.4 0-.716.174a1.3 1.3 0 0 0-.494.477 1.4 1.4 0 0 0-.179.708V219zm-80.051 14v-6.545h1.76v1.142h.068q.18-.61.6-.921a1.58 1.58 0 0 1 .972-.315 2.6 2.6 0 0 1 .571.064v1.611a3.2 3.2 0 0 0-.767-.098q-.4 0-.716.174a1.3 1.3 0 0 0-.494.477q-.18.308-.179.708V233zm7.588.128q-1.01 0-1.738-.409a2.8 2.8 0 0 1-1.117-1.168q-.392-.759-.392-1.794 0-1.01.392-1.773t1.104-1.189q.716-.426 1.679-.426.648 0 1.206.209.562.204.98.618.422.414.656 1.04.234.622.234 1.457v.499h-5.526v-1.125h3.818a1.4 1.4 0 0 0-.17-.695 1.2 1.2 0 0 0-.474-.473 1.35 1.35 0 0 0-.694-.175q-.414 0-.733.192-.315.188-.495.507-.178.316-.183.703v1.07q0 .486.18.84.182.353.515.545.332.192.788.192.303 0 .554-.085t.43-.256q.18-.17.273-.418l1.68.111q-.128.605-.525 1.057a2.64 2.64 0 0 1-1.014.699q-.618.246-1.428.247m8.514 2.327v-3.503h-.055a2.3 2.3 0 0 1-.362.541 1.8 1.8 0 0 1-.601.439q-.367.175-.895.175-.745 0-1.35-.384-.602-.388-.955-1.138-.35-.754-.35-1.849 0-1.125.363-1.871.36-.75.963-1.121.605-.375 1.325-.375.55 0 .916.188.37.183.597.46.23.273.349.537h.077v-1.099h1.79v9zm-1.338-3.793q.44 0 .742-.239a1.5 1.5 0 0 0 .469-.677q.165-.435.166-1.019 0-.583-.162-1.014a1.46 1.46 0 0 0-.469-.665 1.2 1.2 0 0 0-.746-.234q-.448 0-.754.243-.307.243-.464.673a2.9 2.9 0 0 0-.158.997q0 .572.158 1.01.162.435.464.682.307.243.754.243m8.804-1.449v-3.758h1.816V233h-1.743v-1.189h-.068a1.93 1.93 0 0 1-.738.925q-.51.35-1.248.349-.657 0-1.155-.298a2.06 2.06 0 0 1-.78-.848q-.276-.55-.281-1.317v-4.167h1.815v3.843q.005.58.311.916.307.337.823.337.328 0 .613-.149a1.17 1.17 0 0 0 .46-.452q.18-.298.175-.737m6.25 2.915q-1.01 0-1.738-.409a2.8 2.8 0 0 1-1.116-1.168q-.393-.759-.393-1.794 0-1.01.393-1.773.391-.762 1.103-1.189.716-.426 1.68-.426.647 0 1.205.209.563.204.98.618.422.414.657 1.04.234.622.234 1.457v.499h-5.527v-1.125h3.818q0-.393-.17-.695a1.2 1.2 0 0 0-.473-.473 1.35 1.35 0 0 0-.695-.175q-.414 0-.733.192-.315.188-.494.507-.18.316-.183.703v1.07q0 .486.178.84.185.353.516.545.333.192.788.192.303 0 .554-.085.253-.086.43-.256.18-.17.274-.418l1.679.111q-.128.605-.525 1.057-.39.447-1.014.699-.618.246-1.427.247m9.636-4.807-1.662.102a.86.86 0 0 0-.183-.383 1 1 0 0 0-.371-.277 1.3 1.3 0 0 0-.541-.107q-.423 0-.712.179-.29.175-.29.469 0 .234.188.396t.643.26l1.185.239q.954.196 1.423.631.47.434.469 1.142 0 .643-.38 1.129-.375.486-1.03.758-.653.269-1.505.269-1.3 0-2.071-.541a2.1 2.1 0 0 1-.9-1.483l1.786-.094a.92.92 0 0 0 .392.605q.311.204.797.205.477 0 .767-.184.294-.187.299-.481a.5.5 0 0 0-.21-.405q-.204-.162-.63-.247l-1.133-.226q-.96-.191-1.428-.665-.465-.472-.465-1.206 0-.63.341-1.086.345-.456.968-.704.626-.246 1.466-.247 1.24 0 1.951.524.717.525.836 1.428m4.773-1.866v1.363h-3.941v-1.363zm-3.046-1.569h1.815v6.103a.8.8 0 0 0 .077.392.42.42 0 0 0 .213.191.9.9 0 0 0 .324.056q.127 0 .255-.021l.196-.039.286 1.351q-.136.042-.384.098-.248.06-.6.072-.657.026-1.151-.174a1.6 1.6 0 0 1-.763-.622q-.273-.423-.269-1.066zm9.593 3.435-1.662.102a.86.86 0 0 0-.183-.383 1 1 0 0 0-.371-.277 1.3 1.3 0 0 0-.541-.107q-.422 0-.712.179-.29.175-.29.469 0 .234.188.396t.643.26l1.185.239q.954.196 1.423.631.47.434.47 1.142 0 .643-.38 1.129-.375.486-1.031.758-.652.269-1.505.269-1.299 0-2.07-.541a2.1 2.1 0 0 1-.9-1.483l1.786-.094a.92.92 0 0 0 .392.605q.31.204.797.205.476 0 .767-.184.294-.187.298-.481a.5.5 0 0 0-.209-.405q-.205-.162-.63-.247l-1.134-.226q-.96-.191-1.428-.665-.465-.472-.464-1.206 0-.63.34-1.086.345-.456.968-.704.627-.246 1.466-.247 1.24 0 1.952.524.715.525.835 1.428m4.07 7.134v-9h1.79v1.099h.08q.12-.264.346-.537.23-.277.596-.46.37-.188.92-.188.716 0 1.322.375.604.37.967 1.121.362.746.362 1.871 0 1.095-.354 1.849-.349.75-.954 1.138-.6.384-1.347.384-.528 0-.899-.175a1.9 1.9 0 0 1-.6-.439 2.2 2.2 0 0 1-.359-.541h-.055v3.503zm1.776-5.728q0 .584.163 1.019.161.434.468.677.307.239.746.239.442 0 .75-.243.307-.247.464-.682.162-.438.162-1.01 0-.567-.157-.997a1.5 1.5 0 0 0-.465-.673 1.18 1.18 0 0 0-.754-.243 1.2 1.2 0 0 0-.75.234 1.47 1.47 0 0 0-.465.665 2.9 2.9 0 0 0-.162 1.014m10.015.486v-3.758h1.815V233h-1.743v-1.189h-.068a1.93 1.93 0 0 1-.737.925q-.511.35-1.249.349-.656 0-1.155-.298a2.06 2.06 0 0 1-.78-.848q-.276-.55-.28-1.317v-4.167h1.815v3.843q.003.58.311.916.306.337.822.337.328 0 .614-.149.285-.153.46-.452.179-.298.175-.737m3.301 2.787v-8.727h1.816v3.281h.055q.12-.264.345-.537.23-.277.597-.46.37-.188.92-.188.716 0 1.321.375.605.37.968 1.121.362.746.362 1.871 0 1.095-.354 1.849-.35.75-.954 1.138a2.45 2.45 0 0 1-1.347.384q-.528 0-.899-.175a1.9 1.9 0 0 1-.601-.439 2.2 2.2 0 0 1-.358-.541h-.081V233zm1.777-3.273q0 .584.162 1.019t.469.677q.306.239.746.239.443 0 .75-.243.306-.247.464-.682.162-.438.162-1.01 0-.567-.158-.997a1.5 1.5 0 0 0-.464-.673 1.18 1.18 0 0 0-.754-.243q-.444 0-.75.234a1.47 1.47 0 0 0-.465.665 2.9 2.9 0 0 0-.162 1.014m7.633-5.454V233h-1.815v-8.727zm1.455 8.727v-6.545h1.815V233zm.912-7.389a1 1 0 0 1-.695-.269.87.87 0 0 1-.286-.652q0-.375.286-.643a.98.98 0 0 1 .695-.273q.404 0 .69.273.29.268.29.643a.86.86 0 0 1-.29.652.97.97 0 0 1-.69.269m5.314 7.517q-1.005 0-1.73-.426a2.9 2.9 0 0 1-1.108-1.193q-.383-.763-.383-1.756 0-1.006.388-1.764a2.9 2.9 0 0 1 1.112-1.189q.72-.43 1.713-.431.856 0 1.5.311.643.312 1.018.874t.414 1.321h-1.713q-.073-.49-.384-.788-.306-.303-.805-.303a1.22 1.22 0 0 0-.737.23q-.312.226-.486.661-.175.434-.175 1.052 0 .627.171 1.066.174.438.49.669.315.23.737.23a1.2 1.2 0 0 0 .558-.128q.252-.128.413-.371.167-.247.218-.592h1.713q-.043.75-.409 1.321a2.5 2.5 0 0 1-1.002.886q-.639.32-1.513.32m-69.052 10.088V247h-1.815v-8.727h1.764v3.336h.077q.221-.58.716-.907.495-.333 1.24-.333.68 0 1.189.299.51.293.792.848.285.55.282 1.316V247h-1.816v-3.844q.004-.605-.307-.942-.306-.336-.86-.336-.371 0-.657.158a1.1 1.1 0 0 0-.443.46q-.157.299-.162.72m8.63 3.912q-.992 0-1.717-.422a2.9 2.9 0 0 1-1.112-1.185q-.392-.763-.392-1.768 0-1.014.392-1.773a2.86 2.86 0 0 1 1.112-1.185q.725-.426 1.718-.426t1.713.426q.725.423 1.116 1.185.392.759.392 1.773 0 1.005-.392 1.768a2.9 2.9 0 0 1-1.116 1.185q-.72.422-1.713.422m.01-1.406q.45 0 .753-.256.303-.26.456-.707a3 3 0 0 0 .158-1.019q0-.571-.158-1.018a1.6 1.6 0 0 0-.456-.708 1.12 1.12 0 0 0-.754-.26q-.456 0-.767.26-.308.26-.464.708a3.1 3.1 0 0 0-.154 1.018q0 .571.154 1.019.158.447.464.707.31.256.767.256m9.839-3.401-1.662.102a.86.86 0 0 0-.183-.383 1 1 0 0 0-.371-.277 1.3 1.3 0 0 0-.541-.107q-.423 0-.712.179-.29.175-.29.469 0 .234.188.396t.643.26l1.185.239q.954.196 1.423.631.47.434.469 1.142 0 .643-.38 1.129-.375.486-1.03.758-.653.269-1.505.269-1.3 0-2.071-.541a2.1 2.1 0 0 1-.9-1.483l1.786-.094a.92.92 0 0 0 .392.605q.311.204.797.205.477 0 .767-.184.294-.187.299-.481a.5.5 0 0 0-.21-.405q-.204-.162-.63-.247l-1.133-.226q-.96-.191-1.428-.665-.465-.472-.465-1.206 0-.63.341-1.086.345-.456.968-.704.626-.246 1.466-.247 1.24 0 1.951.524.717.525.836 1.428m4.773-1.866v1.363h-3.941v-1.363zm-3.046-1.569h1.815v6.103a.8.8 0 0 0 .077.392.42.42 0 0 0 .213.191.9.9 0 0 0 .324.056q.127 0 .255-.021l.196-.039.286 1.351q-.136.042-.384.098-.248.06-.6.072-.657.026-1.151-.174a1.6 1.6 0 0 1-.763-.622q-.273-.423-.269-1.066zm6.044 4.33V247h-1.815v-6.545h1.73v1.154h.077a1.83 1.83 0 0 1 .728-.903q.512-.337 1.24-.337.682 0 1.19.299.506.298.788.852.28.55.281 1.312V247h-1.815v-3.844q.003-.6-.307-.937-.31-.341-.857-.341-.366 0-.647.158-.278.157-.435.46a1.6 1.6 0 0 0-.158.72m7.516 3.908q-.626 0-1.116-.218a1.8 1.8 0 0 1-.776-.652q-.28-.435-.281-1.082 0-.546.2-.916.201-.37.546-.597.345-.225.784-.341.443-.115.929-.162.57-.06.92-.111.35-.054.507-.161a.36.36 0 0 0 .158-.316v-.025q0-.405-.256-.627-.25-.221-.716-.221-.489 0-.78.217a1 1 0 0 0-.383.537l-1.679-.137q.128-.596.503-1.031.375-.439.967-.673.597-.239 1.38-.239.547 0 1.045.128.503.127.89.396.393.269.618.691.226.417.226 1.001V247h-1.721v-.908h-.051a1.9 1.9 0 0 1-.422.542 2 2 0 0 1-.635.362 2.6 2.6 0 0 1-.857.128m.52-1.253q.4 0 .707-.158.308-.162.482-.435.175-.272.175-.617v-.695a1 1 0 0 1-.235.102 4 4 0 0 1-.328.081q-.183.034-.366.064l-.333.047q-.32.047-.558.149a.9.9 0 0 0-.37.277.68.68 0 0 0-.133.426q0 .37.269.567.273.192.69.192M94.004 247v-6.545h1.73v1.154h.077q.204-.575.681-.907.479-.333 1.142-.333.674 0 1.147.337.473.333.63.903h.069q.2-.562.724-.899.528-.34 1.249-.341.915 0 1.487.584.575.58.575 1.645V247h-1.811v-4.044q0-.545-.29-.818a1 1 0 0 0-.724-.273q-.495 0-.772.315-.277.312-.277.823V247h-1.76v-4.082q0-.482-.276-.767-.273-.286-.72-.286-.303 0-.546.153-.24.15-.38.422-.14.269-.14.631V247zm13.928.128q-1.01 0-1.739-.409a2.8 2.8 0 0 1-1.116-1.168q-.392-.759-.392-1.794 0-1.01.392-1.773a2.9 2.9 0 0 1 1.104-1.189q.716-.426 1.679-.426.646 0 1.206.209.562.204.98.618.422.414.656 1.04.234.622.234 1.457v.499h-5.527v-1.125h3.818q0-.393-.17-.695a1.2 1.2 0 0 0-.473-.473 1.35 1.35 0 0 0-.695-.175q-.413 0-.733.192-.315.188-.494.507a1.44 1.44 0 0 0-.183.703v1.07q0 .486.179.84.183.353.515.545.333.192.789.192.302 0 .554-.085.251-.086.43-.256.18-.17.273-.418l1.679.111q-.128.605-.524 1.057a2.65 2.65 0 0 1-1.014.699q-.618.246-1.428.247M316.231 280v-1.33l3.107-2.876q.396-.384.665-.69.273-.307.413-.601a1.5 1.5 0 0 0 .141-.644q0-.382-.175-.66a1.16 1.16 0 0 0-.477-.431 1.5 1.5 0 0 0-.686-.153q-.4 0-.699.162a1.1 1.1 0 0 0-.46.464 1.5 1.5 0 0 0-.162.721h-1.752q0-.856.388-1.488.387-.63 1.087-.975.698-.346 1.61-.346.938 0 1.632.333a2.6 2.6 0 0 1 1.087.912q.388.583.388 1.338 0 .494-.196.976-.192.481-.686 1.069-.494.584-1.394 1.402l-1.274 1.249v.059h3.665V280zm8.99.111a1 1 0 0 1-.725-.299 1 1 0 0 1-.298-.724q0-.417.298-.716a1 1 0 0 1 .725-.298q.408 0 .716.298a.97.97 0 0 1 .306.716.97.97 0 0 1-.144.516 1.1 1.1 0 0 1-.371.37 1 1 0 0 1-.507.137m8.009-.111h-1.978l3.013-8.727h2.378l3.008 8.727h-1.977l-2.186-6.733h-.068zm-.124-3.43h4.67v1.44h-4.67zm11.759.643v-3.758h1.816V280h-1.743v-1.189h-.069a1.93 1.93 0 0 1-.737.925q-.512.35-1.248.349-.657 0-1.155-.298a2.05 2.05 0 0 1-.78-.848q-.277-.55-.281-1.317v-4.167h1.815v3.843q.005.58.311.916.307.337.823.337.328 0 .613-.149a1.17 1.17 0 0 0 .461-.452q.179-.298.174-.737m6.749-3.758v1.363h-3.942v-1.363zm-3.047-1.569h1.816v6.103q0 .25.076.392a.42.42 0 0 0 .213.191.9.9 0 0 0 .324.056q.128 0 .256-.021l.196-.039.285 1.351q-.135.042-.383.098-.247.06-.601.072-.656.026-1.15-.174a1.6 1.6 0 0 1-.763-.622q-.273-.423-.269-1.066zm6.186 4.33V280h-1.816v-8.727h1.765v3.336h.076q.222-.58.716-.907.495-.333 1.24-.333.682 0 1.189.299.511.293.793.848.285.55.281 1.316V280h-1.815v-3.844q.003-.604-.307-.942-.308-.336-.861-.336-.37 0-.656.158a1.1 1.1 0 0 0-.443.46 1.55 1.55 0 0 0-.162.72m8.656 3.912q-1.01 0-1.739-.409a2.8 2.8 0 0 1-1.117-1.168q-.392-.759-.392-1.794 0-1.01.392-1.773.393-.762 1.104-1.189.716-.426 1.679-.426.648 0 1.206.209.563.204.98.618.422.413.656 1.04.235.622.235 1.457v.499h-5.527v-1.125h3.818q0-.393-.17-.695a1.23 1.23 0 0 0-.473-.473 1.36 1.36 0 0 0-.695-.175q-.414 0-.733.192-.315.188-.494.507a1.43 1.43 0 0 0-.184.703v1.07q0 .486.179.84.184.353.516.545t.788.192q.303 0 .554-.085t.431-.256a1.1 1.1 0 0 0 .272-.418l1.679.111a2.3 2.3 0 0 1-.524 1.057 2.6 2.6 0 0 1-1.014.699q-.618.247-1.427.247m6.004-3.912V280h-1.816v-6.545h1.731v1.154h.076a1.83 1.83 0 0 1 .729-.903q.511-.337 1.24-.337.682 0 1.189.299.507.298.788.852.282.55.282 1.312V280h-1.816v-3.844q.005-.6-.307-.937-.31-.341-.856-.341-.366 0-.648.158a1.1 1.1 0 0 0-.435.46 1.6 1.6 0 0 0-.157.72m9.131-2.761v1.363h-3.942v-1.363zm-3.047-1.569h1.815v6.103a.8.8 0 0 0 .077.392.42.42 0 0 0 .213.191.9.9 0 0 0 .324.056q.127 0 .256-.021l.196-.039.285 1.351a6 6 0 0 1-.383.098q-.247.06-.601.072-.657.026-1.151-.174a1.6 1.6 0 0 1-.763-.622q-.272-.423-.268-1.066zm4.229 8.114v-6.545h1.816V280zm.912-7.389a1 1 0 0 1-.694-.269.87.87 0 0 1-.286-.652.85.85 0 0 1 .286-.643.98.98 0 0 1 .694-.273q.405 0 .691.273a.85.85 0 0 1 .289.643.86.86 0 0 1-.289.652.97.97 0 0 1-.691.269m5.315 7.517q-1.005 0-1.73-.426a2.9 2.9 0 0 1-1.108-1.193q-.383-.763-.383-1.756 0-1.007.387-1.764a2.9 2.9 0 0 1 1.113-1.189q.72-.43 1.713-.431.857 0 1.5.311.643.312 1.018.874t.414 1.321h-1.713q-.074-.49-.384-.788-.307-.303-.805-.303-.422 0-.738.23a1.47 1.47 0 0 0-.485.661q-.175.434-.175 1.052 0 .627.17 1.066.175.438.49.669.316.23.738.23a1.2 1.2 0 0 0 .558-.128 1.1 1.1 0 0 0 .413-.371 1.4 1.4 0 0 0 .218-.592h1.713q-.043.75-.409 1.321a2.5 2.5 0 0 1-1.002.886q-.639.32-1.513.32m5.952-.004q-.625 0-1.116-.218a1.8 1.8 0 0 1-.776-.652q-.28-.434-.281-1.082 0-.546.2-.916.201-.37.546-.597.345-.225.784-.341.443-.115.929-.162.571-.06.92-.111.35-.054.507-.161a.36.36 0 0 0 .158-.316v-.025q0-.405-.256-.627-.251-.221-.715-.221-.49 0-.78.217a1 1 0 0 0-.384.537l-1.679-.137q.128-.596.503-1.031.375-.438.967-.673.597-.239 1.381-.239.546 0 1.044.128.502.127.891.396.392.269.618.691.225.417.225 1.001V280h-1.721v-.908h-.051a1.9 1.9 0 0 1-.422.542 2 2 0 0 1-.635.362 2.6 2.6 0 0 1-.857.128m.52-1.253q.4 0 .708-.158.306-.162.481-.435.175-.272.175-.617v-.695a1 1 0 0 1-.234.102 4 4 0 0 1-.329.081q-.183.034-.366.064l-.332.047q-.32.047-.559.149a.9.9 0 0 0-.37.277.67.67 0 0 0-.133.426q0 .37.269.567.273.192.69.192m8.056-5.416v1.363h-3.941v-1.363zm-3.047-1.569h1.816v6.103q0 .25.077.392a.42.42 0 0 0 .213.191.9.9 0 0 0 .323.056q.129 0 .256-.021l.196-.039.286 1.351a5 5 0 0 1-.384.098q-.247.06-.601.072-.656.026-1.15-.174a1.6 1.6 0 0 1-.763-.622q-.273-.423-.269-1.066zm4.23 8.114v-6.545h1.815V280zm.912-7.389a1 1 0 0 1-.695-.269.87.87 0 0 1-.285-.652q0-.375.285-.643a.98.98 0 0 1 .695-.273q.405 0 .69.273.29.268.29.643a.86.86 0 0 1-.29.652.97.97 0 0 1-.69.269m5.315 7.517q-.993 0-1.718-.422a2.9 2.9 0 0 1-1.112-1.185q-.392-.762-.392-1.768 0-1.014.392-1.773a2.87 2.87 0 0 1 1.112-1.185q.725-.426 1.718-.426t1.713.426a2.85 2.85 0 0 1 1.116 1.185q.392.759.392 1.773 0 1.006-.392 1.768a2.87 2.87 0 0 1-1.116 1.185q-.72.422-1.713.422m.008-1.406q.452 0 .755-.256.302-.26.456-.707.157-.448.157-1.019t-.157-1.018a1.6 1.6 0 0 0-.456-.708 1.12 1.12 0 0 0-.755-.26q-.456 0-.767.26a1.6 1.6 0 0 0-.464.708 3.1 3.1 0 0 0-.154 1.018q0 .571.154 1.019a1.6 1.6 0 0 0 .464.707q.311.255.767.256m6.209-2.506V280h-1.815v-6.545h1.73v1.154h.077q.216-.57.728-.903.512-.337 1.24-.337.682 0 1.189.299.507.298.789.852.28.55.281 1.312V280h-1.815v-3.844q.003-.6-.307-.937-.311-.341-.857-.341-.366 0-.648.158a1.1 1.1 0 0 0-.434.46 1.6 1.6 0 0 0-.158.72M353.361 294l-1.781-6.545h1.837l1.014 4.397h.06l1.056-4.397h1.803l1.074 4.372h.055l.997-4.372h1.833L359.532 294h-1.922l-1.125-4.116h-.081L355.279 294zm8.916 0v-6.545h1.816V294zm.912-7.389a1 1 0 0 1-.695-.269.87.87 0 0 1-.285-.652q0-.375.285-.643a.98.98 0 0 1 .695-.273q.405 0 .69.273.29.268.29.643a.86.86 0 0 1-.29.652.97.97 0 0 1-.69.269m5.839.844v1.363h-3.942v-1.363zm-3.047-1.569h1.816v6.103q0 .25.076.392a.42.42 0 0 0 .213.191.9.9 0 0 0 .324.056q.129 0 .256-.021l.196-.039.286 1.351a5 5 0 0 1-.384.098q-.247.06-.601.072-.656.026-1.15-.174a1.6 1.6 0 0 1-.763-.622q-.273-.423-.269-1.066zm6.186 4.33V294h-1.816v-8.727h1.765v3.336h.076q.222-.58.716-.907.495-.333 1.24-.333.682 0 1.189.299.511.293.793.848.285.55.281 1.316V294h-1.815v-3.844q.004-.604-.307-.942-.308-.336-.861-.336-.37 0-.656.158a1.1 1.1 0 0 0-.443.46 1.56 1.56 0 0 0-.162.72m10.329-4.943V294h-1.845v-8.727zm3.896 8.834q-.745 0-1.351-.384-.6-.388-.954-1.138-.35-.754-.35-1.849 0-1.125.363-1.871.361-.75.963-1.121.605-.375 1.325-.375.55 0 .916.188.37.183.597.46.23.273.349.537h.056v-3.281h1.811V294h-1.79v-1.048h-.077a2.3 2.3 0 0 1-.362.541 1.8 1.8 0 0 1-.601.439q-.367.175-.895.175m.576-1.445q.438 0 .741-.239.307-.242.469-.677.166-.435.166-1.019t-.162-1.014a1.46 1.46 0 0 0-.469-.665 1.2 1.2 0 0 0-.745-.234q-.448 0-.755.243a1.5 1.5 0 0 0-.464.673 2.9 2.9 0 0 0-.158.997q0 .572.158 1.01.162.435.464.682.307.243.755.243m4.675 1.338v-8.727h3.443q.993 0 1.692.379.699.375 1.066 1.044.37.665.37 1.534 0 .87-.375 1.534-.375.665-1.086 1.036-.708.37-1.713.37h-2.195v-1.478h1.896q.533 0 .878-.183.35-.187.52-.516a1.6 1.6 0 0 0 .175-.763q0-.435-.175-.758a1.17 1.17 0 0 0-.52-.508q-.35-.183-.886-.183h-1.245V294zm-239.784-13.881q-.954 0-1.7-.328-.742-.331-1.172-.912a2.3 2.3 0 0 1-.439-1.346h1.858q.017.32.209.562.196.239.52.371t.728.132q.423 0 .746-.149.324-.15.507-.413.183-.265.183-.61 0-.35-.196-.618a1.24 1.24 0 0 0-.554-.426 2.2 2.2 0 0 0-.852-.153h-.814v-1.355h.814q.418 0 .737-.145.324-.145.503-.401.18-.26.179-.605 0-.329-.158-.575a1.03 1.03 0 0 0-.434-.392 1.4 1.4 0 0 0-.648-.141q-.375 0-.686.136a1.2 1.2 0 0 0-.499.38 1 1 0 0 0-.2.579h-1.768q.012-.754.43-1.329a2.8 2.8 0 0 1 1.125-.899 3.8 3.8 0 0 1 1.607-.329q.903 0 1.581.329.677.328 1.052.886.38.554.375 1.244.004.734-.456 1.223-.456.49-1.189.622v.069q.963.123 1.466.669.507.54.503 1.355.004.746-.43 1.325-.431.579-1.189.912-.76.332-1.739.332m5.934-.008a1 1 0 0 1-.724-.299 1 1 0 0 1-.299-.724q0-.417.299-.716a1 1 0 0 1 .724-.298q.409 0 .716.298a.97.97 0 0 1 .307.716.97.97 0 0 1-.145.516 1.1 1.1 0 0 1-.371.37 1 1 0 0 1-.507.137m11.239-6.328q-.05-.516-.439-.801-.387-.286-1.053-.286a2 2 0 0 0-.762.128 1.07 1.07 0 0 0-.478.345.83.83 0 0 0-.162.503.7.7 0 0 0 .099.409q.11.174.302.303.192.123.443.217.252.09.537.153l.784.188q.571.128 1.049.341.477.212.826.524.35.311.541.733.197.421.201.967-.004.801-.409 1.389-.401.584-1.159.908-.755.32-1.82.32-1.057 0-1.841-.324a2.7 2.7 0 0 1-1.219-.959q-.433-.639-.456-1.581h1.786q.03.44.251.733.226.29.601.439.379.144.857.145.468 0 .814-.137.35-.136.541-.379a.88.88 0 0 0 .192-.558.73.73 0 0 0-.175-.494 1.3 1.3 0 0 0-.503-.341 5 5 0 0 0-.805-.256l-.951-.239q-1.103-.269-1.743-.839-.638-.572-.635-1.539-.004-.793.422-1.384.43-.593 1.181-.925.75-.333 1.704-.333.972 0 1.696.333.729.332 1.134.925.405.591.417 1.372zm7.292 3.43v-3.758h1.816V280h-1.743v-1.189h-.069a1.93 1.93 0 0 1-.737.925q-.512.35-1.248.349-.657 0-1.155-.298a2.05 2.05 0 0 1-.78-.848q-.277-.55-.281-1.317v-4.167h1.815v3.843q.005.58.311.916.307.337.823.337.327 0 .613-.149a1.17 1.17 0 0 0 .461-.452q.179-.298.174-.737m6.225 2.915q-1.005 0-1.73-.426a2.9 2.9 0 0 1-1.108-1.193q-.384-.763-.384-1.756 0-1.007.388-1.764a2.9 2.9 0 0 1 1.112-1.189q.721-.43 1.713-.431.858 0 1.5.311.644.312 1.019.874t.413 1.321h-1.713a1.32 1.32 0 0 0-.383-.788q-.307-.303-.806-.303a1.22 1.22 0 0 0-.737.23q-.31.226-.486.661-.174.434-.174 1.052 0 .627.17 1.066.175.438.49.669.315.23.737.23.312 0 .559-.128a1.1 1.1 0 0 0 .413-.371q.166-.247.217-.592h1.713q-.042.75-.409 1.321a2.47 2.47 0 0 1-1.001.886q-.64.32-1.513.32m7.043 0q-1.005 0-1.73-.426a2.9 2.9 0 0 1-1.108-1.193q-.384-.763-.384-1.756 0-1.007.388-1.764a2.9 2.9 0 0 1 1.112-1.189q.72-.43 1.713-.431.857 0 1.5.311.644.312 1.019.874t.413 1.321h-1.713a1.32 1.32 0 0 0-.383-.788q-.307-.303-.806-.303a1.22 1.22 0 0 0-.737.23q-.31.226-.486.661-.174.434-.174 1.052 0 .627.17 1.066.175.438.49.669.315.23.737.23.312 0 .559-.128a1.1 1.1 0 0 0 .413-.371q.166-.247.217-.592h1.713q-.042.75-.409 1.321a2.47 2.47 0 0 1-1.001.886q-.64.32-1.513.32m7.069 0q-1.01 0-1.739-.409a2.8 2.8 0 0 1-1.117-1.168q-.392-.759-.392-1.794 0-1.01.392-1.773.393-.762 1.104-1.189.716-.426 1.679-.426.648 0 1.206.209.563.204.98.618.422.413.656 1.04.235.622.235 1.457v.499h-5.527v-1.125h3.818q0-.393-.17-.695a1.2 1.2 0 0 0-.474-.473 1.35 1.35 0 0 0-.694-.175q-.414 0-.733.192-.315.188-.494.507a1.43 1.43 0 0 0-.184.703v1.07q0 .486.179.84.184.353.516.545.333.192.788.192.303 0 .554-.085t.431-.256a1.1 1.1 0 0 0 .272-.418l1.679.111q-.128.605-.524 1.057a2.6 2.6 0 0 1-1.014.699q-.618.247-1.427.247m9.634-4.807-1.661.102a.86.86 0 0 0-.184-.383.96.96 0 0 0-.37-.277 1.3 1.3 0 0 0-.542-.107q-.422 0-.711.179-.29.175-.29.469 0 .234.187.396.188.162.644.26l1.185.239q.954.196 1.423.631.469.434.469 1.142 0 .643-.38 1.129-.375.486-1.031.758-.652.269-1.504.269-1.3 0-2.071-.541a2.1 2.1 0 0 1-.899-1.483l1.785-.094a.92.92 0 0 0 .392.605q.312.205.797.205.477 0 .767-.184.294-.187.298-.481a.5.5 0 0 0-.208-.405q-.205-.162-.631-.247l-1.134-.226q-.959-.191-1.427-.665-.465-.472-.465-1.206 0-.63.341-1.086.345-.456.968-.704.626-.246 1.466-.247 1.24 0 1.951.524.717.525.835 1.428m6.739 0-1.662.102a.9.9 0 0 0-.183-.383 1 1 0 0 0-.371-.277 1.3 1.3 0 0 0-.541-.107q-.423 0-.712.179-.29.175-.29.469 0 .234.188.396.187.162.643.26l1.185.239q.954.196 1.423.631.47.434.469 1.142 0 .643-.379 1.129-.375.486-1.032.758-.651.269-1.504.269-1.3 0-2.071-.541a2.1 2.1 0 0 1-.899-1.483l1.785-.094a.92.92 0 0 0 .392.605q.312.205.797.205.478 0 .767-.184.294-.187.299-.481a.5.5 0 0 0-.209-.405q-.204-.162-.631-.247l-1.133-.226q-.96-.191-1.428-.665-.464-.472-.464-1.206 0-.63.341-1.086.345-.456.967-.704.626-.246 1.466-.247 1.24 0 1.952.524.715.525.835 1.428m4.812-1.866v1.363h-4.04v-1.363zM214.731 280v-7.018q0-.712.277-1.181.28-.469.767-.703a2.5 2.5 0 0 1 1.104-.234q.417 0 .762.064.35.063.52.115l-.324 1.363a3 3 0 0 0-.264-.064 1.6 1.6 0 0 0-.315-.03q-.4 0-.558.188-.159.183-.158.516V280zm8.421-2.787v-3.758h1.816V280h-1.743v-1.189h-.068a1.93 1.93 0 0 1-.738.925q-.512.35-1.248.349-.657 0-1.155-.298a2.06 2.06 0 0 1-.78-.848q-.277-.55-.281-1.317v-4.167h1.815v3.843q.005.58.311.916.307.337.823.337.328 0 .613-.149a1.17 1.17 0 0 0 .461-.452q.178-.298.174-.737m5.083-5.94V280h-1.815v-8.727zm6.098 8.851a2.7 2.7 0 0 1-1.116-.218 1.8 1.8 0 0 1-.776-.652q-.28-.434-.281-1.082 0-.546.2-.916t.546-.597q.345-.225.784-.341.443-.115.929-.162.57-.06.92-.111.35-.054.507-.161a.36.36 0 0 0 .158-.316v-.025q0-.405-.256-.627-.25-.221-.716-.221-.489 0-.78.217a1 1 0 0 0-.383.537l-1.679-.137q.128-.596.503-1.031.375-.438.967-.673.597-.239 1.381-.239.544 0 1.044.128.503.127.89.396.393.269.618.691.226.417.226 1.001V280h-1.721v-.908h-.052a1.9 1.9 0 0 1-.421.542 2 2 0 0 1-.635.362 2.6 2.6 0 0 1-.857.128m.52-1.253q.4 0 .707-.158.307-.162.482-.435a1.1 1.1 0 0 0 .175-.617v-.695a1 1 0 0 1-.235.102 4 4 0 0 1-.328.081q-.183.034-.366.064l-.333.047a2.2 2.2 0 0 0-.558.149.9.9 0 0 0-.371.277.68.68 0 0 0-.132.426q0 .37.269.567.272.192.69.192m8.772-1.658v-3.758h1.815V280h-1.743v-1.189h-.068a1.93 1.93 0 0 1-.737.925q-.511.35-1.249.349-.656 0-1.154-.298a2.05 2.05 0 0 1-.78-.848q-.278-.55-.281-1.317v-4.167h1.815v3.843q.004.58.311.916.308.337.822.337.329 0 .614-.149.285-.153.46-.452.18-.298.175-.737m6.749-3.758v1.363h-3.942v-1.363zm-3.047-1.569h1.815v6.103a.8.8 0 0 0 .077.392.42.42 0 0 0 .213.191.9.9 0 0 0 .324.056q.127 0 .256-.021l.196-.039.285 1.351a5 5 0 0 1-.383.098q-.247.06-.601.072-.656.026-1.151-.174a1.6 1.6 0 0 1-.762-.622q-.273-.423-.269-1.066zm6.185 4.33V280h-1.815v-8.727h1.764v3.336h.077q.221-.58.716-.907.494-.333 1.24-.333.682 0 1.189.299.512.293.792.848.287.55.282 1.316V280h-1.816v-3.844q.005-.604-.306-.942-.308-.336-.861-.336-.37 0-.656.158a1.1 1.1 0 0 0-.444.46 1.56 1.56 0 0 0-.162.72M172.174 294v-6.545h1.76v1.142h.068q.178-.61.601-.921a1.58 1.58 0 0 1 .971-.315 2.6 2.6 0 0 1 .571.064v1.611a3.2 3.2 0 0 0-.767-.098 1.46 1.46 0 0 0-.716.174 1.3 1.3 0 0 0-.494.477 1.4 1.4 0 0 0-.179.708V294zm7.588.128q-1.01 0-1.739-.409a2.8 2.8 0 0 1-1.116-1.168q-.392-.759-.392-1.794 0-1.01.392-1.773a2.9 2.9 0 0 1 1.104-1.189q.716-.426 1.679-.426.647 0 1.206.209.562.204.98.618.422.413.656 1.04.234.622.234 1.457v.499h-5.527v-1.125h3.819q0-.393-.171-.695a1.2 1.2 0 0 0-.473-.473 1.35 1.35 0 0 0-.695-.175q-.413 0-.732.192a1.35 1.35 0 0 0-.495.507 1.44 1.44 0 0 0-.183.703v1.07q0 .486.179.84.183.353.516.545.332.192.788.192.302 0 .554-.085.251-.086.43-.256a1.1 1.1 0 0 0 .273-.418l1.679.111q-.128.605-.524 1.057a2.65 2.65 0 0 1-1.014.699q-.618.247-1.428.247m7.671-6.673v1.363h-3.942v-1.363zm-3.047-1.569h1.815v6.103a.8.8 0 0 0 .077.392.42.42 0 0 0 .213.191.9.9 0 0 0 .324.056q.127 0 .255-.021l.196-.039.286 1.351a5 5 0 0 1-.384.098q-.246.06-.601.072-.656.026-1.15-.174a1.6 1.6 0 0 1-.763-.622q-.273-.423-.268-1.066zm8.426 5.327v-3.758h1.816V294h-1.743v-1.189h-.068a1.94 1.94 0 0 1-.737.925q-.512.35-1.249.349-.656 0-1.155-.298a2.06 2.06 0 0 1-.78-.848q-.276-.55-.281-1.317v-4.167h1.815v3.843q.005.58.311.916.307.337.823.337.328 0 .614-.149.285-.153.46-.452.178-.298.174-.737M196.08 294v-6.545h1.76v1.142h.068q.179-.61.601-.921a1.58 1.58 0 0 1 .971-.315 2.6 2.6 0 0 1 .571.064v1.611a3.2 3.2 0 0 0-.767-.098q-.4 0-.715.174a1.3 1.3 0 0 0-.495.477 1.4 1.4 0 0 0-.179.708V294zm6.725-3.784V294h-1.815v-6.545h1.73v1.154h.077a1.83 1.83 0 0 1 .729-.903q.51-.337 1.24-.337.68 0 1.189.299.506.298.788.852.28.55.281 1.312V294h-1.815v-3.844q.004-.6-.307-.937-.31-.341-.857-.341-.366 0-.647.158-.278.157-.435.46a1.6 1.6 0 0 0-.158.72m11.096-.895-1.662.102a.85.85 0 0 0-.183-.383 1 1 0 0 0-.371-.277 1.3 1.3 0 0 0-.541-.107q-.422 0-.712.179-.29.175-.29.469 0 .234.188.396.187.162.643.26l1.185.239q.954.196 1.423.631.47.434.469 1.142 0 .643-.379 1.129-.375.486-1.031.758-.653.269-1.505.269-1.3 0-2.071-.541a2.1 2.1 0 0 1-.899-1.483l1.786-.094a.92.92 0 0 0 .392.605q.31.205.797.205.477 0 .767-.184.294-.187.298-.481a.5.5 0 0 0-.209-.405q-.204-.162-.631-.247l-1.133-.226q-.958-.191-1.428-.665-.464-.472-.464-1.206 0-.63.341-1.086.345-.456.967-.704.626-.246 1.466-.247 1.24 0 1.952.524.715.525.835 1.428m7.551-1.866v1.363h-3.942v-1.363zm-3.047-1.569h1.816v6.103q0 .25.076.392a.42.42 0 0 0 .213.191.9.9 0 0 0 .324.056q.128 0 .256-.021l.196-.039.285 1.351a5 5 0 0 1-.383.098q-.247.06-.601.072a2.8 2.8 0 0 1-1.151-.174 1.6 1.6 0 0 1-.762-.622q-.273-.423-.269-1.066zm7.117 8.242q-.993 0-1.718-.422a2.9 2.9 0 0 1-1.112-1.185q-.392-.762-.392-1.768 0-1.014.392-1.773a2.86 2.86 0 0 1 1.112-1.185q.725-.426 1.718-.426t1.713.426a2.85 2.85 0 0 1 1.116 1.185q.392.759.392 1.773 0 1.006-.392 1.768a2.87 2.87 0 0 1-1.116 1.185q-.72.422-1.713.422m.008-1.406q.452 0 .754-.256a1.6 1.6 0 0 0 .456-.707q.158-.448.158-1.019t-.158-1.018a1.6 1.6 0 0 0-.456-.708 1.12 1.12 0 0 0-.754-.26q-.456 0-.767.26a1.6 1.6 0 0 0-.464.708 3.1 3.1 0 0 0-.154 1.018q0 .571.154 1.019a1.6 1.6 0 0 0 .464.707q.311.255.767.256m6.039-.606.004-2.177h.264l2.097-2.484h2.083l-2.816 3.289h-.431zM229.924 294v-8.727h1.815V294zm4.091 0-1.927-2.851 1.211-1.283 2.842 4.134zm5.606.128q-1.01 0-1.738-.409a2.8 2.8 0 0 1-1.117-1.168q-.392-.759-.392-1.794 0-1.01.392-1.773.393-.762 1.104-1.189.716-.426 1.679-.426.648 0 1.206.209.563.204.98.618.422.413.656 1.04.235.622.235 1.457v.499h-5.527v-1.125h3.818q0-.393-.171-.695a1.2 1.2 0 0 0-.473-.473 1.35 1.35 0 0 0-.694-.175q-.414 0-.733.192-.315.188-.494.507a1.43 1.43 0 0 0-.184.703v1.07q0 .486.179.84.183.353.516.545t.788.192q.303 0 .554-.085t.431-.256a1.1 1.1 0 0 0 .272-.418l1.679.111q-.128.605-.524 1.057a2.6 2.6 0 0 1-1.014.699q-.618.247-1.428.247m6.005-3.912V294h-1.816v-6.545h1.73v1.154h.077a1.83 1.83 0 0 1 .729-.903q.511-.337 1.24-.337.682 0 1.189.299.507.298.788.852.281.55.281 1.312V294h-1.815v-3.844q.005-.6-.307-.937-.311-.341-.856-.341-.367 0-.648.158-.278.157-.435.46a1.6 1.6 0 0 0-.157.72m85.834-163.75v-1.453l3.644-5.74h1.252v2.011h-.741l-2.297 3.635v.068h5.178v1.479zm4.189 1.534v-1.977l.034-.644v-6.106h1.73V128zm5.22.111a1 1 0 0 1-.724-.299 1 1 0 0 1-.299-.724q0-.417.299-.716a1 1 0 0 1 .724-.298q.41 0 .716.298a.96.96 0 0 1 .307.716.96.96 0 0 1-.145.516 1.1 1.1 0 0 1-.371.37 1 1 0 0 1-.507.137m9.999-8.838h1.824v6.085q0 .843-.379 1.466-.375.622-1.044.959-.67.336-1.556.336a3.6 3.6 0 0 1-1.432-.277 2.3 2.3 0 0 1-1.014-.852q-.375-.575-.371-1.445h1.837q.009.346.141.593a.96.96 0 0 0 .37.375q.24.128.563.128.34 0 .575-.145.239-.15.362-.435.124-.285.124-.703zm5.314 8.727-2.497-8.727h2.015l1.445 6.064h.073l1.593-6.064h1.726l1.59 6.076h.076l1.445-6.076h2.016L363.166 128h-1.798l-1.662-5.706h-.068L357.98 128zm10.137-7.206v-1.521h7.167v1.521h-2.672V128h-1.823v-7.206zm16.537 2.527-1.662.102a.85.85 0 0 0-.183-.383.96.96 0 0 0-.371-.277 1.3 1.3 0 0 0-.541-.107q-.422 0-.712.179-.29.175-.29.469 0 .234.188.396.187.162.643.26l1.185.239q.954.196 1.423.631.47.434.469 1.142 0 .643-.379 1.129-.375.486-1.031.758-.652.269-1.505.269-1.299 0-2.071-.541a2.1 2.1 0 0 1-.899-1.483l1.786-.094a.92.92 0 0 0 .392.605q.31.204.797.205.477 0 .767-.184.294-.187.298-.481a.5.5 0 0 0-.209-.405q-.204-.162-.631-.247l-1.133-.226q-.959-.192-1.428-.665-.464-.472-.464-1.206 0-.63.341-1.086.345-.456.967-.704.627-.247 1.466-.247 1.24 0 1.952.524.715.525.835 1.428m1.292 4.679v-6.545h1.816V128zm.912-7.389a1 1 0 0 1-.694-.269.87.87 0 0 1-.286-.652.85.85 0 0 1 .286-.643.98.98 0 0 1 .694-.273q.405 0 .691.273a.85.85 0 0 1 .289.643.86.86 0 0 1-.289.652.97.97 0 0 1-.691.269m5.307 9.98q-.882 0-1.513-.243-.627-.238-.997-.652a2 2 0 0 1-.482-.929l1.679-.226q.077.196.243.367t.439.272q.277.107.673.107.592 0 .976-.29.388-.285.388-.959v-1.197h-.077a1.7 1.7 0 0 1-.358.516 1.8 1.8 0 0 1-.613.396q-.375.153-.895.153-.738 0-1.343-.341-.6-.345-.958-1.052-.354-.712-.354-1.799 0-1.112.362-1.857.363-.747.963-1.117a2.5 2.5 0 0 1 1.325-.371q.55 0 .921.188.37.183.597.46.23.273.353.537h.068v-1.099h1.803v6.609q0 .835-.409 1.398-.41.563-1.134.843-.72.286-1.657.286m.038-4.048q.44 0 .741-.218.307-.221.469-.63.166-.414.166-.989 0-.576-.162-.997a1.46 1.46 0 0 0-.468-.661 1.2 1.2 0 0 0-.746-.234q-.447 0-.754.243a1.45 1.45 0 0 0-.465.665 2.8 2.8 0 0 0-.157.984q0 .567.157.98.162.409.465.635.307.222.754.222m6.422-2.327V128h-1.815v-6.545h1.73v1.154h.076a1.83 1.83 0 0 1 .729-.903q.511-.337 1.24-.337.682 0 1.189.299.507.298.788.852.282.55.282 1.312V128h-1.816v-3.844q.005-.6-.307-.937-.31-.341-.856-.341-.366 0-.648.158a1.1 1.1 0 0 0-.434.46 1.6 1.6 0 0 0-.158.72m8.632 3.912q-1.01 0-1.738-.409a2.8 2.8 0 0 1-1.117-1.168q-.392-.759-.392-1.794 0-1.01.392-1.773a2.9 2.9 0 0 1 1.104-1.189q.716-.426 1.679-.426.648 0 1.206.209.563.204.98.618.422.413.656 1.04.235.622.235 1.457v.499h-5.527v-1.125h3.818q0-.393-.171-.695a1.2 1.2 0 0 0-.473-.473 1.35 1.35 0 0 0-.694-.175q-.414 0-.733.192-.315.188-.495.507a1.44 1.44 0 0 0-.183.703v1.07q0 .486.179.84.183.353.516.545.332.192.788.192.303 0 .554-.085t.431-.256a1.1 1.1 0 0 0 .272-.418l1.679.111q-.128.605-.524 1.057a2.6 2.6 0 0 1-1.014.699q-.618.246-1.428.247m6.601-.021q-.745 0-1.351-.384-.6-.388-.954-1.138-.35-.754-.35-1.849 0-1.125.363-1.871.361-.75.963-1.121.605-.375 1.325-.375.55 0 .916.188.37.183.597.46.23.273.349.537h.056v-3.281h1.811V128h-1.79v-1.048h-.077a2.3 2.3 0 0 1-.362.541 1.8 1.8 0 0 1-.601.439q-.367.175-.895.175m.575-1.445q.44 0 .742-.239.306-.242.469-.677.166-.435.166-1.019t-.162-1.014a1.46 1.46 0 0 0-.469-.665 1.2 1.2 0 0 0-.746-.234q-.447 0-.754.243a1.5 1.5 0 0 0-.464.673 2.9 2.9 0 0 0-.158.997q0 .572.158 1.01.162.435.464.682.307.243.754.243m9.286 1.462a2.7 2.7 0 0 1-1.116-.218 1.8 1.8 0 0 1-.776-.652q-.281-.435-.281-1.082 0-.546.2-.916t.545-.597a2.7 2.7 0 0 1 .785-.341q.443-.115.928-.162.572-.06.921-.111.35-.054.507-.161a.36.36 0 0 0 .158-.316v-.025q0-.405-.256-.627-.252-.222-.716-.221-.49 0-.78.217a1 1 0 0 0-.383.537l-1.679-.137q.128-.596.503-1.031.375-.439.967-.673.597-.239 1.381-.239.545 0 1.044.128.503.127.89.396.393.269.618.691.226.417.226 1.001V128h-1.722v-.908h-.051a1.8 1.8 0 0 1-.422.542 2 2 0 0 1-.634.362 2.6 2.6 0 0 1-.857.128m.52-1.253q.4 0 .707-.158.307-.162.482-.435a1.1 1.1 0 0 0 .175-.617v-.695a1 1 0 0 1-.235.102 4 4 0 0 1-.328.081q-.183.034-.366.064l-.333.047a2.2 2.2 0 0 0-.558.149.9.9 0 0 0-.371.277.68.68 0 0 0-.132.426q0 .37.269.567.271.192.69.192m6.39-2.655V128h-1.816v-6.545h1.731v1.154h.076a1.83 1.83 0 0 1 .729-.903q.511-.337 1.24-.337.682 0 1.189.299.507.298.788.852.282.55.282 1.312V128h-1.816v-3.844q.005-.6-.307-.937-.311-.341-.856-.341-.366 0-.648.158a1.1 1.1 0 0 0-.435.46 1.6 1.6 0 0 0-.157.72m8.061 3.891q-.745 0-1.351-.384-.6-.388-.954-1.138-.35-.754-.35-1.849 0-1.125.363-1.871.361-.75.963-1.121.605-.375 1.325-.375.55 0 .916.188.37.183.597.46.23.273.349.537h.056v-3.281h1.811V128h-1.79v-1.048h-.077a2.3 2.3 0 0 1-.362.541 1.8 1.8 0 0 1-.601.439q-.367.175-.895.175m.576-1.445q.438 0 .741-.239.307-.242.469-.677.166-.435.166-1.019t-.162-1.014a1.46 1.46 0 0 0-.469-.665 1.2 1.2 0 0 0-.745-.234q-.448 0-.755.243a1.5 1.5 0 0 0-.464.673 2.9 2.9 0 0 0-.158.997q0 .572.158 1.01.162.435.464.682.307.243.755.243m-93.398 17.793v-9h1.79v1.099h.081q.118-.264.345-.537.23-.277.597-.46.37-.188.92-.188.716 0 1.321.375.606.37.967 1.121.363.746.363 1.871 0 1.095-.354 1.849-.35.75-.955 1.138-.6.384-1.346.384-.528 0-.899-.175a1.9 1.9 0 0 1-.601-.439 2.2 2.2 0 0 1-.358-.541h-.056v3.503zm1.777-5.728q0 .584.162 1.019t.469.677q.306.239.746.239.443 0 .75-.243.306-.247.464-.682.162-.438.162-1.01 0-.567-.158-.997a1.5 1.5 0 0 0-.464-.673 1.18 1.18 0 0 0-.754-.243q-.444 0-.75.234a1.47 1.47 0 0 0-.465.665 2.9 2.9 0 0 0-.162 1.014m7.683 3.397q-.625 0-1.116-.218a1.8 1.8 0 0 1-.776-.652q-.28-.434-.281-1.082 0-.546.2-.916.201-.37.546-.597.345-.225.784-.341.443-.115.929-.162.571-.06.92-.111.35-.054.507-.161a.36.36 0 0 0 .158-.316v-.025q0-.405-.256-.627-.251-.221-.715-.221-.49 0-.78.217a1 1 0 0 0-.384.537l-1.679-.137q.128-.596.503-1.031.375-.439.967-.673.597-.239 1.381-.239.546 0 1.044.128.502.127.891.396.392.269.618.691.225.417.225 1.001V142h-1.721v-.908h-.051a1.9 1.9 0 0 1-.422.542 2 2 0 0 1-.635.362 2.6 2.6 0 0 1-.857.128m.52-1.253q.4 0 .708-.158.306-.162.481-.435.175-.272.175-.617v-.695a1 1 0 0 1-.234.102 4 4 0 0 1-.329.081q-.183.034-.366.064l-.332.047q-.32.047-.559.149a.9.9 0 0 0-.37.277.67.67 0 0 0-.133.426q0 .37.269.567.273.192.69.192m10.021-3.55-1.662.102a.86.86 0 0 0-.183-.383 1 1 0 0 0-.371-.277 1.3 1.3 0 0 0-.541-.107q-.423 0-.712.179-.29.175-.29.469 0 .234.188.396.187.162.643.26l1.185.239q.955.196 1.423.631.47.434.469 1.142 0 .643-.379 1.129-.375.486-1.032.758-.651.269-1.504.269-1.3 0-2.071-.541a2.1 2.1 0 0 1-.899-1.483l1.786-.094a.92.92 0 0 0 .392.605q.311.204.796.205.478 0 .768-.184.294-.187.298-.481a.5.5 0 0 0-.209-.405q-.204-.162-.631-.247l-1.133-.226q-.959-.191-1.428-.665-.464-.472-.464-1.206 0-.63.341-1.086.345-.456.967-.704.627-.246 1.466-.247 1.24 0 1.952.524.715.525.835 1.428m6.738 0-1.662.102a.85.85 0 0 0-.183-.383.96.96 0 0 0-.371-.277 1.3 1.3 0 0 0-.541-.107q-.421 0-.712.179-.29.175-.289.469 0 .234.187.396.188.162.644.26l1.184.239q.955.196 1.424.631.468.434.468 1.142 0 .643-.379 1.129-.375.486-1.031.758-.652.269-1.504.269-1.3 0-2.072-.541a2.1 2.1 0 0 1-.899-1.483l1.786-.094a.92.92 0 0 0 .392.605q.31.204.797.205.477 0 .767-.184.294-.187.298-.481a.5.5 0 0 0-.209-.405q-.204-.162-.63-.247l-1.134-.226q-.959-.191-1.427-.665-.465-.472-.465-1.206 0-.63.341-1.086.346-.456.967-.704.627-.246 1.466-.247 1.24 0 1.952.524.716.525.835 1.428m4.275 4.807q-1.01 0-1.738-.409a2.8 2.8 0 0 1-1.117-1.168q-.392-.759-.392-1.794 0-1.01.392-1.773a2.9 2.9 0 0 1 1.104-1.189q.716-.426 1.679-.426.648 0 1.206.209.563.204.98.618.422.414.656 1.04.235.622.235 1.457v.499h-5.527v-1.125h3.818q0-.392-.171-.695a1.2 1.2 0 0 0-.473-.473 1.35 1.35 0 0 0-.694-.175q-.414 0-.733.192-.315.188-.495.507a1.44 1.44 0 0 0-.183.703v1.07q0 .486.179.84.183.353.516.545.332.192.788.192.303 0 .554-.085t.431-.256a1.1 1.1 0 0 0 .272-.418l1.679.111q-.128.605-.524 1.057a2.6 2.6 0 0 1-1.014.699q-.618.246-1.428.247m6.601-.021q-.745 0-1.351-.384-.6-.388-.954-1.138-.35-.754-.35-1.849 0-1.125.363-1.871.361-.75.963-1.121.605-.375 1.325-.375.55 0 .916.188.37.183.597.46.23.273.349.537h.056v-3.281h1.811V142h-1.79v-1.048h-.077a2.3 2.3 0 0 1-.362.541 1.8 1.8 0 0 1-.601.439q-.367.175-.895.175m.575-1.445q.44 0 .742-.239.306-.243.469-.677.166-.435.166-1.019t-.162-1.014a1.46 1.46 0 0 0-.469-.665 1.2 1.2 0 0 0-.746-.234q-.447 0-.754.243a1.5 1.5 0 0 0-.464.673 2.9 2.9 0 0 0-.158.997q0 .572.158 1.01.162.435.464.682.307.243.754.243m9.286 1.462a2.7 2.7 0 0 1-1.116-.218 1.8 1.8 0 0 1-.776-.652q-.281-.434-.281-1.082 0-.546.2-.916t.545-.597a2.7 2.7 0 0 1 .785-.341q.443-.115.928-.162.572-.06.921-.111.35-.054.507-.161a.36.36 0 0 0 .158-.316v-.025q0-.405-.256-.627-.252-.221-.716-.221-.49 0-.78.217a1 1 0 0 0-.383.537l-1.679-.137q.128-.596.503-1.031.375-.439.967-.673.597-.239 1.381-.239.545 0 1.044.128.503.127.89.396.393.269.618.691.226.417.226 1.001V142h-1.722v-.908h-.051a1.8 1.8 0 0 1-.422.542 2 2 0 0 1-.634.362 2.6 2.6 0 0 1-.857.128m.52-1.253q.4 0 .707-.158.307-.162.482-.435a1.1 1.1 0 0 0 .175-.617v-.695a1 1 0 0 1-.235.102 4 4 0 0 1-.328.081q-.183.034-.366.064l-.333.047a2.2 2.2 0 0 0-.558.149.9.9 0 0 0-.371.277.68.68 0 0 0-.132.426q0 .37.269.567.271.192.69.192m10.02-3.55-1.661.102a.86.86 0 0 0-.184-.383.96.96 0 0 0-.37-.277 1.3 1.3 0 0 0-.542-.107q-.421 0-.711.179-.29.175-.29.469 0 .234.187.396.188.162.644.26l1.185.239q.954.196 1.423.631.469.434.469 1.142 0 .643-.38 1.129-.375.486-1.031.758-.652.269-1.504.269-1.3 0-2.071-.541a2.1 2.1 0 0 1-.899-1.483l1.785-.094a.92.92 0 0 0 .392.605q.312.204.797.205.477 0 .767-.184.295-.187.298-.481a.5.5 0 0 0-.208-.405q-.205-.162-.631-.247l-1.134-.226q-.959-.191-1.427-.665-.465-.472-.465-1.206 0-.63.341-1.086.345-.456.968-.704.626-.246 1.466-.247 1.24 0 1.951.524.717.525.835 1.428m4.07 7.134v-9h1.79v1.099h.081q.118-.264.345-.537.23-.277.597-.46.37-.188.92-.188.716 0 1.321.375.605.37.967 1.121.363.746.363 1.871 0 1.095-.354 1.849-.35.75-.955 1.138-.6.384-1.346.384-.529 0-.899-.175a1.9 1.9 0 0 1-.601-.439 2.2 2.2 0 0 1-.358-.541h-.056v3.503zm1.777-5.728q0 .584.162 1.019t.469.677q.306.239.745.239.444 0 .75-.243a1.5 1.5 0 0 0 .465-.682q.162-.438.162-1.01 0-.567-.158-.997a1.5 1.5 0 0 0-.464-.673 1.18 1.18 0 0 0-.755-.243q-.443 0-.75.234a1.5 1.5 0 0 0-.464.665 2.9 2.9 0 0 0-.162 1.014m7.683 3.397q-.625 0-1.116-.218a1.8 1.8 0 0 1-.776-.652q-.28-.434-.281-1.082 0-.546.2-.916.201-.37.546-.597.345-.225.784-.341.443-.115.929-.162.57-.06.92-.111.35-.054.507-.161a.36.36 0 0 0 .158-.316v-.025q0-.405-.256-.627-.25-.221-.716-.221-.49 0-.779.217a1 1 0 0 0-.384.537l-1.679-.137q.128-.596.503-1.031.375-.439.967-.673.597-.239 1.381-.239.546 0 1.044.128.502.127.891.396.392.269.618.691.225.417.225 1.001V142h-1.721v-.908h-.051a1.9 1.9 0 0 1-.422.542 2 2 0 0 1-.635.362 2.6 2.6 0 0 1-.857.128m.52-1.253q.4 0 .708-.158.306-.162.481-.435.175-.272.175-.617v-.695a1 1 0 0 1-.235.102 4 4 0 0 1-.328.081q-.183.034-.366.064l-.333.047a2.2 2.2 0 0 0-.558.149.9.9 0 0 0-.371.277.68.68 0 0 0-.132.426q0 .37.269.567.273.192.69.192m4.575 1.129v-6.545h1.76v1.142h.068q.178-.61.601-.921a1.58 1.58 0 0 1 .971-.315 2.6 2.6 0 0 1 .571.064v1.611a3.2 3.2 0 0 0-.767-.098 1.46 1.46 0 0 0-.716.174 1.3 1.3 0 0 0-.494.477 1.4 1.4 0 0 0-.179.708V142zm8.72-6.545v1.363h-3.942v-1.363zm-3.047-1.569h1.815v6.103a.8.8 0 0 0 .077.392.42.42 0 0 0 .213.191.9.9 0 0 0 .324.056q.128 0 .255-.021l.196-.039.286 1.351a5 5 0 0 1-.384.098q-.247.06-.6.072-.657.026-1.151-.174a1.6 1.6 0 0 1-.763-.622q-.273-.423-.268-1.066zm9.964 8.242q-.994 0-1.717-.422a2.9 2.9 0 0 1-1.113-1.185q-.392-.763-.392-1.768 0-1.014.392-1.773a2.86 2.86 0 0 1 1.113-1.185q.724-.426 1.717-.426t1.713.426a2.85 2.85 0 0 1 1.116 1.185q.393.759.392 1.773 0 1.005-.392 1.768a2.87 2.87 0 0 1-1.116 1.185q-.72.422-1.713.422m.008-1.406q.452 0 .755-.256.302-.26.456-.707.157-.448.157-1.019t-.157-1.018a1.6 1.6 0 0 0-.456-.708 1.12 1.12 0 0 0-.755-.26q-.456 0-.767.26a1.6 1.6 0 0 0-.464.708 3.1 3.1 0 0 0-.154 1.018q0 .571.154 1.019a1.6 1.6 0 0 0 .464.707q.312.256.767.256m7.914-5.267v1.363h-4.04v-1.363zM441.155 142v-7.018q0-.712.277-1.181.28-.469.767-.703a2.5 2.5 0 0 1 1.103-.234q.418 0 .763.064.35.063.52.115l-.324 1.363a3 3 0 0 0-.264-.064 1.6 1.6 0 0 0-.315-.03q-.4 0-.559.188-.157.183-.157.516V142zm-79.732 14.124q-.627 0-1.117-.218a1.8 1.8 0 0 1-.775-.652q-.281-.434-.281-1.082 0-.546.2-.916t.545-.597q.346-.225.784-.341.444-.115.929-.162.571-.06.921-.111.35-.054.507-.161a.36.36 0 0 0 .158-.316v-.025q0-.405-.256-.627-.251-.221-.716-.221-.49 0-.78.217a1 1 0 0 0-.383.537l-1.679-.137q.128-.596.503-1.031.375-.439.967-.673.597-.239 1.381-.239.545 0 1.044.128.503.127.89.396.393.269.618.691.226.417.226 1.001V156h-1.722v-.908h-.051a1.8 1.8 0 0 1-.422.542 2 2 0 0 1-.635.362 2.6 2.6 0 0 1-.856.128m.52-1.253q.4 0 .707-.158.307-.162.482-.435a1.1 1.1 0 0 0 .174-.617v-.695a1 1 0 0 1-.234.102 4 4 0 0 1-.328.081q-.183.034-.367.064l-.332.047a2.2 2.2 0 0 0-.558.149.9.9 0 0 0-.371.277.68.68 0 0 0-.132.426q0 .37.268.567.273.192.691.192m4.574 3.584v-9h1.79v1.099h.081q.12-.264.345-.537.231-.277.597-.46.37-.188.92-.188.717 0 1.321.375.606.37.968 1.121.362.746.362 1.871 0 1.095-.354 1.849-.35.75-.954 1.138a2.45 2.45 0 0 1-1.347.384q-.528 0-.899-.175a1.9 1.9 0 0 1-.601-.439 2.3 2.3 0 0 1-.358-.541h-.055v3.503zm1.777-5.728q0 .584.162 1.019.163.434.469.677.307.239.746.239.443 0 .75-.243.306-.247.464-.682.162-.438.162-1.01 0-.567-.157-.997a1.5 1.5 0 0 0-.465-.673 1.18 1.18 0 0 0-.754-.243q-.444 0-.75.234a1.47 1.47 0 0 0-.465.665 2.9 2.9 0 0 0-.162 1.014m5.817 5.728v-9h1.79v1.099h.081q.119-.264.345-.537.23-.277.597-.46.37-.188.92-.188.716 0 1.321.375.606.37.967 1.121.363.746.363 1.871 0 1.095-.354 1.849-.35.75-.955 1.138-.6.384-1.346.384-.528 0-.899-.175a1.9 1.9 0 0 1-.601-.439 2.2 2.2 0 0 1-.358-.541h-.056v3.503zm1.777-5.728q0 .584.162 1.019t.469.677q.306.239.746.239.443 0 .75-.243.306-.247.464-.682.162-.438.162-1.01 0-.567-.158-.997a1.5 1.5 0 0 0-.464-.673 1.18 1.18 0 0 0-.754-.243q-.444 0-.75.234a1.47 1.47 0 0 0-.465.665 2.9 2.9 0 0 0-.162 1.014m8.594 3.273v-6.545h1.76v1.142h.068q.18-.61.601-.921a1.58 1.58 0 0 1 .972-.315 2.6 2.6 0 0 1 .571.064v1.611a3 3 0 0 0-.767-.098q-.4 0-.716.174a1.3 1.3 0 0 0-.494.477q-.18.308-.179.708V156zm7.589.128q-1.01 0-1.739-.409a2.8 2.8 0 0 1-1.116-1.168q-.393-.759-.392-1.794 0-1.01.392-1.773a2.9 2.9 0 0 1 1.103-1.189q.716-.426 1.679-.426.648 0 1.206.209.563.204.98.618.422.414.657 1.04.234.622.234 1.457v.499h-5.527v-1.125h3.818q0-.392-.17-.695a1.23 1.23 0 0 0-.473-.473 1.36 1.36 0 0 0-.695-.175q-.414 0-.733.192-.315.188-.494.507-.18.316-.183.703v1.07q0 .486.179.84.183.353.515.545.333.192.788.192.303 0 .554-.085t.431-.256q.178-.17.273-.418l1.679.111q-.128.605-.525 1.057a2.6 2.6 0 0 1-1.014.699q-.618.246-1.427.247m8.514 2.327v-3.503h-.056a2.3 2.3 0 0 1-.362.541 1.8 1.8 0 0 1-.601.439q-.366.175-.894.175-.747 0-1.351-.384-.601-.388-.955-1.138-.35-.754-.349-1.849 0-1.125.362-1.871.361-.75.963-1.121.605-.375 1.325-.375.55 0 .916.188.371.183.597.46.23.273.349.537h.077v-1.099h1.79v9zm-1.338-3.793q.439 0 .741-.239.307-.243.469-.677.166-.435.166-1.019t-.162-1.014a1.46 1.46 0 0 0-.468-.665 1.2 1.2 0 0 0-.746-.234q-.448 0-.754.243-.308.243-.465.673a2.9 2.9 0 0 0-.158.997q0 .572.158 1.01.162.435.465.682.306.243.754.243m8.804-1.449v-3.758h1.815V156h-1.743v-1.189h-.068a1.93 1.93 0 0 1-.737.925q-.511.35-1.249.349-.656 0-1.155-.298a2.05 2.05 0 0 1-.779-.848q-.278-.55-.282-1.317v-4.167h1.816v3.843q.004.58.311.916.306.337.822.337.328 0 .614-.149.286-.153.46-.452.179-.298.175-.737m6.25 2.915q-1.01 0-1.739-.409a2.8 2.8 0 0 1-1.116-1.168q-.392-.759-.392-1.794 0-1.01.392-1.773a2.9 2.9 0 0 1 1.104-1.189q.716-.426 1.679-.426.648 0 1.206.209.562.204.98.618.422.414.656 1.04.234.622.234 1.457v.499h-5.527v-1.125h3.819q0-.392-.171-.695a1.2 1.2 0 0 0-.473-.473 1.35 1.35 0 0 0-.694-.175q-.414 0-.733.192a1.35 1.35 0 0 0-.495.507 1.44 1.44 0 0 0-.183.703v1.07q0 .486.179.84.183.353.516.545.332.192.788.192.303 0 .554-.085t.43-.256a1.1 1.1 0 0 0 .273-.418l1.679.111q-.128.605-.524 1.057-.392.447-1.014.699-.618.246-1.428.247m9.635-4.807-1.662.102a.85.85 0 0 0-.183-.383.96.96 0 0 0-.371-.277 1.3 1.3 0 0 0-.541-.107q-.421 0-.712.179-.29.175-.289.469 0 .234.187.396.188.162.644.26l1.184.239q.955.196 1.423.631.47.434.469 1.142 0 .643-.379 1.129-.375.486-1.031.758-.652.269-1.505.269-1.299 0-2.071-.541a2.1 2.1 0 0 1-.899-1.483l1.786-.094a.92.92 0 0 0 .392.605q.31.204.797.205.477 0 .767-.184.294-.187.298-.481a.5.5 0 0 0-.209-.405q-.204-.162-.63-.247l-1.134-.226q-.959-.191-1.428-.665-.464-.472-.464-1.206 0-.63.341-1.086.345-.456.967-.704.626-.246 1.466-.247 1.24 0 1.952.524.716.525.835 1.428m4.774-1.866v1.363h-3.942v-1.363zm-3.047-1.569h1.815v6.103a.8.8 0 0 0 .077.392.42.42 0 0 0 .213.191.9.9 0 0 0 .324.056q.127 0 .256-.021l.196-.039.285 1.351a6 6 0 0 1-.383.098q-.247.06-.601.072-.656.026-1.151-.174a1.6 1.6 0 0 1-.763-.622q-.272-.423-.268-1.066zM731.6 179.119q-.903 0-1.61-.332a2.8 2.8 0 0 1-1.117-.916 2.35 2.35 0 0 1-.43-1.338h1.789q.03.507.427.822.396.315.941.315.435 0 .767-.191.338-.196.525-.541a1.65 1.65 0 0 0 .191-.802q0-.46-.196-.809a1.4 1.4 0 0 0-.532-.546 1.6 1.6 0 0 0-.78-.2q-.383 0-.746.158a1.34 1.34 0 0 0-.558.43l-1.641-.294.414-4.602h5.335v1.508h-3.814l-.226 2.186h.051q.23-.324.695-.537a2.5 2.5 0 0 1 1.04-.213q.788 0 1.406.371.618.37.976 1.019.357.643.353 1.482.005.883-.409 1.569a2.9 2.9 0 0 1-1.146 1.074q-.733.387-1.705.387m5.922-.008a1 1 0 0 1-.725-.299 1 1 0 0 1-.298-.724q0-.417.298-.716a1 1 0 0 1 .725-.298q.409 0 .715.298a.96.96 0 0 1 .307.716.96.96 0 0 1-.145.516 1.1 1.1 0 0 1-.37.37 1 1 0 0 1-.507.137m8.008-.111h-1.977l3.013-8.727h2.378l3.008 8.727h-1.977l-2.186-6.733h-.068zm-.123-3.43h4.67v1.44h-4.67zm7.562 5.885v-9h1.789v1.099h.081q.12-.264.345-.537.231-.277.597-.46.37-.188.921-.188.715 0 1.321.375.604.37.967 1.121.362.746.362 1.871 0 1.095-.354 1.849-.35.75-.954 1.138a2.45 2.45 0 0 1-1.347.384q-.528 0-.899-.175a1.9 1.9 0 0 1-.601-.439 2.3 2.3 0 0 1-.358-.541h-.055v3.503zm1.777-5.728q0 .584.161 1.019.162.434.469.677.307.239.746.239.442 0 .75-.243.307-.247.464-.682.162-.438.162-1.01 0-.567-.157-.997a1.5 1.5 0 0 0-.465-.673 1.18 1.18 0 0 0-.754-.243q-.442 0-.75.234a1.47 1.47 0 0 0-.465.665 2.9 2.9 0 0 0-.161 1.014m5.816 5.728v-9h1.79v1.099h.081q.12-.264.345-.537.231-.277.597-.46.37-.188.92-.188.717 0 1.321.375.606.37.968 1.121.362.746.362 1.871 0 1.095-.354 1.849-.35.75-.954 1.138a2.45 2.45 0 0 1-1.347.384q-.528 0-.899-.175a1.9 1.9 0 0 1-.601-.439 2.2 2.2 0 0 1-.358-.541h-.055v3.503zm1.777-5.728q0 .584.162 1.019t.469.677q.307.239.746.239.442 0 .75-.243.306-.247.464-.682.162-.438.162-1.01 0-.567-.158-.997a1.5 1.5 0 0 0-.464-.673 1.18 1.18 0 0 0-.754-.243q-.444 0-.75.234a1.47 1.47 0 0 0-.465.665 2.9 2.9 0 0 0-.162 1.014m7.632-5.454V179h-1.815v-8.727zm1.455 8.727v-6.545h1.815V179zm.912-7.389a1 1 0 0 1-.695-.269.87.87 0 0 1-.286-.652q0-.375.286-.643a.98.98 0 0 1 .695-.273q.404 0 .69.273.29.268.29.643a.86.86 0 0 1-.29.652.97.97 0 0 1-.69.269m5.315 7.517q-1.006 0-1.731-.426a2.9 2.9 0 0 1-1.108-1.193q-.383-.763-.383-1.756 0-1.006.388-1.764a2.9 2.9 0 0 1 1.112-1.189q.72-.43 1.713-.431.856 0 1.5.311.643.312 1.018.874t.414 1.321h-1.713q-.073-.49-.384-.788-.306-.303-.805-.303a1.22 1.22 0 0 0-.737.23q-.312.226-.486.661-.175.434-.175 1.052 0 .627.171 1.066.174.438.49.669.315.23.737.23a1.2 1.2 0 0 0 .558-.128q.251-.128.413-.371.167-.247.218-.592h1.713q-.043.75-.409 1.321a2.5 2.5 0 0 1-1.002.886q-.639.32-1.512.32m5.952-.004q-.627 0-1.117-.218a1.8 1.8 0 0 1-.775-.652q-.282-.435-.282-1.082 0-.546.201-.916.2-.37.545-.597.346-.225.784-.341a6 6 0 0 1 .929-.162q.572-.06.921-.111.35-.054.507-.161a.36.36 0 0 0 .157-.316v-.025q0-.405-.255-.627-.252-.221-.716-.221-.49 0-.78.217a1 1 0 0 0-.384.537l-1.679-.137q.129-.596.503-1.031.375-.439.968-.673.596-.239 1.38-.239.546 0 1.044.128.503.127.891.396.391.269.618.691.225.417.226 1.001V179h-1.722v-.908h-.051a1.9 1.9 0 0 1-.422.542 2 2 0 0 1-.635.362 2.6 2.6 0 0 1-.856.128m.519-1.253q.401 0 .708-.158.306-.162.481-.435.175-.272.175-.617v-.695a1 1 0 0 1-.234.102 4 4 0 0 1-.328.081 17 17 0 0 1-.367.064l-.332.047a2.2 2.2 0 0 0-.558.149.9.9 0 0 0-.371.277.68.68 0 0 0-.132.426q0 .37.268.567.273.192.69.192m8.057-5.416v1.363h-3.942v-1.363zm-3.047-1.569h1.815v6.103a.8.8 0 0 0 .077.392.42.42 0 0 0 .213.191.9.9 0 0 0 .324.056q.127 0 .255-.021l.196-.039.286 1.351a5 5 0 0 1-.384.098q-.247.06-.6.072-.657.026-1.151-.174a1.6 1.6 0 0 1-.763-.622q-.273-.423-.268-1.066zm4.229 8.114v-6.545h1.815V179zm.912-7.389a1 1 0 0 1-.695-.269.87.87 0 0 1-.285-.652q0-.375.285-.643a.98.98 0 0 1 .695-.273q.405 0 .69.273.29.268.29.643a.86.86 0 0 1-.29.652.97.97 0 0 1-.69.269m5.315 7.517q-.993 0-1.717-.422a2.9 2.9 0 0 1-1.113-1.185q-.392-.763-.392-1.768 0-1.014.392-1.773a2.87 2.87 0 0 1 1.113-1.185q.724-.426 1.717-.426t1.713.426q.724.423 1.117 1.185.392.759.392 1.773 0 1.005-.392 1.768a2.9 2.9 0 0 1-1.117 1.185q-.72.422-1.713.422m.009-1.406q.451 0 .754-.256.302-.26.456-.707.157-.448.157-1.019t-.157-1.018a1.6 1.6 0 0 0-.456-.708 1.12 1.12 0 0 0-.754-.26q-.456 0-.768.26a1.6 1.6 0 0 0-.464.708 3.1 3.1 0 0 0-.153 1.018q0 .571.153 1.019a1.6 1.6 0 0 0 .464.707q.312.256.768.256m6.208-2.506V179h-1.815v-6.545h1.73v1.154h.077a1.83 1.83 0 0 1 .729-.903q.51-.337 1.24-.337.681 0 1.188.299.508.298.789.852.28.55.281 1.312V179h-1.815v-3.844q.004-.6-.307-.937-.31-.341-.857-.341-.366 0-.647.158-.278.157-.435.46a1.6 1.6 0 0 0-.158.72m-75.288 17.908q-.627 0-1.117-.218a1.8 1.8 0 0 1-.775-.652q-.282-.435-.282-1.082 0-.546.201-.916.2-.37.545-.597.346-.225.784-.341a6 6 0 0 1 .929-.162q.571-.06.921-.111.35-.054.507-.161a.36.36 0 0 0 .157-.316v-.025q0-.405-.255-.627-.252-.221-.716-.221-.49 0-.78.217a1 1 0 0 0-.384.537l-1.679-.137q.129-.596.503-1.031.375-.439.968-.673.596-.239 1.38-.239.546 0 1.044.128.503.127.891.396.392.269.618.691.226.417.226 1.001V193h-1.722v-.908h-.051a1.9 1.9 0 0 1-.422.542 2 2 0 0 1-.635.362 2.6 2.6 0 0 1-.856.128m.52-1.253q.4 0 .707-.158.307-.162.481-.435.175-.272.175-.617v-.695a1 1 0 0 1-.234.102 4 4 0 0 1-.328.081q-.183.034-.367.064l-.332.047a2.2 2.2 0 0 0-.558.149.9.9 0 0 0-.371.277.68.68 0 0 0-.132.426q0 .37.268.567.273.192.691.192m8.772-1.658v-3.758h1.815V193h-1.743v-1.189h-.068a1.94 1.94 0 0 1-.737.925q-.512.35-1.249.349-.656 0-1.155-.298a2.06 2.06 0 0 1-.78-.848q-.276-.55-.281-1.317v-4.167h1.815v3.843q.005.58.312.916.306.337.822.337.328 0 .614-.149.285-.153.46-.452.178-.298.175-.737m6.748-3.758v1.363h-3.941v-1.363zm-3.046-1.569h1.815v6.103a.8.8 0 0 0 .077.392.42.42 0 0 0 .213.191.9.9 0 0 0 .324.056q.127 0 .255-.021l.196-.039.286 1.351a5 5 0 0 1-.384.098q-.246.06-.601.072-.656.026-1.15-.174a1.6 1.6 0 0 1-.763-.622q-.273-.423-.268-1.066zm6.185 4.33V193h-1.815v-8.727h1.764v3.336h.077q.221-.58.715-.907.495-.333 1.241-.333.681 0 1.188.299.512.293.793.848.285.55.281 1.316V193h-1.815v-3.844q.005-.605-.307-.942-.306-.336-.861-.336-.37 0-.656.158a1.1 1.1 0 0 0-.443.46 1.56 1.56 0 0 0-.162.72m8.63 3.912q-.993 0-1.717-.422a2.9 2.9 0 0 1-1.112-1.185q-.392-.763-.392-1.768 0-1.014.392-1.773a2.86 2.86 0 0 1 1.112-1.185q.724-.426 1.717-.426t1.713.426q.724.423 1.117 1.185.392.759.392 1.773 0 1.005-.392 1.768a2.9 2.9 0 0 1-1.117 1.185q-.72.422-1.713.422m.009-1.406q.451 0 .754-.256a1.6 1.6 0 0 0 .456-.707q.158-.448.158-1.019t-.158-1.018a1.6 1.6 0 0 0-.456-.708 1.12 1.12 0 0 0-.754-.26q-.456 0-.767.26-.308.26-.465.708a3.1 3.1 0 0 0-.153 1.018q0 .571.153 1.019.158.447.465.707.31.256.767.256M762.73 193v-6.545h1.76v1.142h.068q.18-.61.601-.921.422-.315.972-.315a2.6 2.6 0 0 1 .571.064v1.611a3 3 0 0 0-.767-.098q-.4 0-.716.174a1.3 1.3 0 0 0-.494.477q-.18.308-.179.708V193zm4.91 0v-6.545h1.816V193zm.912-7.389a1 1 0 0 1-.694-.269.87.87 0 0 1-.286-.652.85.85 0 0 1 .286-.643.98.98 0 0 1 .694-.273q.405 0 .691.273a.85.85 0 0 1 .289.643.86.86 0 0 1-.289.652.97.97 0 0 1-.691.269m2.324 7.389v-1.082l3.204-3.968v-.047h-3.093v-1.448h5.28v1.18l-3.009 3.869v.047h3.119V193zm9.685.128q-1.01 0-1.739-.409a2.8 2.8 0 0 1-1.116-1.168q-.392-.759-.392-1.794 0-1.01.392-1.773a2.9 2.9 0 0 1 1.103-1.189q.716-.426 1.679-.426.648 0 1.206.209.563.204.981.618.422.414.656 1.04.234.622.234 1.457v.499h-5.527v-1.125h3.818q0-.393-.17-.695a1.2 1.2 0 0 0-.473-.473 1.36 1.36 0 0 0-.695-.175q-.413 0-.733.192-.315.188-.494.507a1.44 1.44 0 0 0-.183.703v1.07q0 .486.179.84.183.353.515.545.333.192.789.192.302 0 .554-.085.251-.086.43-.256t.273-.418l1.679.111q-.128.605-.524 1.057-.393.447-1.015.699-.617.246-1.427.247m9.635-4.807-1.662.102a.86.86 0 0 0-.183-.383 1 1 0 0 0-.371-.277 1.3 1.3 0 0 0-.541-.107q-.423 0-.712.179-.29.175-.29.469 0 .234.188.396.187.162.643.26l1.185.239q.955.196 1.423.631.47.434.469 1.142 0 .643-.379 1.129-.375.486-1.032.758-.651.269-1.504.269-1.3 0-2.071-.541a2.1 2.1 0 0 1-.899-1.483l1.786-.094a.92.92 0 0 0 .392.605q.311.204.796.205.478 0 .768-.184.294-.187.298-.481a.5.5 0 0 0-.209-.405q-.204-.162-.631-.247l-1.133-.226q-.959-.191-1.428-.665-.464-.472-.464-1.206 0-.63.341-1.086.345-.456.967-.704.626-.246 1.466-.247 1.24 0 1.952.524.715.525.835 1.428m8.267 1.892v-3.758h1.815V193h-1.743v-1.189h-.068a1.93 1.93 0 0 1-.737.925q-.511.35-1.249.349-.656 0-1.154-.298a2.05 2.05 0 0 1-.78-.848q-.277-.55-.282-1.317v-4.167h1.816v3.843q.004.58.311.916t.822.337q.329 0 .614-.149.286-.153.46-.452.179-.298.175-.737m8.713-1.892-1.662.102a.85.85 0 0 0-.183-.383.96.96 0 0 0-.371-.277 1.3 1.3 0 0 0-.541-.107q-.421 0-.711.179-.29.175-.29.469 0 .234.187.396.188.162.644.26l1.184.239q.955.196 1.424.631.468.434.468 1.142 0 .643-.379 1.129-.375.486-1.031.758-.652.269-1.504.269-1.3 0-2.071-.541a2.1 2.1 0 0 1-.899-1.483l1.785-.094a.92.92 0 0 0 .392.605q.31.204.797.205.477 0 .767-.184.294-.187.298-.481a.5.5 0 0 0-.209-.405q-.204-.162-.63-.247l-1.134-.226q-.959-.191-1.427-.665-.465-.472-.465-1.206 0-.63.341-1.086.346-.456.967-.704.627-.246 1.466-.247 1.24 0 1.952.524.716.525.835 1.428m1.293 4.679v-6.545h1.815V193zm.912-7.389a1 1 0 0 1-.695-.269.87.87 0 0 1-.286-.652q0-.375.286-.643a.98.98 0 0 1 .695-.273q.404 0 .69.273.29.268.29.643a.86.86 0 0 1-.29.652.97.97 0 0 1-.69.269m4.172 3.605V193h-1.815v-6.545h1.73v1.154h.077a1.83 1.83 0 0 1 .729-.903q.511-.337 1.24-.337.682 0 1.189.299.506.298.788.852.28.55.281 1.312V193h-1.815v-3.844q.004-.6-.307-.937-.311-.341-.856-.341a1.3 1.3 0 0 0-.648.158q-.278.157-.435.46a1.6 1.6 0 0 0-.158.72m8.599 6.375q-.883 0-1.513-.243-.627-.238-.997-.652a2 2 0 0 1-.482-.929l1.679-.226q.077.196.243.367t.439.272q.277.107.673.107.593 0 .976-.29.388-.285.388-.959v-1.197h-.077a1.7 1.7 0 0 1-.358.516 1.8 1.8 0 0 1-.613.396q-.376.153-.895.153-.738 0-1.342-.341-.602-.345-.959-1.052-.354-.712-.354-1.799 0-1.112.362-1.857.363-.747.963-1.117a2.5 2.5 0 0 1 1.326-.371q.55 0 .92.188.37.183.597.46.23.273.353.537h.069v-1.099h1.802v6.609q0 .835-.409 1.398-.41.563-1.134.843-.72.286-1.657.286m.038-4.048q.44 0 .742-.218a1.4 1.4 0 0 0 .468-.63q.167-.414.167-.989 0-.576-.162-.997a1.47 1.47 0 0 0-.469-.661 1.2 1.2 0 0 0-.746-.234q-.447 0-.754.243-.307.238-.465.665a2.8 2.8 0 0 0-.157.984q0 .567.157.98.162.409.465.635.307.222.754.222m-82.458 9.785h-1.866a1.8 1.8 0 0 0-.209-.643 1.6 1.6 0 0 0-.405-.486 1.8 1.8 0 0 0-.571-.307 2.2 2.2 0 0 0-.694-.106q-.678 0-1.181.336-.503.333-.78.972-.276.635-.277 1.542 0 .934.277 1.569.282.634.784.958.503.324 1.164.324.37 0 .686-.098a1.8 1.8 0 0 0 .567-.285 1.7 1.7 0 0 0 .409-.465q.165-.273.23-.622l1.866.009q-.072.6-.362 1.159-.285.553-.771.993a3.7 3.7 0 0 1-1.151.69 4.2 4.2 0 0 1-1.504.251q-1.168 0-2.088-.528-.917-.528-1.449-1.53-.528-1.002-.528-2.425 0-1.427.536-2.429.537-1.001 1.458-1.525.92-.529 2.071-.529.759 0 1.406.213.653.214 1.155.623.503.404.818.993.32.588.409 1.346m3.105-3.055V207h-1.816v-8.727zm4.411 8.855q-.993 0-1.717-.422a2.9 2.9 0 0 1-1.112-1.185q-.393-.763-.392-1.768 0-1.014.392-1.773a2.86 2.86 0 0 1 1.112-1.185q.724-.426 1.717-.426t1.713.426q.724.423 1.117 1.185.392.759.392 1.773 0 1.005-.392 1.768a2.9 2.9 0 0 1-1.117 1.185q-.72.422-1.713.422m.009-1.406q.451 0 .754-.256a1.6 1.6 0 0 0 .456-.707q.158-.448.158-1.019t-.158-1.018a1.6 1.6 0 0 0-.456-.708 1.12 1.12 0 0 0-.754-.26q-.456 0-.767.26-.308.26-.465.708a3.1 3.1 0 0 0-.153 1.018q0 .571.153 1.019.157.447.465.707.31.256.767.256m8.591-1.509v-3.758h1.815V207h-1.743v-1.189h-.068a1.94 1.94 0 0 1-.737.925q-.511.35-1.249.349-.656 0-1.155-.298a2.06 2.06 0 0 1-.78-.848q-.276-.55-.281-1.317v-4.167h1.816v3.843q.003.58.311.916.306.337.822.337.328 0 .614-.149.285-.153.46-.452.178-.298.175-.737m5.679 2.894q-.745 0-1.351-.384-.6-.388-.954-1.138-.35-.754-.35-1.849 0-1.125.362-1.871.363-.75.963-1.121.606-.375 1.326-.375.55 0 .916.188.37.183.597.46.23.273.349.537h.055v-3.281h1.811V207h-1.789v-1.048h-.077a2.3 2.3 0 0 1-.362.541 1.8 1.8 0 0 1-.601.439q-.366.175-.895.175m.575-1.445q.44 0 .742-.239.307-.243.468-.677.167-.435.167-1.019t-.162-1.014a1.46 1.46 0 0 0-.469-.665 1.2 1.2 0 0 0-.746-.234q-.447 0-.754.243a1.5 1.5 0 0 0-.464.673 2.9 2.9 0 0 0-.158.997q0 .572.158 1.01.16.435.464.682.307.243.754.243m8.162-5.207v1.363h-4.04v-1.363zM767.149 207v-7.018q0-.712.277-1.181.28-.469.767-.703a2.5 2.5 0 0 1 1.104-.234q.417 0 .762.064.35.063.52.115l-.324 1.363a3 3 0 0 0-.264-.064 1.6 1.6 0 0 0-.315-.03q-.4 0-.558.188-.159.183-.158.516V207zm6.039-8.727V207h-1.815v-8.727zm3.321 8.851q-.627 0-1.117-.218a1.8 1.8 0 0 1-.775-.652q-.282-.435-.281-1.082 0-.546.2-.916t.545-.597q.346-.225.784-.341.444-.115.929-.162.571-.06.921-.111.35-.054.507-.161a.36.36 0 0 0 .158-.316v-.025q0-.405-.256-.627-.251-.221-.716-.221-.49 0-.78.217a1 1 0 0 0-.383.537l-1.679-.137q.128-.596.503-1.031.375-.439.967-.673.597-.239 1.381-.239.545 0 1.044.128.503.127.89.396.393.269.618.691.226.417.226 1.001V207h-1.722v-.908h-.051a1.9 1.9 0 0 1-.422.542 2 2 0 0 1-.635.362 2.6 2.6 0 0 1-.856.128m.52-1.253q.4 0 .707-.158.307-.162.482-.435a1.1 1.1 0 0 0 .174-.617v-.695a1 1 0 0 1-.234.102 4 4 0 0 1-.328.081q-.183.034-.367.064l-.332.047a2.2 2.2 0 0 0-.558.149.9.9 0 0 0-.371.277.68.68 0 0 0-.132.426q0 .37.268.567.273.192.691.192m4.574 1.129v-6.545h1.76v1.142h.068q.18-.61.601-.921.422-.315.972-.315a2.6 2.6 0 0 1 .571.064v1.611a3 3 0 0 0-.767-.098q-.4 0-.716.174a1.3 1.3 0 0 0-.494.477q-.18.308-.179.708V207zm7.589.128q-1.01 0-1.739-.409a2.8 2.8 0 0 1-1.116-1.168q-.392-.759-.392-1.794 0-1.01.392-1.773a2.9 2.9 0 0 1 1.103-1.189q.716-.426 1.679-.426.648 0 1.206.209.563.204.98.618.422.414.657 1.04.234.622.234 1.457v.499h-5.527v-1.125h3.818q0-.393-.17-.695a1.23 1.23 0 0 0-.473-.473 1.36 1.36 0 0 0-.695-.175q-.413 0-.733.192-.315.188-.494.507a1.43 1.43 0 0 0-.183.703v1.07q0 .486.179.84.183.353.515.545.333.192.789.192.302 0 .554-.085.251-.086.43-.256t.273-.418l1.679.111q-.129.605-.524 1.057-.393.447-1.015.699-.617.246-1.427.247m10.494-8.855h1.824v6.085q0 .843-.379 1.466-.375.622-1.044.959t-1.555.336a3.6 3.6 0 0 1-1.432-.277 2.3 2.3 0 0 1-1.014-.852q-.375-.575-.371-1.445h1.836q.009.346.141.593a.96.96 0 0 0 .371.375q.238.128.562.128.341 0 .576-.145a.94.94 0 0 0 .362-.435q.123-.285.123-.703zM805 207l-2.497-8.727h2.016l1.444 6.064h.073l1.594-6.064h1.725l1.59 6.076h.077l1.444-6.076h2.016L811.985 207h-1.799l-1.661-5.706h-.069L806.799 207zm10.137-7.206v-1.521h7.168v1.521h-2.672V207h-1.824v-7.206z"/><path fill="#fff" d="M113 153H46v44h67z"/><path fill="#3E74FF" stroke="#3E74FF" stroke-miterlimit="10" stroke-width="1.5" d="M113 150H46v5h67z"/><path fill="#fff" d="M49.1 153.396a1.3 1.3 0 1 0 0-2.599 1.3 1.3 0 0 0 0 2.599m4.202 0a1.3 1.3 0 1 0 0-2.599 1.3 1.3 0 0 0 0 2.599m4.203 0a1.3 1.3 0 1 0 0-2.599 1.3 1.3 0 0 0 0 2.599"/><path fill="#E0ECFF" d="M84.929 159.646H49.99v14.141h34.94zm-14.973 16.637H49.99v17.469h19.965zm39.096-16.637H87.424v14.141h21.628zm0 16.637H72.451v17.469h36.601z"/><path stroke="#3E74FF" stroke-miterlimit="10" stroke-width="1.5" d="M113 149H46v6h67z"/><path stroke="#3E74FF" stroke-miterlimit="10" stroke-width="1.5" d="M113 149H46v48h67z"/><path fill="#fff" stroke="#3E74FF" stroke-miterlimit="10" stroke-width="1.5" d="M633.672 241.964v3.41l76.224-.004-.001-3.41z"/><path fill="#E0ECFF" stroke="#3E74FF" stroke-miterlimit="10" stroke-width="1.5" d="M714.568 219.459H629v22.502h85.568z"/><path fill="#fff" d="M710.872 238.527v-15.635h-78.175v15.635z"/><path fill="#3E74FF" d="M639.041 229.011a1.59 1.59 0 1 0 0-3.178 1.59 1.59 0 0 0 0 3.178"/><path stroke="#3E74FF" stroke-miterlimit="10" stroke-width="1.5" d="M645.444 232.563h-8.182m30.199 2.67h-30.199m41.032 0h-7.155"/><path fill="#fff" stroke="#3E74FF" stroke-miterlimit="10" stroke-width="1.5" d="M633.672 216.002v3.411l76.224-.004-.001-3.411z"/><path fill="#E0ECFF" stroke="#3E74FF" stroke-miterlimit="10" stroke-width="1.5" d="M714.568 198H629v18h85.568z"/><path fill="#fff" d="M710.872 212.566v-11.132h-78.175v11.132z"/><path fill="#3E74FF" d="M639.041 208.081a1.059 1.059 0 1 0 0-2.118 1.059 1.059 0 0 0 0 2.118m3.84 0a1.06 1.06 0 1 0 0-2.12 1.06 1.06 0 0 0 0 2.12m5.46 1.325a2.384 2.384 0 1 0 0-4.767 2.384 2.384 0 0 0 0 4.767"/><path stroke="#3E74FF" stroke-miterlimit="10" stroke-width="1.5" d="M705.778 209.272h-24.903m-2.581 0h-7.155"/><path stroke="#E0ECFF" stroke-miterlimit="10" stroke-width="1.5" d="M705.888 206.47h-7.155m7.155-2.361h-7.155"/><path fill="#E2F5FA" stroke="#F6821F" stroke-width="2" d="M571 164h108v44H571z"/><path fill="#222" d="M612.446 175.794v-1.521h7.167v1.521h-2.672V183h-1.823v-7.206zm11.62 4.419v-3.758h1.816V183h-1.743v-1.189h-.068a1.93 1.93 0 0 1-.738.925q-.51.35-1.248.349-.657 0-1.155-.298a2.06 2.06 0 0 1-.78-.848q-.276-.55-.281-1.317v-4.167h1.815v3.843q.005.58.311.916.307.337.823.337.328 0 .613-.149a1.17 1.17 0 0 0 .461-.452q.179-.298.174-.737m5.083-.997V183h-1.815v-6.545h1.73v1.154h.077q.217-.57.728-.903.512-.337 1.24-.337.682 0 1.189.299.507.298.789.852.28.55.281 1.312V183h-1.815v-3.844q.003-.6-.307-.937-.312-.341-.857-.341-.366 0-.648.158a1.1 1.1 0 0 0-.434.46 1.6 1.6 0 0 0-.158.72m7.465 0V183h-1.815v-6.545h1.73v1.154h.076a1.83 1.83 0 0 1 .729-.903q.511-.337 1.24-.337.682 0 1.189.299.507.298.788.852.282.55.282 1.312V183h-1.816v-3.844q.005-.6-.306-.937-.312-.341-.857-.341-.366 0-.648.158a1.1 1.1 0 0 0-.434.46 1.6 1.6 0 0 0-.158.72m8.632 3.912q-1.01 0-1.738-.409a2.8 2.8 0 0 1-1.117-1.168q-.392-.759-.392-1.794 0-1.01.392-1.773.393-.762 1.104-1.189.716-.426 1.679-.426.648 0 1.206.209.563.204.98.618.422.414.656 1.04.235.622.235 1.457v.499h-5.527v-1.125h3.818q0-.393-.171-.695a1.2 1.2 0 0 0-.473-.473 1.35 1.35 0 0 0-.694-.175q-.414 0-.733.192-.315.188-.494.507a1.43 1.43 0 0 0-.184.703v1.07q0 .486.179.84.183.353.516.545.332.192.788.192.303 0 .554-.085t.431-.256a1.1 1.1 0 0 0 .272-.418l1.679.111q-.128.605-.524 1.057a2.6 2.6 0 0 1-1.014.699q-.618.246-1.428.247m6.005-8.855V183h-1.816v-8.727zm-41.988 17.055h-1.866a1.8 1.8 0 0 0-.209-.643 1.6 1.6 0 0 0-.405-.486 1.8 1.8 0 0 0-.571-.307 2.2 2.2 0 0 0-.694-.106q-.678 0-1.181.336-.503.333-.779.972-.277.635-.277 1.542 0 .934.277 1.569.28.634.784.958a2.1 2.1 0 0 0 1.163.324q.37 0 .686-.098a1.8 1.8 0 0 0 .567-.285q.247-.192.409-.465.166-.273.23-.622l1.866.009q-.072.6-.362 1.159-.285.553-.771.993a3.7 3.7 0 0 1-1.151.69 4.2 4.2 0 0 1-1.504.251q-1.167 0-2.088-.528-.917-.528-1.449-1.53-.528-1.002-.528-2.425 0-1.427.537-2.429.536-1.001 1.457-1.525.92-.529 2.071-.529.76 0 1.406.213.653.214 1.155.623.503.404.818.993.32.588.409 1.346m4.247 5.8q-.993 0-1.717-.422a2.9 2.9 0 0 1-1.113-1.185q-.392-.763-.392-1.768 0-1.014.392-1.773a2.87 2.87 0 0 1 1.113-1.185q.724-.426 1.717-.426t1.713.426a2.85 2.85 0 0 1 1.116 1.185q.393.759.393 1.773 0 1.005-.393 1.768a2.87 2.87 0 0 1-1.116 1.185q-.72.422-1.713.422m.008-1.406q.452 0 .755-.256.301-.26.456-.707.157-.448.157-1.019t-.157-1.018a1.6 1.6 0 0 0-.456-.708 1.12 1.12 0 0 0-.755-.26q-.455 0-.767.26a1.6 1.6 0 0 0-.464.708 3.1 3.1 0 0 0-.153 1.018q0 .571.153 1.019a1.6 1.6 0 0 0 .464.707q.312.256.767.256m6.209-2.506V197h-1.815v-6.545h1.73v1.154h.077q.218-.57.728-.903.512-.337 1.241-.337.681 0 1.188.299.507.298.789.852.28.55.281 1.312V197h-1.815v-3.844q.004-.6-.307-.937-.312-.341-.857-.341-.366 0-.647.158-.278.157-.435.46a1.6 1.6 0 0 0-.158.72m7.465 0V197h-1.815v-6.545h1.73v1.154h.077q.216-.57.728-.903.512-.337 1.24-.337.682 0 1.189.299.507.298.789.852.28.55.281 1.312V197h-1.815v-3.844q.003-.6-.307-.937-.312-.341-.857-.341-.366 0-.648.158a1.1 1.1 0 0 0-.434.46 1.6 1.6 0 0 0-.158.72m8.633 3.912q-1.01 0-1.739-.409a2.8 2.8 0 0 1-1.117-1.168q-.392-.759-.392-1.794 0-1.01.392-1.773.393-.762 1.104-1.189.716-.426 1.679-.426.648 0 1.206.209.563.204.98.618.422.414.656 1.04.235.622.235 1.457v.499h-5.527v-1.125h3.818q0-.393-.17-.695a1.23 1.23 0 0 0-.473-.473 1.36 1.36 0 0 0-.695-.175q-.414 0-.733.192-.315.188-.494.507a1.43 1.43 0 0 0-.184.703v1.07q0 .486.179.84.184.353.516.545t.788.192q.303 0 .554-.085t.431-.256q.179-.17.273-.418l1.678.111a2.3 2.3 0 0 1-.524 1.057 2.6 2.6 0 0 1-1.014.699q-.618.246-1.427.247m7.146 0q-1.006 0-1.73-.426a2.9 2.9 0 0 1-1.108-1.193q-.384-.763-.384-1.756 0-1.006.388-1.764a2.9 2.9 0 0 1 1.112-1.189q.72-.43 1.713-.431.857 0 1.5.311.644.312 1.019.874t.413 1.321h-1.713a1.32 1.32 0 0 0-.383-.788q-.307-.303-.806-.303a1.22 1.22 0 0 0-.737.23q-.31.226-.486.661-.174.434-.175 1.052 0 .627.171 1.066.174.438.49.669.315.23.737.23.312 0 .558-.128.252-.128.414-.371.166-.247.217-.592h1.713q-.043.75-.409 1.321a2.47 2.47 0 0 1-1.001.886q-.64.32-1.513.32m7.567-6.673v1.363h-3.942v-1.363zm-3.047-1.569h1.815v6.103a.8.8 0 0 0 .077.392.42.42 0 0 0 .213.191.9.9 0 0 0 .324.056q.128 0 .256-.021l.196-.039.285 1.351a5 5 0 0 1-.383.098q-.247.06-.601.072-.657.026-1.151-.174a1.6 1.6 0 0 1-.762-.622q-.273-.423-.269-1.066zm7.117 8.242q-.993 0-1.718-.422a2.9 2.9 0 0 1-1.112-1.185q-.392-.763-.392-1.768 0-1.014.392-1.773a2.86 2.86 0 0 1 1.112-1.185q.725-.426 1.718-.426t1.713.426a2.85 2.85 0 0 1 1.116 1.185q.392.759.392 1.773 0 1.005-.392 1.768a2.87 2.87 0 0 1-1.116 1.185q-.72.422-1.713.422m.008-1.406q.452 0 .754-.256a1.6 1.6 0 0 0 .456-.707q.158-.448.158-1.019t-.158-1.018a1.6 1.6 0 0 0-.456-.708 1.12 1.12 0 0 0-.754-.26q-.456 0-.767.26a1.6 1.6 0 0 0-.464.708 3.1 3.1 0 0 0-.154 1.018q0 .571.154 1.019a1.6 1.6 0 0 0 .464.707q.31.256.767.256M659.01 197v-6.545h1.76v1.142h.068q.178-.61.601-.921a1.58 1.58 0 0 1 .971-.315 2.6 2.6 0 0 1 .571.064v1.611a3 3 0 0 0-.767-.098q-.4 0-.716.174a1.3 1.3 0 0 0-.494.477 1.4 1.4 0 0 0-.179.708V197z"/><path fill="#F6821F" d="M585.755 188.511h-4.322l-.633-1.328 7.75-13.71 1.341.643-1.602 9.254h4.321l.634 1.328-7.75 13.711-1.341-.643z"/><path fill="#E2F5FA" stroke="#0055DC" stroke-width="2" d="M571 198H320v-24h251z"/><path fill="#E2F5FA" d="M462 175h113v22H462z"/><path fill="#757575" d="M345.293 185.293a1 1 0 0 0 0 1.414l6.364 6.364a.999.999 0 1 0 1.414-1.414L347.414 186l5.657-5.657a.999.999 0 1 0-1.414-1.414zm222.414 1.414a1 1 0 0 0 0-1.414l-6.364-6.364a.999.999 0 1 0-1.414 1.414l5.657 5.657-5.657 5.657a.999.999 0 1 0 1.414 1.414zM346 187h221v-2H346zm-40.707 116.707a1 1 0 0 0 1.414 0l6.364-6.364a.999.999 0 1 0-1.414-1.414L306 301.586l-5.657-5.657a.999.999 0 1 0-1.414 1.414zM305 253v50h2v-50zm-28.293-.707a1 1 0 0 0-1.414 0l-6.364 6.364a.999.999 0 1 0 1.414 1.414l5.657-5.657 5.657 5.657a.999.999 0 1 0 1.414-1.414zM275 253v50h2v-50zm-36.293-69.293a1 1 0 0 0 0-1.414l-6.364-6.364a.999.999 0 1 0-1.414 1.414l5.657 5.657-5.657 5.657a.999.999 0 1 0 1.414 1.414zM238 182H121v2h117z"/><path stroke="#757575" stroke-width="2" d="M699 40H293"/><path fill="#757575" d="M292.293 128.707a1 1 0 0 0 1.414 0l6.364-6.364a.999.999 0 1 0-1.414-1.414L293 126.586l-5.657-5.657a.999.999 0 1 0-1.414 1.414zM294 128V40h-2v88z"/><path stroke="#757575" stroke-width="2" d="M699 189V40"/><path fill="#fff" stroke="#0055DC" stroke-miterlimit="10" stroke-width="2" d="M113.409 166.819c9.615 0 17.41-7.795 17.41-17.41S123.024 132 113.409 132 96 139.794 96 149.409s7.794 17.41 17.409 17.41Z"/><path fill="#003682" d="M119.668 153.668c-.03-2.334 1.047-2.722 1.667-4.966 1.666-6.035-1.667-12.702-7.668-12.702-6 0-8 5.94-8 8.363v6.667c0 2.64-3 3.578-3 6 0 5.339 4.661 9.667 10 9.667s10.668-2.357 10.668-7.696c0-2.422-3.637-3-3.667-5.333"/><path fill="#C5EBF5" stroke="#003682" stroke-miterlimit="10" d="M107.916 158.479a12.3 12.3 0 0 0 2.499-1.819v-4.595l6.053.072v4.322c.276.536 1.32 1.196 2.712 1.978 0 0-2.59 3.863-5.844 3.863-3.253 0-5.42-3.821-5.42-3.821Z"/><path fill="#0055DC" stroke="#003682" stroke-miterlimit="10" d="M113.41 166.819a17.34 17.34 0 0 0 11.688-4.508 27 27 0 0 0-5.885-3.844s-2.623 3.833-5.876 3.833-5.438-3.784-5.438-3.784c-1.997 1.126-4.446 2.186-6.282 3.697a17.35 17.35 0 0 0 11.793 4.606Z"/><path fill="#C5EBF5" stroke="#003682" stroke-miterlimit="10" d="M119.181 146.257a.97.97 0 0 1 .859-.722 1 1 0 0 1 .393.052c.756.229.33 2.976-1.784 2.879q.329-1.09.532-2.209Zm-11.546 0a.99.99 0 0 0-1.292-.669c-.66.267-.331 2.975 1.785 2.878a18 18 0 0 1-.493-2.209Z"/><path fill="#C5EBF5" stroke="#003682" stroke-miterlimit="10" d="M119.456 143.735c0 1.569-.575 4.765-1.584 6.695-.749 1.432-2.679 3.027-4.434 3.027-1.754 0-3.485-1.595-4.433-3.027-1.201-1.816-1.584-5.126-1.584-6.695a6.015 6.015 0 0 1 6.017-6.017 6.02 6.02 0 0 1 6.018 6.017Z"/><path fill="#003682" d="M119.551 144.174c-.307-2.229-5.968-1.896-7.057-4.391 0 0-.449 1.197-1.453 2.486-1.452 1.865-3.626 1.621-3.626 1.621-.144-.778-.737-.921-.748-1.709 0-3.098 3.047-5.514 6.667-5.514 1.75-.004 3.432.583 4.68 1.634s1.962 2.479 1.987 3.977c-.034.77-.158 1.535-.368 2.284z"/><path fill="#003682" d="M116.088 144.573c-1.324-.471-.277-2.96-1.647-3.821 0 0 .802-.022 1.743-.28 1.362-.373 2.008-1.519 2.008-1.519s-2.275.034-3.02.217c-.686.169-.515.931-.515.931.789-.513 1.893-1.351 3.577-1.084l-.042-.064a12 12 0 0 0-1.41-.456c-1.903-.462-3.841.543-4.38 2.167a2.7 2.7 0 0 0 .307 2.342c.459.717 1.231 1.25 2.147 1.485.478.1.967.159 1.458.176z"/><path stroke="#003682" stroke-linejoin="round" stroke-width=".505" d="m118.192 138.953.042.064c-1.684-.267-2.788.571-3.577 1.084 0 0-.171-.762.515-.931.745-.183 3.02-.217 3.02-.217Zm0 0a12 12 0 0 0-1.41-.456c-1.903-.462-3.841.543-4.38 2.167a2.7 2.7 0 0 0 .307 2.342c.459.717 1.231 1.25 2.147 1.485.478.1.967.159 1.458.176l-.226-.094c-1.324-.471-.277-2.96-1.647-3.821 0 0 .802-.022 1.743-.28 1.362-.373 2.008-1.519 2.008-1.519Zm1.359 5.221c-.307-2.229-5.968-1.896-7.057-4.391 0 0-.449 1.197-1.453 2.486-1.452 1.865-3.626 1.621-3.626 1.621-.144-.778-.737-.921-.748-1.709 0-3.098 3.047-5.514 6.667-5.514 1.75-.004 3.432.583 4.68 1.634s1.962 2.479 1.987 3.977c-.034.77-.158 1.535-.368 2.284z"/><path stroke="#0055DC" stroke-miterlimit="10" d="M113.409 166.819c9.615 0 17.41-7.795 17.41-17.41S123.024 132 113.409 132 96 139.794 96 149.409s7.794 17.41 17.409 17.41Z"/><ellipse cx="292" cy="180.5" fill="#fff" rx="45" ry="45.5"/><circle cx="292.489" cy="180.889" r="44.889" stroke="#F6821F" stroke-width="2"/><rect width="74.296" height="35.837" x="255.341" y="217.163" fill="#fff" rx="17.919"/><path fill="#222" d="M270.693 230.728h-1.866a1.8 1.8 0 0 0-.209-.643 1.6 1.6 0 0 0-.405-.486 1.8 1.8 0 0 0-.571-.307 2.2 2.2 0 0 0-.694-.107q-.678 0-1.181.337-.503.333-.78.972-.276.634-.277 1.542 0 .933.277 1.568.282.636.784.959.503.324 1.164.324.37 0 .686-.098a1.8 1.8 0 0 0 .567-.285 1.7 1.7 0 0 0 .409-.465q.166-.273.23-.622l1.866.008a3.47 3.47 0 0 1-1.133 2.152 3.6 3.6 0 0 1-1.151.691 4.2 4.2 0 0 1-1.504.251q-1.167 0-2.088-.528-.916-.528-1.449-1.53-.528-1.002-.528-2.425 0-1.427.537-2.429.536-1.001 1.457-1.525.92-.53 2.071-.529.759 0 1.406.213.652.213 1.155.623.503.404.818.992.32.588.409 1.347m3.105-3.055v8.727h-1.816v-8.727zm4.411 8.855q-.993 0-1.717-.422a2.9 2.9 0 0 1-1.112-1.185q-.393-.763-.392-1.768 0-1.014.392-1.773a2.85 2.85 0 0 1 1.112-1.185q.724-.426 1.717-.426t1.713.426q.724.422 1.117 1.185.392.759.392 1.773 0 1.005-.392 1.768a2.9 2.9 0 0 1-1.117 1.185q-.72.422-1.713.422m.009-1.407q.451 0 .754-.255.303-.26.456-.708.158-.447.158-1.018t-.158-1.019a1.6 1.6 0 0 0-.456-.707 1.12 1.12 0 0 0-.754-.26q-.456 0-.767.26-.308.26-.465.707a3.2 3.2 0 0 0-.153 1.019q0 .571.153 1.018.158.448.465.708.31.255.767.255m8.591-1.508v-3.759h1.815v6.546h-1.743v-1.189h-.068a1.93 1.93 0 0 1-.737.925q-.511.35-1.249.349-.656 0-1.155-.298a2.05 2.05 0 0 1-.779-.848q-.277-.55-.282-1.317v-4.168h1.816v3.844q.003.58.311.916.306.337.822.337.328 0 .614-.149.285-.153.46-.452.179-.298.175-.737m5.679 2.893a2.47 2.47 0 0 1-1.351-.383q-.6-.388-.954-1.138-.35-.754-.35-1.849 0-1.125.362-1.871.363-.75.964-1.121.605-.375 1.325-.375.55 0 .916.188.37.183.597.46.23.273.349.537h.055v-3.281h1.812v8.727h-1.79v-1.048h-.077a2.4 2.4 0 0 1-.362.541 1.8 1.8 0 0 1-.601.439q-.367.174-.895.174m.575-1.444q.44 0 .742-.239a1.5 1.5 0 0 0 .469-.677q.165-.435.166-1.019 0-.584-.162-1.014a1.45 1.45 0 0 0-.469-.665 1.2 1.2 0 0 0-.746-.234q-.447 0-.754.243a1.5 1.5 0 0 0-.464.673 2.9 2.9 0 0 0-.158.997q0 .572.158 1.01.162.435.464.682.307.243.754.243m8.162-5.208v1.364h-4.04v-1.364zm-3.115 6.546v-7.019q0-.71.277-1.18.28-.469.767-.703a2.5 2.5 0 0 1 1.104-.234q.417 0 .762.063.35.064.52.116l-.324 1.363a2 2 0 0 0-.264-.064 1.6 1.6 0 0 0-.315-.03q-.4 0-.558.188-.158.183-.158.516v6.984zm6.039-8.727v8.727h-1.815v-8.727zm3.321 8.85q-.627 0-1.117-.217a1.8 1.8 0 0 1-.775-.652q-.282-.435-.281-1.082 0-.546.2-.916.2-.371.545-.597t.784-.341q.444-.115.929-.162.572-.06.921-.111.35-.056.507-.162a.36.36 0 0 0 .158-.315v-.025q0-.405-.256-.627-.252-.222-.716-.221-.49 0-.78.217a1 1 0 0 0-.383.537l-1.679-.137q.128-.596.503-1.031.375-.439.967-.673.597-.239 1.381-.239.545 0 1.044.128.503.127.89.396.393.268.618.691.226.417.226 1.001v4.415h-1.722v-.908h-.051a1.82 1.82 0 0 1-1.057.904 2.6 2.6 0 0 1-.856.127m.52-1.252q.4 0 .707-.158.307-.162.482-.435.174-.272.174-.618v-.694a1 1 0 0 1-.234.102 5 5 0 0 1-.328.081q-.183.034-.366.064l-.333.047a2.2 2.2 0 0 0-.558.149.9.9 0 0 0-.371.277.68.68 0 0 0-.132.426q0 .37.269.567.272.192.69.192m4.574 1.129v-6.546h1.76v1.142h.069q.179-.61.6-.92.423-.315.972-.315a2.6 2.6 0 0 1 .571.064v1.61a2.5 2.5 0 0 0-.354-.068q-.225-.03-.413-.03-.4 0-.716.175a1.3 1.3 0 0 0-.494.477q-.18.308-.179.708v3.703zm7.589.128q-1.01 0-1.739-.409a2.8 2.8 0 0 1-1.116-1.168q-.392-.759-.392-1.794 0-1.01.392-1.773a2.9 2.9 0 0 1 1.103-1.189q.716-.426 1.679-.426.648 0 1.206.209.563.204.98.618.422.413.657 1.04.234.621.234 1.457v.499h-5.527v-1.125h3.818q0-.393-.17-.695a1.2 1.2 0 0 0-.473-.473 1.36 1.36 0 0 0-.695-.175q-.413 0-.733.192-.315.188-.494.507-.179.316-.183.703v1.07q0 .486.179.839.183.354.515.546.333.192.789.192.302 0 .554-.086.251-.085.43-.255.178-.17.273-.418l1.679.111q-.128.605-.524 1.057-.393.447-1.015.699-.618.247-1.427.247"/><path fill="#F38020" d="M304.438 190.586c.384-1.319.238-2.528-.403-3.425-.586-.824-1.575-1.301-2.765-1.356l-22.542-.293a.42.42 0 0 1-.348-.183.5.5 0 0 1-.055-.403.62.62 0 0 1 .531-.403l22.743-.293c2.692-.128 5.622-2.308 6.648-4.982l1.3-3.388a.73.73 0 0 0 .036-.44c-1.465-6.63-7.379-11.576-14.448-11.576-6.519 0-12.049 4.213-14.027 10.056a6.73 6.73 0 0 0-4.669-1.3 6.67 6.67 0 0 0-5.952 5.952 7 7 0 0 0 .165 2.326 9.463 9.463 0 0 0-9.193 9.47c0 .458.037.916.092 1.374a.45.45 0 0 0 .439.384h41.605a.57.57 0 0 0 .531-.403z"/><path fill="#FAAE40" d="M311.616 176.098c-.201 0-.421 0-.623.018-.146 0-.274.11-.329.257l-.879 3.058c-.385 1.319-.238 2.528.403 3.426.586.824 1.575 1.3 2.765 1.355l4.798.293c.146 0 .274.073.348.183s.091.275.054.403a.62.62 0 0 1-.531.403l-4.999.293c-2.71.128-5.622 2.308-6.647 4.982l-.366.934c-.074.183.055.367.256.367h17.177a.45.45 0 0 0 .439-.33c.293-1.062.458-2.18.458-3.334 0-6.777-5.53-12.308-12.324-12.308"/><ellipse cx="291" cy="358.5" fill="#fff" rx="45" ry="45.5"/><circle cx="291.489" cy="358.889" r="44.889" stroke="#0294E4" stroke-width="2"/><rect width="74.296" height="35.837" x="254.341" y="395.163" fill="#fff" rx="17.919"/><path fill="#222" d="M264.36 405.673h2.276l2.403 5.863h.102l2.404-5.863h2.275v8.727h-1.789v-5.68h-.073l-2.258 5.637h-1.219l-2.259-5.659h-.072v5.702h-1.79zm10.947 8.727v-6.546h1.815v6.546zm.912-7.389a1 1 0 0 1-.695-.269.87.87 0 0 1-.286-.652q0-.375.286-.643a.98.98 0 0 1 .695-.273q.404 0 .69.273.29.268.29.643 0 .38-.29.652a.97.97 0 0 1-.69.269m5.315 7.517q-1.007 0-1.731-.426a2.9 2.9 0 0 1-1.108-1.194q-.383-.762-.383-1.755 0-1.006.388-1.764a2.9 2.9 0 0 1 1.112-1.189q.72-.43 1.713-.431.857 0 1.5.311.643.312 1.018.874t.414 1.321h-1.713q-.073-.49-.384-.788-.307-.303-.805-.303a1.22 1.22 0 0 0-.737.23q-.312.226-.486.661-.175.434-.175 1.052 0 .627.171 1.066.174.438.49.669.315.23.737.23a1.2 1.2 0 0 0 .558-.128q.252-.128.413-.371.167-.247.218-.592h1.713q-.043.75-.409 1.321a2.5 2.5 0 0 1-1.002.886q-.639.32-1.512.32m4.085-.128v-6.546h1.76v1.142h.068q.18-.61.601-.92a1.58 1.58 0 0 1 .972-.315 2.6 2.6 0 0 1 .571.064v1.61a2.5 2.5 0 0 0-.354-.068 3 3 0 0 0-.413-.03q-.4 0-.716.175a1.3 1.3 0 0 0-.495.477 1.4 1.4 0 0 0-.179.708v3.703zm7.563.128q-.993 0-1.717-.422a2.9 2.9 0 0 1-1.113-1.185q-.392-.762-.392-1.768 0-1.014.392-1.773a2.86 2.86 0 0 1 1.113-1.185q.724-.426 1.717-.426t1.713.426q.724.422 1.117 1.185.392.759.392 1.773 0 1.005-.392 1.768a2.9 2.9 0 0 1-1.117 1.185q-.72.422-1.713.422m.008-1.407q.453 0 .755-.255.302-.26.456-.708.157-.447.157-1.018t-.157-1.019a1.6 1.6 0 0 0-.456-.707 1.12 1.12 0 0 0-.755-.26 1.16 1.16 0 0 0-.767.26 1.6 1.6 0 0 0-.464.707 3.2 3.2 0 0 0-.153 1.019q0 .571.153 1.018.158.449.464.708.312.255.767.255m9.84-3.4-1.662.102a.85.85 0 0 0-.183-.383 1 1 0 0 0-.371-.277 1.3 1.3 0 0 0-.541-.107q-.422 0-.712.179-.29.175-.29.469 0 .234.188.396.187.162.643.26l1.185.239q.954.196 1.423.63.47.435.469 1.142 0 .644-.379 1.13-.375.486-1.031.758-.652.269-1.505.269-1.299 0-2.071-.541a2.1 2.1 0 0 1-.899-1.483l1.786-.094a.92.92 0 0 0 .392.605q.31.204.797.205.476 0 .767-.184.294-.187.298-.481a.5.5 0 0 0-.209-.405q-.204-.162-.631-.247l-1.133-.226q-.959-.192-1.428-.665-.464-.473-.464-1.206 0-.63.341-1.086.345-.456.967-.704.627-.247 1.466-.247 1.24 0 1.952.524.715.525.835 1.428m4.25 4.807q-.993 0-1.718-.422a2.9 2.9 0 0 1-1.112-1.185q-.392-.762-.392-1.768 0-1.014.392-1.773a2.85 2.85 0 0 1 1.112-1.185q.725-.426 1.718-.426t1.713.426q.725.422 1.116 1.185.392.759.392 1.773 0 1.005-.392 1.768a2.87 2.87 0 0 1-1.116 1.185q-.72.422-1.713.422m.008-1.407q.452 0 .754-.255.303-.26.456-.708.158-.447.158-1.018t-.158-1.019a1.6 1.6 0 0 0-.456-.707 1.12 1.12 0 0 0-.754-.26q-.456 0-.767.26a1.6 1.6 0 0 0-.464.707 3.1 3.1 0 0 0-.154 1.019q0 .571.154 1.018.158.449.464.708.31.255.767.255m7.913-5.267v1.364h-4.039v-1.364zm-3.115 6.546v-7.019q0-.71.277-1.18.282-.469.767-.703a2.5 2.5 0 0 1 1.104-.234q.418 0 .763.063.35.064.52.116l-.324 1.363a2 2 0 0 0-.264-.064 1.7 1.7 0 0 0-.316-.03q-.4 0-.558.188-.157.183-.157.516v6.984zm7.706-6.546v1.364h-3.942v-1.364zm-3.047-1.568h1.816v6.103q0 .25.076.392.076.135.213.191a.9.9 0 0 0 .324.056q.128 0 .256-.022l.196-.038.285 1.351a5 5 0 0 1-.383.098q-.247.06-.601.072-.657.026-1.151-.174a1.6 1.6 0 0 1-.762-.622q-.273-.423-.269-1.066zM269.669 428.4v-8.727h5.881v1.521h-4.036v2.079h3.733v1.522h-3.733v2.084h4.053v1.521zm9.129-3.784v3.784h-1.816v-6.546h1.731v1.155h.076q.217-.57.729-.903.511-.337 1.24-.337.682 0 1.189.299.507.297.788.852.281.55.281 1.312v4.168h-1.815v-3.844q.005-.6-.307-.937-.311-.341-.856-.341-.367 0-.648.157a1.1 1.1 0 0 0-.435.461 1.6 1.6 0 0 0-.157.72m9.131-2.762v1.364h-3.942v-1.364zm-3.047-1.568h1.815v6.103a.8.8 0 0 0 .077.392q.077.135.213.191a.9.9 0 0 0 .324.056q.127 0 .256-.022l.196-.038.285 1.351a6 6 0 0 1-.383.098q-.247.06-.601.072-.656.026-1.151-.174a1.6 1.6 0 0 1-.763-.622q-.272-.423-.268-1.066zm4.229 8.114v-6.546h1.76v1.142h.068q.18-.61.601-.92.422-.315.972-.315a2.6 2.6 0 0 1 .571.064v1.61a2.5 2.5 0 0 0-.354-.068q-.225-.03-.413-.03-.4 0-.716.175a1.3 1.3 0 0 0-.494.477q-.18.307-.179.708v3.703zm6.589.123q-.625 0-1.116-.217a1.8 1.8 0 0 1-.776-.652q-.28-.434-.281-1.082 0-.546.2-.916.201-.371.546-.597t.784-.341q.443-.115.929-.162.571-.06.92-.111.35-.055.507-.162a.35.35 0 0 0 .158-.315v-.025q0-.405-.256-.627-.251-.222-.715-.221-.49 0-.78.217a1 1 0 0 0-.384.537l-1.679-.137q.128-.596.503-1.031.375-.439.967-.673.597-.239 1.381-.239.546 0 1.044.128.502.127.891.396.391.268.618.691.226.417.226 1.001v4.415h-1.722v-.908h-.051a1.8 1.8 0 0 1-.422.541 1.9 1.9 0 0 1-.635.363 2.6 2.6 0 0 1-.857.127m.52-1.252q.4 0 .708-.158.307-.162.481-.435.175-.272.175-.618v-.694a1 1 0 0 1-.234.102 5 5 0 0 1-.329.081q-.183.034-.366.064l-.332.047q-.32.047-.559.149a.9.9 0 0 0-.37.277.68.68 0 0 0-.132.426q0 .37.268.567.273.192.69.192m9.231-7.598v8.727h-1.845v-8.727zm4.612 8.727h-3.093v-8.727h3.119q1.316 0 2.267.524a3.54 3.54 0 0 1 1.462 1.496q.515.975.515 2.335 0 1.363-.515 2.343a3.54 3.54 0 0 1-1.471 1.505q-.954.524-2.284.524m-1.248-1.581h1.172q.818 0 1.376-.29.562-.293.844-.908.285-.617.285-1.593 0-.967-.285-1.581a1.86 1.86 0 0 0-.84-.904q-.558-.29-1.376-.289h-1.176z"/><path fill="#225086" d="M275.251 371.992c1.25.78 3.329 1.647 5.526 1.647a9.97 9.97 0 0 0 5.401-1.57l.006-.003 5.816-3.635v13.125a5.03 5.03 0 0 1-2.655-.754z"/><path fill="#6DF" d="m288.304 331.634-24.167 27.26c-1.865 2.107-1.379 5.291 1.041 6.802l10.073 6.296c1.25.78 3.328 1.647 5.526 1.647 2.001 0 3.86-.58 5.4-1.57l.007-.003 5.816-3.635-14.062-8.79 14.065-15.866V330c-1.366 0-2.732.545-3.699 1.634"/><path fill="#CBF8FF" d="m277.938 359.641.168.103L292 368.431h.003v-24.653l-.003-.003z"/><path fill="#074793" d="M318.822 365.696c2.42-1.511 2.906-4.695 1.041-6.802l-15.857-17.887a10 10 0 0 0-4.231-.938c-2.98 0-5.645 1.286-7.417 3.306l-.352.397 14.062 15.866-14.065 8.79v13.124c.925 0 1.847-.251 2.652-.754l24.167-15.105z"/><path fill="#0294E4" d="M292.003 330v13.775l.351-.396c1.773-2.021 4.437-3.306 7.418-3.306 1.521 0 2.952.344 4.231.937l-8.31-9.373c-.964-1.089-2.33-1.634-3.693-1.634z"/><path fill="#96BCC2" d="m306.065 359.641-14.062-15.863v24.65z"/><path fill="#E0ECFF" stroke="#3E74FF" stroke-miterlimit="10" stroke-width="1.5" d="M480.351 166H444v39.915h36.351z"/><path fill="#fff" d="M448.989 170.277h27.085v31.362h-27.085z"/><path fill="#3E74FF" d="M463.245 173.128h-12.117v1.425h12.117z"/><path fill="#A8CBFF" d="M473.223 173.128h-7.84v1.425h7.84z"/><path fill="#3E74FF" d="M456.117 178.117h-4.989v1.426h4.989zm0 19.245h-4.989v1.425h4.989z"/><path fill="#A8CBFF" d="M471.798 178.117h-13.543v1.426h13.543z"/><path fill="#3E74FF" d="M458.255 183.106h-7.127v1.426h7.127z"/><path fill="#A8CBFF" d="M468.947 183.106h-8.553v1.426h8.553zm-4.277 4.99h-4.276v1.425h4.276zm2.851 4.989h-9.979v1.426h9.979zm-5.702 4.277h-3.564v1.425h3.564z"/><path fill="#3E74FF" d="M458.255 188.096h-7.127v1.425h7.127zm-2.851 4.989h-4.276v1.426h4.276z"/></svg>