<svg xmlns="http://www.w3.org/2000/svg" width="734" height="415" fill="none" viewBox="0 0 734 415"><path fill="#fff" d="M0 0h734v415H0z"/><path stroke="#6ECCE5" stroke-dasharray="10 10" stroke-width="2" d="M37 73h404v309H37z"/><g clip-path="url(#clip0_222_246)"><path fill="#6ECCE5" d="M62.03 50.65H43.11A7.125 7.125 0 0 1 36 43.54a7.3 7.3 0 0 1 2.6-5.515 6.8 6.8 0 0 1 4.846-1.594 9.645 9.645 0 0 1 18.487 2.294 5.8 5.8 0 0 1 4 1.36 6.022 6.022 0 0 1-3.9 10.564zM42.997 38.416a4.77 4.77 0 0 0-3.11 1.14A5.28 5.28 0 0 0 38 43.54a5.117 5.117 0 0 0 5.094 5.11H62.03A3.975 3.975 0 0 0 66 44.679a4.06 4.06 0 0 0-1.364-3.07 4.14 4.14 0 0 0-3.457-.81l-1.127.182-.032-1.14a7.642 7.642 0 0 0-14.943-2.031l-.258.843-.869-.153a5.5 5.5 0 0 0-.954-.084"/></g><path fill="#222" d="M79.472 35.545v11.637h-2.46V35.545zm4.223 6.591v5.046h-2.42v-8.728h2.306v1.54h.102q.29-.761.972-1.204.682-.45 1.653-.45.91 0 1.586.398.675.398 1.05 1.137.376.733.376 1.75v5.557H86.9v-5.125q.005-.802-.41-1.25-.414-.455-1.142-.455-.489 0-.864.21-.369.21-.579.614-.205.398-.21.96m11.999-3.682v1.819h-5.256v-1.819zm-4.063-2.09h2.42V44.5q0 .335.103.523a.56.56 0 0 0 .284.255q.188.075.432.074.17 0 .34-.028l.262-.051.38 1.8a7 7 0 0 1-.51.131q-.33.08-.802.097-.875.034-1.534-.233a2.14 2.14 0 0 1-1.017-.83q-.364-.561-.358-1.42zm9.347 10.988q-1.347 0-2.318-.545a3.74 3.74 0 0 1-1.49-1.557q-.522-1.012-.522-2.392 0-1.347.523-2.364a3.86 3.86 0 0 1 1.471-1.585q.955-.568 2.239-.568.864 0 1.608.278.75.273 1.307.824.563.551.875 1.386.312.83.312 1.944v.664h-7.369v-1.5h5.091a1.86 1.86 0 0 0-.227-.926 1.63 1.63 0 0 0-.631-.63 1.8 1.8 0 0 0-.926-.233q-.551 0-.977.255-.42.25-.66.676-.238.42-.244.938v1.426q0 .648.239 1.12.245.47.687.727.444.255 1.051.255.404 0 .739-.113.336-.114.574-.341t.364-.557l2.238.148a3.04 3.04 0 0 1-.699 1.409q-.522.597-1.352.931-.824.33-1.903.33m5.409-.17v-8.728h2.346v1.523h.091q.239-.812.802-1.227.562-.42 1.295-.42a3.7 3.7 0 0 1 .761.085v2.147a3 3 0 0 0-.471-.09 4 4 0 0 0-.551-.04q-.534 0-.955.233a1.7 1.7 0 0 0-.659.636 1.84 1.84 0 0 0-.239.943v4.938zm8.791-5.046v5.046h-2.42v-8.728h2.307v1.54h.102q.29-.761.971-1.204.682-.45 1.654-.45.909 0 1.585.398t1.051 1.137q.375.733.375 1.75v5.557h-2.42v-5.125q.006-.802-.409-1.25-.416-.455-1.142-.455-.489 0-.864.21-.369.21-.58.614-.204.398-.21.96m11.334 5.216q-1.347 0-2.318-.545a3.74 3.74 0 0 1-1.489-1.557q-.522-1.012-.522-2.392 0-1.347.522-2.364a3.87 3.87 0 0 1 1.472-1.585q.954-.568 2.239-.568a4.6 4.6 0 0 1 1.608.278q.75.273 1.306.824.563.551.875 1.386.313.83.313 1.944v.664h-7.369v-1.5h5.09q0-.522-.227-.926a1.63 1.63 0 0 0-.63-.63 1.8 1.8 0 0 0-.927-.233q-.55 0-.977.255-.42.25-.659.676-.239.42-.244.938v1.426q0 .648.238 1.12.244.47.688.727.443.255 1.051.255.403 0 .739-.113.335-.114.573-.341.24-.227.364-.557l2.239.148a3.06 3.06 0 0 1-.699 1.409 3.5 3.5 0 0 1-1.352.931q-.824.33-1.904.33m10.051-8.898v1.819h-5.255v-1.819zm-4.062-2.09h2.42V44.5q0 .335.103.523a.56.56 0 0 0 .284.255q.188.075.432.074.17 0 .341-.028l.261-.051.381 1.8a7 7 0 0 1-.512.131 4 4 0 0 1-.801.097q-.875.034-1.534-.233a2.14 2.14 0 0 1-1.017-.83q-.364-.561-.358-1.42z"/><path fill="#C5EBF5" fill-rule="evenodd" stroke="#0055DC" stroke-miterlimit="10" stroke-width="1.5" d="M186.487 252H94.264c-2.443 0-4.63 2.058-4.63 4.63v60.582h101.484V256.63c0-2.572-2.187-4.63-4.631-4.63Z" clip-rule="evenodd"/><path fill="#0055DC" d="M140.312 256.502a.772.772 0 1 0-.001-1.543.772.772 0 0 0 .001 1.543"/><path fill="#fff" d="M195.105 321.843H85.518c-5.66 0-9.518-.901-9.518-1.673v-2.572c0-.257.257-.515.514-.515H203.98c.257 0 .515.258.515.515v2.572c.128.772-2.83 1.673-9.39 1.673"/><path stroke="#0055DC" stroke-miterlimit="10" stroke-width="1.5" d="M195.105 321.843H85.518c-5.66 0-9.518-.901-9.518-1.673v-2.572c0-.257.257-.515.514-.515H203.98c.257 0 .515.258.515.515v2.572c.128.772-2.83 1.673-9.39 1.673Z" clip-rule="evenodd"/><path fill="#C5EBF5" d="M204.623 317.598c0-.257-.257-.515-.514-.515H76.643c-.257 0-.515.258-.515.515v2.444h128.624v-2.444z"/><path stroke="#0055DC" stroke-miterlimit="10" stroke-width="1.5" d="M195.105 321.843H85.518c-5.66 0-9.518-.901-9.518-1.673v-2.572c0-.257.257-.515.514-.515H203.98c.257 0 .515.258.515.515v2.572c.128.772-2.83 1.673-9.39 1.673Z"/><path fill="#fff" d="M186.873 259.203H93.75v54.279h93.123z"/><path fill="#0055DC" fill-rule="evenodd" d="M154.331 317.341v.514c0 .386-.771.515-1.414.515h-25.082c-.643 0-1.415-.129-1.415-.515v-.514" clip-rule="evenodd"/><path fill="#CBE9F3" d="M153.014 301.783c-3.767-2-7.94-2.538-8.717-4.363-.589-1.383 0-6.012 0-6.012l-9.103-.095s.575 4.694 0 6.107c-.698 1.714-4.49 2.267-7.971 4.215"/><path stroke="#193979" stroke-miterlimit="10" stroke-width="1.5" d="M153.014 301.783c-3.767-2-7.94-2.538-8.717-4.363-.589-1.383 0-6.012 0-6.012l-9.103-.095s.575 4.694 0 6.107c-.698 1.714-4.49 2.267-7.971 4.215"/><path fill="#1B59D3" stroke="#0F387D" stroke-linecap="round" stroke-miterlimit="10" stroke-width="1.5" d="M140.204 306.545a19.55 19.55 0 0 0 12.809-4.761c-3.766-2-7.939-2.539-8.717-4.364a4 4 0 0 1-.229-1.193 23.6 23.6 0 0 1-4.328.464 23.5 23.5 0 0 1-4.325-.464 4.2 4.2 0 0 1-.222 1.193c-.697 1.715-4.489 2.268-7.97 4.216a19.55 19.55 0 0 0 12.982 4.909Z"/><path fill="#CBE9F3" d="M132.877 283.288c-.072-.588-.943-1.643-1.971-.966-1.006.661-.04 5.606 2.765 5.422"/><path stroke="#193979" stroke-miterlimit="10" stroke-width="1.5" d="M132.877 283.288c-.072-.588-.943-1.643-1.971-.966-1.006.661-.04 5.606 2.765 5.422"/><path fill="#CBE9F3" d="M146.647 283.288c.072-.588.943-1.643 1.971-.966 1.006.661.039 5.606-2.766 5.422"/><path stroke="#193979" stroke-miterlimit="10" stroke-width="1.5" d="M146.647 283.288c.072-.588.943-1.643 1.971-.966 1.006.661.039 5.606-2.766 5.422"/><path fill="#CBE9F3" stroke="#193979" stroke-miterlimit="10" stroke-width="1.5" d="M146.824 279.847a20.4 20.4 0 0 1-.656 5.747c-.268.948-.584 3.856-.948 4.609-.915 1.899-3.274 4.012-5.417 4.012-2.144 0-4.258-2.112-5.417-4.011-.443-.726-.795-3.639-1.071-4.608-.637-2.243-.533-4.297-.533-5.749 0-4.405 2.957-7.337 7.017-7.337s7.025 2.932 7.025 7.337Z"/><path fill="#0F387D" stroke="#0F387D" stroke-linejoin="round" stroke-width="1.5" d="M145.587 278.916s-7.255.683-10.566-1.703c0 0-.966 4.066-2.143 6.075 0 0-1.451-6.169.662-6.986 0 0-.175-3.423 3.599-4.3 0 0-.195.853.438.829s5.66-2.923 9.247-.658c3.587 2.264.834 5.575.834 5.575s.097 3.499-.767 4.975l-.314 1.003s-.908-3.167-.99-4.81Z"/><path stroke="#1B59D3" stroke-miterlimit="10" stroke-width="1.5" d="M140.204 306.545c10.842 0 19.631-8.789 19.631-19.631s-8.789-19.632-19.631-19.632-19.631 8.789-19.631 19.632c0 10.842 8.789 19.631 19.631 19.631Z"/><path stroke="#1B59D3" stroke-miterlimit="10" stroke-width="1.5" d="M140.204 306.545c10.842 0 19.631-8.789 19.631-19.631s-8.789-19.632-19.631-19.632-19.631 8.789-19.631 19.632c0 10.842 8.789 19.631 19.631 19.631Z"/><path fill="#fff" stroke="#0055DC" stroke-width="2" d="M505 172h198v203H505z"/><g clip-path="url(#clip1_222_246)"><path fill="#0055DC" d="M530.031 158.65h-18.922a7.125 7.125 0 0 1-7.109-7.11 7.3 7.3 0 0 1 2.6-5.515 6.8 6.8 0 0 1 4.846-1.594 9.645 9.645 0 0 1 18.487 2.294 5.8 5.8 0 0 1 4 1.361 6.02 6.02 0 0 1 1.694 6.627 6.02 6.02 0 0 1-5.594 3.936zm-19.034-12.234a4.78 4.78 0 0 0-3.111 1.14 5.3 5.3 0 0 0-1.379 1.786 5.3 5.3 0 0 0-.507 2.198 5.12 5.12 0 0 0 5.095 5.11h18.935a3.974 3.974 0 0 0 3.97-3.971 4.06 4.06 0 0 0-1.364-3.071 4.15 4.15 0 0 0-3.457-.808l-1.127.181-.031-1.141a7.643 7.643 0 0 0-14.943-2.03l-.26.843-.868-.153a5.5 5.5 0 0 0-.953-.084"/></g><path fill="#222" d="M545.011 155v-11.636h4.591q1.325 0 2.256.505a3.43 3.43 0 0 1 1.42 1.392q.495.887.495 2.046t-.5 2.045a3.46 3.46 0 0 1-1.449 1.381q-.943.494-2.284.494h-2.926v-1.971h2.528q.711 0 1.17-.245.466-.249.694-.687a2.16 2.16 0 0 0 .233-1.017q0-.58-.233-1.012a1.56 1.56 0 0 0-.694-.676q-.465-.244-1.181-.244h-1.659V155zm10.138 0v-8.727h2.347v1.522h.091q.239-.811.801-1.227.563-.42 1.295-.42.182 0 .392.022a3 3 0 0 1 .37.063v2.148a3 3 0 0 0-.472-.091 4 4 0 0 0-.551-.04q-.534 0-.955.233a1.7 1.7 0 0 0-.659.636 1.84 1.84 0 0 0-.238.943V155zm6.371 0v-8.727h2.421V155zm1.216-9.852q-.54 0-.926-.358a1.16 1.16 0 0 1-.381-.87q0-.5.381-.858.387-.363.926-.363.54 0 .921.363.386.358.386.858 0 .506-.386.87a1.3 1.3 0 0 1-.921.358m11.104 1.125L570.789 155h-2.728l-3.051-8.727h2.557l1.813 6.244h.091l1.806-6.244zm3.317 8.892q-.835 0-1.489-.29a2.4 2.4 0 0 1-1.034-.869q-.375-.58-.375-1.444 0-.727.267-1.221.268-.495.727-.796.46-.3 1.046-.454a8 8 0 0 1 1.238-.216q.762-.08 1.228-.148.465-.073.676-.216a.47.47 0 0 0 .21-.42v-.034q0-.54-.341-.835-.334-.296-.954-.296-.654 0-1.04.29a1.33 1.33 0 0 0-.511.716l-2.239-.182q.17-.796.67-1.375.501-.585 1.29-.898.795-.318 1.841-.318.727 0 1.392.171.67.17 1.188.528.522.358.823.92.302.558.302 1.336V155h-2.296v-1.21h-.068q-.21.409-.563.721a2.6 2.6 0 0 1-.846.483 3.5 3.5 0 0 1-1.142.171m.693-1.671q.534 0 .943-.21a1.67 1.67 0 0 0 .642-.579q.233-.365.233-.824v-.926q-.114.073-.312.136a6 6 0 0 1-.438.108 22 22 0 0 1-.488.085l-.444.063a3 3 0 0 0-.744.198 1.2 1.2 0 0 0-.494.37.9.9 0 0 0-.176.568q0 .493.358.756.363.255.92.255m10.565-7.221v1.818h-5.255v-1.818zm-4.062-2.091h2.42v8.136q0 .336.103.523a.57.57 0 0 0 .284.256q.188.073.432.073.17 0 .34-.028l.262-.051.381 1.801a7 7 0 0 1-.512.131q-.33.08-.801.096-.875.034-1.534-.233a2.14 2.14 0 0 1-1.017-.829q-.364-.563-.358-1.421zm9.347 10.988q-1.347 0-2.318-.545a3.73 3.73 0 0 1-1.489-1.557q-.523-1.01-.523-2.392 0-1.346.523-2.364a3.86 3.86 0 0 1 1.471-1.585q.955-.568 2.239-.568.864 0 1.608.279.75.272 1.307.823.563.552.875 1.387.312.829.312 1.943v.665h-7.369v-1.5h5.091q0-.524-.227-.926a1.63 1.63 0 0 0-.631-.631 1.8 1.8 0 0 0-.926-.233q-.552 0-.977.256-.421.25-.659.676-.24.42-.245.937v1.426q0 .648.239 1.12.245.471.687.727.444.255 1.051.256.404 0 .739-.114.336-.113.574-.341.238-.227.364-.557l2.238.148a3.04 3.04 0 0 1-.699 1.409q-.522.596-1.352.932-.824.33-1.903.329m11.356-5.215V155h-2.42v-8.727h2.307v1.539h.102q.29-.761.972-1.204.681-.449 1.653-.449.91 0 1.585.398.676.398 1.051 1.136.375.733.375 1.75V155h-2.42v-5.125q.005-.801-.409-1.25-.415-.455-1.142-.455-.489 0-.864.211-.369.21-.579.613-.205.398-.211.961m11.334 5.215q-1.346 0-2.318-.545a3.73 3.73 0 0 1-1.488-1.557q-.523-1.01-.523-2.392 0-1.346.523-2.364a3.86 3.86 0 0 1 1.471-1.585q.955-.568 2.239-.568.864 0 1.608.279.75.272 1.307.823.562.552.875 1.387.312.829.312 1.943v.665h-7.369v-1.5h5.091q0-.524-.228-.926a1.6 1.6 0 0 0-.63-.631 1.8 1.8 0 0 0-.926-.233q-.552 0-.978.256-.42.25-.659.676-.238.42-.244.937v1.426q0 .648.239 1.12.244.471.687.727.444.255 1.051.256.403 0 .739-.114.335-.113.574-.341.238-.227.363-.557l2.239.148a3.06 3.06 0 0 1-.699 1.409q-.522.596-1.352.932-.824.33-1.904.329m10.052-8.897v1.818h-5.256v-1.818zm-4.063-2.091h2.421v8.136q0 .336.102.523a.57.57 0 0 0 .284.256q.188.073.432.073.17 0 .341-.028l.261-.051.381 1.801a7 7 0 0 1-.512.131 4 4 0 0 1-.801.096q-.874.034-1.534-.233a2.15 2.15 0 0 1-1.017-.829q-.363-.563-.358-1.421zM629.564 155l-2.375-8.727h2.449l1.352 5.863h.08l1.409-5.863h2.403l1.432 5.829h.074l1.329-5.829h2.444l-2.37 8.727h-2.562l-1.5-5.489h-.108l-1.5 5.489zm15.436.17q-1.323 0-2.29-.562a3.85 3.85 0 0 1-1.483-1.58q-.522-1.017-.522-2.358 0-1.352.522-2.363a3.8 3.8 0 0 1 1.483-1.58q.966-.568 2.29-.568t2.284.568q.966.563 1.489 1.58.522 1.011.523 2.363 0 1.341-.523 2.358a3.84 3.84 0 0 1-1.489 1.58q-.96.562-2.284.562m.012-1.875q.601 0 1.005-.34.404-.347.608-.944.21-.596.21-1.358 0-.76-.21-1.358-.204-.596-.608-.943-.404-.346-1.005-.346-.609 0-1.023.346-.41.347-.619.943a4.2 4.2 0 0 0-.205 1.358q0 .762.205 1.358.21.597.619.944.414.34 1.023.34m5.682 1.705v-8.727h2.346v1.522h.091q.239-.811.801-1.227.563-.42 1.296-.42.182 0 .392.022.21.023.369.063v2.148a3 3 0 0 0-.472-.091q-.3-.04-.551-.04-.534 0-.954.233a1.7 1.7 0 0 0-.659.636 1.84 1.84 0 0 0-.239.943V155zm8.564-2.511.005-2.904h.353l2.795-3.312h2.778l-3.755 4.386h-.574zM657.064 155v-11.636h2.421V155zm5.455 0-2.568-3.801 1.613-1.71 3.79 5.511zm-546.76 188v-8.727h5.88v1.521h-4.035v2.08h3.733v1.521h-3.733v2.084h4.052V343zm9.128-3.784V343h-1.815v-6.545h1.73v1.154h.077a1.83 1.83 0 0 1 .729-.903q.511-.337 1.24-.337.681 0 1.189.299.506.298.788.852.28.55.281 1.312V343h-1.815v-3.844q.004-.6-.307-.937-.31-.341-.857-.341-.366 0-.647.158-.278.157-.435.46a1.6 1.6 0 0 0-.158.72m8.062 3.891q-.746 0-1.351-.384-.601-.388-.955-1.138-.348-.754-.349-1.849 0-1.125.362-1.871.363-.75.963-1.121a2.47 2.47 0 0 1 1.326-.375q.549 0 .916.188.37.183.596.46.23.273.35.537h.055v-3.281h1.811V343h-1.789v-1.048h-.077a2.3 2.3 0 0 1-.362.541 1.8 1.8 0 0 1-.601.439q-.367.175-.895.175m.575-1.445q.44 0 .742-.239.306-.242.468-.677.167-.435.167-1.019t-.162-1.014a1.47 1.47 0 0 0-.469-.665 1.2 1.2 0 0 0-.746-.234q-.448 0-.754.243a1.5 1.5 0 0 0-.465.673 2.9 2.9 0 0 0-.157.997q0 .572.157 1.01.162.435.465.682.306.243.754.243m11.617-1.449v-3.758h1.815V343h-1.743v-1.189h-.068a1.94 1.94 0 0 1-.737.925q-.511.35-1.249.349-.656 0-1.155-.298a2.06 2.06 0 0 1-.78-.848q-.276-.55-.281-1.317v-4.167h1.816v3.843q.003.58.311.916.306.337.822.337.328 0 .614-.149.285-.153.46-.452.178-.298.175-.737m8.713-1.892-1.662.102a.85.85 0 0 0-.183-.383.96.96 0 0 0-.371-.277 1.3 1.3 0 0 0-.541-.107q-.422 0-.712.179-.29.175-.289.469 0 .234.187.396.188.162.643.26l1.185.239q.955.196 1.423.631.47.434.469 1.142 0 .643-.379 1.129-.375.486-1.031.758-.652.269-1.505.269-1.299 0-2.071-.541a2.1 2.1 0 0 1-.899-1.483l1.786-.094a.92.92 0 0 0 .392.605q.31.205.797.205.477 0 .767-.184.294-.187.298-.481a.5.5 0 0 0-.209-.405q-.204-.162-.63-.247l-1.134-.226q-.959-.191-1.428-.665-.464-.472-.464-1.206 0-.63.341-1.086.345-.456.967-.704.627-.246 1.466-.247 1.24 0 1.952.524.716.525.835 1.428m4.275 4.807q-1.01 0-1.738-.409a2.8 2.8 0 0 1-1.117-1.168q-.392-.759-.392-1.794 0-1.01.392-1.773a2.9 2.9 0 0 1 1.104-1.189q.716-.426 1.679-.426.648 0 1.206.209.562.204.98.618.422.413.656 1.04.235.622.235 1.457v.499h-5.527v-1.125h3.818q0-.393-.171-.695a1.2 1.2 0 0 0-.473-.473 1.35 1.35 0 0 0-.694-.175q-.414 0-.733.192a1.35 1.35 0 0 0-.495.507 1.44 1.44 0 0 0-.183.703v1.07q0 .486.179.84.183.353.516.545.332.192.788.192.303 0 .554-.085t.43-.256a1.1 1.1 0 0 0 .273-.418l1.679.111q-.128.605-.524 1.057a2.6 2.6 0 0 1-1.014.699q-.618.246-1.428.247m4.189-.128v-6.545h1.76v1.142h.068q.18-.61.601-.921a1.58 1.58 0 0 1 .972-.315 2.6 2.6 0 0 1 .571.064v1.611a3 3 0 0 0-.767-.098q-.4 0-.716.174a1.3 1.3 0 0 0-.495.477 1.4 1.4 0 0 0-.178.708V343z"/><path fill="#000" d="M572.03 198h-1.977l3.013-8.727h2.378l3.008 8.727h-1.977l-2.186-6.733h-.068zm-.123-3.43h4.67v1.44h-4.67zm7.562 5.885v-9h1.789v1.099h.081q.12-.264.345-.537.231-.277.597-.46.37-.188.921-.188.715 0 1.321.375.604.37.967 1.121.362.746.362 1.871 0 1.095-.354 1.849-.35.75-.954 1.138a2.45 2.45 0 0 1-1.347.384q-.528 0-.899-.175a1.9 1.9 0 0 1-.601-.439 2.3 2.3 0 0 1-.358-.541h-.055v3.503zm1.777-5.728q0 .584.161 1.019.162.434.469.677.307.239.746.239.442 0 .75-.243.307-.247.464-.682.162-.438.162-1.01 0-.567-.157-.997a1.5 1.5 0 0 0-.465-.673 1.18 1.18 0 0 0-.754-.243q-.442 0-.75.234a1.47 1.47 0 0 0-.465.665 2.9 2.9 0 0 0-.161 1.014m5.816 5.728v-9h1.79v1.099h.081q.12-.264.345-.537.231-.277.597-.46.37-.188.92-.188.717 0 1.321.375.606.37.968 1.121.362.746.362 1.871 0 1.095-.354 1.849-.35.75-.954 1.138a2.45 2.45 0 0 1-1.347.384q-.528 0-.899-.175a1.9 1.9 0 0 1-.601-.439 2.2 2.2 0 0 1-.358-.541h-.055v3.503zm1.777-5.728q0 .584.162 1.019t.469.677q.307.239.746.239.442 0 .75-.243.306-.247.464-.682.162-.438.162-1.01 0-.567-.158-.997a1.5 1.5 0 0 0-.464-.673 1.18 1.18 0 0 0-.754-.243q-.444 0-.75.234a1.47 1.47 0 0 0-.465.665 2.9 2.9 0 0 0-.162 1.014m7.632-5.454V198h-1.815v-8.727zm1.455 8.727v-6.545h1.815V198zm.912-7.389a1 1 0 0 1-.695-.269.87.87 0 0 1-.286-.652q0-.375.286-.643a.98.98 0 0 1 .695-.273q.404 0 .69.273.29.268.29.643a.86.86 0 0 1-.29.652.97.97 0 0 1-.69.269m5.315 7.517q-1.007 0-1.731-.426a2.9 2.9 0 0 1-1.108-1.193q-.383-.763-.383-1.756 0-1.006.388-1.764a2.9 2.9 0 0 1 1.112-1.189q.72-.43 1.713-.431.856 0 1.5.311.643.312 1.018.874t.414 1.321h-1.713q-.073-.49-.384-.788-.306-.303-.805-.303a1.22 1.22 0 0 0-.737.23q-.312.226-.486.661-.175.434-.175 1.052 0 .627.171 1.066.174.438.49.669.315.23.737.23a1.2 1.2 0 0 0 .558-.128q.251-.128.413-.371.167-.247.218-.592h1.713q-.043.75-.409 1.321a2.5 2.5 0 0 1-1.002.886q-.639.32-1.512.32m5.952-.004q-.627 0-1.117-.218a1.8 1.8 0 0 1-.775-.652q-.282-.435-.282-1.082 0-.546.201-.916.2-.37.545-.597.346-.225.784-.341a6 6 0 0 1 .929-.162q.571-.06.921-.111.35-.054.507-.161a.36.36 0 0 0 .157-.316v-.025q0-.405-.255-.627-.252-.221-.716-.221-.49 0-.78.217a1 1 0 0 0-.384.537l-1.679-.137q.129-.596.503-1.031.375-.439.968-.673.596-.239 1.38-.239.546 0 1.044.128.503.127.891.396.391.269.618.691.225.417.226 1.001V198h-1.722v-.908h-.051a1.9 1.9 0 0 1-.422.542 2 2 0 0 1-.635.362 2.6 2.6 0 0 1-.856.128m.519-1.253q.401 0 .708-.158.306-.162.481-.435.175-.272.175-.617v-.695a1 1 0 0 1-.234.102 4 4 0 0 1-.328.081 17 17 0 0 1-.367.064l-.332.047a2.2 2.2 0 0 0-.558.149.9.9 0 0 0-.371.277.68.68 0 0 0-.132.426q0 .37.268.567.273.192.69.192m8.057-5.416v1.363h-3.942v-1.363zm-3.047-1.569h1.815v6.103a.8.8 0 0 0 .077.392.42.42 0 0 0 .213.191.9.9 0 0 0 .324.056q.127 0 .255-.021l.196-.039.286 1.351a5 5 0 0 1-.384.098q-.247.06-.6.072-.657.026-1.151-.174a1.6 1.6 0 0 1-.763-.622q-.273-.423-.268-1.066zm4.229 8.114v-6.545h1.815V198zm.912-7.389a1 1 0 0 1-.695-.269.87.87 0 0 1-.285-.652q0-.375.285-.643a.98.98 0 0 1 .695-.273q.405 0 .69.273.29.268.29.643a.86.86 0 0 1-.29.652.97.97 0 0 1-.69.269m5.315 7.517q-.993 0-1.717-.422a2.9 2.9 0 0 1-1.113-1.185q-.392-.763-.392-1.768 0-1.014.392-1.773a2.87 2.87 0 0 1 1.113-1.185q.724-.426 1.717-.426t1.713.426q.724.423 1.117 1.185.392.759.392 1.773 0 1.005-.392 1.768a2.9 2.9 0 0 1-1.117 1.185q-.72.422-1.713.422m.009-1.406q.451 0 .754-.256.302-.26.456-.707.157-.448.157-1.019t-.157-1.018a1.6 1.6 0 0 0-.456-.708 1.12 1.12 0 0 0-.754-.26q-.456 0-.768.26a1.6 1.6 0 0 0-.464.708 3.1 3.1 0 0 0-.153 1.018q0 .571.153 1.019a1.6 1.6 0 0 0 .464.707q.312.256.768.256m6.208-2.506V198h-1.815v-6.545h1.73v1.154h.077a1.83 1.83 0 0 1 .729-.903q.51-.337 1.24-.337.681 0 1.188.299.508.298.789.852.28.55.281 1.312V198h-1.815v-3.844q.004-.6-.307-.937-.31-.341-.857-.341-.366 0-.647.158-.278.157-.435.46a1.6 1.6 0 0 0-.158.72"/><path fill="#fff" stroke="#0055DC" stroke-miterlimit="10" stroke-width="1.5" d="M591.672 318.964v3.41l76.224-.004-.001-3.41z"/><path fill="#C5EBF5" stroke="#0055DC" stroke-miterlimit="10" stroke-width="1.5" d="M672.568 296.459H587v22.502h85.568z"/><path fill="#fff" d="M668.872 315.527v-15.634h-78.176v15.634z"/><path fill="#0055DC" d="M597.041 306.011a1.59 1.59 0 1 0 0-3.178 1.59 1.59 0 0 0 0 3.178"/><path stroke="#0055DC" stroke-miterlimit="10" stroke-width="1.5" d="M603.444 309.563h-8.182m30.199 2.67h-30.199m41.032 0h-7.155"/><path fill="#fff" stroke="#0055DC" stroke-miterlimit="10" stroke-width="1.5" d="M591.672 293.003v3.41l76.224-.004-.001-3.41z"/><path fill="#C5EBF5" stroke="#0055DC" stroke-miterlimit="10" stroke-width="1.5" d="M672.568 275H587v18h85.568z"/><path fill="#fff" d="M668.872 289.566v-11.132h-78.176v11.132z"/><path fill="#0055DC" d="M597.041 285.081a1.059 1.059 0 1 0 0-2.118 1.059 1.059 0 0 0 0 2.118m3.84 0a1.06 1.06 0 1 0 0-2.12 1.06 1.06 0 0 0 0 2.12m5.46 1.325a2.384 2.384 0 1 0 0-4.768 2.384 2.384 0 0 0 0 4.768"/><path stroke="#0055DC" stroke-miterlimit="10" stroke-width="1.5" d="M663.778 286.272h-24.903m-2.581 0h-7.155"/><path stroke="#6ECCE5" stroke-miterlimit="10" stroke-width="1.5" d="M663.888 283.47h-7.155m7.155-2.361h-7.155"/><path fill="#fff" d="M645 219.612h-94v61.731h94z"/><path fill="#0055DC" stroke="#0055DC" stroke-miterlimit="10" stroke-width="1.5" d="M645 215.403h-94v7.015h94z"/><path fill="#fff" d="M555.349 220.167a1.823 1.823 0 1 0 0-3.646 1.823 1.823 0 0 0 0 3.646m5.895 0a1.823 1.823 0 1 0 0-3.646 1.823 1.823 0 0 0 0 3.646m5.897 0a1.823 1.823 0 1 0 0-3.646 1.823 1.823 0 0 0 0 3.646"/><path fill="#E2F5FA" d="M605.617 228.936H556.6v19.84h49.017zm-21.008 23.342H556.6v24.508h28.009zm54.853-23.342h-30.344v19.84h30.344zm-.001 23.342H588.11v24.508h51.351z"/><path stroke="#0055DC" stroke-miterlimit="10" stroke-width="1.5" d="M645 214h-94v8.418h94z"/><path stroke="#0055DC" stroke-miterlimit="10" stroke-width="1.5" d="M645 214h-94v67.343h94z"/><path fill="#E2F5FA" stroke="#F6821F" stroke-width="2" d="M494 271h108v44H494z"/><path fill="#222" d="M535.446 282.794v-1.521h7.167v1.521h-2.672V290h-1.823v-7.206zm11.62 4.419v-3.758h1.816V290h-1.743v-1.189h-.068a1.93 1.93 0 0 1-.738.925q-.51.35-1.248.349-.657 0-1.155-.298a2.06 2.06 0 0 1-.78-.848q-.276-.55-.281-1.317v-4.167h1.815v3.843q.005.58.311.916.307.337.823.337.328 0 .613-.149a1.17 1.17 0 0 0 .461-.452q.179-.298.174-.737m5.083-.997V290h-1.815v-6.545h1.73v1.154h.077q.217-.57.728-.903.512-.337 1.24-.337.682 0 1.189.299.507.298.789.852.28.55.281 1.312V290h-1.815v-3.844q.003-.6-.307-.937-.312-.341-.857-.341-.366 0-.648.158a1.1 1.1 0 0 0-.434.46 1.6 1.6 0 0 0-.158.72m7.465 0V290h-1.815v-6.545h1.73v1.154h.076a1.83 1.83 0 0 1 .729-.903q.511-.337 1.24-.337.682 0 1.189.299.507.298.788.852.282.55.282 1.312V290h-1.816v-3.844q.005-.6-.306-.937-.312-.341-.857-.341-.366 0-.648.158a1.1 1.1 0 0 0-.434.46 1.6 1.6 0 0 0-.158.72m8.632 3.912q-1.01 0-1.738-.409a2.8 2.8 0 0 1-1.117-1.168q-.392-.759-.392-1.794 0-1.01.392-1.773.393-.762 1.104-1.189.716-.426 1.679-.426.648 0 1.206.209.563.204.98.618.422.413.656 1.04.235.622.235 1.457v.499h-5.527v-1.125h3.818q0-.393-.171-.695a1.2 1.2 0 0 0-.473-.473 1.35 1.35 0 0 0-.694-.175q-.414 0-.733.192-.315.188-.494.507a1.43 1.43 0 0 0-.184.703v1.07q0 .486.179.84.183.353.516.545.332.192.788.192.303 0 .554-.085t.431-.256a1.1 1.1 0 0 0 .272-.418l1.679.111q-.128.605-.524 1.057a2.6 2.6 0 0 1-1.014.699q-.618.247-1.428.247m6.005-8.855V290h-1.816v-8.727zm-41.988 17.055h-1.866a1.8 1.8 0 0 0-.209-.643 1.6 1.6 0 0 0-.405-.486 1.8 1.8 0 0 0-.571-.307 2.2 2.2 0 0 0-.694-.106q-.678 0-1.181.336-.503.333-.779.972-.277.635-.277 1.542 0 .934.277 1.569.28.634.784.958a2.1 2.1 0 0 0 1.163.324q.37 0 .686-.098a1.8 1.8 0 0 0 .567-.285q.247-.192.409-.465.166-.273.23-.622l1.866.009q-.072.6-.362 1.159-.285.554-.771.993a3.7 3.7 0 0 1-1.151.69 4.2 4.2 0 0 1-1.504.251q-1.167 0-2.088-.528-.917-.528-1.449-1.53-.528-1.002-.528-2.425 0-1.427.537-2.429.536-1.001 1.457-1.525.92-.529 2.071-.529.76 0 1.406.213.653.214 1.155.623.503.404.818.993.32.587.409 1.346m4.247 5.8q-.993 0-1.717-.422a2.9 2.9 0 0 1-1.113-1.185q-.392-.762-.392-1.768 0-1.014.392-1.773a2.87 2.87 0 0 1 1.113-1.185q.724-.426 1.717-.426t1.713.426a2.85 2.85 0 0 1 1.116 1.185q.393.759.393 1.773 0 1.006-.393 1.768a2.87 2.87 0 0 1-1.116 1.185q-.72.422-1.713.422m.008-1.406q.452 0 .755-.256.301-.26.456-.707.157-.448.157-1.019t-.157-1.018a1.6 1.6 0 0 0-.456-.708 1.12 1.12 0 0 0-.755-.26q-.455 0-.767.26a1.6 1.6 0 0 0-.464.708 3.1 3.1 0 0 0-.153 1.018q0 .571.153 1.019a1.6 1.6 0 0 0 .464.707q.312.255.767.256m6.209-2.506V304h-1.815v-6.545h1.73v1.154h.077q.218-.57.728-.903.512-.337 1.241-.337.681 0 1.188.299.507.298.789.852.28.55.281 1.312V304h-1.815v-3.844q.004-.6-.307-.937-.312-.341-.857-.341-.366 0-.647.158-.278.157-.435.46a1.6 1.6 0 0 0-.158.72m7.465 0V304h-1.815v-6.545h1.73v1.154h.077q.216-.57.728-.903.512-.337 1.24-.337.682 0 1.189.299.507.298.789.852.28.55.281 1.312V304h-1.815v-3.844q.003-.6-.307-.937-.312-.341-.857-.341-.366 0-.648.158a1.1 1.1 0 0 0-.434.46 1.6 1.6 0 0 0-.158.72m8.633 3.912q-1.01 0-1.739-.409a2.8 2.8 0 0 1-1.117-1.168q-.392-.759-.392-1.794 0-1.01.392-1.773.393-.762 1.104-1.189.716-.426 1.679-.426.648 0 1.206.209.563.204.98.618.422.413.656 1.04.235.622.235 1.457v.499h-5.527v-1.125h3.818q0-.393-.17-.695a1.23 1.23 0 0 0-.473-.473 1.36 1.36 0 0 0-.695-.175q-.414 0-.733.192-.315.188-.494.507a1.43 1.43 0 0 0-.184.703v1.07q0 .486.179.84.184.353.516.545t.788.192q.303 0 .554-.085t.431-.256q.179-.17.273-.418l1.678.111a2.3 2.3 0 0 1-.524 1.057 2.6 2.6 0 0 1-1.014.699q-.618.247-1.427.247m7.146 0q-1.006 0-1.73-.426a2.9 2.9 0 0 1-1.108-1.193q-.384-.763-.384-1.756 0-1.007.388-1.764a2.9 2.9 0 0 1 1.112-1.189q.72-.43 1.713-.431.857 0 1.5.311.644.312 1.019.874t.413 1.321h-1.713a1.32 1.32 0 0 0-.383-.788q-.307-.303-.806-.303a1.22 1.22 0 0 0-.737.23q-.31.226-.486.661-.174.434-.175 1.052 0 .627.171 1.066.174.438.49.669.315.23.737.23.312 0 .558-.128.252-.128.414-.371.166-.247.217-.592h1.713q-.043.75-.409 1.321a2.47 2.47 0 0 1-1.001.886q-.64.32-1.513.32m7.567-6.673v1.363h-3.942v-1.363zm-3.047-1.569h1.815v6.103a.8.8 0 0 0 .077.392.42.42 0 0 0 .213.191.9.9 0 0 0 .324.056q.128 0 .256-.021l.196-.039.285 1.351a5 5 0 0 1-.383.098q-.247.06-.601.072-.657.026-1.151-.174a1.6 1.6 0 0 1-.762-.622q-.273-.423-.269-1.066zm7.117 8.242q-.993 0-1.718-.422a2.9 2.9 0 0 1-1.112-1.185q-.392-.762-.392-1.768 0-1.014.392-1.773a2.86 2.86 0 0 1 1.112-1.185q.725-.426 1.718-.426t1.713.426a2.85 2.85 0 0 1 1.116 1.185q.392.759.392 1.773 0 1.006-.392 1.768a2.87 2.87 0 0 1-1.116 1.185q-.72.422-1.713.422m.008-1.406q.452 0 .754-.256a1.6 1.6 0 0 0 .456-.707q.158-.448.158-1.019t-.158-1.018a1.6 1.6 0 0 0-.456-.708 1.12 1.12 0 0 0-.754-.26q-.456 0-.767.26a1.6 1.6 0 0 0-.464.708 3.1 3.1 0 0 0-.154 1.018q0 .571.154 1.019a1.6 1.6 0 0 0 .464.707q.31.255.767.256M582.01 304v-6.545h1.76v1.142h.068q.178-.61.601-.921a1.58 1.58 0 0 1 .971-.315 2.6 2.6 0 0 1 .571.064v1.611a3 3 0 0 0-.767-.098q-.4 0-.716.174a1.3 1.3 0 0 0-.494.477 1.4 1.4 0 0 0-.179.708V304z"/><path fill="#F6821F" d="M508.755 295.511h-4.322l-.633-1.328 7.75-13.71 1.341.643-1.602 9.254h4.321l.634 1.328-7.75 13.711-1.341-.643z"/><path fill="#E2F5FA" stroke="#0055DC" stroke-width="2" d="M494 305H386v-24h108z"/><path fill="#E2F5FA" d="M385 282h113v22H385z"/><path fill="#757575" d="M396.293 292.293a1 1 0 0 0 0 1.414l6.364 6.364a.999.999 0 1 0 1.414-1.414L398.414 293l5.657-5.657a.999.999 0 1 0-1.414-1.414zm94.414 1.414a1 1 0 0 0 0-1.414l-6.364-6.364a.999.999 0 1 0-1.414 1.414l5.657 5.657-5.657 5.657a.999.999 0 1 0 1.414 1.414zM397 294h93v-2h-93zm-190.707-3.707a1 1 0 0 0 0 1.414l6.364 6.364a.999.999 0 1 0 1.414-1.414L208.414 291l5.657-5.657a.999.999 0 1 0-1.414-1.414zm81.414 1.414a1 1 0 0 0 0-1.414l-6.364-6.364a.999.999 0 1 0-1.414 1.414l5.657 5.657-5.657 5.657a.999.999 0 1 0 1.414 1.414zM207 292h80v-2h-80z"/><ellipse cx="343.5" cy="292" fill="#fff" rx="44.5" ry="45"/><circle cx="343.489" cy="291.889" r="44.889" stroke="#F6821F" stroke-width="2"/><rect width="74.296" height="35.837" x="306.341" y="328.163" fill="#fff" rx="17.919"/><path fill="#222" d="M321.693 341.728h-1.866a1.8 1.8 0 0 0-.209-.643 1.6 1.6 0 0 0-.405-.486 1.8 1.8 0 0 0-.571-.307 2.2 2.2 0 0 0-.694-.107q-.678 0-1.181.337-.503.333-.78.972-.276.635-.277 1.542 0 .933.277 1.568.282.635.784.959.503.324 1.164.324.37 0 .686-.098a1.8 1.8 0 0 0 .567-.285 1.7 1.7 0 0 0 .409-.465q.166-.273.23-.622l1.866.008a3.47 3.47 0 0 1-1.133 2.152 3.6 3.6 0 0 1-1.151.691 4.2 4.2 0 0 1-1.504.251q-1.167 0-2.088-.528-.916-.528-1.449-1.53-.528-1.002-.528-2.425 0-1.427.537-2.429.536-1.001 1.457-1.525.92-.53 2.071-.529.759 0 1.406.213.652.213 1.155.623.503.404.818.992.32.588.409 1.347m3.105-3.055v8.727h-1.816v-8.727zm4.411 8.855q-.993 0-1.717-.422a2.9 2.9 0 0 1-1.112-1.185q-.393-.762-.392-1.768 0-1.014.392-1.773a2.85 2.85 0 0 1 1.112-1.185q.724-.426 1.717-.426t1.713.426q.724.422 1.117 1.185.392.759.392 1.773 0 1.005-.392 1.768a2.9 2.9 0 0 1-1.117 1.185q-.72.422-1.713.422m.009-1.407q.451 0 .754-.255.303-.26.456-.708.158-.447.158-1.018t-.158-1.019a1.6 1.6 0 0 0-.456-.707 1.12 1.12 0 0 0-.754-.26q-.456 0-.767.26-.308.26-.465.707a3.2 3.2 0 0 0-.153 1.019q0 .571.153 1.018.158.449.465.708.31.255.767.255m8.591-1.508v-3.759h1.815v6.546h-1.743v-1.189h-.068a1.93 1.93 0 0 1-.737.925q-.511.35-1.249.349-.656 0-1.155-.298a2.05 2.05 0 0 1-.779-.848q-.277-.55-.282-1.317v-4.168h1.816v3.844q.003.58.311.916.306.337.822.337.328 0 .614-.149.285-.153.46-.452.179-.298.175-.737m5.679 2.893a2.47 2.47 0 0 1-1.351-.383q-.6-.388-.954-1.138-.35-.754-.35-1.849 0-1.125.362-1.871.363-.75.964-1.121.605-.375 1.325-.375.55 0 .916.188.37.183.597.46.23.273.349.537h.055v-3.281h1.812v8.727h-1.79v-1.048h-.077a2.4 2.4 0 0 1-.362.541 1.8 1.8 0 0 1-.601.439q-.367.174-.895.174m.575-1.444q.44 0 .742-.239a1.5 1.5 0 0 0 .469-.677q.165-.435.166-1.019 0-.584-.162-1.014a1.45 1.45 0 0 0-.469-.665 1.2 1.2 0 0 0-.746-.234q-.447 0-.754.243a1.5 1.5 0 0 0-.464.673 2.9 2.9 0 0 0-.158.997q0 .572.158 1.01.162.435.464.682.307.243.754.243m8.162-5.208v1.364h-4.04v-1.364zm-3.115 6.546v-7.019q0-.71.277-1.18.28-.469.767-.703a2.5 2.5 0 0 1 1.104-.234q.417 0 .762.063.35.064.52.116l-.324 1.363a2 2 0 0 0-.264-.064 1.6 1.6 0 0 0-.315-.03q-.4 0-.558.188-.158.183-.158.516v6.984zm6.039-8.727v8.727h-1.815v-8.727zm3.321 8.85q-.627 0-1.117-.217a1.8 1.8 0 0 1-.775-.652q-.281-.434-.281-1.082 0-.546.2-.916.2-.371.545-.597t.784-.341q.444-.115.929-.162.572-.06.921-.111.35-.055.507-.162a.36.36 0 0 0 .158-.315v-.025q0-.405-.256-.627-.252-.222-.716-.221-.49 0-.78.217a1 1 0 0 0-.383.537l-1.679-.137q.128-.596.503-1.031.375-.439.967-.673.597-.239 1.381-.239.545 0 1.044.128.503.127.89.396.393.268.618.691.226.417.226 1.001v4.415h-1.722v-.908h-.051a1.82 1.82 0 0 1-1.057.904 2.6 2.6 0 0 1-.856.127m.52-1.252q.4 0 .707-.158.307-.162.482-.435.174-.272.174-.618v-.694a1 1 0 0 1-.234.102 5 5 0 0 1-.328.081q-.183.034-.366.064l-.333.047a2.2 2.2 0 0 0-.558.149.9.9 0 0 0-.371.277.68.68 0 0 0-.132.426q0 .37.269.567.272.192.69.192m4.574 1.129v-6.546h1.76v1.142h.069q.179-.61.6-.92.423-.315.972-.315a2.6 2.6 0 0 1 .571.064v1.61a2.5 2.5 0 0 0-.354-.068q-.225-.03-.413-.03-.4 0-.716.175a1.3 1.3 0 0 0-.494.477q-.18.307-.179.708v3.703zm7.589.128q-1.01 0-1.739-.409a2.8 2.8 0 0 1-1.116-1.168q-.392-.759-.392-1.794 0-1.01.392-1.773a2.9 2.9 0 0 1 1.103-1.189q.716-.426 1.679-.426.648 0 1.206.209.563.204.98.618.422.413.657 1.04.234.621.234 1.457v.499h-5.527v-1.125h3.818q0-.392-.17-.695a1.2 1.2 0 0 0-.473-.473 1.36 1.36 0 0 0-.695-.175q-.413 0-.733.192-.315.187-.494.507-.179.315-.183.703v1.07q0 .486.179.839.183.354.515.546.333.192.789.192.302 0 .554-.086.251-.085.43-.255.178-.17.273-.418l1.679.111q-.128.605-.524 1.057-.393.447-1.015.699-.618.247-1.427.247"/><path fill="#F38020" d="M355.438 301.586c.384-1.319.238-2.528-.403-3.425-.586-.824-1.575-1.301-2.765-1.356l-22.542-.293a.42.42 0 0 1-.348-.183.5.5 0 0 1-.055-.403.62.62 0 0 1 .531-.403l22.743-.293c2.692-.128 5.622-2.308 6.648-4.982l1.3-3.388a.73.73 0 0 0 .036-.44c-1.465-6.63-7.379-11.576-14.448-11.576-6.519 0-12.049 4.213-14.027 10.056a6.73 6.73 0 0 0-4.669-1.3 6.67 6.67 0 0 0-5.952 5.952 7 7 0 0 0 .165 2.326 9.463 9.463 0 0 0-9.193 9.47c0 .458.037.916.092 1.374a.45.45 0 0 0 .439.384h41.605a.57.57 0 0 0 .531-.403z"/><path fill="#FAAE40" d="M362.616 287.098c-.201 0-.421 0-.623.018-.146 0-.274.11-.329.257l-.879 3.058c-.385 1.319-.238 2.528.403 3.426.586.824 1.575 1.3 2.765 1.355l4.798.293c.146 0 .274.073.348.183s.091.275.054.403a.62.62 0 0 1-.531.403l-4.999.293c-2.71.128-5.622 2.308-6.647 4.982l-.366.934c-.074.183.055.367.256.367h17.177a.45.45 0 0 0 .439-.33c.293-1.062.458-2.18.458-3.334 0-6.777-5.53-12.308-12.324-12.308"/><circle cx="343.489" cy="142.889" r="44.889" stroke="#6ECCE5" stroke-width="2"/><rect width="74.296" height="35.837" x="306.341" y="179.163" fill="#fff" rx="17.919"/><path fill="#222" d="M297.744 189.673v8.727h-1.845v-8.727zm3.896 8.833q-.745 0-1.35-.383-.601-.388-.955-1.138-.35-.754-.349-1.849 0-1.125.362-1.871.362-.75.963-1.121.605-.375 1.325-.375.55 0 .916.188.371.183.597.46.23.273.349.537h.056v-3.281h1.811v8.727h-1.79v-1.048h-.077a2.4 2.4 0 0 1-.362.541 1.8 1.8 0 0 1-.601.439q-.366.174-.895.174m.576-1.444q.438 0 .741-.239.307-.243.469-.677.166-.435.166-1.019t-.162-1.014a1.45 1.45 0 0 0-.469-.665 1.2 1.2 0 0 0-.745-.234q-.448 0-.755.243a1.5 1.5 0 0 0-.464.673 2.9 2.9 0 0 0-.158.997q0 .572.158 1.01.162.435.464.682.307.243.755.243m7.624 1.466q-1.01 0-1.738-.409a2.8 2.8 0 0 1-1.117-1.168q-.392-.759-.392-1.794 0-1.01.392-1.773a2.9 2.9 0 0 1 1.104-1.189q.716-.426 1.679-.426.648 0 1.206.209.563.204.98.618.422.413.656 1.04.235.621.235 1.457v.499h-5.527v-1.125h3.818q0-.393-.171-.695a1.2 1.2 0 0 0-.473-.473 1.35 1.35 0 0 0-.694-.175q-.414 0-.733.192-.315.188-.495.507-.179.316-.183.703v1.07q0 .486.179.839.183.354.516.546.332.192.788.192.303 0 .554-.086a1.15 1.15 0 0 0 .431-.255 1.1 1.1 0 0 0 .272-.418l1.679.111q-.128.605-.524 1.057a2.6 2.6 0 0 1-1.014.699q-.618.247-1.428.247m6.005-3.912v3.784h-1.816v-6.546h1.73v1.155h.077q.217-.57.729-.903.511-.337 1.24-.337.681 0 1.189.299.507.297.788.852.281.55.281 1.312v4.168h-1.815v-3.844q.005-.6-.307-.937-.311-.342-.856-.341a1.3 1.3 0 0 0-.648.157q-.277.159-.435.461a1.6 1.6 0 0 0-.157.72m9.131-2.762v1.364h-3.942v-1.364zm-3.047-1.568h1.815v6.103a.8.8 0 0 0 .077.392q.077.135.213.191a.9.9 0 0 0 .324.056q.127 0 .255-.022l.196-.038.286 1.351a5 5 0 0 1-.384.098q-.247.06-.6.072-.657.025-1.151-.174a1.6 1.6 0 0 1-.763-.622q-.273-.423-.268-1.066zm4.229 8.114v-6.546h1.816v6.546zm.912-7.389a1 1 0 0 1-.694-.269.87.87 0 0 1-.286-.652.85.85 0 0 1 .286-.643.98.98 0 0 1 .694-.273q.405 0 .69.273.29.268.29.643 0 .38-.29.652a.97.97 0 0 1-.69.269m5.839.843v1.364h-3.942v-1.364zm-3.047-1.568h1.816v6.103q0 .25.076.392.078.135.213.191a.9.9 0 0 0 .324.056q.129 0 .256-.022l.196-.038.286 1.351a5 5 0 0 1-.384.098q-.247.06-.601.072-.656.025-1.15-.174a1.6 1.6 0 0 1-.763-.622q-.273-.423-.269-1.066zm5.351 10.568q-.346 0-.648-.055a2.4 2.4 0 0 1-.495-.132l.41-1.355q.319.098.575.106a.73.73 0 0 0 .447-.119q.192-.127.311-.435l.107-.277-2.348-6.733h1.909l1.355 4.807h.068l1.368-4.807h1.922l-2.544 7.253a3 3 0 0 1-.499.921q-.31.396-.788.609-.478.217-1.15.217m8.721-2.454v-8.727h3.444q.993 0 1.691.379.699.375 1.066 1.044.37.664.37 1.534t-.375 1.534-1.086 1.036q-.708.37-1.713.37h-2.195v-1.478h1.896q.534 0 .878-.184.35-.187.52-.515a1.6 1.6 0 0 0 .175-.763q0-.435-.175-.759a1.17 1.17 0 0 0-.52-.507q-.35-.183-.886-.183h-1.244v7.219zm7.736 0v-6.546h1.76v1.142h.068q.179-.61.601-.92a1.58 1.58 0 0 1 .971-.315 2.6 2.6 0 0 1 .571.064v1.61a2.5 2.5 0 0 0-.353-.068 3 3 0 0 0-.414-.03q-.4 0-.715.175a1.3 1.3 0 0 0-.495.477 1.4 1.4 0 0 0-.179.708v3.703zm7.563.128q-.993 0-1.718-.422a2.9 2.9 0 0 1-1.112-1.185q-.392-.763-.392-1.768 0-1.014.392-1.773a2.86 2.86 0 0 1 1.112-1.185q.725-.426 1.718-.426t1.713.426q.725.422 1.116 1.185.393.759.392 1.773 0 1.005-.392 1.768a2.87 2.87 0 0 1-1.116 1.185q-.72.422-1.713.422m.008-1.407q.452 0 .755-.255.302-.26.455-.708.159-.447.158-1.018 0-.571-.158-1.019a1.6 1.6 0 0 0-.455-.707 1.12 1.12 0 0 0-.755-.26q-.455 0-.767.26a1.6 1.6 0 0 0-.464.707 3.1 3.1 0 0 0-.154 1.019q0 .571.154 1.018.158.448.464.708.312.255.767.255m10.285-5.267-2.288 6.546h-2.046l-2.288-6.546h1.918l1.359 4.684h.068l1.355-4.684zm.929 6.546v-6.546h1.815v6.546zm.912-7.389a1 1 0 0 1-.695-.269.87.87 0 0 1-.285-.652q0-.375.285-.643a.98.98 0 0 1 .695-.273q.405 0 .69.273.29.268.29.643 0 .38-.29.652a.97.97 0 0 1-.69.269m4.77 7.495q-.747 0-1.351-.383-.601-.388-.955-1.138-.35-.754-.349-1.849 0-1.125.362-1.871.361-.75.963-1.121.605-.375 1.325-.375.55 0 .916.188.371.183.597.46.23.273.349.537h.056v-3.281h1.811v8.727h-1.79v-1.048h-.077a2.4 2.4 0 0 1-.362.541 1.8 1.8 0 0 1-.601.439q-.366.174-.894.174m.575-1.444q.439 0 .741-.239.307-.243.469-.677.166-.435.166-1.019t-.162-1.014a1.46 1.46 0 0 0-.468-.665 1.2 1.2 0 0 0-.746-.234q-.448 0-.754.243-.308.243-.465.673a2.9 2.9 0 0 0-.158.997q0 .572.158 1.01.162.435.465.682.306.243.754.243m7.624 1.466q-1.01 0-1.738-.409a2.8 2.8 0 0 1-1.117-1.168q-.392-.759-.392-1.794 0-1.01.392-1.773.393-.763 1.104-1.189.716-.426 1.679-.426.648 0 1.206.209.563.204.98.618.422.413.656 1.04.235.621.235 1.457v.499h-5.527v-1.125h3.818q0-.393-.171-.695a1.2 1.2 0 0 0-.473-.473 1.35 1.35 0 0 0-.694-.175q-.414 0-.733.192-.315.188-.494.507-.18.316-.184.703v1.07q0 .486.179.839.183.354.516.546.332.192.788.192.303 0 .554-.086a1.15 1.15 0 0 0 .431-.255 1.1 1.1 0 0 0 .272-.418l1.679.111q-.128.605-.524 1.057a2.6 2.6 0 0 1-1.014.699q-.618.247-1.428.247m4.189-.128v-6.546h1.76v1.142h.068q.18-.61.601-.92.422-.315.972-.315a2.6 2.6 0 0 1 .571.064v1.61a2.5 2.5 0 0 0-.354-.068q-.225-.03-.413-.03-.4 0-.716.175a1.3 1.3 0 0 0-.494.477q-.18.308-.179.708v3.703z"/><g fill="#0055DC" clip-path="url(#clip2_222_246)"><path d="M344.018 139.741a7.717 7.717 0 0 0 7.57-9.225 7.718 7.718 0 1 0-7.57 9.225m0-12.183a4.47 4.47 0 0 1 3.16 7.628 4.465 4.465 0 0 1-4.87.969 4.47 4.47 0 0 1-2.759-4.129 4.47 4.47 0 0 1 4.469-4.468m-16.226 15.551a5.687 5.687 0 1 0-5.687-5.688 5.69 5.69 0 0 0 5.687 5.688m0-8.125a2.43 2.43 0 0 1 2.252 1.504 2.436 2.436 0 1 1-2.252-1.502z"/><path d="M361.887 143.956h-3.277a8.05 8.05 0 0 0-3.486.792 11.32 11.32 0 0 0-8.668-4.035h-4.912c-1.649 0-3.277.36-4.772 1.055a11.3 11.3 0 0 0-3.885 2.967 8.1 8.1 0 0 0-3.469-.779h-3.276a8.12 8.12 0 0 0-8.112 8.111l1.625 1.625h48.72l1.625-1.625a8.12 8.12 0 0 0-8.113-8.111m-35.745 3.25h3.276a4.9 4.9 0 0 1 1.721.325c-.403.929-.68 1.907-.821 2.91h-8.758a4.87 4.87 0 0 1 4.582-3.235m7.459 3.236a8.12 8.12 0 0 1 7.943-6.479h4.912a8.12 8.12 0 0 1 7.944 6.479zm24.082 0a11.2 11.2 0 0 0-.818-2.901 4.8 4.8 0 0 1 1.745-.335h3.277a4.87 4.87 0 0 1 4.582 3.236z"/><path d="M360.261 143.109a5.687 5.687 0 1 0-5.687-5.688 5.69 5.69 0 0 0 5.687 5.688m0-8.125a2.44 2.44 0 0 1 2.391 2.913 2.436 2.436 0 0 1-4.417.878 2.434 2.434 0 0 1 2.026-3.789z"/></g><path fill="#757575" d="M343.293 239.707a1 1 0 0 0 1.414 0l6.364-6.364a.999.999 0 1 0-1.414-1.414L344 237.586l-5.657-5.657a.999.999 0 1 0-1.414 1.414zm1.414-31.414a1 1 0 0 0-1.414 0l-6.364 6.364a.999.999 0 1 0 1.414 1.414l5.657-5.657 5.657 5.657a.999.999 0 1 0 1.414-1.414zM345 239v-30h-2v30z"/><defs><clipPath id="clip0_222_246"><path fill="#fff" d="M36 25h32v32H36z"/></clipPath><clipPath id="clip1_222_246"><path fill="#fff" d="M504 133h32v32h-32z"/></clipPath><clipPath id="clip2_222_246"><path fill="#fff" d="M318 113h52v52h-52z"/></clipPath></defs></svg>