<svg width="64" height="64" viewBox="0 0 64 64" fill="#F6821F" xmlns="http://www.w3.org/2000/svg">
<path d="M37.69 20.8301L43.18 17.4701L43.03 23.9001H46.22L46.07 17.4701L51.57 20.8301L53.14 18.0601L47.48 14.9901L52.71 12.1601L53.14 11.9201L51.57 9.16009L46.07 12.5201L46.22 6.09009H43.03L43.18 12.5201L37.69 9.16009L36.11 11.9301L41.78 14.9901L36.11 18.0601L37.69 20.8301Z" fill="#F6821F"/>
<path d="M54.61 27.9001L51.84 27.5701L43.47 34.0001L42.98 33.4001L31.57 30.8501L20.68 30.8001L19.39 31.2701L12.59 37.0001L11 34.5001L7.60999 36.6301L19.77 56.0001L23.16 53.8801L22 52.0601L23.73 50.7401H42.55L44.08 50.0001L57.53 34.0901V31.5401L54.61 27.9001ZM41.61 46.7401H23.07L21.85 47.1501L19.85 48.6601L14.71 40.4601L21.39 34.8001H30.89L40.52 36.9301V37.8101H31.76V41.8101H42.55L44.55 39.8101V38.1801L52.73 31.9301L53.41 32.7701L41.61 46.7401Z" fill="#F6821F"/>
</svg>
