<svg width="64" height="64" viewBox="0 0 64 64" fill="none" xmlns="http://www.w3.org/2000/svg">
<path d="M53.4717 20.7896C53.5046 21.274 53.5046 21.7585 53.5046 22.2474C53.5046 37.1452 42.3601 54.3269 21.9821 54.3269V54.318C15.9623 54.3269 10.0676 52.5722 5 49.2635C5.87532 49.3707 6.75503 49.4243 7.63693 49.4265C12.6256 49.431 17.4717 47.7275 21.3963 44.5908C16.6556 44.4993 12.4984 41.3536 11.0461 36.7612C12.7068 37.0872 14.4179 37.0202 16.0479 36.567C10.8793 35.5043 7.16088 30.8829 7.16088 25.5159C7.16088 25.4668 7.16088 25.4199 7.16088 25.373C8.70091 26.2459 10.4252 26.7304 12.189 26.784C7.32102 23.4731 5.82048 16.8826 8.76015 11.7299C14.385 18.7736 22.6841 23.0556 31.5931 23.5088C30.7002 19.5929 31.9199 15.4895 34.7982 12.7367C39.2603 8.4681 46.2782 8.68689 50.4728 13.2257C52.9539 12.7278 55.332 11.8013 57.5082 10.4886C56.6812 13.0984 54.9503 15.3153 52.638 16.7241C54.834 16.4606 56.9795 15.8623 59 14.9492C57.5126 17.2175 55.6391 19.1933 53.4717 20.7896Z" fill="#F38020"/>
</svg>
