<svg id="Layer_1" data-name="Layer 1" xmlns="http://www.w3.org/2000/svg" xmlns:xlink="http://www.w3.org/1999/xlink" viewBox="0 0 546 348">
  <defs>
    <style>
      .cls-1 {
        fill: none;
      }

      .cls-12, .cls-2 {
        fill: #0050e4;
      }

      .cls-3 {
        fill: #b9e9f4;
      }

      .cls-4 {
        fill: #6ecce5;
      }

      .cls-5 {
        fill: #e2f5fa;
      }

      .cls-6 {
        fill: #f8fbfb;
      }

      .cls-11, .cls-7 {
        fill: #fff;
      }

      .cls-10, .cls-12, .cls-7 {
        fill-rule: evenodd;
      }

      .cls-8 {
        fill: #0050e5;
      }

      .cls-9 {
        fill: #bbebf6;
      }

      .cls-10, .cls-24 {
        fill: #bcecf7;
      }

      .cls-13 {
        clip-path: url(#clip-path);
      }

      .cls-14 {
        fill: #c3e9f3;
      }

      .cls-15 {
        fill: #10377e;
      }

      .cls-16 {
        fill: #0055da;
      }

      .cls-17 {
        fill: #003681;
      }

      .cls-18 {
        clip-path: url(#clip-path-2);
      }

      .cls-19 {
        fill: #c9e7f1;
      }

      .cls-20 {
        fill: #193979;
      }

      .cls-21 {
        fill: #1b59d0;
      }

      .cls-22 {
        clip-path: url(#clip-path-3);
      }

      .cls-23 {
        fill: #003487;
      }

      .cls-25 {
        clip-path: url(#clip-path-4);
      }

      .cls-26 {
        fill: #ff5912;
      }

      .cls-27 {
        fill: #fa1;
      }

      .cls-28 {
        fill: #f6821f;
      }

      .cls-29 {
        fill: #ddf5fa;
      }
    </style>
    <clipPath id="clip-path">
      <rect class="cls-1" x="263.39" y="175.22" width="45.48" height="34.37"/>
    </clipPath>
    <clipPath id="clip-path-2">
      <rect class="cls-1" x="263.39" y="209.59" width="45.48" height="34.37"/>
    </clipPath>
    <clipPath id="clip-path-3">
      <rect class="cls-1" x="263.39" y="243.95" width="45.48" height="34.37"/>
    </clipPath>
    <clipPath id="clip-path-4">
      <rect class="cls-1" x="137.93" y="175.22" width="125.45" height="103.1"/>
    </clipPath>
  </defs>
  <g>
    <rect class="cls-2" y="270.86" width="545.28" height="1.46"/>
    <g>
      <path class="cls-3" d="M409.46,109.06c0-47-41.65-78.23-74.65-78.23-35.5,0-69.91,22.08-78.79,56.83-31.48-6.07-64.67,19.25-64.67,56.15,0,34.9,30.09,56.73,50,56.73H421.11c22.37,0,42.65-21.49,42.65-43.75C463.76,124.93,440.22,105.08,409.46,109.06Z"/>
      <path class="cls-4" d="M386.77,116.15c0-34-30.11-56.55-54-56.55-25.67,0-50.54,16-57,41.09-22.76-4.4-46.76,13.91-46.76,40.59,0,25.23,21.76,41,36.16,41h130c16.17,0,30.84-15.54,30.84-31.63C426,127.63,409,113.28,386.77,116.15Z"/>
      <path class="cls-5" d="M364,123.21c0-20.91-18.51-34.76-33.17-34.76-15.78,0-31.07,9.81-35,25.25-14-2.7-28.74,8.55-28.74,25,0,15.51,13.37,25.21,22.22,25.21h79.87c9.95,0,19-9.55,19-19.44C388.08,130.26,377.62,121.44,364,123.21Z"/>
      <path class="cls-6" d="M350.06,127.71c0-13-11.48-21.57-20.58-21.57-9.79,0-19.28,6.09-21.73,15.67-8.67-1.67-17.83,5.31-17.83,15.49,0,9.62,8.3,15.64,13.79,15.64h49.56c6.17,0,11.77-5.93,11.77-12.07C365,132.09,358.54,126.62,350.06,127.71Z"/>
    </g>
    <g>
      <g>
        <g>
          <path class="cls-5" d="M38,260.31H54.69q1.68-2,3.23-4.28c9.37-13.8,10.36-29.47,10.36-29.47S53.32,234.5,44,248.3Z"/>
          <path class="cls-2" d="M55,261H36.86l6.48-13.15c9.37-13.79,24.45-21.89,24.6-22l1.15-.62L69,226.61c0,.15-1.11,16-10.49,29.83-1,1.46-2.09,2.92-3.27,4.34Zm-15.82-1.46H54.35c1.06-1.29,2.06-2.63,3-4,7.55-11.12,9.6-23.62,10.09-27.72-3.72,2.2-15.21,9.57-22.83,20.77Z"/>
        </g>
        <g>
          <path class="cls-5" d="M33.19,250.93c-7-10.28-18.19-16-18.19-16a49.16,49.16,0,0,0,7.72,22c.77,1.13,1.58,2.19,2.41,3.19H37.54Z"/>
          <path class="cls-2" d="M38.7,260.81H24.79l-.22-.26a40.66,40.66,0,0,1-2.45-3.25A49.31,49.31,0,0,1,14.27,235l-.08-1.28,1.14.59c.47.23,11.46,5.93,18.47,16.24l.05.1Zm-13.23-1.46H36.39l-3.83-8.05c-5.46-8-13.63-13.27-16.68-15.05a48.79,48.79,0,0,0,7.44,20.23C24,257.45,24.71,258.41,25.47,259.35Z"/>
        </g>
      </g>
      <g>
        <path class="cls-5" d="M46.83,260.31a49.29,49.29,0,0,0,1.75-12.72c0-13.69-8.3-24.79-8.3-24.79s-8.85,11.11-8.84,24.8c0,4.65,1.33,9,2.33,12.71H46.83Z"/>
        <path class="cls-2" d="M47.39,261H33.21l-.45-1.68A44.6,44.6,0,0,1,30.7,247.6c0-13.79,8.64-24.79,9-25.25l.59-.74.57.76c.35.46,8.44,11.44,8.45,25.22a50.37,50.37,0,0,1-1.77,12.91Zm-13.06-1.46H46.27a48.33,48.33,0,0,0,1.58-12c0-11.19-5.74-20.74-7.59-23.53-2,2.76-8.1,12.33-8.09,23.54a43.27,43.27,0,0,0,2,11.37Z"/>
      </g>
      <g>
        <path class="cls-3" d="M53.77,281H26c-3.53,0-6.39-2.57-6.39-5.74V259.74H60.16v15.48C60.16,278.39,57.3,281,53.77,281Z"/>
        <path class="cls-2" d="M53.77,281.69H26c-3.92,0-7.12-2.9-7.12-6.47V259h42v16.21C60.89,278.79,57.7,281.69,53.77,281.69ZM20.36,260.47v14.75c0,2.76,2.53,5,5.65,5H53.77c3.12,0,5.66-2.25,5.66-5V260.47Z"/>
      </g>
    </g>
    <g>
      <g>
        <g id="bottom">
          <g>
            <path id="Shape" class="cls-7" d="M356.55,306.7H91.35c-13.79,0-23.07-2.12-23.07-4.12v-6.12a1.23,1.23,0,0,1,1.35-1.09H378.29a1.24,1.24,0,0,1,1.35,1.09v6.11C379.63,304.15,372.44,306.7,356.55,306.7Z"/>
            <path class="cls-8" d="M356.56,307.43H91.35c-9.57,0-23.8-1.3-23.8-4.85v-6.12a2,2,0,0,1,2.08-1.82H378.29a2,2,0,0,1,2.07,1.82v6.11C380.35,305.38,370.33,307.43,356.56,307.43ZM69.63,296.1c-.38,0-.62.21-.62.36v6.12c.25.95,7.25,3.39,22.34,3.39H356.56c15.87,0,22-2.57,22.35-3.45v-6.06c0-.15-.24-.36-.61-.36Z"/>
          </g>
        </g>
        <path class="cls-9" d="M68.82,296.41v6.15H379.06v-6.15a.51.51,0,0,0-.51-.51H69.32A.51.51,0,0,0,68.82,296.41Z"/>
        <g>
          <path class="cls-10" d="M335.37,137.22H112.24A11.28,11.28,0,0,0,101,148.37V295.13H346.62V148.38A11.27,11.27,0,0,0,335.37,137.22Z"/>
          <path class="cls-8" d="M347.35,295.86H100.27V148.37a11.94,11.94,0,0,1,12-11.88H335.37a11.94,11.94,0,0,1,12,11.89ZM101.73,294.4H345.89v-146A10.49,10.49,0,0,0,335.37,138H112.24a10.6,10.6,0,0,0-10.51,10.42Z"/>
        </g>
        <rect class="cls-11" x="110.88" y="154.99" width="225.41" height="131.37"/>
        <circle id="webcam" class="cls-2" cx="223.8" cy="146.43" r="1.97"/>
        <path id="touchpad" class="cls-12" d="M257.54,295.9v1.29c0,1-2,1.29-3.42,1.29H193.58c-1.55,0-3.52-.29-3.52-1.29V295.9Z"/>
        <rect class="cls-2" x="110.88" y="154.99" width="225.41" height="10.23"/>
        <circle class="cls-11" cx="118.86" cy="160.11" r="1.71"/>
        <circle class="cls-11" cx="124.4" cy="160.11" r="1.71"/>
        <circle class="cls-11" cx="129.94" cy="160.11" r="1.71"/>
      </g>
      <g>
        <rect class="cls-5" x="137.93" y="175.22" width="125.45" height="103.1"/>
        <path class="cls-8" d="M263.75,278.68H137.57V174.86H263.75ZM138.3,278H263V175.59H138.3Z"/>
      </g>
      <rect class="cls-6" x="263.39" y="175.22" width="45.48" height="103.1"/>
      <g>
        <g class="cls-13">
          <g>
            <g>
              <path class="cls-14" d="M280.85,206.05a13.77,13.77,0,0,0,2.76-2V199l6.68.08v4.77c.3.59,1.45,1.32,3,2.18,0,0-2.86,4.26-6.45,4.26S280.85,206.05,280.85,206.05Z"/>
              <path class="cls-15" d="M286.83,210.63c-3.76,0-6.19-4.22-6.29-4.4l-.18-.31.3-.18a14.61,14.61,0,0,0,2.59-1.85V198.6l7.4.09v5a10.09,10.09,0,0,0,2.81,2l.34.2-.22.32C293.46,206.38,290.57,210.63,286.83,210.63Zm-5.47-4.46c.61.93,2.69,3.73,5.47,3.73s5.18-2.82,5.91-3.78A7.52,7.52,0,0,1,290,204l0-.08v-4.5l-5.94-.07v4.85l-.11.1A12.55,12.55,0,0,1,281.36,206.17Z"/>
            </g>
            <g>
              <path class="cls-16" d="M286.91,215.25a19.14,19.14,0,0,0,12.9-5,30,30,0,0,0-6.49-4.25s-2.9,4.23-6.49,4.23-6-4.17-6-4.17h0c-2.2,1.24-4.9,2.41-6.93,4.08A19.16,19.16,0,0,0,286.91,215.25Z"/>
              <path class="cls-15" d="M286.91,215.61a19.53,19.53,0,0,1-13.25-5.17l-.31-.29.32-.26a28.53,28.53,0,0,1,5-3.08c.67-.35,1.33-.69,1.94-1l.32-.18.18.32s2.35,4,5.68,4,6.16-4,6.19-4.07l.17-.26.28.13a29.74,29.74,0,0,1,6.58,4.31l.3.27-.3.27A19.55,19.55,0,0,1,286.91,215.61Zm-12.44-5.43a18.85,18.85,0,0,0,24.79.1,29.78,29.78,0,0,0-5.83-3.78c-.71.94-3.34,4.13-6.6,4.13s-5.47-3.06-6.12-4l-1.66.88A30.06,30.06,0,0,0,274.47,210.18Z"/>
            </g>
            <g>
              <g>
                <path class="cls-17" d="M284.08,196.69c0,.13-.82.19-.84.31s.75.42.72.54-.84,0-.89.06.6.61.53.71-.79-.28-.87-.19.41.75.32.83-.68-.49-.79-.43.18.84.07.89-.51-.66-.63-.63-.06.86-.19.87-.3-.78-.42-.78-.31.8-.43.78-.07-.83-.19-.87-.52.68-.63.63.17-.82.07-.89-.69.51-.78.43.39-.74.31-.83-.8.29-.87.19.59-.6.54-.71-.86.05-.89-.06.73-.41.71-.54-.83-.18-.83-.31.82-.19.83-.31-.75-.41-.71-.53.84.05.89-.06-.61-.61-.54-.72.79.29.87.2-.4-.76-.31-.84.68.5.78.43-.18-.84-.07-.89.51.67.63.63.07-.85.19-.87.3.79.43.79.3-.81.42-.79.07.84.19.87.52-.68.63-.63-.17.83-.07.89.69-.51.79-.43-.4.75-.32.84.81-.3.87-.19-.58.6-.53.71.85-.06.89.06-.74.41-.72.53S284.08,196.57,284.08,196.69Z"/>
                <path class="cls-17" d="M281.5,199.84c-.18,0-.26-.21-.37-.51l0-.11a.76.76,0,0,0,0,.11c-.13.32-.21.55-.41.51s-.23-.28-.26-.61c0,0,0-.07,0-.11s-.05.07-.06.09c-.21.28-.35.46-.54.37s-.15-.32-.08-.65l0-.11-.09.07c-.28.2-.46.34-.62.2s-.05-.34.11-.64l.05-.1-.1,0c-.33.12-.54.2-.65,0s0-.34.29-.59l.07-.07h-.1c-.35,0-.58,0-.64-.16s.14-.31.44-.48l.1-.06-.1,0c-.33-.07-.57-.13-.57-.34s.24-.26.57-.34l.1,0-.1-.05c-.3-.17-.5-.28-.44-.48s.3-.19.64-.17h.1l-.07-.08c-.25-.25-.41-.41-.29-.59s.33-.09.65,0l.1,0-.05-.09c-.16-.3-.27-.51-.11-.65s.34,0,.62.21l.09.06a.44.44,0,0,1,0-.1c-.08-.34-.12-.57.07-.66s.32.1.54.37a.47.47,0,0,0,.06.09s0-.07,0-.1c0-.34.05-.58.26-.61s.28.18.41.5a.49.49,0,0,0,0,.11,1,1,0,0,1,0-.1c.12-.33.21-.55.41-.51s.23.27.25.61a.31.31,0,0,1,0,.1l.07-.09c.21-.27.35-.45.54-.37s.14.33.07.66c0,0,0,.06,0,.1l.08-.06c.28-.21.47-.34.63-.21s.05.34-.12.65a.41.41,0,0,1-.05.09l.1,0c.33-.12.55-.2.66,0s-.05.33-.29.58l-.08.08h.11c.33,0,.57,0,.63.17s-.14.31-.44.48l-.09.05.1,0c.32.08.56.13.56.34s-.24.27-.56.34l-.1,0,.09.05c.3.17.5.28.44.48s-.28.19-.63.16h-.11l.08.07c.24.25.4.42.29.59s-.33.1-.66,0l-.1,0a.93.93,0,0,1,.05.1c.17.3.27.51.12.64s-.35,0-.63-.2l-.08-.07a.36.36,0,0,0,0,.11c.07.34.12.56-.07.65s-.33-.09-.54-.37l-.07-.09a.37.37,0,0,1,0,.11c0,.33,0,.58-.25.61Zm-1-1.25h.06c.17.05.2.23.22.5.1-.25.18-.42.35-.42s.25.17.34.42c0-.27.06-.45.22-.5s.28.09.45.3c-.06-.26-.08-.44.06-.53s.3,0,.52.16c-.13-.24-.2-.41-.09-.53s.28-.08.54,0c-.19-.2-.3-.34-.23-.49s.25-.16.52-.14c-.24-.13-.39-.24-.36-.4s.19-.22.47-.29c-.28-.06-.45-.11-.47-.28s.12-.27.36-.4c-.28,0-.45,0-.52-.14s0-.3.23-.49c-.25.09-.43.13-.54,0s0-.29.09-.53c-.22.16-.37.25-.52.16s-.12-.27-.06-.54c-.17.22-.29.35-.45.3s-.19-.22-.22-.49c-.09.25-.17.41-.34.41s-.25-.16-.35-.41c0,.27-.05.44-.21.49s-.29-.08-.45-.3c.05.27.07.45-.07.54s-.29,0-.51-.16c.12.24.19.4.08.53s-.28.08-.54,0c.19.19.3.33.23.48s-.23.16-.51.15c.23.13.38.23.36.4s-.19.22-.47.28c.28.07.44.12.47.29s-.13.27-.36.4c.26,0,.45,0,.51.14s0,.29-.23.49c.26-.09.43-.14.54,0s0,.29-.09.53c.22-.16.38-.25.52-.16s.12.27.07.53C280.22,198.72,280.33,198.59,280.46,198.59Z"/>
              </g>
              <g>
                <path class="cls-17" d="M295.63,196.69c0,.13-.82.19-.84.31s.75.42.72.54-.84,0-.89.06.6.61.54.71-.8-.28-.88-.19.41.75.32.83-.68-.49-.79-.43.18.84.07.89-.51-.66-.63-.63-.06.86-.19.87-.3-.78-.42-.78-.31.8-.43.78-.07-.83-.18-.87-.52.68-.63.63.17-.82.06-.89-.69.51-.78.43.39-.74.31-.83-.8.29-.87.19.59-.6.54-.71-.86.05-.89-.06.73-.41.72-.54-.84-.18-.84-.31.82-.19.84-.31-.76-.41-.72-.53.84.05.89-.06-.6-.61-.54-.72.79.29.88.2-.41-.76-.32-.84.68.5.78.43-.18-.84-.06-.89.51.67.63.63.06-.85.18-.87.3.79.43.79.3-.81.43-.79.07.84.18.87.52-.68.63-.63-.17.83-.06.89.69-.51.78-.43-.4.75-.32.84.81-.3.88-.19-.59.6-.54.71.85-.06.89.06-.73.41-.72.53S295.63,196.57,295.63,196.69Z"/>
                <path class="cls-17" d="M293.05,199.84c-.18,0-.25-.21-.37-.51,0,0,0-.07,0-.11a.76.76,0,0,0,0,.11c-.13.32-.21.55-.41.51s-.23-.28-.26-.61a.45.45,0,0,0,0-.11l-.06.09c-.21.28-.35.46-.54.37s-.14-.32-.07-.65a.52.52,0,0,1,0-.11l-.09.07c-.28.2-.46.34-.62.2s-.05-.34.11-.64a.31.31,0,0,0,.05-.1l-.1,0c-.32.12-.54.2-.65,0s0-.34.29-.59l.07-.07h-.1c-.35,0-.58,0-.64-.16s.14-.31.44-.48l.1-.06-.1,0c-.33-.07-.57-.13-.57-.34s.24-.26.57-.34l.1,0-.1-.05c-.3-.17-.5-.28-.44-.48s.31-.19.64-.17h.1l-.07-.08c-.24-.25-.41-.41-.29-.59s.33-.09.65,0l.1,0a.41.41,0,0,0-.05-.09c-.16-.31-.27-.51-.11-.65s.34,0,.62.21l.09.06a.44.44,0,0,1,0-.1c-.07-.34-.12-.57.07-.66s.33.1.54.37l.06.09a.38.38,0,0,0,0-.1c0-.34.05-.58.26-.61s.28.18.41.5a.49.49,0,0,0,0,.11s0-.07,0-.11c.12-.32.21-.54.41-.5s.23.26.26.61v.1l.07-.08c.21-.28.35-.46.54-.38s.14.33.07.66a.44.44,0,0,1,0,.1l.09-.06c.28-.21.46-.34.62-.21s0,.34-.11.65l-.06.09.11,0c.32-.12.54-.2.65,0s-.05.33-.29.58l-.08.08h.11c.33,0,.58,0,.64.17s-.14.31-.45.48l-.09.05.1,0c.33.08.57.13.57.34s-.24.27-.57.34l-.1,0,.09.05c.29.16.51.28.45.48s-.3.18-.64.16h-.11l.08.07c.24.25.4.42.29.59s-.33.1-.66,0l-.1,0,.05.1c.16.29.28.51.12.64s-.34,0-.62-.2l-.09-.07s0,.08,0,.11c.07.34.12.56-.07.65s-.33-.09-.54-.37l-.07-.09v.11c0,.33-.05.58-.26.61Zm-1-1.25h.07c.16.05.19.23.21.5.1-.25.18-.42.35-.42s.25.17.35.42c0-.27.05-.45.21-.5s.28.09.45.3c-.06-.26-.08-.44.07-.53s.29,0,.51.16c-.13-.24-.2-.41-.09-.53s.29-.08.54,0c-.19-.2-.3-.34-.23-.49s.25-.16.52-.14c-.24-.13-.38-.24-.36-.4s.2-.22.47-.29c-.28-.06-.45-.11-.47-.28s.12-.27.36-.4c-.28,0-.45,0-.52-.14s0-.3.23-.49c-.25.09-.43.13-.54,0s0-.29.09-.53c-.22.16-.37.25-.51.16s-.12-.27-.07-.54c-.17.22-.29.35-.45.3s-.19-.22-.21-.49c-.1.25-.18.41-.35.41s-.25-.16-.35-.41c0,.27-.05.44-.21.49s-.28-.08-.45-.3c.05.27.07.45-.07.54s-.29,0-.51-.16c.12.24.19.4.08.53s-.28.08-.54,0c.19.19.31.33.24.48s-.24.16-.52.15c.23.13.38.23.36.4s-.19.22-.47.28c.28.07.44.12.47.29s-.13.27-.36.4c.27,0,.45,0,.52.14s-.05.29-.24.49c.26-.09.44-.14.54,0s0,.29-.08.53c.22-.16.37-.25.51-.16s.12.27.07.53C291.77,198.72,291.88,198.59,292,198.59Z"/>
              </g>
              <g>
                <path class="cls-14" d="M293.28,192.56a1.06,1.06,0,0,1,1.38-.73c.84.25.37,3.28-2,3.17A20.92,20.92,0,0,0,293.28,192.56Z"/>
                <path class="cls-15" d="M292.81,195.37h-.13l-.48,0,.14-.45a21.94,21.94,0,0,0,.58-2.38h0a1.43,1.43,0,0,1,1.85-1c.5.15.74.8.6,1.61A2.63,2.63,0,0,1,292.81,195.37Zm.83-2.74c-.08.54-.29,1.38-.45,2a1.94,1.94,0,0,0,1.46-1.63c.09-.5,0-.78-.09-.8a.75.75,0,0,0-.61.06A.72.72,0,0,0,293.64,192.63Z"/>
              </g>
              <g>
                <path class="cls-14" d="M280.54,192.56a1.08,1.08,0,0,0-1.42-.73c-.73.29-.37,3.28,2,3.17A18.39,18.39,0,0,1,280.54,192.56Z"/>
                <path class="cls-15" d="M281,195.37a2.54,2.54,0,0,1-2.48-2.11c-.18-.85,0-1.58.5-1.77a1.32,1.32,0,0,1,1.18.06,1.52,1.52,0,0,1,.74.95v0a16.33,16.33,0,0,0,.53,2.37l.14.45-.48,0Zm-1.45-3.26a.85.85,0,0,0-.26,0,1.54,1.54,0,0,0,0,1.22,1.75,1.75,0,0,0,1.32,1.22,18.29,18.29,0,0,1-.42-2,.78.78,0,0,0-.37-.43A.67.67,0,0,0,279.51,192.11Z"/>
              </g>
              <g>
                <path class="cls-14" d="M293.58,189.78a19.54,19.54,0,0,1-1.74,7.39c-.83,1.58-3,3.34-4.89,3.34s-3.85-1.76-4.89-3.34c-1.33-2-1.75-5.66-1.75-7.39a6.64,6.64,0,1,1,13.27,0Z"/>
                <path class="cls-15" d="M287,200.87c-2.13,0-4.13-1.88-5.2-3.5-1.33-2-1.81-5.64-1.81-7.59a7,7,0,0,1,14,0,19.71,19.71,0,0,1-1.79,7.56C291.27,199,289,200.87,287,200.87Zm0-17.36a6.28,6.28,0,0,0-6.28,6.27c0,1.79.46,5.33,1.69,7.19,1,1.58,2.87,3.17,4.59,3.17s3.77-1.62,4.56-3.14a19.2,19.2,0,0,0,1.71-7.22A6.27,6.27,0,0,0,287,183.51Z"/>
              </g>
              <g>
                <path class="cls-17" d="M293.24,192c-.31-2.64-2.87-6.15-5.72-6.15l-.48-2.18-.38,2.22c-2.52.38-5.82,3.49-6.12,6.65l-.11-.11a19,19,0,0,1-.24-2.79,6.65,6.65,0,0,1,6.76-6.52,6.74,6.74,0,0,1,6.75,6.64,14.09,14.09,0,0,1-.37,2.7Z"/>
                <path class="cls-17" d="M280.54,192.69a.18.18,0,0,1-.13-.06l-.11-.11a.16.16,0,0,1-.05-.11,19.5,19.5,0,0,1-.24-2.81,6.94,6.94,0,0,1,13.87.12,13.68,13.68,0,0,1-.38,2.75c0,.08-.1.16-.18.13a.18.18,0,0,1-.18-.15l-.08-.46h0c-.39-3.31-3.35-6-5.54-6a.19.19,0,0,1-.19-.15l-.27-1.26-.22,1.29a.19.19,0,0,1-.16.15c-2.44.37-5.67,3.43-5.95,6.49a.19.19,0,0,1-.12.15Zm6.41-9.43a6.47,6.47,0,0,0-6.57,6.34,18.73,18.73,0,0,0,.13,2,8.71,8.71,0,0,1,6-5.92l.36-2.1a.19.19,0,0,1,.18-.15.18.18,0,0,1,.18.15l.44,2c2.64.11,5.11,3.1,5.68,5.79a11.88,11.88,0,0,0,.17-1.7A6.52,6.52,0,0,0,287,183.26Z"/>
              </g>
            </g>
          </g>
        </g>
        <g class="cls-18">
          <g>
            <g>
              <g>
                <polygon class="cls-19" points="290 242.87 290 234.36 282.07 234.27 282.07 242.87 290 242.87"/>
                <path class="cls-20" d="M290.36,243.24h-8.65V233.9l8.65.09Zm-7.92-.73h7.19v-7.79l-7.19-.08Z"/>
              </g>
              <g>
                <g>
                  <g>
                    <path class="cls-11" d="M291.63,231.17a31.1,31.1,0,0,0,.79-3.64"/>
                    <path class="cls-15" d="M291.63,231.35h0a.17.17,0,0,1-.14-.21c0-.14.09-.37.16-.65a21.8,21.8,0,0,0,.63-3,.18.18,0,0,1,.2-.17.18.18,0,0,1,.16.2,22,22,0,0,1-.63,3c-.08.27-.13.5-.16.64A.19.19,0,0,1,291.63,231.35Z"/>
                  </g>
                  <g>
                    <path class="cls-19" d="M292.38,227.53c.06-.52.89-1.68,1.78-1.09s-.09,4.89-2.53,4.73"/>
                    <path class="cls-20" d="M291.76,231.54h-.16l0-.73c1.12.06,1.88-1,2.23-2.07s.24-1.87.08-2a.51.51,0,0,0-.54-.05,1.45,1.45,0,0,0-.68.87l-.72-.09a2.09,2.09,0,0,1,1.1-1.44,1.23,1.23,0,0,1,1.24.1c.65.43.57,1.76.21,2.83C294.15,230.22,293.19,231.54,291.76,231.54Z"/>
                  </g>
                </g>
                <g>
                  <g>
                    <path class="cls-11" d="M280.43,231.17a31.1,31.1,0,0,1-.79-3.64"/>
                    <path class="cls-15" d="M280.43,231.52a.36.36,0,0,1-.34-.28c0-.14-.09-.36-.16-.63a22.32,22.32,0,0,1-.64-3.05.34.34,0,0,1,.32-.38.35.35,0,0,1,.38.31,20.38,20.38,0,0,0,.62,2.95c.07.28.13.51.16.65a.35.35,0,0,1-.26.42Z"/>
                  </g>
                  <g>
                    <path class="cls-19" d="M279.68,227.53c-.06-.52-.89-1.68-1.78-1.09s.09,4.89,2.53,4.73"/>
                    <path class="cls-20" d="M280.3,231.54c-1.43,0-2.39-1.32-2.81-2.57-.36-1.07-.44-2.4.2-2.83a1.25,1.25,0,0,1,1.25-.1,2.09,2.09,0,0,1,1.1,1.44l-.72.09a1.43,1.43,0,0,0-.68-.87.51.51,0,0,0-.54.05c-.17.11-.28.9.08,2s1.13,2.13,2.23,2.07l0,.73Z"/>
                  </g>
                </g>
                <g>
                  <path class="cls-19" d="M292.66,223.49A19,19,0,0,1,292,229c-.25.82-.55,3.35-.89,4-.87,1.65-3.09,3.49-5.12,3.49s-4-1.84-5.11-3.49c-.42-.63-.75-3.17-1-4a18.37,18.37,0,0,1-.51-5.46,6.64,6.64,0,1,1,13.26,0Z"/>
                  <path class="cls-20" d="M286,236.82c-2.21,0-4.3-2-5.42-3.66a9.88,9.88,0,0,1-.75-2.73c-.11-.56-.21-1.09-.3-1.37A17.23,17.23,0,0,1,279,224v-.47a7,7,0,1,1,14,0,19.51,19.51,0,0,1-.64,5.56c-.09.32-.2.92-.32,1.56a12,12,0,0,1-.6,2.52C290.54,234.9,288.2,236.82,286,236.82Zm0-19.91a6.28,6.28,0,0,0-6.26,6.58V224a16.77,16.77,0,0,0,.49,4.88c.1.32.21.85.33,1.45a10.71,10.71,0,0,0,.64,2.47c1.1,1.66,3,3.33,4.81,3.33s4-1.71,4.8-3.3a14,14,0,0,0,.53-2.31c.12-.66.23-1.29.33-1.64a18.85,18.85,0,0,0,.61-5.35A6.29,6.29,0,0,0,286,216.91Z"/>
                </g>
              </g>
              <g>
                <path class="cls-21" d="M286,249.42a19.09,19.09,0,0,0,13.31-5.37c-3.35-2.64-7.89-3.08-9.32-4.46h0c-1.64,1.27-6,1.27-7.93,0-1.39,1-6,1.56-9.14,4.69A19.15,19.15,0,0,0,286,249.42Z"/>
                <path class="cls-15" d="M286,249.79a19.53,19.53,0,0,1-13.33-5.24l-.28-.26.28-.27a17.4,17.4,0,0,1,6.92-3.77,10.22,10.22,0,0,0,2.25-.95l.21-.15.21.13c1.85,1.19,6,1.2,7.5,0l.1-.07h.27l.11.1a9.94,9.94,0,0,0,3.15,1.44,20.82,20.82,0,0,1,6.14,3l.33.26-.3.29A19.49,19.49,0,0,1,286,249.79Zm-12.54-5.52a18.8,18.8,0,0,0,25.28-.19,21.27,21.27,0,0,0-5.59-2.62,12.13,12.13,0,0,1-3.19-1.41c-1.84,1.16-5.79,1.15-7.89,0a13.18,13.18,0,0,1-2.24.92A17.42,17.42,0,0,0,273.47,244.27Z"/>
              </g>
            </g>
            <g>
              <path class="cls-15" d="M279.4,225.36c0-.72,0-1.37,0-1.87a6.64,6.64,0,1,1,13.26,0c0,.48,0,1.1,0,1.79h0l-1.82-1.42v-2.48h-9.65v2.48l-1.75,1.5Z"/>
              <path class="cls-15" d="M279.4,225.73a.4.4,0,0,1-.15,0,.38.38,0,0,1-.22-.33c0-.51,0-1,0-1.41v-.47a7,7,0,1,1,14,0c0,.49,0,1.11,0,1.8a.37.37,0,0,1-.21.32.38.38,0,0,1-.38-.05l-1.81-1.42a.35.35,0,0,1-.14-.28v-2.12h-8.92v2.12a.37.37,0,0,1-.13.27l-1.75,1.51A.38.38,0,0,1,279.4,225.73Zm6.63-8.82a6.29,6.29,0,0,0-6.27,6.58V224c0,.2,0,.4,0,.62l1-.89v-2.31a.37.37,0,0,1,.36-.37h9.65a.37.37,0,0,1,.37.37v2.3l1.11.87c0-.4,0-.76,0-1.06A6.28,6.28,0,0,0,286,216.91Z"/>
            </g>
          </g>
        </g>
        <g class="cls-22">
          <g>
            <path class="cls-21" d="M292,260.25a15.49,15.49,0,0,1-.48-2.74,20.45,20.45,0,0,1-10.35-2.82l.19-.23a19.94,19.94,0,0,0,10.28,2.74l.15,0v.15a17.36,17.36,0,0,0,.47,2.79Z"/>
            <g>
              <path class="cls-23" d="M272.4,277.28a4.7,4.7,0,0,1-.42-2.18c.07-2.09,5.37-3.71,5.37-4.89s-2.63-3.82-2.63-5.76,3.37-3.63,3.37-7.41c0-6.47,6.56-6.32,7.16-6.32,7.12,0,8,5.54,8.71,6.58.4.62,2.46,1,2.46,2.88s-1.56,2.81-1.79,4.27.27,2.35,2.78,3.74c3.59,2,3.13,7.51-2,8.64,0,0-5.52-2.2-6.64-3.93v-5.12l-7.17-.08v5.43c-1.6,1.74-6.28,3.92-8.33,5.06Z"/>
              <path class="cls-23" d="M273.24,278.64l-1.17-1.21a5.21,5.21,0,0,1-.46-2.34c.05-1.39,1.85-2.46,3.44-3.42.77-.46,1.94-1.16,1.94-1.46a6,6,0,0,0-1-2c-.75-1.19-1.61-2.54-1.61-3.74a4.77,4.77,0,0,1,1.34-2.68,7.54,7.54,0,0,0,2-4.74,6.33,6.33,0,0,1,1.72-4.66,8.21,8.21,0,0,1,5.73-2h0c6.28,0,8,4.22,8.72,6a5,5,0,0,0,.33.73,2.49,2.49,0,0,0,.63.46,3.08,3.08,0,0,1,1.89,2.62,4.84,4.84,0,0,1-1,2.72,4.33,4.33,0,0,0-.77,1.61c-.19,1.25.13,2,2.6,3.36a4.82,4.82,0,0,1,2.47,4.92,5.41,5.41,0,0,1-4.54,4.39l-.11,0-.11,0c-.23-.09-5.64-2.27-6.81-4.08l-.06-.09v-4.86l-6.43-.07v5.21l-.1.1c-1.28,1.39-4.42,3-6.72,4.23-.65.34-1.24.64-1.7.9Zm-.54-1.58.67.68,1.48-.78c2.18-1.14,5.16-2.69,6.42-4v-5.66l7.89.09v5.36c1,1.3,4.76,3,6.31,3.67a4.7,4.7,0,0,0,3.87-3.77,4.08,4.08,0,0,0-2.11-4.17c-2.5-1.39-3.22-2.39-3-4.11a4.87,4.87,0,0,1,.88-1.9,4.09,4.09,0,0,0,.91-2.32c0-1.07-.82-1.56-1.54-2a2.75,2.75,0,0,1-.87-.68,6,6,0,0,1-.39-.85c-.73-1.81-2.26-5.57-8-5.57h0a7.67,7.67,0,0,0-5.25,1.8,5.64,5.64,0,0,0-1.51,4.15,8.24,8.24,0,0,1-2.18,5.18,4.4,4.4,0,0,0-1.19,2.24,7.73,7.73,0,0,0,1.5,3.35,5.85,5.85,0,0,1,1.13,2.41c0,.72-1,1.29-2.3,2.09s-3,1.83-3.08,2.81A4.47,4.47,0,0,0,272.7,277.06Z"/>
            </g>
            <g>
              <path class="cls-24" d="M278.66,275.33a14.7,14.7,0,0,0,2.95-2.15v-5.44l7.17.09v5.11c.33.64,1.56,1.42,3.21,2.34a15,15,0,0,1-6.92,1.82A12.14,12.14,0,0,1,278.66,275.33Z"/>
              <path class="cls-23" d="M285.07,277.46a12.39,12.39,0,0,1-6.62-1.83l-.47-.32.49-.29a15.16,15.16,0,0,0,2.78-2v-5.66l7.89.1v5.37a10.66,10.66,0,0,0,3,2.12l.55.31-.55.33A15.29,15.29,0,0,1,285.07,277.46Zm-5.7-2.13a12.41,12.41,0,0,0,5.7,1.4,14.78,14.78,0,0,0,6.15-1.46,7.53,7.53,0,0,1-2.77-2.16l0-.08v-4.84l-6.43-.08v5.22l-.1.1A13.31,13.31,0,0,1,279.37,275.33Z"/>
            </g>
            <g>
              <path class="cls-8" d="M285.86,282.86a19.15,19.15,0,0,0,11.87-4.11,34.39,34.39,0,0,0-5.68-3.48,15.17,15.17,0,0,1-7,1.84,12.2,12.2,0,0,1-6.43-1.78h0c-1.66.93-3.57,1.82-5.32,2.89A19.13,19.13,0,0,0,285.86,282.86Z"/>
              <path class="cls-23" d="M285.86,283.23a19.55,19.55,0,0,1-12.76-4.74l-.38-.32.43-.26c1.05-.64,2.15-1.22,3.22-1.77.73-.38,1.44-.75,2.11-1.13l.19-.11.19.13a12,12,0,0,0,6.23,1.71,14.91,14.91,0,0,0,6.77-1.78l.17-.1.17.08a35,35,0,0,1,5.75,3.52l.37.29L298,279A19.36,19.36,0,0,1,285.86,283.23Zm-11.89-5a18.83,18.83,0,0,0,11.89,4.23,18.64,18.64,0,0,0,11.26-3.75,35.34,35.34,0,0,0-5.06-3.07,15.45,15.45,0,0,1-7,1.79,12.91,12.91,0,0,1-6.45-1.71c-.61.34-1.26.68-1.92,1C275.81,277.25,274.87,277.74,274,278.27Z"/>
            </g>
            <g>
              <g>
                <path class="cls-24" d="M292.33,257.84a21,21,0,0,1-1.87,7.92c-.89,1.7-3.17,3.58-5.25,3.58s-4.12-1.88-5.24-3.58c-1.43-2.15-1.88-6.07-1.88-7.92a7.12,7.12,0,0,1,14.24,0Z"/>
                <path class="cls-23" d="M285.21,269.71c-2.26,0-4.41-2-5.55-3.75-1.42-2.14-1.93-6-1.93-8.12a7.49,7.49,0,1,1,15,0,21.21,21.21,0,0,1-1.92,8.09C289.83,267.75,287.43,269.71,285.21,269.71Zm0-18.63a6.76,6.76,0,0,0-6.75,6.76c0,2,.48,5.71,1.81,7.72,1.13,1.7,3.09,3.42,4.94,3.42s4.07-1.75,4.93-3.39a20.67,20.67,0,0,0,1.83-7.75A6.76,6.76,0,0,0,285.21,251.08Z"/>
              </g>
              <g>
                <path class="cls-23" d="M292.12,260.18a18.69,18.69,0,0,1-.49-2.83,20.15,20.15,0,0,1-10.38-2.77s-1.33,5.2-2.91,6.24h0a20.45,20.45,0,0,1-.25-3,7.12,7.12,0,0,1,14.24,0,16.2,16.2,0,0,1-.21,2.34Z"/>
                <path class="cls-23" d="M278.2,261.15l0-.3a21,21,0,0,1-.26-3,7.31,7.31,0,1,1,14.62,0,16.21,16.21,0,0,1-.21,2.37l-.1.6-.26-.55a15.22,15.22,0,0,1-.49-2.71,21,21,0,0,1-10.1-2.66c-.3,1.1-1.49,5.15-2.91,6.09Zm7-10.24a6.93,6.93,0,0,0-6.93,6.93,21.38,21.38,0,0,0,.2,2.62c1.4-1.33,2.57-5.88,2.58-5.93l.07-.28.23.17a19.6,19.6,0,0,0,10.26,2.74l.18,0,0,.18c0,.39.14,1.17.25,1.81a12.75,12.75,0,0,0,.07-1.29A6.93,6.93,0,0,0,285.21,250.91Z"/>
              </g>
              <g>
                <path class="cls-24" d="M292,260.82a1.13,1.13,0,0,1,1.48-.79c.9.27.39,3.52-2.11,3.41A26.11,26.11,0,0,0,292,260.82Z"/>
                <path class="cls-23" d="M291.51,263.8h-.15l-.48,0,.15-.45a25.49,25.49,0,0,0,.62-2.56h0a1.5,1.5,0,0,1,.68-.94,1.53,1.53,0,0,1,1.27-.14c.52.16.77.84.63,1.7A2.76,2.76,0,0,1,291.51,263.8Zm.86-2.92a20.26,20.26,0,0,1-.5,2.16,2.13,2.13,0,0,0,1.64-1.78c.09-.56-.05-.86-.13-.88a.77.77,0,0,0-.67.06A.79.79,0,0,0,292.37,260.88Z"/>
              </g>
              <g>
                <path class="cls-24" d="M278.34,260.82a1.17,1.17,0,0,0-1.53-.79c-.78.32-.39,3.52,2.12,3.41A20.83,20.83,0,0,1,278.34,260.82Z"/>
                <path class="cls-23" d="M278.8,263.8a2.69,2.69,0,0,1-2.64-2.23c-.2-.9,0-1.67.52-1.88a1.39,1.39,0,0,1,1.24.07,1.58,1.58,0,0,1,.78,1v0a18.25,18.25,0,0,0,.57,2.55l.14.45-.48,0Zm-1.57-3.49a.74.74,0,0,0-.28.06,1.49,1.49,0,0,0,0,1.22,2,2,0,0,0,1.52,1.46,22,22,0,0,1-.46-2.17.92.92,0,0,0-.41-.48A.69.69,0,0,0,277.23,260.31Z"/>
              </g>
            </g>
          </g>
        </g>
        <path class="cls-8" d="M309.23,278.68H263V243.59h46.21ZM263.75,278H308.5V244.32H263.75Z"/>
        <path class="cls-8" d="M309.23,244.32H263v-35.1h46.21Zm-45.48-.73H308.5V210H263.75Z"/>
        <path class="cls-8" d="M309.23,210H263V174.86h46.21Zm-45.48-.73H308.5V175.59H263.75Z"/>
      </g>
      <g class="cls-25">
        <g>
          <g>
            <path class="cls-14" d="M239,278.94c-11.65-6.19-24.56-7.85-27-13.5-1.82-4.27,0-18.59,0-18.59l-28.15-.29s1.78,14.51,0,18.88c-2.16,5.31-13.89,7-24.66,13"/>
            <path class="cls-15" d="M238.8,279.28a105.11,105.11,0,0,0-13.44-5.65c-6.79-2.48-12.16-4.43-13.7-8-1.68-3.95-.37-15.89-.08-18.36L184.3,247c.29,2.5,1.57,14.6-.08,18.64-1.37,3.39-6.26,5.29-12.44,7.7a96.13,96.13,0,0,0-12.38,5.53l-.37-.68a98.28,98.28,0,0,1,12.47-5.58c6-2.34,10.76-4.18,12-7.26,1.72-4.23,0-18.55,0-18.7l0-.44,29,.31-.06.43c0,.14-1.78,14.26,0,18.39,1.4,3.3,6.63,5.2,13.25,7.61a107,107,0,0,1,13.53,5.7Z"/>
          </g>
          <g>
            <path class="cls-16" d="M199.36,293.67A60.49,60.49,0,0,0,239,278.94c-11.65-6.19-24.56-7.85-27-13.5a12.67,12.67,0,0,1-.71-3.69,72.77,72.77,0,0,1-13.38,1.44,72.63,72.63,0,0,1-13.38-1.44,12.93,12.93,0,0,1-.68,3.69c-2.16,5.31-13.89,7-24.65,13A60.43,60.43,0,0,0,199.36,293.67Z"/>
            <path class="cls-17" d="M199.36,294.06A61,61,0,0,1,159,278.78l-.42-.37.48-.27a97.6,97.6,0,0,1,12.48-5.58c6-2.34,10.75-4.19,12-7.26a12.68,12.68,0,0,0,.66-3.58l0-.45.45.1a73.22,73.22,0,0,0,13.29,1.43,73.54,73.54,0,0,0,13.3-1.43l.44-.1,0,.45a12.07,12.07,0,0,0,.68,3.57c1.4,3.29,6.63,5.2,13.25,7.61a104.88,104.88,0,0,1,13.53,5.69l.51.27-.44.38A61.1,61.1,0,0,1,199.36,294.06ZM159.9,278.55a60.26,60.26,0,0,0,78.38.47,107.69,107.69,0,0,0-12.92-5.38c-6.8-2.48-12.17-4.44-13.7-8a11.67,11.67,0,0,1-.7-3.38,73.06,73.06,0,0,1-13,1.36,72.91,72.91,0,0,1-13-1.36,12.11,12.11,0,0,1-.68,3.37c-1.38,3.39-6.26,5.29-12.45,7.7A100.22,100.22,0,0,0,159.9,278.55Z"/>
          </g>
          <g>
            <g>
              <path class="cls-14" d="M176.7,221.73c-.22-1.81-2.91-5.08-6.09-3s-.13,17.34,8.55,16.77"/>
              <path class="cls-15" d="M178.71,235.92c-3.79,0-7-3-8.74-8.06-1.24-3.68-1.42-8.22.42-9.44a3.84,3.84,0,0,1,3.88-.38,5.22,5.22,0,0,1,2.82,3.65l-.77.09a4.43,4.43,0,0,0-2.38-3,3.06,3.06,0,0,0-3.12.33c-1.3.86-1.36,4.85-.12,8.55.62,1.85,3.06,7.85,8.44,7.51l.05.77Z"/>
            </g>
            <g>
              <path class="cls-14" d="M219.29,221.73c.22-1.81,2.91-5.08,6.09-3s.12,17.34-8.55,16.77"/>
              <path class="cls-15" d="M217.28,235.92l-.48,0,0-.77c5.36.34,7.82-5.66,8.44-7.51,1.24-3.7,1.18-7.69-.12-8.55a3.06,3.06,0,0,0-3.12-.33,4.43,4.43,0,0,0-2.38,3l-.77-.09a5.22,5.22,0,0,1,2.82-3.65,3.84,3.84,0,0,1,3.88.38c1.84,1.22,1.66,5.76.42,9.44C224.31,233,221.07,235.92,217.28,235.92Z"/>
            </g>
            <g>
              <path class="cls-14" d="M219.83,211.09a63.11,63.11,0,0,1-2,17.78c-.83,2.93-1.81,11.92-2.94,14.25-2.83,5.88-10.12,12.41-16.75,12.41S185,249,181.36,243.13c-1.36-2.25-2.45-11.26-3.3-14.25-2-6.94-1.65-13.3-1.65-17.79,0-13.62,9.14-22.69,21.7-22.69S219.83,197.47,219.83,211.09Z"/>
              <path class="cls-15" d="M198.12,255.92c-6.94,0-13.54-6.78-17.09-12.59-.91-1.5-1.67-5.69-2.34-9.38-.36-2-.7-3.9-1-5-1.75-6.17-1.7-12-1.67-16.22,0-.58,0-1.14,0-1.67,0-13.58,9.08-23.07,22.09-23.07s22.11,9.49,22.11,23.07a63.18,63.18,0,0,1-2,17.88c-.33,1.17-.69,3.35-1.07,5.65-.59,3.56-1.19,7.23-1.89,8.67C212.29,249.37,204.92,255.92,198.12,255.92Zm0-67.13c-12.55,0-21.32,9.17-21.32,22.3,0,.54,0,1.09,0,1.67a54.44,54.44,0,0,0,1.65,16c.31,1.1.66,3,1,5,.63,3.45,1.41,7.74,2.24,9.11,3.71,6.09,10.23,12.23,16.43,12.23s13.57-6.31,16.41-12.19c.64-1.34,1.27-5.13,1.82-8.46.38-2.33.74-4.53,1.08-5.74a62.23,62.23,0,0,0,2-17.67C219.45,198,210.67,188.79,198.11,188.79Z"/>
            </g>
            <g>
              <path class="cls-17" d="M216,208.22s-22.44,2.11-32.68-5.27c0,0-3,12.57-6.63,18.78,0,0-4.49-19.07,2.05-21.6,0,0-.54-10.59,11.13-13.3,0,0-.6,2.64,1.36,2.56s17.5-9,28.59-2,2.58,17.24,2.58,17.24.3,10.82-2.37,15.39l-1,3.1S216.26,213.29,216,208.22Z"/>
              <path class="cls-17" d="M219.07,223.37h0a.29.29,0,0,1-.27-.2c0-.1-2.71-9.52-3-14.64-2.65.2-22.53,1.51-32.23-5.11-.55,2.21-3.31,12.91-6.56,18.46a.3.3,0,0,1-.29.14.29.29,0,0,1-.23-.22c-.19-.78-4.39-19,2-21.86,0-1.51.49-10.86,11.36-13.39a.29.29,0,0,1,.34.34,2.64,2.64,0,0,0,.22,1.91,1,1,0,0,0,.84.31,15.55,15.55,0,0,0,2.54-.88c5.15-2,17.21-6.8,26.22-1.11,3.32,2.09,5.24,4.68,5.72,7.7.77,4.89-2.47,9.21-3,9.88,0,1.2.16,11-2.42,15.43l-.94,3A.29.29,0,0,1,219.07,223.37ZM216,207.93a.32.32,0,0,1,.19.07.27.27,0,0,1,.09.2c.21,4.08,2.1,11.32,2.79,13.88l.69-2.17c2.62-4.51,2.36-15.19,2.36-15.3a.26.26,0,0,1,.06-.19s3.73-4.56,2.94-9.51c-.45-2.85-2.28-5.31-5.45-7.31-8.77-5.54-20.21-1-25.71,1.16a13.51,13.51,0,0,1-2.72.92,1.52,1.52,0,0,1-1.31-.52,2.78,2.78,0,0,1-.41-1.95C178.66,190,179,199.7,179,200.11a.28.28,0,0,1-.19.28c-5.52,2.14-2.76,17.06-2,20.55,3.41-6.29,6.2-17.94,6.23-18.06a.28.28,0,0,1,.18-.2.32.32,0,0,1,.27,0c10,7.24,32.26,5.25,32.48,5.22Z"/>
            </g>
          </g>
        </g>
      </g>
    </g>
    <g>
      <g>
        <g>
          <g>
            <path class="cls-24" d="M394.7,320.9h-63a4.38,4.38,0,0,1-4.38-4.38v-124a4.38,4.38,0,0,1,4.38-4.38h63a4.37,4.37,0,0,1,4.38,4.38v124A4.39,4.39,0,0,1,394.7,320.9Z"/>
            <path class="cls-8" d="M394.7,321.63h-63a5.11,5.11,0,0,1-5.11-5.11v-124a5.11,5.11,0,0,1,5.11-5.11h63a5.11,5.11,0,0,1,5.11,5.11v124A5.11,5.11,0,0,1,394.7,321.63Zm-63-132.79a3.66,3.66,0,0,0-3.65,3.65v124a3.66,3.66,0,0,0,3.65,3.65h63a3.66,3.66,0,0,0,3.66-3.65v-124a3.65,3.65,0,0,0-3.65-3.65Z"/>
          </g>
          <path class="cls-2" d="M394.7,321.75h-63a5.23,5.23,0,0,1-5.23-5.23v-124a5.23,5.23,0,0,1,5.23-5.23h63a5.23,5.23,0,0,1,5.23,5.23v124A5.24,5.24,0,0,1,394.7,321.75ZM331.69,189a3.53,3.53,0,0,0-3.53,3.53v124a3.53,3.53,0,0,0,3.53,3.53h63a3.54,3.54,0,0,0,3.54-3.53v-124a3.54,3.54,0,0,0-3.54-3.53Z"/>
        </g>
        <rect class="cls-11" x="331.43" y="200.54" width="63.53" height="111.08"/>
        <g>
          <path class="cls-21" d="M368.47,196.05H356.65a.88.88,0,0,1-.88-.89h0a.88.88,0,0,1,.88-.88h11.82a.89.89,0,0,1,.89.88h0A.9.9,0,0,1,368.47,196.05Z"/>
          <circle class="cls-21" cx="352.41" cy="195.15" r="1.51"/>
        </g>
      </g>
      <g>
        <circle class="cls-11" cx="363.1" cy="255.22" r="23.29"/>
        <path class="cls-26" d="M363.1,279.24a24,24,0,1,1,24-24A24,24,0,0,1,363.1,279.24Zm0-46.57a22.56,22.56,0,1,0,22.56,22.55A22.58,22.58,0,0,0,363.1,232.67Z"/>
      </g>
      <g>
        <path class="cls-27" d="M353.41,244l-.54-.85c5.32-3.38,13.94-3.37,19.21,0l-.54.84C366.56,240.77,358.43,240.77,353.41,244Z"/>
        <path class="cls-28" d="M349.77,251.66l-.85-.54a16.55,16.55,0,0,1,27.28,0l-.86.52A15.59,15.59,0,0,0,362.42,245,15.75,15.75,0,0,0,349.77,251.66Z"/>
        <path class="cls-26" d="M367,269.87a12.44,12.44,0,0,1-6-3.32,9.51,9.51,0,0,1-3.06-6.76c0-3.34,2.16-5,4.16-5.11a4,4,0,0,1,4.23,3.82,3.84,3.84,0,0,0,1.43,2.86,4.06,4.06,0,0,0,2.92.46l.08,0c.11,0,2.59-.29,2.36-3.93a10.24,10.24,0,0,0-10.67-9.44,10.66,10.66,0,0,0-9.17,4.69,12.44,12.44,0,0,0-1,11.55l-.94.38a13.49,13.49,0,0,1,1.14-12.49,11.63,11.63,0,0,1,10-5.14,11.24,11.24,0,0,1,11.68,10.39c.26,4.33-2.79,4.93-3.23,5a5,5,0,0,1-3.7-.61,4.73,4.73,0,0,1-1.87-3.57,3,3,0,0,0-3.18-2.93c-1.59.09-3.2,1.39-3.2,4.1,0,4.84,4.79,8.39,8.25,9.09Z"/>
        <path class="cls-28" d="M359,269.18a11.3,11.3,0,0,1-4.39-12.53c1.1-3.56,3.88-5.76,7.25-5.76,6.19,0,8.39,4.68,8.39,8.68h-1c0-1.28-.36-7.68-7.39-7.68-3,0-5.31,1.89-6.29,5.05a10.28,10.28,0,0,0,4,11.41Z"/>
        <path class="cls-27" d="M370.69,266.89a9.7,9.7,0,0,1-6.73-2.44,7.81,7.81,0,0,1-2.33-5.85h1a6.76,6.76,0,0,0,2,5.12,8.9,8.9,0,0,0,6.57,2.15l0,1Z"/>
      </g>
    </g>
    <g>
      <g>
        <g>
          <path class="cls-29" d="M526.59,216l-20.2-9a81.16,81.16,0,0,0,6.6-23l17.48,7.83h0A47.27,47.27,0,0,1,526.59,216Z"/>
          <path class="cls-11" d="M506.39,207l20.2,9a47.14,47.14,0,0,1-15.48,19.05h0l-17.49-7.82c1.39-1.59,2.75-3.29,4.06-5.09A85.37,85.37,0,0,0,506.39,207Z"/>
          <path class="cls-11" d="M530.48,191.82h0L513,184c1.79-14.72-1.78-26.76-10.32-30.58A47.41,47.41,0,0,1,530.48,191.82Z"/>
          <path class="cls-29" d="M493.62,227.27l17.49,7.82A47.39,47.39,0,0,1,464,240C472.49,243.78,483.85,238.42,493.62,227.27Z"/>
          <path class="cls-11" d="M506.39,207l-23.08-10.33L493,175.05,513,184A81.16,81.16,0,0,1,506.39,207Z"/>
          <path class="cls-29" d="M483.31,196.68,506.39,207a85.37,85.37,0,0,1-8.71,15.17c-1.31,1.8-2.67,3.5-4.06,5.09l-20-9Z"/>
          <path class="cls-29" d="M513,184l-20-8.94,9.68-21.64C511.21,157.23,514.78,169.27,513,184Z"/>
          <path class="cls-11" d="M473.63,218.32l20,9C483.85,238.42,472.49,243.78,464,240Z"/>
          <path class="cls-29" d="M473.63,218.32,464,240c-8.54-3.82-12.11-15.86-10.31-30.58Z"/>
          <path class="cls-11" d="M483.31,196.68l-9.68,21.64-20-8.94a81.22,81.22,0,0,1,6.59-23Z"/>
          <path class="cls-29" d="M493,175.05l-9.68,21.63-23.08-10.32A81.67,81.67,0,0,1,473,166.1Z"/>
          <path class="cls-11" d="M502.67,153.41,493,175.05l-20-9C482.77,155,494.12,149.59,502.67,153.41Z"/>
          <path class="cls-29" d="M502.67,153.41c-8.55-3.82-19.9,1.54-29.68,12.69l-17.48-7.82A47.36,47.36,0,0,1,502.67,153.41Z"/>
          <path class="cls-11" d="M453.64,209.38c-1.8,14.72,1.77,26.76,10.31,30.58a47.4,47.4,0,0,1-27.81-38.41Z"/>
          <path class="cls-29" d="M453.64,209.38l-17.5-7.83a47.23,47.23,0,0,1,3.9-24.23l20.19,9A81.22,81.22,0,0,0,453.64,209.38Z"/>
          <path class="cls-11" d="M455.51,158.28,473,166.1a81.67,81.67,0,0,0-12.76,20.26l-20.19-9A47.14,47.14,0,0,1,455.51,158.28Z"/>
        </g>
        <g>
          <path class="cls-2" d="M483.27,244.8a48,48,0,1,1,28.27-9.11l-.85-1.19a46.7,46.7,0,1,0-46.44,4.79,46.68,46.68,0,0,0,46.44-4.79l.86,1.18A48.26,48.26,0,0,1,483.27,244.8Z"/>
          <path class="cls-2" d="M469.79,241.89a14.81,14.81,0,0,1-6.14-1.27c-8.52-3.81-12.63-15.81-10.74-31.33a85.64,85.64,0,0,1,19.54-43.67c10.31-11.75,22-16.69,30.52-12.88s12.63,15.82,10.74,31.34a82.35,82.35,0,0,1-6.65,23.23,85.63,85.63,0,0,1-8.79,15.3c-1.31,1.79-2.69,3.52-4.1,5.14C486.17,236.88,477.33,241.89,469.79,241.89Zm27-89c-7.1,0-15.54,4.85-23.27,13.65a84.25,84.25,0,0,0-19.18,42.89c-1.81,14.85,2,26.28,9.89,29.82s19-1.25,28.82-12.5c1.39-1.58,2.74-3.28,4-5h0a83.09,83.09,0,0,0,8.64-15,80.54,80.54,0,0,0,6.54-22.8c1.81-14.87-2-26.3-9.89-29.83A13.34,13.34,0,0,0,496.81,152.93Z"/>
          <rect class="cls-2" x="482.58" y="149.28" width="1.46" height="94.82" transform="translate(106.4 557.53) rotate(-65.9)"/>
          <rect class="cls-2" x="435.9" y="195.95" width="94.82" height="1.46" transform="translate(106.5 557.64) rotate(-65.91)"/>
          <rect class="cls-2" x="492.26" y="133.98" width="1.46" height="82.13" transform="translate(131.88 553.57) rotate(-65.9)"/>
          <polygon class="cls-2" points="510.83 235.76 435.85 202.22 436.44 200.89 511.41 234.43 510.83 235.76"/>
        </g>
      </g>
      <g>
        <g>
          <rect class="cls-5" x="465.78" y="254.24" width="7.23" height="29.36" transform="translate(938.78 537.84) rotate(-180)"/>
          <path class="cls-8" d="M473.73,284.33h-8.68V253.51h8.68Zm-7.22-1.46h5.76V255h-5.76Z"/>
        </g>
        <g>
          <path class="cls-5" d="M503.35,145,459.61,246a18.52,18.52,0,0,0,2.06,1,55.12,55.12,0,0,0,43.8-101.16,19.36,19.36,0,0,0-2.12-.82l2.61-6c.73.31,1.41.51,2.13.82a61.7,61.7,0,0,1-49,113.24,17.71,17.71,0,0,1-2.06-1ZM457,252m49-113.07"/>
          <path class="cls-8" d="M483.49,258.79a62,62,0,0,1-24.72-5.14,20.87,20.87,0,0,1-2.14-1l-.56-.33,3.2-7.39.7.41a21.43,21.43,0,0,0,2,1,54.39,54.39,0,1,0,43.22-99.82,19.67,19.67,0,0,0-2.05-.79l-.78-.24,3.23-7.46.67.29c.35.15.69.27,1,.4s.72.26,1.1.42a62.43,62.43,0,0,1-24.89,119.72Zm-25.56-7.12c.45.22.9.41,1.39.63A61,61,0,1,0,507.8,140.41c-.35-.15-.69-.27-1-.39l-.42-.16-2,4.66c.49.19.95.39,1.43.6a55.84,55.84,0,1,1-44.38,102.49c-.48-.21-.94-.41-1.41-.64Z"/>
        </g>
        <g>
          <rect class="cls-5" x="465.78" y="259.29" width="7.23" height="56.9" transform="translate(181.65 757.13) rotate(-90)"/>
          <path class="cls-8" d="M498.57,292.08H440.21V283.4h58.36Zm-56.9-1.46h55.44v-5.76H441.67Z"/>
        </g>
        <g>
          <rect class="cls-5" x="465.78" y="261.87" width="7.23" height="37.91" transform="translate(188.56 750.21) rotate(-90)"/>
          <path class="cls-8" d="M489.07,285.17H449.7v-8.69h39.37Zm-37.91-1.46h36.45v-5.77H451.16Z"/>
        </g>
      </g>
    </g>
  </g>
</svg>
